<svg version="1.1" xmlns="http://www.w3.org/2000/svg" xmlns:xlink="http://www.w3.org/1999/xlink" width="208" height="32" viewBox="0,0,208,32"><g transform="translate(-240,-164)"><g stroke="none" stroke-miterlimit="10"><path d="M253.34616,176.28808l2.31472,0.66593c-0.77157,2.33074 -1.7826,4.34239 -3.03308,6.03496c-1.25048,1.69256 -2.74307,3.11459 -4.47778,4.26609c-1.73737,1.1515 -3.73015,2.08102 -5.97836,2.78857c-0.09312,-0.19423 -0.2195,-0.42314 -0.37913,-0.68674c-0.15964,-0.2636 -0.33258,-0.53413 -0.51882,-0.8116c-0.18624,-0.27747 -0.35253,-0.50638 -0.49886,-0.68674c2.18169,-0.58269 4.09466,-1.37347 5.7389,-2.37236c1.64159,-0.99889 3.03175,-2.2586 4.17048,-3.77913c1.13607,-1.51776 2.02338,-3.32408 2.66193,-5.41897M247.28001,176.49618c0.63854,1.90066 1.51388,3.60016 2.62601,5.0985c1.10947,1.49833 2.47968,2.76082 4.11062,3.78746c1.62828,1.02664 3.53327,1.78274 5.71496,2.26831c-0.15964,0.18036 -0.33923,0.40511 -0.53877,0.67425c-0.19954,0.27192 -0.38579,0.54939 -0.55873,0.83241c-0.17294,0.28579 -0.31927,0.53968 -0.439,0.76165c-2.28811,-0.61043 -4.27026,-1.49556 -5.94643,-2.65538c-1.67618,-1.15705 -3.08629,-2.58185 -4.23035,-4.27441c-1.14406,-1.69256 -2.10187,-3.64178 -2.87344,-5.84766l2.13513,-0.64512M246.54169,170.69014l2.21495,0.87403c-0.49221,0.83241 -1.0536,1.67453 -1.68416,2.52636c-0.63322,0.85461 -1.29172,1.66343 -1.97549,2.42647c-0.68643,0.76304 -1.35557,1.42897 -2.00742,1.99778c-0.11973,-0.16648 -0.27936,-0.37458 -0.47891,-0.62431c-0.19954,-0.24972 -0.40574,-0.49667 -0.61859,-0.74084c-0.21285,-0.2414 -0.39909,-0.4384 -0.55873,-0.59101c0.62524,-0.4717 1.25447,-1.02664 1.88769,-1.66482c0.63056,-0.63818 1.2252,-1.31798 1.78393,-2.0394c0.55873,-0.72142 1.03763,-1.44284 1.43672,-2.16426M251.78972,171.8347l1.85577,-1.2278c0.65185,0.61043 1.33429,1.29301 2.04733,2.04772c0.71038,0.75749 1.37553,1.50666 1.99545,2.2475c0.61726,0.74362 1.11213,1.42064 1.48461,2.03107l-2.05531,1.45671c-0.33258,-0.61043 -0.79419,-1.29717 -1.38484,-2.06021c-0.59331,-0.76304 -1.23585,-1.53995 -1.9276,-2.33074c-0.69176,-0.79079 -1.36355,-1.51221 -2.0154,-2.16426zM276.79266,179.55528h2.11517c0,0 -0.00266,0.05549 -0.00798,0.16648c-0.00798,0.11099 -0.01197,0.23585 -0.01197,0.37458c0,0.13874 -0.00665,0.2636 -0.01995,0.37458c-0.09312,1.85904 -0.19289,3.36709 -0.29932,4.52414c-0.10642,1.15982 -0.2328,2.05189 -0.37913,2.67619c-0.14633,0.62431 -0.32592,1.06826 -0.53877,1.33185c-0.22615,0.27747 -0.46827,0.4717 -0.72634,0.58269c-0.26074,0.11099 -0.56405,0.18729 -0.90992,0.22891c-0.29267,0.04162 -0.67446,0.06243 -1.14539,0.06243c-0.47359,0 -0.96979,-0.00694 -1.4886,-0.02081c-0.02661,-0.30522 -0.09578,-0.65205 -0.20753,-1.04051c-0.1144,-0.38846 -0.25143,-0.71448 -0.41106,-0.97808c0.49221,0.04162 0.95116,0.0652 1.37686,0.07075c0.42569,0.00832 0.73832,0.01249 0.93786,0.01249c0.17294,0 0.31661,-0.01387 0.43102,-0.04162c0.11175,-0.02775 0.22083,-0.09711 0.32725,-0.2081c0.14633,-0.16648 0.27936,-0.52719 0.39909,-1.08213c0.11973,-0.55494 0.22349,-1.37347 0.31129,-2.4556c0.08514,-1.08213 0.16762,-2.49029 0.24744,-4.22447v-0.35377M266.93515,182.17736h1.97549v4.93202h-1.97549v-4.93202M271.92377,182.98896h1.95554v5.80604h-1.95554v-5.80604M262.12613,183.03058h1.95554v3.32963h8.66024v1.85211h-10.61578v-5.18174M274.55776,172.31333h1.99545c0,0 0,0.09711 0,0.29134c0,0.19423 -0.00665,0.35377 -0.01995,0.47863c-0.06651,1.04051 -0.13569,1.9076 -0.20753,2.60127c-0.0745,0.69367 -0.16097,1.24168 -0.25941,1.64401c-0.1011,0.40233 -0.23812,0.69367 -0.41106,0.87403c-0.15964,0.2081 -0.33524,0.35655 -0.5268,0.44534c-0.19422,0.09156 -0.41771,0.15122 -0.67047,0.17897c-0.21285,0.04162 -0.48822,0.0652 -0.82611,0.07075c-0.34056,0.00832 -0.70373,0.00555 -1.08951,-0.00832c-0.02661,-0.30522 -0.08647,-0.64234 -0.17959,-1.01138c-0.09312,-0.36626 -0.21285,-0.68119 -0.35918,-0.94478c0.30597,0.02775 0.58533,0.04856 0.83809,0.06243c0.25276,0.01387 0.44565,0.02081 0.57868,0.02081c0.11973,0 0.22615,-0.01387 0.31927,-0.04162c0.09312,-0.02775 0.17294,-0.08324 0.23945,-0.16648c0.13303,-0.15261 0.2461,-0.54107 0.33923,-1.16537c0.09312,-0.62431 0.17294,-1.64401 0.23945,-3.0591v-0.27053M268.69115,170.48203l2.55417,0.22891c-0.21285,0.51332 -0.4523,1.0086 -0.71836,1.48585c-0.26606,0.48002 -0.50551,0.89345 -0.71836,1.24029l-1.89567,-0.35377c0.14633,-0.38846 0.29666,-0.82547 0.45097,-1.31104c0.15165,-0.48557 0.26074,-0.91565 0.32725,-1.29023M266.49616,176.26727l1.05759,-1.41509c0.4656,0.16648 0.96447,0.36765 1.49658,0.6035c0.53212,0.23585 1.04029,0.47863 1.52452,0.72836c0.48689,0.24972 0.88997,0.48557 1.20924,0.70755l-1.11745,1.56076c-0.29267,-0.22198 -0.67845,-0.46476 -1.15736,-0.72836c-0.47891,-0.2636 -0.98176,-0.52442 -1.50856,-0.78246c-0.52414,-0.25527 -1.02566,-0.48002 -1.50457,-0.67425M275.17635,172.31333v1.99778h-9.49833v5.24417h11.75318v1.95616h-13.8484v-9.19811zM289.44379,176.45456h9.83755v2.08102h-9.83755v-2.08102M293.71405,177.41183h2.11517v8.96919h-2.11517v-8.96919M285.63249,178.01532v8.32408h-2.09522v-6.1182h-2.39454v-2.20588h4.48975M288.26648,171.77227h2.17504v4.59905c0,0.74917 -0.02661,1.56354 -0.07982,2.44312c-0.05321,0.88235 -0.15698,1.78135 -0.31129,2.697c-0.15165,0.91565 -0.36982,1.80355 -0.65451,2.6637c-0.28734,0.86015 -0.65717,1.63707 -1.10947,2.33074c-0.11973,-0.12486 -0.29666,-0.27747 -0.53079,-0.45782c-0.23147,-0.18036 -0.46693,-0.351 -0.70639,-0.51193c-0.23945,-0.15816 -0.439,-0.27886 -0.59863,-0.3621c0.55873,-0.86015 0.96447,-1.80771 1.21722,-2.84267c0.25276,-1.03219 0.41505,-2.06853 0.48689,-3.10904c0.0745,-1.04051 0.11175,-1.99084 0.11175,-2.851v-4.59905M297.24599,170.58609l1.75599,1.66482c-0.91791,0.30522 -1.94889,0.55494 -3.09294,0.74917c-1.14406,0.19423 -2.32403,0.34268 -3.53992,0.44534c-1.21855,0.10544 -2.3932,0.17203 -3.52396,0.19978c-0.03991,-0.2636 -0.11574,-0.57991 -0.22748,-0.94894c-0.1144,-0.36626 -0.23147,-0.67425 -0.3512,-0.92397c0.81148,-0.04162 1.63228,-0.09434 2.46238,-0.15816c0.83277,-0.06104 1.6509,-0.14012 2.4544,-0.23724c0.80616,-0.09711 1.55512,-0.21226 2.24687,-0.34545c0.69176,-0.13041 1.29704,-0.27886 1.81586,-0.44534M284.53499,185.21565c0.23945,0 0.46294,0.05827 0.67047,0.17481c0.20487,0.11931 0.43767,0.27192 0.69841,0.45782c0.25808,0.18868 0.58001,0.39401 0.9658,0.61598c0.66515,0.40233 1.44736,0.65899 2.34665,0.76998c0.89662,0.11099 1.90366,0.16648 3.02111,0.16648c0.54542,0 1.1414,-0.00694 1.78792,-0.02081c0.64386,-0.01387 1.29837,-0.04162 1.96352,-0.08324c0.66515,-0.04162 1.30768,-0.09434 1.9276,-0.15816c0.61726,-0.06104 1.17864,-0.12625 1.68416,-0.19562c-0.07982,0.19423 -0.16629,0.43701 -0.25941,0.72836c-0.09312,0.29134 -0.17294,0.57852 -0.23945,0.86154c-0.06651,0.28579 -0.10642,0.53274 -0.11973,0.74084c-0.35918,0.02775 -0.81813,0.05549 -1.37686,0.08324c-0.55873,0.02775 -1.16401,0.05133 -1.81586,0.07075c-0.65185,0.0222 -1.29305,0.04023 -1.92361,0.05411c-0.63322,0.01387 -1.20259,0.02081 -1.7081,0.02081c-1.25048,0 -2.32536,-0.0763 -3.22464,-0.22891c-0.89662,-0.15261 -1.70411,-0.43701 -2.42247,-0.85322c-0.4523,-0.2636 -0.84474,-0.53135 -1.17731,-0.80327c-0.33258,-0.26914 -0.61194,-0.40372 -0.83809,-0.40372c-0.21285,0 -0.44565,0.12764 -0.69841,0.38291c-0.25276,0.25805 -0.51882,0.58824 -0.79818,0.99057c-0.27936,0.40233 -0.55207,0.81853 -0.81813,1.24861l-1.43672,-2.12264c0.67845,-0.74917 1.35291,-1.35266 2.02338,-1.81049c0.67313,-0.45782 1.26245,-0.68674 1.76797,-0.68674M281.50191,172.02199l1.65622,-1.10294c0.35918,0.36071 0.73166,0.7561 1.11745,1.18618c0.38579,0.43008 0.75162,0.85599 1.0975,1.27775c0.34588,0.42453 0.62524,0.81021 0.83809,1.15705l-1.75599,1.26942c-0.18624,-0.34684 -0.44565,-0.74223 -0.77822,-1.18618c-0.33258,-0.44395 -0.68776,-0.89206 -1.06557,-1.34434c-0.38047,-0.4495 -0.75029,-0.86848 -1.10947,-1.25694zM308.38058,176.26727h1.99545c-0.09312,0.87403 -0.19289,1.79245 -0.29932,2.75527c-0.10642,0.96559 -0.22216,1.92286 -0.34721,2.87181c-0.12771,0.95172 -0.24744,1.8535 -0.35918,2.70533c-0.1144,0.85461 -0.22482,1.60793 -0.33124,2.25999h-2.07526c0.13303,-0.6798 0.26606,-1.45394 0.39909,-2.32242c0.13303,-0.8657 0.26207,-1.77442 0.38712,-2.72614c0.12771,-0.94894 0.24478,-1.89928 0.3512,-2.851c0.10642,-0.94894 0.19954,-1.84656 0.27936,-2.69284M311.37375,178.68125l1.11745,-0.74917c0.35918,0.29134 0.73166,0.63124 1.11745,1.0197c0.38579,0.38846 0.6851,0.72836 0.89795,1.0197l-1.17731,0.85322c-0.18624,-0.30522 -0.46827,-0.66315 -0.84607,-1.07381c-0.38047,-0.40788 -0.75029,-0.76443 -1.10947,-1.06964M310.83498,182.98896l1.17731,-0.76998c0.39909,0.31909 0.81547,0.68674 1.24915,1.10294c0.43102,0.4162 0.76625,0.79079 1.00571,1.12375l-1.21722,0.87403c-0.22615,-0.31909 -0.55207,-0.70061 -0.97777,-1.14456c-0.42569,-0.44395 -0.83809,-0.83934 -1.23718,-1.18618M308.65994,172.70873h10.31646v2.01859h-10.31646v-2.01859M309.21867,176.26727h7.60265v1.91454h-7.60265v-1.91454M305.86632,180.42931h13.6289v2.01859h-13.6289v-2.01859M308.04135,184.94512h10.93505v1.91454h-10.93505v-1.91454M308.77967,170.52366l2.07526,0.56188c-0.26606,0.86015 -0.58799,1.71615 -0.9658,2.56798c-0.38047,0.85461 -0.78355,1.65649 -1.20924,2.40566c-0.42569,0.74917 -0.85804,1.40816 -1.29704,1.97697c-0.13303,-0.12486 -0.31528,-0.2636 -0.54675,-0.4162c-0.23413,-0.15261 -0.46427,-0.30522 -0.69042,-0.45782c-0.22615,-0.15261 -0.42569,-0.27747 -0.59863,-0.37458c0.4523,-0.49944 0.88199,-1.08629 1.28906,-1.76054c0.40441,-0.67148 0.7729,-1.39289 1.10548,-2.16426c0.33258,-0.76859 0.61194,-1.54828 0.83809,-2.33907M316.20273,176.26727h1.99545c0,0 -0.00399,0.06243 -0.01197,0.18729c-0.00532,0.12486 -0.00798,0.25943 -0.00798,0.40372c0,0.14706 -0.00665,0.26914 -0.01995,0.36626c-0.07982,1.9839 -0.15964,3.66537 -0.23945,5.04439c-0.07982,1.3818 -0.16895,2.51665 -0.26739,3.40455c-0.1011,0.8879 -0.21418,1.58157 -0.33923,2.08102c-0.12771,0.49944 -0.27803,0.86015 -0.45097,1.08213c-0.22615,0.31909 -0.46161,0.5369 -0.70639,0.65344c-0.24744,0.11931 -0.53079,0.20671 -0.85006,0.26221c-0.29267,0.04162 -0.66515,0.06243 -1.11745,0.06243c-0.4523,0 -0.92456,-0.01387 -1.41677,-0.04162c-0.0133,-0.27747 -0.06651,-0.58962 -0.15964,-0.93646c-0.09312,-0.34684 -0.2195,-0.65205 -0.37913,-0.91565c0.4656,0.04162 0.8913,0.06937 1.27709,0.08324c0.38579,0.01387 0.6718,0.02081 0.85804,0.02081c0.17294,0 0.31262,-0.02497 0.41904,-0.07492c0.10642,-0.04717 0.21285,-0.13319 0.31927,-0.25805c0.13303,-0.15261 0.25276,-0.46199 0.35918,-0.92813c0.10642,-0.46337 0.2062,-1.12236 0.29932,-1.97697c0.09312,-0.85183 0.17693,-1.9409 0.25143,-3.2672c0.07184,-1.32353 0.13436,-2.92869 0.18757,-4.81548v-0.43701M301.99515,172.37576l1.19727,-1.51914c0.38579,0.18036 0.80217,0.39539 1.24915,0.64512c0.44432,0.24972 0.86868,0.50638 1.27309,0.76998c0.40707,0.2636 0.73698,0.50638 0.98974,0.72836l-1.25713,1.68563c-0.23945,-0.22198 -0.55473,-0.47586 -0.94584,-0.76165c-0.39377,-0.28302 -0.81281,-0.56049 -1.25713,-0.83241c-0.44698,-0.26914 -0.86336,-0.50777 -1.24915,-0.71587M300.8777,178.32748l1.15736,-1.49833c0.38579,0.18036 0.78887,0.39123 1.20924,0.63263c0.41771,0.24417 0.8168,0.49112 1.19727,0.74084c0.3778,0.24972 0.68643,0.48557 0.92589,0.70755l-1.23718,1.70644c-0.21285,-0.23585 -0.50551,-0.49251 -0.878,-0.76998c-0.37248,-0.27747 -0.76891,-0.548 -1.18929,-0.8116c-0.41771,-0.2636 -0.81281,-0.49944 -1.1853,-0.70755M301.43643,188.42042c0.26606,-0.54107 0.56138,-1.17924 0.88598,-1.91454c0.32725,-0.73529 0.65451,-1.51914 0.98176,-2.35155c0.32459,-0.83241 0.62657,-1.65094 0.90593,-2.4556l1.63627,1.20699c-0.23945,0.73529 -0.50285,1.4914 -0.7902,2.26831c-0.28468,0.77691 -0.57602,1.54689 -0.87401,2.30993c-0.30065,0.76304 -0.5973,1.47752 -0.88997,2.14345z" fill="#ffffff" stroke-width="1"/><path d="M240,196v-32h208v32z" fill="none" stroke-width="0"/></g></g></svg>