<svg version="1.1" xmlns="http://www.w3.org/2000/svg" xmlns:xlink="http://www.w3.org/1999/xlink" width="224" height="76" viewBox="0,0,224,76"><g transform="translate(-128,-142)"><g stroke-miterlimit="10"><path d="M128,218v-76h224v76z" fill="none" fill-rule="nonzero" stroke="none" stroke-width="1" stroke-linecap="round" stroke-linejoin="round"/><g fill-rule="evenodd" stroke="none" stroke-width="1" stroke-linecap="butt" stroke-linejoin="miter"><path d="M327.9992,164.99926c8.8294,0 16,7.1706 16,16c0,8.8294 -7.1706,16 -16,16h-86c-8.8294,0 -16,-7.1706 -16,-16c0,-8.8294 7.1706,-16 16,-16z" fill="#7d97b4"/><path d="M241.9992,166.99926h86c7.756,0 14,6.244 14,14c0,7.756 -6.244,14 -14,14h-86c-7.756,0 -14,-6.244 -14,-14c0,-7.756 6.244,-14 14,-14z" fill="#31476d"/></g><path d="M268.6926,181.00652v0.89086h-2.84226v1.28679h2.41804v0.91914h-2.41804v1.54132c0,0.43364 -0.05892,0.76831 -0.17676,1.00398c-0.11784,0.23568 -0.32523,0.40301 -0.62219,0.50199c-0.29695,0.09898 -0.72353,0.14848 -1.27972,0.14848h-1.64031l-0.18383,-0.93328h1.55546c0.36766,0 0.64104,-0.02828 0.82015,-0.08484c0.17911,-0.05656 0.29695,-0.14848 0.35351,-0.27574c0.05656,-0.12727 0.08484,-0.32288 0.08484,-0.58683v-1.31507h-8.01771v-0.91914h8.01771v-1.28679h-8.41365v-0.89086h5.59967v-1.32921h-4.66639v-0.87672h4.66639v-0.80601h1.08882v0.80601h4.65225v0.87672h-4.65225v1.32921zM259.19013,176.66536h-0.63633c-0.40536,0.61276 -0.86258,1.21138 -1.37164,1.79585l-0.79187,-0.67875c0.47135,-0.51849 0.90028,-1.07468 1.28679,-1.66859c0.38651,-0.5939 0.70232,-1.17367 0.94742,-1.73929l1.03226,0.26867c-0.15083,0.3488 -0.33466,0.72117 -0.55148,1.11711h3.49272v0.905h-2.38976c0.22625,0.37708 0.50906,0.82015 0.84843,1.32921l-0.84843,0.43836c-0.44307,-0.74474 -0.78245,-1.33393 -1.01812,-1.76757zM263.13535,177.81075l-0.905,-0.46664c0.79187,-0.99927 1.38106,-1.98911 1.76757,-2.96952l0.98984,0.25453c-0.22625,0.50906 -0.40536,0.88614 -0.53734,1.13125h4.22803v0.905h-2.68671l0.84843,1.24437l-0.84843,0.4525c-0.05656,-0.07542 -0.15083,-0.23096 -0.28281,-0.46664c-0.4525,-0.6976 -0.72117,-1.10768 -0.80601,-1.23023h-0.9757c-0.23568,0.37708 -0.49963,0.75888 -0.79187,1.14539zM258.56794,184.90932l0.55148,-0.77773c0.30167,0.17911 0.66932,0.42186 1.10297,0.72824c0.43364,0.30638 0.82487,0.59155 1.17367,0.85551l-0.62219,0.80601c-0.97099,-0.76359 -1.7063,-1.30093 -2.20593,-1.61203z" fill="#9f9f9f" fill-rule="evenodd" stroke="#9f9f9f" stroke-width="0.45" stroke-linecap="round" stroke-linejoin="miter"/><path d="M282.9463,179.16824v1.01812h-2.0221v1.51304h1.80999v1.00398h-1.80999v2.91296c0,0.43364 -0.05656,0.76595 -0.16969,0.99691c-0.11312,0.23096 -0.30874,0.39594 -0.58683,0.49492c-0.2781,0.09898 -0.6811,0.14848 -1.20902,0.14848h-1.48476l-0.21211,-1.03226h1.45648c0.32995,0 0.57505,-0.02592 0.73531,-0.07777c0.16026,-0.05185 0.26867,-0.14612 0.32523,-0.28281c0.05656,-0.13669 0.08484,-0.34173 0.08484,-0.61512v-2.5453h-5.2603v-1.00398h5.2603v-1.51304h-5.51483v-1.01812h3.60585v-1.76757h-2.87054v-1.01812h2.87054v-1.79585h1.07468v1.79585h3.26647v1.01812h-3.26647v1.76757zM273.5711,177.90973l0.83429,0.50906c-0.35823,0.66932 -0.75416,1.32921 -1.18781,1.97968v7.01373h-1.01812v-5.59967c-0.42422,0.5562 -0.872,1.06054 -1.34336,1.51304l-0.43836,-1.14539c0.50906,-0.47135 1.04405,-1.09825 1.60496,-1.8807c0.56091,-0.78245 1.07704,-1.57903 1.54839,-2.38976zM273.72665,174.50185l0.82015,0.67875c-0.39594,0.56562 -0.93563,1.22552 -1.6191,1.97968c-0.68346,0.75416 -1.33157,1.3952 -1.94433,1.92312l-0.46664,-1.0464c0.51849,-0.42422 1.09825,-0.9922 1.73929,-1.70394c0.64104,-0.71174 1.13125,-1.32214 1.47062,-1.83121zM275.07,183.73565l0.77773,-0.73531c0.40536,0.38651 1.03226,1.05112 1.8807,1.99382l-0.77773,0.79187c-0.30167,-0.3488 -0.63868,-0.72588 -1.01105,-1.13125c-0.37237,-0.40536 -0.66225,-0.71174 -0.86965,-0.91914z" fill="#9f9f9f" fill-rule="evenodd" stroke="#9f9f9f" stroke-width="0.45" stroke-linecap="round" stroke-linejoin="miter"/><path d="M297.11517,186.47892l-0.60804,1.03226c-1.06526,-0.86729 -1.94197,-1.79585 -2.63015,-2.78569c-0.62219,0.86729 -1.51304,1.80057 -2.67257,2.79983l-0.72117,-0.87672c1.24437,-0.98041 2.17765,-1.9514 2.79983,-2.91296c-0.5939,-1.12182 -1.00869,-2.43218 -1.24437,-3.93108c-0.15083,0.30167 -0.32995,0.62219 -0.53734,0.96156l-0.55148,-1.00398c0.40536,-0.67875 0.79423,-1.50362 1.1666,-2.4746c0.37237,-0.97099 0.6434,-1.87598 0.81308,-2.71499l0.98984,0.18383c-0.13198,0.64104 -0.33466,1.3575 -0.60804,2.14937h3.77554v1.08882h-1.07468c-0.12255,1.26323 -0.30402,2.35676 -0.54441,3.28061c-0.24039,0.92385 -0.57269,1.76286 -0.99691,2.51702c0.65989,0.96156 1.54132,1.85713 2.64429,2.68671zM284.96841,181.44487l-0.42422,-0.86258c0.61276,-0.32995 1.1501,-0.65989 1.61203,-0.98984c0.46193,-0.32995 0.86729,-0.68817 1.21609,-1.07468h-2.60187v-0.89086h2.82812v-2.96952h0.96156v2.96952h2.75741v0.89086h-2.75741v0.28281c0.3488,0.17911 0.76359,0.40536 1.24437,0.67875c0.48078,0.27338 0.905,0.53263 1.27265,0.77773l-0.4525,0.83429c-0.56562,-0.43364 -1.2538,-0.89557 -2.06452,-1.38578v1.32921h-0.96156v-1.59789c-0.63161,0.68817 -1.50833,1.3575 -2.63015,2.00796zM290.72362,185.9133l-0.42422,0.93328l-0.5939,-0.32523l-1.18781,-0.63633c-0.84843,0.5939 -2.03153,1.13125 -3.54929,1.61203l-0.43836,-0.905c1.34807,-0.42422 2.36148,-0.82015 3.04022,-1.18781c-0.88614,-0.44307 -1.59317,-0.78245 -2.12109,-1.01812c0.27338,-0.42422 0.5232,-0.86729 0.74945,-1.32921h-1.51304v-0.86258h1.92312c0.16969,-0.38651 0.31109,-0.74002 0.42422,-1.06054l0.96156,0.25453c-0.13198,0.35823 -0.23568,0.6269 -0.31109,0.80601h3.09679v0.82015c-0.18854,0.46193 -0.39594,0.86965 -0.62219,1.22316c-0.22625,0.35351 -0.49492,0.6811 -0.80601,0.98277zM295.02236,177.99457h-2.13523l-0.14141,0.33937c0.16969,1.75343 0.54206,3.21463 1.11711,4.38358c0.30167,-0.63161 0.54441,-1.32921 0.72824,-2.09281c0.18383,-0.76359 0.32759,-1.64031 0.43129,-2.63015zM289.73378,183.0569h-2.44632c-0.13198,0.28281 -0.29695,0.60804 -0.49492,0.9757c0.57505,0.2451 1.13125,0.49963 1.66859,0.76359c0.29224,-0.23568 0.5397,-0.49492 0.74238,-0.77773c0.20268,-0.28281 0.37944,-0.60333 0.53027,-0.96156zM290.44081,174.98263l0.70703,0.48078c-0.41479,0.64104 -0.86729,1.28208 -1.3575,1.92312l-0.69289,-0.49492c0.20739,-0.26396 0.44307,-0.58448 0.70703,-0.96156c0.26396,-0.37708 0.47607,-0.69289 0.63633,-0.94742zM286.99051,176.86333l-0.70703,0.4525c-0.32995,-0.54677 -0.74474,-1.17367 -1.24437,-1.8807l0.65047,-0.4525c0.19797,0.26396 0.49021,0.68346 0.87672,1.25851z" fill="#9f9f9f" fill-rule="evenodd" stroke="#9f9f9f" stroke-width="0.45" stroke-linecap="round" stroke-linejoin="miter"/><path d="M311.21332,180.34191v0.93328h-3.02608v1.5696h2.26249v4.63811h-0.9757v-0.73531h-3.56343v0.74945h-0.9757v-4.65225h2.26249v-1.5696h-2.81398c-0.06599,1.33864 -0.22625,2.4581 -0.48078,3.35839c-0.25453,0.90028 -0.66932,1.81235 -1.24437,2.7362l-0.93328,-0.53734c0.4525,-0.73531 0.79659,-1.4282 1.03226,-2.07867c0.23568,-0.65047 0.40301,-1.38813 0.50199,-2.213c0.09898,-0.82487 0.14848,-1.87363 0.14848,-3.14628v-4.04421h7.2824v3.50686h-2.50288v1.48476zM302.68655,180.52574l0.08484,0.49492c-0.54677,0.22625 -0.98041,0.41479 -1.30093,0.56562v4.21389c0,0.38651 -0.04714,0.6811 -0.14141,0.88379c-0.09427,0.20268 -0.25453,0.34409 -0.48078,0.42422c-0.22625,0.08013 -0.56091,0.12019 -1.00398,0.12019h-0.94742l-0.15555,-0.9757h0.84843c0.25453,0 0.44307,-0.01885 0.56562,-0.05656c0.12255,-0.03771 0.20504,-0.11077 0.24746,-0.21918c0.04242,-0.10841 0.06363,-0.27574 0.06363,-0.50199v-3.43616l-1.4989,0.67875l-0.22625,-1.07468l1.72515,-0.73531v-2.63015h-1.64031v-1.03226h1.64031v-2.58773h1.00398v2.58773h1.23023v1.03226h-1.23023v2.19179l1.11711,-0.49492zM304.41171,177.93801h5.24616v-1.65445h-5.24616zM305.91061,183.77807v2.07867h3.56343v-2.07867zM304.41171,179.52176v0.82015h2.78569v-1.48476h-2.78569z" fill="#9f9f9f" fill-rule="evenodd" stroke="#9f9f9f" stroke-width="0.45" stroke-linecap="round" stroke-linejoin="miter"/></g></g></svg>