<svg version="1.1" xmlns="http://www.w3.org/2000/svg" xmlns:xlink="http://www.w3.org/1999/xlink" width="183.691" height="32.09695" viewBox="0,0,183.691,32.09695"><g transform="translate(-240,-180)"><g stroke="none" stroke-miterlimit="10"><path d="M248.90084,180h165.88933c4.93106,0 8.90084,2.69248 8.90084,6.03695v20.02305c0,3.34447 -3.96977,6.03695 -8.90084,6.03695h-165.88933c-4.93106,0 -8.90084,-2.69248 -8.90084,-6.03695v-20.02305c0,-3.34447 3.96977,-6.03695 8.90084,-6.03695z" fill-opacity="0.7" fill="#000000" fill-rule="evenodd" stroke-width="0"/><path d="M251.27276,187.1245h1.0206v3.51156h-1.0206v-3.51156M248.40988,187.80779l0.84762,-0.32867c0.15569,0.19605 0.30445,0.41228 0.4463,0.64869c0.14069,0.23641 0.26755,0.46706 0.38056,0.69193c0.11186,0.22488 0.19951,0.42958 0.26293,0.61409l-0.89951,0.38921c-0.0519,-0.19028 -0.13262,-0.40247 -0.24218,-0.63658c-0.10956,-0.23295 -0.2318,-0.47052 -0.36672,-0.71269c-0.13608,-0.24218 -0.27908,-0.46417 -0.429,-0.66599M254.19618,187.40128l1.02925,0.30272c-0.12685,0.25371 -0.25948,0.51145 -0.39786,0.77324c-0.13839,0.26293 -0.27677,0.51261 -0.41516,0.74902c-0.13839,0.23641 -0.27101,0.44687 -0.39786,0.63139l-0.82167,-0.29407c0.12109,-0.19605 0.24333,-0.41804 0.36672,-0.66599c0.12455,-0.24794 0.24333,-0.50338 0.35635,-0.76632c0.11186,-0.26178 0.20527,-0.50511 0.28023,-0.72999M248.59151,190.14307h6.49553v5.05977h-0.99466v-4.12566h-5.50087v-0.93411M248.88559,191.99399h5.57007v0.89951h-5.57007v-0.89951M248.40123,193.91411h6.21011v0.92546h-6.21011zM257.41367,190.41984h6.10632v4.73975h-0.98601v-4.07376h-4.1862v4.11701h-0.93411v-4.78299M259.7403,189.53762l0.99466,0.16433c-0.14415,0.21911 -0.29407,0.42958 -0.44976,0.63139c-0.15569,0.20181 -0.29695,0.37191 -0.42381,0.5103l-0.76978,-0.19028c0.12109,-0.16145 0.24218,-0.34597 0.36327,-0.55355c0.12109,-0.20758 0.21623,-0.39498 0.28542,-0.5622M257.78559,194.26007h5.35384v0.67464h-5.35384v-0.67464M261.48743,191.63072h0.12974l0.13839,-0.02595l0.46706,0.21623c-0.19028,0.43823 -0.45668,0.81302 -0.79918,1.12439c-0.34366,0.31137 -0.73287,0.56912 -1.16764,0.77324c-0.43592,0.20527 -0.89317,0.36845 -1.37176,0.48954c-0.04036,-0.08649 -0.09802,-0.18336 -0.17298,-0.29061c-0.07496,-0.1061 -0.14704,-0.19662 -0.21623,-0.27158c0.43246,-0.08649 0.84762,-0.21508 1.24548,-0.38575c0.39786,-0.16952 0.75075,-0.38114 1.05866,-0.63485c0.30906,-0.25371 0.53856,-0.54778 0.68847,-0.88222v-0.11244M259.49812,191.18962l0.68328,0.10379c-0.12685,0.27677 -0.28542,0.54029 -0.4757,0.79053c-0.19028,0.2514 -0.42958,0.48666 -0.71788,0.70577c-0.06343,-0.07496 -0.14415,-0.15569 -0.24218,-0.24218c-0.09802,-0.08649 -0.1874,-0.14992 -0.26812,-0.19028c0.24794,-0.17298 0.45841,-0.36211 0.63139,-0.56739c0.17298,-0.20412 0.30272,-0.4042 0.38921,-0.60025M259.723,191.63072h1.96336v0.55355h-2.41312l0.44976,-0.55355M259.28189,192.78106l0.43246,-0.44976c0.28254,0.10379 0.58526,0.22603 0.90816,0.36672c0.3229,0.14185 0.63139,0.28773 0.92546,0.43765c0.29407,0.14992 0.53625,0.29119 0.72653,0.42381l-0.45841,0.50165c-0.17875,-0.13262 -0.41228,-0.27677 -0.70058,-0.43246c-0.28831,-0.15569 -0.59276,-0.30849 -0.91335,-0.45841c-0.31944,-0.14992 -0.6262,-0.27966 -0.92027,-0.38921M256.69579,187.79914h7.47289v1.42711h-0.97736v-0.70923h-5.57007v0.77843h-0.92546v-1.49631M259.32514,188.60351l0.66599,0.46706c-0.27101,0.19605 -0.56796,0.38172 -0.89086,0.55701c-0.3229,0.17644 -0.65157,0.33501 -0.98601,0.4757c-0.33444,0.14185 -0.6631,0.25602 -0.98601,0.34251l-0.45841,-0.72653c0.28254,-0.07496 0.58065,-0.16606 0.89432,-0.27331c0.31483,-0.1061 0.62332,-0.23122 0.92546,-0.37537c0.3033,-0.14415 0.5818,-0.29984 0.83551,-0.46706M260.95118,189.09652l0.57085,-0.51895c0.29984,0.10379 0.62101,0.23064 0.96352,0.38056c0.34366,0.14992 0.67521,0.30387 0.99466,0.46187c0.3206,0.15914 0.58757,0.30791 0.80091,0.4463l-0.62274,0.58814c-0.19028,-0.13262 -0.43938,-0.28254 -0.74729,-0.44976c-0.30906,-0.16722 -0.63543,-0.33155 -0.97909,-0.493c-0.34251,-0.16145 -0.66945,-0.29984 -0.98082,-0.41516M259.65381,187.28884l0.99466,-0.21623c0.08649,0.16145 0.1776,0.34424 0.27331,0.54836c0.09456,0.20527 0.16491,0.37999 0.21104,0.52414l-1.0552,0.25083c-0.0346,-0.14415 -0.09399,-0.32175 -0.17817,-0.53279c-0.08303,-0.20989 -0.16491,-0.40132 -0.24564,-0.57431zM265.72553,187.98942h6.73771v7.00583h-1.0206v-6.06307h-4.7484v6.08902h-0.96871v-7.03178M266.18393,193.35191h5.90739v0.95141h-5.90739zM278.6301,190.74851c0.21911,0.86492 0.58122,1.60586 1.08634,2.22284c0.50396,0.61697 1.1884,1.05808 2.05331,1.32332c-0.07496,0.06343 -0.1528,0.14531 -0.23353,0.24564c-0.08073,0.10148 -0.15684,0.207 -0.22834,0.31656c-0.07265,0.10956 -0.13204,0.20758 -0.17817,0.29407c-0.62851,-0.22488 -1.16187,-0.53337 -1.6001,-0.92546c-0.43823,-0.3921 -0.80264,-0.86492 -1.09326,-1.41846c-0.29177,-0.55355 -0.52991,-1.17629 -0.71442,-1.86822l0.90816,-0.19028M275.39531,187.45317h5.56142v3.60671h-5.56142v-0.90816h4.59271v-1.79038h-4.59271v-0.90816M274.84176,187.45317h0.98601v2.55151c0,0.38056 -0.01557,0.79976 -0.04671,1.25759c-0.03229,0.45898 -0.09745,0.92777 -0.19547,1.40636c-0.09802,0.47859 -0.24218,0.93815 -0.43246,1.37868c-0.19028,0.44168 -0.44111,0.83839 -0.75248,1.19013c-0.0519,-0.06343 -0.12513,-0.14012 -0.21969,-0.23007c-0.09572,-0.0888 -0.19547,-0.17241 -0.29926,-0.25083c-0.10379,-0.07727 -0.19028,-0.13608 -0.25948,-0.17644c0.28254,-0.3229 0.50626,-0.67637 0.67118,-1.06039c0.16376,-0.38287 0.28485,-0.779 0.36327,-1.1884c0.07727,-0.40939 0.12743,-0.81302 0.1505,-1.21088c0.02306,-0.39786 0.0346,-0.77266 0.0346,-1.12439zM282.46168,188.88894h7.8448v0.92546h-7.8448v-0.92546M287.32252,187.13315h0.99466v6.81555c0,0.3229 -0.04152,0.56508 -0.12455,0.72653c-0.08419,0.16145 -0.23007,0.28254 -0.43765,0.36327c-0.20181,0.07496 -0.47282,0.12513 -0.81302,0.1505c-0.3402,0.02652 -0.74383,0.0369 -1.21088,0.03114c-0.0173,-0.09802 -0.04901,-0.20931 -0.09514,-0.33386c-0.04613,-0.1234 -0.09629,-0.24737 -0.1505,-0.37191c-0.05535,-0.1234 -0.11186,-0.23122 -0.16952,-0.32348c0.25371,0.01153 0.49762,0.01845 0.73172,0.02076c0.23295,0.00346 0.43765,0.00519 0.61409,0.00519c0.17529,0 0.30041,0 0.37537,0c0.10379,-0.00577 0.1776,-0.02768 0.22142,-0.06573c0.04267,-0.0369 0.064,-0.10437 0.064,-0.20239v-6.81555M283.3439,190.97339l0.79572,-0.4757c0.20181,0.20181 0.40536,0.42785 0.61063,0.6781c0.20412,0.2514 0.39152,0.49935 0.5622,0.74383c0.16952,0.24564 0.3033,0.47224 0.40132,0.67983l-0.86492,0.5276c-0.08073,-0.20181 -0.20181,-0.42842 -0.36327,-0.67983c-0.16145,-0.25025 -0.34135,-0.50511 -0.53971,-0.76459c-0.19951,-0.25948 -0.40017,-0.49589 -0.60198,-0.70923zM291.36168,189.16571h6.63392v0.93411h-6.63392v-0.93411M297.60638,189.16571h0.96871c0,0 0,0.02883 0,0.08649c0,0.05766 0,0.12109 0,0.19028c0,0.06919 -0.00288,0.12685 -0.00865,0.17298c-0.02883,0.84185 -0.06054,1.55973 -0.09514,2.15364c-0.0346,0.59391 -0.07208,1.08518 -0.11244,1.47382c-0.04036,0.38979 -0.09053,0.69539 -0.1505,0.91681c-0.06112,0.22257 -0.13493,0.38864 -0.22142,0.49819c-0.11532,0.14992 -0.23641,0.25486 -0.36327,0.31483c-0.12685,0.06112 -0.27677,0.10033 -0.44976,0.11763c-0.16145,0.02306 -0.3673,0.0346 -0.61755,0.0346c-0.2514,0 -0.50972,-0.00577 -0.77497,-0.0173c-0.00577,-0.13839 -0.03921,-0.30157 -0.10033,-0.48954c-0.05997,-0.18682 -0.13608,-0.34654 -0.22834,-0.47916c0.27677,0.02306 0.53337,0.03575 0.76978,0.03806c0.23641,0.00346 0.40939,0.00519 0.51895,0.00519c0.08649,0.00577 0.15857,-0.00173 0.21623,-0.02249c0.05766,-0.01961 0.11244,-0.05535 0.16433,-0.10725c0.06343,-0.06919 0.11994,-0.20643 0.16952,-0.4117c0.04844,-0.20412 0.09283,-0.49243 0.1332,-0.86492c0.04036,-0.37134 0.07496,-0.83955 0.10379,-1.40463c0.02883,-0.56508 0.05478,-1.23971 0.07784,-2.02391v-0.18163M294.09482,187.1418h0.94276v1.13304c0,0.38056 -0.01615,0.79688 -0.04844,1.24894c-0.03114,0.45322 -0.10321,0.92315 -0.21623,1.40982c-0.11186,0.48781 -0.28312,0.9739 -0.51376,1.45825c-0.23064,0.48435 -0.5374,0.95256 -0.92027,1.40463c-0.38402,0.45322 -0.87011,0.87299 -1.45825,1.25932c-0.0519,-0.07496 -0.12109,-0.15569 -0.20758,-0.24218c-0.08649,-0.08649 -0.17702,-0.17183 -0.27158,-0.25602c-0.09572,-0.08303 -0.18106,-0.14761 -0.25602,-0.19374c0.54778,-0.34597 1.00215,-0.72365 1.36311,-1.13304c0.35981,-0.40939 0.64638,-0.8332 0.85973,-1.27143c0.21335,-0.43823 0.37191,-0.87357 0.4757,-1.30603c0.10379,-0.43246 0.17183,-0.85223 0.20412,-1.25932c0.03114,-0.40593 0.04671,-0.779 0.04671,-1.1192v-1.13304M291.94118,187.67805l0.81302,-0.32867c0.16145,0.19028 0.32867,0.40766 0.50165,0.65215c0.17298,0.24564 0.29984,0.45783 0.38056,0.63658l-0.86492,0.37191c-0.04613,-0.12109 -0.11532,-0.25832 -0.20758,-0.4117c-0.09226,-0.15223 -0.19143,-0.30906 -0.29753,-0.47052c-0.10725,-0.16145 -0.21565,-0.31137 -0.32521,-0.44976M294.91649,191.3453l0.77843,-0.36327c0.13262,0.16145 0.26985,0.33847 0.4117,0.53106c0.14069,0.19374 0.27274,0.38402 0.39613,0.57085c0.12455,0.18798 0.22142,0.35692 0.29061,0.50684l-0.83032,0.41516c-0.06343,-0.14992 -0.1528,-0.32175 -0.26812,-0.51549c-0.11532,-0.19259 -0.24045,-0.38864 -0.37537,-0.58814c-0.13608,-0.19835 -0.27043,-0.38402 -0.40305,-0.55701zM303.32349,191.40585l0.69193,-0.41516c0.12109,0.18452 0.24391,0.3846 0.36845,0.60025c0.1234,0.21681 0.23872,0.42612 0.34597,0.62793c0.1061,0.20181 0.19086,0.38056 0.25429,0.53625l-0.74383,0.4757c-0.05766,-0.15569 -0.13666,-0.3402 -0.23699,-0.55355c-0.10148,-0.21335 -0.21104,-0.43131 -0.32867,-0.65388c-0.11878,-0.22142 -0.23583,-0.42727 -0.35116,-0.61755M303.34079,187.16775l0.94276,0.0173c-0.0173,0.86492 -0.05017,1.68486 -0.0986,2.45983c-0.04959,0.77612 -0.12743,1.5015 -0.23353,2.17613c-0.10725,0.67464 -0.26005,1.29276 -0.45841,1.85438c-0.19951,0.56277 -0.45783,1.06616 -0.77497,1.51015c-0.04613,-0.0519 -0.12224,-0.11532 -0.22834,-0.19028c-0.10725,-0.07496 -0.21681,-0.15165 -0.32867,-0.23007c-0.11302,-0.07727 -0.20989,-0.13608 -0.29061,-0.17644c0.31714,-0.38056 0.57085,-0.83032 0.76113,-1.34927c0.19028,-0.51895 0.33616,-1.09556 0.43765,-1.72983c0.10033,-0.63427 0.16952,-1.3164 0.20758,-2.04639c0.0369,-0.72884 0.05824,-1.494 0.064,-2.29549M305.49443,187.18505l0.94276,0.00865c-0.01153,0.89375 -0.04325,1.73272 -0.09514,2.51691c-0.0519,0.78419 -0.13954,1.51072 -0.26293,2.17959c-0.12455,0.66887 -0.30041,1.27835 -0.5276,1.82844c-0.22834,0.55124 -0.52702,1.04021 -0.89605,1.4669c-0.04613,-0.0519 -0.12224,-0.11821 -0.22834,-0.19893c-0.10725,-0.08073 -0.21565,-0.16145 -0.32521,-0.24218c-0.10956,-0.08073 -0.2047,-0.14415 -0.28542,-0.19028c0.36327,-0.36327 0.65618,-0.79745 0.87876,-1.30257c0.22142,-0.50396 0.38691,-1.06731 0.49646,-1.69005c0.10956,-0.62274 0.18625,-1.30199 0.23007,-2.03775c0.04267,-0.7346 0.06689,-1.51418 0.07265,-2.33874M306.22961,189.45978c0.04036,0.38633 0.09687,0.80437 0.16952,1.25413c0.0715,0.44976 0.16664,0.89951 0.28542,1.34927c0.11763,0.44976 0.26466,0.87068 0.44111,1.26278c0.17529,0.3921 0.38979,0.72653 0.6435,1.0033c-0.06343,0.05766 -0.13954,0.1355 -0.22834,0.23353c-0.08995,0.09802 -0.17529,0.1972 -0.25602,0.29753c-0.08073,0.10148 -0.14704,0.19547 -0.19893,0.28196c-0.25371,-0.3229 -0.46994,-0.70347 -0.64869,-1.14169c-0.17875,-0.43823 -0.32982,-0.89951 -0.45322,-1.38387c-0.12455,-0.48435 -0.22142,-0.96179 -0.29061,-1.4323c-0.06919,-0.46936 -0.12685,-0.90297 -0.17298,-1.30084l0.70923,-0.42381M299.93301,192.95405c-0.01153,-0.05766 -0.0346,-0.1355 -0.06919,-0.23353c-0.0346,-0.09802 -0.06919,-0.20066 -0.10379,-0.30791c-0.0346,-0.1061 -0.06919,-0.19662 -0.10379,-0.27158c0.09802,-0.02306 0.19893,-0.08361 0.30272,-0.18163c0.10379,-0.09802 0.21911,-0.22488 0.34597,-0.38056c0.06919,-0.07496 0.16895,-0.20066 0.29926,-0.3771c0.12916,-0.17529 0.27331,-0.38287 0.43246,-0.62274c0.15799,-0.23872 0.31771,-0.50108 0.47916,-0.78707c0.16145,-0.28485 0.31137,-0.56854 0.44976,-0.85108l0.75248,0.45841c-0.29984,0.56508 -0.64408,1.11978 -1.03271,1.6641c-0.38979,0.54547 -0.78073,1.02291 -1.17283,1.4323v0.02595c0,0 -0.02883,0.01442 -0.08649,0.04325c-0.05766,0.02883 -0.1257,0.06631 -0.20412,0.11244c-0.07727,0.04613 -0.14473,0.09341 -0.20239,0.14185c-0.05766,0.04959 -0.08649,0.09456 -0.08649,0.13493M299.93301,192.95405l-0.0519,-0.72653l0.38921,-0.27677l2.16229,-0.37191c-0.0173,0.12109 -0.02883,0.25775 -0.0346,0.40997c-0.00577,0.15338 -0.00577,0.2762 0,0.36845c-0.48435,0.09802 -0.87818,0.17875 -1.18148,0.24218c-0.30214,0.06343 -0.53683,0.11532 -0.70404,0.15569c-0.16722,0.04036 -0.29292,0.07611 -0.3771,0.10725c-0.08303,0.03229 -0.1505,0.06285 -0.20239,0.09168M299.87247,190.8523c-0.01153,-0.06343 -0.03575,-0.14877 -0.07265,-0.25602c-0.03806,-0.1061 -0.07727,-0.21565 -0.11763,-0.32867c-0.04036,-0.11186 -0.07784,-0.20816 -0.11244,-0.28888c0.08649,-0.02306 0.16895,-0.08073 0.24737,-0.17298c0.07727,-0.09226 0.15914,-0.20758 0.24564,-0.34597c0.04613,-0.06919 0.10956,-0.18163 0.19028,-0.33732c0.08073,-0.15569 0.17298,-0.34193 0.27677,-0.55874c0.10379,-0.21565 0.2047,-0.44745 0.30272,-0.69539c0.09802,-0.24794 0.18163,-0.49589 0.25083,-0.74383l0.89086,0.40651c-0.13262,0.33444 -0.28542,0.67175 -0.45841,1.01195c-0.17298,0.3402 -0.35577,0.66599 -0.54836,0.97736c-0.19374,0.31137 -0.38864,0.59391 -0.58468,0.84762v0.02595c0,0 -0.02479,0.01442 -0.07438,0.04325c-0.04844,0.02883 -0.10725,0.06919 -0.17644,0.12109c-0.06919,0.0519 -0.12974,0.10379 -0.18163,0.15569c-0.0519,0.0519 -0.07784,0.09802 -0.07784,0.13839M299.87247,190.8523l-0.0173,-0.64869l0.38921,-0.26812l1.45306,-0.12109c-0.0173,0.11532 -0.0346,0.24506 -0.0519,0.38921c-0.0173,0.14415 -0.02595,0.26236 -0.02595,0.35462c-0.32867,0.0346 -0.59795,0.06746 -0.80783,0.0986c-0.21104,0.03229 -0.3771,0.05824 -0.49819,0.07784c-0.12109,0.02076 -0.2145,0.03979 -0.28023,0.05708c-0.06689,0.0173 -0.12051,0.03748 -0.16087,0.06054M299.66489,193.89681c0.3402,-0.09226 0.74844,-0.21508 1.22472,-0.36845c0.47513,-0.15223 0.96064,-0.30618 1.45652,-0.46187l0.15569,0.76113c-0.45552,0.16722 -0.91278,0.33444 -1.37176,0.50165c-0.45783,0.16722 -0.87703,0.32002 -1.25759,0.45841zM308.78112,188.58622h6.53013v0.90816h-5.61331v5.69981h-0.91681v-6.60797M314.98258,188.58622h0.92546v5.50952c0,0.25948 -0.03287,0.46244 -0.0986,0.6089c-0.06689,0.14761 -0.18682,0.2589 -0.35981,0.33386c-0.17875,0.07496 -0.40478,0.12109 -0.6781,0.13839c-0.27447,0.0173 -0.61063,0.02595 -1.00849,0.02595c-0.01153,-0.08649 -0.03287,-0.18625 -0.064,-0.29926c-0.03229,-0.11186 -0.07035,-0.22546 -0.11417,-0.34078c-0.04267,-0.11532 -0.08707,-0.21623 -0.1332,-0.30272c0.18452,0.01153 0.365,0.02018 0.54144,0.02595c0.17529,0.00577 0.33386,0.00692 0.4757,0.00346c0.14069,-0.00231 0.23699,-0.00346 0.28888,-0.00346c0.08649,-0.00577 0.14588,-0.02191 0.17817,-0.04844c0.03114,-0.02537 0.04671,-0.07842 0.04671,-0.15914v-5.49223M311.65264,187.11586l1.18494,0.18163c-0.14415,0.33444 -0.29984,0.66714 -0.46706,0.99811c-0.16722,0.33213 -0.32002,0.61351 -0.45841,0.84416l-0.89086,-0.19893c0.08073,-0.17298 0.16145,-0.36615 0.24218,-0.57949c0.08073,-0.21335 0.15569,-0.42842 0.22488,-0.64523c0.06919,-0.21565 0.12397,-0.41574 0.16433,-0.60025M310.63204,190.41984h0.83897v3.55481h-0.83897v-3.55481M310.99531,190.41984h3.02721v2.94072h-3.02721v-0.81302h2.17094v-1.30603h-2.17094zM317.00648,188.08456h3.15695v0.88222h-3.15695v-0.88222M318.71037,189.48573h0.82167v5.67386h-0.82167v-5.67386M316.91999,192.8935c0.28831,-0.02883 0.61813,-0.06516 0.98947,-0.10898c0.37249,-0.04267 0.76516,-0.08995 1.17802,-0.14185c0.4117,-0.0519 0.82513,-0.10667 1.24029,-0.16433l0.02595,0.81302c-0.57085,0.08649 -1.14284,0.17414 -1.716,0.26293c-0.57431,0.08995 -1.08922,0.16952 -1.54474,0.23872l-0.17298,-0.89951M317.30055,191.71722c-0.01153,-0.05766 -0.03287,-0.1355 -0.064,-0.23353c-0.03229,-0.09802 -0.06746,-0.19778 -0.10552,-0.29926c-0.0369,-0.10033 -0.07265,-0.18798 -0.10725,-0.26293c0.08649,-0.02306 0.16318,-0.09514 0.23007,-0.21623c0.06573,-0.12109 0.13608,-0.27677 0.21104,-0.46706c0.0346,-0.09226 0.08534,-0.24506 0.15223,-0.45841c0.06573,-0.21335 0.13781,-0.46417 0.21623,-0.75248c0.07727,-0.28831 0.15223,-0.59679 0.22488,-0.92546c0.0715,-0.32867 0.12743,-0.65445 0.16779,-0.97736l0.89951,0.16433c-0.09226,0.46706 -0.2047,0.93815 -0.33732,1.41328c-0.13262,0.47628 -0.27793,0.92892 -0.43592,1.35792c-0.15914,0.43015 -0.31944,0.81821 -0.48089,1.16418v0.02595c0,0 -0.02883,0.01557 -0.08649,0.04671c-0.05766,0.03229 -0.12397,0.07265 -0.19893,0.12109c-0.07496,0.04959 -0.14127,0.10148 -0.19893,0.15569c-0.05766,0.05535 -0.08649,0.10321 -0.08649,0.14358M317.30055,191.71722v-0.74383l0.42381,-0.22488h2.46501v0.83897h-2.23149c-0.13839,0 -0.27216,0.01153 -0.40132,0.0346c-0.13031,0.02306 -0.21565,0.05478 -0.25602,0.09514M320.48345,188.30079h4.37648v0.84762h-4.37648v-0.84762M321.95381,190.89554c0.17298,0.52472 0.40247,1.01599 0.68847,1.47382c0.28485,0.45898 0.62908,0.85973 1.03271,1.20224c0.40363,0.34366 0.85915,0.61351 1.36657,0.80956c-0.06343,0.05766 -0.13377,0.13262 -0.21104,0.22488c-0.07842,0.09226 -0.15223,0.18567 -0.22142,0.28023c-0.06919,0.09572 -0.12685,0.18394 -0.17298,0.26466c-0.54202,-0.24218 -1.0206,-0.56104 -1.43576,-0.9566c-0.41516,-0.3944 -0.77554,-0.85281 -1.08115,-1.37522c-0.3056,-0.52126 -0.5622,-1.09326 -0.76978,-1.716l0.80437,-0.20758M323.32038,190.8869l0.83897,0.21623c-0.27101,0.96294 -0.68732,1.78577 -1.24894,2.46847c-0.56277,0.68386 -1.28238,1.23337 -2.15883,1.64853c-0.0346,-0.06343 -0.08476,-0.13839 -0.1505,-0.22488c-0.06689,-0.08649 -0.13781,-0.1701 -0.21277,-0.25083c-0.07496,-0.08073 -0.14415,-0.14704 -0.20758,-0.19893c0.81879,-0.3575 1.49054,-0.84647 2.01526,-1.4669c0.52472,-0.61928 0.89951,-1.34985 1.12439,-2.1917M321.88462,187.39263l0.80437,-0.33732c0.10956,0.15569 0.22084,0.32982 0.33386,0.52241c0.11186,0.19374 0.19662,0.35981 0.25429,0.49819l-0.82167,0.38921c-0.05766,-0.14415 -0.13954,-0.31887 -0.24564,-0.52414c-0.10725,-0.20412 -0.21565,-0.38691 -0.32521,-0.54836M323.21659,189.58087l0.67464,-0.38056c0.14992,0.20181 0.30445,0.4192 0.4636,0.65215c0.15799,0.2341 0.30503,0.46187 0.44111,0.68328c0.13493,0.22257 0.23987,0.42035 0.31483,0.59333l-0.71788,0.45841c-0.07496,-0.17875 -0.17702,-0.38345 -0.30618,-0.61409c-0.13031,-0.23064 -0.27043,-0.46879 -0.42035,-0.71442c-0.14992,-0.24448 -0.29984,-0.47052 -0.44976,-0.6781M321.5127,189.20896l0.81302,0.27677c-0.12685,0.25371 -0.26928,0.51434 -0.42727,0.78189c-0.15914,0.2687 -0.32348,0.52414 -0.493,0.76632c-0.17068,0.24218 -0.33674,0.45552 -0.49819,0.64004c-0.04036,-0.05766 -0.09514,-0.13147 -0.16433,-0.22142c-0.06919,-0.0888 -0.14127,-0.17933 -0.21623,-0.27158c-0.07496,-0.09226 -0.14127,-0.16722 -0.19893,-0.22488c0.21911,-0.22488 0.4365,-0.49473 0.65215,-0.80956c0.21681,-0.31368 0.3944,-0.6262 0.53279,-0.93757zM327.24711,195.12499c-0.0173,-0.07496 -0.04613,-0.16318 -0.08649,-0.26466c-0.04036,-0.10033 -0.08361,-0.19951 -0.12974,-0.29753c-0.04613,-0.09802 -0.09514,-0.17587 -0.14704,-0.23353c0.09226,-0.04613 0.18336,-0.11705 0.27331,-0.21277c0.0888,-0.09456 0.1332,-0.23122 0.1332,-0.40997v-6.54742h0.97736v7.17881c0,0 -0.0346,0.01557 -0.10379,0.04671c-0.06919,0.03229 -0.15396,0.07727 -0.25429,0.13493c-0.10148,0.05766 -0.20239,0.11936 -0.30272,0.18509c-0.10148,0.06689 -0.18682,0.13608 -0.25602,0.20758c-0.06919,0.07265 -0.10379,0.14358 -0.10379,0.21277M327.24711,195.12499l-0.07784,-0.84762l0.44976,-0.33732l2.5688,-0.57949c0,0.13839 0.00865,0.29407 0.02595,0.46706c0.0173,0.17298 0.03748,0.31425 0.06054,0.42381c-0.59391,0.14992 -1.07653,0.27216 -1.44787,0.36672c-0.37249,0.09572 -0.6608,0.17356 -0.86492,0.23353c-0.20527,0.06112 -0.35981,0.11186 -0.4636,0.15223c-0.10379,0.04036 -0.1874,0.08073 -0.25083,0.12109M325.7508,190.41984h7.74966v0.92546h-7.74966v-0.92546M330.19647,190.8869c0.18452,0.51318 0.43823,0.97851 0.76113,1.39598c0.3229,0.41862 0.71384,0.77612 1.17283,1.0725c0.45783,0.29753 0.9837,0.52702 1.57761,0.68847c-0.07496,0.06919 -0.1528,0.15569 -0.23353,0.25948c-0.08073,0.10379 -0.15857,0.21046 -0.23353,0.32002c-0.07496,0.10956 -0.1355,0.21046 -0.18163,0.30272c-0.62851,-0.20758 -1.1809,-0.48897 -1.65718,-0.84416c-0.47513,-0.35404 -0.88279,-0.78189 -1.22299,-1.28354c-0.3402,-0.50165 -0.62274,-1.06961 -0.84762,-1.70389l0.86492,-0.20758M331.84847,187.28884l0.93411,0.40651c-0.27677,0.31714 -0.60083,0.62101 -0.97217,0.91162c-0.37249,0.29177 -0.75882,0.55989 -1.15899,0.80437c-0.40132,0.24564 -0.79226,0.45783 -1.17283,0.63658c-0.05766,-0.06919 -0.13262,-0.1528 -0.22488,-0.25083c-0.09226,-0.09802 -0.18567,-0.19489 -0.28023,-0.29061c-0.09572,-0.09456 -0.18106,-0.17068 -0.25602,-0.22834c0.3921,-0.14415 0.78246,-0.32002 1.1711,-0.5276c0.38979,-0.20758 0.75363,-0.43707 1.09153,-0.68847c0.33674,-0.25025 0.6262,-0.50799 0.86838,-0.77324zM334.99677,187.81644h2.46501v5.77765h-2.46501v-0.83032h1.6001v-4.11701h-1.6001v-0.83032M335.04866,190.26416h1.80768v0.81302h-1.80768v-0.81302M334.55566,187.81644h0.87357v6.47823h-0.87357v-6.47823M337.80775,188.7592h4.51487v0.92546h-4.51487v-0.92546M340.45439,187.1764h0.94276v6.75501c0,0.28831 -0.03748,0.50569 -0.11244,0.65215c-0.07496,0.14761 -0.2047,0.2589 -0.38921,0.33386c-0.17875,0.07496 -0.41977,0.12224 -0.72307,0.14185c-0.30214,0.02076 -0.66945,0.02825 -1.1019,0.02249c-0.0173,-0.13262 -0.05939,-0.29004 -0.12628,-0.47224c-0.06573,-0.18106 -0.1332,-0.33501 -0.20239,-0.46187c0.21335,0.00577 0.41977,0.0098 0.61928,0.01211c0.19835,0.00346 0.37249,0.00519 0.52241,0.00519c0.14992,0 0.25659,0 0.32002,0c0.09226,-0.00577 0.15741,-0.02479 0.19547,-0.05708c0.0369,-0.03114 0.05535,-0.09283 0.05535,-0.18509v-6.74636M337.95478,190.68796l0.76978,-0.40651c0.14415,0.20181 0.29984,0.42208 0.46706,0.6608c0.16722,0.23987 0.32579,0.4734 0.4757,0.70058c0.14992,0.22834 0.27101,0.42612 0.36327,0.59333l-0.82167,0.4757c-0.08649,-0.17298 -0.20008,-0.37653 -0.34078,-0.61063c-0.14185,-0.23295 -0.2935,-0.4734 -0.45495,-0.72134c-0.16145,-0.24794 -0.31425,-0.47859 -0.45841,-0.69193zM344.18219,195.5661l-0.25083,-0.63139c0.36327,-0.12109 0.64004,-0.28542 0.83032,-0.493c0.19028,-0.20758 0.28542,-0.44687 0.28542,-0.71788l-0.08649,-0.82167l0.4757,0.74383c-0.06919,0.06919 -0.14704,0.11821 -0.23353,0.14704c-0.08649,0.02883 -0.17587,0.04325 -0.26812,0.04325c-0.20181,0 -0.38229,-0.06343 -0.54144,-0.19028c-0.15799,-0.12685 -0.23699,-0.3056 -0.23699,-0.53625c0,-0.23641 0.079,-0.41804 0.23699,-0.5449c0.15914,-0.12685 0.34539,-0.19028 0.55874,-0.19028c0.28831,0 0.50742,0.10206 0.65734,0.30618c0.14992,0.20527 0.22488,0.48089 0.22488,0.82686c0,0.48435 -0.14704,0.90816 -0.44111,1.27143c-0.29407,0.36327 -0.6977,0.62562 -1.21088,0.78707zM351.81941,187.71265h7.51613v0.95141h-7.51613v-0.95141M356.01426,190.50633l0.71788,-0.60544c0.23641,0.17298 0.49012,0.3575 0.76113,0.55355c0.27101,0.19605 0.54029,0.40074 0.80783,0.61409c0.2687,0.21335 0.51953,0.42093 0.75248,0.62274c0.2341,0.20181 0.429,0.38633 0.58468,0.55355l-0.77843,0.71788c-0.14415,-0.17298 -0.32867,-0.36327 -0.55355,-0.57085c-0.22488,-0.20758 -0.46706,-0.42266 -0.72653,-0.64523c-0.25948,-0.22142 -0.52356,-0.4388 -0.79226,-0.65215c-0.26755,-0.21335 -0.52529,-0.40939 -0.77324,-0.58814M355.72019,188.05862l1.02925,0.36327c-0.32867,0.60544 -0.72076,1.19474 -1.17629,1.76789c-0.45552,0.57431 -0.96582,1.10363 -1.5309,1.58799c-0.56508,0.48435 -1.17917,0.89951 -1.84227,1.24548c-0.04613,-0.08649 -0.1084,-0.18048 -0.18682,-0.28196c-0.07727,-0.10033 -0.15453,-0.20124 -0.2318,-0.30272c-0.07842,-0.10033 -0.15223,-0.18509 -0.22142,-0.25429c0.46706,-0.21911 0.91105,-0.48435 1.33197,-0.79572c0.42093,-0.31137 0.81014,-0.65042 1.16764,-1.01714c0.3575,-0.36557 0.67752,-0.74441 0.96006,-1.1365c0.28254,-0.3921 0.51607,-0.78419 0.70058,-1.17629M355.06285,190.04793l1.0206,-1.01195v0.00865v6.14091h-1.0206zM362.74332,188.00672h5.51817v0.83897h-5.51817v-0.83897M363.78987,190.2901v0.97736h3.33858v-0.97736h-3.33858M362.94225,189.52898h5.07707v2.49961h-5.07707v-2.49961M363.68608,192.14103c0.25948,0.42669 0.61409,0.79284 1.06385,1.09845c0.44976,0.3056 0.98024,0.55182 1.59145,0.73864c0.61121,0.18798 1.29161,0.31944 2.04121,0.3944c-0.06343,0.06343 -0.13147,0.14415 -0.20412,0.24218c-0.0715,0.09802 -0.13608,0.1972 -0.19374,0.29753c-0.05766,0.10148 -0.10667,0.19547 -0.14704,0.28196c-0.77266,-0.10379 -1.47209,-0.27389 -2.09829,-0.5103c-0.62505,-0.23641 -1.17283,-0.5449 -1.64334,-0.92546c-0.46936,-0.38056 -0.85973,-0.83897 -1.1711,-1.37522l0.76113,-0.24218M364.98345,187.1764h0.91681v3.90943c0,0.34597 -0.02133,0.68617 -0.064,1.0206c-0.04382,0.33444 -0.1234,0.65561 -0.23872,0.96352c-0.11532,0.30906 -0.28254,0.59622 -0.50165,0.86146c-0.21911,0.26524 -0.50165,0.50569 -0.84762,0.72134c-0.34597,0.21681 -0.77266,0.40305 -1.28008,0.55874c-0.0346,-0.06919 -0.08649,-0.15165 -0.15569,-0.24737c-0.06919,-0.09456 -0.14012,-0.19086 -0.21277,-0.28888c-0.0715,-0.09802 -0.14185,-0.17875 -0.21104,-0.24218c0.48435,-0.10956 0.88395,-0.24967 1.19878,-0.42035c0.31368,-0.16952 0.56393,-0.36384 0.75075,-0.58295c0.18798,-0.21911 0.32809,-0.45552 0.42035,-0.70923c0.09226,-0.25371 0.1528,-0.51895 0.18163,-0.79572c0.02883,-0.27677 0.04325,-0.55931 0.04325,-0.84762v-3.90078M362.16382,187.10721l0.86492,0.27677c-0.19605,0.48435 -0.42785,0.96871 -0.69539,1.45306c-0.2687,0.48435 -0.55585,0.94103 -0.86146,1.37003c-0.3056,0.43015 -0.62274,0.80956 -0.95141,1.13823c-0.02883,-0.07496 -0.07208,-0.17298 -0.12974,-0.29407c-0.05766,-0.12109 -0.11821,-0.24218 -0.18163,-0.36327c-0.06343,-0.12109 -0.12397,-0.21911 -0.18163,-0.29407c0.28254,-0.26524 0.55643,-0.57373 0.82167,-0.92546c0.26524,-0.35173 0.5103,-0.72941 0.73518,-1.13304c0.22488,-0.40363 0.41804,-0.81302 0.57949,-1.22818M361.2989,189.46843l0.88222,-0.88222l0.00865,0.00865v6.63392h-0.89086zM370.32864,187.71265h5.39708v0.88222h-5.39708v-0.88222M370.32864,189.71061h5.40573v0.87357h-5.40573v-0.87357M370.3027,191.76046h5.45763v0.87357h-5.45763v-0.87357M369.80104,187.71265h0.91681v3.12235c0,0.33444 -0.01442,0.69885 -0.04325,1.09326c-0.02883,0.39556 -0.08476,0.79342 -0.16779,1.19359c-0.08419,0.40132 -0.207,0.78362 -0.36845,1.14688c-0.16145,0.36327 -0.3748,0.68905 -0.64004,0.97736c-0.04613,-0.05766 -0.11532,-0.12685 -0.20758,-0.20758c-0.09226,-0.08073 -0.18452,-0.15741 -0.27677,-0.23007c-0.09226,-0.0715 -0.17298,-0.12455 -0.24218,-0.15914c0.23641,-0.26524 0.42381,-0.55528 0.5622,-0.87011c0.13839,-0.31368 0.24102,-0.63946 0.30791,-0.97736c0.06573,-0.33674 0.10898,-0.67406 0.12974,-1.01195c0.01961,-0.33674 0.02941,-0.65791 0.02941,-0.96352v-3.1137M375.38841,187.71265h0.91681v6.36579c0,0.25371 -0.03344,0.45091 -0.10033,0.5916c-0.06573,0.14185 -0.17933,0.25025 -0.34078,0.32521c-0.16722,0.07496 -0.38518,0.12109 -0.65388,0.13839c-0.26755,0.0173 -0.60314,0.02306 -1.00676,0.0173c-0.0173,-0.12109 -0.05651,-0.26985 -0.11763,-0.4463c-0.05997,-0.17529 -0.12167,-0.32348 -0.18509,-0.44457c0.17875,0.01153 0.35462,0.0173 0.5276,0.0173c0.17298,0 0.32579,0 0.45841,0c0.13262,0 0.22488,0 0.27677,0c0.08073,0 0.13839,-0.01615 0.17298,-0.04844c0.0346,-0.03114 0.0519,-0.08419 0.0519,-0.15914v-6.35714M372.48229,188.05862h0.93411v7.04043h-0.93411zM381.11416,187.47912h3.32128v0.80437h-3.32128v-0.80437M382.03962,188.17106c0.28831,0.66887 0.72538,1.22934 1.31121,1.6814c0.58468,0.45322 1.3066,0.7692 2.16575,0.94795c-0.06343,0.06343 -0.13262,0.14242 -0.20758,0.23699c-0.07496,0.09572 -0.14588,0.19547 -0.21277,0.29926c-0.06573,0.10379 -0.12167,0.19893 -0.16779,0.28542c-0.89951,-0.24794 -1.64796,-0.64465 -2.24533,-1.19013c-0.59622,-0.54432 -1.05866,-1.23164 -1.38733,-2.06196l0.74383,-0.19893M384.14137,187.47912h0.17298l0.16433,-0.02595l0.5622,0.19893c-0.18452,0.70923 -0.45725,1.32044 -0.81821,1.83362c-0.35981,0.51318 -0.79226,0.93988 -1.29738,1.28008c-0.50396,0.3402 -1.06154,0.60832 -1.67275,0.80437c-0.02883,-0.08073 -0.06919,-0.1701 -0.12109,-0.26812c-0.0519,-0.09802 -0.10956,-0.19489 -0.17298,-0.29061c-0.06343,-0.09456 -0.12397,-0.17356 -0.18163,-0.23699c0.40363,-0.10379 0.78592,-0.24967 1.14688,-0.43765c0.35981,-0.18682 0.68674,-0.41458 0.98082,-0.68328c0.29407,-0.26755 0.54778,-0.57027 0.76113,-0.90816c0.21335,-0.33674 0.37191,-0.71269 0.4757,-1.12785v-0.13839M378.03506,187.6867h0.83897v3.60671h-0.83897v-3.60671M379.7303,187.35803h0.83032v4.17755h-0.83032v-4.17755M378.061,192.06318h6.97988v0.82167h-6.97988v-0.82167M377.65449,194.17358h7.74101v0.83032h-7.74101v-0.83032M382.87859,192.84161l0.93411,0.19028c-0.07496,0.20181 -0.1528,0.40651 -0.23353,0.61409c-0.08073,0.20758 -0.1603,0.40363 -0.23872,0.58814c-0.07727,0.18452 -0.1505,0.34885 -0.21969,0.493l-0.83897,-0.18163c0.07496,-0.15569 0.14992,-0.33328 0.22488,-0.53279c0.07496,-0.19835 0.14531,-0.40017 0.21104,-0.60544c0.06689,-0.20412 0.12051,-0.39267 0.16087,-0.56566M379.28054,193.05784l0.85627,-0.23353c0.10956,0.17298 0.20758,0.36615 0.29407,0.57949c0.08649,0.21335 0.14992,0.39786 0.19028,0.55355l-0.92546,0.27677c-0.02306,-0.16145 -0.07323,-0.35173 -0.1505,-0.57085c-0.07842,-0.21911 -0.16664,-0.42093 -0.26466,-0.60544M380.88928,191.44909l0.83032,-0.21623c0.09802,0.15569 0.18567,0.32867 0.26293,0.51895c0.07842,0.19028 0.12916,0.36038 0.15223,0.5103l-0.87357,0.25083c-0.0173,-0.14415 -0.06054,-0.31714 -0.12974,-0.51895c-0.06919,-0.20181 -0.14992,-0.38345 -0.24218,-0.5449zM386.91776,187.51372h0.93411v3.1137c0,0.35173 -0.01153,0.73057 -0.0346,1.1365c-0.02306,0.40709 -0.06804,0.81936 -0.13493,1.23683c-0.06573,0.41862 -0.16376,0.81936 -0.29407,1.20224c-0.12916,0.38402 -0.3033,0.73172 -0.52241,1.04309c-0.0519,-0.05766 -0.12801,-0.11994 -0.22834,-0.18682c-0.10148,-0.06573 -0.20412,-0.13031 -0.30791,-0.19374c-0.10379,-0.06343 -0.19605,-0.11244 -0.27677,-0.14704c0.20181,-0.28831 0.36038,-0.60256 0.4757,-0.94276c0.11532,-0.3402 0.20008,-0.69193 0.25429,-1.0552c0.05535,-0.36327 0.09168,-0.72365 0.10898,-1.08115c0.0173,-0.3575 0.02595,-0.69482 0.02595,-1.01195v-3.1137M387.5578,187.51372h6.15821v2.23149h-6.15821v-0.78707h5.16356v-0.65734h-5.16356v-0.78707M387.93836,192.47834h6.15821v0.78707h-6.15821v-0.78707M388.13729,190.72256h5.70846v0.76978h-5.70846v-0.76978M391.64021,190.96474h0.93411v4.2381h-0.93411v-4.2381M389.33088,190.98204h0.89951v1.34062c0,0.26524 -0.02018,0.53337 -0.06054,0.80437c-0.04036,0.27101 -0.12109,0.53164 -0.24218,0.78189c-0.12109,0.2514 -0.29984,0.48781 -0.53625,0.70923c-0.23641,0.22257 -0.55355,0.42323 -0.95141,0.60198c-0.04036,-0.06919 -0.09687,-0.14704 -0.16952,-0.23353c-0.0715,-0.08649 -0.14646,-0.17298 -0.22488,-0.25948c-0.07727,-0.08649 -0.15338,-0.15569 -0.22834,-0.20758c0.3402,-0.14415 0.61005,-0.30272 0.80956,-0.4757c0.19835,-0.17298 0.34943,-0.35635 0.45322,-0.55009c0.10379,-0.19259 0.17125,-0.38979 0.20239,-0.5916c0.03229,-0.20181 0.04844,-0.40074 0.04844,-0.59679v-1.32332M388.86382,189.98738l0.85627,-0.25948c0.07496,0.11532 0.15396,0.24506 0.23699,0.38921c0.08419,0.14415 0.15223,0.26524 0.20412,0.36327l-0.89086,0.29407c-0.04036,-0.10379 -0.10091,-0.23064 -0.18163,-0.38056c-0.08073,-0.14992 -0.15569,-0.28542 -0.22488,-0.40651M392.08132,189.7452l0.98601,0.25083c-0.14992,0.22488 -0.30272,0.44687 -0.45841,0.66599c-0.15569,0.21911 -0.29407,0.40651 -0.41516,0.5622l-0.69193,-0.23353c0.06919,-0.12109 0.13954,-0.25544 0.21104,-0.40305c0.07265,-0.14646 0.14185,-0.2935 0.20758,-0.44111c0.06689,-0.14646 0.12051,-0.28023 0.16087,-0.40132zM394.97014,188.37864h7.71506v0.89951h-7.71506v-0.89951M398.79308,189.61547h0.93411v5.58737h-0.93411v-5.58737M396.36266,190.66202h5.35384v0.88222h-4.42838v2.87153h-0.92546v-3.75374M401.30999,190.66202h0.94276v2.72449c0,0.22488 -0.02883,0.40074 -0.08649,0.5276c-0.05766,0.12685 -0.16722,0.22488 -0.32867,0.29407c-0.15569,0.06919 -0.35346,0.11071 -0.59333,0.12455c-0.23872,0.01499 -0.52529,0.02249 -0.85973,0.02249c-0.0173,-0.12685 -0.05651,-0.26985 -0.11763,-0.429c-0.05997,-0.15799 -0.12167,-0.29753 -0.18509,-0.41862c0.14992,0.00577 0.29695,0.0098 0.44111,0.01211c0.14415,0.00346 0.27101,0.00519 0.38056,0.00519c0.10956,0 0.18452,0 0.22488,0c0.06919,-0.00577 0.11648,-0.01903 0.14185,-0.03979c0.02652,-0.01961 0.03979,-0.05824 0.03979,-0.1159v-2.70719M397.78977,187.10721l0.96006,0.22488c-0.20758,0.69193 -0.47167,1.3781 -0.79226,2.0585c-0.31944,0.6804 -0.70404,1.31583 -1.1538,1.90628c-0.44976,0.5916 -0.98024,1.09787 -1.59145,1.5188c-0.04036,-0.07496 -0.09226,-0.16318 -0.15569,-0.26466c-0.06343,-0.10033 -0.12858,-0.19951 -0.19547,-0.29753c-0.06573,-0.09802 -0.12743,-0.17875 -0.18509,-0.24218c0.40939,-0.27101 0.77958,-0.59276 1.11055,-0.96525c0.33213,-0.37134 0.62678,-0.77497 0.88395,-1.21088c0.25602,-0.43477 0.47743,-0.88452 0.66426,-1.34927c0.18798,-0.4636 0.33962,-0.92315 0.45495,-1.37868zM404.94264,187.53967h5.57007v2.41312h-5.57007v-0.77843h4.63596v-0.84762h-4.63596v-0.78707M404.38909,187.53967h0.91681v2.1104c0,0.38056 -0.01442,0.79976 -0.04325,1.25759c-0.02883,0.45898 -0.08649,0.93065 -0.17298,1.415c-0.08649,0.48435 -0.20931,0.95429 -0.36845,1.40982c-0.15799,0.45552 -0.36961,0.87068 -0.63485,1.24548c-0.0519,-0.06343 -0.12397,-0.13435 -0.21623,-0.21277c-0.09226,-0.07727 -0.1874,-0.1505 -0.28542,-0.21969c-0.09802,-0.06919 -0.18163,-0.12109 -0.25083,-0.15569c0.24218,-0.3402 0.43361,-0.71212 0.57431,-1.11574c0.14185,-0.40363 0.24737,-0.81879 0.31656,-1.24548c0.06919,-0.42669 0.11359,-0.84358 0.1332,-1.25067c0.02076,-0.40593 0.03114,-0.78189 0.03114,-1.12785v-2.1104M404.95994,190.56688h5.54412v0.81302h-5.54412v-0.81302M406.25731,191.93345h2.90612v2.36122h-2.90612v-0.73518h2.04121v-0.89086h-2.04121v-0.73518M405.77296,191.93345h0.85627v2.88018h-0.85627v-2.88018M410.20134,190.56688h0.93411c0,0 0,0.02306 0,0.06919c0,0.04613 0,0.09918 0,0.15914c0,0.06112 -0.00288,0.11186 -0.00865,0.15223c-0.02306,0.64004 -0.04786,1.18782 -0.07438,1.64334c-0.02537,0.45552 -0.05535,0.83147 -0.08995,1.12785c-0.0346,0.29753 -0.07381,0.53279 -0.11763,0.70577c-0.04267,0.17298 -0.0986,0.30272 -0.16779,0.38921c-0.09226,0.11532 -0.18913,0.19605 -0.29061,0.24218c-0.10033,0.04613 -0.21969,0.08073 -0.35808,0.10379c-0.12109,0.0173 -0.27966,0.0271 -0.4757,0.02941c-0.19605,0.00346 -0.40363,-0.00058 -0.62274,-0.01211c-0.00577,-0.12685 -0.03171,-0.27274 -0.07784,-0.43765c-0.04613,-0.16376 -0.10667,-0.30618 -0.18163,-0.42727c0.19605,0.01153 0.37307,0.02133 0.53106,0.02941c0.15914,0.00923 0.27908,0.01096 0.35981,0.00519c0.06919,0.00577 0.1257,-0.00173 0.16952,-0.02249c0.04267,-0.01961 0.08419,-0.05247 0.12455,-0.0986c0.06343,-0.06919 0.11532,-0.22488 0.15569,-0.46706c0.04036,-0.24218 0.07669,-0.60717 0.10898,-1.09499c0.03114,-0.48666 0.05824,-1.13074 0.0813,-1.93223z" fill="#ffffff" fill-rule="nonzero" stroke-width="1"/><path d="M250.823,199.89242h0.92546v5.06842h-0.92546v-5.06842M252.83826,199.89242h0.92546v5.06842h-0.92546v-5.06842M251.70522,197.92905l1.15034,0.06919c-0.10379,0.36903 -0.21911,0.73345 -0.34597,1.09326c-0.12685,0.36096 -0.24506,0.66829 -0.35462,0.922l-0.91681,-0.10379c0.06343,-0.19028 0.1257,-0.39959 0.18682,-0.62793c0.05997,-0.22719 0.11475,-0.46071 0.16433,-0.70058c0.04844,-0.23872 0.08707,-0.4561 0.1159,-0.65215M248.81639,199.45996h6.51283v0.86492h-5.56142v4.90408h-0.95141v-5.769M254.91406,199.45996h0.93411v4.75705c0,0.22488 -0.02595,0.40074 -0.07784,0.5276c-0.0519,0.12685 -0.1528,0.22776 -0.30272,0.30272c-0.14992,0.06919 -0.33444,0.11244 -0.55355,0.12974c-0.21911,0.0173 -0.47859,0.02595 -0.77843,0.02595c-0.0173,-0.12685 -0.05478,-0.27274 -0.11244,-0.43765c-0.05766,-0.16376 -0.11821,-0.30041 -0.18163,-0.40997c0.19028,0.00577 0.37364,0.00865 0.55009,0.00865c0.17529,0 0.29465,0 0.35808,0c0.06343,-0.00577 0.10667,-0.01903 0.12974,-0.03979c0.02306,-0.01961 0.0346,-0.05824 0.0346,-0.1159v-4.7484M248.40123,197.50524h7.8448v0.94276h-7.8448zM259.48082,198.03284h5.51817v0.83897h-5.51817v-0.83897M260.52737,200.31623v0.97736h3.33858v-0.97736h-3.33858M259.67976,199.5551h5.07707v2.49961h-5.07707v-2.49961M260.42358,202.16715c0.25948,0.42669 0.61409,0.79284 1.06385,1.09845c0.44976,0.3056 0.98024,0.55182 1.59145,0.73864c0.61121,0.18798 1.29161,0.31944 2.04121,0.3944c-0.06343,0.06343 -0.13147,0.14415 -0.20412,0.24218c-0.0715,0.09802 -0.13608,0.1972 -0.19374,0.29753c-0.05766,0.10148 -0.10667,0.19547 -0.14704,0.28196c-0.77266,-0.10379 -1.47151,-0.27389 -2.09656,-0.5103c-0.6262,-0.23641 -1.17398,-0.5449 -1.64334,-0.92546c-0.47052,-0.38056 -0.86146,-0.83897 -1.17283,-1.37522l0.76113,-0.24218M261.72096,197.20252h0.91681v3.90943c0,0.34597 -0.02133,0.68617 -0.064,1.0206c-0.04382,0.33444 -0.1234,0.65561 -0.23872,0.96352c-0.11532,0.30906 -0.28254,0.59622 -0.50165,0.86146c-0.21911,0.26524 -0.50165,0.50569 -0.84762,0.72134c-0.34597,0.21681 -0.77266,0.40305 -1.28008,0.55874c-0.0346,-0.06919 -0.08649,-0.15165 -0.15569,-0.24737c-0.06919,-0.09456 -0.13954,-0.19086 -0.21104,-0.28888c-0.07265,-0.09802 -0.14358,-0.17875 -0.21277,-0.24218c0.48435,-0.10956 0.88395,-0.24967 1.19878,-0.42035c0.31368,-0.16952 0.5645,-0.36384 0.75248,-0.58295c0.18682,-0.21911 0.32636,-0.45552 0.41862,-0.70923c0.09226,-0.25371 0.1528,-0.51895 0.18163,-0.79572c0.02883,-0.27677 0.04325,-0.55931 0.04325,-0.84762v-3.90078M258.90133,197.13333l0.86492,0.27677c-0.19605,0.48435 -0.42785,0.96871 -0.69539,1.45306c-0.2687,0.48435 -0.55585,0.94103 -0.86146,1.37003c-0.3056,0.43015 -0.62274,0.80956 -0.95141,1.13823c-0.02883,-0.07496 -0.07208,-0.17298 -0.12974,-0.29407c-0.05766,-0.12109 -0.11821,-0.24218 -0.18163,-0.36327c-0.06343,-0.12109 -0.12397,-0.21911 -0.18163,-0.29407c0.28254,-0.26524 0.55643,-0.57373 0.82167,-0.92546c0.26524,-0.35173 0.5103,-0.72941 0.73518,-1.13304c0.22488,-0.40363 0.41804,-0.81302 0.57949,-1.22818M258.03641,199.49455l0.88222,-0.88222l0.00865,0.00865v6.63392h-0.89086zM267.06615,197.73877h5.39708v0.88222h-5.39708v-0.88222M267.06615,199.73673h5.40573v0.87357h-5.40573v-0.87357M267.0402,201.78659h5.45763v0.87357h-5.45763v-0.87357M266.53855,197.73877h0.91681v3.12235c0,0.33444 -0.01442,0.69885 -0.04325,1.09326c-0.02883,0.39556 -0.08534,0.79342 -0.16952,1.19359c-0.08303,0.40132 -0.20527,0.78362 -0.36672,1.14688c-0.16145,0.36327 -0.3748,0.68905 -0.64004,0.97736c-0.04613,-0.05766 -0.11532,-0.12685 -0.20758,-0.20758c-0.09226,-0.08073 -0.18452,-0.15741 -0.27677,-0.23007c-0.09226,-0.0715 -0.17298,-0.12455 -0.24218,-0.15914c0.23641,-0.26524 0.42381,-0.55528 0.5622,-0.87011c0.13839,-0.31368 0.24045,-0.63946 0.30618,-0.97736c0.06689,-0.33674 0.11013,-0.67406 0.12974,-1.01195c0.02076,-0.33674 0.03114,-0.65791 0.03114,-0.96352v-3.1137M272.12592,197.73877h0.91681v6.36579c0,0.25371 -0.03287,0.45091 -0.0986,0.5916c-0.06689,0.14185 -0.18106,0.25025 -0.34251,0.32521c-0.16722,0.07496 -0.3846,0.12109 -0.65215,0.13839c-0.2687,0.0173 -0.60487,0.02306 -1.00849,0.0173c-0.0173,-0.12109 -0.05593,-0.26985 -0.1159,-0.4463c-0.06112,-0.17529 -0.1234,-0.32348 -0.18682,-0.44457c0.17875,0.01153 0.35462,0.0173 0.5276,0.0173c0.17298,0 0.32579,0 0.45841,0c0.13262,0 0.22488,0 0.27677,0c0.08073,0 0.13839,-0.01615 0.17298,-0.04844c0.0346,-0.03114 0.0519,-0.08419 0.0519,-0.15914v-6.35714M269.21979,198.08474h0.93411v7.04043h-0.93411zM277.12514,199.28697h5.1895v0.77843h-5.1895v-0.77843M277.37597,197.88581h4.7311v0.74383h-4.7311v-0.74383M278.31873,197.15928h0.86492v2.62935h-0.86492v-2.62935M279.26149,199.80592h0.85627v3.46832h-0.85627v-3.46832M280.24749,197.15928h0.87357v2.638h-0.87357v-2.638M278.28413,202.37473v0.5622h2.87153v-0.5622h-2.87153M278.28413,201.21574v0.5449h2.87153v-0.5449h-2.87153M277.47976,200.56705h4.51487v3.00991h-4.51487v-3.00991M278.5955,203.62886l0.76113,0.5103c-0.15569,0.13839 -0.34193,0.27677 -0.55874,0.41516c-0.21565,0.13839 -0.43592,0.26812 -0.6608,0.38921c-0.22488,0.12109 -0.44111,0.222 -0.64869,0.30272c-0.07496,-0.08649 -0.17298,-0.18913 -0.29407,-0.30791c-0.12109,-0.11763 -0.23064,-0.21681 -0.32867,-0.29753c0.20758,-0.07496 0.4192,-0.1701 0.63485,-0.28542c0.21681,-0.11532 0.42208,-0.23641 0.61582,-0.36327c0.19259,-0.12685 0.35231,-0.24794 0.47916,-0.36327M274.34011,198.95831h2.87153v0.86492h-2.87153v-0.86492M275.43855,197.15063h0.85627v8.06968h-0.85627v-8.06968M275.4299,199.5378l0.53625,0.18163c-0.06343,0.34597 -0.143,0.70347 -0.23872,1.0725c-0.09456,0.36903 -0.20239,0.73057 -0.32348,1.08461c-0.12109,0.35519 -0.25256,0.68674 -0.3944,0.99466c-0.14069,0.30906 -0.28888,0.57315 -0.44457,0.79226c-0.04613,-0.12109 -0.11244,-0.26236 -0.19893,-0.42381c-0.08649,-0.16145 -0.16433,-0.29695 -0.23353,-0.40651c0.13839,-0.19028 0.27389,-0.41401 0.40651,-0.67118c0.13262,-0.25602 0.25659,-0.53279 0.37191,-0.83032c0.11532,-0.29638 0.21796,-0.59737 0.30791,-0.90297c0.0888,-0.3056 0.15914,-0.60256 0.21104,-0.89086M276.25157,200.23838c0.04613,0.05766 0.11994,0.15684 0.22142,0.29753c0.10033,0.14185 0.207,0.29465 0.32002,0.45841c0.11186,0.16491 0.21392,0.31771 0.30618,0.45841c0.09226,0.14185 0.15857,0.24448 0.19893,0.30791l-0.48435,0.71788c-0.0519,-0.12109 -0.11648,-0.26524 -0.19374,-0.43246c-0.07842,-0.16722 -0.16491,-0.34308 -0.25948,-0.5276c-0.09572,-0.18452 -0.18567,-0.35635 -0.26985,-0.51549c-0.08303,-0.15799 -0.15338,-0.28312 -0.21104,-0.37537l0.37191,-0.38921M280.10911,204.17376l0.65734,-0.50165c0.17875,0.09226 0.37076,0.19893 0.57604,0.32002c0.20412,0.12109 0.40132,0.24218 0.5916,0.36327c0.19028,0.12109 0.34885,0.23064 0.4757,0.32867l-0.70923,0.5622c-0.10956,-0.09802 -0.25544,-0.21219 -0.43765,-0.34251c-0.18106,-0.12916 -0.37249,-0.25717 -0.57431,-0.38402c-0.20181,-0.12685 -0.39498,-0.24218 -0.57949,-0.34597zM283.65527,197.53984h0.93411v3.1137c0,0.35173 -0.01153,0.73057 -0.0346,1.1365c-0.02306,0.40709 -0.06804,0.81936 -0.13493,1.23683c-0.06573,0.41862 -0.16318,0.81936 -0.29234,1.20224c-0.13031,0.38402 -0.30503,0.73172 -0.52414,1.04309c-0.0519,-0.05766 -0.12858,-0.11994 -0.23007,-0.18682c-0.10033,-0.06573 -0.20239,-0.13031 -0.30618,-0.19374c-0.10379,-0.06343 -0.19605,-0.11244 -0.27677,-0.14704c0.20181,-0.28831 0.36038,-0.60256 0.4757,-0.94276c0.11532,-0.3402 0.20066,-0.69193 0.25602,-1.0552c0.0542,-0.36327 0.08995,-0.72365 0.10725,-1.08115c0.0173,-0.3575 0.02595,-0.69482 0.02595,-1.01195v-3.1137M284.29531,197.53984h6.15821v2.23149h-6.15821v-0.78707h5.16356v-0.65734h-5.16356v-0.78707M284.67587,202.50447h6.15821v0.78707h-6.15821v-0.78707M284.8748,200.74868h5.70846v0.76978h-5.70846v-0.76978M288.37772,200.99086h0.93411v4.2381h-0.93411v-4.2381M286.06839,201.00816h0.89951v1.34062c0,0.26524 -0.02018,0.53337 -0.06054,0.80437c-0.04036,0.27101 -0.12109,0.53164 -0.24218,0.78189c-0.12109,0.2514 -0.29984,0.48781 -0.53625,0.70923c-0.23641,0.22257 -0.55355,0.42323 -0.95141,0.60198c-0.04036,-0.06919 -0.09629,-0.14704 -0.16779,-0.23353c-0.07265,-0.08649 -0.14819,-0.17298 -0.22661,-0.25948c-0.07727,-0.08649 -0.15338,-0.15569 -0.22834,-0.20758c0.3402,-0.14415 0.60948,-0.30272 0.80783,-0.4757c0.19951,-0.17298 0.35116,-0.35635 0.45495,-0.55009c0.10379,-0.19259 0.17125,-0.38979 0.20239,-0.5916c0.03229,-0.20181 0.04844,-0.40074 0.04844,-0.59679v-1.32332M285.60133,200.0135l0.85627,-0.25948c0.07496,0.11532 0.15453,0.24506 0.23872,0.38921c0.08303,0.14415 0.1505,0.26524 0.20239,0.36327l-0.89086,0.29407c-0.04036,-0.10379 -0.10091,-0.23064 -0.18163,-0.38056c-0.08073,-0.14992 -0.15569,-0.28542 -0.22488,-0.40651M288.81882,199.77133l0.98601,0.25083c-0.14992,0.22488 -0.30272,0.44687 -0.45841,0.66599c-0.15569,0.21911 -0.29407,0.40651 -0.41516,0.5622l-0.69193,-0.23353c0.06919,-0.12109 0.14012,-0.25544 0.21277,-0.40305c0.0715,-0.14646 0.14012,-0.2935 0.20585,-0.44111c0.06689,-0.14646 0.12051,-0.28023 0.16087,-0.40132zM291.70765,198.40476h7.71506v0.89951h-7.71506v-0.89951M295.53058,199.64159h0.93411v5.58737h-0.93411v-5.58737M293.10017,200.68814h5.35384v0.88222h-4.42838v2.87153h-0.92546v-3.75374M298.04749,200.68814h0.94276v2.72449c0,0.22488 -0.02883,0.40074 -0.08649,0.5276c-0.05766,0.12685 -0.16722,0.22488 -0.32867,0.29407c-0.15569,0.06919 -0.35289,0.11071 -0.5916,0.12455c-0.23987,0.01499 -0.52702,0.02249 -0.86146,0.02249c-0.0173,-0.12685 -0.05593,-0.26985 -0.1159,-0.429c-0.06112,-0.15799 -0.1234,-0.29753 -0.18682,-0.41862c0.14992,0.00577 0.29695,0.0098 0.44111,0.01211c0.14415,0.00346 0.27101,0.00519 0.38056,0.00519c0.10956,0 0.18452,0 0.22488,0c0.06919,-0.00577 0.11648,-0.01903 0.14185,-0.03979c0.02652,-0.01961 0.03979,-0.05824 0.03979,-0.1159v-2.70719M294.52728,197.13333l0.96006,0.22488c-0.20758,0.69193 -0.47109,1.3781 -0.79053,2.0585c-0.3206,0.6804 -0.70577,1.31583 -1.15553,1.90628c-0.44976,0.5916 -0.98024,1.09787 -1.59145,1.5188c-0.04036,-0.07496 -0.09226,-0.16318 -0.15569,-0.26466c-0.06343,-0.10033 -0.12858,-0.19951 -0.19547,-0.29753c-0.06573,-0.09802 -0.12743,-0.17875 -0.18509,-0.24218c0.40939,-0.27101 0.77958,-0.59276 1.11055,-0.96525c0.33213,-0.37134 0.62678,-0.77497 0.88395,-1.21088c0.25602,-0.43477 0.47743,-0.88452 0.66426,-1.34927c0.18798,-0.4636 0.33962,-0.92315 0.45495,-1.37868zM301.68015,197.56579h5.57007v2.41312h-5.57007v-0.77843h4.63596v-0.84762h-4.63596v-0.78707M301.1266,197.56579h0.91681v2.1104c0,0.38056 -0.01442,0.79976 -0.04325,1.25759c-0.02883,0.45898 -0.08649,0.93065 -0.17298,1.415c-0.08649,0.48435 -0.20873,0.95429 -0.36672,1.40982c-0.15914,0.45552 -0.37134,0.87068 -0.63658,1.24548c-0.0519,-0.06343 -0.12397,-0.13435 -0.21623,-0.21277c-0.09226,-0.07727 -0.1874,-0.1505 -0.28542,-0.21969c-0.09802,-0.06919 -0.18163,-0.12109 -0.25083,-0.15569c0.24218,-0.3402 0.43419,-0.71212 0.57604,-1.11574c0.14069,-0.40363 0.24564,-0.81879 0.31483,-1.24548c0.06919,-0.42669 0.11417,-0.84358 0.13493,-1.25067c0.01961,-0.40593 0.02941,-0.78189 0.02941,-1.12785v-2.1104M301.69744,200.593h5.54412v0.81302h-5.54412v-0.81302M302.99482,201.95957h2.90612v2.36122h-2.90612v-0.73518h2.04121v-0.89086h-2.04121v-0.73518M302.51047,201.95957h0.85627v2.88018h-0.85627v-2.88018M306.93884,200.593h0.93411c0,0 0,0.02306 0,0.06919c0,0.04613 0,0.09918 0,0.15914c0,0.06112 -0.00288,0.11186 -0.00865,0.15223c-0.02306,0.64004 -0.04728,1.18782 -0.07265,1.64334c-0.02652,0.45552 -0.05708,0.83147 -0.09168,1.12785c-0.0346,0.29753 -0.07323,0.53279 -0.1159,0.70577c-0.04382,0.17298 -0.10033,0.30272 -0.16952,0.38921c-0.09226,0.11532 -0.18855,0.19605 -0.28888,0.24218c-0.10148,0.04613 -0.22142,0.08073 -0.35981,0.10379c-0.12109,0.0173 -0.27966,0.0271 -0.4757,0.02941c-0.19605,0.00346 -0.40363,-0.00058 -0.62274,-0.01211c-0.00577,-0.12685 -0.03171,-0.27274 -0.07784,-0.43765c-0.04613,-0.16376 -0.10667,-0.30618 -0.18163,-0.42727c0.19605,0.01153 0.37364,0.02133 0.53279,0.02941c0.15799,0.00923 0.27735,0.01096 0.35808,0.00519c0.06919,0.00577 0.1257,-0.00173 0.16952,-0.02249c0.04267,-0.01961 0.08419,-0.05247 0.12455,-0.0986c0.06343,-0.06919 0.11532,-0.22488 0.15569,-0.46706c0.04036,-0.24218 0.07669,-0.60717 0.10898,-1.09499c0.03114,-0.48666 0.05824,-1.13074 0.0813,-1.93223zM310.20823,202.34013c0.25371,0 0.48435,0.0617 0.69193,0.18509c0.20758,0.12455 0.37364,0.29061 0.49819,0.49819c0.1234,0.20758 0.18509,0.43823 0.18509,0.69193c0,0.25371 -0.0617,0.48435 -0.18509,0.69193c-0.12455,0.20758 -0.29061,0.37307 -0.49819,0.49646c-0.20758,0.12455 -0.43823,0.18682 -0.69193,0.18682c-0.25371,0 -0.48435,-0.06227 -0.69193,-0.18682c-0.20758,-0.1234 -0.37307,-0.28888 -0.49646,-0.49646c-0.12455,-0.20758 -0.18682,-0.43823 -0.18682,-0.69193c0,-0.25371 0.06227,-0.48435 0.18682,-0.69193c0.1234,-0.20758 0.28888,-0.37364 0.49646,-0.49819c0.20758,-0.1234 0.43823,-0.18509 0.69193,-0.18509M310.20823,204.51972c0.22488,0 0.41516,-0.07784 0.57085,-0.23353c0.15569,-0.15569 0.23353,-0.34597 0.23353,-0.57085c0,-0.14415 -0.03575,-0.2785 -0.10725,-0.40305c-0.07265,-0.1234 -0.16952,-0.22142 -0.29061,-0.29407c-0.12109,-0.0715 -0.25659,-0.10725 -0.40651,-0.10725c-0.14415,0 -0.27793,0.03575 -0.40132,0.10725c-0.12455,0.07265 -0.22257,0.17068 -0.29407,0.29407c-0.07265,0.12455 -0.10898,0.2589 -0.10898,0.40305c0,0.14992 0.03633,0.28658 0.10898,0.40997c0.0715,0.12455 0.16779,0.22142 0.28888,0.29061c0.12109,0.06919 0.25659,0.10379 0.40651,0.10379z" fill="#ffffff" fill-rule="nonzero" stroke-width="1"/></g></g></svg>