<svg version="1.1" xmlns="http://www.w3.org/2000/svg" xmlns:xlink="http://www.w3.org/1999/xlink" width="208" height="32" viewBox="0,0,208,32"><g transform="translate(-240,-164)"><g stroke="none" stroke-miterlimit="10"><path d="M248.74589,170.26602h2.3844v15.95713c0,0.6929 -0.09103,1.21598 -0.27308,1.56922c-0.18477,0.35324 -0.49454,0.61818 -0.9293,0.7948c-0.44835,0.17662 -1.01897,0.29211 -1.71188,0.34645c-0.6929,0.05435 -1.52846,0.07473 -2.50668,0.06114c-0.04076,-0.20379 -0.10869,-0.44563 -0.20379,-0.72551c-0.0951,-0.27716 -0.20379,-0.55568 -0.32607,-0.83556c-0.12228,-0.27716 -0.24455,-0.51764 -0.36683,-0.72143c0.47552,0.02717 0.94153,0.04348 1.39803,0.04891c0.45378,0.00815 0.85458,0.00815 1.20239,0c0.34509,-0.00544 0.59236,-0.00815 0.74181,-0.00815c0.21738,0 0.37091,-0.04076 0.46058,-0.12228c0.08695,-0.08152 0.13043,-0.22417 0.13043,-0.42797v-15.93675M253.65735,175.58506l2.11947,-0.7948c0.58421,0.95104 1.14125,1.97273 1.67112,3.06507c0.52987,1.09506 0.99588,2.16838 1.39803,3.21996c0.39944,1.0543 0.68747,2.00262 0.86409,2.84497l-2.3844,0.93746c-0.14945,-0.82877 -0.40759,-1.77301 -0.77442,-2.83275c-0.36683,-1.05973 -0.80431,-2.15343 -1.31244,-3.2811c-0.51085,-1.12766 -1.03799,-2.1806 -1.58145,-3.15882M243.40647,174.97368l2.4863,0.40759c-0.23097,1.01897 -0.5122,2.08822 -0.84371,3.20773c-0.33422,1.12223 -0.72823,2.19283 -1.18201,3.21181c-0.4565,1.01897 -0.97686,1.90888 -1.56107,2.66971c-0.17662,-0.12228 -0.394,-0.25814 -0.65214,-0.40759c-0.25814,-0.14945 -0.51628,-0.28939 -0.77442,-0.41982c-0.25814,-0.12771 -0.48911,-0.23233 -0.6929,-0.31384c0.57063,-0.70649 1.06653,-1.53933 1.4877,-2.49852c0.42118,-0.95648 0.7785,-1.94828 1.07196,-2.9754c0.29075,-1.02441 0.51085,-1.98496 0.66029,-2.88166zM263.70443,172.07979h6.3584v1.89529h-6.3584v-1.89529M271.69318,172.07979h7.76458v1.89529h-7.76458v-1.89529M262.15559,178.17326h16.30358v1.99719h-16.30358v-1.99719M261.07547,186.42694h18.30077v2.07871h-18.30077v-2.07871M263.78594,169.83805l2.09909,0.50949c-0.27173,0.85594 -0.5978,1.70101 -0.97821,2.53521c-0.38042,0.83692 -0.78801,1.61813 -1.22277,2.34364c-0.43476,0.72823 -0.88311,1.36407 -1.34505,1.90752c-0.14945,-0.12228 -0.33558,-0.26222 -0.5584,-0.41982c-0.22553,-0.15488 -0.45378,-0.30433 -0.68475,-0.44835c-0.23097,-0.1413 -0.43476,-0.25271 -0.61138,-0.33422c0.70649,-0.73366 1.34776,-1.64802 1.92382,-2.74308c0.57878,-1.09234 1.03799,-2.20913 1.37765,-3.35039M271.99887,169.83805l2.13984,0.52987c-0.42118,1.22277 -0.97142,2.38032 -1.65074,3.47266c-0.67932,1.09506 -1.3926,2.00942 -2.13984,2.74308c-0.13586,-0.12228 -0.31928,-0.26493 -0.55025,-0.42797c-0.23097,-0.16304 -0.46601,-0.31928 -0.70513,-0.46873c-0.2364,-0.14945 -0.44291,-0.27173 -0.61954,-0.36683c0.76083,-0.63856 1.44966,-1.44694 2.06648,-2.42516c0.61954,-0.97821 1.10593,-1.99719 1.45917,-3.05692M264.53998,173.58788l1.75263,-0.71328c0.21738,0.33966 0.44156,0.70921 0.67252,1.10864c0.23097,0.40215 0.43748,0.79344 0.61954,1.17386c0.18477,0.38042 0.32471,0.72007 0.41982,1.01897l-1.87491,0.83556c-0.08152,-0.2989 -0.20651,-0.64535 -0.37498,-1.03935c-0.17119,-0.394 -0.3614,-0.80159 -0.57063,-1.22277c-0.21195,-0.42118 -0.42661,-0.80839 -0.64399,-1.16163M273.18088,173.62863l1.81377,-0.73366c0.28531,0.32607 0.57063,0.68203 0.85594,1.06788c0.28531,0.38857 0.55296,0.77306 0.80295,1.15348c0.25271,0.38042 0.44699,0.72007 0.58285,1.01897l-1.95643,0.85594c-0.12228,-0.31248 -0.2989,-0.66301 -0.52987,-1.05158c-0.23097,-0.38585 -0.48231,-0.78257 -0.75404,-1.19016c-0.27173,-0.40759 -0.54345,-0.78121 -0.81518,-1.12087M264.68264,181.2098l2.07871,-0.57063c0.25814,0.54345 0.4959,1.12087 0.71328,1.73226c0.21738,0.61138 0.40759,1.20918 0.57063,1.79339c0.16304,0.58421 0.27852,1.11408 0.34645,1.5896l-2.24174,0.63176c-0.04076,-0.46194 -0.13586,-0.9918 -0.28531,-1.5896c-0.14945,-0.5978 -0.32607,-1.20918 -0.52987,-1.83415c-0.20379,-0.62497 -0.42118,-1.20918 -0.65214,-1.75263M273.87378,180.53728l2.30288,0.57063c-0.25814,0.74725 -0.53258,1.50129 -0.82333,2.26212c-0.29346,0.76083 -0.58965,1.4877 -0.88855,2.1806c-0.2989,0.6929 -0.591,1.30429 -0.87632,1.83415l-2.03795,-0.57063c0.27173,-0.55704 0.55432,-1.1956 0.84779,-1.91567c0.29075,-0.72007 0.56927,-1.46053 0.83556,-2.22136c0.26357,-0.76083 0.47688,-1.47411 0.63992,-2.13984M268.6974,176.56328l2.22136,-0.57063c0.20379,0.42118 0.4008,0.87632 0.591,1.36542c0.19021,0.48911 0.31928,0.91708 0.38721,1.28391l-2.36402,0.65214c-0.05435,-0.36683 -0.16032,-0.80567 -0.31792,-1.31651c-0.15488,-0.50813 -0.32743,-0.97957 -0.51764,-1.41434zM284.10428,170.93854h15.67182v1.99719h-15.67182v-1.99719M282.82037,170.93854h2.16022v5.88967c0,0.85594 -0.02446,1.78932 -0.07337,2.80014c-0.04619,1.01354 -0.14402,2.05289 -0.29346,3.11806c-0.14945,1.06788 -0.36411,2.10045 -0.64399,3.09768c-0.27716,0.99995 -0.64671,1.90752 -1.10864,2.7227c-0.13586,-0.10869 -0.322,-0.23504 -0.5584,-0.37906c-0.23912,-0.1413 -0.47688,-0.27988 -0.71328,-0.41574c-0.23912,-0.13586 -0.45378,-0.23097 -0.64399,-0.28531c0.43476,-0.77442 0.7785,-1.61405 1.0312,-2.5189c0.24999,-0.90213 0.4334,-1.82872 0.55025,-2.77976c0.11413,-0.95104 0.19157,-1.88578 0.23233,-2.80422c0.04076,-0.91572 0.06114,-1.76758 0.06114,-2.55559v-5.88967M288.60814,179.27375v1.50808h7.45889v-1.50808h-7.45889M288.60814,176.23721v1.4877h7.45889v-1.4877h-7.45889M286.4683,174.58647h11.84047v7.8461h-11.84047v-7.8461M291.27785,181.14866h2.11947v5.66549c0,0.50269 -0.06114,0.90349 -0.18342,1.20239c-0.12228,0.2989 -0.36004,0.52307 -0.71328,0.67252c-0.36683,0.14945 -0.8179,0.23776 -1.3532,0.26493c-0.53802,0.02717 -1.17386,0.04076 -1.90752,0.04076c-0.04076,-0.28531 -0.12228,-0.60867 -0.24455,-0.97006c-0.12228,-0.35868 -0.25135,-0.68067 -0.38721,-0.96599c0.48911,0.01359 0.95784,0.0231 1.40618,0.02853c0.44835,0.00815 0.74045,0.00544 0.87632,-0.00815c0.16304,0 0.26765,-0.02446 0.31384,-0.07337c0.04891,-0.04619 0.07337,-0.12364 0.07337,-0.23233v-5.62473M290.87026,173.01725l2.60857,0.32607c-0.28531,0.47552 -0.57334,0.92659 -0.86409,1.3532c-0.29346,0.42933 -0.56247,0.80023 -0.80703,1.11272l-2.03795,-0.40759c0.21738,-0.35324 0.42389,-0.75132 0.61954,-1.19424c0.19836,-0.4402 0.35868,-0.83692 0.48096,-1.19016M294.59971,184.06293l1.73226,-0.91708c0.38042,0.40759 0.7948,0.86273 1.24315,1.36542c0.44835,0.50269 0.87903,0.9918 1.29206,1.46732c0.41574,0.47552 0.75268,0.8967 1.01082,1.26353l-1.87491,1.08011c-0.23097,-0.36683 -0.54345,-0.79888 -0.93746,-1.29613c-0.394,-0.49454 -0.80839,-1.00403 -1.24315,-1.52846c-0.43476,-0.52171 -0.84235,-0.99995 -1.22277,-1.43471M287.79296,183.14585l2.07871,0.67252c-0.33966,0.50269 -0.71328,1.02577 -1.12087,1.56922c-0.40759,0.54345 -0.8179,1.05973 -1.23092,1.54884c-0.41574,0.48911 -0.80703,0.91708 -1.17386,1.28391c-0.13586,-0.10869 -0.31656,-0.23776 -0.54209,-0.38721c-0.22281,-0.14945 -0.44971,-0.29618 -0.68067,-0.4402c-0.23097,-0.1413 -0.44156,-0.2595 -0.63176,-0.3546c0.58421,-0.50269 1.17929,-1.10728 1.78524,-1.81377c0.60323,-0.70649 1.10864,-1.39939 1.51623,-2.07871zM311.84074,170.00109h2.20098v7.43851h-2.20098v-7.43851M318.26028,170.53095l2.11947,0.75404c-0.91028,1.76622 -1.99311,3.39658 -3.24849,4.89107c-1.25809,1.49449 -2.64526,2.82867 -4.16149,4.00253c-1.51352,1.17657 -3.11262,2.18604 -4.79733,3.02839c-0.10869,-0.17662 -0.25135,-0.38449 -0.42797,-0.62361c-0.17662,-0.2364 -0.35596,-0.47416 -0.53802,-0.71328c-0.18477,-0.2364 -0.35189,-0.42933 -0.50134,-0.57878c1.65753,-0.72007 3.21724,-1.60998 4.67913,-2.66971c1.45917,-1.05973 2.77297,-2.27299 3.94139,-3.63977c1.16842,-1.36407 2.14664,-2.84769 2.93464,-4.45088M308.35585,171.99828h8.29445v1.91567h-8.29445v-1.91567M307.56105,175.93152h12.94097v1.99719h-12.94097v-1.99719M311.20898,182.98281h6.92902v1.75263h-6.92902v-1.75263M311.16822,186.38619h6.92902v1.79339h-6.92902v-1.79339M310.16963,179.57944h9.19114v9.35418h-2.16022v-7.54041h-4.95221v7.58116h-2.07871v-9.39494M302.50694,171.69258l1.40618,-1.32467c0.38042,0.28531 0.7785,0.61138 1.19424,0.97821c0.41302,0.36683 0.80974,0.73366 1.19016,1.10049c0.38042,0.36683 0.68611,0.6929 0.91708,0.97821l-1.50808,1.50808c-0.21738,-0.2989 -0.50541,-0.63856 -0.86409,-1.01897c-0.3614,-0.38042 -0.74861,-0.76491 -1.16163,-1.15348c-0.41574,-0.38585 -0.80703,-0.74181 -1.17386,-1.06788M304.21882,188.58717l-0.46873,-2.01757l0.46873,-0.73366l3.56641,-2.62895c0.08152,0.2989 0.197,0.63856 0.34645,1.01897c0.14945,0.38042 0.28531,0.67932 0.40759,0.8967c-0.84235,0.63856 -1.52846,1.16163 -2.05833,1.56922c-0.52987,0.40759 -0.94425,0.72959 -1.24315,0.96599c-0.2989,0.23912 -0.52036,0.42661 -0.66437,0.56247c-0.1413,0.13586 -0.2595,0.25814 -0.3546,0.36683M301.58987,176.29835h3.7702v2.09909h-3.7702v-2.09909M304.21882,188.58717c-0.08152,-0.14945 -0.20379,-0.31656 -0.36683,-0.50134c-0.16304,-0.18206 -0.33286,-0.35868 -0.50949,-0.52987c-0.17662,-0.16847 -0.32607,-0.30026 -0.44835,-0.39536c0.16304,-0.13586 0.33966,-0.32607 0.52987,-0.57063c0.19021,-0.24455 0.35732,-0.53394 0.50134,-0.86817c0.1413,-0.33151 0.21195,-0.70105 0.21195,-1.10864v-8.31483h2.11947v9.4357c0,0 -0.06793,0.07065 -0.20379,0.21195c-0.13586,0.14402 -0.30569,0.32743 -0.50949,0.55025c-0.20379,0.22553 -0.40759,0.46737 -0.61138,0.72551c-0.20379,0.25814 -0.37362,0.50949 -0.50949,0.75404c-0.13586,0.24455 -0.20379,0.44835 -0.20379,0.61138zM338.10988,178.80502h2.16022c0,0 -0.00272,0.05435 -0.00815,0.16304c-0.00815,0.10869 -0.01223,0.23097 -0.01223,0.36683c0,0.13586 -0.00679,0.25814 -0.02038,0.36683c-0.0951,1.82057 -0.197,3.2974 -0.30569,4.4305c-0.10869,1.13582 -0.23776,2.00942 -0.38721,2.6208c-0.14945,0.61138 -0.33286,1.04615 -0.55025,1.30429c-0.23097,0.27173 -0.4796,0.46194 -0.74589,0.57063c-0.26357,0.10869 -0.57198,0.18342 -0.92523,0.22417c-0.2989,0.04076 -0.68883,0.06114 -1.16978,0.06114c-0.48367,0 -0.99044,-0.00679 -1.52031,-0.02038c-0.02717,-0.2989 -0.09782,-0.63856 -0.21195,-1.01897c-0.11684,-0.38042 -0.25678,-0.69969 -0.41982,-0.95784c0.50269,0.04076 0.97142,0.06386 1.40618,0.06929c0.43476,0.00815 0.75404,0.01223 0.95784,0.01223c0.17662,0 0.32335,-0.01359 0.4402,-0.04076c0.11413,-0.02717 0.22553,-0.0951 0.33422,-0.20379c0.14945,-0.16304 0.28531,-0.51628 0.40759,-1.05973c0.12228,-0.54345 0.22825,-1.34505 0.31792,-2.40478c0.08695,-1.05973 0.17119,-2.43874 0.25271,-4.13703v-0.34645M328.04242,181.37283h2.01757v4.82994h-2.01757v-4.82994M333.13729,182.16763h1.99719v5.68587h-1.99719v-5.68587M323.13097,182.20839h1.99719v3.26072h8.84469v1.81377h-10.84188v-5.07449M335.82738,171.71296h2.03795c0,0 0,0.0951 0,0.28531c0,0.19021 -0.00679,0.34645 -0.02038,0.46873c-0.06793,1.01897 -0.13994,1.86812 -0.21602,2.54743c-0.07337,0.67932 -0.16032,1.21598 -0.26086,1.60998c-0.10326,0.394 -0.24319,0.67932 -0.41982,0.85594c-0.16304,0.20379 -0.34373,0.34917 -0.54209,0.43612c-0.19564,0.08967 -0.42253,0.14809 -0.68067,0.17526c-0.21738,0.04076 -0.49998,0.06386 -0.84779,0.06929c-0.34509,0.00815 -0.71464,0.00544 -1.10864,-0.00815c-0.02717,-0.2989 -0.08831,-0.62905 -0.18342,-0.99044c-0.0951,-0.35868 -0.21738,-0.66709 -0.36683,-0.92523c0.31248,0.02717 0.5978,0.04755 0.85594,0.06114c0.25814,0.01359 0.45514,0.02038 0.591,0.02038c0.12228,0 0.23097,-0.01359 0.32607,-0.04076c0.0951,-0.02717 0.17662,-0.08152 0.24455,-0.16304c0.13586,-0.14945 0.25135,-0.52987 0.34645,-1.14125c0.0951,-0.61138 0.17662,-1.60998 0.24455,-2.99578v-0.26493M329.83582,169.91957l2.60857,0.22417c-0.21738,0.50269 -0.46194,0.98773 -0.73366,1.45509c-0.27173,0.47009 -0.51628,0.87496 -0.73366,1.21462l-1.93605,-0.34645c0.14945,-0.38042 0.30298,-0.80839 0.46058,-1.28391c0.15488,-0.47552 0.26629,-0.8967 0.33422,-1.26353M327.59408,175.58506l1.08011,-1.3858c0.47552,0.16304 0.98501,0.36004 1.52846,0.591c0.54345,0.23097 1.06381,0.46873 1.56107,0.71328c0.49454,0.24455 0.90485,0.47552 1.23092,0.6929l-1.14125,1.52846c-0.2989,-0.21738 -0.6929,-0.45514 -1.18201,-0.71328c-0.48911,-0.25814 -1.00267,-0.51356 -1.54069,-0.76627c-0.5353,-0.24999 -1.0475,-0.47009 -1.53661,-0.66029M336.45915,171.71296v1.95643h-9.70063v5.13563h12.00351v1.91567h-14.14335v-9.00773z" fill="#ffffff" stroke-width="1"/><path d="M240,196v-32h208v32z" fill="none" stroke-width="0"/></g></g></svg>