<svg version="1.1" xmlns="http://www.w3.org/2000/svg" xmlns:xlink="http://www.w3.org/1999/xlink" width="140.91033" height="20.74213" viewBox="0,0,140.91033,20.74213"><g transform="translate(-239.22169,-169.9939)"><g fill="#ffffff" stroke="none" stroke-miterlimit="10"><path d="M251.84356,170.19186h2.02924c-0.01353,1.89165 -0.04058,3.69091 -0.08117,5.39779c-0.04058,1.70981 -0.14881,3.31258 -0.32468,4.8083c-0.17587,1.49572 -0.46672,2.88146 -0.87257,4.15723c-0.40585,1.27576 -0.97403,2.42688 -1.70456,3.45336c-0.73053,1.02648 -1.67074,1.92831 -2.82064,2.7055c-0.14881,-0.27862 -0.36526,-0.59096 -0.64936,-0.93703c-0.28409,-0.34314 -0.54789,-0.61002 -0.7914,-0.80065c1.08226,-0.6892 1.95889,-1.49279 2.62989,-2.41075c0.6683,-0.91503 1.18237,-1.94884 1.54222,-3.10142c0.35715,-1.14965 0.60742,-2.41368 0.75082,-3.79209c0.14069,-1.37841 0.22457,-2.85653 0.25163,-4.43437c0.02706,-1.57491 0.04058,-3.25686 0.04058,-5.04586M253.54812,178.08839c0.20292,1.6277 0.51137,3.14101 0.92533,4.53995c0.41126,1.40187 0.9551,2.62631 1.63151,3.67332c0.67641,1.04994 1.52869,1.87552 2.55684,2.47674c-0.21645,0.20529 -0.45996,0.49124 -0.73053,0.85784c-0.27056,0.3666 -0.48025,0.69654 -0.62906,0.98982c-1.10932,-0.74786 -2.02924,-1.71568 -2.75976,-2.90346c-0.73053,-1.18778 -1.31224,-2.56619 -1.74515,-4.13523c-0.4329,-1.56904 -0.77787,-3.30672 -1.03491,-5.21303l1.78573,-0.28595M256.08466,175.00896l2.15099,0.5499c-0.21645,0.67454 -0.4532,1.36668 -0.71023,2.07641c-0.25704,0.71267 -0.51813,1.39454 -0.78329,2.04562c-0.26245,0.65401 -0.50866,1.2303 -0.73864,1.72888l-1.82631,-0.57189c0.22998,-0.51324 0.46672,-1.11153 0.71023,-1.79487c0.24351,-0.68041 0.47349,-1.37254 0.68994,-2.07641c0.21645,-0.70387 0.38556,-1.35641 0.50731,-1.95764M248.77941,175.03096l1.8669,0.28595c-0.01353,0.71853 -0.07035,1.45906 -0.17046,2.22159c-0.10282,0.76253 -0.24892,1.48839 -0.43832,2.17759c-0.18939,0.6892 -0.42614,1.29776 -0.71023,1.82566l-1.8669,-0.81385c0.25704,-0.42525 0.47755,-0.95755 0.66153,-1.5969c0.18128,-0.63641 0.32603,-1.31096 0.43426,-2.02362c0.10823,-0.70974 0.18263,-1.40187 0.22322,-2.07641M242.99608,172.06151h2.11041v18.63053h-2.11041v-18.63053M239.68842,176.4167h8.07637v2.17759h-8.07637v-2.17759M242.95549,177.29654l1.37988,0.65988c-0.20292,0.79185 -0.44914,1.61597 -0.73864,2.47234c-0.29221,0.85931 -0.61418,1.70688 -0.96592,2.54273c-0.35173,0.83584 -0.72376,1.61597 -1.11608,2.34036c-0.39232,0.72733 -0.79817,1.36228 -1.21754,1.90484c-0.05411,-0.23462 -0.14475,-0.49857 -0.27192,-0.79185c-0.12987,-0.29328 -0.26651,-0.57922 -0.40991,-0.85784c-0.14069,-0.27862 -0.27192,-0.52057 -0.39367,-0.72586c0.50055,-0.58656 0.99162,-1.30949 1.47323,-2.1688c0.4789,-0.85637 0.91857,-1.7582 1.31901,-2.7055c0.39773,-0.94436 0.71159,-1.83446 0.94157,-2.6703M246.4052,170.30184l1.37988,1.86965c-0.70347,0.27862 -1.47729,0.5279 -2.32145,0.74786c-0.84687,0.21996 -1.71268,0.41352 -2.59743,0.58069c-0.88745,0.1701 -1.74379,0.31381 -2.56902,0.43112c-0.04058,-0.26395 -0.12175,-0.57189 -0.24351,-0.92383c-0.12175,-0.35193 -0.24351,-0.65255 -0.36526,-0.90183c0.79817,-0.13198 1.60986,-0.29035 2.43509,-0.47511c0.82522,-0.18183 1.60716,-0.38713 2.3458,-0.61589c0.73594,-0.22583 1.38124,-0.46338 1.93589,-0.71267M245.10648,178.92423c0.10823,0.13198 0.28815,0.3402 0.53978,0.62468c0.24892,0.28741 0.51272,0.60269 0.7914,0.94582c0.27598,0.34607 0.52896,0.66574 0.75894,0.95902c0.22998,0.29328 0.39232,0.50591 0.48702,0.63788l-1.21754,1.93564c-0.10823,-0.26395 -0.2638,-0.58362 -0.46672,-0.95902c-0.20292,-0.37246 -0.41938,-0.76399 -0.64936,-1.17458c-0.22998,-0.41059 -0.44914,-0.79185 -0.65747,-1.14379c-0.21104,-0.35193 -0.39097,-0.63788 -0.53978,-0.85784zM262.09121,186.73278h14.36701v2.37556h-14.36701v-2.37556M262.1115,179.1002h14.42789v2.35356h-14.42789v-2.35356M260.87367,171.62159h16.84268v18.85049h-2.25245v-16.56291h-12.41894v16.56291h-2.17129v-18.85049M268.03688,172.69939h2.21187v15.26515h-2.21187zM280.45582,182.26761h18.22256v2.1336h-18.22256v-2.1336M284.494,174.92098h10.10561v1.93564h-10.10561v-1.93564M284.5143,178.5723h10.1259v1.91364h-10.1259v-1.91364M283.60114,171.18168h12.39865v12.05375h-2.19158v-10.07412h-8.09666v10.07412h-2.11041v-12.05375M291.63692,185.23706l1.84661,-0.87984c0.58172,0.49857 1.18102,1.06313 1.79791,1.69368c0.61418,0.63055 1.18913,1.24937 1.72485,1.85645c0.53301,0.61002 0.97539,1.14965 1.32712,1.6189l-1.90748,1.0778c-0.33821,-0.49857 -0.77517,-1.06753 -1.31089,-1.70688c-0.53301,-0.63641 -1.10391,-1.27723 -1.71268,-1.92244c-0.60877,-0.64521 -1.19725,-1.22444 -1.76544,-1.73768M282.26184,190.14214c-0.04058,-0.17597 -0.10146,-0.39593 -0.18263,-0.65988c-0.08117,-0.26395 -0.16234,-0.53963 -0.24351,-0.82705c-0.08117,-0.28448 -0.1691,-0.52937 -0.2638,-0.73466c0.22998,-0.05866 0.45996,-0.15837 0.68994,-0.29914c0.22998,-0.13784 0.48025,-0.32407 0.75082,-0.5587c0.20292,-0.14664 0.5046,-0.41059 0.90504,-0.79185c0.39773,-0.38126 0.8401,-0.84318 1.32712,-1.38574c0.48702,-0.54257 0.93345,-1.11446 1.3393,-1.71568l2.23216,0.92383c-0.78464,0.95315 -1.61933,1.85792 -2.50408,2.71429c-0.88745,0.85931 -1.74379,1.58224 -2.56902,2.1688v0.04399c0,0 -0.07441,0.03666 -0.22322,0.10998c-0.14881,0.07332 -0.32062,0.16424 -0.51543,0.27275c-0.19751,0.11145 -0.37067,0.23316 -0.51949,0.36513c-0.14881,0.13198 -0.22322,0.25662 -0.22322,0.37393M282.26184,190.14214l-0.02029,-1.6277l1.29871,-0.76986l11.74929,-0.50591c0.04058,0.29328 0.10146,0.61882 0.18263,0.97662c0.08117,0.36073 0.14205,0.65108 0.18263,0.87104c-1.8669,0.10265 -3.47676,0.19356 -4.82959,0.27275c-1.35283,0.08212 -2.49596,0.1525 -3.42941,0.21116c-0.93345,0.05866 -1.7005,0.10998 -2.30116,0.15397c-0.60336,0.04399 -1.08497,0.08358 -1.44482,0.11878c-0.35715,0.03813 -0.63989,0.07919 -0.84822,0.12318c-0.21104,0.04399 -0.39097,0.10265 -0.53978,0.17597zM308.66224,179.69409l1.64368,-1.29776c0.45996,0.45458 0.95374,0.94582 1.48134,1.47373c0.5276,0.5279 1.04844,1.06313 1.56251,1.6057c0.51407,0.54257 0.99433,1.07047 1.44076,1.5837c0.44643,0.51324 0.81846,0.97515 1.11608,1.38574l-1.80602,1.53971c-0.27056,-0.42525 -0.61824,-0.8989 -1.04303,-1.42094c-0.42749,-0.5191 -0.88745,-1.0646 -1.37988,-1.63649c-0.49513,-0.57189 -1.00244,-1.13352 -1.52193,-1.68489c-0.52219,-0.54843 -1.02003,-1.0646 -1.49352,-1.54851M308.7637,170.14787h2.23216v5.01507c0,0.71853 -0.04058,1.46933 -0.12175,2.25238c-0.08117,0.78599 -0.23269,1.57784 -0.45455,2.37556c-0.22457,0.80065 -0.54248,1.58957 -0.95374,2.36676c-0.41396,0.77719 -0.95239,1.52505 -1.61527,2.24358c-0.66289,0.71853 -1.47458,1.38574 -2.43509,2.00163c-0.0947,-0.17597 -0.23269,-0.37393 -0.41396,-0.59389c-0.18398,-0.21996 -0.37744,-0.43992 -0.58036,-0.65988c-0.20292,-0.21996 -0.39232,-0.39593 -0.56819,-0.5279c0.91992,-0.5279 1.68156,-1.09686 2.28492,-1.70688c0.60065,-0.60709 1.07685,-1.24497 1.42858,-1.91364c0.35173,-0.66574 0.61283,-1.33588 0.78329,-2.01043c0.16775,-0.67454 0.27868,-1.33882 0.3328,-1.99283c0.05411,-0.65108 0.08117,-1.2699 0.08117,-1.85645v-4.99307M301.58019,173.84318h15.44251v2.30957h-13.27122v14.58328h-2.17129v-16.89285M316.04867,173.84318h2.15099v14.07738c0,0.65988 -0.07441,1.17311 -0.22322,1.53971c-0.14881,0.3666 -0.42614,0.64521 -0.83199,0.83584c-0.40585,0.19063 -0.92939,0.30354 -1.57063,0.33874c-0.64394,0.03813 -1.42588,0.05719 -2.3458,0.05719c-0.01353,-0.21996 -0.06088,-0.47364 -0.14205,-0.76106c-0.08117,-0.28448 -0.1691,-0.56603 -0.2638,-0.84464c-0.0947,-0.27862 -0.19616,-0.5279 -0.30439,-0.74786c0.41938,0.01466 0.83605,0.02933 1.25001,0.04399c0.41126,0.01466 0.77923,0.022 1.10391,0.022c0.32468,0 0.54789,0 0.66965,0c0.20292,-0.01466 0.33821,-0.05866 0.40585,-0.13198c0.06764,-0.07332 0.10146,-0.20529 0.10146,-0.39593zM321.40586,171.02771h4.76871v2.11161h-2.80035v17.48674h-1.96836v-19.59835M325.76872,171.02771h0.38556l0.30439,-0.08798l1.42047,0.90183c-0.29762,0.92383 -0.63583,1.89458 -1.01462,2.91226c-0.37879,1.02061 -0.74405,1.95617 -1.09579,2.80668c0.77111,0.87984 1.27166,1.71128 1.50164,2.49434c0.22998,0.78599 0.35173,1.50892 0.36526,2.1688c0,0.67454 -0.07711,1.24644 -0.23133,1.71568c-0.15693,0.46925 -0.39773,0.83584 -0.72241,1.09979c-0.16234,0.13198 -0.34768,0.23462 -0.55601,0.30794c-0.21104,0.07332 -0.42479,0.13198 -0.64124,0.17597c-0.21645,0.01466 -0.4532,0.02493 -0.71023,0.03079c-0.25704,0.0088 -0.51407,0.0132 -0.77111,0.0132c-0.01353,-0.29328 -0.06088,-0.63495 -0.14205,-1.02501c-0.08117,-0.38713 -0.20292,-0.72733 -0.36526,-1.02061c0.21645,0.01466 0.41938,0.02493 0.60877,0.03079c0.18939,0.0088 0.3585,0.0132 0.50731,0.0132c0.13528,-0.01466 0.2611,-0.03666 0.37744,-0.06599c0.11364,-0.02933 0.21104,-0.07332 0.29221,-0.13198c0.14881,-0.10265 0.25433,-0.27568 0.31656,-0.5191c0.05952,-0.24049 0.08929,-0.52937 0.08929,-0.86664c0,-0.55723 -0.12175,-1.19218 -0.36526,-1.90484c-0.24351,-0.70974 -0.73053,-1.46786 -1.46105,-2.27438c0.17587,-0.48391 0.35579,-1.00888 0.53978,-1.57491c0.18128,-0.5631 0.35715,-1.12326 0.5276,-1.68049c0.16775,-0.55723 0.32603,-1.08953 0.47484,-1.5969c0.14881,-0.50444 0.27056,-0.93263 0.36526,-1.28456v-0.63788M328.69082,173.2053h9.78093v2.17759h-9.78093v-2.17759M327.87913,178.5503h11.70871v2.24358h-11.70871v-2.24358M332.66813,170.27984h2.17129v17.94865h-2.17129v-17.94865M336.97012,182.44358h2.06982v8.11649h-2.06982v-8.11649M328.44731,182.44358h2.11041v4.99307h7.71111v2.1336h-9.82151zM341.45473,172.08351h17.97905v2.19959h-17.97905v-2.19959M345.83789,181.36578h9.23304v1.84766h-9.23304v-1.84766M345.41175,184.88512h10.08532v1.91364h-10.08532v-1.91364M349.34847,182.26761h2.06982v7.85254h-2.06982v-7.85254M342.30701,176.13075h14.69169v2.17759h-12.50011v12.3397h-2.19158v-14.51729M356.36964,176.13075h2.23216v12.07575c0,0.60122 -0.07711,1.05874 -0.23133,1.37254c-0.15693,0.31674 -0.43155,0.55576 -0.82387,0.71707c-0.39232,0.1613 -0.8861,0.25955 -1.48134,0.29475c-0.59524,0.03813 -1.29871,0.05719 -2.11041,0.05719c-0.05411,-0.29328 -0.15152,-0.63495 -0.29221,-1.02501c-0.1434,-0.38713 -0.28951,-0.72 -0.43832,-0.99861c0.36526,0.01466 0.73053,0.02933 1.09579,0.04399c0.36526,0.01466 0.694,0.0176 0.98621,0.0088c0.28951,-0.00587 0.48161,-0.0088 0.5763,-0.0088c0.18939,-0.01466 0.31791,-0.05572 0.38556,-0.12318c0.06764,-0.06452 0.10146,-0.17743 0.10146,-0.33874v-12.07575M346.69017,178.92423l1.72485,-0.5499c0.24351,0.3666 0.47755,0.77719 0.70212,1.23177c0.22186,0.45458 0.38691,0.85784 0.49513,1.20977l-1.82631,0.65988c-0.08117,-0.35193 -0.22998,-0.76986 -0.44643,-1.25377c-0.21645,-0.48391 -0.4329,-0.9165 -0.64936,-1.29776M352.53438,178.39633l1.84661,0.57189c-0.27056,0.5279 -0.54113,1.04847 -0.8117,1.56171c-0.27056,0.51324 -0.53437,0.96049 -0.7914,1.34175l-1.54222,-0.50591c0.16234,-0.27862 0.32197,-0.59389 0.4789,-0.94582c0.15422,-0.35193 0.30574,-0.70387 0.45455,-1.0558c0.14881,-0.35193 0.27056,-0.67454 0.36526,-0.96782M349.2673,170.25785h2.3945v7.39062h-2.3945zM373.04998,171.22567h5.29631v2.1336h-3.36854v17.24479h-1.92778v-19.37839M377.89986,171.22567h0.40585l0.32468,-0.08798l1.50164,1.01181c-0.33821,1.0558 -0.717,2.17319 -1.13637,3.35218c-0.41938,1.18191 -0.82522,2.25678 -1.21754,3.2246c0.83875,1.01181 1.38394,1.95324 1.63557,2.82427c0.24892,0.87397 0.37338,1.67755 0.37338,2.41075c0,0.74786 -0.07711,1.38574 -0.23133,1.91364c-0.15693,0.5279 -0.41802,0.93116 -0.78329,1.20977c-0.17587,0.13198 -0.37879,0.23756 -0.60877,0.31674c-0.22998,0.08212 -0.47349,0.14517 -0.73053,0.18916c-0.22998,0.02933 -0.48702,0.04692 -0.77111,0.05279c-0.28409,0.0088 -0.56819,0.00587 -0.85228,-0.0088c-0.01353,-0.30794 -0.06088,-0.67454 -0.14205,-1.09979c-0.08117,-0.42525 -0.20969,-0.79185 -0.38556,-1.09979c0.25704,0.02933 0.49108,0.04692 0.70212,0.05279c0.20834,0.0088 0.40044,0.00587 0.5763,-0.0088c0.13528,0 0.27056,-0.01906 0.40585,-0.05719c0.13528,-0.03519 0.25027,-0.08945 0.34497,-0.16277c0.17587,-0.11731 0.30168,-0.31234 0.37744,-0.58509c0.07305,-0.26982 0.10958,-0.59536 0.10958,-0.97662c0,-0.63055 -0.14205,-1.34175 -0.42614,-2.1336c-0.28409,-0.79185 -0.83199,-1.64236 -1.64368,-2.55152c0.20292,-0.55723 0.40991,-1.15552 0.62095,-1.79487c0.20834,-0.63641 0.41126,-1.28163 0.60877,-1.93564c0.19481,-0.65108 0.37338,-1.26256 0.53572,-1.83446c0.16234,-0.57189 0.29762,-1.0558 0.40585,-1.45173v-0.76986M362.03121,172.63341h9.76064v2.11161h-9.76064v-2.11161M361.50361,178.5503h10.73467v2.1336h-10.73467v-2.1336M363.127,175.22892l1.8669,-0.50591c0.28409,0.5279 0.53842,1.11006 0.76299,1.74647c0.22186,0.63935 0.38014,1.19364 0.47484,1.66289l-1.94807,0.59389c-0.08117,-0.48391 -0.22998,-1.05287 -0.44643,-1.70688c-0.21645,-0.65108 -0.4532,-1.2479 -0.71023,-1.79047M368.86975,174.65703l2.15099,0.50591c-0.18939,0.49857 -0.38556,1.00448 -0.58848,1.51772c-0.20292,0.51324 -0.39908,1.00448 -0.58848,1.47373c-0.18939,0.46925 -0.37879,0.88717 -0.56819,1.25377l-1.82631,-0.48391c0.17587,-0.39593 0.35579,-0.84318 0.53978,-1.34175c0.18128,-0.49857 0.35038,-1.00448 0.50731,-1.51772c0.15422,-0.51324 0.27868,-0.98248 0.37338,-1.40774M363.63431,187.54663h6.6559v2.06761h-6.6559v-2.06761M362.49794,182.39959h8.90836v8.09449h-2.15099v-5.98288h-4.70783v6.11486h-2.04953v-8.22647M365.27799,170.58779l1.96836,-0.59389c0.21645,0.46925 0.4302,0.98248 0.64124,1.53971c0.20834,0.55723 0.35985,1.03381 0.45455,1.42973l-2.09012,0.70387c-0.08117,-0.39593 -0.21239,-0.88424 -0.39367,-1.46493c-0.18398,-0.57776 -0.37744,-1.11592 -0.58036,-1.6145z"/></g></g></svg>