<svg version="1.1" xmlns="http://www.w3.org/2000/svg" xmlns:xlink="http://www.w3.org/1999/xlink" width="480" height="40" viewBox="0,0,480,40"><g transform="translate(0,-160)"><g stroke-miterlimit="10"><path d="M0,200v-40h480v40z" fill="none" fill-rule="nonzero" stroke="#000000" stroke-width="0" stroke-linecap="butt"/><path d="M270.69758,181.20752h9.10983l-0.26794,6.05949c-0.0687,0.82442 -0.2645,1.3912 -0.5874,1.70036c-0.3229,0.30916 -0.89656,0.46373 -1.72098,0.46373h-2.39081l-0.22672,-1.33968h2.10227c0.56336,0 0.95151,-0.09275 1.16449,-0.27824c0.21298,-0.18549 0.34007,-0.5393 0.38129,-1.06144c0,-0.2748 0.02061,-0.80381 0.06183,-1.58701c0.05496,-1.40152 0.08244,-2.28776 0.08244,-2.65875h-8.82129c-0.76946,0.81068 -1.55265,1.51143 -2.34959,2.10227l-0.7832,-1.1748c0.60458,-0.41221 1.24007,-0.96183 1.90647,-1.64884c0.66641,-0.68701 1.28815,-1.4496 1.86525,-2.28776h-2.32898v-7.37855c0.7832,-0.08244 1.68318,-0.21298 2.69997,-0.3916c1.01679,-0.17863 1.83433,-0.36412 2.45265,-0.55648l0.30916,1.23663c-0.54962,0.17863 -1.21258,0.34351 -1.98891,0.49465c-0.77633,0.15115 -1.48052,0.26794 -2.11257,0.35038v1.75189h3.77171v1.25723h-3.77171v1.93738h8.69762v-1.93738h-3.81293v-1.25723h3.81293v-1.93738h-3.89538v-1.29846h5.25567v7.72893h-7.44039c-0.31602,0.52213 -0.70763,1.09236 -1.1748,1.71067zM332.57024,187.69982h9.66631l-0.26794,1.42212h-9.54265c-1.66258,0 -2.99195,-0.24389 -3.98813,-0.73167c-0.99617,-0.48778 -1.74158,-1.29503 -2.23624,-2.42173c-0.21984,1.16792 -0.61144,2.43203 -1.1748,3.79233l-1.15418,-0.86564c0.53588,-1.26411 0.90686,-2.45952 1.11296,-3.58622c0.20611,-1.1267 0.30916,-2.67937 0.30916,-4.65797l1.27785,0.02061c0,1.18167 -0.01374,2.0267 -0.04122,2.53508c0.20611,0.8519 0.45687,1.55953 0.75228,2.12287c0.29542,0.56336 0.64923,1.01679 1.06144,1.36029v-7.37855h-4.10149v-1.3809h3.64806v-2.90608h-3.00913v-1.3809h3.00913v-2.59692h1.42212v2.59692h2.69997v1.3809h-2.69997v2.90608h3.00913v1.3809h-2.61753v2.98852h2.30837v1.40152h-2.30837v3.68928c0.71449,0.20611 1.66945,0.30916 2.86486,0.30916zM301.03621,183.90749h-10.24341c-1.04426,1.15418 -2.32211,2.34959 -3.83355,3.58622l9.2541,-0.35038l-2.26716,-2.14349l1.00991,-1.00991c0.59084,0.53588 1.15762,1.05801 1.70036,1.56639c0.54274,0.50839 1.02022,0.95495 1.43242,1.33968c1.48395,1.40152 2.09539,1.97174 1.83433,1.71067l-1.07174,1.1748c-0.23358,-0.24732 -0.65953,-0.68015 -1.27785,-1.29846l-12.73728,0.55648l-0.3916,-1.46334c1.62136,-1.15418 3.04348,-2.37707 4.26637,-3.66866h-5.9152v-1.40152h2.72059v-10.71744h12.73728v10.71744h2.78242zM336.05341,180.30066l0.43282,1.36029l-3.31829,2.88547l-0.70075,-1.07174c0.16489,-0.16489 0.28168,-0.3229 0.35038,-0.47404c0.0687,-0.15115 0.10305,-0.36412 0.10305,-0.63893v-8.05869h3.62744c-0.05496,-1.36029 -0.08931,-2.45952 -0.10305,-3.29768h1.36029c0.01374,1.09922 0.05496,2.19845 0.12367,3.29768h4.18393v1.3809h-4.10149c0.16489,2.01983 0.35725,3.68928 0.5771,5.00835c0.60458,-1.07174 1.16792,-2.35647 1.69006,-3.85416l1.13358,0.41221c-0.74197,2.10227 -1.57327,3.83355 -2.49387,5.19384c0.09618,0.39847 0.19923,0.77633 0.30916,1.13358c0.31602,0.82442 0.61832,1.23663 0.90686,1.23663c0.21984,0 0.39847,-0.35725 0.53588,-1.07174c0.04122,-0.24732 0.09275,-0.56678 0.15457,-0.95839c0.06183,-0.3916 0.10649,-0.75228 0.13397,-1.08205l1.25723,0.41221c-0.10993,0.75572 -0.24732,1.57327 -0.41221,2.45265c-0.17863,0.68701 -0.3916,1.17823 -0.63893,1.47365c-0.24732,0.29542 -0.58396,0.44313 -1.00991,0.44313c-0.42595,0 -0.82442,-0.18206 -1.19541,-0.54618c-0.37099,-0.36412 -0.72823,-1.03396 -1.07174,-2.00952l-0.02061,-0.06183c-0.89312,1.03053 -1.95112,2.07479 -3.17401,3.1328l-0.90686,-1.03053c0.82442,-0.68701 1.52861,-1.31563 2.11257,-1.88586c0.58396,-0.57022 1.10266,-1.14388 1.55609,-1.72098c-0.39847,-1.75876 -0.67327,-3.9847 -0.82442,-6.67779h-2.34959v6.20376zM250.8703,181.22814v1.40152h-3.60683v4.84346c0,0.50839 -0.06183,0.89656 -0.18549,1.16449c-0.12367,0.26794 -0.34007,0.4603 -0.64923,0.5771c-0.30916,0.11679 -0.75915,0.17519 -1.34999,0.17519h-1.21602l-0.28854,-1.48395h1.09236c0.39847,0 0.67671,-0.02748 0.83472,-0.08244c0.15801,-0.05496 0.25763,-0.15115 0.29886,-0.28854c0.04122,-0.13741 0.06183,-0.38473 0.06183,-0.74197v-4.16332h-3.87477v-1.40152h3.87477v-2.22593h-4.26637v-1.36029h2.53508c-0.02748,-0.13741 -0.19237,-1.05113 -0.49465,-2.74119l-0.12367,-0.5771h-1.29846v-1.33968h3.68928l-0.63893,-1.99922l1.48395,-0.24732c0.24732,0.68701 0.47404,1.43586 0.68015,2.24654h3.31829v1.33968h-1.15418c-0.17863,0.89312 -0.44656,1.99922 -0.80381,3.31829h2.43203v1.36029h-3.95722v2.22593zM253.57028,178.05412h6.24498v1.48395h-2.22593v10.09914h-1.42212v-10.09914h-2.59692v0.04122c0,1.7725 -0.0584,3.21867 -0.17519,4.33851c-0.11679,1.11984 -0.32634,2.12287 -0.62862,3.00913c-0.30228,0.88625 -0.74197,1.81029 -1.31907,2.77211l-1.48395,-0.74197c0.5771,-0.86564 1.01335,-1.7141 1.30877,-2.5454c0.29542,-0.83129 0.50152,-1.78968 0.61832,-2.87516c0.11679,-1.08548 0.17519,-2.50074 0.17519,-4.24576v-6.34803c1.20915,-0.10993 2.43547,-0.29886 3.67897,-0.56678c1.2435,-0.26794 2.29807,-0.56678 3.16371,-0.89656l0.47404,1.46334c-0.72823,0.30228 -1.62479,0.58052 -2.68967,0.83472c-1.06488,0.2542 -2.10571,0.43625 -3.12248,0.54618zM311.69182,170.86107h1.58701v4.03965h7.0694v8.49152h-7.0694v6.34803h-1.58701v-6.34803h-7.00756v-8.49152h7.00756zM296.76984,182.50599v-2.26716h-9.74875v2.26716zM287.02108,176.71444v2.18471h9.74875v-2.18471zM287.02108,175.41597h9.74875v-2.1641h-9.74875zM318.7406,176.50833h-5.46177v5.29689h5.46177zM311.69182,176.50833h-5.39994v5.29689h5.39994zM265.0297,181.53729l0.68015,0.20611l0.72137,0.20611c-1.25037,3.9847 -2.01983,6.48543 -2.30837,7.50221l-1.42212,-0.47404c0.21984,-0.61832 0.62518,-1.87212 1.21602,-3.76141c0.59084,-1.88929 0.96183,-3.11562 1.11296,-3.67897zM243.55358,183.35101l1.21602,0.49465c-0.64579,1.69006 -1.3809,3.14653 -2.20532,4.36943l-1.13358,-0.70075c0.41221,-0.56336 0.7832,-1.18167 1.11296,-1.85495c0.32977,-0.67327 0.66641,-1.44274 1.00991,-2.30837zM248.27338,174.32363h-3.46256c0.32977,1.53891 0.54962,2.64501 0.65953,3.31829h1.958c0.24732,-0.8519 0.529,-1.958 0.84502,-3.31829zM266.63732,179.06403l-0.94808,1.21602c-0.49465,-0.48091 -1.07518,-1.02365 -1.74158,-1.62823c-0.66641,-0.60458 -1.21945,-1.07862 -1.65914,-1.42212l0.90686,-1.13358c0.96183,0.76946 2.10913,1.75876 3.44195,2.96791zM268.20372,188.42119l-1.3809,-0.5977c0.28854,-0.46717 0.59084,-1.08205 0.90686,-1.84463c0.31602,-0.76259 0.58396,-1.45991 0.80381,-2.09197l1.29846,0.45343c-0.21984,0.65953 -0.48091,1.37746 -0.7832,2.15379c-0.30228,0.77633 -0.58396,1.41868 -0.84502,1.92708zM267.04953,174.0763l-0.90686,1.1748c-0.75572,-0.70075 -1.85495,-1.62823 -3.29768,-2.78242l0.90686,-1.15418c0.83816,0.63205 1.93738,1.55265 3.29768,2.7618zM270.5327,184.44337l1.29846,-0.28854c0.12367,0.39847 0.2645,0.96525 0.42251,1.70036c0.15801,0.73511 0.27138,1.33625 0.34007,1.80341l-1.33968,0.22672c-0.24732,-1.47022 -0.48778,-2.61753 -0.72137,-3.44195zM247.84056,184.17543l1.03053,-0.76259c0.50839,0.68701 1.1748,1.64197 1.99922,2.86486l-1.07174,0.82442c-0.72823,-1.14044 -1.3809,-2.11601 -1.958,-2.92669zM273.02656,184.2991l1.1748,-0.43282c0.20611,0.45343 0.40877,0.99617 0.60801,1.62823c0.19923,0.63205 0.31946,1.00305 0.36068,1.11296c0.02748,0.09618 0.05496,0.17863 0.08244,0.24732c0.02748,0.0687 0.04809,0.13741 0.06183,0.20611l-1.23663,0.41221c-0.37099,-1.27785 -0.72137,-2.33585 -1.05113,-3.17401zM275.41739,184.07238l1.13358,-0.53588c0.21984,0.41221 0.46717,0.91373 0.74197,1.50457c0.2748,0.59084 0.46717,1.02365 0.5771,1.29846l-1.1748,0.53588c-0.16489,-0.39847 -0.38129,-0.89312 -0.64923,-1.48395c-0.26794,-0.59084 -0.47747,-1.03053 -0.62862,-1.31907zM341.37091,173.087l-0.94808,0.90686c-0.72823,-0.86564 -1.36029,-1.56639 -1.89616,-2.10227l0.86564,-0.86564c0.30228,0.30228 0.63893,0.64236 1.00991,1.02022c0.37099,0.37786 0.69389,0.7248 0.96869,1.04083z" fill="#ffffff" fill-rule="evenodd" stroke="#ffffff" stroke-width="0.5" stroke-linecap="round"/></g></g></svg>