<svg version="1.1" xmlns="http://www.w3.org/2000/svg" xmlns:xlink="http://www.w3.org/1999/xlink" width="224" height="385.13103" viewBox="0,0,224,385.13103"><g transform="translate(-128,-144.0052)"><g stroke="none" stroke-miterlimit="10"><path d="M352,514.42802c0,7.54464 -6.7618,13.61849 -12.30179,13.61849l-199.01279,1.08972c-5.53999,0 -12.68542,-7.16357 -12.68542,-14.7082v-370.42283h224z" fill="#1d2a41" fill-rule="evenodd"/><path d="M142.13365,193.33326h14.67361v1.61769h-14.67361v-1.61769M142.62387,184.93433h13.77489v1.60135h-13.77489v-1.60135M146.08801,187.74487h6.74855v1.47063h-6.74855v-1.47063M146.08801,190.50638h6.74855v1.47063h-6.74855v-1.47063M144.99321,183.25128h1.73208v10.91534h-1.73208v-10.91534M152.15027,183.25128h1.78109v10.91534h-1.78109v-10.91534M150.40186,196.20915l1.24186,-1.07846c0.63183,0.20698 1.2691,0.43792 1.91182,0.69283c0.64272,0.25709 1.25276,0.51308 1.83012,0.76799c0.57736,0.25709 1.07302,0.49457 1.48697,0.71244l-1.66672,1.11114c-0.34859,-0.21787 -0.78433,-0.45535 -1.30722,-0.71243c-0.52289,-0.25491 -1.08391,-0.51091 -1.68305,-0.768c-0.59915,-0.25491 -1.20374,-0.49675 -1.81378,-0.72551M147.05209,194.98363l1.48697,1.14382c-0.49021,0.28323 -1.04796,0.56864 -1.67325,0.85624c-0.62747,0.28977 -1.26801,0.56211 -1.92162,0.81701c-0.65361,0.25709 -1.27455,0.47278 -1.8628,0.64708c-0.13072,-0.18519 -0.3072,-0.40633 -0.52942,-0.66342c-0.22441,-0.25491 -0.42921,-0.46951 -0.6144,-0.64381c0.58825,-0.1634 1.20374,-0.36493 1.84646,-0.60459c0.64272,-0.23966 1.25275,-0.49566 1.83011,-0.768c0.57736,-0.27234 1.05668,-0.53378 1.43795,-0.78433zM167.62455,183.28396h1.65037v11.37286h-1.65037v-11.37286M162.05251,189.77107l9.73883,-3.79095l0.66995,1.51965l-9.73883,3.82364l-0.66995,-1.55233M164.06237,184.99969h1.73207v10.52317c0,0.32681 0.03051,0.56864 0.09151,0.72551c0.05883,0.15904 0.18084,0.26798 0.36602,0.3268c0.18519,0.061 0.46298,0.09151 0.83336,0.09151c0.09804,0 0.26362,0 0.49675,0c0.2353,0 0.50002,0 0.79414,0c0.29412,0 0.59369,0 0.89872,0c0.30502,0 0.57735,0 0.81701,0c0.23966,0 0.4194,0 0.53923,0c0.32681,0 0.57518,-0.05991 0.74512,-0.17974c0.16776,-0.11983 0.28977,-0.34642 0.36602,-0.67976c0.07626,-0.33116 0.13617,-0.81266 0.17974,-1.44448c0.20698,0.14161 0.46298,0.27778 0.768,0.40851c0.30502,0.13072 0.5828,0.22877 0.83336,0.29412c-0.08715,0.79523 -0.22114,1.42379 -0.40197,1.88567c-0.17865,0.46406 -0.45099,0.79414 -0.81701,0.99022c-0.36385,0.19608 -0.87802,0.29412 -1.54253,0.29412c-0.10894,0 -0.29086,0 -0.54576,0c-0.25709,0 -0.55231,0 -0.88565,0c-0.33116,0 -0.65797,0 -0.98042,0c-0.32027,0 -0.60895,0 -0.86604,0c-0.25491,0 -0.43139,0 -0.52943,0c-0.75166,0 -1.33773,-0.07626 -1.75822,-0.22877c-0.41831,-0.15251 -0.71243,-0.42811 -0.88237,-0.82682c-0.16776,-0.39652 -0.25164,-0.94883 -0.25164,-1.65691v-10.52317M171.20308,186.29058h-0.13072l0.32681,-0.2451l0.31047,-0.22877l1.19284,0.47387l-0.06536,0.27779c0,0.95863 -0.00544,1.8214 -0.01634,2.58831c-0.0109,0.76908 -0.02724,1.41507 -0.04902,1.93796c-0.02179,0.52289 -0.04902,0.90416 -0.0817,1.14382c-0.04357,0.40306 -0.14706,0.71026 -0.31047,0.92159c-0.1634,0.21351 -0.37583,0.37474 -0.63727,0.48367c-0.23966,0.09804 -0.53052,0.15796 -0.87258,0.17974c-0.34424,0.02179 -0.65252,0.02724 -0.92486,0.01634c-0.0109,-0.23966 -0.05447,-0.52071 -0.13072,-0.84316c-0.07626,-0.32027 -0.1634,-0.573 -0.26144,-0.75819c0.19608,0.0109 0.40088,0.01634 0.61439,0.01634c0.21134,0 0.36602,0 0.46406,0c0.11983,0 0.2146,-0.02506 0.28432,-0.07517c0.0719,-0.04793 0.12964,-0.15904 0.17321,-0.33334c0.02179,-0.14161 0.0414,-0.43356 0.05883,-0.87584c0.01525,-0.4401 0.02832,-1.05014 0.03922,-1.83012c0.0109,-0.7778 0.01634,-1.72772 0.01634,-2.84975M161.70936,183.28396l1.61769,0.50655c-0.34859,0.91506 -0.76255,1.83229 -1.24186,2.75171c-0.47932,0.92159 -0.99676,1.78763 -1.55233,2.59811c-0.55557,0.81266 -1.12749,1.52945 -1.71573,2.15039c-0.05447,-0.13072 -0.13616,-0.30828 -0.2451,-0.53269c-0.10894,-0.22223 -0.22659,-0.44773 -0.35296,-0.67649c-0.12419,-0.22877 -0.2353,-0.41395 -0.33334,-0.55557c0.51199,-0.5011 1.00439,-1.08718 1.47717,-1.75822c0.47496,-0.66886 0.91397,-1.38457 1.31703,-2.14712c0.40306,-0.76255 0.7462,-1.54144 1.02944,-2.33667M160.0263,187.71219l1.71573,-1.71573l0.01634,0.01634v12.43498h-1.73207zM175.71301,184.50949l1.12748,-1.06212c0.29412,0.23966 0.61004,0.50873 0.94774,0.80721c0.3377,0.30066 0.65361,0.59479 0.94774,0.88238c0.29412,0.28977 0.53379,0.55448 0.71897,0.79414l-1.19284,1.20918c-0.1743,-0.23966 -0.40306,-0.51526 -0.68629,-0.82682c-0.28323,-0.30938 -0.58825,-0.62202 -0.91506,-0.93794c-0.32681,-0.31591 -0.64272,-0.60459 -0.94774,-0.86604M176.72611,198.21901l-0.39217,-1.55233l0.32681,-0.57191l3.2027,-2.58177c0.06536,0.22877 0.1634,0.48694 0.29412,0.77453c0.13072,0.28977 0.25055,0.51636 0.35949,0.67976c-0.75166,0.61004 -1.3617,1.10788 -1.83012,1.49351c-0.46842,0.38781 -0.83336,0.69283 -1.0948,0.91506c-0.26145,0.22441 -0.45426,0.3987 -0.57845,0.52289c-0.12637,0.12637 -0.22223,0.23312 -0.28759,0.32027M174.58553,188.2841h2.94126v1.68305h-2.94126v-1.68305M182.18378,183.77417h4.39554v1.61769h-4.39554v-1.61769M180.22294,190.35932h7.50021v1.63403h-7.50021v-1.63403M187.18392,190.35932h0.31047l0.31047,-0.06536l1.06212,0.45753c-0.3377,1.13293 -0.78979,2.12424 -1.35625,2.97394c-0.56646,0.8497 -1.23424,1.58174 -2.00332,2.19614c-0.7669,0.61657 -1.61007,1.13184 -2.52948,1.54579c-0.92159,0.41395 -1.90528,0.74621 -2.95106,0.99676c-0.07626,-0.22877 -0.19391,-0.49565 -0.35295,-0.80067c-0.15687,-0.30502 -0.31155,-0.55013 -0.46406,-0.73532c0.94774,-0.18519 1.84646,-0.4499 2.69616,-0.79413c0.8497,-0.34205 1.62314,-0.77235 2.32033,-1.29089c0.69719,-0.51636 1.2996,-1.12639 1.80724,-1.83012c0.50546,-0.70154 0.88891,-1.5044 1.15036,-2.40856v-0.2451M182.21646,191.68289c0.43574,0.88238 1.01528,1.67761 1.73861,2.38569c0.72551,0.70808 1.5861,1.30395 2.58177,1.78763c0.99785,0.48585 2.10136,0.8486 3.31055,1.08826c-0.11983,0.11983 -0.24728,0.27234 -0.38236,0.45753c-0.13726,0.18519 -0.2658,0.37256 -0.38563,0.56211c-0.11983,0.19173 -0.21787,0.3693 -0.29413,0.5327c-1.90637,-0.45753 -3.52406,-1.22008 -4.85307,-2.28765c-1.32901,-1.06757 -2.38568,-2.41292 -3.17002,-4.03605l1.45429,-0.49021M181.74259,183.77417h1.65037v1.83012c0,0.53379 -0.07625,1.07846 -0.22876,1.63403c-0.15251,0.55557 -0.43248,1.08391 -0.83989,1.58501c-0.4096,0.5011 -1.00656,0.9314 -1.7909,1.29089c-0.07626,-0.10894 -0.18519,-0.24837 -0.32681,-0.41831c-0.14161,-0.16776 -0.28868,-0.33335 -0.44119,-0.49675c-0.15251,-0.1634 -0.28323,-0.28323 -0.39217,-0.35949c0.69719,-0.30502 1.21463,-0.64054 1.55233,-1.00656c0.3377,-0.36385 0.55884,-0.73967 0.66342,-1.12748c0.1024,-0.38563 0.1536,-0.76908 0.1536,-1.15036v-1.78109M185.77865,183.77417h1.65037v3.62755c0,0.23966 0.01634,0.40851 0.04902,0.50655c0.03268,0.09804 0.11438,0.14706 0.2451,0.14706c0.05447,0 0.14162,0 0.26145,0c0.11983,0 0.24293,0 0.36929,0c0.12419,0 0.21896,0 0.28432,0c0.13072,0 0.28105,-0.00872 0.45099,-0.02615c0.16776,-0.01525 0.30066,-0.03922 0.3987,-0.0719c0.02179,0.21787 0.04357,0.46516 0.06536,0.74185c0.02179,0.27888 0.04902,0.51636 0.0817,0.71244c-0.11983,0.05447 -0.26689,0.08715 -0.44119,0.09804c-0.1743,0.0109 -0.34859,0.01634 -0.52289,0.01634c-0.08715,0 -0.20371,0 -0.34968,0c-0.14815,0 -0.29304,0 -0.43465,0c-0.14161,0 -0.25055,0 -0.32681,0c-0.49021,0 -0.86277,-0.07081 -1.11768,-0.21242c-0.25709,-0.14161 -0.43248,-0.37365 -0.52616,-0.6961c-0.09151,-0.32027 -0.13726,-0.73096 -0.13726,-1.23206v-3.61121M176.72611,198.21901c-0.04357,-0.14161 -0.11765,-0.30502 -0.22223,-0.49021c-0.1024,-0.18519 -0.21678,-0.37039 -0.34314,-0.55557c-0.12419,-0.18519 -0.2353,-0.33225 -0.33335,-0.44119c0.11983,-0.07626 0.24293,-0.19063 0.36929,-0.34314c0.12419,-0.15251 0.22986,-0.33225 0.317,-0.53923c0.08715,-0.20698 0.13072,-0.43574 0.13072,-0.6863v-6.87928h1.68305v8.15382c0,0 -0.0817,0.0621 -0.2451,0.18628c-0.1634,0.12637 -0.34859,0.28215 -0.55557,0.46733c-0.20698,0.18519 -0.39217,0.38127 -0.55557,0.58825c-0.1634,0.20698 -0.2451,0.38672 -0.2451,0.53923zM201.10587,184.99969v1.0948h2.14058v-1.0948h-2.14058M197.41296,184.99969v1.0948h2.09156v-1.0948h-2.09156M193.76906,184.99969v1.0948h2.04254v-1.0948h-2.04254M192.10235,183.82319h12.90885v3.46415h-12.90885v-3.46415M191.39972,188.039h14.00365v1.30722h-14.00365v-1.30722M197.511,186.92785l1.81378,0.09804c-0.07626,0.57736 -0.1743,1.18958 -0.29413,1.83665c-0.11983,0.64926 -0.23421,1.2081 -0.34314,1.67652h-1.63403c0.06536,-0.31591 0.12855,-0.68085 0.18955,-1.0948c0.05883,-0.41395 0.11329,-0.84207 0.1634,-1.28435c0.04793,-0.4401 0.08279,-0.85078 0.10458,-1.23206M191.1873,196.78107h14.67361v1.24186h-14.67361v-1.24186M194.06319,191.84629h8.84012v0.91506h-8.84012v-0.91506M194.12855,193.48032h8.75841v0.89872h-8.75841v-0.89872M194.19391,195.1307h8.79109v0.91506h-8.79109v-0.91506M193.16447,190.08153h10.62121v7.38582h-1.73207v-6.30736h-7.22242v6.30736h-1.66671zM211.8578,188.85601h10.44146v1.51965h-10.44146v-1.51965M213.78596,185.3265h7.82701v1.48697h-7.82701v-1.48697M216.36773,183.3003h1.74842v6.1603h-1.74842v-6.1603M213.67158,183.72515l1.65037,0.35948c-0.22877,0.82791 -0.53923,1.62858 -0.9314,2.40203c-0.39217,0.77344 -0.80612,1.42161 -1.24186,1.9445c-0.09804,-0.08715 -0.23639,-0.19064 -0.41505,-0.31047c-0.18084,-0.11983 -0.36385,-0.23748 -0.54903,-0.35295c-0.18519,-0.11329 -0.34315,-0.20262 -0.47387,-0.26798c0.43574,-0.45753 0.82573,-1.02399 1.16997,-1.69939c0.34205,-0.6754 0.60568,-1.36714 0.79087,-2.07522M217.62593,189.72205h1.71573v3.79095c0,0.21787 0.02179,0.35404 0.06536,0.40851c0.04357,0.05447 0.14161,0.0817 0.29412,0.0817c0.03268,0 0.08715,0 0.16341,0c0.07626,0 0.16122,0 0.25491,0c0.09151,0 0.17865,0 0.26144,0c0.08061,0 0.13726,0 0.16994,0c0.09804,0 0.1743,-0.03813 0.22877,-0.11438c0.05447,-0.07626 0.09804,-0.24293 0.13072,-0.50001c0.03268,-0.25491 0.05446,-0.63837 0.06536,-1.15036c0.10894,0.08715 0.25382,0.17647 0.43466,0.26798c0.17865,0.09368 0.36602,0.17321 0.56211,0.23857c0.19608,0.06536 0.37583,0.11983 0.53923,0.16341c-0.06536,0.71897 -0.16014,1.27455 -0.28432,1.66671c-0.12637,0.39217 -0.30937,0.6645 -0.54903,0.81701c-0.23966,0.15251 -0.55012,0.22877 -0.9314,0.22877c-0.07626,0 -0.1743,0 -0.29413,0c-0.11983,0 -0.24728,0 -0.38236,0c-0.13726,0 -0.2658,0 -0.38563,0c-0.11983,0 -0.21243,0 -0.27779,0c-0.49021,0 -0.86277,-0.06536 -1.11768,-0.19608c-0.25709,-0.13072 -0.43138,-0.34859 -0.52289,-0.65361c-0.09368,-0.30502 -0.14053,-0.72442 -0.14053,-1.2582v-3.79095M214.70101,189.68937h1.76475c-0.06536,0.68629 -0.16558,1.32901 -0.30066,1.92816c-0.13726,0.59915 -0.34424,1.15472 -0.62093,1.66671c-0.27888,0.51199 -0.66015,0.97498 -1.14382,1.38893c-0.48585,0.41395 -1.10461,0.77344 -1.85626,1.07846c-0.06536,-0.15251 -0.15796,-0.31918 -0.27778,-0.50002c-0.11983,-0.17865 -0.24728,-0.35295 -0.38236,-0.52289c-0.13726,-0.16776 -0.27125,-0.30611 -0.40197,-0.41505c0.64272,-0.23966 1.16561,-0.51526 1.56867,-0.82682c0.40306,-0.30938 0.7168,-0.65797 0.94121,-1.04578c0.22223,-0.38563 0.38236,-0.81048 0.48041,-1.27455c0.09804,-0.46189 0.1743,-0.95428 0.22877,-1.47717M207.46225,184.68923l1.32357,-0.98042c0.31591,0.25055 0.64054,0.52834 0.97388,0.83336c0.33116,0.30502 0.63836,0.61222 0.92159,0.92159c0.28323,0.31155 0.51199,0.59805 0.68629,0.8595l-1.43795,1.0948c-0.15251,-0.26145 -0.36493,-0.55557 -0.63727,-0.88238c-0.27234,-0.32681 -0.56864,-0.65143 -0.88891,-0.97388c-0.32245,-0.32027 -0.63618,-0.61113 -0.94121,-0.87258M211.0081,189.50962v6.242h-1.68305v-4.60797h-1.8628v-1.63403h3.54585M210.8447,195.08167c0.25055,0 0.49893,0.08933 0.74512,0.26798c0.24401,0.18084 0.573,0.39652 0.98695,0.64708c0.51199,0.30502 1.11659,0.50111 1.81378,0.58825c0.69719,0.08715 1.47063,0.13072 2.32033,0.13072c0.56646,0 1.19829,-0.01634 1.89548,-0.04902c0.69719,-0.03268 1.3922,-0.07407 2.08503,-0.12419c0.69065,-0.04793 1.30287,-0.10458 1.83665,-0.16994c-0.06536,0.14161 -0.1329,0.3268 -0.20262,0.55557c-0.0719,0.22877 -0.13508,0.45427 -0.18955,0.67649c-0.05447,0.22441 -0.08715,0.41286 -0.09804,0.56537c-0.30502,0.02179 -0.67758,0.04357 -1.11768,0.06536c-0.44228,0.02179 -0.91614,0.04031 -1.42161,0.05556c-0.50764,0.01743 -1.00656,0.03159 -1.49677,0.04248c-0.49021,0.0109 -0.93685,0.01634 -1.33991,0.01634c-0.95863,0 -1.78327,-0.05991 -2.47392,-0.17974c-0.69283,-0.11983 -1.31158,-0.33225 -1.85626,-0.63727c-0.32681,-0.20698 -0.61548,-0.40633 -0.86603,-0.59806c-0.25055,-0.18955 -0.46843,-0.28432 -0.65361,-0.28432c-0.20698,0 -0.43792,0.08933 -0.69283,0.26798c-0.25709,0.18084 -0.5327,0.42049 -0.82682,0.71897c-0.29412,0.30066 -0.58825,0.61984 -0.88238,0.95755l-1.16016,-1.51965c0.40306,-0.37038 0.81702,-0.70808 1.24187,-1.0131c0.42485,-0.30502 0.8388,-0.54468 1.24186,-0.71897c0.40306,-0.1743 0.77344,-0.26145 1.11114,-0.26145zM223.63917,185.03238h5.37596v1.66671h-5.37596v-1.66671M225.56733,185.75135h1.74841v8.15382h-1.74841v-8.15382M223.36138,193.75811c0.45753,-0.11983 0.99458,-0.26145 1.61115,-0.42485c0.6144,-0.1634 1.27563,-0.34097 1.98372,-0.5327c0.70808,-0.18955 1.42161,-0.38236 2.14058,-0.57845l0.21242,1.47063c-0.95863,0.3377 -1.92271,0.67213 -2.89223,1.0033c-0.96952,0.33334 -1.84645,0.63618 -2.63079,0.90852l-0.42485,-1.84645M229.26024,183.87221h9.4447v1.56867h-9.4447v-1.56867M232.87145,184.59119l2.1079,0.27779c-0.22877,0.5011 -0.46842,0.99349 -0.71897,1.47716c-0.25055,0.48585 -0.47387,0.90308 -0.66995,1.25167l-1.58501,-0.32681c0.1743,-0.39217 0.34097,-0.8388 0.50002,-1.3399c0.15687,-0.5011 0.27888,-0.94774 0.36602,-1.33991M232.88779,189.08478h1.76475v3.38245c0,0.56646 -0.07626,1.12966 -0.22877,1.68959c-0.15251,0.56211 -0.42703,1.10461 -0.82355,1.6275c-0.3987,0.52289 -0.96299,1.01528 -1.69286,1.47717c-0.72987,0.46406 -1.67216,0.87584 -2.82687,1.23533c-0.06536,-0.13072 -0.16341,-0.27779 -0.29413,-0.44119c-0.13072,-0.1634 -0.26689,-0.32681 -0.40851,-0.49021c-0.14161,-0.1634 -0.27778,-0.30502 -0.40851,-0.42485c1.10025,-0.27234 1.97718,-0.59369 2.63079,-0.96407c0.65361,-0.37038 1.146,-0.76582 1.47717,-1.18631c0.33334,-0.41831 0.55121,-0.84533 0.65361,-1.28108c0.10458,-0.43574 0.15687,-0.85514 0.15687,-1.2582v-3.36611M234.2277,195.7843l1.0948,-1.04578c0.39217,0.22877 0.81157,0.49021 1.2582,0.78434c0.44663,0.29412 0.87693,0.59043 1.29088,0.88891c0.41395,0.30066 0.75166,0.57082 1.0131,0.81048l-1.1765,1.20918c-0.23966,-0.26145 -0.55557,-0.54795 -0.94774,-0.8595c-0.39217,-0.30938 -0.81157,-0.62202 -1.2582,-0.93794c-0.44663,-0.31591 -0.87148,-0.59915 -1.27455,-0.8497M229.75045,186.82981h8.07212v7.66361h-1.79744v-6.11128h-4.57529v6.17664h-1.69939z" fill="#ffffff" fill-rule="nonzero"/></g></g></svg>