<svg version="1.1" xmlns="http://www.w3.org/2000/svg" xmlns:xlink="http://www.w3.org/1999/xlink" width="208" height="32" viewBox="0,0,208,32"><g transform="translate(-240,-164)"><g stroke="none" stroke-miterlimit="10"><path d="M245.778,177.8654v1.63451h7.18484v-1.63451h-7.18484M243.88227,176.15213h11.07111v5.04136h-11.07111v-5.04136M242.74482,182.55229h13.4787v6.43954h-2.0474v-4.60811h-9.49765v4.6278h-1.93365v-6.45923M243.67374,186.54992h11.39338v1.81174h-11.39338v-1.81174M241.34198,172.6862h16.17064v4.43088h-2.12322v-2.36313h-12.01897v2.36313h-2.02844v-4.43088M247.61687,171.09108l2.08532,-0.63017c0.25277,0.44637 0.49668,0.93213 0.73175,1.45727c0.23254,0.52514 0.39937,0.98464 0.50047,1.37849l-2.21801,0.68924c-0.07583,-0.38073 -0.21738,-0.84678 -0.42464,-1.39818c-0.2098,-0.5514 -0.43476,-1.05029 -0.67489,-1.49666zM259.76854,174.0647h17.2133v2.06774h-17.2133v-2.06774M262.91547,186.0576h10.82466v2.00866h-10.82466v-2.00866M267.25671,170.63815h2.21801v10.37811h-2.21801v-10.37811M261.74011,179.85438h13.28911v9.07837h-2.21801v-7.05002h-8.96684v7.12879h-2.10426zM293.56953,179.16513h2.00949c0,0 -0.00253,0.05251 -0.00759,0.15754c-0.00759,0.10503 -0.01137,0.22319 -0.01137,0.35447c0,0.13128 -0.00632,0.24944 -0.01896,0.35447c-0.08847,1.75922 -0.18325,3.18629 -0.28436,4.28121c-0.10111,1.09754 -0.22117,1.94171 -0.36019,2.5325c-0.13902,0.59079 -0.30963,1.01089 -0.51185,1.26033c-0.21485,0.26257 -0.44613,0.44637 -0.69384,0.5514c-0.24518,0.10503 -0.53207,0.17723 -0.86066,0.21662c-0.27804,0.03939 -0.64076,0.05908 -1.08815,0.05908c-0.44992,0 -0.92133,-0.00656 -1.41422,-0.01969c-0.02528,-0.28883 -0.091,-0.61704 -0.19716,-0.98464c-0.10869,-0.3676 -0.23886,-0.67611 -0.39052,-0.92556c0.46762,0.03939 0.90363,0.0617 1.30805,0.06695c0.40443,0.00788 0.70143,0.01182 0.891,0.01182c0.1643,0 0.30078,-0.01313 0.40947,-0.03939c0.10616,-0.02625 0.2098,-0.09189 0.3109,-0.19692c0.13902,-0.15754 0.2654,-0.49889 0.37914,-1.02402c0.11374,-0.52514 0.21233,-1.29973 0.29574,-2.32375c0.08089,-1.02402 0.15924,-2.35657 0.23507,-3.99763v-0.33478M284.2046,181.64642h1.87678v4.6672h-1.87678v-4.6672M288.94394,182.41444h1.85782v5.49429h-1.85782v-5.49429M279.63587,182.45382h1.85782v3.15085h8.2275v1.75266h-10.08532v-4.9035M291.44631,172.31204h1.89574c0,0 0,0.0919 0,0.2757c0,0.1838 -0.00632,0.33478 -0.01896,0.45293c-0.06319,0.98464 -0.13017,1.80517 -0.20094,2.46159c-0.06824,0.65643 -0.14914,1.175 -0.24266,1.55573c-0.09605,0.38073 -0.22622,0.65643 -0.39052,0.8271c-0.15166,0.19693 -0.31975,0.3374 -0.50427,0.42142c-0.18199,0.08665 -0.39305,0.1431 -0.63317,0.16936c-0.20222,0.03939 -0.46508,0.06171 -0.78862,0.06696c-0.32101,0.00788 -0.66478,0.00525 -1.03129,-0.00788c-0.02528,-0.28883 -0.08215,-0.60785 -0.17061,-0.95707c-0.08847,-0.3466 -0.20221,-0.64461 -0.34123,-0.89405c0.29068,0.02625 0.55608,0.04595 0.7962,0.05908c0.24012,0.01313 0.42338,0.0197 0.54977,0.0197c0.11374,0 0.21485,-0.01313 0.30332,-0.03939c0.08847,-0.02625 0.1643,-0.07878 0.22749,-0.15754c0.12639,-0.14442 0.23381,-0.51201 0.32227,-1.10279c0.08847,-0.59079 0.16429,-1.55573 0.22749,-2.89484v-0.256M285.87285,170.57907l2.42655,0.21662c-0.20222,0.48576 -0.42971,0.95444 -0.68247,1.40606c-0.25277,0.45425 -0.48025,0.84548 -0.68246,1.17369l-1.80095,-0.33478c0.13902,-0.3676 0.28183,-0.78115 0.42844,-1.24065c0.14407,-0.4595 0.24771,-0.86648 0.3109,-1.22095M283.78754,176.05367l1.00474,-1.33911c0.44234,0.15754 0.91627,0.3479 1.4218,0.57109c0.50553,0.22319 0.98831,0.45294 1.44835,0.68925c0.46256,0.23631 0.8455,0.4595 1.14882,0.66956l-1.06161,1.47696c-0.27804,-0.21006 -0.64455,-0.4398 -1.09953,-0.68924c-0.45497,-0.24945 -0.9327,-0.49626 -1.43318,-0.74045c-0.49795,-0.24157 -0.97441,-0.45425 -1.42939,-0.63805M292.03399,172.31204v1.8905h-9.02371v4.96258h11.16589v1.85113h-13.15642v-8.70422zM306.27098,177.43216c0.4297,0 0.81769,0.10765 1.16398,0.32296c0.34882,0.21794 0.62812,0.50676 0.83792,0.86648c0.20727,0.36235 0.3109,0.76671 0.3109,1.21308c0,0.43324 -0.10363,0.83366 -0.3109,1.20126c-0.20979,0.3676 -0.4891,0.65905 -0.83792,0.87436c-0.34629,0.21794 -0.73428,0.3269 -1.16398,0.3269c-0.41706,0 -0.80253,-0.10896 -1.1564,-0.3269c-0.35387,-0.21531 -0.6357,-0.50676 -0.8455,-0.87436c-0.20727,-0.3676 -0.3109,-0.76802 -0.3109,-1.20126c0,-0.44637 0.10364,-0.85073 0.3109,-1.21308c0.20979,-0.35972 0.49163,-0.64855 0.8455,-0.86648c0.35387,-0.21531 0.73934,-0.32296 1.1564,-0.32296zM321.15252,172.48927l2.25592,0.17723c-0.13902,1.48352 -0.31849,2.9933 -0.53839,4.52934c-0.22244,1.53604 -0.53839,3.02875 -0.94786,4.47814c-0.41201,1.45201 -0.95672,2.80426 -1.63413,4.05672c-0.67488,1.25509 -1.53049,2.33557 -2.56683,3.24143c-0.10111,-0.15754 -0.24013,-0.34134 -0.41706,-0.5514c-0.17694,-0.21006 -0.36019,-0.41354 -0.54976,-0.61048c-0.18957,-0.19693 -0.36019,-0.36104 -0.51185,-0.49232c0.94787,-0.81397 1.7226,-1.78548 2.32418,-2.91454c0.59906,-1.12905 1.07299,-2.36051 1.4218,-3.69437c0.34629,-1.33123 0.60411,-2.69922 0.77346,-4.10397c0.17188,-1.40475 0.30205,-2.77668 0.39052,-4.11579M328.73546,172.01664c0.01264,0.19693 0.03791,0.59998 0.07583,1.20914c0.03791,0.61179 0.11627,1.36012 0.23507,2.24498c0.12133,0.88749 0.30206,1.85638 0.54218,2.90666c0.24012,1.05028 0.5624,2.12026 0.96682,3.20992c0.40443,1.08966 0.91249,2.13338 1.52418,3.13115c0.61422,0.99777 1.35734,1.89051 2.22938,2.67822c-0.36651,0.21006 -0.70395,0.44637 -1.01232,0.70894c-0.3109,0.26257 -0.56745,0.53171 -0.76967,0.80741c-0.89731,-0.85335 -1.66193,-1.8183 -2.29384,-2.89484c-0.63191,-1.07654 -1.15893,-2.20297 -1.58105,-3.37928c-0.42464,-1.17369 -0.75956,-2.33163 -1.00474,-3.47381c-0.24771,-1.14218 -0.43475,-2.1964 -0.56114,-3.16266c-0.12639,-0.96364 -0.21485,-1.78417 -0.2654,-2.4616c-0.05055,-0.6748 -0.08847,-1.13037 -0.11374,-1.36668zM335.61699,186.76654h17.19434v1.67389h-17.19434v-1.67389M335.71178,174.14347h16.96685v1.67389h-16.96685v-1.67389M337.01984,183.93078h14.55926v1.61481h-14.55926v-1.61481M343.0862,172.39081h2.0474v15.22252h-2.0474v-15.22252M349.94876,170.67754l0.96683,1.6345c-0.89731,0.15754 -1.88942,0.29539 -2.97631,0.41355c-1.08689,0.11816 -2.21801,0.21662 -3.39337,0.29539c-1.17536,0.07877 -2.35703,0.14442 -3.54503,0.19693c-1.188,0.05251 -2.33808,0.08533 -3.45024,0.09846c0,-0.24945 -0.04676,-0.5317 -0.14029,-0.84679c-0.09605,-0.31509 -0.18831,-0.57765 -0.27677,-0.78771c1.11217,-0.03939 2.2534,-0.08533 3.4237,-0.13785c1.16778,-0.05251 2.32038,-0.11816 3.45783,-0.19692c1.13744,-0.07877 2.2117,-0.17461 3.22276,-0.28752c1.01106,-0.11028 1.91469,-0.23762 2.7109,-0.38204M339.617,180.44516v1.06341h9.17536v-1.06341h-9.17536M339.617,178.10172v1.04371h9.17536v-1.04371h-9.17536M337.62647,176.68384h13.25121v6.24262h-13.25121zM362.04357,170.81538h2.16114v15.5573h-2.16114v-15.5573M368.71656,174.79333h2.12322v14.1985h-2.12322v-14.1985M355.52223,174.85241h2.08531v10.53564h12.13272v2.16621h-14.21803zM384.43222,170.63815h1.9147v13.84403h-1.9147v-13.84403M378.7071,178.61373l9.93367,-4.37179l0.75829,1.81173l-9.93366,4.43088l-0.7583,-1.87082M380.64075,172.52866h1.93365v12.87909c0,0.3676 0.03159,0.64593 0.09479,0.83498c0.06319,0.19168 0.19589,0.32034 0.3981,0.38598c0.20222,0.06564 0.49921,0.09846 0.891,0.09846c0.11374,0 0.30079,0 0.56114,0c0.25782,0 0.55103,0 0.87962,0c0.3286,0 0.65972,0 0.99337,0c0.33618,0 0.64076,0 0.91374,0c0.27046,0 0.46887,0 0.59526,0c0.35387,0 0.61928,-0.06958 0.79621,-0.20874c0.17694,-0.13654 0.30964,-0.3886 0.3981,-0.7562c0.08847,-0.3676 0.15166,-0.89931 0.18957,-1.59512c0.22749,0.17067 0.51564,0.32821 0.86446,0.47263c0.34629,0.14442 0.65846,0.24288 0.93649,0.29539c-0.08847,0.93213 -0.2338,1.66339 -0.43602,2.19378c-0.20222,0.53302 -0.50553,0.91375 -0.90996,1.14218c-0.40443,0.23106 -0.96682,0.34659 -1.6872,0.34659c-0.12639,0 -0.33239,0 -0.61801,0c-0.2831,0 -0.6079,0 -0.97441,0c-0.36651,0 -0.72923,0 -1.08815,0c-0.36145,0 -0.685,0 -0.97062,0c-0.2831,0 -0.48152,0 -0.59526,0c-0.80885,0 -1.44708,-0.0919 -1.91469,-0.2757c-0.46762,-0.1838 -0.79242,-0.50938 -0.97441,-0.97676c-0.18452,-0.46475 -0.27677,-1.12381 -0.27677,-1.97716v-12.85939M388.26161,174.47824h-0.15166l0.37915,-0.29539l0.37914,-0.25601l1.40285,0.53171l-0.07583,0.35447c0,0.93213 -0.00379,1.78811 -0.01137,2.56794c-0.00506,0.78246 -0.01137,1.47564 -0.01896,2.07955c-0.00506,0.60392 -0.01643,1.10936 -0.03412,1.51635c-0.02022,0.40698 -0.04297,0.70894 -0.06825,0.90587c-0.03791,0.44637 -0.13901,0.79034 -0.30331,1.0319c-0.1643,0.24419 -0.39811,0.41879 -0.70143,0.52382c-0.2654,0.11816 -0.57757,0.18643 -0.93649,0.20481c-0.36145,0.02101 -0.68752,0.03151 -0.9782,0.03151c-0.02528,-0.26257 -0.07835,-0.56847 -0.15924,-0.91769c-0.08341,-0.3466 -0.17567,-0.63148 -0.27678,-0.85467c0.17694,0.01313 0.36651,0.01969 0.56872,0.01969c0.20222,0 0.34755,0 0.43602,0c0.12639,0 0.22749,-0.03019 0.30331,-0.09059c0.07583,-0.05776 0.12638,-0.17855 0.15166,-0.36235c0.02528,-0.10503 0.04423,-0.33215 0.05687,-0.68137c0.01264,-0.3466 0.02275,-0.80872 0.03033,-1.38637c0.00506,-0.57765 0.00758,-1.27741 0.00758,-2.09925c0,-0.81922 0,-1.76054 0,-2.82395M373.30425,175.26596h6.19906v1.98897h-6.19906v-1.98897M375.57913,170.89416h1.91469v12.97754h-1.91469v-12.97754M373.07676,184.02925c0.51817,-0.19693 1.12228,-0.43718 1.81232,-0.72075c0.68752,-0.28095 1.41422,-0.58947 2.1801,-0.92557c0.76335,-0.33346 1.53049,-0.6643 2.30142,-0.99251l0.45497,1.87081c-1.01106,0.51201 -2.03728,1.02009 -3.07867,1.52423c-1.04392,0.50676 -1.99558,0.96363 -2.85498,1.37062zM392.65972,173.86777h16.83415v2.06775h-16.83415v-2.06775M398.82087,178.53496h7.35546v2.04805h-7.35546v-2.04805M405.64552,178.53496h2.12323c0,0 -0.00252,0.05908 -0.00758,0.17723c-0.00759,0.11816 -0.01137,0.24944 -0.01137,0.39386c0,0.14442 -0.01264,0.26257 -0.03791,0.35447c-0.11374,1.82486 -0.24012,3.3084 -0.37914,4.45058c-0.13902,1.14218 -0.297,2.02836 -0.47394,2.65852c-0.17694,0.63017 -0.3981,1.0831 -0.66351,1.3588c-0.2654,0.30195 -0.55356,0.51201 -0.86446,0.63017c-0.30838,0.11816 -0.67109,0.19693 -1.08815,0.23632c-0.35387,0.03939 -0.82401,0.05514 -1.41043,0.04726c-0.58895,-0.00525 -1.19937,-0.02101 -1.83128,-0.04726c-0.01264,-0.31509 -0.08847,-0.66956 -0.22749,-1.06341c-0.13902,-0.39386 -0.30963,-0.7352 -0.51184,-1.02402c0.65719,0.06564 1.28657,0.10502 1.88815,0.11815c0.59906,0.01313 1.0376,0.0197 1.31564,0.0197c0.21485,0 0.39179,-0.01707 0.53081,-0.05121c0.13902,-0.03151 0.27172,-0.09321 0.3981,-0.18511c0.18957,-0.1838 0.36019,-0.56847 0.51185,-1.154c0.15166,-0.58291 0.29067,-1.41263 0.41706,-2.48917c0.12639,-1.07654 0.23381,-2.44191 0.32227,-4.0961v-0.33478M397.58864,175.16749h2.27488c-0.05055,1.03716 -0.12638,2.08087 -0.22749,3.13115c-0.10111,1.05028 -0.2654,2.08744 -0.49289,3.11146c-0.22749,1.02402 -0.55608,2.0021 -0.98579,2.93423c-0.4297,0.93213 -0.99842,1.80123 -1.70616,2.60732c-0.70774,0.80872 -1.59241,1.5216 -2.65403,2.13864c-0.15166,-0.2757 -0.36904,-0.57765 -0.65213,-0.90587c-0.28562,-0.32822 -0.56746,-0.59735 -0.8455,-0.80741c0.98579,-0.53827 1.79716,-1.16187 2.43413,-1.87081c0.6395,-0.70894 1.14503,-1.47433 1.51659,-2.29618c0.37409,-0.81922 0.64961,-1.67914 0.82654,-2.57976c0.17694,-0.89799 0.297,-1.81043 0.36019,-2.7373c0.06319,-0.92425 0.11374,-1.83274 0.15166,-2.72548M399.59812,171.20924l1.99052,-0.78771c0.25277,0.44637 0.51185,0.93869 0.77725,1.47696c0.2654,0.53827 0.46761,0.99777 0.60663,1.3785l-2.08531,0.94526c-0.12639,-0.40698 -0.31596,-0.89274 -0.56872,-1.45727c-0.25277,-0.56453 -0.49289,-1.08311 -0.72038,-1.55573z" fill="#ffffff" stroke-width="1"/><path d="M240,196v-32h208v32z" fill="none" stroke-width="0"/></g></g></svg>