<svg version="1.1" xmlns="http://www.w3.org/2000/svg" xmlns:xlink="http://www.w3.org/1999/xlink" width="189.85544" height="32.667" viewBox="0,0,189.85544,32.667"><g transform="translate(-240,-180)"><g stroke="none" stroke-miterlimit="10"><path d="M249.03536,180h171.78472c5.00559,0 9.03536,3.568 9.03536,8v16.667c0,4.432 -4.02977,8 -9.03536,8h-171.78472c-5.00559,0 -9.03536,-3.568 -9.03536,-8v-16.667c0,-4.432 4.02977,-8 9.03536,-8z" fill-opacity="0.7" fill="#000000" fill-rule="evenodd" stroke-width="0"/><path d="M252.84733,191.43534h5.64263v0.91251h-5.64263v-0.91251M256.46011,190.45766h0.987v4.05041c0,0.2483 -0.03104,0.44384 -0.09311,0.58661c-0.06208,0.14277 -0.18312,0.2514 -0.36314,0.32589c-0.17381,0.07449 -0.39418,0.11918 -0.6611,0.13408c-0.26692,0.01614 -0.58351,0.02421 -0.94975,0.02421c-0.01862,-0.13036 -0.05711,-0.28741 -0.11546,-0.47115c-0.05959,-0.1825 -0.12043,-0.33893 -0.1825,-0.46929c0.2483,0.00621 0.48729,0.01055 0.71697,0.01304c0.22968,0.00372 0.38487,0.00559 0.46556,0.00559c0.07449,0 0.12601,-0.01241 0.15457,-0.03725c0.02731,-0.02483 0.04097,-0.06828 0.04097,-0.13036v-4.03178M253.40601,192.84135l0.81008,-0.42832c0.14898,0.15519 0.29982,0.329 0.45253,0.52143c0.15146,0.19243 0.29237,0.38176 0.42273,0.56799c0.13036,0.18623 0.22968,0.35693 0.29796,0.51212l-0.86595,0.48419c-0.06208,-0.15519 -0.15333,-0.33086 -0.27375,-0.52702c-0.12167,-0.19492 -0.25699,-0.39169 -0.40597,-0.59033c-0.14898,-0.19864 -0.29486,-0.37866 -0.43763,-0.54005M251.54375,186.90075h0.96837v8.68742h-0.96837v-8.68742M249.87703,192.68306c0.23589,-0.1676 0.52143,-0.38487 0.85664,-0.65179c0.33521,-0.26692 0.67662,-0.54316 1.02424,-0.8287l0.36314,0.81008c-0.27934,0.26072 -0.57109,0.52578 -0.87526,0.79518c-0.30417,0.27065 -0.59282,0.51771 -0.86595,0.74118l-0.50281,-0.86595M249.87703,188.71645l0.68903,-0.54005c0.14277,0.14277 0.29362,0.30106 0.45253,0.47488c0.15767,0.17381 0.30665,0.34576 0.44694,0.51584c0.13905,0.17133 0.24582,0.32527 0.32031,0.46184l-0.72628,0.61454c-0.07449,-0.14277 -0.17691,-0.30293 -0.30727,-0.48046c-0.13036,-0.17629 -0.27313,-0.35631 -0.42832,-0.54005c-0.15519,-0.1825 -0.30417,-0.35135 -0.44694,-0.50653M255.10997,187.63634h2.6444l-0.18623,0.79146h-2.96099l0.50281,-0.79146M255.25895,186.90075l1.02424,0.27003c-0.22968,0.29796 -0.49846,0.58785 -0.80636,0.86967c-0.30665,0.28306 -0.63379,0.54254 -0.98141,0.77842c-0.34762,0.23589 -0.69835,0.44073 -1.05217,0.61454c-0.04966,-0.06208 -0.11484,-0.13532 -0.19554,-0.21975c-0.0807,-0.08318 -0.16326,-0.16388 -0.24768,-0.24209c-0.08318,-0.07697 -0.15581,-0.14339 -0.21788,-0.19926c0.34141,-0.13657 0.67041,-0.30603 0.987,-0.5084c0.31658,-0.20112 0.60213,-0.41963 0.85664,-0.65551c0.25451,-0.23589 0.46556,-0.47177 0.63317,-0.70766M254.18816,189.22857l0.73559,-0.42832c0.1676,0.13657 0.33645,0.29175 0.50653,0.46556c0.17133,0.17381 0.30044,0.33521 0.38735,0.48419l-0.77284,0.45625c-0.0807,-0.14277 -0.20174,-0.30727 -0.36314,-0.4935c-0.1614,-0.18623 -0.32589,-0.34762 -0.4935,-0.48419M257.40986,187.63634h0.18623l0.17691,-0.03725l0.6611,0.33521c-0.22968,0.49039 -0.52143,0.92306 -0.87526,1.29799c-0.35383,0.37618 -0.75235,0.70393 -1.19557,0.98327c-0.44446,0.27934 -0.92244,0.51522 -1.43394,0.70766c-0.51274,0.19243 -1.03914,0.35073 -1.57919,0.47488c-0.04966,-0.11794 -0.12105,-0.25451 -0.21416,-0.4097c-0.09311,-0.15519 -0.18623,-0.27934 -0.27934,-0.37245c0.49039,-0.09311 0.97024,-0.22037 1.43952,-0.38176c0.46805,-0.1614 0.90506,-0.36004 1.31103,-0.59592c0.40721,-0.23589 0.76601,-0.50777 1.07638,-0.81567c0.31038,-0.30665 0.55247,-0.65241 0.72628,-1.03728zM259.27211,188.60472h2.83994v0.93113h-2.83994v-0.93113M260.39878,186.90075h0.91251v8.68742h-0.91251v-8.68742M260.38016,189.27513l0.54937,0.20485c-0.05587,0.36004 -0.12912,0.73559 -0.21975,1.12666c-0.08939,0.39107 -0.18995,0.77408 -0.30169,1.14901c-0.11174,0.37618 -0.23402,0.72566 -0.36686,1.04845c-0.13408,0.32279 -0.27561,0.59903 -0.42459,0.8287c-0.03104,-0.09932 -0.07263,-0.20981 -0.12477,-0.33148c-0.05338,-0.12043 -0.10925,-0.24147 -0.1676,-0.36314c-0.05959,-0.12043 -0.11732,-0.22409 -0.17319,-0.311c0.13657,-0.19243 0.26692,-0.42087 0.39107,-0.68531c0.12415,-0.2632 0.24023,-0.54564 0.34824,-0.84733c0.10925,-0.30044 0.20609,-0.60772 0.29051,-0.92182c0.08318,-0.31286 0.1496,-0.61206 0.19926,-0.89761M261.27404,189.81518c0.04966,0.06208 0.12539,0.16884 0.2272,0.32031c0.10305,0.1527 0.21478,0.31907 0.33521,0.49908c0.12167,0.18002 0.23216,0.34576 0.33148,0.49722c0.09932,0.1527 0.1676,0.2632 0.20485,0.33148l-0.5773,0.67972c-0.04966,-0.12415 -0.1167,-0.27623 -0.20112,-0.45625c-0.08318,-0.18002 -0.17257,-0.36624 -0.26816,-0.55868c-0.09684,-0.19243 -0.18995,-0.37431 -0.27934,-0.54564c-0.09063,-0.17009 -0.16698,-0.30789 -0.22906,-0.41342l0.45625,-0.35383M265.06373,187.1894c0.15519,0.21726 0.34638,0.44073 0.57357,0.67041c0.22595,0.22968 0.46929,0.45439 0.73,0.67414c0.26072,0.22099 0.53074,0.42459 0.81008,0.61082c0.27934,0.18623 0.54937,0.34762 0.81008,0.48419c-0.05587,0.0807 -0.11484,0.17816 -0.17691,0.29237c-0.06208,0.11546 -0.11918,0.23216 -0.17133,0.3501c-0.05338,0.11794 -0.0956,0.22347 -0.12663,0.31658c-0.37866,-0.24209 -0.76539,-0.52453 -1.16019,-0.84733c-0.39356,-0.32279 -0.76601,-0.6642 -1.11735,-1.02424c-0.3501,-0.36004 -0.64931,-0.70455 -0.89761,-1.03355l0.72628,-0.4935M264.59816,186.80764l0.86595,0.32589c-0.2483,0.46556 -0.54626,0.91995 -0.89388,1.36317c-0.34762,0.44446 -0.71883,0.85602 -1.11363,1.23468c-0.39356,0.37866 -0.79208,0.70766 -1.19557,0.987c-0.03725,-0.06828 -0.09001,-0.15395 -0.15829,-0.25699c-0.06828,-0.1018 -0.13967,-0.20547 -0.21416,-0.311c-0.07449,-0.10553 -0.13967,-0.18933 -0.19554,-0.2514c0.37866,-0.23589 0.74925,-0.51522 1.11177,-0.83801c0.36376,-0.32279 0.70083,-0.67662 1.0112,-1.06149c0.31038,-0.38487 0.57109,-0.78215 0.78215,-1.19184M263.22941,189.75931h3.26826v0.84733h-3.26826v-0.84733M262.55899,191.53777l0.77284,-0.20485c0.0807,0.23589 0.15829,0.48729 0.23278,0.75421c0.07449,0.26692 0.14277,0.52764 0.20485,0.78215c0.06208,0.25451 0.10553,0.48108 0.13036,0.67972l-0.81008,0.22347c-0.02483,-0.20485 -0.06518,-0.43453 -0.12105,-0.68903c-0.05587,-0.25451 -0.11918,-0.51833 -0.18995,-0.79146c-0.07201,-0.27313 -0.14526,-0.52453 -0.21975,-0.75421M264.33745,191.26774l0.77284,-0.11174c0.06208,0.23589 0.11918,0.48543 0.17133,0.74863c0.05338,0.26444 0.1018,0.52205 0.14526,0.77284c0.04345,0.25203 0.07139,0.47736 0.0838,0.676l-0.81008,0.13036c-0.01241,-0.19864 -0.03725,-0.42708 -0.07449,-0.68531c-0.03725,-0.25699 -0.0807,-0.51895 -0.13036,-0.78587c-0.04966,-0.26692 -0.10242,-0.51522 -0.15829,-0.7449M266.6094,191.15601l0.87526,0.19554c-0.14898,0.37245 -0.31038,0.76166 -0.48419,1.16763c-0.17381,0.40721 -0.35073,0.79705 -0.53074,1.1695c-0.18002,0.37245 -0.35073,0.69835 -0.51212,0.97768l-0.71697,-0.20485c0.12415,-0.21726 0.25016,-0.46246 0.37804,-0.73559c0.12663,-0.27313 0.25203,-0.56054 0.37618,-0.86222c0.12415,-0.30044 0.23899,-0.59654 0.34452,-0.8883c0.10553,-0.29175 0.19554,-0.56488 0.27003,-0.81939M262.10274,194.32184h5.54021v0.87526h-5.54021zM272.70829,194.02388l0.60523,-0.36314c0.14898,0.14898 0.30106,0.31038 0.45625,0.48419c0.15519,0.17381 0.30106,0.34576 0.43763,0.51584c0.13657,0.17133 0.2452,0.32217 0.32589,0.45253l-0.63317,0.41901c-0.0807,-0.13657 -0.18623,-0.29362 -0.31658,-0.47115c-0.13036,-0.17629 -0.27313,-0.35631 -0.42832,-0.54005c-0.15519,-0.1825 -0.30417,-0.34824 -0.44694,-0.49722M271.06019,187.41287h3.26826v5.99646h-0.78215v-5.27949h-1.7319v5.31674h-0.75421v-6.03371M276.13484,187.04042h0.79146v7.5142c0,0.23589 -0.02793,0.41901 -0.0838,0.54937c-0.05587,0.13036 -0.15208,0.22968 -0.28865,0.29796c-0.13657,0.06828 -0.31782,0.11298 -0.54378,0.13408c-0.2272,0.02235 -0.5084,0.03042 -0.8436,0.02421c-0.01862,-0.10553 -0.05276,-0.23899 -0.10242,-0.40038c-0.04966,-0.1614 -0.10242,-0.30106 -0.15829,-0.41901c0.22968,0.00621 0.4426,0.00931 0.63875,0.00931c0.19492,0 0.32962,0 0.40411,0c0.12415,0 0.18623,-0.06208 0.18623,-0.18623v-7.52351M274.85919,187.75739h0.76352v5.68919h-0.76352v-5.68919M272.28928,188.68852h0.73559v3.50104c0,0.31038 -0.02483,0.62386 -0.07449,0.94044c-0.04966,0.31658 -0.14091,0.62696 -0.27375,0.93113c-0.13408,0.30417 -0.32962,0.58661 -0.58661,0.84733c-0.25823,0.26072 -0.5953,0.49039 -1.0112,0.68903c-0.02483,-0.05587 -0.06332,-0.12415 -0.11546,-0.20485c-0.05338,-0.0807 -0.10925,-0.16015 -0.1676,-0.23837c-0.05959,-0.07697 -0.11111,-0.13408 -0.15457,-0.17133c0.37245,-0.17381 0.66917,-0.36811 0.89016,-0.58289c0.21975,-0.21354 0.38425,-0.44135 0.4935,-0.68345c0.10801,-0.24209 0.1794,-0.4935 0.21416,-0.75421c0.03352,-0.26072 0.05028,-0.52143 0.05028,-0.78215v-3.49173M268.86273,187.71083l0.58661,-0.72628c0.1614,0.0807 0.34017,0.17691 0.53633,0.28865c0.19492,0.11174 0.38425,0.22347 0.56799,0.33521c0.1825,0.11174 0.32962,0.21416 0.44135,0.30727l-0.61454,0.81008c-0.10553,-0.09932 -0.2452,-0.20981 -0.41901,-0.33148c-0.17381,-0.12043 -0.35817,-0.23961 -0.55309,-0.35755c-0.19616,-0.11794 -0.37804,-0.22657 -0.54564,-0.32589M268.49028,190.20626l0.55868,-0.71697c0.1676,0.0807 0.34948,0.17381 0.54564,0.27934c0.19492,0.10553 0.38238,0.21106 0.5624,0.31658c0.18002,0.10553 0.3321,0.20174 0.45625,0.28865l-0.59592,0.80077c-0.10553,-0.09311 -0.2483,-0.1974 -0.42832,-0.31286c-0.18002,-0.11422 -0.36624,-0.22906 -0.55868,-0.34452c-0.19243,-0.11422 -0.37245,-0.21788 -0.54005,-0.311M268.65788,194.97363c0.11794,-0.24209 0.2483,-0.52764 0.39107,-0.85664c0.14277,-0.329 0.28555,-0.67848 0.42832,-1.04845c0.14277,-0.36873 0.27623,-0.73 0.40038,-1.08383l0.80077,0.51212c-0.10553,0.329 -0.22037,0.66731 -0.34452,1.01493c-0.12415,0.34762 -0.25265,0.68903 -0.38549,1.02424c-0.13408,0.33521 -0.2632,0.65179 -0.38735,0.94975zM278.3323,191.74262h4.42286v0.86595h-4.42286v-0.86595M280.07351,190.85805h0.94975v3.72451h-0.94975v-3.72451M278.01571,194.2846c0.40349,-0.05587 0.87091,-0.12725 1.40228,-0.21416c0.53012,-0.0869 1.09004,-0.18188 1.67975,-0.28493c0.58971,-0.1018 1.17632,-0.20236 1.75983,-0.30169l0.05587,0.85664c-0.55247,0.10553 -1.10804,0.21106 -1.66672,0.31658c-0.55868,0.10553 -1.09377,0.20609 -1.60526,0.30169c-0.51274,0.09684 -0.98017,0.1825 -1.40228,0.25699l-0.22347,-0.93113M278.10883,187.46874h4.84186v0.86595h-4.84186v-0.86595M280.88359,188.8375l0.70766,-0.42832c0.17381,0.20485 0.34762,0.42832 0.52143,0.67041c0.17381,0.24209 0.33521,0.47922 0.48419,0.71138c0.14898,0.2334 0.26382,0.44322 0.34452,0.62944l-0.76352,0.4935c-0.07449,-0.18623 -0.18312,-0.40038 -0.32589,-0.64248c-0.14277,-0.24209 -0.2992,-0.48915 -0.46929,-0.74118c-0.17133,-0.25078 -0.33769,-0.4817 -0.49908,-0.69276M283.36039,187.74808h0.92182v5.65195h-0.92182v-5.65195M285.15746,187.0218h0.97768v7.2628c0,0.26692 -0.03228,0.47488 -0.09684,0.62386c-0.0658,0.14898 -0.1825,0.26382 -0.3501,0.34452c-0.1676,0.07449 -0.38176,0.12415 -0.64248,0.14898c-0.26072,0.02483 -0.57109,0.03725 -0.93113,0.03725c-0.01862,-0.13657 -0.06208,-0.29796 -0.13036,-0.48419c-0.06828,-0.18623 -0.13967,-0.34762 -0.21416,-0.48419c0.25451,0.00621 0.4935,0.01055 0.71697,0.01304c0.22347,0.00372 0.37555,0.00559 0.45625,0.00559c0.0869,0 0.14463,-0.01552 0.17319,-0.04656c0.02731,-0.03104 0.04097,-0.0869 0.04097,-0.1676v-7.25349M278.61164,190.80218c-0.01862,-0.06828 -0.04656,-0.15705 -0.0838,-0.2663c-0.03725,-0.10801 -0.07635,-0.22099 -0.11732,-0.33893c-0.03973,-0.11794 -0.07821,-0.22037 -0.11546,-0.30727c0.06828,-0.01862 0.13967,-0.06394 0.21416,-0.13594c0.07449,-0.07077 0.14898,-0.15891 0.22347,-0.26444c0.04966,-0.07449 0.1285,-0.20174 0.23651,-0.38176c0.10925,-0.18002 0.22285,-0.39294 0.34079,-0.63875c0.11794,-0.24458 0.22037,-0.49722 0.30727,-0.75794l0.96837,0.36314c-0.12415,0.26072 -0.26506,0.52578 -0.42273,0.79518c-0.15891,0.27065 -0.32403,0.52826 -0.49536,0.77284c-0.17009,0.24582 -0.33893,0.46494 -0.50653,0.65738v0.01862c0,0 -0.02793,0.01552 -0.0838,0.04656c-0.05587,0.03104 -0.11918,0.07139 -0.18995,0.12105c-0.07201,0.04966 -0.13594,0.10242 -0.19181,0.15829c-0.05587,0.05587 -0.0838,0.10863 -0.0838,0.15829M278.61164,190.80218l-0.01862,-0.69835l0.46556,-0.29796l2.91443,-0.19554c0.05587,0.12415 0.12415,0.25885 0.20485,0.40411c0.0807,0.1465 0.14898,0.26941 0.20485,0.36873c-0.61454,0.05587 -1.13287,0.10242 -1.55498,0.13967c-0.42211,0.03725 -0.76477,0.06828 -1.02797,0.09311c-0.26444,0.02483 -0.47425,0.04656 -0.62944,0.06518c-0.15519,0.01862 -0.27313,0.03725 -0.35383,0.05587c-0.0807,0.01862 -0.14898,0.04035 -0.20485,0.06518zM288.03465,187.18009h6.87172v0.72628h-6.87172v-0.72628M288.44435,190.93254h6.91828v0.68903h-6.91828v-0.68903M289.29167,191.91953h5.55883v0.60523h-5.55883v-0.60523M288.42572,192.84135h7.29073v0.67041h-7.29073v-0.67041M288.6585,189.21926h1.96468v0.52143h-1.96468v-0.52143M288.45366,190.0759h2.17884v0.51212h-2.17884v-0.51212M292.2899,190.0759h2.20677v0.51212h-2.20677v-0.51212M292.2899,189.21926h1.9833v0.52143h-1.9833v-0.52143M290.95839,187.48736h0.987v3.25895h-0.987v-3.25895M287.43873,188.27882h8.08219v1.62947h-0.96837v-1.03355h-6.192v1.03355h-0.92182v-1.62947M287.9974,190.93254h0.93113v1.28496c0,0.26072 -0.01552,0.5413 -0.04656,0.84174c-0.03104,0.30169 -0.08815,0.60772 -0.17133,0.91809c-0.08442,0.31038 -0.20236,0.60958 -0.35383,0.89761c-0.1527,0.28927 -0.3501,0.55185 -0.5922,0.78773c-0.04966,-0.06208 -0.11794,-0.13532 -0.20485,-0.21975c-0.0869,-0.08318 -0.17816,-0.16388 -0.27375,-0.24209c-0.09684,-0.07697 -0.1825,-0.13408 -0.25699,-0.17133c0.29175,-0.27934 0.50591,-0.58351 0.64248,-0.91251c0.13657,-0.329 0.22533,-0.65986 0.2663,-0.99258c0.03973,-0.33148 0.05959,-0.63999 0.05959,-0.92554v-1.26633M292.28059,193.19518c0.18623,0.30417 0.45004,0.55681 0.79146,0.75794c0.34141,0.20236 0.74987,0.36066 1.22536,0.47488c0.47425,0.11546 1.00313,0.19181 1.58664,0.22906c-0.0869,0.0869 -0.17691,0.20485 -0.27003,0.35383c-0.09311,0.14898 -0.1676,0.28555 -0.22347,0.4097c-0.63937,-0.06828 -1.2086,-0.18623 -1.70769,-0.35383c-0.50033,-0.1676 -0.93051,-0.39294 -1.29054,-0.676c-0.36004,-0.28182 -0.658,-0.62758 -0.89388,-1.03728l0.78215,-0.15829M294.45012,193.43727l0.73559,0.37245c-0.22347,0.14898 -0.45936,0.28679 -0.70766,0.41342c-0.2483,0.12787 -0.47488,0.23837 -0.67972,0.33148l-0.60523,-0.33521c0.13657,-0.07449 0.2812,-0.15705 0.43391,-0.24768c0.15146,-0.08939 0.30044,-0.1825 0.44694,-0.27934c0.14526,-0.0956 0.27065,-0.18064 0.37618,-0.25513M289.36616,195.59749l-0.04656,-0.65179l0.39107,-0.27003l2.56991,-0.36314c-0.02483,0.11174 -0.04656,0.24023 -0.06518,0.38549c-0.01862,0.1465 -0.02793,0.2663 -0.02793,0.35942c-0.57109,0.09311 -1.03169,0.16884 -1.38179,0.2272c-0.35135,0.05959 -0.62323,0.10801 -0.81567,0.14526c-0.19243,0.03725 -0.3321,0.06828 -0.41901,0.09311c-0.0869,0.02483 -0.15519,0.04966 -0.20485,0.07449M289.36616,195.59749c-0.02483,-0.07449 -0.06208,-0.16015 -0.11174,-0.25699c-0.04966,-0.0956 -0.10367,-0.19181 -0.16202,-0.28865c-0.05959,-0.0956 -0.11422,-0.17443 -0.16388,-0.23651c0.10553,-0.05587 0.21913,-0.15084 0.34079,-0.28493c0.12043,-0.13284 0.18064,-0.30479 0.18064,-0.51584v-0.89388l0.96837,0.01862v1.51774c0,0 -0.03538,0.02173 -0.10615,0.06518c-0.07201,0.04345 -0.15953,0.10242 -0.26258,0.17691c-0.1018,0.07449 -0.20547,0.15208 -0.311,0.23278c-0.10553,0.0807 -0.19367,0.16264 -0.26444,0.24582c-0.07201,0.08442 -0.10801,0.15767 -0.10801,0.21975zM300.83766,188.95855h3.67795v0.95906h-3.67795v-0.95906M304.00349,188.95855h0.97768c0,0 0,0.02918 0,0.08753c0,0.05959 -0.00124,0.12663 -0.00372,0.20112c-0.00372,0.07449 -0.00559,0.13346 -0.00559,0.17691c-0.02483,0.94975 -0.0509,1.75487 -0.07821,2.41535c-0.02855,0.66172 -0.06145,1.20674 -0.0987,1.63506c-0.03725,0.42832 -0.0838,0.76352 -0.13967,1.00562c-0.05587,0.24209 -0.12415,0.4159 -0.20485,0.52143c-0.10553,0.14898 -0.21602,0.25265 -0.33148,0.311c-0.11422,0.05959 -0.25203,0.10491 -0.41342,0.13594c-0.14898,0.01862 -0.33521,0.02918 -0.55868,0.03166c-0.22347,0.00372 -0.45625,-0.00062 -0.69835,-0.01304c-0.01241,-0.14277 -0.04532,-0.30727 -0.0987,-0.4935c-0.05214,-0.18623 -0.12167,-0.34762 -0.20857,-0.48419c0.23589,0.01862 0.45191,0.02918 0.64806,0.03166c0.19492,0.00372 0.34203,0.00559 0.44135,0.00559c0.0807,0.00621 0.14712,-0.00186 0.19926,-0.02421c0.05338,-0.02111 0.10491,-0.0627 0.15457,-0.12477c0.05587,-0.06828 0.10553,-0.21106 0.14898,-0.42832c0.04345,-0.21726 0.0807,-0.52764 0.11174,-0.93113c0.03104,-0.40349 0.05897,-0.92058 0.0838,-1.55126c0.02483,-0.62944 0.04966,-1.39421 0.07449,-2.2943v-0.21416M301.97363,187.06836h0.987c0,0.70145 -0.00745,1.38738 -0.02235,2.05779c-0.01614,0.67041 -0.05525,1.31413 -0.11732,1.93116c-0.06208,0.61827 -0.1614,1.20364 -0.29796,1.75611c-0.13657,0.55247 -0.32279,1.06149 -0.55868,1.52705c-0.23589,0.46556 -0.54005,0.88147 -0.91251,1.24771c-0.05587,-0.0869 -0.12725,-0.17878 -0.21416,-0.27561c-0.0869,-0.0956 -0.17691,-0.18685 -0.27003,-0.27375c-0.09311,-0.0869 -0.18312,-0.15519 -0.27003,-0.20485c0.34141,-0.32279 0.61951,-0.694 0.83429,-1.11363c0.21354,-0.41839 0.37804,-0.87774 0.4935,-1.37807c0.11422,-0.49908 0.19616,-1.03293 0.24582,-1.60154c0.04966,-0.56737 0.07946,-1.16019 0.08939,-1.77845c0.00869,-0.61703 0.01304,-1.24833 0.01304,-1.89391M296.9083,187.63634h3.65002v0.88457h-3.65002v-0.88457M296.59171,189.81518h4.1249v0.90319h-4.1249v-0.90319M299.29198,191.59364l0.81008,-0.22347c0.11174,0.26692 0.22657,0.55371 0.34452,0.86036c0.11794,0.30789 0.22657,0.60585 0.32589,0.89388c0.09932,0.28927 0.17381,0.53943 0.22347,0.75049l-0.86595,0.27934c-0.04345,-0.21726 -0.11049,-0.47363 -0.20112,-0.76911c-0.08939,-0.29424 -0.18995,-0.59841 -0.30169,-0.91251c-0.11174,-0.31286 -0.22347,-0.60585 -0.33521,-0.87898M296.98279,194.54531l-0.09311,-0.83801l0.43763,-0.32589l3.01685,-0.68903c0.01241,0.12415 0.03228,0.27003 0.05959,0.43763c0.02855,0.1676 0.05835,0.30417 0.08939,0.4097c-0.57109,0.13657 -1.04907,0.25451 -1.43394,0.35383c-0.38487,0.09932 -0.70145,0.18312 -0.94975,0.2514c-0.2483,0.06828 -0.44508,0.12725 -0.59033,0.17691c-0.1465,0.04966 -0.26009,0.09001 -0.34079,0.12105c-0.0807,0.03104 -0.14588,0.06518 -0.19554,0.10242M296.97348,194.54531c-0.01241,-0.06828 -0.03725,-0.15829 -0.07449,-0.27003c-0.03725,-0.11174 -0.07759,-0.22533 -0.12105,-0.34079c-0.04345,-0.11422 -0.0838,-0.21168 -0.12105,-0.29237c0.0869,-0.02483 0.1645,-0.09187 0.23278,-0.20112c0.06828,-0.10801 0.14277,-0.24892 0.22347,-0.42273c0.03725,-0.0869 0.08815,-0.22657 0.1527,-0.41901c0.0658,-0.19243 0.13781,-0.41777 0.21602,-0.676c0.07697,-0.25699 0.1527,-0.53633 0.2272,-0.83801c0.07449,-0.30044 0.13657,-0.59654 0.18623,-0.8883l0.987,0.27934c-0.09311,0.4097 -0.20795,0.8256 -0.34452,1.24771c-0.13657,0.42211 -0.28244,0.8287 -0.43763,1.21978c-0.15519,0.39107 -0.31038,0.7418 -0.46556,1.05217v0.02793c0,0 -0.03414,0.01676 -0.10242,0.05028c-0.06828,0.03476 -0.14588,0.08008 -0.23278,0.13594c-0.0869,0.05587 -0.16264,0.11298 -0.2272,0.17133c-0.0658,0.05959 -0.0987,0.11422 -0.0987,0.16388zM306.75032,188.40918h2.84925v6.21993h-2.84925v-0.88457h1.93675v-4.4601h-1.93675v-0.87526M306.16371,188.40918h0.91251v6.92759h-0.91251v-6.92759M306.70376,190.92322h2.43955v0.86595h-2.43955v-0.86595M307.51384,186.89144l1.08942,0.1676c-0.09932,0.30417 -0.20485,0.60958 -0.31658,0.91623c-0.11174,0.30789 -0.21416,0.57047 -0.30727,0.78773l-0.80077,-0.18623c0.04345,-0.15519 0.08815,-0.3321 0.13408,-0.53074c0.04718,-0.19864 0.08939,-0.39914 0.12663,-0.60151c0.03725,-0.20112 0.06208,-0.38549 0.07449,-0.55309M310.85659,188.35331h2.76545v0.91251h-2.76545v-0.91251M313.26821,188.35331h0.93113c0,0 0,0.02918 0,0.08753c0,0.05959 0,0.12477 0,0.19554c0,0.07201 -0.0031,0.12974 -0.00931,0.17319c-0.03104,1.05528 -0.06394,1.94916 -0.0987,2.68165c-0.03352,0.73249 -0.07387,1.33462 -0.12105,1.80639c-0.04594,0.47177 -0.09994,0.83926 -0.16202,1.10246c-0.06208,0.26444 -0.14277,0.45874 -0.24209,0.58289c-0.12415,0.1676 -0.2514,0.28244 -0.38176,0.34452c-0.13036,0.06208 -0.28865,0.10863 -0.47488,0.13967c-0.1676,0.01862 -0.38176,0.02793 -0.64248,0.02793c-0.26072,0 -0.52764,-0.00621 -0.80077,-0.01862c-0.00621,-0.13657 -0.03849,-0.29796 -0.09684,-0.48419c-0.05959,-0.18623 -0.13905,-0.34762 -0.23837,-0.48419c0.30417,0.02483 0.58351,0.04035 0.83801,0.04656c0.25451,0.00621 0.44073,0.00931 0.55868,0.00931c0.09311,0 0.16884,-0.01117 0.2272,-0.03352c0.05959,-0.02111 0.12043,-0.0627 0.1825,-0.12477c0.07449,-0.0869 0.13967,-0.25637 0.19554,-0.5084c0.05587,-0.25078 0.10242,-0.60585 0.13967,-1.06521c0.03725,-0.45936 0.07263,-1.04286 0.10615,-1.75052c0.03476,-0.70766 0.06456,-1.55188 0.08939,-2.53267v-0.19554M310.93108,186.89144l0.95906,0.22347c-0.11794,0.45936 -0.25947,0.91375 -0.42459,1.36317c-0.16388,0.45067 -0.34514,0.87464 -0.54378,1.27192c-0.19864,0.39728 -0.40349,0.7449 -0.61454,1.04286c-0.06208,-0.05587 -0.14277,-0.12105 -0.24209,-0.19554c-0.09932,-0.07449 -0.20174,-0.14774 -0.30727,-0.21975c-0.10553,-0.07077 -0.19554,-0.12477 -0.27003,-0.16202c0.20485,-0.26692 0.39852,-0.57916 0.58102,-0.93671c0.18374,-0.35631 0.34886,-0.73932 0.49536,-1.14901c0.14526,-0.4097 0.26754,-0.8225 0.36686,-1.2384M310.48414,190.96047l0.78215,-0.43763c0.15519,0.21106 0.32279,0.44508 0.50281,0.70207c0.18002,0.25823 0.34886,0.50653 0.50653,0.7449c0.15891,0.23961 0.28493,0.45253 0.37804,0.63875l-0.84733,0.52143c-0.0869,-0.19243 -0.20485,-0.4128 -0.35383,-0.6611c-0.14898,-0.2483 -0.30913,-0.50467 -0.48046,-0.76911c-0.17009,-0.2632 -0.33272,-0.50964 -0.48791,-0.73932zM319.09707,189.69414h3.3893v0.94975h-3.3893v-0.94975M315.39118,194.75947c0.20485,-0.18002 0.43763,-0.39728 0.69835,-0.65179c0.26072,-0.25451 0.5295,-0.5264 0.80636,-0.81567c0.27561,-0.28803 0.54068,-0.57792 0.79518,-0.86967l0.54937,0.76352c-0.21726,0.26692 -0.44694,0.53819 -0.68903,0.81381c-0.24209,0.27686 -0.48605,0.54874 -0.73187,0.81567c-0.24458,0.26692 -0.48791,0.52143 -0.73,0.76352l-0.69835,-0.81939M315.77294,190.00141l0.55868,-0.65179c0.17381,0.09311 0.36749,0.19864 0.58102,0.31658c0.21478,0.11794 0.42149,0.23402 0.62013,0.34824c0.19864,0.11546 0.36314,0.21664 0.4935,0.30355l-0.58661,0.7449c-0.11794,-0.09311 -0.27623,-0.20174 -0.47488,-0.32589c-0.19864,-0.12415 -0.40349,-0.2514 -0.61454,-0.38176c-0.21106,-0.13036 -0.40349,-0.2483 -0.5773,-0.35383M315.20496,191.72399l0.54937,-0.67041c0.17381,0.0807 0.36811,0.17691 0.58289,0.28865c0.21354,0.11174 0.42087,0.22037 0.62199,0.32589c0.20236,0.10553 0.37183,0.20174 0.5084,0.28865l-0.56799,0.75421c-0.12415,-0.09311 -0.2843,-0.1974 -0.48046,-0.31286c-0.19492,-0.11422 -0.39976,-0.23216 -0.61454,-0.35383c-0.21354,-0.12043 -0.41342,-0.2272 -0.59965,-0.32031M321.97425,189.69414h0.99631v2.3092c0,0.24209 -0.0329,0.43577 -0.0987,0.58102c-0.06456,0.1465 -0.19305,0.25699 -0.38549,0.33148c-0.18623,0.07449 -0.41466,0.11918 -0.68531,0.13408c-0.26941,0.01614 -0.59033,0.02421 -0.96279,0.02421c-0.02483,-0.14277 -0.07325,-0.30417 -0.14526,-0.48419c-0.07077,-0.18002 -0.1465,-0.3321 -0.2272,-0.45625c0.18623,0.00621 0.36749,0.01055 0.54378,0.01304c0.17754,0.00372 0.33458,0.00372 0.47115,0c0.13657,-0.00248 0.22968,-0.00372 0.27934,-0.00372c0.0807,0 0.13657,-0.01117 0.1676,-0.03352c0.03104,-0.02111 0.04656,-0.05959 0.04656,-0.11546v-2.29989M318.53839,189.69414h1.03355v4.27388c0,0.14898 0.01676,0.26196 0.05028,0.33893c0.03476,0.07821 0.1018,0.12974 0.20112,0.15457c0.09932,0.02483 0.2483,0.03725 0.44694,0.03725c0.05587,0 0.14588,0 0.27003,0c0.12415,0 0.26382,0 0.41901,0c0.15519,0 0.31162,0 0.46929,0c0.15891,0 0.30355,0 0.43391,0c0.13036,0 0.22968,0 0.29796,0c0.17381,0 0.30417,-0.0298 0.39107,-0.08939c0.0869,-0.05835 0.15208,-0.17319 0.19554,-0.34452c0.04345,-0.17009 0.07449,-0.41652 0.09311,-0.73932c0.12415,0.07449 0.27748,0.14898 0.45998,0.22347c0.18374,0.07449 0.347,0.13036 0.48977,0.1676c-0.04345,0.44073 -0.1167,0.78649 -0.21975,1.03728c-0.1018,0.25203 -0.25699,0.42894 -0.46556,0.53074c-0.20733,0.10305 -0.49412,0.15457 -0.86036,0.15457c-0.06208,0 -0.16326,0 -0.30355,0c-0.13905,0 -0.29734,0 -0.47488,0c-0.17629,0 -0.35321,0 -0.53074,0c-0.17629,0 -0.33272,0 -0.46929,0c-0.13657,0 -0.23278,0 -0.28865,0c-0.4159,0 -0.7449,-0.04221 -0.987,-0.12663c-0.24209,-0.08318 -0.41156,-0.2303 -0.5084,-0.44135c-0.0956,-0.21106 -0.14339,-0.50902 -0.14339,-0.89388v-4.28319M315.23289,187.61772h8.37084v0.92182h-8.37084v-0.92182M317.19757,186.90075h1.02424v2.43024h-1.02424v-2.43024M320.58687,186.90075h1.03355v2.43024h-1.03355zM326.09915,191.63088h4.69288v0.81008h-4.69288v-0.81008M326.58334,190.28075h4.28319v0.77284h-4.28319v-0.77284M328.18488,188.31607h0.92182v5.79161h-0.92182v-5.79161M326.21089,188.9213h5.00016v0.80077h-5.00016v-0.80077M330.50338,191.63088h0.87526c0,0 -0.00124,0.03725 -0.00372,0.11174c-0.00372,0.07449 -0.01179,0.13967 -0.02421,0.19554c-0.03725,0.47177 -0.08256,0.82994 -0.13594,1.07452c-0.05214,0.24582 -0.12477,0.41839 -0.21788,0.51771c-0.07449,0.0807 -0.15022,0.13781 -0.2272,0.17133c-0.07821,0.03476 -0.17009,0.05835 -0.27561,0.07077c-0.0869,0.00621 -0.20795,0.01241 -0.36314,0.01862c-0.15519,0.00621 -0.31658,0.00621 -0.48419,0c-0.00621,-0.12415 -0.02793,-0.25761 -0.06518,-0.40038c-0.03725,-0.14277 -0.0838,-0.26692 -0.13967,-0.37245c0.13657,0.01862 0.25761,0.02918 0.36314,0.03166c0.10553,0.00372 0.18623,0.00559 0.24209,0.00559c0.05587,0 0.10056,-0.00497 0.13408,-0.0149c0.03476,-0.00869 0.06766,-0.02855 0.0987,-0.05959c0.04966,-0.05587 0.09125,-0.17567 0.12477,-0.35942c0.03476,-0.1825 0.06766,-0.4786 0.0987,-0.8883v-0.10242M324.75833,187.23596h7.95183v8.35222h-0.96837v-7.48627h-6.05233v7.48627h-0.93113v-8.35222M325.34494,194.33115h6.89035v0.8287h-6.89035zM335.08453,195.98856l-0.27003,-0.67972c0.39107,-0.13036 0.68903,-0.30727 0.89388,-0.53074c0.20485,-0.22347 0.30727,-0.48108 0.30727,-0.77284l-0.09311,-0.88457l0.51212,0.80077c-0.07449,0.07449 -0.15829,0.12725 -0.2514,0.15829c-0.09311,0.03104 -0.18933,0.04656 -0.28865,0.04656c-0.21726,0 -0.41156,-0.06828 -0.58289,-0.20485c-0.17009,-0.13657 -0.25513,-0.329 -0.25513,-0.5773c0,-0.25451 0.08504,-0.45004 0.25513,-0.58661c0.17133,-0.13657 0.37183,-0.20485 0.60151,-0.20485c0.31038,0 0.54626,0.10987 0.70766,0.32962c0.1614,0.22099 0.24209,0.51771 0.24209,0.89016c0,0.52143 -0.15829,0.97768 -0.47488,1.36876c-0.31658,0.39107 -0.75111,0.67352 -1.30358,0.84733zM346.07184,188.30676l0.85664,-0.46556c0.18002,0.21726 0.36004,0.45439 0.54005,0.71138c0.18002,0.25823 0.34452,0.50964 0.4935,0.75421c0.14898,0.24582 0.27003,0.46805 0.36314,0.66669l-0.90319,0.54937c-0.0807,-0.19864 -0.19367,-0.42832 -0.33893,-0.68903c-0.1465,-0.26072 -0.30789,-0.52453 -0.48419,-0.79146c-0.17754,-0.26692 -0.35321,-0.51212 -0.52702,-0.73559M348.62313,192.86928l0.80077,-0.56799c0.27313,0.26072 0.55992,0.5444 0.86036,0.85105c0.30169,0.30789 0.58723,0.61517 0.85664,0.92182c0.27065,0.30789 0.48667,0.58289 0.64806,0.82498l-0.88457,0.6611c-0.14898,-0.24209 -0.35073,-0.52143 -0.60523,-0.83801c-0.25451,-0.31658 -0.5295,-0.63627 -0.82498,-0.95906c-0.29424,-0.32279 -0.57792,-0.62075 -0.85105,-0.89388M349.64737,187.29183l1.0708,0.04656c-0.06208,1.09252 -0.16636,2.07331 -0.31286,2.94236c-0.14526,0.86905 -0.36376,1.64003 -0.65551,2.31292c-0.29175,0.67414 -0.68283,1.26075 -1.17322,1.75983c-0.49039,0.50033 -1.10494,0.9274 -1.84363,1.28123c-0.04345,-0.06828 -0.11174,-0.15829 -0.20485,-0.27003c-0.09311,-0.11174 -0.19119,-0.22223 -0.29424,-0.33148c-0.1018,-0.10801 -0.18995,-0.19616 -0.26444,-0.26444c0.71386,-0.29175 1.30234,-0.658 1.76542,-1.09873c0.46184,-0.44073 0.82436,-0.96713 1.08756,-1.57919c0.26444,-0.61082 0.45874,-1.31351 0.58289,-2.10807c0.12415,-0.79456 0.20485,-1.69155 0.24209,-2.69096M343.96749,194.77809l-0.20485,-1.02424l0.34452,-0.35383l2.93305,-1.45256c0.02483,0.14277 0.06518,0.30851 0.12105,0.49722c0.05587,0.18995 0.10242,0.34079 0.13967,0.45253c-0.53385,0.27313 -0.98389,0.50591 -1.35014,0.69835c-0.36624,0.19243 -0.66731,0.35507 -0.90319,0.48791c-0.23589,0.13408 -0.42397,0.24271 -0.56426,0.32589c-0.13905,0.08442 -0.24768,0.15581 -0.32589,0.21416c-0.07697,0.05959 -0.14029,0.11111 -0.18995,0.15457M343.96749,194.77809c-0.03104,-0.07449 -0.07946,-0.16326 -0.14526,-0.2663c-0.06456,-0.1018 -0.13408,-0.20236 -0.20857,-0.30169c-0.07449,-0.09932 -0.13967,-0.17691 -0.19554,-0.23278c0.0807,-0.05587 0.17071,-0.13222 0.27003,-0.22906c0.09932,-0.0956 0.18747,-0.21043 0.26444,-0.34452c0.07821,-0.13284 0.11732,-0.27686 0.11732,-0.43204v-5.40985h1.08942v6.0244c0,0 -0.04035,0.02793 -0.12105,0.0838c-0.0807,0.05587 -0.18002,0.13036 -0.29796,0.22347c-0.11794,0.09311 -0.23589,0.19243 -0.35383,0.29796c-0.11794,0.10553 -0.21726,0.21106 -0.29796,0.31658c-0.0807,0.10553 -0.12105,0.19554 -0.12105,0.27003zM352.80389,186.97524h0.89388v2.00192c0,0.13036 0.02607,0.2123 0.07821,0.24582c0.05338,0.03476 0.17009,0.05214 0.3501,0.05214c0.04345,0 0.1167,0 0.21975,0c0.1018,0 0.21292,0 0.33334,0c0.12167,0 0.23713,0 0.34638,0c0.10801,0 0.18995,0 0.24582,0c0.09932,0 0.17381,-0.01862 0.22347,-0.05587c0.04966,-0.03725 0.08566,-0.11174 0.10801,-0.22347c0.02111,-0.11174 0.03787,-0.28244 0.05028,-0.51212c0.09311,0.06828 0.2185,0.13346 0.37618,0.19554c0.15891,0.06208 0.30355,0.10863 0.43391,0.13967c-0.03725,0.33521 -0.09498,0.59592 -0.17319,0.78215c-0.07697,0.18623 -0.18809,0.31348 -0.33334,0.38176c-0.1465,0.06828 -0.347,0.10242 -0.60151,0.10242c-0.04966,0 -0.13657,0 -0.26072,0c-0.12415,0 -0.25947,0 -0.40597,0c-0.14526,0 -0.27996,0 -0.40411,0c-0.12415,0 -0.21106,0 -0.26072,0c-0.329,0 -0.58226,-0.03104 -0.7598,-0.09311c-0.17629,-0.06208 -0.29672,-0.17381 -0.36128,-0.33521c-0.0658,-0.1614 -0.0987,-0.38487 -0.0987,-0.67041v-2.01124M355.51348,187.19871l0.63317,0.6611c-0.26072,0.11174 -0.55247,0.21726 -0.87526,0.31658c-0.32279,0.09932 -0.64869,0.18933 -0.97768,0.27003c-0.329,0.0807 -0.64869,0.15208 -0.95906,0.21416c-0.01862,-0.09311 -0.05276,-0.20485 -0.10242,-0.33521c-0.04966,-0.13036 -0.10242,-0.23899 -0.15829,-0.32589c0.29175,-0.06828 0.58785,-0.14588 0.8883,-0.23278c0.30169,-0.0869 0.58723,-0.18002 0.85664,-0.27934c0.27065,-0.09932 0.50219,-0.19554 0.69462,-0.28865M353.16703,190.03865l0.85664,0.18623c-0.10553,0.40349 -0.25016,0.79456 -0.43391,1.17322c-0.1825,0.37866 -0.38549,0.69835 -0.60896,0.95906c-0.04966,-0.04966 -0.11794,-0.10739 -0.20485,-0.17319c-0.0869,-0.06456 -0.17505,-0.12974 -0.26444,-0.19554c-0.09063,-0.06456 -0.17319,-0.11546 -0.24768,-0.1527c0.21106,-0.22968 0.39418,-0.50281 0.54937,-0.81939c0.15519,-0.31658 0.27313,-0.64248 0.35383,-0.97768M353.36257,190.72769h2.75614v0.80077h-3.15652l0.40038,-0.80077M352.43144,192.29198h3.89211v0.81939h-3.89211v-0.81939M354.07023,191.04427h0.89388v1.20115c0,0.25451 -0.02173,0.52764 -0.06518,0.81939c-0.04345,0.29175 -0.13346,0.58785 -0.27003,0.8883c-0.13657,0.30169 -0.33955,0.5953 -0.60896,0.88085c-0.27065,0.28555 -0.62944,0.54626 -1.07638,0.78215c-0.06208,-0.09311 -0.15519,-0.20361 -0.27934,-0.33148c-0.12415,-0.12663 -0.24209,-0.2272 -0.35383,-0.30169c0.40349,-0.19243 0.72131,-0.40846 0.95347,-0.64806c0.2334,-0.23837 0.40783,-0.48357 0.52329,-0.73559c0.11422,-0.25078 0.18995,-0.49412 0.2272,-0.73c0.03725,-0.23589 0.05587,-0.44694 0.05587,-0.63317v-1.19184M354.17265,193.67936l0.59592,-0.5773c0.14898,0.12415 0.30851,0.26196 0.4786,0.41342c0.17133,0.1527 0.33458,0.30169 0.48977,0.44694c0.15519,0.1465 0.28244,0.27872 0.38176,0.39666l-0.62386,0.65179c-0.0869,-0.12415 -0.20609,-0.26382 -0.35755,-0.41901c-0.1527,-0.15519 -0.31286,-0.31348 -0.48046,-0.47488c-0.1676,-0.1614 -0.329,-0.30727 -0.48419,-0.43763M356.57496,187.1894h3.59415v0.78215h-3.59415v-0.78215M359.84322,187.1894h0.20485l0.17691,-0.05587l0.59592,0.39107c-0.1676,0.25451 -0.365,0.50715 -0.5922,0.75794c-0.22595,0.25203 -0.47053,0.48791 -0.73373,0.70766c-0.26444,0.22099 -0.52702,0.40908 -0.78773,0.56426c-0.06208,-0.09311 -0.14898,-0.2005 -0.26072,-0.32217c-0.11174,-0.12043 -0.21106,-0.21788 -0.29796,-0.29237c0.22968,-0.13036 0.45439,-0.28555 0.67414,-0.46556c0.22099,-0.18002 0.42149,-0.36811 0.60151,-0.56426c0.18002,-0.19492 0.31969,-0.38238 0.41901,-0.5624v-0.15829M356.90086,188.93992l0.5773,-0.60523c0.27934,0.11174 0.57544,0.2452 0.8883,0.40038c0.3141,0.15519 0.61392,0.31348 0.89947,0.47488c0.28555,0.1614 0.52143,0.31348 0.70766,0.45625l-0.62386,0.67041c-0.17381,-0.14277 -0.39852,-0.29796 -0.67414,-0.46556c-0.27686,-0.1676 -0.57047,-0.33396 -0.88085,-0.49908c-0.31038,-0.16388 -0.60834,-0.30789 -0.89388,-0.43204M356.41667,190.17832h4.00385v0.8287h-4.00385v-0.8287M360.10394,190.17832h0.13036l0.13967,-0.02793l0.61454,0.14898c-0.0869,0.29796 -0.18312,0.60647 -0.28865,0.92554c-0.10553,0.32031 -0.21416,0.58909 -0.32589,0.80636l-0.71697,-0.20485c0.0869,-0.19243 0.17071,-0.43142 0.2514,-0.71697c0.0807,-0.28555 0.14588,-0.55247 0.19554,-0.80077v-0.13036M358.1765,190.42973h0.88457v4.57184l-0.88457,-0.41901v-4.15283M358.53033,192.34785h2.10435v0.8287h-2.10435v-0.8287M357.4316,192.76686c0.11174,0.4097 0.25265,0.73994 0.42273,0.99072c0.17133,0.25203 0.36376,0.44322 0.5773,0.57357c0.21478,0.13036 0.44322,0.22037 0.68531,0.27003c0.24209,0.04966 0.4935,0.07449 0.75421,0.07449c0.06208,0 0.17071,0 0.32589,0c0.15519,0 0.31348,0 0.47488,0c0.1614,0 0.28555,0 0.37245,0c-0.05587,0.09311 -0.10677,0.22347 -0.1527,0.39107c-0.04718,0.1676 -0.08318,0.30727 -0.10801,0.41901h-0.2514h-0.72628c-0.33521,0 -0.65179,-0.03414 -0.94975,-0.10242c-0.29796,-0.06828 -0.5742,-0.19119 -0.8287,-0.36873c-0.25451,-0.17629 -0.48295,-0.42894 -0.68531,-0.75794c-0.20112,-0.329 -0.37307,-0.75111 -0.51584,-1.26633l0.60523,-0.22347M356.75188,191.50984l0.88457,0.02793c-0.03104,0.9063 -0.12912,1.699 -0.29424,2.3781c-0.16388,0.68034 -0.44446,1.2533 -0.84174,1.71886c-0.04966,-0.04966 -0.12105,-0.11049 -0.21416,-0.1825c-0.09311,-0.07077 -0.18933,-0.13905 -0.28865,-0.20485c-0.09932,-0.06456 -0.18312,-0.11546 -0.2514,-0.1527c0.26692,-0.26072 0.46991,-0.57109 0.60896,-0.93113c0.14029,-0.36004 0.24023,-0.76352 0.29982,-1.21047c0.05835,-0.44694 0.09063,-0.92802 0.09684,-1.44325zM368.18612,192.02196l0.84733,-0.36314c0.18002,0.34141 0.36004,0.7089 0.54005,1.10246c0.18002,0.3948 0.34576,0.77842 0.49722,1.15087c0.1527,0.37245 0.2663,0.69835 0.34079,0.97768l-0.92182,0.44694c-0.07449,-0.28555 -0.18188,-0.61765 -0.32217,-0.99631c-0.13905,-0.37866 -0.29424,-0.77159 -0.46556,-1.17881c-0.17009,-0.40597 -0.34203,-0.78587 -0.51584,-1.1397M365.83968,188.05535l0.8287,-0.29796c0.15519,0.31038 0.30727,0.64558 0.45625,1.00562c0.14898,0.36004 0.28244,0.70766 0.40038,1.04286c0.11794,0.33521 0.20485,0.63317 0.26072,0.89388l-0.90319,0.35383c-0.04966,-0.26072 -0.12912,-0.56364 -0.23837,-0.90878c-0.10801,-0.3439 -0.23216,-0.69897 -0.37245,-1.06521c-0.13905,-0.36624 -0.28306,-0.70766 -0.43204,-1.02424M368.54926,187.14285l0.99631,0.01862c-0.03104,0.987 -0.09001,1.8995 -0.17691,2.73752c-0.0869,0.83801 -0.22037,1.60775 -0.40038,2.3092c-0.18002,0.70145 -0.42832,1.33151 -0.7449,1.89019c-0.31658,0.55868 -0.72007,1.04907 -1.21047,1.47118c-0.04966,-0.06208 -0.12415,-0.13967 -0.22347,-0.23278c-0.09932,-0.09311 -0.20299,-0.18623 -0.311,-0.27934c-0.10925,-0.09311 -0.20423,-0.1676 -0.28493,-0.22347c0.47798,-0.35383 0.86781,-0.78525 1.1695,-1.29427c0.30044,-0.50902 0.53323,-1.08632 0.69835,-1.7319c0.16388,-0.64558 0.2812,-1.35821 0.35197,-2.13787c0.07201,-0.77842 0.11732,-1.62078 0.13594,-2.52708M363.32564,186.92869l0.92182,0.27003c-0.17381,0.54005 -0.38176,1.08135 -0.62386,1.62389c-0.24209,0.54378 -0.50777,1.059 -0.79705,1.54567c-0.28803,0.48791 -0.58723,0.91809 -0.89761,1.29054c-0.02483,-0.0807 -0.06704,-0.18933 -0.12663,-0.32589c-0.05835,-0.13657 -0.12043,-0.27313 -0.18623,-0.4097c-0.06456,-0.13657 -0.12477,-0.2483 -0.18064,-0.33521c0.26072,-0.29796 0.50902,-0.64248 0.7449,-1.03355c0.23589,-0.39107 0.45129,-0.81194 0.6462,-1.26261c0.19616,-0.44942 0.36252,-0.90381 0.49908,-1.36317M362.58074,189.40549l0.93113,-0.92182l0.02793,0.01862v7.08588h-0.95906v-6.18269M364.73164,194.88983l-0.21416,-0.99631l0.26072,-0.35383l2.23471,-1.42463c0.03725,0.13036 0.0869,0.27934 0.14898,0.44694c0.06208,0.1676 0.12105,0.30106 0.17691,0.40038c-0.52143,0.35383 -0.94354,0.64248 -1.26633,0.86595c-0.32279,0.22347 -0.57295,0.40038 -0.75049,0.53074c-0.17629,0.13036 -0.30665,0.23589 -0.39107,0.31658c-0.08318,0.0807 -0.1496,0.15208 -0.19926,0.21416M364.61059,187.53392h0.96837v6.36891l-0.84733,0.987c-0.03104,-0.07449 -0.07884,-0.16947 -0.14339,-0.28493c-0.0658,-0.11422 -0.13284,-0.22906 -0.20112,-0.34452c-0.06828,-0.11422 -0.13036,-0.20236 -0.18623,-0.26444c0.09311,-0.06828 0.18498,-0.17878 0.27561,-0.33148c0.08939,-0.15146 0.13408,-0.33272 0.13408,-0.54378zM371.83614,187.18009h6.87172v0.72628h-6.87172v-0.72628M372.24584,190.93254h6.91828v0.68903h-6.91828v-0.68903M373.09317,191.91953h5.55883v0.60523h-5.55883v-0.60523M372.22722,192.84135h7.29073v0.67041h-7.29073v-0.67041M372.46,189.21926h1.96468v0.52143h-1.96468v-0.52143M372.25515,190.0759h2.17884v0.51212h-2.17884v-0.51212M376.0914,190.0759h2.20677v0.51212h-2.20677v-0.51212M376.0914,189.21926h1.9833v0.52143h-1.9833v-0.52143M374.75989,187.48736h0.987v3.25895h-0.987v-3.25895M371.24022,188.27882h8.08219v1.62947h-0.96837v-1.03355h-6.192v1.03355h-0.92182v-1.62947M371.7989,190.93254h0.93113v1.28496c0,0.26072 -0.01552,0.5413 -0.04656,0.84174c-0.03104,0.30169 -0.08877,0.60772 -0.17319,0.91809c-0.08318,0.31038 -0.2005,0.60958 -0.35197,0.89761c-0.1527,0.28927 -0.3501,0.55185 -0.5922,0.78773c-0.04966,-0.06208 -0.11794,-0.13532 -0.20485,-0.21975c-0.0869,-0.08318 -0.17816,-0.16388 -0.27375,-0.24209c-0.09684,-0.07697 -0.1825,-0.13408 -0.25699,-0.17133c0.29175,-0.27934 0.50591,-0.58351 0.64248,-0.91251c0.13657,-0.329 0.22533,-0.65986 0.2663,-0.99258c0.03973,-0.33148 0.05959,-0.63999 0.05959,-0.92554v-1.26633M376.08209,193.19518c0.18623,0.30417 0.45004,0.55681 0.79146,0.75794c0.34141,0.20236 0.74925,0.36066 1.2235,0.47488c0.4755,0.11546 1.005,0.19181 1.5885,0.22906c-0.0869,0.0869 -0.17691,0.20485 -0.27003,0.35383c-0.09311,0.14898 -0.1676,0.28555 -0.22347,0.4097c-0.63937,-0.06828 -1.2086,-0.18623 -1.70769,-0.35383c-0.50033,-0.1676 -0.93051,-0.39294 -1.29054,-0.676c-0.36004,-0.28182 -0.658,-0.62758 -0.89388,-1.03728l0.78215,-0.15829M378.25161,193.43727l0.73559,0.37245c-0.22347,0.14898 -0.45936,0.28679 -0.70766,0.41342c-0.2483,0.12787 -0.47488,0.23837 -0.67972,0.33148l-0.60523,-0.33521c0.13657,-0.07449 0.28058,-0.15705 0.43204,-0.24768c0.1527,-0.08939 0.30169,-0.1825 0.44694,-0.27934c0.1465,-0.0956 0.27251,-0.18064 0.37804,-0.25513M373.16766,195.59749l-0.04656,-0.65179l0.39107,-0.27003l2.56991,-0.36314c-0.02483,0.11174 -0.04656,0.24023 -0.06518,0.38549c-0.01862,0.1465 -0.02793,0.2663 -0.02793,0.35942c-0.57109,0.09311 -1.03231,0.16884 -1.38366,0.2272c-0.3501,0.05959 -0.62137,0.10801 -0.81381,0.14526c-0.19243,0.03725 -0.3321,0.06828 -0.41901,0.09311c-0.0869,0.02483 -0.15519,0.04966 -0.20485,0.07449M373.16766,195.59749c-0.02483,-0.07449 -0.06208,-0.16015 -0.11174,-0.25699c-0.04966,-0.0956 -0.10429,-0.19181 -0.16388,-0.28865c-0.05835,-0.0956 -0.11236,-0.17443 -0.16202,-0.23651c0.10553,-0.05587 0.2185,-0.15084 0.33893,-0.28493c0.12167,-0.13284 0.1825,-0.30479 0.1825,-0.51584v-0.89388l0.96837,0.01862v1.51774c0,0 -0.03538,0.02173 -0.10615,0.06518c-0.07201,0.04345 -0.15891,0.10242 -0.26072,0.17691c-0.10305,0.07449 -0.20733,0.15208 -0.31286,0.23278c-0.10553,0.0807 -0.19367,0.16264 -0.26444,0.24582c-0.07201,0.08442 -0.10801,0.15767 -0.10801,0.21975zM380.77497,188.53023h7.64456v4.59046h-1.04286v-3.60346h-5.59608v3.65002h-1.00562v-4.63702M381.2964,191.6495h6.66687v0.987h-6.66687v-0.987M384.04323,186.90075h1.05217v8.68742h-1.05217zM392.63754,188.50229h5.17707v0.97768h-5.17707v-0.97768M393.20553,190.04796l0.90319,-0.20485c0.07449,0.31658 0.14588,0.64869 0.21416,0.99631c0.06828,0.34762 0.1316,0.69214 0.18995,1.03355c0.05959,0.34141 0.11111,0.66545 0.15457,0.9721c0.04345,0.30789 0.07759,0.58289 0.10242,0.82498l-0.987,0.27934c-0.01862,-0.24209 -0.04656,-0.52143 -0.0838,-0.83801c-0.03725,-0.31658 -0.08256,-0.65055 -0.13594,-1.00189c-0.05214,-0.3501 -0.10801,-0.70207 -0.1676,-1.0559c-0.05835,-0.35383 -0.12167,-0.68903 -0.18995,-1.00562M396.34343,189.80587l1.05217,0.15829c-0.06828,0.39107 -0.14277,0.7958 -0.22347,1.21419c-0.0807,0.41963 -0.16636,0.83553 -0.25699,1.24771c-0.08939,0.41342 -0.1825,0.80636 -0.27934,1.17881c-0.0956,0.37245 -0.18685,0.70766 -0.27375,1.00562l-0.86595,-0.18623c0.0869,-0.30417 0.17195,-0.64744 0.25513,-1.02983c0.08442,-0.38114 0.16574,-0.78153 0.24396,-1.20115c0.07697,-0.41839 0.1465,-0.83243 0.20857,-1.24212c0.06208,-0.4097 0.10863,-0.79146 0.13967,-1.14529M392.28371,194.25666h5.8661v0.95906h-5.8661v-0.95906M394.44393,187.0218l0.94975,-0.23278c0.0869,0.22347 0.17505,0.46867 0.26444,0.73559c0.09063,0.26692 0.16078,0.49971 0.21043,0.69835l-0.99631,0.27934c-0.03725,-0.19864 -0.09746,-0.43639 -0.18064,-0.71324c-0.08442,-0.27561 -0.16698,-0.53136 -0.24768,-0.76725M391.72503,186.938l0.94044,0.28865c-0.19864,0.52764 -0.43453,1.05342 -0.70766,1.57733c-0.27313,0.52516 -0.56799,1.02176 -0.88457,1.4898c-0.31658,0.46929 -0.64558,0.88085 -0.987,1.23468c-0.02483,-0.0807 -0.07014,-0.18623 -0.13594,-0.31658c-0.06456,-0.13036 -0.13284,-0.26258 -0.20485,-0.39666c-0.07077,-0.13284 -0.13719,-0.23961 -0.19926,-0.32031c0.29175,-0.28555 0.57233,-0.61951 0.84174,-1.00189c0.27065,-0.38114 0.52081,-0.78898 0.75049,-1.2235c0.22968,-0.43453 0.42522,-0.87836 0.58661,-1.33151M390.77528,189.46135l1.00562,-1.00562v0.00931v7.11382h-1.00562zM404.70495,187.91568v0.62386h1.21978v-0.62386h-1.21978M402.6006,187.91568v0.62386h1.19184v-0.62386h-1.19184M400.52419,187.91568v0.62386h1.16391v-0.62386h-1.16391M399.57444,187.24527h7.35591v1.97399h-7.35591v-1.97399M399.17405,189.64758h7.97976v0.7449h-7.97976v-0.7449M402.65647,189.01441l1.03355,0.05587c-0.04345,0.329 -0.09932,0.67786 -0.1676,1.04659c-0.06828,0.36997 -0.13346,0.68841 -0.19554,0.95534h-0.93113c0.03725,-0.18002 0.07263,-0.38797 0.10615,-0.62386c0.03476,-0.23589 0.0658,-0.47984 0.09311,-0.73187c0.02855,-0.25078 0.04904,-0.48481 0.06145,-0.70207M399.05301,194.62911h8.36153v0.70766h-8.36153v-0.70766M400.69179,191.81711h5.0374v0.52143h-5.0374v-0.52143M400.72904,192.74823h4.99084v0.51212h-4.99084v-0.51212M400.76628,193.68867h5.00947v0.52143h-5.00947v-0.52143M400.17967,190.81149h6.05233v4.2087h-0.987v-3.59415h-4.11558v3.59415h-0.94975zM408.57844,189.09821h7.14175v1.00562h-7.14175v-1.00562M415.30119,189.09821h1.04286c0,0 0,0.03104 0,0.09311c0,0.06208 0,0.13036 0,0.20485c0,0.07449 -0.0031,0.13657 -0.00931,0.18623c-0.03104,0.9063 -0.06518,1.67913 -0.10242,2.31851c-0.03725,0.63937 -0.07759,1.16826 -0.12105,1.58664c-0.04345,0.41963 -0.09808,0.74863 -0.16388,0.987c-0.06456,0.23961 -0.14339,0.41839 -0.23651,0.53633c-0.12415,0.1614 -0.25451,0.27437 -0.39107,0.33893c-0.13657,0.0658 -0.29796,0.10801 -0.48419,0.12663c-0.17381,0.02483 -0.39542,0.03725 -0.66483,0.03725c-0.27065,0 -0.54874,-0.00621 -0.83429,-0.01862c-0.00621,-0.14898 -0.04221,-0.32465 -0.10801,-0.52702c-0.06456,-0.20112 -0.1465,-0.37307 -0.24582,-0.51584c0.29796,0.02483 0.5742,0.03849 0.8287,0.04097c0.25451,0.00372 0.44073,0.00559 0.55868,0.00559c0.09311,0.00621 0.17071,-0.00186 0.23278,-0.02421c0.06208,-0.02111 0.12105,-0.05959 0.17691,-0.11546c0.06828,-0.07449 0.12912,-0.22223 0.1825,-0.44322c0.05214,-0.21975 0.09994,-0.53012 0.14339,-0.93113c0.04345,-0.39976 0.0807,-0.90381 0.11174,-1.51215c0.03104,-0.60834 0.05897,-1.33462 0.0838,-2.17884v-0.19554M411.52081,186.91938h1.01493v1.21978c0,0.4097 -0.01738,0.85788 -0.05214,1.34455c-0.03352,0.48791 -0.11111,0.99382 -0.23278,1.51774c-0.12043,0.52516 -0.30479,1.04845 -0.55309,1.56988c-0.2483,0.52143 -0.57854,1.02548 -0.99072,1.51215c-0.41342,0.48791 -0.93671,0.93982 -1.56988,1.35572c-0.05587,-0.0807 -0.13036,-0.1676 -0.22347,-0.26072c-0.09311,-0.09311 -0.19119,-0.18498 -0.29424,-0.27561c-0.1018,-0.08939 -0.19305,-0.15891 -0.27375,-0.20857c0.58971,-0.37245 1.07825,-0.77904 1.4656,-1.21978c0.38859,-0.44073 0.69772,-0.89699 0.9274,-1.36876c0.22968,-0.47177 0.40038,-0.94044 0.51212,-1.406c0.11174,-0.46556 0.18498,-0.91747 0.21975,-1.35572c0.03352,-0.43701 0.05028,-0.83864 0.05028,-1.20488v-1.21978M409.2023,187.49667l0.87526,-0.35383c0.17381,0.20485 0.35383,0.43887 0.54005,0.70207c0.18623,0.26444 0.32279,0.49288 0.4097,0.68531l-0.93113,0.40038c-0.04966,-0.13036 -0.12415,-0.2781 -0.22347,-0.44322c-0.09932,-0.16388 -0.20671,-0.33272 -0.32217,-0.50653c-0.11422,-0.17381 -0.2303,-0.33521 -0.34824,-0.48419M412.40538,191.44466l0.83801,-0.39107c0.14277,0.17381 0.29051,0.36438 0.44322,0.57171c0.15146,0.20857 0.29362,0.41342 0.42646,0.61454c0.13408,0.20236 0.23837,0.38425 0.31286,0.54564l-0.89388,0.44694c-0.06828,-0.1614 -0.1645,-0.34638 -0.28865,-0.55495c-0.12415,-0.20733 -0.25947,-0.41839 -0.40597,-0.63317c-0.14526,-0.21354 -0.28927,-0.41342 -0.43204,-0.59965z" fill="#ffffff" fill-rule="nonzero" stroke-width="1"/><path d="M249.87703,199.32386h7.64456v4.59046h-1.04286v-3.60346h-5.59608v3.65002h-1.00562v-4.63702M250.39847,202.44314h6.66687v0.987h-6.66687v-0.987M253.14529,197.69439h1.05217v8.68742h-1.05217zM261.09712,200.33879h1.03355v4.42286c0,0.22347 0.03414,0.36438 0.10242,0.42273c0.06828,0.05959 0.22037,0.08939 0.45625,0.08939c0.06208,0 0.15829,0 0.28865,0c0.13036,0 0.27313,0 0.42832,0c0.15519,0 0.30293,0 0.44322,0c0.13905,0 0.23961,0 0.30169,0c0.17381,0 0.30231,-0.04656 0.38549,-0.13967c0.08442,-0.09311 0.14526,-0.27003 0.1825,-0.53074c0.03725,-0.26072 0.06518,-0.63937 0.0838,-1.13598c0.0807,0.05587 0.17691,0.11298 0.28865,0.17133c0.11174,0.05959 0.22657,0.11111 0.34452,0.15457c0.11794,0.04345 0.22037,0.07759 0.30727,0.10242c-0.03725,0.58971 -0.10367,1.05342 -0.19926,1.3911c-0.09684,0.33893 -0.24644,0.57668 -0.4488,0.71324c-0.20112,0.13657 -0.49101,0.20485 -0.86967,0.20485c-0.04966,0 -0.13036,0 -0.24209,0c-0.11174,0 -0.23899,0 -0.38176,0c-0.14277,0 -0.28244,0 -0.41901,0c-0.13657,0 -0.26072,0 -0.37245,0c-0.11174,0 -0.18933,0 -0.23278,0c-0.38487,0 -0.68593,-0.04345 -0.90319,-0.13036c-0.21726,-0.0869 -0.36811,-0.23589 -0.45253,-0.44694c-0.08318,-0.21106 -0.12477,-0.50281 -0.12477,-0.87526v-4.41355M259.45834,200.93471l0.97768,0.18623c-0.03725,0.39107 -0.09125,0.81753 -0.16202,1.27937c-0.07201,0.46308 -0.15457,0.91623 -0.24768,1.35945c-0.09311,0.44446 -0.19554,0.8436 -0.30727,1.19743l-1.01493,-0.41901c0.11794,-0.329 0.22782,-0.69524 0.32962,-1.09873c0.10305,-0.40349 0.19057,-0.8225 0.26258,-1.25702c0.07077,-0.43453 0.12477,-0.85043 0.16202,-1.24771M265.27789,201.01851l0.93113,-0.37245c0.17381,0.36624 0.34141,0.75856 0.50281,1.17695c0.1614,0.41963 0.30541,0.82932 0.43204,1.22909c0.12787,0.40101 0.22285,0.7629 0.28493,1.08569l-1.00562,0.41901c-0.04966,-0.31658 -0.13346,-0.67972 -0.2514,-1.08942c-0.11794,-0.4097 -0.25451,-0.8287 -0.4097,-1.25702c-0.15519,-0.42832 -0.31658,-0.8256 -0.48419,-1.19184M261.45095,198.56033l0.67041,-0.67041c0.28555,0.18623 0.59282,0.39418 0.92182,0.62386c0.329,0.22968 0.64248,0.4637 0.94044,0.70207c0.29796,0.23961 0.53695,0.45563 0.71697,0.64806l-0.72628,0.77284c-0.17381,-0.19243 -0.40349,-0.41156 -0.68903,-0.65738c-0.28555,-0.24458 -0.58971,-0.49288 -0.91251,-0.7449c-0.32279,-0.25078 -0.63006,-0.4755 -0.92182,-0.67414zM269.36554,206.78219l-0.27003,-0.67972c0.39107,-0.13036 0.68903,-0.30727 0.89388,-0.53074c0.20485,-0.22347 0.30727,-0.48108 0.30727,-0.77284l-0.09311,-0.88457l0.51212,0.80077c-0.07449,0.07449 -0.15829,0.12725 -0.2514,0.15829c-0.09311,0.03104 -0.18933,0.04656 -0.28865,0.04656c-0.21726,0 -0.41094,-0.06828 -0.58102,-0.20485c-0.17133,-0.13657 -0.25699,-0.329 -0.25699,-0.5773c0,-0.25451 0.08566,-0.45004 0.25699,-0.58661c0.17009,-0.13657 0.36997,-0.20485 0.59965,-0.20485c0.31038,0 0.54626,0.10987 0.70766,0.32962c0.1614,0.22099 0.24209,0.51771 0.24209,0.89016c0,0.52143 -0.15829,0.97768 -0.47488,1.36876c-0.31658,0.39107 -0.75111,0.67352 -1.30358,0.84733zM278.89097,198.32755h5.81024v0.94975h-5.81024v-0.94975M278.89097,200.47846h5.81955v0.94044h-5.81955v-0.94044M278.86304,202.68523h5.87542v0.94044h-5.87542v-0.94044M278.32299,198.32755h0.987v3.36137c0,0.36004 -0.01552,0.75235 -0.04656,1.17695c-0.03104,0.42584 -0.09187,0.85415 -0.1825,1.28496c-0.08939,0.43204 -0.22099,0.8436 -0.3948,1.23468c-0.17381,0.39107 -0.40349,0.7418 -0.68903,1.05217c-0.04966,-0.06208 -0.12415,-0.13657 -0.22347,-0.22347c-0.09932,-0.0869 -0.19864,-0.16947 -0.29796,-0.24768c-0.09932,-0.07697 -0.18623,-0.13408 -0.26072,-0.17133c0.25451,-0.28555 0.45625,-0.59778 0.60523,-0.93671c0.14898,-0.33769 0.25885,-0.68841 0.32962,-1.05217c0.07201,-0.36252 0.11856,-0.72566 0.13967,-1.08942c0.02235,-0.36252 0.03352,-0.70828 0.03352,-1.03728v-3.35206M284.33807,198.32755h0.987v6.8531c0,0.27313 -0.03538,0.48543 -0.10615,0.63689c-0.07201,0.1527 -0.19492,0.26941 -0.36873,0.3501c-0.18002,0.0807 -0.41404,0.13036 -0.70207,0.14898c-0.28927,0.01862 -0.65117,0.02483 -1.08569,0.01862c-0.01862,-0.13036 -0.06021,-0.29051 -0.12477,-0.48046c-0.0658,-0.18871 -0.13284,-0.34824 -0.20112,-0.4786c0.19243,0.01241 0.38176,0.01862 0.56799,0.01862c0.18623,0 0.35073,0 0.4935,0c0.14277,0 0.24209,0 0.29796,0c0.0869,0 0.14898,-0.01738 0.18623,-0.05214c0.03725,-0.03352 0.05587,-0.09063 0.05587,-0.17133v-6.84379M281.20948,198.7h1.00562v7.57938h-1.00562zM286.97316,198.02959h7.96114v8.35222h-1.01493v-7.53282h-5.97784v7.53282h-0.96837v-8.35222M287.56909,205.27377h6.88103v0.80077h-6.88103v-0.80077M289.6455,199.88254v0.52143h2.54198v-0.52143h-2.54198M288.77024,199.23075h4.33906v1.82501h-4.33906v-1.82501M290.53938,202.47107h0.86595v0.54937c0,0.18002 -0.03414,0.36624 -0.10242,0.55868c-0.06828,0.19243 -0.19864,0.383 -0.39107,0.57171c-0.19243,0.18995 -0.47488,0.36997 -0.84733,0.54005c-0.37245,0.17133 -0.86595,0.32217 -1.48049,0.45253c-0.05587,-0.10553 -0.13532,-0.23278 -0.23837,-0.38176c-0.1018,-0.14898 -0.20236,-0.27003 -0.30169,-0.36314c0.57109,-0.09311 1.02424,-0.1974 1.35945,-0.31286c0.33521,-0.11422 0.58351,-0.23651 0.7449,-0.36686c0.1614,-0.13036 0.26692,-0.25761 0.31658,-0.38176c0.04966,-0.12415 0.07449,-0.23899 0.07449,-0.34452v-0.52143M291.19117,204.24952l0.37245,-0.64248c0.21726,0.07449 0.45501,0.1614 0.71324,0.26072c0.25699,0.09932 0.50964,0.19864 0.75794,0.29796c0.2483,0.09932 0.45315,0.19243 0.61454,0.27934l-0.38176,0.71697c-0.14898,-0.0807 -0.34452,-0.17567 -0.58661,-0.28493c-0.24209,-0.10801 -0.49474,-0.21788 -0.75794,-0.32962c-0.26444,-0.11174 -0.5084,-0.21106 -0.73187,-0.29796M288.58401,201.48408h4.7022v2.25333h-0.93113v-1.49912h-2.8865v1.57361h-0.88457zM296.07959,198.25306h4.8698v0.92182h-4.8698v-0.92182M295.9213,201.30716h5.14914v0.92182h-5.14914v-0.92182M299.16163,198.50447h0.97768v7.87734h-0.97768v-7.87734M297.03865,198.49516h0.93113v3.09134c0,0.5773 -0.0298,1.15584 -0.08939,1.73562c-0.05835,0.58102 -0.18685,1.1366 -0.38549,1.66672c-0.19864,0.53136 -0.50902,1.02052 -0.93113,1.46746c-0.04966,-0.06828 -0.11794,-0.14588 -0.20485,-0.23278c-0.0869,-0.0869 -0.17816,-0.17071 -0.27375,-0.2514c-0.09684,-0.0807 -0.1825,-0.14588 -0.25699,-0.19554c0.36004,-0.39107 0.62572,-0.81629 0.79705,-1.27564c0.17009,-0.45936 0.2812,-0.93609 0.33334,-1.43021c0.05338,-0.49288 0.08008,-0.98762 0.08008,-1.48422v-3.09134M303.31446,197.83405l0.94975,0.38176c-0.23589,0.29796 -0.49971,0.58785 -0.79146,0.86967c-0.29175,0.28306 -0.59903,0.54254 -0.92182,0.77842c-0.32279,0.23589 -0.64558,0.44694 -0.96837,0.63317c-0.0807,-0.11174 -0.18747,-0.23464 -0.32031,-0.36873c-0.13408,-0.13284 -0.2632,-0.24582 -0.38735,-0.33893c0.29175,-0.14898 0.59158,-0.32776 0.89947,-0.53633c0.30665,-0.20733 0.59468,-0.43391 0.86409,-0.67972c0.27065,-0.24458 0.49598,-0.49101 0.676,-0.73932M303.52861,200.40397l0.91251,0.37245c-0.23589,0.31038 -0.50591,0.61454 -0.81008,0.91251c-0.30417,0.29796 -0.62075,0.5742 -0.94975,0.8287c-0.329,0.25451 -0.658,0.47798 -0.987,0.67041c-0.0807,-0.10553 -0.18623,-0.22533 -0.31658,-0.35942c-0.13036,-0.13284 -0.25761,-0.24582 -0.38176,-0.33893c0.29796,-0.1614 0.60523,-0.35259 0.92182,-0.57357c0.31658,-0.21975 0.61765,-0.46184 0.90319,-0.72628c0.28555,-0.2632 0.52143,-0.52516 0.70766,-0.78587M303.70553,202.89008l0.94975,0.37245c-0.26072,0.44073 -0.57109,0.85353 -0.93113,1.2384c-0.36004,0.38487 -0.75297,0.73559 -1.17881,1.05217c-0.42459,0.31658 -0.86967,0.58971 -1.33524,0.81939c-0.07449,-0.12415 -0.17816,-0.26382 -0.311,-0.41901c-0.13408,-0.15519 -0.2632,-0.28555 -0.38735,-0.39107c0.42832,-0.18623 0.84422,-0.41466 1.24771,-0.68531c0.40349,-0.26941 0.77408,-0.57171 1.11177,-0.90692c0.33893,-0.33521 0.61703,-0.69524 0.83429,-1.08011zM308.07252,199.31455h5.49365v0.96837h-5.49365v-0.96837M309.28298,197.92717h0.987v3.10066c0,0.31658 -0.01738,0.65179 -0.05214,1.00562c-0.03352,0.35383 -0.09808,0.70766 -0.19367,1.06149c-0.09684,0.35383 -0.23837,0.68717 -0.42459,1.00003c-0.18623,0.3141 -0.42832,0.5922 -0.72628,0.83429c-0.04345,-0.06208 -0.11174,-0.13967 -0.20485,-0.23278c-0.09311,-0.09311 -0.18933,-0.18498 -0.28865,-0.27561c-0.09932,-0.08939 -0.18312,-0.1527 -0.2514,-0.18995c0.35383,-0.29175 0.61144,-0.61765 0.77284,-0.97768c0.1614,-0.36004 0.26568,-0.73249 0.31286,-1.11735c0.04594,-0.38487 0.0689,-0.75732 0.0689,-1.11735v-3.09134M307.99803,201.68892h5.75437v0.94975h-5.75437v-0.94975M307.44866,201.07438v3.67795h-0.987v-2.74683h-1.13598v-0.93113h2.12297M306.93654,204.27746c0.1614,0 0.31658,0.05401 0.46556,0.16202c0.14898,0.10925 0.35383,0.24147 0.61454,0.39666c0.31658,0.18623 0.68469,0.30231 1.10432,0.34824c0.41839,0.04718 0.8883,0.07077 1.40973,0.07077c0.25451,0 0.53074,-0.0031 0.8287,-0.00931c0.29796,-0.00621 0.60213,-0.01862 0.91251,-0.03725c0.31038,-0.01862 0.6102,-0.04221 0.89947,-0.07077c0.28803,-0.02731 0.54999,-0.05649 0.78587,-0.08753c-0.03725,0.0869 -0.07759,0.19554 -0.12105,0.32589c-0.04345,0.13036 -0.0807,0.25885 -0.11174,0.38549c-0.03104,0.12787 -0.04966,0.23837 -0.05587,0.33148c-0.1676,0.00621 -0.3799,0.01552 -0.63689,0.02793c-0.25823,0.01241 -0.5413,0.02297 -0.84919,0.03166c-0.30665,0.00993 -0.6071,0.018 -0.90133,0.02421c-0.29548,0.00621 -0.55806,0.00931 -0.78773,0.00931c-0.58971,0 -1.09252,-0.03414 -1.50843,-0.10242c-0.4159,-0.06828 -0.79146,-0.19554 -1.12666,-0.38176c-0.21106,-0.11794 -0.39418,-0.23589 -0.54937,-0.35383c-0.15519,-0.11794 -0.28555,-0.17691 -0.39107,-0.17691c-0.09932,0 -0.20981,0.05711 -0.33148,0.17133c-0.12043,0.11546 -0.24582,0.2632 -0.37618,0.44322c-0.13036,0.18002 -0.25761,0.36624 -0.38176,0.55868l-0.67041,-0.94975c0.31658,-0.33521 0.63317,-0.60523 0.94975,-0.81008c0.31658,-0.20485 0.59282,-0.30727 0.8287,-0.30727M305.52123,198.42998l0.71697,-0.55868c0.1676,0.14898 0.34452,0.31348 0.53074,0.4935c0.18623,0.18002 0.365,0.35817 0.53633,0.53447c0.17009,0.17754 0.30479,0.33769 0.40411,0.48046l-0.76352,0.63317c-0.09311,-0.14898 -0.22037,-0.31534 -0.38176,-0.49908c-0.1614,-0.1825 -0.3321,-0.36997 -0.51212,-0.5624c-0.18002,-0.19243 -0.35693,-0.36624 -0.53074,-0.52143M311.46182,197.93648h0.99631v6.88103h-0.99631zM318.34286,198.23444h4.56253v0.94975h-4.56253v-0.94975M320.81035,201.10231h1.02424v4.10627c0,0.27313 -0.036,0.48729 -0.10801,0.64248c-0.07077,0.15519 -0.20236,0.27313 -0.3948,0.35383c-0.18623,0.06828 -0.42522,0.11174 -0.71697,0.13036c-0.29175,0.01862 -0.65489,0.02793 -1.08942,0.02793c-0.01862,-0.14277 -0.05711,-0.31038 -0.11546,-0.50281c-0.05959,-0.19243 -0.12353,-0.36004 -0.19181,-0.50281c0.19243,0.00621 0.38176,0.01055 0.56799,0.01304c0.18623,0.00372 0.35073,0.00559 0.4935,0.00559c0.14277,0 0.24209,0 0.29796,0c0.0869,-0.00621 0.14774,-0.02173 0.1825,-0.04656c0.03352,-0.02483 0.05028,-0.07139 0.05028,-0.13967v-4.08765M317.94247,200.81366h5.21432v0.94975h-5.21432v-0.94975M315.92192,201.80997l0.87526,-0.88457l0.12105,0.05587v5.41916h-0.99631v-4.59046M316.98341,199.71493l0.94044,0.35383c-0.23589,0.4097 -0.51336,0.81753 -0.83243,1.2235c-0.32031,0.40721 -0.65303,0.78898 -0.99817,1.14529c-0.3439,0.35755 -0.68345,0.6729 -1.01865,0.94603c-0.04966,-0.07449 -0.11484,-0.16636 -0.19554,-0.27561c-0.0807,-0.10801 -0.16574,-0.21664 -0.25513,-0.32589c-0.09063,-0.10801 -0.17009,-0.19305 -0.23837,-0.25513c0.32279,-0.22347 0.64248,-0.48729 0.95906,-0.79146c0.31658,-0.30417 0.61641,-0.63006 0.89947,-0.97768c0.28182,-0.34762 0.52826,-0.69524 0.73932,-1.04286M316.62027,197.69439l0.95906,0.39107c-0.21726,0.28555 -0.46743,0.5773 -0.75049,0.87526c-0.28182,0.29796 -0.57668,0.5804 -0.88457,0.84733c-0.30665,0.26692 -0.60585,0.50281 -0.89761,0.70766c-0.04345,-0.07449 -0.09808,-0.16326 -0.16388,-0.2663c-0.06456,-0.1018 -0.13222,-0.20423 -0.20299,-0.30727c-0.07201,-0.1018 -0.13594,-0.18374 -0.19181,-0.24582c0.26072,-0.1676 0.52453,-0.36624 0.79146,-0.59592c0.26692,-0.22968 0.51833,-0.46743 0.75421,-0.71324c0.23589,-0.24458 0.43142,-0.4755 0.58661,-0.69276zM326.02466,200.35741v0.71697h4.2925v-0.71697h-4.2925M326.02466,198.90485v0.71697h4.2925v-0.71697h-4.2925M325.04698,198.13202h6.29442v3.72451h-6.29442v-3.72451M323.83651,205.01305h8.69673v0.94975h-8.69673v-0.94975M326.62989,202.17311h0.94975v3.36137h-0.94975v-3.36137M328.74355,202.17311h0.94975v3.36137h-0.94975v-3.36137M331.05275,202.37796l0.84733,0.38176c-0.18002,0.32279 -0.3799,0.64869 -0.59965,0.97768c-0.22099,0.329 -0.4277,0.61144 -0.62013,0.84733l-0.76352,-0.35383c0.13036,-0.1676 0.26568,-0.35693 0.40597,-0.56799c0.13905,-0.21106 0.27561,-0.42832 0.4097,-0.65179c0.13284,-0.22347 0.23961,-0.43453 0.32031,-0.63317M324.54417,202.77834l0.77284,-0.33521c0.11174,0.19243 0.22968,0.39852 0.35383,0.61827c0.12415,0.22099 0.24085,0.43391 0.3501,0.63875c0.10801,0.20485 0.19305,0.38487 0.25513,0.54005l-0.81008,0.39107c-0.06208,-0.1614 -0.14463,-0.34948 -0.24768,-0.56426c-0.1018,-0.21354 -0.21043,-0.43391 -0.32589,-0.6611c-0.11422,-0.22595 -0.2303,-0.43515 -0.34824,-0.62758zM336.97472,201.12094h1.09873v4.06903c0,0.28555 -0.03849,0.50715 -0.11546,0.66483c-0.07821,0.15891 -0.21975,0.27872 -0.42459,0.35942c-0.20485,0.07449 -0.45625,0.12229 -0.75421,0.14339c-0.29796,0.02235 -0.65179,0.03352 -1.06149,0.03352c-0.02483,-0.15519 -0.07139,-0.33396 -0.13967,-0.53633c-0.06828,-0.20112 -0.13967,-0.37618 -0.21416,-0.52516c0.18623,0.00621 0.37369,0.01241 0.5624,0.01862c0.18995,0.00621 0.35942,0.00745 0.5084,0.00372c0.14898,-0.00248 0.2514,-0.00372 0.30727,-0.00372c0.0869,0 0.14774,-0.01241 0.1825,-0.03725c0.03352,-0.02483 0.05028,-0.07139 0.05028,-0.13967v-4.05041M334.77726,202.31278l1.04286,0.27003c-0.13657,0.37245 -0.30417,0.73994 -0.50281,1.10246c-0.19864,0.36376 -0.4097,0.70393 -0.63317,1.02052c-0.22347,0.31658 -0.45004,0.59282 -0.67972,0.8287c-0.06828,-0.06208 -0.16015,-0.13036 -0.27561,-0.20485c-0.11422,-0.07449 -0.22844,-0.14898 -0.34266,-0.22347c-0.11546,-0.07449 -0.21664,-0.13036 -0.30355,-0.1676c0.34762,-0.31658 0.67165,-0.71076 0.9721,-1.18253c0.30169,-0.47177 0.54254,-0.95285 0.72256,-1.44325M339.12563,202.67592l0.93113,-0.39107c0.21726,0.29175 0.43018,0.60523 0.63875,0.94044c0.20733,0.33521 0.39666,0.66545 0.56799,0.99072c0.17009,0.32652 0.29858,0.62323 0.38549,0.89016l-1.03355,0.44694c-0.06828,-0.25451 -0.18126,-0.54812 -0.33893,-0.88085c-0.15891,-0.33148 -0.33955,-0.6729 -0.54192,-1.02424c-0.20112,-0.3501 -0.40411,-0.67414 -0.60896,-0.9721M334.19996,198.31824h6.59238v0.99631h-6.59238v-0.99631M333.36195,200.57157h8.28704v0.99631h-8.28704z" fill="#ffffff" fill-rule="nonzero" stroke-width="1"/></g></g></svg>