<svg version="1.1" xmlns="http://www.w3.org/2000/svg" xmlns:xlink="http://www.w3.org/1999/xlink" width="208" height="32" viewBox="0,0,208,32"><g transform="translate(-240,-164)"><g stroke-miterlimit="10"><path d="M279.49537,187.58817l-0.56108,1.42132c-1.9905,-0.58207 -3.58023,-1.29272 -4.76918,-2.13198c-1.4027,0.94754 -3.13938,1.71913 -5.21003,2.31473l-0.66127,-1.3198c1.91035,-0.46024 3.51343,-1.07614 4.80926,-1.84771c-0.8817,-0.83926 -1.64316,-1.8748 -2.28439,-3.10661c-0.73475,1.92217 -1.85691,3.76989 -3.36649,5.54316l-0.98189,-1.05584c0.96185,-1.05584 1.75671,-2.16921 2.38459,-3.3401c0.62788,-1.1709 1.12884,-2.48731 1.5029,-3.94924h-2.30444v-1.25888h2.58497c0.12023,-0.54146 0.22043,-1.12352 0.30058,-1.7462h-2.60502v-1.25888h1.80347c-0.14695,-0.36549 -0.32061,-0.75804 -0.521,-1.17767c-0.20038,-0.41963 -0.37405,-0.77835 -0.52101,-1.07614l0.98189,-0.46701c-0.65459,0.05415 -1.27578,0.09475 -1.86359,0.12183l-0.10019,-1.29949c1.81683,-0.09475 3.71716,-0.23351 5.70098,-0.41625c1.98382,-0.18274 3.65704,-0.38917 5.01966,-0.61929l0.22042,1.3401c-2.27104,0.32487 -5.23675,0.61591 -8.89713,0.8731c0.18703,0.35195 0.38741,0.7445 0.60116,1.17766c0.21375,0.43317 0.40077,0.83248 0.56108,1.19797l-0.84162,0.34518h3.04586c-0.13359,-0.37902 -0.3106,-0.84602 -0.53102,-1.40102c-0.22042,-0.55499 -0.38407,-0.94755 -0.49095,-1.17767l1.12216,-0.40609c0.14695,0.35195 0.32062,0.78173 0.521,1.28934c0.20038,0.50761 0.36737,0.94416 0.50097,1.30964l-1.06205,0.38579h2.20425c0.50765,-1.06938 0.96185,-2.08461 1.36262,-3.04569l1.10212,0.4264c-0.26718,0.73096 -0.64792,1.60406 -1.1422,2.61929h1.86359v1.25888h-6.73296c-0.09352,0.7445 -0.18703,1.32656 -0.28054,1.7462h7.41428v1.25888h-7.67478c-0.08015,0.33841 -0.21375,0.83249 -0.40077,1.48224h6.67284v1.23857c-0.69467,1.23181 -1.60308,2.31473 -2.72524,3.24874c1.12216,0.62267 2.53822,1.12352 4.24818,1.50254zM332.81802,178.22776h6.29212v1.52284l-1.96378,4.56853l-1.58305,-0.60914l1.82351,-3.9594h-5.69095v6.57869c0,0.64974 -0.08016,1.1506 -0.24047,1.50254c-0.16031,0.35195 -0.43082,0.60237 -0.81156,0.75127c-0.38074,0.1489 -0.91844,0.22335 -1.61311,0.22335h-2.86552l-0.30058,-1.56345h2.60502c0.45421,0 0.79486,-0.03723 1.02197,-0.11168c0.2271,-0.07445 0.38407,-0.21659 0.47091,-0.4264c0.08684,-0.20981 0.13025,-0.53807 0.13025,-0.98477v-5.96955h-7.93528v-1.52284h8.35609c-2.25768,-1.73266 -3.72718,-2.83587 -4.40849,-3.30964l0.86166,-1.17767c0.8817,0.63621 2.06398,1.52285 3.54683,2.6599l4.66898,-3.39087h-11.50214v-1.50254h13.96689v1.50254l-5.89134,4.36549zM299.57402,183.34451h-9.95918c-1.01529,1.13706 -2.25768,2.31472 -3.72717,3.533l8.99732,-0.34518l-2.20425,-2.11167l0.98189,-0.99493c0.57444,0.52792 1.12549,1.04231 1.65318,1.54315c0.52769,0.50084 0.99192,0.94078 1.39269,1.31979c1.44278,1.38071 2.03725,1.94248 1.78343,1.68528l-1.04201,1.15736c-0.2271,-0.24365 -0.64123,-0.67005 -1.24239,-1.27919l-12.38385,0.54823l-0.38073,-1.44162c1.57637,-1.13706 2.95903,-2.3418 4.14799,-3.61422h-5.75108v-1.38071h2.64509v-10.55838h12.38384v10.55838h2.70521zM259.37663,187.56787l-0.46089,1.46193c-3.12602,-0.55499 -5.58408,-1.23857 -7.3742,-2.05076c-1.97714,0.87986 -4.39513,1.61083 -7.25397,2.19289l-0.52101,-1.42132c2.36455,-0.36549 4.44857,-0.88663 6.25204,-1.56345c-1.25575,-0.75804 -2.35119,-1.73266 -3.28633,-2.92386c-1.02865,1.47547 -2.5115,3.01184 -4.44857,4.60914l-0.60115,-1.48224c1.24239,-0.96108 2.2677,-1.93909 3.07592,-2.93401c0.80822,-0.99492 1.47284,-2.10153 1.99384,-3.3198h-4.0478v-1.29949h4.52872c0.18703,-0.52792 0.34734,-1.07614 0.48093,-1.64468l1.50289,0.20305c-0.08015,0.33841 -0.21375,0.81895 -0.40078,1.44162h9.73875v1.29949h-10.1796c-0.26718,0.66329 -0.52101,1.21828 -0.76147,1.66498h9.45821v1.19797c-1.02864,1.23181 -2.35119,2.29442 -3.96763,3.18782c1.70996,0.58207 3.80065,1.0423 6.27207,1.38071zM309.93397,170.49171h1.54297v3.97969h6.87323v8.36549h-6.87323v6.25382h-1.54297v-6.25382h-6.81311v-8.36549h6.81311zM257.13231,176.70491h-13.10524v1.40102h-1.38266v-2.59899h2.88555l-0.82158,-1.7868l1.26243,-0.38579c0.14695,0.27073 0.33398,0.63282 0.56108,1.0863c0.2271,0.45347 0.40077,0.81556 0.521,1.08629h3.22621c-0.50764,-1.1506 -0.8149,-1.83418 -0.92177,-2.05076l1.48286,-0.30457c0.13359,0.28427 0.30058,0.64974 0.50097,1.09644c0.20039,0.4467 0.38073,0.86633 0.54104,1.25888h2.22428c0.61452,-0.94754 1.10213,-1.81387 1.46282,-2.59898l1.38266,0.34518c-0.50765,0.92048 -0.94181,1.67174 -1.3025,2.25381h2.94567v2.59899h-1.46281zM267.65256,185.31406l-0.90173,1.21828l-0.80154,-0.85279l-0.40077,-0.4264c-0.60116,1.08291 -1.50957,2.32826 -2.72525,3.73604l-0.96185,-1.07614c0.62788,-0.70389 1.15555,-1.33672 1.58304,-1.89848c0.42749,-0.56176 0.80155,-1.14721 1.12216,-1.75635c-0.84162,-0.82572 -1.58973,-1.53638 -2.24432,-2.13198c0.38741,-1.7868 0.72139,-3.88495 1.00193,-6.29442h-1.42274v-1.3401h1.58305c0.12023,-1.09645 0.2271,-2.39594 0.32062,-3.89848l1.30251,0.08122c-0.05343,0.98816 -0.16031,2.26058 -0.32062,3.81726h2.78537v1.36041c-0.12023,1.86802 -0.28722,3.4247 -0.50097,4.67005c-0.21375,1.24535 -0.50764,2.34856 -0.8817,3.30964l0.48092,0.48731zM258.01401,170.85719l0.18035,1.25888c-2.03057,0.21658 -4.49532,0.41963 -7.39424,0.60914c-2.89891,0.18951 -5.50393,0.32487 -7.81504,0.40609l-0.08016,-1.3198c2.64509,-0.08122 5.367,-0.20643 8.16572,-0.37564c2.79872,-0.16921 5.11318,-0.3621 6.94337,-0.57868zM295.42604,181.9638v-2.2335h-9.47825v2.2335zM285.94779,176.25821v2.15229h9.47825v-2.15229zM285.94779,174.97902h9.47825v-2.13198h-9.47825zM316.78716,176.05517h-5.31022v5.21828h5.31022zM309.93397,176.05517h-5.25011v5.21828h5.25011zM266.3701,175.83182h-1.74336c-0.21375,1.77327 -0.51432,3.66836 -0.90173,5.68528c0.37405,0.31134 0.86166,0.75804 1.46281,1.3401c0.32061,-0.87986 0.57778,-1.88155 0.77148,-3.00508c0.19371,-1.12352 0.33064,-2.46363 0.4108,-4.02031zM255.08838,183.06025h-6.87324c0.8817,1.02876 1.9905,1.85448 3.32641,2.47716c1.46949,-0.69036 2.65177,-1.51607 3.54683,-2.47716zM276.4495,182.8166h-4.36841c0.5878,1.01523 1.28247,1.85448 2.08401,2.51776c0.94849,-0.73096 1.70996,-1.57022 2.2844,-2.51776z" fill="#ffffff" fill-rule="evenodd" stroke="#ffffff" stroke-width="0.5" stroke-linecap="round"/><path d="M240,196.00001v-32h208v32z" fill="none" fill-rule="nonzero" stroke="none" stroke-width="0" stroke-linecap="butt"/></g></g></svg>