<svg version="1.1" xmlns="http://www.w3.org/2000/svg" xmlns:xlink="http://www.w3.org/1999/xlink" width="224" height="64" viewBox="0,0,224,64"><g transform="translate(-128,-148)"><g stroke-miterlimit="10"><path d="M128,212v-64h224v64z" fill="none" fill-rule="nonzero" stroke="none" stroke-width="1" stroke-linecap="butt"/><g fill="#e4e600" stroke="none" stroke-linecap="butt"><path d="M174,179h158c5.54,0 10,4.46 10,10v7c0,5.54 -4.46,10 -10,10h-158c-5.54,0 -10,-4.46 -10,-10v-7c0,-5.54 4.46,-10 10,-10z" fill-rule="evenodd" stroke-width="1"/><g fill-rule="nonzero"><path d="M205.081,192.467v1.0474h3.9917v1.2012h-3.9917v1.0767h4.5923v1.2891h-4.5923v2.5269h-1.5747v-2.5269h-4.2114v-1.2891h4.2114v-1.0767h-3.5815v-1.2012h3.5815v-1.0474h-3.1641v-1.1133h3.1641v-1.1499h-4.3945v-1.1865h4.3945v-1.1279h-3.0908v-1.1572h3.0908v-1.377h1.5747v1.377h3.6621v2.2852h1.2744v1.1865h-1.2744v2.2632zM205.081,191.3537h2.1313v-1.1499h-2.1313zM205.081,189.0173h2.1313v-1.1279h-2.1313zM198.3354,188.8342c-0.61035,-0.83987 -1.34032,-1.6138 -2.1899,-2.3218l1.1353,-1.0693c0.918,0.70313 1.66507,1.44287 2.2412,2.2192zM197.8227,192.6428c-0.708,-0.9326 -1.44773,-1.72607 -2.2192,-2.3804l1.1279,-1.0986c0.78613,0.59571 1.55517,1.35497 2.3071,2.2778zM195.8598,198.4802c0.93747,-1.5332 1.7358,-3.25927 2.395,-5.1782l1.2817,0.90088c-0.61035,1.94333 -1.37695,3.7329 -2.2998,5.3687z" stroke-width="1"/><path d="M221.016,196.422c0.9424,0.66893 2.14357,1.24023 3.6035,1.7139l-0.82031,1.4648c-1.53807,-0.60547 -2.8076,-1.30617 -3.8086,-2.1021c-1.03513,0.92287 -2.20947,1.6553 -3.523,2.1973l-1.0254,-1.1572c1.35253,-0.47851 2.51953,-1.14991 3.501,-2.0142c-1.11327,-1.23047 -1.9116,-2.51953 -2.395,-3.8672h-0.28564c-0.0293,1.31833 -0.14649,2.45847 -0.35156,3.4204c-0.25391,1.18653 -0.72997,2.3218 -1.4282,3.4058l-1.1865,-1.084c0.64453,-1.0498 1.0669,-2.2241 1.2671,-3.5229c0.12695,-0.81053 0.19043,-1.72117 0.19043,-2.7319v-4.7534h3.8379v-2.0361h1.5601v2.0361h3.3618l0.76172,0.65918c-0.30273,1.00587 -0.65673,1.92627 -1.062,2.7612l-1.4868,-0.43945c0.32227,-0.52735 0.56152,-1.05715 0.71777,-1.5894h-2.2925v2.5854h2.4316l0.73242,0.62988c-0.58105,1.74313 -1.34765,3.21773 -2.2998,4.4238zM219.8954,195.49915c0.73733,-0.9326 1.2476,-1.87987 1.5308,-2.8418h-3.5083c0.45899,1.03513 1.11815,1.9824 1.9775,2.8418zM218.5917,188.78285h-2.3218v2.5854h2.3218zM213.1498,189.11976c-0.64453,-0.874 -1.43553,-1.6943 -2.373,-2.4609l1.1426,-1.106c0.91307,0.65918 1.73337,1.43311 2.4609,2.3218zM212.4833,192.65736c-0.69827,-0.89847 -1.47707,-1.7017 -2.3364,-2.4097l1.1279,-1.0986c0.84473,0.60059 1.64797,1.36475 2.4097,2.2925zM210.3153,198.45086c0.918,-1.37693 1.731,-3.04687 2.439,-5.0098l1.3257,0.91553c-0.65429,1.94827 -1.44529,3.70853 -2.373,5.2808z" stroke-width="1"/><path d="M228.37,193.771v-1.7578h1.5454v1.7578h2.8198v1.377h-2.8198v1.9263c0.43945,-0.06836 0.77149,-0.11963 0.9961,-0.15381c0.791,-0.12207 1.58447,-0.26367 2.3804,-0.4248l0.0439,1.3989c-2.92967,0.64941 -5.6201,1.10841 -8.0713,1.377l-0.40283,-1.5308c0.60547,-0.06348 1.7749,-0.20752 3.5083,-0.43213v-2.1606h-3.0029v-1.377zM229.10975,187.4356c-0.01467,0.03418 -0.02933,0.0708 -0.044,0.10986c-0.39551,1.05467 -0.83007,2.01413 -1.3037,2.8784c0.06347,0 0.14404,-0.00243 0.2417,-0.0073c1.16213,-0.04883 2.1558,-0.11474 2.981,-0.19775c-0.40527,-0.64941 -0.80567,-1.23291 -1.2012,-1.7505l1.3623,-0.61524c0.9082,1.084 1.6992,2.28517 2.373,3.6035l-1.4136,0.82031c-0.22949,-0.45899 -0.38085,-0.75684 -0.4541,-0.89355c-2.01173,0.2832 -4.06497,0.48095 -6.1597,0.59326l-0.37354,-1.4355l0.90088,-0.03662c0.05859,0 0.11475,-0.00243 0.16846,-0.0073c0.51269,-1.08887 0.91796,-2.10937 1.2158,-3.0615h-2.4097v-1.3623h8.269v1.3623zM234.00965,187.07671h1.4868v8.9429h-1.4868zM236.90275,185.81691h1.5308v12.195c0,0.53223 -0.10498,0.90819 -0.31494,1.1279c-0.21973,0.23926 -0.65673,0.35889 -1.311,0.35889c-0.64453,0 -1.36229,-0.04395 -2.1533,-0.13184l-0.30029,-1.5454c0.64941,0.09765 1.34278,0.14648 2.0801,0.14648c0.23925,0 0.38085,-0.05127 0.4248,-0.15381c0.02927,-0.06836 0.0439,-0.19531 0.0439,-0.38086z" stroke-width="1"/><path d="M242.74,196.4c0.39551,0.43457 0.83007,0.75928 1.3037,0.97412c0.791,0.36133 1.89207,0.54199 3.3032,0.54199h6.3574c-0.19043,0.3418 -0.35644,0.80567 -0.49804,1.3916h-5.918c-1.66013,0 -2.92233,-0.22217 -3.7866,-0.6665c-0.45411,-0.22949 -0.91797,-0.60303 -1.3916,-1.1206c-0.791,0.92773 -1.50633,1.63817 -2.146,2.1313l-0.84229,-1.4795c0.65918,-0.38574 1.35011,-0.87647 2.0728,-1.4722v-3.7793h-1.9556v-1.4429h3.501zM247.2957,186.5416v-1.1865h1.5601v1.1865h3.3472v1.1426h-3.3472v0.95215h4.1968v1.1719h-1.6553c-0.16113,0.40039 -0.37598,0.83496 -0.64453,1.3037h1.8823v1.1133h-3.7793v0.82764h3.3911v1.062h-3.3911v0.88623h4.2334v1.1572h-4.2334v1.4648h-1.5601v-1.4648h-4.0942v-1.1572h4.0942v-0.88623h-3.2666v-1.062h3.2666v-0.82764h-3.6475v-1.1133h1.8457c-0.17578,-0.47363 -0.38086,-0.9082 -0.61523,-1.3037h-1.648v-1.1719h4.0649v-0.95215h-3.208v-1.1426zM249.7713,189.8082h-3.3252c0.01467,0.02441 0.0464,0.08789 0.0952,0.19043c0.17089,0.33691 0.32714,0.70801 0.46875,1.1133h2.168c0.2539,-0.47363 0.45165,-0.9082 0.59326,-1.3037zM241.7586,189.25156c-0.70313,-1.17187 -1.44777,-2.146 -2.2339,-2.9224l1.2305,-0.88623c0.71287,0.66406 1.48437,1.59423 2.3145,2.7905z" stroke-width="1"/><path d="M259.96,188.043v-2.688h1.648v2.688h5.4346v7.749h-1.6187v-1.0181h-3.8159v4.834h-1.648v-4.834h-3.7207v1.0986h-1.6186v-7.8296zM256.2393,189.5445v3.728h3.7207v-3.728zM265.4239,193.2725v-3.728h-3.8159v3.728z" stroke-width="1"/><path d="M261.57224,193.30744v-3.79788h3.88743v3.79788z" stroke-width="0.5"/><path d="M280.77,198.539c-1.44533,0.15137 -2.93947,0.22705 -4.4824,0.22705c-2.2754,0 -3.86963,-0.14404 -4.7827,-0.43213c-0.66406,-0.20996 -1.18896,-0.52246 -1.5747,-0.9375c-0.44433,-0.4834 -0.6665,-1.07177 -0.6665,-1.7651c0,-0.91307 0.3125,-1.73337 0.9375,-2.4609c0.53223,-0.62012 1.38916,-1.23535 2.5708,-1.8457c-0.6738,-1.51367 -1.28413,-3.2373 -1.831,-5.1709l1.6333,-0.4248c0.50781,1.85547 1.04491,3.4961 1.6113,4.9219c1.87987,-0.86427 3.8745,-1.58447 5.9839,-2.1606l0.49073,1.4868c-2.31447,0.58594 -4.61427,1.41847 -6.8994,2.4976c-0.708,0.33691 -1.21093,0.61279 -1.5088,0.82764c-0.874,0.63965 -1.311,1.35008 -1.311,2.1313c0,0.67873 0.40527,1.15237 1.2158,1.4209c0.6738,0.21973 1.87987,0.32959 3.6182,0.32959c1.60647,0 3.21537,-0.09277 4.8267,-0.27832z" stroke-width="1"/><path d="M289.72,188.007h2.0874c0.30273,-0.79587 0.58838,-1.6699 0.85693,-2.6221l1.5161,0.31494c-0.3125,0.93747 -0.61035,1.7065 -0.89355,2.3071h2.8418v1.333h-3.0249v1.7578h2.5635v1.2598h-2.5635v1.7432h2.5635v1.2598h-2.5635v1.8604h3.2666v1.3623h-6.7749v1.0254h-1.4575v-8.7305c-0.22461,0.35645 -0.4663,0.71045 -0.72509,1.062l-0.84961,-1.2964c1.11813,-1.41113 1.9775,-3.19093 2.5781,-5.3394l1.5161,0.32959c-0.29297,0.90333 -0.60547,1.69433 -0.9375,2.373zM289.59549,197.2209h2.1167v-1.8604h-2.1167zM289.59549,194.1008h2.1167v-1.7432h-2.1167zM289.59549,191.0979h2.1167v-1.7578h-2.1167zM284.16089,188.1169v-2.7612h1.5894v2.7612h1.5454v1.4282h-1.5454v2.417c0.42481,-0.13183 0.87401,-0.2832 1.3476,-0.4541l0.10254,1.4136c-0.34179,0.13183 -0.82519,0.3125 -1.4502,0.54199v4.7754c0,0.51269 -0.11963,0.86913 -0.35889,1.0693c-0.20996,0.17578 -0.56396,0.26367 -1.062,0.26367c-0.56153,0 -1.09376,-0.04883 -1.5967,-0.14648l-0.30029,-1.5747c0.65429,0.09277 1.10106,0.13916 1.3403,0.13916c0.1709,0 0.27832,-0.0293 0.32226,-0.08789c0.04393,-0.05859 0.0659,-0.16601 0.0659,-0.32226v-3.5815c-0.41015,0.13183 -0.99609,0.30273 -1.7578,0.5127l-0.43213,-1.5308c0.98147,-0.21973 1.71143,-0.40039 2.1899,-0.54199v-2.8931h-1.9629v-1.4282z" stroke-width="1"/><path d="M305.29,185.941v10.049h-4.5996v-10.049zM302.0088,187.2447v1.6479h1.9922v-1.6479zM302.0088,190.0792v1.6479h1.9922v-1.6479zM302.0088,192.8551v1.8457h1.9922v-1.8457zM298.9473,188.6876c-0.57129,-0.77147 -1.25733,-1.49657 -2.0581,-2.1753l1.0986,-1.0547c0.75193,0.54687 1.4575,1.24267 2.1167,2.0874zM298.54447,192.4376c-0.79587,-1.001 -1.50143,-1.7725 -2.1167,-2.3145l1.1279,-1.0767c0.66893,0.54199 1.38913,1.28663 2.1606,2.2339zM296.54497,198.4801c0.8594,-1.37693 1.6504,-3.1372 2.373,-5.2808l1.2451,0.85693c-0.56641,1.97753 -1.32567,3.85253 -2.2778,5.625zM304.79937,199.27844c-0.34668,-0.9424 -0.80321,-1.81887 -1.3696,-2.6294l1.1133,-0.62988c0.60059,0.708 1.11572,1.51853 1.5454,2.4316zM306.29347,186.48344h1.4575v9.4336h-1.4575zM299.76027,198.62744c0.7324,-0.69827 1.27193,-1.5381 1.6186,-2.5195l1.2744,0.68115c-0.48828,1.24027 -1.06445,2.168 -1.7285,2.7832zM308.87887,185.53944h1.5161v12.539c0,0.63477 -0.19531,1.04003 -0.58594,1.2158c-0.22461,0.09765 -0.56884,0.14648 -1.0327,0.14648c-0.64941,0 -1.24025,-0.03906 -1.7725,-0.11719l-0.25635,-1.4868c0.76173,0.07813 1.33303,0.11719 1.7139,0.11719c0.19531,0 0.31738,-0.03906 0.36621,-0.11719c0.0342,-0.06347 0.0513,-0.18799 0.0513,-0.37354z" stroke-width="1"/></g></g><path d="M208.99785,196.97745h2.91608v0.95793h-6.56469v0.91567h-1.0002v-8.14246c-0.14087,0.22539 -0.37097,0.56349 -0.69028,1.01429l-0.70436,-0.83115c1.0049,-1.343 1.81257,-2.98181 2.42302,-4.91646l1.01429,0.19723c-0.216,0.6668 -0.46958,1.35238 -0.76072,2.05675h2.83155l-0.28174,-0.71846c-0.14087,-0.39444 -0.28645,-0.76541 -0.43671,-1.1129l0.91567,-0.33809c0.25357,0.61045 0.54002,1.33359 0.85933,2.16945h2.28214v0.97202h-2.80337v1.87361h2.56389v0.92976h-2.56389v1.91588h2.56389v0.94385h-2.56389zM203.41928,191.82149l0.08453,0.53532l0.07044,0.52123l-1.36647,0.45079v3.90219c0,0.37566 -0.04696,0.6621 -0.14087,0.85932c-0.09392,0.19723 -0.25122,0.33575 -0.47192,0.41558c-0.2207,0.07983 -0.53298,0.11974 -0.93681,0.11974h-0.92976l-0.21131,-1.04246h0.85932c0.32871,0 0.54471,-0.04226 0.64802,-0.12679c0.10331,-0.08453 0.15496,-0.27705 0.15496,-0.57758v-3.21191l-1.49326,0.49305l-0.22539,-1.05654c0.28174,-0.07513 0.85463,-0.24887 1.71865,-0.52123v-3.05695h-1.53551v-1.04246h1.53551v-2.42302h1.02838v2.42302h1.26785v1.04246h-1.26785v2.71885l0.90159,-0.32401c0.06574,-0.01878 0.12208,-0.03757 0.16904,-0.05634c0.04695,-0.01878 0.09392,-0.03287 0.14087,-0.04226zM207.99765,196.97745v-2.1131h-2.64841v2.1131zM205.34924,192.00463v1.91587h2.64842v-1.91587zM205.34924,189.20126v1.87361h2.64842v-1.87361z" fill="#000000" fill-rule="evenodd" stroke="#000000" stroke-width="0.45" stroke-linecap="round"/><path d="M220.49309,195.01931v-7.12818h-2.7752v7.18452h-0.90159v-8.18473h4.59247v8.12838zM219.56333,188.69411v3.76131c0,0.96732 -0.07044,1.78909 -0.21131,2.46528c0.94854,0.96732 1.7797,1.84074 2.49346,2.62024l-0.69028,0.71845c-0.8922,-1.01429 -1.59187,-1.80318 -2.09901,-2.36667c-0.216,0.51653 -0.51653,0.99551 -0.90159,1.4369c-0.38505,0.44141 -0.90159,0.92976 -1.5496,1.46508l-0.71845,-0.74662c0.79828,-0.61045 1.38525,-1.15985 1.76091,-1.64821c0.37566,-0.48836 0.63158,-1.02368 0.76776,-1.60595c0.13618,-0.58228 0.20426,-1.36177 0.20426,-2.33849v-3.76131zM224.55024,196.85067v-10.56548h0.88751v10.86132c0,0.39444 -0.05165,0.69733 -0.15496,0.90864c-0.10331,0.21131 -0.27704,0.36392 -0.52123,0.45784c-0.24418,0.09392 -0.59167,0.14087 -1.04246,0.14087h-1.15516l-0.19723,-0.97202h1.12698c0.29113,0 0.50949,-0.02113 0.65507,-0.0634c0.14557,-0.04226 0.24887,-0.12209 0.30992,-0.23949c0.06105,-0.11739 0.09157,-0.29349 0.09157,-0.52828zM222.52167,195.59689v-8.08612h0.87342v8.08612zM215.154,193.41336l0.49305,0.15496l0.45079,0.15496c-0.07513,0.22539 -0.28879,0.96263 -0.64098,2.2117c-0.35218,1.24908 -0.6081,2.18823 -0.76776,2.81746l-0.95793,-0.32401c0.14087,-0.38505 0.39444,-1.2209 0.76072,-2.50754c0.36627,-1.28664 0.58697,-2.12248 0.66211,-2.50754zM216.16829,191.49748l-0.64802,0.81707c-0.68559,-0.65741 -1.37116,-1.27256 -2.05675,-1.84544l0.61983,-0.7748c0.98612,0.82646 1.68109,1.42751 2.08492,1.80318zM216.43595,188.032l-0.61984,0.80298c-0.28174,-0.29113 -0.62454,-0.61984 -1.02838,-0.98612c-0.40383,-0.36627 -0.72314,-0.63862 -0.95793,-0.81706l0.57758,-0.77481c0.6668,0.54471 1.343,1.13638 2.02858,1.775z" fill="#000000" fill-rule="evenodd" stroke="#000000" stroke-width="0.45" stroke-linecap="round"/><path d="M240.14489,192.68082v0.95794h-1.451l-0.08453,2.18354h1.26786v0.97202h-1.29603l-0.01408,0.25357c-0.02817,0.43202 -0.10566,0.76541 -0.23245,1.0002c-0.12679,0.23479 -0.32401,0.40149 -0.59166,0.5001c-0.26765,0.09861 -0.64098,0.14791 -1.11995,0.14791h-2.09901l-0.21131,-0.98611h1.97222c0.46957,0 0.79593,-0.0634 0.97906,-0.19019c0.18314,-0.12679 0.28409,-0.35922 0.30288,-0.69732v-0.02818h-6.32521l0.35218,-3.15555h-1.0988v-0.95793h1.19742l0.30992,-2.80337c-0.28174,0.35688 -0.49775,0.61983 -0.64802,0.78889l-0.71845,-0.76072c0.51653,-0.57289 1.00725,-1.2256 1.47213,-1.95813c0.46488,-0.73254 0.84289,-1.4416 1.13403,-2.12718l0.94385,0.32401c-0.15965,0.36627 -0.34279,0.74662 -0.54941,1.14107h6.17024v0.95794h-6.70556c-0.30053,0.49775 -0.57288,0.91098 -0.81706,1.23969h6.5506l-0.1127,3.19782zM232.32644,195.82229h5.28275l0.02818,-0.52124c0.03757,-0.63863 0.06105,-1.19272 0.07044,-1.6623h-5.12778zM237.84866,190.44093h-4.90238l-0.25357,2.23988h5.05735c0.06574,-1.28664 0.09861,-2.03328 0.09861,-2.23988zM228.88913,198.82289l-1.01429,-0.30992l1.36648,-4.84604l0.95793,0.29583c-0.07513,0.26296 -0.47897,1.75152 -1.2115,4.46568zM230.56552,191.44114l-0.60575,0.88751c-1.14577,-0.99551 -1.90648,-1.63413 -2.28215,-1.91588l0.60576,-0.81706zM230.95997,188.07427l-0.57758,0.83115c-0.68559,-0.56349 -1.44159,-1.15985 -2.26806,-1.78908l0.60576,-0.80298c0.52593,0.39444 1.27255,0.98141 2.23987,1.76091zM236.28497,195.06157l-0.59167,0.73254c-0.20661,-0.18784 -0.49071,-0.42262 -0.85228,-0.70436c-0.36157,-0.28174 -0.68324,-0.52594 -0.96498,-0.73254l0.53533,-0.70436c0.64802,0.46957 1.27256,0.93915 1.87361,1.40873zM234.12961,191.18757l0.53532,-0.71845c0.82646,0.60106 1.42751,1.06124 1.80318,1.38056l-0.5635,0.76072c-0.50714,-0.43202 -1.09881,-0.90628 -1.775,-1.42281z" fill="#000000" fill-rule="evenodd" stroke="#000000" stroke-width="0.45" stroke-linecap="round"/><path d="M250.27367,187.31355h3.04286v2.01448h0.81706v0.90159h-0.81706v2.01449h-3.04286v6.39563h-1.0002v-6.39563h-3.05694v-0.87342h3.05694v-1.14108h-3.52182v-0.90159h3.52182v-1.15516h-2.87381v-0.85933h2.87381v-1.29603h1.0002zM242.2439,187.38399h3.16964v8.79048h-2.2117v1.28195h-0.95793zM243.20184,195.17427h1.25378v-6.80418h-1.25378zM246.34331,193.45562v-0.70436h0.92977v0.78889c0,0.86402 -0.0493,1.59891 -0.14791,2.20466c-0.09861,0.60575 -0.27705,1.1669 -0.53533,1.68344c-0.25826,0.51653 -0.62688,1.03777 -1.10586,1.56369l-0.70436,-0.69028c0.42262,-0.46018 0.74428,-0.89924 0.96498,-1.31716c0.2207,-0.41792 0.37566,-0.89689 0.46488,-1.4369c0.08922,-0.54002 0.13383,-1.23734 0.13383,-2.09196zM253.40106,192.76534v6.05754h-0.95793v-6.05754zM248.10423,197.44233l-0.81707,-0.19723c0.18784,-0.5541 0.34984,-1.18098 0.48601,-1.88065c0.13618,-0.69967 0.23713,-1.39229 0.30288,-2.07788l0.76072,0.07044c-0.06574,0.72314 -0.162,1.44629 -0.28878,2.16944c-0.12679,0.72314 -0.2747,1.36178 -0.44376,1.91588zM252.28816,197.09015l-0.80298,0.22539l-0.87341,-3.95853l0.78889,-0.19723zM252.41494,189.32804v-1.15516h-2.14128v1.15516zM250.27367,190.22962v1.14108h2.14128v-1.14108z" fill="#000000" fill-rule="evenodd" stroke="#000000" stroke-width="0.45" stroke-linecap="round"/><path d="M261.75483,191.46931l-1.76092,0.1127v1.84544h2.74703v1.02837h-2.74703v2.33849l3.01469,-0.29584l0.01408,0.53532l0.01409,0.49305c-0.88281,0.07513 -2.06614,0.18548 -3.55,0.33105c-1.48386,0.14557 -2.66719,0.26531 -3.55,0.35923l-0.09861,-1.02838l3.14147,-0.29584v-2.43711h-2.78929v-1.02837h2.78929v-1.775l-2.57798,0.15496l-0.23949,-0.90159c0.3381,-0.34749 0.69967,-0.78889 1.08472,-1.3242c0.38505,-0.53532 0.74662,-1.07533 1.08472,-1.62004h-2.36667v-1.04246h7.01549v1.04246h-3.49365c-0.30054,0.49775 -0.63393,1.01194 -1.0002,1.54256c-0.36627,0.53062 -0.6762,0.95089 -0.92976,1.26082l3.60635,-0.2254l-0.8875,-1.3242l0.77481,-0.53533c0.35688,0.50714 1.05654,1.55429 2.099,3.14147l-0.83115,0.54941c-0.13148,-0.22539 -0.31931,-0.52593 -0.56349,-0.90159zM266.51634,196.68161v-10.48096h1.05655v10.83315c0,0.61045 -0.13383,1.03777 -0.40148,1.28195c-0.26765,0.24418 -0.73489,0.36626 -1.40169,0.36626h-1.69048l-0.19723,-1.04246h1.5496c0.41323,0 0.69733,-0.06574 0.85228,-0.19723c0.15495,-0.13148 0.23244,-0.38504 0.23244,-0.76072zM263.83975,195.78002v-8.42421h0.98611v8.42421z" fill="#000000" fill-rule="evenodd" stroke="#000000" stroke-width="0.45" stroke-linecap="round"/><path d="M274.19392,196.45622l-0.73254,-0.95793c0.88281,-0.57289 1.58013,-1.12933 2.09197,-1.66934c0.51184,-0.54002 0.8922,-1.11994 1.14108,-1.73978c0.24887,-0.61984 0.40148,-1.34769 0.45784,-2.18354h-3.28234v-1.05654h3.31052c0.00939,-0.52593 0.01409,-1.48387 0.01409,-2.87382h1.12699l-0.02817,2.87382h3.60635v1.05654h-3.64862c-0.02817,0.59167 -0.108,1.15985 -0.23949,1.70457c0.63863,0.61984 1.35239,1.33125 2.14128,2.13422c0.78889,0.80298 1.40404,1.44865 1.84544,1.93701l-0.80298,0.81706c-0.91098,-1.04246 -2.08492,-2.31502 -3.52182,-3.81766c-0.30054,0.68559 -0.7255,1.32655 -1.2749,1.92292c-0.5494,0.59636 -1.28429,1.21385 -2.20466,1.85249zM276.41972,197.38598h5.94484l-0.21132,1.07063h-5.88849c-0.70436,0 -1.27959,-0.0493 -1.72569,-0.14791c-0.4461,-0.09861 -0.84289,-0.26531 -1.19038,-0.5001c-0.34749,-0.23479 -0.70436,-0.57758 -1.07063,-1.02837l-1.90179,1.90178l-0.5494,-1.08472l1.84543,-1.84544v-3.83175h-1.67638v-1.02837h2.76112v4.84604c0.30993,0.45079 0.62219,0.79124 0.9368,1.02133c0.31462,0.2301 0.68088,0.39209 1.0988,0.48601c0.41793,0.09392 0.96028,0.14087 1.62709,0.14087zM273.41913,188.80681l-0.81707,0.76072c-0.38505,-0.51653 -1.09881,-1.39464 -2.14128,-2.63433l0.80298,-0.70436l0.61984,0.73254z" fill="#000000" fill-rule="evenodd" stroke="#000000" stroke-width="0.45" stroke-linecap="round"/><path d="M289.67588,185.98935h1.08472v2.76112h4.83195v5.80397h-4.83195v4.33889h-1.08472v-4.33889h-4.78968v-5.80397h4.78968zM294.49374,189.84927h-3.73314v3.62044h3.73314zM289.67588,189.84927h-3.69088v3.62044h3.69088z" fill="#000000" fill-rule="evenodd" stroke="#000000" stroke-width="0.45" stroke-linecap="round"/></g></g></svg>