<svg version="1.1" xmlns="http://www.w3.org/2000/svg" xmlns:xlink="http://www.w3.org/1999/xlink" width="208" height="32" viewBox="0,0,208,32"><g transform="translate(-240,-164)"><g stroke-miterlimit="10"><path d="M339.03122,179.54516h-6.93129c0.88205,1.28805 1.94511,2.50687 3.18919,3.65642c1.24408,1.14955 2.64285,2.17446 4.1963,3.07471l-0.86888,1.5789c-2.86993,-1.82821 -5.25936,-4.14809 -7.16826,-6.95966v8.37237h-1.54028v-8.33082c-1.85625,2.77002 -4.24567,5.09682 -7.16826,6.98044l-0.84913,-1.55813c3.06741,-1.81436 5.49632,-4.08577 7.28674,-6.81423h-6.87205v-1.55813h7.6027v-7.66602h1.54028v7.66602h7.58295zM345.74529,173.49961v5.75471h12.658l-0.29621,6.87655c-0.07899,1.0526 -0.34558,1.79012 -0.79977,2.21255c-0.45418,0.42243 -1.18813,0.63364 -2.20182,0.63364h-2.27093l-0.27646,-1.47503h1.93523c0.52659,0 0.9347,-0.06232 1.22433,-0.18697c0.28963,-0.12465 0.49698,-0.31856 0.62204,-0.5817c0.12507,-0.26315 0.20735,-0.63018 0.24684,-1.10108c0.03949,-0.62326 0.08229,-1.44733 0.12836,-2.47223c0.04607,-1.0249 0.08228,-1.84898 0.10861,-2.47224h-12.57901v-8.62167h3.83097l0.25671,-0.66481l0.51342,-1.4127l1.54029,0.18697l-0.25671,0.72713c-0.14481,0.4432 -0.27646,0.83101 -0.39495,1.16341h6.8128c-0.11849,2.16061 -0.19089,3.37249 -0.21722,3.63564c-0.06583,0.66481 -0.18759,1.18072 -0.36532,1.54774c-0.17773,0.36703 -0.44761,0.63018 -0.80964,0.78946c-0.36203,0.15928 -0.86559,0.23892 -1.51066,0.23892h-1.69827l-0.27646,-1.32961h1.54029c0.59242,0 1.00052,-0.10041 1.22433,-0.30124c0.22381,-0.20083 0.35545,-0.54361 0.39495,-1.02837l0.09874,-1.03875c0.03949,-0.4155 0.06582,-0.77561 0.07899,-1.08031zM299.93162,183.36778h-9.81439c-1.00053,1.16341 -2.22486,2.36836 -3.67299,3.61486l8.86653,-0.35317l-2.1722,-2.16061l0.96762,-1.01798c0.56609,0.54015 1.10914,1.06645 1.62915,1.5789c0.52001,0.51245 0.97749,0.96258 1.37243,1.35038c1.42181,1.4127 2.00764,1.98748 1.75751,1.72433l-1.02686,1.18418c-0.22381,-0.2493 -0.63191,-0.68558 -1.22433,-1.30883l-12.20382,0.56093l-0.37519,-1.47504c1.55345,-1.16341 2.91601,-2.39606 4.08768,-3.69796h-5.66747v-1.41271h2.60664v-10.80305h12.20382v10.80305h2.66588zM319.61965,187.39815l-1.02686,1.59968c-2.98842,-1.96671 -5.28569,-4.52204 -6.8918,-7.66601c-0.9742,1.4404 -2.14258,2.79079 -3.50514,4.05115c-1.36256,1.26036 -3.03121,2.52764 -5.00593,3.80184l-0.96761,-1.55813c2.9226,-1.75896 5.22645,-3.6495 6.91154,-5.6716c1.6851,-2.02211 2.97525,-4.40432 3.87046,-7.14663h-5.29226c-1.06635,2.00826 -2.33017,3.81569 -3.79147,5.4223l-1.12559,-1.2465c1.07952,-1.17726 2.07017,-2.53803 2.97196,-4.08231c0.90179,-1.54429 1.6489,-3.16128 2.24132,-4.85099l1.52054,0.47782c-0.35545,1.03876 -0.70432,1.93209 -1.0466,2.67999h6.33887v1.55813c-0.6714,1.98056 -1.40205,3.66334 -2.19194,5.04835c0.7504,1.60661 1.69826,3.03663 2.8436,4.29006c1.14534,1.25343 2.52765,2.35105 4.14693,3.29285zM279.09825,184.19879l1.22433,0.31163c-0.01317,0.2216 -0.03291,0.55054 -0.05924,0.98681c-0.02633,0.43627 -0.04608,0.86217 -0.05925,1.27767c-0.02633,0.52631 -0.11519,0.93142 -0.26659,1.21535c-0.15139,0.28393 -0.39494,0.48129 -0.73065,0.59209c-0.33571,0.1108 -0.80634,0.1662 -1.41193,0.1662h-2.2117c-0.86888,0 -1.47117,-0.16274 -1.80687,-0.48821c-0.33571,-0.32548 -0.50356,-0.91756 -0.50356,-1.77627v-1.30883h-4.10743v-7.41672h4.10743v-1.662h-3.49527v-4.79905h8.35309v4.79905h-3.55451v1.662h4.08769v7.41672h-4.08769v1.05953c0,0.48476 0.07899,0.80676 0.23697,0.96604c0.15798,0.15928 0.47393,0.23891 0.94787,0.23891h1.91548c0.38178,0 0.66154,-0.03116 0.83926,-0.09349c0.17773,-0.06232 0.30608,-0.18005 0.38507,-0.35318c0.07899,-0.17312 0.12507,-0.43282 0.13823,-0.77907zM253.13059,170.21714h1.4613v3.84339h4.75909v8.80864h-4.75909v6.37795h-1.4613v-6.37795h-4.75909v-8.80864h4.75909zM264.40628,176.512l2.40917,-0.31163c0.25013,-0.4432 0.57925,-1.08723 0.98736,-1.93209l1.24408,0.74791c-1.02686,2.02211 -2.38942,4.27967 -4.08769,6.77268l3.33729,-0.54015l0.03949,1.45426l-5.03555,0.81023l-0.27646,-1.4958c1.06635,-1.34346 2.06029,-2.80464 2.98183,-4.38355l-3.04108,0.47783l-0.29621,-1.41271c0.60559,-0.83101 1.19471,-1.80743 1.76738,-2.92928c0.57267,-1.12186 1.1618,-2.34759 1.76738,-3.6772l1.18484,0.5817c-1.26382,2.78386 -2.25778,4.7298 -2.98184,5.8378zM352.49885,185.36219v-3.11626h1.44155v4.52897h-10.99923v-4.52897h1.44155v3.11626h3.2978v-3.82262h1.54028v3.82262zM295.84394,181.95507v-2.28526h-9.34046v2.28526zM286.50347,176.11727v2.20216h9.34046v-2.20216zM286.50347,174.80844h9.34046v-2.18138h-9.34046zM245.8636,179.35819l0.63191,0.20775l0.78989,0.31162c-0.27646,0.90025 -0.72078,2.2541 -1.33294,4.06154c-0.61217,1.80743 -1.08939,3.15435 -1.43168,4.04075l-1.42181,-0.62325c0.38178,-0.9418 0.88205,-2.29911 1.5008,-4.07192c0.61875,-1.77281 1.04002,-3.08164 1.26382,-3.9265zM253.13059,175.61867h-3.27805v5.63005h3.27805zM257.83044,175.61867h-3.23855v5.63005h3.23855zM276.64959,174.89154v-2.32681h-5.45025v2.32681zM243.25696,171.7545l1.28357,-0.70636c1.04003,1.92516 1.98131,3.73259 2.82386,5.4223l-1.30332,0.831c-0.40811,-0.8587 -0.89851,-1.85591 -1.47117,-2.99161c-0.57267,-1.13571 -1.01699,-1.98748 -1.33294,-2.55533zM268.57295,186.73335l-5.64772,0.97643l-0.19747,-1.55813l5.7662,-1.03876zM336.70104,171.4221l1.16509,0.97643c-0.44761,0.66481 -1.03015,1.44041 -1.74764,2.32681c-0.71749,0.8864 -1.33952,1.59968 -1.86612,2.13984l-1.0861,-1.01798c0.53976,-0.554 1.15193,-1.26382 1.8365,-2.12945c0.68457,-0.86563 1.25066,-1.63084 1.69826,-2.29565zM328.03199,175.66022l-1.10585,1.14264c-0.43444,-0.62326 -1.00711,-1.37462 -1.71801,-2.2541c-0.7109,-0.87948 -1.30332,-1.56852 -1.77725,-2.06713l1.0861,-1.05953c0.52659,0.554 1.13876,1.24997 1.8365,2.0879c0.69774,0.83793 1.25725,1.55467 1.67852,2.15022zM351.23503,176.61587l-0.90838,1.14263c-1.47446,-1.23265 -2.52765,-2.08443 -3.15956,-2.55533l0.86888,-1.14263c0.56609,0.42935 1.63244,1.28113 3.19905,2.55534zM274.57613,180.87477h2.82386v-1.89053h-2.82386zM277.39999,182.07973h-2.82386v1.89053h2.82386zM270.4687,180.87477h2.80411v-1.89053h-2.80411zM273.27281,182.07973h-2.80411v1.89053h2.80411z" fill="#ffffff" fill-rule="evenodd" stroke="#ffffff" stroke-width="0.5" stroke-linecap="round"/><path d="M240,196v-32h208v32z" fill="none" fill-rule="nonzero" stroke="none" stroke-width="0" stroke-linecap="butt"/></g></g></svg>