<svg version="1.1" xmlns="http://www.w3.org/2000/svg" xmlns:xlink="http://www.w3.org/1999/xlink" width="208" height="32" viewBox="0,0,208,32"><g transform="translate(-240,-164)"><g stroke="none" stroke-miterlimit="10"><path d="M241.04607,175.3563h5.97893v2.1613h-5.97893v-2.1613M250.98402,170.83171h2.2623v14.68473c0,0.55211 0.05386,0.90223 0.16159,1.05035c0.10773,0.14813 0.35685,0.22219 0.74737,0.22219c0.0808,0 0.22892,0 0.44438,0c0.21546,0 0.45111,0 0.70697,0c0.25586,0 0.49151,0 0.70697,0c0.21546,0 0.37705,0 0.48478,0c0.26932,0 0.47535,-0.11446 0.61809,-0.34338c0.14005,-0.22892 0.24374,-0.64368 0.31107,-1.24426c0.06733,-0.59789 0.12119,-1.44221 0.16159,-2.53297c0.18852,0.13466 0.40398,0.26932 0.64637,0.40398c0.24239,0.13466 0.49151,0.25182 0.74737,0.35146c0.25586,0.10234 0.48478,0.18044 0.68677,0.23431c-0.06733,1.26581 -0.19526,2.28519 -0.38378,3.05814c-0.18852,0.77564 -0.48209,1.33853 -0.88068,1.68864c-0.3959,0.35012 -0.96417,0.52518 -1.7048,0.52518c-0.10773,0 -0.29625,0 -0.56557,0c-0.26932,0 -0.56153,0 -0.87664,0c-0.3178,0 -0.60463,0 -0.86048,0c-0.25586,0 -0.44438,0 -0.56557,0c-0.72717,0 -1.29543,-0.10504 -1.7048,-0.31511c-0.41206,-0.20738 -0.70562,-0.56019 -0.88068,-1.05843c-0.17506,-0.49824 -0.26259,-1.19175 -0.26259,-2.08051v-14.64434M245.95445,170.81151h2.2623v18.32057h-2.2623v-18.32057M257.64972,173.86157l1.55533,1.93911c-0.6733,0.47131 -1.39374,0.94262 -2.1613,1.41394c-0.76757,0.47131 -1.55129,0.92916 -2.35117,1.37354c-0.80258,0.44438 -1.58765,0.86183 -2.35521,1.25234c-0.0808,-0.24239 -0.20872,-0.52922 -0.38378,-0.86048c-0.17506,-0.32857 -0.34338,-0.60732 -0.50498,-0.83624c0.74063,-0.39051 1.48531,-0.8322 2.23402,-1.32506c0.74602,-0.49017 1.46241,-0.9911 2.14918,-1.50281c0.68677,-0.51171 1.29274,-0.99649 1.81792,-1.45433M240.3593,184.58728c0.55211,-0.17506 1.18905,-0.38782 1.91083,-0.63829c0.71909,-0.24778 1.48261,-0.5171 2.29058,-0.80796c0.80796,-0.28817 1.60919,-0.58039 2.40369,-0.87664l0.40398,1.95931c-1.02342,0.45785 -2.063,0.90896 -3.11874,1.35334c-1.05843,0.44438 -2.03203,0.84836 -2.92079,1.21195zM270.23375,181.43622h2.1411v4.58519c0,0.32319 0.06733,0.52787 0.20199,0.61405c0.13466,0.08888 0.43765,0.13331 0.90896,0.13331c0.10773,0 0.28952,0 0.54538,0c0.25586,0 0.5346,0 0.83624,0c0.30433,0 0.59116,0 0.86048,0c0.26932,0 0.47131,0 0.60597,0c0.29625,0 0.52114,-0.06733 0.67465,-0.20199c0.15621,-0.13466 0.26528,-0.41475 0.32723,-0.84028c0.05925,-0.42283 0.10234,-1.06516 0.12927,-1.92699c0.16159,0.10773 0.36089,0.21815 0.59789,0.33126c0.23431,0.11581 0.4767,0.21411 0.72717,0.29491c0.24778,0.0808 0.46593,0.14813 0.65445,0.20199c-0.0808,1.10422 -0.2195,1.95527 -0.4161,2.55316c-0.19391,0.60059 -0.48613,1.01534 -0.87664,1.24426c-0.39051,0.22892 -0.93589,0.34338 -1.63613,0.34338c-0.10773,0 -0.26932,0 -0.48478,0c-0.21546,0 -0.46458,0 -0.74737,0c-0.28279,0 -0.56153,0 -0.83624,0c-0.2774,0 -0.52383,0 -0.73929,0c-0.21546,0 -0.37032,0 -0.46458,0c-0.7541,0 -1.35065,-0.0781 -1.78964,-0.23431c-0.4363,-0.15351 -0.74871,-0.43226 -0.93724,-0.83624c-0.18852,-0.40398 -0.28279,-0.95609 -0.28279,-1.65632v-4.60539M268.84001,175.2755h2.3027c-0.0404,1.4678 -0.11715,2.82383 -0.23027,4.0681c-0.11581,1.24696 -0.3353,2.39157 -0.65849,3.43384c-0.32319,1.04497 -0.80527,1.98086 -1.44625,2.80767c-0.63829,0.82951 -1.50281,1.55668 -2.59356,2.1815c-1.09075,0.62752 -2.47102,1.15673 -4.14081,1.58765c-0.10773,-0.28279 -0.28683,-0.61001 -0.5373,-0.98168c-0.24778,-0.36897 -0.48613,-0.66792 -0.71505,-0.89684c1.53513,-0.36358 2.7969,-0.80796 3.78531,-1.33314c0.9911,-0.52518 1.76675,-1.13788 2.32693,-1.83812c0.55749,-0.70024 0.96821,-1.49877 1.23214,-2.39561c0.26124,-0.89415 0.43226,-1.89333 0.51306,-2.99754c0.0808,-1.10422 0.13466,-2.31616 0.16159,-3.63584M263.32566,171.43768h13.65458v11.67507h-2.36329v-9.45317h-9.02899v9.45317h-2.2623zM292.85672,170.46812h2.04011v14.19996h-2.04011v-14.19996M286.7566,178.64875l10.58432,-4.4842l0.80796,1.85832l-10.58432,4.54479l-0.80796,-1.91891M288.81691,172.40723h2.06031v13.2102c0,0.37705 0.03367,0.66253 0.101,0.85644c0.06733,0.1966 0.20872,0.32857 0.42418,0.3959c0.21546,0.06733 0.53191,0.101 0.94936,0.101c0.12119,0 0.32049,0 0.59789,0c0.27471,0 0.58712,0 0.93724,0c0.35012,0 0.70428,0 1.06247,0c0.3555,0 0.67869,0 0.96956,0c0.28817,0 0.49959,0 0.63425,0c0.37705,0 0.65984,-0.07137 0.84836,-0.21411c0.18852,-0.14005 0.32992,-0.39859 0.42418,-0.77564c0.09426,-0.37705 0.16159,-0.92243 0.20199,-1.63613c0.24239,0.17506 0.54942,0.33665 0.92108,0.48478c0.36897,0.14813 0.70158,0.24912 0.99783,0.30299c-0.09426,0.95609 -0.24912,1.70615 -0.46458,2.25018c-0.21546,0.54672 -0.53864,0.93724 -0.96956,1.17155c-0.43091,0.237 -1.03015,0.3555 -1.79772,0.3555c-0.13466,0 -0.35281,0 -0.65445,0c-0.30433,0 -0.65176,0 -1.04227,0c-0.39051,0 -0.77699,0 -1.15943,0c-0.38513,0 -0.72851,0 -1.03015,0c-0.30433,0 -0.5171,0 -0.63829,0c-0.86183,0 -1.54186,-0.09426 -2.04011,-0.28279c-0.49824,-0.18852 -0.84567,-0.52248 -1.04227,-1.00187c-0.19391,-0.4767 -0.29087,-1.1527 -0.29087,-2.02799v-13.19M296.93694,174.40694h-0.16159l0.40398,-0.30299l0.40398,-0.26259l1.49473,0.54538l-0.0808,0.36358c0,0.95609 -0.00269,1.83408 -0.00808,2.63396c-0.00808,0.80258 -0.01616,1.51358 -0.02424,2.13302c-0.00539,0.61944 -0.01885,1.13788 -0.0404,1.55533c-0.01885,0.41745 -0.04175,0.72717 -0.06868,0.92916c-0.0404,0.45785 -0.14813,0.81066 -0.32319,1.05843c-0.17506,0.25047 -0.42418,0.42957 -0.74737,0.5373c-0.28279,0.12119 -0.6154,0.19122 -0.99783,0.21007c-0.38513,0.02155 -0.73255,0.03232 -1.04227,0.03232c-0.02693,-0.26932 -0.08349,-0.58308 -0.16967,-0.94128c-0.08888,-0.3555 -0.18718,-0.64772 -0.29491,-0.87664c0.18852,0.01347 0.39051,0.0202 0.60597,0.0202c0.21546,0 0.37032,0 0.46458,0c0.13466,0 0.24239,-0.03097 0.32319,-0.09292c0.0808,-0.05925 0.13466,-0.18314 0.16159,-0.37166c0.02693,-0.10773 0.04713,-0.34069 0.0606,-0.69889c0.01347,-0.3555 0.02424,-0.82951 0.03232,-1.42202c0.00539,-0.59251 0.00808,-1.31025 0.00808,-2.15322c0,-0.84028 0,-1.8058 0,-2.89655M280.99986,175.21491h6.6051v2.04011h-6.6051v-2.04011M283.42375,170.73071h2.04011v13.3112h-2.04011v-13.3112M280.75747,184.2035c0.55211,-0.20199 1.19444,-0.44842 1.92699,-0.73929c0.73525,-0.28817 1.51089,-0.60463 2.32693,-0.94936c0.81335,-0.34204 1.63074,-0.68138 2.45217,-1.01803l0.48478,1.91891c-1.07728,0.52518 -2.17207,1.04631 -3.28437,1.56341c-1.1096,0.51979 -2.12225,0.98841 -3.03794,1.40586zM301.62312,173.78077h17.93679v2.1209h-17.93679v-2.1209M308.18783,178.56795h7.83724v2.1007h-7.83724v-2.1007M315.4595,178.56795h2.2623c0,0 -0.00269,0.0606 -0.00808,0.18179c-0.00808,0.12119 -0.01212,0.25586 -0.01212,0.40398c0,0.14813 -0.01347,0.26932 -0.0404,0.36358c-0.12119,1.87178 -0.25586,3.39345 -0.40398,4.56499c-0.14813,1.17155 -0.31645,2.08051 -0.50498,2.72688c-0.18852,0.64637 -0.42418,1.11095 -0.70697,1.39374c-0.28279,0.30972 -0.58847,0.52518 -0.91704,0.64637c-0.33126,0.12119 -0.71909,0.20199 -1.16347,0.24239c-0.37705,0.0404 -0.87799,0.05656 -1.50281,0.04848c-0.62752,-0.00539 -1.27793,-0.02155 -1.95123,-0.04848c-0.01347,-0.32319 -0.09426,-0.68677 -0.24239,-1.09075c-0.14813,-0.40398 -0.32992,-0.7541 -0.54538,-1.05035c0.70024,0.06733 1.37085,0.10773 2.01183,0.12119c0.63829,0.01347 1.10556,0.0202 1.40182,0.0202c0.22892,0 0.41745,-0.01751 0.56557,-0.05252c0.14813,-0.03232 0.28952,-0.09561 0.42418,-0.18987c0.20199,-0.18852 0.38378,-0.58308 0.54538,-1.18367c0.16159,-0.59789 0.30972,-1.44895 0.44438,-2.55316c0.13466,-1.10422 0.24912,-2.50469 0.34338,-4.20141v-0.34338M306.87489,175.11391h2.42389c-0.05386,1.06382 -0.13466,2.13437 -0.24239,3.21165c-0.10773,1.07728 -0.28279,2.1411 -0.52518,3.19146c-0.24239,1.05035 -0.59251,2.05357 -1.05035,3.00966c-0.45785,0.95609 -1.06382,1.84754 -1.81792,2.67436c-0.7541,0.82951 -1.69672,1.56072 -2.82787,2.19362c-0.16159,-0.28279 -0.39321,-0.59251 -0.69485,-0.92916c-0.30433,-0.33665 -0.60463,-0.6127 -0.90088,-0.82816c1.05035,-0.55211 1.91622,-1.19175 2.5976,-1.91891c0.67869,-0.72717 1.21733,-1.51224 1.61593,-2.35521c0.3959,-0.84028 0.68812,-1.72231 0.87664,-2.64608c0.18852,-0.92108 0.31645,-1.85697 0.38378,-2.80767c0.06733,-0.94801 0.12119,-1.87986 0.16159,-2.79555M309.01599,171.0539l2.1209,-0.80796c0.26932,0.45785 0.54538,0.96282 0.82816,1.51493c0.28279,0.55211 0.49824,1.02342 0.64637,1.41394l-2.2219,0.96956c-0.13466,-0.41745 -0.33665,-0.91569 -0.60597,-1.49473c-0.26932,-0.57904 -0.52518,-1.11095 -0.76757,-1.59573z" fill="#ffffff" stroke-width="1"/><path d="M240,196v-32h208v32z" fill="none" stroke-width="0"/><path d="" fill="#ffffff" stroke-width="1"/></g></g></svg>