<svg version="1.1" xmlns="http://www.w3.org/2000/svg" xmlns:xlink="http://www.w3.org/1999/xlink" width="208.38558" height="32" viewBox="0,0,208.38558,32"><g transform="translate(-239.61442,-164.00001)"><g stroke-miterlimit="10"><path d="M339.01482,172.49728v1.4789h-8.09474v2.08296h6.87443v10.62307c0,0.63877 -0.07118,1.12827 -0.21355,1.46848c-0.14237,0.34022 -0.37287,0.57628 -0.69151,0.7082c-0.31864,0.13192 -0.77625,0.19788 -1.37285,0.19788h-2.50164l-0.28474,-1.45807h2.2169c0.39321,0 0.67795,-0.03124 0.85422,-0.09373c0.17627,-0.06249 0.29491,-0.18052 0.35592,-0.3541c0.06102,-0.17358 0.09152,-0.44784 0.09152,-0.82277v-8.83173h-12.32516v11.58123h-1.48471v-13.01847h6.91511v-2.08296h-8.1761v-1.4789h8.1761v-2.27042h1.56607v2.27042zM317.49664,179.51684v1.54139h-6.32529v5.499c0,0.9165 -0.21017,1.55875 -0.63049,1.92673c-0.42033,0.36799 -1.11184,0.55198 -2.07453,0.55198h-2.19656l-0.2644,-1.64553h2.07453c0.42033,0 0.73219,-0.03124 0.93557,-0.09373c0.20339,-0.06249 0.34237,-0.18052 0.41694,-0.3541c0.07457,-0.17358 0.11186,-0.44089 0.11186,-0.80194v-5.08241h-6.87443v-1.56222c0.73219,-1.1248 1.64064,-2.7495 2.72537,-4.87412h-4.21008v-1.56222h5.00328c0.54236,-1.1248 0.98981,-2.12461 1.34234,-2.99946l1.54573,0.62489c-0.21694,0.59711 -0.5627,1.38864 -1.03727,2.37457h10.31164v1.56222h-11.08451c-1.16608,2.31902 -2.06097,3.95067 -2.68469,4.89495h4.9626v-3.64517h1.62708v3.64517zM272.28406,184.76588h5.89818v1.45807h-5.89818v3.16609h-1.48471v-3.16609h-6.77274v-1.45807h6.77274v-2.24959h-5.30836v-1.41641c0.5966,-0.94427 1.24743,-2.05518 1.9525,-3.33273h-2.98977v-1.41641h3.72195c0.35254,-0.68043 0.67795,-1.37475 0.97625,-2.08296l1.50505,0.22913c-0.10847,0.26384 -0.39321,0.88178 -0.85422,1.85383h7.62695v1.41641h-8.37948c-0.5966,1.15257 -1.23387,2.26348 -1.91182,3.33273h3.66094v-2.49955h1.48471v2.49955h4.71854v1.41641h-4.71854zM298.52078,183.47445h-10.10826c-1.03049,1.16646 -2.29148,2.37457 -3.78297,3.62434l9.13201,-0.3541l-2.23724,-2.16627l0.99659,-1.02065c0.58304,0.54157 1.14235,1.06925 1.67793,1.58305c0.53558,0.5138 1.00676,0.9651 1.41353,1.35392c1.46438,1.41641 2.06775,1.99269 1.81013,1.72885l-1.0576,1.18728c-0.2305,-0.24995 -0.65083,-0.68738 -1.26099,-1.31226l-12.56922,0.5624l-0.38643,-1.4789c1.59997,-1.16646 3.00332,-2.40234 4.21008,-3.70766h-5.83716v-1.41641h2.68469v-10.83137h12.56922v10.83137h2.7457zM253.24718,177.93379v4.16591h4.59651v1.54139h-17.97927v-1.54139h3.31518v-9.89404c5.07108,-0.29161 9.20658,-0.76375 12.40651,-1.41641l0.28474,1.49973c-1.43726,0.31939 -3.15925,0.60406 -5.16599,0.85401c-2.00674,0.24995 -3.99313,0.42353 -5.95919,0.52074v2.77033h12.46753v1.49973zM359.12965,173.18465l-1.6881,5.31154c0.71863,0.95816 1.22031,1.8087 1.50505,2.55162c0.28474,0.74292 0.42711,1.53097 0.42711,2.36415c0,1.18034 -0.24406,2.02047 -0.73219,2.52038c-0.48813,0.49991 -1.30845,0.74986 -2.46096,0.74986h-1.1593l-0.30508,-1.4789h1.0576c0.79998,0 1.35929,-0.14928 1.67793,-0.44784c0.31864,-0.29856 0.47796,-0.82971 0.47796,-1.59346c0,-0.66655 -0.15932,-1.34698 -0.47796,-2.0413c-0.31864,-0.69432 -0.82371,-1.46501 -1.51522,-2.31208l1.64742,-5.64481h-3.41688v16.26788h-1.44404v-17.80927h6.40664zM271.26713,172.41396h6.87443v1.39558h-14.54206v5.01992c0,1.80523 -0.05763,3.27371 -0.17288,4.40545c-0.11525,1.13174 -0.31525,2.15933 -0.59999,3.08277c-0.28474,0.92344 -0.70507,1.95451 -1.26099,3.09319l-1.44404,-0.77069c0.56948,-1.1248 0.9932,-2.12809 1.27116,-3.00987c0.27796,-0.88178 0.47118,-1.82259 0.57965,-2.8224c0.10847,-0.99982 0.16271,-2.27736 0.16271,-3.83264v-6.56131h7.36255l-0.61016,-1.91632l1.64742,-0.29161c0.01356,0.04166 0.0678,0.19441 0.16271,0.45825c0.2983,0.86096 0.48813,1.44418 0.56948,1.74968zM335.43524,183.74524v1.24977h-4.5355v3.68683h-1.52539v-3.68683h-4.65753v-1.24977h4.65753v-1.91632h-4.21008v-1.24977h2.76604c-0.63727,-0.87484 -1.17964,-1.5761 -1.62708,-2.10378l1.1593,-0.66655c-0.04068,-0.05555 0.23728,0.29856 0.83388,1.06231l0.95591,1.22894l-0.85422,0.47908h2.29826c0.67795,-0.90261 1.29489,-1.833 1.85081,-2.79116l1.30167,0.64572c-0.27118,0.45825 -0.77286,1.1734 -1.50505,2.14544h2.64401v1.24977h-4.08805v1.91632zM351.1366,174.16364h-1.52539c-0.16271,1.29143 -0.37287,2.50649 -0.63049,3.64517h2.7457v1.49973h-10.18961v-1.49973h2.60333c-0.25762,-1.58305 -0.4949,-2.7981 -0.71185,-3.64517h-1.38302v-1.4789h3.96602c-0.17627,-0.73598 -0.37965,-1.41641 -0.61016,-2.0413l1.50505,-0.37493c0.27118,0.83318 0.50168,1.63859 0.69151,2.41623h3.53891zM344.14014,187.66119v1.39558h-1.4237v-7.85274h7.76932v6.45716zM294.3107,182.05804v-2.29125h-9.62013v2.29125zM284.69057,176.20494v2.20793h9.62013v-2.20793zM284.69057,174.89268h9.62013v-2.1871h-9.62013zM251.68111,182.0997v-4.16591h-6.93544v4.16591zM240.90168,189.41087l-0.75253,-1.45807c0.8271,-0.38882 1.87115,-0.96857 3.13214,-1.73927c1.26099,-0.77069 2.27114,-1.44765 3.03044,-2.03088l0.87456,1.2706c-0.79998,0.62489 -1.80674,1.31573 -3.02027,2.07254c-1.21353,0.75681 -2.30164,1.38517 -3.26434,1.88507zM250.52182,185.47409l0.85422,-1.31226l6.1219,3.77015l-0.87456,1.45807c-0.77286,-0.54157 -1.76267,-1.1977 -2.96943,-1.96839c-1.20675,-0.77069 -2.2508,-1.41988 -3.13214,-1.94756zM305.39521,182.16219l1.24065,1.08314c-0.65083,0.94427 -1.41353,1.91632 -2.28809,2.91614c-0.87456,0.99982 -1.72539,1.84689 -2.55249,2.54121l-1.0576,-1.35392c0.79998,-0.611 1.61691,-1.38864 2.45079,-2.33291c0.83388,-0.94427 1.56946,-1.89549 2.20673,-2.85365zM312.69675,183.3703l1.09828,-1.16646c0.63727,0.59711 1.45082,1.39905 2.44063,2.40581c0.98981,1.00676 1.85759,1.89896 2.60333,2.6766l-1.13896,1.24977c-0.67795,-0.77764 -1.51183,-1.68025 -2.50164,-2.70784c-0.98981,-1.02759 -1.82369,-1.84689 -2.50164,-2.45789zM344.14014,186.24478h4.92193v-3.56185h-4.92193zM348.22819,174.16364h-3.35586c0.35254,1.72191 0.58982,2.93697 0.71185,3.64517h2.01352c0.24406,-1.08314 0.45423,-2.29819 0.63049,-3.64517z" fill="#ffffff" fill-rule="evenodd" stroke="#ffffff" stroke-width="0.5" stroke-linecap="round"/><path d="M240,196.00001v-32h208v32z" fill="none" fill-rule="nonzero" stroke="none" stroke-width="0" stroke-linecap="butt"/></g></g></svg>