<svg version="1.1" xmlns="http://www.w3.org/2000/svg" xmlns:xlink="http://www.w3.org/1999/xlink" width="60.67639" height="19.72658" viewBox="0,0,60.67639,19.72658"><g transform="translate(-240.08436,-170.79653)"><g fill="#ffffff" stroke="none" stroke-miterlimit="10"><path d="M243.3063,173.93532h15.75632v2.1826h-15.75632v-2.1826M242.26697,173.93532h2.36968v6.31916c0,0.77604 -0.03049,1.6172 -0.09146,2.52351c-0.06375,0.90907 -0.18847,1.83062 -0.37416,2.76463c-0.18847,0.93679 -0.46285,1.83061 -0.82315,2.68148c-0.3603,0.85364 -0.83147,1.61997 -1.4135,2.29901c-0.12472,-0.15244 -0.3021,-0.33675 -0.53214,-0.55293c-0.22727,-0.21341 -0.45869,-0.42128 -0.69428,-0.6236c-0.23558,-0.19955 -0.44345,-0.35476 -0.6236,-0.46562c0.66517,-0.80376 1.15019,-1.70451 1.45507,-2.70227c0.30487,-0.99776 0.50304,-2.01354 0.5945,-3.04733c0.08869,-1.03102 0.13304,-2.00384 0.13304,-2.91845v-6.27758M248.96028,171.23305l2.34889,-0.43652c0.20787,0.51274 0.40881,1.07398 0.60282,1.68372c0.19401,0.60974 0.33952,1.13634 0.43652,1.57979l-2.45284,0.51967c-0.08315,-0.44345 -0.2148,-0.9839 -0.39495,-1.62136c-0.18015,-0.63746 -0.3603,-1.21255 -0.54045,-1.72529zM277.50043,179.85953h2.20339c0,0 -0.00277,0.05543 -0.00832,0.16629c-0.00831,0.11086 -0.01247,0.23558 -0.01247,0.37416c0,0.13858 -0.00693,0.2633 -0.02078,0.37416c-0.097,1.85695 -0.20094,3.36329 -0.3118,4.51903c-0.11086,1.15851 -0.24251,2.04957 -0.39495,2.67317c-0.15244,0.6236 -0.33952,1.06705 -0.56124,1.33035c-0.23558,0.27716 -0.48779,0.47116 -0.75663,0.58203c-0.27161,0.11086 -0.58757,0.18708 -0.94788,0.22865c-0.30487,0.04157 -0.70259,0.06236 -1.19316,0.06236c-0.49334,0 -1.01023,-0.00693 -1.55069,-0.02079c-0.02772,-0.30487 -0.09977,-0.65131 -0.21618,-1.03933c-0.11918,-0.38802 -0.26192,-0.71368 -0.42821,-0.97697c0.51274,0.04157 0.99083,0.06513 1.43428,0.07068c0.44345,0.00831 0.76911,0.01247 0.97698,0.01247c0.18015,0 0.32981,-0.01386 0.44899,-0.04157c0.11641,-0.02772 0.23004,-0.097 0.3409,-0.20787c0.15244,-0.16629 0.29101,-0.52659 0.41573,-1.08091c0.12472,-0.55431 0.23281,-1.37192 0.32427,-2.45283c0.08869,-1.08091 0.17461,-2.48748 0.25776,-4.2197v-0.35338M267.23179,182.47866h2.05789v4.92645h-2.05789v-4.92645M272.42847,183.28934h2.0371v5.79949h-2.0371v-5.79949M262.2222,183.33091h2.0371v3.32587h9.02143v1.85002h-11.05853v-5.17589M275.17232,172.62576h2.07867c0,0 0,0.097 0,0.29101c0,0.19401 -0.00693,0.35338 -0.02079,0.4781c-0.06929,1.03933 -0.14135,1.90544 -0.21618,2.59834c-0.0776,0.69289 -0.16768,1.24027 -0.27023,1.64215c-0.10532,0.40188 -0.24806,0.69289 -0.42821,0.87304c-0.16629,0.20787 -0.34921,0.35615 -0.54877,0.44484c-0.20232,0.09146 -0.43514,0.15105 -0.69843,0.17877c-0.22172,0.04157 -0.50858,0.06513 -0.86057,0.07068c-0.35476,0.00831 -0.73308,0.00554 -1.13495,-0.00832c-0.02772,-0.30487 -0.09008,-0.64162 -0.18708,-1.01023c-0.097,-0.36585 -0.22172,-0.68042 -0.37416,-0.94372c0.31873,0.02772 0.60974,0.04851 0.87304,0.06236c0.2633,0.01386 0.46424,0.02078 0.60282,0.02078c0.12472,0 0.23558,-0.01386 0.33259,-0.04157c0.097,-0.02772 0.18015,-0.08315 0.24944,-0.16629c0.13858,-0.15244 0.25637,-0.54045 0.35338,-1.16406c0.097,-0.6236 0.18015,-1.64215 0.24944,-3.05564v-0.27023M269.06102,170.79653l2.6607,0.22866c-0.22172,0.51274 -0.47116,1.00746 -0.74832,1.48417c-0.27716,0.47948 -0.5266,0.89244 -0.74832,1.23889l-1.97473,-0.35337c0.15244,-0.38802 0.30903,-0.82454 0.46978,-1.30956c0.15798,-0.48502 0.27161,-0.91461 0.3409,-1.28878M266.77449,176.57523l1.1017,-1.4135c0.48502,0.16629 1.00469,0.36723 1.559,0.60282c0.55431,0.23558 1.08368,0.47809 1.58811,0.72753c0.50719,0.24944 0.92709,0.48502 1.25967,0.70675l-1.16406,1.559c-0.30487,-0.22172 -0.70675,-0.46424 -1.20563,-0.72754c-0.49888,-0.2633 -1.02271,-0.52382 -1.57148,-0.78158c-0.546,-0.25498 -1.06844,-0.47948 -1.56732,-0.67349M275.8167,172.62576v1.99552h-9.89447v5.23825h12.24337v1.95395h-14.42597v-9.18772zM282.09429,182.31236h18.66646v2.01631h-18.66646v-2.01631M286.23084,175.3696h10.35178v1.82923h-10.35178v-1.82923M286.25163,178.82019h10.37257v1.80845h-10.37257v-1.80845M285.31623,171.83586h12.70068v11.39112h-2.24496v-9.52031h-8.2939v9.52031h-2.16182v-11.39112M293.54776,185.11856l1.89159,-0.83147c0.59589,0.47117 1.2084,1.00469 1.83754,1.60058c0.63191,0.59589 1.22087,1.18068 1.76687,1.7544c0.54877,0.57648 1.0033,1.08645 1.36361,1.5299l-1.95395,1.01855c-0.34645,-0.47117 -0.79267,-1.00884 -1.33867,-1.61305c-0.54877,-0.60143 -1.13495,-1.20701 -1.75855,-1.81676c-0.6236,-0.60974 -1.22642,-1.15713 -1.80845,-1.64215M283.94431,189.754c-0.04157,-0.16629 -0.10394,-0.37416 -0.18708,-0.6236c-0.08315,-0.24944 -0.16629,-0.50997 -0.24944,-0.78158c-0.08315,-0.26884 -0.17322,-0.50027 -0.27022,-0.69428c0.23558,-0.05543 0.47116,-0.14966 0.70675,-0.2827c0.23558,-0.13026 0.49195,-0.30626 0.76911,-0.52798c0.20787,-0.13858 0.5169,-0.38802 0.92709,-0.74832c0.40742,-0.3603 0.86057,-0.79682 1.35945,-1.30956c0.49888,-0.51274 0.95619,-1.05319 1.37192,-1.62136l2.28654,0.87304c-0.80376,0.90076 -1.66017,1.75578 -2.56924,2.56508c-0.9063,0.81207 -1.78211,1.49525 -2.62744,2.04957v0.04157c0,0 -0.07622,0.03465 -0.22866,0.10394c-0.15244,0.06929 -0.32843,0.15521 -0.52798,0.25775c-0.20232,0.10532 -0.3797,0.22034 -0.53214,0.34506c-0.15244,0.12472 -0.22865,0.24251 -0.22865,0.35338M283.94431,189.754l-0.02079,-1.53822l1.33035,-0.72754l12.0355,-0.47809c0.04157,0.27716 0.10393,0.5848 0.18708,0.92293c0.08315,0.3409 0.14551,0.61529 0.18708,0.82316c-1.91238,0.097 -3.56146,0.18292 -4.94724,0.25775c-1.38578,0.0776 -2.55676,0.14412 -3.51295,0.19955c-0.95619,0.05543 -1.74331,0.10393 -2.36137,0.1455c-0.61529,0.04157 -1.10724,0.07899 -1.47586,0.11225c-0.36585,0.03603 -0.65547,0.07483 -0.86888,0.11641c-0.21618,0.04157 -0.40049,0.097 -0.55293,0.16629z"/></g></g></svg>