<svg version="1.1" xmlns="http://www.w3.org/2000/svg" xmlns:xlink="http://www.w3.org/1999/xlink" width="79.07753" height="19.05068" viewBox="0,0,79.07753,19.05068"><g transform="translate(-240.24947,-170.59972)"><g fill="#ffffff" stroke="none" stroke-miterlimit="10"><path d="M240.24947,172.54325h17.9372v2.02451h-17.9372v-2.02451M244.62243,181.0867h9.21154v1.70059h-9.21154v-1.70059M244.19728,184.32593h10.06184v1.76133h-10.06184v-1.76133M248.12484,181.91675h2.065v7.22752h-2.065v-7.22752M241.09977,176.26836h14.65748v2.00427h-12.47101v11.35753h-2.18648v-13.3618M255.12966,176.26836h2.22697v11.11458c0,0.55337 -0.07693,0.97447 -0.23079,1.2633c-0.15656,0.29153 -0.43055,0.51153 -0.82195,0.65999c-0.39141,0.14846 -0.88404,0.23889 -1.4779,0.27128c-0.59386,0.03509 -1.29569,0.05264 -2.10549,0.05264c-0.05399,-0.26993 -0.15116,-0.58441 -0.29153,-0.94342c-0.14307,-0.35631 -0.28883,-0.66269 -0.4373,-0.91913c0.36441,0.0135 0.72883,0.02699 1.09324,0.04049c0.36441,0.0135 0.69238,0.0162 0.98391,0.0081c0.28883,-0.0054 0.48048,-0.0081 0.57496,-0.0081c0.18895,-0.0135 0.31717,-0.05129 0.38466,-0.11337c0.06748,-0.05939 0.10123,-0.16331 0.10123,-0.31178v-11.11458M245.47272,178.83949l1.72084,-0.50613c0.24294,0.33742 0.47644,0.71533 0.70048,1.13373c0.22135,0.4184 0.38601,0.78956 0.49398,1.11348l-1.82206,0.60735c-0.08098,-0.32392 -0.22944,-0.70858 -0.44539,-1.15397c-0.21595,-0.44539 -0.4319,-0.84355 -0.64784,-1.19446M251.30332,178.35361l1.84231,0.52637c-0.26993,0.48588 -0.53987,0.96502 -0.80981,1.43741c-0.26993,0.47239 -0.53312,0.88404 -0.78956,1.23495l-1.53863,-0.46564c0.16196,-0.25644 0.31987,-0.54662 0.47374,-0.87054c0.15656,-0.32392 0.30908,-0.64784 0.45754,-0.97177c0.14846,-0.32392 0.26993,-0.62085 0.36441,-0.89079M248.04386,170.86291h2.38893v6.80237h-2.38893zM261.24369,173.35306h16.43906v1.92329h-16.43906v-1.92329M262.19521,176.47081h14.65748v1.84231h-14.65748v-1.84231M260.9805,182.66582h17.35009v1.94353h-17.35009v-1.94353M260.39339,179.56832h18.32186v1.90304h-18.32186v-1.90304M268.30924,174.52728h2.22697v6.53918h-2.22697v-6.53918M263.77433,171.40952l1.92329,-0.76932c0.33742,0.36441 0.65459,0.77201 0.95152,1.22281c0.29693,0.45349 0.51288,0.8557 0.64784,1.20661l-2.02451,0.89079c-0.12147,-0.36441 -0.32392,-0.78686 -0.60735,-1.26735c-0.28343,-0.47779 -0.58036,-0.90563 -0.89079,-1.28354M272.92514,170.64021l2.30795,0.60735c-0.33742,0.53987 -0.68833,1.06894 -1.05275,1.58722c-0.36441,0.52097 -0.69508,0.95692 -0.99201,1.30784l-1.94353,-0.58711c0.18895,-0.26993 0.38871,-0.57361 0.59926,-0.91103c0.20785,-0.33742 0.40625,-0.68159 0.59521,-1.0325c0.18895,-0.35092 0.35092,-0.67484 0.48588,-0.97177M268.0663,181.04621h2.2877c-0.09448,0.91778 -0.23619,1.76403 -0.42515,2.53874c-0.18895,0.77741 -0.47644,1.48329 -0.86244,2.11764c-0.38331,0.63435 -0.90833,1.20121 -1.57507,1.70059c-0.66944,0.49938 -1.52783,0.93128 -2.57518,1.29569c-1.04465,0.36441 -2.32279,0.67484 -3.83443,0.93128c-0.04049,-0.20245 -0.12147,-0.42245 -0.24294,-0.65999c-0.12147,-0.23484 -0.25644,-0.47104 -0.4049,-0.70858c-0.14846,-0.23484 -0.29693,-0.43325 -0.44539,-0.59521c1.37667,-0.18895 2.53064,-0.42245 3.46192,-0.70048c0.93128,-0.27533 1.6844,-0.60195 2.25936,-0.97986c0.57226,-0.37791 1.01631,-0.80981 1.33213,-1.29569c0.31852,-0.48588 0.54932,-1.0325 0.69238,-1.63986c0.14037,-0.60735 0.25104,-1.27544 0.33202,-2.00427M270.81964,183.33391c0.62085,1.29569 1.60611,2.2904 2.95579,2.98413c1.34968,0.69643 3.09751,1.13913 5.24349,1.32808c-0.14846,0.14846 -0.30638,0.34417 -0.47374,0.58711c-0.17006,0.24294 -0.32932,0.48858 -0.47779,0.73692c-0.14846,0.25104 -0.26993,0.47779 -0.36441,0.68024c-1.55213,-0.21595 -2.89506,-0.56417 -4.02878,-1.04465c-1.13373,-0.47779 -2.09605,-1.12158 -2.88696,-1.93139c-0.78821,-0.80981 -1.4455,-1.80182 -1.97188,-2.97604zM283.00722,181.61308v-1.68035l1.27544,-0.74907h13.15934v2.12574h-12.1066c-0.37791,0 -0.73152,0.00945 -1.06085,0.02834c-0.33202,0.0216 -0.6087,0.05534 -0.83005,0.10123c-0.22405,0.04859 -0.36981,0.10663 -0.4373,0.17411M289.58689,176.5113h2.20672v10.46674c0,0.56686 -0.06748,1.01496 -0.20245,1.34428c-0.13497,0.33202 -0.4049,0.58576 -0.80981,0.76122c-0.37791,0.18895 -0.84355,0.30638 -1.39691,0.35227c-0.55337,0.04859 -1.20121,0.07288 -1.94353,0.07288c-0.02699,-0.21595 -0.08773,-0.45889 -0.18221,-0.72883c-0.09448,-0.26993 -0.19165,-0.53717 -0.29153,-0.80171c-0.10258,-0.26184 -0.20785,-0.49398 -0.31582,-0.69643c0.52637,0.0135 1.0325,0.02294 1.51839,0.02834c0.48588,0.0081 0.81655,0.0054 0.99201,-0.0081c0.16196,0 0.27398,-0.02699 0.33607,-0.08098c0.05939,-0.05399 0.08908,-0.14846 0.08908,-0.28343v-10.42625M284.42438,182.62533l2.18648,0.60735c-0.31042,0.71533 -0.68159,1.42661 -1.11348,2.13384c-0.4319,0.70993 -0.88674,1.37532 -1.36452,1.99617c-0.48048,0.62085 -0.97042,1.16072 -1.4698,1.61961c-0.13497,-0.12147 -0.31313,-0.27398 -0.53447,-0.45754c-0.22405,-0.18086 -0.45079,-0.35631 -0.68024,-0.52637c-0.22944,-0.16736 -0.4319,-0.30503 -0.60735,-0.413c0.72883,-0.59386 1.41446,-1.33618 2.05691,-2.22697c0.63975,-0.89079 1.14857,-1.80182 1.52648,-2.73309M293.02857,183.49588l1.84231,-0.87054c0.48588,0.49938 0.98931,1.0487 1.51029,1.64795c0.51828,0.60195 1.00416,1.19581 1.45765,1.78157c0.45079,0.58846 0.81116,1.11888 1.08109,1.59127l-1.98402,1.0325c-0.24294,-0.47239 -0.57631,-1.00956 -1.00011,-1.61151c-0.4265,-0.59926 -0.89214,-1.21336 -1.39691,-1.84231c-0.50748,-0.62625 -1.01091,-1.20256 -1.51029,-1.72894M281.06369,173.3733h17.3096v2.08525h-17.3096v-2.08525M283.00722,181.61308c-0.04049,-0.14846 -0.10392,-0.35766 -0.1903,-0.6276c-0.08908,-0.26993 -0.18761,-0.55067 -0.29558,-0.8422c-0.10797,-0.28883 -0.2092,-0.53447 -0.30368,-0.73692c0.26993,-0.08098 0.53042,-0.24969 0.78146,-0.50613c0.24834,-0.25644 0.53447,-0.60061 0.85839,-1.0325c0.17546,-0.20245 0.42245,-0.54662 0.74097,-1.0325c0.31582,-0.48588 0.66674,-1.06354 1.05275,-1.73298c0.38331,-0.66674 0.77067,-1.38477 1.16207,-2.15408c0.39141,-0.76932 0.74907,-1.55213 1.07299,-2.34844l2.36868,0.87054c-0.51288,1.10674 -1.07974,2.19322 -1.70059,3.25947c-0.62085,1.06624 -1.2579,2.0785 -1.91114,3.03677c-0.65594,0.95827 -1.30109,1.82206 -1.93544,2.59138v0.04049c0,0 -0.08773,0.04319 -0.26319,0.12957c-0.17546,0.08908 -0.37116,0.19705 -0.58711,0.32392c-0.21595,0.12957 -0.41165,0.26184 -0.58711,0.3968c-0.17546,0.13497 -0.26319,0.25644 -0.26319,0.36441zM312.26145,171.75369h5.28398v1.96378h-3.36069v15.87219h-1.92329v-17.83597M317.10004,171.75369h0.4049l0.32392,-0.08098l1.49814,0.93128c-0.33742,0.97177 -0.71533,2.00022 -1.13373,3.08536c-0.4184,1.08784 -0.8233,2.07715 -1.21471,2.96794c0.8368,0.93128 1.38072,1.79777 1.63176,2.59948c0.24834,0.80441 0.37251,1.54403 0.37251,2.21887c0,0.68833 -0.07693,1.27544 -0.23079,1.76133c-0.15656,0.48588 -0.41705,0.85704 -0.78146,1.11348c-0.17546,0.12147 -0.37791,0.21865 -0.60735,0.29153c-0.22944,0.07558 -0.47239,0.13362 -0.72883,0.17411c-0.22944,0.02699 -0.48588,0.04319 -0.76932,0.04859c-0.28343,0.0081 -0.56686,0.0054 -0.8503,-0.0081c-0.0135,-0.28343 -0.06074,-0.62085 -0.14172,-1.01226c-0.08098,-0.39141 -0.2092,-0.72883 -0.38466,-1.01226c0.25644,0.02699 0.48993,0.04319 0.70048,0.04859c0.20785,0.0081 0.3995,0.0054 0.57496,-0.0081c0.13497,0 0.26993,-0.01755 0.4049,-0.05264c0.13497,-0.03239 0.24969,-0.08233 0.34417,-0.14981c0.17546,-0.10797 0.30098,-0.28748 0.37656,-0.53852c0.07288,-0.24834 0.10932,-0.54797 0.10932,-0.89888c0,-0.58036 -0.14172,-1.23495 -0.42515,-1.96378c-0.28343,-0.72883 -0.83005,-1.51164 -1.63986,-2.34844c0.20245,-0.51288 0.40895,-1.06354 0.6195,-1.652c0.20785,-0.58576 0.4103,-1.17962 0.60735,-1.78157c0.19435,-0.59926 0.37251,-1.16207 0.53447,-1.68845c0.16196,-0.52637 0.29693,-0.97177 0.4049,-1.33618v-0.70858M301.26834,173.04938h9.73791v1.94353h-9.73791v-1.94353M300.74197,178.49532h10.70968v1.96378h-10.70968v-1.96378M302.36158,175.43831l1.86255,-0.46564c0.28343,0.48588 0.53717,1.02171 0.76122,1.60746c0.22135,0.58846 0.37926,1.09864 0.47374,1.53053l-1.94353,0.54662c-0.08098,-0.44539 -0.22944,-0.96907 -0.44539,-1.57102c-0.21595,-0.59926 -0.45214,-1.14857 -0.70858,-1.64795M308.09095,174.91193l2.14599,0.46564c-0.18895,0.45889 -0.38466,0.92453 -0.58711,1.39691c-0.20245,0.47239 -0.39816,0.92453 -0.58711,1.35642c-0.18895,0.4319 -0.37791,0.81655 -0.56686,1.15397l-1.82206,-0.44539c0.17546,-0.36441 0.35496,-0.77606 0.53852,-1.23495c0.18086,-0.45889 0.34957,-0.92453 0.50613,-1.39691c0.15386,-0.47239 0.27803,-0.90428 0.37251,-1.29569M302.86771,186.77559h6.64041v1.90304h-6.64041v-1.90304M301.73398,182.03823h8.88762v7.45021h-2.14599v-5.50668h-4.69687v5.62815h-2.04476v-7.57168M304.50756,171.16658l1.96378,-0.54662c0.21595,0.4319 0.4292,0.90428 0.63975,1.41716c0.20785,0.51288 0.35901,0.95152 0.45349,1.31593l-2.08525,0.64784c-0.08098,-0.36441 -0.2119,-0.81385 -0.39276,-1.34833c-0.18356,-0.53177 -0.37656,-1.0271 -0.57901,-1.48599z"/></g></g></svg>