<svg version="1.1" xmlns="http://www.w3.org/2000/svg" xmlns:xlink="http://www.w3.org/1999/xlink" width="179.11356" height="32" viewBox="0,0,179.11356,32"><g transform="translate(-239.89966,-164)"><g stroke="none" stroke-miterlimit="10"><path d="M240.6676,172.17816h15.01746v2.02491h-15.01746v-2.02491M244.4049,185.60039h9.52243v2.00562h-9.52243v-2.00562M243.65403,178.67714h11.04124v10.08596h-1.94544v-8.09963h-7.23568v8.15748h-1.86012v-10.14381M245.53121,173.25811l1.96251,0.55926c-0.40956,1.31137 -0.91584,2.61888 -1.51881,3.92254c-0.60297,1.30623 -1.29924,2.52759 -2.08879,3.66411c-0.79183,1.13909 -1.68832,2.12004 -2.68949,2.94286c-0.10239,-0.15428 -0.23095,-0.3317 -0.38568,-0.53226c-0.15245,-0.19799 -0.30831,-0.39341 -0.46759,-0.58625c-0.15928,-0.19285 -0.30718,-0.35356 -0.44369,-0.48212c0.93291,-0.73282 1.76682,-1.61992 2.50177,-2.6613c0.73267,-1.04138 1.36409,-2.15347 1.89425,-3.33627c0.52788,-1.1828 0.93973,-2.34633 1.23553,-3.49056zM262.92073,171.75389h10.00026v1.88991h-10.00026v-1.88991M264.96857,178.96642h5.93872v1.6392h-5.93872v-1.6392M261.55551,186.19822h11.63852v1.92848h-11.63852v-1.92848M257.49397,175.45658h5.27317v1.96706h-5.27317v-1.96706M259.31996,171.1175h1.75772v12.74726h-1.75772v-12.74726M257.1356,183.74905c0.47783,-0.16714 1.03302,-0.37284 1.66557,-0.61712c0.63027,-0.24427 1.29241,-0.50783 1.9864,-0.79068c0.69399,-0.28285 1.39366,-0.56568 2.09903,-0.84853l0.34131,1.90919c-0.93291,0.43713 -1.87946,0.86782 -2.83967,1.29209c-0.96248,0.42426 -1.84191,0.80996 -2.63829,1.15709l-0.61435,-2.10204M265.7877,177.01865v5.72759h4.16393v-5.72759h-4.16393M264.06411,175.24445h7.69644v9.27599h-7.69644zM287.92138,179.15926h1.80892c0,0 -0.00227,0.05143 -0.00682,0.15428c-0.00682,0.10285 -0.01024,0.21856 -0.01024,0.34713c0,0.12857 -0.00569,0.24428 -0.01707,0.34713c-0.07964,1.72278 -0.16496,3.12028 -0.25598,4.19252c-0.09102,1.0748 -0.19909,1.90149 -0.32424,2.48003c-0.12514,0.57854 -0.27873,0.98996 -0.46076,1.23423c-0.1934,0.25713 -0.40047,0.43713 -0.62118,0.53997c-0.22298,0.10285 -0.48237,0.17356 -0.77817,0.21213c-0.25029,0.03857 -0.57681,0.05785 -0.97955,0.05785c-0.40501,0 -0.82937,-0.00643 -1.27307,-0.01928c-0.02276,-0.28285 -0.08191,-0.60425 -0.17748,-0.96424c-0.09784,-0.35998 -0.21502,-0.66211 -0.35154,-0.90639c0.42095,0.03857 0.81345,0.06042 1.1775,0.06556c0.36406,0.00771 0.63141,0.01157 0.80206,0.01157c0.1479,0 0.26963,-0.01286 0.3652,-0.03857c0.09784,-0.02571 0.19227,-0.09 0.28328,-0.19285c0.12514,-0.15428 0.23892,-0.48855 0.34131,-1.00281c0.10239,-0.51426 0.18999,-1.2728 0.2628,-2.27561c0.07509,-1.00281 0.14676,-2.30775 0.21502,-3.91481v-0.32785M279.49113,181.58915h1.68946v4.5705h-1.68946v-4.5705M283.75745,182.34126h1.6724v5.38047h-1.6724v-5.38047M275.37839,182.37983h1.6724v3.08557h7.40634v1.71635h-9.07873v-4.80192M286.01007,172.44815h1.70653c0,0 0,0.08999 0,0.26998c0,0.17999 -0.00569,0.32784 -0.01707,0.44356c-0.05689,0.96424 -0.11604,1.76778 -0.17748,2.4106c-0.06371,0.64282 -0.13766,1.15066 -0.22185,1.5235c-0.08646,0.37284 -0.20365,0.64283 -0.35155,0.80997c-0.13652,0.19285 -0.2867,0.33041 -0.45052,0.41269c-0.1661,0.08486 -0.35723,0.14014 -0.57339,0.16585c-0.18203,0.03857 -0.41753,0.06042 -0.7065,0.06556c-0.29125,0.00771 -0.60183,0.00514 -0.93176,-0.00771c-0.02276,-0.28285 -0.07395,-0.59526 -0.15359,-0.93724c-0.07964,-0.33942 -0.18203,-0.63126 -0.30717,-0.87553c0.26166,0.02571 0.50058,0.045 0.71674,0.05785c0.21616,0.01286 0.38113,0.01928 0.4949,0.01928c0.10239,0 0.1934,-0.01286 0.27304,-0.03857c0.07964,-0.02571 0.1479,-0.07714 0.20478,-0.15428c0.11377,-0.14142 0.21047,-0.50141 0.29011,-1.07995c0.07964,-0.57854 0.1479,-1.52349 0.20479,-2.83487v-0.2507M280.99287,170.75108l2.18436,0.21213c-0.18203,0.4757 -0.38682,0.93467 -0.61435,1.37694c-0.22753,0.44484 -0.43232,0.82796 -0.61435,1.14937l-1.6212,-0.32784c0.12514,-0.35998 0.25371,-0.76496 0.38568,-1.21495c0.1297,-0.44998 0.22298,-0.84853 0.27987,-1.19566M279.11569,176.11226l0.90446,-1.31136c0.39819,0.15428 0.82482,0.3407 1.2799,0.55926c0.45508,0.21856 0.8908,0.44355 1.3072,0.67497c0.41412,0.23142 0.7577,0.44998 1.03075,0.65569l-0.95565,1.44636c-0.25029,-0.2057 -0.58023,-0.4307 -0.98979,-0.67497c-0.40956,-0.24427 -0.83847,-0.48598 -1.28672,-0.72511c-0.45053,-0.23656 -0.88057,-0.44484 -1.29014,-0.62483M286.53909,172.44815v1.85134h-8.12307v4.85977h10.05145v1.81278h-11.8433v-8.52389zM293.62118,185.69682h11.6044v1.9092h-11.6044v-1.9092M292.59727,176.20869h13.72049v12.49656h-1.86011v-10.58736h-10.08559v10.62593h-1.77479v-12.53513M291.70987,171.92746h15.2393v2.00562h-15.2393v-2.00562M296.6588,173.16169h1.63827v4.33908c0,0.73282 -0.07964,1.47851 -0.23892,2.23704c-0.15927,0.75853 -0.46986,1.47465 -0.93176,2.14833c-0.45963,0.67625 -1.14451,1.25866 -2.05466,1.74721c-0.06826,-0.14142 -0.17066,-0.30599 -0.30718,-0.4937c-0.13652,-0.18514 -0.27645,-0.37155 -0.4198,-0.55926c-0.14108,-0.18514 -0.26849,-0.3227 -0.38226,-0.41269c0.80775,-0.41141 1.40277,-0.87425 1.78503,-1.38851c0.37999,-0.51426 0.62687,-1.05424 0.74063,-1.61993c0.11377,-0.56569 0.17065,-1.1378 0.17065,-1.71634v-4.28123M300.27664,173.1424h1.75772v7.28966c0,0.30856 0.02844,0.5014 0.08533,0.57854c0.05689,0.07714 0.21616,0.11571 0.47782,0.11571c0.04551,0 0.1388,0 0.27987,0c0.14335,0 0.30035,0 0.471,0c0.17066,0 0.32652,0 0.46759,0c0.14335,0 0.24915,0 0.31741,0c0.15927,0 0.26508,-0.01286 0.31741,-0.03857c0.05006,-0.02571 0.09215,-0.06429 0.12628,-0.11571c0.17066,0.15428 0.40616,0.30213 0.7065,0.44355c0.30262,0.14142 0.58477,0.23785 0.84644,0.28927c-0.12514,0.51426 -0.32424,0.86782 -0.59728,1.06067c-0.27305,0.19285 -0.67692,0.28928 -1.21164,0.28928c-0.09102,0 -0.22754,0 -0.40957,0c-0.18203,0 -0.38112,0 -0.59728,0c-0.21616,0 -0.41298,0 -0.59046,0c-0.17521,0 -0.30831,0 -0.39933,0c-0.54609,0 -0.96703,-0.07714 -1.26283,-0.23142c-0.2958,-0.15428 -0.50058,-0.42169 -0.61435,-0.80224c-0.11377,-0.37798 -0.17065,-0.90124 -0.17065,-1.56978zM308.87755,175.47586h5.05133v2.06347h-5.05133v-2.06347M317.27367,171.15606h1.91132v14.02007c0,0.52712 0.0455,0.86139 0.13652,1.00281c0.09102,0.14142 0.30149,0.21213 0.63142,0.21213c0.06826,0 0.19341,0 0.37544,0c0.18203,0 0.38112,0 0.59728,0c0.21616,0 0.41526,0 0.59728,0c0.18203,0 0.31855,0 0.40956,0c0.22753,0 0.40161,-0.10928 0.5222,-0.32784c0.11832,-0.21856 0.20592,-0.61454 0.2628,-1.18794c0.05689,-0.57083 0.10239,-1.37694 0.13652,-2.41832c0.15927,0.12857 0.3413,0.25713 0.54609,0.38569c0.20479,0.12857 0.41526,0.24042 0.63142,0.33555c0.21616,0.09771 0.40956,0.17228 0.58022,0.2237c-0.05689,1.20852 -0.16496,2.18176 -0.32424,2.91972c-0.15927,0.74053 -0.40729,1.27794 -0.74405,1.61221c-0.33448,0.33427 -0.81458,0.50141 -1.44031,0.50141c-0.09102,0 -0.25029,0 -0.47783,0c-0.22753,0 -0.47555,0 -0.74405,0c-0.26622,0 -0.50741,0 -0.72357,0c-0.21616,0 -0.37544,0 -0.47783,0c-0.61435,0 -1.09559,-0.10029 -1.44372,-0.30085c-0.34585,-0.19799 -0.59274,-0.53483 -0.74063,-1.01053c-0.1479,-0.4757 -0.22185,-1.1378 -0.22185,-1.98633v-13.98149M313.02441,171.13678h1.91132v17.49133h-1.91132v-17.49133M322.90521,174.04879l1.31403,1.85134c-0.56884,0.44998 -1.1775,0.89996 -1.82599,1.34994c-0.64848,0.44998 -1.31061,0.8871 -1.9864,1.31136c-0.67806,0.42426 -1.34134,0.82282 -1.98982,1.19566c-0.06826,-0.23142 -0.17634,-0.50527 -0.32424,-0.82154c-0.1479,-0.3137 -0.29011,-0.57983 -0.42663,-0.79839c0.62573,-0.37284 1.25486,-0.79453 1.88742,-1.26508c0.63027,-0.46798 1.23552,-0.94624 1.81574,-1.43479c0.58022,-0.48855 1.09218,-0.95138 1.53588,-1.3885M308.29733,184.28902c0.46645,-0.16714 1.00458,-0.37027 1.61438,-0.6094c0.60753,-0.23656 1.25259,-0.49369 1.9352,-0.77139c0.68261,-0.27513 1.35953,-0.55411 2.03077,-0.83696l0.3413,1.87062c-0.86464,0.43713 -1.74407,0.86782 -2.63829,1.29209c-0.89195,0.42426 -1.71335,0.80996 -2.46423,1.15708zM332.00101,176.11226h1.70652c-0.07964,0.80996 -0.16496,1.66107 -0.25598,2.55331c-0.09102,0.89481 -0.19112,1.78191 -0.30034,2.6613c-0.10694,0.88196 -0.20933,1.71764 -0.30717,2.50702c-0.09557,0.79197 -0.18885,1.49008 -0.27987,2.09433h-1.77479c0.11377,-0.62997 0.22753,-1.34736 0.3413,-2.15219c0.11377,-0.80225 0.22412,-1.64435 0.33107,-2.52631c0.10922,-0.87939 0.20933,-1.76006 0.30035,-2.64202c0.09102,-0.87939 0.17066,-1.71121 0.23892,-2.49546M334.5608,178.3493l0.95566,-0.69425c0.30717,0.26998 0.62573,0.58497 0.95566,0.94495c0.32993,0.35998 0.58591,0.67498 0.76794,0.94496l-1.00685,0.79067c-0.15927,-0.28285 -0.40047,-0.61454 -0.72357,-0.99509c-0.32538,-0.37798 -0.64166,-0.70839 -0.94883,-0.99124M334.10004,182.34126l1.00685,-0.71353c0.3413,0.2957 0.69626,0.6364 1.06487,1.02209c0.37088,0.38569 0.65871,0.73282 0.8635,1.04138l-1.04098,0.80996c-0.1934,-0.2957 -0.47214,-0.64926 -0.8362,-1.06067c-0.36406,-0.41141 -0.71674,-0.77782 -1.05805,-1.09924M332.23992,172.81456h8.82276v1.87063h-8.82276v-1.87063M332.71775,176.11226h6.50187v1.7742h-6.50187v-1.7742M329.85078,179.96923h11.65559v1.87063h-11.65559v-1.87063M331.7109,184.15403h9.35178v1.7742h-9.35178v-1.7742M332.34232,170.78965l1.77479,0.52069c-0.22753,0.7971 -0.50286,1.59036 -0.82596,2.37975c-0.32538,0.79197 -0.6701,1.53507 -1.03416,2.22932c-0.36406,0.69425 -0.73381,1.30494 -1.10924,1.83206c-0.11377,-0.11571 -0.27078,-0.24427 -0.471,-0.38569c-0.19795,-0.14142 -0.39364,-0.28285 -0.58704,-0.42427c-0.1934,-0.14142 -0.36406,-0.25713 -0.51196,-0.34713c0.38682,-0.46284 0.75315,-1.00666 1.099,-1.6315c0.34813,-0.62225 0.66441,-1.2908 0.94883,-2.00562c0.28442,-0.71225 0.52334,-1.43479 0.71675,-2.16762M338.6906,176.11226h1.70653c0,0 -0.00228,0.05785 -0.00683,0.17356c-0.00682,0.11571 -0.01024,0.24042 -0.01024,0.37413c0,0.13628 -0.00569,0.24941 -0.01707,0.33941c-0.06826,1.83848 -0.13653,3.3967 -0.20479,4.67464c-0.06826,1.28051 -0.14562,2.33217 -0.23209,3.15499c-0.08419,0.82282 -0.17975,1.46565 -0.2867,1.92848c-0.10922,0.46284 -0.23777,0.79711 -0.38567,1.00281c-0.1934,0.2957 -0.39592,0.49755 -0.60753,0.60555c-0.20934,0.11057 -0.45052,0.19156 -0.72357,0.24299c-0.25029,0.03857 -0.56884,0.05785 -0.95566,0.05785c-0.38682,0 -0.79069,-0.01286 -1.21163,-0.03857c-0.01137,-0.25713 -0.05688,-0.5464 -0.13652,-0.86782c-0.07964,-0.32142 -0.18772,-0.60426 -0.32424,-0.84853c0.39819,0.03857 0.76225,0.06428 1.09217,0.07714c0.32993,0.01286 0.57454,0.01928 0.73381,0.01928c0.1479,0 0.26736,-0.02314 0.35837,-0.06943c0.09102,-0.04371 0.18203,-0.12342 0.27304,-0.23913c0.11377,-0.14142 0.21616,-0.42812 0.30718,-0.86011c0.09102,-0.42941 0.17634,-1.04009 0.25598,-1.83205c0.07964,-0.78939 0.15131,-1.79863 0.21502,-3.02772c0.06144,-1.22652 0.11491,-2.71402 0.16042,-4.46251v-0.40498M326.54012,172.506l1.02392,-1.40779c0.32993,0.16714 0.68489,0.3664 1.06488,0.59783c0.38226,0.23142 0.74746,0.46927 1.09559,0.71354c0.34585,0.24427 0.62687,0.46927 0.84303,0.67497l-1.07511,1.56207c-0.20479,-0.2057 -0.47442,-0.44098 -0.8089,-0.70583c-0.33675,-0.26227 -0.69627,-0.5194 -1.07853,-0.77139c-0.37999,-0.24941 -0.73494,-0.47055 -1.06487,-0.6634M325.58446,178.02146l0.98979,-1.38851c0.32993,0.16714 0.67351,0.36256 1.03074,0.58626c0.35951,0.22627 0.70082,0.45512 1.02392,0.68654c0.32538,0.23142 0.59045,0.44997 0.79524,0.65568l-1.05805,1.58136c-0.18203,-0.21856 -0.43232,-0.45641 -0.75087,-0.71354c-0.31856,-0.25713 -0.65758,-0.50783 -1.01709,-0.75211c-0.35724,-0.24427 -0.69513,-0.46284 -1.01368,-0.65569M326.06229,187.3746c0.22753,-0.50141 0.4801,-1.09281 0.7577,-1.7742c0.27987,-0.6814 0.55974,-1.40779 0.83961,-2.17919c0.2776,-0.7714 0.53585,-1.52993 0.77477,-2.27561l1.39935,1.11852c-0.20479,0.6814 -0.43004,1.38208 -0.67578,2.10205c-0.24347,0.71997 -0.49375,1.4335 -0.75087,2.14061c-0.25484,0.70711 -0.50741,1.36922 -0.7577,1.98633zM342.64975,175.45658h4.69295v1.94777h-4.69295v-1.94777M344.27095,171.05964h1.70652v12.94011h-1.70652v-12.94011M342.51323,184.34688c0.60298,-0.28285 1.33109,-0.6621 2.18436,-1.1378c0.85327,-0.4757 1.71222,-0.96425 2.57686,-1.46565l0.51196,1.83206c-0.76225,0.48855 -1.54498,0.98353 -2.34818,1.48493c-0.80093,0.50141 -1.54839,0.95781 -2.24238,1.36922l-0.68261,-2.08276M347.61575,173.5281h10.717v1.87062h-10.717v-1.87062M347.08672,184.77115c0.50058,-0.10285 1.0717,-0.23785 1.71335,-0.40498c0.64393,-0.16714 1.32996,-0.34456 2.05808,-0.53226c0.72812,-0.18514 1.45623,-0.38056 2.18435,-0.58626l0.17066,1.73564c-0.98978,0.30856 -1.98298,0.61326 -2.9796,0.9141c-0.99434,0.30342 -1.90107,0.57726 -2.72021,0.82153l-0.42663,-1.94777M353.12783,170.82822h1.75772c-0.01137,1.34993 0,2.68316 0.03413,3.99967c0.03413,1.31908 0.09329,2.57645 0.17748,3.77211c0.08646,1.19566 0.19227,2.29489 0.31741,3.29771c0.12514,1.00281 0.26736,1.87706 0.42663,2.62274c0.15927,0.74568 0.33335,1.32037 0.5222,1.72406c0.18658,0.40626 0.38226,0.6094 0.58704,0.6094c0.13652,0 0.24233,-0.19285 0.31742,-0.57854c0.07281,-0.38569 0.12059,-1.02853 0.14335,-1.92848c0.17066,0.23142 0.37202,0.44612 0.60411,0.64411c0.23437,0.20056 0.44825,0.35869 0.64166,0.4744c-0.07964,0.84853 -0.19341,1.51707 -0.34131,2.00562c-0.1479,0.48855 -0.34927,0.83182 -0.60411,1.02981c-0.25712,0.20056 -0.59046,0.30085 -1.00002,0.30085c-0.47783,0 -0.89877,-0.23528 -1.26283,-0.70583c-0.36406,-0.46798 -0.67693,-1.12623 -0.93859,-1.97476c-0.26166,-0.84853 -0.4801,-1.84234 -0.65531,-2.98144c-0.17748,-1.13652 -0.314,-2.37717 -0.40956,-3.72197c-0.09784,-1.34223 -0.17292,-2.74358 -0.22526,-4.20409c-0.05006,-1.45793 -0.08078,-2.91973 -0.09215,-4.38537M355.29512,171.83103l1.04098,-1.00281c0.3413,0.26998 0.70195,0.58497 1.08194,0.94496c0.38226,0.35998 0.6701,0.68139 0.8635,0.96424l-1.07511,1.13781c-0.20479,-0.2957 -0.48579,-0.6364 -0.84303,-1.0221c-0.35951,-0.38569 -0.7156,-0.72639 -1.06829,-1.0221M356.4385,176.8258l1.63827,0.34713c-0.54609,2.55846 -1.32768,4.81092 -2.34477,6.7574c-1.01936,1.94905 -2.28561,3.53426 -3.79873,4.75563c-0.09102,-0.11571 -0.21616,-0.26099 -0.37544,-0.43583c-0.15927,-0.17228 -0.32424,-0.33942 -0.49489,-0.50141c-0.17066,-0.15942 -0.31855,-0.29056 -0.44369,-0.39341c1.51313,-1.06709 2.7441,-2.5006 3.69293,-4.30051c0.9511,-1.79991 1.65988,-3.87625 2.12633,-6.229M349.47586,178.44573v2.60345h1.57v-2.60345h-1.57M348.11064,176.84509h4.36872v5.82401h-4.36872z" fill="#ffffff" stroke-width="1"/><path d="M240,196v-32h179.01322v32z" fill="none" stroke-width="0"/></g></g></svg>