<svg version="1.1" xmlns="http://www.w3.org/2000/svg" xmlns:xlink="http://www.w3.org/1999/xlink" width="208" height="32" viewBox="0,0,208,32"><g transform="translate(-240,-164)"><g stroke="none" stroke-miterlimit="10"><path d="M240.70745,175.41541h5.93977v2.21983h-5.93977v-2.21983M250.58032,170.76828h2.24748v15.08243c0,0.56706 0.05351,0.92666 0.16053,1.0788c0.10702,0.15214 0.35451,0.22821 0.74247,0.22821c0.08027,0 0.22742,0 0.44147,0c0.21405,0 0.44816,0 0.70234,0c0.25418,0 0.48829,0 0.70234,0c0.21405,0 0.37458,0 0.4816,0c0.26756,0 0.47224,-0.11756 0.61404,-0.35268c0.13913,-0.23512 0.24214,-0.66111 0.30903,-1.27796c0.06689,-0.61409 0.1204,-1.48127 0.16053,-2.60156c0.18729,0.13831 0.40134,0.27661 0.64214,0.41492c0.2408,0.13831 0.48829,0.25864 0.74247,0.36098c0.25418,0.10511 0.4816,0.18533 0.68227,0.24065c-0.06689,1.30009 -0.19398,2.34708 -0.38127,3.14096c-0.18729,0.79665 -0.47893,1.37478 -0.87491,1.73438c-0.39331,0.3596 -0.95785,0.5394 -1.69364,0.5394c-0.10702,0 -0.29431,0 -0.56187,0c-0.26756,0 -0.55786,0 -0.8709,0c-0.31572,0 -0.60067,0 -0.85485,0c-0.25418,0 -0.44147,0 -0.56187,0c-0.7224,0 -1.28695,-0.10788 -1.69364,-0.32364c-0.40936,-0.21299 -0.701,-0.57536 -0.87491,-1.0871c-0.17391,-0.51174 -0.26087,-1.22402 -0.26087,-2.13685v-15.04093M245.58369,170.74753h2.24748v18.81673h-2.24748v-18.81673M257.20237,173.8802l1.54514,1.99163c-0.66889,0.48408 -1.38461,0.96815 -2.14715,1.45223c-0.76254,0.48408 -1.54113,0.95432 -2.33578,1.41074c-0.79732,0.45641 -1.57725,0.88517 -2.33979,1.28626c-0.08027,-0.24895 -0.20736,-0.54355 -0.38127,-0.88378c-0.17391,-0.33747 -0.34114,-0.62377 -0.50167,-0.85889c0.73578,-0.40109 1.47558,-0.85474 2.21939,-1.36095c0.74113,-0.50344 1.45284,-1.01794 2.13511,-1.54351c0.68227,-0.52557 1.28428,-1.02347 1.80601,-1.49372M240.02518,184.89638c0.54849,-0.1798 1.18127,-0.39833 1.89832,-0.65558c0.71438,-0.25449 1.4729,-0.5311 2.27558,-0.82984c0.80267,-0.29598 1.59866,-0.5961 2.38795,-0.90038l0.40134,2.01237c-1.01672,0.47025 -2.04949,0.93358 -3.09831,1.38999c-1.0515,0.45641 -2.01872,0.87134 -2.90166,1.24477zM267.89797,176.10003h2.00668c-0.09365,0.87134 -0.19398,1.78693 -0.301,2.74679c-0.10702,0.96262 -0.22341,1.91694 -0.34916,2.86296c-0.12843,0.94879 -0.25017,1.84779 -0.36522,2.697c-0.11237,0.85197 -0.22207,1.60298 -0.3291,2.25303h-2.08695c0.13378,-0.67771 0.26756,-1.44946 0.40134,-2.31527c0.13378,-0.86304 0.26488,-1.76895 0.39331,-2.71774c0.12575,-0.94602 0.24214,-1.89343 0.34916,-2.84222c0.10702,-0.94602 0.20067,-1.84087 0.28094,-2.68455M270.90799,178.50658l1.12374,-0.74686c0.3612,0.29045 0.73578,0.6293 1.12374,1.01656c0.38796,0.38726 0.68896,0.72611 0.90301,1.01656l-1.18394,0.85059c-0.18729,-0.30428 -0.47224,-0.66111 -0.85485,-1.0705c-0.37993,-0.40662 -0.7505,-0.76207 -1.1117,-1.06635M270.36619,182.80103l1.18394,-0.76761c0.40134,0.31811 0.81873,0.68462 1.25217,1.09954c0.43612,0.41492 0.77458,0.78835 1.01538,1.12029l-1.22408,0.87134c-0.22742,-0.31811 -0.55518,-0.69845 -0.98327,-1.14104c-0.42809,-0.44258 -0.84281,-0.83676 -1.24414,-1.18253M268.17891,172.55244h10.37454v2.01237h-10.37454v-2.01237M268.74078,176.10003h7.64545v1.90864h-7.64545v-1.90864M265.36956,180.24925h13.70563v2.01237h-13.70563v-2.01237M267.55684,184.75116h10.99661v1.90864h-10.99661v-1.90864M268.29931,170.3741l2.08695,0.56015c-0.26756,0.85751 -0.59264,1.71086 -0.97525,2.56007c-0.37993,0.85197 -0.78394,1.65139 -1.21203,2.39825c-0.42809,0.74686 -0.86287,1.40382 -1.30434,1.97088c-0.13378,-0.12448 -0.31706,-0.26278 -0.54983,-0.41492c-0.23545,-0.15214 -0.46689,-0.30428 -0.69431,-0.45641c-0.22742,-0.15214 -0.42809,-0.27661 -0.602,-0.37343c0.45485,-0.49791 0.88695,-1.08295 1.29632,-1.75512c0.40669,-0.66941 0.77725,-1.38861 1.1117,-2.1576c0.33445,-0.76622 0.61538,-1.54351 0.84281,-2.33186M275.76416,176.10003h2.00668c0,0 -0.00267,0.06224 -0.00803,0.18672c-0.00803,0.12448 -0.01204,0.25864 -0.01204,0.40247c0,0.14661 -0.00669,0.26832 -0.02007,0.36513c-0.08027,1.9778 -0.16053,3.65408 -0.2408,5.02886c-0.08027,1.37754 -0.17124,2.5089 -0.27291,3.39406c-0.099,0.88517 -0.21137,1.5767 -0.33712,2.07461c-0.12843,0.49791 -0.2796,0.85751 -0.45351,1.0788c-0.22742,0.31811 -0.46555,0.53525 -0.71438,0.65143c-0.24615,0.11894 -0.52976,0.20608 -0.85083,0.2614c-0.29431,0.04149 -0.66889,0.06224 -1.12374,0.06224c-0.45485,0 -0.92976,-0.01383 -1.42474,-0.04149c-0.01338,-0.27661 -0.06689,-0.58781 -0.16053,-0.93358c-0.09365,-0.34577 -0.22073,-0.65004 -0.38127,-0.91283c0.46822,0.04149 0.89632,0.06915 1.28428,0.08298c0.38796,0.01383 0.67558,0.02075 0.86287,0.02075c0.17391,0 0.31438,-0.0249 0.4214,-0.07469c0.10702,-0.04703 0.21405,-0.13278 0.32107,-0.25725c0.13378,-0.15214 0.25418,-0.46056 0.3612,-0.92528c0.10702,-0.46195 0.20736,-1.11891 0.301,-1.97088c0.09365,-0.84921 0.17793,-1.93492 0.25284,-3.25714c0.07224,-1.31945 0.13512,-2.91967 0.18863,-4.80065v-0.43567M261.4766,172.22051l1.20401,-1.51447c0.38796,0.1798 0.80535,0.39418 1.25217,0.64313c0.4495,0.24895 0.87759,0.50482 1.28428,0.76761c0.40936,0.26278 0.74113,0.50482 0.99531,0.72611l-1.26421,1.68044c-0.2408,-0.22129 -0.5592,-0.4744 -0.95518,-0.75931c-0.39331,-0.28215 -0.81471,-0.55876 -1.26421,-0.82984c-0.44682,-0.26832 -0.86421,-0.50621 -1.25217,-0.71367M260.35285,178.1539l1.16387,-1.49372c0.38796,0.1798 0.79197,0.39003 1.21203,0.63068c0.42274,0.24342 0.82408,0.48961 1.20401,0.73856c0.38261,0.24895 0.69431,0.48408 0.93511,0.70537l-1.24414,1.70118c-0.21405,-0.23512 -0.50836,-0.49099 -0.88294,-0.76761c-0.37458,-0.27661 -0.7719,-0.54631 -1.19197,-0.8091c-0.42274,-0.26278 -0.8214,-0.49791 -1.19598,-0.70537M260.91473,188.21576c0.26756,-0.5394 0.56455,-1.17561 0.89097,-1.90864c0.3291,-0.73303 0.65685,-1.51447 0.98327,-2.34431c0.3291,-0.82984 0.63411,-1.64586 0.91505,-2.44804l1.64548,1.20327c-0.2408,0.73303 -0.50434,1.48681 -0.79063,2.26133c-0.28896,0.77452 -0.58461,1.54213 -0.88695,2.30282c-0.29966,0.76069 -0.59665,1.47297 -0.89097,2.13685zM285.93803,172.94662h12.84275v1.80491h-12.84275v-1.80491M291.07513,173.75572l2.48828,0.16597c-0.20067,0.55323 -0.42542,1.09263 -0.67424,1.6182c-0.24615,0.52557 -0.46956,0.98198 -0.67023,1.36924l-1.74581,-0.29045c0.1204,-0.44258 0.2408,-0.92666 0.3612,-1.45223c0.1204,-0.52557 0.20067,-0.99581 0.2408,-1.41074M294.58682,170.39485l2.08695,0.60164c-0.33445,0.51174 -0.66488,1.01656 -0.9913,1.51447c-0.3291,0.49791 -0.63411,0.91974 -0.91505,1.26551l-1.70568,-0.56015c0.17391,-0.26278 0.35853,-0.56015 0.55384,-0.89208c0.19264,-0.33194 0.37592,-0.66802 0.54983,-1.00826c0.17391,-0.33747 0.31438,-0.64451 0.4214,-0.92113M287.76411,171.03798l1.80601,-0.78835c0.26756,0.33194 0.5311,0.70813 0.79063,1.12859c0.26221,0.42322 0.45351,0.78697 0.57391,1.09125l-1.90635,0.87134c-0.10702,-0.31811 -0.28094,-0.69154 -0.52174,-1.12029c-0.2408,-0.42875 -0.48829,-0.82293 -0.74247,-1.18253M285.17549,177.8427v8.33994h-2.06688v-6.28607h-2.48828v-2.05387h4.55516M280.68053,172.262l1.66554,-1.0788c0.34782,0.33194 0.70903,0.69845 1.08361,1.09954c0.37458,0.40109 0.72642,0.80218 1.05551,1.20327c0.32642,0.40109 0.58328,0.76761 0.77057,1.09954l-1.76588,1.22402c-0.17391,-0.31811 -0.41873,-0.68462 -0.73445,-1.09954c-0.31304,-0.41492 -0.65016,-0.83676 -1.01137,-1.26551c-0.3612,-0.42875 -0.71572,-0.82293 -1.06354,-1.18253M284.29255,185.49802c0.34782,0 0.68896,0.11756 1.02341,0.35268c0.33445,0.23512 0.78929,0.50482 1.36454,0.8091c0.66889,0.34577 1.45551,0.57398 2.35986,0.68462c0.90167,0.11065 1.88762,0.16597 2.95785,0.16597c0.70903,0 1.49565,-0.01798 2.35986,-0.05394c0.86153,-0.03319 1.71371,-0.08437 2.55651,-0.15352c0.84281,-0.06915 1.58528,-0.14522 2.22742,-0.22821c-0.08027,0.19363 -0.16053,0.41769 -0.2408,0.67217c-0.08027,0.25725 -0.15385,0.51727 -0.22073,0.78005c-0.06689,0.26278 -0.10702,0.49791 -0.1204,0.70537c-0.34782,0.01383 -0.79197,0.03458 -1.33244,0.06224c-0.54314,0.02766 -1.13177,0.05532 -1.76588,0.08298c-0.63679,0.02766 -1.26287,0.04841 -1.87825,0.06224c-0.61538,0.01383 -1.17056,0.02075 -1.66554,0.02075c-1.20401,0 -2.25417,-0.07607 -3.15049,-0.22821c-0.89632,-0.15214 -1.71237,-0.41492 -2.44815,-0.78835c-0.45485,-0.24895 -0.84949,-0.49099 -1.18394,-0.72611c-0.33445,-0.23512 -0.62876,-0.35268 -0.88294,-0.35268c-0.22742,0 -0.48829,0.11341 -0.78261,0.34024c-0.29431,0.22959 -0.60602,0.52695 -0.93511,0.89208c-0.32642,0.3679 -0.64348,0.75239 -0.95117,1.15348l-1.30434,-1.86715c0.70903,-0.67771 1.41538,-1.24477 2.11905,-1.70118c0.701,-0.45641 1.33244,-0.68462 1.89431,-0.68462M289.32932,180.45671v1.30701h5.79931v-1.30701h-5.79931M289.32932,183.21595v1.30701h5.79931v-1.30701h-5.79931M289.32932,177.71823v1.30701h5.79931v-1.30701h-5.79931M287.30257,176.14152h9.93307v9.97888h-9.93307zM302.95468,171.70185h13.76583v17.77942h-2.30768v-15.53884h-9.23073v15.58033h-2.22742v-17.82091M304.45969,178.71404h10.91634v2.19909h-10.91634v-2.19909M304.43962,185.93369h10.95647v2.24058h-10.95647zM321.0148,174.52332h17.69892v2.26133h-17.69892v-2.26133M324.34589,183.90057h10.93641v2.26133h-10.93641v-2.26133M328.68032,170.41559h2.28762v19.35613h-2.28762v-19.35613M326.83417,175.33242l1.96655,0.58089c-0.4816,1.46606 -1.06622,2.86573 -1.75384,4.19901c-0.6903,1.33605 -1.46354,2.55731 -2.31972,3.66376c-0.85618,1.10646 -1.77926,2.05387 -2.76922,2.84222c-0.1204,-0.19363 -0.27425,-0.40109 -0.46154,-0.62238c-0.18729,-0.22129 -0.38127,-0.43982 -0.58194,-0.65558c-0.20067,-0.21299 -0.38127,-0.38864 -0.5418,-0.52695c0.93645,-0.65004 1.81671,-1.47712 2.64079,-2.48124c0.8214,-1.00135 1.55986,-2.10366 2.21538,-3.30693c0.65552,-1.20327 1.19063,-2.43421 1.60534,-3.69281M332.77395,175.39466c0.41471,1.23094 0.94715,2.4273 1.59732,3.58908c0.64749,1.16178 1.39264,2.22675 2.23544,3.1949c0.84281,0.96815 1.73243,1.77033 2.66888,2.40655c-0.17391,0.15214 -0.37057,0.34162 -0.58996,0.56844c-0.22207,0.22959 -0.42943,0.46471 -0.62207,0.70537c-0.19532,0.24342 -0.35986,0.46886 -0.49364,0.67632c-0.98996,-0.76069 -1.90233,-1.68735 -2.73711,-2.77998c-0.83745,-1.09263 -1.5933,-2.30697 -2.26755,-3.64302c-0.67692,-1.33328 -1.25618,-2.71221 -1.73779,-4.13678zM348.16519,176.10003h2.00668c-0.09365,0.87134 -0.19398,1.78693 -0.301,2.74679c-0.10702,0.96262 -0.22475,1.91694 -0.35318,2.86296c-0.12575,0.94879 -0.24482,1.84779 -0.35719,2.697c-0.11505,0.85197 -0.22609,1.60298 -0.33311,2.25303h-2.08695c0.13378,-0.67771 0.26756,-1.44946 0.40134,-2.31527c0.13378,-0.86304 0.26488,-1.76895 0.39331,-2.71774c0.12575,-0.94602 0.24214,-1.89343 0.34916,-2.84222c0.10702,-0.94602 0.20067,-1.84087 0.28094,-2.68455M351.17521,178.50658l1.12374,-0.74686c0.3612,0.29045 0.73578,0.6293 1.12374,1.01656c0.38796,0.38726 0.68896,0.72611 0.90301,1.01656l-1.18394,0.85059c-0.18729,-0.30428 -0.4709,-0.66111 -0.85083,-1.0705c-0.38261,-0.40662 -0.75451,-0.76207 -1.11571,-1.06635M350.6334,182.80103l1.18394,-0.76761c0.40134,0.31811 0.82006,0.68462 1.25618,1.09954c0.43344,0.41492 0.77057,0.78835 1.01137,1.12029l-1.22408,0.87134c-0.22742,-0.31811 -0.55518,-0.69845 -0.98327,-1.14104c-0.42809,-0.44258 -0.84281,-0.83676 -1.24414,-1.18253M348.44612,172.55244h10.37454v2.01237h-10.37454v-2.01237M349.00799,176.10003h7.64545v1.90864h-7.64545v-1.90864M345.63677,180.24925h13.70563v2.01237h-13.70563v-2.01237M347.82405,184.75116h10.99661v1.90864h-10.99661v-1.90864M348.56652,170.3741l2.08695,0.56015c-0.26756,0.85751 -0.5913,1.71086 -0.97123,2.56007c-0.38261,0.85197 -0.78796,1.65139 -1.21605,2.39825c-0.42809,0.74686 -0.86287,1.40382 -1.30434,1.97088c-0.13378,-0.12448 -0.31839,-0.26278 -0.55384,-0.41492c-0.23277,-0.15214 -0.46287,-0.30428 -0.6903,-0.45641c-0.22742,-0.15214 -0.42809,-0.27661 -0.602,-0.37343c0.45485,-0.49791 0.88561,-1.08295 1.2923,-1.75512c0.40936,-0.66941 0.78127,-1.38861 1.11571,-2.1576c0.33445,-0.76622 0.61538,-1.54351 0.84281,-2.33186M356.03137,176.10003h2.00668c0,0 -0.00267,0.06224 -0.00803,0.18672c-0.00803,0.12448 -0.01204,0.25864 -0.01204,0.40247c0,0.14661 -0.00669,0.26832 -0.02007,0.36513c-0.08027,1.9778 -0.16053,3.65408 -0.2408,5.02886c-0.08027,1.37754 -0.1699,2.5089 -0.2689,3.39406c-0.10167,0.88517 -0.21538,1.5767 -0.34114,2.07461c-0.12843,0.49791 -0.2796,0.85751 -0.45351,1.0788c-0.22742,0.31811 -0.46421,0.53525 -0.71036,0.65143c-0.24883,0.11894 -0.53378,0.20608 -0.85485,0.2614c-0.29431,0.04149 -0.66889,0.06224 -1.12374,0.06224c-0.45485,0 -0.92976,-0.01383 -1.42474,-0.04149c-0.01338,-0.27661 -0.06689,-0.58781 -0.16053,-0.93358c-0.09365,-0.34577 -0.22073,-0.65004 -0.38127,-0.91283c0.46822,0.04149 0.89632,0.06915 1.28428,0.08298c0.38796,0.01383 0.67558,0.02075 0.86287,0.02075c0.17391,0 0.31438,-0.0249 0.4214,-0.07469c0.10702,-0.04703 0.21405,-0.13278 0.32107,-0.25725c0.13378,-0.15214 0.25418,-0.46056 0.3612,-0.92528c0.10702,-0.46195 0.20736,-1.11891 0.301,-1.97088c0.09365,-0.84921 0.17793,-1.93492 0.25284,-3.25714c0.07224,-1.31945 0.13512,-2.91967 0.18863,-4.80065v-0.43567M341.74381,172.22051l1.20401,-1.51447c0.38796,0.1798 0.80535,0.39418 1.25217,0.64313c0.4495,0.24895 0.87893,0.50482 1.28829,0.76761c0.40669,0.26278 0.73712,0.50482 0.9913,0.72611l-1.26421,1.68044c-0.2408,-0.22129 -0.55786,-0.4744 -0.95117,-0.75931c-0.39598,-0.28215 -0.81873,-0.55876 -1.26822,-0.82984c-0.44682,-0.26832 -0.86421,-0.50621 -1.25217,-0.71367M340.62007,178.1539l1.16387,-1.49372c0.38796,0.1798 0.79197,0.39003 1.21203,0.63068c0.42274,0.24342 0.82408,0.48961 1.20401,0.73856c0.38261,0.24895 0.69431,0.48408 0.93511,0.70537l-1.24414,1.70118c-0.21405,-0.23512 -0.50836,-0.49099 -0.88294,-0.76761c-0.37458,-0.27661 -0.7719,-0.54631 -1.19197,-0.8091c-0.42274,-0.26278 -0.8214,-0.49791 -1.19598,-0.70537M341.18194,188.21576c0.26756,-0.5394 0.56588,-1.17561 0.89498,-1.90864c0.32642,-0.73303 0.65418,-1.51447 0.98327,-2.34431c0.32642,-0.82984 0.6301,-1.64586 0.91103,-2.44804l1.64548,1.20327c-0.2408,0.73303 -0.50434,1.48681 -0.79063,2.26133c-0.28896,0.77452 -0.58328,1.54213 -0.88294,2.30282c-0.30234,0.76069 -0.60067,1.47297 -0.89498,2.13685zM367.77045,180.62268h10.1538v9.0868h-2.16721v-7.03293h-5.89964v7.11592h-2.08695v-9.16978M368.99453,186.55607h7.76585v2.07461h-7.76585v-2.07461M369.47613,171.36992h6.16051v2.07461h-6.16051v-2.07461M368.77379,171.36992h2.08695v2.3858c0,0.76069 -0.09632,1.55872 -0.28896,2.3941c-0.19532,0.83814 -0.55786,1.64448 -1.08762,2.419c-0.52709,0.77452 -1.29899,1.45223 -2.31571,2.03312c-0.06689,-0.15214 -0.18997,-0.33885 -0.36923,-0.56015c-0.18194,-0.22129 -0.36655,-0.43982 -0.55384,-0.65558c-0.18729,-0.21299 -0.34782,-0.37481 -0.4816,-0.48546c0.88294,-0.48408 1.53846,-1.02071 1.96655,-1.6099c0.42809,-0.58642 0.70903,-1.19083 0.84281,-1.81321c0.13378,-0.62238 0.20067,-1.21711 0.20067,-1.78417v-2.32356M374.59317,171.36992h2.10701v5.6222c0,0.31811 0.01739,0.54631 0.05217,0.68462c0.03211,0.13831 0.12174,0.20746 0.2689,0.20746c0.08027,0 0.1806,0 0.301,0c0.1204,0 0.24482,0 0.37324,0c0.12575,0 0.22876,0 0.30903,0c0.13378,0 0.30502,-0.01106 0.51371,-0.03319c0.20602,-0.01936 0.37592,-0.04979 0.5097,-0.09128c0.01338,0.27661 0.03077,0.56983 0.05217,0.87964c0.01873,0.31258 0.04816,0.60025 0.08829,0.86304c-0.13378,0.05532 -0.30368,0.09267 -0.5097,0.11203c-0.20869,0.02213 -0.41338,0.03319 -0.61404,0.03319c-0.10702,0 -0.24348,0 -0.40936,0c-0.16856,0 -0.33578,0 -0.50167,0c-0.16856,0 -0.30635,0 -0.41338,0c-0.58863,0 -1.03679,-0.09682 -1.34448,-0.29045c-0.30769,-0.19363 -0.51505,-0.49099 -0.62207,-0.89208c-0.10702,-0.40109 -0.16053,-0.90591 -0.16053,-1.51447v-5.58071M361.54974,172.30349l1.36454,-1.43148c0.41471,0.22129 0.8602,0.47993 1.33645,0.7759c0.47358,0.29874 0.92441,0.5961 1.3525,0.89208c0.42809,0.29874 0.78261,0.57951 1.06354,0.84229l-1.44481,1.59745c-0.25418,-0.26278 -0.58863,-0.55323 -1.00334,-0.87134c-0.41471,-0.31811 -0.85618,-0.63621 -1.32441,-0.95432c-0.46822,-0.31811 -0.91638,-0.60164 -1.34448,-0.85059M360.50627,177.92569l1.34448,-1.45223c0.41471,0.20746 0.85618,0.44535 1.32441,0.71367c0.46822,0.27108 0.92307,0.5477 1.36454,0.82984c0.44147,0.28491 0.80267,0.54493 1.08361,0.78005l-1.42474,1.6182c-0.26756,-0.24895 -0.60869,-0.5228 -1.02341,-0.82155c-0.41471,-0.29598 -0.85886,-0.59334 -1.33244,-0.89208c-0.47625,-0.29598 -0.92173,-0.55461 -1.33645,-0.7759M360.98787,187.94606c0.37458,-0.51174 0.79598,-1.12029 1.26421,-1.82566c0.46822,-0.70537 0.94715,-1.45914 1.43678,-2.26133c0.48696,-0.80218 0.94448,-1.59745 1.37257,-2.3858l1.56521,1.59745c-0.37458,0.70537 -0.77859,1.43148 -1.21203,2.17834c-0.43612,0.74686 -0.8709,1.48681 -1.30434,2.21983c-0.43612,0.73303 -0.87491,1.43148 -1.31638,2.09536zM382.33895,176.90913h2.14715v3.96251c0,0.65004 -0.02943,1.35126 -0.08829,2.10366c-0.06154,0.75516 -0.16856,1.52276 -0.32107,2.30282c-0.15518,0.78282 -0.37993,1.5366 -0.67424,2.26133c-0.29431,0.7275 -0.67558,1.38169 -1.14381,1.96258c-0.10702,-0.15214 -0.26756,-0.32226 -0.4816,-0.51035c-0.21405,-0.18533 -0.43746,-0.36513 -0.67023,-0.5394c-0.23545,-0.1715 -0.43344,-0.29874 -0.59398,-0.38173c0.56187,-0.70537 0.96989,-1.47989 1.22408,-2.32356c0.25418,-0.84368 0.41739,-1.6915 0.48963,-2.54347c0.07492,-0.84921 0.11237,-1.64033 0.11237,-2.37336v-3.92102M383.52289,176.90913h15.3511v1.97088h-15.3511v-1.97088M385.83058,180.18701h12.38122v1.8879h-12.38122v-1.8879M384.9075,183.81758h14.2675v1.97088h-14.2675v-1.97088M390.76701,180.76791h2.26755v9.00381h-2.26755v-9.00381M382.39915,171.16245h2.18728v2.46879h11.05681v-2.46879h2.26755v4.43967h-15.51164v-4.43967M388.92086,170.39485h2.28762v4.16997h-2.28762zM401.22181,172.22051h17.77919v2.07461h-17.77919v-2.07461M405.55624,180.97537h9.1304v1.74267h-9.1304v-1.74267M405.13484,184.29475h9.9732v1.80491h-9.9732v-1.80491M409.0278,181.82596h2.04681v7.40636h-2.04681v-7.40636M402.06462,176.03779h14.52837v2.05387h-12.36115v11.63857h-2.16721v-13.69244M415.97091,176.03779h2.20735v11.38962c0,0.56706 -0.07625,0.99858 -0.22876,1.29456c-0.15518,0.29874 -0.42675,0.52419 -0.81471,0.67632c-0.38796,0.15214 -0.87625,0.2448 -1.46488,0.278c-0.58863,0.03596 -1.28428,0.05394 -2.08695,0.05394c-0.05351,-0.27661 -0.14983,-0.59887 -0.28896,-0.96677c-0.14181,-0.36513 -0.28629,-0.67909 -0.43344,-0.94187c0.3612,0.01383 0.7224,0.02766 1.08361,0.04149c0.3612,0.01383 0.68628,0.0166 0.97525,0.0083c0.28629,-0.00553 0.47625,-0.0083 0.5699,-0.0083c0.18729,-0.01383 0.31438,-0.05256 0.38127,-0.11618c0.06689,-0.06085 0.10033,-0.16735 0.10033,-0.31949v-11.38962M406.39905,178.67255l1.70568,-0.51865c0.2408,0.34577 0.47224,0.73303 0.69431,1.16178c0.2194,0.42875 0.38261,0.8091 0.48963,1.14104l-1.80601,0.62238c-0.08027,-0.33194 -0.22742,-0.72611 -0.44147,-1.18253c-0.21405,-0.45641 -0.42809,-0.86442 -0.64214,-1.22402M412.17829,178.17464l1.82608,0.5394c-0.26756,0.49791 -0.53512,0.9889 -0.80267,1.47297c-0.26756,0.48408 -0.52843,0.90591 -0.78261,1.26551l-1.52508,-0.47716c0.16053,-0.26278 0.31839,-0.56015 0.47358,-0.89208c0.15251,-0.33194 0.30234,-0.66388 0.4495,-0.99581c0.14716,-0.33194 0.26756,-0.63621 0.3612,-0.91283M408.94753,170.49858h2.36788v6.97069h-2.36788zM432.46583,171.41141h5.23744v2.01237h-3.33109v16.26495h-1.90635v-18.27733M437.26179,171.41141h0.40134l0.32107,-0.08298l1.48494,0.95432c-0.33445,0.99581 -0.70903,2.04972 -1.12374,3.16171c-0.41471,1.11476 -0.81605,2.12855 -1.20401,3.04138c0.82943,0.95432 1.36856,1.84226 1.61738,2.6638c0.24615,0.82431 0.36923,1.58224 0.36923,2.27377c0,0.70537 -0.07625,1.30701 -0.22876,1.80491c-0.15518,0.49791 -0.41338,0.87825 -0.77458,1.14104c-0.17391,0.12448 -0.37458,0.22406 -0.602,0.29874c-0.22742,0.07745 -0.46822,0.13692 -0.7224,0.17842c-0.22742,0.02766 -0.4816,0.04426 -0.76254,0.04979c-0.28094,0.0083 -0.56187,0.00553 -0.84281,-0.0083c-0.01338,-0.29045 -0.0602,-0.63621 -0.14047,-1.03731c-0.08027,-0.40109 -0.20736,-0.74686 -0.38127,-1.03731c0.25418,0.02766 0.48562,0.04426 0.69431,0.04979c0.20602,0.0083 0.39598,0.00553 0.5699,-0.0083c0.13378,0 0.26756,-0.01798 0.40134,-0.05394c0.13378,-0.03319 0.24749,-0.08437 0.34114,-0.15352c0.17391,-0.11065 0.29833,-0.29459 0.37324,-0.55185c0.07224,-0.25449 0.10836,-0.56153 0.10836,-0.92113c0,-0.59472 -0.14047,-1.26551 -0.4214,-2.01237c-0.28094,-0.74686 -0.82274,-1.54904 -1.62541,-2.40655c0.20067,-0.52557 0.40535,-1.08986 0.61404,-1.69288c0.20602,-0.60025 0.40669,-1.20881 0.602,-1.82566c0.19264,-0.61409 0.36923,-1.19083 0.52976,-1.73023c0.16053,-0.5394 0.29431,-0.99581 0.40134,-1.36924v-0.72611M421.56955,172.73916h9.65213v1.99163h-9.65213v-1.99163M421.04782,178.31986h10.61534v2.01237h-10.61534v-2.01237M422.65316,175.1872l1.84615,-0.47716c0.28094,0.49791 0.53244,1.04699 0.75451,1.64724c0.2194,0.60302 0.37592,1.12582 0.46956,1.56841l-1.92641,0.56015c-0.08027,-0.45641 -0.22742,-0.99305 -0.44147,-1.6099c-0.21405,-0.61409 -0.44816,-1.177 -0.70234,-1.68873M428.33207,174.6478l2.12708,0.47716c-0.18729,0.47025 -0.38127,0.94741 -0.58194,1.43148c-0.20067,0.48408 -0.39465,0.94741 -0.58194,1.38999c-0.18729,0.44258 -0.37458,0.83676 -0.56187,1.18253l-1.80601,-0.45641c0.17391,-0.37343 0.35184,-0.79527 0.53378,-1.26551c0.17926,-0.47025 0.34649,-0.94741 0.50167,-1.43148c0.15251,-0.48408 0.27558,-0.92666 0.36923,-1.32775M423.15483,186.80503h6.58191v1.95013h-6.58191v-1.95013M422.03109,181.95043h8.80933v7.63457h-2.12708v-5.64294h-4.6555v5.76742h-2.02675v-7.75905M424.78024,170.80977l1.94648,-0.56015c0.21405,0.44258 0.42542,0.92666 0.63411,1.45223c0.20602,0.52557 0.35585,0.97507 0.4495,1.3485l-2.06688,0.66388c-0.08027,-0.37343 -0.21003,-0.83399 -0.3893,-1.38169c-0.18194,-0.54493 -0.37324,-1.05252 -0.57391,-1.52276z" fill="#ffffff" stroke-width="1"/><path d="M240,196v-32h208v32z" fill="none" stroke-width="0"/></g></g></svg>