<svg version="1.1" xmlns="http://www.w3.org/2000/svg" xmlns:xlink="http://www.w3.org/1999/xlink" width="83.59849" height="18.96304" viewBox="0,0,83.59849,18.96304"><g transform="translate(-240.19434,-170.18332)"><g fill="#ffffff" stroke="#ffffff" stroke-width="0.5" stroke-linecap="round" stroke-miterlimit="10"><path d="M247.56758,185.76944h4.44987v-11.65168h1.29356v14.41748h-1.29356v-1.23579h-11.5731v-13.18169h1.32806v11.65168h4.44987v-14.79017h1.34531z"/><path d="M265.69475,178.62936v1.41232h-2.12145v8.45433h-1.24182v-8.45433h-2.53539c-0.02299,1.45155 -0.10062,2.63177 -0.23285,3.54062c-0.13223,0.90886 -0.3507,1.73597 -0.6554,2.48137c-0.30471,0.74539 -0.75602,1.61502 -1.35394,2.60888l-1.15558,-0.78463c0.60941,-0.91539 1.05785,-1.70328 1.3453,-2.36368c0.28745,-0.6604 0.49444,-1.39598 0.62092,-2.20675c0.12648,-0.81078 0.20122,-1.90271 0.22422,-3.2758h-1.96622v-1.41232h1.98347v-0.21577v-4.96275h-1.62127v-1.43194h8.27882v1.43194h-1.69026v5.17853zM259.81332,178.37436v0.255h2.51814v-5.17853h-2.51814zM270.74827,181.37554l0.87962,1.02001c-0.91987,1.24232 -1.88286,2.38004 -2.88896,3.41312c-1.00611,1.03309 -2.19331,1.98118 -3.56162,2.84426l-0.77614,-1.27501c1.31082,-0.77154 2.45777,-1.65098 3.44088,-2.6383c0.98311,-0.98732 1.95185,-2.10868 2.90621,-3.36407zM265.69475,182.5721l-0.74164,-1.23579c0.91987,-0.65386 1.83974,-1.43194 2.75961,-2.33426c0.91987,-0.90231 1.73051,-1.81117 2.4319,-2.72658l0.89688,1.07886c-0.7129,0.91539 -1.53502,1.82752 -2.4664,2.73638c-0.93137,0.90886 -1.89148,1.73597 -2.88034,2.48137zM265.71199,176.82472l-0.7244,-1.21616c0.79338,-0.53616 1.63564,-1.23579 2.52677,-2.09887c0.89112,-0.86309 1.65289,-1.70657 2.2853,-2.53041l0.89688,1.02002c-0.63241,0.82385 -1.39992,1.67059 -2.30255,2.54023c-0.90263,0.86962 -1.79662,1.63136 -2.682,2.28521z"/><path d="M288.99617,183.16057h-8.57203c-0.87388,1.09847 -1.94322,2.23618 -3.20804,3.41312l7.74415,-0.33347l-1.89723,-2.04003l0.84513,-0.96117c0.49443,0.51 0.96874,1.00694 1.42293,1.49079c0.45419,0.48385 0.85375,0.90886 1.19871,1.27501c1.24182,1.33387 1.7535,1.87656 1.53503,1.6281l-0.89688,1.11809c-0.19547,-0.23539 -0.55192,-0.64732 -1.06935,-1.23579l-10.65898,0.52962l-0.3277,-1.39272c1.35681,-1.09847 2.54689,-2.26234 3.57024,-3.49158h-4.95005v-1.33386h2.27668v-10.20012h10.65898v10.20012h2.32842zM285.42594,181.82671v-2.15771h-8.15809v2.15771zM277.26785,176.31472v2.07925h8.15809v-2.07925zM277.26785,175.07893h8.15809v-2.05964h-8.15809z"/><path d="M306.26097,180.06129v1.33387h-1.7765l-0.10348,3.04043h1.55228v1.35348h-1.58678l-0.01724,0.35307c-0.0345,0.60154 -0.12936,1.06579 -0.28459,1.39271c-0.15522,0.32692 -0.3967,0.55905 -0.7244,0.69635c-0.3277,0.13731 -0.78477,0.20597 -1.37118,0.20597h-2.56988l-0.25872,-1.37309h2.41466c0.57492,0 0.97449,-0.08828 1.19871,-0.26481c0.22422,-0.17654 0.34783,-0.5002 0.37083,-0.97098v-0.03924h-7.74415l0.43118,-4.3939h-1.3453v-1.33387h1.46604l0.37944,-3.9035c-0.34495,0.49693 -0.60941,0.86309 -0.79338,1.09847l-0.87962,-1.05924c0.63241,-0.7977 1.23319,-1.70656 1.80237,-2.72658c0.56916,-1.02002 1.03198,-2.00734 1.38843,-2.96196l1.15559,0.45116c-0.19547,0.51 -0.41969,1.03962 -0.67266,1.58886h7.55443v1.33387h-8.20983c-0.36795,0.69309 -0.7014,1.26848 -1.00036,1.72618h8.02011l-0.13798,4.45274zM296.68858,184.43559h6.46783l0.03449,-0.72577c0.04599,-0.88925 0.07474,-1.66079 0.08624,-2.31464h-6.27811zM301.53514,183.37634l-0.7244,1.02002c-0.25297,-0.26155 -0.60079,-0.58846 -1.04348,-0.98078c-0.44269,-0.39232 -0.83651,-0.73232 -1.18145,-1.02002l0.6554,-0.98078c0.79338,0.65386 1.55803,1.3077 2.29392,1.96156zM303.44961,176.94242h-6.00215l-0.31046,3.11889h6.19187c0.08049,-1.79156 0.12074,-2.83118 0.12074,-3.11889zM298.89626,177.98204l0.6554,-1.0004c1.01186,0.83693 1.74775,1.47771 2.20769,1.92233l-0.6899,1.05924c-0.62092,-0.60154 -1.3453,-1.26193 -2.17319,-1.98118zM292.48017,188.61371l-1.24182,-0.43154l1.67301,-6.74778l1.17284,0.41192c-0.09199,0.36615 -0.58642,2.43887 -1.48328,6.21816zM294.53264,178.33513l-0.74164,1.23579c-1.4028,-1.38617 -2.33417,-2.27541 -2.7941,-2.66772l0.74164,-1.1377zM295.01557,173.64699l-0.70715,1.15732c-0.83938,-0.78463 -1.76499,-1.61502 -2.77686,-2.49119l0.74164,-1.11809c0.64391,0.54924 1.55803,1.36656 2.74236,2.45196z"/><path d="M322.4909,183.41557l1.03486,0.3727c-0.06898,0.73232 -0.16673,1.53001 -0.2932,2.3931c-0.12648,0.91539 -0.31333,1.53983 -0.56055,1.87329c-0.24721,0.33346 -0.57204,0.5002 -0.97449,0.5002c-0.7359,0 -1.32806,-0.64731 -1.7765,-1.94195c-0.13798,-0.40539 -0.25297,-0.7977 -0.34495,-1.17694c-0.7589,1.1377 -1.65002,2.20348 -2.67337,3.19735l-0.86238,-1.15732c1.34531,-1.30771 2.39741,-2.5631 3.1563,-3.7662c-0.40244,-2.3408 -0.6554,-5.17199 -0.7589,-8.49357h-5.32949v-1.35348h5.29499c-0.0345,-1.17694 -0.05174,-2.19041 -0.05174,-3.04043l1.19008,-0.01962c0.0115,0.2877 0.02875,1.30771 0.05174,3.06004h1.56953c-0.20697,-0.81078 -0.43694,-1.57579 -0.6899,-2.29503l1.00036,-0.39231c0.32195,1.00694 0.59791,1.90271 0.82788,2.68734h1.13834v1.35348h-3.82895c0.04599,2.61541 0.20697,4.91698 0.48294,6.90469c0.64391,-1.32078 1.26482,-3.09273 1.86274,-5.31583l1.06935,0.41192c-0.6554,2.61541 -1.52353,4.89083 -2.60438,6.82623c0.11499,0.58846 0.27596,1.18347 0.48294,1.78502c0.14947,0.40539 0.28459,0.68001 0.40531,0.82385c0.12074,0.14384 0.25009,0.21578 0.38807,0.21578c0.14947,0 0.26446,-0.10789 0.34495,-0.32366c0.08049,-0.21578 0.16098,-0.61789 0.24146,-1.20637zM312.97026,183.14095l0.18972,1.47117c-0.63241,0.19615 -1.51203,0.48059 -2.63888,0.85327c-1.12685,0.3727 -1.85123,0.63097 -2.17319,0.77481l-0.27596,-1.49079l2.05246,-0.64731v-6.92432h-1.742v-1.41233h1.742v-4.76659h1.20733v4.76659h1.55228v1.41233h-1.55228v6.532zM317.42013,182.78787h-3.93244v-5.5316h3.93244zM314.52254,178.53128v2.98158h1.84548v-2.98158zM317.55811,184.06289l0.18972,1.41232c-0.64391,0.17 -1.59539,0.42827 -2.85447,0.77481c-1.25907,0.34655 -2.02659,0.56558 -2.30255,0.65713l-0.27596,-1.43194c0.67841,-0.17 1.65001,-0.42174 2.91484,-0.7552c1.26483,-0.33346 2.04095,-0.5525 2.32842,-0.65712z"/></g></g></svg>