<svg version="1.1" xmlns="http://www.w3.org/2000/svg" xmlns:xlink="http://www.w3.org/1999/xlink" width="220" height="48" viewBox="0,0,220,48"><g transform="translate(-130,-156)"><g fill-rule="evenodd" stroke-miterlimit="10"><path d="M140,156h200c5.54,0 10,4.46 10,10v28c0,5.54 -4.46,10 -10,10h-200c-5.54,0 -10,-4.46 -10,-10v-28c0,-5.54 4.46,-10 10,-10z" fill="#e4e600" stroke="none" stroke-width="1" stroke-linecap="butt"/><path d="M151.02094,175.06988l0.06291,0.69197l0.04718,0.55042c-0.91214,0.1992 -2.1519,0.46917 -3.71931,0.80991c-1.56741,0.34074 -2.82289,0.61595 -3.76648,0.82564l-0.18872,-1.24239l1.21094,-0.25162v-9.37297h1.19521v9.12135l1.9029,-0.40889v-11.18151h1.19521v4.27759h2.1388v1.21094h-2.1388v5.42563zM156.02195,173.38714l1.13231,0.22018c-0.07339,1.43635 -0.1258,2.29606 -0.15726,2.57914c-0.03145,0.51373 -0.11795,0.91214 -0.25949,1.19521c-0.14154,0.28307 -0.35908,0.4849 -0.65264,0.60547c-0.29356,0.12057 -0.70245,0.18085 -1.22666,0.18085h-1.11658c-0.74438,0 -1.2686,-0.15726 -1.57265,-0.47179c-0.30405,-0.31453 -0.45607,-0.8702 -0.45607,-1.667v-11.68476h1.21094v5.6458c0.54519,-0.3984 1.13493,-0.87282 1.76923,-1.42325c0.6343,-0.55042 1.16638,-1.04581 1.59624,-1.48615l0.80205,0.99077c-0.51373,0.51373 -1.16375,1.08775 -1.95008,1.72205c-0.78633,0.6343 -1.52546,1.19783 -2.21743,1.6906v4.34051c0,0.42986 0.08125,0.72865 0.24376,0.8964c0.16251,0.16775 0.44296,0.25163 0.84136,0.25163h0.77059c0.32502,0 0.56354,-0.03407 0.71556,-0.10222c0.15202,-0.06815 0.25687,-0.18348 0.31453,-0.34598c0.05766,-0.16251 0.09698,-0.41675 0.11795,-0.76273c0.02097,-0.37743 0.03931,-0.80468 0.05504,-1.28171c0.01573,-0.47704 0.02883,-0.84137 0.03931,-1.09299z" fill="#000000" stroke="#000000" stroke-width="0.3" stroke-linecap="round"/><path d="M158.72691,175.54167l1.11657,-0.7706c0.34598,0.58712 0.78633,1.02746 1.32103,1.32102c0.5347,0.29356 1.14803,0.44034 1.83999,0.44034c0.50324,0 0.95932,-0.08387 1.36821,-0.25162c0.40889,-0.16775 0.72865,-0.40102 0.95931,-0.69983c0.23066,-0.2988 0.34599,-0.63168 0.34599,-0.99863c0,-0.38792 -0.10222,-0.71294 -0.30667,-0.97504c-0.20444,-0.2621 -0.51898,-0.49538 -0.94359,-0.69983c-0.42461,-0.20444 -0.99863,-0.40627 -1.72205,-0.60547c-0.78633,-0.22017 -1.43111,-0.44034 -1.93435,-0.66051c-0.50324,-0.22017 -0.92787,-0.54519 -1.27385,-0.97504c-0.34598,-0.42986 -0.51897,-0.99601 -0.51897,-1.69846c0,-0.62906 0.17037,-1.18997 0.51111,-1.68273c0.34074,-0.49276 0.81778,-0.87806 1.43111,-1.1559c0.61333,-0.27784 1.3184,-0.41675 2.11521,-0.41675c0.89117,0 1.66177,0.18086 2.31179,0.54256c0.65002,0.36171 1.18473,0.86758 1.6041,1.5176l-1.06939,0.73915c-0.34598,-0.47179 -0.76798,-0.84661 -1.26598,-1.12444c-0.49801,-0.27784 -1.03533,-0.41675 -1.61196,-0.41675c-0.49276,0 -0.94096,0.08388 -1.34461,0.25163c-0.40365,0.16775 -0.7208,0.39578 -0.95146,0.6841c-0.23066,0.28832 -0.34598,0.60547 -0.34598,0.95145c0,0.46131 0.13106,0.83612 0.39316,1.12444c0.2621,0.28832 0.59499,0.51111 0.99863,0.66838c0.40365,0.15726 0.93573,0.32501 1.59624,0.50324c0.75487,0.1992 1.39441,0.422 1.91862,0.66837c0.52421,0.24638 0.95407,0.58974 1.28957,1.03008c0.3355,0.44034 0.50324,1.00125 0.50324,1.68273c0,0.66051 -0.16774,1.23452 -0.50324,1.72204c-0.3355,0.48752 -0.80992,0.86496 -1.42325,1.13231c-0.61333,0.26735 -1.32888,0.40103 -2.14666,0.40103c-0.91214,0 -1.74564,-0.19658 -2.50051,-0.58974c-0.75487,-0.39316 -1.34199,-0.9462 -1.76136,-1.65914z" fill="#000000" stroke="#000000" stroke-width="0.3" stroke-linecap="round"/><path d="M177.40994,177.64902h-1.58837l-2.9723,-4.90666h-2.5005v4.90666h-1.35248v-11.63758h4.01025c1.20569,0 2.15452,0.30404 2.84649,0.91213c0.69197,0.60809 1.03795,1.44159 1.03795,2.50051c0,0.84923 -0.22804,1.54906 -0.6841,2.09948c-0.45606,0.55042 -1.09823,0.91476 -1.92649,1.09299zM172.89645,167.301h-2.54768v4.15179h2.54768c0.79681,0 1.42849,-0.17824 1.89504,-0.5347c0.46655,-0.35646 0.69983,-0.85448 0.69983,-1.49402c0,-0.671 -0.23066,-1.19259 -0.69197,-1.56479c-0.46131,-0.3722 -1.09561,-0.55829 -1.9029,-0.55829z" fill="#000000" stroke="#000000" stroke-width="0.3" stroke-linecap="round"/><path d="M185.83932,172.22339h-5.51998v4.13606h6.05468v1.28957h-7.40716v-11.63758h7.20271v1.28956h-5.85024v3.64854h5.51998z" fill="#000000" stroke="#000000" stroke-width="0.3" stroke-linecap="round"/><path d="M193.05777,177.64902h-1.41538l-4.32478,-11.63758h1.46256l3.52272,9.65605h0.09436l3.52273,-9.65605h1.46257z" fill="#000000" stroke="#000000" stroke-width="0.3" stroke-linecap="round"/><path d="M207.82491,171.68869v2.75213h4.56068v1.16376h-4.56068v3.11384h-1.22666v-14.34253h1.22666v2.3747h4.15179v1.13231h-4.15179v2.65777h3.86871v1.14803zM198.90801,167.88288v-1.13231h4.13606v-2.24889h1.22666v14.15382h-1.22666v-3.05093h-4.54495v-1.16376h4.54495v-2.75213h-3.85298v-1.14803h3.85298v-2.65777z" fill="#000000" stroke="#000000" stroke-width="0.3" stroke-linecap="round"/><path d="M221.86864,176.4538l0.03146,0.45607l-1.13231,0.14154v1.71418h-1.05367v-1.57264c-2.96706,0.34598 -4.72842,0.56615 -5.28409,0.66051l-0.11008,-1.00649l0.81778,-0.09436l0.5347,-0.06291v-5.50426h-1.35247v-0.95932h13.74493v0.95932h-7.29708v4.8752l1.0694,-0.14154zM228.11205,177.53893l-0.45607,1.0694c-1.27909,-0.49276 -2.338,-1.0694 -3.17674,-1.72991c-0.77584,0.66051 -1.72991,1.25288 -2.86221,1.77709l-0.51898,-1.00649c1.03795,-0.3984 1.91339,-0.88593 2.62632,-1.46256c-0.38792,-0.40889 -0.73653,-0.86233 -1.04581,-1.36034c-0.30928,-0.49801 -0.60547,-1.06678 -0.88854,-1.70632v-0.97505h5.34699v1.05367c-0.44034,1.11133 -1.05891,2.09162 -1.85572,2.94085c0.71293,0.52421 1.65652,0.99076 2.83076,1.39965zM216.22284,169.29827v-4.45059h9.93912v4.45059zM225.04539,167.48972h-7.70596v0.89641h7.70596zM217.33942,166.65622h7.70596v-0.88068h-7.70596zM225.9418,173.1198h-3.00376c0.40889,0.94359 0.92786,1.7299 1.55692,2.35896c0.63954,-0.69197 1.12182,-1.47828 1.44683,-2.35896zM216.74182,175.21141v1.35247l2.9723,-0.36171v-0.99077zM219.71412,174.37791v-1.17949h-2.9723v1.17949zM216.74182,172.36493h2.9723v-1.17948h-2.9723z" fill="#000000" stroke="#000000" stroke-width="0.3" stroke-linecap="round"/><path d="M237.04468,172.22339v1.0694h-2.75213v3.69571c0,0.38792 -0.04718,0.6841 -0.14154,0.88855c-0.09436,0.20444 -0.25949,0.35123 -0.49538,0.44034c-0.23589,0.08911 -0.57926,0.13368 -1.03009,0.13368h-0.92786l-0.22017,-1.13231h0.8335c0.30405,0 0.51636,-0.02097 0.63692,-0.06291c0.12057,-0.04193 0.19658,-0.11532 0.22803,-0.22017c0.03145,-0.10485 0.04718,-0.29356 0.04718,-0.56615v-3.17674h-2.95658v-1.0694h2.95658v-1.69846h-3.25538v-1.03795h1.93436c-0.02097,-0.10485 -0.14678,-0.80205 -0.37743,-2.09162l-0.09436,-0.44034h-0.99077v-1.02222h2.81504l-0.48752,-1.52546l1.13231,-0.18872c0.18872,0.52421 0.36171,1.09561 0.51897,1.71418h2.53196v1.02222h-0.88068c-0.13629,0.68148 -0.34074,1.52546 -0.61333,2.53196h1.85572v1.03795h-3.01948v1.69846zM239.10484,169.80151h4.76512v1.13231h-1.69846v7.70596h-1.08513v-7.70596h-1.98153v0.03145c0,1.35247 -0.04456,2.45595 -0.13368,3.31042c-0.08911,0.85447 -0.249,1.61982 -0.47966,2.29606c-0.23066,0.67624 -0.56616,1.38131 -1.0065,2.11521l-1.13231,-0.56616c0.44034,-0.66051 0.77322,-1.30791 0.99863,-1.94221c0.22541,-0.6343 0.38268,-1.36558 0.47179,-2.19384c0.08911,-0.82826 0.13368,-1.90815 0.13368,-3.23965v-4.84375c0.92262,-0.08388 1.85835,-0.22803 2.80718,-0.43247c0.94883,-0.20444 1.7535,-0.43248 2.41401,-0.6841l0.36171,1.11657c-0.55567,0.23066 -1.23977,0.44297 -2.05231,0.63693c-0.81253,0.19396 -1.60672,0.33287 -2.38256,0.41675zM231.46178,173.84321l0.92786,0.37743c-0.49276,1.28957 -1.05367,2.4009 -1.68273,3.33401l-0.86496,-0.5347c0.31453,-0.42986 0.59761,-0.90165 0.84923,-1.41538c0.25162,-0.51373 0.50849,-1.10086 0.77059,-1.76137zM235.06314,166.95502h-2.64204c0.25162,1.17424 0.41938,2.01823 0.50325,2.53196h1.49401c0.18872,-0.65002 0.40364,-1.49401 0.64478,-2.53196zM234.73289,174.47227l0.78633,-0.58188c0.38792,0.52421 0.8964,1.25287 1.52546,2.18598l-0.81778,0.62906c-0.55567,-0.8702 -1.05367,-1.61458 -1.49401,-2.23315z" fill="#000000" stroke="#000000" stroke-width="0.3" stroke-linecap="round"/><path d="M259.51779,177.60184l-0.5976,1.05367c-1.09037,-0.80729 -2.0025,-1.67225 -2.7364,-2.59486c-0.76535,0.90165 -1.83476,1.82951 -3.2082,2.78358l-0.70769,-0.94359c1.4049,-0.93311 2.48478,-1.8662 3.23965,-2.79931c-0.8702,-1.38393 -1.50449,-3.08763 -1.9029,-5.1111h-0.33025v0.06291c0,1.28957 -0.05767,2.3878 -0.173,3.29469c-0.11533,0.90689 -0.30667,1.74564 -0.57402,2.51623c-0.26735,0.77059 -0.64216,1.58575 -1.12444,2.44547l-0.94359,-0.67624c0.671,-1.14279 1.13231,-2.26985 1.38393,-3.38118c0.25162,-1.11133 0.37744,-2.54245 0.37744,-4.29333v-4.18324c1.04843,-0.07339 2.17287,-0.1992 3.37332,-0.37743c1.20046,-0.17824 2.35111,-0.38792 3.45196,-0.62906l0.22017,1.19522c-0.90165,0.1992 -1.88717,0.38267 -2.95657,0.55042c-1.0694,0.16775 -2.08113,0.2988 -3.0352,0.39316v1.96581h5.63007v1.16376c-0.23066,1.07988 -0.50848,2.03658 -0.8335,2.87008c-0.32502,0.8335 -0.72866,1.59623 -1.21094,2.2882c0.66051,0.8702 1.54643,1.67225 2.65777,2.40615zM247.86448,169.9745v1.28957v0.69197h2.54769v6.58938h-1.08513v-5.45708h-1.49401c-0.03145,1.2686 -0.12581,2.34324 -0.28307,3.22393c-0.15726,0.88068 -0.40889,1.72467 -0.75487,2.53196l-1.05367,-0.66051c0.29356,-0.60809 0.51111,-1.22404 0.65265,-1.84786c0.14154,-0.62382 0.23852,-1.34723 0.29094,-2.17025c0.05242,-0.82302 0.07863,-1.92124 0.07863,-3.29469v-6.1805h1.10085v4.24614h1.3682v-4.5135h1.0694v4.5135h1.05367v1.03795zM257.77215,169.99023h-3.12957c0.3984,1.71943 0.91213,3.11908 1.54119,4.19896c0.36695,-0.57664 0.67885,-1.20569 0.93572,-1.88717c0.25687,-0.68148 0.47442,-1.45208 0.65265,-2.31179z" fill="#000000" stroke="#000000" stroke-width="0.3" stroke-linecap="round"/><path d="M274.88254,168.16596h-5.0482c0.5976,1.43635 1.34986,2.72854 2.25675,3.87657c0.90689,1.14803 2.02609,2.27772 3.3576,3.38905l-0.84922,1.13231c-1.23715,-1.0694 -2.34062,-2.26723 -3.31042,-3.59349c-0.9698,-1.32627 -1.74302,-2.73379 -2.31966,-4.22255v6.08614h3.16102v1.17948h-3.16102v2.76786h-1.22666v-2.76786h-3.12957v-1.17948h3.12957v-6.22768c-0.57664,1.48877 -1.31054,2.86483 -2.20171,4.1282c-0.89117,1.26336 -2.04444,2.58176 -3.45982,3.9552l-0.81777,-1.08512c1.36296,-1.22666 2.4874,-2.41926 3.37333,-3.57777c0.88592,-1.15851 1.62769,-2.44546 2.22529,-3.86084h-5.01674v-1.21094h5.89742v-2.57914h1.22666v2.57914h5.91315z" fill="#000000" stroke="#000000" stroke-width="0.3" stroke-linecap="round"/><path d="M156.88754,185.69497h-3.84536v1.1127h4.71261v0.9327h-10.47247v-0.9327h4.56534v-1.1127h-3.56719v-0.91634h3.56719v-1.06361h-4.05808v-0.9327h4.05808v-1.22724h1.19451v1.22724h4.25444v0.9327h-4.25444v1.06361h3.84536zM149.57317,196.26562h-1.17815v-7.42891h8.11617v5.79259c0,0.57817 -0.12545,0.97907 -0.37636,1.2027c-0.2509,0.22363 -0.70362,0.33545 -1.35815,0.33545h-1.7345l-0.18,-0.9327h1.53815c0.29454,0 0.50726,-0.02455 0.63817,-0.07364c0.1309,-0.04909 0.21272,-0.12545 0.24545,-0.22908c0.03273,-0.10363 0.04909,-0.26999 0.04909,-0.49908v-0.60544h-5.75986zM146.00599,186.8404v6.82347l1.4236,-1.32543l0.27817,1.30906l-2.60175,2.29085l-0.73635,-0.91634c0.16363,-0.15272 0.2809,-0.29999 0.35181,-0.44181c0.07091,-0.14181 0.10636,-0.30544 0.10636,-0.4909v-6.07076h-1.55451v-1.17815zM149.57317,190.88212h5.75986v-1.06361h-5.75986zM155.33303,191.83119h-5.75986v1.04724h5.75986zM147.10232,184.82772l-1.03088,0.70362c-0.22909,-0.38181 -0.53453,-0.86725 -0.91634,-1.45633c-0.38181,-0.58908 -0.72544,-1.10179 -1.03089,-1.53814l0.96543,-0.65453c0.24,0.31636 0.55908,0.76635 0.95725,1.34997c0.39817,0.58362 0.74998,1.11543 1.05543,1.59542z" fill="#000000" stroke="#000000" stroke-width="0.3" stroke-linecap="round"/><path d="M167.4091,193.74568v1.16179h6.56166v0.98179h-14.28511v-0.98179h6.52893v-1.16179h-5.46532v-0.91634h5.46532v-1.14543h-4.89261v-5.02351h4.89261v-1.14543h-6.51257v-0.96543h6.51257v-1.2927c-2.32358,0.09818 -4.12354,0.15272 -5.39987,0.16363l-0.04909,-1.06361c1.69087,-0.02182 3.71718,-0.08182 6.07894,-0.18c2.36176,-0.09818 4.29535,-0.20181 5.80077,-0.3109l0.16363,1.04724c-1.69087,0.12 -3.49082,0.21818 -5.39987,0.29454v1.34179h6.54529v0.96543h-6.54529v1.14543h4.92533v5.02351h-4.92533v1.14543h5.51441v0.91634zM167.4091,188.72217h3.73082v-1.12906h-3.73082zM171.13992,189.62215h-3.73082v1.1127h3.73082zM162.51649,188.72217h3.69809v-1.12906h-3.69809zM166.21459,189.62215h-3.69809v1.1127h3.69809z" fill="#000000" stroke="#000000" stroke-width="0.3" stroke-linecap="round"/><path d="M183.31417,189.6876v1.1127h-2.86357v3.84536c0,0.40363 -0.04909,0.7118 -0.14727,0.92452c-0.09818,0.21272 -0.26999,0.36544 -0.51544,0.45817c-0.24545,0.09273 -0.60271,0.13909 -1.07179,0.13909h-0.96543l-0.22908,-1.17815h0.86725c0.31636,0 0.53726,-0.02182 0.66271,-0.06546c0.12545,-0.04363 0.20454,-0.12 0.23727,-0.22908c0.03273,-0.10909 0.04909,-0.30545 0.04909,-0.58908v-3.30537h-3.07629v-1.1127h3.07629v-1.76723h-3.38719v-1.07997h2.01268c-0.02182,-0.10909 -0.15272,-0.83452 -0.39272,-2.17631l-0.09818,-0.45817h-1.03088v-1.06361h2.92902l-0.50726,-1.58723l1.17815,-0.19636c0.19636,0.54544 0.37636,1.13997 0.53999,1.78359h2.63448v1.06361h-0.91634c-0.14181,0.70907 -0.35454,1.58723 -0.63817,2.63448h1.93086v1.07997h-3.14174v1.76723zM185.45775,187.16766h4.95806v1.17815h-1.76723v8.01798h-1.12906v-8.01798h-2.06177v0.03273c0,1.40724 -0.04636,2.55539 -0.13909,3.44446c-0.09273,0.88907 -0.25908,1.68542 -0.49908,2.38903c-0.24,0.70362 -0.58908,1.43724 -1.04725,2.20085l-1.17815,-0.58908c0.45817,-0.68726 0.80453,-1.36088 1.03907,-2.02086c0.23454,-0.65998 0.39817,-1.42088 0.4909,-2.28267c0.09273,-0.8618 0.13909,-1.98541 0.13909,-3.37083v-5.03988c0.95997,-0.08727 1.93359,-0.23727 2.92084,-0.44999c0.98725,-0.21272 1.8245,-0.44999 2.51176,-0.7118l0.37635,1.16179c-0.57817,0.24 -1.28997,0.4609 -2.1354,0.66271c-0.84543,0.20181 -1.67178,0.34635 -2.47903,0.43362zM177.50522,191.37301l0.96543,0.39272c-0.51271,1.34179 -1.09634,2.49812 -1.75087,3.46901l-0.89998,-0.55635c0.32727,-0.44726 0.6218,-0.93816 0.88361,-1.47269c0.26181,-0.53453 0.52908,-1.14543 0.8018,-1.83268zM181.2524,184.20592h-2.74902c0.26181,1.22179 0.43636,2.09995 0.52363,2.63448h1.55451c0.19636,-0.67635 0.41999,-1.55451 0.67089,-2.63448zM180.90877,192.02754l0.81816,-0.60544c0.40363,0.54544 0.9327,1.3036 1.58723,2.27449l-0.85089,0.65453c-0.57817,-0.90543 -1.09634,-1.67996 -1.55451,-2.32358z" fill="#000000" stroke="#000000" stroke-width="0.3" stroke-linecap="round"/><path d="M194.53935,181.45689h1.22724l-0.04909,2.89629h3.48537c-0.1309,5.78168 -0.20727,8.93978 -0.22909,9.47431c-0.02182,0.55635 -0.10363,0.98179 -0.24545,1.27633c-0.14181,0.29454 -0.37363,0.50453 -0.69544,0.62998c-0.32181,0.12545 -0.7718,0.18818 -1.34997,0.18818h-1.30906l-0.26181,-1.2927h1.27633c0.42544,0 0.73089,-0.03545 0.91634,-0.10636c0.18545,-0.07091 0.30545,-0.19636 0.35999,-0.37635c0.05454,-0.18 0.08727,-0.48272 0.09818,-0.90816c0.04363,-0.78544 0.10363,-3.17992 0.18,-7.18346l0.01636,-0.45817h-2.27449c-0.06545,1.90904 -0.17454,3.439 -0.32727,4.58989c-0.15272,1.15088 -0.4009,2.20631 -0.74453,3.16629c-0.34363,0.95997 -0.84816,2.00177 -1.5136,3.12538l-0.99816,-0.88361c0.6109,-1.01452 1.07725,-1.95268 1.39906,-2.81448c0.32181,-0.8618 0.55908,-1.84359 0.7118,-2.94538c0.15272,-1.10179 0.24545,-2.51448 0.27817,-4.23808h-1.99631v-1.24361h2.01268zM201.91917,196.13472h-1.17815v-12.68151h5.21987v12.68151h-1.16179v-1.37451h-2.87993zM204.7991,184.69682h-2.87993v8.85251h2.87993z" fill="#000000" stroke="#000000" stroke-width="0.3" stroke-linecap="round"/><path d="M221.88232,191.88028l1.09634,0.32727l-0.27817,2.0454c-0.1309,0.76362 -0.32999,1.29542 -0.59726,1.59542c-0.26727,0.29999 -0.60271,0.44999 -1.00634,0.44999c-0.38181,0 -0.72271,-0.12545 -1.0227,-0.37635c-0.29999,-0.2509 -0.5918,-0.65999 -0.87543,-1.22724c-0.15272,-0.29454 -0.27818,-0.58908 -0.37636,-0.88362c-0.67635,0.75271 -1.52178,1.5436 -2.5363,2.37267l-0.85089,-0.96543c1.19997,-0.90543 2.19267,-1.80541 2.97811,-2.69994c-0.44726,-1.57087 -0.76907,-3.52901 -0.96543,-5.8744h-8.65615v-1.09634h3.53446v-1.48906h-2.8472v-1.01452h2.8472v-1.61996h1.16179v1.61996h2.92902v1.01452h-2.92902v1.48906h3.87809c0,-0.17454 -0.01091,-0.43635 -0.03273,-0.78544l-0.13091,-3.43628h1.19452l0.16363,3.63264l0.03273,0.58908h4.31989v1.09634h-4.25444c0.14181,1.76723 0.36544,3.32174 0.67089,4.66352c0.73089,-1.07997 1.3527,-2.36721 1.86541,-3.86172l1.09634,0.45817c-0.38181,0.9818 -0.77725,1.85996 -1.18634,2.63448c-0.40908,0.77453 -0.86998,1.49996 -1.38269,2.17631c0.14181,0.44726 0.30544,0.86725 0.4909,1.25997c0.16363,0.34908 0.3109,0.5918 0.44181,0.72816c0.1309,0.13636 0.27818,0.20454 0.44181,0.20454c0.1309,0 0.23454,-0.09545 0.3109,-0.28636c0.07636,-0.1909 0.16363,-0.53181 0.26181,-1.0227c0.08727,-0.51271 0.15818,-1.08543 0.21272,-1.71814zM216.58063,193.59841l0.01636,0.40908l-2.61812,0.19636v2.14359h-1.16179v-2.0454l-3.97627,0.29454l-0.08182,-1.1127l4.05808,-0.29454v-1.2927h-3.17447v-1.01452c0.34908,-0.54544 0.71998,-1.15088 1.1127,-1.81632h-1.81632v-1.03088h2.38903c0.19636,-0.3709 0.39272,-0.76907 0.58908,-1.19452l1.14543,0.26181l-0.44181,0.9327h4.17263v1.03088h-4.71261c-0.27272,0.51271 -0.61635,1.10724 -1.03088,1.78359h1.78359v-1.21088h1.14543v1.21088h2.61812v1.04725h-2.61812v1.21088l2.56903,-0.19636zM222.47139,184.07501l-0.81816,0.8018c-0.41453,-0.44726 -1.21088,-1.23815 -2.38903,-2.37267l0.75271,-0.75271c0.66544,0.59999 1.4836,1.37451 2.45448,2.32358z" fill="#000000" stroke="#000000" stroke-width="0.3" stroke-linecap="round"/></g></g></svg>