<svg version="1.1" xmlns="http://www.w3.org/2000/svg" xmlns:xlink="http://www.w3.org/1999/xlink" width="208.00126" height="32" viewBox="0,0,208.00126,32"><g transform="translate(-239.99874,-164)"><g stroke="none" stroke-miterlimit="10"><path d="M242.23354,171.43072h4.8924v2.03347h-4.8924v-2.03347M242.23354,176.04125h4.8924v2.03347h-4.8924v-2.03347M248.35407,186.77231h10.57v2.07373h-10.57v-2.07373M242.2134,180.73231h4.91253v2.0536h-4.91253v-2.0536M241.38794,171.43072h1.9932v7.3084c0,0.79191 -0.01611,1.66033 -0.04832,2.60525c-0.0349,0.94761 -0.10604,1.9073 -0.21341,2.87907c-0.10738,0.97445 -0.26844,1.92072 -0.4832,2.8388c-0.21476,0.92076 -0.49662,1.75697 -0.8456,2.50861c-0.1208,-0.1208 -0.29126,-0.24831 -0.51139,-0.38253c-0.22281,-0.13422 -0.45099,-0.26173 -0.68453,-0.38253c-0.23623,-0.1208 -0.43488,-0.20804 -0.59595,-0.26173c0.32213,-0.69796 0.57716,-1.46034 0.76507,-2.28715c0.18791,-0.82412 0.32616,-1.67241 0.41475,-2.54485c0.0859,-0.87244 0.14228,-1.73549 0.16912,-2.58915c0.02684,-0.85097 0.04027,-1.64556 0.04027,-2.38379v-7.3084M245.75687,171.43072h2.03347v15.4624c0,0.49662 -0.04966,0.90868 -0.14899,1.23619c-0.10201,0.33019 -0.31408,0.58924 -0.63621,0.77715c-0.30871,0.18791 -0.68722,0.302 -1.13552,0.34227c-0.45099,0.04027 -1.01875,0.0604 -1.70328,0.0604c-0.01342,-0.18791 -0.04966,-0.40938 -0.10872,-0.6644c-0.06174,-0.25502 -0.13288,-0.51676 -0.21341,-0.7852c-0.08053,-0.26844 -0.16778,-0.48991 -0.26173,-0.6644c0.40267,0.01342 0.7758,0.02013 1.11941,0.02013c0.34092,0 0.5785,0 0.71272,0c0.22818,0 0.34227,-0.1208 0.34227,-0.3624v-15.42213M251.49487,179.02098v3.34213h4.4092v-3.34213h-4.4092M251.49487,173.76618v3.28173h4.4092v-3.28173h-4.4092M249.48153,171.79312h8.5164v12.5632h-8.5164zM268.70886,171.49112h9.88547v1.97307h-9.88547v-1.97307M269.29273,178.21565h9.50293v1.8724h-9.50293v-1.8724M270.4806,174.89365h7.46947v1.85227h-7.46947v-1.85227M267.521,171.49112h2.07373v8.37547c0,0.75164 -0.02013,1.56369 -0.0604,2.43613c-0.04027,0.87244 -0.1208,1.74489 -0.2416,2.61733c-0.1208,0.87244 -0.29932,1.71133 -0.53555,2.51667c-0.23355,0.80533 -0.54494,1.53013 -0.93419,2.1744c-0.13422,-0.1208 -0.3114,-0.25502 -0.53152,-0.40267c-0.22281,-0.14764 -0.45099,-0.2926 -0.68453,-0.43488c-0.23623,-0.13959 -0.43488,-0.24294 -0.59595,-0.31005c0.34898,-0.604 0.62413,-1.259 0.82547,-1.96501c0.20133,-0.70332 0.353,-1.43484 0.45501,-2.19453c0.09932,-0.75701 0.16241,-1.51537 0.18925,-2.27507c0.02684,-0.75701 0.04027,-1.47779 0.04027,-2.16232v-8.37547M274.84953,179.28271c0.22818,1.12747 0.53689,2.21467 0.92613,3.2616c0.38924,1.04693 0.86573,1.98649 1.42947,2.81867c0.56373,0.83218 1.21471,1.50329 1.95293,2.01333c-0.14764,0.13422 -0.3114,0.29529 -0.49125,0.4832c-0.18254,0.18791 -0.35435,0.38924 -0.51541,0.604c-0.16107,0.21476 -0.29529,0.40938 -0.40267,0.58387c-0.77849,-0.63084 -1.45363,-1.42947 -2.02541,-2.39587c-0.5691,-0.9664 -1.04828,-2.05092 -1.43752,-3.25355c-0.38924,-1.19995 -0.71138,-2.46432 -0.9664,-3.79312l1.53013,-0.32213M277.46686,180.63165l1.46973,1.34893c-0.52347,0.41609 -1.04693,0.82144 -1.5704,1.21605c-0.52347,0.3973 -1.00667,0.73688 -1.4496,1.01875l-1.0872,-1.06707c0.28187,-0.21476 0.58387,-0.46709 0.906,-0.75701c0.32213,-0.28724 0.63756,-0.58924 0.94627,-0.906c0.30871,-0.31408 0.57044,-0.59863 0.7852,-0.85365M270.7826,189.53058l-0.2416,-1.79187l0.68453,-0.70467l3.5636,-1.3288c0.01342,0.28187 0.04698,0.59326 0.10067,0.93419c0.05369,0.34361 0.10738,0.62279 0.16107,0.83755c-0.83218,0.34898 -1.50597,0.63756 -2.02139,0.86573c-0.5181,0.22818 -0.92479,0.41609 -1.22008,0.56373c-0.29529,0.14764 -0.51676,0.26844 -0.6644,0.3624c-0.14764,0.09396 -0.26844,0.1812 -0.3624,0.26173M270.7826,189.53058c-0.05369,-0.14764 -0.14362,-0.31274 -0.26979,-0.49528c-0.12885,-0.17986 -0.26039,-0.36106 -0.39461,-0.5436c-0.13422,-0.17986 -0.25502,-0.32348 -0.3624,-0.43085c0.18791,-0.14764 0.37314,-0.38656 0.55568,-0.71675c0.17986,-0.3275 0.26979,-0.73956 0.26979,-1.23619v-6.56347h1.97307v7.77147c0,0 -0.09127,0.07651 -0.27381,0.22952c-0.17986,0.1557 -0.38388,0.35435 -0.61205,0.59595c-0.22818,0.2416 -0.4322,0.48588 -0.61205,0.73285c-0.18254,0.24965 -0.27381,0.46844 -0.27381,0.65635M260.1522,181.11485c0.81876,-0.17449 1.79858,-0.40938 2.93947,-0.70467c1.14089,-0.29529 2.2952,-0.59729 3.46293,-0.906l0.26173,1.9328c-1.06036,0.30871 -2.13413,0.62011 -3.22133,0.93419c-1.0872,0.31676 -2.08044,0.60266 -2.97973,0.85768l-0.46307,-2.114M260.53473,174.59165h6.01987v1.9932h-6.01987v-1.9932M262.64873,170.70592h2.09387v16.3684c0,0.51004 -0.05369,0.91271 -0.16107,1.208c-0.10738,0.29529 -0.302,0.52347 -0.58387,0.68453c-0.28187,0.17449 -0.62816,0.28858 -1.03888,0.34227c-0.40804,0.05369 -0.90734,0.08053 -1.49792,0.08053c-0.02684,-0.28187 -0.09798,-0.61742 -0.21341,-1.00667c-0.11275,-0.38924 -0.23623,-0.71809 -0.37045,-0.98653c0.30871,0.01342 0.604,0.02013 0.88587,0.02013c0.28187,0 0.47649,-0.00671 0.58387,-0.02013c0.1208,0 0.20133,-0.02013 0.2416,-0.0604c0.04027,-0.04027 0.0604,-0.12751 0.0604,-0.26173zM292.26486,170.70592h2.03347v14.15373h-2.03347v-14.15373M286.18459,178.85991l10.54986,-4.4696l0.80533,1.85227l-10.54986,4.53l-0.80533,-1.91267M288.23819,172.63872h2.0536v13.1672c0,0.37582 0.03356,0.66037 0.10067,0.85365c0.06711,0.19596 0.20804,0.3275 0.4228,0.39461c0.21476,0.06711 0.53018,0.10067 0.94627,0.10067c0.1208,0 0.31945,0 0.59595,0c0.27381,0 0.58521,0 0.93419,0c0.34898,0 0.70198,0 1.05901,0c0.35435,0 0.67648,0 0.9664,0c0.28724,0 0.49796,0 0.63219,0c0.37582,0 0.65769,-0.07114 0.8456,-0.21341c0.18791,-0.13959 0.32884,-0.3973 0.4228,-0.77312c0.09396,-0.37582 0.16107,-0.91942 0.20133,-1.6308c0.2416,0.17449 0.54763,0.33556 0.91808,0.4832c0.36777,0.14764 0.6993,0.24831 0.99459,0.302c-0.09396,0.95298 -0.24831,1.7006 -0.46307,2.24285c-0.21476,0.54494 -0.53689,0.93419 -0.9664,1.16773c-0.42951,0.23623 -1.0268,0.35435 -1.79187,0.35435c-0.13422,0 -0.35166,0 -0.65232,0c-0.30334,0 -0.64964,0 -1.03888,0c-0.38924,0 -0.77446,0 -1.15565,0c-0.38388,0 -0.72614,0 -1.0268,0c-0.30334,0 -0.51541,0 -0.63621,0c-0.85902,0 -1.53684,-0.09396 -2.03347,-0.28187c-0.49662,-0.18791 -0.84157,-0.52078 -1.03485,-0.99861c-0.19596,-0.47515 -0.29395,-1.14894 -0.29395,-2.02139v-13.14706M296.33179,174.63191h-0.16107l0.40267,-0.302l0.40267,-0.26173l1.48987,0.5436l-0.08053,0.3624c0,0.95298 -0.00268,1.82811 -0.00805,2.62539c-0.00805,0.79996 -0.01476,1.50866 -0.02013,2.12608c-0.00805,0.61742 -0.02148,1.13418 -0.04027,1.55027c-0.02148,0.41609 -0.04564,0.7248 -0.07248,0.92613c-0.04027,0.45636 -0.14764,0.80802 -0.32213,1.05499c-0.17449,0.24965 -0.4228,0.42817 -0.74493,0.53555c-0.28187,0.1208 -0.6134,0.1906 -0.99459,0.20939c-0.38388,0.02148 -0.73017,0.03221 -1.03888,0.03221c-0.02684,-0.26844 -0.08322,-0.58118 -0.16912,-0.93821c-0.08859,-0.35435 -0.18657,-0.64561 -0.29395,-0.87379c0.18791,0.01342 0.38924,0.02013 0.604,0.02013c0.21476,0 0.36911,0 0.46307,0c0.13422,0 0.2416,-0.03087 0.32213,-0.09261c0.08053,-0.05906 0.13422,-0.18254 0.16107,-0.37045c0.02684,-0.10738 0.04698,-0.33958 0.0604,-0.69661c0.01342,-0.35435 0.02416,-0.82681 0.03221,-1.41739c0.00537,-0.59058 0.00805,-1.30598 0.00805,-2.14621c0,-0.83755 0,-1.79992 0,-2.88712M280.4466,175.43725h6.5836v2.03347h-6.5836v-2.03347M282.8626,170.96765h2.03347v13.26786h-2.03347v-13.26786M280.205,184.39658c0.55031,-0.20133 1.19189,-0.44696 1.92475,-0.73688c0.73017,-0.28724 1.50195,-0.60266 2.31533,-0.94627c0.8107,-0.34092 1.62543,-0.67916 2.44419,-1.01472l0.4832,1.91267c-1.07378,0.52347 -2.16366,1.04291 -3.26965,1.55832c-1.10868,0.5181 -2.11937,0.98519 -3.03208,1.40128zM301.00273,174.00778h17.8784v2.114h-17.8784v-2.114M307.54606,178.77938h7.81173v2.09387h-7.81173v-2.09387M314.79406,178.77938h2.25493c0,0 -0.00268,0.0604 -0.00805,0.1812c-0.00805,0.1208 -0.01208,0.25502 -0.01208,0.40267c0,0.14764 -0.01342,0.26844 -0.04027,0.3624c-0.1208,1.86569 -0.25502,3.3824 -0.40267,4.55013c-0.14764,1.16773 -0.31542,2.07373 -0.50333,2.718c-0.18791,0.64427 -0.4228,1.10733 -0.70467,1.3892c-0.28187,0.30871 -0.58655,0.52347 -0.91405,0.64427c-0.33019,0.1208 -0.71675,0.20133 -1.15968,0.2416c-0.37582,0.04027 -0.87513,0.05637 -1.49792,0.04832c-0.62548,-0.00537 -1.27377,-0.02148 -1.94488,-0.04832c-0.01342,-0.32213 -0.09396,-0.68453 -0.2416,-1.0872c-0.14764,-0.40267 -0.32884,-0.75164 -0.5436,-1.04693c0.69796,0.06711 1.36638,0.10738 2.00528,0.1208c0.63621,0.01342 1.10196,0.02013 1.39725,0.02013c0.22818,0 0.41609,-0.01745 0.56373,-0.05235c0.14764,-0.03221 0.28858,-0.0953 0.4228,-0.18925c0.20133,-0.18791 0.38253,-0.58118 0.5436,-1.17981c0.16107,-0.59595 0.30871,-1.44423 0.44293,-2.54485c0.13422,-1.10062 0.24831,-2.49653 0.34227,-4.18773v-0.34227M306.23739,175.33658h2.416c-0.05369,1.06036 -0.13422,2.12742 -0.2416,3.2012c-0.10738,1.07378 -0.28187,2.13413 -0.52347,3.18107c-0.2416,1.04693 -0.59058,2.04689 -1.04693,2.99987c-0.45636,0.95298 -1.06036,1.84153 -1.812,2.66565c-0.75164,0.82681 -1.6912,1.55564 -2.81867,2.18648c-0.16107,-0.28187 -0.39193,-0.59058 -0.69259,-0.92613c-0.30334,-0.33556 -0.60266,-0.61071 -0.89795,-0.82547c1.04693,-0.55031 1.90864,-1.18787 2.58512,-1.91267c0.67916,-0.7248 1.21605,-1.50732 1.61067,-2.34755c0.3973,-0.83755 0.6899,-1.7167 0.87781,-2.63747c0.18791,-0.91808 0.31542,-1.85092 0.38253,-2.79853c0.06711,-0.94492 0.1208,-1.87374 0.16107,-2.78645M308.37152,171.28978l2.114,-0.80533c0.26844,0.45636 0.5436,0.95969 0.82547,1.51c0.28187,0.55031 0.49662,1.02009 0.64427,1.40933l-2.21467,0.9664c-0.13422,-0.41609 -0.33556,-0.91271 -0.604,-1.48987c-0.26844,-0.57716 -0.52347,-1.10733 -0.76507,-1.59053zM321.80046,174.22925h16.52946v9.92573h-2.25493v-7.7916h-12.10013v7.89227h-2.1744v-10.0264M322.92792,180.97391h14.41546v2.13413h-14.41546v-2.13413M328.86725,170.70592h2.27507v18.7844h-2.27507zM343.52432,181.49738v-1.67107l1.2684,-0.74493h13.08666v2.114h-12.03973c-0.37582,0 -0.72748,0.0094 -1.05499,0.02819c-0.33019,0.02148 -0.60534,0.05503 -0.82547,0.10067c-0.22281,0.04832 -0.36777,0.10604 -0.43488,0.17315M350.06765,176.42378h2.19453v10.40893c0,0.56373 -0.06711,1.00935 -0.20133,1.33685c-0.13422,0.33019 -0.40267,0.58252 -0.80533,0.75701c-0.37582,0.18791 -0.83889,0.30468 -1.3892,0.35032c-0.55031,0.04832 -1.19458,0.07248 -1.9328,0.07248c-0.02684,-0.21476 -0.08724,-0.45636 -0.1812,-0.7248c-0.09396,-0.26844 -0.1906,-0.5342 -0.28992,-0.79728c-0.10201,-0.26039 -0.2067,-0.49125 -0.31408,-0.69259c0.52347,0.01342 1.0268,0.02282 1.51,0.02819c0.4832,0.00805 0.81204,0.00537 0.98653,-0.00805c0.16107,0 0.27247,-0.02684 0.33421,-0.08053c0.05906,-0.05369 0.08859,-0.14764 0.08859,-0.28187v-10.36867M344.93365,182.50405l2.1744,0.604c-0.30871,0.71138 -0.67782,1.41873 -1.10733,2.12205c-0.42951,0.70601 -0.88184,1.36772 -1.35699,1.98515c-0.47783,0.61742 -0.96506,1.15431 -1.46168,1.61067c-0.13422,-0.1208 -0.3114,-0.27247 -0.53152,-0.45501c-0.22281,-0.17986 -0.4483,-0.35435 -0.67648,-0.52347c-0.22818,-0.16644 -0.42951,-0.30334 -0.604,-0.41072c0.7248,-0.59058 1.40531,-1.3288 2.04152,-2.21467c0.6389,-0.88587 1.14626,-1.79187 1.52208,-2.718M353.49032,183.36978l1.83213,-0.86573c0.4832,0.49662 0.98385,1.04291 1.50195,1.63885c0.51541,0.59863 0.99861,1.18921 1.4496,1.77173c0.4483,0.58521 0.80668,1.1127 1.07512,1.58248l-1.97307,1.0268c-0.2416,-0.46978 -0.57447,-1.00398 -0.99861,-1.60261c-0.42146,-0.59595 -0.88452,-1.20666 -1.3892,-1.83213c-0.50199,-0.62279 -1.0013,-1.19592 -1.49792,-1.71939M341.59152,173.30312h17.214v2.07373h-17.214v-2.07373M343.52432,181.49738c-0.04027,-0.14764 -0.10335,-0.35569 -0.18925,-0.62413c-0.08859,-0.26844 -0.18657,-0.54763 -0.29395,-0.83755c-0.10738,-0.28724 -0.20804,-0.53152 -0.302,-0.73285c0.26844,-0.08053 0.52615,-0.24831 0.77312,-0.50333c0.24965,-0.25502 0.53555,-0.59729 0.85768,-1.0268c0.17449,-0.20133 0.41877,-0.5436 0.73285,-1.0268c0.31676,-0.4832 0.66708,-1.05767 1.05096,-1.72341c0.38119,-0.66306 0.76641,-1.37712 1.15565,-2.14219c0.38924,-0.76507 0.74493,-1.54356 1.06707,-2.33547l2.3556,0.86573c-0.51004,1.10062 -1.07378,2.18111 -1.6912,3.24147c-0.61742,1.06036 -1.25229,2.06702 -1.90461,3.02c-0.64964,0.95298 -1.28988,1.812 -1.92072,2.57707v0.04027c0,0 -0.08724,0.04295 -0.26173,0.12885c-0.17449,0.08859 -0.36911,0.19596 -0.58387,0.32213c-0.21476,0.12885 -0.40938,0.26039 -0.58387,0.39461c-0.17449,0.13422 -0.26173,0.25502 -0.26173,0.3624zM372.61698,171.69245h5.2548v1.95293h-3.34213v15.78453h-1.91267v-17.73746M377.42885,171.69245h0.40267l0.32213,-0.08053l1.48987,0.92613c-0.33556,0.9664 -0.71138,1.98917 -1.12747,3.06832c-0.41609,1.08183 -0.81876,2.06568 -1.208,2.95155c0.83218,0.92613 1.37175,1.78784 1.61872,2.58512c0.24965,0.79996 0.37448,1.5355 0.37448,2.20661c0,0.68453 -0.07651,1.2684 -0.22952,1.7516c-0.1557,0.4832 -0.41475,0.85231 -0.77715,1.10733c-0.17449,0.1208 -0.37582,0.21744 -0.604,0.28992c-0.22818,0.07516 -0.46978,0.13288 -0.7248,0.17315c-0.22818,0.02684 -0.4832,0.04295 -0.76507,0.04832c-0.28187,0.00805 -0.56373,0.00537 -0.8456,-0.00805c-0.01342,-0.28187 -0.0604,-0.61742 -0.14093,-1.00667c-0.08053,-0.38924 -0.20804,-0.7248 -0.38253,-1.00667c0.25502,0.02684 0.48588,0.04295 0.69259,0.04832c0.20939,0.00805 0.40132,0.00537 0.57581,-0.00805c0.13422,0 0.26844,-0.01745 0.40267,-0.05235c0.13422,-0.03221 0.24831,-0.08188 0.34227,-0.14899c0.17449,-0.10738 0.29797,-0.28589 0.37045,-0.53555c0.07516,-0.24697 0.11275,-0.54494 0.11275,-0.89392c0,-0.57716 -0.14093,-1.22813 -0.4228,-1.95293c-0.28187,-0.7248 -0.82547,-1.50329 -1.6308,-2.33547c0.20133,-0.51004 0.40535,-1.05767 0.61205,-1.64288c0.20939,-0.58252 0.41072,-1.1731 0.604,-1.77173c0.19596,-0.59595 0.37448,-1.15565 0.53555,-1.67912c0.16107,-0.52347 0.29529,-0.9664 0.40267,-1.3288v-0.70467M361.68458,172.98098h9.68413v1.9328h-9.68413v-1.9328M361.16112,178.39685h10.65053v1.95293h-10.65053v-1.95293M362.77178,175.35671l1.85227,-0.46307c0.28187,0.4832 0.5342,1.01606 0.75701,1.59859c0.22012,0.58521 0.37716,1.09257 0.47112,1.52208l-1.9328,0.5436c-0.08053,-0.44293 -0.22818,-0.96372 -0.44293,-1.56235c-0.21476,-0.59595 -0.44964,-1.14223 -0.70467,-1.63885M368.46952,174.83325l2.13413,0.46307c-0.18791,0.45636 -0.38253,0.91942 -0.58387,1.3892c-0.20133,0.46978 -0.39596,0.91942 -0.58387,1.34893c-0.18791,0.42951 -0.37582,0.81204 -0.56373,1.1476l-1.812,-0.44293c0.17449,-0.3624 0.353,-0.77178 0.53555,-1.22813c0.17986,-0.45636 0.34764,-0.91942 0.50333,-1.3892c0.15301,-0.46978 0.2765,-0.89929 0.37045,-1.28853M363.27512,186.63138h6.60373v1.89253h-6.60373v-1.89253M362.14765,181.92018h8.83853v7.40907h-2.13413v-5.47627h-4.67093v5.59707h-2.03347v-7.52987M364.90592,171.10858l1.95293,-0.5436c0.21476,0.42951 0.42683,0.89929 0.63621,1.40933c0.2067,0.51004 0.35703,0.94627 0.45099,1.30867l-2.07373,0.64427c-0.08053,-0.3624 -0.21073,-0.80936 -0.39059,-1.34088c-0.18254,-0.52884 -0.37448,-1.02143 -0.57581,-1.47779z" fill="#ffffff" stroke-width="1"/><path d="M240,196v-32h208v32z" fill="none" stroke-width="0"/><path d="M340.4948,187.0757c2.0638,-0.6836 0,0 0,0z" fill="#ffffff" stroke-width="1"/></g></g></svg>