<svg version="1.1" xmlns="http://www.w3.org/2000/svg" xmlns:xlink="http://www.w3.org/1999/xlink" width="192" height="36" viewBox="0,0,192,36"><g transform="translate(-144,-162)"><g stroke="none" stroke-miterlimit="10"><path d="M144,198v-36h192v36z" fill="none" fill-rule="nonzero" stroke-linecap="butt" stroke-linejoin="miter"/><path d="M317,164c9.31184,0 17,7.09393 17,16c0,8.90606 -7.68816,16 -17,16h-154c-9.31184,0 -17,-7.09394 -17,-16c0,-8.90607 7.68816,-16 17,-16z" fill="#7d97b4" fill-rule="evenodd" stroke-linecap="round" stroke-linejoin="round"/><path d="M163,166h154c8.31,0 15,6.244 15,14c0,7.75599 -6.69,13.99999 -15,13.99999h-154c-8.31,0 -15,-6.244 -15,-13.99999c0,-7.756 6.69,-14 15,-14z" fill="#31476d" fill-rule="evenodd" stroke-linecap="round" stroke-linejoin="round"/><path d="M179.01028,177.40194v1.19137h7.03341v-1.19137h-7.03341M179.01028,175.06226v1.17702h7.03341v-1.17702h-7.03341M177.47441,173.81347h10.17691v6.02864h-10.17691v-6.02864M184.39299,179.00958c0.32536,0.44019 0.7397,0.85166 1.24305,1.23444c0.50143,0.38277 1.06602,0.71769 1.69376,1.00477c0.62583,0.28708 1.27367,0.51674 1.94352,0.68899c-0.11483,0.09569 -0.23636,0.22201 -0.36459,0.37894c-0.13014,0.15885 -0.25263,0.31961 -0.36746,0.48229c-0.11483,0.16268 -0.21531,0.311 -0.30143,0.44497c-0.68899,-0.22966 -1.35597,-0.52918 -2.00093,-0.89855c-0.64688,-0.36746 -1.23826,-0.79329 -1.77414,-1.2775c-0.53588,-0.48229 -0.99042,-1.00573 -1.36362,-1.57032l1.29185,-0.48803M180.70404,179.00958l1.34927,0.53109c-0.38277,0.54545 -0.84688,1.05932 -1.39233,1.54161c-0.54545,0.4842 -1.13874,0.91482 -1.77988,1.29185c-0.64114,0.37894 -1.3062,0.68803 -1.99519,0.92726c-0.06699,-0.13397 -0.15981,-0.27751 -0.27847,-0.43062c-0.12057,-0.15311 -0.24497,-0.30622 -0.3732,-0.45932c-0.13014,-0.15311 -0.25263,-0.27751 -0.36746,-0.3732c0.65071,-0.18182 1.28515,-0.4287 1.90333,-0.74066c0.61626,-0.31004 1.17798,-0.65932 1.68515,-1.04783c0.50717,-0.3866 0.92343,-0.79999 1.24879,-1.24018M179.64185,181.60764h1.57893v0.96171c0,0.34449 -0.03828,0.70813 -0.11483,1.0909c-0.07655,0.38277 -0.22201,0.76554 -0.43636,1.14831c-0.21627,0.38277 -0.53971,0.7464 -0.97032,1.0909c-0.43062,0.34449 -1.00477,0.65071 -1.72247,0.91865c-0.06699,-0.1244 -0.16268,-0.26315 -0.28708,-0.41626c-0.1244,-0.15311 -0.25359,-0.30622 -0.38756,-0.45932c-0.13397,-0.15311 -0.25837,-0.27751 -0.3732,-0.3732c0.60286,-0.21052 1.08611,-0.44019 1.44974,-0.68899c0.36363,-0.2488 0.63636,-0.51004 0.81817,-0.78372c0.18182,-0.27177 0.30143,-0.54449 0.35885,-0.81817c0.05742,-0.27177 0.08612,-0.52727 0.08612,-0.7665v-0.9043M181.73752,174.44504h1.56458v4.77985h-1.56458v-4.77985M184.06285,181.63634h1.59328v5.05257h-1.59328zM194.85699,179.66986h3.76072v1.22008h-3.76072v-1.22008M194.85699,182.11002h3.78943v1.22008h-3.78943v-1.22008M192.02927,184.56454h9.81807v1.42104h-9.81807v-1.42104M191.06756,177.08616h11.62666v9.64582h-1.56458v-8.22478h-8.58363v8.22478h-1.47845v-9.64582M194.18235,178.00481h1.39233v7.20566h-1.39233v-7.20566M198.01484,178.00481h1.39233v7.1913h-1.39233v-7.1913M195.87611,174.8613l1.82295,0.38756c-0.16268,0.50717 -0.32248,1.02104 -0.47942,1.54161c-0.15885,0.52248 -0.31004,0.97032 -0.45358,1.34352l-1.40668,-0.38756c0.06699,-0.26794 0.13684,-0.56937 0.20957,-0.9043c0.07081,-0.33492 0.13493,-0.6775 0.19234,-1.02774c0.05742,-0.34832 0.09569,-0.66602 0.11483,-0.9531M190.45034,174.18667h12.90416v1.4641h-12.90416zM205.37839,174.4881l1.03348,-0.91865c0.25837,0.22009 0.53397,0.46889 0.82678,0.7464c0.29091,0.27751 0.56841,0.55023 0.83253,0.81817c0.2622,0.26794 0.47464,0.51196 0.63731,0.73205l-1.10525,1.06219c-0.15311,-0.22009 -0.35406,-0.47368 -0.60286,-0.76076c-0.2488,-0.28708 -0.51674,-0.57894 -0.80382,-0.87559c-0.28708,-0.29665 -0.5598,-0.56459 -0.81817,-0.80382M204.61764,177.77515h2.75595v1.50716h-2.75595v-1.50716M206.41188,186.43055l-0.3732,-1.53587l0.34449,-0.54545l3.1148,-2.29662c0.03828,0.14354 0.08899,0.30335 0.15215,0.47942c0.06124,0.17799 0.12536,0.35024 0.19234,0.51674c0.06699,0.16842 0.12919,0.30526 0.1866,0.41052c-0.71769,0.54545 -1.30142,0.99233 -1.75118,1.34065c-0.44976,0.35024 -0.79903,0.63061 -1.04783,0.84114c-0.2488,0.21052 -0.43062,0.3732 -0.54545,0.48803c-0.11483,0.11483 -0.20574,0.21531 -0.27272,0.30143M206.41188,186.43055c-0.04785,-0.13397 -0.12153,-0.29186 -0.22105,-0.47368c-0.10143,-0.18182 -0.20957,-0.36172 -0.3244,-0.53971c-0.11483,-0.17607 -0.22009,-0.31674 -0.31579,-0.422c0.11483,-0.07655 0.24402,-0.18469 0.38756,-0.3244c0.14354,-0.1378 0.27081,-0.30526 0.38181,-0.50239c0.10909,-0.19521 0.16363,-0.40287 0.16363,-0.62296v-5.77027h1.55022v6.99035c0,0 -0.05263,0.03828 -0.15789,0.11483c-0.10526,0.07655 -0.23923,0.17703 -0.40191,0.30143c-0.16268,0.1244 -0.32536,0.26028 -0.48803,0.40765c-0.16268,0.14928 -0.29856,0.29569 -0.40765,0.43923c-0.111,0.14354 -0.16651,0.27751 -0.16651,0.40191M209.986,173.91395l1.32056,-0.54545c0.27751,0.36363 0.54545,0.77033 0.80382,1.22008c0.25837,0.44976 0.44497,0.84688 0.5598,1.19137l-1.42104,0.61722c-0.05742,-0.22966 -0.15311,-0.48803 -0.28708,-0.77511c-0.13397,-0.28708 -0.28421,-0.58181 -0.45071,-0.8842c-0.16842,-0.30047 -0.34354,-0.57511 -0.52535,-0.82391M214.92374,173.35414l1.63634,0.47368c-0.2488,0.55502 -0.50909,1.10525 -0.78085,1.6507c-0.27368,0.54545 -0.52535,1.01434 -0.75502,1.40668l-1.36362,-0.47368c0.14354,-0.27751 0.29665,-0.59329 0.45932,-0.94736c0.16268,-0.35406 0.31292,-0.71578 0.45071,-1.08515c0.13971,-0.36746 0.25741,-0.70908 0.35311,-1.02487M210.96206,177.55984v2.08132h4.29182v-2.08132h-4.29182M209.48361,176.19622h7.32049v4.80856h-7.32049v-4.80856M211.13431,180.70334h1.55022c-0.03828,0.69856 -0.11674,1.34927 -0.2354,1.95213c-0.12057,0.60286 -0.30047,1.15788 -0.53971,1.66505c-0.23923,0.50717 -0.58085,0.96171 -1.02487,1.36362c-0.44593,0.40191 -1.02296,0.75119 -1.73108,1.04783c-0.08612,-0.18182 -0.21722,-0.39234 -0.3933,-0.63157c-0.17799,-0.23923 -0.34832,-0.42583 -0.511,-0.5598c0.61243,-0.22966 1.10047,-0.50526 1.4641,-0.82678c0.36363,-0.31961 0.64114,-0.68325 0.83253,-1.0909c0.19138,-0.40574 0.32823,-0.85262 0.41052,-1.34065c0.08038,-0.48803 0.13971,-1.01434 0.17799,-1.57893M213.71801,180.5598h1.52151v4.09086c0,0.21052 0.01627,0.34162 0.0488,0.3933c0.03445,0.05359 0.11387,0.08038 0.23827,0.08038c0.02871,0 0.07464,0 0.1378,0c0.06124,0 0.13014,0 0.2067,0c0.07655,0 0.14832,0 0.21531,0c0.06699,0 0.11962,0 0.15789,0c0.08612,0 0.15024,-0.03828 0.19234,-0.11483c0.04402,-0.07655 0.07847,-0.23732 0.10335,-0.48229c0.02297,-0.24306 0.03923,-0.61339 0.0488,-1.11099c0.10526,0.07655 0.23732,0.15789 0.39617,0.24402c0.15694,0.08612 0.32153,0.15789 0.49377,0.21531c0.17225,0.05742 0.32536,0.10526 0.45932,0.14354c-0.04785,0.66028 -0.12631,1.17415 -0.2354,1.54161c-0.111,0.36937 -0.26985,0.62583 -0.47655,0.76937c-0.20478,0.14354 -0.47942,0.21531 -0.82391,0.21531c-0.05742,0 -0.13875,0 -0.24402,0c-0.10526,0 -0.21531,0 -0.33014,0c-0.11483,0 -0.22488,0 -0.33014,0c-0.10526,0 -0.1866,0 -0.24402,0c-0.42105,0 -0.74162,-0.05742 -0.96171,-0.17225c-0.22009,-0.11483 -0.37033,-0.30909 -0.45071,-0.58277c-0.0823,-0.27177 -0.12344,-0.64688 -0.12344,-1.12535zM220.26339,174.14361h4.11957v8.74152h-4.11957v-1.40668h2.69853v-5.94251h-2.69853v-1.39233M220.27774,177.76079h3.25834v1.37797h-3.25834v-1.37797M226.3925,173.91395h4.52148v1.43539h-4.52148v-1.43539M226.3925,177.35888h4.52148v1.39233h-4.52148v-1.39233M226.34944,180.78946h4.55019v1.39233h-4.55019v-1.39233M219.44522,174.14361h1.43539v10.01902h-1.43539v-10.01902M230.33983,173.91395h1.53587v10.99509c0,0.42105 -0.05263,0.74832 -0.15789,0.98181c-0.10526,0.2354 -0.29186,0.41531 -0.5598,0.53971c-0.26794,0.1244 -0.61243,0.20287 -1.03348,0.2354c-0.42105,0.03445 -0.933,0.05167 -1.53587,0.05167c-0.01914,-0.14354 -0.05742,-0.30622 -0.11483,-0.48803c-0.05742,-0.18182 -0.12249,-0.36363 -0.19521,-0.54545c-0.07081,-0.18182 -0.14928,-0.33492 -0.2354,-0.45932c0.27751,0.00957 0.54736,0.01435 0.80956,0.01435c0.26411,0 0.50143,0 0.71195,0c0.21052,0 0.35406,0 0.43062,0c0.13397,0 0.22488,-0.02679 0.27272,-0.08038c0.04785,-0.05167 0.07177,-0.13493 0.07177,-0.24976v-10.99509M225.47385,173.91395h1.52151v5.18176c0,0.622 -0.03636,1.27941 -0.10909,1.97223c-0.07081,0.69473 -0.20957,1.39137 -0.41626,2.08993c-0.20478,0.69856 -0.50813,1.36362 -0.91004,1.99519c-0.40191,0.63157 -0.92822,1.19137 -1.57893,1.67941c-0.07655,-0.10526 -0.1866,-0.22488 -0.33014,-0.35885c-0.14354,-0.13397 -0.28995,-0.26315 -0.43923,-0.38756c-0.14737,-0.1244 -0.27847,-0.22009 -0.3933,-0.28708c0.61243,-0.44976 1.09568,-0.94736 1.44974,-1.49281c0.35406,-0.54545 0.62009,-1.11482 0.79808,-1.70811c0.17607,-0.59329 0.28804,-1.18659 0.33588,-1.77988c0.04785,-0.59329 0.07177,-1.16745 0.07177,-1.72247zM239.94258,178.27753c0.32536,0 0.61913,0.07847 0.88133,0.2354c0.26411,0.15885 0.47464,0.36937 0.63157,0.63157c0.15885,0.26411 0.23827,0.55884 0.23827,0.8842c0,0.31579 -0.07942,0.60765 -0.23827,0.87559c-0.15694,0.26794 -0.36746,0.48038 -0.63157,0.63731c-0.2622,0.15885 -0.55597,0.23827 -0.88133,0.23827c-0.31579,0 -0.60765,-0.07942 -0.87559,-0.23827c-0.26794,-0.15694 -0.48133,-0.36937 -0.64018,-0.63731c-0.15694,-0.26794 -0.2354,-0.5598 -0.2354,-0.87559c0,-0.32536 0.07847,-0.62009 0.2354,-0.8842c0.15885,-0.2622 0.37224,-0.47272 0.64018,-0.63157c0.26794,-0.15694 0.5598,-0.2354 0.87559,-0.2354zM252.63143,180.21531h7.49274v1.47845h-7.49274v-1.47845M251.6123,184.83726h9.4018v1.4641h-9.4018v-1.4641M252.07163,176.02397h8.56928v1.4641h-8.56928v-1.4641M255.6314,176.8565h1.60764v8.62669h-1.60764v-8.62669M248.44009,174.61729l0.86123,-1.1196c0.29665,0.13397 0.6153,0.28708 0.95597,0.45932c0.33875,0.17225 0.66602,0.34641 0.98181,0.52248c0.31579,0.17799 0.57894,0.33875 0.78946,0.48229l-0.9043,1.26314c-0.19138,-0.15311 -0.44019,-0.32536 -0.7464,-0.51674c-0.30622,-0.19138 -0.63157,-0.38564 -0.97607,-0.58277c-0.34449,-0.19521 -0.66506,-0.36459 -0.96171,-0.50813M247.65063,178.62203l0.81817,-1.14831c0.29665,0.1244 0.61435,0.26985 0.9531,0.43636c0.34067,0.16842 0.66889,0.33875 0.98468,0.511c0.31579,0.17225 0.57894,0.33014 0.78946,0.47368l-0.86123,1.29185c-0.19138,-0.15311 -0.44306,-0.32344 -0.75502,-0.511c-0.31004,-0.18564 -0.63444,-0.37224 -0.97319,-0.5598c-0.34067,-0.18564 -0.65932,-0.35024 -0.95597,-0.49377M248.03818,185.56931c0.25837,-0.36363 0.54545,-0.79425 0.86123,-1.29185c0.31579,-0.4976 0.63636,-1.03157 0.96171,-1.6019c0.32536,-0.56841 0.63157,-1.12535 0.91865,-1.67079l1.1196,1.01913c-0.2488,0.50717 -0.51674,1.02583 -0.80382,1.55596c-0.28708,0.53205 -0.57894,1.05358 -0.87559,1.56458c-0.29665,0.51291 -0.58851,0.99903 -0.87559,1.45836l-1.3062,-1.03348M254.97112,173.75605l1.40668,-0.48803c0.22966,0.34449 0.45645,0.72918 0.68037,1.15405c0.22583,0.42679 0.3866,0.79808 0.48229,1.11386l-1.49281,0.54545c-0.08612,-0.30622 -0.23253,-0.67942 -0.43923,-1.1196c-0.20478,-0.44019 -0.41722,-0.8421 -0.63731,-1.20573zM265.62171,183.3301h1.49281v1.59328c0,0.18182 0.05072,0.29665 0.15215,0.34449c0.09952,0.04785 0.32153,0.07177 0.66602,0.07177c0.07655,0 0.20765,0 0.3933,0c0.18756,0 0.39617,0 0.62583,0c0.22966,0 0.44688,0 0.65167,0c0.2067,0 0.35789,0 0.45358,0c0.19138,0 0.33205,-0.02871 0.422,-0.08612c0.09186,-0.05742 0.15885,-0.17512 0.20095,-0.35311c0.04402,-0.17607 0.0756,-0.44593 0.09474,-0.80956c0.15311,0.09569 0.35885,0.19138 0.61722,0.28708c0.25837,0.09569 0.48803,0.16268 0.68899,0.20095c-0.04785,0.53588 -0.13875,0.94927 -0.27272,1.24018c-0.13397,0.29282 -0.32536,0.49377 -0.57416,0.60286c-0.2488,0.111 -0.59329,0.16651 -1.03348,0.16651c-0.06699,0 -0.18373,0 -0.35024,0c-0.16842,0 -0.35502,0 -0.5598,0c-0.2067,0 -0.41339,0 -0.62009,0c-0.20478,0 -0.39138,0 -0.5598,0c-0.16651,0 -0.28325,0 -0.35024,0c-0.56459,0 -1.00286,-0.05072 -1.31482,-0.15215c-0.31004,-0.09952 -0.52535,-0.2689 -0.64593,-0.50813c-0.11866,-0.23923 -0.17799,-0.56937 -0.17799,-0.99042v-1.60764M267.18629,183.20092l0.88994,-0.84688c0.25837,0.11483 0.53301,0.25072 0.82391,0.40765c0.29282,0.15885 0.57033,0.32153 0.83253,0.48803c0.26411,0.16842 0.48229,0.32918 0.65454,0.48229l-0.94736,0.94736c-0.15311,-0.15311 -0.35693,-0.31866 -0.61148,-0.49664c-0.25263,-0.17607 -0.52248,-0.35024 -0.80956,-0.52248c-0.28708,-0.17225 -0.56459,-0.32536 -0.83253,-0.45932M271.98049,183.55977l1.23444,-0.54545c0.22966,0.2488 0.46124,0.52344 0.69473,0.82391c0.2354,0.30239 0.45071,0.60191 0.64593,0.89855c0.19713,0.29665 0.34832,0.56937 0.45358,0.81817l-1.33491,0.60286c-0.08612,-0.23923 -0.22009,-0.51004 -0.40191,-0.81243c-0.18182,-0.30047 -0.38468,-0.60861 -0.60861,-0.92439c-0.22583,-0.31579 -0.45358,-0.60286 -0.68325,-0.86123M263.88489,183.1435l1.29185,0.5598c-0.22009,0.44976 -0.47846,0.91865 -0.77511,1.40668c-0.29665,0.48803 -0.63157,0.90908 -1.00477,1.26314l-1.2775,-0.76076c0.36363,-0.30622 0.70334,-0.68707 1.01913,-1.14257c0.31579,-0.45358 0.56459,-0.89568 0.7464,-1.3263M263.13849,174.20102h10.99509v1.20573h-10.99509v-1.20573M262.46385,176.52636h12.43048v1.20573h-12.43048v-1.20573M265.20545,175.62206l1.40668,-0.28708c0.11483,0.20095 0.22201,0.42775 0.32153,0.68037c0.10143,0.25454 0.17129,0.47272 0.20957,0.65454l-1.4641,0.34449c-0.02871,-0.19138 -0.08612,-0.41913 -0.17225,-0.68325c-0.08612,-0.2622 -0.1866,-0.49856 -0.30143,-0.70908M270.67428,175.30627l1.59328,0.30143c-0.16268,0.28708 -0.31387,0.55502 -0.45358,0.80382c-0.1378,0.2488 -0.2689,0.46889 -0.3933,0.66028l-1.34927,-0.31579c0.10526,-0.22009 0.21531,-0.46411 0.33014,-0.73205c0.11483,-0.26794 0.20574,-0.50717 0.27272,-0.71769M265.56429,180.94736v0.73205h6.21524v-0.73205h-6.21524M265.56429,179.29666v0.71769h6.21524v-0.71769h-6.21524M264.1002,178.32059h9.2152v4.33488h-9.2152v-4.33488M267.63126,173.45462l1.50716,-0.28708c0.13397,0.22966 0.26315,0.49473 0.38756,0.79521c0.1244,0.30239 0.21052,0.55884 0.25837,0.76937l-1.57893,0.33014c-0.03828,-0.21052 -0.11196,-0.46889 -0.22105,-0.77511c-0.111,-0.30622 -0.2287,-0.58373 -0.35311,-0.83253zM282.17176,173.32544h1.56458v11.88503c0,0.39234 -0.05454,0.68612 -0.16363,0.88133c-0.111,0.19713 -0.30047,0.34832 -0.56841,0.45358c-0.25837,0.09569 -0.58851,0.15789 -0.99042,0.1866c-0.40191,0.02871 -0.90908,0.04306 -1.52151,0.04306c-0.03828,-0.18182 -0.10813,-0.39234 -0.20957,-0.63157c-0.09952,-0.23923 -0.20191,-0.44019 -0.30717,-0.60286c0.2488,0.00957 0.4976,0.01627 0.7464,0.0201c0.2488,0.00574 0.47368,0.00574 0.67463,0c0.20095,-0.00383 0.33971,-0.00574 0.41626,-0.00574c0.13397,-0.00957 0.22679,-0.03636 0.27847,-0.08038c0.05359,-0.0421 0.08038,-0.13014 0.08038,-0.26411v-11.88503M276.73163,174.31586h12.57402v1.23444h-12.57402v-1.23444M279.67418,177.20099v0.77511h6.64586v-0.77511h-6.64586M278.21008,176.21057h9.67453v2.7703h-9.67453v-2.7703M277.83688,179.72728h10.29175v5.49754h-1.56458v-4.43535h-8.72717v-1.06219M276.41584,181.50716h13.20559v1.17702h-13.20559v-1.17702M277.72205,183.47364h9.67453v1.13396h-9.67453zM290.74103,174.91872h4.72243v1.4641h-4.72243v-1.4641M292.43479,175.55029h1.53587v7.1626h-1.53587v-7.1626M290.49702,182.5837c0.40191,-0.10526 0.87272,-0.22966 1.41242,-0.3732c0.54162,-0.14354 1.12343,-0.29952 1.74543,-0.46794c0.622,-0.16651 1.24879,-0.33588 1.88036,-0.50813l0.1866,1.29185c-0.8421,0.29665 -1.68898,0.59042 -2.54064,0.88133c-0.85166,0.29282 -1.62199,0.55884 -2.31098,0.79808l-0.3732,-1.62199M295.67878,173.89959h8.29655v1.37797h-8.29655v-1.37797M298.85099,174.53116l1.85165,0.24402c-0.20095,0.44019 -0.41148,0.87272 -0.63157,1.29759c-0.22009,0.42679 -0.41626,0.79329 -0.58851,1.09951l-1.39233,-0.28708c0.15311,-0.34449 0.29856,-0.73683 0.43636,-1.17702c0.13971,-0.44019 0.24784,-0.83253 0.3244,-1.17702M298.86534,178.47849h1.55022v2.97126c0,0.4976 -0.06699,0.99233 -0.20095,1.48419c-0.13397,0.49377 -0.37511,0.97032 -0.72344,1.42965c-0.35024,0.45932 -0.84592,0.89186 -1.48706,1.29759c-0.64114,0.40765 -1.46888,0.76937 -2.48322,1.08515c-0.05742,-0.11483 -0.14354,-0.24402 -0.25837,-0.38756c-0.11483,-0.14354 -0.23445,-0.28708 -0.35885,-0.43062c-0.1244,-0.14354 -0.24402,-0.26794 -0.35885,-0.3732c0.9665,-0.23923 1.73682,-0.52152 2.31098,-0.84688c0.57416,-0.32536 1.00669,-0.67272 1.29759,-1.04209c0.29282,-0.36746 0.4842,-0.74257 0.57416,-1.12535c0.09186,-0.38277 0.1378,-0.75119 0.1378,-1.10525v-2.9569M300.04236,184.36359l0.96171,-0.91865c0.34449,0.20095 0.71291,0.43062 1.10525,0.68899c0.39234,0.25837 0.77033,0.51865 1.13396,0.78085c0.36363,0.26411 0.66028,0.50143 0.88994,0.71195l-1.03348,1.06219c-0.21052,-0.22966 -0.48803,-0.48133 -0.83253,-0.75502c-0.34449,-0.27177 -0.71291,-0.54641 -1.10525,-0.82391c-0.39234,-0.27751 -0.76554,-0.52631 -1.1196,-0.7464M296.10939,176.49765h7.09083v6.73198h-1.57893v-5.36836h-4.01909v5.42577h-1.49281z" fill="#ffffff" fill-rule="nonzero" stroke-linecap="butt" stroke-linejoin="miter"/></g></g></svg>