<svg version="1.1" xmlns="http://www.w3.org/2000/svg" xmlns:xlink="http://www.w3.org/1999/xlink" width="208" height="32" viewBox="0,0,208,32"><g transform="translate(-240,-164)"><g stroke="none" stroke-miterlimit="10"><path d="M241.59956,174.43864h16.95489v10.1812h-2.31297v-7.99214h-12.41156v8.09539h-2.23036v-10.28445M242.75605,181.35689h14.78648v2.18906h-14.78648v-2.18906M248.84825,170.82462h2.33362v19.26786h-2.33362zM261.1359,186.91215h19.1233v2.12711h-19.1233v-2.12711M266.87702,172.93107h2.41623v15.44733h-2.41623v-15.44733M271.93664,172.93107h2.41623v15.57124h-2.41623v-15.57124M277.18212,176.54509l2.18906,0.70215c-0.27535,0.83983 -0.57411,1.68929 -0.89628,2.5484c-0.32492,0.86186 -0.65534,1.68516 -0.99127,2.46992c-0.33868,0.78476 -0.66636,1.48691 -0.98301,2.10645l-2.0032,-0.70215c0.33042,-0.61955 0.66498,-1.3396 1.00366,-2.16015c0.33593,-0.8178 0.65259,-1.65763 0.94997,-2.51948c0.29463,-0.8591 0.53832,-1.67415 0.73106,-2.44514M261.9,177.28854l1.94124,-0.7228c0.33042,0.75722 0.67462,1.56952 1.03258,2.43688c0.35796,0.86736 0.68563,1.70719 0.98301,2.51948c0.29463,0.81229 0.53143,1.52821 0.71041,2.14776l-2.12711,0.90867c-0.15144,-0.63331 -0.3676,-1.36713 -0.64846,-2.20145c-0.28361,-0.83157 -0.59063,-1.6948 -0.92106,-2.5897c-0.33042,-0.8949 -0.65397,-1.72784 -0.97062,-2.49883M261.8174,172.00176h17.90486v2.18906h-17.90486zM293.90985,170.82462h2.0858v14.51802h-2.0858v-14.51802M287.67309,179.18848l10.82139,-4.58464l0.82606,1.89994l-10.82139,4.64659l-0.82606,-1.96189M289.77955,172.80717h2.10645v13.50609c0,0.3855 0.03442,0.67737 0.10326,0.87562c0.06884,0.20101 0.2134,0.33593 0.43368,0.40477c0.22028,0.06884 0.54382,0.10326 0.97062,0.10326c0.12391,0 0.32767,0 0.61128,0c0.28086,0 0.60027,0 0.95823,0c0.35796,0 0.71867,0 1.08214,0c0.36622,0 0.69664,0 0.99127,0c0.29738,0 0.51491,0 0.65259,0c0.3855,0 0.67462,-0.07297 0.86736,-0.21891c0.19275,-0.14318 0.33731,-0.40752 0.43368,-0.79302c0.09637,-0.3855 0.16521,-0.94309 0.20652,-1.67277c0.24782,0.17898 0.56034,0.34419 0.93758,0.49564c0.37999,0.15144 0.72143,0.2547 1.02432,0.30977c-0.09637,0.9775 -0.2547,1.74437 -0.47498,2.30058c-0.22028,0.55897 -0.55071,0.95823 -0.99127,1.19779c-0.44056,0.24231 -1.05323,0.36347 -1.83798,0.36347c-0.13768,0 -0.36209,0 -0.67324,0c-0.3084,0 -0.66223,0 -1.06149,0c-0.39926,0 -0.7944,0 -1.1854,0c-0.39376,0 -0.74483,0 -1.05323,0c-0.31115,0 -0.52868,0 -0.65259,0c-0.88113,0 -1.5764,-0.09637 -2.0858,-0.28912c-0.5094,-0.19275 -0.86323,-0.53419 -1.06149,-1.02432c-0.20101,-0.48738 -0.30151,-1.17851 -0.30151,-2.07341v-13.48544M298.08146,174.85167h-0.16521l0.41303,-0.30977l0.41303,-0.26847l1.52821,0.55759l-0.08261,0.37173c0,0.9775 -0.00413,1.87516 -0.01239,2.69296c-0.00551,0.82055 -0.01101,1.54749 -0.01652,2.1808c-0.00826,0.63331 -0.02203,1.16337 -0.0413,1.59017c-0.02203,0.4268 -0.04681,0.74345 -0.07435,0.94997c-0.0413,0.4681 -0.15144,0.82881 -0.33042,1.08214c-0.17898,0.25608 -0.43368,0.43919 -0.76411,0.54933c-0.28912,0.12391 -0.62918,0.1955 -1.02018,0.21478c-0.39376,0.02203 -0.74896,0.03304 -1.06562,0.03304c-0.02753,-0.27535 -0.08536,-0.59614 -0.17347,-0.96236c-0.09087,-0.36347 -0.19137,-0.66223 -0.30151,-0.89628c0.19275,0.01377 0.39926,0.02065 0.61955,0.02065c0.22028,0 0.37861,0 0.47498,0c0.13768,0 0.24782,-0.03166 0.33042,-0.095c0.08261,-0.06058 0.13768,-0.18724 0.16521,-0.37999c0.02753,-0.11014 0.04819,-0.34832 0.06195,-0.71454c0.01377,-0.36347 0.0234,-0.84809 0.02891,-1.45387c0.00826,-0.60578 0.01239,-1.3396 0.01239,-2.20145c0,-0.8591 0,-1.84625 0,-2.96143M281.78741,175.67773h6.75305v2.0858h-6.75305v-2.0858M284.26559,171.09309h2.0858v13.60935h-2.0858v-13.60935M281.53959,184.86765c0.56447,-0.20652 1.22119,-0.45846 1.97015,-0.75585c0.75172,-0.29463 1.54336,-0.61817 2.37492,-0.97062c0.83432,-0.3497 1.6714,-0.69664 2.51122,-1.04084l0.49564,1.96189c-1.10141,0.53694 -2.21935,1.06975 -3.35381,1.59843c-1.13721,0.53143 -2.17392,1.01055 -3.11012,1.43735zM316.60587,174.6658l2.0858,0.84671c-0.88113,1.45937 -1.89994,2.85679 -3.05642,4.19226c-1.15648,1.33547 -2.38594,2.56354 -3.68836,3.68423c-1.29967,1.12344 -2.61035,2.10508 -3.93205,2.94491c-0.12391,-0.15144 -0.28912,-0.33731 -0.49564,-0.55759c-0.20652,-0.22028 -0.41991,-0.43368 -0.6402,-0.6402c-0.22028,-0.20652 -0.41991,-0.37173 -0.59889,-0.49564c1.363,-0.75722 2.6847,-1.65212 3.96509,-2.6847c1.28039,-1.03258 2.46441,-2.16841 3.55206,-3.4075c1.08765,-1.23909 2.02385,-2.53325 2.80861,-3.88248M307.10617,176.669l1.54886,-1.3217c0.88113,0.68838 1.82146,1.43459 2.821,2.23862c0.99678,0.80679 1.98805,1.63009 2.97382,2.46992c0.98301,0.83983 1.90132,1.65487 2.75491,2.44514c0.8536,0.79302 1.56952,1.51307 2.14776,2.16015l-1.73473,1.65212c-0.53694,-0.66085 -1.21844,-1.39466 -2.0445,-2.20145c-0.82606,-0.80403 -1.72096,-1.64386 -2.6847,-2.51948c-0.96374,-0.87287 -1.94124,-1.72922 -2.93252,-2.56905c-0.99127,-0.83983 -1.94124,-1.62459 -2.84991,-2.35427M320.90138,171.79524v2.12711h-15.24082v13.46479h15.79841v2.12711h-17.96682v-17.719z" fill="#ffffff" stroke-width="1"/><path d="M240,196v-32h208v32z" fill="none" stroke-width="0"/></g></g></svg>