<svg version="1.1" xmlns="http://www.w3.org/2000/svg" xmlns:xlink="http://www.w3.org/1999/xlink" width="208" height="32" viewBox="0,0,208,32"><g transform="translate(-240,-164)"><g stroke-miterlimit="10"><path d="M279.56769,188.35882l-0.56065,1.41174c-1.98897,-0.57814 -3.57747,-1.28401 -4.76551,-2.11762c-1.40162,0.94116 -3.13696,1.70754 -5.20602,2.29913l-0.66076,-1.31091c1.90887,-0.45714 3.51072,-1.06889 4.80555,-1.83527c-0.88102,-0.8336 -1.6419,-1.86216 -2.28264,-3.08567c-0.73418,1.90922 -1.85548,3.74448 -3.36389,5.5058l-0.98113,-1.04872c0.96111,-1.04872 1.75536,-2.15459 2.38275,-3.3176c0.62739,-1.16301 1.12797,-2.47055 1.50174,-3.92263h-2.30266v-1.2504h2.58298c0.12014,-0.53781 0.22025,-1.11595 0.30035,-1.73443h-2.60301v-1.2504h1.80208c-0.14684,-0.36302 -0.32037,-0.75293 -0.5206,-1.16973c-0.20023,-0.4168 -0.37376,-0.7731 -0.5206,-1.06889l0.98113,-0.46386c-0.65409,0.05378 -1.27481,0.09412 -1.86215,0.12101l-0.10012,-1.29074c1.81543,-0.09412 3.71429,-0.23193 5.69658,-0.41344c1.98229,-0.18151 3.65422,-0.38655 5.0158,-0.61512l0.22025,1.33107c-2.26929,0.32268 -5.23271,0.61176 -8.89027,0.86721c0.18688,0.34958 0.38711,0.73948 0.60069,1.16973c0.21358,0.43025 0.40046,0.82688 0.56065,1.1899l-0.84097,0.34285h3.04352c-0.13349,-0.37646 -0.31036,-0.84032 -0.53061,-1.39158c-0.22025,-0.55125 -0.38378,-0.94116 -0.49057,-1.16973l1.1213,-0.40336c0.14684,0.34958 0.32037,0.77646 0.5206,1.28065c0.20023,0.50419 0.36709,0.9378 0.50058,1.30082l-1.06123,0.38319h2.20255c0.50725,-1.06217 0.96111,-2.07056 1.36157,-3.02517l1.10127,0.42352c-0.26698,0.72604 -0.64742,1.59325 -1.14132,2.60164h1.86215v1.2504h-6.72777c-0.09344,0.73948 -0.18688,1.31763 -0.28032,1.73443h7.40856v1.2504h-7.66886c-0.08009,0.33613 -0.21358,0.82688 -0.40046,1.47225h6.6677v1.23023c-0.69414,1.22351 -1.60185,2.29913 -2.72315,3.22684c1.1213,0.61848 2.53626,1.11595 4.24491,1.49242zM319.4738,173.51534v1.43191h-7.96921v2.01678h6.76782v10.28557c0,0.61848 -0.07008,1.09242 -0.21024,1.42183c-0.14016,0.32941 -0.36709,0.55797 -0.68079,0.6857c-0.3137,0.12773 -0.76422,0.19159 -1.35156,0.19159h-2.46285l-0.28032,-1.41174h2.18252c0.38711,0 0.66744,-0.03025 0.84097,-0.09075c0.17353,-0.0605 0.29034,-0.17479 0.3504,-0.34285c0.06007,-0.16807 0.0901,-0.43361 0.0901,-0.79663v-8.55114h-12.13402v11.21328h-1.46169v-12.60486h6.80787v-2.01678h-8.0493v-1.43191h8.0493v-2.19829h1.54178v2.19829zM332.84926,179.06148h6.28726v1.51258l-1.96227,4.53775l-1.58183,-0.60503l1.82211,-3.93272h-5.68657v6.53436c0,0.64537 -0.08009,1.14284 -0.24028,1.49242c-0.16019,0.34958 -0.4305,0.59831 -0.81094,0.74621c-0.38044,0.1479 -0.91773,0.22185 -1.61186,0.22185h-2.86331l-0.30035,-1.55292h2.60301c0.45386,0 0.79425,-0.03697 1.02118,-0.11092c0.22693,-0.07395 0.38378,-0.21512 0.47054,-0.42352c0.08677,-0.2084 0.13015,-0.53445 0.13015,-0.97814v-5.92933h-7.92916v-1.51258h8.34965c-2.25594,-1.72098 -3.7243,-2.81677 -4.40509,-3.28735l0.86099,-1.16973c0.88102,0.63192 2.06238,1.51258 3.5441,2.64198l4.66539,-3.36802h-11.49328v-1.49242h13.95613v1.49242l-5.8868,4.33607zM299.63088,184.14376h-9.9515c-1.01451,1.1294 -2.25594,2.29913 -3.7243,3.50919l8.99039,-0.34285l-2.20255,-2.09745l0.98113,-0.98822c0.574,0.52436 1.12463,1.03528 1.65191,1.53275c0.52728,0.49747 0.99115,0.93444 1.39161,1.31091c1.44167,1.37141 2.03569,1.92938 1.78206,1.67393l-1.0412,1.14956c-0.22693,-0.24201 -0.64074,-0.66554 -1.24143,-1.27057l-12.3743,0.54453l-0.38044,-1.43191c1.57515,-1.1294 2.95675,-2.32602 4.14479,-3.58986h-5.74664v-1.37141h2.64305v-10.48724h12.3743v10.48724h2.70312zM259.46446,188.33866l-0.46053,1.45208c-3.12361,-0.55125 -5.57978,-1.23023 -7.36851,-2.03695c-1.97562,0.87394 -4.39174,1.59998 -7.24838,2.17812l-0.5206,-1.41174c2.36273,-0.36302 4.44514,-0.88066 6.24722,-1.55292c-1.25478,-0.75293 -2.34938,-1.72098 -3.28379,-2.90416c-1.02785,1.46552 -2.50957,2.99155 -4.44514,4.57809l-0.60069,-1.47225c1.24143,-0.95461 2.26595,-1.92602 3.07355,-2.91424c0.8076,-0.98822 1.4717,-2.08736 1.9923,-3.29743h-4.04467v-1.29074h4.52523c0.18688,-0.52436 0.34707,-1.06889 0.48056,-1.63359l1.50174,0.20168c-0.08009,0.33613 -0.21358,0.81343 -0.40046,1.43191h9.73124v1.29074h-10.17175c-0.26698,0.65881 -0.5206,1.21007 -0.76088,1.65376h9.45092v1.1899c-1.02785,1.22351 -2.34938,2.27896 -3.96458,3.16634c1.70864,0.57814 3.79772,1.03528 6.26724,1.37141zM315.94973,184.40594v1.21007h-4.46516v3.5697h-1.50174v-3.5697h-4.5853v-1.21007h4.5853v-1.85544h-4.14479v-1.21007h2.72315c-0.62739,-0.84705 -1.16134,-1.52603 -1.60185,-2.03695l1.14132,-0.64537c-0.04005,-0.05378 0.2336,0.28907 0.82095,1.02856l0.94109,1.1899l-0.84097,0.46386h2.26261c0.66744,-0.87394 1.27481,-1.77476 1.82211,-2.70248l1.28148,0.6252c-0.26698,0.44369 -0.76088,1.13612 -1.48171,2.07728h2.60301v1.21007h-4.02465v1.85544zM257.22187,177.5489h-13.09513v1.39158h-1.3816v-2.58148h2.88333l-0.82095,-1.77476l1.26146,-0.38319c0.14684,0.2689 0.33372,0.62856 0.56065,1.07898c0.22693,0.45041 0.40046,0.81007 0.5206,1.07898h3.22373c-0.50725,-1.14284 -0.81427,-1.82182 -0.92106,-2.03695l1.48171,-0.30252c0.13349,0.28235 0.30035,0.64537 0.50058,1.08906c0.20023,0.44369 0.38044,0.86049 0.54062,1.2504h2.22257c0.61404,-0.94116 1.10127,-1.80165 1.46169,-2.58148l1.3816,0.34285c-0.50725,0.91427 -0.94109,1.66048 -1.3015,2.23862h2.9434v2.58148h-1.46169zM267.73402,186.10003l-0.90104,1.21007l-0.80093,-0.84705l-0.40046,-0.42352c-0.60069,1.07562 -1.50841,2.31257 -2.72315,3.71087l-0.96111,-1.06889c0.62739,-0.69915 1.15467,-1.32771 1.58183,-1.88569c0.42716,-0.55797 0.80093,-1.13948 1.1213,-1.74451c-0.84097,-0.82016 -1.5885,-1.52603 -2.24259,-2.11762c0.38711,-1.77476 0.72083,-3.85877 1.00116,-6.25201h-1.42164v-1.33107h1.58183c0.12014,-1.08906 0.22693,-2.3798 0.32037,-3.87221l1.3015,0.08067c-0.05339,0.9815 -0.16019,2.24535 -0.32037,3.79154h2.78322v1.35124c-0.12014,1.85544 -0.287,3.40163 -0.50058,4.63859c-0.21358,1.23696 -0.50725,2.33274 -0.88102,3.28735l0.48056,0.48403zM258.10289,171.74058l0.18021,1.2504c-2.02901,0.21512 -4.49186,0.4168 -7.38854,0.60503c-2.89668,0.18823 -5.49969,0.32268 -7.80902,0.40336l-0.08009,-1.31091c2.64305,-0.08067 5.36286,-0.20504 8.15943,-0.3731c2.79656,-0.16807 5.10924,-0.35966 6.93802,-0.57478zM295.48609,182.77235v-2.21846h-9.47094v2.21846zM286.01514,177.1052v2.13778h9.47094v-2.13778zM286.01514,175.83464h9.47094v-2.11762h-9.47094zM266.45254,176.68168h-1.74201c-0.21358,1.76132 -0.51393,3.64364 -0.90104,5.64698c0.37376,0.30924 0.86099,0.75293 1.46169,1.33107c0.32037,-0.87394 0.57733,-1.86888 0.77089,-2.98483c0.19356,-1.11595 0.33038,-2.44702 0.41047,-3.99322zM255.17951,183.86141h-6.86794c0.88102,1.02183 1.98897,1.84199 3.32384,2.46047c1.46836,-0.6857 2.64973,-1.50586 3.5441,-2.46047zM276.52418,183.6194h-4.36504c0.58735,1.00839 1.28148,1.84199 2.08241,2.5008c0.94776,-0.72604 1.70864,-1.55964 2.28264,-2.5008z" fill="#ffffff" fill-rule="evenodd" stroke="#ffffff" stroke-width="0.5" stroke-linecap="round"/><path d="M240,196v-32h208v32z" fill="none" fill-rule="nonzero" stroke="none" stroke-width="0" stroke-linecap="butt"/></g></g></svg>