<svg version="1.1" xmlns="http://www.w3.org/2000/svg" xmlns:xlink="http://www.w3.org/1999/xlink" width="208" height="32" viewBox="0,0,208,32"><g transform="translate(-240,-164)"><g stroke-miterlimit="10"><path d="M240,196v-32h208v32z" fill="none" fill-rule="nonzero" stroke="none" stroke-width="0" stroke-linecap="butt"/><path d="M299.19213,183.50404h-10.08411c-1.02802,1.19649 -2.286,2.43571 -3.77393,3.71766l9.11019,-0.36322l-2.23189,-2.22205l0.99421,-1.04693c0.58164,0.55551 1.13962,1.09678 1.67392,1.6238c0.5343,0.52702 1.00435,0.98995 1.41015,1.38878c1.46088,1.45288 2.06281,2.044 1.80581,1.77336l-1.05508,1.21785c-0.22995,-0.25639 -0.64928,-0.70507 -1.25798,-1.34605l-12.53919,0.57688l-0.38551,-1.51697c1.59614,-1.19649 2.99615,-2.46419 4.20002,-3.80312h-5.82322v-1.45288h2.67827v-11.11024h12.53919v11.11024h2.73914zM258.32817,179.91458h-7.75076c0.51401,1.23922 1.1058,2.29683 1.77537,3.17283c0.66957,0.876 1.49469,1.65229 2.47537,2.32888c0.98068,0.67658 2.20146,1.30688 3.66234,1.89088l-0.79131,1.55971c-2.29953,-0.98283 -4.12224,-2.15795 -5.46814,-3.52536c-1.3459,-1.36741 -2.46523,-3.17639 -3.35799,-5.42692h-3.36813v7.30712l4.6464,-2.13658l0.08116,1.6238l-6.20872,2.90575l-0.77102,-1.60244c0.27053,-0.15668 0.45991,-0.30624 0.56812,-0.44868c0.10821,-0.14244 0.16232,-0.31337 0.16232,-0.51278v-7.13619h-3.14494v-1.66654h3.14494v-8.18312h1.52175v8.18312h12.82325zM336.32274,171.17596l-0.83189,7.77716h3.28697c-0.05411,0.64098 -0.13527,1.85171 -0.24348,3.63219l-0.22319,3.3117c-0.06763,0.85463 -0.24348,1.51341 -0.52754,1.97634c-0.28406,0.46293 -0.69662,0.79054 -1.23769,0.98283c-0.54107,0.19229 -1.26474,0.28844 -2.17102,0.28844h-3.46958l-0.24348,-1.51697h3.20581c0.68986,0 1.22078,-0.05341 1.59276,-0.16024c0.37198,-0.10683 0.65604,-0.30268 0.85218,-0.58756c0.19614,-0.28488 0.32802,-0.69795 0.39565,-1.23922c0.04058,-0.2279 0.16232,-1.73063 0.36522,-4.50819l0.04058,-0.68371h-12.41745l0.79131,-6.73024l1.54204,0.02137l-0.56812,5.21326h7.42612l0.68986,-6.23882h-11.07831v-1.53834zM265.26733,170.32132v15.19111l1.25798,-0.19229v-11.62302h1.25798v13.99462h-1.25798v-0.98283l-5.03191,0.70507v-13.61004h1.25798v12.11443l1.2174,-0.19229v-15.40477zM309.07334,172.35108v1.64517c-0.45991,2.80605 -1.12947,5.24887 -2.00871,7.32848c1.09566,1.66654 2.11692,3.25473 3.06378,4.76458l-1.27827,1.02556c-0.74396,-1.22498 -1.59614,-2.59239 -2.55653,-4.10224c-0.98744,1.9799 -2.31982,3.96692 -3.99712,5.96107l-0.93334,-1.58107c1.6773,-1.90868 2.99615,-3.87434 3.95654,-5.89697c-1.35266,-2.09385 -2.4889,-3.796 -3.40871,-5.10644l1.19711,-0.91873c0.68986,0.98283 1.67054,2.42146 2.94204,4.3159c0.67633,-1.76624 1.17682,-3.70341 1.50146,-5.81151h-5.60003v-1.6238zM317.18932,174.3381h2.27247v1.6238h-2.27247v10.3838c0,0.71219 -0.08454,1.26415 -0.25362,1.65585c-0.16908,0.39171 -0.45652,0.67658 -0.86232,0.85463c-0.4058,0.17805 -0.98068,0.26707 -1.72465,0.26707h-2.43479l-0.32464,-1.66654h2.4145c0.47343,0 0.82174,-0.03917 1.04493,-0.11751c0.22319,-0.07834 0.37536,-0.22434 0.45652,-0.438c0.08116,-0.21366 0.12174,-0.54839 0.12174,-1.00419v-9.93511h-5.74206v-1.6238h5.74206v-4.3159h1.56233zM268.24996,178.11985h10.55077v1.43151h-1.48117v7.39258c0,0.584 -0.07101,1.03624 -0.21304,1.35673c-0.14203,0.32049 -0.37875,0.54839 -0.71015,0.68371c-0.3314,0.13532 -0.80145,0.20298 -1.41015,0.20298h-1.78552l-0.26377,-1.41015h1.60291c0.4058,0 0.70677,-0.03561 0.9029,-0.10683c0.19614,-0.07122 0.3314,-0.19229 0.4058,-0.36322c0.0744,-0.17093 0.11159,-0.42732 0.11159,-0.76917v-6.98663h-7.71018zM269.30503,177.82073l-0.62899,-1.36741c1.2715,-0.37034 2.1947,-0.76205 2.76958,-1.17512c0.57488,-0.41307 0.97054,-0.96858 1.18696,-1.66654h-3.46958v-1.41015h3.73335l0.02029,-0.21366c0.01353,-0.2279 0.02705,-0.52702 0.04058,-0.89737c0.01353,-0.37034 0.02029,-0.69083 0.02029,-0.96146h1.37972c0,0.31337 -0.02029,0.98283 -0.06087,2.00839v0.0641h3.69277v1.41015h-3.85509c-0.02705,0.14244 -0.08116,0.3561 -0.16232,0.64098l0.4058,0.21366c1.83962,0.88312 3.11789,1.53122 3.8348,1.94429l-0.6087,1.38878l-1.37972,-0.76917c-1.29856,-0.71219 -2.25218,-1.24634 -2.86088,-1.60244c-0.36522,0.48429 -0.87247,0.91517 -1.52175,1.29263c-0.64928,0.37746 -1.49469,0.74424 -2.53624,1.10034zM321.89659,184.74326v-1.49561h13.43195v1.49561zM255.83251,170.55635l0.73044,1.60244c-1.23092,0.86888 -2.66136,1.72351 -4.29132,2.5639c-1.62996,0.84039 -3.2633,1.58107 -4.90002,2.22205l-0.56812,-1.58107c1.51498,-0.56976 3.07731,-1.28195 4.68698,-2.13658c1.60967,-0.85463 3.05702,-1.74488 4.34205,-2.67073zM294.99211,182.05117v-2.35024h-9.59715v2.35024zM285.39497,176.04737v2.26478h9.59715v-2.26478zM285.39497,174.70132h9.59715v-2.24341h-9.59715zM269.28474,186.66619v-5.42692h4.97104v5.42692zM314.10525,182.54258l-1.2174,0.83327c-1.02802,-1.752 -2.04928,-3.42566 -3.06378,-5.02097l1.13624,-0.83327c0.33817,0.49854 0.83189,1.26771 1.48117,2.30751c0.64928,1.0398 1.20387,1.94429 1.66378,2.71346zM270.56301,182.54258v2.79892h2.47537v-2.79892z" fill="#ffffff" fill-rule="evenodd" stroke="#ffffff" stroke-width="0.5" stroke-linecap="round"/></g></g></svg>