<svg version="1.1" xmlns="http://www.w3.org/2000/svg" xmlns:xlink="http://www.w3.org/1999/xlink" width="175.2028" height="32" viewBox="0,0,175.2028,32"><g transform="translate(-240,-164)"><g stroke-miterlimit="10"><path d="M240,196v-32h175.2028v32z" fill="none" fill-rule="nonzero" stroke="none" stroke-width="0" stroke-linecap="butt"/><path d="M249.26553,172.48h6.72046v4.3164h-1.8179v-2.6367h-11.54064v2.6367h-1.78496v-4.3164h6.62174v-1.9824h1.80147zM253.47714,175.7612v5.2734h-4.36786c-0.14807,0.60547 -0.33452,1.1914 -0.55936,1.7578h6.56421v6.709h-1.90019v-1.0059h-9.57466v1.0059h-1.88368v-6.709h4.89431c0.25774,-0.83987 0.41952,-1.4258 0.48533,-1.7578h-3.86609v-5.2734zM245.11971,177.3432v2.0898h6.52302v-2.0898zM243.63908,184.4526v2.3633h9.57466v-2.3633z" fill="#ffffff" fill-rule="nonzero" stroke="none" stroke-width="1" stroke-linecap="butt"/><path d="M271.85659,179.78v7.8809c0,0.58594 -0.09048,1.01564 -0.27145,1.2891c-0.21936,0.32552 -0.68274,0.48828 -1.39017,0.48828c-0.67998,0 -1.39562,-0.04557 -2.14691,-0.13672l-0.33726,-1.9434c0.7842,0.16276 1.43403,0.24414 1.94947,0.24414c0.23032,0 0.3729,-0.05208 0.42775,-0.15625c0.04386,-0.08464 0.06579,-0.2474 0.06579,-0.48829v-7.1777h-6.88496v6.1621h-4.33501v1.6602h-1.44778v-13.682h1.38191v10.156h0.80613v-13.359h1.43127v13.359h0.84729v-10.156h1.31613v4.1016h10.05226v1.7578zM268.53338,174.1062c1.33255,0.65104 2.68706,1.44204 4.06353,2.373l-1.07758,1.4551c-1.01449,-0.79427 -2.2045,-1.61457 -3.57001,-2.4609c-0.73484,1.21093 -1.87001,2.04753 -3.4055,2.5098l-0.87197,-1.5234c1.64516,-0.42969 2.70354,-1.24999 3.17513,-2.4609h-3.24917v-1.6992h3.45486v-1.7969h1.63697v1.7969h3.94013v1.6992h-4.06353c-0.00562,0.03253 -0.01659,0.06834 -0.03293,0.10742zM269.14209,181.1668v5.2344h-3.52065v0.9375h-1.49706v-6.1719zM265.5885,182.7684v2.0312h2.15516v-2.0312z" fill="#ffffff" fill-rule="nonzero" stroke="none" stroke-width="1" stroke-linecap="butt"/><path d="M295.45842,184.3c-1.51354,0.944 -2.83241,1.66667 -3.95664,2.168l-0.69096,-2.1484c1.76034,-0.70313 3.30954,-1.4323 4.64759,-2.1875v-4.375h-4.07178v-2.0606h4.07178v-5.1953h1.83432v19.004h-1.83432zM301.307,176.6926c1.27774,-0.79427 2.51711,-1.80337 3.71809,-3.0273l1.36549,1.6992c-1.62321,1.3672 -3.31773,2.53257 -5.08358,3.4961v7.3242c0,0.31901 0.08774,0.51433 0.26323,0.58594c0.18645,0.07161 0.61693,0.10742 1.29145,0.10742c0.88837,0 1.44498,-0.06185 1.66982,-0.18555c0.15903,-0.08463 0.26871,-0.3483 0.32903,-0.79101c0.08226,-0.61849 0.14259,-1.61783 0.18097,-2.998l1.84258,0.67383c-0.05486,1.6862 -0.1426,2.89713 -0.26323,3.6328c-0.1371,0.82033 -0.49629,1.35093 -1.07758,1.5918c-0.55387,0.22135 -1.46144,0.33203 -2.72272,0.33203c-1.48063,0 -2.41289,-0.14648 -2.79676,-0.43945c-0.36742,-0.28646 -0.55113,-0.83659 -0.55113,-1.6504v-16.543h1.83432z" fill="#ffffff" fill-rule="nonzero" stroke="none" stroke-width="1" stroke-linecap="butt"/><path d="M313.26509,172.75h3.52065v1.8848h-1.15988c-0.20839,0.99607 -0.48807,2.041 -0.83904,3.1348h2.19627v1.8848h-9.17962v-1.8848h2.01534c-0.21935,-1.25 -0.44967,-2.29493 -0.69096,-3.1348h-1.06933v-1.8848h3.48771v-2.2559h1.71918zM310.78917,174.6348c0.27968,0.97007 0.49629,2.015 0.64983,3.1348h1.67807l0.08226,-0.27344c0.23581,-0.7422 0.45516,-1.5853 0.65806,-2.5293l0.07404,-0.33203zM315.88918,181.295v7.998h-1.68633v-0.95703h-3.58643v1.1621h-1.73569v-8.2031zM310.61641,183.0919v3.3887h3.58643v-3.3887zM321.60618,178.1603c0.65257,0.73567 1.1708,1.61133 1.55467,2.627c0.37839,1.0156 0.56758,2.04423 0.56758,3.0859c0,0.96353 -0.15081,1.67317 -0.45242,2.1289c-0.31258,0.47526 -0.82805,0.71289 -1.54642,0.71289c-0.61422,0 -1.20921,-0.05208 -1.78496,-0.15625l-0.40307,-2.0801c0.66352,0.14323 1.21191,0.21485 1.64514,0.21485c0.32904,0 0.53468,-0.09115 0.61693,-0.27344c0.05486,-0.13021 0.08229,-0.39062 0.08229,-0.78125c0,-1.60807 -0.40581,-2.9948 -1.21741,-4.1602c-0.21387,-0.30599 -0.48258,-0.63476 -0.80613,-0.98633l0.09871,-0.27343c0.57031,-1.52993 1.01449,-3.125 1.33255,-4.7852h-2.1058v16.064h-1.70275v-18.086h4.95192l0.91308,0.99609c-0.55387,2.2396 -1.13515,4.15693 -1.74386,5.752z" fill="#ffffff" fill-rule="nonzero" stroke="none" stroke-width="1" stroke-linecap="butt"/><path d="M289.55194,183.47997h-8.44599c-0.86103,1.16216 -1.91465,2.36582 -3.16088,3.61098l7.63028,-0.3528l-1.86934,-2.15829l0.8327,-1.01689c0.48716,0.53957 0.95449,1.06531 1.402,1.57721c0.44751,0.5119 0.8412,0.96155 1.18107,1.34893c1.22357,1.41119 1.72771,1.98535 1.51245,1.72248l-0.88369,1.18291c-0.1926,-0.24903 -0.54381,-0.68484 -1.05362,-1.30742l-10.50225,0.56032l-0.32288,-1.47345c1.33685,-1.16216 2.50944,-2.39349 3.51775,-3.69399h-4.87726v-1.41119h2.2432v-10.79144h10.50225v10.79144h2.29418zM286.03419,182.06878v-2.28281h-8.03814v2.28281zM277.99606,176.23725v2.19979h8.03814v-2.19979zM277.99606,174.92982h8.03814v-2.17904h-8.03814z" fill="#ffffff" fill-rule="evenodd" stroke="#ffffff" stroke-width="0.5" stroke-linecap="round"/><path d="M353.5705,187.08384l0.06592,-1.16791l1.02181,0.44593l-0.06592,1.21038c-0.05494,0.70783 -0.20876,1.19623 -0.46146,1.4652c-0.25271,0.26897 -0.67022,0.40346 -1.25254,0.40346h-2.4062c-0.54936,0 -0.93666,-0.14157 -1.1619,-0.4247c-0.22524,-0.28313 -0.33786,-0.814 -0.33786,-1.59261v-3.39757h-3.70819v1.27409h3.03248v1.04051h-3.03248v1.69878l3.08192,-0.63704v1.18915l-4.33446,1.10421l-0.3461,-1.23162c0.20876,-0.12741 0.34335,-0.23712 0.40378,-0.32914c0.06043,-0.09202 0.09064,-0.20881 0.09064,-0.35037v-3.75856h-1.33495c-0.04395,1.34487 -0.16756,2.43846 -0.37082,3.28078c-0.20326,0.84231 -0.53013,1.79434 -0.98061,2.85608l-1.02181,-0.84939c0.37357,-0.82108 0.6455,-1.52183 0.8158,-2.10225c0.1703,-0.58042 0.29116,-1.25285 0.36258,-2.01731c0.07142,-0.76445 0.10713,-1.81911 0.10713,-3.16399v-4.50178h5.57053l-0.3461,-1.16791l0.82404,-0.33976l-0.29666,-0.53087c0.92293,-0.50964 1.73049,-1.21038 2.42269,-2.10225h-1.99418v-1.25285h2.53805v-1.65632h1.10422v1.65632h2.99952v1.25285h-2.57101c0.37357,0.41054 0.8213,0.80338 1.34319,1.17853c0.52189,0.37515 1.05203,0.69013 1.5904,0.94495l-0.36258,1.21038c-0.52739,-0.29729 -1.05752,-0.65828 -1.5904,-1.08298c-0.53288,-0.4247 -1.00259,-0.86355 -1.40911,-1.31656v2.71806h-1.10422v-2.76053c-0.67022,0.86355 -1.42834,1.59969 -2.27436,2.20842c0.0879,0.25482 0.19777,0.60165 0.32962,1.04051h6.1144v1.27409h-4.38391v1.44397h3.59283v3.7798h-3.75763v1.59261c1.29649,-0.35391 2.4941,-0.72906 3.59283,-1.12544l0.21425,1.14668c-1.36242,0.46717 -2.63144,0.84231 -3.80708,1.12544v0.31852c0,0.45301 0.05768,0.75384 0.17305,0.90248c0.11537,0.14864 0.33236,0.22297 0.65099,0.22297h1.59864c0.38455,0 0.64825,-0.07432 0.79108,-0.22297c0.14283,-0.14864 0.23623,-0.44947 0.28017,-0.90248zM370.23264,183.91985l1.17014,0.33976c0,0.4247 -0.02197,1.10421 -0.06592,2.03854l-0.01648,0.70075c-0.03296,0.58042 -0.12086,1.02989 -0.26369,1.34841c-0.14283,0.31852 -0.37357,0.54503 -0.6922,0.67951c-0.31863,0.13449 -0.76911,0.20173 -1.35143,0.20173h-4.18614c-0.54936,0 -0.98061,-0.07432 -1.29375,-0.22297c-0.31314,-0.14864 -0.54112,-0.41054 -0.68396,-0.78569c-0.14283,-0.37515 -0.21425,-0.91664 -0.21425,-1.62446v-7.30477l-1.38439,0.61581l-0.31314,-1.50767l1.69753,-0.74322v-5.245h1.17014v4.73536l2.04363,-0.9131v-5.69093h1.15366v5.20253l3.51042,-1.55014l-0.18129,7.58083c-0.03296,0.58042 -0.09889,1.01927 -0.19777,1.31656c-0.09889,0.29729 -0.26919,0.50964 -0.51091,0.63704c-0.24172,0.12741 -0.59331,0.19111 -1.05477,0.19111h-0.88997l-0.23073,-1.57138h0.59331c0.31863,0 0.55486,-0.03185 0.70868,-0.09556c0.15382,-0.0637 0.26095,-0.1805 0.32138,-0.35037c0.06043,-0.16988 0.09614,-0.43885 0.10713,-0.80692l0.14833,-4.7566l-2.3238,1.01927v8.40898h-1.15366v-7.89935l-2.04363,0.9131v7.17737c0,0.50964 0.02747,0.88478 0.0824,1.12544c0.05494,0.24066 0.16756,0.41054 0.33786,0.50964c0.1703,0.0991 0.43674,0.14864 0.79932,0.14864h3.5269c0.46146,0 0.79932,-0.03539 1.01357,-0.10617c0.21425,-0.07078 0.36533,-0.21235 0.45322,-0.4247c0.0879,-0.21235 0.14283,-0.55211 0.16481,-1.01927zM331.8817,186.72285h4.25206v-12.61348h1.23606v15.60758h-1.23606v-1.33779h-11.05865v-14.26979h1.26903v12.61348h4.25206v-16.01105h1.28551zM380.02227,179.67289h1.21958v1.91113h4.6476v4.31067c0,0.62289 -0.05219,1.10067 -0.15657,1.43335c-0.10438,0.33268 -0.28841,0.5698 -0.55211,0.71137c-0.26369,0.14157 -0.64275,0.21235 -1.13718,0.21235h-1.59864l-0.23073,-1.42273h1.40087c0.41752,0 0.70318,-0.07786 0.857,-0.23358c0.15382,-0.15572 0.23623,-0.44593 0.24721,-0.87063v-2.69682h-3.47746v6.90131h-1.21958v-6.90131h-3.46098v5.3087h-1.15366v-6.75267h4.61464zM383.82935,170.79674h1.15366v2.10225h2.81823v1.44397h-2.81823v2.22965h-1.15366v-2.22965h-2.62046v2.22965h-1.13718v-2.22965h-2.62046v2.22965h-1.15366v-2.22965h-2.80175v-1.44397h2.80175v-2.10225h1.15366v2.10225h2.62046v-2.10225h1.13718v2.10225h2.62046zM359.98155,177.61311v7.34724l1.8953,-0.78569l0.09889,0.78569l0.06592,0.67951l-4.89481,2.05978l-0.31314,-1.42273l1.9777,-0.82816v-7.83564h-1.73049v-1.55014h1.73049v-5.09635h1.17014v5.09635h1.40087v1.55014zM375.14394,178.97214v2.10225h-1.17014v-3.52498h13.34949v3.52498h-1.17014v-2.10225zM341.14394,177.10348l-0.62627,-1.12544c1.27452,-0.79277 2.26337,-1.65632 2.96655,-2.59065h-2.57101v-1.25285h2.98303v-1.65632h1.08774v1.65632h2.43917v1.25285h-2.43917v0.04247c0.58232,0.41054 1.25254,0.9131 2.01066,1.50767l0.28017,0.23358l-0.56035,1.06174l-0.29666,-0.25482c-0.65923,-0.59457 -1.13718,-1.00511 -1.43383,-1.23162v2.35706h-1.08774v-2.59065c-0.74713,0.96265 -1.66457,1.82619 -2.7523,2.59065zM345.4784,181.35044h-2.62046v0.99804v0.57334h2.62046zM349.13715,181.35044h-2.55453v1.57138h2.55453zM342.85795,180.24623h2.62046v-1.44397h-2.62046zM350.24137,182.92182h2.50509v-1.57138h-2.50509zM346.58262,178.80226v1.44397h2.55453v-1.44397z" fill="#ffffff" fill-rule="evenodd" stroke="#ffffff" stroke-width="0.5" stroke-linecap="round"/></g></g></svg>