<svg version="1.1" xmlns="http://www.w3.org/2000/svg" xmlns:xlink="http://www.w3.org/1999/xlink" width="208.95943" height="32" viewBox="0,0,208.95943,32"><g transform="translate(-239.04057,-164)"><g stroke-miterlimit="10"><path d="M240,196v-32h208v32z" fill="none" fill-rule="nonzero" stroke="none" stroke-width="0" stroke-linecap="butt"/><path d="M277.19814,175.6254h-6.58829c0.77992,2.05716 1.76167,3.90784 2.94523,5.55207c1.18357,1.64422 2.64421,3.26217 4.38193,4.85384l-1.10831,1.6217c-1.61458,-1.5316 -3.0547,-3.24715 -4.32036,-5.14664c-1.26566,-1.89949 -2.27477,-3.91535 -3.02733,-6.04759v8.71663h4.12538v1.68927h-4.12538v3.96415h-1.60089v-3.96415h-4.08433v-1.68927h4.08433v-8.91935c-0.75256,2.13223 -1.71036,4.10305 -2.8734,5.91245c-1.16304,1.8094 -2.66815,3.69762 -4.51534,5.66469l-1.06726,-1.55413c1.77877,-1.75684 3.24625,-3.46488 4.40246,-5.12412c1.1562,-1.65924 2.12426,-3.50242 2.90418,-5.52954h-6.54724v-1.73432h7.6966v-3.69387h1.60089v3.69387h7.71712zM298.29708,184.36456h-10.20056c-1.0399,1.26132 -2.3124,2.56769 -3.81751,3.91911l9.2154,-0.3829l-2.25767,-2.34245l1.00569,-1.10366c0.58836,0.58561 1.15278,1.15621 1.69325,1.71179c0.54047,0.55558 1.01595,1.04359 1.42644,1.46403c1.47775,1.5316 2.08663,2.15476 1.82666,1.86946l-1.06726,1.28385c-0.23261,-0.27028 -0.65678,-0.74328 -1.2725,-1.41899l-12.684,0.60814l-0.38996,-1.59918c1.61458,-1.26132 3.03075,-2.59772 4.24852,-4.0092h-5.89046v-1.5316h2.7092v-11.71227h12.684v11.71227h2.77078zM335.48706,182.47258l0.90307,-1.12618c0.53363,0.51053 1.13568,1.10366 1.80614,1.77936c0.67046,0.67571 1.21777,1.24631 1.64194,1.71179l-1.02621,1.39646c-1.19041,-1.3364 -2.29872,-2.50012 -3.32493,-3.49116l-0.04105,0.49552l-0.24629,4.05425c-0.05473,0.73577 -0.19498,1.31012 -0.42075,1.72306c-0.22577,0.41293 -0.561,0.70199 -1.00569,0.86716c-0.44469,0.16517 -1.05016,0.24776 -1.8164,0.24776h-2.7092l-0.24629,-1.6217h2.48344c0.58836,0 1.02279,-0.04505 1.30329,-0.13514c0.2805,-0.09009 0.48574,-0.26653 0.61573,-0.5293c0.12999,-0.26277 0.22235,-0.67195 0.27708,-1.22754c0.0821,-0.97602 0.16761,-2.16227 0.25655,-3.55873c0.08894,-1.39646 0.15393,-2.54517 0.19498,-3.44611h-4.74111c-0.09578,2.01211 -0.35575,3.66759 -0.77992,4.96645c-0.42417,1.29886 -1.08437,2.44006 -1.98059,3.42359c-0.89623,0.98353 -2.15847,1.99334 -3.78673,3.02942l-1.04674,-1.37394c1.5188,-0.91596 2.68868,-1.81315 3.50965,-2.69157c0.82097,-0.87842 1.42302,-1.88447 1.80614,-3.01816c0.38312,-1.13369 0.62941,-2.57895 0.73887,-4.33579h-5.7468v-1.59918h5.80837l0.04105,-2.02712h1.53932l-0.02052,0.67571c0,0.27028 -0.01368,0.72076 -0.04105,1.35142h6.30095c-0.02737,0.78082 -0.10946,2.26738 -0.24629,4.45967zM307.08147,171.39097v1.6217l-1.47775,5.36062c0.561,0.96101 0.9749,1.86195 1.24172,2.70283c0.26682,0.84088 0.40022,1.68176 0.40022,2.52264c0,0.8559 -0.08552,1.51659 -0.25655,1.98208c-0.17104,0.46549 -0.45153,0.79583 -0.84149,0.99104c-0.38996,0.1952 -0.92701,0.29281 -1.61116,0.29281h-0.88254l-0.26682,-1.59918h0.88254c0.45153,0 0.78676,-0.05631 1.00569,-0.16893c0.21893,-0.11262 0.37286,-0.30407 0.4618,-0.57435c0.08894,-0.27028 0.13341,-0.67571 0.13341,-1.21627c0,-1.26132 -0.57468,-2.80794 -1.72404,-4.63986l1.5188,-5.65342h-2.56553v17.6585h-1.45722v-19.2802zM308.00506,171.77387h10.75472v1.6217h-1.41617v13.98716c0,0.81085 -0.0821,1.4265 -0.24629,1.84694c-0.16419,0.42044 -0.44811,0.717 -0.85176,0.88968c-0.40364,0.17268 -1.00227,0.25902 -1.79587,0.25902h-2.56553l-0.28734,-1.77936h2.50396c0.51995,0 0.90307,-0.04129 1.14936,-0.12388c0.24629,-0.08259 0.41733,-0.24776 0.51311,-0.49552c0.09578,-0.24776 0.14367,-0.63441 0.14367,-1.15997v-13.42407h-7.90184zM327.68783,174.02623v1.86946h-1.58037v-1.86946h-4.88478v-1.6217h4.88478v-2.31993h1.58037v2.31993h5.23369v-2.31993h1.55984v2.31993h4.84373v1.6217h-4.84373v1.93703h-1.55984v-1.93703zM254.4162,185.42317h-3.03759c-0.69783,0 -1.19383,-0.16142 -1.48801,-0.48426c-0.29418,-0.32284 -0.44127,-0.88217 -0.44127,-1.67801v-5.02276h1.41617v2.52264c0.88939,-0.34536 1.78903,-0.72826 2.69894,-1.1487c0.90991,-0.42044 1.64536,-0.80334 2.20636,-1.1487l0.5952,1.35142c-0.64309,0.34536 -1.49143,0.74703 -2.54501,1.20501c-1.05358,0.45798 -2.03874,0.85965 -2.95549,1.20501v0.49552c0,0.51053 0.09236,0.85214 0.27708,1.02482c0.18472,0.17268 0.51653,0.25902 0.99543,0.25902h1.78561c0.561,0 0.94412,-0.08259 1.14936,-0.24776c0.20524,-0.16517 0.33523,-0.51053 0.38996,-1.03609c0.02737,-0.2853 0.04789,-0.59688 0.06157,-0.93473c0.01368,-0.33785 0.02052,-0.6194 0.02052,-0.84464l1.37513,0.40542l-0.16419,2.11722c-0.06841,0.73577 -0.27366,1.24631 -0.61573,1.5316c-0.34207,0.2853 -0.91675,0.42795 -1.72404,0.42795zM254.3341,177.60748h-3.05812c-0.64309,0 -1.10831,-0.16142 -1.39565,-0.48426c-0.28734,-0.32284 -0.43101,-0.83713 -0.43101,-1.54287v-5.33809h1.41617v2.74788c0.88939,-0.33035 1.79245,-0.69072 2.7092,-1.08113c0.91675,-0.39041 1.60773,-0.70574 2.07295,-0.94599l0.63625,1.30637c-0.62941,0.30032 -1.49485,0.67571 -2.59632,1.12618c-1.10147,0.45047 -2.04216,0.81085 -2.82209,1.08113v0.56309c0,0.45047 0.08552,0.75829 0.25655,0.92347c0.17104,0.16517 0.47548,0.24776 0.91333,0.24776h1.82666c0.54731,0 0.92701,-0.07883 1.1391,-0.2365c0.21208,-0.15767 0.33865,-0.47675 0.3797,-0.95725c0.05473,-0.96101 0.0821,-1.5316 0.0821,-1.71179l1.33408,0.42795l-0.14367,2.0046c-0.06841,0.69072 -0.27708,1.17498 -0.62599,1.45277c-0.34891,0.27779 -0.91333,0.41669 -1.69325,0.41669zM241.79377,185.67093h-1.37513v-9.30225h7.26559v7.29765c0,0.72076 -0.14025,1.21627 -0.42075,1.48656c-0.2805,0.27028 -0.78334,0.40542 -1.50853,0.40542h-1.58037l-0.24629,-1.28385h1.55984c0.27366,0 0.46522,-0.02628 0.57468,-0.07883c0.10946,-0.05256 0.1813,-0.1389 0.2155,-0.25902c0.03421,-0.12013 0.05131,-0.31533 0.05131,-0.58561v-0.65318h-4.53586zM244.89294,172.22434l0.86202,-0.90094c0.53363,0.58561 1.30671,1.47905 2.31924,2.68031c0.25997,0.2853 0.54047,0.60814 0.84149,0.96851l-0.98516,1.01356l-0.84149,-1.05861l-7.1014,0.42795l-0.30786,-1.35142c0.75256,-0.5706 1.49827,-1.24631 2.23715,-2.02712c0.73887,-0.78082 1.29303,-1.48656 1.66247,-2.11722l1.25198,0.7658c-0.46522,0.61565 -0.99201,1.24255 -1.58037,1.88072c-0.58836,0.63817 -1.10147,1.13744 -1.53932,1.49782l4.41272,-0.27028zM308.4566,185.01774v-8.69411h5.35683v8.69411zM294.04856,182.83296v-2.4776h-9.70798v2.4776zM284.34058,176.50382v2.3875h9.70798v-2.3875zM284.34058,175.08484h9.70798v-2.36498h-9.70798zM309.79067,177.90029v5.56333h2.66815v-5.56333zM324.46552,180.60312l1.2725,0.96851c-0.45153,0.8559 -0.97832,1.74558 -1.58037,2.66905c-0.60205,0.92347 -1.1562,1.68552 -1.66247,2.28615l-1.12883,-1.2388c0.49258,-0.55558 1.02279,-1.27258 1.59063,-2.151c0.56784,-0.87842 1.07068,-1.72306 1.50853,-2.53391zM240.84966,191.00902l-1.45722,-0.81085c0.84834,-1.35142 1.49143,-2.71785 1.92928,-4.0993l1.3546,0.63066c-0.38312,1.36643 -0.99201,2.79293 -1.82666,4.27948zM241.79377,178.98142h4.53586v-1.37394h-4.53586zM246.32964,180.17517h-4.53586v1.35142h4.53586zM253.51313,186.77459l1.29303,-0.7658c0.94412,1.54662 1.65562,2.83047 2.13452,3.85154l-1.45722,0.83337c-0.68414,-1.59167 -1.34092,-2.89804 -1.97033,-3.91911zM244.58507,186.79711l1.4367,-0.33785l0.26682,0.96851c0.38312,1.45653 0.61573,2.40252 0.69783,2.83797l-1.53932,0.36038c-0.0821,-0.58561 -0.30102,-1.58416 -0.65678,-2.99564zM249.16199,186.81963l1.3546,-0.49552c0.24629,0.60063 0.50626,1.25006 0.77992,1.94829c0.27366,0.69823 0.4789,1.28009 0.61573,1.74558l-1.49827,0.49552c-0.12315,-0.51053 -0.28392,-1.0511 -0.48232,-1.6217c-0.1984,-0.5706 -0.45495,-1.26132 -0.76966,-2.07217z" fill="#ffffff" fill-rule="evenodd" stroke="#ffffff" stroke-width="0.5" stroke-linecap="round"/></g></g></svg>