<svg version="1.1" xmlns="http://www.w3.org/2000/svg" xmlns:xlink="http://www.w3.org/1999/xlink" width="208" height="32" viewBox="0,0,208,32"><g transform="translate(-240,-164)"><g stroke-miterlimit="10"><path d="M305.46672,172.91277v1.4233h-6.54587v2.00466h5.55906v10.22375c0,0.61476 -0.05756,1.08585 -0.17269,1.41328c-0.11513,0.32743 -0.30152,0.55462 -0.55919,0.68158c-0.25767,0.12696 -0.62772,0.19044 -1.11016,0.19044h-2.02297l-0.23026,-1.40326h1.79271c0.31797,0 0.54823,-0.03007 0.69077,-0.09021c0.14254,-0.06014 0.23848,-0.17373 0.28782,-0.34079c0.04934,-0.16706 0.07401,-0.431 0.07401,-0.79184v-8.49975h-9.96682v11.1459h-1.20063v-12.52911h5.59195v-2.00466h-6.61166v-1.4233h6.61166v-2.18508h1.26641v2.18508zM255.17207,179.66846v1.48345h-5.11498v5.2923c0,0.88205 -0.16995,1.50015 -0.50985,1.8543c-0.3399,0.35415 -0.8991,0.53124 -1.67759,0.53124h-1.77627l-0.21381,-1.58368h1.67758c0.3399,0 0.59209,-0.03007 0.75656,-0.09021c0.16447,-0.06014 0.27686,-0.17373 0.33716,-0.34079c0.0603,-0.16706 0.09046,-0.42432 0.09046,-0.77179v-4.89136h-5.55906v-1.50349c0.59209,-1.08252 1.32671,-2.64615 2.20388,-4.6909h-3.40451v-1.50349h4.04594c0.43858,-1.08252 0.80042,-2.04475 1.0855,-2.88671l1.24996,0.60139c-0.17543,0.57467 -0.45503,1.33644 -0.83879,2.28531h8.33858v1.50349h-8.96357c-0.94296,2.23185 -1.66662,3.80216 -2.17099,4.71094h4.01305v-3.50815h1.31575v3.50815zM338.52501,180.30995v1.36317h-1.69403l-0.09868,3.10722h1.48022v1.38321h-1.51311l-0.01645,0.36084c-0.03289,0.61476 -0.12335,1.08919 -0.27137,1.4233c-0.14802,0.33411 -0.37828,0.57133 -0.69077,0.71165c-0.31249,0.14032 -0.74834,0.21049 -1.30753,0.21049h-2.45059l-0.24671,-1.40326h2.30257c0.54823,0 0.92926,-0.09021 1.14307,-0.27063c0.21381,-0.18042 0.33167,-0.51119 0.3536,-0.99231v-0.0401h-7.38466l0.41117,-4.49043h-1.28286v-1.36317h1.39799l0.36183,-3.98926c-0.32894,0.50785 -0.58112,0.88205 -0.75655,1.12261l-0.8388,-1.08252c0.60305,-0.81522 1.17595,-1.74406 1.71871,-2.78647c0.54275,-1.04242 0.98407,-2.05143 1.32398,-3.02704l1.10195,0.46107c-0.1864,0.52121 -0.40021,1.06247 -0.64143,1.62377h7.20375v1.36317h-7.82873c-0.35087,0.70831 -0.66884,1.29634 -0.95392,1.76409h7.64781l-0.13157,4.55057zM272.73737,180.30995v1.36317h-1.69403l-0.09868,3.10722h1.48022v1.38321h-1.51311l-0.01645,0.36084c-0.03289,0.61476 -0.12335,1.08919 -0.27137,1.4233c-0.14802,0.33411 -0.37828,0.57133 -0.69077,0.71165c-0.31249,0.14032 -0.74833,0.21049 -1.30753,0.21049h-2.45059l-0.2467,-1.40326h2.30257c0.54823,0 0.92925,-0.09021 1.14306,-0.27063c0.21381,-0.18042 0.33167,-0.51119 0.3536,-0.99231v-0.0401h-7.38466l0.41117,-4.49043h-1.28285v-1.36317h1.39798l0.36183,-3.98926c-0.32894,0.50785 -0.58112,0.88205 -0.75656,1.12261l-0.8388,-1.08252c0.60305,-0.81522 1.17595,-1.74406 1.71871,-2.78647c0.54275,-1.04242 0.98407,-2.05143 1.32398,-3.02704l1.10195,0.46107c-0.1864,0.52121 -0.40021,1.06247 -0.64143,1.62377h7.20375v1.36317h-7.82873c-0.35087,0.70831 -0.66884,1.29634 -0.95392,1.76409h7.64781l-0.13157,4.55057zM354.00156,183.73792l0.98681,0.38089c-0.06579,0.7484 -0.15898,1.56364 -0.27959,2.44568c-0.12061,0.93551 -0.29879,1.57366 -0.53453,1.91445c-0.23574,0.34079 -0.54549,0.51119 -0.92925,0.51119c-0.70173,0 -1.26641,-0.66154 -1.69403,-1.98461c-0.13157,-0.4143 -0.24123,-0.81522 -0.32894,-1.20279c-0.72366,1.1627 -1.57342,2.25189 -2.54927,3.26759l-0.82234,-1.18275c1.28286,-1.33644 2.28612,-2.61942 3.00978,-3.84894c-0.38376,-2.39222 -0.62498,-5.28561 -0.72366,-8.68016h-5.08209v-1.38322h5.0492c-0.03289,-1.2028 -0.04934,-2.23853 -0.04934,-3.10721l1.13483,-0.02005c0.01096,0.29402 0.02741,1.33644 0.04934,3.12726h1.49667c-0.19736,-0.82859 -0.41665,-1.61041 -0.65787,-2.34545l0.95392,-0.40093c0.30701,1.02906 0.57016,1.94451 0.78945,2.74638h1.0855v1.38322h-3.65121c0.04386,2.67288 0.19736,5.025 0.46051,7.05639c0.61402,-1.34981 1.20611,-3.16067 1.77627,-5.43262l1.01971,0.42098c-0.62498,2.67288 -1.45281,4.99828 -2.48348,6.9762c0.10965,0.60139 0.26315,1.20948 0.46051,1.82424c0.14254,0.4143 0.27137,0.69495 0.3865,0.84196c0.11513,0.14701 0.23848,0.22052 0.37006,0.22052c0.14254,0 0.25219,-0.11026 0.32894,-0.33077c0.07675,-0.22051 0.1535,-0.63147 0.23025,-1.23287zM279.74376,175.9799h2.79597c0.23025,-0.88205 0.36731,-1.42331 0.41117,-1.62377h-4.34198v-1.26293h3.05912c-0.20833,-0.33411 -0.44133,-0.70497 -0.699,-1.11258c-0.25767,-0.40761 -0.43584,-0.67824 -0.53452,-0.81189l0.93748,-0.80186l0.59209,0.94219c0.02193,0.02673 0.28508,0.43434 0.78945,1.22284l-0.65787,0.5613h2.33546c0.24122,-0.38756 0.51259,-0.83861 0.81412,-1.35314c0.30153,-0.51453 0.55645,-0.96558 0.76478,-1.35315l1.0855,0.68159c-0.3399,0.57467 -0.76205,1.24956 -1.26641,2.0247h3.20715v1.26293h-4.78605c-0.02193,0.09355 -0.04386,0.18376 -0.06579,0.27063c-0.02193,0.08687 -0.04386,0.1704 -0.06579,0.25058c-0.07675,0.32074 -0.16995,0.68827 -0.2796,1.10256h3.86503v9.3818h-7.96031zM321.73272,173.57431l-1.36509,5.11187c0.58112,0.92214 0.98682,1.74071 1.21708,2.4557c0.23025,0.71499 0.34538,1.47342 0.34538,2.27528c0,1.13597 -0.19736,1.94451 -0.59209,2.42563c-0.39472,0.48112 -1.05809,0.72168 -1.99007,0.72168h-0.93748l-0.24671,-1.42331h0.85524c0.64691,0 1.0992,-0.14366 1.35687,-0.431c0.25767,-0.28734 0.3865,-0.79852 0.3865,-1.53356c0,-0.64149 -0.12883,-1.29634 -0.3865,-1.96456c-0.25767,-0.66822 -0.6661,-1.40994 -1.2253,-2.22517l1.3322,-5.43262h-2.76308v15.65637h-1.16773v-17.13982h5.18077zM302.57207,183.73792v1.2028h-3.66766v3.54825h-1.23352v-3.54825h-3.76634v-1.2028h3.76634v-1.84428h-3.40451v-1.2028h2.23678c-0.51533,-0.84196 -0.95392,-1.51685 -1.31575,-2.0247l0.93747,-0.64149c-0.03289,-0.05346 0.19188,0.28734 0.67433,1.02238l0.77301,1.18274l-0.69077,0.46107h1.8585c0.54823,-0.86868 1.04712,-1.7641 1.49667,-2.68624l1.0526,0.62144c-0.21929,0.44102 -0.62498,1.12929 -1.21707,2.0648h2.1381v1.2028h-3.30583v1.84428zM281.81606,187.16588h7.31887l-0.21381,1.4233h-7.26954c-0.77848,0 -1.41717,-0.06348 -1.91607,-0.19044c-0.49889,-0.12696 -0.95666,-0.36084 -1.37331,-0.70163c-0.41665,-0.34079 -0.8388,-0.84529 -1.26641,-1.51351l-1.95718,2.72633l-0.59209,-1.56363l1.89139,-2.60606v-5.59299h-1.74337v-1.52354h2.944v7.07644c0.37279,0.68159 0.74833,1.19611 1.12662,1.54358c0.37828,0.34748 0.80041,0.58804 1.26641,0.72168c0.466,0.13365 1.06083,0.20046 1.78449,0.20046zM344.92286,183.45727l0.18091,1.50349c-0.60305,0.20047 -1.44185,0.49114 -2.51638,0.87203c-1.07453,0.38089 -1.7653,0.64482 -2.07231,0.79183l-0.26315,-1.52353l1.95718,-0.66154v-7.07644h-1.66114v-1.44335h1.66114v-4.87132h1.15128v4.87132h1.48022v1.44335h-1.48022v6.67551zM315.26908,174.5165h-1.23352c-0.13157,1.24289 -0.30152,2.41227 -0.50985,3.50815h2.22033v1.44335h-8.2399v-1.44335h2.1052c-0.20833,-1.52354 -0.40021,-2.69293 -0.57564,-3.50815h-1.11839v-1.42331h3.20715c-0.14254,-0.70831 -0.30701,-1.36317 -0.49341,-1.96456l1.21707,-0.36084c0.21929,0.80186 0.40569,1.577 0.5592,2.3254h2.86176zM309.61134,187.50667v1.34312h-1.15128v-7.55756h6.28272v6.21444zM263.60934,184.78034h6.16759l0.03289,-0.74173c0.04386,-0.90878 0.07127,-1.69727 0.08224,-2.36549h-5.98668zM329.39698,184.78034h6.16759l0.03289,-0.74173c0.04386,-0.90878 0.07127,-1.69727 0.08223,-2.36549h-5.98667zM270.05653,177.12255h-5.72352l-0.29605,3.1874h5.90444c0.07675,-1.83092 0.11513,-2.89338 0.11513,-3.1874zM335.84417,177.12255h-5.72352l-0.29604,3.1874h5.90444c0.07675,-1.83092 0.11513,-2.89338 0.11513,-3.1874zM349.16616,183.09643h-3.74989v-5.65313h3.74989zM259.59629,189.05026l-1.18418,-0.44102l1.59535,-6.89603l1.11839,0.42098c-0.08772,0.3742 -0.5592,2.49246 -1.41444,6.35477zM325.38393,189.05026l-1.18418,-0.44102l1.59535,-6.89603l1.11839,0.42098c-0.08772,0.3742 -0.55919,2.49246 -1.41443,6.35477zM245.38616,182.21438l1.00326,1.04243c-0.5263,0.90878 -1.14306,1.84429 -1.85028,2.80652c-0.70721,0.96223 -1.39525,1.77746 -2.06409,2.44568l-0.85523,-1.30302c0.64691,-0.58803 1.30752,-1.33644 1.98185,-2.24522c0.67433,-0.90878 1.26915,-1.82424 1.78449,-2.74638zM251.2906,183.37708l0.88813,-1.12261c0.51533,0.57467 1.17322,1.34646 1.97363,2.31538c0.80041,0.96892 1.50215,1.82758 2.1052,2.57599l-0.92103,1.20279c-0.54823,-0.7484 -1.22256,-1.61709 -2.02297,-2.60605c-0.80041,-0.98897 -1.47474,-1.77746 -2.02297,-2.36549zM309.61134,186.14351h3.98015v-3.42797h-3.98015zM280.96083,177.16264v1.56363h5.50972v-1.56363zM286.47054,181.41252v-1.56364h-5.50972v1.56364zM286.47054,182.53512h-5.50972v1.56364h5.50972zM349.29774,184.39946l0.18092,1.44335c-0.61402,0.17373 -1.52134,0.43769 -2.72197,0.79184c-1.20063,0.35415 -1.93252,0.57801 -2.19567,0.67156l-0.26315,-1.4634c0.64691,-0.17373 1.57343,-0.431 2.77953,-0.77179c1.2061,-0.34079 1.94621,-0.56465 2.22033,-0.67156zM312.91717,174.5165h-2.71374c0.28508,1.65718 0.47696,2.82656 0.57564,3.50815h1.62825c0.19736,-1.04242 0.36731,-2.2118 0.50985,-3.50815zM278.13196,174.89738l-1.0526,0.9021c-0.89909,-1.71064 -1.6118,-2.96689 -2.1381,-3.76875l1.03616,-0.86201c0.30701,0.48112 0.67707,1.09922 1.11017,1.85431c0.4331,0.75509 0.78123,1.37987 1.04438,1.87436zM261.55348,178.54586l-0.70722,1.26293c-1.33768,-1.41663 -2.22582,-2.3254 -2.6644,-2.72633l0.70722,-1.1627zM327.34111,178.54586l-0.70722,1.26293c-1.33768,-1.41663 -2.22582,-2.3254 -2.6644,-2.72633l0.70722,-1.1627zM262.01399,173.75473l-0.67432,1.18274c-0.80041,-0.80186 -1.68307,-1.6505 -2.64796,-2.54591l0.70722,-1.14266c0.61402,0.56131 1.4857,1.39658 2.61506,2.50583zM327.80163,173.75473l-0.67433,1.18274c-0.80041,-0.80186 -1.68306,-1.6505 -2.64795,-2.54591l0.70721,-1.14266c0.61402,0.56131 1.48571,1.39658 2.61506,2.50583zM346.40308,178.74632v3.04708h1.75982v-3.04708zM334.01856,183.69783l-0.69077,1.04242c-0.24122,-0.26729 -0.5729,-0.6014 -0.99504,-1.00233c-0.42214,-0.40093 -0.79767,-0.7484 -1.12661,-1.04242l0.62498,-1.00233c0.75656,0.66822 1.4857,1.33644 2.18743,2.00466zM268.23092,183.69783l-0.69077,1.04242c-0.24122,-0.26729 -0.5729,-0.6014 -0.99504,-1.00233c-0.42214,-0.40093 -0.79768,-0.7484 -1.12662,-1.04242l0.62498,-1.00233c0.75656,0.66822 1.48571,1.33644 2.18744,2.00466zM265.71454,178.18502l0.62498,-1.02237c0.96488,0.85532 1.66662,1.51018 2.10521,1.96456l-0.65788,1.08252c-0.59209,-0.61476 -1.28286,-1.28967 -2.07231,-2.02471zM331.50218,178.18502l0.62498,-1.02237c0.96488,0.85532 1.66662,1.51018 2.1052,1.96456l-0.65787,1.08252c-0.59209,-0.61476 -1.28286,-1.28967 -2.07231,-2.02471z" fill="#ffffff" fill-rule="evenodd" stroke="#ffffff" stroke-width="0.5" stroke-linecap="round"/><path d="M240,196v-32h208v32z" fill="none" fill-rule="nonzero" stroke="none" stroke-width="0" stroke-linecap="butt"/></g></g></svg>