<svg version="1.1" xmlns="http://www.w3.org/2000/svg" xmlns:xlink="http://www.w3.org/1999/xlink" width="168.1" height="32.878" viewBox="0,0,168.1,32.878"><g transform="translate(-240,-180)"><g stroke="none" stroke-miterlimit="10"><path d="M248,180h152.1c4.432,0 8,3.568 8,8v16.878c0,4.432 -3.568,8 -8,8h-152.1c-4.432,0 -8,-3.568 -8,-8v-16.878c0,-4.432 3.568,-8 8,-8z" fill-opacity="0.7" fill="#000000" fill-rule="evenodd" stroke-width="0"/><path d="M249.59191,191.73342h7.03686v0.88067h-7.03686v-0.88067M251.09921,190.09064h3.9884v0.83833h-3.9884v-0.83833M253.97831,193.13064l0.77058,-0.39799c0.25404,0.22017 0.50412,0.4584 0.75026,0.71469c0.24501,0.25743 0.46912,0.51429 0.67235,0.77058c0.20323,0.25743 0.36977,0.4934 0.49961,0.70792l-0.82139,0.49114c-0.11291,-0.21452 -0.27097,-0.45614 -0.4742,-0.72486c-0.20323,-0.26759 -0.42622,-0.53856 -0.66897,-0.81292c-0.24275,-0.27323 -0.4855,-0.52275 -0.72824,-0.74857M253.07224,187.49098l0.82986,0.38106c-0.4855,0.67179 -1.08503,1.27866 -1.79859,1.82061c-0.71469,0.54195 -1.49544,1.00204 -2.34223,1.38028c-0.03952,-0.07903 -0.09766,-0.16936 -0.17444,-0.27097c-0.07565,-0.10162 -0.15581,-0.2021 -0.24049,-0.30146c-0.08468,-0.09823 -0.16089,-0.17557 -0.22863,-0.23202c0.54195,-0.21452 1.06414,-0.46743 1.56657,-0.75873c0.50243,-0.29017 0.95801,-0.60913 1.36673,-0.95688c0.40985,-0.34662 0.75026,-0.70058 1.02123,-1.06188M253.25853,187.88051c0.18629,0.19759 0.41775,0.40646 0.69437,0.62663c0.27662,0.22017 0.58542,0.43469 0.92639,0.64356c0.3421,0.20888 0.70115,0.40364 1.07712,0.58429c0.37485,0.18065 0.75139,0.33307 1.12962,0.45727c-0.06774,0.05645 -0.14226,0.13266 -0.22355,0.22863c-0.08242,0.09597 -0.16033,0.19307 -0.23372,0.2913c-0.07339,0.09936 -0.13549,0.19138 -0.18629,0.27606c-0.36694,-0.15242 -0.73389,-0.33194 -1.10083,-0.53856c-0.36694,-0.20549 -0.71865,-0.42848 -1.05511,-0.66897c-0.33533,-0.23936 -0.643,-0.48211 -0.92301,-0.72824c-0.27888,-0.24501 -0.51429,-0.47477 -0.70623,-0.68929l0.60122,-0.48267M250.18467,195.26456c-0.01694,-0.06774 -0.04234,-0.15807 -0.07621,-0.27097c-0.03387,-0.11291 -0.07057,-0.23033 -0.11008,-0.35227c-0.03952,-0.12081 -0.07903,-0.22073 -0.11855,-0.29977c0.10726,-0.02258 0.2117,-0.07057 0.31331,-0.14396c0.10162,-0.07339 0.22017,-0.16936 0.35565,-0.28791c0.06774,-0.05645 0.16823,-0.1496 0.30146,-0.27944c0.1321,-0.12984 0.27888,-0.28509 0.44033,-0.46574c0.16033,-0.18065 0.32348,-0.37711 0.48945,-0.58937c0.1671,-0.21113 0.32404,-0.42678 0.47082,-0.64695l0.84679,0.57582c-0.32178,0.41775 -0.68026,0.82534 -1.07543,1.22277c-0.39517,0.39856 -0.79316,0.74744 -1.19398,1.04664v0.0254c0,0 -0.03218,0.01524 -0.09653,0.04573c-0.06549,0.03161 -0.14057,0.07113 -0.22525,0.11855c-0.08468,0.04855 -0.1592,0.09936 -0.22355,0.15242c-0.06549,0.05419 -0.09823,0.10387 -0.09823,0.14904M250.18467,195.26456l-0.01694,-0.71978l0.60122,-0.33025l4.8606,-0.30485c0.01694,0.12984 0.04234,0.2738 0.07621,0.43187c0.03387,0.15807 0.06492,0.28509 0.09315,0.38106c-0.77341,0.05645 -1.44068,0.10726 -2.00182,0.15242c-0.56227,0.04516 -1.03817,0.08299 -1.4277,0.11347c-0.38953,0.03161 -0.71131,0.05871 -0.96535,0.08129c-0.25404,0.02258 -0.45727,0.04347 -0.60969,0.06266c-0.15242,0.02032 -0.2738,0.04008 -0.36412,0.05928c-0.09033,0.02032 -0.17218,0.0446 -0.24557,0.07282zM264.58018,187.55873l0.4742,0.6605c-0.30485,0.0621 -0.64187,0.11686 -1.01107,0.16428c-0.37033,0.04855 -0.75591,0.09089 -1.15672,0.12702c-0.40082,0.03726 -0.80163,0.06718 -1.20245,0.08976c-0.40082,0.02258 -0.79034,0.03952 -1.16858,0.05081c-0.01129,-0.09597 -0.03669,-0.20775 -0.07621,-0.33533c-0.03952,-0.12645 -0.07903,-0.23202 -0.11855,-0.3167c0.36694,-0.01694 0.74518,-0.03839 1.1347,-0.06436c0.38953,-0.02484 0.77341,-0.05702 1.15164,-0.09653c0.37824,-0.03952 0.73671,-0.08186 1.07543,-0.12702c0.33872,-0.04516 0.63792,-0.09597 0.8976,-0.15242M260.26999,189.65878h5.08923v0.73671h-5.08923v-0.73671M262.35311,188.10914h0.82139v3.7767h-0.82139v-3.7767M262.36158,192.36005h0.75365v2.47264h-0.75365v-2.47264M260.82888,188.82045l0.71978,-0.22017c0.07339,0.14113 0.15129,0.29638 0.23372,0.46574c0.08129,0.16936 0.1417,0.31331 0.18121,0.43187l-0.75365,0.25404c-0.03387,-0.1242 -0.0875,-0.27549 -0.16089,-0.45388c-0.07339,-0.17726 -0.14678,-0.33646 -0.22017,-0.47759M264.0721,188.44786l0.77905,0.2117c-0.1242,0.24275 -0.24952,0.4838 -0.37598,0.72316c-0.12758,0.24049 -0.24783,0.44541 -0.36073,0.61477l-0.66897,-0.20323c0.07339,-0.1242 0.1496,-0.2642 0.22863,-0.42001c0.07903,-0.15468 0.15412,-0.31388 0.22525,-0.47759c0.07,-0.16371 0.12758,-0.31331 0.17275,-0.4488M261.92971,190.08218l0.70284,0.24557c-0.15807,0.28226 -0.35565,0.55042 -0.59276,0.80445c-0.2371,0.25404 -0.49396,0.4838 -0.77058,0.68929c-0.27662,0.20662 -0.56171,0.37485 -0.85526,0.50469c-0.0621,-0.09597 -0.14678,-0.21057 -0.25404,-0.3438c-0.10726,-0.1321 -0.20605,-0.23767 -0.29638,-0.3167c0.27097,-0.09597 0.53743,-0.22581 0.79937,-0.38953c0.26307,-0.16371 0.50469,-0.34719 0.72486,-0.55042c0.22017,-0.20323 0.40082,-0.41775 0.54195,-0.64356M263.63177,190.08218c0.14113,0.20323 0.31896,0.40195 0.53348,0.59614c0.21452,0.19533 0.44711,0.37202 0.69776,0.53009c0.25178,0.15807 0.50469,0.28791 0.75873,0.38953c-0.09033,0.07339 -0.19025,0.175 -0.29977,0.30485c-0.11065,0.12984 -0.19984,0.24839 -0.26759,0.35565c-0.25968,-0.13549 -0.52106,-0.30372 -0.78413,-0.50469c-0.26194,-0.19984 -0.50864,-0.42114 -0.7401,-0.66389c-0.23146,-0.24275 -0.42622,-0.49114 -0.58429,-0.74518l0.6859,-0.26251M260.66799,192.0298h4.27631v3.33637h-0.84679v-2.6674h-2.62506v2.70974h-0.80445v-3.37871M261.2184,193.24072h3.1162v0.6351h-3.1162v-0.6351M261.2184,194.42623h3.10774v0.65203h-3.10774v-0.65203M257.50098,191.91972c0.32743,-0.09033 0.7226,-0.21339 1.18551,-0.3692c0.46291,-0.15468 0.92865,-0.31388 1.39721,-0.47759l0.14396,0.81292c-0.43469,0.16371 -0.87502,0.3246 -1.321,0.48267c-0.44598,0.15807 -0.85808,0.30202 -1.23632,0.43187l-0.16936,-0.88067M257.63646,189.1507h2.58272v0.83833h-2.58272v-0.83833M258.5764,187.52486h0.83833v6.91831c0,0.21452 -0.02371,0.38501 -0.07113,0.51146c-0.04855,0.12758 -0.13492,0.22807 -0.25912,0.30146c-0.11855,0.07339 -0.26985,0.12137 -0.45388,0.14396c-0.18291,0.02258 -0.41267,0.03105 -0.68929,0.0254c-0.00565,-0.10726 -0.03218,-0.24444 -0.0796,-0.41154c-0.04855,-0.16597 -0.10105,-0.30823 -0.1575,-0.42678c0.16371,0.00565 0.31331,0.00847 0.4488,0.00847c0.13549,0 0.22863,-0.00282 0.27944,-0.00847c0.05081,0 0.0875,-0.00847 0.11008,-0.0254c0.02258,-0.01694 0.03387,-0.05645 0.03387,-0.11855zM269.93192,190.75114h3.10774v0.82139h-3.10774v-0.82139M271.03275,191.23382c0.175,0.49679 0.40251,0.96817 0.68252,1.41415c0.27888,0.44598 0.61195,0.83946 0.99922,1.18043c0.38614,0.3421 0.81631,0.61195 1.29051,0.80954c-0.06774,0.05645 -0.14113,0.13097 -0.22017,0.22355c-0.07903,0.09371 -0.15355,0.18855 -0.22355,0.28452c-0.07113,0.09597 -0.12928,0.18347 -0.17444,0.26251c-0.50808,-0.24275 -0.96083,-0.56171 -1.35826,-0.95688c-0.39856,-0.39517 -0.74574,-0.84849 -1.04156,-1.35995c-0.29694,-0.51034 -0.54421,-1.0647 -0.74179,-1.6631l0.78752,-0.19476M272.81102,190.75114h0.16936l0.16936,-0.0254l0.57582,0.17783c-0.11291,0.68308 -0.30033,1.31366 -0.56227,1.89174c-0.26307,0.57921 -0.59897,1.09293 -1.00769,1.54117c-0.40985,0.44937 -0.89986,0.82083 -1.47004,1.11438c-0.06774,-0.10726 -0.16089,-0.22751 -0.27944,-0.36073c-0.11855,-0.1321 -0.23146,-0.24049 -0.33872,-0.32517c0.39517,-0.18629 0.748,-0.41098 1.05849,-0.67405c0.31049,-0.26194 0.58034,-0.55832 0.80954,-0.88913c0.22807,-0.32969 0.41549,-0.68647 0.56227,-1.07035c0.14678,-0.38388 0.25122,-0.7847 0.31331,-1.20245v-0.17783M272.58238,187.81277h0.93147c0,0 -0.00113,0.04347 -0.00339,0.13041c-0.00339,0.08807 -0.0079,0.16033 -0.01355,0.21678c-0.01694,0.5984 -0.04911,1.04156 -0.09653,1.32947c-0.04855,0.28791 -0.12363,0.4855 -0.22525,0.59276c-0.09033,0.10162 -0.19589,0.17049 -0.3167,0.20662c-0.12194,0.03726 -0.25912,0.06436 -0.41154,0.08129c-0.14678,0.00565 -0.33985,0.00847 -0.57921,0.00847c-0.24049,0 -0.49622,-0.00565 -0.7672,-0.01694c-0.00565,-0.11291 -0.02936,-0.23992 -0.07113,-0.38106c-0.0429,-0.14113 -0.09541,-0.26251 -0.1575,-0.36412c0.16936,0.01129 0.33194,0.02089 0.48775,0.02879c0.15468,0.00903 0.29299,0.01468 0.41493,0.01694c0.12081,0.00339 0.21226,0.00508 0.27436,0.00508c0.08468,0 0.15242,-0.00452 0.20323,-0.01355c0.05081,-0.0079 0.09597,-0.02879 0.13549,-0.06266c0.03952,-0.04516 0.07057,-0.12871 0.09315,-0.25065c0.02258,-0.12081 0.04234,-0.29581 0.05928,-0.52501c0.01694,-0.22807 0.03105,-0.51993 0.04234,-0.87559v-0.12702M266.00279,191.86891c0.25968,-0.05645 0.55211,-0.1242 0.87728,-0.20323c0.32404,-0.07903 0.66558,-0.16371 1.02462,-0.25404c0.35791,-0.09033 0.71469,-0.18347 1.07035,-0.27944l0.11008,0.88067c-0.49114,0.14113 -0.98793,0.28057 -1.49036,0.41832c-0.50243,0.13887 -0.96252,0.26194 -1.38028,0.3692l-0.2117,-0.93147M266.12134,189.15917h2.88757v0.88067h-2.88757v-0.88067M267.23064,187.51639h0.92301v6.8675c0,0.24275 -0.02936,0.43017 -0.08807,0.56227c-0.05984,0.13323 -0.16315,0.23372 -0.30993,0.30146c-0.14678,0.07339 -0.3342,0.11968 -0.56227,0.13887c-0.2292,0.02032 -0.51316,0.03048 -0.85188,0.03048c-0.01694,-0.11855 -0.05194,-0.26251 -0.105,-0.43187c-0.05419,-0.16936 -0.11234,-0.31331 -0.17444,-0.43187c0.20888,0.00565 0.40815,0.00847 0.59784,0.00847c0.18855,0 0.31388,0 0.37598,0c0.07339,0 0.1242,-0.01298 0.15242,-0.03895c0.02823,-0.02484 0.04234,-0.07395 0.04234,-0.14734v-6.85904M269.28835,187.81277h3.57347v0.84679h-2.67587v6.73202h-0.8976zM279.5261,187.51639h0.85526v5.95297h-0.85526v-5.95297M276.96878,190.94591l4.4372,-1.87988l0.33872,0.77905l-4.4372,1.90529l-0.33872,-0.80445M277.83251,188.32931h0.86373v5.53804c0,0.15807 0.01411,0.27775 0.04234,0.35904c0.02823,0.08242 0.0875,0.13775 0.17783,0.16597c0.09033,0.02823 0.22299,0.04234 0.39799,0.04234c0.05081,0 0.13436,0 0.25065,0c0.11516,0 0.24614,0 0.39291,0c0.14678,0 0.29525,0 0.44541,0c0.14904,0 0.28452,0 0.40646,0c0.12081,0 0.20944,0 0.26589,0c0.15807,0 0.27662,-0.02992 0.35565,-0.08976c0.07903,-0.05871 0.13831,-0.1671 0.17783,-0.32517c0.03952,-0.15807 0.06774,-0.3867 0.08468,-0.6859c0.10162,0.07339 0.23033,0.14113 0.38614,0.20323c0.15468,0.0621 0.29412,0.10444 0.41832,0.12702c-0.03952,0.40082 -0.10444,0.71526 -0.19476,0.94333c-0.09033,0.2292 -0.22581,0.39291 -0.40646,0.49114c-0.18065,0.09936 -0.43187,0.14904 -0.75365,0.14904c-0.05645,0 -0.14791,0 -0.27436,0c-0.12758,0 -0.27323,0 -0.43695,0c-0.16371,0 -0.32573,0 -0.48606,0c-0.16146,0 -0.30541,0 -0.43187,0c-0.12758,0 -0.21678,0 -0.26759,0c-0.3613,0 -0.64639,-0.03952 -0.85526,-0.11855c-0.20888,-0.07903 -0.35396,-0.21904 -0.43525,-0.42001c-0.08242,-0.19984 -0.12363,-0.48324 -0.12363,-0.85018v-5.52957M281.23662,189.16764h-0.06774l0.16936,-0.12702l0.16936,-0.11008l0.62663,0.22863l-0.03387,0.15242c0,0.40082 -0.00113,0.76889 -0.00339,1.10422c-0.00339,0.33646 -0.00621,0.63453 -0.00847,0.89421c-0.00339,0.25968 -0.00903,0.47703 -0.01694,0.65203c-0.00903,0.175 -0.01919,0.30485 -0.03048,0.38953c-0.01694,0.19194 -0.0621,0.33985 -0.13549,0.44372c-0.07339,0.105 -0.17783,0.18009 -0.31331,0.22525c-0.11855,0.05081 -0.25799,0.08016 -0.41832,0.08807c-0.16146,0.00903 -0.3071,0.01355 -0.43695,0.01355c-0.01129,-0.11291 -0.035,-0.24444 -0.07113,-0.39461c-0.03726,-0.14904 -0.07847,-0.27154 -0.12363,-0.36751c0.07903,0.00565 0.16371,0.00847 0.25404,0.00847c0.09033,0 0.15525,0 0.19476,0c0.05645,0 0.10162,-0.01298 0.13549,-0.03895c0.03387,-0.02484 0.05645,-0.07678 0.06774,-0.15581c0.01129,-0.04516 0.01976,-0.14283 0.0254,-0.29299c0.00565,-0.14904 0.01016,-0.34775 0.01355,-0.59614c0.00226,-0.24839 0.00339,-0.54929 0.00339,-0.90268c0,-0.35227 0,-0.75703 0,-1.2143M274.55542,189.50636h2.76902v0.85526h-2.76902v-0.85526M275.57157,187.62647h0.85526v5.58038h-0.85526v-5.58038M274.4538,193.27459c0.23146,-0.08468 0.5013,-0.18799 0.80954,-0.30993c0.3071,-0.12081 0.63171,-0.25347 0.97381,-0.39799c0.34098,-0.14339 0.68365,-0.28565 1.02801,-0.42678l0.20323,0.80445c-0.45162,0.22017 -0.91002,0.43864 -1.37519,0.65542c-0.4663,0.21791 -0.89139,0.41436 -1.27527,0.58937zM283.81935,187.77043h6.24934v0.6605h-6.24934v-0.6605M284.19194,191.18301h6.29168v0.62663h-6.29168v-0.62663M284.96252,192.08061h5.05536v0.55042h-5.05536v-0.55042M284.175,192.91894h6.6304v0.60969h-6.6304v-0.60969M284.3867,189.62491h1.78674v0.4742h-1.78674v-0.4742M284.20041,190.40396h1.9815v0.46574h-1.9815v-0.46574M287.6892,190.40396h2.0069v0.46574h-2.0069v-0.46574M287.6892,189.62491h1.80367v0.4742h-1.80367v-0.4742M286.47828,188.04987h0.8976v2.96378h-0.8976v-2.96378M283.2774,188.76964h7.35018v1.48189h-0.88067v-0.93994h-5.63118v0.93994h-0.83833v-1.48189M283.78548,191.18301h0.84679v1.16858c0,0.2371 -0.01411,0.49227 -0.04234,0.7655c-0.02823,0.27436 -0.08016,0.55267 -0.15581,0.83494c-0.07678,0.28226 -0.18404,0.55437 -0.32178,0.81631c-0.13887,0.26307 -0.31839,0.50187 -0.53856,0.71639c-0.04516,-0.05645 -0.10726,-0.12307 -0.18629,-0.19984c-0.07903,-0.07565 -0.16202,-0.14904 -0.24896,-0.22017c-0.08807,-0.07 -0.16597,-0.12194 -0.23372,-0.15581c0.26533,-0.25404 0.46009,-0.53066 0.58429,-0.82986c0.1242,-0.2992 0.20492,-0.6001 0.24218,-0.90268c0.03613,-0.30146 0.05419,-0.58203 0.05419,-0.84171v-1.15164M287.68073,193.24072c0.16936,0.27662 0.40928,0.50638 0.71978,0.68929c0.31049,0.18404 0.68195,0.32799 1.11438,0.43187c0.4313,0.105 0.91228,0.17444 1.44294,0.20831c-0.07903,0.07903 -0.16089,0.18629 -0.24557,0.32178c-0.08468,0.13549 -0.15242,0.25968 -0.20323,0.37259c-0.58147,-0.0621 -1.09914,-0.16936 -1.55302,-0.32178c-0.45501,-0.15242 -0.84623,-0.35735 -1.17366,-0.61477c-0.32743,-0.2563 -0.5984,-0.57074 -0.81292,-0.94333l0.71131,-0.14396M289.65376,193.46089l0.66897,0.33872c-0.20323,0.13549 -0.41775,0.26081 -0.64356,0.37598c-0.22581,0.11629 -0.43187,0.21678 -0.61816,0.30146l-0.55042,-0.30485c0.1242,-0.06774 0.25573,-0.14283 0.39461,-0.22525c0.13775,-0.08129 0.27323,-0.16597 0.40646,-0.25404c0.1321,-0.08694 0.24614,-0.16428 0.3421,-0.23202M285.03026,195.42545l-0.04234,-0.59276l0.35565,-0.24557l2.33715,-0.33025c-0.02258,0.10162 -0.04234,0.21847 -0.05928,0.35057c-0.01694,0.13323 -0.0254,0.24218 -0.0254,0.32686c-0.51937,0.08468 -0.93825,0.15355 -1.25664,0.20662c-0.31952,0.05419 -0.56679,0.09823 -0.74179,0.1321c-0.175,0.03387 -0.30202,0.0621 -0.38106,0.08468c-0.07903,0.02258 -0.14113,0.04516 -0.18629,0.06774M285.03026,195.42545c-0.02258,-0.06774 -0.05645,-0.14565 -0.10162,-0.23372c-0.04516,-0.08694 -0.09428,-0.17444 -0.14734,-0.26251c-0.05419,-0.08694 -0.10387,-0.15863 -0.14904,-0.21509c0.09597,-0.05081 0.19928,-0.13718 0.30993,-0.25912c0.10952,-0.12081 0.16428,-0.27718 0.16428,-0.46912v-0.81292l0.88067,0.01694v1.38028c0,0 -0.03218,0.01976 -0.09653,0.05928c-0.06549,0.03952 -0.14508,0.09315 -0.2388,0.16089c-0.09258,0.06774 -0.18686,0.13831 -0.28283,0.2117c-0.09597,0.07339 -0.17613,0.14791 -0.24049,0.22355c-0.06549,0.07678 -0.09823,0.14339 -0.09823,0.19984zM292.37197,188.8882h2.59119v5.65659h-2.59119v-0.80445h1.76133v-4.05615h-1.76133v-0.79599M291.83849,188.8882h0.82986v6.30015h-0.82986v-6.30015M292.32963,191.17454h2.2186v0.78752h-2.2186v-0.78752M293.06634,187.50792l0.99075,0.15242c-0.09033,0.27662 -0.18629,0.55437 -0.28791,0.83325c-0.10162,0.28001 -0.19476,0.5188 -0.27944,0.71639l-0.72824,-0.16936c0.03952,-0.14113 0.08073,-0.30202 0.12363,-0.48267c0.04177,-0.18065 0.0796,-0.36299 0.11347,-0.54703c0.03387,-0.18291 0.05645,-0.35057 0.06774,-0.503M296.10634,188.83739h2.51498v0.82986h-2.51498v-0.82986M298.29953,188.83739h0.84679c0,0 0,0.02653 0,0.0796c0,0.05419 0,0.11347 0,0.17783c0,0.06549 -0.00282,0.11799 -0.00847,0.1575c-0.02823,0.9597 -0.05815,1.77262 -0.08976,2.43877c-0.03048,0.66615 -0.06661,1.21374 -0.10839,1.64278c-0.0429,0.42904 -0.09258,0.76324 -0.14904,1.0026c-0.05645,0.24049 -0.12984,0.41719 -0.22017,0.53009c-0.11291,0.15242 -0.22863,0.25686 -0.34719,0.31331c-0.11855,0.05645 -0.26251,0.09879 -0.43187,0.12702c-0.15242,0.01694 -0.34719,0.0254 -0.58429,0.0254c-0.2371,0 -0.47985,-0.00565 -0.72824,-0.01694c-0.00565,-0.1242 -0.035,-0.27097 -0.08807,-0.44033c-0.05419,-0.16936 -0.12645,-0.31614 -0.21678,-0.44033c0.27662,0.02258 0.53066,0.03669 0.76212,0.04234c0.23146,0.00565 0.40082,0.00847 0.50808,0.00847c0.08468,0 0.15355,-0.01016 0.20662,-0.03048c0.05419,-0.01919 0.10952,-0.05702 0.16597,-0.11347c0.06774,-0.07903 0.12702,-0.23315 0.17783,-0.46235c0.05081,-0.22807 0.09315,-0.55098 0.12702,-0.96873c0.03387,-0.41775 0.06661,-0.94841 0.09823,-1.59197c0.03048,-0.64356 0.05702,-1.41132 0.0796,-2.30328v-0.17783M296.17408,187.50792l0.8722,0.20323c-0.10726,0.41775 -0.23541,0.83099 -0.38444,1.23971c-0.15016,0.40985 -0.31557,0.79542 -0.49622,1.15672c-0.18065,0.3613 -0.36694,0.67744 -0.55888,0.94841c-0.05645,-0.05081 -0.12984,-0.11008 -0.22017,-0.17783c-0.09033,-0.06774 -0.18347,-0.13436 -0.27944,-0.19984c-0.09597,-0.06436 -0.17783,-0.11347 -0.24557,-0.14734c0.18629,-0.24275 0.36299,-0.52671 0.53009,-0.85188c0.16597,-0.32404 0.31557,-0.67235 0.4488,-1.04494c0.1321,-0.37259 0.24331,-0.748 0.33364,-1.12624M295.76762,191.20841l0.71131,-0.39799c0.14113,0.19194 0.29356,0.40477 0.45727,0.63848c0.16371,0.23484 0.31727,0.46066 0.46066,0.67744c0.14452,0.21791 0.25912,0.41154 0.3438,0.5809l-0.77058,0.4742c-0.07903,-0.175 -0.18629,-0.37541 -0.32178,-0.60122c-0.13549,-0.22581 -0.28114,-0.45896 -0.43695,-0.69945c-0.15468,-0.23936 -0.30259,-0.46348 -0.44372,-0.67235zM303.23635,191.28462c0.36694,0.88067 0.93994,1.60439 1.71899,2.17118c0.77905,0.56792 1.76415,0.95631 2.95531,1.16519c-0.0621,0.0621 -0.12984,0.14226 -0.20323,0.24049c-0.07339,0.09936 -0.14283,0.19984 -0.20831,0.30146c-0.06436,0.10162 -0.11629,0.19476 -0.15581,0.27944c-0.82421,-0.175 -1.54851,-0.43638 -2.17287,-0.78413c-0.62324,-0.34662 -1.15785,-0.78244 -1.60383,-1.30745c-0.44598,-0.52501 -0.81575,-1.13753 -1.1093,-1.83754l0.77905,-0.22863M306.06464,190.97131h0.17783l0.16936,-0.03387l0.6351,0.28791c-0.19759,0.5984 -0.45727,1.12737 -0.77905,1.58689c-0.32178,0.46066 -0.69437,0.86034 -1.11777,1.19906c-0.4234,0.33872 -0.88744,0.62381 -1.39213,0.85526c-0.50582,0.23146 -1.04099,0.42057 -1.60552,0.56735c-0.05081,-0.11855 -0.1225,-0.25573 -0.21509,-0.41154c-0.09371,-0.15468 -0.18291,-0.28283 -0.26759,-0.38444c0.50808,-0.10726 0.9947,-0.26251 1.45987,-0.46574c0.4663,-0.20323 0.89252,-0.4488 1.27866,-0.73671c0.38727,-0.28791 0.72203,-0.6255 1.0043,-1.01277c0.28226,-0.38614 0.49961,-0.81913 0.65203,-1.29898v-0.15242M302.94844,190.97131h3.25169v0.88067h-3.50573l0.25404,-0.88067M303.41417,187.46558l1.01615,0.16936c-0.11291,0.82986 -0.2642,1.60044 -0.45388,2.31175c-0.18855,0.71131 -0.43412,1.36447 -0.73671,1.95948c-0.30146,0.59614 -0.67518,1.13245 -1.12116,1.60891c-0.44598,0.47759 -0.98228,0.89421 -1.60891,1.24987c-0.03952,-0.06774 -0.09766,-0.14847 -0.17444,-0.24218c-0.07565,-0.09258 -0.1575,-0.18404 -0.24557,-0.27436c-0.08694,-0.09033 -0.16992,-0.16089 -0.24896,-0.2117c0.76212,-0.4234 1.3831,-0.95406 1.86295,-1.59197c0.47985,-0.63792 0.85526,-1.37632 1.12624,-2.21521c0.27097,-0.83776 0.46574,-1.75907 0.58429,-2.76394M305.31946,187.99059l0.71131,-0.4234c0.11291,0.11855 0.23541,0.25122 0.36751,0.39799c0.13323,0.14678 0.25912,0.28791 0.37767,0.4234c0.11855,0.13549 0.21734,0.25404 0.29638,0.35565l-0.73671,0.48267c-0.06774,-0.10726 -0.16089,-0.23315 -0.27944,-0.37767c-0.11855,-0.14339 -0.24275,-0.29017 -0.37259,-0.44033c-0.12984,-0.14904 -0.25122,-0.28847 -0.36412,-0.41832M300.81451,190.39549c-0.01694,-0.06774 -0.04403,-0.15129 -0.08129,-0.25065c-0.03613,-0.09823 -0.07226,-0.20097 -0.10839,-0.30823c-0.03726,-0.10726 -0.07282,-0.19476 -0.1067,-0.26251c0.0621,-0.02258 0.12137,-0.06379 0.17783,-0.12363c0.05645,-0.05871 0.11291,-0.13605 0.16936,-0.23202c0.03387,-0.05645 0.0875,-0.16089 0.16089,-0.31331c0.07339,-0.15242 0.1496,-0.33477 0.22863,-0.54703c0.07903,-0.21113 0.14396,-0.42678 0.19476,-0.64695l0.95688,0.16089c-0.06774,0.24275 -0.15355,0.48832 -0.25743,0.73671c-0.105,0.24839 -0.21283,0.48267 -0.32348,0.70284c-0.10952,0.22017 -0.21509,0.41211 -0.3167,0.57582v0.01694c0,0 -0.03557,0.01524 -0.1067,0.04573c-0.07,0.03161 -0.15186,0.07282 -0.24557,0.12363c-0.09258,0.05081 -0.17275,0.10444 -0.24049,0.16089c-0.06774,0.05645 -0.10162,0.11008 -0.10162,0.16089M300.81451,190.39549v-0.67744l0.55042,-0.37259h6.25781v0.8722h-5.91909c-0.2371,0 -0.43469,0.01524 -0.59276,0.04573c-0.15807,0.03161 -0.25686,0.07565 -0.29638,0.1321zM309.88368,189.08296h5.88522v0.88913h-5.88522v-0.88913M309.52803,191.57253h5.91909v0.88067h-5.91909v-0.88067M308.56268,194.28228h7.62962v0.88913h-7.62962v-0.88913M311.89905,187.51639h0.94841v7.20622h-0.94841v-7.20622M309.95989,187.63494l0.93147,0.20323c-0.11855,0.43469 -0.2642,0.86373 -0.43695,1.28713c-0.17162,0.4234 -0.35904,0.81575 -0.56227,1.17704c-0.20323,0.3613 -0.41775,0.67744 -0.64356,0.94841c-0.05645,-0.05081 -0.13549,-0.11008 -0.2371,-0.17783c-0.10162,-0.06774 -0.20323,-0.13549 -0.30485,-0.20323c-0.10162,-0.06774 -0.19476,-0.12137 -0.27944,-0.16089c0.23146,-0.24275 0.44146,-0.52953 0.63002,-0.86034c0.18968,-0.32969 0.36186,-0.68365 0.51654,-1.06188c0.15581,-0.37824 0.28452,-0.76212 0.38614,-1.15164zM317.61492,188.19382h2.41336v5.65659h-2.41336v-0.81292h1.56657v-4.03074h-1.56657v-0.81292M317.66572,190.59025h1.7698v0.79599h-1.7698v-0.79599M317.18305,188.19382h0.85526v6.34249h-0.85526v-6.34249M320.367,189.11683h4.42027v0.90607h-4.42027v-0.90607M322.95819,187.5672h0.92301v6.61346c0,0.28226 -0.03669,0.49509 -0.11008,0.63848c-0.07339,0.14452 -0.20041,0.25347 -0.38106,0.32686c-0.175,0.07339 -0.41041,0.11968 -0.70623,0.13887c-0.29694,0.02032 -0.65711,0.02766 -1.08051,0.02202c-0.01694,-0.12984 -0.05815,-0.28396 -0.12363,-0.46235c-0.06436,-0.17726 -0.13041,-0.32799 -0.19815,-0.45219c0.20888,0.00565 0.41041,0.0096 0.60461,0.01186c0.19533,0.00339 0.36638,0.00508 0.51316,0.00508c0.14678,0 0.25122,0 0.31331,0c0.09033,-0.00565 0.15355,-0.02428 0.18968,-0.05589c0.03726,-0.03048 0.05589,-0.09089 0.05589,-0.18121v-6.605M320.51095,191.00518l0.75365,-0.39799c0.14113,0.19759 0.29356,0.41324 0.45727,0.64695c0.16371,0.23484 0.31896,0.46348 0.46574,0.6859c0.14678,0.22355 0.26533,0.41719 0.35565,0.5809l-0.80445,0.46574c-0.08468,-0.16936 -0.19646,-0.36864 -0.33533,-0.59784c-0.13775,-0.22807 -0.28565,-0.46348 -0.44372,-0.70623c-0.15807,-0.24275 -0.30767,-0.46856 -0.4488,-0.67744zM325.71027,189.52329h0.93994v5.89369h-0.93994v-5.89369M325.82882,188.02446l0.71131,-0.43187c0.13549,0.11855 0.27097,0.25234 0.40646,0.40138c0.13549,0.15016 0.26251,0.29864 0.38106,0.44541c0.11855,0.14678 0.20888,0.28226 0.27097,0.40646l-0.76212,0.49114c-0.0621,-0.1242 -0.14791,-0.26251 -0.25743,-0.41493c-0.11065,-0.15242 -0.23089,-0.30767 -0.36073,-0.46574c-0.12984,-0.15807 -0.25968,-0.30202 -0.38953,-0.43187M327.96274,187.95672h4.54729v0.84679h-4.54729v-0.84679M332.00195,187.95672h0.93994v6.46104c0,0.22017 -0.02428,0.39065 -0.07282,0.51146c-0.04742,0.12194 -0.13887,0.2196 -0.27436,0.29299c-0.12984,0.06774 -0.29356,0.11008 -0.49114,0.12702c-0.19759,0.01694 -0.42904,0.0254 -0.69437,0.0254c-0.02258,-0.11855 -0.05815,-0.25855 -0.1067,-0.42001c-0.04742,-0.16033 -0.09936,-0.29412 -0.15581,-0.40138c0.14678,0.00565 0.2896,0.00847 0.42848,0.00847c0.13775,0 0.23202,0 0.28283,0c0.05645,0 0.09428,-0.01129 0.11347,-0.03387c0.02032,-0.02258 0.03048,-0.05928 0.03048,-0.11008v-6.46104M328.42001,192.26691v0.90607h1.7444v-0.90607h-1.7444M328.42001,190.64106v0.8976h1.7444v-0.8976h-1.7444M327.60709,189.91282h3.41258v3.99687h-3.41258zM335.72785,195.23915c-0.16936,-0.21452 -0.36017,-0.43356 -0.57243,-0.65711c-0.21113,-0.22242 -0.42396,-0.43977 -0.63848,-0.65203c-0.21452,-0.21113 -0.4234,-0.39856 -0.62663,-0.56227l0.79599,-0.6859c0.19759,0.16371 0.41211,0.35565 0.64356,0.57582c0.23146,0.22017 0.45332,0.44316 0.66558,0.66897c0.21113,0.22581 0.39291,0.43187 0.54534,0.61816zM344.29741,189.3624v0.41493h3.82751v-0.41493h-3.82751M344.29741,188.38859v0.40646h3.82751v-0.40646h-3.82751M343.42521,187.78736h5.61425v2.59119h-5.61425v-2.59119M342.37519,190.73421h7.68889v0.72824h-7.68889v-0.72824M346.36359,191.83504h2.86217v0.71978h-2.86217v-0.71978M343.69619,191.86044h1.97303v0.64356h-1.97303v-0.64356M343.69619,192.92741h1.97303v0.6351h-1.97303v-0.6351M347.3374,192.44473c0.24275,0.54195 0.61251,1.00599 1.1093,1.39213c0.49679,0.38727 1.08954,0.66558 1.77827,0.83494c-0.09597,0.08468 -0.19476,0.19759 -0.29638,0.33872c-0.10162,0.14113 -0.18347,0.26533 -0.24557,0.37259c-0.72824,-0.21452 -1.35092,-0.55606 -1.86803,-1.02462c-0.51598,-0.46856 -0.91793,-1.03873 -1.20584,-1.71052l0.72824,-0.20323M349.09873,191.83504h0.14396l0.15242,-0.0254l0.51654,0.20323c-0.16936,0.58147 -0.41211,1.09236 -0.72824,1.5327c-0.31614,0.44033 -0.6859,0.81292 -1.1093,1.11777c-0.4234,0.30485 -0.88067,0.55042 -1.37181,0.73671c-0.04516,-0.09597 -0.11178,-0.21057 -0.19984,-0.3438c-0.08694,-0.1321 -0.17275,-0.23767 -0.25743,-0.3167c0.43469,-0.14113 0.84397,-0.34154 1.22785,-0.60122c0.38388,-0.25968 0.71808,-0.573 1.0026,-0.93994c0.28565,-0.36694 0.4934,-0.77905 0.62324,-1.23632v-0.12702M342.36672,194.20606c0.35001,-0.02823 0.74913,-0.06379 1.19737,-0.1067c0.44937,-0.04177 0.92357,-0.08694 1.42261,-0.13549c0.50017,-0.04742 0.99583,-0.09653 1.48697,-0.14734l0.00847,0.72824c-0.47985,0.05645 -0.96083,0.11121 -1.44294,0.16428c-0.48324,0.05419 -0.94785,0.105 -1.39382,0.15242c-0.44598,0.04855 -0.84962,0.09258 -1.21092,0.1321l-0.06774,-0.78752M345.19501,190.97131h0.8722v4.45414h-0.8722v-4.45414M343.1373,190.98825h0.82986v3.45492h-0.82986zM350.95321,189.83661h7.51107v0.93994h-7.51107v-0.93994M355.23799,190.21766c0.175,0.65485 0.41324,1.26568 0.71469,1.83246c0.30259,0.56792 0.67687,1.0647 1.12285,1.49036c0.44598,0.42678 0.96535,0.76155 1.5581,1.0043c-0.07339,0.0621 -0.15242,0.14508 -0.2371,0.24896c-0.08468,0.105 -0.16654,0.20944 -0.24557,0.31331c-0.07903,0.105 -0.14396,0.20267 -0.19476,0.29299c-0.63227,-0.2992 -1.18156,-0.69042 -1.64786,-1.17366c-0.46517,-0.48211 -0.85865,-1.04212 -1.18043,-1.68004c-0.32178,-0.63792 -0.58993,-1.34358 -0.80445,-2.11699l0.91454,-0.2117M354.18797,187.52486h0.99075c0,0.41211 -0.01016,0.85244 -0.03048,1.321c-0.01919,0.46856 -0.06266,0.94672 -0.13041,1.43447c-0.06774,0.48888 -0.17783,0.97438 -0.33025,1.45649c-0.15242,0.48324 -0.36412,0.94897 -0.6351,1.39721c-0.27097,0.44937 -0.61647,0.86712 -1.03648,1.25326c-0.42114,0.38727 -0.93373,0.72486 -1.53778,1.01277c-0.07339,-0.1242 -0.175,-0.25855 -0.30485,-0.40307c-0.12984,-0.14339 -0.25968,-0.26307 -0.38953,-0.35904c0.58711,-0.26533 1.07825,-0.57017 1.47342,-0.91454c0.39517,-0.34436 0.71695,-0.71978 0.96535,-1.12624c0.24839,-0.40646 0.43864,-0.82986 0.57074,-1.27019c0.13323,-0.44033 0.22525,-0.88236 0.27606,-1.32608c0.05081,-0.44259 0.08186,-0.87446 0.09315,-1.2956c0.01129,-0.42001 0.01976,-0.81349 0.0254,-1.18043zM360.03085,187.77043h6.24934v0.6605h-6.24934v-0.6605M360.40344,191.18301h6.29168v0.62663h-6.29168v-0.62663M361.17402,192.08061h5.05536v0.55042h-5.05536v-0.55042M360.3865,192.91894h6.6304v0.60969h-6.6304v-0.60969M360.5982,189.62491h1.78674v0.4742h-1.78674v-0.4742M360.41191,190.40396h1.9815v0.46574h-1.9815v-0.46574M363.9007,190.40396h2.0069v0.46574h-2.0069v-0.46574M363.9007,189.62491h1.80367v0.4742h-1.80367v-0.4742M362.68979,188.04987h0.8976v2.96378h-0.8976v-2.96378M359.4889,188.76964h7.35018v1.48189h-0.88067v-0.93994h-5.63118v0.93994h-0.83833v-1.48189M359.99698,191.18301h0.84679v1.16858c0,0.2371 -0.01411,0.49227 -0.04234,0.7655c-0.02823,0.27436 -0.08073,0.55267 -0.1575,0.83494c-0.07565,0.28226 -0.18234,0.55437 -0.32009,0.81631c-0.13887,0.26307 -0.31839,0.50187 -0.53856,0.71639c-0.04516,-0.05645 -0.10726,-0.12307 -0.18629,-0.19984c-0.07903,-0.07565 -0.16202,-0.14904 -0.24896,-0.22017c-0.08807,-0.07 -0.16597,-0.12194 -0.23372,-0.15581c0.26533,-0.25404 0.46009,-0.53066 0.58429,-0.82986c0.1242,-0.2992 0.20492,-0.6001 0.24218,-0.90268c0.03613,-0.30146 0.05419,-0.58203 0.05419,-0.84171v-1.15164M363.89223,193.24072c0.16936,0.27662 0.40928,0.50638 0.71978,0.68929c0.31049,0.18404 0.68139,0.32799 1.11269,0.43187c0.43243,0.105 0.91397,0.17444 1.44463,0.20831c-0.07903,0.07903 -0.16089,0.18629 -0.24557,0.32178c-0.08468,0.13549 -0.15242,0.25968 -0.20323,0.37259c-0.58147,-0.0621 -1.09914,-0.16936 -1.55302,-0.32178c-0.45501,-0.15242 -0.84623,-0.35735 -1.17366,-0.61477c-0.32743,-0.2563 -0.5984,-0.57074 -0.81292,-0.94333l0.71131,-0.14396M365.86527,193.46089l0.66897,0.33872c-0.20323,0.13549 -0.41775,0.26081 -0.64356,0.37598c-0.22581,0.11629 -0.43187,0.21678 -0.61816,0.30146l-0.55042,-0.30485c0.1242,-0.06774 0.25517,-0.14283 0.39291,-0.22525c0.13887,-0.08129 0.27436,-0.16597 0.40646,-0.25404c0.13323,-0.08694 0.24783,-0.16428 0.3438,-0.23202M361.24177,195.42545l-0.04234,-0.59276l0.35565,-0.24557l2.33715,-0.33025c-0.02258,0.10162 -0.04234,0.21847 -0.05928,0.35057c-0.01694,0.13323 -0.0254,0.24218 -0.0254,0.32686c-0.51937,0.08468 -0.93881,0.15355 -1.25834,0.20662c-0.31839,0.05419 -0.56509,0.09823 -0.7401,0.1321c-0.175,0.03387 -0.30202,0.0621 -0.38106,0.08468c-0.07903,0.02258 -0.14113,0.04516 -0.18629,0.06774M361.24177,195.42545c-0.02258,-0.06774 -0.05645,-0.14565 -0.10162,-0.23372c-0.04516,-0.08694 -0.09484,-0.17444 -0.14904,-0.26251c-0.05307,-0.08694 -0.10218,-0.15863 -0.14734,-0.21509c0.09597,-0.05081 0.19871,-0.13718 0.30823,-0.25912c0.11065,-0.12081 0.16597,-0.27718 0.16597,-0.46912v-0.81292l0.88067,0.01694v1.38028c0,0 -0.03218,0.01976 -0.09653,0.05928c-0.06549,0.03952 -0.14452,0.09315 -0.2371,0.16089c-0.09371,0.06774 -0.18855,0.13831 -0.28452,0.2117c-0.09597,0.07339 -0.17613,0.14791 -0.24049,0.22355c-0.06549,0.07678 -0.09823,0.14339 -0.09823,0.19984zM369.46414,189.93822h5.91909v0.71978h-5.91909v-0.71978M369.54035,192.40239h4.70818v0.71978h-4.70818v-0.71978M370.66659,189.32853h0.86373v1.98997h1.69359v-1.98997h0.88913v2.68434h-3.44645v-2.68434M374.01143,192.40239h0.17783l0.16089,-0.03387l0.56735,0.29638c-0.23146,0.44033 -0.53348,0.81687 -0.90607,1.12962c-0.37259,0.31388 -0.79599,0.57526 -1.27019,0.78413c-0.4742,0.20888 -0.9851,0.37541 -1.5327,0.49961c-0.54759,0.1242 -1.11777,0.22017 -1.71052,0.28791c-0.03387,-0.10726 -0.08581,-0.23597 -0.15581,-0.38614c-0.07113,-0.14904 -0.14339,-0.27436 -0.21678,-0.37598c0.54195,-0.03952 1.06696,-0.10895 1.57504,-0.20831c0.50808,-0.09823 0.97833,-0.2292 1.41076,-0.39291c0.4313,-0.16371 0.81066,-0.36864 1.13809,-0.61477c0.32743,-0.24501 0.58147,-0.53405 0.76212,-0.86712v-0.11855M370.9545,192.95281c0.27662,0.32743 0.64469,0.60687 1.10422,0.83833c0.46066,0.23146 0.99301,0.41606 1.59705,0.5538c0.60405,0.13887 1.25326,0.23372 1.94763,0.28452c-0.0621,0.0621 -0.12702,0.14113 -0.19476,0.2371c-0.06774,0.09597 -0.13154,0.19194 -0.19138,0.28791c-0.05871,0.09597 -0.105,0.18347 -0.13887,0.26251c-0.7226,-0.07339 -1.39269,-0.19928 -2.01029,-0.37767c-0.61872,-0.17726 -1.17083,-0.41436 -1.65633,-0.71131c-0.4855,-0.29581 -0.8976,-0.65542 -1.23632,-1.07882l0.77905,-0.29638M368.80364,188.2785h6.66427v0.84679h-6.66427v-0.84679M368.38024,188.2785h0.8976v2.26941c0,0.35001 -0.01016,0.73502 -0.03048,1.15503c-0.01919,0.42114 -0.05702,0.85188 -0.11347,1.29221c-0.05645,0.44033 -0.13831,0.86655 -0.24557,1.27866c-0.10726,0.41211 -0.24839,0.79034 -0.4234,1.1347c-0.0621,-0.04516 -0.14396,-0.09315 -0.24557,-0.14396c-0.10162,-0.05081 -0.20492,-0.10049 -0.30993,-0.14904c-0.10387,-0.04742 -0.19533,-0.0796 -0.27436,-0.09653c0.16936,-0.32743 0.30485,-0.68195 0.40646,-1.06357c0.10162,-0.38049 0.17613,-0.77115 0.22355,-1.17196c0.04855,-0.40082 0.0796,-0.79203 0.09315,-1.17366c0.01468,-0.38049 0.02202,-0.73163 0.02202,-1.05341v-2.27788M371.34403,187.66881l0.91454,-0.2117c0.09597,0.18065 0.1846,0.37824 0.26589,0.59276c0.08242,0.21452 0.14057,0.39799 0.17444,0.55042l-0.97381,0.2371c-0.02258,-0.15807 -0.07057,-0.34719 -0.14396,-0.56735c-0.07339,-0.22017 -0.15242,-0.42057 -0.2371,-0.60122zM378.06757,195.23915c-0.16936,-0.21452 -0.36017,-0.43356 -0.57243,-0.65711c-0.21113,-0.22242 -0.42396,-0.43977 -0.63848,-0.65203c-0.21452,-0.21113 -0.4234,-0.39856 -0.62663,-0.56227l0.79599,-0.6859c0.19759,0.16371 0.41211,0.35565 0.64356,0.57582c0.23146,0.22017 0.45332,0.44316 0.66558,0.66897c0.21113,0.22581 0.39291,0.43187 0.54534,0.61816zM384.82499,191.16607h7.5026v0.80445h-7.5026v-0.80445M388.61017,192.6903h3.17548v0.78752h-3.17548v-0.78752M388.19524,191.56407h0.92301v3.15854h-0.92301v-3.15854M386.78956,192.92741c0.15807,0.4234 0.38106,0.74236 0.66897,0.95688c0.28791,0.21452 0.63622,0.35848 1.04494,0.43187c0.40985,0.07339 0.87163,0.11008 1.38536,0.11008c0.08468,0 0.2117,0 0.38106,0c0.16936,0 0.3613,0 0.57582,0c0.21452,0 0.43017,0 0.64695,0c0.21791,0 0.42001,-0.00169 0.6063,-0.00508c0.18629,-0.00226 0.3359,-0.00621 0.4488,-0.01186c-0.04516,0.06774 -0.08863,0.15355 -0.13041,0.25743c-0.0429,0.105 -0.0796,0.21113 -0.11008,0.31839c-0.03161,0.10726 -0.05589,0.20605 -0.07282,0.29638h-0.50808h-1.88835c-0.49114,0 -0.93317,-0.02823 -1.32608,-0.08468c-0.39178,-0.05645 -0.74292,-0.15976 -1.05341,-0.30993c-0.31049,-0.14904 -0.58316,-0.36186 -0.818,-0.63848c-0.23372,-0.27662 -0.43525,-0.63227 -0.60461,-1.06696l0.75365,-0.25404M386.15446,192.17376l0.90607,0.12702c-0.13549,0.70002 -0.35565,1.31366 -0.6605,1.84093c-0.30485,0.5284 -0.69155,0.95914 -1.16011,1.29221c-0.04516,-0.05645 -0.10839,-0.12589 -0.18968,-0.20831c-0.08242,-0.08129 -0.16879,-0.16146 -0.25912,-0.24049c-0.09033,-0.07903 -0.16936,-0.14113 -0.2371,-0.18629c0.44033,-0.27097 0.79147,-0.63114 1.05341,-1.08051c0.26307,-0.44824 0.44541,-0.96309 0.54703,-1.54455M386.52705,189.58257v0.49961h4.03074v-0.49961h-4.03074M386.52705,188.47327v0.49961h4.03074v-0.49961h-4.03074M385.64638,187.82123h5.83441v2.91297h-5.83441zM394.74096,194.29074h4.57269v0.79599h-4.57269v-0.79599M394.22441,192.11448h5.69893v3.29403h-0.99075v-2.50651h-3.76824v2.51498h-0.93994v-3.3025M393.32681,187.95672h7.41792v0.84679h-7.41792v-0.84679M397.2644,188.26157l0.90607,0.39799c-0.35565,0.45727 -0.77736,0.87784 -1.26511,1.26172c-0.48888,0.38388 -1.01277,0.72542 -1.57165,1.02462c-0.55888,0.2992 -1.12059,0.55606 -1.68512,0.77058c-0.04516,-0.07339 -0.10613,-0.16258 -0.18291,-0.26759c-0.07565,-0.10387 -0.15468,-0.20662 -0.2371,-0.30823c-0.08129,-0.10162 -0.15581,-0.18629 -0.22355,-0.25404c0.56453,-0.16936 1.11495,-0.38275 1.65125,-0.64018c0.5363,-0.2563 1.03027,-0.55267 1.48189,-0.88913c0.45162,-0.33533 0.82704,-0.70058 1.12624,-1.09575M397.71321,190.07371l0.65203,-0.60122c0.31049,0.1242 0.63058,0.2721 0.96026,0.44372c0.33081,0.17275 0.64469,0.34662 0.94164,0.52163c0.29581,0.175 0.54534,0.33872 0.74857,0.49114l-0.6605,0.6859c-0.19759,-0.16371 -0.44429,-0.33872 -0.7401,-0.52501c-0.29694,-0.18629 -0.61082,-0.36864 -0.94164,-0.54703c-0.32969,-0.17726 -0.64977,-0.33364 -0.96026,-0.46912M396.5531,189.70959l0.92301,-0.91454l0.00847,0.01694v3.05693h-0.93147z" fill="#ffffff" fill-rule="nonzero" stroke-width="1"/><path d="M249.35481,198.38246h7.51954v0.84679h-7.51954v-0.84679M251.58188,201.42245h3.75977v0.76212h-3.75977v-0.76212M250.91291,199.99136h4.29325v0.79599h-3.39565v4.44567h-0.8976v-5.24166M255.01987,199.99136h0.88913v4.23397c0,0.23146 -0.02823,0.41493 -0.08468,0.55042c-0.05645,0.13549 -0.16654,0.23992 -0.33025,0.31331c-0.16371,0.06774 -0.36864,0.10839 -0.61477,0.12194c-0.24501,0.01468 -0.54251,0.02202 -0.89252,0.02202c-0.01694,-0.1242 -0.05194,-0.27097 -0.105,-0.44033c-0.05419,-0.16936 -0.11234,-0.31331 -0.17444,-0.43187c0.15807,0.00565 0.31331,0.0096 0.46574,0.01186c0.15242,0.00339 0.28791,0.00508 0.40646,0.00508c0.11855,0 0.20323,0 0.25404,0c0.06774,0 0.11573,-0.01298 0.14396,-0.03895c0.02823,-0.02484 0.04234,-0.06831 0.04234,-0.13041v-4.21704M252.02221,197.33243l0.93994,0.2117c-0.19759,0.62663 -0.44429,1.24874 -0.7401,1.86634c-0.29694,0.61872 -0.6526,1.19455 -1.06696,1.72746c-0.41549,0.53405 -0.89704,0.99301 -1.44463,1.37689c-0.03952,-0.06774 -0.09597,-0.14565 -0.16936,-0.23372c-0.07339,-0.08694 -0.14678,-0.17275 -0.22017,-0.25743c-0.07339,-0.08468 -0.14113,-0.15525 -0.20323,-0.2117c0.37824,-0.24839 0.72147,-0.54364 1.0297,-0.88575c0.3071,-0.34098 0.58203,-0.71074 0.82478,-1.1093c0.24275,-0.39743 0.45162,-0.80671 0.62663,-1.22785c0.175,-0.42001 0.31614,-0.83889 0.4234,-1.25664M251.58188,202.82813h3.75977v0.76212h-3.75977zM260.83735,199.66111h0.84679c-0.03952,0.35565 -0.08186,0.72937 -0.12702,1.12116c-0.04516,0.39291 -0.09428,0.78244 -0.14734,1.16858c-0.05419,0.38727 -0.10557,0.75421 -0.15412,1.10083c-0.04742,0.34775 -0.09371,0.65429 -0.13887,0.91962h-0.88067c0.05645,-0.27662 0.11291,-0.59163 0.16936,-0.94502c0.05645,-0.35227 0.11178,-0.72203 0.16597,-1.1093c0.05307,-0.38614 0.10218,-0.77284 0.14734,-1.16011c0.04516,-0.38614 0.08468,-0.75139 0.11855,-1.09575M262.10754,200.6434l0.4742,-0.30485c0.15242,0.11855 0.31049,0.25686 0.4742,0.41493c0.16371,0.15807 0.29073,0.29638 0.38106,0.41493l-0.49961,0.34719c-0.07903,-0.1242 -0.19928,-0.26985 -0.36073,-0.43695c-0.16033,-0.16597 -0.3167,-0.31106 -0.46912,-0.43525M261.8789,202.39626l0.49961,-0.31331c0.16936,0.12984 0.34549,0.27944 0.5284,0.4488c0.18404,0.16936 0.32686,0.32178 0.42848,0.45727l-0.51654,0.35565c-0.09597,-0.12984 -0.23428,-0.28509 -0.41493,-0.46574c-0.18065,-0.18065 -0.35565,-0.34154 -0.52501,-0.48267M260.9559,198.2131h4.37793v0.82139h-4.37793v-0.82139M261.193,199.66111h3.22629v0.77905h-3.22629v-0.77905M259.77038,201.3547h5.78361v0.82139h-5.78361v-0.82139M260.69339,203.19225h4.64043v0.77905h-4.64043v-0.77905M261.0067,197.32396l0.88067,0.22863c-0.11291,0.35001 -0.25009,0.69832 -0.41154,1.04494c-0.16033,0.34775 -0.33081,0.67405 -0.51146,0.97889c-0.18065,0.30485 -0.36412,0.573 -0.55042,0.80445c-0.05645,-0.05081 -0.13379,-0.10726 -0.23202,-0.16936c-0.09936,-0.0621 -0.19702,-0.1242 -0.29299,-0.18629c-0.09597,-0.0621 -0.18065,-0.11291 -0.25404,-0.15242c0.19194,-0.20323 0.37428,-0.44203 0.54703,-0.71639c0.17162,-0.27323 0.32799,-0.56679 0.46912,-0.88067c0.14113,-0.31275 0.25968,-0.63002 0.35565,-0.9518M264.15678,199.66111h0.84679c0,0 -0.00113,0.0254 -0.00339,0.07621c-0.00339,0.05081 -0.00508,0.10557 -0.00508,0.16428c0,0.05984 -0.00282,0.10952 -0.00847,0.14904c-0.03387,0.80728 -0.06774,1.49149 -0.10162,2.05263c-0.03387,0.56227 -0.07226,1.02406 -0.11516,1.38536c-0.04177,0.3613 -0.0892,0.64356 -0.14226,0.84679c-0.05419,0.20323 -0.11799,0.35001 -0.19138,0.44033c-0.09597,0.12984 -0.19646,0.21847 -0.30146,0.26589c-0.10387,0.04855 -0.22355,0.08411 -0.35904,0.1067c-0.1242,0.01694 -0.28226,0.0254 -0.4742,0.0254c-0.19194,0 -0.39235,-0.00565 -0.60122,-0.01694c-0.00565,-0.11291 -0.02823,-0.23992 -0.06774,-0.38106c-0.03952,-0.14113 -0.09315,-0.26533 -0.16089,-0.37259c0.19759,0.01694 0.37824,0.02823 0.54195,0.03387c0.16371,0.00565 0.28509,0.00847 0.36412,0.00847c0.07339,0 0.13266,-0.01016 0.17783,-0.03048c0.04516,-0.01919 0.09033,-0.05419 0.13549,-0.105c0.05645,-0.0621 0.10726,-0.18799 0.15242,-0.37767c0.04516,-0.18855 0.0875,-0.4567 0.12702,-0.80445c0.03952,-0.34662 0.07508,-0.78978 0.1067,-1.32947c0.03048,-0.53856 0.05702,-1.19172 0.0796,-1.95948v-0.17783M258.1276,198.07761l0.50808,-0.61816c0.16371,0.07339 0.33985,0.16089 0.5284,0.26251c0.18968,0.10162 0.37033,0.20605 0.54195,0.31331c0.17275,0.10726 0.31275,0.20605 0.42001,0.29638l-0.53348,0.6859c-0.10162,-0.09033 -0.23597,-0.19363 -0.40307,-0.30993c-0.16597,-0.11516 -0.3438,-0.22807 -0.53348,-0.33872c-0.18855,-0.10952 -0.36469,-0.20662 -0.5284,-0.2913M257.6534,200.49944l0.49114,-0.60969c0.16371,0.07339 0.3342,0.1592 0.51146,0.25743c0.17839,0.09936 0.34775,0.19984 0.50808,0.30146c0.16146,0.10162 0.29299,0.19759 0.39461,0.28791l-0.52501,0.69437c-0.09033,-0.09597 -0.21452,-0.20041 -0.37259,-0.31331c-0.15807,-0.11291 -0.32573,-0.22299 -0.503,-0.33025c-0.17839,-0.10726 -0.34662,-0.20323 -0.50469,-0.28791M257.8905,204.60639c0.11291,-0.22017 0.23823,-0.47985 0.37598,-0.77905c0.13887,-0.2992 0.27718,-0.61816 0.41493,-0.95688c0.13887,-0.33872 0.26759,-0.67179 0.38614,-0.99922l0.69437,0.49114c-0.10162,0.2992 -0.21283,0.60687 -0.33364,0.92301c-0.12194,0.31614 -0.2467,0.62945 -0.37428,0.93994c-0.12645,0.31049 -0.25178,0.60122 -0.37598,0.8722zM266.80725,197.88285h1.65972v5.27553h-1.65972v-0.72824h0.94841v-3.82751h-0.94841v-0.71978M266.35845,197.88285h0.71978v6.02071h-0.71978v-6.02071M268.66173,199.15304h5.32634v0.70284h-5.32634v-0.70284M269.1444,197.92519h4.34406v3.18395h-4.4118v-0.73671h3.63275v-1.71052h-3.565v-0.73671M270.77024,197.3663h0.83833v7.84132h-0.83833v-7.84132M272.81949,201.44785h0.75365v3.73436h-0.75365v-3.73436M268.86496,201.44785h0.73671v0.70284c0,0.31614 -0.01581,0.65316 -0.04742,1.01107c-0.03048,0.35904 -0.09823,0.71752 -0.20323,1.07543c-0.10387,0.35904 -0.26589,0.69945 -0.48606,1.02123c-0.07339,-0.07903 -0.17613,-0.16654 -0.30823,-0.26251c-0.13323,-0.09597 -0.25065,-0.16936 -0.35227,-0.22017c0.19759,-0.27662 0.34323,-0.56905 0.43695,-0.87728c0.09258,-0.3071 0.15299,-0.61308 0.18121,-0.91793c0.02823,-0.30485 0.04234,-0.58993 0.04234,-0.85526v-0.67744M270.0166,201.79504l0.58429,0.10162c-0.03387,0.31614 -0.07734,0.6334 -0.13041,0.9518c-0.05419,0.31952 -0.11799,0.62042 -0.19138,0.90268c-0.07339,0.28226 -0.15525,0.53348 -0.24557,0.75365c-0.05645,-0.04516 -0.13549,-0.10049 -0.2371,-0.16597c-0.10162,-0.06436 -0.18912,-0.11347 -0.26251,-0.14734c0.12984,-0.30485 0.23315,-0.67179 0.30993,-1.10083c0.07565,-0.42904 0.13323,-0.86091 0.17275,-1.2956M271.72712,201.87972l0.55888,-0.06774c0.06774,0.26533 0.13266,0.54872 0.19476,0.85018c0.0621,0.30259 0.11742,0.59332 0.16597,0.8722c0.04742,0.28001 0.0796,0.52163 0.09653,0.72486l-0.60969,0.11008c-0.01129,-0.20888 -0.03782,-0.45614 -0.0796,-0.74179c-0.0429,-0.28452 -0.09145,-0.5809 -0.14565,-0.88913c-0.05307,-0.3071 -0.11347,-0.59332 -0.18121,-0.85865zM276.47764,205.0552c-0.16936,-0.21452 -0.35961,-0.43356 -0.57074,-0.65711c-0.21226,-0.22242 -0.42566,-0.43977 -0.64018,-0.65203c-0.21452,-0.21113 -0.4234,-0.39856 -0.62663,-0.56227l0.79599,-0.6859c0.19759,0.16371 0.41211,0.35565 0.64356,0.57582c0.23146,0.22017 0.45332,0.44316 0.66558,0.66897c0.21113,0.22581 0.39291,0.43187 0.54534,0.61816zM283.84475,197.58647h6.24934v0.6605h-6.24934v-0.6605M284.21734,200.99905h6.29168v0.62663h-6.29168v-0.62663M284.98792,201.89665h5.05536v0.55042h-5.05536v-0.55042M284.20041,202.73498h6.6304v0.60969h-6.6304v-0.60969M284.4121,199.44095h1.78674v0.4742h-1.78674v-0.4742M284.22581,200.22h1.9815v0.46574h-1.9815v-0.46574M287.7146,200.22h2.0069v0.46574h-2.0069v-0.46574M287.7146,199.44095h1.80367v0.4742h-1.80367v-0.4742M286.50369,197.86591h0.8976v2.96378h-0.8976v-2.96378M283.3028,198.58569h7.35018v1.48189h-0.88067v-0.93994h-5.63118v0.93994h-0.83833v-1.48189M283.81088,200.99905h0.84679v1.16858c0,0.2371 -0.01411,0.49227 -0.04234,0.7655c-0.02823,0.27436 -0.08016,0.55267 -0.15581,0.83494c-0.07678,0.28226 -0.18404,0.55437 -0.32178,0.81631c-0.13887,0.26307 -0.31839,0.50187 -0.53856,0.71639c-0.04516,-0.05645 -0.10726,-0.12307 -0.18629,-0.19984c-0.07903,-0.07565 -0.16202,-0.14904 -0.24896,-0.22017c-0.08807,-0.07 -0.16597,-0.12194 -0.23372,-0.15581c0.26533,-0.25404 0.46009,-0.53066 0.58429,-0.82986c0.1242,-0.2992 0.20492,-0.6001 0.24218,-0.90268c0.03613,-0.30146 0.05419,-0.58203 0.05419,-0.84171v-1.15164M287.70613,203.05676c0.16936,0.27662 0.40928,0.50638 0.71978,0.68929c0.31049,0.18404 0.68195,0.32799 1.11438,0.43187c0.4313,0.105 0.91228,0.17444 1.44294,0.20831c-0.07903,0.07903 -0.16089,0.18629 -0.24557,0.32178c-0.08468,0.13549 -0.15242,0.25968 -0.20323,0.37259c-0.58147,-0.0621 -1.09914,-0.16936 -1.55302,-0.32178c-0.45501,-0.15242 -0.84623,-0.35735 -1.17366,-0.61477c-0.32743,-0.2563 -0.5984,-0.57074 -0.81292,-0.94333l0.71131,-0.14396M289.67917,203.27693l0.66897,0.33872c-0.20323,0.13549 -0.41775,0.26081 -0.64356,0.37598c-0.22581,0.11629 -0.43187,0.21678 -0.61816,0.30146l-0.55042,-0.30485c0.1242,-0.06774 0.25573,-0.14283 0.39461,-0.22525c0.13775,-0.08129 0.27323,-0.16597 0.40646,-0.25404c0.1321,-0.08694 0.24614,-0.16428 0.3421,-0.23202M285.05567,205.24149l-0.04234,-0.59276l0.35565,-0.24557l2.33715,-0.33025c-0.02258,0.10162 -0.04234,0.21847 -0.05928,0.35057c-0.01694,0.13323 -0.0254,0.24218 -0.0254,0.32686c-0.51937,0.08468 -0.93825,0.15355 -1.25664,0.20662c-0.31952,0.05419 -0.56679,0.09823 -0.74179,0.1321c-0.175,0.03387 -0.30202,0.0621 -0.38106,0.08468c-0.07903,0.02258 -0.14113,0.04516 -0.18629,0.06774M285.05567,205.24149c-0.02258,-0.06774 -0.05645,-0.14565 -0.10162,-0.23372c-0.04516,-0.08694 -0.09428,-0.17444 -0.14734,-0.26251c-0.05419,-0.08694 -0.10387,-0.15863 -0.14904,-0.21509c0.09597,-0.05081 0.19928,-0.13718 0.30993,-0.25912c0.10952,-0.12081 0.16428,-0.27718 0.16428,-0.46912v-0.81292l0.88067,0.01694v1.38028c0,0 -0.03218,0.01976 -0.09653,0.05928c-0.06549,0.03952 -0.14452,0.09315 -0.2371,0.16089c-0.09371,0.06774 -0.18855,0.13831 -0.28452,0.2117c-0.09597,0.07339 -0.17613,0.14791 -0.24049,0.22355c-0.06549,0.07678 -0.09823,0.14339 -0.09823,0.19984zM294.30266,197.7643h5.00456v0.82139h-5.00456v-0.82139M294.03169,197.7643h0.88067v2.34562c0,0.37259 -0.01411,0.78187 -0.04234,1.22785c-0.02823,0.44598 -0.08186,0.90042 -0.16089,1.36334c-0.07903,0.46291 -0.19476,0.91284 -0.34719,1.34979c-0.15242,0.43807 -0.35565,0.83212 -0.60969,1.18213c-0.05081,-0.05081 -0.1242,-0.10726 -0.22017,-0.16936c-0.09597,-0.0621 -0.19194,-0.12307 -0.28791,-0.18291c-0.09597,-0.05871 -0.18065,-0.10218 -0.25404,-0.13041c0.2371,-0.32743 0.42622,-0.68873 0.56735,-1.0839c0.14113,-0.39517 0.24444,-0.8005 0.30993,-1.216c0.06436,-0.41436 0.10782,-0.82196 0.13041,-1.22277c0.02258,-0.40082 0.03387,-0.77341 0.03387,-1.11777v-2.34562M296.07246,201.20228v0.55042h2.13392v-0.55042h-2.13392M296.07246,200.04217v0.54195h2.13392v-0.54195h-2.13392M295.25954,199.38167h3.78517v3.03152h-3.78517v-3.03152M295.44584,202.78579l0.81292,0.22863c-0.09033,0.20323 -0.19194,0.41211 -0.30485,0.62663c-0.11291,0.21452 -0.23146,0.41888 -0.35565,0.61308c-0.1242,0.19533 -0.23992,0.36638 -0.34719,0.51316c-0.05645,-0.04516 -0.12702,-0.09484 -0.2117,-0.14904c-0.08468,-0.05307 -0.17387,-0.1067 -0.26759,-0.16089c-0.09258,-0.05307 -0.17275,-0.09653 -0.24049,-0.13041c0.175,-0.20323 0.34436,-0.44316 0.50808,-0.71978c0.16371,-0.27662 0.2992,-0.55042 0.40646,-0.82139M297.85073,203.00595l0.78752,-0.30485c0.10162,0.16936 0.20775,0.35396 0.31839,0.5538c0.10952,0.20097 0.21226,0.39461 0.30823,0.5809c0.09597,0.18629 0.175,0.35001 0.2371,0.49114l-0.83833,0.36412c-0.05081,-0.14678 -0.12137,-0.31783 -0.2117,-0.51316c-0.09033,-0.1942 -0.18742,-0.39461 -0.2913,-0.60122c-0.105,-0.20549 -0.20831,-0.39574 -0.30993,-0.57074M296.66522,198.59415l1.02462,0.18629c-0.10162,0.19194 -0.20605,0.37936 -0.31331,0.56227c-0.10726,0.18404 -0.20323,0.33815 -0.28791,0.46235l-0.72824,-0.20323c0.05645,-0.14678 0.1146,-0.31501 0.17444,-0.50469c0.05871,-0.18855 0.10218,-0.35622 0.13041,-0.503M296.65675,202.12529h0.86373v2.23554c0,0.20323 -0.02089,0.36243 -0.06266,0.47759c-0.0429,0.11629 -0.13492,0.20549 -0.27606,0.26759c-0.13549,0.0621 -0.30202,0.09992 -0.49961,0.11347c-0.19759,0.01468 -0.43187,0.01919 -0.70284,0.01355c-0.01694,-0.11291 -0.04799,-0.24275 -0.09315,-0.38953c-0.04516,-0.14678 -0.09315,-0.27662 -0.14396,-0.38953c0.16371,0.00565 0.32348,0.00847 0.47929,0.00847c0.15468,0 0.2546,0 0.29977,0c0.09033,0 0.13549,-0.03952 0.13549,-0.11855v-2.2186M291.88083,198.05221l0.52501,-0.64356c0.14678,0.07903 0.30936,0.17049 0.48775,0.27436c0.17726,0.105 0.34944,0.20662 0.51654,0.30485c0.16597,0.09936 0.30259,0.18855 0.40985,0.26759l-0.55042,0.71978c-0.09597,-0.07903 -0.22581,-0.17387 -0.38953,-0.28452c-0.16371,-0.10952 -0.3342,-0.22073 -0.51146,-0.33364c-0.17839,-0.11291 -0.34098,-0.21452 -0.48775,-0.30485M291.47437,200.33855l0.51654,-0.65203c0.14678,0.07903 0.30936,0.16654 0.48775,0.26251c0.17726,0.09597 0.34888,0.19025 0.51485,0.28283c0.1671,0.09371 0.30428,0.17726 0.41154,0.25065l-0.53348,0.73671c-0.10162,-0.08468 -0.23428,-0.17783 -0.39799,-0.27944c-0.16371,-0.10162 -0.3342,-0.20605 -0.51146,-0.31331c-0.17839,-0.10726 -0.34098,-0.20323 -0.48775,-0.28791M291.60139,204.64027c0.11855,-0.22581 0.24839,-0.48832 0.38953,-0.78752c0.14113,-0.2992 0.28396,-0.61816 0.42848,-0.95688c0.14339,-0.33872 0.27436,-0.67179 0.39291,-0.99922l0.74518,0.49961c-0.11291,0.2992 -0.23146,0.60687 -0.35565,0.92301c-0.1242,0.31614 -0.25234,0.62776 -0.38444,0.93486c-0.13323,0.30823 -0.26476,0.60066 -0.39461,0.87728zM304.95534,197.33243h0.85526v5.95297h-0.85526v-5.95297M302.39802,200.76195l4.4372,-1.87988l0.33872,0.77905l-4.4372,1.90529l-0.33872,-0.80445M303.26175,198.14535h0.86373v5.53804c0,0.15807 0.01411,0.27775 0.04234,0.35904c0.02823,0.08242 0.0875,0.13775 0.17783,0.16597c0.09033,0.02823 0.22299,0.04234 0.39799,0.04234c0.05081,0 0.13436,0 0.25065,0c0.11516,0 0.24614,0 0.39291,0c0.14678,0 0.29525,0 0.44541,0c0.14904,0 0.28452,0 0.40646,0c0.12081,0 0.20944,0 0.26589,0c0.15807,0 0.27662,-0.02992 0.35565,-0.08976c0.07903,-0.05871 0.13831,-0.1671 0.17783,-0.32517c0.03952,-0.15807 0.06774,-0.3867 0.08468,-0.6859c0.10162,0.07339 0.23033,0.14113 0.38614,0.20323c0.15468,0.0621 0.29412,0.10444 0.41832,0.12702c-0.03952,0.40082 -0.10444,0.71526 -0.19476,0.94333c-0.09033,0.2292 -0.22581,0.39291 -0.40646,0.49114c-0.18065,0.09936 -0.43187,0.14904 -0.75365,0.14904c-0.05645,0 -0.14791,0 -0.27436,0c-0.12758,0 -0.27323,0 -0.43695,0c-0.16371,0 -0.32573,0 -0.48606,0c-0.16146,0 -0.30541,0 -0.43187,0c-0.12758,0 -0.21678,0 -0.26759,0c-0.3613,0 -0.64639,-0.03952 -0.85526,-0.11855c-0.20888,-0.07903 -0.35396,-0.21904 -0.43525,-0.42001c-0.08242,-0.19984 -0.12363,-0.48324 -0.12363,-0.85018v-5.52957M306.66586,198.98368h-0.06774l0.16936,-0.12702l0.16936,-0.11008l0.62663,0.22863l-0.03387,0.15242c0,0.40082 -0.00113,0.76889 -0.00339,1.10422c-0.00339,0.33646 -0.00621,0.63453 -0.00847,0.89421c-0.00339,0.25968 -0.00903,0.47703 -0.01694,0.65203c-0.00903,0.175 -0.01919,0.30485 -0.03048,0.38953c-0.01694,0.19194 -0.0621,0.33985 -0.13549,0.44372c-0.07339,0.105 -0.17783,0.18009 -0.31331,0.22525c-0.11855,0.05081 -0.25799,0.08016 -0.41832,0.08807c-0.16146,0.00903 -0.3071,0.01355 -0.43695,0.01355c-0.01129,-0.11291 -0.035,-0.24444 -0.07113,-0.39461c-0.03726,-0.14904 -0.07847,-0.27154 -0.12363,-0.36751c0.07903,0.00565 0.16371,0.00847 0.25404,0.00847c0.09033,0 0.15525,0 0.19476,0c0.05645,0 0.10162,-0.01298 0.13549,-0.03895c0.03387,-0.02484 0.05645,-0.07678 0.06774,-0.15581c0.01129,-0.04516 0.01976,-0.14283 0.0254,-0.29299c0.00565,-0.14904 0.01016,-0.34775 0.01355,-0.59614c0.00226,-0.24839 0.00339,-0.54929 0.00339,-0.90268c0,-0.35227 0,-0.75703 0,-1.2143M299.98465,199.3224h2.76902v0.85526h-2.76902v-0.85526M301.00081,197.44251h0.85526v5.58038h-0.85526v-5.58038M299.88304,203.09063c0.23146,-0.08468 0.5013,-0.18799 0.80954,-0.30993c0.3071,-0.12081 0.63171,-0.25347 0.97381,-0.39799c0.34098,-0.14339 0.68365,-0.28565 1.02801,-0.42678l0.20323,0.80445c-0.45162,0.22017 -0.91002,0.43864 -1.37519,0.65542c-0.4663,0.21791 -0.89139,0.41436 -1.27527,0.58937zM310.34942,205.0552c-0.16936,-0.21452 -0.35961,-0.43356 -0.57074,-0.65711c-0.21226,-0.22242 -0.42566,-0.43977 -0.64018,-0.65203c-0.21452,-0.21113 -0.4234,-0.39856 -0.62663,-0.56227l0.79599,-0.6859c0.19759,0.16371 0.41211,0.35565 0.64356,0.57582c0.23146,0.22017 0.45332,0.44316 0.66558,0.66897c0.21113,0.22581 0.39291,0.43187 0.54534,0.61816zM319.33391,201.43938h5.17391v0.81292h-5.17391v-0.81292M319.35931,197.74736h5.13157v1.63431h-0.83833v-0.86373h-3.49726v0.90607h-0.79599v-1.67665M321.45089,200.56718h0.91454v4.59809h-0.91454v-4.59809M322.63641,201.83738c0.14678,0.2992 0.33307,0.59276 0.55888,0.88067c0.22581,0.28791 0.4759,0.55042 0.75026,0.78752c0.27323,0.2371 0.55098,0.43187 0.83325,0.58429c-0.06774,0.05645 -0.14113,0.12533 -0.22017,0.20662c-0.07903,0.08242 -0.15525,0.1671 -0.22863,0.25404c-0.07339,0.08807 -0.13549,0.17162 -0.18629,0.25065c-0.29356,-0.19759 -0.57864,-0.4392 -0.85526,-0.72486c-0.27662,-0.28452 -0.53066,-0.59897 -0.76212,-0.94333c-0.23146,-0.34436 -0.42904,-0.69719 -0.59276,-1.05849l0.70284,-0.2371M321.22226,201.74423l0.69437,0.22863c-0.16936,0.40082 -0.38106,0.783 -0.6351,1.14656c-0.25404,0.36469 -0.538,0.69381 -0.85188,0.98736c-0.31275,0.29356 -0.64695,0.5363 -1.0026,0.72824c-0.06774,-0.10726 -0.1592,-0.22863 -0.27436,-0.36412c-0.11629,-0.13549 -0.22242,-0.24275 -0.31839,-0.32178c0.33872,-0.15807 0.6605,-0.36017 0.96535,-0.6063c0.30485,-0.24501 0.58147,-0.52275 0.82986,-0.83325c0.24839,-0.31049 0.44598,-0.63227 0.59276,-0.96535M320.79886,198.94134l0.81292,0.26251c-0.13549,0.24275 -0.30033,0.48267 -0.49453,0.71978c-0.19533,0.2371 -0.39856,0.4584 -0.60969,0.66389c-0.21226,0.20662 -0.42566,0.38332 -0.64018,0.53009c-0.04516,-0.05081 -0.10557,-0.11573 -0.18121,-0.19476c-0.07678,-0.07903 -0.15468,-0.15807 -0.23372,-0.2371c-0.07903,-0.07903 -0.1496,-0.14113 -0.2117,-0.18629c0.30485,-0.18629 0.59727,-0.41775 0.87728,-0.69437c0.27888,-0.27662 0.50582,-0.56453 0.68082,-0.86373M322.14527,199.29699l0.65203,-0.4234c0.19194,0.16936 0.39235,0.35848 0.60122,0.56735c0.20888,0.20888 0.40364,0.41493 0.58429,0.61816c0.18065,0.20323 0.3246,0.38953 0.43187,0.55888l-0.69437,0.49114c-0.09597,-0.16936 -0.23146,-0.36017 -0.40646,-0.57243c-0.175,-0.21113 -0.36412,-0.42566 -0.56735,-0.64356c-0.20323,-0.21678 -0.40364,-0.41549 -0.60122,-0.59614M317.22539,198.11148l0.45727,-0.69437c0.15242,0.06774 0.31783,0.14791 0.49622,0.24049c0.17726,0.09371 0.34888,0.18855 0.51485,0.28452c0.1671,0.09597 0.30428,0.18347 0.41154,0.26251l-0.4742,0.77905c-0.10162,-0.08468 -0.23259,-0.17952 -0.39291,-0.28452c-0.16146,-0.10387 -0.33081,-0.20831 -0.50808,-0.31331c-0.17839,-0.10387 -0.34662,-0.19533 -0.50469,-0.27436M316.8782,200.40629l0.4234,-0.67744c0.16371,0.06774 0.34041,0.15242 0.53009,0.25404c0.18855,0.10162 0.37202,0.20605 0.55042,0.31331c0.17726,0.10726 0.32235,0.20605 0.43525,0.29638l-0.4488,0.75365c-0.10726,-0.09033 -0.2467,-0.19194 -0.41832,-0.30485c-0.17275,-0.11291 -0.3534,-0.22581 -0.54195,-0.33872c-0.18968,-0.11291 -0.36638,-0.2117 -0.53009,-0.29638M317.03063,204.48784c0.12984,-0.21452 0.2738,-0.46743 0.43187,-0.75873c0.15807,-0.29017 0.31896,-0.60179 0.48267,-0.93486c0.16371,-0.33307 0.31614,-0.6605 0.45727,-0.98228l0.59276,0.62663c-0.1242,0.29356 -0.25968,0.59558 -0.40646,0.90607c-0.14678,0.31049 -0.29356,0.61647 -0.44033,0.91793c-0.14678,0.30259 -0.29356,0.58937 -0.44033,0.86034zM327.14982,199.75426h5.91909v0.71978h-5.91909v-0.71978M327.22603,202.21843h4.70818v0.71978h-4.70818v-0.71978M328.35227,199.14457h0.86373v1.98997h1.69359v-1.98997h0.88913v2.68434h-3.44645v-2.68434M331.69711,202.21843h0.17783l0.16089,-0.03387l0.56735,0.29638c-0.23146,0.44033 -0.53348,0.81687 -0.90607,1.12962c-0.37259,0.31388 -0.79599,0.57526 -1.27019,0.78413c-0.4742,0.20888 -0.9851,0.37541 -1.5327,0.49961c-0.54759,0.1242 -1.11777,0.22017 -1.71052,0.28791c-0.03387,-0.10726 -0.08581,-0.23597 -0.15581,-0.38614c-0.07113,-0.14904 -0.14339,-0.27436 -0.21678,-0.37598c0.54195,-0.03952 1.06696,-0.10895 1.57504,-0.20831c0.50808,-0.09823 0.97833,-0.2292 1.41076,-0.39291c0.4313,-0.16371 0.81066,-0.36864 1.13809,-0.61477c0.32743,-0.24501 0.58147,-0.53405 0.76212,-0.86712v-0.11855M328.64018,202.76885c0.27662,0.32743 0.64469,0.60687 1.10422,0.83833c0.46066,0.23146 0.99301,0.41606 1.59705,0.5538c0.60405,0.13887 1.25326,0.23372 1.94763,0.28452c-0.0621,0.0621 -0.12702,0.14113 -0.19476,0.2371c-0.06774,0.09597 -0.13097,0.19194 -0.18968,0.28791c-0.05984,0.09597 -0.1067,0.18347 -0.14057,0.26251c-0.7226,-0.07339 -1.39269,-0.19928 -2.01029,-0.37767c-0.61872,-0.17726 -1.17083,-0.41436 -1.65633,-0.71131c-0.4855,-0.29581 -0.8976,-0.65542 -1.23632,-1.07882l0.77905,-0.29638M326.48932,198.09454h6.66427v0.84679h-6.66427v-0.84679M326.06592,198.09454h0.8976v2.26941c0,0.35001 -0.0096,0.73502 -0.02879,1.15503c-0.02032,0.42114 -0.05871,0.85188 -0.11516,1.29221c-0.05645,0.44033 -0.13831,0.86655 -0.24557,1.27866c-0.10726,0.41211 -0.24839,0.79034 -0.4234,1.1347c-0.0621,-0.04516 -0.14396,-0.09315 -0.24557,-0.14396c-0.10162,-0.05081 -0.20492,-0.10049 -0.30993,-0.14904c-0.10387,-0.04742 -0.19533,-0.0796 -0.27436,-0.09653c0.16936,-0.32743 0.30485,-0.68195 0.40646,-1.06357c0.10162,-0.38049 0.1767,-0.77115 0.22525,-1.17196c0.04742,-0.40082 0.07847,-0.79203 0.09315,-1.17366c0.01355,-0.38049 0.02032,-0.73163 0.02032,-1.05341v-2.27788M329.02971,197.48485l0.91454,-0.2117c0.09597,0.18065 0.1846,0.37824 0.26589,0.59276c0.08242,0.21452 0.14057,0.39799 0.17444,0.55042l-0.97381,0.2371c-0.02258,-0.15807 -0.07057,-0.34719 -0.14396,-0.56735c-0.07339,-0.22017 -0.15242,-0.42057 -0.2371,-0.60122zM336.54924,198.79738c0.23146,0.95406 0.56058,1.80367 0.98736,2.54885c0.42566,0.74518 0.98567,1.36898 1.68004,1.87142c0.69437,0.50243 1.55246,0.86938 2.57426,1.10083c-0.06774,0.0621 -0.14113,0.14396 -0.22017,0.24557c-0.07903,0.10162 -0.15242,0.20605 -0.22017,0.31331c-0.06774,0.10726 -0.12702,0.20605 -0.17783,0.29638c-0.79599,-0.20888 -1.49036,-0.49848 -2.08311,-0.86881c-0.59276,-0.3692 -1.0997,-0.81349 -1.52084,-1.33285c-0.42001,-0.51937 -0.77679,-1.11382 -1.07035,-1.78335c-0.29356,-0.6684 -0.53913,-1.40624 -0.73671,-2.21352l0.78752,-0.17783M334.27983,197.7643h4.59809v0.92301h-4.59809v-0.92301M340.33441,199.7966h0.16936l0.16936,-0.04234l0.62663,0.24557c-0.16936,0.73953 -0.40364,1.39269 -0.70284,1.95948c-0.2992,0.56792 -0.65768,1.06188 -1.07543,1.48189c-0.41775,0.42114 -0.88349,0.77849 -1.39721,1.07204c-0.51372,0.29356 -1.06978,0.5363 -1.66819,0.72824c-0.03387,-0.08468 -0.08016,-0.1767 -0.13887,-0.27606c-0.05984,-0.09823 -0.12363,-0.19533 -0.19138,-0.2913c-0.06774,-0.09597 -0.13266,-0.175 -0.19476,-0.2371c0.5363,-0.14678 1.04325,-0.34719 1.52084,-0.60122c0.47646,-0.25404 0.90494,-0.56735 1.28543,-0.93994c0.38162,-0.37259 0.70961,-0.80333 0.98398,-1.29221c0.27323,-0.48775 0.47759,-1.03648 0.61308,-1.64617v-0.16089M338.74244,199.7966h1.7952v0.85526h-1.97303l0.17783,-0.85526M335.66857,198.01833h0.95688v1.26172c0,0.33307 -0.01242,0.69268 -0.03726,1.07882c-0.02597,0.38727 -0.08016,0.78808 -0.16258,1.20245c-0.08129,0.41549 -0.20097,0.83212 -0.35904,1.24987c-0.15807,0.41775 -0.36694,0.82534 -0.62663,1.22277c-0.25968,0.39856 -0.58711,0.77566 -0.98228,1.13132c-0.04516,-0.08468 -0.10726,-0.1767 -0.18629,-0.27606c-0.07903,-0.09823 -0.16258,-0.19533 -0.25065,-0.2913c-0.08694,-0.09597 -0.16428,-0.17218 -0.23202,-0.22863c0.42904,-0.37824 0.76945,-0.78752 1.02123,-1.22785c0.25065,-0.44033 0.43807,-0.89083 0.56227,-1.35148c0.1242,-0.45953 0.20492,-0.90551 0.24218,-1.33794c0.03613,-0.4313 0.05419,-0.82478 0.05419,-1.18043v-1.25326M338.7001,197.7643h0.93147c-0.05645,0.32178 -0.12137,0.65881 -0.19476,1.01107c-0.07339,0.3534 -0.14565,0.69211 -0.21678,1.01615c-0.07,0.32517 -0.13887,0.61195 -0.20662,0.86034h-0.99922c0.07903,-0.25968 0.16089,-0.55493 0.24557,-0.88575c0.08468,-0.32969 0.16484,-0.6684 0.24049,-1.01615c0.07678,-0.34662 0.14339,-0.67518 0.19984,-0.98567zM343.12037,197.58647h6.24934v0.6605h-6.24934v-0.6605M343.49296,200.99905h6.29168v0.62663h-6.29168v-0.62663M344.26354,201.89665h5.05536v0.55042h-5.05536v-0.55042M343.47602,202.73498h6.6304v0.60969h-6.6304v-0.60969M343.68772,199.44095h1.78674v0.4742h-1.78674v-0.4742M343.50142,200.22h1.9815v0.46574h-1.9815v-0.46574M346.99022,200.22h2.0069v0.46574h-2.0069v-0.46574M346.99022,199.44095h1.80367v0.4742h-1.80367v-0.4742M345.7793,197.86591h0.8976v2.96378h-0.8976v-2.96378M342.57842,198.58569h7.35018v1.48189h-0.88067v-0.93994h-5.63118v0.93994h-0.83833v-1.48189M343.08649,200.99905h0.84679v1.16858c0,0.2371 -0.01411,0.49227 -0.04234,0.7655c-0.02823,0.27436 -0.08073,0.55267 -0.1575,0.83494c-0.07565,0.28226 -0.18291,0.55437 -0.32178,0.81631c-0.13775,0.26307 -0.3167,0.50187 -0.53687,0.71639c-0.04516,-0.05645 -0.10726,-0.12307 -0.18629,-0.19984c-0.07903,-0.07565 -0.16258,-0.14904 -0.25065,-0.22017c-0.08694,-0.07 -0.16428,-0.12194 -0.23202,-0.15581c0.26533,-0.25404 0.46009,-0.53066 0.58429,-0.82986c0.1242,-0.2992 0.20436,-0.6001 0.24049,-0.90268c0.03726,-0.30146 0.05589,-0.58203 0.05589,-0.84171v-1.15164M346.98175,203.05676c0.16936,0.27662 0.40928,0.50638 0.71978,0.68929c0.31049,0.18404 0.68139,0.32799 1.11269,0.43187c0.43243,0.105 0.91397,0.17444 1.44463,0.20831c-0.07903,0.07903 -0.16089,0.18629 -0.24557,0.32178c-0.08468,0.13549 -0.15242,0.25968 -0.20323,0.37259c-0.58147,-0.0621 -1.09914,-0.16936 -1.55302,-0.32178c-0.45501,-0.15242 -0.84623,-0.35735 -1.17366,-0.61477c-0.32743,-0.2563 -0.5984,-0.57074 -0.81292,-0.94333l0.71131,-0.14396M348.95478,203.27693l0.66897,0.33872c-0.20323,0.13549 -0.41775,0.26081 -0.64356,0.37598c-0.22581,0.11629 -0.43187,0.21678 -0.61816,0.30146l-0.55042,-0.30485c0.1242,-0.06774 0.25517,-0.14283 0.39291,-0.22525c0.13887,-0.08129 0.27436,-0.16597 0.40646,-0.25404c0.13323,-0.08694 0.24783,-0.16428 0.3438,-0.23202M344.33128,205.24149l-0.04234,-0.59276l0.35565,-0.24557l2.33715,-0.33025c-0.02258,0.10162 -0.04234,0.21847 -0.05928,0.35057c-0.01694,0.13323 -0.0254,0.24218 -0.0254,0.32686c-0.51937,0.08468 -0.93881,0.15355 -1.25834,0.20662c-0.31839,0.05419 -0.56509,0.09823 -0.7401,0.1321c-0.175,0.03387 -0.30202,0.0621 -0.38106,0.08468c-0.07903,0.02258 -0.14113,0.04516 -0.18629,0.06774M344.33128,205.24149c-0.02258,-0.06774 -0.05645,-0.14565 -0.10162,-0.23372c-0.04516,-0.08694 -0.09484,-0.17444 -0.14904,-0.26251c-0.05307,-0.08694 -0.10218,-0.15863 -0.14734,-0.21509c0.09597,-0.05081 0.19871,-0.13718 0.30823,-0.25912c0.11065,-0.12081 0.16597,-0.27718 0.16597,-0.46912v-0.81292l0.88067,0.01694v1.38028c0,0 -0.03274,0.01976 -0.09823,0.05928c-0.06436,0.03952 -0.14283,0.09315 -0.23541,0.16089c-0.09371,0.06774 -0.18855,0.13831 -0.28452,0.2117c-0.09597,0.07339 -0.1767,0.14791 -0.24218,0.22355c-0.06436,0.07678 -0.09653,0.14339 -0.09653,0.19984zM354.76379,198.20463l0.8976,0.04234c-0.04516,1.01615 -0.12307,1.95892 -0.23372,2.82829c-0.10952,0.86938 -0.27888,1.6552 -0.50808,2.35748c-0.22807,0.7034 -0.54534,1.31479 -0.9518,1.83416c-0.04516,-0.05081 -0.11742,-0.11178 -0.21678,-0.18291c-0.09823,-0.07 -0.20097,-0.14057 -0.30823,-0.2117c-0.10726,-0.07 -0.19759,-0.12194 -0.27097,-0.15581c0.40082,-0.45727 0.71131,-1.0122 0.93147,-1.6648c0.22017,-0.65147 0.37824,-1.38648 0.4742,-2.20505c0.09597,-0.81857 0.15807,-1.69923 0.18629,-2.642M353.88312,197.86591h3.34484v0.84679h-3.34484v-0.84679M356.76222,200.07604h1.05849v0.78752h-1.30406l0.24557,-0.78752M357.57515,200.07604h0.16936l0.16089,-0.03387l0.55888,0.22017c-0.16371,0.8355 -0.40364,1.57617 -0.71978,2.22199c-0.31614,0.64695 -0.68873,1.19906 -1.11777,1.65633c-0.42904,0.45727 -0.90042,0.82704 -1.41415,1.1093c-0.04516,-0.06774 -0.10557,-0.14678 -0.18121,-0.2371c-0.07678,-0.09033 -0.15637,-0.1767 -0.2388,-0.25912c-0.08129,-0.08129 -0.15581,-0.14452 -0.22355,-0.18968c0.50243,-0.24839 0.95518,-0.573 1.35826,-0.97381c0.4042,-0.40082 0.74744,-0.87954 1.0297,-1.43616c0.28226,-0.5555 0.48832,-1.1889 0.61816,-1.90021v-0.17783M355.45816,200.35549c0.18629,0.5984 0.43582,1.16688 0.74857,1.70544c0.31388,0.53969 0.68421,1.01841 1.11099,1.43616c0.42566,0.41775 0.90381,0.74518 1.43447,0.98228c-0.06774,0.05645 -0.14,0.12815 -0.21678,0.21509c-0.07565,0.08807 -0.14734,0.17726 -0.21509,0.26759c-0.06774,0.09033 -0.1242,0.175 -0.16936,0.25404c-0.55324,-0.28791 -1.05003,-0.66332 -1.49036,-1.12624c-0.44033,-0.46291 -0.82308,-0.99357 -1.14825,-1.59197c-0.32404,-0.5984 -0.59897,-1.23914 -0.82478,-1.92222l0.77058,-0.22017M356.8215,197.86591h0.92301c-0.07903,0.33307 -0.16823,0.68308 -0.26759,1.05003c-0.09823,0.36694 -0.19533,0.71978 -0.2913,1.05849c-0.09597,0.33872 -0.18347,0.6351 -0.26251,0.88913h-0.8976c0.09033,-0.26533 0.18347,-0.57017 0.27944,-0.91454c0.09597,-0.34436 0.19025,-0.69719 0.28283,-1.05849c0.09371,-0.3613 0.17162,-0.70284 0.23372,-1.02462M351.01249,203.10757c-0.01694,-0.05645 -0.04121,-0.13266 -0.07282,-0.22863c-0.03048,-0.09597 -0.06379,-0.19646 -0.09992,-0.30146c-0.03726,-0.10387 -0.07282,-0.1925 -0.1067,-0.26589c0.10726,-0.02258 0.21339,-0.08186 0.31839,-0.17783c0.10387,-0.09597 0.22355,-0.22299 0.35904,-0.38106c0.07339,-0.07903 0.17952,-0.20775 0.31839,-0.38614c0.13775,-0.17726 0.2913,-0.39009 0.46066,-0.63848c0.16936,-0.24839 0.34154,-0.51654 0.51654,-0.80445c0.175,-0.28791 0.33307,-0.57864 0.4742,-0.8722l0.73671,0.46574c-0.32743,0.57582 -0.69437,1.14035 -1.10083,1.69359c-0.40646,0.55324 -0.81857,1.03873 -1.23632,1.45649v0.01694c0,0 -0.02823,0.01411 -0.08468,0.04234c-0.05645,0.02823 -0.12307,0.06492 -0.19984,0.11008c-0.07565,0.04516 -0.1417,0.09145 -0.19815,0.13887c-0.05645,0.04855 -0.08468,0.09258 -0.08468,0.1321M351.01249,203.10757l-0.08468,-0.74518l0.37259,-0.29638l2.41336,-0.64356c0,0.11855 0.00395,0.25122 0.01186,0.39799c0.00903,0.14678 0.01919,0.26815 0.03048,0.36412c-0.54759,0.16371 -0.99075,0.29638 -1.32947,0.39799c-0.33872,0.10162 -0.60122,0.1846 -0.78752,0.24896c-0.18629,0.06549 -0.3246,0.11799 -0.41493,0.1575c-0.09033,0.03952 -0.16089,0.07903 -0.2117,0.11855M350.96168,200.98211c-0.01694,-0.0621 -0.04234,-0.14283 -0.07621,-0.24218c-0.03387,-0.09823 -0.06944,-0.20267 -0.1067,-0.31331c-0.03613,-0.10952 -0.07113,-0.20097 -0.105,-0.27436c0.08468,-0.02258 0.16823,-0.07791 0.25065,-0.16597c0.08129,-0.08694 0.1671,-0.20097 0.25743,-0.3421c0.05081,-0.07339 0.12137,-0.18799 0.2117,-0.3438c0.09033,-0.15468 0.19025,-0.34098 0.29977,-0.55888c0.11065,-0.21678 0.2213,-0.45106 0.33194,-0.70284c0.10952,-0.25065 0.2038,-0.50017 0.28283,-0.74857l0.82986,0.38953c-0.14113,0.33872 -0.30372,0.67856 -0.48775,1.01954c-0.18291,0.3421 -0.37711,0.66953 -0.58259,0.98228c-0.20662,0.31388 -0.41154,0.59501 -0.61477,0.84341v0.01694c0,0 -0.0254,0.01524 -0.07621,0.04573c-0.05081,0.03161 -0.10895,0.07113 -0.17444,0.11855c-0.06436,0.04855 -0.12081,0.09653 -0.16936,0.14396c-0.04742,0.04855 -0.07113,0.09258 -0.07113,0.1321M350.96168,200.98211l-0.0254,-0.64356l0.38106,-0.25404l1.47342,-0.12702c-0.02258,0.11291 -0.04234,0.23992 -0.05928,0.38106c-0.01694,0.14113 -0.0254,0.25968 -0.0254,0.35565c-0.33307,0.03387 -0.60405,0.06605 -0.81292,0.09653c-0.20888,0.03161 -0.37541,0.05702 -0.49961,0.07621c-0.1242,0.02032 -0.21734,0.03895 -0.27944,0.05589c-0.0621,0.01694 -0.11291,0.03669 -0.15242,0.05928M350.8262,203.92049c0.24275,-0.07903 0.5205,-0.1767 0.83325,-0.29299c0.31388,-0.11516 0.64752,-0.23936 1.00091,-0.37259c0.35227,-0.1321 0.7034,-0.26589 1.05341,-0.40138l0.17783,0.77905c-0.49114,0.20888 -0.98623,0.41775 -1.48528,0.62663c-0.50017,0.20888 -0.95349,0.39517 -1.35995,0.55888z" fill="#ffffff" fill-rule="nonzero" stroke-width="1"/></g></g></svg>