<svg version="1.1" xmlns="http://www.w3.org/2000/svg" xmlns:xlink="http://www.w3.org/1999/xlink" width="209.18703" height="32" viewBox="0,0,209.18703,32"><g transform="translate(-240.18552,-164)"><g stroke="none" stroke-miterlimit="10"><path d="M241.37255,196v-32h208v32z" fill="none" stroke-width="0"/><path d="M246.58452,172.36921h12.90054v1.78571h-12.90054v-1.78571M246.3384,181.83764h13.2492v1.78571h-13.2492v-1.78571M251.42477,184.03865l1.62026,-0.56063c0.24611,0.3876 0.50316,0.81672 0.77116,1.28737c0.26525,0.47065 0.47309,0.86518 0.62349,1.18355l-1.70229,0.66445c-0.13673,-0.33223 -0.33089,-0.74474 -0.58248,-1.23754c-0.25433,-0.49003 -0.4977,-0.93577 -0.73015,-1.33721M249.20974,184.99379h1.92789v2.69933c0,0.24917 0.05059,0.40836 0.15177,0.47757c0.10391,0.06921 0.33362,0.10382 0.68912,0.10382c0.08204,0 0.21877,0 0.41019,0c0.19142,0 0.4061,0 0.64401,0c0.24065,0 0.46762,0 0.68092,0c0.21057,0 0.37054,0 0.47992,0c0.2051,0 0.35961,-0.04153 0.46352,-0.12459c0.10118,-0.08305 0.17228,-0.25609 0.2133,-0.5191c0.04102,-0.26301 0.0752,-0.65061 0.10254,-1.1628c0.19142,0.13843 0.45531,0.26993 0.79167,0.39452c0.33362,0.12459 0.63033,0.21456 0.89011,0.26993c-0.05469,0.74751 -0.16408,1.32476 -0.32815,1.73173c-0.16408,0.40975 -0.39652,0.69352 -0.69732,0.85133c-0.30081,0.16057 -0.711,0.24087 -1.23058,0.24087c-0.10939,0 -0.28714,0 -0.53325,0c-0.24611,0 -0.51547,0 -0.80808,0c-0.29533,0 -0.56606,0 -0.81218,0c-0.24611,0 -0.42387,0 -0.53325,0c-0.66997,0 -1.18682,-0.06921 -1.55053,-0.20764c-0.36096,-0.13843 -0.60982,-0.37099 -0.74655,-0.69767c-0.13673,-0.32392 -0.2051,-0.76965 -0.2051,-1.33721v-2.7201M247.09726,184.6408l1.66128,0.64369c-0.17776,0.67829 -0.4061,1.40504 -0.68501,2.18023c-0.28167,0.77519 -0.61391,1.44657 -0.99677,2.01412l-1.66128,-0.97591c0.24611,-0.33223 0.47582,-0.71705 0.68912,-1.15449c0.21057,-0.43466 0.40062,-0.88732 0.57017,-1.35797c0.17228,-0.47065 0.31311,-0.92054 0.42249,-1.34967M255.9574,185.20143l1.59975,-0.70598c0.30081,0.40144 0.59478,0.83749 0.88192,1.30814c0.28714,0.47065 0.54692,0.93715 0.77936,1.3995c0.23244,0.46511 0.40336,0.87764 0.51273,1.23754l-1.7228,0.78903c-0.10939,-0.35991 -0.26663,-0.77519 -0.47172,-1.24585c-0.2051,-0.47065 -0.4471,-0.95238 -0.72604,-1.44518c-0.28167,-0.49003 -0.56606,-0.93577 -0.8532,-1.33721M255.34212,176.91655v2.26329h1.68179v-2.26329h-1.68179M252.20414,176.91655v2.26329h1.64077v-2.26329h-1.64077M249.08668,176.91655v2.26329h1.57924v-2.26329h-1.57924M247.36389,175.33848h11.46486v5.4402h-11.46486v-5.4402M251.97854,170.77037l2.29707,0.08305c-0.06837,0.60908 -0.1463,1.22094 -0.23381,1.83555c-0.09024,0.61739 -0.17911,1.20293 -0.26663,1.75665c-0.09024,0.55371 -0.17638,1.03821 -0.25842,1.45349l-2.05097,-0.12459c0.08204,-0.45681 0.15724,-0.98007 0.22561,-1.56977c0.06837,-0.58693 0.12716,-1.18217 0.17638,-1.78571c0.04649,-0.60077 0.0834,-1.15033 0.11075,-1.64868M244.75916,175.40077l1.96892,0.70598c-0.45121,0.91362 -0.97078,1.84385 -1.55873,2.7907c-0.58795,0.94961 -1.2005,1.8494 -1.83766,2.69933c-0.63443,0.85271 -1.27296,1.60437 -1.91559,2.25498c-0.06837,-0.16611 -0.17776,-0.38067 -0.32815,-0.64369c-0.1504,-0.26301 -0.30491,-0.53018 -0.46352,-0.80149c-0.15587,-0.26854 -0.30218,-0.48588 -0.43891,-0.65199c0.5606,-0.52603 1.12119,-1.13233 1.68179,-1.81893c0.5606,-0.68383 1.09111,-1.4175 1.59154,-2.20099c0.4977,-0.78073 0.93114,-1.55869 1.3003,-2.33389M244.4105,170.83266l1.96892,0.83057c-0.43753,0.63677 -0.93934,1.29707 -1.5054,1.9809c-0.5688,0.6866 -1.15401,1.34413 -1.75562,1.97259c-0.60161,0.63123 -1.18273,1.19601 -1.74331,1.69435c-0.08204,-0.16611 -0.18185,-0.36407 -0.29944,-0.59385c-0.11486,-0.22702 -0.24065,-0.45127 -0.37738,-0.67276c-0.13673,-0.22149 -0.25978,-0.40836 -0.36918,-0.56063c0.47856,-0.40144 0.97763,-0.87209 1.4972,-1.41196c0.51958,-0.53987 1.00907,-1.09358 1.46849,-1.66113c0.45668,-0.56755 0.82859,-1.09358 1.11572,-1.57807M243.07737,179.7197l1.02548,-1.05898l1.02548,0.33223v11.23339h-2.05097zM277.28739,179.82352h2.17402c0,0 -0.00273,0.05538 -0.0082,0.16611c-0.0082,0.11074 -0.0123,0.23533 -0.0123,0.37375c0,0.13843 -0.00684,0.26301 -0.02051,0.37375c-0.09571,1.85493 -0.19826,3.35963 -0.30764,4.51412c-0.10939,1.15725 -0.23928,2.04734 -0.38968,2.67027c-0.1504,0.62293 -0.335,1.06589 -0.55376,1.32891c-0.23244,0.27685 -0.48129,0.47065 -0.74655,0.58139c-0.26799,0.11074 -0.57974,0.18688 -0.93525,0.22841c-0.30081,0.04153 -0.69323,0.06229 -1.17725,0.06229c-0.48677,0 -0.99677,-0.00692 -1.53001,-0.02077c-0.02734,-0.30454 -0.09844,-0.65061 -0.2133,-1.03821c-0.11759,-0.3876 -0.25842,-0.7129 -0.42249,-0.97591c0.5059,0.04153 0.97763,0.06506 1.41516,0.0706c0.43753,0.00831 0.75886,0.01246 0.96395,0.01246c0.17776,0 0.32405,-0.01384 0.43891,-0.04153c0.11759,-0.02769 0.23108,-0.0969 0.34046,-0.20764c0.1504,-0.16611 0.28714,-0.52603 0.41019,-1.07973c0.12305,-0.55371 0.22971,-1.37043 0.31996,-2.45017c0.08751,-1.07973 0.17228,-2.48478 0.25433,-4.21511v-0.353M267.15565,182.4398h2.03045v4.92109h-2.03045v-4.92109M272.28304,183.2496h2.00994v5.79319h-2.00994v-5.79319M262.21283,183.29113h2.00994v3.32226h8.90116v1.84801h-10.9111v-5.17027M274.99032,172.59761h2.05097c0,0 0,0.0969 0,0.2907c0,0.1938 -0.00684,0.353 -0.02051,0.47757c-0.06837,1.03821 -0.13947,1.90338 -0.2133,2.59551c-0.07657,0.69214 -0.16545,1.23893 -0.26663,1.64037c-0.10391,0.40144 -0.24475,0.69214 -0.42249,0.87209c-0.16408,0.20764 -0.34457,0.35576 -0.54145,0.44435c-0.19962,0.09136 -0.42933,0.15089 -0.68912,0.17857c-0.21877,0.04153 -0.50181,0.06506 -0.8491,0.0706c-0.35004,0.00831 -0.7233,0.00554 -1.11983,-0.00831c-0.02734,-0.30454 -0.08887,-0.64092 -0.18458,-1.00913c-0.09571,-0.36545 -0.21877,-0.67968 -0.36918,-0.94269c0.31448,0.02769 0.60161,0.04844 0.8614,0.06229c0.25978,0.01384 0.45805,0.02077 0.59478,0.02077c0.12305,0 0.23244,-0.01384 0.32815,-0.04153c0.09571,-0.02769 0.17776,-0.08305 0.24611,-0.16611c0.13673,-0.15227 0.25295,-0.53987 0.34866,-1.1628c0.09571,-0.62293 0.17776,-1.64037 0.24611,-3.05233v-0.26993M268.96049,170.77037l2.62523,0.22841c-0.21877,0.51218 -0.46488,1.00637 -0.73834,1.48256c-0.27346,0.47896 -0.51958,0.89147 -0.73834,1.23754l-1.94841,-0.353c0.1504,-0.3876 0.30491,-0.82364 0.46352,-1.30814c0.15587,-0.48449 0.26799,-0.91362 0.33635,-1.28737M266.70443,176.5428l1.08701,-1.41196c0.47856,0.16611 0.99129,0.36683 1.53822,0.60216c0.54692,0.23533 1.0706,0.47757 1.57103,0.72675c0.4977,0.24917 0.91062,0.48449 1.23878,0.70598l-1.14854,1.55731c-0.30081,-0.22149 -0.69732,-0.46373 -1.18955,-0.72675c-0.49224,-0.26301 -1.00771,-0.52325 -1.54643,-0.78073c-0.54145,-0.25471 -1.0583,-0.47896 -1.55053,-0.67276M275.62611,172.59761v1.99335h-9.76257v5.23256h12.08015v1.95183h-14.23366v-9.17774zM281.82001,182.27369h18.41761v2.01412h-18.41761v-2.01412M285.90142,175.33848h10.21379v1.82724h-10.21379v-1.82724M285.92193,178.78532h10.23428v1.80648h-10.23428v-1.80648M284.99899,171.80858h12.53136v11.37874h-2.21504v-9.50997h-8.18333v9.50997h-2.13299v-11.37874M293.12079,185.07684l1.86637,-0.83057c0.58795,0.47065 1.19366,1.0036 1.81715,1.59884c0.62076,0.59524 1.20186,1.1794 1.74331,1.75249c0.53872,0.57586 0.98582,1.08528 1.34133,1.52824l-1.92789,1.01744c-0.34183,-0.47065 -0.7821,-1.00775 -1.32082,-1.61129c-0.54145,-0.60077 -1.11983,-1.2057 -1.73511,-1.81479c-0.61529,-0.60908 -1.21007,-1.15587 -1.78434,-1.64037M283.64535,189.70725c-0.04102,-0.16611 -0.10254,-0.37375 -0.18458,-0.62293c-0.08204,-0.24917 -0.16408,-0.50941 -0.24611,-0.78073c-0.08204,-0.26854 -0.17091,-0.49972 -0.26663,-0.69352c0.23244,-0.05538 0.46488,-0.1495 0.69732,-0.28239c0.23244,-0.13012 0.48539,-0.30593 0.75886,-0.52741c0.2051,-0.13843 0.51,-0.3876 0.91473,-0.74751c0.40199,-0.35991 0.8491,-0.79596 1.34133,-1.30814c0.49224,-0.51218 0.94344,-1.05205 1.35363,-1.6196l2.25606,0.87209c-0.79305,0.89978 -1.63667,1.75387 -2.53088,2.56229c-0.89696,0.81119 -1.76246,1.49363 -2.59651,2.04734v0.04153c0,0 -0.0752,0.03461 -0.22561,0.10382c-0.1504,0.06921 -0.32405,0.15504 -0.52095,0.25747c-0.19962,0.10521 -0.37464,0.2201 -0.52505,0.34469c-0.1504,0.12459 -0.22561,0.24225 -0.22561,0.353M283.64535,189.70725l-0.02051,-1.53655l1.31261,-0.72675l11.87505,-0.47757c0.04102,0.27685 0.10254,0.58417 0.18458,0.92193c0.08204,0.34053 0.14357,0.61462 0.18458,0.82226c-1.88689,0.0969 -3.51398,0.18273 -4.88128,0.25747c-1.36731,0.07752 -2.52268,0.14397 -3.46613,0.19933c-0.94344,0.05538 -1.7187,0.10382 -2.32579,0.14535c-0.60982,0.04153 -1.09521,0.07891 -1.45618,0.11213c-0.3637,0.03599 -0.65083,0.07475 -0.8614,0.11628c-0.2133,0.04153 -0.39515,0.0969 -0.54556,0.16611z" fill="#ffffff" stroke-width="1"/></g></g></svg>