<svg version="1.1" xmlns="http://www.w3.org/2000/svg" xmlns:xlink="http://www.w3.org/1999/xlink" width="177.94882" height="32.534" viewBox="0,0,177.94882,32.534"><g transform="translate(-240,-180)"><g stroke="none" stroke-miterlimit="10"><path d="M248.67514,180h160.59854c4.80603,0 8.67514,3.568 8.67514,8v16.534c0,4.432 -3.86911,8 -8.67514,8h-160.59854c-4.80603,0 -8.67514,-3.568 -8.67514,-8v-16.534c0,-4.432 3.86911,-8 8.67514,-8z" fill-opacity="0.7" fill="#000000" fill-rule="evenodd" stroke-width="0"/><path d="M250.5033,187.37316h7.30423v0.89428h-7.30423v-0.89428M253.15191,190.17756h4.31838v0.85955h-4.31838v-0.85955M252.83111,193.15562h4.95174v0.86824h-4.95174v-0.86824M254.87926,188.66683h0.88835v4.95763h-0.88835v-4.95763M253.12723,186.13158l0.92125,0.22574c-0.19741,0.6888 -0.44802,1.36718 -0.75181,2.03515c-0.30489,0.66912 -0.6712,1.29309 -1.09893,1.87192c-0.42773,0.57882 -0.92948,1.07951 -1.50526,1.50205c-0.02742,-0.08682 -0.0669,-0.18522 -0.11845,-0.2952c-0.05264,-0.10998 -0.10638,-0.2188 -0.16122,-0.32646c-0.05484,-0.1065 -0.10419,-0.19738 -0.14806,-0.27263c0.37289,-0.25468 0.71013,-0.5632 1.01174,-0.92554c0.3016,-0.36119 0.57195,-0.75305 0.81103,-1.17559c0.23799,-0.42254 0.44363,-0.8584 0.61691,-1.30756c0.17219,-0.44801 0.31312,-0.89197 0.42279,-1.33187M251.49036,189.75213h0.88835v4.46274h-0.88835zM259.32925,186.39205h6.07041v0.67722h-6.07041v-0.67722M259.69117,189.89105h6.11154v0.64249h-6.11154v-0.64249M260.43969,190.81138h4.91062v0.56435h-4.91062v-0.56435M259.67472,191.67093h6.44056v0.62513h-6.44056v-0.62513M259.88035,188.29349h1.73558v0.48621h-1.73558v-0.48621M259.69939,189.09227h1.92476v0.47753h-1.92476v-0.47753M263.0883,189.09227h1.94944v0.47753h-1.94944v-0.47753M263.0883,188.29349h1.75203v0.48621h-1.75203v-0.48621M261.91205,186.67857h0.8719v3.03883h-0.8719v-3.03883M258.80282,187.41657h7.13972v1.51941h-0.85545v-0.96374h-5.46995v0.96374h-0.81432v-1.51941M259.29635,189.89105h0.82255v1.19817c0,0.24311 -0.01371,0.50473 -0.04113,0.78489c-0.02742,0.28131 -0.07787,0.56667 -0.15135,0.85608c-0.07458,0.28941 -0.17877,0.56841 -0.31257,0.83698c-0.1349,0.26973 -0.30928,0.51458 -0.52314,0.73453c-0.04387,-0.05788 -0.10419,-0.12618 -0.18096,-0.2049c-0.07677,-0.07756 -0.15738,-0.15281 -0.24183,-0.22574c-0.08555,-0.07177 -0.16122,-0.12503 -0.22702,-0.15976c0.25773,-0.26047 0.44692,-0.5441 0.56756,-0.85087c0.12064,-0.30678 0.19906,-0.61529 0.23525,-0.92554c0.0351,-0.30909 0.05264,-0.59677 0.05264,-0.86303v-1.1808M263.08007,192.00086c0.16451,0.28362 0.39757,0.51921 0.69917,0.70674c0.3016,0.1887 0.66188,0.3363 1.08083,0.4428c0.42005,0.10766 0.8878,0.17886 1.40327,0.21359c-0.07677,0.08104 -0.15628,0.19101 -0.23854,0.32993c-0.08225,0.13892 -0.14806,0.26626 -0.19741,0.38202c-0.56482,-0.06367 -1.06767,-0.17365 -1.50855,-0.32993c-0.44198,-0.15628 -0.822,-0.3664 -1.14005,-0.63034c-0.31805,-0.26279 -0.58127,-0.58519 -0.78965,-0.96722l0.69094,-0.1476M264.99661,192.2266l0.64981,0.34729c-0.19741,0.13892 -0.40579,0.26742 -0.62514,0.3855c-0.21935,0.11924 -0.4195,0.22227 -0.60046,0.30909l-0.53466,-0.31257c0.12064,-0.06946 0.24841,-0.14644 0.38331,-0.23095c0.1338,-0.08335 0.26541,-0.17017 0.39482,-0.26047c0.12832,-0.08914 0.23909,-0.16844 0.33231,-0.2379M260.50549,194.24091l-0.04113,-0.60777l0.34547,-0.25179l2.27023,-0.33861c-0.02193,0.10419 -0.04113,0.22401 -0.05758,0.35945c-0.01645,0.1366 -0.02468,0.24832 -0.02468,0.33514c-0.5045,0.08682 -0.91193,0.15744 -1.22231,0.21185c-0.30928,0.05557 -0.54891,0.10072 -0.71891,0.13544c-0.16999,0.03473 -0.29338,0.06367 -0.37015,0.08682c-0.07677,0.02315 -0.13709,0.04631 -0.18096,0.06946M260.50549,194.24091c-0.02193,-0.06946 -0.05484,-0.14934 -0.09871,-0.23963c-0.04387,-0.08914 -0.09158,-0.17886 -0.14312,-0.26915c-0.05264,-0.08914 -0.1009,-0.16265 -0.14477,-0.22053c0.09322,-0.05209 0.19357,-0.14065 0.30105,-0.26568c0.10638,-0.12387 0.15957,-0.2842 0.15957,-0.481v-0.83351l0.85545,0.01736v1.41523c0,0 -0.03126,0.02026 -0.09377,0.06078c-0.06361,0.04052 -0.14093,0.09551 -0.23196,0.16496c-0.08993,0.06946 -0.18151,0.14181 -0.27473,0.21706c-0.09322,0.07525 -0.17109,0.15165 -0.2336,0.22921c-0.06361,0.07872 -0.09542,0.14702 -0.09542,0.2049zM268.49244,188.61474h5.74962v0.738h-5.74962v-0.738M268.56647,191.14131h4.57337v0.738h-4.57337v-0.738M269.66046,187.98961h0.839v2.04036h1.6451v-2.04036h0.86368v2.75231h-3.34777v-2.75231M272.90953,191.14131h0.17274l0.15628,-0.03473l0.55111,0.30388c-0.22483,0.45148 -0.51821,0.83756 -0.88013,1.15823c-0.36192,0.32183 -0.7732,0.58982 -1.23382,0.80399c-0.46063,0.21417 -0.9569,0.38492 -1.48881,0.51226c-0.53192,0.12734 -1.08576,0.22574 -1.66155,0.2952c-0.0329,-0.10998 -0.0839,-0.24195 -0.15299,-0.39592c-0.068,-0.15281 -0.13764,-0.28131 -0.20893,-0.3855c0.52643,-0.04052 1.03641,-0.11171 1.52994,-0.21359c0.49353,-0.10072 0.94977,-0.235 1.36872,-0.40286c0.42005,-0.16786 0.7891,-0.37797 1.10715,-0.63034c0.31805,-0.25121 0.56482,-0.54757 0.74029,-0.88907v-0.12155M269.94013,191.70566c0.2687,0.33572 0.62678,0.62224 1.07425,0.85955c0.44637,0.23732 0.96293,0.42659 1.54968,0.56783c0.58675,0.14239 1.21737,0.23963 1.89186,0.29173c-0.06032,0.06367 -0.12338,0.14471 -0.18919,0.24311c-0.0658,0.0984 -0.12722,0.1968 -0.18425,0.2952c-0.05813,0.0984 -0.10364,0.18812 -0.13654,0.26915c-0.70191,-0.07525 -1.35337,-0.20432 -1.95438,-0.38723c-0.59991,-0.18175 -1.13567,-0.42486 -1.60726,-0.72932c-0.47159,-0.3033 -0.8719,-0.67202 -1.20092,-1.10613l0.75674,-0.30388M267.85085,186.913h6.47346v0.86824h-6.47346v-0.86824M267.43958,186.913h0.8719v2.32687c0,0.35887 -0.00987,0.75363 -0.02961,1.18427c-0.01864,0.4318 -0.05538,0.87345 -0.11022,1.32493c-0.05484,0.45148 -0.13435,0.8885 -0.23854,1.31104c-0.10419,0.42254 -0.24128,0.81035 -0.41127,1.16344c-0.06032,-0.04631 -0.13983,-0.09551 -0.23854,-0.1476c-0.09871,-0.05209 -0.19851,-0.10303 -0.29941,-0.15281c-0.102,-0.04862 -0.19138,-0.08161 -0.26815,-0.09898c0.16451,-0.33572 0.29612,-0.69922 0.39482,-1.0905c0.09871,-0.39013 0.17109,-0.79067 0.21715,-1.20164c0.04716,-0.41096 0.07732,-0.81209 0.09048,-1.20338c0.01426,-0.39013 0.02139,-0.75016 0.02139,-1.08009v-2.33556M270.3185,186.28787l0.88835,-0.21706c0.09322,0.18522 0.17986,0.38781 0.25993,0.60777c0.07896,0.21995 0.1349,0.40807 0.1678,0.56435l-0.94593,0.24311c-0.02193,-0.16207 -0.06855,-0.35598 -0.13983,-0.58172c-0.07129,-0.22574 -0.14806,-0.43122 -0.23031,-0.61645zM276.97292,189.24855v3.5424h-0.84723v-2.68285h-1.07754v-0.85955h1.92476M275.13864,186.93904l0.66626,-0.50358c0.15354,0.13892 0.31367,0.29346 0.48037,0.46364c0.1678,0.17133 0.32573,0.33919 0.47379,0.50358c0.14806,0.16554 0.2687,0.31777 0.36192,0.45669l-0.71562,0.57304c-0.07677,-0.13892 -0.18644,-0.2952 -0.32902,-0.46885c-0.14257,-0.17365 -0.29612,-0.35192 -0.46063,-0.53483c-0.16451,-0.18175 -0.32354,-0.34498 -0.47708,-0.48969M276.61922,192.40893c0.14257,0 0.28241,0.0492 0.4195,0.1476c0.13709,0.0984 0.32628,0.21127 0.56756,0.33861c0.27418,0.14471 0.59498,0.24021 0.96238,0.28652c0.36741,0.04631 0.77045,0.06946 1.20915,0.06946c0.28515,0 0.6032,-0.00753 0.95416,-0.02257c0.35095,-0.01389 0.69917,-0.03531 1.04464,-0.06425c0.34547,-0.02894 0.64981,-0.06078 0.91303,-0.09551c-0.0329,0.08104 -0.0658,0.17654 -0.09871,0.28652c-0.0329,0.10998 -0.06306,0.22111 -0.09048,0.3334c-0.02742,0.11345 -0.04387,0.21069 -0.04935,0.29173c-0.14257,0.01158 -0.32354,0.02315 -0.54288,0.03473c-0.21935,0.01158 -0.45953,0.02142 -0.72055,0.02952c-0.25993,0.00926 -0.51492,0.01679 -0.76497,0.02257c-0.24896,0.00579 -0.47488,0.00868 -0.67778,0.00868c-0.48805,0 -0.91687,-0.03068 -1.28647,-0.09203c-0.3707,-0.0602 -0.70684,-0.17133 -1.00844,-0.3334c-0.18644,-0.10419 -0.34821,-0.20432 -0.4853,-0.30041c-0.13709,-0.09493 -0.25773,-0.14239 -0.36192,-0.14239c-0.09322,0 -0.20125,0.04746 -0.32408,0.14239c-0.12393,0.09609 -0.2517,0.22053 -0.38331,0.37334c-0.13161,0.15397 -0.26596,0.31488 -0.40305,0.48274l-0.53466,-0.79878c0.29063,-0.28941 0.58236,-0.52847 0.87519,-0.71716c0.29392,-0.18754 0.55604,-0.28131 0.78636,-0.28131M278.41238,188.97072v0.85955h2.92827v-0.85955h-2.92827M277.60628,188.25008h4.58982v2.29214h-4.58982v-2.29214M277.34307,186.93036h5.15738v0.78141h-5.15738v-0.78141M279.43234,186.14027h0.85545v6.78093h-0.85545v-6.78093M279.21025,190.29912l0.64981,0.24311c-0.15903,0.30099 -0.35095,0.59156 -0.57578,0.87171c-0.22483,0.28131 -0.46995,0.53599 -0.73536,0.76405c-0.26651,0.22921 -0.53959,0.41907 -0.81926,0.56956c-0.03839,-0.07525 -0.09048,-0.15628 -0.15628,-0.24311c-0.0658,-0.08682 -0.13435,-0.17249 -0.20564,-0.257c-0.07129,-0.08335 -0.13709,-0.15107 -0.19741,-0.20317c0.2687,-0.11576 0.53192,-0.2651 0.78965,-0.44801c0.25773,-0.18175 0.49627,-0.3855 0.71562,-0.61124c0.21935,-0.22574 0.39757,-0.45438 0.53466,-0.68591M279.65443,190.83742l0.50175,-0.55567c0.26322,0.15628 0.5385,0.33282 0.82584,0.52962c0.28844,0.1968 0.56262,0.39649 0.82255,0.59908c0.26102,0.20259 0.47379,0.39071 0.6383,0.56435l-0.54288,0.63381c-0.14806,-0.17365 -0.34821,-0.3664 -0.60046,-0.57825c-0.25225,-0.21069 -0.52259,-0.42196 -0.81103,-0.63381c-0.28734,-0.21069 -0.56536,-0.39707 -0.83406,-0.55914zM286.96689,189.44825h3.01875v0.84219h-3.01875v-0.84219M288.0362,189.94314c0.16999,0.50937 0.39098,0.99268 0.66297,1.44995c0.27089,0.45727 0.59443,0.86071 0.97061,1.21032c0.37508,0.35077 0.79294,0.62745 1.25356,0.83003c-0.0658,0.05788 -0.13709,0.13429 -0.21386,0.22921c-0.07677,0.09609 -0.14916,0.19333 -0.21715,0.29173c-0.06909,0.0984 -0.12558,0.18812 -0.16945,0.26915c-0.49353,-0.24889 -0.93387,-0.57593 -1.32101,-0.98111c-0.38605,-0.40518 -0.72329,-0.86997 -1.01174,-1.39439c-0.28734,-0.52326 -0.52698,-1.09166 -0.71891,-1.70522l0.76497,-0.19969M289.76356,189.44825h0.16451l0.16451,-0.02605l0.55933,0.18233c-0.10967,0.70038 -0.29173,1.34692 -0.54617,1.93964c-0.25554,0.59387 -0.58236,1.1206 -0.98048,1.58019c-0.39702,0.46074 -0.87245,0.84161 -1.4263,1.1426c-0.0658,-0.10998 -0.15628,-0.23327 -0.27144,-0.36987c-0.11516,-0.13544 -0.22483,-0.24658 -0.32902,-0.3334c0.38386,-0.19101 0.72658,-0.42138 1.02819,-0.69112c0.3016,-0.26857 0.56372,-0.57246 0.78636,-0.91165c0.22154,-0.33803 0.4036,-0.70385 0.54617,-1.09745c0.14257,-0.3936 0.24402,-0.80457 0.30434,-1.2329v-0.18233M289.54147,186.43547h0.9048c0,0 -0.00165,0.04457 -0.00494,0.13371c-0.00219,0.0903 -0.00603,0.16439 -0.01152,0.22227c-0.01645,0.61355 -0.04826,1.06793 -0.09542,1.36313c-0.04606,0.2952 -0.11845,0.49779 -0.21715,0.60777c-0.08774,0.10419 -0.19028,0.1748 -0.30763,0.21185c-0.11845,0.0382 -0.2517,0.06599 -0.39976,0.08335c-0.14257,0.00579 -0.33012,0.00868 -0.56262,0.00868c-0.2336,0 -0.48201,-0.00579 -0.74523,-0.01736c-0.00548,-0.11576 -0.02906,-0.246 -0.07074,-0.39071c-0.04058,-0.14471 -0.09103,-0.26915 -0.15135,-0.37334c0.16451,0.01158 0.32244,0.02142 0.47379,0.02952c0.15025,0.00926 0.28405,0.01505 0.4014,0.01736c0.11845,0.00347 0.20783,0.00521 0.26815,0.00521c0.08225,0 0.14806,-0.00463 0.19741,-0.01389c0.04935,-0.0081 0.09322,-0.02952 0.13161,-0.06425c0.03839,-0.04631 0.06855,-0.13197 0.09048,-0.257c0.02193,-0.12387 0.04113,-0.3033 0.05758,-0.53831c0.01645,-0.23384 0.03016,-0.5331 0.04113,-0.89776v-0.13024M283.15026,190.59432c0.25225,-0.05788 0.53575,-0.12734 0.85052,-0.20838c0.31586,-0.08104 0.64817,-0.16786 0.99693,-0.26047c0.34766,-0.09261 0.69423,-0.18812 1.0397,-0.28652l0.10693,0.90297c-0.47708,0.14471 -0.95964,0.28768 -1.44769,0.42891c-0.48805,0.14239 -0.93496,0.26857 -1.34075,0.37855l-0.20564,-0.95506M283.26542,187.81596h2.80489v0.90297h-2.80489v-0.90297M284.34296,186.13158h0.89658v7.0414c0,0.24889 -0.02906,0.44106 -0.08719,0.57651c-0.05703,0.1366 -0.15683,0.23963 -0.29941,0.30909c-0.14257,0.07525 -0.32518,0.12271 -0.54782,0.14239c-0.22154,0.02084 -0.49682,0.03126 -0.82584,0.03126c-0.01645,-0.12155 -0.05045,-0.26915 -0.102,-0.4428c-0.05264,-0.17365 -0.10913,-0.32125 -0.16945,-0.4428c0.2029,0.00579 0.39647,0.00868 0.58072,0.00868c0.18315,0 0.30489,0 0.36521,0c0.07129,0 0.12064,-0.01331 0.14806,-0.03994c0.02742,-0.02547 0.04113,-0.07583 0.04113,-0.15107v-7.03272M286.34175,186.43547h3.47116v0.86824h-2.59925v6.90248h-0.8719zM291.90218,187.651h6.75313v4.28041h-0.92125v-3.36008h-4.94352v3.40349h-0.88835v-4.32382M292.36281,190.55959h5.88945v0.92033h-5.88945v-0.92033M294.78933,186.13158h0.92948v8.10065h-0.92948zM300.89264,194.60557l-0.23854,-0.63381c0.34547,-0.12155 0.60869,-0.28652 0.78965,-0.49489c0.18096,-0.20838 0.27144,-0.44859 0.27144,-0.72064l-0.08225,-0.82482l0.4524,0.74668c-0.0658,0.06946 -0.13983,0.11866 -0.22209,0.1476c-0.08225,0.02894 -0.16725,0.04341 -0.25499,0.04341c-0.19193,0 -0.36302,-0.06367 -0.51327,-0.19101c-0.15135,-0.12734 -0.22702,-0.30678 -0.22702,-0.53831c0,-0.23732 0.07567,-0.41965 0.22702,-0.54699c0.15025,-0.12734 0.32683,-0.19101 0.52972,-0.19101c0.27418,0 0.48256,0.10245 0.62514,0.30736c0.14257,0.20606 0.21386,0.48274 0.21386,0.83003c0,0.48621 -0.13983,0.91165 -0.4195,1.27631c-0.27967,0.36466 -0.66352,0.62802 -1.15157,0.7901zM308.18042,186.47888h1.90009v0.83351h-1.12689v6.90248h-0.7732v-7.73599M309.8502,186.47888h0.14806l0.11516,-0.03473l0.57578,0.33861c-0.10967,0.36466 -0.22867,0.75247 -0.35699,1.16344c-0.12941,0.41096 -0.25718,0.78431 -0.38331,1.12003c0.26322,0.35308 0.43321,0.68301 0.50998,0.98979c0.07677,0.30678 0.1179,0.58751 0.12338,0.84219c0,0.27205 -0.02742,0.50068 -0.08225,0.68591c-0.05484,0.18522 -0.14532,0.32704 -0.27144,0.42544c-0.0658,0.05209 -0.13545,0.09261 -0.20893,0.12155c-0.07458,0.02894 -0.15848,0.05209 -0.2517,0.06946c-0.07129,0.00579 -0.15464,0.00984 -0.25005,0.01216c-0.09651,0.00347 -0.19412,0.00521 -0.29283,0.00521c0,-0.11576 -0.01645,-0.25063 -0.04935,-0.4046c-0.0329,-0.15281 -0.07951,-0.2871 -0.13983,-0.40286c0.07677,0.00579 0.14806,0.00868 0.21386,0.00868c0.0658,0 0.12612,0 0.18096,0c0.10419,-0.00579 0.17822,-0.03184 0.22209,-0.07814c0.06032,-0.04052 0.10145,-0.10882 0.12338,-0.2049c0.02193,-0.09493 0.0329,-0.20896 0.0329,-0.34209c-0.00548,-0.21417 -0.04497,-0.46017 -0.11845,-0.738c-0.07458,-0.27784 -0.23525,-0.57593 -0.48201,-0.89428c0.06032,-0.19101 0.12229,-0.39823 0.1859,-0.62166c0.06251,-0.22227 0.12283,-0.44627 0.18096,-0.67202c0.05703,-0.22574 0.10913,-0.43701 0.15628,-0.63381c0.04606,-0.1968 0.08555,-0.36466 0.11845,-0.50358v-0.25179M311.38014,188.7797h3.30665v0.80746h-3.30665v-0.80746M310.70565,190.39462h4.77901v0.85087h-4.77901v-0.85087M311.38836,191.57543l0.7732,0.23442c-0.15354,0.34729 -0.33999,0.69459 -0.55933,1.04188c-0.21935,0.34729 -0.43321,0.6396 -0.64159,0.87692c-0.04935,-0.04631 -0.11351,-0.10129 -0.19248,-0.16496c-0.08006,-0.06367 -0.16232,-0.12618 -0.24676,-0.18754c-0.08555,-0.0602 -0.15848,-0.11056 -0.2188,-0.15107c0.21386,-0.20838 0.41676,-0.46017 0.60869,-0.75537c0.19193,-0.2952 0.35095,-0.59329 0.47708,-0.89428M313.87246,191.87063l0.65804,-0.35598c0.14806,0.17365 0.29502,0.36466 0.44089,0.57304c0.14477,0.20838 0.27747,0.41212 0.39811,0.61124c0.12064,0.20027 0.2166,0.38144 0.28789,0.54352l-0.69094,0.41675c-0.07129,-0.16786 -0.16561,-0.35598 -0.28296,-0.56435c-0.11845,-0.20838 -0.24896,-0.42138 -0.39153,-0.63902c-0.14257,-0.21648 -0.28241,-0.41154 -0.4195,-0.58519M312.72912,188.96203h0.84723v4.28909c0,0.21995 -0.02468,0.39186 -0.07403,0.51573c-0.04935,0.12503 -0.14532,0.22516 -0.28789,0.30041c-0.13709,0.06946 -0.30544,0.11287 -0.50505,0.13024c-0.2007,0.01736 -0.44363,0.02605 -0.72878,0.02605c-0.01645,-0.12155 -0.05319,-0.26336 -0.11022,-0.42544c-0.05813,-0.16207 -0.11735,-0.30388 -0.17767,-0.42544c0.19193,0.00579 0.37179,0.00984 0.53959,0.01216c0.1667,0.00347 0.28022,0.00521 0.34054,0.00521c0.06032,0 0.10145,-0.01158 0.12338,-0.03473c0.02193,-0.02315 0.0329,-0.06078 0.0329,-0.11287v-4.28041M312.95943,186.04476l0.74029,0.30388c-0.20838,0.3936 -0.45624,0.76984 -0.74358,1.12871c-0.28844,0.35887 -0.60101,0.6888 -0.93771,0.98979c-0.33779,0.30099 -0.68765,0.56146 -1.04957,0.78141c-0.0658,-0.10998 -0.1508,-0.22864 -0.25499,-0.35598c-0.10419,-0.12734 -0.20838,-0.23442 -0.31257,-0.32125c0.3345,-0.18522 0.66517,-0.40807 0.99199,-0.66854c0.32573,-0.26047 0.62459,-0.54873 0.89658,-0.86476c0.27089,-0.31488 0.49408,-0.64597 0.66955,-0.99326M313.42829,186.60043c0.40031,0.47464 0.79129,0.85666 1.17295,1.14607c0.38057,0.28941 0.74633,0.52384 1.09728,0.70327c-0.10419,0.09261 -0.21222,0.20953 -0.32408,0.35077c-0.11296,0.14239 -0.19961,0.27436 -0.25993,0.39592c-0.24128,-0.16207 -0.48914,-0.3444 -0.74358,-0.54699c-0.25554,-0.20259 -0.51766,-0.44454 -0.78636,-0.72585c-0.2687,-0.28015 -0.55111,-0.61703 -0.84723,-1.01063zM319.52337,189.18777h0.92948v3.95916c0,0.27205 -0.03674,0.48042 -0.11022,0.62513c-0.07458,0.14471 -0.20783,0.25179 -0.39976,0.32125c-0.19193,0.06946 -0.43431,0.11287 -0.72713,0.13024c-0.29392,0.01736 -0.64104,0.02605 -1.04135,0.02605c-0.02742,-0.13892 -0.07513,-0.29983 -0.14312,-0.48274c-0.06909,-0.18175 -0.13928,-0.3363 -0.21057,-0.46364c0.2029,0.00579 0.40469,0.01158 0.6054,0.01736c0.19961,0.00579 0.37782,0.00868 0.53466,0.00868c0.15574,0 0.26376,-0.00289 0.32408,-0.00868c0.09322,0 0.15628,-0.01447 0.18919,-0.04341c0.0329,-0.02894 0.04935,-0.08104 0.04935,-0.15628v-3.93311M316.61978,186.75671h5.79897v0.92033h-5.79897v-0.92033M322.15553,186.75671h0.24676l0.19741,-0.05209l0.69917,0.54699c-0.27418,0.31257 -0.58785,0.62918 -0.941,0.94985c-0.35424,0.32183 -0.72165,0.62571 -1.10222,0.91165c-0.38166,0.2871 -0.76168,0.53483 -1.14005,0.74321c-0.04387,-0.06946 -0.10145,-0.14644 -0.17274,-0.23095c-0.07129,-0.08335 -0.14367,-0.16439 -0.21715,-0.24311c-0.07458,-0.07756 -0.14203,-0.14239 -0.20235,-0.19448c0.25225,-0.13313 0.50614,-0.29115 0.76168,-0.47406c0.25444,-0.18175 0.5023,-0.37392 0.74358,-0.57651c0.24128,-0.20259 0.45953,-0.40228 0.65475,-0.59908c0.19412,-0.1968 0.3515,-0.37913 0.47214,-0.54699zM331.12131,186.17499l0.46063,0.67722c-0.29612,0.06367 -0.62349,0.11982 -0.98212,0.16844c-0.35973,0.04978 -0.73426,0.09319 -1.1236,0.13024c-0.38934,0.0382 -0.77868,0.06888 -1.16802,0.09203c-0.38934,0.02315 -0.76771,0.04052 -1.13512,0.05209c-0.01097,-0.0984 -0.03564,-0.21301 -0.07403,-0.34382c-0.03839,-0.12966 -0.07677,-0.2379 -0.11516,-0.32472c0.35644,-0.01736 0.72384,-0.03936 1.10222,-0.06599c0.37837,-0.02547 0.75126,-0.05846 1.11867,-0.09898c0.36741,-0.04052 0.71562,-0.08393 1.04464,-0.13024c0.32902,-0.04631 0.61965,-0.0984 0.8719,-0.15628M326.93454,188.32822h4.94352v0.75537h-4.94352v-0.75537M328.95801,186.73935h0.79787v3.87233h-0.79787v-3.87233M328.96623,191.0979h0.73207v2.53525h-0.73207v-2.53525M327.47742,187.46867l0.69917,-0.22574c0.07129,0.14471 0.14696,0.30388 0.22702,0.47753c0.07896,0.17365 0.13764,0.32125 0.17603,0.4428l-0.73207,0.26047c-0.0329,-0.12734 -0.085,-0.28247 -0.15628,-0.46537c-0.07129,-0.18175 -0.14257,-0.34498 -0.21386,-0.48969M330.62778,187.08664l0.75674,0.21706c-0.12064,0.24889 -0.24238,0.49605 -0.36521,0.74147c-0.12393,0.24658 -0.24073,0.45669 -0.35041,0.63034l-0.64981,-0.20838c0.07129,-0.12734 0.14532,-0.27089 0.22209,-0.43065c0.07677,-0.1586 0.1497,-0.32183 0.2188,-0.48969c0.068,-0.16786 0.12393,-0.32125 0.1678,-0.46017M328.54673,188.76234l0.68272,0.25179c-0.15354,0.28941 -0.34547,0.56435 -0.57578,0.82482c-0.23031,0.26047 -0.47982,0.49605 -0.74852,0.70674c-0.2687,0.21185 -0.54562,0.38434 -0.83077,0.51747c-0.06032,-0.0984 -0.14257,-0.2159 -0.24676,-0.3525c-0.10419,-0.13544 -0.20015,-0.24369 -0.28789,-0.32472c0.26322,-0.0984 0.52259,-0.23153 0.77813,-0.39939c0.25444,-0.16786 0.48859,-0.35598 0.70246,-0.56435c0.21386,-0.20838 0.38934,-0.42833 0.52643,-0.65986M330.20006,188.76234c0.13709,0.20838 0.30983,0.41212 0.51821,0.61124c0.20838,0.20027 0.43485,0.38144 0.67943,0.54352c0.24347,0.16207 0.48859,0.2952 0.73536,0.39939c-0.08774,0.07525 -0.1848,0.17944 -0.29118,0.31257c-0.10748,0.13313 -0.19412,0.25468 -0.25993,0.36466c-0.25225,-0.13892 -0.50559,-0.31141 -0.76004,-0.51747c-0.25554,-0.2049 -0.49572,-0.4318 -0.72055,-0.6807c-0.22483,-0.24889 -0.41402,-0.50358 -0.56756,-0.76405l0.66626,-0.26915M327.32114,190.75928h4.15387v3.42085h-0.82255v-2.73494h-2.5499v2.77836h-0.78142v-3.46426M327.85579,192.00086h3.02698v0.65118h-3.02698v-0.65118M327.85579,193.21639h3.01875v0.66854h-3.01875v-0.66854M324.2448,190.64641c0.31805,-0.09261 0.70191,-0.2188 1.15157,-0.37855c0.44966,-0.1586 0.90206,-0.32183 1.35721,-0.48969l0.13983,0.83351c-0.42224,0.16786 -0.84997,0.33282 -1.28318,0.49489c-0.43321,0.16207 -0.83352,0.30967 -1.20092,0.4428l-0.16451,-0.90297M324.37641,187.80728h2.50877v0.85955h-2.50877v-0.85955M325.28944,186.14027h0.81432v7.09349c0,0.21995 -0.02303,0.39476 -0.06909,0.52441c-0.04716,0.13081 -0.13106,0.23384 -0.2517,0.30909c-0.11516,0.07525 -0.26157,0.12445 -0.43924,0.1476c-0.17877,0.02315 -0.4025,0.03184 -0.6712,0.02605c-0.00548,-0.10998 -0.03126,-0.25063 -0.07732,-0.42196c-0.04716,-0.17017 -0.09816,-0.31604 -0.15299,-0.43759c0.15903,0.00579 0.30434,0.00868 0.43595,0.00868c0.13161,0 0.22209,-0.00289 0.27144,-0.00868c0.04935,0 0.085,-0.00868 0.10693,-0.02605c0.02193,-0.01736 0.0329,-0.05788 0.0329,-0.12155zM336.31982,189.44825h3.01875v0.84219h-3.01875v-0.84219M337.38913,189.94314c0.16999,0.50937 0.39098,0.99268 0.66297,1.44995c0.27089,0.45727 0.59388,0.86071 0.96896,1.21032c0.37618,0.35077 0.79458,0.62745 1.25521,0.83003c-0.0658,0.05788 -0.13709,0.13429 -0.21386,0.22921c-0.07677,0.09609 -0.1497,0.19333 -0.2188,0.29173c-0.068,0.0984 -0.12393,0.18812 -0.1678,0.26915c-0.49353,-0.24889 -0.93332,-0.57593 -1.31937,-0.98111c-0.38715,-0.40518 -0.72439,-0.86997 -1.01174,-1.39439c-0.28844,-0.52326 -0.52863,-1.09166 -0.72055,-1.70522l0.76497,-0.19969M339.11649,189.44825h0.16451l0.16451,-0.02605l0.55933,0.18233c-0.10967,0.70038 -0.29173,1.34692 -0.54617,1.93964c-0.25554,0.59387 -0.58182,1.1206 -0.97883,1.58019c-0.39811,0.46074 -0.8741,0.84161 -1.42794,1.1426c-0.0658,-0.10998 -0.15628,-0.23327 -0.27144,-0.36987c-0.11516,-0.13544 -0.22483,-0.24658 -0.32902,-0.3334c0.38386,-0.19101 0.72658,-0.42138 1.02819,-0.69112c0.3016,-0.26857 0.56372,-0.57246 0.78636,-0.91165c0.22154,-0.33803 0.4036,-0.70385 0.54617,-1.09745c0.14257,-0.3936 0.24402,-0.80457 0.30434,-1.2329v-0.18233M338.8944,186.43547h0.9048c0,0 -0.0011,0.04457 -0.00329,0.13371c-0.00329,0.0903 -0.00768,0.16439 -0.01316,0.22227c-0.01645,0.61355 -0.04771,1.06793 -0.09377,1.36313c-0.04716,0.2952 -0.12009,0.49779 -0.2188,0.60777c-0.08774,0.10419 -0.19028,0.1748 -0.30763,0.21185c-0.11845,0.0382 -0.2517,0.06599 -0.39976,0.08335c-0.14257,0.00579 -0.33066,0.00868 -0.56427,0.00868c-0.23251,0 -0.48037,-0.00579 -0.74358,-0.01736c-0.00548,-0.11576 -0.02852,-0.246 -0.06909,-0.39071c-0.04168,-0.14471 -0.09267,-0.26915 -0.15299,-0.37334c0.16451,0.01158 0.32189,0.02142 0.47214,0.02952c0.15135,0.00926 0.28625,0.01505 0.40469,0.01736c0.11735,0.00347 0.20619,0.00521 0.26651,0.00521c0.08225,0 0.14806,-0.00463 0.19741,-0.01389c0.04935,-0.0081 0.09322,-0.02952 0.13161,-0.06425c0.03839,-0.04631 0.06855,-0.13197 0.09048,-0.257c0.02193,-0.12387 0.04113,-0.3033 0.05758,-0.53831c0.01645,-0.23384 0.03016,-0.5331 0.04113,-0.89776v-0.13024M332.50319,190.59432c0.25225,-0.05788 0.5363,-0.12734 0.85216,-0.20838c0.31476,-0.08104 0.64652,-0.16786 0.99528,-0.26047c0.34766,-0.09261 0.69423,-0.18812 1.0397,-0.28652l0.10693,0.90297c-0.47708,0.14471 -0.95964,0.28768 -1.44769,0.42891c-0.48805,0.14239 -0.93496,0.26857 -1.34075,0.37855l-0.20564,-0.95506M332.61835,187.81596h2.80489v0.90297h-2.80489v-0.90297M333.69589,186.13158h0.89658v7.0414c0,0.24889 -0.02852,0.44106 -0.08555,0.57651c-0.05813,0.1366 -0.15848,0.23963 -0.30105,0.30909c-0.14257,0.07525 -0.32463,0.12271 -0.54617,0.14239c-0.22264,0.02084 -0.49846,0.03126 -0.82748,0.03126c-0.01645,-0.12155 -0.05045,-0.26915 -0.102,-0.4428c-0.05264,-0.17365 -0.10913,-0.32125 -0.16945,-0.4428c0.2029,0.00579 0.39647,0.00868 0.58072,0.00868c0.18315,0 0.30489,0 0.36521,0c0.07129,0 0.12064,-0.01331 0.14806,-0.03994c0.02742,-0.02547 0.04113,-0.07583 0.04113,-0.15107v-7.03272M335.69468,186.43547h3.47116v0.86824h-2.59925v6.90248h-0.8719zM342.75215,188.02434v0.42544h3.71792v-0.42544h-3.71792M342.75215,187.02587v0.41675h3.71792v-0.41675h-3.71792M341.90493,186.40942h5.4535v2.6568h-5.4535v-2.6568M340.88497,189.43088h7.46874v0.74668h-7.46874v-0.74668M344.75917,190.55959h2.78022v0.738h-2.78022v-0.738M342.16814,190.58564h1.91654v0.65986h-1.91654v-0.65986M342.16814,191.67961h1.91654v0.65118h-1.91654v-0.65118M345.7051,191.18472c0.2358,0.55567 0.59498,1.03146 1.07754,1.42738c0.48256,0.39707 1.05835,0.68243 1.72735,0.85608c-0.09322,0.08682 -0.18919,0.20259 -0.28789,0.34729c-0.09871,0.14471 -0.17822,0.27205 -0.23854,0.38202c-0.70739,-0.21995 -1.31169,-0.57014 -1.8129,-1.05057c-0.5023,-0.48042 -0.89329,-1.06504 -1.17295,-1.75384l0.70739,-0.20838M347.41601,190.55959h0.13983l0.14806,-0.02605l0.50175,0.20838c-0.16451,0.59619 -0.40031,1.12003 -0.70739,1.57151c-0.30708,0.45148 -0.66626,0.83351 -1.07754,1.14607c-0.41127,0.31257 -0.85545,0.56435 -1.33253,0.75537c-0.04387,-0.0984 -0.10803,-0.2159 -0.19248,-0.3525c-0.08555,-0.13544 -0.16945,-0.24369 -0.2517,-0.32472c0.42224,-0.14471 0.81981,-0.35019 1.1927,-0.61645c0.37289,-0.26626 0.69807,-0.58751 0.97554,-0.96374c0.27638,-0.37624 0.47763,-0.79878 0.60375,-1.26763v-0.13024M340.87674,192.99065c0.33999,-0.02894 0.72823,-0.06541 1.16473,-0.1094c0.4354,-0.04283 0.89548,-0.08914 1.38024,-0.13892c0.48585,-0.04862 0.96732,-0.09898 1.4444,-0.15107l0.00823,0.74668c-0.46611,0.05788 -0.93332,0.11403 -1.40162,0.16844c-0.4694,0.05557 -0.92071,0.10766 -1.35392,0.15628c-0.43321,0.04978 -0.82529,0.09493 -1.17624,0.13544l-0.0658,-0.80746M343.62405,189.67399h0.84723v4.56692h-0.84723v-4.56692M341.62526,189.69135h0.8061v3.5424h-0.8061zM349.21739,188.51055h7.29601v0.96374h-7.29601v-0.96374M353.37948,188.90126c0.16999,0.67144 0.4014,1.29772 0.69423,1.87886c0.29392,0.5823 0.65749,1.09166 1.0907,1.5281c0.43321,0.43759 0.93771,0.78083 1.51349,1.02973c-0.07129,0.06367 -0.14806,0.14876 -0.23031,0.25526c-0.08225,0.10766 -0.16177,0.21474 -0.23854,0.32125c-0.07677,0.10766 -0.13983,0.2078 -0.18919,0.30041c-0.61417,-0.30678 -1.14718,-0.7079 -1.59903,-1.20338c-0.45295,-0.49432 -0.83571,-1.06851 -1.14828,-1.72258c-0.31257,-0.65407 -0.57304,-1.3776 -0.78142,-2.17059l0.88835,-0.21706M352.35952,186.14027h0.96238c0,0.42254 -0.00987,0.87402 -0.02961,1.35445c-0.01864,0.48042 -0.06087,0.97069 -0.12667,1.47079c-0.0658,0.50126 -0.17274,0.99905 -0.32079,1.49337c-0.14806,0.49547 -0.3537,0.973 -0.61691,1.43259c-0.26322,0.46074 -0.59882,0.88907 -1.0068,1.28499c-0.40908,0.39707 -0.907,0.74321 -1.49375,1.03841c-0.07129,-0.12734 -0.16999,-0.2651 -0.29612,-0.41328c-0.12612,-0.14702 -0.25225,-0.26973 -0.37837,-0.36813c0.5703,-0.27205 1.04738,-0.58461 1.43124,-0.9377c0.38386,-0.35308 0.69642,-0.738 0.93771,-1.15475c0.24128,-0.41675 0.42608,-0.85087 0.5544,-1.30235c0.12941,-0.45148 0.2188,-0.9047 0.26815,-1.35966c0.04935,-0.4538 0.07951,-0.8966 0.09048,-1.3284c0.01097,-0.43065 0.01919,-0.83409 0.02468,-1.21032zM358.03511,186.39205h6.07041v0.67722h-6.07041v-0.67722M358.39703,189.89105h6.11154v0.64249h-6.11154v-0.64249M359.14555,190.81138h4.91062v0.56435h-4.91062v-0.56435M358.38058,191.67093h6.44056v0.62513h-6.44056v-0.62513M358.58622,188.29349h1.73558v0.48621h-1.73558v-0.48621M358.40526,189.09227h1.92476v0.47753h-1.92476v-0.47753M361.79416,189.09227h1.94944v0.47753h-1.94944v-0.47753M361.79416,188.29349h1.75203v0.48621h-1.75203v-0.48621M360.61791,186.67857h0.8719v3.03883h-0.8719v-3.03883M357.50868,187.41657h7.13972v1.51941h-0.85545v-0.96374h-5.46995v0.96374h-0.81432v-1.51941M358.00221,189.89105h0.82255v1.19817c0,0.24311 -0.01371,0.50473 -0.04113,0.78489c-0.02742,0.28131 -0.07787,0.56667 -0.15135,0.85608c-0.07458,0.28941 -0.17877,0.56841 -0.31257,0.83698c-0.1349,0.26973 -0.30928,0.51458 -0.52314,0.73453c-0.04387,-0.05788 -0.10419,-0.12618 -0.18096,-0.2049c-0.07677,-0.07756 -0.15738,-0.15281 -0.24183,-0.22574c-0.08555,-0.07177 -0.16122,-0.12503 -0.22702,-0.15976c0.25773,-0.26047 0.44692,-0.5441 0.56756,-0.85087c0.12064,-0.30678 0.19906,-0.61529 0.23525,-0.92554c0.0351,-0.30909 0.05264,-0.59677 0.05264,-0.86303v-1.1808M361.78593,192.00086c0.16451,0.28362 0.39757,0.51921 0.69917,0.70674c0.3016,0.1887 0.66243,0.3363 1.08247,0.4428c0.41895,0.10766 0.88616,0.17886 1.40162,0.21359c-0.07677,0.08104 -0.15628,0.19101 -0.23854,0.32993c-0.08225,0.13892 -0.14806,0.26626 -0.19741,0.38202c-0.56482,-0.06367 -1.06767,-0.17365 -1.50855,-0.32993c-0.44198,-0.15628 -0.822,-0.3664 -1.14005,-0.63034c-0.31805,-0.26279 -0.58127,-0.58519 -0.78965,-0.96722l0.69094,-0.1476M363.70247,192.2266l0.64981,0.34729c-0.19741,0.13892 -0.40579,0.26742 -0.62514,0.3855c-0.21935,0.11924 -0.4195,0.22227 -0.60046,0.30909l-0.53466,-0.31257c0.12064,-0.06946 0.24841,-0.14644 0.38331,-0.23095c0.1338,-0.08335 0.26486,-0.17017 0.39318,-0.26047c0.12941,-0.08914 0.24073,-0.16844 0.33395,-0.2379M359.21136,194.24091l-0.04113,-0.60777l0.34547,-0.25179l2.27023,-0.33861c-0.02193,0.10419 -0.04113,0.22401 -0.05758,0.35945c-0.01645,0.1366 -0.02468,0.24832 -0.02468,0.33514c-0.5045,0.08682 -0.91138,0.15744 -1.22066,0.21185c-0.31037,0.05557 -0.55056,0.10072 -0.72055,0.13544c-0.16999,0.03473 -0.29338,0.06367 -0.37015,0.08682c-0.07677,0.02315 -0.13709,0.04631 -0.18096,0.06946M359.21136,194.24091c-0.02193,-0.06946 -0.05484,-0.14934 -0.09871,-0.23963c-0.04387,-0.08914 -0.09213,-0.17886 -0.14477,-0.26915c-0.05155,-0.08914 -0.09925,-0.16265 -0.14312,-0.22053c0.09322,-0.05209 0.19357,-0.14065 0.30105,-0.26568c0.10638,-0.12387 0.15957,-0.2842 0.15957,-0.481v-0.83351l0.85545,0.01736v1.41523c0,0 -0.03126,0.02026 -0.09377,0.06078c-0.06361,0.04052 -0.14038,0.09551 -0.23031,0.16496c-0.09103,0.06946 -0.18315,0.14181 -0.27638,0.21706c-0.09322,0.07525 -0.17109,0.15165 -0.2336,0.22921c-0.06361,0.07872 -0.09542,0.14702 -0.09542,0.2049zM367.19831,188.61474h5.74962v0.738h-5.74962v-0.738M367.27233,191.14131h4.57337v0.738h-4.57337v-0.738M368.36632,187.98961h0.839v2.04036h1.6451v-2.04036h0.86368v2.75231h-3.34777v-2.75231M371.61539,191.14131h0.17274l0.15628,-0.03473l0.55111,0.30388c-0.22483,0.45148 -0.51821,0.83756 -0.88013,1.15823c-0.36192,0.32183 -0.7732,0.58982 -1.23382,0.80399c-0.46063,0.21417 -0.9569,0.38492 -1.48881,0.51226c-0.53192,0.12734 -1.08576,0.22574 -1.66155,0.2952c-0.0329,-0.10998 -0.08335,-0.24195 -0.15135,-0.39592c-0.06909,-0.15281 -0.13928,-0.28131 -0.21057,-0.3855c0.52643,-0.04052 1.03641,-0.11171 1.52994,-0.21359c0.49353,-0.10072 0.95032,-0.235 1.37037,-0.40286c0.41895,-0.16786 0.78745,-0.37797 1.10551,-0.63034c0.31805,-0.25121 0.56482,-0.54757 0.74029,-0.88907v-0.12155M368.64599,191.70566c0.2687,0.33572 0.62678,0.62224 1.07425,0.85955c0.44637,0.23732 0.96293,0.42659 1.54968,0.56783c0.58675,0.14239 1.21737,0.23963 1.89186,0.29173c-0.06032,0.06367 -0.12338,0.14471 -0.18919,0.24311c-0.0658,0.0984 -0.12777,0.1968 -0.1859,0.2952c-0.05703,0.0984 -0.102,0.18812 -0.1349,0.26915c-0.70191,-0.07525 -1.35282,-0.20432 -1.95273,-0.38723c-0.60101,-0.18175 -1.13731,-0.42486 -1.60891,-0.72932c-0.47159,-0.3033 -0.8719,-0.67202 -1.20092,-1.10613l0.75674,-0.30388M366.55672,186.913h6.47346v0.86824h-6.47346v-0.86824M366.14544,186.913h0.8719v2.32687c0,0.35887 -0.00987,0.75363 -0.02961,1.18427c-0.01864,0.4318 -0.05538,0.87345 -0.11022,1.32493c-0.05484,0.45148 -0.13435,0.8885 -0.23854,1.31104c-0.10419,0.42254 -0.24128,0.81035 -0.41127,1.16344c-0.06032,-0.04631 -0.13983,-0.09551 -0.23854,-0.1476c-0.09871,-0.05209 -0.19851,-0.10303 -0.29941,-0.15281c-0.102,-0.04862 -0.19138,-0.08161 -0.26815,-0.09898c0.16451,-0.33572 0.29612,-0.69922 0.39482,-1.0905c0.09871,-0.39013 0.17164,-0.79067 0.2188,-1.20164c0.04606,-0.41096 0.07567,-0.81209 0.08884,-1.20338c0.01426,-0.39013 0.02139,-0.75016 0.02139,-1.08009v-2.33556M369.02436,186.28787l0.88835,-0.21706c0.09322,0.18522 0.17986,0.38781 0.25993,0.60777c0.07896,0.21995 0.1349,0.40807 0.1678,0.56435l-0.94593,0.24311c-0.02193,-0.16207 -0.06855,-0.35598 -0.13983,-0.58172c-0.07129,-0.22574 -0.14806,-0.43122 -0.23031,-0.61645zM375.21816,187.41657h1.99879v0.8856h-1.99879v-0.8856M378.31094,186.14027h0.92948v8.10065h-0.92948v-8.10065M374.7493,190.22966l0.53466,-0.63381c0.15354,0.11576 0.32189,0.24426 0.50505,0.3855c0.18425,0.14239 0.36137,0.28594 0.53137,0.43065c0.16999,0.14471 0.30434,0.27205 0.40305,0.38202l-0.55111,0.71195c-0.09871,-0.11576 -0.23031,-0.24889 -0.39482,-0.39939c-0.16451,-0.15049 -0.33725,-0.30273 -0.51821,-0.45669c-0.18096,-0.15281 -0.35095,-0.29288 -0.50998,-0.42023M375.1359,186.1229l0.88013,0.17365c-0.10967,0.54988 -0.24512,1.08645 -0.40634,1.60971c-0.16232,0.52441 -0.34602,1.01063 -0.55111,1.45864c-0.20619,0.44917 -0.43266,0.84161 -0.67943,1.17733c-0.04935,-0.05209 -0.119,-0.11576 -0.20893,-0.19101c-0.09103,-0.07525 -0.18425,-0.14934 -0.27967,-0.22227c-0.09651,-0.07177 -0.18041,-0.12792 -0.2517,-0.16844c0.24128,-0.30099 0.45789,-0.65291 0.64981,-1.05578c0.19193,-0.4017 0.35918,-0.83987 0.50175,-1.31451c0.14257,-0.47464 0.25773,-0.96374 0.34547,-1.46732M376.90438,187.41657h0.17274l0.17274,-0.03473l0.62514,0.19969c-0.13161,1.16344 -0.35479,2.17464 -0.66955,3.03362c-0.31586,0.86013 -0.71068,1.58077 -1.18447,2.16191c-0.47488,0.5823 -1.01941,1.0413 -1.63358,1.37702c-0.04387,-0.07525 -0.11132,-0.16381 -0.20235,-0.26568c-0.08993,-0.10072 -0.18151,-0.19912 -0.27473,-0.2952c-0.09322,-0.09493 -0.17822,-0.16844 -0.25499,-0.22053c0.6032,-0.30099 1.12689,-0.70327 1.57107,-1.20685c0.44418,-0.50358 0.80884,-1.12871 1.09399,-1.87539c0.28515,-0.74668 0.47982,-1.62939 0.58401,-2.64812v-0.22574M378.87027,189.29196l0.69094,-0.53831c0.2029,0.1968 0.42389,0.41502 0.66297,0.65465c0.23799,0.24079 0.46556,0.47695 0.68272,0.70848c0.21606,0.23153 0.39263,0.43701 0.52972,0.61645l-0.74029,0.64249c-0.12612,-0.18522 -0.29338,-0.40113 -0.50175,-0.6477c-0.20838,-0.24542 -0.42937,-0.49258 -0.66297,-0.74147c-0.23251,-0.24889 -0.45295,-0.48042 -0.66133,-0.69459zM383.14753,194.60557l-0.23854,-0.63381c0.34547,-0.12155 0.60869,-0.28652 0.78965,-0.49489c0.18096,-0.20838 0.27144,-0.44859 0.27144,-0.72064l-0.08225,-0.82482l0.4524,0.74668c-0.0658,0.06946 -0.13983,0.11866 -0.22209,0.1476c-0.08225,0.02894 -0.16725,0.04341 -0.25499,0.04341c-0.19193,0 -0.36302,-0.06367 -0.51327,-0.19101c-0.15135,-0.12734 -0.22702,-0.30678 -0.22702,-0.53831c0,-0.23732 0.07567,-0.41965 0.22702,-0.54699c0.15025,-0.12734 0.32683,-0.19101 0.52972,-0.19101c0.27418,0 0.48256,0.10245 0.62514,0.30736c0.14257,0.20606 0.21386,0.48274 0.21386,0.83003c0,0.48621 -0.13983,0.91165 -0.4195,1.27631c-0.27967,0.36466 -0.66352,0.62802 -1.15157,0.7901zM392.57394,186.66989h4.99287v0.92033h-4.99287v-0.92033M395.38706,189.47429l0.64159,-0.56435c0.18644,0.18522 0.38824,0.39071 0.6054,0.61645c0.21606,0.22574 0.42553,0.44569 0.62843,0.65986c0.2029,0.21417 0.36741,0.40228 0.49353,0.56435l-0.68272,0.65986c-0.11516,-0.16786 -0.27144,-0.3635 -0.46885,-0.58693c-0.19741,-0.22227 -0.40305,-0.45206 -0.61691,-0.68938c-0.21386,-0.23732 -0.41402,-0.45727 -0.60046,-0.65986M395.10739,186.93036l0.88013,0.2952c-0.24676,0.57304 -0.54014,1.12003 -0.88013,1.64097c-0.33999,0.52094 -0.71013,0.99847 -1.11044,1.43259c-0.40031,0.43412 -0.81432,0.81035 -1.24205,1.12871c-0.04387,-0.06367 -0.10419,-0.14355 -0.18096,-0.23963c-0.07677,-0.09493 -0.15903,-0.19043 -0.24676,-0.28652c-0.08774,-0.09493 -0.16451,-0.17133 -0.23031,-0.22921c0.42224,-0.27205 0.82255,-0.60198 1.20092,-0.98979c0.37837,-0.38781 0.72275,-0.81614 1.03312,-1.28499c0.30928,-0.46885 0.56811,-0.95795 0.77649,-1.46732M394.47403,188.44977l0.44418,-0.46885l0.46885,0.16496v4.69716h-0.91303v-4.39328M392.03106,189.03149v3.87233h-0.88835v-2.952h-0.97883v-0.92033h1.86719M390.47644,186.7133l0.68272,-0.52094c0.14806,0.14471 0.3016,0.30215 0.46063,0.47232c0.15903,0.17133 0.30983,0.34209 0.4524,0.51226c0.14257,0.17133 0.25499,0.32356 0.33725,0.45669l-0.73207,0.59908c-0.08225,-0.13892 -0.18919,-0.29694 -0.32079,-0.47406c-0.13161,-0.17596 -0.27583,-0.35656 -0.43266,-0.54178c-0.15574,-0.18522 -0.30489,-0.35308 -0.44747,-0.50358M391.57865,192.26133c0.14257,0 0.28076,0.05499 0.41456,0.16496c0.1349,0.10998 0.32299,0.24021 0.56427,0.39071c0.27967,0.17944 0.60869,0.29346 0.98706,0.34209c0.37837,0.04978 0.8061,0.07467 1.28318,0.07467c0.23031,0 0.48146,-0.00579 0.75345,-0.01736c0.27089,-0.01158 0.54782,-0.02605 0.83077,-0.04341c0.28186,-0.01736 0.5544,-0.03936 0.81761,-0.06599c0.26322,-0.02547 0.49901,-0.05267 0.70739,-0.08161c-0.0329,0.08682 -0.06964,0.19391 -0.11022,0.32125c-0.04168,0.12734 -0.07732,0.25468 -0.10693,0.38202c-0.03071,0.12734 -0.0488,0.23732 -0.05429,0.32993c-0.14806,0.01158 -0.33999,0.02315 -0.57578,0.03473c-0.2358,0.01158 -0.48914,0.02315 -0.76004,0.03473c-0.27199,0.01158 -0.54233,0.02026 -0.81103,0.02605c-0.2687,0.00579 -0.50998,0.00868 -0.72384,0.00868c-0.54288,0 -1.00077,-0.03357 -1.37366,-0.10072c-0.37289,-0.06599 -0.71288,-0.19159 -1.01996,-0.37681c-0.18644,-0.12155 -0.35095,-0.23905 -0.49353,-0.3525c-0.14257,-0.11229 -0.25773,-0.16844 -0.34547,-0.16844c-0.08225,0 -0.17548,0.05615 -0.27967,0.16844c-0.10419,0.11345 -0.21222,0.257 -0.32408,0.43065c-0.11296,0.17365 -0.22428,0.35308 -0.33395,0.53831l-0.64159,-0.92901c0.28515,-0.34151 0.5692,-0.6124 0.85216,-0.81267c0.28186,-0.19912 0.52972,-0.29867 0.74358,-0.29867zM398.81708,190.4554h6.83538v0.90297h-6.83538v-0.90297M400.28122,188.77102h3.87421v0.85955h-3.87421v-0.85955M403.07789,191.88799l0.74852,-0.40807c0.24676,0.22574 0.48969,0.47001 0.72878,0.73279c0.23799,0.26394 0.45569,0.52731 0.6531,0.7901c0.19741,0.26394 0.35918,0.50589 0.4853,0.72585l-0.79787,0.50358c-0.10967,-0.21995 -0.26322,-0.46769 -0.46063,-0.74321c-0.19741,-0.27436 -0.41402,-0.5522 -0.64981,-0.83351c-0.2358,-0.28015 -0.47159,-0.53599 -0.70739,-0.76752M402.19776,186.10554l0.8061,0.39071c-0.47159,0.6888 -1.05396,1.31104 -1.74709,1.86671c-0.69423,0.55567 -1.45262,1.02741 -2.27517,1.41523c-0.03839,-0.08104 -0.09432,-0.17365 -0.1678,-0.27784c-0.07458,-0.10419 -0.15299,-0.20722 -0.23525,-0.30909c-0.08225,-0.10072 -0.15628,-0.18001 -0.22209,-0.2379c0.52643,-0.21995 1.03367,-0.47927 1.52172,-0.77794c0.48805,-0.29752 0.93058,-0.62455 1.32759,-0.98111c0.39811,-0.3554 0.72878,-0.71832 0.99199,-1.08877M402.37872,186.50492c0.18096,0.20259 0.40579,0.41675 0.67449,0.64249c0.2687,0.22574 0.5692,0.44569 0.90151,0.65986c0.33121,0.21417 0.67943,0.41386 1.04464,0.59908c0.36412,0.18522 0.72987,0.34151 1.09728,0.46885c-0.0658,0.05788 -0.13819,0.13602 -0.21715,0.23442c-0.08006,0.0984 -0.15574,0.19796 -0.22702,0.29867c-0.07129,0.10187 -0.13161,0.19622 -0.18096,0.28305c-0.35644,-0.15628 -0.71288,-0.34035 -1.06931,-0.5522c-0.35644,-0.21069 -0.69752,-0.43933 -1.02325,-0.68591c-0.32683,-0.24542 -0.62623,-0.49432 -0.89822,-0.74668c-0.27089,-0.25121 -0.49956,-0.48679 -0.68601,-0.70674l0.58401,-0.49489M399.39287,194.07595c-0.01645,-0.06946 -0.04113,-0.16207 -0.07403,-0.27784c-0.0329,-0.11576 -0.06855,-0.23616 -0.10693,-0.36119c-0.03839,-0.12387 -0.07677,-0.22632 -0.11516,-0.30736c0.10419,-0.02315 0.20564,-0.07235 0.30434,-0.1476c0.09871,-0.07525 0.21386,-0.17365 0.34547,-0.2952c0.0658,-0.05788 0.16341,-0.15339 0.29283,-0.28652c0.12832,-0.13313 0.27034,-0.29231 0.42608,-0.47753c0.15683,-0.18522 0.31641,-0.38665 0.47872,-0.60429c0.16122,-0.21648 0.31312,-0.43759 0.45569,-0.66333l0.82255,0.5904c-0.31257,0.42833 -0.66078,0.84624 -1.04464,1.25373c-0.38386,0.40865 -0.77045,0.76636 -1.15979,1.07314v0.02605c0,0 -0.03126,0.01563 -0.09377,0.04688c-0.06361,0.03241 -0.13654,0.07293 -0.2188,0.12155c-0.08225,0.04978 -0.15464,0.10187 -0.21715,0.15628c-0.06361,0.05557 -0.09542,0.1065 -0.09542,0.15281M399.39287,194.07595l-0.01645,-0.738l0.58401,-0.33861l4.72143,-0.31257c0.01645,0.13313 0.04113,0.28073 0.07403,0.4428c0.0329,0.16207 0.06306,0.29231 0.09048,0.39071c-0.75126,0.05788 -1.39943,0.10998 -1.94451,0.15628c-0.54617,0.04631 -1.00844,0.08509 -1.38682,0.11634c-0.37837,0.03241 -0.69094,0.0602 -0.93771,0.08335c-0.24676,0.02315 -0.44418,0.04457 -0.59224,0.06425c-0.14806,0.02084 -0.26596,0.0411 -0.3537,0.06078c-0.08774,0.02084 -0.16725,0.04573 -0.23854,0.07467z" fill="#ffffff" fill-rule="nonzero" stroke-width="1"/><path d="M257.14127,196.23959l0.46063,0.67722c-0.29612,0.06367 -0.62349,0.11982 -0.98212,0.16844c-0.35973,0.04978 -0.73426,0.09319 -1.1236,0.13024c-0.38934,0.0382 -0.77868,0.06888 -1.16802,0.09203c-0.38934,0.02315 -0.76771,0.04052 -1.13512,0.05209c-0.01097,-0.0984 -0.03564,-0.21301 -0.07403,-0.34382c-0.03839,-0.12966 -0.07677,-0.2379 -0.11516,-0.32472c0.35644,-0.01736 0.72384,-0.03936 1.10222,-0.06599c0.37837,-0.02547 0.75126,-0.05846 1.11867,-0.09898c0.36741,-0.04052 0.71562,-0.08393 1.04464,-0.13024c0.32902,-0.04631 0.61965,-0.0984 0.8719,-0.15628M252.95449,198.39282h4.94352v0.75537h-4.94352v-0.75537M254.97796,196.80395h0.79787v3.87233h-0.79787v-3.87233M254.98619,201.16249h0.73207v2.53525h-0.73207v-2.53525M253.49738,197.53326l0.69917,-0.22574c0.07129,0.14471 0.14641,0.30388 0.22538,0.47753c0.08006,0.17365 0.13928,0.32125 0.17767,0.4428l-0.73207,0.26047c-0.0329,-0.12734 -0.085,-0.28247 -0.15628,-0.46537c-0.07129,-0.18175 -0.14257,-0.34498 -0.21386,-0.48969M256.64774,197.15124l0.75674,0.21706c-0.12064,0.24889 -0.24238,0.49605 -0.36521,0.74147c-0.12393,0.24658 -0.24073,0.45669 -0.35041,0.63034l-0.64981,-0.20838c0.07129,-0.12734 0.14532,-0.27089 0.22209,-0.43065c0.07677,-0.1586 0.14916,-0.32183 0.21715,-0.48969c0.06909,-0.16786 0.12558,-0.32125 0.16945,-0.46017M254.56669,198.82694l0.68272,0.25179c-0.15354,0.28941 -0.34547,0.56435 -0.57578,0.82482c-0.23031,0.26047 -0.47982,0.49605 -0.74852,0.70674c-0.2687,0.21185 -0.54562,0.38434 -0.83077,0.51747c-0.06032,-0.0984 -0.14257,-0.2159 -0.24676,-0.3525c-0.10419,-0.13544 -0.20015,-0.24369 -0.28789,-0.32472c0.26322,-0.0984 0.52259,-0.23153 0.77813,-0.39939c0.25444,-0.16786 0.48859,-0.35598 0.70246,-0.56435c0.21386,-0.20838 0.38934,-0.42833 0.52643,-0.65986M256.22001,198.82694c0.13709,0.20838 0.30983,0.41212 0.51821,0.61124c0.20838,0.20027 0.43485,0.38144 0.67943,0.54352c0.24347,0.16207 0.48859,0.2952 0.73536,0.39939c-0.08774,0.07525 -0.1848,0.17944 -0.29118,0.31257c-0.10748,0.13313 -0.19412,0.25468 -0.25993,0.36466c-0.25225,-0.13892 -0.50559,-0.31141 -0.76004,-0.51747c-0.25554,-0.2049 -0.49572,-0.4318 -0.72055,-0.6807c-0.22483,-0.24889 -0.41402,-0.50358 -0.56756,-0.76405l0.66626,-0.26915M253.34109,200.82388h4.15387v3.42085h-0.82255v-2.73494h-2.5499v2.77836h-0.78142v-3.46426M253.87575,202.06546h3.02698v0.65118h-3.02698v-0.65118M253.87575,203.28099h3.01875v0.66854h-3.01875v-0.66854M250.26476,200.71101c0.31805,-0.09261 0.70191,-0.2188 1.15157,-0.37855c0.44966,-0.1586 0.90206,-0.32183 1.35721,-0.48969l0.13983,0.83351c-0.42224,0.16786 -0.84997,0.33282 -1.28318,0.49489c-0.43321,0.16207 -0.83352,0.30967 -1.20092,0.4428l-0.16451,-0.90297M250.39637,197.87188h2.50877v0.85955h-2.50877v-0.85955M251.3094,196.20486h0.81432v7.09349c0,0.21995 -0.02303,0.39476 -0.06909,0.52441c-0.04716,0.13081 -0.13106,0.23384 -0.2517,0.30909c-0.11516,0.07525 -0.26157,0.12445 -0.43924,0.1476c-0.17877,0.02315 -0.4025,0.03184 -0.6712,0.02605c-0.00548,-0.10998 -0.03126,-0.25063 -0.07732,-0.42196c-0.04716,-0.17017 -0.09816,-0.31604 -0.15299,-0.43759c0.15903,0.00579 0.30434,0.00868 0.43595,0.00868c0.13161,0 0.22209,-0.00289 0.27144,-0.00868c0.04935,0 0.085,-0.00868 0.10693,-0.02605c0.02193,-0.01736 0.0329,-0.05788 0.0329,-0.12155zM262.33978,199.51284h3.01875v0.84219h-3.01875v-0.84219M263.40909,200.00774c0.16999,0.50937 0.39044,0.99268 0.66133,1.44995c0.27199,0.45727 0.59607,0.86071 0.97225,1.21032c0.37508,0.35077 0.79294,0.62745 1.25356,0.83003c-0.0658,0.05788 -0.13709,0.13429 -0.21386,0.22921c-0.07677,0.09609 -0.14916,0.19333 -0.21715,0.29173c-0.06909,0.0984 -0.12558,0.18812 -0.16945,0.26915c-0.49353,-0.24889 -0.93332,-0.57593 -1.31937,-0.98111c-0.38715,-0.40518 -0.72439,-0.86997 -1.01174,-1.39439c-0.28844,-0.52326 -0.52863,-1.09166 -0.72055,-1.70522l0.76497,-0.19969M265.13644,199.51284h0.16451l0.16451,-0.02605l0.55933,0.18233c-0.10967,0.70038 -0.29228,1.34692 -0.54782,1.93964c-0.25444,0.59387 -0.58017,1.1206 -0.97719,1.58019c-0.39811,0.46074 -0.8741,0.84161 -1.42794,1.1426c-0.0658,-0.10998 -0.15628,-0.23327 -0.27144,-0.36987c-0.11516,-0.13544 -0.22483,-0.24658 -0.32902,-0.3334c0.38386,-0.19101 0.72658,-0.42138 1.02819,-0.69112c0.3016,-0.26857 0.56317,-0.57246 0.78471,-0.91165c0.22264,-0.33803 0.40524,-0.70385 0.54782,-1.09745c0.14257,-0.3936 0.24402,-0.80457 0.30434,-1.2329v-0.18233M264.91435,196.50006h0.9048c0,0 -0.0011,0.04457 -0.00329,0.13371c-0.00329,0.0903 -0.00768,0.16439 -0.01316,0.22227c-0.01645,0.61355 -0.04771,1.06793 -0.09377,1.36313c-0.04716,0.2952 -0.12009,0.49779 -0.2188,0.60777c-0.08774,0.10419 -0.19028,0.1748 -0.30763,0.21185c-0.11845,0.0382 -0.2517,0.06599 -0.39976,0.08335c-0.14257,0.00579 -0.33012,0.00868 -0.56262,0.00868c-0.2336,0 -0.48201,-0.00579 -0.74523,-0.01736c-0.00548,-0.11576 -0.02852,-0.246 -0.06909,-0.39071c-0.04168,-0.14471 -0.09267,-0.26915 -0.15299,-0.37334c0.16451,0.01158 0.32244,0.02142 0.47379,0.02952c0.15025,0.00926 0.2846,0.01505 0.40305,0.01736c0.11735,0.00347 0.20619,0.00521 0.26651,0.00521c0.08225,0 0.14806,-0.00463 0.19741,-0.01389c0.04935,-0.0081 0.09322,-0.02952 0.13161,-0.06425c0.03839,-0.04631 0.06855,-0.13197 0.09048,-0.257c0.02193,-0.12387 0.04113,-0.3033 0.05758,-0.53831c0.01645,-0.23384 0.03016,-0.5331 0.04113,-0.89776v-0.13024M258.52315,200.65891c0.25225,-0.05788 0.5363,-0.12734 0.85216,-0.20838c0.31476,-0.08104 0.64597,-0.16786 0.99364,-0.26047c0.34876,-0.09261 0.69588,-0.18812 1.04135,-0.28652l0.10693,0.90297c-0.47708,0.14471 -0.95964,0.28768 -1.44769,0.42891c-0.48805,0.14239 -0.93496,0.26857 -1.34075,0.37855l-0.20564,-0.95506M258.63831,197.88056h2.80489v0.90297h-2.80489v-0.90297M259.71585,196.19618h0.89658v7.0414c0,0.24889 -0.02852,0.44106 -0.08555,0.57651c-0.05813,0.1366 -0.15848,0.23963 -0.30105,0.30909c-0.14257,0.07525 -0.32463,0.12271 -0.54617,0.14239c-0.22264,0.02084 -0.49846,0.03126 -0.82748,0.03126c-0.01645,-0.12155 -0.051,-0.26915 -0.10364,-0.4428c-0.05155,-0.17365 -0.10748,-0.32125 -0.1678,-0.4428c0.2029,0.00579 0.39647,0.00868 0.58072,0.00868c0.18315,0 0.30489,0 0.36521,0c0.07129,0 0.12064,-0.01331 0.14806,-0.03994c0.02742,-0.02547 0.04113,-0.07583 0.04113,-0.15107v-7.03272M261.71464,196.50006h3.47116v0.86824h-2.59925v6.90248h-0.8719zM270.26915,196.59557h3.85775v4.6277h-0.86368v-3.81156h-2.1633v3.81156h-0.83077v-4.6277M272.10343,201.18854h0.8061v1.97958c0,0.11576 0.0181,0.19506 0.05429,0.2379c0.0351,0.04399 0.09377,0.06599 0.17603,0.06599h0.4195c0.07129,0 0.12612,-0.03647 0.16451,-0.1094c0.03839,-0.07177 0.0658,-0.21069 0.08225,-0.41675c0.01645,-0.2049 0.02742,-0.49837 0.0329,-0.88039c0.10419,0.08104 0.22099,0.15049 0.35041,0.20838c0.12832,0.05788 0.24457,0.10129 0.34876,0.13024c-0.02742,0.44569 -0.0669,0.79704 -0.11845,1.05404c-0.05264,0.25816 -0.14477,0.43759 -0.27638,0.53831c-0.13161,0.10187 -0.32902,0.15281 -0.59224,0.15281h-0.57578c-0.30708,0 -0.52917,-0.06078 -0.66626,-0.18233c-0.13709,-0.12155 -0.20564,-0.35598 -0.20564,-0.70327v-2.07509M271.74151,198.00211h0.83077v1.46732c0,0.37624 -0.034,0.78257 -0.102,1.219c-0.06909,0.43759 -0.19412,0.8746 -0.37508,1.31104c-0.18096,0.43759 -0.44253,0.85319 -0.78471,1.24679c-0.34328,0.3936 -0.7891,0.74379 -1.33746,1.05057c-0.0329,-0.06367 -0.08335,-0.13892 -0.15135,-0.22574c-0.06909,-0.08682 -0.13928,-0.17249 -0.21057,-0.257c-0.07129,-0.08335 -0.13709,-0.14528 -0.19741,-0.1858c0.52095,-0.28362 0.93661,-0.59908 1.24698,-0.94638c0.30928,-0.34729 0.54233,-0.70501 0.69917,-1.07314c0.15574,-0.36697 0.25828,-0.73569 0.30763,-1.10613c0.04935,-0.37045 0.07403,-0.72064 0.07403,-1.05057v-1.44995M266.9296,196.84736h2.4841v0.8856h-2.4841v-0.8856M269.11758,196.84736h0.13983l0.15628,-0.03473l0.56756,0.18233c-0.10967,1.05925 -0.28076,2.02994 -0.51327,2.91207c-0.2336,0.88329 -0.52424,1.66759 -0.8719,2.35292c-0.34876,0.68649 -0.75894,1.26705 -1.23053,1.74168c-0.04935,-0.07525 -0.11077,-0.15802 -0.18425,-0.24832c-0.07458,-0.08914 -0.15135,-0.17423 -0.23031,-0.25526c-0.08006,-0.08104 -0.15848,-0.15049 -0.23525,-0.20838c0.31257,-0.28941 0.60046,-0.65291 0.86368,-1.0905c0.26322,-0.43643 0.49792,-0.9267 0.7041,-1.47079c0.20509,-0.5441 0.37892,-1.12581 0.5215,-1.74516c0.14257,-0.61934 0.24676,-1.25894 0.31257,-1.9188v-0.21706M266.94605,198.89639l0.64981,-0.47753c0.22483,0.31257 0.45789,0.64539 0.69917,0.99847c0.24128,0.35308 0.47159,0.71022 0.69094,1.0714c0.21935,0.36234 0.4184,0.70964 0.59717,1.04188c0.17767,0.3334 0.3186,0.63902 0.42279,0.91686l-0.73207,0.57304c-0.09871,-0.27784 -0.23141,-0.58751 -0.39811,-0.92901c-0.1678,-0.34151 -0.35863,-0.69748 -0.57249,-1.06793c-0.21386,-0.37045 -0.43705,-0.738 -0.66955,-1.10266c-0.2336,-0.36466 -0.46282,-0.70617 -0.68765,-1.02452zM278.7414,202.83819l0.53466,-0.33861c0.13161,0.13892 0.26596,0.28941 0.40305,0.45148c0.13709,0.16207 0.26596,0.3224 0.3866,0.481c0.12064,0.15976 0.2166,0.30041 0.28789,0.42196l-0.55933,0.39071c-0.07129,-0.12734 -0.16451,-0.27378 -0.27967,-0.43933c-0.11516,-0.16439 -0.24128,-0.33225 -0.37837,-0.50358c-0.13709,-0.17017 -0.2687,-0.32472 -0.39482,-0.46364M277.28549,196.67371h2.88715v5.59144h-0.69094v-4.9229h-1.52994v4.95763h-0.66626v-5.62617M281.76838,196.32642h0.69917v7.00667c0,0.21995 -0.02468,0.39071 -0.07403,0.51226c-0.04935,0.12155 -0.13435,0.21417 -0.25499,0.27784c-0.12064,0.06367 -0.28076,0.10535 -0.48037,0.12503c-0.2007,0.02084 -0.44911,0.02836 -0.74523,0.02257c-0.01645,-0.0984 -0.04661,-0.22285 -0.09048,-0.37334c-0.04387,-0.15049 -0.09048,-0.28073 -0.13983,-0.39071c0.2029,0.00579 0.39098,0.00868 0.56427,0.00868c0.17219,0 0.29118,0 0.35699,0c0.10967,0 0.16451,-0.05788 0.16451,-0.17365v-7.01535M280.64149,196.99496h0.67449v5.30492h-0.67449v-5.30492M278.37125,197.86319h0.64981v3.26457c0,0.28941 -0.02193,0.58172 -0.0658,0.87692c-0.04387,0.2952 -0.12448,0.58461 -0.24183,0.86824c-0.11845,0.28362 -0.29118,0.54699 -0.51821,0.7901c-0.22812,0.24311 -0.52588,0.45727 -0.89329,0.64249c-0.02193,-0.05209 -0.05648,-0.11576 -0.10364,-0.19101c-0.04606,-0.07525 -0.09487,-0.14934 -0.14641,-0.22227c-0.05264,-0.07177 -0.09816,-0.12503 -0.13654,-0.15976c0.32902,-0.16207 0.59114,-0.34324 0.78636,-0.54352c0.19412,-0.19912 0.33944,-0.41154 0.43595,-0.63729c0.09542,-0.22574 0.15848,-0.46017 0.18919,-0.70327c0.02961,-0.24311 0.04442,-0.48621 0.04442,-0.72932v-3.25589M275.34427,196.95155l0.51821,-0.67722c0.14257,0.07525 0.29996,0.16496 0.47214,0.26915c0.17328,0.10419 0.34108,0.20838 0.5034,0.31257c0.16122,0.10419 0.29118,0.19969 0.38989,0.28652l-0.54288,0.75537c-0.09322,-0.09261 -0.2166,-0.19564 -0.37015,-0.30909c-0.15354,-0.11229 -0.31641,-0.22343 -0.48859,-0.3334c-0.17328,-0.10998 -0.33395,-0.21127 -0.48201,-0.30388M275.01525,199.27842l0.49353,-0.66854c0.14806,0.07525 0.30873,0.16207 0.48201,0.26047c0.17219,0.0984 0.33779,0.1968 0.49682,0.2952c0.15903,0.0984 0.29338,0.18812 0.40305,0.26915l-0.52643,0.74668c-0.09322,-0.08682 -0.21935,-0.18407 -0.37837,-0.29173c-0.15903,-0.1065 -0.32354,-0.21359 -0.49353,-0.32125c-0.16999,-0.1065 -0.32902,-0.20317 -0.47708,-0.28999M275.16331,203.72379c0.10419,-0.22574 0.21935,-0.492 0.34547,-0.79878c0.12612,-0.30678 0.25225,-0.63266 0.37837,-0.97763c0.12612,-0.34382 0.24402,-0.6807 0.3537,-1.01063l0.70739,0.47753c-0.09322,0.30678 -0.19467,0.62224 -0.30434,0.94638c-0.10967,0.32414 -0.22318,0.64249 -0.34054,0.95506c-0.11845,0.31257 -0.23251,0.60777 -0.34218,0.8856zM283.7096,200.71101h3.90711v0.80746h-3.90711v-0.80746M285.24776,199.88618h0.839v3.47295h-0.839v-3.47295M283.42993,203.08129c0.35644,-0.05209 0.76936,-0.11866 1.23876,-0.19969c0.4683,-0.08104 0.96293,-0.1696 1.48388,-0.26568c0.52095,-0.09493 1.03915,-0.1887 1.55462,-0.28131l0.04935,0.79878c-0.48805,0.0984 -0.97883,0.1968 -1.47236,0.2952c-0.49353,0.0984 -0.96622,0.19217 -1.41807,0.28131c-0.45295,0.0903 -0.86587,0.17017 -1.23876,0.23963l-0.19741,-0.86824M283.51218,196.7258h4.27725v0.80746h-4.27725v-0.80746M285.96338,198.00211l0.62514,-0.39939c0.15354,0.19101 0.30708,0.39939 0.46063,0.62513c0.15354,0.22574 0.29612,0.44685 0.42773,0.66333c0.13161,0.21764 0.23306,0.41328 0.30434,0.58693l-0.67449,0.46017c-0.0658,-0.17365 -0.16177,-0.37334 -0.28789,-0.59908c-0.12612,-0.22574 -0.26431,-0.45611 -0.41456,-0.69112c-0.15135,-0.23384 -0.29831,-0.44917 -0.44089,-0.64597M288.15136,196.98627h0.81432v5.2702h-0.81432v-5.2702M289.73888,196.30905h0.86368v6.77224c0,0.24889 -0.02852,0.4428 -0.08555,0.58172c-0.05813,0.13892 -0.16122,0.246 -0.30928,0.32125c-0.14806,0.06946 -0.33725,0.11576 -0.56756,0.13892c-0.23031,0.02315 -0.5045,0.03473 -0.82255,0.03473c-0.01645,-0.12734 -0.05484,-0.27784 -0.11516,-0.45148c-0.06032,-0.17365 -0.12338,-0.32414 -0.18919,-0.45148c0.22483,0.00579 0.43595,0.00984 0.63336,0.01216c0.19741,0.00347 0.33176,0.00521 0.40305,0.00521c0.07677,0 0.12777,-0.01447 0.15299,-0.04341c0.02413,-0.02894 0.03619,-0.08104 0.03619,-0.15628v-6.76356M283.95636,199.83409c-0.01645,-0.06367 -0.04113,-0.14644 -0.07403,-0.24832c-0.0329,-0.10072 -0.06745,-0.20606 -0.10364,-0.31604c-0.0351,-0.10998 -0.06909,-0.20548 -0.102,-0.28652c0.06032,-0.01736 0.12338,-0.05962 0.18919,-0.12676c0.0658,-0.06599 0.13161,-0.14818 0.19741,-0.24658c0.04387,-0.06946 0.11351,-0.18812 0.20893,-0.35598c0.09651,-0.16786 0.19686,-0.3664 0.30105,-0.59561c0.10419,-0.22806 0.19467,-0.46364 0.27144,-0.70674l0.85545,0.33861c-0.10967,0.24311 -0.23415,0.49026 -0.37344,0.74147c-0.14038,0.25237 -0.28625,0.49258 -0.4376,0.72064c-0.15025,0.22921 -0.29941,0.43354 -0.44747,0.61297v0.01736c0,0 -0.02468,0.01447 -0.07403,0.04341c-0.04935,0.02894 -0.10529,0.06657 -0.1678,0.11287c-0.06361,0.04631 -0.12009,0.09551 -0.16945,0.1476c-0.04935,0.05209 -0.07403,0.10129 -0.07403,0.1476M283.95636,199.83409l-0.01645,-0.65118l0.41127,-0.27784l2.57458,-0.18233c0.04935,0.11576 0.10967,0.24137 0.18096,0.37681c0.07129,0.1366 0.13161,0.25121 0.18096,0.34382c-0.54288,0.05209 -1.00077,0.09551 -1.37366,0.13024c-0.37289,0.03473 -0.67559,0.06367 -0.90809,0.08682c-0.2336,0.02315 -0.41895,0.04341 -0.55604,0.06078c-0.13709,0.01736 -0.24128,0.03473 -0.31257,0.05209c-0.07129,0.01736 -0.13161,0.03762 -0.18096,0.06078zM293.44857,198.08893v0.42544h3.71792v-0.42544h-3.71792M293.44857,197.09046v0.41675h3.71792v-0.41675h-3.71792M292.60135,196.47402h5.4535v2.6568h-5.4535v-2.6568M291.58139,199.49548h7.46874v0.74668h-7.46874v-0.74668M295.45559,200.62419h2.78022v0.738h-2.78022v-0.738M292.86456,200.65023h1.91654v0.65986h-1.91654v-0.65986M292.86456,201.74421h1.91654v0.65118h-1.91654v-0.65118M296.40152,201.24932c0.2358,0.55567 0.59498,1.03146 1.07754,1.42738c0.48256,0.39707 1.05835,0.68243 1.72735,0.85608c-0.09322,0.08682 -0.18919,0.20259 -0.28789,0.34729c-0.09871,0.14471 -0.17822,0.27205 -0.23854,0.38202c-0.70739,-0.21995 -1.31224,-0.57014 -1.81454,-1.05057c-0.50121,-0.48042 -0.89164,-1.06504 -1.17131,-1.75384l0.70739,-0.20838M298.11243,200.62419h0.13983l0.14806,-0.02605l0.50175,0.20838c-0.16451,0.59619 -0.40031,1.12003 -0.70739,1.57151c-0.30708,0.45148 -0.66626,0.83351 -1.07754,1.14607c-0.41127,0.31257 -0.85545,0.56435 -1.33253,0.75537c-0.04387,-0.0984 -0.10858,-0.2159 -0.19412,-0.3525c-0.08445,-0.13544 -0.1678,-0.24369 -0.25005,-0.32472c0.42224,-0.14471 0.81981,-0.35019 1.1927,-0.61645c0.37289,-0.26626 0.69807,-0.58751 0.97554,-0.96374c0.27638,-0.37624 0.47763,-0.79878 0.60375,-1.26763v-0.13024M291.57316,203.05525c0.33999,-0.02894 0.72823,-0.06541 1.16473,-0.1094c0.4354,-0.04283 0.89548,-0.08914 1.38024,-0.13892c0.48585,-0.04862 0.96732,-0.09898 1.4444,-0.15107l0.00823,0.74668c-0.46611,0.05788 -0.93332,0.11403 -1.40162,0.16844c-0.4694,0.05557 -0.92071,0.10766 -1.35392,0.15628c-0.43321,0.04978 -0.82529,0.09493 -1.17624,0.13544l-0.0658,-0.80746M294.32048,199.73858h0.84723v4.56692h-0.84723v-4.56692M292.32168,199.75595h0.8061v3.5424h-0.8061zM299.91381,198.57515h7.29601v0.96374h-7.29601v-0.96374M304.07591,198.96585c0.16999,0.67144 0.4014,1.29772 0.69423,1.87886c0.29392,0.5823 0.65749,1.09166 1.0907,1.5281c0.43321,0.43759 0.93771,0.78083 1.51349,1.02973c-0.07129,0.06367 -0.14806,0.14876 -0.23031,0.25526c-0.08225,0.10766 -0.16177,0.21474 -0.23854,0.32125c-0.07677,0.10766 -0.13983,0.2078 -0.18919,0.30041c-0.61417,-0.30678 -1.14773,-0.7079 -1.60068,-1.20338c-0.45185,-0.49432 -0.83406,-1.06851 -1.14663,-1.72258c-0.31257,-0.65407 -0.57304,-1.3776 -0.78142,-2.17059l0.88835,-0.21706M303.05594,196.20486h0.96238c0,0.42254 -0.00987,0.87402 -0.02961,1.35445c-0.01864,0.48042 -0.06087,0.97069 -0.12667,1.47079c-0.0658,0.50126 -0.17274,0.99905 -0.32079,1.49337c-0.14806,0.49547 -0.3537,0.973 -0.61691,1.43259c-0.26322,0.46074 -0.59936,0.88907 -1.00844,1.28499c-0.40798,0.39707 -0.90535,0.74321 -1.4921,1.03841c-0.07129,-0.12734 -0.16999,-0.2651 -0.29612,-0.41328c-0.12612,-0.14702 -0.25225,-0.26973 -0.37837,-0.36813c0.5703,-0.27205 1.04738,-0.58461 1.43124,-0.9377c0.38386,-0.35308 0.69642,-0.738 0.93771,-1.15475c0.24128,-0.41675 0.42608,-0.85087 0.5544,-1.30235c0.12941,-0.45148 0.2188,-0.9047 0.26815,-1.35966c0.04935,-0.4538 0.07951,-0.8966 0.09048,-1.3284c0.01097,-0.43065 0.01919,-0.83409 0.02468,-1.21032zM308.73153,196.45665h6.07041v0.67722h-6.07041v-0.67722M309.09345,199.95564h6.11154v0.64249h-6.11154v-0.64249M309.84197,200.87597h4.91062v0.56435h-4.91062v-0.56435M309.077,201.73553h6.44056v0.62513h-6.44056v-0.62513M309.28264,198.35809h1.73558v0.48621h-1.73558v-0.48621M309.10168,199.15687h1.92476v0.47753h-1.92476v-0.47753M312.49058,199.15687h1.94944v0.47753h-1.94944v-0.47753M312.49058,198.35809h1.75203v0.48621h-1.75203v-0.48621M311.31434,196.74317h0.8719v3.03883h-0.8719v-3.03883M308.2051,197.48117h7.13972v1.51941h-0.85545v-0.96374h-5.46995v0.96374h-0.81432v-1.51941M308.69863,199.95564h0.82255v1.19817c0,0.24311 -0.01371,0.50473 -0.04113,0.78489c-0.02742,0.28131 -0.07842,0.56667 -0.15299,0.85608c-0.07348,0.28941 -0.17712,0.56841 -0.31092,0.83698c-0.1349,0.26973 -0.30928,0.51458 -0.52314,0.73453c-0.04387,-0.05788 -0.10419,-0.12618 -0.18096,-0.2049c-0.07677,-0.07756 -0.15738,-0.15281 -0.24183,-0.22574c-0.08555,-0.07177 -0.16122,-0.12503 -0.22702,-0.15976c0.25773,-0.26047 0.44692,-0.5441 0.56756,-0.85087c0.12064,-0.30678 0.19906,-0.61529 0.23525,-0.92554c0.0351,-0.30909 0.05264,-0.59677 0.05264,-0.86303v-1.1808M312.48235,202.06546c0.16451,0.28362 0.39757,0.51921 0.69917,0.70674c0.3016,0.1887 0.66188,0.3363 1.08083,0.4428c0.42005,0.10766 0.8878,0.17886 1.40327,0.21359c-0.07677,0.08104 -0.15628,0.19101 -0.23854,0.32993c-0.08225,0.13892 -0.14806,0.26626 -0.19741,0.38202c-0.56482,-0.06367 -1.06822,-0.17365 -1.5102,-0.32993c-0.44089,-0.15628 -0.82036,-0.3664 -1.13841,-0.63034c-0.31805,-0.26279 -0.58127,-0.58519 -0.78965,-0.96722l0.69094,-0.1476M314.39889,202.2912l0.64981,0.34729c-0.19741,0.13892 -0.40579,0.26742 -0.62514,0.3855c-0.21935,0.11924 -0.4195,0.22227 -0.60046,0.30909l-0.53466,-0.31257c0.12064,-0.06946 0.24786,-0.14644 0.38166,-0.23095c0.1349,-0.08335 0.26651,-0.17017 0.39482,-0.26047c0.12941,-0.08914 0.24073,-0.16844 0.33395,-0.2379M309.90778,204.30551l-0.04113,-0.60777l0.34547,-0.25179l2.27023,-0.33861c-0.02193,0.10419 -0.04113,0.22401 -0.05758,0.35945c-0.01645,0.1366 -0.02468,0.24832 -0.02468,0.33514c-0.5045,0.08682 -0.91193,0.15744 -1.22231,0.21185c-0.30928,0.05557 -0.54891,0.10072 -0.71891,0.13544c-0.16999,0.03473 -0.29338,0.06367 -0.37015,0.08682c-0.07677,0.02315 -0.13709,0.04631 -0.18096,0.06946M309.90778,204.30551c-0.02193,-0.06946 -0.05484,-0.14934 -0.09871,-0.23963c-0.04387,-0.08914 -0.09213,-0.17886 -0.14477,-0.26915c-0.05155,-0.08914 -0.09925,-0.16265 -0.14312,-0.22053c0.09322,-0.05209 0.19303,-0.14065 0.29941,-0.26568c0.10748,-0.12387 0.16122,-0.2842 0.16122,-0.481v-0.83351l0.85545,0.01736v1.41523c0,0 -0.03126,0.02026 -0.09377,0.06078c-0.06361,0.04052 -0.14093,0.09551 -0.23196,0.16496c-0.08993,0.06946 -0.18151,0.14181 -0.27473,0.21706c-0.09322,0.07525 -0.17109,0.15165 -0.2336,0.22921c-0.06361,0.07872 -0.09542,0.14702 -0.09542,0.2049zM317.89473,198.67934h5.74962v0.738h-5.74962v-0.738M317.96876,201.2059h4.57337v0.738h-4.57337v-0.738M319.06275,198.05421h0.839v2.04036h1.6451v-2.04036h0.86368v2.75231h-3.34777v-2.75231M322.31181,201.2059h0.17274l0.15628,-0.03473l0.55111,0.30388c-0.22483,0.45148 -0.51821,0.83756 -0.88013,1.15823c-0.36192,0.32183 -0.7732,0.58982 -1.23382,0.80399c-0.46063,0.21417 -0.9569,0.38492 -1.48881,0.51226c-0.53192,0.12734 -1.08576,0.22574 -1.66155,0.2952c-0.0329,-0.10998 -0.08335,-0.24195 -0.15135,-0.39592c-0.06909,-0.15281 -0.13928,-0.28131 -0.21057,-0.3855c0.52643,-0.04052 1.03641,-0.11171 1.52994,-0.21359c0.49353,-0.10072 0.94977,-0.235 1.36872,-0.40286c0.42005,-0.16786 0.7891,-0.37797 1.10715,-0.63034c0.31805,-0.25121 0.56482,-0.54757 0.74029,-0.88907v-0.12155M319.34241,201.77026c0.2687,0.33572 0.62623,0.62224 1.0726,0.85955c0.44747,0.23732 0.96458,0.42659 1.55133,0.56783c0.58675,0.14239 1.21737,0.23963 1.89186,0.29173c-0.06032,0.06367 -0.12338,0.14471 -0.18919,0.24311c-0.0658,0.0984 -0.12777,0.1968 -0.1859,0.2952c-0.05703,0.0984 -0.102,0.18812 -0.1349,0.26915c-0.70191,-0.07525 -1.35282,-0.20432 -1.95273,-0.38723c-0.60101,-0.18175 -1.13731,-0.42486 -1.60891,-0.72932c-0.47159,-0.3033 -0.8719,-0.67202 -1.20092,-1.10613l0.75674,-0.30388M317.25314,196.97759h6.47346v0.86824h-6.47346v-0.86824M316.84186,196.97759h0.8719v2.32687c0,0.35887 -0.00987,0.75363 -0.02961,1.18427c-0.01864,0.4318 -0.05538,0.87345 -0.11022,1.32493c-0.05484,0.45148 -0.13435,0.8885 -0.23854,1.31104c-0.10419,0.42254 -0.24128,0.81035 -0.41127,1.16344c-0.06032,-0.04631 -0.13983,-0.09551 -0.23854,-0.1476c-0.09871,-0.05209 -0.19906,-0.10303 -0.30105,-0.15281c-0.1009,-0.04862 -0.18973,-0.08161 -0.26651,-0.09898c0.16451,-0.33572 0.29612,-0.69922 0.39482,-1.0905c0.09871,-0.39013 0.17109,-0.79067 0.21715,-1.20164c0.04716,-0.41096 0.07732,-0.81209 0.09048,-1.20338c0.01426,-0.39013 0.02139,-0.75016 0.02139,-1.08009v-2.33556M319.72078,196.35246l0.88835,-0.21706c0.09322,0.18522 0.17932,0.38781 0.25828,0.60777c0.08006,0.21995 0.13654,0.40807 0.16945,0.56435l-0.94593,0.24311c-0.02193,-0.16207 -0.06855,-0.35598 -0.13983,-0.58172c-0.07129,-0.22574 -0.14806,-0.43122 -0.23031,-0.61645zM325.26476,197.60272h2.517v5.79982h-2.517v-0.82482h1.7109v-4.15885h-1.7109v-0.81614M324.74656,197.60272h0.8061v6.45968h-0.8061v-6.45968M325.22364,199.94696h2.15508v0.80746h-2.15508v-0.80746M325.93925,196.1875l0.96238,0.15628c-0.08774,0.28362 -0.18096,0.56841 -0.27967,0.85434c-0.09871,0.2871 -0.18919,0.53194 -0.27144,0.73453l-0.70739,-0.17365c0.03839,-0.14471 0.07787,-0.30967 0.11845,-0.49489c0.04168,-0.18522 0.07896,-0.37218 0.11187,-0.56088c0.0329,-0.18754 0.05484,-0.35945 0.0658,-0.51573M328.8922,197.55063h2.44297v0.85087h-2.44297v-0.85087M331.02261,197.55063h0.82255c0,0 0,0.0272 0,0.08161c0,0.05557 0,0.11634 0,0.18233c0,0.06714 -0.00274,0.12097 -0.00823,0.16149c-0.02742,0.984 -0.05648,1.81751 -0.08719,2.50052c-0.02961,0.68301 -0.06526,1.24447 -0.10693,1.68438c-0.04058,0.43991 -0.08829,0.78257 -0.14312,1.02799c-0.05484,0.24658 -0.12612,0.42775 -0.21386,0.54352c-0.10967,0.15628 -0.22209,0.26336 -0.33725,0.32125c-0.11516,0.05788 -0.25499,0.10129 -0.4195,0.13024c-0.14806,0.01736 -0.33725,0.02605 -0.56756,0.02605c-0.23031,0 -0.46611,-0.00579 -0.70739,-0.01736c-0.00548,-0.12734 -0.034,-0.27784 -0.08555,-0.45148c-0.05264,-0.17365 -0.12283,-0.32414 -0.21057,-0.45148c0.2687,0.02315 0.51546,0.03762 0.74029,0.04341c0.22483,0.00579 0.38934,0.00868 0.49353,0.00868c0.08225,0 0.14916,-0.01042 0.2007,-0.03126c0.05264,-0.01968 0.10638,-0.05846 0.16122,-0.11634c0.0658,-0.08104 0.12338,-0.23905 0.17274,-0.47406c0.04935,-0.23384 0.09048,-0.56493 0.12338,-0.99326c0.0329,-0.42833 0.06416,-0.97242 0.09377,-1.63228c0.03071,-0.65986 0.05703,-1.44706 0.07896,-2.3616v-0.18233M328.95801,196.1875l0.84723,0.20838c-0.10419,0.42833 -0.22922,0.85203 -0.37508,1.2711c-0.14477,0.42023 -0.30489,0.81556 -0.48037,1.18601c-0.17548,0.37045 -0.35644,0.69459 -0.54288,0.97242c-0.05484,-0.05209 -0.12612,-0.11287 -0.21386,-0.18233c-0.08774,-0.06946 -0.17822,-0.13776 -0.27144,-0.2049c-0.09322,-0.06599 -0.17274,-0.11634 -0.23854,-0.15107c0.18096,-0.24889 0.35205,-0.54004 0.51327,-0.87345c0.16232,-0.33225 0.30818,-0.68938 0.4376,-1.0714c0.12832,-0.38202 0.23635,-0.76694 0.32408,-1.15475M328.56319,199.98169l0.69094,-0.40807c0.13709,0.1968 0.28515,0.41502 0.44418,0.65465c0.15903,0.24079 0.30818,0.47232 0.44747,0.69459c0.14038,0.22343 0.2517,0.42196 0.33395,0.59561l-0.74852,0.48621c-0.07677,-0.17944 -0.18096,-0.38492 -0.31257,-0.61645c-0.13161,-0.23153 -0.27309,-0.47058 -0.42444,-0.71716c-0.15025,-0.24542 -0.29392,-0.47521 -0.43102,-0.68938zM332.75818,200.98016h7.38649v0.84219h-7.38649v-0.84219M334.39506,198.08025h4.09629v0.76405h-4.09629v-0.76405M334.40328,199.52153h4.10452v0.75537h-4.10452v-0.75537M334.03314,196.60425h5.02577v4.75794h-0.88835v-3.97652h-3.28197v3.97652h-0.85545v-4.75794M337.29043,202.15228l0.74852,-0.34729c0.2358,0.1968 0.47872,0.41965 0.72878,0.66854c0.24896,0.24889 0.48201,0.49316 0.69917,0.73279c0.21606,0.24079 0.39537,0.4538 0.53795,0.63902l-0.7732,0.42544c-0.13709,-0.1968 -0.31421,-0.42138 -0.53137,-0.67375c-0.21606,-0.25121 -0.44747,-0.50416 -0.69423,-0.75884c-0.24676,-0.25468 -0.4853,-0.48332 -0.71562,-0.68591M333.49025,204.08845c-0.01645,-0.06946 -0.04113,-0.15628 -0.07403,-0.26047c-0.0329,-0.10419 -0.0658,-0.21301 -0.09871,-0.32646c-0.0329,-0.11229 -0.06855,-0.20896 -0.10693,-0.28999c0.09322,-0.02315 0.18644,-0.06251 0.27967,-0.11808c0.09322,-0.05441 0.19467,-0.12792 0.30434,-0.22053c0.08225,-0.05788 0.20399,-0.16207 0.36521,-0.31257c0.16232,-0.15049 0.34218,-0.33282 0.53959,-0.54699c0.19741,-0.21417 0.37837,-0.43991 0.54288,-0.67722l0.9048,0.36466c-0.31805,0.37624 -0.65639,0.73337 -1.01503,1.0714c-0.35973,0.33919 -0.70684,0.62455 -1.04135,0.85608v0.01736c0,0 -0.03016,0.01447 -0.09048,0.04341c-0.06032,0.02894 -0.13051,0.06483 -0.21057,0.10766c-0.07896,0.04399 -0.14861,0.09203 -0.20893,0.14413c-0.06032,0.05209 -0.09048,0.10129 -0.09048,0.1476M333.49025,204.08845l-0.00823,-0.64249l0.52643,-0.30388l4.76256,-0.19969c0.01645,0.11576 0.04113,0.24426 0.07403,0.3855c0.0329,0.14239 0.05758,0.257 0.07403,0.34382c-0.75674,0.04052 -1.4093,0.0764 -1.95767,0.10766c-0.54837,0.03241 -1.01174,0.0602 -1.39011,0.08335c-0.37837,0.02315 -0.6893,0.04341 -0.93277,0.06078c-0.24457,0.01736 -0.43979,0.03299 -0.58565,0.04688c-0.14477,0.01505 -0.25993,0.03126 -0.34547,0.04862c-0.08445,0.01736 -0.15683,0.04052 -0.21715,0.06946zM342.15992,201.4056c0.24128,0 0.46063,0.06193 0.65804,0.1858c0.19741,0.12503 0.35534,0.29173 0.47379,0.5001c0.11735,0.20838 0.17603,0.43991 0.17603,0.69459c0,0.25468 -0.05867,0.48621 -0.17603,0.69459c-0.11845,0.20838 -0.27638,0.3745 -0.47379,0.49837c-0.19741,0.12503 -0.41676,0.18754 -0.65804,0.18754c-0.24128,0 -0.46063,-0.06251 -0.65804,-0.18754c-0.19741,-0.12387 -0.35479,-0.28999 -0.47214,-0.49837c-0.11845,-0.20838 -0.17767,-0.43991 -0.17767,-0.69459c0,-0.25468 0.05922,-0.48621 0.17767,-0.69459c0.11735,-0.20838 0.27473,-0.37508 0.47214,-0.5001c0.19741,-0.12387 0.41676,-0.1858 0.65804,-0.1858M342.15992,203.59355c0.21386,0 0.39482,-0.07814 0.54288,-0.23442c0.14806,-0.15628 0.22209,-0.34729 0.22209,-0.57304c0,-0.14471 -0.034,-0.27957 -0.102,-0.4046c-0.06909,-0.12387 -0.16122,-0.22227 -0.27638,-0.2952c-0.11516,-0.07177 -0.24402,-0.10766 -0.3866,-0.10766c-0.13709,0 -0.26486,0.03589 -0.38331,0.10766c-0.11735,0.07293 -0.21057,0.17133 -0.27967,0.2952c-0.068,0.12503 -0.102,0.25989 -0.102,0.4046c0,0.15049 0.034,0.28768 0.102,0.41154c0.06909,0.12503 0.16122,0.22227 0.27638,0.29173c0.11516,0.06946 0.24402,0.10419 0.3866,0.10419z" fill="#ffffff" fill-rule="nonzero" stroke-width="1"/></g></g></svg>