<svg version="1.1" xmlns="http://www.w3.org/2000/svg" xmlns:xlink="http://www.w3.org/1999/xlink" width="171.96034" height="43.54579" viewBox="0,0,171.96034,43.54579"><g transform="translate(-46.60819,-111.71909)"><g fill="#ffffff" stroke="none" stroke-miterlimit="10"><path d="M174.05063,137.79659v-4.73222h16.53357v4.73222zM197.01063,139.60768c0,-3.11585 0.32326,-6.03698 0.96984,-8.76339c0.63874,-2.72636 1.5034,-5.24634 2.59395,-7.55984c1.09054,-2.32133 2.30963,-4.40895 3.65725,-6.26291c1.33979,-1.84612 2.73028,-3.47032 4.17137,-4.87242l3.97273,2.86269c-1.28531,1.40215 -2.53164,2.85103 -3.73906,4.34664c-1.20742,1.5034 -2.27847,3.17821 -3.21324,5.02433c-0.93476,1.85395 -1.68259,4.0078 -2.2434,6.4615c-0.56864,2.45375 -0.85296,5.37488 -0.85296,8.76339h-5.31648M197.01063,143.87252v-3.97273h5.31648v3.97273h-5.31648M213.25209,143.87252v-3.97273h5.31644v3.97273h-5.31644M218.56853,143.87252c0,2.18113 -0.47517,4.12851 -1.42551,5.84226c-0.95813,1.71375 -2.2434,3.06912 -3.85585,4.0662c-1.62024,0.98929 -3.46253,1.48391 -5.52678,1.48391v-4.61538c1.75265,0 3.10806,-0.59588 4.0662,-1.78772c0.95034,-1.18406 1.42551,-2.84711 1.42551,-4.98925h5.31644M197.01063,143.87252h5.31648c0,2.14214 0.48683,3.80524 1.46054,4.98925c0.97371,1.19185 2.31742,1.78772 4.03117,1.78772v4.61538c-2.06425,0 -3.90263,-0.49462 -5.51508,-1.48391c-1.62024,-0.99708 -2.90555,-2.35249 -3.85589,-4.0662c-0.95813,-1.71375 -1.43722,-3.66113 -1.43722,-5.84226M218.56853,139.89979h-5.31644c0,-2.18113 -0.47517,-3.85589 -1.42551,-5.02433c-0.95813,-1.16843 -2.31355,-1.75265 -4.0662,-1.75265v-4.61538c2.06425,0 3.90654,0.49854 5.52678,1.49561c1.61245,0.98929 2.89772,2.34078 3.85585,4.05453c0.95034,1.71375 1.42551,3.66113 1.42551,5.84221M197.01063,139.89979c0,-2.18113 0.47904,-4.12851 1.43722,-5.84221c0.95034,-1.71375 2.23566,-3.06525 3.85589,-4.05453c1.61245,-0.99708 3.45082,-1.49561 5.51508,-1.49561v4.61538c-1.71375,0 -3.05746,0.58422 -4.03117,1.75265c-0.97371,1.16843 -1.46054,2.84319 -1.46054,5.02433z"/><path d="M56.61807,153.55251l9.0263,-29.21975h5.26534l-9.43132,29.21975zM56.09737,153.55251l-9.48918,-29.21975h5.26534l9.0263,29.21975zM77.56367,124.73774l-3.18235,-3.29807l7.9848,-8.67913v6.71186zM82.36617,153.55251v-40.79192h5.26534v40.79192zM98.27791,153.78395c-0.96436,0 -1.77442,-0.32789 -2.43016,-0.98363c-0.65574,-0.65574 -0.98363,-1.46579 -0.98363,-2.43016c0,-0.96436 0.32789,-1.77442 0.98363,-2.43016c0.65574,-0.69433 1.46579,-1.0415 2.43016,-1.0415c0.96436,0 1.77442,0.34717 2.43016,1.0415c0.69433,0.65574 1.0415,1.46579 1.0415,2.43016c0,0.96436 -0.34717,1.77442 -1.0415,2.43016c-0.65574,0.65574 -1.46579,0.98363 -2.43016,0.98363zM107.6803,138.9137c0,-3.0859 0.30858,-5.97894 0.92577,-8.67913c0.65574,-2.70019 1.52366,-5.18821 2.60374,-7.46405c1.08008,-2.31444 2.27585,-4.37815 3.58737,-6.19111c1.35007,-1.85155 2.73873,-3.47165 4.16598,-4.86031l3.93454,2.83518c-1.27294,1.38866 -2.50729,2.83518 -3.7031,4.33957c-1.19581,1.46579 -2.25657,3.12449 -3.18235,4.97604c-0.92577,1.81296 -1.67797,3.93454 -2.25657,6.3647c-0.54002,2.43016 -0.81005,5.3232 -0.81005,8.67913zM107.6803,143.13755v-3.93454h5.26534v3.93454zM123.76545,143.13755v-3.93454h5.26534v3.93454zM129.03097,143.13755c0,2.16012 -0.48216,4.08885 -1.44652,5.78609c-0.92577,1.69724 -2.19871,3.04735 -3.81882,4.05026c-1.58152,0.96436 -3.39452,1.44652 -5.43892,1.44652v-4.57101c1.73583,0 3.06663,-0.57861 3.9924,-1.73583c0.96436,-1.19581 1.44652,-2.85446 1.44652,-4.97604zM107.6803,143.13755h5.26534c0,2.12158 0.48216,3.78023 1.44652,4.97604c0.96436,1.15722 2.29516,1.73583 3.9924,1.73583v4.57101c-2.0444,0 -3.87668,-0.48216 -5.49678,-1.44652c-1.58152,-1.00291 -2.85446,-2.35302 -3.81882,-4.05026c-0.92577,-1.69724 -1.38866,-3.62596 -1.38866,-5.78609zM129.03097,139.20296h-5.26534c0,-2.16012 -0.48216,-3.81882 -1.44652,-4.97604c-0.92577,-1.15722 -2.25657,-1.73583 -3.9924,-1.73583v-4.57101c2.0444,0 3.85741,0.50148 5.43892,1.50438c1.6201,0.96436 2.89304,2.29516 3.81882,3.9924c0.96436,1.69724 1.44652,3.62596 1.44652,5.78609zM107.6803,139.20296c0,-2.16012 0.46289,-4.08885 1.38866,-5.78609c0.96436,-1.69724 2.2373,-3.02804 3.81882,-3.9924c1.6201,-1.00291 3.45238,-1.50438 5.49678,-1.50438v4.57101c-1.69724,0 -3.02804,0.57861 -3.9924,1.73583c-0.96436,1.15722 -1.44652,2.81591 -1.44652,4.97604zM137.94159,153.78395c-0.96436,0 -1.77442,-0.32789 -2.43016,-0.98363c-0.65574,-0.65574 -0.98363,-1.46579 -0.98363,-2.43016c0,-0.96436 0.32789,-1.77442 0.98363,-2.43016c0.65574,-0.69433 1.46579,-1.0415 2.43016,-1.0415c0.96436,0 1.77442,0.34717 2.43016,1.0415c0.69433,0.65574 1.0415,1.46579 1.0415,2.43016c0,0.96436 -0.34717,1.77442 -1.0415,2.43016c-0.65574,0.65574 -1.46579,0.98363 -2.43016,0.98363zM157.06465,134.40051v-4.57101c1.46579,0 2.6616,-0.63647 3.58737,-1.90941c0.96436,-1.27294 1.44652,-2.91232 1.44652,-4.91817h5.26534c0,2.19871 -0.44361,4.16598 -1.3308,5.90181c-0.84864,1.69724 -2.0444,3.04735 -3.58737,4.05026c-1.54297,0.96436 -3.33666,1.44652 -5.38106,1.44652zM162.67716,144.179v-4.05026h5.26534v4.05026zM153.53514,134.40051v-4.57101h3.58737v4.57101zM162.09855,123.05978c0,-1.92868 -0.48216,-3.51024 -1.44652,-4.74459c-0.92577,-1.23435 -2.12158,-1.85155 -3.58737,-1.85155v-4.57101c2.0444,0 3.83809,0.48216 5.38106,1.44652c1.54297,0.92577 2.73873,2.2373 3.58737,3.93454c0.88719,1.65869 1.3308,3.58737 1.3308,5.78609zM167.9425,144.12118c0,1.96727 -0.46289,3.74169 -1.38866,5.3232c-0.92577,1.54297 -2.19871,2.77732 -3.81882,3.7031c-1.6201,0.88719 -3.45238,1.3308 -5.49678,1.3308v-4.57101c1.58152,0 2.87377,-0.54002 3.87668,-1.6201c1.0415,-1.11863 1.56224,-2.50729 1.56224,-4.16598zM167.9425,140.18664h-5.26534c0,-1.69724 -0.52075,-3.0859 -1.56224,-4.16598c-1.00291,-1.08008 -2.29516,-1.6201 -3.87668,-1.6201v-4.57101c2.0444,0 3.87668,0.44361 5.49678,1.3308c1.6201,0.88719 2.89304,2.12158 3.81882,3.7031c0.92577,1.58152 1.38866,3.35593 1.38866,5.3232zM151.62573,121.49753l-4.86031,-0.98363c0.23144,-1.69724 0.81005,-3.18235 1.73583,-4.45529c0.96436,-1.31153 2.19871,-2.33371 3.7031,-3.06663c1.50438,-0.73292 3.14376,-1.09936 4.91817,-1.09936v4.57101c-1.38866,0 -2.60374,0.40503 -3.64524,1.21508c-1.0415,0.81005 -1.65869,2.08299 -1.85155,3.81882zM151.79931,144.87338c0.19285,1.69724 0.79078,2.97018 1.79369,3.81882c1.0415,0.81005 2.27585,1.21508 3.7031,1.21508v4.57101c-1.81296,0 -3.47165,-0.36644 -4.97604,-1.09936c-1.46579,-0.73292 -2.68087,-1.7551 -3.64524,-3.06663c-0.92577,-1.31153 -1.50438,-2.79659 -1.73583,-4.45529z"/></g></g></svg>