<svg version="1.1" xmlns="http://www.w3.org/2000/svg" xmlns:xlink="http://www.w3.org/1999/xlink" width="224" height="68" viewBox="0,0,224,68"><g transform="translate(-128,-146)"><g stroke-miterlimit="10"><path d="M128,214v-68h224v68z" fill="none" fill-rule="nonzero" stroke="none" stroke-width="1" stroke-linecap="butt"/><path d="M128,214v-66h224v66z" fill="#1d2a41" fill-rule="nonzero" stroke="none" stroke-width="1" stroke-linecap="butt"/><g stroke="none" stroke-width="1" stroke-linecap="butt"><path d="M148,166h24c5.54,0 10,4.46 10,10v16c0,5.54 -4.46,10 -10,10h-34v-26c0,-5.54 4.46,-10 10,-10z" fill="#ed291b" fill-rule="evenodd"/><g fill="#ffffff" fill-rule="nonzero"><path d="M152,184.613v-2.37c0.76,0 1.38,-0.33 1.86,-0.99c0.5,-0.66 0.75,-1.51 0.75,-2.55h2.73c0,1.14 -0.23,2.16 -0.69,3.06c-0.44,0.88 -1.06,1.58 -1.86,2.1c-0.8,0.5 -1.73,0.75 -2.79,0.75zM154.91,189.683v-2.1h2.73v2.1zM150.17,184.613v-2.37h1.86v2.37zM154.61,178.733c0,-1 -0.25,-1.82 -0.75,-2.46c-0.48,-0.64 -1.1,-0.96 -1.86,-0.96v-2.37c1.06,0 1.99,0.25 2.79,0.75c0.8,0.48 1.42,1.16 1.86,2.04c0.46,0.86 0.69,1.86 0.69,3zM157.64,189.653c0,1.02 -0.24,1.94 -0.72,2.76c-0.48,0.8 -1.14,1.44 -1.98,1.92c-0.84,0.46 -1.79,0.69 -2.85,0.69v-2.37c0.82,0 1.49,-0.28 2.01,-0.84c0.54,-0.58 0.81,-1.3 0.81,-2.16zM157.64,187.613h-2.73c0,-0.88 -0.27,-1.6 -0.81,-2.16c-0.52,-0.56 -1.19,-0.84 -2.01,-0.84v-2.37c1.06,0 2.01,0.23 2.85,0.69c0.84,0.46 1.5,1.1 1.98,1.92c0.48,0.82 0.72,1.74 0.72,2.76zM149.18,177.923l-2.52,-0.51c0.12,-0.88 0.42,-1.65 0.9,-2.31c0.5,-0.68 1.14,-1.21 1.92,-1.59c0.78,-0.38 1.63,-0.57 2.55,-0.57v2.37c-0.72,0 -1.35,0.21 -1.89,0.63c-0.54,0.42 -0.86,1.08 -0.96,1.98zM149.27,190.043c0.1,0.88 0.41,1.54 0.93,1.98c0.54,0.42 1.18,0.63 1.92,0.63v2.37c-0.94,0 -1.8,-0.19 -2.58,-0.57c-0.76,-0.38 -1.39,-0.91 -1.89,-1.59c-0.48,-0.68 -0.78,-1.45 -0.9,-2.31z"/><path d="M159.688,194.543v-10.1h1.82v10.1zM164.908,194.543v-6.88h1.82v6.88zM160.688,187.703c0,-0.68 0.12667,-1.28667 0.38,-1.82c0.26667,-0.54667 0.62667,-0.97333 1.08,-1.28c0.45333,-0.30667 0.96,-0.46 1.52,-0.46l-0.46,1.62c-0.48,0 -0.88667,0.18 -1.22,0.54c-0.32,0.36 -0.48,0.82667 -0.48,1.4zM164.908,187.663c0,-0.56 -0.16,-1.01333 -0.48,-1.36c-0.32,-0.36 -0.72667,-0.54 -1.22,-0.54l0.46,-1.62c0.58667,0 1.10667,0.15333 1.56,0.46c0.46667,0.30667 0.83333,0.72667 1.1,1.26c0.26667,0.52 0.4,1.12 0.4,1.8zM170.108,194.543v-6.88h1.82v6.88zM165.908,187.703c0,-0.68 0.12667,-1.28667 0.38,-1.82c0.26667,-0.54667 0.62,-0.97333 1.06,-1.28c0.45333,-0.30667 0.96,-0.46 1.52,-0.46l-0.46,1.62c-0.48,0 -0.88,0.18 -1.2,0.54c-0.32,0.36 -0.48,0.82667 -0.48,1.4zM170.108,187.663c0,-0.56 -0.16,-1.01333 -0.48,-1.36c-0.30667,-0.36 -0.71333,-0.54 -1.22,-0.54l0.46,-1.62c0.58667,0 1.10667,0.15333 1.56,0.46c0.46667,0.30667 0.83333,0.72667 1.1,1.26c0.26667,0.52 0.4,1.12 0.4,1.8z"/></g></g><path d="M207.35901,184.78938v1.4182h-2.14815l-0.12514,3.23266h1.87703v1.43905h-1.91874l-0.02086,0.37541c-0.04171,0.63958 -0.15642,1.13317 -0.34412,1.48077c-0.1877,0.3476 -0.47968,0.59439 -0.87595,0.74038c-0.39626,0.14599 -0.94894,0.21899 -1.65804,0.21899h-3.10752l-0.31284,-1.45991h2.91982c0.6952,0 1.17836,-0.09385 1.44948,-0.28155c0.27113,-0.1877 0.42059,-0.53182 0.4484,-1.03237v-0.04171h-9.36428l0.5214,-4.67171h-1.62676v-1.4182h1.77275l0.45883,-4.15032c-0.41712,0.52835 -0.73691,0.91766 -0.95937,1.16793l-1.06365,-1.12622c0.76471,-0.84814 1.49119,-1.81446 2.17944,-2.89897c0.68824,-1.08451 1.24788,-2.13425 1.6789,-3.14924l1.39734,0.47968c-0.23637,0.54225 -0.50749,1.10536 -0.81338,1.68933h9.13487v1.4182h-9.92739c-0.44493,0.73691 -0.84814,1.34868 -1.20964,1.83532h9.69798l-0.16685,4.73428zM195.78401,189.44024h7.82095l0.04171,-0.77167c0.05562,-0.94547 0.09038,-1.7658 0.10428,-2.46099h-7.59154zM203.95951,181.4733h-7.25784l-0.37541,3.31608h7.48726c0.09733,-1.90484 0.14599,-3.0102 0.14599,-3.31608zM190.69518,193.88254l-1.50162,-0.45883l2.02302,-7.17442l1.4182,0.43797c-0.11123,0.38931 -0.7091,2.59308 -1.7936,6.61131zM193.17702,182.95407l-0.8968,1.31392c-1.69628,-1.47381 -2.82249,-2.41928 -3.37865,-2.8364l0.8968,-1.20964zM193.76099,177.96951l-0.85509,1.2305c-1.01499,-0.83423 -2.13425,-1.71713 -3.35779,-2.6487l0.8968,-1.18878c0.77862,0.58396 1.88398,1.45296 3.31608,2.60698zM201.64451,188.31402l-0.87595,1.08451c-0.30589,-0.27808 -0.72648,-0.62568 -1.26178,-1.04279c-0.5353,-0.41712 -1.01151,-0.77862 -1.42863,-1.08451l0.79252,-1.04279c0.95937,0.6952 1.88398,1.39039 2.77383,2.08559zM198.45356,182.57866l0.79252,-1.06365c1.22354,0.88985 2.11339,1.57114 2.66955,2.04388l-0.83423,1.12622c-0.75081,-0.63958 -1.62676,-1.34173 -2.62784,-2.10644z" fill="#ffffff" fill-rule="evenodd" stroke="#ffffff" stroke-width="0.45" stroke-linecap="round"/><path d="M222.35438,176.8433h4.50487v2.98239h1.20964v1.33478h-1.20964v2.98239h-4.50487v9.46856h-1.48077v-9.46856h-4.52572v-1.29306h4.52572v-1.68933h-5.21397v-1.33478h5.21397v-1.71018h-4.2546v-1.27221h4.2546v-1.91874h1.48077zM210.46654,176.94757h4.69257v13.01406h-3.27437v1.89788h-1.4182zM211.88474,188.48087h1.85617v-10.07338h-1.85617zM216.5356,185.93645v-1.04279h1.37649v1.16793c0,1.27916 -0.073,2.36714 -0.21899,3.26394c-0.14599,0.8968 -0.41017,1.72756 -0.79252,2.49228c-0.38236,0.76471 -0.92809,1.53638 -1.63719,2.315l-1.04279,-1.02194c0.62568,-0.68129 1.10189,-1.3313 1.42863,-1.95002c0.32674,-0.61872 0.55616,-1.32782 0.68824,-2.1273c0.13209,-0.79948 0.19813,-1.83184 0.19813,-3.0971zM226.98439,184.91452v8.96802h-1.4182v-8.96802zM219.14258,191.83866l-1.20964,-0.29198c0.27808,-0.82033 0.51792,-1.74842 0.71953,-2.78426c0.20161,-1.03584 0.35107,-2.06126 0.4484,-3.07624l1.12622,0.10428c-0.09733,1.0706 -0.23984,2.1412 -0.42755,3.2118c-0.1877,1.0706 -0.40669,2.01607 -0.65696,2.8364zM225.33677,191.31727l-1.18878,0.33369l-1.29306,-5.8605l1.16793,-0.29198zM225.52448,179.82568v-1.71018h-3.17009v1.71018zM222.35438,181.16046v1.68933h3.17009v-1.68933z" fill="#ffffff" fill-rule="evenodd" stroke="#ffffff" stroke-width="0.45" stroke-linecap="round"/><path d="M232.82403,177.44812l0.75081,0.27113v-0.68824h-2.75297v-1.00108h2.75297v-1.10536h1.29306v1.10536h2.39842v-1.10536h1.33478v1.10536h2.60698v1.00108h-2.60698v0.81338h-1.33478v-0.81338h-2.39842v0.83423h-1.04279c-0.02781,0.04171 -0.12514,0.20161 -0.29198,0.47968h6.67388c-0.0139,0.48664 -0.03128,1.10189 -0.05214,1.84574c-0.02086,0.74386 -0.04519,1.32435 -0.073,1.74147c-0.05562,0.62568 -0.24679,1.06365 -0.57354,1.31392c-0.32674,0.25027 -0.87942,0.37541 -1.65804,0.37541h-0.45883l-0.20856,-0.98023h0.41712c0.47273,0 0.78905,-0.06257 0.94894,-0.1877c0.15989,-0.12514 0.25375,-0.38236 0.28155,-0.77167c0.0139,-0.26417 0.03476,-0.6361 0.06257,-1.11579c0.02781,-0.47968 0.04866,-0.89333 0.06257,-1.24092h-6.11077c-0.13904,0.18075 -0.3615,0.43797 -0.66739,0.77167h4.75514v2.71126h-4.88027v-2.58613c-0.31979,0.31979 -0.66044,0.61872 -1.02194,0.8968l-0.54225,-1.02194c0.95937,-0.77862 1.73799,-1.66152 2.33586,-2.6487zM241.10381,179.99253l-0.7091,-1.00108c0.59787,-0.65348 1.10189,-1.31392 1.51205,-1.98131c0.41017,-0.66739 0.796,-1.39039 1.1575,-2.16901l1.25135,0.31284c-0.19466,0.45883 -0.41712,0.92461 -0.66739,1.39734h5.27653v1.12622h-1.25135c-0.45883,1.39039 -1.09841,2.49575 -1.91874,3.31608c0.80643,0.44493 1.91874,0.86899 3.33694,1.27221l-0.60482,1.27221c-1.54333,-0.48664 -2.80859,-1.04279 -3.79577,-1.66847c-0.88985,0.58396 -2.02302,1.11231 -3.39951,1.58505l-0.64653,-1.2305c1.25135,-0.3615 2.24548,-0.75081 2.98239,-1.16793c-0.65348,-0.59787 -1.18878,-1.30002 -1.6059,-2.10644c-0.38931,0.47273 -0.6952,0.82033 -0.91766,1.04279zM238.95566,183.62145l1.4182,-0.43797l0.27113,0.47968c0.06952,0.12514 0.14947,0.26765 0.23984,0.42755c0.09038,0.15989 0.17727,0.33022 0.2607,0.51097h7.90437v1.06365h-18.58258v-1.06365h9.03059zM234.15881,193.17344v0.85509h-1.39734v-3.98347h14.01514v3.96261h-1.37649v-0.83423zM232.97002,187.41722v-0.93851h13.57717v0.93851zM246.54719,188.25146v0.93851h-13.57717v-0.93851zM234.15881,192.21407h11.24131v-1.20964h-11.24131zM246.33863,177.67753h-3.37865l-0.14599,0.22941c0.44493,0.97327 1.06365,1.77275 1.85617,2.39842c0.38931,-0.33369 0.71258,-0.71258 0.9698,-1.13664c0.25722,-0.42407 0.49011,-0.92113 0.69867,-1.49119zM235.82727,182.03641v-1.14707h-2.66955v1.14707z" fill="#ffffff" fill-rule="evenodd" stroke="#ffffff" stroke-width="0.45" stroke-linecap="round"/><path d="M269.82234,192.44349l-0.81338,1.37649c-1.66847,-0.95937 -3.0241,-1.97436 -4.06689,-3.04496c-1.0567,1.02889 -2.315,2.00216 -3.77491,2.91982l-0.87595,-1.25135v1.6059h-1.50162v-18.04033h9.73969c0,0.40321 -0.0139,0.95242 -0.04171,1.64761c-0.02781,0.6952 -0.04866,1.26526 -0.06257,1.71018c-0.04171,0.55616 -0.14252,0.97675 -0.30241,1.26178c-0.15989,0.28503 -0.41712,0.48316 -0.77167,0.59439c-0.35455,0.11123 -0.87247,0.16685 -1.55376,0.16685h-3.25352l-0.25027,-1.4182h2.89897c0.65348,0 1.09493,-0.06604 1.32435,-0.19813c0.22941,-0.13209 0.36498,-0.39974 0.40669,-0.80295c0.05562,-0.723 0.08342,-1.21659 0.08342,-1.48077h-6.71559v5.35996h8.48834v1.45991c-0.51444,1.94655 -1.45296,3.7332 -2.81554,5.35996c0.51444,0.50054 1.07755,0.96632 1.68933,1.39734c0.61177,0.43102 1.33478,0.88985 2.16901,1.37649zM254.22215,175.02884h1.45991v3.85834h2.29415v1.48077h-2.29415v3.71234l2.1273,-0.72996l0.06257,0.79252l0.06257,0.7091l-2.25243,0.75081v5.77708c0,0.61177 -0.06952,1.07755 -0.20856,1.39734c-0.13904,0.31979 -0.37888,0.54573 -0.71953,0.67782c-0.34065,0.13209 -0.83771,0.19813 -1.49119,0.19813h-1.31392l-0.29198,-1.50162h1.14707c0.57006,0 0.94894,-0.07995 1.13664,-0.23984c0.1877,-0.15989 0.28155,-0.48316 0.28155,-0.9698v-4.85942l-1.83532,0.58396c-0.31979,0.11123 -0.57701,0.19466 -0.77167,0.25027l-0.29198,-1.45991c0.6952,-0.19466 1.66152,-0.49359 2.89897,-0.8968v-4.19203h-2.41928v-1.48077h2.41928zM260.29121,184.33055v7.9878c1.44601,-0.84814 2.66955,-1.73799 3.67063,-2.66955c-1.08451,-1.4182 -1.94655,-3.19095 -2.58613,-5.31825zM267.23621,184.33055h-4.37973c0.54225,1.65457 1.25135,3.06581 2.1273,4.23374c1.04279,-1.20964 1.7936,-2.62089 2.25243,-4.23374z" fill="#ffffff" fill-rule="evenodd" stroke="#ffffff" stroke-width="0.45" stroke-linecap="round"/></g></g></svg>