<svg version="1.1" xmlns="http://www.w3.org/2000/svg" xmlns:xlink="http://www.w3.org/1999/xlink" width="133.54655" height="19.00399" viewBox="0,0,133.54655,19.00399"><g transform="translate(-240.7436,-170.64972)"><g fill="#ffffff" stroke="none" stroke-miterlimit="10"><path d="M240.82049,175.65821h5.76709v2.03975h-5.76709v-2.03975M242.80053,171.05363h1.94159v13.65217h-1.94159v-13.65217M240.7436,184.90775c0.7305,-0.24235 1.60581,-0.55201 2.62595,-0.92899c1.01757,-0.37698 2.04539,-0.7607 3.08347,-1.15114l0.38447,1.91857c-0.92273,0.41737 -1.85828,0.82398 -2.80665,1.21981c-0.94837,0.39852 -1.82624,0.76608 -2.63364,1.10268l-0.6536,-2.16092M248.60606,170.79109h1.92236v11.14792h-1.92236v-11.14792M254.60383,170.79109h1.94159v11.18831h-1.94159v-11.18831M246.87593,172.66927h11.66874v1.7974h-11.66874v-1.7974M249.37501,175.59762h6.2669v1.63584h-6.2669v-1.63584M249.37501,178.36441h6.20923v1.65603h-6.20923v-1.65603M246.22233,181.19178h12.59148v1.7974h-12.59148v-1.7974M251.77796,182.84781l1.53789,0.9088c-0.33321,0.56547 -0.68821,1.13364 -1.06499,1.7045c-0.37935,0.57355 -0.73562,1.06228 -1.06883,1.46619l-1.36488,-0.86841c0.21787,-0.28274 0.44599,-0.6099 0.68436,-0.9815c0.23581,-0.36891 0.46906,-0.75262 0.69974,-1.15114c0.23068,-0.39583 0.42292,-0.75531 0.57671,-1.07844M253.89256,183.65563l1.3841,-0.84821c0.25631,0.30966 0.51904,0.65299 0.78817,1.02997c0.26913,0.37698 0.51648,0.74723 0.74203,1.11075c0.22299,0.36352 0.39857,0.69338 0.52673,0.98958l-1.461,0.98958c-0.11534,-0.2962 -0.2781,-0.63279 -0.48828,-1.00978c-0.21274,-0.37698 -0.44727,-0.76474 -0.70358,-1.16326c-0.25631,-0.39583 -0.51904,-0.76204 -0.78817,-1.09864M247.39497,181.95921h1.90314v5.00849h9.03511v1.83779h-10.93824zM264.56167,174.36569l1.7878,0.32313c-0.51263,0.96938 -1.18161,1.87818 -2.00695,2.72639c-0.8279,0.84821 -1.86982,1.60891 -3.12576,2.28209c-0.10253,-0.21542 -0.26529,-0.45777 -0.48828,-0.72704c-0.22556,-0.26927 -0.43445,-0.47123 -0.62669,-0.60587c1.1406,-0.53855 2.08,-1.16461 2.81818,-1.87818c0.73562,-0.71357 1.28286,-1.42042 1.6417,-2.12053M264.8308,175.57743h3.07578v1.3329h-4.1523l1.07652,-1.3329M267.44522,175.53703h0.34603l0.28835,-0.08078l1.15342,0.56547c-0.46137,1.34637 -1.10856,2.52444 -1.94159,3.53421c-0.83302,1.00978 -1.78139,1.87145 -2.8451,2.58503c-1.06371,0.71357 -2.18509,1.28578 -3.36414,1.71662c-0.08971,-0.22888 -0.23325,-0.49546 -0.43061,-0.79974c-0.19993,-0.30159 -0.3896,-0.53989 -0.56902,-0.71492c1.06371,-0.33659 2.08897,-0.81186 3.07578,-1.4258c0.98681,-0.61125 1.85828,-1.34771 2.61441,-2.20939c0.75613,-0.86168 1.31361,-1.81087 1.67246,-2.84757v-0.32313M270.48255,175.53703h4.94047v1.63584h-4.94047v-1.63584M265.92655,180.04063h6.51681v1.7974h-6.51681v-1.7974M262.60086,182.92859h13.07207v1.83779h-13.07207v-1.83779M270.25187,174.36569c0.61516,1.79067 1.58274,3.2986 2.90277,4.5238c1.32002,1.2252 2.99889,2.07341 5.03659,2.54463c-0.20505,0.20196 -0.42292,0.47796 -0.6536,0.82802c-0.23068,0.35005 -0.4101,0.65972 -0.53826,0.92899c-1.43536,-0.41737 -2.68746,-1.00978 -3.7563,-1.77721c-1.0714,-0.76743 -1.98132,-1.70989 -2.72976,-2.82737c-0.751,-1.11748 -1.37,-2.3898 -1.857,-3.81695l1.59556,-0.40391M268.31028,183.71622h1.99926v3.81695c0,0.49816 -0.05767,0.87783 -0.17301,1.13903c-0.11534,0.26389 -0.35243,0.46988 -0.71127,0.61798c-0.34603,0.13464 -0.7651,0.21138 -1.25723,0.23023c-0.49469,0.02154 -1.07524,0.03231 -1.74166,0.03231c-0.03845,-0.28274 -0.11534,-0.58971 -0.23068,-0.92092c-0.11534,-0.32851 -0.23068,-0.62067 -0.34603,-0.87649c0.29476,0.01346 0.58696,0.02289 0.8766,0.02827c0.28707,0.00808 0.54339,0.00808 0.76895,0c0.22299,-0.00539 0.37935,-0.00808 0.46906,-0.00808c0.12816,0 0.21787,-0.02423 0.26913,-0.0727c0.05126,-0.04578 0.07689,-0.12252 0.07689,-0.23023v-3.75637M264.9077,184.90775l1.86469,0.70684c-0.38447,0.49816 -0.84584,0.97612 -1.3841,1.43388c-0.53826,0.45777 -1.10856,0.87783 -1.7109,1.2602c-0.60234,0.38506 -1.19186,0.71896 -1.76857,1.0017c-0.10253,-0.13464 -0.23966,-0.30293 -0.41139,-0.50489c-0.17429,-0.20196 -0.34731,-0.40122 -0.51904,-0.59779c-0.17429,-0.19388 -0.33193,-0.3514 -0.4729,-0.47258c0.83302,-0.32313 1.65323,-0.73377 2.46062,-1.23193c0.80739,-0.49816 1.45459,-1.02997 1.94159,-1.59545M271.48218,186.20027l1.36488,-1.29251c0.51263,0.25581 1.06755,0.5547 1.66477,0.89668c0.59465,0.34467 1.16111,0.68799 1.69937,1.02997c0.53826,0.34467 0.98681,0.67184 1.34565,0.9815l-1.461,1.45408c-0.33321,-0.28274 -0.76254,-0.6099 -1.28798,-0.9815c-0.52545,-0.36891 -1.07909,-0.73512 -1.66092,-1.09864c-0.5844,-0.36352 -1.13932,-0.69338 -1.66477,-0.98958M263.92729,178.36441l1.03808,-0.86841c0.33321,0.21542 0.67283,0.46046 1.01885,0.73512c0.34603,0.27735 0.62156,0.5372 0.82662,0.77955l-1.09575,0.96938c-0.19224,-0.22888 -0.45752,-0.49816 -0.79586,-0.80782c-0.3409,-0.30966 -0.67154,-0.57894 -0.99194,-0.80782M261.98571,179.77809l1.24954,-0.74723c0.29476,0.22888 0.60618,0.50085 0.93427,0.8159c0.32552,0.31774 0.57799,0.59779 0.75741,0.84013l-1.30721,0.86841c-0.16661,-0.26927 -0.4037,-0.56951 -0.71127,-0.90072c-0.30758,-0.32851 -0.61516,-0.62067 -0.92273,-0.87649M274.80787,175.53703h0.4037l0.34603,-0.12117l1.17264,0.78763c-0.38447,0.82128 -0.86763,1.63853 -1.44946,2.45174c-0.5844,0.8159 -1.18418,1.49312 -1.79933,2.03167c-0.12816,-0.20196 -0.30373,-0.42141 -0.52673,-0.65837c-0.22556,-0.23427 -0.42164,-0.42545 -0.58824,-0.57355c0.33321,-0.30966 0.65745,-0.66645 0.97272,-1.07036c0.31271,-0.40391 0.60106,-0.82802 0.86506,-1.27232c0.26144,-0.4443 0.46265,-0.85494 0.60362,-1.23193v-0.34332M260.6785,172.30575h16.78223v3.37265h-2.05693v-1.59545h-12.76449v1.59545h-1.96081v-3.37265M267.57978,171.13441l2.0377,-0.48469c0.19224,0.33659 0.38191,0.71357 0.56902,1.13095c0.18455,0.41737 0.31527,0.78089 0.39216,1.09056l-2.13382,0.52508c-0.07689,-0.2962 -0.19224,-0.65972 -0.34603,-1.09056c-0.15379,-0.43084 -0.3268,-0.82128 -0.51904,-1.17134zM290.43668,185.75596h5.01737v2.08014h-5.01737v-2.08014M279.67145,174.46667h7.13197v2.12053h-7.13197v-2.12053M289.51394,173.15396h6.86284v15.95446h-2.05693v-13.85412h-2.82587v14.01569h-1.98003v-16.11602M286.28437,174.46667h1.99926c0,0 0,0.06732 0,0.20196c0,0.13464 0,0.28274 0,0.4443c0,0.16156 0,0.28947 0,0.38371c-0.03845,2.18112 -0.07946,4.03237 -0.12303,5.55377c-0.04614,1.52139 -0.10125,2.76679 -0.16532,3.73617c-0.06408,0.96938 -0.14354,1.72604 -0.23837,2.26998c-0.0974,0.54663 -0.22299,0.93438 -0.37678,1.16326c-0.20505,0.30966 -0.41908,0.53181 -0.64207,0.66645c-0.22556,0.13464 -0.49212,0.23562 -0.7997,0.30293c-0.26913,0.05386 -0.61131,0.08347 -1.02654,0.08886c-0.41779,0.00808 -0.84456,-0.00135 -1.28029,-0.02827c-0.01282,-0.32313 -0.07049,-0.69069 -0.17301,-1.10268c-0.10253,-0.4093 -0.2435,-0.76878 -0.42292,-1.07844c0.39729,0.04039 0.76895,0.06328 1.11497,0.06866c0.34603,0.00808 0.60234,0.01212 0.76895,0.01212c0.14097,0.01346 0.26272,-0.00673 0.36525,-0.06059c0.10253,-0.05386 0.19864,-0.1481 0.28835,-0.28274c0.10253,-0.16156 0.19224,-0.482 0.26913,-0.96131c0.07689,-0.47661 0.14482,-1.17269 0.20377,-2.08822c0.05639,-0.91553 0.10125,-2.0936 0.13457,-3.53421c0.03076,-1.44061 0.06536,-3.19762 0.10381,-5.27103v-0.48469M282.0744,171.07383h2.0377c-0.01282,1.95223 -0.04485,3.83042 -0.09612,5.63455c-0.05126,1.80413 -0.17942,3.50325 -0.38447,5.09735c-0.20505,1.59679 -0.54467,3.05491 -1.01885,4.37435c-0.47418,1.31944 -1.12779,2.47732 -1.96081,3.47363c-0.10253,-0.17503 -0.2435,-0.36083 -0.42292,-0.5574c-0.17942,-0.19388 -0.36525,-0.38506 -0.55749,-0.57355c-0.19224,-0.18849 -0.37807,-0.33659 -0.55749,-0.4443c0.61516,-0.70011 1.11113,-1.50524 1.48791,-2.41538c0.37935,-0.90745 0.67154,-1.90376 0.8766,-2.98894c0.20505,-1.08248 0.34987,-2.24036 0.43445,-3.47363c0.08202,-1.23058 0.12944,-2.52983 0.14225,-3.89773c0.01282,-1.36522 0.01922,-2.77486 0.01922,-4.22894zM300.49064,172.02301l1.88392,-0.78763c0.29476,0.45777 0.58568,0.95188 0.87275,1.48235c0.28964,0.53316 0.5498,1.05151 0.78048,1.55505c0.23068,0.50623 0.4037,0.96804 0.51904,1.38541l-2.0377,0.86841c-0.10253,-0.40391 -0.26016,-0.86572 -0.4729,-1.38541c-0.21018,-0.51701 -0.44983,-1.04882 -0.71896,-1.59545c-0.26913,-0.54393 -0.54467,-1.05151 -0.82662,-1.52274M312.48618,171.15461l2.22994,0.74723c-0.25631,0.52508 -0.52545,1.06632 -0.80739,1.62372c-0.28195,0.56009 -0.56389,1.08517 -0.84584,1.57525c-0.28195,0.49277 -0.54467,0.93438 -0.78817,1.32483l-1.86469,-0.70684c0.2435,-0.40391 0.49341,-0.87245 0.74972,-1.40561c0.25631,-0.53047 0.50238,-1.07171 0.73819,-1.62372c0.23837,-0.55201 0.43445,-1.06363 0.58824,-1.53486M300.04849,177.17287h15.14822v2.14072h-15.14822v-2.14072M298.85663,181.9794h17.37816v2.18112h-17.37816v-2.18112M306.37307,170.77089h2.19149v18.84241h-2.19149zM333.09391,179.53575h2.0377c0,0 -0.00384,0.05386 -0.01153,0.16156c-0.00513,0.10771 -0.00769,0.22888 -0.00769,0.36352c0,0.13464 -0.00641,0.25581 -0.01922,0.36352c-0.08971,1.80413 -0.18583,3.26763 -0.28835,4.3905c-0.10253,1.12556 -0.22428,1.99128 -0.36525,2.59714c-0.14097,0.60587 -0.31399,1.0367 -0.51904,1.29251c-0.21787,0.26927 -0.4524,0.45777 -0.70358,0.56547c-0.24862,0.10771 -0.53954,0.18176 -0.87275,0.22215c-0.28195,0.04039 -0.64976,0.06059 -1.10344,0.06059c-0.45624,0 -0.93427,-0.00673 -1.43408,-0.0202c-0.02563,-0.2962 -0.09227,-0.63279 -0.19993,-1.00978c-0.11021,-0.37698 -0.24222,-0.69338 -0.39601,-0.94919c0.47418,0.04039 0.91633,0.06328 1.32643,0.06866c0.4101,0.00808 0.71127,0.01212 0.90351,0.01212c0.16661,0 0.30373,-0.01346 0.41139,-0.04039c0.11021,-0.02693 0.21659,-0.09425 0.31911,-0.20196c0.14097,-0.16156 0.26913,-0.51162 0.38447,-1.05017c0.11534,-0.53855 0.21402,-1.3329 0.29604,-2.38307c0.08458,-1.05017 0.16532,-2.41673 0.24222,-4.09969v-0.34332M323.59744,182.08038h1.90314v4.78634h-1.90314v-4.78634M328.40334,182.86801h1.88392v5.63455h-1.88392v-5.63455M318.96454,182.9084h1.88392v3.23128h8.34305v1.7974h-10.22697v-5.02868M330.94086,172.50771h1.92236c0,0 0,0.09425 0,0.28274c0,0.18849 -0.00641,0.34332 -0.01922,0.4645c-0.06408,1.00978 -0.132,1.85126 -0.20377,2.52444c-0.06921,0.67318 -0.15123,1.205 -0.24606,1.59545c-0.0974,0.39045 -0.2294,0.67318 -0.39601,0.84821c-0.15379,0.20196 -0.32424,0.34602 -0.51135,0.43218c-0.18455,0.08886 -0.39857,0.14675 -0.64207,0.17368c-0.20505,0.04039 -0.47162,0.06328 -0.7997,0.06866c-0.32552,0.00808 -0.67411,0.00539 -1.04577,-0.00808c-0.02563,-0.2962 -0.0833,-0.62337 -0.17301,-0.9815c-0.08971,-0.35544 -0.20505,-0.66107 -0.34603,-0.91688c0.29476,0.02693 0.56389,0.04712 0.80739,0.06059c0.2435,0.01346 0.42933,0.0202 0.55749,0.0202c0.11534,0 0.21787,-0.01346 0.30758,-0.04039c0.08971,-0.02693 0.16661,-0.08078 0.23068,-0.16156c0.12816,-0.1481 0.23709,-0.52508 0.3268,-1.13095c0.08971,-0.60587 0.16661,-1.59545 0.23068,-2.96874v-0.26254M325.28912,170.7305l2.46062,0.22215c-0.20505,0.49816 -0.43574,0.97881 -0.69205,1.44196c-0.25631,0.46584 -0.487,0.86706 -0.69205,1.20365l-1.82624,-0.34332c0.14097,-0.37698 0.28451,-0.80109 0.43061,-1.27232c0.14866,-0.47123 0.25503,-0.8886 0.31911,-1.25212M323.17452,176.34486l1.01885,-1.37329c0.44855,0.16156 0.92914,0.35679 1.44177,0.58567c0.51263,0.22888 1.00347,0.4645 1.47253,0.70684c0.46649,0.24235 0.85353,0.47123 1.16111,0.68665l-1.07652,1.51466c-0.28195,-0.21542 -0.6536,-0.45103 -1.11497,-0.70684c-0.46137,-0.25581 -0.9458,-0.50893 -1.45331,-0.75935c-0.50494,-0.24773 -0.98809,-0.46584 -1.44946,-0.65433M331.5368,172.50771v1.93877h-9.15045v5.08927h11.32272v1.89838h-13.3412v-8.92642zM347.33862,175.29469h7.68945v1.99936h-7.68945v-1.99936M351.56782,171.1748h1.98003v15.89387c0,0.55201 -0.06023,0.99227 -0.1807,1.32079c-0.12303,0.33121 -0.33834,0.59106 -0.64591,0.77955c-0.30758,0.17503 -0.69846,0.29216 -1.17264,0.3514c-0.47418,0.06193 -1.06371,0.08617 -1.76857,0.0727c-0.03845,-0.28274 -0.12175,-0.63683 -0.24991,-1.06228c-0.12816,-0.42276 -0.25631,-0.78224 -0.38447,-1.07844c0.44855,0.01346 0.86763,0.02289 1.25723,0.02827c0.39216,0.00808 0.65232,0.00539 0.78048,-0.00808c0.14097,-0.01346 0.23966,-0.04712 0.29604,-0.10098c0.05895,-0.05386 0.08843,-0.15483 0.08843,-0.30293v-15.89387M347.43474,179.59633l1.59556,-0.72704c0.23068,0.47123 0.46137,0.97208 0.69205,1.50255c0.23068,0.53316 0.44855,1.05555 0.6536,1.56717c0.20505,0.51162 0.36525,0.96938 0.48059,1.37329l-1.67246,0.84821c-0.11534,-0.41737 -0.26913,-0.8886 -0.46137,-1.41369c-0.19224,-0.52508 -0.40113,-1.06363 -0.62669,-1.61564c-0.22299,-0.55201 -0.44343,-1.06363 -0.66129,-1.53486M346.2621,170.83148l1.86469,0.52508c-0.32039,1.09056 -0.70487,2.16765 -1.15342,3.23128c-0.44855,1.06363 -0.94196,2.06667 -1.48022,3.00913c-0.53826,0.94246 -1.10215,1.77047 -1.69168,2.48405c-0.06408,-0.1481 -0.17045,-0.34063 -0.31911,-0.57759c-0.1461,-0.23427 -0.29989,-0.47258 -0.46137,-0.71492c-0.15892,-0.24235 -0.30245,-0.43084 -0.43061,-0.56547c0.76895,-0.90207 1.47766,-2.00609 2.12613,-3.31206c0.64591,-1.30598 1.16111,-2.66581 1.54558,-4.07949M337.82292,171.6595h4.44066v1.93877h-2.63364v16.05543h-1.80702v-17.9942M341.6292,171.6595h0.3268l0.30758,-0.08078l1.32643,0.78763c-0.23068,0.8886 -0.49084,1.83106 -0.78048,2.82737c-0.28707,0.99631 -0.56517,1.89838 -0.83431,2.7062c0.56389,0.83475 0.93299,1.62237 1.10728,2.36288c0.17173,0.7405 0.2576,1.42042 0.2576,2.03975c0,0.64626 -0.06408,1.1875 -0.19224,1.62372c-0.12816,0.43892 -0.33321,0.77282 -0.61516,1.0017c-0.26913,0.22888 -0.60875,0.37025 -1.01885,0.42411c-0.34603,0.05386 -0.74331,0.06732 -1.19186,0.04039c0,-0.26927 -0.03588,-0.58298 -0.10765,-0.94111c-0.06921,-0.35544 -0.17429,-0.6678 -0.31527,-0.93707c0.16661,0.01346 0.31399,0.02289 0.44214,0.02827c0.12816,0.00808 0.24991,0.00539 0.36525,-0.00808c0.20505,0 0.37807,-0.05386 0.51904,-0.16156c0.10253,-0.09425 0.17942,-0.26254 0.23068,-0.50489c0.05126,-0.24235 0.07689,-0.51835 0.07689,-0.82802c0,-0.49816 -0.0833,-1.08787 -0.24991,-1.76913c-0.16661,-0.67857 -0.51263,-1.39484 -1.03808,-2.1488c0.12816,-0.45777 0.25888,-0.95592 0.39216,-1.49447c0.13585,-0.53855 0.264,-1.07709 0.38447,-1.61564c0.12303,-0.53855 0.23837,-1.04747 0.34603,-1.52678c0.11021,-0.47661 0.19736,-0.88322 0.26144,-1.21981v-0.60587M344.78188,175.83997l1.59556,-1.67623l0.23068,0.10098v15.3082h-1.82624zM364.50532,176.52661h9.47725v2.01955h-9.47725v-2.01955M368.61918,177.45561h2.0377v8.70427h-2.0377v-8.70427M360.83361,178.04128v8.07821h-2.01848v-5.93748h-2.30684v-2.14072h4.32532M363.37113,171.98262h2.09538v4.46321c0,0.72704 -0.02563,1.51736 -0.07689,2.37095c-0.05126,0.85629 -0.14994,1.72874 -0.29604,2.61734c-0.14866,0.8886 -0.3614,1.75028 -0.63822,2.58503c-0.27426,0.83475 -0.62925,1.58871 -1.06499,2.2619c-0.11534,-0.12117 -0.28451,-0.26927 -0.5075,-0.4443c-0.22556,-0.17503 -0.45368,-0.34063 -0.68436,-0.49681c-0.23068,-0.15349 -0.42292,-0.27062 -0.57671,-0.3514c0.53826,-0.83475 0.92914,-1.75432 1.17264,-2.75871c0.2435,-1.0017 0.40113,-2.00743 0.4729,-3.01721c0.06921,-1.00978 0.10381,-1.93204 0.10381,-2.76679v-4.46321M372.02176,170.83148l1.69168,1.61564c-0.88429,0.2962 -1.87751,0.53855 -2.97966,0.72704c-1.10215,0.18849 -2.24019,0.33255 -3.41412,0.43218c-1.17136,0.10232 -2.30171,0.16695 -3.39105,0.19388c-0.03845,-0.25581 -0.11278,-0.56278 -0.22299,-0.92092c-0.10765,-0.35544 -0.21915,-0.65433 -0.33449,-0.89668c0.78176,-0.04039 1.57378,-0.09155 2.37604,-0.15349c0.7997,-0.05924 1.58659,-0.13598 2.36066,-0.23023c0.77663,-0.09425 1.49816,-0.20599 2.16458,-0.33525c0.66642,-0.12656 1.24954,-0.27062 1.74935,-0.43218M359.77631,185.02893c0.23068,0 0.44471,0.05655 0.64207,0.16964c0.19993,0.11579 0.4242,0.26389 0.67283,0.4443c0.25119,0.18311 0.56261,0.38237 0.93427,0.59779c0.64079,0.39045 1.39307,0.63953 2.25685,0.74723c0.86635,0.10771 1.83778,0.16156 2.9143,0.16156c0.52545,0 1.09959,-0.00673 1.72244,-0.0202c0.62028,-0.01346 1.25082,-0.04039 1.89161,-0.08078c0.64079,-0.04039 1.25979,-0.09155 1.857,-0.15349c0.59465,-0.05924 1.13548,-0.12252 1.62247,-0.18984c-0.07689,0.18849 -0.1602,0.42411 -0.24991,0.70684c-0.08971,0.28274 -0.16661,0.56144 -0.23068,0.83609c-0.06408,0.27735 -0.10253,0.51701 -0.11534,0.71896c-0.34603,0.02693 -0.78817,0.05386 -1.32643,0.08078c-0.53826,0.02693 -1.12138,0.04982 -1.74935,0.06866c-0.62797,0.02154 -1.24697,0.03904 -1.857,0.05251c-0.60747,0.01346 -1.1547,0.0202 -1.6417,0.0202c-1.20468,0 -2.23891,-0.07405 -3.10269,-0.22215c-0.86635,-0.1481 -1.64554,-0.42411 -2.33759,-0.82802c-0.43574,-0.25581 -0.8138,-0.51566 -1.13419,-0.77955c-0.32039,-0.26119 -0.58953,-0.39179 -0.80739,-0.39179c-0.20505,0 -0.42933,0.12387 -0.67283,0.3716c-0.2435,0.25042 -0.49981,0.57086 -0.76895,0.96131c-0.26913,0.39045 -0.53185,0.79436 -0.78817,1.21173l-1.3841,-2.05994c0.6536,-0.72704 1.30464,-1.31271 1.95312,-1.75701c0.64591,-0.4443 1.21237,-0.66645 1.69937,-0.66645M356.85432,172.22497l1.59556,-1.07036c0.34603,0.35005 0.70487,0.73377 1.07652,1.15114c0.37166,0.41737 0.72409,0.83071 1.0573,1.24c0.33321,0.41199 0.60234,0.78628 0.80739,1.12287l-1.69168,1.23193c-0.17942,-0.33659 -0.42933,-0.72031 -0.74972,-1.15114c-0.32039,-0.43084 -0.66386,-0.86572 -1.03039,-1.30463c-0.36397,-0.43622 -0.71896,-0.84283 -1.06499,-1.21981z"/></g></g></svg>