<svg version="1.1" xmlns="http://www.w3.org/2000/svg" xmlns:xlink="http://www.w3.org/1999/xlink" width="132.51506" height="19.07159" viewBox="0,0,132.51506,19.07159"><g transform="translate(-241.2436,-170.27462)"><g fill="#ffffff" stroke="none" stroke-miterlimit="10"><path d="M243.17575,177.3682h5.96863v2.10781h-5.96863v-2.10781M255.95474,171.81494h2.06606v11.99828c0,0.54046 -0.05739,0.98905 -0.17217,1.34575c-0.11478,0.35941 -0.35072,0.63369 -0.70782,0.82285c-0.34434,0.18916 -0.76138,0.31077 -1.25112,0.36481c-0.49228,0.05405 -1.07639,0.08107 -1.75233,0.08107c-0.02551,-0.21619 -0.07907,-0.46615 -0.16069,-0.74989c-0.08417,-0.28374 -0.17982,-0.56478 -0.28695,-0.84312c-0.10968,-0.27564 -0.21553,-0.51479 -0.31756,-0.71746c0.47188,0.01351 0.92208,0.02297 1.35059,0.02837c0.42597,0.00811 0.71547,0.01216 0.86851,0.01216c0.14029,-0.01351 0.23594,-0.04729 0.28695,-0.10134c0.05101,-0.05405 0.07652,-0.15538 0.07652,-0.30401v-11.93748M250.34959,171.81494h6.73384v2.14834h-4.66777v15.34239h-2.06606v-17.49073M247.78614,170.86238l1.56868,1.76326c-0.63767,0.27023 -1.32636,0.5229 -2.06606,0.758c-0.7397,0.2378 -1.48833,0.45399 -2.24589,0.64856c-0.76011,0.19727 -1.49726,0.37022 -2.21145,0.51884c-0.05101,-0.24321 -0.14029,-0.53776 -0.26782,-0.88366c-0.12754,-0.34319 -0.24869,-0.62964 -0.36347,-0.85934c0.66318,-0.16214 1.33912,-0.3486 2.0278,-0.55938c0.68869,-0.20808 1.33912,-0.43102 1.95128,-0.66882c0.61217,-0.2351 1.14781,-0.47426 1.60694,-0.71746M242.20011,172.80805h2.08519v12.4847l-2.19998,1.76326c-0.03826,-0.17565 -0.10203,-0.4094 -0.1913,-0.70125c-0.08928,-0.28915 -0.1913,-0.57965 -0.30608,-0.8715c-0.11478,-0.28915 -0.22956,-0.5283 -0.34434,-0.71746c0.21681,-0.09458 0.42979,-0.25672 0.63895,-0.48642c0.21171,-0.2297 0.31756,-0.54046 0.31756,-0.9323v-10.53903M242.08533,187.056l-0.15304,-1.94567l1.0139,-0.74989l6.15993,-1.39845c-0.01275,0.32428 -0.00638,0.68234 0.01913,1.07417c0.02551,0.39184 0.05739,0.71611 0.09565,0.97283c-1.13506,0.27023 -2.09157,0.50668 -2.86953,0.70936c-0.77796,0.20267 -1.41946,0.37427 -1.9245,0.51479c-0.50249,0.14322 -0.90295,0.26212 -1.20138,0.35671c-0.30098,0.09458 -0.5382,0.17835 -0.71164,0.25132c-0.1709,0.07566 -0.31374,0.14728 -0.42852,0.21483zM264.16161,176.21296h13.37203v1.72273h-13.37203v-1.72273M264.33378,182.11077h10.6364v1.72273h-10.6364v-1.72273M266.8781,174.75371h1.95128v4.76283h3.82604v-4.76283h2.00867v6.42475h-7.786v-6.42475M274.43454,182.11077h0.40173l0.36347,-0.08107l1.28172,0.70936c-0.52289,1.0539 -1.2052,1.95513 -2.04693,2.70367c-0.84173,0.75124 -1.79824,1.37683 -2.86953,1.87676c-1.07129,0.49993 -2.22548,0.89852 -3.46257,1.19577c-1.23709,0.29726 -2.52519,0.52695 -3.86431,0.68909c-0.07652,-0.25672 -0.19385,-0.56478 -0.352,-0.92419c-0.16069,-0.35671 -0.32394,-0.65666 -0.48973,-0.89987c1.22433,-0.09458 2.41041,-0.26077 3.55822,-0.49858c1.14781,-0.2351 2.21018,-0.54857 3.1871,-0.94041c0.97437,-0.39184 1.8314,-0.88231 2.5711,-1.47141c0.7397,-0.5864 1.31361,-1.2782 1.72172,-2.07538v-0.28374M267.52853,183.42814c0.62492,0.78367 1.45772,1.4525 2.49841,2.00647c1.03813,0.55397 2.23951,0.9958 3.60413,1.32549c1.36462,0.33238 2.83127,0.55938 4.39995,0.68098c-0.14029,0.14863 -0.28695,0.33779 -0.44,0.56749c-0.15304,0.2297 -0.29588,0.45939 -0.42852,0.68909c-0.13519,0.2297 -0.24104,0.43913 -0.31756,0.62829c-1.63245,-0.17565 -3.14628,-0.47696 -4.54152,-0.90392c-1.39778,-0.42426 -2.64507,-0.99175 -3.74187,-1.70246c-1.0968,-0.70801 -2.0278,-1.56869 -2.79301,-2.58206l1.75998,-0.70936M262.66945,172.24056h15.05549v2.02674h-15.05549v-2.02674M261.71294,172.24056h2.0278v5.43165c0,0.83772 -0.02168,1.75921 -0.06504,2.76447c-0.04591,1.00796 -0.13264,2.0389 -0.26017,3.0928c-0.12754,1.0539 -0.31246,2.07403 -0.55478,3.06037c-0.24232,0.98635 -0.56115,1.89162 -0.95651,2.71583c-0.14029,-0.10809 -0.32521,-0.22294 -0.55478,-0.34455c-0.22956,-0.1216 -0.46168,-0.24051 -0.69634,-0.35671c-0.23721,-0.1135 -0.4451,-0.19051 -0.62365,-0.23105c0.3826,-0.78367 0.68869,-1.6322 0.91825,-2.54558c0.22956,-0.91068 0.39918,-1.84568 0.50886,-2.805c0.10713,-0.95932 0.17727,-1.89567 0.21043,-2.80906c0.03061,-0.91068 0.04591,-1.7511 0.04591,-2.52126v-5.45192M268.40852,170.78131l2.06606,-0.50668c0.21681,0.43237 0.41831,0.90528 0.60452,1.41872c0.18365,0.51344 0.31374,0.95257 0.39026,1.31738l-2.19998,0.56749c-0.05101,-0.37832 -0.15942,-0.83096 -0.32521,-1.35791c-0.1658,-0.52695 -0.34434,-1.00661 -0.53565,-1.43898zM281.58924,171.32853h2.08519v5.7762c0,0.89176 -0.02551,1.8673 -0.07652,2.92661c-0.05101,1.06201 -0.15559,2.14294 -0.31374,3.24278c-0.16069,1.10254 -0.39026,2.17401 -0.68869,3.2144c-0.30098,1.04039 -0.70017,1.9862 -1.19755,2.83743c-0.12754,-0.1216 -0.30226,-0.25402 -0.52417,-0.39724c-0.22446,-0.14052 -0.45402,-0.27564 -0.68869,-0.40535c-0.23721,-0.12701 -0.4451,-0.22429 -0.62365,-0.29185c0.47188,-0.81069 0.84556,-1.68624 1.12103,-2.62665c0.27293,-0.9377 0.47315,-1.90378 0.60069,-2.89823c0.12754,-0.99175 0.21043,-1.96729 0.24869,-2.92661c0.03826,-0.95932 0.05739,-1.85109 0.05739,-2.67529v-5.7762M282.98575,171.32853h12.22421v6.34368h-12.22421v-1.9862h10.15815v-2.37128h-10.15815v-1.9862M285.28137,178.54371h2.04693v6.99224c0,0.27023 0.03826,0.47966 0.11478,0.62829c0.07652,0.14863 0.22701,0.24591 0.45147,0.29185c0.22191,0.04864 0.55605,0.07296 1.00242,0.07296c0.12754,0 0.32521,0 0.59304,0c0.26782,0 0.57391,0 0.91825,0c0.34434,0 0.69124,0 1.04068,0c0.352,0 0.67466,0 0.96799,0c0.29333,0 0.51652,0 0.66956,0c0.3826,0 0.66956,-0.06486 0.86086,-0.19457c0.1913,-0.12701 0.32776,-0.37697 0.40939,-0.74989c0.08417,-0.37022 0.15177,-0.93365 0.20278,-1.6903c0.15304,0.1216 0.34434,0.23645 0.57391,0.34455c0.22956,0.10809 0.4655,0.20538 0.70782,0.29185c0.24232,0.08918 0.45913,0.15403 0.65043,0.19457c-0.08928,1.01337 -0.24232,1.79704 -0.45913,2.35101c-0.21681,0.55397 -0.54457,0.94176 -0.98329,1.16335c-0.44127,0.22429 -1.05726,0.33644 -1.84798,0.33644c-0.11478,0 -0.32139,0 -0.61982,0c-0.30098,0 -0.64278,0 -1.02538,0c-0.3826,0 -0.76521,0 -1.14781,0c-0.3826,0 -0.72057,0 -1.0139,0c-0.29333,0 -0.50376,0 -0.6313,0c-0.91825,0 -1.62862,-0.08782 -2.13111,-0.26348c-0.50504,-0.17565 -0.85576,-0.48372 -1.05216,-0.92419c-0.19895,-0.43778 -0.29843,-1.05525 -0.29843,-1.85244v-6.99224M293.94737,179.39494l1.2052,1.90513c-0.81622,0.33779 -1.68984,0.68504 -2.62084,1.04174c-0.931,0.35941 -1.87476,0.71071 -2.83127,1.0539c-0.95651,0.3459 -1.89389,0.66747 -2.81214,0.96473c-0.05101,-0.24321 -0.14284,-0.52695 -0.27548,-0.85123c-0.13519,-0.32428 -0.26017,-0.60127 -0.37495,-0.83096c0.89274,-0.31077 1.80462,-0.65531 2.73562,-1.03364c0.931,-0.37832 1.82375,-0.76746 2.67823,-1.1674c0.85448,-0.39724 1.61969,-0.758 2.29563,-1.08228zM300.89164,186.0629h13.00855v2.00647h-13.00855v-2.00647M299.74382,176.09136h15.3807v13.13325h-2.08519v-11.12678h-11.30596v11.16732h-1.98954v-13.17379M298.74905,171.592h17.08329v2.10781h-17.08329v-2.10781M304.29682,172.88911h1.8365v4.56016c0,0.77016 -0.08928,1.55383 -0.26782,2.35101c-0.17855,0.79718 -0.52672,1.54978 -1.04451,2.25778c-0.51524,0.71071 -1.283,1.32278 -2.30328,1.83622c-0.07652,-0.14863 -0.1913,-0.32158 -0.34434,-0.51884c-0.15304,-0.19457 -0.30991,-0.39049 -0.4706,-0.58775c-0.15814,-0.19457 -0.30098,-0.33914 -0.42852,-0.43372c0.9055,-0.43237 1.5725,-0.91879 2.00102,-1.45925c0.42597,-0.54046 0.70272,-1.10795 0.83025,-1.70246c0.12754,-0.59451 0.1913,-1.19577 0.1913,-1.8038v-4.49935M308.35242,172.86885h1.97041v7.66106c0,0.32428 0.03188,0.52695 0.09565,0.60802c0.06377,0.08107 0.24232,0.1216 0.53565,0.1216c0.05101,0 0.15559,0 0.31374,0c0.16069,0 0.33669,0 0.52799,0c0.1913,0 0.36602,0 0.52417,0c0.16069,0 0.2793,0 0.35582,0c0.17855,0 0.29716,-0.01351 0.35582,-0.04053c0.05611,-0.02702 0.1033,-0.06756 0.14156,-0.1216c0.1913,0.16214 0.4553,0.31752 0.79199,0.46615c0.33924,0.14863 0.65553,0.24996 0.94886,0.30401c-0.14029,0.54046 -0.36347,0.91203 -0.66956,1.11471c-0.30608,0.20267 -0.75883,0.30401 -1.35825,0.30401c-0.10203,0 -0.25507,0 -0.45913,0c-0.20406,0 -0.42724,0 -0.66956,0c-0.24232,0 -0.46295,0 -0.66191,0c-0.1964,0 -0.34562,0 -0.44765,0c-0.61217,0 -1.08405,-0.08107 -1.41564,-0.24321c-0.33159,-0.16214 -0.56115,-0.44318 -0.68869,-0.84312c-0.12754,-0.39724 -0.1913,-0.94716 -0.1913,-1.64976zM317.57319,186.20477h17.71459v2.08754h-17.71459v-2.08754M322.89139,172.48377h2.23824v15.15999h-2.23824v-15.15999M327.5783,172.48377h2.23824v15.28159h-2.23824v-15.28159M332.43738,176.03056l2.0278,0.68909c-0.25507,0.82421 -0.5331,1.65787 -0.83408,2.50099c-0.29843,0.84582 -0.60452,1.65382 -0.91825,2.42398c-0.31119,0.77016 -0.61344,1.45925 -0.90677,2.06727l-1.85563,-0.68909c0.30608,-0.60802 0.61472,-1.31468 0.9259,-2.11997c0.31374,-0.80259 0.60707,-1.62679 0.87999,-2.47262c0.27548,-0.84312 0.50249,-1.64301 0.68104,-2.39966M318.28101,176.76018l1.79824,-0.70936c0.30608,0.74314 0.62492,1.54032 0.95651,2.39155c0.33159,0.85123 0.63385,1.67544 0.90677,2.47262c0.27548,0.79718 0.49611,1.49978 0.66191,2.10781l-1.97041,0.89176c-0.14029,-0.62153 -0.34179,-1.3417 -0.60452,-2.1605c-0.26017,-0.8161 -0.5433,-1.66328 -0.84938,-2.54153c-0.30608,-0.87825 -0.60579,-1.6957 -0.89912,-2.45235M318.20449,171.57174h16.5859v2.14834h-16.5859zM346.93808,174.93612h7.65209v2.00647h-7.65209v-2.00647M351.14673,170.80158h1.97041v15.95042c0,0.55397 -0.05994,0.9958 -0.17982,1.32549c-0.12243,0.33238 -0.33669,0.59316 -0.64278,0.78232c-0.30608,0.17565 -0.69506,0.2932 -1.16694,0.35265c-0.47188,0.06215 -1.05854,0.08647 -1.75998,0.07296c-0.03826,-0.28374 -0.12116,-0.6391 -0.24869,-1.06606c-0.12754,-0.42426 -0.25507,-0.78502 -0.3826,-1.08228c0.44637,0.01351 0.86341,0.02297 1.25112,0.02837c0.39026,0.00811 0.64915,0.00541 0.77669,-0.00811c0.14029,-0.01351 0.23849,-0.04729 0.29461,-0.10134c0.05867,-0.05405 0.088,-0.15538 0.088,-0.30401v-15.95042M347.03374,179.25307l1.58781,-0.72963c0.22956,0.4729 0.45913,0.97554 0.68869,1.50789c0.22956,0.53506 0.44637,1.05931 0.65043,1.57275c0.20406,0.51344 0.36347,0.97283 0.47826,1.37818l-1.66433,0.85123c-0.11478,-0.41886 -0.26782,-0.89176 -0.45913,-1.41872c-0.1913,-0.52695 -0.39918,-1.06742 -0.62365,-1.62139c-0.22191,-0.55397 -0.44127,-1.06742 -0.65808,-1.54032M345.86679,170.45703l1.85563,0.52695c-0.31884,1.09444 -0.70144,2.17536 -1.14781,3.24278c-0.44637,1.06742 -0.93738,2.07403 -1.47303,3.01984c-0.53565,0.94581 -1.0968,1.77677 -1.68346,2.49289c-0.06377,-0.14863 -0.16962,-0.34184 -0.31756,-0.57965c-0.14539,-0.2351 -0.29843,-0.47426 -0.45913,-0.71746c-0.15814,-0.24321 -0.30098,-0.43237 -0.42852,-0.56749c0.76521,-0.90528 1.47048,-2.01322 2.1158,-3.32385c0.64278,-1.31062 1.15547,-2.67529 1.53807,-4.09401M337.46862,171.28799h4.41908v1.94567h-2.62084v16.11255h-1.79824v-18.05822M341.25641,171.28799h0.32521l0.30608,-0.08107l1.31999,0.79043c-0.22956,0.89176 -0.48846,1.83757 -0.77669,2.83743c-0.28568,0.99986 -0.56243,1.90513 -0.83025,2.71583c0.56115,0.83772 0.92845,1.62814 1.1019,2.37128c0.1709,0.74314 0.25634,1.42547 0.25634,2.047c0,0.64856 -0.06377,1.19172 -0.1913,1.6295c-0.12754,0.44048 -0.33159,0.77557 -0.61217,1.00526c-0.26782,0.2297 -0.60579,0.37157 -1.0139,0.42561c-0.34434,0.05405 -0.7397,0.06756 -1.18607,0.04053c0,-0.27023 -0.03571,-0.58505 -0.10713,-0.94446c-0.06887,-0.35671 -0.17345,-0.67017 -0.31374,-0.94041c0.1658,0.01351 0.31246,0.02297 0.44,0.02837c0.12754,0.00811 0.24869,0.00541 0.36347,-0.00811c0.20406,0 0.37623,-0.05405 0.51652,-0.16214c0.10203,-0.09458 0.17855,-0.26348 0.22956,-0.50668c0.05101,-0.24321 0.07652,-0.5202 0.07652,-0.83096c0,-0.49993 -0.0829,-1.09174 -0.24869,-1.77542c-0.1658,-0.68098 -0.51014,-1.3998 -1.03303,-2.15645c0.12754,-0.45939 0.25762,-0.95932 0.39026,-1.49978c0.13519,-0.54046 0.26272,-1.08093 0.3826,-1.62139c0.12243,-0.54046 0.23721,-1.0512 0.34434,-1.53221c0.10968,-0.47831 0.1964,-0.88636 0.26017,-1.22415v-0.60802M344.39377,175.48334l1.58781,-1.68219l0.22956,0.10134v15.36266h-1.81737zM364.02137,176.17243h9.4312v2.02674h-9.4312v-2.02674M368.11524,177.10473h2.0278v8.73523h-2.0278v-8.73523M360.3675,177.69248v8.10695h-2.00867v-5.9586h-2.29563v-2.14834h4.3043M362.89269,171.61227h2.08519v4.47909c0,0.72963 -0.02551,1.52275 -0.07652,2.37939c-0.05101,0.85934 -0.14922,1.73489 -0.29461,2.62665c-0.14794,0.89176 -0.35965,1.75651 -0.63512,2.59422c-0.27293,0.83772 -0.6262,1.59437 -1.05981,2.26994c-0.11478,-0.1216 -0.28313,-0.27023 -0.50504,-0.44588c-0.22446,-0.17565 -0.45147,-0.34184 -0.68104,-0.49858c-0.22956,-0.15403 -0.42086,-0.27158 -0.57391,-0.35265c0.53565,-0.83772 0.92463,-1.76056 1.16694,-2.76852c0.24232,-1.00526 0.39918,-2.01458 0.4706,-3.02794c0.06887,-1.01337 0.1033,-1.93891 0.1033,-2.77663v-4.47909M371.50129,170.45703l1.68346,1.62139c-0.87999,0.29726 -1.86839,0.54046 -2.96518,0.72963c-1.0968,0.18916 -2.22931,0.33374 -3.39753,0.43372c-1.16567,0.10269 -2.29052,0.16754 -3.37457,0.19457c-0.03826,-0.25672 -0.11223,-0.56478 -0.22191,-0.92419c-0.10713,-0.35671 -0.21808,-0.65666 -0.33287,-0.89987c0.77796,-0.04053 1.56613,-0.09188 2.3645,-0.15403c0.79582,-0.05945 1.57888,-0.13647 2.34919,-0.23105c0.77286,-0.09458 1.49088,-0.20673 2.15406,-0.33644c0.66318,-0.12701 1.24346,-0.27158 1.74085,-0.43372M359.31534,184.70499c0.22956,0 0.44255,0.05675 0.63895,0.17025c0.19895,0.1162 0.42214,0.26483 0.66956,0.44588c0.24997,0.18376 0.55988,0.38373 0.92973,0.59991c0.63767,0.39184 1.3863,0.6418 2.24589,0.74989c0.86214,0.10809 1.82885,0.16214 2.90014,0.16214c0.52289,0 1.09425,-0.00676 1.71407,-0.02027c0.61727,-0.01351 1.24474,-0.04053 1.88241,-0.08107c0.63767,-0.04053 1.25367,-0.09188 1.84798,-0.15403c0.59176,-0.05945 1.12996,-0.12296 1.61459,-0.19051c-0.07652,0.18916 -0.15942,0.42561 -0.24869,0.70936c-0.08928,0.28374 -0.1658,0.56343 -0.22956,0.83907c-0.06377,0.27834 -0.10203,0.51884 -0.11478,0.72152c-0.34434,0.02702 -0.78434,0.05405 -1.31999,0.08107c-0.53565,0.02702 -1.11593,0.04999 -1.74085,0.06891c-0.62492,0.02162 -1.24091,0.03918 -1.84798,0.0527c-0.60452,0.01351 -1.14909,0.02027 -1.63372,0.02027c-1.19883,0 -2.22803,-0.07431 -3.08762,-0.22294c-0.86214,-0.14863 -1.63755,-0.42561 -2.32624,-0.83096c-0.43362,-0.25672 -0.80985,-0.51749 -1.12868,-0.78232c-0.31884,-0.26212 -0.58666,-0.39319 -0.80347,-0.39319c-0.20406,0 -0.42724,0.12431 -0.66956,0.37292c-0.24232,0.25132 -0.49739,0.57289 -0.76521,0.96473c-0.26782,0.39184 -0.52927,0.79718 -0.78434,1.21604l-1.37738,-2.06727c0.65043,-0.72963 1.29831,-1.31738 1.94363,-1.76326c0.64278,-0.44588 1.20648,-0.66882 1.69111,-0.66882M356.40755,171.85548l1.58781,-1.07417c0.34434,0.3513 0.70144,0.73638 1.07129,1.15524c0.36985,0.41886 0.72057,0.83366 1.05216,1.24442c0.33159,0.41345 0.59941,0.78908 0.80347,1.12687l-1.68346,1.23631c-0.17855,-0.33779 -0.42724,-0.72287 -0.74608,-1.15524c-0.31884,-0.43237 -0.66063,-0.86879 -1.02538,-1.30927c-0.3622,-0.43778 -0.71547,-0.84582 -1.05981,-1.22415z"/></g></g></svg>