<svg version="1.1" xmlns="http://www.w3.org/2000/svg" xmlns:xlink="http://www.w3.org/1999/xlink" width="75.52018" height="18.37606" viewBox="0,0,75.52018,18.37606"><g transform="translate(-241.24966,-170.79981)"><g fill="#ffffff" stroke="none" stroke-miterlimit="10"><path d="M247.62701,174.77354l1.8221,0.3683c-0.37476,1.39565 -0.81671,2.75512 -1.32587,4.0784c-0.51174,1.32587 -1.08421,2.55998 -1.71743,3.70235c-0.63321,1.14495 -1.31165,2.14387 -2.03532,2.99677c-0.10338,-0.1163 -0.24812,-0.25199 -0.4342,-0.40706c-0.18867,-0.15507 -0.38251,-0.31014 -0.58152,-0.46522c-0.20159,-0.15507 -0.37347,-0.27784 -0.51562,-0.3683c0.72367,-0.77536 1.3866,-1.68641 1.9888,-2.73315c0.59961,-1.04674 1.1359,-2.18393 1.60887,-3.41159c0.47039,-1.22765 0.86711,-2.48116 1.19018,-3.7605M242.76162,176.16919l1.57011,-0.79475c0.52983,0.71075 1.06354,1.46285 1.60112,2.2563c0.535,0.79604 1.05061,1.59724 1.54685,2.40362c0.49882,0.80896 0.94852,1.59078 1.34913,2.34547c0.4006,0.75727 0.71721,1.43959 0.94982,2.04695l-1.76395,0.9692c-0.21969,-0.62029 -0.51691,-1.30907 -0.89167,-2.06634c-0.37476,-0.75468 -0.80121,-1.54943 -1.27935,-2.38424c-0.47814,-0.83222 -0.98212,-1.6554 -1.51195,-2.46953c-0.52983,-0.81413 -1.0532,-1.58303 -1.57011,-2.3067M251.69765,173.82372h5.64075v1.89963h-5.64075v-1.89963M251.58135,170.91612l1.95779,0.29076c-0.25845,1.61534 -0.62029,3.14667 -1.08551,4.59402c-0.46522,1.44734 -1.03381,2.65561 -1.70579,3.62481c-0.1163,-0.10338 -0.28042,-0.22356 -0.49235,-0.36054c-0.21452,-0.1344 -0.43162,-0.26621 -0.6513,-0.39543c-0.21969,-0.12923 -0.40706,-0.23261 -0.56214,-0.31014c0.45229,-0.58152 0.84385,-1.26642 1.17467,-2.05471c0.32824,-0.78828 0.60478,-1.64118 0.82964,-2.55869c0.22744,-0.91751 0.40577,-1.86087 0.535,-2.83007M256.87319,173.82372h0.29076l0.32953,-0.07754l1.37627,0.40706c-0.14215,0.63321 -0.29981,1.27935 -0.47297,1.9384c-0.17575,0.65906 -0.36054,1.28581 -0.55438,1.88025c-0.19384,0.59444 -0.38122,1.13073 -0.56214,1.60887l-1.62826,-0.52337c0.15507,-0.41353 0.30756,-0.89813 0.45746,-1.4538c0.14732,-0.55568 0.28947,-1.13461 0.42645,-1.73681c0.1344,-0.59961 0.24682,-1.1708 0.33728,-1.71355v-0.32953M254.46957,179.05741c0.24553,1.34396 0.54921,2.51992 0.91105,3.52789c0.36184,1.00797 0.81801,1.90222 1.36851,2.68275c0.54792,0.78311 1.22249,1.5042 2.02369,2.16326c-0.24553,0.19384 -0.49752,0.43937 -0.75598,0.73659c-0.25845,0.29722 -0.45229,0.58152 -0.58152,0.8529c-0.89167,-0.80121 -1.63472,-1.65798 -2.22916,-2.57032c-0.59444,-0.90976 -1.08938,-1.9397 -1.48482,-3.08981c-0.39285,-1.15012 -0.72496,-2.46823 -0.99634,-3.95434l1.74456,-0.34891M252.70562,176.69256h1.91902v1.47319c0,0.73659 -0.04264,1.56623 -0.12793,2.48891c-0.08271,0.92526 -0.25587,1.87896 -0.51949,2.86108c-0.26621,0.98212 -0.66423,1.95779 -1.19406,2.92699c-0.52983,0.9692 -1.24704,1.88025 -2.15163,2.73315c-0.09046,-0.15507 -0.21581,-0.33341 -0.37605,-0.535c-0.16283,-0.19901 -0.32824,-0.38897 -0.49623,-0.56989c-0.168,-0.18092 -0.32953,-0.32953 -0.4846,-0.44583c0.77536,-0.73659 1.39565,-1.51842 1.86087,-2.34547c0.46522,-0.82705 0.81155,-1.66703 1.03898,-2.51992c0.22485,-0.8529 0.36959,-1.67736 0.4342,-2.4734c0.06461,-0.79345 0.09692,-1.51325 0.09692,-2.15938v-1.43442M249.77864,172.31177v1.89963h-6.51303v12.21194h6.47427v1.88025h-8.49021v-15.99182zM271.1786,171.76901h1.95779v16.76719h-1.95779v-16.76719M275.3074,171.4201h1.99656v17.62008h-1.99656v-17.62008M267.12734,171.43949h1.95779v6.57119c0,1.26642 -0.05428,2.54835 -0.16283,3.84579c-0.11113,1.30002 -0.34762,2.55998 -0.70946,3.77989c-0.36184,1.22249 -0.93689,2.36356 -1.72518,3.42322c-0.12923,-0.14215 -0.29722,-0.28818 -0.50398,-0.43808c-0.20676,-0.14732 -0.42257,-0.29593 -0.64743,-0.44583c-0.22744,-0.14732 -0.43162,-0.25975 -0.61254,-0.33728c0.73659,-0.94336 1.27289,-1.95779 1.60887,-3.04329c0.33599,-1.08551 0.55309,-2.20332 0.6513,-3.35344c0.09563,-1.15012 0.14344,-2.30024 0.14344,-3.45036v-6.5518M265.4797,176.55687l1.57011,0.4846c-0.09046,0.55568 -0.20418,1.1372 -0.34116,1.74456c-0.1344,0.60737 -0.29851,1.19535 -0.49235,1.76395c-0.19384,0.5686 -0.42645,1.07258 -0.69783,1.51195l-1.53134,-0.8529c0.25845,-0.38768 0.48202,-0.83997 0.67069,-1.35688c0.18609,-0.51691 0.35021,-1.05966 0.49235,-1.62826c0.14215,-0.5686 0.25199,-1.12427 0.32953,-1.66703M268.6393,177.4873l1.47319,-0.56214c0.20676,0.42645 0.40319,0.8852 0.58927,1.37627c0.18867,0.49106 0.35408,0.97179 0.49623,1.44217c0.14215,0.47297 0.23907,0.89684 0.29076,1.27159l-1.55072,0.63967c-0.05169,-0.38768 -0.14215,-0.82059 -0.27138,-1.29873c-0.12923,-0.47814 -0.28042,-0.9692 -0.45359,-1.47319c-0.17575,-0.50398 -0.367,-0.9692 -0.57377,-1.39565M272.47733,177.21593l1.49257,-0.67844c0.2843,0.45229 0.55568,0.93302 0.81413,1.44217c0.25845,0.51174 0.49106,1.0196 0.69783,1.52358c0.20676,0.50398 0.36184,0.95628 0.46522,1.35688l-1.58949,0.75598c-0.10338,-0.4006 -0.25199,-0.85936 -0.44583,-1.37627c-0.19384,-0.51691 -0.41353,-1.03769 -0.65906,-1.56235c-0.24553,-0.52208 -0.50398,-1.00926 -0.77536,-1.46156M260.71123,172.6413l1.22119,-1.51195c0.33599,0.168 0.70816,0.3683 1.11652,0.6009c0.40577,0.23261 0.79862,0.46522 1.17855,0.69783c0.38251,0.23261 0.69007,0.44583 0.92268,0.63967l-1.27935,1.68641c-0.21969,-0.20676 -0.51045,-0.43679 -0.87228,-0.69007c-0.36184,-0.2507 -0.74564,-0.49882 -1.15141,-0.74435c-0.40836,-0.24553 -0.78699,-0.47168 -1.1359,-0.67844M259.93587,177.83622l1.16304,-1.51195c0.34891,0.168 0.73013,0.35796 1.14366,0.56989c0.41353,0.21452 0.81155,0.43162 1.19406,0.6513c0.37993,0.21969 0.69912,0.41999 0.95757,0.6009l-1.22119,1.66703c-0.23261,-0.19384 -0.53629,-0.40706 -0.91105,-0.63967c-0.37476,-0.23261 -0.76631,-0.46909 -1.17467,-0.70946c-0.40577,-0.23778 -0.78958,-0.44713 -1.15141,-0.62804M260.28478,187.76084c0.25845,-0.50398 0.53629,-1.09843 0.83351,-1.78333c0.29722,-0.6849 0.59832,-1.41245 0.9033,-2.18264c0.30239,-0.76761 0.57635,-1.51971 0.82188,-2.2563l1.68641,1.06612c-0.21969,0.6849 -0.46263,1.38919 -0.72884,2.11286c-0.26362,0.72367 -0.53371,1.43442 -0.81025,2.13224c-0.27913,0.69783 -0.55438,1.35688 -0.82576,1.97717zM281.99489,181.34472v-1.60887l1.22119,-0.71721h12.59962v2.03532h-11.59165c-0.36184,0 -0.70041,0.00905 -1.01572,0.02714c-0.3179,0.02068 -0.58281,0.05298 -0.79475,0.09692c-0.21452,0.04652 -0.35408,0.10209 -0.4187,0.1667M288.2947,176.45995h2.11286v10.02154c0,0.54275 -0.06461,0.97179 -0.19384,1.2871c-0.12923,0.3179 -0.38768,0.56084 -0.77536,0.72884c-0.36184,0.18092 -0.80767,0.29334 -1.3375,0.33728c-0.52983,0.04652 -1.15012,0.06978 -1.86087,0.06978c-0.02584,-0.20676 -0.084,-0.43937 -0.17446,-0.69783c-0.09046,-0.25845 -0.1835,-0.51432 -0.27913,-0.76761c-0.09821,-0.2507 -0.19901,-0.47297 -0.30239,-0.66681c0.50398,0.01292 0.98859,0.02197 1.4538,0.02714c0.46522,0.00775 0.78182,0.00517 0.94982,-0.00775c0.15507,0 0.26233,-0.02584 0.32177,-0.07754c0.05686,-0.05169 0.08529,-0.14215 0.08529,-0.27138v-9.98278M283.35178,182.31393l2.09348,0.58152c-0.29722,0.6849 -0.6526,1.36593 -1.06612,2.04308c-0.41353,0.67973 -0.84902,1.31682 -1.30648,1.91127c-0.46005,0.59444 -0.92914,1.11135 -1.40728,1.55072c-0.12923,-0.1163 -0.29981,-0.26233 -0.51174,-0.43808c-0.21452,-0.17316 -0.43162,-0.34116 -0.6513,-0.50398c-0.21969,-0.16024 -0.41353,-0.29205 -0.58152,-0.39543c0.69783,-0.5686 1.3543,-1.27935 1.96942,-2.13224c0.61254,-0.8529 1.09972,-1.72518 1.46156,-2.61684M291.58999,183.14744l1.76395,-0.83351c0.46522,0.47814 0.94723,1.00409 1.44605,1.57786c0.49623,0.57635 0.96145,1.14495 1.39565,1.70579c0.43162,0.56343 0.77665,1.07129 1.03511,1.52358l-1.89963,0.98859c-0.23261,-0.45229 -0.5518,-0.96662 -0.95757,-1.54297c-0.40836,-0.57377 -0.85419,-1.16175 -1.3375,-1.76395c-0.48589,-0.59961 -0.96791,-1.15141 -1.44605,-1.6554M280.13403,173.45542h16.57335v1.99656h-16.57335v-1.99656M281.99489,181.34472c-0.03877,-0.14215 -0.0995,-0.34245 -0.18221,-0.6009c-0.08529,-0.25845 -0.17963,-0.52725 -0.28301,-0.80638c-0.10338,-0.27655 -0.2003,-0.51174 -0.29076,-0.70558c0.25845,-0.07754 0.50786,-0.23907 0.74822,-0.4846c0.23778,-0.24553 0.51174,-0.57506 0.82188,-0.98859c0.168,-0.19384 0.40448,-0.52337 0.70946,-0.98859c0.30239,-0.46522 0.63838,-1.01831 1.00797,-1.65927c0.367,-0.63838 0.73789,-1.32587 1.11264,-2.06246c0.37476,-0.73659 0.71721,-1.48611 1.02735,-2.24855l2.26793,0.83351c-0.49106,1.05966 -1.03381,2.09994 -1.62826,3.12083c-0.59444,1.02089 -1.20439,1.99009 -1.82985,2.9076c-0.62804,0.91751 -1.24575,1.74456 -1.85311,2.48116v0.03877c0,0 -0.084,0.04135 -0.25199,0.12406c-0.168,0.08529 -0.35537,0.18867 -0.56214,0.31014c-0.20676,0.12406 -0.39414,0.2507 -0.56214,0.37993c-0.168,0.12923 -0.25199,0.24553 -0.25199,0.34891zM310.00482,171.9047h5.05923v1.88025h-3.21775v15.19708h-1.84148v-17.07733M314.6376,171.9047h0.38768l0.31014,-0.07754l1.43442,0.89167c-0.32307,0.93043 -0.6849,1.91514 -1.08551,2.95413c-0.4006,1.04157 -0.78828,1.9888 -1.16304,2.8417c0.80121,0.89167 1.32199,1.7213 1.56235,2.48891c0.23778,0.77019 0.35667,1.47836 0.35667,2.12449c0,0.65906 -0.07366,1.22119 -0.22098,1.68641c-0.1499,0.46522 -0.39931,0.82059 -0.74822,1.06612c-0.168,0.1163 -0.36184,0.20935 -0.58152,0.27913c-0.21969,0.07237 -0.45229,0.12793 -0.69783,0.1667c-0.21969,0.02584 -0.46522,0.04135 -0.73659,0.04652c-0.27138,0.00775 -0.54275,0.00517 -0.81413,-0.00775c-0.01292,-0.27138 -0.05815,-0.59444 -0.13569,-0.9692c-0.07754,-0.37476 -0.2003,-0.69783 -0.3683,-0.9692c0.24553,0.02584 0.46909,0.04135 0.67069,0.04652c0.19901,0.00775 0.38251,0.00517 0.55051,-0.00775c0.12923,0 0.25845,-0.0168 0.38768,-0.0504c0.12923,-0.03101 0.23907,-0.07883 0.32953,-0.14344c0.168,-0.10338 0.28818,-0.27525 0.36054,-0.51562c0.06978,-0.23778 0.10467,-0.52466 0.10467,-0.86065c0,-0.55568 -0.13569,-1.18243 -0.40706,-1.88025c-0.27138,-0.69783 -0.79475,-1.44734 -1.57011,-2.24855c0.19384,-0.49106 0.39156,-1.01831 0.59315,-1.58174c0.19901,-0.56084 0.39285,-1.12944 0.58152,-1.70579c0.18609,-0.57377 0.35667,-1.11264 0.51174,-1.61663c0.15507,-0.50398 0.2843,-0.93043 0.38768,-1.27935v-0.67844M299.47929,173.14528h9.32372v1.86087h-9.32372v-1.86087M298.9753,178.35958h10.25415v1.88025h-10.25415v-1.88025M300.52603,175.4326l1.78333,-0.44583c0.27138,0.46522 0.51432,0.97825 0.72884,1.53909c0.21193,0.56343 0.36313,1.05191 0.45359,1.46543l-1.86087,0.52337c-0.07754,-0.42645 -0.21969,-0.92785 -0.42645,-1.5042c-0.20676,-0.57377 -0.43291,-1.09972 -0.67844,-1.57786M306.01171,174.92861l2.05471,0.44583c-0.18092,0.43937 -0.3683,0.8852 -0.56214,1.3375c-0.19384,0.45229 -0.38122,0.8852 -0.56214,1.29873c-0.18092,0.41353 -0.36184,0.78182 -0.54275,1.10489l-1.74456,-0.42645c0.168,-0.34891 0.33987,-0.74305 0.51562,-1.18243c0.17316,-0.43937 0.3347,-0.8852 0.4846,-1.3375c0.14732,-0.45229 0.26621,-0.86582 0.35667,-1.24058M301.01063,186.28765h6.35796v1.8221h-6.35796v-1.8221M299.92512,181.75179h8.50959v7.13332h-2.05471v-5.27246h-4.49709v5.38876h-1.95779v-7.24963M302.58073,171.34257l1.88025,-0.52337c0.20676,0.41353 0.41094,0.86582 0.61254,1.35688c0.19901,0.49106 0.34374,0.91105 0.4342,1.25996l-1.99656,0.62029c-0.07754,-0.34891 -0.20289,-0.77924 -0.37605,-1.29098c-0.17575,-0.50915 -0.36054,-0.98342 -0.55438,-1.42279z"/></g></g></svg>