<svg version="1.1" xmlns="http://www.w3.org/2000/svg" xmlns:xlink="http://www.w3.org/1999/xlink" width="119.14397" height="18.92097" viewBox="0,0,119.14397,18.92097"><g transform="translate(-239.29951,-171.01455)"><g fill="#ffffff" stroke="none" stroke-miterlimit="10"><path d="M245.74027,174.26503h2.00647v6.26018h-2.00647v-6.26018M250.51566,174.26503h2.02653v6.22004h-2.02653v-6.22004M245.33898,183.61517h4.61487v1.72556h-4.61487v-1.72556M256.07358,182.53167l1.56504,1.42459c-0.49493,0.26753 -1.04336,0.515 -1.6453,0.7424c-0.60194,0.2274 -1.21458,0.43741 -1.83792,0.63003c-0.62067,0.19529 -1.21859,0.36651 -1.79378,0.51366c-0.05351,-0.20065 -0.14312,-0.44544 -0.26887,-0.73436c-0.12841,-0.28626 -0.24613,-0.52971 -0.35314,-0.73036c0.52168,-0.16052 1.05407,-0.33843 1.59715,-0.53372c0.54041,-0.19262 1.04871,-0.40263 1.52491,-0.63003c0.47352,-0.2274 0.8775,-0.4548 1.21191,-0.6822M250.77651,182.05012h2.06666v5.0563c0,0.29428 0.04681,0.48155 0.14045,0.56181c0.09364,0.08026 0.30766,0.12039 0.64207,0.12039c0.06688,0 0.19128,0 0.3732,0c0.17925,0 0.37989,0 0.60193,0c0.21938,0 0.42671,0 0.62201,0c0.19262,0 0.32906,0 0.40932,0c0.20065,0 0.34779,-0.04682 0.44143,-0.14046c0.09364,-0.09364 0.16453,-0.28492 0.21269,-0.57385c0.04548,-0.28626 0.07491,-0.71697 0.08828,-1.29216c0.20065,0.16052 0.48155,0.30766 0.84271,0.44142c0.36117,0.13377 0.6822,0.23409 0.9631,0.30097c-0.06688,0.78921 -0.18326,1.4072 -0.34913,1.85397c-0.16854,0.44945 -0.40932,0.76112 -0.72233,0.93501c-0.31568,0.17389 -0.73437,0.26084 -1.25605,0.26084c-0.08026,0 -0.20733,0 -0.38123,0c-0.17389,0 -0.36785,0 -0.58187,0c-0.21402,0 -0.42804,0 -0.64207,0c-0.21402,0 -0.4013,0 -0.56181,0c-0.16052,0 -0.28759,0 -0.38123,0c-0.66882,0 -1.18783,-0.07357 -1.55702,-0.22071c-0.36651,-0.14714 -0.61932,-0.40129 -0.75844,-0.76246c-0.14179,-0.36116 -0.21269,-0.8494 -0.21269,-1.46472v-5.07636M242.46973,176.23137h14.82779v5.35726h-14.82779v-1.72556h12.76113v-1.90614h-12.76113v-1.72556M242.12864,172.69999h15.6705v1.88608h-15.6705v-1.88608M241.10534,172.69999h2.06666v5.85889c0,0.80258 -0.02676,1.69212 -0.08026,2.6686c-0.05351,0.97648 -0.15383,1.96901 -0.30097,2.97759c-0.14714,1.01126 -0.36116,1.99176 -0.64207,2.94148c-0.2809,0.94973 -0.64876,1.8125 -1.10356,2.58834c-0.12039,-0.12039 -0.29026,-0.25816 -0.50964,-0.41333c-0.22205,-0.15249 -0.44276,-0.29963 -0.66214,-0.44142c-0.22205,-0.13912 -0.41333,-0.2488 -0.57385,-0.32906c0.42804,-0.72233 0.76246,-1.50485 1.00323,-2.34757c0.24078,-0.84271 0.41868,-1.71219 0.53372,-2.60841c0.11236,-0.89622 0.18593,-1.77639 0.22071,-2.64051c0.03211,-0.86144 0.04816,-1.66001 0.04816,-2.39572v-5.85889M247.98752,171.51617l2.14692,-0.50161c0.20065,0.36116 0.38792,0.76245 0.56181,1.20388c0.17389,0.44143 0.30097,0.82934 0.38123,1.16375l-2.22718,0.58187c-0.06688,-0.33441 -0.18058,-0.73303 -0.3411,-1.19585c-0.16052,-0.46015 -0.33441,-0.8775 -0.52168,-1.25204M243.97458,189.93553l-0.06019,-1.52491l0.94304,-0.622l5.21681,-0.58187c-0.01337,0.26753 -0.01605,0.56449 -0.00803,0.89087c0.00535,0.32906 0.02809,0.59391 0.06822,0.79456c-1.23063,0.16052 -2.22316,0.29429 -2.9776,0.4013c-0.7571,0.10701 -1.34567,0.19663 -1.76569,0.26887c-0.4227,0.07491 -0.73436,0.13912 -0.93501,0.19262c-0.20065,0.05351 -0.36116,0.1137 -0.48155,0.18058M243.97458,189.93553c-0.02675,-0.16052 -0.08025,-0.3518 -0.16052,-0.57385c-0.08026,-0.21938 -0.16319,-0.44008 -0.2488,-0.66213c-0.08829,-0.21938 -0.17925,-0.40263 -0.27288,-0.54977c0.21402,-0.06688 0.44142,-0.19128 0.6822,-0.3732c0.24078,-0.17925 0.36116,-0.46283 0.36116,-0.85075v-4.85564h2.02653v6.36049c0,0 -0.08026,0.02943 -0.24078,0.08829c-0.16052,0.06153 -0.35715,0.1458 -0.5899,0.25281c-0.23542,0.10701 -0.47352,0.2274 -0.7143,0.36116c-0.24078,0.13377 -0.44142,0.26753 -0.60194,0.4013c-0.16052,0.13377 -0.24078,0.26752 -0.24078,0.40129zM263.8386,172.03786h2.16698v6.46082c0,1.02999 -0.05618,2.06934 -0.16854,3.11805c-0.11503,1.05139 -0.34377,2.07468 -0.68622,3.06989c-0.33976,0.99788 -0.85074,1.94093 -1.53294,2.82912c-0.6822,0.89087 -1.59848,1.69746 -2.74885,2.41979c-0.10701,-0.17389 -0.25148,-0.36785 -0.4334,-0.58187c-0.17924,-0.21402 -0.36651,-0.42537 -0.56181,-0.63404c-0.19262,-0.206 -0.36919,-0.36919 -0.52971,-0.48958c1.00324,-0.62869 1.80582,-1.32427 2.40776,-2.08672c0.60194,-0.76245 1.05406,-1.57173 1.35637,-2.42783c0.29963,-0.8561 0.49626,-1.72556 0.5899,-2.60841c0.09364,-0.88285 0.14045,-1.759 0.14045,-2.62847v-6.44075M271.10201,172.01779h2.18705v14.42649c0,0.49493 0.04012,0.81195 0.12038,0.95106c0.08026,0.14179 0.25415,0.21269 0.52168,0.21269c0.06688,0 0.1779,0 0.33307,0c0.15249,0 0.31569,0 0.48958,0c0.1739,0 0.33441,0 0.48155,0c0.14714,0 0.25415,0 0.32103,0c0.21402,0 0.37455,-0.1137 0.48156,-0.3411c0.10701,-0.2274 0.1846,-0.6327 0.23275,-1.21591c0.04548,-0.58053 0.08159,-1.39918 0.10834,-2.45592c0.26753,0.20065 0.59526,0.39059 0.98317,0.56984c0.38792,0.18192 0.72233,0.313 1.00323,0.39326c-0.0535,1.24401 -0.16319,2.24056 -0.32906,2.98963c-0.16854,0.74908 -0.42939,1.29083 -0.78253,1.62524c-0.35582,0.33441 -0.85475,0.50161 -1.49682,0.50161c-0.09364,0 -0.24078,0 -0.44142,0c-0.20065,0 -0.41467,0 -0.64207,0c-0.2274,0 -0.43741,0 -0.63003,0c-0.19529,0 -0.34645,0 -0.45346,0c-0.64207,0 -1.14369,-0.09765 -1.50485,-0.29295c-0.36117,-0.19262 -0.61532,-0.52703 -0.76246,-1.00323c-0.14714,-0.47352 -0.22071,-1.12496 -0.22071,-1.9543zM295.5809,179.86307h2.12685c0,0 -0.00267,0.05351 -0.00802,0.16052c-0.00802,0.10701 -0.01204,0.22739 -0.01204,0.36116c0,0.13377 -0.00669,0.25415 -0.02006,0.36116c-0.09364,1.79244 -0.19396,3.24647 -0.30097,4.36206c-0.10701,1.11827 -0.23409,1.97837 -0.38123,2.58031c-0.14714,0.60194 -0.32772,1.02999 -0.54174,1.28414c-0.2274,0.26753 -0.47218,0.4548 -0.73436,0.56181c-0.2595,0.10701 -0.56316,0.18058 -0.91094,0.22071c-0.29428,0.04013 -0.67818,0.06019 -1.15171,0.06019c-0.4762,0 -0.97514,-0.00669 -1.49683,-0.02006c-0.02675,-0.29428 -0.09631,-0.6287 -0.20867,-1.00324c-0.11503,-0.37454 -0.25282,-0.68888 -0.41334,-0.94304c0.49493,0.04013 0.95642,0.06287 1.38446,0.06822c0.42804,0.00803 0.7424,0.01204 0.94304,0.01204c0.1739,0 0.31836,-0.01338 0.43339,-0.04013c0.11236,-0.02675 0.22205,-0.09364 0.32906,-0.20065c0.14714,-0.16052 0.28091,-0.50831 0.4013,-1.04336c0.12039,-0.53506 0.22472,-1.32427 0.313,-2.36763c0.08561,-1.04336 0.16854,-2.40107 0.24881,-4.07313v-0.3411M285.66895,182.39122h1.9864v4.75532h-1.9864v-4.75532M290.68512,183.17374h1.96634v5.59804h-1.96634v-5.59804M280.83337,183.21387h1.96634v3.21035h8.70806v1.78575h-10.6744v-4.9961M293.33365,172.88057h2.00647c0,0 0,0.09363 0,0.2809c0,0.18727 -0.00669,0.3411 -0.02006,0.46149c-0.06688,1.00323 -0.13778,1.83926 -0.21269,2.50808c-0.07223,0.66882 -0.15784,1.19719 -0.25683,1.5851c-0.10166,0.38791 -0.23944,0.66883 -0.41333,0.84272c-0.16051,0.20065 -0.33843,0.34377 -0.53372,0.42938c-0.19262,0.08829 -0.416,0.14581 -0.67016,0.17256c-0.21402,0.04013 -0.49225,0.06287 -0.83469,0.06822c-0.33976,0.00803 -0.7036,0.00535 -1.09152,-0.00803c-0.02675,-0.29428 -0.08695,-0.61933 -0.18058,-0.97514c-0.09364,-0.35314 -0.21402,-0.65678 -0.36116,-0.91093c0.30766,0.02675 0.58856,0.04682 0.84271,0.06019c0.25416,0.01337 0.44811,0.02006 0.58187,0.02006c0.12039,0 0.2274,-0.01337 0.32104,-0.04012c0.09364,-0.02675 0.17389,-0.08026 0.24077,-0.16052c0.13376,-0.14714 0.24746,-0.52168 0.3411,-1.12362c0.09364,-0.60194 0.17389,-1.58511 0.24077,-2.9495v-0.26084M287.43464,171.11488l2.56828,0.22071c-0.21402,0.49493 -0.4548,0.97246 -0.72233,1.43261c-0.26753,0.46283 -0.50831,0.86145 -0.72233,1.19585l-1.90614,-0.3411c0.14714,-0.37454 0.29829,-0.7959 0.45346,-1.26408c0.15249,-0.46818 0.26218,-0.88284 0.32906,-1.244M285.22753,176.69286l1.06342,-1.3644c0.46817,0.16052 0.96979,0.35448 1.50485,0.58188c0.53506,0.2274 1.04604,0.46148 1.53294,0.70226c0.48958,0.24078 0.89488,0.46818 1.21592,0.6822l-1.12362,1.50485c-0.29428,-0.21402 -0.6822,-0.44811 -1.16375,-0.70227c-0.48155,-0.25415 -0.98718,-0.50563 -1.51689,-0.75443c-0.52703,-0.24613 -1.03132,-0.46282 -1.51288,-0.65009M293.95565,172.88057v1.9262h-9.55078v5.0563h11.81809v1.88608h-13.92487v-8.86858zM300.01518,182.2307h18.01807v1.94627h-18.01807v-1.94627M304.00805,175.52911h9.9922v1.76569h-9.9922v-1.76569M304.02812,178.85984h10.01227v1.74563h-10.01227v-1.74563M303.12521,172.11811h12.25951v10.99543h-2.16698v-9.18961h-8.00581v9.18961h-2.08673v-10.99543M311.07082,184.93943l1.82589,-0.80258c0.57519,0.4548 1.16643,0.96979 1.77371,1.54498c0.60996,0.57519 1.17846,1.13967 1.70549,1.69346c0.5297,0.55646 0.96846,1.04871 1.31624,1.47676l-1.88608,0.98317c-0.33441,-0.4548 -0.76513,-0.9738 -1.29217,-1.55702c-0.5297,-0.58053 -1.09553,-1.16509 -1.69747,-1.75365c-0.60194,-0.58856 -1.18382,-1.11694 -1.74563,-1.58511M301.80094,189.41385c-0.04013,-0.16052 -0.10032,-0.36116 -0.18058,-0.60194c-0.08026,-0.24078 -0.16052,-0.49225 -0.24078,-0.75443c-0.08026,-0.2595 -0.1672,-0.48289 -0.26084,-0.67016c0.2274,-0.05351 0.4548,-0.14446 0.6822,-0.27288c0.2274,-0.12574 0.47486,-0.29561 0.74239,-0.50964c0.20065,-0.13377 0.49761,-0.37455 0.89087,-0.72233c0.39594,-0.34778 0.83469,-0.76915 1.31624,-1.26408c0.48155,-0.49493 0.92298,-1.0166 1.32427,-1.56504l2.20711,0.84271c-0.77583,0.86947 -1.6025,1.69479 -2.47999,2.47598c-0.87482,0.78386 -1.72021,1.44332 -2.53617,1.97837v0.04013c0,0 -0.07357,0.03344 -0.22071,0.10032c-0.14714,0.06688 -0.31836,0.14982 -0.51365,0.24881c-0.19262,0.10166 -0.3625,0.21268 -0.50964,0.33307c-0.14714,0.12039 -0.22071,0.23409 -0.22071,0.3411M301.80094,189.41385l-0.02007,-1.48478l1.28414,-0.70227l11.61744,-0.46149c0.04013,0.26753 0.10032,0.56449 0.18058,0.89087c0.08026,0.32906 0.14045,0.59392 0.18058,0.79456c-1.84595,0.09364 -3.43775,0.17657 -4.77539,0.2488c-1.33765,0.07491 -2.46795,0.13912 -3.39092,0.19262c-0.92298,0.05351 -1.68275,0.10032 -2.27934,0.14045c-0.59391,0.04013 -1.06744,0.07625 -1.42058,0.10835c-0.35582,0.03478 -0.63806,0.07223 -0.84673,0.11236c-0.206,0.04013 -0.38256,0.09364 -0.5297,0.16052zM322.44748,181.92973v-1.66537l1.26407,-0.74239h13.04203v2.10679h-11.99867c-0.37454,0 -0.72634,0.00937 -1.05541,0.02809c-0.32639,0.0214 -0.59926,0.05485 -0.81863,0.10032c-0.22205,0.04816 -0.36652,0.10568 -0.4334,0.17256M328.9685,176.87344h2.18704v10.37343c0,0.56181 -0.06688,1.00591 -0.20064,1.33229c-0.13376,0.32906 -0.40129,0.58053 -0.80259,0.75443c-0.37454,0.18727 -0.83603,0.30365 -1.38446,0.34913c-0.54843,0.04816 -1.1905,0.07224 -1.92621,0.07224c-0.02675,-0.21402 -0.08695,-0.4548 -0.18059,-0.72233c-0.09364,-0.26753 -0.19128,-0.53238 -0.29294,-0.79456c-0.09899,-0.2595 -0.20198,-0.48958 -0.30899,-0.69022c0.52168,0.01337 1.0233,0.02274 1.50485,0.02809c0.48155,0.00803 0.80928,0.00535 0.98317,-0.00803c0.16051,0 0.2702,-0.02675 0.32906,-0.08026c0.06153,-0.05351 0.0923,-0.14714 0.0923,-0.2809v-10.3333M323.85201,182.93297l2.16698,0.60194c-0.30766,0.70895 -0.67551,1.41389 -1.10355,2.11481c-0.42804,0.7036 -0.88017,1.36306 -1.35637,1.97837c-0.47352,0.61532 -0.95775,1.15037 -1.45268,1.60518c-0.13376,-0.12039 -0.31034,-0.27155 -0.52971,-0.45346c-0.22205,-0.17925 -0.44677,-0.35314 -0.67417,-0.52168c-0.2274,-0.16587 -0.42804,-0.30231 -0.60194,-0.40932c0.72233,-0.58856 1.40185,-1.32426 2.03857,-2.20711c0.63405,-0.88285 1.13833,-1.78575 1.51288,-2.70873M332.37949,183.79575l1.82589,-0.86278c0.48155,0.49493 0.97915,1.03935 1.49281,1.63326c0.51633,0.59659 0.99788,1.18516 1.44466,1.76569c0.44945,0.58321 0.80793,1.1089 1.07547,1.57708l-1.96634,1.0233c-0.24077,-0.46818 -0.57117,-1.00056 -0.9912,-1.59715c-0.42269,-0.59392 -0.88418,-1.20254 -1.38446,-1.82588c-0.50295,-0.62067 -1.00189,-1.19184 -1.49683,-1.71352M320.52127,173.76342h17.15528v2.06666h-17.15528v-2.06666M322.44748,181.92973c-0.04013,-0.14714 -0.10433,-0.35448 -0.19262,-0.62201c-0.08561,-0.26753 -0.18192,-0.54576 -0.28893,-0.83469c-0.10701,-0.28626 -0.20734,-0.52971 -0.30097,-0.73035c0.26753,-0.08026 0.52569,-0.24747 0.7745,-0.50162c0.24613,-0.25415 0.52971,-0.59525 0.85074,-1.02329c0.1739,-0.20065 0.41868,-0.54175 0.73437,-1.0233c0.31301,-0.48155 0.65946,-1.05407 1.03935,-1.71753c0.38256,-0.6608 0.76781,-1.37243 1.15572,-2.13488c0.38792,-0.76245 0.74239,-1.53829 1.06342,-2.3275l2.34757,0.86278c-0.50831,1.09687 -1.07011,2.17367 -1.68543,3.23041c-0.61532,1.05674 -1.24669,2.05998 -1.89411,3.0097c-0.6501,0.94973 -1.28949,1.80582 -1.91818,2.56828v0.04013c0,0 -0.08694,0.0428 -0.26084,0.12841c-0.1739,0.08829 -0.36785,0.19529 -0.58188,0.32103c-0.21402,0.12841 -0.40798,0.2595 -0.58187,0.39327c-0.1739,0.13377 -0.26085,0.25415 -0.26085,0.36116zM351.44092,172.15824h5.23687v1.94627h-3.33073v15.73069h-1.90614v-17.67697M356.23637,172.15824h0.40129l0.32103,-0.08026l1.48479,0.92298c-0.33441,0.96311 -0.70895,1.98239 -1.12362,3.05785c-0.41467,1.07814 -0.81597,2.05864 -1.20388,2.94148c0.82934,0.92298 1.36842,1.78175 1.61722,2.5763c0.24613,0.79724 0.36919,1.53026 0.36919,2.19908c0,0.6822 -0.07625,1.26408 -0.22874,1.74563c-0.15517,0.48155 -0.41333,0.8494 -0.7745,1.10356c-0.1739,0.12039 -0.37454,0.2167 -0.60194,0.28893c-0.2274,0.07491 -0.46817,0.13243 -0.72233,0.17256c-0.2274,0.02675 -0.48155,0.0428 -0.76245,0.04815c-0.28091,0.00803 -0.56181,0.00535 -0.84271,-0.00803c-0.01337,-0.2809 -0.0602,-0.61532 -0.14046,-1.00323c-0.08026,-0.38791 -0.20733,-0.72233 -0.38123,-1.00323c0.25416,0.02675 0.48557,0.04281 0.69424,0.04816c0.206,0.00803 0.39594,0.00535 0.56984,-0.00803c0.13376,0 0.26753,-0.01738 0.4013,-0.05217c0.13376,-0.03211 0.24746,-0.0816 0.3411,-0.14848c0.1739,-0.10701 0.29829,-0.28492 0.3732,-0.53372c0.07223,-0.24613 0.10835,-0.54308 0.10835,-0.89087c0,-0.57519 -0.14045,-1.22395 -0.42136,-1.94628c-0.28091,-0.72233 -0.82265,-1.49816 -1.62524,-2.3275c0.20065,-0.50831 0.40396,-1.05406 0.60996,-1.63728c0.20867,-0.58053 0.40932,-1.1691 0.60194,-1.76569c0.19529,-0.59392 0.37321,-1.15172 0.53372,-1.6734c0.16051,-0.52168 0.29429,-0.9631 0.4013,-1.32426v-0.70226M340.54581,173.44238h9.6511v1.9262h-9.6511v-1.9262M340.02412,178.83978h10.61421v1.94627h-10.61421v-1.94627M341.6293,175.81001l1.84595,-0.46149c0.28091,0.48155 0.53238,1.0126 0.75443,1.59313c0.21938,0.58321 0.37588,1.08884 0.46952,1.51689l-1.92621,0.54175c-0.08026,-0.44143 -0.2274,-0.96043 -0.44142,-1.55702c-0.21402,-0.59392 -0.44811,-1.13833 -0.70227,-1.63326M347.3076,175.28833l2.12686,0.46149c-0.18727,0.4548 -0.38123,0.91628 -0.58188,1.38446c-0.20065,0.46818 -0.39461,0.91629 -0.58188,1.34434c-0.18727,0.42804 -0.37454,0.80928 -0.56181,1.14369l-1.80581,-0.44142c0.1739,-0.36116 0.3518,-0.76914 0.53372,-1.22394c0.17924,-0.4548 0.34645,-0.91629 0.50162,-1.38447c0.15249,-0.46818 0.27555,-0.89622 0.36919,-1.28413M342.13091,187.04622h6.58121v1.88608h-6.58121v-1.88608M341.00729,182.35109h8.80838v7.38379h-2.12685v-5.45759h-4.65501v5.57798h-2.02653v-7.50419M343.75615,171.57637l1.94627,-0.54175c0.21402,0.42804 0.42537,0.89622 0.63404,1.40453c0.206,0.50831 0.35582,0.94304 0.44945,1.3042l-2.06666,0.64207c-0.08026,-0.36116 -0.21001,-0.8066 -0.38925,-1.33631c-0.18192,-0.52703 -0.3732,-1.01794 -0.57385,-1.47275z"/></g></g></svg>