<svg version="1.1" xmlns="http://www.w3.org/2000/svg" xmlns:xlink="http://www.w3.org/1999/xlink" width="60" height="30" viewBox="0,0,60,30"><g transform="translate(-210,-165)"><g fill-rule="evenodd" stroke-miterlimit="10"><path d="M220,165h40c5.54,0 10,4.46 10,10v10c0,5.54 -4.46,10 -10,10h-40c-5.54,0 -10,-4.46 -10,-10v-10c0,-5.54 4.46,-10 10,-10z" fill="none" stroke="none" stroke-width="1" stroke-linecap="butt"/><path d="M220,170h40c2.77,0 5,2.23 5,5v10c0,2.77 -2.23,5 -5,5h-40c-2.77,0 -5,-2.23 -5,-5v-10c0,-2.77 2.23,-5 5,-5z" fill="#31476d" stroke="none" stroke-width="1" stroke-linecap="butt"/><path d="M228.14178,176.6355h-4.01321v-0.82463h9.57674v0.82463h-4.61794v8.35628h-0.94558zM229.26328,178.98845l0.48378,-0.70369c0.50577,0.35917 1.11234,0.80814 1.81969,1.3469c0.70735,0.53876 1.23328,0.95108 1.5778,1.23695l-0.53876,0.74767c-0.40315,-0.34451 -0.93458,-0.77515 -1.59429,-1.29192c-0.65971,-0.51677 -1.24245,-0.96207 -1.74822,-1.33591z" fill="#ffffff" stroke="#ffffff" stroke-width="0.5" stroke-linecap="round"/><path d="M235.07969,180.18692v-0.95657h9.64271v0.95657z" fill="#ffffff" stroke="#ffffff" stroke-width="0.5" stroke-linecap="round"/><path d="M246.42664,180.31886l-0.48378,-0.86861c0.96024,-0.6084 1.83618,-1.30659 2.62783,-2.09457c0.79165,-0.78798 1.44402,-1.60345 1.95713,-2.44641h0.73667c1.13616,1.77388 2.67181,3.2912 4.60695,4.55197l-0.51677,0.85762c-0.91626,-0.63039 -1.75738,-1.32491 -2.52338,-2.08357c-0.76599,-0.75866 -1.40921,-1.53748 -1.92964,-2.33646c-0.54976,0.82097 -1.2058,1.60712 -1.96812,2.35845c-0.76233,0.75133 -1.59796,1.43853 -2.50688,2.06158zM250.43985,185.09073v-6.59706h0.91259v6.59706z" fill="#ffffff" stroke="#ffffff" stroke-width="0.5" stroke-linecap="round"/></g></g></svg>