<svg version="1.1" xmlns="http://www.w3.org/2000/svg" xmlns:xlink="http://www.w3.org/1999/xlink" width="208" height="32" viewBox="0,0,208,32"><g transform="translate(-240,-164)"><g stroke="none" stroke-miterlimit="10"><path d="M252.57254,176.79508h2.19401v6.20307h-2.19401v-6.20307M240.94429,182.08065h18.23023v2.03445h-18.23023v-2.03445M245.3722,176.2366h12.70532v1.99456h-12.70532v-1.99456M251.55532,185.85036l1.5757,-1.43608c0.4521,0.23935 0.95074,0.49864 1.49592,0.77788c0.54518,0.27924 1.09036,0.57177 1.63554,0.8776c0.54518,0.30583 1.0611,0.60501 1.54777,0.89755c0.48401,0.29254 0.89888,0.56512 1.2446,0.81777l-1.71532,1.61559c-0.41221,-0.31913 -0.95074,-0.69145 -1.61559,-1.11695c-0.66485,-0.4255 -1.36561,-0.855 -2.10226,-1.28848c-0.73932,-0.43082 -1.4281,-0.81245 -2.06636,-1.14487M244.33503,172.10787l2.19401,0.49864v10.67087h-2.19401v-11.16951M256.08296,170.89119l1.07706,1.97461c-0.85101,0.15956 -1.7818,0.30583 -2.79238,0.4388c-1.01058,0.13297 -2.0504,0.24599 -3.11948,0.33907c-1.07174,0.09308 -2.14614,0.16887 -3.2232,0.22738c-1.07706,0.06117 -2.12753,0.10505 -3.1514,0.13164c-0.02659,-0.27924 -0.09574,-0.60236 -0.20743,-0.96935c-0.11435,-0.36434 -0.22472,-0.67283 -0.3311,-0.92547c1.01058,-0.03989 2.04774,-0.09973 3.11151,-0.17951c1.06376,-0.07978 2.11423,-0.1702 3.1514,-0.27126c1.03717,-0.0984 2.02115,-0.21142 2.95194,-0.33907c0.93079,-0.12499 1.77515,-0.26727 2.53308,-0.42683M246.74844,184.37439l1.91477,1.3563c-0.54518,0.4388 -1.16748,0.8909 -1.8669,1.3563c-0.69676,0.4654 -1.41746,0.9042 -2.1621,1.31641c-0.74463,0.41221 -1.45603,0.77123 -2.13417,1.07706c-0.17286,-0.21275 -0.40157,-0.47869 -0.68613,-0.79782c-0.28722,-0.31913 -0.5505,-0.58507 -0.78984,-0.79782c0.66485,-0.27924 1.36029,-0.61565 2.0863,-1.00924c0.72336,-0.39093 1.40417,-0.80979 2.04242,-1.25657c0.63826,-0.44412 1.17014,-0.85899 1.59564,-1.2446zM265.31775,176.69535h13.08428v1.91477h-13.08428v-1.91477M264.79917,184.85308h14.32091v1.95466h-14.32091v-1.95466M271.6006,179.34811h2.11423v10.13234h-2.11423v-10.13234M266.49454,183.33722c-0.02659,-0.14627 -0.08244,-0.34306 -0.16754,-0.59039c-0.08776,-0.24467 -0.17818,-0.49997 -0.27126,-0.76591c-0.09308,-0.26594 -0.18616,-0.49199 -0.27924,-0.67815c0.19946,-0.05319 0.39226,-0.17951 0.57842,-0.37897c0.18616,-0.19946 0.37897,-0.45875 0.57842,-0.77788c0.10638,-0.15956 0.25663,-0.4162 0.45077,-0.7699c0.19148,-0.35104 0.41088,-0.77256 0.6582,-1.26455c0.24467,-0.49199 0.48002,-1.02121 0.70607,-1.58767c0.22605,-0.56379 0.4255,-1.13158 0.59837,-1.70335l2.2339,0.71804c-0.31913,0.79782 -0.68746,1.5983 -1.10498,2.40144c-0.42019,0.8058 -0.85633,1.57038 -1.30843,2.29374c-0.4521,0.72602 -0.89755,1.38156 -1.33635,1.96663v0.03989c0,0 -0.06648,0.0359 -0.19946,0.10771c-0.13297,0.07446 -0.28987,0.17153 -0.47072,0.29121c-0.17818,0.11967 -0.33375,0.24201 -0.46673,0.367c-0.13297,0.12765 -0.19946,0.23802 -0.19946,0.3311M266.49454,183.33722v-1.59564l1.09701,-0.59837h10.19218v1.91477h-9.31457c-0.47869,0 -0.9042,0.0226 -1.27652,0.06781c-0.37232,0.04787 -0.60501,0.11834 -0.69809,0.21142M263.34314,172.78602h15.79688v1.99456h-15.79688v-1.99456M262.30597,172.78602h2.11423v5.66454c0,0.79782 -0.0226,1.67809 -0.06781,2.64079c-0.04787,0.96536 -0.14494,1.95599 -0.29121,2.97189c-0.14627,1.01855 -0.35503,1.99987 -0.62629,2.94396c-0.27392,0.94409 -0.64358,1.80175 -1.10897,2.57298c-0.11967,-0.13297 -0.29254,-0.27924 -0.51858,-0.4388c-0.22605,-0.15956 -0.45476,-0.31248 -0.68613,-0.45875c-0.23403,-0.14627 -0.43747,-0.25264 -0.61033,-0.31913c0.41221,-0.71804 0.73799,-1.49592 0.97733,-2.33363c0.23935,-0.83771 0.41886,-1.70202 0.53853,-2.59292c0.11967,-0.8909 0.1968,-1.76585 0.23137,-2.62483c0.03191,-0.85633 0.04787,-1.64351 0.04787,-2.36155v-5.66454M269.26697,171.29011l2.15412,-0.47869c0.22605,0.35902 0.4388,0.76724 0.63826,1.22466c0.19946,0.46008 0.33907,0.86298 0.41886,1.2087l-2.25385,0.55848c-0.05319,-0.33243 -0.16887,-0.73799 -0.34705,-1.21668c-0.18084,-0.47869 -0.38428,-0.91085 -0.61033,-1.29646zM280.99495,181.86125h17.9111v1.93472h-17.9111v-1.93472M284.96412,175.19943h9.93288v1.75521h-9.93288v-1.75521M284.98406,178.5104h9.95283v1.73526h-9.95283v-1.73526M284.08651,171.80869h12.18673v10.93016h-2.15412v-9.13506h-7.95827v9.13506h-2.07434v-10.93016M291.98495,184.5539l1.81505,-0.79782c0.57177,0.4521 1.16083,0.96403 1.76718,1.53581c0.60369,0.57177 1.16881,1.13291 1.69537,1.6834c0.5239,0.55316 0.95872,1.04249 1.30444,1.46799l-1.87488,0.97733c-0.33243,-0.4521 -0.76059,-0.96802 -1.28449,-1.54777c-0.52656,-0.57709 -1.08903,-1.15817 -1.68739,-1.74324c-0.59837,-0.58507 -1.17679,-1.1103 -1.73526,-1.5757M282.77011,189.00176c-0.03989,-0.15956 -0.09973,-0.35902 -0.17951,-0.59837c-0.07978,-0.23935 -0.15956,-0.48933 -0.23935,-0.74995c-0.07978,-0.25796 -0.16621,-0.48002 -0.25929,-0.66618c0.22605,-0.05319 0.4521,-0.14361 0.67815,-0.27126c0.22605,-0.12499 0.47205,-0.29386 0.73799,-0.50662c0.19946,-0.13297 0.49465,-0.37232 0.88558,-0.71804c0.39359,-0.34572 0.82973,-0.76458 1.30843,-1.25657c0.47869,-0.49199 0.9175,-1.01058 1.31641,-1.55575l2.19401,0.83771c-0.77123,0.86431 -1.59299,1.68473 -2.46527,2.46128c-0.86963,0.77921 -1.71,1.43475 -2.52112,1.96663v0.03989c0,0 -0.07313,0.03324 -0.2194,0.09973c-0.14627,0.06648 -0.31647,0.14893 -0.51061,0.24732c-0.19148,0.10106 -0.36035,0.21142 -0.50662,0.3311c-0.14627,0.11967 -0.2194,0.2327 -0.2194,0.33907M282.77011,189.00176l-0.01995,-1.47597l1.27652,-0.69809l11.54847,-0.45875c0.03989,0.26594 0.09973,0.56113 0.17951,0.88558c0.07978,0.32711 0.13962,0.59039 0.17951,0.78984c-1.83499,0.09308 -3.41734,0.17552 -4.74704,0.24732c-1.3297,0.07446 -2.4533,0.13829 -3.3708,0.19148c-0.9175,0.05319 -1.67277,0.09973 -2.26581,0.13962c-0.59039,0.03989 -1.06243,0.07579 -1.41613,0.10771c-0.35104,0.03457 -0.63028,0.0718 -0.83771,0.1117c-0.20477,0.03989 -0.3803,0.09308 -0.52656,0.15956zM301.45909,172.76608l1.33635,-1.1369c0.30583,0.23935 0.62496,0.50795 0.95739,0.8058c0.33243,0.30051 0.64225,0.5997 0.92946,0.89755c0.28456,0.30051 0.51991,0.57709 0.70607,0.82973l-1.41613,1.27652c-0.15956,-0.25264 -0.38295,-0.53853 -0.67017,-0.85766c-0.28456,-0.31913 -0.5864,-0.63826 -0.90553,-0.95739c-0.31913,-0.31913 -0.63161,-0.60501 -0.93744,-0.85766M300.52165,178.05165l1.21668,-1.21668c0.33243,0.21275 0.67815,0.45476 1.03717,0.72602c0.35902,0.27392 0.70075,0.5505 1.0252,0.82973c0.32711,0.27924 0.59039,0.53188 0.78984,0.75793l-1.29646,1.37624c-0.19946,-0.23935 -0.4521,-0.50529 -0.75793,-0.79782c-0.30583,-0.29254 -0.63826,-0.58507 -0.99728,-0.8776c-0.35902,-0.29254 -0.69809,-0.55848 -1.01722,-0.79782M300.96045,187.72524c0.27924,-0.50529 0.57842,-1.10764 0.89755,-1.80707c0.31913,-0.69676 0.64225,-1.43475 0.96935,-2.21396c0.32445,-0.77655 0.62629,-1.54379 0.90553,-2.30172l1.59564,1.1369c-0.23935,0.69145 -0.50263,1.40284 -0.78984,2.13417c-0.28456,0.73134 -0.57709,1.45204 -0.8776,2.1621c-0.29785,0.71272 -0.59305,1.38821 -0.88558,2.02647l-1.81505,-1.1369M307.84167,170.97098h1.85494v6.28285h-1.85494v-6.28285M305.48809,172.94559h6.38258v1.71532h-6.38258v-1.71532M307.14357,178.01176v2.51314h3.1514v-2.51314h-3.1514M305.72744,176.35628h6.06345v5.8241h-6.06345v-5.8241M307.74194,181.04348l1.15684,0.47869c-0.21275,0.78452 -0.488,1.59165 -0.82575,2.42139c-0.3404,0.83239 -0.7207,1.61426 -1.14089,2.3456c-0.41753,0.73134 -0.85234,1.33635 -1.30444,1.81505c-0.07978,-0.26594 -0.21009,-0.58241 -0.39093,-0.94941c-0.17818,-0.36434 -0.3404,-0.67283 -0.48667,-0.92547c0.41221,-0.38561 0.80713,-0.8683 1.18477,-1.44805c0.3803,-0.57709 0.73001,-1.1954 1.04914,-1.85494c0.31913,-0.65687 0.57177,-1.28449 0.75793,-1.88286M308.1209,177.25383h1.29646v3.90933h0.23935v8.23751h-1.77515v-8.23751h0.23935v-3.90933M314.30402,172.32727h2.51314v1.55575h-3.74976l1.23662,-1.55575M313.88517,170.83136l1.69537,0.23935c-0.23935,0.9042 -0.53188,1.8443 -0.8776,2.8203c-0.34572,0.97866 -0.78452,1.91344 -1.31641,2.80434c-0.18616,-0.15956 -0.42285,-0.32578 -0.71006,-0.49864c-0.28456,-0.17286 -0.54651,-0.29918 -0.78585,-0.37897c0.33243,-0.51858 0.62496,-1.06775 0.8776,-1.6475c0.25264,-0.57709 0.4747,-1.15551 0.66618,-1.73526c0.19414,-0.57709 0.34439,-1.11163 0.45077,-1.60362M316.61771,172.32727h0.37897l0.25929,-0.09973l1.15684,0.71804c-0.13297,0.4521 -0.29652,0.93079 -0.49066,1.43608c-0.19148,0.50529 -0.38694,0.99728 -0.5864,1.47597c-0.19946,0.47869 -0.39226,0.91085 -0.57842,1.29646c-0.15956,-0.10638 -0.36567,-0.23669 -0.61831,-0.39093c-0.25264,-0.15159 -0.48534,-0.27392 -0.69809,-0.367c0.15956,-0.34572 0.31248,-0.74463 0.45875,-1.19673c0.14627,-0.4521 0.28589,-0.9042 0.41886,-1.3563c0.13297,-0.4521 0.2327,-0.85101 0.29918,-1.19673v-0.31913M308.55971,182.91836l1.09701,-0.9175c0.31913,0.33243 0.64225,0.69145 0.96935,1.07706c0.32445,0.38561 0.62895,0.76458 0.91351,1.1369c0.28722,0.37232 0.51061,0.70474 0.67017,0.99728l-1.15684,1.05711c-0.15956,-0.30583 -0.37897,-0.65156 -0.6582,-1.03717c-0.27924,-0.38561 -0.57842,-0.78187 -0.89755,-1.18875c-0.31913,-0.40423 -0.63161,-0.77921 -0.93744,-1.12493M312.50892,176.17677h6.24296v8.99544h-1.59564v-7.43969h-3.11151v7.49953h-1.53581v-9.05528M314.94228,178.5104h1.43608c0,1.60894 -0.04255,3.00779 -0.12765,4.19654c-0.08776,1.19141 -0.26461,2.21928 -0.53055,3.08358c-0.26594,0.86431 -0.6715,1.5983 -1.21668,2.20199c-0.54518,0.60634 -1.28981,1.12892 -2.2339,1.56772c-0.06648,-0.19946 -0.19946,-0.42949 -0.39891,-0.69012c-0.19946,-0.25796 -0.38561,-0.46008 -0.55848,-0.60634c0.85101,-0.37232 1.51985,-0.81511 2.00652,-1.32837c0.48401,-0.51061 0.83904,-1.13557 1.06509,-1.87488c0.22605,-0.73666 0.37232,-1.64085 0.4388,-2.71259c0.06648,-1.06908 0.10638,-2.34826 0.11967,-3.83752M315.38108,186.44872l1.21668,-0.95739c0.30583,0.27924 0.62762,0.58773 0.96536,0.92547c0.3404,0.3404 0.66352,0.67017 0.96935,0.9893c0.30583,0.31913 0.55848,0.60501 0.75793,0.85766l-1.27652,1.09701c-0.18616,-0.26594 -0.4255,-0.56911 -0.71804,-0.90952c-0.29254,-0.33774 -0.60768,-0.68347 -0.94542,-1.03717c-0.3404,-0.35104 -0.66352,-0.67283 -0.96935,-0.96536zM322.88061,173.90297h2.25385v4.48775c0,0.82442 -0.0359,1.72463 -0.10771,2.70063c-0.07446,0.97866 -0.20743,1.97594 -0.39891,2.99183c-0.19414,1.01855 -0.48002,2.00652 -0.85766,2.96391c-0.3803,0.95739 -0.86963,1.82169 -1.46799,2.59292c-0.11967,-0.13297 -0.29519,-0.28589 -0.52656,-0.45875c-0.23403,-0.17286 -0.4747,-0.33642 -0.72203,-0.49066c-0.24467,-0.15159 -0.45343,-0.26727 -0.62629,-0.34705c0.55848,-0.71804 1.00393,-1.49991 1.33635,-2.3456c0.33243,-0.84303 0.57842,-1.71 0.73799,-2.6009c0.15956,-0.8909 0.26195,-1.76585 0.30716,-2.62483c0.04787,-0.85633 0.0718,-1.65016 0.0718,-2.3815v-4.48775M328.34569,171.29011l2.13417,-0.51858c0.22605,0.4388 0.44545,0.9175 0.6582,1.43608c0.21275,0.51858 0.37897,0.97733 0.49864,1.37624l-2.19401,0.63826c-0.10638,-0.39891 -0.26594,-0.87096 -0.47869,-1.41613c-0.21275,-0.54518 -0.41886,-1.05047 -0.61831,-1.51586M324.29675,173.90297h12.74521v8.4968h-2.19401v-6.50225h-10.5512v-1.99456M324.33664,179.28827h11.62826v1.99456h-11.62826zM348.61037,179.52762l1.61559,-1.17679c0.4521,0.41221 0.93744,0.85766 1.45603,1.33635c0.51858,0.47869 1.03052,0.96403 1.53581,1.45603c0.50529,0.49199 0.97733,0.97068 1.41613,1.43608c0.4388,0.4654 0.80447,0.88425 1.09701,1.25657l-1.77515,1.39619c-0.26594,-0.38561 -0.60768,-0.81511 -1.0252,-1.28848c-0.42019,-0.47072 -0.87362,-0.96536 -1.36029,-1.48395c-0.48401,-0.51858 -0.98265,-1.02786 -1.49592,-1.52783c-0.51061,-0.49731 -0.99861,-0.96536 -1.464,-1.40417M348.7101,170.87125h2.19401v4.54759c0,0.65156 -0.03989,1.33236 -0.11967,2.04242c-0.07978,0.71272 -0.22871,1.43076 -0.44678,2.15412c-0.22073,0.72602 -0.53321,1.4414 -0.93744,2.14614c-0.40689,0.70474 -0.93611,1.38289 -1.58767,2.03445c-0.65156,0.65156 -1.44938,1.25657 -2.39347,1.81505c-0.09308,-0.15956 -0.22871,-0.33907 -0.40689,-0.53853c-0.18084,-0.19946 -0.37099,-0.39891 -0.57044,-0.59837c-0.19946,-0.19946 -0.38561,-0.35902 -0.55848,-0.47869c0.9042,-0.47869 1.65282,-0.99462 2.24587,-1.54777c0.59039,-0.5505 1.05844,-1.12892 1.40417,-1.73526c0.34572,-0.60369 0.60236,-1.21136 0.7699,-1.82302c0.16488,-0.61166 0.27392,-1.21402 0.32711,-1.80707c0.05319,-0.59039 0.07978,-1.15152 0.07978,-1.6834v-4.52764M341.64938,174.2221h15.17856v2.09428h-13.04439v13.2239h-2.13417v-15.31818M355.87055,174.2221h2.11423v12.76515c0,0.59837 -0.07313,1.06376 -0.2194,1.39619c-0.14627,0.33243 -0.41886,0.58507 -0.81777,0.75793c-0.39891,0.17286 -0.91351,0.27525 -1.54379,0.30716c-0.63294,0.03457 -1.40151,0.05186 -2.30571,0.05186c-0.0133,-0.19946 -0.05984,-0.42949 -0.13962,-0.69012c-0.07978,-0.25796 -0.16621,-0.51326 -0.25929,-0.76591c-0.09308,-0.25264 -0.19281,-0.47869 -0.29918,-0.67815c0.41221,0.0133 0.82176,0.02659 1.22865,0.03989c0.40423,0.0133 0.76591,0.01995 1.08504,0.01995c0.31913,0 0.53853,0 0.6582,0c0.19946,-0.0133 0.33243,-0.05319 0.39891,-0.11967c0.06648,-0.06648 0.09973,-0.18616 0.09973,-0.35902zM367.99745,176.35628h1.99456c-0.09308,0.83771 -0.19281,1.71798 -0.29918,2.64079c-0.10638,0.92547 -0.22206,1.84297 -0.34705,2.75249c-0.12765,0.91218 -0.24732,1.77648 -0.35902,2.59292c-0.11435,0.8191 -0.22472,1.54113 -0.3311,2.16609h-2.07434c0.13297,-0.65156 0.26594,-1.39353 0.39891,-2.22592c0.13297,-0.82973 0.26328,-1.70069 0.39093,-2.61287c0.12499,-0.90952 0.24068,-1.82036 0.34705,-2.73254c0.10638,-0.90952 0.19946,-1.76983 0.27924,-2.58095M370.98928,178.66996l1.11695,-0.71804c0.35902,0.27924 0.73134,0.60501 1.11695,0.97733c0.38561,0.37232 0.6848,0.69809 0.89755,0.97733l-1.17679,0.81777c-0.18616,-0.29254 -0.46806,-0.6356 -0.84569,-1.02919c-0.3803,-0.39093 -0.74995,-0.73267 -1.10897,-1.0252M370.45075,182.79869l1.17679,-0.73799c0.39891,0.30583 0.81511,0.6582 1.24859,1.05711c0.43082,0.39891 0.76591,0.75793 1.00526,1.07706l-1.21668,0.83771c-0.22605,-0.30583 -0.55183,-0.6715 -0.97733,-1.09701c-0.4255,-0.4255 -0.83771,-0.80447 -1.23662,-1.1369M368.27669,172.94559h10.31185v1.93472h-10.31185v-1.93472M368.83516,176.35628h7.59925v1.83499h-7.59925v-1.83499M365.48431,180.34539h13.62281v1.93472h-13.62281v-1.93472M367.65837,184.67357h10.93016v1.83499h-10.93016v-1.83499M368.39636,170.8513l2.07434,0.53853c-0.26594,0.82442 -0.58773,1.64484 -0.96536,2.46128c-0.3803,0.8191 -0.7832,1.58767 -1.2087,2.30571c-0.4255,0.71804 -0.85766,1.34965 -1.29646,1.89483c-0.13297,-0.11967 -0.31514,-0.25264 -0.54651,-0.39891c-0.23403,-0.14627 -0.46407,-0.29254 -0.69012,-0.4388c-0.22605,-0.14627 -0.4255,-0.26594 -0.59837,-0.35902c0.4521,-0.47869 0.88159,-1.04116 1.28848,-1.68739c0.40423,-0.64358 0.77256,-1.33502 1.10498,-2.07434c0.33243,-0.73666 0.61166,-1.48395 0.83771,-2.24188M375.8161,176.35628h1.99456c0,0 -0.00266,0.05984 -0.00798,0.17951c-0.00798,0.11967 -0.01197,0.24866 -0.01197,0.38694c0,0.14095 -0.00665,0.25796 -0.01995,0.35104c-0.07978,1.90148 -0.15956,3.51308 -0.23935,4.8348c-0.07978,1.32438 -0.16887,2.41208 -0.26727,3.26309c-0.10106,0.85101 -0.21408,1.51586 -0.33907,1.99456c-0.12765,0.47869 -0.27791,0.82442 -0.45077,1.03717c-0.22605,0.30583 -0.46141,0.5146 -0.70607,0.62629c-0.24732,0.11435 -0.53055,0.19813 -0.84968,0.25131c-0.29254,0.03989 -0.66485,0.05984 -1.11695,0.05984c-0.4521,0 -0.92414,-0.0133 -1.41613,-0.03989c-0.0133,-0.26594 -0.06648,-0.56512 -0.15956,-0.89755c-0.09308,-0.33243 -0.2194,-0.62496 -0.37897,-0.8776c0.4654,0.03989 0.8909,0.06648 1.27652,0.07978c0.38561,0.0133 0.6715,0.01995 0.85766,0.01995c0.17286,0 0.31248,-0.02393 0.41886,-0.0718c0.10638,-0.04521 0.21275,-0.12765 0.31913,-0.24732c0.13297,-0.14627 0.25264,-0.44279 0.35902,-0.88957c0.10638,-0.44412 0.2061,-1.07573 0.29918,-1.89483c0.09308,-0.81644 0.17685,-1.86026 0.25131,-3.13145c0.0718,-1.26854 0.1343,-2.807 0.18749,-4.6154v-0.41886M361.61487,172.62646l1.19673,-1.45603c0.38561,0.17286 0.80181,0.37897 1.24859,0.61831c0.44412,0.23935 0.86963,0.48534 1.27652,0.73799c0.40423,0.25264 0.73267,0.48534 0.98531,0.69809l-1.25657,1.61559c-0.23935,-0.21275 -0.55449,-0.45609 -0.94542,-0.73001c-0.39359,-0.27126 -0.81245,-0.5372 -1.25657,-0.79782c-0.44678,-0.25796 -0.86298,-0.48667 -1.24859,-0.68613M360.49792,178.33089l1.15684,-1.43608c0.38561,0.17286 0.78851,0.37498 1.2087,0.60634c0.41753,0.23403 0.81644,0.47072 1.19673,0.71006c0.37764,0.23935 0.68613,0.4654 0.92547,0.67815l-1.23662,1.63554c-0.21275,-0.22605 -0.50529,-0.47205 -0.8776,-0.73799c-0.37232,-0.26594 -0.76724,-0.52523 -1.18477,-0.77788c-0.42019,-0.25264 -0.81644,-0.47869 -1.18875,-0.67815M361.0564,188.00448c0.26594,-0.51858 0.56246,-1.13025 0.88957,-1.83499c0.32445,-0.70474 0.65022,-1.45603 0.97733,-2.25385c0.32445,-0.79782 0.62629,-1.58235 0.90553,-2.35358l1.63554,1.15684c-0.23935,0.70474 -0.5013,1.42943 -0.78585,2.17407c-0.28722,0.74463 -0.57975,1.48262 -0.8776,2.21396c-0.30051,0.73134 -0.59704,1.41613 -0.88957,2.05439zM387.48425,180.70441h10.09245v8.73615h-2.15412v-6.76154h-5.86399v6.84132h-2.07434v-8.81593M388.70093,186.40883h7.71893v1.99456h-7.71893v-1.99456M389.17962,171.80869h6.12328v1.99456h-6.12328v-1.99456M388.48153,171.80869h2.07434v2.29374c0,0.73134 -0.09574,1.49858 -0.28722,2.30172c-0.19414,0.8058 -0.55316,1.58102 -1.07706,2.32565c-0.52656,0.74463 -1.29513,1.39619 -2.30571,1.95466c-0.06648,-0.14627 -0.18882,-0.32578 -0.367,-0.53853c-0.18084,-0.21275 -0.36434,-0.42285 -0.5505,-0.63028c-0.18616,-0.20477 -0.34572,-0.36035 -0.47869,-0.46673c0.8776,-0.4654 1.52916,-0.98132 1.95466,-1.54777c0.4255,-0.56379 0.70474,-1.14487 0.83771,-1.74324c0.13297,-0.59837 0.19946,-1.17014 0.19946,-1.71532v-2.2339M394.26574,171.80869h2.09428v5.40524c0,0.30583 0.01729,0.52523 0.05186,0.6582c0.03191,0.13297 0.121,0.19946 0.26727,0.19946c0.07978,0 0.17951,0 0.29918,0c0.11967,0 0.24334,0 0.37099,0c0.12499,0 0.22738,0 0.30716,0c0.13297,0 0.30317,-0.01064 0.51061,-0.03191c0.20477,-0.01862 0.37365,-0.04787 0.50662,-0.08776c0.0133,0.26594 0.03058,0.54784 0.05186,0.84569c0.01862,0.30051 0.04787,0.57709 0.08776,0.82973c-0.13297,0.05319 -0.30184,0.08909 -0.50662,0.10771c-0.20743,0.02128 -0.41088,0.03191 -0.61033,0.03191c-0.10638,0 -0.24201,0 -0.40689,0c-0.16754,0 -0.33375,0 -0.49864,0c-0.16754,0 -0.3045,0 -0.41088,0c-0.58507,0 -1.03052,-0.09308 -1.33635,-0.27924c-0.30583,-0.18616 -0.51194,-0.47205 -0.61831,-0.85766c-0.10638,-0.38561 -0.15956,-0.87096 -0.15956,-1.45603v-5.36535M381.30113,172.70624l1.3563,-1.37624c0.41221,0.21275 0.855,0.46141 1.32837,0.74596c0.47072,0.28722 0.91883,0.5731 1.34433,0.85766c0.4255,0.28722 0.77788,0.55715 1.05711,0.80979l-1.43608,1.53581c-0.25264,-0.25264 -0.58507,-0.53188 -0.99728,-0.83771c-0.41221,-0.30583 -0.85101,-0.61166 -1.31641,-0.9175c-0.4654,-0.30583 -0.91085,-0.57842 -1.33635,-0.81777M380.26396,178.11148l1.33635,-1.39619c0.41221,0.19946 0.85101,0.42817 1.31641,0.68613c0.4654,0.26062 0.9175,0.52656 1.3563,0.79782c0.4388,0.27392 0.79782,0.5239 1.07706,0.74995l-1.41613,1.55575c-0.26594,-0.23935 -0.60501,-0.50263 -1.01722,-0.78984c-0.41221,-0.28456 -0.85367,-0.57044 -1.32438,-0.85766c-0.47337,-0.28456 -0.91616,-0.53321 -1.32837,-0.74596M380.74266,187.74519c0.37232,-0.49199 0.79117,-1.07706 1.25657,-1.75521c0.4654,-0.67815 0.94143,-1.40284 1.4281,-2.17407c0.48401,-0.77123 0.93877,-1.53581 1.36428,-2.29374l1.55575,1.53581c-0.37232,0.67815 -0.77389,1.37624 -1.20471,2.09428c-0.43348,0.71804 -0.86564,1.42943 -1.29646,2.13417c-0.43348,0.70474 -0.86963,1.37624 -1.30843,2.0145zM401.96472,177.13415h2.13417v3.8096c0,0.62496 -0.02925,1.29912 -0.08776,2.02248c-0.06117,0.72602 -0.16754,1.464 -0.31913,2.21396c-0.15424,0.75261 -0.37764,1.4773 -0.67017,2.17407c-0.29254,0.69942 -0.6715,1.32837 -1.1369,1.88685c-0.10638,-0.14627 -0.26594,-0.30982 -0.47869,-0.49066c-0.21275,-0.17818 -0.43481,-0.35104 -0.66618,-0.51858c-0.23403,-0.16488 -0.43082,-0.28722 -0.59039,-0.367c0.55848,-0.67815 0.96403,-1.42278 1.21668,-2.2339c0.25264,-0.81112 0.4162,-1.62623 0.49066,-2.44532c0.0718,-0.81644 0.10771,-1.57703 0.10771,-2.28177v-3.76971M403.14151,177.13415h15.25835v1.89483h-15.25835v-1.89483M405.43525,180.28555h12.30641v1.81505h-12.30641v-1.81505M404.51775,183.77602h14.18129v1.89483h-14.18129v-1.89483M410.34185,180.84402h2.25385v8.65637h-2.25385v-8.65637M402.02456,171.60923h2.17407v2.37352h10.99v-2.37352h2.25385v4.26835h-15.41791v-4.26835M408.50686,170.87125h2.27379v4.00906h-2.27379z" fill="#ffffff" stroke-width="1"/><path d="M240,196v-32h208v32z" fill="none" stroke-width="0"/></g></g></svg>