<svg version="1.1" xmlns="http://www.w3.org/2000/svg" xmlns:xlink="http://www.w3.org/1999/xlink" width="208" height="32" viewBox="0,0,208,32"><g transform="translate(-240,-164)"><g stroke="none" stroke-miterlimit="10"><path d="M240.34333,172.28003h14.48269v2.08464h-14.48269v-2.08464M243.8741,181.07722h7.4375v1.7511h-7.4375v-1.7511M243.53083,184.41265h8.12404v1.81364h-8.12404v-1.81364M246.70198,181.93192h1.66731v7.44217h-1.66731v-7.44217M241.02987,176.11577h11.83461v2.06379h-10.06923v11.69484h-1.76538v-13.75863M252.35775,176.11577h1.79808v11.44468c0,0.5698 -0.06212,1.00341 -0.18635,1.30082c-0.12641,0.30019 -0.34763,0.52672 -0.66365,0.67959c-0.31603,0.15287 -0.71378,0.24599 -1.19327,0.27934c-0.47949,0.03613 -1.04615,0.0542 -1.7,0.0542c-0.04359,-0.27795 -0.12205,-0.60177 -0.23538,-0.97144c-0.11551,-0.3669 -0.23321,-0.68237 -0.35308,-0.94643c0.29423,0.0139 0.58846,0.02779 0.88269,0.04169c0.29423,0.0139 0.55904,0.01668 0.79442,0.00834c0.23321,-0.00556 0.38795,-0.00834 0.46423,-0.00834c0.15256,-0.0139 0.25609,-0.05281 0.31058,-0.11674c0.05449,-0.06115 0.08173,-0.16816 0.08173,-0.32103v-11.44468M244.56064,178.76327l1.38942,-0.52116c0.19615,0.34744 0.38468,0.73657 0.56558,1.1674c0.17872,0.43083 0.31167,0.81301 0.39885,1.14655l-1.47115,0.62539c-0.06538,-0.33354 -0.18526,-0.72962 -0.35962,-1.18825c-0.17436,-0.45862 -0.34872,-0.8686 -0.52308,-1.22994M249.26833,178.26295l1.4875,0.54201c-0.21795,0.50031 -0.4359,0.99368 -0.65385,1.4801c-0.21795,0.48642 -0.43045,0.91029 -0.6375,1.27163l-1.24231,-0.47947c0.13077,-0.26406 0.25827,-0.56285 0.3825,-0.8964c0.12641,-0.33354 0.24955,-0.66709 0.36942,-1.00063c0.11987,-0.33354 0.21795,-0.63929 0.29423,-0.91724M246.6366,170.54978h1.92885v7.00439h-1.92885zM262.50871,176.17831h1.63462c-0.07628,0.87555 -0.15801,1.79557 -0.24519,2.76006c-0.08718,0.96727 -0.18308,1.92621 -0.28769,2.8768c-0.10244,0.95338 -0.19942,1.85672 -0.29096,2.71003c-0.09372,0.85609 -0.18417,1.61073 -0.27135,2.26392h-1.7c0.10897,-0.68098 0.21795,-1.45647 0.32692,-2.32646c0.10897,-0.86721 0.21468,-1.7775 0.31712,-2.73088c0.10462,-0.9506 0.20051,-1.90258 0.28769,-2.85596c0.08718,-0.9506 0.16346,-1.84977 0.22885,-2.69753M264.96064,178.5965l0.91538,-0.75047c0.29423,0.29185 0.59936,0.63234 0.91538,1.02147c0.31603,0.38913 0.56122,0.72962 0.73558,1.02147l-0.96442,0.8547c-0.15256,-0.30575 -0.38359,-0.66431 -0.69308,-1.07567c-0.31167,-0.40859 -0.61462,-0.76576 -0.90885,-1.07151M264.51929,182.9117l0.96442,-0.77132c0.32692,0.31964 0.66801,0.68793 1.02327,1.10486c0.35308,0.41693 0.62769,0.79216 0.82385,1.12571l-0.99712,0.87555c-0.18526,-0.31964 -0.45224,-0.70183 -0.80096,-1.14655c-0.34872,-0.44472 -0.68654,-0.8408 -1.01346,-1.18825M262.73756,172.61358h8.45096v2.0221h-8.45096v-2.0221M263.19525,176.17831h6.22788v1.91787h-6.22788v-1.91787M260.4491,180.3476h11.16442v2.0221h-11.16442v-2.0221M262.23083,184.87127h8.95769v1.91787h-8.95769v-1.91787M262.83564,170.4247l1.7,0.56285c-0.21795,0.86165 -0.48167,1.71913 -0.79115,2.57245c-0.31167,0.85609 -0.64186,1.65937 -0.99058,2.40985c-0.34872,0.75047 -0.70288,1.41061 -1.0625,1.98041c-0.10897,-0.12508 -0.25936,-0.26406 -0.45115,-0.41693c-0.18962,-0.15287 -0.37705,-0.30575 -0.56231,-0.45862c-0.18526,-0.15287 -0.34872,-0.27795 -0.49038,-0.37524c0.37051,-0.50031 0.72141,-1.08818 1.05269,-1.76361c0.33346,-0.67264 0.63641,-1.39532 0.90885,-2.16803c0.27244,-0.76993 0.50128,-1.55097 0.68654,-2.34314M268.9164,176.17831h1.63462c0,0 -0.00218,0.06254 -0.00654,0.18762c-0.00654,0.12508 -0.00981,0.25989 -0.00981,0.40442c0,0.14732 -0.00545,0.26961 -0.01635,0.3669c-0.06538,1.98736 -0.13077,3.67175 -0.19615,5.05317c-0.06538,1.3842 -0.1384,2.52103 -0.21904,3.41047c-0.08282,0.88945 -0.17545,1.58433 -0.27788,2.08464c-0.10462,0.50031 -0.22776,0.86165 -0.36942,1.08401c-0.18526,0.31964 -0.37814,0.53784 -0.57865,0.65458c-0.20269,0.11952 -0.43481,0.20707 -0.69635,0.26266c-0.23974,0.04169 -0.54487,0.06254 -0.91538,0.06254c-0.37051,0 -0.75737,-0.0139 -1.16058,-0.04169c-0.0109,-0.27795 -0.05449,-0.59065 -0.13077,-0.93809c-0.07628,-0.34744 -0.17981,-0.65319 -0.31058,-0.91724c0.38141,0.04169 0.73013,0.06949 1.04615,0.08339c0.31603,0.0139 0.55032,0.02085 0.70288,0.02085c0.14167,0 0.25609,-0.02502 0.34327,-0.07505c0.08718,-0.04725 0.17436,-0.13342 0.26154,-0.2585c0.10897,-0.15287 0.20705,-0.46279 0.29423,-0.92975c0.08718,-0.46418 0.16891,-1.12432 0.24519,-1.98041c0.07628,-0.85331 0.14494,-1.94428 0.20596,-3.27289c0.05885,-1.32583 0.11006,-2.93378 0.15365,-4.82386v-0.43777M257.27794,172.28003l0.98077,-1.52179c0.31603,0.18067 0.65603,0.39608 1.02,0.64624c0.36615,0.25016 0.71596,0.50726 1.04942,0.77132c0.33128,0.26406 0.60045,0.50726 0.8075,0.72962l-1.02981,1.68856c-0.19615,-0.22236 -0.45442,-0.47669 -0.77481,-0.76298c-0.32256,-0.28351 -0.66692,-0.56146 -1.03308,-0.83386c-0.36397,-0.26961 -0.70397,-0.50865 -1.02,-0.71712M256.36256,178.24211l0.94808,-1.50094c0.31603,0.18067 0.64513,0.39191 0.98731,0.63373c0.34436,0.2446 0.67128,0.49198 0.98077,0.74213c0.31167,0.25016 0.56558,0.48642 0.76173,0.70878l-1.01346,1.70941c-0.17436,-0.23626 -0.4141,-0.49337 -0.71923,-0.77132c-0.30513,-0.27795 -0.62878,-0.54895 -0.97096,-0.81301c-0.34436,-0.26406 -0.6691,-0.50031 -0.97423,-0.70878M256.82025,188.35262c0.21795,-0.54201 0.46096,-1.1813 0.72904,-1.91787c0.2659,-0.73657 0.53288,-1.52179 0.80096,-2.35564c0.2659,-0.83386 0.51327,-1.65381 0.74212,-2.45988l1.34038,1.20909c-0.19615,0.73657 -0.41083,1.49399 -0.64404,2.27226c-0.23538,0.77827 -0.47622,1.54958 -0.7225,2.31395c-0.2441,0.76437 -0.48603,1.4801 -0.72577,2.14718zM277.2039,173.00966h10.46154v1.81364h-10.46154v-1.81364M281.38852,173.82267l2.02692,0.16677c-0.16346,0.5559 -0.34545,1.09791 -0.54596,1.62602c-0.20269,0.52811 -0.38577,0.98673 -0.54923,1.37586l-1.42212,-0.29185c0.09808,-0.44472 0.19615,-0.93114 0.29423,-1.45925c0.09808,-0.52811 0.16346,-1.00063 0.19615,-1.41756M284.2491,170.44555l1.7,0.60455c-0.27244,0.51421 -0.5416,1.02147 -0.8075,1.52179c-0.26808,0.50031 -0.51654,0.92419 -0.74538,1.27163l-1.38942,-0.56285c0.14167,-0.26406 0.29205,-0.56285 0.45115,-0.8964c0.15692,-0.33354 0.30622,-0.67125 0.44788,-1.01314c0.14167,-0.3391 0.25609,-0.64763 0.34327,-0.92558M278.6914,171.09179l1.47115,-0.79216c0.21795,0.33354 0.43372,0.71156 0.64731,1.13404c0.21141,0.42527 0.36615,0.79077 0.46423,1.09652l-1.55288,0.87555c-0.08718,-0.31964 -0.22885,-0.69488 -0.425,-1.12571c-0.19615,-0.43083 -0.39776,-0.82691 -0.60481,-1.18825M276.58275,177.92941v8.38026h-1.68365v-6.31646h-2.02692v-2.06379h3.71058M272.92121,172.32173l1.35673,-1.08401c0.28333,0.33354 0.57756,0.70183 0.88269,1.10486c0.30513,0.40303 0.59173,0.80606 0.85981,1.20909c0.2659,0.40303 0.47513,0.77132 0.62769,1.10486l-1.43846,1.22994c-0.14167,-0.31964 -0.34,-0.68793 -0.595,-1.10486c-0.25718,-0.41693 -0.53288,-0.8408 -0.82712,-1.27163c-0.29423,-0.43083 -0.58301,-0.82691 -0.86635,-1.18825M275.86352,185.62174c0.28333,0 0.56122,0.11813 0.83365,0.35439c0.27244,0.23626 0.64295,0.50726 1.11154,0.81301c0.54487,0.34744 1.18564,0.57675 1.92231,0.68793c0.73449,0.11118 1.53763,0.16677 2.40942,0.16677c0.57756,0 1.21833,-0.01807 1.92231,-0.0542c0.70179,-0.03335 1.39596,-0.08478 2.0825,-0.15426c0.68654,-0.06949 1.29135,-0.14592 1.81442,-0.22931c-0.06538,0.19457 -0.13077,0.41971 -0.19615,0.67542c-0.06538,0.2585 -0.12532,0.51977 -0.17981,0.78383c-0.05449,0.26406 -0.08718,0.50031 -0.09808,0.70878c-0.28333,0.0139 -0.64513,0.03474 -1.08538,0.06254c-0.44244,0.02779 -0.92192,0.05559 -1.43846,0.08339c-0.51872,0.02779 -1.02872,0.04864 -1.53,0.06254c-0.50128,0.0139 -0.95353,0.02085 -1.35673,0.02085c-0.98077,0 -1.83622,-0.07644 -2.56635,-0.22931c-0.73013,-0.15287 -1.39487,-0.41693 -1.99423,-0.79216c-0.37051,-0.25016 -0.69199,-0.49337 -0.96442,-0.72962c-0.27244,-0.23626 -0.51218,-0.35439 -0.71923,-0.35439c-0.18526,0 -0.39776,0.11396 -0.6375,0.34188c-0.23974,0.2307 -0.49256,0.5295 -0.75846,0.8964c-0.26808,0.36968 -0.52744,0.75603 -0.77808,1.15906l-1.0625,-1.87618c0.57756,-0.68098 1.15295,-1.25078 1.72615,-1.70941c0.57103,-0.45862 1.08538,-0.68793 1.54308,-0.68793M279.9664,180.55606v1.31332h4.72404v-1.31332h-4.72404M279.9664,183.32863v1.31332h4.72404v-1.31332h-4.72404M279.9664,177.80433v1.31332h4.72404v-1.31332h-4.72404M278.31544,176.22001h8.09135v10.02712h-8.09135zM289.38179,172.28003h14.48269v2.08464h-14.48269v-2.08464M292.91256,181.07722h7.4375v1.7511h-7.4375v-1.7511M292.56929,184.41265h8.12404v1.81364h-8.12404v-1.81364M295.74044,181.93192h1.66731v7.44217h-1.66731v-7.44217M290.06833,176.11577h11.83461v2.06379h-10.06923v11.69484h-1.76538v-13.75863M301.39621,176.11577h1.79808v11.44468c0,0.5698 -0.06212,1.00341 -0.18635,1.30082c-0.12641,0.30019 -0.34763,0.52672 -0.66365,0.67959c-0.31603,0.15287 -0.71378,0.24599 -1.19327,0.27934c-0.47949,0.03613 -1.04615,0.0542 -1.7,0.0542c-0.04359,-0.27795 -0.12205,-0.60177 -0.23538,-0.97144c-0.11551,-0.3669 -0.23321,-0.68237 -0.35308,-0.94643c0.29423,0.0139 0.58846,0.02779 0.88269,0.04169c0.29423,0.0139 0.55904,0.01668 0.79442,0.00834c0.23321,-0.00556 0.38795,-0.00834 0.46423,-0.00834c0.15256,-0.0139 0.25609,-0.05281 0.31058,-0.11674c0.05449,-0.06115 0.08173,-0.16816 0.08173,-0.32103v-11.44468M293.5991,178.76327l1.38942,-0.52116c0.19615,0.34744 0.38468,0.73657 0.56558,1.1674c0.17872,0.43083 0.31167,0.81301 0.39885,1.14655l-1.47115,0.62539c-0.06538,-0.33354 -0.18526,-0.72962 -0.35962,-1.18825c-0.17436,-0.45862 -0.34872,-0.8686 -0.52308,-1.22994M298.30679,178.26295l1.4875,0.54201c-0.21795,0.50031 -0.4359,0.99368 -0.65385,1.4801c-0.21795,0.48642 -0.43045,0.91029 -0.6375,1.27163l-1.24231,-0.47947c0.13077,-0.26406 0.25936,-0.56285 0.38577,-0.8964c0.12423,-0.33354 0.24628,-0.66709 0.36615,-1.00063c0.11987,-0.33354 0.21795,-0.63929 0.29423,-0.91724M295.67506,170.54978h1.92885v7.00439h-1.92885zM314.83275,171.46702h4.26635v2.0221h-2.71346v16.34359h-1.55288v-18.36569M318.73948,171.46702h0.32692l0.26154,-0.08339l1.20962,0.95893c-0.27244,1.00063 -0.57756,2.05963 -0.91538,3.17699c-0.33782,1.12015 -0.66474,2.13884 -0.98077,3.05608c0.67564,0.95893 1.11481,1.85116 1.3175,2.67668c0.20051,0.8283 0.30077,1.58989 0.30077,2.28477c0,0.70878 -0.06212,1.31332 -0.18635,1.81364c-0.12641,0.50031 -0.33673,0.8825 -0.63096,1.14655c-0.14167,0.12508 -0.30513,0.22514 -0.49038,0.30019c-0.18526,0.07783 -0.38141,0.13759 -0.58846,0.17928c-0.18526,0.02779 -0.39231,0.04447 -0.62115,0.05003c-0.22885,0.00834 -0.45769,0.00556 -0.68654,-0.00834c-0.0109,-0.29185 -0.04904,-0.63929 -0.11442,-1.04232c-0.06538,-0.40303 -0.16891,-0.75047 -0.31058,-1.04232c0.20705,0.02779 0.39558,0.04447 0.56558,0.05003c0.16782,0.00834 0.32256,0.00556 0.46423,-0.00834c0.10897,0 0.21795,-0.01807 0.32692,-0.0542c0.10897,-0.03335 0.2016,-0.08478 0.27788,-0.15426c0.14167,-0.11118 0.24301,-0.29602 0.30404,-0.55451c0.05885,-0.25572 0.08827,-0.56424 0.08827,-0.92558c0,-0.5976 -0.11442,-1.27163 -0.34327,-2.0221c-0.22885,-0.75047 -0.67019,-1.55653 -1.32404,-2.41818c0.16346,-0.52811 0.33019,-1.09513 0.50019,-1.70107c0.16782,-0.60316 0.33128,-1.21465 0.49038,-1.83448c0.15692,-0.61705 0.30077,-1.19658 0.43154,-1.73859c0.13077,-0.54201 0.23974,-1.00063 0.32692,-1.37586v-0.72962M305.95679,172.80119h7.8625v2.00126h-7.8625v-2.00126M305.53179,178.40888h8.64712v2.0221h-8.64712v-2.0221M306.83948,175.26107l1.50385,-0.47947c0.22885,0.50031 0.43372,1.05205 0.61462,1.65521c0.17872,0.60594 0.30622,1.13127 0.3825,1.57599l-1.56923,0.56285c-0.06538,-0.45862 -0.18526,-0.99785 -0.35962,-1.61768c-0.17436,-0.61705 -0.36506,-1.18269 -0.57212,-1.6969M311.46544,174.71906l1.73269,0.47947c-0.15256,0.47252 -0.31058,0.95199 -0.47404,1.4384c-0.16346,0.48642 -0.32147,0.95199 -0.47404,1.39671c-0.15256,0.44472 -0.30513,0.8408 -0.45769,1.18825l-1.47115,-0.45862c0.14167,-0.37524 0.2866,-0.79911 0.43481,-1.27163c0.14603,-0.47252 0.28224,-0.95199 0.40865,-1.4384c0.12423,-0.48642 0.22449,-0.93114 0.30077,-1.33417M307.24813,186.93506h5.36154v1.95956h-5.36154v-1.95956M306.33275,182.057h7.17596v7.67148h-1.73269v-5.67022h-3.79231v5.7953h-1.65096v-7.79656M308.57217,170.86248l1.58558,-0.56285c0.17436,0.44472 0.34654,0.93114 0.51654,1.45925c0.16782,0.52811 0.28987,0.97978 0.36615,1.35502l-1.68365,0.66709c-0.06538,-0.37524 -0.17109,-0.83803 -0.31712,-1.38837c-0.14821,-0.54757 -0.30404,-1.05761 -0.4675,-1.53013zM327.89333,176.17831h1.63462c-0.07628,0.87555 -0.15801,1.79557 -0.24519,2.76006c-0.08718,0.96727 -0.18199,1.92621 -0.28442,2.8768c-0.10462,0.95338 -0.20378,1.85672 -0.2975,2.71003c-0.09154,0.85609 -0.1809,1.61073 -0.26808,2.26392h-1.7c0.10897,-0.68098 0.21795,-1.45647 0.32692,-2.32646c0.10897,-0.86721 0.21577,-1.7775 0.32038,-2.73088c0.10244,-0.9506 0.19724,-1.90258 0.28442,-2.85596c0.08718,-0.9506 0.16346,-1.84977 0.22885,-2.69753M330.34525,178.5965l0.91538,-0.75047c0.29423,0.29185 0.59936,0.63234 0.91538,1.02147c0.31603,0.38913 0.56122,0.72962 0.73558,1.02147l-0.96442,0.8547c-0.15256,-0.30575 -0.38468,-0.66431 -0.69635,-1.07567c-0.30949,-0.40859 -0.61135,-0.76576 -0.90558,-1.07151M329.9039,182.9117l0.96442,-0.77132c0.32692,0.31964 0.66692,0.68793 1.02,1.10486c0.35526,0.41693 0.63096,0.79216 0.82712,1.12571l-0.99712,0.87555c-0.18526,-0.31964 -0.45224,-0.70183 -0.80096,-1.14655c-0.34872,-0.44472 -0.68654,-0.8408 -1.01346,-1.18825M328.12217,172.61358h8.45096v2.0221h-8.45096v-2.0221M328.57986,176.17831h6.22788v1.91787h-6.22788v-1.91787M325.83371,180.3476h11.16442v2.0221h-11.16442v-2.0221M327.61544,184.87127h8.95769v1.91787h-8.95769v-1.91787M328.22025,170.4247l1.7,0.56285c-0.21795,0.86165 -0.48276,1.71913 -0.79442,2.57245c-0.30949,0.85609 -0.63859,1.65937 -0.98731,2.40985c-0.34872,0.75047 -0.70288,1.41061 -1.0625,1.98041c-0.10897,-0.12508 -0.25827,-0.26406 -0.44788,-0.41693c-0.19179,-0.15287 -0.38032,-0.30575 -0.56558,-0.45862c-0.18526,-0.15287 -0.34872,-0.27795 -0.49038,-0.37524c0.37051,-0.50031 0.7225,-1.08818 1.05596,-1.76361c0.33128,-0.67264 0.63314,-1.39532 0.90558,-2.16803c0.27244,-0.76993 0.50128,-1.55097 0.68654,-2.34314M334.30102,176.17831h1.63462c0,0 -0.00218,0.06254 -0.00654,0.18762c-0.00654,0.12508 -0.00981,0.25989 -0.00981,0.40442c0,0.14732 -0.00545,0.26961 -0.01635,0.3669c-0.06538,1.98736 -0.13077,3.67175 -0.19615,5.05317c-0.06538,1.3842 -0.13949,2.52103 -0.22231,3.41047c-0.08064,0.88945 -0.17218,1.58433 -0.27462,2.08464c-0.10462,0.50031 -0.22776,0.86165 -0.36942,1.08401c-0.18526,0.31964 -0.37923,0.53784 -0.58192,0.65458c-0.20051,0.11952 -0.43154,0.20707 -0.69308,0.26266c-0.23974,0.04169 -0.54487,0.06254 -0.91538,0.06254c-0.37051,0 -0.75737,-0.0139 -1.16058,-0.04169c-0.0109,-0.27795 -0.05449,-0.59065 -0.13077,-0.93809c-0.07628,-0.34744 -0.17981,-0.65319 -0.31058,-0.91724c0.38141,0.04169 0.73013,0.06949 1.04615,0.08339c0.31603,0.0139 0.55032,0.02085 0.70288,0.02085c0.14167,0 0.25609,-0.02502 0.34327,-0.07505c0.08718,-0.04725 0.17436,-0.13342 0.26154,-0.2585c0.10897,-0.15287 0.20705,-0.46279 0.29423,-0.92975c0.08718,-0.46418 0.16891,-1.12432 0.24519,-1.98041c0.07628,-0.85331 0.14494,-1.94428 0.20596,-3.27289c0.05885,-1.32583 0.11006,-2.93378 0.15365,-4.82386v-0.43777M322.66256,172.28003l0.98077,-1.52179c0.31603,0.18067 0.65712,0.39608 1.02327,0.64624c0.36397,0.25016 0.71269,0.50726 1.04615,0.77132c0.33128,0.26406 0.60045,0.50726 0.8075,0.72962l-1.02981,1.68856c-0.19615,-0.22236 -0.45551,-0.47669 -0.77808,-0.76298c-0.32038,-0.28351 -0.66256,-0.56146 -1.02654,-0.83386c-0.36615,-0.26961 -0.70724,-0.50865 -1.02327,-0.71712M321.74717,178.24211l0.94808,-1.50094c0.31603,0.18067 0.64622,0.39191 0.99058,0.63373c0.34218,0.2446 0.6691,0.49198 0.98077,0.74213c0.30949,0.25016 0.56231,0.48642 0.75846,0.70878l-1.01346,1.70941c-0.17436,-0.23626 -0.4141,-0.49337 -0.71923,-0.77132c-0.30513,-0.27795 -0.62987,-0.54895 -0.97423,-0.81301c-0.34218,-0.26406 -0.66583,-0.50031 -0.97096,-0.70878M322.20486,188.35262c0.21795,-0.54201 0.46096,-1.1813 0.72904,-1.91787c0.2659,-0.73657 0.53288,-1.52179 0.80096,-2.35564c0.2659,-0.83386 0.51327,-1.65381 0.74212,-2.45988l1.34038,1.20909c-0.19615,0.73657 -0.41083,1.49399 -0.64404,2.27226c-0.23538,0.77827 -0.47622,1.54958 -0.7225,2.31395c-0.2441,0.76437 -0.48603,1.4801 -0.72577,2.14718zM338.09332,175.46953h4.49519v2.10549h-4.49519v-2.10549M339.64621,170.71655h1.63462v13.98794h-1.63462v-13.98794M337.96256,185.07973c0.57756,-0.30575 1.275,-0.71573 2.09231,-1.22994c0.81731,-0.51421 1.64006,-1.04232 2.46827,-1.58433l0.49038,1.98041c-0.73013,0.52811 -1.47987,1.06317 -2.24923,1.60517c-0.76718,0.54201 -1.48314,1.03537 -2.14788,1.4801l-0.65385,-2.25141M342.85006,173.38489h10.26538v2.0221h-10.26538v-2.0221M342.34332,185.53835c0.47949,-0.11118 1.02654,-0.25711 1.64115,-0.43777c0.61679,-0.18067 1.27391,-0.37246 1.97135,-0.57536c0.69744,-0.20013 1.39487,-0.41137 2.09231,-0.63373l0.16346,1.87618c-0.94808,0.33354 -1.89942,0.66292 -2.85404,0.98812c-0.95244,0.32798 -1.82096,0.624 -2.60558,0.88806l-0.40865,-2.10549M348.12986,170.4664h1.68365c-0.0109,1.45925 0,2.90043 0.03269,4.32355c0.03269,1.42589 0.08936,2.78508 0.17,4.07756c0.08282,1.29248 0.18417,2.48072 0.30404,3.56474c0.11987,1.08401 0.25609,2.02905 0.40865,2.83511c0.15256,0.80606 0.31821,1.42728 0.49692,1.86367c0.1809,0.43917 0.36942,0.65875 0.56558,0.65875c0.13077,0 0.23103,-0.20846 0.30077,-0.62539c0.07192,-0.41693 0.11878,-1.11181 0.14058,-2.08464c0.16346,0.25016 0.35635,0.48225 0.57865,0.69627c0.22449,0.2168 0.42936,0.38774 0.61462,0.51282c-0.07628,0.91724 -0.18526,1.63992 -0.32692,2.16803c-0.14167,0.52811 -0.33455,0.89917 -0.57865,1.1132c-0.24628,0.2168 -0.56558,0.3252 -0.95788,0.3252c-0.45769,0 -0.8609,-0.25433 -1.20962,-0.76298c-0.34872,-0.50587 -0.6484,-1.21743 -0.89904,-2.13467c-0.25064,-0.91724 -0.46096,-1.99153 -0.63096,-3.22286c-0.16782,-1.22855 -0.2975,-2.56967 -0.38904,-4.02336c-0.09372,-1.45091 -0.16564,-2.96575 -0.21577,-4.54452c-0.04795,-1.57599 -0.07737,-3.15615 -0.08827,-4.74047M350.20582,171.55041l0.99712,-1.08401c0.32692,0.29185 0.67237,0.63234 1.03635,1.02147c0.36615,0.38913 0.64186,0.73657 0.82712,1.04232l-1.02981,1.22994c-0.19615,-0.31964 -0.46641,-0.68793 -0.81077,-1.10486c-0.34218,-0.41693 -0.68218,-0.78522 -1.02,-1.10486M351.30102,176.94963l1.56923,0.37524c-0.52308,2.76562 -1.27282,5.20049 -2.24923,7.30458c-0.97423,2.10688 -2.18603,3.82045 -3.63538,5.14072c-0.08718,-0.12508 -0.20705,-0.28212 -0.35962,-0.47113c-0.15256,-0.18623 -0.31058,-0.3669 -0.47404,-0.54201c-0.16346,-0.17233 -0.30513,-0.31409 -0.425,-0.42527c1.44936,-1.1535 2.62846,-2.70309 3.53731,-4.64875c0.91103,-1.94566 1.58994,-4.19013 2.03673,-6.73339M344.63179,178.70073v2.81427h1.50385v-2.81427h-1.50385M343.32409,176.97048h4.18462v6.29562h-4.18462z" fill="#ffffff" stroke-width="1"/><path d="M240,196v-32h208v32z" fill="none" stroke-width="0"/></g></g></svg>