<svg version="1.1" xmlns="http://www.w3.org/2000/svg" xmlns:xlink="http://www.w3.org/1999/xlink" width="224.37509" height="140" viewBox="0,0,224.37509,140"><g transform="translate(-128,-110)"><g stroke-miterlimit="10"><path d="M342.37509,140l10,2v99.998h-224v-99.998l10,-2z" fill="#1d2a41" fill-rule="evenodd" stroke="none" stroke-width="1" stroke-linecap="butt"/><path d="M138,110h204c5.54,0 10,4.46 10,10v22h-224v-22c0,-5.54 4.46,-10 10,-10z" fill="#e4e600" fill-rule="evenodd" stroke="none" stroke-width="1" stroke-linecap="butt"/><path d="M128,250v-140h224v140z" fill-opacity="0" fill="#000000" fill-rule="nonzero" stroke="none" stroke-width="1" stroke-linecap="butt"/><path d="M213.51676,127.77755v1.16986h-1.77199l-0.10323,2.66659h1.54835v1.18706h-1.58275l-0.01721,0.30967c-0.03441,0.52758 -0.12903,0.93474 -0.28386,1.22147c-0.15483,0.28673 -0.39569,0.49031 -0.72256,0.61074c-0.32687,0.12043 -0.78277,0.18064 -1.3677,0.18064h-2.56337l-0.25806,-1.20426h2.40854c0.57346,0 0.97201,-0.07742 1.19566,-0.23226c0.22365,-0.15483 0.34695,-0.43869 0.36989,-0.85158v-0.03441h-7.72451l0.43009,-3.85366h-1.34189v-1.16986h1.46232l0.37848,-3.42356c-0.34408,0.43583 -0.60787,0.75696 -0.79137,0.96341l-0.8774,-0.929c0.63081,-0.69962 1.23007,-1.49673 1.7978,-2.39133c0.56772,-0.8946 1.02936,-1.76053 1.38491,-2.59777l1.15266,0.39569c-0.19497,0.4473 -0.41863,0.91181 -0.67095,1.39351h7.53527v1.16986h-8.18901c-0.36702,0.60787 -0.69962,1.11251 -0.99782,1.51394h7.99977l-0.13763,3.90527zM203.96865,131.614h6.45143l0.03441,-0.63654c0.04587,-0.77991 0.07455,-1.45659 0.08602,-2.03005h-6.26218zM210.71254,125.04215h-5.98693l-0.30967,2.73541h6.17617c0.08029,-1.57128 0.12043,-2.48309 0.12043,-2.7354zM199.77092,135.27842l-1.23868,-0.37848l1.66877,-5.91811l1.16986,0.36128c-0.09176,0.32114 -0.58493,2.13901 -1.47953,5.45361zM201.81817,126.26362l-0.73977,1.08384c-1.39925,-1.21573 -2.32825,-1.99564 -2.78702,-2.33971l0.73976,-0.99782zM202.29988,122.15191l-0.70535,1.01502c-0.83725,-0.68815 -1.76053,-1.41645 -2.76982,-2.18488l0.73977,-0.98062c0.64228,0.48171 1.55408,1.19853 2.73541,2.15048zM208.80292,130.68499l-0.72256,0.8946c-0.25232,-0.22939 -0.59927,-0.51612 -1.04083,-0.86019c-0.44156,-0.34408 -0.83438,-0.64228 -1.17846,-0.8946l0.65375,-0.86019c0.79137,0.57346 1.55408,1.14692 2.28811,1.72038zM206.17074,125.95395l0.65374,-0.8774c1.00929,0.73403 1.74332,1.29601 2.20209,1.68597l-0.68815,0.92901c-0.61934,-0.52759 -1.34189,-1.10678 -2.16768,-1.73758z" fill="#000000" fill-rule="evenodd" stroke="#000000" stroke-width="0.5" stroke-linecap="round"/><path d="M225.88631,121.2229h3.71602v2.46015h0.99782v1.10104h-0.99782v2.46014h-3.71602v7.81053h-1.22147v-7.81053h-3.73323v-1.06664h3.73323v-1.3935h-4.30096v-1.10104h4.30096v-1.41072h-3.50958v-1.04943h3.50958v-1.58275h1.22147zM216.08013,121.30892h3.87086v10.73518h-2.701v1.56555h-1.16986zM217.24999,130.82262h1.53114v-8.30944h-1.53114zM221.08644,128.72376v-0.86019h1.13545v0.96342c0,1.05517 -0.06021,1.95263 -0.18064,2.6924c-0.12043,0.73977 -0.33834,1.42505 -0.65375,2.05585c-0.3154,0.63081 -0.76557,1.26735 -1.3505,1.90963l-0.86019,-0.84298c0.51612,-0.56199 0.90894,-1.09818 1.17846,-1.60856c0.26952,-0.51038 0.45877,-1.0953 0.56773,-1.75478c0.10896,-0.65948 0.16343,-1.51107 0.16343,-2.55477zM229.70555,127.88078v7.39764h-1.16986v-7.39764zM223.23692,133.59244l-0.99782,-0.24085c0.22939,-0.67668 0.42722,-1.44225 0.59353,-2.29671c0.1663,-0.85446 0.2896,-1.70031 0.36989,-2.53757l0.929,0.08602c-0.08029,0.88313 -0.19785,1.76626 -0.35268,2.64939c-0.15483,0.88313 -0.33548,1.66304 -0.54192,2.33972zM228.34645,133.16234l-0.98062,0.27526l-1.06664,-4.83427l0.96341,-0.24085zM228.50129,123.68305v-1.41072h-2.61498v1.41072zM225.88631,124.78409v1.3935h2.61498v-1.3935z" fill="#000000" fill-rule="evenodd" stroke="#000000" stroke-width="0.5" stroke-linecap="round"/><path d="M246.90937,128.96462h-3.95687v4.30095h4.93749v1.25588h-11.44054v-1.25588h5.17835v-4.30095h-4.09451v-1.30749h4.09451v-3.78484h-4.28375v-1.29029h10.13305v1.29029h-4.5246v3.78484h3.95687zM235.3312,128.86139l0.63654,0.25806l0.60213,0.22365c-0.24086,0.68815 -0.98635,2.67233 -2.2365,5.95252l-1.27308,-0.46451c0.17204,-0.34408 0.5706,-1.33617 1.19567,-2.97626c0.62507,-1.6401 0.98348,-2.63792 1.07524,-2.99346zM236.44945,126.48727l-0.75696,1.15266c-1.46806,-1.16986 -2.5347,-1.9899 -3.19991,-2.46014l0.72256,-1.06664c0.73403,0.52759 1.63437,1.18706 2.701,1.97844zM236.93116,122.1347l-0.70536,1.11825l-1.25588,-0.92901c-0.45877,-0.33261 -0.96915,-0.7111 -1.53114,-1.13545l0.70535,-1.08384c0.88313,0.61934 1.81214,1.29602 2.78702,2.03005zM242.14391,122.582l-1.30749,-2.63218l1.20426,-0.55052l1.3591,2.59777z" fill="#000000" fill-rule="evenodd" stroke="#000000" stroke-width="0.5" stroke-linecap="round"/><path d="M260.44877,123.57982h4.55901v0.98062h-15.03614v-0.98062h4.38697c-0.10323,-0.5964 -0.22365,-1.14119 -0.36128,-1.63436h-3.1483v-0.96341h6.12456c-0.19497,-0.52759 -0.36128,-0.93474 -0.49891,-1.22147l1.42792,-0.24085c0.16057,0.36701 0.34408,0.85445 0.55052,1.46232h5.67726v0.96341h-3.21712c-0.10323,0.42436 -0.25806,0.96914 -0.4645,1.63436zM251.95009,130.47855v-4.88589h11.02764v4.88589zM260.1563,133.14514l0.05161,-1.11825l0.0172,-0.34408l1.22147,0.32687l-0.06881,0.82578l-0.06882,0.68815c-0.05734,0.55052 -0.23226,0.92614 -0.52472,1.12685c-0.29246,0.20071 -0.79424,0.30106 -1.50533,0.30106h-3.54399c-0.67668,0 -1.14979,-0.12329 -1.41932,-0.36988c-0.26952,-0.24659 -0.40429,-0.69676 -0.40429,-1.3505v-2.11607h1.29029v1.94403c0,0.33261 0.07168,0.56772 0.21505,0.70535c0.14337,0.13763 0.40429,0.20645 0.78277,0.20645h2.78702c0.45877,0 0.76556,-0.05735 0.9204,-0.17204c0.15483,-0.11469 0.23799,-0.33261 0.24946,-0.65375zM261.72185,128.48291h-8.51589v1.06663h8.51589zM253.20596,127.57111h8.51589v-1.03223h-8.51589zM259.65739,121.94546h-4.40417l0.34408,1.63436h3.6128c0.13763,-0.43583 0.28673,-0.98062 0.4473,-1.63436zM250.91786,134.79671l-1.01503,-0.72256c0.34408,-0.42436 0.70249,-0.93187 1.07524,-1.52254c0.37275,-0.59067 0.68529,-1.14406 0.93761,-1.66017l1.15266,0.53332c-0.26379,0.53905 -0.5964,1.12685 -0.99782,1.76339c-0.40142,0.63654 -0.78564,1.17273 -1.15266,1.60856zM262.03152,131.614l1.03222,-0.61934c0.51612,0.69962 1.21,1.71464 2.08166,3.04507l-1.03223,0.70535c-0.68815,-1.10104 -1.38204,-2.14475 -2.08166,-3.13109zM256.66393,131.30434l0.80857,-0.77418c0.53906,0.51612 1.08958,1.06664 1.65157,1.65157l-0.86019,0.82578c-0.57346,-0.66521 -1.10678,-1.23293 -1.59995,-1.70317z" fill="#000000" fill-rule="evenodd" stroke="#000000" stroke-width="0.5" stroke-linecap="round"/><path d="M282.246,134.09135l-0.67095,1.13546c-1.37631,-0.79137 -2.49455,-1.62863 -3.35474,-2.51176c-0.87166,0.84872 -1.90963,1.65157 -3.11389,2.40854l-0.72256,-1.03223v1.32469h-1.23868v-14.8813h8.03418c0,0.33261 -0.01147,0.78564 -0.03441,1.3591c-0.02294,0.57346 -0.04014,1.0437 -0.05161,1.41071c-0.03441,0.45877 -0.11756,0.80571 -0.24946,1.04083c-0.13189,0.23512 -0.34408,0.39856 -0.63654,0.49031c-0.29246,0.09176 -0.7197,0.13763 -1.28168,0.13763h-2.68379l-0.20645,-1.16986h2.39133c0.53906,0 0.9032,-0.05448 1.09244,-0.16344c0.18924,-0.10896 0.30107,-0.32974 0.33548,-0.66235c0.04588,-0.5964 0.06881,-1.00356 0.06881,-1.22147h-5.53963v4.42138h7.00196v1.20427c-0.42436,1.60569 -1.19853,3.07948 -2.32252,4.42138c0.42436,0.41289 0.88887,0.79711 1.39351,1.15266c0.50464,0.35555 1.10104,0.73403 1.7892,1.13545zM269.37755,119.72617h1.20427v3.1827h1.89242v1.22148h-1.89242v3.06227l1.75479,-0.60213l0.05161,0.65375l0.05161,0.58493l-1.85801,0.61933v4.76546c0,0.50465 -0.05735,0.88887 -0.17204,1.15266c-0.11469,0.26379 -0.31253,0.45016 -0.59353,0.55912c-0.281,0.10896 -0.69102,0.16344 -1.23007,0.16344h-1.08384l-0.24086,-1.23868h0.94621c0.47024,0 0.78278,-0.06595 0.93761,-0.19785c0.15483,-0.13189 0.23225,-0.39856 0.23225,-0.79998v-4.00849l-1.51394,0.48171c-0.26379,0.09176 -0.47597,0.16057 -0.63654,0.20645l-0.24086,-1.20426c0.57346,-0.16057 1.37057,-0.40716 2.39133,-0.73977v-3.45797h-1.99564v-1.22148h1.99564zM274.38386,127.39907v6.58906c1.1928,-0.69962 2.20209,-1.43365 3.02787,-2.20209c-0.8946,-1.16986 -1.60569,-2.63218 -2.13328,-4.38697zM280.11273,127.39907h-3.6128c0.4473,1.36483 1.03223,2.52895 1.75479,3.49237c0.86019,-0.99782 1.47952,-2.16194 1.85801,-3.49237z" fill="#000000" fill-rule="evenodd" stroke="#000000" stroke-width="0.5" stroke-linecap="round"/></g></g></svg>