<svg version="1.1" xmlns="http://www.w3.org/2000/svg" xmlns:xlink="http://www.w3.org/1999/xlink" width="208.97829" height="32" viewBox="0,0,208.97829,32"><g transform="translate(-239.02171,-164)"><g stroke-miterlimit="10"><path d="M240,196v-32h208v32z" fill="none" fill-rule="nonzero" stroke="none" stroke-width="0" stroke-linecap="butt"/><path d="M249.02955,178.50311h7.9448v1.75221h-7.9448v9.89883h-1.73156v-9.89883h-8.02628v-1.75221h8.02628v-5.46142c-2.68901,0.27307 -4.92985,0.45512 -6.72252,0.54614l-0.06111,-1.75221c2.03713,-0.07585 4.47489,-0.28824 7.31329,-0.63717c2.8384,-0.34892 5.249,-0.7206 7.2318,-1.11504l0.32594,1.82047c-1.99639,0.36409 -4.115,0.67509 -6.35584,0.93299z" fill="#ffffff" fill-rule="evenodd" stroke="#ffffff" stroke-width="0.5" stroke-linecap="round"/><path d="M273.12877,169.30972v7.75977h4.48168v1.68394h-4.48168v11.37797h-1.60933v-11.37797h-4.31871v-1.7067h4.31871v-7.73702zM261.88383,186.60423v1.9115h-1.4871v-16.90766h6.0299v14.99616zM261.88383,184.85202h3.05569v-11.49175h-3.05569z" fill="#ffffff" fill-rule="evenodd" stroke="#ffffff" stroke-width="0.5" stroke-linecap="round"/><path d="M297.92062,183.69147h-10.12453c-1.03214,1.27433 -2.29516,2.59418 -3.78906,3.95953l9.1467,-0.38685l-2.24084,-2.36662l0.99819,-1.11504c0.58398,0.59165 1.14419,1.16814 1.68063,1.72945c0.53644,0.56131 1.00838,1.05436 1.4158,1.47914c1.46673,1.5474 2.07108,2.17698 1.81304,1.88874l-1.05931,1.29709c-0.23087,-0.27307 -0.65188,-0.75095 -1.26302,-1.43362l-12.58945,0.61441l-0.38705,-1.61567c1.60254,-1.27433 3.00816,-2.62452 4.21685,-4.05056h-5.84656v-1.5474h2.68901v-11.83309h12.58945v11.83309h2.75012zM293.70377,182.14406v-2.50315h-9.63562v2.50315zM284.06815,175.74965v2.41213h9.63562v-2.41213zM284.06815,174.31602h9.63562v-2.38937h-9.63562z" fill="#ffffff" fill-rule="evenodd" stroke="#ffffff" stroke-width="0.5" stroke-linecap="round"/><path d="M316.92703,179.36784v1.68394h-6.33547v6.00757c0,1.00126 -0.2105,1.7029 -0.63151,2.10492c-0.42101,0.40202 -1.11363,0.60303 -2.07787,0.60303h-2.2001l-0.26483,-1.79772h2.07787c0.42101,0 0.73337,-0.03413 0.93708,-0.1024c0.20371,-0.06827 0.34292,-0.19722 0.41761,-0.38685c0.07469,-0.18963 0.11204,-0.48167 0.11204,-0.8761v-5.55245h-6.88549v-1.7067c0.73337,-1.22882 1.64328,-3.00378 2.72975,-5.32489h-4.21685v-1.7067h5.01133c0.54323,-1.22882 0.9914,-2.32111 1.3445,-3.27685l1.54822,0.68268c-0.21729,0.65234 -0.56361,1.51706 -1.03894,2.59418h10.32824v1.7067h-11.10235c-1.16795,2.53349 -2.06429,4.31604 -2.68901,5.34764h4.97059v-3.98229h1.6297v3.98229zM304.80611,182.25784l1.24265,1.18331c-0.65188,1.0316 -1.4158,2.09355 -2.29177,3.18583c-0.87597,1.09228 -1.72816,2.01769 -2.5566,2.77622l-1.05931,-1.47914c0.80127,-0.66751 1.61952,-1.51706 2.45474,-2.54866c0.83522,-1.0316 1.57198,-2.07079 2.21028,-3.11756zM312.1194,183.57769l1.10005,-1.27433c0.6383,0.65234 1.45315,1.52844 2.44455,2.62831c0.9914,1.09987 1.86058,2.07458 2.60752,2.92414l-1.14079,1.36536c-0.67904,-0.84956 -1.51427,-1.83565 -2.50567,-2.95827c-0.9914,-1.12263 -1.82662,-2.01769 -2.50567,-2.6852z" fill="#ffffff" fill-rule="evenodd" stroke="#ffffff" stroke-width="0.5" stroke-linecap="round"/><path d="M338.47984,171.69909v1.61567h-8.10777v2.27559h6.88549v11.60553c0,0.69785 -0.0713,1.23261 -0.2139,1.60429c-0.1426,0.37168 -0.37347,0.62958 -0.69262,0.7737c-0.31915,0.14412 -0.7775,0.21618 -1.37506,0.21618h-2.50567l-0.2852,-1.59292h2.22047c0.39385,0 0.67904,-0.03413 0.85559,-0.1024c0.17655,-0.06827 0.29538,-0.19722 0.3565,-0.38685c0.06111,-0.18963 0.09167,-0.48925 0.09167,-0.89886v-9.64852h-12.345v12.6523h-1.4871v-14.22246h6.92624v-2.27559h-8.18925v-1.61567h8.18925v-2.4804h1.56859v2.4804zM334.89449,183.9873v1.36536h-4.5428v4.0278h-1.52785v-4.0278h-4.66502v-1.36536h4.66502v-2.09355h-4.21685v-1.36536h2.77049c-0.6383,-0.95575 -1.18153,-1.72187 -1.6297,-2.29835l1.16116,-0.72819c-0.04074,-0.06068 0.23766,0.32617 0.83522,1.16055l0.95745,1.3426l-0.85559,0.52339h2.30195c0.67904,-0.98609 1.29697,-2.00252 1.85379,-3.0493l1.30376,0.70543c-0.27162,0.50063 -0.77411,1.28192 -1.50747,2.34386h2.64827v1.36536h-4.09463v2.09355z" fill="#ffffff" fill-rule="evenodd" stroke="#ffffff" stroke-width="0.5" stroke-linecap="round"/><path d="M359.05483,180.09603v1.5474h-2.09824l-0.12223,3.52717h1.83342v1.57016h-1.87416l-0.02037,0.40961c-0.04074,0.69785 -0.15278,1.23641 -0.33613,1.61567c-0.18334,0.37927 -0.46854,0.64854 -0.85559,0.80784c-0.38705,0.15929 -0.92689,0.23894 -1.61952,0.23894h-3.03532l-0.30557,-1.59292h2.85198c0.67904,0 1.15098,-0.1024 1.4158,-0.30721c0.26483,-0.2048 0.41082,-0.58028 0.43798,-1.12642v-0.04551h-9.1467l0.50928,-5.09733h-1.58896v-1.5474h1.73156l0.44817,-4.52843c-0.40743,0.57648 -0.71979,1.00126 -0.93708,1.27433l-1.03894,-1.22882c0.74695,-0.92541 1.45655,-1.97977 2.1288,-3.16307c0.67225,-1.18331 1.21888,-2.32869 1.63989,-3.43615l1.36488,0.52339c-0.23087,0.59165 -0.4957,1.20606 -0.79448,1.84323h8.92262v1.5474h-9.69673c-0.43459,0.80404 -0.82843,1.47155 -1.18153,2.00252h9.47265l-0.16297,5.1656zM347.74877,185.1706h7.63923l0.04074,-0.84197c0.05432,-1.0316 0.08828,-1.92667 0.10186,-2.6852h-7.41515zM355.73431,176.47784h-7.08921l-0.36668,3.61819h7.31329c0.09507,-2.07838 0.1426,-3.28444 0.1426,-3.61819zM342.77818,190.01762l-1.46673,-0.50063l1.97601,-7.82804l1.38525,0.47787c-0.10865,0.42478 -0.69262,2.82932 -1.75193,7.21363zM345.20236,178.09351l-0.87597,1.43362c-1.65686,-1.60809 -2.75691,-2.63969 -3.30015,-3.09481l0.87597,-1.31984zM345.77276,172.65484l-0.83522,1.3426c-0.9914,-0.91024 -2.08466,-1.87357 -3.27978,-2.89l0.87597,-1.29709c0.76053,0.63717 1.84021,1.58533 3.23903,2.84449zM353.4731,183.94178l-0.85559,1.18331c-0.29878,-0.30341 -0.7096,-0.68268 -1.23246,-1.1378c-0.52286,-0.45512 -0.98801,-0.84956 -1.39543,-1.18331l0.77411,-1.1378c0.93708,0.75853 1.84021,1.51706 2.70938,2.27559zM350.3563,177.6839l0.77411,-1.16055c1.19511,0.97092 2.06429,1.71428 2.60752,2.23008l-0.81485,1.22882c-0.73337,-0.69785 -1.58896,-1.46397 -2.56678,-2.29835z" fill="#ffffff" fill-rule="evenodd" stroke="#ffffff" stroke-width="0.5" stroke-linecap="round"/><path d="M378.22421,183.9873l1.22228,0.43236c-0.08149,0.84956 -0.19692,1.77496 -0.34631,2.77622c-0.14939,1.06194 -0.37008,1.78634 -0.66207,2.17319c-0.29199,0.38685 -0.67565,0.58028 -1.15098,0.58028c-0.86917,0 -1.56859,-0.75095 -2.09824,-2.25284c-0.16297,-0.47029 -0.29878,-0.92541 -0.40743,-1.36536c-0.89634,1.31984 -1.94885,2.55625 -3.15755,3.70922l-1.01856,-1.3426c1.58896,-1.51706 2.83161,-2.97344 3.72794,-4.36914c-0.47533,-2.71554 -0.77411,-5.99998 -0.89634,-9.85332h-6.29473v-1.57016h6.25398c-0.04074,-1.36536 -0.06111,-2.54108 -0.06111,-3.52717l1.40562,-0.02276c0.01358,0.33375 0.03395,1.51706 0.06111,3.54993h1.85379c-0.24446,-0.94058 -0.51607,-1.82806 -0.81485,-2.66244l1.18153,-0.45512c0.38026,1.16814 0.7062,2.20733 0.97782,3.11756h1.3445v1.57016h-4.52242c0.05432,3.03413 0.24446,5.70415 0.5704,8.01009c0.76053,-1.53223 1.49389,-3.58785 2.2001,-6.16686l1.26302,0.47787c-0.77411,3.03413 -1.79946,5.67381 -3.07606,7.91907c0.13581,0.68268 0.32594,1.37294 0.5704,2.07079c0.17655,0.47029 0.33613,0.78887 0.47873,0.95575c0.1426,0.16688 0.29538,0.25032 0.45835,0.25032c0.17655,0 0.31236,-0.12516 0.40743,-0.37547c0.09507,-0.25032 0.19013,-0.71681 0.2852,-1.39949zM366.97926,183.66871l0.22408,1.7067c-0.74695,0.22756 -1.78588,0.55752 -3.11681,0.98988c-1.33092,0.43236 -2.18652,0.73198 -2.56678,0.89886l-0.32594,-1.72945l2.42418,-0.75095v-8.03285h-2.0575v-1.63843h2.0575v-5.52969h1.42599v5.52969h1.83342v1.63843h-1.83342v7.57773zM372.23505,183.25911h-4.64465v-6.41717h4.64465zM372.39802,184.73824l0.22408,1.63843c-0.76053,0.19722 -1.88434,0.49684 -3.37145,0.89886c-1.4871,0.40202 -2.39363,0.65613 -2.71957,0.76232l-0.32594,-1.66118c0.80127,-0.19722 1.94885,-0.48925 3.44275,-0.8761c1.49389,-0.38685 2.4106,-0.64096 2.75012,-0.76232zM368.81267,178.32107v3.4589h2.17973v-3.4589z" fill="#ffffff" fill-rule="evenodd" stroke="#ffffff" stroke-width="0.5" stroke-linecap="round"/></g></g></svg>