<svg version="1.1" xmlns="http://www.w3.org/2000/svg" xmlns:xlink="http://www.w3.org/1999/xlink" width="208" height="32" viewBox="0,0,208,32"><g transform="translate(-240,-164.00001)"><g stroke-miterlimit="10"><path d="M319.60584,172.58314v1.4792h-8.04377v2.08338h6.83115v10.62525c0,0.6389 -0.07074,1.1285 -0.21221,1.46878c-0.14147,0.34029 -0.37053,0.5764 -0.68716,0.70835c-0.31663,0.13195 -0.77137,0.19792 -1.36421,0.19792h-2.48589l-0.28295,-1.45837h2.20294c0.39074,0 0.67368,-0.03125 0.84884,-0.09375c0.17516,-0.0625 0.29305,-0.18056 0.35368,-0.35418c0.06063,-0.17362 0.09095,-0.44793 0.09095,-0.82294v-8.83354h-12.24756v11.58361h-1.47537v-13.02114h6.87157v-2.08338h-8.12462v-1.4792h8.12462v-2.27089h1.55621v2.27089zM271.24214,186.33347h5.21431v-12.37529h1.51579v15.31286h-1.51579v-1.31253h-13.56124v-14.00033h1.55621v12.37529h5.21431v-15.70871h1.57642zM299.57725,183.56257h-10.04461c-1.024,1.16669 -2.27705,2.37506 -3.75915,3.62509l9.07451,-0.35418l-2.22315,-2.16672l0.99031,-1.02086c0.57937,0.54168 1.13516,1.06947 1.66737,1.58337c0.53221,0.5139 1.00042,0.9653 1.40463,1.3542c1.45516,1.4167 2.05473,1.9931 1.79873,1.72921l-1.05095,1.18753c-0.22905,-0.25001 -0.64674,-0.68752 -1.25305,-1.31253l-12.49008,0.56251l-0.384,-1.4792c1.58989,-1.16669 2.98442,-2.40284 4.18357,-3.70842h-5.80041v-1.4167h2.66778v-10.83359h12.49008v10.83359h2.72842zM242.54325,189.27104v-17.68792h15.38018v14.58368c0,0.80557 -0.08758,1.41323 -0.26274,1.82296c-0.17516,0.40973 -0.46484,0.69099 -0.86905,0.84377c-0.40421,0.15278 -0.99705,0.22917 -1.77852,0.22917h-2.5061l-0.28295,-1.58337h2.32421c0.53895,0 0.93305,-0.04167 1.18231,-0.125c0.24926,-0.08334 0.41768,-0.24653 0.50526,-0.48959c0.08758,-0.24306 0.13137,-0.62849 0.13137,-1.15628v-12.58363h-12.26777v16.14622zM339.59402,173.27066l-1.67747,5.31263c0.7141,0.95836 1.21263,1.80907 1.49558,2.55214c0.28295,0.74307 0.42442,1.53129 0.42442,2.36464c0,1.18058 -0.24253,2.02088 -0.72758,2.52089c-0.48505,0.50001 -1.30021,0.75002 -2.44547,0.75002h-1.152l-0.30316,-1.4792h1.05095c0.79495,0 1.35073,-0.14931 1.66737,-0.44793c0.31663,-0.29862 0.47495,-0.82988 0.47495,-1.59379c0,-0.66668 -0.15832,-1.34725 -0.47495,-2.04172c-0.31663,-0.69446 -0.81852,-1.46531 -1.50568,-2.31255l1.63705,-5.64597h-3.39536v16.27122h-1.43494v-17.81292h6.3663zM316.0488,183.83341v1.25003h-4.50694v3.68759h-1.51579v-3.68759h-4.6282v-1.25003h4.6282v-1.91671h-4.18357v-1.25003h2.74863c-0.63326,-0.87502 -1.17221,-1.57643 -1.61684,-2.10422l1.152,-0.66668c-0.04042,-0.05556 0.23579,0.29862 0.82863,1.06253l0.94989,1.2292l-0.84884,0.47918h2.28379c0.67368,-0.9028 1.28673,-1.83338 1.83915,-2.79173l1.29347,0.64585c-0.26947,0.45834 -0.768,1.17364 -1.49558,2.14588h2.62736v1.25003h-4.06231v1.91671zM255.15459,184.83343l-1.17221,1.12503c-1.06442,-1.30559 -2.29726,-2.79173 -3.69852,-4.45844c-1.52252,1.76393 -3.02484,3.29869 -4.50694,4.60428l-0.9701,-1.27086c1.56294,-1.36114 3.05178,-2.85423 4.46652,-4.47927c-1.7381,-2.01394 -3.09894,-3.56258 -4.08252,-4.64594l1.07116,-1.00002c1.30694,1.40281 2.64084,2.88896 4.00168,4.45844c1.2261,-1.52781 2.32421,-3.0973 3.29431,-4.70844l1.27326,0.89585c-1.03747,1.65282 -2.22315,3.30563 -3.55705,4.95845c1.10484,1.25003 2.39831,2.75701 3.88041,4.52094zM331.65129,174.24985h-1.51579c-0.16168,1.2917 -0.37053,2.507 -0.62653,3.64592h2.72842v1.50004h-10.12545v-1.50004h2.58694c-0.256,-1.58337 -0.49179,-2.79868 -0.70737,-3.64592h-1.37431v-1.4792h3.94105c-0.17516,-0.73613 -0.37726,-1.4167 -0.60631,-2.04172l1.49558,-0.37501c0.26947,0.83335 0.49853,1.63893 0.68716,2.41672h3.51663zM324.69889,187.75017v1.39587h-1.41473v-7.85435h7.72041v6.45849zM295.39368,182.14587v-2.29172h-9.55956v2.29172zM285.83412,176.29156v2.20839h9.55956v-2.20839zM285.83412,174.97903h9.55956v-2.18755h-9.55956zM324.69889,186.33347h4.89094v-3.56258h-4.89094zM328.76119,174.24985h-3.33473c0.35032,1.72226 0.5861,2.93757 0.70737,3.64592h2.00084c0.24253,-1.08336 0.45137,-2.29867 0.62653,-3.64592z" fill="#ffffff" fill-rule="evenodd" stroke="#ffffff" stroke-width="0.5" stroke-linecap="round"/><path d="M240,196.00001v-32h208v32z" fill="none" fill-rule="nonzero" stroke="none" stroke-width="0" stroke-linecap="butt"/></g></g></svg>