<svg version="1.1" xmlns="http://www.w3.org/2000/svg" xmlns:xlink="http://www.w3.org/1999/xlink" width="208" height="32" viewBox="0,0,208,32"><g transform="translate(-240,-164)"><g stroke-miterlimit="10"><path d="M240,196v-32h208v32z" fill="none" fill-rule="nonzero" stroke="none" stroke-width="0" stroke-linecap="butt"/><path d="M246.79,181.8h10.469v7.7051h-2.1777v-1.1816h-8.4668v1.1816h-2.1582v-5.7324c-0.80727,0.60547 -1.7936,1.23697 -2.959,1.8945l-1.2988,-1.6894c2.56513,-1.19793 4.62567,-2.73763 6.1816,-4.6191h-5.8887v-1.7969h7.1387c0.47526,-0.82033 0.89193,-1.6732 1.25,-2.5586l2.0801,0.47852c-0.34505,0.79427 -0.68035,1.48763 -1.0059,2.0801h9.541v1.7969h-10.645c-0.5599,0.80727 -1.20443,1.57873 -1.9336,2.3144zM246.61422,183.4992v3.0859h8.4668v-3.0859zM245.25682,172.4052v-1.9043h2.1191v1.9043h5.127v-1.9043h2.1191v1.9043h4.1992v1.8164h-4.1992v1.5234h-2.1191v-1.5234h-5.127v1.543h-2.1191v-1.543h-4.0625v-1.8164z" fill="#ffffff" fill-rule="nonzero" stroke="none" stroke-width="1" stroke-linecap="butt"/><path d="M264.58,180.62c-0.96353,1.9596 -2.01497,3.5156 -3.1543,4.668l-1.1426,-1.7578c1.31513,-1.27607 2.6335,-3.2292 3.9551,-5.8594c-0.0586,-0.31901 -0.14975,-0.70964 -0.27344,-1.1719c-0.71613,0.74867 -1.59503,1.5462 -2.6367,2.3926l-1.0644,-1.7383c1.13933,-0.80727 2.1224,-1.6634 2.9492,-2.5684c-0.49479,-0.97007 -1.20443,-1.862 -2.1289,-2.6758l1.4551,-1.0352c0.8138,0.63802 1.47137,1.33139 1.9727,2.0801c0.52083,-0.7682 0.99937,-1.56247 1.4356,-2.3828l1.7383,1.084c-0.77473,1.24347 -1.51367,2.29163 -2.2168,3.1445c0.83987,2.02473 1.2598,4.77863 1.2598,8.2617c0,2.194 -0.21485,3.82487 -0.64454,4.8926c-0.21484,0.52083 -0.49479,0.89517 -0.83984,1.123c-0.31901,0.20833 -0.77801,0.3125 -1.377,0.3125c-0.76173,0 -1.43557,-0.0651 -2.0215,-0.19531l-0.38086,-2.0996c0.6966,0.16927 1.33137,0.25391 1.9043,0.25391c0.39063,0 0.64453,-0.07162 0.76172,-0.21485c0.09115,-0.10417 0.16602,-0.29622 0.22461,-0.57617c0.1888,-0.86587 0.2832,-2.12563 0.2832,-3.7793c0,-0.50781 -0.01953,-1.22721 -0.0586,-2.1582zM273.164,183.5204c-0.87893,2.819 -2.76697,4.83073 -5.6641,6.0352l-1.2402,-1.7188c1.56253,-0.5599 2.80277,-1.38673 3.7207,-2.4805c0.76173,-0.90493 1.32813,-2.03773 1.6992,-3.3984h-4.5606v-1.8848h4.8047v-4.9805h-4.4629v-1.8555h4.4629v-2.7441h1.9824v2.7441h5.1562v1.8555h-5.1562v4.9805h5.5957v1.8848h-5.1074c1.02213,2.487 2.819,4.3262 5.3906,5.5176l-1.3477,1.9629c-2.49347,-1.51693 -4.25127,-3.4896 -5.2734,-5.918zM274.9804,179.2333c0.55989,-1.0612 1.04816,-2.32747 1.4648,-3.7988l1.9141,0.67383c-0.50781,1.46487 -1.06771,2.6986 -1.6797,3.7012zM268.9062,179.829c-0.30599,-1.30207 -0.72592,-2.513 -1.2598,-3.6328l1.7774,-0.66406c0.54687,1.0156 1.00587,2.20373 1.377,3.5644z" fill="#ffffff" fill-rule="nonzero" stroke="none" stroke-width="1" stroke-linecap="butt"/><path d="M296.77062,182.39276h-8.72708l-0.15976,1.47781h9.50592c-0.01331,0.30621 -0.03661,0.71894 -0.0699,1.23817c-0.03328,0.51923 -0.06324,0.95192 -0.08987,1.29808c-0.05325,0.63905 -0.17308,1.13166 -0.35947,1.47781c-0.18639,0.34615 -0.46598,0.59246 -0.83876,0.73891c-0.37278,0.14645 -0.89201,0.21967 -1.55769,0.21967h-3.19527l-0.27959,-1.37796h3.13536c0.43935,0 0.7622,-0.02663 0.96857,-0.07988c0.20636,-0.05325 0.35614,-0.16975 0.44933,-0.34948c0.0932,-0.17973 0.15311,-0.46931 0.17973,-0.86871l0.07988,-1.09837h-9.54587l0.39941,-3.87426h8.60726v-1.43787h-8.58728v-1.23817h10.08507zM290.89931,177.85947h-1.33802v-3.97412h-3.45488v-1.31805h5.25222c-0.17308,-0.41272 -0.41938,-0.91864 -0.73891,-1.51775l1.4179,-0.41938l0.1997,0.35947c0.11982,0.23965 0.24963,0.4926 0.38942,0.75888c0.13979,0.26627 0.27626,0.5392 0.40939,0.81879h5.37205v1.31805h-4.17382v3.97412h-1.33802v-3.97412h-1.99704zM283.51025,181.57397l0.75888,0.21967l0.67899,0.17973c-1.03846,3.18196 -1.804,5.56509 -2.2966,7.14941l-1.43787,-0.45932c0.25296,-0.70562 0.67234,-1.94046 1.25814,-3.70451c0.5858,-1.76405 0.93195,-2.89238 1.03846,-3.38499zM288.02357,174.60429l0.95858,0.8787c-0.39941,0.4926 -0.90865,1.03513 -1.52774,1.62759c-0.61908,0.59246 -1.20821,1.10836 -1.76738,1.54771l-0.77885,-1.01849c1.31805,-1.05178 2.35651,-2.06361 3.11539,-3.03551zM285.68703,174.16494l-0.89867,1.23817c-0.4926,-0.45266 -1.55769,-1.33802 -3.19527,-2.65607l0.89867,-1.13831c0.63905,0.46598 1.70414,1.31805 3.19527,2.55621zM281.07386,177.67974l0.89867,-1.17826c1.51775,1.1716 2.58284,2.02367 3.19527,2.55621l-0.95858,1.23817c-0.90533,-0.7855 -1.95044,-1.65755 -3.13536,-2.61613zM294.87343,175.6827l0.75888,-0.95858c0.51923,0.39941 1.11502,0.86871 1.78735,1.40792c0.67234,0.5392 1.1949,0.97522 1.56768,1.30806l-0.81879,1.05843c-0.77219,-0.71894 -1.87056,-1.65755 -3.29512,-2.81583z" fill="#ffffff" fill-rule="evenodd" stroke="#ffffff" stroke-width="0.5" stroke-linecap="round"/></g></g></svg>