<svg version="1.1" xmlns="http://www.w3.org/2000/svg" xmlns:xlink="http://www.w3.org/1999/xlink" width="95.33984" height="18.59996" viewBox="0,0,95.33984,18.59996"><g transform="translate(-240.48094,-170.07453)"><g fill="#ffffff" stroke="none" stroke-miterlimit="10"><path d="M240.75157,171.38049h17.26247v1.89957h-17.26247v-1.89957M251.73151,176.26792h6.05056v1.89957h-6.05056v-1.89957M251.7895,183.45067h6.47584v1.99851h-6.47584v-1.99851M251.71217,179.82961h5.58662v1.86h-5.58662v-1.86M240.98354,176.28771h6.05056v1.89957h-6.05056v-1.89957M241.44748,179.86919h5.48997v1.86h-5.48997v-1.86M245.08169,170.15368h2.04907v4.41254h-2.04907v-4.41254M250.55232,174.92239h2.14573v13.63337h-2.14573v-13.63337M251.51887,170.15368h2.0684v4.41254h-2.0684v-4.41254M246.06756,174.92239h2.16506v13.69273h-2.16506v-13.69273M240.48094,183.54961h6.16655v1.97872h-6.16655zM266.3843,172.11261h10.09071v7.69722h-10.16804v-1.74127h8.19629v-4.23446h-8.11896v-1.72149M270.21182,170.15368h2.01041v18.46145h-2.01041v-18.46145M265.57241,175.04112h12.13979v1.82042h-12.13979v-1.82042M265.24378,183.94535h12.2751v1.84021h-12.2751v-1.84021M266.03635,180.95748h10.67064v1.76106h-10.67064v-1.76106M264.02594,174.54644l1.77844,0.7717c-0.45105,0.7783 -0.97557,1.56978 -1.57353,2.37446c-0.60055,0.80468 -1.22558,1.56583 -1.87509,2.28344c-0.65209,0.72025 -1.29388,1.35081 -1.92535,1.89166c-0.05155,-0.1583 -0.13532,-0.37332 -0.2513,-0.64506c-0.11599,-0.26911 -0.24099,-0.53953 -0.37502,-0.81127c-0.13661,-0.26911 -0.25646,-0.496 -0.35955,-0.68068c0.55415,-0.42213 1.11217,-0.91021 1.67405,-1.46425c0.55931,-0.55404 1.09413,-1.15161 1.60446,-1.79272c0.50776,-0.63847 0.94206,-1.28089 1.3029,-1.92727M263.61999,170.19325l1.97175,0.79149c-0.39951,0.59362 -0.86989,1.19383 -1.41115,1.80063c-0.54126,0.60681 -1.1083,1.17668 -1.70112,1.70961c-0.59281,0.53557 -1.18563,1.00783 -1.77844,1.41676c-0.06444,-0.17149 -0.16109,-0.36672 -0.28996,-0.5857c-0.12887,-0.21634 -0.25774,-0.434 -0.38662,-0.65298c-0.12887,-0.21634 -0.2513,-0.39706 -0.36729,-0.54217c0.5026,-0.31659 1.00521,-0.69651 1.50781,-1.13974c0.5026,-0.4406 0.97041,-0.90493 1.40342,-1.39302c0.43043,-0.48808 0.78097,-0.95638 1.0516,-1.40489M262.22817,178.70174l1.85576,-1.89957l0.09665,0.05936v11.75359h-1.95242zM279.7806,171.95431h16.52789v4.27403h-2.20372v-2.33489h-12.21711v2.33489h-2.10706v-4.27403M286.41108,170.50985l2.26171,-0.43532c0.19331,0.35617 0.40337,0.75455 0.63019,1.19515c0.22424,0.44323 0.39435,0.82315 0.51033,1.13974l-2.35837,0.53425c-0.09021,-0.31659 -0.23455,-0.70574 -0.43301,-1.16744c-0.20104,-0.4617 -0.40466,-0.88383 -0.61086,-1.26638M293.29287,174.52665l0.98587,1.72149c-1.09542,0.21106 -2.30682,0.40894 -3.6342,0.59362c-1.32739,0.18468 -2.68312,0.33638 -4.06721,0.45511c-1.38667,0.11872 -2.73725,0.21106 -4.05175,0.27702c-0.02577,-0.25064 -0.08377,-0.53425 -0.17398,-0.85085c-0.09021,-0.31659 -0.18687,-0.58702 -0.28996,-0.81127c0.97943,-0.06596 1.97819,-0.14511 2.99628,-0.23745c1.01809,-0.09234 2.0233,-0.19787 3.01562,-0.31659c0.99232,-0.11872 1.93309,-0.248 2.82231,-0.38783c0.88922,-0.13719 1.68823,-0.28494 2.39703,-0.44323M282.06164,175.91175h2.14573v7.2619h-2.14573v-7.2619M283.78209,178.56323h11.7725v1.82042h-11.7725v-1.82042M284.38134,184.45982l2.04907,0.98936c-0.51549,0.38255 -1.09542,0.76511 -1.73978,1.14766c-0.64436,0.38255 -1.29775,0.74796 -1.96015,1.09621c-0.66498,0.35089 -1.29388,0.65166 -1.88669,0.9023c-0.12887,-0.1583 -0.29641,-0.34034 -0.5026,-0.54613c-0.2062,-0.20315 -0.41497,-0.41025 -0.62632,-0.62132c-0.21393,-0.21106 -0.40466,-0.37596 -0.57219,-0.49468c0.6057,-0.21106 1.23073,-0.44851 1.87509,-0.71234c0.64436,-0.26383 1.25651,-0.54745 1.83643,-0.85085c0.57993,-0.3034 1.08897,-0.60681 1.52714,-0.91021M289.62001,185.7262l1.08253,-1.48404c0.43817,0.18468 0.9253,0.39574 1.46141,0.63319c0.53353,0.23745 1.07093,0.48149 1.61219,0.73213c0.54126,0.25064 1.05031,0.49468 1.52714,0.73213c0.47683,0.23745 0.88922,0.44851 1.23718,0.63319l-1.12119,1.7017c-0.32218,-0.19787 -0.71782,-0.41949 -1.18692,-0.66485c-0.47167,-0.24272 -0.9717,-0.49996 -1.50008,-0.7717c-0.52838,-0.26911 -1.0632,-0.53293 -1.60446,-0.79149c-0.54126,-0.25591 -1.04387,-0.496 -1.50781,-0.72025M279.4713,182.52067h17.12715v1.84021h-17.12715v-1.84021M290.37391,179.03813h2.16506v4.35318h-2.16506zM308.71891,174.56622h7.73235v1.95893h-7.73235v-1.95893M312.9717,170.52964h1.99108v15.57252c0,0.54085 -0.06186,0.97221 -0.18558,1.29408c-0.12114,0.32451 -0.33636,0.57911 -0.64565,0.76379c-0.30929,0.17149 -0.70235,0.28626 -1.17918,0.3443c-0.47683,0.06068 -1.06964,0.08443 -1.77844,0.07123c-0.03866,-0.27702 -0.12243,-0.62396 -0.2513,-1.04081c-0.12887,-0.41421 -0.25774,-0.76642 -0.38662,-1.05664c0.45105,0.01319 0.87247,0.02242 1.26424,0.0277c0.39435,0.00791 0.65596,0.00528 0.78483,-0.00791c0.14176,-0.01319 0.24099,-0.04617 0.2977,-0.09894c0.05928,-0.05277 0.08892,-0.1517 0.08892,-0.29681v-15.57252M308.81556,178.78089l1.60446,-0.71234c0.23197,0.4617 0.46394,0.95242 0.69591,1.47217c0.23197,0.52238 0.45105,1.03421 0.65725,1.53549c0.2062,0.50127 0.36729,0.94978 0.48327,1.34553l-1.68179,0.83106c-0.11599,-0.40894 -0.27063,-0.87064 -0.46394,-1.3851c-0.19331,-0.51447 -0.40337,-1.04213 -0.63019,-1.58297c-0.22424,-0.54085 -0.4459,-1.04213 -0.66498,-1.50383M307.63638,170.19325l1.87509,0.51447c-0.32218,1.06851 -0.7088,2.12382 -1.15985,3.16595c-0.45105,1.04213 -0.94721,2.02489 -1.48848,2.94829c-0.54126,0.9234 -1.1083,1.73468 -1.70112,2.43382c-0.06444,-0.14511 -0.1714,-0.33374 -0.32089,-0.56591c-0.14691,-0.22953 -0.30156,-0.46302 -0.46394,-0.70047c-0.1598,-0.23745 -0.30414,-0.42213 -0.43301,-0.55404c0.77323,-0.88383 1.48461,-1.96553 2.13413,-3.2451c0.65209,-1.27957 1.17145,-2.61191 1.55807,-3.99701M299.15013,171.00453h4.46543v1.89957h-2.64833v15.73081h-1.8171v-17.63038M302.97764,171.00453h0.32862l0.30929,-0.07915l1.33383,0.7717c-0.23197,0.87064 -0.49358,1.79404 -0.78483,2.77021c-0.28867,0.97617 -0.56833,1.86 -0.83896,2.65148c0.56704,0.81787 0.9369,1.58957 1.10959,2.3151c0.17527,0.72553 0.2629,1.3917 0.2629,1.99851c0,0.63319 -0.06444,1.16349 -0.19331,1.59089c-0.12887,0.43004 -0.33507,0.75719 -0.61859,0.98144c-0.27063,0.22425 -0.61214,0.36276 -1.02454,0.41553c-0.34796,0.05277 -0.74746,0.06596 -1.19851,0.03957c0,-0.26383 -0.03608,-0.57119 -0.10825,-0.92208c-0.06959,-0.34825 -0.17527,-0.6543 -0.31703,-0.91813c0.16753,0.01319 0.31574,0.02242 0.44461,0.0277c0.12887,0.00791 0.2513,0.00528 0.36729,-0.00791c0.2062,0 0.38017,-0.05277 0.52193,-0.1583c0.1031,-0.09234 0.18042,-0.25723 0.23197,-0.49468c0.05155,-0.23745 0.07732,-0.50787 0.07732,-0.81127c0,-0.48808 -0.08377,-1.06587 -0.2513,-1.73336c-0.16753,-0.66485 -0.51549,-1.36664 -1.04387,-2.10536c0.12887,-0.44851 0.26032,-0.93659 0.39435,-1.46425c0.13661,-0.52766 0.26548,-1.05532 0.38662,-1.58297c0.12372,-0.52766 0.2397,-1.0263 0.34796,-1.49591c0.11083,-0.46698 0.19846,-0.86536 0.2629,-1.19515v-0.59362M306.1479,175.10048l1.60446,-1.64234l0.23197,0.09894v14.99869h-1.83643zM325.98137,175.77324h9.53012v1.97872h-9.53012v-1.97872M330.11818,176.68345h2.04907v8.52828h-2.04907v-8.52828M322.28918,177.25728v7.91487h-2.02974v-5.81743h-2.3197v-2.09744h4.34945M324.84085,171.32112h2.10706v4.37297c0,0.71234 -0.02577,1.48668 -0.07732,2.32302c-0.05155,0.83898 -0.15207,1.69378 -0.30156,2.56442c-0.14691,0.87064 -0.35955,1.71489 -0.63792,2.53276c-0.27579,0.81787 -0.63276,1.55659 -1.07093,2.21616c-0.11599,-0.11872 -0.28739,-0.26383 -0.5142,-0.43532c-0.22424,-0.17149 -0.45234,-0.33374 -0.68431,-0.48676c-0.23197,-0.15038 -0.42528,-0.26515 -0.57993,-0.3443c0.54126,-0.81787 0.93432,-1.71885 1.17918,-2.70293c0.24486,-0.98144 0.40208,-1.96685 0.47167,-2.95621c0.07217,-0.98936 0.10825,-1.89297 0.10825,-2.71084v-4.37297M333.53974,170.19325l1.70112,1.58297c-0.88922,0.29021 -1.88798,0.52766 -2.99628,0.71234c-1.1083,0.18468 -2.25269,0.32583 -3.43316,0.42345c-1.17789,0.10026 -2.31455,0.16357 -3.40997,0.18996c-0.03866,-0.25064 -0.11341,-0.5514 -0.22424,-0.9023c-0.10825,-0.34825 -0.22037,-0.6411 -0.33636,-0.87855c0.78612,-0.03957 1.58255,-0.0897 2.3893,-0.15038c0.80416,-0.05804 1.59544,-0.13323 2.37383,-0.22557c0.78097,-0.09234 1.50652,-0.20183 2.17666,-0.32847c0.67014,-0.124 1.25651,-0.26515 1.75911,-0.42345M321.22598,184.10365c0.23197,0 0.44719,0.0554 0.64565,0.16621c0.20104,0.11345 0.42657,0.25855 0.67658,0.43532c0.25259,0.1794 0.56575,0.37464 0.93948,0.5857c0.64436,0.38255 1.40084,0.62659 2.26944,0.73213c0.87118,0.10553 1.84803,0.1583 2.93056,0.1583c0.52838,0 1.10573,-0.0066 1.73205,-0.01979c0.62374,-0.01319 1.2578,-0.03957 1.90216,-0.07915c0.64436,-0.03957 1.26682,-0.0897 1.86736,-0.15038c0.59797,-0.05804 1.14181,-0.12004 1.63153,-0.186c-0.07732,0.18468 -0.16109,0.41553 -0.2513,0.69255c-0.09021,0.27702 -0.16753,0.55008 -0.23197,0.81919c-0.06444,0.27174 -0.1031,0.50655 -0.11599,0.70442c-0.34796,0.02638 -0.79257,0.05277 -1.33383,0.07915c-0.54126,0.02638 -1.12763,0.04881 -1.75911,0.06728c-0.63148,0.02111 -1.25393,0.03825 -1.86736,0.05145c-0.61086,0.01319 -1.16114,0.01979 -1.65086,0.01979c-1.2114,0 -2.2514,-0.07255 -3.12,-0.21766c-0.87118,-0.14511 -1.65472,-0.41553 -2.35063,-0.81127c-0.43817,-0.25064 -0.81834,-0.50523 -1.14052,-0.76379c-0.32218,-0.25591 -0.59281,-0.38387 -0.8119,-0.38387c-0.2062,0 -0.43172,0.12136 -0.67658,0.36408c-0.24486,0.24536 -0.5026,0.55932 -0.77323,0.94187c-0.27063,0.38255 -0.53482,0.7783 -0.79257,1.18723l-1.39182,-2.01829c0.65725,-0.71234 1.31063,-1.28617 1.96015,-1.72149c0.65209,-0.43532 1.223,-0.65298 1.71271,-0.65298M318.28769,171.55857l1.60446,-1.04872c0.34796,0.34298 0.7088,0.71893 1.08253,1.12787c0.37373,0.40894 0.72813,0.81391 1.0632,1.21493c0.33507,0.40366 0.6057,0.77038 0.8119,1.10017l-1.70112,1.20702c-0.18042,-0.32979 -0.43172,-0.70574 -0.7539,-1.12787c-0.32218,-0.42213 -0.66756,-0.84821 -1.03613,-1.27825c-0.366,-0.4274 -0.72297,-0.82578 -1.07093,-1.19515z"/></g></g></svg>