<svg version="1.1" xmlns="http://www.w3.org/2000/svg" xmlns:xlink="http://www.w3.org/1999/xlink" width="208" height="32" viewBox="0,0,208,32"><g transform="translate(-240,-164)"><g stroke-miterlimit="10"><path d="M240,196v-32h208v32z" fill="none" fill-rule="nonzero" stroke="none" stroke-width="0" stroke-linecap="butt"/><path d="M271.32,177.19v2.1289h7.9883v1.9629h-7.9883v6.123c0,0.63151 -0.153,1.10025 -0.45899,1.4062c-0.35156,0.35157 -1.01563,0.52735 -1.9922,0.52735c-1.11327,0 -2.16797,-0.04557 -3.1641,-0.13672l-0.51757,-2.1387c1.31507,0.14323 2.41857,0.21484 3.3105,0.21484c0.27995,0 0.45248,-0.04883 0.51758,-0.14648c0.0586,-0.08464 0.0879,-0.2474 0.0879,-0.48829v-5.3613h-8.3984v-1.9629h8.3984v-3.0371l0.14649,-0.0781c1.02867,-0.53385 2.3926,-1.44205 4.0918,-2.7246h-10.537v-1.9434h13.477l1.1035,1.1621c-0.8854,0.76173 -1.9238,1.5788 -3.1152,2.4512c-1.21093,0.8854 -2.194,1.56573 -2.9492,2.041z" fill="#ffffff" fill-rule="nonzero" stroke="none" stroke-width="1" stroke-linecap="butt"/><path d="M305.52,185.06c0.52083,0.60547 1.10677,1.05471 1.7578,1.3477c1.06773,0.48177 2.46747,0.72266 4.1992,0.72266h8.3203c-0.23437,0.44271 -0.45247,1.07747 -0.6543,1.9043h-7.7637c-2.2396,0 -3.9551,-0.35157 -5.1465,-1.0547c-0.48828,-0.29297 -1.02538,-0.77151 -1.6113,-1.4356c-0.0456,0.05207 -0.10094,0.11717 -0.16602,0.19531c-0.957,1.1328 -1.90753,2.05727 -2.8516,2.7734l-1.1816,-2.002c1.03513,-0.61849 2.03447,-1.31836 2.998,-2.0996v-4.8242h-2.8418v-1.9238h4.9414zM308.0591,172.101l0.51758,-0.0391c3.01433,-0.20833 5.72267,-0.6543 8.125,-1.3379l1.5234,1.7188c-2.52607,0.66406 -5.22137,1.11326 -8.0859,1.3476v2.5293h9.043v1.9043h-3.2812v7.959h-2.1582v-7.959h-3.6035c-0.03253,2.08987 -0.18878,3.75327 -0.46875,4.9902c-0.25391,1.13933 -0.67057,2.16147 -1.25,3.0664l-1.7969,-1.3574c0.64453,-1.0026 1.05793,-2.2461 1.2402,-3.7305c0.13021,-1.02213 0.19531,-2.4121 0.19531,-4.1699zM304.4458,175.9194c-0.99607,-1.40627 -2.0703,-2.66603 -3.2227,-3.7793l1.6016,-1.2793c1.1198,0.93747 2.2461,2.12887 3.3789,3.5742z" fill="#ffffff" fill-rule="nonzero" stroke="none" stroke-width="1" stroke-linecap="butt"/><path d="M337.76,175.8c0,0.30599 -0.0293,1.75783 -0.0879,4.3555h1.8652v1.7578h-1.9043c-0.01953,0.85287 -0.06185,1.81967 -0.12695,2.9004h1.6504v1.7188h-1.7774c-0.07813,0.944 -0.18555,1.569 -0.32226,1.875c-0.30599,0.7292 -1.04819,1.0938 -2.2266,1.0938c-0.7552,0 -1.4518,-0.05534 -2.0898,-0.16601l-0.36133,-1.7383c0.918,0.13021 1.62113,0.19531 2.1094,0.19531c0.39713,0 0.63476,-0.13997 0.71289,-0.41992c0.03907,-0.13672 0.07487,-0.41667 0.10742,-0.83985h-6.9531c-0.00667,0.05207 -0.01643,0.10741 -0.0293,0.16602c-0.0586,0.34505 -0.11394,0.67057 -0.16602,0.97656l-2.0215,-0.19531c0.39713,-2.35027 0.66406,-4.1276 0.80078,-5.332l0.0293,-0.23438h-1.9531v-1.7578h2.1582c0.18229,-1.57553 0.33854,-3.02737 0.46875,-4.3555zM331.5881,177.4992h-2.1387c-0.01953,0.33203 -0.07813,1.0319 -0.17578,2.0996l-0.0586,0.55664h2.168l0.0293,-0.27344c0.013,-0.1888 0.03253,-0.45247 0.0586,-0.79101c0.06513,-0.91147 0.1042,-1.44207 0.11719,-1.5918zM333.5119,177.4992c-0.03253,0.77473 -0.08136,1.63087 -0.14648,2.5684v0.0879h2.2949c0.02607,-0.89193 0.04887,-1.77733 0.0684,-2.6562zM331.2267,181.9133h-2.1973c-0.09765,0.79427 -0.20182,1.57877 -0.3125,2.3535l-0.0781,0.54687h2.2852c0.15625,-1.41273 0.25717,-2.37953 0.30274,-2.9004zM333.2287,181.9133c-0.01953,0.26042 -0.0586,0.69012 -0.11719,1.2891l-0.15625,1.6113h2.4902c0.03253,-0.63151 0.05857,-1.10677 0.0781,-1.4258c0.03907,-0.6966 0.0651,-1.18813 0.0781,-1.4746zM329.4006,172.2746h9.4336v1.8164h-10.244c-0.52735,1.0742 -1.19791,2.09633 -2.0117,3.0664l-1.3965,-1.5234c1.28253,-1.50393 2.194,-3.2357 2.7344,-5.1953l2.0801,0.21485c-0.23437,0.67707 -0.43294,1.21743 -0.5957,1.6211zM324.0197,175.1164c-0.8008,-1.10027 -1.7741,-2.13217 -2.9199,-3.0957l1.4746,-1.4258c1.0612,0.78127 2.07033,1.7676 3.0274,2.959zM323.31657,180.2726c-0.9896,-1.26953 -1.98893,-2.334 -2.998,-3.1934l1.5234,-1.4648c1.1328,0.89193 2.15167,1.90757 3.0566,3.0469zM320.66037,187.9386c1.1328,-1.569 2.20703,-3.63607 3.2227,-6.2012l1.7383,1.2402c-0.84633,2.3698 -1.93357,4.54427 -3.2617,6.5234z" fill="#ffffff" fill-rule="nonzero" stroke="none" stroke-width="1" stroke-linecap="butt"/><path d="M284.44828,173.95825v5.64672h13.06696l-0.30578,6.74752c-0.08154,1.03286 -0.35674,1.75653 -0.8256,2.17103c-0.46886,0.4145 -1.22651,0.62175 -2.27295,0.62175h-2.34431l-0.28539,-1.44735h1.99775c0.54361,0 0.9649,-0.06116 1.26389,-0.18347c0.29899,-0.12231 0.51304,-0.31257 0.64214,-0.57079c0.1291,-0.25822 0.21404,-0.61835 0.25482,-1.08042c0.04077,-0.61156 0.08494,-1.42018 0.13251,-2.42585c0.04757,-1.00567 0.08493,-1.81428 0.11211,-2.42584h-12.98541v-8.45989h3.95475l0.265,-0.65233l0.53002,-1.3862l1.59005,0.18346l-0.26501,0.71348c-0.14949,0.43489 -0.28539,0.81541 -0.40771,1.14158h7.03292c-0.12231,2.12007 -0.19706,3.30921 -0.22424,3.56742c-0.06795,0.65233 -0.19366,1.15856 -0.37712,1.5187c-0.18347,0.36014 -0.46207,0.61836 -0.8358,0.77464c-0.37373,0.15628 -0.89355,0.23443 -1.55947,0.23443h-1.75313l-0.2854,-1.30465h1.59006c0.61156,0 1.03285,-0.09853 1.26389,-0.29558c0.23104,-0.19706 0.36694,-0.53342 0.40771,-1.00907l0.10192,-1.01926c0.04077,-0.4077 0.06795,-0.76105 0.08155,-1.06003zM291.42004,185.59824v-3.05779h1.48812v4.44398h-11.35459v-4.44398h1.48812v3.05779h3.40434v-3.75089h1.59005v3.75089zM290.11538,177.01604l-0.93772,1.12119c-1.5221,-1.20953 -2.60931,-2.04533 -3.26164,-2.50739l0.89695,-1.12118c0.58438,0.42129 1.68518,1.25709 3.30241,2.50738z" fill="#ffffff" fill-rule="evenodd" stroke="#ffffff" stroke-width="0.5" stroke-linecap="round"/><path d="M245.87781,178.13354v1.27293c0.75281,0.68437 1.70408,1.63565 2.85383,2.85383l-0.9239,1.21134c-0.438,-0.5475 -1.08131,-1.24555 -1.92993,-2.09417v8.13033h-1.43718v-8.10979c-0.657,1.61511 -1.46455,3.12758 -2.42267,4.53738l-0.67753,-1.5193c0.58856,-0.83493 1.16001,-1.80332 1.71435,-2.90515c0.55434,-1.10184 1.01629,-2.2071 1.38585,-3.31578v-0.06159h-2.73064v-1.5193h2.73064v-2.7717c-0.61593,0.1095 -1.45771,0.23953 -2.52533,0.39009l-0.14372,-1.43718c0.99918,-0.13687 2.11813,-0.32508 3.35684,-0.56461c1.23871,-0.23953 2.26185,-0.46879 3.0694,-0.68779l0.22584,1.43718c-0.58856,0.19162 -1.43718,0.39009 -2.54586,0.5954v3.03861h2.60745v1.5193zM253.37167,170.72181h1.47824v3.79826h4.20888v8.7052h-1.43718v-0.04106h-2.7717v6.32359h-1.47824v-6.32359h-2.71011v0.06159h-1.45771v-8.72573h4.16782zM257.62161,175.9983h-2.7717v5.64606h2.7717zM253.37167,175.9983h-2.71011v5.64606h2.71011z" fill="#ffffff" fill-rule="evenodd" stroke="#ffffff" stroke-width="0.5" stroke-linecap="round"/></g></g></svg>