<svg version="1.1" xmlns="http://www.w3.org/2000/svg" xmlns:xlink="http://www.w3.org/1999/xlink" width="208" height="32" viewBox="0,0,208,32"><g transform="translate(-240,-164)"><g stroke-miterlimit="10"><path d="M240,196v-32h208v32z" fill="none" fill-rule="nonzero" stroke="none" stroke-width="0" stroke-linecap="butt"/><path d="M297.53005,183.24851h-8.84739l-0.16197,1.59729h9.63697c-0.0135,0.33097 -0.03712,0.77706 -0.07086,1.33827c-0.03374,0.56121 -0.06411,1.02889 -0.09111,1.40303c-0.05399,0.69072 -0.17546,1.22315 -0.36442,1.59729c-0.18896,0.37414 -0.4724,0.64036 -0.85032,0.79865c-0.37792,0.15829 -0.90431,0.23744 -1.57917,0.23744h-3.23932l-0.28344,-1.48937h3.17858c0.44541,0 0.77271,-0.02878 0.98192,-0.08634c0.20921,-0.05756 0.36105,-0.18347 0.45553,-0.37774c0.09448,-0.19427 0.15522,-0.50725 0.18221,-0.93895l0.08098,-1.18718h-9.67746l0.40491,-4.1875h8.72591v-1.55412h-8.70566v-1.33827h10.22409zM257.38276,177.11836h1.55892v1.61888h-1.55892v5.02931h-6.21544c-0.16197,1.03608 -0.41504,1.92467 -0.75921,2.66575c-0.34418,0.74109 -0.79296,1.41742 -1.34634,2.02899c-0.55338,0.61158 -1.28223,1.26272 -2.18654,1.95345l-1.1945,-1.31669c1.21474,-0.83462 2.11231,-1.62607 2.69268,-2.37435c0.58038,-0.74828 0.99204,-1.734 1.23499,-2.95715h-3.42153v-1.64046h3.64423c0.06749,-0.84901 0.11473,-1.97863 0.14172,-3.38885h-4.31234v-1.61888h4.31234v-3.43202h-3.13809v-1.59729h10.54803zM268.113,181.80232h1.66015c0,0.10073 -0.04049,0.56121 -0.12147,1.38144h7.59215c-0.12147,1.89948 -0.2227,3.30971 -0.30369,4.23067c-0.06749,0.64755 -0.19908,1.1548 -0.39479,1.52175c-0.19571,0.36695 -0.49602,0.62956 -0.90094,0.78785c-0.40491,0.15829 -0.96505,0.23744 -1.6804,0.23744h-3.30005l-0.24295,-1.55412h3.03686c0.49939,0 0.88744,-0.03957 1.16413,-0.11872c0.27669,-0.07914 0.47915,-0.22664 0.60737,-0.44249c0.12822,-0.21585 0.21258,-0.53243 0.25307,-0.94974l0.20246,-2.28801h-6.23569c-0.21595,1.09364 -0.57363,1.98223 -1.07302,2.66575c-0.49939,0.68353 -1.23162,1.26272 -2.19666,1.7376c-0.96505,0.47487 -2.32489,0.95694 -4.07952,1.4462l-0.62762,-1.53254c1.59266,-0.41731 2.80066,-0.80224 3.62399,-1.1548c0.82333,-0.35256 1.43745,-0.76627 1.84236,-1.24114c0.40491,-0.47487 0.68835,-1.11523 0.85032,-1.92107h-5.28414v-1.42461h5.48659zM278.25611,177.11836l1.05278,0.41012c-0.18896,1.09364 -0.37117,1.95704 -0.54663,2.59021c-0.14847,0.58999 -0.3408,1.01809 -0.577,1.28431c-0.2362,0.26622 -0.52302,0.39932 -0.86044,0.39932c-0.76934,0 -1.34297,-0.66194 -1.72089,-1.98582c-0.10798,-0.38853 -0.20246,-0.98212 -0.28344,-1.78077c-0.08098,-0.79865 -0.11473,-1.55053 -0.10123,-2.25564v-1.38144h-2.46998c-0.02699,1.33827 -0.16871,2.41033 -0.42516,3.21617l2.28777,1.33827l-0.64786,1.31669c-0.43191,-0.2878 -1.17425,-0.74828 -2.22703,-1.38144c-0.28344,0.44609 -0.64786,0.87779 -1.09327,1.2951c-0.44541,0.41731 -1.03253,0.89938 -1.76138,1.4462l-1.05278,-1.18718c0.71535,-0.46048 1.27886,-0.8598 1.69052,-1.19797c0.41166,-0.33817 0.74572,-0.70151 1.00216,-1.09004c-0.91781,-0.51804 -1.53868,-0.8634 -1.86261,-1.03608l0.62762,-1.20876l0.66811,0.36695c0.22945,0.11512 0.60062,0.31658 1.11352,0.60438c0.16197,-0.5756 0.26319,-1.40303 0.30369,-2.48228h-2.26752v-1.42461h2.26752l0.02025,-2.24484h1.4172l-0.04049,2.24484h3.78595v2.67655c0,0.7195 0.02699,1.42821 0.08098,2.12613c0.05399,0.69792 0.12147,1.21955 0.20246,1.56492c0.13497,0.54682 0.29694,0.82023 0.4859,0.82023c0.24295,0 0.43191,-0.33097 0.56688,-0.99291c0.16197,-0.7195 0.28344,-1.40303 0.36442,-2.05058zM261.71535,178.67249l-0.14172,-1.40303c0.78283,-0.15829 1.84911,-0.35256 3.19883,-0.5828v-2.13692h-2.99637v-1.38144h2.99637v-2.43911h1.4172v2.43911h2.26752v1.38144h-2.26752v1.85631c0.82333,-0.1439 1.46444,-0.26622 1.92334,-0.36695l0.06074,0.64755l0.08098,0.69072c-0.35093,0.05756 -1.03928,0.18707 -2.06506,0.38853v2.18009c0,0.51804 -0.06074,0.91736 -0.18221,1.19797c-0.12147,0.28061 -0.32731,0.47847 -0.61749,0.59359c-0.29019,0.11512 -0.70523,0.17268 -1.24511,0.17268h-1.74113l-0.26319,-1.33827h1.47794c0.35093,0 0.604,-0.02518 0.75921,-0.07555c0.15522,-0.05037 0.25982,-0.1439 0.31381,-0.28061c0.05399,-0.13671 0.08098,-0.35615 0.08098,-0.65834v-1.51095c-1.72764,0.33097 -2.74667,0.53963 -3.05711,0.62597zM291.5778,178.34871h-1.35646v-4.29542h-3.50251v-1.42461h5.32463c-0.17546,-0.44609 -0.42516,-0.99291 -0.74909,-1.64046l1.43745,-0.45329l0.20246,0.38853c0.12147,0.25902 0.25307,0.53243 0.39479,0.82023c0.14172,0.2878 0.28007,0.5828 0.41504,0.88499h5.4461v1.42461h-4.23136v4.29542h-1.35646v-4.29542h-2.02457zM244.99237,170.72919l1.47794,0.38853c-0.4724,1.7268 -1.03253,3.43202 -1.6804,5.11565v14.15979h-1.49818v-10.72777c-0.4589,0.96413 -0.91106,1.83473 -1.35646,2.61179l-0.80983,-1.68363c0.70185,-1.41022 1.41045,-2.99672 2.1258,-4.7595c0.71535,-1.76278 1.29573,-3.4644 1.74113,-5.10486zM284.08688,182.36353l0.76934,0.23744l0.68835,0.19427c-1.05278,3.43922 -1.82886,6.01503 -2.32826,7.72744l-1.45769,-0.49646c0.25645,-0.76267 0.68161,-2.09735 1.27548,-4.00403c0.59388,-1.90668 0.9448,-3.12623 1.05278,-3.65866zM251.36978,182.12609h4.47431v-3.38885h-4.35283c-0.02699,1.5829 -0.06749,2.71252 -0.12147,3.38885zM255.84409,177.11836v-3.43202h-4.35283v3.43202zM288.66242,174.83035l0.9718,0.94974c-0.40491,0.53243 -0.92118,1.11883 -1.5488,1.75918c-0.62762,0.64036 -1.22487,1.19797 -1.79175,1.67284l-0.78958,-1.10084c1.33622,-1.13681 2.389,-2.23045 3.15833,-3.28093zM286.29367,174.35548l-0.91106,1.33827c-0.49939,-0.48926 -1.57917,-1.4462 -3.23932,-2.87081l0.91106,-1.23035c0.64786,0.50365 1.72764,1.42461 3.23932,2.76289zM281.6169,178.15444l0.91106,-1.27352c1.53868,1.26632 2.61845,2.18728 3.23932,2.76289l-0.9718,1.33827c-0.91781,-0.84901 -1.97733,-1.79156 -3.17858,-2.82764zM295.6067,175.99594l0.76934,-1.03608c0.52639,0.4317 1.13039,0.93895 1.81199,1.52175c0.68161,0.5828 1.21137,1.05407 1.58929,1.41382l-0.83008,1.14401c-0.78283,-0.77706 -1.89635,-1.79156 -3.34055,-3.04349z" fill="#ffffff" fill-rule="evenodd" stroke="#ffffff" stroke-width="0.5" stroke-linecap="round"/></g></g></svg>