<svg version="1.1" xmlns="http://www.w3.org/2000/svg" xmlns:xlink="http://www.w3.org/1999/xlink" width="208" height="32" viewBox="0,0,208,32"><g transform="translate(-240,-164.00001)"><g stroke-miterlimit="10"><path d="M270.89841,186.6108h5.23567v-12.77862h1.522v15.81193h-1.522v-1.35531h-13.6168v-14.45662h1.56258v12.77862h5.23567v-16.22067h1.58288zM299.34961,183.74959h-10.08577c-1.02819,1.20472 -2.28638,2.45246 -3.77455,3.74323l9.11169,-0.36572l-2.23226,-2.23733l0.99437,-1.05413c0.58174,0.55933 1.13981,1.10433 1.6742,1.63498c0.53439,0.53065 1.00452,0.99676 1.41038,1.39833c1.46112,1.46287 2.06315,2.05806 1.8061,1.78556l-1.05525,1.22623c-0.22999,-0.25815 -0.64939,-0.70992 -1.25818,-1.35531l-12.54126,0.58085l-0.38557,-1.52741c1.59641,-1.20472 2.99664,-2.48115 4.20071,-3.82928h-5.82418v-1.46287h2.67871v-11.18667h12.54126v11.18667h2.73959zM242.08193,189.6441v-18.26439h15.4432v15.05898c0,0.83183 -0.08794,1.45929 -0.26381,1.88237c-0.17587,0.42309 -0.46675,0.71351 -0.87261,0.87127c-0.40587,0.15776 -1.00114,0.23664 -1.78581,0.23664h-2.51637l-0.28411,-1.63498h2.33373c0.54115,0 0.93687,-0.04303 1.18716,-0.12908c0.25028,-0.08605 0.41939,-0.25457 0.50733,-0.50555c0.08794,-0.25098 0.13191,-0.64897 0.13191,-1.19396v-12.99375h-12.31803v16.67244zM339.53033,173.12225l-1.68434,5.48577c0.71703,0.98959 1.2176,1.86803 1.5017,2.63532c0.28411,0.76729 0.42616,1.58119 0.42616,2.44171c0,1.21906 -0.24352,2.08674 -0.73056,2.60305c-0.48704,0.51631 -1.30554,0.77446 -2.45549,0.77446h-1.15672l-0.3044,-1.52741h1.05525c0.7982,0 1.35627,-0.15417 1.6742,-0.46253c0.31793,-0.30835 0.47689,-0.85693 0.47689,-1.64573c0,-0.68841 -0.15896,-1.39116 -0.47689,-2.10826c-0.31793,-0.71709 -0.82188,-1.51307 -1.51185,-2.38792l1.64376,-5.82998h-3.40927v16.80152h-1.44082v-18.39347h6.39239zM317.91797,182.41579l1.60317,0.40874c0,0.50197 -0.04735,1.68517 -0.14205,3.54962c-0.04059,0.68841 -0.14543,1.21547 -0.31455,1.58119c-0.16911,0.36572 -0.44307,0.62387 -0.82188,0.77446c-0.37881,0.15059 -0.9132,0.22588 -1.60317,0.22588h-2.09021c-0.68997,0 -1.2176,-0.07888 -1.58288,-0.23664c-0.36528,-0.15776 -0.62233,-0.43743 -0.77115,-0.839c-0.14882,-0.40157 -0.22323,-0.98959 -0.22323,-1.76405v-15.89798h1.56258v7.12075c0.81173,-0.51631 1.66743,-1.10074 2.5671,-1.7533c0.89967,-0.65256 1.69449,-1.26567 2.38446,-1.83935l0.9132,1.48439c-1.16348,0.91788 -3.1184,2.2947 -5.86476,4.13046v6.58293c0,0.38723 0.03382,0.67407 0.10147,0.86051c0.06764,0.18644 0.1894,0.31552 0.36528,0.38723c0.17587,0.07171 0.44645,0.10756 0.81173,0.10756h1.42053c0.6088,0 1.02143,-0.09322 1.23789,-0.27967c0.21646,-0.18644 0.33146,-0.55216 0.34499,-1.09715c0.02706,-0.47328 0.05073,-1.0613 0.07103,-1.76405c0.02029,-0.70275 0.03044,-1.2836 0.03044,-1.74254zM302.04861,177.42482v-1.69951h5.03274v-5.5288h1.58288v19.42609h-1.58288v-4.08744l-4.91098,2.38792l-0.58851,-1.63498l5.49948,-2.66759v-6.1957zM254.74494,185.06187l-1.17701,1.16169c-1.06878,-1.34814 -2.30667,-2.88272 -3.71367,-4.60375c-1.52876,1.82142 -3.03723,3.4062 -4.5254,4.75434l-0.97408,-1.31228c1.56935,-1.40551 3.06429,-2.94726 4.48482,-4.62526c-1.74522,-2.07957 -3.11164,-3.67869 -4.09925,-4.79736l1.07554,-1.03262c1.3123,1.44853 2.65166,2.98311 4.01807,4.60375c1.23113,-1.57761 2.33373,-3.19824 3.30781,-4.8619l1.27848,0.92505c-1.04172,1.70668 -2.23226,3.41337 -3.57162,5.12005c1.10937,1.29077 2.40814,2.84686 3.89631,4.66828zM331.55506,174.13335h-1.522c-0.16235,1.3338 -0.37204,2.58871 -0.62909,3.76475h2.73959v1.54892h-10.16694v-1.54892h2.59754c-0.25705,-1.63498 -0.4938,-2.88989 -0.71027,-3.76475h-1.37994v-1.52741h3.95719c-0.17587,-0.76012 -0.37881,-1.46287 -0.6088,-2.10826l1.5017,-0.38723c0.27058,0.86051 0.50057,1.69234 0.68997,2.49549h3.53103zM324.57417,188.07367v1.44136h-1.42053v-8.11034h7.75204v6.66898zM295.14889,182.28672v-2.36641h-9.59873v2.36641zM285.55016,176.24161v2.28036h9.59873v-2.28036zM285.55016,174.8863h9.59873v-2.25885h-9.59873zM324.57417,186.6108h4.91098v-3.67869h-4.91098zM328.65312,174.13335h-3.34839c0.35175,1.77839 0.58851,3.03331 0.71027,3.76475h2.00904c0.24352,-1.11867 0.45322,-2.37358 0.62909,-3.76475z" fill="#ffffff" fill-rule="evenodd" stroke="#ffffff" stroke-width="0.5" stroke-linecap="round"/><path d="M240,196.00001v-32h208v32z" fill="none" fill-rule="nonzero" stroke="none" stroke-width="0" stroke-linecap="butt"/></g></g></svg>