<svg version="1.1" xmlns="http://www.w3.org/2000/svg" xmlns:xlink="http://www.w3.org/1999/xlink" width="103.70136" height="40.54225" viewBox="0,0,103.70136,40.54225"><g transform="translate(-145.91107,-53.86454)"><g fill="#ffffff" fill-rule="evenodd" stroke="#ffffff" stroke-width="0.5" stroke-linecap="round" stroke-miterlimit="10"><path d="M195.7547,66.17151v1.47997h-7.14969c-0.13896,0.31962 -0.27098,0.59754 -0.39605,0.83378c0.52806,0.22234 1.44522,0.62534 2.75148,1.20899c2.23732,1.00054 3.77287,1.66757 4.60665,2.00108l-0.77125,1.47997l-1.39659,-0.66703c-2.87655,-1.37574 -4.90542,-2.3207 -6.08662,-2.83486c-0.7782,0.81989 -1.86212,1.51123 -3.25175,2.07404c-1.38964,0.5628 -3.24481,1.08739 -5.5655,1.57377l-0.5628,-1.5425c2.682,-0.51417 4.69698,-1.08392 6.04493,-1.70926c1.34795,-0.62534 2.3068,-1.43133 2.87655,-2.41797h-9.2133v-1.47997h9.77611c0.19455,-0.7504 0.31267,-1.83432 0.35436,-3.25175l0.10422,-3.79371h1.58419c0,0.69482 -0.02779,1.75094 -0.08338,3.16838l-0.02084,0.85463c-0.0139,1.11171 -0.11812,2.1192 -0.31267,3.02246zM193.48264,60.75192v-2.7098h-13.52813v2.66811h-1.64672v-4.14807h8.00432l-0.87547,-2.12615l1.7301,-0.29182l1.00054,2.41797h6.94125v4.18976zM179.78775,63.06567l0.64618,-1.25067l1.60503,0.87547c1.76484,0.97275 2.81402,1.55639 3.14753,1.75094l-0.72956,1.27152c-1.00054,-0.62534 -2.55693,-1.50776 -4.66919,-2.64726zM186.60393,61.37726l-0.66703,1.3549c-0.69482,-0.44468 -2.15394,-1.29931 -4.37736,-2.56388l0.66703,-1.27152c2.18173,1.20899 3.64085,2.03582 4.37736,2.48051z"/><path d="M214.47313,58.43817h2.2929v1.60503h-2.2929v10.21384c0,0.72261 -0.08685,1.27499 -0.26056,1.65714c-0.17371,0.38215 -0.47595,0.65313 -0.90674,0.81294c-0.43079,0.15981 -1.05613,0.23971 -1.87601,0.23971h-2.56388l-0.31267,-1.66757h2.41797c0.56975,0 0.98317,-0.03822 1.24025,-0.11465c0.25708,-0.07643 0.43079,-0.21887 0.52111,-0.42731c0.09033,-0.20845 0.13549,-0.53501 0.13549,-0.9797v-9.73442h-6.39929v-1.60503h6.39929v-4.16892h1.60503zM200.7574,70.90323v1.5425h-1.50081v-16.50891h6.33675v14.96641zM204.11338,64.17042h-3.35598v5.08608h3.35598zM200.7574,62.62793h3.35598v-5.06523h-3.35598zM211.138,66.46333l-1.3549,0.72956c-0.33351,-0.66703 -0.76778,-1.49039 -1.30279,-2.47008c-0.53501,-0.9797 -0.97622,-1.76137 -1.32363,-2.34502l1.27152,-0.70872c0.41689,0.68092 0.89632,1.50081 1.43828,2.45966c0.54196,0.95885 0.9658,1.73705 1.27152,2.33459z"/><path d="M156.38205,90.96235l0.04248,0.61597l-1.52931,0.19117v2.31521h-1.42311v-2.12405c-4.00737,0.46729 -6.38631,0.76466 -7.13681,0.8921l-0.14869,-1.35939l1.10451,-0.12744l0.72218,-0.08496v-7.43417h-1.82669v-1.29567h18.5642v1.29567h-9.85559v6.58456l1.44436,-0.19117zM164.81453,92.42794l-0.61597,1.44436c-1.72756,-0.66554 -3.15776,-1.44436 -4.29058,-2.33646c-1.04787,0.8921 -2.33646,1.69217 -3.86577,2.40018l-0.70094,-1.3594c1.40187,-0.53809 2.58426,-1.19655 3.54717,-1.97536c-0.52393,-0.55226 -0.99477,-1.16469 -1.4125,-1.83731c-0.41773,-0.67261 -0.81776,-1.44081 -1.20009,-2.30459v-1.31691h7.22177v1.42311c-0.59474,1.501 -1.43019,2.82499 -2.50638,3.97198c0.96291,0.70802 2.23734,1.33814 3.82329,1.8904zM148.75671,81.29792v-6.01106h13.424v6.01106zM160.67263,78.85526h-10.40785v1.2107h10.40785zM150.26478,77.72951h10.40785v-1.18946h-10.40785zM161.88334,86.45936h-4.05693c0.55226,1.27443 1.25319,2.33645 2.10281,3.18607c0.86378,-0.93458 1.51515,-1.9966 1.95412,-3.18607zM149.45765,89.28435v1.82668l4.01446,-0.48853v-1.33815zM153.4721,88.1586v-1.59304h-4.01446v1.59304zM149.45765,85.43982h4.01446v-1.59304h-4.01446z"/><path d="M186.11875,92.34298l-1.01954,1.59304c-4.21978,-2.4639 -6.98812,-5.48713 -8.30504,-9.06969c-0.65138,1.81252 -1.6957,3.46928 -3.13297,4.97028c-1.43727,1.501 -3.18253,2.88871 -5.23578,4.16314l-1.04078,-1.61428c2.43558,-1.35939 4.40033,-2.94889 5.89424,-4.76849c1.49391,-1.8196 2.33291,-3.86223 2.517,-6.12788h-8.07138v-1.63552h8.09263v-5.22516h1.69924v5.22516h8.15635v1.63552h-8.17759c-0.01416,0.0708 -0.02124,0.177 -0.02124,0.31861c0.46729,2.27981 1.39126,4.26225 2.77188,5.94733c1.38063,1.68508 3.3383,3.2144 5.873,4.58795z"/><path d="M196.97264,89.07194h-1.74172v3.27103l3.2498,-0.80714l0.04248,1.21071l-5.01275,1.35939l-0.46729,-1.12575c0.31152,-0.12744 0.50977,-0.23364 0.59473,-0.3186c0.08496,-0.08496 0.12744,-0.19825 0.12744,-0.33985v-3.24979h-1.97536c-0.11328,0.96291 -0.33276,1.8373 -0.65846,2.6232c-0.32569,0.7859 -0.7859,1.57533 -1.38064,2.36831l-1.33815,-0.93458c0.77882,-1.00539 1.30983,-1.96829 1.59303,-2.88871c0.28321,-0.92042 0.42481,-2.14529 0.42481,-3.6746v-3.05863h16.03658v1.06203h-14.54975v2.33645c0,0.48145 -0.00708,0.83546 -0.02124,1.06202h14.99579v1.10451h-8.28379c0.79298,0.83546 1.69216,1.49392 2.69754,1.97536c1.81252,-0.8213 3.07988,-1.43019 3.80205,-1.82668l0.63721,1.10451c-0.52393,0.25489 -1.47975,0.69385 -2.86747,1.31691c1.26027,0.35401 2.78958,0.61597 4.58794,0.78589l-0.61597,1.31692c-1.68508,-0.21241 -3.12235,-0.50978 -4.31182,-0.89211c-1.18947,-0.38233 -2.22671,-0.8744 -3.11173,-1.47621c-0.88502,-0.60182 -1.70278,-1.37001 -2.45328,-2.30459zM197.27001,82.84847v-3.97197h-6.28718v2.74003h-1.50808v-3.80205h7.79526v-1.14699h-7.05184v-1.18946h15.69673v1.18946h-7.15805v1.14699h7.88022v3.80205h-1.48684v-2.74003h-6.39339v3.97197zM192.8095,85.75842h12.68058v1.04078h-12.68058zM192.17229,80.80939v-0.95582h3.99322v0.95582zM199.94631,80.80939v-0.95582h3.97197v0.95582zM196.1655,81.61653v0.93458h-3.99322v-0.93458zM199.96755,82.55111v-0.93458h3.97198v0.93458z"/><path d="M216.47142,81.78645h-3.356v1.80544c0,1.75588 -0.06726,3.21794 -0.20179,4.38617c-0.13452,1.16823 -0.34339,2.19839 -0.6266,3.09049c-0.28321,0.8921 -0.6797,1.87624 -1.18947,2.95243l-1.40187,-0.82838c0.50977,-1.09034 0.8921,-2.05325 1.14699,-2.88871c0.25489,-0.83546 0.43897,-1.79836 0.55226,-2.88871c0.11328,-1.09034 0.16993,-2.52054 0.16993,-4.29058v-6.41463h7.90147c-0.12744,-0.53809 -0.26905,-1.04079 -0.42481,-1.50808c-0.02832,-0.09912 -0.05664,-0.1947 -0.08496,-0.28674c-0.02832,-0.09204 -0.04956,-0.17346 -0.06372,-0.24426l1.7842,-0.21241c0.25489,0.84962 0.47438,1.60012 0.65846,2.2515h6.98812v1.42311h-3.50468v2.31522h3.44096v1.33815h-3.44096v3.16483h-8.34752zM228.51478,92.3005l-0.50977,1.59304c-1.67092,-0.26905 -3.11527,-0.56287 -4.33306,-0.88148c-1.21779,-0.31861 -2.3223,-0.70448 -3.31352,-1.15761c-1.86917,0.8213 -4.24102,1.54348 -7.11557,2.16653l-0.63721,-1.48683c2.44974,-0.42481 4.48882,-0.93458 6.11726,-1.52931c-1.33107,-0.8213 -2.68338,-1.93997 -4.05693,-3.356v-1.31691h11.51235v1.33815c-1.09035,1.33107 -2.43557,2.43558 -4.0357,3.31352c1.55764,0.53809 3.68169,0.97706 6.37215,1.31691zM224.13924,87.64883h-7.28549c1.1045,1.13282 2.29397,2.01077 3.5684,2.63382c1.48684,-0.70802 2.72586,-1.58595 3.71709,-2.63382zM217.9795,78.13308v2.31522h5.28889v-2.31522zM217.9795,81.78645v1.82668h5.28889v-1.82668zM213.11542,80.4483h3.356v-2.31522h-3.356z"/><path d="M247.8224,88.20108l1.52931,0.36109l-0.12744,2.40018c-0.04248,0.63721 -0.16285,1.12574 -0.36109,1.46559c-0.19824,0.33985 -0.51685,0.58058 -0.95583,0.72218c-0.43897,0.1416 -1.06202,0.2124 -1.86916,0.2124h-9.72815c-1.13282,0 -1.94351,-0.23364 -2.43204,-0.70093c-0.48853,-0.46729 -0.7328,-1.27444 -0.7328,-2.42142v-8.6024c-0.45313,0.39649 -0.79298,0.68677 -1.01954,0.87086l-1.08327,-1.29567c1.21779,-0.96291 2.35062,-2.04263 3.39848,-3.23918c1.04787,-1.19655 1.91164,-2.43204 2.59134,-3.70647l1.52932,0.67969c-0.31152,0.55226 -0.59474,1.01955 -0.84962,1.40188h7.92271v1.31691l-2.50638,2.93119h4.60919v6.66951h-12.97795v2.5701c0,0.55226 0.06018,0.96645 0.18054,1.24257c0.12036,0.27612 0.32923,0.47083 0.62659,0.58411c0.29737,0.11329 0.73634,0.16992 1.31692,0.16992h8.83604c0.55226,0 0.96291,-0.04248 1.23195,-0.12744c0.26905,-0.08496 0.46375,-0.2301 0.58411,-0.43543c0.12036,-0.20533 0.1947,-0.52748 0.22303,-0.96645zM243.55306,77.81448h-6.88192c-0.70801,0.94874 -1.51516,1.87624 -2.42142,2.78251h6.77572zM241.19536,82.1263v3.69584h4.94904v-3.69584zM239.64481,82.1263h-4.88531v3.69584h4.88531z"/></g></g></svg>