<svg version="1.1" xmlns="http://www.w3.org/2000/svg" xmlns:xlink="http://www.w3.org/1999/xlink" width="119.45819" height="21.82743" viewBox="0,0,119.45819,21.82743"><g transform="translate(-239.917,-170.1085)"><g fill="#ffffff" fill-rule="evenodd" stroke="#ffffff" stroke-width="0.5" stroke-linecap="round" stroke-miterlimit="10"><path d="M251.68273,170.69517h1.43391v3.31571h4.28154v12.15002h-4.28154v5.33692h-1.43391v-5.33692h-4.32193v-12.15002h4.32193zM244.47278,180.25621v0.06813c0.44431,0.3785 0.92228,0.81 1.43391,1.29449c0.51163,0.48449 0.90882,0.87813 1.19156,1.18094l-0.90882,1.27178c-0.44431,-0.49963 -1.01653,-1.0901 -1.71666,-1.7714v9.15226h-1.39352v-8.92515c-0.60588,0.89327 -1.31947,1.80169 -2.14077,2.72524l-0.72705,-1.63514c0.94248,-1.04467 1.76041,-2.1272 2.45381,-3.24758c0.69339,-1.12038 1.3161,-2.34673 1.86813,-3.67907h-3.75645v-1.72598h5.35193v1.70327c-0.49817,1.30206 -1.05019,2.49813 -1.65607,3.58823zM248.75432,179.27967h2.92841v-3.67907h-2.92841zM253.11665,179.27967h2.92841v-3.67907h-2.92841zM251.68273,180.8921h-2.92841v3.65636h2.92841zM256.04506,180.8921h-2.92841v3.65636h2.92841zM244.97768,174.14714l-1.35313,0.59047c-0.39046,-1.22636 -0.8213,-2.43757 -1.29254,-3.63365l1.35313,-0.52234c0.29621,0.77215 0.72705,1.96066 1.29254,3.56552z"/><path d="M261.3364,181.73238l-0.72705,-1.52159c1.45411,-0.74187 2.66923,-1.52159 3.64537,-2.33916c0.97614,-0.81757 1.79407,-1.75626 2.45381,-2.81608h-5.77604v-1.61243h6.62427c0.36353,-0.84785 0.68666,-1.76383 0.96941,-2.74795l1.55509,0.2271c-0.24235,0.87813 -0.52509,1.71841 -0.84823,2.52084h8.92661v1.61243h-5.79624c0.74052,1.1658 1.61231,2.14991 2.61538,2.95234c1.00307,0.80243 2.19126,1.45346 3.56459,1.95309l-0.68666,1.63514c-1.62914,-0.74187 -3.02266,-1.64271 -4.18056,-2.70253v1.3172h-8.30054v-1.24907c-1.09058,0.99925 -2.43698,1.92281 -4.03919,2.77066zM277.55375,182.70892v1.63514h-6.9676v4.42851c0,0.65103 -0.06732,1.14687 -0.20196,1.48753c-0.13464,0.34065 -0.36689,0.5829 -0.69676,0.72673c-0.32987,0.14383 -0.81794,0.21575 -1.46421,0.21575h-2.28214l-0.30294,-1.65785h2.03979c0.43085,0 0.73715,-0.03785 0.91892,-0.11355c0.18176,-0.0757 0.29957,-0.21196 0.35343,-0.40879c0.05386,-0.19682 0.08078,-0.52234 0.08078,-0.97654v-3.70178h-7.4725v-1.63514zM270.70732,175.05555h-2.24175c-0.74052,1.33234 -1.63587,2.51327 -2.68606,3.54281h7.59368c-1.02326,-0.99925 -1.91188,-2.18019 -2.66587,-3.54281zM272.52496,186.31986l0.82803,-1.3172c0.59241,0.42393 1.41708,1.05603 2.474,1.89631c1.05692,0.84028 1.96237,1.57837 2.71636,2.21426l-0.90882,1.45346c-0.8213,-0.72673 -1.73012,-1.50267 -2.72645,-2.32781c-0.99633,-0.82514 -1.79071,-1.46482 -2.38312,-1.91902zM265.57755,184.88911l1.05019,1.11281c-0.60588,0.75701 -1.36659,1.55944 -2.28214,2.40729c-0.91555,0.84785 -1.82437,1.60486 -2.72645,2.27103l-0.84823,-1.45346c0.90209,-0.63589 1.78061,-1.33612 2.63557,-2.1007c0.85496,-0.76458 1.57865,-1.51024 2.17106,-2.23697z"/><path d="M282.36038,191.47511l-1.4945,-0.99925c0.84823,-1.33234 1.45411,-2.48299 1.81764,-3.45197c0.36353,-0.96897 0.60588,-2.09313 0.72705,-3.37248c0.12118,-1.27935 0.18176,-3.16809 0.18176,-5.66622v-6.90394h1.59548v6.88123c0,2.67982 -0.06732,4.72375 -0.20196,6.13179c-0.13464,1.40804 -0.39046,2.63818 -0.76745,3.69043c-0.37699,1.05224 -0.99633,2.28239 -1.85803,3.69043zM295.50795,191.29342v-20.23489h1.59548v20.23489zM289.52995,190.20333v-18.37265h1.57528v18.37265z"/><path d="M318.89486,185.0708h-10.03739c-1.02326,1.27178 -2.27541,2.58898 -3.75645,3.95159l9.06798,-0.38608l-2.22155,-2.36187l0.9896,-1.11281c0.57895,0.59047 1.13434,1.1658 1.66617,1.72598c0.53183,0.56019 0.9997,1.05224 1.40362,1.47617c1.45411,1.5443 2.05325,2.17262 1.79744,1.88496l-1.05019,1.29449c-0.22889,-0.27252 -0.64627,-0.74944 -1.25215,-1.43075l-12.4811,0.61318l-0.38372,-1.61243c1.58875,-1.27178 2.98227,-2.61926 4.18056,-4.04244h-5.79624v-1.5443h2.66587v-11.80936h12.4811v11.80936h2.72645zM314.7143,183.5265v-2.49813h-9.55268v2.49813zM305.16161,177.1449v2.40729h9.55268v-2.40729zM305.16161,175.71415h9.55268v-2.38458h-9.55268z"/><path d="M337.73768,180.75584v1.68056h-6.28094v5.99552c0,0.99925 -0.20869,1.69949 -0.62607,2.1007c-0.41738,0.40122 -1.10404,0.60182 -2.05999,0.60182h-2.18116l-0.26255,-1.79411h2.05999c0.41738,0 0.72705,-0.03407 0.92901,-0.1022c0.20196,-0.06813 0.33997,-0.19682 0.41402,-0.38608c0.07405,-0.18925 0.11108,-0.4807 0.11108,-0.87435v-5.54132h-6.82623v-1.70327c0.72705,-1.22636 1.62914,-2.99776 2.70626,-5.31421h-4.18056v-1.70327h4.9682c0.53856,-1.22636 0.98287,-2.31645 1.33293,-3.27029l1.53489,0.68131c-0.21542,0.65103 -0.55875,1.51402 -1.02999,2.58898h10.23935v1.70327h-11.00679c-1.1579,2.52842 -2.04652,4.30739 -2.66587,5.33692h4.92781v-3.97431h1.61568v3.97431zM325.72109,183.64005l1.23195,1.18094c-0.64627,1.02953 -1.40362,2.08935 -2.27204,3.17944c-0.86843,1.0901 -1.71329,2.01365 -2.53459,2.77066l-1.05019,-1.47617c0.79437,-0.66617 1.60558,-1.51402 2.43361,-2.54356c0.82803,-1.02953 1.55845,-2.06664 2.19126,-3.11131zM332.97144,184.95725l1.09058,-1.27178c0.63281,0.65103 1.44064,1.52538 2.42351,2.62304c0.98287,1.09767 1.84456,2.07042 2.58508,2.91828l-1.13097,1.36262c-0.6732,-0.84785 -1.50123,-1.83197 -2.4841,-2.95234c-0.98287,-1.12038 -1.8109,-2.01365 -2.4841,-2.67982z"/><path d="M358.88284,173.8519l-1.67626,5.79113c0.71359,1.04467 1.21176,1.97201 1.4945,2.78201c0.28274,0.81 0.42411,1.66921 0.42411,2.57762c0,1.28692 -0.24235,2.2029 -0.72705,2.74795c-0.4847,0.54505 -1.29927,0.81757 -2.44371,0.81757h-1.15117l-0.30294,-1.61243h1.05019c0.79437,0 1.34976,-0.16276 1.66617,-0.48827c0.3164,-0.32551 0.4746,-0.90463 0.4746,-1.73734c0,-0.72673 -0.1582,-1.4686 -0.4746,-2.22561c-0.3164,-0.75701 -0.81794,-1.59729 -1.5046,-2.52084l1.63587,-6.1545h-3.39292v17.73676h-1.43391v-19.41732h6.36172zM350.94583,174.91929h-1.5147c-0.16157,1.40804 -0.37026,2.73281 -0.62607,3.97431h2.72645v1.63514h-10.11817v-1.63514h2.58508c-0.25582,-1.72598 -0.49144,-3.05075 -0.70686,-3.97431h-1.37332v-1.61243h3.93821c-0.17503,-0.80243 -0.37699,-1.5443 -0.60588,-2.22561l1.4945,-0.40879c0.26928,0.90841 0.49817,1.78654 0.68666,2.6344h3.5141zM343.99842,189.63557v1.52159h-1.41372v-8.56179h7.71485v7.0402zM343.99842,188.09127h4.88742v-3.88346h-4.88742zM348.05781,174.91929h-3.33233c0.35006,1.87739 0.58568,3.20215 0.70686,3.97431h1.9994c0.24235,-1.18094 0.45104,-2.50571 0.62607,-3.97431z"/></g></g></svg>