<svg version="1.1" xmlns="http://www.w3.org/2000/svg" xmlns:xlink="http://www.w3.org/1999/xlink" width="169.76211" height="32" viewBox="0,0,169.76211,32"><g transform="translate(-240,-164)"><g stroke="none" stroke-miterlimit="10"><path d="M249.32073,174.49915h9.99166v9.38213h-2.0411v-7.27469h-5.98722v7.41654h-1.96334v-9.52397M253.24741,170.4464h2.09941v18.78452h-2.09941v-18.78452M249.98165,180.6796h8.86419v2.08717h-8.86419v-2.08717M244.55817,172.20935h2.0411v17.08236h-2.0411v-17.08236M241.60344,176.09999h7.23132v2.02638h-7.23132v-2.02638M244.65536,176.89028l1.2441,0.56739c-0.19439,0.7295 -0.42377,1.48196 -0.68814,2.25738c-0.26696,0.77813 -0.55596,1.54815 -0.86698,2.31007c-0.31102,0.76462 -0.64797,1.48061 -1.01083,2.14796c-0.36286,0.67006 -0.7322,1.24825 -1.10802,1.73458c-0.09072,-0.31071 -0.23327,-0.666 -0.42766,-1.06587c-0.19439,-0.39717 -0.37582,-0.73085 -0.54429,-1.00103c0.33694,-0.40528 0.67389,-0.88485 1.01083,-1.43873c0.33694,-0.55388 0.65834,-1.14558 0.96418,-1.77511c0.30325,-0.62683 0.57799,-1.26176 0.82421,-1.90479c0.24623,-0.64034 0.4471,-1.25095 0.60261,-1.83185M247.94056,170.58825l1.16634,1.78321c-0.64797,0.24317 -1.35684,0.46607 -2.12663,0.6687c-0.77238,0.20264 -1.56678,0.37826 -2.38322,0.52686c-0.81644,0.1486 -1.60696,0.27018 -2.37156,0.36475c-0.03888,-0.24317 -0.11404,-0.52686 -0.22549,-0.85108c-0.10886,-0.32422 -0.2216,-0.60116 -0.33824,-0.83081c0.75164,-0.12158 1.50717,-0.26748 2.26659,-0.4377c0.75683,-0.16751 1.48514,-0.35664 2.18495,-0.56739c0.6998,-0.20804 1.30889,-0.42689 1.82727,-0.65655M246.54095,178.41006c0.11663,0.10807 0.29806,0.30396 0.54429,0.58765c0.24623,0.28369 0.5093,0.5944 0.78922,0.93213c0.27733,0.33773 0.53004,0.64844 0.75812,0.93213c0.22549,0.28369 0.39008,0.48633 0.49375,0.60791l-1.20522,1.70216c-0.11663,-0.24317 -0.27215,-0.54037 -0.46654,-0.89161c-0.19439,-0.35124 -0.40822,-0.72004 -0.64149,-1.1064c-0.23327,-0.38366 -0.45358,-0.74436 -0.66093,-1.08209c-0.20735,-0.33773 -0.38878,-0.61467 -0.54429,-0.83081zM261.23685,179.24088h17.68951v2.18849h-17.68951v-2.18849M263.16131,171.60144h12.36322v2.14796h-12.36322v-2.14796M274.90248,171.60144h0.56373l0.46654,-0.12158l1.594,1.27662c-0.62205,0.63493 -1.33093,1.27256 -2.12663,1.9129c-0.7983,0.64304 -1.6251,1.24825 -2.48042,1.81563c-0.85532,0.56739 -1.69119,1.06723 -2.50763,1.49952c-0.10367,-0.17562 -0.23716,-0.36205 -0.40044,-0.55928c-0.1607,-0.19453 -0.32528,-0.38366 -0.49375,-0.56739c-0.16847,-0.18102 -0.32398,-0.33908 -0.46654,-0.47417c0.72572,-0.35124 1.47089,-0.77678 2.23549,-1.27662c0.7646,-0.49984 1.467,-1.01319 2.10719,-1.54005c0.64278,-0.52686 1.14561,-1.01319 1.50847,-1.45899v-0.50659M269.05133,176.38369h2.17717v10.294c0,0.63493 -0.08164,1.12126 -0.24493,1.45899c-0.1607,0.33773 -0.46783,0.58765 -0.92141,0.74976c-0.44062,0.17562 -0.99139,0.28639 -1.65232,0.33233c-0.66093,0.04863 -1.44497,0.07295 -2.35212,0.07295c-0.03888,-0.21615 -0.11016,-0.45931 -0.21383,-0.7295c-0.10367,-0.27018 -0.21383,-0.54037 -0.33046,-0.81055c-0.11663,-0.27018 -0.23327,-0.50659 -0.3499,-0.70923c0.46654,0.02702 0.93048,0.04323 1.39183,0.04863c0.45876,0.00811 0.86309,0.00811 1.21299,0c0.3499,-0.0054 0.59613,-0.00811 0.73868,-0.00811c0.20735,0 0.3499,-0.03377 0.42766,-0.10132c0.07776,-0.06755 0.11663,-0.18913 0.11663,-0.36475zM295.89662,179.15982h2.06054c0,0 -0.00389,0.05404 -0.01166,0.16211c-0.00518,0.10807 -0.00778,0.22966 -0.00778,0.36475c0,0.13509 -0.00648,0.25668 -0.01944,0.36475c-0.09072,1.81023 -0.18791,3.27868 -0.29159,4.40534c-0.10367,1.12937 -0.22679,1.99801 -0.36934,2.60592c-0.14255,0.60791 -0.3175,1.04021 -0.52485,1.29688c-0.22031,0.27018 -0.45617,0.45931 -0.70758,0.56739c-0.254,0.10807 -0.54948,0.18237 -0.88642,0.2229c-0.28511,0.04053 -0.65834,0.06079 -1.11969,0.06079c-0.45876,0 -0.94085,-0.00675 -1.44626,-0.02026c-0.02592,-0.2972 -0.0946,-0.63493 -0.20605,-1.01319c-0.10886,-0.37826 -0.24104,-0.69572 -0.39656,-0.9524c0.4795,0.04053 0.92659,0.06349 1.34129,0.0689c0.4147,0.00811 0.71924,0.01216 0.91363,0.01216c0.16847,0 0.30714,-0.01351 0.416,-0.04053c0.11145,-0.02702 0.21901,-0.09456 0.32269,-0.20264c0.14255,-0.16211 0.27215,-0.51335 0.38878,-1.05372c0.11663,-0.54037 0.21772,-1.33741 0.30325,-2.39113c0.08294,-1.05372 0.16329,-2.4249 0.24104,-4.11355v-0.34448M286.29374,181.71306h1.92446v4.80251h-1.92446v-4.80251M291.1535,182.50334h1.90502v5.65359h-1.90502v-5.65359M281.60894,182.54387h1.90502v3.2422h8.43653v1.80348h-10.34156v-5.04568M293.71945,172.10803h1.9439c0,0 0,0.09456 0,0.28369c0,0.18913 -0.00648,0.34448 -0.01944,0.46607c-0.0648,1.01319 -0.13219,1.85751 -0.20217,2.53297c-0.07257,0.67546 -0.1581,1.20907 -0.2566,1.60084c-0.0959,0.39177 -0.22808,0.67546 -0.39656,0.85108c-0.15551,0.20264 -0.32658,0.34719 -0.51319,0.43364c-0.18921,0.08916 -0.40692,0.14725 -0.65315,0.17427c-0.20735,0.04053 -0.47561,0.06349 -0.80478,0.0689c-0.33176,0.00811 -0.68555,0.0054 -1.06137,-0.00811c-0.02592,-0.2972 -0.08424,-0.62548 -0.17495,-0.98482c-0.09072,-0.35664 -0.20735,-0.6633 -0.3499,-0.91998c0.29806,0.02702 0.57021,0.04728 0.81644,0.06079c0.24623,0.01351 0.43414,0.02026 0.56373,0.02026c0.11663,0 0.22031,-0.01351 0.31102,-0.04053c0.09072,-0.02702 0.16847,-0.08106 0.23327,-0.16211c0.12959,-0.1486 0.23975,-0.52686 0.33046,-1.13477c0.09072,-0.60791 0.16847,-1.60084 0.23327,-2.97877v-0.26343M288.00438,170.32482l2.48819,0.2229c-0.20735,0.49984 -0.44062,0.98212 -0.6998,1.44683c-0.25919,0.46742 -0.49245,0.86999 -0.6998,1.20772l-1.84671,-0.34448c0.14255,-0.37826 0.2877,-0.8038 0.43543,-1.27662c0.15033,-0.47282 0.25789,-0.89161 0.32269,-1.25635M285.86608,175.95815l1.03027,-1.37794c0.45358,0.16211 0.93955,0.35799 1.45793,0.58765c0.51837,0.22966 1.01342,0.46607 1.48514,0.70923c0.47431,0.24317 0.86698,0.47282 1.178,0.68897l-1.08859,1.51978c-0.28511,-0.21615 -0.66093,-0.45256 -1.12746,-0.70923c-0.46654,-0.25668 -0.9551,-0.51065 -1.4657,-0.76192c-0.51319,-0.24857 -1.00305,-0.46742 -1.46959,-0.65655M294.32206,172.10803v1.94532h-9.25297v5.10647h11.44958v1.90479h-13.49068v-8.95659zM302.48645,181.24699v-1.68189l1.22466,-0.74976h12.63536v2.1277h-11.62453c-0.36286,0 -0.7024,0.00946 -1.0186,0.02837c-0.3188,0.02162 -0.58447,0.05539 -0.797,0.10132c-0.21513,0.04863 -0.35509,0.10672 -0.41988,0.17427M308.80413,176.14052h2.11885v10.47637c0,0.56739 -0.0648,1.01589 -0.19439,1.34551c-0.12959,0.33233 -0.38878,0.5863 -0.77756,0.76192c-0.36286,0.18913 -0.80996,0.30666 -1.34129,0.35259c-0.53133,0.04863 -1.15338,0.07295 -1.86615,0.07295c-0.02592,-0.21615 -0.08424,-0.45931 -0.17495,-0.7295c-0.09072,-0.27018 -0.18402,-0.53766 -0.27992,-0.80245c-0.09849,-0.26208 -0.19957,-0.49444 -0.30325,-0.69707c0.50541,0.01351 0.99139,0.02296 1.45793,0.02837c0.46654,0.00811 0.78404,0.0054 0.95251,-0.00811c0.15551,0 0.26307,-0.02702 0.32269,-0.08106c0.05702,-0.05404 0.08553,-0.1486 0.08553,-0.28369v-10.43584M303.84718,182.26018l2.09941,0.60791c-0.29806,0.71599 -0.65445,1.42792 -1.06915,2.1358c-0.4147,0.71058 -0.85143,1.37658 -1.31019,1.99801c-0.46135,0.62142 -0.93178,1.16179 -1.41127,1.6211c-0.12959,-0.12158 -0.30066,-0.27424 -0.51319,-0.45796c-0.21513,-0.18102 -0.43284,-0.35664 -0.65315,-0.52686c-0.22031,-0.16751 -0.4147,-0.30531 -0.58317,-0.41338c0.6998,-0.5944 1.35814,-1.33741 1.975,-2.22901c0.61427,-0.89161 1.10284,-1.80348 1.4657,-2.73561M312.10876,183.13152l1.76895,-0.87134c0.46654,0.49984 0.94992,1.04966 1.45015,1.64947c0.49764,0.60251 0.96418,1.19691 1.39961,1.78321c0.43284,0.589 0.77886,1.11991 1.03804,1.59273l-1.90502,1.03345c-0.23327,-0.47282 -0.55336,-1.01049 -0.96029,-1.613c-0.40952,-0.59981 -0.85661,-1.21447 -1.34129,-1.844c-0.48727,-0.62683 -0.97065,-1.20367 -1.45015,-1.73053M300.6203,172.99964h16.62036v2.08717h-16.62036v-2.08717M302.48645,181.24699c-0.03888,-0.1486 -0.09979,-0.35799 -0.18273,-0.62818c-0.08553,-0.27018 -0.18014,-0.55117 -0.28381,-0.84297c-0.10367,-0.2891 -0.20087,-0.53496 -0.29159,-0.7376c0.25919,-0.08106 0.5093,-0.24992 0.75035,-0.50659c0.23845,-0.25668 0.51319,-0.60116 0.82421,-1.03345c0.16847,-0.20264 0.40563,-0.54712 0.71147,-1.03345c0.30325,-0.48633 0.64019,-1.06452 1.01083,-1.73458c0.36804,-0.66735 0.73998,-1.38604 1.1158,-2.15607c0.37582,-0.77002 0.71924,-1.55356 1.03027,-2.3506l2.27437,0.87134c-0.49245,1.10775 -1.03675,2.19524 -1.63288,3.26247c-0.59613,1.06723 -1.20781,2.08041 -1.83504,3.03957c-0.62982,0.95915 -1.24928,1.82374 -1.85837,2.59376v0.04053c0,0 -0.08424,0.04323 -0.25271,0.12969c-0.16847,0.08916 -0.35638,0.19723 -0.56373,0.32422c-0.20735,0.12969 -0.39526,0.26208 -0.56373,0.39717c-0.16847,0.13509 -0.25271,0.25668 -0.25271,0.36475zM319.74829,172.16882h17.22297v2.02638h-17.22297v-2.02638M323.94712,180.72013h8.84475v1.70216h-8.84475v-1.70216M323.5389,183.96234h9.66119v1.76295h-9.66119v-1.76295M327.31007,181.55095h1.98278v7.23417h-1.98278v-7.23417M320.56473,175.89735h14.07385v2.00611h-11.97444v11.36798h-2.09941v-13.37409M334.03597,175.89735h2.13829v11.12481c0,0.55388 -0.07387,0.97536 -0.2216,1.26446c-0.15033,0.2918 -0.4134,0.512 -0.78922,0.6606c-0.37582,0.1486 -0.84884,0.23911 -1.41905,0.27153c-0.57021,0.03512 -1.2441,0.05269 -2.02166,0.05269c-0.05184,-0.27018 -0.14515,-0.58495 -0.27992,-0.94429c-0.13737,-0.35664 -0.27733,-0.6633 -0.41988,-0.91998c0.3499,0.01351 0.6998,0.02702 1.04971,0.04053c0.3499,0.01351 0.66481,0.01621 0.94474,0.00811c0.27733,-0.0054 0.46135,-0.00811 0.55207,-0.00811c0.18143,-0.01351 0.30455,-0.05133 0.36934,-0.11348c0.0648,-0.05944 0.0972,-0.16346 0.0972,-0.31206v-11.12481M324.76356,178.47085l1.65232,-0.50659c0.23327,0.33773 0.45746,0.71599 0.67259,1.13477c0.21253,0.41879 0.37064,0.79029 0.47431,1.11451l-1.74951,0.60791c-0.07776,-0.32422 -0.22031,-0.70923 -0.42766,-1.15504c-0.20735,-0.4458 -0.4147,-0.84432 -0.62205,-1.19556M330.362,177.98452l1.76895,0.52686c-0.25919,0.48633 -0.51837,0.96591 -0.77756,1.43873c-0.25919,0.47282 -0.51189,0.88485 -0.75812,1.23609l-1.47737,-0.46607c0.15551,-0.25668 0.30843,-0.54712 0.45876,-0.87134c0.14774,-0.32422 0.29288,-0.64844 0.43543,-0.97266c0.14255,-0.32422 0.25919,-0.62142 0.3499,-0.89161M327.23232,170.48693h2.2938v6.80863h-2.2938zM346.1076,175.95815h1.9439c-0.09072,0.85108 -0.18791,1.74539 -0.29159,2.68292c-0.10367,0.94024 -0.21772,1.87237 -0.34213,2.7964c-0.12182,0.92673 -0.23716,1.80483 -0.34601,2.63429c-0.11145,0.83217 -0.21901,1.56571 -0.32269,2.20065h-2.02166c0.12959,-0.66195 0.25919,-1.41576 0.38878,-2.26144c0.12959,-0.84297 0.2566,-1.72782 0.381,-2.65455c0.12182,-0.92403 0.23456,-1.84941 0.33824,-2.77614c0.10367,-0.92403 0.19439,-1.79807 0.27215,-2.62213M349.02346,178.30874l1.08859,-0.7295c0.3499,0.28369 0.71276,0.61467 1.08859,0.99292c0.37582,0.37826 0.66741,0.70923 0.87476,0.99292l-1.1469,0.83081c-0.18143,-0.2972 -0.45617,-0.64574 -0.82421,-1.04561c-0.37064,-0.39717 -0.73091,-0.74436 -1.08081,-1.04156M348.4986,182.50334l1.1469,-0.74976c0.38878,0.31071 0.79441,0.6687 1.21688,1.07398c0.41988,0.40528 0.74646,0.77002 0.97973,1.09424l-1.18578,0.85108c-0.22031,-0.31071 -0.53781,-0.68221 -0.95251,-1.11451c-0.4147,-0.43229 -0.81644,-0.8173 -1.20522,-1.15504M346.37975,172.49304h10.04997v1.96559h-10.04997v-1.96559M346.92404,175.95815h7.40627v1.86427h-7.40627v-1.86427M343.65829,180.0109h13.27685v1.96559h-13.27685v-1.96559M345.77714,184.40814h10.65258v1.86427h-10.65258v-1.86427M346.49639,170.36534l2.02166,0.54712c-0.25919,0.83757 -0.5728,1.67109 -0.94085,2.50055c-0.37064,0.83217 -0.76331,1.613 -1.178,2.34249c-0.4147,0.7295 -0.83588,1.37118 -1.26354,1.92506c-0.12959,-0.12158 -0.30843,-0.25668 -0.53652,-0.40528c-0.22549,-0.1486 -0.44839,-0.2972 -0.6687,-0.4458c-0.22031,-0.1486 -0.4147,-0.27018 -0.58317,-0.36475c0.44062,-0.48633 0.85791,-1.05777 1.25187,-1.71432c0.39656,-0.65385 0.75683,-1.35632 1.08081,-2.10743c0.32398,-0.74841 0.59613,-1.50762 0.81644,-2.27765M353.7277,175.95815h1.9439c0,0 -0.00259,0.06079 -0.00778,0.18237c-0.00778,0.12158 -0.01166,0.25262 -0.01166,0.39312c0,0.1432 -0.00648,0.26208 -0.01944,0.35664c-0.07776,1.93181 -0.15551,3.56913 -0.23327,4.91194c-0.07776,1.34551 -0.16458,2.45056 -0.26048,3.31515c-0.09849,0.86459 -0.20864,1.54005 -0.33046,2.02638c-0.12441,0.48633 -0.27085,0.83757 -0.43932,1.05372c-0.22031,0.31071 -0.44969,0.52281 -0.68814,0.63628c-0.24104,0.11618 -0.51708,0.20129 -0.8281,0.25532c-0.28511,0.04053 -0.64797,0.06079 -1.08859,0.06079c-0.44062,0 -0.90067,-0.01351 -1.38017,-0.04053c-0.01296,-0.27018 -0.0648,-0.57414 -0.15551,-0.91187c-0.09072,-0.33773 -0.21383,-0.63493 -0.36934,-0.89161c0.45358,0.04053 0.86828,0.06755 1.2441,0.08106c0.37582,0.01351 0.65445,0.02026 0.83588,0.02026c0.16847,0 0.30455,-0.02432 0.40822,-0.07295c0.10367,-0.04593 0.20735,-0.12969 0.31102,-0.25127c0.12959,-0.1486 0.24623,-0.44986 0.3499,-0.90376c0.10367,-0.45121 0.20087,-1.09289 0.29159,-1.92506c0.09072,-0.82946 0.17236,-1.88994 0.24493,-3.18141c0.06998,-1.28878 0.13089,-2.85179 0.18273,-4.68904v-0.42554M339.88712,172.16882l1.16634,-1.47926c0.37582,0.17562 0.78015,0.38501 1.21299,0.62818c0.43543,0.24317 0.85143,0.49308 1.24799,0.74976c0.39396,0.25668 0.71406,0.49308 0.96029,0.70923l-1.22466,1.64137c-0.23327,-0.21615 -0.5404,-0.46337 -0.92141,-0.74165c-0.3836,-0.27559 -0.79311,-0.54577 -1.22855,-0.81055c-0.43284,-0.26208 -0.83717,-0.49444 -1.21299,-0.69707M338.79853,177.96426l1.12746,-1.45899c0.37582,0.17562 0.76719,0.38096 1.17412,0.61602c0.40952,0.23776 0.7983,0.47823 1.16634,0.72139c0.37064,0.24317 0.67259,0.47282 0.90586,0.68897l-1.20522,1.66163c-0.20735,-0.22966 -0.49245,-0.47958 -0.85532,-0.74976c-0.36286,-0.27018 -0.74775,-0.53361 -1.15468,-0.79029c-0.40952,-0.25668 -0.7957,-0.48633 -1.15857,-0.68897M339.34283,187.79219c0.25919,-0.52686 0.54818,-1.14828 0.86698,-1.86427c0.31621,-0.71599 0.63371,-1.47926 0.95251,-2.28981c0.31621,-0.81055 0.61039,-1.60759 0.88253,-2.39113l1.594,1.1753c-0.23327,0.71599 -0.48857,1.45224 -0.7659,2.20875c-0.27992,0.75651 -0.56503,1.50627 -0.85532,2.24928c-0.29288,0.74301 -0.58187,1.43873 -0.86698,2.08717zM358.23755,175.26918h5.34573v2.04664h-5.34573v-2.04664M360.08426,170.64904h1.9439v13.59699h-1.9439v-13.59699M358.08204,184.61078c0.68684,-0.2972 1.51624,-0.69572 2.48819,-1.19556c0.97195,-0.49984 1.95038,-1.01319 2.93529,-1.54005l0.58317,1.92506c-0.86828,0.51335 -1.75988,1.03345 -2.67481,1.56031c-0.91234,0.52686 -1.76377,1.00643 -2.55429,1.43873l-0.77756,-2.18849M363.89431,173.2428h12.2077v1.96559h-12.2077v-1.96559M363.2917,185.05658c0.57021,-0.10807 1.22207,-0.24992 1.95557,-0.42554c0.73091,-0.17562 1.51106,-0.36205 2.34046,-0.55928c0.8294,-0.19453 1.6588,-0.39987 2.48819,-0.61602l0.19439,1.82374c-1.12746,0.32422 -2.25752,0.64439 -3.39016,0.9605c-1.13524,0.31882 -2.16939,0.60656 -3.10247,0.86324l-0.48598,-2.04664M370.17311,170.40587h2.00222c-0.01296,1.41846 0,2.81937 0.03888,4.20271c0.03888,1.38604 0.10756,2.70724 0.20605,3.96359c0.0959,1.25635 0.21513,2.41139 0.35768,3.46511c0.14255,1.05372 0.30455,1.97234 0.48598,2.75587c0.18143,0.78353 0.37971,1.38739 0.59483,1.81158c0.21253,0.42689 0.43543,0.64034 0.6687,0.64034c0.15551,0 0.27603,-0.20264 0.36157,-0.60791c0.08294,-0.40528 0.13737,-1.08073 0.16329,-2.02638c0.19439,0.24317 0.42507,0.46877 0.69203,0.67681c0.26437,0.21074 0.50671,0.37691 0.72702,0.49849c-0.09072,0.89161 -0.22031,1.59408 -0.38878,2.10743c-0.16847,0.51335 -0.39785,0.87404 -0.68814,1.08209c-0.29288,0.21074 -0.67259,0.31611 -1.13913,0.31611c-0.54429,0 -1.02379,-0.24722 -1.43849,-0.74165c-0.4147,-0.49173 -0.77108,-1.1834 -1.06915,-2.07501c-0.29806,-0.89161 -0.54688,-1.93587 -0.74646,-3.13278c-0.20217,-1.19421 -0.35768,-2.49785 -0.46654,-3.91091c-0.11145,-1.41036 -0.19569,-2.88286 -0.25271,-4.4175c-0.05961,-1.53194 -0.0959,-3.06794 -0.10886,-4.60798M372.64187,171.45959l1.18578,-1.05372c0.38878,0.28369 0.80089,0.61467 1.23632,0.99292c0.43284,0.37826 0.75942,0.71599 0.97973,1.01319l-1.22466,1.19556c-0.23327,-0.31071 -0.55336,-0.6687 -0.96029,-1.07398c-0.40952,-0.40528 -0.81514,-0.76327 -1.21688,-1.07398M373.94428,176.70791l1.86615,0.36475c-0.62205,2.68833 -1.51236,5.05514 -2.67092,7.10043c-1.16116,2.04799 -2.60353,3.71367 -4.32713,4.99705c-0.10367,-0.12158 -0.24623,-0.27424 -0.42766,-0.45796c-0.18143,-0.18102 -0.36934,-0.35664 -0.56373,-0.52686c-0.19439,-0.16751 -0.36286,-0.30531 -0.50541,-0.41338c1.72359,-1.12126 3.12579,-2.62754 4.2066,-4.51882c1.0834,-1.89128 1.89077,-4.07302 2.4221,-6.5452M366.01316,178.41006v2.73561h1.78839v-2.73561h-1.78839M364.45804,176.72817h4.97639v6.11966h-4.97639z" fill="#ffffff" stroke-width="1"/><path d="M240,196v-32h169.76211v32z" fill="none" stroke-width="0"/></g></g></svg>