<svg version="1.1" xmlns="http://www.w3.org/2000/svg" xmlns:xlink="http://www.w3.org/1999/xlink" width="207.35218" height="32" viewBox="0,0,207.35218,32"><g transform="translate(-240.64782,-164.00001)"><g stroke="none" stroke-miterlimit="10"><path d="M448,196.00001v-32z" fill="none" stroke-width="0"/><path d="" fill="#ffffff" stroke-width="1"/><path d="" fill="#ffffff" stroke-width="1"/><path d="" fill="#ffffff" stroke-width="1"/><path d="" fill="#ffffff" stroke-width="1"/><path d="M241.32208,174.39766h5.87003v2.12194h-5.87003v-2.12194M251.07901,169.95547h2.22109v14.41726c0,0.54205 0.05288,0.88579 0.15865,1.03122c0.10577,0.14543 0.35035,0.21814 0.73375,0.21814c0.07932,0 0.22475,0 0.43629,0c0.21153,0 0.4429,0 0.69409,0c0.2512,0 0.48256,0 0.69409,0c0.21153,0 0.37018,0 0.47595,0c0.26441,0 0.46669,-0.11238 0.60683,-0.33713c0.1375,-0.22475 0.2393,-0.63195 0.3054,-1.2216c0.0661,-0.587 0.11899,-1.41595 0.15865,-2.48683c0.18509,0.13221 0.39662,0.26441 0.6346,0.39662c0.23797,0.13221 0.48256,0.24723 0.73375,0.34506c0.2512,0.10048 0.47595,0.17716 0.67426,0.23004c-0.0661,1.24275 -0.1917,2.24357 -0.37679,3.00244c-0.18509,0.76152 -0.4733,1.31415 -0.86464,1.65789c-0.38869,0.34374 -0.94661,0.51561 -1.67375,0.51561c-0.10577,0 -0.29086,0 -0.55527,0c-0.26441,0 -0.55131,0 -0.86067,0c-0.31201,0 -0.59361,0 -0.84481,0c-0.2512,0 -0.43629,0 -0.55527,0c-0.71392,0 -1.27184,-0.10312 -1.67375,-0.30937c-0.40456,-0.2036 -0.69277,-0.54998 -0.86464,-1.03915c-0.17187,-0.48917 -0.25781,-1.17004 -0.25781,-2.04261v-14.3776M246.14105,169.93564h2.22109v17.98687h-2.22109v-17.98687M257.6233,172.93015l1.527,1.90379c-0.66104,0.46273 -1.36835,0.92546 -2.12194,1.38818c-0.75358,0.46273 -1.52303,0.91223 -2.30835,1.34852c-0.78796,0.43629 -1.55873,0.84613 -2.31231,1.22953c-0.07932,-0.23797 -0.20492,-0.51958 -0.37679,-0.84481c-0.17187,-0.32259 -0.33713,-0.59626 -0.49578,-0.82101c0.72714,-0.3834 1.45825,-0.81704 2.19333,-1.30092c0.73243,-0.48124 1.43578,-0.97305 2.11004,-1.47544c0.67426,-0.50239 1.26919,-0.97834 1.78481,-1.42784M240.64782,183.4605c0.54205,-0.17187 1.1674,-0.38076 1.87603,-0.62666c0.70599,-0.24326 1.45561,-0.50768 2.24885,-0.79325c0.79325,-0.28293 1.57988,-0.56981 2.35991,-0.86067l0.39662,1.92362c-1.00478,0.44951 -2.02542,0.8924 -3.06193,1.32869c-1.03915,0.43629 -1.99502,0.83291 -2.86759,1.18987zM261.37139,170.39176h4.66033v1.90379h-2.7367v15.76578h-1.92362v-17.66957M265.63509,170.39176h0.37679l0.29747,-0.07932l1.38818,0.81308c-0.29086,0.83291 -0.62138,1.70812 -0.99156,2.62565c-0.37018,0.92017 -0.72714,1.76365 -1.07088,2.53046c0.75358,0.79325 1.24275,1.54287 1.46751,2.24885c0.22475,0.70863 0.34374,1.36042 0.35696,1.95535c0,0.60816 -0.07536,1.12377 -0.22608,1.54683c-0.15336,0.42306 -0.38869,0.75358 -0.70599,0.99156c-0.15865,0.11899 -0.33977,0.21153 -0.54337,0.27764c-0.20624,0.0661 -0.41513,0.11899 -0.62666,0.15865c-0.21153,0.01322 -0.4429,0.02247 -0.69409,0.02776c-0.2512,0.00793 -0.50239,0.0119 -0.75358,0.0119c-0.01322,-0.26441 -0.05949,-0.57246 -0.13882,-0.92413c-0.07932,-0.34903 -0.19831,-0.65575 -0.35696,-0.92017c0.21153,0.01322 0.40984,0.02247 0.59494,0.02776c0.18509,0.00793 0.35035,0.0119 0.49578,0.0119c0.13221,-0.01322 0.25384,-0.03305 0.36489,-0.05949c0.1137,-0.02644 0.21021,-0.0661 0.28954,-0.11899c0.14543,-0.09255 0.24723,-0.24855 0.3054,-0.46802c0.06082,-0.21682 0.09122,-0.47727 0.09122,-0.78135c0,-0.50239 -0.11899,-1.07485 -0.35696,-1.71738c-0.23797,-0.63989 -0.71392,-1.3234 -1.42784,-2.05054c0.17187,-0.43629 0.34771,-0.90959 0.52751,-1.41991c0.17716,-0.50768 0.34771,-1.01271 0.51164,-1.5151c0.16658,-0.50239 0.32259,-0.9823 0.46802,-1.43974c0.14543,-0.45479 0.26441,-0.84084 0.35696,-1.15814v-0.5751M268.49078,172.35504h9.55862v1.96329h-9.55862v-1.96329M267.69753,177.17402h11.44259v2.02278h-11.44259v-2.02278M272.37769,169.7175h2.12194v16.18224h-2.12194v-16.18224M276.5819,180.68414h2.02278v7.3177h-2.02278v-7.3177M268.25281,180.68414h2.06244v4.50168h7.53584v1.92362h-9.59829zM292.18903,169.59851h2.00295v13.94131h-2.00295v-13.94131M286.20002,177.63014l10.39153,-4.40252l0.79325,1.82447l-10.39153,4.46201l-0.79325,-1.88396M288.2228,171.5023h2.02278v12.96959c0,0.37018 0.03305,0.65046 0.09916,0.84084c0.0661,0.19302 0.20492,0.32259 0.41645,0.38869c0.21153,0.0661 0.52222,0.09916 0.93207,0.09916c0.11899,0 0.31466,0 0.587,0c0.2697,0 0.57643,0 0.92017,0c0.34374,0 0.69145,0 1.04312,0c0.34903,0 0.66633,0 0.9519,0c0.28293,0 0.49049,0 0.6227,0c0.37018,0 0.64782,-0.07007 0.83291,-0.21021c0.18509,-0.1375 0.32391,-0.39133 0.41645,-0.76152c0.09255,-0.37018 0.15865,-0.90562 0.19831,-1.60632c0.23797,0.17187 0.53941,0.33052 0.9043,0.47595c0.36225,0.14543 0.6888,0.24458 0.97966,0.29747c-0.09255,0.93867 -0.24458,1.67507 -0.45612,2.20919c-0.21153,0.53676 -0.52883,0.92017 -0.9519,1.15021c-0.42306,0.23269 -1.01139,0.34903 -1.76497,0.34903c-0.13221,0 -0.34639,0 -0.64253,0c-0.29879,0 -0.63989,0 -1.02329,0c-0.3834,0 -0.76284,0 -1.13831,0c-0.37811,0 -0.71524,0 -1.01139,0c-0.29879,0 -0.50768,0 -0.62666,0c-0.84613,0 -1.51378,-0.09255 -2.00295,-0.27764c-0.48917,-0.18509 -0.83027,-0.51297 -1.02329,-0.98363c-0.19038,-0.46802 -0.28557,-1.1317 -0.28557,-1.99105v-12.94975M296.19493,173.46559h-0.15865l0.39662,-0.29747l0.39662,-0.25781l1.46751,0.53544l-0.07932,0.35696c0,0.93867 -0.00264,1.80067 -0.00793,2.58598c-0.00793,0.78796 -0.01586,1.48602 -0.0238,2.09417c-0.00529,0.60816 -0.01851,1.11716 -0.03966,1.527c-0.01851,0.40984 -0.04099,0.71392 -0.06743,0.91223c-0.03966,0.44951 -0.14543,0.79589 -0.3173,1.03915c-0.17187,0.24591 -0.41645,0.42174 -0.73375,0.52751c-0.27764,0.11899 -0.60419,0.18774 -0.97966,0.20624c-0.37811,0.02115 -0.71921,0.03173 -1.02329,0.03173c-0.02644,-0.26441 -0.08197,-0.57246 -0.16658,-0.92413c-0.08726,-0.34903 -0.18377,-0.63592 -0.28954,-0.86067c0.18509,0.01322 0.3834,0.01983 0.59494,0.01983c0.21153,0 0.36357,0 0.45612,0c0.13221,0 0.23797,-0.03041 0.3173,-0.09122c0.07932,-0.05817 0.13221,-0.1798 0.15865,-0.36489c0.02644,-0.10577 0.04627,-0.33449 0.05949,-0.68616c0.01322,-0.34903 0.0238,-0.8144 0.03173,-1.39611c0.00529,-0.58171 0.00793,-1.28638 0.00793,-2.114c0,-0.82498 0,-1.77291 0,-2.84379M280.54813,174.25884h6.48479v2.00295h-6.48479v-2.00295M282.92787,169.85632h2.00295v13.06874h-2.00295v-13.06874M280.31016,183.08371c0.54205,-0.19831 1.17268,-0.44025 1.89189,-0.72582c0.72185,-0.28293 1.48337,-0.59361 2.28455,-0.93207c0.79854,-0.33581 1.60104,-0.66897 2.4075,-0.99949l0.47595,1.88396c-1.05766,0.51561 -2.13251,1.02725 -3.22455,1.53493c-1.08939,0.51032 -2.0836,0.9704 -2.98261,1.38025zM300.79576,172.85082h17.61008v2.08227h-17.61008v-2.08227M307.24089,177.55081h7.69449v2.06244h-7.69449v-2.06244M314.38011,177.55081h2.22109c0,0 -0.00264,0.05949 -0.00793,0.17848c-0.00793,0.11899 -0.0119,0.2512 -0.0119,0.39662c0,0.14543 -0.01322,0.26441 -0.03966,0.35696c-0.11899,1.83769 -0.2512,3.33164 -0.39662,4.48184c-0.14543,1.15021 -0.31069,2.04261 -0.49578,2.67721c-0.18509,0.6346 -0.41645,1.09071 -0.69409,1.36835c-0.27764,0.30408 -0.57775,0.51561 -0.90034,0.6346c-0.32523,0.11899 -0.70599,0.19831 -1.14228,0.23797c-0.37018,0.03966 -0.862,0.05553 -1.47544,0.04759c-0.61609,-0.00529 -1.25465,-0.02115 -1.91569,-0.04759c-0.01322,-0.3173 -0.09255,-0.67426 -0.23797,-1.07088c-0.14543,-0.39662 -0.32391,-0.74036 -0.53544,-1.03122c0.68748,0.0661 1.34588,0.10577 1.97518,0.11899c0.62666,0.01322 1.08543,0.01983 1.37628,0.01983c0.22475,0 0.40984,-0.01719 0.55527,-0.05156c0.14543,-0.03173 0.28425,-0.09387 0.41645,-0.18641c0.19831,-0.18509 0.37679,-0.57246 0.53544,-1.16211c0.15865,-0.587 0.30408,-1.42256 0.43629,-2.50666c0.13221,-1.0841 0.24458,-2.45907 0.33713,-4.12488v-0.33713M305.95186,174.15968h2.37974c-0.05288,1.04444 -0.13221,2.09549 -0.23797,3.15316c-0.10577,1.05766 -0.27764,2.1021 -0.51561,3.13332c-0.23797,1.03122 -0.58171,2.01617 -1.03122,2.95484c-0.44951,0.93867 -1.04444,1.81389 -1.78481,2.62565c-0.74036,0.8144 -1.66582,1.53229 -2.77636,2.15367c-0.15865,-0.27764 -0.38605,-0.58171 -0.68219,-0.91223c-0.29879,-0.33052 -0.59361,-0.60154 -0.88447,-0.81308c1.03122,-0.54205 1.88132,-1.17004 2.55029,-1.88396c0.66633,-0.71392 1.19516,-1.48469 1.58649,-2.31231c0.38869,-0.82498 0.67558,-1.69094 0.86067,-2.59788c0.18509,-0.9043 0.31069,-1.82314 0.37679,-2.75653c0.0661,-0.93074 0.11899,-1.84562 0.15865,-2.74463M308.05397,170.17362l2.08227,-0.79325c0.26441,0.44951 0.53544,0.94529 0.81308,1.48734c0.27764,0.54205 0.48917,1.00478 0.6346,1.38818l-2.18143,0.9519c-0.13221,-0.40984 -0.33052,-0.89901 -0.59494,-1.46751c-0.26441,-0.56849 -0.51561,-1.09071 -0.75358,-1.56666z" fill="#ffffff" stroke-width="1"/></g></g></svg>