<svg version="1.1" xmlns="http://www.w3.org/2000/svg" xmlns:xlink="http://www.w3.org/1999/xlink" width="192" height="36" viewBox="0,0,192,36"><g transform="translate(-144,-162)"><g stroke="none" stroke-miterlimit="10"><path d="M144,198v-36h192v36z" fill="none" fill-rule="nonzero" stroke-linecap="butt" stroke-linejoin="miter"/><path d="M317,164c9.31184,0 17,7.09393 17,16c0,8.90606 -7.68816,16 -17,16h-154c-9.31184,0 -17,-7.09394 -17,-16c0,-8.90607 7.68816,-16 17,-16z" fill="#7d97b4" fill-rule="evenodd" stroke-linecap="round" stroke-linejoin="round"/><path d="M163,166h154c8.31,0 15,6.244 15,14c0,7.75599 -6.69,13.99999 -15,13.99999h-154c-8.31,0 -15,-6.244 -15,-13.99999c0,-7.756 6.69,-14 15,-14z" fill="#31476d" fill-rule="evenodd" stroke-linecap="round" stroke-linejoin="round"/><path d="M192.15554,174.52082h9.65668v1.46818h-9.65668v-1.46818M193.98698,178.51669v1.71036h5.84245v-1.71036h-5.84245M192.50367,177.18474h8.88475v4.37426h-8.88475v-4.37426M193.80535,181.75577c0.45408,0.7467 1.07464,1.38745 1.86171,1.92226c0.78707,0.5348 1.7154,0.96567 2.785,1.29261c1.0696,0.32895 2.26029,0.55902 3.57207,0.6902c-0.11099,0.11099 -0.22905,0.25226 -0.35418,0.4238c-0.12714,0.17154 -0.24116,0.3451 -0.34207,0.52067c-0.10091,0.17759 -0.18668,0.34207 -0.25731,0.49343c-1.35214,-0.18163 -2.57612,-0.4793 -3.67196,-0.89301c-1.09382,-0.41371 -2.05141,-0.95356 -2.87279,-1.61954c-0.82339,-0.66598 -1.50753,-1.46818 -2.05242,-2.40661l1.33195,-0.4238M196.07573,173.06778h1.6044v6.84141c0,0.60543 -0.03734,1.20077 -0.11201,1.78603c-0.07669,0.58526 -0.21594,1.14729 -0.41775,1.68614c-0.20181,0.54086 -0.49444,1.04337 -0.87788,1.50753c-0.38344,0.46416 -0.87788,0.88495 -1.48332,1.26233c-0.60543,0.37941 -1.35214,0.70533 -2.24011,0.97778c-0.06055,-0.12108 -0.15136,-0.26538 -0.27245,-0.43289c-0.12108,-0.16549 -0.24419,-0.334 -0.36932,-0.50554c-0.12714,-0.17154 -0.25126,-0.31281 -0.37234,-0.4238c0.84761,-0.19173 1.54689,-0.43692 2.09783,-0.73561c0.54893,-0.29667 0.98787,-0.63672 1.31682,-1.02016c0.32693,-0.38344 0.57112,-0.79716 0.73258,-1.24114c0.16145,-0.44399 0.2674,-0.90815 0.31786,-1.3925c0.05045,-0.48435 0.07568,-0.97879 0.07568,-1.48332v-6.82627M191.14144,172.94669l1.51358,0.48435c-0.34308,0.84761 -0.74873,1.69522 -1.21692,2.54283c-0.47023,0.84761 -0.97273,1.64678 -1.50753,2.39752c-0.5348,0.75276 -1.08978,1.41672 -1.66495,1.99188c-0.05045,-0.13118 -0.12613,-0.30272 -0.22704,-0.51462c-0.10091,-0.2119 -0.20685,-0.4238 -0.31786,-0.6357c-0.11099,-0.2119 -0.21695,-0.38344 -0.31786,-0.51462c0.49444,-0.46416 0.97374,-1.00401 1.43791,-1.61954c0.46416,-0.61553 0.89301,-1.27646 1.28654,-1.98279c0.39353,-0.70634 0.73156,-1.42277 1.01411,-2.1493M189.62785,177.07878l1.54386,-1.54386l0.01514,0.01514v11.60921h-1.55899zM205.4297,174.00621h9.44478v1.54386h-9.44478v-1.54386M205.4297,177.50258h9.45992v1.52872h-9.45992v-1.52872M205.38429,181.08979h9.55072v1.52872h-9.55072v-1.52872M204.50641,174.00621h1.6044v5.46404c0,0.58526 -0.02522,1.22298 -0.07568,1.91317c-0.05045,0.69221 -0.14833,1.38846 -0.29364,2.08875c-0.14732,0.7023 -0.36225,1.37131 -0.64479,2.00701c-0.28254,0.6357 -0.65589,1.20582 -1.12005,1.71036c-0.08072,-0.10091 -0.20181,-0.22199 -0.36326,-0.36326c-0.16145,-0.14127 -0.3229,-0.27547 -0.48435,-0.40261c-0.16145,-0.12513 -0.30272,-0.21795 -0.4238,-0.2785c0.41371,-0.46416 0.74166,-0.97172 0.98383,-1.52267c0.24217,-0.54893 0.42179,-1.11905 0.53883,-1.71036c0.11503,-0.58929 0.19071,-1.17958 0.22704,-1.77089c0.03431,-0.58929 0.05146,-1.15134 0.05146,-1.68614v-5.44891M214.28417,174.00621h1.6044v11.14c0,0.44399 -0.05751,0.78909 -0.17254,1.0353c-0.11705,0.24823 -0.31684,0.43793 -0.59938,0.56911c-0.29262,0.13118 -0.67304,0.2119 -1.14124,0.24217c-0.47023,0.03027 -1.0585,0.04036 -1.76484,0.03027c-0.03027,-0.2119 -0.09788,-0.47224 -0.20282,-0.78101c-0.10696,-0.30676 -0.21594,-0.56608 -0.32693,-0.77799c0.31281,0.02018 0.62057,0.03027 0.92329,0.03027c0.30272,0 0.57012,0 0.80221,0c0.23209,0 0.39353,0 0.48435,0c0.14127,0 0.24217,-0.02826 0.30272,-0.08476c0.06055,-0.05449 0.09082,-0.14732 0.09082,-0.2785v-11.12486M209.19852,174.61164h1.63467v12.3206h-1.63467zM218.31032,175.45924h13.44065v1.58926h-13.44065v-1.58926M223.22946,179.04645h5.87271v1.57413h-5.87271v-1.57413M228.67838,179.04645h1.69522c0,0 -0.00202,0.04541 -0.00605,0.13622c-0.00605,0.09082 -0.00908,0.19173 -0.00908,0.30272c0,0.11099 -0.01009,0.20181 -0.03027,0.27245c-0.09082,1.40259 -0.19173,2.54283 -0.30272,3.4207c-0.11099,0.87788 -0.23713,1.55899 -0.37839,2.04334c-0.14127,0.48435 -0.31786,0.83247 -0.52976,1.04437c-0.2119,0.23209 -0.44096,0.39353 -0.68717,0.48435c-0.24823,0.09082 -0.53883,0.15136 -0.87183,0.18163c-0.28254,0.03027 -0.65791,0.04238 -1.12611,0.03633c-0.47023,-0.00404 -0.9576,-0.01614 -1.46212,-0.03633c-0.01009,-0.24217 -0.07063,-0.51462 -0.18163,-0.81733c-0.11099,-0.30272 -0.24722,-0.56507 -0.40867,-0.78707c0.52471,0.05045 1.02723,0.08072 1.50753,0.09082c0.4783,0.01009 0.82843,0.01514 1.05043,0.01514c0.17154,0 0.31281,-0.01312 0.4238,-0.03936c0.11099,-0.02422 0.21695,-0.07165 0.31786,-0.14228c0.15136,-0.14127 0.28758,-0.43692 0.40867,-0.88696c0.12108,-0.44802 0.23209,-1.08574 0.33299,-1.91317c0.10091,-0.82743 0.18668,-1.87685 0.25731,-3.14826v-0.25731M222.24564,176.45821h1.8163c-0.04036,0.79716 -0.10091,1.59935 -0.18163,2.40661c-0.08072,0.80724 -0.2119,1.6044 -0.39353,2.39147c-0.18163,0.78707 -0.44399,1.53882 -0.78707,2.25524c-0.34308,0.71642 -0.79716,1.38443 -1.36223,2.00398c-0.56507,0.62158 -1.27142,1.1695 -2.11902,1.64376c-0.12108,-0.2119 -0.29464,-0.44399 -0.52067,-0.69625c-0.22805,-0.25226 -0.45306,-0.45912 -0.67506,-0.62057c0.78707,-0.41371 1.43589,-0.89301 1.94647,-1.43791c0.50857,-0.54489 0.91219,-1.13317 1.21087,-1.76484c0.29667,-0.62965 0.51563,-1.29059 0.65689,-1.98279c0.14127,-0.6902 0.23713,-1.39149 0.28758,-2.10389c0.05045,-0.71037 0.09082,-1.40864 0.12108,-2.0948M223.85004,173.4159l1.58926,-0.60543c0.20181,0.34308 0.40867,0.72147 0.62057,1.13519c0.2119,0.41371 0.37335,0.76688 0.48435,1.05951l-1.66495,0.72652c-0.10091,-0.31281 -0.25226,-0.68616 -0.45408,-1.12005c-0.20181,-0.43389 -0.39353,-0.83247 -0.57517,-1.19574zM234.00621,174.33919l0.90815,-1.19574c0.3229,0.13118 0.66296,0.28455 1.02016,0.46013c0.35922,0.17759 0.70533,0.35922 1.03832,0.54489c0.33299,0.18768 0.60543,0.3673 0.81733,0.53883l-0.93842,1.34709c-0.20181,-0.18163 -0.46114,-0.37638 -0.77799,-0.58424c-0.31886,-0.20585 -0.65992,-0.40766 -1.02318,-0.60543c-0.36326,-0.19576 -0.71139,-0.36427 -1.04437,-0.50554M233.14346,178.42587l0.86274,-1.22601c0.31281,0.12108 0.65084,0.2674 1.01411,0.43894c0.36326,0.17154 0.71139,0.35015 1.04437,0.53581c0.33299,0.18768 0.60543,0.3673 0.81733,0.53883l-0.90815,1.34709c-0.20181,-0.17154 -0.46114,-0.35822 -0.77799,-0.56003c-0.31886,-0.20181 -0.65992,-0.39656 -1.02318,-0.58424c-0.36326,-0.18566 -0.70634,-0.34913 -1.02923,-0.4904M233.67321,185.82731c0.27245,-0.37335 0.57517,-0.82541 0.90815,-1.35617c0.33299,-0.52874 0.67103,-1.09079 1.01411,-1.68614c0.34308,-0.59534 0.66093,-1.1806 0.95356,-1.75576l1.19574,1.07464c-0.26236,0.52471 -0.54792,1.06657 -0.85669,1.62559c-0.30676,0.56104 -0.61351,1.11097 -0.92026,1.64981c-0.30877,0.54086 -0.61956,1.0585 -0.93237,1.55294l-1.36223,-1.10492M241.42277,172.97696h1.64981v7.20467h-1.64981v-7.20467M237.72962,179.16753h9.09666v1.54386h-9.09666v-1.54386M238.3502,175.33816h7.90092v1.52872h-7.90092v-1.52872M243.17854,182.69419l1.31682,-0.6357c0.34308,0.43389 0.68313,0.90815 1.02016,1.42277c0.33905,0.51462 0.64782,1.02116 0.92632,1.51964c0.27648,0.50049 0.48031,0.9576 0.61149,1.37131l-1.45305,0.72652c-0.11099,-0.39353 -0.29464,-0.84761 -0.55095,-1.36223c-0.25832,-0.51462 -0.55095,-1.03731 -0.87788,-1.56808c-0.32895,-0.52874 -0.65992,-1.02016 -0.99292,-1.47424M238.5621,186.70519l-0.06055,-1.28654l0.84761,-0.52976l5.79704,-0.62057c-0.01009,0.2119 -0.00505,0.45609 0.01514,0.73258c0.02018,0.2785 0.04036,0.50857 0.06055,0.6902c-1.07969,0.13118 -1.99087,0.24217 -2.73354,0.33299c-0.74065,0.09082 -1.34609,0.17154 -1.8163,0.24217c-0.4682,0.07063 -0.8365,0.12815 -1.10492,0.17254c-0.26639,0.04641 -0.47526,0.09182 -0.62662,0.13622c-0.15136,0.04641 -0.2775,0.0898 -0.37839,0.13017M238.5621,186.70519c-0.02018,-0.12108 -0.06357,-0.2775 -0.13017,-0.46921c-0.06458,-0.19173 -0.1342,-0.39353 -0.20887,-0.60543c-0.07669,-0.2119 -0.15035,-0.39353 -0.22099,-0.54489c0.17154,-0.05045 0.33299,-0.1564 0.48435,-0.31786c0.15136,-0.16145 0.31786,-0.38344 0.49949,-0.66598c0.10091,-0.13118 0.24016,-0.35317 0.41775,-0.66598c0.17558,-0.31281 0.36932,-0.68111 0.58122,-1.10492c0.2119,-0.4238 0.42179,-0.88091 0.62965,-1.37131c0.20585,-0.48838 0.39454,-0.9798 0.56608,-1.47424l1.75576,0.54489c-0.29262,0.70634 -0.62057,1.40764 -0.98383,2.10389c-0.36326,0.69625 -0.74166,1.35416 -1.13519,1.97372c-0.39353,0.62158 -0.78707,1.18463 -1.1806,1.68916v0.03027c0,0 -0.05248,0.03027 -0.15742,0.09082c-0.10696,0.06055 -0.23107,0.13622 -0.37234,0.22704c-0.14127,0.09082 -0.2674,0.18668 -0.37839,0.28758c-0.11099,0.10091 -0.16649,0.19173 -0.16649,0.27245zM255.28723,178.19883c0.34308,0 0.65286,0.08274 0.92934,0.24823c0.2785,0.16751 0.5015,0.38949 0.66901,0.66598c0.16549,0.2785 0.24823,0.58929 0.24823,0.93237c0,0.33299 -0.08274,0.64075 -0.24823,0.92329c-0.16751,0.28254 -0.39051,0.50655 -0.66901,0.67203c-0.27648,0.16751 -0.58626,0.25126 -0.92934,0.25126c-0.33299,0 -0.64075,-0.08375 -0.92329,-0.25126c-0.28254,-0.16549 -0.50755,-0.38949 -0.67506,-0.67203c-0.16549,-0.28254 -0.24823,-0.59029 -0.24823,-0.92329c0,-0.34308 0.08274,-0.65387 0.24823,-0.93237c0.16751,-0.27648 0.39253,-0.49847 0.67506,-0.66598c0.28254,-0.16549 0.59029,-0.24823 0.92329,-0.24823zM263.47573,173.83971h6.88682v1.48332h-6.88682v-1.48332M263.76331,180.90816h6.38733v1.45305h-6.38733v-1.45305M266.15478,179.40971h1.61954v5.69108h-1.61954v-5.69108M263.30923,184.72239c0.59534,-0.07063 1.28151,-0.15943 2.05848,-0.26639c0.77697,-0.10494 1.59431,-0.22099 2.45201,-0.34812c0.8577,-0.12513 1.7154,-0.24823 2.5731,-0.36932l0.06055,1.52872c-0.80724,0.14127 -1.62257,0.2775 -2.44595,0.40867c-0.82138,0.13118 -1.61247,0.25428 -2.3733,0.36932c-0.76285,0.11705 -1.45708,0.22602 -2.0827,0.32693l-0.24217,-1.64981M267.4262,176.322l1.22601,-0.57517c0.19173,0.31281 0.39858,0.64782 0.62057,1.00502c0.22199,0.35922 0.42885,0.71037 0.62057,1.05345c0.19173,0.34308 0.34308,0.6458 0.45408,0.90815l-1.30168,0.66598c-0.10091,-0.27245 -0.24217,-0.58526 -0.4238,-0.93842c-0.18163,-0.35317 -0.37537,-0.71642 -0.58122,-1.08978c-0.20787,-0.37335 -0.4127,-0.71642 -0.61451,-1.02923M271.60369,175.76196h5.76676v1.49846h-5.76676v-1.49846M271.98209,172.94669l1.61954,0.28758c-0.19173,0.98887 -0.43087,1.95455 -0.71744,2.89701c-0.28859,0.94448 -0.62258,1.82236 -1.00199,2.63364c-0.37739,0.8133 -0.80826,1.52771 -1.29261,2.14323c-0.08072,-0.11099 -0.19374,-0.24722 -0.33905,-0.40867c-0.14732,-0.16145 -0.29868,-0.31786 -0.45408,-0.46921c-0.15742,-0.15136 -0.29667,-0.27245 -0.41775,-0.36326c0.43389,-0.52471 0.81733,-1.14024 1.15033,-1.84658c0.33299,-0.70634 0.62057,-1.47625 0.86274,-2.30974c0.24217,-0.83146 0.43894,-1.68614 0.59029,-2.56401M274.8579,176.65498l1.66495,0.16649c-0.22199,1.7154 -0.56305,3.22596 -1.02318,4.53167c-0.45811,1.30773 -1.08574,2.43587 -1.8829,3.38438c-0.79716,0.94851 -1.82639,1.74567 -3.08772,2.39147c-0.05045,-0.12108 -0.13118,-0.27547 -0.24217,-0.46316c-0.11099,-0.18566 -0.22704,-0.37234 -0.34812,-0.56003c-0.12108,-0.18566 -0.23713,-0.334 -0.34812,-0.44499c1.15033,-0.51462 2.0837,-1.18362 2.80014,-2.00701c0.71642,-0.82138 1.26637,-1.81227 1.64981,-2.97268c0.38344,-1.16041 0.65589,-2.50246 0.81733,-4.02613M272.33021,177.06364c0.24217,1.31178 0.58324,2.53476 1.02318,3.66893c0.43793,1.1362 1.01006,2.12508 1.71641,2.96663c0.70634,0.84357 1.56404,1.50249 2.5731,1.97674c-0.12108,0.10091 -0.25226,0.2341 -0.39353,0.39958c-0.14127,0.16751 -0.27245,0.33703 -0.39353,0.50857c-0.12108,0.17154 -0.22199,0.32795 -0.30272,0.46921c-1.09988,-0.56507 -2.01508,-1.31985 -2.74564,-2.26433c-0.73258,-0.94246 -1.33095,-2.04435 -1.79511,-3.30567c-0.46416,-1.26132 -0.83752,-2.64877 -1.12005,-4.16236l1.43791,-0.25731M263.99035,179.3643c-0.03027,-0.11099 -0.07568,-0.25529 -0.13622,-0.43289c-0.06055,-0.17558 -0.12311,-0.3572 -0.18768,-0.54489c-0.0666,-0.18566 -0.13017,-0.34913 -0.19071,-0.4904c0.12108,-0.04036 0.23914,-0.11604 0.35418,-0.22704c0.11705,-0.11099 0.23612,-0.25226 0.3572,-0.4238c0.08072,-0.12108 0.20685,-0.32795 0.37839,-0.62057c0.17154,-0.29262 0.35317,-0.64075 0.54489,-1.04437c0.19173,-0.40363 0.35822,-0.81733 0.49949,-1.24114l1.63467,0.45408c-0.2119,0.46416 -0.44601,0.92329 -0.7023,1.37736c-0.25832,0.45408 -0.52673,0.88495 -0.80523,1.29261c-0.27648,0.40968 -0.5459,0.77092 -0.80826,1.08373v0.01514c0,0 -0.04743,0.02724 -0.14228,0.08174c-0.09687,0.05651 -0.20787,0.12513 -0.33299,0.20585c-0.12714,0.08072 -0.23612,0.16851 -0.32693,0.26336c-0.09082,0.09687 -0.13622,0.18062 -0.13622,0.25126M263.99035,179.3643l-0.03027,-1.1806l0.77193,-0.48435l4.35913,-0.28758c0.03027,0.20181 0.07063,0.43087 0.12108,0.68717c0.05045,0.25832 0.09082,0.47325 0.12108,0.64479c-1.0696,0.09082 -1.93538,0.16649 -2.59732,0.22704c-0.65992,0.06055 -1.17151,0.11099 -1.53478,0.15136c-0.36326,0.04036 -0.63067,0.08072 -0.80221,0.12108c-0.17154,0.04036 -0.30776,0.08072 -0.40867,0.12108zM279.12622,174.06674l1.07464,-0.84761c0.25226,0.25226 0.50957,0.52673 0.77193,0.82339c0.26236,0.29868 0.51159,0.59434 0.74771,0.88696c0.23814,0.29262 0.42784,0.54993 0.56911,0.77193l-1.13519,0.9687c-0.13118,-0.23209 -0.30978,-0.49949 -0.53581,-0.80221c-0.22805,-0.30272 -0.47123,-0.61351 -0.72954,-0.93237c-0.2563,-0.31684 -0.51059,-0.60645 -0.76285,-0.86879M280.216,186.82628l-0.31786,-1.33195l0.33299,-0.57517l2.39147,-2.04334c0.02018,0.2119 0.0676,0.45408 0.14228,0.72652c0.07669,0.27245 0.14025,0.48435 0.19071,0.6357c-0.5348,0.47426 -0.97172,0.85972 -1.31076,1.15638c-0.33703,0.29868 -0.59837,0.53883 -0.78404,0.72047c-0.18768,0.18163 -0.32693,0.32491 -0.41775,0.42986c-0.09082,0.10696 -0.16649,0.2008 -0.22704,0.28153M278.59646,177.66909h2.60337v1.55899h-2.60337v-1.55899M283.99997,176.76093h2.86068v1.15033h-2.86068v-1.15033M283.98483,178.774h2.87582v1.13519h-2.87582v-1.13519M284.84757,172.96183l1.58926,0.24217c-0.17154,0.43389 -0.35317,0.86476 -0.54489,1.29261c-0.19173,0.42986 -0.36326,0.79614 -0.51462,1.09886l-1.12005,-0.27245c0.12108,-0.34308 0.23713,-0.73459 0.34812,-1.17455c0.11099,-0.43793 0.19173,-0.83348 0.24217,-1.18665M283.07668,174.67218h3.57207v1.27142h-2.25524v5.70622h-1.31682v-6.97764M286.10384,174.67218h1.33195v10.82214c0,0.33299 -0.03834,0.60039 -0.11503,0.80221c-0.07467,0.20181 -0.21795,0.36326 -0.42986,0.48435c-0.2119,0.11099 -0.4793,0.18163 -0.80221,0.2119c-0.3229,0.03027 -0.71139,0.04541 -1.16546,0.04541c-0.02018,-0.19173 -0.07265,-0.41675 -0.15742,-0.67506c-0.08677,-0.2563 -0.18062,-0.47526 -0.28153,-0.65689c0.29262,0.01009 0.57012,0.01514 0.83247,0.01514c0.26236,0 0.43894,0 0.52976,0c0.10091,0 0.16952,-0.01817 0.20585,-0.05449c0.03431,-0.03431 0.05146,-0.10191 0.05146,-0.20282v-10.79187M285.21083,181.57414l1.30168,0.34812c-0.25226,0.59534 -0.5681,1.17757 -0.94751,1.74668c-0.37739,0.57112 -0.78505,1.09886 -1.22298,1.58321c-0.43995,0.48435 -0.89201,0.9031 -1.35617,1.25628c-0.06055,-0.09082 -0.14632,-0.20181 -0.25731,-0.33299c-0.11099,-0.13118 -0.22502,-0.26538 -0.34207,-0.40261c-0.11503,-0.13521 -0.223,-0.24823 -0.32391,-0.33905c0.43389,-0.30272 0.84962,-0.65589 1.2472,-1.05951c0.39958,-0.40363 0.76385,-0.84559 1.09281,-1.3259c0.32693,-0.4783 0.59636,-0.9697 0.80826,-1.47424M287.84447,176.17063h4.75266v1.48332h-4.75266v-1.48332M290.23593,173.08292h1.48332v12.26005c0,0.39353 -0.04541,0.69625 -0.13622,0.90815c-0.09082,0.2119 -0.25226,0.37839 -0.48435,0.49949c-0.23209,0.12108 -0.52673,0.19878 -0.88393,0.23309c-0.35922,0.03633 -0.78605,0.05449 -1.28049,0.05449c-0.03027,-0.19173 -0.09586,-0.42683 -0.19676,-0.70533c-0.10091,-0.27648 -0.20685,-0.51563 -0.31786,-0.71744c0.33299,0.01009 0.6458,0.01715 0.93842,0.02119c0.29262,0.00605 0.4894,0.00908 0.59029,0.00908c0.11099,-0.01009 0.18668,-0.03531 0.22704,-0.07568c0.04036,-0.04036 0.06055,-0.11604 0.06055,-0.22704v-12.26005M287.70824,179.00104l1.16546,-0.34812c0.17154,0.37335 0.33501,0.77193 0.4904,1.19574c0.15742,0.4238 0.29162,0.83752 0.40261,1.24114c0.11099,0.40363 0.18668,0.7568 0.22704,1.05951l-1.27142,0.40867c-0.04036,-0.30272 -0.11099,-0.65589 -0.2119,-1.05951c-0.10091,-0.40363 -0.21997,-0.82743 -0.3572,-1.27142c-0.13521,-0.44399 -0.28355,-0.85265 -0.44499,-1.22601M282.31988,180.87789h4.54076v1.34709h-4.54076v-1.34709M280.216,186.82628c-0.04036,-0.12108 -0.11301,-0.25529 -0.21795,-0.40261c-0.10696,-0.1453 -0.21897,-0.28859 -0.33601,-0.42986c-0.11503,-0.14127 -0.21795,-0.25731 -0.30877,-0.34812c0.15136,-0.13118 0.32088,-0.34308 0.50857,-0.6357c0.18566,-0.29262 0.2785,-0.62562 0.2785,-0.99897v-6.34192h1.42277v7.40144c0,0 -0.0676,0.06256 -0.20282,0.18768c-0.13723,0.12714 -0.29464,0.28355 -0.47224,0.46921c-0.17558,0.18768 -0.33198,0.37941 -0.46921,0.57517c-0.13521,0.19778 -0.20282,0.37234 -0.20282,0.52371z" fill="#ffffff" fill-rule="nonzero" stroke-linecap="butt" stroke-linejoin="miter"/></g></g></svg>