<svg version="1.1" xmlns="http://www.w3.org/2000/svg" xmlns:xlink="http://www.w3.org/1999/xlink" width="224" height="32" viewBox="0,0,224,32"><g transform="translate(-128,-164)"><g stroke="none" stroke-miterlimit="10"><path d="M128,196v-32h224v32z" fill-opacity="0" fill="#000000" stroke-width="0"/><g fill="#ffffff" stroke-width="1"><path d=""/><path d="M193.25134,180c0,4.6917 -3.8083,8.5 -8.5,8.5c-4.6917,0 -8.5,-3.8083 -8.5,-8.5c0,-4.6917 3.8083,-8.5 8.5,-8.5c4.6917,0 8.5,3.8083 8.5,8.5zM178.25134,180c0,3.6183 2.8817,6.5 6.5,6.5c3.6183,0 6.5,-2.8817 6.5,-6.5c0,-3.6183 -2.8817,-6.5 -6.5,-6.5c-3.6183,0 -6.5,2.8817 -6.5,6.5z"/><path d="M184.76338,175.80906c0.30761,0 0.57983,0.11255 0.78125,0.33008c0.19911,0.20805 0.30273,0.4774 0.30273,0.77539c0,0.30505 -0.10406,0.57476 -0.30664,0.77734c-0.20257,0.20258 -0.47229,0.30664 -0.77734,0.30664c-0.29799,0 -0.56734,-0.10362 -0.77539,-0.30274v-0.002h-0.002c-0.21625,-0.20124 -0.32812,-0.47261 -0.32812,-0.7793c0,-0.30062 0.11213,-0.57222 0.32617,-0.7793c0.20709,-0.21404 0.47868,-0.32617 0.7793,-0.32617zM185.62273,178.434c0.08238,-0.00021 0.14952,0.06606 0.15039,0.14844v5.4609c0.0001,0.03992 -0.01571,0.07823 -0.04394,0.10645c-0.02822,0.02822 -0.06653,0.04404 -0.10645,0.04394h-1.7422c-0.03992,0.0001 -0.07823,-0.01571 -0.10645,-0.04394c-0.02822,-0.02822 -0.04404,-0.06653 -0.04394,-0.10645v-5.4609c0.00087,-0.08238 0.06801,-0.14865 0.15039,-0.14844z"/></g><path d="M203.04323,184.84627h7.7036v1.44063h-7.7036v-1.44063M204.75682,172.54781l1.54679,0.54592c-0.4145,0.69757 -0.90179,1.37189 -1.46186,2.02295c-0.5621,0.65309 -1.16161,1.24956 -1.79852,1.78942c-0.63691,0.54188 -1.27888,1.00996 -1.9259,1.40424c-0.08088,-0.11121 -0.19411,-0.24061 -0.33969,-0.38821c-0.1476,-0.14558 -0.29925,-0.29419 -0.45494,-0.44584c-0.15771,-0.15165 -0.29723,-0.27296 -0.41854,-0.36395c0.64702,-0.34373 1.27382,-0.75317 1.88041,-1.22833c0.60658,-0.47516 1.16565,-0.99581 1.6772,-1.56195c0.50953,-0.56614 0.94121,-1.15756 1.29505,-1.77425M210.27672,174.20074h0.34878l0.27296,-0.09099l1.15251,0.75823c-0.56614,0.90987 -1.27584,1.73381 -2.1291,2.47182c-0.85528,0.73801 -1.80559,1.39009 -2.85094,1.95623c-1.04737,0.56614 -2.14225,1.05141 -3.28464,1.4558c-1.1424,0.40439 -2.27974,0.73295 -3.41203,0.9857c-0.05055,-0.14154 -0.12132,-0.30632 -0.2123,-0.49436c-0.09099,-0.18602 -0.18703,-0.36496 -0.28813,-0.53683c-0.1011,-0.17186 -0.20219,-0.3134 -0.30329,-0.42461c0.84922,-0.16176 1.70349,-0.37204 2.56281,-0.63085c0.85933,-0.25679 1.69641,-0.5621 2.51125,-0.91594c0.81282,-0.35384 1.58116,-0.75115 2.30501,-1.19193c0.72183,-0.43876 1.36886,-0.91897 1.94106,-1.44063c0.57019,-0.51964 1.0322,-1.07264 1.38604,-1.659v-0.24263M203.86211,175.00447c0.48527,0.6268 1.08679,1.21317 1.80458,1.75909c0.71779,0.54592 1.51949,1.03827 2.4051,1.47703c0.88359,0.44078 1.82885,0.82293 2.83577,1.14644c1.00491,0.32351 2.04823,0.57625 3.12997,0.75823c-0.12132,0.11121 -0.24769,0.25982 -0.37911,0.44584c-0.13143,0.18804 -0.2578,0.37507 -0.37911,0.56109c-0.12132,0.18804 -0.21736,0.35788 -0.28813,0.50953c-1.09185,-0.23252 -2.14326,-0.53379 -3.15423,-0.90381c-1.01097,-0.36799 -1.96634,-0.80473 -2.8661,-1.31022c-0.89976,-0.50548 -1.72573,-1.07668 -2.47789,-1.7136c-0.75418,-0.63691 -1.4194,-1.33448 -1.99566,-2.09271l1.36481,-0.63691M202.20918,181.2371h9.22006v5.59572h-1.72876v-4.1096h-5.85352v4.17026h-1.63777v-5.65638M204.54452,174.20074h6.11132v1.39514h-7.08185zM223.80352,172.69945h1.53162v10.66069h-1.53162v-10.66069M219.22382,178.8411l7.94623,-3.36653l0.60658,1.39514l-7.94623,3.41203l-0.60658,-1.44063M220.7706,174.15525h1.54679v9.91763c0,0.28307 0.02527,0.4974 0.07582,0.64298c0.05055,0.1476 0.1567,0.24668 0.31846,0.29723c0.16176,0.05055 0.39933,0.07582 0.71273,0.07582c0.09099,0 0.24061,0 0.44887,0c0.20624,0 0.44078,0 0.70364,0c0.26285,0 0.52874,0 0.79766,0c0.2669,0 0.50852,0 0.72487,0c0.21837,0 0.3781,0 0.4792,0c0.28307,0 0.49538,-0.05358 0.63691,-0.16074c0.14154,-0.10514 0.24769,-0.29925 0.31846,-0.58232c0.07077,-0.28307 0.12132,-0.69252 0.15165,-1.22833c0.18197,0.13143 0.41146,0.25274 0.68847,0.36395c0.27903,0.11121 0.52975,0.18703 0.75216,0.22747c-0.07077,0.71779 -0.18703,1.2809 -0.34878,1.68933c-0.16176,0.41045 -0.40439,0.70364 -0.7279,0.87954c-0.32351,0.17793 -0.77339,0.2669 -1.34965,0.2669c-0.1011,0 -0.26487,0 -0.49133,0c-0.22848,0 -0.48931,0 -0.78249,0c-0.29318,0 -0.58333,0 -0.87045,0c-0.28914,0 -0.54694,0 -0.77339,0c-0.22848,0 -0.38821,0 -0.4792,0c-0.64702,0 -1.15756,-0.07077 -1.53162,-0.2123c-0.37406,-0.14154 -0.63388,-0.39226 -0.77946,-0.75216c-0.1476,-0.35788 -0.2214,-0.86539 -0.2214,-1.52252v-9.90246M226.86676,175.65654h-0.12132l0.30329,-0.22747l0.30329,-0.19714l1.12218,0.40944l-0.06066,0.27296c0,0.71779 -0.00202,1.37694 -0.00607,1.97746c-0.00607,0.60254 -0.01112,1.13633 -0.01516,1.60138c-0.00607,0.46505 -0.01618,0.85427 -0.03033,1.16767c-0.01618,0.3134 -0.03437,0.54592 -0.05459,0.69757c-0.03033,0.34373 -0.11121,0.6086 -0.24263,0.79462c-0.13143,0.18804 -0.31846,0.3225 -0.56109,0.40338c-0.2123,0.09099 -0.46201,0.14356 -0.74913,0.15771c-0.28914,0.01618 -0.54997,0.02426 -0.78249,0.02426c-0.02022,-0.20219 -0.06268,-0.43775 -0.12738,-0.70667c-0.06672,-0.2669 -0.14053,-0.48628 -0.2214,-0.65814c0.14154,0.01011 0.29318,0.01516 0.45494,0.01516c0.16176,0 0.27802,0 0.34878,0c0.1011,0 0.18197,-0.02325 0.24263,-0.06976c0.06066,-0.04448 0.1011,-0.13749 0.12132,-0.27903c0.02022,-0.08088 0.03538,-0.25578 0.04549,-0.52469c0.01011,-0.2669 0.01719,-0.62276 0.02123,-1.06759c0.00607,-0.44483 0.0091,-0.98368 0.0091,-1.61654c0,-0.63085 0,-1.35571 0,-2.1746M214.90192,176.26313h4.95881v1.53162h-4.95881v-1.53162M216.72166,172.89659h1.53162v9.99345h-1.53162v-9.99345M214.71994,183.01136c0.4145,-0.15165 0.89774,-0.33665 1.44973,-0.55502c0.54997,-0.21635 1.13128,-0.45393 1.74392,-0.71273c0.61063,-0.25679 1.22429,-0.51155 1.84098,-0.76429l0.36395,1.44063c-0.80878,0.39428 -1.62969,0.78552 -2.46273,1.17374c-0.83506,0.39023 -1.59632,0.74205 -2.28378,1.05545zM231.49195,173.15439h11.19145v1.18284h-11.19145v-1.18284M232.15919,179.26571h11.26727v1.12218h-11.26727v-1.12218M233.53917,180.87315h9.05325v0.9857h-9.05325v-0.9857M232.12886,182.37445h11.87385v1.09185h-11.87385v-1.09185M232.50798,176.47543h3.19972v0.84922h-3.19972v-0.84922M232.17436,177.87057h3.54851v0.83405h-3.54851v-0.83405M238.42216,177.87057h3.594v0.83405h-3.594v-0.83405M238.42216,176.47543h3.23005v0.84922h-3.23005v-0.84922M236.25362,173.65482h1.60744v5.3076h-1.60744v-5.3076M230.52142,174.94381h13.16284v2.6538h-1.57711v-1.68327h-10.08444v1.68327h-1.50129v-2.6538M231.43129,179.26571h1.51646v2.09271c0,0.42461 -0.02527,0.88157 -0.07582,1.37088c-0.05055,0.49133 -0.14356,0.98974 -0.27903,1.49523c-0.13749,0.50548 -0.33059,0.99277 -0.57929,1.46186c-0.24668,0.47111 -0.56715,0.89875 -0.96143,1.28292c-0.08088,-0.1011 -0.19208,-0.22039 -0.33362,-0.35788c-0.14154,-0.13547 -0.29116,-0.2669 -0.44887,-0.39428c-0.15569,-0.12536 -0.29419,-0.21837 -0.41551,-0.27903c0.47516,-0.45494 0.82394,-0.95031 1.04635,-1.48613c0.22241,-0.53581 0.36597,-1.07466 0.43067,-1.61654c0.06672,-0.53986 0.10009,-1.04231 0.10009,-1.50736v-2.06238M238.40699,182.9507c0.30329,0.49538 0.73295,0.90684 1.28899,1.2344c0.55603,0.32958 1.22125,0.58737 1.99566,0.77339c0.77238,0.18804 1.63373,0.31239 2.58404,0.37305c-0.14154,0.14154 -0.28813,0.33362 -0.43977,0.57625c-0.15165,0.24263 -0.27296,0.46505 -0.36395,0.66724c-1.0413,-0.11121 -1.96937,-0.30329 -2.78421,-0.57625c-0.81282,-0.27296 -1.51241,-0.63994 -2.09878,-1.10095c-0.58636,-0.45898 -1.07163,-1.02209 -1.4558,-1.68933l1.27382,-0.2578M241.94034,183.34498l1.198,0.60658c-0.36395,0.24263 -0.74812,0.46707 -1.15251,0.67331c-0.40439,0.20826 -0.77339,0.38821 -1.10701,0.53986l-0.9857,-0.54592c0.22241,-0.12132 0.45797,-0.25578 0.70667,-0.40338c0.24668,-0.14558 0.48931,-0.29723 0.7279,-0.45494c0.23657,-0.15569 0.44078,-0.29419 0.61265,-0.41551M233.66048,186.86316l-0.07582,-1.06152l0.63691,-0.43977l4.18542,-0.59142c-0.04044,0.18197 -0.07582,0.39125 -0.10615,0.62781c-0.03033,0.23859 -0.04549,0.43371 -0.04549,0.58535c-0.93009,0.15165 -1.68023,0.27498 -2.25042,0.37002c-0.57221,0.09705 -1.01501,0.17591 -1.32842,0.23657c-0.3134,0.06066 -0.54087,0.11121 -0.68241,0.15165c-0.14154,0.04044 -0.25274,0.08088 -0.33362,0.12132M233.66048,186.86316c-0.04044,-0.12132 -0.1011,-0.26083 -0.18197,-0.41854c-0.08088,-0.15569 -0.16984,-0.31239 -0.2669,-0.4701c-0.09503,-0.15569 -0.18299,-0.28408 -0.26386,-0.38518c0.17186,-0.09099 0.35687,-0.24567 0.55502,-0.46404c0.19613,-0.21635 0.29419,-0.49639 0.29419,-0.84012v-1.4558l1.57711,0.03033v2.47182c0,0 -0.05864,0.03538 -0.17591,0.10615c-0.11525,0.07077 -0.25578,0.16681 -0.42157,0.28813c-0.16782,0.12132 -0.33766,0.24769 -0.50953,0.37911c-0.17186,0.13143 -0.31643,0.26487 -0.43371,0.40034c-0.11525,0.13749 -0.17288,0.25679 -0.17288,0.35788zM248.38528,177.03652h10.60003v1.28899h-10.60003v-1.28899M248.52176,181.44941h8.4315v1.28899h-8.4315v-1.28899M250.53865,175.94467h1.54679v3.56367h3.03291v-3.56367h1.59228v4.80717h-6.17198v-4.80717M256.52865,181.44941h0.31846l0.28813,-0.06066l1.01603,0.53076c-0.4145,0.78856 -0.95537,1.46288 -1.62261,2.02295c-0.66724,0.5621 -1.42547,1.03018 -2.27468,1.40424c-0.84922,0.37406 -1.76414,0.6723 -2.74479,0.89471c-0.98064,0.22241 -2.00172,0.39428 -3.06324,0.5156c-0.06066,-0.19208 -0.15468,-0.42259 -0.28206,-0.6915c-0.12536,-0.2669 -0.25375,-0.49133 -0.38518,-0.67331c0.97053,-0.07077 1.91074,-0.19512 2.82061,-0.37305c0.90987,-0.17591 1.751,-0.41045 2.52338,-0.70364c0.7744,-0.29318 1.45479,-0.66016 2.04115,-1.10095c0.58636,-0.43876 1.0413,-0.95638 1.36481,-1.55285v-0.2123M251.05424,182.4351c0.49538,0.58636 1.15554,1.08679 1.98049,1.50129c0.82293,0.4145 1.77527,0.74509 2.857,0.99176c1.08174,0.2487 2.24436,0.41854 3.48785,0.50953c-0.11121,0.11121 -0.22747,0.25274 -0.34878,0.42461c-0.12132,0.17186 -0.23455,0.34373 -0.33969,0.5156c-0.10716,0.17186 -0.19107,0.32857 -0.25173,0.4701c-1.29404,-0.13143 -2.49508,-0.35687 -3.6031,-0.67634c-1.106,-0.31744 -2.09372,-0.74205 -2.96316,-1.27382c-0.86943,-0.52975 -1.60744,-1.17374 -2.21403,-1.93197l1.39514,-0.53076M247.20244,174.06426h11.93451v1.51646h-11.93451v-1.51646M246.44421,174.06426h1.60744v4.0641c0,0.6268 -0.01719,1.31628 -0.05156,2.06845c-0.03639,0.75418 -0.10514,1.52556 -0.20624,2.31411c-0.1011,0.78856 -0.24769,1.55184 -0.43977,2.28985c-0.19208,0.73801 -0.44483,1.41536 -0.75823,2.03205c-0.11121,-0.08088 -0.2578,-0.16681 -0.43977,-0.2578c-0.18197,-0.09099 -0.36597,-0.17995 -0.55199,-0.2669c-0.18804,-0.08492 -0.35283,-0.14255 -0.49436,-0.17288c0.30329,-0.58636 0.54592,-1.22125 0.7279,-1.90467c0.18197,-0.68139 0.31643,-1.38099 0.40338,-2.09878c0.08492,-0.71779 0.14053,-1.41839 0.16681,-2.10181c0.02426,-0.68139 0.03639,-1.31022 0.03639,-1.88647v-4.07927M251.75181,172.97241l1.63777,-0.37911c0.17186,0.32351 0.3316,0.67735 0.4792,1.06152c0.14558,0.38417 0.2487,0.71273 0.30936,0.9857l-1.74392,0.42461c-0.04044,-0.28307 -0.12637,-0.62175 -0.2578,-1.01603c-0.13143,-0.39428 -0.27296,-0.75317 -0.42461,-1.07668zM266.71924,181.41908h5.47441v1.16767h-5.47441v-1.16767M264.97531,173.77614h9.03808v1.18284h-9.03808v-1.18284M265.36959,175.67171h8.23436v1.10701h-8.23436v-1.10701M264.50521,177.53695h9.97828v1.18284h-9.97828v-1.18284M266.7344,183.40564h5.48957v1.15251h-5.48957v-1.15251M265.55156,179.40219h6.56626v1.198h-5.06496v6.26297h-1.50129v-7.46097M271.86002,179.40219h1.54679v5.85352c0,0.36395 -0.04549,0.65208 -0.13648,0.86438c-0.09099,0.2123 -0.26791,0.37406 -0.53076,0.48527c-0.25274,0.11121 -0.56614,0.17894 -0.9402,0.20321c-0.37406,0.02628 -0.82394,0.03437 -1.34965,0.02426c-0.03033,-0.19208 -0.08795,-0.42259 -0.17288,-0.6915c-0.08694,-0.2669 -0.18096,-0.49639 -0.28206,-0.68847c0.33362,0.01011 0.65713,0.01719 0.97053,0.02123c0.3134,0.00607 0.52065,0.00404 0.62175,-0.00607c0.18197,0 0.27296,-0.08088 0.27296,-0.24263v-5.82319M268.62997,172.69945h1.60744v5.23177h-1.60744v-5.23177M262.06371,172.69945h1.48613v14.14854h-1.48613v-14.14854M260.78989,175.68687l1.15251,0.13648c0,0.4145 -0.0273,0.87449 -0.08189,1.37998c-0.05661,0.50548 -0.12738,1.00794 -0.2123,1.50736c-0.08694,0.50144 -0.18602,0.9493 -0.29723,1.34358l-1.198,-0.40944c0.11121,-0.35384 0.20927,-0.76126 0.29419,-1.22226c0.08694,-0.45898 0.16074,-0.92908 0.2214,-1.4103c0.06066,-0.4792 0.1011,-0.92099 0.12132,-1.32538M263.3982,175.23193l1.03119,-0.42461c0.16176,0.34373 0.32553,0.72284 0.49133,1.13734c0.16782,0.4145 0.29217,0.75823 0.37305,1.03119l-1.07668,0.5156c-0.07077,-0.28307 -0.18703,-0.63994 -0.34878,-1.07062c-0.16176,-0.42865 -0.31846,-0.82495 -0.4701,-1.1889zM282.44489,178.49232h5.5654v1.47096h-5.5654v-1.47096M284.41628,179.3567c0.3134,0.88965 0.71981,1.73381 1.21923,2.53248c0.50144,0.79867 1.09893,1.50331 1.79245,2.11394c0.6915,0.61265 1.46186,1.09589 2.31108,1.44973c-0.12132,0.1011 -0.25274,0.23455 -0.39428,0.40034c-0.14154,0.16782 -0.27498,0.33766 -0.40034,0.50953c-0.12738,0.17186 -0.23151,0.32857 -0.31239,0.4701c-0.90987,-0.43472 -1.72067,-1.00592 -2.4324,-1.7136c-0.71375,-0.70768 -1.33549,-1.51949 -1.86524,-2.43543c-0.53177,-0.91392 -0.97458,-1.90669 -1.32842,-2.97832l1.4103,-0.34878M287.60084,178.49232h0.30329l0.30329,-0.04549l1.03119,0.31846c-0.20219,1.22328 -0.53885,2.35253 -1.00996,3.38776c-0.46909,1.03726 -1.06961,1.95724 -1.80155,2.75995c-0.73396,0.80473 -1.61149,1.46995 -2.63257,1.99566c-0.12132,-0.19208 -0.28813,-0.40742 -0.50043,-0.64601c-0.2123,-0.23657 -0.4145,-0.43067 -0.60658,-0.58232c0.70768,-0.33362 1.33954,-0.73599 1.89557,-1.2071c0.55603,-0.46909 1.03827,-0.99985 1.4467,-1.59228c0.41045,-0.59041 0.74711,-1.22934 1.00996,-1.9168c0.26285,-0.68746 0.44988,-1.40525 0.56109,-2.15337v-0.31846M287.1914,173.23021h1.6681c0,0 -0.00202,0.07784 -0.00607,0.23353c-0.00607,0.15771 -0.01415,0.28712 -0.02426,0.38821c-0.03033,1.07163 -0.08795,1.86524 -0.17288,2.38084c-0.08694,0.5156 -0.2214,0.86943 -0.40338,1.06152c-0.16176,0.18197 -0.35182,0.30531 -0.57019,0.37002c-0.21635,0.06672 -0.461,0.11525 -0.73396,0.14558c-0.26285,0.01011 -0.6086,0.01516 -1.03726,0.01516c-0.43067,0 -0.88864,-0.01011 -1.37391,-0.03033c-0.01011,-0.20219 -0.05257,-0.42966 -0.12738,-0.68241c-0.07683,-0.25274 -0.17085,-0.4701 -0.28206,-0.65208c0.30329,0.02022 0.59445,0.03741 0.87348,0.05156c0.27701,0.01618 0.52469,0.02628 0.74306,0.03033c0.21635,0.00607 0.38013,0.0091 0.49133,0.0091c0.15165,0 0.27296,-0.00809 0.36395,-0.02426c0.09099,-0.01415 0.17186,-0.05156 0.24263,-0.11222c0.07077,-0.08088 0.12637,-0.2305 0.16681,-0.44887c0.04044,-0.21635 0.07582,-0.52975 0.10615,-0.9402c0.03033,-0.40843 0.0556,-0.9311 0.07582,-1.56802v-0.22747M275.40853,180.49404c0.46505,-0.1011 0.98772,-0.22241 1.56802,-0.36395c0.58232,-0.14154 1.19396,-0.29318 1.83491,-0.45494c0.64298,-0.16176 1.28292,-0.32857 1.91983,-0.50043l0.19714,1.57711c-0.87954,0.25274 -1.7692,0.50245 -2.66896,0.74913c-0.89976,0.2487 -1.72371,0.46909 -2.47182,0.66118l-0.37911,-1.6681M275.62084,175.64138h5.17112v1.57711h-5.17112v-1.57711M277.60739,172.69945h1.65294v12.29846c0,0.43472 -0.05257,0.77036 -0.15771,1.00693c-0.10716,0.23859 -0.29217,0.41854 -0.55502,0.53986c-0.26285,0.13143 -0.59951,0.21433 -1.00996,0.2487c-0.40843,0.03639 -0.91594,0.05459 -1.52252,0.05459c-0.03033,-0.2123 -0.09301,-0.4701 -0.18804,-0.77339c-0.09705,-0.30329 -0.20118,-0.56109 -0.31239,-0.77339c0.37406,0.01011 0.73093,0.01516 1.07062,0.01516c0.33766,0 0.5621,0 0.67331,0c0.13143,0 0.22241,-0.02325 0.27296,-0.06976c0.05055,-0.04448 0.07582,-0.13244 0.07582,-0.26386v-12.2833M281.29238,173.23021h6.39945v1.51646h-4.792v12.05583h-1.60744z" fill="#ffffff" stroke-width="1"/></g></g></svg>