<svg version="1.1" xmlns="http://www.w3.org/2000/svg" xmlns:xlink="http://www.w3.org/1999/xlink" width="70" height="40" viewBox="0,0,70,40"><g transform="translate(-205,-160)"><g stroke="none" stroke-miterlimit="10"><path d="M205,200v-40h70v40z" fill-opacity="0.00392" fill="#272b32" fill-rule="evenodd" stroke-width="0.25" stroke-linecap="square" stroke-linejoin="round"/><path d="M224,196v-32h32v32z" fill-opacity="0" fill="#000000" fill-rule="nonzero" stroke-width="1" stroke-linecap="butt" stroke-linejoin="miter"/><g fill="#ffffff" stroke-width="1.5625" stroke-linecap="butt" stroke-linejoin="miter"><path d="M242.32,166.72c2.73376,0 4.96096,2.22728 4.96096,4.96096v4.63752c0,2.73376 -2.22728,4.96096 -4.96096,4.96096h-4.63752c-2.73376,0 -4.96096,-2.22728 -4.96096,-4.96096v-4.63752c0,-2.73376 2.22728,-4.96096 4.96096,-4.96096zM234.48088,171.68096v4.63752c0,1.78912 1.41248,3.2016 3.2016,3.2016h4.63752c1.78912,0 3.2016,-1.41248 3.2016,-3.2016v-4.63752c0,-1.78912 -1.41248,-3.2016 -3.2016,-3.2016h-4.63752c-1.78912,0 -3.2016,1.41248 -3.2016,3.2016z" fill-rule="evenodd"/><path d="M239.136,177.896v-5.41992h1.73016v5.41992zM239.99064,171.74648c-0.271,0 -0.49335,-0.08686 -0.66706,-0.26058c-0.17371,-0.17372 -0.26057,-0.39607 -0.26058,-0.66706c0,-0.26405 0.08686,-0.4864 0.26058,-0.66706c0.17372,-0.18761 0.39607,-0.28142 0.66706,-0.28142c0.26405,0 0.4864,0.09381 0.66706,0.28142c0.18761,0.18066 0.28142,0.40302 0.28142,0.66706c0,0.271 -0.09381,0.49335 -0.28142,0.66706c-0.18066,0.17372 -0.40302,0.26058 -0.66706,0.26058z" fill-rule="nonzero"/></g><path d="M228.19196,184.21253h0.9125v6.35136h-0.9125v-6.35136M225.4635,187.87157l4.73416,-2.00569l0.36139,0.83119l-4.73416,2.0328l-0.36139,-0.85829M226.38503,185.07986h0.92153v5.90866c0,0.16865 0.01506,0.29634 0.04517,0.38307c0.03012,0.08794 0.09336,0.14696 0.18973,0.17708c0.09637,0.03012 0.23791,0.04517 0.42463,0.04517c0.05421,0 0.14335,0 0.26743,0c0.12287,0 0.26261,0 0.41921,0c0.1566,0 0.31501,0 0.47522,0c0.15901,0 0.30296,0 0.43186,0c0.1301,0 0.22526,0 0.2855,0c0.16865,0 0.29513,-0.03192 0.37946,-0.09577c0.08432,-0.06264 0.14757,-0.17828 0.18973,-0.34693c0.04216,-0.16865 0.07228,-0.41258 0.09035,-0.73181c0.10842,0.0783 0.24514,0.15058 0.41017,0.21683c0.16624,0.06625 0.31561,0.11143 0.44812,0.13552c-0.04216,0.42764 -0.11143,0.76313 -0.2078,1.00646c-0.09637,0.24454 -0.24092,0.41921 -0.43366,0.52401c-0.19274,0.10601 -0.46077,0.15901 -0.80408,0.15901c-0.06023,0 -0.15781,0 -0.29272,0c-0.13612,0 -0.29152,0 -0.46619,0c-0.17467,0 -0.34814,0 -0.5204,0c-0.17106,0 -0.32404,0 -0.45896,0c-0.13612,0 -0.23129,0 -0.2855,0c-0.38548,0 -0.68964,-0.04216 -0.9125,-0.12649c-0.22286,-0.08432 -0.37765,-0.2337 -0.46438,-0.44812c-0.08794,-0.21322 -0.13191,-0.51558 -0.13191,-0.90708v-5.89963M230.01696,185.97429h-0.07228l0.18069,-0.13552l0.18069,-0.11745l0.66856,0.24394l-0.03614,0.16262c0,0.42764 -0.0012,0.82035 -0.00361,1.17812c-0.00361,0.35898 -0.00663,0.677 -0.00903,0.95406c-0.00361,0.27706 -0.00964,0.50895 -0.01807,0.69567c-0.00964,0.18672 -0.02048,0.32525 -0.03252,0.41559c-0.01807,0.20479 -0.06625,0.36259 -0.14455,0.47342c-0.0783,0.11203 -0.18973,0.19214 -0.33428,0.24032c-0.12649,0.05421 -0.27586,0.08553 -0.44812,0.09396c-0.17106,0.00964 -0.32585,0.01446 -0.46438,0.01446c-0.01205,-0.12046 -0.03795,-0.2608 -0.0777,-0.42101c-0.03855,-0.15901 -0.08191,-0.28971 -0.1301,-0.3921c0.08432,0.00602 0.17467,0.00903 0.27104,0.00903c0.09637,0 0.16564,0 0.2078,0c0.06023,0 0.10842,-0.01385 0.14455,-0.04156c0.03614,-0.0265 0.06023,-0.08191 0.07228,-0.16624c0.01205,-0.04818 0.02108,-0.15238 0.0271,-0.3126c0.00602,-0.15901 0.01024,-0.37102 0.01265,-0.63604c0.00361,-0.26502 0.00542,-0.58605 0.00542,-0.96309c0,-0.37584 0,-0.8077 0,-1.29557M222.88862,186.33567h2.95433v0.9125h-2.95433v-0.9125M223.97278,184.32998h0.9125v5.95384h-0.9125v-5.95384M222.7802,190.3561c0.24695,-0.09035 0.53485,-0.20057 0.86371,-0.33067c0.32766,-0.12889 0.67399,-0.27044 1.03899,-0.42463c0.3638,-0.15299 0.7294,-0.30477 1.09681,-0.45535l0.21683,0.85829c-0.48185,0.2349 -0.97092,0.468 -1.46723,0.69928c-0.49751,0.23249 -0.95105,0.4421 -1.36062,0.62881zM232.77253,184.48357h6.66757v0.7047h-6.66757v-0.7047M233.17006,188.12454h6.71275v0.66856h-6.71275v-0.66856M233.99221,189.08221h5.39369v0.58725h-5.39369v-0.58725M233.15199,189.97664h7.07413v0.6505h-7.07413v-0.6505M233.37785,186.46216h1.90631v0.50594h-1.90631v-0.50594M233.17909,187.29335h2.11411v0.49691h-2.11411v-0.49691M236.90137,187.29335h2.14121v0.49691h-2.14121v-0.49691M236.90137,186.46216h1.92438v0.50594h-1.92438v-0.50594M235.60941,184.78171h0.95767v3.16213h-0.95767v-3.16213M232.19431,185.54966h7.84208v1.58106h-0.9396v-1.00285h-6.00805v1.00285h-0.89443v-1.58106M232.73639,188.12454h0.90347v1.24678c0,0.25297 -0.01506,0.52521 -0.04517,0.81673c-0.03012,0.29272 -0.08613,0.58966 -0.16804,0.89082c-0.08071,0.30115 -0.19515,0.59147 -0.34332,0.87094c-0.14696,0.28068 -0.3379,0.53545 -0.5728,0.76433c-0.04818,-0.06023 -0.11444,-0.1313 -0.19876,-0.21322c-0.08432,-0.08071 -0.17347,-0.15901 -0.26743,-0.2349c-0.09276,-0.07469 -0.17527,-0.1301 -0.24755,-0.16624c0.28309,-0.27104 0.49088,-0.56617 0.62339,-0.8854c0.13251,-0.31922 0.21804,-0.64026 0.25658,-0.96309c0.03975,-0.32163 0.05963,-0.62098 0.05963,-0.89804v-1.22871M236.89233,190.31996c0.18069,0.29513 0.43667,0.54027 0.76795,0.73542c0.33127,0.19635 0.72699,0.34994 1.18715,0.46077c0.46137,0.11203 0.97514,0.18611 1.54131,0.22225c-0.08432,0.08432 -0.17166,0.19876 -0.262,0.34332c-0.09035,0.14455 -0.16262,0.27706 -0.21683,0.39752c-0.62038,-0.06625 -1.1727,-0.18069 -1.65696,-0.34332c-0.48546,-0.16262 -0.90286,-0.38126 -1.2522,-0.65592c-0.34934,-0.27345 -0.63845,-0.60894 -0.86733,-1.00646l0.75891,-0.15359M238.99741,190.55486l0.71374,0.36139c-0.21683,0.14455 -0.44571,0.27827 -0.68663,0.40114c-0.24092,0.12408 -0.46077,0.23129 -0.65953,0.32163l-0.58725,-0.32525c0.13251,-0.07228 0.27224,-0.15238 0.41921,-0.24032c0.14817,-0.08673 0.29272,-0.17708 0.43366,-0.27104c0.14214,-0.09276 0.26441,-0.17527 0.36681,-0.24755M234.06449,192.6509l-0.04517,-0.63243l0.37946,-0.262l2.49356,-0.35235c-0.02409,0.10842 -0.04517,0.23309 -0.06324,0.37403c-0.01807,0.14214 -0.0271,0.25839 -0.0271,0.34874c-0.55413,0.09035 -1.00164,0.16383 -1.34255,0.22045c-0.3397,0.05782 -0.60291,0.1048 -0.78963,0.14094c-0.18672,0.03614 -0.32224,0.06625 -0.40656,0.09035c-0.08432,0.02409 -0.15058,0.04818 -0.19876,0.07228M234.06449,192.6509c-0.02409,-0.07228 -0.06023,-0.1554 -0.10842,-0.24936c-0.04818,-0.09276 -0.10119,-0.18611 -0.15901,-0.28007c-0.05662,-0.09276 -0.10902,-0.16925 -0.1572,-0.22948c0.10239,-0.05421 0.21201,-0.14636 0.32886,-0.27646c0.11805,-0.12889 0.17708,-0.29573 0.17708,-0.50052v-0.86733l0.9396,0.01807v1.47265c0,0 -0.03433,0.02108 -0.103,0.06324c-0.06987,0.04216 -0.15419,0.09938 -0.25297,0.17166c-0.09998,0.07228 -0.20117,0.14757 -0.30356,0.22587c-0.10239,0.0783 -0.18852,0.15781 -0.25839,0.23851c-0.06866,0.08191 -0.103,0.15299 -0.103,0.21322zM244.72538,189.40746h3.26151v0.69567h-3.26151v-0.69567M243.68639,184.85399h5.38465v0.7047h-5.38465v-0.7047M243.92129,185.98332h4.90582v0.65953h-4.90582v-0.65953M243.40632,187.09459h5.9448v0.7047h-5.9448v-0.7047M244.73441,190.591h3.27054v0.68663h-3.27054v-0.68663M244.02971,188.20585h3.91201v0.71374h-3.01757v3.73131h-0.89443v-4.44505M247.78813,188.20585h0.92153v3.48738c0,0.21683 -0.0271,0.38849 -0.08131,0.51498c-0.05421,0.12649 -0.15961,0.22286 -0.31621,0.28911c-0.15058,0.06625 -0.33729,0.10661 -0.56015,0.12106c-0.22286,0.01566 -0.49088,0.02048 -0.80408,0.01446c-0.01807,-0.11444 -0.0524,-0.25177 -0.103,-0.41198c-0.0518,-0.15901 -0.10781,-0.29573 -0.16804,-0.41017c0.19876,0.00602 0.3915,0.01024 0.57822,0.01265c0.18672,0.00361 0.31019,0.00241 0.37042,-0.00361c0.10842,0 0.16262,-0.04818 0.16262,-0.14455v-3.46931M245.86374,184.21253h0.95767v3.11696h-0.95767v-3.11696M241.95174,184.21253h0.8854v8.42933h-0.8854v-8.42933M241.19283,185.99236l0.68663,0.08131c0,0.24695 -0.01686,0.521 -0.05059,0.82215c-0.03252,0.30115 -0.07469,0.6005 -0.12649,0.89804c-0.05059,0.29875 -0.10902,0.56557 -0.17527,0.80047l-0.71374,-0.24394c0.06625,-0.21081 0.12468,-0.45354 0.17527,-0.72819c0.0518,-0.27345 0.09577,-0.55352 0.13191,-0.84022c0.03614,-0.2855 0.06023,-0.5487 0.07228,-0.78963M242.74679,185.72132l0.61436,-0.25297c0.09637,0.20479 0.19455,0.43065 0.29453,0.6776c0.09878,0.24695 0.17226,0.45173 0.22045,0.61436l-0.64146,0.30718c-0.04216,-0.16865 -0.11143,-0.38126 -0.2078,-0.63785c-0.09637,-0.25538 -0.18973,-0.49149 -0.28007,-0.70832zM254.09431,187.66377h3.31572v0.87636h-3.31572v-0.87636M255.26882,188.17874c0.18672,0.53003 0.42945,1.03296 0.72819,1.50879c0.29754,0.47583 0.6529,0.89564 1.06609,1.25943c0.41198,0.365 0.87094,0.6529 1.37688,0.86371c-0.07228,0.06023 -0.15058,0.13974 -0.2349,0.23851c-0.08432,0.09998 -0.16383,0.20117 -0.23851,0.30356c-0.07589,0.10239 -0.13793,0.19575 -0.18611,0.28007c-0.54208,-0.25899 -1.02513,-0.5993 -1.44916,-1.02092c-0.42523,-0.42162 -0.79565,-0.90527 -1.11126,-1.45097c-0.31682,-0.54449 -0.58063,-1.13596 -0.79144,-1.77441l0.84022,-0.2078M257.1661,187.66377h0.18069l0.18069,-0.0271l0.61436,0.18973c-0.12046,0.7288 -0.32043,1.40158 -0.5999,2.01834c-0.28068,0.61797 -0.63905,1.16607 -1.07512,1.64431c-0.43728,0.47944 -0.96008,0.87576 -1.56842,1.18896c-0.07228,-0.11444 -0.17166,-0.24273 -0.29814,-0.38488c-0.12649,-0.14094 -0.24695,-0.25658 -0.36139,-0.34693c0.42162,-0.19876 0.79806,-0.43848 1.12933,-0.71916c0.33127,-0.27947 0.61917,-0.59568 0.86371,-0.94864c0.24333,-0.35175 0.4433,-0.73241 0.5999,-1.14198c0.1566,-0.40957 0.26803,-0.83721 0.33428,-1.28292v-0.18973M256.92216,184.52874h0.99381c0,0 -0.0012,0.04638 -0.00361,0.13913c-0.00361,0.09396 -0.00843,0.17106 -0.01446,0.23129c-0.01807,0.63845 -0.0524,1.11126 -0.103,1.41844c-0.0518,0.30718 -0.13191,0.51799 -0.24032,0.63243c-0.09637,0.10842 -0.209,0.1819 -0.3379,0.22045c-0.1301,0.03975 -0.27646,0.06866 -0.43908,0.08673c-0.1566,0.00602 -0.36259,0.00903 -0.61797,0.00903c-0.25658,0 -0.52943,-0.00602 -0.81854,-0.01807c-0.00602,-0.12046 -0.03132,-0.25598 -0.07589,-0.40656c-0.04578,-0.15058 -0.10179,-0.28007 -0.16804,-0.38849c0.18069,0.01205 0.35416,0.02229 0.5204,0.03072c0.16503,0.00964 0.3126,0.01566 0.4427,0.01807c0.12889,0.00361 0.22647,0.00542 0.29272,0.00542c0.09035,0 0.16262,-0.00482 0.21683,-0.01446c0.05421,-0.00843 0.10239,-0.03072 0.14455,-0.06686c0.04216,-0.04818 0.07529,-0.13733 0.09938,-0.26743c0.02409,-0.12889 0.04517,-0.31561 0.06324,-0.56015c0.01807,-0.24333 0.03313,-0.55473 0.04517,-0.93418v-0.13552M249.90224,188.85634c0.27706,-0.06023 0.58906,-0.13251 0.93599,-0.21683c0.34573,-0.08432 0.71012,-0.17467 1.09319,-0.27104c0.38187,-0.09637 0.76252,-0.19575 1.14198,-0.29814l0.11745,0.9396c-0.52401,0.15058 -1.05404,0.29935 -1.5901,0.44631c-0.53606,0.14817 -1.02694,0.27947 -1.47265,0.39391l-0.22587,-0.99381M250.02872,185.96525h3.08082v0.9396h-3.08082v-0.9396M251.21226,184.21253h0.98478v7.3271c0,0.25899 -0.03132,0.45896 -0.09396,0.5999c-0.06385,0.14214 -0.17407,0.24936 -0.33067,0.32163c-0.1566,0.0783 -0.35657,0.12769 -0.5999,0.14817c-0.24454,0.02168 -0.5475,0.03252 -0.90889,0.03252c-0.01807,-0.12649 -0.05541,-0.28007 -0.11203,-0.46077c-0.05782,-0.18069 -0.11986,-0.33428 -0.18611,-0.46077c0.22286,0.00602 0.43547,0.00903 0.63785,0.00903c0.20117,0 0.33488,0 0.40114,0c0.0783,0 0.13251,-0.01385 0.16262,-0.04156c0.03012,-0.0265 0.04517,-0.0789 0.04517,-0.1572v-7.31807M253.40768,184.52874h3.81262v0.90347h-2.85495v7.18255h-0.95767z" fill="#ffffff" fill-rule="nonzero" stroke-width="1" stroke-linecap="butt" stroke-linejoin="miter"/></g></g></svg>