<svg version="1.1" xmlns="http://www.w3.org/2000/svg" xmlns:xlink="http://www.w3.org/1999/xlink" width="99.98527" height="21.32439" viewBox="0,0,99.98527,21.32439"><g transform="translate(-239.59325,-168.64527)"><g fill="#ffffff" fill-rule="evenodd" stroke="#ffffff" stroke-width="0.5" stroke-linecap="round" stroke-miterlimit="10"><path d="M257.45958,179.4117h-7.80677c0.51773,1.3022 1.11379,2.41356 1.7882,3.33408c0.67441,0.92052 1.50549,1.73626 2.49326,2.44723c0.98777,0.71097 2.21737,1.3733 3.6888,1.98698l-0.79703,1.63897c-2.31615,-1.03278 -4.15203,-2.26762 -5.50766,-3.70453c-1.35563,-1.43691 -2.48305,-3.33782 -3.38225,-5.70273h-3.39247v7.67848l4.67997,-2.24517l0.08175,1.70633l-6.2536,3.05343l-0.77659,-1.68388c0.27249,-0.16465 0.46323,-0.32181 0.57223,-0.47149c0.10899,-0.14968 0.16349,-0.32929 0.16349,-0.53884v-7.49887h-3.16767v-1.75123h3.16767v-8.599h1.53274v8.599h12.91592zM254.94588,169.57786l0.73572,1.68387c-1.23982,0.91304 -2.6806,1.8111 -4.32234,2.6942c-1.64174,0.8831 -3.28688,1.66143 -4.93543,2.33498l-0.57223,-1.66143c1.52593,-0.59871 3.09955,-1.3471 4.72085,-2.24517c1.6213,-0.89807 3.07911,-1.83355 4.37343,-2.80646z"/><path d="M275.38246,177.39104h2.65675v1.50426l-1.08314,4.13111l-1.26707,-0.51639l1.00139,-3.59227h-2.26846v8.17242c0,0.80826 -0.17031,1.35833 -0.51092,1.6502c-0.34061,0.29187 -0.96733,0.43781 -1.88016,0.43781h-1.73711l-0.28611,-1.54917h1.6758c0.53135,0 0.88558,-0.07858 1.0627,-0.23574c0.17712,-0.15716 0.26568,-0.46774 0.26568,-0.93175v-7.54377h-3.29029v-1.52672h3.78077c-0.87196,-1.06271 -1.83929,-2.17781 -2.90199,-3.3453l0.89921,-1.05523l2.10497,2.33497l0.34742,-0.49394c0.14987,-0.20955 0.47686,-0.66232 0.98096,-1.35832c0.5041,-0.696 0.86515,-1.21613 1.08314,-1.56039h-5.7018v-1.54917h7.25498v1.86349c-0.35423,0.52388 -1.15807,1.63897 -2.41151,3.3453l-0.6131,0.83071c0.01362,0.01497 0.29292,0.34426 0.8379,0.98787zM269.37411,183.49791h-3.80121v2.71666l3.9647,-0.33678v1.54916c-0.92646,0.05987 -1.99938,0.13846 -3.21876,0.23575c-1.21938,0.09729 -2.36043,0.18335 -3.42313,0.25819c-0.76296,0.05987 -1.37606,0.10852 -1.83929,0.14594c-0.46323,0.03742 -0.80384,0.06362 -1.02183,0.07858l-0.10218,-1.54917c0.72209,-0.01497 2.14584,-0.10477 4.27124,-0.26942v-2.82891h-3.71945v-1.50426h3.71945v-2.49214h-3.29029v-9.3399h7.9907v9.3399h-3.33116v2.49214h3.80121zM265.53203,171.66586v2.40233h2.04366v-2.40233zM262.2213,174.0682h2.02322v-2.40233h-2.02322zM267.57569,175.57246h-2.04366v2.35743h2.04366zM264.24452,177.92989v-2.35743h-2.02322v2.35743z"/><path d="M298.61885,183.18358h-10.15698c-1.03545,1.2573 -2.30253,2.55949 -3.80121,3.9066l9.17603,-0.38168l-2.24802,-2.33497l1.00139,-1.10013c0.58585,0.58374 1.14786,1.15252 1.68602,1.70633c0.53816,0.55381 1.01161,1.04026 1.42034,1.45936c1.47143,1.52672 2.07772,2.14788 1.81885,1.86349l-1.0627,1.27974c-0.23161,-0.26942 -0.65397,-0.74091 -1.26707,-1.41446l-12.6298,0.6062l-0.38829,-1.59407c1.60768,-1.2573 3.0178,-2.58943 4.23037,-3.9964h-5.8653v-1.52672h2.69763v-11.67488h12.6298v11.67488h2.75894zM294.38848,181.65687v-2.46969h-9.6665v2.46969zM284.72198,175.34794v2.37988h9.6665v-2.37988zM284.72198,173.93348h9.6665v-2.35743h-9.6665z"/><path d="M318.8715,171.35154v1.59407h-8.13376v2.24517h6.90757v11.45037c0,0.68852 -0.07153,1.21613 -0.21459,1.58284c-0.14306,0.36671 -0.37467,0.62116 -0.69484,0.76336c-0.32017,0.14219 -0.77999,0.21329 -1.37947,0.21329h-2.5137l-0.28611,-1.57162h2.22759c0.39511,0 0.68121,-0.03367 0.85833,-0.10103c0.17712,-0.06736 0.29633,-0.19458 0.35764,-0.38168c0.06131,-0.1871 0.09196,-0.48271 0.09196,-0.88684v-9.51952h-12.38457v12.48314h-1.49187v-14.03231h6.94844v-2.24517h-8.21551v-1.59407h8.21551v-2.44724h1.57361v2.44724zM315.27466,183.47545v1.3471h-4.55736v3.97395h-1.53274v-3.97395h-4.67998v-1.3471h4.67998v-2.06555h-4.23037v-1.3471h2.77937c-0.64034,-0.94297 -1.18532,-1.69885 -1.63493,-2.26762l1.16489,-0.71846c-0.04087,-0.05987 0.23843,0.32181 0.8379,1.14504l0.96052,1.32465l-0.85834,0.51639h2.30933c0.68122,-0.97291 1.30113,-1.97575 1.85973,-3.00853l1.30794,0.696c-0.27249,0.49394 -0.77659,1.26478 -1.51231,2.31253h2.65675v1.3471h-4.10775v2.06555z"/><path d="M339.08328,172.09245l-1.69624,5.72518c0.72209,1.03278 1.22619,1.94955 1.51231,2.75033c0.28611,0.80078 0.42917,1.6502 0.42917,2.54827c0,1.27226 -0.24524,2.17782 -0.73572,2.71666c-0.49048,0.53884 -1.31476,0.80826 -2.47283,0.80826h-1.16488l-0.30655,-1.59407h1.0627c0.80384,0 1.36584,-0.1609 1.68602,-0.48271c0.32017,-0.32181 0.48026,-0.89433 0.48026,-1.71756c0,-0.71845 -0.16008,-1.45187 -0.48026,-2.20026c-0.32017,-0.74839 -0.82768,-1.57911 -1.52253,-2.49214l1.65536,-6.08441h-3.43335v17.53477h-1.451v-19.1962h6.43752zM331.0517,173.14768h-1.53274c-0.16349,1.39201 -0.37467,2.70168 -0.63354,3.92904h2.75894v1.61653h-10.23873v-1.61653h2.61588c-0.25886,-1.70633 -0.49729,-3.01601 -0.71528,-3.92904h-1.38969v-1.59407h3.98513c-0.17712,-0.79329 -0.38148,-1.52671 -0.6131,-2.20026l1.51231,-0.40413c0.27249,0.89807 0.5041,1.7662 0.69484,2.60439h3.55596zM324.02152,187.69637v1.50426h-1.43056v-8.46429h7.80677v6.96003zM324.02152,186.16966h4.94565v-3.83924h-4.94565zM328.12927,173.14768h-3.37203c0.35423,1.85601 0.59266,3.16568 0.71528,3.92904h2.02322c0.24524,-1.16749 0.45641,-2.47717 0.63353,-3.92904z"/></g></g></svg>