<svg version="1.1" xmlns="http://www.w3.org/2000/svg" xmlns:xlink="http://www.w3.org/1999/xlink" width="208.4658" height="32" viewBox="0,0,208.4658,32"><g transform="translate(-239.5342,-164)"><g stroke="none" stroke-miterlimit="10"><path d="M241.70059,182.00255v-1.68047l1.27554,-0.74913h13.16032v2.1259h-12.10749c-0.37794,0 -0.73158,0.00945 -1.06092,0.02835c-0.33204,0.0216 -0.60875,0.05534 -0.83011,0.10123c-0.22406,0.04859 -0.36984,0.10663 -0.43733,0.17412M248.28075,176.9004h2.20688v10.46752c0,0.56691 -0.06749,1.01503 -0.20247,1.34438c-0.13498,0.33204 -0.40493,0.5858 -0.80987,0.76127c-0.37794,0.18897 -0.84361,0.3064 -1.39702,0.35229c-0.55341,0.04859 -1.2013,0.07289 -1.94368,0.07289c-0.02699,-0.21596 -0.08773,-0.45892 -0.18222,-0.72888c-0.09449,-0.26995 -0.19167,-0.53721 -0.29155,-0.80177c-0.10258,-0.26186 -0.20787,-0.49402 -0.31585,-0.69648c0.52641,0.0135 1.03258,0.02295 1.5185,0.02835c0.48592,0.0081 0.81661,0.0054 0.99209,-0.0081c0.16197,0 0.274,-0.02699 0.33609,-0.08099c0.05939,-0.05399 0.08909,-0.14847 0.08909,-0.28345v-10.42702M243.11785,183.01488l2.18664,0.6074c-0.31045,0.71538 -0.68164,1.42671 -1.11357,2.134c-0.43193,0.70998 -0.8868,1.37542 -1.36462,1.99632c-0.48052,0.6209 -0.97049,1.16081 -1.46991,1.61973c-0.13498,-0.12148 -0.31315,-0.274 -0.53451,-0.45757c-0.22406,-0.18087 -0.45083,-0.35634 -0.68029,-0.52641c-0.22946,-0.16737 -0.43193,-0.30505 -0.6074,-0.41303c0.72888,-0.5939 1.41457,-1.33628 2.05706,-2.22713c0.63979,-0.89085 1.14866,-1.80195 1.5266,-2.7333M251.72268,183.88549l1.84244,-0.87061c0.48592,0.49942 0.98939,1.04878 1.5104,1.64808c0.51831,0.602 1.00423,1.1959 1.45776,1.7817c0.45083,0.5885 0.81122,1.11897 1.08117,1.59139l-1.98417,1.03258c-0.24296,-0.47242 -0.5777,-1.00963 -1.00423,-1.61163c-0.42383,-0.5993 -0.88815,-1.21345 -1.39297,-1.84244c-0.50752,-0.6263 -1.01098,-1.20265 -1.5104,-1.72906M239.75691,173.76217h17.31088v2.0854h-17.31088v-2.0854M241.70059,182.00255c-0.04049,-0.14847 -0.10393,-0.35769 -0.19032,-0.62765c-0.08909,-0.26995 -0.18762,-0.55071 -0.2956,-0.84226c-0.10798,-0.28885 -0.20921,-0.53451 -0.3037,-0.73698c0.26995,-0.08099 0.53046,-0.24971 0.78152,-0.50617c0.24836,-0.25646 0.53451,-0.60065 0.85846,-1.03258c0.17547,-0.20247 0.42248,-0.54666 0.74103,-1.03258c0.31585,-0.48592 0.66679,-1.06362 1.05283,-1.73311c0.38334,-0.66679 0.77072,-1.38487 1.16216,-2.15424c0.39143,-0.76937 0.74913,-1.55224 1.07307,-2.34861l2.36886,0.87061c-0.51291,1.10682 -1.07982,2.19339 -1.70072,3.25971c-0.6209,1.06632 -1.25799,2.07866 -1.91128,3.037c-0.65599,0.95834 -1.30119,1.8222 -1.93558,2.59157v0.04049c0,0 -0.08773,0.04319 -0.26321,0.12958c-0.17547,0.08909 -0.37119,0.19707 -0.58715,0.32395c-0.21596,0.12958 -0.41168,0.26186 -0.58715,0.39683c-0.17547,0.13498 -0.26321,0.25646 -0.26321,0.36444zM259.7201,173.49896h17.85754v2.14614h-17.85754v-2.14614M264.25535,178.70235v2.49034h8.80729v-2.49034h-8.80729M262.08896,176.81941h13.2818v6.25621h-13.2818v-6.25621M272.11105,185.22177l1.7817,-1.11357c0.41843,0.43193 0.85711,0.9003 1.31603,1.40512c0.45892,0.50752 0.8976,1.00423 1.31603,1.49015c0.41843,0.48592 0.75587,0.9246 1.01233,1.31603l-1.90318,1.27554c-0.22946,-0.39143 -0.54261,-0.84091 -0.93944,-1.34843c-0.39953,-0.50482 -0.82606,-1.02448 -1.27959,-1.55899c-0.45083,-0.53181 -0.88545,-1.02043 -1.30388,-1.46586M267.5758,182.46823h2.30812v5.28437c0,0.56691 -0.07424,1.00828 -0.22271,1.32413c-0.14847,0.31855 -0.43868,0.55881 -0.87061,0.72078c-0.41843,0.14847 -0.93135,0.23891 -1.53875,0.27131c-0.6074,0.03509 -1.32953,0.04589 -2.16639,0.03239c-0.05399,-0.31045 -0.14847,-0.66139 -0.28345,-1.05283c-0.13498,-0.39143 -0.2767,-0.73563 -0.42518,-1.03258c0.39143,0.0135 0.77207,0.02295 1.14191,0.02835c0.37254,0.0081 0.70458,0.0081 0.99613,0c0.28885,-0.0054 0.49402,-0.0081 0.6155,-0.0081c0.17547,0 0.29425,-0.0243 0.35634,-0.07289c0.05939,-0.04589 0.08909,-0.13633 0.08909,-0.27131v-5.22363M262.89883,184.16894l2.1259,0.76937c-0.53991,0.80987 -1.17431,1.62918 -1.90318,2.45794c-0.72888,0.83146 -1.43751,1.55089 -2.1259,2.15829c-0.20247,-0.21596 -0.46297,-0.45892 -0.78152,-0.72888c-0.31585,-0.26995 -0.5885,-0.48592 -0.81796,-0.64789c0.44543,-0.35094 0.88815,-0.75587 1.32818,-1.2148c0.43733,-0.45892 0.84901,-0.9354 1.23505,-1.42941c0.38334,-0.49132 0.69648,-0.94619 0.93944,-1.36462M266.74569,171.65652l2.1259,-0.68839c0.26995,0.43193 0.55746,0.9111 0.86251,1.43751c0.30235,0.52641 0.52776,0.97859 0.67624,1.35653l-2.24738,0.78962c-0.13498,-0.37794 -0.33744,-0.84361 -0.6074,-1.39702c-0.26995,-0.55341 -0.53991,-1.05283 -0.80987,-1.49825zM280.04774,172.36515l1.72096,-0.99209c0.28345,0.32395 0.58445,0.68839 0.903,1.09332c0.31585,0.40493 0.60875,0.80312 0.8787,1.19455c0.26995,0.39143 0.49267,0.74238 0.66814,1.05283l-1.84244,1.13381c-0.14847,-0.31045 -0.35364,-0.66814 -0.6155,-1.07307c-0.26456,-0.40493 -0.54801,-0.82066 -0.85036,-1.24719c-0.30505,-0.42383 -0.59255,-0.81122 -0.86251,-1.16216M279.3391,177.95322l1.76146,-0.93135c0.26995,0.32395 0.55341,0.68434 0.85036,1.08117c0.29695,0.39953 0.57096,0.79097 0.82201,1.17431c0.24836,0.38604 0.44678,0.73428 0.59525,1.04473l-1.88294,1.03258c-0.12148,-0.31045 -0.3037,-0.66139 -0.54666,-1.05283c-0.24296,-0.39143 -0.50212,-0.79637 -0.77747,-1.2148c-0.27805,-0.41843 -0.55206,-0.79637 -0.82201,-1.13381M279.82502,188.25877c0.24296,-0.51291 0.50617,-1.12031 0.78962,-1.8222c0.28345,-0.70188 0.57096,-1.44831 0.86251,-2.23928c0.28885,-0.78827 0.56151,-1.56709 0.81796,-2.33646l1.7817,1.25529c-0.21596,0.68839 -0.44813,1.40377 -0.69648,2.14614c-0.25106,0.74238 -0.50752,1.47126 -0.76937,2.18664c-0.26456,0.71538 -0.53181,1.39702 -0.80177,2.04491l-1.98417,-1.23505M294.46335,175.80708l1.57924,-0.83011c0.31045,0.29695 0.62495,0.6209 0.94349,0.97184c0.31585,0.35094 0.60605,0.70458 0.87061,1.06092c0.26186,0.35904 0.46702,0.68704 0.6155,0.98399l-1.68047,0.93135c-0.13498,-0.29695 -0.32665,-0.62765 -0.575,-0.99209c-0.25106,-0.36444 -0.52776,-0.73293 -0.83011,-1.10547c-0.30505,-0.36984 -0.6128,-0.70998 -0.92325,-1.02043M286.74938,185.03955h9.35395v1.66022h-9.35395v-1.66022M287.17456,182.38724h7.59249v-1.07307h-9.27296v-1.59949h11.31788v4.29229h-9.6374v-1.61973M286.48617,182.38724h2.1259c-0.16197,0.74238 -0.33744,1.505 -0.52641,2.28787c-0.18897,0.78287 -0.37119,1.45776 -0.54666,2.02466h-2.16639c0.20247,-0.6074 0.40493,-1.30253 0.6074,-2.0854c0.20247,-0.78287 0.37119,-1.52525 0.50617,-2.22713M295.51617,185.03955h2.16639c0,0 -0.0135,0.10123 -0.04049,0.3037c-0.02699,0.20247 -0.06074,0.37794 -0.10123,0.52641c-0.18897,1.05283 -0.39414,1.86269 -0.6155,2.4296c-0.22406,0.56691 -0.48457,0.97859 -0.78152,1.23505c-0.21596,0.17547 -0.44138,0.29965 -0.67624,0.37254c-0.23756,0.07559 -0.51157,0.12013 -0.82201,0.13363c-0.26995,0.02699 -0.63439,0.04049 -1.09332,0.04049c-0.45892,0 -0.95834,-0.0135 -1.49825,-0.04049c-0.0135,-0.26995 -0.06749,-0.57096 -0.16197,-0.903c-0.09449,-0.32935 -0.22271,-0.62225 -0.38469,-0.8787c0.45892,0.04049 0.90165,0.06749 1.32818,0.08099c0.42383,0.0135 0.73023,0.02025 0.9192,0.02025c0.16197,0 0.301,-0.0108 0.41708,-0.03239c0.11338,-0.0189 0.21731,-0.06209 0.3118,-0.12958c0.17547,-0.16197 0.35499,-0.47242 0.53856,-0.93135c0.18087,-0.45892 0.33879,-1.12706 0.47377,-2.00442l0.02025,-0.22271M285.21063,172.83082h12.95785v1.76146h-12.95785v-1.76146M292.15523,173.82291h1.98417v5.40585h-1.98417v-5.40585M286.48617,174.99721l1.7817,0.52641c-0.32395,0.64789 -0.73563,1.28499 -1.23505,1.91128c-0.49942,0.629 -0.99883,1.15946 -1.49825,1.59139c-0.10798,-0.10798 -0.24971,-0.22946 -0.42518,-0.36444c-0.17547,-0.13498 -0.36039,-0.274 -0.55476,-0.41708c-0.19707,-0.14038 -0.36984,-0.25106 -0.51831,-0.33204c0.49942,-0.37794 0.96239,-0.82336 1.38892,-1.33628c0.42383,-0.51291 0.77747,-1.03933 1.06092,-1.57924M288.57157,173.84315h1.96392v5.40585h-1.96392v-5.40585M290.09007,171.33257l2.02466,-0.46567c0.24296,0.40493 0.46297,0.85711 0.66004,1.35653c0.19437,0.49942 0.3253,0.93135 0.39278,1.29579l-2.16639,0.54666c-0.05399,-0.36444 -0.16872,-0.80312 -0.34419,-1.31603c-0.17547,-0.51291 -0.36444,-0.98534 -0.56691,-1.41727zM307.94761,179.93739l1.63998,-1.19455c0.45892,0.41843 0.95159,0.87061 1.47801,1.35653c0.52641,0.48592 1.04608,0.97859 1.55899,1.47801c0.51291,0.49942 0.99209,0.98534 1.43751,1.45776c0.44543,0.47242 0.81661,0.8976 1.11357,1.27554l-1.80195,1.41727c-0.26995,-0.39143 -0.61685,-0.82741 -1.04068,-1.30793c-0.42653,-0.47782 -0.88545,-0.97994 -1.37677,-1.50635c-0.49402,-0.52641 -1.00018,-1.04338 -1.5185,-1.55089c-0.52101,-0.50482 -1.01773,-0.97994 -1.49015,-1.42536M308.04885,171.15035h2.22713v4.61624c0,0.66139 -0.04049,1.35248 -0.12148,2.07326c-0.08099,0.72348 -0.23216,1.45236 -0.45352,2.18664c-0.22406,0.73698 -0.54126,1.46316 -0.95159,2.17854c-0.41303,0.71538 -0.95024,1.40377 -1.61163,2.06516c-0.66139,0.66139 -1.47126,1.27554 -2.4296,1.84244c-0.09449,-0.16197 -0.23216,-0.34419 -0.41303,-0.54666c-0.18357,-0.20247 -0.37659,-0.40493 -0.57905,-0.6074c-0.20247,-0.20247 -0.39143,-0.36444 -0.56691,-0.48592c0.91785,-0.48592 1.67642,-1.00963 2.27572,-1.57114c0.602,-0.55881 1.07847,-1.14596 1.42941,-1.76146c0.35094,-0.6128 0.61145,-1.22965 0.78152,-1.85054c0.16737,-0.6209 0.27805,-1.23235 0.33204,-1.83435c0.05399,-0.5993 0.08099,-1.16891 0.08099,-1.70882v-4.59599M300.88154,174.55179h15.4077v2.1259h-13.24131v13.42353h-2.16639v-15.54942M315.31739,174.55179h2.14614v12.95785c0,0.6074 -0.07424,1.07982 -0.22271,1.41727c-0.14847,0.33744 -0.42518,0.5939 -0.83011,0.76937c-0.40493,0.17547 -0.9273,0.2794 -1.56709,0.3118c-0.64249,0.03509 -1.42267,0.05264 -2.34051,0.05264c-0.0135,-0.20247 -0.06074,-0.43598 -0.14173,-0.70053c-0.08099,-0.26186 -0.16872,-0.52101 -0.26321,-0.77747c-0.09449,-0.25646 -0.19572,-0.48592 -0.3037,-0.68839c0.41843,0.0135 0.83416,0.02699 1.24719,0.04049c0.41033,0.0135 0.77747,0.02025 1.10142,0.02025c0.32395,0 0.54666,0 0.66814,0c0.20247,-0.0135 0.33744,-0.05399 0.40493,-0.12148c0.06749,-0.06749 0.10123,-0.18897 0.10123,-0.36444zM320.54103,172.36515l1.72096,-0.99209c0.28345,0.32395 0.58445,0.68839 0.903,1.09332c0.31585,0.40493 0.60875,0.80312 0.8787,1.19455c0.26995,0.39143 0.49267,0.74238 0.66814,1.05283l-1.84244,1.13381c-0.14847,-0.31045 -0.35364,-0.66814 -0.6155,-1.07307c-0.26456,-0.40493 -0.54801,-0.82066 -0.85036,-1.24719c-0.30505,-0.42383 -0.59255,-0.81122 -0.86251,-1.16216M319.8324,177.95322l1.76146,-0.93135c0.26995,0.32395 0.55341,0.68434 0.85036,1.08117c0.29695,0.39953 0.57096,0.79097 0.82201,1.17431c0.24836,0.38604 0.44678,0.73428 0.59525,1.04473l-1.88294,1.03258c-0.12148,-0.31045 -0.3037,-0.66139 -0.54666,-1.05283c-0.24296,-0.39143 -0.50212,-0.79637 -0.77747,-1.2148c-0.27805,-0.41843 -0.55206,-0.79637 -0.82201,-1.13381M320.31832,188.25877c0.24296,-0.51291 0.50617,-1.12031 0.78962,-1.8222c0.28345,-0.70188 0.57096,-1.44831 0.86251,-2.23928c0.28885,-0.78827 0.56151,-1.56709 0.81796,-2.33646l1.7817,1.25529c-0.21596,0.68839 -0.44813,1.40377 -0.69648,2.14614c-0.25106,0.74238 -0.50752,1.47126 -0.76937,2.18664c-0.26456,0.71538 -0.53181,1.39702 -0.80177,2.04491l-1.98417,-1.23505M334.95664,175.80708l1.57924,-0.83011c0.31045,0.29695 0.62495,0.6209 0.94349,0.97184c0.31585,0.35094 0.60605,0.70458 0.87061,1.06092c0.26186,0.35904 0.46702,0.68704 0.6155,0.98399l-1.68047,0.93135c-0.13498,-0.29695 -0.32665,-0.62765 -0.575,-0.99209c-0.25106,-0.36444 -0.52776,-0.73293 -0.83011,-1.10547c-0.30505,-0.36984 -0.6128,-0.70998 -0.92325,-1.02043M327.24267,185.03955h9.35395v1.66022h-9.35395v-1.66022M327.66785,182.38724h7.59249v-1.07307h-9.27296v-1.59949h11.31788v4.29229h-9.6374v-1.61973M326.97946,182.38724h2.1259c-0.16197,0.74238 -0.33744,1.505 -0.52641,2.28787c-0.18897,0.78287 -0.37119,1.45776 -0.54666,2.02466h-2.16639c0.20247,-0.6074 0.40493,-1.30253 0.6074,-2.0854c0.20247,-0.78287 0.37119,-1.52525 0.50617,-2.22713M336.00947,185.03955h2.16639c0,0 -0.0135,0.10123 -0.04049,0.3037c-0.02699,0.20247 -0.06074,0.37794 -0.10123,0.52641c-0.18897,1.05283 -0.39414,1.86269 -0.6155,2.4296c-0.22406,0.56691 -0.48457,0.97859 -0.78152,1.23505c-0.21596,0.17547 -0.44138,0.29965 -0.67624,0.37254c-0.23756,0.07559 -0.51157,0.12013 -0.82201,0.13363c-0.26995,0.02699 -0.63439,0.04049 -1.09332,0.04049c-0.45892,0 -0.95834,-0.0135 -1.49825,-0.04049c-0.0135,-0.26995 -0.06749,-0.57096 -0.16197,-0.903c-0.09449,-0.32935 -0.22271,-0.62225 -0.38469,-0.8787c0.45892,0.04049 0.90165,0.06749 1.32818,0.08099c0.42383,0.0135 0.73023,0.02025 0.9192,0.02025c0.16197,0 0.301,-0.0108 0.41708,-0.03239c0.11338,-0.0189 0.21731,-0.06209 0.3118,-0.12958c0.17547,-0.16197 0.35499,-0.47242 0.53856,-0.93135c0.18087,-0.45892 0.33879,-1.12706 0.47377,-2.00442l0.02025,-0.22271M325.70392,172.83082h12.95785v1.76146h-12.95785v-1.76146M332.64852,173.82291h1.98417v5.40585h-1.98417v-5.40585M326.97946,174.99721l1.7817,0.52641c-0.32395,0.64789 -0.73563,1.28499 -1.23505,1.91128c-0.49942,0.629 -0.99883,1.15946 -1.49825,1.59139c-0.10798,-0.10798 -0.24971,-0.22946 -0.42518,-0.36444c-0.17547,-0.13498 -0.36039,-0.274 -0.55476,-0.41708c-0.19707,-0.14038 -0.36984,-0.25106 -0.51831,-0.33204c0.49942,-0.37794 0.96239,-0.82336 1.38892,-1.33628c0.42383,-0.51291 0.77747,-1.03933 1.06092,-1.57924M329.06487,173.84315h1.96392v5.40585h-1.96392v-5.40585M330.58336,171.33257l2.02466,-0.46567c0.24296,0.40493 0.46297,0.85711 0.66004,1.35653c0.19437,0.49942 0.3253,0.93135 0.39278,1.29579l-2.16639,0.54666c-0.05399,-0.36444 -0.16872,-0.80312 -0.34419,-1.31603c-0.17547,-0.51291 -0.36444,-0.98534 -0.56691,-1.41727z" fill="#ffffff" stroke-width="1"/><path d="M240,196v-32h208v32z" fill="none" stroke-width="0"/></g></g></svg>