<svg version="1.1" xmlns="http://www.w3.org/2000/svg" xmlns:xlink="http://www.w3.org/1999/xlink" width="208" height="32" viewBox="0,0,208,32"><g transform="translate(-239,-164.00001)"><g stroke-miterlimit="10"><path d="M318.78293,179.46079v1.48748h-6.20978v5.30667c0,0.88444 -0.20633,1.50423 -0.61898,1.85934c-0.41265,0.35512 -1.09154,0.53268 -2.03665,0.53268h-2.15645l-0.25957,-1.58798h2.03665c0.41265,0 0.71882,-0.03015 0.91849,-0.09045c0.19967,-0.0603 0.33611,-0.17421 0.40933,-0.34172c0.07321,-0.16751 0.10982,-0.42547 0.10982,-0.77389v-4.90465h-6.74889v-1.50758c0.71882,-1.08545 1.61068,-2.65333 2.67559,-4.70364h-4.13319v-1.50758h4.91191c0.53246,-1.08545 0.97173,-2.0503 1.31783,-2.89455l1.5175,0.60303c-0.21298,0.57623 -0.55242,1.34007 -1.01832,2.29152h10.12333v1.50758h-10.88208c-1.14478,2.23791 -2.02334,3.81249 -2.63566,4.72374h4.87198v-3.51768h1.59737v3.51768zM246.70162,173.8928v6.43232h12.55932l-0.33944,5.56798c-0.05325,0.71024 -0.19302,1.25966 -0.41931,1.64828c-0.22629,0.38862 -0.57572,0.66333 -1.04827,0.82414c-0.47255,0.16081 -1.12149,0.24121 -1.94679,0.24121h-3.035l-0.27954,-1.46737h2.8553c0.62564,0 1.09486,-0.0402 1.40768,-0.12061c0.31282,-0.0804 0.53578,-0.23116 0.6689,-0.45227c0.13311,-0.22111 0.21964,-0.55278 0.25957,-0.995c0.03993,-0.49582 0.0832,-1.13571 0.12979,-1.91965c0.04659,-0.78394 0.0832,-1.43052 0.10982,-1.93975h-12.41955v-9.24647h3.79375l0.71882,-2.0503l1.59737,0.20101c-0.15974,0.56283 -0.35941,1.17926 -0.59901,1.84929h6.66902l-0.27954,4.16091c-0.05325,0.60303 -0.16972,1.0687 -0.34942,1.39702c-0.1797,0.32832 -0.45924,0.56283 -0.83862,0.70354c-0.37938,0.14071 -0.9085,0.21106 -1.58739,0.21106h-1.3977l-0.25957,-1.32667h1.25793c0.62564,0 1.04495,-0.08375 1.25793,-0.25126c0.21298,-0.16751 0.33944,-0.51258 0.37938,-1.0352c0.02662,-0.33502 0.0599,-0.74374 0.09984,-1.22616l0.09984,-1.20606zM300.15361,183.27998h-9.92366c-1.01167,1.12566 -2.24963,2.29152 -3.71389,3.49758l8.96524,-0.34172l-2.19638,-2.09051l0.97839,-0.98495c0.57239,0.52263 1.12149,1.03185 1.64729,1.52768c0.5258,0.49582 0.98837,0.93135 1.38772,1.30657c1.43763,1.36687 2.02999,1.923 1.77707,1.66838l-1.03829,1.14576c-0.22629,-0.24121 -0.63895,-0.66333 -1.23796,-1.26636l-12.33968,0.54273l-0.37938,-1.42717c1.57075,-1.12566 2.94848,-2.31832 4.13319,-3.57798h-5.73056v-1.36687h2.63566v-10.45253h12.33968v10.45253h2.69556zM339.68851,173.35008l-1.65727,5.12576c0.70551,0.92465 1.19803,1.74544 1.47757,2.46237c0.27954,0.71694 0.41931,1.47742 0.41931,2.28147c0,1.13906 -0.23961,1.9498 -0.71882,2.43222c-0.47921,0.48242 -1.28455,0.72364 -2.41602,0.72364h-1.13813l-0.29951,-1.42717h1.03829c0.78537,0 1.33447,-0.14406 1.64729,-0.43217c0.31282,-0.28811 0.46923,-0.80069 0.46923,-1.53773c0,-0.64323 -0.15641,-1.29987 -0.46923,-1.9699c-0.31282,-0.67003 -0.80867,-1.41377 -1.48755,-2.23121l1.61734,-5.44737h-3.35448v15.69889h-1.41767v-17.18637h6.28964zM271.92009,184.30513l0.03993,0.78394c-0.41265,0.0536 -0.92514,0.13401 -1.53747,0.24121v3.65838h-1.41767v-3.43727c-3.19474,0.53603 -5.3046,0.89784 -6.32958,1.08545l-0.13977,-1.48748c0.55908,-0.0804 1.07157,-0.16081 1.53747,-0.24121v-11.9601h-1.19803v-1.44727h8.60583v1.44727h-1.05826v10.87465l1.4576,-0.26131zM280.32625,187.42079l-0.97839,1.28646c-1.55744,-1.44727 -2.78209,-2.80074 -3.67395,-4.0604c-0.91849,1.31327 -2.21635,2.69354 -3.89359,4.14081l-0.91849,-1.26636c1.73048,-1.40707 3.05497,-2.80074 3.97346,-4.18101c-0.70551,-1.21946 -1.27124,-2.56958 -1.69721,-4.05035c-0.42597,-1.48077 -0.77206,-3.25301 -1.03829,-5.31672v-1.50758h7.20813v1.50758c-0.29285,2.0637 -0.64893,3.82924 -1.06824,5.29662c-0.41931,1.46737 -0.98172,2.81079 -1.68722,4.03025c0.9318,1.36687 2.18973,2.74044 3.77379,4.12071zM331.84143,174.29482h-1.49753c-0.15974,1.24626 -0.36606,2.41882 -0.61898,3.51768h2.69556v1.44727h-10.00353v-1.44727h2.55579c-0.25292,-1.52768 -0.48587,-2.70024 -0.69885,-3.51768h-1.35776v-1.42717h3.89359c-0.17305,-0.71024 -0.37272,-1.36687 -0.59901,-1.9699l1.47757,-0.36182c0.26623,0.80404 0.49252,1.58128 0.67888,2.33172h3.47428zM324.97274,187.32028v1.34677h-1.3977v-7.57808h7.62744v6.23131zM242.64829,185.06897v-1.42717h13.09843v1.42717zM296.02041,181.91311v-2.21111h-9.44445v2.21111zM286.57596,176.26472v2.13071h9.44445v-2.13071zM286.57596,174.99836h9.44445v-2.11061h-9.44445zM277.83036,173.97321h-4.27296c0.21298,1.68849 0.48919,3.16926 0.82864,4.44232c0.33944,1.27306 0.78205,2.42552 1.32781,3.45737c0.51915,-1.01845 0.93845,-2.15081 1.25793,-3.39707c0.31947,-1.24626 0.60567,-2.74714 0.85859,-4.50263zM306.90249,182.01361l1.21799,1.04525c-0.63895,0.91125 -1.38772,1.84929 -2.2463,2.81414c-0.85859,0.96485 -1.69388,1.78229 -2.50587,2.45232l-1.03829,-1.30657c0.78537,-0.58963 1.58739,-1.34007 2.40604,-2.25131c0.81865,-0.91125 1.5408,-1.82919 2.16643,-2.75384zM314.07069,183.17947l1.07822,-1.12566c0.62564,0.57623 1.42432,1.35012 2.39605,2.32167c0.97173,0.97155 1.82366,1.83254 2.55579,2.58298l-1.11816,1.20606c-0.66557,-0.75044 -1.48422,-1.62148 -2.45596,-2.61313c-0.97173,-0.99165 -1.79039,-1.78229 -2.45596,-2.37192zM324.97274,185.95341h4.83204v-3.43727h-4.83204zM265.49068,181.39048v3.29657c1.2779,-0.22781 2.4493,-0.42882 3.51421,-0.60303v-2.69354zM265.49068,175.8426h3.51421v-2.89455h-3.51421zM269.00489,180.00351v-2.79404h-3.51421v2.79404zM328.98613,174.29482h-3.29458c0.3461,1.66168 0.57905,2.83424 0.69885,3.51768h1.97675c0.23961,-1.04525 0.44593,-2.21781 0.61898,-3.51768zM252.53202,176.88786l-0.91849,1.14576c-0.42597,-0.37522 -0.94844,-0.80404 -1.56742,-1.28646c-0.61898,-0.48242 -1.18139,-0.89784 -1.68722,-1.24626l0.81865,-1.12566c0.91849,0.67003 2.03665,1.50758 3.35448,2.51263z" fill="#ffffff" fill-rule="evenodd" stroke="#ffffff" stroke-width="0.5" stroke-linecap="round"/><path d="M239,196.00002v-32h208v32z" fill="none" fill-rule="nonzero" stroke="none" stroke-width="0" stroke-linecap="butt"/></g></g></svg>