<svg version="1.1" xmlns="http://www.w3.org/2000/svg" xmlns:xlink="http://www.w3.org/1999/xlink" width="208" height="32" viewBox="0,0,208,32"><g transform="translate(-240,-164)"><g stroke="none" stroke-miterlimit="10"><path d="M241.21869,176.59351h17.71358v2.21669h-17.71358v-2.21669M251.32362,177.49217c0.41272,1.54436 0.97588,2.98489 1.68948,4.32156c0.71094,1.33934 1.59229,2.51092 2.64405,3.51476c1.05176,1.0065 2.27661,1.79598 3.67452,2.36846c-0.17307,0.14645 -0.35947,0.34216 -0.55917,0.58713c-0.1997,0.24763 -0.39274,0.49393 -0.57914,0.7389c-0.18639,0.24763 -0.33949,0.47795 -0.45932,0.69097c-1.49111,-0.70561 -2.78518,-1.62824 -3.88221,-2.76788c-1.09969,-1.13697 -2.02898,-2.45767 -2.78785,-3.96209c-0.75887,-1.50442 -1.39126,-3.16861 -1.89717,-4.99256l2.15679,-0.49926M248.84732,171.14165h2.33651c0,0.97188 -0.02264,2.01033 -0.0679,3.11535c-0.04793,1.10502 -0.15177,2.23267 -0.31153,3.38296c-0.15976,1.15294 -0.41938,2.29791 -0.77884,3.43488c-0.35947,1.13963 -0.85872,2.238 -1.49776,3.29509c-0.63905,1.05975 -1.45383,2.04495 -2.44436,2.95559c-0.99319,0.91331 -2.20205,1.70945 -3.62659,2.38844c-0.17308,-0.29289 -0.41272,-0.60976 -0.71893,-0.95058c-0.30621,-0.33816 -0.61242,-0.62041 -0.91863,-0.84673c1.3846,-0.62573 2.54287,-1.34466 3.47482,-2.15679c0.93195,-0.81213 1.69081,-1.69747 2.2766,-2.65604c0.58579,-0.95857 1.03579,-1.95708 1.34999,-2.99553c0.31153,-1.03845 0.52722,-2.0809 0.64704,-3.12734c0.11982,-1.04378 0.19305,-2.06226 0.21967,-3.05544c0.02662,-0.99052 0.04659,-1.91847 0.05991,-2.78384zM263.88489,178.51066h10.96364v2.13681h-10.96364v-2.13681M274.14958,178.51066h2.23666c0,0 0,0.06257 0,0.18772c0,0.12781 0,0.26494 0,0.41138c0,0.14645 -0.00666,0.26627 -0.01997,0.35947c-0.06657,1.50442 -0.13314,2.78918 -0.1997,3.85425c-0.06657,1.06508 -0.14246,1.95309 -0.22766,2.66403c-0.08787,0.7136 -0.19171,1.27943 -0.31153,1.69747c-0.11982,0.4207 -0.26627,0.73091 -0.43935,0.93061c-0.23964,0.30621 -0.49926,0.51923 -0.77884,0.63905c-0.27958,0.11982 -0.60576,0.1997 -0.97854,0.23964c-0.34615,0.03994 -0.79216,0.06258 -1.33801,0.0679c-0.54585,0.00799 -1.11833,-0.00134 -1.71744,-0.02796c-0.02663,-0.31952 -0.10252,-0.68564 -0.22766,-1.09836c-0.12781,-0.41272 -0.29157,-0.76552 -0.49127,-1.05842c0.58579,0.05326 1.12899,0.08254 1.62957,0.08786c0.49793,0.00799 0.87337,0.01199 1.12632,0.01199c0.35947,0 0.63239,-0.08654 0.81878,-0.25961c0.15976,-0.17308 0.29689,-0.5565 0.41138,-1.15028c0.11183,-0.59112 0.20769,-1.46981 0.28757,-2.63607c0.07988,-1.1636 0.15311,-2.67069 0.21968,-4.52126v-0.3994M266.26134,171.42123l2.29657,0.63905c-0.45266,1.14496 -0.99451,2.24598 -1.62557,3.30307c-0.63372,1.05975 -1.31937,2.03563 -2.05694,2.92763c-0.74023,0.89201 -1.50975,1.67084 -2.30856,2.33652c-0.11982,-0.15976 -0.29556,-0.34615 -0.52722,-0.55917c-0.23431,-0.21302 -0.46464,-0.42337 -0.69097,-0.63106c-0.22633,-0.20503 -0.43268,-0.37411 -0.61908,-0.50725c0.7855,-0.55917 1.52839,-1.23149 2.22868,-2.01699c0.69763,-0.78549 1.33002,-1.64821 1.89717,-2.58814c0.56449,-0.93727 1.03313,-1.90516 1.40591,-2.90367M273.69026,171.38129c0.30621,0.63905 0.67633,1.30072 1.11034,1.98504c0.43135,0.68697 0.90398,1.34999 1.41788,1.98904c0.51123,0.63905 1.03979,1.23816 1.58564,1.79732c0.54585,0.55917 1.07839,1.05176 1.59762,1.47779c-0.18639,0.13314 -0.38876,0.30621 -0.6071,0.51923c-0.221,0.21302 -0.43136,0.43269 -0.63106,0.65902c-0.1997,0.22633 -0.36612,0.43935 -0.49926,0.63905c-0.53254,-0.50591 -1.0744,-1.07573 -1.62558,-1.70945c-0.55384,-0.63106 -1.09037,-1.31271 -1.6096,-2.04495c-0.51923,-0.73224 -1.01448,-1.4818 -1.48578,-2.24865c-0.47396,-0.7642 -0.89067,-1.52572 -1.25014,-2.28459l1.99702,-0.77884M267.43958,179.12973h2.25664c-0.10651,1.10502 -0.26893,2.18341 -0.48727,3.23517c-0.221,1.05176 -0.57382,2.04361 -1.05843,2.97556c-0.48728,0.93195 -1.1769,1.78001 -2.06891,2.54421c-0.892,0.76685 -2.06359,1.41655 -3.51476,1.94909c-0.07988,-0.1997 -0.1957,-0.41272 -0.34748,-0.63905c-0.15443,-0.22633 -0.3182,-0.45266 -0.49127,-0.67899c-0.17307,-0.22633 -0.34615,-0.41271 -0.51923,-0.55916c1.33135,-0.43935 2.39377,-0.97588 3.18725,-1.6096c0.79082,-0.63106 1.38993,-1.33668 1.79732,-2.11685c0.40473,-0.7775 0.68963,-1.59628 0.85472,-2.45633c0.16775,-0.85738 0.29822,-1.73874 0.39141,-2.64406zM281.01933,182.12526h17.93325v1.93711h-17.93325v-1.93711M284.9934,175.45521h9.94516v1.75738h-9.94516v-1.75738M285.01337,178.77027h9.96513v1.73741h-9.96513v-1.73741M284.11471,172.06028h12.2018v10.94368h-2.15678v-9.14635h-7.96812v9.14636h-2.07691v-10.94368M292.02292,184.82124l1.81729,-0.79881c0.57248,0.45266 1.16226,0.96523 1.76936,1.53771c0.60443,0.57248 1.17025,1.13431 1.69747,1.68549c0.52455,0.55384 0.9599,1.04378 1.30605,1.46981l-1.8772,0.97854c-0.33284,-0.45266 -0.76153,-0.96922 -1.28608,-1.54969c-0.52722,-0.57781 -1.09037,-1.15961 -1.68948,-1.7454c-0.59911,-0.58579 -1.17825,-1.11168 -1.73741,-1.57765M282.79668,189.2746c-0.03994,-0.15976 -0.09985,-0.35947 -0.17973,-0.59911c-0.07988,-0.23964 -0.15976,-0.48994 -0.23964,-0.75088c-0.07988,-0.25828 -0.16642,-0.48062 -0.25961,-0.667c0.22633,-0.05326 0.45265,-0.14379 0.67899,-0.2716c0.22633,-0.12515 0.47263,-0.29422 0.7389,-0.50724c0.1997,-0.13314 0.49526,-0.37278 0.88668,-0.71893c0.39408,-0.34615 0.83076,-0.76552 1.31005,-1.25813c0.47929,-0.4926 0.91862,-1.01182 1.31803,-1.55767l2.19673,0.83875c-0.77218,0.86538 -1.59496,1.68682 -2.46832,2.46433c-0.8707,0.78017 -1.71211,1.43652 -2.52423,1.96906v0.03994c0,0 -0.07322,0.03329 -0.21967,0.09986c-0.14645,0.06656 -0.31687,0.14911 -0.51124,0.24763c-0.19171,0.10118 -0.36079,0.21168 -0.50724,0.3315c-0.14645,0.11982 -0.21967,0.23299 -0.21967,0.33949M282.79668,189.2746l-0.01997,-1.4778l1.2781,-0.69895l11.56275,-0.45932c0.03994,0.26627 0.09985,0.56182 0.17973,0.88667c0.07988,0.32751 0.13979,0.59113 0.17973,0.79083c-1.83726,0.0932 -3.42156,0.17573 -4.75291,0.24763c-1.33135,0.07456 -2.45634,0.13845 -3.37497,0.19171c-0.91863,0.05326 -1.67483,0.09985 -2.26861,0.13979c-0.59112,0.03994 -1.06375,0.07589 -1.41789,0.10784c-0.35147,0.03462 -0.63106,0.07189 -0.83875,0.11183c-0.20503,0.03994 -0.38076,0.0932 -0.52722,0.15976zM302.68701,178.4108h14.6182v2.05694h-14.6182v-2.05694M301.64856,173.99739h16.57528v2.11684h-16.57528v-2.11684M300.9496,183.00395h18.05308v2.15678h-18.05308v-2.15678M308.77793,171.10171h2.31655v18.63221h-2.31655zM323.85544,176.63346h15.33713v2.05693h-15.33713v-2.05693M327.2304,186.83823h9.14636v1.99702h-9.14636v-1.99702M336.15709,171.22153l1.75738,1.73741c-1.01182,0.25295 -2.11019,0.47529 -3.29509,0.66701c-1.1849,0.19438 -2.41639,0.36079 -3.69449,0.49925c-1.2781,0.14112 -2.56018,0.26094 -3.84626,0.35947c-1.28342,0.10118 -2.53755,0.17839 -3.76239,0.23165c-0.02663,-0.27958 -0.09586,-0.6031 -0.20769,-0.97055c-0.11449,-0.36479 -0.225,-0.667 -0.3315,-0.90665c1.1849,-0.05326 2.39909,-0.13314 3.64256,-0.23964c1.24614,-0.1065 2.46166,-0.23032 3.64657,-0.37144c1.1849,-0.13846 2.29658,-0.29156 3.33503,-0.45932c1.03845,-0.16509 1.95708,-0.34748 2.75589,-0.54718M326.23189,181.06684h11.58272v8.6471h-2.27661v-6.65008h-7.14934v6.70999h-2.15678v-8.70701M322.77705,172.83911h2.2167v5.4319c0,0.83875 -0.03329,1.76004 -0.09985,2.76388c-0.06657,1.0065 -0.19571,2.03163 -0.38742,3.07541c-0.19437,1.04644 -0.47529,2.06226 -0.84274,3.04746c-0.36479,0.9852 -0.84674,1.87054 -1.44584,2.65604c-0.11982,-0.15976 -0.29289,-0.33284 -0.51923,-0.51923c-0.22633,-0.18639 -0.45266,-0.37011 -0.67899,-0.55118c-0.22633,-0.1784 -0.42603,-0.31419 -0.5991,-0.40739c0.54585,-0.71893 0.97588,-1.50177 1.29008,-2.3485c0.31153,-0.84408 0.54453,-1.72276 0.69896,-2.63607c0.15177,-0.91064 0.25162,-1.79865 0.29955,-2.66403c0.04526,-0.86538 0.0679,-1.6775 0.0679,-2.43637zM341.12967,176.07429h5.49181v2.17675h-5.49181v-2.17675M348.81821,171.14165h2.29658v15.85635c0,0.63905 -0.07322,1.13431 -0.21967,1.48578c-0.14645,0.35414 -0.40606,0.63106 -0.77884,0.83076c-0.37278,0.18639 -0.84541,0.31287 -1.41789,0.37943c-0.57248,0.06656 -1.25812,0.09985 -2.05693,0.09985c-0.03994,-0.22633 -0.10252,-0.48328 -0.18772,-0.77085c-0.08787,-0.28491 -0.18506,-0.57115 -0.29156,-0.85872c-0.10651,-0.28491 -0.21967,-0.53387 -0.33949,-0.74688c0.55917,0.01332 1.0784,0.02263 1.55768,0.02795c0.47929,0.00799 0.80546,0.01199 0.97854,0.01199c0.17307,-0.01332 0.29289,-0.05059 0.35946,-0.11184c0.06657,-0.05858 0.09985,-0.1744 0.09985,-0.34748v-15.85635M345.88258,176.07429h0.43935l0.37944,-0.07988l1.41788,0.5392c-0.29289,1.79732 -0.73224,3.42822 -1.31803,4.89271c-0.58579,1.46448 -1.26745,2.74524 -2.04495,3.84227c-0.78017,1.09969 -1.63622,1.99569 -2.56817,2.68799c-0.11982,-0.17308 -0.28358,-0.36612 -0.49127,-0.57914c-0.20503,-0.21302 -0.4207,-0.41938 -0.64704,-0.61908c-0.22633,-0.1997 -0.42603,-0.35281 -0.5991,-0.45932c0.90531,-0.61242 1.72409,-1.39525 2.45633,-2.3485c0.73224,-0.95058 1.35132,-2.05161 1.85723,-3.30307c0.50591,-1.25146 0.87869,-2.6161 1.11833,-4.0939v-0.47929M350.97499,175.595c0.37278,1.10502 0.83476,2.17276 1.38594,3.20323c0.55384,1.03313 1.19022,1.99835 1.90915,2.89568c0.71893,0.89999 1.51774,1.70546 2.39643,2.41639c0.87869,0.7136 1.82395,1.29673 2.83577,1.74939c-0.15976,0.14645 -0.34349,0.3355 -0.55118,0.56715c-0.20503,0.23432 -0.40073,0.47396 -0.58713,0.71893c-0.18639,0.24763 -0.33949,0.48461 -0.45932,0.71094c-1.05176,-0.55917 -2.013,-1.24481 -2.8837,-2.05694c-0.87336,-0.81213 -1.66552,-1.73075 -2.37646,-2.75589c-0.7136,-1.02514 -1.34599,-2.13016 -1.89717,-3.31506c-0.55384,-1.1849 -1.03712,-2.42305 -1.44984,-3.71446l1.6775,-0.41938M355.98751,174.69634l1.97705,1.39792c-0.50591,0.53254 -1.04777,1.08105 -1.62558,1.64554c-0.58047,0.56716 -1.15294,1.10636 -1.71743,1.61759c-0.56716,0.5139 -1.09703,0.9639 -1.58963,1.34999l-1.49777,-1.19821c0.47929,-0.39941 0.99186,-0.87603 1.53771,-1.42987c0.54585,-0.55118 1.0744,-1.12365 1.58563,-1.71743c0.5139,-0.59112 0.95724,-1.1463 1.33002,-1.66552zM366.11241,173.57801h12.78094v1.73741h-12.78093v-1.73741M371.22479,174.35685l2.47631,0.15976c-0.1997,0.53254 -0.42203,1.05177 -0.66701,1.55768c-0.24763,0.50591 -0.4713,0.94526 -0.671,1.31804l-1.73741,-0.27958c0.11982,-0.42603 0.23964,-0.89201 0.35947,-1.39792c0.11982,-0.50591 0.1997,-0.95857 0.23964,-1.35797M374.71957,171.12168l2.07691,0.57913c-0.33284,0.4926 -0.66168,0.97854 -0.98653,1.45783c-0.32751,0.47929 -0.63106,0.88535 -0.91064,1.21819l-1.69747,-0.5392c0.17307,-0.25295 0.35681,-0.5392 0.55118,-0.85872c0.19171,-0.31952 0.3741,-0.64305 0.54718,-0.97055c0.17307,-0.32485 0.31287,-0.62041 0.41938,-0.88667M367.9297,171.74075l1.79731,-0.75887c0.26627,0.31952 0.52988,0.68165 0.79082,1.08638c0.25828,0.40739 0.44733,0.75754 0.56715,1.05043l-1.89717,0.83875c-0.10651,-0.30621 -0.27958,-0.66567 -0.51923,-1.0784c-0.23964,-0.41272 -0.48594,-0.79215 -0.73889,-1.1383M365.35354,178.29098v8.02803h-2.05693v-6.05097h-2.47631v-1.97705h4.53324M360.88022,172.919l1.65752,-1.03845c0.34615,0.31952 0.70561,0.67234 1.07839,1.05842c0.37278,0.38609 0.72292,0.77218 1.05043,1.15827c0.32485,0.38609 0.58047,0.73889 0.76686,1.05842l-1.75738,1.17825c-0.17307,-0.30621 -0.41539,-0.65902 -0.72692,-1.05842c-0.31419,-0.39941 -0.65103,-0.80546 -1.01049,-1.21818c-0.35947,-0.41272 -0.71227,-0.79215 -1.05842,-1.1383M364.47485,185.65999c0.34615,0 0.68564,0.11317 1.01848,0.33949c0.33284,0.22633 0.7855,0.48594 1.35798,0.77884c0.66568,0.33284 1.44851,0.55251 2.3485,0.65902c0.89733,0.1065 1.87853,0.15976 2.94361,0.15976c0.70562,0 1.48845,-0.01731 2.3485,-0.05193c0.85739,-0.03195 1.70545,-0.08121 2.5442,-0.14777c0.83875,-0.06656 1.57765,-0.13979 2.2167,-0.21967c-0.07988,0.18639 -0.15976,0.40206 -0.23964,0.64703c-0.07988,0.24763 -0.1531,0.49793 -0.21967,0.75088c-0.06657,0.25295 -0.10651,0.47929 -0.11982,0.67899c-0.34615,0.01332 -0.78816,0.03329 -1.32603,0.05991c-0.54053,0.02662 -1.12632,0.05326 -1.75738,0.07988c-0.63372,0.02662 -1.25679,0.04659 -1.86921,0.05991c-0.61242,0.01332 -1.16493,0.01997 -1.65753,0.01997c-1.19822,0 -2.24332,-0.07322 -3.13532,-0.21967c-0.892,-0.14645 -1.70412,-0.39941 -2.43636,-0.75887c-0.45266,-0.23964 -0.84541,-0.47263 -1.17825,-0.69896c-0.33284,-0.22633 -0.62574,-0.33949 -0.87869,-0.33949c-0.22633,0 -0.48595,0.10917 -0.77884,0.32751c-0.29289,0.221 -0.60177,0.50725 -0.92662,0.85872c-0.32751,0.35414 -0.64437,0.72425 -0.95058,1.11034l-1.29806,-1.79732c0.70562,-0.65236 1.40857,-1.19822 2.10886,-1.63756c0.69763,-0.43935 1.32602,-0.65902 1.88518,-0.65902M369.48738,180.80723v1.25813h5.77139v-1.25813h-5.77139M369.48738,183.46327v1.25813h5.77139v-1.25813h-5.77139M369.48738,178.17116v1.25813h5.77139v-1.25813h-5.77139M367.47039,176.65343h9.88525v9.60567h-9.88525zM387.6403,180.96699h10.10492v8.74695h-2.15678v-6.7699h-5.87124v6.84978h-2.0769v-8.82683M388.85848,186.67847h7.72848v1.99702h-7.72848v-1.99702M389.33777,172.06028h6.13086v1.99702h-6.13086v-1.99702M388.63881,172.06028h2.0769v2.29658c0,0.73224 -0.09586,1.50042 -0.28757,2.30456c-0.19437,0.80679 -0.55384,1.58298 -1.07839,2.32853c-0.52722,0.74555 -1.29673,1.39792 -2.30855,1.95708c-0.06657,-0.14645 -0.18905,-0.32618 -0.36746,-0.5392c-0.18106,-0.21302 -0.36478,-0.42337 -0.55118,-0.63106c-0.18639,-0.20503 -0.34615,-0.3608 -0.47929,-0.46731c0.87869,-0.46597 1.53105,-0.98253 1.95708,-1.54969c0.42603,-0.56449 0.70562,-1.14629 0.83875,-1.7454c0.13313,-0.59911 0.1997,-1.17158 0.1997,-1.71743v-2.23667M394.43017,172.06028h2.09688v5.41192c0,0.30621 0.01731,0.52589 0.05192,0.65902c0.03195,0.13314 0.12115,0.1997 0.26761,0.1997c0.07988,0 0.17973,0 0.29955,0c0.11982,0 0.24363,0 0.37144,0c0.12514,0 0.22767,0 0.30755,0c0.13313,0 0.30354,-0.01065 0.51123,-0.03195c0.20503,-0.01864 0.37411,-0.04793 0.50725,-0.08787c0.01331,0.26627 0.03062,0.54852 0.05192,0.84674c0.01864,0.30088 0.04793,0.57781 0.08787,0.83076c-0.13313,0.05326 -0.30221,0.0892 -0.50725,0.10784c-0.20769,0.0213 -0.41138,0.03196 -0.61109,0.03196c-0.10651,0 -0.2423,0 -0.4074,0c-0.16775,0 -0.33416,0 -0.49926,0c-0.16775,0 -0.30488,0 -0.41138,0c-0.58579,0 -1.03179,-0.0932 -1.33801,-0.27958c-0.30621,-0.18639 -0.51257,-0.47263 -0.61907,-0.85872c-0.10651,-0.38609 -0.15977,-0.87203 -0.15977,-1.45782v-5.37199M381.44954,172.95894l1.35797,-1.37794c0.41272,0.21302 0.85606,0.46197 1.33002,0.74688c0.47129,0.28757 0.91996,0.57381 1.34599,0.85872c0.42603,0.28757 0.77884,0.55784 1.05842,0.81079l-1.43786,1.5377c-0.25295,-0.25295 -0.58579,-0.53254 -0.99851,-0.83875c-0.41272,-0.30621 -0.85206,-0.61242 -1.31804,-0.91863c-0.46597,-0.30621 -0.91197,-0.57913 -1.338,-0.81878M380.41108,178.37086l1.338,-1.39791c0.41272,0.1997 0.85206,0.42869 1.31804,0.68697c0.46597,0.26094 0.91863,0.52722 1.35798,0.79881c0.43935,0.27426 0.79881,0.52455 1.07839,0.75088l-1.41789,1.55767c-0.26627,-0.23964 -0.60576,-0.50325 -1.01848,-0.79082c-0.41272,-0.28491 -0.85472,-0.57115 -1.32602,-0.85872c-0.47396,-0.28491 -0.9173,-0.53387 -1.33002,-0.74689M380.89037,188.01648c0.37278,-0.4926 0.79215,-1.0784 1.25813,-1.75738c0.46597,-0.67899 0.94259,-1.40458 1.42987,-2.17676c0.48461,-0.77218 0.93993,-1.5377 1.36596,-2.29657l1.55768,1.5377c-0.37278,0.67899 -0.77485,1.37794 -1.2062,2.09687c-0.43402,0.71893 -0.86671,1.4312 -1.29807,2.13682c-0.43402,0.70561 -0.8707,1.37794 -1.31005,2.01699zM402.13868,177.39232h2.13681v3.81431c0,0.62573 -0.02929,1.30072 -0.08787,2.02498c-0.06124,0.72691 -0.16775,1.46582 -0.31952,2.2167c-0.15443,0.75354 -0.37811,1.47913 -0.671,2.17675c-0.29289,0.70029 -0.67233,1.33002 -1.1383,1.88918c-0.10651,-0.14645 -0.26627,-0.3102 -0.47928,-0.49126c-0.21301,-0.1784 -0.43535,-0.35147 -0.66701,-0.51923c-0.23431,-0.16509 -0.43136,-0.28758 -0.59112,-0.36746c0.55917,-0.67899 0.96523,-1.42454 1.21819,-2.23666c0.25295,-0.81213 0.41671,-1.62823 0.49126,-2.44834c0.07189,-0.81744 0.10784,-1.57898 0.10784,-2.2846v-3.77437M403.31692,177.39232h15.27722v1.89717h-15.27722v-1.89717M405.61349,180.54762h12.32162v1.81729h-12.32162v-1.81729M404.69486,184.0424h14.19883v1.89717h-14.19882v-1.89717M410.52617,181.10678h2.25664v8.66708h-2.25664v-8.66708M402.19859,171.86057h2.17676v2.37645h11.00358v-2.37645h2.25664v4.27363h-15.43698v-4.27363M408.68891,171.12168h2.27661v4.01401h-2.27661z" fill="#ffffff" stroke-width="1"/><path d="M240,196v-32h208v32z" fill="none" stroke-width="0"/></g></g></svg>