<svg version="1.1" xmlns="http://www.w3.org/2000/svg" xmlns:xlink="http://www.w3.org/1999/xlink" width="208.2439" height="32" viewBox="0,0,208.2439,32"><g transform="translate(-239.7561,-164)"><g stroke-miterlimit="10"><path d="M272.40012,187.46521l-0.5813,1.61141c-1.66411,-0.58954 -3.07746,-1.18236 -4.24005,-1.77845c-1.16259,-0.59609 -2.17132,-1.25441 -3.02616,-1.97496c-0.69528,0.69435 -1.57007,1.36249 -2.62439,2.00444c-1.05431,0.64194 -2.33944,1.29699 -3.85537,1.96514l-0.68388,-1.53281c1.47034,-0.57644 2.69562,-1.14305 3.67585,-1.69984c0.98023,-0.55679 1.78378,-1.1496 2.41067,-1.77845c-0.68388,-0.73365 -1.29937,-1.58849 -1.84647,-2.5645c-0.5471,-0.97602 -1.09421,-2.14527 -1.64131,-3.50777l1.23098,-0.58954c0.47872,1.25769 0.96883,2.33524 1.47034,3.23265c0.50151,0.89741 1.06571,1.68674 1.6926,2.36799c0.53571,-0.77295 0.91754,-1.65727 1.1455,-2.65293c0.22796,-0.99567 0.35334,-2.20095 0.37613,-3.61585v-0.47163h-8.27493v-1.4935h8.29203v-3.6355h1.40195v3.6355h4.77006v1.4935h-4.77006v0.41268c0,1.66382 -0.13678,3.07544 -0.41033,4.23487c-0.27355,1.15943 -0.74657,2.19768 -1.41905,3.11474c0.78646,0.62884 1.72964,1.19546 2.82955,1.69984c1.09991,0.50438 2.45911,1.01205 4.07763,1.52298zM305.49986,180.05665v1.4542h-5.31716v5.18796c0,0.86466 -0.17667,1.47058 -0.53001,1.81775c-0.35334,0.34717 -0.93463,0.52076 -1.74389,0.52076h-1.84647l-0.22226,-1.55246h1.74389c0.35334,0 0.61549,-0.02948 0.78646,-0.08843c0.17097,-0.05895 0.2878,-0.17031 0.35049,-0.33407c0.06269,-0.16376 0.09403,-0.41595 0.09403,-0.75658v-4.79493h-5.77878v-1.47385c0.61549,-1.06117 1.37916,-2.59398 2.29099,-4.59842h-3.53907v-1.47385h4.20586c0.45592,-1.06117 0.83205,-2.00444 1.1284,-2.8298l1.29937,0.58954c-0.18237,0.56334 -0.47302,1.31009 -0.87195,2.24026h8.66817v1.47385h-9.31785c-0.98023,2.18785 -1.73249,3.72721 -2.2568,4.61807h4.17166v-3.43899h1.36776v3.43899zM277.92244,174.45601v5.44343h10.95916l-0.25645,6.5046c-0.06839,0.99567 -0.2992,1.69329 -0.69243,2.09287c-0.39323,0.39958 -1.02867,0.59937 -1.90631,0.59937h-1.96615l-0.23936,-1.39525h1.6755c0.45592,0 0.80926,-0.05895 1.06001,-0.17686c0.25076,-0.11791 0.43027,-0.30132 0.53855,-0.55024c0.10828,-0.24892 0.17952,-0.59609 0.21371,-1.04152c0.03419,-0.58954 0.07124,-1.36904 0.11113,-2.33851c0.03989,-0.96947 0.07124,-1.74897 0.09403,-2.33851h-10.89077v-8.15532h3.31681l0.22226,-0.62884l0.44452,-1.33629l1.33356,0.17686l-0.22226,0.6878c-0.12538,0.41923 -0.23936,0.78605 -0.34194,1.10048h5.89846c-0.10258,2.04374 -0.16527,3.19007 -0.18807,3.43899c-0.05699,0.62884 -0.16242,1.11685 -0.31629,1.46403c-0.15387,0.34717 -0.38753,0.59609 -0.70098,0.74675c-0.31344,0.15066 -0.74942,0.22599 -1.30792,0.22599h-1.47034l-0.23936,-1.25769h1.33356c0.51291,0 0.86625,-0.09498 1.06001,-0.28494c0.19377,-0.18996 0.30775,-0.51421 0.34194,-0.97274l0.08548,-0.98257c0.03419,-0.39303 0.05699,-0.73365 0.06839,-1.02187zM340.8564,180.68549v1.33629h-1.76099l-0.10258,3.04596h1.53873v1.35594h-1.57292l-0.0171,0.35372c-0.03419,0.60264 -0.12823,1.06772 -0.2821,1.39525c-0.15387,0.32752 -0.39323,0.56006 -0.71807,0.69762c-0.32484,0.13756 -0.77791,0.20634 -1.35921,0.20634h-2.54745l-0.25645,-1.3756h2.39358c0.5699,0 0.96598,-0.08843 1.18824,-0.26529c0.22226,-0.17686 0.34479,-0.50111 0.36758,-0.97274v-0.0393h-7.67654l0.42742,-4.40191h-1.33356v-1.33629h1.45324l0.37613,-3.91062c-0.34194,0.49783 -0.60409,0.86466 -0.78646,1.10048l-0.87195,-1.06117c0.62689,-0.79916 1.22243,-1.70967 1.78663,-2.73154c0.5642,-1.02187 1.02297,-2.01099 1.37631,-2.96736l1.1455,0.45198c-0.19377,0.51094 -0.41603,1.04152 -0.66678,1.59176h7.48847v1.33629h-8.13816c-0.36474,0.69435 -0.69528,1.27079 -0.99162,1.72932h7.95009l-0.13678,4.46086zM356.94465,184.04587l1.02582,0.37338c-0.06839,0.73365 -0.16527,1.53281 -0.29065,2.39747c-0.12538,0.91706 -0.31059,1.54263 -0.55565,1.87671c-0.24506,0.33407 -0.56705,0.50111 -0.96598,0.50111c-0.72947,0 -1.31647,-0.64849 -1.76099,-1.94548c-0.13678,-0.40613 -0.25076,-0.79916 -0.34194,-1.17908c-0.75227,1.13978 -1.63561,2.2075 -2.65003,3.20317l-0.85485,-1.15943c1.33356,-1.31009 2.37648,-2.56778 3.12875,-3.77306c-0.39893,-2.34506 -0.64968,-5.18141 -0.75227,-8.50904h-5.28296v-1.35594h5.24877c-0.03419,-1.17908 -0.05129,-2.1944 -0.05129,-3.04596l1.17969,-0.01965c0.0114,0.28822 0.02849,1.31009 0.05129,3.06561h1.55582c-0.20516,-0.81226 -0.43312,-1.57866 -0.68388,-2.29921l0.99162,-0.39303c0.31914,1.00877 0.59269,1.90618 0.82065,2.69224h1.1284v1.35594h-3.79553c0.04559,2.62018 0.20516,4.92594 0.47872,6.91728c0.63829,-1.32319 1.25378,-3.09836 1.84647,-5.32552l1.06001,0.41268c-0.64968,2.62018 -1.51023,4.89974 -2.58164,6.83867c0.11398,0.58954 0.27355,1.18563 0.47872,1.78827c0.14817,0.40613 0.2821,0.68125 0.40178,0.82536c0.11968,0.14411 0.24791,0.21616 0.38468,0.21616c0.14817,0 0.26215,-0.10808 0.34194,-0.32425c0.07979,-0.21616 0.15957,-0.61902 0.23936,-1.20856zM323.40039,174.08263l-1.41905,5.0111c0.60409,0.90396 1.02582,1.70639 1.26518,2.40729c0.23936,0.7009 0.35904,1.44438 0.35904,2.23043c0,1.11358 -0.20516,1.90618 -0.61549,2.37781c-0.41033,0.47163 -1.09991,0.70745 -2.06873,0.70745h-0.97453l-0.25645,-1.39525h0.88904c0.67248,0 1.14265,-0.14083 1.4105,-0.4225c0.26785,-0.28167 0.40178,-0.78278 0.40178,-1.50333c0,-0.62884 -0.13393,-1.27079 -0.40178,-1.92583c-0.26785,-0.65505 -0.69243,-1.38215 -1.27372,-2.1813l1.38485,-5.32552h-2.87229v15.34771h-1.21389v-16.80192h5.38555zM347.50712,183.77075l0.18807,1.47385c-0.62689,0.19651 -1.49883,0.48146 -2.61584,0.85483c-1.117,0.37338 -1.83508,0.63212 -2.15422,0.77623l-0.27355,-1.4935l2.03454,-0.64849v-6.93693h-1.72679v-1.4149h1.72679v-4.77528h1.19679v4.77528h1.53873v1.4149h-1.53873v6.5439zM283.76961,185.67694v-2.9477h1.24808v4.284h-9.52301v-4.284h1.24808v2.9477h2.85519v-3.61585h1.33356v3.61585zM316.68128,175.00624h-1.28227c-0.13678,1.21838 -0.31344,2.36471 -0.53001,3.43899h2.30809v1.4149h-8.56558v-1.4149h2.18841c-0.21656,-1.4935 -0.41603,-2.63983 -0.59839,-3.43899h-1.16259v-1.39525h3.33391c-0.14817,-0.69435 -0.31914,-1.33629 -0.51291,-1.92583l1.26518,-0.35372c0.22796,0.78605 0.42173,1.54591 0.5813,2.27956h2.97487zM249.14824,171.64586h1.35066c0.06839,2.8429 0.25645,5.16831 0.5642,6.97623c0.30775,1.80793 0.80071,3.40951 1.47889,4.80476c0.67818,1.39525 1.64986,2.83307 2.91503,4.31347l-1.1284,1.33629c-1.32217,-1.70312 -2.33374,-3.31453 -3.03471,-4.83424c-0.70098,-1.51971 -1.21104,-3.2392 -1.53018,-5.15848c-0.31914,-1.91928 -0.52431,-4.39863 -0.61549,-7.43804zM241.21524,189.05697l-1.1284,-1.12013c1.23098,-1.63761 2.15992,-3.13112 2.78681,-4.48051c0.62689,-1.34939 1.08281,-2.8822 1.36776,-4.59842c0.28495,-1.71622 0.47302,-3.98923 0.5642,-6.81902h1.35066c-0.12538,3.05251 -0.33339,5.47946 -0.62404,7.28083c-0.29065,1.80137 -0.76082,3.42261 -1.4105,4.86371c-0.64968,1.4411 -1.61851,3.06561 -2.90649,4.87354zM310.79992,187.74033v1.31664h-1.19679v-7.40856h6.53104v6.09192zM331.36758,185.06774h6.41136l0.03419,-0.7271c0.04559,-0.89086 0.07409,-1.66382 0.08548,-2.31886h-6.2233zM338.06959,177.56092h-5.94975l-0.30775,3.12457h6.13781c0.07979,-1.79482 0.11968,-2.83635 0.11968,-3.12457zM351.91814,183.41703h-3.89811v-5.54168h3.89811zM327.19592,189.25348l-1.23098,-0.43233l1.65841,-6.76007l1.16259,0.41268c-0.09118,0.36683 -0.5813,2.44332 -1.47034,6.22948zM295.32716,182.55237l1.04292,1.02187c-0.5471,0.89086 -1.18824,1.80793 -1.92341,2.75119c-0.73517,0.94327 -1.45039,1.74242 -2.14567,2.39747l-0.88904,-1.27734c0.67248,-0.57644 1.35921,-1.31009 2.06019,-2.20095c0.70098,-0.89086 1.31932,-1.78827 1.85502,-2.69224zM301.46498,183.69215l0.92324,-1.10048c0.53571,0.56334 1.21958,1.31992 2.05164,2.26973c0.83205,0.94982 1.56152,1.79155 2.18841,2.5252l-0.95743,1.17908c-0.5699,-0.73365 -1.27088,-1.58521 -2.10293,-2.55468c-0.83205,-0.96947 -1.53303,-1.74242 -2.10293,-2.31886zM310.79992,186.40404h4.13747v-3.36038h-4.13747zM352.05492,184.69437l0.18807,1.4149c-0.63829,0.17031 -1.58147,0.42906 -2.82955,0.77623c-1.24808,0.34717 -2.00889,0.56661 -2.28245,0.65832l-0.27355,-1.43455c0.67248,-0.17031 1.63561,-0.4225 2.88939,-0.75658c1.25378,-0.33407 2.02314,-0.55351 2.30809,-0.65832zM314.23641,175.00624h-2.821c0.29635,1.62451 0.49581,2.77084 0.59839,3.43899h1.6926c0.20516,-1.02187 0.38183,-2.1682 0.53001,-3.43899zM329.23046,178.95617l-0.73517,1.23804c-1.39055,-1.3887 -2.31379,-2.27956 -2.76971,-2.67259l0.73517,-1.13978zM329.70918,174.25949l-0.70098,1.15943c-0.83205,-0.78605 -1.74959,-1.61796 -2.75261,-2.49572l0.73517,-1.12013c0.63829,0.55024 1.54443,1.36904 2.71842,2.45642zM282.6754,177.40371l-0.78646,1.08082c-1.27657,-1.16598 -2.18841,-1.97169 -2.73552,-2.41712l0.75227,-1.08082c0.49011,0.40613 1.41335,1.21183 2.76971,2.41712zM349.04585,179.15268v2.98701h1.82938v-2.98701zM336.17183,184.00657l-0.71807,1.02187c-0.25076,-0.26202 -0.59554,-0.58954 -1.03437,-0.98257c-0.43882,-0.39303 -0.8292,-0.73365 -1.17114,-1.02187l0.64968,-0.98257c0.78646,0.65505 1.54443,1.31009 2.2739,1.96514zM333.55599,178.60244l0.64968,-1.00222c1.00302,0.83846 1.73249,1.4804 2.18841,1.92583l-0.68388,1.06117c-0.61549,-0.60264 -1.33356,-1.26424 -2.15422,-1.98479z" fill="#ffffff" fill-rule="evenodd" stroke="#ffffff" stroke-width="0.5" stroke-linecap="round"/><path d="M240,196v-32h208v32z" fill="none" fill-rule="nonzero" stroke="none" stroke-width="0" stroke-linecap="butt"/></g></g></svg>