<svg version="1.1" xmlns="http://www.w3.org/2000/svg" xmlns:xlink="http://www.w3.org/1999/xlink" width="208.1174" height="32" viewBox="0,0,208.1174,32"><g transform="translate(-239.8826,-164)"><g stroke-miterlimit="10"><path d="M329.13846,176.97098h-1.63952v3.12299h-4.97928v1.90275h5.4853v1.30297h-5.4853v1.98548h6.37591v1.28229h-6.37591v2.87481h-1.47759v-2.87481h-5.66747v-1.28229h5.66747v-1.98548h-4.77687v-1.30297h4.77687v-1.90275h-4.45301v-1.28229h4.45301v-1.84071h-5.20193v-1.32365h5.20193v-1.90275h-4.33157v-1.26161h4.33157v-1.92343h1.47759v1.92343h4.97928v3.16436h1.63952zM264.77217,173.86867v5.72894h12.97446l-0.30361,6.84577c-0.08096,1.04789 -0.35422,1.78211 -0.81976,2.20264c-0.46554,0.42054 -1.21783,0.6308 -2.25687,0.6308h-2.32771l-0.28337,-1.46843h1.98362c0.53976,0 0.95807,-0.06205 1.25494,-0.18614c0.29687,-0.12409 0.5094,-0.31713 0.63759,-0.5791c0.12819,-0.26197 0.21253,-0.62736 0.25301,-1.09615c0.04048,-0.62046 0.08434,-1.44085 0.13157,-2.46117c0.04723,-1.02032 0.08434,-1.84071 0.11133,-2.46117h-12.8935v-8.58306h3.92675l0.26313,-0.66183l0.52627,-1.40638l1.5788,0.18614l-0.26313,0.72387c-0.14843,0.44122 -0.28337,0.82728 -0.40482,1.1582h6.98313c-0.12145,2.15094 -0.19566,3.35739 -0.22265,3.61936c-0.06747,0.66183 -0.19229,1.17543 -0.37446,1.54082c-0.18217,0.36538 -0.45879,0.62736 -0.82988,0.78592c-0.37108,0.15856 -0.88723,0.23784 -1.54843,0.23784h-1.74072l-0.28337,-1.32365h1.5788c0.60723,0 1.02554,-0.09996 1.25494,-0.29989c0.2294,-0.19993 0.36434,-0.54118 0.40482,-1.02376l0.1012,-1.0341c0.04048,-0.41364 0.06747,-0.77213 0.08096,-1.07547zM335.61557,173.86867v5.72894h12.97446l-0.30361,6.84577c-0.08096,1.04789 -0.35422,1.78211 -0.81976,2.20264c-0.46554,0.42054 -1.21783,0.6308 -2.25687,0.6308h-2.32771l-0.28337,-1.46843h1.98362c0.53976,0 0.95807,-0.06205 1.25494,-0.18614c0.29687,-0.12409 0.5094,-0.31713 0.63759,-0.5791c0.12819,-0.26197 0.21253,-0.62736 0.25301,-1.09615c0.04048,-0.62046 0.08434,-1.44085 0.13157,-2.46117c0.04723,-1.02032 0.08434,-1.84071 0.11133,-2.46117h-12.8935v-8.58306h3.92675l0.26313,-0.66183l0.52627,-1.40638l1.5788,0.18614l-0.26313,0.72387c-0.14843,0.44122 -0.28337,0.82728 -0.40482,1.1582h6.98313c-0.12145,2.15094 -0.19566,3.35739 -0.22265,3.61936c-0.06747,0.66183 -0.19229,1.17543 -0.37446,1.54082c-0.18217,0.36538 -0.45879,0.62736 -0.82988,0.78592c-0.37108,0.15856 -0.88723,0.23784 -1.54843,0.23784h-1.74072l-0.28337,-1.32365h1.5788c0.60723,0 1.02554,-0.09996 1.25494,-0.29989c0.2294,-0.19993 0.36434,-0.54118 0.40482,-1.02376l0.1012,-1.0341c0.04048,-0.41364 0.06747,-0.77213 0.08096,-1.07547zM369.64064,180.42489v1.40638h-2.08482l-0.12145,3.20572h1.82169v1.42706h-1.86217l-0.02024,0.37228c-0.04048,0.63425 -0.15181,1.12373 -0.33398,1.46843c-0.18217,0.3447 -0.46554,0.58944 -0.85012,0.73421c-0.38458,0.14477 -0.92096,0.21716 -1.60916,0.21716h-3.0159l-0.30361,-1.44775h2.83374c0.6747,0 1.14361,-0.09307 1.40675,-0.27921c0.26313,-0.18614 0.40819,-0.52739 0.43518,-1.02376v-0.04136h-9.0882l0.50602,-4.63279h-1.5788v-1.40638h1.72048l0.4453,-4.11573c-0.40482,0.52395 -0.71518,0.91001 -0.93108,1.1582l-1.03229,-1.11683c0.74217,-0.84107 1.44723,-1.79934 2.11518,-2.87481c0.66795,-1.07547 1.21109,-2.11647 1.6294,-3.12299l1.35614,0.47569c-0.2294,0.53773 -0.49253,1.09615 -0.7894,1.67525h8.86554v1.40638h-9.6347c-0.43181,0.73077 -0.82313,1.33744 -1.17398,1.82002h9.41205l-0.16193,4.69483zM388.68739,183.96152l1.21446,0.39296c-0.08096,0.77213 -0.19566,1.6132 -0.3441,2.52321c-0.14843,0.96516 -0.36771,1.62354 -0.65783,1.97514c-0.29012,0.3516 -0.67133,0.52739 -1.14361,0.52739c-0.86361,0 -1.55855,-0.68251 -2.08482,-2.04753c-0.16193,-0.42743 -0.29687,-0.84107 -0.40482,-1.24092c-0.8906,1.19956 -1.93639,2.32329 -3.13735,3.37118l-1.01205,-1.22024c1.5788,-1.37881 2.81349,-2.70246 3.7041,-3.97096c-0.47229,-2.46806 -0.76916,-5.45318 -0.8906,-8.95534h-6.25446v-1.42706h6.21398c-0.04048,-1.24092 -0.06072,-2.3095 -0.06072,-3.20572l1.39663,-0.02068c0.01349,0.30334 0.03373,1.37881 0.06072,3.2264h1.84193c-0.24289,-0.85486 -0.51277,-1.66146 -0.80964,-2.4198l1.17398,-0.41364c0.37783,1.06168 0.70169,2.00616 0.97157,2.83345h1.3359v1.42706h-4.4935c0.05398,2.75761 0.24289,5.18431 0.56675,7.28009c0.75566,-1.39259 1.48434,-3.26087 2.18602,-5.60484l1.25494,0.43432c-0.76916,2.75761 -1.78795,5.15673 -3.05639,7.19736c0.13494,0.62046 0.32386,1.24782 0.56675,1.88207c0.17542,0.42743 0.33398,0.71698 0.47566,0.86865c0.14169,0.15167 0.29349,0.2275 0.45542,0.2275c0.17542,0 0.31036,-0.11375 0.40482,-0.34125c0.09446,-0.2275 0.18892,-0.65149 0.28337,-1.27195zM249.51048,181.00398v1.40638h-3.54217v4.86029c0,0.51016 -0.06072,0.89967 -0.18217,1.16854c-0.12145,0.26887 -0.33398,0.4619 -0.63759,0.5791c-0.30361,0.1172 -0.74554,0.1758 -1.32578,0.1758h-1.19422l-0.28337,-1.48911h1.07277c0.39133,0 0.66458,-0.02758 0.81976,-0.08273c0.15518,-0.05515 0.25301,-0.15167 0.29349,-0.28955c0.04048,-0.13788 0.06072,-0.38607 0.06072,-0.74455v-4.17778h-3.8053v-1.40638h3.8053v-2.23366h-4.18988v-1.36502h2.48964c-0.02699,-0.13788 -0.18892,-1.05479 -0.48578,-2.75072l-0.12145,-0.5791h-1.27518v-1.34434h3.62313l-0.62747,-2.00616l1.45735,-0.24818c0.24289,0.6894 0.46554,1.44085 0.66795,2.25435h3.2588v1.34434h-1.13349c-0.17542,0.89622 -0.43855,2.00616 -0.7894,3.32982h2.38843v1.36502h-3.88627v2.23366zM252.16205,177.81894h6.13301v1.48911h-2.18602v10.13422h-1.39663v-10.13422h-2.55036v0.04136c0,1.77866 -0.05735,3.22985 -0.17205,4.35358c-0.1147,1.12373 -0.32048,2.13025 -0.61735,3.01958c-0.29687,0.88933 -0.72867,1.81658 -1.29542,2.78174l-1.45735,-0.74455c0.56675,-0.86865 0.99518,-1.72006 1.2853,-2.55424c0.29012,-0.83418 0.49253,-1.79589 0.60723,-2.88515c0.1147,-1.08926 0.17205,-2.50943 0.17205,-4.26051v-6.37008c1.18747,-0.1103 2.39181,-0.29989 3.61301,-0.56876c1.22121,-0.26887 2.25687,-0.56876 3.10699,-0.89967l0.46554,1.46843c-0.71518,0.30334 -1.59566,0.58254 -2.64145,0.83762c-1.04578,0.25508 -2.06795,0.43777 -3.06651,0.54808zM302.25845,170.6009h1.43711v3.01958h4.29109v11.06491h-4.29109v4.86029h-1.43711v-4.86029h-4.33157v-11.06491h4.33157zM295.03242,179.30805v0.06205c0.4453,0.3447 0.92434,0.73766 1.43711,1.17888c0.51277,0.44122 0.91084,0.79971 1.19422,1.07547l-0.91084,1.1582c-0.4453,-0.45501 -1.0188,-0.99274 -1.72048,-1.6132v8.33488h-1.39663v-8.12806c-0.60723,0.8135 -1.32241,1.64078 -2.14554,2.48185l-0.72867,-1.48911c0.94458,-0.95138 1.76434,-1.93722 2.45928,-2.95754c0.69494,-1.02032 1.31904,-2.13715 1.87229,-3.3505h-3.76482v-1.57184h5.36386v1.55116c-0.49928,1.18577 -1.05253,2.27503 -1.65976,3.26777zM377.51437,183.67197l0.22265,1.55116c-0.74217,0.20682 -1.77446,0.50671 -3.09687,0.89967c-1.32241,0.39296 -2.17253,0.66527 -2.55036,0.81694l-0.32386,-1.57184l2.40868,-0.68251v-7.30077h-2.04434v-1.48911h2.04434v-5.02575h1.41687v5.02575h1.82169v1.48911h-1.82169v6.88713zM271.69459,185.67813v-3.10231h1.47759v4.50869h-11.27422v-4.50869h1.47759v3.10231h3.38024v-3.8055h1.5788v3.8055zM342.53798,185.67813v-3.10231h1.47759v4.50869h-11.27422v-4.50869h1.47759v3.10231h3.38024v-3.8055h1.5788v3.8055zM358.4069,185.03699h7.59036l0.04048,-0.76524c0.05398,-0.93759 0.08771,-1.75108 0.1012,-2.44049h-7.36771zM366.34136,177.13643h-7.04386l-0.36434,3.28845h7.26651c0.09446,-1.88896 0.14169,-2.98511 0.14169,-3.28845zM382.73654,183.29969h-4.61494v-5.83235h4.61494zM313.93749,181.39694l0.7894,0.28955l0.62747,0.24818c-0.29687,0.91001 -0.68145,2.13715 -1.15374,3.68141c-0.47229,1.54426 -0.84337,2.77829 -1.11325,3.70209l-1.43711,-0.49637c0.31036,-0.93759 0.7388,-2.29226 1.2853,-4.06403c0.54651,-1.77176 0.88048,-2.89204 1.00193,-3.36084zM353.4681,189.44227l-1.45735,-0.45501l1.96337,-7.11464l1.37639,0.43432c-0.10795,0.38607 -0.68819,2.57147 -1.74072,6.55622zM382.89847,184.64403l0.22265,1.48911c-0.75566,0.17924 -1.87229,0.45156 -3.34988,0.81694c-1.47759,0.36538 -2.37831,0.59633 -2.70217,0.69285l-0.32386,-1.50979c0.79615,-0.17924 1.93639,-0.44466 3.42072,-0.79626c1.48434,-0.3516 2.39518,-0.58254 2.73253,-0.69285zM299.32351,178.41872h2.93494v-3.3505h-2.93494zM303.69556,178.41872h2.93494v-3.3505h-2.93494zM302.25845,179.88715h-2.93494v3.32982h2.93494zM306.6305,179.88715h-2.93494v3.32982h2.93494zM315.51628,178.85305l-0.91084,1.28229c-1.17398,-1.04789 -2.36819,-2.06131 -3.58265,-3.04027l0.80964,-1.22024l0.82988,0.66183c1.5788,1.2685 2.53012,2.04063 2.85398,2.31639zM242.32494,183.13424l1.19422,0.49637c-0.63422,1.69593 -1.35614,3.15746 -2.16578,4.3846l-1.11325,-0.70319c0.40482,-0.56531 0.76916,-1.18577 1.09301,-1.86139c0.32386,-0.67561 0.65446,-1.44775 0.99181,-2.31639zM246.96012,174.07549h-3.40048c0.32386,1.54426 0.53976,2.6542 0.64771,3.32982h1.92289c0.24289,-0.85486 0.51952,-1.9648 0.82988,-3.32982zM355.87678,178.60486l-0.87036,1.30297c-1.64627,-1.46153 -2.73928,-2.39912 -3.27904,-2.81276l0.87036,-1.19956zM316.14375,173.72389l-0.91084,1.26161c-0.24289,-0.19303 -0.35084,-0.28265 -0.32386,-0.26887c-1.47084,-1.25471 -2.43566,-2.06131 -2.89446,-2.4198l0.85012,-1.1582zM356.44353,173.66185l-0.82988,1.22024c-0.98506,-0.82728 -2.07133,-1.70283 -3.2588,-2.62662l0.87036,-1.17888c0.75566,0.5791 1.82843,1.44085 3.21831,2.58526zM270.39916,176.97098l-0.93108,1.13751c-1.51133,-1.22714 -2.59084,-2.0751 -3.23856,-2.5439l0.8906,-1.13751c0.58024,0.42743 1.67325,1.27539 3.27904,2.5439zM341.24256,176.97098l-0.93108,1.13751c-1.51133,-1.22714 -2.59084,-2.0751 -3.23856,-2.5439l0.8906,-1.13751c0.58024,0.42743 1.67325,1.27539 3.27904,2.5439zM326.02135,175.64732v-1.90275h-3.50169v1.90275zM326.02135,178.81168v-1.84071h-3.50169v1.84071zM379.33606,178.81168v3.14368h2.16578v-3.14368zM295.53845,173.74457l-1.35614,0.53773c-0.39133,-1.11683 -0.82313,-2.21988 -1.29542,-3.30913l1.35614,-0.47569c0.29687,0.70319 0.72867,1.78555 1.29542,3.24709zM246.53506,183.96152l1.01205,-0.76524c0.49928,0.6894 1.15374,1.64767 1.96337,2.87481l-1.05253,0.82728c-0.71518,-1.14441 -1.35614,-2.12336 -1.92289,-2.93686zM364.09461,183.92016l-0.85012,1.07547c-0.29687,-0.27576 -0.70506,-0.62046 -1.22458,-1.0341c-0.51952,-0.41364 -0.98169,-0.77213 -1.38651,-1.07547l0.76916,-1.0341c0.93108,0.6894 1.82843,1.37881 2.69205,2.06821zM360.99774,178.23259l0.76916,-1.05479c1.18747,0.88244 2.05109,1.55805 2.59084,2.02684l-0.80964,1.11683c-0.72867,-0.63425 -1.5788,-1.33055 -2.55036,-2.08889zM285.80254,179.10123v2.15094h-2.10506v-2.15094z" fill="#ffffff" fill-rule="evenodd" stroke="#ffffff" stroke-width="0.5" stroke-linecap="round"/><path d="M240,196v-32h208v32z" fill="none" fill-rule="nonzero" stroke="none" stroke-width="0" stroke-linecap="butt"/><path d="" fill="#ffffff" fill-rule="nonzero" stroke="none" stroke-width="1" stroke-linecap="butt"/></g></g></svg>