<svg version="1.1" xmlns="http://www.w3.org/2000/svg" xmlns:xlink="http://www.w3.org/1999/xlink" width="208" height="32" viewBox="0,0,208,32"><g transform="translate(-240,-164)"><g stroke="none" stroke-miterlimit="10"><path d="M240.62457,172.22579h17.964v2.02754h-17.964v-2.02754M245.00406,180.78201h9.22531v1.70314h-9.22531v-1.70314M244.57827,184.02607h10.07688v1.76396h-10.07688v-1.76396M248.5117,181.6133h2.06809v7.23832h-2.06809v-7.23832M241.47614,175.95646h14.67939v2.00727h-12.48965v11.3745h-2.18974v-13.38177M255.52699,175.95646h2.23029v11.1312c0,0.55419 -0.07704,0.97592 -0.23114,1.26518c-0.15679,0.29197 -0.43119,0.5123 -0.82318,0.66098c-0.39199,0.14869 -0.88536,0.23925 -1.48011,0.27169c-0.59474,0.03514 -1.29763,0.05272 -2.10864,0.05272c-0.05407,-0.27034 -0.15139,-0.58528 -0.29197,-0.94483c-0.14328,-0.35684 -0.28927,-0.66368 -0.43795,-0.9205c0.36496,0.01352 0.72992,0.02703 1.09487,0.04055c0.36496,0.01352 0.69342,0.01622 0.98538,0.00811c0.28927,-0.0054 0.4812,-0.00811 0.57582,-0.00811c0.18923,-0.01352 0.31765,-0.05137 0.38523,-0.11355c0.06759,-0.05947 0.10137,-0.16355 0.10137,-0.31224v-11.1312M245.85562,178.53144l1.72341,-0.50688c0.2433,0.33793 0.47715,0.7164 0.70153,1.13542c0.22168,0.41903 0.38658,0.79074 0.49472,1.11514l-1.82479,0.60827c-0.0811,-0.32441 -0.22979,-0.70964 -0.44606,-1.1557c-0.21627,-0.44606 -0.43255,-0.84481 -0.64882,-1.19625M251.69494,178.04483l1.84507,0.52716c-0.27034,0.48661 -0.54068,0.96646 -0.81102,1.43955c-0.27034,0.47309 -0.53392,0.88536 -0.79074,1.2368l-1.54093,-0.46634c0.16221,-0.25682 0.32035,-0.54743 0.47445,-0.87184c0.15679,-0.32441 0.30954,-0.64881 0.45822,-0.97322c0.14869,-0.32441 0.27033,-0.62178 0.36495,-0.89212M248.4306,170.54293h2.3925v6.81253h-2.3925zM261.65016,173.03681h16.46363v1.92616h-16.46363v-1.92616M262.6031,176.15922h14.67939v1.84506h-14.67939v-1.84506M261.38658,182.36349h17.37602v1.94644h-17.37602v-1.94644M260.79859,179.26135h18.34924v1.90589h-18.34924v-1.90589M268.72627,174.21278h2.2303v6.54896h-2.2303v-6.54896M264.18458,171.09037l1.92617,-0.77047c0.33792,0.36496 0.65557,0.77317 0.95294,1.22464c0.29737,0.45417 0.51364,0.85698 0.64881,1.20842l-2.02754,0.89211c-0.12165,-0.36496 -0.3244,-0.78804 -0.60826,-1.26924c-0.28386,-0.4785 -0.58123,-0.90698 -0.89212,-1.28546M273.34906,170.3199l2.3114,0.60826c-0.33792,0.54068 -0.68937,1.07055 -1.05433,1.5896c-0.36496,0.52176 -0.69612,0.95835 -0.99349,1.30979l-1.94644,-0.58798c0.18923,-0.27034 0.38928,-0.57447 0.60015,-0.9124c0.20816,-0.33793 0.40687,-0.68261 0.5961,-1.03405c0.18923,-0.35144 0.35143,-0.67585 0.4866,-0.97322M268.48296,180.74146h2.29112c-0.09462,0.91915 -0.23655,1.76666 -0.42578,2.54253c-0.18923,0.77857 -0.47715,1.48551 -0.86373,2.12081c-0.38388,0.6353 -0.90969,1.20301 -1.57743,1.70314c-0.67044,0.50012 -1.53011,0.93267 -2.57903,1.29762c-1.04621,0.36496 -2.32627,0.67585 -3.84016,0.93267c-0.04055,-0.20275 -0.12166,-0.42308 -0.24331,-0.66098c-0.12165,-0.2352 -0.25682,-0.47174 -0.40551,-0.70964c-0.14869,-0.2352 -0.29737,-0.43389 -0.44606,-0.59609c1.37872,-0.18923 2.53442,-0.42308 3.46709,-0.70153c0.93267,-0.27575 1.68691,-0.60285 2.26273,-0.98132c0.57312,-0.37848 1.01782,-0.81102 1.33412,-1.29763c0.319,-0.48661 0.55014,-1.03405 0.69342,-1.64231c0.14058,-0.60826 0.25142,-1.27735 0.33252,-2.00726M271.24042,183.03258c0.62178,1.29763 1.60852,2.29382 2.96021,2.9886c1.3517,0.69747 3.10214,1.14083 5.25133,1.33006c-0.14869,0.14869 -0.30683,0.34468 -0.47444,0.58799c-0.17032,0.2433 -0.32981,0.48932 -0.4785,0.73802c-0.14869,0.25142 -0.27034,0.4785 -0.36496,0.68125c-1.55445,-0.21627 -2.89938,-0.56501 -4.03481,-1.04621c-1.13542,-0.4785 -2.09917,-1.12326 -2.89127,-1.93427c-0.78939,-0.81101 -1.44767,-1.80451 -1.97483,-2.98048zM283.34484,186.09416h13.78727v2.00727h-13.78727v-2.00727M282.12831,176.11867h16.30142v13.13846h-2.21002v-11.13119h-11.98276v11.17174h-2.10864v-13.17901M281.07399,171.61753h18.10593v2.10864h-18.10593v-2.10864M286.95385,172.91515h1.94644v4.56196c0,0.77047 -0.09462,1.55444 -0.28386,2.35195c-0.18923,0.7975 -0.5569,1.5504 -1.10298,2.25868c-0.54879,0.71099 -1.36386,1.32331 -2.44521,1.83696c-0.0811,-0.14869 -0.20276,-0.32171 -0.36496,-0.51905c-0.1622,-0.19465 -0.32711,-0.39064 -0.49472,-0.58799c-0.17032,-0.19465 -0.32306,-0.33927 -0.45823,-0.43389c0.9597,-0.43254 1.66664,-0.91915 2.12081,-1.45983c0.45146,-0.54068 0.74478,-1.10839 0.87995,-1.70314c0.13517,-0.59474 0.20275,-1.19625 0.20275,-1.80451v-4.50114M291.25224,172.89488h2.08837v7.6641c0,0.32441 0.03379,0.52716 0.10138,0.60826c0.06759,0.0811 0.25682,0.12165 0.56771,0.12165c0.05407,0 0.16625,0 0.33657,0c0.16761,0 0.35279,0 0.55554,0c0.20276,0 0.38928,0 0.5596,0c0.16761,0 0.29197,0 0.37307,0c0.18923,0 0.31494,-0.01351 0.37712,-0.04055c0.05948,-0.02704 0.10949,-0.06758 0.15004,-0.12165c0.20276,0.16221 0.4839,0.31764 0.84345,0.46633c0.35685,0.14869 0.69072,0.25007 1.00161,0.30414c-0.14869,0.54068 -0.38524,0.91239 -0.70964,1.11515c-0.32441,0.20275 -0.80426,0.30413 -1.43955,0.30413c-0.10814,0 -0.27034,0 -0.48661,0c-0.21627,0 -0.45282,0 -0.70964,0c-0.25682,0 -0.48931,0 -0.69747,0c-0.21087,0 -0.37036,0 -0.4785,0c-0.64882,0 -1.14893,-0.0811 -1.50038,-0.2433c-0.35144,-0.16221 -0.59474,-0.44335 -0.72992,-0.84346c-0.13517,-0.3974 -0.20276,-0.94754 -0.20276,-1.65042zM312.74416,171.43505h5.29188v1.96671h-3.36572v15.89592h-1.92616v-17.86263M317.58999,171.43505h0.40551l0.3244,-0.0811l1.50038,0.93267c-0.33792,0.97322 -0.71639,2.00321 -1.13542,3.08997c-0.41902,1.08946 -0.82454,2.08025 -1.21653,2.97237c0.83805,0.93267 1.38278,1.80045 1.6342,2.60336c0.24871,0.80561 0.37307,1.54634 0.37307,2.22219c0,0.68937 -0.07704,1.27735 -0.23114,1.76396c-0.15679,0.48661 -0.41768,0.85832 -0.78263,1.11514c-0.17572,0.12165 -0.37847,0.21898 -0.60826,0.29197c-0.22978,0.07569 -0.4731,0.13382 -0.72992,0.17437c-0.22978,0.02704 -0.48661,0.04325 -0.77047,0.04866c-0.28386,0.00811 -0.56771,0.00541 -0.85157,-0.00811c-0.01352,-0.28385 -0.06083,-0.62178 -0.14193,-1.01377c-0.0811,-0.39199 -0.20952,-0.72992 -0.38524,-1.01377c0.25682,0.02704 0.49067,0.04326 0.70153,0.04866c0.20816,0.00811 0.4001,0.00541 0.57582,-0.00811c0.13517,0 0.27034,-0.01757 0.40551,-0.05272c0.13517,-0.03244 0.25006,-0.08246 0.34468,-0.15004c0.17572,-0.10814 0.30143,-0.28791 0.37712,-0.53932c0.07299,-0.24871 0.10949,-0.54879 0.10949,-0.90023c0,-0.58123 -0.14193,-1.2368 -0.42579,-1.96671c-0.28386,-0.72992 -0.83129,-1.51389 -1.6423,-2.35195c0.20276,-0.51364 0.40956,-1.06513 0.62042,-1.65447c0.20816,-0.58664 0.41092,-1.18138 0.60827,-1.78423c0.19464,-0.60015 0.37307,-1.1638 0.53527,-1.69097c0.1622,-0.52716 0.29737,-0.97322 0.40551,-1.33818v-0.70964M301.73462,172.73268h9.75247v1.94644h-9.75247v-1.94644M301.20746,178.18676h10.72568v1.96671h-10.72568v-1.96671M302.82949,175.12517l1.86534,-0.46633c0.28386,0.48661 0.53797,1.02323 0.76235,1.60986c0.22168,0.58934 0.37982,1.10028 0.47445,1.53282l-1.94644,0.54744c-0.0811,-0.44606 -0.22979,-0.97052 -0.44606,-1.57337c-0.21627,-0.60015 -0.45282,-1.15029 -0.70964,-1.65042M308.56743,174.59801l2.1492,0.46634c-0.18923,0.45958 -0.38524,0.92591 -0.58799,1.399c-0.20276,0.47309 -0.39875,0.92592 -0.58798,1.35845c-0.18923,0.43254 -0.37848,0.81777 -0.56771,1.1557l-1.82479,-0.44606c0.17572,-0.36496 0.3555,-0.77722 0.53933,-1.2368c0.18113,-0.45958 0.35009,-0.92591 0.50689,-1.399c0.15409,-0.47309 0.27844,-0.90564 0.37306,-1.29763M303.33637,186.4794h6.65034v1.90588h-6.65034v-1.90588M302.20096,181.73495h8.9009v7.46134h-2.14919v-5.5149h-4.7039v5.63656h-2.04781v-7.583M304.97869,170.84706l1.96672,-0.54744c0.21627,0.43254 0.42983,0.90564 0.6407,1.41928c0.20816,0.51364 0.35955,0.95294 0.45417,1.3179l-2.08837,0.64881c-0.0811,-0.36496 -0.21222,-0.81507 -0.39335,-1.35034c-0.18383,-0.53257 -0.37712,-1.02864 -0.57988,-1.48821z" fill="#ffffff" stroke-width="1"/><path d="M240,196v-32h208v32z" fill="none" stroke-width="0"/></g></g></svg>