<svg version="1.1" xmlns="http://www.w3.org/2000/svg" xmlns:xlink="http://www.w3.org/1999/xlink" width="210.09179" height="32" viewBox="0,0,210.09179,32"><g transform="translate(-239.28076,-164)"><g stroke="none" stroke-miterlimit="10"><path d="M243.24694,170.35192l1.93425,0.58638c-0.36471,1.17275 -0.80105,2.3482 -1.30904,3.52634c-0.50798,1.18084 -1.06546,2.29967 -1.67244,3.35649c-0.60437,1.05952 -1.23219,1.99368 -1.88345,2.80247c-0.0521,-0.17524 -0.13937,-0.41114 -0.26181,-0.70769c-0.12504,-0.29656 -0.2566,-0.59311 -0.39466,-0.88967c-0.13546,-0.29656 -0.26181,-0.5392 -0.37903,-0.72791c0.54706,-0.64703 1.06807,-1.39517 1.56303,-2.2444c0.49496,-0.84923 0.94693,-1.76317 1.35593,-2.74181c0.4116,-0.97594 0.76067,-1.96267 1.04723,-2.96018M241.68391,175.73039l1.95378,-2.00176l0.05861,0.04044v15.38729h-2.0124v-13.42597M250.24149,170.77653l1.50441,1.67825c-0.65126,0.28308 -1.36765,0.54594 -2.14916,0.78857c-0.78151,0.24264 -1.57866,0.46101 -2.39143,0.65512c-0.81538,0.19681 -1.60731,0.36935 -2.3758,0.51763c-0.03908,-0.22916 -0.11983,-0.5055 -0.24227,-0.82901c-0.12504,-0.32352 -0.25269,-0.59986 -0.38294,-0.82901c0.72941,-0.16176 1.46534,-0.34778 2.20778,-0.55807c0.74244,-0.20759 1.4458,-0.43675 2.11009,-0.68747c0.66429,-0.24803 1.2374,-0.49336 1.71933,-0.736M244.26291,176.4583h13.28573v1.88044h-13.28573v-1.88044M247.31081,172.475h1.97332v14.33586c0,0.5392 -0.06122,0.95977 -0.18366,1.26172c-0.12504,0.30465 -0.35038,0.53785 -0.67601,0.69961c-0.32563,0.16176 -0.73202,0.26555 -1.21916,0.31139c-0.48975,0.04853 -1.0863,0.07279 -1.78967,0.07279c-0.03908,-0.2696 -0.11723,-0.59986 -0.23445,-0.99077c-0.11723,-0.39092 -0.24097,-0.72791 -0.37122,-1.01099c0.45588,0.01348 0.88962,0.02292 1.30122,0.02831c0.40899,0.00809 0.67861,0.00539 0.80887,-0.00809c0.14328,0 0.24487,-0.02696 0.30479,-0.08088c0.05731,-0.05392 0.08597,-0.15502 0.08597,-0.3033v-14.31564M244.18476,182.0592c0.61218,-0.1348 1.31945,-0.29386 2.12181,-0.47719c0.79975,-0.18063 1.64899,-0.38283 2.54773,-0.60659c0.89874,-0.22107 1.79097,-0.43944 2.67668,-0.65512l0.21492,1.92088c-1.22437,0.35048 -2.45786,0.69017 -3.70047,1.01908c-1.24521,0.33161 -2.36929,0.63221 -3.37223,0.9018l-0.48845,-2.10286M251.78497,170.57434h2.05147c-0.03908,1.71195 -0.03256,3.37941 0.01954,5.00239c0.0521,1.62567 0.13676,3.13947 0.25399,4.54137c0.11723,1.40191 0.27093,2.62858 0.46109,3.68001c0.18756,1.05143 0.40508,1.86966 0.65256,2.45469c0.24748,0.58772 0.5145,0.88158 0.80105,0.88158c0.16933,0 0.29958,-0.24264 0.39076,-0.72791c0.09118,-0.48528 0.14979,-1.26037 0.17584,-2.32528c0.19538,0.24264 0.43634,0.4718 0.7229,0.68747c0.28656,0.21568 0.54706,0.37744 0.78151,0.48528c-0.09118,1.02447 -0.22403,1.82248 -0.39857,2.39403c-0.17714,0.57424 -0.41551,0.97594 -0.71508,1.2051c-0.29958,0.22916 -0.70336,0.34374 -1.21135,0.34374c-0.56009,0 -1.04853,-0.23994 -1.46534,-0.71983c-0.41681,-0.47719 -0.77109,-1.14714 -1.06286,-2.00985c-0.29437,-0.86271 -0.53534,-1.88044 -0.7229,-3.05319c-0.19017,-1.17275 -0.33735,-2.45334 -0.44156,-3.84177c-0.1042,-1.38843 -0.17584,-2.84426 -0.21492,-4.36748c-0.03908,-1.52323 -0.06513,-3.06667 -0.07815,-4.63034M255.61439,179.08688l1.85609,0.5055c-0.71639,1.88718 -1.6503,3.59913 -2.80173,5.13584c-1.15404,1.53671 -2.43441,2.81056 -3.84114,3.82155c-0.09118,-0.14828 -0.21752,-0.31678 -0.37903,-0.5055c-0.16412,-0.18872 -0.33345,-0.37744 -0.50798,-0.56616c-0.17714,-0.18872 -0.33735,-0.34374 -0.48063,-0.46506c1.38067,-0.84923 2.60244,-1.96132 3.6653,-3.33627c1.06025,-1.37495 1.88996,-2.90492 2.48912,-4.5899M254.46166,171.72687l1.52395,-0.64703c0.24748,0.37744 0.48584,0.79127 0.71508,1.2415c0.22664,0.45292 0.43504,0.89102 0.62521,1.31429c0.18756,0.42597 0.33345,0.80071 0.43765,1.12422l-1.64118,0.78857c-0.07815,-0.35048 -0.2084,-0.74544 -0.39076,-1.18488c-0.18235,-0.43675 -0.38424,-0.88832 -0.60567,-1.35473c-0.22143,-0.46371 -0.44286,-0.89102 -0.66429,-1.28194zM271.40097,172.94005v2.40616h2.59853v-2.40616h-2.59853M266.94634,172.94005v2.40616h2.53992v-2.40616h-2.53992M262.55032,172.94005v2.40616h2.48131v-2.40616h-2.48131M260.55746,171.12027h15.55212v6.06595h-15.55212v-6.06595M264.0352,182.64557l1.58256,-1.07165c0.42983,0.337 0.88311,0.71443 1.35983,1.13231c0.47412,0.41788 0.92609,0.83575 1.35593,1.25363c0.42983,0.41788 0.775,0.80205 1.03551,1.15253l-1.71933,1.17275c-0.23445,-0.337 -0.55357,-0.71848 -0.95735,-1.14444c-0.40378,-0.42327 -0.84013,-0.85732 -1.30904,-1.30216c-0.46891,-0.44484 -0.91828,-0.84249 -1.34811,-1.19297M264.58226,178.86446h9.04602v1.90066h-9.04602v-1.90066M265.85222,176.84248l2.09055,0.74813c-0.48193,0.75487 -1.06807,1.48953 -1.75841,2.20396c-0.69034,0.71443 -1.4458,1.3709 -2.26639,1.96941c-0.82059,0.6012 -1.66072,1.11074 -2.52038,1.52862c-0.09118,-0.16176 -0.21752,-0.34778 -0.37903,-0.55807c-0.16412,-0.20759 -0.32693,-0.40979 -0.48845,-0.60659c-0.16412,-0.19411 -0.3113,-0.35856 -0.44156,-0.49336c0.80756,-0.35048 1.58647,-0.78588 2.33673,-1.3062c0.74765,-0.51763 1.42105,-1.07704 2.02021,-1.67825c0.59916,-0.59851 1.06807,-1.20106 1.40672,-1.80765M273.12029,178.86446h0.42983l0.37122,-0.08088l1.40672,0.88967c-0.61218,1.42887 -1.40282,2.67845 -2.37189,3.74876c-0.97168,1.073 -2.07622,1.98963 -3.31362,2.7499c-1.2374,0.76296 -2.57248,1.39382 -4.00526,1.89258c-1.43277,0.49876 -2.93068,0.88293 -4.4937,1.15253c-0.06513,-0.17524 -0.16542,-0.38418 -0.30088,-0.62681c-0.13807,-0.24264 -0.28525,-0.48528 -0.44156,-0.72791c-0.1563,-0.24264 -0.30609,-0.43136 -0.44937,-0.56616c1.51093,-0.22916 2.95673,-0.55267 4.3374,-0.97055c1.38067,-0.41788 2.64673,-0.94764 3.79816,-1.58928c1.15404,-0.63895 2.16088,-1.41404 3.02055,-2.32528c0.85966,-0.90854 1.53046,-1.96941 2.0124,-3.1826zM278.98165,172.75808h9.47585v1.90066h-9.47585v-1.90066M281.42388,176.05391h4.74769v1.67825h-4.74769v-1.67825M281.42388,179.16776h4.78677v1.67825h-4.78677v-1.67825M278.72765,182.40293h9.82753v1.90066h-9.82753v-1.90066M280.5056,170.51368h1.89517v12.61717h-1.89517v-12.61717M285.29237,170.51368h1.93425v12.61717h-1.93425v-12.61717M281.26757,184.52602l1.97332,0.58638c-0.32563,0.74139 -0.74244,1.46526 -1.25042,2.17161c-0.50798,0.70904 -1.01597,1.29946 -1.52395,1.77126c-0.11723,-0.12132 -0.27744,-0.26286 -0.48063,-0.42462c-0.20059,-0.16176 -0.40508,-0.32082 -0.61349,-0.47719c-0.2084,-0.15367 -0.39727,-0.27095 -0.5666,-0.35183c0.49496,-0.41788 0.96387,-0.91663 1.40672,-1.49627c0.44286,-0.57964 0.79454,-1.17275 1.05504,-1.77934M284.04195,185.35503l1.68025,-0.78857c0.31261,0.4044 0.64214,0.84923 0.98861,1.33451c0.34387,0.48528 0.60046,0.90989 0.76979,1.27385l-1.75841,0.93011c-0.1563,-0.37744 -0.39466,-0.82632 -0.71508,-1.34664c-0.31782,-0.51763 -0.63954,-0.98538 -0.96517,-1.40326M289.92284,177.00424h7.09224v2.02198h-7.09224v-2.02198M293.24427,178.03545h1.97332v11.14113h-1.97332v-11.14113M295.2762,170.2306l1.68025,1.55693c-0.66429,0.337 -1.3937,0.64703 -2.18824,0.93011c-0.79454,0.28308 -1.61252,0.54189 -2.45395,0.77644c-0.83882,0.23725 -1.65551,0.44349 -2.45005,0.61873c-0.0521,-0.22916 -0.14328,-0.5028 -0.27353,-0.82093c-0.13025,-0.31543 -0.2605,-0.58772 -0.39076,-0.81688c0.72941,-0.18872 1.46925,-0.4017 2.2195,-0.63895c0.74765,-0.23455 1.45752,-0.49067 2.12962,-0.76835c0.6695,-0.27499 1.24521,-0.55402 1.72714,-0.8371M289.19994,172.475h1.93425v7.25892c0,1.25363 -0.06773,2.45604 -0.20319,3.60722c-0.13807,1.15388 -0.4129,2.25249 -0.8245,3.29583c-0.40899,1.04604 -1.02378,2.02738 -1.84437,2.94401c-0.16933,-0.22916 -0.39727,-0.47584 -0.68382,-0.74005c-0.28656,-0.26151 -0.55357,-0.47988 -0.80105,-0.65512c0.71639,-0.82227 1.24782,-1.69173 1.59429,-2.60836c0.34387,-0.91663 0.5679,-1.86696 0.6721,-2.851c0.1042,-0.98403 0.1563,-1.98154 0.1563,-2.99253zM299.39869,173.82973h16.04057v9.96838h-2.18824v-7.82507h-11.74224v7.92617h-2.11009v-10.06947M300.49281,180.60337h13.98909v2.1433h-13.98909v-2.1433M306.25647,170.29126h2.20778v18.8651h-2.20778zM329.17435,171.28203h5.09938v1.96132h-3.24328v15.85234h-1.85609v-17.81367M333.8439,171.28203h0.39076l0.31261,-0.08088l1.4458,0.93011c-0.32563,0.97055 -0.69034,1.99772 -1.09412,3.0815c-0.40378,1.08648 -0.79454,2.07455 -1.17227,2.96423c0.80756,0.93011 1.33118,1.79552 1.57084,2.59623c0.24227,0.8034 0.3634,1.5421 0.3634,2.21609c0,0.68747 -0.07555,1.27385 -0.22664,1.75913c-0.14849,0.48528 -0.39857,0.85597 -0.75025,1.11209c-0.16933,0.12132 -0.36471,0.21837 -0.58614,0.29117c-0.22143,0.07549 -0.45588,0.13345 -0.70336,0.17389c-0.22143,0.02696 -0.46891,0.04313 -0.74244,0.04853c-0.27353,0.00809 -0.54706,0.00539 -0.82059,-0.00809c-0.01303,-0.28308 -0.05861,-0.62008 -0.13676,-1.01099c-0.07815,-0.39092 -0.20189,-0.72791 -0.37122,-1.01099c0.24748,0.02696 0.47282,0.04313 0.67601,0.04853c0.20059,0.00809 0.38555,0.00539 0.55487,-0.00809c0.13025,0 0.2605,-0.01752 0.39076,-0.05257c0.13025,-0.03235 0.24097,-0.08223 0.33214,-0.14963c0.16933,-0.10784 0.28916,-0.28712 0.3595,-0.53785c0.07294,-0.24803 0.10941,-0.54728 0.10941,-0.89776c0,-0.57964 -0.13676,-1.23341 -0.41029,-1.96132c-0.27353,-0.72791 -0.80105,-1.50975 -1.58256,-2.3455c0.19538,-0.51223 0.39466,-1.06221 0.59786,-1.64994c0.20059,-0.58503 0.39597,-1.17814 0.58614,-1.77934c0.18756,-0.59851 0.3595,-1.16062 0.5158,-1.68633c0.1563,-0.52572 0.28656,-0.97055 0.39076,-1.33451v-0.70769M318.56531,172.5761h9.3977v1.9411h-9.3977v-1.9411M318.05732,178.01523h10.33552v1.96132h-10.33552v-1.96132M319.62035,174.96204l1.79748,-0.46506c0.27353,0.48528 0.5171,1.02043 0.73072,1.60545c0.21622,0.58772 0.36992,1.09726 0.46109,1.52862l-1.87563,0.54594c-0.07815,-0.44484 -0.22143,-0.96786 -0.42983,-1.56906c-0.2084,-0.59851 -0.43634,-1.14714 -0.68382,-1.64589M325.14956,174.43632l2.07101,0.46506c-0.18235,0.45832 -0.37122,0.92337 -0.5666,1.39517c-0.19538,0.4718 -0.38424,0.92337 -0.5666,1.35473c-0.18235,0.43136 -0.36471,0.81553 -0.54706,1.15253l-1.75841,-0.44484c0.16933,-0.36396 0.34126,-0.77509 0.5158,-1.23341c0.17714,-0.45832 0.33996,-0.92337 0.48845,-1.39517c0.15109,-0.4718 0.27223,-0.90315 0.3634,-1.29407M320.1088,186.28514h6.40841v1.90066h-6.40841v-1.90066M319.01468,181.5537h8.57711v7.4409h-2.07101v-5.49979h-4.53278v5.62111h-1.97332v-7.56222M321.69136,170.69565l1.89517,-0.54594c0.2084,0.43136 0.4129,0.90315 0.61349,1.41539c0.20319,0.51223 0.35038,0.95033 0.44156,1.31429l-2.0124,0.64703c-0.07815,-0.36396 -0.2058,-0.81284 -0.38294,-1.34664c-0.17454,-0.53111 -0.3595,-1.02582 -0.55487,-1.48414z" fill="#ffffff" stroke-width="1"/><path d="M241.37255,196v-32h208v32z" fill="none" stroke-width="0"/></g></g></svg>