<svg version="1.1" xmlns="http://www.w3.org/2000/svg" xmlns:xlink="http://www.w3.org/1999/xlink" width="208" height="32" viewBox="0,0,208,32"><g transform="translate(-240,-164)"><g stroke-miterlimit="10"><path d="M240,196v-32h208v32z" fill="none" fill-rule="nonzero" stroke="none" stroke-width="0" stroke-linecap="butt"/><path d="M327.6672,174.0494h-3.48544v5.2904c0,2.43428 -0.13354,4.40175 -0.40063,5.90243c-0.26708,1.50068 -0.77454,3.03247 -1.52238,4.59539l-1.22191,-0.76763c0.66771,-1.38311 1.11507,-2.77314 1.3421,-4.17008c0.22702,-1.39694 0.34053,-3.23648 0.34053,-5.51862v-6.63894h7.51173c-0.08013,-0.24896 -0.28712,-0.8022 -0.62097,-1.65973l1.68263,-0.26971c0.1736,0.42876 0.40063,1.07191 0.68106,1.92944h6.75054v1.30704h-3.2651v1.8672h2.92457v1.12032h-2.72425c0.40063,0.49792 0.89139,0.98201 1.4723,1.45227c0.58091,0.47026 1.19854,0.87828 1.85289,1.22405l-0.58091,1.12032c-1.00156,-0.56708 -1.9831,-1.39694 -2.9446,-2.4896v2.73856h-1.24194v-2.73856c-0.70777,0.95435 -1.62921,1.83954 -2.76432,2.65558l-0.641,-0.95435c0.77454,-0.52558 1.40887,-1.0235 1.90297,-1.49376c0.4941,-0.47026 0.91476,-0.97509 1.26197,-1.51451h-2.10328v-1.12032h2.34366v-1.8672h-5.28826v1.8672h2.3036v1.12032h-2.3036v0.43568c0.90809,0.55324 1.64924,1.04425 2.22347,1.47301l-0.52081,0.97509c-0.77454,-0.59474 -1.3421,-1.00967 -1.70266,-1.2448v2.40662h-1.26197v-2.59334c-0.641,0.8437 -1.48231,1.63207 -2.52394,2.36512l-0.68106,-0.97509c1.4289,-0.94052 2.45049,-1.88795 3.06479,-2.8423h-2.58404v-1.12032h2.72425zM278.23,175.93734h-6.43004c0.76119,1.89486 1.71935,3.59955 2.87449,5.11406c1.15514,1.51451 2.5807,3.00481 4.27668,4.47091l-1.08169,1.49376c-1.57579,-1.41077 -2.98132,-2.99098 -4.21659,-4.74062c-1.23526,-1.74964 -2.22013,-3.60647 -2.95461,-5.57048v8.02897h4.02629v1.556h-4.02629v3.65142h-1.56244v-3.65142h-3.98623v-1.556h3.98623v-8.21569c-0.73448,1.96402 -1.66927,3.77935 -2.80438,5.446c-1.13511,1.66665 -2.60407,3.40591 -4.40688,5.21779l-1.04163,-1.43152c1.73604,-1.61824 3.16828,-3.19153 4.29671,-4.71987c1.12843,-1.52834 2.07324,-3.22611 2.83443,-5.09331h-6.38998v-1.59749h7.51173v-3.40246h1.56244v3.40246h7.53176zM357.41366,184.0078l1.42222,0.33195c0,0.41493 -0.02671,1.07883 -0.08013,1.99168l-0.02003,0.68464c-0.04006,0.56708 -0.1469,1.00621 -0.3205,1.31741c-0.1736,0.3112 -0.45404,0.5325 -0.84131,0.66389c-0.38727,0.1314 -0.93479,0.19709 -1.64257,0.19709h-5.08795c-0.66771,0 -1.19186,-0.07261 -1.57246,-0.21784c-0.38059,-0.14523 -0.65769,-0.4011 -0.8313,-0.76763c-0.1736,-0.36652 -0.26041,-0.89556 -0.26041,-1.58712v-7.13686l-1.68263,0.60165l-0.38059,-1.47301l2.06322,-0.72613v-5.12443h1.42222v4.62651l2.48388,-0.89211v-5.56011h1.40219v5.08294l4.26666,-1.51451l-0.22034,7.40657c-0.04006,0.56708 -0.12019,0.99584 -0.24038,1.28629c-0.12019,0.29045 -0.32718,0.49792 -0.62097,0.6224c-0.29379,0.12448 -0.72113,0.18672 -1.282,0.18672h-1.08169l-0.28044,-1.53525h0.72113c0.38727,0 0.67439,-0.03112 0.86135,-0.09336c0.18696,-0.06224 0.31716,-0.17635 0.39061,-0.34232c0.07345,-0.16597 0.11685,-0.42876 0.1302,-0.78837l0.18028,-4.64726l-2.82441,0.99584v8.21569h-1.40219v-7.71777l-2.48388,0.89211v7.01238c0,0.49792 0.03339,0.86444 0.10016,1.09957c0.06677,0.23513 0.20365,0.4011 0.41064,0.49792c0.20699,0.09682 0.53083,0.14523 0.97152,0.14523h4.28669c0.56088,0 0.97152,-0.03458 1.23192,-0.10373c0.26041,-0.06916 0.44403,-0.20747 0.55086,-0.41493c0.10683,-0.20747 0.1736,-0.53941 0.20031,-0.99584zM378.66685,175.37718h-10.69671l-0.14022,2.75931l-0.04006,0.64315h8.63348c-0.05342,0.89902 -0.12687,2.12308 -0.22034,3.67216c-0.09348,1.54909 -0.1736,2.77314 -0.24038,3.67216c-0.06677,0.82987 -0.21701,1.46264 -0.4507,1.89832c-0.2337,0.43568 -0.58758,0.74342 -1.06166,0.92323c-0.47407,0.1798 -1.13844,0.26971 -1.99311,0.26971h-3.16494l-0.3205,-1.556h2.92457c0.66771,0 1.17183,-0.05878 1.51236,-0.17635c0.34053,-0.11756 0.58758,-0.32503 0.74116,-0.6224c0.15357,-0.29737 0.25707,-0.73651 0.31048,-1.31741l0.3205,-5.18667h-7.13114c-0.16025,1.38311 -0.42733,2.60371 -0.80125,3.66179c-0.37392,1.05808 -0.91142,2.0643 -1.61252,3.01864c-0.70109,0.95435 -1.62587,1.93636 -2.77433,2.94603l-1.18185,-1.32779c1.25529,-1.07883 2.22013,-2.10233 2.89452,-3.07051c0.67439,-0.96818 1.16849,-2.03663 1.48231,-3.20536c0.31382,-1.16873 0.52415,-2.65212 0.63099,-4.45016l0.14022,-2.55184h-4.90766v-1.57675h8.29295l-1.08169,-2.63483l1.64257,-0.43568c0.20031,0.42876 0.62765,1.45227 1.282,3.07051h7.01095zM298.82216,183.98706h-9.95555c-1.01492,1.16181 -2.25686,2.36512 -3.72582,3.60992l8.99405,-0.35269l-2.20344,-2.15766l0.98153,-1.01659c0.57423,0.53941 1.12509,1.065 1.65258,1.57675c0.52749,0.51175 0.99155,0.96126 1.39217,1.34853c1.44225,1.41077 2.03651,1.98477 1.78278,1.72197l-1.04163,1.18256c-0.22702,-0.24896 -0.641,-0.68464 -1.24194,-1.30704l-12.37933,0.56016l-0.38059,-1.47301c1.57579,-1.16181 2.95795,-2.39278 4.14648,-3.69291h-5.74898v-1.41077h2.64413v-10.78828h12.37933v10.78828h2.70422zM318.83341,186.28994l-0.9615,1.30704c-1.02827,-0.95435 -1.90965,-2.04355 -2.64413,-3.2676c-0.73448,-1.22405 -1.36213,-2.62446 -1.88294,-4.2012v7.13686c0,0.82987 -0.1903,1.41423 -0.57089,1.75309c-0.38059,0.33886 -1.065,0.50829 -2.05321,0.50829h-1.72269l-0.28044,-1.51451h1.6025c0.45404,0 0.79457,-0.03458 1.0216,-0.10373c0.22702,-0.06916 0.38393,-0.18326 0.47074,-0.34232c0.0868,-0.15906 0.1302,-0.39764 0.1302,-0.71576v-3.71366c-1.80282,1.50759 -3.1182,2.5795 -3.94616,3.21574l-0.78122,-1.28629c1.88294,-1.43844 3.45873,-2.70398 4.72738,-3.79664v-5.2904h-4.64726v-1.49376h4.64726v-3.65142h1.40219v3.65142h5.38842v1.49376h-5.32832c0.33385,1.56292 0.78122,3.01519 1.3421,4.3568c1.02827,-1.14798 1.86959,-2.18532 2.52394,-3.112l1.10172,1.01659c-0.94815,1.20331 -1.94971,2.35129 -3.00469,3.44395c0.98821,2.01934 2.14335,3.5546 3.46541,4.60576zM328.18802,183.1157h-3.42535v-1.2448h13.74146v1.2448h-8.71361c-0.36056,0.49792 -0.80125,1.03042 -1.32206,1.59749h8.71361v5.12443h-1.44225v-0.9336h-7.51173v0.95435h-1.42222v-3.65142c-0.81461,0.65006 -1.67595,1.21714 -2.58404,1.70123l-0.52081,-1.28629c0.81461,-0.38727 1.6192,-0.88865 2.41377,-1.50413c0.79457,-0.61548 1.48565,-1.28284 2.07324,-2.00206zM303.52951,174.27761h-2.28357v-1.49376h5.94929v1.49376h-2.26354v4.91696h1.9831v1.49376h-1.9831v5.31115l2.04319,-0.41493l0.04006,0.91285l0.02003,0.70539l-1.42222,0.24896c-2.36369,0.38727 -3.76588,0.63623 -4.20657,0.74688l-0.22034,-1.49376c1.26865,-0.23513 2.04987,-0.38036 2.34366,-0.43568v-5.58086h-2.16338v-1.49376h2.16338zM344.9542,177.84604v7.17835l2.3036,-0.76763l0.12019,0.76763l0.08013,0.66389l-5.94929,2.01243l-0.38059,-1.39003l2.40375,-0.80912v-7.65553h-2.10328v-1.51451h2.10328v-4.9792h1.42222v4.9792h1.70266v1.51451zM255.99527,184.96215h-2.96463c-0.68106,0 -1.16515,-0.14868 -1.45227,-0.44605c-0.28712,-0.29737 -0.43067,-0.81258 -0.43067,-1.54563v-4.62651h1.38216v2.32363c0.86802,-0.31812 1.74606,-0.67081 2.63411,-1.05808c0.88805,-0.38727 1.60584,-0.73996 2.15336,-1.05808l0.58091,1.2448c-0.62765,0.31812 -1.45561,0.6881 -2.48388,1.10995c-1.02827,0.42185 -1.98977,0.79183 -2.8845,1.10995v0.45643c0,0.47026 0.09014,0.78492 0.27042,0.94397c0.18028,0.15906 0.50412,0.23859 0.97152,0.23859h1.74272c0.54752,0 0.92144,-0.07607 1.12175,-0.22821c0.20031,-0.15214 0.32718,-0.47026 0.38059,-0.95435c0.02671,-0.26279 0.04674,-0.54979 0.06009,-0.86099c0.01335,-0.3112 0.02003,-0.57053 0.02003,-0.778l1.3421,0.37344l-0.16025,1.95019c-0.06677,0.67772 -0.26708,1.14798 -0.60094,1.41077c-0.33385,0.26279 -0.89473,0.39419 -1.68263,0.39419zM255.91515,177.76305h-2.98466c-0.62765,0 -1.08169,-0.14868 -1.36213,-0.44605c-0.28044,-0.29737 -0.42066,-0.77108 -0.42066,-1.42115v-4.91696h1.38216v2.5311c0.86802,-0.30428 1.7494,-0.63623 2.64413,-0.99584c0.89473,-0.35961 1.56912,-0.65006 2.02316,-0.87136l0.62097,1.20331c-0.61429,0.27662 -1.45895,0.6224 -2.53396,1.03733c-1.07501,0.41493 -1.99311,0.74688 -2.7543,0.99584v0.51867c0,0.41493 0.08346,0.69847 0.25039,0.85061c0.16693,0.15214 0.46406,0.22821 0.89139,0.22821h1.78278c0.53417,0 0.90475,-0.07261 1.11174,-0.21784c0.20699,-0.14523 0.33052,-0.43914 0.37058,-0.88173c0.05342,-0.88519 0.08013,-1.41077 0.08013,-1.57675l1.30203,0.39419l-0.14022,1.84645c-0.06677,0.63623 -0.27042,1.08229 -0.61095,1.33816c-0.34053,0.25588 -0.89139,0.38381 -1.65258,0.38381zM243.67603,185.19037h-1.3421v-8.56838h7.09107v6.72193c0,0.66389 -0.13688,1.12032 -0.41064,1.36928c-0.27376,0.24896 -0.76453,0.37344 -1.4723,0.37344h-1.54241l-0.24038,-1.18256h1.52238c0.26708,0 0.45404,-0.0242 0.56088,-0.07261c0.10683,-0.04841 0.17694,-0.12794 0.21033,-0.23859c0.03339,-0.11065 0.05008,-0.29045 0.05008,-0.53941v-0.60165h-4.42691zM246.70075,172.80459l0.84131,-0.82987c0.52081,0.53941 1.27532,1.36237 2.26354,2.46886c0.25373,0.26279 0.52749,0.56016 0.82128,0.89211l-0.9615,0.9336l-0.82128,-0.97509l-6.93082,0.39419l-0.30047,-1.2448c0.73448,-0.52558 1.46228,-1.14798 2.18341,-1.8672c0.72113,-0.71922 1.26197,-1.36928 1.62253,-1.95019l1.22191,0.70539c-0.45404,0.56708 -0.96818,1.14453 -1.54241,1.73235c-0.57423,0.58782 -1.07501,1.04771 -1.50235,1.37965l4.30673,-0.24896zM294.67568,182.57628v-2.28214h-9.4748v2.28214zM285.20088,176.74646v2.19915h9.4748v-2.19915zM285.20088,175.43942h9.4748v-2.1784h-9.4748zM328.22808,185.89575v1.84645h7.51173v-1.84645zM242.75459,190.10733l-1.42222,-0.74688c0.82796,-1.2448 1.45561,-2.50343 1.88294,-3.7759l1.32206,0.58091c-0.37392,1.25863 -0.96818,2.57259 -1.78278,3.94187zM243.67603,179.0286h4.42691v-1.26555h-4.42691zM248.10294,180.12817h-4.42691v1.2448h4.42691zM255.11389,186.20695l1.26197,-0.70539c0.92144,1.42461 1.61586,2.60717 2.08325,3.54768l-1.42222,0.76763c-0.66771,-1.4661 -1.30871,-2.66941 -1.923,-3.60992zM307.41558,177.90828l1.04163,-0.76763c0.90809,1.34162 1.68931,2.53801 2.34366,3.58918l-1.08169,0.80912c-0.1736,-0.27662 -0.70109,-1.11341 -1.58247,-2.51035zM246.40029,186.2277l1.40219,-0.3112l0.26041,0.89211c0.37392,1.34162 0.60094,2.21298 0.68106,2.61408l-1.50235,0.33195c-0.08013,-0.53941 -0.29379,-1.45918 -0.641,-2.75931zM250.86726,186.24845l1.32206,-0.45643c0.24038,0.55324 0.4941,1.15144 0.76119,1.79459c0.26708,0.64315 0.4674,1.1791 0.60094,1.60787l-1.46228,0.45643c-0.12019,-0.47026 -0.2771,-0.96818 -0.47074,-1.49376c-0.19364,-0.52558 -0.44403,-1.16181 -0.75117,-1.90869zM317.59147,173.44774l-0.88138,0.91285c-0.94815,-1.0235 -1.72937,-1.83954 -2.34366,-2.44811l0.80125,-0.87136c0.77454,0.73305 1.58247,1.53525 2.42379,2.40662z" fill="#ffffff" fill-rule="evenodd" stroke="#ffffff" stroke-width="0.5" stroke-linecap="round"/></g></g></svg>