<svg version="1.1" xmlns="http://www.w3.org/2000/svg" xmlns:xlink="http://www.w3.org/1999/xlink" width="208" height="32" viewBox="0,0,208,32"><g transform="translate(-240,-164.00003)"><g stroke-miterlimit="10"><path d="M288.3131,184.12757h-8.18508c-0.83443,1.19135 -1.8555,2.42525 -3.06323,3.7017l7.39457,-0.36166l-1.81159,-2.21251l0.80698,-1.04243c0.47211,0.55313 0.92501,1.09207 1.35869,1.61683c0.43368,0.52476 0.81521,0.9857 1.14459,1.38282c1.18577,1.44664 1.67434,2.03522 1.46574,1.76575l-0.85639,1.21263c-0.18665,-0.25529 -0.52701,-0.70205 -1.02108,-1.34027l-10.17782,0.5744l-0.31291,-1.51046c1.29556,-1.19135 2.43192,-2.45362 3.40908,-3.7868h-4.72659v-1.44664h2.1739v-11.06255h10.17782v11.06255h2.22331zM255.24342,172.29915v1.59556h-7.27928c-0.60386,1.80121 -1.38888,3.54569 -2.35506,5.23344h8.21801v10.84981h-1.28458v-1.46791h-7.46044v1.46791h-1.30105v-8.0629c-0.73561,0.99279 -1.57004,1.9714 -2.50328,2.93583l-0.49407,-1.8083c1.24066,-1.20553 2.34957,-2.59899 3.32673,-4.18037c0.97716,-1.58138 1.7512,-3.23721 2.32212,-4.96751h-5.02303v-1.59556zM337.73647,180.76626v1.44664h-1.6963l-0.09881,3.29749h1.48221v1.46791h-1.51514l-0.01647,0.38293c-0.03294,0.65241 -0.12352,1.15589 -0.27174,1.51046c-0.14822,0.35457 -0.37879,0.60631 -0.6917,0.75523c-0.31291,0.14892 -0.74934,0.22338 -1.30928,0.22338h-2.45388l-0.24703,-1.48919h2.30566c0.54897,0 0.9305,-0.09573 1.14459,-0.2872c0.2141,-0.19147 0.33212,-0.54249 0.35408,-1.05307v-0.04255h-7.39457l0.41172,-4.76541h-1.28458v-1.44664h1.39986l0.36232,-4.23355c-0.32938,0.53894 -0.5819,0.93606 -0.75757,1.19135l-0.83992,-1.1488c0.60386,-0.86515 1.17753,-1.85085 1.72101,-2.9571c0.54348,-1.10625 0.98539,-2.17705 1.32575,-3.21239l1.10342,0.4893c-0.18665,0.55313 -0.40075,1.12753 -0.64229,1.7232h7.21341v1.44664h-7.83923c-0.35134,0.75169 -0.66974,1.37573 -0.9552,1.87212h7.65807l-0.13175,4.82923zM353.23377,184.40413l0.98814,0.40421c-0.06588,0.79423 -0.1592,1.65938 -0.27997,2.59544c-0.12077,0.99279 -0.29919,1.67002 -0.53524,2.03168c-0.23606,0.36166 -0.54622,0.54249 -0.9305,0.54249c-0.70268,0 -1.26811,-0.70205 -1.6963,-2.10614c-0.13175,-0.43966 -0.24154,-0.86515 -0.32938,-1.27645c-0.72463,1.2339 -1.57553,2.38979 -2.55269,3.46768l-0.82345,-1.25517c1.28458,-1.41827 2.28919,-2.77982 3.01382,-4.08463c-0.38428,-2.53871 -0.62582,-5.60928 -0.72463,-9.2117h-5.08891v-1.46791h5.05597c-0.03294,-1.27645 -0.04941,-2.37561 -0.04941,-3.29749l1.13636,-0.02127c0.01098,0.31202 0.02745,1.41827 0.04941,3.31876h1.49868c-0.19763,-0.87933 -0.41721,-1.70902 -0.65876,-2.48907l0.9552,-0.42548c0.30742,1.09207 0.57092,2.06359 0.79051,2.91456h1.08695v1.46791h-3.65611c0.04392,2.83655 0.19763,5.33271 0.46113,7.48849c0.61484,-1.43246 1.20772,-3.35422 1.77865,-5.76529l1.02108,0.44676c-0.62582,2.83655 -1.45476,5.30435 -2.48681,7.4034c0.10979,0.63822 0.2635,1.28354 0.46113,1.93595c0.14273,0.43966 0.27174,0.7375 0.38702,0.89351c0.11528,0.15601 0.2388,0.23402 0.37055,0.23402c0.14273,0 0.25252,-0.11701 0.32938,-0.35102c0.07685,-0.23402 0.15371,-0.67014 0.23057,-1.30836zM290.37173,171.72475h14.22919v1.55301h-4.79247v3.1273h3.87021v13.76436h-1.1693v-1.61683h-10.09548v1.61683h-1.18577v-13.76436h3.70552v-3.1273h-4.5619zM320.92166,173.61815l-1.36692,5.4249c0.5819,0.97861 0.98814,1.8473 1.2187,2.60608c0.23057,0.75878 0.34585,1.56365 0.34585,2.41461c0,1.20553 -0.19763,2.06359 -0.59288,2.57417c-0.39526,0.51058 -1.0595,0.76587 -1.99274,0.76587h-0.93873l-0.24703,-1.51046h0.85639c0.64778,0 1.10068,-0.15246 1.35869,-0.45739c0.25801,-0.30493 0.38702,-0.84742 0.38702,-1.62747c0,-0.68077 -0.12901,-1.37573 -0.38702,-2.08486c-0.25801,-0.70914 -0.66699,-1.49628 -1.22694,-2.36143l1.33399,-5.76529h-2.76679v16.6151h-1.1693v-18.18938h5.18772zM292.41388,177.97935v9.04151h10.09548v-3.19112h-1.87746c-0.74659,0 -1.27085,-0.19147 -1.57279,-0.5744c-0.30193,-0.38293 -0.4529,-1.04952 -0.4529,-1.99977v-3.27622h-2.47034v0.02127c0,1.27645 -0.07137,2.31179 -0.2141,3.10602c-0.14273,0.79423 -0.40898,1.49628 -0.79874,2.10614c-0.38977,0.60986 -0.96892,1.22681 -1.73748,1.85085l-0.79051,-1.12753c0.71366,-0.59568 1.23243,-1.14171 1.55632,-1.63811c0.32389,-0.4964 0.53524,-1.05307 0.63406,-1.67002c0.09881,-0.61695 0.14822,-1.49983 0.14822,-2.64863zM344.1429,184.10629l0.18116,1.59556c-0.60386,0.21274 -1.44378,0.52122 -2.51975,0.92542c-1.07597,0.40421 -1.76767,0.68432 -2.07509,0.84033l-0.2635,-1.61683l1.95981,-0.70205v-7.50977h-1.66337v-1.53174h1.66337v-5.16961h1.15283v5.16961h1.48221v1.53174h-1.48221v7.08429zM314.44935,174.61803h-1.23517c-0.13175,1.319 -0.30193,2.55999 -0.51054,3.72297h2.22331v1.53174h-8.25095v-1.53174h2.10803c-0.20861,-1.61683 -0.40075,-2.85783 -0.57641,-3.72297h-1.11989v-1.51046h3.21145c-0.14273,-0.75169 -0.30742,-1.44664 -0.49407,-2.08486l1.2187,-0.38293c0.21959,0.85097 0.40623,1.67356 0.55994,2.4678h2.8656zM258.52075,190.12687l-1.2187,-0.93606c0.6917,-1.24808 1.18577,-2.32597 1.48221,-3.23367c0.29644,-0.9077 0.49407,-1.96077 0.59288,-3.15921c0.09881,-1.19844 0.14822,-2.96774 0.14822,-5.3079v-6.46734h1.30105v6.44606c0,2.51035 -0.0549,4.42502 -0.16469,5.74401c-0.10979,1.319 -0.3184,2.47134 -0.62582,3.45705c-0.30742,0.9857 -0.81247,2.13805 -1.51514,3.45705zM269.24204,189.95668v-18.95525h1.30105v18.95525zM264.36723,188.93552v-17.21077h1.28458v17.21077zM308.78403,188.40367v1.42537h-1.15283v-8.02035h6.29114v6.59498zM245.08207,180.76626v6.14822h7.46044v-6.14822zM284.90403,182.68093v-2.34015h-7.78982v2.34015zM277.11421,176.7029v2.25506h7.78982v-2.25506zM277.11421,175.36263h7.78982v-2.23378h-7.78982zM328.59619,185.51039h6.17586l0.03294,-0.78714c0.04392,-0.96443 0.07137,-1.80121 0.08234,-2.51035h-5.9947zM335.05203,177.38367h-5.7312l-0.29644,3.38259h5.91236c0.07685,-1.94304 0.11528,-3.07057 0.11528,-3.38259zM348.39189,183.72336h-3.75492v-5.9993h3.75492zM324.57777,190.04178l-1.18577,-0.46803l1.59749,-7.3183l1.11989,0.44676c-0.08783,0.39712 -0.55994,2.64508 -1.41633,6.7439zM308.78403,186.95703h3.98549v-3.63788h-3.98549zM348.52364,185.10618l0.18116,1.53174c-0.61484,0.18438 -1.52338,0.46449 -2.72561,0.84033c-1.20223,0.37584 -1.9351,0.6134 -2.19861,0.71268l-0.2635,-1.55301c0.64778,-0.18438 1.57553,-0.45739 2.78326,-0.81905c1.20772,-0.36166 1.94883,-0.59922 2.22331,-0.71268zM302.50935,182.27672v-4.29737h-2.70091v2.76564c0,0.42548 0.03568,0.74459 0.10705,0.95734c0.07137,0.21274 0.19214,0.36166 0.36232,0.44676c0.17018,0.0851 0.42545,0.12764 0.76581,0.12764zM312.09429,174.61803h-2.71738c0.28546,1.75866 0.4776,2.99965 0.57641,3.72297h1.63043c0.19763,-1.10625 0.36781,-2.34725 0.51054,-3.72297zM296.13586,173.27776v3.1273h2.47034v-3.1273zM326.53757,178.89413l-0.70817,1.34027c-1.33948,-1.50337 -2.2288,-2.4678 -2.66797,-2.89328l0.70817,-1.2339zM326.9987,173.80962l-0.67523,1.25517c-0.80149,-0.85097 -1.68532,-1.75157 -2.6515,-2.70181l0.70817,-1.21263c0.61484,0.59568 1.4877,1.4821 2.61857,2.65927zM345.6251,179.10687v3.23367h1.76218v-3.23367zM333.22397,184.36158l-0.6917,1.10625c-0.24154,-0.28366 -0.57367,-0.63822 -0.99637,-1.06371c-0.4227,-0.42548 -0.79874,-0.79423 -1.12812,-1.10625l0.62582,-1.06371c0.75757,0.70914 1.4877,1.41827 2.19037,2.12741zM330.70422,178.5112l0.62582,-1.08498c0.96618,0.9077 1.66886,1.60265 2.10803,2.08486l-0.65876,1.1488c-0.59288,-0.65241 -1.28458,-1.36864 -2.07509,-2.14869z" fill="#ffffff" fill-rule="evenodd" stroke="#ffffff" stroke-width="0.5" stroke-linecap="round"/><path d="M240,196.00004v-32h208v32z" fill="none" fill-rule="nonzero" stroke="none" stroke-width="0" stroke-linecap="butt"/></g></g></svg>