<svg version="1.1" xmlns="http://www.w3.org/2000/svg" xmlns:xlink="http://www.w3.org/1999/xlink" width="38.16097" height="20.6404" viewBox="0,0,38.16097,20.6404"><g transform="translate(-240.68337,-170.35464)"><g fill="#ffffff" fill-rule="evenodd" stroke="#ffffff" stroke-width="0.5" stroke-linecap="round" stroke-miterlimit="10"><path d="M250.31443,181.75849v1.47262h-3.5463v5.08919c0,0.53418 -0.06079,0.94204 -0.18238,1.22357c-0.12159,0.28153 -0.33437,0.48365 -0.63833,0.60637c-0.30397,0.12272 -0.74641,0.18408 -1.32733,0.18408h-1.19561l-0.2837,-1.55924h1.07402c0.39178,0 0.66535,-0.02888 0.82072,-0.08662c0.15536,-0.05775 0.25331,-0.15881 0.29384,-0.30319c0.04053,-0.14437 0.06079,-0.40425 0.06079,-0.77962v-4.37454h-3.80974v-1.47262h3.80974v-2.33886h-4.19477v-1.4293h2.49254c-0.02702,-0.14437 -0.18914,-1.10446 -0.48635,-2.88026l-0.12159,-0.60637h-1.27667v-1.40765h3.62736l-0.6282,-2.10064l1.45905,-0.25987c0.24317,0.72187 0.46609,1.50871 0.66873,2.36052h3.2626v1.40765h-1.13482c-0.17563,0.93843 -0.43907,2.10064 -0.79032,3.48664h2.39122v1.4293h-3.8908v2.33886zM252.96909,178.42345h6.14017v1.55924h-2.18857v10.6115h-1.39826v-10.6115h-2.55334v0.04331c0,1.86243 -0.05742,3.38196 -0.17225,4.55861c-0.11483,1.17665 -0.32086,2.23058 -0.61807,3.16179c-0.29721,0.93121 -0.72952,1.90213 -1.29693,2.91275l-1.45905,-0.77962c0.56741,-0.90956 0.99634,-1.80107 1.2868,-2.67453c0.29046,-0.87346 0.49311,-1.88047 0.60794,-3.02103c0.11483,-1.14056 0.17225,-2.62761 0.17225,-4.46116v-6.67009c1.18886,-0.1155 2.3946,-0.31401 3.61723,-0.59554c1.22263,-0.28153 2.2595,-0.59554 3.11061,-0.94204l0.46609,1.53758c-0.71602,0.31762 -1.59752,0.60998 -2.64453,0.87707c-1.047,0.26709 -2.07036,0.45839 -3.07008,0.57389zM243.1205,183.98907l1.19561,0.51975c-0.63496,1.7758 -1.35773,3.30617 -2.16831,4.5911l-1.11455,-0.73631c0.40529,-0.59193 0.77005,-1.24162 1.09429,-1.94905c0.32423,-0.70743 0.65522,-1.51593 0.99296,-2.42549zM247.76109,174.50369h-3.40445c0.32423,1.61699 0.54039,2.7792 0.64847,3.48664h1.92514c0.24317,-0.89512 0.52012,-2.05733 0.83085,-3.48664zM247.33553,184.85532l1.01323,-0.80128c0.49986,0.72187 1.15508,1.72527 1.96566,3.0102l-1.05376,0.86624c-0.71602,-1.19831 -1.35773,-2.22336 -1.92514,-3.07517z"/><path d="M265.59392,174.28713v5.99875h12.9896l-0.30397,7.16818c-0.08106,1.09724 -0.35463,1.86604 -0.82072,2.30638c-0.46609,0.44034 -1.21925,0.66051 -2.2595,0.66051h-2.33043l-0.2837,-1.53758h1.98593c0.54039,0 0.95919,-0.06497 1.2564,-0.19491c0.29721,-0.12994 0.50999,-0.33206 0.63833,-0.60637c0.12834,-0.27431 0.21278,-0.6569 0.25331,-1.14777c0.04053,-0.64968 0.08444,-1.50871 0.13172,-2.57708c0.04728,-1.06837 0.08444,-1.92739 0.11146,-2.57708h-12.90854v-8.98729h3.93133l0.26344,-0.693l0.52688,-1.47262l1.58064,0.19491l-0.26344,0.75796c-0.14861,0.462 -0.2837,0.86624 -0.40529,1.21274h6.99128c-0.12159,2.25224 -0.19589,3.51551 -0.22291,3.78982c-0.06755,0.693 -0.19251,1.23079 -0.37489,1.61338c-0.18238,0.38259 -0.45933,0.6569 -0.83085,0.82293c-0.37152,0.16603 -0.88826,0.24905 -1.55024,0.24905h-1.74275l-0.2837,-1.38599h1.58064c0.60794,0 1.02674,-0.10467 1.2564,-0.31401c0.22967,-0.20934 0.36476,-0.56667 0.40529,-1.07198l0.10132,-1.08281c0.04053,-0.43312 0.06755,-0.8085 0.08106,-1.12612zM272.52441,186.65278v-3.24842h1.47931v4.72103h-11.28737v-4.72103h1.47931v3.24842h3.38418v-3.98473h1.58064v3.98473zM271.22747,177.53555l-0.93217,1.19109c-1.51309,-1.28493 -2.59387,-2.17283 -3.24233,-2.6637l0.89164,-1.19109c0.58092,0.44756 1.67521,1.33546 3.28286,2.6637z"/></g></g></svg>