<svg version="1.1" xmlns="http://www.w3.org/2000/svg" xmlns:xlink="http://www.w3.org/1999/xlink" width="81.9898" height="20.25855" viewBox="0,0,81.9898,20.25855"><g transform="translate(-240.21391,-169.78936)"><g fill="#ffffff" stroke="#ffffff" stroke-width="0.5" stroke-linecap="round" stroke-miterlimit="10"><path d="M255.16982,177.59112v1.50966h-8.32325c-0.44391,1.00645 -0.94331,1.943 -1.49818,2.80966h8.12349v7.67415h-1.23184v-1.15322h-7.4077v1.15322h-1.24849v-5.34675c-0.71025,0.8387 -1.51483,1.63548 -2.41374,2.39031l-0.64922,-1.44677c2.00868,-1.62149 3.62893,-3.64836 4.86078,-6.08061h-4.42796v-1.50966zM244.83235,183.39915v3.60643h7.4077v-3.60643zM252.70614,174.08952v-2.85159h1.2152v4.3403h-11.93554v-4.3403h1.19856v2.85159h4.16163v-3.66934h1.19856v3.66934z"/><path d="M265.44072,181.88948h6.50878v1.59354h-6.50878v3.27095c0,0.65699 -0.06382,1.1637 -0.19144,1.52015c-0.12761,0.35645 -0.34403,0.60457 -0.64922,0.74435c-0.30519,0.13978 -0.74632,0.20968 -1.32339,0.20968h-2.16405l-0.24969,-1.6145h1.96429c0.37731,0 0.65199,-0.03494 0.824,-0.10484c0.17201,-0.0699 0.29131,-0.19919 0.3579,-0.3879c0.06658,-0.18871 0.09987,-0.49973 0.09987,-0.93306v-2.70482h-6.80842v-1.59354h6.80842v-3.27095h-5.64317v-1.6145h5.64317v-3.50159c-2.33051,0.1957 -4.2726,0.32849 -5.82628,0.39839l-0.09987,-1.57257c1.59806,-0.05591 3.62893,-0.20269 6.09261,-0.44032c2.46368,-0.23763 4.57778,-0.48924 6.34232,-0.75484l0.19976,1.59354c-1.54257,0.23763 -3.33485,0.4543 -5.37682,0.65v3.6274h5.36017v1.6145h-5.36017z"/><path d="M288.61264,183.65076h-8.27331c-0.84342,1.17418 -1.87551,2.39031 -3.09625,3.64836l7.47428,-0.35645l-1.83111,-2.18063l0.81568,-1.02741c0.4772,0.54516 0.93498,1.07634 1.37334,1.59354c0.43835,0.5172 0.824,0.9715 1.15694,1.36289c1.19856,1.4258 1.6924,2.0059 1.48154,1.74031l-0.86561,1.19516c-0.18866,-0.25161 -0.53269,-0.69193 -1.03208,-1.32096l-10.28753,0.56613l-0.31627,-1.4887c1.30953,-1.17418 2.45813,-2.41827 3.44583,-3.73223h-4.77754v-1.4258h2.19734v-10.90316h10.28753v10.90316h2.24728zM285.1668,182.22496v-2.30643h-7.8738v2.30643zM277.293,176.33306v2.22257h7.8738v-2.22257zM277.293,175.0121h7.8738v-2.2016h-7.8738z"/><path d="M305.27578,180.33788v1.4258h-1.71459l-0.09987,3.24998h1.49818v1.44677h-1.53147l-0.01664,0.37741c-0.03329,0.64301 -0.12485,1.13924 -0.27466,1.4887c-0.14982,0.34946 -0.38288,0.59758 -0.69915,0.74435c-0.31627,0.14677 -0.75742,0.22016 -1.32339,0.22016h-2.48033l-0.24969,-1.46773h2.33051c0.55488,0 0.94052,-0.09435 1.15694,-0.28306c0.2164,-0.18871 0.33571,-0.53467 0.3579,-1.0379v-0.04193h-7.47428l0.41617,-4.69675h-1.29843v-1.4258h1.41496l0.36622,-4.17256c-0.33293,0.53118 -0.58817,0.92257 -0.76574,1.17418l-0.84897,-1.13225c0.61037,-0.85269 1.19023,-1.82418 1.73955,-2.9145c0.54934,-1.09032 0.99602,-2.14569 1.34004,-3.16611l1.11532,0.48225c-0.18866,0.54516 -0.40506,1.11128 -0.64922,1.69838h7.29116v1.4258h-7.92374c-0.35512,0.74086 -0.67695,1.35591 -0.9655,1.84515h7.74061l-0.13318,4.75965zM296.03697,185.01365h6.24243l0.03329,-0.7758c0.04439,-0.95053 0.07214,-1.77526 0.08323,-2.47418h-6.05932zM300.71463,183.8814l-0.69915,1.09032c-0.24416,-0.27957 -0.57984,-0.62903 -1.00711,-1.04838c-0.42726,-0.41935 -0.80736,-0.78279 -1.14028,-1.09032l0.63256,-1.04838c0.76574,0.69892 1.50374,1.39784 2.21399,2.09677zM302.5624,177.00402h-5.79299l-0.29963,3.33385h5.9761c0.07768,-1.91504 0.11653,-3.02633 0.11653,-3.33385zM298.16773,178.11531l0.63256,-1.06935c0.97659,0.89462 1.68684,1.57956 2.13075,2.05482l-0.66586,1.13225c-0.59928,-0.64301 -1.29843,-1.34892 -2.09746,-2.11773zM291.97522,189.47976l-1.19856,-0.46129l1.61471,-7.21286l1.13196,0.44032c-0.08879,0.39139 -0.56598,2.60697 -1.4316,6.64673zM293.95615,178.49272l-0.71579,1.32096c-1.35393,-1.48171 -2.25282,-2.43225 -2.69674,-2.85159l0.71579,-1.21612zM294.42225,173.48147l-0.6825,1.23709c-0.81013,-0.8387 -1.7035,-1.72633 -2.68009,-2.66289l0.71579,-1.19516c0.62146,0.58709 1.50374,1.46074 2.6468,2.62095z"/><path d="M320.94012,183.92334l0.99879,0.39839c-0.06658,0.78279 -0.16091,1.63548 -0.28299,2.55805c-0.12207,0.97849 -0.30241,1.64596 -0.54102,2.00241c-0.23861,0.35645 -0.55211,0.53467 -0.94052,0.53467c-0.71025,0 -1.28178,-0.69193 -1.71459,-2.07579c-0.13318,-0.43333 -0.24416,-0.85269 -0.33293,-1.25806c-0.73245,1.21612 -1.5925,2.35536 -2.5802,3.41772l-0.83232,-1.23709c1.29843,-1.39784 2.31387,-2.73977 3.04631,-4.02579c-0.38842,-2.50213 -0.63256,-5.52846 -0.73245,-9.07898h-5.14377v-1.44677h5.11048c-0.03329,-1.25806 -0.04994,-2.34139 -0.04994,-3.24998l1.14862,-0.02097c0.01109,0.30753 0.02775,1.39784 0.04994,3.27095h1.51483c-0.19976,-0.86666 -0.4217,-1.6844 -0.66586,-2.45321l0.9655,-0.41935c0.31073,1.07634 0.57707,2.03386 0.79904,2.87257h1.09866v1.44677h-3.69553c0.04439,2.79568 0.19976,5.25589 0.4661,7.38061c0.62146,-1.41182 1.22074,-3.30589 1.79782,-5.68222l1.03208,0.44032c-0.63256,2.79568 -1.47044,5.22792 -2.51361,7.29673c0.11097,0.62903 0.26634,1.26504 0.4661,1.90805c0.14427,0.43333 0.27466,0.72687 0.3912,0.88064c0.11653,0.15376 0.24137,0.23064 0.37454,0.23064c0.14427,0 0.25525,-0.11533 0.33293,-0.34597c0.07768,-0.23064 0.15537,-0.66048 0.23305,-1.28951zM311.75126,183.62979l0.18311,1.57257c-0.61037,0.20968 -1.45935,0.51371 -2.54691,0.9121c-1.08757,0.39839 -1.78672,0.67445 -2.09746,0.82822l-0.26634,-1.59354l1.98094,-0.69193v-7.40157h-1.68129v-1.50966h1.68129v-5.09513h1.16526v5.09513h1.49818v1.50966h-1.49818v6.98222zM316.04606,183.25237h-3.7954v-5.91287h3.7954zM313.24945,178.7024v3.18708h1.78118v-3.18708zM316.17924,184.61527l0.18311,1.50966c-0.62146,0.18172 -1.53979,0.4578 -2.75499,0.82822c-1.2152,0.37043 -1.95596,0.60457 -2.22231,0.70242l-0.26634,-1.53064c0.65476,-0.18172 1.5925,-0.45081 2.81325,-0.80726c1.22074,-0.35645 1.96984,-0.59059 2.24728,-0.70242z"/></g></g></svg>