<svg version="1.1" xmlns="http://www.w3.org/2000/svg" xmlns:xlink="http://www.w3.org/1999/xlink" width="177.04403" height="38.441" viewBox="0,0,177.04403,38.441"><g transform="translate(-240,-180)"><g stroke="none" stroke-miterlimit="10"><path d="M248.42565,180h160.19272c4.66781,0 8.42565,3.568 8.42565,8v22.441c0,4.432 -3.75784,8 -8.42565,8h-160.19272c-4.66781,0 -8.42565,-3.568 -8.42565,-8v-22.441c0,-4.432 3.75784,-8 8.42565,-8z" fill-opacity="0.7" fill="#000000" fill-rule="evenodd" stroke-width="0"/><path d="M252.7828,185.57541h0.77168v5.37121h-0.77168v-5.37121M250.4754,188.66978l4.00358,-1.69617l0.30562,0.70292l-4.00358,1.7191l-0.30562,-0.72584M251.25471,186.30888h0.77932v4.99683c0,0.14262 0.01273,0.2506 0.0382,0.32396c0.02547,0.07437 0.07896,0.12429 0.16045,0.14975c0.08149,0.02547 0.2012,0.0382 0.3591,0.0382c0.04584,0 0.12123,0 0.22616,0c0.10391,0 0.22209,0 0.35451,0c0.13243,0 0.2664,0 0.40189,0c0.13447,0 0.25621,0 0.36521,0c0.11002,0 0.1905,0 0.24144,0c0.14262,0 0.24959,-0.027 0.3209,-0.08099c0.07131,-0.05298 0.12479,-0.15077 0.16045,-0.2934c0.03566,-0.14262 0.06113,-0.34891 0.07641,-0.61887c0.09169,0.06621 0.20731,0.12734 0.34688,0.18337c0.14058,0.05603 0.26691,0.09424 0.37896,0.11461c-0.03566,0.36165 -0.09424,0.64536 -0.17573,0.85114c-0.08149,0.20681 -0.20374,0.35451 -0.36674,0.44315c-0.163,0.08965 -0.38966,0.13447 -0.68,0.13447c-0.05093,0 -0.13345,0 -0.24755,0c-0.11512,0 -0.24653,0 -0.39424,0c-0.14772,0 -0.29441,0 -0.44009,0c-0.14466,0 -0.27404,0 -0.38813,0c-0.11512,0 -0.1956,0 -0.24144,0c-0.326,0 -0.58322,-0.03566 -0.77168,-0.10697c-0.18846,-0.07131 -0.31937,-0.19763 -0.39272,-0.37896c-0.07437,-0.18032 -0.11155,-0.43602 -0.11155,-0.7671v-4.9892M254.32617,187.06528h-0.06113l0.1528,-0.11461l0.1528,-0.09932l0.56539,0.20629l-0.03056,0.13753c0,0.36165 -0.00102,0.69375 -0.00306,0.99631c-0.00306,0.30358 -0.0056,0.57252 -0.00764,0.80683c-0.00306,0.23431 -0.00815,0.43041 -0.01528,0.58832c-0.00815,0.1579 -0.01732,0.27505 -0.0275,0.35146c-0.01528,0.17318 -0.05603,0.30664 -0.12225,0.40036c-0.06621,0.09474 -0.16045,0.16249 -0.2827,0.20323c-0.10697,0.04584 -0.23328,0.07233 -0.37896,0.07946c-0.14466,0.00815 -0.27557,0.01222 -0.39272,0.01222c-0.01018,-0.10187 -0.03209,-0.22055 -0.06571,-0.35605c-0.0326,-0.13447 -0.06927,-0.245 -0.11002,-0.33159c0.07131,0.0051 0.14772,0.00764 0.22921,0.00764c0.08149,0 0.14007,0 0.17573,0c0.05093,0 0.09169,-0.01172 0.12225,-0.03515c0.03056,-0.02242 0.05093,-0.06927 0.06113,-0.14058c0.01018,-0.04075 0.01783,-0.12887 0.02292,-0.26436c0.0051,-0.13447 0.00866,-0.31376 0.0107,-0.53789c0.00306,-0.22412 0.00459,-0.49561 0.00459,-0.81447c0,-0.31784 0,-0.68306 0,-1.09563M248.29788,187.3709h2.49842v0.77168h-2.49842v-0.77168M249.21473,185.67473h0.77168v5.03504h-0.77168v-5.03504M248.20619,190.77089c0.20884,-0.07641 0.45231,-0.16962 0.73042,-0.27964c0.27709,-0.10901 0.56998,-0.2287 0.87865,-0.3591c0.30765,-0.12937 0.61683,-0.25774 0.92755,-0.38507l0.18337,0.72584c-0.40749,0.19865 -0.82109,0.39577 -1.2408,0.59137c-0.42073,0.19661 -0.80428,0.37387 -1.15065,0.53178zM256.6565,185.80462h5.63863v0.59595h-5.63863v-0.59595M256.99267,188.8837h5.67683v0.56539h-5.67683v-0.56539M257.68795,189.69359h4.56133v0.49663h-4.56133v-0.49663M256.97738,190.44999h5.98244v0.55011h-5.98244v-0.55011M257.1684,187.47787h1.61213v0.42787h-1.61213v-0.42787M257.00031,188.18078h1.78786v0.42022h-1.78786v-0.42022M260.14816,188.18078h1.81077v0.42022h-1.81077v-0.42022M260.14816,187.47787h1.62741v0.42787h-1.62741v-0.42787M259.05559,186.05676h0.80988v2.67415h-0.80988v-2.67415M256.1675,186.70619h6.63189v1.33707h-0.7946v-0.84809h-5.08087v0.84809h-0.7564v-1.33707M256.62593,188.8837h0.76404v1.05437c0,0.21393 -0.01273,0.44416 -0.0382,0.69069c-0.02547,0.24755 -0.07283,0.49867 -0.14211,0.75334c-0.06826,0.25468 -0.16503,0.50019 -0.29034,0.73654c-0.12429,0.23736 -0.28575,0.45282 -0.4844,0.64638c-0.04075,-0.05093 -0.09678,-0.11104 -0.16808,-0.18032c-0.07131,-0.06826 -0.14669,-0.13447 -0.22616,-0.19865c-0.07844,-0.06316 -0.14823,-0.11002 -0.20934,-0.14058c0.2394,-0.22921 0.41512,-0.4788 0.52719,-0.74876c0.11206,-0.26996 0.18439,-0.54145 0.21699,-0.81447c0.03361,-0.27199 0.05043,-0.52515 0.05043,-0.75946v-1.03909M260.14052,190.74032c0.1528,0.24959 0.36929,0.4569 0.64943,0.62193c0.28015,0.16605 0.6148,0.29593 1.00395,0.38966c0.39017,0.09474 0.82465,0.15739 1.30346,0.18795c-0.07131,0.07131 -0.14517,0.16808 -0.22157,0.29034c-0.07641,0.12225 -0.13753,0.23431 -0.18337,0.33618c-0.52464,-0.05603 -0.99172,-0.1528 -1.40125,-0.29034c-0.41055,-0.13753 -0.76354,-0.32242 -1.05896,-0.55469c-0.29543,-0.23125 -0.53992,-0.51496 -0.73348,-0.85114l0.6418,-0.12989M261.92074,190.93898l0.60359,0.30562c-0.18337,0.12225 -0.37693,0.23532 -0.58067,0.33923c-0.20374,0.10493 -0.38966,0.1956 -0.55775,0.27199l-0.49663,-0.27505c0.11206,-0.06113 0.23023,-0.12887 0.35451,-0.20323c0.1253,-0.07335 0.24755,-0.14975 0.36674,-0.22921c0.12021,-0.07844 0.22361,-0.14823 0.3102,-0.20934M257.74907,192.71156l-0.0382,-0.53483l0.3209,-0.22157l2.10876,-0.29797c-0.02038,0.09169 -0.0382,0.19712 -0.05348,0.31631c-0.01528,0.12021 -0.02292,0.21851 -0.02292,0.29492c-0.46861,0.07641 -0.84707,0.13855 -1.13537,0.18643c-0.28728,0.04889 -0.50987,0.08863 -0.66777,0.11919c-0.1579,0.03056 -0.27251,0.05603 -0.34382,0.07641c-0.07131,0.02038 -0.12734,0.04075 -0.16808,0.06113M257.74907,192.71156c-0.02038,-0.06113 -0.05093,-0.13141 -0.09169,-0.21088c-0.04075,-0.07844 -0.08558,-0.15739 -0.13447,-0.23686c-0.04788,-0.07844 -0.09219,-0.14313 -0.13295,-0.19406c0.08659,-0.04584 0.17929,-0.12378 0.27811,-0.2338c0.09984,-0.10901 0.14975,-0.2501 0.14975,-0.42328v-0.73348l0.7946,0.01528v1.24538c0,0 -0.02904,0.01783 -0.0871,0.05348c-0.05909,0.03566 -0.1304,0.08404 -0.21393,0.14517c-0.08455,0.06113 -0.17012,0.12479 -0.25672,0.19101c-0.08659,0.06621 -0.15943,0.13345 -0.21851,0.20171c-0.05807,0.06927 -0.0871,0.12937 -0.0871,0.18032zM266.22994,187.92101h3.81257v0.64943h-3.81257v-0.64943M266.22994,189.02887h3.81257v0.64943h-3.81257v-0.64943M266.6196,191.78706h3.03324v0.65708h-3.03324v-0.65708M265.68746,186.79023h4.92807v0.66471h-4.92807v-0.66471M266.12297,190.1673h4.01122v2.50606h-0.72584v-1.84898h-2.5901v1.8719h-0.69528v-2.52898M267.42948,185.82753l0.69528,-0.26742c0.10697,0.1579 0.21292,0.33108 0.31784,0.51955c0.10391,0.18846 0.18388,0.35401 0.23991,0.49663l-0.7182,0.31325c-0.05093,-0.14262 -0.12836,-0.31325 -0.23227,-0.51191c-0.10493,-0.19865 -0.20578,-0.38202 -0.30256,-0.55011M265.145,185.60597l0.72584,0.22157c-0.14772,0.42787 -0.32345,0.85573 -0.52719,1.28359c-0.20374,0.42787 -0.42684,0.83026 -0.6693,1.20719c-0.24144,0.37693 -0.4895,0.71311 -0.74418,1.00854c-0.02547,-0.06621 -0.06265,-0.14924 -0.11155,-0.24908c-0.04788,-0.09881 -0.10085,-0.19916 -0.15892,-0.30103c-0.05909,-0.10187 -0.11155,-0.18591 -0.15739,-0.25214c0.21903,-0.23431 0.43041,-0.50936 0.63415,-0.82516c0.20374,-0.3158 0.39221,-0.65198 0.56539,-1.00854c0.17318,-0.35655 0.3209,-0.7182 0.44315,-1.08494M264.53377,187.6918l0.74876,-0.74876v0.00764v5.7838h-0.74876zM273.14451,187.90573v0.42787h3.17841v-0.42787h-3.17841M273.14451,188.92955v0.42787h3.17841v-0.42787h-3.17841M273.14451,186.88955v0.42787h3.17841v-0.42787h-3.17841M272.35755,186.26304h4.79054v3.72852h-4.79054v-3.72852M274.3517,185.499l0.98561,0.12989c-0.08149,0.17318 -0.16808,0.33873 -0.25977,0.49663c-0.09169,0.1579 -0.17318,0.29543 -0.24449,0.41259l-0.74876,-0.1528c0.05093,-0.13753 0.10187,-0.28779 0.1528,-0.45078c0.05093,-0.163 0.08914,-0.30817 0.11461,-0.4355M272.89237,190.47291h0.82516v1.10022c0,0.11206 0.03311,0.18337 0.09932,0.21393c0.06621,0.03056 0.21393,0.04584 0.44315,0.04584c0.04075,0 0.10595,0 0.1956,0c0.08863,0 0.19152,0 0.30868,0c0.11715,0 0.23431,0 0.35146,0c0.11715,0 0.22412,0 0.3209,0c0.09678,0 0.17318,0 0.22921,0c0.12734,0 0.2231,-0.01935 0.28728,-0.05807c0.06316,-0.0377 0.10747,-0.11767 0.13295,-0.23991c0.02547,-0.12225 0.04584,-0.30562 0.06113,-0.55011c0.06113,0.04584 0.13651,0.08761 0.22616,0.1253c0.08863,0.03871 0.18032,0.07335 0.27505,0.10391c0.09373,0.03056 0.17878,0.05348 0.25519,0.06876c-0.03566,0.34636 -0.0927,0.61378 -0.17115,0.80225c-0.07946,0.18846 -0.19661,0.31682 -0.35146,0.38507c-0.15586,0.06927 -0.37387,0.10391 -0.65402,0.10391c-0.04584,0 -0.12072,0 -0.22462,0c-0.10493,0 -0.22209,0 -0.35146,0c-0.1304,0 -0.26181,0 -0.39424,0c-0.13243,0 -0.2506,0 -0.35451,0c-0.10493,0 -0.17777,0 -0.21851,0c-0.34128,0 -0.60614,-0.02954 -0.7946,-0.08863c-0.18846,-0.05807 -0.31835,-0.15994 -0.38966,-0.30562c-0.07131,-0.14466 -0.10697,-0.34178 -0.10697,-0.59137v-1.1155M274.11484,190.22841l0.62652,-0.35146c0.12734,0.11206 0.25621,0.23686 0.38661,0.37438c0.12937,0.13753 0.24653,0.27505 0.35146,0.41259c0.10391,0.13753 0.18643,0.26487 0.24755,0.38202l-0.66471,0.39731c-0.05603,-0.11715 -0.13498,-0.24704 -0.23686,-0.38966c-0.10187,-0.14262 -0.21495,-0.28677 -0.33923,-0.43244c-0.1253,-0.14466 -0.24908,-0.27557 -0.37133,-0.39272M276.6591,190.54931l0.73348,-0.30562c0.11206,0.163 0.22565,0.34128 0.34077,0.53483c0.11409,0.19356 0.21699,0.38202 0.30868,0.56539c0.09169,0.18337 0.1579,0.35146 0.19865,0.50426l-0.77932,0.34382c-0.03566,-0.1528 -0.09525,-0.32345 -0.17878,-0.51191c-0.08455,-0.18846 -0.18133,-0.38202 -0.29034,-0.58067c-0.11002,-0.19865 -0.22106,-0.38202 -0.33312,-0.55011M271.95261,190.38123l0.72584,0.30562c-0.06621,0.16808 -0.13753,0.35247 -0.21393,0.55317c-0.07641,0.20171 -0.15638,0.39679 -0.23991,0.58526c-0.08455,0.18846 -0.17012,0.3591 -0.25672,0.51191l-0.76404,-0.3591c0.09678,-0.14262 0.19101,-0.30562 0.2827,-0.48898c0.09169,-0.18337 0.17828,-0.37082 0.25977,-0.56234c0.08149,-0.1905 0.15027,-0.37234 0.20629,-0.54552zM280.49459,188.42528c-0.18846,0 -0.34994,-0.06367 -0.4844,-0.19101c-0.13549,-0.12734 -0.20323,-0.28779 -0.20323,-0.48135c0,-0.19865 0.06775,-0.36317 0.20323,-0.49357c0.13447,-0.12937 0.29593,-0.19406 0.4844,-0.19406c0.18846,0 0.35044,0.06469 0.48593,0.19406c0.13447,0.1304 0.20171,0.29492 0.20171,0.49357c0,0.19356 -0.06724,0.35401 -0.20171,0.48135c-0.13549,0.12734 -0.29747,0.19101 -0.48593,0.19101M280.49459,192.10032c-0.18846,0 -0.34994,-0.06367 -0.4844,-0.19101c-0.13549,-0.12734 -0.20323,-0.28779 -0.20323,-0.48135c0,-0.20374 0.06775,-0.36929 0.20323,-0.49663c0.13447,-0.12734 0.29593,-0.19101 0.4844,-0.19101c0.18846,0 0.35044,0.06367 0.48593,0.19101c0.13447,0.12734 0.20171,0.29288 0.20171,0.49663c0,0.19356 -0.06724,0.35401 -0.20171,0.48135c-0.13549,0.12734 -0.29747,0.19101 -0.48593,0.19101zM288.99838,186.7291l0.70292,-0.38202c0.14772,0.17828 0.29543,0.37285 0.44315,0.58373c0.14772,0.21189 0.2827,0.41818 0.40494,0.61887c0.12225,0.20171 0.22157,0.38406 0.29797,0.54706l-0.74112,0.45078c-0.06621,-0.163 -0.15892,-0.35146 -0.27811,-0.56539c-0.12021,-0.21393 -0.25264,-0.43041 -0.39731,-0.64943c-0.14568,-0.21903 -0.28982,-0.42022 -0.43244,-0.60359M291.09185,190.47291l0.65708,-0.46607c0.22412,0.21393 0.45996,0.44671 0.70751,0.69834c0.24653,0.25264 0.48084,0.50478 0.70292,0.7564c0.22106,0.25264 0.39781,0.47829 0.53024,0.67694l-0.72584,0.54247c-0.12225,-0.19865 -0.28779,-0.42787 -0.49663,-0.68764c-0.20884,-0.25977 -0.43398,-0.52209 -0.67541,-0.78696c-0.24245,-0.26487 -0.47574,-0.50936 -0.69986,-0.73348M291.93229,185.89631l0.87865,0.0382c-0.05093,0.89647 -0.136,1.70127 -0.25519,2.41437c-0.12021,0.71311 -0.30002,1.34573 -0.53941,1.89788c-0.2394,0.55317 -0.56029,1.03452 -0.96269,1.44404c-0.40239,0.41055 -0.90667,0.76099 -1.5128,1.05132c-0.03566,-0.05603 -0.09169,-0.12989 -0.16808,-0.22157c-0.07641,-0.09169 -0.15689,-0.18235 -0.24144,-0.27199c-0.08353,-0.08863 -0.15586,-0.16096 -0.21699,-0.21699c0.58577,-0.2394 1.06864,-0.53992 1.44863,-0.90157c0.37896,-0.36165 0.67694,-0.79359 0.89392,-1.29581c0.21597,-0.50121 0.37489,-1.07781 0.47676,-1.72979c0.10187,-0.65198 0.16808,-1.388 0.19865,-2.20808M287.27164,192.0392l-0.16808,-0.84044l0.2827,-0.29034l2.40673,-1.19191c0.02038,0.11715 0.05348,0.25315 0.09932,0.408c0.04584,0.15586 0.08404,0.27964 0.11461,0.37133c-0.43805,0.22412 -0.80733,0.41512 -1.10786,0.57304c-0.30052,0.1579 -0.54756,0.29136 -0.74112,0.40036c-0.19356,0.11002 -0.34739,0.19916 -0.46148,0.26742c-0.11512,0.06927 -0.20426,0.12785 -0.26742,0.17573c-0.06418,0.04889 -0.11664,0.09118 -0.15739,0.12683M287.27164,192.0392c-0.02547,-0.06113 -0.06469,-0.13396 -0.11767,-0.21851c-0.05399,-0.08353 -0.11155,-0.16605 -0.17267,-0.24755c-0.06113,-0.08149 -0.11461,-0.14517 -0.16045,-0.19101c0.06621,-0.04584 0.14007,-0.10849 0.22157,-0.18795c0.08149,-0.07844 0.15434,-0.17267 0.21851,-0.2827c0.06316,-0.10901 0.09474,-0.22717 0.09474,-0.35451v-4.43909h0.89392v4.94335c0,0 -0.03311,0.02292 -0.09932,0.06876c-0.06621,0.04584 -0.14772,0.10697 -0.24449,0.18337c-0.09678,0.07641 -0.19356,0.1579 -0.29034,0.24449c-0.09678,0.08659 -0.17828,0.17318 -0.24449,0.25977c-0.06621,0.08659 -0.09932,0.16045 -0.09932,0.22157zM294.43836,185.88102h6.502v6.83053h-0.82516v-6.08941h-4.88987v6.08941h-0.78696v-6.83053M294.9197,191.70302h5.64627v0.7182h-5.64627v-0.7182M296.6388,189.97629l0.32853,-0.46607c0.21393,0.04075 0.43703,0.0927 0.6693,0.15586c0.23125,0.06418 0.45385,0.13192 0.66777,0.20323c0.21393,0.07131 0.39731,0.14262 0.55011,0.21393l-0.33618,0.51191c-0.14772,-0.07131 -0.32853,-0.14669 -0.54247,-0.22616c-0.21393,-0.07844 -0.43805,-0.1523 -0.67236,-0.22157c-0.23431,-0.06826 -0.45588,-0.1253 -0.66471,-0.17115M296.99025,186.64506l0.66471,0.22921c-0.14262,0.22412 -0.31325,0.44569 -0.51191,0.66471c-0.19865,0.21903 -0.40596,0.42277 -0.62193,0.61123c-0.21699,0.18846 -0.43244,0.35401 -0.64638,0.49663c-0.03566,-0.04584 -0.08761,-0.09932 -0.15586,-0.16045c-0.06927,-0.06113 -0.13855,-0.12225 -0.20782,-0.18337c-0.06826,-0.06113 -0.1304,-0.10951 -0.18643,-0.14517c0.3209,-0.18337 0.63161,-0.40901 0.93213,-0.67694c0.30052,-0.26691 0.54501,-0.54552 0.73348,-0.83586M299.01496,187.24866h0.13753l0.11461,-0.03056l0.45842,0.27505c-0.19865,0.31071 -0.45181,0.59698 -0.75946,0.85879c-0.30868,0.26283 -0.64893,0.49714 -1.02076,0.70292c-0.37183,0.20681 -0.75895,0.38507 -1.16134,0.53483c-0.40239,0.15077 -0.80479,0.27454 -1.20719,0.37133c-0.02547,-0.06113 -0.05858,-0.13498 -0.09932,-0.22157c-0.04075,-0.08659 -0.08507,-0.16962 -0.13295,-0.24908c-0.04889,-0.07844 -0.09627,-0.14313 -0.14211,-0.19406c0.37693,-0.07131 0.75895,-0.16808 1.14606,-0.29034c0.38711,-0.12225 0.75385,-0.26742 1.10022,-0.4355c0.34636,-0.16808 0.65554,-0.35401 0.92755,-0.55775c0.27302,-0.20374 0.48593,-0.42277 0.63874,-0.65708v-0.10697M296.78397,187.75292c0.22412,0.2394 0.51446,0.4569 0.87101,0.65249c0.35655,0.19661 0.74978,0.36878 1.17968,0.5165c0.43092,0.14772 0.87049,0.25977 1.31873,0.33618c-0.07641,0.07131 -0.15892,0.16656 -0.24755,0.28575c-0.08965,0.12021 -0.15994,0.2287 -0.21088,0.32548c-0.45333,-0.10187 -0.89902,-0.24093 -1.33707,-0.41716c-0.43805,-0.17522 -0.84402,-0.38406 -1.21788,-0.62652c-0.37489,-0.24144 -0.69223,-0.50987 -0.952,-0.8053l0.59595,-0.26742M296.9597,187.24866h2.28449v0.61123h-2.71234l0.42787,-0.61123M295.9206,190.95426l0.36674,-0.53483c0.25977,0.02547 0.53126,0.06214 0.81447,0.11002c0.28219,0.04889 0.56335,0.10238 0.8435,0.16045c0.28015,0.05909 0.54501,0.12174 0.7946,0.18795c0.24959,0.06621 0.47116,0.13243 0.66471,0.19865l-0.3591,0.58067c-0.24959,-0.09169 -0.55113,-0.18337 -0.90463,-0.27505c-0.35451,-0.09169 -0.72533,-0.17573 -1.11245,-0.25214c-0.38711,-0.07641 -0.7564,-0.13498 -1.10786,-0.17573zM305.07381,186.07967h3.36179v0.76404h-3.36179v-0.76404M304.73,187.90573h4.11819v0.76404h-4.11819v-0.76404M306.26572,188.28775h0.83281v3.43818c0,0.20884 -0.02139,0.3754 -0.06418,0.49968c-0.04381,0.1253 -0.13447,0.22361 -0.27199,0.29492c-0.13243,0.06621 -0.2939,0.10798 -0.4844,0.1253c-0.19152,0.01834 -0.41716,0.0275 -0.67694,0.0275c-0.01018,-0.12225 -0.0382,-0.26385 -0.08404,-0.42481c-0.04584,-0.15994 -0.09678,-0.30103 -0.1528,-0.42328c0.16808,0.0051 0.32497,0.00866 0.47065,0.0107c0.14466,0.00306 0.24245,0.00459 0.2934,0.00459c0.05093,-0.0051 0.08659,-0.01528 0.10697,-0.03056c0.02038,-0.01528 0.03056,-0.04839 0.03056,-0.09932v-3.4229M307.42706,189.61719l0.68,-0.22921c0.11715,0.25468 0.23075,0.52566 0.34077,0.81294c0.10901,0.2883 0.20578,0.56845 0.29034,0.84044c0.08353,0.27302 0.14058,0.51395 0.17115,0.72278l-0.74112,0.27505c-0.03056,-0.21393 -0.08252,-0.45842 -0.15586,-0.73348c-0.07437,-0.27505 -0.16249,-0.56029 -0.26436,-0.85573c-0.10187,-0.29543 -0.20884,-0.57304 -0.3209,-0.83281M305.11202,189.41853l0.74112,0.16808c-0.07641,0.29543 -0.16808,0.59086 -0.27505,0.88629c-0.10697,0.29543 -0.22259,0.57405 -0.34688,0.83586c-0.1253,0.26283 -0.25417,0.49357 -0.38661,0.69223c-0.04584,-0.04075 -0.10798,-0.08812 -0.18643,-0.14211c-0.07946,-0.05298 -0.15994,-0.10493 -0.24144,-0.15586c-0.08149,-0.05093 -0.1528,-0.09169 -0.21393,-0.12225c0.19865,-0.26996 0.37693,-0.5985 0.53483,-0.98561c0.1579,-0.38711 0.2827,-0.77932 0.37438,-1.17662M301.79608,187.11113h2.8346v0.76404h-2.8346v-0.76404M302.88866,185.57541h0.81753v7.12851h-0.81753v-7.12851M302.78933,187.62304l0.50426,0.16045c-0.05603,0.29034 -0.12479,0.59188 -0.20629,0.90463c-0.08149,0.31376 -0.17573,0.62193 -0.2827,0.92449c-0.10697,0.30358 -0.22259,0.58627 -0.34688,0.84809c-0.1253,0.26283 -0.25417,0.48848 -0.38661,0.67694c-0.02547,-0.07641 -0.06214,-0.163 -0.11002,-0.25977c-0.04889,-0.09678 -0.10136,-0.19356 -0.15739,-0.29034c-0.05603,-0.09678 -0.10951,-0.17828 -0.16045,-0.24449c0.16808,-0.20884 0.32701,-0.46607 0.47676,-0.77168c0.15077,-0.30562 0.28371,-0.63059 0.39883,-0.97492c0.11409,-0.34331 0.20426,-0.66777 0.27047,-0.97339M303.66798,188.00505c0.04584,0.05093 0.11868,0.13498 0.21851,0.25214c0.09881,0.11715 0.20578,0.24704 0.3209,0.38966c0.11409,0.14262 0.21851,0.27251 0.31325,0.38966c0.09373,0.11715 0.16096,0.2012 0.20171,0.25214l-0.45078,0.64943c-0.04584,-0.10187 -0.11206,-0.22412 -0.19865,-0.36674c-0.08659,-0.14262 -0.17828,-0.29186 -0.27505,-0.44772c-0.09678,-0.15485 -0.18949,-0.29848 -0.27811,-0.43092c-0.08965,-0.13243 -0.16503,-0.2394 -0.22616,-0.3209zM311.19379,187.76056v0.58832h3.52224v-0.58832h-3.52224M311.19379,186.56866v0.58832h3.52224v-0.58832h-3.52224M310.39154,185.9345h5.16493v3.05617h-5.16493v-3.05617M309.3983,191.58077h7.13615v0.77932h-7.13615v-0.77932M311.69042,189.25045h0.77932v2.75819h-0.77932v-2.75819M313.4248,189.25045h0.77932v2.75819h-0.77932v-2.75819M315.31961,189.41853l0.69528,0.31325c-0.14772,0.26487 -0.31173,0.53228 -0.49204,0.80225c-0.18133,0.26996 -0.35095,0.50172 -0.50885,0.69528l-0.62652,-0.29034c0.10697,-0.13753 0.218,-0.29288 0.33312,-0.46607c0.11409,-0.17318 0.22616,-0.35146 0.33618,-0.53483c0.10901,-0.18337 0.19661,-0.35655 0.26283,-0.51955M309.97897,189.74708l0.63415,-0.27505c0.09169,0.1579 0.18846,0.32701 0.29034,0.50732c0.10187,0.18133 0.19763,0.35605 0.28728,0.52413c0.08863,0.16808 0.15841,0.3158 0.20934,0.44315l-0.66471,0.3209c-0.05093,-0.13243 -0.11817,-0.28677 -0.20171,-0.46301c-0.08455,-0.17522 -0.17369,-0.35605 -0.26742,-0.54247c-0.09474,-0.1854 -0.1905,-0.35706 -0.28728,-0.51496zM320.17892,188.38708h0.90157v3.33886c0,0.23431 -0.03158,0.41615 -0.09474,0.54552c-0.06418,0.1304 -0.18032,0.2287 -0.3484,0.29492c-0.16808,0.06113 -0.37438,0.10035 -0.61887,0.11767c-0.24449,0.01834 -0.53483,0.0275 -0.87101,0.0275c-0.02038,-0.12734 -0.05858,-0.27404 -0.11461,-0.44009c-0.05603,-0.16503 -0.11461,-0.30868 -0.17573,-0.43092c0.1528,0.0051 0.30714,0.01018 0.46301,0.01528c0.15485,0.0051 0.2934,0.00611 0.41564,0.00306c0.12225,-0.00204 0.20629,-0.00306 0.25214,-0.00306c0.07131,0 0.12123,-0.01018 0.14975,-0.03056c0.0275,-0.02038 0.04126,-0.05858 0.04126,-0.11461v-3.32358M318.37578,189.36505l0.85573,0.22157c-0.11206,0.30562 -0.24959,0.60716 -0.41259,0.90463c-0.163,0.29848 -0.33618,0.57761 -0.51955,0.83739c-0.18337,0.25977 -0.36929,0.48644 -0.55775,0.68c-0.05603,-0.05093 -0.13141,-0.10697 -0.22616,-0.16808c-0.09373,-0.06113 -0.18745,-0.12225 -0.28116,-0.18337c-0.09474,-0.06113 -0.17777,-0.10697 -0.24908,-0.13753c0.28524,-0.25977 0.55113,-0.58322 0.79766,-0.97033c0.24755,-0.38711 0.44519,-0.78187 0.59289,-1.18427M321.94386,189.66302l0.76404,-0.3209c0.17828,0.2394 0.35299,0.49663 0.52413,0.77168c0.17012,0.27505 0.32548,0.54604 0.46607,0.81294c0.13957,0.26792 0.245,0.5114 0.31631,0.73042l-0.84809,0.36674c-0.05603,-0.20884 -0.14873,-0.44976 -0.27811,-0.72278c-0.1304,-0.27199 -0.27862,-0.55215 -0.44467,-0.84044c-0.16503,-0.28728 -0.33159,-0.55317 -0.49968,-0.79766M317.90208,186.08731h5.40942v0.81753h-5.40942v-0.81753M317.21444,187.93629h6.79997v0.81753h-6.79997z" fill="#ffffff" fill-rule="nonzero" stroke-width="1"/><path d="M251.74371,200.30765l0.38966,-0.60359c0.33108,0.10187 0.66471,0.21903 1.00089,0.35146c0.33618,0.13243 0.65198,0.26996 0.94741,0.41259c0.29543,0.14262 0.54501,0.28015 0.74876,0.41259l-0.48898,0.64943c-0.19865,-0.14262 -0.43653,-0.28677 -0.71362,-0.43244c-0.27811,-0.14466 -0.57915,-0.28575 -0.90309,-0.42328c-0.32294,-0.13753 -0.64994,-0.25977 -0.98103,-0.36674M250.84977,194.60026l0.82516,-0.25214c0.10187,0.1579 0.20374,0.33363 0.30562,0.52719c0.10187,0.19356 0.17573,0.36419 0.22157,0.51191l-0.87101,0.27505c-0.03566,-0.13753 -0.10035,-0.30714 -0.19406,-0.50885c-0.09474,-0.20068 -0.1905,-0.38507 -0.28728,-0.55317M248.29788,195.19622h6.42559v1.69617h-0.85573v-0.93213h-4.75999v0.93213h-0.80988v-1.69617M251.41516,196.29643h0.86337c-0.02038,0.55011 -0.05348,1.06049 -0.09932,1.53114c-0.04584,0.47166 -0.13243,0.90106 -0.25977,1.28818c-0.12734,0.38711 -0.3158,0.73602 -0.56539,1.04674c-0.24959,0.31071 -0.58678,0.58067 -1.01159,0.80988c-0.42582,0.22921 -0.96218,0.42277 -1.60908,0.58067c-0.04075,-0.10697 -0.10697,-0.23075 -0.19865,-0.37133c-0.09169,-0.13957 -0.18083,-0.25264 -0.26742,-0.33923c0.60614,-0.13243 1.10022,-0.29441 1.48224,-0.48593c0.38202,-0.1905 0.68407,-0.41716 0.90615,-0.68c0.22106,-0.26181 0.38253,-0.55979 0.4844,-0.89392c0.10187,-0.33312 0.16962,-0.70597 0.20323,-1.11856c0.0326,-0.41259 0.05654,-0.86846 0.07182,-1.36764M248.20619,198.84834h6.63189v0.68764h-6.63189v-0.68764M249.46686,196.70902l0.48135,-0.52719c0.13753,0.06621 0.2776,0.14517 0.42022,0.23686c0.14262,0.09169 0.27913,0.18694 0.40953,0.28575c0.12937,0.09984 0.23227,0.19305 0.30868,0.27964l-0.51191,0.58832c-0.07131,-0.08659 -0.16808,-0.18083 -0.29034,-0.2827c-0.12225,-0.10187 -0.25468,-0.20527 -0.39731,-0.3102c-0.14262,-0.10391 -0.2827,-0.19406 -0.42022,-0.27047M248.69517,197.87036l0.46607,-0.55011c0.14262,0.06621 0.28779,0.14364 0.4355,0.23227c0.14772,0.08965 0.28779,0.18133 0.42022,0.27505c0.13243,0.09474 0.2394,0.1854 0.3209,0.27199l-0.48898,0.61887c-0.08149,-0.09169 -0.18591,-0.18846 -0.31325,-0.29034c-0.12734,-0.10187 -0.26487,-0.2012 -0.41259,-0.29797c-0.14772,-0.09678 -0.29034,-0.18337 -0.42787,-0.25977zM256.24391,195.04341h2.17752v5.1038h-2.17752v-0.73348h1.41348v-3.63684h-1.41348v-0.73348M256.28975,197.20565h1.59685v0.7182h-1.59685v-0.7182M255.85425,195.04341h0.77168v5.72267h-0.77168v-5.72267M258.72704,195.87621h3.9883v0.81753h-3.9883v-0.81753M261.06501,194.47801h0.83281v5.96716c0,0.25468 -0.03311,0.44671 -0.09932,0.57609c-0.06621,0.1304 -0.18083,0.2287 -0.34382,0.29492c-0.1579,0.06621 -0.3703,0.10798 -0.63721,0.1253c-0.26792,0.01834 -0.59289,0.02495 -0.97492,0.01987c-0.01528,-0.11715 -0.05247,-0.25621 -0.11155,-0.41716c-0.05807,-0.15994 -0.11767,-0.29593 -0.17878,-0.408c0.18846,0.0051 0.37082,0.00866 0.54706,0.0107c0.17522,0.00306 0.32905,0.00459 0.46148,0.00459c0.13243,0 0.22666,0 0.2827,0c0.08149,-0.0051 0.13855,-0.0219 0.17115,-0.05043c0.03361,-0.0275 0.05043,-0.08201 0.05043,-0.16351v-5.95953M258.85693,197.58003l0.68,-0.3591c0.12734,0.17828 0.26487,0.37285 0.41259,0.58373c0.14772,0.21189 0.28779,0.41818 0.42022,0.61887c0.13243,0.20171 0.2394,0.37642 0.3209,0.52413l-0.72584,0.42022c-0.07641,-0.1528 -0.17726,-0.33262 -0.30256,-0.53941c-0.12429,-0.20578 -0.25774,-0.41818 -0.40036,-0.63721c-0.14262,-0.21903 -0.2776,-0.42277 -0.40494,-0.61123zM263.9531,194.66139h5.63863v0.59595h-5.63863v-0.59595M264.28926,197.74048h5.67683v0.56539h-5.67683v-0.56539M264.98455,198.55036h4.56133v0.49663h-4.56133v-0.49663M264.27398,199.30676h5.98244v0.55011h-5.98244v-0.55011M264.465,196.33464h1.61213v0.42787h-1.61213v-0.42787M264.29691,197.03755h1.78786v0.42022h-1.78786v-0.42022M267.44476,197.03755h1.81077v0.42022h-1.81077v-0.42022M267.44476,196.33464h1.62741v0.42787h-1.62741v-0.42787M266.35218,194.91353h0.80988v2.67415h-0.80988v-2.67415M263.4641,195.56296h6.63189v1.33707h-0.7946v-0.84809h-5.08087v0.84809h-0.7564v-1.33707M263.92253,197.74048h0.76404v1.05437c0,0.21393 -0.01273,0.44416 -0.0382,0.69069c-0.02547,0.24755 -0.07283,0.49867 -0.14211,0.75334c-0.06826,0.25468 -0.16503,0.50019 -0.29034,0.73654c-0.12429,0.23736 -0.28575,0.45282 -0.4844,0.64638c-0.04075,-0.05093 -0.09678,-0.11104 -0.16808,-0.18032c-0.07131,-0.06826 -0.14669,-0.13447 -0.22616,-0.19865c-0.07844,-0.06316 -0.14823,-0.11002 -0.20934,-0.14058c0.2394,-0.22921 0.41512,-0.4788 0.52719,-0.74876c0.11206,-0.26996 0.18439,-0.54145 0.21699,-0.81447c0.03361,-0.27199 0.05043,-0.52515 0.05043,-0.75946v-1.03909M267.43712,199.5971c0.1528,0.24959 0.36929,0.4569 0.64943,0.62193c0.28015,0.16605 0.61531,0.29593 1.00548,0.38966c0.38915,0.09474 0.82313,0.15739 1.30192,0.18795c-0.07131,0.07131 -0.14517,0.16808 -0.22157,0.29034c-0.07641,0.12225 -0.13753,0.23431 -0.18337,0.33618c-0.52464,-0.05603 -0.99172,-0.1528 -1.40125,-0.29034c-0.41055,-0.13753 -0.76354,-0.32242 -1.05896,-0.55469c-0.29543,-0.23125 -0.53992,-0.51496 -0.73348,-0.85114l0.6418,-0.12989M269.21733,199.79575l0.60359,0.30562c-0.18337,0.12225 -0.37693,0.23532 -0.58067,0.33923c-0.20374,0.10493 -0.38966,0.1956 -0.55775,0.27199l-0.49663,-0.27505c0.11206,-0.06113 0.23023,-0.12887 0.35451,-0.20323c0.1253,-0.07335 0.24755,-0.14975 0.36674,-0.22921c0.12021,-0.07844 0.22361,-0.14823 0.3102,-0.20934M265.04567,201.56833l-0.0382,-0.53483l0.3209,-0.22157l2.10876,-0.29797c-0.02038,0.09169 -0.0382,0.19712 -0.05348,0.31631c-0.01528,0.12021 -0.02292,0.21851 -0.02292,0.29492c-0.46861,0.07641 -0.84707,0.13855 -1.13537,0.18643c-0.28728,0.04889 -0.50987,0.08863 -0.66777,0.11919c-0.1579,0.03056 -0.27251,0.05603 -0.34382,0.07641c-0.07131,0.02038 -0.12734,0.04075 -0.16808,0.06113M265.04567,201.56833c-0.02038,-0.06113 -0.05093,-0.13141 -0.09169,-0.21088c-0.04075,-0.07844 -0.08558,-0.15739 -0.13447,-0.23686c-0.04788,-0.07844 -0.09219,-0.14313 -0.13295,-0.19406c0.08659,-0.04584 0.17929,-0.12378 0.27811,-0.2338c0.09984,-0.10901 0.14975,-0.2501 0.14975,-0.42328v-0.73348l0.7946,0.01528v1.24538c0,0 -0.02904,0.01783 -0.0871,0.05348c-0.05909,0.03566 -0.1304,0.08404 -0.21393,0.14517c-0.08455,0.06113 -0.17012,0.12479 -0.25672,0.19101c-0.08659,0.06621 -0.15892,0.13345 -0.21699,0.20171c-0.05909,0.06927 -0.08863,0.12937 -0.08863,0.18032zM272.46452,196.61733h5.34066v0.64943h-5.34066v-0.64943M272.53328,198.84069h4.24807v0.64943h-4.24807v-0.64943M273.54945,196.06722h0.77932v1.79549h1.52808v-1.79549h0.80225v2.42201h-3.10965v-2.42201M276.56742,198.84069h0.16045l0.14517,-0.03056l0.51191,0.26742c-0.20884,0.39731 -0.48135,0.73705 -0.81753,1.01923c-0.33618,0.2832 -0.7182,0.51903 -1.14606,0.70751c-0.42787,0.18846 -0.88884,0.33873 -1.38292,0.45078c-0.49408,0.11206 -1.00854,0.19865 -1.54337,0.25977c-0.03056,-0.09678 -0.07742,-0.21292 -0.14058,-0.3484c-0.06418,-0.13447 -0.12937,-0.24755 -0.1956,-0.33923c0.48898,-0.03566 0.96269,-0.09831 1.42112,-0.18795c0.45842,-0.08863 0.88273,-0.20681 1.2729,-0.35451c0.38915,-0.14772 0.73144,-0.33262 1.02687,-0.55469c0.29543,-0.22106 0.52464,-0.48186 0.68764,-0.78238v-0.10697M273.80923,199.33732c0.24959,0.29543 0.5822,0.54756 0.99784,0.7564c0.41462,0.20884 0.89444,0.3754 1.43946,0.49968c0.54501,0.1253 1.13078,0.21088 1.7573,0.25672c-0.05603,0.05603 -0.11461,0.12734 -0.17573,0.21393c-0.06113,0.08659 -0.11817,0.17318 -0.17115,0.25977c-0.05399,0.08659 -0.09627,0.16555 -0.12683,0.23686c-0.65198,-0.06621 -1.25659,-0.1798 -1.81384,-0.34077c-0.55826,-0.15994 -1.05642,-0.37387 -1.49446,-0.6418c-0.43805,-0.26691 -0.80988,-0.59137 -1.1155,-0.97339l0.70292,-0.26742M271.86856,195.11981h6.01301v0.76404h-6.01301v-0.76404M271.48654,195.11981h0.80988v2.04763c0,0.3158 -0.00866,0.66319 -0.02598,1.04215c-0.01834,0.37999 -0.05298,0.76862 -0.10391,1.16593c-0.05093,0.39731 -0.12479,0.78187 -0.22157,1.15371c-0.09678,0.37183 -0.22412,0.71311 -0.38202,1.02382c-0.05603,-0.04075 -0.12989,-0.08404 -0.22157,-0.12989c-0.09169,-0.04584 -0.18439,-0.09066 -0.27811,-0.13447c-0.09474,-0.04278 -0.17777,-0.07182 -0.24908,-0.0871c0.1528,-0.29543 0.27505,-0.61531 0.36674,-0.95963c0.09169,-0.34331 0.15943,-0.69579 0.20323,-1.05743c0.04278,-0.36165 0.0708,-0.71463 0.08404,-1.05896c0.01222,-0.34331 0.01834,-0.66013 0.01834,-0.95046v-2.05528M274.16069,194.5697l0.82516,-0.19101c0.08659,0.163 0.16707,0.34128 0.24144,0.53483c0.07335,0.19356 0.1253,0.3591 0.15586,0.49663l-0.87865,0.21393c-0.02038,-0.14262 -0.06367,-0.31325 -0.12989,-0.51191c-0.06621,-0.19865 -0.13753,-0.37948 -0.21393,-0.54247zM280.15077,197.28206c-0.18846,0 -0.34994,-0.06367 -0.4844,-0.19101c-0.13549,-0.12734 -0.20323,-0.28779 -0.20323,-0.48135c0,-0.19865 0.06775,-0.36317 0.20323,-0.49357c0.13447,-0.12937 0.29593,-0.19406 0.4844,-0.19406c0.18846,0 0.35044,0.06469 0.48593,0.19406c0.13447,0.1304 0.20171,0.29492 0.20171,0.49357c0,0.19356 -0.06724,0.35401 -0.20171,0.48135c-0.13549,0.12734 -0.29747,0.19101 -0.48593,0.19101M280.15077,200.9571c-0.18846,0 -0.34994,-0.06367 -0.4844,-0.19101c-0.13549,-0.12734 -0.20323,-0.28779 -0.20323,-0.48135c0,-0.20374 0.06775,-0.36929 0.20323,-0.49663c0.13447,-0.12734 0.29593,-0.19101 0.4844,-0.19101c0.18846,0 0.35044,0.06367 0.48593,0.19101c0.13447,0.12734 0.20171,0.29288 0.20171,0.49663c0,0.19356 -0.06724,0.35401 -0.20171,0.48135c-0.13549,0.12734 -0.29747,0.19101 -0.48593,0.19101zM286.38536,195.37195h2.52898v0.77932h-2.52898v-0.77932M288.64692,195.37195h0.14517l0.13753,-0.03056l0.53483,0.16045c-0.10187,0.97798 -0.27098,1.85255 -0.50732,2.62372c-0.23736,0.7722 -0.54196,1.44098 -0.91379,2.00637c-0.37183,0.56539 -0.80988,1.03909 -1.31416,1.42112c-0.04075,-0.07131 -0.09424,-0.14924 -0.16045,-0.2338c-0.06621,-0.08353 -0.136,-0.16503 -0.20934,-0.24449c-0.07437,-0.07844 -0.14211,-0.14313 -0.20323,-0.19406c0.44824,-0.30052 0.84299,-0.71056 1.18427,-1.2301c0.34128,-0.51955 0.62397,-1.12569 0.84809,-1.81842c0.22412,-0.69273 0.37693,-1.44913 0.45842,-2.26921v-0.19101M286.4312,197.50362l0.56539,-0.52719c0.25468,0.21903 0.51853,0.4569 0.79155,0.71362c0.27199,0.25774 0.53534,0.52006 0.79001,0.78696c0.25468,0.26792 0.4839,0.53024 0.68764,0.78696c0.20374,0.25774 0.36929,0.49867 0.49663,0.72278l-0.6418,0.61887c-0.11715,-0.22412 -0.27505,-0.46861 -0.4737,-0.73348c-0.19865,-0.26487 -0.42022,-0.53635 -0.66471,-0.81447c-0.24449,-0.27709 -0.49918,-0.54807 -0.76404,-0.81294c-0.26487,-0.26487 -0.52719,-0.51191 -0.78696,-0.74112M289.58669,196.17419h3.65976v0.78696h-3.65976v-0.78696M291.58848,194.43218h0.81753v6.09706c0,0.2394 -0.02801,0.42378 -0.08404,0.55317c-0.05603,0.1304 -0.1528,0.2338 -0.29034,0.3102c-0.13243,0.07131 -0.31071,0.11715 -0.53483,0.13753c-0.22412,0.02038 -0.49663,0.03056 -0.81753,0.03056c-0.01018,-0.08149 -0.02954,-0.17471 -0.05807,-0.27964c-0.0275,-0.10391 -0.05909,-0.20934 -0.09474,-0.31631c-0.03566,-0.10697 -0.07131,-0.2012 -0.10697,-0.2827c0.21903,0.01018 0.42277,0.01629 0.61123,0.01834c0.18846,0.00306 0.3158,0.00204 0.38202,-0.00306c0.06621,0 0.11206,-0.01172 0.13753,-0.03515c0.02547,-0.02242 0.0382,-0.06927 0.0382,-0.14058v-6.08941M289.58669,197.93912l0.66471,-0.31325c0.11715,0.16808 0.23431,0.34994 0.35146,0.54552c0.11715,0.19661 0.21903,0.39017 0.30562,0.58067c0.08659,0.19152 0.15027,0.36368 0.19101,0.5165l-0.71056,0.3591c-0.03566,-0.1528 -0.09424,-0.32752 -0.17573,-0.52413c-0.08149,-0.1956 -0.17674,-0.39527 -0.28575,-0.59901c-0.11002,-0.20374 -0.22361,-0.39221 -0.34077,-0.56539zM294.51476,194.66139h5.63863v0.59595h-5.63863v-0.59595M294.85094,197.74048h5.67683v0.56539h-5.67683v-0.56539M295.54622,198.55036h4.56133v0.49663h-4.56133v-0.49663M294.83566,199.30676h5.98244v0.55011h-5.98244v-0.55011M295.02667,196.33464h1.61213v0.42787h-1.61213v-0.42787M294.85858,197.03755h1.78786v0.42022h-1.78786v-0.42022M298.00644,197.03755h1.81077v0.42022h-1.81077v-0.42022M298.00644,196.33464h1.62741v0.42787h-1.62741v-0.42787M296.91385,194.91353h0.80988v2.67415h-0.80988v-2.67415M294.02577,195.56296h6.63189v1.33707h-0.7946v-0.84809h-5.08087v0.84809h-0.7564v-1.33707M294.4842,197.74048h0.76404v1.05437c0,0.21393 -0.01273,0.44416 -0.0382,0.69069c-0.02547,0.24755 -0.07233,0.49867 -0.14058,0.75334c-0.06927,0.25468 -0.16605,0.50019 -0.29034,0.73654c-0.1253,0.23736 -0.28728,0.45282 -0.48593,0.64638c-0.04075,-0.05093 -0.09678,-0.11104 -0.16808,-0.18032c-0.07131,-0.06826 -0.14619,-0.13447 -0.22462,-0.19865c-0.07946,-0.06316 -0.14975,-0.11002 -0.21088,-0.14058c0.2394,-0.22921 0.41512,-0.4788 0.52719,-0.74876c0.11206,-0.26996 0.1849,-0.54145 0.21851,-0.81447c0.0326,-0.27199 0.04889,-0.52515 0.04889,-0.75946v-1.03909M297.99879,199.5971c0.1528,0.24959 0.36929,0.4569 0.64943,0.62193c0.28015,0.16605 0.61531,0.29593 1.00548,0.38966c0.38915,0.09474 0.82313,0.15739 1.30192,0.18795c-0.07131,0.07131 -0.14517,0.16808 -0.22157,0.29034c-0.07641,0.12225 -0.13753,0.23431 -0.18337,0.33618c-0.52464,-0.05603 -0.99172,-0.1528 -1.40125,-0.29034c-0.41055,-0.13753 -0.76354,-0.32242 -1.05896,-0.55469c-0.29543,-0.23125 -0.53992,-0.51496 -0.73348,-0.85114l0.6418,-0.12989M299.77901,199.79575l0.60359,0.30562c-0.18337,0.12225 -0.37693,0.23532 -0.58067,0.33923c-0.20374,0.10493 -0.38966,0.1956 -0.55775,0.27199l-0.49663,-0.27505c0.11206,-0.06113 0.23023,-0.12887 0.35451,-0.20323c0.1253,-0.07335 0.24806,-0.14975 0.36827,-0.22921c0.11919,-0.07844 0.22209,-0.14823 0.30868,-0.20934M295.60734,201.56833l-0.0382,-0.53483l0.3209,-0.22157l2.10876,-0.29797c-0.02038,0.09169 -0.0382,0.19712 -0.05348,0.31631c-0.01528,0.12021 -0.02292,0.21851 -0.02292,0.29492c-0.46861,0.07641 -0.84655,0.13855 -1.13384,0.18643c-0.2883,0.04889 -0.5114,0.08863 -0.6693,0.11919c-0.1579,0.03056 -0.27251,0.05603 -0.34382,0.07641c-0.07131,0.02038 -0.12734,0.04075 -0.16808,0.06113M295.60734,201.56833c-0.02038,-0.06113 -0.05093,-0.13141 -0.09169,-0.21088c-0.04075,-0.07844 -0.08507,-0.15739 -0.13295,-0.23686c-0.04889,-0.07844 -0.09373,-0.14313 -0.13447,-0.19406c0.08659,-0.04584 0.1798,-0.12378 0.27964,-0.2338c0.09881,-0.10901 0.14823,-0.2501 0.14823,-0.42328v-0.73348l0.7946,0.01528v1.24538c0,0 -0.02904,0.01783 -0.0871,0.05348c-0.05909,0.03566 -0.1304,0.08404 -0.21393,0.14517c-0.08455,0.06113 -0.17012,0.12479 -0.25672,0.19101c-0.08659,0.06621 -0.15892,0.13345 -0.21699,0.20171c-0.05909,0.06927 -0.08863,0.12937 -0.08863,0.18032zM303.02618,196.61733h5.34066v0.64943h-5.34066v-0.64943M303.09495,198.84069h4.24807v0.64943h-4.24807v-0.64943M304.11113,196.06722h0.77932v1.79549h1.52808v-1.79549h0.80225v2.42201h-3.10965v-2.42201M307.12909,198.84069h0.16045l0.14517,-0.03056l0.51191,0.26742c-0.20884,0.39731 -0.48135,0.73705 -0.81753,1.01923c-0.33618,0.2832 -0.7182,0.51903 -1.14606,0.70751c-0.42787,0.18846 -0.88884,0.33873 -1.38292,0.45078c-0.49408,0.11206 -1.00854,0.19865 -1.54337,0.25977c-0.03056,-0.09678 -0.07742,-0.21292 -0.14058,-0.3484c-0.06418,-0.13447 -0.12937,-0.24755 -0.1956,-0.33923c0.48898,-0.03566 0.96269,-0.09831 1.42112,-0.18795c0.45842,-0.08863 0.88273,-0.20681 1.2729,-0.35451c0.38915,-0.14772 0.73144,-0.33262 1.02687,-0.55469c0.29543,-0.22106 0.52464,-0.48186 0.68764,-0.78238v-0.10697M304.3709,199.33732c0.24959,0.29543 0.58169,0.54756 0.99631,0.7564c0.41564,0.20884 0.89597,0.3754 1.44098,0.49968c0.54501,0.1253 1.13078,0.21088 1.7573,0.25672c-0.05603,0.05603 -0.11461,0.12734 -0.17573,0.21393c-0.06113,0.08659 -0.11817,0.17318 -0.17115,0.25977c-0.05399,0.08659 -0.09627,0.16555 -0.12683,0.23686c-0.65198,-0.06621 -1.25659,-0.1798 -1.81384,-0.34077c-0.55826,-0.15994 -1.05642,-0.37387 -1.49446,-0.6418c-0.43805,-0.26691 -0.80988,-0.59137 -1.1155,-0.97339l0.70292,-0.26742M302.43023,195.11981h6.01301v0.76404h-6.01301v-0.76404M302.04821,195.11981h0.80988v2.04763c0,0.3158 -0.00866,0.66319 -0.02598,1.04215c-0.01834,0.37999 -0.05298,0.76862 -0.10391,1.16593c-0.05093,0.39731 -0.12479,0.78187 -0.22157,1.15371c-0.09678,0.37183 -0.22412,0.71311 -0.38202,1.02382c-0.05603,-0.04075 -0.12989,-0.08404 -0.22157,-0.12989c-0.09169,-0.04584 -0.1849,-0.09066 -0.27964,-0.13447c-0.09373,-0.04278 -0.17624,-0.07182 -0.24755,-0.0871c0.1528,-0.29543 0.27505,-0.61531 0.36674,-0.95963c0.09169,-0.34331 0.15943,-0.69579 0.20323,-1.05743c0.04278,-0.36165 0.0708,-0.71463 0.08404,-1.05896c0.01222,-0.34331 0.01834,-0.66013 0.01834,-0.95046v-2.05528M304.72235,194.5697l0.82516,-0.19101c0.08659,0.163 0.16656,0.34128 0.23991,0.53483c0.07437,0.19356 0.12683,0.3591 0.15739,0.49663l-0.87865,0.21393c-0.02038,-0.14262 -0.06367,-0.31325 -0.12989,-0.51191c-0.06621,-0.19865 -0.13753,-0.37948 -0.21393,-0.54247zM309.42886,194.94408h6.44851v0.80225h-6.44851v-0.80225M312.81356,197.53418h2.69706v0.80225h-2.69706v-0.80225M309.1538,200.46047h6.95278v0.80225h-6.95278v-0.80225M312.40862,195.26498h0.87101v5.59278h-0.87101v-5.59278M310.12414,196.99172h0.85573v3.89661h-0.85573zM316.87826,195.52475h6.78469v0.78696h-6.78469v-0.78696M319.33848,197.99261h4.01122v0.7564h-4.01122v-0.7564M319.0405,200.61327h4.59954v0.76404h-4.59954v-0.76404M320.94296,196.66318h0.82516v4.36268h-0.82516v-4.36268M319.31555,194.43218l0.85573,0.19865c-0.18337,0.60614 -0.41615,1.20311 -0.69834,1.79092c-0.2832,0.58882 -0.62346,1.13791 -1.02076,1.64728c-0.39731,0.50936 -0.86337,0.94996 -1.3982,1.32179c-0.02547,-0.07641 -0.06265,-0.163 -0.11155,-0.25977c-0.04788,-0.09678 -0.09729,-0.19254 -0.14823,-0.28728c-0.05093,-0.09373 -0.09678,-0.17369 -0.13753,-0.23991c0.34636,-0.22412 0.65963,-0.49561 0.93977,-0.81447c0.28015,-0.31784 0.53126,-0.66268 0.75334,-1.03452c0.22106,-0.37183 0.41207,-0.75538 0.57304,-1.15065c0.15994,-0.39424 0.29085,-0.78493 0.39272,-1.17204M317.79511,197.61823h0.82516v3.92718h-0.82516zM327.68182,196.77778h3.17077v0.82516h-3.17077v-0.82516M324.43463,200.36878h6.94514v0.82516h-6.94514v-0.82516M327.21575,194.5315h0.87865v6.28806h-0.87865zM333.74066,195.52475h0.82516v2.13167c0,0.35655 -0.0219,0.71566 -0.06571,1.0773c-0.04278,0.36165 -0.13192,0.71311 -0.26742,1.05437c-0.13447,0.34128 -0.33312,0.66319 -0.59595,0.96575c-0.26181,0.30358 -0.61429,0.57761 -1.05743,0.82211c-0.04075,-0.06113 -0.09576,-0.13141 -0.16503,-0.21088c-0.06826,-0.07844 -0.14058,-0.15739 -0.21699,-0.23686c-0.07641,-0.07844 -0.14772,-0.13803 -0.21393,-0.17878c0.39731,-0.21393 0.71158,-0.44976 0.94283,-0.70751c0.23227,-0.25672 0.4085,-0.52769 0.52872,-0.81294c0.11919,-0.28524 0.19661,-0.57812 0.23227,-0.87865c0.03566,-0.30052 0.05348,-0.60105 0.05348,-0.90157v-2.12404M336.61346,194.56207h0.84044v6.99862h-0.84044v-6.99862M332.05978,197.47306h6.9757v0.78696h-6.9757v-0.78696M335.41392,194.49329l0.58067,0.68764c-0.326,0.163 -0.69171,0.31682 -1.09717,0.46148c-0.40443,0.14568 -0.81956,0.27709 -1.24538,0.39424c-0.42481,0.11715 -0.8435,0.22157 -1.25608,0.31325c-0.01528,-0.09678 -0.05247,-0.21037 -0.11155,-0.34077c-0.05807,-0.12937 -0.11257,-0.23991 -0.16351,-0.33159c0.39731,-0.09169 0.79817,-0.20018 1.2026,-0.32548c0.40545,-0.12429 0.78748,-0.26028 1.14606,-0.408c0.35961,-0.14772 0.6744,-0.29797 0.94435,-0.45078zM340.43367,195.66993h2.33797v5.1038h-2.33797v-0.72584h1.58921v-3.65976h-1.58921v-0.7182M339.95233,195.66993h0.74876v5.68447h-0.74876v-5.68447M340.39547,197.73284h2.00179v0.71056h-2.00179v-0.71056M341.06018,194.42453l0.89392,0.13753c-0.08149,0.24959 -0.16808,0.50019 -0.25977,0.75182c-0.09169,0.25264 -0.17573,0.4681 -0.25214,0.64638l-0.65708,-0.1528c0.03566,-0.12734 0.07233,-0.27251 0.11002,-0.4355c0.03871,-0.163 0.07335,-0.32752 0.10391,-0.49357c0.03056,-0.16503 0.05093,-0.31631 0.06113,-0.45385M343.8031,195.62408h2.26921v0.74876h-2.26921v-0.74876M345.78196,195.62408h0.76404c0,0 0,0.02394 0,0.07182c0,0.04889 0,0.10238 0,0.16045c0,0.05909 -0.00255,0.10646 -0.00764,0.14211c-0.02547,0.86591 -0.05247,1.59939 -0.08099,2.20044c-0.0275,0.60105 -0.06061,1.09513 -0.09932,1.48224c-0.0377,0.38711 -0.08201,0.68865 -0.13295,0.90463c-0.05093,0.21699 -0.11715,0.37642 -0.19865,0.47829c-0.10187,0.13753 -0.20629,0.23176 -0.31325,0.2827c-0.10697,0.05093 -0.23686,0.08914 -0.38966,0.11461c-0.13753,0.01528 -0.31325,0.02292 -0.52719,0.02292c-0.21393,0 -0.43296,-0.0051 -0.65708,-0.01528c-0.0051,-0.11206 -0.03209,-0.24449 -0.08099,-0.39731c-0.04788,-0.1528 -0.11257,-0.28524 -0.19406,-0.39731c0.24959,0.02038 0.4788,0.03311 0.68764,0.0382c0.20884,0.0051 0.36165,0.00764 0.45842,0.00764c0.07641,0 0.13855,-0.00917 0.18643,-0.0275c0.04889,-0.01732 0.09881,-0.05144 0.14975,-0.10238c0.06113,-0.07131 0.11461,-0.21037 0.16045,-0.41716c0.04584,-0.20578 0.08404,-0.49714 0.11461,-0.87407c0.03056,-0.37693 0.05959,-0.85573 0.0871,-1.4364c0.02853,-0.58067 0.05298,-1.2734 0.07335,-2.07819v-0.16045M343.86421,194.42453l0.78696,0.18337c-0.09678,0.37693 -0.2124,0.74978 -0.34688,1.11856c-0.13549,0.36979 -0.28474,0.71769 -0.44772,1.04368c-0.163,0.326 -0.33108,0.61123 -0.50426,0.85573c-0.05093,-0.04584 -0.11715,-0.09932 -0.19865,-0.16045c-0.08149,-0.06113 -0.16555,-0.12123 -0.25214,-0.18032c-0.08659,-0.05807 -0.16045,-0.10238 -0.22157,-0.13295c0.16808,-0.21903 0.32752,-0.47524 0.47829,-0.76862c0.14975,-0.29237 0.28423,-0.60665 0.40342,-0.94283c0.12021,-0.33618 0.22106,-0.67491 0.30256,-1.01617M343.49748,197.76339l0.6418,-0.3591c0.12734,0.17318 0.26487,0.36521 0.41259,0.57609c0.14772,0.21189 0.28626,0.41564 0.41564,0.61123c0.1304,0.19661 0.2338,0.37133 0.3102,0.52413l-0.69528,0.42787c-0.07131,-0.1579 -0.16808,-0.33873 -0.29034,-0.54247c-0.12225,-0.20374 -0.25366,-0.41411 -0.39424,-0.6311c-0.13957,-0.21597 -0.27302,-0.41818 -0.40036,-0.60665zM350.36621,194.43218h0.83281v2.64358h-0.83281v-2.64358M348.9833,197.46542v1.09258h3.64448v-1.09258h-3.64448M348.20398,196.70138h5.26425v2.61302h-5.26425v-2.61302M350.74824,195.14274h3.23954v0.77168h-3.23954v-0.77168M349.48756,199.92564l0.77932,-0.07641c0.04075,0.16808 0.07641,0.34891 0.10697,0.54247c0.03056,0.19356 0.0545,0.37795 0.07182,0.55317c0.01834,0.17624 0.03005,0.33057 0.03515,0.46301l-0.83281,0.10697c0,-0.13243 -0.00662,-0.29034 -0.01987,-0.4737c-0.01222,-0.18337 -0.03107,-0.37336 -0.05654,-0.56998c-0.02547,-0.1956 -0.05348,-0.37744 -0.08404,-0.54552M351.06149,199.93327l0.74876,-0.16808c0.08149,0.1579 0.16045,0.32853 0.23686,0.51191c0.07641,0.18337 0.14619,0.36165 0.20934,0.53483c0.06418,0.17318 0.10901,0.32853 0.13447,0.46607l-0.80225,0.19865c-0.02547,-0.13243 -0.0652,-0.28779 -0.11919,-0.46607c-0.05298,-0.17828 -0.11512,-0.36165 -0.18643,-0.55011c-0.07131,-0.18846 -0.14517,-0.36419 -0.22157,-0.52719M352.62014,199.8798l0.73348,-0.26742c0.12734,0.163 0.25621,0.33873 0.38661,0.52719c0.12937,0.18846 0.2501,0.3754 0.36216,0.5608c0.11206,0.18643 0.19865,0.3535 0.25977,0.50121l-0.78696,0.31325c-0.05603,-0.14772 -0.13651,-0.3158 -0.24144,-0.50426c-0.10391,-0.18846 -0.21851,-0.38202 -0.34382,-0.58067c-0.12429,-0.19865 -0.24755,-0.38202 -0.36979,-0.55011M348.23454,199.66587l0.78696,0.19865c-0.11206,0.30562 -0.25825,0.61123 -0.43856,0.91685c-0.18133,0.30562 -0.37133,0.56029 -0.56998,0.76404l-0.7564,-0.36674c0.19356,-0.16808 0.37693,-0.39118 0.55011,-0.6693c0.17318,-0.27709 0.3158,-0.55826 0.42787,-0.8435zM357.42596,195.74633h4.24807v0.80225h-4.24807v-0.80225M357.89202,197.01464l0.74112,-0.16808c0.06113,0.25977 0.1197,0.53228 0.17573,0.81753c0.05603,0.28524 0.10798,0.56794 0.15586,0.84809c0.04889,0.28015 0.09118,0.54604 0.12683,0.79766c0.03566,0.25264 0.06367,0.47829 0.08404,0.67694l-0.80988,0.22921c-0.01528,-0.19865 -0.0382,-0.42787 -0.06876,-0.68764c-0.03056,-0.25977 -0.06775,-0.53381 -0.11155,-0.82211c-0.04278,-0.28728 -0.08863,-0.57609 -0.13753,-0.86642c-0.04788,-0.29034 -0.09984,-0.56539 -0.15586,-0.82516M360.46684,196.81599l0.86337,0.12989c-0.05603,0.3209 -0.11715,0.653 -0.18337,0.99631c-0.06621,0.34433 -0.13651,0.6856 -0.21088,1.02382c-0.07335,0.33923 -0.14975,0.66166 -0.22921,0.96728c-0.07844,0.30562 -0.15332,0.58067 -0.22462,0.82516l-0.71056,-0.1528c0.07131,-0.24959 0.14109,-0.53126 0.20934,-0.84503c0.06927,-0.31275 0.13549,-0.64128 0.19865,-0.98561c0.06418,-0.34331 0.12174,-0.68306 0.17267,-1.01923c0.05093,-0.33618 0.08914,-0.64943 0.11461,-0.93977M357.13562,200.4681h4.81346v0.78696h-4.81346v-0.78696M358.9082,194.5315l0.77932,-0.19101c0.07131,0.18337 0.14364,0.38457 0.21699,0.60359c0.07437,0.21903 0.13192,0.41004 0.17267,0.57304l-0.81753,0.22921c-0.03056,-0.163 -0.08048,-0.35808 -0.14975,-0.58526c-0.06826,-0.22616 -0.13549,-0.43602 -0.20171,-0.62957M356.6772,194.46274l0.77168,0.23686c-0.163,0.43296 -0.35655,0.86438 -0.58067,1.29429c-0.22412,0.43092 -0.46607,0.83841 -0.72584,1.22247c-0.25977,0.38507 -0.52974,0.72278 -0.80988,1.01311c-0.02038,-0.06621 -0.05755,-0.1528 -0.11155,-0.25977c-0.05298,-0.10697 -0.10901,-0.21546 -0.16808,-0.32548c-0.05807,-0.10901 -0.11257,-0.19661 -0.16351,-0.26283c0.2394,-0.23431 0.46963,-0.50834 0.69069,-0.82211c0.22209,-0.31275 0.42736,-0.6474 0.61582,-1.00395c0.18846,-0.35655 0.34891,-0.72074 0.48135,-1.09258M355.89787,196.53329l0.82516,-0.82516v0.00764v5.83728h-0.82516zM364.883,195.76161h4.50785v0.7946h-4.50785v-0.7946M365.87626,194.62319h0.80988v2.54426c0,0.25977 -0.01426,0.53483 -0.04278,0.82516c-0.0275,0.29034 -0.08099,0.58067 -0.16045,0.87101c-0.07844,0.29034 -0.19406,0.56386 -0.34688,0.82058c-0.1528,0.25774 -0.35146,0.48593 -0.59595,0.68458c-0.03566,-0.05093 -0.09169,-0.11461 -0.16808,-0.19101c-0.07641,-0.07641 -0.15535,-0.15179 -0.23686,-0.22616c-0.08149,-0.07335 -0.15027,-0.1253 -0.20629,-0.15586c0.29034,-0.2394 0.50172,-0.50681 0.63415,-0.80225c0.13243,-0.29543 0.2175,-0.60105 0.25519,-0.91685c0.03871,-0.3158 0.05807,-0.62142 0.05807,-0.91685v-2.53661M364.82188,197.70991h4.72178v0.77932h-4.72178v-0.77932M364.37109,197.20565v3.01796h-0.80988v-2.25392h-0.93213v-0.76404h1.74201M363.95087,199.83395c0.13243,0 0.25977,0.04432 0.38202,0.13295c0.12225,0.08965 0.29034,0.19815 0.50426,0.32548c0.25977,0.1528 0.56132,0.24806 0.90463,0.28575c0.34433,0.03871 0.73042,0.05807 1.15828,0.05807c0.20884,0 0.4355,-0.00255 0.68,-0.00764c0.24449,-0.0051 0.49408,-0.01528 0.74876,-0.03056c0.25468,-0.01528 0.50019,-0.03464 0.73654,-0.05807c0.23736,-0.02242 0.45282,-0.04636 0.64638,-0.07182c-0.03056,0.07131 -0.06367,0.16045 -0.09932,0.26742c-0.03566,0.10697 -0.06621,0.2124 -0.09169,0.31631c-0.02547,0.10493 -0.04075,0.1956 -0.04584,0.27199c-0.13753,0.0051 -0.31224,0.01273 -0.52413,0.02292c-0.21088,0.01018 -0.44213,0.01884 -0.69375,0.02598c-0.25264,0.00815 -0.50019,0.01477 -0.74265,0.01987c-0.24144,0.0051 -0.45638,0.00764 -0.64485,0.00764c-0.4839,0 -0.89647,-0.02801 -1.23775,-0.08404c-0.34128,-0.05603 -0.64943,-0.16045 -0.92449,-0.31325c-0.17318,-0.09678 -0.32345,-0.19356 -0.45078,-0.29034c-0.12734,-0.09678 -0.23431,-0.14517 -0.3209,-0.14517c-0.08149,0 -0.17217,0.04686 -0.27199,0.14058c-0.09881,0.09474 -0.20171,0.21597 -0.30868,0.36368c-0.10697,0.14772 -0.21138,0.30052 -0.31325,0.45842l-0.55011,-0.77932c0.25977,-0.27505 0.51955,-0.49663 0.77932,-0.66471c0.25977,-0.16808 0.48644,-0.25214 0.68,-0.25214M362.78953,195.03577l0.58832,-0.45842c0.13753,0.12225 0.2827,0.25722 0.4355,0.40494c0.1528,0.14772 0.29899,0.2939 0.43856,0.43856c0.14058,0.14568 0.25163,0.27709 0.33312,0.39424l-0.62652,0.51955c-0.07641,-0.12225 -0.18083,-0.25876 -0.31325,-0.40953c-0.13243,-0.14975 -0.27251,-0.30358 -0.42022,-0.46148c-0.14772,-0.1579 -0.29288,-0.30052 -0.4355,-0.42787M367.66412,194.63083h0.81753v5.64627h-0.81753zM373.31038,194.87532h3.7438v0.77932h-3.7438v-0.77932M375.3351,197.22857h0.84044v3.36942c0,0.22412 -0.02904,0.39984 -0.0871,0.52719c-0.05909,0.12734 -0.16758,0.22412 -0.32548,0.29034c-0.1528,0.05603 -0.34891,0.09169 -0.58832,0.10697c-0.2394,0.01528 -0.53738,0.02292 -0.89392,0.02292c-0.01528,-0.11715 -0.04737,-0.25468 -0.09627,-0.41259c-0.04788,-0.1579 -0.09984,-0.29543 -0.15586,-0.41259c0.1579,0.0051 0.31325,0.00866 0.46607,0.0107c0.1528,0.00306 0.28779,0.00459 0.40494,0.00459c0.11715,0 0.19865,0 0.24449,0c0.07131,-0.0051 0.12072,-0.01783 0.14823,-0.0382c0.02853,-0.02038 0.04278,-0.05858 0.04278,-0.11461v-3.35414M372.98185,196.99172h4.27864v0.77932h-4.27864v-0.77932M371.32388,197.80924l0.7182,-0.72584l0.09932,0.04584v4.44672h-0.81753v-3.76673M372.19488,196.09015l0.77168,0.29034c-0.19356,0.33618 -0.42175,0.67082 -0.68458,1.00395c-0.26181,0.33414 -0.53381,0.6474 -0.81599,0.93977c-0.2832,0.2934 -0.56234,0.55215 -0.83739,0.77627c-0.04075,-0.06113 -0.09424,-0.13651 -0.16045,-0.22616c-0.06621,-0.08863 -0.13651,-0.17777 -0.21088,-0.26742c-0.07335,-0.08863 -0.13803,-0.15841 -0.19406,-0.20934c0.26487,-0.18337 0.52719,-0.39984 0.78696,-0.64943c0.25977,-0.24959 0.50529,-0.517 0.73654,-0.80225c0.23227,-0.28524 0.43499,-0.57049 0.60817,-0.85573M371.89691,194.43218l0.78696,0.3209c-0.17828,0.23431 -0.38355,0.4737 -0.61582,0.7182c-0.23125,0.24449 -0.4732,0.47625 -0.72584,0.69528c-0.25163,0.21903 -0.49714,0.41259 -0.73654,0.58067c-0.03566,-0.06113 -0.07997,-0.13396 -0.13295,-0.21851c-0.05399,-0.08353 -0.11053,-0.16758 -0.16962,-0.25214c-0.05807,-0.08353 -0.11002,-0.15077 -0.15586,-0.20171c0.21393,-0.13753 0.43041,-0.30052 0.64943,-0.48898c0.21903,-0.18846 0.42532,-0.38355 0.61887,-0.58526c0.19356,-0.20068 0.35401,-0.39017 0.48135,-0.56845zM377.99396,195.16565h6.75413v0.69528h-6.75413v-0.69528M379.87351,196.75486v0.49663h3.06381v-0.49663h-3.06381M379.04834,196.19711h4.75234v1.61213h-4.75234v-1.61213M378.22317,198.15306h6.08941v0.67236h-5.29481v2.73527h-0.7946v-3.40763M383.73191,198.15306h0.82516v2.63595c0,0.18846 -0.02547,0.32701 -0.07641,0.41564c-0.05093,0.08965 -0.14517,0.15994 -0.2827,0.21088c-0.12734,0.04584 -0.28779,0.07233 -0.48135,0.07946c-0.19356,0.00815 -0.42277,0.01222 -0.68764,0.01222c-0.02038,-0.09169 -0.0545,-0.19356 -0.10238,-0.30562c-0.04889,-0.11206 -0.09627,-0.21138 -0.14211,-0.29797c0.10697,0.0051 0.21648,0.00866 0.32853,0.0107c0.11206,0.00306 0.21138,0.00459 0.29797,0.00459c0.08659,0 0.14517,0 0.17573,0c0.09678,-0.0051 0.14517,-0.04839 0.14517,-0.12989v-2.63595M380.80564,194.58498l0.83281,-0.19865c0.07131,0.163 0.14414,0.34128 0.21851,0.53483c0.07335,0.19356 0.12785,0.35655 0.16351,0.48898l-0.88629,0.24449c-0.03056,-0.13753 -0.07896,-0.30714 -0.14517,-0.50885c-0.06621,-0.20068 -0.12734,-0.38762 -0.18337,-0.5608M380.12563,199.15396h2.86516v1.67325h-2.86516v-0.58067h2.14695v-0.51955h-2.14695v-0.57304M379.68249,199.15396h0.7564v2.00179h-0.7564zM389.77548,199.06227h0.87865v1.42876c0,0.10187 0.01376,0.16656 0.04126,0.19406c0.02853,0.02853 0.09373,0.04278 0.1956,0.04278c0.02038,0 0.05705,0 0.11002,0c0.05399,0 0.11308,0 0.17726,0c0.06316,0 0.12275,0 0.17878,0c0.05603,0 0.09678,0 0.12225,0c0.06621,0 0.11563,-0.01935 0.14823,-0.05807c0.03361,-0.0377 0.05654,-0.11257 0.06876,-0.22462c0.01324,-0.11206 0.02495,-0.28015 0.03515,-0.50426c0.06113,0.04584 0.13345,0.08761 0.21699,0.1253c0.08455,0.03871 0.17369,0.07437 0.26742,0.10697c0.09474,0.03361 0.18032,0.05807 0.25672,0.07335c-0.02547,0.31071 -0.0703,0.55266 -0.13447,0.72584c-0.06316,0.17318 -0.15586,0.2939 -0.27811,0.36216c-0.12225,0.06927 -0.28524,0.10391 -0.48898,0.10391c-0.03566,0 -0.09321,0 -0.17267,0c-0.07844,0 -0.15994,0 -0.24449,0c-0.08353,0 -0.16249,0 -0.23686,0c-0.07335,0 -0.1304,0 -0.17115,0c-0.25977,0 -0.46097,-0.02954 -0.60359,-0.08863c-0.14262,-0.05807 -0.2394,-0.15586 -0.29034,-0.2934c-0.05093,-0.13753 -0.07641,-0.326 -0.07641,-0.56539v-1.42876M387.39167,199.06227h0.85573c-0.02038,0.35146 -0.06214,0.66217 -0.1253,0.93213c-0.06418,0.26996 -0.17267,0.50529 -0.32548,0.70597c-0.1528,0.20171 -0.37183,0.37234 -0.65708,0.51191c-0.28524,0.14058 -0.65963,0.25672 -1.12314,0.3484c-0.02038,-0.07131 -0.05501,-0.14924 -0.10391,-0.2338c-0.04788,-0.08353 -0.10085,-0.16758 -0.15892,-0.25214c-0.05909,-0.08353 -0.11664,-0.15332 -0.17267,-0.20934c0.39731,-0.06113 0.71311,-0.14007 0.94741,-0.23686c0.23431,-0.09678 0.41105,-0.21546 0.53024,-0.35605c0.12021,-0.13957 0.20171,-0.30868 0.24449,-0.50732c0.04381,-0.19865 0.07335,-0.43296 0.08863,-0.70292M385.59618,195.05869h6.84581v0.68h-6.84581v-0.68M385.6955,198.03846h6.6548v1.41348h-0.81753v-0.78696h-5.05796v0.7946h-0.77932v-1.42112M387.49864,196.63261v0.49663h3.04852v-0.49663h-3.04852M386.68111,196.0825h4.72942v1.59685h-4.72942v-1.59685M388.40021,194.5315l0.83281,-0.16808c0.07641,0.11715 0.15027,0.24806 0.22157,0.39272c0.07131,0.14568 0.12225,0.27199 0.1528,0.37896l-0.87101,0.18337c-0.03056,-0.10697 -0.07641,-0.23431 -0.13753,-0.38202c-0.06113,-0.14772 -0.12734,-0.2827 -0.19865,-0.40494M387.65145,199.06227h2.68178v0.67236h-2.68178zM394.89456,196.61733v0.58832h3.52224v-0.58832h-3.52224M394.89456,195.42543v0.58832h3.52224v-0.58832h-3.52224M394.09232,194.79128h5.16493v3.05617h-5.16493v-3.05617M393.09907,200.43754h7.13615v0.77932h-7.13615v-0.77932M395.39119,198.10722h0.77932v2.75819h-0.77932v-2.75819M397.12557,198.10722h0.77932v2.75819h-0.77932v-2.75819M399.02039,198.2753l0.69528,0.31325c-0.14772,0.26487 -0.31224,0.53228 -0.49357,0.80225c-0.18032,0.26996 -0.34942,0.50172 -0.50732,0.69528l-0.62652,-0.29034c0.10697,-0.13753 0.2175,-0.29288 0.33159,-0.46607c0.11512,-0.17318 0.22717,-0.35146 0.33618,-0.53483c0.11002,-0.18337 0.19815,-0.35655 0.26436,-0.51955M393.67974,198.60385l0.63415,-0.27505c0.09169,0.1579 0.18846,0.32701 0.29034,0.50732c0.10187,0.18133 0.19712,0.35605 0.28575,0.52413c0.08965,0.16808 0.15994,0.3158 0.21088,0.44315l-0.66471,0.3209c-0.05093,-0.13243 -0.11817,-0.28677 -0.20171,-0.46301c-0.08455,-0.17522 -0.17369,-0.35605 -0.26742,-0.54247c-0.09474,-0.1854 -0.1905,-0.35706 -0.28728,-0.51496zM403.8797,197.24385h0.90157v3.33886c0,0.23431 -0.03209,0.41615 -0.09627,0.54552c-0.06316,0.1304 -0.17878,0.2287 -0.34688,0.29492c-0.16808,0.06113 -0.37438,0.10035 -0.61887,0.11767c-0.24449,0.01834 -0.53483,0.0275 -0.87101,0.0275c-0.02038,-0.12734 -0.05858,-0.27404 -0.11461,-0.44009c-0.05603,-0.16503 -0.11461,-0.30868 -0.17573,-0.43092c0.1528,0.0051 0.30714,0.01018 0.46301,0.01528c0.15485,0.0051 0.2934,0.00611 0.41564,0.00306c0.12225,-0.00204 0.20629,-0.00306 0.25214,-0.00306c0.07131,0 0.12072,-0.01018 0.14823,-0.03056c0.02853,-0.02038 0.04278,-0.05858 0.04278,-0.11461v-3.32358M402.07656,198.22182l0.85573,0.22157c-0.11206,0.30562 -0.24959,0.60716 -0.41259,0.90463c-0.163,0.29848 -0.33618,0.57761 -0.51955,0.83739c-0.18337,0.25977 -0.36929,0.48644 -0.55775,0.68c-0.05603,-0.05093 -0.13141,-0.10697 -0.22616,-0.16808c-0.09373,-0.06113 -0.18795,-0.12225 -0.2827,-0.18337c-0.09373,-0.06113 -0.17624,-0.10697 -0.24755,-0.13753c0.28524,-0.25977 0.55113,-0.58322 0.79766,-0.97033c0.24755,-0.38711 0.44519,-0.78187 0.59289,-1.18427M405.64464,198.5198l0.76404,-0.3209c0.17828,0.2394 0.35247,0.49663 0.52261,0.77168c0.17115,0.27505 0.3265,0.54604 0.46607,0.81294c0.14058,0.26792 0.24653,0.5114 0.31784,0.73042l-0.84809,0.36674c-0.05603,-0.20884 -0.14924,-0.44976 -0.27964,-0.72278c-0.12937,-0.27199 -0.27658,-0.55215 -0.44161,-0.84044c-0.16605,-0.28728 -0.33312,-0.55317 -0.50121,-0.79766M401.60285,194.94408h5.40942v0.81753h-5.40942v-0.81753M400.91521,196.79306h6.79997v0.81753h-6.79997z" fill="#ffffff" fill-rule="nonzero" stroke-width="1"/><path d="M248.37428,203.62513h2.45257v0.7182h-2.45257v-0.7182M248.20619,206.12355h2.90336v0.72584h-2.90336v-0.72584M249.37518,206.45973h0.78696v3.07145c0,0.19356 -0.02292,0.34891 -0.06876,0.46607c-0.04584,0.11715 -0.13498,0.20629 -0.26742,0.26742c-0.13243,0.06113 -0.29186,0.10035 -0.47829,0.11767c-0.1854,0.01834 -0.408,0.0275 -0.66777,0.0275c-0.01528,-0.11715 -0.04686,-0.25111 -0.09474,-0.40189c-0.04889,-0.14975 -0.10136,-0.27811 -0.15739,-0.38507c0.17318,0.0051 0.33873,0.00764 0.49663,0.00764c0.1579,0 0.26232,0 0.31325,0c0.05603,0 0.0927,-0.00917 0.11002,-0.0275c0.01834,-0.01732 0.0275,-0.04636 0.0275,-0.0871v-3.05617M250.57472,203.62513h0.17573l0.14517,-0.0382l0.49663,0.34382c-0.12225,0.19865 -0.26232,0.40239 -0.42022,0.61123c-0.1579,0.20884 -0.3209,0.4085 -0.48898,0.59901c-0.16808,0.19152 -0.33108,0.35605 -0.48898,0.49357c-0.05093,-0.07131 -0.12225,-0.15434 -0.21393,-0.24908c-0.09169,-0.09373 -0.17063,-0.16605 -0.23686,-0.21699c0.12734,-0.12225 0.25722,-0.26487 0.38966,-0.42787c0.13243,-0.163 0.25722,-0.33108 0.37438,-0.50426c0.11715,-0.17318 0.20629,-0.32853 0.26742,-0.46607v-0.14517M250.8727,206.12355h0.10697l0.11461,-0.02292l0.50426,0.12225c-0.08659,0.31071 -0.18083,0.62753 -0.2827,0.95046c-0.10187,0.32396 -0.19865,0.59799 -0.29034,0.82211l-0.61123,-0.13753c0.05093,-0.13753 0.10442,-0.29797 0.16045,-0.48135c0.05603,-0.18337 0.10951,-0.37591 0.16045,-0.57761c0.05093,-0.20068 0.09678,-0.39017 0.13753,-0.56845v-0.10697M248.53472,205.26018l0.4355,-0.52719c0.18846,0.11206 0.39476,0.23787 0.61887,0.37744c0.22412,0.14058 0.44213,0.27811 0.65402,0.41259c0.21088,0.13549 0.38507,0.25417 0.52261,0.35605l-0.45078,0.60359c-0.12734,-0.10697 -0.29543,-0.23176 -0.50426,-0.37438c-0.20884,-0.14262 -0.42532,-0.28931 -0.64943,-0.44009c-0.22412,-0.14975 -0.43296,-0.28575 -0.62652,-0.408M251.47629,203.59457h3.88897v0.72584h-3.88897v-0.72584M253.05022,203.96895l0.90921,0.10697c-0.07641,0.23431 -0.1528,0.46454 -0.22921,0.69069c-0.07641,0.22717 -0.14772,0.42226 -0.21393,0.58526l-0.70292,-0.13753c0.05093,-0.17828 0.09831,-0.38355 0.14211,-0.61582c0.04278,-0.23125 0.07437,-0.4411 0.09474,-0.62957M252.98909,206.0777h0.77168v1.44404c0,0.24449 -0.02547,0.49764 -0.07641,0.75946c-0.05093,0.26283 -0.1528,0.52006 -0.30562,0.77168c-0.1528,0.25264 -0.37285,0.49204 -0.66013,0.7182c-0.2883,0.22717 -0.67185,0.4299 -1.15065,0.60817c-0.05093,-0.08149 -0.12479,-0.1798 -0.22157,-0.29492c-0.09678,-0.11409 -0.19356,-0.20681 -0.29034,-0.27811c0.43296,-0.14772 0.77831,-0.31479 1.03604,-0.50121c0.25672,-0.1854 0.44875,-0.38151 0.57609,-0.58832c0.12734,-0.20578 0.21292,-0.41309 0.25672,-0.62193c0.04278,-0.20884 0.06418,-0.40494 0.06418,-0.58832v-1.42876M253.50864,209.21027l0.53483,-0.49663c0.14772,0.11715 0.30714,0.24704 0.47829,0.38966c0.17012,0.14262 0.33414,0.2827 0.49204,0.42022c0.1579,0.13753 0.28779,0.25977 0.38966,0.36674l-0.56539,0.55011c-0.09169,-0.11206 -0.21393,-0.2394 -0.36674,-0.38202c-0.1528,-0.14262 -0.31428,-0.28931 -0.4844,-0.44009c-0.17115,-0.14975 -0.33057,-0.28575 -0.47829,-0.408M251.73606,204.93164h3.33122v3.64448h-0.7946v-2.911h-1.78022v2.94156h-0.7564zM256.54188,203.90782l0.52719,-0.52719c0.14262,0.11206 0.29543,0.23532 0.45842,0.36979c0.163,0.13549 0.31734,0.26946 0.46301,0.40189c0.14466,0.13243 0.26028,0.25468 0.34688,0.36674l-0.55011,0.59595c-0.08149,-0.11206 -0.19254,-0.23838 -0.33312,-0.37896c-0.13957,-0.13957 -0.28931,-0.2832 -0.44926,-0.43092c-0.16096,-0.14772 -0.3153,-0.28015 -0.46301,-0.39731M257.06907,210.35633l-0.18337,-0.7946l0.19865,-0.29034l1.64269,-1.13843c0.01528,0.07641 0.0382,0.16146 0.06876,0.25519c0.03056,0.09474 0.06367,0.18643 0.09932,0.27505c0.03566,0.08965 0.06621,0.16249 0.09169,0.21851c-0.38202,0.26996 -0.69019,0.49153 -0.92449,0.66471c-0.23431,0.17318 -0.41666,0.31071 -0.54706,0.41259c-0.12937,0.10187 -0.22717,0.18337 -0.2934,0.24449c-0.06621,0.06113 -0.11715,0.11206 -0.1528,0.1528M255.93066,205.65748h1.65797v0.80988h-1.65797v-0.80988M258.42907,205.73388h4.56133v0.85573h-4.56133v-0.85573M260.30097,203.31951h0.87101v7.10559h-0.87101v-7.10559M257.06907,210.35633c-0.02038,-0.07131 -0.0545,-0.15535 -0.10238,-0.25214c-0.04889,-0.09678 -0.09984,-0.19101 -0.1528,-0.2827c-0.05399,-0.09169 -0.10646,-0.16555 -0.15739,-0.22157c0.08659,-0.06113 0.17726,-0.15179 0.27199,-0.27199c0.09373,-0.11919 0.14058,-0.26283 0.14058,-0.43092v-3.23954h0.83281v3.88133c0,0 -0.02801,0.01884 -0.08404,0.05654c-0.05603,0.03871 -0.12479,0.0871 -0.20629,0.14517c-0.08149,0.05909 -0.163,0.1253 -0.24449,0.19865c-0.08149,0.07437 -0.15128,0.1472 -0.20934,0.21851c-0.05909,0.07131 -0.08863,0.13753 -0.08863,0.19865zM264.25107,203.51816h5.63863v0.59595h-5.63863v-0.59595M264.58725,206.59725h5.67683v0.56539h-5.67683v-0.56539M265.28252,207.40713h4.56133v0.49663h-4.56133v-0.49663M264.57196,208.16353h5.98244v0.55011h-5.98244v-0.55011M264.76298,205.19141h1.61213v0.42787h-1.61213v-0.42787M264.59488,205.89433h1.78786v0.42022h-1.78786v-0.42022M267.74274,205.89433h1.81077v0.42022h-1.81077v-0.42022M267.74274,205.19141h1.62741v0.42787h-1.62741v-0.42787M266.65016,203.7703h0.80988v2.67415h-0.80988v-2.67415M263.76208,204.41973h6.63189v1.33707h-0.7946v-0.84809h-5.08087v0.84809h-0.7564v-1.33707M264.2205,206.59725h0.76404v1.05437c0,0.21393 -0.01273,0.44416 -0.0382,0.69069c-0.02547,0.24755 -0.07233,0.49867 -0.14058,0.75334c-0.06927,0.25468 -0.16656,0.50019 -0.29186,0.73654c-0.12429,0.23736 -0.28575,0.45282 -0.4844,0.64638c-0.04075,-0.05093 -0.09678,-0.11104 -0.16808,-0.18032c-0.07131,-0.06826 -0.14669,-0.13447 -0.22616,-0.19865c-0.07844,-0.06316 -0.14823,-0.11002 -0.20934,-0.14058c0.2394,-0.22921 0.41512,-0.4788 0.52719,-0.74876c0.11206,-0.26996 0.18439,-0.54145 0.21699,-0.81447c0.03361,-0.27199 0.05043,-0.52515 0.05043,-0.75946v-1.03909M267.73509,208.45387c0.1528,0.24959 0.36929,0.4569 0.64943,0.62193c0.28015,0.16605 0.61531,0.29593 1.00548,0.38966c0.38915,0.09474 0.82313,0.15739 1.30192,0.18795c-0.07131,0.07131 -0.14517,0.16808 -0.22157,0.29034c-0.07641,0.12225 -0.13753,0.23431 -0.18337,0.33618c-0.52464,-0.05603 -0.99223,-0.1528 -1.40278,-0.29034c-0.40953,-0.13753 -0.762,-0.32242 -1.05743,-0.55469c-0.29543,-0.23125 -0.53992,-0.51496 -0.73348,-0.85114l0.6418,-0.12989M269.51532,208.65252l0.60359,0.30562c-0.18337,0.12225 -0.37693,0.23532 -0.58067,0.33923c-0.20374,0.10493 -0.38966,0.1956 -0.55775,0.27199l-0.49663,-0.27505c0.11206,-0.06113 0.23075,-0.12887 0.35605,-0.20323c0.12429,-0.07335 0.24653,-0.14975 0.36674,-0.22921c0.11919,-0.07844 0.22209,-0.14823 0.30868,-0.20934M265.34365,210.4251l-0.0382,-0.53483l0.3209,-0.22157l2.10876,-0.29797c-0.02038,0.09169 -0.0382,0.19712 -0.05348,0.31631c-0.01528,0.12021 -0.02292,0.21851 -0.02292,0.29492c-0.46861,0.07641 -0.84655,0.13855 -1.13384,0.18643c-0.2883,0.04889 -0.5114,0.08863 -0.6693,0.11919c-0.1579,0.03056 -0.27251,0.05603 -0.34382,0.07641c-0.07131,0.02038 -0.12734,0.04075 -0.16808,0.06113M265.34365,210.4251c-0.02038,-0.06113 -0.05093,-0.13141 -0.09169,-0.21088c-0.04075,-0.07844 -0.08558,-0.15739 -0.13447,-0.23686c-0.04788,-0.07844 -0.09219,-0.14313 -0.13295,-0.19406c0.08659,-0.04584 0.1798,-0.12378 0.27964,-0.2338c0.09881,-0.10901 0.14823,-0.2501 0.14823,-0.42328v-0.73348l0.7946,0.01528v1.24538c0,0 -0.02954,0.01783 -0.08863,0.05348c-0.05807,0.03566 -0.12887,0.08404 -0.2124,0.14517c-0.08455,0.06113 -0.17012,0.12479 -0.25672,0.19101c-0.08659,0.06621 -0.15943,0.13345 -0.21851,0.20171c-0.05807,0.06927 -0.0871,0.12937 -0.0871,0.18032zM272.76249,205.4741h5.34066v0.64943h-5.34066v-0.64943M272.83126,207.69747h4.24807v0.64943h-4.24807v-0.64943M273.84743,204.924h0.77932v1.79549h1.52808v-1.79549h0.80225v2.42201h-3.10965v-2.42201M276.86539,207.69747h0.16045l0.14517,-0.03056l0.51191,0.26742c-0.20884,0.39731 -0.48135,0.73705 -0.81753,1.01923c-0.33618,0.2832 -0.7182,0.51903 -1.14606,0.70751c-0.42787,0.18846 -0.88884,0.33873 -1.38292,0.45078c-0.49408,0.11206 -1.00854,0.19865 -1.54337,0.25977c-0.03056,-0.09678 -0.07793,-0.21292 -0.14211,-0.3484c-0.06316,-0.13447 -0.12785,-0.24755 -0.19406,-0.33923c0.48898,-0.03566 0.96269,-0.09831 1.42112,-0.18795c0.45842,-0.08863 0.88221,-0.20681 1.27136,-0.35451c0.39017,-0.14772 0.73297,-0.33262 1.0284,-0.55469c0.29543,-0.22106 0.52464,-0.48186 0.68764,-0.78238v-0.10697M274.10721,208.19409c0.24959,0.29543 0.5822,0.54756 0.99784,0.7564c0.41462,0.20884 0.89444,0.3754 1.43946,0.49968c0.54501,0.1253 1.13078,0.21088 1.7573,0.25672c-0.05603,0.05603 -0.11461,0.12734 -0.17573,0.21393c-0.06113,0.08659 -0.11817,0.17318 -0.17115,0.25977c-0.05399,0.08659 -0.09627,0.16555 -0.12683,0.23686c-0.65198,-0.06621 -1.2571,-0.1798 -1.81536,-0.34077c-0.55724,-0.15994 -1.05489,-0.37387 -1.49294,-0.6418c-0.43805,-0.26691 -0.80988,-0.59137 -1.1155,-0.97339l0.70292,-0.26742M272.16654,203.97658h6.01301v0.76404h-6.01301v-0.76404M271.78452,203.97658h0.80988v2.04763c0,0.3158 -0.00866,0.66319 -0.02598,1.04215c-0.01834,0.37999 -0.05298,0.76862 -0.10391,1.16593c-0.05093,0.39731 -0.12479,0.78187 -0.22157,1.15371c-0.09678,0.37183 -0.22412,0.71311 -0.38202,1.02382c-0.05603,-0.04075 -0.12989,-0.08404 -0.22157,-0.12989c-0.09169,-0.04584 -0.18439,-0.09066 -0.27811,-0.13447c-0.09474,-0.04278 -0.17777,-0.07182 -0.24908,-0.0871c0.1528,-0.29543 0.27505,-0.61531 0.36674,-0.95963c0.09169,-0.34331 0.15943,-0.69579 0.20323,-1.05743c0.04278,-0.36165 0.0708,-0.71463 0.08404,-1.05896c0.01222,-0.34331 0.01834,-0.66013 0.01834,-0.95046v-2.05528M274.45867,203.42647l0.82516,-0.19101c0.08659,0.163 0.16707,0.34128 0.24144,0.53483c0.07335,0.19356 0.1253,0.3591 0.15586,0.49663l-0.87865,0.21393c-0.02038,-0.14262 -0.06367,-0.31325 -0.12989,-0.51191c-0.06621,-0.19865 -0.13753,-0.37948 -0.21393,-0.54247zM281.92335,205.09209h0.84809v2.03235h-0.84809v-2.03235M279.64651,205.50467h5.49346v0.68h-5.49346v-0.68M278.88246,206.69657h6.9757v0.69528h-6.9757v-0.69528M279.14988,207.9114h6.48672v0.69528h-6.48672v-0.69528M283.45144,207.28489h0.84044v2.26921c0,0.20374 -0.02649,0.36267 -0.07946,0.47676c-0.05399,0.11512 -0.15994,0.20323 -0.31784,0.26436c-0.1528,0.05603 -0.33719,0.09015 -0.55317,0.10238c-0.21699,0.01324 -0.4732,0.01987 -0.76862,0.01987c-0.02547,-0.11715 -0.06775,-0.24857 -0.12683,-0.39424c-0.05807,-0.14466 -0.11512,-0.26792 -0.17115,-0.36979c0.14262,0.0051 0.2827,0.00866 0.42022,0.0107c0.13753,0.00306 0.25825,0.00459 0.36216,0.00459c0.10493,0 0.18032,-0.00255 0.22616,-0.00764c0.06621,0 0.11104,-0.00917 0.13447,-0.0275c0.02242,-0.01732 0.03361,-0.05144 0.03361,-0.10238v-2.24628M279.82224,203.86198h2.45257v0.68h-2.45257v-0.68M282.83257,203.86198h2.97213v0.68h-2.97213v-0.68M279.91392,203.23546l0.78696,0.21393c-0.1579,0.37693 -0.35401,0.74214 -0.58832,1.09563c-0.23431,0.35451 -0.4737,0.65147 -0.7182,0.89087c-0.05603,-0.04584 -0.12479,-0.09678 -0.20629,-0.1528c-0.08149,-0.05603 -0.16555,-0.11206 -0.25214,-0.16808c-0.08659,-0.05603 -0.163,-0.10187 -0.22921,-0.13753c0.24959,-0.20884 0.48135,-0.47014 0.69528,-0.7839c0.21393,-0.31275 0.38457,-0.63211 0.51191,-0.95811M282.97773,203.23546l0.78696,0.19101c-0.13753,0.36674 -0.31325,0.71922 -0.52719,1.05743c-0.21393,0.33923 -0.4406,0.62091 -0.68,0.84503c-0.05093,-0.04584 -0.11868,-0.09831 -0.20323,-0.15739c-0.08353,-0.05807 -0.16758,-0.11512 -0.25214,-0.17115c-0.08353,-0.05603 -0.15841,-0.10187 -0.22462,-0.13753c0.23431,-0.19356 0.44926,-0.4355 0.64485,-0.72584c0.19661,-0.29034 0.3484,-0.59086 0.45537,-0.90157M280.16606,204.38917l0.66471,-0.25214c0.09169,0.14262 0.18337,0.30307 0.27505,0.48135c0.09169,0.17828 0.1579,0.33363 0.19865,0.46607l-0.70292,0.2827c-0.03056,-0.13243 -0.08914,-0.29034 -0.17573,-0.4737c-0.08659,-0.18337 -0.17318,-0.35146 -0.25977,-0.50426M283.45144,204.3968l0.66471,-0.25977c0.11715,0.13753 0.23838,0.29645 0.36368,0.47676c0.12429,0.18133 0.21699,0.34077 0.27811,0.47829l-0.70292,0.29034c-0.05093,-0.13243 -0.13396,-0.29186 -0.24908,-0.47829c-0.11409,-0.1854 -0.23227,-0.35451 -0.35451,-0.50732M280.18897,208.92758l0.59595,-0.46607c0.1528,0.10187 0.30817,0.21648 0.46607,0.34382c0.1579,0.12734 0.30562,0.25722 0.44315,0.38966c0.13753,0.13243 0.24449,0.25722 0.3209,0.37438l-0.62652,0.51955c-0.07641,-0.11715 -0.17929,-0.24602 -0.30868,-0.38661c-0.1304,-0.13957 -0.27199,-0.27709 -0.42481,-0.41259c-0.1528,-0.13447 -0.30817,-0.25519 -0.46607,-0.36216zM288.08917,206.13883c-0.18846,0 -0.35044,-0.06367 -0.48593,-0.19101c-0.13447,-0.12734 -0.20171,-0.28779 -0.20171,-0.48135c0,-0.19865 0.06724,-0.36317 0.20171,-0.49357c0.13549,-0.12937 0.29747,-0.19406 0.48593,-0.19406c0.18846,0 0.35044,0.06469 0.48593,0.19406c0.13447,0.1304 0.20171,0.29492 0.20171,0.49357c0,0.19356 -0.06724,0.35401 -0.20171,0.48135c-0.13549,0.12734 -0.29747,0.19101 -0.48593,0.19101M288.08917,209.81387c-0.18846,0 -0.35044,-0.06367 -0.48593,-0.19101c-0.13447,-0.12734 -0.20171,-0.28779 -0.20171,-0.48135c0,-0.20374 0.06724,-0.36929 0.20171,-0.49663c0.13549,-0.12734 0.29747,-0.19101 0.48593,-0.19101c0.18846,0 0.35044,0.06367 0.48593,0.19101c0.13447,0.12734 0.20171,0.29288 0.20171,0.49663c0,0.19356 -0.06724,0.35401 -0.20171,0.48135c-0.13549,0.12734 -0.29747,0.19101 -0.48593,0.19101zM294.18622,205.97838h6.94514v0.80988h-6.94514v-0.80988M294.64465,203.77793h6.0665v0.80225h-6.0665v-0.80225M297.68554,206.64309h0.85573v2.46022c0,0.14262 0.02547,0.23278 0.07641,0.27047c0.05093,0.03871 0.16045,0.05807 0.32853,0.05807c0.04075,0 0.10849,0 0.20323,0c0.09373,0 0.19661,0 0.30868,0c0.11206,0 0.218,0 0.31784,0c0.09881,0 0.17115,0 0.21699,0c0.11206,0 0.19611,-0.027 0.25214,-0.08099c0.05603,-0.05298 0.09525,-0.16351 0.11767,-0.33159c0.02343,-0.16808 0.04278,-0.41767 0.05807,-0.74876c0.06113,0.04584 0.13906,0.09169 0.2338,0.13753c0.09373,0.04584 0.1905,0.08659 0.29034,0.12225c0.09881,0.03566 0.18643,0.06367 0.26283,0.08404c-0.03056,0.42277 -0.08404,0.75233 -0.16045,0.98867c-0.07641,0.23736 -0.19254,0.40189 -0.3484,0.49357c-0.15485,0.09169 -0.36725,0.13753 -0.63721,0.13753c-0.03566,0 -0.09525,0 -0.17878,0c-0.08455,0 -0.17777,0 -0.27964,0c-0.10187,0 -0.20527,0 -0.3102,0c-0.10391,0 -0.19661,0 -0.27811,0c-0.08149,0 -0.14007,0 -0.17573,0c-0.30562,0 -0.54247,-0.03464 -0.71056,-0.10391c-0.16808,-0.06826 -0.28371,-0.18388 -0.34688,-0.34688c-0.06418,-0.163 -0.09627,-0.38711 -0.09627,-0.67236v-2.46785M297.09722,204.09883h0.84044c-0.01018,0.39221 -0.02801,0.78798 -0.05348,1.18732c-0.02547,0.40036 -0.07233,0.80021 -0.14058,1.19954c-0.06927,0.40036 -0.17522,0.79001 -0.31784,1.16899c-0.14262,0.37999 -0.33363,0.73908 -0.57304,1.0773c-0.2394,0.33923 -0.54094,0.65147 -0.90463,0.93672c-0.36471,0.28524 -0.80683,0.53483 -1.32638,0.74876c-0.06113,-0.10697 -0.14262,-0.22666 -0.24449,-0.3591c-0.10187,-0.13243 -0.20629,-0.24194 -0.31325,-0.32853c0.49918,-0.18337 0.9194,-0.40239 1.26067,-0.65708c0.34128,-0.25468 0.61989,-0.53381 0.83586,-0.83739c0.21699,-0.30256 0.38813,-0.62346 0.51344,-0.96269c0.12429,-0.33822 0.21444,-0.6856 0.27047,-1.04215c0.05603,-0.35655 0.09321,-0.71463 0.11155,-1.07424c0.01732,-0.35859 0.03107,-0.71107 0.04126,-1.05743z" fill="#ffffff" fill-rule="nonzero" stroke-width="1"/></g></g></svg>