<svg version="1.1" xmlns="http://www.w3.org/2000/svg" xmlns:xlink="http://www.w3.org/1999/xlink" width="168.1" height="32.878" viewBox="0,0,168.1,32.878"><g transform="translate(-240,-180)"><g stroke="none" stroke-miterlimit="10"><path d="M248,180h152.1c4.432,0 8,3.568 8,8v16.878c0,4.432 -3.568,8 -8,8h-152.1c-4.432,0 -8,-3.568 -8,-8v-16.878c0,-4.432 3.568,-8 8,-8z" fill-opacity="0.7" fill="#000000" fill-rule="evenodd" stroke-width="0"/><path d="M249.90195,186.97075h1.08479v3.73239h-1.08479v-3.73239M246.85904,187.69701l0.90093,-0.34934c0.16547,0.20837 0.32359,0.43821 0.47436,0.68948c0.14954,0.25127 0.28438,0.49643 0.4045,0.73545c0.1189,0.23902 0.21205,0.45658 0.27947,0.6527l-0.95609,0.41369c-0.05516,-0.20225 -0.14096,-0.42779 -0.2574,-0.67661c-0.11644,-0.2476 -0.24638,-0.5001 -0.38979,-0.75751c-0.14464,-0.25741 -0.29663,-0.49336 -0.45598,-0.70787M253.00921,187.26493l1.09398,0.32176c-0.13483,0.26967 -0.27579,0.54361 -0.42288,0.82186c-0.14709,0.27947 -0.29418,0.54485 -0.44127,0.79613c-0.14709,0.25127 -0.28805,0.47498 -0.42288,0.6711l-0.87334,-0.31257c0.1287,-0.20837 0.25863,-0.44434 0.38978,-0.70787c0.13238,-0.26353 0.25863,-0.53503 0.37876,-0.8145c0.1189,-0.27824 0.21818,-0.53688 0.29785,-0.7759M247.05209,190.17914h6.90401v5.37795h-1.0572v-4.3851h-5.84681v-0.99285M247.36466,192.14646h5.92035v0.95608h-5.92035v-0.95608M246.84985,194.18733h6.60063v0.98366h-6.60063zM255.56489,188.28537h8.16347v0.94688h-8.16347v-0.94688M258.52507,191.25473h4.82637v0.91012h-4.82637v-0.91012M258.16654,194.40796h5.53424v0.91931h-5.53424v-0.91931M260.45562,189.65514h0.99285v5.24926h-0.99285v-5.24926M258.49749,186.97075l1.02963,0.23902c-0.22064,0.72932 -0.50071,1.4476 -0.84024,2.15486c-0.34076,0.70848 -0.75016,1.36915 -1.2282,1.98203c-0.47804,0.61288 -1.03882,1.14301 -1.68234,1.59041c-0.03064,-0.09193 -0.07538,-0.19612 -0.13421,-0.31257c-0.05761,-0.11644 -0.11706,-0.23167 -0.17835,-0.34566c-0.06129,-0.11277 -0.11644,-0.20898 -0.16548,-0.28866c0.41676,-0.26967 0.79367,-0.59633 1.13075,-0.97998c0.33708,-0.38243 0.63862,-0.79735 0.9046,-1.24474c0.26722,-0.4474 0.49705,-0.90889 0.68948,-1.38448c0.19367,-0.47437 0.35179,-0.94443 0.47436,-1.41022M256.66806,190.80427h0.99286v4.72525h-0.99286zM264.61089,188.65309h2.80389v0.91931h-2.80389v-0.91931M265.72326,186.97075h0.90092v8.57716h-0.90092v-8.57716M265.70487,189.31499l0.54239,0.20225c-0.05516,0.35547 -0.12687,0.72625 -0.21512,1.11236c-0.08948,0.38611 -0.18938,0.76425 -0.29969,1.13443c-0.11032,0.3714 -0.23166,0.71645 -0.36404,1.03514c-0.13115,0.31869 -0.27028,0.59142 -0.41737,0.81818c-0.03064,-0.09806 -0.07232,-0.20715 -0.12502,-0.32727c-0.05148,-0.1189 -0.10603,-0.23841 -0.16364,-0.35853c-0.05883,-0.1189 -0.11583,-0.22125 -0.17099,-0.30705c0.13483,-0.18999 0.26354,-0.41553 0.38611,-0.67661c0.12257,-0.25986 0.23718,-0.53871 0.34382,-0.83657c0.10787,-0.29663 0.20286,-0.6 0.28499,-0.91011c0.08335,-0.30889 0.14954,-0.6043 0.19857,-0.88622M266.58741,189.84819c0.04903,0.06129 0.12441,0.1667 0.22615,0.31624c0.10051,0.15077 0.21082,0.31501 0.33095,0.49275c0.1189,0.17774 0.22738,0.34137 0.32544,0.49091c0.09806,0.15077 0.16548,0.25986 0.20225,0.32728l-0.56997,0.6711c-0.04903,-0.12258 -0.1146,-0.27273 -0.19673,-0.45046c-0.08335,-0.17774 -0.17221,-0.36159 -0.2666,-0.55158c-0.09561,-0.18999 -0.18754,-0.36956 -0.27579,-0.53871c-0.08948,-0.16792 -0.16486,-0.30399 -0.22615,-0.40817l0.45046,-0.34933M270.32899,187.25574c0.15322,0.21451 0.34199,0.43514 0.5663,0.6619c0.22309,0.22677 0.46333,0.44862 0.72074,0.66558c0.25741,0.21818 0.524,0.4192 0.7998,0.60306c0.2758,0.18386 0.54239,0.34321 0.7998,0.47804c-0.05516,0.07968 -0.11338,0.17589 -0.17467,0.28867c-0.06129,0.11399 -0.11767,0.22922 -0.16915,0.34566c-0.05271,0.11644 -0.09438,0.22064 -0.12502,0.31257c-0.37385,-0.23902 -0.75506,-0.51788 -1.14362,-0.83657c-0.38979,-0.31869 -0.75751,-0.65577 -1.10317,-1.01124c-0.34688,-0.35547 -0.6429,-0.69562 -0.88806,-1.02043l0.71706,-0.48723M269.86934,186.87882l0.85496,0.32176c-0.24515,0.45965 -0.53933,0.90828 -0.88254,1.34587c-0.34321,0.43882 -0.70909,0.84515 -1.09765,1.219c-0.38979,0.37385 -0.78387,0.69868 -1.18223,0.97447c-0.03677,-0.06742 -0.08886,-0.152 -0.15628,-0.25373c-0.06741,-0.10051 -0.1379,-0.20286 -0.21144,-0.30705c-0.07355,-0.10419 -0.13789,-0.18693 -0.19305,-0.24822c0.37385,-0.23289 0.74034,-0.50868 1.09949,-0.82737c0.35791,-0.31869 0.69009,-0.66804 0.99653,-1.04802c0.30644,-0.37998 0.56385,-0.77222 0.77222,-1.17671M268.51796,189.79303h3.22677v0.83657h-3.22677v-0.83657M267.85605,191.54891l0.76303,-0.20225c0.07968,0.23289 0.15628,0.48111 0.22983,0.74464c0.07355,0.26353 0.14096,0.52094 0.20225,0.77221c0.06129,0.25127 0.10419,0.47498 0.1287,0.6711l-0.7998,0.22063c-0.02452,-0.20225 -0.06435,-0.42901 -0.11951,-0.68029c-0.05516,-0.25127 -0.11828,-0.51175 -0.18937,-0.78141c-0.06986,-0.26967 -0.14157,-0.51788 -0.21512,-0.74464M269.61193,191.28231l0.76303,-0.11031c0.06129,0.23289 0.11829,0.47926 0.171,0.73913c0.05148,0.26109 0.09867,0.51542 0.14157,0.76302c0.0429,0.24883 0.07049,0.4713 0.08274,0.66742l-0.7998,0.1287c-0.01225,-0.19612 -0.03678,-0.42166 -0.07355,-0.67661c-0.03677,-0.25373 -0.07967,-0.51236 -0.1287,-0.77589c-0.04903,-0.26353 -0.10113,-0.50869 -0.15629,-0.73545M271.85505,191.172l0.86415,0.19305c-0.14709,0.36773 -0.30644,0.75199 -0.47804,1.15281c-0.1716,0.40204 -0.34627,0.78693 -0.524,1.15465c-0.17773,0.36773 -0.34628,0.68948 -0.50562,0.96527l-0.70787,-0.20225c0.12257,-0.21451 0.24699,-0.45659 0.37324,-0.72626c0.12502,-0.26967 0.24883,-0.55343 0.3714,-0.85128c0.12257,-0.29663 0.23595,-0.58897 0.34015,-0.87702c0.10419,-0.28805 0.19306,-0.55772 0.2666,-0.80899M267.40559,194.29765h5.46988v0.86415h-5.46988zM277.87652,194.00347l0.59755,-0.35853c0.14709,0.14709 0.29724,0.30643 0.45046,0.47804c0.15322,0.1716 0.29724,0.34137 0.43207,0.5093c0.13483,0.16915 0.24208,0.31808 0.32175,0.44679l-0.62513,0.41369c-0.07968,-0.13483 -0.18386,-0.28989 -0.31257,-0.46517c-0.12871,-0.17406 -0.26966,-0.35179 -0.42288,-0.5332c-0.15322,-0.18018 -0.30031,-0.34382 -0.44127,-0.49091M276.24934,187.47637h3.22677v5.92035h-0.77222v-5.21248h-1.70991v5.24925h-0.74464v-5.95712M281.25958,187.10865h0.78141v7.41882c0,0.23289 -0.02757,0.41369 -0.08273,0.54239c-0.05516,0.1287 -0.15015,0.22676 -0.28499,0.29418c-0.13483,0.06742 -0.31379,0.11155 -0.53688,0.13238c-0.22431,0.02206 -0.50195,0.03003 -0.8329,0.0239c-0.01839,-0.10419 -0.05209,-0.23596 -0.10112,-0.39531c-0.04903,-0.15935 -0.10112,-0.29724 -0.15628,-0.41369c0.22677,0.00613 0.43698,0.00919 0.63065,0.00919c0.19244,0 0.32543,0 0.39898,0c0.12257,0 0.18386,-0.06128 0.18386,-0.18386v-7.42801M280.00012,187.81652h0.75384v5.61698h-0.75384v-5.61698M277.46283,188.73583h0.72625v3.4566c0,0.30643 -0.02451,0.61594 -0.07354,0.92851c-0.04903,0.31257 -0.13912,0.61899 -0.27028,0.9193c-0.13238,0.30031 -0.32543,0.57917 -0.57916,0.83658c-0.25495,0.25741 -0.58775,0.48416 -0.99837,0.68028c-0.02452,-0.05516 -0.06251,-0.12257 -0.11399,-0.20225c-0.05271,-0.07968 -0.10787,-0.15812 -0.16548,-0.23534c-0.05883,-0.076 -0.10971,-0.13238 -0.1526,-0.16915c0.36773,-0.1716 0.66068,-0.36344 0.87886,-0.57549c0.21695,-0.21083 0.37937,-0.43575 0.48723,-0.67477c0.10664,-0.23902 0.17712,-0.48723 0.21144,-0.74464c0.0331,-0.25741 0.04964,-0.51481 0.04964,-0.77222v-3.44741M274.07977,187.77055l0.57916,-0.71706c0.15934,0.07968 0.33586,0.17467 0.52953,0.28499c0.19244,0.11032 0.37936,0.22063 0.56077,0.33095c0.18018,0.11032 0.32544,0.21144 0.43575,0.30337l-0.60674,0.7998c-0.10419,-0.09806 -0.24208,-0.20715 -0.41369,-0.32728c-0.1716,-0.1189 -0.35363,-0.23657 -0.54607,-0.35301c-0.19367,-0.11644 -0.37324,-0.2237 -0.53872,-0.32176M273.71205,190.2343l0.55159,-0.70787c0.16548,0.07968 0.34504,0.1716 0.53871,0.27579c0.19244,0.10419 0.37753,0.20838 0.55526,0.31257c0.17773,0.10419 0.32788,0.19918 0.45046,0.28499l-0.58835,0.7906c-0.10419,-0.09193 -0.24515,-0.1949 -0.42289,-0.30889c-0.17773,-0.11277 -0.36159,-0.22615 -0.55158,-0.34014c-0.18999,-0.11277 -0.36772,-0.21512 -0.5332,-0.30705M273.87753,194.94116c0.11644,-0.23902 0.24515,-0.52095 0.38611,-0.84577c0.14096,-0.32482 0.28192,-0.66987 0.42288,-1.03514c0.14096,-0.36405 0.27273,-0.72074 0.39531,-1.07008l0.79061,0.50562c-0.10419,0.32482 -0.21757,0.65884 -0.34015,1.00205c-0.12257,0.34321 -0.24944,0.68029 -0.3806,1.01124c-0.13238,0.33095 -0.25986,0.64352 -0.38243,0.9377zM283.42914,191.75116h4.36672v0.85496h-4.36672v-0.85496M285.14825,190.87782h0.93769v3.67723h-0.93769v-3.67723M283.11658,194.26087c0.39837,-0.05516 0.85986,-0.12564 1.38448,-0.21144c0.52339,-0.0858 1.07621,-0.17957 1.65843,-0.28131c0.58223,-0.10051 1.16139,-0.19979 1.73749,-0.29785l0.05516,0.84577c-0.54546,0.10419 -1.09398,0.20838 -1.64556,0.31257c-0.55158,0.10419 -1.07988,0.20347 -1.58489,0.29785c-0.50624,0.09561 -0.96773,0.18018 -1.38448,0.25373l-0.22063,-0.91931M283.20851,187.53153h4.78041v0.85496h-4.78041v-0.85496M285.94805,188.88292l0.69867,-0.42288c0.1716,0.20225 0.34321,0.42288 0.51481,0.6619c0.1716,0.23902 0.33095,0.47313 0.47804,0.70235c0.14709,0.23044 0.26047,0.43759 0.34015,0.62145l-0.75383,0.48723c-0.07355,-0.18386 -0.1808,-0.3953 -0.32176,-0.63432c-0.14096,-0.23902 -0.2954,-0.48295 -0.46333,-0.73177c-0.16915,-0.2476 -0.33341,-0.47559 -0.49275,-0.68397M288.39341,187.80733h0.91011v5.58021h-0.91011v-5.58021M290.16768,187.09026h0.96528v7.17061c0,0.26353 -0.03186,0.46885 -0.0956,0.61594c-0.06496,0.14709 -0.18019,0.26047 -0.34566,0.34015c-0.16548,0.07354 -0.37691,0.12257 -0.63432,0.14709c-0.25741,0.02452 -0.56385,0.03677 -0.91931,0.03677c-0.01839,-0.13483 -0.06129,-0.29418 -0.12871,-0.47804c-0.06741,-0.18386 -0.13789,-0.34321 -0.21144,-0.47804c0.25128,0.00613 0.48723,0.01042 0.70787,0.01287c0.22064,0.00367 0.37079,0.00552 0.45046,0.00552c0.0858,0 0.1428,-0.01532 0.17099,-0.04596c0.02697,-0.03064 0.04045,-0.0858 0.04045,-0.16548v-7.16142M283.70494,190.82266c-0.01839,-0.06742 -0.04597,-0.15505 -0.08274,-0.26292c-0.03677,-0.10664 -0.07477,-0.21819 -0.11399,-0.33463c-0.04045,-0.11644 -0.07907,-0.21757 -0.11584,-0.30337c0.06741,-0.01838 0.1379,-0.06312 0.21144,-0.13422c0.07355,-0.06986 0.14709,-0.1569 0.22063,-0.26109c0.04903,-0.07354 0.12748,-0.19918 0.23535,-0.37691c0.10664,-0.17774 0.21818,-0.38795 0.33462,-0.63065c0.11644,-0.24147 0.21758,-0.49091 0.30338,-0.74832l0.95608,0.35853c-0.12257,0.25741 -0.26169,0.5191 -0.41736,0.78509c-0.1569,0.26721 -0.31931,0.52156 -0.48723,0.76303c-0.16915,0.2427 -0.33647,0.45904 -0.50195,0.64903v0.01838c0,0 -0.02758,0.01532 -0.08274,0.04596c-0.05516,0.03064 -0.11767,0.07048 -0.18754,0.11951c-0.0711,0.04903 -0.13422,0.10113 -0.18938,0.15629c-0.05516,0.05516 -0.08274,0.10725 -0.08274,0.15628M283.70494,190.82266l-0.01838,-0.68948l0.45965,-0.29418l2.87743,-0.19306c0.05516,0.12258 0.12257,0.25557 0.20225,0.39898c0.07968,0.14464 0.14709,0.26598 0.20225,0.36404c-0.60674,0.05516 -1.11849,0.10113 -1.53524,0.1379c-0.41676,0.03677 -0.75506,0.06742 -1.01492,0.09193c-0.26108,0.02452 -0.46823,0.04596 -0.62145,0.06435c-0.15322,0.01838 -0.26966,0.03678 -0.34934,0.05516c-0.07968,0.01838 -0.14709,0.03983 -0.20225,0.06435zM293.00834,187.24655h6.7845v0.71706h-6.7845v-0.71706M293.41284,190.95136h6.83047v0.68029h-6.83047v-0.68029M294.24941,191.92583h5.48827v0.59755h-5.48827v-0.59755M293.39445,192.83595h7.19819v0.6619h-7.19819v-0.6619M293.62428,189.25983h1.93974v0.51481h-1.93974v-0.51481M293.42203,190.1056h2.15118v0.50562h-2.15118v-0.50562M297.20958,190.1056h2.17876v0.50562h-2.17876v-0.50562M297.20958,189.25983h1.95813v0.51481h-1.95813v-0.51481M295.89497,187.54992h0.97447v3.21759h-0.97447v-3.21759M292.41999,188.33133h7.9796v1.60879h-0.95608v-1.02043h-6.1134v1.02043h-0.91012v-1.60879M292.97157,190.95136h0.91931v1.26865c0,0.25741 -0.01532,0.53442 -0.04597,0.83105c-0.03064,0.29785 -0.08702,0.60001 -0.16915,0.90644c-0.08335,0.30643 -0.1998,0.60184 -0.34934,0.88621c-0.15076,0.2856 -0.34566,0.54485 -0.58468,0.77774c-0.04903,-0.06129 -0.11644,-0.13361 -0.20225,-0.21696c-0.0858,-0.08212 -0.1759,-0.1618 -0.27028,-0.23902c-0.09561,-0.076 -0.18018,-0.13238 -0.25373,-0.16915c0.28805,-0.27579 0.49949,-0.57611 0.63432,-0.90093c0.13483,-0.32482 0.22247,-0.65148 0.26292,-0.97998c0.03922,-0.32727 0.05883,-0.63188 0.05883,-0.9138v-1.25026M297.20039,193.18528c0.18386,0.30031 0.44433,0.54975 0.78141,0.74832c0.33708,0.19979 0.74035,0.35607 1.20981,0.46884c0.46823,0.11399 0.99041,0.18938 1.56651,0.22615c-0.0858,0.0858 -0.17467,0.20225 -0.2666,0.34933c-0.09193,0.14709 -0.16548,0.28192 -0.22064,0.4045c-0.63126,-0.06742 -1.19326,-0.18386 -1.68601,-0.34934c-0.49397,-0.16547 -0.9187,-0.38795 -1.27417,-0.66742c-0.35546,-0.27824 -0.64964,-0.61962 -0.88253,-1.02411l0.77222,-0.15628M299.34238,193.4243l0.72625,0.36772c-0.22064,0.14709 -0.45352,0.28315 -0.69867,0.40817c-0.24515,0.12625 -0.46884,0.23534 -0.67109,0.32727l-0.59755,-0.33095c0.13483,-0.07354 0.27702,-0.15505 0.42656,-0.24453c0.15076,-0.08826 0.29847,-0.18019 0.44311,-0.2758c0.14341,-0.09438 0.26721,-0.17834 0.3714,-0.25189M294.32295,195.5571l-0.04597,-0.64352l0.38611,-0.2666l2.53729,-0.35853c-0.02452,0.11032 -0.04596,0.23719 -0.06435,0.38059c-0.01839,0.14464 -0.02758,0.26292 -0.02758,0.35485c-0.56384,0.09193 -1.01859,0.1667 -1.36425,0.22431c-0.34688,0.05883 -0.61532,0.10664 -0.80532,0.14341c-0.18999,0.03677 -0.32789,0.06741 -0.41369,0.09193c-0.0858,0.02452 -0.15322,0.04903 -0.20225,0.07354M294.32295,195.5571c-0.02452,-0.07354 -0.06128,-0.15812 -0.11032,-0.25373c-0.04903,-0.09438 -0.10235,-0.18938 -0.15996,-0.28499c-0.05883,-0.09438 -0.11277,-0.17221 -0.1618,-0.2335c0.10419,-0.05516 0.21635,-0.14893 0.33647,-0.28131c0.1189,-0.13116 0.17834,-0.30093 0.17834,-0.5093v-0.88253l0.95608,0.01838v1.49848c0,0 -0.03493,0.02145 -0.1048,0.06435c-0.0711,0.0429 -0.1569,0.10112 -0.25741,0.17467c-0.10174,0.07354 -0.2047,0.15015 -0.30889,0.22983c-0.10419,0.07968 -0.19122,0.16057 -0.26108,0.24269c-0.0711,0.08335 -0.10664,0.15566 -0.10664,0.21696zM305.64884,189.00243h3.63127v0.94689h-3.63127v-0.94689M308.77449,189.00243h0.96527c0,0 0,0.0288 0,0.08641c0,0.05883 -0.00122,0.12502 -0.00367,0.19857c-0.00367,0.07354 -0.00552,0.13177 -0.00552,0.17467c-0.02452,0.93769 -0.05026,1.73259 -0.07722,2.38468c-0.02819,0.65332 -0.06068,1.19143 -0.09744,1.61431c-0.03677,0.42288 -0.08274,0.75383 -0.1379,0.99285c-0.05516,0.23902 -0.12257,0.41063 -0.20225,0.51481c-0.10419,0.14709 -0.21267,0.24944 -0.32544,0.30705c-0.11399,0.05883 -0.25067,0.10358 -0.41001,0.13422c-0.14709,0.01838 -0.33095,0.02881 -0.55158,0.03126c-0.22064,0.00367 -0.45047,-0.00062 -0.68948,-0.01287c-0.01225,-0.14096 -0.04412,-0.30337 -0.0956,-0.48723c-0.05271,-0.18386 -0.12196,-0.34321 -0.20776,-0.47804c0.23289,0.01838 0.44617,0.0288 0.63984,0.03125c0.19244,0.00367 0.33769,0.00552 0.43575,0.00552c0.07968,0.00613 0.14587,-0.00183 0.19857,-0.0239c0.05148,-0.02084 0.10174,-0.0619 0.15077,-0.12319c0.05516,-0.06742 0.10419,-0.20837 0.14709,-0.42288c0.0429,-0.21451 0.07967,-0.52094 0.11032,-0.91931c0.03064,-0.39837 0.05822,-0.90888 0.08274,-1.53157c0.02452,-0.62145 0.04903,-1.37652 0.07355,-2.26518v-0.21144M306.7704,187.13623h0.97447c0,0.69254 -0.00797,1.36977 -0.0239,2.03167c-0.01471,0.6619 -0.05271,1.29745 -0.11399,1.90664c-0.06129,0.61042 -0.15935,1.18837 -0.29418,1.73382c-0.13483,0.54546 -0.3187,1.04801 -0.55159,1.50767c-0.23289,0.45965 -0.53319,0.87028 -0.90092,1.23188c-0.05516,-0.0858 -0.12564,-0.17651 -0.21144,-0.27212c-0.0858,-0.09438 -0.17467,-0.18448 -0.2666,-0.27028c-0.09193,-0.0858 -0.1808,-0.15322 -0.2666,-0.20225c0.33708,-0.31869 0.61165,-0.6852 0.8237,-1.0995c0.21083,-0.41307 0.37324,-0.8666 0.48723,-1.36057c0.11277,-0.49275 0.19366,-1.01983 0.24269,-1.58122c0.04903,-0.56017 0.07783,-1.14546 0.08641,-1.75588c0.0098,-0.60919 0.01471,-1.23248 0.01471,-1.86987M301.76936,187.69701h3.60369v0.87335h-3.60369v-0.87335M301.45679,189.84819h4.07253v0.89173h-4.07253v-0.89173M304.12279,191.60407l0.7998,-0.22064c0.11032,0.26353 0.2237,0.54668 0.34015,0.84944c0.11644,0.30399 0.2237,0.59816 0.32175,0.88254c0.09806,0.2856 0.1716,0.53259 0.22064,0.74096l-0.85496,0.27579c-0.0429,-0.21451 -0.10848,-0.46762 -0.19673,-0.75935c-0.08948,-0.2905 -0.18938,-0.59081 -0.29969,-0.90093c-0.11032,-0.30889 -0.22063,-0.59816 -0.33095,-0.86783M301.8429,194.51828l-0.09193,-0.82738l0.43207,-0.32176l2.97856,-0.68028c0.01225,0.12258 0.03249,0.2666 0.06068,0.43207c0.02697,0.16547 0.05577,0.30031 0.08641,0.40449c-0.56384,0.13483 -1.03575,0.25127 -1.41573,0.34933c-0.37998,0.09806 -0.69254,0.1808 -0.9377,0.24821c-0.24515,0.06742 -0.43944,0.12564 -0.58285,0.17467c-0.14464,0.04903 -0.25679,0.08886 -0.33646,0.11951c-0.07968,0.03064 -0.14402,0.06436 -0.19306,0.10112M301.83371,194.51828c-0.01225,-0.06742 -0.03678,-0.15628 -0.07355,-0.2666c-0.03677,-0.11032 -0.07661,-0.22248 -0.11951,-0.33647c-0.0429,-0.11277 -0.08274,-0.20898 -0.11951,-0.28866c0.0858,-0.02452 0.16242,-0.09071 0.22983,-0.19857c0.06741,-0.10664 0.14096,-0.24576 0.22063,-0.41737c0.03677,-0.0858 0.08764,-0.2237 0.1526,-0.41369c0.06374,-0.18999 0.13422,-0.41246 0.21144,-0.66742c0.07599,-0.25373 0.15076,-0.52953 0.22431,-0.82738c0.07355,-0.29663 0.13483,-0.58897 0.18386,-0.87702l0.97447,0.27579c-0.09193,0.40449 -0.20531,0.81512 -0.34015,1.23187c-0.13483,0.41675 -0.27886,0.81818 -0.43207,1.2043c-0.15322,0.38611 -0.30644,0.73238 -0.45965,1.03882v0.02758c0,0 -0.03371,0.01655 -0.10113,0.04964c-0.06741,0.03432 -0.14402,0.07906 -0.22983,0.13422c-0.0858,0.05516 -0.16119,0.11154 -0.22615,0.16915c-0.06374,0.05883 -0.09561,0.11277 -0.09561,0.1618zM311.48645,188.46004h2.81309v6.14098h-2.81309v-0.87335h1.91216v-4.40349h-1.91216v-0.86415M310.90729,188.46004h0.90092v6.83965h-0.90092v-6.83965M311.44049,190.94217h2.40859v0.85496h-2.40859v-0.85496M312.24028,186.96156l1.0756,0.16548c-0.09806,0.30031 -0.20225,0.60184 -0.31257,0.9046c-0.11032,0.30399 -0.21145,0.56323 -0.30338,0.77774l-0.7906,-0.18386c0.0429,-0.15322 0.08703,-0.32789 0.13238,-0.52401c0.04658,-0.19612 0.08826,-0.39408 0.12502,-0.59387c0.03677,-0.19857 0.06129,-0.3806 0.07354,-0.54607M315.5406,188.40488h2.73035v0.90092h-2.73035v-0.90092M317.92161,188.40488h0.91931c0,0 0,0.0288 0,0.08641c0,0.05883 0,0.12319 0,0.19306c0,0.0711 -0.00306,0.12809 -0.00919,0.17099c-0.03064,1.04189 -0.06251,1.92442 -0.09561,2.64761c-0.03432,0.72319 -0.07416,1.31767 -0.11951,1.78346c-0.04658,0.46579 -0.10051,0.8286 -0.1618,1.08846c-0.06129,0.26109 -0.14096,0.45291 -0.23902,0.57549c-0.12257,0.16547 -0.24821,0.27885 -0.37691,0.34015c-0.12871,0.06129 -0.28499,0.10725 -0.46885,0.13789c-0.16548,0.01838 -0.37691,0.02758 -0.63432,0.02758c-0.25741,0 -0.52095,-0.00613 -0.79061,-0.01839c-0.00613,-0.13483 -0.03799,-0.29418 -0.0956,-0.47804c-0.05883,-0.18386 -0.13729,-0.34321 -0.23534,-0.47804c0.30031,0.02452 0.5761,0.03983 0.82738,0.04596c0.25128,0.00613 0.43514,0.0092 0.55158,0.0092c0.09193,0 0.16732,-0.01103 0.22615,-0.0331c0.05761,-0.02084 0.11705,-0.0619 0.17834,-0.12319c0.07355,-0.0858 0.1379,-0.25311 0.19306,-0.50194c0.05516,-0.2476 0.10112,-0.59816 0.13789,-1.05169c0.03677,-0.45353 0.07232,-1.02962 0.10664,-1.7283c0.0331,-0.69868 0.0619,-1.53218 0.08641,-2.50052v-0.19305M315.61415,186.96156l0.94689,0.22064c-0.11644,0.45353 -0.25556,0.90214 -0.41737,1.34587c-0.16303,0.44494 -0.34259,0.86354 -0.53871,1.25577c-0.19612,0.39224 -0.39837,0.73545 -0.60675,1.02963c-0.06129,-0.05516 -0.14096,-0.11951 -0.23902,-0.19306c-0.09806,-0.07354 -0.19918,-0.14586 -0.30338,-0.21696c-0.10419,-0.06986 -0.19305,-0.12319 -0.2666,-0.15996c0.20225,-0.26353 0.39408,-0.57181 0.57549,-0.92482c0.18018,-0.35179 0.3426,-0.72993 0.48723,-1.13442c0.14341,-0.40449 0.26415,-0.81206 0.36221,-1.22268M315.17288,190.97894l0.77222,-0.43207c0.15322,0.20837 0.3187,0.43943 0.49643,0.69316c0.17773,0.25495 0.34504,0.5001 0.50194,0.73544c0.15567,0.23657 0.27947,0.44679 0.3714,0.63065l-0.83657,0.51481c-0.0858,-0.18999 -0.20225,-0.40756 -0.34933,-0.65271c-0.14709,-0.24515 -0.3046,-0.49826 -0.47253,-0.75935c-0.16915,-0.25986 -0.33034,-0.50317 -0.48356,-0.72993zM325.1198,186.97075h0.9285v6.46274h-0.9285v-6.46274M322.34349,190.69396l4.81718,-2.04087l0.36773,0.84576l-4.81718,2.06844l-0.36773,-0.87334M323.28118,187.85329h0.93769v6.01228c0,0.1716 0.01532,0.30153 0.04597,0.38979c0.03064,0.08948 0.095,0.14954 0.19306,0.18018c0.09806,0.03064 0.24208,0.04596 0.43207,0.04596c0.05516,0 0.14587,0 0.27212,0c0.12502,0 0.26721,0 0.42656,0c0.15934,0 0.32054,0 0.48356,0c0.1618,0 0.30888,0 0.44126,0c0.13115,0 0.22738,0 0.28867,0c0.1716,0 0.30031,-0.03248 0.38611,-0.09744c0.0858,-0.06374 0.15016,-0.18141 0.19306,-0.35301c0.0429,-0.1716 0.07354,-0.41982 0.09193,-0.74464c0.11032,0.07968 0.25005,0.15322 0.4192,0.22064c0.16793,0.06742 0.31931,0.11338 0.45414,0.13789c-0.0429,0.43514 -0.11338,0.77651 -0.21144,1.02411c-0.09806,0.24883 -0.24514,0.42656 -0.44126,0.5332c-0.19612,0.10787 -0.46885,0.1618 -0.81819,0.1618c-0.06129,0 -0.16057,0 -0.29785,0c-0.13851,0 -0.29663,0 -0.47437,0c-0.17773,0 -0.35363,0 -0.52768,0c-0.17528,0 -0.33156,0 -0.46885,0c-0.13851,0 -0.23534,0 -0.2905,0c-0.39224,0 -0.70173,-0.0429 -0.9285,-0.1287c-0.22677,-0.0858 -0.38427,-0.2378 -0.47253,-0.45598c-0.08948,-0.21696 -0.13422,-0.52462 -0.13422,-0.92298v-6.00308M326.97681,188.76341h-0.07355l0.18386,-0.1379l0.18386,-0.11951l0.68029,0.24821l-0.03677,0.16548c0,0.43514 -0.00123,0.83473 -0.00368,1.19878c-0.00367,0.36527 -0.00674,0.68887 -0.00919,0.97079c-0.00367,0.28192 -0.00981,0.51788 -0.01839,0.70787c-0.0098,0.18999 -0.02084,0.33095 -0.0331,0.42288c-0.01839,0.20837 -0.06741,0.36895 -0.14709,0.48172c-0.07968,0.11399 -0.19305,0.1955 -0.34014,0.24453c-0.12871,0.05516 -0.28008,0.08703 -0.45414,0.09561c-0.17528,0.00981 -0.3334,0.0147 -0.47436,0.0147c-0.01225,-0.12258 -0.038,-0.26537 -0.07722,-0.42839c-0.04045,-0.1618 -0.08519,-0.29479 -0.13422,-0.39898c0.0858,0.00613 0.17774,0.00919 0.2758,0.00919c0.09806,0 0.16854,0 0.21144,0c0.06129,0 0.11032,-0.01409 0.14709,-0.04228c0.03677,-0.02696 0.06129,-0.08336 0.07354,-0.16916c0.01225,-0.04903 0.02145,-0.15505 0.02758,-0.31808c0.00613,-0.1618 0.01103,-0.37753 0.01471,-0.6472c0.00245,-0.26967 0.00368,-0.59632 0.00368,-0.97998c0,-0.38243 0,-0.82187 0,-1.31829M319.72346,189.13113h3.00614v0.9285h-3.00614v-0.9285M320.82663,187.09026h0.92851v6.05825h-0.92851v-6.05825M319.61314,193.22206c0.25128,-0.09193 0.54423,-0.20409 0.87886,-0.33647c0.33341,-0.13116 0.6858,-0.27518 1.0572,-0.43207c0.37018,-0.15567 0.74219,-0.31011 1.11604,-0.46333l0.22064,0.87334c-0.4903,0.23902 -0.98795,0.4762 -1.49296,0.71155c-0.50624,0.23657 -0.96772,0.44985 -1.38448,0.63984zM332.63056,186.97075h1.00204v3.18081h-1.00204v-3.18081M330.96661,190.62041v1.31461h4.3851v-1.31461h-4.3851M330.02891,189.7011h6.33403v3.14404h-6.33403v-3.14404M333.09021,187.82571h3.89787v0.9285h-3.89787v-0.9285M331.57335,193.58059l0.9377,-0.09194c0.04903,0.20225 0.09193,0.41982 0.1287,0.65271c0.03677,0.23289 0.06557,0.45475 0.08641,0.66558c0.02206,0.21205 0.03616,0.39776 0.04229,0.5571l-1.00205,0.1287c0,-0.15935 -0.00735,-0.34934 -0.02206,-0.56997c-0.01594,-0.22063 -0.03923,-0.44923 -0.06987,-0.6858c-0.03064,-0.23534 -0.06435,-0.45414 -0.10112,-0.65639M333.46713,193.58978l0.90092,-0.20225c0.09806,0.18999 0.19306,0.3953 0.28499,0.61594c0.09193,0.22063 0.17651,0.43514 0.25373,0.64352c0.07599,0.20837 0.12931,0.39531 0.15996,0.56078l-0.96527,0.23902c-0.03064,-0.15935 -0.07783,-0.34628 -0.14157,-0.56078c-0.06496,-0.21451 -0.14035,-0.43514 -0.22615,-0.6619c-0.0858,-0.22677 -0.17467,-0.4382 -0.2666,-0.63432M335.34252,193.52543l0.88254,-0.32176c0.15322,0.19612 0.30827,0.40756 0.46517,0.63433c0.15567,0.22677 0.30092,0.45168 0.43575,0.67477c0.13483,0.22431 0.23902,0.42533 0.31257,0.60307l-0.94689,0.37691c-0.06741,-0.17774 -0.16364,-0.37998 -0.28866,-0.60675c-0.12625,-0.22677 -0.26415,-0.45965 -0.41369,-0.69867c-0.15076,-0.23902 -0.29969,-0.45965 -0.44678,-0.6619M330.06568,193.26802l0.94689,0.23902c-0.13483,0.36773 -0.31073,0.73544 -0.52768,1.10317c-0.21818,0.36773 -0.44679,0.67416 -0.68581,0.91931l-0.91012,-0.44127c0.23289,-0.20225 0.45353,-0.47069 0.6619,-0.80532c0.20837,-0.3334 0.37998,-0.67171 0.51481,-1.01492zM339.46102,195.94321l-0.2666,-0.6711c0.38611,-0.1287 0.68029,-0.30337 0.88254,-0.524c0.20225,-0.22063 0.30337,-0.47498 0.30337,-0.76302l-0.09193,-0.87335l0.50562,0.7906c-0.07355,0.07354 -0.15629,0.12564 -0.24822,0.15628c-0.09193,0.03064 -0.18693,0.04596 -0.28499,0.04596c-0.2145,0 -0.40572,-0.06742 -0.57364,-0.20225c-0.16915,-0.13483 -0.25373,-0.32482 -0.25373,-0.56997c0,-0.25127 0.08457,-0.44433 0.25373,-0.57916c0.16793,-0.13483 0.36527,-0.20225 0.59204,-0.20225c0.30644,0 0.53933,0.10848 0.69867,0.32543c0.15934,0.21818 0.23903,0.51113 0.23903,0.87886c0,0.51481 -0.15629,0.96527 -0.46885,1.35138c-0.31257,0.38611 -0.74157,0.66496 -1.28703,0.83657zM351.8625,194.04024l0.46884,-0.72625c0.39837,0.12258 0.7998,0.26353 1.2043,0.42288c0.40449,0.15935 0.78448,0.32482 1.13994,0.49643c0.35546,0.1716 0.65577,0.33709 0.90092,0.49643l-0.58836,0.78141c-0.23902,-0.1716 -0.52584,-0.34505 -0.86047,-0.52033c-0.33341,-0.17406 -0.695,-0.34383 -1.08479,-0.5093c-0.38856,-0.16547 -0.78202,-0.31257 -1.18039,-0.44127M350.78691,187.173l0.99285,-0.30337c0.12257,0.18999 0.24515,0.40143 0.36772,0.63432c0.12257,0.23289 0.21144,0.4382 0.2666,0.61594l-1.04802,0.33095c-0.0429,-0.16547 -0.12135,-0.36956 -0.23534,-0.61226c-0.11277,-0.24147 -0.22737,-0.46333 -0.34382,-0.66558M347.71641,187.89006h7.73139v2.04086h-1.02962v-1.12156h-5.7273v1.12156h-0.97447v-2.04086M351.46719,189.21387h1.03882c-0.02452,0.6619 -0.06435,1.276 -0.11951,1.8423c-0.05516,0.56752 -0.15935,1.08417 -0.31257,1.54996c-0.15322,0.46579 -0.37998,0.8856 -0.68029,1.25945c-0.30031,0.37385 -0.70664,0.69867 -1.219,0.97447c-0.51114,0.27579 -1.15588,0.50869 -1.93423,0.69868c-0.04903,-0.1287 -0.1287,-0.27763 -0.23902,-0.44679c-0.11032,-0.16792 -0.21756,-0.30398 -0.32175,-0.40817c0.72932,-0.15935 1.3238,-0.35424 1.78346,-0.58468c0.45965,-0.22922 0.82247,-0.50195 1.08846,-0.81818c0.26722,-0.31501 0.46211,-0.67355 0.58468,-1.07559c0.12257,-0.40082 0.20348,-0.84944 0.2427,-1.34587c0.04045,-0.49642 0.06986,-1.04495 0.08825,-1.64557M347.6061,192.28436h7.9796v0.82738h-7.9796v-0.82738M349.12296,189.7103l0.57916,-0.63432c0.16548,0.07968 0.33402,0.17467 0.50562,0.28499c0.1716,0.11032 0.33524,0.22492 0.49091,0.34382c0.1569,0.12013 0.28131,0.23228 0.37324,0.33647l-0.61594,0.70786c-0.0858,-0.10419 -0.20225,-0.21757 -0.34933,-0.34015c-0.14709,-0.12258 -0.30643,-0.24698 -0.47804,-0.37323c-0.1716,-0.12502 -0.34015,-0.23351 -0.50562,-0.32543M348.19445,191.10764l0.56078,-0.6619c0.1716,0.07968 0.34627,0.17283 0.524,0.27947c0.17773,0.10787 0.34628,0.21818 0.50562,0.33095c0.15934,0.11399 0.28805,0.22308 0.38611,0.32727l-0.58836,0.74464c-0.09806,-0.11032 -0.2237,-0.22676 -0.37692,-0.34933c-0.15322,-0.12258 -0.31869,-0.24209 -0.49642,-0.35853c-0.17773,-0.11644 -0.34934,-0.22064 -0.51481,-0.31257zM357.27723,187.7062h2.62003v6.14099h-2.62003v-0.88254h1.70072v-4.37591h-1.70072v-0.88254M357.33238,190.30785h1.92136v0.86415h-1.92136v-0.86415M356.80838,187.7062h0.9285v6.88563h-0.9285v-6.88563M360.26498,188.70825h4.79879v0.98366h-4.79879v-0.98366M363.07806,187.02591h1.00205v7.1798c0,0.30643 -0.03983,0.53749 -0.11951,0.69316c-0.07968,0.15689 -0.21757,0.27518 -0.41369,0.35485c-0.18999,0.07968 -0.44617,0.12993 -0.76854,0.15077c-0.32115,0.02206 -0.71155,0.03003 -1.1712,0.0239c-0.01839,-0.14096 -0.06313,-0.30827 -0.13422,-0.50194c-0.06986,-0.19244 -0.14157,-0.35608 -0.21512,-0.49091c0.22677,0.00613 0.44556,0.01042 0.65639,0.01287c0.21206,0.00367 0.39776,0.00552 0.5571,0.00552c0.15934,0 0.27273,0 0.34015,0c0.09806,-0.00613 0.1667,-0.02635 0.20592,-0.06068c0.04045,-0.0331 0.06067,-0.09867 0.06067,-0.19673v-7.17061M360.42126,190.75831l0.81818,-0.43207c0.15322,0.21451 0.31869,0.44862 0.49642,0.70235c0.17773,0.25495 0.34628,0.50317 0.50562,0.74464c0.15934,0.2427 0.28805,0.45291 0.38611,0.63065l-0.87334,0.50562c-0.09193,-0.18386 -0.21328,-0.40021 -0.36405,-0.64903c-0.14954,-0.2476 -0.31011,-0.50317 -0.48172,-0.76671c-0.1716,-0.26353 -0.33402,-0.50868 -0.48723,-0.73544zM366.55305,187.24655h6.7845v0.71706h-6.7845v-0.71706M366.95755,190.95136h6.83047v0.68029h-6.83047v-0.68029M367.79412,191.92583h5.48828v0.59755h-5.48828v-0.59755M366.93916,192.83595h7.19819v0.6619h-7.19819v-0.6619M367.16899,189.25983h1.93974v0.51481h-1.93974v-0.51481M366.96674,190.1056h2.15118v0.50562h-2.15118v-0.50562M370.75429,190.1056h2.17877v0.50562h-2.17877v-0.50562M370.75429,189.25983h1.95813v0.51481h-1.95813v-0.51481M369.43968,187.54992h0.97447v3.21759h-0.97447v-3.21759M365.96469,188.33133h7.9796v1.60879h-0.95609v-1.02043h-6.1134v1.02043h-0.91012v-1.60879M366.51628,190.95136h0.91931v1.26865c0,0.25741 -0.01532,0.53442 -0.04597,0.83105c-0.03064,0.29785 -0.08764,0.60001 -0.17099,0.90644c-0.08213,0.30643 -0.19858,0.60184 -0.34934,0.88621c-0.14954,0.2856 -0.34382,0.54485 -0.58284,0.77774c-0.04903,-0.06129 -0.11645,-0.13361 -0.20225,-0.21696c-0.0858,-0.08212 -0.1765,-0.1618 -0.27211,-0.23902c-0.09438,-0.076 -0.17834,-0.13238 -0.25189,-0.16915c0.28805,-0.27579 0.49949,-0.57611 0.63432,-0.90093c0.13483,-0.32482 0.22186,-0.65148 0.26108,-0.97998c0.04045,-0.32727 0.06067,-0.63188 0.06067,-0.9138v-1.25026M370.7451,193.18528c0.18386,0.30031 0.44433,0.54975 0.78141,0.74832c0.33708,0.19979 0.73974,0.35607 1.20798,0.46884c0.46946,0.11399 0.99224,0.18938 1.56834,0.22615c-0.0858,0.0858 -0.17467,0.20225 -0.2666,0.34933c-0.09193,0.14709 -0.16548,0.28192 -0.22064,0.4045c-0.63126,-0.06742 -1.19326,-0.18386 -1.68601,-0.34934c-0.49397,-0.16547 -0.9187,-0.38795 -1.27416,-0.66742c-0.35546,-0.27824 -0.64965,-0.61962 -0.88254,-1.02411l0.77222,-0.15628M372.88709,193.4243l0.72625,0.36772c-0.22064,0.14709 -0.45352,0.28315 -0.69867,0.40817c-0.24515,0.12625 -0.46885,0.23534 -0.6711,0.32727l-0.59755,-0.33095c0.13483,-0.07354 0.27702,-0.15505 0.42656,-0.24453c0.15076,-0.08826 0.29786,-0.18019 0.44127,-0.2758c0.14464,-0.09438 0.26905,-0.17834 0.37324,-0.25189M367.86766,195.5571l-0.04597,-0.64352l0.38611,-0.2666l2.53729,-0.35853c-0.02452,0.11032 -0.04597,0.23719 -0.06435,0.38059c-0.01839,0.14464 -0.02758,0.26292 -0.02758,0.35485c-0.56384,0.09193 -1.0192,0.1667 -1.36609,0.22431c-0.34566,0.05883 -0.61348,0.10664 -0.80347,0.14341c-0.18999,0.03677 -0.32789,0.06741 -0.41369,0.09193c-0.0858,0.02452 -0.15322,0.04903 -0.20225,0.07354M367.86766,195.5571c-0.02452,-0.07354 -0.06128,-0.15812 -0.11032,-0.25373c-0.04903,-0.09438 -0.10296,-0.18938 -0.1618,-0.28499c-0.05761,-0.09438 -0.11093,-0.17221 -0.15996,-0.2335c0.10419,-0.05516 0.21573,-0.14893 0.33463,-0.28131c0.12012,-0.13116 0.18018,-0.30093 0.18018,-0.5093v-0.88253l0.95608,0.01838v1.49848c0,0 -0.03554,0.02145 -0.10664,0.06435c-0.06986,0.0429 -0.15506,0.10112 -0.25557,0.17467c-0.10174,0.07354 -0.2047,0.15015 -0.30889,0.22983c-0.10419,0.07968 -0.19182,0.16057 -0.26292,0.24269c-0.06986,0.08335 -0.1048,0.15566 -0.1048,0.21696zM376.79415,189.59998h6.42597v0.78142h-6.42597v-0.78142M376.87689,192.27517h5.11136v0.78141h-5.11136v-0.78141M378.09957,188.93808h0.9377v2.16038h1.83862v-2.16038h0.96528v2.91421h-3.74159v-2.91421M381.73084,192.27517h0.19306l0.17467,-0.03678l0.61593,0.32176c-0.25128,0.47804 -0.57916,0.88683 -0.98366,1.22636c-0.40449,0.34076 -0.86415,0.62452 -1.37896,0.85128c-0.51481,0.22677 -1.06946,0.40756 -1.66395,0.54239c-0.59449,0.13483 -1.21349,0.23902 -1.857,0.31257c-0.03677,-0.11644 -0.09377,-0.25618 -0.171,-0.41921c-0.07599,-0.1618 -0.15383,-0.29786 -0.2335,-0.40817c0.58836,-0.0429 1.15833,-0.11828 1.70992,-0.22615c0.55158,-0.10664 1.06211,-0.24882 1.53157,-0.42656c0.46823,-0.17774 0.88009,-0.4002 1.23555,-0.66742c0.35546,-0.26599 0.63126,-0.57978 0.82738,-0.94137v-0.1287M378.41214,192.87272c0.30031,0.35547 0.6999,0.65884 1.19878,0.91012c0.50011,0.25127 1.07804,0.45169 1.73381,0.60123c0.65578,0.15077 1.36058,0.25373 2.11441,0.30889c-0.06741,0.06742 -0.13789,0.15322 -0.21144,0.25741c-0.07355,0.10419 -0.1428,0.20838 -0.20776,0.31257c-0.06374,0.10419 -0.114,0.19918 -0.15077,0.28499c-0.78447,-0.07968 -1.51257,-0.21635 -2.18428,-0.41002c-0.67048,-0.19244 -1.26926,-0.44984 -1.79633,-0.77221c-0.52707,-0.32115 -0.97447,-0.71155 -1.34219,-1.1712l0.84576,-0.32176M376.07709,187.79813h7.23496v0.91931h-7.23496v-0.91931M375.61744,187.79813h0.97447v2.46375c0,0.37998 -0.01103,0.79796 -0.0331,1.25394c-0.02084,0.4572 -0.0619,0.92482 -0.12319,1.40286c-0.06129,0.47804 -0.15015,0.94076 -0.2666,1.38816c-0.11644,0.4474 -0.26966,0.85802 -0.45965,1.23188c-0.06741,-0.04903 -0.15628,-0.10112 -0.2666,-0.15628c-0.11032,-0.05516 -0.22247,-0.10909 -0.33647,-0.1618c-0.11277,-0.05148 -0.21205,-0.08641 -0.29785,-0.1048c0.18386,-0.35547 0.33095,-0.74036 0.44126,-1.15466c0.11032,-0.41307 0.19122,-0.83718 0.2427,-1.27232c0.05271,-0.43514 0.08641,-0.85987 0.10112,-1.27417c0.01594,-0.41307 0.0239,-0.79429 0.0239,-1.14362v-2.47294M378.83502,187.13623l0.99286,-0.22983c0.10419,0.19612 0.20041,0.41063 0.28866,0.64352c0.08948,0.23289 0.1526,0.43208 0.18937,0.59755l-1.05721,0.25741c-0.02452,-0.1716 -0.0766,-0.37692 -0.15628,-0.61594c-0.07968,-0.23902 -0.16548,-0.45658 -0.25741,-0.6527zM388.07407,189.79303h3.81513v0.99285h-3.81513v-0.99285M384.16701,194.11378h8.35652v0.99286h-8.35652v-0.99286M387.51329,187.09026h1.05721v7.56592h-1.05721zM395.36419,188.28537h0.99285v2.56487c0,0.42901 -0.02635,0.86109 -0.07906,1.29623c-0.05148,0.43514 -0.15873,0.85802 -0.32176,1.26864c-0.1618,0.41063 -0.40082,0.79796 -0.71706,1.16201c-0.31502,0.36527 -0.73913,0.695 -1.27233,0.98918c-0.04903,-0.07354 -0.11522,-0.15812 -0.19857,-0.25373c-0.08213,-0.09438 -0.16915,-0.18938 -0.26108,-0.28499c-0.09193,-0.09438 -0.17773,-0.16609 -0.25741,-0.21512c0.47804,-0.25741 0.85618,-0.54117 1.13443,-0.85128c0.27947,-0.30889 0.49153,-0.63493 0.63617,-0.97814c0.14341,-0.34321 0.23657,-0.69561 0.27947,-1.05721c0.0429,-0.36159 0.06435,-0.72319 0.06435,-1.08478v-2.55568M398.82079,187.12704h1.01124v8.42087h-1.01124v-8.42087M393.34171,190.6296h8.39329v0.94689h-8.39329v-0.94689M397.37748,187.0443l0.69867,0.82738c-0.39224,0.19612 -0.83228,0.38121 -1.32012,0.55526c-0.48662,0.17528 -0.98612,0.3334 -1.49848,0.47436c-0.51114,0.14096 -1.01492,0.2666 -1.51135,0.37692c-0.01839,-0.11644 -0.06312,-0.25312 -0.13422,-0.41001c-0.06986,-0.15567 -0.13544,-0.28867 -0.19673,-0.39898c0.47804,-0.11032 0.96037,-0.24086 1.44699,-0.39162c0.48784,-0.14954 0.94751,-0.31318 1.37897,-0.49091c0.43269,-0.17774 0.81144,-0.35853 1.13626,-0.54239z" fill="#ffffff" fill-rule="nonzero" stroke-width="1"/><path d="M247.31869,198.36283h2.62003v6.14098h-2.62003v-0.88254h1.70072v-4.37591h-1.70072v-0.88253M247.37385,200.96447h1.92136v0.86415h-1.92136v-0.86415M246.84985,198.36283h0.9285v6.88562h-0.9285v-6.88562M250.30645,199.36488h4.79879v0.98366h-4.79879v-0.98366M253.11953,197.68254h1.00205v7.1798c0,0.30643 -0.03983,0.53749 -0.11951,0.69316c-0.07968,0.15689 -0.21757,0.27518 -0.41369,0.35486c-0.18999,0.07968 -0.44556,0.12993 -0.7667,0.15077c-0.32237,0.02206 -0.71339,0.03003 -1.17304,0.0239c-0.01838,-0.14096 -0.06251,-0.30827 -0.13238,-0.50194c-0.0711,-0.19244 -0.14341,-0.35608 -0.21696,-0.49091c0.22677,0.00613 0.44617,0.01042 0.65823,0.01287c0.21083,0.00367 0.39592,0.00552 0.55526,0.00552c0.15935,0 0.27273,0 0.34014,0c0.09806,-0.00613 0.1667,-0.02635 0.20593,-0.06068c0.04045,-0.0331 0.06068,-0.09867 0.06068,-0.19673v-7.17061M250.46273,201.41494l0.81818,-0.43207c0.15322,0.21451 0.31869,0.44862 0.49643,0.70235c0.17774,0.25495 0.34627,0.50317 0.50562,0.74464c0.15935,0.2427 0.28805,0.45291 0.38611,0.63064l-0.87335,0.50562c-0.09193,-0.18386 -0.21267,-0.4002 -0.36221,-0.64903c-0.15077,-0.2476 -0.31195,-0.50317 -0.48355,-0.76671c-0.1716,-0.26353 -0.33401,-0.50868 -0.48723,-0.73544zM257.08175,206.59984l-0.2666,-0.6711c0.38611,-0.1287 0.68028,-0.30337 0.88253,-0.524c0.20225,-0.22063 0.30338,-0.47498 0.30338,-0.76303l-0.09193,-0.87334l0.50562,0.7906c-0.07355,0.07354 -0.15628,0.12563 -0.24821,0.15628c-0.09193,0.03064 -0.18693,0.04596 -0.28499,0.04596c-0.2145,0 -0.40572,-0.06741 -0.57365,-0.20224c-0.16915,-0.13483 -0.25373,-0.32482 -0.25373,-0.56997c0,-0.25127 0.08458,-0.44433 0.25373,-0.57916c0.16793,-0.13483 0.36527,-0.20225 0.59203,-0.20225c0.30644,0 0.53933,0.10848 0.69868,0.32543c0.15934,0.21818 0.23902,0.51113 0.23902,0.87886c0,0.51481 -0.15628,0.96528 -0.46884,1.35139c-0.31257,0.38611 -0.74158,0.66496 -1.28704,0.83657zM265.4015,202.20554h7.63945v0.95608h-7.63945v-0.95608M267.03787,200.42208h4.32995v0.91012h-4.32995v-0.91012M270.16352,203.7224l0.83657,-0.43207c0.2758,0.23902 0.54729,0.49765 0.81451,0.7759c0.26599,0.27947 0.5093,0.55832 0.72993,0.83657c0.22064,0.27947 0.40143,0.53565 0.54239,0.76854l-0.89173,0.5332c-0.12257,-0.23289 -0.29418,-0.4952 -0.51481,-0.78692c-0.22064,-0.2905 -0.46272,-0.58469 -0.72625,-0.88254c-0.26353,-0.29663 -0.52707,-0.56752 -0.7906,-0.81267M269.17986,197.5998l0.90093,0.41369c-0.52707,0.72932 -1.17856,1.38815 -1.95445,1.97651c-0.77467,0.58836 -1.62166,1.08785 -2.54097,1.49848c-0.0429,-0.0858 -0.10541,-0.18386 -0.18753,-0.29418c-0.08335,-0.11032 -0.171,-0.21941 -0.26293,-0.32727c-0.09193,-0.10664 -0.17466,-0.1906 -0.24821,-0.25189c0.58836,-0.23289 1.15526,-0.50746 1.70072,-0.8237c0.54546,-0.31501 1.04005,-0.66129 1.48377,-1.03882c0.44495,-0.37631 0.8145,-0.76057 1.10868,-1.15281M269.38211,198.02269c0.20225,0.21451 0.45352,0.44126 0.75383,0.68028c0.30031,0.23902 0.63617,0.47191 1.00756,0.69868c0.37018,0.22677 0.75873,0.4382 1.16568,0.63432c0.40818,0.19612 0.81758,0.3616 1.2282,0.49643c-0.07355,0.06129 -0.15506,0.14402 -0.24453,0.24821c-0.08826,0.10419 -0.17222,0.2096 -0.25189,0.31624c-0.07968,0.10787 -0.14709,0.20776 -0.20225,0.29969c-0.39837,-0.16547 -0.79674,-0.36037 -1.1951,-0.58468c-0.39837,-0.22308 -0.77958,-0.46516 -1.14362,-0.72625c-0.36527,-0.25986 -0.69991,-0.5234 -1.00389,-0.79061c-0.30276,-0.26599 -0.55832,-0.51542 -0.7667,-0.74831l0.65271,-0.52401M266.04501,206.03906c-0.01839,-0.07354 -0.04597,-0.1716 -0.08274,-0.29418c-0.03677,-0.12258 -0.07661,-0.25005 -0.11951,-0.38243c-0.0429,-0.13116 -0.0858,-0.23963 -0.1287,-0.32543c0.11644,-0.02452 0.22983,-0.07661 0.34015,-0.15628c0.11032,-0.07968 0.23902,-0.18386 0.38611,-0.31257c0.07355,-0.06129 0.18264,-0.16241 0.32727,-0.30337c0.14341,-0.14096 0.30214,-0.3095 0.4762,-0.50562c0.17528,-0.19612 0.35363,-0.4094 0.53504,-0.63984c0.18018,-0.22922 0.34995,-0.46333 0.5093,-0.70235l0.91931,0.62513c-0.34933,0.45353 -0.73851,0.89602 -1.16752,1.32748c-0.42901,0.43269 -0.86109,0.81145 -1.29623,1.13627v0.02757c0,0 -0.03493,0.01655 -0.1048,0.04964c-0.0711,0.03432 -0.15261,0.07722 -0.24454,0.1287c-0.09193,0.05271 -0.17344,0.10787 -0.24453,0.16548c-0.06986,0.05883 -0.1048,0.11277 -0.1048,0.1618M266.04501,206.03906l-0.01838,-0.78141l0.65271,-0.35853l5.27684,-0.33095c0.01839,0.14096 0.04597,0.29724 0.08274,0.46885c0.03677,0.1716 0.07048,0.3095 0.10113,0.41369c-0.83963,0.06129 -1.56467,0.11644 -2.17509,0.16547c-0.60919,0.04903 -1.12523,0.09009 -1.54811,0.12319c-0.42288,0.03432 -0.77222,0.06374 -1.04802,0.08826c-0.2758,0.02452 -0.49642,0.04719 -0.6619,0.06803c-0.16548,0.02206 -0.29725,0.04351 -0.39531,0.06435c-0.09806,0.02206 -0.18692,0.04842 -0.2666,0.07906zM281.67327,197.67335l0.51481,0.71706c-0.33095,0.06742 -0.69745,0.12687 -1.09949,0.17835c-0.40082,0.05271 -0.81879,0.09867 -1.25393,0.13789c-0.43514,0.04045 -0.87028,0.07293 -1.30542,0.09745c-0.43514,0.02452 -0.85802,0.0429 -1.26864,0.05516c-0.01225,-0.10419 -0.03984,-0.22554 -0.08274,-0.36405c-0.0429,-0.13728 -0.0858,-0.2519 -0.1287,-0.34383c0.39837,-0.01838 0.80899,-0.04167 1.23187,-0.06986c0.42288,-0.02696 0.83964,-0.0619 1.25026,-0.1048c0.41062,-0.0429 0.7998,-0.08887 1.16752,-0.1379c0.36773,-0.04903 0.69255,-0.10418 0.97447,-0.16547M276.99398,199.95323h5.52504v0.7998h-5.52504v-0.7998M279.25548,198.2709h0.89173v4.10012h-0.89173v-4.10012M279.26468,202.88583h0.81818v2.68438h-0.81818v-2.68438M277.60073,199.04312l0.78141,-0.23902c0.07968,0.15322 0.16425,0.32176 0.25373,0.50562c0.08826,0.18386 0.15384,0.34015 0.19673,0.46885l-0.81819,0.27579c-0.03677,-0.13483 -0.09499,-0.29908 -0.17467,-0.49275c-0.07968,-0.19244 -0.15934,-0.36527 -0.23902,-0.51849M281.12168,198.63862l0.84577,0.22983c-0.13483,0.26353 -0.27089,0.52523 -0.40817,0.78509c-0.13851,0.26109 -0.26905,0.48356 -0.39162,0.66742l-0.72625,-0.22063c0.07968,-0.13483 0.16241,-0.28682 0.24821,-0.45597c0.0858,-0.16792 0.16732,-0.34076 0.24454,-0.51849c0.07599,-0.17774 0.1385,-0.34015 0.18753,-0.48723M278.79583,200.41289l0.76303,0.2666c-0.1716,0.30643 -0.38611,0.59755 -0.64352,0.87335c-0.25741,0.27579 -0.53626,0.52523 -0.83657,0.74831c-0.30031,0.22431 -0.6098,0.40695 -0.9285,0.54791c-0.06741,-0.10419 -0.15935,-0.2286 -0.2758,-0.37324c-0.11644,-0.14341 -0.2237,-0.25802 -0.32176,-0.34382c0.29418,-0.10419 0.58407,-0.24515 0.86967,-0.42289c0.28438,-0.17774 0.54607,-0.37692 0.78509,-0.59755c0.23902,-0.22063 0.43514,-0.45352 0.58835,-0.69867M280.64364,200.41289c0.15322,0.22063 0.34627,0.43636 0.57916,0.64719c0.23289,0.21205 0.48539,0.40388 0.75751,0.57549c0.27334,0.1716 0.54791,0.31257 0.8237,0.42288c-0.09806,0.07968 -0.20654,0.18999 -0.32544,0.33095c-0.12012,0.14096 -0.21695,0.26967 -0.2905,0.38611c-0.28192,-0.14709 -0.56568,-0.32973 -0.85128,-0.54791c-0.28438,-0.21696 -0.5522,-0.4572 -0.80347,-0.72073c-0.25128,-0.26353 -0.46272,-0.5332 -0.63432,-0.809l0.74464,-0.28498M277.42606,202.5273h4.64251v3.62208h-0.91931v-2.89582h-2.84985v2.94179h-0.87334v-3.66805M278.02361,203.84191h3.38306v0.68948h-3.38306v-0.68948M278.02361,205.12894h3.37387v0.70787h-3.37387v-0.70787M273.98784,202.40779c0.35546,-0.09806 0.78448,-0.23166 1.28704,-0.40082c0.50255,-0.16792 1.00817,-0.34075 1.51685,-0.51849l0.15629,0.88253c-0.47191,0.17774 -0.94995,0.3524 -1.43412,0.52401c-0.48417,0.1716 -0.93157,0.32789 -1.3422,0.46885l-0.18386,-0.95608M274.13493,199.40165h2.80389v0.91012h-2.80389v-0.91012M275.15537,197.63658h0.91011v7.51075c0,0.23289 -0.02635,0.41798 -0.07906,0.55527c-0.05148,0.13851 -0.14464,0.2476 -0.27947,0.32727c-0.12871,0.07968 -0.29235,0.13177 -0.49092,0.15628c-0.19979,0.02452 -0.44984,0.03371 -0.75016,0.02758c-0.00613,-0.11644 -0.03555,-0.26538 -0.08825,-0.44679c-0.05148,-0.18018 -0.10786,-0.33463 -0.16915,-0.46333c0.17773,0.00613 0.34015,0.0092 0.48723,0.0092c0.14709,0 0.24821,-0.00306 0.30337,-0.0092c0.05516,0 0.09499,-0.0092 0.11951,-0.02758c0.02452,-0.01838 0.03678,-0.06129 0.03678,-0.1287zM284.78053,197.82044l0.87334,-0.22063c0.0858,0.18999 0.1716,0.39959 0.25741,0.62881c0.0858,0.23044 0.15322,0.4284 0.20225,0.59387l-0.91931,0.2666c-0.03064,-0.1716 -0.08702,-0.37691 -0.16915,-0.61593c-0.08335,-0.23902 -0.16486,-0.45659 -0.24454,-0.65271M283.34641,199.05231h4.08173v0.91931h-4.08173v-0.91931M284.88165,200.96447h1.5996v0.90093h-1.5996v-0.90093M286.15949,200.96447h0.9377c0,0 0,0.02575 0,0.07722c0,0.05271 0,0.1097 0,0.17099c0,0.06129 -0.00307,0.11339 -0.0092,0.15629c-0.01225,0.74158 -0.02574,1.37099 -0.04045,1.88826c-0.01594,0.51849 -0.03615,0.94628 -0.06067,1.28336c-0.02452,0.33708 -0.05517,0.60062 -0.09194,0.7906c-0.03677,0.18999 -0.0858,0.32789 -0.14709,0.41369c-0.0858,0.12258 -0.17467,0.2096 -0.26659,0.26108c-0.09193,0.05271 -0.20531,0.08826 -0.34015,0.10664c-0.11032,0.01838 -0.25434,0.03064 -0.43207,0.03677c-0.17773,0.00613 -0.36466,0.00306 -0.56078,-0.00919c-0.00613,-0.1287 -0.03187,-0.27886 -0.07722,-0.45046c-0.04658,-0.1716 -0.10358,-0.32175 -0.171,-0.45046c0.15934,0.01226 0.3046,0.02144 0.43575,0.02758c0.13238,0.00613 0.23534,0.00919 0.30889,0.00919c0.06129,0 0.11338,-0.0092 0.15628,-0.02758c0.0429,-0.01838 0.07967,-0.05515 0.11032,-0.11031c0.03677,-0.05516 0.06865,-0.16242 0.09561,-0.32176c0.02819,-0.15935 0.05148,-0.39224 0.06986,-0.69867c0.01839,-0.30643 0.03371,-0.70174 0.04596,-1.18591c0.01225,-0.48417 0.02452,-1.07559 0.03678,-1.77427v-0.19305M288.33825,199.30972h3.54853v0.91931h-3.54853v-0.91931M288.46696,197.61819l1.01124,0.16548c-0.10419,0.61288 -0.23902,1.21042 -0.40449,1.79265c-0.16548,0.58223 -0.36282,1.12156 -0.59203,1.61799c-0.23044,0.49642 -0.49275,0.93157 -0.78693,1.30542c-0.0429,-0.06742 -0.11032,-0.15015 -0.20225,-0.24821c-0.09193,-0.09806 -0.18509,-0.19612 -0.27947,-0.29418c-0.09561,-0.09806 -0.18018,-0.17773 -0.25373,-0.23902c0.26353,-0.31257 0.49213,-0.68642 0.6858,-1.12156c0.19244,-0.43514 0.3573,-0.90582 0.49459,-1.41206c0.13851,-0.50501 0.2476,-1.02717 0.32727,-1.5665M290.2688,199.85211l0.97447,0.10112c-0.14709,1.03575 -0.36589,1.952 -0.65639,2.74873c-0.29172,0.79674 -0.68581,1.48621 -1.18223,2.06844c-0.49642,0.58223 -1.12463,1.06946 -1.88459,1.4617c-0.03064,-0.07354 -0.07968,-0.16425 -0.14709,-0.27212c-0.06741,-0.10664 -0.13789,-0.21512 -0.21144,-0.32543c-0.07355,-0.11032 -0.14096,-0.19918 -0.20225,-0.2666c0.70481,-0.31869 1.27967,-0.73238 1.72462,-1.24106c0.44372,-0.50869 0.79122,-1.1185 1.0425,-1.82943c0.25128,-0.71093 0.43207,-1.52605 0.54239,-2.44536M288.8071,200.07274c0.14096,0.80286 0.34136,1.54873 0.60122,2.2376c0.26108,0.6901 0.60184,1.29378 1.02227,1.81104c0.4192,0.51849 0.93831,0.91869 1.55731,1.20061c-0.07355,0.06129 -0.15322,0.14219 -0.23902,0.2427c-0.0858,0.10173 -0.16854,0.20593 -0.24822,0.31257c-0.07968,0.10787 -0.14402,0.2047 -0.19306,0.2905c-0.6619,-0.34321 -1.21042,-0.80287 -1.64556,-1.37897c-0.43514,-0.5761 -0.78754,-1.2521 -1.05721,-2.02799c-0.26966,-0.77467 -0.48723,-1.62472 -0.65271,-2.55016l0.85496,-0.1379M284.30249,199.53035h0.9377v2.2707c0,0.50256 -0.03187,1.00817 -0.09561,1.51685c-0.06496,0.50869 -0.19367,1.00328 -0.38611,1.48377c-0.19367,0.48172 -0.48969,0.94015 -0.88806,1.37529c-0.0858,-0.10419 -0.19918,-0.21634 -0.34015,-0.33647c-0.14096,-0.1189 -0.26966,-0.22125 -0.38611,-0.30705c0.34321,-0.38611 0.59755,-0.7906 0.76303,-1.21348c0.16548,-0.42288 0.27273,-0.84883 0.32176,-1.27784c0.04903,-0.42901 0.07354,-0.84577 0.07354,-1.25026zM293.16463,198.3996h7.29931v0.87335h-7.29931v-0.87335M292.64981,200.51401h8.2462v0.88253h-8.2462v-0.88253M294.45166,203.56612h4.67009v0.75384h-4.67009v-0.75384M294.46085,205.07378h4.67009v0.82738h-4.67009v-0.82738M293.82653,202.04007h5.9939v4.17366h-1.03882v-3.35548h-3.97141v3.36467h-0.98366v-4.18286M298.26679,199.22698l1.09398,0.22983c-0.07968,0.1716 -0.15935,0.34137 -0.23902,0.5093c-0.07968,0.16915 -0.15934,0.3285 -0.23902,0.47804c-0.07968,0.15077 -0.15322,0.28437 -0.22064,0.40082l-0.93769,-0.22983c0.06129,-0.1287 0.12687,-0.27456 0.19673,-0.43759c0.0711,-0.1618 0.13729,-0.32728 0.19858,-0.49643c0.06129,-0.16792 0.11031,-0.31931 0.14708,-0.45414M294.33215,199.45681l0.96528,-0.19305c0.12871,0.18999 0.24025,0.40265 0.33463,0.638c0.09561,0.23657 0.15873,0.44372 0.18937,0.62146l-1.02962,0.23902c-0.02452,-0.18386 -0.08151,-0.39837 -0.17099,-0.64352c-0.08826,-0.24515 -0.18448,-0.46578 -0.28867,-0.6619M296.02368,197.70093l1.02043,-0.16548c0.11032,0.16547 0.20838,0.35056 0.29418,0.55526c0.0858,0.20593 0.14402,0.38549 0.17467,0.53871l-1.0664,0.21144c-0.02452,-0.15935 -0.0766,-0.34627 -0.15628,-0.56078c-0.07968,-0.21451 -0.16854,-0.40756 -0.2666,-0.57916zM301.82452,198.92361h4.32994v0.88254h-4.32994v-0.88254M302.79898,199.87969l0.83657,0.25741c-0.11644,0.28192 -0.25128,0.56997 -0.4045,0.86415c-0.15322,0.29418 -0.3144,0.57304 -0.48355,0.83657c-0.16793,0.26353 -0.33463,0.49643 -0.50011,0.69868c-0.0429,-0.04903 -0.10603,-0.11338 -0.18938,-0.19306c-0.08213,-0.07968 -0.16609,-0.15812 -0.25189,-0.23534c-0.0858,-0.076 -0.16241,-0.13851 -0.22983,-0.18753c0.23289,-0.26353 0.45781,-0.57916 0.67477,-0.94689c0.21818,-0.36773 0.40082,-0.73239 0.54791,-1.09398M304.29746,201.34139l0.93769,0.16547c-0.26966,1.00511 -0.64781,1.88765 -1.13443,2.64761c-0.48784,0.75996 -1.0903,1.38202 -1.80736,1.8662c-0.0429,-0.06742 -0.10419,-0.14709 -0.18386,-0.23902c-0.07968,-0.09193 -0.16363,-0.18264 -0.25189,-0.27212c-0.08948,-0.08826 -0.16486,-0.15996 -0.22615,-0.21512c0.68029,-0.40449 1.2429,-0.94567 1.68785,-1.6235c0.44372,-0.67661 0.76977,-1.45312 0.97815,-2.32952M304.32504,200.21064l0.72625,-0.39531c0.14709,0.17774 0.29418,0.36895 0.44127,0.57365c0.14709,0.20593 0.2807,0.41001 0.40082,0.61226c0.1189,0.20225 0.20899,0.38611 0.27028,0.55158l-0.78141,0.44127c-0.04903,-0.16547 -0.13055,-0.35118 -0.24454,-0.55711c-0.11277,-0.2047 -0.23963,-0.41614 -0.38059,-0.63432c-0.14096,-0.21696 -0.28499,-0.4143 -0.43207,-0.59203M302.54158,202.19635l0.71706,-0.52401c0.22677,0.22677 0.46456,0.46885 0.71339,0.72626c0.2476,0.25741 0.486,0.52094 0.71522,0.7906c0.23044,0.26967 0.44065,0.53136 0.63065,0.78509c0.18999,0.25495 0.34933,0.48969 0.47804,0.70419l-0.79061,0.61594c-0.11032,-0.21451 -0.25741,-0.45229 -0.44126,-0.71338c-0.18386,-0.25986 -0.38918,-0.52953 -0.61594,-0.809c-0.22677,-0.27824 -0.46088,-0.55219 -0.70235,-0.82186c-0.2427,-0.26967 -0.47742,-0.52095 -0.70419,-0.75384M307.11054,199.25456h3.06129v0.91931h-3.06129v-0.91931M307.20247,197.61819l0.91931,0.14709c-0.10419,0.62513 -0.23412,1.23616 -0.38979,1.8331c-0.1569,0.59816 -0.3475,1.15282 -0.57181,1.66395c-0.22309,0.51236 -0.48172,0.96466 -0.77589,1.3569c-0.03677,-0.06742 -0.09193,-0.15016 -0.16547,-0.24822c-0.07355,-0.09806 -0.15138,-0.19612 -0.23351,-0.29418c-0.08335,-0.09806 -0.15873,-0.17773 -0.22615,-0.23902c0.25741,-0.33095 0.47804,-0.7189 0.6619,-1.16385c0.18386,-0.44372 0.34014,-0.92605 0.46885,-1.44699c0.12871,-0.52094 0.23289,-1.05721 0.31257,-1.60879M308.80207,199.87969l0.9377,0.11032c-0.14709,1.04801 -0.36895,1.97161 -0.66558,2.7708c-0.29786,0.80041 -0.695,1.48683 -1.19142,2.05925c-0.49642,0.57365 -1.1185,1.05047 -1.8662,1.43045c-0.0429,-0.06129 -0.10418,-0.13667 -0.18386,-0.22615c-0.07968,-0.08826 -0.16363,-0.18018 -0.25189,-0.27579c-0.08948,-0.09438 -0.17099,-0.16915 -0.24453,-0.22431c0.73545,-0.31869 1.33606,-0.73728 1.80185,-1.25577c0.46578,-0.51727 0.83044,-1.13933 1.09398,-1.8662c0.26353,-0.72564 0.45352,-1.56651 0.56997,-2.52259M307.33118,200.64272c0.15322,0.69254 0.36649,1.34832 0.63984,1.96732c0.27211,0.619 0.60429,1.17058 0.99653,1.65475c0.39224,0.48417 0.84576,0.87028 1.36058,1.15833c-0.07355,0.06129 -0.15445,0.13912 -0.2427,0.2335c-0.08948,0.09561 -0.17283,0.19244 -0.25005,0.2905c-0.07599,0.09806 -0.13851,0.19 -0.18754,0.2758c-0.54546,-0.34933 -1.02044,-0.79245 -1.42493,-1.32932c-0.40449,-0.53565 -0.7477,-1.14852 -1.02963,-1.83862c-0.28192,-0.68887 -0.51481,-1.42861 -0.69867,-2.21921l0.83657,-0.19305M303.15751,197.90318l0.84576,-0.30337c0.12257,0.16547 0.24025,0.35056 0.35302,0.55526c0.11399,0.20593 0.19857,0.38243 0.25373,0.52952l-0.88254,0.35853c-0.0429,-0.15935 -0.11951,-0.34504 -0.22983,-0.5571c-0.11032,-0.21083 -0.2237,-0.4051 -0.34015,-0.58284z" fill="#ffffff" fill-rule="nonzero" stroke-width="1"/></g></g></svg>