<svg version="1.1" xmlns="http://www.w3.org/2000/svg" xmlns:xlink="http://www.w3.org/1999/xlink" width="98.62226" height="20.74103" viewBox="0,0,98.62226,20.74103"><g transform="translate(-240.42987,-170.19498)"><g fill="#ffffff" fill-rule="evenodd" stroke="#ffffff" stroke-width="0.5" stroke-linecap="round" stroke-miterlimit="10"><path d="M247.6052,178.74634l-0.5232,-1.35291c1.3147,-0.46552 2.27724,-0.93104 2.88763,-1.39655c0.61039,-0.46552 1.02962,-1.06196 1.25768,-1.78933h-4.10507v-1.4402h4.34654l0.02012,-0.24003l0.06037,-1.89844h1.50922l-0.08049,2.07301v0.06546h4.80937v1.4402h-4.99048c-0.04025,0.20366 -0.0872,0.36369 -0.14086,0.48007c1.94521,1.14925 3.46114,2.05119 4.54777,2.70582l-0.74455,1.30927c-0.89882,-0.61099 -2.36779,-1.54203 -4.40691,-2.79311c-0.38904,0.53825 -0.93571,1.02923 -1.64002,1.47293c-0.7043,0.4437 -1.64002,0.8983 -2.80714,1.36382zM246.31733,178.8118h12.03349v1.50566h-1.58971v7.41919c0,0.64009 -0.07378,1.12743 -0.22135,1.46202c-0.14757,0.33459 -0.3924,0.56735 -0.73449,0.69828c-0.34209,0.13093 -0.84181,0.19639 -1.49916,0.19639h-1.99217l-0.28172,-1.4402h1.79094c0.4427,0 0.76802,-0.03273 0.97596,-0.0982c0.20794,-0.06546 0.3488,-0.18912 0.42258,-0.37096c0.07378,-0.18184 0.11068,-0.46915 0.11068,-0.86194v-7.00459h-9.01505zM246.39783,184.20163l0.12074,0.8292l0.08049,0.80738c-0.29514,0.08728 -2.13973,0.74192 -5.53379,1.9639l-0.34209,-1.5493c0.45612,-0.14547 1.19396,-0.40733 2.21352,-0.78556v-8.09564h-2.07266v-1.57112h2.07266v-5.14979h1.36836v5.14979h2.07266v1.57112h-2.07266v7.61558c1.24762,-0.46552 1.94521,-0.72737 2.09278,-0.78556zM247.38385,187.69301v-5.52075h5.77527v5.52075zM248.65159,183.59063v2.684h3.28003v-2.684z"/><path d="M277.10535,180.68842h-6.76129v6.93912h7.92842v1.63659h-17.18495v-1.63659h7.6467v-6.93912h-6.47957v-1.65841h6.47957v-5.28072h-6.90215v-1.68023h15.67573v1.68023h-7.16375v5.28072h6.76129zM276.54191,185.48907l-1.28786,1.20016c-1.2342,-1.77479 -2.22693,-3.14224 -2.97819,-4.10237l1.2275,-1.1347c1.01956,1.32382 2.03241,2.66945 3.03856,4.03691z"/><path d="M298.71734,184.33255h-10.00108c-1.01956,1.22198 -2.26718,2.48761 -3.74286,3.79688l9.03518,-0.37096l-2.21352,-2.2694l0.98602,-1.06924c0.57686,0.56735 1.13024,1.12015 1.66014,1.65841c0.5299,0.53825 0.99608,1.01105 1.39854,1.41837c1.44885,1.48384 2.04583,2.08756 1.79094,1.81115l-1.04639,1.24381c-0.22806,-0.26185 -0.64393,-0.7201 -1.24762,-1.37473l-12.43594,0.58917l-0.38233,-1.5493c1.583,-1.22198 2.97148,-2.51671 4.16544,-3.88416h-5.77527v-1.48384h2.65622v-11.34699h12.43594v11.34699h2.71659zM294.5519,182.84872v-2.40033h-9.51813v2.40033zM285.03377,176.71697v2.31304h9.51813v-2.31304zM285.03377,175.34224h9.51813v-2.29122h-9.51813z"/><path d="M318.65912,172.83281v1.5493h-8.00891v2.18211h6.80154v11.12878c0,0.66918 -0.07043,1.18198 -0.21129,1.53839c-0.14086,0.35641 -0.36892,0.60372 -0.68418,0.74192c-0.31526,0.1382 -0.76802,0.2073 -1.35829,0.2073h-2.47512l-0.28172,-1.52748h2.19339c0.38904,0 0.67076,-0.03273 0.84516,-0.0982c0.1744,-0.06546 0.29178,-0.18912 0.35215,-0.37096c0.06037,-0.18184 0.09055,-0.46915 0.09055,-0.86194v-9.25216h-12.19447v12.13256h-1.46897v-13.63821h6.84178v-2.18211h-8.0894v-1.5493h8.0894v-2.3785h1.54946v2.3785zM315.11749,184.61623v1.30927h-4.4874v3.86234h-1.50922v-3.86234h-4.60814v-1.30927h4.60814v-2.00755h-4.16544v-1.30927h2.73671c-0.63052,-0.91649 -1.16713,-1.65113 -1.60983,-2.20394l1.147,-0.69828c-0.04025,-0.05819 0.23477,0.31277 0.82504,1.11288l0.94578,1.28745l-0.84516,0.50189h2.27389c0.67076,-0.94558 1.28116,-1.92026 1.83118,-2.92403l1.28786,0.67646c-0.26831,0.48007 -0.76467,1.22926 -1.48909,2.24758h2.61598v1.30927h-4.0447v2.00755z"/><path d="M338.56065,173.55291l-1.6702,5.56439c0.71101,1.00377 1.20737,1.8948 1.48909,2.67309c0.28172,0.77829 0.42258,1.60385 0.42258,2.4767c0,1.23653 -0.24147,2.11665 -0.72442,2.64036c-0.48295,0.52371 -1.29457,0.78556 -2.43487,0.78556h-1.147l-0.30184,-1.5493h1.04639c0.7915,0 1.34488,-0.15638 1.66014,-0.46915c0.31526,-0.31277 0.47289,-0.86921 0.47289,-1.66932c0,-0.69828 -0.15763,-1.4111 -0.47289,-2.13847c-0.31526,-0.72737 -0.81498,-1.53475 -1.49916,-2.42215l1.62995,-5.91353h-3.38065v17.04231h-1.42873v-18.65708h6.33871zM330.65236,174.5785h-1.50922c-0.16098,1.35291 -0.36892,2.62581 -0.62381,3.8187h2.71659v1.57112h-10.08157v-1.57112h2.57573c-0.25489,-1.65841 -0.48966,-2.93131 -0.7043,-3.8187h-1.36836v-1.5493h3.92396c-0.1744,-0.77101 -0.37563,-1.48384 -0.60369,-2.13847l1.48909,-0.39278c0.26831,0.87285 0.49636,1.7166 0.68418,2.53125h3.50138zM323.73009,188.7186v1.46202h-1.4086v-8.22657h7.68694v6.76455zM323.73009,187.23476h4.86974v-3.73142h-4.86974zM327.77479,174.5785h-3.32028c0.3488,1.80388 0.58356,3.07678 0.7043,3.8187h1.99217c0.24147,-1.1347 0.44941,-2.4076 0.62381,-3.8187z"/></g></g></svg>