<svg version="1.1" xmlns="http://www.w3.org/2000/svg" xmlns:xlink="http://www.w3.org/1999/xlink" width="208" height="32" viewBox="0,0,208,32"><g transform="translate(-240,-164)"><g stroke-miterlimit="10"><path d="M240,196v-32h208v32z" fill="none" fill-rule="nonzero" stroke="none" stroke-width="0" stroke-linecap="butt"/><path d="M250.17734,185.1804h5.25261v-12.74213h1.52692v15.76678h-1.52692v-1.35144h-13.66087v-14.41534h1.56764v12.74213h5.25261v-16.17435h1.588zM299.07957,182.32736h-10.11841c-1.03152,1.20128 -2.29378,2.44546 -3.78677,3.73254l9.14118,-0.36467l-2.23949,-2.23095l0.99759,-1.05112c0.58362,0.55774 1.14349,1.10117 1.67961,1.63031c0.53612,0.52913 1.00777,0.99392 1.41495,1.39434c1.46585,1.45869 2.06983,2.05218 1.81195,1.78047l-1.05867,1.22273c-0.23074,-0.25742 -0.65149,-0.7079 -1.26226,-1.35144l-12.58184,0.57919l-0.38682,-1.52305c1.60157,-1.20128 3.00634,-2.47406 4.21431,-3.81835h-5.84302v-1.45869h2.68738v-11.15473h12.58184v11.15473h2.74846zM301.62445,169.8212h17.59015v1.56595h-5.92446v3.15336h4.78436v13.87905h-1.44549v-1.63031h-12.48005v1.63031h-1.46585v-13.87905h4.58077v-3.15336h-5.63943zM339.39033,171.73037l-1.68979,5.47011c0.71935,0.98676 1.22154,1.8627 1.50656,2.6278c0.28503,0.7651 0.42754,1.57668 0.42754,2.43473c0,1.21558 -0.24431,2.08079 -0.73292,2.59562c-0.48862,0.51483 -1.30976,0.77225 -2.46343,0.77225h-1.16046l-0.30538,-1.52305h1.05867c0.80079,0 1.36066,-0.15373 1.67961,-0.46121c0.31896,-0.30747 0.47844,-0.85448 0.47844,-1.64103c0,-0.68644 -0.15948,-1.38719 -0.47844,-2.10224c-0.31896,-0.71505 -0.82454,-1.50875 -1.51674,-2.38111l1.64908,-5.81333h-3.42031v16.75354h-1.44549v-18.34094h6.41307zM264.14359,188.05489h-1.64908v-17.20402h14.39379v17.09676h-1.62872v-1.90917h-11.116zM304.14896,176.12791v9.11684h12.48005v-3.21771h-2.32092c-0.92294,0 -1.57103,-0.19306 -1.94428,-0.57919c-0.37325,-0.38613 -0.55987,-1.05827 -0.55987,-2.01643v-3.30352h-3.05384v0.02145c0,1.28708 -0.08822,2.33105 -0.26467,3.1319c-0.17644,0.80085 -0.50558,1.50875 -0.98741,2.12369c-0.48183,0.61494 -1.19779,1.23703 -2.14787,1.86627l-0.97723,-1.13692c0.88222,-0.60064 1.52353,-1.15122 1.92392,-1.65176c0.40039,-0.50053 0.66167,-1.06184 0.78382,-1.68393c0.12215,-0.62209 0.18323,-1.51232 0.18323,-2.6707zM331.38925,172.73859h-1.52692c-0.16287,1.32999 -0.37325,2.58132 -0.63113,3.75399h2.74846v1.5445h-10.19984v-1.5445h2.60595c-0.25788,-1.63031 -0.4954,-2.88164 -0.71256,-3.75399h-1.38441v-1.52305h3.97c-0.17644,-0.75795 -0.38003,-1.45869 -0.61077,-2.10224l1.50656,-0.38613c0.27145,0.85806 0.50219,1.68751 0.6922,2.48836h3.54246zM275.25958,172.58843h-11.116v11.66956h11.116zM324.38577,186.63909v1.43724h-1.42513v-8.08718h7.77713v6.64993zM294.86527,180.86867v-2.35965h-9.62979v2.35965zM285.23548,174.84083v2.27385h9.62979v-2.27385zM285.23548,173.48939h9.62979v-2.2524h-9.62979zM324.38577,185.1804h4.92687v-3.66819h-4.92687zM316.629,180.46109v-4.33318h-3.33887v2.78868c0,0.42903 0.04411,0.7508 0.13233,0.96531c0.08822,0.21451 0.23752,0.36467 0.4479,0.45048c0.21038,0.08581 0.52594,0.12871 0.94669,0.12871zM328.47792,172.73859h-3.35923c0.35289,1.77332 0.59041,3.02465 0.71256,3.75399h2.01554c0.24431,-1.11547 0.45468,-2.3668 0.63113,-3.75399zM308.75008,171.38715v3.15336h3.05384v-3.15336z" fill="#ffffff" fill-rule="evenodd" stroke="#ffffff" stroke-width="0.5" stroke-linecap="round"/></g></g></svg>