<svg version="1.1" xmlns="http://www.w3.org/2000/svg" xmlns:xlink="http://www.w3.org/1999/xlink" width="180" height="40" viewBox="0,0,180,40"><g transform="translate(-150,-160)"><g stroke-linecap="round" stroke-miterlimit="10"><path d="M150,160h180v40h-180z" fill="none" fill-rule="nonzero" stroke="none" stroke-width="0.2" stroke-linejoin="round"/><path d="M174.72506,183.34449l-0.97794,0.60921c-0.50233,-0.98329 -0.96726,-1.87573 -1.39477,-2.67732c-0.60921,1.38943 -1.44287,2.82161 -2.50097,4.29654l-0.7054,-1.15429c1.09017,-1.42149 1.93451,-2.90711 2.53303,-4.45686c-0.21376,-0.38476 -0.36873,-0.67334 -0.46492,-0.86572c-0.67334,-1.25048 -1.28255,-2.36737 -1.82763,-3.35066l0.91382,-0.57715c0.33132,0.55577 0.85503,1.49631 1.57112,2.82161l0.28857,0.52905c0.34201,-1.21842 0.62524,-2.67198 0.84969,-4.36067h-3.71939v-1.18636h4.90575v1.18636c-0.2672,2.15896 -0.70006,4.07744 -1.29858,5.75544c0.49164,0.8871 1.10085,2.0307 1.82763,3.43082zM182.22797,181.70924l1.1062,0.25651l-0.01603,0.68937l-0.0481,1.33064c-0.02138,0.4382 -0.08818,0.77487 -0.2004,1.01001c-0.11222,0.23513 -0.29659,0.40347 -0.5531,0.505c-0.25651,0.10154 -0.62524,0.1523 -1.1062,0.1523h-1.18636c-0.57715,0 -0.98596,-0.12291 -1.22644,-0.36873c-0.24048,-0.24582 -0.36072,-0.67868 -0.36072,-1.29858v-2.61319c-0.3527,0.94054 -0.8871,1.79557 -1.60319,2.5651c-0.71609,0.76953 -1.68335,1.5444 -2.90177,2.32462l-0.76953,-0.97794c1.22911,-0.74815 2.17766,-1.4776 2.84565,-2.18835c0.66799,-0.71075 1.14093,-1.49096 1.41882,-2.34065c0.27789,-0.84969 0.43286,-1.89978 0.46492,-3.15026c0.01069,-0.4382 0.02138,-0.97527 0.03206,-1.6112c0.01069,-0.63593 0.01603,-1.173 0.01603,-1.6112h1.17033l-0.0481,3.38272c-0.03206,0.8871 -0.11757,1.678 -0.25651,2.37272h0.7535v3.41479c0,0.27789 0.02405,0.48096 0.07214,0.60921c0.0481,0.12825 0.13627,0.21376 0.26453,0.25651c0.12825,0.04275 0.32598,0.06413 0.59318,0.06413h0.49699c0.28857,0 0.49966,-0.02138 0.63326,-0.06413c0.1336,-0.04275 0.22712,-0.12558 0.28056,-0.24849c0.05344,-0.12291 0.0855,-0.32331 0.09619,-0.60119c0.02138,-0.59852 0.03206,-1.21842 0.03206,-1.8597zM181.20193,181.16416v-7.74339h-4.90575v7.77545h-1.15429v-8.96181h7.1983v8.92975z" fill="#ffffff" fill-rule="evenodd" stroke="#ffffff" stroke-width="0.4" stroke-linejoin="miter"/><path d="M193.14566,181.67718v-8.11212h-3.15828v8.17625h-1.02604v-9.31451h5.22639v9.25038zM192.08756,174.47887v4.28051c0,1.10085 -0.08016,2.03605 -0.24048,2.80558c1.07948,1.10085 2.02536,2.09483 2.83764,2.98193l-0.78556,0.81762c-1.01535,-1.15429 -1.8116,-2.05208 -2.38875,-2.69335c-0.24582,0.58783 -0.58783,1.13292 -1.02604,1.63525c-0.4382,0.50233 -1.02604,1.0581 -1.7635,1.66731l-0.81762,-0.84969c0.90847,-0.69471 1.57647,-1.31996 2.00398,-1.87573c0.42752,-0.55577 0.71876,-1.16498 0.87374,-1.82763c0.15497,-0.66265 0.23246,-1.54975 0.23246,-2.66129v-4.28051zM197.76284,183.76132v-12.02389h1.01001v12.36056c0,0.44889 -0.05878,0.79358 -0.17635,1.03405c-0.11757,0.24048 -0.31529,0.41416 -0.59318,0.52104c-0.27789,0.10688 -0.67334,0.16032 -1.18636,0.16032h-1.31461l-0.22445,-1.1062h1.28255c0.33132,0 0.57982,-0.02405 0.74548,-0.07214c0.16566,-0.0481 0.28323,-0.13894 0.3527,-0.27254c0.06947,-0.1336 0.10421,-0.334 0.10421,-0.60119zM195.45425,182.33448v-9.20229h0.99398v9.20229zM187.06959,179.84955l0.56112,0.17635l0.51302,0.17635c-0.0855,0.25651 -0.32865,1.09551 -0.72945,2.517c-0.4008,1.42149 -0.69204,2.49028 -0.87374,3.20637l-1.09017,-0.36873c0.16032,-0.4382 0.44889,-1.38943 0.86572,-2.85367c0.41683,-1.46424 0.66799,-2.41547 0.7535,-2.85367zM188.22388,177.66921l-0.73747,0.92985c-0.78022,-0.74815 -1.56043,-1.44821 -2.34065,-2.10017l0.7054,-0.88175c1.12223,0.94054 1.91314,1.62456 2.37272,2.05208zM188.52849,173.72538l-0.7054,0.91382c-0.32064,-0.33132 -0.71075,-0.7054 -1.17033,-1.12223c-0.45958,-0.41683 -0.82297,-0.72678 -1.09017,-0.92985l0.65731,-0.88175c0.75884,0.6199 1.52837,1.29324 2.30859,2.02001z" fill="#ffffff" fill-rule="evenodd" stroke="#ffffff" stroke-width="0.4" stroke-linejoin="miter"/><path d="M208.60038,174.28649v1.8116h5.14623v5.17829h-10.67722v-5.17829h4.24844v-4.61718h1.28255v1.60319h6.34862v1.20239zM204.27177,177.30048v2.80558h8.27244v-2.80558zM202.41208,186.1661l-1.07413,-0.62524c0.36339,-0.5344 0.71876,-1.14895 1.06612,-1.84366c0.34736,-0.69471 0.61188,-1.31461 0.79358,-1.8597l1.09017,0.44889c-0.21376,0.57715 -0.49699,1.22377 -0.84969,1.93985c-0.3527,0.71609 -0.69471,1.36271 -1.02604,1.93985zM212.3358,182.31845l1.04207,-0.49699c0.64127,1.07948 1.29858,2.26049 1.97192,3.54304l-1.04207,0.62524c-0.34201,-0.7054 -0.99932,-1.92917 -1.97192,-3.6713zM209.00117,182.41464l1.07413,-0.33667c0.20307,0.47027 0.42484,1.03405 0.66532,1.69136c0.24048,0.65731 0.42484,1.20506 0.5531,1.64327l-1.12223,0.32064c-0.22445,-0.81228 -0.61455,-1.91848 -1.17033,-3.31859zM205.57035,182.46274l1.12223,-0.24048c0.24582,0.96191 0.49699,2.10017 0.7535,3.41479l-1.18636,0.25651c-0.10688,-0.72678 -0.30995,-1.75282 -0.60921,-3.07812z" fill="#ffffff" fill-rule="evenodd" stroke="#ffffff" stroke-width="0.4" stroke-linejoin="miter"/><path d="M223.70239,182.35052h-1.31461v2.46891l2.45287,-0.60921l0.03206,0.91382l-3.78352,1.02604l-0.3527,-0.84969c0.23513,-0.09619 0.38476,-0.17635 0.44889,-0.24048c0.06413,-0.06413 0.09619,-0.14963 0.09619,-0.25651v-2.45287h-1.49096c-0.0855,0.72678 -0.25117,1.38676 -0.49699,1.97993c-0.24582,0.59318 -0.59318,1.18903 -1.04207,1.78755l-1.01001,-0.7054c0.58783,-0.75884 0.98863,-1.48562 1.20239,-2.18033c0.21376,-0.69471 0.32064,-1.61922 0.32064,-2.77351v-2.30859h12.10405v0.80159h-10.98182v1.7635c0,0.36339 -0.00534,0.63059 -0.01603,0.80159h11.31849v0.83366h-6.25242c0.59852,0.63059 1.2772,1.12757 2.03605,1.49096c1.36805,-0.6199 2.32462,-1.07948 2.8697,-1.37874l0.48096,0.83366c-0.39545,0.19238 -1.11689,0.52371 -2.1643,0.99398c0.95122,0.2672 2.10552,0.46492 3.46288,0.59318l-0.46492,0.99398c-1.27186,-0.16032 -2.35668,-0.38476 -3.25447,-0.67334c-0.89778,-0.28857 -1.68067,-0.65998 -2.34867,-1.11421c-0.66799,-0.45424 -1.28522,-1.03405 -1.85168,-1.73946zM223.92683,177.65318v-2.99796h-4.74543v2.06811h-1.13826v-2.8697h5.88369v-0.86572h-5.32258v-0.89778h11.84754v0.89778h-5.40274v0.86572h5.94782v2.8697h-1.12223v-2.06811h-4.82559v2.99796zM220.56014,179.84955h9.57102v0.78556h-9.57102zM220.07919,176.11412v-0.72143h3.01399v0.72143zM225.94685,176.11412v-0.72143h2.99796v0.72143zM223.09318,176.72333v0.7054h-3.01399v-0.7054zM225.96288,177.42873v-0.7054h2.99796v0.7054z" fill="#ffffff" fill-rule="evenodd" stroke="#ffffff" stroke-width="0.4" stroke-linejoin="miter"/><path d="M238.41963,176.85159h-2.53303v1.36271c0,1.3253 -0.05077,2.42883 -0.1523,3.31058c-0.10154,0.88175 -0.25918,1.6593 -0.47294,2.33264c-0.21376,0.67334 -0.51302,1.41615 -0.89778,2.22843l-1.0581,-0.62524c0.38476,-0.82297 0.67334,-1.54975 0.86572,-2.18033c0.19238,-0.63059 0.33132,-1.35736 0.41683,-2.18033c0.0855,-0.82297 0.12825,-1.90245 0.12825,-3.23844v-4.84162h5.96385c-0.09619,-0.40614 -0.20307,-0.78556 -0.32064,-1.13826c-0.02138,-0.07482 -0.04275,-0.14696 -0.06413,-0.21643c-0.02138,-0.06947 -0.03741,-0.13093 -0.0481,-0.18437l1.34668,-0.16032c0.19238,0.64127 0.35805,1.20773 0.49699,1.69938h5.27448v1.07413h-2.64526v1.74747h2.59716v1.01001h-2.59716v2.38875h-6.30052zM247.5097,184.78736l-0.38476,1.20239c-1.26117,-0.20307 -2.35134,-0.42484 -3.2705,-0.66532c-0.91916,-0.24048 -1.75282,-0.53172 -2.50097,-0.87374c-1.4108,0.6199 -3.20103,1.16498 -5.37067,1.63525l-0.48096,-1.12223c1.84901,-0.32064 3.38807,-0.7054 4.61718,-1.15429c-1.00466,-0.6199 -2.02536,-1.46424 -3.06209,-2.53303v-0.99398h8.68927v1.01001c-0.82297,1.00466 -1.83832,1.83832 -3.04605,2.50097c1.17567,0.40614 2.77886,0.73747 4.80956,0.99398zM244.20713,181.27638h-5.49893c0.83366,0.85503 1.73144,1.51768 2.69335,1.98795c1.12223,-0.5344 2.05742,-1.19705 2.80558,-1.98795zM239.55789,174.09411v1.74747h3.99193v-1.74747zM239.55789,176.85159v1.37874h3.99193v-1.37874zM235.8866,175.84158h2.53303v-1.74747h-2.53303z" fill="#ffffff" fill-rule="evenodd" stroke="#ffffff" stroke-width="0.4" stroke-linejoin="miter"/></g></g></svg>