<svg version="1.1" xmlns="http://www.w3.org/2000/svg" xmlns:xlink="http://www.w3.org/1999/xlink" width="208" height="32" viewBox="0,0,208,32"><g transform="translate(-237.2,-164.00002)"><g stroke="none" stroke-miterlimit="10"><path d="M247.58162,172.2737h11.58438v1.80692h-11.58438v-1.80692M248.44493,175.86747h10.64077v1.70654h-10.64077v-1.70654M248.98701,181.44885h8.21146v1.70654h-8.21146v-1.70654M246.59785,172.2737h2.04785v5.46092c0,0.82985 -0.02677,1.74 -0.08031,2.73046c-0.05354,0.99046 -0.16463,1.99699 -0.33328,3.01957c-0.16597,1.02526 -0.40288,2.02241 -0.71072,2.99146c-0.30785,0.97172 -0.70938,1.85243 -1.20462,2.64212c-0.13385,-0.10708 -0.30785,-0.22754 -0.522,-0.36138c-0.21415,-0.13385 -0.43902,-0.261 -0.67458,-0.38146c-0.23289,-0.12046 -0.43634,-0.21415 -0.61034,-0.28108c0.48185,-0.74954 0.86331,-1.56332 1.14438,-2.44135c0.28108,-0.87535 0.49122,-1.77882 0.63042,-2.71038c0.14188,-0.92889 0.23022,-1.83905 0.26502,-2.73046c0.03212,-0.88874 0.04818,-1.71457 0.04818,-2.47749v-5.46092M250.43255,174.50224h1.90731v4.41692h2.93123v-4.41692h1.98762v6.06323h-6.82615v-6.06323M256.51585,181.44885h0.40154l0.36138,-0.08031l1.305,0.58223c-0.38815,1.03061 -0.90614,1.94077 -1.55395,2.73046c-0.65049,0.78969 -1.40003,1.47231 -2.24862,2.04785c-0.85126,0.57554 -1.7748,1.06408 -2.77062,1.46562c-0.99849,0.40154 -2.04651,0.72277 -3.14405,0.96369c-0.09369,-0.25431 -0.24092,-0.55546 -0.44169,-0.90346c-0.20077,-0.348 -0.39485,-0.62908 -0.58223,-0.84323c0.99046,-0.174 1.94077,-0.42162 2.85092,-0.74285c0.91015,-0.32123 1.74669,-0.71608 2.50962,-1.18454c0.76292,-0.46846 1.42948,-1.01455 1.99966,-1.63828c0.56751,-0.62105 1.00519,-1.32642 1.31303,-2.11611v-0.28108M251.67732,182.49285c0.65585,1.25815 1.66638,2.29814 3.03162,3.11995c1.36523,0.82449 2.98477,1.39735 4.85861,1.71858c-0.14723,0.13385 -0.30383,0.30785 -0.4698,0.522c-0.16865,0.21415 -0.32659,0.43099 -0.47382,0.65049c-0.14723,0.22219 -0.26769,0.42697 -0.36138,0.61435c-1.99431,-0.44169 -3.69817,-1.16848 -5.11158,-2.18035c-1.41074,-1.0092 -2.51765,-2.31019 -3.32072,-3.90295l1.84708,-0.54208M241.53847,172.2737l1.20462,-1.60615c0.38815,0.16062 0.79906,0.35068 1.23272,0.57018c0.43634,0.22219 0.85126,0.45374 1.24477,0.69466c0.39618,0.24092 0.71474,0.47515 0.95566,0.70269l-1.26485,1.76677c-0.22754,-0.22754 -0.52869,-0.47248 -0.90346,-0.73482c-0.37477,-0.25966 -0.77898,-0.51397 -1.21265,-0.76292c-0.43634,-0.24628 -0.85528,-0.45641 -1.25682,-0.63042M240.57478,177.59408l1.16446,-1.62623c0.41492,0.13385 0.84992,0.31052 1.305,0.53003c0.45508,0.22219 0.89008,0.44972 1.305,0.68262c0.41492,0.23557 0.74954,0.46712 1.00385,0.69466l-1.24477,1.80692c-0.24092,-0.22754 -0.55814,-0.46846 -0.95165,-0.72277c-0.39618,-0.25431 -0.82181,-0.50192 -1.27689,-0.74285c-0.45508,-0.24092 -0.89008,-0.44838 -1.305,-0.62238M240.77555,187.75301c0.30785,-0.53539 0.63577,-1.16179 0.98377,-1.8792c0.348,-0.71474 0.70269,-1.47365 1.06408,-2.27672c0.36138,-0.80308 0.696,-1.59946 1.00385,-2.38915l1.76677,1.22469c-0.28108,0.72277 -0.57822,1.4616 -0.89142,2.21649c-0.31588,0.75757 -0.63711,1.50443 -0.96369,2.24058c-0.32926,0.73615 -0.6612,1.43215 -0.99582,2.088l-1.96754,-1.22469M251.61708,170.78801l2.00769,-0.44169c0.21415,0.40154 0.41225,0.84323 0.59428,1.32508c0.17935,0.48185 0.30249,0.89677 0.36942,1.24477l-2.12815,0.50192c-0.05354,-0.348 -0.16062,-0.77363 -0.32123,-1.27689c-0.16062,-0.50058 -0.33462,-0.95165 -0.522,-1.35318zM276.69316,179.16008h2.12815c0,0 -0.00268,0.05354 -0.00803,0.16062c-0.00803,0.10708 -0.01205,0.22754 -0.01205,0.36138c0,0.13385 -0.00669,0.25431 -0.02008,0.36138c-0.09369,1.79354 -0.19408,3.24845 -0.30115,4.36472c-0.10708,1.11895 -0.23423,1.97958 -0.38146,2.58189c-0.14723,0.60231 -0.32792,1.03061 -0.54208,1.28492c-0.22754,0.26769 -0.47114,0.45508 -0.7308,0.56215c-0.26234,0.10708 -0.56751,0.18069 -0.91551,0.22085c-0.29446,0.04015 -0.6786,0.06023 -1.15242,0.06023c-0.47649,0 -0.97574,-0.00669 -1.49774,-0.02008c-0.02677,-0.29446 -0.09637,-0.62908 -0.2088,-1.00385c-0.11511,-0.37477 -0.25297,-0.68931 -0.41358,-0.94362c0.49523,0.04015 0.957,0.06291 1.38531,0.06826c0.42831,0.00803 0.74285,0.01205 0.94362,0.01205c0.174,0 0.31722,-0.01339 0.42965,-0.04015c0.11511,-0.02677 0.2262,-0.09369 0.33328,-0.20077c0.14723,-0.16062 0.28108,-0.50861 0.40154,-1.044c0.12046,-0.53539 0.22486,-1.32508 0.3132,-2.36908c0.08566,-1.044 0.16865,-2.40254 0.24895,-4.07561v-0.34131M266.77516,181.68978h1.98762v4.75823h-1.98762v-4.75823M271.79439,182.47278h1.96754v5.60146h-1.96754v-5.60146M261.93662,182.51293h1.96754v3.21231h8.71338v1.78685h-10.68092v-4.99915M274.44454,172.17332h2.00769c0,0 0,0.09369 0,0.28108c0,0.18738 -0.00669,0.34131 -0.02008,0.46177c-0.06692,1.00385 -0.13652,1.84039 -0.2088,2.50962c-0.07495,0.66923 -0.16195,1.19792 -0.261,1.58608c-0.10172,0.38815 -0.23958,0.66923 -0.41358,0.84323c-0.16062,0.20077 -0.33729,0.34398 -0.53003,0.42965c-0.19541,0.08834 -0.42028,0.14589 -0.67458,0.17266c-0.21415,0.04015 -0.49122,0.06291 -0.83118,0.06826c-0.34265,0.00803 -0.70805,0.00535 -1.0962,-0.00803c-0.02677,-0.29446 -0.087,-0.61971 -0.18069,-0.97574c-0.09369,-0.35335 -0.21415,-0.65718 -0.36138,-0.91149c0.30785,0.02677 0.58892,0.04685 0.84323,0.06023c0.25431,0.01339 0.44838,0.02008 0.58223,0.02008c0.12046,0 0.22754,-0.01339 0.32123,-0.04015c0.09369,-0.02677 0.174,-0.08031 0.24092,-0.16062c0.13385,-0.14723 0.24761,-0.522 0.34131,-1.12431c0.09369,-0.60231 0.174,-1.58608 0.24092,-2.95131v-0.261M268.54193,170.40655l2.56985,0.22085c-0.21415,0.49523 -0.45508,0.97306 -0.72277,1.43349c-0.26769,0.46311 -0.50861,0.86197 -0.72277,1.19658l-1.90731,-0.34131c0.14723,-0.37477 0.29848,-0.79639 0.45374,-1.26485c0.15258,-0.46846 0.26234,-0.88338 0.32926,-1.24477M266.33347,175.98793l1.06408,-1.36523c0.46846,0.16062 0.97038,0.35469 1.50577,0.58223c0.53539,0.22754 1.04802,0.46177 1.53789,0.70269c0.4872,0.24092 0.89142,0.46846 1.21265,0.68262l-1.12431,1.50577c-0.29446,-0.21415 -0.68262,-0.44838 -1.16446,-0.70269c-0.48185,-0.25431 -0.98645,-0.50594 -1.5138,-0.75489c-0.53003,-0.24628 -1.03597,-0.46311 -1.51782,-0.65049M275.06693,172.17332v1.92738h-9.55661v5.05938h11.82531v1.88723h-13.93338v-8.874zM292.61416,170.46678h2.02777v14.11408h-2.02777v-14.11408M286.55093,178.59793l10.52031,-4.45708l0.80308,1.84708l-10.52031,4.51731l-0.80308,-1.90731M288.59877,172.39416h2.04785v13.13031c0,0.37477 0.03346,0.65852 0.10038,0.85126c0.06692,0.19541 0.20746,0.32659 0.42162,0.39351c0.21415,0.06692 0.52869,0.10038 0.94362,0.10038c0.12046,0 0.31722,0 0.59026,0c0.27572,0 0.58759,0 0.93558,0c0.348,0 0.70002,0 1.05605,0c0.35335,0 0.67458,0 0.96369,0c0.28643,0 0.49657,0 0.63042,0c0.37477,0 0.65585,-0.07094 0.84323,-0.21282c0.18738,-0.1392 0.32792,-0.39618 0.42162,-0.77095c0.09369,-0.37477 0.16062,-0.91685 0.20077,-1.62623c0.24092,0.174 0.54609,0.33462 0.91551,0.48185c0.36674,0.14723 0.69734,0.24761 0.9918,0.30115c-0.09369,0.95031 -0.24761,1.69583 -0.46177,2.23657c-0.21415,0.54342 -0.53539,0.93157 -0.96369,1.16446c-0.42831,0.23557 -1.02392,0.35335 -1.78685,0.35335c-0.13385,0 -0.35068,0 -0.65049,0c-0.30249,0 -0.64782,0 -1.03597,0c-0.38815,0 -0.77363,0 -1.15643,0c-0.38012,0 -0.72009,0 -1.01991,0c-0.30249,0 -0.51397,0 -0.63443,0c-0.85662,0 -1.53254,-0.09369 -2.02777,-0.28108c-0.49523,-0.18738 -0.83922,-0.51932 -1.03195,-0.99582c-0.19541,-0.47382 -0.29312,-1.14572 -0.29312,-2.01572v-13.11023M296.66969,174.38178h-0.16062l0.40154,-0.30115l0.40154,-0.261l1.48569,0.54208l-0.08031,0.36138c0,0.95031 -0.00268,1.82298 -0.00803,2.61803c-0.00803,0.79772 -0.01472,1.50443 -0.02008,2.12012c-0.00803,0.61569 -0.02142,1.131 -0.04015,1.54592c-0.02142,0.41492 -0.04551,0.72277 -0.07228,0.92354c-0.04015,0.45508 -0.14723,0.80575 -0.32123,1.05203c-0.174,0.24895 -0.42162,0.42697 -0.74285,0.53405c-0.28108,0.12046 -0.61301,0.19006 -0.99582,0.2088c-0.38012,0.02142 -0.72411,0.03212 -1.03195,0.03212c-0.02677,-0.26769 -0.08432,-0.57955 -0.17266,-0.93558c-0.08566,-0.35335 -0.18203,-0.6438 -0.28911,-0.87134c0.18738,0.01339 0.38815,0.02008 0.60231,0.02008c0.21415,0 0.36808,0 0.46177,0c0.13385,0 0.24092,-0.03078 0.32123,-0.09235c0.08031,-0.05889 0.13385,-0.18203 0.16062,-0.36942c0.02677,-0.10708 0.04685,-0.33863 0.06023,-0.69466c0.01339,-0.35335 0.02409,-0.82449 0.03212,-1.41342c0.00535,-0.58892 0.00803,-1.30232 0.00803,-2.1402c0,-0.8352 0,-1.79488 0,-2.87903M280.829,175.18485h6.56515v2.02777h-6.56515v-2.02777M283.23823,170.72778h2.02777v13.23069h-2.02777v-13.23069M280.58808,184.11908c0.54877,-0.20077 1.18721,-0.44571 1.91534,-0.73482c0.7308,-0.28643 1.50175,-0.60097 2.31286,-0.94362c0.80843,-0.33997 1.62088,-0.67726 2.43734,-1.01188l0.48185,1.90731c-1.07077,0.522 -2.1576,1.03998 -3.26049,1.55395c-1.10557,0.51665 -2.11343,0.98243 -3.02358,1.39735zM301.32754,173.75939h17.82831v2.10808h-17.82831v-2.10808M307.85254,178.51762h7.78985v2.088h-7.78985v-2.088M315.08023,178.51762h2.24862c0,0 -0.00268,0.06023 -0.00803,0.18069c-0.00803,0.12046 -0.01205,0.25431 -0.01205,0.40154c0,0.14723 -0.01339,0.26769 -0.04015,0.36138c-0.12046,1.86046 -0.25431,3.37292 -0.40154,4.53738c-0.14723,1.16446 -0.31454,2.06792 -0.50192,2.71038c-0.18738,0.64246 -0.42162,1.10423 -0.70269,1.38531c-0.28108,0.30785 -0.58625,0.522 -0.91551,0.64246c-0.32659,0.12046 -0.71072,0.20077 -1.15242,0.24092c-0.37477,0.04015 -0.87268,0.05622 -1.49372,0.04818c-0.62372,-0.00535 -1.2702,-0.02142 -1.93943,-0.04818c-0.01339,-0.32123 -0.09369,-0.68262 -0.24092,-1.08415c-0.14723,-0.40154 -0.32792,-0.74954 -0.54208,-1.044c0.696,0.06692 1.36122,0.10708 1.99565,0.12046c0.63711,0.01339 1.10289,0.02008 1.39735,0.02008c0.22754,0 0.41492,-0.0174 0.56215,-0.0522c0.14723,-0.03212 0.28777,-0.09503 0.42162,-0.18872c0.20077,-0.18738 0.38146,-0.57955 0.54208,-1.17651c0.16062,-0.59428 0.30785,-1.44018 0.44169,-2.53772c0.13385,-1.09754 0.24761,-2.48954 0.34131,-4.176v-0.34131M306.54754,175.08447h2.40923c-0.05354,1.05739 -0.13385,2.12146 -0.24092,3.19223c-0.10708,1.07077 -0.28108,2.12815 -0.522,3.17215c-0.24092,1.044 -0.58892,2.04115 -1.044,2.99146c-0.45508,0.95031 -1.05739,1.83637 -1.80692,2.65818c-0.74954,0.82449 -1.68646,1.55128 -2.81077,2.18035c-0.16062,-0.28108 -0.39217,-0.58892 -0.69466,-0.92354c-0.29981,-0.33462 -0.59695,-0.609 -0.89142,-0.82315c1.044,-0.54877 1.90329,-1.18454 2.57788,-1.90731c0.67726,-0.72277 1.21265,-1.50309 1.60615,-2.34097c0.39618,-0.8352 0.68797,-1.71189 0.87535,-2.63008c0.18738,-0.91551 0.31454,-1.84574 0.38146,-2.79069c0.06692,-0.94228 0.12046,-1.86849 0.16062,-2.77865M308.67569,171.04901l2.10808,-0.80308c0.26769,0.45508 0.54208,0.957 0.82315,1.50577c0.28108,0.54877 0.49523,1.01723 0.64246,1.40538l-2.20846,0.96369c-0.13385,-0.41492 -0.33462,-0.91015 -0.60231,-1.48569c-0.26769,-0.57554 -0.522,-1.10423 -0.76292,-1.58608zM321.42454,175.32539h5.94277v2.14823h-5.94277v-2.14823M331.30238,170.82816h2.24862v14.59592c0,0.54877 0.05354,0.89677 0.16062,1.044c0.10708,0.14723 0.35469,0.22085 0.74285,0.22085c0.08031,0 0.22754,0 0.44169,0c0.21415,0 0.44838,0 0.70269,0c0.25431,0 0.48854,0 0.70269,0c0.21415,0 0.37477,0 0.48185,0c0.26769,0 0.47248,-0.11377 0.61435,-0.34131c0.1392,-0.22754 0.24226,-0.63979 0.30918,-1.23674c0.06692,-0.59428 0.12046,-1.43349 0.16062,-2.51765c0.18738,0.13385 0.40154,0.26769 0.64246,0.40154c0.24092,0.13385 0.48854,0.25029 0.74285,0.34934c0.25431,0.10172 0.48185,0.17935 0.68262,0.23289c-0.06692,1.25815 -0.19408,2.27137 -0.38146,3.03965c-0.18738,0.77095 -0.47917,1.33043 -0.87535,1.67843c-0.39351,0.348 -0.95834,0.522 -1.69449,0.522c-0.10708,0 -0.29446,0 -0.56215,0c-0.26769,0 -0.55948,0 -0.87535,0c-0.3132,0 -0.59695,0 -0.85126,0c-0.25431,0 -0.44169,0 -0.56215,0c-0.72277,0 -1.28894,-0.1044 -1.69851,-0.3132c-0.40689,-0.20612 -0.69734,-0.5568 -0.87134,-1.05203c-0.174,-0.49523 -0.261,-1.18454 -0.261,-2.06792v-14.55577M326.30323,170.80809h2.24862v18.20977h-2.24862v-18.20977M337.92777,173.8397l1.54592,1.92738c-0.66923,0.46846 -1.38531,0.93692 -2.14823,1.40538c-0.76292,0.46846 -1.54191,0.92354 -2.33695,1.36523c-0.79772,0.44169 -1.57805,0.85662 -2.34097,1.24477c-0.08031,-0.24092 -0.20746,-0.52602 -0.38146,-0.85528c-0.174,-0.32659 -0.34131,-0.60365 -0.50192,-0.83118c0.73615,-0.38815 1.47632,-0.82717 2.22051,-1.31705c0.74151,-0.4872 1.45357,-0.98511 2.13618,-1.49372c0.68262,-0.50861 1.28492,-0.99046 1.80692,-1.44554M320.74192,184.50055c0.54877,-0.174 1.18186,-0.38548 1.89928,-0.63443c0.71474,-0.24628 1.47365,-0.51397 2.27672,-0.80308c0.80308,-0.28643 1.59946,-0.57688 2.38915,-0.87134l0.40154,1.94746c-1.01723,0.45508 -2.05186,0.90346 -3.10389,1.34515c-1.04935,0.44169 -2.01572,0.84323 -2.89911,1.20462zM352.66423,171.45055h5.24008v1.94746h-3.33277v15.74031h-1.90731v-17.68777M357.46261,171.45055h0.40154l0.32123,-0.08031l1.48569,0.92354c-0.33462,0.96369 -0.70938,1.9836 -1.12431,3.05972c-0.41492,1.0788 -0.81646,2.05989 -1.20462,2.94328c0.82985,0.92354 1.36791,1.78283 1.61418,2.57788c0.24895,0.79772 0.37343,1.5312 0.37343,2.20043c0,0.68262 -0.07629,1.26485 -0.22888,1.74669c-0.15526,0.48185 -0.41358,0.84992 -0.77497,1.10423c-0.174,0.12046 -0.37477,0.21683 -0.60231,0.28911c-0.22754,0.07495 -0.46846,0.13251 -0.72277,0.17266c-0.22754,0.02677 -0.48185,0.04283 -0.76292,0.04818c-0.28108,0.00803 -0.56215,0.00535 -0.84323,-0.00803c-0.01339,-0.28108 -0.06023,-0.61569 -0.14054,-1.00385c-0.08031,-0.38815 -0.20746,-0.72277 -0.38146,-1.00385c0.25431,0.02677 0.48586,0.04283 0.69466,0.04818c0.20612,0.00803 0.39618,0.00535 0.57018,-0.00803c0.13385,0 0.26769,-0.0174 0.40154,-0.0522c0.13385,-0.03212 0.24761,-0.08165 0.34131,-0.14857c0.174,-0.10708 0.29714,-0.28509 0.36942,-0.53405c0.07495,-0.24628 0.11243,-0.54342 0.11243,-0.89142c0,-0.57554 -0.14054,-1.22469 -0.42162,-1.94746c-0.28108,-0.72277 -0.82315,-1.49908 -1.62623,-2.32892c0.20077,-0.50861 0.40421,-1.05471 0.61034,-1.63828c0.2088,-0.58089 0.40957,-1.16982 0.60231,-1.76677c0.19541,-0.59428 0.37343,-1.15242 0.53405,-1.67442c0.16062,-0.522 0.29446,-0.96369 0.40154,-1.32508v-0.70269M341.76246,172.73547h9.657v1.92738h-9.657v-1.92738M341.24046,178.13616h10.62069v1.94746h-10.62069v-1.94746M342.84661,175.10455l1.84708,-0.46177c0.28108,0.48185 0.53271,1.01322 0.75489,1.59411c0.21951,0.58357 0.37611,1.08951 0.4698,1.51782l-1.92738,0.54208c-0.08031,-0.44169 -0.22754,-0.96102 -0.44169,-1.55797c-0.21415,-0.59428 -0.44838,-1.13903 -0.70269,-1.63426M348.52838,174.58255l2.12815,0.46177c-0.18738,0.45508 -0.38146,0.91685 -0.58223,1.38531c-0.20077,0.46846 -0.39485,0.91685 -0.58223,1.34515c-0.18738,0.42831 -0.37477,0.80977 -0.56215,1.14438l-1.80692,-0.44169c0.174,-0.36138 0.35201,-0.76961 0.53405,-1.22469c0.17935,-0.45508 0.34666,-0.91685 0.50192,-1.38531c0.15258,-0.46846 0.27572,-0.89677 0.36942,-1.28492M343.34854,186.34762h6.58523v1.88723h-6.58523v-1.88723M342.22423,181.64962h8.81377v7.38831h-2.12815v-5.46092h-4.65785v5.58138h-2.02777v-7.50877M344.97477,170.86832l1.94746,-0.54208c0.21415,0.42831 0.42563,0.89677 0.63443,1.40538c0.20612,0.50861 0.35603,0.94362 0.44972,1.305l-2.06792,0.64246c-0.08031,-0.36138 -0.21014,-0.80709 -0.38949,-1.33712c-0.18203,-0.52735 -0.37343,-1.01857 -0.5742,-1.47365z" fill="#ffffff" stroke-width="1"/><path d="M237.2,196.00002v-32h208v32z" fill="none" stroke-width="0"/><path d="M268.32594,170.3198c0,0 -0.14974,0.52737 0,0z" fill="#ffffff" stroke-width="1"/></g></g></svg>