<svg version="1.1" xmlns="http://www.w3.org/2000/svg" xmlns:xlink="http://www.w3.org/1999/xlink" width="480" height="360" viewBox="0,0,480,360"><g transform="translate(-0.07585,0)"><g stroke-miterlimit="10"><path d="M0.07585,0h480v360h-480z" fill-opacity="0" fill="#000000" stroke="none" stroke-width="8" stroke-linecap="butt" stroke-linejoin="round"/><path d="M182.26606,207.46429h8v23h-8z" fill="#00f573" stroke="none" stroke-width="22.6772" stroke-linecap="round" stroke-linejoin="round"/><path d="M289.12642,203.84019h7.07691v1.02121h-7.07691v-1.02121M288.54666,203.84019h0.97549v3.01153c0,0.43766 -0.01043,0.91492 -0.03129,1.43178c-0.02209,0.51825 -0.06687,1.04969 -0.13436,1.59434c-0.06749,0.54604 -0.16381,1.07401 -0.28896,1.58392c-0.12638,0.5113 -0.29387,0.97536 -0.50247,1.39218c-0.06135,-0.05558 -0.1454,-0.12018 -0.25215,-0.19382c-0.10798,-0.07225 -0.21535,-0.14311 -0.3221,-0.21258c-0.10798,-0.06947 -0.20491,-0.1181 -0.29081,-0.14589c0.19632,-0.39598 0.35154,-0.8253 0.46566,-1.28797c0.11289,-0.46128 0.19571,-0.93507 0.24847,-1.42136c0.05153,-0.48629 0.0865,-0.96425 0.10491,-1.43386c0.01841,-0.46823 0.02761,-0.9038 0.02761,-1.30673v-3.01153M291.16023,208.10218v0.77112h3.3682v-0.77112h-3.3682M291.16023,206.54953v0.7607h3.3682v-0.7607h-3.3682M290.19395,205.70547h5.34679v4.0119h-5.34679v-4.0119M292.36578,209.06087h0.95709v2.89691c0,0.25704 -0.02761,0.46197 -0.08283,0.61481c-0.05522,0.15283 -0.16258,0.26746 -0.32209,0.34388c-0.16565,0.07642 -0.36934,0.12157 -0.61106,0.13546c-0.24295,0.01389 -0.53008,0.02084 -0.86138,0.02084c-0.01841,-0.14589 -0.05521,-0.31123 -0.11043,-0.49602c-0.05522,-0.1834 -0.1135,-0.34804 -0.17485,-0.49393c0.22086,0.00695 0.43253,0.01181 0.63499,0.01459c0.20246,0.00417 0.33437,0.00278 0.39572,-0.00417c0.07362,0 0.12148,-0.0125 0.14357,-0.03751c0.02086,-0.02362 0.03129,-0.06322 0.03129,-0.11879v-2.87607M292.18172,204.90308l1.17795,0.16673c-0.12884,0.24315 -0.2589,0.47378 -0.3902,0.69192c-0.13252,0.21953 -0.254,0.40918 -0.36443,0.56896l-0.92027,-0.20841c0.09816,-0.18062 0.19203,-0.38417 0.2816,-0.61064c0.08835,-0.22508 0.16013,-0.42794 0.21534,-0.60856M293.86582,210.55101l0.78224,-0.46892c0.17178,0.20841 0.35891,0.44114 0.56137,0.69818c0.20246,0.25704 0.39756,0.50713 0.58529,0.75028c0.18651,0.24315 0.33805,0.4585 0.45462,0.64607l-0.84665,0.55229c-0.1043,-0.18757 -0.2454,-0.40849 -0.42333,-0.66275c-0.17792,-0.25287 -0.36504,-0.51338 -0.56137,-0.78154c-0.19632,-0.26677 -0.38038,-0.5113 -0.55217,-0.73361M290.79211,210.08208l0.93868,0.34388c-0.15338,0.25704 -0.3221,0.5245 -0.50615,0.80238c-0.18405,0.27788 -0.36934,0.54187 -0.55585,0.79196c-0.18773,0.25009 -0.36443,0.46892 -0.53008,0.6565c-0.06135,-0.05558 -0.14234,-0.12157 -0.24295,-0.19799c-0.10184,-0.07642 -0.20491,-0.15145 -0.30921,-0.22508c-0.1043,-0.07225 -0.19939,-0.13268 -0.28528,-0.18131c0.26381,-0.25704 0.53253,-0.56618 0.80616,-0.92743c0.2724,-0.36125 0.50063,-0.71555 0.68468,-1.06289zM297.92424,206.14313h2.82524v0.97953h-2.82524v-0.97953M301.57773,206.26817h3.11053v1.02121h-3.11053v-1.02121M299.17581,203.34001h0.89267v3.37625h-0.89267v-3.37625M297.97024,208.39396h2.29148v4.65797h-0.90187v-3.66802h-1.38961v-0.98995M297.53772,203.61094h0.91107v4.064c0,0.45156 -0.0092,0.92187 -0.0276,1.41094c-0.01841,0.49046 -0.05645,0.97675 -0.11412,1.45887c-0.0589,0.48351 -0.14356,0.94549 -0.25399,1.38593c-0.11043,0.44183 -0.26074,0.83989 -0.45093,1.19419c-0.04908,-0.06947 -0.11472,-0.14797 -0.19694,-0.2355c-0.08344,-0.08615 -0.16933,-0.1709 -0.25768,-0.25426c-0.08957,-0.08336 -0.17117,-0.14936 -0.24479,-0.19799c0.14724,-0.31956 0.26258,-0.67594 0.34602,-1.06915c0.08221,-0.39181 0.14356,-0.7996 0.18405,-1.22337c0.03927,-0.42377 0.06688,-0.84614 0.08283,-1.26714c0.01472,-0.4196 0.02208,-0.82045 0.02208,-1.20253v-4.064M304.43057,206.26817h0.17485l0.15645,-0.03126l0.58898,0.16673c-0.11657,1.16015 -0.32026,2.17441 -0.61106,3.04279c-0.29203,0.86838 -0.66198,1.60268 -1.10985,2.2029c-0.44787,0.60161 -0.97242,1.08999 -1.57367,1.46513c-0.03681,-0.09031 -0.08896,-0.19313 -0.15645,-0.30845c-0.06749,-0.11393 -0.13804,-0.22647 -0.21166,-0.33762c-0.07362,-0.11115 -0.14724,-0.19799 -0.22086,-0.26052c0.53376,-0.28483 1.0031,-0.69679 1.40802,-1.23587c0.40492,-0.5377 0.73929,-1.18516 1.0031,-1.94239c0.26381,-0.75723 0.44786,-1.60824 0.55216,-2.55303v-0.20841M302.70045,206.94551c0.14111,0.77807 0.33866,1.51098 0.59266,2.19873c0.25522,0.68775 0.57303,1.29562 0.9534,1.82359c0.38038,0.52797 0.82825,0.94479 1.3436,1.25046c-0.06749,0.06947 -0.14295,0.15631 -0.22639,0.26052c-0.08221,0.10421 -0.16135,0.21188 -0.23743,0.32304c-0.0773,0.11115 -0.14356,0.21536 -0.19878,0.31262c-0.53376,-0.37514 -0.9939,-0.86143 -1.38041,-1.45887c-0.38651,-0.59744 -0.70677,-1.28034 -0.96076,-2.04868c-0.25522,-0.76695 -0.46566,-1.59503 -0.63131,-2.48425l0.74542,-0.17715M304.92753,203.41295l0.57057,0.96911c-0.39879,0.09726 -0.83254,0.1841 -1.30127,0.26052c-0.46995,0.07642 -0.95033,0.13894 -1.44115,0.18757c-0.49081,0.04863 -0.96629,0.08684 -1.42643,0.11463c-0.01227,-0.13894 -0.04418,-0.29873 -0.09571,-0.47935c-0.05276,-0.18062 -0.10368,-0.33692 -0.15276,-0.46892c0.44787,-0.03473 0.90616,-0.08198 1.37489,-0.14172c0.46995,-0.05835 0.91782,-0.12435 1.3436,-0.19799c0.42701,-0.07225 0.8031,-0.15353 1.12826,-0.24384M301.08079,203.9965h0.93868v3.53256c0,0.44461 -0.01043,0.91701 -0.03129,1.41719c-0.02209,0.50019 -0.06381,1.00036 -0.12516,1.50055c-0.06135,0.50019 -0.15338,0.9844 -0.27608,1.45262c-0.1227,0.46962 -0.28528,0.89547 -0.48775,1.27755c-0.06135,-0.06947 -0.13927,-0.14241 -0.23375,-0.21883c-0.09571,-0.07642 -0.19264,-0.15283 -0.29081,-0.22925c-0.09816,-0.07642 -0.18712,-0.13546 -0.26688,-0.17715c0.17178,-0.34735 0.30798,-0.73152 0.4086,-1.15251c0.10184,-0.4196 0.17854,-0.85518 0.23007,-1.30673c0.05276,-0.45156 0.08834,-0.89617 0.10675,-1.33383c0.01841,-0.43766 0.02761,-0.84754 0.02761,-1.22962zM310.39394,205.06981h4.39891v1.06289h-4.85905l0.46014,-1.06289M311.59031,207.34149h2.97249v1.02121h-2.97249v-1.02121M311.5811,209.65484h3.11053v1.04206h-3.11053v-1.04206M311.09335,205.41369h1.0123v7.65909h-1.0123v-7.65909M310.65163,203.45463l0.94788,0.28135c-0.17178,0.56271 -0.3724,1.11847 -0.60186,1.66728c-0.23068,0.54881 -0.481,1.06081 -0.75094,1.53599c-0.26995,0.47657 -0.54603,0.89894 -0.82825,1.26714c-0.04908,-0.06947 -0.12086,-0.15492 -0.21534,-0.25635c-0.09571,-0.10004 -0.1908,-0.19868 -0.28528,-0.29594c-0.09571,-0.09726 -0.18038,-0.17368 -0.254,-0.22925c0.27608,-0.31262 0.53683,-0.68289 0.78224,-1.11083c0.2454,-0.42654 0.47118,-0.88505 0.67732,-1.37551c0.20491,-0.48907 0.38099,-0.98369 0.52824,-1.48388M308.27732,203.39211l0.94789,0.34388c-0.19632,0.58355 -0.42946,1.17196 -0.69941,1.76524c-0.26995,0.59466 -0.5626,1.15251 -0.87795,1.67353c-0.31657,0.52103 -0.64665,0.983 -0.99021,1.38593c-0.02454,-0.09726 -0.07055,-0.22092 -0.13804,-0.37097c-0.06749,-0.14867 -0.1362,-0.29942 -0.20614,-0.45225c-0.07117,-0.15283 -0.13742,-0.2744 -0.19878,-0.36472c0.28835,-0.31956 0.56627,-0.69331 0.83376,-1.12125c0.26626,-0.42654 0.5129,-0.88297 0.7399,-1.36926c0.227,-0.48629 0.42332,-0.98301 0.58897,-1.49014M307.32944,206.21607l0.9939,-1.12542v0.01042v7.96128h-0.9939zM315.54749,206.55995h8.26406v0.98995h-8.26406v-0.98995M316.34813,204.52794h5.28237v0.96911h-5.28237v-0.96911M317.931,210.15503h4.17805v0.85449h-4.17805v-0.85449M317.931,211.82231h4.17805v0.94827h-4.17805v-0.94827M318.57518,203.35042h0.97549v3.76181h-0.97549v-3.76181M322.61519,203.67346l0.84666,0.50019c-0.60125,0.9309 -1.30372,1.7833 -2.10743,2.5572c-0.80371,0.77529 -1.66876,1.46165 -2.59517,2.0591c-0.92641,0.59744 -1.88349,1.10457 -2.87125,1.52139c-0.03681,-0.08336 -0.09203,-0.18271 -0.16565,-0.29802c-0.07362,-0.11393 -0.15031,-0.22856 -0.23007,-0.34388c-0.07976,-0.11393 -0.15031,-0.2091 -0.21166,-0.28552c1.00003,-0.36819 1.95589,-0.83226 2.86757,-1.39219c0.91046,-0.55854 1.74729,-1.20253 2.5105,-1.93196c0.76444,-0.72943 1.41661,-1.52487 1.9565,-2.3863M317.38804,208.4669h5.34679v4.57461h-1.03071v-3.6576h-3.33139v3.69928h-0.98469zM325.71652,208.28975c-0.22086,0 -0.40492,-0.08684 -0.55217,-0.26052c-0.14724,-0.17368 -0.22086,-0.39251 -0.22086,-0.65649c0,-0.26398 0.07362,-0.48282 0.22086,-0.6565c0.14724,-0.17368 0.3313,-0.26051 0.55217,-0.26051c0.22086,0 0.40492,0.08683 0.55217,0.26051c0.14724,0.17368 0.22086,0.39251 0.22086,0.6565c0,0.26398 -0.07362,0.48281 -0.22086,0.65649c-0.14724,0.17368 -0.3313,0.26052 -0.55217,0.26052M325.71652,212.3225c-0.22086,0 -0.40492,-0.08892 -0.55217,-0.26677c-0.14724,-0.17645 -0.22086,-0.39668 -0.22086,-0.66066c0,-0.27093 0.07362,-0.49185 0.22086,-0.66274c0.14724,-0.16951 0.3313,-0.25426 0.55217,-0.25426c0.22086,0 0.40492,0.08475 0.55217,0.25426c0.14724,0.1709 0.22086,0.39181 0.22086,0.66274c0,0.26398 -0.07362,0.48421 -0.22086,0.66066c-0.14724,0.17784 -0.3313,0.26677 -0.55217,0.26677zM329.98659,212.17661v-8.30516h1.18715v5.15816h0.03681l1.85895,-2.63639h1.3344l-1.73932,2.36546l1.91417,3.41793h-1.30679l-1.31599,-2.51134l-0.78224,1.03163v1.47971zM337.21075,212.3225c-0.42333,0 -0.82088,-0.12018 -1.19267,-0.36055c-0.37056,-0.23898 -0.66935,-0.58633 -0.89635,-1.04206c-0.227,-0.45433 -0.3405,-0.99759 -0.3405,-1.62977c0,-0.64607 0.1135,-1.19488 0.3405,-1.64644c0.227,-0.45156 0.52578,-0.79752 0.89635,-1.03789c0.37179,-0.23898 0.76935,-0.35847 1.19267,-0.35847c0.31903,0 0.62456,0.06739 0.91659,0.20216c0.29081,0.13616 0.54971,0.33415 0.77671,0.59397c0.227,0.26121 0.40676,0.57938 0.53928,0.95452c0.13129,0.37514 0.19694,0.80585 0.19694,1.29214c0,0.63218 -0.1135,1.17544 -0.3405,1.62977c-0.227,0.45572 -0.52578,0.80308 -0.89635,1.04206c-0.37179,0.24036 -0.76935,0.36055 -1.19267,0.36055M337.21075,211.19708c0.25154,0 0.46627,-0.0785 0.64419,-0.2355c0.17792,-0.15562 0.31473,-0.37791 0.41044,-0.66691c0.09448,-0.28761 0.14172,-0.62246 0.14172,-1.00454c0,-0.38903 -0.04724,-0.72804 -0.14172,-1.01704c-0.09571,-0.28761 -0.23252,-0.50991 -0.41044,-0.66691c-0.17792,-0.15562 -0.39265,-0.23342 -0.64419,-0.23342c-0.2454,0 -0.45707,0.07781 -0.63499,0.23342c-0.17792,0.157 -0.31473,0.37931 -0.41044,0.66691c-0.09448,0.289 -0.14172,0.62801 -0.14172,1.01704c0,0.38209 0.04724,0.71694 0.14172,1.00454c0.09571,0.289 0.23252,0.51129 0.41044,0.66691c0.17792,0.157 0.38958,0.2355 0.63499,0.2355zM342.34588,212.3225c-0.39265,0 -0.70739,-0.08892 -0.9442,-0.26677c-0.23559,-0.17645 -0.40676,-0.42307 -0.51351,-0.73986c-0.10798,-0.31539 -0.16197,-0.6815 -0.16197,-1.09832v-2.7406h-0.72701v-1.02121l0.80063,-0.06253l0.12884,-1.58392h1.0031v1.58392h1.29759v1.08373h-1.29759v2.75102c0,0.33345 0.06012,0.58494 0.18037,0.75445c0.11902,0.1709 0.30124,0.25634 0.54664,0.25634c0.08589,0 0.17608,-0.01389 0.27056,-0.04168c0.09571,-0.02779 0.18038,-0.05905 0.254,-0.09378l0.20246,1.00037c-0.13497,0.04863 -0.29019,0.09726 -0.46566,0.14589c-0.17424,0.04863 -0.36566,0.07294 -0.57425,0.07294zM346.18342,212.3225c-0.42333,0 -0.82088,-0.12018 -1.19267,-0.36055c-0.37056,-0.23898 -0.66934,-0.58633 -0.89634,-1.04206c-0.227,-0.45433 -0.3405,-0.99759 -0.3405,-1.62977c0,-0.64607 0.1135,-1.19488 0.3405,-1.64644c0.227,-0.45156 0.52578,-0.79752 0.89634,-1.03789c0.37179,-0.23898 0.76935,-0.35847 1.19267,-0.35847c0.31903,0 0.62456,0.06739 0.9166,0.20216c0.29081,0.13616 0.54971,0.33415 0.77671,0.59397c0.227,0.26121 0.40676,0.57938 0.53928,0.95452c0.13129,0.37514 0.19694,0.80585 0.19694,1.29214c0,0.63218 -0.1135,1.17544 -0.3405,1.62977c-0.227,0.45572 -0.52578,0.80308 -0.89635,1.04206c-0.37179,0.24036 -0.76935,0.36055 -1.19267,0.36055M346.18342,211.19708c0.25154,0 0.46627,-0.0785 0.64419,-0.2355c0.17792,-0.15562 0.31473,-0.37791 0.41044,-0.66691c0.09448,-0.28761 0.14172,-0.62246 0.14172,-1.00454c0,-0.38903 -0.04724,-0.72804 -0.14172,-1.01704c-0.09571,-0.28761 -0.23252,-0.50991 -0.41044,-0.66691c-0.17792,-0.15562 -0.39265,-0.23342 -0.64419,-0.23342c-0.2454,0 -0.45707,0.07781 -0.63499,0.23342c-0.17792,0.157 -0.31473,0.37931 -0.41044,0.66691c-0.09448,0.289 -0.14172,0.62801 -0.14172,1.01704c0,0.38209 0.04724,0.71694 0.14172,1.00454c0.09571,0.289 0.23252,0.51129 0.41044,0.66691c0.17792,0.157 0.38958,0.2355 0.63499,0.2355zM349.80009,212.17661v-8.30516h1.20556v2.14663l-0.05521,1.10458c0.21473,-0.22925 0.45216,-0.4328 0.71229,-0.61065c0.26136,-0.17645 0.56689,-0.26468 0.91659,-0.26468c0.54603,0 0.94481,0.20146 1.19636,0.60439c0.25154,0.40293 0.37731,0.96911 0.37731,1.69855v3.62634h-1.20556v-3.44919c0,-0.47934 -0.06258,-0.81627 -0.18774,-1.01079c-0.12638,-0.19452 -0.32762,-0.29178 -0.6037,-0.29178c-0.22086,0 -0.41596,0.06044 -0.5853,0.18132c-0.1681,0.12227 -0.35645,0.29802 -0.56505,0.52728v4.04316zM357.69604,212.3225c-0.42333,0 -0.82089,-0.12018 -1.19268,-0.36055c-0.37056,-0.23898 -0.66934,-0.58633 -0.89634,-1.04206c-0.227,-0.45433 -0.3405,-0.99759 -0.3405,-1.62977c0,-0.64607 0.1135,-1.19488 0.3405,-1.64644c0.227,-0.45156 0.52578,-0.79752 0.89634,-1.03789c0.37179,-0.23898 0.76935,-0.35847 1.19268,-0.35847c0.31903,0 0.62456,0.06739 0.91659,0.20216c0.29081,0.13616 0.54971,0.33415 0.77671,0.59397c0.227,0.26121 0.40676,0.57938 0.53928,0.95452c0.13129,0.37514 0.19694,0.80585 0.19694,1.29214c0,0.63218 -0.1135,1.17544 -0.3405,1.62977c-0.227,0.45572 -0.52578,0.80308 -0.89634,1.04206c-0.37179,0.24036 -0.76935,0.36055 -1.19267,0.36055M357.69604,211.19708c0.25154,0 0.46627,-0.0785 0.64419,-0.2355c0.17792,-0.15562 0.31473,-0.37791 0.41044,-0.66691c0.09448,-0.28761 0.14172,-0.62246 0.14172,-1.00454c0,-0.38903 -0.04724,-0.72804 -0.14172,-1.01704c-0.09571,-0.28761 -0.23252,-0.50991 -0.41044,-0.66691c-0.17792,-0.15562 -0.39265,-0.23342 -0.64419,-0.23342c-0.2454,0 -0.45707,0.07781 -0.63499,0.23342c-0.17792,0.157 -0.31412,0.37931 -0.4086,0.66691c-0.09571,0.289 -0.14356,0.62801 -0.14356,1.01704c0,0.38209 0.04785,0.71694 0.14356,1.00454c0.09448,0.289 0.23068,0.51129 0.4086,0.66691c0.17792,0.157 0.38959,0.2355 0.63499,0.2355zM362.28821,212.17661c0.03067,-0.68775 0.08467,-1.31854 0.16197,-1.89237c0.07608,-0.57243 0.18344,-1.11569 0.3221,-1.62977c0.13743,-0.51408 0.31657,-1.01774 0.53744,-1.51098c0.22086,-0.49324 0.49388,-0.99689 0.81905,-1.51098h-3.11973v-1.15668h4.43572v0.83364c-0.39265,0.55576 -0.70984,1.08721 -0.95156,1.59434c-0.24295,0.50713 -0.43007,1.0226 -0.56137,1.54641c-0.13252,0.52519 -0.22761,1.08999 -0.28528,1.69438c-0.0589,0.60439 -0.10062,1.28172 -0.12516,2.032z" fill="#ffffff" stroke="none" stroke-width="1" stroke-linecap="butt" stroke-linejoin="miter"/><path d="M289.12642,215.91966h7.07691v1.02121h-7.07691v-1.02121M288.54666,215.91966h0.97549v3.01153c0,0.43766 -0.01043,0.91492 -0.03129,1.43178c-0.02209,0.51825 -0.06687,1.04969 -0.13436,1.59434c-0.06749,0.54604 -0.16381,1.07401 -0.28896,1.58392c-0.12638,0.5113 -0.29387,0.97536 -0.50247,1.39218c-0.06135,-0.05558 -0.1454,-0.12018 -0.25215,-0.19382c-0.10798,-0.07225 -0.21535,-0.14311 -0.3221,-0.21258c-0.10798,-0.06947 -0.20491,-0.1181 -0.29081,-0.14589c0.19632,-0.39598 0.35154,-0.8253 0.46566,-1.28797c0.11289,-0.46128 0.19571,-0.93507 0.24847,-1.42136c0.05153,-0.48629 0.0865,-0.96425 0.10491,-1.43386c0.01841,-0.46823 0.02761,-0.9038 0.02761,-1.30673v-3.01153M291.16023,220.18165v0.77112h3.3682v-0.77112h-3.3682M291.16023,218.629v0.7607h3.3682v-0.7607h-3.3682M290.19395,217.78494h5.34679v4.0119h-5.34679v-4.0119M292.36578,221.14035h0.95709v2.8969c0,0.25704 -0.02761,0.46197 -0.08283,0.61481c-0.05522,0.15283 -0.16258,0.26746 -0.32209,0.34388c-0.16565,0.07642 -0.36934,0.12157 -0.61106,0.13546c-0.24295,0.01389 -0.53008,0.02084 -0.86138,0.02084c-0.01841,-0.14589 -0.05521,-0.31123 -0.11043,-0.49602c-0.05522,-0.1834 -0.1135,-0.34804 -0.17485,-0.49393c0.22086,0.00695 0.43253,0.01181 0.63499,0.01459c0.20246,0.00417 0.33437,0.00278 0.39572,-0.00417c0.07362,0 0.12148,-0.0125 0.14357,-0.03751c0.02086,-0.02362 0.03129,-0.06322 0.03129,-0.11879v-2.87606M292.18172,216.98256l1.17795,0.16673c-0.12884,0.24315 -0.2589,0.47379 -0.3902,0.69192c-0.13252,0.21953 -0.254,0.40918 -0.36443,0.56896l-0.92027,-0.20841c0.09816,-0.18062 0.19203,-0.38417 0.2816,-0.61064c0.08835,-0.22508 0.16013,-0.42794 0.21534,-0.60856M293.86582,222.63048l0.78224,-0.46892c0.17178,0.20841 0.35891,0.44114 0.56137,0.69818c0.20246,0.25704 0.39756,0.50713 0.58529,0.75028c0.18651,0.24315 0.33805,0.4585 0.45462,0.64607l-0.84665,0.55229c-0.1043,-0.18757 -0.2454,-0.40849 -0.42333,-0.66275c-0.17792,-0.25287 -0.36504,-0.51338 -0.56137,-0.78154c-0.19632,-0.26677 -0.38038,-0.5113 -0.55217,-0.73361M290.79211,222.16155l0.93868,0.34388c-0.15338,0.25704 -0.3221,0.5245 -0.50615,0.80238c-0.18405,0.27788 -0.36934,0.54187 -0.55585,0.79196c-0.18773,0.25009 -0.36443,0.46892 -0.53008,0.6565c-0.06135,-0.05558 -0.14234,-0.12157 -0.24295,-0.19799c-0.10184,-0.07642 -0.20491,-0.15145 -0.30921,-0.22508c-0.1043,-0.07225 -0.19939,-0.13268 -0.28528,-0.18131c0.26381,-0.25704 0.53253,-0.56618 0.80616,-0.92743c0.2724,-0.36125 0.50063,-0.71555 0.68468,-1.06289zM301.8262,217.31601h3.66269v1.03163h-3.66269v-1.03163M302.09308,215.42989l0.97549,0.19799c-0.11657,0.66691 -0.26197,1.31785 -0.43621,1.95281c-0.17546,0.63634 -0.3767,1.22893 -0.6037,1.77774c-0.227,0.54881 -0.48161,1.03163 -0.76383,1.44845c-0.04908,-0.07642 -0.11779,-0.16881 -0.20614,-0.27719c-0.08957,-0.10698 -0.1816,-0.21258 -0.27608,-0.31678c-0.09571,-0.10421 -0.18037,-0.19104 -0.25399,-0.26051c0.25768,-0.3543 0.4859,-0.77112 0.68468,-1.25046c0.2,-0.47934 0.37363,-0.99898 0.52088,-1.55891c0.14724,-0.55854 0.26688,-1.12959 0.35891,-1.71314M304.03486,217.97251l1.0215,0.13546c-0.15951,1.18099 -0.39449,2.22305 -0.70493,3.12616c-0.30921,0.90311 -0.72333,1.67909 -1.24237,2.32795c-0.51781,0.65024 -1.17243,1.19766 -1.96387,1.64227c-0.03067,-0.09726 -0.07975,-0.21049 -0.14724,-0.33971c-0.06749,-0.12783 -0.13927,-0.25426 -0.21534,-0.37931c-0.0773,-0.12505 -0.14663,-0.22925 -0.20798,-0.31262c0.72395,-0.36125 1.31906,-0.82531 1.78533,-1.39218c0.46627,-0.56549 0.83316,-1.2463 1.10065,-2.04242c0.26626,-0.79474 0.45768,-1.7166 0.57425,-2.7656M302.33234,218.16007c0.15338,0.91006 0.36811,1.75899 0.64419,2.54678c0.27608,0.78918 0.63499,1.47902 1.07672,2.06951c0.44173,0.5905 0.97856,1.049 1.61048,1.37551c-0.07362,0.06947 -0.15338,0.16117 -0.23927,0.2751c-0.08589,0.11532 -0.16565,0.23202 -0.23927,0.35013c-0.07362,0.1181 -0.13804,0.22578 -0.19326,0.32304c-0.66873,-0.39598 -1.23317,-0.92256 -1.6933,-1.57975c-0.46014,-0.6558 -0.83561,-1.42136 -1.12641,-2.29668c-0.29203,-0.87532 -0.53008,-1.83749 -0.71414,-2.88649l0.87426,-0.17715M297.4549,224.80837l-0.13804,-1.08373l0.41412,-0.41682l2.94488,-1.15668c0,0.16673 0.01227,0.35221 0.03681,0.55646c0.02454,0.20563 0.04908,0.37097 0.07362,0.49602c-0.53376,0.22925 -0.98469,0.42376 -1.3528,0.58355c-0.36811,0.15978 -0.66873,0.29525 -0.90187,0.4064c-0.23313,0.11115 -0.42026,0.20286 -0.56137,0.2751c-0.14111,0.07364 -0.25032,0.13616 -0.32762,0.18757c-0.07608,0.0528 -0.13865,0.10351 -0.18773,0.15214M297.4549,224.80837c-0.01841,-0.11115 -0.04786,-0.23828 -0.08835,-0.38139c-0.03927,-0.14172 -0.08344,-0.28414 -0.13252,-0.42724c-0.04908,-0.14172 -0.10123,-0.25773 -0.15645,-0.34805c0.08589,-0.04863 0.16258,-0.12158 0.23007,-0.21883c0.06749,-0.09726 0.10123,-0.23967 0.10123,-0.42724v-3.91812h0.99389v4.8768c0,0 -0.03191,0.01737 -0.09571,0.0521c-0.06503,0.03473 -0.14479,0.07781 -0.23927,0.12921c-0.09571,0.0528 -0.19141,0.11532 -0.28712,0.18757c-0.09448,0.07364 -0.1724,0.15006 -0.23375,0.22925c-0.06135,0.08059 -0.09203,0.16256 -0.09203,0.24592M297.30766,216.10723h3.3774v4.08485h-3.07372v-1.10458h2.09822v-1.88612h-2.40191zM309.897,216.6491h4.3713v0.94827h-4.3713v-0.94827M308.70984,218.60816h5.94497v0.93784h-5.94497v-0.93784M309.74055,215.54452l0.91107,0.22925c-0.12884,0.52103 -0.29939,1.02816 -0.51167,1.52139c-0.21105,0.49324 -0.43928,0.90659 -0.68469,1.24005c-0.06135,-0.05558 -0.14234,-0.11463 -0.24295,-0.17715c-0.10184,-0.06253 -0.20491,-0.12713 -0.30921,-0.19382c-0.1043,-0.0653 -0.19632,-0.11532 -0.27608,-0.15005c0.25154,-0.30567 0.47241,-0.67942 0.6626,-1.12125c0.19019,-0.44044 0.3405,-0.88991 0.45093,-1.34842M311.2406,215.42989h0.97549v3.80349h-0.97549v-3.80349M306.36314,216.39901l0.73622,-0.60439c0.17178,0.15978 0.34848,0.33485 0.53008,0.52519c0.18037,0.19174 0.35032,0.38486 0.50983,0.57938c0.15951,0.19452 0.28528,0.37167 0.37731,0.53145l-0.78223,0.67733c-0.07976,-0.16673 -0.19632,-0.35082 -0.3497,-0.55229c-0.15338,-0.20146 -0.31903,-0.40292 -0.49695,-0.60439c-0.17792,-0.20146 -0.35277,-0.38556 -0.52456,-0.55229M308.32334,219.4418v3.98064h-0.94788v-2.93859h-1.09513v-1.04205h2.04301M310.32034,221.15077v1.20878h2.6872v-1.20878h-2.6872M309.39086,220.24418h4.60137v3.01153h-4.60137v-3.01153M308.01043,223.05772c0.13497,0 0.26381,0.0521 0.38651,0.15631c0.1227,0.10421 0.29142,0.22578 0.50615,0.36472c0.27608,0.18757 0.61352,0.30567 1.0123,0.3543c0.39879,0.04863 0.84358,0.07294 1.3344,0.07294c0.25768,0 0.5448,-0.00556 0.86138,-0.01668c0.31535,-0.00973 0.63867,-0.02362 0.96997,-0.04168c0.3313,-0.01667 0.65339,-0.04098 0.96629,-0.07294c0.31289,-0.03056 0.59204,-0.06669 0.83745,-0.10837c-0.03067,0.09726 -0.06748,0.21536 -0.11043,0.3543c-0.04295,0.13894 -0.07976,0.2758 -0.11043,0.41057c-0.03067,0.13616 -0.04908,0.25287 -0.05522,0.35013c-0.20246,0.01389 -0.44663,0.0257 -0.73253,0.03543c-0.28467,0.01112 -0.5853,0.02154 -0.90187,0.03126c-0.31535,0.01112 -0.62333,0.02014 -0.92396,0.02709c-0.30062,0.00695 -0.5767,0.01042 -0.82824,0.01042c-0.55217,0 -1.02273,-0.03126 -1.4117,-0.09379c-0.3902,-0.06253 -0.73254,-0.19104 -1.02702,-0.38556c-0.17178,-0.1181 -0.32332,-0.23134 -0.45462,-0.33971c-0.13252,-0.10698 -0.24479,-0.16048 -0.33682,-0.16048c-0.09203,0 -0.20246,0.05349 -0.3313,0.16048c-0.12884,0.10837 -0.26197,0.2494 -0.3994,0.42307c-0.13865,0.17368 -0.27853,0.35777 -0.41964,0.55229l-0.59818,-0.97953c0.30062,-0.31262 0.60922,-0.57522 0.9258,-0.78779c0.31535,-0.21119 0.59573,-0.31678 0.84113,-0.31678zM316.32972,218.2226h2.82524v0.97953h-2.82524v-0.97953M319.98321,218.34764h3.11053v1.02121h-3.11053v-1.02121M317.58128,215.41948h0.89267v3.37625h-0.89267v-3.37625M316.37573,220.47343h2.29148v4.65797h-0.90187v-3.66802h-1.38961v-0.98995M315.9432,215.69041h0.91107v4.06401c0,0.45156 -0.0092,0.92187 -0.02761,1.41094c-0.01841,0.49046 -0.05644,0.97675 -0.11411,1.45887c-0.0589,0.48351 -0.14357,0.94549 -0.254,1.38593c-0.11043,0.44183 -0.26074,0.83989 -0.45093,1.19419c-0.04908,-0.06947 -0.11534,-0.14797 -0.19878,-0.2355c-0.08221,-0.08615 -0.16811,-0.1709 -0.25768,-0.25426c-0.08835,-0.08336 -0.16933,-0.14936 -0.24295,-0.19799c0.14724,-0.31956 0.26258,-0.67594 0.34602,-1.06915c0.08221,-0.39181 0.14357,-0.7996 0.18406,-1.22337c0.03927,-0.42377 0.06626,-0.84614 0.08098,-1.26714c0.01595,-0.4196 0.02393,-0.82044 0.02393,-1.20253v-4.06401M322.83606,218.34764h0.17485l0.15644,-0.03126l0.58898,0.16673c-0.11657,1.16015 -0.32087,2.17441 -0.6129,3.04279c-0.29081,0.86838 -0.66015,1.60268 -1.10801,2.2029c-0.44787,0.60161 -0.97242,1.08999 -1.57367,1.46513c-0.03681,-0.09031 -0.08896,-0.19313 -0.15645,-0.30845c-0.06749,-0.11393 -0.13804,-0.22647 -0.21166,-0.33762c-0.07362,-0.11115 -0.14724,-0.19799 -0.22086,-0.26052c0.53376,-0.28483 1.0031,-0.69679 1.40802,-1.23587c0.40492,-0.5377 0.73929,-1.18516 1.0031,-1.94239c0.26381,-0.75723 0.44787,-1.60824 0.55217,-2.55303v-0.20841M321.10594,219.02498c0.14111,0.77807 0.33866,1.51098 0.59266,2.19873c0.25522,0.68775 0.57303,1.29562 0.9534,1.82359c0.38038,0.52797 0.82825,0.94479 1.3436,1.25046c-0.06749,0.06947 -0.14295,0.15631 -0.22639,0.26052c-0.08221,0.10421 -0.16135,0.21188 -0.23743,0.32304c-0.0773,0.11115 -0.14356,0.21536 -0.19878,0.31262c-0.53376,-0.37514 -0.9939,-0.86143 -1.38041,-1.45887c-0.38651,-0.59744 -0.70677,-1.28034 -0.96076,-2.04868c-0.25522,-0.76695 -0.46566,-1.59503 -0.63131,-2.48425l0.74542,-0.17715M323.33301,215.49242l0.57057,0.96911c-0.39879,0.09726 -0.83254,0.1841 -1.30127,0.26052c-0.46995,0.07642 -0.95033,0.13894 -1.44115,0.18757c-0.49081,0.04863 -0.96629,0.08684 -1.42643,0.11463c-0.01227,-0.13894 -0.04418,-0.29873 -0.09571,-0.47935c-0.05276,-0.18062 -0.10368,-0.33692 -0.15276,-0.46892c0.44787,-0.03473 0.90677,-0.08198 1.37673,-0.14172c0.46873,-0.05835 0.91598,-0.12435 1.34176,-0.19799c0.42701,-0.07225 0.80309,-0.15353 1.12825,-0.24384M319.48627,216.07597h0.93868v3.53256c0,0.44461 -0.01043,0.91701 -0.03129,1.41719c-0.02209,0.50019 -0.06381,1.00037 -0.12516,1.50056c-0.06135,0.50019 -0.15338,0.98439 -0.27608,1.45262c-0.1227,0.46962 -0.28528,0.89547 -0.48775,1.27755c-0.06135,-0.06947 -0.13927,-0.14241 -0.23375,-0.21883c-0.09571,-0.07642 -0.19265,-0.15283 -0.29081,-0.22925c-0.09816,-0.07642 -0.18712,-0.13546 -0.26688,-0.17715c0.17178,-0.34735 0.30799,-0.73152 0.4086,-1.15251c0.10184,-0.4196 0.17853,-0.85518 0.23007,-1.30673c0.05276,-0.45156 0.08834,-0.89617 0.10675,-1.33383c0.01841,-0.43766 0.02761,-0.84754 0.02761,-1.22962zM328.79943,217.14928h4.39891v1.06289h-4.85905l0.46014,-1.06289M329.99579,219.42096h2.97249v1.02121h-2.97249v-1.02121M329.98659,221.73432h3.11053v1.04205h-3.11053v-1.04205M329.49884,217.49316h1.0123v7.65909h-1.0123v-7.65909M329.0571,215.5341l0.94788,0.28135c-0.17178,0.56271 -0.37302,1.11847 -0.6037,1.66728c-0.22945,0.54881 -0.47916,1.06081 -0.7491,1.53599c-0.26995,0.47657 -0.54603,0.89894 -0.82825,1.26714c-0.04908,-0.06947 -0.12147,-0.15492 -0.21718,-0.25635c-0.09448,-0.10004 -0.18896,-0.19868 -0.28344,-0.29594c-0.09571,-0.09726 -0.18037,-0.17368 -0.25399,-0.22925c0.27608,-0.31262 0.53683,-0.68289 0.78223,-1.11083c0.2454,-0.42654 0.47057,-0.88505 0.67548,-1.37551c0.20614,-0.48907 0.38284,-0.98369 0.53008,-1.48388M326.6828,215.47158l0.94788,0.34388c-0.19632,0.58355 -0.42946,1.17196 -0.69941,1.76524c-0.26995,0.59466 -0.5626,1.15251 -0.87794,1.67353c-0.31657,0.52103 -0.64665,0.983 -0.99022,1.38593c-0.02454,-0.09726 -0.07055,-0.22091 -0.13804,-0.37097c-0.06749,-0.14867 -0.1362,-0.29942 -0.20614,-0.45225c-0.07117,-0.15283 -0.13743,-0.2744 -0.19878,-0.36472c0.28835,-0.31956 0.56566,-0.69331 0.83193,-1.12125c0.26749,-0.42654 0.51474,-0.88297 0.74174,-1.36926c0.227,-0.48629 0.42333,-0.98301 0.58898,-1.49014M325.73492,218.29554l0.99389,-1.12542v0.01042v7.96128h-0.99389zM333.95297,218.63942h8.26406v0.98995h-8.26406v-0.98995M334.75361,216.60742h5.28237v0.96911h-5.28237v-0.96911M336.33648,222.2345h4.17804v0.85449h-4.17804v-0.85449M336.33648,223.90178h4.17804v0.94827h-4.17804v-0.94827M336.98067,215.42989h0.97549v3.76181h-0.97549v-3.76181M341.02068,215.75293l0.84665,0.50019c-0.60125,0.9309 -1.30372,1.7833 -2.10743,2.5572c-0.80371,0.77529 -1.66877,1.46165 -2.59518,2.0591c-0.92641,0.59744 -1.88349,1.10457 -2.87125,1.52139c-0.03681,-0.08336 -0.09202,-0.18271 -0.16565,-0.29802c-0.07362,-0.11393 -0.15031,-0.22856 -0.23007,-0.34388c-0.07976,-0.11393 -0.15031,-0.2091 -0.21166,-0.28552c1.00003,-0.36819 1.95589,-0.83225 2.86757,-1.39218c0.91046,-0.55854 1.7473,-1.20253 2.51051,-1.93197c0.76444,-0.72943 1.41661,-1.52487 1.9565,-2.3863M335.79352,220.54638h5.34679v4.57461h-1.0307v-3.6576h-3.3314v3.69928h-0.98469zM344.122,220.36922c-0.22086,0 -0.40492,-0.08684 -0.55216,-0.26052c-0.14724,-0.17368 -0.22087,-0.39251 -0.22087,-0.65649c0,-0.26398 0.07363,-0.48282 0.22087,-0.6565c0.14724,-0.17368 0.3313,-0.26051 0.55216,-0.26051c0.22086,0 0.40492,0.08683 0.55217,0.26051c0.14724,0.17368 0.22087,0.39251 0.22087,0.6565c0,0.26398 -0.07363,0.48281 -0.22087,0.65649c-0.14724,0.17368 -0.3313,0.26052 -0.55217,0.26052M344.122,224.40197c-0.22086,0 -0.40492,-0.08892 -0.55216,-0.26677c-0.14724,-0.17645 -0.22087,-0.39668 -0.22087,-0.66066c0,-0.27093 0.07363,-0.49185 0.22087,-0.66274c0.14724,-0.16951 0.3313,-0.25426 0.55216,-0.25426c0.22086,0 0.40492,0.08475 0.55217,0.25426c0.14724,0.1709 0.22087,0.39181 0.22087,0.66274c0,0.26398 -0.07363,0.48421 -0.22087,0.66066c-0.14724,0.17784 -0.3313,0.26677 -0.55217,0.26677zM350.18661,224.40197c-0.39265,0 -0.70677,-0.08892 -0.94236,-0.26677c-0.23682,-0.17645 -0.4086,-0.42307 -0.51535,-0.73986c-0.10798,-0.31539 -0.16197,-0.6815 -0.16197,-1.09832v-2.7406h-0.72702v-1.02121l0.80064,-0.06253l0.12884,-1.58392h1.0031v1.58392h1.29759v1.08374h-1.29759v2.75102c0,0.33345 0.06012,0.58494 0.18037,0.75445c0.11902,0.1709 0.30124,0.25635 0.54664,0.25635c0.08589,0 0.17669,-0.0139 0.2724,-0.04169c0.09448,-0.02779 0.17853,-0.05905 0.25215,-0.09378l0.20246,1.00037c-0.13497,0.04863 -0.28958,0.09726 -0.46382,0.14589c-0.17546,0.04863 -0.3675,0.07294 -0.57609,0.07294zM354.05175,224.40197c-0.44787,0 -0.84051,-0.14936 -1.17795,-0.44808c-0.33743,-0.29872 -0.60002,-0.7468 -0.78776,-1.34425c-0.18651,-0.59744 -0.27976,-1.34078 -0.27976,-2.23c0,-0.88922 0.09325,-1.6256 0.27976,-2.20915c0.18773,-0.58355 0.45032,-1.02122 0.78776,-1.31299c0.33743,-0.29177 0.73008,-0.43766 1.17795,-0.43766c0.46014,0 0.85769,0.14589 1.19267,0.43766c0.33375,0.29177 0.59266,0.72944 0.77671,1.31299c0.18405,0.58355 0.27608,1.31993 0.27608,2.20915c0,0.88922 -0.09203,1.63255 -0.27608,2.23c-0.18405,0.59744 -0.44296,1.04553 -0.77671,1.34425c-0.33498,0.29872 -0.73254,0.44808 -1.19267,0.44808M354.05175,223.31824c0.21473,0 0.40492,-0.09379 0.57057,-0.28136c0.16565,-0.18757 0.29633,-0.49532 0.39204,-0.92326c0.09448,-0.42654 0.14172,-1.00454 0.14172,-1.73398c0,-0.72943 -0.04724,-1.30604 -0.14172,-1.7298c-0.09571,-0.42377 -0.22639,-0.72457 -0.39204,-0.90242c-0.16565,-0.17645 -0.35584,-0.26468 -0.57057,-0.26468c-0.20859,0 -0.39572,0.08823 -0.56137,0.26468c-0.16565,0.17784 -0.29755,0.47865 -0.39572,0.90242c-0.09816,0.42377 -0.14724,1.00037 -0.14724,1.7298c0,0.72943 0.04908,1.30743 0.14724,1.73398c0.09816,0.42794 0.23007,0.73569 0.39572,0.92326c0.16565,0.18757 0.35277,0.28136 0.56137,0.28136zM358.45989,224.25608c0.03067,-0.68775 0.08405,-1.31854 0.16013,-1.89237c0.0773,-0.57243 0.18467,-1.11569 0.32209,-1.62977c0.13865,-0.51408 0.31842,-1.01774 0.53928,-1.51098c0.22086,-0.49324 0.49388,-0.99689 0.81904,-1.51098h-3.11973v-1.15668h4.43572v0.83364c-0.39265,0.55576 -0.70984,1.08721 -0.95157,1.59434c-0.24295,0.50713 -0.43007,1.0226 -0.56137,1.54641c-0.13252,0.52519 -0.22823,1.08999 -0.28712,1.69438c-0.05767,0.60439 -0.09877,1.28172 -0.12331,2.032zM362.45386,224.25608v-0.79196c0.64419,-0.65302 1.18838,-1.25254 1.63256,-1.79858c0.44541,-0.54465 0.78285,-1.05178 1.0123,-1.5214c0.23068,-0.46823 0.34602,-0.90728 0.34602,-1.31715c0,-0.26398 -0.0411,-0.49532 -0.12331,-0.694c-0.08344,-0.1973 -0.20492,-0.35152 -0.36443,-0.46267c-0.15951,-0.11115 -0.35891,-0.16673 -0.59818,-0.16673c-0.25768,0 -0.49204,0.07989 -0.70309,0.23967c-0.21227,0.15978 -0.40737,0.35429 -0.5853,0.58355l-0.6718,-0.75027c0.30062,-0.36819 0.61536,-0.65302 0.9442,-0.85449c0.32762,-0.20146 0.71843,-0.3022 1.17243,-0.3022c0.42333,0 0.79143,0.09726 1.10433,0.29178c0.31289,0.19452 0.55646,0.46545 0.7307,0.8128c0.17546,0.34735 0.2632,0.75722 0.2632,1.22962c0,0.47934 -0.10614,0.96564 -0.31842,1.45887c-0.21105,0.49324 -0.49572,0.98787 -0.85401,1.48389c-0.35952,0.49741 -0.76322,0.99273 -1.21108,1.48596c0.17792,-0.02084 0.36811,-0.04029 0.57057,-0.05835c0.20246,-0.01667 0.38345,-0.02501 0.54296,-0.02501h1.58287v1.15668zM369.69643,224.40197c-0.41106,0 -0.76506,-0.08336 -1.062,-0.25009c-0.29817,-0.16673 -0.54848,-0.3682 -0.75094,-0.60439l0.6534,-0.83364c0.12884,0.16673 0.29142,0.3022 0.48775,0.4064c0.19632,0.10421 0.39572,0.1563 0.59818,0.1563c0.20859,0 0.40492,-0.0521 0.58897,-0.1563c0.18405,-0.10421 0.34664,-0.2765 0.48775,-0.51686c0.14111,-0.23898 0.25154,-0.55646 0.3313,-0.95244c0.07976,-0.39598 0.11963,-0.88227 0.11963,-1.45887c0,-0.65302 -0.05521,-1.1796 -0.16565,-1.57975c-0.11043,-0.39876 -0.26074,-0.69053 -0.45093,-0.87532c-0.19019,-0.1834 -0.40799,-0.2751 -0.6534,-0.2751c-0.18405,0 -0.35154,0.05905 -0.50247,0.17715c-0.1497,0.1181 -0.26934,0.2883 -0.35891,0.51061c-0.08835,0.2223 -0.13252,0.49671 -0.13252,0.82322c0,0.31262 0.0411,0.57452 0.12331,0.78571c0.08344,0.21258 0.20369,0.37444 0.36075,0.4856c0.15583,0.11115 0.33805,0.16673 0.54664,0.16673c0.20246,0 0.41106,-0.07294 0.62579,-0.21883c0.21473,-0.14589 0.41412,-0.38209 0.59818,-0.7086l0.06442,0.95869c-0.12884,0.18757 -0.27792,0.35221 -0.44725,0.49393c-0.1681,0.14311 -0.34234,0.25426 -0.52272,0.33346c-0.1816,0.08059 -0.35829,0.12088 -0.53008,0.12088c-0.38038,0 -0.71475,-0.08892 -1.0031,-0.26677c-0.28835,-0.17645 -0.51535,-0.4453 -0.681,-0.80655c-0.16565,-0.36125 -0.24847,-0.80933 -0.24847,-1.34425c0,-0.52103 0.09509,-0.97258 0.28528,-1.35467c0.19019,-0.38209 0.44357,-0.67734 0.76015,-0.88575c0.31535,-0.20841 0.66014,-0.31262 1.03439,-0.31262c0.32516,0 0.63376,0.07434 0.9258,0.223c0.29081,0.15006 0.54664,0.37792 0.76751,0.68359c0.22086,0.30567 0.39449,0.69609 0.52088,1.17127c0.12516,0.47657 0.18773,1.04136 0.18773,1.69438c0,0.73638 -0.06933,1.37204 -0.20798,1.90696c-0.13743,0.53492 -0.32884,0.9705 -0.57425,1.30673c-0.2454,0.33763 -0.51965,0.58772 -0.82273,0.75028c-0.3043,0.16395 -0.62211,0.24592 -0.9534,0.24592z" fill="#ffffff" stroke="none" stroke-width="1" stroke-linecap="butt" stroke-linejoin="miter"/><path d="M290.50683,230.63552h1.77613v1.07331h-1.77613v-1.07331M290.13872,227.50937h1.0123v8.326l-1.0123,0.12505v-8.45105M288.39941,229.66642h0.95708v6.43988l-0.95708,0.15631v-6.59619M287.7,235.98125c0.38651,-0.06947 0.83009,-0.14936 1.33072,-0.23967c0.4994,-0.09031 1.02518,-0.18965 1.57735,-0.29802c0.55217,-0.10698 1.09513,-0.21606 1.62889,-0.32721l0.07362,1.10458c-0.51535,0.11115 -1.03991,0.22231 -1.57367,0.33346c-0.53376,0.11115 -1.04604,0.21674 -1.53686,0.31678c-0.49081,0.10143 -0.93561,0.19729 -1.3344,0.28761l-0.16565,-1.17752M295.31986,229.77062l0.79144,0.91701c-0.26995,0.21536 -0.56137,0.42724 -0.87426,0.63565c-0.31289,0.20841 -0.63192,0.40432 -0.95709,0.58772c-0.32516,0.18479 -0.64113,0.36055 -0.94788,0.52728c-0.03067,-0.13199 -0.08405,-0.28344 -0.16013,-0.45434c-0.0773,-0.16951 -0.1497,-0.30983 -0.21718,-0.42099c0.28835,-0.16673 0.57671,-0.35082 0.86506,-0.55229c0.28835,-0.20146 0.56321,-0.40987 0.82457,-0.62523c0.26013,-0.21536 0.48529,-0.4203 0.67548,-0.61481M292.65108,227.50937h1.0307v7.73203c0,0.28483 0.02147,0.46544 0.06442,0.54186c0.04295,0.07642 0.14418,0.11463 0.30369,0.11463c0.03681,0 0.09816,0 0.18405,0c0.08589,0 0.18099,0 0.28528,0c0.1043,0 0.20123,0 0.29081,0c0.08835,0 0.15399,0 0.19694,0c0.11043,0 0.19142,-0.04863 0.24295,-0.14588c0.05276,-0.09726 0.09141,-0.27441 0.11595,-0.53145c0.02454,-0.25704 0.04295,-0.61828 0.05522,-1.08373c0.1227,0.10421 0.27485,0.20146 0.45646,0.29177c0.18037,0.09031 0.34111,0.15631 0.48222,0.19799c-0.03681,0.56966 -0.09632,1.02816 -0.17853,1.37551c-0.08344,0.34735 -0.20982,0.59883 -0.37915,0.75445c-0.1681,0.157 -0.40247,0.2355 -0.70309,0.2355c-0.04908,0 -0.13006,0 -0.24295,0c-0.11411,0 -0.23559,0 -0.36443,0c-0.12884,0 -0.24847,0 -0.35891,0c-0.11043,0 -0.19019,0 -0.23927,0c-0.32516,0 -0.5767,-0.0521 -0.75462,-0.15631c-0.17792,-0.10421 -0.30369,-0.28483 -0.37731,-0.54187c-0.07362,-0.25704 -0.11043,-0.61481 -0.11043,-1.07331zM297.81381,230.30207h2.82524v0.97953h-2.82524v-0.97953M301.46729,230.42711h3.11053v1.02121h-3.11053v-1.02121M299.06539,227.49895h0.89267v3.37625h-0.89267v-3.37625M297.85983,232.5529h2.29148v4.65797h-0.90187v-3.66802h-1.38961v-0.98995M297.42729,227.76988h0.91107v4.06401c0,0.45156 -0.0092,0.92187 -0.02761,1.41094c-0.01841,0.49046 -0.05705,0.97675 -0.11595,1.45887c-0.05767,0.48351 -0.14172,0.94549 -0.25215,1.38593c-0.11043,0.44183 -0.26074,0.83989 -0.45093,1.19419c-0.04908,-0.06947 -0.11473,-0.14797 -0.19694,-0.2355c-0.08344,-0.08615 -0.16933,-0.1709 -0.25768,-0.25426c-0.08957,-0.08336 -0.17117,-0.14936 -0.24479,-0.19799c0.14724,-0.31956 0.26197,-0.67594 0.34418,-1.06915c0.08344,-0.39181 0.14479,-0.7996 0.18405,-1.22337c0.04049,-0.42377 0.06872,-0.84614 0.08467,-1.26714c0.01472,-0.4196 0.02208,-0.82044 0.02208,-1.20253v-4.06401M304.32014,230.42711h0.17485l0.15645,-0.03126l0.58898,0.16673c-0.11657,1.16015 -0.32087,2.17441 -0.6129,3.04279c-0.29081,0.86838 -0.66015,1.60268 -1.10801,2.2029c-0.44787,0.60161 -0.97242,1.08999 -1.57367,1.46513c-0.03681,-0.09031 -0.08896,-0.19313 -0.15644,-0.30845c-0.06749,-0.11393 -0.13804,-0.22647 -0.21166,-0.33762c-0.07362,-0.11115 -0.14724,-0.19799 -0.22086,-0.26052c0.53376,-0.28483 1.0031,-0.69679 1.40802,-1.23587c0.40492,-0.5377 0.73928,-1.18516 1.0031,-1.94239c0.26381,-0.75723 0.44787,-1.60824 0.55217,-2.55303v-0.20841M302.59003,231.10445c0.14111,0.77807 0.33927,1.51098 0.5945,2.19873c0.25399,0.68775 0.57118,1.29562 0.95156,1.82359c0.38038,0.52797 0.82824,0.94479 1.3436,1.25046c-0.06749,0.06947 -0.14233,0.15631 -0.22455,0.26052c-0.08344,0.10421 -0.16319,0.21188 -0.23927,0.32304c-0.0773,0.11115 -0.14356,0.21536 -0.19878,0.31262c-0.53376,-0.37514 -0.99389,-0.86143 -1.38041,-1.45887c-0.38651,-0.59744 -0.70677,-1.28034 -0.96076,-2.04868c-0.25522,-0.76695 -0.46566,-1.59503 -0.63131,-2.48425l0.74542,-0.17715M304.8171,227.57189l0.57057,0.96911c-0.39879,0.09726 -0.83254,0.1841 -1.30127,0.26052c-0.46995,0.07642 -0.95034,0.13894 -1.44115,0.18757c-0.49081,0.04863 -0.96629,0.08684 -1.42642,0.11463c-0.01227,-0.13894 -0.04479,-0.29872 -0.09755,-0.47934c-0.05153,-0.18062 -0.10185,-0.33693 -0.15093,-0.46892c0.44787,-0.03473 0.90678,-0.08198 1.37673,-0.14172c0.46873,-0.05835 0.91659,-0.12435 1.3436,-0.19799c0.42578,-0.07225 0.80125,-0.15353 1.12641,-0.24384M300.97033,228.15544h0.93868v3.53256c0,0.44461 -0.01043,0.91701 -0.03129,1.41719c-0.02209,0.50019 -0.0638,1.00037 -0.12515,1.50056c-0.06135,0.50019 -0.15338,0.98439 -0.27608,1.45262c-0.1227,0.46962 -0.28528,0.89547 -0.48775,1.27756c-0.06135,-0.06947 -0.13988,-0.14241 -0.23559,-0.21883c-0.09448,-0.07642 -0.1908,-0.15283 -0.28896,-0.22925c-0.09816,-0.07642 -0.18712,-0.13546 -0.26688,-0.17715c0.17178,-0.34735 0.3086,-0.73152 0.41044,-1.15251c0.10061,-0.4196 0.17731,-0.85518 0.23007,-1.30673c0.05153,-0.45156 0.0865,-0.89617 0.10491,-1.33383c0.01841,-0.43766 0.0276,-0.84754 0.0276,-1.22962zM306.31715,229.58305h8.11682v1.13583h-8.11682v-1.13583M307.84479,234.29313h5.01549v1.13583h-5.01549v-1.13583M309.83259,227.51979h1.04911v9.72235h-1.04911v-9.72235M308.98596,229.98945l0.90187,0.29177c-0.22086,0.73638 -0.48897,1.43943 -0.80432,2.10912c-0.31657,0.67108 -0.67118,1.2845 -1.06383,1.84026c-0.39265,0.55576 -0.81597,1.03163 -1.26998,1.42761c-0.05522,-0.09726 -0.12577,-0.20146 -0.21166,-0.31262c-0.08589,-0.11115 -0.17485,-0.22091 -0.26688,-0.32929c-0.09203,-0.10698 -0.17485,-0.19521 -0.24847,-0.26468c0.42946,-0.32651 0.83316,-0.74194 1.21108,-1.24629c0.3767,-0.50296 0.71536,-1.05664 1.01598,-1.66103c0.30062,-0.60439 0.54603,-1.22268 0.73622,-1.85485M311.70995,230.02071c0.19019,0.61828 0.43437,1.2192 0.73254,1.80275c0.29694,0.58355 0.63867,1.11847 1.02518,1.60476c0.38651,0.48629 0.7945,0.88922 1.22396,1.20878c-0.07976,0.07642 -0.16995,0.1716 -0.27056,0.28553c-0.10184,0.11532 -0.19694,0.23342 -0.28528,0.3543c-0.08957,0.12227 -0.16504,0.2355 -0.22639,0.33971c-0.454,-0.38209 -0.87242,-0.84754 -1.25525,-1.39635c-0.38406,-0.54881 -0.7307,-1.15876 -1.03991,-1.82984c-0.31044,-0.66969 -0.57609,-1.36231 -0.79696,-2.07786zM318.75005,227.69694l0.82825,-0.27093c0.09203,0.12505 0.18099,0.26191 0.26688,0.41057c0.08589,0.15006 0.14724,0.28413 0.18405,0.40223l-0.85585,0.28135c-0.03681,-0.11115 -0.09509,-0.24523 -0.17485,-0.40223c-0.07976,-0.15562 -0.16258,-0.29595 -0.24847,-0.42099M318.59359,234.637l0.6534,-0.52103c0.18405,0.14589 0.37731,0.31609 0.57977,0.51061c0.20246,0.19452 0.35891,0.36819 0.46934,0.52103l-0.69021,0.57313c-0.09816,-0.15283 -0.2454,-0.33207 -0.44173,-0.5377c-0.19632,-0.20424 -0.38652,-0.38625 -0.57057,-0.54604M318.86967,230.22912v2.31335h3.62588v-2.31335h-3.62588M318.04143,229.60389h5.32839v3.5534h-5.32839v-3.5534M317.72854,228.36385h5.90816v0.7607h-5.90816v-0.7607M317.72854,233.59495h6.0462v0.7607h-6.0462v-0.7607M318.61199,231.61505h4.12283v0.56271h-4.12283v-0.56271M321.47405,232.9593h0.91107v2.07368c0,0.2223 -0.02454,0.38556 -0.07362,0.48977c-0.04908,0.10421 -0.14725,0.18757 -0.29449,0.25009c-0.14111,0.05558 -0.31289,0.08823 -0.51535,0.09796c-0.20246,0.01112 -0.4448,0.01667 -0.72702,0.01667c-0.01841,-0.12505 -0.05215,-0.25565 -0.10123,-0.39181c-0.04908,-0.13477 -0.09816,-0.25773 -0.14724,-0.36888c0.17178,0.00695 0.33621,0.01181 0.49327,0.01459c0.15583,0.00417 0.25829,0.00625 0.30737,0.00625c0.05522,0 0.09386,-0.0125 0.11595,-0.03751c0.02086,-0.02362 0.03129,-0.05974 0.03129,-0.10837v-2.04242M320.90348,228.83278h0.73622v1.60476c0,0.09726 0.01104,0.1577 0.03313,0.18132c0.02086,0.02501 0.07117,0.03751 0.15093,0.03751c0.01841,0 0.04908,0 0.09202,0c0.04295,0 0.09203,0 0.14725,0c0.05522,0 0.10736,0 0.15644,0c0.04908,0 0.08589,0 0.11043,0c0.06135,0 0.10307,-0.00347 0.12516,-0.01042c0.02086,-0.00695 0.03435,-0.02084 0.04049,-0.04168c0.06749,0.04863 0.16135,0.0917 0.2816,0.12921c0.11902,0.03891 0.22761,0.06877 0.32578,0.08962c-0.03681,0.16673 -0.10553,0.28274 -0.20614,0.34805c-0.10184,0.06669 -0.25706,0.10003 -0.46566,0.10003c-0.03067,0 -0.07975,0 -0.14724,0c-0.06749,0 -0.13927,0 -0.21534,0c-0.0773,0 -0.14786,0 -0.21166,0c-0.06503,0 -0.11596,0 -0.15277,0c-0.21473,0 -0.38038,-0.02292 -0.49695,-0.06877c-0.11657,-0.04446 -0.19632,-0.12783 -0.23927,-0.2501c-0.04295,-0.12088 -0.06442,-0.29247 -0.06442,-0.51477v-1.60476M321.72254,227.46768l0.92947,0.18757c-0.1043,0.19452 -0.20553,0.37653 -0.30369,0.54604c-0.09816,0.1709 -0.18712,0.31539 -0.26688,0.43349l-0.81904,-0.17715c0.07362,-0.15283 0.15644,-0.32164 0.24847,-0.50643c0.09203,-0.1834 0.16258,-0.34458 0.21166,-0.48352M319.67031,228.81193h0.72702v1.01079c0,0.20146 -0.02454,0.41126 -0.07362,0.6294c-0.04908,0.21953 -0.14725,0.42654 -0.29449,0.62106c-0.14724,0.19452 -0.36811,0.3543 -0.66259,0.47934c-0.06135,-0.07642 -0.14725,-0.16186 -0.25768,-0.25634c-0.11043,-0.09309 -0.20553,-0.16395 -0.28528,-0.21258c0.25154,-0.10421 0.4356,-0.22925 0.55217,-0.37514c0.11657,-0.14589 0.1951,-0.29872 0.23559,-0.4585c0.03927,-0.15978 0.05889,-0.30915 0.05889,-0.44809v-0.98995M315.42785,228.57226l0.71781,-0.57313c0.15951,0.14589 0.32517,0.31261 0.49695,0.50018c0.17178,0.18757 0.33437,0.37305 0.48775,0.55646c0.15338,0.18479 0.27915,0.35361 0.37731,0.50644l-0.77303,0.64608c-0.08589,-0.14589 -0.20246,-0.3147 -0.3497,-0.50644c-0.14724,-0.19035 -0.30492,-0.38487 -0.47302,-0.58355c-0.16933,-0.1973 -0.33068,-0.37931 -0.48406,-0.54604M317.42485,231.29202v4.27242h-0.94788v-3.23036h-1.11353v-1.04205h2.06141M317.10276,235.13719c0.13497,0 0.26381,0.0521 0.38651,0.15631c0.1227,0.10421 0.29142,0.22578 0.50615,0.36472c0.27608,0.18757 0.61352,0.30567 1.0123,0.3543c0.39879,0.04863 0.84358,0.07294 1.3344,0.07294c0.25768,0 0.5448,-0.00555 0.86138,-0.01667c0.31535,-0.00973 0.63867,-0.02363 0.96997,-0.04169c0.3313,-0.01667 0.65339,-0.04098 0.96629,-0.07294c0.31289,-0.03056 0.59204,-0.06669 0.83745,-0.10837c-0.03067,0.09726 -0.06748,0.21536 -0.11043,0.3543c-0.04295,0.13894 -0.07976,0.2758 -0.11043,0.41057c-0.03067,0.13616 -0.04908,0.25287 -0.05522,0.35013c-0.20246,0.01389 -0.44602,0.0257 -0.73069,0.03543c-0.2859,0.01112 -0.58652,0.02154 -0.90187,0.03126c-0.31657,0.01112 -0.62517,0.02014 -0.9258,0.02709c-0.30062,0.00695 -0.5767,0.01042 -0.82824,0.01042c-0.55217,0 -1.02273,-0.03126 -1.4117,-0.09379c-0.3902,-0.06253 -0.73254,-0.19104 -1.02702,-0.38556c-0.17178,-0.1181 -0.32394,-0.23134 -0.45646,-0.33971c-0.13129,-0.10698 -0.24295,-0.16048 -0.33498,-0.16048c-0.09203,0 -0.20246,0.05349 -0.3313,0.16048c-0.12884,0.10837 -0.26197,0.2494 -0.3994,0.42307c-0.13865,0.17368 -0.27853,0.35777 -0.41964,0.55229l-0.59818,-0.97953c0.30062,-0.31262 0.60922,-0.57522 0.9258,-0.78779c0.31535,-0.21119 0.59573,-0.31678 0.84113,-0.31678zM327.28099,228.33259h0.90187v3.42835c0,0.43071 -0.00614,0.89061 -0.01841,1.37968c-0.01227,0.49046 -0.03988,0.98578 -0.08282,1.48596c-0.04295,0.50019 -0.1043,0.9844 -0.18406,1.45262c-0.07976,0.46962 -0.19019,0.90242 -0.3313,1.2984c-0.05522,-0.05558 -0.12884,-0.12018 -0.22086,-0.19382c-0.09203,-0.07225 -0.18528,-0.14172 -0.27976,-0.20841c-0.09571,-0.0653 -0.18344,-0.11879 -0.2632,-0.16048c0.1043,-0.3543 0.18896,-0.7468 0.25399,-1.17752c0.0638,-0.43071 0.11289,-0.87394 0.14725,-1.32966c0.03313,-0.45433 0.05399,-0.89894 0.06258,-1.33383c0.00982,-0.43349 0.01473,-0.83781 0.01473,-1.21295v-3.42835M326.0202,227.50937l0.89266,0.37514c-0.15951,0.30567 -0.34848,0.61967 -0.56689,0.94202c-0.21718,0.32373 -0.44541,0.63148 -0.68468,0.92326c-0.23927,0.29177 -0.47548,0.54881 -0.70861,0.77112c-0.03681,-0.07642 -0.08589,-0.16881 -0.14724,-0.27719c-0.06135,-0.10698 -0.12393,-0.21258 -0.18773,-0.31678c-0.06503,-0.10421 -0.12515,-0.19104 -0.18037,-0.26051c0.20246,-0.18757 0.40369,-0.40501 0.6037,-0.65233c0.19878,-0.24592 0.38406,-0.50088 0.55585,-0.76486c0.17178,-0.26398 0.31289,-0.51061 0.42333,-0.73986M326.25028,229.78104l0.84666,0.36472c-0.18405,0.40293 -0.39879,0.80724 -0.64419,1.21295c-0.2454,0.4071 -0.50615,0.79265 -0.78223,1.15668c-0.27608,0.36542 -0.54603,0.68706 -0.80984,0.96494c-0.02454,-0.08336 -0.06626,-0.19452 -0.12516,-0.33345c-0.05767,-0.13894 -0.11718,-0.27997 -0.17853,-0.42307c-0.06135,-0.14172 -0.11963,-0.25773 -0.17485,-0.34805c0.34357,-0.31956 0.68591,-0.71207 1.02702,-1.17752c0.33989,-0.46545 0.62027,-0.93785 0.84113,-1.41719M325.52326,231.85473l0.91107,-1.04205v0.02084v6.40862h-0.91107v-5.38741M331.82714,227.60315l0.73622,0.8128c-0.46627,0.13199 -0.98285,0.25009 -1.54974,0.3543c-0.56812,0.10421 -1.15096,0.18896 -1.74852,0.25426c-0.59879,0.06669 -1.17427,0.12088 -1.72644,0.16256c-0.01841,-0.12505 -0.05215,-0.27093 -0.10123,-0.43766c-0.04908,-0.16673 -0.10123,-0.30567 -0.15644,-0.41682c0.40492,-0.03473 0.81781,-0.07641 1.23869,-0.12505c0.41964,-0.04863 0.83193,-0.10629 1.23685,-0.17298c0.40492,-0.0653 0.78407,-0.13478 1.13746,-0.20841c0.35216,-0.07225 0.66321,-0.14658 0.93316,-0.223M327.94359,229.92693h5.06151v0.93785h-5.06151v-0.93785M329.06631,233.25107h2.97249v0.75028h-2.97249v-0.75028M329.06631,235.94999h2.96328v0.83364h-2.96328v-0.83364M329.06631,234.57448h2.96328v0.75028h-2.96328v-0.75028M330.09702,228.60352l1.0031,0.04168c-0.01227,0.38209 -0.03191,0.78849 -0.0589,1.2192c-0.02822,0.43071 -0.05767,0.84545 -0.08834,1.24421c-0.03067,0.40015 -0.06136,0.75306 -0.09203,1.05873l-0.90187,-0.01042c0.02454,-0.30567 0.04785,-0.66344 0.06994,-1.07331c0.02086,-0.40987 0.03743,-0.83017 0.0497,-1.26088c0.01227,-0.43071 0.0184,-0.83712 0.0184,-1.2192M328.61537,231.79221h3.91117v5.42909h-0.92948v-4.53293h-2.08902v4.55377h-0.89267zM336.94386,236.48144c-0.42946,0 -0.82824,-0.08684 -1.19636,-0.26052c-0.36811,-0.17368 -0.69328,-0.43071 -0.97549,-0.77112c-0.28222,-0.3404 -0.50124,-0.75723 -0.65708,-1.25046c-0.15706,-0.49324 -0.23559,-1.05594 -0.23559,-1.68812c0,-0.63218 0.08098,-1.19489 0.24295,-1.68813c0.16319,-0.49324 0.38774,-0.91354 0.67364,-1.26088c0.28467,-0.34735 0.61536,-0.61134 0.99205,-0.79196c0.37793,-0.18062 0.78162,-0.27093 1.21108,-0.27093c0.42946,0 0.80984,0.09865 1.14114,0.29595c0.3313,0.19868 0.60431,0.42654 0.81905,0.68359l-0.64419,0.87532c-0.17792,-0.19452 -0.37118,-0.3543 -0.57977,-0.47934c-0.20859,-0.12505 -0.44787,-0.18757 -0.71782,-0.18757c-0.36197,0 -0.68714,0.11254 -0.97549,0.33763c-0.28835,0.22647 -0.51229,0.54604 -0.6718,0.95869c-0.15951,0.41404 -0.23927,0.90937 -0.23927,1.48597c0,0.58355 0.07669,1.08512 0.23007,1.50472c0.15338,0.42099 0.36995,0.74402 0.64971,0.96911c0.27853,0.22647 0.60493,0.33971 0.97917,0.33971c0.30062,0 0.57057,-0.07294 0.80984,-0.21883c0.23927,-0.14589 0.454,-0.33693 0.64419,-0.57313l0.64419,0.8649c-0.27608,0.36819 -0.59204,0.64746 -0.94788,0.83781c-0.35584,0.19174 -0.75462,0.28761 -1.19636,0.28761zM342.55753,236.48144c-0.42946,0 -0.82825,-0.08684 -1.19636,-0.26052c-0.36811,-0.17368 -0.69327,-0.43071 -0.97549,-0.77112c-0.28222,-0.3404 -0.50186,-0.75723 -0.65892,-1.25046c-0.15583,-0.49324 -0.23375,-1.05594 -0.23375,-1.68812c0,-0.63218 0.08098,-1.19489 0.24295,-1.68813c0.16319,-0.49324 0.38774,-0.91354 0.67364,-1.26088c0.28467,-0.34735 0.61536,-0.61134 0.99206,-0.79196c0.37793,-0.18062 0.78161,-0.27093 1.21108,-0.27093c0.42946,0 0.80984,0.09865 1.14114,0.29595c0.3313,0.19868 0.60431,0.42654 0.81904,0.68359l-0.64419,0.87532c-0.17792,-0.19452 -0.37118,-0.3543 -0.57977,-0.47934c-0.20859,-0.12505 -0.44787,-0.18757 -0.71781,-0.18757c-0.36197,0 -0.68714,0.11254 -0.97549,0.33763c-0.28835,0.22647 -0.51229,0.54604 -0.6718,0.95869c-0.15951,0.41404 -0.23927,0.90937 -0.23927,1.48597c0,0.58355 0.07669,1.08512 0.23007,1.50472c0.15338,0.42099 0.36934,0.74402 0.64788,0.96911c0.27976,0.22647 0.60677,0.33971 0.98101,0.33971c0.30062,0 0.57057,-0.07294 0.80984,-0.21883c0.23927,-0.14589 0.454,-0.33693 0.64419,-0.57313l0.64419,0.8649c-0.27608,0.36819 -0.59204,0.64746 -0.94788,0.83781c-0.35584,0.19174 -0.75462,0.28761 -1.19636,0.28761zM347.92275,236.33555v-7.70076h2.18105c0.46627,0 0.88163,0.06044 1.24605,0.18131c0.36566,0.12227 0.65278,0.32026 0.86138,0.59397c0.20859,0.2751 0.31289,0.64885 0.31289,1.12125c0,0.24315 -0.03681,0.47725 -0.11043,0.70234c-0.07362,0.22647 -0.18099,0.42446 -0.3221,0.59397c-0.14111,0.1709 -0.30982,0.29455 -0.50615,0.37097v0.0521c0.37424,0.09031 0.68407,0.28622 0.92947,0.58772c0.2454,0.30289 0.36811,0.71485 0.36811,1.23587c0,0.51408 -0.1135,0.93785 -0.3405,1.2713c-0.227,0.33345 -0.53682,0.58147 -0.92947,0.74403c-0.39265,0.16395 -0.84052,0.24592 -1.3436,0.24592h-2.3467M349.13749,231.81304h0.85585c0.47241,0 0.81414,-0.09726 1.02519,-0.29177c0.21227,-0.19452 0.31841,-0.45851 0.31841,-0.79196c0,-0.36819 -0.11044,-0.63079 -0.3313,-0.78779c-0.22086,-0.15562 -0.55216,-0.23342 -0.99389,-0.23342h-0.87426v2.10494M349.13749,235.26224h1.0123c0.49695,0 0.87856,-0.10282 1.14482,-0.30845c0.26749,-0.20424 0.40124,-0.52172 0.40124,-0.95244c0,-0.40987 -0.1319,-0.70512 -0.39572,-0.88574c-0.26381,-0.18062 -0.64726,-0.27093 -1.15034,-0.27093h-1.0123zM355.04567,236.33555v-2.86564l-2.04301,-4.83512h1.29759l0.72702,1.96948c0.1043,0.28483 0.20553,0.5641 0.30369,0.83781c0.09816,0.2751 0.20246,0.56201 0.31289,0.86073h0.03681c0.11043,-0.29872 0.21596,-0.58563 0.31657,-0.86073c0.10184,-0.27371 0.20491,-0.55298 0.30921,-0.83781l0.73622,-1.96948h1.26078l-2.04301,4.83512v2.86564zM357.91691,233.86589v-0.98995h2.47554v0.98995zM363.40176,236.48144c-0.46627,0 -0.91107,-0.09935 -1.3344,-0.29803c-0.42333,-0.1973 -0.7945,-0.47309 -1.11353,-0.82739l0.69941,-0.94827c0.2454,0.26398 0.52272,0.47587 0.83193,0.63565c0.31044,0.15978 0.6221,0.23967 0.935,0.23967c0.38651,0 0.67978,-0.09031 0.87978,-0.27093c0.19878,-0.18062 0.29817,-0.41682 0.29817,-0.7086c0,-0.21536 -0.04601,-0.38903 -0.13804,-0.52103c-0.09203,-0.13199 -0.21596,-0.24523 -0.37179,-0.33971c-0.15706,-0.09309 -0.33682,-0.18826 -0.53928,-0.28552l-0.92948,-0.44808c-0.22086,-0.10421 -0.43682,-0.24315 -0.64787,-0.41682c-0.21227,-0.17368 -0.38713,-0.39459 -0.52456,-0.66275c-0.13865,-0.26677 -0.20798,-0.58424 -0.20798,-0.95244c0,-0.41682 0.09816,-0.78849 0.29449,-1.115c0.19632,-0.32651 0.4675,-0.58563 0.81353,-0.77737c0.34725,-0.19035 0.74174,-0.28553 1.18347,-0.28553c0.39879,0 0.78223,0.08684 1.15034,0.26052c0.36811,0.17368 0.68407,0.41335 0.94788,0.71902l-0.62578,0.87532c-0.21473,-0.20841 -0.44051,-0.37166 -0.67732,-0.48976c-0.23559,-0.1181 -0.50063,-0.17715 -0.79512,-0.17715c-0.31903,0 -0.57363,0.07989 -0.76382,0.23967c-0.19019,0.15978 -0.28529,0.37862 -0.28529,0.6565c0,0.20146 0.05093,0.36819 0.15277,0.50019c0.10061,0.13199 0.23252,0.24106 0.39572,0.3272c0.16197,0.08753 0.33805,0.17645 0.52824,0.26677l0.91107,0.42724c0.26995,0.12505 0.50799,0.27927 0.71414,0.46267c0.20491,0.18479 0.36565,0.4071 0.48222,0.66691c0.11657,0.26121 0.17485,0.57938 0.17485,0.95452c0,0.41682 -0.09632,0.79891 -0.28896,1.14626c-0.19387,0.34735 -0.47302,0.62523 -0.83745,0.83364c-0.36566,0.20841 -0.80309,0.31262 -1.31231,0.31262zM366.19937,236.33555l2.21786,-7.70076h1.41722l2.20866,7.70076h-1.27918l-1.0307,-4.09526c-0.11043,-0.40987 -0.21473,-0.83017 -0.31289,-1.26088c-0.09816,-0.43071 -0.19939,-0.85448 -0.30369,-1.2713h-0.03681c-0.09203,0.42377 -0.19019,0.84893 -0.29449,1.27547c-0.1043,0.42794 -0.20859,0.84684 -0.31289,1.25672l-1.03991,4.09526h-1.23317M367.50618,234.25145v-1.07331h3.21176v1.07331zM374.50947,236.33555v-0.79196c0.64419,-0.65302 1.18899,-1.25254 1.63441,-1.79858c0.44419,-0.54465 0.78162,-1.05178 1.0123,-1.5214c0.22945,-0.46823 0.34418,-0.90728 0.34418,-1.31715c0,-0.26398 -0.04111,-0.49532 -0.12332,-0.694c-0.08344,-0.1973 -0.20491,-0.35152 -0.36443,-0.46267c-0.15951,-0.11115 -0.35891,-0.16673 -0.59818,-0.16673c-0.25768,0 -0.49204,0.07989 -0.70309,0.23967c-0.21227,0.15978 -0.40737,0.3543 -0.5853,0.58355l-0.6718,-0.75028c0.30062,-0.36819 0.61536,-0.65302 0.9442,-0.85449c0.32762,-0.20146 0.71842,-0.3022 1.17243,-0.3022c0.42333,0 0.79144,0.09726 1.10433,0.29178c0.31289,0.19452 0.55707,0.46545 0.73254,0.8128c0.17424,0.34735 0.26136,0.75722 0.26136,1.22962c0,0.47934 -0.10552,0.96564 -0.31657,1.45887c-0.21227,0.49324 -0.49756,0.98787 -0.85585,1.48389c-0.35952,0.49741 -0.76322,0.99273 -1.21108,1.48596c0.17792,-0.02084 0.36811,-0.04029 0.57057,-0.05835c0.20246,-0.01667 0.38345,-0.02501 0.54296,-0.02501h1.58287v1.15668zM380.88695,236.48144c-0.22086,0 -0.40492,-0.08892 -0.55217,-0.26677c-0.14724,-0.17645 -0.22086,-0.39667 -0.22086,-0.66066c0,-0.27093 0.07362,-0.49185 0.22086,-0.66275c0.14724,-0.16951 0.3313,-0.25426 0.55217,-0.25426c0.22086,0 0.40492,0.08475 0.55217,0.25426c0.14724,0.1709 0.22086,0.39181 0.22086,0.66275c0,0.26398 -0.07362,0.4842 -0.22086,0.66066c-0.14724,0.17784 -0.3313,0.26677 -0.55217,0.26677zM384.98218,236.48144c-0.44787,0 -0.84052,-0.14936 -1.17795,-0.44808c-0.33743,-0.29872 -0.5994,-0.7468 -0.78591,-1.34425c-0.18773,-0.59744 -0.2816,-1.34078 -0.2816,-2.23c0,-0.88922 0.09387,-1.6256 0.2816,-2.20915c0.18651,-0.58355 0.44848,-1.02122 0.78591,-1.31299c0.33743,-0.29177 0.73009,-0.43766 1.17795,-0.43766c0.46014,0 0.85769,0.14589 1.19267,0.43766c0.33375,0.29177 0.59266,0.72944 0.77671,1.31299c0.18405,0.58355 0.27608,1.31993 0.27608,2.20915c0,0.88922 -0.09203,1.63255 -0.27608,2.23c-0.18405,0.59744 -0.44296,1.04553 -0.77671,1.34425c-0.33498,0.29872 -0.73254,0.44808 -1.19267,0.44808M384.98218,235.39771c0.21473,0 0.40492,-0.09379 0.57057,-0.28136c0.16565,-0.18757 0.29633,-0.49532 0.39204,-0.92326c0.09448,-0.42654 0.14172,-1.00454 0.14172,-1.73398c0,-0.72943 -0.04724,-1.30604 -0.14172,-1.7298c-0.09571,-0.42377 -0.22639,-0.72457 -0.39204,-0.90242c-0.16565,-0.17645 -0.35584,-0.26468 -0.57057,-0.26468c-0.20859,0 -0.39572,0.08823 -0.56137,0.26468c-0.16565,0.17784 -0.29756,0.47865 -0.39572,0.90242c-0.09816,0.42377 -0.14724,1.00037 -0.14724,1.7298c0,0.72943 0.04908,1.30743 0.14724,1.73398c0.09816,0.42794 0.23007,0.73569 0.39572,0.92326c0.16565,0.18757 0.35277,0.28136 0.56137,0.28136zM388.02829,229.96861h2.79763v1.03164h-2.79763v-1.03164M388.96696,227.50937h0.94788v9.72235h-0.94788v-9.72235M391.0744,229.45801h3.77312v1.08373h-3.77312v-1.08373M394.45179,229.45801h0.93868c0,0 0,0.03265 0,0.09795c0,0.06669 0,0.13964 0,0.21883c0,0.08059 0,0.14519 0,0.19382c-0.02454,1.13931 -0.04724,2.10286 -0.0681,2.89065c-0.02209,0.78918 -0.0497,1.43525 -0.08283,1.93822c-0.03436,0.50435 -0.07731,0.89686 -0.12884,1.17752c-0.05276,0.28205 -0.11902,0.48212 -0.19878,0.60022c-0.1043,0.17368 -0.21289,0.29525 -0.32578,0.36472c-0.11411,0.06947 -0.25093,0.1181 -0.41044,0.14588c-0.14724,0.02779 -0.33437,0.04168 -0.56137,0.04168c-0.227,0 -0.46014,-0.00347 -0.69941,-0.01042c-0.00614,-0.15978 -0.03497,-0.34249 -0.08651,-0.54812c-0.05276,-0.20424 -0.12209,-0.3793 -0.20798,-0.52519c0.23927,0.02084 0.45891,0.03265 0.65892,0.03543c0.19878,0.00417 0.34725,0.00625 0.44541,0.00625c0.07976,0 0.14602,-0.0125 0.19878,-0.03751c0.05153,-0.02362 0.09877,-0.06669 0.14172,-0.12921c0.06135,-0.08336 0.11227,-0.25357 0.15276,-0.51061c0.03927,-0.25704 0.07424,-0.6287 0.10491,-1.115c0.03067,-0.48629 0.05521,-1.10458 0.07362,-1.85485c0.01841,-0.75028 0.03681,-1.66381 0.05522,-2.7406v-0.23967M391.03757,231.37538l0.87426,0.19799c-0.09816,0.54187 -0.23007,1.06776 -0.39572,1.57767c-0.16565,0.5113 -0.35584,0.9441 -0.57057,1.2984c-0.04908,-0.05558 -0.11963,-0.1181 -0.21166,-0.18757c-0.09203,-0.06947 -0.18528,-0.13894 -0.27976,-0.20841c-0.09571,-0.06947 -0.1773,-0.12505 -0.24479,-0.16673c0.19632,-0.31262 0.36504,-0.69122 0.50615,-1.13583c0.14111,-0.44461 0.24847,-0.90311 0.32209,-1.37551M395.23403,231.58379l0.80064,-0.19799c0.09203,0.32651 0.18099,0.67525 0.26688,1.04622c0.08589,0.37236 0.16442,0.73013 0.23559,1.07331c0.06994,0.34457 0.12332,0.64538 0.16013,0.90242l-0.87426,0.25009c-0.02454,-0.26398 -0.06749,-0.57174 -0.12884,-0.92326c-0.06135,-0.35013 -0.1319,-0.71485 -0.21166,-1.09416c-0.07976,-0.37792 -0.16258,-0.73013 -0.24847,-1.05664M392.53762,227.58231h0.93868v2.12579c0,0.5766 -0.02454,1.18933 -0.07362,1.83818c-0.04908,0.65024 -0.1546,1.30882 -0.31657,1.97573c-0.16319,0.66691 -0.41351,1.31785 -0.75095,1.95281c-0.33743,0.63634 -0.7945,1.22892 -1.37121,1.77774c-0.04908,-0.08336 -0.11963,-0.17367 -0.21166,-0.27093c-0.09203,-0.09726 -0.18528,-0.19313 -0.27976,-0.28761c-0.09571,-0.09309 -0.18037,-0.16395 -0.25399,-0.21258c0.5399,-0.49324 0.96506,-1.02677 1.2755,-1.60059c0.30921,-0.57243 0.53928,-1.15946 0.69021,-1.76107c0.1497,-0.60022 0.24602,-1.19211 0.28896,-1.77566c0.04295,-0.58355 0.06442,-1.13236 0.06442,-1.64644zM401.09617,228.30133c0.19019,1.29215 0.47425,2.46967 0.85217,3.53256c0.3767,1.06289 0.88592,1.97295 1.52766,2.73018c0.64051,0.75723 1.44851,1.33729 2.424,1.74022c-0.07362,0.07642 -0.1546,0.17368 -0.24295,0.29178c-0.08957,0.1181 -0.17424,0.23759 -0.25399,0.35847c-0.07976,0.12227 -0.14418,0.23203 -0.19326,0.32929c-0.77303,-0.34735 -1.43992,-0.7989 -2.00067,-1.35467c-0.56198,-0.55576 -1.03623,-1.20739 -1.42275,-1.95489c-0.38651,-0.74611 -0.70861,-1.57767 -0.96628,-2.49467c-0.25768,-0.91701 -0.47241,-1.92085 -0.64419,-3.01153l0.92028,-0.16673M401.74038,227.99913l0.83745,-0.38556c0.1227,0.24315 0.24111,0.50018 0.35523,0.77112c0.11289,0.27093 0.21412,0.53492 0.30369,0.79196c0.08835,0.25704 0.15399,0.48977 0.19694,0.69818l-0.90187,0.43766c-0.03681,-0.20841 -0.09632,-0.44461 -0.17853,-0.7086c-0.08344,-0.26398 -0.1773,-0.537 -0.2816,-0.81905c-0.1043,-0.28066 -0.21473,-0.54256 -0.3313,-0.78571M404.31712,228.20754l1.0123,0.17715c-0.14724,0.97258 -0.33559,1.90487 -0.56505,2.79687c-0.23068,0.89339 -0.53438,1.72564 -0.91108,2.49676c-0.37793,0.77112 -0.85524,1.46721 -1.43194,2.08827c-0.57671,0.62245 -1.28225,1.14904 -2.11663,1.57975c-0.04295,-0.09031 -0.09939,-0.19313 -0.16933,-0.30845c-0.07117,-0.11393 -0.14172,-0.22648 -0.21166,-0.33763c-0.07117,-0.11115 -0.13743,-0.20493 -0.19878,-0.28135c0.77917,-0.37514 1.43747,-0.84614 1.97491,-1.41302c0.53621,-0.56549 0.97611,-1.20462 1.31967,-1.91738c0.34357,-0.71137 0.61658,-1.47902 0.81904,-2.30293c0.20246,-0.82252 0.36197,-1.68187 0.47854,-2.57804M397.73718,228.30133l0.71781,-0.58355c0.13497,0.17368 0.27485,0.35916 0.41964,0.55646c0.14356,0.19868 0.27976,0.3932 0.4086,0.58355c0.12884,0.19174 0.23007,0.36402 0.30369,0.51686l-0.76382,0.66691c-0.06749,-0.15978 -0.16074,-0.3404 -0.27976,-0.54186c-0.12025,-0.20146 -0.25093,-0.4064 -0.39204,-0.61481c-0.14111,-0.20841 -0.27915,-0.40293 -0.41412,-0.58355M398.4734,237.03373l-0.20246,-1.02121l0.23007,-0.38556l1.84055,-1.45887c0.03681,0.14589 0.08589,0.314 0.14724,0.50435c0.06135,0.19174 0.1135,0.34319 0.15645,0.45434c-0.42946,0.3543 -0.77733,0.6426 -1.04359,0.8649c-0.26749,0.2223 -0.47486,0.39737 -0.62211,0.52519c-0.14724,0.12921 -0.25768,0.23203 -0.3313,0.30845c-0.07362,0.07642 -0.1319,0.14588 -0.17485,0.20841M397.23101,230.72931h1.97859v1.07331h-1.97859v-1.07331M398.4734,237.03373c-0.03067,-0.08336 -0.07976,-0.17368 -0.14725,-0.27093c-0.06749,-0.09726 -0.1362,-0.19312 -0.20614,-0.28761c-0.07117,-0.09309 -0.13436,-0.16395 -0.18958,-0.21258c0.09816,-0.09726 0.19817,-0.24662 0.30001,-0.44808c0.10061,-0.20146 0.15092,-0.44809 0.15092,-0.73986v-4.34535h0.95708v4.97059c0,0 -0.0276,0.03265 -0.08282,0.09796c-0.05522,0.06669 -0.127,0.15005 -0.21534,0.25009c-0.08957,0.10143 -0.17731,0.21258 -0.2632,0.33345c-0.08589,0.12227 -0.15767,0.23898 -0.21534,0.35013c-0.0589,0.11115 -0.08834,0.21188 -0.08834,0.3022z" fill="#ffffff" stroke="none" stroke-width="1" stroke-linecap="butt" stroke-linejoin="miter"/><path d="M115.8882,271.8761c0.27801,0 0.52986,0.06705 0.75554,0.20115c0.22405,0.13573 0.40395,0.31563 0.53968,0.53968c0.13411,0.22568 0.20115,0.47753 0.20115,0.75554c0,0.26984 -0.06705,0.51924 -0.20115,0.74818c-0.13573,0.22895 -0.31563,0.41049 -0.53968,0.54458c-0.22568,0.13573 -0.47753,0.20361 -0.75554,0.20361c-0.26984,0 -0.51924,-0.06787 -0.74818,-0.20361c-0.22895,-0.13411 -0.41129,-0.31563 -0.54703,-0.54458c-0.13411,-0.22895 -0.20115,-0.47835 -0.20115,-0.74818c0,-0.27801 0.06705,-0.52986 0.20115,-0.75554c0.13573,-0.22405 0.31807,-0.40395 0.54703,-0.53968c0.22895,-0.13411 0.47835,-0.20115 0.74818,-0.20115zM129.23291,268.46633h5.93643v1.25107h-5.93643v-1.25107M130.83967,269.57022c0.28619,1.29194 0.68276,2.4915 1.18974,3.59866c0.50697,1.10879 1.14885,2.07204 1.92566,2.88971c0.77681,0.81769 1.70898,1.45549 2.79649,1.9134c-0.08994,0.07358 -0.19216,0.1758 -0.30664,0.30664c-0.11447,0.13083 -0.22077,0.2633 -0.3189,0.39739c-0.09812,0.13573 -0.1799,0.25675 -0.24532,0.36306c-1.15294,-0.5315 -2.13417,-1.23881 -2.94368,-2.12191c-0.80951,-0.8831 -1.48002,-1.92402 -2.01151,-3.12276c-0.5315,-1.1971 -0.96488,-2.52339 -1.30014,-3.97888l1.21427,-0.24532M134.87497,268.46633h0.22077l0.20851,-0.04906l0.83406,0.26984c-0.19624,1.46366 -0.49469,2.75971 -0.89536,3.88811c-0.40067,1.12841 -0.90109,2.10965 -1.50128,2.94368c-0.60181,0.83406 -1.29114,1.54134 -2.06794,2.12191c-0.77681,0.58056 -1.63129,1.05891 -2.56346,1.43505c-0.08177,-0.17172 -0.19379,-0.36633 -0.33607,-0.58383c-0.14391,-0.21588 -0.28129,-0.38922 -0.41212,-0.52005c0.85858,-0.29436 1.64765,-0.70322 2.36722,-1.22653c0.71957,-0.52333 1.36144,-1.16766 1.92566,-1.93302c0.5642,-0.76373 1.03438,-1.64847 1.41052,-2.65422c0.37614,-1.00576 0.64598,-2.14235 0.80951,-3.40977v-0.2821M125.85993,268.80977l0.67459,-0.94443c0.26166,0.1063 0.53968,0.23305 0.83406,0.38023c0.29436,0.14718 0.57239,0.30008 0.83406,0.45872c0.26166,0.16027 0.47835,0.31399 0.65007,0.46118l-0.7114,1.05482c-0.15535,-0.14718 -0.36386,-0.30664 -0.62553,-0.47835c-0.26166,-0.17172 -0.53558,-0.33934 -0.82178,-0.50289c-0.28619,-0.16354 -0.5642,-0.30664 -0.83406,-0.42928M125.24667,272.14594l0.6378,-0.98123c0.26166,0.09812 0.54131,0.21833 0.83895,0.36061c0.29928,0.14391 0.58546,0.29355 0.85858,0.44891c0.27475,0.15535 0.49797,0.30255 0.66969,0.44156l-0.67459,1.09162c-0.16354,-0.14718 -0.37777,-0.30255 -0.6427,-0.46608c-0.26656,-0.16354 -0.54948,-0.32544 -0.84876,-0.4857c-0.29764,-0.15863 -0.57729,-0.29519 -0.83895,-0.40967M125.57784,278.05785c0.2126,-0.30255 0.45138,-0.66886 0.7163,-1.09897c0.26656,-0.42847 0.53723,-0.88393 0.81196,-1.36636c0.27311,-0.48244 0.52823,-0.95669 0.76536,-1.42277l0.90764,0.87084c-0.2126,0.42519 -0.43909,0.8643 -0.67951,1.3173c-0.24204,0.45463 -0.48735,0.90027 -0.73592,1.33692c-0.25021,0.43828 -0.49797,0.85367 -0.74329,1.24615zM143.25222,267.8408h1.42277v8.90465c0,0.35161 0.0368,0.57647 0.11039,0.67459c0.07358,0.09812 0.24122,0.14718 0.50289,0.14718c0.05724,0 0.15945,0 0.30664,0c0.14718,0 0.30908,0 0.4857,0c0.17499,0 0.33607,0 0.48325,0c0.14718,0 0.25349,0 0.3189,0c0.19624,0 0.34179,-0.07195 0.43664,-0.21588c0.09322,-0.14228 0.16272,-0.39739 0.20851,-0.76536c0.04415,-0.36796 0.0785,-0.89127 0.10302,-1.56997c0.12266,0.08177 0.26002,0.16517 0.41212,0.25021c0.15046,0.08668 0.30582,0.16272 0.46608,0.22813c0.15863,0.06541 0.30336,0.11447 0.43419,0.14718c-0.04906,0.79317 -0.13491,1.42442 -0.25757,1.89377c-0.12266,0.47098 -0.31235,0.81279 -0.56912,1.02538c-0.25839,0.2126 -0.6288,0.3189 -1.11124,0.3189c-0.05724,0 -0.14882,0 -0.27475,0c-0.12756,0 -0.27311,0 -0.43664,0c-0.16354,0 -0.32463,0 -0.48325,0c-0.16027,0 -0.30336,0 -0.42928,0c-0.12756,0 -0.22405,0 -0.28946,0c-0.47427,0 -0.84385,-0.06378 -1.10879,-0.19133c-0.26656,-0.12593 -0.45463,-0.34834 -0.5642,-0.66723c-0.11121,-0.3189 -0.1668,-0.75228 -0.1668,-1.30014v-8.88013M147.49603,269.28812l1.26333,0.85858c-0.62144,0.86675 -1.32221,1.67382 -2.10228,2.42118c-0.78171,0.74901 -1.59122,1.41788 -2.42855,2.00661c-0.83895,0.58874 -1.6591,1.07935 -2.46044,1.47184c-0.06541,-0.09812 -0.1529,-0.20851 -0.26247,-0.33117c-0.11121,-0.12266 -0.22813,-0.24367 -0.35079,-0.36306c-0.12266,-0.11774 -0.24532,-0.2216 -0.36796,-0.31153c0.79317,-0.36796 1.59859,-0.83814 2.41627,-1.41052c0.81769,-0.57239 1.60104,-1.22653 2.35005,-1.96246c0.74737,-0.73592 1.39498,-1.52908 1.94284,-2.37949M140.63968,267.60775l1.32466,0.42928c-0.28619,0.69503 -0.62553,1.38599 -1.01802,2.07284c-0.3925,0.68686 -0.8136,1.33038 -1.26333,1.93056c-0.44973,0.60181 -0.90764,1.1276 -1.37372,1.57732c-0.04906,-0.1063 -0.12429,-0.24367 -0.22568,-0.41212c-0.10302,-0.1668 -0.21178,-0.33607 -0.32627,-0.50779c-0.11447,-0.17172 -0.2126,-0.30664 -0.29436,-0.40475c0.41702,-0.37614 0.82424,-0.8136 1.22163,-1.31239c0.39577,-0.49879 0.76128,-1.03684 1.09653,-1.61412c0.33525,-0.57566 0.62144,-1.16194 0.85858,-1.75886M139.36409,270.93166l1.38599,-1.37372l0.01227,0.01227v9.51792h-1.39825zM153.64097,268.06158h7.12618v1.15294h-7.12618v-1.15294M153.21168,272.66108h7.96022v1.17748h-7.96022v-1.17748M154.14384,274.64808h6.2308v4.40327h-1.31239v-3.26259h-3.66734v3.29938h-1.25107v-4.44006M154.78164,277.53044h4.84482v1.12841h-4.84482v-1.12841M156.08178,268.50313l1.32466,0.12266c-0.09812,0.52333 -0.20851,1.0769 -0.33117,1.66072c-0.12266,0.58546 -0.24532,1.14804 -0.36796,1.68771c-0.12266,0.53968 -0.23305,1.00576 -0.33117,1.39825h-1.36144c0.08994,-0.31073 0.18399,-0.66642 0.2821,-1.06709c0.09812,-0.40067 0.19624,-0.82015 0.29436,-1.25843c0.09812,-0.43664 0.19052,-0.87412 0.27721,-1.31239c0.08504,-0.43664 0.15618,-0.84713 0.21343,-1.23144M154.05799,270.26933h5.01653v1.11615h-5.01653v-1.11615M158.75562,270.26933h0.12266l0.20851,-0.06133l0.91991,0.07358c-0.02452,0.49879 -0.06133,1.01557 -0.11039,1.55034c-0.04906,0.5364 -0.09812,1.02538 -0.14718,1.46694l-1.23881,-0.08585c0.03271,-0.31073 0.06541,-0.64025 0.09812,-0.98858c0.03271,-0.34671 0.06133,-0.68196 0.08585,-1.00576c0.02452,-0.32217 0.04498,-0.59364 0.06133,-0.81442v-0.13491M150.34159,268.67484l0.84631,-0.80951c0.22077,0.1799 0.45627,0.38186 0.70648,0.60591c0.24857,0.22568 0.4857,0.44646 0.7114,0.66233c0.22405,0.21751 0.40149,0.4162 0.53231,0.59611l-0.8831,0.91991c-0.13083,-0.18807 -0.30255,-0.39658 -0.51514,-0.62553c-0.2126,-0.22895 -0.44156,-0.46445 -0.68686,-0.70648c-0.24532,-0.2404 -0.48244,-0.45463 -0.7114,-0.6427M149.78965,271.43455h2.22002v1.26333h-2.22002v-1.26333M151.44547,278.87962l-0.23305,-1.18974l0.3189,-0.44156l2.29362,-1.52091c0.03271,0.17172 0.08177,0.36796 0.14718,0.58874c0.06541,0.22077 0.12674,0.40067 0.18399,0.53968c-0.5315,0.36796 -0.96242,0.66806 -1.29277,0.90027c-0.33197,0.23386 -0.59201,0.42194 -0.78007,0.5642c-0.18807,0.14391 -0.32708,0.25675 -0.41702,0.33852c-0.08994,0.08177 -0.16354,0.15535 -0.22077,0.22077M151.44547,278.87962c-0.03271,-0.1063 -0.08749,-0.23305 -0.16435,-0.38023c-0.0785,-0.14718 -0.16272,-0.29028 -0.25266,-0.42928c-0.08994,-0.13901 -0.17172,-0.2494 -0.24532,-0.33117c0.11447,-0.08994 0.23305,-0.22486 0.35569,-0.40475c0.12266,-0.1799 0.18399,-0.40475 0.18399,-0.67459v-5.22505h1.22653v6.21855c0,0 -0.05479,0.04089 -0.16435,0.12266c-0.11121,0.08177 -0.2404,0.18562 -0.38758,0.31153c-0.14718,0.12756 -0.27638,0.26085 -0.38758,0.39985c-0.10957,0.13901 -0.16435,0.26984 -0.16435,0.3925zM162.91357,268.67484h9.73868v1.16521h-9.73868v-1.16521M162.22672,271.49588h11.00202v1.17748h-11.00202v-1.17748M164.63073,275.56797h6.2308v1.00576h-6.2308v-1.00576M164.64299,277.57948h6.2308v1.10388h-6.2308v-1.10388M163.79669,273.53194h7.99701v5.56848h-1.38599v-4.47685h-5.29864v4.48913h-1.31239v-5.58073M169.72086,269.77873l1.45958,0.30664c-0.1063,0.22895 -0.2126,0.45546 -0.3189,0.67951c-0.1063,0.22568 -0.2126,0.43828 -0.3189,0.6378c-0.1063,0.20115 -0.20443,0.3794 -0.29436,0.53478l-1.25107,-0.30664c0.08177,-0.17172 0.17008,-0.36633 0.26494,-0.58383c0.09322,-0.21588 0.18071,-0.43664 0.26247,-0.66233c0.08177,-0.22405 0.14718,-0.42602 0.19624,-0.60591M164.47128,270.08536l1.28786,-0.25757c0.17172,0.25349 0.32053,0.53723 0.44646,0.85121c0.12756,0.31563 0.21178,0.59201 0.25266,0.82914l-1.37372,0.3189c-0.03271,-0.24532 -0.10876,-0.5315 -0.22813,-0.85858c-0.11774,-0.32708 -0.24612,-0.62144 -0.38513,-0.8831M166.72811,267.74267l1.36144,-0.22077c0.14718,0.22077 0.27801,0.46772 0.3925,0.74084c0.11447,0.27475 0.19216,0.51433 0.23305,0.71874l-1.42277,0.2821c-0.03271,-0.2126 -0.10222,-0.462 -0.20851,-0.74818c-0.1063,-0.28619 -0.22486,-0.54376 -0.35569,-0.77273zM181.31162,271.04206h3.23805v1.17748h-3.23805v-1.17748M181.31162,268.20876h3.23805v1.18974h-3.23805v-1.18974M181.28709,273.98574h3.23805v1.18974h-3.23805v-1.18974M183.92414,268.20876h1.28786v9.26035c0,0.34342 -0.03843,0.6149 -0.11529,0.81442c-0.0785,0.20115 -0.21996,0.35488 -0.42439,0.46118c-0.2126,0.11447 -0.47262,0.18399 -0.78007,0.20851c-0.30582,0.02452 -0.69176,0.0368 -1.15785,0.0368c-0.00817,-0.11447 -0.03516,-0.25185 -0.08095,-0.41212c-0.04415,-0.15863 -0.0924,-0.31972 -0.14473,-0.48325c-0.05396,-0.16354 -0.11366,-0.29845 -0.17907,-0.40475c0.28619,0.00817 0.56012,0.01227 0.82178,0.01227c0.26166,0 0.43747,0 0.52741,0c0.16354,0 0.24532,-0.08177 0.24532,-0.24532v-9.24808M180.67383,268.20876h1.26333v4.32967c0,0.49061 -0.01799,1.02375 -0.05396,1.59939c-0.03761,0.57729 -0.10547,1.1603 -0.20361,1.74904c-0.09812,0.58874 -0.24122,1.15866 -0.42928,1.70979c-0.18807,0.55276 -0.44156,1.04991 -0.76045,1.49147c-0.08177,-0.07358 -0.18807,-0.15535 -0.3189,-0.24532c-0.13083,-0.08994 -0.26575,-0.1758 -0.40475,-0.25757c-0.13901,-0.08177 -0.26166,-0.1431 -0.36796,-0.18399c0.29436,-0.41702 0.52741,-0.87084 0.69913,-1.36144c0.17172,-0.49061 0.29845,-0.99758 0.38023,-1.52091c0.08177,-0.52333 0.13491,-1.03847 0.15945,-1.54543c0.02452,-0.50697 0.0368,-0.98532 0.0368,-1.43505v-4.32967M177.23952,274.96698l1.11615,-0.47835c0.19624,0.3189 0.39658,0.66642 0.601,1.04255c0.20443,0.37614 0.3925,0.74409 0.5642,1.10388c0.17172,0.35978 0.30664,0.67868 0.40475,0.95669l-1.21427,0.5642c-0.08177,-0.28619 -0.20197,-0.61163 -0.36061,-0.97632c-0.16027,-0.36306 -0.33689,-0.73919 -0.52986,-1.12841c-0.19133,-0.38758 -0.38513,-0.74901 -0.58137,-1.08426M174.95817,279.00228l-0.19624,-1.27559l0.47835,-0.45381l3.27485,-1.32466c0.04906,0.18807 0.11693,0.39413 0.20361,0.61818c0.08504,0.22568 0.16027,0.40803 0.22568,0.54703c-0.79317,0.33525 -1.43259,0.61081 -1.91829,0.82669c-0.48735,0.21751 -0.86593,0.39167 -1.13577,0.5225c-0.26984,0.13083 -0.47262,0.23713 -0.60836,0.3189c-0.13411,0.08177 -0.24204,0.15535 -0.3238,0.22077M176.40548,267.95119l1.27559,-0.25757c0.13901,0.22077 0.26984,0.46363 0.3925,0.72856c0.12266,0.26656 0.2126,0.49797 0.26984,0.69422l-1.37372,0.30664c-0.04906,-0.19624 -0.12429,-0.43338 -0.22568,-0.7114c-0.10302,-0.27801 -0.21588,-0.5315 -0.33852,-0.76045M174.95817,279.00228c-0.03271,-0.09812 -0.08994,-0.21096 -0.17172,-0.33852c-0.08177,-0.12593 -0.16925,-0.24857 -0.26247,-0.36796c-0.09485,-0.11774 -0.17907,-0.20523 -0.25266,-0.26247c0.13083,-0.1063 0.25757,-0.26002 0.38023,-0.46118c0.12266,-0.19952 0.18399,-0.45463 0.18399,-0.76536v-7.82531h1.31239v8.58575c0,0 -0.04089,0.03271 -0.12266,0.09812c-0.08177,0.06541 -0.18154,0.1529 -0.29928,0.26247c-0.11938,0.11121 -0.23632,0.22977 -0.35079,0.35569c-0.11447,0.12756 -0.2126,0.2543 -0.29436,0.38023c-0.08177,0.12756 -0.12266,0.2404 -0.12266,0.33852M175.55916,271.05432h3.58149v1.11615h-3.58149v-1.11615M175.44877,268.98148h4.44006v5.32316h-4.44006v-1.17748h3.15219v-2.96823h-3.15219zM190.97673,268.65031h6.194v1.10388h-6.194v-1.10388M193.42978,267.64456h1.28786v3.45883h-1.28786v-3.45883M191.41827,272.59977l0.55194,-0.62553c0.20443,0.09812 0.42111,0.2126 0.65007,0.34342c0.22895,0.13083 0.44564,0.2633 0.65007,0.39739c0.20443,0.13573 0.37206,0.26494 0.50289,0.38758l-0.5642,0.69913c-0.18807,-0.1799 -0.45381,-0.38431 -0.79725,-0.61326c-0.34342,-0.22895 -0.67459,-0.42519 -0.99349,-0.58874M190.51064,273.67912l0.58874,-0.6378c0.2126,0.1063 0.43501,0.22895 0.66723,0.36796c0.23386,0.13901 0.45708,0.2821 0.66969,0.42928c0.2126,0.14718 0.38023,0.29028 0.50289,0.42928l-0.601,0.7114c-0.12266,-0.13083 -0.28619,-0.27393 -0.49061,-0.42928c-0.20443,-0.15535 -0.42357,-0.31073 -0.65742,-0.46608c-0.23222,-0.15535 -0.45872,-0.29028 -0.67951,-0.40475M190.54744,270.61277h6.43931v1.11615h-6.43931v-1.11615M196.54519,270.61277h0.18399l0.19624,-0.0368l0.83406,0.17172c-0.12266,0.44973 -0.25349,0.90518 -0.3925,1.36636c-0.13901,0.4628 -0.27801,0.85776 -0.41702,1.18483l-1.03029,-0.24532c0.1063,-0.28619 0.21833,-0.64189 0.33607,-1.06709c0.11938,-0.42519 0.21588,-0.82586 0.28946,-1.202v-0.17172M190.28985,274.77072h7.4696v1.14068h-7.4696v-1.14068M193.73643,272.09688h1.26333v1.36144c0,0.36796 -0.02699,0.75228 -0.08095,1.15294c-0.05233,0.40067 -0.15863,0.80706 -0.3189,1.21918c-0.15863,0.41375 -0.38922,0.82096 -0.69176,1.22163c-0.30255,0.40067 -0.70322,0.7809 -1.202,1.14068c-0.49879,0.35978 -1.11615,0.68686 -1.85207,0.98123c-0.04906,-0.1063 -0.11857,-0.22323 -0.20851,-0.35079c-0.08994,-0.12593 -0.18644,-0.24857 -0.28946,-0.36796c-0.10139,-0.11774 -0.20115,-0.21751 -0.29928,-0.29928c0.83406,-0.31073 1.49638,-0.66233 1.98699,-1.05482c0.49061,-0.3925 0.85858,-0.80134 1.10388,-1.22653c0.24532,-0.42519 0.40475,-0.84876 0.47835,-1.2707c0.07358,-0.42029 0.11039,-0.81034 0.11039,-1.17011v-1.33692M194.44782,276.86811l0.78498,-0.73592c0.3189,0.20443 0.65579,0.43338 1.01066,0.68686c0.35652,0.25349 0.69422,0.51106 1.01312,0.77273c0.3189,0.26166 0.57647,0.49879 0.77273,0.7114l-0.83406,0.83406c-0.18807,-0.2126 -0.43338,-0.45381 -0.73592,-0.72365c-0.30255,-0.26984 -0.63208,-0.54212 -0.98858,-0.81687c-0.35488,-0.27311 -0.69586,-0.51596 -1.02293,-0.72856M187.17446,268.68711l0.84631,-0.85858c0.22077,0.1799 0.462,0.37614 0.72365,0.58874c0.26166,0.2126 0.50697,0.42519 0.73592,0.6378c0.22895,0.2126 0.41294,0.40475 0.55194,0.57647l-0.8831,0.95669c-0.13083,-0.17172 -0.30908,-0.37041 -0.53478,-0.59611c-0.22405,-0.22405 -0.4628,-0.45055 -0.7163,-0.67951c-0.25349,-0.22895 -0.49469,-0.43747 -0.72365,-0.62553M188.19249,278.96548l-0.30664,-1.22653l0.24532,-0.46608l2.06058,-1.71715c0.05724,0.1799 0.13491,0.38023 0.23305,0.601c0.09812,0.22077 0.18399,0.3925 0.25757,0.51514c-0.49061,0.41702 -0.88719,0.76045 -1.18974,1.03029c-0.30255,0.26984 -0.54212,0.48407 -0.71874,0.6427c-0.17499,0.16027 -0.30336,0.28701 -0.38513,0.38023c-0.08177,0.09485 -0.14718,0.17499 -0.19624,0.2404M188.19249,278.97774c-0.04089,-0.08994 -0.09976,-0.19216 -0.17662,-0.30664c-0.0785,-0.11447 -0.16027,-0.22486 -0.24532,-0.33117c-0.08668,-0.1063 -0.16272,-0.19216 -0.22813,-0.25757c0.08177,-0.06541 0.16763,-0.15945 0.25757,-0.2821c0.08994,-0.12266 0.16517,-0.26821 0.22568,-0.43664c0.06215,-0.1668 0.09322,-0.35652 0.09322,-0.56912v-5.35997h1.21427v6.10815c0,0 -0.05724,0.05071 -0.17172,0.1521c-0.11447,0.10302 -0.24777,0.23222 -0.39985,0.38758c-0.15046,0.15535 -0.28293,0.31235 -0.39739,0.47098c-0.11447,0.16027 -0.17172,0.30173 -0.17172,0.42439M186.53667,271.43455h2.47759v1.26333h-2.47759z" fill="#ffffff" stroke="none" stroke-width="1" stroke-linecap="butt" stroke-linejoin="miter"/><path d="M90.1265,282.63705v-1.06322h3.71471v1.06322zM95.28508,283.04396c0,-0.70006 0.07263,-1.35637 0.2179,-1.96893c0.14351,-0.61255 0.33778,-1.17873 0.5828,-1.69852c0.24502,-0.52155 0.51892,-0.99059 0.8217,-1.40713c0.30102,-0.41478 0.61343,-0.7797 0.93721,-1.09472l0.89258,0.64318c-0.28878,0.31503 -0.5688,0.64056 -0.84008,0.97659c-0.27128,0.33778 -0.51192,0.71407 -0.72194,1.12885c-0.21002,0.41654 -0.37804,0.90046 -0.50404,1.45175c-0.12776,0.5513 -0.19164,1.20761 -0.19164,1.96893h-1.19449M95.28508,284.00217v-0.89258h1.19449v0.89258h-1.19449M98.93416,284.00217v-0.89258h1.19448v0.89258h-1.19448M100.12864,284.00217c0,0.49005 -0.10676,0.92758 -0.32028,1.31262c-0.21527,0.38504 -0.50404,0.68956 -0.86632,0.91358c-0.36403,0.22227 -0.77795,0.3334 -1.24174,0.3334v-1.03697c0.39378,0 0.69831,-0.13388 0.91358,-0.40166c0.21352,-0.26603 0.32028,-0.63968 0.32028,-1.12097h1.19448M95.28508,284.00217h1.19449c0,0.48129 0.10938,0.85495 0.32815,1.12097c0.21877,0.26778 0.52067,0.40166 0.90571,0.40166v1.03697c-0.46379,0 -0.87683,-0.11113 -1.23911,-0.3334c-0.36403,-0.22402 -0.65281,-0.52855 -0.86633,-0.91358c-0.21527,-0.38504 -0.32291,-0.82257 -0.32291,-1.31262M100.12864,283.10959h-1.19448c0,-0.49005 -0.10676,-0.86633 -0.32028,-1.12885c-0.21527,-0.26252 -0.5198,-0.39378 -0.91358,-0.39378v-1.03697c0.46379,0 0.87771,0.11201 1.24174,0.33603c0.36228,0.22227 0.65105,0.52592 0.86632,0.91096c0.21352,0.38504 0.32028,0.82257 0.32028,1.31261M95.28508,283.10959c0,-0.49005 0.10763,-0.92758 0.32291,-1.31261c0.21352,-0.38504 0.5023,-0.68869 0.86633,-0.91096c0.36228,-0.22402 0.77532,-0.33603 1.23911,-0.33603v1.03697c-0.38504,0 -0.68694,0.13126 -0.90571,0.39378c-0.21877,0.26252 -0.32815,0.6388 -0.32815,1.12885z" fill="#ffffff" stroke="none" stroke-width="1" stroke-linecap="butt" stroke-linejoin="miter"/><path d="M63.86253,286.17704l2.028,-6.565h1.183l-2.119,6.565zM63.74554,286.17704l-2.132,-6.565h1.183l2.028,6.565zM68.56852,279.70303l-0.715,-0.741l1.794,-1.95v1.508zM69.64753,286.17704v-9.165h1.183v9.165zM73.22253,286.22904c-0.21667,0 -0.39867,-0.07367 -0.546,-0.221c-0.14733,-0.14733 -0.221,-0.32933 -0.221,-0.546c0,-0.21667 0.07367,-0.39867 0.221,-0.546c0.14733,-0.156 0.32933,-0.234 0.546,-0.234c0.21667,0 0.39867,0.078 0.546,0.234c0.156,0.14733 0.234,0.32933 0.234,0.546c0,0.21667 -0.078,0.39867 -0.234,0.546c-0.14733,0.14733 -0.32933,0.221 -0.546,0.221zM75.33503,282.88804c0,-0.69333 0.06933,-1.34333 0.208,-1.95c0.14733,-0.60667 0.34233,-1.16567 0.585,-1.677c0.24267,-0.52 0.51133,-0.98367 0.806,-1.391c0.30333,-0.416 0.61533,-0.78 0.936,-1.092l0.884,0.637c-0.286,0.312 -0.56333,0.637 -0.832,0.975c-0.26867,0.32933 -0.507,0.702 -0.715,1.118c-0.208,0.40733 -0.377,0.884 -0.507,1.43c-0.12133,0.546 -0.182,1.196 -0.182,1.95zM75.33503,283.83704v-0.884h1.183v0.884zM78.94899,283.83704v-0.884h1.183v0.884zM80.13203,283.83704c0,0.48533 -0.10833,0.91867 -0.325,1.3c-0.208,0.38133 -0.494,0.68467 -0.858,0.91c-0.35533,0.21667 -0.76267,0.325 -1.222,0.325v-1.027c0.39,0 0.689,-0.13 0.897,-0.39c0.21667,-0.26867 0.325,-0.64133 0.325,-1.118zM75.33503,283.83704h1.183c0,0.47667 0.10833,0.84933 0.325,1.118c0.21667,0.26 0.51567,0.39 0.897,0.39v1.027c-0.45933,0 -0.871,-0.10833 -1.235,-0.325c-0.35533,-0.22533 -0.64133,-0.52867 -0.858,-0.91c-0.208,-0.38133 -0.312,-0.81467 -0.312,-1.3zM80.13203,282.95303h-1.183c0,-0.48533 -0.10833,-0.858 -0.325,-1.118c-0.208,-0.26 -0.507,-0.39 -0.897,-0.39v-1.027c0.45933,0 0.86667,0.11267 1.222,0.338c0.364,0.21667 0.65,0.51567 0.858,0.897c0.21667,0.38133 0.325,0.81467 0.325,1.3zM75.33503,282.95303c0,-0.48533 0.104,-0.91867 0.312,-1.3c0.21667,-0.38133 0.50267,-0.68033 0.858,-0.897c0.364,-0.22533 0.77567,-0.338 1.235,-0.338v1.027c-0.38133,0 -0.68033,0.13 -0.897,0.39c-0.21667,0.26 -0.325,0.63267 -0.325,1.118zM82.13404,286.22904c-0.21667,0 -0.39867,-0.07367 -0.546,-0.221c-0.14733,-0.14733 -0.221,-0.32933 -0.221,-0.546c0,-0.21667 0.07367,-0.39867 0.221,-0.546c0.14733,-0.156 0.32933,-0.234 0.546,-0.234c0.21667,0 0.39867,0.078 0.546,0.234c0.156,0.14733 0.234,0.32933 0.234,0.546c0,0.21667 -0.078,0.39867 -0.234,0.546c-0.14733,0.14733 -0.32933,0.221 -0.546,0.221zM86.43055,281.87403v-1.027c0.32933,0 0.598,-0.143 0.806,-0.429c0.21667,-0.286 0.325,-0.65433 0.325,-1.105h1.183c0,0.494 -0.09967,0.936 -0.299,1.326c-0.19067,0.38133 -0.45933,0.68467 -0.806,0.91c-0.34667,0.21667 -0.74967,0.325 -1.209,0.325zM87.69155,284.07103v-0.91h1.183v0.91zM85.63755,281.87403v-1.027h0.806v1.027zM87.56155,279.32603c0,-0.43333 -0.10833,-0.78867 -0.325,-1.066c-0.208,-0.27733 -0.47667,-0.416 -0.806,-0.416v-1.027c0.45933,0 0.86233,0.10833 1.209,0.325c0.34667,0.208 0.61533,0.50267 0.806,0.884c0.19933,0.37267 0.299,0.806 0.299,1.3zM88.87455,284.05804c0,0.442 -0.104,0.84067 -0.312,1.196c-0.208,0.34667 -0.494,0.624 -0.858,0.832c-0.364,0.19933 -0.77567,0.299 -1.235,0.299v-1.027c0.35533,0 0.64567,-0.12133 0.871,-0.364c0.234,-0.25133 0.351,-0.56333 0.351,-0.936zM88.87455,283.17404h-1.183c0,-0.38133 -0.117,-0.69333 -0.351,-0.936c-0.22533,-0.24267 -0.51567,-0.364 -0.871,-0.364v-1.027c0.45933,0 0.871,0.09967 1.235,0.299c0.364,0.19933 0.65,0.47667 0.858,0.832c0.208,0.35533 0.312,0.754 0.312,1.196zM85.20855,278.97503l-1.092,-0.221c0.052,-0.38133 0.182,-0.715 0.39,-1.001c0.21667,-0.29467 0.494,-0.52433 0.832,-0.689c0.338,-0.16467 0.70633,-0.247 1.105,-0.247v1.027c-0.312,0 -0.585,0.091 -0.819,0.273c-0.234,0.182 -0.37267,0.468 -0.416,0.858zM85.24755,284.22704c0.04333,0.38133 0.17767,0.66733 0.403,0.858c0.234,0.182 0.51133,0.273 0.832,0.273v1.027c-0.40733,0 -0.78,-0.08233 -1.118,-0.247c-0.32933,-0.16467 -0.60233,-0.39433 -0.819,-0.689c-0.208,-0.29467 -0.338,-0.62833 -0.39,-1.001z" fill="#ffffff" stroke="none" stroke-width="1" stroke-linecap="butt" stroke-linejoin="miter"/><path d="M60.95272,270.18314c0.00685,-0.47249 0.07532,-0.87993 0.20543,-1.22231c0.13011,-0.34238 0.29787,-0.64163 0.50331,-0.89773c0.20543,-0.25747 0.42319,-0.4944 0.65327,-0.71079c0.22871,-0.21502 0.44442,-0.43072 0.64711,-0.64711c0.20132,-0.21502 0.36704,-0.45126 0.49714,-0.70874c0.13011,-0.2561 0.19516,-0.55535 0.19516,-0.89773c0,0 0.0226,0 0.06779,0c0.04383,0 0.09998,0 0.16845,0c0.06848,0 0.13695,0 0.20543,0c0.06848,0 0.12531,0 0.17051,0c0.04383,0 0.06574,0 0.06574,0c0,0.4314 -0.06505,0.80118 -0.19516,1.10933c-0.13011,0.30815 -0.29787,0.58 -0.50331,0.81556c-0.20543,0.23693 -0.42456,0.46016 -0.65738,0.6697c-0.23282,0.20817 -0.45195,0.42661 -0.65738,0.65532c-0.20543,0.23008 -0.37457,0.49098 -0.50741,0.78269c-0.13422,0.29034 -0.20475,0.64094 -0.21159,1.05181h-0.64711M60.95272,270.86106v-0.67792h3.37934v0.67792h-3.37934M61.50738,264.98574l-0.65738,-0.1438c0.03424,-0.27391 0.13148,-0.517 0.29171,-0.72928c0.16161,-0.21228 0.36909,-0.3821 0.62246,-0.50947c0.25336,-0.126 0.52727,-0.189 0.82172,-0.189v0.64711c-0.27391,0 -0.51358,0.07396 -0.71901,0.22187c-0.20543,0.14654 -0.32527,0.38073 -0.3595,0.70257M64.33205,265.109h-0.67792c0,-0.3013 -0.10272,-0.55124 -0.30815,-0.74982c-0.20543,-0.19858 -0.46222,-0.29787 -0.77037,-0.29787v-0.64711c0.33554,0 0.63547,0.07327 0.89979,0.21981c0.26295,0.14791 0.47112,0.34992 0.62451,0.60602c0.15476,0.25747 0.23214,0.54713 0.23214,0.86897zM68.19415,269.16626v-3.80047h0.67792v3.80047h-0.67792M65.35921,269.16626v-3.80047h0.67792v3.80047h-0.67792M67.0951,264.16402v-0.64711h0.04109v0.64711h-0.04109M67.0951,271.01514v-0.64711h0.04109v0.64711h-0.04109M65.35921,265.36579c0,-0.35608 0.07738,-0.67244 0.23214,-0.94909c0.15339,-0.27802 0.36224,-0.49783 0.62656,-0.65943c0.26295,-0.16024 0.5622,-0.24035 0.89773,-0.24035v0.64711c-0.33554,0 -0.59917,0.10408 -0.79091,0.31225c-0.19174,0.20954 -0.2876,0.50604 -0.2876,0.88952h-0.67792M68.87207,265.36579h-0.67792c0,-0.38347 -0.09381,-0.67998 -0.28144,-0.88952c-0.189,-0.20817 -0.45469,-0.31225 -0.79707,-0.31225v-0.64711c0.33554,0 0.63547,0.08012 0.89979,0.24035c0.26295,0.16161 0.47181,0.38142 0.62656,0.65943c0.15339,0.27665 0.23008,0.59301 0.23008,0.94909M65.35921,269.16626h0.67792c0,0.37662 0.09587,0.67107 0.2876,0.88335c0.19174,0.21228 0.45537,0.31842 0.79091,0.31842v0.64711c-0.33554,0 -0.63478,-0.08012 -0.89773,-0.24035c-0.26432,-0.16161 -0.47318,-0.38073 -0.62656,-0.65738c-0.15476,-0.27802 -0.23214,-0.59506 -0.23214,-0.95114M68.87207,269.16626c0,0.35608 -0.07669,0.67313 -0.23008,0.95114c-0.15476,0.27665 -0.36361,0.49577 -0.62656,0.65738c-0.26432,0.16024 -0.56425,0.24035 -0.89979,0.24035v-0.64711c0.34238,0 0.60808,-0.10614 0.79707,-0.31842c0.18763,-0.21228 0.28144,-0.50673 0.28144,-0.88335zM70.15602,270.18314c0.00685,-0.47249 0.07532,-0.87993 0.20543,-1.22231c0.13011,-0.34238 0.29787,-0.64163 0.50331,-0.89773c0.20543,-0.25747 0.42319,-0.4944 0.65327,-0.71079c0.22871,-0.21502 0.44442,-0.43072 0.64711,-0.64711c0.20132,-0.21502 0.36704,-0.45126 0.49714,-0.70874c0.13011,-0.2561 0.19516,-0.55535 0.19516,-0.89773c0,0 0.0226,0 0.06779,0c0.04383,0 0.09998,0 0.16845,0c0.06848,0 0.13695,0 0.20543,0c0.06848,0 0.12531,0 0.17051,0c0.04383,0 0.06574,0 0.06574,0c0,0.4314 -0.06505,0.80118 -0.19516,1.10933c-0.13011,0.30815 -0.29787,0.58 -0.50331,0.81556c-0.20543,0.23693 -0.42456,0.46016 -0.65738,0.6697c-0.23282,0.20817 -0.45195,0.42661 -0.65738,0.65532c-0.20543,0.23008 -0.37457,0.49098 -0.50741,0.78269c-0.13422,0.29034 -0.20475,0.64094 -0.21159,1.05181h-0.64711M70.15602,270.86106v-0.67792h3.37934v0.67792h-3.37934M70.71068,264.98574l-0.65738,-0.1438c0.03424,-0.27391 0.13216,-0.517 0.29377,-0.72928c0.16024,-0.21228 0.36704,-0.3821 0.6204,-0.50947c0.25336,-0.126 0.52727,-0.189 0.82172,-0.189v0.64711c-0.27391,0 -0.51358,0.07396 -0.71901,0.22187c-0.20543,0.14654 -0.32527,0.38073 -0.3595,0.70257M73.53535,265.109h-0.67792c0,-0.3013 -0.10272,-0.55124 -0.30815,-0.74982c-0.20543,-0.19858 -0.46222,-0.29787 -0.77037,-0.29787v-0.64711c0.33554,0 0.63547,0.07327 0.89979,0.21981c0.26295,0.14791 0.47181,0.34992 0.62656,0.60602c0.15339,0.25747 0.23008,0.54713 0.23008,0.86897zM74.61386,268.29318c0,-0.6026 0.05684,-1.14904 0.17051,-1.63934c0.1123,-0.48893 0.26295,-0.9306 0.45195,-1.32503c0.18763,-0.39306 0.39443,-0.73887 0.6204,-1.03743c0.22597,-0.29719 0.45195,-0.55535 0.67792,-0.77447l0.53412,0.40059c-0.23967,0.24652 -0.46564,0.50331 -0.67792,0.77037c-0.21228,0.26706 -0.40059,0.5663 -0.56493,0.89773c-0.16434,0.3328 -0.29445,0.71832 -0.39032,1.15658c-0.09587,0.43825 -0.1438,0.95525 -0.1438,1.551h-0.67792M74.61386,269.16626v-0.87308h0.67792v0.87308h-0.67792M77.44881,269.16626v-0.87308h0.67792v0.87308h-0.67792M78.12673,269.16626c0,0.35608 -0.07738,0.67313 -0.23214,0.95114c-0.15339,0.27665 -0.36224,0.49577 -0.62656,0.65738c-0.26295,0.16024 -0.5622,0.24035 -0.89773,0.24035v-0.64711c0.34238,0 0.60739,-0.10614 0.79502,-0.31842c0.189,-0.21228 0.28349,-0.50673 0.28349,-0.88335h0.67792M74.61386,269.16626h0.67792c0,0.37662 0.09587,0.67107 0.2876,0.88335c0.19174,0.21228 0.45537,0.31842 0.79091,0.31842v0.64711c-0.33554,0 -0.63547,-0.08012 -0.89979,-0.24035c-0.26295,-0.16161 -0.47112,-0.38073 -0.62451,-0.65738c-0.15476,-0.27802 -0.23214,-0.59506 -0.23214,-0.95114M78.12673,268.29318h-0.67792c0,-0.38347 -0.0945,-0.67998 -0.28349,-0.88952c-0.18763,-0.20817 -0.45263,-0.31225 -0.79502,-0.31225v-0.64711c0.33554,0 0.63478,0.08012 0.89773,0.24035c0.26432,0.16161 0.47318,0.38142 0.62656,0.65943c0.15476,0.27665 0.23214,0.59301 0.23214,0.94909M74.61386,268.29318c0,-0.35608 0.07738,-0.67244 0.23214,-0.94909c0.15339,-0.27802 0.36156,-0.49783 0.62451,-0.65943c0.26432,-0.16024 0.56425,-0.24035 0.89979,-0.24035v0.64711c-0.33554,0 -0.59917,0.10408 -0.79091,0.31225c-0.19174,0.20954 -0.2876,0.50604 -0.2876,0.88952zM78.84574,270.86106l2.06458,-7.19008h0.70874l-2.06458,7.19008zM85.27572,269.16626v-3.80047h0.67792v3.80047h-0.67792M82.44078,269.16626v-3.80047h0.67792v3.80047h-0.67792M84.17667,264.16402v-0.64711h0.04109v0.64711h-0.04109M84.17667,271.01514v-0.64711h0.04109v0.64711h-0.04109M82.44078,265.36579c0,-0.35608 0.07669,-0.67244 0.23008,-0.94909c0.15476,-0.27802 0.36361,-0.49783 0.62656,-0.65943c0.26432,-0.16024 0.56425,-0.24035 0.89979,-0.24035v0.64711c-0.33554,0 -0.59917,0.10408 -0.79091,0.31225c-0.19174,0.20954 -0.2876,0.50604 -0.2876,0.88952h-0.67792M85.95364,265.36579h-0.67792c0,-0.38347 -0.0945,-0.67998 -0.28349,-0.88952c-0.18763,-0.20817 -0.45263,-0.31225 -0.79502,-0.31225v-0.64711c0.33554,0 0.63478,0.08012 0.89773,0.24035c0.26432,0.16161 0.47318,0.38142 0.62656,0.65943c0.15476,0.27665 0.23214,0.59301 0.23214,0.94909M82.44078,269.16626h0.67792c0,0.37662 0.09587,0.67107 0.2876,0.88335c0.19174,0.21228 0.45537,0.31842 0.79091,0.31842v0.64711c-0.33554,0 -0.63547,-0.08012 -0.89979,-0.24035c-0.26295,-0.16161 -0.47181,-0.38073 -0.62656,-0.65738c-0.15339,-0.27802 -0.23008,-0.59506 -0.23008,-0.95114M85.95364,269.16626c0,0.35608 -0.07738,0.67313 -0.23214,0.95114c-0.15339,0.27665 -0.36224,0.49577 -0.62656,0.65738c-0.26295,0.16024 -0.5622,0.24035 -0.89773,0.24035v-0.64711c0.34238,0 0.60739,-0.10614 0.79502,-0.31842c0.189,-0.21228 0.28349,-0.50673 0.28349,-0.88335zM87.23758,270.18314c0.00685,-0.47249 0.07532,-0.87993 0.20543,-1.22231c0.13011,-0.34238 0.29787,-0.64163 0.50331,-0.89773c0.20543,-0.25747 0.4225,-0.4944 0.65122,-0.71079c0.23008,-0.21502 0.44578,-0.43072 0.64711,-0.64711c0.20269,-0.21502 0.36909,-0.45126 0.4992,-0.70874c0.13011,-0.2561 0.19516,-0.55535 0.19516,-0.89773c0,0 0.02191,0 0.06574,0c0.04519,0 0.10203,0 0.17051,0c0.06848,0 0.13695,0 0.20543,0c0.06848,0 0.12463,0 0.16845,0c0.04519,0 0.06779,0 0.06779,0c0,0.4314 -0.06505,0.80118 -0.19516,1.10933c-0.13011,0.30815 -0.29787,0.58 -0.50331,0.81556c-0.20543,0.23693 -0.42456,0.46016 -0.65738,0.6697c-0.23282,0.20817 -0.45195,0.42661 -0.65738,0.65532c-0.20543,0.23008 -0.37457,0.49098 -0.50741,0.78269c-0.13422,0.29034 -0.20475,0.64094 -0.21159,1.05181h-0.64711M87.23758,270.86106v-0.67792h3.37934v0.67792h-3.37934M87.79225,264.98574l-0.65738,-0.1438c0.03424,-0.27391 0.13216,-0.517 0.29377,-0.72928c0.16024,-0.21228 0.36704,-0.3821 0.6204,-0.50947c0.25336,-0.126 0.52727,-0.189 0.82172,-0.189v0.64711c-0.27391,0 -0.51358,0.07396 -0.71901,0.22187c-0.20543,0.14654 -0.32527,0.38073 -0.3595,0.70257M90.61692,265.109h-0.67792c0,-0.3013 -0.10272,-0.55124 -0.30815,-0.74982c-0.20543,-0.19858 -0.46222,-0.29787 -0.77037,-0.29787v-0.64711c0.33554,0 0.63478,0.07327 0.89773,0.21981c0.26432,0.14791 0.47318,0.34992 0.62656,0.60602c0.15476,0.25747 0.23214,0.54713 0.23214,0.86897zM91.33593,270.86106l2.06458,-7.19008h0.70874l-2.06458,7.19008zM95.08504,270.18314c0.00685,-0.47249 0.07532,-0.87993 0.20543,-1.22231c0.13011,-0.34238 0.29787,-0.64163 0.50331,-0.89773c0.20543,-0.25747 0.4225,-0.4944 0.65122,-0.71079c0.23008,-0.21502 0.44578,-0.43072 0.64711,-0.64711c0.20269,-0.21502 0.36909,-0.45126 0.4992,-0.70874c0.13011,-0.2561 0.19516,-0.55535 0.19516,-0.89773c0,0 0.02191,0 0.06574,0c0.04519,0 0.10203,0 0.17051,0c0.06848,0 0.13695,0 0.20543,0c0.06848,0 0.12463,0 0.16845,0c0.04519,0 0.06779,0 0.06779,0c0,0.4314 -0.06505,0.80118 -0.19516,1.10933c-0.13011,0.30815 -0.29787,0.58 -0.50331,0.81556c-0.20543,0.23693 -0.42456,0.46016 -0.65738,0.6697c-0.23282,0.20817 -0.45195,0.42661 -0.65738,0.65532c-0.20543,0.23008 -0.37525,0.49098 -0.50947,0.78269c-0.13284,0.29034 -0.20269,0.64094 -0.20954,1.05181h-0.64711M95.08504,270.86106v-0.67792h3.37934v0.67792h-3.37934M95.6397,264.98574l-0.65738,-0.1438c0.03424,-0.27391 0.13148,-0.517 0.29171,-0.72928c0.16161,-0.21228 0.36909,-0.3821 0.62246,-0.50947c0.25336,-0.126 0.52727,-0.189 0.82172,-0.189v0.64711c-0.27391,0 -0.51358,0.07396 -0.71901,0.22187c-0.20543,0.14654 -0.32527,0.38073 -0.3595,0.70257M98.46438,265.109h-0.67792c0,-0.3013 -0.10272,-0.55124 -0.30815,-0.74982c-0.20543,-0.19858 -0.46222,-0.29787 -0.77037,-0.29787v-0.64711c0.33554,0 0.63478,0.07327 0.89773,0.21981c0.26432,0.14791 0.47318,0.34992 0.62656,0.60602c0.15476,0.25747 0.23214,0.54713 0.23214,0.86897zM99.6456,267.83096v-4.15997h0.67792v4.15997h-0.67792M102.34702,269.17653v-1.34557h0.67792v1.34557h-0.67792M99.6456,264.34891v-0.67792h3.21499v0.67792h-3.21499M102.34702,267.84123c0,-0.31499 -0.10272,-0.57521 -0.30815,-0.78064c-0.20543,-0.20543 -0.4588,-0.30815 -0.76009,-0.30815l0.04109,-0.61629c0.32869,0 0.62109,0.07327 0.87719,0.21981c0.25747,0.14791 0.45948,0.34992 0.60602,0.60602c0.14791,0.25747 0.22187,0.55055 0.22187,0.87924h-0.67792M99.83049,267.83096c0,-0.32184 0.06505,-0.6115 0.19516,-0.86897c0.13011,-0.2561 0.30952,-0.45811 0.53823,-0.60602c0.23008,-0.14654 0.4855,-0.21981 0.76626,-0.21981l-0.04109,0.61629c-0.27391,0 -0.50331,0.10272 -0.68819,0.30815c-0.18489,0.20543 -0.27733,0.46222 -0.27733,0.77037h-0.49303M103.02494,269.17653c0,0.35608 -0.07738,0.67244 -0.23214,0.94909c-0.15339,0.27802 -0.36224,0.49783 -0.62656,0.65943c-0.26295,0.16024 -0.5622,0.24035 -0.89773,0.24035v-0.64711c0.34238,0 0.60739,-0.10614 0.79502,-0.31842c0.189,-0.21228 0.28349,-0.50673 0.28349,-0.88335h0.67792M100.20027,269.45386c0.03424,0.31499 0.15407,0.54782 0.3595,0.69846c0.20543,0.15065 0.4451,0.22597 0.71901,0.22597v0.64711c-0.29445,0 -0.56836,-0.063 -0.82172,-0.189c-0.25336,-0.12737 -0.46085,-0.29856 -0.62246,-0.51358c-0.16024,-0.21639 -0.25747,-0.45811 -0.29171,-0.72517z" fill="#ffffff" stroke="#ffffff" stroke-width="0.25" stroke-linecap="butt" stroke-linejoin="miter"/><path d="M139.90988,220.45328v-2.71316h9.47934v2.71316zM153.07374,221.49164c0,-1.78644 0.18534,-3.46124 0.55605,-5.02439c0.36621,-1.56313 0.86196,-3.00793 1.48721,-4.33435c0.62525,-1.33091 1.3242,-2.52782 2.09684,-3.59077c0.76815,-1.05845 1.56537,-1.98967 2.39161,-2.79355l2.27772,1.64129c-0.73692,0.80391 -1.45149,1.6346 -2.14375,2.4921c-0.69226,0.86196 -1.30634,1.82219 -1.84227,2.88064c-0.53594,1.06294 -0.9647,2.29783 -1.28623,3.70463c-0.32602,1.40683 -0.48903,3.08162 -0.48903,5.02439h-3.04814M153.07374,223.93684v-2.27772h3.04814v2.27772h-3.04814M162.3856,223.93684v-2.27772h3.04812v2.27772h-3.04812M165.43372,223.93684c0,1.25053 -0.27243,2.36703 -0.8173,3.34959c-0.54933,0.98256 -1.28623,1.75964 -2.21071,2.33131c-0.92895,0.5672 -1.9852,0.85078 -3.16872,0.85078v-2.64618c1.00486,0 1.78197,-0.34164 2.33131,-1.02497c0.54487,-0.67887 0.8173,-1.63236 0.8173,-2.86053h3.04812M153.07374,223.93684h3.04814c0,1.22817 0.27912,2.18169 0.83739,2.86053c0.55827,0.68333 1.32867,1.02497 2.31122,1.02497v2.64618c-1.18352,0 -2.23753,-0.28359 -3.16201,-0.85078c-0.92895,-0.57166 -1.66586,-1.34877 -2.21073,-2.33131c-0.54933,-0.98256 -0.82401,-2.09906 -0.82401,-3.34959M165.43372,221.65912h-3.04812c0,-1.25053 -0.27243,-2.21073 -0.8173,-2.88064c-0.54933,-0.66991 -1.32645,-1.00486 -2.33131,-1.00486v-2.64618c1.18352,0 2.23977,0.28583 3.16872,0.85749c0.92448,0.5672 1.66137,1.34206 2.21071,2.32462c0.54487,0.98256 0.8173,2.09906 0.8173,3.34957M153.07374,221.65912c0,-1.25053 0.27465,-2.36703 0.82401,-3.34957c0.54487,-0.98256 1.28179,-1.75742 2.21073,-2.32462c0.92448,-0.57166 1.97849,-0.85749 3.16201,-0.85749v2.64618c-0.98256,0 -1.75296,0.33495 -2.31122,1.00486c-0.55827,0.66991 -0.83739,1.63011 -0.83739,2.88064z" fill="#ffffff" stroke="none" stroke-width="1" stroke-linecap="butt" stroke-linejoin="miter"/><path d="M69.13717,229.48675l5.17513,-16.75281h3.01882l-5.40734,16.75281zM68.83863,229.48675l-5.44052,-16.75281h3.01882l5.17513,16.75281zM81.14609,212.96613l-1.82456,-1.89091l4.578,-4.97608v3.84817zM83.89955,229.48675v-23.38759h3.01882v23.38759zM93.02236,229.61945c-0.55291,0 -1.01734,-0.18799 -1.3933,-0.56396c-0.37596,-0.37596 -0.56396,-0.8404 -0.56396,-1.3933c0,-0.55291 0.18799,-1.01734 0.56396,-1.3933c0.37596,-0.39809 0.8404,-0.59713 1.3933,-0.59713c0.55291,0 1.01734,0.19904 1.3933,0.59713c0.39809,0.37596 0.59713,0.8404 0.59713,1.3933c0,0.55291 -0.19904,1.01734 -0.59713,1.3933c-0.37596,0.37596 -0.8404,0.56396 -1.3933,0.56396zM98.41312,221.09376c0,-1.76927 0.17692,-3.42796 0.53078,-4.97608c0.37596,-1.54812 0.87357,-2.9746 1.49282,-4.27943c0.61925,-1.32696 1.30483,-2.51017 2.05678,-3.54961c0.77405,-1.06156 1.57022,-1.99043 2.38852,-2.78661l2.25582,1.62552c-0.72983,0.79617 -1.43753,1.62552 -2.12313,2.48804c-0.6856,0.8404 -1.29378,1.79139 -1.82456,2.85295c-0.53078,1.03944 -0.96204,2.25582 -1.29378,3.64913c-0.30961,1.3933 -0.46443,3.052 -0.46443,4.97608zM98.41312,223.51545v-2.25582h3.01882v2.25582zM107.63536,223.51545v-2.25582h3.01882v2.25582zM110.65428,223.51545c0,1.23848 -0.27644,2.3443 -0.82935,3.31739c-0.53078,0.97309 -1.26061,1.74717 -2.18948,2.32217c-0.90674,0.55291 -1.94621,0.82935 -3.11835,0.82935v-2.62074c0.99522,0 1.75822,-0.33174 2.289,-0.99522c0.55291,-0.6856 0.82935,-1.63657 0.82935,-2.85295zM98.41312,223.51545h3.01882c0,1.21638 0.27644,2.16735 0.82935,2.85295c0.55291,0.66348 1.31591,0.99522 2.289,0.99522v2.62074c-1.17214,0 -2.22265,-0.27644 -3.15152,-0.82935c-0.90674,-0.57501 -1.63657,-1.34908 -2.18948,-2.32217c-0.53078,-0.97309 -0.79617,-2.07891 -0.79617,-3.31739zM110.65428,221.25961h-3.01882c0,-1.23848 -0.27644,-2.18948 -0.82935,-2.85295c-0.53078,-0.66348 -1.29378,-0.99522 -2.289,-0.99522v-2.62074c1.17214,0 2.2116,0.28752 3.11835,0.86252c0.92887,0.55291 1.65869,1.31591 2.18948,2.289c0.55291,0.97309 0.82935,2.07891 0.82935,3.31739zM98.41312,221.25961c0,-1.23848 0.26539,-2.3443 0.79617,-3.31739c0.55291,-0.97309 1.28273,-1.73609 2.18948,-2.289c0.92887,-0.57501 1.97938,-0.86252 3.15152,-0.86252v2.62074c-0.97309,0 -1.73609,0.33174 -2.289,0.99522c-0.55291,0.66348 -0.82935,1.61447 -0.82935,2.85295zM115.76309,229.61945c-0.55291,0 -1.01734,-0.18799 -1.3933,-0.56396c-0.37596,-0.37596 -0.56396,-0.8404 -0.56396,-1.3933c0,-0.55291 0.18799,-1.01734 0.56396,-1.3933c0.37596,-0.39809 0.8404,-0.59713 1.3933,-0.59713c0.55291,0 1.01734,0.19904 1.3933,0.59713c0.39809,0.37596 0.59713,0.8404 0.59713,1.3933c0,0.55291 -0.19904,1.01734 -0.59713,1.3933c-0.37596,0.37596 -0.8404,0.56396 -1.3933,0.56396zM126.72708,218.50617v-2.62074c0.8404,0 1.526,-0.36491 2.05678,-1.09474c0.55291,-0.72983 0.82935,-1.66974 0.82935,-2.81978h3.01882c0,1.26061 -0.25434,2.38852 -0.763,3.38374c-0.48656,0.97309 -1.17214,1.74717 -2.05678,2.32217c-0.88465,0.55291 -1.91304,0.82935 -3.08517,0.82935zM129.94495,224.11256v-2.32217h3.01882v2.32217zM124.70348,218.50617v-2.62074h2.05678v2.62074zM129.61321,212.00409c0,-1.10579 -0.27644,-2.01256 -0.82935,-2.72026c-0.53078,-0.7077 -1.21638,-1.06156 -2.05678,-1.06156v-2.62074c1.17214,0 2.20053,0.27644 3.08517,0.82935c0.88465,0.53078 1.57022,1.28273 2.05678,2.25582c0.50866,0.95099 0.763,2.05678 0.763,3.31739zM132.96377,224.07941c0,1.12791 -0.26539,2.14525 -0.79617,3.052c-0.53078,0.88465 -1.26061,1.59235 -2.18948,2.12313c-0.92887,0.50866 -1.97938,0.763 -3.15152,0.763v-2.62074c0.90674,0 1.64764,-0.30961 2.22265,-0.92887c0.59713,-0.64135 0.89569,-1.43753 0.89569,-2.38852zM132.96377,221.82359h-3.01882c0,-0.97309 -0.29856,-1.76927 -0.89569,-2.38852c-0.57501,-0.61925 -1.31591,-0.92887 -2.22265,-0.92887v-2.62074c1.17214,0 2.22265,0.25434 3.15152,0.763c0.92887,0.50866 1.65869,1.21638 2.18948,2.12313c0.53078,0.90674 0.79617,1.92409 0.79617,3.052zM123.60874,211.1084l-2.78661,-0.56396c0.1327,-0.97309 0.46443,-1.82456 0.99522,-2.55439c0.55291,-0.75195 1.26061,-1.338 2.12313,-1.75822c0.86252,-0.42021 1.80244,-0.6303 2.81978,-0.6303v2.62074c-0.79617,0 -1.49282,0.23222 -2.08995,0.69665c-0.59713,0.46443 -0.95099,1.19426 -1.06156,2.18948zM123.70826,224.51067c0.11057,0.97309 0.45338,1.70292 1.02839,2.18948c0.59713,0.46443 1.30483,0.69665 2.12313,0.69665v2.62074c-1.03944,0 -1.99043,-0.21009 -2.85295,-0.6303c-0.8404,-0.42021 -1.53705,-1.00627 -2.08995,-1.75822c-0.53078,-0.75195 -0.86252,-1.6034 -0.99522,-2.55439z" fill="#ffffff" stroke="none" stroke-width="1" stroke-linecap="butt" stroke-linejoin="miter"/></g></g></svg>