<svg version="1.1" xmlns="http://www.w3.org/2000/svg" xmlns:xlink="http://www.w3.org/1999/xlink" width="208" height="32" viewBox="0,0,208,32"><g transform="translate(-240,-164)"><g stroke="none" stroke-miterlimit="10"><path d="M240,196v-32h208v32z" fill="none" stroke-width="0"/><path d="M253.09,179.32c0.013,0.09765 0.02927,0.25716 0.0488,0.47851c0.32552,3.47007 2.44465,6.00913 6.3574,7.6172l-1.3184,1.9434c-1.569,-0.7292 -2.79297,-1.53973 -3.6719,-2.4316c-0.93747,-0.95053 -1.6829,-2.12567 -2.2363,-3.5254c-0.44271,1.41273 -1.16211,2.63343 -2.1582,3.6621c-0.85287,0.8724 -2.13217,1.709 -3.8379,2.5098l-1.3965,-1.7578c1.86847,-0.70313 3.28447,-1.6146 4.248,-2.7344c1.21747,-1.41273 1.8262,-3.29423 1.8262,-5.6445v-0.30273h-1.2402c-0.55339,1.1784 -1.20442,2.2396 -1.9531,3.1836l-1.6406,-1.4648c1.33467,-1.60153 2.25263,-3.4342 2.7539,-5.498l2.0215,0.41992c-0.1888,0.67707 -0.34505,1.1914 -0.46875,1.543h7.334l1.1328,0.87891c-0.7422,1.9922 -1.5202,3.6263 -2.334,4.9023l-1.9043,-0.80078c0.7292,-1.11327 1.2826,-2.16797 1.6602,-3.1641h-3.2227zM245.6779,172.5231v-2.0215h2.1387v2.0215h4.1797v-2.0215h2.1582v2.0215h5.1172v1.7969h-5.1172v1.582h-2.1582v-1.582h-4.1797v1.6406h-2.1387v-1.6406h-4.9414v-1.7969zM240.8146,177.6208h5.6348v2.0801h-5.6348zM240.45328,186.4978c2.207,-1.1784 4.11453,-2.47073 5.7226,-3.877l1.0156,1.7383c-1.4844,1.3932 -3.2422,2.74087 -5.2734,4.043z" fill="#ffffff" stroke-width="1"/><path d="M274.22,183.85c-0.53385,-1.8164 -0.91145,-4.5117 -1.1328,-8.0859h-4.4824v2.4316h3.9355c-0.03907,3.1706 -0.17253,5.3288 -0.40039,6.4746c-0.11719,0.56641 -0.34831,0.96027 -0.69336,1.1816c-0.27343,0.17578 -0.66407,0.26367 -1.1719,0.26367c-0.54687,0 -1.01237,-0.04883 -1.3965,-0.14648l-0.19531,-1.7969c0.47526,0.07813 0.85939,0.11719 1.1524,0.11719c0.29297,0 0.48177,-0.09115 0.5664,-0.27344c0.15625,-0.3776 0.28321,-1.71873 0.38086,-4.0234h-2.1777c-0.00667,0.11068 -0.01,0.26368 -0.01,0.45899c-0.02607,2.34373 -0.24742,4.28383 -0.66406,5.8203c-0.29948,1.09373 -0.77801,2.1354 -1.4356,3.125l-1.6602,-1.2891c0.71613,-1.08727 1.2044,-2.38283 1.4648,-3.8867c0.21485,-1.24347 0.32227,-2.7604 0.32227,-4.5508v-5.791h6.377c-0.03253,-0.82033 -0.05207,-1.94663 -0.0586,-3.3789h2.002c0.00667,1.47133 0.0262,2.59763 0.0586,3.3789h4.3848v1.8848h-4.2969l0.01,0.20508c0.12369,2.02473 0.32877,3.81183 0.61523,5.3613c0.60547,-1.21747 1.10027,-2.5 1.4844,-3.8476l1.8457,0.79101c-0.80727,2.18747 -1.69593,4.08527 -2.666,5.6934c0.37761,1.04167 0.76174,1.8457 1.1524,2.4121c0.16927,0.25391 0.27994,0.38086 0.33203,0.38086c0.11719,0 0.24414,-0.7259 0.38086,-2.1777l0.0391,-0.41016l1.5234,0.97656c-0.13672,1.543 -0.2832,2.55863 -0.43945,3.0469c-0.24089,0.76173 -0.63475,1.1426 -1.1816,1.1426c-0.92447,0 -1.9694,-1.13933 -3.1348,-3.418c-1.0482,1.3672 -2.1973,2.53907 -3.4473,3.5156l-1.377,-1.5234c1.25653,-0.91147 2.33077,-1.92383 3.2227,-3.0371c0.23437,-0.29297 0.49153,-0.63477 0.77148,-1.0254zM262.726,175.2367v-4.8144h1.9824v4.8144h1.4356v1.9629h-1.4356v6.1133c0.42318,-0.18229 0.83985,-0.37435 1.25,-0.57618l0.18555,1.8652c-1.47133,0.87893 -3.22263,1.6797 -5.2539,2.4023l-0.64453,-2.0605c0.918,-0.27344 1.74483,-0.55013 2.4805,-0.83008v-6.9141h-2.1973v-1.9629zM277.199,173.8207c-0.45573,-0.93747 -1.04167,-1.79683 -1.7578,-2.5781l1.543,-0.82031c0.76173,0.78127 1.38023,1.6146 1.8555,2.5z" fill="#ffffff" stroke-width="1"/><path d="M280.19066,181.96154h19.44375v2.10027h-19.44375v-2.10027M284.49947,174.72967h10.78284v1.9054h-10.78284v-1.9054M284.52112,178.32395h10.80449v1.88375h-10.80449v-1.88375M283.54677,171.04879h13.22955v11.86545h-2.33845v-9.91674h-8.63926v9.91674h-2.25184v-11.86545M292.12107,184.88459l1.97036,-0.86609c0.6207,0.49078 1.26016,1.04653 1.91839,1.66723c0.65535,0.6207 1.26882,1.22985 1.84044,1.82746c0.56874,0.60049 1.04075,1.13169 1.41606,1.5936l-2.03532,1.06097c-0.36087,-0.49078 -0.82567,-1.05086 -1.39441,-1.68022c-0.57162,-0.62647 -1.18221,-1.25727 -1.83178,-1.89241c-0.64957,-0.63513 -1.27748,-1.20531 -1.88375,-1.71053M282.11771,189.71305c-0.0433,-0.17322 -0.10826,-0.38975 -0.19487,-0.64957c-0.08661,-0.25983 -0.17322,-0.5312 -0.25983,-0.81412c-0.08661,-0.28003 -0.18043,-0.5211 -0.28148,-0.72319c0.24539,-0.05774 0.49079,-0.1559 0.73618,-0.29447c0.24539,-0.13569 0.51244,-0.31901 0.80114,-0.54997c0.21652,-0.14435 0.53842,-0.40417 0.96569,-0.77948c0.42438,-0.3753 0.8964,-0.83001 1.41606,-1.3641c0.51966,-0.53409 0.99601,-1.09705 1.42905,-1.68888l2.38175,0.9094c-0.83722,0.93827 -1.72785,1.82889 -2.67189,2.67189c-0.94693,0.84589 -1.86066,1.55752 -2.74118,2.13492v0.04331c0,0 -0.07939,0.03609 -0.23818,0.10826c-0.15879,0.07217 -0.34211,0.16167 -0.54997,0.26849c-0.21075,0.1097 -0.39551,0.22951 -0.5543,0.35942c-0.15879,0.12992 -0.23818,0.25261 -0.23818,0.36809M282.11771,189.71305l-0.02165,-1.60227l1.38574,-0.75783l12.53668,-0.498c0.0433,0.28869 0.10826,0.60915 0.19487,0.96136c0.08661,0.3551 0.15157,0.64091 0.19487,0.85743c-1.99201,0.10104 -3.70976,0.19054 -5.15324,0.26849c-1.44349,0.08084 -2.66323,0.15012 -3.65924,0.20786c-0.99601,0.05774 -1.81446,0.10826 -2.45537,0.15157c-0.6438,0.04331 -1.15623,0.08228 -1.53731,0.11692c-0.38396,0.03753 -0.6871,0.07794 -0.9094,0.12125c-0.22519,0.04331 -0.41717,0.10105 -0.57595,0.17322z" fill="#ffffff" stroke-width="1"/></g></g></svg>