<svg version="1.1" xmlns="http://www.w3.org/2000/svg" xmlns:xlink="http://www.w3.org/1999/xlink" width="224" height="32" viewBox="0,0,224,32"><g transform="translate(-128,-164)"><g stroke="none" stroke-miterlimit="10"><path d="M128,196v-32h224v32z" fill-opacity="0" fill="#000000"/><path d="M201.3613,171.80469l3.6387,3.6406l3.6406,-3.6406c0.5163,-0.51617 1.21524,-0.80568 1.9453,-0.80469c0.7277,0.00085 1.4268,0.29021 1.9414,0.80469l0.66797,0.66797c1.0725,1.0725 1.0725,2.8142 0,3.8867l-3.6387,3.6406l3.6387,3.6387c1.0728,1.0726 1.0728,2.8162 0,3.8887l-0.66797,0.66797c-1.0725,1.0725 -2.8142,1.0725 -3.8867,0l-3.6406,-3.6406l-3.6387,3.6406c-1.0726,1.0728 -2.8162,1.0728 -3.8887,0l-0.66797,-0.66797c-1.0728,-1.0726 -1.0728,-2.8162 0,-3.8887l3.6387,-3.6387l-3.6387,-3.6406c-1.0725,-1.0725 -1.0725,-2.8142 0,-3.8867l0.66797,-0.66797c0.5146,-0.51448 1.21374,-0.80385 1.9414,-0.80469c0.7301,-0.00099 1.43101,0.28852 1.9473,0.80469zM199.40224,173.1855c-0.14372,0.004 -0.28116,0.06427 -0.38281,0.16602l-0.66797,0.66797c-0.22024,0.22034 -0.22024,0.57458 0,0.79492l5.1133,5.1152c0.03852,0.03896 0.03852,0.10166 0,0.14062l-5.1133,5.1152c-0.22024,0.22034 -0.22024,0.57458 0,0.79492l0.66796,0.66992c0.22034,0.22024 0.57458,0.22024 0.79492,0l5.1152,-5.1152c0.03896,-0.03852 0.10166,-0.03852 0.14062,0l5.1152,5.1152c0.22034,0.22024 0.57458,0.22024 0.79492,0l0.66992,-0.66992c0.22024,-0.22034 0.22024,-0.57458 0,-0.79492l-5.1172,-5.1152c-0.03852,-0.03896 -0.03852,-0.10166 0,-0.14062l5.1172,-5.1152c0.22024,-0.22034 0.22024,-0.57458 0,-0.79492l-0.66992,-0.66797c-0.10209,-0.10219 -0.23841,-0.16248 -0.38281,-0.16602c-0.00848,-0.00019 -0.01689,-0.00019 -0.02539,0c-0.14495,0.00314 -0.28424,0.06346 -0.38672,0.16602l-5.1152,5.1152c-0.03896,0.03852 -0.10166,0.03852 -0.14062,0l-5.1152,-5.1152c-0.10248,-0.10256 -0.24177,-0.16288 -0.38672,-0.16602c-0.00783,-0.00018 -0.01564,-0.00015 -0.02344,0h-0.0019z" fill="#ffffff"/><path d="M221.05142,173.2665h12.03396v1.27188h-12.03396v-1.27188M221.76888,179.83789h12.11549v1.20666h-12.11549v-1.20666M223.25275,181.56634h9.73478v1.05991h-9.73478v-1.05991M221.73627,183.18064h12.76773v1.17404h-12.76773v-1.17404M222.14394,176.83755h3.4406v0.91315h-3.4406v-0.91315M221.78519,178.33772h3.81564v0.89684h-3.81564v-0.89684M228.50334,178.33772h3.86456v0.89684h-3.86456v-0.89684M228.50334,176.83755h3.47321v0.91315h-3.47321v-0.91315M226.17155,173.8046h1.72845v5.70716h-1.72845v-5.70716M220.00782,175.19063h14.15377v2.85359h-1.69584v-1.80999h-10.8436v1.80999h-1.61431v-2.85359M220.98619,179.83789h1.63061v2.25026c0,0.45658 -0.02718,0.94793 -0.08153,1.47407c-0.05436,0.52832 -0.15436,1.06426 -0.30003,1.6078c-0.14784,0.54354 -0.35439,1.06751 -0.61964,1.57191c-0.26742,0.50658 -0.61312,0.96642 -1.03707,1.3795c-0.08697,-0.10871 -0.20655,-0.23698 -0.35874,-0.38482c-0.1522,-0.14567 -0.312,-0.28699 -0.4794,-0.42396c-0.16958,-0.1348 -0.3196,-0.2348 -0.45005,-0.30003c0.51093,-0.48918 0.88597,-1.02186 1.12512,-1.598c0.23915,-0.57615 0.39461,-1.15557 0.46636,-1.73824c0.06958,-0.5805 0.10436,-1.12077 0.10436,-1.62083v-2.21764M228.48703,183.80029c0.32612,0.53267 0.78813,0.9751 1.38602,1.32732c0.5979,0.35439 1.31211,0.63159 2.14263,0.83161c0.8327,0.20219 1.75998,0.3359 2.78183,0.40113c-0.1522,0.1522 -0.30982,0.35874 -0.47287,0.61964c-0.16307,0.2609 -0.29351,0.50006 -0.39135,0.71747c-1.11969,-0.11959 -2.11654,-0.32612 -2.99055,-0.61964c-0.87618,-0.29351 -1.62953,-0.68812 -2.26004,-1.18383c-0.63051,-0.49353 -1.1523,-1.09903 -1.56539,-1.81652l1.36971,-0.2772M232.28637,184.22425l1.28819,0.65225c-0.39135,0.2609 -0.80444,0.50223 -1.23927,0.72399c-0.43483,0.22393 -0.83161,0.41744 -1.19035,0.5805l-1.05991,-0.58702c0.23915,-0.13045 0.49135,-0.27504 0.75661,-0.43374c0.26742,-0.15654 0.5294,-0.3196 0.78596,-0.48918c0.25438,-0.16742 0.47397,-0.31634 0.65877,-0.44679M223.3832,188.00728l-0.08153,-1.14143l0.68485,-0.47287l4.50051,-0.63594c-0.04348,0.19568 -0.08153,0.42071 -0.11415,0.67507c-0.03261,0.25655 -0.04892,0.46636 -0.04892,0.62942c-1.00012,0.16307 -1.80781,0.29569 -2.4231,0.39787c-0.61312,0.10436 -1.08816,0.18915 -1.42516,0.25438c-0.33699,0.06523 -0.58159,0.11959 -0.73377,0.16307c-0.1522,0.04348 -0.27177,0.08697 -0.35874,0.13045M223.3832,188.00728c-0.04348,-0.13045 -0.10871,-0.28046 -0.19568,-0.45005c-0.08697,-0.16742 -0.18154,-0.3359 -0.28372,-0.50549c-0.10436,-0.16742 -0.20003,-0.30547 -0.28699,-0.41418c0.1848,-0.09784 0.38374,-0.26417 0.59681,-0.49897c0.2109,-0.23263 0.31634,-0.53376 0.31634,-0.90337v-1.56539l1.69584,0.03261v2.65791c0,0 -0.06196,0.03805 -0.18588,0.11415c-0.1261,0.0761 -0.27938,0.17937 -0.45983,0.30982c-0.17828,0.13045 -0.35983,0.26633 -0.54463,0.40766c-0.1848,0.14132 -0.33917,0.28481 -0.4631,0.43048c-0.1261,0.14784 -0.18915,0.27612 -0.18915,0.38482zM241.18954,173.60893h9.63695v1.58169h-9.63695v-1.58169M240.66775,173.60893h1.69584v4.51681c0,0.71747 -0.02718,1.50561 -0.08153,2.36439c-0.05436,0.85879 -0.15763,1.73389 -0.30982,2.62529c-0.1522,0.8914 -0.37504,1.75781 -0.66855,2.59921c-0.29351,0.84357 -0.68485,1.60236 -1.17404,2.27634c-0.09784,-0.09784 -0.23915,-0.20655 -0.42396,-0.32612c-0.1848,-0.11959 -0.36961,-0.23698 -0.55441,-0.35221c-0.1848,-0.11306 -0.34786,-0.19676 -0.48918,-0.25111c0.45658,-0.63051 0.82074,-1.32623 1.09252,-2.08719c0.27177,-0.76096 0.47071,-1.54148 0.59681,-2.34157c0.12393,-0.79791 0.20763,-1.58278 0.25111,-2.35461c0.04348,-0.77182 0.06523,-1.4893 0.06523,-2.15242v-4.51681M244.59754,180.22923v1.05991h4.10916v-1.05991h-4.10916M244.59754,177.99529v1.0436h4.10916v-1.0436h-4.10916M243.03214,176.7234h7.28886v5.83762h-7.28886v-5.83762M243.39088,183.27849l1.56539,0.44027c-0.17394,0.39135 -0.36961,0.79356 -0.58702,1.20666c-0.21742,0.41309 -0.4457,0.80662 -0.68485,1.18056c-0.23915,0.37612 -0.46201,0.70552 -0.66855,0.98815c-0.10871,-0.08697 -0.24459,-0.18263 -0.40766,-0.28699c-0.16307,-0.10219 -0.33482,-0.20546 -0.51528,-0.30982c-0.17828,-0.10219 -0.33264,-0.18588 -0.4631,-0.25111c0.33699,-0.39135 0.66312,-0.85336 0.97837,-1.38602c0.31525,-0.53267 0.57615,-1.05991 0.78269,-1.58169M248.02184,183.70245l1.51648,-0.58702c0.19568,0.32612 0.40004,0.68159 0.61312,1.06642c0.2109,0.387 0.40875,0.75987 0.59354,1.11861c0.1848,0.35874 0.33699,0.67398 0.45658,0.94576l-1.61431,0.70116c-0.09784,-0.28263 -0.23371,-0.61203 -0.40766,-0.98815c-0.17394,-0.37395 -0.36091,-0.75987 -0.56094,-1.15774c-0.20219,-0.39569 -0.40113,-0.76204 -0.59681,-1.09903M245.73897,175.20693l1.97305,0.35874c-0.19568,0.36961 -0.39678,0.73051 -0.60333,1.08272c-0.20655,0.35439 -0.39135,0.65116 -0.55441,0.89031l-1.40233,-0.39135c0.10871,-0.28263 0.22068,-0.60659 0.3359,-0.97184c0.11306,-0.36308 0.19676,-0.68594 0.25111,-0.9686M245.72266,182.00661h1.66323v4.30483c0,0.39135 -0.04022,0.6979 -0.12067,0.91968c-0.08262,0.22393 -0.25982,0.39569 -0.53158,0.51528c-0.2609,0.11959 -0.58159,0.19241 -0.96207,0.2185c-0.38047,0.02826 -0.83161,0.03696 -1.35342,0.02608c-0.03261,-0.21742 -0.0924,-0.46745 -0.17937,-0.75008c-0.08697,-0.28263 -0.17937,-0.53267 -0.2772,-0.75008c0.31525,0.01087 0.6218,0.01631 0.91968,0.01631c0.30003,0 0.49353,0 0.5805,0c0.17394,0 0.2609,-0.0761 0.2609,-0.22828v-4.27221M236.52598,174.16334l1.01099,-1.23927c0.28263,0.1522 0.59572,0.32829 0.93923,0.52832c0.34134,0.20219 0.67291,0.39787 0.99468,0.58702c0.3196,0.19132 0.58267,0.36308 0.78922,0.51528l-1.05991,1.38602c-0.1848,-0.1522 -0.43483,-0.33482 -0.75008,-0.54789c-0.31525,-0.2109 -0.64355,-0.42506 -0.9849,-0.64246c-0.34352,-0.21742 -0.6566,-0.41309 -0.93923,-0.58702M235.74329,178.566l0.99468,-1.25558c0.28263,0.1522 0.59572,0.32069 0.93923,0.50549c0.34134,0.1848 0.67182,0.36635 0.99141,0.54463c0.32177,0.18045 0.58593,0.34134 0.79248,0.48266l-1.02729,1.41863c-0.19568,-0.16307 -0.45114,-0.34243 -0.76639,-0.5381c-0.31525,-0.19568 -0.64464,-0.39678 -0.98815,-0.60333c-0.34134,-0.20655 -0.65333,-0.39135 -0.93598,-0.55441M235.98788,186.84954c0.22828,-0.43483 0.47831,-0.94032 0.75008,-1.51648c0.27177,-0.57615 0.54571,-1.19035 0.82183,-1.8426c0.27829,-0.65225 0.53158,-1.29362 0.75987,-1.92413l1.43494,0.96207c-0.21742,0.57615 -0.4457,1.16861 -0.68485,1.77737c-0.23915,0.60877 -0.48592,1.20884 -0.7403,1.80021c-0.25655,0.59354 -0.50984,1.15666 -0.75987,1.68932zM258.93067,182.15336h5.88654v1.25558h-5.88654v-1.25558M257.05545,173.93504h9.71849v1.27188h-9.71849v-1.27188M257.47941,175.97332h8.85425v1.19035h-8.85425v-1.19035M256.54996,177.97898h10.72946v1.27188h-10.72946v-1.27188M258.94697,184.28947h5.90284v1.23927h-5.90284v-1.23927M257.67509,179.98465h7.06057v1.28819h-5.44627v6.73446h-1.61431v-8.02264M264.45846,179.98465h1.66323v6.29419c0,0.39135 -0.04892,0.70116 -0.14676,0.92945c-0.09784,0.22828 -0.28807,0.40222 -0.57072,0.5218c-0.27177,0.11959 -0.60877,0.19241 -1.01099,0.2185c-0.40222,0.02826 -0.88597,0.03696 -1.45125,0.02608c-0.03261,-0.20655 -0.09457,-0.4544 -0.18588,-0.74357c-0.09349,-0.28699 -0.19459,-0.53376 -0.3033,-0.7403c0.35874,0.01087 0.7066,0.01849 1.0436,0.02284c0.33699,0.00653 0.55985,0.00435 0.66855,-0.00653c0.19568,0 0.29351,-0.08697 0.29351,-0.2609v-6.26157M260.98524,172.77732h1.72845v5.62563h-1.72845v-5.62563M253.92466,172.77732h1.598v15.21366h-1.598v-15.21366M252.55495,175.98963l1.23927,0.14676c0,0.4457 -0.02935,0.94032 -0.08805,1.48386c-0.06088,0.54354 -0.13697,1.08381 -0.22828,1.62083c-0.09349,0.53919 -0.20003,1.02076 -0.3196,1.44473l-1.28819,-0.44027c0.11959,-0.38047 0.22612,-0.81858 0.3196,-1.31428c0.09131,-0.49353 0.16958,-0.99903 0.2348,-1.51648c0.06523,-0.51528 0.10871,-0.99033 0.13045,-1.42516M255.35961,175.50045l1.10882,-0.45658c0.17394,0.36961 0.35113,0.77725 0.53158,1.22296c0.17828,0.4457 0.31091,0.81531 0.39787,1.10882l-1.15774,0.55441c-0.0761,-0.30438 -0.20111,-0.68812 -0.37504,-1.15122c-0.17394,-0.46092 -0.34243,-0.88706 -0.50549,-1.2784zM275.84017,179.00627h5.98437v1.58169h-5.98437v-1.58169M277.95997,179.93573c0.33699,0.95663 0.77509,1.86434 1.31428,2.72313c0.53701,0.85879 1.17839,1.61648 1.92413,2.27308c0.74357,0.65877 1.57191,1.17839 2.48506,1.55888c-0.13045,0.10871 -0.27177,0.2522 -0.42396,0.43048c-0.1522,0.18045 -0.29569,0.36308 -0.43048,0.54789c-0.13697,0.1848 -0.24894,0.3533 -0.3359,0.50549c-0.97837,-0.46745 -1.85021,-1.08164 -2.61551,-1.8426c-0.76748,-0.76096 -1.43603,-1.63388 -2.00566,-2.61877c-0.5718,-0.98272 -1.04795,-2.05023 -1.42842,-3.20254l1.51648,-0.37504M281.38428,179.00627h0.32612l0.32612,-0.04892l1.10882,0.34243c-0.21742,1.31537 -0.57832,2.52963 -1.08272,3.64281c-0.50658,1.11534 -1.15339,2.10459 -1.94044,2.96772c-0.78922,0.86532 -1.7328,1.58061 -2.83075,2.14589c-0.13045,-0.20655 -0.30982,-0.43809 -0.5381,-0.69465c-0.22828,-0.25438 -0.4457,-0.4631 -0.65225,-0.62615c0.76096,-0.35874 1.44038,-0.7914 2.03827,-1.29797c0.5979,-0.50441 1.11751,-1.07512 1.55888,-1.71215c0.43918,-0.63485 0.80009,-1.32188 1.08272,-2.0611c0.28263,-0.73921 0.48375,-1.51105 0.60333,-2.31547v-0.34243M280.944,173.34803h1.79368c0,0 -0.00218,0.0837 -0.00653,0.25111c-0.00653,0.16958 -0.01522,0.30873 -0.02608,0.41744c-0.03261,1.1523 -0.09457,2.00566 -0.18588,2.56007c-0.09349,0.55441 -0.23807,0.93489 -0.43374,1.14143c-0.17394,0.19568 -0.37721,0.32829 -0.60985,0.39787c-0.2348,0.07176 -0.49897,0.12393 -0.79248,0.15654c-0.28263,0.01087 -0.65442,0.01631 -1.11534,0.01631c-0.4631,0 -0.95554,-0.01087 -1.47734,-0.03261c-0.01087,-0.21742 -0.05652,-0.46201 -0.13697,-0.73377c-0.08262,-0.27177 -0.18372,-0.50549 -0.3033,-0.70116c0.32612,0.02175 0.6392,0.04022 0.93923,0.05545c0.29786,0.0174 0.5642,0.02826 0.799,0.03261c0.23263,0.00653 0.40875,0.00978 0.52832,0.00978c0.16307,0 0.29351,-0.00869 0.39135,-0.02608c0.09784,-0.01522 0.1848,-0.05545 0.2609,-0.12067c0.0761,-0.08697 0.13589,-0.24786 0.17937,-0.48266c0.04348,-0.23263 0.08153,-0.56963 0.11415,-1.01099c0.03261,-0.43918 0.05979,-1.00121 0.08153,-1.68606v-0.24459M268.27411,181.15868c0.50006,-0.10871 1.06317,-0.23915 1.68932,-0.39135c0.62399,-0.1522 1.28166,-0.31525 1.97305,-0.48918c0.68921,-0.17394 1.37624,-0.3533 2.0611,-0.5381l0.21199,1.69584c-0.94576,0.27177 -1.90239,0.54027 -2.86988,0.80553c-0.96751,0.26742 -1.85347,0.50441 -2.65791,0.71096l-0.40766,-1.79368M268.50238,175.94071h5.5604v1.69584h-5.5604v-1.69584M270.6385,172.77732h1.77737v13.22431c0,0.46745 -0.05652,0.82835 -0.16958,1.08272c-0.11524,0.25655 -0.31416,0.45005 -0.59681,0.5805c-0.28263,0.14132 -0.64464,0.23046 -1.08599,0.26742c-0.43918,0.03914 -0.9849,0.0587 -1.63714,0.0587c-0.03261,-0.22828 -0.10001,-0.50549 -0.20219,-0.83161c-0.10436,-0.32612 -0.21634,-0.60333 -0.3359,-0.83161c0.40222,0.01087 0.78596,0.01631 1.15122,0.01631c0.36308,0 0.60441,0 0.72399,0c0.14132,0 0.23915,-0.02499 0.29351,-0.075c0.05436,-0.04783 0.08153,-0.1424 0.08153,-0.28372v-13.20801M274.6009,173.34803h6.88121v1.63061h-5.15274v12.96342h-1.72845z" fill="#ffffff"/></g></g></svg>