<svg version="1.1" xmlns="http://www.w3.org/2000/svg" xmlns:xlink="http://www.w3.org/1999/xlink" width="208" height="32" viewBox="0,0,208,32"><g transform="translate(-240,-164)"><g stroke-miterlimit="10"><path d="M240,196v-32h208v32z" fill="none" fill-rule="nonzero" stroke="none" stroke-width="0" stroke-linecap="butt"/><path d="M243.30851,173.82352v5.7555h10.15493l-0.23763,6.87751c-0.06337,1.05275 -0.27724,1.79037 -0.64161,2.21285c-0.36437,0.42249 -0.95318,0.63373 -1.76642,0.63373h-1.82187l-0.22179,-1.47524h1.55255c0.42246,0 0.74987,-0.06233 0.98222,-0.187c0.23235,-0.12467 0.3987,-0.3186 0.49903,-0.58178c0.10034,-0.26319 0.16634,-0.63027 0.19803,-1.10123c0.03168,-0.62334 0.06601,-1.44753 0.10298,-2.47258c0.03697,-1.02505 0.06601,-1.84924 0.08713,-2.47258h-10.09156v-8.62286h3.07341l0.20595,-0.66489l0.4119,-1.4129l1.2357,0.187l-0.20595,0.72723c-0.11618,0.44326 -0.22179,0.83112 -0.31685,1.16357h5.4656c-0.09505,2.16091 -0.15314,3.37296 -0.17427,3.63614c-0.05281,0.66489 -0.1505,1.18088 -0.29308,1.54796c-0.14258,0.36708 -0.35909,0.63027 -0.64954,0.78956c-0.29044,0.1593 -0.69442,0.23895 -1.21194,0.23895h-1.36244l-0.22179,-1.32979h1.2357c0.47527,0 0.80268,-0.10043 0.98222,-0.30128c0.17955,-0.20085 0.28516,-0.54369 0.31685,-1.02851l0.07921,-1.0389c0.03168,-0.41556 0.05281,-0.77571 0.06337,-1.08045zM285.76595,183.69306h-7.87364c-0.80268,1.16357 -1.7849,2.36869 -2.94667,3.61537l7.11321,-0.35323l-1.74266,-2.16091l0.77627,-1.01812c0.45415,0.54023 0.88981,1.0666 1.30699,1.57913c0.41718,0.51252 0.7842,0.96271 1.10104,1.35057c1.14065,1.4129 1.61064,1.98776 1.40997,1.72457l-0.8238,1.18434c-0.17955,-0.24934 -0.50695,-0.68567 -0.98222,-1.30901l-9.79056,0.56101l-0.301,-1.47524c1.24626,-1.16357 2.33938,-2.39639 3.27936,-3.69848h-4.54675v-1.4129h2.09119v-10.80454h9.79056v10.80454h2.13871zM301.62412,180.41014v1.4129h-1.63176l-0.09505,3.22059h1.42581v1.43368h-1.45749l-0.01584,0.374c-0.03168,0.63719 -0.11882,1.12894 -0.2614,1.47524c-0.14258,0.3463 -0.36437,0.59217 -0.66538,0.73762c-0.301,0.14545 -0.72083,0.21817 -1.25947,0.21817h-2.36051l-0.23763,-1.45446h2.21793c0.52808,0 0.89509,-0.0935 1.10104,-0.2805c0.20595,-0.187 0.31949,-0.52984 0.34061,-1.02851v-0.04156h-7.11321l0.39606,-4.65426h-1.2357v-1.4129h1.3466l0.34853,-4.13482c-0.31685,0.52638 -0.55976,0.91423 -0.72875,1.16357l-0.80796,-1.12201c0.58089,-0.84497 1.13273,-1.80768 1.65552,-2.88814c0.5228,-1.08045 0.9479,-2.12628 1.27531,-3.13747l1.06144,0.47789c-0.17955,0.54023 -0.3855,1.10123 -0.61785,1.68302h6.93894v1.4129h-7.54095c-0.33797,0.73416 -0.64425,1.34364 -0.91886,1.82846h7.36668l-0.12674,4.7166zM316.53175,183.96317l0.95054,0.39478c-0.06337,0.77571 -0.15314,1.62068 -0.26932,2.53491c-0.11618,0.96964 -0.2878,1.63107 -0.51488,1.9843c-0.22707,0.35323 -0.52544,0.52984 -0.89509,0.52984c-0.67594,0 -1.21986,-0.68567 -1.63176,-2.05702c-0.12674,-0.42941 -0.23235,-0.84497 -0.31685,-1.24668c-0.69706,1.20512 -1.51558,2.33406 -2.45556,3.38681l-0.79212,-1.2259c1.2357,-1.3852 2.20208,-2.71499 2.89915,-3.98937c-0.36965,-2.4795 -0.60201,-5.47846 -0.69706,-8.99686h-4.89528v-1.43368h4.8636c-0.03168,-1.24668 -0.04753,-2.32021 -0.04753,-3.22059l1.09312,-0.02078c0.01056,0.30474 0.0264,1.3852 0.04753,3.24136h1.44165c-0.19011,-0.85882 -0.40134,-1.66916 -0.63369,-2.43102l0.91886,-0.41556c0.29572,1.0666 0.5492,2.01546 0.76043,2.84658h1.04559v1.43368h-3.517c0.04225,2.7704 0.19011,5.20834 0.44359,7.31384c0.59145,-1.39905 1.16177,-3.27599 1.71097,-5.63083l0.98222,0.43634c-0.60201,2.7704 -1.39941,5.18064 -2.39219,7.23073c0.10562,0.62334 0.25348,1.2536 0.44359,1.8908c0.1373,0.42941 0.2614,0.7203 0.37229,0.87267c0.1109,0.15237 0.22971,0.22856 0.35645,0.22856c0.1373,0 0.24292,-0.11428 0.31685,-0.34284c0.07393,-0.22856 0.14786,-0.65451 0.22179,-1.27785zM269.79688,187.76554l-0.69706,1.39212c-1.38356,-1.0666 -2.47932,-2.25441 -3.28728,-3.56342c-0.80796,-1.30901 -1.43901,-2.94701 -1.89316,-4.91399h-1.28323v6.75284l2.67735,-1.57913l0.22179,1.51679l-4.02395,2.24402l-0.53864,-1.37135c0.22179,-0.16622 0.36437,-0.30474 0.42774,-0.41556c0.06337,-0.11082 0.09505,-0.27704 0.09505,-0.49867v-15.70814h7.09736v9.05919h-3.54868c0.31685,1.19127 0.68122,2.19554 1.09312,3.01281c0.80268,-0.7203 1.6476,-1.53757 2.53477,-2.4518l0.66538,1.08045c-0.67594,0.6926 -1.53671,1.51679 -2.5823,2.47258c0.74987,1.16357 1.76378,2.15398 3.04173,2.97125zM259.0241,176.00521v2.16091c0.12674,0.13852 0.60201,0.71338 1.42581,1.72457l0.69706,0.8519l-0.74459,1.12201c-0.28516,-0.38786 -0.74459,-0.98349 -1.37828,-1.78691v9.28775h-1.14065v-9.64098c-0.50695,1.84231 -1.072,3.40759 -1.69513,4.69582l-0.5228,-1.62068c0.36965,-0.76186 0.76043,-1.77998 1.17233,-3.05436c0.4119,-1.27438 0.75515,-2.52106 1.02975,-3.74003h-1.88524v-1.47524h1.90108v-3.98937h1.14065v3.98937h1.85355v1.47524zM307.78679,183.67228l0.17427,1.55835c-0.58089,0.20778 -1.38884,0.50906 -2.42388,0.90384c-1.03503,0.39478 -1.70041,0.66836 -1.99613,0.82073l-0.25348,-1.57913l1.88524,-0.68567v-7.33462h-1.60008v-1.49601h1.60008v-5.04905h1.10896v5.04905h1.42581v1.49601h-1.42581v6.91906zM248.72659,185.68774v-3.1167h1.15649v4.5296h-8.82418v-4.5296h1.15649v3.1167h2.64567v-3.82315h1.2357v3.82315zM282.48659,182.28016v-2.28558h-7.49342v2.28558zM274.99317,176.44155v2.20246h7.49342v-2.20246zM274.99317,175.13253h7.49342v-2.18169h-7.49342zM292.83163,185.04363h5.94087l0.03168,-0.76878c0.04225,-0.94193 0.06865,-1.7592 0.07921,-2.4518h-5.76661zM299.04182,177.10644h-5.51313l-0.28516,3.3037h5.6874c0.07393,-1.89772 0.1109,-2.99895 0.1109,-3.3037zM311.87411,183.29828h-3.61205v-5.85939h3.61205zM288.9661,189.46933l-1.14065,-0.45712l1.53671,-7.14762l1.07728,0.43634c-0.08449,0.38786 -0.53864,2.58339 -1.36244,6.58662zM262.63615,175.50654h4.83191v-2.47258h-4.83191zM267.46806,179.26735v-2.38947h-4.83191v2.38947zM312.00085,184.64884l0.17427,1.49601c-0.59145,0.18008 -1.46542,0.45365 -2.62191,0.82073c-1.15649,0.36708 -1.86147,0.5991 -2.11495,0.69606l-0.25348,-1.51679c0.62313,-0.18008 1.51558,-0.44673 2.67735,-0.79995c1.16177,-0.35323 1.87468,-0.58525 2.13871,-0.69606zM290.85134,178.58168l-0.68122,1.30901c-1.28851,-1.46831 -2.144,-2.41024 -2.56646,-2.8258l0.68122,-1.20512zM291.29492,173.61574l-0.64954,1.2259c-0.77099,-0.83112 -1.6212,-1.71072 -2.55062,-2.6388l0.68122,-1.18434c0.59145,0.58178 1.43109,1.44753 2.51893,2.59725zM247.71268,176.94022l-0.72875,1.14279c-1.18289,-1.23283 -2.02782,-2.08472 -2.53477,-2.55569l0.69706,-1.14279c0.45415,0.42941 1.30963,1.28131 2.56646,2.55569zM309.2126,178.78946v3.15825h1.69513v-3.15825zM297.28332,183.92161l-0.66538,1.08045c-0.23235,-0.27704 -0.55184,-0.62334 -0.95846,-1.0389c-0.40662,-0.41556 -0.76835,-0.77571 -1.0852,-1.08045l0.60201,-1.0389c0.72875,0.6926 1.43109,1.3852 2.10703,2.0778zM294.85945,178.20767l0.60201,-1.05968c0.92942,0.88653 1.60536,1.56527 2.02782,2.03624l-0.63369,1.12201c-0.57032,-0.63719 -1.2357,-1.33672 -1.99613,-2.09857z" fill="#ffffff" fill-rule="evenodd" stroke="#ffffff" stroke-width="0.5" stroke-linecap="round"/></g></g></svg>