<svg version="1.1" xmlns="http://www.w3.org/2000/svg" xmlns:xlink="http://www.w3.org/1999/xlink" width="208" height="32" viewBox="0,0,208,32"><g transform="translate(-240,-164)"><g stroke="none" stroke-miterlimit="10"><path d="M240,196v-32h208v32z" fill="none" stroke-width="0"/><path d="M240.58691,174.52164h17.10911v10.2738h-2.33401v-8.06483h-12.52445v8.16903h-2.25065v-10.378M241.75391,181.50283h14.92098v2.20897h-14.92098v-2.20897M247.90152,170.87475h2.35485v19.44312h-2.35485zM261.50962,173.54219h16.92156v1.97974h-16.92156v-1.97974M262.48907,176.75145h15.08769v1.89638h-15.08769v-1.89638M261.23871,183.1283h17.85933v2.00058h-17.85933v-2.00058M260.63437,179.93987h18.85962v1.9589h-18.85962v-1.9589M268.78256,174.75087h2.29233v6.73111h-2.29233v-6.73111M264.11454,171.54161l1.97974,-0.7919c0.34732,0.37511 0.67381,0.79467 0.97945,1.2587c0.30564,0.4668 0.52793,0.88081 0.66686,1.24203l-2.08394,0.91693c-0.12504,-0.37511 -0.33343,-0.80996 -0.62518,-1.30454c-0.29175,-0.49181 -0.5974,-0.93221 -0.91693,-1.32122M273.53393,170.74972l2.37569,0.62518c-0.34732,0.55572 -0.70854,1.10032 -1.08365,1.63381c-0.37511,0.53627 -0.71548,0.98501 -1.02113,1.34622l-2.00058,-0.60434c0.1945,-0.27786 0.40012,-0.59045 0.61684,-0.93777c0.21395,-0.34732 0.41818,-0.70159 0.61268,-1.06281c0.1945,-0.36121 0.36121,-0.69464 0.50014,-1.00029M268.53248,181.46115h2.35485c-0.09725,0.94472 -0.24313,1.8158 -0.43763,2.61326c-0.1945,0.80023 -0.48903,1.52683 -0.88359,2.1798c-0.39734,0.65297 -0.93916,1.23647 -1.62547,1.75051c-0.68909,0.51404 -1.57268,0.95861 -2.65077,1.33372c-1.07531,0.37511 -2.39097,0.69464 -3.94697,0.95861c-0.04168,-0.20839 -0.12504,-0.43485 -0.25007,-0.67936c-0.12504,-0.24174 -0.26397,-0.48486 -0.41679,-0.72938c-0.15282,-0.24174 -0.30564,-0.44596 -0.45847,-0.61268c1.41708,-0.1945 2.60492,-0.43485 3.56353,-0.72104c0.95861,-0.28342 1.73383,-0.61962 2.32567,-1.00862c0.58906,-0.389 1.04753,-0.83357 1.3754,-1.33372c0.32509,-0.50014 0.55988,-1.06281 0.70437,-1.68799c0.14727,-0.62518 0.26258,-1.31288 0.34593,-2.0631M271.36664,183.81599c0.63907,1.33372 1.65325,2.35763 3.04255,3.07172c1.38929,0.71687 3.18842,1.17256 5.39739,1.36706c-0.15282,0.15282 -0.31537,0.35427 -0.48764,0.60434c-0.17505,0.25007 -0.33899,0.50292 -0.49181,0.75855c-0.15282,0.25841 -0.27786,0.49181 -0.37511,0.7002c-1.59768,-0.22229 -2.98003,-0.58072 -4.14703,-1.07531c-1.167,-0.49181 -2.15618,-1.1545 -2.96752,-1.98807c-0.81412,-0.83357 -1.4921,-1.8547 -2.03392,-3.06339z" fill="#ffffff" stroke-width="1"/></g></g></svg>