<svg version="1.1" xmlns="http://www.w3.org/2000/svg" xmlns:xlink="http://www.w3.org/1999/xlink" width="346" height="38" viewBox="0,0,346,38"><g transform="translate(-114,-161)"><g stroke-miterlimit="10"><g fill="#12151a" stroke="none" stroke-width="1" stroke-linecap="butt"><path d="M124,161h232c5.54,0 10,4.46 10,10v18c0,5.54 -4.46,10 -10,10h-232c-5.54,0 -10,-4.46 -10,-10v-18c0,-5.54 4.46,-10 10,-10z" fill-rule="evenodd"/><g fill-rule="nonzero"><path d="M333.2031,178.08v-1.0391h-5.5098v-1.2578h12.503v1.2578h-5.5371v1.0391h4.792v5.544h-4.8262c-0.00667,0.03193 -0.01,0.06383 -0.01,0.0957c-0.05,0.80207 -0.2551,1.51073 -0.6153,2.126c1.76827,0.61979 3.9626,1.04589 6.583,1.2783l-0.8408,1.333c-2.54753,-0.29623 -4.7487,-0.82033 -6.6035,-1.5723c-0.52867,0.46029 -1.21,0.83172 -2.044,1.1143c-0.7474,0.25521 -1.7158,0.45801 -2.9052,0.6084l-0.7383,-1.2988c1.84113,-0.13672 3.26073,-0.48535 4.2588,-1.0459c-0.9798,-0.48307 -1.8867,-1.04591 -2.7207,-1.6885l1.0049,-0.85449c0.8704,0.67447 1.76133,1.20993 2.6728,1.6064c0.26433,-0.45117 0.43297,-1.01857 0.5059,-1.7022h-4.7578v-5.544zM333.2031,179.1738h-3.3154v1.1006h3.3154zM334.6592,179.1738v1.1006h3.3222v-1.1006zM333.2031,181.3271h-3.3154v1.1895h3.3154zM334.6592,181.3271v1.1895h3.3222v-1.1895z"/><path d="M345.5031,183.79c0.6608,0.36003 1.39223,0.86589 2.1943,1.5176l-0.7793,1.2715c-0.51493,-0.57877 -0.9866,-1.05501 -1.415,-1.4287v3.3496h-1.4014v-3.6504c-0.6152,1.1302 -1.34663,2.07583 -2.1943,2.8369l-0.7998,-1.292c1.01627,-0.72007 1.86163,-1.61557 2.5361,-2.6865h-2.1601v-1.2031h2.6181v-1.333h-2.8847v-1.2578h1.497c-0.11847,-0.57877 -0.2848,-1.20997 -0.499,-1.8936h-0.7314v-1.2715h2.5908v-1.5518h1.4561v1.5518h2.4814v1.2715h-0.7314c-0.16867,0.6836 -0.37833,1.3148 -0.629,1.8936h1.5655v1.2578h-2.7139v1.333h2.4609v1.2031h-2.4609zM343.5754,178.0205c0.17313,0.56966 0.3235,1.20086 0.4511,1.8936h1.3536c0.2096,-0.58789 0.3896,-1.21909 0.54,-1.8936zM350.008,181.3428c0.00667,1.4128 -0.1027,2.72303 -0.3281,3.9307c-0.23247,1.25327 -0.6449,2.37437 -1.2373,3.3633l-1.128,-1.0322c0.50587,-0.82033 0.85223,-1.8275 1.0391,-3.0215c0.16407,-1.0208 0.2461,-2.3242 0.2461,-3.9102v-4.2861c0.09113,-0.00913 0.23013,-0.0228 0.417,-0.041c1.4492,-0.13671 2.9007,-0.44889 4.3545,-0.93652l0.8955,1.1894c-1.21227,0.41016 -2.6296,0.72689 -4.252,0.9502v2.3652h4.5869v1.4287h-1.5654v7.1572h-1.415v-7.1572z"/></g></g><path d="M386,161h64c5.54,0 10,4.46 10,10v18c0,5.54 -4.46,10 -10,10h-64c-5.54,0 -10,-4.46 -10,-10v-18c0,-5.54 4.46,-10 10,-10z" fill="#12151a" fill-rule="evenodd" stroke="none" stroke-width="1" stroke-linecap="butt"/><path d="M340.09114,186.77138l-0.2146,1.07302c-1.82176,-0.10492 -3.28107,-0.2456 -4.37793,-0.42206c-1.09687,-0.17645 -2.06974,-0.45544 -2.91862,-0.83696c-0.4769,0.30522 -1.08495,0.58659 -1.82414,0.84411c-0.73919,0.25753 -1.65722,0.51028 -2.75409,0.75827l-0.4006,-1.00149c0.92518,-0.20984 1.70253,-0.40775 2.33204,-0.59374c0.62951,-0.18599 1.1541,-0.3839 1.57377,-0.59374c-0.68673,-0.43875 -1.35439,-0.98241 -2.00298,-1.631l0.71535,-0.70104c0.77258,0.77258 1.50223,1.34962 2.18897,1.73114c0.26706,-0.24799 0.47213,-0.52936 0.6152,-0.84411c0.14307,-0.31475 0.23845,-0.6915 0.28614,-1.13025h-4.33501v-5.37942h4.39224v-1.31624h-5.47957v-1.00149h12.03217v1.00149h-5.47957v1.31624h4.40655v5.37942h-4.46378c-0.04769,0.52459 -0.14784,0.98241 -0.30045,1.37347c-0.15261,0.39106 -0.36721,0.74396 -0.64381,1.05872c0.72489,0.26706 1.6,0.46975 2.62533,0.60805c1.02533,0.1383 2.3678,0.24083 4.02741,0.3076zM334.43988,182.27899v0.22891h3.36214v-1.34486h-3.36214zM334.43988,180.27601h3.36214v-1.33055h-3.36214zM333.36686,181.16304h-3.33353v1.34486h3.33353v-0.25753zM330.03334,180.27601h3.33353v-1.33055h-3.33353z" fill="#ffffff" fill-rule="evenodd" stroke="#ffffff" stroke-width="0.45" stroke-linecap="round"/><path d="M348.30334,182.23607v0.97287h-2.50372v3.36214c0,0.35291 -0.04292,0.62235 -0.12876,0.80834c-0.08584,0.18599 -0.23607,0.31952 -0.45067,0.4006c-0.2146,0.08107 -0.52697,0.12161 -0.93711,0.12161h-0.84411l-0.2003,-1.0301h0.75827c0.2766,0 0.46975,-0.01908 0.57943,-0.05723c0.10969,-0.03815 0.17884,-0.10492 0.20745,-0.2003c0.02861,-0.09538 0.04292,-0.26706 0.04292,-0.51505v-2.89001h-2.68971v-0.97287h2.68971v-1.54515h-2.96154v-0.94426h1.75976c-0.01908,-0.09538 -0.13353,-0.72966 -0.34337,-1.90283l-0.08584,-0.4006h-0.90134v-0.92995h2.56095l-0.44352,-1.38778l1.0301,-0.17168c0.17168,0.4769 0.32906,0.99672 0.47213,1.55946h2.30342v0.92995h-0.80119c-0.12399,0.61997 -0.30998,1.38778 -0.55797,2.30342h1.68822v0.94426h-2.74694v1.54515zM350.17756,180.03279h4.33501v1.0301h-1.54515v7.01042h-0.98718v-7.01042h-1.80268v0.02861c0,1.2304 -0.04054,2.23427 -0.12161,3.01162c-0.08107,0.77735 -0.22653,1.47362 -0.43636,2.08882c-0.20984,0.6152 -0.51505,1.25663 -0.91565,1.92429l-1.0301,-0.51505c0.4006,-0.60089 0.70343,-1.18986 0.90849,-1.76691c0.20507,-0.57705 0.34814,-1.24232 0.42921,-1.99582c0.08107,-0.7535 0.12161,-1.73591 0.12161,-2.94724v-4.40655c0.83934,-0.0763 1.69061,-0.20745 2.5538,-0.39344c0.86319,-0.18599 1.59523,-0.39344 2.19612,-0.62235l0.32906,1.0158c-0.50551,0.20984 -1.12787,0.40298 -1.86706,0.57943c-0.73919,0.17645 -1.4617,0.30283 -2.16751,0.37913zM343.22437,183.70969l0.84411,0.34337c-0.44829,1.17317 -0.95857,2.1842 -1.53085,3.03308l-0.78688,-0.48644c0.28614,-0.39106 0.54367,-0.82027 0.77258,-1.28763c0.22891,-0.46736 0.46259,-1.00149 0.70104,-1.60238zM346.50066,177.44323h-2.40357c0.22891,1.06825 0.38152,1.83606 0.45782,2.30342h1.35916c0.17168,-0.59136 0.36721,-1.35916 0.58659,-2.30342zM346.20022,184.28197l0.71535,-0.52936c0.35291,0.4769 0.8155,1.13979 1.38778,1.98867l-0.74396,0.57228c-0.50551,-0.79165 -0.95857,-1.46885 -1.35916,-2.03159z" fill="#ffffff" fill-rule="evenodd" stroke="#ffffff" stroke-width="0.45" stroke-linecap="round"/><path d="M418.65691,177.02902l-0.45872,0.94293c-1.4781,-0.50969 -2.74384,-1.12981 -3.7972,-1.86037c-1.08734,0.72206 -2.44227,1.36342 -4.06478,1.92408l-0.45872,-0.91744c1.4781,-0.47571 2.71835,-1.02363 3.72074,-1.64375c-0.95142,-0.8325 -1.71171,-1.83489 -2.28087,-3.00718v-0.9047h6.24371v0.89196c-0.53518,1.18078 -1.3167,2.19592 -2.34458,3.0454c0.91744,0.58614 2.06425,1.09584 3.44041,1.52907zM411.44478,171.15483l-0.72631,-0.72631c0.39926,-0.25485 0.6987,-0.49058 0.89833,-0.7072c0.19963,-0.21662 0.33342,-0.4481 0.40138,-0.69445c0.06796,-0.24635 0.10194,-0.56066 0.10194,-0.94293v-1.13406h4.67641v2.1407c0,0.25485 0.04247,0.42474 0.12742,0.50969c0.08495,0.08495 0.26334,0.12742 0.53518,0.12742h1.13406l-0.14016,0.9047h-1.29971c-0.47571,0 -0.81975,-0.08495 -1.03212,-0.25485c-0.21237,-0.1699 -0.31856,-0.45023 -0.31856,-0.84099v-1.70746h-2.70136v0.64986c0,0.47571 -0.12318,0.94718 -0.36953,1.41439c-0.24635,0.46722 -0.67534,0.88771 -1.28697,1.26148zM408.616,177.81904l-0.91744,-0.40775l1.8986,-4.20495l0.87922,0.42049zM416.42701,172.46729h-4.01382c0.5012,0.96841 1.16379,1.78392 1.98779,2.44652c0.93443,-0.72206 1.60977,-1.53757 2.02602,-2.44652zM410.38717,171.26951l-0.54792,0.85373c-1.10433,-0.8325 -1.91559,-1.43138 -2.43377,-1.79666l0.54792,-0.79002c0.92594,0.62862 1.7372,1.20627 2.43377,1.73295zM411.07525,168.37702l-0.52243,0.82825c-0.79002,-0.63711 -1.58004,-1.2445 -2.37006,-1.82214l0.53518,-0.79002l0.58614,0.43324c1.12132,0.84948 1.71171,1.29971 1.77118,1.35068z" fill="#ffffff" fill-rule="evenodd" stroke="#ffffff" stroke-width="0.45" stroke-linecap="round"/><path d="M430.68733,167.95363v0.9047h-6.80437c-0.24635,0.47571 -0.52668,0.95142 -0.84099,1.42713h6.19274v6.2692c0,0.50969 -0.11043,0.86647 -0.3313,1.07035c-0.22087,0.20388 -0.61163,0.30581 -1.17229,0.30581h-1.72021l-0.15291,-0.89196h1.54181c0.26334,0 0.4566,-0.02124 0.57977,-0.06371c0.12318,-0.04247 0.206,-0.11468 0.24847,-0.21662c0.04247,-0.10194 0.06371,-0.25909 0.06371,-0.47146v-0.73905h-5.74676v2.51023h-0.94293v-5.89967c-0.54367,0.60313 -1.14256,1.18928 -1.79666,1.75843l-0.43324,-0.96841c1.37617,-1.22326 2.51023,-2.58668 3.40219,-4.09027h-3.1346v-0.9047h3.61881c0.28033,-0.58614 0.5012,-1.11283 0.6626,-1.58004l0.98115,0.19113c-0.1699,0.45872 -0.36103,0.92169 -0.5734,1.38891zM428.29178,173.30538h-5.74676v1.41439h5.74676zM422.54502,171.15194v1.3252h5.74676v-1.3252z" fill="#ffffff" fill-rule="evenodd" stroke="#ffffff" stroke-width="0.45" stroke-linecap="round"/><path d="M398.65752,188.6671h-1.04487v1.96231l1.94957,-0.48421l0.02548,0.72631l-3.00718,0.81551l-0.28033,-0.67534c0.18689,-0.07645 0.30581,-0.14016 0.35678,-0.19113c0.05097,-0.05097 0.07645,-0.11893 0.07645,-0.20388v-1.94957h-1.18503c-0.06796,0.57765 -0.19963,1.10221 -0.39501,1.57367c-0.19538,0.47146 -0.47146,0.94505 -0.82825,1.42076l-0.80276,-0.56066c0.46722,-0.60313 0.78577,-1.18078 0.95567,-1.73295c0.1699,-0.55217 0.25485,-1.28697 0.25485,-2.20441v-1.83489h9.62042v0.63711h-8.72846v1.40165c0,0.28882 -0.00425,0.5012 -0.01274,0.63711h8.99604v0.6626h-4.96949c0.47571,0.5012 1.01513,0.89621 1.61827,1.18503c1.08734,-0.4927 1.84763,-0.85798 2.28087,-1.09584l0.38227,0.6626c-0.31431,0.15291 -0.88771,0.41625 -1.72021,0.79002c0.75604,0.21237 1.67349,0.36953 2.75233,0.47146l-0.36953,0.79002c-1.01089,-0.12742 -1.87311,-0.30581 -2.58668,-0.53518c-0.71357,-0.22936 -1.33582,-0.52456 -1.86674,-0.88559c-0.53093,-0.36103 -1.02151,-0.82188 -1.47173,-1.38254zM398.83591,184.93362v-2.3828h-3.77171v1.64375h-0.9047v-2.28087h4.67641v-0.68808h-4.23043v-0.71357h9.41654v0.71357h-4.29415v0.68808h4.72738v2.28087h-0.89196v-1.64375h-3.83542v2.3828zM396.16003,186.67931h7.60714v0.62437h-7.60714zM395.77776,183.71036v-0.5734h2.39555v0.5734zM400.44144,183.71036v-0.5734h2.3828v0.5734zM398.17331,184.19457v0.56066h-2.39555v-0.56066zM400.45418,184.75523v-0.56066h2.3828v0.56066z" fill="#ffffff" fill-rule="evenodd" stroke="#ffffff" stroke-width="0.45" stroke-linecap="round"/><path d="M410.35492,184.29651h-2.01328v1.08309c0,1.05336 -0.04035,1.93045 -0.12105,2.63128c-0.0807,0.70082 -0.206,1.31883 -0.3759,1.854c-0.1699,0.53518 -0.40775,1.12557 -0.71357,1.77118l-0.84099,-0.49695c0.30581,-0.6541 0.53518,-1.23175 0.68808,-1.73295c0.15291,-0.5012 0.26334,-1.07885 0.3313,-1.73295c0.06796,-0.6541 0.10194,-1.51208 0.10194,-2.57394v-3.84817h4.74013c-0.07645,-0.3228 -0.1614,-0.62437 -0.25485,-0.9047c-0.01699,-0.05946 -0.03398,-0.1168 -0.05097,-0.17202c-0.01699,-0.05522 -0.02973,-0.10406 -0.03823,-0.14654l1.07035,-0.12742c0.15291,0.50969 0.28458,0.95992 0.39501,1.35068h4.19221v0.85373h-2.10247v1.38891h2.06425v0.80276h-2.06425v1.8986h-5.00771zM417.57979,190.60393l-0.30581,0.95567c-1.00239,-0.1614 -1.86887,-0.33767 -2.59942,-0.5288c-0.73056,-0.19113 -1.39316,-0.42262 -1.98779,-0.69445c-1.12132,0.4927 -2.54421,0.92594 -4.26866,1.29971l-0.38227,-0.89196c1.46961,-0.25485 2.69287,-0.56066 3.66977,-0.91744c-0.79852,-0.4927 -1.60977,-1.16379 -2.43377,-2.01328v-0.79002h6.90631v0.80276c-0.6541,0.79852 -1.46111,1.46111 -2.42103,1.98779c0.93443,0.3228 2.20866,0.58614 3.82268,0.79002zM414.95488,187.81337h-4.3706c0.6626,0.67959 1.37617,1.20627 2.1407,1.58004c0.89196,-0.42474 1.63526,-0.95142 2.2299,-1.58004zM411.25963,182.10483v1.38891h3.17283v-1.38891zM411.25963,184.29651v1.09584h3.17283v-1.09584zM408.34165,183.49374h2.01328v-1.38891h-2.01328z" fill="#ffffff" fill-rule="evenodd" stroke="#ffffff" stroke-width="0.45" stroke-linecap="round"/><path d="M430.36029,190.7441l-0.54792,0.93019c-0.95992,-0.78153 -1.74994,-1.61827 -2.37006,-2.51023c-0.56066,0.78153 -1.36342,1.62252 -2.40829,2.52297l-0.64986,-0.79002c1.12132,-0.88346 1.96231,-1.75843 2.52297,-2.62491c-0.53518,-1.01089 -0.90895,-2.19167 -1.12132,-3.54235c-0.13592,0.27184 -0.29732,0.56066 -0.48421,0.86647l-0.49695,-0.9047c0.36528,-0.61163 0.71569,-1.35493 1.05124,-2.2299c0.33555,-0.87497 0.57977,-1.69047 0.73268,-2.44652l0.89196,0.16565c-0.11893,0.57765 -0.30157,1.22326 -0.54792,1.93683h3.40219v0.98115h-0.96841c-0.11043,1.13831 -0.27396,2.12371 -0.49058,2.95621c-0.21662,0.8325 -0.51606,1.58854 -0.89833,2.26812c0.59464,0.86647 1.38891,1.67349 2.3828,2.42103zM419.41468,186.20785l-0.38227,-0.77728c0.55217,-0.29732 1.03637,-0.59464 1.45262,-0.89196c0.41625,-0.29732 0.78153,-0.62012 1.09584,-0.96841h-2.34458v-0.80276h2.54845v-2.67588h0.86647v2.67588h2.48474v0.80276h-2.48474v0.25485c0.31431,0.1614 0.68808,0.36528 1.12132,0.61163c0.43324,0.24635 0.81551,0.47996 1.1468,0.70082l-0.40775,0.75179c-0.50969,-0.39076 -1.12981,-0.80701 -1.86037,-1.24874v1.19777h-0.86647v-1.43988c-0.56915,0.62012 -1.35918,1.22326 -2.37006,1.8094zM424.60078,190.2344l-0.38227,0.84099l-0.53518,-0.29307l-1.07035,-0.5734c-0.76454,0.53518 -1.83064,1.01938 -3.19831,1.45262l-0.39501,-0.81551c1.21476,-0.38227 2.12796,-0.73905 2.73959,-1.07035c-0.79852,-0.39926 -1.43563,-0.70507 -1.91134,-0.91744c0.24635,-0.38227 0.47146,-0.78153 0.67534,-1.19777h-1.36342v-0.77728h1.73295c0.15291,-0.34829 0.28033,-0.66685 0.38227,-0.95567l0.86647,0.22936c-0.11893,0.3228 -0.21237,0.56491 -0.28033,0.72631h2.79056v0.73905c-0.1699,0.41625 -0.35678,0.78365 -0.56066,1.10221c-0.20388,0.31856 -0.44598,0.61375 -0.72631,0.88559zM428.47444,183.09873h-1.92408l-0.12742,0.30581c0.15291,1.58004 0.48845,2.89674 1.00664,3.9501c0.27184,-0.56915 0.49058,-1.19777 0.65623,-1.88586c0.16565,-0.68808 0.2952,-1.4781 0.38864,-2.37006zM423.70883,187.66047h-2.20441c-0.11893,0.25485 -0.26759,0.54792 -0.44598,0.87922c0.51819,0.22087 1.01938,0.45023 1.50359,0.68808c0.26334,-0.21237 0.48633,-0.44598 0.66897,-0.70082c0.18264,-0.25485 0.34192,-0.54367 0.47784,-0.86647zM424.34594,180.38463l0.63711,0.43324c-0.37377,0.57765 -0.78153,1.1553 -1.22326,1.73295l-0.62437,-0.44598c0.18689,-0.23786 0.39926,-0.52668 0.63711,-0.86647c0.23786,-0.33979 0.42899,-0.62437 0.5734,-0.85373zM421.23682,182.07935l-0.63711,0.40775c-0.29732,-0.4927 -0.67109,-1.05761 -1.12132,-1.69472l0.58614,-0.40775c0.17839,0.23786 0.44173,0.61588 0.79002,1.13406z" fill="#ffffff" fill-rule="evenodd" stroke="#ffffff" stroke-width="0.45" stroke-linecap="round"/><path d="M443.06434,185.21395v0.84099h-2.72685v1.41439h2.03876v4.17947h-0.87922v-0.6626h-3.21105v0.67534h-0.87922v-4.19221h2.03876v-1.41439h-2.53571c-0.05946,1.20627 -0.20388,2.21503 -0.43324,3.02629c-0.22936,0.81126 -0.60313,1.63313 -1.12132,2.46563l-0.84099,-0.48421c0.40775,-0.6626 0.71781,-1.28697 0.93019,-1.87311c0.21237,-0.58614 0.36315,-1.25087 0.45235,-1.99417c0.0892,-0.7433 0.13379,-1.68835 0.13379,-2.83516v-3.64429h6.56227v3.16008h-2.25538v1.33794zM435.38075,185.3796l0.07645,0.44598c-0.4927,0.20388 -0.88346,0.37377 -1.17229,0.50969v3.7972c0,0.34829 -0.04247,0.61375 -0.12742,0.79639c-0.08495,0.18264 -0.22936,0.31006 -0.43324,0.38227c-0.20388,0.07221 -0.50544,0.10831 -0.9047,0.10831h-0.85373l-0.14016,-0.87922h0.76454c0.22936,0 0.39926,-0.01699 0.50969,-0.05097c0.11043,-0.03398 0.18476,-0.09981 0.22299,-0.19751c0.03823,-0.09769 0.05734,-0.24847 0.05734,-0.45235v-3.09637l-1.35068,0.61163l-0.20388,-0.96841l1.55456,-0.6626v-2.37006h-1.4781v-0.93019h1.4781v-2.33184h0.9047v2.33184h1.10858v0.93019h-1.10858v1.97505l1.00664,-0.44598zM436.9353,183.04776h4.72738v-1.49085h-4.72738zM438.28599,188.31032v1.87311h3.21105v-1.87311zM436.9353,184.4749v0.73905h2.51023v-1.33794h-2.51023z" fill="#ffffff" fill-rule="evenodd" stroke="#ffffff" stroke-width="0.45" stroke-linecap="round"/></g></g></svg>