<svg version="1.1" xmlns="http://www.w3.org/2000/svg" xmlns:xlink="http://www.w3.org/1999/xlink" width="208.85617" height="32" viewBox="0,0,208.85617,32"><g transform="translate(-239.14383,-164)"><g stroke-miterlimit="10"><path d="M240,196v-32h208v32z" fill="none" fill-rule="nonzero" stroke="none" stroke-width="0" stroke-linecap="butt"/><path d="M321.66264,172.66v1.52562h-6.69751v2.14876h5.68783v10.9587c0,0.65895 -0.0589,1.16391 -0.17669,1.51488c-0.1178,0.35097 -0.30851,0.59449 -0.57215,0.73058c-0.26364,0.13609 -0.64226,0.20413 -1.13588,0.20413h-2.06983l-0.23559,-1.50414h1.83424c0.32534,0 0.56093,-0.03223 0.70677,-0.09669c0.14584,-0.06446 0.244,-0.18623 0.29449,-0.36529c0.05048,-0.17906 0.07573,-0.46198 0.07573,-0.84876v-9.11076h-10.19771v11.94713h-1.22844v-13.42978h5.72149v-2.14876h-6.76482v-1.52562h6.76482v-2.34215h1.29575v2.34215zM338.40641,175.06661h-8.9861l-0.1178,2.85786l-0.03366,0.66612h7.25283c-0.04487,0.93113 -0.10658,2.1989 -0.18511,3.80331c-0.07853,1.60441 -0.14584,2.87218 -0.20193,3.80331c-0.05609,0.85951 -0.1823,1.51488 -0.37863,1.96612c-0.19633,0.45124 -0.49362,0.76997 -0.89188,0.9562c-0.39826,0.18623 -0.95639,0.27934 -1.67438,0.27934h-2.65881l-0.26925,-1.61157h2.45687c0.56093,0 0.98443,-0.06088 1.27051,-0.18265c0.28607,-0.12176 0.49362,-0.33664 0.62263,-0.64463c0.12901,-0.30799 0.21596,-0.76281 0.26083,-1.36447l0.26925,-5.37191h-5.99073c-0.13462,1.43251 -0.359,2.6967 -0.67312,3.79257c-0.31412,1.09587 -0.76567,2.13802 -1.35465,3.12645c-0.58898,0.98843 -1.36586,2.00551 -2.33067,3.05125l-0.99285,-1.37521c1.05455,-1.11736 1.86509,-2.17742 2.43163,-3.18017c0.56654,-1.00276 0.98163,-2.10937 1.24527,-3.31984c0.26364,-1.21047 0.44033,-2.74684 0.53008,-4.6091l0.1178,-2.64298h-4.12284v-1.63306h6.96675l-0.90871,-2.72893l1.37989,-0.45124c0.16828,0.44408 0.52727,1.50414 1.07699,3.18017h5.88977zM281.39346,186.84185h4.3416v-12.76366h1.26209v15.79342h-1.26209v-1.35372h-11.29153v-14.4397h1.29575v12.76366h4.3416v-16.20169h1.31258zM304.98618,183.98399h-8.36347c-0.85261,1.20331 -1.89594,2.44959 -3.12999,3.73885l7.55573,-0.36529l-1.85107,-2.23472l0.82457,-1.05289c0.4824,0.55868 0.94517,1.10303 1.3883,1.63306c0.44314,0.53003 0.83298,0.99559 1.16954,1.3967c1.21161,1.46116 1.71084,2.05565 1.49768,1.78347l-0.87505,1.2248c-0.19072,-0.25785 -0.53849,-0.70909 -1.04333,-1.35372l-10.39965,0.58017l-0.31973,-1.52562c1.3238,-1.20331 2.48492,-2.47824 3.48338,-3.8248h-4.82961v-1.46116h2.22128v-11.17358h10.39965v11.17358h2.27177zM355.48673,180.58894v1.46116h-1.73327l-0.10097,3.33059h1.51451v1.48265h-1.54817l-0.01683,0.38678c-0.03366,0.65895 -0.12621,1.1675 -0.27766,1.52562c-0.15145,0.35813 -0.38704,0.6124 -0.70677,0.76281c-0.31973,0.15041 -0.76567,0.22562 -1.33782,0.22562h-2.50736l-0.25242,-1.50414h2.35591c0.56093,0 0.95078,-0.09669 1.16954,-0.29008c0.21876,-0.19339 0.33936,-0.54794 0.3618,-1.06364v-0.04298h-7.55573l0.4207,-4.81323h-1.31258v-1.46116h1.43037l0.37021,-4.27604c-0.33656,0.54435 -0.59459,0.94546 -0.77408,1.20331l-0.85822,-1.16033c0.61702,-0.87383 1.2032,-1.86943 1.75852,-2.98678c0.55532,-1.11736 1.00687,-2.1989 1.35465,-3.24463l1.12747,0.49422c-0.19072,0.55868 -0.40948,1.13885 -0.65629,1.7405h7.37062v1.46116h-8.01008c-0.359,0.75923 -0.68433,1.38953 -0.97602,1.89091h7.82498l-0.13462,4.8777zM371.32179,184.26333l1.00967,0.40827c-0.06731,0.80221 -0.16267,1.67604 -0.28607,2.62149c-0.1234,1.00276 -0.30571,1.68678 -0.54691,2.05207c-0.2412,0.36529 -0.55813,0.54794 -0.95078,0.54794c-0.71799,0 -1.29575,-0.70909 -1.73327,-2.12728c-0.13462,-0.44408 -0.24681,-0.87383 -0.33656,-1.28926c-0.74043,1.24628 -1.60987,2.41378 -2.60833,3.50249l-0.8414,-1.26777c1.31258,-1.43251 2.33908,-2.80772 3.07951,-4.12563c-0.39265,-2.56419 -0.63946,-5.66558 -0.74043,-9.30415h-5.19982v-1.48265h5.16617c-0.03366,-1.28926 -0.05048,-2.39945 -0.05048,-3.33059l1.16113,-0.02149c0.01122,0.31515 0.02805,1.43251 0.05048,3.35207h1.53134c-0.20193,-0.88816 -0.42631,-1.72617 -0.67312,-2.51405l0.97602,-0.42975c0.31412,1.10303 0.58337,2.0843 0.80774,2.94381h1.11064v1.48265h-3.7358c0.04487,2.86502 0.20193,5.38624 0.47118,7.56365c0.62824,-1.44684 1.23405,-3.38789 1.81741,-5.82315l1.04333,0.45124c-0.63946,2.86502 -1.48647,5.35759 -2.54101,7.4777c0.11219,0.64463 0.26925,1.29642 0.47118,1.95538c0.14584,0.44408 0.27766,0.7449 0.39546,0.90248c0.1178,0.15758 0.244,0.23636 0.37863,0.23636c0.14584,0 0.25803,-0.11818 0.33656,-0.35455c0.07853,-0.23636 0.15706,-0.67686 0.23559,-1.32149zM246.61017,177.98893h-2.79343v1.82645c0.42631,0.38678 0.92553,0.87383 1.49768,1.46116c0.57215,0.58733 1.01528,1.06722 1.3294,1.43967l-0.57215,1.3967l-1.51451,-1.67604l-0.74043,-0.81653v8.42316h-1.22844v-9.08927c-0.7853,2.12011 -1.6267,3.86778 -2.52419,5.24299l-0.63946,-1.61157c0.59459,-0.88816 1.15832,-1.90882 1.6912,-3.06199c0.53288,-1.15317 0.99565,-2.33141 1.3883,-3.53472h-2.69247v-1.61157h2.7766v-2.9653c-0.77408,0.18623 -1.63231,0.35813 -2.57467,0.5157l-0.1178,-1.52562c0.99846,-0.18623 2.08386,-0.42259 3.2562,-0.70909c1.17234,-0.2865 2.168,-0.573 2.98695,-0.85951l0.23559,1.5686c-0.59459,0.20055 -1.4472,0.43692 -2.55784,0.70909v3.26612h2.79343zM318.70093,184.26333v1.28926h-3.75262v3.80331h-1.26209v-3.80331h-3.85359v-1.28926h3.85359v-1.97686h-3.48338v-1.28926h2.2886c-0.52727,-0.90248 -0.97602,-1.6259 -1.34623,-2.17025l0.95919,-0.6876c-0.03366,-0.0573 0.19633,0.30799 0.68994,1.09587l0.79091,1.26777l-0.70677,0.49422h1.90155c0.56093,-0.93113 1.07138,-1.89091 1.53134,-2.87934l1.07699,0.66612c-0.22437,0.47273 -0.63946,1.21047 -1.24527,2.21323h2.18763v1.28926h-3.38241v1.97686zM248.69683,189.42036h-1.22844v-16.8678h6.14219v16.71739h-1.24527v-1.59009h-3.66848zM362.03279,183.9625l0.18511,1.61157c-0.61702,0.21488 -1.47525,0.52645 -2.57467,0.93471c-1.09942,0.40827 -1.8062,0.69119 -2.12032,0.84876l-0.26925,-1.63306l2.00252,-0.70909v-7.58514h-1.69962v-1.54711h1.69962v-5.2215h1.17795v5.2215h1.51451v1.54711h-1.51451v7.15539zM271.43133,188.64681l-0.79091,1.31075c-1.40233,-1.84794 -2.38956,-4.01819 -2.96171,-6.51076c-0.28046,1.26061 -0.68433,2.43169 -1.21161,3.51323c-0.52727,1.08155 -1.206,2.1237 -2.03618,3.12645l-0.79091,-1.20331c1.23405,-1.44684 2.1091,-2.96171 2.62515,-4.54464c0.51606,-1.58292 0.7853,-3.49174 0.80774,-5.72646l0.01683,-2.32067h1.07699l-0.01683,2.19174c0,0.27218 -0.01122,0.65179 -0.03366,1.13885c0.11219,1.89091 0.43753,3.56337 0.97602,5.01737c0.53849,1.454 1.31819,2.78981 2.33908,4.00745zM265.18818,181.06167h-1.43037v6.29588c0,0.6303 -0.0589,1.11378 -0.17669,1.45042c-0.1178,0.33664 -0.31973,0.57659 -0.6058,0.71984c-0.28607,0.14325 -0.70397,0.21488 -1.25368,0.21488h-1.46403l-0.21876,-1.46116h1.43037c0.33656,0 0.58056,-0.03581 0.73201,-0.10744c0.15145,-0.07163 0.25522,-0.20055 0.31132,-0.38678c0.05609,-0.18623 0.08414,-0.47989 0.08414,-0.88099v-5.84464h-6.15901v-1.33223h8.75051zM265.25549,179.0848l-0.87505,-1.00992c1.06577,-2.37797 1.86229,-5.00662 2.38956,-7.88597l1.16113,0.32231c-0.16828,0.90248 -0.39826,1.9124 -0.68994,3.02976h3.93773v1.43967l-1.09381,3.86778l-1.09381,-0.45124l1.0265,-3.43802h-3.1973c-0.4824,1.60441 -1.00406,2.97962 -1.565,4.12563zM263.74098,172.87487v6.05952h-1.16113v-6.05952h-5.9066v-1.43967h8.29616v1.43967zM252.36532,174.2286h-3.66848v11.73226h3.66848zM301.5028,182.52283v-2.36364h-7.9596v2.36364zM293.5432,176.4848v2.27769h7.9596v-2.27769zM293.5432,175.13108h7.9596v-2.2562h-7.9596zM346.14724,185.38069h6.31047l0.03366,-0.79504c0.04487,-0.97411 0.07292,-1.81929 0.08414,-2.53554h-6.12536zM352.74378,177.1724h-5.85611l-0.3029,3.41654h6.04122c0.07853,-1.96254 0.1178,-3.10138 0.1178,-3.41654zM366.37439,183.57572h-3.83676v-6.05952h3.83676zM257.26224,187.12118v-4.42646h4.02187v4.42646zM342.04123,189.95755l-1.21161,-0.47273l1.63231,-7.39175l1.1443,0.45124c-0.08975,0.4011 -0.57215,2.67163 -1.4472,6.81158zM257.34638,174.35752h3.97139v3.86778h-3.97139zM366.50901,184.97242l0.18511,1.54711c-0.62824,0.18623 -1.55658,0.46915 -2.78502,0.84876c-1.22844,0.37961 -1.97728,0.61956 -2.24653,0.71984l-0.26925,-1.5686c0.6619,-0.18623 1.60987,-0.46198 2.84392,-0.82727c1.23405,-0.36529 1.9913,-0.60524 2.27177,-0.71984zM344.04375,178.69803l-0.7236,1.35372c-1.36867,-1.51846 -2.27738,-2.49257 -2.72612,-2.92232l0.7236,-1.24628zM344.51494,173.56248l-0.68994,1.26777c-0.81896,-0.85951 -1.72206,-1.76915 -2.70929,-2.72893l0.7236,-1.2248c0.62824,0.60165 1.52012,1.49697 2.67564,2.68596zM363.5473,178.9129v3.26612h1.80059v-3.26612zM350.87588,184.22035l-0.70677,1.11736c-0.24681,-0.2865 -0.58617,-0.64463 -1.01809,-1.07438c-0.43192,-0.42975 -0.81615,-0.80221 -1.15271,-1.11736l0.63946,-1.07438c0.77408,0.71626 1.52012,1.43251 2.23811,2.14876zM348.30121,178.31125l0.63946,-1.09587c0.98724,0.91681 1.70523,1.61874 2.15397,2.10579l-0.67312,1.16033c-0.6058,-0.65895 -1.31258,-1.38237 -2.12032,-2.17025zM258.27191,183.81209v2.19174h2.00252v-2.19174zM260.30809,177.08645v-1.5686h-1.96887v1.5686z" fill="#ffffff" fill-rule="evenodd" stroke="#ffffff" stroke-width="0.5" stroke-linecap="round"/></g></g></svg>