<svg version="1.1" xmlns="http://www.w3.org/2000/svg" xmlns:xlink="http://www.w3.org/1999/xlink" width="208" height="32" viewBox="0,0,208,32"><g transform="translate(-240,-164)"><g stroke-miterlimit="10"><path d="M240,196v-32h208v32z" fill="none" fill-rule="nonzero" stroke="none" stroke-width="0" stroke-linecap="butt"/><path d="M270.08,171.22v8.9551h-3.4766v1.9238h3.5547v1.7578h-3.5547v2.1582c0.13021,-0.01953 0.30599,-0.04557 0.52735,-0.0781c0.931,-0.13672 2.0931,-0.33529 3.4863,-0.5957l0.12696,1.7383c-3.08593,0.69013 -6.3737,1.25003 -9.8633,1.6797l-0.59571,-1.9824c1.49087,-0.13671 2.90037,-0.29296 4.2285,-0.46875l0.10742,-0.0195v-2.4316h-3.7793v-1.7578h3.7793v-1.9238h-3.4375v-8.9551zM262.8827,172.8802v1.9727h1.8262v-1.9727zM262.8827,176.4544v2.0605h1.8262v-2.0605zM268.4003,178.5149v-2.0605h-1.875v2.0605zM268.4003,174.8528v-1.9727h-1.875v1.9727zM276.0565,176.1419c0.20833,0.1888 0.51758,0.48177 0.92773,0.8789l-0.91797,0.82032h2.8418l0.83984,0.8789c-0.65104,2.10287 -1.25651,3.7565 -1.8164,4.9609l-1.8848,-0.60547c0.53385,-1.0156 0.99935,-2.1484 1.3965,-3.3984h-1.875v8.1152c0,0.57943 -0.10742,0.99936 -0.32227,1.2598c-0.25391,0.29948 -0.76497,0.44922 -1.5332,0.44922c-0.83333,0 -1.63413,-0.05534 -2.4024,-0.16601l-0.32226,-1.9629c1.0156,0.12369 1.7122,0.18554 2.0898,0.18554c0.18229,0 0.29948,-0.04232 0.35156,-0.12695c0.03907,-0.07813 0.0586,-0.20182 0.0586,-0.37109v-7.3828h-2.7637v-1.8359h4.3555c-1.0482,-1.0742 -2.20707,-2.06053 -3.4766,-2.959l1.3477,-1.2012c0.53385,0.37109 1.14582,0.83009 1.8359,1.377c0.57291,-0.59895 1.11978,-1.29232 1.6406,-2.0801h-5.3418v-1.7578h7.2461l0.95703,1.0547c-1.05467,1.51693 -2.13213,2.806 -3.2324,3.8672z" fill="#ffffff" fill-rule="nonzero" stroke="none" stroke-width="1" stroke-linecap="butt"/><path d="M305.84,184.3c-1.79687,0.944 -3.36263,1.66667 -4.6973,2.168l-0.82031,-2.1484c2.08987,-0.70313 3.92907,-1.4323 5.5176,-2.1875v-4.375h-4.834v-2.0606h4.834v-5.1953h2.1777v19.004h-2.1777zM312.7834,176.6926c1.51693,-0.79427 2.9883,-1.80337 4.4141,-3.0273l1.6211,1.6992c-1.92707,1.3672 -3.9388,2.53257 -6.0352,3.4961v7.3242c0,0.31901 0.10417,0.51433 0.3125,0.58594c0.22135,0.07161 0.73242,0.10742 1.5332,0.10742c1.05467,0 1.71547,-0.06185 1.9824,-0.18555c0.1888,-0.08463 0.31901,-0.3483 0.39062,-0.79101c0.09766,-0.61849 0.16928,-1.61783 0.21485,-2.998l2.1875,0.67383c-0.06513,1.6862 -0.1693,2.89713 -0.3125,3.6328c-0.16276,0.82033 -0.58919,1.35093 -1.2793,1.5918c-0.65755,0.22135 -1.73502,0.33203 -3.2324,0.33203c-1.7578,0 -2.86457,-0.14648 -3.3203,-0.43945c-0.4362,-0.28646 -0.6543,-0.83659 -0.6543,-1.6504v-16.543h2.1777z" fill="#ffffff" fill-rule="nonzero" stroke="none" stroke-width="1" stroke-linecap="butt"/><path d="M326.98,172.75h4.1797v1.8848h-1.377c-0.2474,0.99607 -0.57943,2.041 -0.9961,3.1348h2.6074v1.8848h-10.898v-1.8848h2.3926c-0.26041,-1.25 -0.53385,-2.29493 -0.82031,-3.1348h-1.2695v-1.8848h4.1406v-2.2559h2.041zM324.0406,174.6348c0.33203,0.97007 0.58919,2.015 0.77148,3.1348h1.9922l0.09766,-0.27344c0.27995,-0.7422 0.54036,-1.5853 0.78125,-2.5293l0.0879,-0.33203zM330.0953,181.295v7.998h-2.002v-0.95703h-4.2578v1.1621h-2.0606v-8.2031zM323.8355,183.0919v3.3887h4.2578v-3.3887zM336.8825,178.1603c0.77473,0.73567 1.38997,1.61133 1.8457,2.627c0.44922,1.0156 0.67383,2.04423 0.67383,3.0859c0,0.96353 -0.17904,1.67317 -0.53711,2.1289c-0.37109,0.47526 -0.98306,0.71289 -1.8359,0.71289c-0.7292,0 -1.43557,-0.05208 -2.1191,-0.15625l-0.47852,-2.0801c0.78773,0.14323 1.43877,0.21485 1.9531,0.21485c0.39063,0 0.63477,-0.09115 0.73242,-0.27344c0.06513,-0.13021 0.0977,-0.39062 0.0977,-0.78125c0,-1.60807 -0.48177,-2.9948 -1.4453,-4.1602c-0.25391,-0.30599 -0.57292,-0.63476 -0.95703,-0.98633l0.11719,-0.27343c0.67707,-1.52993 1.2044,-3.125 1.582,-4.7852h-2.5v16.064h-2.0215v-18.086h5.8789l1.084,0.99609c-0.65755,2.2396 -1.34765,4.15693 -2.0703,5.752z" fill="#ffffff" fill-rule="nonzero" stroke="none" stroke-width="1" stroke-linecap="butt"/><text transform="translate(240.52863,186.35211) scale(0.47635,0.47635)" font-size="40" xml:space="preserve" fill="#ffffff" fill-rule="nonzero" stroke="#ffffff" stroke-width="0.8" stroke-linecap="butt" font-family="&quot;Microsoft YaHei&quot;, &quot;微软雅黑&quot;, STXihei, &quot;华文细黑&quot;" font-weight="normal" text-anchor="start"><tspan x="0" dy="0">长</tspan></text><path d="M298.69399,183.47997h-9.7624c-0.99523,1.16216 -2.21307,2.36582 -3.65354,3.61098l8.81956,-0.3528l-2.1607,-2.15829l0.96249,-1.01689c0.56309,0.53957 1.10326,1.06531 1.62052,1.57721c0.51726,0.5119 0.97231,0.96155 1.36516,1.34893c1.41428,1.41119 1.997,1.98535 1.74819,1.72248l-1.02142,1.18291c-0.22262,-0.24903 -0.62857,-0.68484 -1.21784,-1.30742l-12.13916,0.56032l-0.3732,-1.47345c1.54522,-1.16216 2.90057,-2.39349 4.06603,-3.69399h-5.63744v-1.41119h2.59283v-10.79144h12.13916v10.79144h2.65176zM294.62796,182.06878v-2.28281h-9.29098v2.28281zM285.33699,176.23725v2.19979h9.29098v-2.19979zM285.33699,174.92982h9.29098v-2.17904h-9.29098z" fill="#ffffff" fill-rule="evenodd" stroke="#ffffff" stroke-width="0.5" stroke-linecap="round"/></g></g></svg>