<svg version="1.1" xmlns="http://www.w3.org/2000/svg" xmlns:xlink="http://www.w3.org/1999/xlink" width="180" height="40" viewBox="0,0,180,40"><g transform="translate(-150,-160)"><g stroke-linecap="round" stroke-miterlimit="10"><path d="M150,160h180v40h-180z" fill-opacity="0" fill="#ffffff" fill-rule="nonzero" stroke="none" stroke-width="0.2" stroke-linejoin="round"/><path d="M177.37219,178.59749h5.10448v1.09898h-1.85092v7.12892h-1.07006v-7.12892h-2.1835c-0.01928,1.18574 -0.08917,2.17386 -0.20967,2.96436c-0.1205,0.7905 -0.31572,1.51833 -0.58564,2.1835c-0.26993,0.66517 -0.66035,1.39783 -1.17128,2.19796l-0.86762,-0.78086c0.50129,-0.76158 0.87726,-1.44121 1.1279,-2.0389c0.25065,-0.59769 0.4314,-1.28215 0.54226,-2.05336c0.11086,-0.77122 0.16629,-1.77862 0.16629,-3.0222v-4.29471c0.9351,-0.0964 1.86538,-0.241 2.79084,-0.43381c0.92546,-0.1928 1.74006,-0.41453 2.44379,-0.66517l0.31813,1.11344c-0.65553,0.22172 -1.38819,0.42417 -2.19796,0.60733c-0.80978,0.18316 -1.59545,0.31813 -2.35703,0.40489zM174.98624,177.57081v4.78636h-3.10896c-0.05784,1.00258 -0.17352,1.822 -0.34705,2.45825c-0.17352,0.63625 -0.46755,1.36409 -0.88208,2.1835l-0.99776,-0.56395c0.37597,-0.73265 0.65071,-1.37614 0.82424,-1.93045c0.17352,-0.55431 0.29162,-1.2002 0.35428,-1.93768c0.06266,-0.73747 0.09399,-1.78585 0.09399,-3.14511v-4.75744c1.70631,-0.16388 3.23428,-0.45309 4.58391,-0.86762l0.23136,1.1279c-1.07006,0.31813 -2.33775,0.57841 -3.80306,0.78086v1.86538zM173.95956,181.27264v-2.61731h-2.02444v0.79532c0,0.85798 -0.00482,1.46531 -0.01446,1.822z" fill="#ffffff" fill-rule="evenodd" stroke="#ffffff" stroke-width="0.45" stroke-linejoin="miter"/><path d="M196.9948,175.25716v1.02668h-7.72179c-0.27957,0.53985 -0.59769,1.0797 -0.95438,1.61955h7.0277v7.11446c0,0.57841 -0.12532,0.9833 -0.37597,1.21466c-0.25065,0.23136 -0.69409,0.34705 -1.33035,0.34705h-1.95214l-0.17352,-1.01222h1.7497c0.29885,0 0.51816,-0.0241 0.65794,-0.0723c0.13978,-0.0482 0.23377,-0.13014 0.28198,-0.24582c0.0482,-0.11568 0.0723,-0.29403 0.0723,-0.53503v-0.8387h-6.52159v2.84868h-1.07006v-6.69511c-0.61697,0.68445 -1.29661,1.34963 -2.0389,1.99552l-0.49165,-1.09898c1.56171,-1.38819 2.84868,-2.93544 3.8609,-4.64175h-3.55723v-1.02668h4.10672c0.31813,-0.66517 0.56877,-1.26287 0.75194,-1.79308l1.11344,0.2169c-0.1928,0.52057 -0.40971,1.04596 -0.65071,1.57617zM194.27626,181.33048h-6.52159v1.60509h6.52159zM187.75467,178.88669v1.50387h6.52159v-1.50387z" fill="#ffffff" fill-rule="evenodd" stroke="#ffffff" stroke-width="0.45" stroke-linejoin="miter"/></g></g></svg>