<svg version="1.1" xmlns="http://www.w3.org/2000/svg" xmlns:xlink="http://www.w3.org/1999/xlink" width="208" height="32" viewBox="0,0,208,32"><g transform="translate(-240,-164)"><g stroke="none" stroke-miterlimit="10"><path d="M240.85459,175.64879h5.93088v2.19619h-5.93088v-2.19619M250.71267,171.05116h2.24412v14.9218c0,0.56102 0.05343,0.91679 0.16029,1.06731c0.10686,0.15052 0.35398,0.22578 0.74136,0.22578c0.08015,0 0.22708,0 0.44081,0c0.21373,0 0.44749,0 0.70129,0c0.2538,0 0.48756,0 0.70129,0c0.21373,0 0.37402,0 0.48088,0c0.26716,0 0.47153,-0.11631 0.61312,-0.34893c0.13892,-0.23262 0.24178,-0.65407 0.30857,-1.26435c0.06679,-0.60754 0.12022,-1.4655 0.16029,-2.57386c0.18701,0.13684 0.40074,0.27367 0.64118,0.4105c0.24044,0.13684 0.48756,0.25588 0.74136,0.35714c0.2538,0.10399 0.48088,0.18336 0.68125,0.23809c-0.06679,1.28624 -0.19369,2.32208 -0.3807,3.10751c-0.18701,0.78817 -0.47821,1.36014 -0.8736,1.7159c-0.39272,0.35577 -0.95642,0.53365 -1.6911,0.53365c-0.10686,0 -0.29387,0 -0.56103,0c-0.26716,0 -0.55702,0 -0.8696,0c-0.31524,0 -0.59977,0 -0.85357,0c-0.2538,0 -0.44081,0 -0.56103,0c-0.72132,0 -1.28502,-0.10673 -1.6911,-0.32019c-0.40875,-0.21073 -0.69995,-0.56923 -0.8736,-1.07552c-0.17365,-0.50629 -0.26048,-1.21098 -0.26048,-2.11409v-14.88075M245.72352,171.03063h2.24412v18.61633h-2.24412v-18.61633M257.3248,174.12993l1.54283,1.97042c-0.66789,0.47892 -1.38254,0.95784 -2.14393,1.43676c-0.7614,0.47892 -1.53882,0.94416 -2.33228,1.39571c-0.79613,0.45155 -1.57489,0.87574 -2.33629,1.27256c-0.08015,-0.2463 -0.20705,-0.53776 -0.3807,-0.87437c-0.17365,-0.33388 -0.34062,-0.61712 -0.50092,-0.84974c0.73468,-0.39682 1.47337,-0.84564 2.21606,-1.34645c0.74002,-0.49808 1.45066,-1.0071 2.13191,-1.52707c0.68125,-0.51997 1.28235,-1.01257 1.80331,-1.47781M240.17334,185.0288c0.54767,-0.17789 1.1795,-0.39408 1.89548,-0.6486c0.71331,-0.25178 1.4707,-0.52544 2.27217,-0.82101c0.80147,-0.29283 1.59626,-0.58976 2.38437,-0.89079l0.40074,1.99094c-1.0152,0.46524 -2.04642,0.92363 -3.09367,1.37519c-1.04993,0.45155 -2.0157,0.86206 -2.89731,1.23151zM268.00439,176.32612h2.00368c-0.09351,0.86206 -0.19369,1.7679 -0.30055,2.71753c-0.10686,0.95237 -0.22308,1.89653 -0.34864,2.83247c-0.12824,0.93868 -0.24979,1.82811 -0.36467,2.66827c-0.11221,0.8429 -0.22174,1.58591 -0.3286,2.22903h-2.08382c0.13358,-0.67049 0.26716,-1.43403 0.40074,-2.29061c0.13358,-0.85385 0.26449,-1.75011 0.39272,-2.6888c0.12556,-0.93595 0.24178,-1.87326 0.34864,-2.81195c0.10686,-0.93595 0.20037,-1.82127 0.28051,-2.65596M271.0099,178.70704l1.12206,-0.73891c0.36066,0.28735 0.73468,0.6226 1.12206,1.00573c0.38738,0.38314 0.68793,0.71838 0.90165,1.00573l-1.18217,0.84153c-0.18701,-0.30104 -0.47153,-0.65407 -0.85357,-1.0591c-0.37936,-0.40229 -0.74937,-0.75396 -1.11004,-1.05499M270.46891,182.95575l1.18217,-0.75943c0.40074,0.31472 0.8175,0.67733 1.25029,1.08783c0.43546,0.4105 0.77342,0.77996 1.01386,1.10836l-1.22224,0.86206c-0.22708,-0.31472 -0.55435,-0.69101 -0.9818,-1.12888c-0.42745,-0.43787 -0.84154,-0.82785 -1.24228,-1.16993M268.2849,172.81632h10.359v1.99094h-10.359v-1.99094M268.84593,176.32612h7.634v1.88832h-7.634v-1.88832M265.47976,180.43116h13.6851v1.99094h-13.6851v-1.99094M267.66376,184.88512h10.98014v1.88832h-10.98014v-1.88832M268.40512,170.66118l2.08382,0.55418c-0.26716,0.84837 -0.59175,1.69264 -0.97379,2.53281c-0.37936,0.8429 -0.78277,1.6338 -1.21022,2.37271c-0.42745,0.73891 -0.86158,1.38887 -1.30239,1.94989c-0.13358,-0.12315 -0.31658,-0.25999 -0.54901,-0.4105c-0.2351,-0.15052 -0.46619,-0.30104 -0.69327,-0.45155c-0.22708,-0.15052 -0.42745,-0.27367 -0.6011,-0.36945c0.45417,-0.4926 0.88562,-1.07141 1.29437,-1.73643c0.40608,-0.66228 0.77609,-1.37382 1.11004,-2.13462c0.33395,-0.75806 0.61446,-1.52707 0.84154,-2.30703M275.85879,176.32612h2.00368c0,0 -0.00267,0.06158 -0.00801,0.18473c-0.00801,0.12315 -0.01202,0.25588 -0.01202,0.39819c0,0.14505 -0.00668,0.26546 -0.02004,0.36124c-0.08015,1.95673 -0.16029,3.61517 -0.24044,4.9753c-0.08015,1.36287 -0.17098,2.48218 -0.2725,3.35792c-0.09885,0.87574 -0.21105,1.55991 -0.33662,2.05252c-0.12824,0.4926 -0.27918,0.84837 -0.45283,1.06731c-0.22708,0.31472 -0.46485,0.52955 -0.71331,0.64449c-0.24578,0.11768 -0.52897,0.20388 -0.84956,0.25862c-0.29387,0.04105 -0.66789,0.06158 -1.12206,0.06158c-0.45417,0 -0.92837,-0.01368 -1.42261,-0.04105c-0.01336,-0.27367 -0.06679,-0.58155 -0.16029,-0.92363c-0.09351,-0.34209 -0.2204,-0.64312 -0.3807,-0.90311c0.46752,0.04105 0.89498,0.06842 1.28235,0.0821c0.38738,0.01368 0.67457,0.02053 0.86158,0.02053c0.17365,0 0.31391,-0.02463 0.42077,-0.07389c0.10686,-0.04652 0.21373,-0.13136 0.32059,-0.25451c0.13358,-0.15052 0.2538,-0.45566 0.36066,-0.91542c0.10686,-0.45703 0.20705,-1.10699 0.30055,-1.94989c0.09351,-0.84016 0.17766,-1.91431 0.25246,-3.22245c0.07213,-1.3054 0.13491,-2.88857 0.18835,-4.74952v-0.43103M261.59263,172.48792l1.20221,-1.49834c0.38738,0.17789 0.80414,0.38998 1.25029,0.63628c0.44882,0.2463 0.87627,0.49945 1.28235,0.75943c0.40875,0.25999 0.74002,0.49945 0.99382,0.71838l-1.26232,1.66254c-0.24044,-0.21894 -0.55836,-0.46934 -0.95375,-0.75122c-0.39272,-0.27914 -0.81349,-0.55281 -1.26232,-0.82101c-0.44615,-0.26546 -0.86292,-0.50081 -1.25029,-0.70607M260.47057,178.35812l1.16213,-1.47781c0.38738,0.17789 0.79078,0.38587 1.21022,0.62397c0.42211,0.24083 0.82284,0.48439 1.20221,0.7307c0.38203,0.2463 0.69327,0.47892 0.93371,0.69786l-1.24228,1.68306c-0.21373,-0.23262 -0.5076,-0.48576 -0.88162,-0.75943c-0.37402,-0.27367 -0.77075,-0.5405 -1.19018,-0.80048c-0.42211,-0.25999 -0.82017,-0.4926 -1.19419,-0.69786M261.0316,188.31282c0.26716,-0.53365 0.5637,-1.16309 0.88963,-1.88832c0.3286,-0.72522 0.65587,-1.49834 0.9818,-2.31934c0.3286,-0.82101 0.63316,-1.62833 0.91368,-2.42197l1.64301,1.19046c-0.24044,0.72522 -0.50359,1.47097 -0.78945,2.23724c-0.28853,0.76627 -0.58374,1.5257 -0.88562,2.27829c-0.29921,0.75259 -0.59576,1.45729 -0.88963,2.11409zM286.01743,173.2063h12.82352v1.78569h-12.82352v-1.78569M291.14683,174.00678l2.48456,0.1642c-0.20037,0.54734 -0.42478,1.08099 -0.67323,1.60096c-0.24578,0.51997 -0.46886,0.97152 -0.66923,1.35466l-1.7432,-0.28735c0.12022,-0.43787 0.24044,-0.91679 0.36066,-1.43676c0.12022,-0.51997 0.20037,-0.98521 0.24044,-1.39571M294.65327,170.6817l2.08382,0.59523c-0.33395,0.50629 -0.66388,1.00573 -0.98982,1.49834c-0.3286,0.4926 -0.63316,0.90995 -0.91368,1.25204l-1.70312,-0.55418c0.17365,-0.25999 0.35799,-0.55418 0.55301,-0.88258c0.19235,-0.3284 0.37535,-0.66091 0.54901,-0.99752c0.17365,-0.33388 0.31391,-0.63765 0.42077,-0.91132M287.84077,171.31798l1.80331,-0.77996c0.26716,0.3284 0.53031,0.70059 0.78945,1.11657c0.26181,0.41871 0.45283,0.77859 0.57305,1.07962l-1.90349,0.86206c-0.10686,-0.31472 -0.28051,-0.68417 -0.52096,-1.10836c-0.24044,-0.42419 -0.48756,-0.81417 -0.74136,-1.16993M285.25603,178.05024v8.25112h-2.06379v-6.21913h-2.48456v-2.03199h4.54834M280.7678,172.52897l1.66305,-1.06731c0.3473,0.3284 0.70796,0.69101 1.08198,1.08783c0.37402,0.39682 0.72533,0.79364 1.05393,1.19046c0.32593,0.39682 0.5824,0.75943 0.76941,1.08783l-1.76323,1.21098c-0.17365,-0.31472 -0.4181,-0.67733 -0.73335,-1.08783c-0.31257,-0.4105 -0.64919,-0.82785 -1.00985,-1.25204c-0.36066,-0.42419 -0.71464,-0.81417 -1.06195,-1.16993M284.37441,185.62403c0.3473,0 0.68793,0.11631 1.02187,0.34893c0.33395,0.23262 0.78811,0.49945 1.3625,0.80048c0.66789,0.34209 1.45333,0.56786 2.35632,0.67733c0.90032,0.10947 1.88479,0.1642 2.95342,0.1642c0.70796,0 1.49341,-0.01779 2.35632,-0.05337c0.86024,-0.03284 1.71114,-0.08347 2.55268,-0.15189c0.84154,-0.06842 1.5829,-0.14368 2.22408,-0.22578c-0.08015,0.19157 -0.16029,0.41324 -0.24044,0.66502c-0.08015,0.25451 -0.15362,0.51176 -0.2204,0.77175c-0.06679,0.25999 -0.10686,0.4926 -0.12022,0.69786c-0.3473,0.01368 -0.79078,0.03421 -1.33044,0.06158c-0.54233,0.02737 -1.13007,0.05473 -1.76323,0.0821c-0.63583,0.02737 -1.26098,0.04789 -1.87544,0.06158c-0.61446,0.01368 -1.16881,0.02053 -1.66305,0.02053c-1.20221,0 -2.25079,-0.07526 -3.14577,-0.22578c-0.89498,-0.15052 -1.7098,-0.4105 -2.44448,-0.77996c-0.45417,-0.2463 -0.84822,-0.48576 -1.18217,-0.71838c-0.33395,-0.23262 -0.62782,-0.34893 -0.88162,-0.34893c-0.22708,0 -0.48756,0.1122 -0.78143,0.33661c-0.29387,0.22715 -0.60511,0.52134 -0.93371,0.88258c-0.32593,0.36398 -0.64251,0.74438 -0.94974,1.1412l-1.30239,-1.84727c0.70796,-0.67049 1.41326,-1.23151 2.11588,-1.68306c0.69995,-0.45155 1.33044,-0.67733 1.89147,-0.67733M289.40364,180.63641v1.29309h5.79062v-1.29309h-5.79062M289.40364,183.36626v1.29309h5.79062v-1.29309h-5.79062M289.40364,177.92709v1.29309h5.79062v-1.29309h-5.79062M287.37993,176.36718h9.91819v9.87261h-9.91819zM300.94481,175.91562h17.89282v2.25777h-17.89282v-2.25777M306.67532,185.80875l1.78327,-1.27256c0.42745,0.35577 0.87227,0.75943 1.33445,1.21098c0.45951,0.45155 0.89631,0.899 1.3104,1.34235c0.41409,0.44608 0.74804,0.85385 1.00184,1.2233l-1.92353,1.43676c-0.21373,-0.36945 -0.52096,-0.78406 -0.92169,-1.24383c-0.40074,-0.45703 -0.82418,-0.92226 -1.27033,-1.39571c-0.44882,-0.47071 -0.88696,-0.90448 -1.31441,-1.3013M311.34388,176.96241c0.41409,1.62833 0.9818,3.14993 1.70312,4.5648c0.72132,1.41761 1.60695,2.6628 2.65687,3.73558c1.04725,1.07552 2.27217,1.928 3.67474,2.55744c-0.17365,0.15052 -0.36333,0.34482 -0.56904,0.58291c-0.20838,0.24083 -0.40608,0.49123 -0.59309,0.75122c-0.18701,0.25999 -0.34062,0.4926 -0.46085,0.69786c-1.48272,-0.75259 -2.76507,-1.73506 -3.84706,-2.94741c-1.08198,-1.20962 -1.99967,-2.61217 -2.75305,-4.20766c-0.75605,-1.59275 -1.38788,-3.33329 -1.89548,-5.2216l2.08382,-0.51313M308.61888,170.70223h2.3443c-0.01336,1.01257 -0.04007,2.08946 -0.08015,3.23066c-0.04007,1.14394 -0.14293,2.31387 -0.30857,3.5098c-0.16831,1.19867 -0.43546,2.38229 -0.80147,3.55085c-0.36868,1.1713 -0.87627,2.30019 -1.52279,3.38665c-0.64919,1.0892 -1.48406,2.09904 -2.50459,3.02951c-1.02321,0.93047 -2.2695,1.74464 -3.73886,2.44249c-0.17365,-0.28735 -0.41009,-0.60891 -0.7093,-0.96468c-0.30189,-0.35577 -0.60645,-0.65681 -0.91368,-0.90311c1.42929,-0.61576 2.62481,-1.34508 3.58658,-2.18798c0.96176,-0.84016 1.73652,-1.75011 2.32426,-2.72985c0.58774,-0.977 1.04191,-1.99915 1.3625,-3.06646c0.32059,-1.06731 0.54767,-2.14146 0.68125,-3.22245c0.13358,-1.08099 0.21105,-2.13872 0.23243,-3.17319c0.0187,-1.03173 0.03473,-1.99915 0.04809,-2.90226zM321.86317,171.99531h15.94925v2.17567h-15.94925v-2.17567M320.80123,180.69799h18.17333v2.21672h-18.17333v-2.21672M323.12549,175.52564l1.94356,-0.61576c0.2538,0.46524 0.49157,0.95784 0.71331,1.47781c0.21907,0.51997 0.41944,1.02899 0.6011,1.52707c0.17899,0.50081 0.30857,0.94279 0.38871,1.32593l-2.08382,0.69786c-0.06679,-0.39682 -0.18033,-0.84564 -0.34062,-1.34645c-0.16029,-0.49808 -0.3473,-1.01805 -0.56103,-1.55991c-0.21373,-0.53913 -0.43413,-1.04131 -0.66121,-1.50655M334.58651,174.84831l2.30423,0.61576c-0.22708,0.53365 -0.47687,1.07004 -0.74937,1.60917c-0.27517,0.54186 -0.53966,1.0591 -0.79346,1.5517c-0.2538,0.4926 -0.50092,0.93047 -0.74136,1.31361l-1.88345,-0.59523c0.22708,-0.4105 0.46085,-0.87574 0.70129,-1.39571c0.24044,-0.51997 0.46085,-1.05089 0.66121,-1.59275c0.20037,-0.53913 0.36734,-1.04131 0.50092,-1.50655M328.71574,172.89842h2.24412v16.93326h-2.24412zM346.32805,183.30468h12.90367v2.09357h-12.90367v-2.09357M346.94919,174.45833h11.86176v2.07304h-11.86176v-2.07304M347.6104,178.87125h10.49926v2.05252h-10.49926v-2.05252M351.65782,175.79247h2.22408v14.05974h-2.22408v-14.05974M347.9911,171.42061l1.90349,-0.77996c0.37402,0.51997 0.73869,1.09057 1.09401,1.7118c0.35265,0.62397 0.59576,1.17541 0.72934,1.65433l-2.02371,0.86206c-0.08015,-0.31472 -0.21105,-0.67049 -0.39272,-1.06731c-0.17899,-0.39682 -0.38203,-0.80732 -0.60912,-1.23151c-0.22708,-0.42419 -0.46085,-0.80732 -0.70129,-1.14941M355.50488,170.64065l2.1239,0.63628c-0.24044,0.4926 -0.48756,0.99205 -0.74136,1.49834c-0.2538,0.50629 -0.5076,0.98521 -0.7614,1.43676c-0.2538,0.45155 -0.49424,0.84837 -0.72132,1.19046l-1.78327,-0.59523c0.22708,-0.38314 0.45684,-0.81417 0.68926,-1.29309c0.2351,-0.47892 0.45951,-0.97152 0.67323,-1.47781c0.21373,-0.50629 0.38738,-0.97152 0.52096,-1.39571M341.41904,172.63159l1.26232,-1.53939c0.42745,0.21894 0.88162,0.47481 1.3625,0.76764c0.48088,0.29556 0.94173,0.59386 1.38254,0.8949c0.44081,0.30104 0.79479,0.58155 1.06195,0.84153l-1.34246,1.72411c-0.2538,-0.27367 -0.59442,-0.57197 -1.02187,-0.8949c-0.42745,-0.32019 -0.87761,-0.64175 -1.35048,-0.96468c-0.47554,-0.32019 -0.92703,-0.5966 -1.35448,-0.82922M340.49735,177.90656l1.22224,-1.58044c0.42745,0.20525 0.8883,0.44471 1.38254,0.71838c0.49424,0.27367 0.96577,0.55007 1.41459,0.82922c0.44615,0.28188 0.80948,0.54597 1.09,0.79227l-1.28235,1.76516c-0.26716,-0.2463 -0.61713,-0.51997 -1.04993,-0.82101c-0.43546,-0.30104 -0.89631,-0.60207 -1.38254,-0.90311c-0.4889,-0.30104 -0.95375,-0.56786 -1.39456,-0.80048M340.91812,188.02547c0.32059,-0.54734 0.6719,-1.18772 1.05393,-1.92116c0.37936,-0.7307 0.76273,-1.51065 1.15011,-2.33987c0.38738,-0.82648 0.74804,-1.64338 1.08198,-2.45071l1.70312,1.33414c-0.29387,0.73891 -0.61045,1.49423 -0.94974,2.26598c-0.34196,0.77448 -0.68926,1.53802 -1.04191,2.29061c-0.35532,0.75259 -0.70663,1.47097 -1.05393,2.15514zM367.7273,180.80061h10.1386v8.99002h-2.16397v-6.95803h-5.8908v7.04013h-2.08382v-9.07212M368.94954,186.67081h7.75422v2.05252h-7.75422v-2.05252M369.43042,171.64639h6.15128v2.05252h-6.15128v-2.05252M368.72914,171.64639h2.08382v2.36039c0,0.75259 -0.09618,1.54212 -0.28853,2.3686c-0.19502,0.82922 -0.55702,1.62696 -1.08599,2.39323c-0.5263,0.76627 -1.29705,1.43676 -2.31224,2.01147c-0.06679,-0.15052 -0.18968,-0.33524 -0.36868,-0.55418c-0.18167,-0.21894 -0.36601,-0.43513 -0.55301,-0.6486c-0.18701,-0.21073 -0.3473,-0.37082 -0.48088,-0.48029c0.88162,-0.47892 1.53615,-1.00984 1.9636,-1.59275c0.42745,-0.58018 0.70796,-1.17814 0.84154,-1.7939c0.13358,-0.61576 0.20037,-1.20414 0.20037,-1.76516v-2.29882M374.53979,171.64639h2.10386v5.56232c0,0.31472 0.01737,0.5405 0.0521,0.67733c0.03206,0.13684 0.12156,0.20525 0.26849,0.20525c0.08015,0 0.18033,0 0.30055,0c0.12022,0 0.24445,0 0.37268,0c0.12556,0 0.22842,0 0.30857,0c0.13358,0 0.30456,-0.01095 0.51294,-0.03284c0.20571,-0.01916 0.37535,-0.04926 0.50893,-0.09031c0.01336,0.27367 0.03072,0.56376 0.0521,0.87027c0.0187,0.30925 0.04809,0.59386 0.08816,0.85385c-0.13358,0.05473 -0.30322,0.09168 -0.50893,0.11084c-0.20838,0.02189 -0.41276,0.03284 -0.61312,0.03284c-0.10686,0 -0.24311,0 -0.40875,0c-0.16831,0 -0.33528,0 -0.50092,0c-0.16831,0 -0.3059,0 -0.41276,0c-0.58774,0 -1.03523,-0.09578 -1.34246,-0.28735c-0.30723,-0.19157 -0.51428,-0.48576 -0.62114,-0.88258c-0.10686,-0.39682 -0.16029,-0.89627 -0.16029,-1.49834v-5.52127M361.51591,172.57002l1.3625,-1.41624c0.41409,0.21894 0.85891,0.47481 1.33445,0.76764c0.47287,0.29556 0.92303,0.58976 1.35048,0.88258c0.42745,0.29556 0.78143,0.57334 1.06195,0.83332l-1.44265,1.58044c-0.2538,-0.25999 -0.58774,-0.54734 -1.00184,-0.86206c-0.41409,-0.31472 -0.8549,-0.62944 -1.32243,-0.94416c-0.46752,-0.31472 -0.91501,-0.59523 -1.34246,-0.84153M360.47399,178.13234l1.34246,-1.43676c0.41409,0.20525 0.8549,0.44061 1.32243,0.70607c0.46752,0.2682 0.92169,0.54186 1.3625,0.82101c0.44081,0.28188 0.80147,0.53913 1.08198,0.77175l-1.42261,1.60096c-0.26716,-0.2463 -0.60778,-0.51723 -1.02187,-0.8128c-0.41409,-0.29283 -0.85757,-0.58702 -1.33044,-0.88258c-0.47554,-0.29283 -0.92035,-0.54871 -1.33445,-0.76764M360.95488,188.046c0.37402,-0.50629 0.79479,-1.10836 1.26232,-1.80621c0.46752,-0.69786 0.94573,-1.4436 1.43463,-2.23724c0.48623,-0.79364 0.94306,-1.58044 1.37051,-2.36039l1.56287,1.58044c-0.37402,0.69786 -0.77743,1.41624 -1.21022,2.15514c-0.43546,0.73891 -0.8696,1.47097 -1.30239,2.19619c-0.43546,0.72522 -0.8736,1.41624 -1.31441,2.07304zM382.27398,177.12661h2.14393v3.92031c0,0.64312 -0.02939,1.33687 -0.08816,2.08125c-0.06145,0.74712 -0.16831,1.50655 -0.32059,2.27829c-0.15495,0.77448 -0.37936,1.52023 -0.67323,2.23724c-0.29387,0.71975 -0.67457,1.36698 -1.14209,1.94168c-0.10686,-0.15052 -0.26716,-0.31882 -0.48088,-0.50492c-0.21373,-0.18336 -0.4368,-0.36124 -0.66923,-0.53365c-0.2351,-0.16968 -0.43279,-0.29556 -0.59309,-0.37766c0.56103,-0.69786 0.96844,-1.46413 1.22224,-2.29882c0.2538,-0.83469 0.41676,-1.67348 0.4889,-2.51639c0.0748,-0.84016 0.11221,-1.62286 0.11221,-2.34808v-3.87926M383.45615,177.12661h15.32811v1.94989h-15.32811v-1.94989M385.76037,180.36958h12.36268v1.86779h-12.36268v-1.86779M384.83868,183.96149h14.24613v1.94989h-14.24613v-1.94989M390.68941,180.94429h2.26415v8.90792h-2.26415v-8.90792M382.33409,171.44114h2.18401v2.44249h11.04025v-2.44249h2.26415v4.39239h-15.48841v-4.39239M388.84603,170.6817h2.28419v4.12556h-2.28419zM403.37268,181.68319v-1.70359l1.26232,-0.75943h13.02389v2.15514h-11.98198c-0.37402,0 -0.72399,0.00958 -1.04993,0.02874c-0.3286,0.02189 -0.60377,0.0561 -0.82551,0.10263c-0.21907,0.04926 -0.362,0.1081 -0.42879,0.17652M409.88462,176.51085h2.18401v10.61151c0,0.5747 -0.06679,1.02899 -0.20037,1.36287c-0.13358,0.33661 -0.40074,0.59386 -0.80147,0.77175c-0.37402,0.19157 -0.83487,0.31061 -1.38254,0.35714c-0.54767,0.04926 -1.18885,0.07389 -1.92353,0.07389c-0.02672,-0.21894 -0.08683,-0.46524 -0.18033,-0.73891c-0.09351,-0.27367 -0.18968,-0.5446 -0.28853,-0.8128c-0.10152,-0.26546 -0.20571,-0.50081 -0.31257,-0.70607c0.52096,0.01368 1.02187,0.02326 1.50276,0.02874c0.48088,0.00821 0.80815,0.00547 0.9818,-0.00821c0.16029,0 0.27116,-0.02737 0.33261,-0.0821c0.05877,-0.05473 0.08816,-0.15052 0.08816,-0.28735v-10.57046M404.77525,182.70945l2.16397,0.61576c-0.30723,0.72522 -0.67457,1.44634 -1.10202,2.16335c-0.42745,0.71975 -0.87761,1.39434 -1.35048,2.02378c-0.47554,0.62944 -0.96043,1.17678 -1.45467,1.64201c-0.13358,-0.12315 -0.31124,-0.27777 -0.53298,-0.46387c-0.21907,-0.18336 -0.44214,-0.36124 -0.66923,-0.53365c-0.22708,-0.16968 -0.42745,-0.30925 -0.6011,-0.41871c0.72132,-0.60207 1.3999,-1.35466 2.03573,-2.25777c0.63316,-0.90311 1.13675,-1.82674 1.51077,-2.7709M413.29087,183.59203l1.82334,-0.88258c0.48088,0.50629 0.97913,1.0632 1.49474,1.67075c0.51294,0.61028 0.99382,1.21235 1.44265,1.80621c0.44615,0.5966 0.80281,1.13436 1.06996,1.61328l-1.9636,1.04678c-0.24044,-0.47892 -0.57038,-1.02352 -0.98982,-1.6338c-0.42211,-0.60754 -0.88295,-1.23014 -1.38254,-1.86779c-0.50226,-0.63491 -1.0005,-1.21919 -1.49474,-1.75285M401.44915,173.32945h17.13142v2.11409h-17.13142v-2.11409M403.37268,181.68319c-0.04007,-0.15052 -0.10285,-0.36261 -0.18835,-0.63628c-0.08816,-0.27367 -0.18567,-0.55828 -0.29254,-0.85385c-0.10686,-0.29283 -0.20705,-0.54186 -0.30055,-0.74712c0.26716,-0.0821 0.52496,-0.25314 0.77342,-0.51313c0.24578,-0.25999 0.52897,-0.60891 0.84956,-1.04678c0.17365,-0.20525 0.4181,-0.55418 0.73335,-1.04678c0.31257,-0.4926 0.65988,-1.07825 1.04191,-1.75695c0.37936,-0.67596 0.76273,-1.40392 1.15011,-2.18388c0.38738,-0.77996 0.74136,-1.5736 1.06195,-2.38092l2.3443,0.88258c-0.5076,1.12204 -1.06863,2.22356 -1.68309,3.30455c-0.61446,1.08099 -1.24495,2.10725 -1.89147,3.07878c-0.64919,0.97152 -1.2877,1.84727 -1.91551,2.62722v0.04105c0,0 -0.08683,0.04379 -0.26048,0.13136c-0.17365,0.09031 -0.36734,0.19978 -0.58107,0.3284c-0.21373,0.13136 -0.40741,0.26546 -0.58107,0.40229c-0.17365,0.13684 -0.26048,0.25999 -0.26048,0.36945zM432.32578,171.68744h5.22959v1.99094h-3.3261v16.09173h-1.90349v-18.08267M437.11457,171.68744h0.40074l0.32059,-0.0821l1.48272,0.94416c-0.33395,0.98521 -0.70796,2.02789 -1.12206,3.12804c-0.41409,1.10288 -0.81483,2.10588 -1.20221,3.00899c0.82819,0.94416 1.36651,1.82263 1.61496,2.63543c0.24578,0.81553 0.36868,1.56539 0.36868,2.24956c0,0.69786 -0.07614,1.29309 -0.22842,1.78569c-0.15495,0.4926 -0.41276,0.8689 -0.77342,1.12888c-0.17365,0.12315 -0.37402,0.22167 -0.6011,0.29556c-0.22708,0.07663 -0.46752,0.13547 -0.72132,0.17652c-0.22708,0.02737 -0.48088,0.04379 -0.7614,0.04926c-0.28051,0.00821 -0.56103,0.00547 -0.84154,-0.00821c-0.01336,-0.28735 -0.06011,-0.62944 -0.14026,-1.02626c-0.08015,-0.39682 -0.20705,-0.73891 -0.3807,-1.02626c0.2538,0.02737 0.48489,0.04379 0.69327,0.04926c0.20571,0.00821 0.39539,0.00547 0.56904,-0.00821c0.13358,0 0.26716,-0.01779 0.40074,-0.05337c0.13358,-0.03284 0.24712,-0.08347 0.34062,-0.15189c0.17365,-0.10947 0.29788,-0.29146 0.37268,-0.54597c0.07213,-0.25178 0.1082,-0.55555 0.1082,-0.91132c0,-0.58839 -0.14026,-1.25204 -0.42077,-1.99094c-0.28051,-0.73891 -0.82151,-1.53255 -1.62298,-2.38092c0.20037,-0.51997 0.40474,-1.07825 0.61312,-1.67485c0.20571,-0.59386 0.40608,-1.19593 0.6011,-1.80621c0.19235,-0.60754 0.36868,-1.17814 0.52897,-1.7118c0.16029,-0.53365 0.29387,-0.98521 0.40074,-1.35466v-0.71838M421.44583,173.00105h9.63768v1.97042h-9.63768v-1.97042M420.92487,178.52232h10.59944v1.99094h-10.59944v-1.99094M422.52781,175.42302l1.84338,-0.47208c0.28051,0.4926 0.53164,1.03584 0.75338,1.6297c0.21907,0.5966 0.37535,1.11383 0.46886,1.5517l-1.92353,0.55418c-0.08015,-0.45155 -0.22708,-0.98247 -0.44081,-1.59275c-0.21373,-0.60754 -0.44749,-1.16446 -0.70129,-1.67075M428.19821,174.88936l2.1239,0.47208c-0.18701,0.46524 -0.3807,0.93732 -0.58107,1.41624c-0.20037,0.47892 -0.39406,0.93732 -0.58107,1.37519c-0.18701,0.43787 -0.37402,0.82785 -0.56103,1.16993l-1.80331,-0.45155c0.17365,-0.36945 0.35131,-0.7868 0.53298,-1.25204c0.17899,-0.46524 0.34597,-0.93732 0.50092,-1.41624c0.15228,-0.47892 0.27517,-0.91679 0.36868,-1.31361M423.02873,186.91711h6.57205v1.92937h-6.57205v-1.92937M421.90667,182.11422h8.79613v7.55326h-2.1239v-5.58285h-4.64853v5.706h-2.02371v-7.67641M424.65171,171.09221l1.94356,-0.55418c0.21373,0.43787 0.42478,0.91679 0.63316,1.43676c0.20571,0.51997 0.35532,0.96468 0.44882,1.33414l-2.06379,0.65681c-0.08015,-0.36945 -0.20972,-0.82511 -0.38871,-1.36698c-0.18167,-0.53913 -0.37268,-1.04131 -0.57305,-1.50655z" fill="#ffffff" stroke-width="1"/><path d="M240,196v-32h208v32z" fill="none" stroke-width="0"/></g></g></svg>