<svg version="1.1" xmlns="http://www.w3.org/2000/svg" xmlns:xlink="http://www.w3.org/1999/xlink" width="168.1" height="32.667" viewBox="0,0,168.1,32.667"><g transform="translate(-240,-180)"><g stroke="none" stroke-miterlimit="10"><path d="M248,180h152.1c4.432,0 8,3.568 8,8v16.667c0,4.432 -3.568,8 -8,8h-152.1c-4.432,0 -8,-3.568 -8,-8v-16.667c0,-4.432 3.568,-8 8,-8z" fill-opacity="0.7" fill="#000000" fill-rule="evenodd" stroke-width="0"/><path d="M250.42502,191.0089h5.52465v0.89343h-5.52465v-0.89343M253.96225,190.05166h0.96636v3.96571c0,0.24311 -0.03039,0.43456 -0.09117,0.57434c-0.06078,0.13979 -0.17929,0.24615 -0.35555,0.31908c-0.17018,0.07293 -0.38594,0.11669 -0.64728,0.13128c-0.26134,0.0158 -0.57131,0.0237 -0.92989,0.0237c-0.01823,-0.12763 -0.05591,-0.2814 -0.11305,-0.4613c-0.05835,-0.17869 -0.11791,-0.33184 -0.17869,-0.45948c0.24311,0.00608 0.4771,0.01033 0.70198,0.01276c0.22488,0.00365 0.37682,0.00547 0.45583,0.00547c0.07293,0 0.12338,-0.01216 0.15134,-0.03647c0.02674,-0.02431 0.04011,-0.06685 0.04011,-0.12763v-3.94748M250.97201,192.3855l0.79314,-0.41936c0.14587,0.15194 0.29355,0.32212 0.44307,0.51053c0.1483,0.18841 0.28626,0.37378 0.41389,0.55611c0.12763,0.18233 0.22488,0.34947 0.29173,0.50141l-0.84784,0.47406c-0.06078,-0.15194 -0.15012,-0.32394 -0.26803,-0.516c-0.11912,-0.19084 -0.25162,-0.3835 -0.39748,-0.57799c-0.14587,-0.19449 -0.28869,-0.37074 -0.42848,-0.52876M249.14869,186.56912h0.94812v8.50577h-0.94812v-8.50577M247.51682,192.23052c0.23095,-0.1641 0.51053,-0.37682 0.83873,-0.63816c0.3282,-0.26134 0.66247,-0.5318 1.00282,-0.81138l0.35555,0.79314c-0.2735,0.25526 -0.55915,0.51478 -0.85696,0.77856c-0.29781,0.26499 -0.58042,0.50688 -0.84784,0.72568l-0.4923,-0.84784M247.51682,188.34686l0.67463,-0.52876c0.13979,0.13979 0.28748,0.29477 0.44307,0.46495c0.15437,0.17018 0.30024,0.33853 0.4376,0.50506c0.13614,0.16775 0.24068,0.31847 0.31361,0.45218l-0.71109,0.60169c-0.07293,-0.13979 -0.17322,-0.29659 -0.30085,-0.47042c-0.12763,-0.17261 -0.26742,-0.34886 -0.41936,-0.52876c-0.15194,-0.17869 -0.29781,-0.344 -0.4376,-0.49594M252.64035,187.28933h2.58911l-0.18233,0.77491h-2.89907l0.4923,-0.77491M252.78621,186.56912l1.00282,0.26438c-0.22488,0.29173 -0.48804,0.57556 -0.7895,0.85149c-0.30024,0.27714 -0.62054,0.53119 -0.96089,0.76215c-0.34035,0.23095 -0.68374,0.43152 -1.03017,0.60169c-0.04862,-0.06078 -0.11244,-0.13249 -0.19145,-0.21515c-0.07901,-0.08144 -0.15984,-0.16045 -0.2425,-0.23703c-0.08144,-0.07536 -0.15255,-0.1404 -0.21333,-0.19509c0.33428,-0.13371 0.65639,-0.29963 0.96636,-0.49777c0.30996,-0.19692 0.58954,-0.41085 0.83873,-0.64181c0.24919,-0.23095 0.45583,-0.46191 0.61993,-0.69286M251.7378,188.84827l0.72021,-0.41936c0.1641,0.13371 0.32941,0.28565 0.49594,0.45583c0.16775,0.17018 0.29416,0.3282 0.37925,0.47406l-0.75668,0.44671c-0.07901,-0.13979 -0.19753,-0.30085 -0.35555,-0.48318c-0.15802,-0.18233 -0.31908,-0.34035 -0.48318,-0.47406M254.89214,187.28933h0.18233l0.17322,-0.03647l0.64728,0.3282c-0.22488,0.48014 -0.51053,0.90376 -0.85696,1.27085c-0.34643,0.36831 -0.73662,0.68921 -1.17057,0.96271c-0.43516,0.2735 -0.90315,0.50445 -1.40395,0.69286c-0.50202,0.18841 -1.01741,0.34339 -1.54617,0.46495c-0.04862,-0.11548 -0.11852,-0.24919 -0.20968,-0.40113c-0.09117,-0.15194 -0.18233,-0.2735 -0.2735,-0.36466c0.48014,-0.09117 0.94995,-0.21576 1.40942,-0.37378c0.45826,-0.15802 0.88613,-0.35251 1.28362,-0.58346c0.3987,-0.23095 0.74999,-0.49716 1.05388,-0.79861c0.30389,-0.30024 0.54092,-0.63877 0.71109,-1.01559zM256.71546,188.23746h2.78056v0.91166h-2.78056v-0.91166M257.81856,186.56912h0.89343v8.50577h-0.89343v-8.50577M257.80033,188.89385l0.53788,0.20056c-0.0547,0.35251 -0.12642,0.72021 -0.21515,1.10311c-0.08752,0.3829 -0.18598,0.75789 -0.29538,1.12499c-0.1094,0.36831 -0.22913,0.71049 -0.35919,1.02653c-0.13128,0.31604 -0.26985,0.5865 -0.41572,0.81138c-0.03039,-0.09724 -0.07111,-0.20543 -0.12216,-0.32455c-0.05227,-0.11791 -0.10697,-0.23642 -0.1641,-0.35555c-0.05835,-0.11791 -0.11487,-0.21941 -0.16957,-0.30449c0.13371,-0.18841 0.26134,-0.41207 0.3829,-0.67098c0.12155,-0.2577 0.23521,-0.53423 0.34096,-0.82961c0.10697,-0.29416 0.20178,-0.59501 0.28444,-0.90254c0.08144,-0.30632 0.14647,-0.59926 0.19509,-0.87884M258.67552,189.42261c0.04862,0.06078 0.12277,0.16531 0.22244,0.31361c0.10089,0.14951 0.21029,0.3124 0.3282,0.48865c0.11912,0.17625 0.22731,0.33853 0.32455,0.48683c0.09724,0.14951 0.1641,0.2577 0.20056,0.32455l-0.56523,0.66551c-0.04862,-0.12155 -0.11426,-0.27046 -0.19692,-0.44671c-0.08144,-0.17625 -0.16896,-0.35859 -0.26256,-0.547c-0.09481,-0.18841 -0.18598,-0.36649 -0.2735,-0.53423c-0.08873,-0.16653 -0.16349,-0.30146 -0.22427,-0.40478l0.44671,-0.34643M262.38597,186.85174c0.15194,0.21272 0.33914,0.43152 0.56158,0.65639c0.22123,0.22488 0.45948,0.44489 0.71474,0.66004c0.25526,0.21637 0.51965,0.41572 0.79314,0.59805c0.2735,0.18233 0.53788,0.34035 0.79314,0.47406c-0.0547,0.07901 -0.11244,0.17443 -0.17322,0.28626c-0.06078,0.11305 -0.11669,0.22731 -0.16775,0.34278c-0.05227,0.11548 -0.0936,0.2188 -0.12399,0.30996c-0.37074,-0.23703 -0.74938,-0.51357 -1.13593,-0.82961c-0.38533,-0.31604 -0.74999,-0.65032 -1.09399,-1.00282c-0.34278,-0.35251 -0.63573,-0.68982 -0.87884,-1.01194l0.71109,-0.48318M261.93014,186.47796l0.84784,0.31908c-0.24311,0.45583 -0.53484,0.90072 -0.87519,1.33467c-0.34035,0.43516 -0.7038,0.83812 -1.09034,1.20886c-0.38533,0.37074 -0.77552,0.69286 -1.17057,0.96636c-0.03647,-0.06685 -0.08813,-0.15073 -0.15498,-0.25162c-0.06685,-0.09967 -0.13675,-0.20117 -0.20968,-0.30449c-0.07293,-0.10332 -0.13675,-0.18537 -0.19145,-0.24615c0.37074,-0.23095 0.73358,-0.50445 1.08852,-0.82049c0.35615,-0.31604 0.68618,-0.66247 0.99006,-1.03929c0.30389,-0.37682 0.55915,-0.76579 0.76579,-1.16692M260.59001,189.36791h3.19992v0.82961h-3.19992v-0.82961M259.93361,191.10918l0.75668,-0.20056c0.07901,0.23095 0.15498,0.4771 0.22791,0.73844c0.07293,0.26134 0.13979,0.51661 0.20056,0.76579c0.06078,0.24919 0.10332,0.47102 0.12763,0.66551l-0.79314,0.2188c-0.02431,-0.20056 -0.06382,-0.42544 -0.11852,-0.67463c-0.0547,-0.24919 -0.11669,-0.50749 -0.18598,-0.77491c-0.0705,-0.26742 -0.14222,-0.51357 -0.21515,-0.73844M261.67488,190.8448l0.75668,-0.1094c0.06078,0.23095 0.11669,0.47528 0.16775,0.73297c0.05227,0.25891 0.09967,0.51114 0.14222,0.75668c0.04254,0.24676 0.06989,0.46738 0.08205,0.66186l-0.79314,0.12763c-0.01216,-0.19449 -0.03647,-0.41815 -0.07293,-0.67098c-0.03647,-0.25162 -0.07901,-0.5081 -0.12763,-0.76944c-0.04862,-0.26134 -0.10028,-0.50445 -0.15498,-0.72933M263.89933,190.7354l0.85696,0.19145c-0.14587,0.36466 -0.30389,0.74574 -0.47406,1.14322c-0.17018,0.3987 -0.34339,0.78038 -0.51965,1.14504c-0.17625,0.36466 -0.34339,0.68374 -0.50141,0.95724l-0.70198,-0.20056c0.12155,-0.21272 0.24493,-0.45279 0.37013,-0.72021c0.12399,-0.26742 0.24676,-0.54882 0.36831,-0.8442c0.12155,-0.29416 0.23399,-0.58407 0.33731,-0.86972c0.10332,-0.28565 0.19145,-0.55307 0.26438,-0.80226M259.4869,193.83504h5.42437v0.85696h-5.42437zM269.87069,193.54331l0.59258,-0.35555c0.14587,0.14587 0.29477,0.30389 0.44671,0.47406c0.15194,0.17018 0.29477,0.33853 0.42848,0.50506c0.13371,0.16775 0.24007,0.31543 0.31908,0.44307l-0.61993,0.41025c-0.07901,-0.13371 -0.18233,-0.28748 -0.30996,-0.4613c-0.12763,-0.17261 -0.26742,-0.34886 -0.41936,-0.52876c-0.15194,-0.17869 -0.29781,-0.34096 -0.4376,-0.48683M268.25705,187.07054h3.19992v5.87108h-0.76579v-5.1691h-1.69568v5.20557h-0.73844v-5.90755M273.22559,186.70587h0.77491v7.35708c0,0.23095 -0.02735,0.41025 -0.08205,0.53788c-0.0547,0.12763 -0.1489,0.22488 -0.28261,0.29173c-0.13371,0.06685 -0.31118,0.11061 -0.53241,0.13128c-0.22244,0.02188 -0.49777,0.02978 -0.82596,0.0237c-0.01823,-0.10332 -0.05166,-0.23399 -0.10028,-0.39201c-0.04862,-0.15802 -0.10028,-0.29477 -0.15498,-0.41025c0.22488,0.00608 0.43334,0.00912 0.6254,0.00912c0.19084,0 0.32273,0 0.39566,0c0.12155,0 0.18233,-0.06078 0.18233,-0.18233v-7.3662M271.97662,187.40785h0.74756v5.57023h-0.74756v-5.57023M269.46044,188.31951h0.72021v3.42784c0,0.30389 -0.02431,0.61081 -0.07293,0.92077c-0.04862,0.30996 -0.13796,0.61385 -0.26803,0.91166c-0.13128,0.29781 -0.32273,0.57434 -0.57434,0.82961c-0.25283,0.25526 -0.58285,0.48014 -0.99006,0.67463c-0.02431,-0.0547 -0.06199,-0.12155 -0.11305,-0.20056c-0.05227,-0.07901 -0.10697,-0.15681 -0.1641,-0.23338c-0.05835,-0.07536 -0.10879,-0.13128 -0.15134,-0.16775c0.36466,-0.17018 0.65518,-0.36041 0.87155,-0.5707c0.21515,-0.20907 0.37621,-0.43213 0.48318,-0.66916c0.10575,-0.23703 0.17565,-0.48318 0.20968,-0.73844c0.03282,-0.25526 0.04923,-0.51053 0.04923,-0.76579v-3.41872M266.10554,187.36227l0.57434,-0.71109c0.15802,0.07901 0.33306,0.17322 0.52512,0.28261c0.19084,0.1094 0.37621,0.2188 0.55611,0.3282c0.17869,0.1094 0.32273,0.20968 0.43213,0.30085l-0.60169,0.79314c-0.10332,-0.09724 -0.24007,-0.20543 -0.41025,-0.32455c-0.17018,-0.11791 -0.35068,-0.2346 -0.54153,-0.35008c-0.19206,-0.11548 -0.37013,-0.22184 -0.53423,-0.31908M265.74088,189.80551l0.547,-0.70198c0.1641,0.07901 0.34218,0.17018 0.53423,0.2735c0.19084,0.10332 0.37439,0.20664 0.55064,0.30996c0.17625,0.10332 0.32516,0.19753 0.44671,0.28261l-0.58346,0.78403c-0.10332,-0.09117 -0.24311,-0.19327 -0.41936,-0.30632c-0.17625,-0.11183 -0.35859,-0.22427 -0.547,-0.33731c-0.18841,-0.11183 -0.36466,-0.21333 -0.52876,-0.30449M265.90498,194.4732c0.11548,-0.23703 0.24311,-0.51661 0.3829,-0.83873c0.13979,-0.32212 0.27958,-0.6643 0.41936,-1.02653c0.13979,-0.36102 0.27046,-0.71474 0.39201,-1.06117l0.78403,0.50141c-0.10332,0.32212 -0.21576,0.65336 -0.33731,0.99371c-0.12155,0.34035 -0.24736,0.67463 -0.37743,1.00282c-0.13128,0.3282 -0.2577,0.63816 -0.37925,0.92989zM275.37711,191.30975h4.33038v0.84784h-4.33038v-0.84784M277.08191,190.44367h0.92989v3.64663h-0.92989v-3.64663M275.06714,193.79857c0.39505,-0.0547 0.8527,-0.12459 1.37296,-0.20968c0.51904,-0.08509 1.06725,-0.17808 1.64463,-0.27897c0.57738,-0.09967 1.15173,-0.19813 1.72303,-0.29538l0.0547,0.83873c-0.54092,0.10332 -1.08487,0.20664 -1.63187,0.30996c-0.547,0.10332 -1.0709,0.20178 -1.5717,0.29538c-0.50202,0.09481 -0.95967,0.17869 -1.37296,0.25162l-0.2188,-0.91166M275.15831,187.12523h4.74062v0.84784h-4.74062v-0.84784M277.87505,188.46537l0.69286,-0.41936c0.17018,0.20056 0.34035,0.41936 0.51053,0.65639c0.17018,0.23703 0.3282,0.4692 0.47406,0.69651c0.14587,0.22852 0.2583,0.43395 0.33731,0.61628l-0.74756,0.48318c-0.07293,-0.18233 -0.17929,-0.39201 -0.31908,-0.62904c-0.13979,-0.23703 -0.29295,-0.47892 -0.45948,-0.72568c-0.16775,-0.24554 -0.33063,-0.47163 -0.48865,-0.67827M280.30006,187.39873h0.90254v5.53377h-0.90254v-5.53377M282.05956,186.68764h0.95724v7.11094c0,0.26134 -0.0316,0.46495 -0.09481,0.61081c-0.06442,0.14587 -0.17869,0.2583 -0.34278,0.33731c-0.1641,0.07293 -0.37378,0.12155 -0.62904,0.14587c-0.25526,0.02431 -0.55915,0.03647 -0.91166,0.03647c-0.01823,-0.13371 -0.06078,-0.29173 -0.12763,-0.47406c-0.06685,-0.18233 -0.13675,-0.34035 -0.20968,-0.47406c0.24919,0.00608 0.48318,0.01033 0.70198,0.01276c0.2188,0.00365 0.3677,0.00547 0.44671,0.00547c0.08509,0 0.14161,-0.01519 0.16957,-0.04558c0.02674,-0.03039 0.04011,-0.08509 0.04011,-0.1641v-7.10182M275.6506,190.38897c-0.01823,-0.06685 -0.04558,-0.15377 -0.08205,-0.26073c-0.03647,-0.10575 -0.07476,-0.21637 -0.11487,-0.33184c-0.0389,-0.11548 -0.07658,-0.21576 -0.11305,-0.30085c0.06685,-0.01823 0.13675,-0.0626 0.20968,-0.1331c0.07293,-0.06929 0.14587,-0.15559 0.2188,-0.25891c0.04862,-0.07293 0.12581,-0.19753 0.23156,-0.37378c0.10697,-0.17625 0.21819,-0.38472 0.33367,-0.6254c0.11548,-0.23946 0.21576,-0.48683 0.30085,-0.74209l0.94812,0.35555c-0.12155,0.25526 -0.25952,0.51478 -0.41389,0.77856c-0.15559,0.26499 -0.31726,0.51721 -0.485,0.75668c-0.16653,0.24068 -0.33184,0.45522 -0.49594,0.64363v0.01823c0,0 -0.02735,0.01519 -0.08205,0.04558c-0.0547,0.03039 -0.11669,0.06989 -0.18598,0.11852c-0.0705,0.04862 -0.1331,0.10028 -0.1878,0.15498c-0.0547,0.0547 -0.08205,0.10636 -0.08205,0.15498M275.6506,190.38897l-0.01823,-0.68374l0.45583,-0.29173l2.85349,-0.19145c0.0547,0.12155 0.12155,0.25344 0.20056,0.39566c0.07901,0.14343 0.14587,0.26377 0.20056,0.36102c-0.60169,0.0547 -1.10918,0.10028 -1.52247,0.13675c-0.41328,0.03647 -0.74878,0.06685 -1.00647,0.09117c-0.25891,0.02431 -0.46434,0.04558 -0.61628,0.06382c-0.15194,0.01823 -0.26742,0.03647 -0.34643,0.0547c-0.07901,0.01823 -0.14587,0.0395 -0.20056,0.06382zM284.87659,186.84262h6.72804v0.71109h-6.72804v-0.71109M285.27772,190.5166h6.77362v0.67463h-6.77362v-0.67463M286.10733,191.48296h5.4426v0.59258h-5.4426v-0.59258M285.25948,192.3855h7.13829v0.65639h-7.13829v-0.65639M285.4874,188.83915h1.9236v0.51053h-1.9236v-0.51053M285.28683,189.67788h2.13328v0.50141h-2.13328v-0.50141M289.04287,189.67788h2.16063v0.50141h-2.16063v-0.50141M289.04287,188.83915h1.94183v0.51053h-1.94183v-0.51053M287.73919,187.14347h0.96636v3.1908h-0.96636v-3.1908M284.29313,187.91838h7.9132v1.5954h-0.94812v-1.01194h-6.06253v1.01194h-0.90254v-1.5954M284.84012,190.5166h0.91166v1.25809c0,0.25526 -0.01519,0.52998 -0.04558,0.82414c-0.03039,0.29538 -0.0863,0.59501 -0.16775,0.8989c-0.08266,0.30389 -0.19813,0.59683 -0.34643,0.87884c-0.14951,0.28322 -0.34278,0.54031 -0.57981,0.77126c-0.04862,-0.06078 -0.11548,-0.13249 -0.20056,-0.21515c-0.08509,-0.08144 -0.17443,-0.16045 -0.26803,-0.23703c-0.09481,-0.07536 -0.17869,-0.13128 -0.25162,-0.16775c0.28565,-0.2735 0.49533,-0.57131 0.62904,-0.89343c0.13371,-0.32212 0.22062,-0.64606 0.26073,-0.97183c0.0389,-0.32455 0.05835,-0.62661 0.05835,-0.90619v-1.23986M289.03375,192.73193c0.18233,0.29781 0.44063,0.54517 0.77491,0.74209c0.33428,0.19813 0.73419,0.35312 1.19974,0.46495c0.46434,0.11305 0.98216,0.1878 1.55347,0.22427c-0.08509,0.08509 -0.17322,0.20056 -0.26438,0.34643c-0.09117,0.14587 -0.1641,0.27958 -0.2188,0.40113c-0.62601,-0.06685 -1.18333,-0.18233 -1.67198,-0.34643c-0.48986,-0.1641 -0.91105,-0.38472 -1.26356,-0.66186c-0.35251,-0.27593 -0.64424,-0.61446 -0.87519,-1.01559l0.76579,-0.15498M291.15791,192.96897l0.72021,0.36466c-0.2188,0.14587 -0.44975,0.28079 -0.69286,0.40478c-0.24311,0.1252 -0.46495,0.23338 -0.66551,0.32455l-0.59258,-0.3282c0.13371,-0.07293 0.27532,-0.15377 0.42483,-0.2425c0.1483,-0.08752 0.29416,-0.17869 0.4376,-0.2735c0.14222,-0.0936 0.26499,-0.17686 0.36831,-0.24979M286.18026,195.08401l-0.04558,-0.63816l0.3829,-0.26438l2.51618,-0.35555c-0.02431,0.1094 -0.04558,0.23521 -0.06382,0.37743c-0.01823,0.14343 -0.02735,0.26073 -0.02735,0.3519c-0.55915,0.09117 -1.01012,0.16531 -1.3529,0.22244c-0.344,0.05835 -0.6102,0.10575 -0.79861,0.14222c-0.18841,0.03647 -0.32516,0.06685 -0.41025,0.09117c-0.08509,0.02431 -0.15194,0.04862 -0.20056,0.07293M286.18026,195.08401c-0.02431,-0.07293 -0.06078,-0.15681 -0.1094,-0.25162c-0.04862,-0.0936 -0.1015,-0.1878 -0.15863,-0.28261c-0.05835,-0.0936 -0.11183,-0.17078 -0.16045,-0.23156c0.10332,-0.0547 0.21454,-0.14769 0.33367,-0.27897c0.11791,-0.13006 0.17686,-0.29842 0.17686,-0.50506v-0.87519l0.94812,0.01823v1.486c0,0 -0.03464,0.02127 -0.10393,0.06382c-0.0705,0.04254 -0.1562,0.10028 -0.25709,0.17322c-0.09967,0.07293 -0.20117,0.1489 -0.30449,0.22791c-0.10332,0.07901 -0.18962,0.15924 -0.25891,0.24068c-0.0705,0.08266 -0.10575,0.15437 -0.10575,0.21515zM297.41189,188.58389h3.60105v0.93901h-3.60105v-0.93901M300.51153,188.58389h0.95724c0,0 0,0.02856 0,0.0857c0,0.05835 -0.00122,0.12399 -0.00365,0.19692c-0.00365,0.07293 -0.00547,0.13067 -0.00547,0.17322c-0.02431,0.92989 -0.04984,1.71817 -0.07658,2.36484c-0.02796,0.64789 -0.06017,1.18151 -0.09664,1.60087c-0.03647,0.41936 -0.08205,0.74756 -0.13675,0.98459c-0.0547,0.23703 -0.12155,0.40721 -0.20056,0.51053c-0.10332,0.14587 -0.2115,0.24736 -0.32455,0.30449c-0.11183,0.05835 -0.24676,0.10271 -0.40478,0.1331c-0.14587,0.01823 -0.3282,0.02856 -0.547,0.031c-0.2188,0.00365 -0.44671,-0.00061 -0.68374,-0.01276c-0.01216,-0.13979 -0.04437,-0.30085 -0.09664,-0.48318c-0.05105,-0.18233 -0.11912,-0.34035 -0.20421,-0.47406c0.23095,0.01823 0.44246,0.02856 0.63451,0.031c0.19084,0.00365 0.33488,0.00547 0.43213,0.00547c0.07901,0.00608 0.14404,-0.00182 0.19509,-0.0237c0.05227,-0.02066 0.10271,-0.06138 0.15134,-0.12216c0.0547,-0.06685 0.10332,-0.20664 0.14587,-0.41936c0.04254,-0.21272 0.07901,-0.51661 0.1094,-0.91166c0.03039,-0.39505 0.05774,-0.90133 0.08205,-1.51882c0.02431,-0.61628 0.04862,-1.36506 0.07293,-2.24633v-0.20968M298.52411,186.73322h0.96636c0,0.68678 -0.00729,1.35837 -0.02188,2.01477c-0.0158,0.65639 -0.05409,1.28665 -0.11487,1.89078c-0.06078,0.60534 -0.15802,1.17847 -0.29173,1.71939c-0.13371,0.54092 -0.31604,1.03929 -0.547,1.49512c-0.23095,0.45583 -0.52876,0.86304 -0.89343,1.22162c-0.0547,-0.08509 -0.12459,-0.17504 -0.20968,-0.26985c-0.08509,-0.0936 -0.17322,-0.18294 -0.26438,-0.26803c-0.09117,-0.08509 -0.17929,-0.15194 -0.26438,-0.20056c0.33428,-0.31604 0.60656,-0.67949 0.81685,-1.09034c0.20907,-0.40964 0.37013,-0.85939 0.48318,-1.34925c0.11183,-0.48865 0.19206,-1.01133 0.24068,-1.56805c0.04862,-0.5555 0.07779,-1.13593 0.08752,-1.74127c0.00851,-0.60413 0.01276,-1.22223 0.01276,-1.85431M293.56469,187.28933h3.5737v0.86608h-3.5737v-0.86608M293.25473,189.42261h4.03865v0.88431h-4.03865v-0.88431M295.89854,191.16388l0.79314,-0.2188c0.1094,0.26134 0.22184,0.54213 0.33731,0.84237c0.11548,0.30146 0.22184,0.59319 0.31908,0.87519c0.09724,0.28322 0.17018,0.52815 0.2188,0.7348l-0.84784,0.2735c-0.04254,-0.21272 -0.10818,-0.46373 -0.19692,-0.75303c-0.08752,-0.28808 -0.18598,-0.58589 -0.29538,-0.89343c-0.1094,-0.30632 -0.2188,-0.59319 -0.3282,-0.86061M293.63762,194.05384l-0.09117,-0.82049l0.42848,-0.31908l2.95377,-0.67463c0.01216,0.12155 0.0316,0.26438 0.05835,0.42848c0.02796,0.1641 0.05713,0.29781 0.08752,0.40113c-0.55915,0.13371 -1.02714,0.24919 -1.40395,0.34643c-0.37682,0.09724 -0.68678,0.17929 -0.92989,0.24615c-0.24311,0.06685 -0.43577,0.12459 -0.57799,0.17322c-0.14343,0.04862 -0.25466,0.08813 -0.33367,0.11852c-0.07901,0.03039 -0.14283,0.06382 -0.19145,0.10028M293.62851,194.05384c-0.01216,-0.06685 -0.03647,-0.15498 -0.07293,-0.26438c-0.03647,-0.1094 -0.07597,-0.22062 -0.11852,-0.33367c-0.04254,-0.11183 -0.08205,-0.20725 -0.11852,-0.28626c0.08509,-0.02431 0.16106,-0.08995 0.22791,-0.19692c0.06685,-0.10575 0.13979,-0.24372 0.2188,-0.41389c0.03647,-0.08509 0.0863,-0.22184 0.14951,-0.41025c0.06442,-0.18841 0.13493,-0.40903 0.2115,-0.66186c0.07536,-0.25162 0.14951,-0.52512 0.22244,-0.82049c0.07293,-0.29416 0.13371,-0.58407 0.18233,-0.86972l0.96636,0.2735c-0.09117,0.40113 -0.2036,0.80834 -0.33731,1.22162c-0.13371,0.41328 -0.27654,0.81138 -0.42848,1.19427c-0.15194,0.3829 -0.30389,0.72629 -0.45583,1.03017v0.02735c0,0 -0.03343,0.01641 -0.10028,0.04923c-0.06685,0.03403 -0.14283,0.0784 -0.22791,0.1331c-0.08509,0.0547 -0.15924,0.11061 -0.22244,0.16775c-0.06442,0.05835 -0.09664,0.11183 -0.09664,0.16045zM303.20092,188.04601h2.78967v6.08988h-2.78967v-0.86608h1.89625v-4.36684h-1.89625v-0.85696M302.62658,188.04601h0.89343v6.78274h-0.89343v-6.78274M303.15534,190.50749h2.38855v0.84784h-2.38855v-0.84784M303.94848,186.56001l1.06664,0.1641c-0.09724,0.29781 -0.20056,0.59683 -0.30996,0.89707c-0.1094,0.30146 -0.20968,0.55854 -0.30085,0.77126l-0.78403,-0.18233c0.04254,-0.15194 0.0863,-0.32516 0.13128,-0.51965c0.04619,-0.19449 0.08752,-0.3908 0.12399,-0.58893c0.03647,-0.19692 0.06078,-0.37743 0.07293,-0.54153M307.22133,187.99131h2.70763v0.89343h-2.70763v-0.89343M309.58253,187.99131h0.91166c0,0 0,0.02856 0,0.0857c0,0.05835 0,0.12216 0,0.19145c0,0.0705 -0.00304,0.12702 -0.00912,0.16957c-0.03039,1.03321 -0.0626,1.9084 -0.09664,2.62558c-0.03282,0.71717 -0.07232,1.30671 -0.11852,1.76862c-0.04497,0.46191 -0.09785,0.82171 -0.15863,1.0794c-0.06078,0.25891 -0.13979,0.44914 -0.23703,0.5707c-0.12155,0.1641 -0.24615,0.27654 -0.37378,0.33731c-0.12763,0.06078 -0.28261,0.10636 -0.46495,0.13675c-0.1641,0.01823 -0.37378,0.02735 -0.62904,0.02735c-0.25526,0 -0.51661,-0.00608 -0.78403,-0.01823c-0.00608,-0.13371 -0.03768,-0.29173 -0.09481,-0.47406c-0.05835,-0.18233 -0.13614,-0.34035 -0.23338,-0.47406c0.29781,0.02431 0.57131,0.0395 0.82049,0.04558c0.24919,0.00608 0.43152,0.00912 0.547,0.00912c0.09117,0 0.16531,-0.01094 0.22244,-0.03282c0.05835,-0.02066 0.11791,-0.06138 0.17869,-0.12216c0.07293,-0.08509 0.13675,-0.25101 0.19145,-0.49777c0.0547,-0.24554 0.10028,-0.59319 0.13675,-1.04294c0.03647,-0.44975 0.07111,-1.02106 0.10393,-1.71392c0.03403,-0.69286 0.06321,-1.51943 0.08752,-2.47971v-0.19145M307.29427,186.56001l0.93901,0.2188c-0.11548,0.44975 -0.25405,0.89464 -0.41572,1.33467c-0.16045,0.44124 -0.33792,0.85635 -0.53241,1.24533c-0.19449,0.38897 -0.39505,0.72933 -0.60169,1.02106c-0.06078,-0.0547 -0.13979,-0.11852 -0.23703,-0.19145c-0.09724,-0.07293 -0.19753,-0.14465 -0.30085,-0.21515c-0.10332,-0.06929 -0.19145,-0.12216 -0.26438,-0.15863c0.20056,-0.26134 0.39019,-0.56705 0.56887,-0.91713c0.1799,-0.34886 0.34157,-0.72386 0.485,-1.12499c0.14222,-0.40113 0.26195,-0.8053 0.35919,-1.21251M306.85667,190.54395l0.76579,-0.42848c0.15194,0.20664 0.31604,0.43577 0.4923,0.68739c0.17625,0.25283 0.34157,0.49594 0.49594,0.72933c0.15559,0.2346 0.27897,0.44307 0.37013,0.6254l-0.82961,0.51053c-0.08509,-0.18841 -0.20056,-0.40417 -0.34643,-0.64728c-0.14587,-0.24311 -0.30267,-0.49412 -0.47042,-0.75303c-0.16653,-0.2577 -0.32577,-0.49898 -0.47771,-0.72386zM315.28951,189.3041h3.31844v0.92989h-3.31844v-0.92989M311.66111,194.26352c0.20056,-0.17625 0.42848,-0.38897 0.68374,-0.63816c0.25526,-0.24919 0.51843,-0.51539 0.7895,-0.79861c0.26985,-0.28201 0.52937,-0.56584 0.77856,-0.85149l0.53788,0.74756c-0.21272,0.26134 -0.4376,0.52694 -0.67463,0.79679c-0.23703,0.27107 -0.47589,0.53727 -0.71656,0.79861c-0.23946,0.26134 -0.47771,0.51053 -0.71474,0.74756l-0.68374,-0.80226M312.03489,189.60495l0.547,-0.63816c0.17018,0.09117 0.3598,0.19449 0.56887,0.30996c0.21029,0.11548 0.41268,0.22913 0.60716,0.34096c0.19449,0.11305 0.35555,0.21211 0.48318,0.2972l-0.57434,0.72933c-0.11548,-0.09117 -0.27046,-0.19753 -0.46495,-0.31908c-0.19449,-0.12155 -0.39505,-0.24615 -0.60169,-0.37378c-0.20664,-0.12763 -0.39505,-0.24311 -0.56523,-0.34643M311.47878,191.29151l0.53788,-0.65639c0.17018,0.07901 0.36041,0.17322 0.5707,0.28261c0.20907,0.1094 0.41207,0.21576 0.60899,0.31908c0.19813,0.10332 0.36406,0.19753 0.49777,0.28261l-0.55611,0.73844c-0.12155,-0.09117 -0.27836,-0.19327 -0.47042,-0.30632c-0.19084,-0.11183 -0.39141,-0.22731 -0.60169,-0.34643c-0.20907,-0.11791 -0.40478,-0.22244 -0.58711,-0.31361M318.10654,189.3041h0.97547v2.26091c0,0.23703 -0.03221,0.42666 -0.09664,0.56887c-0.06321,0.14343 -0.18902,0.25162 -0.37743,0.32455c-0.18233,0.07293 -0.40599,0.11669 -0.67098,0.13128c-0.26377,0.0158 -0.57799,0.0237 -0.94265,0.0237c-0.02431,-0.13979 -0.07172,-0.29781 -0.14222,-0.47406c-0.06929,-0.17625 -0.14343,-0.32516 -0.22244,-0.44671c0.18233,0.00608 0.3598,0.01033 0.53241,0.01276c0.17382,0.00365 0.32759,0.00365 0.4613,0c0.13371,-0.00243 0.22488,-0.00365 0.2735,-0.00365c0.07901,0 0.13371,-0.01094 0.1641,-0.03282c0.03039,-0.02066 0.04558,-0.05835 0.04558,-0.11305v-2.2518M314.74252,189.3041h1.01194v4.18451c0,0.14587 0.01641,0.25648 0.04923,0.33184c0.03403,0.07658 0.09967,0.12702 0.19692,0.15134c0.09724,0.02431 0.24311,0.03647 0.4376,0.03647c0.0547,0 0.14283,0 0.26438,0c0.12155,0 0.2583,0 0.41025,0c0.15194,0 0.3051,0 0.45948,0c0.15559,0 0.2972,0 0.42483,0c0.12763,0 0.22488,0 0.29173,0c0.17018,0 0.29781,-0.02917 0.3829,-0.08752c0.08509,-0.05713 0.1489,-0.16957 0.19145,-0.33731c0.04254,-0.16653 0.07293,-0.40781 0.09117,-0.72386c0.12155,0.07293 0.27167,0.14587 0.45036,0.2188c0.1799,0.07293 0.33975,0.12763 0.47953,0.1641c-0.04254,0.43152 -0.11426,0.77005 -0.21515,1.01559c-0.09967,0.24676 -0.25162,0.41997 -0.45583,0.51965c-0.203,0.10089 -0.48379,0.15134 -0.84237,0.15134c-0.06078,0 -0.15984,0 -0.2972,0c-0.13614,0 -0.29112,0 -0.46495,0c-0.17261,0 -0.34582,0 -0.51965,0c-0.17261,0 -0.32577,0 -0.45948,0c-0.13371,0 -0.22791,0 -0.28261,0c-0.40721,0 -0.72933,-0.04133 -0.96636,-0.12399c-0.23703,-0.08144 -0.40295,-0.22548 -0.49777,-0.43213c-0.0936,-0.20664 -0.1404,-0.49837 -0.1404,-0.87519v-4.19363M311.50613,187.2711h8.19581v0.90254h-8.19581v-0.90254M313.42973,186.56912h1.00282v2.37943h-1.00282v-2.37943M316.74816,186.56912h1.01194v2.37943h-1.01194zM322.14518,191.20035h4.59476v0.79314h-4.59476v-0.79314M322.61924,189.87844h4.19363v0.75668h-4.19363v-0.75668M324.1873,187.95484h0.90254v5.67052h-0.90254v-5.67052M322.25458,188.54742h4.89561v0.78403h-4.89561v-0.78403M326.45733,191.20035h0.85696c0,0 -0.00122,0.03647 -0.00365,0.1094c-0.00365,0.07293 -0.01155,0.13675 -0.0237,0.19145c-0.03647,0.46191 -0.08083,0.81259 -0.1331,1.05205c-0.05105,0.24068 -0.12216,0.40964 -0.21333,0.50688c-0.07293,0.07901 -0.14708,0.13493 -0.22244,0.16775c-0.07658,0.03403 -0.16653,0.05713 -0.26985,0.06929c-0.08509,0.00608 -0.2036,0.01216 -0.35555,0.01823c-0.15194,0.00608 -0.30996,0.00608 -0.47406,0c-0.00608,-0.12155 -0.02735,-0.25223 -0.06382,-0.39201c-0.03647,-0.13979 -0.08205,-0.26134 -0.13675,-0.36466c0.13371,0.01823 0.25223,0.02856 0.35555,0.031c0.10332,0.00365 0.18233,0.00547 0.23703,0.00547c0.0547,0 0.09846,-0.00486 0.13128,-0.01459c0.03403,-0.00851 0.06625,-0.02796 0.09664,-0.05835c0.04862,-0.0547 0.08934,-0.172 0.12216,-0.3519c0.03403,-0.17869 0.06625,-0.46859 0.09664,-0.86972v-0.10028M320.83239,186.89732h7.78556v8.17758h-0.94812v-7.32973h-5.92578v7.32973h-0.91166v-8.17758M321.40674,193.84416h6.74627v0.81138h-6.74627zM330.94269,195.46691l-0.26438,-0.66551c0.3829,-0.12763 0.67463,-0.30085 0.87519,-0.51965c0.20056,-0.2188 0.30085,-0.47102 0.30085,-0.75668l-0.09117,-0.86608l0.50141,0.78403c-0.07293,0.07293 -0.15498,0.12459 -0.24615,0.15498c-0.09117,0.03039 -0.18537,0.04558 -0.28261,0.04558c-0.21272,0 -0.40295,-0.06685 -0.5707,-0.20056c-0.16653,-0.13371 -0.24979,-0.32212 -0.24979,-0.56523c0,-0.24919 0.08326,-0.44063 0.24979,-0.57434c0.16775,-0.13371 0.36406,-0.20056 0.58893,-0.20056c0.30389,0 0.53484,0.10758 0.69286,0.32273c0.15802,0.21637 0.23703,0.50688 0.23703,0.87155c0,0.51053 -0.15498,0.95724 -0.46495,1.34014c-0.30996,0.3829 -0.7354,0.65943 -1.27632,0.82961zM341.59086,190.11547h5.59758v0.87519h-5.59758v-0.87519M345.32866,190.67159l1.06664,0.04558c-0.15194,0.86304 -0.40295,1.58142 -0.75303,2.15516c-0.34886,0.57495 -0.81502,1.03868 -1.39848,1.39119c-0.58346,0.35251 -1.30975,0.63512 -2.17886,0.84784c-0.02431,-0.07901 -0.0626,-0.17018 -0.11487,-0.2735c-0.05105,-0.10332 -0.10697,-0.20847 -0.16775,-0.31543c-0.06078,-0.10575 -0.12155,-0.19206 -0.18233,-0.25891c0.77795,-0.15194 1.42644,-0.37074 1.94548,-0.65639c0.52025,-0.28565 0.92624,-0.66733 1.21798,-1.14504c0.29173,-0.47649 0.48014,-1.07333 0.56523,-1.7905M342.1105,192.46755l0.63816,-0.63816c0.35859,0.17018 0.74331,0.3598 1.15416,0.56887c0.40964,0.21029 0.81806,0.42909 1.22527,0.65639c0.40721,0.22852 0.78889,0.4534 1.14504,0.67463c0.35494,0.22244 0.657,0.42787 0.90619,0.61628l-0.69286,0.75668c-0.23703,-0.18841 -0.52755,-0.39687 -0.87155,-0.6254c-0.34278,-0.22731 -0.71474,-0.4613 -1.11587,-0.70198c-0.40113,-0.23946 -0.80651,-0.47163 -1.21615,-0.69651c-0.41085,-0.22488 -0.80165,-0.42848 -1.17239,-0.61081M343.7059,186.66941l0.98459,-0.15498c0.07901,0.22488 0.15498,0.46798 0.22791,0.72933c0.07293,0.26134 0.12763,0.48926 0.1641,0.68374l-1.03929,0.18233c-0.01823,-0.19449 -0.0626,-0.42848 -0.1331,-0.70198c-0.06929,-0.2735 -0.13736,-0.51965 -0.20421,-0.73844M342.1105,192.46755c0.13371,-0.23703 0.27167,-0.50324 0.41389,-0.79861c0.14343,-0.29416 0.28201,-0.60413 0.41572,-0.92989c0.13371,-0.32455 0.25709,-0.65092 0.37013,-0.97912c0.11183,-0.3282 0.20725,-0.64424 0.28626,-0.94812l1.00282,0.14587c-0.12155,0.44367 -0.27167,0.90072 -0.45036,1.37113c-0.1799,0.47163 -0.36588,0.92624 -0.55793,1.36384c-0.19084,0.4376 -0.37439,0.82657 -0.55064,1.16692l-0.92989,-0.39201M341.8917,187.654h5.17822v1.89625h-0.94812v-1.03929h-3.31844v1.03929h-0.91166v-1.89625M338.60973,191.59236c0.26742,-0.06078 0.56948,-0.13675 0.90619,-0.22791c0.33792,-0.09117 0.69529,-0.19023 1.07211,-0.2972c0.37682,-0.10575 0.75364,-0.21029 1.13046,-0.31361l0.12763,0.87519c-0.51661,0.1641 -1.04111,0.32334 -1.57352,0.47771c-0.53119,0.15559 -1.01559,0.2972 -1.45318,0.42483l-0.20968,-0.93901M338.72825,188.31951h2.97201v0.91166h-2.97201v-0.91166M339.85871,186.56912h0.94812v7.46648c0,0.24311 -0.02735,0.43152 -0.08205,0.56523c-0.0547,0.13371 -0.15498,0.23703 -0.30085,0.30996c-0.13979,0.07293 -0.31726,0.11973 -0.53241,0.1404c-0.21637,0.02188 -0.47953,0.03282 -0.7895,0.03282c-0.01823,-0.12763 -0.05348,-0.27532 -0.10575,-0.44307c-0.05105,-0.16653 -0.10697,-0.31361 -0.16775,-0.44124c0.18233,0.00608 0.35555,0.00912 0.51965,0.00912c0.1641,0 0.27654,0 0.33731,0c0.06685,0 0.11244,-0.01398 0.13675,-0.04194c0.02431,-0.02674 0.03647,-0.0705 0.03647,-0.13128zM349.93253,189.06707h4.54006v0.85696h-4.54006v-0.85696M349.29437,193.01455h6.63687v0.85696h-6.63687v-0.85696M349.57698,187.42608h6.39073v0.87519h-6.39073v-0.87519M354.08969,189.06707h0.96636c0,0 0,0.02735 0,0.08205c0,0.0547 -0.00182,0.11669 -0.00547,0.18598c-0.00243,0.0705 -0.00365,0.12702 -0.00365,0.16957c-0.02431,0.88735 -0.05166,1.63916 -0.08205,2.25544c-0.03039,0.6175 -0.06503,1.12195 -0.10393,1.51335c-0.04011,0.39262 -0.0857,0.69651 -0.13675,0.91166c-0.05227,0.21637 -0.11487,0.37317 -0.1878,0.47042c-0.10332,0.13979 -0.21272,0.23703 -0.3282,0.29173c-0.11548,0.0547 -0.24919,0.0942 -0.40113,0.11852c-0.14587,0.01216 -0.32637,0.01823 -0.54153,0.01823c-0.21637,0 -0.44003,-0.00304 -0.67098,-0.00912c-0.00608,-0.1094 -0.03039,-0.23703 -0.07293,-0.3829c-0.04254,-0.14587 -0.09724,-0.27046 -0.1641,-0.37378c0.21272,0.01823 0.40721,0.03039 0.58346,0.03647c0.17625,0.00608 0.30996,0.00608 0.40113,0c0.07901,0 0.14283,-0.00912 0.19145,-0.02735c0.04862,-0.01823 0.0942,-0.05774 0.13675,-0.11852c0.0547,-0.06685 0.10332,-0.2036 0.14587,-0.41025c0.04254,-0.20664 0.08083,-0.50141 0.11487,-0.88431c0.03282,-0.3829 0.06138,-0.87398 0.0857,-1.47324c0.02431,-0.59805 0.04862,-1.32251 0.07293,-2.17339v-0.20056M349.4767,189.06707h0.97547c-0.04254,0.39505 -0.09117,0.80955 -0.14587,1.2435c-0.0547,0.43516 -0.11122,0.86851 -0.16957,1.30002c-0.05713,0.43152 -0.11608,0.83994 -0.17686,1.22527c-0.06078,0.38654 -0.11852,0.73176 -0.17322,1.03564h-1.00282c0.06078,-0.30996 0.12459,-0.66126 0.19145,-1.05388c0.06685,-0.39141 0.13189,-0.80287 0.19509,-1.23439c0.06442,-0.43152 0.12095,-0.86304 0.16957,-1.29455c0.04862,-0.43152 0.0942,-0.83873 0.13675,-1.22162M349.89606,186.51442l0.97547,0.28261c-0.18233,0.41936 -0.39505,0.83082 -0.63816,1.23439c-0.24311,0.40478 -0.49837,0.78342 -0.76579,1.13593c-0.26742,0.35251 -0.53484,0.66247 -0.80226,0.92989c-0.06685,-0.04862 -0.15377,-0.1094 -0.26073,-0.18233c-0.10575,-0.07293 -0.21333,-0.14465 -0.32273,-0.21515c-0.1094,-0.06929 -0.20664,-0.1252 -0.29173,-0.16775c0.28565,-0.23703 0.55915,-0.51843 0.82049,-0.8442c0.26134,-0.32455 0.50263,-0.6722 0.72386,-1.04294c0.22244,-0.37074 0.40964,-0.74756 0.56158,-1.13046M351.06299,190.29781l0.547,-0.52876c0.17625,0.07901 0.36345,0.17139 0.56158,0.27714c0.19692,0.10697 0.38047,0.21819 0.55064,0.33367c0.17018,0.11548 0.30996,0.22488 0.41936,0.3282l-0.57434,0.58346c-0.10332,-0.10332 -0.23703,-0.21576 -0.40113,-0.33731c-0.1641,-0.12155 -0.34218,-0.24007 -0.53423,-0.35555c-0.19084,-0.11548 -0.38047,-0.21576 -0.56887,-0.30085M350.91712,192.22141l0.53788,-0.52876c0.18841,0.08509 0.3829,0.18537 0.58346,0.30085c0.20056,0.11548 0.38897,0.23399 0.56523,0.35555c0.17625,0.12155 0.31908,0.23703 0.42848,0.34643l-0.56523,0.59258c-0.10332,-0.11548 -0.24189,-0.23703 -0.41572,-0.36466c-0.17261,-0.12763 -0.35798,-0.25405 -0.55611,-0.37925c-0.19692,-0.12399 -0.38958,-0.23156 -0.57799,-0.32273M347.84483,191.01802h1.85978v0.02735h4.81356v-0.02735h1.78685v0.87519h-1.78685v-0.02735h-4.81356v0.02735h-1.85978zM359.45024,194.29087v-0.97547h1.46777v-4.46713h-1.22162v-0.74756c0.3282,-0.06078 0.61203,-0.13553 0.85149,-0.22427c0.24068,-0.08752 0.4613,-0.19509 0.66186,-0.32273h0.89343v5.76168h1.29455v0.97547zM368.25686,189.17647h6.37249v0.77491h-6.37249v-0.77491M368.33891,191.82939h5.06882v0.77491h-5.06882v-0.77491M369.55142,188.52007h0.92989v2.1424h1.82332v-2.1424h0.95724v2.88996h-3.71045v-2.88996M373.15247,191.82939h0.19145l0.17322,-0.03647l0.61081,0.31908c-0.24919,0.47406 -0.57434,0.87945 -0.97547,1.21615c-0.40113,0.33792 -0.85696,0.61932 -1.36749,0.8442c-0.51053,0.22488 -1.06056,0.40417 -1.6501,0.53788c-0.58954,0.13371 -1.20339,0.23703 -1.84155,0.30996c-0.03647,-0.11548 -0.09299,-0.25405 -0.16957,-0.41572c-0.07536,-0.16045 -0.15255,-0.29538 -0.23156,-0.40478c0.58346,-0.04254 1.14869,-0.1173 1.69568,-0.22427c0.547,-0.10575 1.05266,-0.24676 1.517,-0.42301c0.46555,-0.17625 0.87458,-0.39687 1.22709,-0.66186c0.35251,-0.26377 0.62601,-0.57495 0.82049,-0.93354v-0.12763M369.86138,192.42197c0.29781,0.35251 0.69408,0.65336 1.1888,0.90254c0.49594,0.24919 1.06907,0.44793 1.71939,0.59622c0.65032,0.14951 1.34925,0.25162 2.09681,0.30632c-0.06685,0.06685 -0.13675,0.15194 -0.20968,0.25526c-0.07293,0.10332 -0.14161,0.20664 -0.20603,0.30996c-0.06321,0.10332 -0.11305,0.19753 -0.14951,0.28261c-0.77795,-0.07901 -1.49998,-0.21454 -2.1661,-0.4066c-0.6649,-0.19084 -1.2587,-0.4461 -1.78138,-0.76579c-0.52268,-0.31847 -0.96636,-0.70562 -1.33102,-1.16145l0.83873,-0.31908M367.54577,187.38962h7.17475v0.91166h-7.17475v-0.91166M367.08994,187.38962h0.96636v2.44324c0,0.37682 -0.01094,0.79132 -0.03282,1.2435c-0.02066,0.4534 -0.06138,0.91713 -0.12216,1.39119c-0.06078,0.47406 -0.1489,0.93293 -0.26438,1.3766c-0.11548,0.44367 -0.26742,0.85088 -0.45583,1.22162c-0.06685,-0.04862 -0.15498,-0.10028 -0.26438,-0.15498c-0.1094,-0.0547 -0.22062,-0.10818 -0.33367,-0.16045c-0.11183,-0.05105 -0.21029,-0.0857 -0.29538,-0.10393c0.18233,-0.35251 0.3282,-0.73419 0.4376,-1.14504c0.1094,-0.40964 0.18962,-0.83022 0.24068,-1.26174c0.05227,-0.43152 0.0857,-0.8527 0.10028,-1.26356c0.0158,-0.40964 0.0237,-0.78767 0.0237,-1.1341v-2.45236M370.28075,186.73322l0.98459,-0.22791c0.10332,0.19449 0.19874,0.40721 0.28626,0.63816c0.08873,0.23095 0.15134,0.42848 0.1878,0.59258l-1.04841,0.25526c-0.02431,-0.17018 -0.07597,-0.37378 -0.15498,-0.61081c-0.07901,-0.23703 -0.1641,-0.45279 -0.25526,-0.64728zM375.73246,192.7137c-0.01216,-0.06685 -0.03647,-0.15498 -0.07293,-0.26438c-0.03647,-0.1094 -0.07597,-0.22488 -0.11852,-0.34643c-0.04254,-0.12155 -0.08509,-0.22488 -0.12763,-0.30996c0.12155,-0.02431 0.24129,-0.08691 0.35919,-0.1878c0.11912,-0.09967 0.25162,-0.22852 0.39748,-0.38654c0.08509,-0.08509 0.2036,-0.2188 0.35555,-0.40113c0.15194,-0.18233 0.32334,-0.40113 0.51418,-0.65639c0.19206,-0.25526 0.3835,-0.53059 0.57434,-0.82596c0.19206,-0.29416 0.37013,-0.59622 0.53423,-0.90619l0.84784,0.547c-0.37074,0.59562 -0.78403,1.17725 -1.23986,1.74491c-0.45583,0.56887 -0.91166,1.06603 -1.36749,1.49147v0.02735c0,0 -0.03343,0.01519 -0.10028,0.04558c-0.06685,0.03039 -0.14283,0.06989 -0.22791,0.11852c-0.08509,0.04862 -0.16106,0.1015 -0.22791,0.15863c-0.06685,0.05835 -0.10028,0.10879 -0.10028,0.15134M375.73246,192.7137l-0.0547,-0.80226l0.4376,-0.30996l2.53441,-0.42848c-0.01823,0.12763 -0.02917,0.27654 -0.03282,0.44671c-0.00243,0.17018 -0.00061,0.30693 0.00547,0.41025c-0.57131,0.1094 -1.03321,0.20056 -1.38572,0.2735c-0.35251,0.07293 -0.62783,0.13371 -0.82596,0.18233c-0.19692,0.04862 -0.344,0.09117 -0.44124,0.12763c-0.09724,0.03647 -0.17625,0.06989 -0.23703,0.10028M375.66865,190.49837c-0.01216,-0.06685 -0.03647,-0.15498 -0.07293,-0.26438c-0.03647,-0.1094 -0.07597,-0.22488 -0.11852,-0.34643c-0.04254,-0.12155 -0.08509,-0.22184 -0.12763,-0.30085c0.09117,-0.02431 0.18051,-0.08387 0.26803,-0.17869c0.08873,-0.0936 0.18172,-0.21637 0.27897,-0.36831c0.0547,-0.07293 0.13067,-0.19327 0.22791,-0.36102c0.09724,-0.16653 0.2036,-0.36527 0.31908,-0.59622c0.11548,-0.23095 0.23217,-0.47892 0.35008,-0.74391c0.11912,-0.26377 0.22123,-0.52937 0.30632,-0.79679l0.92077,0.42848c-0.15802,0.35859 -0.3361,0.72021 -0.53423,1.08487c-0.19692,0.36466 -0.40478,0.71231 -0.62357,1.04294c-0.2188,0.33184 -0.4376,0.63148 -0.65639,0.8989v0.02735c0,0 -0.02735,0.01519 -0.08205,0.04558c-0.0547,0.03039 -0.11852,0.07111 -0.19145,0.12216c-0.07293,0.05227 -0.13553,0.10575 -0.1878,0.16045c-0.05105,0.0547 -0.07658,0.10332 -0.07658,0.14587M375.66865,190.49837l-0.02735,-0.71109l0.4376,-0.28261l1.74127,-0.14587c-0.03039,0.12155 -0.05348,0.25952 -0.06929,0.41389c-0.01459,0.15559 -0.02492,0.28505 -0.031,0.38837c-0.39505,0.04254 -0.71596,0.08023 -0.96271,0.11305c-0.24554,0.03403 -0.44003,0.06321 -0.58346,0.08752c-0.14222,0.02431 -0.24979,0.0468 -0.32273,0.06746c-0.07293,0.02188 -0.13371,0.04497 -0.18233,0.06929M375.44985,193.64359c0.26134,-0.04862 0.55915,-0.11122 0.89343,-0.1878c0.33428,-0.07536 0.68982,-0.15863 1.06664,-0.24979c0.37682,-0.09117 0.75668,-0.18233 1.13957,-0.2735l0.1094,0.84784c-0.52268,0.15194 -1.05023,0.30085 -1.58264,0.44671c-0.53119,0.14587 -1.01255,0.27654 -1.44407,0.39201l-0.18233,-0.97547M379.00532,187.03407h3.67398v0.88431h-3.67398v-0.88431M382.42404,187.03407h0.19145l0.18233,-0.04558l0.69286,0.35555c-0.21272,0.45583 -0.4771,0.87337 -0.79314,1.25262c-0.31604,0.38047 -0.67341,0.72568 -1.07211,1.03564c-0.39748,0.30996 -0.81988,0.58346 -1.26721,0.82049c-0.4461,0.23703 -0.90315,0.4376 -1.37113,0.60169c-0.04254,-0.08509 -0.09724,-0.17808 -0.1641,-0.27897c-0.06685,-0.09967 -0.13675,-0.19996 -0.20968,-0.30085c-0.07293,-0.09967 -0.14283,-0.18294 -0.20968,-0.24979c0.42544,-0.13371 0.84298,-0.30085 1.25262,-0.50141c0.41085,-0.20056 0.79557,-0.43152 1.15416,-0.69286c0.35859,-0.26134 0.67767,-0.547 0.95724,-0.85696c0.27958,-0.30996 0.49837,-0.63816 0.65639,-0.98459v-0.15498M378.54037,193.95356h5.42437v0.91166h-5.42437v-0.91166M380.78305,191.81116h0.97547v2.44324h-0.97547v-2.44324M379.08737,191.2277h4.42154v0.89343h-4.42154v-0.89343M380.84687,189.69611l0.52876,-0.69286c0.28565,0.1094 0.59683,0.24007 0.93354,0.39201c0.33792,0.15194 0.66308,0.3051 0.97547,0.45948c0.31361,0.15559 0.5707,0.30024 0.77126,0.43395l-0.57434,0.79314c-0.18841,-0.13371 -0.43334,-0.28444 -0.7348,-0.45218c-0.30024,-0.16653 -0.6175,-0.33367 -0.95177,-0.50141c-0.33428,-0.16653 -0.65032,-0.31057 -0.94812,-0.43213zM384.86728,192.7137c-0.01823,-0.0547 -0.04254,-0.13249 -0.07293,-0.23338c-0.03039,-0.09967 -0.06382,-0.203 -0.10028,-0.30996c-0.03647,-0.10575 -0.06989,-0.19509 -0.10028,-0.26803c0.10332,-0.02431 0.20786,-0.08813 0.31361,-0.19145c0.10697,-0.10332 0.23035,-0.23703 0.37013,-0.40113c0.07293,-0.07901 0.17929,-0.2115 0.31908,-0.39748c0.13979,-0.18476 0.29477,-0.40781 0.46495,-0.66916c0.17018,-0.26134 0.34339,-0.54274 0.51965,-0.8442c0.17625,-0.30024 0.33731,-0.6023 0.48318,-0.90619l0.72021,0.46495c-0.33428,0.60777 -0.70806,1.20035 -1.12134,1.77773c-0.41328,0.57738 -0.82657,1.08487 -1.23986,1.52247v0.02735c0,0 -0.02917,0.01337 -0.08752,0.04011c-0.05713,0.02796 -0.12216,0.06442 -0.19509,0.1094c-0.07293,0.04619 -0.13675,0.0936 -0.19145,0.14222c-0.0547,0.04862 -0.08205,0.0942 -0.08205,0.13675M384.86728,192.7137l-0.0547,-0.73844l0.39201,-0.30085l2.40678,-0.4376c-0.01216,0.12763 -0.02006,0.26864 -0.0237,0.42301c-0.00243,0.15559 -0.00061,0.27897 0.00547,0.37013c-0.547,0.11548 -0.98945,0.20968 -1.32737,0.28261c-0.33671,0.07293 -0.59805,0.13371 -0.78403,0.18233c-0.18476,0.04862 -0.32151,0.08934 -0.41025,0.12216c-0.08752,0.03403 -0.15559,0.06625 -0.20421,0.09664M384.79435,190.49837c-0.01823,-0.06078 -0.04437,-0.14465 -0.0784,-0.25162c-0.03282,-0.10575 -0.06746,-0.21637 -0.10393,-0.33184c-0.03647,-0.11548 -0.07293,-0.21272 -0.1094,-0.29173c0.09117,-0.02431 0.17625,-0.08387 0.25526,-0.17869c0.07901,-0.0936 0.16714,-0.21941 0.26438,-0.37743c0.04862,-0.06685 0.11852,-0.18537 0.20968,-0.35555c0.09117,-0.17018 0.19449,-0.37256 0.30996,-0.60716c0.11548,-0.23338 0.22609,-0.48561 0.33184,-0.75668c0.10697,-0.26985 0.203,-0.53849 0.28808,-0.80591l0.84784,0.41936c-0.14587,0.35859 -0.313,0.72143 -0.50141,1.08852c-0.18841,0.36831 -0.38594,0.7196 -0.59258,1.05388c-0.20664,0.33428 -0.41632,0.63816 -0.62904,0.91166v0.01823c0,0 -0.02613,0.01641 -0.0784,0.04923c-0.05105,0.03403 -0.10879,0.07536 -0.17322,0.12399c-0.06321,0.04862 -0.11912,0.09846 -0.16775,0.14951c-0.04862,0.05227 -0.07293,0.09967 -0.07293,0.14222M384.79435,190.49837l-0.02735,-0.66551l0.3829,-0.2735l1.50424,-0.13675c-0.01823,0.11548 -0.03647,0.24736 -0.0547,0.39566c-0.01823,0.14951 -0.02735,0.27289 -0.02735,0.37013c-0.34035,0.03647 -0.61689,0.06989 -0.82961,0.10028c-0.21272,0.03039 -0.38168,0.05774 -0.50688,0.08205c-0.12399,0.02431 -0.21819,0.04558 -0.28261,0.06382c-0.06321,0.01823 -0.11608,0.0395 -0.15863,0.06382M384.59378,193.70741c0.26742,-0.0547 0.57738,-0.12155 0.92989,-0.20056c0.35251,-0.07901 0.7275,-0.1641 1.12499,-0.25526c0.3987,-0.09117 0.79557,-0.18233 1.19063,-0.2735l0.08205,0.80226c-0.55307,0.15194 -1.10797,0.30206 -1.66469,0.45036c-0.5555,0.14951 -1.05813,0.28505 -1.50788,0.4066l-0.15498,-0.92989M387.9578,187.7634h4.74974v0.90254h-4.74974v-0.90254M388.14013,189.4135h4.28479v0.91166h-4.28479v-0.91166M392.12408,191.10007h0.84784c0,0 -0.00182,0.04254 -0.00547,0.12763c-0.00243,0.08509 -0.00669,0.15498 -0.01276,0.20968c-0.03647,0.53484 -0.07476,0.97547 -0.11487,1.3219c-0.0389,0.34643 -0.08266,0.61507 -0.13128,0.80591c-0.04862,0.19206 -0.1094,0.33063 -0.18233,0.41572c-0.07293,0.08509 -0.15073,0.14708 -0.23338,0.18598c-0.08144,0.04011 -0.17686,0.06929 -0.28626,0.08752c-0.08509,0.01216 -0.19631,0.01945 -0.33367,0.02188c-0.13614,0.00365 -0.28322,0.00547 -0.44124,0.00547c-0.00608,-0.12763 -0.02735,-0.26924 -0.06382,-0.42483c-0.03647,-0.15437 -0.08509,-0.28322 -0.14587,-0.38654c0.12763,0.01216 0.23825,0.01945 0.33184,0.02188c0.09481,0.00365 0.17261,0.00547 0.23338,0.00547c0.04862,0 0.09117,-0.00608 0.12763,-0.01823c0.03647,-0.01216 0.07293,-0.03647 0.1094,-0.07293c0.04254,-0.0547 0.08205,-0.15802 0.11852,-0.30996c0.03647,-0.15194 0.06989,-0.37864 0.10028,-0.6801c0.03039,-0.30024 0.05774,-0.69651 0.08205,-1.1888v-0.12763M387.82105,191.10007h4.52183v0.91166h-4.52183v-0.91166M389.7173,186.56001h1.02106v8.50577h-1.02106zM394.65849,188.04601h2.78967v6.08988h-2.78967v-0.86608h1.89625v-4.36684h-1.89625v-0.85696M394.08415,188.04601h0.89343v6.78274h-0.89343v-6.78274M394.61291,190.50749h2.38855v0.84784h-2.38855v-0.84784M395.40605,186.56001l1.06664,0.1641c-0.09724,0.29781 -0.20056,0.59683 -0.30996,0.89707c-0.1094,0.30146 -0.20968,0.55854 -0.30085,0.77126l-0.78403,-0.18233c0.04254,-0.15194 0.0863,-0.32516 0.13128,-0.51965c0.04619,-0.19449 0.08752,-0.3908 0.12399,-0.58893c0.03647,-0.19692 0.06078,-0.37743 0.07293,-0.54153M398.67891,187.99131h2.70763v0.89343h-2.70763v-0.89343M401.0401,187.99131h0.91166c0,0 0,0.02856 0,0.0857c0,0.05835 0,0.12216 0,0.19145c0,0.0705 -0.00304,0.12702 -0.00912,0.16957c-0.03039,1.03321 -0.0626,1.9084 -0.09664,2.62558c-0.03282,0.71717 -0.07232,1.30671 -0.11852,1.76862c-0.04497,0.46191 -0.09785,0.82171 -0.15863,1.0794c-0.06078,0.25891 -0.13979,0.44914 -0.23703,0.5707c-0.12155,0.1641 -0.24615,0.27654 -0.37378,0.33731c-0.12763,0.06078 -0.28261,0.10636 -0.46495,0.13675c-0.1641,0.01823 -0.37378,0.02735 -0.62904,0.02735c-0.25526,0 -0.51661,-0.00608 -0.78403,-0.01823c-0.00608,-0.13371 -0.03829,-0.29173 -0.09664,-0.47406c-0.05713,-0.18233 -0.13432,-0.34035 -0.23156,-0.47406c0.29781,0.02431 0.57131,0.0395 0.82049,0.04558c0.24919,0.00608 0.43152,0.00912 0.547,0.00912c0.09117,0 0.16531,-0.01094 0.22244,-0.03282c0.05835,-0.02066 0.11791,-0.06138 0.17869,-0.12216c0.07293,-0.08509 0.13675,-0.25101 0.19145,-0.49777c0.0547,-0.24554 0.10028,-0.59319 0.13675,-1.04294c0.03647,-0.44975 0.07111,-1.02106 0.10393,-1.71392c0.03403,-0.69286 0.06321,-1.51943 0.08752,-2.47971v-0.19145M398.75184,186.56001l0.93901,0.2188c-0.11548,0.44975 -0.25405,0.89464 -0.41572,1.33467c-0.16045,0.44124 -0.33792,0.85635 -0.53241,1.24533c-0.19449,0.38897 -0.39505,0.72933 -0.60169,1.02106c-0.06078,-0.0547 -0.13979,-0.11852 -0.23703,-0.19145c-0.09724,-0.07293 -0.19753,-0.14465 -0.30085,-0.21515c-0.10332,-0.06929 -0.19145,-0.12216 -0.26438,-0.15863c0.20056,-0.26134 0.39019,-0.56705 0.56887,-0.91713c0.1799,-0.34886 0.34096,-0.72386 0.48318,-1.12499c0.14343,-0.40113 0.26377,-0.8053 0.36102,-1.21251M398.31424,190.54395l0.76579,-0.42848c0.15194,0.20664 0.31604,0.43577 0.4923,0.68739c0.17625,0.25283 0.34157,0.49594 0.49594,0.72933c0.15559,0.2346 0.27897,0.44307 0.37013,0.6254l-0.82961,0.51053c-0.08509,-0.18841 -0.20056,-0.40417 -0.34643,-0.64728c-0.14587,-0.24311 -0.30267,-0.49412 -0.47042,-0.75303c-0.16653,-0.2577 -0.32577,-0.49898 -0.47771,-0.72386z" fill="#ffffff" fill-rule="nonzero" stroke-width="1"/><path d="M250.29738,199.04243l0.87519,0.09117c-0.15802,1.15477 -0.39809,2.19406 -0.72021,3.11787c-0.32212,0.92381 -0.76275,1.68961 -1.3219,2.29738c-0.04862,-0.04254 -0.11973,-0.09724 -0.21333,-0.1641c-0.09481,-0.06685 -0.19206,-0.13371 -0.29173,-0.20056c-0.10089,-0.06685 -0.18476,-0.11852 -0.25162,-0.15498c0.37682,-0.35859 0.69165,-0.79193 0.94448,-1.30002c0.25162,-0.50688 0.45644,-1.07333 0.61446,-1.69933c0.15802,-0.62601 0.27958,-1.28848 0.36466,-1.98742M252.82268,199.05155l0.87519,0.10028c-0.15802,1.173 -0.40113,2.22749 -0.72933,3.16345c-0.3282,0.93597 -0.78403,1.70784 -1.36749,2.31561c-0.04862,-0.04862 -0.12155,-0.10636 -0.2188,-0.17322c-0.09724,-0.06685 -0.19266,-0.13371 -0.28626,-0.20056c-0.09481,-0.06685 -0.17869,-0.11852 -0.25162,-0.15498c0.38897,-0.35859 0.71413,-0.79314 0.97547,-1.30367c0.26134,-0.51053 0.47406,-1.08183 0.63816,-1.71392c0.1641,-0.63208 0.28565,-1.30975 0.36466,-2.033M248.51965,200.21847l0.55611,-0.57434c0.22488,0.24311 0.45279,0.50263 0.68374,0.77856c0.23095,0.27714 0.45583,0.55368 0.67463,0.82961c0.2188,0.27714 0.4224,0.54335 0.61081,0.79861c0.18841,0.25526 0.34643,0.48622 0.47406,0.69286l-0.60169,0.67463c-0.12155,-0.20664 -0.2735,-0.44367 -0.45583,-0.71109c-0.18233,-0.26742 -0.3829,-0.54578 -0.60169,-0.83508c-0.2188,-0.28808 -0.44185,-0.57374 -0.66916,-0.85696c-0.22852,-0.28201 -0.45218,-0.5476 -0.67098,-0.79679M251.10876,200.21847l0.59258,-0.53788c0.23703,0.26134 0.47589,0.53788 0.71656,0.82961c0.23946,0.29173 0.46555,0.58772 0.67827,0.88796c0.21272,0.30146 0.40538,0.59197 0.57799,0.87155c0.17382,0.27958 0.31543,0.53788 0.42483,0.77491l-0.64728,0.61081c-0.1094,-0.23703 -0.24797,-0.5002 -0.41572,-0.7895c-0.16653,-0.28808 -0.35433,-0.58711 -0.5634,-0.89707c-0.21029,-0.30996 -0.43213,-0.61385 -0.66551,-0.91166c-0.2346,-0.29781 -0.46738,-0.57738 -0.69833,-0.83873M247.51682,197.65671h7.3115v0.92989h-6.32691v7.04712h-0.98459v-7.97701M254.21751,197.65671h0.97547v6.79186c0,0.27958 -0.03647,0.49655 -0.1094,0.65092c-0.07293,0.15559 -0.2036,0.27289 -0.39201,0.3519c-0.18233,0.07901 -0.41632,0.12885 -0.70198,0.14951c-0.28565,0.02188 -0.64424,0.02978 -1.07576,0.0237c-0.01216,-0.09117 -0.0395,-0.19631 -0.08205,-0.31543c-0.04254,-0.11791 -0.08813,-0.23642 -0.13675,-0.35555c-0.04862,-0.11791 -0.09724,-0.21941 -0.14587,-0.30449c0.19449,0.00608 0.38897,0.01216 0.58346,0.01823c0.19449,0.00608 0.36649,0.00729 0.516,0.00365c0.1483,-0.00243 0.25283,-0.00365 0.31361,-0.00365c0.09117,-0.00608 0.15681,-0.02613 0.19692,-0.06017c0.0389,-0.03282 0.05835,-0.08873 0.05835,-0.16775zM261.00025,198.11254h2.45236v0.83873h-2.45236v-0.83873M260.08859,202.25147h3.93836v3.37314h-0.93901v-2.54353h-2.09681v2.57088h-0.90254v-3.40049M260.45326,204.47592h3.14522v0.83873h-3.14522v-0.83873M261.14612,197.12795l0.93901,0.25526c-0.17018,0.41328 -0.36892,0.81441 -0.59622,1.20339c-0.22852,0.38897 -0.47649,0.75181 -0.74391,1.08852c-0.26742,0.33792 -0.54396,0.63148 -0.82961,0.88066c-0.04862,-0.06078 -0.11973,-0.13371 -0.21333,-0.2188c-0.09481,-0.08509 -0.19084,-0.16714 -0.28808,-0.24615c-0.09724,-0.07901 -0.18233,-0.14283 -0.25526,-0.19145c0.41936,-0.3282 0.80347,-0.73723 1.15234,-1.22709c0.35008,-0.48865 0.62844,-1.00343 0.83508,-1.54435M263.19735,198.11254h0.17322l0.1641,-0.03647l0.61993,0.28261c-0.19449,0.57738 -0.44793,1.10311 -0.76032,1.57717c-0.31361,0.47406 -0.67098,0.89768 -1.07211,1.27085c-0.40113,0.37439 -0.8369,0.70137 -1.30732,0.98094c-0.47163,0.27958 -0.95967,0.51357 -1.46412,0.70198c-0.06078,-0.12155 -0.14404,-0.26013 -0.24979,-0.41572c-0.10697,-0.15437 -0.20907,-0.28018 -0.30632,-0.37743c0.46798,-0.13979 0.92077,-0.33306 1.35837,-0.57981c0.4376,-0.24554 0.84359,-0.53241 1.21798,-0.86061c0.37317,-0.3282 0.69955,-0.69286 0.97912,-1.09399c0.27958,-0.40113 0.49533,-0.83265 0.64728,-1.29455v-0.15498M261.00937,198.696c0.19449,0.40721 0.46798,0.82049 0.82049,1.23986c0.35251,0.41936 0.78403,0.79922 1.29455,1.13957c0.51053,0.34035 1.09095,0.60473 1.74127,0.79314c-0.06685,0.06078 -0.13857,0.13979 -0.21515,0.23703c-0.07536,0.09724 -0.14647,0.19753 -0.21333,0.30085c-0.06685,0.10332 -0.12459,0.19449 -0.17322,0.2735c-0.66247,-0.23095 -1.25323,-0.54092 -1.77226,-0.92989c-0.52025,-0.38897 -0.96393,-0.81624 -1.33102,-1.28179c-0.36831,-0.46434 -0.65883,-0.92442 -0.87155,-1.38025l0.72021,-0.39201M256.33256,199.04243h3.2455v0.91166h-3.2455v-0.91166M257.58153,197.13707h0.92077v8.50577h-0.92077v-8.50577M257.5633,199.65324l0.57434,0.20056c-0.07293,0.36466 -0.16288,0.7427 -0.26985,1.1341c-0.10575,0.39262 -0.22548,0.77552 -0.35919,1.14869c-0.13371,0.37439 -0.27958,0.72264 -0.4376,1.04476c-0.15802,0.32212 -0.32212,0.59866 -0.4923,0.82961c-0.04254,-0.13371 -0.11061,-0.28444 -0.20421,-0.45218c-0.09481,-0.16653 -0.18172,-0.31057 -0.26073,-0.43213c0.15802,-0.20056 0.30996,-0.43638 0.45583,-0.70745c0.14587,-0.26985 0.28261,-0.56158 0.41025,-0.87519c0.12763,-0.3124 0.24007,-0.62965 0.33731,-0.95177c0.09724,-0.32212 0.17929,-0.63512 0.24615,-0.93901M258.46584,200.18201c0.0547,0.0547 0.13675,0.14404 0.24615,0.26803c0.1094,0.1252 0.22488,0.26073 0.34643,0.4066c0.12155,0.14587 0.23399,0.28261 0.33731,0.41025c0.10332,0.12763 0.17625,0.2188 0.2188,0.2735l-0.53788,0.73844c-0.0547,-0.1094 -0.12763,-0.24007 -0.2188,-0.39201c-0.09117,-0.15194 -0.18841,-0.30996 -0.29173,-0.47406c-0.10332,-0.1641 -0.2036,-0.31908 -0.30085,-0.46495c-0.09724,-0.14587 -0.17929,-0.26438 -0.24615,-0.35555zM268.12031,198.72335h5.37878v0.94812h-5.37878v-0.94812M269.30546,197.36498h0.96636v3.03582c0,0.30996 -0.01641,0.63816 -0.04923,0.98459c-0.03403,0.34643 -0.09846,0.69286 -0.19327,1.03929c-0.0936,0.34643 -0.23156,0.6728 -0.41389,0.97912c-0.18233,0.30753 -0.41936,0.57981 -0.71109,0.81685c-0.04254,-0.06078 -0.1094,-0.13675 -0.20056,-0.22791c-0.09117,-0.09117 -0.18537,-0.18112 -0.28261,-0.26985c-0.09724,-0.08752 -0.17929,-0.14951 -0.24615,-0.18598c0.34643,-0.28565 0.59866,-0.60473 0.75668,-0.95724c0.15802,-0.35251 0.26013,-0.71717 0.30632,-1.09399c0.04497,-0.37682 0.06746,-0.74148 0.06746,-1.09399v-3.02671M268.04737,201.04808h5.63405v0.92989h-5.63405v-0.92989M267.50949,200.44639v3.60105h-0.96636v-2.68939h-1.11222v-0.91166h2.07858M267.00808,203.58249c0.15802,0 0.30996,0.05288 0.45583,0.15863c0.14587,0.10697 0.34643,0.23642 0.60169,0.38837c0.30996,0.18233 0.67037,0.29599 1.08123,0.34096c0.40964,0.04619 0.86972,0.06929 1.38025,0.06929c0.24919,0 0.51965,-0.00304 0.81138,-0.00912c0.29173,-0.00608 0.58954,-0.01823 0.89343,-0.03647c0.30389,-0.01823 0.59744,-0.04133 0.88066,-0.06929c0.28201,-0.02674 0.53849,-0.05531 0.76944,-0.0857c-0.03647,0.08509 -0.07597,0.19145 -0.11852,0.31908c-0.04254,0.12763 -0.07901,0.25344 -0.1094,0.37743c-0.03039,0.1252 -0.04862,0.23338 -0.0547,0.32455c-0.1641,0.00608 -0.37196,0.01519 -0.62357,0.02735c-0.25283,0.01216 -0.52998,0.02249 -0.83143,0.031c-0.30024,0.00972 -0.59501,0.01763 -0.88431,0.0237c-0.28808,0.00608 -0.54456,0.00912 -0.76944,0.00912c-0.57738,0 -1.06968,-0.03343 -1.47689,-0.10028c-0.40721,-0.06685 -0.77491,-0.19145 -1.10311,-0.37378c-0.20664,-0.11548 -0.38594,-0.23095 -0.53788,-0.34643c-0.15194,-0.11548 -0.27958,-0.17322 -0.3829,-0.17322c-0.09724,0 -0.20482,0.05591 -0.32273,0.16775c-0.11912,0.11305 -0.2425,0.2577 -0.37013,0.43395c-0.12763,0.17625 -0.25223,0.35859 -0.37378,0.547l-0.65639,-0.92989c0.30996,-0.3282 0.61993,-0.59258 0.92989,-0.79314c0.30996,-0.20056 0.58042,-0.30085 0.81138,-0.30085M265.62236,197.85728l0.70198,-0.547c0.1641,0.14587 0.33731,0.30693 0.51965,0.48318c0.18233,0.17625 0.35737,0.35068 0.52512,0.52329c0.16653,0.17382 0.29842,0.33063 0.39566,0.47042l-0.74756,0.61993c-0.09117,-0.14587 -0.21576,-0.30875 -0.37378,-0.48865c-0.15802,-0.17869 -0.32516,-0.36223 -0.50141,-0.55064c-0.17625,-0.18841 -0.34947,-0.35859 -0.51965,-0.51053M271.43874,197.3741h0.97547v6.73716h-0.97547zM278.1759,197.66583h4.46713v0.92989h-4.46713v-0.92989M280.59179,200.47374h1.00282v4.02041c0,0.26742 -0.03525,0.4771 -0.10575,0.62904c-0.06929,0.15194 -0.19813,0.26742 -0.38654,0.34643c-0.18233,0.06685 -0.41632,0.1094 -0.70198,0.12763c-0.28565,0.01823 -0.6412,0.02735 -1.06664,0.02735c-0.01823,-0.13979 -0.05591,-0.30389 -0.11305,-0.4923c-0.05835,-0.18841 -0.12095,-0.35251 -0.1878,-0.4923c0.18841,0.00608 0.37378,0.01033 0.55611,0.01276c0.18233,0.00365 0.34339,0.00547 0.48318,0.00547c0.13979,0 0.23703,0 0.29173,0c0.08509,-0.00608 0.14465,-0.02127 0.17869,-0.04558c0.03282,-0.02431 0.04923,-0.06989 0.04923,-0.13675v-4.00218M277.78388,200.19112h5.10529v0.92989h-5.10529v-0.92989M275.80559,201.1666l0.85696,-0.86608l0.11852,0.0547v5.30585h-0.97547v-4.49448M276.84488,199.11537l0.92077,0.34643c-0.23095,0.40113 -0.50263,0.80044 -0.81502,1.19792c-0.31361,0.3987 -0.63938,0.77248 -0.9773,1.12134c-0.33671,0.35008 -0.66916,0.65883 -0.99735,0.92624c-0.04862,-0.07293 -0.11244,-0.16288 -0.19145,-0.26985c-0.07901,-0.10575 -0.16228,-0.21211 -0.24979,-0.31908c-0.08873,-0.10575 -0.16653,-0.18902 -0.23338,-0.24979c0.31604,-0.2188 0.62904,-0.4771 0.93901,-0.77491c0.30996,-0.29781 0.60352,-0.61689 0.88066,-0.95724c0.27593,-0.34035 0.51721,-0.68071 0.72386,-1.02106M276.48933,197.13707l0.93901,0.3829c-0.21272,0.27958 -0.45704,0.56523 -0.73297,0.85696c-0.27714,0.29173 -0.56584,0.56827 -0.86608,0.82961c-0.30146,0.26134 -0.59501,0.4923 -0.88066,0.69286c-0.04254,-0.07293 -0.09603,-0.15984 -0.16045,-0.26073c-0.06321,-0.09967 -0.13006,-0.19996 -0.20056,-0.30085c-0.06929,-0.09967 -0.13128,-0.1799 -0.18598,-0.24068c0.25526,-0.1641 0.51357,-0.35859 0.77491,-0.58346c0.26134,-0.22488 0.50749,-0.45765 0.73844,-0.69833c0.23095,-0.23946 0.4224,-0.46555 0.57434,-0.67827zM288.96993,198.12166h0.93901v5.02324h-0.93901v-5.02324M290.72032,197.22823h0.95724v7.2568c0,0.2735 -0.03343,0.48439 -0.10028,0.63269c-0.06685,0.14951 -0.18233,0.26377 -0.34643,0.34278c-0.1641,0.07901 -0.37864,0.13067 -0.64363,0.15498c-0.26377,0.02431 -0.59015,0.03647 -0.97912,0.03647c-0.01823,-0.13371 -0.05895,-0.29477 -0.12216,-0.48318c-0.06442,-0.18841 -0.13006,-0.34947 -0.19692,-0.48318c0.26134,0.00608 0.50931,0.00912 0.74391,0.00912c0.23338,0 0.38958,0 0.46859,0c0.08509,0 0.14283,-0.01519 0.17322,-0.04558c0.03039,-0.03039 0.04558,-0.08509 0.04558,-0.1641v-7.2568M283.51822,199.72618l5.02324,-0.55611l0.09117,0.92077l-5.02324,0.56523l-0.09117,-0.92989M284.68514,197.14618h0.99371c-0.00608,0.77187 0.0231,1.52247 0.08752,2.2518c0.06321,0.72933 0.15559,1.41003 0.27714,2.04211c0.12155,0.63208 0.26134,1.18516 0.41936,1.65922c0.15802,0.47406 0.32516,0.8448 0.50141,1.11222c0.17625,0.26742 0.35251,0.40113 0.52876,0.40113c0.1094,0 0.19327,-0.11426 0.25162,-0.34278c0.05713,-0.22731 0.09785,-0.60838 0.12216,-1.14322c0.10332,0.1094 0.23278,0.21272 0.38837,0.30996c0.15437,0.09724 0.29234,0.17018 0.41389,0.2188c-0.04862,0.51053 -0.12155,0.90558 -0.2188,1.18516c-0.09724,0.27958 -0.22791,0.47406 -0.39201,0.58346c-0.1641,0.1094 -0.37378,0.1641 -0.62904,0.1641c-0.30389,0 -0.58225,-0.1094 -0.83508,-0.3282c-0.25162,-0.2188 -0.47771,-0.52755 -0.67827,-0.92624c-0.20056,-0.39748 -0.37682,-0.86243 -0.52876,-1.39484c-0.15194,-0.53119 -0.27958,-1.11162 -0.3829,-1.74127c-0.10332,-0.62844 -0.18112,-1.28605 -0.23338,-1.97283c-0.05105,-0.68678 -0.07962,-1.37964 -0.0857,-2.07858M287.26513,200.5102l0.92077,0.2735c-0.28565,0.67463 -0.63208,1.30185 -1.03929,1.88166c-0.40721,0.58103 -0.85817,1.10554 -1.3529,1.57352c-0.49594,0.46798 -1.02349,0.87215 -1.58264,1.21251c-0.04862,-0.06685 -0.11365,-0.1489 -0.19509,-0.24615c-0.08266,-0.09724 -0.16775,-0.19449 -0.25526,-0.29173c-0.08873,-0.09724 -0.16653,-0.17625 -0.23338,-0.23703c0.547,-0.29173 1.05752,-0.64606 1.53159,-1.06299c0.47406,-0.41572 0.89829,-0.88674 1.27268,-1.41307c0.37317,-0.52512 0.68435,-1.08852 0.93354,-1.69021M285.97969,197.77523l0.64728,-0.52876c0.15802,0.11548 0.3209,0.24615 0.48865,0.39201c0.16653,0.14587 0.32455,0.29173 0.47406,0.4376c0.1483,0.14587 0.26499,0.27958 0.35008,0.40113l-0.69286,0.59258c-0.07901,-0.12155 -0.18841,-0.2583 -0.3282,-0.41025c-0.13979,-0.15194 -0.29173,-0.30571 -0.45583,-0.4613c-0.1641,-0.15437 -0.32516,-0.29538 -0.48318,-0.42301zM294.12992,200.5102h5.005v0.97547h-5.005v-0.97547M298.81584,200.5102h1.02106c0,0 0,0.02856 0,0.0857c0,0.05835 0,0.12095 0,0.1878c0,0.06685 -0.00304,0.12155 -0.00912,0.1641c-0.03039,0.68678 -0.06078,1.27328 -0.09117,1.7595c-0.03039,0.48622 -0.06564,0.8916 -0.10575,1.21615c-0.0389,0.32577 -0.0857,0.58407 -0.1404,0.77491c-0.0547,0.19206 -0.12155,0.33367 -0.20056,0.42483c-0.1094,0.13979 -0.22791,0.23703 -0.35555,0.29173c-0.12763,0.0547 -0.27654,0.09117 -0.44671,0.1094c-0.15802,0.01823 -0.36162,0.02856 -0.61081,0.031c-0.24919,0.00365 -0.51053,-0.00061 -0.78403,-0.01276c-0.01216,-0.14587 -0.04741,-0.313 -0.10575,-0.50141c-0.05713,-0.18841 -0.13128,-0.34947 -0.22244,-0.48318c0.26742,0.02431 0.51539,0.03768 0.74391,0.04011c0.22731,0.00365 0.3987,0.00547 0.51418,0.00547c0.1641,0 0.28869,-0.0395 0.37378,-0.11852c0.07293,-0.07901 0.13493,-0.25405 0.18598,-0.52512c0.05227,-0.26985 0.09664,-0.67098 0.1331,-1.20339c0.03647,-0.53119 0.06989,-1.21919 0.10028,-2.06399v-0.18233M295.21479,197.27382l1.04841,0.29173c-0.20664,0.52268 -0.45461,1.02531 -0.74391,1.50788c-0.28808,0.48379 -0.60048,0.92928 -0.93718,1.33649c-0.33792,0.40721 -0.68921,0.76275 -1.05388,1.06664c-0.0547,-0.07293 -0.13493,-0.15802 -0.24068,-0.25526c-0.10697,-0.09724 -0.21211,-0.19327 -0.31543,-0.28808c-0.10332,-0.0936 -0.19753,-0.17078 -0.28261,-0.23156c0.35859,-0.25526 0.69712,-0.56219 1.01559,-0.92077c0.31969,-0.35859 0.60838,-0.75242 0.86608,-1.18151c0.25891,-0.42787 0.47345,-0.86972 0.64363,-1.32555M298.60616,197.25558c0.13979,0.29173 0.30875,0.59379 0.50688,0.90619c0.19692,0.31361 0.41207,0.61628 0.64545,0.90801c0.2346,0.29173 0.47649,0.56523 0.72568,0.82049c0.24919,0.25526 0.4923,0.48014 0.72933,0.67463c-0.08509,0.06078 -0.17747,0.13979 -0.27714,0.23703c-0.10089,0.09724 -0.19692,0.19753 -0.28808,0.30085c-0.09117,0.10332 -0.16714,0.20056 -0.22791,0.29173c-0.24311,-0.23095 -0.49108,-0.49108 -0.74391,-0.78038c-0.25162,-0.28808 -0.49594,-0.59926 -0.73297,-0.93354c-0.23703,-0.33428 -0.46373,-0.67645 -0.6801,-1.02653c-0.21515,-0.34886 -0.40478,-0.69651 -0.56887,-1.04294l0.91166,-0.35555M295.75267,200.79282h1.03017c-0.04862,0.50445 -0.12277,0.99675 -0.22244,1.47689c-0.10089,0.48014 -0.26256,0.93293 -0.485,1.35837c-0.22123,0.42544 -0.53545,0.81259 -0.94265,1.16145c-0.40721,0.35008 -0.94205,0.64667 -1.60452,0.88978c-0.03647,-0.09117 -0.08995,-0.18841 -0.16045,-0.29173c-0.06929,-0.10332 -0.14343,-0.20664 -0.22244,-0.30996c-0.07901,-0.10332 -0.15802,-0.18841 -0.23703,-0.25526c0.60777,-0.20056 1.09277,-0.4455 1.45501,-0.7348c0.36102,-0.28808 0.63451,-0.6102 0.82049,-0.96636c0.18476,-0.35494 0.31483,-0.72872 0.39019,-1.12134c0.07658,-0.39141 0.13614,-0.79375 0.17869,-1.20704zM303.93025,199.74441v0.70198h4.20275v-0.70198h-4.20275M303.93025,198.32222v0.70198h4.20275v-0.70198h-4.20275M302.97301,197.56555h6.16281v3.64663h-6.16281v-3.64663M301.78785,204.3027h8.51489v0.92989h-8.51489v-0.92989M304.52283,201.52214h0.92989v3.29109h-0.92989v-3.29109M306.59229,201.52214h0.92989v3.29109h-0.92989v-3.29109M308.8532,201.72271l0.82961,0.37378c-0.17625,0.31604 -0.37196,0.63512 -0.58711,0.95724c-0.21637,0.32212 -0.41875,0.59866 -0.60716,0.82961l-0.74756,-0.34643c0.12763,-0.1641 0.26013,-0.34947 0.39748,-0.55611c0.13614,-0.20664 0.26985,-0.41936 0.40113,-0.63816c0.13006,-0.2188 0.2346,-0.42544 0.31361,-0.61993M302.48071,202.11472l0.75668,-0.3282c0.1094,0.18841 0.22488,0.39019 0.34643,0.60534c0.12155,0.21637 0.23582,0.42483 0.34278,0.6254c0.10575,0.20056 0.18902,0.37682 0.24979,0.52876l-0.79314,0.3829c-0.06078,-0.15802 -0.14161,-0.34218 -0.2425,-0.55246c-0.09967,-0.20907 -0.20603,-0.42483 -0.31908,-0.64728c-0.11183,-0.22123 -0.22548,-0.42605 -0.34096,-0.61446zM314.65135,200.49197h1.07576v3.98395c0,0.27958 -0.03768,0.49655 -0.11305,0.65092c-0.07658,0.15559 -0.21515,0.27289 -0.41572,0.3519c-0.20056,0.07293 -0.44671,0.11973 -0.73844,0.1404c-0.29173,0.02188 -0.63816,0.03282 -1.03929,0.03282c-0.02431,-0.15194 -0.06989,-0.32698 -0.13675,-0.52512c-0.06685,-0.19692 -0.13675,-0.36831 -0.20968,-0.51418c0.18233,0.00608 0.36588,0.01216 0.55064,0.01823c0.18598,0.00608 0.3519,0.00729 0.49777,0.00365c0.14587,-0.00243 0.24615,-0.00365 0.30085,-0.00365c0.08509,0 0.14465,-0.01216 0.17869,-0.03647c0.03282,-0.02431 0.04923,-0.06989 0.04923,-0.13675v-3.96571M312.49984,201.65889l1.02106,0.26438c-0.13371,0.36466 -0.29781,0.72446 -0.4923,1.0794c-0.19449,0.35615 -0.40113,0.68921 -0.61993,0.99918c-0.2188,0.30996 -0.44063,0.58042 -0.66551,0.81138c-0.06685,-0.06078 -0.15681,-0.12763 -0.26985,-0.20056c-0.11183,-0.07293 -0.22366,-0.14587 -0.33549,-0.2188c-0.11305,-0.07293 -0.21211,-0.12763 -0.2972,-0.1641c0.34035,-0.30996 0.65761,-0.6959 0.95177,-1.15781c0.29538,-0.46191 0.53119,-0.93293 0.70745,-1.41307M316.75728,202.01444l0.91166,-0.3829c0.21272,0.28565 0.42119,0.59258 0.6254,0.92077c0.203,0.3282 0.38837,0.65153 0.55611,0.97c0.16653,0.31969 0.29234,0.6102 0.37743,0.87155l-1.01194,0.4376c-0.06685,-0.24919 -0.17747,-0.53666 -0.33184,-0.86243c-0.15559,-0.32455 -0.33245,-0.65883 -0.53059,-1.00282c-0.19692,-0.34278 -0.39566,-0.66004 -0.59622,-0.95177M311.93461,197.74788h6.45454v0.97547h-6.45454v-0.97547M311.11412,199.95409h8.11376v0.97547h-8.11376z" fill="#ffffff" fill-rule="nonzero" stroke-width="1"/></g></g></svg>