<svg version="1.1" xmlns="http://www.w3.org/2000/svg" xmlns:xlink="http://www.w3.org/1999/xlink" width="208" height="32" viewBox="0,0,208,32"><g transform="translate(-240,-164)"><g stroke-miterlimit="10"><path d="M240,196v-32h208v32z" fill="none" fill-rule="nonzero" stroke="none" stroke-width="0" stroke-linecap="butt"/><path d="M299.31105,183.82499h-10.08758c-1.02838,1.20457 -2.28679,2.45216 -3.77523,3.74277l9.11332,-0.36567l-2.23266,-2.23706l0.99455,-1.054c0.58185,0.55926 1.14001,1.10419 1.6745,1.63477c0.53449,0.53058 1.0047,0.99664 1.41064,1.39816c1.46138,1.46269 2.06352,2.05781 1.80643,1.78534l-1.05544,1.22608c-0.23003,-0.25812 -0.6495,-0.70984 -1.25841,-1.35514l-12.5435,0.58077l-0.38564,-1.52722c1.59669,-1.20457 2.99718,-2.48084 4.20147,-3.82881h-5.82522v-1.46269h2.6792v-11.18529h12.5435v11.18529h2.74009zM262.33003,189.71878v-18.26213h15.44597v15.05712c0,0.83173 -0.08795,1.45911 -0.26386,1.88214c-0.17591,0.42303 -0.46683,0.71342 -0.87277,0.87116c-0.40594,0.15774 -1.00132,0.23661 -1.78613,0.23661h-2.51682l-0.28416,-1.63477h2.33415c0.54125,0 0.93704,-0.04302 1.18737,-0.12906c0.25033,-0.08604 0.41947,-0.25454 0.50742,-0.50549c0.08795,-0.25095 0.13193,-0.64889 0.13193,-1.19381v-12.99214h-12.32024v16.67038zM323.22083,189.71878v-18.26213h15.44597v15.05712c0,0.83173 -0.08795,1.45911 -0.26386,1.88214c-0.17591,0.42303 -0.46683,0.71342 -0.87277,0.87116c-0.40594,0.15774 -1.00132,0.23661 -1.78613,0.23661h-2.51682l-0.28416,-1.63477h2.33415c0.54125,0 0.93704,-0.04302 1.18737,-0.12906c0.25033,-0.08604 0.41947,-0.25454 0.50742,-0.50549c0.08795,-0.25095 0.13193,-0.64889 0.13193,-1.19381v-12.99214h-12.32024v16.67038zM274.99532,185.13711l-1.17722,1.16155c-1.06897,-1.34797 -2.30708,-2.88236 -3.71434,-4.60318c-1.52904,1.82119 -3.03777,3.40578 -4.52622,4.75375l-0.97425,-1.31212c1.56963,-1.40533 3.06484,-2.94689 4.48562,-4.62469c-1.74554,-2.07932 -3.1122,-3.67824 -4.09998,-4.79677l1.07574,-1.03249c1.31253,1.44835 2.65213,2.98274 4.01879,4.60318c1.23135,-1.57741 2.33415,-3.19784 3.3084,-4.8613l1.27871,0.92494c-1.04191,1.70647 -2.23266,3.41295 -3.57226,5.11942c1.10957,1.29061 2.40857,2.84651 3.89701,4.66771zM335.88612,185.13711l-1.17722,1.16155c-1.06897,-1.34797 -2.30708,-2.88236 -3.71434,-4.60318c-1.52904,1.82119 -3.03777,3.40578 -4.52622,4.75375l-0.97425,-1.31212c1.56963,-1.40533 3.06484,-2.94689 4.48562,-4.62469c-1.74554,-2.07932 -3.1122,-3.67824 -4.09998,-4.79677l1.07574,-1.03249c1.31253,1.44835 2.65213,2.98274 4.01879,4.60318c1.23135,-1.57741 2.33415,-3.19784 3.3084,-4.8613l1.27871,0.92494c-1.04191,1.70647 -2.23266,3.41295 -3.57226,5.11942c1.10957,1.29061 2.40857,2.84651 3.89701,4.66771zM246.29546,174.23146v1.63477c-0.48713,1.20457 -0.97425,2.26574 -1.46138,3.1835c1.32607,1.14721 2.15824,1.87856 2.49652,2.19404l-0.89307,1.22608c-0.27063,-0.2868 -0.85247,-0.83173 -1.74554,-1.63477v9.05578h-1.42079v-8.30292c-0.6901,0.94645 -1.42079,1.81402 -2.19207,2.60273l-0.6292,-1.61326c0.9066,-0.96079 1.73877,-2.0363 2.49652,-3.22653c0.75775,-1.19023 1.35989,-2.38763 1.80643,-3.5922h-3.81582v-1.52722zM307.18626,174.23146v1.63477c-0.48713,1.20457 -0.97425,2.26574 -1.46138,3.1835c1.32607,1.14721 2.15824,1.87856 2.49652,2.19404l-0.89307,1.22608c-0.27063,-0.2868 -0.85247,-0.83173 -1.74554,-1.63477v9.05578h-1.42079v-8.30292c-0.6901,0.94645 -1.42079,1.81402 -2.19207,2.60273l-0.6292,-1.61326c0.9066,-0.96079 1.73877,-2.0363 2.49652,-3.22653c0.75775,-1.19023 1.35989,-2.38763 1.80643,-3.5922h-3.81582v-1.52722zM248.97465,188.90139v1.03249h-1.46138v-9.27088h10.39203v9.27088h-1.46138v-1.03249zM309.86545,188.90139v1.03249h-1.46138v-9.27088h10.39203v9.27088h-1.46138v-1.03249zM257.07313,179.02822h-8.72768v-4.56016h8.72768zM317.96393,179.02822h-8.72768v-4.56016h8.72768zM258.29094,172.91934h-11.20391v-1.4842h11.20391zM319.18174,172.91934h-11.20391v-1.4842h11.20391zM295.10958,182.3623v-2.36612h-9.60045v2.36612zM285.50913,176.31794v2.28008h9.60045v-2.28008zM285.50913,174.9628h9.60045v-2.25857h-9.60045zM310.65703,175.78019v1.93592h5.86581v-1.93592zM249.76623,175.78019v1.93592h5.86581v-1.93592zM317.33472,185.37372h-3.06484v2.19404h3.06484zM256.44392,185.37372h-3.06484v2.19404h3.06484zM252.01919,185.37372h-3.04454v2.19404h3.04454zM312.90999,185.37372h-3.04454v2.19404h3.04454zM314.26989,181.99663v2.04347h3.06484v-2.04347zM253.37909,181.99663v2.04347h3.06484v-2.04347zM248.97465,184.04009h3.04454v-2.04347h-3.04454zM309.86545,184.04009h3.04454v-2.04347h-3.04454zM245.05734,173.28501l-1.35989,0.64531c-0.39241,-1.19023 -0.79835,-2.27291 -1.21782,-3.24804l1.3396,-0.62379l0.60891,1.61326zM305.94814,173.28501l-1.35989,0.64531c-0.39241,-1.19023 -0.79835,-2.27291 -1.21782,-3.24804l1.3396,-0.62379l0.60891,1.61326z" fill="#ffffff" fill-rule="evenodd" stroke="#ffffff" stroke-width="0.5" stroke-linecap="round"/></g></g></svg>