<svg version="1.1" xmlns="http://www.w3.org/2000/svg" xmlns:xlink="http://www.w3.org/1999/xlink" width="192" height="36" viewBox="0,0,192,36"><g transform="translate(-144,-162)"><g stroke="none" stroke-miterlimit="10"><path d="M144,198v-36h192v36z" fill="none" fill-rule="nonzero" stroke-linecap="butt" stroke-linejoin="miter"/><path d="M317,164c9.31184,0 17,7.09393 17,16c0,8.90606 -7.68816,16 -17,16h-154c-9.31184,0 -17,-7.09394 -17,-16c0,-8.90607 7.68816,-16 17,-16z" fill="#7d97b4" fill-rule="evenodd" stroke-linecap="round" stroke-linejoin="round"/><path d="M163,166h154c8.31,0 15,6.244 15,14c0,7.75599 -6.69,13.99999 -15,13.99999h-154c-8.31,0 -15,-6.244 -15,-13.99999c0,-7.756 6.69,-14 15,-14z" fill="#31476d" fill-rule="evenodd" stroke-linecap="round" stroke-linejoin="round"/><path d="M193.27904,185.59575h14.35741v1.34551h-14.35741v-1.34551M193.35818,175.44901h14.16746v1.34551h-14.16746v-1.34551M194.45041,183.3163h12.15711v1.29802h-12.15711v-1.29802M199.51588,174.04017h1.70958v12.23625h-1.70958v-12.23625M205.24618,172.663l0.80732,1.31385c-0.74926,0.12663 -1.57768,0.23744 -2.48524,0.33241c-0.90756,0.09497 -1.85205,0.17412 -2.83349,0.23744c-0.98144,0.06332 -1.96814,0.11609 -2.96013,0.1583c-0.99198,0.04221 -1.95232,0.0686 -2.88097,0.07915c0,-0.2005 -0.0401,-0.4274 -0.12031,-0.68067c-0.0781,-0.25328 -0.15407,-0.46434 -0.22794,-0.63318c0.92867,-0.03166 1.88161,-0.0686 2.85881,-0.1108c0.97511,-0.04221 1.93754,-0.09499 2.88731,-0.1583c0.94977,-0.06332 1.84678,-0.14036 2.69103,-0.23111c0.84425,-0.08864 1.5988,-0.19101 2.26363,-0.30709M196.61907,180.51447v0.8548h7.66151v-0.8548h-7.66151M196.61907,178.63076v0.83897h7.66151v-0.83897h-7.66151M194.95697,177.49103h11.06487v5.01798h-11.06487zM218.79629,174.35676v1.06059h2.07368v-1.06059h-2.07368M215.21881,174.35676v1.06059h2.02618v-1.06059h-2.02618M211.68882,174.35676v1.06059h1.9787v-1.06059h-1.9787M210.0742,173.21704h12.50536v3.35587h-12.50536v-3.35587M209.39353,177.30107h13.56595v1.26636h-13.56595v-1.26636M215.31378,176.22466l1.75709,0.09497c-0.07387,0.55931 -0.16884,1.15239 -0.28494,1.77925c-0.11608,0.62897 -0.22689,1.17033 -0.33242,1.62411h-1.58296c0.06332,-0.30603 0.12453,-0.65957 0.18362,-1.06059c0.05698,-0.40101 0.10975,-0.81575 0.15829,-1.24421c0.04643,-0.42635 0.0802,-0.8242 0.10131,-1.19355M209.18774,185.76988h14.21494v1.20305h-14.21494v-1.20305M211.97376,180.98935h8.5638v0.88645h-8.5638v-0.88645M212.03707,182.57231h8.48465v0.87062h-8.48465v-0.87062M212.10039,184.17109h8.5163v0.88645h-8.5163v-0.88645M211.10312,179.27975h10.28923v7.15496h-1.67793v-6.11021h-6.99667v6.11021h-1.61463zM225.06479,174.15098h13.99333v1.4405h-13.99333v-1.4405M228.95887,177.44353v1.02893h6.34766v-1.02893h-6.34766M227.24927,176.28798h9.84599v3.34004h-9.84599v-3.34004M225.53969,180.34035h12.61616v1.393h-10.96988v5.66699h-1.64627v-7.05998M236.95281,180.34035h1.70958v5.4612c0,0.39047 -0.05277,0.67751 -0.1583,0.86113c-0.10553,0.18574 -0.30075,0.33136 -0.58569,0.4369c-0.26383,0.09497 -0.59625,0.14985 -0.99727,0.16462c-0.40101,0.01689 -0.87589,0.02532 -1.42466,0.02532c-0.04221,-0.18996 -0.11292,-0.40101 -0.21212,-0.63318c-0.10131,-0.23217 -0.19945,-0.43795 -0.29444,-0.61736c0.22162,0.01055 0.44851,0.01793 0.68067,0.02217c0.23217,0.00634 0.43795,0.00949 0.61735,0.00949c0.17939,0 0.30076,0 0.36408,0c0.2005,-0.01055 0.30076,-0.10025 0.30076,-0.26911v-5.4612M230.89008,172.94793l1.72542,-0.41158c0.14774,0.33769 0.2976,0.70705 0.44955,1.10807c0.15408,0.40101 0.26806,0.73871 0.34192,1.01309l-1.83624,0.50655c-0.06332,-0.28494 -0.16357,-0.63635 -0.30076,-1.05425c-0.13718,-0.41579 -0.26383,-0.80309 -0.37991,-1.16189M229.48125,182.41402h5.93609v3.46667h-5.93609v-1.20305h4.44811v-1.07641h-4.44811v-1.18721M228.56313,182.41402h1.56713v4.14733h-1.56713zM248.00184,174.26179l1.67793,0.07914c-0.08443,1.89954 -0.229,3.66191 -0.43374,5.28708c-0.20684,1.62517 -0.52344,3.09416 -0.94977,4.40695c-0.42847,1.31491 -1.02259,2.4578 -1.7824,3.42869c-0.08443,-0.09497 -0.21846,-0.20895 -0.40207,-0.34192c-0.18574,-0.13086 -0.37886,-0.26278 -0.57936,-0.39574c-0.2005,-0.13086 -0.36935,-0.22795 -0.50654,-0.29125c0.74926,-0.8548 1.32968,-1.89217 1.74125,-3.1121c0.41158,-1.21783 0.70705,-2.59182 0.88644,-4.12201c0.17939,-1.53019 0.2955,-3.17646 0.34826,-4.93881M246.35556,173.62861h6.25269v1.58297h-6.25269v-1.58297M251.73762,177.76012h1.9787v1.47214h-2.43775l0.45906,-1.47214M253.25725,177.76012h0.31659l0.30076,-0.06332l1.04476,0.41158c-0.30603,1.56186 -0.75454,2.9464 -1.34551,4.15368c-0.59097,1.20937 -1.28747,2.24147 -2.0895,3.09627c-0.80203,0.8548 -1.68321,1.54602 -2.64353,2.07368c-0.08443,-0.12663 -0.19735,-0.27438 -0.33876,-0.44323c-0.14353,-0.16884 -0.29125,-0.3303 -0.44323,-0.48438c-0.15408,-0.15196 -0.29444,-0.27016 -0.42108,-0.35458c0.93922,-0.46434 1.78558,-1.07113 2.53907,-1.8204c0.7556,-0.74926 1.39723,-1.64417 1.92488,-2.6847c0.52765,-1.03841 0.91283,-2.22247 1.15555,-3.55214v-0.33242M249.29987,178.28251c0.34825,1.11861 0.81575,2.18131 1.40251,3.18807c0.58463,1.00887 1.27587,1.90376 2.07368,2.68469c0.7957,0.78093 1.68953,1.39301 2.68153,1.83624c-0.12664,0.10553 -0.26066,0.23954 -0.40207,0.40207c-0.14352,0.16462 -0.2786,0.33136 -0.40523,0.50022c-0.12663,0.16884 -0.23217,0.32714 -0.31659,0.4749c-1.0342,-0.53821 -1.96286,-1.23998 -2.78599,-2.10534c-0.82314,-0.86536 -1.53758,-1.85734 -2.14332,-2.97596c-0.60786,-1.11861 -1.12284,-2.31639 -1.54497,-3.5933l1.4405,-0.41158M251.84842,173.62861h1.72542c-0.14774,0.62263 -0.31342,1.27692 -0.49705,1.96287c-0.18574,0.68594 -0.3683,1.34551 -0.5477,1.9787c-0.17939,0.63318 -0.34298,1.18722 -0.49071,1.6621h-1.67793c0.16884,-0.49599 0.34298,-1.06585 0.52237,-1.70958c0.17939,-0.64374 0.3567,-1.3033 0.53187,-1.9787c0.17307,-0.67539 0.31765,-1.31385 0.43374,-1.91538M240.98935,183.42711c-0.03166,-0.10553 -0.07598,-0.248 -0.13296,-0.4274c-0.05909,-0.17939 -0.12348,-0.36724 -0.19312,-0.56353c-0.06755,-0.19418 -0.13296,-0.35985 -0.19628,-0.49705c0.2005,-0.04221 0.39785,-0.15302 0.59203,-0.33241c0.19629,-0.17939 0.42107,-0.41685 0.67434,-0.71233c0.13718,-0.14774 0.33454,-0.38835 0.59204,-0.72182c0.2596,-0.33136 0.54769,-0.72922 0.86429,-1.19356c0.31659,-0.46434 0.63846,-0.96561 0.96561,-1.5038c0.32714,-0.53821 0.62263,-1.08168 0.88645,-1.63045l1.37717,0.87062c-0.61208,1.0764 -1.29802,2.13171 -2.05784,3.16591c-0.75981,1.0342 -1.53019,1.94177 -2.31112,2.72269v0.03166c0,0 -0.05277,0.02639 -0.15829,0.07915c-0.10553,0.05277 -0.229,0.12136 -0.37041,0.20578c-0.14353,0.08443 -0.26805,0.17096 -0.37357,0.2596c-0.10553,0.09075 -0.1583,0.17307 -0.1583,0.24694M240.98935,183.42711l-0.15829,-1.393l0.69649,-0.55404l4.51143,-1.20305c0,0.22162 0.00739,0.46961 0.02216,0.74399c0.01689,0.27438 0.03588,0.50127 0.05698,0.68067c-1.02365,0.30603 -1.85206,0.55403 -2.48524,0.74399c-0.63318,0.18996 -1.12389,0.34509 -1.47214,0.46539c-0.34825,0.12241 -0.60681,0.22055 -0.77566,0.29444c-0.16884,0.07387 -0.30075,0.14773 -0.39574,0.22162M240.89436,179.45389c-0.03166,-0.11608 -0.07915,-0.26699 -0.14246,-0.45272c-0.06332,-0.18362 -0.12981,-0.37885 -0.19946,-0.58569c-0.06755,-0.20473 -0.13296,-0.37569 -0.19628,-0.51288c0.15829,-0.04221 0.31342,-0.14564 0.46539,-0.31026c0.15408,-0.16252 0.31554,-0.37569 0.48438,-0.63951c0.09497,-0.13718 0.2269,-0.35142 0.39574,-0.64268c0.16884,-0.28916 0.35564,-0.6374 0.56037,-1.04476c0.20684,-0.40523 0.41262,-0.84319 0.61736,-1.31385c0.20684,-0.46856 0.38412,-0.935 0.53187,-1.39934l1.55131,0.72815c-0.26383,0.63318 -0.5667,1.26848 -0.90861,1.90589c-0.34403,0.63951 -0.70917,1.25159 -1.09541,1.83622c-0.38413,0.58675 -0.76615,1.11229 -1.14607,1.57663v0.03166c0,0 -0.04749,0.02849 -0.14246,0.08547c-0.09497,0.05909 -0.20366,0.13297 -0.32608,0.22162c-0.1203,0.09075 -0.22584,0.18046 -0.31659,0.2691c-0.08864,0.09075 -0.13296,0.17307 -0.13296,0.24694M240.89436,179.45389l-0.04748,-1.20305l0.71233,-0.4749l2.75434,-0.23744c-0.04221,0.21105 -0.07915,0.44851 -0.1108,0.71233c-0.03166,0.26383 -0.04749,0.48543 -0.04749,0.66484c-0.62263,0.06332 -1.12917,0.12347 -1.51964,0.18046c-0.39047,0.05909 -0.70177,0.10659 -0.93395,0.14246c-0.23217,0.038 -0.4063,0.07282 -0.52237,0.10448c-0.11608,0.03166 -0.21105,0.0686 -0.28494,0.1108M240.64109,184.94674c0.45379,-0.14774 0.97404,-0.33031 1.56079,-0.54769c0.58463,-0.21528 1.20621,-0.44745 1.86472,-0.69649c0.66062,-0.24694 1.31808,-0.49705 1.97236,-0.75032l0.33242,1.45632c-0.91811,0.39047 -1.84468,0.78092 -2.77968,1.17139c-0.93289,0.39047 -1.77925,0.73872 -2.53907,1.04476zM257.51541,173.88188l1.09224,-1.02893c0.28494,0.23217 0.59097,0.49283 0.91811,0.78198c0.32714,0.29126 0.63319,0.5762 0.91812,0.8548c0.28494,0.2807 0.51709,0.53714 0.69649,0.76931l-1.15555,1.17139c-0.16885,-0.23217 -0.39046,-0.49916 -0.66484,-0.80097c-0.27438,-0.29971 -0.56986,-0.60258 -0.88645,-0.90861c-0.31659,-0.30603 -0.62263,-0.58569 -0.91811,-0.83897M258.49685,187.16288l-0.37992,-1.5038l0.31659,-0.55403l3.10259,-2.50108c0.06332,0.22162 0.15829,0.47172 0.28494,0.75032c0.12664,0.2807 0.24271,0.50022 0.34825,0.65852c-0.72816,0.59097 -1.31913,1.07325 -1.77291,1.44682c-0.45378,0.37569 -0.80731,0.67116 -1.06059,0.88644c-0.25328,0.2174 -0.44005,0.38625 -0.56037,0.50655c-0.12241,0.12241 -0.21528,0.22584 -0.2786,0.31026M256.42317,177.53851h2.84931v1.63045h-2.84931v-1.63045M263.78391,173.16955h4.25816v1.56713h-4.25816v-1.56713M261.88437,179.54887h7.26577v1.58296h-7.26577v-1.58296M268.62777,179.54887h0.30075l0.30076,-0.06332l1.02893,0.44324c-0.32714,1.09752 -0.76509,2.05783 -1.31385,2.88097c-0.54876,0.82314 -1.1946,1.53231 -1.93754,2.1275c-0.74504,0.59731 -1.5629,1.09647 -2.45357,1.49748c-0.89279,0.40101 -1.84573,0.72287 -2.85882,0.96561c-0.07387,-0.22162 -0.1868,-0.48017 -0.33876,-0.77565c-0.15408,-0.29548 -0.30499,-0.53292 -0.45272,-0.71233c0.91811,-0.17939 1.78874,-0.43584 2.61187,-0.76931c0.82314,-0.33136 1.5724,-0.74821 2.2478,-1.25054c0.67539,-0.50022 1.25791,-1.09119 1.74758,-1.77291c0.49177,-0.67961 0.8643,-1.45737 1.11756,-2.33328v-0.23744M263.81557,180.83106c0.42213,0.8548 0.98459,1.62517 1.68742,2.31112c0.70072,0.68594 1.53441,1.2632 2.50107,1.73176c0.96455,0.47067 2.03252,0.82208 3.20391,1.05425c-0.11608,0.11608 -0.24061,0.26383 -0.37357,0.44323c-0.13086,0.17939 -0.25432,0.36092 -0.37042,0.54454c-0.11608,0.18574 -0.21105,0.35775 -0.28494,0.51603c-1.84678,-0.44323 -3.41391,-1.18194 -4.70139,-2.21613c-1.28746,-1.0342 -2.31112,-2.3375 -3.07093,-3.9099l1.40883,-0.4749M263.35652,173.16955h1.59879v1.77291c0,0.51709 -0.07388,1.04476 -0.22162,1.58296c-0.14773,0.53821 -0.41896,1.05003 -0.81364,1.53547c-0.3968,0.48543 -0.97511,0.90229 -1.73492,1.25054c-0.07387,-0.10553 -0.17939,-0.24062 -0.31659,-0.40524c-0.13718,-0.16252 -0.27967,-0.32292 -0.4274,-0.48121c-0.14773,-0.15829 -0.27438,-0.27438 -0.37991,-0.34825c0.67539,-0.29548 1.17667,-0.62052 1.50381,-0.97511c0.32714,-0.35247 0.54137,-0.71656 0.64267,-1.09224c0.0992,-0.37357 0.1488,-0.74504 0.1488,-1.1144v-1.72543M267.26642,173.16955h1.59879v3.51417c0,0.23217 0.01583,0.39573 0.04749,0.49071c0.03166,0.09497 0.11079,0.14246 0.23744,0.14246c0.05277,0 0.13718,0 0.25328,0c0.11608,0 0.23428,0 0.35458,0c0.12241,0 0.21528,0 0.2786,0c0.12664,0 0.27121,-0.00843 0.43374,-0.02532c0.16462,-0.01477 0.29444,-0.038 0.38941,-0.06965c0.02111,0.21105 0.04221,0.45061 0.06332,0.71865c0.02111,0.27016 0.04749,0.50022 0.07915,0.69018c-0.11608,0.05277 -0.25855,0.08443 -0.4274,0.09497c-0.16885,0.01055 -0.33769,0.01583 -0.50655,0.01583c-0.08444,0 -0.19839,0 -0.34191,0c-0.1414,0 -0.28071,0 -0.41791,0c-0.13718,0 -0.24271,0 -0.31659,0c-0.4749,0 -0.83686,-0.0686 -1.08591,-0.20579c-0.24694,-0.13718 -0.41473,-0.36196 -0.50338,-0.67434c-0.09075,-0.31026 -0.13613,-0.7081 -0.13613,-1.19355v-3.49834M258.49685,187.16288c-0.04221,-0.13718 -0.11398,-0.29548 -0.21528,-0.47489c-0.0992,-0.17939 -0.20896,-0.3588 -0.32926,-0.53821c-0.12241,-0.17939 -0.23111,-0.32186 -0.32608,-0.4274c0.11608,-0.07387 0.23532,-0.18468 0.35775,-0.33242c0.1203,-0.14774 0.22267,-0.32187 0.30709,-0.52237c0.08444,-0.2005 0.12664,-0.42213 0.12664,-0.66485v-6.66423h1.63045v7.89895c0,0 -0.07915,0.06016 -0.23744,0.18046c-0.15829,0.12241 -0.33769,0.27332 -0.53821,0.45272c-0.2005,0.17939 -0.37992,0.36936 -0.53821,0.56986c-0.15829,0.2005 -0.23744,0.37464 -0.23744,0.52237zM282.11455,174.35676v1.06059h2.07368v-1.06059h-2.07368M278.53707,174.35676v1.06059h2.02618v-1.06059h-2.02618M275.00707,174.35676v1.06059h1.97871v-1.06059h-1.97871M273.39247,173.21704h12.50536v3.35587h-12.50536v-3.35587M272.71179,177.30107h13.56594v1.26636h-13.56594v-1.26636M278.63204,176.22466l1.75709,0.09497c-0.07387,0.55931 -0.16885,1.15239 -0.28494,1.77925c-0.11608,0.62897 -0.22689,1.17033 -0.33241,1.62411h-1.58296c0.06332,-0.30603 0.12348,-0.65957 0.18046,-1.06059c0.05909,-0.40101 0.11186,-0.81575 0.15829,-1.24421c0.04855,-0.42635 0.08337,-0.8242 0.10448,-1.19355M272.50601,185.76988h14.21495v1.20305h-14.21495v-1.20305M275.29201,180.98935h8.56381v0.88645h-8.56381v-0.88645M275.35533,182.57231h8.48465v0.87062h-8.48465v-0.87062M275.41865,184.17109h8.51631v0.88645h-8.51631v-0.88645M274.42138,179.27975h10.28923v7.15496h-1.67793v-6.11021h-6.99668v6.11021h-1.61462z" fill="#ffffff" fill-rule="nonzero" stroke-linecap="butt" stroke-linejoin="miter"/></g></g></svg>