<svg version="1.1" xmlns="http://www.w3.org/2000/svg" xmlns:xlink="http://www.w3.org/1999/xlink" width="197.27946" height="33.70787" viewBox="0,0,197.27946,33.70787"><g transform="translate(-240,-180)"><g stroke="none" stroke-miterlimit="10"><path d="M249.61752,180h178.04441c5.32811,0 9.61752,2.82761 9.61752,6.33994v21.028c0,3.51233 -4.28942,6.33994 -9.61752,6.33994h-178.04441c-5.32811,0 -9.61752,-2.82761 -9.61752,-6.33994v-21.028c0,-3.51233 4.28942,-6.33994 9.61752,-6.33994z" fill-opacity="0.7" fill="#000000" fill-rule="evenodd" stroke-width="0"/><path d="M251.0613,187.24364h1.07757v3.70756h-1.07757v-3.70756M248.03863,187.96506l0.89493,-0.34701c0.16437,0.20699 0.32144,0.43529 0.47121,0.68489c0.14855,0.24961 0.28248,0.49312 0.4018,0.73055c0.11811,0.23743 0.21064,0.45355 0.27761,0.64837l-0.94972,0.41094c-0.05479,-0.2009 -0.14002,-0.42494 -0.25569,-0.67211c-0.11567,-0.24595 -0.24474,-0.49678 -0.38719,-0.75247c-0.14368,-0.25569 -0.29466,-0.49008 -0.45294,-0.70316M254.14788,187.53586l1.0867,0.31962c-0.13394,0.26787 -0.27396,0.54 -0.42007,0.81639c-0.14611,0.27761 -0.29222,0.54122 -0.43833,0.79082c-0.14611,0.24961 -0.28613,0.47182 -0.42007,0.66663l-0.86753,-0.31049c0.12785,-0.20699 0.25691,-0.44138 0.38719,-0.70316c0.1315,-0.26178 0.25691,-0.53148 0.37624,-0.80909c0.11811,-0.27639 0.21673,-0.5333 0.29587,-0.77073M248.2304,190.43068h6.85807v5.34217h-1.05017v-4.35592h-5.8079v-0.98625M248.54089,192.38491h5.88095v0.94972h-5.88095v-0.94972M248.0295,194.41219h6.55672v0.97712h-6.55672zM260.13842,187.2619h0.97712v2.51128c0,0.16437 0.03957,0.26909 0.11871,0.31414c0.07914,0.04627 0.25569,0.0694 0.52965,0.0694c0.05479,0 0.13698,0 0.24656,0c0.10958,0 0.23439,0 0.37441,0c0.14002,0 0.28309,0 0.4292,0c0.14611,0 0.27883,0 0.39815,0c0.11811,0 0.21064,0 0.27761,0c0.1522,0 0.26787,-0.02618 0.34701,-0.07853c0.07914,-0.05114 0.13698,-0.15463 0.17351,-0.31049c0.03653,-0.15463 0.06392,-0.38415 0.08219,-0.68855c0.10349,0.07306 0.24352,0.14307 0.42007,0.21003c0.17655,0.06697 0.33179,0.11263 0.46573,0.13698c-0.03653,0.42616 -0.10228,0.75612 -0.19725,0.9899c-0.09375,0.23499 -0.23621,0.39633 -0.42737,0.48399c-0.19238,0.08888 -0.45903,0.13333 -0.79996,0.13333c-0.0487,0 -0.13698,0 -0.26483,0c-0.12785,0 -0.27274,0 -0.43468,0c-0.16072,0 -0.32144,0 -0.48217,0c-0.16194,0 -0.30562,0 -0.43103,0c-0.12419,0 -0.21064,0 -0.25935,0c-0.40789,0 -0.72264,-0.03653 -0.94424,-0.10958c-0.22282,-0.07306 -0.37806,-0.2009 -0.46573,-0.38354c-0.08888,-0.18264 -0.13333,-0.43833 -0.13333,-0.76708v-2.51128M263.69987,187.68197l0.73055,0.71229c-0.33484,0.13394 -0.70498,0.25996 -1.11044,0.37806c-0.40424,0.11932 -0.81639,0.22769 -1.23646,0.3251c-0.42007,0.09741 -0.82796,0.18264 -1.22368,0.25569c-0.02435,-0.10349 -0.06697,-0.22708 -0.12785,-0.37076c-0.06088,-0.14246 -0.11871,-0.26239 -0.17351,-0.3598c0.37745,-0.07914 0.75978,-0.16924 1.14697,-0.2703c0.38598,-0.09984 0.75247,-0.20943 1.09948,-0.32875c0.34701,-0.11811 0.64532,-0.23195 0.89493,-0.34153M260.12929,191.63609h4.41985v4.0911h-0.97712v-3.28749h-2.52041v3.32402h-0.92232v-4.12763M260.61328,193.10633h3.29662v0.76708h-3.29662v-0.76708M260.57675,194.57657h3.33315v0.78534h-3.33315v-0.78534M256.3852,191.95571c0.28005,-0.06088 0.59966,-0.13576 0.95885,-0.22465c0.35919,-0.08767 0.73664,-0.18507 1.13236,-0.29222c0.39572,-0.10593 0.79143,-0.21064 1.18715,-0.31414l0.11871,0.90406c-0.54183,0.1522 -1.08974,0.3044 -1.64375,0.4566c-0.554,0.1522 -1.05626,0.28918 -1.50677,0.41094l-0.24656,-0.94059M256.52218,188.99696h3.11398v0.91319h-3.11398v-0.91319M257.7002,187.24364h0.95885v7.45164c0,0.24352 -0.02618,0.43346 -0.07853,0.56983c-0.05114,0.13759 -0.15281,0.24291 -0.30501,0.31596c-0.14002,0.07306 -0.3184,0.12176 -0.53513,0.14611c-0.21551,0.02435 -0.4846,0.03348 -0.80726,0.0274c-0.01218,-0.12176 -0.04566,-0.2697 -0.10045,-0.44381c-0.05479,-0.1729 -0.11263,-0.32327 -0.17351,-0.45112c0.18264,0.00609 0.35797,0.01035 0.526,0.01278c0.16681,0.00365 0.28065,0.00244 0.34153,-0.00365c0.06088,0 0.10471,-0.01218 0.1315,-0.03653c0.028,-0.02435 0.04201,-0.07001 0.04201,-0.13698zM269.15162,190.17498h4.88558v0.96798h-4.88558v-0.96798M271.16978,187.32582h1.01364v8.43789h-1.01364v-8.43789M266.90517,187.2619l0.86753,0.26483c-0.13394,0.3531 -0.29527,0.70133 -0.48399,1.04469c-0.18873,0.34458 -0.39754,0.66724 -0.62645,0.96798c-0.22769,0.30196 -0.46634,0.56557 -0.71594,0.79082c-0.01826,-0.07306 -0.05479,-0.16924 -0.10958,-0.28857c-0.05479,-0.11811 -0.11263,-0.23804 -0.17351,-0.3598c-0.06088,-0.12176 -0.11871,-0.22221 -0.17351,-0.30135c0.29222,-0.24961 0.56314,-0.56314 0.81274,-0.94059c0.24961,-0.37745 0.45051,-0.77012 0.60271,-1.17802M266.75906,188.20249h2.41083v0.92232h-2.59346l0.18264,-0.92232M267.06042,195.78198l-0.13698,-0.84927l0.30135,-0.31962l1.99076,-0.94059c0.01218,0.12785 0.03227,0.27517 0.06027,0.44198c0.02679,0.16803 0.0554,0.30379 0.08584,0.40728c-0.4566,0.23134 -0.82492,0.41824 -1.10496,0.5607c-0.28005,0.14368 -0.49921,0.25935 -0.6575,0.34701c-0.15829,0.08888 -0.277,0.15768 -0.35614,0.20638c-0.07914,0.0487 -0.14002,0.09741 -0.18264,0.14611M266.26594,189.8645h2.64826v0.87666h-2.64826v-0.87666M265.81847,191.72741h3.30575v0.8858h-3.30575v-0.8858M267.06042,195.78198c-0.02435,-0.08523 -0.06088,-0.18142 -0.10958,-0.28857c-0.0487,-0.10593 -0.10532,-0.21064 -0.16985,-0.31414c-0.06331,-0.10349 -0.12237,-0.18873 -0.17716,-0.25569c0.09741,-0.06088 0.19968,-0.15707 0.30683,-0.28857c0.10593,-0.13028 0.1589,-0.29283 0.1589,-0.48764v-4.0637h0.93146v4.80339c0,0 -0.03166,0.01948 -0.09497,0.05844c-0.06453,0.04018 -0.14246,0.09193 -0.23378,0.15524c-0.09132,0.06453 -0.18386,0.13637 -0.27761,0.21551c-0.09497,0.07914 -0.17472,0.15829 -0.23926,0.23743c-0.06331,0.07914 -0.09497,0.15524 -0.09497,0.2283zM277.75389,188.81433h5.07735v0.95885h-5.07735v-0.95885M278.31094,190.33022l0.8858,-0.2009c0.07306,0.31049 0.14307,0.63619 0.21003,0.97712c0.06697,0.34092 0.12967,0.67881 0.18812,1.01364c0.05723,0.33484 0.10715,0.65263 0.14976,0.95337c0.04262,0.30196 0.0761,0.57166 0.10045,0.80909l-0.96798,0.27396c-0.01826,-0.23743 -0.04566,-0.51139 -0.08219,-0.82187c-0.03653,-0.31049 -0.08036,-0.63802 -0.1315,-0.98259c-0.05236,-0.34336 -0.10715,-0.68855 -0.16437,-1.03556c-0.05844,-0.34701 -0.12115,-0.67576 -0.18812,-0.98625M281.38839,190.09279l1.03191,0.15524c-0.06697,0.38354 -0.14002,0.78047 -0.21917,1.1908c-0.07914,0.41155 -0.16255,0.81944 -0.25021,1.22368c-0.08888,0.40546 -0.1802,0.79082 -0.27396,1.1561c-0.09497,0.36528 -0.18507,0.69403 -0.2703,0.98625l-0.84927,-0.18264c0.08523,-0.29831 0.16924,-0.63497 0.25204,-1.00999c0.08158,-0.3738 0.16072,-0.76647 0.23743,-1.17802c0.07549,-0.41033 0.14368,-0.81639 0.20455,-1.2182c0.06088,-0.4018 0.10654,-0.77621 0.13698,-1.12323M277.40688,194.45785h5.75311v0.94059h-5.75311v-0.94059M279.52548,187.36235l0.93146,-0.2283c0.08523,0.21917 0.17229,0.45964 0.26117,0.72142c0.08767,0.26178 0.15585,0.49008 0.20455,0.68489l-0.97712,0.27396c-0.03653,-0.19481 -0.09558,-0.42798 -0.17716,-0.6995c-0.0828,-0.2703 -0.16377,-0.52113 -0.24291,-0.75247M276.85896,187.28016l0.92232,0.28309c-0.19481,0.51748 -0.42616,1.03312 -0.69403,1.54695c-0.26787,0.51504 -0.55705,1.00208 -0.86753,1.46111c-0.31049,0.46025 -0.63315,0.86388 -0.96798,1.21089c-0.02435,-0.07914 -0.06819,-0.18264 -0.1315,-0.31049c-0.06453,-0.12785 -0.1315,-0.25752 -0.2009,-0.38902c-0.07062,-0.13028 -0.13637,-0.23499 -0.19725,-0.31414c0.28613,-0.28005 0.56192,-0.60758 0.82735,-0.98259c0.26422,-0.3738 0.50895,-0.77378 0.73421,-1.19993c0.22525,-0.42616 0.41702,-0.86144 0.57531,-1.30586M275.92751,189.75491l0.98625,-0.98625v0.00913v6.97678h-0.98625zM284.03665,190.81422h8.19133v0.97712h-8.19133v-0.97712M287.69855,188.19336h1.04104v6.28276c0,0.31049 -0.04079,0.54609 -0.12237,0.70681c-0.0828,0.16194 -0.23073,0.28248 -0.44381,0.36162c-0.2009,0.07914 -0.4639,0.12906 -0.789,0.14976c-0.32631,0.02192 -0.72081,0.03287 -1.1835,0.03287c-0.01826,-0.09741 -0.0487,-0.20882 -0.09132,-0.33423c-0.04262,-0.12419 -0.09132,-0.249 -0.14611,-0.37441c-0.05479,-0.12419 -0.10958,-0.23195 -0.16437,-0.32327c0.23134,0.01218 0.45842,0.01948 0.68124,0.02192c0.2216,0.00365 0.41763,0.00365 0.5881,0c0.17046,-0.00244 0.28918,-0.00365 0.35614,-0.00365c0.10349,0 0.17533,-0.01705 0.21551,-0.05114c0.03896,-0.03287 0.05844,-0.09802 0.05844,-0.19542v-6.27363M284.65762,187.84634h6.94026v0.97712h-6.94026zM293.34207,187.80982h7.85345v0.91319h-7.85345v-0.91319M296.80307,189.90102h0.84927v3.47013h-0.84927v-3.47013M295.87162,191.9831v0.89493h2.72131v-0.89493h-2.72131M295.87162,190.33936v0.89493h2.72131v-0.89493h-2.72131M295.06801,189.53575h4.37419v4.15502h-4.37419v-4.15502M300.12709,190.09279h0.98625v5.65266h-0.98625v-5.65266M293.41513,190.14759h1.00451v4.26461h6.32842v0.91319h-7.33293zM305.10398,191.27994h2.39256v0.77621h-2.39256v-0.77621M305.10398,192.83237h2.41083v0.77621h-2.41083v-0.77621M303.305,194.39393h6.24623v0.90406h-6.24623v-0.90406M302.69316,189.6362h7.39685v6.13665h-0.99538v-5.23259h-5.46089v5.23259h-0.94059v-6.13665M304.67478,190.22064h0.8858v4.58422h-0.8858v-4.58422M307.11301,190.22064h0.8858v4.57509h-0.8858v-4.57509M305.75235,188.22075l1.15975,0.24656c-0.10349,0.32266 -0.20516,0.64958 -0.30501,0.98077c-0.10106,0.3324 -0.19725,0.61732 -0.28857,0.85475l-0.89493,-0.24656c0.04262,-0.17046 0.08706,-0.36223 0.13333,-0.57531c0.04505,-0.21308 0.08584,-0.43103 0.12237,-0.65385c0.03653,-0.2216 0.06088,-0.42372 0.07306,-0.60636M302.30049,187.79155h8.20959v0.93146h-8.20959zM312.95743,188.59516h2.21906v0.93146h-2.21906v-0.93146M316.39103,187.25277h1.03191v8.52008h-1.03191v-8.52008M312.43691,191.5539l0.59357,-0.66663c0.17046,0.12176 0.35797,0.25691 0.56253,0.40546c0.20334,0.14976 0.39937,0.30074 0.5881,0.45294c0.18873,0.1522 0.33788,0.28613 0.44746,0.4018l-0.61184,0.74882c-0.10958,-0.12176 -0.25569,-0.26178 -0.43833,-0.42007c-0.18264,-0.15829 -0.37441,-0.3184 -0.57531,-0.48034c-0.2009,-0.16072 -0.38963,-0.30805 -0.56618,-0.44198M312.86611,187.2345l0.97712,0.18264c-0.12176,0.57835 -0.27213,1.14271 -0.45112,1.69306c-0.1802,0.55157 -0.38415,1.06296 -0.61184,1.53416c-0.22891,0.47242 -0.48034,0.88519 -0.7543,1.23829c-0.05479,-0.05479 -0.13211,-0.12176 -0.23195,-0.2009c-0.10106,-0.07914 -0.20455,-0.15707 -0.31049,-0.23378c-0.10715,-0.07549 -0.20029,-0.13454 -0.27944,-0.17716c0.26787,-0.31657 0.50834,-0.68672 0.72142,-1.11044c0.21308,-0.4225 0.39876,-0.88336 0.55705,-1.38257c0.15829,-0.49921 0.28613,-1.01364 0.38354,-1.54329M314.82948,188.59516h0.19177l0.19177,-0.03653l0.69403,0.21003c-0.14611,1.22368 -0.3945,2.28724 -0.74516,3.19069c-0.34945,0.90467 -0.78717,1.66262 -1.31317,2.27385c-0.52722,0.61245 -1.13175,1.09522 -1.8136,1.44832c-0.0487,-0.07914 -0.12298,-0.17229 -0.22282,-0.27944c-0.10106,-0.10593 -0.20334,-0.20943 -0.30683,-0.31049c-0.10349,-0.09984 -0.19786,-0.17716 -0.28309,-0.23195c0.66967,-0.31657 1.25107,-0.73969 1.7442,-1.26934c0.49312,-0.52965 0.89797,-1.18715 1.21455,-1.97249c0.31657,-0.78534 0.53269,-1.71376 0.64837,-2.78523v-0.23743M317.012,190.56765l0.76708,-0.56618c0.22525,0.20699 0.4706,0.43651 0.73603,0.68855c0.26422,0.25326 0.51687,0.50165 0.75795,0.74516c0.23987,0.24352 0.4359,0.45964 0.5881,0.64837l-0.82187,0.67576c-0.14002,-0.19481 -0.32571,-0.42189 -0.55705,-0.68124c-0.23134,-0.25813 -0.47608,-0.51808 -0.73421,-0.77987c-0.25935,-0.26178 -0.50469,-0.5053 -0.73603,-0.73055zM321.7606,196.15639l-0.26483,-0.66663c0.38354,-0.12785 0.67576,-0.30135 0.87666,-0.52052c0.2009,-0.21917 0.30135,-0.47182 0.30135,-0.75795l-0.09132,-0.86753l0.50226,0.78534c-0.07306,0.07306 -0.15524,0.1248 -0.24656,0.15524c-0.09132,0.03044 -0.18568,0.04566 -0.28309,0.04566c-0.21308,0 -0.40302,-0.06697 -0.56983,-0.2009c-0.16803,-0.13394 -0.25204,-0.32266 -0.25204,-0.56618c0,-0.24961 0.08401,-0.44138 0.25204,-0.57531c0.16681,-0.13394 0.36284,-0.2009 0.5881,-0.2009c0.3044,0 0.53574,0.10776 0.69403,0.32327c0.15829,0.21673 0.23743,0.50773 0.23743,0.87301c0,0.51139 -0.15524,0.95885 -0.46573,1.34239c-0.31049,0.38354 -0.73664,0.66054 -1.27847,0.831zM334.10695,187.27103h1.05017c-0.00609,0.62706 0.01035,1.2462 0.04931,1.85743c0.04018,0.61245 0.09862,1.19872 0.17533,1.75881c0.07549,0.56009 0.16681,1.07452 0.27396,1.54329c0.10593,0.46877 0.22465,0.87666 0.35614,1.22368c0.13028,0.34701 0.26726,0.61793 0.41094,0.81274c0.14246,0.19481 0.2837,0.29222 0.42372,0.29222c0.10958,0 0.19177,-0.12967 0.24656,-0.38902c0.05479,-0.25813 0.09741,-0.67941 0.12785,-1.26386c0.10349,0.11567 0.23621,0.22647 0.39815,0.3324c0.16072,0.10715 0.31109,0.18812 0.45112,0.24291c-0.05479,0.56009 -0.13211,0.99051 -0.23195,1.29125c-0.10106,0.30196 -0.23804,0.512 -0.41094,0.6301c-0.17412,0.11932 -0.39815,0.17899 -0.67211,0.17899c-0.31049,0 -0.59053,-0.11445 -0.84014,-0.34336c-0.24961,-0.22769 -0.47182,-0.54426 -0.66663,-0.94972c-0.19481,-0.40424 -0.36223,-0.87727 -0.50226,-1.4191c-0.14002,-0.54183 -0.25691,-1.13114 -0.35067,-1.76794c-0.09497,-0.63558 -0.16498,-1.29612 -0.21003,-1.98163c-0.04627,-0.68428 -0.07245,-1.36735 -0.07853,-2.0492M335.59546,187.83721l0.58444,-0.59357c0.16437,0.07306 0.33971,0.1595 0.526,0.25935c0.18507,0.10106 0.3598,0.20455 0.52417,0.31049c0.16437,0.10715 0.29831,0.20943 0.4018,0.30683l-0.61184,0.66663c-0.09741,-0.09741 -0.22525,-0.20395 -0.38354,-0.31962c-0.15829,-0.11567 -0.32875,-0.2283 -0.51139,-0.33788c-0.18264,-0.10958 -0.35919,-0.20699 -0.52965,-0.29222M336.57257,190.09279l0.98625,0.2283c-0.38354,1.21759 -0.90223,2.29211 -1.55608,3.22357c-0.65506,0.93146 -1.4331,1.6894 -2.33412,2.27385c-0.0487,-0.06697 -0.11871,-0.14794 -0.21003,-0.24291c-0.09132,-0.09375 -0.1869,-0.18812 -0.28674,-0.28309c-0.10106,-0.09375 -0.19116,-0.16803 -0.2703,-0.22282c0.88884,-0.5053 1.6407,-1.18411 2.25558,-2.03642c0.61488,-0.85231 1.0867,-1.83247 1.41545,-2.94048M329.75103,188.62256h8.10001v0.96798h-8.10001v-0.96798M329.70537,194.22955c0.34092,-0.06088 0.73542,-0.13394 1.1835,-0.21917c0.44685,-0.08523 0.91867,-0.17838 1.41545,-0.27944c0.49556,-0.09984 0.98686,-0.19847 1.47389,-0.29587l0.09132,0.94059c-0.46268,0.10349 -0.93024,0.20516 -1.40266,0.30501c-0.47121,0.10106 -0.9278,0.19847 -1.36979,0.29222c-0.44077,0.09497 -0.84379,0.18507 -1.20907,0.2703l-0.18264,-1.01364M331.10255,191.06078v1.20541h1.50677v-1.20541h-1.50677M330.20762,190.22977h3.35141v2.85829h-3.35141zM338.71857,190.87814h8.42876v1.07757h-8.42876zM352.87304,187.59978h1.58895v0.831h-1.58895v-0.831M351.68589,191.36213h3.35141v0.831h-3.35141v-0.831M348.83674,189.4079h2.48388v0.8584h-2.48388v-0.8584M348.83674,191.27081h2.45649v0.8584h-2.45649v-0.8584M352.79999,192.12008c0.18873,0.46877 0.44868,0.89006 0.77987,1.26386c0.3324,0.37502 0.72994,0.69342 1.19263,0.9552c0.46268,0.26178 0.98625,0.4566 1.57069,0.58444c-0.06697,0.06697 -0.14002,0.15037 -0.21917,0.25021c-0.07914,0.10106 -0.1522,0.20334 -0.21917,0.30683c-0.06697,0.10349 -0.12176,0.19786 -0.16437,0.28309c-0.93146,-0.25569 -1.70158,-0.67576 -2.31038,-1.2602c-0.60879,-0.58444 -1.08365,-1.31195 -1.42458,-2.18253l0.79448,-0.2009M347.72264,193.39855c0.31657,-0.03653 0.67576,-0.08219 1.07757,-0.13698c0.4018,-0.05479 0.82918,-0.11445 1.28212,-0.17899c0.45416,-0.06331 0.9065,-0.12541 1.357,-0.18629l0.04566,0.831c-0.63315,0.10958 -1.26934,0.2143 -1.90857,0.31414c-0.63923,0.10106 -1.20846,0.19421 -1.70767,0.27944l-0.14611,-0.92232M350.91881,187.15232l0.77621,0.74882c-0.28613,0.12176 -0.59357,0.24047 -0.92232,0.35614c-0.32875,0.11567 -0.66054,0.22343 -0.99538,0.32327c-0.33484,0.10106 -0.6575,0.19116 -0.96798,0.2703c-0.02435,-0.10349 -0.07001,-0.22708 -0.13698,-0.37076c-0.06697,-0.14246 -0.12785,-0.26543 -0.18264,-0.36893c0.29222,-0.08523 0.58627,-0.18142 0.88214,-0.28857c0.29466,-0.10593 0.57714,-0.21856 0.84744,-0.33788c0.27152,-0.11811 0.50469,-0.22891 0.6995,-0.3324M352.29773,187.59065h0.89493v1.15062c0,0.28613 -0.03044,0.58749 -0.09132,0.90406c-0.06088,0.31657 -0.17959,0.62219 -0.35614,0.91684c-0.17655,0.29587 -0.43529,0.55644 -0.77621,0.78169c-0.04262,-0.06088 -0.10654,-0.13089 -0.19177,-0.21003c-0.08523,-0.07914 -0.17168,-0.15829 -0.25935,-0.23743c-0.08888,-0.07914 -0.16681,-0.13698 -0.23378,-0.17351c0.29831,-0.19481 0.51869,-0.40485 0.66115,-0.6301c0.14368,-0.22525 0.23804,-0.4566 0.28309,-0.69403c0.04627,-0.23743 0.0694,-0.46573 0.0694,-0.68489v-1.12323M354.82727,191.36213h0.18264l0.16437,-0.0274l0.61184,0.2009c-0.18873,0.82187 -0.48095,1.51285 -0.87666,2.07295c-0.39572,0.56009 -0.87362,1.01669 -1.43371,1.36979c-0.56009,0.3531 -1.19324,0.6301 -1.89944,0.831c-0.03653,-0.08523 -0.08219,-0.17959 -0.13698,-0.28309c-0.05479,-0.10349 -0.11445,-0.20577 -0.17899,-0.30683c-0.06331,-0.09984 -0.12541,-0.18325 -0.18629,-0.25021c0.63315,-0.14611 1.20359,-0.3671 1.71132,-0.66298c0.50895,-0.29466 0.93998,-0.67333 1.29308,-1.13601c0.3531,-0.46268 0.60271,-1.01669 0.74882,-1.66201v-0.14611M348.47146,188.11117l0.94059,0.31962v7.16856h-0.94059v-7.48817M354.2063,187.59065h0.89493v2.20079c0,0.12785 0.00913,0.21612 0.0274,0.26483c0.01826,0.0487 0.05784,0.07306 0.11871,0.07306c0.03653,0 0.0834,0 0.14063,0c0.05844,0 0.11932,0 0.18264,0c0.06453,0 0.11202,0 0.14246,0c0.06088,0 0.13698,-0.00487 0.2283,-0.01461c0.09132,-0.00852 0.16742,-0.02192 0.2283,-0.04018c0.00609,0.11567 0.01339,0.24474 0.02192,0.38719c0.00974,0.14368 0.02374,0.26726 0.04201,0.37076c-0.06088,0.02435 -0.13698,0.03957 -0.2283,0.04566c-0.09132,0.00609 -0.18568,0.00913 -0.28309,0.00913c-0.03653,0 -0.09315,0 -0.16985,0c-0.07549,0 -0.14976,0 -0.22282,0c-0.07306,0 -0.13089,0 -0.17351,0c-0.26178,0 -0.46268,-0.03835 -0.60271,-0.11506c-0.14002,-0.07549 -0.23317,-0.19542 -0.27944,-0.3598c-0.04505,-0.16437 -0.06758,-0.37745 -0.06758,-0.63923zM357.72209,187.97419h2.6026v6.10012h-2.6026v-0.87666h1.6894v-4.34679h-1.6894v-0.87666M357.77688,190.55852h1.90857v0.8584h-1.90857v-0.8584M357.25636,187.97419h0.92232v6.83981h-0.92232v-6.83981M360.68997,188.96957h4.76686v0.97712h-4.76686v-0.97712M363.48433,187.29843h0.99538v7.13203c0,0.3044 -0.03957,0.53391 -0.11871,0.68855c-0.07914,0.15585 -0.21612,0.27335 -0.41094,0.35249c-0.18873,0.07914 -0.4432,0.12906 -0.76343,0.14976c-0.31901,0.02192 -0.70681,0.02983 -1.16341,0.02374c-0.01826,-0.14002 -0.06271,-0.30622 -0.13333,-0.4986c-0.0694,-0.19116 -0.14063,-0.35371 -0.21369,-0.48764c0.22525,0.00609 0.44259,0.01035 0.65202,0.01278c0.21064,0.00365 0.39511,0.00548 0.55339,0.00548c0.15829,0 0.27091,0 0.33788,0c0.09741,-0.00609 0.16559,-0.02618 0.20455,-0.06027c0.04018,-0.03287 0.06027,-0.09802 0.06027,-0.19542v-7.1229M360.84521,191.00599l0.81274,-0.4292c0.1522,0.21308 0.31657,0.44564 0.49312,0.69768c0.17655,0.25326 0.34397,0.49982 0.50226,0.73969c0.15829,0.24108 0.28613,0.4499 0.38354,0.62645l-0.86753,0.50226c-0.09132,-0.18264 -0.21186,-0.39754 -0.36162,-0.64471c-0.14855,-0.24595 -0.30805,-0.49982 -0.47851,-0.7616c-0.17046,-0.26178 -0.33179,-0.5053 -0.48399,-0.73055zM366.45221,189.4079h1.01364v6.35581h-1.01364v-6.35581M366.58005,187.79155l0.76708,-0.46573c0.14611,0.12785 0.29222,0.27213 0.43833,0.43285c0.14611,0.16194 0.28309,0.32205 0.41094,0.48034c0.12785,0.15829 0.22525,0.3044 0.29222,0.43833l-0.82187,0.52965c-0.06697,-0.13394 -0.16011,-0.28309 -0.27944,-0.44746c-0.11811,-0.16437 -0.24717,-0.33179 -0.38719,-0.50226c-0.14002,-0.17046 -0.28005,-0.32571 -0.42007,-0.46573M368.8813,187.7185h4.90384v0.91319h-4.90384v-0.91319M373.23722,187.7185h1.01364v6.96765c0,0.23743 -0.02618,0.42129 -0.07853,0.55157c-0.05114,0.1315 -0.14976,0.23682 -0.29587,0.31596c-0.14002,0.07306 -0.31657,0.11871 -0.52965,0.13698c-0.21308,0.01826 -0.46268,0.0274 -0.74882,0.0274c-0.02435,-0.12785 -0.06271,-0.27883 -0.11506,-0.45294c-0.05114,-0.1729 -0.10715,-0.31718 -0.16803,-0.43285c0.15829,0.00609 0.3117,0.00913 0.46025,0.00913c0.14976,0 0.25204,0 0.30683,0c0.06088,0 0.10228,-0.01218 0.12419,-0.03653c0.0207,-0.02435 0.03105,-0.06392 0.03105,-0.11871v-6.96765M369.37442,192.36664v0.97712h1.88118v-0.97712h-1.88118M369.37442,190.61331v0.96798h1.88118v-0.96798h-1.88118M368.49775,189.82797h3.68016v4.31027h-3.68016zM375.39235,190.90554h8.14567v0.97712h-8.14567v-0.97712M376.06811,188.64995h6.81241v0.97712h-6.81241v-0.97712M378.91727,187.25277h1.04104v8.52008h-1.04104v-8.52008M378.7255,191.45345l0.84927,0.35614c-0.21917,0.36528 -0.46999,0.7196 -0.75247,1.06296c-0.2837,0.34458 -0.5881,0.66907 -0.91319,0.97346c-0.32631,0.3044 -0.66602,0.58262 -1.01912,0.83466c-0.3531,0.25326 -0.70925,0.47425 -1.06843,0.66298c-0.05479,-0.08523 -0.12358,-0.18142 -0.20638,-0.28857c-0.08158,-0.10593 -0.16803,-0.2076 -0.25935,-0.30501c-0.09132,-0.09741 -0.17655,-0.17959 -0.25569,-0.24656c0.3531,-0.15829 0.70437,-0.34701 1.05382,-0.56618c0.35067,-0.21917 0.6855,-0.46268 1.00451,-0.73055c0.32023,-0.26787 0.61427,-0.55096 0.88214,-0.84927c0.26787,-0.29831 0.49617,-0.59966 0.68489,-0.90406M380.15008,191.46258c0.18873,0.3044 0.41824,0.60392 0.68855,0.89858c0.27152,0.29587 0.56679,0.57896 0.8858,0.84927c0.32023,0.27152 0.65385,0.51687 1.00086,0.73603c0.34701,0.21917 0.69403,0.40485 1.04104,0.55705c-0.07306,0.06088 -0.15342,0.14124 -0.24108,0.24108c-0.08888,0.10106 -0.17594,0.20455 -0.26117,0.31049c-0.08523,0.10715 -0.15524,0.20638 -0.21003,0.2977c-0.3531,-0.18873 -0.70498,-0.41094 -1.05565,-0.66663c-0.34945,-0.25569 -0.6855,-0.53757 -1.00816,-0.84562c-0.32266,-0.30683 -0.62584,-0.63254 -0.90954,-0.97712c-0.28248,-0.34336 -0.5333,-0.69463 -0.75247,-1.05382zM387.11773,188.83259h5.38783v0.94972h-5.38783v-0.94972M388.30488,187.47193h0.96798v3.04093c0,0.31049 -0.01705,0.63923 -0.05114,0.98625c-0.03287,0.34701 -0.0968,0.69403 -0.19177,1.04104c-0.09375,0.34701 -0.23195,0.67394 -0.41459,0.98077c-0.18264,0.30805 -0.42007,0.58079 -0.71229,0.81822c-0.04262,-0.06088 -0.10958,-0.13698 -0.2009,-0.2283c-0.09132,-0.09132 -0.18568,-0.18142 -0.28309,-0.2703c-0.09741,-0.08767 -0.17959,-0.14976 -0.24656,-0.18629c0.34701,-0.28613 0.59966,-0.60575 0.75795,-0.95885c0.15829,-0.3531 0.25996,-0.71838 0.30501,-1.09583c0.04627,-0.37745 0.0694,-0.74273 0.0694,-1.09583v-3.0318M387.04468,191.16123h5.64353v0.93146h-5.64353v-0.93146M386.5059,190.55852v3.60711h-0.96798v-2.69392h-1.11409v-0.91319h2.08208M386.00364,193.6999c0.15829,0 0.31049,0.05297 0.4566,0.1589c0.14611,0.10715 0.34701,0.23682 0.60271,0.38902c0.31049,0.18264 0.67089,0.29648 1.08122,0.34153c0.41155,0.04627 0.87301,0.0694 1.3844,0.0694c0.24961,0 0.52052,-0.00304 0.81274,-0.00913c0.29222,-0.00609 0.59053,-0.01826 0.89493,-0.03653c0.3044,-0.01826 0.59784,-0.0414 0.88032,-0.0694c0.2837,-0.02679 0.54122,-0.0554 0.77256,-0.08584c-0.03653,0.08523 -0.0761,0.19177 -0.11871,0.31962c-0.04262,0.12785 -0.07914,0.25387 -0.10958,0.37806c-0.03044,0.12541 -0.0487,0.23378 -0.05479,0.3251c-0.16437,0.00609 -0.37319,0.01522 -0.62645,0.0274c-0.25204,0.01218 -0.52843,0.02253 -0.82918,0.03105c-0.30196,0.00974 -0.59784,0.01765 -0.88762,0.02374c-0.28857,0.00609 -0.54548,0.00913 -0.77073,0.00913c-0.57835,0 -1.07148,-0.03348 -1.47937,-0.10045c-0.40789,-0.06697 -0.77621,-0.19177 -1.10496,-0.37441c-0.20699,-0.11567 -0.38658,-0.23134 -0.53878,-0.34701c-0.1522,-0.11567 -0.28005,-0.17351 -0.38354,-0.17351c-0.09741,0 -0.20577,0.05601 -0.3251,0.16803c-0.11811,0.11324 -0.24108,0.25813 -0.36893,0.43468c-0.12785,0.17655 -0.25265,0.35919 -0.37441,0.54792l-0.6575,-0.93146c0.31049,-0.32875 0.62097,-0.59357 0.93146,-0.79448c0.31049,-0.2009 0.5814,-0.30135 0.81274,-0.30135M384.61559,187.96506l0.70316,-0.54792c0.16437,0.14611 0.33788,0.30744 0.52052,0.48399c0.18264,0.17655 0.35736,0.35127 0.52417,0.52417c0.16803,0.17412 0.30074,0.33118 0.39815,0.47121l-0.74882,0.62097c-0.09132,-0.14611 -0.21612,-0.30927 -0.37441,-0.48947c-0.15829,-0.17899 -0.32571,-0.36284 -0.50226,-0.55157c-0.17655,-0.18873 -0.35006,-0.35919 -0.52052,-0.51139M390.44175,187.48107h0.97712v6.74849h-0.97712zM397.19024,187.77329h4.47464v0.93146h-4.47464v-0.93146M399.6102,190.58592h1.00451v4.02718c0,0.26787 -0.0347,0.4779 -0.1041,0.6301c-0.07062,0.1522 -0.20029,0.26787 -0.38902,0.34701c-0.18264,0.06697 -0.41702,0.10958 -0.70316,0.12785c-0.28613,0.01826 -0.64228,0.0274 -1.06843,0.0274c-0.01826,-0.14002 -0.05662,-0.3044 -0.11506,-0.49312c-0.05723,-0.18873 -0.11932,-0.3531 -0.18629,-0.49312c0.18873,0.00609 0.37441,0.01035 0.55705,0.01278c0.18264,0.00365 0.34397,0.00548 0.48399,0.00548c0.14002,0 0.23743,0 0.29222,0c0.08523,-0.00609 0.14428,-0.02131 0.17716,-0.04566c0.03409,-0.02435 0.05114,-0.07001 0.05114,-0.13698v-4.00891M396.79757,190.30283h5.11387v0.93146h-5.11387v-0.93146M394.81594,191.27994l0.8584,-0.86753l0.11871,0.05479v5.31478h-0.97712v-4.50204M395.85698,189.22526l0.92232,0.34701c-0.23134,0.4018 -0.50408,0.80178 -0.81822,1.19993c-0.31292,0.39937 -0.63802,0.77378 -0.97529,1.12323c-0.33849,0.35067 -0.67211,0.65993 -1.00086,0.9278c-0.0487,-0.07306 -0.11263,-0.16316 -0.19177,-0.2703c-0.07914,-0.10593 -0.16316,-0.21247 -0.25204,-0.31962c-0.08767,-0.10593 -0.16498,-0.18933 -0.23195,-0.25021c0.31657,-0.21917 0.6301,-0.4779 0.94059,-0.77621c0.31049,-0.29831 0.60392,-0.61793 0.88032,-0.95885c0.27761,-0.34092 0.51991,-0.68185 0.7269,-1.02277M395.50083,187.24364l0.94059,0.38354c-0.21308,0.28005 -0.45842,0.56618 -0.73603,0.8584c-0.27639,0.29222 -0.56557,0.56922 -0.86753,0.831c-0.30074,0.26178 -0.59418,0.49312 -0.88032,0.69403c-0.04262,-0.07306 -0.09558,-0.16011 -0.1589,-0.26117c-0.06453,-0.09984 -0.13211,-0.20029 -0.20273,-0.30135c-0.0694,-0.09984 -0.1315,-0.1802 -0.18629,-0.24108c0.25569,-0.16437 0.51443,-0.35919 0.77621,-0.58444c0.26178,-0.22525 0.50834,-0.45842 0.73969,-0.6995c0.23134,-0.23987 0.42311,-0.46634 0.57531,-0.67941zM402.53241,191.96484c0.34092,-0.09132 0.74882,-0.21308 1.22368,-0.36528c0.47486,-0.1522 0.95276,-0.31049 1.43371,-0.47486l0.15524,0.86753c-0.43833,0.15829 -0.88275,0.31779 -1.33326,0.47851c-0.45051,0.16194 -0.86753,0.30988 -1.25107,0.44381l-0.2283,-0.94972M402.64199,189.0061h2.63912v0.90406h-2.63912v-0.90406M403.57345,187.24364h0.91319v7.43338c0,0.21917 -0.02313,0.39389 -0.0694,0.52417c-0.04505,0.1315 -0.12846,0.23378 -0.25021,0.30683c-0.12176,0.07306 -0.2697,0.11993 -0.44381,0.14063c-0.1729,0.02192 -0.38415,0.03287 -0.63376,0.03287c-0.01218,-0.11567 -0.04262,-0.25874 -0.09132,-0.4292c-0.0487,-0.17046 -0.10349,-0.31657 -0.16437,-0.43833c0.13394,0.00609 0.25874,0.00731 0.37441,0.00365c0.11567,-0.00244 0.19481,-0.00365 0.23743,-0.00365c0.08523,0 0.12785,-0.04566 0.12785,-0.13698v-7.43338M407.28101,188.28468v0.70316h1.78072v-0.70316h-1.78072M406.44087,187.59978h3.51579v2.08208h-3.51579v-2.08208M406.32216,190.70463v0.77621h0.8858v-0.77621h-0.8858M405.5916,190.02887h2.38343v2.13687h-2.38343v-2.13687M409.14392,190.70463v0.77621h0.91319v-0.77621h-0.91319M408.38597,190.02887h2.46562v2.13687h-2.46562v-2.13687M405.45462,192.75931h5.56134v0.79448h-5.56134v-0.79448M407.71934,192.13834h0.93146v3.64364h-0.93146v-3.64364M407.60063,193.14286l0.76708,0.29222c-0.21917,0.31657 -0.48399,0.6161 -0.79448,0.89858c-0.31049,0.2837 -0.65141,0.53513 -1.02277,0.7543c-0.37136,0.21917 -0.75186,0.39572 -1.14149,0.52965c-0.07306,-0.11567 -0.16864,-0.24839 -0.28674,-0.39815c-0.11932,-0.14855 -0.22769,-0.26848 -0.3251,-0.3598c0.37745,-0.10349 0.74456,-0.2423 1.10131,-0.41642c0.35554,-0.1729 0.68246,-0.37076 0.98077,-0.59357c0.29831,-0.2216 0.53878,-0.4572 0.72142,-0.70681M408.83343,193.24331c0.16437,0.21917 0.37319,0.4292 0.62645,0.6301c0.25204,0.2009 0.52722,0.3805 0.82553,0.53878c0.29831,0.15829 0.59662,0.28613 0.89493,0.38354c-0.06088,0.05479 -0.13089,0.12602 -0.21003,0.21369c-0.07914,0.08888 -0.15524,0.1802 -0.2283,0.27396c-0.07306,0.09497 -0.13089,0.18203 -0.17351,0.26117c-0.31049,-0.13394 -0.61793,-0.30622 -0.92232,-0.51687c-0.3044,-0.20943 -0.58444,-0.44503 -0.84014,-0.70681c-0.25569,-0.26178 -0.47486,-0.53269 -0.6575,-0.81274zM415.89241,188.7504h4.36506v0.93146h-4.82165l0.4566,-0.93146M417.07956,190.74116h2.94961v0.89493h-2.94961v-0.89493M417.07042,192.76845h3.08659v0.91319h-3.08659v-0.91319M416.58643,189.05176h1.00451v6.71196h-1.00451v-6.71196M416.1481,187.33496l0.94059,0.24656c-0.17046,0.49312 -0.36954,0.98016 -0.59723,1.46111c-0.22891,0.48095 -0.4773,0.92963 -0.74516,1.34604c-0.26787,0.41763 -0.54183,0.78778 -0.82187,1.11044c-0.0487,-0.06088 -0.11993,-0.13576 -0.21369,-0.22465c-0.09497,-0.08767 -0.18994,-0.17412 -0.28492,-0.25935c-0.09375,-0.08523 -0.17716,-0.1522 -0.25021,-0.2009c0.27396,-0.27396 0.53269,-0.59844 0.77621,-0.97346c0.24352,-0.3738 0.46755,-0.7756 0.67211,-1.20541c0.20334,-0.42859 0.37806,-0.86205 0.52417,-1.30039M413.79207,187.28016l0.94059,0.30135c-0.19481,0.51139 -0.42616,1.02704 -0.69403,1.54695c-0.26787,0.52113 -0.55887,1.00999 -0.87301,1.46659c-0.31292,0.4566 -0.63984,0.86144 -0.98077,1.21455c-0.02435,-0.08523 -0.07001,-0.1936 -0.13698,-0.3251c-0.06697,-0.13028 -0.13576,-0.26239 -0.20638,-0.39633c-0.0694,-0.13394 -0.13454,-0.24047 -0.19542,-0.31962c0.28613,-0.28005 0.56192,-0.60758 0.82735,-0.98259c0.26422,-0.3738 0.50895,-0.77378 0.73421,-1.19993c0.22525,-0.42616 0.42007,-0.86144 0.58444,-1.30586M412.85148,189.75491l0.98625,-0.98625v0.00913v6.97678h-0.98625zM421.64551,187.97419h2.6026v6.10012h-2.6026v-0.87666h1.6894v-4.34679h-1.6894v-0.87666M421.70031,190.55852h1.90857v0.8584h-1.90857v-0.8584M421.17979,187.97419h0.92232v6.83981h-0.92232v-6.83981M424.61339,188.96957h4.76686v0.97712h-4.76686v-0.97712M427.40775,187.29843h0.99538v7.13203c0,0.3044 -0.03957,0.53391 -0.11871,0.68855c-0.07914,0.15585 -0.21612,0.27335 -0.41094,0.35249c-0.18873,0.07914 -0.4432,0.12906 -0.76343,0.14976c-0.31901,0.02192 -0.70681,0.02983 -1.16341,0.02374c-0.01826,-0.14002 -0.06271,-0.30622 -0.13333,-0.4986c-0.0694,-0.19116 -0.14063,-0.35371 -0.21369,-0.48764c0.22525,0.00609 0.44259,0.01035 0.65202,0.01278c0.21064,0.00365 0.39511,0.00548 0.55339,0.00548c0.15829,0 0.27091,0 0.33788,0c0.09741,-0.00609 0.16559,-0.02618 0.20455,-0.06027c0.04018,-0.03287 0.06027,-0.09802 0.06027,-0.19542v-7.1229M424.76863,191.00599l0.81274,-0.4292c0.1522,0.21308 0.31657,0.44564 0.49312,0.69768c0.17655,0.25326 0.34397,0.49982 0.50226,0.73969c0.15829,0.24108 0.28613,0.4499 0.38354,0.62645l-0.86753,0.50226c-0.09132,-0.18264 -0.21186,-0.39754 -0.36162,-0.64471c-0.14855,-0.24595 -0.30805,-0.49982 -0.47851,-0.7616c-0.17046,-0.26178 -0.33179,-0.5053 -0.48399,-0.73055z" fill="#ffffff" fill-rule="nonzero" stroke-width="1"/><path d="M250.94258,202.2766h5.53394v0.89493h-5.53394v-0.89493M254.48577,201.31775h0.96798v3.97238c0,0.24352 -0.03044,0.43529 -0.09132,0.57531c-0.06088,0.14002 -0.17959,0.24656 -0.35614,0.31962c-0.17046,0.07306 -0.38658,0.11689 -0.64837,0.1315c-0.26178,0.01583 -0.57227,0.02374 -0.93146,0.02374c-0.01826,-0.12785 -0.05601,-0.28187 -0.11324,-0.46208c-0.05844,-0.17899 -0.11811,-0.3324 -0.17899,-0.46025c0.24352,0.00609 0.4779,0.01035 0.70316,0.01278c0.22525,0.00365 0.37745,0.00548 0.4566,0.00548c0.07306,0 0.12358,-0.01218 0.15159,-0.03653c0.02679,-0.02435 0.04018,-0.06697 0.04018,-0.12785v-3.95412M251.4905,203.65552l0.79448,-0.42007c0.14611,0.1522 0.29405,0.32266 0.44381,0.51139c0.14855,0.18873 0.28674,0.37441 0.41459,0.55705c0.12785,0.18264 0.22525,0.35006 0.29222,0.50226l-0.84927,0.47486c-0.06088,-0.1522 -0.15037,-0.32449 -0.26848,-0.51687c-0.11932,-0.19116 -0.25204,-0.38415 -0.39815,-0.57896c-0.14611,-0.19481 -0.28918,-0.37136 -0.4292,-0.52965M249.66411,197.82936h0.94972v8.52008h-0.94972v-8.52008M248.0295,203.50028c0.23134,-0.16437 0.51139,-0.37745 0.84014,-0.63923c0.32875,-0.26178 0.66359,-0.53269 1.00451,-0.81274l0.35614,0.79448c-0.27396,0.25569 -0.56009,0.51565 -0.8584,0.77987c-0.29831,0.26543 -0.5814,0.50773 -0.84927,0.7269l-0.49312,-0.84927M248.0295,199.61008l0.67576,-0.52965c0.14002,0.14002 0.28796,0.29527 0.44381,0.46573c0.15463,0.17046 0.30074,0.3391 0.43833,0.50591c0.13637,0.16803 0.24108,0.31901 0.31414,0.45294l-0.71229,0.60271c-0.07306,-0.14002 -0.17351,-0.29709 -0.30135,-0.47121c-0.12785,-0.1729 -0.26787,-0.34945 -0.42007,-0.52965c-0.1522,-0.17899 -0.29831,-0.34458 -0.43833,-0.49678M253.16164,198.55078h2.59346l-0.18264,0.77621h-2.90395l0.49312,-0.77621M253.30775,197.82936l1.00451,0.26483c-0.22525,0.29222 -0.48886,0.57653 -0.79082,0.85292c-0.30074,0.27761 -0.62158,0.53209 -0.9625,0.76343c-0.34092,0.23134 -0.68489,0.43224 -1.03191,0.60271c-0.0487,-0.06088 -0.11263,-0.13272 -0.19177,-0.21551c-0.07914,-0.08158 -0.16011,-0.16072 -0.24291,-0.23743c-0.08158,-0.07549 -0.15281,-0.14063 -0.21369,-0.19542c0.33484,-0.13394 0.6575,-0.30014 0.96798,-0.4986c0.31049,-0.19725 0.59053,-0.41155 0.84014,-0.64289c0.24961,-0.23134 0.4566,-0.46268 0.62097,-0.69403M252.25758,200.11233l0.72142,-0.42007c0.16437,0.13394 0.32997,0.28613 0.49678,0.4566c0.16803,0.17046 0.29466,0.32875 0.37989,0.47486l-0.75795,0.44746c-0.07914,-0.14002 -0.19786,-0.30135 -0.35614,-0.48399c-0.15829,-0.18264 -0.31962,-0.34092 -0.48399,-0.47486M255.41722,198.55078h0.18264l0.17351,-0.03653l0.64837,0.32875c-0.22525,0.48095 -0.51139,0.90528 -0.8584,1.27299c-0.34701,0.36893 -0.73786,0.69037 -1.17254,0.96433c-0.4359,0.27396 -0.90467,0.5053 -1.40632,0.69403c-0.50286,0.18873 -1.01912,0.34397 -1.54877,0.46573c-0.0487,-0.11567 -0.11871,-0.24961 -0.21003,-0.4018c-0.09132,-0.1522 -0.18264,-0.27396 -0.27396,-0.36528c0.48095,-0.09132 0.95155,-0.21612 1.41179,-0.37441c0.45903,-0.15829 0.88762,-0.3531 1.28577,-0.58444c0.39937,-0.23134 0.75125,-0.49799 1.05565,-0.79996c0.3044,-0.30074 0.54183,-0.63984 0.71229,-1.0173zM260.57675,200.07581h4.59335v3.29662h-4.62075v-0.73055h3.70756v-1.83552h-3.68016v-0.73055M261.22512,204.0208h0.86753v1.16889c0,0.10958 0.02313,0.17777 0.0694,0.20455c0.04505,0.028 0.14672,0.04201 0.30501,0.04201c0.03653,0 0.09741,0 0.18264,0c0.08523,0 0.18142,0 0.28857,0c0.10593,0 0.20455,0 0.29587,0c0.09132,0 0.16133,0 0.21003,0c0.08523,0 0.14915,-0.014 0.19177,-0.04201c0.04262,-0.02679 0.07427,-0.08584 0.09497,-0.17716c0.02192,-0.09132 0.03896,-0.23134 0.05114,-0.42007c0.07914,0.06697 0.19786,0.12906 0.35614,0.18629c0.15829,0.05844 0.29527,0.09984 0.41094,0.12419c-0.03044,0.3044 -0.08219,0.53696 -0.15524,0.69768c-0.07306,0.16194 -0.17777,0.27457 -0.31414,0.33788c-0.13759,0.06453 -0.31901,0.0968 -0.54426,0.0968c-0.0487,0 -0.12785,0 -0.23743,0c-0.10958,0 -0.2283,0 -0.35614,0c-0.12785,0 -0.24534,0 -0.35249,0c-0.10593,0 -0.18325,0 -0.23195,0c-0.3044,0 -0.53878,-0.03044 -0.70316,-0.09132c-0.16437,-0.06088 -0.277,-0.16742 -0.33788,-0.31962c-0.06088,-0.1522 -0.09132,-0.36223 -0.09132,-0.6301v-1.17802M260.33932,203.95687l0.74882,0.31049c-0.0487,0.18873 -0.10958,0.39085 -0.18264,0.60636c-0.07306,0.21673 -0.1522,0.42981 -0.23743,0.63923c-0.08523,0.21064 -0.17655,0.39815 -0.27396,0.56253l-0.73969,-0.4566c0.09741,-0.14611 0.18873,-0.31353 0.27396,-0.50226c0.08523,-0.18873 0.16255,-0.38537 0.23195,-0.58992c0.07062,-0.20334 0.13028,-0.39328 0.17899,-0.56983M261.89175,203.73771l0.59357,-0.49312c0.1522,0.10958 0.31536,0.23439 0.48947,0.37441c0.1729,0.14002 0.33727,0.277 0.49312,0.41094c0.15463,0.13394 0.2837,0.25569 0.38719,0.36528l-0.62097,0.56618c-0.09132,-0.11567 -0.2149,-0.24534 -0.37076,-0.38902c-0.15463,-0.14246 -0.31718,-0.28674 -0.48764,-0.43285c-0.17046,-0.14611 -0.33179,-0.28005 -0.48399,-0.4018M264.05601,204.15777l0.75795,-0.28309c0.12176,0.18264 0.24047,0.38171 0.35614,0.59723c0.11567,0.21673 0.22099,0.42859 0.31596,0.63558c0.09375,0.20699 0.16803,0.39267 0.22282,0.55705l-0.79448,0.31962c-0.0487,-0.16437 -0.11871,-0.3531 -0.21003,-0.56618c-0.09132,-0.21308 -0.19299,-0.43103 -0.30501,-0.65385c-0.11324,-0.2216 -0.22769,-0.42372 -0.34336,-0.60636M260.78679,201.35428h3.95412v0.70316h-3.95412v-0.70316M257.54496,198.22203h2.15513v0.87666h-1.29673v7.25987h-0.8584v-8.13654M259.4444,198.22203h0.16437l0.13698,-0.03653l0.63923,0.36528c-0.07914,0.26178 -0.1662,0.53878 -0.26117,0.831c-0.09375,0.29222 -0.18933,0.57957 -0.28674,0.86205c-0.09741,0.2837 -0.19177,0.54426 -0.28309,0.78169c0.29222,0.35919 0.48399,0.69524 0.57531,1.00816c0.09132,0.31414 0.13698,0.60819 0.13698,0.88214c0,0.27396 -0.03044,0.50652 -0.09132,0.69768c-0.06088,0.19238 -0.16133,0.34032 -0.30135,0.44381c-0.07306,0.0487 -0.1522,0.08645 -0.23743,0.11324c-0.08523,0.028 -0.17655,0.05114 -0.27396,0.0694c-0.17046,0.01826 -0.37136,0.02435 -0.60271,0.01826c-0.00609,-0.11567 -0.0274,-0.25569 -0.06392,-0.42007c-0.03653,-0.16437 -0.08828,-0.3044 -0.15524,-0.42007c0.09132,0.00609 0.17229,0.00913 0.24291,0.00913c0.0694,0 0.13454,0 0.19542,0c0.11567,0 0.20395,-0.02435 0.26483,-0.07306c0.06088,-0.0487 0.10228,-0.12054 0.12419,-0.21551c0.0207,-0.09375 0.03105,-0.2076 0.03105,-0.34153c0,-0.22525 -0.04444,-0.4779 -0.13333,-0.75795c-0.08767,-0.28005 -0.27152,-0.5814 -0.55157,-0.90406c0.07306,-0.20699 0.14307,-0.43224 0.21003,-0.67576c0.06697,-0.24352 0.13394,-0.48704 0.2009,-0.73055c0.06697,-0.24352 0.12785,-0.47182 0.18264,-0.68489c0.05479,-0.21308 0.10045,-0.39267 0.13698,-0.53878v-0.28309M262.07439,198.55991h1.88118v0.72142h-2.44735l0.56618,-0.72142M261.69085,197.90241l0.89493,0.16437c-0.21917,0.39572 -0.47973,0.79143 -0.78169,1.18715c-0.30074,0.39572 -0.65506,0.76708 -1.06296,1.11409c-0.0487,-0.06088 -0.10958,-0.12967 -0.18264,-0.20638c-0.07306,-0.07549 -0.14915,-0.14855 -0.2283,-0.21917c-0.07914,-0.0694 -0.1522,-0.12541 -0.21917,-0.16803c0.36528,-0.28005 0.68063,-0.58931 0.94607,-0.9278c0.26422,-0.33727 0.47547,-0.65202 0.63376,-0.94424M263.71813,198.55991h0.19177l0.12785,-0.03653l0.58444,0.38354c-0.10958,0.18264 -0.23743,0.37258 -0.38354,0.56983c-0.14611,0.19847 -0.29831,0.38902 -0.4566,0.57166c-0.15829,0.18264 -0.30744,0.34397 -0.44746,0.48399c-0.07914,-0.06088 -0.18081,-0.12967 -0.30501,-0.20638c-0.12541,-0.07549 -0.23378,-0.13759 -0.3251,-0.18629c0.12785,-0.12785 0.25569,-0.277 0.38354,-0.44746c0.12785,-0.17046 0.24778,-0.34275 0.3598,-0.51687c0.11324,-0.1729 0.20334,-0.32631 0.2703,-0.46025zM266.5125,198.40467h8.12741v0.81274h-8.12741v-0.81274M268.40281,200.05754h6.32842v0.82187h-6.32842v-0.82187M267.06955,201.58257h1.23281v0.78534h-1.23281v-0.78534M266.3116,202.97062h1.9451v0.80361h-1.9451v-0.80361M269.46211,204.73308h2.41996v0.62097h-2.41996v-0.62097M268.56718,197.82936h0.97712v1.89944h-0.97712v-1.89944M271.57158,197.82936h0.97712v1.92683h-0.97712v-1.92683M270.41183,201.65563h0.64837v1.05017h-0.64837v-1.05017M266.69514,200.13973h0.71229v2.43822h-0.71229v-2.43822M270.41183,203.91121h0.64837v1.0593h-0.64837v-1.0593M269.5443,202.41358h2.29211v1.78986h-2.29211v-0.59357h1.60722v-0.60271h-1.60722v-0.59357M269.14249,201.29948h2.66652v0.62097h-1.97249v3.95412h-0.69403v-4.57509M267.97361,200.05754h0.81274v2.68478c0,0.37136 -0.01339,0.77621 -0.04018,1.21455c-0.028,0.43833 -0.08584,0.86875 -0.17351,1.29125c-0.08888,0.42372 -0.2216,0.79996 -0.39815,1.12871c-0.0487,-0.04262 -0.11871,-0.0901 -0.21003,-0.14246c-0.09132,-0.05114 -0.18386,-0.10106 -0.27761,-0.14976c-0.09497,-0.0487 -0.17899,-0.08523 -0.25204,-0.10958c0.17046,-0.31049 0.29222,-0.65141 0.36528,-1.02277c0.07306,-0.37136 0.12054,-0.74882 0.14246,-1.13236c0.0207,-0.38354 0.03105,-0.74577 0.03105,-1.0867v-2.67565M271.87294,199.50963h0.87666c0,0.98016 0.03835,1.84465 0.11506,2.59346c0.07549,0.74882 0.17412,1.37588 0.29587,1.88118c0.12176,0.5053 0.25448,0.8858 0.39815,1.14149c0.14246,0.25569 0.27761,0.38354 0.40546,0.38354c0.06088,0 0.10958,-0.03531 0.14611,-0.10593c0.03653,-0.0694 0.06879,-0.18812 0.0968,-0.35614c0.02679,-0.16681 0.04627,-0.39633 0.05844,-0.68855c0.08523,0.08523 0.18873,0.16742 0.31049,0.24656c0.12176,0.07914 0.23439,0.13698 0.33788,0.17351c-0.03653,0.44442 -0.09558,0.78047 -0.17716,1.00816c-0.0828,0.22891 -0.19116,0.38293 -0.3251,0.46208c-0.13394,0.07914 -0.30744,0.11871 -0.52052,0.11871c-0.31049,0 -0.58566,-0.15829 -0.82553,-0.47486c-0.24108,-0.31657 -0.44503,-0.77317 -0.61184,-1.36979c-0.16803,-0.59662 -0.29892,-1.31804 -0.39267,-2.16426c-0.09497,-0.84622 -0.15768,-1.79594 -0.18812,-2.84916M273.12401,199.61921l0.57531,-0.4292c0.14611,0.08523 0.29831,0.18994 0.4566,0.31414c0.15829,0.12541 0.28005,0.24291 0.36528,0.35249l-0.61184,0.47486c-0.07306,-0.10958 -0.18568,-0.23134 -0.33788,-0.36528c-0.1522,-0.13394 -0.30135,-0.24961 -0.44746,-0.34701M273.53495,201.28122l0.86753,0.14611c-0.23134,1.09583 -0.57227,2.06199 -1.02277,2.89847c-0.45051,0.8377 -1.01669,1.52442 -1.69854,2.06016c-0.0487,-0.05479 -0.11567,-0.12054 -0.2009,-0.19725c-0.08523,-0.07549 -0.17472,-0.14976 -0.26848,-0.22282c-0.09497,-0.07306 -0.17594,-0.13089 -0.24291,-0.17351c0.68185,-0.46877 1.23281,-1.08852 1.65288,-1.85926c0.42007,-0.76952 0.72447,-1.65349 0.91319,-2.65191M266.76819,203.27198h0.69403v0.78534c0,0.21308 -0.01522,0.4566 -0.04566,0.73055c-0.03044,0.27396 -0.09436,0.54913 -0.19177,0.82553c-0.09741,0.27761 -0.24047,0.526 -0.4292,0.74516c-0.06697,-0.06088 -0.15829,-0.13089 -0.27396,-0.21003c-0.11567,-0.07914 -0.21308,-0.14002 -0.29222,-0.18264c0.15829,-0.19481 0.27578,-0.40789 0.35249,-0.63923c0.07549,-0.23134 0.12541,-0.46147 0.14976,-0.69037c0.02435,-0.22769 0.03653,-0.42981 0.03653,-0.60636zM279.39764,198.43206h4.01804v0.91319h-4.01804v-0.91319M278.9867,200.61459h4.9221v0.91319h-4.9221v-0.91319M280.82222,201.07119h0.99538v4.10936c0,0.24961 -0.02557,0.44868 -0.07671,0.59723c-0.05236,0.14976 -0.16072,0.26726 -0.3251,0.35249c-0.15829,0.07914 -0.35127,0.12906 -0.57896,0.14976c-0.22891,0.02192 -0.4986,0.03287 -0.80909,0.03287c-0.01218,-0.14611 -0.04566,-0.31536 -0.10045,-0.50773c-0.05479,-0.19116 -0.11567,-0.3598 -0.18264,-0.50591c0.2009,0.00609 0.38841,0.01035 0.56253,0.01278c0.1729,0.00365 0.28979,0.00548 0.35067,0.00548c0.06088,-0.00609 0.10349,-0.01826 0.12785,-0.03653c0.02435,-0.01826 0.03653,-0.05784 0.03653,-0.11871v-4.0911M282.21027,202.66014l0.81274,-0.27396c0.14002,0.3044 0.27578,0.62828 0.40728,0.97164c0.13028,0.34458 0.24595,0.67941 0.34701,1.00451c0.09984,0.32631 0.16803,0.61427 0.20455,0.86388l-0.8858,0.32875c-0.03653,-0.25569 -0.09862,-0.54792 -0.18629,-0.87666c-0.08888,-0.32875 -0.19421,-0.66967 -0.31596,-1.02277c-0.12176,-0.3531 -0.24961,-0.68489 -0.38354,-0.99538M279.4433,202.42271l0.8858,0.2009c-0.09132,0.3531 -0.2009,0.7062 -0.32875,1.0593c-0.12785,0.3531 -0.26604,0.68611 -0.41459,0.99903c-0.14976,0.31414 -0.30379,0.58992 -0.46208,0.82735c-0.05479,-0.0487 -0.12906,-0.10532 -0.22282,-0.16985c-0.09497,-0.06331 -0.19116,-0.12541 -0.28857,-0.18629c-0.09741,-0.06088 -0.18264,-0.10958 -0.25569,-0.14611c0.23743,-0.32266 0.45051,-0.71533 0.63923,-1.17802c0.18873,-0.46268 0.33788,-0.93146 0.44746,-1.40632M275.48004,199.66487h3.38794v0.91319h-3.38794v-0.91319M276.78591,197.82936h0.97712v8.52008h-0.97712v-8.52008M276.66719,200.27671l0.60271,0.19177c-0.06697,0.34701 -0.14915,0.70742 -0.24656,1.08122c-0.09741,0.37502 -0.21003,0.74334 -0.33788,1.10496c-0.12785,0.36284 -0.26604,0.70072 -0.41459,1.01364c-0.14976,0.31414 -0.30379,0.58383 -0.46208,0.80909c-0.03044,-0.09132 -0.07427,-0.19481 -0.1315,-0.31049c-0.05844,-0.11567 -0.12115,-0.23134 -0.18812,-0.34701c-0.06697,-0.11567 -0.13089,-0.21308 -0.19177,-0.29222c0.2009,-0.24961 0.39146,-0.55705 0.57166,-0.92232c0.17899,-0.36528 0.33727,-0.75369 0.47486,-1.16523c0.13637,-0.41033 0.24413,-0.79813 0.32327,-1.16341M277.71736,200.7333c0.05479,0.06088 0.14124,0.16133 0.25935,0.30135c0.11932,0.14002 0.24778,0.29527 0.38537,0.46573c0.13637,0.17046 0.26117,0.32571 0.37441,0.46573c0.11202,0.14002 0.19238,0.24047 0.24108,0.30135l-0.53878,0.77621c-0.05479,-0.12176 -0.13394,-0.26787 -0.23743,-0.43833c-0.10349,-0.17046 -0.21308,-0.34884 -0.32875,-0.53513c-0.11567,-0.18507 -0.22647,-0.35675 -0.3324,-0.51504c-0.10715,-0.15829 -0.19725,-0.28613 -0.2703,-0.38354zM286.9132,201.79261h3.74409v0.80361h-3.74409v-0.80361M285.80824,198.57817h2.84003v0.78534h-2.84003v-0.78534M289.43361,198.57817h3.41534v0.78534h-3.41534v-0.78534M285.89043,197.76543l0.91319,0.23743c-0.11567,0.32875 -0.25265,0.65445 -0.41094,0.97712c-0.15829,0.32266 -0.32692,0.62706 -0.50591,0.91319c-0.1802,0.28613 -0.36467,0.53878 -0.55339,0.75795c-0.05479,-0.05479 -0.13272,-0.11567 -0.23378,-0.18264c-0.09984,-0.06697 -0.20151,-0.13089 -0.30501,-0.19177c-0.10349,-0.06088 -0.19177,-0.10958 -0.26483,-0.14611c0.28613,-0.28613 0.54974,-0.64106 0.79082,-1.06478c0.23987,-0.4225 0.42981,-0.85596 0.56983,-1.30039M289.55233,197.76543l0.92232,0.21917c-0.14002,0.38354 -0.32266,0.75308 -0.54792,1.10861c-0.22525,0.35675 -0.4566,0.65689 -0.69403,0.90041c-0.06088,-0.05479 -0.14002,-0.11445 -0.23743,-0.17899c-0.09741,-0.06331 -0.19603,-0.12724 -0.29587,-0.19177c-0.10106,-0.06331 -0.18812,-0.11628 -0.26117,-0.1589c0.23743,-0.20699 0.45538,-0.46268 0.65385,-0.76708c0.19725,-0.3044 0.35067,-0.61488 0.46025,-0.93146M286.30137,199.21741l0.831,-0.21917c0.12785,0.18264 0.25143,0.38963 0.37076,0.62097c0.11811,0.23134 0.20151,0.43224 0.25021,0.60271l-0.87666,0.25569c-0.04262,-0.17046 -0.11993,-0.37319 -0.23195,-0.60819c-0.11324,-0.23378 -0.22769,-0.45112 -0.34336,-0.65202M290.23722,199.19914l0.87666,-0.18264c0.15829,0.18264 0.31657,0.39267 0.47486,0.6301c0.15829,0.23743 0.277,0.44746 0.35614,0.6301l-0.94059,0.2009c-0.06697,-0.17046 -0.17168,-0.37624 -0.31414,-0.61732c-0.14368,-0.23987 -0.29466,-0.46025 -0.45294,-0.66115M289.27837,200.14886c0.2009,0.19481 0.44442,0.3805 0.73055,0.55705c0.28613,0.17655 0.60149,0.34214 0.94607,0.49678c0.34336,0.15585 0.6995,0.29283 1.06843,0.41094c0.36771,0.11932 0.73116,0.21856 1.09035,0.2977c-0.10349,0.09132 -0.21125,0.21612 -0.32327,0.37441c-0.11324,0.15829 -0.20334,0.29831 -0.2703,0.42007c-0.37136,-0.09741 -0.73969,-0.22221 -1.10496,-0.37441c-0.36528,-0.1522 -0.72264,-0.32753 -1.07209,-0.526c-0.35067,-0.19725 -0.67637,-0.4085 -0.97712,-0.63376c-0.30196,-0.22525 -0.56557,-0.45964 -0.79082,-0.70316l0.70316,-0.31962M288.74872,199.65574l0.78534,0.39267c-0.3531,0.41398 -0.77012,0.79143 -1.25107,1.13236c-0.48095,0.34092 -0.99416,0.64532 -1.53964,0.91319c-0.54426,0.26787 -1.09339,0.49312 -1.6474,0.67576c-0.06088,-0.11567 -0.14428,-0.24656 -0.25021,-0.39267c-0.10715,-0.14611 -0.21551,-0.26787 -0.3251,-0.36528c0.52965,-0.1522 1.06235,-0.34397 1.59809,-0.57531c0.53574,-0.23134 1.03312,-0.49799 1.49216,-0.79996c0.46025,-0.30074 0.83953,-0.62767 1.13784,-0.98077M284.84939,205.26274h7.96303v0.86753h-7.96303v-0.86753M291.0317,202.84278l0.8858,0.24656c-0.12785,0.32875 -0.27517,0.66785 -0.44198,1.0173c-0.16803,0.35067 -0.33849,0.6855 -0.51139,1.00451c-0.17412,0.32023 -0.34032,0.60514 -0.4986,0.85475c-0.06697,-0.0487 -0.14915,-0.10349 -0.24656,-0.16437c-0.09741,-0.06088 -0.19603,-0.12054 -0.29587,-0.17899c-0.10106,-0.05723 -0.19116,-0.1041 -0.2703,-0.14063c0.17046,-0.21917 0.33971,-0.47669 0.50773,-0.77256c0.16681,-0.29466 0.32631,-0.60332 0.47851,-0.92598c0.1522,-0.32266 0.28309,-0.63619 0.39267,-0.94059M288.05469,203.08021l0.77621,-0.28309c0.10958,0.17655 0.21612,0.36954 0.31962,0.57896c0.10349,0.21064 0.19968,0.41459 0.28857,0.61184c0.08767,0.19847 0.15281,0.37684 0.19542,0.53513l-0.82187,0.33788c-0.04262,-0.15829 -0.10349,-0.33971 -0.18264,-0.54426c-0.07914,-0.20334 -0.16864,-0.41337 -0.26848,-0.6301c-0.10106,-0.21551 -0.20334,-0.41763 -0.30683,-0.60636M285.78085,203.29937l0.78534,-0.34701c0.12785,0.16437 0.25265,0.34397 0.37441,0.53878c0.12176,0.19481 0.23621,0.38476 0.34336,0.56983c0.10593,0.18629 0.18629,0.35249 0.24108,0.4986l-0.831,0.4018c-0.05479,-0.14611 -0.13089,-0.31536 -0.2283,-0.50773c-0.09741,-0.19116 -0.20516,-0.38719 -0.32327,-0.5881c-0.11932,-0.2009 -0.23987,-0.38963 -0.36162,-0.56618zM294.02697,198.28595h7.9539v0.90406h-7.9539v-0.90406M297.36012,198.73342l1.12323,0.14611c-0.11567,0.29222 -0.24169,0.57835 -0.37806,0.8584c-0.13759,0.28005 -0.26422,0.52052 -0.37989,0.72142l-0.84927,-0.17351c0.06088,-0.14611 0.12358,-0.31049 0.18812,-0.49312c0.06331,-0.18264 0.12115,-0.3671 0.17351,-0.55339c0.05114,-0.18507 0.09193,-0.35371 0.12237,-0.50591M297.47883,201.42733h1.02277v1.66201c0,0.25569 -0.03348,0.50956 -0.10045,0.7616c-0.06697,0.25326 -0.18568,0.4986 -0.35614,0.73603c-0.17046,0.23743 -0.40911,0.4639 -0.71594,0.67941c-0.30805,0.21673 -0.70255,0.41642 -1.1835,0.59905c-0.48095,0.18264 -1.06539,0.35006 -1.75333,0.50226c-0.03653,-0.07306 -0.08828,-0.15829 -0.15524,-0.25569c-0.06697,-0.09741 -0.14002,-0.19664 -0.21917,-0.2977c-0.07914,-0.09984 -0.15524,-0.1802 -0.2283,-0.24108c0.64532,-0.12176 1.18593,-0.25752 1.62183,-0.40728c0.43468,-0.14855 0.79021,-0.30683 1.06661,-0.47486c0.27761,-0.16681 0.48825,-0.34032 0.63193,-0.52052c0.14246,-0.17899 0.23926,-0.36162 0.29039,-0.54792c0.05236,-0.18507 0.07853,-0.36893 0.07853,-0.55157v-1.64375M298.30984,204.66003l0.55705,-0.66663c0.25569,0.10349 0.52965,0.22221 0.82187,0.35614c0.29222,0.13394 0.58627,0.27396 0.88214,0.42007c0.29466,0.14611 0.56983,0.29039 0.82553,0.43285c0.25569,0.14368 0.47486,0.27639 0.6575,0.39815l-0.61184,0.77621c-0.16437,-0.12785 -0.37015,-0.26665 -0.61732,-0.41642c-0.24595,-0.14855 -0.51321,-0.30074 -0.80178,-0.4566c-0.28979,-0.15463 -0.58079,-0.30501 -0.87301,-0.45112c-0.29222,-0.14611 -0.57227,-0.277 -0.84014,-0.39267M294.81231,200.09407h6.42887v4.22808h-1.05017v-3.32402h-4.37419v3.35141h-1.00451zM306.3094,198.54164h4.292v0.94059h-4.292v-0.94059M310.18133,198.54164h0.99538c0,0 -0.00183,0.03348 -0.00548,0.10045c-0.00244,0.06697 -0.00365,0.14002 -0.00365,0.21917c0,0.07914 0,0.14307 0,0.19177c-0.03044,1.14453 -0.05966,2.11373 -0.08767,2.9076c-0.02679,0.79509 -0.06149,1.44832 -0.1041,1.95971c-0.04262,0.51139 -0.09436,0.90832 -0.15524,1.1908c-0.06088,0.2837 -0.13698,0.48643 -0.2283,0.60819c-0.11567,0.17046 -0.23439,0.28918 -0.35614,0.35614c-0.12176,0.06697 -0.26787,0.11567 -0.43833,0.14611c-0.15829,0.02435 -0.35493,0.03653 -0.58992,0.03653c-0.23378,0 -0.47547,-0.00304 -0.72507,-0.00913c-0.00609,-0.14611 -0.03653,-0.31536 -0.09132,-0.50773c-0.05479,-0.19116 -0.12785,-0.35675 -0.21917,-0.49678c0.24961,0.02435 0.4779,0.03774 0.68489,0.04018c0.20699,0.00365 0.36223,0.00548 0.46573,0.00548c0.08523,0 0.15342,-0.01218 0.20455,-0.03653c0.05236,-0.02435 0.10289,-0.07001 0.15159,-0.13698c0.07306,-0.08523 0.13515,-0.26056 0.18629,-0.526c0.05236,-0.26422 0.09802,-0.64471 0.13698,-1.14149c0.04018,-0.49556 0.07427,-1.12688 0.10228,-1.89396c0.02679,-0.76708 0.05236,-1.69245 0.07671,-2.7761v-0.23743M302.72969,200.64199l3.6345,-0.71229l0.15524,0.8858l-3.62537,0.73055l-0.16437,-0.90406M307.65179,198.97998h0.97712c-0.00609,0.62097 -0.02435,1.22489 -0.05479,1.81177c-0.03044,0.5881 -0.0901,1.15306 -0.17899,1.69488c-0.08767,0.54183 -0.22282,1.05017 -0.40546,1.52503c-0.18264,0.47486 -0.43103,0.91319 -0.74516,1.315c-0.31292,0.4018 -0.7129,0.75186 -1.19993,1.05017c-0.07306,-0.12785 -0.17655,-0.26787 -0.31049,-0.42007c-0.13394,-0.1522 -0.26178,-0.27396 -0.38354,-0.36528c0.45051,-0.26178 0.81761,-0.56801 1.10131,-0.91867c0.28248,-0.34945 0.50408,-0.73725 0.6648,-1.16341c0.16194,-0.42616 0.27944,-0.88153 0.35249,-1.36613c0.07306,-0.48338 0.11993,-0.99173 0.14063,-1.52503c0.02192,-0.53209 0.03592,-1.07818 0.04201,-1.63827M303.83465,205.13489l-0.15524,-0.91319l0.34701,-0.32875l2.36517,-1.00451c0.01218,0.14002 0.03348,0.29344 0.06392,0.46025c0.03044,0.16803 0.06088,0.30379 0.09132,0.40728c-0.54183,0.24352 -0.97894,0.44442 -1.31134,0.60271c-0.33118,0.15829 -0.58992,0.28613 -0.77621,0.38354c-0.18507,0.09741 -0.32205,0.17472 -0.41094,0.23195c-0.08767,0.05844 -0.1589,0.11202 -0.21369,0.16072M303.83465,205.13489c-0.02435,-0.08523 -0.06271,-0.18264 -0.11506,-0.29222c-0.05114,-0.10958 -0.10593,-0.21612 -0.16437,-0.31962c-0.05723,-0.10349 -0.11324,-0.18873 -0.16803,-0.25569c0.10349,-0.05479 0.20699,-0.14489 0.31049,-0.2703c0.10349,-0.12419 0.15524,-0.2837 0.15524,-0.47851v-5.32391h0.94972v6.05446c0,0 -0.03348,0.01826 -0.10045,0.05479c-0.06697,0.03653 -0.14794,0.08645 -0.24291,0.14976c-0.09375,0.06453 -0.18933,0.13454 -0.28674,0.21003c-0.09741,0.07671 -0.17838,0.15585 -0.24291,0.23743c-0.06331,0.0828 -0.09497,0.16072 -0.09497,0.23378zM311.90726,202.52316c0.36528,-0.07914 0.80057,-0.18873 1.30586,-0.32875c0.5053,-0.14002 1.01669,-0.28309 1.53416,-0.4292l0.12785,0.8858c-0.46877,0.14002 -0.94363,0.28309 -1.42458,0.4292c-0.48095,0.14611 -0.91928,0.277 -1.315,0.39267l-0.2283,-0.94972M312.03511,199.59182h2.70305v0.90406h-2.70305v-0.90406M313.00309,197.83849h0.94972v7.36946c0,0.23743 -0.02618,0.42616 -0.07853,0.56618c-0.05114,0.14002 -0.14368,0.24961 -0.27761,0.32875c-0.12785,0.07914 -0.28918,0.13211 -0.48399,0.1589c-0.19481,0.028 -0.43529,0.03896 -0.72142,0.03287c-0.01218,-0.12785 -0.04383,-0.28309 -0.09497,-0.46573c-0.05236,-0.18264 -0.11202,-0.34397 -0.17899,-0.48399c0.15829,0.00609 0.30744,0.00913 0.44746,0.00913c0.14002,0 0.23743,0 0.29222,0c0.09741,0 0.14611,-0.05175 0.14611,-0.15524v-7.36033M316.33624,198.6147h2.64826v0.82187h-2.64826v-0.82187M316.49148,197.83849l0.97712,0.18264c-0.23134,0.49312 -0.52052,0.98625 -0.86753,1.47937c-0.34701,0.49312 -0.77012,0.95276 -1.26934,1.37892c-0.04262,-0.07306 -0.10045,-0.15403 -0.17351,-0.24291c-0.07306,-0.08767 -0.15098,-0.17412 -0.23378,-0.25935c-0.08158,-0.08523 -0.15585,-0.1522 -0.22282,-0.2009c0.29222,-0.23134 0.554,-0.47973 0.78534,-0.74516c0.23134,-0.26422 0.43103,-0.5333 0.59905,-0.80726c0.16681,-0.27396 0.30196,-0.53574 0.40546,-0.78534M318.68315,198.6147h0.21917l0.15524,-0.03653l0.64837,0.4292c-0.12176,0.20699 -0.26665,0.42433 -0.43468,0.65202c-0.16681,0.22891 -0.34336,0.45112 -0.52965,0.66663c-0.18507,0.21673 -0.3598,0.40728 -0.52417,0.57166c-0.08523,-0.07306 -0.19481,-0.15403 -0.32875,-0.24291c-0.13394,-0.08767 -0.25265,-0.15585 -0.35614,-0.20455c0.14611,-0.15829 0.29344,-0.33484 0.44198,-0.52965c0.14976,-0.19481 0.28857,-0.39146 0.41642,-0.58992c0.12785,-0.19725 0.22525,-0.37197 0.29222,-0.52417v-0.19177M314.72902,202.86104h5.70745v0.831h-5.70745v-0.831M315.33173,200.15799h4.53856v2.94048h-0.97712v-2.19166h-2.62999v2.19166h-0.93146v-2.94048M317.97999,203.41809c0.16437,0.31657 0.37745,0.61488 0.63923,0.89493c0.26178,0.28005 0.56131,0.52356 0.89858,0.73055c0.33849,0.20699 0.70255,0.37441 1.09218,0.50226c-0.09741,0.09132 -0.20516,0.21308 -0.32327,0.36528c-0.11932,0.1522 -0.21247,0.28613 -0.27944,0.4018c-0.41398,-0.15829 -0.79752,-0.36832 -1.15062,-0.6301c-0.3531,-0.26178 -0.66785,-0.56496 -0.94424,-0.90954c-0.27761,-0.34336 -0.51382,-0.71594 -0.70864,-1.11775l0.77621,-0.23743M317.13985,200.71504h0.95885v1.21455c0,0.26178 -0.02131,0.54 -0.06392,0.83466c-0.04262,0.29587 -0.1248,0.59905 -0.24656,0.90954c-0.12176,0.31049 -0.30135,0.62219 -0.53878,0.93511c-0.23743,0.31414 -0.5467,0.62036 -0.9278,0.91867c-0.37989,0.29831 -0.85596,0.57835 -1.42823,0.84014c-0.06697,-0.09741 -0.1662,-0.21308 -0.2977,-0.34701c-0.13028,-0.13394 -0.25326,-0.24656 -0.36893,-0.33788c0.54792,-0.22525 1.00268,-0.46573 1.36431,-0.72142c0.36284,-0.25569 0.64958,-0.5193 0.86023,-0.79082c0.20943,-0.2703 0.36284,-0.53817 0.46025,-0.80361c0.09741,-0.26422 0.1595,-0.51991 0.18629,-0.76708c0.028,-0.24595 0.04201,-0.47547 0.04201,-0.68855zM323.99792,201.38167h5.607v0.87666h-5.607v-0.87666M327.74201,201.93872l1.06843,0.04566c-0.1522,0.86449 -0.40363,1.58408 -0.7543,2.15879c-0.34945,0.57592 -0.81639,1.04043 -1.40084,1.39353c-0.58444,0.3531 -1.31195,0.63619 -2.18253,0.84927c-0.02435,-0.07914 -0.06271,-0.17046 -0.11506,-0.27396c-0.05114,-0.10349 -0.10715,-0.20882 -0.16803,-0.31596c-0.06088,-0.10593 -0.12176,-0.19238 -0.18264,-0.25935c0.77926,-0.1522 1.42884,-0.37136 1.94875,-0.6575c0.52113,-0.28613 0.9278,-0.66846 1.22002,-1.14697c0.29222,-0.4773 0.48095,-1.07513 0.56618,-1.79351M324.51844,203.73771l0.63923,-0.63923c0.35919,0.17046 0.74456,0.36041 1.1561,0.56983c0.41033,0.21064 0.81944,0.42981 1.22733,0.6575c0.40789,0.22891 0.79021,0.45416 1.14697,0.67576c0.35554,0.22282 0.65811,0.42859 0.90771,0.61732l-0.69403,0.75795c-0.23743,-0.18873 -0.52843,-0.39754 -0.87301,-0.62645c-0.34336,-0.22769 -0.71594,-0.46208 -1.11775,-0.70316c-0.4018,-0.23987 -0.80848,-0.47242 -1.22002,-0.69768c-0.41033,-0.22525 -0.80117,-0.4292 -1.17254,-0.61184M326.11653,197.92981l0.98625,-0.15524c0.07914,0.22525 0.15524,0.46877 0.2283,0.73055c0.07306,0.26178 0.12785,0.49008 0.16437,0.68489l-1.04104,0.18264c-0.01826,-0.19481 -0.06271,-0.4292 -0.13333,-0.70316c-0.0694,-0.27396 -0.13759,-0.52052 -0.20455,-0.73969M324.51844,203.73771c0.13394,-0.23743 0.27213,-0.50408 0.41459,-0.79996c0.14368,-0.29466 0.28248,-0.60514 0.41642,-0.93146c0.13394,-0.3251 0.25752,-0.65202 0.37076,-0.98077c0.11202,-0.32875 0.2076,-0.64532 0.28674,-0.94972l1.00451,0.14611c-0.12176,0.44442 -0.27274,0.90223 -0.45294,1.37344c-0.17899,0.47242 -0.36467,0.9278 -0.55705,1.36613c-0.19116,0.43833 -0.37502,0.82796 -0.55157,1.16889l-0.93146,-0.39267M324.29927,198.91605h5.18693v1.89944h-0.94972v-1.04104h-3.32402v1.04104h-0.91319v-1.89944M321.01178,202.86104c0.26787,-0.06088 0.57044,-0.13698 0.90771,-0.2283c0.33849,-0.09132 0.69646,-0.19055 1.07391,-0.2977c0.37745,-0.10593 0.75491,-0.21064 1.13236,-0.31414l0.12785,0.87666c-0.51748,0.16437 -1.04286,0.32388 -1.57617,0.47851c-0.53209,0.15585 -1.0173,0.2977 -1.45563,0.42555l-0.21003,-0.94059M321.1305,199.58268h2.97701v0.91319h-2.97701v-0.91319M322.26286,197.82936h0.94972v7.47904c0,0.24352 -0.0274,0.43224 -0.08219,0.56618c-0.05479,0.13394 -0.15524,0.23743 -0.30135,0.31049c-0.14002,0.07306 -0.31779,0.11993 -0.5333,0.14063c-0.21673,0.02192 -0.48034,0.03287 -0.79082,0.03287c-0.01826,-0.12785 -0.05357,-0.27578 -0.10593,-0.44381c-0.05114,-0.16681 -0.10715,-0.31414 -0.16803,-0.44198c0.18264,0.00609 0.35614,0.00913 0.52052,0.00913c0.16437,0 0.277,0 0.33788,0c0.06697,0 0.11263,-0.014 0.13698,-0.04201c0.02435,-0.02679 0.03653,-0.07062 0.03653,-0.1315zM333.91518,198.24029h3.8902v0.8858h-3.8902v-0.8858M333.96084,201.37254h3.6345v0.93146h-3.6345v-0.93146M333.24855,205.14402h5.52481v0.96798h-5.52481v-0.96798M337.4401,198.24942h0.95885c-0.02435,0.48704 -0.05479,0.99842 -0.09132,1.53416c-0.03653,0.53574 -0.0761,1.07452 -0.11871,1.61635c-0.04262,0.54183 -0.08523,1.07452 -0.12785,1.59809c-0.04262,0.52356 -0.08828,1.01669 -0.13698,1.47937c-0.0487,0.46268 -0.09436,0.87971 -0.13698,1.25107h-0.98625c0.05479,-0.37745 0.10776,-0.80239 0.1589,-1.27482c0.05236,-0.47121 0.10289,-0.96859 0.15159,-1.49216c0.0487,-0.52356 0.09436,-1.05626 0.13698,-1.59809c0.04262,-0.54183 0.08097,-1.07757 0.11506,-1.60722c0.03287,-0.52965 0.05844,-1.03191 0.07671,-1.50677M335.3215,198.76081h0.97712c-0.04262,0.4566 -0.09132,0.93754 -0.14611,1.44284c-0.05479,0.5053 -0.11263,1.01486 -0.17351,1.52868c-0.06088,0.51504 -0.12358,1.01912 -0.18812,1.51225c-0.06331,0.49312 -0.12541,0.95702 -0.18629,1.3917c-0.06088,0.4359 -0.11871,0.8304 -0.17351,1.1835h-0.96798c0.06088,-0.35919 0.1248,-0.76099 0.19177,-1.20541c0.06697,-0.44442 0.13272,-0.91502 0.19725,-1.41179c0.06331,-0.49556 0.12541,-0.99903 0.18629,-1.51042c0.06088,-0.51139 0.11384,-1.01547 0.1589,-1.51225c0.04627,-0.49556 0.08767,-0.96859 0.12419,-1.4191M331.23953,197.82936l0.86753,0.25569c-0.10958,0.35919 -0.24352,0.71838 -0.4018,1.07757c-0.15829,0.35919 -0.33362,0.69707 -0.526,1.01364c-0.19116,0.31657 -0.39937,0.59357 -0.62462,0.831c-0.02435,-0.06697 -0.06392,-0.16133 -0.11871,-0.28309c-0.05479,-0.12176 -0.11263,-0.24352 -0.17351,-0.36528c-0.06088,-0.12176 -0.11871,-0.21917 -0.17351,-0.29222c0.24961,-0.28005 0.47303,-0.61488 0.67028,-1.00451c0.19847,-0.38963 0.35858,-0.80057 0.48034,-1.23281M331.32172,198.76994h2.35603v0.93146h-2.53867l0.18264,-0.93146M331.53175,206.3403l-0.17351,-0.87666l0.26483,-0.31962l1.82638,-1.07757c0.01826,0.12785 0.04992,0.27517 0.09497,0.44198c0.04627,0.16803 0.09071,0.30074 0.13333,0.39815c-0.42616,0.26178 -0.77012,0.47608 -1.03191,0.64289c-0.26178,0.16803 -0.46573,0.30074 -0.61184,0.39815c-0.14611,0.09741 -0.25569,0.17472 -0.32875,0.23195c-0.07306,0.05844 -0.13089,0.11202 -0.17351,0.16072M330.84686,200.45022h2.6026v0.8584h-2.6026v-0.8584M330.32634,202.32226h3.34228v0.86753h-3.34228v-0.86753M331.53175,206.3403c-0.03044,-0.06088 -0.07306,-0.13272 -0.12785,-0.21551c-0.05479,-0.08158 -0.11263,-0.16194 -0.17351,-0.24108c-0.06088,-0.07914 -0.11871,-0.14307 -0.17351,-0.19177c0.06697,-0.0487 0.14124,-0.11871 0.22282,-0.21003c0.0828,-0.09132 0.15463,-0.20273 0.21551,-0.33423c0.06088,-0.13028 0.09132,-0.27457 0.09132,-0.43285v-4.07284h0.87666v4.62988c0,0 -0.03227,0.02557 -0.0968,0.07671c-0.06331,0.05236 -0.14063,0.11932 -0.23195,0.2009c-0.09132,0.0828 -0.18446,0.1729 -0.27944,0.2703c-0.09375,0.09741 -0.17107,0.19177 -0.23195,0.28309c-0.06088,0.09132 -0.09132,0.17046 -0.09132,0.23743zM344.16119,204.24909h2.76697v0.94059h-2.76697v-0.94059M343.80505,198.68776h3.59798v7.16856h-1.00451v-6.2371h-1.63461v6.30102h-0.95885v-7.23248M341.15679,198.69689h0.97712v7.64341h-0.97712v-7.64341M339.47652,200.54153h4.07284v0.91319h-4.07284v-0.91319M341.09287,200.88855l0.6575,0.21917c-0.09741,0.37136 -0.21612,0.74882 -0.35614,1.13236c-0.14002,0.38354 -0.29527,0.75917 -0.46573,1.12688c-0.17046,0.36893 -0.3531,0.70985 -0.54792,1.02277c-0.19481,0.31414 -0.39876,0.58688 -0.61184,0.81822c-0.0487,-0.14611 -0.12358,-0.30622 -0.22465,-0.48034c-0.09984,-0.1729 -0.19238,-0.32023 -0.27761,-0.44198c0.19481,-0.19481 0.38354,-0.42616 0.56618,-0.69403c0.18264,-0.26787 0.35432,-0.55279 0.51504,-0.85475c0.16194,-0.30074 0.30683,-0.6094 0.43468,-0.92598c0.12785,-0.31657 0.23134,-0.62401 0.31049,-0.92232M342.91012,197.91154l0.63923,0.76708c-0.34701,0.12176 -0.73238,0.23439 -1.1561,0.33788c-0.4225,0.10349 -0.85779,0.19177 -1.30586,0.26483c-0.44685,0.07306 -0.87727,0.13394 -1.29125,0.18264c-0.01826,-0.10958 -0.05479,-0.23926 -0.10958,-0.38902c-0.05479,-0.14855 -0.10958,-0.27457 -0.16437,-0.37806c0.4018,-0.05479 0.81091,-0.12176 1.22733,-0.2009c0.41763,-0.07914 0.81335,-0.16924 1.18715,-0.2703c0.37502,-0.09984 0.6995,-0.20455 0.97346,-0.31414M342.05172,201.54605c0.05479,0.0487 0.13576,0.13089 0.24291,0.24656c0.10593,0.11567 0.22282,0.24474 0.35067,0.38719c0.12785,0.14368 0.25448,0.28857 0.37989,0.43468c0.12419,0.14611 0.23499,0.277 0.3324,0.39267c0.09741,0.11567 0.17046,0.2009 0.21917,0.25569l-0.57531,0.81274c-0.07306,-0.13394 -0.17168,-0.29527 -0.29587,-0.48399c-0.12541,-0.18873 -0.25813,-0.38232 -0.39815,-0.58079c-0.14002,-0.19725 -0.27517,-0.38415 -0.40546,-0.5607c-0.1315,-0.17655 -0.23987,-0.32266 -0.3251,-0.43833zM353.87756,197.82936h0.92232v6.41974h-0.92232v-6.41974M351.11972,201.52778l4.78512,-2.02729l0.36528,0.84014l-4.78512,2.05468l-0.36528,-0.86753M352.05117,198.70602h0.93146v5.97227c0,0.17046 0.01522,0.29953 0.04566,0.38719c0.03044,0.08888 0.09436,0.14855 0.19177,0.17899c0.09741,0.03044 0.24047,0.04566 0.4292,0.04566c0.05479,0 0.14428,0 0.26848,0c0.12541,0 0.26726,0 0.42555,0c0.15829,0 0.3184,0 0.48034,0c0.16072,0 0.30683,0 0.43833,0c0.13028,0 0.22586,0 0.28674,0c0.17046,0 0.29831,-0.03227 0.38354,-0.0968c0.08523,-0.06331 0.14915,-0.1802 0.19177,-0.35067c0.04262,-0.17046 0.07306,-0.41702 0.09132,-0.73969c0.10958,0.07914 0.24839,0.1522 0.41642,0.21917c0.16681,0.06697 0.31718,0.11263 0.45112,0.13698c-0.04262,0.43224 -0.11263,0.77134 -0.21003,1.0173c-0.09741,0.24717 -0.24352,0.42372 -0.43833,0.52965c-0.19481,0.10715 -0.46573,0.16072 -0.81274,0.16072c-0.06088,0 -0.1595,0 -0.29587,0c-0.13759,0 -0.29466,0 -0.47121,0c-0.17655,0 -0.35188,0 -0.526,0c-0.1729,0 -0.32753,0 -0.4639,0c-0.13759,0 -0.23378,0 -0.28857,0c-0.38963,0 -0.69707,-0.04262 -0.92232,-0.12785c-0.22525,-0.08523 -0.38232,-0.23621 -0.47121,-0.45294c-0.08767,-0.21551 -0.1315,-0.52113 -0.1315,-0.91684v-5.96314M355.7222,199.61008h-0.07306l0.18264,-0.13698l0.18264,-0.11871l0.67576,0.24656l-0.03653,0.16437c0,0.43224 -0.00122,0.82918 -0.00365,1.1908c-0.00365,0.36284 -0.00731,0.68428 -0.01096,0.96433c-0.00244,0.28005 -0.00852,0.51443 -0.01826,0.70316c-0.00852,0.18873 -0.01887,0.32875 -0.03105,0.42007c-0.01826,0.20699 -0.06697,0.36649 -0.14611,0.47851c-0.07914,0.11324 -0.19177,0.19421 -0.33788,0.24291c-0.12785,0.05479 -0.27883,0.08645 -0.45294,0.09497c-0.1729,0.00974 -0.32936,0.01461 -0.46938,0.01461c-0.01218,-0.12176 -0.03835,-0.26361 -0.07853,-0.42555c-0.03896,-0.16072 -0.0828,-0.29283 -0.1315,-0.39633c0.08523,0.00609 0.17655,0.00913 0.27396,0.00913c0.09741,0 0.16742,0 0.21003,0c0.06088,0 0.10958,-0.014 0.14611,-0.04201c0.03653,-0.02679 0.06088,-0.0828 0.07306,-0.16803c0.01218,-0.0487 0.02131,-0.15403 0.0274,-0.31596c0.00609,-0.16072 0.01096,-0.37502 0.01461,-0.64289c0.00244,-0.26787 0.00365,-0.59236 0.00365,-0.97346c0,-0.37989 0,-0.81639 0,-1.30952M348.51712,199.97536h2.98614v0.92232h-2.98614v-0.92232M349.61295,197.94807h0.92232v6.01793h-0.92232v-6.01793M348.40754,204.03906c0.24961,-0.09132 0.54061,-0.20273 0.87301,-0.33423c0.33118,-0.13028 0.68124,-0.27335 1.05017,-0.4292c0.36771,-0.15463 0.73725,-0.30805 1.10861,-0.46025l0.21917,0.86753c-0.48704,0.23743 -0.98199,0.47303 -1.48485,0.70681c-0.50165,0.23499 -0.95946,0.44685 -1.37344,0.63558zM358.00518,198.19463h7.77126v8.16393h-0.98625v-7.27814h-5.84443v7.27814h-0.94059v-8.16393M358.58049,205.15315h6.74849v0.8584h-6.74849v-0.8584M360.63517,203.08934l0.39267,-0.55705c0.25569,0.0487 0.52174,0.1108 0.79813,0.18629c0.27761,0.07671 0.54426,0.15768 0.79996,0.24291c0.25569,0.08523 0.47486,0.17046 0.6575,0.25569l-0.4018,0.61184c-0.17655,-0.08523 -0.39267,-0.17533 -0.64837,-0.2703c-0.25569,-0.09375 -0.52356,-0.18203 -0.80361,-0.26483c-0.28005,-0.08158 -0.54487,-0.14976 -0.79448,-0.20455M361.05524,199.10782l0.79448,0.27396c-0.17046,0.26787 -0.37441,0.53269 -0.61184,0.79448c-0.23743,0.26178 -0.48582,0.5053 -0.74516,0.73055c-0.25813,0.22525 -0.51504,0.42311 -0.77073,0.59357c-0.04262,-0.05479 -0.10532,-0.11871 -0.18812,-0.19177c-0.08158,-0.07306 -0.16377,-0.14611 -0.24656,-0.21917c-0.08158,-0.07306 -0.15585,-0.13089 -0.22282,-0.17351c0.38354,-0.21917 0.75491,-0.48886 1.11409,-0.80909c0.35919,-0.31901 0.65141,-0.65202 0.87666,-0.99903M363.4752,199.82925h0.16437l0.13698,-0.03653l0.54792,0.32875c-0.23743,0.37136 -0.54061,0.71351 -0.90954,1.02643c-0.36771,0.31414 -0.77378,0.59418 -1.2182,0.84014c-0.44442,0.24717 -0.9071,0.46025 -1.38805,0.63923c-0.48095,0.1802 -0.9619,0.32814 -1.44284,0.44381c-0.03044,-0.07306 -0.07001,-0.16133 -0.11871,-0.26483c-0.0487,-0.10349 -0.10228,-0.20273 -0.16072,-0.2977c-0.05723,-0.09375 -0.11324,-0.17107 -0.16803,-0.23195c0.45051,-0.08523 0.9071,-0.2009 1.36979,-0.34701c0.46268,-0.14611 0.90102,-0.31962 1.315,-0.52052c0.41398,-0.2009 0.78352,-0.42311 1.10861,-0.66663c0.32631,-0.24352 0.58079,-0.5053 0.76343,-0.78534v-0.12785M360.80868,200.43195c0.26787,0.28613 0.61488,0.54609 1.04104,0.77987c0.42616,0.23499 0.89615,0.44077 1.40997,0.61732c0.51504,0.17655 1.04043,0.31049 1.57617,0.4018c-0.09132,0.08523 -0.19055,0.19908 -0.2977,0.34153c-0.10593,0.14368 -0.18933,0.27335 -0.25021,0.38902c-0.54183,-0.12176 -1.07452,-0.28796 -1.59809,-0.4986c-0.52356,-0.20943 -1.00938,-0.45903 -1.45745,-0.74882c-0.44685,-0.28857 -0.82553,-0.6094 -1.13601,-0.9625l0.71229,-0.31962M361.01871,199.82925h2.73044v0.73055h-3.24183l0.51139,-0.73055M359.77677,204.25823l0.43833,-0.63923c0.31049,0.03044 0.63436,0.07427 0.97164,0.1315c0.33849,0.05844 0.67515,0.12237 1.00999,0.19177c0.33484,0.07062 0.65141,0.1455 0.94972,0.22465c0.29831,0.07914 0.56314,0.15829 0.79448,0.23743l-0.4292,0.69403c-0.29831,-0.10958 -0.65872,-0.21917 -1.08122,-0.32875c-0.42372,-0.10958 -0.86692,-0.21003 -1.32961,-0.30135c-0.46268,-0.09132 -0.90406,-0.16133 -1.32413,-0.21003zM366.7079,202.55056c0.34092,-0.09132 0.74882,-0.21308 1.22368,-0.36528c0.47486,-0.1522 0.95276,-0.31049 1.43371,-0.47486l0.15524,0.86753c-0.43833,0.15829 -0.88275,0.31779 -1.33326,0.47851c-0.45051,0.16194 -0.86753,0.30988 -1.25107,0.44381l-0.2283,-0.94972M366.81748,199.59182h2.63912v0.90406h-2.63912v-0.90406M367.74894,197.82936h0.91319v7.43338c0,0.21917 -0.02253,0.39389 -0.06758,0.52417c-0.04627,0.1315 -0.13028,0.23378 -0.25204,0.30683c-0.12176,0.07306 -0.2697,0.11993 -0.44381,0.14063c-0.1729,0.02192 -0.38415,0.03287 -0.63376,0.03287c-0.01218,-0.11567 -0.04262,-0.25874 -0.09132,-0.4292c-0.0487,-0.17046 -0.10349,-0.31657 -0.16437,-0.43833c0.13394,0.00609 0.25874,0.00731 0.37441,0.00365c0.11567,-0.00244 0.19481,-0.00365 0.23743,-0.00365c0.08523,0 0.12785,-0.04566 0.12785,-0.13698v-7.43338M371.4565,198.87039v0.70316h1.78072v-0.70316h-1.78072M370.61636,198.1855h3.51579v2.08208h-3.51579v-2.08208M370.49764,201.29035v0.77621h0.8858v-0.77621h-0.8858M369.76709,200.61459h2.38343v2.13687h-2.38343v-2.13687M373.31941,201.29035v0.77621h0.91319v-0.77621h-0.91319M372.56146,200.61459h2.46562v2.13687h-2.46562v-2.13687M369.63011,203.34503h5.56134v0.79448h-5.56134v-0.79448M371.89483,202.72406h0.93146v3.64364h-0.93146v-3.64364M371.77611,203.72857l0.76708,0.29222c-0.21917,0.31657 -0.48399,0.6161 -0.79448,0.89858c-0.31049,0.2837 -0.65141,0.53513 -1.02277,0.7543c-0.37136,0.21917 -0.75186,0.39572 -1.14149,0.52965c-0.07306,-0.11567 -0.16864,-0.24839 -0.28674,-0.39815c-0.11932,-0.14855 -0.22769,-0.26848 -0.3251,-0.3598c0.37745,-0.10349 0.74456,-0.2423 1.10131,-0.41642c0.35554,-0.1729 0.68246,-0.37076 0.98077,-0.59357c0.29831,-0.2216 0.53878,-0.4572 0.72142,-0.70681M373.00892,203.82903c0.16437,0.21917 0.37319,0.4292 0.62645,0.6301c0.25204,0.2009 0.52722,0.3805 0.82553,0.53878c0.29831,0.15829 0.59662,0.28613 0.89493,0.38354c-0.06088,0.05479 -0.13089,0.12602 -0.21003,0.21369c-0.07914,0.08888 -0.15524,0.1802 -0.2283,0.27396c-0.07306,0.09497 -0.13089,0.18203 -0.17351,0.26117c-0.31049,-0.13394 -0.61793,-0.30622 -0.92232,-0.51687c-0.3044,-0.20943 -0.58444,-0.44503 -0.84014,-0.70681c-0.25569,-0.26178 -0.47486,-0.53269 -0.6575,-0.81274zM380.06789,199.33612h4.36506v0.93146h-4.82165l0.4566,-0.93146M381.25504,201.32688h2.94961v0.89493h-2.94961v-0.89493M381.24591,203.35417h3.08659v0.91319h-3.08659v-0.91319M380.76192,199.63747h1.00451v6.71196h-1.00451v-6.71196M380.32359,197.92067l0.94059,0.24656c-0.17046,0.49312 -0.36954,0.98016 -0.59723,1.46111c-0.22891,0.48095 -0.4773,0.92963 -0.74516,1.34604c-0.26787,0.41763 -0.54183,0.78778 -0.82187,1.11044c-0.0487,-0.06088 -0.11993,-0.13576 -0.21369,-0.22465c-0.09497,-0.08767 -0.18994,-0.17412 -0.28492,-0.25935c-0.09375,-0.08523 -0.17716,-0.1522 -0.25021,-0.2009c0.27396,-0.27396 0.53269,-0.59844 0.77621,-0.97346c0.24352,-0.3738 0.46755,-0.7756 0.67211,-1.20541c0.20334,-0.42859 0.37806,-0.86205 0.52417,-1.30039M377.96755,197.86588l0.94059,0.30135c-0.19481,0.51139 -0.42616,1.02704 -0.69403,1.54695c-0.26787,0.52113 -0.55887,1.00999 -0.87301,1.46659c-0.31292,0.4566 -0.63984,0.86144 -0.98077,1.21455c-0.02435,-0.08523 -0.07001,-0.1936 -0.13698,-0.3251c-0.06697,-0.13028 -0.13576,-0.26239 -0.20638,-0.39633c-0.0694,-0.13394 -0.13454,-0.24047 -0.19542,-0.31962c0.28613,-0.28005 0.56192,-0.60758 0.82735,-0.98259c0.26422,-0.3738 0.50895,-0.77378 0.73421,-1.19993c0.22525,-0.42616 0.42007,-0.86144 0.58444,-1.30586M377.02697,200.34063l0.98625,-0.98625v0.00913v6.97678h-0.98625zM387.92134,201.38167h5.607v0.87666h-5.607v-0.87666M391.66543,201.93872l1.06843,0.04566c-0.1522,0.86449 -0.40363,1.58408 -0.7543,2.15879c-0.34945,0.57592 -0.81639,1.04043 -1.40084,1.39353c-0.58444,0.3531 -1.31195,0.63619 -2.18253,0.84927c-0.02435,-0.07914 -0.06271,-0.17046 -0.11506,-0.27396c-0.05114,-0.10349 -0.10715,-0.20882 -0.16803,-0.31596c-0.06088,-0.10593 -0.12176,-0.19238 -0.18264,-0.25935c0.77926,-0.1522 1.42884,-0.37136 1.94875,-0.6575c0.52113,-0.28613 0.9278,-0.66846 1.22002,-1.14697c0.29222,-0.4773 0.48095,-1.07513 0.56618,-1.79351M388.44186,203.73771l0.63923,-0.63923c0.35919,0.17046 0.74456,0.36041 1.1561,0.56983c0.41033,0.21064 0.81944,0.42981 1.22733,0.6575c0.40789,0.22891 0.79021,0.45416 1.14697,0.67576c0.35554,0.22282 0.65811,0.42859 0.90771,0.61732l-0.69403,0.75795c-0.23743,-0.18873 -0.52843,-0.39754 -0.87301,-0.62645c-0.34336,-0.22769 -0.71594,-0.46208 -1.11775,-0.70316c-0.4018,-0.23987 -0.80787,-0.47242 -1.2182,-0.69768c-0.41155,-0.22525 -0.803,-0.4292 -1.17436,-0.61184M390.03995,197.92981l0.98625,-0.15524c0.07914,0.22525 0.15524,0.46877 0.2283,0.73055c0.07306,0.26178 0.12785,0.49008 0.16437,0.68489l-1.04104,0.18264c-0.01826,-0.19481 -0.06271,-0.4292 -0.13333,-0.70316c-0.0694,-0.27396 -0.13759,-0.52052 -0.20455,-0.73969M388.44186,203.73771c0.13394,-0.23743 0.27213,-0.50408 0.41459,-0.79996c0.14368,-0.29466 0.28248,-0.60514 0.41642,-0.93146c0.13394,-0.3251 0.25752,-0.65202 0.37076,-0.98077c0.11202,-0.32875 0.2076,-0.64532 0.28674,-0.94972l1.00451,0.14611c-0.12176,0.44442 -0.27213,0.90223 -0.45112,1.37344c-0.1802,0.47242 -0.36649,0.9278 -0.55887,1.36613c-0.19116,0.43833 -0.37502,0.82796 -0.55157,1.16889l-0.93146,-0.39267M388.2227,198.91605h5.18693v1.89944h-0.94972v-1.04104h-3.32402v1.04104h-0.91319v-1.89944M384.93521,202.86104c0.26787,-0.06088 0.57044,-0.13698 0.90771,-0.2283c0.33849,-0.09132 0.69646,-0.19055 1.07391,-0.2977c0.37745,-0.10593 0.75491,-0.21064 1.13236,-0.31414l0.12785,0.87666c-0.51748,0.16437 -1.04226,0.32388 -1.57434,0.47851c-0.5333,0.15585 -1.01912,0.2977 -1.45745,0.42555l-0.21003,-0.94059M385.05392,199.58268h2.97701v0.91319h-2.97701v-0.91319M386.18628,197.82936h0.94972v7.47904c0,0.24352 -0.0274,0.43224 -0.08219,0.56618c-0.05479,0.13394 -0.15524,0.23743 -0.30135,0.31049c-0.14002,0.07306 -0.31779,0.11993 -0.5333,0.14063c-0.21673,0.02192 -0.48034,0.03287 -0.79082,0.03287c-0.01826,-0.12785 -0.05297,-0.27578 -0.1041,-0.44381c-0.05236,-0.16681 -0.10897,-0.31414 -0.16985,-0.44198c0.18264,0.00609 0.35614,0.00913 0.52052,0.00913c0.16437,0 0.277,0 0.33788,0c0.06697,0 0.11263,-0.014 0.13698,-0.04201c0.02435,-0.02679 0.03653,-0.07062 0.03653,-0.1315zM397.83861,198.24029h3.8902v0.8858h-3.8902v-0.8858M397.88427,201.37254h3.6345v0.93146h-3.6345v-0.93146M397.17198,205.14402h5.52481v0.96798h-5.52481v-0.96798M401.36353,198.24942h0.95885c-0.02435,0.48704 -0.05479,0.99842 -0.09132,1.53416c-0.03653,0.53574 -0.0761,1.07452 -0.11871,1.61635c-0.04262,0.54183 -0.08523,1.07452 -0.12785,1.59809c-0.04262,0.52356 -0.08828,1.01669 -0.13698,1.47937c-0.0487,0.46268 -0.09436,0.87971 -0.13698,1.25107h-0.98625c0.05479,-0.37745 0.10776,-0.80239 0.1589,-1.27482c0.05236,-0.47121 0.10289,-0.96859 0.15159,-1.49216c0.0487,-0.52356 0.09436,-1.05626 0.13698,-1.59809c0.04262,-0.54183 0.08097,-1.07757 0.11506,-1.60722c0.03287,-0.52965 0.05844,-1.03191 0.07671,-1.50677M399.24492,198.76081h0.97712c-0.04262,0.4566 -0.09132,0.93754 -0.14611,1.44284c-0.05479,0.5053 -0.11263,1.01486 -0.17351,1.52868c-0.06088,0.51504 -0.12358,1.01912 -0.18812,1.51225c-0.06331,0.49312 -0.12541,0.95702 -0.18629,1.3917c-0.06088,0.4359 -0.11871,0.8304 -0.17351,1.1835h-0.96798c0.06088,-0.35919 0.1248,-0.76099 0.19177,-1.20541c0.06697,-0.44442 0.13272,-0.91502 0.19725,-1.41179c0.06331,-0.49556 0.12541,-0.99903 0.18629,-1.51042c0.06088,-0.51139 0.11384,-1.01547 0.1589,-1.51225c0.04627,-0.49556 0.08767,-0.96859 0.12419,-1.4191M395.16295,197.82936l0.86753,0.25569c-0.10958,0.35919 -0.24352,0.71838 -0.4018,1.07757c-0.15829,0.35919 -0.33362,0.69707 -0.526,1.01364c-0.19116,0.31657 -0.39937,0.59357 -0.62462,0.831c-0.02435,-0.06697 -0.06392,-0.16133 -0.11871,-0.28309c-0.05479,-0.12176 -0.11263,-0.24352 -0.17351,-0.36528c-0.06088,-0.12176 -0.11871,-0.21917 -0.17351,-0.29222c0.24961,-0.28005 0.47364,-0.61488 0.67211,-1.00451c0.19725,-0.38963 0.35675,-0.80057 0.47851,-1.23281M395.24514,198.76994h2.35603v0.93146h-2.53867l0.18264,-0.93146M395.45518,206.3403l-0.17351,-0.87666l0.26483,-0.31962l1.82638,-1.07757c0.01826,0.12785 0.05053,0.27517 0.0968,0.44198c0.04505,0.16803 0.08888,0.30074 0.1315,0.39815c-0.42616,0.26178 -0.77012,0.47608 -1.03191,0.64289c-0.26178,0.16803 -0.46573,0.30074 -0.61184,0.39815c-0.14611,0.09741 -0.25569,0.17472 -0.32875,0.23195c-0.07306,0.05844 -0.13089,0.11202 -0.17351,0.16072M394.77028,200.45022h2.6026v0.8584h-2.6026v-0.8584M394.24976,202.32226h3.34228v0.86753h-3.34228v-0.86753M395.45518,206.3403c-0.03044,-0.06088 -0.07306,-0.13272 -0.12785,-0.21551c-0.05479,-0.08158 -0.11263,-0.16194 -0.17351,-0.24108c-0.06088,-0.07914 -0.11871,-0.14307 -0.17351,-0.19177c0.06697,-0.0487 0.14124,-0.11871 0.22282,-0.21003c0.0828,-0.09132 0.15463,-0.20273 0.21551,-0.33423c0.06088,-0.13028 0.09132,-0.27457 0.09132,-0.43285v-4.07284h0.87666v4.62988c0,0 -0.03227,0.02557 -0.0968,0.07671c-0.06331,0.05236 -0.14063,0.11932 -0.23195,0.2009c-0.09132,0.0828 -0.18386,0.1729 -0.27761,0.2703c-0.09497,0.09741 -0.1729,0.19177 -0.23378,0.28309c-0.06088,0.09132 -0.09132,0.17046 -0.09132,0.23743zM404.75147,203.30851c0.26787,0 0.51139,0.06514 0.73055,0.19542c0.21917,0.1315 0.3945,0.30683 0.526,0.526c0.13028,0.21917 0.19542,0.46268 0.19542,0.73055c0,0.26787 -0.06514,0.51139 -0.19542,0.73055c-0.1315,0.21917 -0.30683,0.39389 -0.526,0.52417c-0.21917,0.1315 -0.46268,0.19725 -0.73055,0.19725c-0.26787,0 -0.51139,-0.06575 -0.73055,-0.19725c-0.21917,-0.13028 -0.39389,-0.30501 -0.52417,-0.52417c-0.1315,-0.21917 -0.19725,-0.46268 -0.19725,-0.73055c0,-0.26787 0.06575,-0.51139 0.19725,-0.73055c0.13028,-0.21917 0.30501,-0.3945 0.52417,-0.526c0.21917,-0.13028 0.46268,-0.19542 0.73055,-0.19542M404.75147,205.60975c0.23743,0 0.43833,-0.08219 0.60271,-0.24656c0.16437,-0.16437 0.24656,-0.36528 0.24656,-0.60271c0,-0.1522 -0.03774,-0.29405 -0.11324,-0.42555c-0.07671,-0.13028 -0.17899,-0.23378 -0.30683,-0.31049c-0.12785,-0.07549 -0.27091,-0.11324 -0.4292,-0.11324c-0.1522,0 -0.29405,0.03774 -0.42555,0.11324c-0.13028,0.07671 -0.23378,0.1802 -0.31049,0.31049c-0.07549,0.1315 -0.11324,0.27335 -0.11324,0.42555c0,0.15829 0.03774,0.30257 0.11324,0.43285c0.07671,0.1315 0.17899,0.23378 0.30683,0.30683c0.12785,0.07306 0.27091,0.10958 0.4292,0.10958z" fill="#ffffff" fill-rule="nonzero" stroke-width="1"/></g></g></svg>