<svg version="1.1" xmlns="http://www.w3.org/2000/svg" xmlns:xlink="http://www.w3.org/1999/xlink" width="120" height="60" viewBox="0,0,120,60"><g transform="translate(-180,-150)"><g stroke-miterlimit="10"><path d="M180,210v-60h120v60z" fill="none" fill-rule="nonzero" stroke="none" stroke-width="1" stroke-linecap="butt" opacity="0.80769"/><g fill="#ffffff" fill-rule="nonzero" stroke="none" stroke-width="1" stroke-linecap="butt"><path d=""/><path d=""/></g><path d="M249.21702,167.35446h6.16226v1.0968h-6.32101c-0.29825,1.52974 -0.87311,2.85023 -1.72457,3.96145c-0.85146,1.11123 -2.08535,2.17675 -3.70168,3.19658l-0.73601,-1.01021c1.45277,-0.85627 2.56641,-1.76786 3.3409,-2.73477c0.77449,-0.96691 1.30605,-2.1046 1.59468,-3.41305h-4.83456v-1.0968h5.02217c0.06735,-0.48105 0.10583,-0.92843 0.11545,-1.34213l0.05773,-1.65962h-4.35832v-1.06793h10.69376v1.06793h-5.16648l-0.01443,0.57726c-0.00962,0.21166 -0.01443,0.42092 -0.01443,0.62777c0,0.20685 -0.00481,0.38725 -0.01443,0.54118c-0.00962,0.29825 -0.04329,0.71677 -0.10102,1.25554zM254.12374,171.04893l1.16895,0.2309l-0.08659,2.19359c-0.01924,0.42332 -0.0914,0.75284 -0.21647,0.98856c-0.12507,0.23572 -0.33192,0.40889 -0.62056,0.51953c-0.28863,0.11064 -0.6879,0.16596 -1.19782,0.16596h-2.06371c-0.62537,0 -1.07755,-0.1395 -1.35656,-0.41851c-0.27901,-0.27901 -0.41851,-0.75525 -0.41851,-1.42872v-3.95424h1.14009v3.65117c0,0.38484 0.07697,0.65423 0.2309,0.80817c0.15394,0.15394 0.4137,0.2309 0.7793,0.2309h1.44315c0.44257,0 0.74322,-0.06975 0.90197,-0.20926c0.15875,-0.1395 0.24293,-0.4113 0.25255,-0.81538c0.00962,-0.26939 0.01924,-0.5965 0.02886,-0.98134c0.00962,-0.38484 0.01443,-0.71196 0.01443,-0.98134z" fill="#ffffff" fill-rule="evenodd" stroke="#ffffff" stroke-width="0.5" stroke-linecap="round"/><path d="M270.085,174.28159l-0.64942,0.90919c-0.89475,-0.45219 -1.62836,-0.93805 -2.20081,-1.45758c-0.57245,-0.51953 -1.04147,-1.12325 -1.40707,-1.81116c-0.3656,-0.6879 -0.67828,-1.53215 -0.93805,-2.53273h-1.22668v4.71911l2.16473,-1.08236l0.15875,1.03907l-3.34811,1.5586l-0.46181,-0.96691c0.19242,-0.10583 0.31749,-0.19723 0.37522,-0.2742c0.05773,-0.07697 0.08659,-0.19723 0.08659,-0.36079v-10.88137h6.29214v6.24885h-3.10278c0.25015,0.84665 0.5484,1.56341 0.89475,2.1503c0.85627,-0.55802 1.61633,-1.14009 2.28018,-1.74621l0.60612,0.75044c-0.82741,0.68309 -1.61152,1.26997 -2.35234,1.76065c0.32711,0.39446 0.71917,0.75044 1.17617,1.06793c0.457,0.31749 1.0078,0.62056 1.65241,0.90919zM261.78687,163.03943v0.96691l-1.11123,3.4347c0.3656,0.58688 0.64701,1.17376 0.84424,1.76065c0.19723,0.58688 0.29585,1.13047 0.29585,1.63076c0,0.76968 -0.14432,1.30846 -0.43295,1.61633c-0.28863,0.30787 -0.78411,0.46181 -1.48645,0.46181h-0.64942l-0.20204,-0.99577h0.57726c0.32711,0 0.57486,-0.03608 0.74322,-0.10824c0.16837,-0.07216 0.28863,-0.19964 0.36079,-0.38244c0.07216,-0.1828 0.10824,-0.44738 0.10824,-0.79373c0,-0.39446 -0.10102,-0.85868 -0.30306,-1.39264c-0.20204,-0.53397 -0.49067,-1.07034 -0.86589,-1.60911l1.06793,-3.60788h-1.86167v11.50192h-1.02464v-12.48326zM263.66297,165.82472h4.27173v-1.73178h-4.27173zM267.9347,168.45125v-1.67406h-4.27173v1.67406z" fill="#ffffff" fill-rule="evenodd" stroke="#ffffff" stroke-width="0.5" stroke-linecap="round"/><path d="M279.11913,165.50722h-2.87187v1.77508h3.17493v0.99577h-3.17493v1.5586h2.74199v3.55015c0,0.42332 -0.10583,0.72639 -0.31749,0.90919c-0.21166,0.1828 -0.55321,0.2742 -1.02464,0.2742h-0.7793l-0.17318,-0.95248h0.60612c0.26939,0 0.45219,-0.04089 0.5484,-0.12267c0.09621,-0.08178 0.14432,-0.25255 0.14432,-0.51232v-2.1503h-1.74621v4.87785h-1.02464v-4.87785h-1.77508v3.89651h-0.99577v-4.89229h2.77085v-1.5586h-3.52129v-0.99577h3.52129v-1.77508h-1.84723c-0.22128,0.56764 -0.4137,1.01983 -0.57726,1.35656l-0.93805,-0.33192c0.57726,-1.27959 0.97653,-2.46298 1.19782,-3.55015l0.98134,0.15875c-0.11545,0.51953 -0.2309,0.98134 -0.34636,1.38543h1.52974v-2.02041h1.02464v2.02041h2.87187zM282.74144,173.32911v-10.67932h1.03907v11.08341c0,0.4137 -0.05292,0.74082 -0.15875,0.98134c-0.10583,0.24053 -0.28623,0.41611 -0.54118,0.52675c-0.25496,0.11064 -0.61334,0.16596 -1.07515,0.16596h-1.68849l-0.20204,-1.0535h1.57304c0.4137,0 0.69271,-0.07216 0.83703,-0.21647c0.14432,-0.14432 0.21647,-0.4137 0.21647,-0.80817zM280.25922,172.53537v-8.65891h1.01021v8.65891z" fill="#ffffff" fill-rule="evenodd" stroke="#ffffff" stroke-width="0.5" stroke-linecap="round"/></g></g></svg>