<svg version="1.1" xmlns="http://www.w3.org/2000/svg" xmlns:xlink="http://www.w3.org/1999/xlink" width="220" height="103.46514" viewBox="0,0,220,103.46514"><g transform="translate(-130,-156)"><g fill-rule="evenodd" stroke-miterlimit="10"><path d="M140,156h200c5.54,0 10,4.46 10,10v28c0,5.54 -4.46,10 -10,10h-200c-5.54,0 -10,-4.46 -10,-10v-28c0,-5.54 4.46,-10 10,-10z" fill="#e4e600" stroke="none" stroke-width="1" stroke-linecap="butt"/><path d="M140,214h200c5.54,0 10,3.16835 10,7.10393v31.25728c0,3.93558 -4.46,7.10393 -10,7.10393h-200c-5.54,0 -10,-3.16835 -10,-7.10393v-31.25728c0,-3.93558 4.46,-7.10393 10,-7.10393z" fill="#12151a" stroke="none" stroke-width="1" stroke-linecap="butt"/><path d="M151.02094,175.06988l0.06291,0.69197l0.04718,0.55042c-0.91214,0.1992 -2.1519,0.46917 -3.71931,0.80991c-1.56741,0.34074 -2.82289,0.61595 -3.76648,0.82564l-0.18872,-1.24239l1.21094,-0.25162v-9.37297h1.19521v9.12135l1.9029,-0.40889v-11.18151h1.19521v4.27759h2.1388v1.21094h-2.1388v5.42563zM156.02195,173.38714l1.13231,0.22018c-0.07339,1.43635 -0.1258,2.29606 -0.15726,2.57914c-0.03145,0.51373 -0.11795,0.91214 -0.25949,1.19521c-0.14154,0.28307 -0.35908,0.4849 -0.65264,0.60547c-0.29356,0.12057 -0.70245,0.18085 -1.22666,0.18085h-1.11658c-0.74438,0 -1.2686,-0.15726 -1.57265,-0.47179c-0.30405,-0.31453 -0.45607,-0.8702 -0.45607,-1.667v-11.68476h1.21094v5.6458c0.54519,-0.3984 1.13493,-0.87282 1.76923,-1.42325c0.6343,-0.55042 1.16638,-1.04581 1.59624,-1.48615l0.80205,0.99077c-0.51373,0.51373 -1.16375,1.08775 -1.95008,1.72205c-0.78633,0.6343 -1.52546,1.19783 -2.21743,1.6906v4.34051c0,0.42986 0.08125,0.72865 0.24376,0.8964c0.16251,0.16775 0.44296,0.25163 0.84136,0.25163h0.77059c0.32502,0 0.56354,-0.03407 0.71556,-0.10222c0.15202,-0.06815 0.25687,-0.18348 0.31453,-0.34598c0.05766,-0.16251 0.09698,-0.41675 0.11795,-0.76273c0.02097,-0.37743 0.03931,-0.80468 0.05504,-1.28171c0.01573,-0.47704 0.02883,-0.84137 0.03931,-1.09299z" fill="#000000" stroke="#000000" stroke-width="0.3" stroke-linecap="round"/><path d="M158.72691,175.54167l1.11657,-0.7706c0.34598,0.58712 0.78633,1.02746 1.32103,1.32102c0.5347,0.29356 1.14803,0.44034 1.83999,0.44034c0.50324,0 0.95932,-0.08387 1.36821,-0.25162c0.40889,-0.16775 0.72865,-0.40102 0.95931,-0.69983c0.23066,-0.2988 0.34599,-0.63168 0.34599,-0.99863c0,-0.38792 -0.10222,-0.71294 -0.30667,-0.97504c-0.20444,-0.2621 -0.51898,-0.49538 -0.94359,-0.69983c-0.42461,-0.20444 -0.99863,-0.40627 -1.72205,-0.60547c-0.78633,-0.22017 -1.43111,-0.44034 -1.93435,-0.66051c-0.50324,-0.22017 -0.92787,-0.54519 -1.27385,-0.97504c-0.34598,-0.42986 -0.51897,-0.99601 -0.51897,-1.69846c0,-0.62906 0.17037,-1.18997 0.51111,-1.68273c0.34074,-0.49276 0.81778,-0.87806 1.43111,-1.1559c0.61333,-0.27784 1.3184,-0.41675 2.11521,-0.41675c0.89117,0 1.66177,0.18086 2.31179,0.54256c0.65002,0.36171 1.18473,0.86758 1.6041,1.5176l-1.06939,0.73915c-0.34598,-0.47179 -0.76798,-0.84661 -1.26598,-1.12444c-0.49801,-0.27784 -1.03533,-0.41675 -1.61196,-0.41675c-0.49276,0 -0.94096,0.08388 -1.34461,0.25163c-0.40365,0.16775 -0.7208,0.39578 -0.95146,0.6841c-0.23066,0.28832 -0.34598,0.60547 -0.34598,0.95145c0,0.46131 0.13106,0.83612 0.39316,1.12444c0.2621,0.28832 0.59499,0.51111 0.99863,0.66838c0.40365,0.15726 0.93573,0.32501 1.59624,0.50324c0.75487,0.1992 1.39441,0.422 1.91862,0.66837c0.52421,0.24638 0.95407,0.58974 1.28957,1.03008c0.3355,0.44034 0.50324,1.00125 0.50324,1.68273c0,0.66051 -0.16774,1.23452 -0.50324,1.72204c-0.3355,0.48752 -0.80992,0.86496 -1.42325,1.13231c-0.61333,0.26735 -1.32888,0.40103 -2.14666,0.40103c-0.91214,0 -1.74564,-0.19658 -2.50051,-0.58974c-0.75487,-0.39316 -1.34199,-0.9462 -1.76136,-1.65914z" fill="#000000" stroke="#000000" stroke-width="0.3" stroke-linecap="round"/><path d="M177.40994,177.64902h-1.58837l-2.9723,-4.90666h-2.5005v4.90666h-1.35248v-11.63758h4.01025c1.20569,0 2.15452,0.30404 2.84649,0.91213c0.69197,0.60809 1.03795,1.44159 1.03795,2.50051c0,0.84923 -0.22804,1.54906 -0.6841,2.09948c-0.45606,0.55042 -1.09823,0.91476 -1.92649,1.09299zM172.89645,167.301h-2.54768v4.15179h2.54768c0.79681,0 1.42849,-0.17824 1.89504,-0.5347c0.46655,-0.35646 0.69983,-0.85448 0.69983,-1.49402c0,-0.671 -0.23066,-1.19259 -0.69197,-1.56479c-0.46131,-0.3722 -1.09561,-0.55829 -1.9029,-0.55829z" fill="#000000" stroke="#000000" stroke-width="0.3" stroke-linecap="round"/><path d="M185.83932,172.22339h-5.51998v4.13606h6.05468v1.28957h-7.40716v-11.63758h7.20271v1.28956h-5.85024v3.64854h5.51998z" fill="#000000" stroke="#000000" stroke-width="0.3" stroke-linecap="round"/><path d="M193.05777,177.64902h-1.41538l-4.32478,-11.63758h1.46256l3.52272,9.65605h0.09436l3.52273,-9.65605h1.46257z" fill="#000000" stroke="#000000" stroke-width="0.3" stroke-linecap="round"/><path d="M207.82491,171.68869v2.75213h4.56068v1.16376h-4.56068v3.11384h-1.22666v-14.34253h1.22666v2.3747h4.15179v1.13231h-4.15179v2.65777h3.86871v1.14803zM198.90801,167.88288v-1.13231h4.13606v-2.24889h1.22666v14.15382h-1.22666v-3.05093h-4.54495v-1.16376h4.54495v-2.75213h-3.85298v-1.14803h3.85298v-2.65777z" fill="#000000" stroke="#000000" stroke-width="0.3" stroke-linecap="round"/><path d="M221.86864,176.4538l0.03146,0.45607l-1.13231,0.14154v1.71418h-1.05367v-1.57264c-2.96706,0.34598 -4.72842,0.56615 -5.28409,0.66051l-0.11008,-1.00649l0.81778,-0.09436l0.5347,-0.06291v-5.50426h-1.35247v-0.95932h13.74493v0.95932h-7.29708v4.8752l1.0694,-0.14154zM228.11205,177.53893l-0.45607,1.0694c-1.27909,-0.49276 -2.338,-1.0694 -3.17674,-1.72991c-0.77584,0.66051 -1.72991,1.25288 -2.86221,1.77709l-0.51898,-1.00649c1.03795,-0.3984 1.91339,-0.88593 2.62632,-1.46256c-0.38792,-0.40889 -0.73653,-0.86233 -1.04581,-1.36034c-0.30928,-0.49801 -0.60547,-1.06678 -0.88854,-1.70632v-0.97505h5.34699v1.05367c-0.44034,1.11133 -1.05891,2.09162 -1.85572,2.94085c0.71293,0.52421 1.65652,0.99076 2.83076,1.39965zM216.22284,169.29827v-4.45059h9.93912v4.45059zM225.04539,167.48972h-7.70596v0.89641h7.70596zM217.33942,166.65622h7.70596v-0.88068h-7.70596zM225.9418,173.1198h-3.00376c0.40889,0.94359 0.92786,1.7299 1.55692,2.35896c0.63954,-0.69197 1.12182,-1.47828 1.44683,-2.35896zM216.74182,175.21141v1.35247l2.9723,-0.36171v-0.99077zM219.71412,174.37791v-1.17949h-2.9723v1.17949zM216.74182,172.36493h2.9723v-1.17948h-2.9723z" fill="#000000" stroke="#000000" stroke-width="0.3" stroke-linecap="round"/><path d="M237.04468,172.22339v1.0694h-2.75213v3.69571c0,0.38792 -0.04718,0.6841 -0.14154,0.88855c-0.09436,0.20444 -0.25949,0.35123 -0.49538,0.44034c-0.23589,0.08911 -0.57926,0.13368 -1.03009,0.13368h-0.92786l-0.22017,-1.13231h0.8335c0.30405,0 0.51636,-0.02097 0.63692,-0.06291c0.12057,-0.04193 0.19658,-0.11532 0.22803,-0.22017c0.03145,-0.10485 0.04718,-0.29356 0.04718,-0.56615v-3.17674h-2.95658v-1.0694h2.95658v-1.69846h-3.25538v-1.03795h1.93436c-0.02097,-0.10485 -0.14678,-0.80205 -0.37743,-2.09162l-0.09436,-0.44034h-0.99077v-1.02222h2.81504l-0.48752,-1.52546l1.13231,-0.18872c0.18872,0.52421 0.36171,1.09561 0.51897,1.71418h2.53196v1.02222h-0.88068c-0.13629,0.68148 -0.34074,1.52546 -0.61333,2.53196h1.85572v1.03795h-3.01948v1.69846zM239.10484,169.80151h4.76512v1.13231h-1.69846v7.70596h-1.08513v-7.70596h-1.98153v0.03145c0,1.35247 -0.04456,2.45595 -0.13368,3.31042c-0.08911,0.85447 -0.249,1.61982 -0.47966,2.29606c-0.23066,0.67624 -0.56616,1.38131 -1.0065,2.11521l-1.13231,-0.56616c0.44034,-0.66051 0.77322,-1.30791 0.99863,-1.94221c0.22541,-0.6343 0.38268,-1.36558 0.47179,-2.19384c0.08911,-0.82826 0.13368,-1.90815 0.13368,-3.23965v-4.84375c0.92262,-0.08388 1.85835,-0.22803 2.80718,-0.43247c0.94883,-0.20444 1.7535,-0.43248 2.41401,-0.6841l0.36171,1.11657c-0.55567,0.23066 -1.23977,0.44297 -2.05231,0.63693c-0.81253,0.19396 -1.60672,0.33287 -2.38256,0.41675zM231.46178,173.84321l0.92786,0.37743c-0.49276,1.28957 -1.05367,2.4009 -1.68273,3.33401l-0.86496,-0.5347c0.31453,-0.42986 0.59761,-0.90165 0.84923,-1.41538c0.25162,-0.51373 0.50849,-1.10086 0.77059,-1.76137zM235.06314,166.95502h-2.64204c0.25162,1.17424 0.41938,2.01823 0.50325,2.53196h1.49401c0.18872,-0.65002 0.40364,-1.49401 0.64478,-2.53196zM234.73289,174.47227l0.78633,-0.58188c0.38792,0.52421 0.8964,1.25287 1.52546,2.18598l-0.81778,0.62906c-0.55567,-0.8702 -1.05367,-1.61458 -1.49401,-2.23315z" fill="#000000" stroke="#000000" stroke-width="0.3" stroke-linecap="round"/><path d="M259.51779,177.60184l-0.5976,1.05367c-1.09037,-0.80729 -2.0025,-1.67225 -2.7364,-2.59486c-0.76535,0.90165 -1.83476,1.82951 -3.2082,2.78358l-0.70769,-0.94359c1.4049,-0.93311 2.48478,-1.8662 3.23965,-2.79931c-0.8702,-1.38393 -1.50449,-3.08763 -1.9029,-5.1111h-0.33025v0.06291c0,1.28957 -0.05767,2.3878 -0.173,3.29469c-0.11533,0.90689 -0.30667,1.74564 -0.57402,2.51623c-0.26735,0.77059 -0.64216,1.58575 -1.12444,2.44547l-0.94359,-0.67624c0.671,-1.14279 1.13231,-2.26985 1.38393,-3.38118c0.25162,-1.11133 0.37744,-2.54245 0.37744,-4.29333v-4.18324c1.04843,-0.07339 2.17287,-0.1992 3.37332,-0.37743c1.20046,-0.17824 2.35111,-0.38792 3.45196,-0.62906l0.22017,1.19522c-0.90165,0.1992 -1.88717,0.38267 -2.95657,0.55042c-1.0694,0.16775 -2.08113,0.2988 -3.0352,0.39316v1.96581h5.63007v1.16376c-0.23066,1.07988 -0.50848,2.03658 -0.8335,2.87008c-0.32502,0.8335 -0.72866,1.59623 -1.21094,2.2882c0.66051,0.8702 1.54643,1.67225 2.65777,2.40615zM247.86448,169.9745v1.28957v0.69197h2.54769v6.58938h-1.08513v-5.45708h-1.49401c-0.03145,1.2686 -0.12581,2.34324 -0.28307,3.22393c-0.15726,0.88068 -0.40889,1.72467 -0.75487,2.53196l-1.05367,-0.66051c0.29356,-0.60809 0.51111,-1.22404 0.65265,-1.84786c0.14154,-0.62382 0.23852,-1.34723 0.29094,-2.17025c0.05242,-0.82302 0.07863,-1.92124 0.07863,-3.29469v-6.1805h1.10085v4.24614h1.3682v-4.5135h1.0694v4.5135h1.05367v1.03795zM257.77215,169.99023h-3.12957c0.3984,1.71943 0.91213,3.11908 1.54119,4.19896c0.36695,-0.57664 0.67885,-1.20569 0.93572,-1.88717c0.25687,-0.68148 0.47442,-1.45208 0.65265,-2.31179z" fill="#000000" stroke="#000000" stroke-width="0.3" stroke-linecap="round"/><path d="M274.88254,168.16596h-5.0482c0.5976,1.43635 1.34986,2.72854 2.25675,3.87657c0.90689,1.14803 2.02609,2.27772 3.3576,3.38905l-0.84922,1.13231c-1.23715,-1.0694 -2.34062,-2.26723 -3.31042,-3.59349c-0.9698,-1.32627 -1.74302,-2.73379 -2.31966,-4.22255v6.08614h3.16102v1.17948h-3.16102v2.76786h-1.22666v-2.76786h-3.12957v-1.17948h3.12957v-6.22768c-0.57664,1.48877 -1.31054,2.86483 -2.20171,4.1282c-0.89117,1.26336 -2.04444,2.58176 -3.45982,3.9552l-0.81777,-1.08512c1.36296,-1.22666 2.4874,-2.41926 3.37333,-3.57777c0.88592,-1.15851 1.62769,-2.44546 2.22529,-3.86084h-5.01674v-1.21094h5.89742v-2.57914h1.22666v2.57914h5.91315z" fill="#000000" stroke="#000000" stroke-width="0.3" stroke-linecap="round"/><path d="M156.88754,185.69498h-3.84536v1.1127h4.71261v0.9327h-10.47247v-0.9327h4.56535v-1.1127h-3.56719v-0.91635h3.56719v-1.06361h-4.05809v-0.9327h4.05809v-1.22724h1.19451v1.22724h4.25444v0.9327h-4.25444v1.06361h3.84536zM149.57318,196.26563h-1.17816v-7.42891h8.11617v5.79259c0,0.57817 -0.12545,0.97907 -0.37636,1.2027c-0.2509,0.22363 -0.70362,0.33544 -1.35815,0.33544h-1.7345l-0.17999,-0.9327h1.53814c0.29454,0 0.50726,-0.02454 0.63817,-0.07363c0.13091,-0.04909 0.21272,-0.12545 0.24545,-0.22908c0.03272,-0.10363 0.04909,-0.26999 0.04909,-0.49908v-0.60544h-5.75986zM146.00599,186.8404v6.82347l1.4236,-1.32542l0.27818,1.30906l-2.60175,2.29085l-0.73634,-0.91634c0.16363,-0.15272 0.2809,-0.29999 0.35181,-0.44181c0.07091,-0.14182 0.10636,-0.30544 0.10636,-0.49089v-6.07076h-1.55451v-1.17815zM149.57318,190.88212h5.75986v-1.06361h-5.75986zM155.33304,191.83119h-5.75986v1.04725h5.75986zM147.10233,184.82772l-1.03089,0.70362c-0.22908,-0.38181 -0.53453,-0.86725 -0.91634,-1.45633c-0.38181,-0.58908 -0.72544,-1.10179 -1.03089,-1.53814l0.96543,-0.65453c0.23999,0.31635 0.55908,0.76635 0.95725,1.34996c0.39818,0.58362 0.74998,1.11543 1.05543,1.59542z" fill="#000000" stroke="#000000" stroke-width="0.3" stroke-linecap="round"/><path d="M167.4091,193.74569v1.16179h6.56166v0.9818h-14.28511v-0.9818h6.52893v-1.16179h-5.46532v-0.91634h5.46532v-1.14542h-4.89261v-5.02352h4.89261v-1.14542h-6.51256v-0.96544h6.51256v-1.2927c-2.32358,0.09818 -4.12354,0.15272 -5.39987,0.16363l-0.04909,-1.0636c1.69087,-0.02182 3.71719,-0.08182 6.07895,-0.18c2.36176,-0.09818 4.29535,-0.20182 5.80077,-0.3109l0.16363,1.04725c-1.69087,0.11999 -3.49083,0.21818 -5.39987,0.29454v1.34178h6.5453v0.96544h-6.5453v1.14542h4.92534v5.02352h-4.92534v1.14542h5.51442v0.91634zM167.4091,188.72217h3.73082v-1.12906h-3.73082zM171.13992,189.62215h-3.73082v1.1127h3.73082zM162.5165,188.72217h3.69809v-1.12906h-3.69809zM166.21459,189.62215h-3.69809v1.1127h3.69809z" fill="#000000" stroke="#000000" stroke-width="0.3" stroke-linecap="round"/><path d="M183.31417,189.6876v1.1127h-2.86356v3.84537c0,0.40363 -0.04909,0.7118 -0.14727,0.92452c-0.09818,0.21272 -0.26999,0.36544 -0.51544,0.45817c-0.24545,0.09273 -0.60272,0.13909 -1.0718,0.13909h-0.96543l-0.22908,-1.17815h0.86725c0.31635,0 0.53726,-0.02182 0.66271,-0.06546c0.12545,-0.04363 0.20454,-0.12 0.23727,-0.22908c0.03272,-0.10908 0.04909,-0.30545 0.04909,-0.58908v-3.30537h-3.07628v-1.1127h3.07628v-1.76722h-3.38719v-1.07998h2.01268c-0.02182,-0.10908 -0.15273,-0.83453 -0.39272,-2.17631l-0.09818,-0.45817h-1.03088v-1.0636h2.92901l-0.50726,-1.58724l1.17816,-0.19636c0.19636,0.54545 0.37635,1.13998 0.53999,1.7836h2.63449v1.0636h-0.91635c-0.14182,0.70908 -0.35453,1.58723 -0.63816,2.63448h1.93086v1.07998h-3.14174v1.76722zM185.45775,187.16767h4.95807v1.17815h-1.76723v8.01799h-1.12906v-8.01799h-2.06177v0.03273c0,1.40724 -0.04637,2.55539 -0.13909,3.44446c-0.09273,0.88907 -0.25908,1.68542 -0.49908,2.38904c-0.23999,0.70362 -0.58908,1.43723 -1.04725,2.20085l-1.17815,-0.58908c0.45817,-0.68725 0.80452,-1.36087 1.03906,-2.02086c0.23454,-0.65999 0.39817,-1.42087 0.4909,-2.28267c0.09273,-0.8618 0.13909,-1.98541 0.13909,-3.37083v-5.03987c0.95997,-0.08727 1.93358,-0.23727 2.92083,-0.44999c0.98725,-0.21272 1.82451,-0.44998 2.51176,-0.7118l0.37635,1.16179c-0.57817,0.23999 -1.28997,0.46089 -2.1354,0.66271c-0.84544,0.20182 -1.67177,0.34636 -2.47903,0.43363zM177.50522,191.37302l0.96543,0.39271c-0.51271,1.34178 -1.09634,2.49812 -1.75087,3.46901l-0.89998,-0.55635c0.32727,-0.44726 0.6218,-0.93817 0.88361,-1.4727c0.26182,-0.53453 0.52908,-1.14542 0.8018,-1.83268zM181.2524,184.20592h-2.74902c0.26182,1.22179 0.43635,2.09995 0.52362,2.63448h1.55451c0.19636,-0.67635 0.41999,-1.55451 0.6709,-2.63448zM180.90877,192.02755l0.81816,-0.60544c0.40363,0.54545 0.9327,1.30361 1.58723,2.27449l-0.85089,0.65453c-0.57817,-0.90543 -1.09634,-1.67996 -1.55451,-2.32358z" fill="#000000" stroke="#000000" stroke-width="0.3" stroke-linecap="round"/><path d="M194.53935,181.4569h1.22724l-0.04909,2.89629h3.48537c-0.13091,5.78168 -0.20727,8.93979 -0.22908,9.47431c-0.02182,0.55635 -0.10363,0.9818 -0.24545,1.27634c-0.14182,0.29454 -0.37362,0.50453 -0.69543,0.62998c-0.32181,0.12545 -0.7718,0.18818 -1.34997,0.18818h-1.30906l-0.26181,-1.2927h1.27633c0.42544,0 0.73089,-0.03545 0.91634,-0.10636c0.18545,-0.07091 0.30545,-0.19636 0.35999,-0.37636c0.05454,-0.17999 0.08727,-0.48271 0.09818,-0.90816c0.04363,-0.78544 0.10364,-3.17992 0.18,-7.18346l0.01636,-0.45817h-2.27449c-0.06545,1.90904 -0.17455,3.43901 -0.32727,4.58989c-0.15272,1.15088 -0.4009,2.20631 -0.74453,3.16629c-0.34363,0.95998 -0.84815,2.00177 -1.51359,3.12538l-0.99816,-0.88361c0.61089,-1.01452 1.07725,-1.95268 1.39906,-2.81447c0.32181,-0.8618 0.55909,-1.8436 0.7118,-2.94539c0.15272,-1.10179 0.24544,-2.51448 0.27817,-4.23808h-1.99631v-1.24361h2.01268zM201.91917,196.13472h-1.17816v-12.68151h5.21987v12.68151h-1.16178v-1.37451h-2.87993zM204.7991,184.69682h-2.87993v8.85251h2.87993z" fill="#000000" stroke="#000000" stroke-width="0.3" stroke-linecap="round"/><path d="M221.88232,191.88028l1.09633,0.32726l-0.27817,2.04541c-0.13091,0.76362 -0.32999,1.29542 -0.59726,1.59542c-0.26727,0.29999 -0.60271,0.44999 -1.00634,0.44999c-0.38181,0 -0.72271,-0.12545 -1.0227,-0.37635c-0.29999,-0.2509 -0.59181,-0.65999 -0.87544,-1.22724c-0.15272,-0.29454 -0.27817,-0.58908 -0.37635,-0.88362c-0.67635,0.75271 -1.52178,1.5436 -2.5363,2.37267l-0.85089,-0.96543c1.19997,-0.90543 2.19267,-1.80542 2.97811,-2.69994c-0.44726,-1.57087 -0.76907,-3.52901 -0.96543,-5.8744h-8.65615v-1.09633h3.53446v-1.48906h-2.84721v-1.01452h2.84721v-1.61996h1.16179v1.61996h2.92902v1.01452h-2.92902v1.48906h3.87809c0,-0.17454 -0.01091,-0.43635 -0.03273,-0.78544l-0.13091,-3.43628h1.19451l0.16363,3.63264l0.03272,0.58908h4.3199v1.09633h-4.25444c0.14182,1.76723 0.36544,3.32174 0.67089,4.66352c0.73089,-1.07997 1.3527,-2.36721 1.86541,-3.86172l1.09634,0.45817c-0.38181,0.9818 -0.77726,1.85995 -1.18634,2.63448c-0.40908,0.77453 -0.86997,1.49996 -1.38269,2.17631c0.14182,0.44726 0.30544,0.86725 0.49089,1.25997c0.16363,0.34909 0.3109,0.5918 0.4418,0.72816c0.13091,0.13636 0.27818,0.20454 0.44181,0.20454c0.13091,0 0.23454,-0.09546 0.3109,-0.28636c0.07636,-0.1909 0.16363,-0.53181 0.26181,-1.0227c0.08727,-0.51272 0.15818,-1.08542 0.21272,-1.71814zM216.58063,193.59842l0.01636,0.40908l-2.61812,0.19636v2.14359h-1.16179v-2.04541l-3.97627,0.29454l-0.08182,-1.1127l4.05809,-0.29454v-1.2927h-3.17447v-1.01452c0.34909,-0.54545 0.71998,-1.15088 1.1127,-1.81632h-1.81632v-1.03088h2.38903c0.19636,-0.3709 0.39272,-0.76907 0.58908,-1.19452l1.14543,0.26181l-0.44181,0.9327h4.17263v1.03088h-4.71261c-0.27272,0.51271 -0.61634,1.10724 -1.03088,1.78359h1.78359v-1.21087h1.14542v1.21087h2.61812v1.04725h-2.61812v1.21088l2.56903,-0.19636zM222.47139,184.07501l-0.81816,0.8018c-0.41454,-0.44726 -1.21088,-1.23815 -2.38903,-2.37267l0.75271,-0.75271c0.66544,0.59999 1.4836,1.3745 2.45449,2.32358z" fill="#000000" stroke="#000000" stroke-width="0.3" stroke-linecap="round"/><path d="M151.58611,234.6872l-0.42975,0.9767c-1.46722,-0.56432 -2.69135,-1.19809 -3.67239,-1.90131c-0.98972,0.71191 -2.2616,1.3587 -3.81564,1.94038l-0.52091,-0.91159c1.39777,-0.4775 2.57848,-1.03313 3.54216,-1.6669c-0.97236,-0.85081 -1.74069,-1.88394 -2.30501,-3.09939v-0.91159h6.08158v0.92461c-0.52959,1.24149 -1.27188,2.28331 -2.22687,3.12544c0.9029,0.59904 2.01851,1.10693 3.34682,1.52365zM146.0645,225.23276v0.79438c0,0.49486 -0.14325,0.95934 -0.42975,1.39343c-0.2865,0.43409 -0.74663,0.85081 -1.3804,1.25017l-0.71625,-0.71625c0.41672,-0.27782 0.73361,-0.52742 0.95065,-0.7488c0.21704,-0.22138 0.37115,-0.45579 0.46231,-0.70322c0.09116,-0.24743 0.13674,-0.54478 0.13674,-0.89205v-1.27622h4.67513v2.17478c0,0.25177 0.04775,0.41673 0.14325,0.49486c0.0955,0.07814 0.27782,0.1172 0.54695,0.1172h1.05484l-0.13023,0.92461h-1.3804c-0.46013,0.00868 -0.78353,-0.06511 -0.97019,-0.22138c-0.18666,-0.15627 -0.27998,-0.44711 -0.27998,-0.87252v-1.71899zM142.40513,233.21565l1.56272,-1.28924l0.37766,0.92461l-2.68267,2.21385l-0.62509,-0.75531c0.16495,-0.17364 0.2713,-0.3082 0.31905,-0.4037c0.04775,-0.0955 0.07163,-0.21705 0.07163,-0.36464v-4.66211h-1.36738v-0.95065h2.34408zM149.38528,230.02509h-3.94587c0.51222,1.00708 1.17638,1.85355 1.99246,2.53941c0.87686,-0.72059 1.528,-1.56706 1.9534,-2.53941zM143.45997,226.17039l-0.82043,0.66415c-0.51222,-0.69454 -1.12429,-1.47156 -1.83619,-2.33106l0.78136,-0.63811c0.23441,0.26045 0.53393,0.61641 0.89856,1.06786c0.36464,0.45145 0.6902,0.86384 0.9767,1.23715z" fill="#ffffff" stroke="#ffffff" stroke-width="0.5" stroke-linecap="round"/><path d="M159.32156,228.97026h3.55519v5.59974h1.70596v0.75531h-11.499v-0.75531h1.71899v-5.59974h3.54216v-0.75531h-4.8314v-0.71625h4.84443v-0.78136h-4.38864v-2.43524h9.7149v2.43524h-4.37561v0.78136h4.83141v0.71625h-4.81838zM161.88702,234.57v-0.71624h-6.12065v0.71624zM155.76637,231.09295v0.70322h6.12065v-0.70322zM155.76637,233.17658h6.12065v-0.70322h-6.12065zM155.76637,230.41577h6.12065v-0.6902h-6.12065zM156.93842,226.04016v-1.0939h-2.01851v1.0939zM160.74103,224.94626v1.0939h2.00549v-1.0939zM159.82944,224.94626h-1.97944v1.0939h1.97944z" fill="#ffffff" stroke="#ffffff" stroke-width="0.5" stroke-linecap="round"/><path d="M176.13381,233.08542l0.06511,-1.70597l1.05483,0.24743c-0.00868,0.14759 -0.0217,0.40587 -0.03907,0.77485c-0.01737,0.36898 -0.03907,0.71407 -0.06511,1.0353c-0.04341,0.51222 -0.1324,0.89639 -0.26697,1.1525c-0.13457,0.25611 -0.34944,0.43409 -0.64462,0.53393c-0.29518,0.09984 -0.72492,0.14976 -1.28924,0.14976h-5.61276c-0.54695,0 -0.97236,-0.06294 -1.27622,-0.18882c-0.30386,-0.12589 -0.52308,-0.33859 -0.65765,-0.63811c-0.13457,-0.29952 -0.20185,-0.7271 -0.20185,-1.28273v-6.10763h1.05483v1.6669h6.92805v-3.16451h-8.3345v-1.00274h9.36329v5.18301h-7.95684v3.15148c0,0.39068 0.03907,0.67935 0.1172,0.86601c0.07814,0.18666 0.21487,0.31688 0.41021,0.39068c0.19534,0.07379 0.49269,0.11069 0.89205,0.11069h4.96163c0.42541,0 0.73578,-0.02821 0.93112,-0.08465c0.19534,-0.05643 0.33208,-0.16278 0.41021,-0.31905c0.07814,-0.15627 0.13023,-0.41239 0.15627,-0.76834z" fill="#ffffff" stroke="#ffffff" stroke-width="0.5" stroke-linecap="round"/><path d="M190.65406,234.79139l-0.46882,0.91159c-1.19809,-0.58168 -2.15308,-1.21545 -2.86498,-1.90131c-0.70322,0.62509 -1.69294,1.27188 -2.96917,1.94038l-0.55998,-0.8595c1.25017,-0.59036 2.21819,-1.18072 2.90406,-1.77108c-0.65113,-0.84213 -1.21979,-1.9534 -1.70597,-3.3338h-0.31254c-0.01737,0.85081 -0.07379,1.56923 -0.1693,2.15525c-0.0955,0.58602 -0.25394,1.15468 -0.47532,1.70597c-0.22138,0.55129 -0.54912,1.2263 -0.98321,2.02502l-0.82043,-0.46882c0.43409,-0.74663 0.75531,-1.39125 0.96368,-1.93386c0.20836,-0.54261 0.35378,-1.13731 0.43626,-1.78411c0.08248,-0.64679 0.12371,-1.49977 0.12371,-2.55895v-3.43798h2.94312v-1.70596h0.89856v1.70596h2.89103v0.92461l-0.59904,1.70596l-0.82043,-0.32556l0.48184,-1.35436h-1.9534v2.40919h2.25292v0.89856c-0.23441,0.71191 -0.49921,1.3435 -0.79438,1.89479c-0.29518,0.55129 -0.65114,1.05701 -1.06786,1.51714c0.6685,0.62509 1.55838,1.17204 2.66964,1.64086zM183.28324,231.77013l-0.54695,0.65114c-0.32123,-0.33859 -0.73795,-0.74663 -1.25017,-1.22413v4.44072h-0.91159v-5.05279c-0.40805,0.54695 -0.80307,1.02444 -1.18506,1.43249l-0.42975,-0.91159c0.58168,-0.63377 1.10909,-1.30009 1.58225,-1.99897c0.47316,-0.69888 0.84431,-1.37823 1.11344,-2.03805h-2.31803v-0.95065h3.3338v0.88554c-0.32123,0.73795 -0.71625,1.48458 -1.18506,2.2399v0.84647l0.20836,0.19534c0.19968,-0.26045 0.49052,-0.66415 0.87251,-1.21111c0.03473,-0.05209 0.06729,-0.09984 0.09768,-0.14325c0.03038,-0.04341 0.05425,-0.07814 0.07162,-0.10418l0.62509,0.4558c-0.26045,0.41672 -0.62943,0.92461 -1.10693,1.52365zM188.88298,229.77766h-2.9301c0.382,1.10258 0.85082,2.00115 1.40645,2.69569c0.63377,-0.71191 1.14165,-1.61047 1.52365,-2.69569zM184.67667,228.84003h2.01851v-2.40919h-2.01851zM181.90284,225.59739l-0.84647,0.31254c-0.15627,-0.41672 -0.43409,-1.0722 -0.83345,-1.96642l0.83345,-0.29952c0.39936,0.85949 0.68152,1.51062 0.84647,1.9534z" fill="#ffffff" stroke="#ffffff" stroke-width="0.5" stroke-linecap="round"/><path d="M203.55951,234.42675l-0.19534,0.9767c-1.65822,-0.0955 -2.98653,-0.22356 -3.98493,-0.38417c-0.99841,-0.16061 -1.88394,-0.41455 -2.65662,-0.76182c-0.43409,0.27782 -0.98755,0.53393 -1.66039,0.76834c-0.67284,0.23441 -1.50846,0.46447 -2.50686,0.6902l-0.36464,-0.91159c0.84213,-0.191 1.5497,-0.37114 2.12269,-0.54044c0.57299,-0.1693 1.0505,-0.34944 1.43249,-0.54044c-0.62509,-0.39936 -1.23281,-0.89422 -1.82317,-1.48458l0.65113,-0.63811c0.70322,0.70322 1.36738,1.22847 1.99247,1.57574c0.24309,-0.22572 0.42975,-0.48184 0.55998,-0.76834c0.13023,-0.2865 0.21704,-0.62943 0.26045,-1.02879h-3.94587v-4.89651h3.99796v-1.19809h-4.98768v-0.91159h10.95205v0.91159h-4.98767v1.19809h4.01098v4.89651h-4.06307c-0.04341,0.4775 -0.13457,0.89423 -0.27348,1.25018c-0.13891,0.35595 -0.33425,0.67717 -0.58602,0.96367c0.65981,0.24309 1.45637,0.42758 2.38966,0.55347c0.93329,0.12589 2.15525,0.21922 3.66587,0.27998zM198.41556,230.33764v0.20836h3.06032v-1.22413h-3.06032zM198.41556,228.51446h3.06032v-1.21111h-3.06032zM197.43887,229.32187h-3.03428v1.22413h3.03428v-0.23441zM194.40459,228.51446h3.03428v-1.21111h-3.03428z" fill="#ffffff" stroke="#ffffff" stroke-width="0.5" stroke-linecap="round"/><path d="M216.73843,234.76534l-0.62509,0.91159c-1.25017,-0.85081 -2.2616,-1.74937 -3.03428,-2.69569c-0.8074,0.91159 -1.98378,1.83186 -3.52914,2.7608l-0.63811,-0.89857c1.5714,-0.86818 2.7608,-1.75806 3.56821,-2.66964c-0.70322,-1.02445 -1.20676,-2.19214 -1.51062,-3.50309c-0.23441,0.39068 -0.45579,0.72059 -0.66415,0.98972l-0.63811,-0.74229c0.50354,-0.68586 0.96802,-1.51714 1.39343,-2.49384c0.42541,-0.9767 0.72492,-1.88611 0.89856,-2.72824l1.00274,0.22138c-0.13891,0.59036 -0.33859,1.22847 -0.59904,1.91433h4.24539v1.01577h-1.11995c-0.13891,1.15468 -0.34944,2.15742 -0.6316,3.00823c-0.28216,0.85081 -0.66633,1.62783 -1.15251,2.33106c0.77268,0.93763 1.78411,1.79712 3.03428,2.57848zM206.78913,233.68446l2.74778,-1.47156l0.1693,1.02879l-3.86773,2.0706l-0.49486,-0.93763c0.18232,-0.14759 0.29952,-0.26262 0.35161,-0.3451c0.05209,-0.08248 0.07814,-0.18449 0.07814,-0.30603v-4.90954h2.78685v-2.98219h-3.07335v-1.01577h4.03703v5.0007h-2.73476zM214.52458,226.84757h-2.59151l-0.26045,0.55997c0.25177,1.54536 0.72927,2.86065 1.43249,3.94587c0.39068,-0.59904 0.69671,-1.25886 0.9181,-1.97944c0.22138,-0.72059 0.38851,-1.56271 0.50137,-2.52639z" fill="#ffffff" stroke="#ffffff" stroke-width="0.5" stroke-linecap="round"/><path d="M151.69741,244.68133v0.92025h-6.51954c-0.37156,0.63943 -0.79496,1.21404 -1.27021,1.72385h6.44178v4.79569h-0.98506v-0.79064h-5.67706v0.79064h-0.95914v-3.66805c-0.57894,0.47525 -1.22268,0.93321 -1.93124,1.3739l-0.47957,-0.86841c0.85545,-0.48389 1.5856,-0.99802 2.19046,-1.5424c0.60486,-0.54437 1.119,-1.14924 1.5424,-1.81458h-3.53844v-0.92025h4.05689c0.22466,-0.45797 0.41476,-0.91161 0.5703,-1.36094l0.98506,0.24626c-0.1469,0.40612 -0.30243,0.77768 -0.4666,1.11468zM144.32242,242.72417v0.99802h-0.94618v-0.99802h-2.83853v-0.94618h2.83853v-1.39982h0.94618v1.39982h3.61621v-1.39982h0.9721v1.39982h2.76076v0.94618h-2.76076v0.98506h-0.9721v-0.98506zM143.68732,248.24569v2.1775h5.67706v-2.1775z" fill="#ffffff" stroke="#ffffff" stroke-width="0.5" stroke-linecap="round"/><path d="M164.69761,248.29754h-2.4108c-0.44933,0.82088 -1.01962,1.47327 -1.71089,1.95716c0.94185,0.29379 2.12997,0.66966 3.56436,1.12763l-0.34996,0.88137c-1.20108,-0.4234 -2.61818,-0.89433 -4.25131,-1.41279c-0.63079,0.29379 -1.40631,0.5487 -2.32656,0.76472c-0.92025,0.21602 -2.03708,0.41476 -3.3505,0.59622l-0.28515,-0.90729c2.04789,-0.22466 3.59892,-0.50981 4.65311,-0.85545c-0.40612,-0.12961 -1.35662,-0.41044 -2.85149,-0.84249l-0.337,-0.10369c0.26787,-0.30243 0.57893,-0.70423 0.93321,-1.2054h-2.68299v-0.81656h3.2144c0.24194,-0.39748 0.47525,-0.8252 0.69991,-1.28317l1.06283,0.27219c-0.11233,0.22466 -0.29811,0.56166 -0.55734,1.01098h6.98615zM154.16006,246.06819v-2.99406h2.95518v-1.2054h-3.53844v-0.88137h10.8227v0.88137h-3.52548v1.2054h2.95518v2.99406zM161.10732,248.29754h-3.91432c-0.09505,0.1469 -0.28947,0.41908 -0.58326,0.81656c0.78632,0.19874 1.74114,0.4666 2.86445,0.8036c0.36291,-0.19874 0.67183,-0.42773 0.92673,-0.68695c0.25491,-0.25923 0.49037,-0.5703 0.70639,-0.93321zM160.87402,245.19978h2.02197v-1.30909h-2.02197zM157.11524,245.19978v-1.30909h-2.02196v1.30909zM159.99265,245.19978v-1.30909h-1.98308v1.30909zM158.00957,241.86872v1.2054h1.98308v-1.2054z" fill="#ffffff" stroke="#ffffff" stroke-width="0.5" stroke-linecap="round"/><path d="M174.13345,250.44912v-3.40883c-0.51845,0.93321 -1.17084,1.76706 -1.95716,2.50153l-0.41476,-0.88137c1.01962,-0.92458 1.77138,-1.9442 2.25527,-3.05887h-2.15158v-0.95914h2.26823v-4.25131h0.89433v4.25131h2.35896v0.95914h-2.35896v0.95914c0.5703,0.44069 1.24861,0.98938 2.03493,1.64609c0.05185,0.04321 0.11233,0.09289 0.18146,0.14906c0.06913,0.05617 0.14258,0.11449 0.22034,0.17498l-0.54437,0.75176c-0.57894,-0.51845 -1.20972,-1.05419 -1.89235,-1.6072v2.77372zM170.56909,240.85774h0.93322v10.0191h6.16958v0.94618h-7.1028zM167.40652,244.26657l1.56832,-0.19442c0.2333,-0.39748 0.45364,-0.80792 0.66103,-1.23132l0.81656,0.4666c-0.70855,1.33934 -1.6072,2.75644 -2.69595,4.25131l2.21639,-0.34996l0.02592,0.92025l-3.3181,0.50549l-0.19442,-0.94617c0.69991,-0.82088 1.35662,-1.7325 1.97012,-2.73484l-1.99604,0.29811l-0.18146,-0.89433c0.38884,-0.50117 0.76904,-1.09739 1.1406,-1.78866c0.37156,-0.69127 0.75176,-1.46031 1.1406,-2.30711l0.81656,0.37588c-0.85545,1.7541 -1.51215,2.96382 -1.97012,3.62917zM170.14137,250.64354l-3.70694,0.60918l-0.12962,-0.9721l3.78471,-0.64806zM176.6609,241.35027l0.75176,0.32404c-0.13825,0.30243 -0.34564,0.71503 -0.62214,1.23781c-0.27651,0.52277 -0.50549,0.93969 -0.68695,1.25077l-0.71287,-0.34996c0.1901,-0.31971 0.41692,-0.73016 0.68047,-1.23133c0.26355,-0.50117 0.46012,-0.91161 0.58974,-1.23133zM173.75757,243.81292l-0.69991,0.34996c-0.1469,-0.31107 -0.3586,-0.72583 -0.6351,-1.24429c-0.27651,-0.51845 -0.49685,-0.92025 -0.66103,-1.2054l0.67399,-0.36292c0.17282,0.28515 0.39748,0.68479 0.67399,1.19892c0.27651,0.51413 0.49253,0.93537 0.64807,1.26373z" fill="#ffffff" stroke="#ffffff" stroke-width="0.5" stroke-linecap="round"/><path d="M204.41739,251.22679l-0.42773,0.9721c-1.46031,-0.56166 -2.67867,-1.19244 -3.65509,-1.89235c-0.98506,0.70855 -2.25095,1.3523 -3.79767,1.93124l-0.51845,-0.90729c1.39118,-0.47525 2.56634,-1.02827 3.52548,-1.65905c-0.96778,-0.84681 -1.7325,-1.87507 -2.29416,-3.08479v-0.90729h6.05294v0.92025c-0.52709,1.23564 -1.26589,2.27255 -2.21639,3.11072c0.89865,0.59622 2.009,1.10171 3.33106,1.51647zM198.92179,241.81688v0.79064c0,0.49253 -0.14257,0.95482 -0.42772,1.38686c-0.28515,0.43204 -0.74312,0.84681 -1.3739,1.24429l-0.71287,-0.71287c0.41476,-0.27651 0.73016,-0.52494 0.94618,-0.74528c0.21602,-0.22034 0.36939,-0.45364 0.46012,-0.69991c0.09073,-0.24627 0.1361,-0.54221 0.1361,-0.88785v-1.27021h4.65311v2.16454c0,0.25058 0.04753,0.41477 0.14258,0.49253c0.09505,0.07777 0.27651,0.11665 0.54437,0.11665h1.04987l-0.12961,0.92025h-1.3739c-0.45797,0.00864 -0.77984,-0.06481 -0.96562,-0.22034c-0.18578,-0.15554 -0.27867,-0.44501 -0.27867,-0.86841v-1.71089zM195.27966,249.76217l1.55536,-1.28317l0.37588,0.92025l-2.67003,2.20342l-0.62214,-0.75176c0.16418,-0.17282 0.27003,-0.30675 0.31755,-0.4018c0.04752,-0.09505 0.07129,-0.21602 0.07129,-0.36292v-4.64015h-1.36094v-0.94618h2.33303zM202.22693,246.58664h-3.92728c0.50981,1.00234 1.17084,1.84483 1.98308,2.52746c0.87273,-0.71719 1.5208,-1.55968 1.9442,-2.52746zM196.32953,242.75009l-0.81656,0.66103c-0.50981,-0.69127 -1.119,-1.46463 -1.82755,-2.32008l0.77768,-0.6351c0.2333,0.25923 0.53141,0.6135 0.89433,1.06283c0.36291,0.44933 0.68695,0.85977 0.9721,1.23133z" fill="#ffffff" stroke="#ffffff" stroke-width="0.5" stroke-linecap="round"/><path d="M212.11641,245.53678h3.53844v5.57337h1.69793v0.75175h-11.44484v-0.75175h1.71089v-5.57337h3.52548v-0.75176h-4.80865v-0.71287h4.82161v-0.77768h-4.36796v-2.42377h9.66914v2.42377h-4.355v0.77768h4.80865v0.71287h-4.79569zM214.66979,251.11014v-0.71287h-6.09182v0.71287zM208.57797,247.64947v0.69991h6.09182v-0.69991zM208.57797,249.72328h6.09182v-0.69991h-6.09182zM208.57797,246.97548h6.09182v-0.68695h-6.09182zM209.74449,242.62048v-1.08875h-2.00901v1.08875zM213.52919,241.53173v1.08875h1.99604v-1.08875zM212.6219,241.53173h-1.97012v1.08875h1.97012z" fill="#ffffff" stroke="#ffffff" stroke-width="0.5" stroke-linecap="round"/><path d="M187.38275,247.90932h-1.63313v1.28317h2.29416v0.84249h-2.29416v1.07579c0,0.39748 -0.05617,0.69991 -0.1685,0.90729c-0.11233,0.20738 -0.28947,0.34996 -0.53141,0.42773c-0.24194,0.07777 -0.58326,0.11665 -1.02394,0.11665h-1.32206l-0.1685,-0.88137h1.23133c0.30243,0 0.52061,-0.01944 0.65454,-0.05833c0.13394,-0.03888 0.22467,-0.11449 0.27219,-0.22682c0.04752,-0.11233 0.07129,-0.28947 0.07129,-0.53141v-0.82952h-2.33303v-0.84249h2.33303v-1.28317h-1.71089v-0.84249h1.71089v-1.2054h-1.58128v-0.82952h1.58128v-1.11467l2.83853,-1.52944h-6.64916v-0.94618h8.45078v0.88137l-3.65509,2.02197v0.68695h1.49055v0.82952h-1.49055v1.2054h1.63313zM191.11561,250.94226l-0.60919,0.94618c-0.6135,-0.64806 -1.11683,-1.33069 -1.50999,-2.04789c-0.39316,-0.71719 -0.70639,-1.53592 -0.9397,-2.45617c-0.2333,-0.92025 -0.41476,-2.02413 -0.54437,-3.31162l0.88137,-0.10369c0.07777,0.69991 0.1685,1.3523 0.27219,1.95716c0.68263,-0.52709 1.27021,-1.0369 1.76274,-1.52943l0.62214,0.71287c-0.75176,0.69127 -1.47327,1.29181 -2.16454,1.80162c0.21602,0.88137 0.50333,1.64393 0.86193,2.28767c0.3586,0.64375 0.8144,1.22485 1.36742,1.7433zM179.77446,244.47457h2.9811v0.95914c-0.13825,0.91593 -0.30675,1.71522 -0.50549,2.39784c-0.19874,0.68263 -0.47093,1.35014 -0.81656,2.00252c-0.34564,0.65239 -0.80792,1.34582 -1.38686,2.08029l-0.59622,-0.89433c0.70855,-0.89001 1.23997,-1.76706 1.59424,-2.63115c0.35428,-0.86409 0.6135,-1.84915 0.77768,-2.95518h-2.04789z" fill="#ffffff" stroke="#ffffff" stroke-width="0.5" stroke-linecap="round"/><path d="M228.97278,243.69627h-3.04591v0.88137h3.73286v0.7388h-8.29524v-0.7388h3.61621v-0.88137h-2.82557v-0.72583h2.82557v-0.84249h-3.21441v-0.73879h3.21441v-0.9721h0.94618v0.9721h3.36994v0.73879h-3.36994v0.84249h3.04591zM223.17907,252.06928h-0.93322v-5.88444h6.42881v4.58831c0,0.45797 -0.09937,0.77552 -0.29811,0.95266c-0.19874,0.17714 -0.55734,0.26571 -1.07579,0.26571h-1.3739l-0.14258,-0.73879h1.21837c0.2333,0 0.4018,-0.01944 0.50549,-0.05833c0.10369,-0.03888 0.1685,-0.09937 0.19442,-0.18146c0.02592,-0.08209 0.03888,-0.21386 0.03888,-0.39532v-0.47957h-4.56238zM220.3535,244.60356v5.40487l1.12763,-1.04987l0.22034,1.0369l-2.06085,1.81459l-0.58326,-0.72583c0.12961,-0.12097 0.2225,-0.23762 0.27867,-0.34996c0.05617,-0.11233 0.08425,-0.24195 0.08425,-0.38884v-4.80864h-1.23133v-0.93322zM223.17907,247.80501h4.56238v-0.84248h-4.56238zM227.74145,248.55676h-4.56238v0.82952h4.56238zM221.22191,243.00932l-0.81656,0.55733c-0.18146,-0.30243 -0.4234,-0.68695 -0.72583,-1.15356c-0.30243,-0.46661 -0.57462,-0.87272 -0.81656,-1.21836l0.76472,-0.51846c0.1901,0.25058 0.44285,0.60702 0.75824,1.06931c0.31539,0.46229 0.59406,0.88353 0.836,1.26373z" fill="#ffffff" stroke="#ffffff" stroke-width="0.5" stroke-linecap="round"/><path d="M236.54219,245.38124l-1.62016,0.10369v1.69793h2.52745v0.94617h-2.52745v2.15158l2.77372,-0.27219l0.01296,0.49253l0.01296,0.45365c-0.81224,0.06913 -1.90099,0.17065 -3.26625,0.30459c-1.36526,0.13394 -2.45401,0.24411 -3.26625,0.33052l-0.09073,-0.94618l2.89037,-0.27219v-2.24231h-2.56634v-0.94617h2.56634v-1.63313l-2.37192,0.14258l-0.22034,-0.82953c0.31107,-0.31971 0.64375,-0.72583 0.99802,-1.21836c0.35428,-0.49253 0.68695,-0.98938 0.99802,-1.49055h-2.1775v-0.95914h6.45473v0.95914h-3.2144c-0.27651,0.45797 -0.58326,0.93106 -0.92025,1.41926c-0.337,0.48821 -0.62214,0.87489 -0.85545,1.16004l3.3181,-0.20738l-0.81656,-1.21837l0.71287,-0.49253c0.32835,0.46661 0.9721,1.43006 1.93124,2.89037l-0.76472,0.50549c-0.12097,-0.20738 -0.29379,-0.48389 -0.51845,-0.82952zM240.92311,250.17693v-9.64322h0.9721v9.96725c0,0.56166 -0.12313,0.95482 -0.3694,1.17948c-0.24627,0.22466 -0.67615,0.33699 -1.28965,0.33699h-1.55536l-0.18146,-0.95914h1.42574c0.3802,0 0.64158,-0.06049 0.78416,-0.18146c0.14258,-0.12097 0.21386,-0.35427 0.21386,-0.69991zM238.46046,249.3474v-7.75087h0.90729v7.75087z" fill="#ffffff" stroke="#ffffff" stroke-width="0.5" stroke-linecap="round"/><path d="M255.54348,251.22679l-0.42773,0.9721c-1.46031,-0.56166 -2.67867,-1.19244 -3.65509,-1.89235c-0.98506,0.70855 -2.25095,1.3523 -3.79767,1.93124l-0.51846,-0.90729c1.39118,-0.47525 2.56634,-1.02827 3.52548,-1.65905c-0.96778,-0.84681 -1.7325,-1.87507 -2.29416,-3.08479v-0.90729h6.05293v0.92025c-0.52709,1.23564 -1.26589,2.27255 -2.21639,3.11072c0.89865,0.59622 2.00901,1.10171 3.33106,1.51647zM250.04788,241.81688v0.79064c0,0.49253 -0.14257,0.95482 -0.42772,1.38686c-0.28515,0.43204 -0.74312,0.84681 -1.3739,1.24429l-0.71287,-0.71287c0.41476,-0.27651 0.73016,-0.52494 0.94618,-0.74528c0.21602,-0.22034 0.36939,-0.45364 0.46012,-0.69991c0.09073,-0.24627 0.13609,-0.54221 0.13609,-0.88785v-1.27021h4.65311v2.16454c0,0.25058 0.04753,0.41477 0.14258,0.49253c0.09505,0.07777 0.27651,0.11665 0.54437,0.11665h1.04987l-0.12961,0.92025h-1.3739c-0.45797,0.00864 -0.77984,-0.06481 -0.96562,-0.22034c-0.18578,-0.15554 -0.27867,-0.44501 -0.27867,-0.86841v-1.71089zM246.40575,249.76217l1.55536,-1.28317l0.37588,0.92025l-2.67003,2.20342l-0.62214,-0.75176c0.16418,-0.17282 0.27003,-0.30675 0.31755,-0.4018c0.04752,-0.09505 0.07129,-0.21602 0.07129,-0.36292v-4.64015h-1.36094v-0.94618h2.33304zM253.35301,246.58664h-3.92728c0.50981,1.00234 1.17084,1.84483 1.98308,2.52746c0.87273,-0.71719 1.52079,-1.55968 1.9442,-2.52746zM247.45561,242.75009l-0.81656,0.66103c-0.50981,-0.69127 -1.11899,-1.46463 -1.82754,-2.32008l0.77768,-0.6351c0.2333,0.25923 0.53142,0.6135 0.89433,1.06283c0.36291,0.44933 0.68695,0.85977 0.9721,1.23133z" fill="#ffffff" stroke="#ffffff" stroke-width="0.5" stroke-linecap="round"/><path d="M263.2425,245.53678h3.53844v5.57337h1.69793v0.75175h-11.44484v-0.75175h1.71089v-5.57337h3.52548v-0.75176h-4.80865v-0.71287h4.82161v-0.77768h-4.36796v-2.42377h9.66914v2.42377h-4.355v0.77768h4.80865v0.71287h-4.79569zM265.79588,251.11014v-0.71287h-6.09182v0.71287zM259.70406,247.64947v0.69991h6.09182v-0.69991zM259.70406,249.72328h6.09182v-0.69991h-6.09182zM259.70406,246.97548h6.09182v-0.68695h-6.09182zM260.87058,242.62048v-1.08875h-2.00901v1.08875zM264.65528,241.53173v1.08875h1.99604v-1.08875zM263.74799,241.53173h-1.97012v1.08875h1.97012z" fill="#ffffff" stroke="#ffffff" stroke-width="0.5" stroke-linecap="round"/><path d="M281.46611,248.49196l-0.4018,0.92025c-0.98506,-0.31107 -1.90099,-0.69127 -2.7478,-1.1406v3.92728h-0.99802v-4.17354h0.5703c-0.89001,-0.52709 -1.6072,-1.09739 -2.15158,-1.71089c-0.52709,0.57894 -1.27021,1.14492 -2.22934,1.69793h0.75175v0.68695c0,0.72583 -0.20522,1.3847 -0.61566,1.9766c-0.41044,0.5919 -1.09091,1.1514 -2.04141,1.67849l-0.60918,-0.82952c0.87273,-0.4234 1.47327,-0.85113 1.80162,-1.28317c0.32835,-0.43204 0.49253,-0.94618 0.49253,-1.5424v-0.55733c-0.88137,0.48389 -1.86211,0.91593 -2.94222,1.29613l-0.41476,-0.90729c1.97012,-0.60486 3.59892,-1.46031 4.88642,-2.56634h-3.61621v-5.0938h9.02108v5.0938h-3.66805c1.1838,1.10603 2.82125,1.94852 4.91234,2.52746zM276.16493,241.73911v1.30909h3.09776v-1.30909zM279.26268,243.82588h-3.09776v1.29613h3.09776zM272.15988,243.0482h3.08479v-1.30909h-3.08479zM275.24467,245.12202v-1.29613h-3.08479v1.29613z" fill="#ffffff" stroke="#ffffff" stroke-width="0.5" stroke-linecap="round"/><path d="M294.19412,240.96143v0.89433h-5.13268l-0.58326,1.59424h5.05492v8.74889h-0.95914v-0.86841h-7.88048v0.86841h-0.93322v-8.74889h3.64213c0.26787,-0.70855 0.45797,-1.23997 0.5703,-1.59424h-4.89937v-0.89433zM286.43029,250.47504v-6.1307h-1.73682v6.1307zM290.8501,244.34434v6.1307h1.72385v-6.1307zM289.91689,250.47504v-1.47759h-2.5793v1.47759zM287.33758,244.34434v1.46463h2.5793v-1.46463zM287.33758,246.66441v1.46463h2.5793v-1.46463z" fill="#ffffff" stroke="#ffffff" stroke-width="0.5" stroke-linecap="round"/><path d="M304.82824,248.06063h2.21639v0.90729h-2.21639v1.64609c0,0.4234 -0.04968,0.74744 -0.14905,0.9721c-0.09937,0.22466 -0.26787,0.3802 -0.50549,0.46661c-0.23762,0.08641 -0.5811,0.12961 -1.03043,0.12961h-1.51647l-0.18146,-0.92025h1.39983c0.29379,0 0.50981,-0.02377 0.64806,-0.07129c0.13825,-0.04752 0.23114,-0.13393 0.27867,-0.25923c0.04752,-0.12529 0.07129,-0.31755 0.07129,-0.57678v-1.38686h-8.0749v-0.90729h8.0749v-1.1406h-5.27525c-0.45797,0 -0.81008,-0.04536 -1.05635,-0.13609c-0.24627,-0.09073 -0.42124,-0.24843 -0.52493,-0.47309c-0.10369,-0.22466 -0.15554,-0.55302 -0.15554,-0.98506v-4.1865h8.61927v3.27921h-7.63422v0.68695c0,0.26787 0.02592,0.46445 0.07777,0.58974c0.05185,0.12529 0.1469,0.20954 0.28515,0.25275c0.13825,0.04321 0.3586,0.06481 0.66103,0.06481h5.52152c0.36291,0 0.6243,-0.01944 0.78416,-0.05833c0.15985,-0.03888 0.26571,-0.11233 0.31755,-0.22034c0.05185,-0.10801 0.08641,-0.28731 0.10369,-0.53789c0.01728,-0.1901 0.02592,-0.40612 0.02592,-0.64806l1.04987,0.24626l-0.05185,0.81656c-0.03456,0.34564 -0.10801,0.61134 -0.22034,0.79712c-0.11233,0.18578 -0.28731,0.31756 -0.52494,0.39532c-0.23762,0.07777 -0.57678,0.11665 -1.01746,0.11665zM297.81617,243.53713h6.63619v-1.50351h-6.63619zM297.64767,249.77152l0.54437,-0.69991l0.2333,0.15554c0.12097,0.08641 0.40828,0.28731 0.86193,0.6027c0.45364,0.31539 0.84033,0.59838 1.16004,0.84897l-0.53141,0.75176c-0.65671,-0.51845 -1.41278,-1.07147 -2.26823,-1.65905z" fill="#ffffff" stroke="#ffffff" stroke-width="0.5" stroke-linecap="round"/><path d="M313.97769,251.22381h3.42179v-3.57732h0.99802v5.1586h-0.99802v-0.6351h-8.74889v-4.49758h0.98506v3.5514h3.39586v-4.5883h-4.01801v-4.51054h0.9721v3.52548h3.04591v-4.70496h0.94618v4.70496h3.05887v-3.52548h0.9721v4.51054h-4.03097z" fill="#ffffff" stroke="#ffffff" stroke-width="0.5" stroke-linecap="round"/><path d="M331.39478,251.71437l-0.42773,0.9721c-1.46031,-0.56166 -2.67867,-1.19244 -3.65509,-1.89235c-0.98506,0.70855 -2.25095,1.3523 -3.79767,1.93124l-0.51845,-0.90729c1.39118,-0.47525 2.56634,-1.02827 3.52548,-1.65905c-0.96778,-0.84681 -1.7325,-1.87507 -2.29416,-3.08479v-0.90729h6.05294v0.92025c-0.52709,1.23564 -1.26589,2.27255 -2.21639,3.11072c0.89865,0.59622 2.009,1.10171 3.33106,1.51647zM325.89918,242.30445v0.79064c0,0.49253 -0.14257,0.95482 -0.42772,1.38686c-0.28515,0.43204 -0.74312,0.84681 -1.3739,1.24429l-0.71287,-0.71287c0.41476,-0.27651 0.73016,-0.52494 0.94618,-0.74528c0.21602,-0.22034 0.36939,-0.45364 0.46012,-0.69991c0.09073,-0.24627 0.1361,-0.54221 0.1361,-0.88785v-1.27021h4.65311v2.16454c0,0.25058 0.04753,0.41477 0.14258,0.49253c0.09505,0.07777 0.27651,0.11665 0.54437,0.11665h1.04987l-0.12961,0.92025h-1.3739c-0.45797,0.00864 -0.77984,-0.06481 -0.96562,-0.22034c-0.18578,-0.15554 -0.27867,-0.44501 -0.27867,-0.86841v-1.71089zM322.25705,250.24974l1.55536,-1.28317l0.37588,0.92025l-2.67003,2.20342l-0.62214,-0.75176c0.16418,-0.17282 0.27003,-0.30675 0.31755,-0.4018c0.04752,-0.09505 0.07129,-0.21602 0.07129,-0.36292v-4.64015h-1.36094v-0.94618h2.33303zM329.20432,247.07422h-3.92728c0.50981,1.00234 1.17084,1.84483 1.98308,2.52746c0.87273,-0.71719 1.5208,-1.55968 1.9442,-2.52746zM323.30692,243.23767l-0.81656,0.66103c-0.50981,-0.69127 -1.119,-1.46463 -1.82755,-2.32008l0.77768,-0.6351c0.2333,0.25923 0.53141,0.6135 0.89433,1.06283c0.36291,0.44933 0.68695,0.85977 0.9721,1.23133z" fill="#ffffff" stroke="#ffffff" stroke-width="0.5" stroke-linecap="round"/><path d="M339.0938,246.02435h3.53844v5.57337h1.69793v0.75175h-11.44484v-0.75175h1.71089v-5.57337h3.52548v-0.75176h-4.80865v-0.71287h4.82161v-0.77768h-4.36796v-2.42377h9.66914v2.42377h-4.355v0.77768h4.80865v0.71287h-4.79569zM341.64718,251.59772v-0.71287h-6.09182v0.71287zM335.55536,248.13704v0.69991h6.09182v-0.69991zM335.55536,250.21085h6.09182v-0.69991h-6.09182zM335.55536,247.46305h6.09182v-0.68695h-6.09182zM336.72188,243.10805v-1.08875h-2.00901v1.08875zM340.50658,242.0193v1.08875h1.99604v-1.08875zM339.59929,242.0193h-1.97012v1.08875h1.97012z" fill="#ffffff" stroke="#ffffff" stroke-width="0.5" stroke-linecap="round"/></g></g></svg>