<svg version="1.1" xmlns="http://www.w3.org/2000/svg" xmlns:xlink="http://www.w3.org/1999/xlink" width="208" height="32" viewBox="0,0,208,32"><g transform="translate(-240,-164)"><g stroke-miterlimit="10"><path d="M299.88604,184.15379h-10.25104c-1.04504,1.19817 -2.32385,2.43913 -3.83641,3.72289l9.261,-0.36373l-2.26884,-2.22518l1.01067,-1.04839c0.59127,0.5563 1.15848,1.09832 1.70163,1.62609c0.54314,0.52776 1.02098,0.99134 1.43349,1.39073c1.48506,1.45492 2.09696,2.04688 1.8357,1.77586l-1.07254,1.21956c-0.23376,-0.25675 -0.66003,-0.70606 -1.2788,-1.34794l-12.74676,0.57769l-0.39189,-1.51911c1.62257,-1.19817 3.04575,-2.46766 4.26954,-3.80847h-5.91961v-1.45492h2.72261v-11.12586h12.74676v11.12586h2.78449zM269.44232,175.01775h-2.88762l-0.02062,4.25779h3.25888v1.60469h-3.32076c-0.06876,0.75599 -0.16501,1.39786 -0.28877,1.92563c0.94879,1.09832 2.15196,2.5889 3.60952,4.47174l-1.1138,1.15537c-1.05879,-1.36934 -2.06258,-2.63169 -3.01137,-3.78707c-0.66003,1.85431 -1.8632,3.73002 -3.60952,5.62712l-1.13442,-1.24096c1.2788,-1.34081 2.23791,-2.64952 2.87731,-3.92614c0.6394,-1.27662 1.02786,-2.68518 1.16536,-4.22568h-3.89829v-1.60469h3.96016l0.02062,-4.25779h-1.38193c-0.48127,1.26949 -0.93504,2.31076 -1.36131,3.1238l-1.25817,-0.79165c0.49502,-0.99848 0.96941,-2.10037 1.42318,-3.30567c0.45377,-1.2053 0.81815,-2.33572 1.09316,-3.39125l1.42319,0.32094c-0.24751,0.89863 -0.49502,1.70454 -0.74253,2.41773h5.19771zM340.72518,173.58423l-1.71194,5.45595c0.72878,0.98421 1.23755,1.85788 1.52631,2.62099c0.28876,0.76312 0.43315,1.57259 0.43315,2.42843c0,1.21243 -0.24751,2.07541 -0.74253,2.58891c-0.49502,0.5135 -1.32693,0.77025 -2.49573,0.77025h-1.17567l-0.30939,-1.5191h1.07254c0.81128,0 1.37849,-0.15334 1.70164,-0.46001c0.32314,-0.30668 0.4847,-0.85227 0.4847,-1.63679c0,-0.68467 -0.16156,-1.3836 -0.4847,-2.0968c-0.32314,-0.7132 -0.83535,-1.50484 -1.53663,-2.37494l1.67069,-5.79828h-3.46514v16.71018h-1.46443v-18.29348h6.49713zM243.16501,190.01626h-1.54694v-9.09325h15.84064v6.63272c0,0.59909 -0.07219,1.06266 -0.21657,1.39073c-0.14438,0.32807 -0.39189,0.55986 -0.74253,0.69537c-0.35064,0.13551 -0.84222,0.20326 -1.47474,0.20326h-2.24821l-0.26814,-1.39073h1.95945c0.41252,0 0.71846,-0.03566 0.91785,-0.10698c0.19939,-0.07132 0.33689,-0.19969 0.41252,-0.38512c0.07563,-0.18543 0.11344,-0.46358 0.11344,-0.83444v-4.94244h-12.74676zM310.54959,170.6102h1.58818v4.19359h7.07466v8.8151h-7.07466v6.58993h-1.58818v-6.58993h-7.01279v-8.8151h7.01279zM272.32993,189.65253l-1.50568,-0.0214v-17.00973h7.21904v17.03112h-1.56757v-1.98982h-4.14579zM332.61922,174.58983h-1.54694c-0.16501,1.32655 -0.37814,2.57464 -0.6394,3.74428h2.78449v1.5405h-10.33354v-1.5405h2.64011c-0.26126,-1.62608 -0.50189,-2.87418 -0.7219,-3.74428h-1.40256v-1.51911h4.02204c-0.17876,-0.75599 -0.38502,-1.45492 -0.61878,-2.09679l1.52631,-0.38513c0.27501,0.85584 0.50877,1.68314 0.70128,2.48192h3.58889zM250.75531,172.53583h7.81719v1.32655h-18.06822v-1.32655h8.43596c-0.33002,-0.72746 -0.59127,-1.27662 -0.78378,-1.64748l1.60881,-0.55629c0.30251,0.61335 0.63252,1.34794 0.99004,2.20377zM255.62301,179.38251h-12.16924v-4.06521h12.16924zM325.52394,188.45436v1.43353h-1.44381v-8.06625h7.87907v6.63272zM276.47572,174.2475h-4.14579v11.81053h4.14579zM295.61649,182.69887v-2.35355h-9.75602v2.35355zM285.86047,176.68663v2.26797h9.75602v-2.26797zM245.57823,187.85528v-4.1508h7.92032v4.1508zM285.86047,175.33869h9.75602v-2.24657h-9.75602zM317.60362,176.47267h-5.46585v5.49874h5.46585zM310.54959,176.47267h-5.40397v5.49874h5.40397zM244.95946,176.55825v1.5833h9.13724v-1.5833zM325.52394,186.99944h4.99145v-3.65869h-4.99145zM247.04267,184.90265v1.73306h4.99145v-1.73306zM329.66973,174.58983h-3.40326c0.35751,1.76872 0.59815,3.01682 0.7219,3.74428h2.04195c0.24751,-1.11258 0.46064,-2.36068 0.6394,-3.74428z" fill="#ffffff" fill-rule="evenodd" stroke="#ffffff" stroke-width="0.5" stroke-linecap="round"/><path d="M240,196v-32h208v32z" fill="none" fill-rule="nonzero" stroke="none" stroke-width="0" stroke-linecap="butt"/></g></g></svg>