<svg version="1.1" xmlns="http://www.w3.org/2000/svg" xmlns:xlink="http://www.w3.org/1999/xlink" width="224" height="217.9999" viewBox="0,0,224,217.9999"><g transform="translate(-128,-181.00005)"><g stroke="none" stroke-miterlimit="10"><path d="M352,398.99995h-224v-217.9999h224z" fill="#1d2a41" fill-rule="evenodd" stroke-width="1" stroke-linecap="butt" stroke-linejoin="miter"/><path d="M342,355.00005c0.55228,0 1,0.44772 1,1c0,0.55228 -0.44772,1 -1,1h-204c-0.55228,0 -1,-0.44772 -1,-1c0,-0.55228 0.44772,-1 1,-1z" fill="#31476d" fill-rule="nonzero" stroke-width="1" stroke-linecap="round" stroke-linejoin="round"/><g fill-rule="evenodd"><path d="M336,331.00005c0.55228,0 1,0.44772 1,1c0,0.55228 -0.44772,1 -1,1h-192c-0.55228,0 -1,-0.44772 -1,-1c0,-0.55228 0.44772,-1 1,-1z" fill="#31476d" stroke-width="1" stroke-linecap="butt" stroke-linejoin="miter"/><g fill="#7d97b4"><path d="M145,332.00005c0,0.55228 -0.44772,1 -1,1c-0.55228,0 -1,-0.44772 -1,-1c0,-0.55228 0.44772,-1 1,-1c0.55228,0 1,0.44772 1,1z" stroke-width="4" stroke-linecap="round" stroke-linejoin="round"/><path d="M335,332.00005c0,-0.55228 0.44772,-1 1,-1c0.55228,0 1,0.44772 1,1c0,0.55228 -0.44772,1 -1,1c-0.55228,0 -1,-0.44772 -1,-1z" stroke-width="1" stroke-linecap="butt" stroke-linejoin="miter"/><g stroke-width="4" stroke-linecap="round" stroke-linejoin="round"><path d="M241,332.00005c0,0.55228 -0.44772,1 -1,1c-0.55228,0 -1,-0.44772 -1,-1c0,-0.55228 0.44772,-1 1,-1c0.55228,0 1,0.44772 1,1z"/><path d="M273,332.00005c0,0.55228 -0.44772,1 -1,1c-0.55228,0 -1,-0.44772 -1,-1c0,-0.55228 0.44772,-1 1,-1c0.55228,0 1,0.44772 1,1z"/><path d="M177,332.00005c0,0.55228 -0.44772,1 -1,1c-0.55228,0 -1,-0.44772 -1,-1c0,-0.55228 0.44772,-1 1,-1c0.55228,0 1,0.44772 1,1z"/></g><path d="M303,332.00005c0,-0.55228 0.44772,-1 1,-1c0.55228,0 1,0.44772 1,1c0,0.55228 -0.44772,1 -1,1c-0.55228,0 -1,-0.44772 -1,-1z" stroke-width="1" stroke-linecap="butt" stroke-linejoin="miter"/><path d="M209,332.00005c0,0.55228 -0.44772,1 -1,1c-0.55228,0 -1,-0.44772 -1,-1c0,-0.55228 0.44772,-1 1,-1c0.55228,0 1,0.44772 1,1z" stroke-width="4" stroke-linecap="round" stroke-linejoin="round"/></g></g><path d="M150.02111,369.90005c0.45457,0.009 0.85661,0.29721 1.0117,0.72461l3.2578,8.957l0.79297,-1.1914c0.20408,-0.30639 0.54789,-0.49038 0.91602,-0.49023h3v2.1992h-2.4121l-1.6719,2.5098c-0.23012,0.34513 -0.6348,0.53149 -1.04665,0.48197c-0.41184,-0.0495 -0.76082,-0.3265 -0.90256,-0.71634l-2.9219,-8.0352l-4.002,12.008c-0.14436,0.43328 -0.54142,0.73231 -0.99772,0.7514c-0.4563,0.0191 -0.87694,-0.24574 -1.05698,-0.66545l-2.7129,-6.334h-2.2754v-2.1992h3c0.4401,-0.00035 0.83804,0.26164 1.0117,0.66602l1.8594,4.3398l4.0859,-12.254c0.1522,-0.45648 0.5834,-0.76108 1.0645,-0.75195z" fill="#ffffff" fill-rule="nonzero" stroke-width="1" stroke-linecap="butt" stroke-linejoin="miter"/><g fill="#ffffff" stroke-width="1" stroke-linecap="butt" stroke-linejoin="miter"><path d="M151.8989,189.90005c3.4172,0 6.2012,2.7841 6.2012,6.2012v5.7969c0,3.4172 -2.7841,6.2012 -6.2012,6.2012h-5.7969c-3.4172,0 -6.2012,-2.7841 -6.2012,-6.2012v-5.7969c0,-3.4172 2.7841,-6.2012 6.2012,-6.2012zM142.1,196.10125v5.7969c0,2.2364 1.7656,4.002 4.002,4.002h5.7969c2.2364,0 4.002,-1.7656 4.002,-4.002v-5.7969c0,-2.2364 -1.7656,-4.002 -4.002,-4.002h-5.7969c-2.2364,0 -4.002,1.7656 -4.002,4.002z" fill-rule="evenodd"/><path d="M147.919,203.86705v-6.7749h2.1627v6.7749zM148.9873,196.18015c-0.33875,0 -0.61669,-0.10857 -0.83383,-0.32572c-0.21714,-0.21715 -0.32571,-0.49509 -0.32572,-0.83383c0,-0.33006 0.10857,-0.608 0.32572,-0.83383c0.21715,-0.23451 0.49509,-0.35177 0.83383,-0.35177c0.33006,0 0.608,0.11726 0.83383,0.35177c0.23451,0.22583 0.35177,0.50377 0.35177,0.83383c0,0.33875 -0.11726,0.61669 -0.35177,0.83383c-0.22583,0.21715 -0.50377,0.32572 -0.83383,0.32572z" fill-rule="nonzero"/></g><path d="M175.62911,191.24244h1.75385v12.20747h-1.75385v-12.20747M170.38493,198.27519l9.09917,-3.85499l0.69459,1.59757l-9.09917,3.90708l-0.69459,-1.64966M172.15614,192.90946h1.77122v11.35659c0,0.32414 0.02894,0.56957 0.08683,0.73627c0.05788,0.16902 0.17943,0.28247 0.36466,0.34035c0.18523,0.05788 0.45727,0.08683 0.81615,0.08683c0.10419,0 0.27553,0 0.514,0c0.23616,0 0.50474,0 0.80573,0c0.30099,0 0.60546,0 0.91339,0c0.30562,0 0.5823,0 0.83004,0c0.25006,0 0.43296,0 0.54873,0c0.32414,0 0.56725,-0.06135 0.72932,-0.18407c0.16207,-0.1204 0.28363,-0.34267 0.36466,-0.66681c0.08104,-0.32414 0.13892,-0.793 0.17365,-1.40655c0.20838,0.1505 0.47116,0.28942 0.78836,0.41676c0.31951,0.12734 0.60661,0.21417 0.8613,0.26047c-0.08104,0.82193 -0.21417,1.46675 -0.39939,1.93444c-0.18523,0.47001 -0.46306,0.80573 -0.83351,1.00716c-0.37045,0.20374 -0.88561,0.30562 -1.54547,0.30562c-0.11577,0 -0.3033,0 -0.56262,0c-0.26163,0 -0.5603,0 -0.89603,0c-0.33572,0 -0.66913,0 -1.00021,0c-0.32878,0 -0.62282,0 -0.88214,0c-0.26163,0 -0.44454,0 -0.54872,0c-0.7409,0 -1.32551,-0.08104 -1.75385,-0.24311c-0.42834,-0.16207 -0.72585,-0.44917 -0.89255,-0.86129c-0.16902,-0.40981 -0.25353,-0.99096 -0.25353,-1.74343v-11.33923M179.1368,194.62858h-0.13891l0.3473,-0.26048l0.3473,-0.22574l1.285,0.46885l-0.06946,0.31257c0,0.82193 -0.00232,1.57673 -0.00695,2.26438c-0.00695,0.68996 -0.01274,1.3012 -0.01737,1.83372c-0.00695,0.53252 -0.01852,0.97822 -0.03473,1.33709c-0.01853,0.35888 -0.03936,0.62513 -0.06251,0.79878c-0.03473,0.39361 -0.12734,0.69691 -0.27784,0.90992c-0.1505,0.21533 -0.36466,0.36929 -0.6425,0.46191c-0.24311,0.10419 -0.53021,0.16439 -0.8613,0.18059c-0.32878,0.01853 -0.62629,0.02778 -0.89255,0.02778c-0.02316,-0.23153 -0.07294,-0.50127 -0.14934,-0.8092c-0.07409,-0.30562 -0.15744,-0.55683 -0.25006,-0.75363c0.16207,0.01157 0.33572,0.01736 0.52095,0.01736c0.18523,0 0.31835,0 0.39939,0c0.11577,0 0.20838,-0.02662 0.27784,-0.07988c0.06946,-0.05094 0.11577,-0.15744 0.13892,-0.31951c0.02316,-0.09261 0.04052,-0.29289 0.0521,-0.60082c0.01157,-0.30562 0.01968,-0.71312 0.02431,-1.22249c0.00695,-0.50937 0.01041,-1.1264 0.01041,-1.85109c0,-0.72237 0,-1.55241 0,-2.49011M165.43596,195.32317h5.67829v1.75385h-5.67829v-1.75385M167.51974,191.46818h1.75385v11.44342h-1.75385v-11.44342M165.22758,203.05052c0.47464,-0.17365 1.028,-0.3855 1.66008,-0.63555c0.62976,-0.24774 1.29542,-0.51979 1.99696,-0.81615c0.69923,-0.29405 1.40192,-0.58578 2.10809,-0.87519l0.41675,1.64966c-0.92613,0.45148 -1.86615,0.8995 -2.82005,1.34404c-0.95622,0.44685 -1.82793,0.84972 -2.61514,1.20859zM184.43308,191.76338h12.81525v1.35446h-12.81525v-1.35446M185.19713,198.76141h12.90207v1.285h-12.90207v-1.285M186.77733,200.60208h10.3668v1.12871h-10.3668v-1.12871M185.1624,202.3212h13.59666v1.25027h-13.59666v-1.25027M185.59652,195.56628h3.66397v0.97243h-3.66397v-0.97243M185.21449,197.16385h4.06337v0.95507h-4.06337v-0.95507M192.3688,197.16385h4.11547v0.95507h-4.11547v-0.95507M192.3688,195.56628h3.69871v0.97243h-3.69871v-0.97243M189.88563,192.33642h1.84067v6.07769h-1.84067v-6.07769M183.32173,193.81243h15.07267v3.03885h-1.80594v-1.92749h-11.54761v1.92749h-1.71912v-3.03885M184.36362,198.76141h1.73648v2.39635c0,0.48621 -0.02894,1.00948 -0.08683,1.56978c-0.05788,0.56262 -0.16554,1.13334 -0.32298,1.71217c-0.15512,0.57882 -0.37508,1.13682 -0.65986,1.67397c-0.28247,0.53947 -0.64945,1.02916 -1.10093,1.46907c-0.09261,-0.11577 -0.21995,-0.25237 -0.38202,-0.40981c-0.16207,-0.15512 -0.3334,-0.30562 -0.514,-0.45148c-0.17828,-0.14355 -0.33687,-0.25006 -0.4758,-0.31951c0.54409,-0.52095 0.94349,-1.0882 1.19817,-1.70175c0.25468,-0.61355 0.41907,-1.23059 0.49317,-1.8511c0.0764,-0.61819 0.11461,-1.19354 0.11461,-1.72606v-2.36162M192.35144,202.98106c0.3473,0.56725 0.8393,1.03842 1.47601,1.4135c0.63671,0.3774 1.39729,0.6726 2.28174,0.88561c0.88676,0.21533 1.87425,0.35772 2.96244,0.42718c-0.16207,0.16207 -0.32993,0.38202 -0.50358,0.65986c-0.17365,0.27784 -0.31257,0.53252 -0.41676,0.76405c-1.19239,-0.12734 -2.25395,-0.3473 -3.18471,-0.65986c-0.93307,-0.31257 -1.73533,-0.73279 -2.40677,-1.26068c-0.67144,-0.52558 -1.22711,-1.1704 -1.66702,-1.93445l1.45865,-0.2952M196.39744,203.43255l1.37183,0.6946c-0.41675,0.27784 -0.85666,0.53483 -1.31973,0.77099c-0.46307,0.23847 -0.8856,0.44454 -1.26763,0.61819l-1.12871,-0.62514c0.25468,-0.13892 0.52326,-0.29289 0.80572,-0.46191c0.28478,-0.1667 0.56262,-0.34035 0.83352,-0.52095c0.2732,-0.17828 0.50821,-0.33687 0.70501,-0.4758M186.91625,207.46119l-0.08683,-1.21554l0.72932,-0.50358l4.79269,-0.67723c-0.0463,0.20838 -0.08683,0.44801 -0.12156,0.71891c-0.03473,0.2732 -0.05209,0.49663 -0.05209,0.67028c-1.06504,0.17365 -1.92518,0.31488 -2.58041,0.4237c-0.65292,0.11113 -1.15881,0.20144 -1.51769,0.27089c-0.35888,0.06946 -0.61935,0.12734 -0.78142,0.17364c-0.16207,0.0463 -0.28941,0.09262 -0.38202,0.13892M186.91625,207.46119c-0.0463,-0.13892 -0.11577,-0.29868 -0.20838,-0.47927c-0.09261,-0.17828 -0.19449,-0.35771 -0.30562,-0.53831c-0.10882,-0.17828 -0.20953,-0.3253 -0.30214,-0.44107c0.1968,-0.10419 0.4075,-0.28131 0.63208,-0.53136c0.2269,-0.24774 0.34035,-0.5684 0.34035,-0.96201v-1.66702l1.80594,0.03473v2.83047c0,0 -0.06598,0.04051 -0.19796,0.12155c-0.13429,0.08104 -0.29636,0.19101 -0.48621,0.32993c-0.19217,0.13892 -0.38666,0.28363 -0.58346,0.43412c-0.1968,0.1505 -0.36235,0.3033 -0.49663,0.45843c-0.13198,0.15744 -0.19796,0.29405 -0.19796,0.40981zM207.40674,201.22721h6.2687v1.3371h-6.2687v-1.3371M205.40979,192.47534h10.34944v1.35446h-10.34944v-1.35446M205.86127,194.64595h9.42911v1.26763h-9.42911v-1.26763M204.87148,196.78182h11.42606v1.35446h-11.42606v-1.35446M207.42411,203.50201h6.28607v1.31972h-6.28607v-1.31972M206.06965,198.91769h7.51897v1.37182h-5.79985v7.17168h-1.71912v-8.5435M213.29342,198.91769h1.77121v6.70282c0,0.41675 -0.05209,0.74669 -0.15628,0.9898c-0.10419,0.24311 -0.30678,0.42833 -0.60777,0.55567c-0.28941,0.12734 -0.64828,0.2049 -1.07662,0.23269c-0.42834,0.0301 -0.94349,0.03936 -1.54547,0.02778c-0.03473,-0.21995 -0.10072,-0.4839 -0.19796,-0.79183c-0.09956,-0.30562 -0.20722,-0.56841 -0.32298,-0.78836c0.38202,0.01157 0.75247,0.01968 1.11135,0.02431c0.35888,0.00695 0.59619,0.00463 0.71196,-0.00695c0.20838,0 0.31257,-0.09261 0.31257,-0.27784v-6.66809M209.59471,191.24244h1.84067v5.99086h-1.84067v-5.99086M202.07574,191.24244h1.70175v16.20138h-1.70175v-16.20138M200.6171,194.66331l1.31973,0.15628c0,0.47464 -0.03241,1.00138 -0.09724,1.5802c-0.06251,0.57882 -0.14355,1.15419 -0.24311,1.72607c-0.09724,0.5742 -0.20954,1.08704 -0.33688,1.53852l-1.37183,-0.46886c0.12734,-0.40518 0.23964,-0.87171 0.33688,-1.3996c0.09956,-0.52558 0.18407,-1.06388 0.25352,-1.61492c0.06946,-0.54873 0.11577,-1.05463 0.13892,-1.51769M203.60385,194.14237l1.18081,-0.48622c0.18523,0.39361 0.37392,0.82773 0.56609,1.30237c0.18985,0.47464 0.3311,0.86825 0.42371,1.18081l-1.2329,0.5904c-0.08104,-0.32414 -0.21417,-0.7328 -0.39939,-1.22595c-0.18523,-0.49085 -0.36466,-0.94465 -0.53831,-1.3614zM225.41407,197.8758h6.37289v1.68439h-6.37289v-1.68439M227.6715,198.8656c0.35888,1.01873 0.82541,1.98538 1.39961,2.89992c0.57188,0.91455 1.2549,1.72143 2.04905,2.42066c0.79183,0.70154 1.67397,1.2549 2.6464,1.66008c-0.13892,0.11577 -0.28941,0.26858 -0.45148,0.45844c-0.16207,0.19217 -0.31488,0.38665 -0.45843,0.58345c-0.14586,0.1968 -0.26511,0.37624 -0.35772,0.53831c-1.04189,-0.49779 -1.97033,-1.15186 -2.78532,-1.96222c-0.81731,-0.81036 -1.52927,-1.73996 -2.13588,-2.78879c-0.60892,-1.04652 -1.11598,-2.18334 -1.52116,-3.41045l1.61493,-0.39939M231.31811,197.8758h0.3473l0.3473,-0.0521l1.1808,0.36466c-0.23153,1.40077 -0.61588,2.69387 -1.15303,3.87931c-0.53947,1.18776 -1.22827,2.24122 -2.06641,3.1604c-0.84046,0.92149 -1.8453,1.68323 -3.01453,2.28521c-0.13892,-0.21995 -0.32993,-0.46653 -0.57304,-0.73974c-0.24311,-0.27089 -0.47464,-0.49316 -0.6946,-0.66681c0.81036,-0.38202 1.5339,-0.84277 2.1706,-1.38224c0.63671,-0.53715 1.19007,-1.14493 1.66008,-1.82331c0.46769,-0.67607 0.85204,-1.40771 1.15303,-2.19492c0.30099,-0.78721 0.51516,-1.60914 0.6425,-2.4658v-0.36466M230.84926,191.85021h1.91013c0,0 -0.00232,0.08914 -0.00695,0.26742c-0.00695,0.1806 -0.01621,0.32878 -0.02778,0.44454c-0.03473,1.22711 -0.10072,2.13587 -0.19796,2.72627c-0.09956,0.59041 -0.25352,0.99559 -0.46191,1.21554c-0.18523,0.20838 -0.4017,0.34961 -0.64944,0.4237c-0.25006,0.0764 -0.53137,0.13198 -0.84394,0.16671c-0.30099,0.01157 -0.6969,0.01737 -1.18775,0.01737c-0.49316,0 -1.01758,-0.01158 -1.57325,-0.03473c-0.01157,-0.23153 -0.0602,-0.49201 -0.14587,-0.78142c-0.08798,-0.28941 -0.19564,-0.5383 -0.32298,-0.74668c0.3473,0.02316 0.6807,0.04283 1.00021,0.05904c0.3172,0.01853 0.60082,0.0301 0.85088,0.03473c0.24774,0.00695 0.43528,0.01042 0.56262,0.01042c0.17365,0 0.31257,-0.00926 0.41675,-0.02778c0.10419,-0.01621 0.1968,-0.05904 0.27784,-0.1285c0.08104,-0.09261 0.14471,-0.26395 0.19101,-0.514c0.0463,-0.24774 0.08683,-0.60661 0.12156,-1.07662c0.03473,-0.46769 0.06367,-1.0662 0.08682,-1.79552v-0.26047M217.35679,200.16796c0.53252,-0.11577 1.13219,-0.25469 1.799,-0.41676c0.66449,-0.16207 1.36488,-0.33572 2.10115,-0.52094c0.73396,-0.18523 1.46559,-0.37624 2.19491,-0.57304l0.22574,1.80594c-1.00716,0.28941 -2.02589,0.57535 -3.05621,0.85782c-1.03032,0.28478 -1.9738,0.53715 -2.83047,0.75711l-0.43412,-1.91013M217.5999,194.61122h5.9214v1.80594h-5.9214v-1.80594M219.87469,191.24244h1.89277v14.08287c0,0.49779 -0.0602,0.88214 -0.1806,1.15303c-0.12271,0.2732 -0.33456,0.47927 -0.63555,0.61819c-0.30099,0.1505 -0.68534,0.24542 -1.15303,0.28478c-0.47001,0.04167 -1.05231,0.06251 -1.7469,0.06251c-0.03473,-0.24311 -0.1065,-0.53831 -0.21533,-0.8856c-0.11113,-0.3473 -0.23037,-0.64249 -0.35771,-0.8856c0.42834,0.01157 0.83699,0.01736 1.22596,0.01736c0.38665,0 0.64365,0 0.77099,0c0.1505,0 0.25469,-0.02662 0.31257,-0.07988c0.05788,-0.05094 0.08682,-0.15166 0.08682,-0.30215v-14.06551M224.09434,191.85021h7.32796v1.73648h-5.48729v13.80504h-1.84068zM235.46831,192.11068h15.12477v1.71912h-15.12477v-1.71912M241.80647,192.96156l2.13587,0.27784c-0.21995,0.55568 -0.45959,1.09977 -0.71891,1.63229c-0.26163,0.53252 -0.50242,0.9898 -0.72237,1.37182l-1.61493,-0.32993c0.11577,-0.27784 0.235,-0.59041 0.35771,-0.9377c0.1204,-0.3473 0.23037,-0.69807 0.32993,-1.05231c0.09724,-0.35193 0.17481,-0.6726 0.23269,-0.96201M242.03221,198.08418h1.94486v3.1604c0,0.48621 -0.06367,0.96896 -0.19101,1.44823c-0.12734,0.48158 -0.35308,0.94812 -0.67722,1.39961c-0.32414,0.45148 -0.77795,0.88213 -1.36141,1.29194c-0.58578,0.41213 -1.33593,0.79184 -2.25048,1.13914c-0.91455,0.3473 -2.0259,0.66565 -3.33405,0.95506c-0.06946,-0.13892 -0.16786,-0.30099 -0.2952,-0.48621c-0.12734,-0.18523 -0.26626,-0.37393 -0.41675,-0.5661c-0.1505,-0.18985 -0.2952,-0.34266 -0.43412,-0.45843c1.22711,-0.23153 2.25511,-0.48969 3.08399,-0.77447c0.82656,-0.28247 1.50379,-0.58345 2.03169,-0.90297c0.52558,-0.3172 0.92497,-0.64713 1.19817,-0.9898c0.27089,-0.34035 0.45612,-0.68765 0.55568,-1.04189c0.09724,-0.35193 0.14586,-0.70154 0.14586,-1.04884v-3.12567M243.61241,204.23133l1.05925,-1.26763c0.48621,0.1968 1.00716,0.42254 1.56284,0.67723c0.55568,0.25468 1.11482,0.52094 1.67744,0.79878c0.5603,0.27784 1.08357,0.55221 1.56978,0.8231c0.48621,0.2732 0.90297,0.52558 1.25027,0.7571l-1.16344,1.47601c-0.31257,-0.24311 -0.7027,-0.50705 -1.17039,-0.79184c-0.47001,-0.28247 -0.97938,-0.57188 -1.52811,-0.86824c-0.55104,-0.29405 -1.1044,-0.57999 -1.66008,-0.85782c-0.55568,-0.27784 -1.08819,-0.52674 -1.59756,-0.74669M236.96168,195.54892h12.22484v8.03992h-1.99696v-6.3208h-8.31775v6.3729h-1.91013z" fill="#ffffff" fill-rule="nonzero" stroke-width="1" stroke-linecap="butt" stroke-linejoin="miter"/><path d="M144.26034,234.45507v1.22738h7.34837v-1.22738h-7.34837M144.26034,231.96842v1.22738h7.34837v-1.22738h-7.34837M142.58664,230.64539h10.77549v6.37603h-10.77549v-6.37603M140.51442,242.42511h14.88803v1.62589h-14.88802v-1.62589M145.29645,237.56338h1.62589v5.75436h-1.62589v-5.75436M148.91484,237.56338h1.62589v5.75436h-1.62589v-5.75436M152.86798,237.91406l1.45055,0.65355c-0.30818,0.55259 -0.65035,1.11049 -1.02654,1.67371c-0.37831,0.56322 -0.73218,1.04673 -1.06161,1.45055l-1.30709,-0.60573c0.22316,-0.28692 0.45482,-0.61103 0.69499,-0.97234c0.23804,-0.36131 0.47182,-0.73324 0.70136,-1.1158c0.22741,-0.38256 0.41019,-0.74387 0.54834,-1.08393M141.72587,238.59949l1.32303,-0.57384c0.19128,0.32943 0.39319,0.68223 0.60573,1.05842c0.21254,0.37831 0.41125,0.74281 0.59616,1.09349c0.18703,0.35068 0.33368,0.65885 0.43995,0.92452l-1.38679,0.66949c-0.10627,-0.2763 -0.24653,-0.59829 -0.42082,-0.96597c-0.1764,-0.36556 -0.36343,-0.74281 -0.56109,-1.13174c-0.19553,-0.38682 -0.39425,-0.74493 -0.59616,-1.07436zM163.00587,235.76215h1.88093v6.96581c0,0.48883 -0.06589,0.8682 -0.19765,1.13812c-0.13389,0.27204 -0.37619,0.47714 -0.72687,0.61529c-0.35068,0.12752 -0.78107,0.20935 -1.29115,0.24548c-0.51008,0.03825 -1.1158,0.05739 -1.81717,0.05739c-0.04251,-0.26567 -0.12221,-0.57172 -0.2391,-0.91815c-0.11689,-0.3443 -0.2391,-0.64398 -0.36662,-0.89902c0.3188,0.01063 0.63972,0.02125 0.96278,0.03188c0.32518,0.01063 0.61529,0.01275 0.87033,0.00637c0.25504,-0.00425 0.43038,-0.00637 0.52602,-0.00637c0.14878,0 0.25292,-0.02125 0.31243,-0.06376c0.05739,-0.04251 0.08607,-0.12221 0.08607,-0.2391v-6.93393M159.24401,237.80248l1.78528,0.46227c-0.23379,0.63761 -0.5207,1.26671 -0.86076,1.8873c-0.34006,0.62273 -0.70136,1.20507 -1.08392,1.74703c-0.38256,0.54196 -0.77043,1.01485 -1.16362,1.41866c-0.11689,-0.10627 -0.27311,-0.22316 -0.46864,-0.35068c-0.19765,-0.12752 -0.39532,-0.25504 -0.59297,-0.38256c-0.19553,-0.12752 -0.36768,-0.22316 -0.51646,-0.28692c0.59509,-0.54196 1.15088,-1.21676 1.66734,-2.02438c0.51433,-0.80763 0.92558,-1.63121 1.23376,-2.47072M166.68803,238.42415l1.594,-0.66948c0.37194,0.49946 0.73643,1.0361 1.09349,1.60995c0.35494,0.57385 0.67905,1.13918 0.97235,1.69602c0.29118,0.55897 0.51114,1.06692 0.65992,1.52388l-1.76935,0.76512c-0.11689,-0.4357 -0.3103,-0.93834 -0.58022,-1.50793c-0.27204,-0.56746 -0.58022,-1.15193 -0.92453,-1.7534c-0.34643,-0.59934 -0.69498,-1.15407 -1.04566,-1.66415M158.25573,230.96419h11.28557v1.70559h-11.28557v-1.70559M156.82112,234.82169h14.18667v1.70558h-14.18667zM172.77713,232.17564h14.15479v1.64183h-14.15479v-1.64183M177.90984,237.32428h8.36854v1.57807h-8.36854v-1.57807M177.28817,242.79173h9.59592v1.59401h-9.59592v-1.59401M181.25725,234.55071h1.72153v9.10179h-1.72153v-9.10179M177.86202,229.89621l1.78528,0.41445c-0.38256,1.26458 -0.86927,2.51003 -1.46011,3.73635c-0.58872,1.22845 -1.29752,2.37401 -2.1264,3.43668c-0.82889,1.06267 -1.80123,1.98189 -2.91703,2.75763c-0.05313,-0.1594 -0.12965,-0.34006 -0.22953,-0.54197c-0.10201,-0.20191 -0.20616,-0.40169 -0.31243,-0.59934c-0.10627,-0.19553 -0.2019,-0.36237 -0.28692,-0.50052c0.72261,-0.46758 1.37615,-1.03398 1.96062,-1.69921c0.58447,-0.66311 1.1073,-1.38254 1.5685,-2.15829c0.46332,-0.77575 0.86183,-1.57594 1.1955,-2.40058c0.3358,-0.82251 0.60998,-1.63758 0.82251,-2.44521M174.68994,236.54322h1.72152v8.1932h-1.72152zM197.73929,229.89621h1.60995v11.20587h-1.60995v-11.20587M192.92538,236.35194l8.3526,-3.5387l0.6376,1.46649l-8.3526,3.58651l-0.63761,-1.5143M194.55127,231.42646h1.62589v10.42481c0,0.29755 0.02657,0.52283 0.0797,0.67586c0.05313,0.15515 0.16472,0.25929 0.33474,0.31242c0.17003,0.05313 0.41975,0.0797 0.74918,0.0797c0.09564,0 0.25186,0 0.46864,0c0.21891,0 0.46651,0 0.74281,0c0.2763,0 0.55578,0 0.83845,0c0.28054,0 0.53453,0 0.76194,0c0.22953,0 0.39744,0 0.5037,0c0.29755,0 0.52071,-0.05632 0.66948,-0.16897c0.14878,-0.11051 0.26035,-0.31455 0.33474,-0.6121c0.07439,-0.29755 0.12752,-0.72793 0.1594,-1.29115c0.19128,0.13815 0.4325,0.26567 0.72368,0.38256c0.2933,0.11689 0.55684,0.1966 0.79063,0.2391c-0.07439,0.75449 -0.1966,1.3464 -0.36662,1.77572c-0.17003,0.43144 -0.42506,0.73962 -0.76512,0.92452c-0.34006,0.18703 -0.81294,0.28055 -1.41867,0.28055c-0.10627,0 -0.27841,0 -0.51646,0c-0.24016,0 -0.51433,0 -0.82251,0c-0.30818,0 -0.61422,0 -0.91815,0c-0.3018,0 -0.57171,0 -0.80975,0c-0.24016,0 -0.40807,0 -0.50371,0c-0.68011,0 -1.21675,-0.07439 -1.60994,-0.22316c-0.39319,-0.14878 -0.66736,-0.41232 -0.82251,-0.79063c-0.15303,-0.37618 -0.22953,-0.90965 -0.22953,-1.60038v-10.40887M200.95918,233.00452h-0.12752l0.3188,-0.2391l0.3188,-0.20722l1.17956,0.43038l-0.06376,0.28692c0,0.75449 -0.00212,1.44736 -0.00637,2.07859c-0.00637,0.63335 -0.01169,1.19444 -0.01594,1.68327c-0.00637,0.48883 -0.01701,0.89795 -0.03188,1.22738c-0.01701,0.32943 -0.03613,0.57384 -0.05738,0.73324c-0.03188,0.36131 -0.11689,0.63973 -0.25504,0.83526c-0.13815,0.19765 -0.33474,0.339 -0.58979,0.42401c-0.22316,0.09564 -0.4867,0.1509 -0.79063,0.16577c-0.3018,0.01701 -0.57491,0.02551 -0.81932,0.02551c-0.02125,-0.21254 -0.06695,-0.46014 -0.13708,-0.74281c-0.06801,-0.28054 -0.14453,-0.51114 -0.22954,-0.6918c0.14878,0.01063 0.30818,0.01594 0.47821,0.01594c0.17003,0 0.29223,0 0.36662,0c0.10627,0 0.19128,-0.02444 0.25504,-0.07332c0.06376,-0.04675 0.10627,-0.14452 0.12752,-0.2933c0.02125,-0.08501 0.03719,-0.26886 0.04782,-0.55152c0.01063,-0.28054 0.01806,-0.65461 0.02231,-1.12218c0.00637,-0.46758 0.00957,-1.03398 0.00957,-1.69921c0,-0.66311 0,-1.42504 0,-2.28581M188.38246,233.64213h5.2124v1.60994h-5.2124v-1.60994M190.29527,230.10343h1.60995v10.50451h-1.60995v-10.50451M188.19118,240.73546c0.4357,-0.1594 0.94259,-0.35387 1.52068,-0.5834c0.58022,-0.22741 1.19125,-0.47714 1.83311,-0.74918c0.64398,-0.26992 1.29008,-0.53771 1.93831,-0.80338l0.38256,1.51431c-0.85013,0.41444 -1.71409,0.8257 -2.59186,1.23377c-0.87564,0.41019 -1.67477,0.78 -2.39738,1.10943zM204.9442,230.53381h13.565v14.25043h-1.72153v-12.70424h-10.20164v12.70424h-1.64183v-14.25043M205.94842,242.68015h11.77972v1.49837h-11.77972v-1.49837M209.53494,239.07769l0.68543,-0.97234c0.44632,0.08501 0.91177,0.19341 1.39635,0.32518c0.48245,0.13389 0.94684,0.27523 1.39316,0.424c0.44632,0.14878 0.82888,0.29755 1.14768,0.44633l-0.70136,1.06798c-0.30818,-0.14878 -0.68543,-0.30606 -1.13174,-0.47183c-0.44632,-0.16365 -0.91389,-0.31773 -1.40273,-0.46226c-0.48883,-0.14239 -0.9511,-0.26142 -1.38679,-0.35706M210.26818,232.12782l1.38679,0.47821c-0.29755,0.46758 -0.65354,0.92983 -1.06798,1.38678c-0.41444,0.45695 -0.84801,0.88201 -1.30071,1.2752c-0.45057,0.39319 -0.89902,0.73856 -1.34534,1.03611c-0.07439,-0.09564 -0.18384,-0.20722 -0.32837,-0.33474c-0.14239,-0.12752 -0.2848,-0.25504 -0.42719,-0.38256c-0.14452,-0.12752 -0.27523,-0.22847 -0.39212,-0.30286c0.66949,-0.38256 1.31771,-0.85332 1.94469,-1.41229c0.62697,-0.55684 1.13706,-1.13812 1.53025,-1.74384M214.4923,233.38708h0.28692l0.2391,-0.06376l0.95641,0.57385c-0.41444,0.64823 -0.94365,1.24545 -1.58763,1.79166c-0.64185,0.54834 -1.35065,1.03717 -2.1264,1.46649c-0.77575,0.43144 -1.58338,0.80338 -2.42289,1.1158c-0.83951,0.31455 -1.67902,0.57278 -2.51853,0.77469c-0.05313,-0.12752 -0.12221,-0.28161 -0.20722,-0.46226c-0.08501,-0.18066 -0.17747,-0.35387 -0.27735,-0.51964c-0.10201,-0.16365 -0.20084,-0.29861 -0.29648,-0.40488c0.78637,-0.14878 1.58338,-0.35068 2.39101,-0.60572c0.80763,-0.25504 1.57276,-0.5579 2.29537,-0.90858c0.72261,-0.35068 1.36873,-0.73855 1.93832,-1.16362c0.56746,-0.42507 1.0106,-0.88201 1.3294,-1.37085v-0.22316M209.8378,234.43913c0.46758,0.49946 1.0733,0.95322 1.81717,1.36129c0.74387,0.41019 1.56531,0.76937 2.46434,1.07755c0.8969,0.30818 1.81292,0.54196 2.74807,0.70136c-0.1594,0.14878 -0.33156,0.3475 -0.51646,0.59616c-0.18703,0.25079 -0.33367,0.47714 -0.43994,0.67905c-0.94577,-0.21254 -1.87562,-0.50264 -2.78951,-0.87033c-0.91389,-0.36556 -1.76085,-0.80125 -2.54085,-1.30709c-0.78213,-0.5037 -1.44417,-1.06373 -1.98613,-1.68008l1.24332,-0.55791M210.20442,233.38708h4.76608v1.2752h-5.65872l0.89264,-1.2752M208.03657,241.11802l0.76512,-1.1158c0.54196,0.05313 1.10836,0.12965 1.69921,0.22954c0.58872,0.10201 1.17532,0.21359 1.75979,0.33474c0.58447,0.12327 1.13705,0.25397 1.65776,0.39212c0.52071,0.13815 0.98298,0.2763 1.38679,0.41445l-0.74919,1.21144c-0.52071,-0.19128 -1.15088,-0.38256 -1.8905,-0.57384c-0.73749,-0.19128 -1.51005,-0.36662 -2.31768,-0.52602c-0.80763,-0.1594 -1.57806,-0.28161 -2.31131,-0.36662zM227.19654,234.78981h6.61513v1.72152h-6.61513v-1.72152M220.42201,242.28164h14.48952v1.72153h-14.48952v-1.72153M226.2242,230.10343h1.8331v13.11868h-1.8331zM237.86045,232.4785h4.87767v10.64797h-4.87767v-1.51431h3.31554v-7.6353h-3.31554v-1.49836M236.85622,232.4785h1.56213v11.85941h-1.56213v-11.85941M237.78075,236.78232h4.1763v1.48243h-4.1763v-1.48243M239.16753,229.88027l1.86499,0.28692c-0.17003,0.52071 -0.35068,1.04354 -0.54197,1.5685c-0.19128,0.52708 -0.36662,0.9766 -0.52602,1.34853l-1.37085,-0.3188c0.07439,-0.26567 0.15196,-0.56853 0.23272,-0.90858c0.07863,-0.34006 0.14983,-0.6833 0.21359,-1.02973c0.06376,-0.3443 0.10627,-0.65992 0.12752,-0.94684M244.89002,232.38286h4.73421v1.56213h-4.73421v-1.56213M249.0185,232.38286h1.59401c0,0 0,0.04995 0,0.14984c0,0.10201 0,0.21359 0,0.33474c0,0.12327 -0.00531,0.22209 -0.01594,0.29648c-0.05313,1.80654 -0.1084,3.33679 -0.16578,4.59074c-0.05951,1.25395 -0.12858,2.28474 -0.20722,3.09237c-0.08077,0.80763 -0.17428,1.43673 -0.28055,1.8873c-0.10627,0.4527 -0.24441,0.78531 -0.41444,0.99785c-0.21254,0.28692 -0.43039,0.48351 -0.65355,0.58978c-0.22316,0.10627 -0.49414,0.18597 -0.81294,0.2391c-0.28692,0.03188 -0.65355,0.04782 -1.09987,0.04782c-0.44632,0 -0.90327,-0.01063 -1.37085,-0.03188c-0.01063,-0.23379 -0.06589,-0.51008 -0.16577,-0.82888c-0.10201,-0.3188 -0.23803,-0.59509 -0.40806,-0.82888c0.52071,0.04251 0.99891,0.06907 1.43461,0.0797c0.4357,0.01063 0.75449,0.01594 0.9564,0.01594c0.1594,0 0.29011,-0.01913 0.39213,-0.05739c0.09989,-0.03613 0.20297,-0.10733 0.30924,-0.21359c0.12752,-0.14878 0.2391,-0.43888 0.33474,-0.87033c0.09564,-0.42932 0.17534,-1.03717 0.2391,-1.82354c0.06376,-0.78637 0.1254,-1.78529 0.18491,-2.99673c0.05739,-1.21144 0.10733,-2.65668 0.14983,-4.3357v-0.33474M245.01754,229.88027l1.64183,0.38256c-0.20191,0.78637 -0.44314,1.56425 -0.72368,2.33363c-0.28267,0.7715 -0.59403,1.4973 -0.93409,2.17741c-0.34006,0.68011 -0.69073,1.2752 -1.05204,1.78528c-0.10627,-0.09564 -0.24442,-0.20722 -0.41445,-0.33474c-0.17003,-0.12752 -0.34537,-0.25292 -0.52602,-0.37618c-0.18066,-0.12115 -0.33474,-0.2136 -0.46226,-0.27736c0.35068,-0.45695 0.6833,-0.99147 0.99785,-1.60357c0.31242,-0.60997 0.59403,-1.26564 0.84482,-1.96701c0.24866,-0.70137 0.45801,-1.40804 0.62804,-2.12003M244.25242,236.84608l1.33896,-0.74918c0.26567,0.36131 0.55259,0.76193 0.86077,1.20188c0.30818,0.44207 0.59828,0.86714 0.87033,1.2752c0.26992,0.41019 0.48458,0.77469 0.64398,1.09349l-1.45055,0.89265c-0.14878,-0.32943 -0.35068,-0.70667 -0.60573,-1.13174c-0.25504,-0.42507 -0.52814,-0.86395 -0.81932,-1.31665c-0.2933,-0.45057 -0.57277,-0.87246 -0.83844,-1.26565zM257.67395,234.78981h7.95409v1.35491h-7.95409v-1.35491M257.67395,237.10112h7.95409v1.35491h-7.95409v-1.35491M258.4869,242.85549h6.32821v1.37085h-6.32821v-1.37085M256.54221,232.43068h10.28134v1.38679h-10.28134v-1.38679M257.4508,239.47619h8.36853v5.22835h-1.5143v-3.8575h-5.40368v3.90532h-1.45054v-5.27617M260.17654,230.42223l1.45055,-0.55791c0.22316,0.32943 0.4442,0.69074 0.66311,1.08393c0.21679,0.39319 0.38362,0.73855 0.50052,1.0361l-1.49837,0.65354c-0.10627,-0.29755 -0.26779,-0.65354 -0.48458,-1.06798c-0.21891,-0.41444 -0.42932,-0.797 -0.63123,-1.14768M255.41047,229.95997l1.51431,0.46227c-0.30818,0.89264 -0.6748,1.78529 -1.09987,2.67793c-0.42507,0.89264 -0.88945,1.73216 -1.39316,2.51853c-0.50583,0.78637 -1.02442,1.48774 -1.55575,2.10409c-0.05313,-0.13815 -0.12965,-0.31136 -0.22954,-0.51965c-0.10201,-0.20616 -0.21359,-0.4155 -0.33474,-0.62804c-0.12327,-0.21254 -0.23272,-0.38787 -0.32836,-0.52602c0.45695,-0.48883 0.89795,-1.06268 1.32303,-1.72153c0.42507,-0.65885 0.81825,-1.36022 1.17956,-2.10409c0.36131,-0.74387 0.66948,-1.49837 0.92452,-2.26349M254.13526,234.31161l1.56213,-1.56213v0.01594v12.06664h-1.56213zM272.09972,234.75793v0.89264h6.63107v-0.89264h-6.63107M272.09972,236.8939v0.89264h6.63107v-0.89264h-6.63107M272.09972,232.6379v0.89264h6.63107v-0.89264h-6.63107M270.4579,231.33081h9.99442v7.77876h-9.99442v-7.77876M274.61825,229.73681l2.05627,0.27098c-0.17003,0.36131 -0.35068,0.70667 -0.54196,1.0361c-0.19128,0.32943 -0.36131,0.61635 -0.51009,0.86077l-1.56212,-0.3188c0.10627,-0.28692 0.21253,-0.60041 0.3188,-0.94046c0.10627,-0.34006 0.18597,-0.64292 0.2391,-0.90859M271.5737,240.11379h1.72153v2.29538c0,0.23379 0.06907,0.38256 0.20722,0.44632c0.13815,0.06376 0.44632,0.09564 0.92452,0.09564c0.08501,0 0.22104,0 0.40807,0c0.18491,0 0.39956,0 0.64398,0c0.24442,0 0.48883,0 0.73325,0c0.24442,0 0.46757,0 0.66948,0c0.20191,0 0.36131,0 0.47821,0c0.26567,0 0.46545,-0.04038 0.59935,-0.12115c0.13177,-0.07863 0.22422,-0.24548 0.27736,-0.50052c0.05313,-0.25504 0.09564,-0.63761 0.12752,-1.14768c0.12752,0.09564 0.2848,0.18278 0.47183,0.26142c0.18491,0.08077 0.37619,0.15303 0.57384,0.21679c0.19553,0.06376 0.373,0.11158 0.5324,0.14346c-0.07439,0.72261 -0.1934,1.28051 -0.35706,1.6737c-0.16577,0.39319 -0.41019,0.66099 -0.73324,0.80338c-0.32518,0.14452 -0.78,0.21679 -1.36447,0.21679c-0.09564,0 -0.25185,0 -0.46864,0c-0.21891,0 -0.46332,0 -0.73324,0c-0.27204,0 -0.54622,0 -0.82251,0c-0.2763,0 -0.52283,0 -0.73962,0c-0.21891,0 -0.37087,0 -0.45589,0c-0.71199,0 -1.26457,-0.06164 -1.65776,-0.18491c-0.39319,-0.12115 -0.66417,-0.33367 -0.81295,-0.6376c-0.14878,-0.3018 -0.22316,-0.71305 -0.22316,-1.23376v-2.32725M274.12411,239.60371l1.30709,-0.73324c0.26567,0.23379 0.53453,0.49414 0.80657,0.78106c0.26992,0.28692 0.51433,0.57385 0.73324,0.86077c0.21679,0.28692 0.38894,0.55259 0.51646,0.797l-1.38678,0.82888c-0.11689,-0.24442 -0.28161,-0.51539 -0.49415,-0.81294c-0.21254,-0.29755 -0.44845,-0.59829 -0.70774,-0.90221c-0.26141,-0.3018 -0.51965,-0.57491 -0.77469,-0.81932M279.43216,240.2732l1.53024,-0.63761c0.23379,0.34006 0.47077,0.71199 0.71093,1.1158c0.23804,0.40382 0.45269,0.79701 0.64397,1.17957c0.19128,0.38256 0.32943,0.73324 0.41445,1.05204l-1.62589,0.7173c-0.07439,-0.3188 -0.19871,-0.67479 -0.373,-1.06798c-0.1764,-0.39319 -0.37831,-0.797 -0.60573,-1.21144c-0.22953,-0.41444 -0.46119,-0.797 -0.69498,-1.14768M269.61307,239.92251l1.5143,0.63761c-0.13815,0.35068 -0.28692,0.73536 -0.44632,1.15406c-0.1594,0.42082 -0.32624,0.82782 -0.50052,1.22101c-0.1764,0.39319 -0.35493,0.74918 -0.53559,1.06798l-1.59401,-0.74918c0.20191,-0.29755 0.3985,-0.63761 0.58978,-1.02017c0.19128,-0.38256 0.37193,-0.77363 0.54196,-1.17319c0.17003,-0.39744 0.31349,-0.77681 0.43039,-1.13812z" fill="#ffffff" fill-rule="nonzero" stroke-width="1" stroke-linecap="butt" stroke-linejoin="miter"/><path d="M140.1952,308.51349c-0.02817,-0.09292 -0.06572,-0.22197 -0.11267,-0.38716c-0.04695,-0.16519 -0.09859,-0.33864 -0.15493,-0.52035c-0.05634,-0.17964 -0.11268,-0.33141 -0.16902,-0.45531c0.15963,-0.04129 0.31738,-0.14763 0.47325,-0.31901c0.154,-0.16932 0.33428,-0.39335 0.54086,-0.67211c0.10329,-0.14454 0.25165,-0.37477 0.44509,-0.6907c0.19155,-0.31385 0.40752,-0.69069 0.6479,-1.13051c0.2385,-0.43775 0.47701,-0.90956 0.71551,-1.41546c0.24038,-0.5059 0.45917,-1.01178 0.65636,-1.51767l1.16904,0.75884c-0.46949,1.00146 -0.99251,1.99466 -1.56905,2.97959c-0.57842,0.98701 -1.16341,1.85217 -1.75498,2.59553v0.04646c0,0 -0.04507,0.02271 -0.13521,0.06813c-0.08827,0.0475 -0.19343,0.10944 -0.3155,0.18584c-0.12207,0.07846 -0.22536,0.159 -0.30987,0.24159c-0.08451,0.08259 -0.12677,0.16003 -0.12677,0.2323M140.1952,308.51349l-0.11267,-1.2699l0.56339,-0.48008l3.11276,-0.75883c-0.00939,0.19616 -0.01127,0.42329 -0.00564,0.6814c0.00376,0.25811 0.01503,0.46976 0.03381,0.63495c-0.70424,0.19616 -1.27702,0.35825 -1.71835,0.48627c-0.44133,0.13009 -0.78688,0.2385 -1.03665,0.32522c-0.24789,0.08879 -0.43287,0.16106 -0.55495,0.21681c-0.12207,0.05782 -0.21597,0.11253 -0.2817,0.16416M140.09661,304.75028c-0.02817,-0.10324 -0.06855,-0.24263 -0.12113,-0.41814c-0.0507,-0.17551 -0.10704,-0.35928 -0.16902,-0.55131c-0.06009,-0.18997 -0.11831,-0.35206 -0.17465,-0.48628c0.14085,-0.04129 0.2723,-0.14247 0.39437,-0.30354c0.12207,-0.159 0.25353,-0.36754 0.39438,-0.62565c0.07512,-0.13421 0.18028,-0.34587 0.3155,-0.63495c0.13709,-0.28908 0.28826,-0.63288 0.45353,-1.03139c0.16339,-0.39646 0.32489,-0.82181 0.48452,-1.27608c0.15963,-0.45427 0.30048,-0.90854 0.42255,-1.36281l1.32397,0.66591c-0.21597,0.60913 -0.46198,1.2255 -0.73804,1.84909c-0.27794,0.62565 -0.56997,1.22445 -0.87608,1.79642c-0.30423,0.57403 -0.61598,1.09334 -0.93523,1.55793v0.04647c0,0 -0.03756,0.0258 -0.11268,0.07743c-0.07512,0.05163 -0.16714,0.11873 -0.27606,0.20132c-0.10704,0.08259 -0.19813,0.16726 -0.27325,0.25398c-0.07512,0.08879 -0.11268,0.16931 -0.11268,0.24158M140.09661,304.75028l-0.04225,-1.13051l0.61973,-0.46459l2.324,-0.18584c-0.02817,0.19616 -0.05633,0.42019 -0.0845,0.67211c-0.02817,0.25398 -0.04226,0.46357 -0.04226,0.62876c-0.52584,0.05163 -0.95495,0.10014 -1.28735,0.14557c-0.33428,0.0475 -0.5972,0.08879 -0.78876,0.12389c-0.19343,0.03717 -0.34179,0.0733 -0.44508,0.1084c-0.10329,0.03717 -0.1878,0.07124 -0.25353,0.10221M139.74449,310.20151c0.54461,-0.18584 1.20191,-0.43155 1.97188,-0.73715c0.76997,-0.30354 1.55402,-0.61533 2.35217,-0.93538l0.25353,1.36281c-0.72302,0.33038 -1.45543,0.65765 -2.19724,0.98184c-0.7418,0.32624 -1.41788,0.62359 -2.02822,0.89202l-0.35212,-1.56413M149.02641,302.93837l1.493,0.27876c-0.12207,0.49556 -0.24413,0.99113 -0.36621,1.4867c-0.12207,0.49556 -0.23475,0.91886 -0.33803,1.26988l-1.23947,-0.27876c0.06573,-0.25811 0.12677,-0.54718 0.18311,-0.86723c0.05634,-0.32006 0.1108,-0.64836 0.16339,-0.98494c0.0507,-0.3345 0.08544,-0.63599 0.10422,-0.90442M144.43475,299.51587h8.29598v2.52428h-1.43666v-1.14599h-5.49309v1.3628h-1.36623v-2.74109M145.78689,301.73042l1.29581,0.34071c-0.1784,0.66075 -0.39908,1.337 -0.66199,2.02872c-0.26291,0.69173 -0.56058,1.34938 -0.89299,1.97297c-0.33428,0.62565 -0.7033,1.18111 -1.10706,1.66635c-0.08451,-0.15486 -0.20189,-0.34587 -0.35213,-0.573c-0.15024,-0.22713 -0.2817,-0.40781 -0.39438,-0.54202c0.33803,-0.42329 0.6432,-0.9137 0.91551,-1.47121c0.27231,-0.55751 0.51175,-1.1336 0.71833,-1.72828c0.20658,-0.59262 0.36621,-1.15736 0.47888,-1.69422M147.09679,302.39635h5.46492v1.33184h-5.46492v-1.33184M147.91371,307.72368h3.67615v1.28538h-3.67615v-1.28538M147.26581,304.96709h5.09871v7.46446h-1.33806v-6.14811h-2.47893v6.22555h-1.28172v-7.5419M145.11082,304.96709l1.19721,-1.31634l0.07042,0.04646v8.81178h-1.26764v-7.5419M147.43482,298.44731l1.2958,-0.46459c0.15963,0.27876 0.31456,0.58332 0.4648,0.9137c0.15024,0.33038 0.27231,0.6143 0.36621,0.85175l-1.36623,0.52654c-0.06573,-0.24779 -0.17371,-0.54512 -0.32395,-0.89202c-0.15024,-0.34483 -0.29578,-0.65662 -0.43663,-0.93538M147.92779,310.55769h3.66206v1.30086h-3.66206zM156.08292,298.40084l1.33806,-0.37167c0.13145,0.32006 0.26292,0.67314 0.39437,1.05927c0.13145,0.38819 0.23475,0.72167 0.30987,1.00043l-1.40849,0.4491c-0.04695,-0.28908 -0.13333,-0.63494 -0.25916,-1.03759c-0.1277,-0.40265 -0.25259,-0.76917 -0.37466,-1.09954M153.88569,300.47603h6.25368v1.54865h-6.25368v-1.54865M156.23786,303.69721h2.45076v1.51767h-2.45076v-1.51767M158.19565,303.69721h1.43665c0,0 0,0.04336 0,0.13009c0,0.08879 0,0.18481 0,0.28805c0,0.10324 -0.00469,0.191 -0.01408,0.26327c-0.01878,1.24924 -0.04038,2.30954 -0.0648,3.18091c-0.02254,0.87343 -0.05258,1.59407 -0.09014,2.16191c-0.03756,0.56784 -0.08451,1.01177 -0.14085,1.33183c-0.05634,0.32006 -0.13146,0.55235 -0.22536,0.69689c-0.13145,0.20648 -0.26762,0.35309 -0.40847,0.43982c-0.14085,0.08879 -0.31456,0.14867 -0.52114,0.17964c-0.16902,0.03098 -0.38968,0.05162 -0.66199,0.06194c-0.27231,0.01033 -0.5587,0.00517 -0.85917,-0.01548c-0.00939,-0.21681 -0.04883,-0.46975 -0.11831,-0.75883c-0.07136,-0.28908 -0.15869,-0.54203 -0.26198,-0.75884c0.24414,0.02065 0.46761,0.03614 0.67044,0.04647c0.20094,0.01033 0.35776,0.01548 0.47044,0.01548c0.0939,0 0.17371,-0.01548 0.23944,-0.04645c0.06573,-0.03098 0.12207,-0.09292 0.16902,-0.18584c0.05634,-0.09292 0.10611,-0.2736 0.1493,-0.54203c0.04131,-0.26843 0.07606,-0.66075 0.10423,-1.17696c0.02817,-0.51621 0.05165,-1.18213 0.07043,-1.99775c0.01878,-0.81562 0.03756,-1.81191 0.05634,-2.98888v-0.32522M161.53376,300.90965h5.43676v1.54864h-5.43676v-1.54864M161.73095,298.06015l1.54933,0.27875c-0.15963,1.03243 -0.3662,2.03906 -0.61973,3.01986c-0.25353,0.9808 -0.55588,1.88934 -0.90706,2.72561c-0.35306,0.83627 -0.75495,1.5693 -1.20566,2.19907c-0.06573,-0.11357 -0.16902,-0.25295 -0.30987,-0.41814c-0.14085,-0.16519 -0.28357,-0.33038 -0.42818,-0.49557c-0.14649,-0.16519 -0.27607,-0.2994 -0.38874,-0.40265c0.40376,-0.52654 0.75307,-1.15632 1.04792,-1.88934c0.29672,-0.73302 0.55119,-1.52592 0.7634,-2.37871c0.21033,-0.85072 0.37653,-1.73035 0.4986,-2.63889M164.49158,301.82334l1.49299,0.17035c-0.22536,1.7448 -0.56151,3.28829 -1.00847,4.63045c-0.44508,1.34215 -1.04791,2.50365 -1.80849,3.48445c-0.76058,0.9808 -1.72304,1.80159 -2.88739,2.46234c-0.04695,-0.12389 -0.12207,-0.27669 -0.22536,-0.4584c-0.10329,-0.17964 -0.21128,-0.36238 -0.32396,-0.54822c-0.11267,-0.18584 -0.21597,-0.33553 -0.30987,-0.4491c1.07984,-0.53686 1.96062,-1.23376 2.64232,-2.09067c0.67983,-0.85692 1.21223,-1.88419 1.59722,-3.0818c0.38499,-1.19761 0.66199,-2.57074 0.83101,-4.11939M162.25209,302.19503c0.21597,1.35249 0.52396,2.60894 0.92397,3.76939c0.39813,1.16251 0.91927,2.17946 1.56342,3.05083c0.64227,0.87343 1.43759,1.54762 2.38597,2.02254c-0.11267,0.10324 -0.23475,0.23951 -0.36621,0.40884c-0.13145,0.17138 -0.25822,0.3469 -0.38029,0.52654c-0.12207,0.18171 -0.22066,0.34483 -0.29578,0.48936c-1.01411,-0.57816 -1.85451,-1.35247 -2.52119,-2.32296c-0.66668,-0.97048 -1.2066,-2.10926 -1.61975,-3.41631c-0.41315,-1.30499 -0.74649,-2.73696 -1.00002,-4.29593l1.30989,-0.2323M155.35052,301.28132h1.43665v3.82515c0,0.84659 -0.04883,1.69834 -0.14648,2.55526c-0.09954,0.85692 -0.29672,1.69009 -0.59156,2.49952c-0.29672,0.81149 -0.75025,1.58374 -1.3606,2.31677c-0.13145,-0.17551 -0.30517,-0.36445 -0.52114,-0.5668c-0.21597,-0.20029 -0.41316,-0.37271 -0.59157,-0.51725c0.52584,-0.65043 0.91551,-1.33184 1.16905,-2.04421c0.25353,-0.71238 0.41784,-1.42991 0.49296,-2.15261c0.07512,-0.7227 0.11268,-1.42475 0.11268,-2.10616zM173.23828,299.28357h6.61988v1.5951h-6.61988v-1.5951M179.21026,299.28357h1.53525c0,0 -0.00187,0.05678 -0.00563,0.17035c-0.00564,0.11357 -0.00845,0.23746 -0.00845,0.37167c0,0.13421 0,0.24263 0,0.32522c-0.04695,1.94097 -0.09108,3.5846 -0.1324,4.93088c-0.04319,1.34836 -0.09766,2.45615 -0.16339,3.32339c-0.06573,0.86724 -0.14554,1.54039 -0.23944,2.01943c-0.0939,0.48111 -0.21128,0.82491 -0.35213,1.03139c-0.1784,0.28908 -0.36151,0.49041 -0.54931,0.60397c-0.1878,0.11357 -0.41316,0.19616 -0.67607,0.24779c-0.24413,0.04129 -0.54649,0.06194 -0.90706,0.06194c-0.36245,0 -0.73617,-0.00516 -1.12116,-0.01549c-0.00939,-0.24779 -0.05634,-0.5348 -0.14085,-0.86104c-0.08451,-0.32418 -0.19718,-0.60501 -0.33803,-0.84247c0.38499,0.04129 0.73711,0.06402 1.05636,0.06815c0.31925,0.00619 0.5587,0.00929 0.71832,0.00929c0.13145,0 0.23756,-0.02065 0.31832,-0.06195c0.07888,-0.04129 0.15588,-0.11872 0.231,-0.23229c0.11267,-0.14454 0.20939,-0.44188 0.29014,-0.89202c0.07888,-0.44808 0.14929,-1.09335 0.21127,-1.93581c0.06009,-0.8404 0.1108,-1.91103 0.15212,-3.21189c0.04319,-1.30086 0.08357,-2.87015 0.12114,-4.70787v-0.40265M167.71702,302.84546l5.60577,-1.20795l0.23944,1.50219l-5.59169,1.23892l-0.25352,-1.53315M175.30876,300.02692h1.50708c-0.00939,1.05308 -0.03755,2.07725 -0.08451,3.07251c-0.04695,0.99732 -0.13897,1.95542 -0.27606,2.87428c-0.13521,0.91886 -0.34367,1.78094 -0.62537,2.58623c-0.2817,0.8053 -0.66481,1.54865 -1.14933,2.23005c-0.48264,0.6814 -1.09956,1.27504 -1.85075,1.78094c-0.11267,-0.21681 -0.27231,-0.45427 -0.47889,-0.71238c-0.20658,-0.25811 -0.40376,-0.46459 -0.59157,-0.61945c0.69485,-0.44394 1.26013,-0.96326 1.69582,-1.55794c0.43757,-0.59262 0.7803,-1.25027 1.0282,-1.97297c0.24977,-0.7227 0.431,-1.49496 0.54367,-2.31678c0.11267,-0.81975 0.18498,-1.68183 0.2169,-2.58623c0.03381,-0.90235 0.05541,-1.82844 0.0648,-2.77827M169.42129,310.46478l-0.23945,-1.54864l0.53522,-0.55751l3.64798,-1.70351c0.01878,0.23746 0.05165,0.49763 0.0986,0.78052c0.04695,0.28495 0.0939,0.51518 0.14085,0.69069c-0.8357,0.41298 -1.5099,0.75367 -2.02259,1.0221c-0.51081,0.26843 -0.90988,0.48524 -1.19721,0.65043c-0.28545,0.16519 -0.49672,0.29631 -0.63381,0.39336c-0.13521,0.09911 -0.24507,0.18997 -0.32958,0.27256M169.42129,310.46478c-0.03756,-0.14454 -0.09578,-0.30973 -0.17465,-0.49556c-0.08076,-0.18584 -0.16621,-0.36652 -0.25635,-0.54203c-0.08827,-0.17551 -0.17465,-0.32005 -0.25916,-0.43362c0.15963,-0.09292 0.31926,-0.24572 0.47889,-0.4584c0.15963,-0.21062 0.23944,-0.48111 0.23944,-0.81149v-9.02859h1.46482v10.2675c0,0 -0.05164,0.03098 -0.15493,0.09292c-0.10329,0.06194 -0.22817,0.14661 -0.37466,0.25398c-0.14461,0.10944 -0.29202,0.22816 -0.44226,0.35619c-0.15024,0.13009 -0.27512,0.26431 -0.37466,0.40265c-0.09766,0.14042 -0.14648,0.27256 -0.14648,0.39645zM181.8723,306.03565c0.56339,-0.13421 1.23477,-0.32005 2.01413,-0.55751c0.77937,-0.23746 1.56812,-0.48008 2.36626,-0.72787l0.19718,1.50219c-0.72302,0.23746 -1.45543,0.48007 -2.19723,0.72786c-0.7418,0.24779 -1.41788,0.46975 -2.02823,0.66591l-0.35212,-1.61059M182.06948,301.06452h4.16912v1.53316h-4.16912v-1.53316M183.56248,298.09112h1.46482v12.49755c0,0.40265 -0.04037,0.7227 -0.12113,0.96015c-0.07888,0.23746 -0.2216,0.4233 -0.42818,0.55751c-0.19718,0.13421 -0.44602,0.22404 -0.74649,0.26947c-0.30048,0.0475 -0.67138,0.06607 -1.11271,0.05575c-0.01878,-0.21681 -0.06855,-0.48007 -0.1493,-0.78981c-0.07888,-0.30973 -0.16995,-0.58333 -0.27324,-0.82078c0.24414,0.01033 0.47419,0.01549 0.69016,0.01549c0.21597,0 0.36621,0 0.45072,0c0.15024,0 0.22536,-0.08776 0.22536,-0.26327v-12.48206M188.70345,299.40746h4.08461v1.39378h-4.08461v-1.39378M188.9429,298.09112l1.50708,0.30972c-0.35682,0.83627 -0.80283,1.67254 -1.33806,2.50881c-0.53522,0.83627 -1.18783,1.61575 -1.9578,2.33845c-0.06573,-0.12389 -0.15493,-0.26121 -0.26761,-0.41195c-0.11267,-0.14867 -0.23287,-0.29527 -0.36058,-0.43981c-0.12582,-0.14454 -0.24038,-0.25812 -0.34367,-0.34071c0.45072,-0.39232 0.85448,-0.81356 1.2113,-1.26369c0.35682,-0.44808 0.66386,-0.9044 0.92115,-1.36899c0.25916,-0.46459 0.46856,-0.90854 0.62819,-1.33184M192.32326,299.40746h0.33803l0.23944,-0.06194l1.00003,0.72786c-0.1878,0.35102 -0.41034,0.7196 -0.66763,1.10573c-0.25916,0.38819 -0.53148,0.76503 -0.81692,1.13051c-0.28734,0.36754 -0.55775,0.69069 -0.81128,0.96945c-0.13145,-0.12389 -0.30048,-0.26121 -0.50706,-0.41194c-0.20658,-0.14867 -0.38968,-0.2643 -0.54931,-0.34689c0.22536,-0.26843 0.45354,-0.56784 0.68453,-0.89821c0.22912,-0.33038 0.44226,-0.66385 0.63945,-1.00043c0.19718,-0.3345 0.34743,-0.63081 0.45072,-0.88892v-0.32522M186.22452,306.60866h8.80304v1.40927h-8.80304v-1.40927M187.15412,302.02467h7.00018v4.98663h-1.50708v-3.71675h-4.05643v3.71675h-1.43666v-4.98663M191.23873,307.55333c0.25353,0.53686 0.58218,1.04275 0.98594,1.51767c0.40376,0.47492 0.86669,0.88789 1.38877,1.23892c0.5202,0.35102 1.08078,0.63494 1.68174,0.85175c-0.15024,0.15486 -0.31738,0.36135 -0.50142,0.61946c-0.18216,0.25811 -0.32489,0.48524 -0.42818,0.6814c-0.63852,-0.26843 -1.23007,-0.62462 -1.77469,-1.06856c-0.54461,-0.44394 -1.03102,-0.95809 -1.4592,-1.54244c-0.4263,-0.58229 -0.78969,-1.21414 -1.09017,-1.89554l1.19721,-0.40265M189.94292,302.96934h1.47891v2.0597c0,0.44394 -0.03286,0.91577 -0.09859,1.41546c-0.06573,0.50176 -0.19249,1.0159 -0.38029,1.54244c-0.1878,0.52654 -0.46481,1.05514 -0.83101,1.58581c-0.36621,0.53274 -0.84228,1.05204 -1.4282,1.55794c-0.58781,0.5059 -1.32304,0.98081 -2.20569,1.42475c-0.10329,-0.16519 -0.25634,-0.36135 -0.45916,-0.58848c-0.20094,-0.22713 -0.39062,-0.41814 -0.56903,-0.573c0.84509,-0.382 1.54746,-0.78981 2.10709,-1.22343c0.55776,-0.43362 0.99815,-0.88067 1.32117,-1.34113c0.32489,-0.4584 0.56245,-0.91267 0.71269,-1.36281c0.15024,-0.44808 0.24695,-0.88169 0.29015,-1.30086c0.04131,-0.4171 0.06197,-0.80632 0.06197,-1.16767zM196.63323,298.69509h11.98621v13.84487h-1.52116v-12.34269h-9.01431v12.34269h-1.45074v-13.84487M197.52057,310.49575h10.40871v1.45572h-10.40871v-1.45572M200.68967,306.99582l0.60565,-0.94467c0.39438,0.08259 0.80565,0.1879 1.23383,0.31593c0.4263,0.13009 0.83664,0.2674 1.23102,0.41193c0.39438,0.14454 0.73241,0.28909 1.01411,0.43362l-0.61973,1.03759c-0.27231,-0.14454 -0.60565,-0.29734 -1.00003,-0.4584c-0.39438,-0.159 -0.80753,-0.30868 -1.23946,-0.4491c-0.43194,-0.13835 -0.8404,-0.25398 -1.22538,-0.3469M201.33757,300.24373l1.22538,0.4646c-0.26291,0.45427 -0.57747,0.90337 -0.94368,1.34731c-0.36621,0.44394 -0.74931,0.85692 -1.14933,1.23892c-0.39813,0.382 -0.79438,0.71754 -1.18876,1.00662c-0.06573,-0.09292 -0.16245,-0.20132 -0.29015,-0.32522c-0.12582,-0.12389 -0.25165,-0.24779 -0.37747,-0.37168c-0.1277,-0.12389 -0.2432,-0.22197 -0.34649,-0.29424c0.59157,-0.37167 1.16435,-0.82904 1.71835,-1.3721c0.554,-0.54099 1.00472,-1.10573 1.35215,-1.69422M205.07005,301.46716h0.25353l0.21128,-0.06195l0.84509,0.55751c-0.36621,0.62978 -0.83382,1.21001 -1.40285,1.74068c-0.56715,0.53274 -1.19346,1.00765 -1.87892,1.42475c-0.68546,0.41917 -1.39909,0.78052 -2.1409,1.08405c-0.7418,0.3056 -1.48361,0.55648 -2.22541,0.75264c-0.04695,-0.12389 -0.10798,-0.2736 -0.1831,-0.44911c-0.07512,-0.17551 -0.15681,-0.3438 -0.24508,-0.50486c-0.09014,-0.159 -0.17747,-0.29011 -0.26198,-0.39335c0.69485,-0.14454 1.39909,-0.34069 2.11273,-0.58848c0.71364,-0.24779 1.3897,-0.54202 2.02822,-0.88272c0.63852,-0.34071 1.20942,-0.71754 1.71272,-1.13052c0.50143,-0.41298 0.89298,-0.85691 1.17467,-1.33183v-0.21681M200.95728,302.48927c0.41315,0.48524 0.94837,0.92609 1.60567,1.32254c0.6573,0.39851 1.38313,0.74748 2.17752,1.04688c0.79251,0.2994 1.60192,0.52654 2.42823,0.6814c-0.14085,0.14454 -0.29296,0.33761 -0.45635,0.5792c-0.16527,0.24365 -0.29485,0.46356 -0.38875,0.65972c-0.8357,-0.20648 -1.65732,-0.48834 -2.46485,-0.84556c-0.80753,-0.35516 -1.55591,-0.77845 -2.24513,-1.26989c-0.69109,-0.48937 -1.27608,-1.03347 -1.75498,-1.63227l1.09862,-0.54202M201.28123,301.46716h4.21137v1.23891h-5.00012l0.78875,-1.23891M199.36569,308.97808l0.67607,-1.08405c0.47889,0.05163 0.97937,0.12595 1.50145,0.22301c0.5202,0.09911 1.03852,0.20752 1.55497,0.32522c0.51645,0.11976 1.00471,0.24675 1.46482,0.38097c0.46011,0.13421 0.86857,0.26844 1.22539,0.40265l-0.66199,1.17696c-0.46011,-0.18584 -1.01693,-0.37167 -1.67047,-0.55751c-0.65166,-0.18584 -1.3343,-0.35619 -2.04794,-0.51105c-0.71364,-0.15486 -1.3944,-0.2736 -2.0423,-0.35619zM216.23935,299.09774h6.19734v1.54864h-6.19734v-1.54864M215.60553,302.79899h7.59174v1.54864h-7.59173v-1.54864M218.43658,303.57332h1.53525v6.9689c0,0.42329 -0.04037,0.7609 -0.12113,1.01281c-0.07888,0.25398 -0.24507,0.45324 -0.4986,0.59778c-0.24413,0.13421 -0.54273,0.21887 -0.8958,0.25397c-0.35118,0.03717 -0.76621,0.05575 -1.2451,0.05575c-0.01878,-0.24779 -0.07043,-0.5348 -0.15493,-0.86104c-0.08451,-0.32418 -0.1784,-0.61016 -0.28169,-0.85795c0.30987,0.01033 0.59907,0.01756 0.86762,0.02169c0.26667,0.00619 0.44697,0.00929 0.54086,0.00929c0.0939,-0.01033 0.15963,-0.03097 0.19719,-0.06194c0.03756,-0.03098 0.05633,-0.09808 0.05633,-0.20132v-6.93792M220.57748,306.26795l1.25355,-0.46459c0.21597,0.51621 0.42443,1.06547 0.62537,1.64776c0.20282,0.58436 0.38218,1.15218 0.53805,1.7035c0.154,0.55338 0.25915,1.04173 0.31549,1.46503l-1.36623,0.55751c-0.05634,-0.43362 -0.15212,-0.92919 -0.28733,-1.4867c-0.13709,-0.55751 -0.29953,-1.13567 -0.48734,-1.73448c-0.1878,-0.59881 -0.38499,-1.16148 -0.59157,-1.68802M216.30977,305.86531l1.36624,0.3407c-0.14085,0.59881 -0.30988,1.19762 -0.50706,1.79643c-0.19718,0.59881 -0.41034,1.16354 -0.63945,1.69421c-0.23099,0.53274 -0.46856,1.00043 -0.71269,1.40307c-0.08451,-0.08259 -0.19906,-0.17861 -0.34367,-0.28805c-0.14649,-0.10737 -0.29485,-0.21268 -0.44509,-0.31592c-0.15024,-0.10324 -0.2817,-0.18584 -0.39437,-0.24779c0.36621,-0.54719 0.69485,-1.2131 0.98594,-1.99775c0.29109,-0.78465 0.52114,-1.57961 0.69016,-2.38491M210.19694,301.1884h5.22548v1.54864h-5.22548v-1.54864M212.21108,298.07563h1.50707v14.44885h-1.50707v-14.44885M212.02797,302.22599l0.9296,0.32522c-0.10329,0.58848 -0.23005,1.19968 -0.38029,1.8336c-0.15024,0.63598 -0.32396,1.26059 -0.52114,1.87386c-0.19718,0.61532 -0.41128,1.18833 -0.64227,1.719c-0.22912,0.53274 -0.46574,0.99009 -0.70988,1.3721c-0.04695,-0.15486 -0.1155,-0.33037 -0.20564,-0.52653c-0.08827,-0.19616 -0.18404,-0.39232 -0.28733,-0.58848c-0.10329,-0.19616 -0.20189,-0.36135 -0.29578,-0.49556c0.30987,-0.42329 0.60377,-0.94468 0.88171,-1.56413c0.27606,-0.61946 0.51926,-1.27815 0.72959,-1.97607c0.21221,-0.69585 0.37935,-1.35352 0.50142,-1.97297M213.64773,303.00032c0.08451,0.10324 0.21878,0.2736 0.40283,0.51105c0.18216,0.23746 0.37841,0.50073 0.58875,0.78981c0.21221,0.28908 0.4047,0.55235 0.57747,0.78981c0.17465,0.23746 0.29954,0.40781 0.37466,0.51105l-0.83101,1.31634c-0.08451,-0.20648 -0.20658,-0.45427 -0.36621,-0.74335c-0.15963,-0.28908 -0.32865,-0.59159 -0.50705,-0.90751c-0.1784,-0.31385 -0.35025,-0.605 -0.51551,-0.87343c-0.16339,-0.26843 -0.30142,-0.48524 -0.4141,-0.65043zM229.98617,306.91838h1.60567v5.60609h-1.60567v-5.60609M224.39448,308.01792h12.80313v1.54864h-12.80313v-1.54864M224.73252,299.36101h12.29608v1.50218h-12.29608v-1.50218M235.29616,301.23486l1.26764,0.8053c-0.31925,0.36135 -0.65917,0.70928 -1.01974,1.04379c-0.36245,0.33657 -0.69861,0.62875 -1.00848,0.87653l-1.11271,-0.77432c0.20658,-0.16519 0.42537,-0.35928 0.65636,-0.58229c0.22912,-0.22094 0.45165,-0.45323 0.66762,-0.69689c0.21597,-0.24158 0.39907,-0.46563 0.54931,-0.67212M231.49325,304.39409l1.09861,-0.4491c0.20658,0.26843 0.41128,0.56784 0.6141,0.89821c0.20094,0.33038 0.38404,0.6525 0.54931,0.96636c0.16339,0.31592 0.28733,0.6081 0.37184,0.87653l-1.18313,0.49556c-0.07512,-0.24779 -0.18967,-0.5348 -0.34367,-0.86104c-0.15587,-0.32418 -0.32959,-0.65662 -0.52114,-0.99732c-0.19343,-0.34071 -0.38875,-0.65043 -0.58593,-0.92919M224.3804,305.78787c0.44133,-0.18584 0.97467,-0.42639 1.60004,-0.72167c0.62349,-0.29321 1.25919,-0.59468 1.90709,-0.90441l0.2817,1.22343c-0.51645,0.30973 -1.03946,0.6143 -1.56905,0.9137c-0.53147,0.2994 -1.02725,0.56784 -1.48736,0.8053l-0.73241,-1.31635M224.77477,302.19503l1.01412,-0.89821c0.24414,0.14454 0.50235,0.31488 0.77466,0.51104c0.27231,0.19616 0.53053,0.39749 0.77467,0.60398c0.24414,0.20648 0.44602,0.39232 0.60565,0.55751l-1.07045,0.99113c-0.14085,-0.16519 -0.32865,-0.35413 -0.5634,-0.5668c-0.23475,-0.21062 -0.48546,-0.42433 -0.75213,-0.64114c-0.26855,-0.21681 -0.52959,-0.40265 -0.78312,-0.55751M233.19751,305.06001l1.04228,-0.89821c0.30987,0.18584 0.64321,0.39956 1.00002,0.64114c0.35682,0.24365 0.69486,0.48628 1.01411,0.72787c0.31925,0.24365 0.58687,0.46872 0.80284,0.67521l-1.11271,0.97564c-0.1878,-0.19616 -0.43663,-0.42123 -0.7465,-0.67521c-0.30987,-0.25191 -0.64039,-0.50692 -0.99157,-0.76503c-0.35306,-0.25811 -0.68923,-0.48524 -1.00848,-0.6814M228.57768,303.94499c-0.01878,-0.10324 -0.05352,-0.23746 -0.10422,-0.40265c-0.05258,-0.16519 -0.10423,-0.33038 -0.15493,-0.49556c-0.05258,-0.16519 -0.10235,-0.30973 -0.1493,-0.43363c0.10329,-0.02065 0.2094,-0.07743 0.31832,-0.17034c0.10704,-0.09292 0.21222,-0.20648 0.31551,-0.3407c0.08451,-0.09292 0.20939,-0.25811 0.37465,-0.49557c0.16339,-0.23746 0.34179,-0.51621 0.53522,-0.83627c0.19155,-0.32006 0.35775,-0.65043 0.4986,-0.99113l1.25355,0.54203c-0.29109,0.53686 -0.62913,1.0603 -1.01411,1.57032c-0.38499,0.51209 -0.76058,0.9488 -1.12678,1.31016v0.04646c0,0 -0.03757,0.02065 -0.11268,0.06195c-0.07512,0.04129 -0.16151,0.09808 -0.25916,0.17035c-0.09954,0.07227 -0.18686,0.14971 -0.26198,0.2323c-0.07512,0.08259 -0.11268,0.16003 -0.11268,0.2323M228.57768,303.94499l-0.01408,-1.09953l0.66199,-0.41814l2.63387,-0.1239c-0.04695,0.19616 -0.09109,0.41813 -0.1324,0.66591c-0.04319,0.24779 -0.07418,0.45427 -0.09296,0.61946c-0.59157,0.03098 -1.07044,0.06194 -1.43665,0.09292c-0.36621,0.03098 -0.65448,0.05885 -0.86481,0.08363c-0.21221,0.02684 -0.37466,0.05575 -0.48734,0.08673c-0.11267,0.03098 -0.20188,0.06194 -0.26761,0.09292M228.31007,307.04227c-0.02817,-0.10324 -0.06572,-0.23539 -0.11267,-0.39645c-0.04695,-0.159 -0.09578,-0.32625 -0.14649,-0.50176c-0.05258,-0.17551 -0.10235,-0.33038 -0.1493,-0.46459c0.16902,-0.03098 0.34742,-0.11357 0.53522,-0.24778c0.1878,-0.13421 0.40377,-0.30973 0.64791,-0.52654c0.13145,-0.11357 0.32676,-0.29734 0.58593,-0.55132c0.25728,-0.25191 0.54556,-0.55338 0.86481,-0.90441c0.31925,-0.35102 0.64321,-0.73095 0.97186,-1.1398c0.32864,-0.40677 0.63382,-0.82698 0.91551,-1.2606l1.16905,0.75883c-0.67607,0.86724 -1.40097,1.69319 -2.1747,2.47784c-0.77561,0.78465 -1.5484,1.46605 -2.31837,2.04421v0.04646c0,0 -0.03943,0.02065 -0.11831,0.06194c-0.08076,0.04129 -0.17278,0.09809 -0.27607,0.17036c-0.10329,0.07227 -0.19437,0.14453 -0.27325,0.2168c-0.08076,0.07227 -0.12113,0.14454 -0.12113,0.21681M228.31007,307.04227l-0.04226,-1.08405l0.67607,-0.46459l4.23954,-0.35619c-0.02817,0.18584 -0.05165,0.39749 -0.07043,0.63495c-0.01878,0.23746 -0.02817,0.43878 -0.02817,0.60397c-0.96716,0.09292 -1.74371,0.17242 -2.32963,0.23849c-0.58781,0.06814 -1.04604,0.12492 -1.37468,0.17035c-0.32864,0.0475 -0.56808,0.09189 -0.71832,0.13318c-0.15024,0.04129 -0.26762,0.0826 -0.35213,0.12389M229.60588,298.36987l1.53525,-0.38716c0.16902,0.24779 0.34085,0.52653 0.5155,0.83626c0.17278,0.30973 0.30612,0.57816 0.40001,0.8053l-1.5775,0.51105c-0.07512,-0.23746 -0.19907,-0.52447 -0.37185,-0.86104c-0.17465,-0.3345 -0.34179,-0.63598 -0.50142,-0.90441z" fill="#ffffff" fill-rule="nonzero" stroke-width="1" stroke-linecap="butt" stroke-linejoin="miter"/><path d="M173.22234,384.64664l0.85025,-1.31706c0.72244,0.22229 1.45043,0.47792 2.18398,0.7669c0.73355,0.28897 1.42265,0.58906 2.06728,0.90026c0.64463,0.3112 1.18924,0.6113 1.63382,0.90027l-1.06699,1.41708c-0.43346,-0.3112 -0.9525,-0.62573 -1.55712,-0.94361c-0.60685,-0.31565 -1.26371,-0.62352 -1.97059,-0.92361c-0.70465,-0.30009 -1.4182,-0.56684 -2.14064,-0.80024M171.27177,372.19296l1.80053,-0.55016c0.22229,0.34455 0.44458,0.728 0.66687,1.15034c0.22229,0.42234 0.38345,0.79467 0.48348,1.11699l-1.90056,0.60018c-0.0778,-0.30009 -0.21895,-0.6702 -0.42346,-1.11033c-0.20672,-0.43791 -0.41568,-0.84024 -0.62685,-1.20702M165.70345,373.49334h14.02082v3.70109h-1.86722v-2.03393h-10.38641v2.03393h-1.76719v-3.70109M172.50546,375.89405h1.88389c-0.04445,1.20035 -0.1167,2.31402 -0.21673,3.34099c-0.10003,1.02919 -0.28897,1.96614 -0.56683,2.81083c-0.27786,0.84469 -0.68909,1.60603 -1.2337,2.28401c-0.54461,0.67798 -1.28037,1.26704 -2.20732,1.76719c-0.92916,0.50014 -2.09951,0.9225 -3.51105,1.26705c-0.08891,-0.2334 -0.2334,-0.50348 -0.43346,-0.81024c-0.20006,-0.30454 -0.39456,-0.55127 -0.58351,-0.74022c1.32261,-0.28897 2.40072,-0.64242 3.23429,-1.06032c0.83358,-0.41568 1.49266,-0.91027 1.97725,-1.48377c0.48236,-0.57128 0.83469,-1.22147 1.05698,-1.95058c0.22229,-0.72688 0.37011,-1.54046 0.44347,-2.44073c0.07113,-0.90027 0.12336,-1.895 0.15671,-2.98422M165.50339,381.46236h14.47095v1.50044h-14.47095v-1.50044M168.2542,376.79432l1.05031,-1.15034c0.30009,0.14449 0.60574,0.31676 0.91694,0.51682c0.3112,0.20006 0.60907,0.40791 0.89359,0.62352c0.2823,0.21785 0.50682,0.42124 0.67354,0.61018l-1.117,1.28371c-0.1556,-0.18894 -0.36677,-0.39456 -0.63352,-0.61685c-0.26675,-0.22229 -0.55572,-0.44791 -0.86692,-0.67687c-0.3112,-0.22673 -0.61685,-0.42346 -0.91694,-0.59017M166.57037,379.3284l1.01697,-1.20035c0.3112,0.14449 0.62796,0.31342 0.95028,0.50681c0.32232,0.19561 0.62796,0.39568 0.91693,0.60018c0.28897,0.20672 0.52238,0.40456 0.70021,0.5935l-1.06698,1.3504c-0.17783,-0.20006 -0.40568,-0.41124 -0.68354,-0.63352c-0.27786,-0.22229 -0.57794,-0.43902 -0.90026,-0.65019c-0.32232,-0.21117 -0.63353,-0.40011 -0.93362,-0.56683zM183.04192,373.15991h4.7514v11.13663h-4.7514v-1.60048h3.08424v-7.93568h-3.08424v-1.60047M183.14195,377.87797h3.48437v1.56714h-3.48437v-1.56714M182.19166,373.15991h1.68383v12.48703h-1.68383v-12.48703M188.46019,374.97712h8.70257v1.78386h-8.70257v-1.78386M193.56169,371.92621h1.8172v13.02052c0,0.55572 -0.07224,0.97473 -0.21672,1.25704c-0.14449,0.28453 -0.39457,0.49903 -0.75023,0.64352c-0.34455,0.14449 -0.80802,0.23562 -1.39041,0.27341c-0.58462,0.04001 -1.29372,0.05446 -2.1273,0.04335c-0.03334,-0.25563 -0.11449,-0.55905 -0.24341,-0.91027c-0.1267,-0.349 -0.25675,-0.64574 -0.39012,-0.89026c0.41123,0.01112 0.80913,0.01889 1.19369,0.02333c0.38233,0.00667 0.71799,0.01 1.00696,0.01c0.28897,0 0.49459,0 0.61685,0c0.17783,-0.01112 0.30232,-0.04779 0.37345,-0.11003c0.07336,-0.06002 0.11003,-0.17893 0.11003,-0.35677v-13.00385M188.7436,378.69488l1.48377,-0.78356c0.27786,0.389 0.57795,0.81357 0.90027,1.27371c0.32232,0.46236 0.62796,0.91249 0.91694,1.3504c0.28897,0.44013 0.52238,0.82135 0.70021,1.14367l-1.5838,0.91693c-0.16672,-0.33343 -0.38678,-0.72577 -0.6602,-1.17701c-0.27119,-0.44903 -0.56239,-0.9125 -0.8736,-1.39041c-0.3112,-0.47792 -0.60573,-0.9225 -0.88359,-1.33373zM208.08266,371.82618h1.68383v11.72014h-1.68383v-11.72014M203.04784,378.57818l8.73592,-3.70109l0.66686,1.53378l-8.73592,3.75111l-0.66686,-1.5838M204.74834,373.42665h1.70051v10.90323c0,0.3112 0.02778,0.54682 0.08336,0.70687c0.05558,0.16227 0.17227,0.27119 0.35011,0.32677c0.17783,0.05558 0.43902,0.08336 0.78356,0.08336c0.10003,0 0.26341,0 0.49014,0c0.22896,0 0.48792,0 0.77689,0c0.28897,0 0.5813,0 0.87693,0c0.29342,0 0.56016,0 0.80023,0c0.23784,0 0.41235,0 0.52349,0c0.3112,0 0.54461,-0.05891 0.70021,-0.17673c0.1556,-0.11559 0.2723,-0.32899 0.3501,-0.64019c0.0778,-0.3112 0.13337,-0.76134 0.16672,-1.3504c0.20006,0.14449 0.45347,0.27786 0.76023,0.40012c0.30454,0.12226 0.57906,0.20562 0.82358,0.25007c-0.0778,0.78912 -0.20562,1.40819 -0.38345,1.85722c-0.17783,0.45124 -0.44458,0.77356 -0.80024,0.96695c-0.35566,0.19561 -0.85025,0.29342 -1.48377,0.29342c-0.11114,0 -0.29119,0 -0.54016,0c-0.25118,0 -0.53793,0 -0.86026,0c-0.32232,0 -0.6413,0 -0.95695,0c-0.31788,0 -0.60129,0 -0.85025,0c-0.25118,0 -0.4268,0 -0.52683,0c-0.71133,0 -1.2726,-0.0778 -1.68383,-0.2334c-0.41123,-0.1556 -0.69798,-0.43124 -0.86025,-0.82691c-0.16005,-0.39345 -0.24007,-0.95139 -0.24007,-1.67382v-10.88656M211.45032,375.07715h-0.13337l0.33343,-0.25008l0.33343,-0.21673l1.2337,0.45013l-0.06669,0.30008c0,0.78912 -0.00222,1.51378 -0.00667,2.17398c-0.00667,0.66241 -0.01333,1.24925 -0.02,1.76052c-0.00445,0.51127 -0.01557,0.93917 -0.03335,1.28372c-0.01556,0.34455 -0.03445,0.60017 -0.05668,0.76689c-0.03334,0.37789 -0.12226,0.66908 -0.26675,0.87359c-0.14449,0.20672 -0.3501,0.35455 -0.61685,0.44347c-0.2334,0.10003 -0.50793,0.15782 -0.82358,0.17338c-0.31788,0.01778 -0.60462,0.02667 -0.86025,0.02667c-0.02223,-0.22229 -0.06891,-0.48126 -0.14004,-0.7769c-0.07336,-0.29342 -0.15449,-0.5346 -0.24341,-0.72354c0.1556,0.01112 0.32231,0.01666 0.50014,0.01666c0.17783,0 0.30565,0 0.38345,0c0.11114,0 0.20006,-0.02556 0.26675,-0.07669c0.06669,-0.0489 0.11114,-0.15116 0.13337,-0.30675c0.02223,-0.08891 0.0389,-0.2812 0.05002,-0.57684c0.01112,-0.29342 0.02,-0.68465 0.02667,-1.17368c0.00445,-0.48903 0.00666,-1.08143 0.00666,-1.77719c0,-0.69353 0,-1.49044 0,-2.39071M198.29643,375.74401h5.45162v1.68383h-5.45162v-1.68383M200.29702,372.04291h1.68383v10.98658h-1.68383v-10.98658M198.09637,383.16287c0.45569,-0.16672 0.98586,-0.3701 1.59048,-0.61017c0.60685,-0.23784 1.24703,-0.49904 1.92056,-0.78356c0.67131,-0.2823 1.34596,-0.56239 2.02394,-0.84025l0.40011,1.5838c-0.88915,0.43346 -1.79275,0.86359 -2.7108,1.29038c-0.91583,0.42902 -1.75163,0.81579 -2.50741,1.16034zM216.53516,372.32633h12.30364v1.30039h-12.30364v-1.30039M217.26871,379.04498h12.387v1.2337h-12.387v-1.2337M218.78583,380.81217h9.95295v1.08365h-9.95295v-1.08365M217.23537,382.46266h13.05387v1.20035h-13.05387v-1.20035M217.65216,375.97741h3.51771v0.93361h-3.51771v-0.93361M217.28538,377.5112h3.90116v0.91693h-3.90116v-0.91693M224.15409,377.5112h3.95117v0.91693h-3.95117v-0.91693M224.15409,375.97741h3.55105v0.93361h-3.55105v-0.93361M221.77004,372.87649h1.76719v5.83506h-1.76719v-5.83506M215.46818,374.29358h14.47095v2.91753h-1.73385v-1.85055h-11.08661v1.85055h-1.65049v-2.91753M216.46848,379.04498h1.66716v2.30068c0,0.46681 -0.02779,0.96917 -0.08336,1.50711c-0.05558,0.54016 -0.15782,1.0881 -0.30675,1.64382c-0.15116,0.55572 -0.36233,1.09144 -0.63352,1.60714c-0.27341,0.51793 -0.62685,0.98807 -1.06031,1.41041c-0.08891,-0.11114 -0.21118,-0.24229 -0.36678,-0.39345c-0.1556,-0.14893 -0.31898,-0.29342 -0.49014,-0.43346c-0.17339,-0.13782 -0.32677,-0.24007 -0.46014,-0.30675c0.52238,-0.50014 0.90582,-1.04476 1.15034,-1.63382c0.24452,-0.58906 0.40344,-1.18146 0.4768,-1.77719c0.07113,-0.59351 0.1067,-1.14589 0.1067,-1.65716v-2.26734M224.13741,383.09619c0.33343,0.54461 0.80579,0.99696 1.41709,1.35707c0.6113,0.36233 1.34262,0.64575 2.19398,0.85025c0.84914,0.20672 1.79609,0.34344 2.84084,0.41012c-0.1556,0.1556 -0.31676,0.36677 -0.48348,0.63351c-0.16672,0.26675 -0.30009,0.51127 -0.40012,0.73356c-1.14479,-0.12226 -2.16397,-0.33343 -3.05757,-0.63352c-0.89582,-0.30009 -1.66605,-0.70354 -2.31069,-1.21036c-0.64463,-0.50459 -1.17813,-1.12367 -1.60047,-1.85722l1.40041,-0.28341M228.0219,383.52965l1.31705,0.66686c-0.40011,0.26675 -0.82246,0.51348 -1.26704,0.74022c-0.44458,0.22896 -0.85025,0.42679 -1.21703,0.59351l-1.08365,-0.60017c0.24452,-0.13337 0.50349,-0.2812 0.7769,-0.44347c0.27119,-0.16005 0.53794,-0.32676 0.80024,-0.50014c0.26007,-0.17116 0.48459,-0.32343 0.67353,-0.4568M218.9192,387.39745l-0.08336,-1.16701l0.70021,-0.48348l4.60136,-0.65019c-0.04445,0.20006 -0.08336,0.43013 -0.1167,0.6902c-0.03334,0.2623 -0.05001,0.47681 -0.05001,0.64352c-1.02253,0.16672 -1.84721,0.30231 -2.47406,0.40678c-0.62908,0.10669 -1.11589,0.19339 -1.46044,0.26008c-0.34455,0.06669 -0.59462,0.12226 -0.75022,0.16672c-0.1556,0.04445 -0.27786,0.08891 -0.36678,0.13337M218.9192,387.39745c-0.04445,-0.13337 -0.11115,-0.28675 -0.20006,-0.46013c-0.08891,-0.17116 -0.18561,-0.34343 -0.29009,-0.51682c-0.10669,-0.17116 -0.20451,-0.31232 -0.29342,-0.42346c0.18894,-0.10003 0.39233,-0.27008 0.61018,-0.51015c0.21562,-0.23784 0.32343,-0.54572 0.32343,-0.9236v-1.60048l1.73385,0.03335v2.71747c0,0 -0.06335,0.03889 -0.19006,0.11669c-0.12892,0.0778 -0.28453,0.1834 -0.46681,0.31677c-0.1845,0.13337 -0.37122,0.2723 -0.56017,0.41679c-0.18894,0.14449 -0.34677,0.2912 -0.47347,0.44013c-0.12892,0.15116 -0.19339,0.2823 -0.19339,0.39344zM232.1898,372.65976h14.52096v1.65049h-14.52096v-1.65049M238.27493,373.47667l2.05061,0.26675c-0.21117,0.53349 -0.44124,1.05586 -0.6902,1.56713c-0.25118,0.51127 -0.48237,0.95028 -0.69354,1.31706l-1.55046,-0.31676c0.11114,-0.26675 0.22562,-0.56683 0.34344,-0.90026c0.11559,-0.33343 0.22118,-0.6702 0.31676,-1.0103c0.09336,-0.33787 0.16782,-0.64575 0.2234,-0.92361M238.49166,378.3948h1.86721v3.03423c0,0.46681 -0.06113,0.93027 -0.18339,1.3904c-0.12226,0.46236 -0.33899,0.91028 -0.65019,1.34374c-0.3112,0.43346 -0.74689,0.84691 -1.30705,1.24036c-0.56238,0.39567 -1.2826,0.76023 -2.16064,1.09366c-0.87804,0.33343 -1.94501,0.63907 -3.20094,0.91693c-0.06669,-0.13337 -0.16116,-0.28897 -0.28342,-0.4668c-0.12226,-0.17783 -0.25563,-0.359 -0.40011,-0.5435c-0.14449,-0.18228 -0.28342,-0.32899 -0.41679,-0.44013c1.17813,-0.22229 2.16508,-0.47014 2.96087,-0.74355c0.79356,-0.27119 1.44376,-0.56017 1.95058,-0.86693c0.50459,-0.30454 0.88805,-0.62129 1.15035,-0.95028c0.26007,-0.32676 0.4379,-0.6602 0.53349,-1.0003c0.09336,-0.33787 0.14004,-0.67353 0.14004,-1.00696v-3.00088M240.00878,384.29654l1.01697,-1.21703c0.46681,0.18894 0.96695,0.40567 1.50044,0.65019c0.53349,0.24452 1.07032,0.50015 1.61048,0.7669c0.53794,0.26675 1.04031,0.53016 1.50711,0.79023c0.46681,0.2623 0.86692,0.5046 1.20035,0.72688l-1.11699,1.41709c-0.30009,-0.2334 -0.67464,-0.48681 -1.12367,-0.76023c-0.45124,-0.27119 -0.94028,-0.54905 -1.4671,-0.83358c-0.52905,-0.2823 -1.06031,-0.55683 -1.5938,-0.82358c-0.53349,-0.26675 -1.04476,-0.50571 -1.53379,-0.71688M233.62355,375.96074h11.73681v7.71896h-1.91724v-6.06846h-7.9857v6.11847h-1.83388z" fill="#ffffff" fill-rule="nonzero" stroke-width="1" stroke-linecap="butt" stroke-linejoin="miter"/></g></g></svg>