<svg version="1.1" xmlns="http://www.w3.org/2000/svg" xmlns:xlink="http://www.w3.org/1999/xlink" width="208" height="32" viewBox="0,0,208,32"><g transform="translate(-240,-164)"><g stroke="none" stroke-miterlimit="10"><path d="M246.14613,176.15784h12.85605v2.06727h-12.85605v-2.06727M247.37516,171.42379h10.35897v12.58966h-2.02888v-10.52239h-8.33009v-2.06727M247.16056,180.9539h9.63716v2.04659h-9.63716v-2.04659M250.55503,172.14734h2.06789v6.90467c0,0.73043 -0.03902,1.48154 -0.11705,2.25332c-0.07803,0.77178 -0.21719,1.53667 -0.41748,2.29467c-0.20289,0.758 -0.49551,1.49119 -0.87788,2.19957c-0.38497,0.71114 -0.88958,1.3768 -1.51385,1.99698c-0.62427,0.62018 -1.3916,1.17834 -2.30199,1.67449c-0.09104,-0.1516 -0.21719,-0.3349 -0.37846,-0.54989c-0.16387,-0.21224 -0.33945,-0.42172 -0.52673,-0.62845c-0.18988,-0.20673 -0.36286,-0.379 -0.51892,-0.51682c0.84536,-0.38589 1.54767,-0.84482 2.10691,-1.3768c0.55924,-0.52922 1.00533,-1.09427 1.33828,-1.69516c0.33034,-0.59813 0.57745,-1.22107 0.74132,-1.86881c0.16127,-0.64774 0.26791,-1.29273 0.31994,-1.93496c0.05202,-0.63947 0.07803,-1.25552 0.07803,-1.84814v-6.90467M245.26825,170.14209l1.95084,0.66153c-0.44219,1.15767 -0.96502,2.31534 -1.56848,3.47301c-0.60606,1.15767 -1.25374,2.24919 -1.94304,3.27455c-0.6893,1.02812 -1.40461,1.93496 -2.14593,2.72052c-0.06503,-0.17916 -0.16257,-0.41345 -0.29263,-0.70287c-0.13006,-0.28942 -0.26662,-0.57883 -0.40968,-0.86825c-0.14306,-0.28942 -0.27962,-0.52371 -0.40968,-0.70287c0.63728,-0.63396 1.25504,-1.37129 1.8533,-2.21198c0.59826,-0.84069 1.151,-1.74339 1.65822,-2.70812c0.50722,-0.96473 0.94291,-1.94323 1.30706,-2.93552M243.33691,175.72371l1.98986,-2.08794l0.01951,0.02067v15.69056h-2.00937zM261.10908,171.05169h16.56265v2.02592h-16.56265v-2.02592M260.66039,186.63888h17.53807v2.04659h-17.53807v-2.04659M272.502,182.07022l2.36052,0.55816c-0.28612,0.62018 -0.58525,1.24725 -0.89739,1.88121c-0.31213,0.63396 -0.62427,1.24036 -0.9364,1.8192c-0.31213,0.57883 -0.61126,1.08876 -0.89739,1.52978l-1.77527,-0.55816c0.26011,-0.46858 0.52673,-1.00607 0.79985,-1.61247c0.27312,-0.6064 0.52673,-1.22658 0.76083,-1.86054c0.2341,-0.63396 0.42919,-1.21969 0.58525,-1.75718M264.11338,182.60771l1.95084,-0.55816c0.20809,0.41345 0.40578,0.85723 0.59306,1.33132c0.18988,0.47685 0.35635,0.93854 0.49942,1.38507c0.14306,0.44929 0.24711,0.85309 0.31213,1.21142l-2.06789,0.66153c-0.06503,-0.34455 -0.16257,-0.75111 -0.29263,-1.21969c-0.13006,-0.46858 -0.28352,-0.94819 -0.4604,-1.43882c-0.17427,-0.48788 -0.35245,-0.94543 -0.53453,-1.37267M264.97175,176.90205v2.95619h8.62272v-2.95619h-8.62272M262.80632,174.81411h13.09015v7.1114h-13.09015zM289.74744,170.10074h2.10691v7.54553h-2.10691v-7.54553M295.8926,170.63823l2.02888,0.76489c-0.87138,1.79163 -1.90922,3.44545 -3.11354,4.96144c-1.20172,1.516 -2.52699,2.86937 -3.97582,4.06011c-1.45143,1.1935 -2.98349,2.21749 -4.59618,3.07196c-0.10404,-0.17916 -0.2406,-0.39003 -0.40968,-0.63258c-0.16907,-0.2398 -0.34205,-0.48098 -0.51892,-0.72354c-0.17427,-0.2398 -0.33294,-0.43551 -0.47601,-0.5871c1.58668,-0.73043 3.07843,-1.63314 4.47523,-2.70812c1.3994,-1.07498 2.65835,-2.30569 3.77683,-3.69214c1.11848,-1.38369 2.05489,-2.88866 2.80921,-4.51491M286.4115,172.12667h7.93993v1.94323h-7.93993v-1.94323M285.65068,176.11649h12.38785v2.02592h-12.38785v-2.02592M289.14268,183.26924h6.63286v1.77785h-6.63286v-1.77785M289.10367,186.72157h6.63286v1.8192h-6.63286v-1.8192M288.14775,179.8169h8.7983v9.48876h-2.06789v-7.64889h-4.74055v7.69023h-1.98986v-9.5301M280.81259,171.81658l1.34608,-1.34372c0.36416,0.28942 0.74522,0.62018 1.14319,0.99229c0.39537,0.37211 0.77513,0.74422 1.13929,1.11632c0.36416,0.37211 0.65678,0.70287 0.87788,0.99229l-1.44362,1.52978c-0.20809,-0.3032 -0.48511,-0.64774 -0.83106,-1.03363c-0.34335,-0.38589 -0.71271,-0.77591 -1.10808,-1.17007c-0.39797,-0.3914 -0.77253,-0.75249 -1.12368,-1.08325M282.4513,188.95422l-0.44869,-2.04659l0.44869,-0.74422l3.41397,-2.66678c0.07803,0.3032 0.18858,0.64774 0.33164,1.03363c0.14306,0.38589 0.27312,0.68909 0.39017,0.9096c-0.80635,0.64774 -1.46313,1.17834 -1.97035,1.5918c-0.50722,0.41345 -0.90389,0.74008 -1.19001,0.97988c-0.28612,0.24256 -0.49811,0.43275 -0.63597,0.57057c-0.13526,0.13782 -0.24841,0.26185 -0.33945,0.37211M279.93471,176.4886h3.60906v2.12929h-3.60906v-2.12929M282.4513,188.95422c-0.07803,-0.1516 -0.19508,-0.32111 -0.35115,-0.50855c-0.15607,-0.18468 -0.31864,-0.36384 -0.48771,-0.53749c-0.16907,-0.17089 -0.31213,-0.30458 -0.42919,-0.40105c0.15607,-0.13782 0.32514,-0.33076 0.50722,-0.57883c0.18208,-0.24807 0.34075,-0.54162 0.47601,-0.88066c0.13786,-0.33628 0.20679,-0.71114 0.20679,-1.12459v-8.43445h2.02888v9.57145c0,0 -0.06503,0.07167 -0.19508,0.215c-0.13006,0.14609 -0.29263,0.33214 -0.48771,0.55816c-0.19508,0.22878 -0.39017,0.47409 -0.58525,0.73595c-0.19508,0.26185 -0.35765,0.51682 -0.48771,0.76489c-0.13006,0.24807 -0.19508,0.4548 -0.19508,0.62018zM314.8938,179.03134h2.06789c0,0 -0.0026,0.05513 -0.0078,0.16538c-0.0078,0.11025 -0.01171,0.23429 -0.01171,0.37211c0,0.13782 -0.0065,0.26185 -0.01951,0.37211c-0.09104,1.84676 -0.18858,3.34484 -0.29263,4.49424c-0.10404,1.15216 -0.2276,2.03833 -0.37066,2.65851c-0.14306,0.62018 -0.31864,1.0612 -0.52673,1.32305c-0.22109,0.27563 -0.4578,0.46858 -0.71011,0.57883c-0.25491,0.11025 -0.55144,0.18605 -0.88958,0.2274c-0.28612,0.04135 -0.65938,0.06202 -1.11978,0.06202c-0.463,0 -0.94811,-0.00689 -1.45533,-0.02067c-0.02601,-0.3032 -0.09364,-0.64774 -0.20289,-1.03363c-0.11185,-0.38589 -0.24581,-0.70976 -0.40187,-0.97162c0.48121,0.04135 0.9299,0.06477 1.34608,0.07029c0.41618,0.00827 0.72181,0.0124 0.9169,0.0124c0.16907,0 0.30953,-0.01378 0.42138,-0.04135c0.10925,-0.02756 0.21589,-0.09647 0.31994,-0.20673c0.14306,-0.16538 0.27312,-0.52371 0.39017,-1.07498c0.11705,-0.55127 0.21849,-1.3644 0.30433,-2.43938c0.08324,-1.07498 0.16387,-2.47383 0.2419,-4.19655v-0.35144M305.25664,181.6361h1.93133v4.89942h-1.93133v-4.89942M310.13374,182.44233h1.91183v5.76768h-1.91183v-5.76768M300.55511,182.48368h1.91183v3.30763h8.46665v1.83987h-10.37848v-5.1475M312.70885,171.83725h1.95084c0,0 0,0.09647 0,0.28942c0,0.19294 -0.0065,0.35144 -0.01951,0.47547c-0.06503,1.03363 -0.13266,1.895 -0.20289,2.58408c-0.07283,0.68909 -0.15737,1.23347 -0.25361,1.63314c-0.09884,0.39967 -0.2328,0.68909 -0.40187,0.86825c-0.15607,0.20673 -0.32774,0.35419 -0.51502,0.4424c-0.18988,0.09096 -0.40838,0.15022 -0.65548,0.17779c-0.20809,0.04135 -0.47731,0.06477 -0.80765,0.07029c-0.33294,0.00827 -0.688,0.00551 -1.06516,-0.00827c-0.02601,-0.3032 -0.08454,-0.6381 -0.17558,-1.00469c-0.09104,-0.36384 -0.20809,-0.67668 -0.35115,-0.93854c0.29913,0.02756 0.57225,0.04824 0.81935,0.06202c0.24711,0.01378 0.43569,0.02067 0.56574,0.02067c0.11705,0 0.22109,-0.01378 0.31213,-0.04135c0.09104,-0.02756 0.16907,-0.08269 0.2341,-0.16538c0.13006,-0.1516 0.2406,-0.53749 0.33164,-1.15767c0.09104,-0.62018 0.16907,-1.63314 0.2341,-3.03888v-0.26874M306.97338,170.01805l2.49708,0.2274c-0.20809,0.50993 -0.44219,1.00194 -0.7023,1.47603c-0.26011,0.47685 -0.49421,0.88755 -0.7023,1.23209l-1.8533,-0.35144c0.14306,-0.38589 0.29003,-0.82002 0.44089,-1.30238c0.14826,-0.48236 0.25491,-0.9096 0.31994,-1.28171M304.82745,175.76506l1.03395,-1.40574c0.4552,0.16538 0.94291,0.36522 1.46313,0.59951c0.52023,0.23429 1.01834,0.47547 1.49434,0.72354c0.4734,0.24807 0.86617,0.48236 1.17831,0.70287l-1.09247,1.55045c-0.28612,-0.22051 -0.66329,-0.46169 -1.13149,-0.72354c-0.4682,-0.26185 -0.95851,-0.52095 -1.47093,-0.77729c-0.51502,-0.25359 -1.00663,-0.47685 -1.47484,-0.66979M313.31361,171.83725v1.98458h-9.28601v5.20951h11.49046v1.94323h-13.53884v-9.13732z" fill="#ffffff" stroke-width="1"/><path d="M240,196v-32h208v32z" fill="none" stroke-width="0"/></g></g></svg>