<svg version="1.1" xmlns="http://www.w3.org/2000/svg" xmlns:xlink="http://www.w3.org/1999/xlink" width="208" height="32" viewBox="0,0,208,32"><g transform="translate(-240,-164)"><g stroke-miterlimit="10"><path d="M305.80019,179.7614v1.51122h-5.34713v5.39139c0,0.89856 -0.17767,1.52824 -0.533,1.88903c-0.35533,0.36078 -0.9399,0.54119 -1.75372,0.54119h-1.85688l-0.22352,-1.61334h1.75373c0.35533,0 0.61896,-0.03064 0.79089,-0.0919c0.17194,-0.06126 0.28942,-0.17698 0.35246,-0.34717c0.06304,-0.17019 0.09456,-0.43227 0.09456,-0.78625v-4.98295h-5.81135v-1.53164c0.61896,-1.10279 1.38693,-2.6957 2.30391,-4.77873h-3.55902v-1.53164h4.22956c0.45849,-1.10279 0.83675,-2.08304 1.13477,-2.94076l1.30669,0.61266c-0.1834,0.58543 -0.47568,1.36146 -0.87686,2.3281h8.71703v1.53164h-9.37038c-0.98575,2.27364 -1.74226,3.87336 -2.26952,4.79915h4.19518v-3.57384h1.37547v3.57384zM289.75879,183.64157h-8.5451c-0.87113,1.14363 -1.93712,2.3281 -3.19797,3.55341l7.71982,-0.34717l-1.89127,-2.12388l0.84248,-1.00068c0.49288,0.53097 0.96569,1.04833 1.41845,1.55206c0.45276,0.50374 0.85107,0.94622 1.19494,1.32743c1.23792,1.38869 1.74799,1.9537 1.53021,1.69502l-0.89406,1.16405c-0.19486,-0.24507 -0.55018,-0.67392 -1.06599,-1.28658l-10.62549,0.5514l-0.32667,-1.44996c1.35255,-1.14363 2.53888,-2.35532 3.55903,-3.6351h-4.93449v-1.3887h2.26952v-10.6194h10.6255v10.6194h2.3211zM341.35605,180.4149v1.38869h-1.77092l-0.10316,3.1654h1.5474v1.40911h-1.58179l-0.01719,0.3676c-0.03438,0.62627 -0.12895,1.10959 -0.28369,1.44996c-0.15474,0.34036 -0.39544,0.58202 -0.72212,0.72498c-0.32668,0.14296 -0.7823,0.21443 -1.36687,0.21443h-2.56181l-0.2579,-1.42954h2.40707c0.57311,0 0.97143,-0.0919 1.19494,-0.27569c0.22352,-0.1838 0.34673,-0.52076 0.36965,-1.01089v-0.04085h-7.71981l0.42984,-4.57451h-1.34109v-1.38869h1.46143l0.37826,-4.06396c-0.34386,0.51736 -0.6075,0.89856 -0.7909,1.14363l-0.87686,-1.10278c0.63043,-0.83049 1.22932,-1.77671 1.7967,-2.83865c0.56738,-1.06194 1.02874,-2.08984 1.38407,-3.08371l1.15195,0.4697c-0.19486,0.53097 -0.41837,1.08236 -0.67054,1.65418h7.53069v1.38869h-8.18404c-0.36679,0.72158 -0.69919,1.32062 -0.99721,1.79713h7.99491l-0.13755,4.63578zM357.53499,183.90705l1.0316,0.38801c-0.06878,0.76242 -0.1662,1.59291 -0.29228,2.49148c-0.12608,0.95302 -0.31234,1.60312 -0.55879,1.9503c-0.24644,0.34717 -0.57024,0.52076 -0.97143,0.52076c-0.73359,0 -1.32389,-0.67393 -1.77092,-2.02178c-0.13754,-0.42206 -0.25216,-0.83049 -0.34386,-1.22531c-0.75651,1.18447 -1.64483,2.29407 -2.66497,3.32878l-0.85967,-1.20489c1.34108,-1.36146 2.38988,-2.66846 3.14639,-3.92101c-0.40118,-2.43702 -0.65335,-5.38458 -0.75651,-8.8427h-5.31275v-1.40911h5.27836c-0.03438,-1.22531 -0.05158,-2.28045 -0.05158,-3.1654l1.18634,-0.02042c0.01146,0.29952 0.02866,1.36146 0.05158,3.18582h1.56459c-0.20632,-0.84411 -0.43556,-1.64056 -0.68773,-2.38936l0.99721,-0.40844c0.32094,1.04833 0.59604,1.98093 0.82528,2.7978h1.13476v1.40911h-3.81692c0.04585,2.72293 0.20632,5.1191 0.48141,7.18852c0.64189,-1.37508 1.26085,-3.21986 1.85688,-5.53434l1.06599,0.42886c-0.65335,2.72293 -1.51875,5.09187 -2.5962,7.10683c0.11462,0.61266 0.27509,1.23212 0.48141,1.8584c0.14901,0.42206 0.28369,0.70796 0.40404,0.85772c0.12036,0.14976 0.24931,0.22464 0.38685,0.22464c0.14901,0 0.26363,-0.11232 0.34387,-0.33696c0.08024,-0.22464 0.16047,-0.64329 0.2407,-1.25595zM248.49474,178.98537h6.70541v1.57249h-6.70541v8.88354h-1.46143v-8.88354h-6.77418v-1.57249h6.77418v-4.90126c-2.26952,0.24507 -4.16079,0.40843 -5.6738,0.49013l-0.05158,-1.57249c1.71934,-0.06807 3.7768,-0.25868 6.17242,-0.57182c2.39561,-0.31313 4.43015,-0.64669 6.10364,-1.00068l0.27509,1.63376c-1.68495,0.32675 -3.47306,0.60585 -5.36433,0.8373zM323.80163,173.55313l-1.42705,5.20759c0.6075,0.93941 1.03161,1.77331 1.27231,2.50169c0.2407,0.72838 0.36106,1.50101 0.36106,2.31789c0,1.15724 -0.20632,1.98093 -0.61896,2.47106c-0.41264,0.49013 -1.1061,0.73519 -2.08039,0.73519h-0.98003l-0.2579,-1.44995h0.89405c0.67627,0 1.14909,-0.14636 1.41845,-0.43908c0.26936,-0.29271 0.40404,-0.81347 0.40404,-1.56227c0,-0.6535 -0.13468,-1.32062 -0.40404,-2.00135c-0.26936,-0.68073 -0.69633,-1.43635 -1.2809,-2.26684l1.39266,-5.53434h-2.88849v15.94952h-1.22073v-17.46075h5.41591zM268.83448,170.73491v6.96388h3.78254v1.51122h-3.78254v10.21097h-1.35827v-10.21097h-3.64499v-1.53164h3.64499v-6.94345zM348.04426,183.62114l0.18912,1.53164c-0.63043,0.20422 -1.50728,0.50034 -2.63058,0.88836c-1.1233,0.38801 -1.84542,0.6569 -2.16636,0.80666l-0.2751,-1.55206l2.04601,-0.67392v-7.20894h-1.73653v-1.47038h1.73653v-4.96252h1.20353v4.96252h1.54741v1.47038h-1.54741v6.8005zM317.04464,174.51296h-1.2895c-0.13754,1.26616 -0.31521,2.45744 -0.53299,3.57384h2.3211v1.47038h-8.61387v-1.47038h2.20075c-0.21778,-1.55206 -0.41837,-2.74335 -0.60177,-3.57384h-1.16915v-1.44995h3.3527c-0.14901,-0.72158 -0.32094,-1.38869 -0.5158,-2.00135l1.27231,-0.36759c0.22924,0.81688 0.4241,1.60653 0.58457,2.36894h2.99164zM259.34375,186.25557v1.71544h-1.25511v-15.17349h5.08923v13.45805zM311.13013,187.74637v1.36827h-1.20354v-7.69907h6.56787v6.3308zM259.34375,184.68308h2.579v-10.31307h-2.579zM286.19977,182.25287v-2.24641h-8.13246v2.24641zM278.0673,176.51431v2.16473h8.13246v-2.16473zM278.0673,175.22773h8.13246v-2.14431h-8.13246zM331.81374,184.96899h6.4475l0.03438,-0.75561c0.04585,-0.92579 0.07451,-1.72905 0.08597,-2.40978h-6.25838zM338.55353,177.16781h-5.98329l-0.30948,3.24709h6.17242c0.08024,-1.86521 0.12036,-2.94757 0.12036,-3.24709zM352.48015,183.25355h-3.92008v-5.75898h3.92008zM327.61856,189.31886l-1.23792,-0.44929l1.66775,-7.02514l1.16915,0.42886c-0.0917,0.38121 -0.58457,2.53913 -1.47863,6.47375zM295.57014,182.35498l1.0488,1.06194c-0.55018,0.92579 -1.19494,1.87882 -1.93425,2.85907c-0.73931,0.98025 -1.45857,1.81074 -2.15776,2.49147l-0.89406,-1.32742c0.67627,-0.59904 1.36687,-1.36146 2.0718,-2.28726c0.70493,-0.92579 1.32675,-1.85839 1.86548,-2.7978zM301.74256,183.53946l0.92844,-1.14363c0.53872,0.58543 1.22646,1.37167 2.0632,2.35873c0.83675,0.98706 1.57033,1.8618 2.20075,2.62421l-0.96283,1.22532c-0.57311,-0.76242 -1.27803,-1.64737 -2.11478,-2.65485c-0.83675,-1.00748 -1.54168,-1.81074 -2.11479,-2.40978zM311.13013,186.35768h4.1608v-3.49215h-4.1608zM352.61769,184.58097l0.18913,1.47038c-0.64189,0.17699 -1.59039,0.44588 -2.8455,0.80666c-1.25511,0.36078 -2.02022,0.58883 -2.29532,0.68413l-0.27509,-1.4908c0.67627,-0.17699 1.64483,-0.43907 2.90568,-0.78625c1.26085,-0.34717 2.03454,-0.57522 2.3211,-0.68413zM314.58599,174.51296h-2.8369c0.29802,1.68821 0.4986,2.8795 0.60177,3.57384h1.70214c0.20632,-1.06194 0.38398,-2.25322 0.53299,-3.57384zM329.66457,178.61777l-0.73931,1.28658c-1.39839,-1.44315 -2.32684,-2.36894 -2.78532,-2.77738l0.73931,-1.18447zM330.14598,173.73693l-0.70493,1.20489c-0.83675,-0.81688 -1.75946,-1.68141 -2.76813,-2.59359l0.73932,-1.16405c0.64189,0.57181 1.55313,1.42273 2.73374,2.55274zM349.59166,178.82199v3.10413h1.83969v-3.10413zM336.64507,183.86621l-0.72212,1.06194c-0.25217,-0.2723 -0.59891,-0.61265 -1.0402,-1.0211c-0.4413,-0.40844 -0.83388,-0.76242 -1.17775,-1.06194l0.65335,-1.0211c0.79089,0.68073 1.55313,1.36147 2.28672,2.0422zM334.01448,178.25018l0.65335,-1.04152c1.00867,0.87133 1.74226,1.53845 2.20075,2.00135l-0.68774,1.10279c-0.61896,-0.62627 -1.34108,-1.31381 -2.16636,-2.06261z" fill="#ffffff" fill-rule="evenodd" stroke="#ffffff" stroke-width="0.5" stroke-linecap="round"/><path d="M240,196v-32h208v32z" fill="none" fill-rule="nonzero" stroke="none" stroke-width="0" stroke-linecap="butt"/></g></g></svg>