<svg version="1.1" xmlns="http://www.w3.org/2000/svg" xmlns:xlink="http://www.w3.org/1999/xlink" width="126" height="100" viewBox="0,0,126,100"><g transform="translate(-177,-130)"><g stroke-miterlimit="10"><path d="M177,230v-100h126v100z" fill="none" fill-rule="nonzero" stroke="#959196" stroke-width="0" stroke-linecap="butt"/><path d="M177,230v-100h126v100z" fill="none" fill-rule="nonzero" stroke="#959196" stroke-width="0" stroke-linecap="butt"/><path d="M250.30092,191.84878l-1.45078,2.39548c-2.69913,-1.88939 -5.00463,-3.84626 -6.91652,-5.8706c-1.95687,2.06933 -4.59977,4.14991 -7.92869,6.24173l-1.45078,-2.19304c3.12649,-1.8444 5.70191,-3.84626 7.72626,-6.00556c-1.95687,-2.49669 -3.48637,-5.4095 -4.58852,-8.73843c-0.29241,2.99153 -0.87159,5.70191 -1.73756,8.13112c-0.86597,2.42922 -2.19866,5.06087 -3.99808,7.89495l-1.72069,-2.05809c1.8444,-2.74411 3.17148,-5.46011 3.98121,-8.14799c0.80974,-2.68788 1.30458,-5.94371 1.48452,-9.76747c0.04499,-1.01217 0.10122,-2.91281 0.1687,-5.70191h-3.50887v-2.46295h16.29599v2.36174l-2.76661,6.208h4.79095v2.328c-0.69727,2.06933 -1.4564,3.91936 -2.27739,5.55008c-0.82099,1.63072 -1.7713,3.12087 -2.85095,4.47043c1.75443,1.82191 4.00371,3.61008 6.74782,5.36452zM231.54197,179.534l-1.28209,2.1593c-1.12464,-1.16962 -2.13681,-2.1593 -3.03652,-2.96904v15.55373h-2.36174v-15.99234c-1.16962,3.12649 -2.41797,5.74689 -3.74504,7.86121l-1.21461,-2.46295c0.9222,-1.34956 1.83878,-3.04777 2.74974,-5.09461c0.91096,-2.04684 1.64759,-4.08243 2.20991,-6.10678v-0.10122h-4.11617v-2.42922h4.11617v-6.37669h2.36174v6.37669h4.04869v2.42922h-4.04869v3.37391c2.04684,1.68696 3.48637,2.94655 4.31861,3.77878zM246.11727,176.49748h-4.95965v-2.05809l2.83408,-6.41043h-7.82747c0,1.03467 -0.03374,2.1593 -0.10122,3.37391c0.6073,2.74411 1.3833,5.1902 2.328,7.33826c0.94469,2.14806 2.10307,4.08805 3.47513,5.82c1.73194,-2.22678 3.14898,-4.91466 4.25113,-8.06365z" fill="#ff0000" fill-rule="evenodd" stroke="#ff0000" stroke-width="0.45" stroke-linecap="round"/><path d="M277.97931,184.69609l2.22678,1.11339c-0.3149,1.91188 -0.67478,3.45264 -1.07965,4.62226c-0.44986,1.30458 -1.01217,2.22678 -1.68696,2.76661c-0.67478,0.53983 -1.43953,0.80974 -2.29426,0.80974c-1.91188,0 -3.65507,-1.21461 -5.22956,-3.64382c-0.38238,-0.58481 -0.776,-1.33832 -1.18087,-2.26052c-2.87907,1.50701 -6.07304,2.84533 -9.58191,4.01495l-1.01217,-2.46295c3.55385,-1.12464 6.80405,-2.42922 9.7506,-3.91374c-0.56232,-1.82191 -1.02342,-3.86875 -1.3833,-6.14052l-6.84904,0.91096l-0.23617,-2.39548l6.74782,-0.91096c-0.17994,-1.30458 -0.3149,-2.66539 -0.40487,-4.08243l-5.97182,0.70852l-0.23617,-2.39548l6.00556,-0.70852l-0.40487,-7.18643l2.53043,-0.06748c0.13496,2.56417 0.28116,4.88092 0.43861,6.95026l6.57913,-0.776c-1.01217,-1.05716 -2.55293,-2.51919 -4.62226,-4.38608l1.45078,-1.51826c0.78725,0.65229 1.65884,1.41142 2.61478,2.27739c0.95594,0.86597 1.72632,1.6251 2.31113,2.27739l-1.28209,1.28209l3.98121,-0.47235l0.20243,2.39548l-11.06643,1.31583c0.15745,1.70945 0.30365,3.05901 0.43861,4.04869l11.20138,-1.51826l0.23617,2.39548l-11.10017,1.48452c0.35988,2.11432 0.74226,3.85751 1.14713,5.22956c2.87907,-1.68696 5.20707,-3.4189 6.98399,-5.19582l1.45078,1.78817c-1.91188,1.95687 -4.44232,3.86875 -7.5913,5.73565c0.38238,0.9222 0.82099,1.75443 1.31583,2.49669c0.83223,1.25959 1.74319,1.88939 2.73287,1.88939c0.47235,0 0.85472,-0.1687 1.14713,-0.50609c0.29241,-0.33739 0.57356,-1.02342 0.84348,-2.05809c0.42736,-1.66446 0.71977,-2.96904 0.87722,-3.91374zM256.11637,181.49087l1.14713,0.47235l1.18087,0.40487c-2.29426,5.8706 -3.76753,9.76185 -4.41982,11.67373l-2.36174,-1.04591c0.49484,-1.10214 1.25397,-2.98591 2.27739,-5.6513c1.02342,-2.66539 1.74881,-4.61663 2.17617,-5.85373zM258.6468,177.07105l-1.48452,2.1593c-1.79942,-1.50701 -3.99246,-3.2502 -6.57913,-5.22956l1.41704,-2.02435c1.01217,0.71977 2.14806,1.56887 3.40765,2.5473c1.25959,0.97843 2.33925,1.82753 3.23895,2.5473zM259.89515,169.04114l-1.3833,2.05809c-2.74411,-2.18179 -4.79095,-3.79003 -6.14052,-4.82469l1.41704,-1.88939c1.48452,1.03467 3.52011,2.58666 6.10678,4.656z" fill="#ff0000" fill-rule="evenodd" stroke="#ff0000" stroke-width="0.45" stroke-linecap="round"/></g></g></svg>