<svg version="1.1" xmlns="http://www.w3.org/2000/svg" xmlns:xlink="http://www.w3.org/1999/xlink" width="192" height="36" viewBox="0,0,192,36"><g transform="translate(-144,-162)"><g stroke="none" stroke-miterlimit="10"><path d="M144,198v-36h192v36z" fill="none" fill-rule="nonzero" stroke-linecap="butt" stroke-linejoin="miter"/><path d="M317,164c9.31184,0 17,7.09393 17,16c0,8.90606 -7.68816,16 -17,16h-154c-9.31184,0 -17,-7.09394 -17,-16c0,-8.90607 7.68816,-16 17,-16z" fill="#7d97b4" fill-rule="evenodd" stroke-linecap="round" stroke-linejoin="round"/><path d="M163,166h154c8.31,0 15,6.244 15,14c0,7.75599 -6.69,13.99999 -15,13.99999h-154c-8.31,0 -15,-6.244 -15,-13.99999c0,-7.756 6.69,-14 15,-14z" fill="#31476d" fill-rule="evenodd" stroke-linecap="round" stroke-linejoin="round"/><path d="M176.66061,172.94919h9.80731v1.63352h-9.80731v-1.63352M175.85715,172.94919h1.35185v4.81722c0,0.70008 -0.01445,1.4635 -0.04336,2.29026c-0.03061,0.82898 -0.09267,1.67908 -0.1862,2.55029c-0.09352,0.87343 -0.22701,1.71797 -0.40045,2.53362c-0.17515,0.81787 -0.40726,1.56018 -0.69633,2.22692c-0.08502,-0.0889 -0.2015,-0.19224 -0.34944,-0.31004c-0.14964,-0.11557 -0.29843,-0.22891 -0.44637,-0.34004c-0.14964,-0.11112 -0.28397,-0.18891 -0.40301,-0.23336c0.27207,-0.63341 0.48718,-1.32015 0.64532,-2.06024c0.15644,-0.73786 0.27122,-1.49573 0.34434,-2.27359c0.07142,-0.77787 0.11988,-1.5424 0.14539,-2.2936c0.02551,-0.74897 0.03826,-1.44572 0.03826,-2.09024v-4.81722M179.4791,179.76664v1.23347h4.66772v-1.23347h-4.66772M179.4791,177.28302v1.21681h4.66772v-1.21681h-4.66772M178.14,175.93287h7.40968v6.4174h-7.40968v-6.4174M181.14978,181.30015h1.32635v4.63386c0,0.41116 -0.03826,0.73897 -0.11478,0.98345c-0.07652,0.24447 -0.22531,0.42783 -0.44637,0.55006c-0.22956,0.12224 -0.51183,0.19447 -0.84682,0.21669c-0.33669,0.02222 -0.73459,0.03334 -1.19371,0.03334c-0.02551,-0.23336 -0.07652,-0.49784 -0.15304,-0.79342c-0.07652,-0.29337 -0.15729,-0.55673 -0.24231,-0.79009c0.30608,0.01111 0.59941,0.01889 0.87998,0.02334c0.28057,0.00667 0.46337,0.00445 0.54839,-0.00667c0.10203,0 0.16834,-0.02 0.19895,-0.06001c0.02891,-0.03778 0.04336,-0.10112 0.04336,-0.19002v-4.60053M180.89471,174.64939l1.63243,0.2667c-0.17855,0.38893 -0.35879,0.75786 -0.54074,1.10679c-0.18365,0.35115 -0.35199,0.65452 -0.50503,0.9101l-1.27533,-0.33337c0.13604,-0.28892 0.26612,-0.61452 0.39025,-0.97678c0.12243,-0.36004 0.22191,-0.68452 0.29843,-0.97344M183.22857,183.68375l1.08403,-0.75009c0.23806,0.33337 0.49738,0.70564 0.77795,1.11679c0.28057,0.41116 0.55094,0.8112 0.81111,1.20014c0.25847,0.38893 0.46847,0.73342 0.63001,1.03345l-1.17331,0.88343c-0.14454,-0.30003 -0.34009,-0.65341 -0.58665,-1.06012c-0.24656,-0.40449 -0.50588,-0.82121 -0.77795,-1.25014c-0.27207,-0.42672 -0.52714,-0.81787 -0.7652,-1.17347M178.96896,182.93367l1.30084,0.55006c-0.21256,0.41116 -0.44637,0.83898 -0.70143,1.28348c-0.25507,0.4445 -0.51183,0.86677 -0.7703,1.26681c-0.26017,0.40005 -0.50503,0.75009 -0.73459,1.05012c-0.08502,-0.0889 -0.19725,-0.19447 -0.33669,-0.3167c-0.14114,-0.12224 -0.28397,-0.24225 -0.42851,-0.36004c-0.14454,-0.11557 -0.27632,-0.21225 -0.39535,-0.29003c0.3656,-0.41116 0.73799,-0.90566 1.11719,-1.4835c0.3775,-0.57784 0.69378,-1.14458 0.94885,-1.70019zM194.2602,175.18278h5.07582v1.65019h-5.07582v-1.65019M194.63005,172.16577l1.35185,0.3167c-0.16154,1.06679 -0.36305,2.10802 -0.60451,3.12369c-0.24316,1.01789 -0.52204,1.96578 -0.83662,2.84366c-0.31458,0.87788 -0.66742,1.65019 -1.05853,2.31693c-0.06802,-0.12224 -0.16324,-0.27003 -0.28567,-0.44338c-0.12413,-0.17113 -0.25167,-0.34004 -0.3826,-0.50672c-0.13263,-0.16669 -0.24997,-0.30559 -0.35199,-0.41671c0.35709,-0.56673 0.67338,-1.23347 0.94885,-2.00023c0.27717,-0.76675 0.51779,-1.59796 0.72184,-2.49362c0.20405,-0.89344 0.36985,-1.80687 0.49738,-2.74031M197.321,176.2329l1.41562,0.21669c-0.22106,1.8891 -0.54669,3.55596 -0.9769,5.00057c-0.42851,1.44461 -1.00241,2.68586 -1.7217,3.72376c-0.71759,1.04012 -1.62477,1.91577 -2.72156,2.62697c-0.04251,-0.15557 -0.11053,-0.33671 -0.20405,-0.5434c-0.09352,-0.20447 -0.193,-0.40671 -0.29843,-0.60674c-0.10713,-0.20002 -0.2032,-0.36671 -0.28823,-0.50006c1.00326,-0.57784 1.82798,-1.32015 2.47415,-2.22692c0.64617,-0.90455 1.1546,-1.99356 1.5253,-3.26704c0.369,-1.27126 0.63426,-2.74587 0.79581,-4.42384M194.96163,176.53294c0.21256,1.45572 0.51013,2.81365 0.89273,4.0738c0.3826,1.26237 0.87998,2.36583 1.49214,3.31038c0.61216,0.94455 1.3561,1.67797 2.23183,2.20025c-0.10203,0.11112 -0.21256,0.25781 -0.33159,0.44005c-0.11903,0.18447 -0.22956,0.37115 -0.33159,0.56006c-0.10203,0.18891 -0.1913,0.36115 -0.26782,0.51673c-0.92674,-0.63341 -1.70895,-1.47572 -2.34661,-2.52696c-0.63767,-1.04901 -1.158,-2.27359 -1.56101,-3.67375c-0.40471,-1.40016 -0.73459,-2.93922 -0.98966,-4.61719l1.21157,-0.28337M188.20237,187.16749l-0.1913,-1.73353l0.5739,-0.66674l4.08106,-1.85021c0,0.2667 0.017,0.5634 0.05101,0.8901c0.03401,0.32893 0.06802,0.5934 0.10203,0.79342c-0.73969,0.36671 -1.36461,0.67786 -1.87474,0.93344c-0.51013,0.25558 -0.92674,0.47228 -1.24983,0.65007c-0.32308,0.1778 -0.5824,0.32448 -0.77795,0.44005c-0.19555,0.11779 -0.34689,0.2178 -0.45402,0.30003c-0.10543,0.08445 -0.19215,0.16557 -0.26017,0.24336M188.20237,187.16749c-0.02551,-0.1778 -0.06632,-0.38116 -0.12243,-0.61007c-0.05441,-0.22669 -0.11563,-0.4545 -0.18365,-0.68341c-0.06802,-0.22669 -0.14029,-0.41227 -0.21681,-0.55673c0.11903,-0.07779 0.22531,-0.19447 0.31883,-0.35004c0.09352,-0.15557 0.14029,-0.38338 0.14029,-0.68341v-6.26738h1.37736v7.80089c0,0 -0.04421,0.02778 -0.13263,0.08334c-0.09012,0.05556 -0.20065,0.12446 -0.33159,0.20669c-0.13263,0.08445 -0.26527,0.18447 -0.3979,0.30003c-0.13093,0.11779 -0.23891,0.24003 -0.32393,0.36671c-0.08502,0.1289 -0.12753,0.26003 -0.12753,0.39338M187.99832,173.24923h4.68047v6.53408h-4.25961v-1.76687h2.90776v-3.01701h-3.32862zM205.44487,174.11599h6.05783v1.51684h-6.05783v-1.51684M203.79969,177.24969h8.23865v1.50017h-8.23865v-1.50017M205.22806,172.34913l1.26258,0.36671c-0.17855,0.83343 -0.41491,1.64463 -0.70908,2.43361c-0.29248,0.78898 -0.60876,1.45017 -0.94885,1.98356c-0.08502,-0.0889 -0.19725,-0.18335 -0.33669,-0.28337c-0.14114,-0.10001 -0.28397,-0.20336 -0.42851,-0.31004c-0.14454,-0.10446 -0.27207,-0.18447 -0.3826,-0.24003c0.34859,-0.48894 0.65467,-1.08679 0.91824,-1.79354c0.26357,-0.70453 0.47187,-1.4235 0.62491,-2.15691M207.30685,172.16577h1.35185v6.08403h-1.35185v-6.08403M200.54759,173.71595l1.02027,-0.96678c0.23806,0.25558 0.48293,0.53562 0.73459,0.8401c0.24997,0.3067 0.48548,0.61563 0.70653,0.92677c0.22106,0.31115 0.39535,0.59451 0.52289,0.8501l-1.08403,1.08346c-0.11053,-0.2667 -0.27207,-0.56118 -0.48463,-0.88343c-0.21256,-0.32226 -0.44212,-0.64452 -0.68868,-0.96678c-0.24656,-0.32226 -0.48888,-0.61674 -0.72694,-0.88343M203.26405,178.58317v6.36739h-1.31359v-4.70054h-1.51765v-1.66686h2.83124M206.03152,181.31682v1.93355h3.72397v-1.93355h-3.72397M204.74343,179.86665h6.37666v4.81722h-6.37666v-4.81722M202.83043,184.36717c0.18705,0 0.3656,0.08334 0.53564,0.25003c0.17004,0.16669 0.40386,0.36115 0.70143,0.5834c0.3826,0.30003 0.85022,0.48894 1.40287,0.56673c0.55264,0.07779 1.16906,0.11668 1.84923,0.11668c0.35709,0 0.755,-0.00889 1.19371,-0.02667c0.43701,-0.01556 0.88508,-0.03778 1.3442,-0.06667c0.45912,-0.02667 0.90549,-0.06556 1.3391,-0.11668c0.43361,-0.04889 0.82046,-0.10668 1.16055,-0.17335c-0.04251,0.15557 -0.09352,0.34448 -0.15304,0.56673c-0.05952,0.22225 -0.11053,0.44116 -0.15304,0.65674c-0.04251,0.2178 -0.06802,0.40449 -0.07652,0.56006c-0.28057,0.02222 -0.61896,0.04112 -1.01516,0.05667c-0.3945,0.01778 -0.81111,0.03445 -1.24983,0.05001c-0.43701,0.01778 -0.86382,0.03223 -1.28043,0.04334c-0.41661,0.01111 -0.79921,0.01667 -1.1478,0.01667c-0.7652,0 -1.41732,-0.05001 -1.95636,-0.15002c-0.54074,-0.10001 -1.01516,-0.30559 -1.42327,-0.61674c-0.23806,-0.18891 -0.44807,-0.37004 -0.63001,-0.5434c-0.18365,-0.17113 -0.33924,-0.2567 -0.46677,-0.2567c-0.12753,0 -0.28057,0.08556 -0.45912,0.2567c-0.17855,0.17335 -0.36305,0.39893 -0.55349,0.67674c-0.19215,0.27781 -0.386,0.57229 -0.58155,0.88343l-0.82897,-1.56685c0.41661,-0.50006 0.84427,-0.92011 1.28298,-1.26014c0.43701,-0.33782 0.82556,-0.50672 1.16565,-0.50672zM214.35944,176.63295h3.91527v1.56685h-3.91527v-1.56685M219.42251,176.83297h4.31062v1.63352h-4.31062v-1.63352M216.09389,172.1491h1.23707v5.40062h-1.23707v-5.40062M214.42321,180.23336h3.17558v7.45085h-1.24983v-5.86734h-1.92575v-1.58351M213.8238,172.58249h1.26258v6.50074c0,0.7223 -0.01275,1.47461 -0.03826,2.25692c-0.02551,0.78453 -0.07822,1.5624 -0.15814,2.3336c-0.08162,0.77342 -0.19895,1.51239 -0.35199,2.21692c-0.15304,0.70675 -0.36134,1.34349 -0.62491,1.91022c-0.06802,-0.11112 -0.15984,-0.23669 -0.27547,-0.37671c-0.11393,-0.13779 -0.23296,-0.27336 -0.35709,-0.40671c-0.12243,-0.13335 -0.23466,-0.23892 -0.33669,-0.3167c0.20405,-0.51117 0.36389,-1.08124 0.47953,-1.7102c0.11393,-0.62674 0.19895,-1.27903 0.25507,-1.95689c0.05441,-0.67786 0.09182,-1.35349 0.11223,-2.0269c0.02211,-0.67119 0.03316,-1.31237 0.03316,-1.92355v-6.50074M223.37604,176.83297h0.24231l0.21681,-0.05001l0.81621,0.2667c-0.16154,1.85577 -0.44467,3.47818 -0.84937,4.86722c-0.40301,1.38905 -0.91484,2.56363 -1.5355,3.52374c-0.62066,0.96233 -1.3476,1.74353 -2.18082,2.3436c-0.05101,-0.14446 -0.12328,-0.30892 -0.21681,-0.49339c-0.09352,-0.18224 -0.1913,-0.36226 -0.29333,-0.54006c-0.10203,-0.1778 -0.20405,-0.3167 -0.30608,-0.41671c0.73969,-0.45561 1.39011,-1.11457 1.95126,-1.97689c0.56115,-0.8601 1.02452,-1.89577 1.39011,-3.10702c0.3656,-1.21125 0.62066,-2.57252 0.7652,-4.0838v-0.33337M220.97842,177.91643c0.19555,1.24459 0.46932,2.41694 0.82131,3.51707c0.35369,1.10013 0.79411,2.07246 1.32124,2.917c0.52714,0.84454 1.1478,1.51128 1.86199,2.00023c-0.09352,0.11112 -0.1981,0.25003 -0.31373,0.41671c-0.11393,0.16669 -0.22361,0.33893 -0.32904,0.51673c-0.10713,0.1778 -0.19895,0.34448 -0.27547,0.50006c-0.73969,-0.60007 -1.37736,-1.37794 -1.913,-2.3336c-0.53564,-0.95566 -0.97946,-2.04801 -1.33145,-3.27704c-0.35369,-1.22681 -0.64532,-2.5514 -0.87488,-3.97379l1.03302,-0.28337M224.06472,172.26578l0.79071,1.55018c-0.55264,0.15557 -1.15375,0.29448 -1.80332,0.41671c-0.65127,0.12224 -1.31699,0.22225 -1.99717,0.30003c-0.68018,0.07779 -1.3391,0.1389 -1.97677,0.18335c-0.017,-0.22225 -0.06122,-0.47783 -0.13263,-0.76675c-0.07312,-0.28892 -0.14369,-0.53895 -0.21171,-0.75009c0.62066,-0.05556 1.25663,-0.13113 1.9079,-0.22669c0.64957,-0.09334 1.26938,-0.19891 1.85943,-0.3167c0.59175,-0.11557 1.11294,-0.24558 1.56356,-0.39004M218.73383,173.19922h1.30084v5.65065c0,0.71119 -0.01445,1.46683 -0.04336,2.26693c-0.03061,0.80009 -0.08842,1.60018 -0.17345,2.40027c-0.08502,0.80009 -0.21256,1.57462 -0.3826,2.3236c-0.17004,0.7512 -0.39535,1.43239 -0.67593,2.04357c-0.08502,-0.11112 -0.193,-0.2278 -0.32393,-0.35004c-0.13263,-0.12224 -0.26697,-0.24447 -0.40301,-0.36671c-0.13604,-0.12224 -0.25932,-0.21669 -0.36985,-0.28337c0.23806,-0.55562 0.42681,-1.17013 0.56625,-1.84354c0.14114,-0.67119 0.24741,-1.36793 0.31883,-2.09024c0.07312,-0.7223 0.12243,-1.4335 0.14794,-2.13358c0.02551,-0.70008 0.03826,-1.35571 0.03826,-1.96689zM226.14351,175.48282h11.24843v1.81687h-11.24843v-1.81687M228.26056,183.01701h6.95056v1.81687h-6.95056v-1.81687M231.01528,172.18244h1.45388v15.55178h-1.45388v-15.55178M229.84198,176.13289l1.24983,0.46672c-0.30608,1.17791 -0.67763,2.30248 -1.11464,3.37372c-0.43871,1.07346 -0.93014,2.05468 -1.47428,2.94367c-0.54414,0.88899 -1.1308,1.65019 -1.75996,2.28359c-0.07652,-0.15557 -0.1743,-0.32226 -0.29333,-0.50006c-0.11903,-0.1778 -0.24231,-0.35337 -0.36985,-0.52673c-0.12753,-0.17113 -0.24231,-0.31226 -0.34434,-0.42338c0.59516,-0.52228 1.15375,-1.1868 1.67579,-1.99356c0.52374,-0.80454 0.99391,-1.69019 1.41052,-2.65697c0.41661,-0.96678 0.7567,-1.95578 1.02027,-2.96701M233.61696,176.1829c0.26357,0.989 0.60196,1.95022 1.01516,2.88366c0.41151,0.93344 0.88508,1.78909 1.42072,2.56696c0.53564,0.77787 1.10104,1.42238 1.69619,1.93355c-0.11053,0.12224 -0.23551,0.27448 -0.37495,0.45672c-0.14114,0.18447 -0.27377,0.37338 -0.3979,0.56673c-0.12243,0.19558 -0.22616,0.37671 -0.31118,0.5434c-0.62916,-0.61118 -1.20902,-1.35571 -1.73955,-2.23359c-0.53224,-0.87788 -1.01261,-1.85355 -1.44113,-2.927c-0.43021,-1.07123 -0.79836,-2.17914 -1.10444,-3.32371zM243.28398,186.51741c-0.85022,0 -1.60947,-0.24781 -2.27774,-0.74342c-0.66657,-0.49339 -1.19541,-1.21236 -1.58651,-2.15691c-0.3911,-0.94455 -0.58665,-2.09468 -0.58665,-3.45039c0,-1.01123 0.11478,-1.91133 0.34434,-2.70031c0.22956,-0.78898 0.54584,-1.46128 0.94885,-2.0169c0.40471,-0.55562 0.87743,-0.97789 1.41817,-1.26681c0.53904,-0.28892 1.12314,-0.43338 1.75231,-0.43338c0.67168,0 1.24132,0.16113 1.70895,0.48339c0.46762,0.32226 0.85022,0.68341 1.1478,1.08346l-0.90549,1.40016c-0.23806,-0.30003 -0.50418,-0.5534 -0.79836,-0.76009c-0.29248,-0.20447 -0.65977,-0.3067 -1.10189,-0.3067c-0.55264,0 -1.03727,0.18002 -1.45388,0.54006c-0.41661,0.36226 -0.74139,0.87343 -0.97435,1.53351c-0.23466,0.6623 -0.35199,1.45461 -0.35199,2.37694c0,0.93344 0.10798,1.73575 0.32393,2.40694c0.21766,0.67341 0.54159,1.19014 0.9718,1.55018c0.42851,0.36226 0.95735,0.5434 1.58651,0.5434c0.26357,0 0.51438,-0.04778 0.75245,-0.14335c0.23806,-0.09334 0.42936,-0.22336 0.5739,-0.39004v-2.6503h-1.77271v-1.81687h3.29036v5.45062c-0.31458,0.41116 -0.73544,0.75786 -1.26258,1.04012c-0.52714,0.28448 -1.10954,0.42672 -1.74721,0.42672zM248.23227,186.28405v-9.25106h1.67069v9.25106h-1.67069M249.07399,175.41614c-0.30608,0 -0.54839,-0.11446 -0.72694,-0.34337c-0.17855,-0.22669 -0.26782,-0.52895 -0.26782,-0.90677c0,-0.36671 0.08927,-0.66452 0.26782,-0.89344c0.17855,-0.22669 0.42086,-0.34004 0.72694,-0.34004c0.28908,0 0.52714,0.11335 0.71419,0.34004c0.18705,0.22891 0.28057,0.52673 0.28057,0.89344c0,0.37782 -0.09352,0.68008 -0.28057,0.90677c-0.18705,0.22891 -0.42511,0.34337 -0.71419,0.34337zM254.49415,186.51741c-0.54414,0 -0.98031,-0.14224 -1.30849,-0.42672c-0.32649,-0.28225 -0.5637,-0.67674 -0.71164,-1.18347c-0.14964,-0.5045 -0.22446,-1.09012 -0.22446,-1.75687v-4.38383h-1.00751v-1.63352l1.10954,-0.10001l0.17855,-2.53362h1.39011v2.53362h1.79822v1.73353h-1.79822v4.4005c0,0.53339 0.08332,0.93566 0.24997,1.2068c0.16494,0.27336 0.41746,0.41005 0.75755,0.41005c0.11903,0 0.24401,-0.02222 0.37495,-0.06667c0.13263,-0.04445 0.24997,-0.09446 0.35199,-0.15002l0.28057,1.60018c-0.18705,0.07779 -0.40215,0.15557 -0.64532,0.23336c-0.24146,0.07779 -0.50673,0.11668 -0.79581,0.11668zM257.21061,186.28405v-13.28485h1.67069v3.43373l-0.07652,1.76687c0.29758,-0.36671 0.62661,-0.6923 0.98711,-0.97678c0.36219,-0.28225 0.7856,-0.42338 1.27023,-0.42338c0.7567,0 1.30934,0.32226 1.65793,0.96678c0.34859,0.64452 0.52289,1.55018 0.52289,2.71698v5.80066h-1.67069v-5.5173c0,-0.76675 -0.08672,-1.3057 -0.26017,-1.61685c-0.17515,-0.31115 -0.45402,-0.46672 -0.83662,-0.46672c-0.30608,0 -0.57645,0.09668 -0.81111,0.29003c-0.23296,0.19558 -0.49398,0.47672 -0.78305,0.84343v6.46741zM267.36226,186.51741c-0.7652,0 -1.3221,-0.32226 -1.67069,-0.96678c-0.34859,-0.64452 -0.52289,-1.55018 -0.52289,-2.71698v-5.80066h1.67069v5.53397c0,0.74453 0.08672,1.27459 0.26017,1.59018c0.17515,0.31781 0.45402,0.47672 0.83662,0.47672c0.30608,0 0.57815,-0.10001 0.81621,-0.30003c0.23806,-0.20002 0.48888,-0.52228 0.75245,-0.96678v-6.33406h1.67069v9.25106h-1.37736l-0.12753,-1.36682h-0.03826c-0.31458,0.47783 -0.65042,0.86343 -1.00751,1.1568c-0.35709,0.29559 -0.77795,0.44338 -1.26258,0.44338zM276.71045,186.51741c-0.31458,0 -0.64022,-0.10557 -0.9769,-0.3167c-0.33499,-0.21114 -0.65127,-0.50561 -0.94885,-0.88343h-0.05101l-0.14029,0.96678h-1.31359v-13.28485h1.67069v3.43373l-0.05101,1.51684c0.29758,-0.34448 0.62066,-0.62229 0.96925,-0.83343c0.34859,-0.21114 0.70568,-0.3167 1.07128,-0.3167c0.58665,0 1.08828,0.19447 1.50489,0.5834c0.41661,0.38893 0.73544,0.93566 0.9565,1.64019c0.22106,0.70675 0.33159,1.5324 0.33159,2.47695c0,1.05568 -0.14454,1.958 -0.43361,2.70698c-0.28908,0.7512 -0.66317,1.32348 -1.12229,1.71686c-0.45912,0.3956 -0.948,0.5934 -1.46663,0.5934M276.35335,184.70054c0.31458,0 0.59686,-0.12001 0.84682,-0.36004c0.25167,-0.23781 0.44977,-0.59007 0.5943,-1.05679c0.14454,-0.46672 0.21681,-1.04456 0.21681,-1.73353c0,-0.62229 -0.05356,-1.15347 -0.16069,-1.59352c-0.10543,-0.43783 -0.26867,-0.77342 -0.48973,-1.00678c-0.22106,-0.23336 -0.51438,-0.35004 -0.87998,-0.35004c-0.25507,0 -0.50588,0.08556 -0.75245,0.2567c-0.24656,0.17335 -0.50588,0.43227 -0.77795,0.77676v4.30049c0.23806,0.28892 0.48208,0.48894 0.73204,0.60007c0.25167,0.11112 0.47527,0.16669 0.67082,0.16669zM283.81405,178.06645h5.3564v1.70019h-5.3564v-1.70019M283.07436,178.06645h1.45388v6.56742c0,0.27781 0.02976,0.48339 0.08927,0.61674c0.05952,0.13335 0.17685,0.22225 0.35199,0.2667c0.17345,0.04445 0.43871,0.06667 0.79581,0.06667c0.10203,0 0.25677,0 0.46422,0c0.20915,0 0.44807,0 0.71674,0c0.26697,0 0.53819,0 0.81366,0c0.27717,0 0.52629,0 0.74734,0c0.22106,0 0.3911,0 0.51013,0c0.30608,0 0.53819,-0.05556 0.69633,-0.16669c0.15644,-0.11112 0.27037,-0.33671 0.34179,-0.67674c0.07312,-0.33782 0.13093,-0.83454 0.17345,-1.49017c0.11053,0.10001 0.24656,0.20002 0.40811,0.30003c0.16154,0.10001 0.32734,0.18558 0.49738,0.2567c0.17004,0.07334 0.32734,0.12668 0.47187,0.16002c-0.08502,0.88899 -0.20575,1.58018 -0.36219,2.07357c-0.15814,0.49561 -0.40556,0.8401 -0.74224,1.03345c-0.33499,0.19558 -0.80006,0.29337 -1.39521,0.29337c-0.08502,0 -0.21511,0 -0.39025,0c-0.17345,0 -0.37665,0 -0.60961,0c-0.23466,0 -0.47527,0 -0.72184,0c-0.24656,0 -0.48463,0 -0.71419,0c-0.22956,0 -0.43106,0 -0.60451,0c-0.17515,0 -0.30098,0 -0.3775,0c-0.66317,0 -1.18606,-0.07779 -1.56866,-0.23336c-0.3826,-0.15557 -0.65212,-0.42783 -0.80856,-0.81676c-0.15814,-0.38893 -0.23721,-0.94455 -0.23721,-1.66686v-6.58409M286.47949,172.11577l1.31359,0.73342c-0.47612,1.03345 -1.03472,1.98912 -1.67579,2.86699c-0.64277,0.87788 -1.3442,1.66686 -2.1043,2.36694c-0.7618,0.70008 -1.55931,1.3057 -2.39252,1.81687c-0.10203,-0.25558 -0.24486,-0.53339 -0.42851,-0.83343c-0.18195,-0.30003 -0.36219,-0.55562 -0.54074,-0.76675c0.79071,-0.42227 1.55421,-0.93677 2.2905,-1.54351c0.73459,-0.60451 1.40542,-1.29904 2.01247,-2.08357c0.60876,-0.78231 1.11719,-1.63463 1.5253,-2.55696M287.28295,173.06587c0.7567,1.18902 1.59842,2.17803 2.52516,2.96701c0.92674,0.78898 1.93,1.47795 3.00978,2.0669c-0.17855,0.20002 -0.35284,0.44116 -0.52289,0.72342c-0.17004,0.28448 -0.30183,0.56006 -0.39535,0.82676c-0.7482,-0.47783 -1.45388,-0.99456 -2.11705,-1.55018c-0.66317,-0.55562 -1.29489,-1.18347 -1.89514,-1.88355c-0.59856,-0.70008 -1.18691,-1.51128 -1.76506,-2.43361l1.16055,-0.71675M288.78785,178.06645h1.40287c0,0 0,0.04445 0,0.13335c0,0.0889 -0.00255,0.19113 -0.00765,0.3067c-0.0034,0.11779 -0.0051,0.21558 -0.0051,0.29337c-0.03401,0.95566 -0.07227,1.74131 -0.11478,2.35694c-0.04251,0.61785 -0.09523,1.09901 -0.15814,1.4435c-0.06462,0.34448 -0.14794,0.60562 -0.24997,0.78342c-0.13604,0.18891 -0.29078,0.32448 -0.46422,0.40671c-0.17515,0.08445 -0.36475,0.13779 -0.5688,0.16002c-0.19555,0.03334 -0.45657,0.04667 -0.78305,0.04c-0.32819,-0.00445 -0.67508,-0.01778 -1.04067,-0.04c-0.0085,-0.23336 -0.04251,-0.50006 -0.10203,-0.80009c-0.05952,-0.30003 -0.13604,-0.55562 -0.22956,-0.76675c0.33159,0.04445 0.63767,0.07223 0.91824,0.08334c0.28057,0.01111 0.48463,0.01667 0.61216,0.01667c0.21256,0 0.3656,-0.06112 0.45912,-0.18335c0.05952,-0.10001 0.11053,-0.29448 0.15304,-0.5834c0.04251,-0.28892 0.07822,-0.70564 0.10713,-1.25014c0.03061,-0.54451 0.05441,-1.25014 0.07142,-2.11691zM296.4781,177.03299h8.36618v1.60018h-8.36618v-1.60018M296.14651,183.85044h9.15689v1.63352h-9.15689v-1.63352M300.4954,179.24991h1.35185v8.46763h-1.35185v-8.46763M297.23055,182.58363c-0.017,-0.12224 -0.05356,-0.2867 -0.10968,-0.49339c-0.05441,-0.20447 -0.11138,-0.41783 -0.17089,-0.64007c-0.05952,-0.22225 -0.11903,-0.41116 -0.17855,-0.56673c0.12753,-0.04445 0.25082,-0.15002 0.36985,-0.3167c0.11903,-0.16669 0.24231,-0.38338 0.36985,-0.65007c0.06802,-0.13335 0.16409,-0.34782 0.28823,-0.64341c0.12243,-0.29337 0.26187,-0.64563 0.41831,-1.05679c0.15814,-0.41116 0.30948,-0.85343 0.45402,-1.32682c0.14454,-0.47117 0.27207,-0.94566 0.3826,-1.4235l1.42837,0.60007c-0.20405,0.66674 -0.43957,1.33571 -0.70653,2.0069c-0.26867,0.67341 -0.54754,1.31237 -0.83662,1.91689c-0.28908,0.60674 -0.5739,1.15458 -0.85447,1.64352v0.03334c0,0 -0.04251,0.03 -0.12753,0.09001c-0.08502,0.06223 -0.1845,0.14335 -0.29843,0.24336c-0.11563,0.10001 -0.21596,0.20224 -0.30098,0.3067c-0.08502,0.10668 -0.12753,0.19891 -0.12753,0.2767M297.23055,182.58363v-1.33349l0.70143,-0.50006h6.51695v1.60018h-5.9558c-0.30608,0 -0.57815,0.01889 -0.81621,0.05667c-0.23806,0.04 -0.38685,0.0989 -0.44637,0.17669M295.21552,173.76595h10.10063v1.66686h-10.10063v-1.66686M294.55235,173.76595h1.35185v4.73387c0,0.66674 -0.0153,1.40238 -0.04591,2.20692c-0.02891,0.80676 -0.09012,1.63463 -0.18365,2.48362c-0.09352,0.85121 -0.22786,1.6713 -0.40301,2.46028c-0.17345,0.78898 -0.40896,1.50573 -0.70653,2.15025c-0.07652,-0.11112 -0.18705,-0.23336 -0.33159,-0.36671c-0.14454,-0.13335 -0.29078,-0.26114 -0.43871,-0.38338c-0.14964,-0.12224 -0.27972,-0.21114 -0.39025,-0.2667c0.26357,-0.60007 0.47187,-1.25014 0.62491,-1.95022c0.15304,-0.70008 0.26782,-1.42238 0.34434,-2.16691c0.07652,-0.74453 0.12498,-1.47572 0.14539,-2.19358c0.02211,-0.71564 0.03316,-1.37349 0.03316,-1.97356v-4.73387M299.00326,172.51581l1.37736,-0.40005c0.14454,0.30003 0.28057,0.64118 0.40811,1.02345c0.12753,0.38449 0.21681,0.72119 0.26782,1.01012l-1.44113,0.46672c-0.03401,-0.27781 -0.10798,-0.61674 -0.22191,-1.01678c-0.11563,-0.40005 -0.24571,-0.7612 -0.39025,-1.08346z" fill="#ffffff" fill-rule="nonzero" stroke-linecap="butt" stroke-linejoin="miter"/></g></g></svg>