<svg version="1.1" xmlns="http://www.w3.org/2000/svg" xmlns:xlink="http://www.w3.org/1999/xlink" width="208.20062" height="32" viewBox="0,0,208.20062,32"><g transform="translate(-239.79938,-164)"><g stroke="none" stroke-miterlimit="10"><path d="M239.79938,172.12325h18.19965v2.05414h-18.19965v-2.05414M244.23632,180.79171h9.34632v1.72547h-9.34632v-1.72547M243.80495,184.07833h10.20906v1.7871h-10.20906v-1.7871M247.78997,181.63391h2.09522v7.33327h-2.09522v-7.33327M240.66212,175.90287h14.87195v2.0336h-12.65348v11.52371h-2.21847v-13.5573M254.89729,175.90287h2.25955v11.27721c0,0.56146 -0.07806,0.98872 -0.23417,1.28178c-0.15885,0.2958 -0.43685,0.51901 -0.83398,0.66965c-0.39713,0.15064 -0.89697,0.24239 -1.49952,0.27525c-0.60255,0.0356 -1.31465,0.05341 -2.1363,0.05341c-0.05478,-0.27388 -0.15338,-0.59296 -0.2958,-0.95723c-0.14516,-0.36153 -0.29306,-0.67239 -0.44369,-0.93258c0.36974,0.01369 0.73949,0.02739 1.10923,0.04108c0.36974,0.01369 0.70251,0.01643 0.99831,0.00822c0.29306,-0.00548 0.48751,-0.00822 0.58337,-0.00822c0.19172,-0.01369 0.32182,-0.05204 0.39029,-0.11503c0.06847,-0.06025 0.10271,-0.1657 0.10271,-0.31634v-11.27721M245.09905,178.51162l1.74602,-0.51353c0.2465,0.34236 0.48341,0.72579 0.71073,1.15032c0.22458,0.42452 0.39166,0.80111 0.50121,1.12978l-1.84872,0.61624c-0.08217,-0.32866 -0.2328,-0.71895 -0.45191,-1.17086c-0.21911,-0.45191 -0.43822,-0.85589 -0.65732,-1.21194M251.01497,178.01863l1.86926,0.53408c-0.27388,0.49299 -0.54777,0.97914 -0.82165,1.45844c-0.27388,0.4793 -0.54092,0.89697 -0.80111,1.25302l-1.56114,-0.47245c0.16433,-0.26019 0.32455,-0.55462 0.48067,-0.88328c0.15885,-0.32866 0.3136,-0.65732 0.46423,-0.98599c0.15064,-0.32866 0.27388,-0.62994 0.36974,-0.90382M247.70781,170.41832h2.42388v6.9019h-2.42388zM260.34075,175.55366h18.34344v2.25955h-18.34344v-2.25955M266.21558,185.4546l1.82818,-1.27356c0.43822,0.35605 0.89423,0.76003 1.36806,1.21194c0.47108,0.45191 0.91888,0.89971 1.34341,1.34341c0.42452,0.44643 0.76688,0.85452 1.02707,1.22427l-1.97197,1.4379c-0.21911,-0.36974 -0.53408,-0.78468 -0.9449,-1.24481c-0.41083,-0.45739 -0.84493,-0.92299 -1.30232,-1.39681c-0.46013,-0.47108 -0.9093,-0.90519 -1.34751,-1.30232M271.00172,176.60127c0.42452,1.62961 1.00653,3.15242 1.74602,4.5684c0.73949,1.41872 1.64742,2.6649 2.72379,3.73853c1.07363,1.07637 2.32939,1.92952 3.76729,2.55945c-0.17803,0.15064 -0.37248,0.34509 -0.58337,0.58337c-0.21363,0.24102 -0.41631,0.49162 -0.60802,0.75181c-0.19172,0.26019 -0.3492,0.49299 -0.47245,0.69841c-1.52006,-0.75318 -2.83471,-1.73643 -3.94394,-2.94974c-1.10923,-1.21057 -2.0514,-2.61423 -2.82649,-4.21098c-0.77236,-1.59401 -1.41872,-3.33592 -1.93911,-5.22572l2.1363,-0.51353M268.20809,170.33616h2.40334c-0.01369,1.01337 -0.04108,2.09111 -0.08217,3.23321c-0.04108,1.14484 -0.14653,2.3157 -0.31634,3.51257c-0.17255,1.19962 -0.44643,2.38417 -0.82165,3.55366c-0.37796,1.17223 -0.89971,2.302 -1.56525,3.38933c-0.6628,1.09006 -1.51732,2.1007 -2.56356,3.03191c-1.04898,0.93121 -2.32665,1.74602 -3.83302,2.44442c-0.17803,-0.28758 -0.42041,-0.60939 -0.72716,-0.96544c-0.30949,-0.35605 -0.62172,-0.65732 -0.93669,-0.90382c1.46528,-0.61624 2.69092,-1.34614 3.67691,-2.18971c0.98599,-0.84083 1.78025,-1.75149 2.3828,-2.732c0.60255,-0.97777 1.06815,-2.00073 1.39681,-3.06888c0.32866,-1.06815 0.56146,-2.14315 0.69841,-3.22499c0.13694,-1.08185 0.21637,-2.14041 0.23828,-3.1757c0.01917,-1.03255 0.0356,-2.00073 0.0493,-2.90455zM281.78594,171.63026h16.35093v2.17739h-16.35093v-2.17739M280.69725,180.3398h18.63102v2.21847h-18.63102v-2.21847M283.08005,175.16338l1.99251,-0.61624c0.26019,0.46561 0.50395,0.9586 0.73127,1.47898c0.22458,0.52038 0.43,1.02981 0.61624,1.52828c0.1835,0.50121 0.31634,0.94353 0.3985,1.32697l-2.1363,0.69841c-0.06847,-0.39713 -0.18487,-0.8463 -0.3492,-1.34751c-0.16433,-0.49847 -0.35605,-1.01885 -0.57516,-1.56114c-0.21911,-0.53955 -0.44506,-1.04213 -0.67787,-1.50774M294.82971,174.48551l2.36226,0.61624c-0.2328,0.53408 -0.48888,1.07089 -0.76825,1.61044c-0.2821,0.54229 -0.55325,1.05993 -0.81344,1.55293c-0.26019,0.49299 -0.51353,0.93121 -0.76003,1.31465l-1.93089,-0.5957c0.2328,-0.41083 0.47245,-0.87643 0.71895,-1.39681c0.2465,-0.52038 0.47245,-1.05172 0.67787,-1.59401c0.20541,-0.53955 0.37659,-1.04213 0.51353,-1.50774M288.81109,172.53408h2.30063v16.94663h-2.30063zM306.86695,182.94856h13.22864v2.09522h-13.22864v-2.09522M307.50373,174.09523h12.16049v2.07468h-12.16049v-2.07468M308.1816,178.51162h10.76368v2.05414h-10.76368v-2.05414M312.33096,175.43041h2.28009v14.07084h-2.28009v-14.07084M308.57188,171.0551l1.95143,-0.78057c0.38344,0.52038 0.75729,1.09143 1.12156,1.71315c0.36153,0.62446 0.61076,1.17634 0.74771,1.65563l-2.07468,0.86274c-0.08217,-0.31497 -0.215,-0.67102 -0.3985,-1.06815c-0.18624,-0.39713 -0.39576,-0.80796 -0.62857,-1.23248c-0.2328,-0.42452 -0.47245,-0.80796 -0.71895,-1.15032M316.2749,170.27453l2.17739,0.63678c-0.2465,0.49299 -0.49984,0.99283 -0.76003,1.49952c-0.26019,0.50669 -0.52038,0.98599 -0.78057,1.4379c-0.26019,0.45191 -0.50669,0.84904 -0.73949,1.1914l-1.82818,-0.5957c0.2328,-0.38344 0.46971,-0.81481 0.71073,-1.29411c0.23828,-0.4793 0.46697,-0.97229 0.68608,-1.47898c0.21911,-0.50669 0.39713,-0.97229 0.53408,-1.39681M301.83432,172.26704l1.29411,-1.5406c0.43822,0.21911 0.90382,0.47519 1.39681,0.76825c0.49299,0.2958 0.96544,0.59433 1.41735,0.8956c0.45191,0.30127 0.81481,0.582 1.08869,0.8422l-1.37627,1.72547c-0.26019,-0.27388 -0.60939,-0.57242 -1.04761,-0.8956c-0.43822,-0.32045 -0.89971,-0.64226 -1.38449,-0.96544c-0.48751,-0.32045 -0.95038,-0.59707 -1.3886,-0.82987M300.88941,177.54618l1.25302,-1.58169c0.43822,0.20541 0.91067,0.44506 1.41735,0.71895c0.50669,0.27388 0.98872,0.55051 1.44611,0.82987c0.46013,0.2821 0.83398,0.5464 1.12156,0.7929l-1.31465,1.76656c-0.27388,-0.2465 -0.63267,-0.52038 -1.07637,-0.82165c-0.44643,-0.30127 -0.91888,-0.60255 -1.41735,-0.90382c-0.50121,-0.30127 -0.97777,-0.56831 -1.42968,-0.80111M301.32078,187.67307c0.32866,-0.54777 0.68882,-1.18866 1.08048,-1.92267c0.38892,-0.73127 0.78194,-1.51184 1.17907,-2.34172c0.39713,-0.82713 0.76688,-1.64468 1.10923,-2.45264l1.74602,1.33519c-0.30127,0.73949 -0.62583,1.49541 -0.97366,2.26777c-0.35057,0.77509 -0.70799,1.53923 -1.07226,2.29242c-0.36153,0.75318 -0.72032,1.47213 -1.07637,2.15684z" fill="#ffffff" stroke-width="1"/><path d="M240,196v-32h208v32z" fill="none" stroke-width="0"/></g></g></svg>