<svg version="1.1" xmlns="http://www.w3.org/2000/svg" xmlns:xlink="http://www.w3.org/1999/xlink" width="208" height="32" viewBox="0,0,208,32"><g transform="translate(-240,-164)"><g stroke="none" stroke-miterlimit="10"><path d="M244.52663,170.84128h2.07575v5.86799h-2.07575v-5.86799M244.52663,181.85873h2.07575v7.60443h-2.07575v-7.60443M243.4688,180.30192v1.27738h4.31117v-1.27738h-4.31117M243.4688,177.58747v1.23747h4.31117v-1.23747h-4.31117M241.57268,176.0107h8.18325v7.14537h-8.18325v-7.14537M241.01382,172.89708h9.1812v1.89612h-9.1812v-1.89612M252.23086,176.5496h5.38897v1.91608h-5.38897v-1.91608M252.23086,171.77936h5.38897v1.93604h-5.38897v-1.93604M252.19094,181.18012h5.42889v1.93604h-5.42889v-1.93604M240.85415,184.37358h9.32093v1.89612h-9.32093v-1.89612M256.562,171.77936h2.09571v15.24878c0,0.54555 -0.06253,0.98066 -0.18761,1.30533c-0.12774,0.32733 -0.35794,0.57749 -0.69059,0.75047c-0.34596,0.18628 -0.76776,0.29939 -1.26541,0.3393c-0.50031,0.03992 -1.12969,0.05988 -1.88814,0.05988c-0.01331,-0.18628 -0.05588,-0.40983 -0.12774,-0.67063c-0.07451,-0.25814 -0.15435,-0.51761 -0.23951,-0.77841c-0.08782,-0.25814 -0.1783,-0.48035 -0.27144,-0.66663c0.45241,0.02661 0.8955,0.03991 1.32928,0.03991c0.43112,0 0.7132,-0.00665 0.84626,-0.01996c0.14637,0 0.25016,-0.0306 0.31137,-0.09181c0.05854,-0.05855 0.08782,-0.16101 0.08782,-0.30737v-15.20887M251.19299,171.77936h2.05579v7.02562c0,0.82497 -0.03726,1.7125 -0.11177,2.66255c-0.07185,0.95272 -0.21023,1.91474 -0.41515,2.88609c-0.20757,0.97135 -0.51095,1.89878 -0.91013,2.7823c-0.39918,0.88619 -0.93143,1.6819 -1.59673,2.38712c-0.10645,-0.11975 -0.26878,-0.25681 -0.487,-0.41116c-0.22088,-0.15169 -0.44043,-0.29806 -0.65865,-0.4391c-0.22088,-0.13838 -0.41116,-0.24084 -0.57083,-0.30737c0.62538,-0.6653 1.11506,-1.39447 1.469,-2.18752c0.35128,-0.79038 0.6174,-1.6087 0.79836,-2.45497c0.1783,-0.8436 0.29406,-1.68455 0.34728,-2.52284c0.05322,-0.83829 0.07984,-1.63665 0.07984,-2.39509zM264.12651,172.49789h3.51281v1.63665h-3.51281v-1.63665M264.72529,177.06854h1.4171v7.02562h-1.4171v-7.02562M267.24014,172.49789h0.4391l0.35926,-0.0998l1.11771,0.83828c-0.31934,0.6387 -0.69457,1.31331 -1.12569,2.02385c-0.43378,0.7132 -0.85026,1.32928 -1.24945,1.84822c-0.10645,-0.15967 -0.26346,-0.33931 -0.47103,-0.5389c-0.20492,-0.19959 -0.3739,-0.35261 -0.50696,-0.45906c0.18628,-0.30604 0.3699,-0.652 0.55087,-1.03787c0.1783,-0.38587 0.34728,-0.77841 0.50696,-1.17759c0.15967,-0.39918 0.28608,-0.75179 0.37923,-1.05783v-0.3393M263.3481,181.24v2.17554h4.23134v-2.17554h-4.23134M263.3481,177.60743v2.11567h4.23134v-2.11567h-4.23134M261.73141,175.97078h7.5246v9.06145h-7.5246v-9.06145M263.54769,170.82132l1.8562,0.25947c-0.19959,0.74514 -0.45241,1.5129 -0.75845,2.30328c-0.30604,0.79305 -0.67196,1.57145 -1.09775,2.33522c-0.42579,0.76643 -0.93142,1.48896 -1.51689,2.16757c-0.14637,-0.18628 -0.35926,-0.40318 -0.63869,-0.65067c-0.27943,-0.24483 -0.53224,-0.42712 -0.75844,-0.54688c0.51894,-0.58547 0.96469,-1.21484 1.33726,-1.88814c0.37257,-0.67063 0.69192,-1.34923 0.95804,-2.03583c0.26612,-0.68393 0.47237,-1.33195 0.61873,-1.94403M261.01289,186.86848c0.71853,-0.05322 1.54351,-0.12375 2.47493,-0.21157c0.93142,-0.08516 1.92007,-0.1783 2.96593,-0.27943c1.0432,-0.09847 2.09039,-0.20092 3.14157,-0.30737l0.03992,1.77636c-1.47697,0.17298 -2.9513,0.34596 -4.42295,0.51894c-1.469,0.17298 -2.77565,0.326 -3.91998,0.45906l-0.27943,-1.956M273.64702,176.13046h2.01587v13.4325h-2.01587v-13.4325M270.05438,174.63352h9.08141v1.8562h-9.08141v-1.8562M270.67311,171.81928l1.47697,-0.55885c0.26612,0.41249 0.52293,0.8649 0.77042,1.35722c0.24484,0.49232 0.42713,0.92477 0.54688,1.29734l-1.57677,0.65865c-0.09314,-0.37257 -0.25548,-0.81832 -0.487,-1.33726c-0.23419,-0.51894 -0.47769,-0.99131 -0.7305,-1.4171M276.52114,171.20055l1.91607,0.45906c-0.2129,0.45241 -0.4391,0.91413 -0.67861,1.38517c-0.23951,0.47369 -0.47503,0.92345 -0.70655,1.34924c-0.23419,0.42579 -0.45773,0.80501 -0.67063,1.13767l-1.61669,-0.45906c0.2129,-0.33265 0.42978,-0.72518 0.65067,-1.17759c0.21822,-0.45241 0.42713,-0.91546 0.62672,-1.38915c0.19959,-0.47104 0.35926,-0.90615 0.47902,-1.30533M270.39368,178.92474h8.38284v1.81628h-8.38284v-1.81628M269.71507,183.05628h9.7201v1.91608h-9.7201zM282.74839,172.07875l1.956,-0.77841c0.30604,0.45241 0.60942,0.94074 0.91014,1.465c0.29805,0.52692 0.56684,1.03921 0.80635,1.53685c0.23951,0.50031 0.41914,0.95671 0.53889,1.3692l-2.11567,0.85824c-0.10645,-0.39918 -0.27011,-0.85558 -0.49099,-1.3692c-0.21822,-0.51095 -0.46704,-1.03654 -0.74647,-1.57677c-0.27943,-0.53757 -0.56551,-1.03921 -0.85825,-1.50492M295.2029,171.22051l2.31526,0.73849c-0.26612,0.51894 -0.54555,1.05384 -0.83829,1.60471c-0.29273,0.55354 -0.58547,1.07247 -0.8782,1.55681c-0.29273,0.48701 -0.56551,0.92345 -0.81833,1.30932l-1.93604,-0.69857c0.25281,-0.39918 0.51229,-0.86223 0.77841,-1.38915c0.26612,-0.52426 0.52293,-1.05917 0.77042,-1.60471c0.24484,-0.54555 0.44709,-1.05118 0.60676,-1.5169M282.28933,177.16833h15.7278v2.11567h-15.7278v-2.11567M281.05187,181.91861h18.04306v2.15559h-18.04306v-2.15559M288.85589,170.84128h2.27534v18.62188h-2.27534zM316.5991,179.50355h2.11567c0,0 -0.00266,0.05323 -0.00798,0.15968c-0.00799,0.10645 -0.01198,0.2262 -0.01198,0.35926c0,0.13306 -0.00666,0.25281 -0.01996,0.35926c-0.09314,1.78302 -0.19293,3.22939 -0.29938,4.33912c-0.10645,1.11239 -0.23286,1.96797 -0.37923,2.56674c-0.14637,0.59877 -0.326,1.02457 -0.5389,1.27739c-0.2262,0.26612 -0.4697,0.45241 -0.7305,0.55886c-0.25814,0.10645 -0.56018,0.17963 -0.90614,0.21955c-0.29273,0.03992 -0.67462,0.05988 -1.14565,0.05988c-0.4737,0 -0.97002,-0.00665 -1.48896,-0.01996c-0.02661,-0.29273 -0.0958,-0.62539 -0.20757,-0.99796c-0.11443,-0.37257 -0.25148,-0.68526 -0.41116,-0.93808c0.49232,0.03992 0.95138,0.06253 1.37718,0.06786c0.42579,0.00798 0.73849,0.01198 0.93808,0.01198c0.17298,0 0.31669,-0.01331 0.43112,-0.03992c0.11177,-0.02661 0.22088,-0.09315 0.32733,-0.1996c0.14637,-0.15967 0.27943,-0.50563 0.39919,-1.03787c0.11975,-0.53224 0.22354,-1.3173 0.31136,-2.35518c0.08516,-1.03788 0.16766,-2.38845 0.2475,-4.05171v-0.3393M306.73929,182.0184h1.97595v4.73032h-1.97595v-4.73032M311.72907,182.79681h1.956v5.5686h-1.956v-5.5686M301.92913,182.83673h1.956v3.19347h8.66227v1.77636h-10.61827v-4.96983M314.36368,172.55777h1.99592c0,0 0,0.09314 0,0.27943c0,0.18628 -0.00666,0.3393 -0.01996,0.45906c-0.06653,0.99795 -0.13705,1.82959 -0.21157,2.49489c-0.07186,0.6653 -0.15702,1.1909 -0.25548,1.57677c-0.10113,0.38587 -0.23818,0.66531 -0.41116,0.83829c-0.15967,0.19959 -0.33664,0.34196 -0.53091,0.42712c-0.19161,0.08782 -0.41382,0.14504 -0.66664,0.17165c-0.2129,0.03992 -0.48966,0.06253 -0.8303,0.06786c-0.33797,0.00798 -0.6999,0.00532 -1.08578,-0.00798c-0.02661,-0.29273 -0.08649,-0.61607 -0.17964,-0.97001c-0.09314,-0.35128 -0.2129,-0.65333 -0.35926,-0.90615c0.30604,0.02661 0.58547,0.04657 0.83829,0.05988c0.25281,0.01331 0.44575,0.01996 0.57881,0.01996c0.11975,0 0.2262,-0.01331 0.31934,-0.03992c0.09314,-0.02661 0.17298,-0.07984 0.23951,-0.15967c0.13306,-0.14637 0.24616,-0.51894 0.33931,-1.11772c0.09314,-0.59877 0.17298,-1.57677 0.23951,-2.93399v-0.25947M308.49569,170.80137l2.55477,0.21955c-0.2129,0.49232 -0.45241,0.96735 -0.71853,1.42508c-0.26612,0.46039 -0.50563,0.85691 -0.71853,1.18956l-1.89612,-0.3393c0.14637,-0.37257 0.29673,-0.79171 0.45108,-1.25743c0.15169,-0.46571 0.2608,-0.8782 0.32733,-1.23746M306.30018,176.35001l1.05784,-1.35722c0.46571,0.15967 0.96469,0.35261 1.49693,0.57881c0.53224,0.2262 1.04187,0.45906 1.52888,0.69857c0.48435,0.23951 0.88619,0.46571 1.20553,0.67861l-1.11771,1.49694c-0.29273,-0.2129 -0.67861,-0.44576 -1.15763,-0.69857c-0.47902,-0.25281 -0.98199,-0.50297 -1.50892,-0.75046c-0.52426,-0.24483 -1.0259,-0.46039 -1.50492,-0.64667M314.98241,172.55777v1.91608h-9.50056v5.0297h11.75594v1.87616h-13.85165v-8.82194zM321.14979,175.69136h5.9079v2.13563h-5.9079v-2.13563M330.96969,171.22051h2.23542v14.5103c0,0.54555 0.05322,0.89151 0.15967,1.03787c0.10645,0.14637 0.35262,0.21955 0.73849,0.21955c0.07984,0 0.2262,0 0.4391,0c0.2129,0 0.44576,0 0.69857,0c0.25281,0 0.48567,0 0.69857,0c0.2129,0 0.37257,0 0.47902,0c0.26612,0 0.46971,-0.1131 0.61075,-0.3393c0.13839,-0.2262 0.24084,-0.63603 0.30737,-1.22948c0.06653,-0.59079 0.11975,-1.42508 0.15967,-2.50288c0.18628,0.13306 0.39918,0.26612 0.63869,0.39918c0.23951,0.13306 0.48568,0.24883 0.73849,0.34729c0.25281,0.10112 0.47902,0.1783 0.67861,0.23153c-0.06653,1.25078 -0.19294,2.25804 -0.37922,3.02181c-0.18628,0.76643 -0.47503,1.32263 -0.86623,1.66859c-0.39386,0.34596 -0.95671,0.51894 -1.68855,0.51894c-0.10645,0 -0.29273,0 -0.55885,0c-0.26612,0 -0.55619,0 -0.87022,0c-0.31137,0 -0.59345,0 -0.84627,0c-0.25281,0 -0.4391,0 -0.55885,0c-0.71853,0 -1.28138,-0.10379 -1.68855,-0.31137c-0.4045,-0.20491 -0.69324,-0.55353 -0.86622,-1.04586c-0.17298,-0.49232 -0.25947,-1.17759 -0.25947,-2.05579v-14.47038M325.99986,171.20055h2.23542v18.10295h-2.23542v-18.10295M337.5562,174.21438l1.53686,1.91608c-0.6653,0.46571 -1.37718,0.93142 -2.13563,1.39714c-0.75844,0.46571 -1.53286,0.91812 -2.32324,1.35722c-0.79305,0.4391 -1.5688,0.8516 -2.32724,1.23747c-0.07984,-0.23951 -0.20624,-0.52293 -0.37922,-0.85026c-0.17298,-0.32467 -0.33931,-0.60011 -0.49898,-0.82631c0.73183,-0.38587 1.46766,-0.82232 2.20748,-1.30932c0.73715,-0.48434 1.44504,-0.97933 2.12365,-1.48496c0.67861,-0.50563 1.27738,-0.98465 1.79632,-1.43706M320.47118,184.81268c0.54555,-0.17298 1.17493,-0.38321 1.88813,-0.63071c0.71055,-0.24483 1.465,-0.51095 2.26337,-0.79836c0.79836,-0.28475 1.59008,-0.5735 2.37514,-0.86623l0.39918,1.93604c-1.01126,0.45241 -2.03982,0.89816 -3.08568,1.33726c-1.0432,0.4391 -2.0039,0.83828 -2.8821,1.19755zM352.20622,171.83924h5.20934v1.93604h-3.31322v15.64797h-1.89612v-17.58401M356.97645,171.83924h0.39918l0.31935,-0.07984l1.47698,0.91813c-0.33265,0.95804 -0.70522,1.97196 -1.11771,3.04177c-0.41249,1.07247 -0.81167,2.04781 -1.19755,2.92601c0.82497,0.91812 1.36121,1.77237 1.6087,2.56275c0.24484,0.79305 0.36725,1.52222 0.36725,2.18753c0,0.67861 -0.07585,1.25742 -0.22753,1.73644c-0.15435,0.47902 -0.41116,0.84494 -0.77042,1.09775c-0.17298,0.11975 -0.37257,0.21556 -0.59877,0.28741c-0.2262,0.07451 -0.46572,0.13173 -0.71853,0.17165c-0.2262,0.02661 -0.47902,0.04258 -0.75845,0.04791c-0.27943,0.00798 -0.55885,0.00532 -0.83828,-0.00799c-0.01331,-0.27943 -0.05988,-0.61208 -0.13972,-0.99795c-0.07984,-0.38587 -0.20624,-0.71853 -0.37922,-0.99796c0.25281,0.02661 0.48301,0.04258 0.69058,0.04791c0.20492,0.00798 0.39386,0.00532 0.56684,-0.00799c0.13306,0 0.26612,-0.0173 0.39918,-0.0519c0.13306,-0.03194 0.24616,-0.08116 0.3393,-0.14769c0.17298,-0.10645 0.29672,-0.28342 0.37124,-0.53091c0.07186,-0.24483 0.10778,-0.54023 0.10778,-0.88619c0,-0.57217 -0.13972,-1.21751 -0.41915,-1.93604c-0.27943,-0.71853 -0.81833,-1.49028 -1.61669,-2.31526c0.19959,-0.50563 0.40184,-1.04852 0.60676,-1.62867c0.20758,-0.57748 0.40716,-1.16296 0.59877,-1.75641c0.19427,-0.59079 0.37124,-1.14566 0.53091,-1.66459c0.15967,-0.51894 0.29273,-0.95803 0.39918,-1.3173v-0.69857M341.3684,173.11663h9.60035v1.91608h-9.60035v-1.91608M340.84946,178.48564h10.55839v1.93604h-10.55839v-1.93604M342.44619,175.47181l1.83625,-0.45906c0.27943,0.47902 0.52958,1.00727 0.75046,1.58476c0.21822,0.58014 0.3739,1.08312 0.46704,1.50891l-1.91607,0.53889c-0.07984,-0.4391 -0.2262,-0.95538 -0.4391,-1.54883c-0.2129,-0.59079 -0.44576,-1.13235 -0.69857,-1.62467M348.09463,174.95287l2.11567,0.45906c-0.18628,0.45241 -0.37923,0.91147 -0.57882,1.37718c-0.19959,0.46571 -0.39253,0.91147 -0.57882,1.33727c-0.18628,0.42579 -0.37257,0.80501 -0.55885,1.13767l-1.79632,-0.4391c0.17298,-0.35926 0.34995,-0.7651 0.53091,-1.21751c0.1783,-0.45241 0.34462,-0.91146 0.49897,-1.37718c0.15169,-0.46571 0.27411,-0.89151 0.36725,-1.27739M342.94517,186.64893h6.5466v1.87616h-6.5466v-1.87616M341.82746,181.97849h8.76207v7.34497h-2.11567v-5.42889h-4.63053v5.54864h-2.01587v-7.46472M344.56186,171.26043l1.93604,-0.5389c0.2129,0.42579 0.42313,0.89151 0.63071,1.39714c0.20492,0.50563 0.35394,0.93808 0.44709,1.29735l-2.05579,0.6387c-0.07984,-0.35926 -0.20891,-0.80236 -0.3872,-1.32928c-0.18097,-0.52426 -0.37124,-1.01259 -0.57083,-1.465z" fill="#ffffff" stroke-width="1"/><path d="M240,196v-32h208v32z" fill="none" stroke-width="0"/></g></g></svg>