<svg version="1.1" xmlns="http://www.w3.org/2000/svg" xmlns:xlink="http://www.w3.org/1999/xlink" width="177.163" height="32" viewBox="0,0,177.163,32"><g transform="translate(-240,-164)"><g stroke-miterlimit="10"><path d="M265.58302,179.83302h6.29084v1.38322h-13.95886v-1.38322h6.35885v-1.93651h-5.57674v-1.31938h5.57674v-1.95779h-6.13782v-1.31938h4.01253l-1.5132,-2.14932l0.88412,-0.87249l1.81924,2.40468l-0.69709,0.61713h3.57048c0.30604,-0.43979 0.65175,-0.96826 1.03714,-1.58539c0.38538,-0.61713 0.67442,-1.11013 0.86712,-1.47898l1.07114,0.85121l-1.41119,2.21316h3.89352v1.31938h-6.08681v1.95779h5.52574v1.31938h-5.52574zM254.1575,185.11055l1.17316,0.40433l-0.11902,2.02163c-0.02267,0.56748 -0.10201,1.00372 -0.23803,1.30874c-0.13602,0.30502 -0.35705,0.51782 -0.66309,0.63841c-0.30604,0.12059 -0.7481,0.18088 -1.32618,0.18088h-3.57048c-0.55541,0 -0.98896,-0.07448 -1.30067,-0.22344c-0.31171,-0.14896 -0.53274,-0.39723 -0.66309,-0.74481c-0.13035,-0.34758 -0.19553,-0.83348 -0.19553,-1.4577v-0.74481h-4.87965v-7.1502c-0.55541,0.35467 -1.04847,0.6455 -1.4792,0.87249l-0.54407,-1.53219c1.15615,-0.5391 2.14229,-1.1385 2.95839,-1.79819c0.81611,-0.65969 1.50753,-1.40805 2.07428,-2.24508h-4.57361v-1.48963h5.40672c0.39672,-0.85121 0.7141,-1.7379 0.95213,-2.66004l1.32618,0.31921c-0.20403,0.82284 -0.46473,1.60312 -0.7821,2.34084h7.32798v1.48963h-4.70963c1.24683,1.92942 2.94706,3.17077 5.10068,3.72406l-0.42506,1.51091c-0.53274,-0.18443 -1.07114,-0.41142 -1.61522,-0.68097v7.29916h-4.87965v0.46817c0,0.5391 0.07934,0.89732 0.23803,1.07466c0.15869,0.17734 0.44206,0.266 0.85011,0.266h3.24743c0.32871,0 0.57524,-0.03547 0.7396,-0.1064c0.16435,-0.07093 0.28337,-0.19862 0.35705,-0.38305c0.07368,-0.18443 0.12185,-0.47526 0.14452,-0.87249c0.04534,-0.76609 0.06801,-1.37613 0.06801,-1.83011zM294.91193,174.0022v5.89466h10.89845l-0.25503,7.0438c-0.06801,1.0782 -0.29754,1.83366 -0.68859,2.26636c-0.39105,0.4327 -1.02297,0.64905 -1.89575,0.64905h-1.95526l-0.23803,-1.51091h1.66622c0.45339,0 0.80477,-0.06384 1.05414,-0.19152c0.24937,-0.12768 0.42789,-0.3263 0.53557,-0.59585c0.10768,-0.26955 0.17852,-0.6455 0.21253,-1.12786c0.034,-0.63841 0.07084,-1.48253 0.11051,-2.53236c0.03967,-1.04983 0.07084,-1.89395 0.09351,-2.53236h-10.83044v-8.83135h3.29844l0.22103,-0.68097l0.44206,-1.44706l1.32618,0.19152l-0.22103,0.74481c-0.12468,0.45398 -0.23803,0.85121 -0.34005,1.1917h5.86578c-0.10201,2.21316 -0.16435,3.45451 -0.18702,3.72406c-0.05667,0.68097 -0.16152,1.20943 -0.31454,1.58539c-0.15302,0.37595 -0.38538,0.6455 -0.69709,0.80865c-0.31171,0.16315 -0.74527,0.24472 -1.30067,0.24472h-1.46219l-0.23803,-1.36194h1.32618c0.51007,0 0.86145,-0.10286 1.05414,-0.30857c0.19269,-0.20571 0.30604,-0.55684 0.34005,-1.05338l0.08501,-1.06402c0.034,-0.42561 0.05667,-0.79447 0.06801,-1.10658zM289.48821,188.45157l-0.81611,1.59603c-3.37778,-2.46852 -5.59375,-5.49743 -6.64789,-9.08671c-0.5214,1.81592 -1.35735,3.47579 -2.50783,4.9796c-1.15049,1.50381 -2.54751,2.89413 -4.19106,4.17095l-0.83311,-1.61731c1.94959,-1.36194 3.5223,-2.95442 4.71813,-4.77744c1.19583,-1.82302 1.86742,-3.86948 2.01477,-6.13938h-6.46086v-1.63859h6.47786v-5.23497h1.36018v5.23497h6.52887v1.63859h-6.54587c-0.01133,0.07093 -0.017,0.17734 -0.017,0.31921c0.37405,2.28409 1.11365,4.27026 2.2188,5.9585c1.10515,1.68824 2.67219,3.22043 4.70113,4.59656zM357.49727,180.74808v1.44706h-1.75123l-0.10201,3.29846h1.5302v1.46834h-1.56421l-0.017,0.38305c-0.034,0.6526 -0.12752,1.15623 -0.28054,1.51091c-0.15302,0.35467 -0.39105,0.60649 -0.7141,0.75545c-0.32304,0.14896 -0.7736,0.22344 -1.35168,0.22344h-2.53334l-0.25503,-1.48963h2.38032c0.56674,0 0.96063,-0.09576 1.18166,-0.28728c0.22103,-0.19152 0.34288,-0.54265 0.36555,-1.05338v-0.04256h-7.63402l0.42506,-4.7668h-1.32618v-1.44706h1.44519l0.37405,-4.23479c-0.34005,0.5391 -0.60075,0.93634 -0.7821,1.1917l-0.86712,-1.14914c0.62342,-0.8654 1.21566,-1.85139 1.77674,-2.95797c0.56107,-1.10658 1.0173,-2.17769 1.36868,-3.21333l1.13915,0.48945c-0.19269,0.55329 -0.41372,1.12786 -0.66309,1.72371h7.44699v1.44706h-8.09308c-0.36272,0.75191 -0.69143,1.37613 -0.98613,1.87267h7.90605l-0.13602,4.83064zM373.4964,184.38702l1.02014,0.40433c-0.06801,0.79447 -0.16435,1.65987 -0.28904,2.5962c-0.12468,0.99308 -0.30887,1.67051 -0.55257,2.03227c-0.2437,0.36177 -0.56391,0.54265 -0.96063,0.54265c-0.72543,0 -1.30917,-0.70225 -1.75123,-2.10676c-0.13602,-0.43979 -0.24937,-0.8654 -0.34005,-1.27682c-0.7481,1.23426 -1.62655,2.39049 -2.63535,3.4687l-0.85011,-1.25554c1.32618,-1.41869 2.36331,-2.78063 3.11141,-4.08583c-0.39672,-2.53946 -0.64609,-5.61092 -0.7481,-9.2144h-5.2537v-1.46834h5.2197c-0.034,-1.27682 -0.05101,-2.37631 -0.05101,-3.29846l1.17316,-0.02128c0.01133,0.31211 0.02834,1.41869 0.05101,3.31974h1.54721c-0.20403,-0.87959 -0.43072,-1.70952 -0.68009,-2.4898l0.98613,-0.42561c0.31738,1.09239 0.58941,2.06419 0.81611,2.91541h1.12215v1.46834h-3.7745c0.04534,2.83738 0.20403,5.33428 0.47606,7.49069c0.63475,-1.43288 1.24683,-3.3552 1.83624,-5.76698l1.05414,0.44689c-0.64609,2.83738 -1.50187,5.3059 -2.56734,7.40556c0.11335,0.63841 0.27204,1.28392 0.47606,1.93651c0.14735,0.43979 0.28054,0.73772 0.39955,0.89378c0.11902,0.15606 0.24653,0.23408 0.38255,0.23408c0.14735,0 0.2607,-0.11704 0.34005,-0.35113c0.07934,-0.23408 0.15869,-0.67033 0.23803,-1.30874zM308.59875,171.70392h14.68996v1.55347h-4.94766v3.12821h3.99553v13.76839h-1.20716v-1.61731h-10.42239v1.61731h-1.22416v-13.76839h3.82551v-3.12821h-4.70963zM272.26491,184.83391h-6.51187c0.5214,0.85121 1.33468,1.60312 2.43982,2.25572c1.10515,0.6526 2.52484,1.14914 4.25907,1.48963l-0.51007,1.59603c-1.7229,-0.39723 -3.16809,-0.96826 -4.33558,-1.71307c-1.16749,-0.74481 -2.06294,-1.60667 -2.68636,-2.58556c-1.02014,1.95779 -3.36645,3.41904 -7.03894,4.38375l-0.54407,-1.59603c3.58181,-0.78028 5.7581,-2.0571 6.52887,-3.83046h-6.34184v-1.36194h6.66489v-1.76627h1.34318v1.76627h6.7329zM339.03281,182.79099l1.34318,0.40433c0,0.49654 -0.03967,1.66696 -0.11902,3.51126c-0.034,0.68097 -0.12185,1.20234 -0.26354,1.56411c-0.14169,0.36177 -0.37122,0.61713 -0.68859,0.76609c-0.31738,0.14896 -0.7651,0.22344 -1.34318,0.22344h-1.75123c-0.57808,0 -1.02014,-0.07803 -1.32618,-0.23408c-0.30604,-0.15606 -0.5214,-0.4327 -0.64609,-0.82993c-0.12468,-0.39723 -0.18702,-0.9789 -0.18702,-1.74499v-15.72618h1.30917v7.0438c0.68009,-0.51073 1.39702,-1.08884 2.15079,-1.73435c0.75377,-0.6455 1.41969,-1.25199 1.99777,-1.81947l0.7651,1.46834c-0.9748,0.90796 -2.61268,2.2699 -4.91365,4.08583v6.51179c0,0.38305 0.02834,0.66678 0.08501,0.85121c0.05667,0.18443 0.15869,0.31211 0.30604,0.38305c0.14735,0.07093 0.37405,0.1064 0.68009,0.1064h1.19016c0.51007,0 0.85578,-0.09222 1.03714,-0.27664c0.18136,-0.18443 0.2777,-0.5462 0.28904,-1.0853c0.02267,-0.46817 0.04251,-1.04983 0.05951,-1.74499c0.017,-0.69516 0.0255,-1.26973 0.0255,-1.72371zM325.73704,177.85395v-1.68115h4.21656v-5.46905h1.32618v19.21616h-1.32618v-4.04327l-4.11455,2.36212l-0.49307,-1.61731l4.60761,-2.63876v-6.12874zM310.70703,177.96035v9.04415h10.42239v-3.19205h-1.93826c-0.77077,0 -1.31201,-0.19152 -1.62372,-0.57457c-0.31171,-0.38305 -0.46756,-1.04983 -0.46756,-2.00035v-3.27718h-2.55034v0.02128c0,1.27682 -0.07368,2.31247 -0.22103,3.10693c-0.14735,0.79447 -0.42222,1.49672 -0.82461,2.10676c-0.40239,0.61004 -1.0003,1.22717 -1.79374,1.85139l-0.81611,-1.12786c0.73677,-0.59585 1.27234,-1.14205 1.60671,-1.63859c0.33438,-0.49654 0.55257,-1.05338 0.65459,-1.67051c0.10201,-0.61713 0.15302,-1.50027 0.15302,-2.6494zM364.11115,184.08909l0.18702,1.59603c-0.62342,0.2128 -1.49053,0.52137 -2.60135,0.9257c-1.11081,0.40433 -1.82491,0.68452 -2.14229,0.84057l-0.27204,-1.61731l2.02327,-0.70225v-7.51197h-1.71723v-1.53219h1.71723v-5.17113h1.19016v5.17113h1.5302v1.53219h-1.5302v7.08636zM300.7267,186.15329v-3.19205h1.24117v4.63912h-9.47026v-4.63912h1.24117v3.19205h2.83938v-3.91559h1.32618v3.91559zM248.93781,174.64061h-1.97226c-0.82744,1.4045 -1.92126,2.65295 -3.28144,3.74534h3.57048v-2.40468h1.25817v2.40468h3.62148c-1.28084,-0.96471 -2.34631,-2.21316 -3.19643,-3.74534zM348.06101,185.4936h6.37585l0.034,-0.78737c0.04534,-0.96471 0.07368,-1.80174 0.08501,-2.51108h-6.18882zM354.7259,177.3645h-5.91679l-0.30604,3.38358h6.10381c0.07934,-1.94361 0.11902,-3.07147 0.11902,-3.38358zM368.49773,183.70605h-3.87652v-6.00106h3.87652zM343.91246,190.02631l-1.22416,-0.46817l1.64922,-7.32044l1.15615,0.44689c-0.09068,0.39723 -0.57808,2.64586 -1.46219,6.74587zM368.63375,185.08927l0.18702,1.53219c-0.63475,0.18443 -1.57271,0.46462 -2.81387,0.84057c-1.24117,0.37595 -1.99777,0.61358 -2.2698,0.71289l-0.27204,-1.55347c0.66876,-0.18443 1.62655,-0.45753 2.87338,-0.81929c1.24683,-0.36177 2.01193,-0.5994 2.29531,-0.71289zM321.12942,182.25898v-4.29863h-2.78837v2.76645c0,0.42561 0.03684,0.74481 0.11051,0.95762c0.07368,0.2128 0.19836,0.36177 0.37405,0.44689c0.17569,0.08512 0.43923,0.12768 0.79061,0.12768zM247.25458,183.1102h-3.62148v2.06419h3.62148zM252.11723,183.1102h-3.60448v2.06419h3.60448zM243.6331,179.76918v2.02163h3.62148v-2.02163zM252.11723,181.79081v-2.02163h-3.60448v2.02163zM314.54955,173.25739v3.12821h2.55034v-3.12821zM345.93573,178.87541l-0.7311,1.34066c-1.38285,-1.50381 -2.30097,-2.46852 -2.75437,-2.89413l0.7311,-1.23426zM346.41179,173.7894l-0.69709,1.25554c-0.82744,-0.85121 -1.7399,-1.75208 -2.73736,-2.70261l0.7311,-1.21298c0.63475,0.59585 1.53587,1.48253 2.70336,2.66004zM299.63856,177.19426l-0.7821,1.17042c-1.2695,-1.26263 -2.17629,-2.13513 -2.72036,-2.61748l0.7481,-1.17042c0.4874,0.43979 1.40552,1.31229 2.75437,2.61748zM365.64135,179.08821v3.23461h1.81924v-3.23461zM352.83865,184.34446l-0.7141,1.10658c-0.24937,-0.28374 -0.59225,-0.63841 -1.02864,-1.06402c-0.43639,-0.42561 -0.82461,-0.79447 -1.16466,-1.10658l0.64609,-1.06402c0.7821,0.70935 1.53587,1.41869 2.2613,2.12804zM350.2373,178.49236l0.64609,-1.0853c0.99747,0.90796 1.7229,1.60312 2.17629,2.08548l-0.68009,1.14914c-0.61208,-0.6526 -1.32618,-1.36904 -2.14229,-2.14932z" fill="#ffffff" fill-rule="evenodd" stroke="#ffffff" stroke-width="0.5" stroke-linecap="round"/><path d="M240,196v-32h177.163v32z" fill="none" fill-rule="nonzero" stroke="none" stroke-width="0" stroke-linecap="butt"/></g></g></svg>