<svg version="1.1" xmlns="http://www.w3.org/2000/svg" xmlns:xlink="http://www.w3.org/1999/xlink" width="208" height="32" viewBox="0,0,208,32"><g transform="translate(-240,-164)"><g stroke="none" stroke-miterlimit="10"><path d="M240.81036,173.81813h16.70676v10.0322h-2.27912v-7.87517h-12.22992v7.97692h-2.19772v-10.13394M241.94992,180.63514h14.57009v2.15702h-14.57009v-2.15702M247.95296,170.257h2.29947v18.98588h-2.29947zM264.35448,174.38791h10.15429v1.91283h-10.15429v-1.91283M264.88357,178.49847h9.17753v1.85178h-9.17753v-1.85178M264.11029,183.05671h10.76477v1.79074h-10.76477v-1.79074M268.36329,174.97804h2.03493v9.03508h-2.03493v-9.03508M271.23254,181.06248l1.38375,-0.73257c0.32559,0.31202 0.66203,0.66067 1.00932,1.04595c0.34458,0.38799 0.60505,0.73122 0.78141,1.02967l-1.46515,0.83432c-0.17636,-0.29846 -0.42733,-0.65525 -0.75292,-1.07037c-0.32559,-0.41241 -0.64439,-0.78141 -0.95642,-1.107M260.9358,171.09133h17.0934v18.15156h-2.31982v-16.13698h-12.55551v16.13698h-2.21807v-18.15156M262.13641,186.21084h14.63114v2.01458h-14.63114zM283.11652,181.16422v-1.68899l1.282,-0.75292h13.22704v2.13667h-12.16887c-0.37985,0 -0.73529,0.0095 -1.0663,0.02849c-0.33373,0.02171 -0.61184,0.05562 -0.83432,0.10175c-0.2252,0.04884 -0.37171,0.10717 -0.43954,0.175M289.73004,176.0362h2.21807v10.52058c0,0.56978 -0.06783,1.02018 -0.20349,1.35119c-0.13566,0.33373 -0.40699,0.58877 -0.81397,0.76513c-0.37985,0.18993 -0.84789,0.30795 -1.4041,0.35408c-0.55621,0.04884 -1.20739,0.07326 -1.95353,0.07326c-0.02713,-0.21706 -0.08818,-0.46125 -0.18314,-0.73257c-0.09496,-0.27132 -0.194,-0.53993 -0.2971,-0.80583c-0.10039,-0.26318 -0.20485,-0.49652 -0.31338,-0.70002c0.52908,0.01357 1.03781,0.02306 1.5262,0.02849c0.48838,0.00814 0.82075,0.00543 0.99711,-0.00814c0.16279,0 0.27404,-0.02713 0.33373,-0.0814c0.06241,-0.05427 0.09361,-0.14923 0.09361,-0.28489v-10.47988M284.54097,182.18169l2.19772,0.61048c-0.31202,0.71901 -0.68509,1.43395 -1.11921,2.14481c-0.43412,0.71358 -0.89266,1.38239 -1.37561,2.00644c-0.48024,0.62405 -0.97134,1.16669 -1.47329,1.62794c-0.13566,-0.1221 -0.31474,-0.27539 -0.53722,-0.45989c-0.2252,-0.18179 -0.45311,-0.35815 -0.68374,-0.52908c-0.23062,-0.16822 -0.43412,-0.3066 -0.61048,-0.41513c0.73257,-0.59691 1.42038,-1.34305 2.06342,-2.23842c0.64575,-0.89537 1.15855,-1.81109 1.53841,-2.74715M293.18942,183.05671l1.85178,-0.87502c0.48838,0.50195 0.99305,1.05409 1.51399,1.65643c0.52365,0.60505 1.01204,1.20197 1.46515,1.79074c0.45582,0.59149 0.8194,1.12464 1.09072,1.59945l-1.99423,1.03781c-0.24419,-0.47482 -0.57928,-1.01475 -1.00525,-1.6198c-0.42869,-0.60234 -0.89673,-1.2196 -1.4041,-1.85178c-0.51009,-0.62947 -1.01611,-1.20875 -1.51806,-1.73783M281.16299,172.88206h17.39864v2.09598h-17.39864v-2.09598M283.11652,181.16422c-0.0407,-0.14923 -0.10582,-0.3595 -0.19535,-0.63083c-0.08682,-0.27132 -0.1845,-0.5535 -0.29303,-0.84653c-0.10853,-0.29032 -0.21028,-0.53722 -0.30524,-0.74071c0.27132,-0.0814 0.53179,-0.25097 0.78141,-0.50873c0.25233,-0.25776 0.54129,-0.6037 0.86688,-1.03781c0.17636,-0.20349 0.42462,-0.54943 0.74478,-1.03781c0.31745,-0.48838 0.66881,-1.06902 1.05409,-1.7419c0.38799,-0.67017 0.7787,-1.39189 1.17212,-2.16516c0.39342,-0.77327 0.75292,-1.56011 1.07851,-2.36052l2.38087,0.87502c-0.51551,1.11243 -1.08529,2.20451 -1.70934,3.27623c-0.62405,1.07173 -1.26573,2.08919 -1.92504,3.05239c-0.6566,0.9632 -1.30371,1.83144 -1.94132,2.60471v0.0407c0,0 -0.08818,0.04341 -0.26454,0.13024c-0.17636,0.08954 -0.37307,0.19807 -0.59013,0.32559c-0.21706,0.13024 -0.41377,0.26318 -0.59013,0.39885c-0.17636,0.13566 -0.26454,0.25776 -0.26454,0.36629zM301.20704,175.18153h6.02339v2.17737h-6.02339v-2.17737M311.21889,170.62329h2.27912v14.79393c0,0.55621 0.05427,0.90894 0.16279,1.05816c0.10853,0.14923 0.3595,0.22384 0.75292,0.22384c0.0814,0 0.23062,0 0.44768,0c0.21706,0 0.45447,0 0.71222,0c0.25776,0 0.49517,0 0.71222,0c0.21706,0 0.37985,0 0.48838,0c0.27132,0 0.47889,-0.11531 0.62269,-0.34594c0.14109,-0.23062 0.24555,-0.64846 0.31338,-1.25352c0.06783,-0.60234 0.1221,-1.45294 0.16279,-2.5518c0.18993,0.13566 0.40699,0.27132 0.65118,0.40699c0.24419,0.13566 0.49517,0.25369 0.75292,0.35408c0.25776,0.1031 0.48838,0.18179 0.69188,0.23605c-0.06783,1.27522 -0.19671,2.30218 -0.38664,3.08088c-0.18993,0.78141 -0.48431,1.34848 -0.88316,1.7012c-0.40156,0.35272 -0.97541,0.52908 -1.72155,0.52908c-0.10853,0 -0.29846,0 -0.56978,0c-0.27132,0 -0.56707,0 -0.88723,0c-0.31745,0 -0.60505,0 -0.86281,0c-0.25776,0 -0.44768,0 -0.56978,0c-0.73257,0 -1.30642,-0.10582 -1.72155,-0.31745c-0.41241,-0.20892 -0.7068,-0.56435 -0.88316,-1.0663c-0.17636,-0.50195 -0.26454,-1.20061 -0.26454,-2.09598v-14.75323M306.15192,170.60294h2.27912v18.4568h-2.27912v-18.4568M317.93415,173.67568l1.56689,1.95353c-0.67831,0.47482 -1.4041,0.94963 -2.17737,1.42445c-0.77327,0.47482 -1.56283,0.93607 -2.36866,1.38375c-0.80854,0.44768 -1.59945,0.86824 -2.37273,1.26166c-0.0814,-0.24419 -0.21028,-0.53315 -0.38664,-0.86688c-0.17636,-0.33102 -0.34594,-0.61184 -0.50873,-0.84246c0.74614,-0.39342 1.49635,-0.83839 2.25063,-1.33491c0.75157,-0.49381 1.47329,-0.99847 2.16516,-1.51399c0.69188,-0.51551 1.30235,-1.0039 1.83144,-1.46515M300.51516,184.48116c0.55621,-0.17636 1.1979,-0.39071 1.92504,-0.64304c0.72443,-0.24962 1.49364,-0.52094 2.30761,-0.81397c0.81397,-0.29032 1.62116,-0.5847 2.42156,-0.88316l0.40699,1.97388c-1.03103,0.46125 -2.0797,0.91572 -3.146,1.3634c-1.06359,0.44768 -2.04307,0.85467 -2.93844,1.22096zM332.87053,171.25412h5.31116v1.97388h-3.37798v15.95384h-1.93318v-17.92772M337.73401,171.25412h0.40699l0.32559,-0.0814l1.50585,0.93607c-0.33916,0.97677 -0.71901,2.01051 -1.13956,3.10123c-0.42055,1.09343 -0.82754,2.08784 -1.22096,2.98321c0.8411,0.93607 1.38782,1.80702 1.64015,2.61285c0.24962,0.80854 0.37443,1.55197 0.37443,2.23028c0,0.69188 -0.07868,1.282 -0.23605,1.77039c-0.15465,0.48838 -0.41513,0.86145 -0.78141,1.11921c-0.17636,0.1221 -0.37985,0.21977 -0.61048,0.29303c-0.23062,0.07597 -0.47482,0.13431 -0.73257,0.175c-0.23062,0.02713 -0.48838,0.04341 -0.77327,0.04884c-0.28489,0.00814 -0.56978,0.00543 -0.85467,-0.00814c-0.01357,-0.28489 -0.06105,-0.62405 -0.14244,-1.01746c-0.0814,-0.39342 -0.21028,-0.73257 -0.38664,-1.01746c0.25776,0.02713 0.49245,0.04341 0.70409,0.04884c0.20892,0.00814 0.40156,0.00543 0.57792,-0.00814c0.13566,0 0.27132,-0.01764 0.40699,-0.05291c0.13566,-0.03256 0.25097,-0.08275 0.34594,-0.15058c0.17636,-0.10853 0.30253,-0.28896 0.3785,-0.54129c0.07326,-0.24962 0.10989,-0.55079 0.10989,-0.90351c0,-0.58335 -0.14244,-1.24131 -0.42733,-1.97388c-0.28489,-0.73257 -0.83432,-1.51941 -1.64829,-2.36052c0.20349,-0.51551 0.4097,-1.06902 0.61862,-1.6605c0.21163,-0.58877 0.41513,-1.18569 0.61048,-1.79074c0.19807,-0.60234 0.3785,-1.16805 0.54129,-1.69713c0.16279,-0.52908 0.29846,-0.97677 0.40699,-1.34305v-0.71222M321.82087,172.55647h9.78801v1.95353h-9.78801v-1.95353M321.29178,178.03043h10.76477v1.97388h-10.76477v-1.97388M322.91973,174.95769l1.87213,-0.46803c0.28489,0.48838 0.53858,1.02696 0.76106,1.61573c0.2252,0.59149 0.38528,1.10429 0.48024,1.53841l-1.95353,0.54943c-0.0814,-0.44768 -0.23062,-0.97405 -0.44768,-1.5791c-0.21706,-0.60234 -0.45447,-1.15448 -0.71222,-1.65643M328.67857,174.42861l2.15702,0.46803c-0.18993,0.46125 -0.38664,0.92928 -0.59013,1.4041c-0.20349,0.47482 -0.4002,0.92928 -0.59013,1.3634c-0.18993,0.43412 -0.37985,0.82075 -0.56978,1.15991l-1.83144,-0.44768c0.17636,-0.36629 0.35543,-0.78006 0.53722,-1.24131c0.1845,-0.46125 0.35408,-0.92928 0.50873,-1.4041c0.15737,-0.47482 0.28353,-0.90894 0.3785,-1.30235M323.42846,186.35329h6.67457v1.91283h-6.67457v-1.91283M322.2889,181.59156h8.93334v7.48854h-2.15702v-5.53501h-4.72103v5.6571h-2.05528v-7.61063M325.07675,170.66399l1.97388,-0.54943c0.21706,0.43412 0.43005,0.90894 0.63897,1.42445c0.21163,0.51551 0.36493,0.95642 0.45989,1.3227l-2.09598,0.65118c-0.0814,-0.36629 -0.21435,-0.81804 -0.39885,-1.35526c-0.18179,-0.53451 -0.37443,-1.03239 -0.57792,-1.49364z" fill="#ffffff" stroke-width="1"/><path d="M240,196v-32h208v32z" fill="none" stroke-width="0"/></g></g></svg>