<svg version="1.1" xmlns="http://www.w3.org/2000/svg" xmlns:xlink="http://www.w3.org/1999/xlink" width="20.56801" height="10.66238" viewBox="0,0,20.56801,10.66238"><g transform="translate(-229.70326,-174.7191)"><g stroke-miterlimit="10"><path d="M233.51372,180.21821l-0.42551,0.67645c-0.29095,-0.29822 -0.57462,-0.56734 -0.85102,-0.80738v4.88789h-0.78555v-5.09519c-0.33459,0.89466 -0.72373,1.69476 -1.16742,2.4003l-0.30549,-0.91648c0.29095,-0.44369 0.56371,-0.96921 0.81829,-1.57656c0.25458,-0.60735 0.47279,-1.22743 0.65463,-1.86024v-0.06546h-1.18924v-0.79646h1.18924v-2.0839h0.78555v2.0839h1.16742v0.79646h-1.16742v1.26562c0.17457,0.1382 0.48006,0.39641 0.91648,0.77464zM238.32524,179.85816l0.74191,0.22912c-0.53098,1.52747 -0.96012,2.72762 -1.28744,3.60046h1.82205v0.77464h-6.58993v-0.77464h3.97141c0.45824,-1.16378 0.90557,-2.44031 1.34199,-3.82958zM233.42644,179.18171l-0.46915,-0.70918c1.33835,-0.9383 2.33484,-2.08026 2.98947,-3.42589h0.75282c0.34186,0.69827 0.77283,1.34017 1.29289,1.9257c0.52007,0.58553 1.11469,1.10378 1.78386,1.55474l-0.40369,0.72009c-0.37096,-0.26185 -0.6619,-0.48733 -0.87284,-0.67645v0.75282h-4.34237v-0.74191c-0.32004,0.2764 -0.56371,0.47642 -0.731,0.60008zM239.37265,179.24718c-0.37096,-0.26185 -0.6619,-0.48733 -0.87284,-0.67645c-0.90921,-0.77828 -1.63293,-1.65839 -2.17118,-2.64034c-0.50188,0.93103 -1.22197,1.81114 -2.16027,2.64034h4.33146M235.20485,182.86946l-0.70918,0.25094c-0.08728,-0.37096 -0.21821,-0.84011 -0.39278,-1.40745c-0.17457,-0.56734 -0.33459,-1.06923 -0.48006,-1.50565l0.67645,-0.2073c0.15275,0.42915 0.31822,0.92375 0.49643,1.48382c0.1782,0.56007 0.31459,1.02195 0.40914,1.38563zM237.00507,182.54214l-0.72009,0.2073c-0.08728,-0.40005 -0.20184,-0.86556 -0.34368,-1.39654c-0.14184,-0.53098 -0.27094,-0.96376 -0.38732,-1.29835l0.70918,-0.2073c0.19639,0.61826 0.44369,1.51656 0.74191,2.69489z" fill="#ffffff" fill-rule="evenodd" stroke="#ffffff" stroke-width="0.5" stroke-linecap="round" stroke-linejoin="miter"/><path d="M245.4716,177.23965h-1.52747l-0.01091,2.17118h1.72386v0.81829h-1.75659c-0.03637,0.3855 -0.08728,0.71282 -0.15275,0.98194c0.50188,0.56007 1.13833,1.32017 1.90933,2.28029l-0.58917,0.58917c-0.56007,-0.69827 -1.09105,-1.34199 -1.59293,-1.93115c-0.34914,0.94557 -0.98558,1.90206 -1.90933,2.86946l-0.60008,-0.63281c0.67645,-0.68372 1.18379,-1.35108 1.52201,-2.00207c0.33822,-0.65099 0.54371,-1.36926 0.61644,-2.15482h-2.06208v-0.81829h2.09481l0.01091,-2.17118h-0.731c-0.25458,0.64736 -0.49461,1.17833 -0.72009,1.59293l-0.66554,-0.40369c0.26185,-0.50916 0.51279,-1.07104 0.75282,-1.68567c0.24003,-0.61462 0.43278,-1.19106 0.57826,-1.72931l0.75282,0.16366c-0.13093,0.45824 -0.26185,0.8692 -0.39278,1.23288h2.74944zM246.99907,184.70242l-0.79646,-0.01091v-8.67383h3.81867v8.68474h-0.8292v-1.01467h-2.19301zM249.19208,176.84687h-2.19301v6.02258h2.19301z" fill="#ffffff" fill-rule="evenodd" stroke="#ffffff" stroke-width="0.5" stroke-linecap="round" stroke-linejoin="miter"/><path d="M230,185v-10h20v10z" fill-opacity="0" fill="#000000" fill-rule="nonzero" stroke="none" stroke-width="2" stroke-linecap="butt" stroke-linejoin="round"/></g></g></svg>