<svg version="1.1" xmlns="http://www.w3.org/2000/svg" xmlns:xlink="http://www.w3.org/1999/xlink" width="208" height="32" viewBox="0,0,208,32"><g transform="translate(-240,-164)"><g stroke-miterlimit="10"><path d="M240,196v-32h208v32z" fill="none" fill-rule="nonzero" stroke="none" stroke-width="0" stroke-linecap="butt"/><path d="M378.73112,183.24619l1.42879,0.33093c0,0.41367 -0.02683,1.07554 -0.0805,1.98561l-0.02012,0.68255c-0.04025,0.56535 -0.14757,1.00315 -0.32198,1.3134c-0.17441,0.31025 -0.45614,0.53087 -0.8452,0.66187c-0.38906,0.131 -0.93911,0.19649 -1.65015,0.19649h-5.11145c-0.67079,0 -1.19737,-0.07239 -1.57972,-0.21718c-0.38235,-0.14478 -0.66073,-0.39988 -0.83514,-0.76529c-0.17441,-0.36541 -0.26161,-0.89283 -0.26161,-1.58228v-7.1151l-1.6904,0.59982l-0.38235,-1.46852l2.07275,-0.72392v-5.10881h1.42879v4.6124l2.49535,-0.88939v-5.54316h1.40867v5.06744l4.28637,-1.50989l-0.22136,7.38398c-0.04025,0.56535 -0.12074,0.9928 -0.24149,1.28237c-0.12074,0.28957 -0.32869,0.4964 -0.62384,0.6205c-0.29515,0.1241 -0.72446,0.18615 -1.28792,0.18615h-1.08669l-0.28173,-1.53057h0.72446c0.38906,0 0.6775,-0.03103 0.86532,-0.09308c0.18782,-0.06205 0.31863,-0.17581 0.39241,-0.34128c0.07379,-0.16547 0.11739,-0.42746 0.1308,-0.78597l0.18111,-4.63309l-2.83746,0.9928v8.19064h-1.40867v-7.69423l-2.49535,0.88939v6.991c0,0.4964 0.03354,0.86181 0.10062,1.09622c0.06708,0.23441 0.20459,0.39988 0.41254,0.4964c0.20795,0.09652 0.53328,0.14478 0.97601,0.14478h4.3065c0.56347,0 0.97601,-0.03447 1.23761,-0.10342c0.26161,-0.06895 0.44608,-0.20683 0.5534,-0.41367c0.10733,-0.20683 0.17441,-0.53777 0.20124,-0.9928zM400.08249,174.64188h-10.74612l-0.14087,2.7509l-0.04025,0.64119h8.67336c-0.05366,0.89628 -0.12745,2.1166 -0.22136,3.66097c-0.09391,1.54436 -0.17441,2.76468 -0.24149,3.66097c-0.06708,0.82734 -0.21801,1.45818 -0.45279,1.89253c-0.23478,0.43435 -0.5903,0.74116 -1.06656,0.92041c-0.47626,0.17926 -1.1437,0.26888 -2.00232,0.26888h-3.17956l-0.32198,-1.55126h2.93808c0.67079,0 1.17724,-0.0586 1.51935,-0.17581c0.3421,-0.11721 0.5903,-0.32404 0.74458,-0.6205c0.15428,-0.29646 0.25826,-0.73426 0.31192,-1.3134l0.32198,-5.17086h-7.16408c-0.16099,1.37889 -0.42931,2.59577 -0.80495,3.65062c-0.37564,1.05485 -0.91563,2.058 -1.61997,3.00944c-0.70433,0.95144 -1.63338,1.93045 -2.78715,2.93705l-1.18731,-1.32374c1.26109,-1.07554 2.23039,-2.09592 2.90789,-3.06115c0.6775,-0.96523 1.17389,-2.03042 1.48916,-3.19559c0.31527,-1.16517 0.52657,-2.64403 0.6339,-4.43659l0.14087,-2.54406h-4.93033v-1.57194h8.33126l-1.08669,-2.62679l1.65015,-0.43435c0.20124,0.42746 0.63055,1.44784 1.28792,3.06115h7.04334zM299.74514,183.2255h-10.00154c-1.01961,1.15827 -2.26728,2.35791 -3.74303,3.59892l9.03559,-0.35162l-2.21362,-2.15108l0.98607,-1.01349c0.57688,0.53777 1.13029,1.06175 1.66021,1.57194c0.52993,0.51019 0.99613,0.95833 1.39861,1.34442c1.44891,1.40647 2.04592,1.97871 1.79102,1.71672l-1.04644,1.17896c-0.22807,-0.2482 -0.64396,-0.68255 -1.24768,-1.30306l-12.43652,0.55845l-0.38235,-1.46852c1.58307,-1.15827 2.97162,-2.38549 4.16563,-3.68165h-5.77554v-1.40647h2.65634v-10.75538h12.43652v10.75538h2.71672zM338.46336,182.12928l1.46904,0.33093l-0.12074,3.82643c-0.04025,0.75839 -0.23478,1.28927 -0.58359,1.59262c-0.34881,0.30336 -0.94582,0.45504 -1.79102,0.45504h-1.85139c-0.72446,0 -1.25774,-0.17926 -1.59984,-0.53777c-0.3421,-0.35851 -0.51316,-0.97212 -0.51316,-1.84082v-9.82463h-4.36687c-0.06708,2.31654 -0.27503,4.1746 -0.62384,5.57418c-0.34881,1.39958 -0.92234,2.64403 -1.72059,3.73336c-0.79824,1.08933 -1.9889,2.30965 -3.57198,3.66097l-1.08669,-1.34442c1.47575,-1.21343 2.57249,-2.28897 3.29024,-3.22661c0.71775,-0.93765 1.23091,-2.03042 1.53947,-3.27832c0.30857,-1.2479 0.48968,-2.95428 0.54334,-5.11915h-4.82972v-1.71672h4.84984c0.02683,-2.41307 0.05366,-3.82643 0.0805,-4.2401h1.67028l-0.10062,4.2401h5.9969v11.2311c0,0.38609 0.06708,0.66532 0.20124,0.83768c0.13416,0.17236 0.36223,0.25854 0.68421,0.25854h1.10681c0.42931,0 0.73117,-0.07929 0.90557,-0.23786c0.17441,-0.15857 0.27503,-0.44469 0.30186,-0.85836c0.02683,-0.51019 0.05366,-1.1169 0.0805,-1.82014c0.02683,-0.70324 0.04025,-1.26858 0.04025,-1.69604zM263.07955,188.89276v-17.56023h15.31422v14.4784c0,0.79976 -0.0872,1.40303 -0.26161,1.8098c-0.17441,0.40677 -0.46285,0.686 -0.86532,0.83768c-0.40248,0.15168 -0.99278,0.22752 -1.7709,0.22752h-2.49535l-0.28173,-1.57194h2.31424c0.53663,0 0.92905,-0.04137 1.17724,-0.1241c0.24819,-0.08273 0.41589,-0.24475 0.5031,-0.48606c0.0872,-0.24131 0.1308,-0.62395 0.1308,-1.14793v-12.49279h-12.21516v16.02965zM318.15843,181.94313l1.58978,0.39299c0,0.48261 -0.04696,1.6202 -0.14087,3.41276c-0.04025,0.66187 -0.14422,1.16861 -0.31192,1.52023c-0.1677,0.35162 -0.43937,0.59982 -0.81501,0.7446c-0.37564,0.14478 -0.90557,0.21718 -1.58978,0.21718h-2.07275c-0.68421,0 -1.20743,-0.07584 -1.56966,-0.22752c-0.36223,-0.15168 -0.61713,-0.42056 -0.76471,-0.80665c-0.14757,-0.38609 -0.22136,-0.95144 -0.22136,-1.69604v-15.28505h1.54953v6.84621c0.80495,-0.4964 1.65351,-1.0583 2.54566,-1.6857c0.89216,-0.6274 1.68034,-1.21688 2.36455,-1.76843l0.90557,1.42716c-1.15377,0.88249 -3.09236,2.20623 -5.81578,3.97122v6.32913c0,0.3723 0.03354,0.64808 0.10062,0.82734c0.06708,0.17926 0.18782,0.30336 0.36223,0.3723c0.17441,0.06895 0.44272,0.10342 0.80495,0.10342h1.40867c0.60371,0 1.0129,-0.08963 1.22755,-0.26888c0.21465,-0.17926 0.32869,-0.53087 0.3421,-1.05485c0.02683,-0.45504 0.05031,-1.02038 0.07043,-1.69604c0.02012,-0.67566 0.03019,-1.23411 0.03019,-1.67536zM302.42161,177.14458v-1.63399h4.99071v-5.31564h1.56966v18.67713h-1.56966v-3.92985l-4.86996,2.29586l-0.58359,-1.57194l5.45355,-2.56474v-5.95683zM275.63681,184.48719l-1.16718,1.1169c-1.05985,-1.29616 -2.28741,-2.77158 -3.68266,-4.42625c-1.51599,1.7512 -3.01186,3.27488 -4.48761,4.57104l-0.96594,-1.26169c1.55624,-1.35132 3.0387,-2.83363 4.44736,-4.44694c-1.73065,-1.9994 -3.08565,-3.53687 -4.06501,-4.6124l1.06656,-0.9928c1.30134,1.39268 2.62951,2.8681 3.98452,4.42625c1.22084,-1.51678 2.31424,-3.07494 3.28018,-4.67445l1.2678,0.88939c-1.03302,1.64089 -2.21362,3.28177 -3.54179,4.92265c1.1001,1.24101 2.38803,2.73711 3.86377,4.4883zM247.18173,174.0007v1.57194c-0.48297,1.15827 -0.96594,2.17865 -1.44891,3.06115c1.31476,1.10312 2.13983,1.80635 2.47523,2.10971l-0.88545,1.17896c-0.26832,-0.27578 -0.8452,-0.79976 -1.73065,-1.57194v8.70772h-1.40867v-7.9838c-0.68421,0.91007 -1.40867,1.7443 -2.17337,2.50269l-0.62384,-1.55126c0.89886,-0.92386 1.72394,-1.95803 2.47523,-3.10251c0.75129,-1.14448 1.3483,-2.29586 1.79102,-3.45413h-3.78328v-1.46852zM366.21411,177.10321v7.15646l2.31424,-0.76529l0.12074,0.76529l0.0805,0.66187l-5.97677,2.00629l-0.38235,-1.38579l2.41486,-0.80665v-7.63218h-2.113v-1.50989h2.113v-4.96402h1.42879v4.96402h1.71052v1.50989zM343.97729,189.24438l-1.3483,-0.9928c1.00619,-1.06175 1.75748,-2.05455 2.25387,-2.97841c0.49639,-0.92386 0.84185,-1.9994 1.03638,-3.22661c0.19453,-1.22722 0.2918,-2.8681 0.2918,-4.92265v-6.80485h1.44891v6.8669c0,2.19244 -0.10397,3.96432 -0.31192,5.31564c-0.20795,1.35132 -0.57018,2.53717 -1.08669,3.55755c-0.51651,1.02038 -1.27786,2.08213 -2.28405,3.18525zM249.83808,188.10679v0.9928h-1.44891v-8.91456h10.30339v8.91456h-1.44891v-0.9928zM357.23888,188.87208v-18.55303h1.48916v18.55303zM351.60422,188.47909v-17.64296h1.44891v17.64296zM257.86748,178.6131h-8.65324v-4.38489h8.65324zM259.07491,172.73901h-11.10835v-1.42716h11.10835zM295.57951,181.81903v-2.27518h-9.51856v2.27518zM286.06095,176.00699v2.19244h9.51856v-2.19244zM286.06095,174.70393h9.51856v-2.17176h-9.51856zM343.65531,181.81903l-1.32817,-0.39299c0.29515,-0.84113 0.57353,-1.84427 0.83514,-3.00944c0.26161,-1.16517 0.4662,-2.23726 0.61378,-3.21627l1.32817,0.20683c-0.16099,0.92386 -0.38235,2.02008 -0.66409,3.28866c-0.28173,1.26858 -0.54334,2.30965 -0.78483,3.1232zM250.62291,175.4899v1.86151h5.81578v-1.86151zM353.41536,175.88289l1.24768,-0.55845c0.52322,1.13069 1.28792,2.93705 2.29412,5.41906l-1.2678,0.55845c-0.69763,-1.90287 -1.45562,-3.70923 -2.27399,-5.41906zM347.90143,175.86221l1.20743,-0.55845c0.64396,1.32374 1.355,3.08183 2.13312,5.27427l-1.28792,0.6205c-0.71104,-2.1235 -1.39525,-3.90227 -2.05263,-5.33632zM257.24364,184.71471h-3.0387v2.10971h3.0387zM252.85665,184.71471h-3.01857v2.10971h3.01857zM254.20495,181.46741v1.96493h3.0387v-1.96493zM249.83808,183.43234h3.01857v-1.96493h-3.01857zM245.95418,173.09063l-1.3483,0.6205c-0.38906,-1.14448 -0.79154,-2.18555 -1.20743,-3.1232l1.32817,-0.59982l0.60371,1.55126z" fill="#ffffff" fill-rule="evenodd" stroke="#ffffff" stroke-width="0.5" stroke-linecap="round"/></g></g></svg>