<svg version="1.1" xmlns="http://www.w3.org/2000/svg" xmlns:xlink="http://www.w3.org/1999/xlink" width="224" height="192" viewBox="0,0,224,192"><g transform="translate(-128,-180)"><g stroke="none" stroke-miterlimit="10"><path d="M128,372v-192h224v192z" fill="#1d2a41"/><path d="M140.03434,193.77211h11.47573v1.60056h-11.47573v-1.60056M139.03777,197.62252h13.27258v1.60056h-13.27258v-1.60056M146.48189,198.12081c0.35232,0.82545 0.82041,1.56734 1.40427,2.22569c0.58385,0.66036 1.28649,1.22206 2.10791,1.68512c0.81941,0.46306 1.75257,0.81035 2.79947,1.04188c-0.1208,0.13086 -0.25367,0.28891 -0.39863,0.47413c-0.14697,0.18724 -0.28589,0.38152 -0.41675,0.58285c-0.13086,0.20133 -0.23656,0.38252 -0.31709,0.54359c-1.11737,-0.32213 -2.09583,-0.76505 -2.93537,-1.32877c-0.84155,-0.56372 -1.56634,-1.25327 -2.17435,-2.06865c-0.61003,-0.81538 -1.12643,-1.73646 -1.54922,-2.76323l1.47976,-0.39259M148.61094,190.69179l1.78176,0.57379c-0.23153,0.40266 -0.47312,0.81035 -0.72478,1.22307c-0.25166,0.41272 -0.49829,0.80229 -0.73988,1.16871c-0.24159,0.36843 -0.47816,0.69861 -0.70968,0.99054l-1.38917,-0.54359c0.22146,-0.31206 0.44292,-0.66438 0.66438,-1.05697c0.22146,-0.39259 0.43084,-0.79525 0.62815,-1.20797c0.19529,-0.41272 0.35836,-0.79525 0.48923,-1.14757M141.25741,191.41657l1.37407,-0.67948c0.32213,0.37246 0.63116,0.79525 0.92712,1.26837c0.29797,0.47312 0.52245,0.88585 0.67344,1.23817l-1.46467,0.80028c-0.08053,-0.24159 -0.20133,-0.51339 -0.36239,-0.81538c-0.16106,-0.30199 -0.33924,-0.61405 -0.53453,-0.93618c-0.1973,-0.32213 -0.40165,-0.61405 -0.61305,-0.87578M144.80583,194.3308h1.90255v2.97463c0,0.51339 -0.05033,1.03886 -0.151,1.5764c-0.10066,0.53956 -0.28689,1.07308 -0.55869,1.60056c-0.27179,0.52949 -0.66438,1.04791 -1.17777,1.55526c-0.51339,0.50936 -1.17475,0.99255 -1.98409,1.44957c-0.81135,0.45903 -1.81598,0.87981 -3.01389,1.26233c-0.07047,-0.13086 -0.17113,-0.28488 -0.30199,-0.46205c-0.13086,-0.17516 -0.27381,-0.35333 -0.42883,-0.53453c-0.15704,-0.1812 -0.31105,-0.33219 -0.46205,-0.45299c1.09724,-0.33219 2.01832,-0.68955 2.76323,-1.07207c0.74492,-0.38252 1.34387,-0.78015 1.79686,-1.19287c0.45299,-0.41272 0.79525,-0.8335 1.02678,-1.26233c0.23153,-0.42682 0.38756,-0.85162 0.46809,-1.27441c0.08053,-0.42279 0.1208,-0.83048 0.1208,-1.22307zM156.82514,195.61427h8.15381v1.54016h-8.15381v-1.54016M161.46073,193.63622h1.67606v8.04811c0,0.42279 -0.05235,0.74995 -0.15704,0.98148c-0.1067,0.23153 -0.30602,0.40769 -0.59795,0.52849c-0.28186,0.1208 -0.64123,0.19831 -1.07811,0.23253c-0.4389,0.03624 -0.96537,0.05436 -1.57942,0.05436c-0.0302,-0.22146 -0.09563,-0.48319 -0.1963,-0.78518c-0.10066,-0.30199 -0.20636,-0.56372 -0.31709,-0.78518c0.27179,0.01007 0.53855,0.02013 0.80028,0.0302c0.26173,0.01007 0.49326,0.01208 0.69458,0.00604c0.20133,-0.00403 0.34226,-0.00604 0.42279,-0.00604c0.13086,-0.01007 0.21945,-0.03523 0.26575,-0.0755c0.04429,-0.04027 0.06644,-0.11073 0.06644,-0.21139v-8.01791M154.3035,194.2402h1.61566v10.50935h-1.61566v-10.50935M154.53,191.52227l1.25327,-0.78518c0.24159,0.22146 0.49024,0.46507 0.74592,0.73082c0.2577,0.26777 0.49527,0.53755 0.7127,0.80934c0.21542,0.27179 0.38353,0.51842 0.50433,0.73988l-1.34387,0.89088c-0.11073,-0.22146 -0.26978,-0.47111 -0.47715,-0.74894c-0.20536,-0.27582 -0.42883,-0.55768 -0.67042,-0.84558c-0.24159,-0.28589 -0.48319,-0.54963 -0.72478,-0.79122M158.471,191.41657h8.10851v1.49486h-8.10851v-1.49486M165.67353,191.41657h1.58546v11.55122c0,0.39259 -0.04731,0.69962 -0.14194,0.92108c-0.09664,0.22146 -0.27079,0.39762 -0.52245,0.52849c-0.25166,0.1208 -0.56674,0.19831 -0.94524,0.23253c-0.37648,0.03624 -0.83652,0.04933 -1.38011,0.03926c-0.0302,-0.20133 -0.09261,-0.44796 -0.18724,-0.73988c-0.09664,-0.29193 -0.19529,-0.53352 -0.29595,-0.72478c0.32213,0.01007 0.64123,0.01711 0.95732,0.02114c0.3181,0.00604 0.52748,0.00403 0.62815,-0.00604c0.11073,-0.01007 0.18925,-0.03523 0.23555,-0.0755c0.04429,-0.04027 0.06644,-0.11576 0.06644,-0.22649v-11.52103M161.00774,196.33905l1.46467,0.51339c-0.57379,1.06704 -1.31065,2.03845 -2.21059,2.91423c-0.90195,0.87578 -1.90658,1.62069 -3.01389,2.23475c-0.07047,-0.11073 -0.17314,-0.24159 -0.30803,-0.39259c-0.1369,-0.151 -0.27582,-0.29998 -0.41675,-0.44695c-0.14093,-0.14496 -0.27179,-0.26273 -0.39259,-0.35333c0.70465,-0.34226 1.36702,-0.75297 1.98711,-1.23213c0.61808,-0.47715 1.17676,-0.99255 1.67606,-1.5462c0.49728,-0.55365 0.90195,-1.11737 1.21401,-1.69116zM173.17805,202.39401h7.71592v1.46467h-7.71592v-1.46467M172.60427,198.6342h9.36178v6.00966h-1.66096v-4.51479h-6.11535v4.52989h-1.58546v-6.02476M171.1698,192.76044h10.46405v4.62049h-10.46405v-1.50996h8.83329v-1.61566h-8.83329v-1.49486M170.53562,192.76044h1.66096v3.82021c0,0.60399 -0.02517,1.26535 -0.0755,1.98409c-0.05033,0.72076 -0.14898,1.45359 -0.29595,2.19851c-0.14496,0.74492 -0.35534,1.46467 -0.63116,2.15925c-0.27783,0.69458 -0.64324,1.32374 -1.09623,1.88745c-0.0906,-0.11073 -0.21945,-0.23958 -0.38655,-0.38655c-0.16509,-0.14496 -0.3332,-0.28589 -0.50433,-0.42279c-0.17113,-0.13489 -0.32213,-0.23253 -0.45299,-0.29293c0.41272,-0.51339 0.73686,-1.07006 0.97242,-1.67002c0.23757,-0.59795 0.41373,-1.21703 0.52849,-1.85726c0.11677,-0.63821 0.19227,-1.26434 0.22649,-1.8784c0.03624,-0.61405 0.05436,-1.18784 0.05436,-1.72136v-3.82021M174.68802,191.05418l1.58546,-0.40769c0.19126,0.32213 0.37246,0.67646 0.54359,1.06301c0.17113,0.38856 0.30703,0.72378 0.40769,1.00564l-1.66096,0.48319c-0.08053,-0.29193 -0.20636,-0.64224 -0.37749,-1.05093c-0.17113,-0.40668 -0.33722,-0.77109 -0.49829,-1.09321zM191.02583,193.99861h5.96436v1.55526h-5.96436v-1.55526M196.1597,193.99861h1.58546c0,0 0,0.04731 0,0.14194c0,0.09664 -0.00302,0.20536 -0.00906,0.32615c-0.00403,0.1208 -0.00604,0.21643 -0.00604,0.28689c-0.04027,1.54016 -0.08255,2.84578 -0.12684,3.91685c-0.04631,1.07308 -0.09966,1.95691 -0.16006,2.6515c-0.0604,0.69458 -0.1359,1.23817 -0.22649,1.63076c-0.0906,0.39259 -0.20133,0.67445 -0.33219,0.84558c-0.17113,0.24159 -0.3493,0.4097 -0.53453,0.50433c-0.18724,0.09664 -0.41172,0.17012 -0.67344,0.22045c-0.24159,0.0302 -0.54359,0.04731 -0.90598,0.05134c-0.36239,0.00604 -0.73988,-0.00101 -1.13247,-0.02114c-0.02013,-0.23153 -0.07248,-0.49829 -0.15704,-0.80028c-0.08657,-0.30199 -0.20032,-0.56372 -0.34125,-0.78518c0.38252,0.0302 0.73183,0.04731 1.04791,0.05134c0.3181,0.00604 0.55768,0.00906 0.71874,0.00906c0.13086,0.01007 0.23958,-0.00302 0.32615,-0.03926c0.08456,-0.03423 0.1671,-0.10167 0.24763,-0.20234c0.0906,-0.11073 0.17113,-0.34226 0.24159,-0.69458c0.07047,-0.35232 0.13086,-0.85565 0.1812,-1.50996c0.05033,-0.65432 0.09563,-1.49285 0.1359,-2.5156c0.04027,-1.02074 0.08053,-2.26092 0.1208,-3.72055v-0.34729M192.86798,190.93338h1.60056c0,1.13751 -0.01208,2.24985 -0.03624,3.33702c-0.02617,1.08717 -0.08959,2.13106 -0.19026,3.13167c-0.10066,1.00262 -0.26173,1.95188 -0.48319,2.84779c-0.22146,0.89591 -0.52345,1.72136 -0.90598,2.47634c-0.38252,0.75498 -0.87578,1.42943 -1.47976,2.02335c-0.0906,-0.14093 -0.20636,-0.28991 -0.34729,-0.44695c-0.14093,-0.15502 -0.28689,-0.303 -0.43789,-0.44393c-0.151,-0.14093 -0.29696,-0.25166 -0.43789,-0.33219c0.55365,-0.52345 1.00362,-1.12543 1.34991,-1.80592c0.3483,-0.67848 0.61506,-1.42339 0.80028,-2.23475c0.18724,-0.80934 0.32112,-1.67505 0.40165,-2.59714c0.08053,-0.92007 0.12885,-1.88142 0.14496,-2.88403c0.01409,-1.0006 0.02114,-2.02436 0.02114,-3.07127M184.65378,191.85446h5.91906v1.43447h-5.91906v-1.43447M184.14039,195.38777h6.68914v1.46467h-6.68914v-1.46467M188.51929,198.27181l1.31367,-0.36239c0.1812,0.43286 0.36742,0.89793 0.55869,1.39521c0.19126,0.4993 0.36742,0.98248 0.52849,1.44957c0.16106,0.4691 0.28186,0.87477 0.36239,1.21703l-1.40427,0.45299c-0.07047,-0.35232 -0.17818,-0.76807 -0.32313,-1.24723c-0.14697,-0.47715 -0.31105,-0.9704 -0.49225,-1.47976c-0.1812,-0.50735 -0.36239,-0.98248 -0.54359,-1.42541M184.77458,203.05839l-0.151,-1.35897l0.70968,-0.52849l4.89228,-1.11737c0.02013,0.20133 0.05335,0.43789 0.09966,0.70968c0.04429,0.27179 0.0916,0.49326 0.14194,0.66438c-0.92611,0.22146 -1.70123,0.41272 -2.32534,0.57379c-0.62412,0.16106 -1.13751,0.29696 -1.54016,0.40769c-0.40266,0.11073 -0.72176,0.20636 -0.95732,0.28689c-0.23757,0.08053 -0.42178,0.14596 -0.55265,0.1963c-0.13086,0.05033 -0.23656,0.1057 -0.31709,0.1661M184.75948,203.05839c-0.02013,-0.11073 -0.0604,-0.25669 -0.1208,-0.43789c-0.0604,-0.1812 -0.12583,-0.36541 -0.1963,-0.55265c-0.07047,-0.18522 -0.1359,-0.34326 -0.1963,-0.47413c0.14093,-0.04027 0.26676,-0.14898 0.37749,-0.32615c0.11073,-0.17516 0.23153,-0.40366 0.36239,-0.68552c0.0604,-0.14093 0.14294,-0.36742 0.24763,-0.67948c0.1067,-0.31206 0.22247,-0.67747 0.34729,-1.09623c0.12684,-0.41675 0.25065,-0.86974 0.37145,-1.35897c0.1208,-0.48722 0.22146,-0.96738 0.30199,-1.44051l1.60056,0.45299c-0.151,0.66438 -0.33722,1.33884 -0.55869,2.02335c-0.22146,0.68452 -0.45802,1.34387 -0.70968,1.97805c-0.25166,0.63418 -0.50332,1.20294 -0.75498,1.70626v0.0453c0,0 -0.05537,0.02718 -0.1661,0.08154c-0.11073,0.05637 -0.23656,0.12986 -0.37749,0.22045c-0.14093,0.0906 -0.26374,0.18321 -0.36843,0.27783c-0.1067,0.09664 -0.16006,0.18522 -0.16006,0.26575zM200.3272,191.86956h4.3034v10.08656h-4.3034v-1.44957h2.79343v-7.18743h-2.79343v-1.44957M200.4178,196.14276h3.15582v1.41937h-3.15582v-1.41937M199.55712,191.86956h1.52506v11.30963h-1.52506v-11.30963M205.23459,193.51542h7.88201v1.61566h-7.88201v-1.61566M209.85508,190.75219h1.64586v11.79282c0,0.50332 -0.06543,0.88283 -0.1963,1.13851c-0.13086,0.2577 -0.35736,0.45198 -0.67948,0.58285c-0.31206,0.13086 -0.73284,0.21341 -1.26233,0.24763c-0.52748,0.03624 -1.16871,0.04933 -1.92369,0.03926c-0.0302,-0.23153 -0.10268,-0.50634 -0.21743,-0.82444c-0.11677,-0.31609 -0.23555,-0.58486 -0.35635,-0.80632c0.37246,0.01007 0.73284,0.01711 1.08113,0.02114c0.34628,0.00604 0.65029,0.00906 0.91202,0.00906c0.26173,0 0.44796,0 0.55869,0c0.16106,-0.01007 0.27481,-0.04329 0.34125,-0.09966c0.06443,-0.05436 0.09664,-0.16207 0.09664,-0.32313v-11.77772M205.49128,196.88264l1.34387,-0.70968c0.25166,0.35232 0.52345,0.73686 0.81538,1.15361c0.29193,0.41876 0.56875,0.82645 0.83048,1.22307c0.26173,0.39863 0.47312,0.74391 0.63418,1.03584l-1.43447,0.83048c-0.151,-0.30199 -0.3493,-0.65734 -0.59493,-1.06603c-0.24763,-0.40668 -0.51238,-0.82645 -0.79424,-1.25931c-0.28186,-0.43286 -0.54862,-0.83551 -0.80028,-1.20797zM215.71374,193.10773h4.62049v10.08656h-4.62049v-1.43447h3.14073v-7.23273h-3.14073v-1.41937M214.76246,193.10773h1.47976v11.23413h-1.47976v-11.23413M215.63824,197.18463h3.95611v1.40427h-3.95611v-1.40427M216.95191,190.64649l1.76666,0.27179c-0.16106,0.49326 -0.33219,0.98852 -0.51339,1.4858c-0.1812,0.4993 -0.34729,0.92511 -0.49829,1.27743l-1.29857,-0.30199c0.07047,-0.25166 0.14294,-0.53855 0.21743,-0.86068c0.07651,-0.32213 0.14496,-0.64727 0.20536,-0.97544c0.0604,-0.32615 0.10066,-0.62513 0.1208,-0.89692M222.37268,193.01713h4.48459v1.47976h-4.48459v-1.47976M226.28348,193.01713h1.50996c0,0 0,0.04731 0,0.14194c0,0.09664 0,0.20234 0,0.31709c0,0.11677 -0.00503,0.21039 -0.0151,0.28085c-0.05033,1.71129 -0.10268,3.16086 -0.15704,4.3487c-0.05637,1.18784 -0.12281,2.16428 -0.19932,2.92933c-0.07449,0.76505 -0.16207,1.36098 -0.26273,1.7878c-0.10066,0.42883 -0.23153,0.74391 -0.39259,0.94524c-0.20133,0.27179 -0.40769,0.45802 -0.61909,0.55869c-0.21139,0.10066 -0.46809,0.17616 -0.77008,0.22649c-0.27179,0.0302 -0.61909,0.0453 -1.04188,0.0453c-0.42279,0 -0.85565,-0.01007 -1.29857,-0.0302c-0.01007,-0.22146 -0.06241,-0.48319 -0.15704,-0.78518c-0.09664,-0.30199 -0.22549,-0.56372 -0.38655,-0.78518c0.49326,0.04027 0.94624,0.06543 1.35897,0.0755c0.41272,0.01007 0.71472,0.0151 0.90598,0.0151c0.151,0 0.27481,-0.01812 0.37145,-0.05436c0.09462,-0.03423 0.19227,-0.10167 0.29293,-0.20234c0.1208,-0.14093 0.22649,-0.41574 0.31709,-0.82444c0.0906,-0.40668 0.1661,-0.98248 0.22649,-1.7274c0.0604,-0.74492 0.11778,-1.69116 0.17214,-2.83873c0.05637,-1.14757 0.10469,-2.51661 0.14496,-4.1071v-0.31709M222.49348,190.64649l1.55526,0.36239c-0.19126,0.74492 -0.42078,1.48178 -0.68854,2.21059c-0.26575,0.73082 -0.55969,1.41836 -0.88182,2.06261c-0.32213,0.64425 -0.65432,1.20797 -0.99658,1.69116c-0.10066,-0.0906 -0.23153,-0.1963 -0.39259,-0.31709c-0.16106,-0.1208 -0.32716,-0.23958 -0.49829,-0.35635c-0.17113,-0.11476 -0.31709,-0.20234 -0.43789,-0.26273c0.33219,-0.43286 0.64626,-0.9392 0.94222,-1.51902c0.29797,-0.57781 0.56573,-1.19891 0.8033,-1.8633c0.23555,-0.66438 0.43386,-1.3338 0.59493,-2.00825M221.76869,197.24503l1.26837,-0.70968c0.25166,0.34226 0.52345,0.72176 0.81538,1.13851c0.29193,0.41876 0.56674,0.82142 0.82444,1.20797c0.25569,0.38856 0.45903,0.73384 0.61003,1.03584l-1.37407,0.84558c-0.14093,-0.31206 -0.33219,-0.66942 -0.57379,-1.07207c-0.24159,-0.40266 -0.5003,-0.8184 -0.77612,-1.24723c-0.27783,-0.42682 -0.54258,-0.82645 -0.79424,-1.19891zM238.333,196.80714h1.72136v7.95751h-1.72136v-7.95751M232.64043,196.82224h1.72136v1.79686c0,0.50332 -0.03523,1.02678 -0.1057,1.57036c-0.07047,0.54359 -0.21643,1.08717 -0.43789,1.63076c-0.22146,0.54359 -0.55567,1.06704 -1.00262,1.57036c-0.44896,0.50332 -1.05093,0.96638 -1.80592,1.38917c-0.10066,-0.13086 -0.23153,-0.27179 -0.39259,-0.42279c-0.16106,-0.151 -0.32716,-0.29696 -0.49829,-0.43789c-0.17113,-0.14093 -0.32716,-0.25669 -0.46809,-0.34729c0.68452,-0.36239 1.22307,-0.74995 1.61566,-1.16267c0.39259,-0.41272 0.68955,-0.83551 0.89088,-1.26837c0.20133,-0.43286 0.33219,-0.86873 0.39259,-1.30763c0.0604,-0.43688 0.0906,-0.85665 0.0906,-1.25931v-1.75156M236.18885,190.49549l1.29857,0.90598c-0.52345,0.81538 -1.18582,1.60559 -1.98711,2.37064c-0.79927,0.76505 -1.67505,1.4546 -2.62734,2.06865c-0.95027,0.61405 -1.91363,1.11234 -2.89007,1.49486c-0.10066,-0.23153 -0.24461,-0.49829 -0.43185,-0.80028c-0.18522,-0.30199 -0.36843,-0.55365 -0.54963,-0.75498c0.71472,-0.23153 1.42641,-0.52849 2.13509,-0.89088c0.71069,-0.36239 1.38313,-0.77813 2.01731,-1.24723c0.63418,-0.46708 1.21099,-0.9704 1.73042,-1.50996c0.51741,-0.53755 0.95228,-1.08315 1.30461,-1.6368M237.00423,191.53737c0.32213,0.44292 0.71975,0.87276 1.19287,1.28951c0.47312,0.41876 0.99658,0.80431 1.57036,1.15663c0.57379,0.35232 1.1828,0.6664 1.82706,0.94222c0.64425,0.27783 1.3036,0.50232 1.97805,0.67344c-0.1208,0.11073 -0.25367,0.25871 -0.39863,0.44393c-0.14697,0.18724 -0.28891,0.37648 -0.42581,0.56775c-0.13489,0.19126 -0.2426,0.36239 -0.32313,0.51339c-0.70465,-0.22146 -1.38413,-0.50131 -2.03845,-0.83954c-0.65432,-0.33622 -1.27642,-0.71874 -1.86632,-1.14757c-0.58788,-0.42682 -1.13046,-0.89692 -1.62774,-1.41031c-0.4993,-0.51339 -0.94524,-1.05194 -1.33783,-1.61566zM244.81074,200.83874c-0.02013,-0.10066 -0.05738,-0.23455 -0.11174,-0.40165c-0.05637,-0.16509 -0.11476,-0.33823 -0.17516,-0.51943c-0.0604,-0.1812 -0.1208,-0.33722 -0.1812,-0.46809c0.19126,-0.04027 0.38554,-0.14395 0.58285,-0.31105c0.19529,-0.16509 0.41373,-0.38353 0.65532,-0.65532c0.151,-0.13086 0.35534,-0.34729 0.61305,-0.64928c0.25569,-0.30199 0.54157,-0.66438 0.85766,-1.08717c0.3181,-0.42279 0.64123,-0.88081 0.9694,-1.37407c0.32615,-0.49326 0.63016,-0.99658 0.91202,-1.50996l1.26837,0.83048c-0.62412,0.99658 -1.31669,1.96497 -2.07771,2.90517c-0.75901,0.94222 -1.52607,1.77068 -2.30119,2.4854v0.0302c0,0 -0.05033,0.02517 -0.151,0.0755c-0.10066,0.05033 -0.21945,0.11073 -0.35635,0.1812c-0.13489,0.07047 -0.25267,0.14798 -0.35333,0.23253c-0.10066,0.08657 -0.151,0.16509 -0.151,0.23555M244.81074,200.83874l-0.0906,-1.22307l0.70968,-0.49829l4.57519,-0.80028c-0.0302,0.21139 -0.0453,0.44494 -0.0453,0.70062c0,0.2577 0.00503,0.46708 0.0151,0.62815c-1.03684,0.20133 -1.87236,0.3644 -2.50654,0.48923c-0.63418,0.12684 -1.12744,0.23253 -1.47976,0.31709c-0.35232,0.08657 -0.61103,0.16006 -0.77612,0.22045c-0.1671,0.0604 -0.30099,0.11576 -0.40165,0.1661M244.67485,197.16953c-0.02013,-0.11073 -0.0604,-0.25468 -0.1208,-0.43185c-0.0604,-0.17516 -0.12281,-0.35836 -0.18724,-0.54963c-0.06644,-0.19126 -0.13489,-0.35736 -0.20536,-0.49829c0.16106,-0.04027 0.31508,-0.1359 0.46205,-0.28689c0.14496,-0.151 0.30803,-0.35232 0.48923,-0.60399c0.0906,-0.1208 0.22146,-0.32011 0.39259,-0.59795c0.17113,-0.27582 0.36239,-0.60298 0.57379,-0.98148c0.21139,-0.37648 0.42078,-0.78619 0.62815,-1.22911c0.20536,-0.44292 0.38856,-0.88081 0.54963,-1.31367l1.44957,0.70968c-0.27179,0.59392 -0.57882,1.18985 -0.92108,1.7878c-0.34226,0.59996 -0.70163,1.17173 -1.07811,1.71532c-0.3785,0.54359 -0.76404,1.03684 -1.15663,1.47976v0.0302c0,0 -0.04228,0.02718 -0.12684,0.08154c-0.08657,0.05637 -0.19026,0.12482 -0.31105,0.20536c-0.1208,0.08053 -0.22448,0.16308 -0.31105,0.24763c-0.08456,0.08657 -0.12684,0.16509 -0.12684,0.23555M244.67485,197.16953l-0.0453,-1.10227l0.69458,-0.45299l3.08033,-0.25669c-0.04027,0.19126 -0.07248,0.4097 -0.09664,0.65532c-0.02617,0.24763 -0.04429,0.44695 -0.05436,0.59795c-0.69458,0.08053 -1.26032,0.14798 -1.6972,0.20234c-0.4389,0.05637 -0.78115,0.10167 -1.02678,0.1359c-0.24763,0.03624 -0.43185,0.07147 -0.55265,0.1057c-0.1208,0.03624 -0.22146,0.07449 -0.30199,0.11476M244.31245,202.4846c0.45299,-0.0906 0.97443,-0.1963 1.56432,-0.31709c0.58788,-0.1208 1.21401,-0.25166 1.8784,-0.39259c0.66438,-0.14093 1.32877,-0.28689 1.99315,-0.43789l0.151,1.34387c-0.92611,0.24159 -1.85222,0.47816 -2.77833,0.70968c-0.92611,0.23153 -1.76666,0.44292 -2.52164,0.63418l-0.28689,-1.54016M251.31869,202.6356h5.57177v1.46467h-5.57177v-1.46467M250.23151,191.38637h6.82504v1.47976h-6.82504v-1.47976M250.6845,198.4077h7.02133v6.28145h-1.60056v-4.83188h-3.89571v4.89228h-1.52506v-6.34185M256.39217,191.38637h1.55526c0,0 -0.00302,0.07751 -0.00906,0.23253c-0.00403,0.15704 -0.01107,0.28589 -0.02114,0.38655c-0.04027,1.09724 -0.08859,1.99013 -0.14496,2.67868c-0.05436,0.69056 -0.1218,1.22408 -0.20234,1.60056c-0.08053,0.3785 -0.18623,0.64828 -0.31709,0.80934c-0.151,0.1812 -0.30904,0.30703 -0.47413,0.37749c-0.1671,0.07047 -0.36138,0.12583 -0.58285,0.1661c-0.19126,0.0302 -0.44594,0.04731 -0.76404,0.05134c-0.31609,0.00604 -0.64526,-0.00101 -0.98752,-0.02114c-0.01007,-0.23153 -0.05537,-0.48621 -0.1359,-0.76404c-0.08053,-0.27582 -0.18623,-0.51943 -0.31709,-0.73082c0.30199,0.0302 0.58385,0.05033 0.84558,0.0604c0.26173,0.01007 0.45802,0.0151 0.58889,0.0151c0.11073,0 0.20133,-0.01309 0.27179,-0.03926c0.07047,-0.02416 0.14093,-0.07147 0.21139,-0.14194c0.08053,-0.10066 0.14798,-0.30501 0.20234,-0.61305c0.05637,-0.30602 0.10972,-0.76907 0.16006,-1.38917c0.05033,-0.61808 0.0906,-1.42541 0.1208,-2.42198v-0.25669M252.45116,191.91486h1.58546c-0.0604,0.66438 -0.151,1.29857 -0.27179,1.90255c-0.1208,0.60399 -0.30401,1.1677 -0.54963,1.69116c-0.24763,0.52345 -0.5909,0.99658 -1.0298,1.41937c-0.43688,0.42279 -1.00262,0.79021 -1.6972,1.10227c-0.08053,-0.19126 -0.21441,-0.40769 -0.40165,-0.64928c-0.18522,-0.24159 -0.3634,-0.43286 -0.53453,-0.57379c0.58385,-0.25166 1.05697,-0.54661 1.41937,-0.88484c0.36239,-0.33622 0.64425,-0.71371 0.84558,-1.13247c0.20133,-0.41675 0.34528,-0.86672 0.43185,-1.34991c0.08456,-0.48319 0.152,-0.99154 0.20234,-1.52506z" fill="#ffffff"/><path d="M139.85579,227.48853h12.729v1.54016h-12.729v-1.54016M139.3424,232.8942h13.69537v1.55526h-13.69537v-1.55526M148.16059,228.36431h1.69116v12.33641h-1.69116v-12.33641M142.81532,228.36431h1.66096v4.0316c0,0.73485 -0.04027,1.47976 -0.1208,2.23475c-0.08053,0.75498 -0.24965,1.49486 -0.50735,2.21965c-0.25569,0.72478 -0.64022,1.41937 -1.15361,2.08375c-0.51339,0.66438 -1.20294,1.26837 -2.06865,1.81196c-0.10066,-0.13086 -0.22649,-0.26978 -0.37749,-0.41675c-0.151,-0.14496 -0.31005,-0.29092 -0.47715,-0.43789c-0.16509,-0.14496 -0.3181,-0.26273 -0.45903,-0.35333c0.79525,-0.48319 1.42742,-1.00966 1.89651,-1.57942c0.46708,-0.56775 0.81639,-1.16167 1.04791,-1.78176c0.23153,-0.61808 0.38252,-1.24924 0.45299,-1.89349c0.07047,-0.64425 0.1057,-1.2734 0.1057,-1.88745zM158.59444,238.31497h7.71592v1.46467h-7.71592v-1.46467M158.02066,234.55516h9.36178v6.00966h-1.66096v-4.51479h-6.11535v4.52989h-1.58546v-6.02476M156.58619,228.6814h10.46405v4.62049h-10.46405v-1.50996h8.83329v-1.61566h-8.83329v-1.49486M155.95201,228.6814h1.66096v3.82021c0,0.60399 -0.02517,1.26535 -0.0755,1.98409c-0.05033,0.72076 -0.14798,1.45359 -0.29293,2.19851c-0.14697,0.74492 -0.35836,1.46467 -0.63418,2.15925c-0.27783,0.69458 -0.64324,1.32374 -1.09623,1.88745c-0.0906,-0.11073 -0.21844,-0.23958 -0.38353,-0.38655c-0.1671,-0.14496 -0.33622,-0.28589 -0.50735,-0.42279c-0.17113,-0.13489 -0.32213,-0.23253 -0.45299,-0.29293c0.41272,-0.51339 0.73787,-1.07006 0.97544,-1.67002c0.23555,-0.59795 0.41172,-1.21703 0.52849,-1.85726c0.11476,-0.63821 0.19026,-1.26434 0.22649,-1.8784c0.03423,-0.61405 0.05134,-1.18784 0.05134,-1.72136v-3.82021M160.10441,226.97514l1.58546,-0.40769c0.19126,0.32213 0.37246,0.67646 0.54359,1.06301c0.17113,0.38856 0.30703,0.72378 0.40769,1.00564l-1.66096,0.48319c-0.08053,-0.29193 -0.20636,-0.64224 -0.37749,-1.05093c-0.17113,-0.40668 -0.33722,-0.77109 -0.49829,-1.09321zM176.84991,238.19417l0.77008,-1.19287c0.65432,0.20133 1.31367,0.43286 1.97805,0.69458c0.66438,0.26173 1.2885,0.53352 1.87236,0.81538c0.58385,0.28186 1.07711,0.55365 1.47976,0.81538l-0.96638,1.28347c-0.39259,-0.28186 -0.86269,-0.56674 -1.41031,-0.85464c-0.54963,-0.28589 -1.14455,-0.56473 -1.78478,-0.83652c-0.63821,-0.27179 -1.28448,-0.51339 -1.93879,-0.72478M175.08325,226.91474l1.63076,-0.49829c0.20133,0.31206 0.40266,0.65935 0.60399,1.04188c0.20133,0.38252 0.34729,0.71975 0.43789,1.01168l-1.72136,0.54359c-0.07047,-0.27179 -0.19831,-0.60701 -0.38353,-1.00564c-0.18724,-0.39662 -0.37648,-0.76102 -0.56775,-1.09321M170.03997,228.09252h12.6988v3.35212h-1.69116v-1.84216h-9.40708v1.84216h-1.60056v-3.35212M176.20062,230.26686h1.70626c-0.04027,1.08717 -0.1057,2.09583 -0.1963,3.02597c-0.0906,0.93215 -0.26173,1.78075 -0.51339,2.5458c-0.25166,0.76505 -0.62412,1.4546 -1.11737,2.06865c-0.49326,0.61405 -1.15965,1.14757 -1.99919,1.60056c-0.84155,0.45299 -1.90155,0.83551 -3.17998,1.14757c-0.08053,-0.21139 -0.21139,-0.45601 -0.39259,-0.73384c-0.1812,-0.27582 -0.35736,-0.4993 -0.52849,-0.67042c1.1979,-0.26173 2.17435,-0.58184 2.92933,-0.96034c0.75498,-0.37648 1.35192,-0.82444 1.79082,-1.34387c0.43688,-0.51741 0.75599,-1.1063 0.95732,-1.76666c0.20133,-0.65834 0.33521,-1.39521 0.40165,-2.21059c0.06443,-0.81538 0.11174,-1.71633 0.14194,-2.70284M169.85878,235.31014h13.10649v1.35897h-13.10649v-1.35897M172.35022,231.08224l0.95128,-1.04188c0.27179,0.13086 0.54862,0.28689 0.83048,0.46809c0.28186,0.1812 0.55164,0.36944 0.80934,0.56473c0.25569,0.1973 0.45903,0.38152 0.61003,0.55265l-1.01168,1.16267c-0.14093,-0.17113 -0.33219,-0.35736 -0.57379,-0.55869c-0.24159,-0.20133 -0.50332,-0.40568 -0.78518,-0.61305c-0.28186,-0.20536 -0.55869,-0.38353 -0.83048,-0.53453M170.82515,233.37739l0.92108,-1.08717c0.28186,0.13086 0.56875,0.28387 0.86068,0.45903c0.29193,0.17717 0.56875,0.35836 0.83048,0.54359c0.26173,0.18724 0.47312,0.36642 0.63418,0.53755l-0.96638,1.22307c-0.16106,-0.1812 -0.36742,-0.37246 -0.61909,-0.57379c-0.25166,-0.20133 -0.52345,-0.39762 -0.81538,-0.58889c-0.29193,-0.19126 -0.57379,-0.36239 -0.84558,-0.51339zM188.88432,233.60388h1.38917c0,0 -0.00302,0.0755 -0.00906,0.22649c-0.00403,0.151 -0.01107,0.27179 -0.02114,0.36239c-0.0604,1.26837 -0.12885,2.29515 -0.20536,3.08033c-0.07449,0.78518 -0.16509,1.38917 -0.27179,1.81196c-0.10469,0.42279 -0.23253,0.71975 -0.38353,0.89088c-0.151,0.1812 -0.31206,0.30703 -0.48319,0.37749c-0.17113,0.07047 -0.37749,0.1208 -0.61909,0.151c-0.20133,0.02013 -0.46608,0.0302 -0.79424,0.0302c-0.32615,0 -0.67042,-0.00503 -1.03282,-0.0151c-0.01007,-0.20133 -0.05335,-0.42581 -0.12986,-0.67344c-0.07449,-0.24562 -0.17214,-0.45903 -0.29293,-0.64022c0.35232,0.0302 0.67646,0.05033 0.97242,0.0604c0.29797,0.01007 0.51741,0.0151 0.65834,0.0151c0.1208,0 0.22448,-0.01309 0.31105,-0.03926c0.08456,-0.02416 0.15704,-0.07147 0.21743,-0.14194c0.11073,-0.1208 0.20636,-0.36742 0.28689,-0.73988c0.08053,-0.37246 0.15301,-0.9241 0.21743,-1.65492c0.06644,-0.72881 0.12986,-1.6821 0.19026,-2.85987v-0.24159M184.26383,236.9258c0.51339,-0.10066 1.11737,-0.22951 1.81196,-0.38655c0.69458,-0.15502 1.40427,-0.31307 2.12905,-0.47413l0.1359,1.19287c-0.65432,0.16106 -1.30864,0.32414 -1.96295,0.48923c-0.65432,0.1671 -1.26334,0.32112 -1.82706,0.46205l-0.28689,-1.28347M184.68662,227.17144h3.97121v1.37407h-3.97121v-1.37407M188.23504,227.17144h1.35897c-0.0302,0.55365 -0.06543,1.13449 -0.1057,1.7425c-0.04027,0.61003 -0.08557,1.21904 -0.1359,1.82706c-0.05033,0.61003 -0.09865,1.18683 -0.14496,1.73042c-0.04429,0.54359 -0.0916,1.02678 -0.14194,1.44957h-1.35897c0.05033,-0.43286 0.10268,-0.92611 0.15704,-1.47976c0.05637,-0.55365 0.10972,-1.13549 0.16006,-1.74552c0.05033,-0.60801 0.09261,-1.21401 0.12684,-1.818c0.03624,-0.60399 0.06443,-1.17274 0.08456,-1.70626M185.29061,229.57228l1.37407,0.0755c-0.0302,0.56372 -0.06845,1.1677 -0.11476,1.81196c-0.04429,0.64425 -0.09462,1.26535 -0.151,1.8633c-0.05436,0.59996 -0.1067,1.1214 -0.15704,1.56432h-1.37407c0.07047,-0.46306 0.13288,-0.9996 0.18724,-1.60962c0.05637,-0.60801 0.10469,-1.23716 0.14496,-1.88745c0.04027,-0.64828 0.07047,-1.25428 0.0906,-1.818M185.33591,233.61898h3.71451v1.26837h-3.71451v-1.26837M194.39569,227.02044c0.31206,0.45299 0.70666,0.92813 1.18381,1.42541c0.47916,0.4993 0.99255,0.9704 1.54016,1.41333c0.54963,0.44292 1.08617,0.81538 1.60962,1.11737c-0.0906,0.1208 -0.18422,0.27884 -0.28085,0.47413c-0.09462,0.1973 -0.1822,0.39158 -0.26273,0.58285c-0.08053,0.19126 -0.14596,0.36742 -0.1963,0.52849c-0.57379,-0.40266 -1.15764,-0.86873 -1.75156,-1.39823c-0.59392,-0.52748 -1.15261,-1.08617 -1.67606,-1.67606c-0.52345,-0.58788 -0.97141,-1.15361 -1.34387,-1.6972l1.17777,-0.77008M193.8219,226.43156l1.41937,0.48319c-0.37246,0.75498 -0.82041,1.4848 -1.34387,2.18945c-0.52345,0.70465 -1.08717,1.35393 -1.69116,1.94785c-0.60399,0.59392 -1.22307,1.10731 -1.85726,1.54016c-0.05033,-0.11073 -0.13388,-0.24965 -0.25065,-0.41675c-0.11476,-0.16509 -0.23253,-0.33118 -0.35333,-0.49829c-0.1208,-0.16509 -0.22649,-0.29797 -0.31709,-0.39863c0.59392,-0.36239 1.1677,-0.79525 1.72136,-1.29857c0.55365,-0.50332 1.06201,-1.05697 1.52506,-1.66096c0.46306,-0.60399 0.84558,-1.23314 1.14757,-1.88745M191.91935,231.21814h4.63559v1.37407h-4.63559v-1.37407M190.90767,234.04177l1.23817,-0.31709c0.13086,0.37246 0.25669,0.77511 0.37749,1.20797c0.1208,0.43286 0.22851,0.85061 0.32313,1.25327c0.09664,0.40266 0.17012,0.77008 0.22045,1.10227l-1.31367,0.36239c-0.04027,-0.33219 -0.10368,-0.70465 -0.19026,-1.11737c-0.08456,-0.41272 -0.18522,-0.83551 -0.30199,-1.26837c-0.11476,-0.43286 -0.23253,-0.84055 -0.35333,-1.22307M193.53501,233.63408l1.23817,-0.1661c0.10066,0.37246 0.19328,0.77209 0.27783,1.19891c0.08657,0.42883 0.16207,0.84659 0.22649,1.25327c0.06644,0.4087 0.11476,0.77914 0.14496,1.11133l-1.31367,0.1963c-0.02013,-0.32213 -0.0604,-0.69257 -0.1208,-1.11133c-0.0604,-0.41675 -0.12784,-0.84155 -0.20234,-1.27441c-0.07651,-0.43286 -0.16006,-0.83551 -0.25065,-1.20797M196.85693,233.57369l1.44957,0.33219c-0.21139,0.59392 -0.44594,1.213 -0.70364,1.85726c-0.25569,0.64425 -0.51439,1.26334 -0.77612,1.85726c-0.26173,0.59392 -0.51339,1.11737 -0.75498,1.57036l-1.17777,-0.33219c0.17113,-0.35232 0.3493,-0.74492 0.53453,-1.17777c0.18724,-0.43286 0.36944,-0.88887 0.54661,-1.36803c0.17516,-0.47715 0.33823,-0.95027 0.48923,-1.41937c0.151,-0.46708 0.28186,-0.90699 0.39259,-1.31971M190.49998,238.61696h7.80651v1.37407h-7.80651zM201.35662,226.58255h1.63076v14.08796h-1.63076v-14.08796M200.05806,229.48168l1.16267,0.1661c-0.02013,0.42279 -0.06342,0.88786 -0.12986,1.39521c-0.06443,0.50936 -0.14496,1.00765 -0.24159,1.49486c-0.09462,0.48923 -0.20234,0.92511 -0.32313,1.30763l-1.22307,-0.42279c0.13086,-0.34226 0.24663,-0.73988 0.34729,-1.19287c0.10066,-0.45299 0.18623,-0.92108 0.25669,-1.40427c0.07047,-0.48319 0.1208,-0.93114 0.151,-1.34387M202.76089,229.52698l1.10227,-0.46809c0.22146,0.39259 0.42984,0.82243 0.62513,1.28951c0.1973,0.4691 0.33622,0.86471 0.41675,1.18683l-1.17777,0.55869c-0.05033,-0.23153 -0.12583,-0.49124 -0.22649,-0.77914c-0.10066,-0.28589 -0.21441,-0.58788 -0.34125,-0.90598c-0.12482,-0.31609 -0.2577,-0.61003 -0.39863,-0.88182M205.69022,227.27714l1.57036,0.24159c-0.10066,0.74492 -0.23857,1.47674 -0.41373,2.19549c-0.17717,0.72076 -0.37648,1.39521 -0.59795,2.02335c-0.22146,0.63016 -0.46809,1.1818 -0.73988,1.65492c-0.10066,-0.08053 -0.24159,-0.16912 -0.42279,-0.26575c-0.1812,-0.09462 -0.36239,-0.18522 -0.54359,-0.27179c-0.1812,-0.08456 -0.33722,-0.152 -0.46809,-0.20234c0.27179,-0.43286 0.51339,-0.93618 0.72478,-1.50996c0.21139,-0.57379 0.39058,-1.19287 0.53755,-1.85726c0.14496,-0.66438 0.26273,-1.3338 0.35333,-2.00825M206.06771,229.67798h6.99113v1.54016h-7.45922l0.46809,-1.54016M208.25716,226.65805h1.61566v12.86489h-1.61566v-12.86489M205.23723,233.89078h7.50452v1.50996h-7.50452v-1.50996M204.10476,238.64716h9.39198v1.54016h-9.39198zM214.7651,228.25861h5.66236v1.54016h-5.66236v-1.54016M220.62376,229.85917h6.88544v1.55526h-6.88544v-1.55526M216.80356,228.8777h1.60056v7.59512h-1.60056v-7.59512M226.75422,229.85917h1.58546c0,0 0,0.04731 0,0.14194c0,0.09664 0,0.20536 0,0.32615c0,0.1208 -0.00503,0.21643 -0.0151,0.28689c-0.04027,1.54016 -0.08859,2.85081 -0.14496,3.93195c-0.05436,1.08315 -0.11375,1.97201 -0.17818,2.6666c-0.06644,0.69458 -0.14697,1.2432 -0.24159,1.64586c-0.09664,0.40266 -0.21542,0.68955 -0.35635,0.86068c-0.1812,0.26173 -0.37246,0.44292 -0.57379,0.54359c-0.20133,0.10066 -0.43789,0.1661 -0.70968,0.1963c-0.25166,0.04027 -0.57379,0.0604 -0.96638,0.0604c-0.39259,0 -0.80028,-0.01007 -1.22307,-0.0302c-0.01007,-0.23153 -0.0604,-0.49829 -0.151,-0.80028c-0.0906,-0.30199 -0.21139,-0.56372 -0.36239,-0.78518c0.42279,0.0302 0.81035,0.05033 1.16267,0.0604c0.35232,0.01007 0.61405,0.0151 0.78518,0.0151c0.151,0 0.26978,-0.01812 0.35635,-0.05436c0.08456,-0.03423 0.1671,-0.10167 0.24763,-0.20234c0.11073,-0.1208 0.20636,-0.36038 0.28689,-0.71874c0.08053,-0.35635 0.14798,-0.86974 0.20234,-1.54016c0.05637,-0.66841 0.1067,-1.516 0.151,-2.54278c0.04631,-1.02678 0.09462,-2.26495 0.14496,-3.71451v-0.34729M214.56881,236.36712c0.50332,-0.11073 1.08415,-0.24663 1.7425,-0.40769c0.66036,-0.16106 1.35796,-0.33722 2.09281,-0.52849c0.73485,-0.19126 1.46467,-0.38252 2.18945,-0.57379l0.21139,1.54016c-1.00664,0.29193 -2.02637,0.58385 -3.05919,0.87578c-1.0308,0.29193 -1.96396,0.55365 -2.79947,0.78518l-0.37749,-1.69116M222.87361,226.82415h1.64586c-0.01007,1.2281 -0.03221,2.41091 -0.06644,3.54842c-0.03624,1.13751 -0.12482,2.21461 -0.26575,3.23132c-0.14093,1.01671 -0.37246,1.96295 -0.69458,2.83873c-0.32213,0.87578 -0.7731,1.67103 -1.35293,2.38574c-0.57781,0.71472 -1.31971,1.33884 -2.22569,1.87236c-0.08053,-0.14093 -0.18623,-0.29193 -0.31709,-0.45299c-0.13086,-0.16106 -0.26978,-0.32011 -0.41675,-0.47715c-0.14496,-0.15502 -0.28287,-0.27783 -0.41373,-0.36843c0.84558,-0.47312 1.5301,-1.02678 2.05355,-1.66096c0.52345,-0.63418 0.92913,-1.34186 1.21703,-2.12301c0.28589,-0.77914 0.4842,-1.62975 0.59493,-2.55184c0.11073,-0.92007 0.17616,-1.90155 0.1963,-2.94443c0.02013,-1.04087 0.03523,-2.14012 0.0453,-3.29776zM230.61973,232.01842h4.78659v1.34387h-3.29172v7.30823h-1.49486v-8.65209M234.65133,232.01842h1.60056v6.97603c0,0.36239 -0.04329,0.6513 -0.12986,0.86672c-0.08456,0.21743 -0.25267,0.39158 -0.50433,0.52245c-0.24159,0.1208 -0.53654,0.19328 -0.88484,0.21743c-0.34628,0.02617 -0.74592,0.03926 -1.19891,0.03926c-0.04027,-0.21139 -0.11073,-0.45802 -0.21139,-0.73988c-0.10066,-0.28186 -0.20636,-0.51842 -0.31709,-0.70968c0.29193,0.01007 0.57077,0.01711 0.83652,0.02114c0.26777,0.00604 0.45198,0.00403 0.55265,-0.00604c0.10066,0 0.16811,-0.0151 0.20234,-0.0453c0.03624,-0.0302 0.05436,-0.09563 0.05436,-0.1963v-6.94583M231.29921,234.29847h4.243v1.20797h-4.243v-1.20797M231.29921,236.51811h4.243v1.22307h-4.243v-1.22307M237.49006,226.62785h1.60056v4.66579c0,0.26173 0.04027,0.42782 0.1208,0.49829c0.08053,0.07047 0.27179,0.1057 0.57379,0.1057c0.07047,0 0.18925,0 0.35635,0c0.16509,0 0.3483,0 0.54963,0c0.20133,0 0.39259,0 0.57379,0c0.1812,0 0.31206,0 0.39259,0c0.17113,0 0.30199,-0.04027 0.39259,-0.1208c0.0906,-0.08053 0.15603,-0.23455 0.1963,-0.46205c0.04027,-0.22549 0.07047,-0.56976 0.0906,-1.03282c0.16106,0.1208 0.38554,0.23857 0.67344,0.35333c0.28589,0.11677 0.53453,0.20032 0.74592,0.25065c-0.05033,0.63418 -0.14294,1.12945 -0.27783,1.4858c-0.1369,0.35836 -0.33823,0.60801 -0.60399,0.74894c-0.26777,0.14093 -0.62311,0.21139 -1.06603,0.21139c-0.07047,0 -0.1812,0 -0.33219,0c-0.151,0 -0.31911,0 -0.50433,0c-0.18724,0 -0.37648,0 -0.56775,0c-0.19126,0 -0.35736,0 -0.49829,0c-0.14093,0 -0.24663,0 -0.31709,0c-0.56372,0 -0.99658,-0.0604 -1.29857,-0.1812c-0.30199,-0.1208 -0.51037,-0.33018 -0.62513,-0.62815c-0.11677,-0.29595 -0.17516,-0.69559 -0.17516,-1.19891v-4.69599M242.06525,227.57913l1.02678,1.19287c-0.44292,0.20133 -0.92611,0.40266 -1.44957,0.60399c-0.52345,0.20133 -1.05496,0.38454 -1.59452,0.54963c-0.53755,0.1671 -1.05798,0.32112 -1.5613,0.46205c-0.0302,-0.151 -0.09362,-0.33521 -0.19026,-0.55265c-0.09462,-0.21542 -0.18724,-0.40366 -0.27783,-0.56473c0.48319,-0.151 0.97141,-0.32011 1.46467,-0.50735c0.49326,-0.18522 0.96436,-0.38152 1.41333,-0.58889c0.44695,-0.20536 0.83652,-0.40366 1.16871,-0.59493M237.50516,233.67938h1.60056v4.86208c0,0.26173 0.0453,0.42782 0.1359,0.49829c0.0906,0.07047 0.29193,0.1057 0.60399,0.1057c0.0604,0 0.17616,0 0.34729,0c0.17113,0 0.36038,0 0.56775,0c0.20536,0 0.40165,0 0.58889,0c0.18522,0 0.3181,0 0.39863,0c0.19126,0 0.33219,-0.0453 0.42279,-0.1359c0.0906,-0.0906 0.15804,-0.26978 0.20234,-0.53755c0.04631,-0.26575 0.07953,-0.66036 0.09966,-1.18381c0.1812,0.1208 0.41071,0.23656 0.68854,0.34729c0.27582,0.11073 0.52446,0.19126 0.74592,0.24159c-0.0604,0.70465 -0.15804,1.25025 -0.29293,1.6368c-0.1369,0.38856 -0.34125,0.66036 -0.61305,0.81538c-0.27179,0.15704 -0.63922,0.23555 -1.10227,0.23555c-0.07047,0 -0.18422,0 -0.34125,0c-0.15502,0 -0.32816,0 -0.51943,0c-0.19126,0 -0.38252,0 -0.57379,0c-0.19126,0 -0.36239,0 -0.51339,0c-0.151,0 -0.26173,0 -0.33219,0c-0.55365,0 -0.98349,-0.0604 -1.28951,-0.1812c-0.30803,-0.1208 -0.52245,-0.32716 -0.64324,-0.61909c-0.1208,-0.29193 -0.1812,-0.69962 -0.1812,-1.22307v-4.86208M242.18605,234.35887l1.07207,1.19287c-0.44292,0.25166 -0.93618,0.4852 -1.47976,0.70062c-0.54359,0.21743 -1.09724,0.41876 -1.66096,0.60399c-0.56372,0.18724 -1.11234,0.35635 -1.64586,0.50735c-0.04027,-0.151 -0.10771,-0.34024 -0.20234,-0.56775c-0.09664,-0.22549 -0.19026,-0.41373 -0.28085,-0.56473c0.50332,-0.16106 1.01369,-0.34528 1.5311,-0.55265c0.51943,-0.20536 1.01067,-0.42178 1.47372,-0.64928c0.46306,-0.22549 0.86068,-0.44896 1.19287,-0.67042M233.83595,228.01702l1.37407,-0.51339c0.24159,0.34226 0.48118,0.7117 0.71874,1.10831c0.23555,0.39863 0.44896,0.78921 0.64022,1.17173c0.19126,0.38252 0.33219,0.72982 0.42279,1.04188l-1.46467,0.60399c-0.08053,-0.31206 -0.20938,-0.66438 -0.38655,-1.05697c-0.17516,-0.39259 -0.37648,-0.79525 -0.60399,-1.20797c-0.22549,-0.41272 -0.45903,-0.79525 -0.70062,-1.14757M230.51403,231.20304c-0.0302,-0.11073 -0.0755,-0.25971 -0.1359,-0.44695c-0.0604,-0.18522 -0.12583,-0.37346 -0.1963,-0.56473c-0.07047,-0.19126 -0.14093,-0.36239 -0.21139,-0.51339c0.1208,-0.0302 0.24159,-0.09563 0.36239,-0.1963c0.1208,-0.10066 0.24159,-0.23153 0.36239,-0.39259c0.0906,-0.11073 0.21945,-0.29495 0.38655,-0.55265c0.16509,-0.25569 0.34326,-0.55768 0.53453,-0.90598c0.19126,-0.34628 0.35736,-0.70566 0.49829,-1.07811l1.72136,0.45299c-0.21139,0.41272 -0.44997,0.82545 -0.71572,1.23817c-0.26777,0.41272 -0.54258,0.80229 -0.82444,1.16871c-0.28186,0.36843 -0.55365,0.68854 -0.81538,0.96034v0.0151c0,0 -0.05033,0.02718 -0.151,0.08154c-0.10066,0.05637 -0.21441,0.12684 -0.34125,0.21139c-0.12482,0.08657 -0.23555,0.17516 -0.33219,0.26575c-0.09462,0.0906 -0.14194,0.17616 -0.14194,0.25669M230.51403,231.20304l-0.0453,-1.08717l0.73988,-0.45299l4.75639,-0.31709c-0.05033,0.19126 -0.08758,0.4097 -0.11174,0.65532c-0.02617,0.24763 -0.04429,0.44695 -0.05436,0.59795c-0.85565,0.07047 -1.5754,0.13086 -2.15925,0.1812c-0.58385,0.05033 -1.06503,0.09563 -1.44353,0.1359c-0.37648,0.04027 -0.67244,0.0755 -0.88786,0.1057c-0.21743,0.0302 -0.38454,0.0604 -0.50131,0.0906c-0.11476,0.0302 -0.2124,0.0604 -0.29293,0.0906z" fill="#ffffff"/><path d="M140.41448,262.34646h8.3652v1.50996h-8.3652v-1.50996M140.41448,265.59289h8.3652v1.49486h-8.3652v-1.49486M140.41448,268.85441h8.3652v1.49486h-8.3652v-1.49486M139.31221,259.03964h10.81134v12.06461h-1.70626v-10.50935h-7.45922v10.53955h-1.64586v-12.09481M143.6307,257.03139l1.94785,0.21139c-0.17113,0.48319 -0.35434,0.95832 -0.54963,1.42541c-0.1973,0.4691 -0.38152,0.87477 -0.55265,1.21703l-1.47976,-0.27179c0.0906,-0.25166 0.17616,-0.52849 0.25669,-0.83048c0.08053,-0.30199 0.15603,-0.60701 0.22649,-0.91504c0.07047,-0.30602 0.1208,-0.58486 0.151,-0.83652zM155.48392,261.69718h8.486v1.54016h-8.486v-1.54016M159.71182,265.24559h5.08858v1.50996h-5.08858v-1.50996M158.85114,262.49746h1.69116v7.39882l-1.69116,-0.21139v-7.18743M155.30272,264.09802l1.64586,0.1661c-0.20133,1.5301 -0.54359,2.879 -1.02678,4.0467c-0.48319,1.1677 -1.15261,2.12402 -2.00825,2.86893c-0.08053,-0.10066 -0.20133,-0.22146 -0.36239,-0.36239c-0.16106,-0.14093 -0.32716,-0.27985 -0.49829,-0.41675c-0.17113,-0.13489 -0.32213,-0.23757 -0.45299,-0.30803c0.82545,-0.61405 1.44655,-1.43749 1.8633,-2.4703c0.41876,-1.0308 0.69861,-2.20555 0.83954,-3.52426M156.55599,265.98548c0.25166,0.71472 0.57077,1.29052 0.95732,1.7274c0.38856,0.4389 0.83954,0.77109 1.35293,0.99658c0.51339,0.2275 1.07711,0.38353 1.69116,0.46809c0.61405,0.08657 1.26837,0.12986 1.96295,0.12986c0.151,0 0.36239,0 0.63418,0c0.27179,0 0.57379,0 0.90598,0c0.33219,0 0.66942,-0.00302 1.01168,-0.00906c0.34226,-0.00403 0.65935,-0.00906 0.95128,-0.0151c0.29193,-0.00403 0.53352,-0.00604 0.72478,-0.00604c-0.08053,0.1208 -0.16106,0.28186 -0.24159,0.48319c-0.08053,0.20133 -0.151,0.40467 -0.21139,0.61003c-0.0604,0.20737 -0.1057,0.39158 -0.1359,0.55265h-0.77008h-2.95953c-0.87578,0 -1.68311,-0.0604 -2.42198,-0.1812c-0.74089,-0.1208 -1.40829,-0.34024 -2.00221,-0.65834c-0.59392,-0.31609 -1.12241,-0.76907 -1.58546,-1.35897c-0.46306,-0.58788 -0.85565,-1.34991 -1.17777,-2.28609l1.31367,-0.45299M153.27937,258.67725h12.87999v3.65411h-1.67606v-2.11395h-9.60337v2.11395h-1.60056v-3.65411M158.41325,257.36358l1.61566,-0.45299c0.17113,0.31206 0.34226,0.65432 0.51339,1.02678c0.17113,0.37246 0.29193,0.69962 0.36239,0.98148l-1.70626,0.51339c-0.05033,-0.27179 -0.151,-0.60399 -0.30199,-0.99658c-0.151,-0.39259 -0.31206,-0.74995 -0.48319,-1.07207zM170.81005,258.97924c0.45299,1.27844 1.02174,2.47634 1.70626,3.59371c0.68452,1.11737 1.48983,2.13912 2.41594,3.06523c0.92611,0.92611 1.97302,1.72639 3.14073,2.40084c1.1677,0.67445 2.45621,1.20797 3.86551,1.60056c-0.1208,0.11073 -0.25166,0.25367 -0.39259,0.42883c-0.14093,0.17717 -0.27381,0.35836 -0.39863,0.54359c-0.12684,0.18724 -0.23052,0.35132 -0.31105,0.49225c-1.47976,-0.44292 -2.81357,-1.03483 -4.0014,-1.77572c-1.18784,-0.73888 -2.25287,-1.60157 -3.19508,-2.58808c-0.9402,-0.98651 -1.77068,-2.0918 -2.49144,-3.31588c-0.71874,-1.22206 -1.33984,-2.54278 -1.8633,-3.96215l1.52506,-0.48319M179.06956,258.16386l1.67606,0.49829c-0.48319,1.4395 -1.06905,2.79545 -1.7576,4.06784c-0.69056,1.27441 -1.51399,2.44513 -2.4703,3.51218c-0.95631,1.06704 -2.08878,2.0153 -3.39742,2.84477c-1.30864,0.83149 -2.82363,1.52406 -4.54499,2.07771c-0.0906,-0.21139 -0.22146,-0.45601 -0.39259,-0.73384c-0.17113,-0.27582 -0.32716,-0.50433 -0.46809,-0.68552c1.62069,-0.48319 3.04711,-1.10529 4.27924,-1.86632c1.23414,-0.75901 2.30722,-1.63982 3.21924,-2.64244c0.91001,-1.0006 1.67707,-2.09482 2.30119,-3.28266c0.62412,-1.18784 1.14254,-2.45117 1.55526,-3.79001M173.1807,257.49948l1.41937,-0.49829c0.20133,0.38252 0.40568,0.79525 0.61305,1.23817c0.20536,0.44292 0.39662,0.87075 0.57379,1.28347c0.17516,0.41272 0.3181,0.79021 0.42883,1.13247l-1.49486,0.58889c-0.0906,-0.34226 -0.22448,-0.72982 -0.40165,-1.16267c-0.17516,-0.43286 -0.36038,-0.87578 -0.55567,-1.32877c-0.1973,-0.45299 -0.39158,-0.87075 -0.58285,-1.25327zM191.36066,262.36156h4.3034v1.55526h-4.3034v-1.55526M190.59058,262.36156h1.60056v6.37205c0,0.31206 0.0453,0.50836 0.1359,0.58889c0.0906,0.08053 0.28689,0.1208 0.58889,0.1208c0.07047,0 0.19126,0 0.36239,0c0.17113,0 0.35736,0 0.55869,0c0.20133,0 0.39259,0 0.57379,0c0.1812,0 0.31206,0 0.39259,0c0.20133,0 0.35232,-0.0604 0.45299,-0.1812c0.10066,-0.1208 0.17415,-0.35534 0.22045,-0.70364c0.04429,-0.34628 0.08154,-0.86169 0.11174,-1.5462c0.1208,0.0906 0.26676,0.1812 0.43789,0.27179c0.17113,0.0906 0.35031,0.16811 0.53755,0.23253c0.18522,0.06644 0.3483,0.11979 0.48923,0.16006c-0.0604,0.84558 -0.15804,1.50493 -0.29293,1.97805c-0.1369,0.47312 -0.3483,0.80733 -0.63418,1.00262c-0.2879,0.1973 -0.68854,0.29595 -1.20193,0.29595c-0.07047,0 -0.1812,0 -0.33219,0c-0.151,0 -0.31911,0 -0.50433,0c-0.18724,0 -0.37648,0 -0.56775,0c-0.19126,0 -0.35937,0 -0.50433,0c-0.14697,0 -0.25569,0 -0.32615,0c-0.53352,0 -0.95128,-0.06342 -1.25327,-0.19026c-0.30199,-0.12482 -0.51842,-0.3483 -0.64928,-0.67042c-0.13086,-0.32213 -0.1963,-0.77008 -0.1963,-1.34387v-6.38715M190.54528,257.74107h5.93416v7.14213h-1.57036v-5.58687h-4.3638v-1.55526M183.37295,260.41371h6.25125v10.44895h-1.29857v-9.10508h-3.69941v9.30138h-1.25327v-10.64525M184.03734,266.49887h4.90738v1.13247h-4.90738v-1.13247M184.03734,268.82421h4.90738v1.26837h-4.90738v-1.26837M183.07096,257.60518h6.87034v1.43447h-6.87034v-1.43447M185.13961,257.95247h1.07207v3.50312h-1.07207v-3.50312M186.90627,257.95247h1.08717v3.50312h-1.08717v-3.50312M185.39631,261.44049h0.77008v1.52506c0,0.29193 -0.02517,0.60399 -0.0755,0.93618c-0.05033,0.33219 -0.14294,0.66136 -0.27783,0.98752c-0.1369,0.32816 -0.33622,0.62815 -0.59795,0.89994c-0.0604,-0.08053 -0.15301,-0.17616 -0.27783,-0.28689c-0.12684,-0.11073 -0.24059,-0.19126 -0.34125,-0.24159c0.24159,-0.23153 0.41574,-0.48118 0.52245,-0.74894c0.10469,-0.26575 0.17717,-0.53251 0.21743,-0.80028c0.04027,-0.26575 0.0604,-0.51943 0.0604,-0.76102v-1.50996M186.77037,261.44049h0.80028v2.88403c0,0.0906 0.00503,0.14798 0.0151,0.17214c0.01007,0.02617 0.05033,0.03926 0.1208,0.03926c0.02013,0 0.05335,0 0.09966,0c0.04429,0 0.08959,0 0.1359,0c0.04429,0 0.08154,0 0.11174,0c0.11073,0 0.1812,-0.0151 0.21139,-0.0453c0.08053,0.07047 0.18925,0.13288 0.32615,0.18724c0.13489,0.05637 0.26777,0.09966 0.39863,0.12986c-0.05033,0.19126 -0.13791,0.33219 -0.26273,0.42279c-0.12684,0.0906 -0.30602,0.1359 -0.53755,0.1359c-0.04027,0 -0.09764,0 -0.17214,0c-0.07651,0 -0.152,0 -0.22649,0c-0.07651,0 -0.13992,0 -0.19026,0c-0.31206,0 -0.52849,-0.06845 -0.64928,-0.20536c-0.1208,-0.13489 -0.1812,-0.41373 -0.1812,-0.83652zM204.37655,261.77268h1.58546v4.0165h-1.58546v-4.0165M202.62499,258.25446h4.69599v1.44957h-5.42077l0.72478,-1.44957M206.86799,258.25446h0.37749l0.31709,-0.0906l1.04188,0.78518c-0.27179,0.39259 -0.58385,0.80531 -0.93618,1.23817c-0.35232,0.43286 -0.71975,0.84256 -1.10227,1.22911c-0.38252,0.38856 -0.75498,0.72881 -1.11737,1.02074c-0.11073,-0.151 -0.25871,-0.32011 -0.44393,-0.50735c-0.18724,-0.18522 -0.34628,-0.33823 -0.47715,-0.45903c0.29193,-0.25166 0.59191,-0.54862 0.89994,-0.89088c0.30602,-0.34226 0.58486,-0.68955 0.83652,-1.04188c0.25166,-0.35232 0.45299,-0.66942 0.60399,-0.95128v-0.33219M199.80136,261.24419h1.57036v7.06663c0,0.30199 0.0453,0.5305 0.1359,0.68552c0.0906,0.15704 0.27481,0.26273 0.55265,0.31709c0.27582,0.05637 0.68552,0.08456 1.22911,0.08456c0.16106,0 0.41574,0 0.76404,0c0.34628,0 0.74391,0 1.19287,0c0.44695,0 0.89491,0 1.34387,0c0.44695,0 0.85464,0 1.22307,0c0.36642,0 0.64526,0 0.83652,0c0.49326,0 0.86068,-0.05537 1.10227,-0.1661c0.24159,-0.11073 0.41574,-0.33018 0.52245,-0.65834c0.10469,-0.32615 0.19227,-0.80632 0.26273,-1.44051c0.20133,0.1208 0.45098,0.23656 0.74894,0.34729c0.29595,0.11073 0.55466,0.18623 0.77612,0.22649c-0.07047,0.61405 -0.17113,1.12442 -0.30199,1.5311c-0.13086,0.4087 -0.31709,0.73384 -0.55869,0.97544c-0.24159,0.24159 -0.56372,0.41272 -0.96638,0.51339c-0.40266,0.10066 -0.91101,0.151 -1.52506,0.151c-0.11073,0 -0.30401,0 -0.57983,0c-0.27783,0 -0.59996,0 -0.96638,0c-0.36843,0 -0.75397,0 -1.15663,0c-0.40266,0 -0.78719,0 -1.15361,0c-0.36843,0 -0.68854,0 -0.96034,0c-0.27179,0 -0.45802,0 -0.55869,0c-0.89591,0 -1.60257,-0.07047 -2.11999,-0.21139c-0.51943,-0.14093 -0.88484,-0.39762 -1.09623,-0.77008c-0.21139,-0.37246 -0.31709,-0.90095 -0.31709,-1.58546v-7.06663M202.5797,256.95589l1.47976,0.55869c-0.41272,0.74492 -0.90296,1.47473 -1.4707,2.18945c-0.56976,0.71472 -1.17878,1.37608 -1.82706,1.98409c-0.65029,0.61003 -1.31266,1.14153 -1.98711,1.59452c-0.04027,-0.1208 -0.11073,-0.27683 -0.21139,-0.46809c-0.10066,-0.19126 -0.21139,-0.38756 -0.33219,-0.58889c-0.1208,-0.20133 -0.22649,-0.36239 -0.31709,-0.48319c0.60399,-0.36239 1.1979,-0.79525 1.78176,-1.29857c0.58385,-0.50332 1.12543,-1.05194 1.62472,-1.64586c0.49728,-0.59392 0.91705,-1.20797 1.25931,-1.84216M201.06973,261.24419h9.48257v5.63217h-1.60056v-4.1373h-7.88201v-1.49486M201.06973,264.77751h8.63699v1.54016h-8.63699zM221.00126,267.66154h4.57519v1.55526h-4.57519v-1.55526M220.41237,258.46586h5.94926v11.85322h-1.66096v-10.31305h-2.70284v10.41875h-1.58546v-11.95891M216.03347,258.48096h1.61566v12.6384h-1.61566v-12.6384M213.25514,261.53108h6.73444v1.50996h-6.73444v-1.50996M215.92778,262.10487l1.08717,0.36239c-0.16106,0.61405 -0.35736,1.23817 -0.58889,1.87236c-0.23153,0.63418 -0.48822,1.25528 -0.77008,1.8633c-0.28186,0.61003 -0.58385,1.17374 -0.90598,1.69116c-0.32213,0.51943 -0.65935,0.9704 -1.01168,1.35293c-0.08053,-0.24159 -0.20334,-0.50634 -0.36843,-0.79424c-0.1671,-0.28589 -0.32112,-0.52949 -0.46205,-0.73082c0.32213,-0.32213 0.63418,-0.70465 0.93618,-1.14757c0.30199,-0.44292 0.58687,-0.91403 0.85464,-1.41333c0.26575,-0.49728 0.50433,-1.00765 0.71572,-1.5311c0.21139,-0.52345 0.38252,-1.03181 0.51339,-1.52506M218.9326,257.18239l1.05697,1.26837c-0.57379,0.20133 -1.21099,0.38756 -1.91161,0.55869c-0.69861,0.17113 -1.41735,0.31709 -2.15623,0.43789c-0.74089,0.1208 -1.45359,0.22146 -2.13811,0.30199c-0.0302,-0.1812 -0.0906,-0.39561 -0.1812,-0.64324c-0.0906,-0.24562 -0.1812,-0.454 -0.27179,-0.62513c0.66438,-0.0906 1.34186,-0.20133 2.03241,-0.33219c0.68854,-0.13086 1.34186,-0.27985 1.95993,-0.44695c0.62009,-0.16509 1.15663,-0.33823 1.60962,-0.51943M217.51324,263.19204c0.0906,0.08053 0.22448,0.21643 0.40165,0.40769c0.17516,0.19126 0.36843,0.40467 0.57983,0.64022c0.21139,0.23757 0.42078,0.47715 0.62815,0.71874c0.20536,0.24159 0.38856,0.45802 0.54963,0.64928c0.16106,0.19126 0.28186,0.33219 0.36239,0.42279l-0.95128,1.34387c-0.1208,-0.22146 -0.28387,-0.48822 -0.48923,-0.80028c-0.20737,-0.31206 -0.42682,-0.63217 -0.65834,-0.96034c-0.23153,-0.32615 -0.455,-0.63519 -0.67042,-0.92712c-0.21743,-0.29193 -0.39662,-0.53352 -0.53755,-0.72478zM229.29096,258.31486h11.98911v1.43447h-11.98911v-1.43447M228.44538,261.78778h13.54438v1.44957h-13.54438v-1.44957M231.40491,266.80086h7.67062v1.23817h-7.67062v-1.23817M231.42001,269.2772h7.67062v1.35897h-7.67062v-1.35897M230.37813,264.29432h9.84497v6.85524h-1.70626v-5.51137h-6.52304v5.52647h-1.61566v-6.87034M237.67126,259.67383l1.79686,0.37749c-0.13086,0.28186 -0.26173,0.5607 -0.39259,0.83652c-0.13086,0.27783 -0.26173,0.53956 -0.39259,0.78518c-0.13086,0.24763 -0.25166,0.46708 -0.36239,0.65834l-1.54016,-0.37749c0.10066,-0.21139 0.20838,-0.45098 0.32313,-0.71874c0.11677,-0.26575 0.22549,-0.53755 0.32615,-0.81538c0.10066,-0.27582 0.1812,-0.52446 0.24159,-0.74592M231.20861,260.05132l1.58546,-0.31709c0.21139,0.31206 0.39561,0.66136 0.55265,1.04791c0.15502,0.38856 0.2577,0.72881 0.30803,1.02074l-1.69116,0.39259c-0.04027,-0.30199 -0.13288,-0.65432 -0.27783,-1.05697c-0.14697,-0.40266 -0.30602,-0.76505 -0.47715,-1.08717M233.98695,257.16729l1.67606,-0.27179c0.1812,0.27179 0.34226,0.5758 0.48319,0.91202c0.14093,0.33823 0.23656,0.63318 0.28689,0.88484l-1.75156,0.34729c-0.04027,-0.26173 -0.12583,-0.56875 -0.25669,-0.92108c-0.13086,-0.35232 -0.27683,-0.66942 -0.43789,-0.95128zM243.51482,259.17554h7.11193v1.44957h-7.11193v-1.44957M245.11538,260.7459l1.37407,0.42279c-0.19126,0.46306 -0.41272,0.93618 -0.66438,1.41937c-0.25166,0.48319 -0.51641,0.94121 -0.79424,1.37407c-0.27582,0.43286 -0.54963,0.81538 -0.82142,1.14757c-0.07047,-0.08053 -0.17415,-0.18623 -0.31105,-0.31709c-0.13489,-0.13086 -0.2728,-0.25971 -0.41373,-0.38655c-0.14093,-0.12482 -0.26676,-0.2275 -0.37749,-0.30803c0.38252,-0.43286 0.75297,-0.95128 1.11133,-1.55526c0.35635,-0.60399 0.65532,-1.20294 0.89692,-1.79686M247.57662,263.14675l1.54016,0.27179c-0.44292,1.65089 -1.06402,3.10046 -1.8633,4.3487c-0.80129,1.24824 -1.79082,2.26998 -2.96859,3.06523c-0.07047,-0.11073 -0.17113,-0.24159 -0.30199,-0.39259c-0.13086,-0.151 -0.26877,-0.29998 -0.41373,-0.44695c-0.14697,-0.14496 -0.27079,-0.26273 -0.37145,-0.35333c1.11737,-0.66438 2.04147,-1.55325 2.77229,-2.6666c0.72881,-1.11133 1.26434,-2.38675 1.6066,-3.82625M247.62192,261.28949l1.19287,-0.64928c0.24159,0.29193 0.48319,0.606 0.72478,0.94222c0.24159,0.33823 0.46104,0.67344 0.65834,1.00564c0.19529,0.33219 0.34326,0.63418 0.44393,0.90598l-1.28347,0.72478c-0.08053,-0.27179 -0.21441,-0.57681 -0.40165,-0.91504c-0.18522,-0.33622 -0.3936,-0.68351 -0.62513,-1.04188c-0.23153,-0.35635 -0.46809,-0.68049 -0.70968,-0.97242M244.69259,264.55101l1.17777,-0.86068c0.37246,0.37246 0.76303,0.77008 1.17173,1.19287c0.40668,0.42279 0.79927,0.85565 1.17777,1.29857c0.37648,0.44292 0.72076,0.87276 1.03282,1.28951c0.31206,0.41876 0.57379,0.80431 0.78518,1.15663l-1.29857,1.01168c-0.1812,-0.35232 -0.42279,-0.7429 -0.72478,-1.17173c-0.30199,-0.42682 -0.63922,-0.86974 -1.01168,-1.32877c-0.37246,-0.45702 -0.75699,-0.90699 -1.15361,-1.34991c-0.39863,-0.44292 -0.78417,-0.85565 -1.15663,-1.23817M252.19711,259.71913h5.02818v1.50996h-5.02818v-1.50996M252.34811,257.03139l1.50996,0.24159c-0.17113,1.02678 -0.38454,2.0304 -0.64022,3.01087c-0.2577,0.98248 -0.57077,1.89349 -0.9392,2.73303c-0.36642,0.84155 -0.79122,1.58446 -1.27441,2.22871c-0.0604,-0.11073 -0.151,-0.24663 -0.27179,-0.40769c-0.1208,-0.16106 -0.24864,-0.32213 -0.38353,-0.48319c-0.1369,-0.16106 -0.26072,-0.29193 -0.37145,-0.39259c0.42279,-0.54359 0.78518,-1.18079 1.08717,-1.91161c0.30199,-0.72881 0.55869,-1.52104 0.77008,-2.37668c0.21139,-0.85565 0.38252,-1.73646 0.51339,-2.64244M254.97544,260.7459l1.54016,0.1812c-0.24159,1.72136 -0.606,3.23837 -1.09321,4.55103c-0.48923,1.31468 -1.14153,2.44211 -1.95691,3.38232c-0.81538,0.94222 -1.83712,1.72539 -3.06523,2.3495c-0.07047,-0.10066 -0.17113,-0.22448 -0.30199,-0.37145c-0.13086,-0.14496 -0.26877,-0.29595 -0.41373,-0.45299c-0.14697,-0.15502 -0.28085,-0.27783 -0.40165,-0.36843c1.20797,-0.52345 2.19448,-1.21099 2.95953,-2.06261c0.76505,-0.84961 1.364,-1.87135 1.79686,-3.06523c0.43286,-1.19186 0.74492,-2.57298 0.93618,-4.14334M252.5595,261.99917c0.25166,1.13751 0.60197,2.21461 1.05093,3.23132c0.44695,1.01671 0.99255,1.92269 1.6368,2.71794c0.64425,0.79525 1.38917,1.42943 2.23475,1.90255c-0.1208,0.10066 -0.25367,0.22851 -0.39863,0.38353c-0.14697,0.15704 -0.28287,0.31609 -0.40769,0.47715c-0.12684,0.16106 -0.23052,0.31206 -0.31105,0.45299c-0.89591,-0.57379 -1.67606,-1.30159 -2.34044,-2.18341c-0.66438,-0.87981 -1.2281,-1.88645 -1.69116,-3.01993c-0.46306,-1.13147 -0.84558,-2.34648 -1.14757,-3.64505l1.37407,-0.31709M245.70427,257.49948l1.38917,-0.49829c0.20133,0.27179 0.3946,0.5758 0.57983,0.91202c0.18724,0.33823 0.32615,0.62815 0.41675,0.86974l-1.44957,0.58889c-0.07047,-0.26173 -0.1963,-0.56674 -0.37749,-0.91504c-0.1812,-0.34628 -0.36742,-0.66539 -0.55869,-0.95732z" fill="#ffffff"/><path d="M265.91031,269.32729l0.51711,-0.94207c0.43938,0.159 0.88212,0.34185 1.32825,0.54854c0.44613,0.2067 0.86523,0.42135 1.25728,0.64394c0.39205,0.2226 0.72327,0.43725 0.99366,0.64394l-0.64892,1.01362c-0.26362,-0.2226 -0.5793,-0.44758 -0.94701,-0.67495c-0.36907,-0.22578 -0.76856,-0.44599 -1.19847,-0.66064c-0.42856,-0.21465 -0.86252,-0.40545 -1.30189,-0.5724M264.724,260.41935l1.09505,-0.39352c0.13519,0.24644 0.27038,0.52072 0.40558,0.82282c0.13519,0.3021 0.2332,0.56843 0.29404,0.79897l-1.15589,0.4293c-0.04731,-0.21465 -0.13317,-0.47939 -0.25754,-0.7942c-0.12573,-0.31322 -0.25281,-0.60101 -0.38124,-0.86337M261.33746,261.3495h8.52719v2.64734h-1.1356v-1.45484h-6.31681v1.45484h-1.07477v-2.64734M265.47432,263.06669h1.14575c-0.02704,0.85859 -0.07097,1.65518 -0.13181,2.38976c-0.06084,0.73617 -0.17574,1.40635 -0.34474,2.01054c-0.16899,0.6042 -0.41909,1.14877 -0.75031,1.63372c-0.33122,0.48495 -0.7787,0.9063 -1.34244,1.26404c-0.5651,0.35774 -1.27688,0.65984 -2.13534,0.9063c-0.05408,-0.16695 -0.14195,-0.36013 -0.26362,-0.57955c-0.12167,-0.21783 -0.23996,-0.39431 -0.35488,-0.52947c0.80439,-0.2067 1.46006,-0.4595 1.96703,-0.75843c0.50697,-0.29733 0.90781,-0.6511 1.20253,-1.06132c0.29336,-0.40862 0.50765,-0.8737 0.64284,-1.39522c0.13519,-0.51992 0.22509,-1.10186 0.26971,-1.74581c0.04327,-0.64394 0.07503,-1.35547 0.09531,-2.13457M261.21579,267.04962h8.80094v1.07325h-8.80094v-1.07325M262.88878,263.71064l0.63878,-0.82282c0.18251,0.10335 0.36839,0.22657 0.55766,0.36968c0.18927,0.1431 0.37042,0.29176 0.54347,0.44599c0.17169,0.15582 0.30823,0.3013 0.40963,0.43646l-0.67933,0.91822c-0.09463,-0.13515 -0.22307,-0.28223 -0.3853,-0.44122c-0.16223,-0.159 -0.33797,-0.32038 -0.52724,-0.48415c-0.18927,-0.16218 -0.37516,-0.3029 -0.55766,-0.42215M261.86472,265.52323l0.6185,-0.85859c0.18927,0.10335 0.38192,0.22418 0.57794,0.36252c0.19603,0.13992 0.38192,0.28301 0.55766,0.4293c0.17574,0.14787 0.3177,0.28938 0.42585,0.42453l-0.64892,0.96593c-0.10815,-0.1431 -0.24673,-0.29415 -0.41571,-0.45314c-0.16899,-0.159 -0.3515,-0.31402 -0.54752,-0.46508c-0.19603,-0.15104 -0.3853,-0.2862 -0.56781,-0.40545zM273.99136,265.7021h0.93282c0,0 -0.00136,0.05963 -0.00406,0.17888c-0.00406,0.11925 -0.00946,0.21465 -0.01623,0.2862c-0.04055,1.0017 -0.08584,1.81259 -0.13587,2.43269c-0.05137,0.6201 -0.11288,1.0971 -0.18453,1.43099c-0.0703,0.3339 -0.15615,0.56843 -0.25754,0.70357c-0.10139,0.1431 -0.20955,0.24247 -0.32446,0.29812c-0.11492,0.05565 -0.25348,0.0954 -0.41571,0.11925c-0.13519,0.0159 -0.31229,0.02385 -0.5313,0.02385c-0.22037,0 -0.45221,-0.00397 -0.69556,-0.01192c-0.00676,-0.159 -0.03582,-0.33628 -0.0872,-0.53186c-0.05002,-0.19398 -0.11558,-0.36252 -0.1967,-0.50562c0.23658,0.02385 0.45425,0.03975 0.65297,0.04771c0.20008,0.00795 0.34744,0.01192 0.44208,0.01192c0.08112,0 0.15006,-0.01034 0.20684,-0.03101c0.05814,-0.01908 0.10748,-0.05644 0.14804,-0.1121c0.07435,-0.0954 0.13857,-0.29017 0.19265,-0.58432c0.05408,-0.29415 0.10343,-0.72981 0.14804,-1.30697c0.04327,-0.57558 0.08517,-1.32844 0.12573,-2.25859v-0.1908M270.88872,268.32559c0.34474,-0.0795 0.75031,-0.18126 1.21672,-0.30527c0.4664,-0.12243 0.94296,-0.24724 1.42964,-0.37444l0.09126,0.94207c-0.43938,0.1272 -0.87874,0.25599 -1.31811,0.38636c-0.43938,0.13197 -0.84832,0.25361 -1.22686,0.3649l-0.19265,-1.01362M271.17262,260.62208h2.66665v1.08517h-2.66665v-1.08517M273.55536,260.62208h0.91254c-0.02028,0.43725 -0.04393,0.89596 -0.07097,1.37614c-0.02704,0.48176 -0.05746,0.96274 -0.09126,1.44292c-0.0338,0.48176 -0.06557,0.9373 -0.09531,1.3666c-0.0311,0.4293 -0.06354,0.8109 -0.09734,1.14479h-0.91254c0.0338,-0.34185 0.06963,-0.73139 0.10748,-1.16864c0.0365,-0.43725 0.07165,-0.89676 0.10545,-1.37852c0.0338,-0.48018 0.06218,-0.95877 0.08517,-1.43577c0.02434,-0.477 0.04327,-0.92617 0.05678,-1.34752M271.5782,262.51815l0.92268,0.05963c-0.02028,0.44519 -0.04597,0.92219 -0.07706,1.43099c-0.02974,0.5088 -0.06354,0.99931 -0.10139,1.47154c-0.0365,0.47381 -0.07165,0.88563 -0.10545,1.23543h-0.92268c0.04731,-0.3657 0.08922,-0.78944 0.12573,-1.2712c0.03785,-0.48018 0.0703,-0.97705 0.09734,-1.49062c0.02704,-0.51197 0.04731,-0.99056 0.06084,-1.43577M271.60862,265.71403h2.49427v1.0017h-2.49427v-1.0017M277.69222,260.50283c0.20955,0.35774 0.47452,0.73298 0.79492,1.12572c0.32176,0.39431 0.66717,0.76638 1.03625,1.11617c0.36772,0.34979 0.72732,0.64394 1.07882,0.88245c-0.06084,0.0954 -0.1237,0.22021 -0.18859,0.37444c-0.06354,0.15582 -0.12235,0.30925 -0.17642,0.4603c-0.05408,0.15104 -0.09801,0.29017 -0.13181,0.41737c-0.3853,-0.318 -0.77735,-0.68609 -1.17616,-1.10425c-0.39881,-0.41657 -0.77397,-0.8578 -1.12547,-1.32367c-0.3515,-0.46428 -0.65229,-0.91107 -0.9024,-1.34037l0.79087,-0.60817M277.30692,260.03775l0.9531,0.3816c-0.25011,0.59625 -0.5509,1.17261 -0.9024,1.72912c-0.3515,0.55649 -0.73004,1.06928 -1.1356,1.53832c-0.40558,0.46905 -0.82128,0.8745 -1.24714,1.21634c-0.0338,-0.08745 -0.08922,-0.19716 -0.16629,-0.32913c-0.07841,-0.13038 -0.15817,-0.26155 -0.23929,-0.39352c-0.08112,-0.13038 -0.15209,-0.23532 -0.21293,-0.31482c0.39881,-0.2862 0.78411,-0.62805 1.15589,-1.02554c0.37178,-0.3975 0.71313,-0.83474 1.02408,-1.31174c0.31094,-0.477 0.56781,-0.97388 0.77059,-1.49062M276.02936,263.81797h3.11278v1.08517h-3.11278v-1.08517M275.35003,266.04792l0.83143,-0.25042c0.08788,0.29415 0.17236,0.61215 0.25348,0.95399c0.08112,0.34185 0.15412,0.67178 0.21901,0.98977c0.06354,0.318 0.11221,0.60817 0.146,0.87053l-0.88212,0.2862c-0.02704,-0.26235 -0.06895,-0.55649 -0.12573,-0.88245c-0.05814,-0.32595 -0.12573,-0.65984 -0.20278,-1.0017c-0.07841,-0.34185 -0.15817,-0.66383 -0.23929,-0.96593M277.11428,265.72595l0.83143,-0.13117c0.06759,0.29415 0.12979,0.60976 0.18657,0.94684c0.05814,0.33867 0.10883,0.66859 0.15209,0.98977c0.04461,0.32277 0.07706,0.61532 0.09734,0.87768l-0.88212,0.15503c-0.01351,-0.25439 -0.04055,-0.54696 -0.08112,-0.87768c-0.04055,-0.32913 -0.08652,-0.66462 -0.13789,-1.00646c-0.05002,-0.34185 -0.10545,-0.65984 -0.16629,-0.95399M279.34493,265.67826l0.97337,0.26235c-0.14195,0.46905 -0.29877,0.95797 -0.47046,1.46676c-0.17304,0.5088 -0.34744,0.99772 -0.52318,1.46676c-0.17574,0.46905 -0.34474,0.88245 -0.50697,1.24019l-0.79087,-0.26235c0.11492,-0.27825 0.23456,-0.5883 0.35893,-0.93014c0.12573,-0.34185 0.24739,-0.70199 0.36501,-1.0804c0.11896,-0.37683 0.22915,-0.75048 0.33054,-1.12094c0.10139,-0.36888 0.18927,-0.7163 0.26362,-1.04224M275.07626,269.66119h5.24204v1.08517h-5.24204zM282.36645,260.15701h1.09505v11.12597h-1.09505v-11.12597M281.49447,262.44659l0.78073,0.13117c-0.01351,0.3339 -0.04259,0.70119 -0.0872,1.10186c-0.04327,0.40227 -0.09666,0.79579 -0.16021,1.18057c-0.06489,0.38636 -0.13789,0.73061 -0.21901,1.03269l-0.82128,-0.3339c0.08788,-0.2703 0.16561,-0.58432 0.2332,-0.94207c0.06759,-0.35774 0.12505,-0.72742 0.17236,-1.10902c0.04731,-0.3816 0.08112,-0.73537 0.10139,-1.06132M283.30941,262.48238l0.74017,-0.36968c0.14871,0.31005 0.28864,0.64952 0.41977,1.01839c0.13249,0.37047 0.22577,0.6829 0.27985,0.9373l-0.79087,0.44122c-0.0338,-0.18285 -0.0845,-0.38796 -0.15209,-0.61532c-0.06759,-0.22578 -0.1433,-0.46428 -0.22712,-0.7155c-0.08517,-0.24963 -0.17508,-0.48176 -0.26971,-0.69641M285.27644,260.70555l1.05449,0.1908c-0.06759,0.5883 -0.16087,1.16626 -0.27985,1.73389c-0.11762,0.56922 -0.25078,1.10186 -0.39949,1.59795c-0.14871,0.49766 -0.31432,0.93333 -0.49682,1.30697c-0.06759,-0.0636 -0.16223,-0.13356 -0.2839,-0.20987c-0.12167,-0.07473 -0.24335,-0.14628 -0.36501,-0.21465c-0.12167,-0.06678 -0.22644,-0.12005 -0.31432,-0.15979c0.18251,-0.34185 0.34474,-0.73934 0.48669,-1.1925c0.14195,-0.45314 0.2616,-0.94207 0.35893,-1.46676c0.09869,-0.5247 0.17846,-1.05337 0.23929,-1.58602M285.52993,262.60162h4.69452v1.21634h-5.00883l0.31432,-1.21634M287.00012,260.21663h1.08491v10.16005h-1.08491v-10.16005M284.97225,265.92868h5.03925v1.1925h-5.03925v-1.1925M284.21181,269.68503h6.30667v1.21634h-6.30667zM292.00896,261.09908l0.69962,-0.77513c0.18251,0.1749 0.37854,0.37126 0.58808,0.58909c0.20955,0.21942 0.40558,0.43407 0.58808,0.64394c0.18251,0.21147 0.33122,0.40465 0.44613,0.57955l-0.74017,0.88245c-0.10815,-0.1749 -0.25011,-0.37604 -0.42585,-0.6034c-0.17574,-0.22578 -0.36501,-0.45394 -0.56781,-0.68449c-0.20278,-0.23055 -0.39881,-0.44122 -0.58808,-0.63202M292.63759,271.1041l-0.24335,-1.13287l0.20278,-0.41737l1.98731,-1.88415c0.04055,0.16695 0.10139,0.35537 0.18251,0.56524c0.08112,0.21147 0.15547,0.37683 0.22307,0.49607c-0.4664,0.44519 -0.84494,0.80851 -1.1356,1.08994c-0.29066,0.28301 -0.51711,0.50562 -0.67933,0.6678c-0.16223,0.16377 -0.28187,0.29096 -0.35893,0.3816c-0.07841,0.09221 -0.13789,0.17013 -0.17846,0.23373M291.30934,263.85374h1.82508v1.22827h-1.82508v-1.22827M296.02413,260.56246h2.72749v1.18057h-2.72749v-1.18057M294.80742,265.36821h4.65395v1.1925h-4.65395v-1.1925M299.12678,265.36821h0.19265l0.19265,-0.04771l0.65905,0.3339c-0.20955,0.82679 -0.49007,1.55024 -0.84156,2.17034c-0.3515,0.6201 -0.76518,1.15434 -1.24105,1.60271c-0.47723,0.44997 -1.00109,0.82601 -1.5716,1.12809c-0.57186,0.3021 -1.18225,0.54457 -1.83116,0.72742c-0.04731,-0.16695 -0.11964,-0.36173 -0.21699,-0.58432c-0.09869,-0.2226 -0.19535,-0.40147 -0.28998,-0.53662c0.58808,-0.13515 1.14575,-0.32833 1.67299,-0.57955c0.52724,-0.24963 1.00717,-0.56365 1.43979,-0.94207c0.43261,-0.37683 0.80641,-0.82202 1.12141,-1.33559c0.31364,-0.51197 0.55158,-1.09789 0.71381,-1.75774v-0.17888M296.04441,266.33412c0.27038,0.64394 0.63067,1.22429 1.08086,1.74104c0.44883,0.51675 0.98284,0.9516 1.60202,1.30458c0.61782,0.35457 1.30189,0.61931 2.0522,0.7942c-0.07435,0.08745 -0.15344,0.19875 -0.23726,0.3339c-0.08517,0.13515 -0.16493,0.27189 -0.23929,0.41022c-0.07435,0.13992 -0.13519,0.2695 -0.18251,0.38875c-1.18293,-0.3339 -2.18672,-0.8904 -3.01138,-1.66949c-0.82467,-0.7791 -1.48034,-1.76091 -1.96703,-2.94546l0.9024,-0.35774M295.75038,260.56246h1.02408v1.33559c0,0.38955 -0.04731,0.78705 -0.14195,1.1925c-0.09463,0.40545 -0.26836,0.79102 -0.52116,1.15672c-0.25416,0.3657 -0.62459,0.67972 -1.11127,0.94207c-0.04731,-0.0795 -0.11492,-0.18126 -0.20278,-0.30527c-0.08788,-0.12243 -0.17913,-0.24327 -0.27376,-0.36252c-0.09463,-0.11925 -0.17574,-0.2067 -0.24335,-0.26235c0.43261,-0.2226 0.75369,-0.46745 0.96324,-0.73458c0.20955,-0.26553 0.34676,-0.53981 0.41166,-0.82282c0.06354,-0.28143 0.09531,-0.56127 0.09531,-0.83952v-1.29982M298.25478,260.56246h1.02408v2.64734c0,0.1749 0.01014,0.29812 0.03042,0.36968c0.02028,0.07155 0.07097,0.10732 0.15209,0.10732c0.0338,0 0.08788,0 0.16223,0c0.07435,0 0.15074,0 0.22915,0c0.07706,0 0.13587,0 0.17642,0c0.08112,0 0.1744,-0.00636 0.27985,-0.01908c0.10409,-0.01112 0.18657,-0.02862 0.24739,-0.05247c0.01351,0.159 0.02704,0.33947 0.04055,0.54139c0.01351,0.20352 0.03042,0.37683 0.0507,0.51992c-0.07435,0.03975 -0.16561,0.0636 -0.27376,0.07155c-0.10815,0.00795 -0.21631,0.01192 -0.32446,0.01192c-0.05408,0 -0.12641,0 -0.21699,0c-0.09193,0 -0.18183,0 -0.26971,0c-0.08788,0 -0.15547,0 -0.20278,0c-0.30418,0 -0.53535,-0.05168 -0.69353,-0.15503c-0.15953,-0.10335 -0.26768,-0.27268 -0.32446,-0.508c-0.05814,-0.23373 -0.0872,-0.53344 -0.0872,-0.89914v-2.63541M292.63759,271.1041c-0.02704,-0.10335 -0.07233,-0.2226 -0.13587,-0.35774c-0.06489,-0.13515 -0.13587,-0.2703 -0.21293,-0.40545c-0.07841,-0.13515 -0.14804,-0.24247 -0.20887,-0.32197c0.07435,-0.05565 0.15074,-0.13912 0.22915,-0.25042c0.07706,-0.1113 0.14262,-0.24247 0.1967,-0.39352c0.05408,-0.15104 0.08112,-0.318 0.08112,-0.50085v-5.0204h1.04435v5.95054c0,0 -0.0507,0.04532 -0.15209,0.13594c-0.10139,0.09221 -0.21631,0.2059 -0.34474,0.34106c-0.12843,0.13515 -0.24335,0.27825 -0.34474,0.4293c-0.10139,0.15104 -0.15209,0.28223 -0.15209,0.39352zM307.76549,261.45682v0.79897h1.32825v-0.79897h-1.32825M305.47399,261.45682v0.79897h1.29783v-0.79897h-1.29783M303.21292,261.45682v0.79897h1.26741v-0.79897h-1.26741M302.17871,260.59823h8.01007v2.52809h-8.01007v-2.52809M301.74272,263.67486h8.68942v0.95399h-8.68942v-0.95399M305.53483,262.86397l1.12547,0.07155c-0.04731,0.42135 -0.10815,0.86814 -0.18251,1.34037c-0.07435,0.47381 -0.14532,0.88165 -0.21293,1.22349h-1.01393c0.04055,-0.23055 0.07976,-0.49687 0.11762,-0.79897c0.0365,-0.3021 0.0703,-0.61453 0.10139,-0.9373c0.02974,-0.32118 0.05137,-0.6209 0.06489,-0.89914M301.61091,270.05471h9.10512v0.9063h-9.10512v-0.9063M303.39543,266.45337h5.48538v0.6678h-5.48538v-0.6678M303.43599,267.64587h5.43469v0.65587h-5.43469v-0.65587M303.47654,268.85029h5.45496v0.6678h-5.45496v-0.6678M302.83777,265.16548h6.59056v5.39007h-1.07477v-4.60303h-4.48159v4.60303h-1.03421z" fill="#ffdb76"/></g></g></svg>