<svg version="1.1" xmlns="http://www.w3.org/2000/svg" xmlns:xlink="http://www.w3.org/1999/xlink" width="155.12093" height="19.85817" viewBox="0,0,155.12093,19.85817"><g transform="translate(-240.4748,-169.68233)"><g fill="#ffffff" stroke-miterlimit="10"><path d="M342.65026,178.29538v-7.28125h11.42116v15.31143c0,0.87375 -0.19763,1.47705 -0.5929,1.80991c-0.39526,0.33286 -1.07833,0.49929 -2.04915,0.49929h-1.85153l-0.29125,-1.39384h1.87232c0.56863,0 0.9535,-0.08668 1.1546,-0.26005c0.2011,-0.17336 0.30165,-0.49581 0.30165,-0.96737v-13.58474h-8.52947v6.4075c0,1.88619 -0.04161,3.40139 -0.12482,4.54558c-0.08321,1.14419 -0.24617,2.15664 -0.48888,3.03732c-0.24271,0.88068 -0.59984,1.78565 -1.07139,2.71487l-1.45625,-0.76973c0.51315,-0.9847 0.88762,-1.88272 1.12339,-2.69407c0.23577,-0.81134 0.3918,-1.74749 0.46809,-2.80848c0.07628,-1.06098 0.11442,-2.58312 0.11442,-4.56639zM351.99107,179.35636h-7.32286v-1.35223h2.8917v-1.87232h-2.49643v-1.22741h2.49643v-1.80991h1.39384v1.80991h2.55884v1.22741h-2.55884v1.87232h3.03732zM339.9666,184.39083l1.41464,-1.58107l0.35367,1.53946l-2.78769,3.03732l-0.95697,-1.04018c0.34672,-0.38834 0.52009,-0.8252 0.52009,-1.31062v-7.05241h-1.87232v-1.53946h3.32858zM345.60436,185.9719v-5.11768h5.34652v5.11768zM341.42285,173.90582l-1.31063,0.95696c-0.31899,-0.51315 -0.74893,-1.16153 -1.28983,-1.94513c-0.54089,-0.7836 -0.97777,-1.39038 -1.31063,-1.82032l1.24821,-0.87375c0.70732,0.88762 1.59494,2.11503 2.66286,3.68223zM346.9566,182.10244v2.62125h2.66286v-2.62125z" fill-rule="evenodd" stroke="#ffffff" stroke-width="0.5" stroke-linecap="round"/><path d="M357.9617,178.62823l-0.62411,-1.51866c2.82929,-0.81827 5.30491,-2.03875 7.42688,-3.66143h-6.86518v-1.41465h7.86375v-2.10116h1.60188v2.10116h7.90536v1.41465h-6.9276c1.95554,1.51173 4.42423,2.6906 7.40608,3.53661l-0.5617,1.49786c-1.78911,-0.65185 -3.30429,-1.29675 -4.54558,-1.93473c-1.24129,-0.63798 -2.33347,-1.3661 -3.27657,-2.18438v2.82928h-1.60188v-2.85009c-0.9847,0.81827 -2.11503,1.57414 -3.39099,2.2676c-1.27596,0.69345 -2.74607,1.3661 -4.41035,2.01795zM372.77384,177.96252v7.03161h-12.41974v-7.03161zM375.33268,186.82485v1.39384h-17.53741v-1.39384zM361.87277,180.85422h9.34081v-1.62269h-9.34081zM371.21357,182.10244h-9.3408v1.58107h9.3408z" fill-rule="evenodd" stroke="#ffffff" stroke-width="0.5" stroke-linecap="round"/><path d="M386.60822,169.95314h1.60188v4.07749h7.13563v8.57108h-7.13563v6.4075h-1.60188v-6.4075h-7.07322v-8.57108h7.07322zM393.72305,175.65333h-5.51295v5.34652h5.51295zM386.60822,175.65333h-5.45054v5.34652h5.45054z" fill-rule="evenodd" stroke="#ffffff" stroke-width="0.5" stroke-linecap="round"/><path d="M248.94936,184.23674h-1.65141v3.10143l3.08129,-0.76529l0.04028,1.14793l-4.75284,1.2889l-0.44306,-1.06737c0.29537,-0.12083 0.48334,-0.22153 0.5639,-0.30209c0.08056,-0.08056 0.12084,-0.18797 0.12084,-0.32223v-3.08129h-1.87294c-0.10741,0.91298 -0.31551,1.74203 -0.62431,2.48718c-0.3088,0.74515 -0.74515,1.49365 -1.30904,2.24552l-1.26877,-0.88612c0.73843,-0.95325 1.24191,-1.86623 1.51044,-2.73892c0.26852,-0.8727 0.40278,-2.03405 0.40278,-3.48407v-2.90004h15.20506v1.00696h-13.79532v2.21531c0,0.45649 -0.00672,0.79214 -0.02014,1.00696h14.21824v1.04724h-7.85427c0.75186,0.79214 1.60442,1.41645 2.55767,1.87294c1.71854,-0.77871 2.92018,-1.35604 3.60491,-1.73197l0.60417,1.04724c-0.49676,0.24167 -1.40303,0.65788 -2.71878,1.24863c1.19492,0.33565 2.64494,0.58403 4.35006,0.74515l-0.58403,1.24863c-1.59771,-0.20139 -2.96045,-0.48334 -4.08825,-0.84585c-1.12779,-0.3625 -2.11126,-0.82906 -2.95039,-1.39967c-0.83913,-0.57061 -1.61449,-1.29897 -2.32607,-2.1851zM249.23131,178.33596v-3.76602h-5.96119v2.59795h-1.42988v-3.60491h7.39107v-1.08752h-6.6862v-1.12779h14.88284v1.12779h-6.7869v1.08752h7.47163v3.60491h-1.40974v-2.59795h-6.06189v3.76602zM245.00209,181.09503h12.02308v0.98682h-12.02308zM244.39791,176.4026v-0.90626h3.78616v0.90626zM251.76884,176.4026v-0.90626h3.76602v0.90626zM248.18408,177.16789v0.88612h-3.78616v-0.88612zM251.78898,178.05401v-0.88612h3.76602v0.88612z" fill-rule="evenodd" stroke="#ffffff" stroke-width="0.5" stroke-linecap="round"/><path d="M284.4527,178.75889v2.09447h-2.09447v-2.09447z" fill-rule="evenodd" stroke="#ffffff" stroke-width="0.5" stroke-linecap="round"/><path d="M294.83009,185.40481l-1.16807,0.96668l-2.21531,-3.02087c-0.22825,1.03381 -0.56054,1.97364 -0.99689,2.81948c-0.43635,0.84584 -1.05059,1.76553 -1.84273,2.75906l-1.16807,-1.10765c0.68473,-0.85927 1.22513,-1.64806 1.6212,-2.36635c0.39607,-0.7183 0.70152,-1.49029 0.91633,-2.316c0.21482,-0.82571 0.3625,-1.80917 0.44306,-2.95039h-2.73892v-1.55071h2.79934c0.01342,-0.32223 0.02014,-0.83242 0.02014,-1.53058v-1.67155h-2.43684v-1.53058h2.43684v-3.28268h1.42988v3.28268h2.39656v1.53058h-2.39656v1.67155c0,0.69816 -0.00672,1.20835 -0.02014,1.53058h2.71879v1.55071h-2.7792c-0.01342,0.28195 -0.04699,0.67802 -0.1007,1.18821c0.69816,0.88612 1.72526,2.22873 3.08129,4.02783zM303.93298,183.41103l1.34932,0.32223c0,0.3088 -0.00672,0.70487 -0.02014,1.18821c-0.01342,0.48334 -0.03356,0.93312 -0.06042,1.34932c-0.02685,0.5639 -0.11077,0.99353 -0.25174,1.28891c-0.14097,0.29537 -0.3625,0.50348 -0.66459,0.62431c-0.30209,0.12083 -0.74179,0.18125 -1.31911,0.18125h-1.4903c-0.67131,0 -1.16136,-0.1544 -1.47016,-0.4632c-0.3088,-0.3088 -0.4632,-0.85256 -0.4632,-1.63127v-3.38338c-0.42964,1.2352 -1.07744,2.34957 -1.94343,3.3431c-0.86598,0.99353 -1.99713,1.9535 -3.39345,2.8799l-0.96668,-1.20835c1.47687,-0.95325 2.60466,-1.86287 3.38338,-2.72885c0.77871,-0.86598 1.32918,-1.82595 1.65141,-2.8799c0.32223,-1.05395 0.5169,-2.39992 0.58404,-4.0379l0.02014,-4.02783h1.45002l-0.06042,4.22922c-0.01342,0.99353 -0.12084,1.99378 -0.32223,3.00073h1.0271v4.28964c0,0.46991 0.08056,0.78207 0.24167,0.93647c0.16111,0.1544 0.45649,0.2316 0.88612,0.2316h0.58403c0.48334,0 0.80221,-0.07384 0.95661,-0.22153c0.1544,-0.14769 0.23832,-0.4632 0.25174,-0.94654l0.02014,-1.55072c0.01342,-0.24167 0.02014,-0.50348 0.02014,-0.78543zM302.68436,182.92769v-9.90847h-5.88063v9.90847h-1.40974v-11.39876h8.67998v11.39876z" fill-rule="evenodd" stroke="#ffffff" stroke-width="0.5" stroke-linecap="round"/><path d="M323.65109,184.47841h-5.15563c0.44306,0.76529 1.09758,1.40303 1.96357,1.91322c0.86598,0.51019 2.0307,0.91297 3.49414,1.20835l-0.44306,1.3896c-2.84633,-0.65788 -4.81997,-1.82595 -5.92091,-3.50421c-0.46991,0.76529 -1.20499,1.43995 -2.20524,2.02398c-1.00024,0.58404 -2.31936,1.09087 -3.95734,1.52051l-0.52362,-1.32918c1.61113,-0.37593 2.85976,-0.82571 3.74588,-1.34932c0.88612,-0.52362 1.4903,-1.14793 1.81252,-1.87294h-4.77298v-1.32918h5.09521c0.01342,-0.0537 0.02014,-0.13426 0.02014,-0.24167c0.01342,-0.20139 0.02014,-0.58404 0.02014,-1.14793h-4.10839v-6.223h9.64665v6.223h-4.10839v1.14793v0.24167h5.3973zM312.23219,179.74571l-0.72501,1.20835c-0.3088,-0.3088 -0.8257,-0.79885 -1.55071,-1.47016v9.42513h-1.3896v-9.50568c-0.73843,1.86623 -1.48358,3.40352 -2.23544,4.61187l-0.62431,-1.79238c0.51019,-0.79214 1.02038,-1.77896 1.53057,-2.96046c0.51019,-1.1815 0.9264,-2.34957 1.24863,-3.50421h-2.27572v-1.36946h2.35628v-3.82644h1.3896v3.82644h2.15489v1.36946h-2.15489v1.9535c0.80557,0.67131 1.56414,1.34932 2.27572,2.03405zM316.09891,173.70396v1.24863h-1.34932v-1.24863h-2.90004v-1.32918h2.90004v-1.87294h1.34932v1.87294h3.10143v-1.87294h1.34932v1.87294h2.8799v1.32918h-2.8799v1.24863h-1.34932v-1.24863zM321.09342,180.59155v-1.45002h-7.0487v1.45002zM314.04472,178.09429h7.0487v-1.3896h-7.0487z" fill-rule="evenodd" stroke="#ffffff" stroke-width="0.5" stroke-linecap="round"/><path d="M273.65,174.98h4.541v7.5781h-3.7402v5.3613c0,0.61848 -0.14648,1.04818 -0.43946,1.2891c-0.24088,0.19531 -0.66732,0.29297 -1.2793,0.29297c-0.73566,0 -1.47134,-0.06836 -2.207,-0.20508l-0.27344,-1.8359c0.7552,0.11719 1.34114,0.17578 1.7578,0.17578c0.2474,0 0.39388,-0.05859 0.43945,-0.17578c0.02607,-0.08463 0.0391,-0.21809 0.0391,-0.40039v-4.502h-3.7402v-7.5781h2.9492c0.24088,-0.71614 0.41341,-1.30533 0.51758,-1.7676h-4.5801v5.3027c0,2.35027 -0.14649,4.29037 -0.43945,5.8203c-0.34506,1.8294 -1.02538,3.5449 -2.041,5.1465l-1.5625,-1.543c1.33466,-2.12894 2.002,-4.96096 2.002,-8.4961v-8.0273h13.701v1.7969h-4.9707c-0.19531,0.625 -0.41992,1.2142 -0.67382,1.7676zM276.2086,176.5425h-5.5371v1.4746h5.5371zM270.6715,179.521v1.5137h5.5371v-1.5137zM263.7672,174.98c-0.64452,-0.96354 -1.58529,-1.97263 -2.8223,-3.0273l1.5039,-1.3184c1.1198,0.80727 2.06706,1.74804 2.8418,2.8223zM263.23009,179.9995c-1.08074,-1.36067 -2.0345,-2.39584 -2.8613,-3.1055l1.543,-1.3965c1.0612,0.8854 2.02147,1.87823 2.8808,2.9785zM260.59339,188.0366c0.99606,-1.90106 1.8001,-4.21553 2.4121,-6.9434l1.7871,1.084c-0.4427,1.90753 -0.84634,3.40493 -1.2109,4.4922c-0.31901,0.95054 -0.70964,1.90757 -1.1719,2.8711zM266.74569,187.37254c1.0742,-1.1328 1.8945,-2.52604 2.4609,-4.1797l1.8652,0.56641c-0.61849,1.97267 -1.52668,3.63283 -2.7246,4.9805zM277.96669,188.57374c-0.6966,-1.6146 -1.569,-3.1478 -2.6172,-4.5996l1.6211,-0.9375c1.06774,1.32814 2.00196,2.76044 2.8027,4.2969z" fill-rule="nonzero" stroke="none" stroke-width="1" stroke-linecap="butt"/></g></g></svg>