<svg version="1.1" xmlns="http://www.w3.org/2000/svg" xmlns:xlink="http://www.w3.org/1999/xlink" width="209.14239" height="32" viewBox="0,0,209.14239,32"><g transform="translate(-238.85761,-164)"><g stroke-miterlimit="10"><path d="M240,196v-32h208v32z" fill="none" fill-rule="nonzero" stroke="none" stroke-width="0" stroke-linecap="butt"/><path d="M277.25121,176.29442h-6.62659c0.78446,1.88545 1.77191,3.58166 2.96236,5.08865c1.19045,1.50698 2.65958,2.98988 4.40741,4.44869l-1.11475,1.48634c-1.62396,-1.40376 -3.07245,-2.97612 -4.34548,-4.71706c-1.27302,-1.74094 -2.288,-3.58854 -3.04493,-5.5428v7.98907h4.14936v1.54827h-4.14936v3.63327h-1.6102v-3.63327h-4.10807v-1.54827h4.10807v-8.17486c-0.75693,1.95426 -1.7203,3.76057 -2.8901,5.41894c-1.1698,1.65837 -2.68367,3.38899 -4.54159,5.19186l-1.07347,-1.42441c1.78911,-1.6102 3.26513,-3.17567 4.42805,-4.69642c1.16292,-1.52074 2.13661,-3.21008 2.92107,-5.068h-6.58531v-1.58956h7.74135v-3.38555h1.6102v3.38555h7.76199zM358.85533,184.32477l1.46569,0.3303c0,0.41287 -0.02753,1.07347 -0.08257,1.98178l-0.02064,0.68124c-0.04129,0.56426 -0.15139,1.00121 -0.3303,1.31087c-0.17891,0.30965 -0.46792,0.52985 -0.86703,0.66059c-0.39911,0.13074 -0.96337,0.19611 -1.69277,0.19611h-5.24347c-0.68812,0 -1.22829,-0.07225 -1.62052,-0.21676c-0.39223,-0.14451 -0.6778,-0.39911 -0.85671,-0.76381c-0.17891,-0.3647 -0.26837,-0.89111 -0.26837,-1.57923v-7.1014l-1.73406,0.59866l-0.39223,-1.46569l2.12629,-0.72253v-5.09897h1.46569v4.60352l2.55981,-0.88767v-5.53248h1.44505v5.05768l4.39708,-1.50698l-0.22708,7.36976c-0.04129,0.56426 -0.12386,0.99089 -0.24772,1.2799c-0.12386,0.28901 -0.33718,0.49545 -0.63995,0.61931c-0.30277,0.12386 -0.74317,0.18579 -1.32119,0.18579h-1.11475l-0.28901,-1.52763h0.74317c0.39911,0 0.695,-0.03097 0.88767,-0.0929c0.19267,-0.06193 0.32686,-0.17547 0.40255,-0.34062c0.07569,-0.16515 0.12042,-0.42663 0.13418,-0.78446l0.18579,-4.62416l-2.91075,0.99089v8.17486h-1.44505v-7.67942l-2.55981,0.88767v6.97753c0,0.49545 0.03441,0.86015 0.10322,1.09411c0.06881,0.23396 0.20988,0.39911 0.42319,0.49545c0.21332,0.09634 0.54706,0.14451 1.00121,0.14451h4.41773c0.57802,0 1.00121,-0.03441 1.26958,-0.10322c0.26837,-0.06881 0.4576,-0.20644 0.5677,-0.41287c0.1101,-0.20644 0.17891,-0.53673 0.20644,-0.99089zM380.75818,175.73704h-11.02368l-0.14451,2.7456l-0.04129,0.63995h8.89739c-0.05505,0.89456 -0.13074,2.11253 -0.22708,3.65392c-0.09634,1.54139 -0.17891,2.75936 -0.24772,3.65392c-0.06881,0.82574 -0.22364,1.45537 -0.46448,1.88889c-0.24084,0.43352 -0.60555,0.73973 -1.09411,0.91864c-0.48856,0.17891 -1.17324,0.26837 -2.05404,0.26837h-3.26169l-0.3303,-1.54827h3.01396c0.68812,0 1.20765,-0.05849 1.55859,-0.17547c0.35094,-0.11698 0.60555,-0.32342 0.76381,-0.61931c0.15827,-0.29589 0.26493,-0.73285 0.31998,-1.31087l0.3303,-5.1609h-7.34912c-0.16515,1.37624 -0.4404,2.59077 -0.82574,3.64359c-0.38535,1.05282 -0.93928,2.05404 -1.66181,3.00364c-0.72253,0.94961 -1.67557,1.92674 -2.85914,2.93139l-1.21797,-1.32119c1.29366,-1.07347 2.288,-2.09188 2.983,-3.05525c0.695,-0.96337 1.20421,-2.02651 1.52763,-3.18943c0.32342,-1.16292 0.54017,-2.63894 0.65027,-4.42805l0.14451,-2.53916h-5.05768v-1.56891h8.54645l-1.11475,-2.62174l1.69277,-0.43352c0.20644,0.42663 0.64683,1.44505 1.32119,3.05525h7.22526zM298.47282,184.30413h-10.25986c-1.04594,1.15604 -2.32584,2.35337 -3.83971,3.59198l9.26897,-0.35094l-2.2708,-2.14693l1.01154,-1.01154c0.59178,0.53673 1.15948,1.0597 1.7031,1.56891c0.54361,0.50921 1.02186,0.95649 1.43473,1.34183c1.48634,1.40376 2.09876,1.9749 1.83728,1.71342l-1.07347,1.17668c-0.23396,-0.24772 -0.66059,-0.68124 -1.2799,-1.30055l-12.75774,0.55738l-0.39223,-1.46569c1.62396,-1.15604 3.04837,-2.38089 4.27322,-3.67456h-5.92471v-1.40376h2.72495v-10.73467h12.75774v10.73467h2.78688zM335.87901,182.57007l0.90832,-1.03218c0.53673,0.46792 1.14228,1.01154 1.81664,1.63084c0.67436,0.61931 1.22485,1.14228 1.65149,1.56891l-1.03218,1.2799c-1.19733,-1.22485 -2.31208,-2.29144 -3.34426,-3.19976l-0.04129,0.45416l-0.24772,3.71585c-0.05505,0.67436 -0.19611,1.20077 -0.42319,1.57923c-0.22708,0.37847 -0.56426,0.64339 -1.01154,0.79478c-0.44728,0.15139 -1.05626,0.22708 -1.82696,0.22708h-2.72495l-0.24772,-1.48634h2.49787c0.59178,0 1.02874,-0.04129 1.31087,-0.12386c0.28213,-0.08257 0.48856,-0.24428 0.61931,-0.48512c0.13074,-0.24084 0.22364,-0.61587 0.27869,-1.12508c0.08257,-0.89456 0.16859,-1.98178 0.25804,-3.26169c0.08946,-1.2799 0.15483,-2.33273 0.19611,-3.15847h-4.76867c-0.09634,1.84416 -0.35782,3.36147 -0.78446,4.55191c-0.42663,1.19045 -1.09067,2.23639 -1.99211,3.13783c-0.90144,0.90144 -2.17102,1.82696 -3.80874,2.77656l-1.05282,-1.25926c1.52763,-0.83951 2.70431,-1.66181 3.53005,-2.46691c0.82574,-0.8051 1.43129,-1.72718 1.81664,-2.76624c0.38535,-1.03906 0.63307,-2.36369 0.74317,-3.97389h-5.78021v-1.46569h5.84214l0.04129,-1.85792h1.54827l-0.02064,0.61931c0,0.24772 -0.01376,0.66059 -0.04129,1.23862h6.33758c-0.02753,0.71564 -0.1101,2.07812 -0.24772,4.08743zM307.30828,172.41342v1.48634l-1.48634,4.91317c0.56426,0.88079 0.98057,1.70654 1.24894,2.47723c0.26837,0.77069 0.40255,1.54139 0.40255,2.31208c0,0.78446 -0.08601,1.39 -0.25804,1.81664c-0.17203,0.42663 -0.45416,0.72941 -0.84639,0.90832c-0.39223,0.17891 -0.9324,0.26837 -1.62052,0.26837h-0.88767l-0.26837,-1.46569h0.88767c0.45416,0 0.79134,-0.05161 1.01154,-0.15483c0.2202,-0.10322 0.37502,-0.27869 0.46448,-0.52641c0.08946,-0.24772 0.13418,-0.61931 0.13418,-1.11475c0,-1.15604 -0.57802,-2.57357 -1.73406,-4.25258l1.52763,-5.18154h-2.58045v16.18458h-1.46569v-17.67091zM308.23724,172.76436h10.81724v1.48634h-1.42441v12.81967c0,0.74317 -0.08257,1.30743 -0.24772,1.69277c-0.16515,0.38535 -0.45072,0.65715 -0.85671,0.81542c-0.40599,0.15827 -1.0081,0.2374 -1.80631,0.2374h-2.58045l-0.28901,-1.63084h2.51852c0.52297,0 0.90832,-0.03785 1.15604,-0.11354c0.24772,-0.07569 0.41975,-0.22708 0.51609,-0.45416c0.09634,-0.22708 0.14451,-0.58146 0.14451,-1.06314v-12.30358h-7.94778zM328.03444,174.82872v1.71342h-1.58956v-1.71342h-4.91317v-1.48634h4.91317v-2.12629h1.58956v2.12629h5.26412v-2.12629h1.56891v2.12629h4.87189v1.48634h-4.87189v1.77535h-1.56891v-1.77535zM346.01501,178.19363v7.14268l2.37401,-0.76381l0.12386,0.76381l0.08257,0.66059l-6.13115,2.00243l-0.39223,-1.38312l2.47723,-0.8051v-7.61749h-2.16758v-1.50698h2.16758v-4.95446h1.46569v4.95446h1.75471v1.50698zM254.33682,185.27438h-3.05525c-0.70188,0 -1.20077,-0.14795 -1.49666,-0.44384c-0.29589,-0.29589 -0.44384,-0.80854 -0.44384,-1.53795v-4.60352h1.42441v2.31208c0.89456,-0.31654 1.79943,-0.66748 2.71463,-1.05282c0.9152,-0.38535 1.65493,-0.73629 2.21919,-1.05282l0.59866,1.23862c-0.64683,0.31654 -1.5001,0.68468 -2.55981,1.10443c-1.0597,0.41975 -2.0506,0.7879 -2.97268,1.10443v0.45416c0,0.46792 0.0929,0.78102 0.27869,0.93928c0.18579,0.15827 0.51953,0.2374 1.00121,0.2374h1.79599c0.56426,0 0.94961,-0.07569 1.15604,-0.22708c0.20644,-0.15139 0.33718,-0.46792 0.39223,-0.94961c0.02753,-0.26149 0.04817,-0.54706 0.06193,-0.85671c0.01376,-0.30965 0.02064,-0.5677 0.02064,-0.77413l1.38312,0.37158l-0.16515,1.9405c-0.06881,0.67436 -0.27525,1.14228 -0.61931,1.40376c-0.34406,0.26149 -0.92208,0.39223 -1.73406,0.39223zM254.25425,178.11105h-3.0759c-0.64683,0 -1.11475,-0.14795 -1.40376,-0.44384c-0.28901,-0.29589 -0.43352,-0.76725 -0.43352,-1.41409v-4.89253h1.42441v2.51852c0.89456,-0.30277 1.80287,-0.63307 2.72495,-0.99089c0.92208,-0.35782 1.61708,-0.64683 2.085,-0.86703l0.63995,1.19733c-0.63307,0.27525 -1.50354,0.61931 -2.61141,1.03218c-1.10787,0.41287 -2.05404,0.74317 -2.83849,0.99089v0.51609c0,0.41287 0.08601,0.695 0.25804,0.84639c0.17203,0.15139 0.47824,0.22708 0.91864,0.22708h1.83728c0.5505,0 0.9324,-0.07225 1.14572,-0.21676c0.21332,-0.14451 0.34062,-0.43696 0.38191,-0.87735c0.05505,-0.88079 0.08257,-1.40376 0.08257,-1.56891l1.34183,0.39223l-0.14451,1.83728c-0.06881,0.63307 -0.27869,1.07691 -0.62963,1.33151c-0.35094,0.2546 -0.91864,0.38191 -1.7031,0.38191zM241.64101,185.50146h-1.38312v-8.5258h7.30783v6.68852c0,0.66059 -0.14106,1.11475 -0.42319,1.36248c-0.28213,0.24772 -0.7879,0.37158 -1.5173,0.37158h-1.58956l-0.24772,-1.17668h1.56891c0.27525,0 0.46792,-0.02408 0.57802,-0.07225c0.1101,-0.04817 0.18235,-0.1273 0.21676,-0.2374c0.03441,-0.1101 0.05161,-0.28901 0.05161,-0.53673v-0.59866h-4.56223zM244.7582,173.17724l0.86703,-0.82574c0.53673,0.53673 1.31431,1.3556 2.33273,2.45659c0.26149,0.26149 0.54361,0.55738 0.84639,0.88767l-0.99089,0.92896l-0.84639,-0.97025l-7.14268,0.39223l-0.30965,-1.23862c0.75693,-0.52297 1.50698,-1.14228 2.25015,-1.85792c0.74317,-0.71564 1.30055,-1.36248 1.67213,-1.9405l1.25926,0.70188c-0.46792,0.56426 -0.99777,1.13884 -1.58956,1.72374c-0.59178,0.5849 -1.10787,1.0425 -1.54827,1.3728l4.43837,-0.24772zM308.6914,184.9028v-7.96843h5.38798v7.96843zM294.1996,182.90037v-2.2708h-9.76442v2.2708zM284.43518,177.09952v2.18822h9.76442v-2.18822zM284.43518,175.79897h9.76442v-2.16758h-9.76442zM310.03323,178.37942v5.09897h2.68367v-5.09897zM324.7934,180.85665l1.2799,0.88767c-0.45416,0.78446 -0.98401,1.59988 -1.58956,2.44627c-0.60555,0.84639 -1.16292,1.54483 -1.67213,2.09532l-1.1354,-1.1354c0.49545,-0.50921 1.02874,-1.16636 1.59988,-1.97146c0.57114,-0.8051 1.07691,-1.57923 1.5173,-2.3224zM240.69141,190.39399l-1.46569,-0.74317c0.85327,-1.23862 1.5001,-2.49099 1.9405,-3.75713l1.36248,0.57802c-0.38535,1.25238 -0.99777,2.55981 -1.83728,3.92228zM241.64101,179.37031h4.56223v-1.25926h-4.56223zM246.20325,180.46442h-4.56223v1.23862h4.56223zM253.4285,186.513l1.30055,-0.70188c0.94961,1.41753 1.66525,2.59421 2.14693,3.53005l-1.46569,0.76381c-0.68812,-1.45881 -1.34871,-2.65614 -1.98178,-3.59198zM244.44854,186.53364l1.44505,-0.30965l0.26837,0.88767c0.38535,1.33495 0.61931,2.20198 0.70188,2.60109l-1.54827,0.3303c-0.08257,-0.53673 -0.30277,-1.45193 -0.66059,-2.7456zM249.05206,186.55428l1.36248,-0.45416c0.24772,0.5505 0.50921,1.14572 0.78446,1.78567c0.27525,0.63995 0.48168,1.17324 0.61931,1.59988l-1.50698,0.45416c-0.12386,-0.46792 -0.28557,-0.96337 -0.48512,-1.48634c-0.19955,-0.52297 -0.4576,-1.15604 -0.77413,-1.89921z" fill="#ffffff" fill-rule="evenodd" stroke="#ffffff" stroke-width="0.5" stroke-linecap="round"/></g></g></svg>