<svg version="1.1" xmlns="http://www.w3.org/2000/svg" xmlns:xlink="http://www.w3.org/1999/xlink" width="208" height="32" viewBox="0,0,208,32"><g transform="translate(-240,-164)"><g stroke="none" stroke-miterlimit="10"><path d="M240,196v-32h208v32z" fill="none" stroke-width="0"/><path d="M255.03,170.44l1.8457,1.6602c-3.32033,0.6966 -6.78067,1.1914 -10.381,1.4844v2.1777h11.943v1.8848h-3.6035v3.9648h4.6289v1.8848h-18.965v-1.8848h3.7988v-9.7852l0.64453,-0.0391c3.28127,-0.16927 6.64393,-0.61851 10.088,-1.3477zM252.657,177.647h-6.1621v3.9648h6.1621zM240.723,187.735c2.2396,-0.8594 4.20573,-2.15823 5.8984,-3.8965l1.8164,1.2793c-1.9792,1.9792 -4.0202,3.4538 -6.123,4.4238zM257.637,189.3366c-1.82293,-1.44533 -3.84767,-2.7995 -6.0742,-4.0625l1.5137,-1.3574c2.28513,1.0026 4.34567,2.2298 6.1816,3.6816z" fill="#ffffff" stroke-width="1"/><path d="M305.84,184.3c-1.79687,0.944 -3.36263,1.66667 -4.6973,2.168l-0.82031,-2.1484c2.08987,-0.70313 3.92907,-1.4323 5.5176,-2.1875v-4.375h-4.834v-2.0606h4.834v-5.1953h2.1777v19.004h-2.1777zM312.7834,176.6926c1.51693,-0.79427 2.9883,-1.80337 4.4141,-3.0273l1.6211,1.6992c-1.92707,1.3672 -3.9388,2.53257 -6.0352,3.4961v7.3242c0,0.31901 0.10417,0.51433 0.3125,0.58594c0.22136,0.07161 0.73243,0.10742 1.5332,0.10742c1.05467,0 1.71547,-0.06185 1.9824,-0.18555c0.1888,-0.08463 0.31901,-0.3483 0.39062,-0.79101c0.09766,-0.61849 0.16928,-1.61783 0.21485,-2.998l2.1875,0.67383c-0.06513,1.6862 -0.1693,2.89713 -0.3125,3.6328c-0.16276,0.82033 -0.58919,1.35093 -1.2793,1.5918c-0.65755,0.22135 -1.73502,0.33203 -3.2324,0.33203c-1.7578,0 -2.86457,-0.14648 -3.3203,-0.43945c-0.4362,-0.28646 -0.6543,-0.83659 -0.6543,-1.6504v-16.543h2.1777z" fill="#ffffff" stroke-width="1"/><path d="M326.98,172.76h4.1797v1.8848h-1.377c-0.2474,0.99607 -0.57943,2.041 -0.9961,3.1348h2.6074v1.8848h-10.898v-1.8848h2.3926c-0.26042,-1.25 -0.53386,-2.29493 -0.82032,-3.1348h-1.2695v-1.8848h4.1406v-2.2559h2.041zM324.0406,174.6448c0.33203,0.97007 0.58919,2.015 0.77148,3.1348h1.9922l0.0977,-0.27344c0.27995,-0.7422 0.54036,-1.5853 0.78125,-2.5293l0.0879,-0.33203zM330.0953,181.305v7.998h-2.002v-0.95703h-4.2578v1.1621h-2.0605v-8.2031zM323.8355,183.1019v3.3887h4.2578v-3.3887zM336.8825,178.1703c0.77473,0.73567 1.38997,1.61133 1.8457,2.627c0.44922,1.0156 0.67383,2.04423 0.67383,3.0859c0,0.96353 -0.17904,1.67317 -0.53711,2.1289c-0.37109,0.47526 -0.98306,0.71289 -1.8359,0.71289c-0.7292,0 -1.43557,-0.05208 -2.1191,-0.15625l-0.47851,-2.0801c0.78773,0.14323 1.43877,0.21485 1.9531,0.21485c0.39063,0 0.63477,-0.09115 0.73242,-0.27344c0.06513,-0.13021 0.0977,-0.39062 0.0977,-0.78125c0,-1.60807 -0.48177,-2.9948 -1.4453,-4.1602c-0.25391,-0.30599 -0.57292,-0.63476 -0.95704,-0.98633l0.11719,-0.27343c0.67707,-1.52993 1.2044,-3.125 1.582,-4.7852h-2.5v16.064h-2.0215v-18.086h5.8789l1.084,0.99609c-0.65755,2.2396 -1.34765,4.15693 -2.0703,5.752z" fill="#ffffff" stroke-width="1"/><path d="M280.19066,181.96153h19.44375v2.10027h-19.44375v-2.10027M284.49947,174.72967h10.78284v1.9054h-10.78284v-1.9054M284.52112,178.32395h10.80449v1.88375h-10.80449v-1.88375M283.54677,171.04878h13.22955v11.86545h-2.33845v-9.91674h-8.63926v9.91674h-2.25184v-11.86545M292.12107,184.88459l1.97036,-0.86609c0.6207,0.49078 1.26016,1.04652 1.91839,1.66722c0.65535,0.6207 1.26882,1.22985 1.84044,1.82746c0.56874,0.60049 1.04075,1.13169 1.41606,1.5936l-2.03532,1.06097c-0.36087,-0.49078 -0.82567,-1.05086 -1.39441,-1.68022c-0.57162,-0.62647 -1.18221,-1.25727 -1.83178,-1.89241c-0.64957,-0.63513 -1.27748,-1.20531 -1.88375,-1.71053M282.11771,189.71305c-0.0433,-0.17322 -0.10826,-0.38975 -0.19487,-0.64957c-0.08661,-0.25983 -0.17322,-0.5312 -0.25983,-0.81412c-0.08661,-0.28003 -0.18043,-0.5211 -0.28148,-0.72319c0.24539,-0.05774 0.49079,-0.1559 0.73618,-0.29447c0.24539,-0.13569 0.51244,-0.31901 0.80114,-0.54997c0.21652,-0.14435 0.53842,-0.40418 0.96569,-0.77948c0.42438,-0.3753 0.8964,-0.83 1.41606,-1.36409c0.51966,-0.53409 0.99601,-1.09705 1.42905,-1.68888l2.38175,0.9094c-0.83722,0.93827 -1.72785,1.82889 -2.67189,2.67189c-0.94693,0.84589 -1.86066,1.55752 -2.74118,2.13492v0.04331c0,0 -0.07939,0.03609 -0.23818,0.10826c-0.15879,0.07217 -0.34211,0.16167 -0.54997,0.26849c-0.21075,0.1097 -0.39551,0.22951 -0.5543,0.35943c-0.15879,0.12992 -0.23818,0.25261 -0.23818,0.36809M282.11771,189.71305l-0.02165,-1.60227l1.38574,-0.75783l12.53668,-0.498c0.0433,0.28869 0.10826,0.60915 0.19487,0.96136c0.08661,0.3551 0.15157,0.64091 0.19487,0.85743c-1.99201,0.10104 -3.70976,0.19054 -5.15324,0.26849c-1.44349,0.08084 -2.66323,0.15012 -3.65924,0.20786c-0.99601,0.05774 -1.81446,0.10826 -2.45537,0.15157c-0.6438,0.04331 -1.15623,0.08228 -1.53731,0.11692c-0.38396,0.03753 -0.6871,0.07794 -0.9094,0.12125c-0.22519,0.04331 -0.41717,0.10105 -0.57595,0.17322z" fill="#ffffff" stroke-width="1"/><path d="M264.57702,176.38361h14.15528v2.0715h-14.15528v-2.0715M264.01599,185.20908h15.49312v2.11466h-15.49312v-2.11466M271.37414,179.25351h2.28729v10.96171h-2.28729v-10.96171M265.85013,183.56914c-0.02877,-0.15824 -0.09063,-0.37114 -0.18557,-0.63871c-0.09207,-0.26469 -0.18845,-0.54089 -0.28915,-0.8286c-0.1007,-0.28771 -0.2014,-0.53226 -0.30209,-0.73366c0.21578,-0.05754 0.42437,-0.1942 0.62577,-0.40999c0.2014,-0.21578 0.40999,-0.4963 0.62577,-0.84155c0.11508,-0.17263 0.27764,-0.45027 0.48767,-0.83292c0.20715,-0.37978 0.44451,-0.83579 0.71208,-1.36806c0.26469,-0.53226 0.51932,-1.1048 0.76387,-1.71762c0.24455,-0.60994 0.46033,-1.2242 0.64735,-1.84278l2.41675,0.77681c-0.34525,0.86313 -0.74373,1.72913 -1.19543,2.59801c-0.45458,0.87176 -0.92642,1.69892 -1.41553,2.48149c-0.48911,0.78545 -0.97102,1.49465 -1.44574,2.12761v0.04316c0,0 -0.07193,0.03884 -0.21578,0.11652c-0.14386,0.08056 -0.31216,0.18557 -0.50493,0.31504c-0.19564,0.12947 -0.36539,0.26181 -0.50924,0.39704c-0.14386,0.1381 -0.21578,0.2575 -0.21578,0.3582M265.85013,183.56914v-1.72625l1.1868,-0.64735h11.02644v2.0715h-10.077c-0.51788,0 -0.97821,0.02445 -1.381,0.07337c-0.40279,0.05179 -0.65454,0.12803 -0.75524,0.22873M262.44078,172.15429h17.08991v2.15782h-17.08991v-2.15782M261.31871,172.15429h2.28729v6.1282c0,0.86313 -0.02445,1.81544 -0.07337,2.85695c-0.05179,1.04438 -0.1568,2.1161 -0.31504,3.21515c-0.15824,1.10193 -0.38409,2.16357 -0.67755,3.18494c-0.29634,1.02137 -0.69626,1.94923 -1.19975,2.78358c-0.12947,-0.14386 -0.31648,-0.30209 -0.56103,-0.47472c-0.24455,-0.17263 -0.49342,-0.33806 -0.7466,-0.4963c-0.25031,-0.15824 -0.46896,-0.27332 -0.65598,-0.34525c0.44595,-0.77681 0.79839,-1.61836 1.05733,-2.52465c0.25894,-0.90628 0.45314,-1.84134 0.58261,-2.80516c0.12947,-0.96383 0.21291,-1.91039 0.25031,-2.83969c0.03453,-0.92642 0.05179,-1.77804 0.05179,-2.55486v-6.1282M268.8495,170.53593l2.33044,-0.51788c0.24455,0.38841 0.47472,0.83004 0.6905,1.3249c0.21578,0.49774 0.36683,0.93362 0.45314,1.30764l-2.43833,0.60419c-0.05754,-0.35964 -0.1827,-0.79839 -0.37546,-1.31627c-0.19564,-0.51788 -0.41574,-0.9854 -0.66029,-1.40258z" fill="#ffffff" stroke-width="1"/></g></g></svg>