<svg version="1.1" xmlns="http://www.w3.org/2000/svg" xmlns:xlink="http://www.w3.org/1999/xlink" width="208" height="32" viewBox="0,0,208,32"><g transform="translate(-240,-164)"><g stroke-miterlimit="10"><path d="M339.50756,172.24173v1.51255h-8.02147v2.13035h6.8122v10.86477c0,0.65331 -0.07054,1.15394 -0.21162,1.50189c-0.14108,0.34796 -0.3695,0.5894 -0.68525,0.72432c-0.31575,0.13492 -0.76923,0.20238 -1.36043,0.20238h-2.479l-0.28216,-1.49124h2.19683c0.38965,0 0.67182,-0.03196 0.84649,-0.09587c0.17467,-0.06391 0.29224,-0.18463 0.3527,-0.36216c0.06046,-0.17753 0.0907,-0.45802 0.0907,-0.84149v-9.03267h-12.21359v11.84473h-1.47127v-13.31467h6.85251v-2.13035h-8.10209v-1.51255h8.10209v-2.32208h1.55189v2.32208zM318.18415,179.421v1.57646h-6.26803v5.62412c0,0.93735 -0.20826,1.59421 -0.62479,1.97057c-0.41652,0.37636 -1.10178,0.56454 -2.05575,0.56454h-2.17668l-0.26201,-1.68297h2.05575c0.41652,0 0.72556,-0.03196 0.9271,-0.09587c0.20154,-0.06391 0.33927,-0.18463 0.41317,-0.36216c0.0739,-0.17753 0.11085,-0.45092 0.11085,-0.82018v-5.19805h-6.8122v-1.59776c0.72556,-1.15039 1.62579,-2.81206 2.7007,-4.98501h-4.17197v-1.59776h4.95799c0.53745,-1.15039 0.98085,-2.17295 1.33019,-3.0677l1.53174,0.6391c-0.21498,0.6107 -0.55761,1.42023 -1.02788,2.4286h10.2183v1.59776h-10.98417c-1.15552,2.37179 -2.04232,4.04056 -2.66039,5.00632h4.91768v-3.72811h1.61236v3.72811zM265.52058,173.34951v5.90106h12.919l-0.30232,7.05145c-0.08062,1.07938 -0.3527,1.83565 -0.81626,2.26882c-0.46355,0.43317 -1.21263,0.64976 -2.24722,0.64976h-2.31776l-0.28216,-1.51255h1.97514c0.53745,0 0.95398,-0.06391 1.24958,-0.19173c0.2956,-0.12782 0.50722,-0.32665 0.63487,-0.5965c0.12765,-0.26984 0.21162,-0.64621 0.25193,-1.12908c0.04031,-0.6391 0.08398,-1.48414 0.131,-2.53511c0.04703,-1.05097 0.08398,-1.89601 0.11085,-2.53511h-12.83838v-8.84094h3.90996l0.26201,-0.68171l0.52402,-1.44864l1.57205,0.19173l-0.26201,0.74562c-0.1478,0.45447 -0.28216,0.85214 -0.40309,1.19299h6.95328c-0.12093,2.21556 -0.19483,3.45826 -0.2217,3.72811c-0.06718,0.68171 -0.19147,1.21075 -0.37286,1.58711c-0.18139,0.37636 -0.45683,0.64621 -0.82633,0.80953c-0.3695,0.16333 -0.88344,0.24499 -1.54182,0.24499h-1.73328l-0.28216,-1.36342h1.57205c0.60463,0 1.02116,-0.10297 1.24958,-0.3089c0.22842,-0.20593 0.36278,-0.55744 0.40309,-1.05452l0.10077,-1.06517c0.04031,-0.42607 0.06718,-0.79533 0.08062,-1.10778zM299.38005,183.46866h-10.01676c-1.02116,1.19299 -2.27073,2.4286 -3.74873,3.7068l9.04935,-0.36216l-2.21699,-2.21556l0.98757,-1.04387c0.57776,0.55389 1.13201,1.09358 1.66274,1.61906c0.53073,0.52549 0.99765,0.98706 1.40073,1.38473c1.45112,1.44864 2.04904,2.03803 1.79375,1.76819l-1.04803,1.2143c-0.22842,-0.25564 -0.64494,-0.70301 -1.24958,-1.34212l-12.45545,0.57519l-0.38293,-1.51255c1.58548,-1.19299 2.97614,-2.457 4.17197,-3.79202h-5.78433v-1.44864h2.66039v-11.07781h12.45545v11.07781h2.72085zM359.4403,172.94475l-1.67282,5.43239c0.71212,0.97996 1.20927,1.84985 1.49143,2.60968c0.28216,0.75982 0.42324,1.56581 0.42324,2.41794c0,1.2072 -0.24185,2.06644 -0.72556,2.57772c-0.48371,0.51128 -1.2966,0.76693 -2.43869,0.76693h-1.1488l-0.30232,-1.51255h1.04803c0.79274,0 1.34699,-0.15267 1.66274,-0.45802c0.31575,-0.30535 0.47363,-0.84859 0.47363,-1.62972c0,-0.68171 -0.15788,-1.37762 -0.47363,-2.08774c-0.31575,-0.71012 -0.81626,-1.49834 -1.50151,-2.36469l1.63251,-5.77324h-3.38595v16.63801h-1.43097v-18.21447h6.34865zM251.49309,169.77053l1.24958,2.93988h6.24788v1.57646h-13.82595v3.62159c0,1.90311 -0.06382,3.46536 -0.19147,4.68676c-0.12765,1.2214 -0.35942,2.36114 -0.69533,3.41921c-0.33591,1.05807 -0.83305,2.22621 -1.49143,3.50442l-1.53174,-0.87344c0.64494,-1.19299 1.12865,-2.27237 1.45112,-3.23813c0.32247,-0.96576 0.54081,-1.99543 0.65502,-3.089c0.11421,-1.09358 0.17131,-2.49961 0.17131,-4.21809v-5.38978h7.29591l-1.08834,-2.57772zM335.96037,183.74561v1.27821h-4.49444v3.77071h-1.51158v-3.77071h-4.61537v-1.27821h4.61537v-1.95992h-4.17197v-1.27821h2.741c-0.63151,-0.89475 -1.16896,-1.61196 -1.61236,-2.15165l1.1488,-0.68171c-0.04031,-0.05681 0.23513,0.30535 0.82633,1.08648l0.94726,1.2569l-0.84649,0.48998h2.27745c0.67182,-0.92315 1.28317,-1.87471 1.83405,-2.85467l1.28988,0.66041c-0.26873,0.46868 -0.76587,1.2001 -1.49143,2.19426h2.62008v1.27821h-4.05104v1.95992zM272.4134,185.5138v-3.19552h1.47127v4.64416h-11.22603v-4.64416h1.47127v3.19552h3.36579v-3.91984h1.57205v3.91984zM351.51961,173.94601h-1.51158c-0.16124,1.32082 -0.3695,2.56352 -0.62479,3.72811h2.72085v1.53385h-10.09738v-1.53385h2.57977c-0.25529,-1.61906 -0.49043,-2.86177 -0.70541,-3.72811h-1.3705v-1.51255h3.93012c-0.17467,-0.75272 -0.37622,-1.44864 -0.60463,-2.08774l1.49143,-0.38346c0.26873,0.85214 0.49714,1.67587 0.68525,2.4712h3.50687zM344.58648,187.75066v1.42733h-1.41081v-8.03141h7.699v6.60408zM295.20808,182.02003v-2.34338h-9.53305v2.34338zM285.67503,176.03375v2.25817h9.53305v-2.25817zM285.67503,174.69163h9.53305v-2.23686h-9.53305zM306.19226,182.12655l1.22942,1.10778c-0.64494,0.96576 -1.40073,1.95992 -2.26738,2.98249c-0.86664,1.02257 -1.70977,1.88891 -2.52938,2.59902l-1.04803,-1.38473c0.79274,-0.6249 1.60228,-1.42023 2.42861,-2.38599c0.82633,-0.96576 1.55525,-1.93862 2.18676,-2.91858zM313.4277,183.36215l1.08834,-1.19299c0.63151,0.6107 1.43768,1.43088 2.41853,2.46055c0.98085,1.02967 1.84077,1.94217 2.57977,2.7375l-1.12865,1.27821c-0.67182,-0.79533 -1.49815,-1.71848 -2.479,-2.76945c-0.98085,-1.05097 -1.80718,-1.88891 -2.479,-2.51381zM344.58648,186.30203h4.87738v-3.64289h-4.87738zM348.63752,173.94601h-3.32548c0.34934,1.76109 0.58448,3.00379 0.70541,3.72811h1.99529c0.24185,-1.10778 0.45012,-2.35048 0.62479,-3.72811zM271.12352,176.54504l-0.9271,1.17169c-1.50486,-1.26401 -2.57977,-2.13745 -3.22471,-2.62033l0.8868,-1.17169c0.57776,0.44027 1.6661,1.31371 3.26502,2.62033z" fill="#ffffff" fill-rule="evenodd" stroke="#ffffff" stroke-width="0.5" stroke-linecap="round"/><path d="M240,196v-32h208v32z" fill="none" fill-rule="nonzero" stroke="none" stroke-width="0" stroke-linecap="butt"/></g></g></svg>