<svg version="1.1" xmlns="http://www.w3.org/2000/svg" xmlns:xlink="http://www.w3.org/1999/xlink" width="138.62074" height="20.16765" viewBox="0,0,138.62074,20.16765"><g transform="translate(-240.1717,-170.59593)"><g fill="#ffffff" stroke="none" stroke-miterlimit="10"><path d="M242.82127,180.38003h11.08002v1.66993h-8.93227v8.71362h-2.14776v-10.38356M253.25898,180.38003h2.16783v8.09275c0,0.57092 -0.0736,0.99482 -0.2208,1.27172c-0.1472,0.27975 -0.41483,0.49813 -0.8029,0.65513c-0.38807,0.14273 -0.88051,0.22409 -1.47734,0.24407c-0.59415,0.02284 -1.29936,0.03426 -2.11564,0.03426c-0.05353,-0.27119 -0.14452,-0.57805 -0.27299,-0.9206c-0.12579,-0.34255 -0.25559,-0.64942 -0.38941,-0.9206c0.34792,0.01427 0.70521,0.02426 1.07187,0.02997c0.36933,0.00856 0.69852,0.01285 0.98757,0.01285c0.28637,0 0.48308,0 0.59013,0c0.17396,-0.01427 0.2944,-0.04995 0.36131,-0.10705c0.06691,-0.05709 0.10036,-0.16414 0.10036,-0.32114v-8.07134M244.16613,183.16325h9.71509v1.52007h-9.71509v-1.52007M240.1717,177.57539h17.78424v1.73416h-17.78424v-1.73416M241.4162,171.92331h15.49598v1.75557h-15.49598v-1.75557M242.15888,174.77076h13.89018v1.64852h-13.89018v-1.64852M244.16613,185.83942h9.75524v1.52007h-9.75524v-1.52007M247.89962,170.7458h2.20798v7.9857h-2.20798zM261.14747,172.97237h16.09815v2.03389h-16.09815v-2.03389M260.04348,181.98573h8.20966v1.99107h-8.20966v-1.99107M268.93561,181.98573h9.35379v1.99107h-9.35379v-1.99107M267.95205,170.70298h2.16783v9.61282h-2.16783v-9.61282M263.51603,179.58788h2.02732v11.15429h-2.02732v-11.15429M272.20742,179.58788h2.0474v11.15429h-2.0474v-11.15429M267.28966,173.40056l1.76638,0.72792c-0.54865,0.89919 -1.21506,1.7413 -1.99922,2.52631c-0.78149,0.78501 -1.64059,1.4801 -2.57731,2.08528c-0.93672,0.60803 -1.9002,1.11186 -2.89044,1.5115c-0.13382,-0.27119 -0.33053,-0.58234 -0.59013,-0.93345c-0.26228,-0.34826 -0.50717,-0.62944 -0.73465,-0.84353c0.9501,-0.29973 1.87343,-0.70651 2.77001,-1.22034c0.89657,-0.51383 1.71285,-1.1033 2.44885,-1.76842c0.73599,-0.66226 1.33817,-1.35736 1.80653,-2.08528M270.6217,173.40056c0.5085,0.71365 1.15752,1.38733 1.94703,2.02105c0.78952,0.63657 1.662,1.20035 2.61746,1.69134c0.95813,0.49384 1.939,0.8835 2.94263,1.16895c-0.1472,0.157 -0.31046,0.3454 -0.48977,0.56521c-0.18199,0.22266 -0.34926,0.45103 -0.50181,0.6851c-0.15523,0.23693 -0.28637,0.45531 -0.39342,0.65513c-1.01701,-0.38537 -2.00725,-0.88207 -2.97073,-1.49009c-0.96348,-0.60517 -1.85336,-1.30026 -2.66964,-2.08528c-0.81628,-0.78501 -1.51213,-1.62711 -2.08754,-2.52631l1.6058,-0.6851M271.80597,182.41392l1.56566,0.47101c-0.32116,0.95629 -0.71993,1.87974 -1.19632,2.77038c-0.47371,0.89348 -1.00095,1.70419 -1.58171,2.43211c-0.58344,0.72792 -1.21639,1.32738 -1.89886,1.79839c-0.16058,-0.25691 -0.368,-0.54951 -0.62225,-0.87779c-0.25425,-0.32828 -0.48843,-0.58519 -0.70254,-0.77074c0.62894,-0.38537 1.23111,-0.88492 1.80653,-1.49866c0.57541,-0.61374 1.08793,-1.28885 1.53755,-2.02533c0.44695,-0.73363 0.81093,-1.50009 1.09194,-2.29937M274.53583,182.64942c0.32116,0.6851 0.70923,1.36592 1.16421,2.04246c0.45498,0.67939 0.95278,1.30455 1.49339,1.87546c0.5433,0.57092 1.08258,1.04906 1.61784,1.43443c-0.22749,0.21409 -0.49111,0.49527 -0.79086,0.84353c-0.30243,0.35111 -0.54062,0.67654 -0.71458,0.97627c-0.53527,-0.48528 -1.05715,-1.08903 -1.56566,-1.81123c-0.5085,-0.71936 -0.98355,-1.50009 -1.42515,-2.34219c-0.4416,-0.8421 -0.80959,-1.69134 -1.10399,-2.54772l1.32479,-0.47101M263.39559,182.58519l1.44522,0.57805c-0.30778,0.85638 -0.67979,1.70562 -1.11603,2.54772c-0.43357,0.8421 -0.91798,1.60856 -1.45325,2.29937c-0.53527,0.69366 -1.11737,1.26173 -1.74631,1.70419c-0.09367,-0.31401 -0.23418,-0.67511 -0.42152,-1.08332c-0.18734,-0.40535 -0.36131,-0.75789 -0.52189,-1.05762c0.53527,-0.35682 1.04645,-0.79928 1.53354,-1.32738c0.48977,-0.5281 0.92869,-1.11043 1.31676,-1.74701c0.38807,-0.63372 0.70923,-1.27172 0.96348,-1.914M265.26234,184.16949c0.1472,0.08564 0.36532,0.22837 0.65436,0.42819c0.28637,0.19982 0.59013,0.41391 0.91129,0.64228c0.32116,0.22837 0.61957,0.44246 0.89523,0.64228c0.27299,0.19982 0.46301,0.34969 0.57006,0.4496l-1.2445,1.69134c-0.16058,-0.18555 -0.36532,-0.41106 -0.61422,-0.67654c-0.24622,-0.26262 -0.51386,-0.53381 -0.8029,-0.81356c-0.28637,-0.27689 -0.56337,-0.54094 -0.831,-0.79215c-0.26763,-0.24835 -0.49512,-0.45103 -0.68247,-0.60803zM280.19628,182.54237h18.02511v2.07671h-18.02511v-2.07671M284.19071,175.39164h9.99611v1.88403h-9.99611v-1.88403M284.21078,178.9456h10.01618v1.86262h-10.01618v-1.86262M283.30752,171.75204h12.2643v11.73235h-2.16783v-9.8055h-8.00893v9.8055h-2.08754v-11.73235M291.25623,185.43264l1.8266,-0.85638c0.57541,0.48528 1.16822,1.03479 1.77842,1.64852c0.60753,0.61374 1.17625,1.21605 1.70616,1.80695c0.52724,0.59375 0.96482,1.119 1.31274,1.57573l-1.88682,1.04906c-0.33454,-0.48528 -0.76543,-1.03907 -1.29267,-1.66137c-0.52991,-0.61944 -1.09596,-1.24317 -1.69813,-1.87118c-0.60218,-0.62801 -1.18428,-1.19179 -1.74631,-1.69134M281.98274,190.20694c-0.04015,-0.17128 -0.10036,-0.38537 -0.18065,-0.64228c-0.08029,-0.25691 -0.16058,-0.52524 -0.24087,-0.80499c-0.08029,-0.27689 -0.16727,-0.51525 -0.26094,-0.71507c0.22749,-0.05709 0.45498,-0.15415 0.68247,-0.29117c0.22749,-0.13417 0.47505,-0.31543 0.74268,-0.5438c0.20073,-0.14273 0.49914,-0.39964 0.89523,-0.77074c0.39342,-0.3711 0.831,-0.82069 1.31274,-1.34879c0.48174,-0.5281 0.92334,-1.08474 1.32479,-1.66993l2.20798,0.89919c-0.77614,0.92774 -1.60179,1.80838 -2.47695,2.64192c-0.87784,0.83639 -1.7249,1.54005 -2.54118,2.11097v0.04282c0,0 -0.0736,0.03568 -0.2208,0.10705c-0.1472,0.07136 -0.31715,0.15986 -0.50984,0.26548c-0.19537,0.10847 -0.36666,0.22694 -0.51386,0.3554c-0.1472,0.12846 -0.2208,0.24978 -0.2208,0.36396M281.98274,190.20694l-0.02007,-1.5843l1.28464,-0.74933l11.62198,-0.49242c0.04015,0.28546 0.10036,0.60232 0.18065,0.95058c0.08029,0.35111 0.14051,0.63372 0.18065,0.84781c-1.84667,0.09991 -3.43909,0.1884 -4.77726,0.26548c-1.33817,0.07993 -2.46892,0.14844 -3.39225,0.20553c-0.92334,0.05709 -1.68208,0.10705 -2.27622,0.14987c-0.59682,0.04282 -1.07187,0.08136 -1.42515,0.11561c-0.35595,0.03711 -0.63697,0.07707 -0.84305,0.11989c-0.20875,0.04282 -0.38673,0.09991 -0.53393,0.17128zM306.33069,172.86533h10.91944v8.37107h-11.01981v-1.75557h8.99248v-4.85993h-8.89212v-1.75557M310.40541,170.7458h2.20798v19.97497h-2.20798v-19.97497M305.2267,176.03392h13.36829v1.96966h-13.36829v-1.96966M305.06612,185.77519h13.288v1.92685h-13.288v-1.92685M306.04967,182.52097h11.50155v1.84121h-11.50155v-1.84121M301.01147,172.71546l1.28464,-1.6057c0.37469,0.24264 0.78015,0.52382 1.21639,0.84353c0.43357,0.32257 0.85776,0.63657 1.2726,0.94201c0.41483,0.3083 0.74937,0.58376 1.00363,0.8264l-1.34486,1.8198c-0.25425,-0.25691 -0.57809,-0.54951 -0.97151,-0.87779c-0.3961,-0.32828 -0.81494,-0.66797 -1.25654,-1.01909c-0.4416,-0.34826 -0.84305,-0.65798 -1.20435,-0.92917M299.80712,178.21768l1.22442,-1.62711c0.36131,0.24264 0.76276,0.51668 1.20435,0.82212c0.4416,0.3083 0.86981,0.61231 1.28464,0.91204c0.41483,0.29973 0.76276,0.56378 1.04377,0.79215l-1.28464,1.8198c-0.25425,-0.24264 -0.5821,-0.52096 -0.98355,-0.83497c-0.40145,-0.31401 -0.82297,-0.63943 -1.26457,-0.97627c-0.4416,-0.33399 -0.84974,-0.63657 -1.22442,-0.90776M300.34908,188.83674c0.32116,-0.54237 0.66908,-1.18465 1.04377,-1.92685c0.37469,-0.74219 0.75339,-1.53148 1.1361,-2.36788c0.38004,-0.83354 0.73733,-1.65709 1.07187,-2.47064l1.66602,1.45584c-0.2944,0.74219 -0.60887,1.50151 -0.94341,2.27796c-0.33454,0.7793 -0.67979,1.55004 -1.03574,2.31221c-0.35328,0.76503 -0.70388,1.49009 -1.0518,2.17519zM320.18072,173.12224h7.68777v2.16235h-7.68777v-2.16235M324.01457,176.59056h1.96711v14.04456h-1.96711v-14.04456M319.93985,185.02586c0.66908,-0.09991 1.42916,-0.21409 2.28024,-0.34255c0.8484,-0.12846 1.75166,-0.27547 2.70979,-0.44103c0.95545,-0.16271 1.91492,-0.3297 2.8784,-0.50098l0.10036,1.99107c-1.32479,0.27119 -2.64556,0.53809 -3.96231,0.80071c-1.31943,0.26548 -2.50772,0.50526 -3.56488,0.71936l-0.4416,-2.22658M320.82304,182.11419c-0.02676,-0.14273 -0.07628,-0.33541 -0.14854,-0.57805c-0.07494,-0.24264 -0.15523,-0.48956 -0.24087,-0.74077c-0.08832,-0.24835 -0.17262,-0.4653 -0.25291,-0.65085c0.20073,-0.05709 0.3787,-0.2355 0.53393,-0.53523c0.15255,-0.29973 0.31581,-0.6851 0.48977,-1.15611c0.08029,-0.22837 0.19671,-0.6066 0.34926,-1.1347c0.15523,-0.5281 0.3225,-1.14897 0.50181,-1.86262c0.18199,-0.71365 0.35729,-1.47725 0.5259,-2.29081c0.16593,-0.81356 0.29573,-1.61998 0.38941,-2.41926l2.06747,0.40678c-0.20073,1.15611 -0.45899,2.32221 -0.7748,3.4983c-0.31313,1.17894 -0.65035,2.29937 -1.01165,3.36128c-0.36131,1.06476 -0.7293,2.02533 -1.10399,2.8817v0.06423c0,0 -0.06691,0.03854 -0.20073,0.11561c-0.13382,0.07993 -0.28771,0.17984 -0.46167,0.29973c-0.17396,0.12275 -0.32785,0.2512 -0.46167,0.38537c-0.13382,0.13702 -0.20073,0.25548 -0.20073,0.3554M320.82304,182.11419v-1.84121l0.98355,-0.55664h5.88124v2.07671h-5.31921c-0.33454,0 -0.65169,0.02855 -0.95144,0.08564c-0.30243,0.05709 -0.50047,0.13559 -0.59415,0.2355M328.65132,171.83768h7.4469v2.07671h-7.4469v-2.07671M335.4559,171.83768h0.42152l0.40145,-0.10705l1.50544,0.81356c-0.41483,1.04192 -0.93672,2.00535 -1.56566,2.89027c-0.62894,0.88492 -1.33817,1.68706 -2.12769,2.40642c-0.78952,0.72221 -1.62855,1.36877 -2.51709,1.93969c-0.89122,0.57092 -1.81188,1.0562 -2.76198,1.45584c-0.08029,-0.18555 -0.19671,-0.39679 -0.34926,-0.63372c-0.15523,-0.23408 -0.31581,-0.4653 -0.48174,-0.69366c-0.16861,-0.22837 -0.3332,-0.42105 -0.49378,-0.57805c0.84305,-0.32828 1.67271,-0.7322 2.48899,-1.21177c0.81628,-0.47672 1.58305,-1.02194 2.30031,-1.63568c0.71458,-0.61374 1.34352,-1.28171 1.88682,-2.00392c0.54062,-0.71936 0.97151,-1.47154 1.29267,-2.25655v-0.38537M327.62762,188.08741h10.93952v2.14094h-10.93952v-2.14094M332.164,183.0562h2.16783v5.73772h-2.16783v-5.73772M328.67139,181.686h9.03263v2.09812h-9.03263v-2.09812M331.8027,177.93935l1.20435,-1.5843c0.60218,0.27119 1.25119,0.58519 1.94703,0.94201c0.69585,0.35682 1.36493,0.72078 2.00725,1.09188c0.64232,0.3711 1.1709,0.71365 1.58573,1.02765l-1.28464,1.8198c-0.38807,-0.31401 -0.89657,-0.67083 -1.52551,-1.07047c-0.62894,-0.39964 -1.28732,-0.79643 -1.97513,-1.19036c-0.69049,-0.39108 -1.34352,-0.73648 -1.95908,-1.03621zM340.55431,175.92687h5.94146v2.29081h-5.94146v-2.29081M350.42999,171.13117h2.24812v15.56463c0,0.58519 0.05353,0.95629 0.16058,1.11329c0.10705,0.157 0.35461,0.2355 0.74268,0.2355c0.08029,0 0.22749,0 0.4416,0c0.21411,0 0.44829,0 0.70254,0c0.25425,0 0.48843,0 0.70254,0c0.21411,0 0.37469,0 0.48174,0c0.26763,0 0.47104,-0.12132 0.6102,-0.36396c0.14185,-0.24264 0.24622,-0.68225 0.31313,-1.31882c0.06691,-0.63372 0.12044,-1.52863 0.16058,-2.68474c0.18734,0.14273 0.40145,0.28546 0.64232,0.42819c0.24087,0.14273 0.48843,0.2669 0.74268,0.37252c0.25425,0.10847 0.48174,0.19126 0.68247,0.24835c-0.06691,1.34166 -0.19403,2.42212 -0.38138,3.24138c-0.18734,0.82212 -0.47906,1.41873 -0.87516,1.78983c-0.39342,0.3711 -0.95813,0.55664 -1.69412,0.55664c-0.10705,0 -0.2944,0 -0.56203,0c-0.26763,0 -0.55802,0 -0.87115,0c-0.31581,0 -0.60084,0 -0.85509,0c-0.25425,0 -0.4416,0 -0.56203,0c-0.72261,0 -1.28732,-0.11133 -1.69412,-0.33399c-0.40948,-0.2198 -0.7012,-0.59375 -0.87516,-1.12185c-0.17396,-0.5281 -0.26094,-1.26315 -0.26094,-2.20517v-15.52181M345.43193,171.10976h2.24812v19.41832h-2.24812v-19.41832M357.05391,174.34258l1.54558,2.0553c-0.66908,0.49955 -1.385,0.99911 -2.14776,1.49866c-0.76276,0.49955 -1.54291,0.98483 -2.34045,1.45584c-0.79487,0.47101 -1.57368,0.91347 -2.33644,1.32738c-0.08029,-0.25691 -0.20742,-0.56093 -0.38138,-0.91204c-0.17396,-0.34826 -0.34123,-0.64371 -0.50181,-0.88635c0.73599,-0.41391 1.47466,-0.88207 2.216,-1.40446c0.74402,-0.51954 1.45726,-1.05049 2.13973,-1.59286c0.68247,-0.54237 1.28464,-1.0562 1.80653,-1.54148M339.87185,185.71096c0.54865,-0.18555 1.1816,-0.41106 1.89886,-0.67654c0.71458,-0.26262 1.47332,-0.54808 2.27622,-0.85638c0.8029,-0.30544 1.59911,-0.61516 2.38863,-0.92917l0.40145,2.07671c-1.01701,0.48528 -2.05007,0.96342 -3.0992,1.43443c-1.0518,0.47101 -2.01929,0.89919 -2.90248,1.28456zM371.78714,171.79486h5.23892v2.07671h-3.33204v16.78497h-1.90689v-18.86168M376.58446,171.79486h0.40145l0.32116,-0.08564l1.48537,0.98483c-0.33454,1.02765 -0.70923,2.11525 -1.12406,3.26279c-0.41483,1.1504 -0.81628,2.1966 -1.20435,3.13862c0.82966,0.98483 1.36761,1.90115 1.61383,2.74897c0.2489,0.85067 0.37335,1.63282 0.37335,2.34647c0,0.72792 -0.07628,1.34879 -0.22883,1.86262c-0.15523,0.51383 -0.41349,0.90633 -0.7748,1.17752c-0.17396,0.12846 -0.37469,0.23122 -0.60218,0.3083c-0.22749,0.07993 -0.46836,0.1413 -0.72261,0.18412c-0.22749,0.02855 -0.48174,0.04567 -0.76276,0.05138c-0.28102,0.00856 -0.56203,0.00571 -0.84305,-0.00856c-0.01338,-0.29973 -0.06022,-0.65656 -0.14051,-1.07047c-0.08029,-0.41391 -0.20742,-0.77074 -0.38138,-1.07047c0.25425,0.02855 0.48442,0.04567 0.69049,0.05138c0.20875,0.00856 0.40011,0.00571 0.57407,-0.00856c0.13382,0 0.26763,-0.01856 0.40145,-0.05566c0.13382,-0.03426 0.24756,-0.08707 0.34123,-0.15843c0.17396,-0.11418 0.29707,-0.30401 0.36933,-0.56949c0.07494,-0.26262 0.11241,-0.57948 0.11241,-0.95058c0,-0.61374 -0.14051,-1.30597 -0.42152,-2.07671c-0.28102,-0.77074 -0.82297,-1.59857 -1.62587,-2.48349c0.20073,-0.54237 0.40413,-1.12471 0.6102,-1.74701c0.20875,-0.61944 0.40948,-1.24745 0.60218,-1.88403c0.19537,-0.63372 0.37335,-1.2289 0.53393,-1.78554c0.16058,-0.55664 0.2944,-1.02765 0.40145,-1.41302v-0.74933M360.88776,173.16506h9.65488v2.0553h-9.65488v-2.0553M360.36588,178.92419h10.61836v2.07671h-10.61836v-2.07671M361.97168,175.69137l1.84667,-0.49242c0.28102,0.51383 0.53259,1.08046 0.75473,1.69991c0.21946,0.6223 0.37602,1.16182 0.4697,1.61855l-1.92696,0.57805c-0.08029,-0.47101 -0.22749,-1.0248 -0.4416,-1.66137c-0.21411,-0.63372 -0.44829,-1.21463 -0.70254,-1.74272M367.6522,175.13472l2.12769,0.49242c-0.18734,0.48528 -0.38138,0.9777 -0.5821,1.47725c-0.20073,0.49955 -0.39476,0.9777 -0.5821,1.43443c-0.18734,0.45673 -0.37469,0.86351 -0.56203,1.22034l-1.80653,-0.47101c0.17396,-0.38537 0.35194,-0.82069 0.53393,-1.30597c0.17931,-0.48528 0.34659,-0.9777 0.50181,-1.47725c0.15255,-0.49955 0.27566,-0.95629 0.36933,-1.3702M362.47349,187.68063h6.58378v2.01248h-6.58378v-2.01248M361.34943,182.67083h8.81183v7.87866h-2.12769v-5.82336h-4.65682v5.95181h-2.02732v-8.00711M364.09936,171.17399l1.94703,-0.57805c0.21411,0.45673 0.42554,0.95629 0.63429,1.49866c0.20608,0.54237 0.35595,1.00624 0.44962,1.39161l-2.06747,0.6851c-0.08029,-0.38537 -0.21009,-0.86066 -0.38941,-1.42587c-0.18199,-0.56235 -0.37335,-1.08617 -0.57407,-1.57145z"/></g></g></svg>