<svg version="1.1" xmlns="http://www.w3.org/2000/svg" xmlns:xlink="http://www.w3.org/1999/xlink" width="208" height="32" viewBox="0,0,208,32"><g transform="translate(-240,-164)"><g stroke-miterlimit="10"><path d="M240,196v-32h208v32z" fill="none" fill-rule="nonzero" stroke="none" stroke-width="0" stroke-linecap="butt"/><path d="M250.3907,186.22097h5.21917v-12.30755h1.5172v15.22904h-1.5172v-1.30535h-13.5739v-13.92369h1.55766v12.30755h5.21917v-15.62271h1.57789zM317.85559,179.52848v1.53326h-6.29133v5.47002c0,0.91167 -0.20904,1.55053 -0.62711,1.91658c-0.41807,0.36605 -1.10587,0.54907 -2.06339,0.54907h-2.18477l-0.26298,-1.63686h2.06339c0.41807,0 0.72826,-0.03108 0.93055,-0.09324c0.20229,-0.06216 0.34053,-0.17957 0.4147,-0.35224c0.07417,-0.17267 0.11126,-0.43857 0.11126,-0.79771v-5.05563h-6.83752v-1.55398c0.72826,-1.11887 1.63183,-2.73501 2.71073,-4.84843h-4.18748v-1.55398h4.97642c0.53945,-1.11887 0.98449,-2.11342 1.33514,-2.98365l1.53743,0.62159c-0.21578,0.59397 -0.55968,1.38132 -1.0317,2.36205h10.25628v1.55398h-11.025c-1.15982,2.3068 -2.04991,3.92985 -2.67027,4.86915h4.93596v-3.62596h1.61835v3.62596zM298.9816,183.46524h-10.05399c-1.02495,1.16031 -2.27917,2.36205 -3.76266,3.60524l9.08298,-0.35224l-2.22523,-2.15486l0.99124,-1.01527c0.57991,0.53871 1.13622,1.06362 1.66892,1.5747c0.53271,0.51109 1.00135,0.96002 1.40594,1.34679c1.45651,1.40895 2.05665,1.98219 1.80041,1.71974l-1.05193,1.18103c-0.22927,-0.24864 -0.64734,-0.68375 -1.25422,-1.30535l-12.50174,0.55943l-0.38436,-1.4711c1.59138,-1.16031 2.9872,-2.38968 4.18748,-3.68812h-5.80582v-1.40895h2.67027v-10.77429h12.50174v10.77429h2.73096zM339.03572,173.22967l-1.67904,5.28354c0.71477,0.95311 1.21376,1.79917 1.49697,2.53817c0.28321,0.73901 0.42482,1.5229 0.42482,2.35169c0,1.17412 -0.24275,2.00982 -0.72826,2.50709c-0.4855,0.49727 -1.30142,0.74591 -2.44775,0.74591h-1.15307l-0.30344,-1.4711h1.05193c0.79569,0 1.352,-0.14849 1.66892,-0.44548c0.31693,-0.29698 0.47539,-0.82534 0.47539,-1.58506c0,-0.66303 -0.15846,-1.33988 -0.47539,-2.03054c-0.31693,-0.69066 -0.81929,-1.45729 -1.50709,-2.2999l1.63858,-5.61506h-3.39853v16.18215h-1.43628v-17.71541h6.37225zM264.26803,188.99742h-1.63858v-16.61726h14.30215v16.51366h-1.61835v-1.84406h-11.04523zM331.08559,174.2035h-1.5172c-0.16183,1.28463 -0.37087,2.49328 -0.62711,3.62596h2.73096v1.49182h-10.13491v-1.49182h2.58936c-0.25624,-1.5747 -0.49225,-2.78336 -0.70803,-3.62596h-1.3756v-1.4711h3.94472c-0.17532,-0.7321 -0.37761,-1.40895 -0.60688,-2.03054l1.49697,-0.37296c0.26973,0.82879 0.49899,1.62996 0.6878,2.40349h3.51991zM275.31326,174.05846h-11.04523v11.27156h11.04523zM324.12669,187.62991v1.38823h-1.41605v-7.81136h7.72761v6.42313zM294.79413,182.05629v-2.27918h-9.56848v2.27918zM285.22564,176.23404v2.1963h9.56848v-2.1963zM285.22564,174.92869h9.56848v-2.17558h-9.56848zM305.81912,182.15989l1.23399,1.07743c-0.64734,0.9393 -1.40594,1.90622 -2.2758,2.90077c-0.86986,0.99455 -1.71612,1.83715 -2.53878,2.52781l-1.05193,-1.34679c0.79569,-0.60778 1.60823,-1.38132 2.43764,-2.32062c0.8294,-0.9393 1.56103,-1.8855 2.19488,-2.83861zM313.08146,183.36164l1.09239,-1.16031c0.63385,0.59397 1.44303,1.39168 2.42752,2.39313c0.98449,1.00146 1.84761,1.88895 2.58936,2.66249l-1.13284,1.24319c-0.67431,-0.77354 -1.50372,-1.6714 -2.48821,-2.69357c-0.98449,-1.02218 -1.8139,-1.83715 -2.48821,-2.44493zM324.12669,186.22097h4.8955v-3.54308h-4.8955zM328.19279,174.2035h-3.33784c0.35064,1.71283 0.58665,2.92149 0.70803,3.62596h2.00271c0.24275,-1.07743 0.45179,-2.28608 0.62711,-3.62596z" fill="#ffffff" fill-rule="evenodd" stroke="#ffffff" stroke-width="0.5" stroke-linecap="round"/></g></g></svg>