<svg version="1.1" xmlns="http://www.w3.org/2000/svg" xmlns:xlink="http://www.w3.org/1999/xlink" width="208.83709" height="32" viewBox="0,0,208.83709,32"><g transform="translate(-239.16291,-164)"><g stroke-miterlimit="10"><path d="M240,196v-32h208v32z" fill="none" fill-rule="nonzero" stroke="none" stroke-width="0" stroke-linecap="butt"/><path d="M330.78027,179.89879v3.33116h8.06385v1.5234h-8.06385v4.57019h-1.60464v-4.57019h-8.08416v-1.5234h8.08416v-3.33116h-6.43889v-1.50308h6.43889v-3.16867h-7.37324v-1.50308h7.37324v-2.96555h1.60464v2.96555h7.35293v1.50308h-7.35293v3.16867h6.41858v1.50308zM357.77485,183.59557l1.44215,0.32499c0,0.40624 -0.02708,1.05622 -0.08125,1.94995l-0.02031,0.67029c-0.04062,0.55519 -0.14895,0.98513 -0.32499,1.28981c-0.17604,0.30468 -0.4604,0.52134 -0.8531,0.64998c-0.3927,0.12864 -0.94789,0.19296 -1.66558,0.19296h-5.15924c-0.67707,0 -1.20856,-0.07109 -1.59449,-0.21328c-0.38593,-0.14218 -0.66691,-0.3927 -0.84295,-0.75154c-0.17604,-0.35884 -0.26406,-0.8768 -0.26406,-1.55386v-6.98731l-1.7062,0.58905l-0.38593,-1.44215l2.09213,-0.71092v-5.01705h1.44215v4.52957l2.51868,-0.87341v-5.4436h1.42184v4.97643l4.32645,-1.48277l-0.22343,7.25137c-0.04062,0.55519 -0.12187,0.97497 -0.24374,1.25934c-0.12187,0.28437 -0.33176,0.48749 -0.62967,0.60936c-0.29791,0.12187 -0.73123,0.18281 -1.29997,0.18281h-1.09685l-0.28437,-1.50308h0.73123c0.3927,0 0.68384,-0.03047 0.87341,-0.0914c0.18958,-0.06094 0.32161,-0.17265 0.39608,-0.33515c0.07448,-0.1625 0.11849,-0.41978 0.13203,-0.77185l0.18281,-4.54988l-2.86399,0.97497v8.04353h-1.42184v-7.55605l-2.51868,0.87341v6.86544c0,0.48749 0.03385,0.84633 0.10156,1.07653c0.06771,0.2302 0.2065,0.3927 0.4164,0.48749c0.20989,0.09479 0.53827,0.14218 0.98513,0.14218h4.34676c0.56873,0 0.98513,-0.03385 1.24919,-0.10156c0.26406,-0.06771 0.45025,-0.20312 0.55858,-0.40624c0.10833,-0.20312 0.17604,-0.52811 0.20312,-0.97497zM379.32584,175.14579h-10.84658l-0.14218,2.70149l-0.04062,0.62967h8.75445c-0.05416,0.88019 -0.12864,2.07859 -0.22343,3.59522c-0.09479,1.51663 -0.17604,2.71503 -0.24374,3.59522c-0.06771,0.81248 -0.22005,1.43199 -0.45702,1.85854c-0.23697,0.42655 -0.59582,0.72785 -1.07653,0.90388c-0.48072,0.17604 -1.1544,0.26406 -2.02104,0.26406h-3.20929l-0.32499,-1.5234h2.96555c0.67707,0 1.18825,-0.05755 1.53355,-0.17265c0.3453,-0.1151 0.59582,-0.31822 0.75154,-0.60936c0.15572,-0.29114 0.26067,-0.72107 0.31484,-1.28981l0.32499,-5.07799h-7.23106c-0.1625,1.35413 -0.43332,2.54915 -0.81248,3.58506c-0.37916,1.03591 -0.92419,2.02104 -1.63511,2.95539c-0.71092,0.93435 -1.64865,1.89578 -2.81321,2.8843l-1.19841,-1.29997c1.27288,-1.05622 2.25124,-2.05828 2.93508,-3.00617c0.68384,-0.94789 1.18486,-1.99396 1.50308,-3.1382c0.31822,-1.14424 0.5315,-2.59655 0.63983,-4.35691l0.14218,-2.49837h-4.97643v-1.54371h8.40915l-1.09685,-2.57962l1.66558,-0.42655c0.20312,0.41978 0.63644,1.42184 1.29997,3.00617h7.10918zM298.36238,183.57525h-10.09504c-1.02914,1.13747 -2.28848,2.31556 -3.77802,3.53428l9.12007,-0.3453l-2.23432,-2.11244l0.99529,-0.99529c0.58228,0.52811 1.14085,1.04268 1.67574,1.54371c0.53488,0.50103 1.00544,0.94112 1.41168,1.32028c1.46246,1.38121 2.06505,1.94318 1.80776,1.68589l-1.05622,1.15778c-0.2302,-0.24374 -0.64998,-0.67029 -1.25934,-1.27965l-12.55279,0.54842l-0.38593,-1.44215c1.59787,-1.13747 2.9994,-2.34265 4.20457,-3.61553h-5.82953v-1.38121h2.68118v-10.56222h12.55279v10.56222h2.74211zM261.354,189.14073v-17.24485h15.4574v14.21837c0,0.7854 -0.08802,1.37783 -0.26406,1.7773c-0.17604,0.39947 -0.46717,0.67368 -0.87341,0.82263c-0.40624,0.14895 -1.00206,0.22343 -1.78745,0.22343h-2.51868l-0.28437,-1.54371h2.33587c0.54165,0 0.93773,-0.04062 1.18825,-0.12187c0.25051,-0.08125 0.41978,-0.24036 0.5078,-0.47733c0.08802,-0.23697 0.13203,-0.61274 0.13203,-1.12731v-12.26842h-12.32936v15.74177zM317.35406,183.6565l1.38121,0.38593c0,0.36562 -0.03385,1.3609 -0.10156,2.98586c-0.05416,0.64998 -0.2302,1.10362 -0.52811,1.3609c-0.29791,0.25728 -0.79217,0.38593 -1.48277,0.38593h-0.64998c-0.59582,0 -1.03929,-0.13203 -1.33043,-0.39608c-0.29114,-0.26406 -0.43671,-0.74139 -0.43671,-1.43199v-7.75917h-4.46863v2.39681c0,1.39475 -0.06094,2.49837 -0.18281,3.31085c-0.12187,0.81248 -0.4164,1.60803 -0.88357,2.38665c-0.46717,0.77863 -1.21533,1.57418 -2.24447,2.38665l-1.17809,-0.97497c0.94789,-0.7854 1.62834,-1.48954 2.04135,-2.11244c0.41301,-0.6229 0.67707,-1.30335 0.79217,-2.04135c0.1151,-0.738 0.17265,-1.83823 0.17265,-3.30069v-3.55459h7.41386v8.81539c0,0.32499 0.04062,0.53488 0.12187,0.62967c0.08125,0.09479 0.25728,0.14218 0.52811,0.14218h0.32499c0.24374,0 0.40624,-0.04739 0.48749,-0.14218c0.08125,-0.09479 0.12864,-0.30468 0.14218,-0.62967c0.01354,-0.36562 0.03047,-0.83956 0.05078,-1.42184c0.02031,-0.58228 0.03047,-1.05622 0.03047,-1.42184zM274.02866,184.81428l-1.17809,1.09685c-1.06976,-1.27288 -2.30879,-2.7218 -3.71709,-4.34676c-1.53017,1.71975 -3.04002,3.21606 -4.52957,4.48894l-0.97497,-1.23903c1.57079,-1.32705 3.06711,-2.78274 4.48894,-4.36707c-1.74683,-1.96349 -3.1145,-3.47334 -4.10302,-4.52957l1.07653,-0.97497c1.31351,1.36767 2.6541,2.81659 4.02177,4.34676c1.23226,-1.48954 2.33587,-3.01971 3.31085,-4.5905l1.27965,0.87341c-1.04268,1.61142 -2.23432,3.22283 -3.5749,4.83425c1.11039,1.21872 2.41035,2.68795 3.8999,4.40769zM245.30756,174.51612v1.54371c-0.48749,1.13747 -0.97497,2.13953 -1.46246,3.00617c1.32705,1.0833 2.15984,1.77391 2.49837,2.07182l-0.89373,1.15778c-0.27083,-0.27083 -0.8531,-0.7854 -1.74683,-1.54371v8.55133h-1.42184v-7.84041c-0.69061,0.89373 -1.42184,1.71298 -2.19369,2.45775l-0.62967,-1.5234c0.90727,-0.90727 1.74006,-1.92286 2.49837,-3.04679c0.75831,-1.12393 1.3609,-2.25463 1.80776,-3.3921h-3.81865v-1.44215zM345.14082,177.56292v7.02794l2.33587,-0.75154l0.12187,0.75154l0.08125,0.64998l-6.03265,1.97026l-0.38593,-1.3609l2.43743,-0.79217v-7.49511h-2.13276v-1.48277h2.13276v-4.87487h1.44215v4.87487h1.72652v1.48277zM305.06533,179.35037v5.56548l2.23432,-0.40624l0.02031,1.50308l-6.49983,1.25934l-0.20312,-1.5234l2.96555,-0.54842v-5.84984h-2.41712v-1.46246h6.29671v1.46246zM247.98873,188.36888v0.97497h-1.46246v-8.75445h10.39972v8.75445h-1.46246v-0.97497zM310.22457,177.05512l-1.25934,-0.69061c1.19163,-1.88224 2.12598,-3.80511 2.80305,-5.7686l1.48277,0.24374c-0.2302,0.66352 -0.47395,1.28642 -0.73123,1.8687h5.91078v1.42184h-3.59522l1.56402,2.15307l-1.17809,0.75154c-0.21666,-0.32499 -0.81925,-1.17809 -1.80776,-2.55931l-0.26406,-0.3453h-1.27965c-0.54165,1.11039 -1.09007,2.08536 -1.64527,2.92492zM304.6794,174.1302h-0.79217c-0.69061,1.20518 -1.41507,2.26817 -2.17338,3.18898l-1.11716,-0.89373c0.64998,-0.79894 1.29319,-1.74683 1.92964,-2.84367c0.63644,-1.09685 1.1307,-2.10567 1.48277,-3.02648l1.48277,0.30468c-0.28437,0.71769 -0.56196,1.33382 -0.83279,1.84839h5.15924v1.42184h-3.59522l0.36562,0.58905l0.97497,1.64527l-1.19841,0.64998c-0.44686,-0.8531 -1.00883,-1.81454 -1.68589,-2.8843zM256.0932,179.04569h-8.73414v-4.30613h8.73414zM257.31192,173.27709h-11.2122v-1.40152h11.2122zM294.15781,182.19404v-2.23432h-9.60755v2.23432zM284.55025,176.48638v2.15307h9.60755v-2.15307zM284.55025,175.20673h9.60755v-2.13276h-9.60755zM248.7809,175.97858v1.82808h5.87016v-1.82808zM309.96051,181.88936l1.05622,-0.8531c0.44686,0.47395 0.93435,1.01221 1.46246,1.6148c0.52811,0.60259 0.98851,1.13408 1.38121,1.59449l-1.11716,0.97497c-0.96143,-1.17809 -1.88901,-2.28848 -2.78274,-3.33116zM255.46353,185.03772h-3.06711v2.07182h3.06711zM251.03553,185.03772h-3.04679v2.07182h3.04679zM252.39643,181.84874v1.92964h3.06711v-1.92964zM247.98873,183.77837h3.04679v-1.92964h-3.04679zM244.06853,173.6224l-1.3609,0.60936c-0.3927,-1.12393 -0.79894,-2.1463 -1.21872,-3.06711l1.34059,-0.58905l0.60936,1.5234z" fill="#ffffff" fill-rule="evenodd" stroke="#ffffff" stroke-width="0.5" stroke-linecap="round"/></g></g></svg>