<svg version="1.1" xmlns="http://www.w3.org/2000/svg" xmlns:xlink="http://www.w3.org/1999/xlink" width="208" height="32" viewBox="0,0,208,32"><g transform="translate(-240,-164)"><g stroke="none" stroke-miterlimit="10"><path d="M240.78626,177.70439h18.03951v2.22759h-18.03951v-2.22759M248.58283,170.48461h2.32704v18.55663h-2.32704zM262.32627,171.18073h4.0574v1.92925h-4.0574v-1.92925M262.20694,175.75525h3.75906v1.92925h-3.75906v-1.92925M262.18705,180.42921h3.77895v1.96903h-3.77895v-1.96903M261.29203,171.18073h1.90936v7.19989c0,0.79557 -0.01591,1.65346 -0.04773,2.57366c-0.03447,0.92286 -0.09812,1.86428 -0.19094,2.82427c-0.09282,0.96264 -0.23204,1.89478 -0.41767,2.79642c-0.18563,0.90164 -0.43093,1.72373 -0.7359,2.46626c-0.11934,-0.10608 -0.28773,-0.22276 -0.50519,-0.35005c-0.22011,-0.12464 -0.43889,-0.24397 -0.65634,-0.35801c-0.22011,-0.11138 -0.40972,-0.19359 -0.56883,-0.24663c0.27845,-0.68949 0.50121,-1.44528 0.66828,-2.26737c0.16442,-0.82209 0.28375,-1.66406 0.35801,-2.52593c0.0716,-0.86187 0.12066,-1.71047 0.14718,-2.54582c0.02652,-0.83535 0.03978,-1.61765 0.03978,-2.34693v-7.21978M265.28977,171.18073h1.96903v15.41414c0,0.47734 -0.04906,0.87115 -0.14718,1.18142c-0.10077,0.31292 -0.29038,0.55557 -0.56883,0.72795c-0.29171,0.18563 -0.63645,0.30099 -1.03424,0.34607c-0.39778,0.04773 -0.90164,0.0716 -1.51158,0.0716c-0.01326,-0.18563 -0.04906,-0.40441 -0.1074,-0.65634c-0.06099,-0.25193 -0.12729,-0.50386 -0.19889,-0.75579c-0.07425,-0.25193 -0.15779,-0.46408 -0.2506,-0.63645c0.34475,0.01326 0.66297,0.01989 0.95468,0.01989c0.29171,0 0.4906,0 0.59668,0c0.19889,0 0.29834,-0.11271 0.29834,-0.33812v-15.37436M269.22783,171.49896l2.00881,0.35801c-0.15911,0.96794 -0.36066,1.92925 -0.60463,2.88394c-0.24663,0.95468 -0.52242,1.84572 -0.82739,2.67311c-0.30497,0.83004 -0.64308,1.56329 -1.01435,2.19975c-0.11934,-0.10608 -0.28773,-0.22939 -0.50519,-0.36994c-0.22011,-0.1379 -0.44552,-0.27049 -0.67623,-0.39778c-0.23337,-0.12464 -0.42961,-0.22674 -0.58872,-0.30629c0.37127,-0.57016 0.7001,-1.23313 0.9865,-1.98892c0.28375,-0.75579 0.52508,-1.56462 0.72397,-2.42648c0.19889,-0.86187 0.36463,-1.73699 0.49723,-2.62538M272.33055,170.70339h2.06848v17.10472h-2.06848v-17.10472M268.61126,180.50877h9.50704v1.98892h-9.50704v-1.98892M267.79581,186.51531h11.09818v2.00881h-11.09818v-2.00881M269.78473,174.76079h8.63192v2.0287h-9.44737zM291.9413,170.46472h2.00881v13.98211h-2.00881v-13.98211M285.93476,178.51985l10.42194,-4.4154l0.79557,1.82981l-10.42194,4.47507l-0.79557,-1.88947M287.96346,172.37408h2.0287v13.00754c0,0.37127 0.03315,0.65237 0.09945,0.8433c0.0663,0.19359 0.20552,0.32353 0.41767,0.38983c0.21215,0.0663 0.52375,0.09945 0.93479,0.09945c0.11934,0 0.31425,0 0.58474,0c0.27314,0 0.58209,0 0.92684,0c0.34475,0 0.69347,0 1.04617,0c0.35005,0 0.66828,0 0.95468,0c0.28375,0 0.49193,0 0.62452,0c0.37127,0 0.64971,-0.07027 0.83535,-0.21083c0.18563,-0.1379 0.32486,-0.39248 0.41767,-0.76375c0.09282,-0.37127 0.15911,-0.90827 0.19889,-1.61103c0.23867,0.17237 0.54099,0.33149 0.90695,0.47734c0.36331,0.14585 0.69082,0.2453 0.98253,0.29834c-0.09282,0.94142 -0.2453,1.67998 -0.45745,2.21566c-0.21215,0.53834 -0.53038,0.92286 -0.95468,1.15357c-0.4243,0.23337 -1.01435,0.35005 -1.77014,0.35005c-0.1326,0 -0.3474,0 -0.64441,0c-0.29966,0 -0.64176,0 -1.02628,0c-0.38452,0 -0.7664,0 -1.14562,0c-0.37657,0 -0.71336,0 -1.01037,0c-0.29966,0 -0.50916,0 -0.6285,0c-0.84861,0 -1.51821,-0.09282 -2.00881,-0.27845c-0.4906,-0.18563 -0.83137,-0.51447 -1.02231,-0.9865c-0.19359,-0.46939 -0.29038,-1.13501 -0.29038,-1.99688v-12.98765M295.95892,174.34311h-0.15911l0.39778,-0.29834l0.39778,-0.25856l1.4718,0.53701l-0.07956,0.35801c0,0.94142 -0.00265,1.80594 -0.00796,2.59355c-0.00796,0.79026 -0.01458,1.49036 -0.01989,2.1003c-0.00796,0.60994 -0.02122,1.12042 -0.03978,1.53147c-0.02122,0.41104 -0.04508,0.71601 -0.0716,0.9149c-0.03978,0.45082 -0.14585,0.79822 -0.31823,1.04219c-0.17237,0.24663 -0.41767,0.42298 -0.7359,0.52905c-0.27845,0.11934 -0.60728,0.18829 -0.9865,0.20685c-0.37657,0.02122 -0.71734,0.03182 -1.02231,0.03182c-0.02652,-0.26519 -0.08353,-0.57414 -0.17105,-0.92684c-0.08486,-0.35005 -0.18033,-0.63778 -0.2864,-0.86319c0.18563,0.01326 0.38452,0.01989 0.59668,0.01989c0.21215,0 0.36463,0 0.45745,0c0.1326,0 0.23867,-0.0305 0.31823,-0.09149c0.07956,-0.05834 0.1326,-0.18033 0.15911,-0.36596c0.02652,-0.10608 0.04641,-0.33547 0.05967,-0.68817c0.01326,-0.35005 0.02387,-0.81678 0.03182,-1.4002c0.0053,-0.58342 0.00796,-1.29015 0.00796,-2.12019c0,-0.82739 0,-1.7781 0,-2.85211M280.26634,175.13868h6.50377v2.00881h-6.50377v-2.00881M282.65304,170.72328h2.00881v13.10699h-2.00881v-13.10699M280.02767,183.98938c0.54364,-0.19889 1.17611,-0.44154 1.89743,-0.72795c0.72397,-0.28375 1.48771,-0.59535 2.29124,-0.93479c0.80087,-0.33679 1.60572,-0.67093 2.41455,-1.00242l0.47734,1.88947c-1.06076,0.51712 -2.13743,1.03026 -3.23001,1.53942c-1.09523,0.51181 -2.09367,0.97324 -2.99531,1.38429zM300.57322,173.72655h17.66162v2.08837h-17.66162v-2.08837M307.03721,178.44029h7.71701v2.06848h-7.71701v-2.06848M314.19733,178.44029h2.22759c0,0 -0.00265,0.05967 -0.00796,0.179c-0.00796,0.11934 -0.01193,0.25193 -0.01193,0.39778c0,0.14585 -0.01326,0.26519 -0.03978,0.35801c-0.11934,1.84307 -0.25193,3.34139 -0.39778,4.49496c-0.14585,1.15357 -0.3116,2.04859 -0.49723,2.68504c-0.18563,0.63645 -0.41767,1.09391 -0.69612,1.37236c-0.27845,0.30497 -0.58076,0.51712 -0.90695,0.63645c-0.32353,0.11934 -0.70408,0.19889 -1.14164,0.23867c-0.37127,0.03978 -0.86452,0.05569 -1.47976,0.04773c-0.61789,-0.0053 -1.25832,-0.02122 -1.9213,-0.04773c-0.01326,-0.31823 -0.09282,-0.67623 -0.23867,-1.07402c-0.14585,-0.39778 -0.32486,-0.74253 -0.53701,-1.03424c0.68949,0.0663 1.34849,0.10608 1.97699,0.11934c0.63115,0.01326 1.09258,0.01989 1.38429,0.01989c0.22541,0 0.41104,-0.01724 0.5569,-0.05171c0.14585,-0.03182 0.28508,-0.09414 0.41767,-0.18696c0.19889,-0.18563 0.37789,-0.57414 0.53701,-1.16551c0.15911,-0.58872 0.30497,-1.42672 0.43756,-2.514c0.1326,-1.08728 0.2453,-2.46626 0.33812,-4.13696v-0.33812M305.74441,175.03924h2.3867c-0.05304,1.0475 -0.1326,2.10163 -0.23867,3.16238c-0.10608,1.06076 -0.27845,2.10826 -0.51712,3.14249c-0.23867,1.03424 -0.58342,2.02207 -1.03424,2.96349c-0.45082,0.94142 -1.0475,1.8192 -1.79003,2.63333c-0.74253,0.81678 -1.67069,1.53677 -2.78449,2.15997c-0.15911,-0.27845 -0.3885,-0.58342 -0.68817,-0.9149c-0.29701,-0.33149 -0.59137,-0.60331 -0.88308,-0.81546c1.03424,-0.54364 1.8855,-1.17346 2.55377,-1.88947c0.67093,-0.71601 1.20131,-1.48904 1.59114,-2.31908c0.39248,-0.82739 0.68154,-1.69589 0.86717,-2.60549c0.18563,-0.90695 0.3116,-1.82848 0.37789,-2.7646c0.0663,-0.93347 0.11934,-1.85102 0.15911,-2.75267M307.85267,171.0415l2.08837,-0.79557c0.26519,0.45082 0.53701,0.94805 0.81546,1.49169c0.27845,0.54364 0.4906,1.00772 0.63645,1.39224l-2.18781,0.95468c-0.1326,-0.41104 -0.33149,-0.90164 -0.59668,-1.4718c-0.26519,-0.57016 -0.51712,-1.09391 -0.75579,-1.57125zM321.11877,173.94533h16.32904v9.80538h-2.22759v-7.69712h-11.95341v7.79657h-2.14803v-9.90483M322.23257,180.60821h14.24067v2.10826h-14.24067v-2.10826M328.09988,170.46472h2.24748v18.55663h-2.24748zM351.42993,171.43929h5.19108v1.92925h-3.30161v15.59314h-1.88947v-17.52239M356.18345,171.43929h0.39778l0.31823,-0.07956l1.4718,0.9149c-0.33149,0.95468 -0.70275,1.96505 -1.1138,3.03112c-0.41104,1.06871 -0.80883,2.04063 -1.19335,2.91576c0.82209,0.9149 1.35512,1.76616 1.59909,2.55377c0.24663,0.79026 0.36994,1.51688 0.36994,2.17986c0,0.67623 -0.07558,1.25302 -0.22674,1.73036c-0.15381,0.47734 -0.40972,0.84198 -0.76772,1.09391c-0.17237,0.11934 -0.37127,0.2148 -0.59668,0.2864c-0.22541,0.07425 -0.46408,0.13127 -0.71601,0.17105c-0.22541,0.02652 -0.47734,0.04243 -0.75579,0.04773c-0.27845,0.00796 -0.5569,0.0053 -0.83535,-0.00796c-0.01326,-0.27845 -0.05967,-0.60994 -0.13922,-0.99446c-0.07956,-0.38452 -0.20552,-0.71601 -0.37789,-0.99446c0.25193,0.02652 0.48132,0.04243 0.68817,0.04773c0.2042,0.00796 0.39248,0.0053 0.56485,-0.00796c0.1326,0 0.26519,-0.01724 0.39778,-0.05171c0.1326,-0.03182 0.2453,-0.08088 0.33812,-0.14718c0.17237,-0.10608 0.29436,-0.28243 0.36596,-0.52905c0.07425,-0.24397 0.11138,-0.53834 0.11138,-0.88308c0,-0.57016 -0.13922,-1.21324 -0.41767,-1.92925c-0.27845,-0.71601 -0.81546,-1.48506 -1.61103,-2.30715c0.19889,-0.50386 0.40044,-1.04485 0.60463,-1.62296c0.20685,-0.57546 0.40574,-1.15888 0.59668,-1.75025c0.19359,-0.58872 0.36994,-1.14164 0.52905,-1.65876c0.15911,-0.51712 0.29171,-0.95468 0.39778,-1.31269v-0.69612M340.63009,172.7122h9.56671v1.90936h-9.56671v-1.90936M340.11297,178.06239h10.52139v1.92925h-10.52139v-1.92925M341.7041,175.05912l1.82981,-0.45745c0.27845,0.47734 0.52773,1.00374 0.74783,1.5792c0.21745,0.57811 0.37259,1.07932 0.46541,1.50362l-1.90936,0.53701c-0.07956,-0.43756 -0.22541,-0.95203 -0.43756,-1.5434c-0.21215,-0.58872 -0.44419,-1.12838 -0.69612,-1.61898M347.33275,174.542l2.10826,0.45745c-0.18563,0.45082 -0.37789,0.90827 -0.57679,1.37236c-0.19889,0.46408 -0.39116,0.90827 -0.57679,1.33258c-0.18563,0.4243 -0.37127,0.8022 -0.5569,1.13368l-1.79003,-0.43756c0.17237,-0.35801 0.34872,-0.76242 0.52905,-1.21324c0.17768,-0.45082 0.34342,-0.90827 0.49723,-1.37236c0.15116,-0.46408 0.27314,-0.88839 0.36596,-1.27291M342.20133,186.19708h6.52366v1.86959h-6.52366v-1.86959M341.08754,181.54301h8.73136v7.31923h-2.10826v-5.40986h-4.6143v5.5292h-2.00881v-7.43856M343.81236,170.8625l1.92925,-0.53701c0.21215,0.4243 0.42165,0.88839 0.6285,1.39224c0.2042,0.50386 0.3527,0.93479 0.44552,1.2928l-2.04859,0.63645c-0.07956,-0.35801 -0.20817,-0.79955 -0.38585,-1.32462c-0.18033,-0.52242 -0.36994,-1.00905 -0.56883,-1.45987z" fill="#ffffff" stroke-width="1"/><path d="M240,196v-32h208v32z" fill="none" stroke-width="0"/><path d="" fill="#ffffff" stroke-width="1"/></g></g></svg>