<svg version="1.1" xmlns="http://www.w3.org/2000/svg" xmlns:xlink="http://www.w3.org/1999/xlink" width="208" height="32" viewBox="0,0,208,32"><g transform="translate(-240,-164)"><g stroke="none" stroke-miterlimit="10"><path d="M240.00001,196v-32h208v32z" fill="none" stroke-width="0"/><path d="M247.23941,177.15954h6.99945v1.83903h-6.99945v-1.83903M242.78521,185.86175h9.16291v1.83903h-9.16291v-1.83903M246.31675,175.07404h1.70214v6.84422h-1.70214v-6.84422M241.86256,181.04615h11.02413v7.41299h-1.70214v-5.55501h-7.69939v5.57397h-1.6226v-7.43195M240.27177,172.32498h14.11025v1.87695h-14.11025v-1.87695M243.61242,170.75137h1.70214v5.34646h-1.70214v-5.34646M249.24379,170.75137h1.70214v5.34646h-1.70214zM262.33594,171.0168h1.86122v14.84495c0,0.64461 -0.07106,1.13122 -0.21317,1.45985c-0.14423,0.32862 -0.38603,0.57509 -0.7254,0.7394c-0.34997,0.16431 -0.79539,0.27175 -1.33626,0.3223c-0.54087,0.05056 -1.19309,0.06952 -1.95666,0.05688c-0.03182,-0.18959 -0.08484,-0.41457 -0.15908,-0.67494c-0.07424,-0.25784 -0.15908,-0.51695 -0.25453,-0.77732c-0.09545,-0.25784 -0.19089,-0.48156 -0.28634,-0.67115c0.37118,0.02528 0.73494,0.04045 1.09128,0.0455c0.35422,0.00758 0.66707,0.00758 0.93856,0c0.26937,-0.00506 0.46239,-0.00758 0.57905,-0.00758c0.16968,0 0.28952,-0.03792 0.35952,-0.11375c0.06787,-0.07584 0.10181,-0.20855 0.10181,-0.39814v-14.82599M266.16973,175.96512l1.65442,-0.7394c0.45603,0.88476 0.89084,1.83524 1.30444,2.85144c0.4136,1.01873 0.77736,2.01724 1.09128,2.99553c0.31179,0.98082 0.53662,1.86304 0.67449,2.64669l-1.86122,0.87212c-0.11666,-0.771 -0.31816,-1.64944 -0.6045,-2.63531c-0.28634,-0.98587 -0.62783,-2.00334 -1.02446,-3.05241c-0.39876,-1.04907 -0.81024,-2.02862 -1.23445,-2.93866M258.16809,175.39634l1.94076,0.37918c-0.18029,0.94795 -0.39982,1.94267 -0.65858,2.98416c-0.26089,1.04401 -0.56844,2.04 -0.92265,2.98795c-0.35634,0.94795 -0.76252,1.77583 -1.21854,2.48364c-0.13787,-0.11375 -0.30755,-0.24015 -0.50905,-0.37918c-0.2015,-0.13903 -0.403,-0.26922 -0.6045,-0.39056c-0.2015,-0.11881 -0.38179,-0.21613 -0.54087,-0.29197c0.44542,-0.65725 0.83251,-1.43204 1.16127,-2.32438c0.32876,-0.88981 0.60768,-1.81249 0.83675,-2.76802c0.22695,-0.95301 0.39876,-1.84661 0.51541,-2.68081zM279.72321,170.73241l1.67032,0.37918c-0.2015,1.11227 -0.45072,2.19546 -0.74767,3.24958c-0.29695,1.05665 -0.63419,2.04252 -1.01174,2.95761c-0.37542,0.91762 -0.79115,1.71769 -1.24717,2.40022c-0.08484,-0.12639 -0.20892,-0.28186 -0.37224,-0.46639c-0.16544,-0.18201 -0.33088,-0.36528 -0.49632,-0.54981c-0.16332,-0.18201 -0.30861,-0.32357 -0.43587,-0.42468c0.42421,-0.59405 0.80282,-1.29301 1.13582,-2.09687c0.33513,-0.80134 0.62995,-1.66713 0.88448,-2.59739c0.25453,-0.92773 0.46133,-1.87821 0.62041,-2.85144M283.74789,174.9982l1.71805,0.26543c-0.29695,2.24981 -0.74555,4.22155 -1.3458,5.91523c-0.59813,1.69368 -1.38716,3.13709 -2.36709,4.33025c-0.98204,1.19569 -2.21013,2.19167 -3.68426,2.98795c-0.06363,-0.15167 -0.1612,-0.33494 -0.2927,-0.54981c-0.13363,-0.21487 -0.27468,-0.42974 -0.42315,-0.64461c-0.14847,-0.21487 -0.28104,-0.39182 -0.3977,-0.53085c1.4105,-0.64461 2.56859,-1.49777 3.47427,-2.55947c0.90781,-1.06171 1.62684,-2.35092 2.1571,-3.86765c0.53026,-1.51673 0.91735,-3.29888 1.16127,-5.34646M279.80275,174.33464h6.60175v1.93382h-7.0949l0.49314,-1.93382M280.3118,175.69969c0.28634,1.75687 0.69252,3.3646 1.21854,4.82319c0.5239,1.46111 1.21006,2.71873 2.05847,3.77285c0.84842,1.05665 1.89303,1.86936 3.13384,2.43814c-0.11666,0.13903 -0.24922,0.30966 -0.3977,0.51189c-0.14847,0.20223 -0.28422,0.41078 -0.40724,0.62565c-0.1209,0.21487 -0.22907,0.4171 -0.32452,0.60669c-1.32565,-0.69517 -2.4286,-1.63427 -3.30883,-2.81732c-0.88023,-1.18052 -1.59609,-2.5797 -2.14756,-4.19754c-0.55147,-1.61784 -0.99689,-3.43159 -1.33626,-5.44125l1.51124,-0.3223M271.65794,181.46325c0.50905,-0.15167 1.09764,-0.33494 1.76577,-0.54981c0.66813,-0.21487 1.37019,-0.44617 2.1062,-0.6939c0.73812,-0.2452 1.46776,-0.4942 2.18892,-0.74699l0.22271,1.80111c-1.0181,0.37918 -2.05423,0.75457 -3.10839,1.12617c-1.05628,0.37412 -2.00333,0.71918 -2.84114,1.03516l-0.33406,-1.97174M274.60089,170.77033h1.63851v17.68881h-1.63851v-17.68881M272.50104,171.7562l1.43171,0.26543c-0.06363,0.8974 -0.15165,1.79732 -0.26407,2.69977c-0.11029,0.90498 -0.24286,1.75814 -0.3977,2.55947c-0.15272,0.80386 -0.32982,1.51546 -0.53132,2.13479c-0.08484,-0.07584 -0.2015,-0.17442 -0.34997,-0.29576c-0.14847,-0.11881 -0.30225,-0.23888 -0.46133,-0.36022c-0.15908,-0.11881 -0.29695,-0.21613 -0.4136,-0.29197c0.19089,-0.55613 0.34997,-1.20074 0.47724,-1.93382c0.12726,-0.73308 0.23013,-1.51041 0.30861,-2.33197c0.0806,-0.82156 0.14741,-1.6368 0.20044,-2.44572M272.8033,174.41047h4.97915v1.93382h-5.29731zM293.64257,175.96512h1.59078c-0.07424,0.79628 -0.15378,1.63301 -0.23862,2.51018c-0.08484,0.8797 -0.17711,1.75182 -0.2768,2.61635c-0.10181,0.86706 -0.19832,1.68862 -0.28952,2.46468c-0.08908,0.77859 -0.17605,1.4649 -0.26089,2.05895h-1.65442c0.10605,-0.61933 0.2121,-1.32461 0.31816,-2.11583c0.10605,-0.7887 0.20892,-1.61658 0.30861,-2.48364c0.10181,-0.86453 0.19514,-1.73033 0.27998,-2.59739c0.08484,-0.86453 0.15908,-1.6823 0.22271,-2.4533M296.02875,178.16437l0.89084,-0.68253c0.28634,0.26543 0.58329,0.57509 0.89084,0.92899c0.30755,0.3539 0.54617,0.66357 0.71585,0.92899l-0.93856,0.77732c-0.14847,-0.27807 -0.3733,-0.60416 -0.67449,-0.97829c-0.30331,-0.3716 -0.59813,-0.69643 -0.88448,-0.9745M295.59923,182.08889l0.93856,-0.70149c0.31816,0.29071 0.64904,0.62565 0.99265,1.00483c0.34573,0.37918 0.61404,0.72044 0.80494,1.02379l-0.97038,0.79628c-0.18029,-0.29071 -0.44012,-0.63829 -0.77948,-1.04275c-0.33937,-0.40446 -0.66813,-0.76468 -0.98629,-1.08067M293.86528,172.72312h8.22435v1.83903h-8.22435v-1.83903M294.3107,175.96512h6.06089v1.74423h-6.06089v-1.74423M291.63818,179.75693h10.86505v1.83903h-10.86505v-1.83903M293.37214,183.87105h8.7175v1.74423h-8.7175v-1.74423M293.96073,170.73241l1.65442,0.51189c-0.2121,0.78364 -0.46875,1.56349 -0.76994,2.33955c-0.30331,0.77859 -0.62465,1.50914 -0.96401,2.19167c-0.33937,0.68253 -0.68404,1.2829 -1.03401,1.80111c-0.10605,-0.11375 -0.25134,-0.24015 -0.43587,-0.37918c-0.18665,-0.13903 -0.37012,-0.27807 -0.55041,-0.4171c-0.18029,-0.13903 -0.33937,-0.25279 -0.47724,-0.34126c0.36058,-0.45502 0.70313,-0.98966 1.02765,-1.60394c0.3224,-0.61175 0.61616,-1.26899 0.88129,-1.97174c0.26513,-0.70022 0.48784,-1.41055 0.66813,-2.131M299.87844,175.96512h1.59078c0,0 -0.00318,0.05688 -0.00954,0.17063c-0.00424,0.11375 -0.00636,0.23636 -0.00636,0.36781c0,0.13398 -0.0053,0.2452 -0.01591,0.33368c-0.06363,1.80743 -0.12726,3.33932 -0.19089,4.59568c-0.06363,1.25888 -0.13575,2.29278 -0.21635,3.1017c-0.07848,0.80892 -0.16756,1.44089 -0.26725,1.89591c-0.10181,0.45502 -0.22165,0.78364 -0.35952,0.98587c-0.18029,0.29071 -0.36906,0.48914 -0.56632,0.59531c-0.19514,0.1087 -0.41997,0.18833 -0.67449,0.23888c-0.23332,0.03792 -0.53026,0.05688 -0.89084,0.05688c-0.36058,0 -0.73706,-0.01264 -1.12946,-0.03792c-0.01061,-0.25279 -0.05303,-0.53717 -0.12726,-0.85316c-0.07424,-0.31599 -0.17499,-0.59405 -0.30225,-0.8342c0.37118,0.03792 0.71055,0.0632 1.0181,0.07584c0.30755,0.01264 0.53556,0.01896 0.68404,0.01896c0.13787,0 0.24922,-0.02275 0.33406,-0.06825c0.08484,-0.04297 0.16968,-0.12134 0.25453,-0.23509c0.10605,-0.13903 0.2015,-0.42089 0.28634,-0.84557c0.08484,-0.42216 0.16438,-1.02252 0.23862,-1.80111c0.07424,-0.77606 0.14105,-1.76825 0.20044,-2.97657c0.05727,-1.2058 0.10711,-2.66817 0.14953,-4.38713v-0.39814M288.55206,172.41977l0.95447,-1.38401c0.30755,0.16431 0.6395,0.36022 0.99583,0.58773c0.35422,0.22751 0.69252,0.46134 1.01492,0.70149c0.32452,0.24015 0.58753,0.46134 0.78903,0.66357l-1.00219,1.53568c-0.19089,-0.20223 -0.44224,-0.43353 -0.75403,-0.6939c-0.31391,-0.25784 -0.64798,-0.51063 -1.00219,-0.75836c-0.35634,-0.2452 -0.68828,-0.4626 -0.99583,-0.65219M287.66122,177.84206l0.92265,-1.36505c0.30755,0.16431 0.62889,0.35643 0.96401,0.57636c0.333,0.22245 0.65116,0.44743 0.95447,0.67494c0.30119,0.22751 0.54723,0.44238 0.73812,0.64461l-0.98629,1.55464c-0.16968,-0.21487 -0.403,-0.4487 -0.69994,-0.70149c-0.29695,-0.25279 -0.61298,-0.49925 -0.94811,-0.7394c-0.333,-0.24015 -0.64798,-0.45502 -0.94493,-0.64461M288.10664,187.03721c0.2121,-0.49294 0.44754,-1.07435 0.70631,-1.74423c0.26089,-0.66989 0.52178,-1.38401 0.78267,-2.14237c0.25877,-0.75836 0.49951,-1.50409 0.72222,-2.23717l1.30444,1.09963c-0.19089,0.66989 -0.40088,1.35873 -0.62995,2.06654c-0.22695,0.7078 -0.46027,1.40929 -0.69994,2.10446c-0.23756,0.69517 -0.47299,1.34609 -0.70631,1.95278zM303.56906,175.32051h4.37466v1.91487h-4.37466v-1.91487M305.08029,170.99784h1.59078v12.72153h-1.59078v-12.72153M303.4418,184.06064c0.56208,-0.27807 1.24081,-0.65093 2.0362,-1.11858c0.79539,-0.46766 1.59609,-0.94795 2.40208,-1.44089l0.47724,1.80111c-0.71055,0.4803 -1.43913,0.96691 -2.18574,1.45985c-0.74873,0.49294 -1.44655,0.94163 -2.09347,1.34609l-0.63631,-2.04758M308.19824,173.4246h9.99012v1.83903h-9.99012v-1.83903M307.70509,184.47774c0.46663,-0.10111 0.99901,-0.23383 1.59715,-0.39814c0.60026,-0.16431 1.23975,-0.33874 1.91849,-0.52327c0.67873,-0.18201 1.35747,-0.37412 2.0362,-0.57636l0.15908,1.70632c-0.92265,0.30335 -1.84743,0.6029 -2.77433,0.89866c-0.92902,0.29829 -1.77531,0.56751 -2.53889,0.80766l-0.3977,-1.91487M313.33646,170.77033h1.63851c-0.01061,1.32713 0,2.63784 0.03182,3.93211c0.03182,1.2968 0.08802,2.53293 0.16862,3.70839c0.07848,1.17546 0.17605,2.25613 0.2927,3.242c0.11666,0.98587 0.24922,1.84535 0.3977,2.57843c0.14847,0.73308 0.31073,1.29806 0.48678,1.69494c0.17393,0.3994 0.35634,0.59911 0.54723,0.59911c0.12726,0 0.22589,-0.18959 0.29589,-0.56877c0.06787,-0.37918 0.11242,-1.01115 0.13363,-1.89591c0.15908,0.22751 0.34679,0.43859 0.56314,0.63323c0.21847,0.19717 0.41785,0.35264 0.59813,0.46639c-0.07424,0.8342 -0.18029,1.49145 -0.31816,1.97174c-0.13787,0.4803 -0.32664,0.81777 -0.56632,1.01241c-0.23756,0.19717 -0.54723,0.29576 -0.92902,0.29576c-0.44542,0 -0.83781,-0.2313 -1.17718,-0.6939c-0.33937,-0.46007 -0.63101,-1.10721 -0.87493,-1.94141c-0.24392,-0.8342 -0.44754,-1.81122 -0.61086,-2.93107c-0.16544,-1.11732 -0.29377,-2.33702 -0.38497,-3.6591c-0.08908,-1.31955 -0.15696,-2.69724 -0.20362,-4.13308c-0.04878,-1.43331 -0.07848,-2.8704 -0.08908,-4.31129M315.35677,171.7562l0.97038,-0.98587c0.31816,0.26543 0.65434,0.57509 1.00856,0.92899c0.35634,0.3539 0.62465,0.66989 0.80494,0.94795l-1.00219,1.11858c-0.19089,-0.29071 -0.45284,-0.62565 -0.78585,-1.00483c-0.33513,-0.37918 -0.66707,-0.71413 -0.99583,-1.00483M316.42259,176.6666l1.52715,0.34126c-0.50905,2.51524 -1.23763,4.72966 -2.18574,6.64326c-0.95023,1.91613 -2.13059,3.47457 -3.54108,4.67531c-0.08484,-0.11375 -0.2015,-0.25658 -0.34997,-0.42847c-0.14847,-0.16937 -0.30225,-0.33368 -0.46133,-0.49294c-0.15908,-0.15673 -0.29695,-0.28565 -0.4136,-0.38676c1.4105,-1.04907 2.55904,-2.45836 3.44564,-4.22787c0.88448,-1.76951 1.54412,-3.81077 1.97894,-6.12378M309.93219,178.25916v2.55947h1.46352v-2.55947h-1.46352M308.65957,176.68556h4.07241v5.72564h-4.07241z" fill="#ffffff" stroke-width="1"/></g></g></svg>