<svg version="1.1" xmlns="http://www.w3.org/2000/svg" xmlns:xlink="http://www.w3.org/1999/xlink" width="208" height="32" viewBox="0,0,208,32"><g transform="translate(-237.53304,-164)"><g stroke-miterlimit="10"><path d="M257.45595,172.46377v1.40294h-5.17547v2.29572h4.26681v5.08033h-4.42484v2.84839c1.68565,-0.55267 3.08158,-1.08409 4.18779,-1.59425l0.47409,1.33917c-0.60578,0.25508 -1.35313,0.5385 -2.24205,0.85027c-0.88892,0.31177 -1.69553,0.58102 -2.41983,0.80775v1.33917c0,0.4393 0.06256,0.72627 0.18766,0.86089c0.1251,0.13462 0.37861,0.20194 0.76051,0.20194h1.81734c0.47409,0 0.79344,-0.06732 0.95806,-0.20194c0.16461,-0.13462 0.26009,-0.42159 0.28643,-0.86089l0.07901,-1.55173l1.22474,0.29759l-0.11852,1.80682c-0.03951,0.75107 -0.21729,1.27186 -0.53335,1.56236c-0.31606,0.2905 -0.86258,0.43576 -1.63956,0.43576h-2.647c-0.60578,0 -1.05025,-0.16297 -1.33338,-0.4889c-0.28313,-0.32593 -0.4247,-0.82901 -0.4247,-1.50922v-6.14316h-4.44459v2.44451h3.31863v1.38168h-3.31863v2.76336l3.35814,-0.93529l0.05926,1.38169l-4.81991,1.42419l-0.47409,-1.29665c0.22387,-0.11337 0.37203,-0.24091 0.44446,-0.38262c0.07243,-0.14171 0.10864,-0.29759 0.10864,-0.46765v-6.31322h-1.71858c-0.01317,1.84224 -0.15474,3.39752 -0.4247,4.66583c-0.26997,1.26831 -0.73418,2.61811 -1.39264,4.04939l-1.30374,-0.76524c0.44775,-1.00615 0.78686,-1.89538 1.01732,-2.66771c0.23046,-0.77232 0.39507,-1.64739 0.49384,-2.62519c0.09877,-0.9778 0.14816,-2.23904 0.14816,-3.78368v-7.65238h7.1706l-0.69138,-1.74304l1.54079,-0.40387l0.79015,2.14692zM345.2613,173.59037h-3.41739v5.59049c0,1.77139 -0.05268,3.25935 -0.15803,4.46389c-0.10535,1.20454 -0.28313,2.3028 -0.53335,3.29477c-0.25022,0.99197 -0.61237,2.05481 -1.08646,3.1885l-1.30375,-0.85027c0.43458,-1.04866 0.7704,-2.01938 1.00744,-2.91216c0.23705,-0.89278 0.40166,-1.88829 0.49384,-2.98656c0.09218,-1.09826 0.13828,-2.48348 0.13828,-4.15566v-7.01468h7.46691c-0.23705,-0.72272 -0.428,-1.26831 -0.57286,-1.63676l1.61981,-0.21257c0.15803,0.36845 0.36873,0.9849 0.63211,1.84933h6.63725v1.38168h-3.41739v1.65802h3.18036v1.14785h-2.96307c0.38191,0.48182 0.86588,0.94947 1.4519,1.40294c0.58603,0.45347 1.20827,0.84318 1.86673,1.16912l-0.57286,0.99906c-1.04037,-0.55267 -2.02805,-1.38168 -2.96306,-2.48703v2.44451h-1.18523v-2.29572c-0.76381,0.86443 -1.67248,1.62259 -2.72602,2.27446l-0.63212,-0.93529c1.33008,-0.75107 2.36386,-1.60842 3.10134,-2.57206h-2.05439v-1.14785h2.31118v-1.65802h-5.15573v1.65802h2.29144v1.14785h-2.29144v0.44639c0.73748,0.35428 1.42886,0.72981 2.07415,1.1266l-0.47409,1.04157c-0.42142,-0.2976 -0.95477,-0.63061 -1.60005,-0.99906v2.06189h-1.16547v-2.59331c-0.76381,1.11952 -1.63956,1.99104 -2.62725,2.61456l-0.61237,-1.06283c1.13255,-0.68021 2.06756,-1.55883 2.80503,-2.63583h-2.44947v-1.14785h2.88405zM374.65486,183.94234l1.40251,0.34011c0,0.42513 -0.02634,1.10534 -0.07901,2.04064l-0.01976,0.70146c-0.03951,0.58102 -0.14486,1.03095 -0.31606,1.3498c-0.1712,0.31885 -0.44775,0.54559 -0.82966,0.68022c-0.38191,0.13462 -0.92184,0.20194 -1.6198,0.20194h-5.01745c-0.65846,0 -1.17535,-0.0744 -1.55067,-0.22319c-0.37532,-0.1488 -0.64858,-0.41096 -0.81978,-0.7865c-0.1712,-0.37554 -0.2568,-0.91758 -0.2568,-1.62614v-7.31227l-1.65931,0.61644l-0.37532,-1.50922l2.03463,-0.74398v-5.25039h1.40251v4.74023l2.44946,-0.91403v-5.69678h1.38277v5.20788l4.20754,-1.55174l-0.21729,7.58862c-0.03951,0.58102 -0.11853,1.02031 -0.23705,1.31791c-0.11852,0.2976 -0.32265,0.51016 -0.61237,0.6377c-0.28972,0.12754 -0.71113,0.19131 -1.26423,0.19131h-1.06671l-0.27655,-1.57299h0.71114c0.38191,0 0.66504,-0.03188 0.84941,-0.09565c0.18437,-0.06377 0.31277,-0.18068 0.3852,-0.35074c0.07243,-0.17005 0.11523,-0.4393 0.1284,-0.80775l0.17778,-4.76148l-2.78527,1.02032v8.41762h-1.38277v-7.90747l-2.44946,0.91404v7.18474c0,0.51016 0.03292,0.88569 0.09877,1.1266c0.06585,0.24091 0.20084,0.41096 0.40496,0.51015c0.20412,0.0992 0.52348,0.1488 0.95806,0.1488h4.2273c0.55311,0 0.95806,-0.03543 1.21486,-0.10628c0.2568,-0.07085 0.43787,-0.21257 0.54323,-0.42513c0.10535,-0.21257 0.1712,-0.55267 0.19754,-1.02032zM395.61358,175.09959h-10.5485l-0.13828,2.82713l-0.03951,0.65895h8.51386c-0.05268,0.92112 -0.12511,2.17526 -0.21729,3.76242c-0.09218,1.58716 -0.1712,2.8413 -0.23705,3.76242c-0.06585,0.85027 -0.214,1.49859 -0.44446,1.94499c-0.23046,0.44639 -0.57945,0.7617 -1.04695,0.94592c-0.46751,0.18422 -1.12267,0.27633 -1.96549,0.27633h-3.12109l-0.31606,-1.59425h2.88404c0.65846,0 1.1556,-0.06023 1.49141,-0.18068c0.33582,-0.12045 0.57944,-0.33302 0.73089,-0.6377c0.15145,-0.30468 0.25351,-0.75461 0.30618,-1.3498l0.31606,-5.31415h-7.03233c-0.15803,1.41711 -0.42141,2.66771 -0.79015,3.7518c-0.36874,1.08409 -0.8988,2.11504 -1.59017,3.09284c-0.69138,0.9778 -1.60335,1.98395 -2.7359,3.01844l-1.16547,-1.36042c1.2379,-1.10534 2.18938,-2.15401 2.85442,-3.14598c0.66504,-0.99197 1.1523,-2.08669 1.46178,-3.28414c0.30948,-1.19745 0.51689,-2.71731 0.62224,-4.55955l0.13828,-2.61456h-4.83966v-1.6155h8.17805l-1.06671,-2.69959l1.6198,-0.44639c0.19754,0.4393 0.61895,1.48797 1.26424,3.14598h6.91381zM283.68891,173.82419v5.88808h12.66214l-0.2963,7.03594c-0.07902,1.077 -0.34569,1.83161 -0.80003,2.26383c-0.45434,0.43222 -1.18851,0.64833 -2.20254,0.64833h-2.27168l-0.27656,-1.50922h1.93587c0.52677,0 0.93501,-0.06377 1.22473,-0.19131c0.28972,-0.12754 0.49714,-0.32594 0.62224,-0.59519c0.12511,-0.26925 0.20742,-0.64479 0.24692,-1.12661c0.03951,-0.6377 0.08231,-1.48087 0.1284,-2.52953c0.04609,-1.04866 0.08231,-1.89184 0.10865,-2.52954h-12.58313v-8.82149h3.83222l0.25679,-0.68021l0.5136,-1.44545l1.54079,0.1913l-0.2568,0.74399c-0.14486,0.45347 -0.27655,0.85027 -0.39507,1.19037h6.81504c-0.11852,2.21069 -0.19095,3.45066 -0.21729,3.71991c-0.06585,0.68021 -0.18766,1.20808 -0.36544,1.58361c-0.17778,0.37554 -0.44775,0.64479 -0.8099,0.80776c-0.36215,0.16297 -0.86588,0.24445 -1.51117,0.24445h-1.69882l-0.27655,-1.36042h1.54079c0.59261,0 1.00086,-0.10274 1.22473,-0.30822c0.22388,-0.20548 0.35557,-0.55622 0.39507,-1.05221l0.09877,-1.06283c0.03951,-0.42513 0.06585,-0.79358 0.07902,-1.10534zM316.87519,183.92108h-9.81761c-1.00086,1.19037 -2.22559,2.42326 -3.67419,3.69865l8.86943,-0.36136l-2.17291,-2.21069l0.96793,-1.04158c0.56628,0.55267 1.10951,1.09118 1.62969,1.61551c0.52018,0.52433 0.97781,0.98489 1.37288,1.38168c1.42227,1.44545 2.00829,2.03355 1.75808,1.7643l-1.02719,1.21162c-0.22388,-0.25508 -0.63213,-0.70147 -1.22474,-1.33917l-12.20781,0.57393l-0.37532,-1.50922c1.55396,-1.19037 2.91697,-2.4516 4.08902,-3.78368h-5.66933v-1.44545h2.6075v-11.05344h12.20781v11.05344h2.66675zM349.88368,185.49407h6.43972v1.16912h-6.43972v0.7865c0,0.59518 -0.07243,1.0522 -0.21729,1.37105c-0.14486,0.31885 -0.39179,0.54559 -0.74077,0.68022c-0.34898,0.13462 -0.84611,0.20193 -1.4914,0.20193h-2.15316l-0.19753,-1.33916h2.48897c0.32923,0 0.56298,-0.07795 0.70126,-0.23383c0.13828,-0.15588 0.20741,-0.45347 0.20741,-0.89278v-0.57393h-6.71627v-1.16912h6.71627v-1.23288h-5.59031v-1.16911h5.59031v-1.31791l-5.70883,0.25508l-0.03951,-1.1266c5.66273,-0.24091 9.64641,-0.46056 11.95101,-0.65895l0.17778,1.14786c-1.14571,0.08503 -2.80503,0.1913 -4.97794,0.31884v1.38169h5.13597v1.16911h-5.13597zM323.33466,186.81198h-1.08646l-0.31606,-1.38168h0.94818c0.47409,0 0.80991,-0.10274 1.00744,-0.30822c0.19754,-0.20548 0.2963,-0.54913 0.2963,-1.03095c0,-0.46765 -0.10535,-0.91404 -0.31606,-1.33917c-0.21071,-0.42513 -0.57286,-0.91404 -1.08646,-1.46671l1.30374,-3.86871h-2.44946l0.03951,12.47764h-1.30374l-0.03951,-13.85932h5.23474v1.33917l-1.42226,3.69866c0.53994,0.65187 0.90208,1.23642 1.08646,1.75367c0.18437,0.51725 0.27655,1.06637 0.27655,1.64739c0,0.8361 -0.1679,1.43481 -0.50372,1.79618c-0.33582,0.36137 -0.89221,0.54205 -1.66919,0.54205zM330.32748,175.31215l1.40252,-0.3401c0.09218,0.22673 0.27655,0.77232 0.5531,1.63676h4.04952v1.36042h-1.50128c-0.10535,0.68021 -0.32923,1.77139 -0.67163,3.27352h2.05439v1.40294h-8.2373v1.25414c0,0.94946 -0.06256,1.75722 -0.18766,2.42326c-0.12511,0.66604 -0.35227,1.3002 -0.6815,1.90247c-0.32923,0.60227 -0.80991,1.23643 -1.44203,1.90247l-1.16547,-0.82901c0.61895,-0.62353 1.07658,-1.19037 1.37288,-1.70053c0.29631,-0.51016 0.49384,-1.06283 0.59261,-1.65802c0.09877,-0.59518 0.14815,-1.38877 0.14815,-2.38074v-2.31697h2.07414c-0.09218,-0.66604 -0.2963,-1.75722 -0.61236,-3.27352h-1.81734v-1.36042h4.50385l-0.17779,-0.53141c-0.15803,-0.48182 -0.24363,-0.7369 -0.2568,-0.76524zM271.52061,170.86952v15.07094c0,0.6377 0.09548,1.06283 0.28643,1.2754c0.19095,0.21257 0.5564,0.31885 1.09634,0.31885h1.0667c0.43458,0 0.75723,-0.04252 0.96793,-0.12754c0.21071,-0.08503 0.35886,-0.23382 0.44446,-0.44639c0.0856,-0.21257 0.14157,-0.5385 0.16791,-0.9778c0.02634,-0.28342 0.05268,-0.82193 0.07902,-1.61551c0.02634,-0.79358 0.03292,-1.33917 0.01975,-1.63676l1.48153,0.2976c0,0.49599 -0.01317,1.08763 -0.03951,1.77493c-0.02634,0.6873 -0.05268,1.27894 -0.07902,1.77493c-0.03951,0.68021 -0.15474,1.201 -0.34569,1.56236c-0.19095,0.36137 -0.48396,0.61998 -0.87904,0.77586c-0.39508,0.15588 -0.9416,0.23382 -1.63956,0.23382h-1.48153c-0.67163,0 -1.20169,-0.08503 -1.59018,-0.25508c-0.38849,-0.17005 -0.67491,-0.4641 -0.85928,-0.88215c-0.18437,-0.41805 -0.27655,-1.0026 -0.27655,-1.75367v-15.38979zM362.36804,177.62912v7.35479l2.27168,-0.7865l0.11852,0.7865l0.07902,0.68022l-5.86686,2.06189l-0.37532,-1.42419l2.37045,-0.829v-7.84369h-2.07414v-1.55173h2.07414v-5.10159h1.40251v5.10159h1.67907v1.55173zM330.05093,170.6357h1.40251v1.72179h4.89893v1.38168h-4.89893v1.04157h-1.40251v-1.04157h-4.40508v1.40294h-1.40251v-1.40294h-4.89893v-1.38168h4.89893v-1.72179h1.40251v1.72179h4.40508zM290.44469,185.96172v-3.18849h1.44203v4.63394h-11.00284v-4.63394h1.44203v3.18849h3.29888v-3.91121h1.54079v3.91121zM261.05113,190.0855l-1.16547,-1.40293c1.21157,-1.00615 2.11036,-1.93436 2.69639,-2.78462c0.58603,-0.85027 0.99098,-1.84932 1.21486,-2.99718c0.22388,-1.14785 0.33581,-2.71377 0.33581,-4.69772v-7.35479h1.61981v7.35479c0,2.19652 -0.13499,3.96082 -0.40495,5.2929c-0.26997,1.33208 -0.73089,2.48702 -1.38276,3.46483c-0.65188,0.9778 -1.6231,2.01938 -2.91368,3.12472zM312.78616,182.47563v-2.33823h-9.34351v2.33823zM303.44265,176.50252v2.2532h9.34351v-2.2532zM303.44265,175.16336h9.34351v-2.23194h-9.34351zM330.1497,181.24275h2.58774c0.31606,-1.47379 0.53335,-2.56497 0.65187,-3.27352h-3.87173c0.23705,1.09117 0.44775,2.18235 0.63212,3.27352zM289.18045,177.01268l-0.90867,1.16912c-1.47494,-1.26122 -2.52848,-2.13275 -3.1606,-2.61456l0.86917,-1.16912c0.56628,0.4393 1.63297,1.31082 3.20011,2.61456zM243.25301,177.52284v2.40199h3.12109v-2.40199zM250.87796,177.52284h-3.10134v2.40199h3.10134zM243.25301,176.16242h3.12109v-2.29572h-3.12109zM247.77662,173.8667v2.29572h3.10134v-2.29572zM252.28047,179.92484h2.92355v-2.40199h-2.92355z" fill="#ffffff" fill-rule="evenodd" stroke="#ffffff" stroke-width="0.5" stroke-linecap="round"/><path d="M237.53304,196v-32h208v32z" fill="none" fill-rule="nonzero" stroke="none" stroke-width="0" stroke-linecap="butt"/></g></g></svg>