<svg version="1.1" xmlns="http://www.w3.org/2000/svg" xmlns:xlink="http://www.w3.org/1999/xlink" width="98.15399" height="20.73831" viewBox="0,0,98.15399,20.73831"><g transform="translate(-240.597,-170.08636)"><g fill="#ffffff" fill-rule="evenodd" stroke="#ffffff" stroke-width="0.5" stroke-linecap="round" stroke-miterlimit="10"><path d="M298.62261,184.27529h-9.94958c-1.01431,1.21151 -2.2555,2.46628 -3.72358,3.76433l8.98865,-0.36778l-2.20212,-2.24994l0.98094,-1.06007c0.57389,0.56249 1.12442,1.11055 1.65159,1.64419c0.52717,0.53364 0.99095,1.00238 1.39134,1.40621c1.44139,1.47112 2.03529,2.06966 1.78171,1.79563l-1.041,1.23314c-0.22689,-0.25961 -0.64062,-0.71392 -1.24119,-1.36295l-12.37191,0.58412l-0.38037,-1.53602c1.57485,-1.21151 2.95618,-2.49513 4.14399,-3.85086h-5.74553v-1.47112h2.64254v-11.24971h12.37191v11.24971h2.7026zM262.1475,190.20303v-18.36732h15.23466v15.14384c0,0.83652 -0.08675,1.46751 -0.26025,1.89298c-0.1735,0.42547 -0.46044,0.71753 -0.86083,0.87618c-0.40039,0.15865 -0.98762,0.23797 -1.7617,0.23797h-2.48239l-0.28027,-1.64419h2.30222c0.53385,0 0.92422,-0.04327 1.17113,-0.1298c0.2469,-0.08654 0.41373,-0.256 0.50048,-0.5084c0.08675,-0.2524 0.13013,-0.65263 0.13013,-1.20069v-13.06697h-12.1517v16.7664zM338.26077,173.58807l-1.6616,5.51669c0.70735,0.99517 1.20116,1.87856 1.48143,2.65017c0.28027,0.77161 0.4204,1.5901 0.4204,2.45547c0,1.22593 -0.24023,2.0985 -0.72069,2.61772c-0.48046,0.51922 -1.28791,0.77883 -2.42233,0.77883h-1.1411l-0.30029,-1.53602h1.041c0.78742,0 1.33795,-0.15504 1.65159,-0.46513c0.31363,-0.31009 0.47045,-0.86176 0.47045,-1.65501c0,-0.69229 -0.15682,-1.399 -0.47045,-2.12014c-0.31363,-0.72114 -0.81078,-1.5216 -1.49144,-2.40138l1.62156,-5.86283h-3.36324v16.8962h-1.42137v-18.49712h6.30607zM257.463,180.03502h1.08104v1.34131h-1.08104v3.85086h-3.60347v2.61772c0,0.83652 -0.16349,1.42064 -0.49047,1.75236c-0.32698,0.33172 -0.91755,0.49758 -1.77171,0.49758h-1.62156l-0.24023,-1.40621h1.58152c0.5205,0 0.86416,-0.08293 1.03099,-0.24879c0.16683,-0.16586 0.25024,-0.48677 0.25024,-0.96272v-2.24994h-3.30318v-1.31968h3.30318v-2.53119h-3.62349v-1.34131h3.62349v-2.53119h-2.88277v-1.0168l-0.84081,-0.80046c1.29458,-1.78842 2.2822,-3.5552 2.96285,-5.30035l1.28123,0.34615c-0.14681,0.37499 -0.38037,0.90863 -0.70067,1.60092h3.88374v1.18987l-1.58152,2.61772h2.74264zM308.97257,170.58093h1.54148v4.24028h6.86661v8.91323h-6.86661v6.66329h-1.54148v-6.66329h-6.80655v-8.91323h6.80655zM248.23411,175.14572v1.18987h-2.62252v1.44948h3.3232v1.16824h-8.08778v-1.16824h3.42329v-1.44948h-2.68258v-1.18987h2.68258v-1.40621h-3.10299v-1.21151h3.10299v-1.9687h1.34129v1.9687h3.10299v1.21151h-3.10299v1.40621zM274.63953,185.59497l-1.16112,1.16824c-1.05435,-1.35573 -2.27552,-2.89896 -3.66353,-4.62969c-1.50812,1.83168 -2.99622,3.42539 -4.4643,4.78113l-0.96092,-1.31968c1.54816,-1.41343 3.02291,-2.96387 4.42426,-4.65132c-1.72166,-2.09129 -3.06962,-3.69942 -4.04389,-4.8244l1.06102,-1.03844c1.29458,1.45669 2.61585,2.99992 3.96382,4.62969c1.2145,-1.5865 2.30222,-3.21626 3.26314,-4.8893l1.26121,0.93026c-1.02766,1.7163 -2.20212,3.4326 -3.52339,5.14891c1.09439,1.29804 2.37562,2.86291 3.8437,4.69459zM330.39319,174.60487h-1.50145c-0.16015,1.34131 -0.36702,2.6033 -0.6206,3.78596h2.7026v1.55765h-10.02965v-1.55765h2.56247c-0.25358,-1.64419 -0.48714,-2.90618 -0.70067,-3.78596h-1.36131v-1.53602h3.90376c-0.1735,-0.7644 -0.37369,-1.47112 -0.60058,-2.12014l1.48143,-0.38941c0.26692,0.86536 0.49381,1.70188 0.68066,2.50955h3.48335zM243.08916,190.13812h-1.26121v-9.95167h6.16593v8.0046c0,0.66344 -0.13013,1.13218 -0.39038,1.40621c-0.26025,0.27403 -0.69066,0.41105 -1.29124,0.41105h-1.58152l-0.24023,-1.29804h1.40135c0.33365,0 0.5572,-0.0613 0.67065,-0.18389c0.11344,-0.12259 0.17016,-0.35696 0.17016,-0.70311v-1.16824h-3.64351zM323.50656,188.62374v1.44948h-1.40135v-8.15604h7.64736v6.70656zM294.47862,182.80418v-2.37975h-9.46911v2.37975zM285.00951,176.725v2.29321h9.46911v-2.29321zM285.00951,175.36206h9.46911v-2.27158h-9.46911zM315.81916,176.50866h-5.30511v5.55995h5.30511zM308.97257,176.50866h-5.24505v5.55995h5.24505zM323.50656,187.15262h4.84466v-3.69942h-4.84466zM327.53044,174.60487h-3.30318c0.347,1.78842 0.58056,3.0504 0.70067,3.78596h1.98191c0.24023,-1.12497 0.4471,-2.38696 0.6206,-3.78596zM253.19889,176.14088l1.52146,-2.46628h-2.98287c-0.48046,0.85094 -1.00096,1.67303 -1.5615,2.46628zM246.73267,184.03732h-3.64351v1.49275h3.64351zM243.08916,182.91235h3.64351v-1.47112h-3.64351zM256.2218,180.03502v-2.53119h-2.36227v2.53119zM253.85953,181.37633v2.53119h2.36227v-2.53119z"/></g></g></svg>