<svg version="1.1" xmlns="http://www.w3.org/2000/svg" xmlns:xlink="http://www.w3.org/1999/xlink" width="180" height="40" viewBox="0,0,180,40"><g transform="translate(-150,-160)"><g stroke-linecap="round" stroke-miterlimit="10"><path d="M150,160h180v40h-180z" fill="none" fill-rule="nonzero" stroke="none" stroke-width="0.2" stroke-linejoin="round"/><path d="M171.82641,178.23625h3.1256l-0.08888,1.83375c-0.079,1.90276 -0.13826,3.14497 -0.17776,3.72664c-0.02963,0.65068 -0.17282,1.09926 -0.42958,1.34573c-0.25676,0.24647 -0.69622,0.36971 -1.31838,0.36971h-1.19988l-0.20739,-1.10912h1.03693c0.38515,0 0.66166,-0.07887 0.82954,-0.23661c0.16788,-0.15774 0.2617,-0.40914 0.28145,-0.7542c0.0395,-0.52252 0.079,-1.20278 0.11851,-2.04078c0.0395,-0.838 0.06913,-1.51333 0.08888,-2.02599h-2.10348c-0.04938,1.12391 -0.13085,2.04078 -0.24442,2.75062c-0.11357,0.70984 -0.28639,1.35806 -0.51846,1.94466c-0.23208,0.5866 -0.57031,1.24961 -1.01471,1.98902l-0.94805,-0.68026c0.45427,-0.74927 0.79498,-1.43939 1.02212,-2.07036c0.22714,-0.63097 0.39008,-1.36545 0.48884,-2.20345c0.09875,-0.838 0.16295,-1.9767 0.19257,-3.41609c0.01975,-0.25633 0.0395,-0.82321 0.05925,-1.70065h-1.28875v-1.1387h2.85896c-0.43452,-1.2225 -0.68141,-1.90276 -0.74066,-2.04078l1.06656,-0.29577c0.05925,0.13802 0.18764,0.47076 0.38515,0.99821c0.19751,0.52745 0.35058,0.97356 0.45921,1.33834h2.10348v1.1387h-3.77738l-0.04444,1.86332zM182.35865,184.99449l-0.68141,1.02039c-1.22456,-0.86758 -2.23187,-1.81896 -3.02191,-2.85414c-0.78017,0.99574 -1.85166,1.98163 -3.21448,2.95765l-0.74066,-0.99081c1.43195,-0.92673 2.53307,-1.90276 3.30336,-2.92808c-0.74066,-1.26193 -1.26407,-2.68161 -1.57021,-4.25902c-0.28639,0.48308 -0.53328,0.86265 -0.74066,1.1387l-0.65178,-1.06476c0.47402,-0.61125 0.94311,-1.44432 1.40726,-2.49922c0.46415,-1.0549 0.79498,-2.05064 0.99249,-2.98723l1.111,0.17746c-0.16788,0.72955 -0.39996,1.47883 -0.69622,2.24782h4.44398v1.16827h-1.18506c-0.14813,1.31123 -0.36046,2.44746 -0.63697,3.4087c-0.27651,0.96124 -0.65672,1.84114 -1.14062,2.63971c0.79004,1.06476 1.79734,2.00628 3.02191,2.82456zM180.03296,176.12153h-2.65158l-0.16295,0.36971c0.21726,1.80417 0.7061,3.36187 1.46651,4.67309c0.36539,-0.6704 0.65672,-1.41474 0.87398,-2.23303c0.21726,-0.81828 0.37527,-1.75488 0.47402,-2.80977z" fill="#ffffff" fill-rule="evenodd" stroke="#ffffff" stroke-width="0.4" stroke-linejoin="miter"/><path d="M197.17192,184.90576l-0.71104,1.10912c-2.9429,-1.71544 -4.87357,-3.8203 -5.79199,-6.31459c-0.45427,1.26193 -1.18259,2.41542 -2.18496,3.46045c-1.00236,1.04504 -2.21952,2.0112 -3.65147,2.8985l-0.72585,-1.12391c1.69859,-0.94645 3.06882,-2.05311 4.11068,-3.31997c1.04187,-1.26686 1.62699,-2.689 1.75537,-4.26642h-5.62904v-1.1387h5.64386v-3.63791h1.18506v3.63791h5.6883v1.1387h-5.70311c-0.00988,0.0493 -0.01481,0.12324 -0.01481,0.22182c0.32589,1.58728 0.97027,2.96751 1.93313,4.14072c0.96286,1.1732 2.32815,2.23796 4.09587,3.19427z" fill="#ffffff" fill-rule="evenodd" stroke="#ffffff" stroke-width="0.4" stroke-linejoin="miter"/><path d="M210.32611,175.53h1.62946v1.1387h-1.62946v7.24625c0,0.51266 -0.06172,0.90455 -0.18517,1.17567c-0.12344,0.27112 -0.33824,0.46337 -0.64438,0.57674c-0.30614,0.11338 -0.75054,0.17007 -1.33319,0.17007h-1.82203l-0.2222,-1.18306h1.71834c0.4049,0 0.69869,-0.02711 0.88139,-0.08134c0.1827,-0.05422 0.30614,-0.15528 0.37033,-0.30316c0.06419,-0.14788 0.09629,-0.37957 0.09629,-0.69505v-6.90612h-4.54768v-1.1387h4.54768v-2.95765h1.14062zM200.57898,184.37338v1.09433h-1.06656v-11.71231h4.50324v10.61798zM202.96391,179.59677h-2.38494v3.60834h2.38494zM200.57898,178.50244h2.38494v-3.59355h-2.38494zM207.95599,181.22348l-0.96286,0.51759c-0.23701,-0.47322 -0.54562,-1.05736 -0.92583,-1.75241c-0.38021,-0.69505 -0.69376,-1.24961 -0.94064,-1.66368l0.90361,-0.5028c0.29627,0.48308 0.63697,1.06476 1.02212,1.74502c0.38515,0.68026 0.68635,1.23236 0.90361,1.65629z" fill="#ffffff" fill-rule="evenodd" stroke="#ffffff" stroke-width="0.4" stroke-linejoin="miter"/><path d="M218.74005,183.54524l-0.90361,0.56195c-0.46415,-0.90701 -0.89373,-1.73023 -1.28875,-2.46964c-0.5629,1.28165 -1.33319,2.60274 -2.31087,3.96326l-0.65178,-1.06476c1.0073,-1.31123 1.78747,-2.68161 2.3405,-4.11114c-0.19751,-0.35492 -0.34071,-0.62111 -0.42958,-0.79857c-0.62216,-1.15348 -1.18506,-2.18373 -1.68871,-3.09075l0.84436,-0.53238c0.30614,0.51266 0.79004,1.38024 1.4517,2.60274l0.26664,0.48801c0.31602,-1.12391 0.57772,-2.46471 0.7851,-4.02241h-3.43668v-1.09433h4.53286v1.09433c-0.24689,1.99149 -0.64685,3.76115 -1.19988,5.30899c0.45427,0.81828 1.01718,1.87318 1.68871,3.16469zM225.67266,182.03684l1.02212,0.23661l-0.01481,0.6359l-0.04444,1.22743c-0.01975,0.40421 -0.08147,0.71477 -0.18517,0.93166c-0.10369,0.2169 -0.27405,0.37217 -0.51106,0.46583c-0.23701,0.09366 -0.57772,0.14049 -1.02212,0.14049h-1.09618c-0.53328,0 -0.91102,-0.11338 -1.13322,-0.34013c-0.2222,-0.22675 -0.3333,-0.62604 -0.3333,-1.19785v-2.41049c-0.32589,0.86758 -0.81967,1.65629 -1.48133,2.36612c-0.66166,0.70984 -1.55539,1.4246 -2.6812,2.1443l-0.71104,-0.90208c1.13568,-0.69012 2.01214,-1.36299 2.62936,-2.0186c0.61722,-0.65561 1.05421,-1.37531 1.31097,-2.15909c0.25676,-0.78378 0.39996,-1.75241 0.42958,-2.90589c0.00988,-0.40421 0.01975,-0.89962 0.02963,-1.48622c0.00988,-0.5866 0.01481,-1.08201 0.01481,-1.48622h1.08137l-0.04444,3.12032c-0.02963,0.81828 -0.10863,1.54784 -0.23701,2.18866h0.69622v3.1499c0,0.25633 0.02222,0.44365 0.06666,0.56195c0.04444,0.11831 0.12591,0.19718 0.24442,0.23661c0.11851,0.03943 0.3012,0.05915 0.54809,0.05915h0.45921c0.26664,0 0.46168,-0.01972 0.58512,-0.05915c0.12344,-0.03943 0.20985,-0.11584 0.25923,-0.22922c0.04938,-0.11338 0.079,-0.29823 0.08888,-0.55456c0.01975,-0.5521 0.02963,-1.12391 0.02963,-1.71544zM224.72461,181.53404v-7.14273h-4.53286v7.17231h-1.06656v-8.26664h6.65116v8.23707z" fill="#ffffff" fill-rule="evenodd" stroke="#ffffff" stroke-width="0.4" stroke-linejoin="miter"/><path d="M235.7605,182.00726v-7.48286h-2.91821v7.54202h-0.94805v-8.59198h4.82913v8.53283zM234.78283,175.36733v3.94847c0,1.01546 -0.07407,1.87811 -0.2222,2.58795c0.99743,1.01546 1.87141,1.93233 2.62195,2.75062l-0.72585,0.7542c-0.93817,-1.06476 -1.6739,-1.8929 -2.20718,-2.48443c-0.22714,0.54224 -0.54315,1.04504 -0.94805,1.5084c-0.4049,0.46337 -0.94805,0.97603 -1.62946,1.53798l-0.75548,-0.78378c0.83942,-0.64083 1.45664,-1.21757 1.85166,-1.73023c0.39502,-0.51266 0.66413,-1.07461 0.80732,-1.68586c0.14319,-0.61125 0.21479,-1.42953 0.21479,-2.45485v-3.94847zM240.02672,183.92973v-11.0912h0.93324v11.40176c0,0.41407 -0.05432,0.73202 -0.16295,0.95384c-0.10863,0.22182 -0.29133,0.38203 -0.54809,0.48062c-0.25676,0.09859 -0.62216,0.14788 -1.09618,0.14788h-1.21469l-0.20739,-1.02039h1.18506c0.30614,0 0.53575,-0.02218 0.68882,-0.06655c0.15307,-0.04436 0.2617,-0.12816 0.32589,-0.2514c0.06419,-0.12324 0.09629,-0.30809 0.09629,-0.55456zM237.89361,182.61358v-8.48847h0.91842v8.48847zM230.14627,180.3214l0.51846,0.16267l0.47402,0.16267c-0.07901,0.23661 -0.30367,1.01053 -0.674,2.32176c-0.37033,1.31123 -0.63944,2.29711 -0.80732,2.95765l-1.0073,-0.34013c0.14813,-0.40421 0.41477,-1.28165 0.79992,-2.63231c0.38515,-1.35066 0.61722,-2.2281 0.69622,-2.63231zM231.21283,178.31019l-0.68141,0.85772c-0.72091,-0.69012 -1.44182,-1.33587 -2.16274,-1.93726l0.65178,-0.81335c1.03693,0.86758 1.76772,1.49855 2.19236,1.8929zM231.49428,174.67228l-0.65178,0.84293c-0.29627,-0.30562 -0.65672,-0.65068 -1.08137,-1.03518c-0.42465,-0.38449 -0.76041,-0.6704 -1.0073,-0.85772l0.60734,-0.81335c0.70116,0.57181 1.4122,1.19292 2.13311,1.86332z" fill="#ffffff" fill-rule="evenodd" stroke="#ffffff" stroke-width="0.4" stroke-linejoin="miter"/><path d="M250.0405,175.18987v1.67107h4.75506v4.77661h-9.86564v-4.77661h3.92552v-4.25902h1.18506v1.47883h5.86606v1.10912zM246.04091,177.97006v2.58795h7.64365v-2.58795zM244.32257,186.14798l-0.99249,-0.57674c0.33577,-0.49294 0.66413,-1.05982 0.98508,-1.70065c0.32095,-0.64083 0.56537,-1.21264 0.73326,-1.71544l1.0073,0.41407c-0.19751,0.53238 -0.45921,1.12884 -0.7851,1.78938c-0.32589,0.66054 -0.64191,1.257 -0.94805,1.78938zM253.49199,182.59879l0.96286,-0.45844c0.59253,0.99574 1.19988,2.08515 1.82203,3.26821l-0.96286,0.57674c-0.31602,-0.65068 -0.92336,-1.77952 -1.82203,-3.38651zM250.41083,182.68752l0.99249,-0.31055c0.18763,0.43379 0.39255,0.95384 0.61475,1.56016c0.2222,0.60632 0.39255,1.11158 0.51106,1.5158l-1.03693,0.29577c-0.20739,-0.74927 -0.56784,-1.76966 -1.08137,-3.06117zM247.24079,182.73189l1.03693,-0.22182c0.22714,0.8873 0.45921,1.93726 0.69622,3.1499l-1.09618,0.23661c-0.09876,-0.6704 -0.28639,-1.61685 -0.5629,-2.83935z" fill="#ffffff" fill-rule="evenodd" stroke="#ffffff" stroke-width="0.4" stroke-linejoin="miter"/><path d="M263.9946,182.62837h-1.21469v2.27739l2.26643,-0.56195l0.02963,0.84293l-3.49593,0.94645l-0.32589,-0.78378c0.21726,-0.08873 0.35552,-0.16267 0.41477,-0.22182c0.05925,-0.05915 0.08888,-0.13802 0.08888,-0.23661v-2.26261h-1.37763c-0.07901,0.6704 -0.23207,1.27919 -0.45921,1.82635c-0.22714,0.54717 -0.54809,1.0968 -0.96286,1.64889l-0.93324,-0.65068c0.54315,-0.69998 0.91349,-1.37038 1.111,-2.0112c0.19751,-0.64083 0.29627,-1.49362 0.29627,-2.55837v-2.12951h11.18402v0.73941h-10.14709v1.62671c0,0.3352 -0.00494,0.58167 -0.01481,0.73941h10.45817v0.76899h-5.77718c0.55303,0.58167 1.18012,1.04011 1.88129,1.37531c1.26407,-0.57181 2.14792,-0.99574 2.65158,-1.27179l0.4444,0.76899c-0.36539,0.17746 -1.03199,0.48308 -1.99979,0.91687c0.87892,0.24647 1.94548,0.42886 3.19967,0.54717l-0.42958,0.91687c-1.17519,-0.14788 -2.17755,-0.35492 -3.00709,-0.62111c-0.82954,-0.26619 -1.55292,-0.60878 -2.17014,-1.02778c-0.61722,-0.419 -1.18753,-0.95384 -1.71093,-1.60453zM264.20199,178.2954v-2.76541h-4.38473v1.90769h-1.05174v-2.6471h5.43647v-0.79857h-4.91801v-0.82814h10.94701v0.82814h-4.99207v0.79857h5.49572v2.6471h-1.03693v-1.90769h-4.4588v2.76541zM261.0912,180.3214h8.84352v0.72463h-8.84352zM260.6468,176.87573v-0.66547h2.7849v0.66547zM266.06846,176.87573v-0.66547h2.77008v0.66547zM263.4317,177.43768v0.65068h-2.7849v-0.65068zM266.08327,178.08837v-0.65068h2.77008v0.65068z" fill="#ffffff" fill-rule="evenodd" stroke="#ffffff" stroke-width="0.4" stroke-linejoin="miter"/><path d="M277.59319,177.55599h-2.3405v1.257c0,1.2225 -0.04691,2.24042 -0.14073,3.05378c-0.09382,0.81335 -0.23948,1.53059 -0.43699,2.15169c-0.19751,0.62111 -0.47402,1.3063 -0.82954,2.05557l-0.97768,-0.57674c0.35552,-0.75913 0.62216,-1.42953 0.79992,-2.0112c0.17776,-0.58167 0.30614,-1.25207 0.38515,-2.0112c0.079,-0.75913 0.11851,-1.75488 0.11851,-2.98723v-4.46606h5.51054c-0.08888,-0.37464 -0.18763,-0.72463 -0.29627,-1.04997c-0.01975,-0.06901 -0.0395,-0.13556 -0.05925,-0.19964c-0.01975,-0.06408 -0.03457,-0.12077 -0.04444,-0.17007l1.24432,-0.14788c0.17776,0.59153 0.33083,1.11405 0.45921,1.56756h4.87357v0.99081h-2.44419v1.61192h2.39975v0.93166h-2.39975v2.20345h-5.82162zM285.99231,184.87618l-0.35552,1.10912c-1.16531,-0.18732 -2.17261,-0.39189 -3.02191,-0.61371c-0.8493,-0.22182 -1.61959,-0.49048 -2.31087,-0.80596c-1.30357,0.57181 -2.95772,1.07461 -4.96245,1.5084l-0.4444,-1.03518c1.70846,-0.29577 3.13054,-0.65068 4.26622,-1.06476c-0.9283,-0.57181 -1.87141,-1.35066 -2.82934,-2.33655v-0.91687h8.02879v0.93166c-0.76041,0.92673 -1.69859,1.69572 -2.81452,2.30697c1.08631,0.37464 2.56764,0.68026 4.44398,0.91687zM282.94078,181.63755h-5.08095c0.77029,0.78871 1.59983,1.39996 2.48863,1.83375c1.03693,-0.49294 1.90104,-1.10419 2.59232,-1.83375zM278.64493,175.01241v1.61192h3.68851v-1.61192zM278.64493,177.55599v1.27179h3.68851v-1.27179zM275.25269,176.62433h2.3405v-1.61192h-2.3405z" fill="#ffffff" fill-rule="evenodd" stroke="#ffffff" stroke-width="0.4" stroke-linejoin="miter"/></g></g></svg>