<svg version="1.1" xmlns="http://www.w3.org/2000/svg" xmlns:xlink="http://www.w3.org/1999/xlink" width="208" height="80" viewBox="0,0,208,80"><g transform="translate(-136,-140)"><g stroke-miterlimit="10"><path d="M136,220v-80h208v80z" fill-opacity="0" fill="#000000" fill-rule="nonzero" stroke="none" stroke-width="1" stroke-linecap="butt"/><path d="M218.03718,163.47752h-4.92523c0.6621,0.99991 1.43568,1.90185 2.32073,2.70583c0.88505,0.80398 1.92212,1.53702 3.1112,2.19912l-0.85127,1.37825c-2.13494,-1.29718 -3.92532,-3.04702 -5.37113,-5.24952v6.46562h-1.45933v-6.28321c-0.70264,1.01342 -1.50324,1.92888 -2.40181,2.74637c-0.89857,0.81749 -1.96266,1.59783 -3.19228,2.341l-0.87154,-1.27691c1.35123,-0.75669 2.47612,-1.53027 3.37469,-2.32073c0.89857,-0.79047 1.70592,-1.69241 2.42208,-2.70583h-4.74281v-1.41879h5.41167v-2.41194h1.45933v2.41194h5.71569zM216.17248,157.43754v-2.29033h-9.01945v2.27006h-1.39852v-3.68885h11.83675v3.70912zM200.93063,170.28771l2.16872,-6.91153l0.74993,0.18242l0.66886,0.22295l-2.16872,6.95207zM209.97035,156.48492l0.91208,1.07423c-1.28367,1.24313 -2.79704,2.45248 -4.54013,3.62805l-0.81074,-1.23637c0.79722,-0.48644 1.59107,-1.03707 2.38154,-1.65188c0.79047,-0.61481 1.47622,-1.21948 2.05724,-1.81402zM212.28095,157.59968l0.74993,-1.13503c0.75669,0.48644 2.32411,1.58769 4.70227,3.30375l-0.83101,1.17557c-0.68913,-0.52698 -1.50324,-1.13503 -2.44234,-1.82416c-0.9391,-0.68913 -1.66539,-1.19584 -2.17885,-1.52013zM204.88298,160.70075l-0.91208,1.23637c-0.49995,-0.45942 -1.11476,-0.99991 -1.84443,-1.62147c-0.72966,-0.62156 -1.31745,-1.10125 -1.76335,-1.43906l0.89181,-1.1553c1.10801,0.85127 2.31736,1.84443 3.62805,2.97946zM205.38969,155.89714l-0.93235,1.27691c-0.52698,-0.48644 -1.12827,-1.0168 -1.80389,-1.59107c-0.67561,-0.57427 -1.2161,-1.0168 -1.62147,-1.32758l0.89181,-1.13503c1.47284,1.12152 2.62814,2.04711 3.4659,2.77677z" fill="#ffffff" fill-rule="evenodd" stroke="#ffffff" stroke-width="0.5" stroke-linecap="round"/><path d="M237.49486,157.13351v7.35744h-3.4659v3.95234c0,0.56752 -0.06081,1.00666 -0.18242,1.31745c-0.12161,0.31078 -0.33443,0.53036 -0.63846,0.65872c-0.30403,0.12837 -0.73304,0.19255 -1.28704,0.19255h-1.66201l-0.28376,-1.37825h1.43906c0.35132,0 0.61143,-0.03716 0.78033,-0.11148c0.1689,-0.07432 0.28376,-0.20606 0.34456,-0.39523c0.06081,-0.18917 0.09121,-0.47293 0.09121,-0.85127v-3.38483h-3.4659v-7.35744h2.55382c0.2162,-0.67561 0.42564,-1.40528 0.62832,-2.18899h-4.82388v5.20898c0,1.71606 -0.06756,3.16187 -0.20268,4.33744c-0.13512,1.17557 -0.36483,2.27006 -0.68913,3.28348c-0.32429,1.01342 -0.79722,2.10116 -1.41879,3.26321l-1.35798,-0.62832c0.60805,-1.16206 1.07085,-2.21939 1.38839,-3.17201c0.31754,-0.95262 0.53711,-1.96604 0.65872,-3.04026c0.12161,-1.07423 0.18242,-2.40181 0.18242,-3.98274v-6.70885h12.68803v1.43906h-4.94549c-0.17566,0.6621 -0.37834,1.39176 -0.60805,2.18899zM222.98267,162.86947l0.70939,0.16215l0.66886,0.16215c-0.04054,0.20268 -0.21957,0.9391 -0.53711,2.20926c-0.31754,1.27015 -0.58441,2.32411 -0.8006,3.16187l-0.54725,2.12818l-1.37825,-0.3851c1.13503,-4.32393 1.76335,-6.80343 1.88496,-7.43851zM236.0558,163.2343v-1.80389h-5.49274v1.80389zM230.56306,160.19404h5.49274v-1.76335h-5.49274zM229.85366,165.46383l1.13503,0.68913c-0.39186,0.68913 -0.86141,1.42555 -1.40865,2.20926c-0.54725,0.78371 -1.08436,1.47959 -1.61134,2.08765l-1.07423,-0.85127c0.58103,-0.63508 1.13165,-1.31069 1.65188,-2.02684c0.52022,-0.71615 0.95599,-1.41879 1.30731,-2.10792zM234.96131,166.23403l1.05396,-0.72966c0.41888,0.54049 0.92897,1.22286 1.53027,2.04711c0.6013,0.82425 1.06409,1.47959 1.38839,1.96604l-1.11476,0.81074c-0.33781,-0.54049 -0.8006,-1.23637 -1.38839,-2.08765c-0.58778,-0.85127 -1.0776,-1.52013 -1.46946,-2.00657zM225.02978,160.25485l-0.91208,1.2161c-0.54049,-0.47293 -1.14854,-0.99315 -1.82416,-1.56067c-0.67561,-0.56752 -1.23637,-1.02693 -1.68228,-1.37825l0.81074,-1.17557c0.79722,0.60805 1.80389,1.41879 3.01999,2.43221c0.13512,0.09459 0.24998,0.18242 0.34456,0.26349c0.09459,0.08107 0.17566,0.14864 0.24322,0.20268zM225.5973,155.61338l-0.87154,1.25664c-0.67561,-0.64859 -1.78362,-1.60796 -3.32402,-2.87812l0.85127,-1.11476c0.91884,0.71615 2.0336,1.62823 3.34429,2.73624z" fill="#ffffff" fill-rule="evenodd" stroke="#ffffff" stroke-width="0.5" stroke-linecap="round"/><path d="M257.43898,165.418l1.43906,0.32429c0,0.40537 -0.02702,1.05396 -0.08107,1.94577l-0.02027,0.66886c-0.04054,0.554 -0.14864,0.98302 -0.32429,1.28704c-0.17566,0.30403 -0.45942,0.52022 -0.85127,0.64859c-0.39186,0.12837 -0.94586,0.19255 -1.66201,0.19255h-5.14818c-0.67561,0 -1.20597,-0.07094 -1.59107,-0.21282c-0.3851,-0.14188 -0.66548,-0.39186 -0.84114,-0.74993c-0.17566,-0.35808 -0.26349,-0.87492 -0.26349,-1.55053v-6.97234l-1.70255,0.58778l-0.3851,-1.43906l2.08765,-0.70939v-5.0063h1.43906v4.51986l2.51328,-0.87154v-5.43194h1.41879v4.96576l4.31717,-1.47959l-0.22295,7.23582c-0.04054,0.554 -0.12161,0.97288 -0.24322,1.25664c-0.12161,0.28376 -0.33105,0.48644 -0.62832,0.60805c-0.29727,0.12161 -0.72966,0.18242 -1.29718,0.18242h-1.09449l-0.28376,-1.49986h0.72966c0.39186,0 0.68237,-0.0304 0.87154,-0.09121c0.18917,-0.06081 0.32092,-0.17228 0.39523,-0.33443c0.07432,-0.16215 0.11823,-0.41888 0.13174,-0.7702l0.18242,-4.54013l-2.85785,0.97288v8.02629h-1.41879v-7.53985l-2.51328,0.87154v6.85072c0,0.48644 0.03378,0.84452 0.10134,1.07423c0.06756,0.22971 0.20606,0.39186 0.4155,0.48644c0.20944,0.09459 0.53711,0.14188 0.98302,0.14188h4.33744c0.56752,0 0.98302,-0.03378 1.24651,-0.10134c0.26349,-0.06756 0.44928,-0.20268 0.55738,-0.40537c0.1081,-0.20268 0.17566,-0.52698 0.20268,-0.97288zM244.83202,159.39828v7.01287l2.33087,-0.74993l0.12161,0.74993l0.08107,0.64859l-6.01972,1.96604l-0.3851,-1.35798l2.43221,-0.79047v-7.47905h-2.12818v-1.47959h2.12818v-4.86442h1.43906v4.86442h1.72282v1.47959z" fill="#ffffff" fill-rule="evenodd" stroke="#ffffff" stroke-width="0.5" stroke-linecap="round"/><path d="M268.74436,166.21376h-1.66201v3.12134l3.10107,-0.7702l0.04054,1.1553l-4.78335,1.29718l-0.44591,-1.07423c0.29727,-0.12161 0.48644,-0.22295 0.56752,-0.30403c0.08107,-0.08107 0.12161,-0.18917 0.12161,-0.32429v-3.10107h-1.88496c-0.1081,0.91884 -0.31754,1.75322 -0.62832,2.50315c-0.31078,0.74993 -0.74993,1.50324 -1.31745,2.25993l-1.27691,-0.89181c0.74317,-0.95937 1.24989,-1.87821 1.52013,-2.7565c0.27025,-0.8783 0.40537,-2.04711 0.40537,-3.50644v-2.91865h15.30265v1.01342h-13.88386v2.22953c0,0.45942 -0.00676,0.79722 -0.02027,1.01342h14.3095v1.05396h-7.90468c0.75669,0.79722 1.61472,1.42555 2.57409,1.88496c1.72957,-0.78371 2.93892,-1.36474 3.62805,-1.74308l0.60805,1.05396c-0.49995,0.24322 -1.41203,0.6621 -2.73624,1.25664c1.20259,0.33781 2.66192,0.58778 4.37798,0.74993l-0.58778,1.25664c-1.60796,-0.20268 -2.97946,-0.48644 -4.11449,-0.85127c-1.13503,-0.36483 -2.12481,-0.83438 -2.96932,-1.40865c-0.84452,-0.57427 -1.62485,-1.30731 -2.341,-2.19912zM269.02811,160.27511v-3.79019h-5.99945v2.61463h-1.43906v-3.62805h7.43851v-1.09449h-6.72911v-1.13503h14.97836v1.13503h-6.83046v1.09449h7.51958v3.62805h-1.41879v-2.61463h-6.10079v3.79019zM264.77175,163.05189h12.10024v0.99315h-12.10024zM264.16369,158.32935v-0.91208h3.81046v0.91208zM271.58193,158.32935v-0.91208h3.79019v0.91208zM267.97416,159.09955v0.89181h-3.81046v-0.89181zM271.6022,159.99136v-0.89181h3.79019v0.89181z" fill="#ffffff" fill-rule="evenodd" stroke="#ffffff" stroke-width="0.5" stroke-linecap="round"/><path d="M192.92342,198.04787h-2.49883v4.69293l4.66246,-1.158l0.06095,1.73699l-7.19177,1.95031l-0.67042,-1.6151c0.44695,-0.18284 0.73137,-0.33521 0.85326,-0.4571c0.12189,-0.12189 0.18284,-0.28442 0.18284,-0.48758v-4.66246h-2.83404c-0.16253,1.38147 -0.47742,2.63597 -0.94468,3.76349c-0.46726,1.12752 -1.12752,2.26012 -1.98078,3.39781l-1.91984,-1.34084c1.11736,-1.44242 1.8792,-2.82389 2.28552,-4.14441c0.40632,-1.32052 0.60947,-3.07783 0.60947,-5.27193v-4.3882h23.00756v1.52368h-20.87441v3.35209c0,0.69073 -0.01016,1.19863 -0.03047,1.52368h21.51435v1.58463h-11.8847c1.13768,1.19863 2.42773,2.14331 3.87015,2.83404c2.60041,-1.17831 4.41867,-2.05189 5.45477,-2.62073l0.91421,1.58463c-0.75168,0.36568 -2.12299,0.99547 -4.11393,1.88936c1.8081,0.50789 4.0022,0.88373 6.58229,1.12752l-0.88373,1.88936c-2.41757,-0.30474 -4.47962,-0.73137 -6.18614,-1.27989c-1.70652,-0.54852 -3.19465,-1.2545 -4.46438,-2.11791c-1.26973,-0.86342 -2.44297,-1.96555 -3.5197,-3.30638zM193.35005,189.11911v-5.69856h-9.02018v3.93109h-2.16362v-5.45477h11.18381v-1.64557h-10.11723v-1.70652h22.51998v1.70652h-10.2696v1.64557h11.3057v5.45477h-2.13315v-3.93109h-9.17255v5.69856zM186.9506,193.29399h18.19273v1.49321h-18.19273zM186.03639,186.19365v-1.37131h5.72903v1.37131zM197.18972,186.19365v-1.37131h5.69856v1.37131zM191.76542,187.35164v1.34084h-5.72903v-1.34084zM197.2202,188.69248v-1.34084h5.69856v1.34084z" fill="#ffffff" fill-rule="evenodd" stroke="#ffffff" stroke-width="0.5" stroke-linecap="round"/><path d="M220.89817,187.59543h-4.81483v2.59025c0,2.51915 -0.0965,4.61675 -0.2895,6.2928c-0.193,1.67605 -0.49266,3.15402 -0.89897,4.43391c-0.40632,1.27989 -0.97515,2.69183 -1.70652,4.23583l-2.01126,-1.18847c0.73137,-1.56431 1.27989,-2.94578 1.64557,-4.14441c0.36568,-1.19863 0.62979,-2.5801 0.79231,-4.14441c0.16253,-1.56431 0.24379,-3.6162 0.24379,-6.15566v-9.20302h11.33617c-0.18284,-0.772 -0.386,-1.49321 -0.60947,-2.16362c-0.04063,-0.14221 -0.08126,-0.27934 -0.12189,-0.41139c-0.04063,-0.13205 -0.07111,-0.24887 -0.09142,-0.35045l2.55978,-0.30474c0.36568,1.21894 0.68058,2.29568 0.94468,3.2302h10.02581v2.04173h-5.02814v3.32162h4.93672v1.91984h-4.93672v4.54056h-11.97612zM238.1767,202.67986l-0.73137,2.28552c-2.39726,-0.386 -4.46946,-0.80755 -6.21661,-1.26465c-1.74715,-0.4571 -3.33178,-1.01071 -4.75388,-1.66081c-2.68168,1.17831 -6.08456,2.21441 -10.20865,3.10831l-0.91421,-2.13315c3.51462,-0.60947 6.44009,-1.34084 8.77639,-2.1941c-1.90968,-1.17831 -3.84983,-2.78325 -5.82046,-4.81483v-1.88936h16.51668v1.91984c-1.56431,1.90968 -3.4943,3.4943 -5.78998,4.75388c2.23473,0.772 5.28209,1.40179 9.14208,1.88936zM231.89914,196.00614h-10.45244c1.58463,1.62526 3.29115,2.88483 5.11956,3.77872c2.13315,-1.01579 3.91078,-2.27536 5.33288,-3.77872zM223.0618,182.35397v3.32162h7.58792v-3.32162zM223.0618,187.59543v2.62073h7.58792v-2.62073zM216.08335,185.6756h4.81483v-3.32162h-4.81483z" fill="#ffffff" fill-rule="evenodd" stroke="#ffffff" stroke-width="0.5" stroke-linecap="round"/><path d="M267.88845,181.68356h-9.50776c-0.62979,1.158 -1.29005,2.2652 -1.98078,3.32162v20.17352h-2.43789v-16.76047c-2.8442,3.59588 -6.35882,7.00893 -10.54386,10.23913l-1.55415,-2.13315c3.04736,-2.13315 5.73411,-4.4593 8.06026,-6.97845c2.32615,-2.51915 4.23075,-5.13988 5.7138,-7.86219h-12.85985v-2.37694h25.11024zM257.83216,189.97237l1.43226,-1.85889c4.10378,3.4943 7.21208,6.24709 9.32492,8.25834l-1.70652,2.01126c-1.72684,-1.78778 -4.74372,-4.59135 -9.05066,-8.41071z" fill="#ffffff" fill-rule="evenodd" stroke="#ffffff" stroke-width="0.5" stroke-linecap="round"/><path d="M285.23495,178.91046h11.36665v22.12382c0,0.91421 -0.11682,1.62526 -0.35045,2.13315c-0.23363,0.50789 -0.62979,0.8685 -1.18847,1.08181c-0.55868,0.21332 -1.33576,0.31997 -2.33123,0.31997h-2.98641l-0.4571,-2.25505h2.98641c0.60947,0 1.06658,-0.05079 1.37131,-0.15237c0.30474,-0.10158 0.51297,-0.28442 0.62471,-0.54852c0.11174,-0.2641 0.1676,-0.66026 0.1676,-1.18847v-4.51009h-7.34413c-0.30474,1.97062 -0.87358,3.65683 -1.70652,5.05862c-0.83295,1.40179 -2.10268,2.89499 -3.8092,4.47962l-1.82842,-1.43226c1.68621,-1.52368 2.90007,-2.86452 3.64159,-4.02251c0.74152,-1.158 1.23418,-2.51407 1.47797,-4.06822c0.24379,-1.55415 0.36568,-3.83459 0.36568,-6.84132zM272.86268,179.58088h9.08113v20.14304h-7.0394v2.10268h-2.04173zM287.42905,186.49838h7.00893v-5.3024h-7.00893zM287.30716,193.7511h7.13082v-5.08909h-7.00893v1.55415c0,1.40179 -0.04063,2.5801 -0.12189,3.53494zM279.8716,190.70374h-4.96719v6.79561h4.96719zM274.90441,188.47917h4.96719v-6.64324h-4.96719z" fill="#ffffff" fill-rule="evenodd" stroke="#ffffff" stroke-width="0.5" stroke-linecap="round"/></g></g></svg>