<svg version="1.1" xmlns="http://www.w3.org/2000/svg" xmlns:xlink="http://www.w3.org/1999/xlink" width="208.13332" height="32" viewBox="0,0,208.13332,32"><g transform="translate(-239.86668,-164)"><g stroke-miterlimit="10"><path d="M265.31705,186.45071v1.46926h6.85573v1.24163h-14.92532v-1.24163h6.82154v-1.46926h-5.71026v-1.15885h5.71026v-1.44857h-5.11188v-6.353h5.11188v-1.44857h-6.80444v-1.22094h6.80444v-1.63481c-2.42772,0.12416 -4.30834,0.19314 -5.64187,0.20694l-0.05129,-1.3451c1.76665,-0.02759 3.88377,-0.10347 6.35138,-0.22763c2.46761,-0.12416 4.48785,-0.25522 6.06074,-0.39318l0.17097,1.3244c-1.76665,0.15176 -3.64727,0.27592 -5.64187,0.37249v1.69689h6.83864v1.22094h-6.83864v1.44857h5.14607v6.353h-5.14607v1.44857h5.76155v1.15885zM323.39416,173.10319v1.46926h-6.80444v2.06938h5.77865v10.55385c0,0.63461 -0.05984,1.12092 -0.17951,1.45891c-0.11968,0.338 -0.31344,0.57253 -0.58128,0.70359c-0.26785,0.13106 -0.65252,0.19659 -1.15402,0.19659h-2.10288l-0.23935,-1.44857h1.86353c0.33053,0 0.56989,-0.03104 0.71806,-0.09312c0.14817,-0.06208 0.2479,-0.17935 0.29919,-0.3518c0.05129,-0.17245 0.07693,-0.44492 0.07693,-0.81741v-8.77418h-10.36053v11.50577h-1.24805v-12.93364h5.81284v-2.06938h-6.87283v-1.46926h6.87283v-2.25563h1.31644v2.25563zM305.30597,180.07701v1.53134h-5.31704v5.46317c0,0.91053 -0.17667,1.54859 -0.52999,1.91418c-0.35333,0.36559 -0.93461,0.54839 -1.74385,0.54839h-1.84643l-0.22226,-1.63481h1.74385c0.35333,0 0.61548,-0.03104 0.78644,-0.09312c0.17097,-0.06208 0.28779,-0.17935 0.35048,-0.3518c0.06269,-0.17245 0.09403,-0.43802 0.09403,-0.79671v-5.04929h-5.77865v-1.55204c0.61548,-1.11747 1.37912,-2.73158 2.29094,-4.84236h-3.53899v-1.55204h4.20576c0.45591,-1.11747 0.83203,-2.11077 1.12837,-2.97991l1.29934,0.62081c-0.18236,0.59322 -0.47301,1.37959 -0.87193,2.3591h8.66797v1.55204h-9.31764c-0.9802,2.30391 -1.73245,3.92493 -2.25675,4.86305h4.17157v-3.62142h1.36773v3.62142zM289.35485,184.00883h-8.497c-0.86623,1.15885 -1.92622,2.3591 -3.17997,3.60073l7.67637,-0.3518l-1.88062,-2.15216l0.83773,-1.014c0.4901,0.53804 0.96026,1.06228 1.41047,1.57273c0.45021,0.51045 0.84628,0.95881 1.18821,1.3451c1.23095,1.40718 1.73815,1.97971 1.5216,1.71759l-0.88902,1.17955c-0.19376,-0.24833 -0.54709,-0.6829 -1.05999,-1.30371l-10.56569,0.55873l-0.32484,-1.46926c1.34493,-1.15885 2.5246,-2.38669 3.53899,-3.6835h-4.90672v-1.40718h2.25675v-10.76079h10.56569v10.76079h2.30804zM340.66171,180.73921v1.40718h-1.76095l-0.10258,3.20754h1.53869v1.42787h-1.57289l-0.0171,0.37249c-0.03419,0.63461 -0.12822,1.12436 -0.28209,1.46926c-0.15387,0.3449 -0.39322,0.58977 -0.71806,0.73463c-0.32484,0.14486 -0.77789,0.21729 -1.35918,0.21729h-2.54739l-0.25645,-1.44857h2.39352c0.56989,0 0.96596,-0.09312 1.18821,-0.27937c0.22226,-0.18624 0.34478,-0.52769 0.36758,-1.02434v-0.04139h-7.67637l0.42741,-4.63542h-1.33353v-1.40718h1.45321l0.37612,-4.11807c-0.34193,0.52424 -0.60408,0.91053 -0.78644,1.15885l-0.87193,-1.11747c0.62687,-0.84155 1.22241,-1.80036 1.78659,-2.87644c0.56419,-1.07608 1.02295,-2.11767 1.37628,-3.12477l1.14547,0.47596c-0.19376,0.53804 -0.41602,1.09677 -0.66677,1.6762h7.48831v1.40718h-8.13798c-0.36473,0.73118 -0.69526,1.3382 -0.9916,1.82106h7.94991l-0.13677,4.6975zM356.7496,184.27785l1.0258,0.39318c-0.06839,0.77257 -0.16527,1.61412 -0.29064,2.52465c-0.12538,0.96571 -0.31059,1.62447 -0.55564,1.97626c-0.24505,0.3518 -0.56704,0.52769 -0.96596,0.52769c-0.72945,0 -1.31644,-0.6829 -1.76095,-2.04869c-0.13677,-0.42767 -0.25075,-0.84155 -0.34193,-1.24163c-0.75225,1.20024 -1.63557,2.32461 -2.64997,3.37309l-0.85483,-1.22094c1.33353,-1.37959 2.37643,-2.70399 3.12868,-3.97321c-0.39892,-2.46946 -0.64967,-5.45627 -0.75225,-8.96043h-5.28285v-1.42787h5.24865c-0.03419,-1.24163 -0.05129,-2.31081 -0.05129,-3.20754l1.17966,-0.02069c0.0114,0.30351 0.02849,1.37959 0.05129,3.22824h1.55579c-0.20516,-0.85535 -0.43311,-1.6624 -0.68386,-2.42118l0.9916,-0.41388c0.31914,1.06228 0.59268,2.0073 0.82064,2.83505h1.12837v1.42787h-3.79544c0.04559,2.75918 0.20516,5.18725 0.4787,7.28423c0.63827,-1.39338 1.25375,-3.26273 1.84643,-5.60803l1.05999,0.43457c-0.64967,2.75918 -1.5102,5.15966 -2.58158,7.20145c0.11398,0.62081 0.27355,1.24853 0.4787,1.88314c0.14817,0.42767 0.28209,0.71739 0.40177,0.86914c0.11968,0.15176 0.2479,0.22763 0.38467,0.22763c0.14817,0 0.26215,-0.11382 0.34193,-0.34145c0.07978,-0.22763 0.15957,-0.65186 0.23935,-1.27267zM320.38516,184.27785v1.24163h-3.81254v3.66281h-1.28224v-3.66281h-3.91512v-1.24163h3.91512v-1.90383h-3.53899v-1.24163h2.32514c-0.53569,-0.86914 -0.9916,-1.56583 -1.36773,-2.09008l0.97451,-0.6622c-0.03419,-0.05518 0.19946,0.29661 0.70096,1.05539l0.80354,1.22094l-0.71806,0.47596h1.93191c0.56989,-0.89673 1.08848,-1.82106 1.55579,-2.77297l1.09418,0.64151c-0.22795,0.45526 -0.64967,1.16575 -1.26515,2.13146h2.22256v1.24163h-3.43641v1.90383zM347.31228,183.98814l0.18806,1.55204c-0.62687,0.20694 -1.4988,0.507 -2.61578,0.90018c-1.11698,0.39318 -1.83503,0.66565 -2.15417,0.81741l-0.27355,-1.57273l2.03449,-0.6829v-7.30492h-1.72676v-1.48996h1.72676v-5.0286h1.19676v5.0286h1.53869v1.48996h-1.53869v6.89104zM240.11668,188.39593v-1.6762h14.95951v1.6762zM241.07409,174.4069v-1.6762h13.0276v1.6762zM241.84344,181.00823v-1.65551h11.506v1.65551zM285.81586,182.60165v-2.27632h-8.08669v2.27632zM277.72917,176.78669v2.19355h8.08669v-2.19355zM277.72917,175.48298h8.08669v-2.17285h-8.08669zM331.17311,185.35393h6.41122l0.03419,-0.76567c0.04559,-0.93812 0.07409,-1.75208 0.08548,-2.44187h-6.22316zM337.87497,177.44889h-5.94961l-0.30774,3.29032h6.13767c0.07978,-1.89004 0.11968,-2.98681 0.11968,-3.29032zM351.7232,183.61565h-3.89802v-5.83566h3.89802zM327.00154,189.76172l-1.23095,-0.45526l1.65837,-7.11868l1.16257,0.43457c-0.09118,0.38628 -0.58128,2.57293 -1.47031,6.55994zM295.1335,182.70512l1.04289,1.07608c-0.54709,0.93812 -1.18821,1.90383 -1.92337,2.89714c-0.73515,0.9933 -1.45036,1.83485 -2.14562,2.52465l-0.88902,-1.3451c0.67247,-0.60702 1.35918,-1.37959 2.06014,-2.31771c0.70096,-0.93812 1.31929,-1.88314 1.85498,-2.83505zM301.27117,183.90537l0.92322,-1.15885c0.53569,0.59322 1.21956,1.38993 2.05159,2.39014c0.83203,1.0002 1.56149,1.88659 2.18836,2.65916l-0.95741,1.24163c-0.56989,-0.77257 -1.27085,-1.6693 -2.10288,-2.6902c-0.83203,-1.0209 -1.53299,-1.83485 -2.10288,-2.44187zM351.85998,184.96075l0.18806,1.48996c-0.63827,0.17935 -1.58143,0.45182 -2.82949,0.81741c-1.24805,0.36559 -2.00885,0.59667 -2.28239,0.69324l-0.27355,-1.51065c0.67247,-0.17935 1.63557,-0.44492 2.88932,-0.79671c1.25375,-0.3518 2.0231,-0.58288 2.30804,-0.69324zM265.31705,180.0977h3.89802v-1.42787h-3.89802zM269.21507,181.23586h-3.89802v1.40718h3.89802zM260.20517,180.0977h3.86383v-1.42787h-3.86383zM264.069,181.23586h-3.86383v1.40718h3.86383zM329.03603,178.91815l-0.73515,1.30371c-1.39052,-1.46236 -2.31374,-2.40048 -2.76965,-2.81436l0.73515,-1.20024zM329.51474,173.97233l-0.70096,1.22094c-0.83203,-0.82775 -1.74955,-1.70379 -2.75255,-2.62812l0.73515,-1.17955c0.63827,0.57943 1.54439,1.44167 2.71836,2.58673zM348.85098,179.12509v3.14546h1.82933v-3.14546zM335.97725,184.23647l-0.71806,1.07608c-0.25075,-0.27592 -0.59553,-0.62081 -1.03434,-1.03469c-0.43881,-0.41388 -0.82918,-0.77257 -1.17112,-1.07608l0.64967,-1.03469c0.78644,0.68979 1.54439,1.37959 2.27385,2.06938zM333.36147,178.54566l0.64967,-1.05539c1.003,0.88294 1.73245,1.55894 2.18836,2.02799l-0.68386,1.11747c-0.61548,-0.63461 -1.33353,-1.3313 -2.15417,-2.09008z" fill="#ffffff" fill-rule="evenodd" stroke="#ffffff" stroke-width="0.5" stroke-linecap="round"/><path d="M240,196v-32h208v32z" fill="none" fill-rule="nonzero" stroke="none" stroke-width="0" stroke-linecap="butt"/></g></g></svg>