<svg version="1.1" xmlns="http://www.w3.org/2000/svg" xmlns:xlink="http://www.w3.org/1999/xlink" width="208" height="32" viewBox="0,0,208,32"><g transform="translate(-240,-164)"><g stroke-miterlimit="10"><path d="M240,196v-32h208v32z" fill="none" fill-rule="nonzero" stroke="none" stroke-width="0" stroke-linecap="butt"/><path d="M286.20983,173.4866v6.07805h12.98632l-0.30389,7.26295c-0.08104,1.11175 -0.35454,1.89071 -0.82051,2.33687c-0.46597,0.44616 -1.21894,0.66924 -2.25893,0.66924h-2.32984l-0.28363,-1.55791h1.98543c0.54025,0 0.95895,-0.06583 1.25609,-0.19748c0.29714,-0.13165 0.50986,-0.33645 0.63817,-0.61439c0.12831,-0.27794 0.21272,-0.66559 0.25324,-1.16295c0.04052,-0.65827 0.08441,-1.52866 0.13169,-2.61115c0.04727,-1.08249 0.08441,-1.95288 0.11143,-2.61115h-12.90528v-9.10611h3.93034l0.26337,-0.70216l0.52675,-1.49209l1.58024,0.19748l-0.26337,0.76799c-0.14857,0.46811 -0.28363,0.8777 -0.40519,1.22878h6.98952c-0.12156,2.28201 -0.19584,3.56199 -0.22285,3.83993c-0.06753,0.70216 -0.19246,1.24706 -0.3748,1.63471c-0.18234,0.38765 -0.45921,0.66559 -0.83064,0.83381c-0.37142,0.16822 -0.88804,0.25234 -1.54985,0.25234h-1.74231l-0.28363,-1.40432h1.58024c0.60778,0 1.02648,-0.10606 1.25609,-0.31817c0.22961,-0.21211 0.36467,-0.57416 0.40519,-1.08615l0.1013,-1.09712c0.04052,-0.43885 0.06753,-0.81918 0.08104,-1.14101zM320.266,180.44235v1.49209h-2.08673l-0.12156,3.40108h1.82335v1.51403h-1.86387l-0.02026,0.39496c-0.04052,0.6729 -0.15195,1.19221 -0.33428,1.55791c-0.18234,0.36571 -0.46597,0.62536 -0.8509,0.77896c-0.38493,0.1536 -0.92181,0.2304 -1.61063,0.2304h-3.01866l-0.30389,-1.53597h2.83633c0.67532,0 1.14466,-0.09874 1.40803,-0.29622c0.26337,-0.19748 0.40857,-0.55953 0.43558,-1.08615v-0.04388h-9.0965l0.50649,-4.9151h-1.58024v-1.49209h1.72206l0.44571,-4.36654c-0.40519,0.55588 -0.71584,0.96547 -0.93194,1.22878l-1.03323,-1.18489c0.74285,-0.89233 1.44855,-1.90899 2.11711,-3.05c0.66856,-1.14101 1.21219,-2.24544 1.63089,-3.31331l1.35738,0.50468c-0.22961,0.5705 -0.49298,1.16295 -0.79012,1.77734h8.87365v1.49209h-9.64351c-0.4322,0.7753 -0.82388,1.41894 -1.17505,1.93093h9.42065l-0.16208,4.98093zM339.33016,184.1945l1.21557,0.41691c-0.08104,0.81918 -0.19584,1.71151 -0.34441,2.67698c-0.14857,1.02398 -0.36805,1.72248 -0.65843,2.0955c-0.29039,0.37302 -0.67194,0.55953 -1.14466,0.55953c-0.8644,0 -1.55998,-0.7241 -2.08673,-2.1723c-0.16208,-0.45348 -0.29714,-0.89233 -0.40519,-1.31655c-0.89142,1.27266 -1.93816,2.46487 -3.14022,3.57662l-1.01297,-1.2946c1.58024,-1.46283 2.81607,-2.86714 3.70748,-4.21295c-0.47272,-2.61846 -0.76986,-5.78549 -0.89142,-9.50107h-6.26018v-1.51403h6.21966c-0.04052,-1.31655 -0.06078,-2.45024 -0.06078,-3.40108l1.3979,-0.02194c0.01351,0.32182 0.03377,1.46283 0.06078,3.42302h1.84361c-0.24311,-0.90695 -0.51324,-1.76271 -0.81038,-2.56726l1.17505,-0.43885c0.37818,1.12638 0.70233,2.12842 0.97245,3.00611h1.33713v1.51403h-4.4976c0.05402,2.92566 0.24311,5.50024 0.56727,7.72374c0.75635,-1.47746 1.48569,-3.45959 2.18802,-5.9464l1.25609,0.46079c-0.76986,2.92566 -1.78959,5.47098 -3.05918,7.63597c0.13506,0.65827 0.32415,1.32386 0.56727,1.99676c0.17558,0.45348 0.33428,0.76067 0.4761,0.92158c0.14182,0.16091 0.29376,0.24137 0.45584,0.24137c0.17558,0 0.31065,-0.12068 0.40519,-0.36205c0.09454,-0.24137 0.18909,-0.69119 0.28363,-1.34946zM267.65215,173.57437h1.17505v14.54783h-1.17505v-1.36043l-5.3485,0.76799v-13.86762h1.17505v12.06834l1.45868,-0.21942v-15.33776h1.35738v15.14028l1.35738,-0.19748zM248.0815,176.71213l-0.9522,-1.18489c0.81038,-0.74604 1.56673,-1.61643 2.26906,-2.61115c0.70233,-0.99472 1.29661,-2.01139 1.78283,-3.05l1.37764,0.43885c-0.20259,0.43885 -0.47272,0.95815 -0.81038,1.55791h5.2472v1.25072l-1.80309,2.41367h3.01866v7.50431h-5.04461c0.54025,1.03861 0.99947,1.97482 1.37764,2.80863l-1.05349,0.63633c-0.16208,-0.38034 -0.38831,-0.8777 -0.67869,-1.49209c-0.29039,-0.61439 -0.51662,-1.07518 -0.67869,-1.38237l0.97245,-0.5705h-4.7002v-1.31655h8.38742v-1.77734h-8.16457v-1.27266h8.16457v-1.75539h-8.02275v-0.94352c-0.2161,0.26331 -0.44571,0.51199 -0.68882,0.74604zM279.66602,188.38551l-0.62804,1.73345c-1.94491,-1.02398 -3.5319,-2.15767 -4.76098,-3.40108c-1.25609,1.12638 -2.9849,2.26739 -5.18642,3.42302l-0.68882,-1.53597c2.03945,-0.99472 3.65346,-2.0187 4.84201,-3.07194c-1.26959,-1.59448 -2.27581,-3.59124 -3.01866,-5.99028v-1.62374h3.40359v-3.18165h-4.05189v-1.55791h4.05189v-3.2036h1.3979v3.2036h4.45708v1.55791h-4.45708v3.15971h3.28203v1.68957c-0.37818,1.30192 -0.7935,2.43195 -1.24596,3.39011c-0.45246,0.95815 -1.0231,1.83219 -1.71193,2.62212c1.13453,1.08249 2.57295,2.01139 4.31527,2.78669zM245.14388,185.97184h-0.70908l-0.26337,-1.42626h0.60778c0.4322,0 0.75973,-0.0512 0.98258,-0.1536c0.22285,-0.1024 0.37818,-0.28525 0.46597,-0.54856c0.08779,-0.26331 0.13169,-0.64365 0.13169,-1.14101c0,-1.33117 -0.5335,-2.8452 -1.6005,-4.54208l1.6005,-5.61726h-2.57295v17.59783h-1.3979v-19.04603h5.30798v1.4482l-1.53972,5.39784c0.51324,0.92158 0.88804,1.77734 1.1244,2.56726c0.23636,0.78993 0.35454,1.57986 0.35454,2.36978c0,0.78993 -0.08104,1.40797 -0.24311,1.85414c-0.16208,0.44616 -0.42207,0.76433 -0.77999,0.9545c-0.35792,0.19017 -0.84752,0.28525 -1.46881,0.28525zM328.14693,183.88731l0.22285,1.64568c-0.74285,0.21942 -1.77608,0.53759 -3.0997,0.9545c-1.32362,0.41691 -2.17452,0.70581 -2.55269,0.86673l-0.32415,-1.66762l2.41088,-0.7241v-7.74568h-2.04621v-1.57986h2.04621v-5.33201h1.41816v5.33201h1.82335v1.57986h-1.82335v7.30683zM293.13857,186.01572v-3.29136h1.47894v4.78345h-11.28453v-4.78345h1.47894v3.29136h3.38333v-4.03741h1.58024v4.03741zM255.21283,187.15673l0.04052,-1.86511l1.21557,0.24137c0,0.7753 -0.02026,1.49209 -0.06078,2.15036c-0.04052,0.76067 -0.21948,1.28363 -0.53688,1.56888c-0.3174,0.28525 -0.88804,0.42788 -1.71193,0.42788h-2.08673c-0.76986,0 -1.30674,-0.15725 -1.61063,-0.47176c-0.30389,-0.31451 -0.45584,-0.88135 -0.45584,-1.70054v-3.29136h1.3979v2.91834c0,0.43885 0.06753,0.74239 0.20259,0.91061c0.13506,0.16822 0.39168,0.24502 0.76986,0.2304h1.66128c0.45921,0 0.76986,-0.0768 0.93194,-0.2304c0.16208,-0.1536 0.24311,-0.44982 0.24311,-0.88867zM309.02199,185.33551h7.5973l0.04052,-0.81187c0.05402,-0.99472 0.08779,-1.85779 0.1013,-2.58921h-7.37445zM316.96371,176.9535h-7.0503l-0.36467,3.48885h7.27315c0.09454,-2.00408 0.14182,-3.16702 0.14182,-3.48885zM333.37388,183.49235h-4.61916v-6.18777h4.61916zM304.07868,190.00925l-1.45868,-0.48273l1.96517,-7.5482l1.37764,0.46079c-0.10805,0.40959 -0.68882,2.72818 -1.74231,6.95575zM333.53595,184.9186l0.22285,1.57986c-0.75635,0.19017 -1.874,0.47908 -3.35294,0.86673c-1.47894,0.38765 -2.38049,0.63267 -2.70464,0.73507l-0.32415,-1.6018c0.79687,-0.19017 1.93816,-0.47176 3.42385,-0.84478c1.48569,-0.37302 2.39737,-0.61804 2.73503,-0.73507zM276.78917,179.52076l-5.04461,0.02194c0.6483,1.96019 1.4992,3.59856 2.55269,4.9151c0.59428,-0.68753 1.08726,-1.42626 1.47894,-2.21619c0.39168,-0.78993 0.72934,-1.69688 1.01297,-2.72086zM253.59208,175.52724l1.78283,-2.34784h-4.43682c-0.59428,0.8777 -1.18856,1.66031 -1.78283,2.34784zM256.61074,184.5017l1.07375,-0.54856c0.32415,0.68753 0.66856,1.48111 1.03323,2.38075c0.36467,0.89964 0.64155,1.66397 0.83064,2.29298l-1.11427,0.52662c-0.20259,-0.61439 -0.48623,-1.37872 -0.8509,-2.29298c-0.36467,-0.91427 -0.68882,-1.70054 -0.97245,-2.35881zM247.55475,189.30709l-1.13453,-0.59245c0.74285,-1.5506 1.33037,-3.07194 1.76257,-4.56403l1.11427,0.43885c-0.44571,1.57986 -1.02648,3.1524 -1.74231,4.71762zM306.48956,178.51141l-0.87116,1.38237c-1.64777,-1.5506 -2.74178,-2.54532 -3.28203,-2.98417l0.87116,-1.27266zM307.05682,173.26717l-0.83064,1.2946c-0.98596,-0.8777 -2.07322,-1.80659 -3.26177,-2.78669l0.87116,-1.25072c0.75635,0.61439 1.83011,1.52866 3.22126,2.7428zM291.84196,176.77796l-0.93194,1.20683c-1.51271,-1.30192 -2.59321,-2.20156 -3.24152,-2.69892l0.89142,-1.20683c0.58077,0.45348 1.67478,1.35312 3.28203,2.69892zM329.97029,178.73084v3.33525h2.16776v-3.33525zM314.7149,184.15062l-0.8509,1.14101c-0.29714,-0.29257 -0.70571,-0.65827 -1.2257,-1.09712c-0.51999,-0.43885 -0.98258,-0.81918 -1.38777,-1.14101l0.76986,-1.09712c0.93194,0.73141 1.83011,1.46283 2.69451,2.19424zM311.6152,178.11645l0.76986,-1.11906c1.18856,0.93621 2.05296,1.653 2.59321,2.15036l-0.81038,1.18489c-0.72934,-0.6729 -1.58024,-1.41163 -2.55269,-2.21619z" fill="#ffffff" fill-rule="evenodd" stroke="#ffffff" stroke-width="0.5" stroke-linecap="round"/></g></g></svg>