<svg version="1.1" xmlns="http://www.w3.org/2000/svg" xmlns:xlink="http://www.w3.org/1999/xlink" width="208" height="32" viewBox="0,0,208,32"><g transform="translate(-240,-164)"><g stroke-miterlimit="10"><path d="M240,196v-32h208v32z" fill="none" fill-rule="nonzero" stroke="none" stroke-width="0" stroke-linecap="butt"/><path d="M245.45,179.12c0.86587,0.59896 1.6764,1.24676 2.4316,1.9434v-0.79101h11.123v9.2285h-1.9629v-0.82031h-7.1777v0.82031h-1.9824v-8.1836l-1.0156,1.6113c-0.48177,-0.57292 -0.95377,-1.08399 -1.416,-1.5332v8.1055h-2.0606v-7.998c-0.77473,0.8724 -1.49087,1.6146 -2.1484,2.2266l-1.0156,-1.8555c2.18747,-1.91407 3.8411,-4.01367 4.9609,-6.2988h-4.5215v-1.9434h2.6367v-3.1348h2.0801v3.1348h1.5039l0.89843,0.9375c-0.61198,1.40627 -1.38998,2.81577 -2.334,4.2285zM249.8641,181.8544v1.8164h2.6465v-1.8164zM249.8641,185.1747v1.8848h2.6465v-1.8848zM257.0418,187.0595v-1.8848h-2.7344v1.8848zM257.0418,183.6708v-1.8164h-2.7344v1.8164zM258.0672,174.1786v4.9609h-9.3262v-4.9609zM250.7039,175.6825v1.9727h5.3418v-1.9727zM247.5887,171.2977h11.699v1.6992h-11.699z" fill="#ffffff" fill-rule="nonzero" stroke="none" stroke-width="1" stroke-linecap="butt"/><path d="M265.36,174.24v-3.5644h2.2363v3.5644h4.8242v-3.7402h2.2363v3.7402h4.1406v1.9434h-4.1406v4.834h4.8438v1.9629h-4.8438v6.5234h-2.2363v-6.5234h-4.8828c-0.11719,1.52993 -0.48829,2.7669 -1.1133,3.7109c-0.80727,1.21093 -1.8945,2.1875 -3.2617,2.9297l-1.6797,-1.6992c1.54947,-0.77473 2.6074,-1.66013 3.1738,-2.6562c0.33855,-0.59245 0.55665,-1.35418 0.6543,-2.2852h-4.8144v-1.9629h4.8633v-4.834h-4.2188v-1.9434zM272.4205,176.1834h-4.8242v4.834h4.8242z" fill="#ffffff" fill-rule="nonzero" stroke="none" stroke-width="1" stroke-linecap="butt"/><path d="M328.92,182.24h-4.043v-1.6016h1.9531c-0.29297,-0.66407 -0.625,-1.28257 -0.99609,-1.8555l1.7578,-0.64453c0.50781,0.85287 0.91798,1.6862 1.2305,2.5h2.2949c0.38411,-0.78773 0.72265,-1.6341 1.0156,-2.5391l1.9629,0.61524c-0.33203,0.71613 -0.6836,1.3574 -1.0547,1.9238h2.0996v1.6016h-4.1797v1.4258h4.4531v1.6602h-4.4531v3.6914h-2.041v-3.6914h-4.2871v-1.6602h4.2871zM331.0196,176.2244h7.4024v11.416c0,0.6706 -0.17904,1.1426 -0.53711,1.416c-0.29948,0.23438 -0.80405,0.35157 -1.5137,0.35157c-0.918,0 -1.8034,-0.04883 -2.6562,-0.14649l-0.47852,-1.9629c1.13933,0.13672 1.9922,0.20508 2.5586,0.20508c0.23437,0 0.37109,-0.05859 0.41015,-0.17578c0.02607,-0.07161 0.0391,-0.17253 0.0391,-0.30274v-9.1016h-12.48v11.582h-2.1777v-13.281h7.2754v-1.7676h-8.3594v-1.8164h8.3594v-2.1387h2.1582v2.1387h8.4766v1.8164h-8.4766z" fill="#ffffff" fill-rule="nonzero" stroke="none" stroke-width="1" stroke-linecap="butt"/><path d="M298.69399,183.47997h-9.7624c-0.99523,1.16216 -2.21307,2.36582 -3.65354,3.61098l8.81956,-0.3528l-2.1607,-2.15829l0.96249,-1.01689c0.56309,0.53957 1.10326,1.06531 1.62052,1.57721c0.51726,0.5119 0.97231,0.96155 1.36516,1.34893c1.41428,1.41119 1.997,1.98535 1.74819,1.72248l-1.02142,1.18291c-0.22262,-0.24903 -0.62857,-0.68484 -1.21784,-1.30742l-12.13916,0.56032l-0.3732,-1.47345c1.54522,-1.16216 2.90057,-2.39349 4.06603,-3.69399h-5.63744v-1.41119h2.59283v-10.79144h12.13916v10.79144h2.65176zM294.62796,182.06878v-2.28281h-9.29098v2.28281zM285.33699,176.23725v2.19979h9.29098v-2.19979zM285.33699,174.92982h9.29098v-2.17904h-9.29098z" fill="#ffffff" fill-rule="evenodd" stroke="#ffffff" stroke-width="0.5" stroke-linecap="round"/><path d="M304.91716,171.26514v14.34781l1.31368,-0.18474v-11.10467h1.2521v14.10149h-1.2521v-1.41631l-5.15207,0.63631v-13.30097h1.21105v11.65888l1.3342,-0.20526v-14.53254zM315.59077,182.30823h-6.93785v-1.43683h8.66205v1.49841c-1.23157,1.7242 -2.36051,3.26366 -3.38682,4.61839l2.1142,1.68315l-0.92368,1.31368c-0.72526,-0.67052 -1.67973,-1.49157 -2.8634,-2.46314c-1.18368,-0.97157 -2.19972,-1.77894 -3.04814,-2.42209l0.78,-1.14947c0.69789,0.50631 1.6421,1.22473 2.83261,2.15525c1.4642,-1.94315 2.38788,-3.20893 2.77104,-3.79735zM312.47079,171.16251h1.45736c0.54736,1.4642 1.21105,2.73683 1.99104,3.81787c0.78,1.08105 1.71736,2.04578 2.81209,2.89419l-0.69789,1.47789c-2.14841,-1.76525 -3.75629,-3.91366 -4.82365,-6.44522c-0.47894,1.14947 -1.08447,2.24078 -1.81657,3.27393c-0.7321,1.03315 -1.63183,2.06288 -2.69919,3.08919l-0.90315,-1.27262c1.10841,-1.01263 2.03551,-2.0663 2.7813,-3.16103c0.74579,-1.09473 1.37868,-2.31946 1.89867,-3.67419zM311.54712,177.25878l1.06736,-0.78l0.73894,1.12894c0.71157,1.06736 1.10157,1.65578 1.16999,1.76525l-1.06736,0.84157z" fill="#ffffff" fill-rule="evenodd" stroke="#ffffff" stroke-width="0.5" stroke-linecap="round"/></g></g></svg>