<svg version="1.1" xmlns="http://www.w3.org/2000/svg" xmlns:xlink="http://www.w3.org/1999/xlink" width="208" height="32" viewBox="0,0,208,32"><g transform="translate(-240,-164)"><g stroke-miterlimit="10"><path d="M304.35422,173.79057v5.80913h12.79489l-0.29941,6.94159c-0.07984,1.06256 -0.34931,1.80705 -0.80841,2.23347c-0.4591,0.42642 -1.20098,0.63963 -2.22563,0.63963h-2.2955l-0.27945,-1.48898h1.95616c0.53229,0 0.94481,-0.06291 1.23757,-0.18874c0.29276,-0.12583 0.50235,-0.32156 0.62877,-0.5872c0.12642,-0.26564 0.20959,-0.63614 0.24951,-1.11149c0.03992,-0.62915 0.08317,-1.46102 0.12975,-2.49562c0.04658,-1.0346 0.08317,-1.86647 0.10978,-2.49562h-12.71505v-8.70321h3.8724l0.25949,-0.67109l0.51898,-1.42607l1.55694,0.18874l-0.25949,0.73401c-0.14638,0.44739 -0.27945,0.83886 -0.39922,1.17441h6.88649c-0.11976,2.18104 -0.19295,3.40439 -0.21957,3.67003c-0.06654,0.67109 -0.18963,1.19189 -0.36928,1.56238c-0.17965,0.3705 -0.45245,0.63614 -0.81839,0.79692c-0.36595,0.16078 -0.87495,0.24117 -1.527,0.24117h-1.71663l-0.27945,-1.34218h1.55694c0.59882,0 1.01135,-0.10136 1.23757,-0.30409c0.22622,-0.20272 0.35929,-0.54876 0.39922,-1.03809l0.0998,-1.04858c0.03992,-0.41943 0.06654,-0.78294 0.07984,-1.09052zM297.98671,188.03028l-0.95812,1.57287c-3.96555,-2.4327 -6.56711,-5.41766 -7.80468,-8.95487c-0.61213,1.78958 -1.59354,3.42536 -2.94422,4.90735c-1.35068,1.48199 -2.9908,2.85214 -4.92034,4.11043l-0.97808,-1.59384c2.28884,-1.34218 4.13522,-2.91156 5.53913,-4.70812c1.40391,-1.79657 2.19236,-3.81333 2.36536,-6.0503h-7.58512v-1.61481h7.60508v-5.15901h1.59687v5.15901h7.66496v1.61481h-7.68492c-0.01331,0.06991 -0.01996,0.17476 -0.01996,0.31457c0.43914,2.25095 1.30743,4.2083 2.60489,5.87204c1.29745,1.66375 3.13718,3.1737 5.51917,4.52986zM337.90837,180.43856v1.42607h-2.05597l-0.11976,3.2506h1.79647v1.44704h-1.8364l-0.01996,0.37749c-0.03992,0.64313 -0.14971,1.13946 -0.32935,1.48898c-0.17965,0.34953 -0.4591,0.59769 -0.83835,0.74449c-0.37926,0.1468 -0.90822,0.2202 -1.58689,0.2202h-2.97416l-0.29941,-1.46801h2.79452c0.66536,0 1.12779,-0.09437 1.38728,-0.28312c0.25949,-0.18874 0.40254,-0.53478 0.42916,-1.03809v-0.04194h-8.96241l0.49902,-4.69764h-1.55694v-1.42607h1.69667l0.43914,-4.17335c-0.39922,0.53128 -0.70528,0.92275 -0.9182,1.17441l-1.018,-1.13247c0.7319,-0.85284 1.4272,-1.82453 2.08591,-2.91505c0.65871,-1.09052 1.19432,-2.14609 1.60685,-3.16671l1.33738,0.48235c-0.22622,0.54526 -0.48571,1.11149 -0.77847,1.6987h8.74284v1.42607h-9.50136c-0.42583,0.741 -0.81174,1.35616 -1.15773,1.8455h9.28179l-0.15969,4.76055zM356.69152,184.0247l1.19765,0.39846c-0.07984,0.78294 -0.19295,1.63578 -0.33933,2.55853c-0.14638,0.97867 -0.36262,1.64627 -0.64873,2.00279c-0.28611,0.35652 -0.66203,0.53478 -1.12779,0.53478c-0.85166,0 -1.53698,-0.69206 -2.05597,-2.07619c-0.15969,-0.43341 -0.29276,-0.85284 -0.39922,-1.2583c-0.87828,1.21635 -1.90959,2.35581 -3.09393,3.41837l-0.99804,-1.23732c1.55694,-1.39811 2.77456,-2.74029 3.65283,-4.02654c-0.46575,-2.50261 -0.75851,-5.52951 -0.87828,-9.0807h-6.1679v-1.44704h6.12797c-0.03992,-1.2583 -0.05988,-2.34183 -0.05988,-3.2506l1.3773,-0.02097c0.01331,0.30758 0.03327,1.39811 0.05988,3.27157h1.81644c-0.23953,-0.86683 -0.50567,-1.68472 -0.79843,-2.45368l1.15773,-0.41943c0.3726,1.07654 0.69198,2.03424 0.95812,2.87311h1.31741v1.44704h-4.4313c0.05323,2.79621 0.23953,5.25688 0.5589,7.382c0.7452,-1.41209 1.46379,-3.30652 2.15577,-5.6833l1.23757,0.4404c-0.75851,2.79621 -1.76321,5.22892 -3.01409,7.29811c0.13307,0.62915 0.31937,1.26529 0.5589,1.90841c0.17299,0.43341 0.32935,0.72701 0.46908,0.88081c0.13973,0.15379 0.28943,0.23069 0.44912,0.23069c0.17299,0 0.30607,-0.11534 0.39922,-0.34603c0.09315,-0.23069 0.1863,-0.6606 0.27945,-1.28975zM256.42826,176.78951h1.53698v1.57287h-1.53698v4.88638h-6.12797c-0.15969,1.00664 -0.4092,1.86997 -0.74853,2.58999c-0.33933,0.72002 -0.7818,1.37713 -1.3274,1.97133c-0.5456,0.5942 -1.26419,1.22684 -2.15577,1.89793l-1.17769,-1.27927c1.19765,-0.8109 2.08258,-1.57986 2.65479,-2.30687c0.57221,-0.72701 0.97808,-1.68472 1.21761,-2.87311h-3.37338v-1.59384h3.59295c0.06654,-0.82488 0.11311,-1.92239 0.13973,-3.29254h-4.25166v-1.57287h4.25166v-3.33448h-3.09393v-1.5519h10.39959zM272.2572,187.08656h5.7088v1.59384h-17.56553v-1.59384h5.78864l-0.89824,-1.36315c-0.7452,-1.11848 -1.21761,-1.81754 -1.41722,-2.09716l1.29745,-0.94372c0.43914,0.5872 1.23757,1.72666 2.3953,3.41837l-1.33738,0.98566h4.03209c0.45245,-0.68507 0.94481,-1.46102 1.4771,-2.32785c0.53229,-0.86683 0.95147,-1.57986 1.25753,-2.1391l1.51702,0.90178c-0.46575,0.83886 -1.21761,2.02725 -2.25557,3.56517zM345.67314,183.7311l0.21957,1.57287c-0.7319,0.20972 -1.7499,0.5138 -3.05401,0.91226c-1.30411,0.39846 -2.14246,0.67459 -2.51506,0.82838l-0.31937,-1.59384l2.37534,-0.69206v-7.40297h-2.01604v-1.50995h2.01604v-5.0961h1.39726v5.0961h1.79647v1.50995h-1.79647v6.98354zM244.21224,170.58192l1.45714,0.37749c-0.46575,1.67773 -1.018,3.33448 -1.65675,4.97027v13.75736h-1.4771v-10.42288c-0.45245,0.93673 -0.89824,1.78258 -1.33738,2.53756l-0.79843,-1.63578c0.69198,-1.37014 1.3906,-2.91156 2.09589,-4.62423c0.70528,-1.71268 1.27749,-3.36594 1.71663,-4.95978zM311.18082,185.76535v-3.14574h1.45714v4.57181h-11.11818v-4.57181h1.45714v3.14574h3.33346v-3.85877h1.55694v3.85877zM262.75585,175.7619h12.87474v6.48022h-12.87474zM261.17894,173.39211v-1.59384h16.02855v1.59384zM274.05368,180.66925v-3.35545h-9.72092v3.35545zM326.83011,185.11523h7.48531l0.03992,-0.77595c0.05323,-0.95071 0.0865,-1.77559 0.0998,-2.47465h-7.26574zM334.65476,177.10408h-6.94637l-0.35929,3.33448h7.16594c0.09315,-1.91541 0.13973,-3.0269 0.13973,-3.33448zM350.82303,183.35361h-4.55107v-5.91399h4.55107zM321.95967,189.58217l-1.43718,-0.46137l1.9362,-7.21423l1.35734,0.4404c-0.10646,0.39147 -0.67867,2.60747 -1.71663,6.64799zM350.98272,184.71677l0.21957,1.50995c-0.7452,0.18175 -1.84638,0.45788 -3.30352,0.82838c-1.45714,0.3705 -2.3454,0.60468 -2.66477,0.70255l-0.31937,-1.53093c0.78513,-0.18175 1.90959,-0.45089 3.37338,-0.80741c1.46379,-0.35652 2.36203,-0.5907 2.69471,-0.70255zM250.4999,181.65491h4.41134v-3.29254h-4.29158c-0.02661,1.53792 -0.06654,2.63543 -0.11976,3.29254zM254.91124,176.78951v-3.33448h-4.29158v3.33448zM324.33501,178.59306l-0.85832,1.32121c-1.62348,-1.48199 -2.70137,-2.4327 -3.23365,-2.85214l0.85832,-1.21635zM324.89391,173.58085l-0.81839,1.23732c-0.97143,-0.83886 -2.04266,-1.72666 -3.21369,-2.66339l0.85832,-1.19538c0.7452,0.5872 1.80313,1.46102 3.17377,2.62145zM309.90333,176.93631l-0.9182,1.15344c-1.49041,-1.24431 -2.55499,-2.10415 -3.19373,-2.5795l0.87828,-1.15344c0.57221,0.43341 1.65009,1.29325 3.23365,2.5795zM347.46961,178.80278v3.18768h2.13581v-3.18768zM332.43911,183.98276l-0.83835,1.09052c-0.29276,-0.27962 -0.6953,-0.62915 -1.20763,-1.04858c-0.51233,-0.41943 -0.9681,-0.78294 -1.36732,-1.09052l0.75851,-1.04858c0.9182,0.69905 1.80313,1.39811 2.65479,2.09716zM329.3851,178.21557l0.75851,-1.06955c1.17104,0.89479 2.0227,1.57986 2.55499,2.05522l-0.79843,1.13247c-0.71859,-0.64313 -1.55694,-1.34917 -2.51506,-2.11813z" fill="#ffffff" fill-rule="evenodd" stroke="#ffffff" stroke-width="0.5" stroke-linecap="round"/><path d="M240,196v-32h208v32z" fill="none" fill-rule="nonzero" stroke="none" stroke-width="0" stroke-linecap="butt"/></g></g></svg>