<svg version="1.1" xmlns="http://www.w3.org/2000/svg" xmlns:xlink="http://www.w3.org/1999/xlink" width="208" height="32" viewBox="0,0,208,32"><g transform="translate(-240,-164)"><g stroke-miterlimit="10"><path d="M240,196v-32h208v32z" fill="none" fill-rule="nonzero" stroke="none" stroke-width="0" stroke-linecap="butt"/><path d="M245.7239,182.77c0.81831,0.51432 1.7241,1.23699 2.7174,2.168l-0.96506,1.8164c-0.63772,-0.8268 -1.22183,-1.50713 -1.75234,-2.041v4.7852h-1.73543v-5.2148c-0.7619,1.6146 -1.66771,2.9655 -2.7174,4.0527l-0.99046,-1.8457c1.25849,-1.02867 2.30536,-2.30797 3.1406,-3.8379h-2.67501v-1.7188h3.24219v-1.9043h-3.57238v-1.7969h1.85393c-0.14673,-0.8268 -0.35272,-1.7285 -0.61797,-2.7051h-0.90577v-1.8164h3.20839v-2.2168h1.80314v2.2168h3.0729v1.8164h-0.90577c-0.20882,0.97653 -0.46842,1.87823 -0.77881,2.7051h1.93854v1.7969h-3.36078v1.9043h3.0475v1.7188h-3.0475zM243.33668,174.5278c0.21446,0.8138 0.40069,1.7155 0.55871,2.7051h1.67614c0.2596,-0.83987 0.48252,-1.74157 0.66876,-2.7051zM251.3026,179.2739c0.00578,2.01827 -0.12966,3.89 -0.40634,5.6152c-0.28782,1.79033 -0.79857,3.3919 -1.53224,4.8047l-1.39676,-1.4746c0.62645,-1.17187 1.05536,-2.61067 1.28675,-4.3164c0.20316,-1.45833 0.30475,-3.3203 0.30475,-5.5859v-6.123c0.11287,-0.013 0.28499,-0.03253 0.51638,-0.0586c1.79467,-0.19531 3.59214,-0.64128 5.39242,-1.3379l1.10896,1.6992c-1.50121,0.58594 -3.25635,1.03841 -5.26542,1.3574v3.3789h5.68021v2.041h-1.93854v10.225h-1.75234v-10.225z" fill="#ffffff" fill-rule="nonzero" stroke="none" stroke-width="1" stroke-linecap="butt"/><path d="M264.88996,179.28h-1.76075v-7.5391l0.09313,-0.01c1.44475,-0.22136 2.67221,-0.60873 3.68238,-1.1621l1.16825,1.416c-0.85217,0.39713 -1.92727,0.7552 -3.22529,1.0742v1.6211h2.73431v1.4648h-2.73431v1.6113h6.32359v-1.6113h-2.7851v-1.4648h2.7851v-1.4941h-2.82741v-1.5625h4.56284v7.6562h-6.23898c-0.18059,0.37761 -0.41481,0.80404 -0.70263,1.2793h8.05053c-0.0508,3.5482 -0.20317,5.84637 -0.45713,6.8945c-0.16366,0.6706 -0.39222,1.15563 -0.68569,1.4551c-0.32733,0.33854 -0.82398,0.50781 -1.48994,0.50781c-0.83524,0 -1.65074,-0.05208 -2.44651,-0.15625l-0.34708,-1.9434c0.88603,0.17578 1.62251,0.26367 2.20943,0.26367c0.48534,0 0.7901,-0.14648 0.91427,-0.43945c0.24832,-0.60547 0.42045,-2.2591 0.51638,-4.9609h-7.45795c-0.46842,0.52083 -0.92837,0.96353 -1.37985,1.3281l1.26135,0.41016c-0.23139,1.92053 -0.56717,3.50907 -1.00737,4.7656l-1.64225,-0.9668c0.49099,-1.15233 0.86911,-2.48697 1.13436,-4.0039c-0.1298,0.09765 -0.33579,0.24739 -0.61797,0.44922l-0.94816,-1.2988l-0.1693,0.69336c-0.61518,2.5 -1.24725,4.46613 -1.89624,5.8984l-1.59145,-1.4746c0.8917,-1.90753 1.65358,-4.17967 2.28562,-6.8164l1.50685,1.1523l-0.10159,0.41016c1.32062,-0.80727 2.41548,-1.95637 3.28458,-3.4473zM260.8097,175.0612c-0.72237,-1.1068 -1.56044,-2.10613 -2.51421,-2.998l1.27826,-1.3867c0.91424,0.7292 1.78617,1.6895 2.61581,2.8809zM260.23406,180.1003c-0.73364,-1.1068 -1.57735,-2.15497 -2.53112,-3.1445l1.28675,-1.4355c1.01017,0.90493 1.88774,1.9108 2.63271,3.0176zM265.77886,188.0593c-0.09594,-1.53647 -0.29629,-2.97527 -0.60104,-4.3164l1.29516,-0.40039c0.4402,1.34113 0.7252,2.67903 0.85499,4.0137zM268.34387,187.0046c-0.27089,-1.39973 -0.59258,-2.56837 -0.96506,-3.5059l1.17666,-0.57617c0.42327,0.95707 0.78162,2.0508 1.07507,3.2812zM270.5364,186.07687c-0.27089,-1.15887 -0.64901,-2.19077 -1.13436,-3.0957l1.15126,-0.625c0.50791,0.86587 0.9058,1.83267 1.19365,2.9004z" fill="#ffffff" fill-rule="nonzero" stroke="none" stroke-width="1" stroke-linecap="butt"/><path d="M301.263,173.66v2.5l0.22009,0.12695c1.95267,1.0482 4.10286,2.474 6.45058,4.2774l-1.37985,1.9141c-1.76081,-1.54293 -3.52441,-2.8743 -5.29082,-3.9941v11.016h-2.06553v-15.84h-6.63678v-2.0215h16.31239v2.0215z" fill="#ffffff" fill-rule="nonzero" stroke="none" stroke-width="1" stroke-linecap="butt"/><path d="M317.52511,182.87v-8.8574h3.11529c-0.04514,-0.8854 -0.07617,-2.05727 -0.09312,-3.5156h1.64225c0.01693,1.09373 0.0395,2.0996 0.0677,3.0176l0.0169,0.49805h3.68238v1.7774h-3.58928c0.12416,1.70573 0.31322,3.2129 0.56718,4.5215c0.49098,-1.02213 0.93683,-2.2754 1.33755,-3.7598l1.42215,0.78125c-0.76751,2.2656 -1.48988,4.01363 -2.16713,5.2441c0.33862,0.97007 0.59258,1.4551 0.76188,1.4551c0.06208,0 0.12133,-0.11393 0.17777,-0.34179c0.14109,-0.57292 0.25114,-1.25325 0.33015,-2.041l1.34596,0.99609c-0.36683,2.66273 -0.90015,3.9941 -1.59995,3.9941c-0.29346,0 -0.62642,-0.20833 -0.99887,-0.625c-0.37248,-0.42317 -0.72802,-1.00584 -1.06666,-1.748c-0.73931,1.00913 -1.52658,1.8913 -2.36182,2.6465l-1.20206,-1.3184c1.14002,-0.91147 2.10506,-1.98567 2.89511,-3.2226c-0.52485,-1.9792 -0.88041,-4.1732 -1.06666,-6.582h-1.58304v6.1719c0.51357,-0.3125 1.04971,-0.65757 1.60844,-1.0352l0.27935,1.6211c-1.27542,1.02867 -2.55935,1.88803 -3.85176,2.5781l-0.84653,-1.7188c0.40069,-0.16927 0.79292,-0.3483 1.17666,-0.53711zM314.51142,186.0731c0.59824,0.32552 1.29805,0.60221 2.09942,0.83008c0.93683,0.26041 1.79747,0.39062 2.58191,0.39062h7.24635c-0.2596,0.56641 -0.46277,1.20117 -0.6095,1.9043h-6.73837c-1.64227,0 -3.18015,-0.36133 -4.61364,-1.084c-1.0497,-0.52083 -1.9809,-1.39323 -2.7936,-2.6172c-0.18624,1.51693 -0.48817,2.85157 -0.90577,4.0039l-1.22746,-1.582c0.54742,-2.0638 0.86065,-4.71353 0.93967,-7.9492l1.50685,0.30274c-0.01693,0.625 -0.07337,1.5853 -0.1693,2.8809c0.24831,0.46224 0.5982,0.95377 1.04967,1.4746v-5.918h-3.13219v-1.8164h3.06449v-2.2168h-2.61581v-1.7773h2.61581v-2.4023h1.68464v2.4023h2.31952v1.7773h-2.31952v2.2168h2.44651v1.8164h-2.42952v2.2266h2.11633v1.7969h-2.11633zM324.23835,173.9541c-0.38941,-1.04167 -0.84089,-1.95313 -1.35445,-2.7344l1.26135,-0.78125c0.49663,0.7422 0.98761,1.6146 1.47295,2.6172z" fill="#ffffff" fill-rule="nonzero" stroke="none" stroke-width="1" stroke-linecap="butt"/><path d="M291.89605,183.47997h-8.97255c-0.91471,1.16216 -2.03402,2.36582 -3.35794,3.61098l8.10599,-0.3528l-1.98588,-2.15829l0.88462,-1.01689c0.51753,0.53957 1.014,1.06531 1.48941,1.57721c0.47541,0.5119 0.89364,0.96155 1.25471,1.34893c1.29985,1.41119 1.83543,1.98535 1.60675,1.72248l-0.93878,1.18291c-0.20461,-0.24903 -0.57771,-0.68484 -1.11931,-1.30742l-11.15701,0.56032l-0.34301,-1.47345c1.4202,-1.16216 2.66589,-2.39349 3.73706,-3.69399h-5.18133v-1.41119h2.38305v-10.79144h11.15701v10.79144h2.43721zM288.159,182.06878v-2.28281h-8.53927v2.28281zM279.61973,176.23725v2.19979h8.53927v-2.19979zM279.61973,174.92982h8.53927v-2.17904h-8.53927z" fill="#ffffff" fill-rule="evenodd" stroke="#ffffff" stroke-width="0.5" stroke-linecap="round"/><path d="M341.46918,180.54814v1.377h-1.58647l-0.09242,3.13875h1.38624v1.39725h-1.41704l-0.0154,0.3645c-0.03081,0.621 -0.11552,1.10025 -0.25414,1.43775c-0.13862,0.3375 -0.35426,0.57712 -0.64691,0.71887c-0.29265,0.14175 -0.70082,0.21262 -1.22451,0.21262h-2.295l-0.23104,-1.4175h2.15637c0.51342,0 0.87025,-0.09112 1.07048,-0.27337c0.20023,-0.18225 0.31062,-0.51637 0.33116,-1.00237v-0.0405h-6.91579l0.38507,-4.53599h-1.20141v-1.377h1.30923l0.33886,-4.02975c-0.30805,0.513 -0.54423,0.891 -0.70852,1.134l-0.78554,-1.0935c0.56476,-0.8235 1.10129,-1.76175 1.60958,-2.81475c0.50829,-1.053 0.92159,-2.07225 1.23991,-3.05775l1.03198,0.46575c-0.17456,0.5265 -0.3748,1.07325 -0.6007,1.64025h6.74636v1.377h-7.33166c-0.32859,0.7155 -0.62637,1.3095 -0.89335,1.782h7.16223l-0.12322,4.59674zM355.96307,184.01088l0.92416,0.38475c-0.06161,0.756 -0.14889,1.5795 -0.26185,2.4705c-0.11295,0.945 -0.27981,1.58962 -0.50059,1.93387c-0.22077,0.34425 -0.51085,0.51637 -0.87025,0.51637c-0.65718,0 -1.186,-0.66825 -1.58647,-2.00475c-0.12322,-0.4185 -0.22591,-0.8235 -0.30805,-1.215c-0.67772,1.1745 -1.47352,2.27475 -2.38741,3.30075l-0.77013,-1.19475c1.20141,-1.35 2.14097,-2.646 2.81869,-3.888c-0.3594,-2.4165 -0.5853,-5.33924 -0.67772,-8.76824h-4.75942v-1.39725h4.72861c-0.03081,-1.215 -0.04621,-2.26125 -0.04621,-3.13875l1.06278,-0.02025c0.01027,0.297 0.02567,1.35 0.04621,3.159h1.40164c-0.18483,-0.837 -0.3902,-1.62675 -0.61611,-2.36925l0.89335,-0.405c0.28752,1.0395 0.53396,1.96425 0.73933,2.77425h1.01657v1.39725h-3.41939c0.04107,2.7 0.18483,5.07599 0.43127,7.12799c0.57503,-1.3635 1.12953,-3.19275 1.66349,-5.48774l0.95496,0.42525c-0.5853,2.7 -1.36057,5.04899 -2.3258,7.04699c0.10268,0.6075 0.24644,1.22175 0.43127,1.84275c0.13349,0.4185 0.25414,0.702 0.36196,0.8505c0.10782,0.1485 0.22334,0.22275 0.34656,0.22275c0.13349,0 0.23617,-0.11137 0.30805,-0.33412c0.07188,-0.22275 0.14376,-0.63787 0.21564,-1.24537zM347.46081,183.72738l0.16943,1.51875c-0.56476,0.2025 -1.3503,0.49612 -2.35661,0.88087c-1.00631,0.38475 -1.65322,0.65137 -1.94073,0.79987l-0.24644,-1.539l1.83292,-0.66825v-7.14824h-1.55567v-1.458h1.55567v-4.92074h1.07819v4.92074h1.38624v1.458h-1.38624v6.74324zM332.9207,185.06388h5.77599l0.03081,-0.74925c0.04107,-0.918 0.06675,-1.7145 0.07701,-2.3895h-5.60657zM338.95854,177.32839h-5.36012l-0.27725,3.21975h5.52955c0.07188,-1.8495 0.10782,-2.92275 0.10782,-3.21975zM351.43469,183.36288h-3.5118v-5.71049h3.5118zM329.16246,189.37712l-1.10899,-0.4455l1.49406,-6.96599l1.04738,0.42525c-0.08215,0.378 -0.52369,2.51775 -1.32463,6.41924zM351.55791,184.67913l0.16943,1.458c-0.57503,0.1755 -1.42475,0.44212 -2.54914,0.79987c-1.12439,0.35775 -1.80981,0.58387 -2.05625,0.67837l-0.24644,-1.47825c0.60584,-0.1755 1.47352,-0.43537 2.60305,-0.77962c1.12953,-0.34425 1.82265,-0.57037 2.07936,-0.67837zM330.99537,178.76614l-0.66231,1.27575c-1.25275,-1.431 -2.08449,-2.349 -2.49523,-2.754l0.66231,-1.1745zM331.42665,173.92639l-0.63151,1.19475c-0.7496,-0.81 -1.5762,-1.66725 -2.47983,-2.57175l0.66231,-1.15425c0.57503,0.567 1.39137,1.41075 2.44902,2.53125zM348.84705,178.96864v3.078h1.64808v-3.078zM337.24885,183.97038l-0.64691,1.053c-0.22591,-0.27 -0.53653,-0.6075 -0.93186,-1.0125c-0.39533,-0.405 -0.74703,-0.756 -1.05508,-1.053l0.5853,-1.0125c0.70852,0.675 1.39137,1.35 2.04855,2.025zM334.89224,178.40164l0.5853,-1.03275c0.90362,0.864 1.5608,1.5255 1.97154,1.9845l-0.61611,1.0935c-0.5545,-0.621 -1.20141,-1.30275 -1.94073,-2.04525z" fill="#ffffff" fill-rule="evenodd" stroke="#ffffff" stroke-width="0.5" stroke-linecap="round"/></g></g></svg>