<svg version="1.1" xmlns="http://www.w3.org/2000/svg" xmlns:xlink="http://www.w3.org/1999/xlink" width="155.10552" height="19.94836" viewBox="0,0,155.10552,19.94836"><g transform="translate(-240.2877,-170.4979)"><g fill="#ffffff" stroke-miterlimit="10"><path d="M245.19,187.08v-5.8398h2.041v1.6406h3.7012v1.6797h-3.7012v2.2168c1.6016,-0.26041 2.8744,-0.49804 3.8184,-0.71289l0.0586,1.6406c-2.14847,0.61198 -4.5801,1.11001 -7.2949,1.4941l-0.5664,-1.875c0.6966,-0.07813 1.3444,-0.15951 1.9434,-0.24414zM251.1177,172.119h7.8516v1.6797h-5.5664v1.7188h4.8633v5.127h-14.58c-0.03907,2.05727 -0.14323,3.66207 -0.3125,4.8144c-0.21485,1.47133 -0.64455,2.81247 -1.2891,4.0234l-1.7969,-1.4551c0.61198,-1.2044 1.00261,-2.6367 1.1719,-4.2969c0.12369,-1.21747 0.18554,-2.85483 0.18554,-4.9121v-6.6992h7.3047v-1.6211h2.168zM243.7056,173.7987v1.7188h2.9004v-1.7188zM243.7056,177.0799v2.002h2.9004v-2.002zM256.2056,179.0819v-2.002h-2.8027v2.002zM248.608,173.7987v1.7188h2.793v-1.7188zM248.608,177.0799v2.002h2.793v-2.002zM253.7056,183.2811c1.41273,-0.48177 2.63343,-1.04167 3.6621,-1.6797l1.2988,1.582c-1.46487,0.71613 -3.1185,1.32487 -4.9609,1.8262v1.4844c0,0.39063 0.12044,0.61849 0.36133,0.68359c0.20182,0.0586 0.68035,0.0879 1.4356,0.0879c0.90493,0 1.43553,-0.0944 1.5918,-0.2832c0.14323,-0.16927 0.2474,-0.7487 0.3125,-1.7383l0.0195,-0.30273l2.002,0.53711c-0.013,0.08463 -0.03253,0.32552 -0.0586,0.72265c-0.09765,1.26953 -0.38086,2.08983 -0.84961,2.4609c-0.46223,0.37109 -1.62433,0.55664 -3.4863,0.55664c-1.31513,0 -2.1908,-0.09766 -2.627,-0.29297c-0.48177,-0.22135 -0.72265,-0.69662 -0.72265,-1.4258v-6.2598h2.0215z" fill-rule="nonzero" stroke="none" stroke-width="1" stroke-linecap="butt"/><path d="M332.91119,186.25511l2.1387,0.58594c-0.013,1.6276 -0.3678,2.6302 -1.0644,3.0078c-0.56641,0.30599 -2.12891,0.45899 -4.6875,0.45899c-2.03127,0 -3.3073,-0.13021 -3.8281,-0.39063c-0.46875,-0.23437 -0.70312,-0.69987 -0.70312,-1.3965v-2.0801h-3.877v1.5039h-2.0996v-7.998c-0.51432,0.25391 -0.94725,0.45898 -1.2988,0.61523l-1.2598,-1.7188c2.78647,-1.09373 4.7982,-2.28187 6.0352,-3.5644h-5.1953v-1.7774h6.5723c0.35156,-0.58593 0.68034,-1.29883 0.98633,-2.1387l2.2363,0.30274c-0.29948,0.71613 -0.58594,1.3281 -0.85938,1.8359h8.9258v1.7774h-5.2344c1.3216,1.08727 3.33333,2.05407 6.0352,2.9004l-1.0644,1.8652c-0.54687,-0.20833 -1.13281,-0.44596 -1.7578,-0.71289zM326.84669,178.44261h4.2774c-1.57553,-0.85287 -2.94597,-1.90757 -4.1113,-3.1641h-2.1777c-0.944,1.18487 -2.09633,2.23957 -3.457,3.1641h3.3887v-2.041h2.0801zM326.84669,180.02461v1.6113h3.9844v-1.6113zM324.76659,180.02461h-3.877v1.6113h3.877zM332.84279,186.44061h-5.9961v1.0644c0,0.47526 0.16602,0.75846 0.49805,0.84961c0.35157,0.09115 1.01563,0.13672 1.9922,0.13672c1.41273,0 2.35673,-0.04883 2.832,-0.14649c0.30599,-0.06513 0.48828,-0.28649 0.54688,-0.66406c0.07161,-0.40365 0.11393,-0.81705 0.12695,-1.2402zM324.76659,183.13981h-3.877v1.7188h3.877zM326.84669,183.13981v1.7188h3.9844v-1.7188z" fill-rule="nonzero" stroke="none" stroke-width="1" stroke-linecap="butt"/><path d="M344.83119,181.32511h-8.3203v-1.6406h8.3203v-1.543h-6.416v-1.5625h6.416v-1.4746h-7.4609v-1.6016h4.1016c-0.34505,-0.55989 -0.70639,-1.06119 -1.084,-1.5039l2.2656,-0.63477c0.52083,0.6706 0.95053,1.3835 1.2891,2.1387h4.0137c0.51432,-0.7292 0.91145,-1.43557 1.1914,-2.1191l2.4219,0.47852c-0.35807,0.57943 -0.73241,1.12629 -1.123,1.6406h4.1602v1.6016h-7.5781v1.4746h6.543v1.5625h-6.543v1.543h8.4473v1.6406h-8.4473v1.6406h8.1055v1.6797h-7.3828c0.69013,0.85287 1.58533,1.569 2.6856,2.1484c1.4518,0.76173 3.1022,1.28583 4.9512,1.5723l-1.3184,2.002c-3.7956,-0.92447 -6.43233,-2.53907 -7.9102,-4.8438c-0.58594,1.25653 -1.57227,2.2982 -2.959,3.125c-1.25653,0.7552 -3.00783,1.35417 -5.2539,1.7969l-1.3184,-1.9043c4.1992,-0.46224 6.7936,-1.76107 7.7832,-3.8965h-7.5391v-1.6797h7.959z" fill-rule="nonzero" stroke="none" stroke-width="1" stroke-linecap="butt"/><path d="M361.83119,185.22511c-1.79687,0.944 -3.36263,1.66667 -4.6973,2.168l-0.82031,-2.1484c2.08987,-0.70313 3.92907,-1.4323 5.5176,-2.1875v-4.375h-4.834v-2.0606h4.834v-5.1953h2.1777v19.004h-2.1777zM368.77459,177.61771c1.51693,-0.79427 2.9883,-1.80337 4.4141,-3.0273l1.6211,1.6992c-1.92707,1.3672 -3.9388,2.53257 -6.0352,3.4961v7.3242c0,0.31901 0.10417,0.51433 0.3125,0.58594c0.22135,0.07161 0.73242,0.10742 1.5332,0.10742c1.05467,0 1.71547,-0.06185 1.9824,-0.18555c0.1888,-0.08463 0.31901,-0.3483 0.39062,-0.79101c0.09766,-0.61849 0.16928,-1.61783 0.21485,-2.998l2.1875,0.67383c-0.06513,1.6862 -0.1693,2.89713 -0.3125,3.6328c-0.16276,0.82033 -0.58919,1.35093 -1.2793,1.5918c-0.65755,0.22135 -1.73502,0.33203 -3.2324,0.33203c-1.7578,0 -2.86457,-0.14648 -3.3203,-0.43945c-0.4362,-0.28646 -0.6543,-0.83659 -0.6543,-1.6504v-16.543h2.1777z" fill-rule="nonzero" stroke="none" stroke-width="1" stroke-linecap="butt"/><path d="M382.97119,173.67511h4.1797v1.8848h-1.377c-0.2474,0.99607 -0.57943,2.041 -0.9961,3.1348h2.6074v1.8848h-10.898v-1.8848h2.3926c-0.26041,-1.25 -0.53385,-2.29493 -0.82031,-3.1348h-1.2695v-1.8848h4.1406v-2.2559h2.041zM380.03179,175.55991c0.33203,0.97007 0.58919,2.015 0.77148,3.1348h1.9922l0.09766,-0.27344c0.27995,-0.7422 0.54036,-1.5853 0.78125,-2.5293l0.0879,-0.33203zM386.08649,182.22011v7.998h-2.002v-0.95703h-4.2578v1.1621h-2.0606v-8.2031zM379.82669,184.01701v3.3887h4.2578v-3.3887zM392.87369,179.08541c0.77473,0.73567 1.38997,1.61133 1.8457,2.627c0.44922,1.0156 0.67383,2.04423 0.67383,3.0859c0,0.96353 -0.17904,1.67317 -0.53711,2.1289c-0.37109,0.47526 -0.98306,0.71289 -1.8359,0.71289c-0.7292,0 -1.43557,-0.05208 -2.1191,-0.15625l-0.47852,-2.0801c0.78773,0.14323 1.43877,0.21485 1.9531,0.21485c0.39063,0 0.63477,-0.09115 0.73242,-0.27344c0.06513,-0.13021 0.0977,-0.39062 0.0977,-0.78125c0,-1.60807 -0.48177,-2.9948 -1.4453,-4.1602c-0.25391,-0.30599 -0.57292,-0.63476 -0.95703,-0.98633l0.11719,-0.27343c0.67707,-1.52993 1.2044,-3.125 1.582,-4.7852h-2.5v16.064h-2.0215v-18.086h5.8789l1.084,0.99609c-0.65755,2.2396 -1.34765,4.15693 -2.0703,5.752z" fill-rule="nonzero" stroke="none" stroke-width="1" stroke-linecap="butt"/><path d="M283.25455,174.5941v5.37231h12.43195l-0.29092,6.41962c-0.07758,0.98266 -0.33941,1.67117 -0.78548,2.06553c-0.44608,0.39436 -1.16691,0.59154 -2.1625,0.59154h-2.23038l-0.27152,-1.37702h1.90067c0.51719,0 0.91801,-0.05818 1.20247,-0.17455c0.28445,-0.11637 0.4881,-0.29738 0.61093,-0.54305c0.12283,-0.24566 0.20364,-0.5883 0.24243,-1.02791c0.03879,-0.58184 0.08081,-1.35116 0.12606,-2.30796c0.04525,-0.9568 0.08081,-1.72612 0.10667,-2.30796h-12.35437v-8.04876h3.76255l0.25213,-0.62063l0.50426,-1.31883l1.51278,0.17455l-0.25213,0.67881c-0.14223,0.41375 -0.27152,0.77578 -0.38789,1.0861h6.69114c-0.11637,2.01704 -0.18748,3.14839 -0.21334,3.39406c-0.06465,0.62063 -0.18425,1.10226 -0.3588,1.4449c-0.17455,0.34264 -0.43961,0.5883 -0.79518,0.737c-0.35557,0.14869 -0.85013,0.22304 -1.48369,0.22304h-1.66794l-0.27152,-1.24126h1.51278c0.58184,0 0.98266,-0.09374 1.20247,-0.28122c0.21981,-0.18748 0.3491,-0.50749 0.38789,-0.96003l0.09697,-0.96973c0.03879,-0.38789 0.06465,-0.72407 0.07758,-1.00852zM315.8375,183.80654h-9.63912c-0.98266,1.0861 -2.18513,2.21099 -3.6074,3.37466l8.70818,-0.32971l-2.13341,-2.01704l0.95034,-0.95034c0.55598,0.50426 1.08933,0.99559 1.60006,1.47399c0.51073,0.4784 0.96003,0.89862 1.34793,1.26065c1.39641,1.31883 1.97179,1.85542 1.72612,1.60975l-1.00852,1.10549c-0.21981,-0.23274 -0.62063,-0.64002 -1.20247,-1.22186l-11.98587,0.52365l-0.3685,-1.37702c1.52571,-1.0861 2.86394,-2.23685 4.01468,-3.45224h-5.56625v-1.31883h2.56009v-10.0852h11.98587v10.0852h2.61827zM271.30747,171.89825v13.75078c0,0.58184 0.09374,0.96973 0.28122,1.16368c0.18748,0.19395 0.54628,0.29092 1.0764,0.29092h1.04731c0.42668,0 0.74346,-0.03879 0.95034,-0.11637c0.20688,-0.07758 0.35234,-0.21334 0.43638,-0.40729c0.08404,-0.19395 0.13899,-0.49133 0.16485,-0.89215c0.02586,-0.2586 0.05172,-0.74992 0.07758,-1.47399c0.02586,-0.72407 0.03232,-1.22186 0.01939,-1.49339l1.4546,0.27152c0,0.45254 -0.01293,0.99236 -0.03879,1.61945c-0.02586,0.62709 -0.05172,1.16691 -0.07758,1.61945c-0.03879,0.62063 -0.15192,1.0958 -0.33941,1.4255c-0.18748,0.32971 -0.47517,0.56568 -0.86306,0.7079c-0.38789,0.14223 -0.92448,0.21334 -1.60975,0.21334h-1.4546c-0.65942,0 -1.17984,-0.07758 -1.56127,-0.23274c-0.38143,-0.15516 -0.66265,-0.42345 -0.84367,-0.80488c-0.18102,-0.38143 -0.27152,-0.91478 -0.27152,-1.60006v-14.0417zM289.88751,185.66842v-2.90919h1.41581v4.22803h-10.8028v-4.22803h1.41581v2.90919h3.2389v-3.56861h1.51278v3.56861zM261.02833,189.43097l-1.14428,-1.28004c1.18954,-0.91801 2.07199,-1.76491 2.64736,-2.54069c0.57537,-0.77578 0.97296,-1.68733 1.19277,-2.73464c0.21981,-1.04731 0.32971,-2.47604 0.32971,-4.28621v-6.71054h1.59036v6.71054c0,2.00411 -0.13253,3.61386 -0.39759,4.82926c-0.26506,1.2154 -0.7176,2.26917 -1.35762,3.16132c-0.64002,0.89215 -1.59359,1.84249 -2.86071,2.85101zM311.82281,182.4877v-2.13341h-9.17365v2.13341zM302.64916,177.03782v2.05583h9.17365v-2.05583zM302.64916,175.81596h9.17365v-2.03643h-9.17365zM288.64625,177.50329l-0.89215,1.0667c-1.44813,-1.15075 -2.48251,-1.94593 -3.10314,-2.38554l0.85336,-1.0667c0.55598,0.40082 1.60329,1.196 3.14193,2.38554z" fill-rule="evenodd" stroke="#ffffff" stroke-width="0.5" stroke-linecap="round"/></g></g></svg>