<svg version="1.1" xmlns="http://www.w3.org/2000/svg" xmlns:xlink="http://www.w3.org/1999/xlink" width="208" height="32" viewBox="0,0,208,32"><g transform="translate(-240,-164)"><g stroke="none" stroke-miterlimit="10"><path d="M251.58777,173.60094h6.45775v2.16158h-6.45775v-2.16158M251.58777,183.07073h6.79143v2.16158h-6.79143v-2.16158M251.45037,178.33584h6.16332v2.09982h-6.16332v-2.09982M240.85102,173.60094h6.02593v2.16158h-6.02593v-2.16158M241.10619,178.31525h5.67261v2.12041h-5.67261v-2.12041M250.56709,170.84234h2.19838v19.12487h-2.19838v-19.12487M245.97404,170.82176h2.17875v19.10429h-2.17875v-19.10429M240.39957,183.15308h6.81106v2.16158h-6.81106zM271.07879,171.60404h1.98247v17.80734h-1.98247v-17.80734M275.25965,171.23349h2.02173v18.71314h-2.02173v-18.71314M266.97645,171.25407h1.98247v6.97883c0,1.34499 -0.05496,2.70644 -0.16488,4.08436c-0.11254,1.38067 -0.352,2.71879 -0.7184,4.01437c-0.3664,1.29832 -0.94871,2.51018 -1.74693,3.63558c-0.13086,-0.15097 -0.30097,-0.30605 -0.51034,-0.46526c-0.20937,-0.15646 -0.4279,-0.31429 -0.65559,-0.47349c-0.23031,-0.15646 -0.43706,-0.27586 -0.62026,-0.35821c0.74588,-1.00188 1.28893,-2.07924 1.62916,-3.23208c0.34023,-1.15284 0.56006,-2.34 0.65951,-3.56147c0.09683,-1.22147 0.14525,-2.44293 0.14525,-3.6644v-6.95824M265.30804,176.68891l1.5899,0.51466c-0.0916,0.59015 -0.20544,1.20774 -0.34153,1.85279c-0.13871,0.64504 -0.3062,1.2695 -0.50249,1.87337c-0.19628,0.60387 -0.43183,1.13912 -0.70662,1.60575l-1.55065,-0.90581c0.26171,-0.41173 0.48809,-0.89208 0.67914,-1.44106c0.18843,-0.54897 0.35462,-1.1254 0.49856,-1.72927c0.14394,-0.60387 0.25517,-1.19402 0.33368,-1.77044M268.50747,177.67707l1.49176,-0.59701c0.20937,0.4529 0.40958,0.94012 0.60063,1.46164c0.18843,0.52152 0.35462,1.03207 0.49856,1.53164c0.14394,0.50231 0.24208,0.95247 0.29443,1.35048l-1.57027,0.67936c-0.05234,-0.41173 -0.14394,-0.8715 -0.2748,-1.3793c-0.13086,-0.5078 -0.28396,-1.02933 -0.45931,-1.56458c-0.17797,-0.53525 -0.37163,-1.02933 -0.581,-1.48223M272.3939,177.38886l1.51139,-0.72053c0.28788,0.48035 0.56268,0.9909 0.82439,1.53164c0.26171,0.54348 0.49725,1.08285 0.70662,1.6181c0.20937,0.53525 0.3664,1.0156 0.47108,1.44106l-1.60953,0.80287c-0.10468,-0.42546 -0.25517,-0.91267 -0.45145,-1.46164c-0.19628,-0.54897 -0.41874,-1.10206 -0.66737,-1.65927c-0.24863,-0.55446 -0.51034,-1.07187 -0.78514,-1.55222M260.47944,172.53044l1.23659,-1.60575c0.34023,0.17842 0.71709,0.39114 1.1306,0.63818c0.41089,0.24704 0.81,0.49408 1.19733,0.74111c0.38472,0.24704 0.69485,0.47349 0.93039,0.67936l-1.29548,1.79103c-0.22245,-0.21959 -0.51688,-0.46388 -0.88328,-0.73288c-0.3664,-0.26625 -0.75504,-0.52976 -1.16593,-0.79052c-0.41351,-0.26076 -0.79691,-0.50094 -1.15023,-0.72053M259.69431,178.04762l1.17771,-1.60575c0.35331,0.17842 0.73934,0.38017 1.15808,0.60524c0.41874,0.22782 0.82178,0.45839 1.20911,0.69171c0.38472,0.23331 0.70793,0.44604 0.96964,0.63818l-1.23659,1.77044c-0.23554,-0.20587 -0.54305,-0.43232 -0.92254,-0.67936c-0.37948,-0.24704 -0.77467,-0.49819 -1.18556,-0.75347c-0.41351,-0.25253 -0.80346,-0.47486 -1.16985,-0.667M260.04762,188.58792c0.26171,-0.53525 0.54305,-1.16657 0.84402,-1.89396c0.30097,-0.72739 0.60586,-1.50007 0.91468,-2.31804c0.3062,-0.81523 0.58362,-1.61398 0.83225,-2.39627l1.70767,1.13226c-0.22245,0.72739 -0.46716,1.47537 -0.7341,2.24393c-0.26956,0.76856 -0.54436,1.5234 -0.82439,2.26452c-0.28265,0.74111 -0.56137,1.44106 -0.83617,2.09982zM282.03145,181.77378v-1.70868l1.23659,-0.7617h12.75847v2.16158h-11.7378c-0.3664,0 -0.71055,0.00961 -1.03246,0.02882c-0.31929,0.02196 -0.58624,0.05627 -0.80084,0.10293c-0.21722,0.04941 -0.35855,0.10842 -0.42397,0.17704M288.41069,176.58598h2.1395v10.64323c0,0.57642 -0.06543,1.03207 -0.19628,1.36694c-0.13086,0.33762 -0.39257,0.59564 -0.78514,0.77405c-0.3664,0.19214 -0.81785,0.31154 -1.35436,0.35821c-0.53651,0.04941 -1.16462,0.07411 -1.88433,0.07411c-0.02617,-0.21959 -0.08506,-0.46663 -0.17666,-0.74111c-0.0916,-0.27449 -0.18712,-0.54623 -0.28657,-0.81523c-0.09683,-0.26625 -0.19759,-0.50231 -0.30228,-0.70818c0.51034,0.01373 1.00105,0.02333 1.47213,0.02882c0.47108,0.00823 0.79168,0.00549 0.96179,-0.00823c0.15703,0 0.26433,-0.02745 0.32191,-0.08235c0.06019,-0.0549 0.09029,-0.15097 0.09029,-0.28821v-10.60206M283.40544,182.80311l2.11987,0.6176c-0.30097,0.72739 -0.66082,1.45066 -1.07956,2.16982c-0.41874,0.7219 -0.86103,1.39851 -1.32688,2.02983c-0.46323,0.63132 -0.93693,1.18029 -1.4211,1.64692c-0.13086,-0.12352 -0.30359,-0.2786 -0.51819,-0.46526c-0.21722,-0.18391 -0.43706,-0.36232 -0.65951,-0.53525c-0.22245,-0.17018 -0.41874,-0.31017 -0.58885,-0.41996c0.70662,-0.60387 1.37006,-1.35871 1.99032,-2.26452c0.62287,-0.90581 1.11751,-1.8322 1.48391,-2.77918M291.74752,183.68833l1.78619,-0.88522c0.47108,0.5078 0.95787,1.06638 1.46035,1.67574c0.5051,0.61211 0.9775,1.21598 1.41717,1.81161c0.43706,0.59838 0.78645,1.13775 1.04816,1.6181l-1.92359,1.04991c-0.23554,-0.48035 -0.56006,-1.02658 -0.97357,-1.63869c-0.41089,-0.60936 -0.86103,-1.23382 -1.35044,-1.87337c-0.49202,-0.63681 -0.98011,-1.22284 -1.46428,-1.75809M280.14712,173.39507h16.7823v2.12041h-16.7823v-2.12041M282.03145,181.77378c-0.03926,-0.15097 -0.10207,-0.3637 -0.18843,-0.63818c-0.08375,-0.27449 -0.17797,-0.55995 -0.28265,-0.8564c-0.10468,-0.2937 -0.20283,-0.54348 -0.29443,-0.74935c0.26171,-0.08235 0.51296,-0.2539 0.75373,-0.51466c0.24339,-0.26076 0.52212,-0.61073 0.83617,-1.04991c0.17011,-0.20587 0.40827,-0.55584 0.71447,-1.04991c0.30882,-0.49408 0.64905,-1.08148 1.02068,-1.76221c0.37425,-0.67798 0.75111,-1.40812 1.1306,-2.19041c0.37948,-0.78229 0.72625,-1.5783 1.04031,-2.38804l2.29653,0.88522c-0.49725,1.1254 -1.04685,2.23021 -1.64879,3.31443c-0.60194,1.08422 -1.22089,2.11355 -1.85685,3.08798c-0.63334,0.97443 -1.25753,1.85279 -1.87255,2.63507v0.04117c0,0 -0.08506,0.04392 -0.25517,0.13175c-0.17011,0.09058 -0.35985,0.20037 -0.56922,0.32938c-0.20937,0.13175 -0.39911,0.26625 -0.56922,0.4035c-0.17011,0.13724 -0.25517,0.26076 -0.25517,0.37056zM310.39452,171.74815h5.12302v1.99689h-3.25832v16.13983h-1.8647v-18.13672M315.08572,171.74815h0.39257l0.31405,-0.08235l1.4525,0.94698c-0.32714,0.98815 -0.69354,2.03395 -1.09919,3.13739c-0.40565,1.10618 -0.79822,2.11218 -1.17771,3.01798c0.81131,0.94698 1.33735,1.82808 1.57813,2.64331c0.24339,0.81797 0.36509,1.57007 0.36509,2.25628c0,0.69994 -0.0759,1.29695 -0.22769,1.79103c-0.14918,0.49408 -0.40042,0.8715 -0.75373,1.13226c-0.17011,0.12352 -0.3664,0.22233 -0.58885,0.29645c-0.22245,0.07686 -0.458,0.13587 -0.70662,0.17704c-0.22245,0.02745 -0.47108,0.04392 -0.74588,0.04941c-0.2748,0.00823 -0.5496,0.00549 -0.82439,-0.00823c-0.01309,-0.28821 -0.05889,-0.63132 -0.1374,-1.02933c-0.07851,-0.39801 -0.20283,-0.74111 -0.37294,-1.02933c0.24863,0.02745 0.47501,0.04392 0.67914,0.04941c0.20152,0.00823 0.38733,0.00549 0.55745,-0.00823c0.13086,0 0.26171,-0.01784 0.39257,-0.05352c0.13086,-0.03294 0.24208,-0.08372 0.33368,-0.15234c0.17011,-0.10979 0.2905,-0.29233 0.36116,-0.5476c0.07328,-0.25253 0.10992,-0.55721 0.10992,-0.91404c0,-0.59015 -0.1374,-1.25578 -0.4122,-1.99689c-0.2748,-0.74111 -0.80477,-1.53713 -1.5899,-2.38804c0.19628,-0.52152 0.39649,-1.08148 0.60063,-1.67986c0.20152,-0.59564 0.3978,-1.19951 0.58885,-1.81161c0.18843,-0.60936 0.36116,-1.18167 0.51819,-1.71692c0.15703,-0.53525 0.28788,-0.98815 0.39257,-1.35871v-0.72053M299.73629,173.06569h9.44127v1.97631h-9.44127v-1.97631M299.22595,178.60346h10.38344v1.99689h-10.38344v-1.99689M300.79622,175.4949l1.80581,-0.47349c0.2748,0.49408 0.5195,1.03893 0.7341,1.63457c0.21722,0.59838 0.37163,1.11716 0.46323,1.55634l-1.88433,0.55584c-0.07851,-0.4529 -0.22245,-0.98541 -0.43183,-1.59751c-0.20937,-0.60936 -0.43837,-1.16794 -0.68699,-1.67574M306.35107,174.95965l2.08061,0.47349c-0.1832,0.46663 -0.37294,0.94012 -0.56922,1.42047c-0.19628,0.48035 -0.38603,0.94012 -0.56922,1.3793c-0.1832,0.43918 -0.3664,0.83032 -0.5496,1.17343l-1.76656,-0.4529c0.17011,-0.37056 0.34284,-0.78915 0.51819,-1.25578c0.17797,-0.46663 0.34153,-0.94012 0.49071,-1.42047c0.15179,-0.48035 0.27349,-0.91953 0.36509,-1.31754M301.28694,187.02335h6.43812v1.93513h-6.43812v-1.93513M300.18774,182.2061h8.61688v7.57584h-2.08061v-5.59953h-4.55379v5.72305h-1.98247v-7.69936M302.87684,171.15114l1.90396,-0.55584c0.20937,0.43918 0.41481,0.91953 0.61633,1.44106c0.20414,0.52152 0.352,0.96757 0.4436,1.33812l-2.02173,0.65877c-0.07851,-0.37056 -0.20675,-0.82758 -0.38472,-1.37106c-0.17535,-0.54074 -0.36116,-1.04442 -0.55745,-1.51105z" fill="#ffffff" stroke-width="1"/><path d="M240,196v-32h208v32z" fill="none" stroke-width="0"/></g></g></svg>