<svg version="1.1" xmlns="http://www.w3.org/2000/svg" xmlns:xlink="http://www.w3.org/1999/xlink" width="208" height="32" viewBox="0,0,208,32"><g transform="translate(-240,-164)"><g stroke="none" stroke-miterlimit="10"><path d="M241.07478,177.79589h18.12804v2.25492h-18.12804v-2.25492M248.90961,170.48753h2.33846v18.78429h-2.33846zM262.7205,171.19219h4.07731v1.95292h-4.07731v-1.95292M262.60057,175.82283h3.77751v1.95292h-3.77751v-1.95292M262.58059,180.55414h3.79749v1.99319h-3.79749v-1.99319M261.68118,171.19219h1.91873v7.28822c0,0.80533 -0.01599,1.67374 -0.04797,2.60524c-0.03464,0.93418 -0.0986,1.88715 -0.19187,2.85892c-0.09327,0.97445 -0.23318,1.91803 -0.41972,2.83073c-0.18654,0.91271 -0.43305,1.74488 -0.73951,2.49652c-0.11992,-0.10738 -0.28914,-0.22549 -0.50767,-0.35434c-0.22119,-0.12617 -0.44104,-0.24697 -0.65956,-0.3624c-0.22119,-0.11275 -0.41173,-0.19596 -0.57162,-0.24965c0.27982,-0.69795 0.50367,-1.46301 0.67156,-2.29519c0.16522,-0.83217 0.28515,-1.68448 0.35976,-2.55692c0.07195,-0.87244 0.12125,-1.73146 0.1479,-2.57705c0.02665,-0.8456 0.03997,-1.6375 0.03997,-2.37572v-7.30836M265.69853,171.19219h1.97869v15.60324c0,0.4832 -0.0493,0.88183 -0.1479,1.19591c-0.10127,0.31676 -0.29181,0.56239 -0.57162,0.73688c-0.29314,0.18791 -0.63958,0.30468 -1.03931,0.35032c-0.39974,0.04832 -0.90607,0.07248 -1.519,0.07248c-0.01333,-0.18791 -0.0493,-0.40937 -0.10793,-0.6644c-0.06129,-0.25502 -0.12792,-0.51004 -0.19987,-0.76506c-0.07462,-0.25502 -0.15856,-0.46977 -0.25183,-0.64426c0.34644,0.01342 0.66623,0.02013 0.95937,0.02013c0.29314,0 0.49301,0 0.5996,0c0.19987,0 0.2998,-0.11409 0.2998,-0.34226v-15.56298M269.65592,171.51432l2.01867,0.3624c-0.15989,0.97982 -0.36243,1.95292 -0.6076,2.91932c-0.24784,0.96639 -0.52499,1.86836 -0.83145,2.7059c-0.30646,0.84023 -0.64624,1.58247 -1.01933,2.22673c-0.11992,-0.10738 -0.28914,-0.2322 -0.50767,-0.37448c-0.22119,-0.13959 -0.4477,-0.27381 -0.67955,-0.40266c-0.23451,-0.12617 -0.43172,-0.22952 -0.59161,-0.31005c0.37309,-0.57715 0.70354,-1.24826 0.99135,-2.01332c0.28515,-0.76506 0.52765,-1.58381 0.72752,-2.45625c0.19987,-0.87244 0.36642,-1.7583 0.49967,-2.65758M272.77386,170.709h2.07863v17.31457h-2.07863v-17.31457M269.03633,180.63467h9.5537v2.01332h-9.5537v-2.01332M268.21687,186.7149h11.15264v2.03345h-11.15264v-2.03345M270.21555,174.81617h8.67428v2.05359h-9.49374zM292.48086,170.4674h2.01867v14.15365h-2.01867v-14.15365M286.44484,178.62135l10.47309,-4.46957l0.79947,1.85226l-10.47309,4.52997l-0.79947,-1.91266M288.4835,172.40019h2.03865v13.16712c0,0.37582 0.03331,0.66037 0.09993,0.85365c0.06662,0.19596 0.20653,0.3275 0.41972,0.39461c0.21319,0.06711 0.52632,0.10067 0.93938,0.10067c0.11992,0 0.31579,0 0.58761,0c0.27448,0 0.58495,0 0.93139,0c0.34644,0 0.69687,0 1.05131,0c0.35177,0 0.67156,0 0.95937,0c0.28515,0 0.49434,0 0.62759,0c0.37309,0 0.6529,-0.07114 0.83945,-0.21341c0.18654,-0.13959 0.32645,-0.39729 0.41972,-0.77312c0.09327,-0.37582 0.15989,-0.91942 0.19987,-1.63079c0.23984,0.17449 0.54364,0.33555 0.9114,0.4832c0.36509,0.14764 0.69421,0.24831 0.98735,0.302c-0.09327,0.95297 -0.2465,1.70059 -0.4597,2.24284c-0.21319,0.54494 -0.53298,0.93418 -0.95937,1.16773c-0.42638,0.23623 -1.01933,0.35434 -1.77883,0.35434c-0.13325,0 -0.3491,0 -0.64757,0c-0.30114,0 -0.64491,0 -1.03132,0c-0.38641,0 -0.77016,0 -1.15124,0c-0.37842,0 -0.71686,0 -1.01533,0c-0.30114,0 -0.51166,0 -0.63158,0c-0.85277,0 -1.52566,-0.09396 -2.01867,-0.28187c-0.49301,-0.18791 -0.83545,-0.52078 -1.02732,-0.99861c-0.19454,-0.47514 -0.29181,-1.14894 -0.29181,-2.02138v-13.14699M296.51819,174.39337h-0.15989l0.39974,-0.302l0.39974,-0.26173l1.47902,0.5436l-0.07995,0.3624c0,0.95297 -0.00266,1.8281 -0.00799,2.62537c-0.00799,0.79996 -0.01466,1.50865 -0.01999,2.12607c-0.00799,0.61742 -0.02132,1.13417 -0.03997,1.55026c-0.02132,0.41609 -0.0453,0.7248 -0.07195,0.92613c-0.03997,0.45635 -0.14657,0.80801 -0.31979,1.05498c-0.17322,0.24965 -0.41972,0.42817 -0.73951,0.53554c-0.27982,0.1208 -0.61026,0.1906 -0.99135,0.20939c-0.37842,0.02148 -0.72086,0.03221 -1.02732,0.03221c-0.02665,-0.26844 -0.08394,-0.58118 -0.17189,-0.93821c-0.08528,-0.35434 -0.18121,-0.64561 -0.28781,-0.87378c0.18654,0.01342 0.38641,0.02013 0.5996,0.02013c0.21319,0 0.36642,0 0.4597,0c0.13325,0 0.23984,-0.03087 0.31979,-0.09261c0.07995,-0.05906 0.13325,-0.18254 0.15989,-0.37045c0.02665,-0.10738 0.04664,-0.33958 0.05996,-0.69661c0.01333,-0.35434 0.02398,-0.8268 0.03198,-1.41738c0.00533,-0.59057 0.00799,-1.30598 0.00799,-2.1462c0,-0.83754 0,-1.79991 0,-2.8871M280.7486,175.1987h6.53569v2.03345h-6.53569v-2.03345M283.14702,170.72913h2.01867v13.26779h-2.01867v-13.26779M280.50876,184.15799c0.54631,-0.20133 1.18189,-0.44696 1.90674,-0.73688c0.72752,-0.28723 1.49501,-0.60265 2.30248,-0.94626c0.8048,-0.34092 1.6136,-0.67916 2.4264,-1.01471l0.47968,1.91266c-1.06596,0.52346 -2.14792,1.0429 -3.24586,1.55831c-1.10061,0.51809 -2.10395,0.98518 -3.01001,1.40127zM301.15513,173.76924h17.74829v2.11399h-17.74829v-2.11399M307.65085,178.54082h7.75488v2.09385h-7.75488v-2.09385M314.8461,178.54082h2.23852c0,0 -0.00266,0.0604 -0.00799,0.1812c-0.00799,0.1208 -0.01199,0.25502 -0.01199,0.40266c0,0.14764 -0.01333,0.26844 -0.03997,0.3624c-0.11992,1.86568 -0.25317,3.38238 -0.39974,4.55011c-0.14657,1.16773 -0.31313,2.07372 -0.49967,2.71798c-0.18654,0.64426 -0.41972,1.10733 -0.69954,1.38919c-0.27982,0.30871 -0.58361,0.52346 -0.9114,0.64426c-0.32512,0.1208 -0.70753,0.20133 -1.14724,0.2416c-0.37309,0.04027 -0.86876,0.05637 -1.48702,0.04832c-0.62092,-0.00537 -1.2645,-0.02148 -1.93073,-0.04832c-0.01333,-0.32213 -0.09327,-0.68453 -0.23984,-1.08719c-0.14657,-0.40266 -0.32645,-0.75164 -0.53964,-1.04693c0.69288,0.06711 1.35511,0.10738 1.98669,0.1208c0.63425,0.01342 1.09794,0.02013 1.39108,0.02013c0.22652,0 0.41306,-0.01745 0.55963,-0.05235c0.14657,-0.03221 0.28648,-0.0953 0.41972,-0.18925c0.19987,-0.18791 0.37975,-0.58118 0.53964,-1.17981c0.15989,-0.59594 0.30646,-1.44422 0.43971,-2.54484c0.13325,-1.10062 0.2465,-2.49652 0.33978,-4.18771v-0.34226M306.35171,175.09804h2.39842c-0.0533,1.06035 -0.13325,2.12741 -0.23984,3.20118c-0.1066,1.07377 -0.27982,2.13412 -0.51966,3.18105c-0.23984,1.04693 -0.58628,2.04688 -1.03931,2.99985c-0.45304,0.95297 -1.05264,1.84152 -1.79881,2.66564c-0.74617,0.8268 -1.67889,1.55563 -2.79815,2.18647c-0.15989,-0.28187 -0.39041,-0.59057 -0.69154,-0.92613c-0.29847,-0.33555 -0.59427,-0.61071 -0.88741,-0.82546c1.03931,-0.55031 1.89475,-1.18786 2.56631,-1.91266c0.67422,-0.7248 1.2072,-1.50731 1.59894,-2.34753c0.39441,-0.83754 0.68488,-1.71669 0.87142,-2.63745c0.18654,-0.91807 0.31313,-1.85091 0.37975,-2.79852c0.06662,-0.94492 0.11992,-1.87373 0.15989,-2.78644M308.47031,171.05126l2.09862,-0.80533c0.26649,0.45635 0.53964,0.95968 0.81946,1.50999c0.27982,0.55031 0.49301,1.02008 0.63958,1.40933l-2.19855,0.96639c-0.13325,-0.41609 -0.33311,-0.91271 -0.5996,-1.48986c-0.26649,-0.57715 -0.51966,-1.10733 -0.7595,-1.59052zM321.16193,175.33964h5.9161v2.15425h-5.9161v-2.15425M330.99544,170.8298h2.23852v14.63685c0,0.55031 0.0533,0.89928 0.15989,1.04693c0.1066,0.14764 0.3531,0.22147 0.73951,0.22147c0.07995,0 0.22652,0 0.43971,0c0.21319,0 0.44637,0 0.69954,0c0.25317,0 0.48635,0 0.69954,0c0.21319,0 0.37309,0 0.47968,0c0.26649,0 0.47036,-0.11409 0.6116,-0.34226c0.13857,-0.22818 0.24117,-0.64158 0.3078,-1.24021c0.06662,-0.59594 0.11992,-1.43751 0.15989,-2.52471c0.18654,0.13422 0.39974,0.26844 0.63958,0.40266c0.23984,0.13422 0.48635,0.25099 0.73951,0.35032c0.25317,0.10201 0.47968,0.17986 0.67955,0.23355c-0.06662,1.26168 -0.19321,2.27774 -0.37975,3.04817c-0.18654,0.77312 -0.47702,1.33416 -0.87142,1.68314c-0.39174,0.34898 -0.95404,0.52346 -1.68689,0.52346c-0.1066,0 -0.29314,0 -0.55963,0c-0.26649,0 -0.55697,0 -0.87142,0c-0.31179,0 -0.59427,0 -0.84744,0c-0.25317,0 -0.43971,0 -0.55963,0c-0.71953,0 -1.28315,-0.10469 -1.69088,-0.31408c-0.40507,-0.2067 -0.69421,-0.55836 -0.86743,-1.05498c-0.17322,-0.49662 -0.25983,-1.18786 -0.25983,-2.07372v-14.59658M326.01873,170.80966h2.23852v18.26083h-2.23852v-18.26083M337.59109,173.84978l1.53898,1.93279c-0.66623,0.46977 -1.37909,0.93955 -2.13859,1.40933c-0.7595,0.46977 -1.53499,0.92613 -2.32646,1.36906c-0.79414,0.44293 -1.57096,0.85902 -2.33046,1.24826c-0.07995,-0.2416 -0.20653,-0.52749 -0.37975,-0.85768c-0.17322,-0.3275 -0.33978,-0.60534 -0.49967,-0.83352c0.73285,-0.38924 1.4697,-0.82949 2.21054,-1.32074c0.73818,-0.48857 1.44705,-0.98787 2.1266,-1.49791c0.67955,-0.51004 1.27916,-0.99324 1.79881,-1.44959M320.48238,184.54052c0.54631,-0.17449 1.17656,-0.38656 1.89075,-0.63621c0.71153,-0.24697 1.46703,-0.51541 2.2665,-0.80533c0.79947,-0.28723 1.59228,-0.57849 2.37843,-0.87378l0.39974,1.95292c-1.01267,0.45635 -2.04265,0.90599 -3.08996,1.34893c-1.04464,0.44293 -2.00668,0.8456 -2.8861,1.20799zM352.26141,171.45392h5.21656v1.95292h-3.31781v15.78444h-1.89875v-17.73736M357.03826,171.45392h0.39974l0.31979,-0.08053l1.47902,0.92613c-0.33311,0.96639 -0.7062,1.98916 -1.11926,3.0683c-0.41306,1.08182 -0.8128,2.06567 -1.19921,2.95153c0.82612,0.92613 1.36177,1.78783 1.60694,2.58511c0.24784,0.79996 0.37175,1.53549 0.37175,2.2066c0,0.68453 -0.07595,1.26839 -0.22785,1.75159c-0.15456,0.4832 -0.41173,0.85231 -0.77149,1.10733c-0.17322,0.1208 -0.37309,0.21744 -0.5996,0.28992c-0.22652,0.07516 -0.46636,0.13288 -0.71953,0.17315c-0.22652,0.02684 -0.47968,0.04295 -0.7595,0.04832c-0.27982,0.00805 -0.55963,0.00537 -0.83945,-0.00805c-0.01333,-0.28187 -0.05996,-0.61742 -0.13991,-1.00666c-0.07995,-0.38924 -0.20653,-0.7248 -0.37975,-1.00666c0.25317,0.02684 0.48368,0.04295 0.69154,0.04832c0.2052,0.00805 0.39441,0.00537 0.56763,-0.00805c0.13325,0 0.26649,-0.01745 0.39974,-0.05235c0.13325,-0.03221 0.2465,-0.08188 0.33978,-0.14899c0.17322,-0.10738 0.2958,-0.28589 0.36776,-0.53554c0.07462,-0.24697 0.11193,-0.54494 0.11193,-0.89391c0,-0.57715 -0.13991,-1.22813 -0.41972,-1.95292c-0.27982,-0.7248 -0.81946,-1.50328 -1.61893,-2.33545c0.19987,-0.51004 0.4024,-1.05766 0.6076,-1.64287c0.20786,-0.58252 0.40773,-1.1731 0.5996,-1.77172c0.19454,-0.59594 0.37175,-1.15565 0.53165,-1.67911c0.15989,-0.52346 0.29314,-0.96639 0.39974,-1.32879v-0.70466M341.40857,172.74245h9.61366v1.93279h-9.61366v-1.93279M340.88892,178.15829h10.57302v1.95292h-10.57302v-1.95292M342.48786,175.11817l1.83879,-0.46306c0.27982,0.4832 0.53032,1.01606 0.7515,1.59858c0.21852,0.58521 0.37442,1.09256 0.46769,1.52207l-1.91873,0.5436c-0.07995,-0.44293 -0.22652,-0.96371 -0.43971,-1.56234c-0.21319,-0.59594 -0.44637,-1.14222 -0.69954,-1.63884M348.14413,174.59471l2.1186,0.46306c-0.18654,0.45635 -0.37975,0.91942 -0.57962,1.38919c-0.19987,0.46977 -0.39307,0.91942 -0.57962,1.34893c-0.18654,0.42951 -0.37309,0.81204 -0.55963,1.14759l-1.79881,-0.44293c0.17322,-0.3624 0.35043,-0.77177 0.53165,-1.22813c0.17855,-0.45635 0.34511,-0.91942 0.49967,-1.38919c0.1519,-0.46977 0.27448,-0.89928 0.36776,-1.28853M342.98753,186.39277h6.55567v1.89252h-6.55567v-1.89252M341.86827,181.6816h8.77421v7.40902h-2.1186v-5.47624h-4.63694v5.59703h-2.01867v-7.52982M344.60646,170.87006l1.93872,-0.5436c0.21319,0.42951 0.42372,0.89928 0.63158,1.40933c0.2052,0.51004 0.35443,0.94626 0.4477,1.30866l-2.05864,0.64426c-0.07995,-0.3624 -0.2092,-0.80936 -0.38774,-1.34087c-0.18121,-0.52883 -0.37175,-1.02142 -0.57162,-1.47778z" fill="#ffffff" stroke-width="1"/><path d="M240,196v-32h208v32z" fill="none" stroke-width="0"/><path d="" fill="#ffffff" stroke-width="1"/></g></g></svg>