<svg version="1.1" xmlns="http://www.w3.org/2000/svg" xmlns:xlink="http://www.w3.org/1999/xlink" width="140.1033" height="20.41252" viewBox="0,0,140.1033,20.41252"><g transform="translate(-239.99608,-170.59398)"><g fill="#ffffff" fill-rule="evenodd" stroke="#ffffff" stroke-width="0.5" stroke-linecap="round" stroke-miterlimit="10"><path d="M249.63812,181.72953v1.44809h-3.54937v5.00441c0,0.52529 -0.06085,0.92635 -0.18254,1.20319c-0.12169,0.27684 -0.33466,0.4756 -0.63889,0.59627c-0.30423,0.12067 -0.74706,0.18101 -1.32848,0.18101h-1.19665l-0.28395,-1.53327h1.07495c0.39212,0 0.66593,-0.02839 0.82143,-0.08518c0.1555,-0.05679 0.25353,-0.15617 0.29409,-0.29814c0.04056,-0.14197 0.06085,-0.39751 0.06085,-0.76663v-4.30167h-3.81304v-1.44809h3.81304v-2.2999h-4.1984v-1.4055h2.4947c-0.02704,-0.14197 -0.1893,-1.08606 -0.48677,-2.83229l-0.12169,-0.59627h-1.27777v-1.3842h3.6305l-0.62875,-2.06565l1.46031,-0.25554c0.24339,0.70985 0.46649,1.48358 0.66931,2.3212h3.26542v1.3842h-1.1358c-0.17578,0.9228 -0.43945,2.06565 -0.791,3.42856h2.39329v1.4055h-3.89417v2.2999zM252.29508,178.45004h6.14548v1.53327h-2.19047v10.43474h-1.39947v-10.43474h-2.55555v0.04259c0,1.8314 -0.05747,3.32563 -0.1724,4.48268c-0.11493,1.15705 -0.32113,2.19342 -0.6186,3.10913c-0.29747,0.9157 -0.73016,1.87044 -1.29806,2.86423l-1.46031,-0.76663c0.5679,-0.89441 0.9972,-1.77107 1.28792,-2.62998c0.29071,-0.85891 0.49353,-1.84915 0.60846,-2.97071c0.11493,-1.12156 0.1724,-2.58384 0.1724,-4.38685v-6.55898c1.18988,-0.11358 2.39667,-0.30878 3.62036,-0.58562c1.22369,-0.27684 2.26146,-0.58562 3.11331,-0.92635l0.46649,1.51197c-0.71664,0.31233 -1.59891,0.59982 -2.64682,0.86246c-1.04791,0.26264 -2.07216,0.45075 -3.07274,0.56433zM242.43797,183.92295l1.19665,0.51109c-0.63551,1.74622 -1.3589,3.25109 -2.17019,4.51462l-1.11552,-0.72404c0.40564,-0.58207 0.77072,-1.22094 1.09523,-1.91658c0.32451,-0.69565 0.65579,-1.49068 0.99382,-2.38508zM247.08257,174.59557h-3.4074c0.32451,1.59005 0.54086,2.73291 0.64903,3.42856h1.9268c0.24339,-0.88021 0.52057,-2.02306 0.83157,-3.42856zM246.65665,184.77477l1.01411,-0.78793c0.50029,0.70985 1.15608,1.69653 1.96737,2.96006l-1.05467,0.85182c-0.71664,-1.17834 -1.3589,-2.18633 -1.9268,-3.02394z"/><path d="M269.14953,181.70823h8.9647l-0.26367,6.26084c-0.06761,0.85182 -0.26029,1.43744 -0.57804,1.75687c-0.31775,0.31943 -0.88227,0.47915 -1.69356,0.47915h-2.35273l-0.2231,-1.3842h2.06878c0.55438,0 0.93636,-0.09583 1.14594,-0.28749c0.20958,-0.19166 0.33466,-0.55723 0.37522,-1.09671c0,-0.28394 0.02028,-0.83052 0.06085,-1.63974c0.05409,-1.44809 0.08113,-2.36379 0.08113,-2.7471h-8.68075c-0.7572,0.83762 -1.52792,1.56166 -2.31216,2.17213l-0.77072,-1.21384c0.59494,-0.42591 1.22031,-0.99378 1.8761,-1.70363c0.65579,-0.70985 1.26763,-1.49778 1.83553,-2.36379h-2.29188v-7.62375c0.77072,-0.08518 1.65637,-0.22005 2.65696,-0.40461c1.00059,-0.18456 1.80511,-0.37622 2.41357,-0.57498l0.30423,1.27772c-0.54086,0.18456 -1.19327,0.35492 -1.95723,0.51109c-0.76396,0.15617 -1.45693,0.27684 -2.07892,0.36202v1.81011h3.71163v1.29902h-3.71163v2.00177h8.55906v-2.00177h-3.75219v-1.29902h3.75219v-2.00177h-3.83332v-1.34161h5.17194v7.98577h-7.32185c-0.31099,0.53948 -0.69635,1.12866 -1.15608,1.76752zM263.57194,182.04896l0.66931,0.21295l0.70987,0.21295c-1.23045,4.11711 -1.98765,6.70095 -2.2716,7.75152l-1.39947,-0.48979c0.21634,-0.63886 0.61522,-1.93433 1.19665,-3.88641c0.58142,-1.95208 0.9465,-3.21915 1.09523,-3.80123zM265.15395,179.49351l-0.93298,1.25643c-0.48677,-0.49689 -1.05805,-1.05767 -1.71384,-1.68234c-0.65579,-0.62466 -1.20003,-1.11446 -1.63271,-1.46938l0.89241,-1.17125c0.9465,0.79503 2.07554,1.81721 3.38712,3.06653zM266.69539,189.16162l-1.3589,-0.61757c0.28395,-0.48269 0.58142,-1.11801 0.89241,-1.90594c0.31099,-0.78793 0.57466,-1.50842 0.791,-2.16148l1.27777,0.4685c-0.21634,0.68145 -0.47325,1.42324 -0.77072,2.22537c-0.29747,0.80213 -0.57466,1.46583 -0.83157,1.99112zM265.55959,174.34003l-0.89241,1.21384c-0.74368,-0.72404 -1.82539,-1.68234 -3.24514,-2.87488l0.89241,-1.19254c0.82481,0.65306 1.90652,1.60425 3.24514,2.85358zM268.98727,185.05161l1.27777,-0.29814c0.12169,0.41171 0.26029,0.99733 0.41578,1.75687c0.1555,0.75953 0.26705,1.38065 0.33466,1.86335l-1.31834,0.23425c-0.24339,-1.51907 -0.48001,-2.70451 -0.70987,-3.55633zM271.44141,184.90254l1.15608,-0.4472c0.20282,0.4685 0.40226,1.02928 0.59832,1.68234c0.19606,0.65306 0.31437,1.03637 0.35494,1.14995c0.02704,0.09938 0.05409,0.18456 0.08113,0.25554c0.02704,0.07098 0.04733,0.14197 0.06085,0.21295l-1.21693,0.42591c-0.36508,-1.32031 -0.70987,-2.41348 -1.03439,-3.27949zM273.79414,184.66829l1.11552,-0.55368c0.21634,0.42591 0.45973,0.9441 0.73016,1.55456c0.27043,0.61047 0.45973,1.05767 0.5679,1.34161l-1.15608,0.55368c-0.16226,-0.41171 -0.37522,-0.9228 -0.63889,-1.53327c-0.26367,-0.61047 -0.46987,-1.06477 -0.6186,-1.3629z"/><path d="M299.00482,184.49793h-10.08022c-1.02763,1.19254 -2.28512,2.42767 -3.77248,3.7054l9.10668,-0.36202l-2.23103,-2.21472l0.99382,-1.04347c0.58142,0.55368 1.13918,1.09316 1.67328,1.61845c0.5341,0.52529 1.00397,0.98669 1.40961,1.3842c1.46031,1.44809 2.06202,2.03726 1.80511,1.76752l-1.05467,1.21384c-0.22986,-0.25554 -0.64903,-0.70275 -1.25749,-1.34161l-12.53435,0.57498l-0.38536,-1.51197c1.59553,-1.19254 2.99499,-2.45607 4.1984,-3.79058h-5.82097v-1.44809h2.67724v-11.0736h12.53435v11.0736h2.73809zM294.80642,183.04984v-2.34249h-9.59345v2.34249zM285.21297,177.06584v2.25731h9.59345v-2.25731zM285.21297,175.72423h9.59345v-2.23602h-9.59345z"/><path d="M318.25256,178.91854h-7.64636v8.7737h8.57934v1.70363h-17.68602v-1.70363h7.40298v-16.65299h1.7037v6.21825h7.64636z"/><path d="M330.03648,188.41628h9.51232l-0.26367,1.46938h-9.39063c-1.63609,0 -2.94429,-0.252 -3.92459,-0.75599c-0.9803,-0.50399 -1.71384,-1.33806 -2.20061,-2.50221c-0.21634,1.20674 -0.6017,2.51286 -1.15608,3.91835l-1.1358,-0.89441c0.52734,-1.30612 0.89241,-2.54125 1.09523,-3.7054c0.20282,-1.16415 0.30423,-2.7684 0.30423,-4.81276l1.25749,0.0213c0,1.22094 -0.01352,2.09405 -0.04056,2.61933c0.20282,0.88021 0.44959,1.61135 0.7403,2.19342c0.29071,0.58207 0.63889,1.05057 1.04453,1.4055v-7.62375h-4.03614v-1.42679h3.58994v-3.00265h-2.96119v-1.42679h2.96119v-2.68322h1.39947v2.68322h2.65696v1.42679h-2.65696v3.00265h2.96119v1.42679h-2.57583v3.08783h2.2716v1.44809h-2.2716v3.81187c0.70311,0.21295 1.64285,0.31943 2.81922,0.31943zM333.46415,180.77123l0.42592,1.4055l-3.26542,2.98135l-0.68959,-1.10736c0.16226,-0.17036 0.27719,-0.33363 0.3448,-0.48979c0.06761,-0.15617 0.10141,-0.37622 0.10141,-0.66016v-8.32649h3.56965c-0.05409,-1.4055 -0.08789,-2.54125 -0.10141,-3.40726h1.33862c0.01352,1.13575 0.05409,2.27151 0.12169,3.40726h4.11727v1.42679h-4.03614c0.16226,2.08695 0.35156,3.81187 0.5679,5.17478c0.59494,-1.10736 1.14932,-2.43477 1.66313,-3.98224l1.11552,0.42591c-0.73016,2.17213 -1.5482,3.96094 -2.45414,5.36644c0.09465,0.41171 0.19606,0.80213 0.30423,1.17125c0.31099,0.85182 0.60846,1.27772 0.89241,1.27772c0.21634,0 0.39212,-0.36912 0.52734,-1.10736c0.04056,-0.25554 0.09127,-0.58562 0.15212,-0.99024c0.06085,-0.40461 0.10479,-0.77728 0.13183,-1.11801l1.23721,0.42591c-0.10817,0.78083 -0.24339,1.62555 -0.40564,2.53415c-0.17578,0.70985 -0.38536,1.21739 -0.62875,1.52262c-0.24339,0.30523 -0.57466,0.45785 -0.99382,0.45785c-0.41916,0 -0.81129,-0.18811 -1.17636,-0.56433c-0.36508,-0.37622 -0.71664,-1.06832 -1.05467,-2.0763l-0.02028,-0.06389c-0.87889,1.06477 -1.92004,2.14373 -3.12345,3.2369l-0.89241,-1.06477c0.81129,-0.70985 1.50426,-1.35936 2.07892,-1.94853c0.57466,-0.58917 1.08509,-1.18189 1.5313,-1.77816c-0.39212,-1.81721 -0.66255,-4.11711 -0.81129,-6.8997h-2.31216v6.40991zM338.69694,173.31785l-0.93298,0.937c-0.71664,-0.89441 -1.33862,-1.61845 -1.86596,-2.17213l0.85185,-0.89441c0.29747,0.31233 0.62875,0.66371 0.99382,1.05412c0.36508,0.39042 0.68283,0.74889 0.95326,1.07542z"/><path d="M358.33004,184.51922l1.44003,0.34073c0,0.42591 -0.02704,1.10736 -0.08113,2.04436l-0.02028,0.70275c-0.04056,0.58207 -0.14874,1.03283 -0.32451,1.35226c-0.17578,0.31943 -0.45973,0.54658 -0.85185,0.68145c-0.39212,0.13487 -0.9465,0.20231 -1.66313,0.20231h-5.15166c-0.67607,0 -1.20679,-0.07453 -1.59215,-0.2236c-0.38536,-0.14907 -0.66593,-0.41171 -0.84171,-0.78793c-0.17578,-0.37622 -0.26367,-0.91925 -0.26367,-1.6291v-7.32561l-1.7037,0.61757l-0.38536,-1.51197l2.08906,-0.74534v-5.25996h1.44003v4.74887l2.51498,-0.9157v-5.70716h1.41975v5.21737l4.32009,-1.55456l-0.2231,7.60245c-0.04056,0.58207 -0.12169,1.02218 -0.24339,1.32031c-0.12169,0.29814 -0.33128,0.51109 -0.62875,0.63886c-0.29747,0.12777 -0.73016,0.19166 -1.29806,0.19166h-1.09523l-0.28395,-1.57586h0.73016c0.39212,0 0.68283,-0.03194 0.87213,-0.09583c0.1893,-0.06389 0.32113,-0.18101 0.3955,-0.35137c0.07437,-0.17036 0.11831,-0.4401 0.13183,-0.80922l0.18254,-4.77017l-2.85978,1.02218v8.43297h-1.41975v-7.92188l-2.51498,0.9157v7.19784c0,0.51109 0.0338,0.88731 0.10141,1.12866c0.06761,0.24135 0.2062,0.41171 0.41578,0.51109c0.20958,0.09938 0.53748,0.14907 0.98368,0.14907h4.34038c0.5679,0 0.98368,-0.03549 1.24735,-0.10648c0.26367,-0.07098 0.44959,-0.21295 0.55776,-0.42591c0.10817,-0.21295 0.17578,-0.55368 0.20282,-1.02218zM345.71456,178.19449v7.3682l2.33244,-0.78793l0.12169,0.78793l0.08113,0.68145l-6.02379,2.06565l-0.38536,-1.42679l2.43386,-0.83052v-7.858h-2.12962v-1.55456h2.12962v-5.11089h1.44003v5.11089h1.72398v1.55456z"/><path d="M379.84938,175.66034h-10.83066l-0.14197,2.83229l-0.04056,0.66016h8.7416c-0.05409,0.9228 -0.12845,2.17923 -0.2231,3.76928c-0.09465,1.59005 -0.17578,2.84648 -0.24339,3.76928c-0.06761,0.85182 -0.21972,1.50132 -0.45635,1.94853c-0.23662,0.4472 -0.59494,0.76308 -1.07495,0.94764c-0.48001,0.18456 -1.1527,0.27684 -2.01807,0.27684h-3.20458l-0.32451,-1.59715h2.96119c0.67607,0 1.1865,-0.06034 1.5313,-0.18101c0.3448,-0.12067 0.59494,-0.33363 0.75044,-0.63886c0.1555,-0.30523 0.26029,-0.75599 0.31437,-1.35226l0.32451,-5.32385h-7.22044c-0.16226,1.41969 -0.43269,2.67257 -0.81129,3.75863c-0.3786,1.08606 -0.92284,2.11889 -1.63271,3.09848c-0.70987,0.97959 -1.64623,1.98757 -2.80907,3.02394l-1.19665,-1.3629c1.27101,-1.10736 2.24794,-2.15793 2.93077,-3.15172c0.68283,-0.99378 1.18312,-2.0905 1.50088,-3.29014c0.31775,-1.19964 0.53072,-2.72226 0.63889,-4.56786l0.14197,-2.61933h-4.96912v-1.61845h8.3968l-1.09523,-2.70451l1.66313,-0.4472c0.20282,0.4401 0.63551,1.49068 1.29806,3.15172h7.09874z"/></g></g></svg>