<svg version="1.1" xmlns="http://www.w3.org/2000/svg" xmlns:xlink="http://www.w3.org/1999/xlink" width="223.67" height="343.67" viewBox="0,0,223.67,343.67"><g transform="translate(-128.1665,-8.1665)"><g stroke-linecap="round" stroke-miterlimit="10"><path d="M132.1665,351.8365c-2.20914,0 -4,-1.79086 -4,-4v-335.67c0,-2.20914 1.79086,-4 4,-4h215.67c2.20914,0 4,1.79086 4,4v335.67c0,2.20914 -1.79086,4 -4,4z" fill="none" fill-rule="nonzero" stroke="none" stroke-width="0" stroke-linejoin="round" opacity="0.988"/><path d="M155.93094,232.90126h-2.6095v4.90077l4.86895,-1.20928l0.06365,1.81392l-7.51028,2.03668l-0.70011,-1.68663c0.46674,-0.19094 0.76376,-0.35006 0.89105,-0.47735c0.12729,-0.12729 0.19094,-0.29702 0.19094,-0.50917v-4.86895h-2.95956c-0.16972,1.44265 -0.49856,2.75271 -0.98652,3.93017c-0.48796,1.17746 -1.17746,2.36022 -2.06851,3.54829l-2.00486,-1.40022c1.16685,-1.5063 1.96243,-2.94895 2.38674,-4.32796c0.42431,-1.37901 0.63646,-3.21414 0.63646,-5.50541v-4.58254h24.02652v1.59116h-21.79889v3.50055c0,0.72133 -0.01061,1.25171 -0.03182,1.59116h22.46718v1.65481h-12.41105c1.18807,1.25171 2.53525,2.23823 4.04155,2.95956c2.71558,-1.2305 4.61436,-2.14276 5.69635,-2.7368l0.9547,1.65481c-0.78497,0.38188 -2.21702,1.03956 -4.29613,1.97304c1.88818,0.53039 4.17945,0.92287 6.87381,1.17746l-0.92287,1.97304c-2.52464,-0.31823 -4.67801,-0.76376 -6.46011,-1.33657c-1.7821,-0.57282 -3.33613,-1.31005 -4.6621,-2.21171c-1.32597,-0.90166 -2.55116,-2.0526 -3.67558,-3.45282zM156.37646,223.57706v-5.95094h-9.41967v4.10519h-2.25945v-5.69635h11.67912v-1.71845h-10.5653v-1.7821h23.51735v1.7821h-10.72442v1.71845h11.80641v5.69635h-2.22762v-4.10519h-9.57878v5.95094zM149.69359,227.93684h18.99845v1.55934h-18.99845zM148.73889,220.52203v-1.43204h5.98276v1.43204zM160.38619,220.52203v-1.43204h5.95094v1.43204zM154.72165,221.73132v1.40022h-5.98276v-1.40022zM160.41801,223.13154v-1.40022h5.95094v1.40022z" fill="#ffffff" fill-rule="evenodd" stroke="#ffffff" stroke-width="0.5" stroke-linejoin="miter"/><path d="M203.59365,238.19884l-1.20928,2.38674c-2.65193,-1.84575 -4.8053,-3.69149 -6.46011,-5.53724c-1.86696,2.0579 -4.28552,4.00972 -7.25569,5.85547l-1.46387,-2.03668c2.97017,-1.76088 5.38873,-3.61724 7.25569,-5.56906c-1.76088,-2.29127 -3.12928,-4.96442 -4.10519,-8.01945c-0.29702,3.03381 -0.86983,5.69105 -1.71845,7.97171c-0.84862,2.28066 -2.16398,4.6621 -3.94608,7.14431l-2.13215,-1.40022c0.72133,-0.99713 1.31536,-1.88818 1.7821,-2.67315l-8.87867,1.52751l-0.28641,-2.35492l9.67425,-1.71845l0.09547,1.49569c1.1032,-2.03668 1.89878,-4.1158 2.38674,-6.23735c0.48796,-2.12155 0.80619,-4.72044 0.9547,-7.79668c0.04243,-0.99713 0.09547,-2.81105 0.15912,-5.44177h-2.41856v-2.29127h14.35226v2.29127l-2.45039,5.82365h4.16884v2.22762c-1.20928,3.77635 -2.75801,6.91624 -4.64619,9.41967c1.61238,1.73967 3.65967,3.38387 6.14188,4.9326zM180.80824,223.01917l-4.99624,0.60464l-0.44552,-2.32309c1.67602,-2.07912 3.59602,-5.38873 5.76,-9.92884l1.97304,0.92287c-1.95182,4.00972 -3.59602,6.96928 -4.9326,8.87867l3.9779,-0.35006c0.59403,-0.99713 1.27293,-2.23823 2.03668,-3.72331l1.94122,1.30475c-0.93348,1.73967 -2.03668,3.59602 -3.30961,5.56906c-1.27293,1.97304 -2.50342,3.7021 -3.69149,5.18718l5.60088,-0.85923l0.06365,2.22762l-8.46497,1.33657l-0.44552,-2.29127c1.7821,-1.99425 3.4263,-4.17945 4.9326,-6.55558zM199.90216,223.84658h-4.29613v-1.97304l2.51403,-6.07823h-7.22387c0,0.59403 -0.04243,1.82453 -0.12729,3.69149c0.5516,2.52464 1.25171,4.76818 2.10033,6.73061c0.84862,1.96243 1.87757,3.72862 3.08685,5.29856c1.63359,-2.12155 2.94895,-4.67801 3.94608,-7.66939z" fill="#ffffff" fill-rule="evenodd" stroke="#ffffff" stroke-width="0.5" stroke-linejoin="miter"/></g></g></svg>