<svg version="1.1" xmlns="http://www.w3.org/2000/svg" xmlns:xlink="http://www.w3.org/1999/xlink" width="208" height="32" viewBox="0,0,208,32"><g transform="translate(-240,-164)"><g stroke="none" stroke-miterlimit="10"><path d="M240,196v-32h208v32z" fill="none" stroke-width="0"/><path d="M240.03725,181.46672c0.72354,-0.2109 1.59064,-0.48929 2.60131,-0.83517c1.01066,-0.34307 2.03281,-0.69035 3.06644,-1.04185l0.24118,2.04574c-0.95324,0.3515 -1.90992,0.703 -2.87005,1.05451c-0.95783,0.3515 -1.83297,0.66786 -2.62542,0.94906l-0.41345,-2.17229M240.24397,174.73896h5.71943v2.08792h-5.71943v-2.08792M242.29401,170.71074h1.79163v17.18847c0,0.54834 -0.04939,0.97999 -0.14815,1.29493c-0.09647,0.31776 -0.27104,0.56803 -0.52371,0.75081c-0.26415,0.16872 -0.58802,0.2812 -0.97161,0.33744c-0.38589,0.05624 -0.86021,0.08436 -1.42297,0.08436c-0.02297,-0.29526 -0.08269,-0.65098 -0.17916,-1.06716c-0.09877,-0.41337 -0.20558,-0.76768 -0.32043,-1.06294c0.32157,0.01406 0.62362,0.02109 0.90615,0.02109c0.28023,0 0.47203,0 0.57539,0c0.19524,-0.01406 0.29286,-0.1406 0.29286,-0.37962v-17.16738M246.41131,171.61762h7.59719v2.00356h-7.59719v-2.00356M253.64673,171.61762h0.32732l0.29286,-0.08436l1.10254,0.71706c-0.40197,1.06857 -0.91878,2.04574 -1.55045,2.93153c-0.63166,0.88579 -1.34142,1.68018 -2.12928,2.38319c-0.78556,0.703 -1.62051,1.31743 -2.50483,1.84328c-0.88433,0.52866 -1.78589,0.96874 -2.70467,1.32024c-0.09188,-0.2812 -0.2297,-0.60177 -0.41345,-0.96171c-0.18376,-0.35713 -0.36177,-0.64114 -0.53404,-0.85204c0.86136,-0.26714 1.70894,-0.62568 2.54273,-1.0756c0.8315,-0.44992 1.60902,-0.97015 2.33256,-1.56067c0.72354,-0.59052 1.36324,-1.25135 1.91911,-1.98247c0.55816,-0.73113 0.99803,-1.51146 1.3196,-2.34101v-0.33744M248.70253,172.60886c0.47088,1.01233 1.08876,1.93326 1.85365,2.76281c0.76259,0.82955 1.64692,1.53958 2.65299,2.1301c1.00377,0.59052 2.09138,1.04045 3.26283,1.34977c-0.12633,0.15466 -0.26185,0.34447 -0.40656,0.56943c-0.14241,0.22496 -0.27678,0.45274 -0.40312,0.68332c-0.12633,0.2334 -0.2297,0.44852 -0.31009,0.64536c-1.2059,-0.40774 -2.31763,-0.96312 -3.33518,-1.66612c-1.01526,-0.703 -1.92141,-1.54661 -2.71845,-2.53082c-0.79934,-0.98421 -1.46891,-2.09495 -2.00869,-3.33224l1.41263,-0.61161M246.66972,181.52999h8.28628v1.98247h-8.28628v-1.98247M245.80836,185.17858h10.28463v2.00356h-10.28463v-2.00356M249.96011,179.8006h1.86054v10.60834h-1.86054zM257.1783,181.61435c0.71206,-0.2109 1.57571,-0.48507 2.59097,-0.82252c1.01755,-0.33744 2.04314,-0.68895 3.07678,-1.05451l0.22395,2.04574c-0.94175,0.36556 -1.89269,0.71988 -2.85282,1.06294c-0.95783,0.34588 -1.83297,0.66645 -2.62542,0.96171l-0.41345,-2.19338M257.38503,174.76005h5.56438v2.08792h-5.56438v-2.08792M259.31448,170.71074h1.73995v17.1252c0,0.53428 -0.04594,0.96312 -0.13782,1.2865c-0.09188,0.32338 -0.26415,0.57646 -0.51682,0.75925c-0.25267,0.18278 -0.5685,0.30229 -0.9475,0.35853c-0.379,0.05624 -0.84413,0.07733 -1.3954,0.06327c-0.02297,-0.2812 -0.08039,-0.62989 -0.17227,-1.04607c-0.09188,-0.41337 -0.20098,-0.77471 -0.32732,-1.08403c0.32157,0.01406 0.62248,0.02109 0.9027,0.02109c0.28253,0 0.47547,0 0.57883,0c0.10336,0 0.17457,-0.02531 0.21362,-0.07592c0.04135,-0.04781 0.06202,-0.14904 0.06202,-0.3037v-17.10411M267.85916,181.78307h4.96143v1.98247h-4.96143v-1.98247M265.08558,183.32265c0.20673,1.04045 0.47662,1.8728 0.80968,2.49707c0.33306,0.62708 0.71206,1.10231 1.13699,1.42569c0.42494,0.32338 0.89811,0.54131 1.41952,0.65379c0.52371,0.11248 1.07842,0.16872 1.66415,0.16872c0.13782,0 0.36177,0 0.67186,0c0.31009,0 0.64889,0 1.0164,0c0.36751,0 0.71435,-0.00422 1.04052,-0.01265c0.32847,-0.00562 0.58458,-0.01547 0.76833,-0.02953c-0.11485,0.23902 -0.22051,0.54413 -0.31698,0.91531c-0.09877,0.374 -0.16538,0.69457 -0.19984,0.96171h-0.68909h-2.36013c-0.74651,0 -1.43215,-0.07452 -2.05693,-0.22356c-0.62707,-0.14622 -1.19672,-0.43446 -1.70894,-0.8647c-0.50992,-0.42743 -0.95668,-1.04888 -1.34028,-1.86437c-0.38589,-0.81549 -0.70517,-1.88405 -0.95783,-3.2057l1.10254,-0.4218M267.20453,177.79703h1.75717v11.70503l-1.75717,-0.65379v-11.05124M264.06918,180.98164l1.72272,0.10545c-0.12633,2.0809 -0.40427,3.90168 -0.8338,5.46235c-0.43183,1.56067 -1.10713,2.84014 -2.02592,3.83841c-0.09188,-0.12654 -0.21821,-0.28542 -0.379,-0.47664c-0.16079,-0.1884 -0.33306,-0.37119 -0.51682,-0.54834c-0.18376,-0.17435 -0.3388,-0.31073 -0.46513,-0.40915c0.84987,-0.82955 1.45627,-1.92342 1.81919,-3.28163c0.36062,-1.35539 0.58687,-2.91888 0.67875,-4.69045M265.58517,173.579v3.4166h4.8753v-3.4166h-4.8753M263.87968,171.68089h8.37241v7.23392h-8.37241zM288.29061,179.82169h1.82608c0,0 -0.00345,0.05624 -0.01034,0.16872c-0.00459,0.11248 -0.00689,0.23902 -0.00689,0.37962c0,0.1406 -0.00574,0.26714 -0.01723,0.37962c-0.08039,1.88405 -0.16653,3.41239 -0.25841,4.585c-0.09188,1.17542 -0.20098,2.07949 -0.32732,2.71219c-0.12633,0.6327 -0.28138,1.08263 -0.46513,1.34977c-0.19524,0.2812 -0.40427,0.47804 -0.62707,0.59052c-0.2251,0.11248 -0.48696,0.18981 -0.78556,0.23199c-0.25267,0.04218 -0.58343,0.06327 -0.99229,0.06327c-0.40656,0 -0.8338,-0.00703 -1.2817,-0.02109c-0.02297,-0.30932 -0.08384,-0.66082 -0.18261,-1.05451c-0.09647,-0.39368 -0.21362,-0.72409 -0.35143,-0.99124c0.42494,0.04218 0.82116,0.06608 1.18868,0.07171c0.36751,0.00844 0.63741,0.01265 0.80968,0.01265c0.1493,0 0.27219,-0.01406 0.36866,-0.04218c0.09877,-0.02812 0.19409,-0.09842 0.28597,-0.2109c0.12633,-0.16872 0.24118,-0.53428 0.34454,-1.09669c0.10336,-0.5624 0.19294,-1.39195 0.26874,-2.48864c0.0735,-1.09669 0.14471,-2.52379 0.21362,-4.2813v-0.35853M279.78038,182.47904h1.70549v4.99836h-1.70549v-4.99836M284.08718,183.30156h1.68826v5.88415h-1.68826v-5.88415M275.62863,183.34374h1.68826v3.37442h7.4766v1.87702h-9.16487v-5.25145M286.36117,172.48232h1.72272c0,0 0,0.09842 0,0.29526c0,0.19684 -0.00574,0.35853 -0.01723,0.48507c-0.05742,1.05451 -0.11714,1.93326 -0.17916,2.63627c-0.06431,0.703 -0.14011,1.25838 -0.2274,1.66612c-0.08499,0.40774 -0.20213,0.703 -0.35143,0.88579c-0.13782,0.2109 -0.28942,0.36134 -0.4548,0.45133c-0.16768,0.0928 -0.36062,0.15326 -0.57883,0.18138c-0.18376,0.04218 -0.42149,0.06608 -0.71321,0.07171c-0.29401,0.00844 -0.60755,0.00562 -0.9406,-0.00844c-0.02297,-0.30932 -0.07465,-0.65098 -0.15504,-1.02498c-0.08039,-0.37119 -0.18376,-0.69035 -0.31009,-0.95749c0.26415,0.02812 0.50533,0.04921 0.72354,0.06327c0.21821,0.01406 0.38474,0.02109 0.49959,0.02109c0.10336,0 0.19524,-0.01406 0.27564,-0.04218c0.08039,-0.02812 0.1493,-0.08436 0.20673,-0.16872c0.11485,-0.15466 0.21247,-0.54834 0.29286,-1.18105c0.08039,-0.6327 0.1493,-1.66612 0.20673,-3.10025v-0.27417M281.29637,170.62638l2.20508,0.23199c-0.18376,0.52022 -0.39048,1.02217 -0.62018,1.50584c-0.2297,0.48648 -0.43642,0.90547 -0.62018,1.25697l-1.63658,-0.35853c0.12633,-0.39368 0.25496,-0.83658 0.38589,-1.32868c0.13322,-0.4921 0.22855,-0.92797 0.28597,-1.30759M279.40138,176.48944l0.91304,-1.43413c0.40197,0.16872 0.83265,0.37259 1.29204,0.61161c0.45939,0.23902 0.89811,0.48507 1.31616,0.73816c0.42034,0.25308 0.76833,0.4921 1.04397,0.71706l-0.96472,1.58176c-0.25267,-0.22496 -0.58572,-0.47101 -0.99918,-0.73816c-0.41345,-0.26714 -0.84643,-0.53147 -1.29893,-0.79299c-0.4548,-0.25871 -0.88892,-0.48648 -1.30238,-0.68332M286.89521,172.48232v2.02465h-8.20014v5.31472h10.14682v1.98247h-11.95567v-9.32184zM294.13063,181.99397v-1.75048l1.08531,-0.78034h11.19767v2.21447h-10.30186c-0.32157,0 -0.62248,0.00984 -0.9027,0.02953c-0.28253,0.0225 -0.51796,0.05765 -0.70631,0.10545c-0.19065,0.05062 -0.31468,0.11108 -0.37211,0.18138M299.72947,176.67925h1.87776v10.90361c0,0.59052 -0.05742,1.05732 -0.17227,1.40039c-0.11485,0.34588 -0.34454,0.61021 -0.68909,0.79299c-0.32157,0.19684 -0.7178,0.31916 -1.18868,0.36697c-0.47088,0.05062 -1.02215,0.07592 -1.65381,0.07592c-0.02297,-0.22496 -0.07465,-0.47804 -0.15504,-0.75925c-0.08039,-0.2812 -0.16308,-0.55959 -0.24807,-0.83517c-0.08729,-0.27277 -0.17687,-0.5146 -0.26874,-0.7255c0.44791,0.01406 0.87859,0.0239 1.29204,0.02953c0.41345,0.00844 0.69483,0.00562 0.84413,-0.00844c0.13782,0 0.23314,-0.02812 0.28597,-0.08436c0.05053,-0.05624 0.0758,-0.15466 0.0758,-0.29526v-10.86143M295.33653,183.04848l1.86054,0.6327c-0.26415,0.74518 -0.57998,1.48615 -0.9475,2.2229c-0.36751,0.73956 -0.75455,1.43272 -1.16111,2.07949c-0.40886,0.64677 -0.82576,1.20917 -1.25069,1.68721c-0.11485,-0.12654 -0.26645,-0.28542 -0.4548,-0.47664c-0.19065,-0.1884 -0.38359,-0.37119 -0.57883,-0.54834c-0.19524,-0.17435 -0.36751,-0.31776 -0.51682,-0.43024c0.62018,-0.61864 1.20361,-1.39195 1.75028,-2.31992c0.54438,-0.92797 0.97736,-1.87702 1.29893,-2.84717M302.65809,183.95535l1.56767,-0.90688c0.41345,0.52022 0.84184,1.09247 1.28515,1.71674c0.44102,0.62708 0.85447,1.24573 1.24036,1.85593c0.38359,0.61302 0.69024,1.16558 0.91993,1.65769l-1.68826,1.0756c-0.20673,-0.4921 -0.4904,-1.0517 -0.85102,-1.67878c-0.36292,-0.62427 -0.75915,-1.264 -1.18868,-1.9192c-0.43183,-0.65239 -0.86021,-1.25275 -1.28515,-1.8011M292.47682,173.41028h14.72925v2.17229h-14.72925v-2.17229M294.13063,181.99397c-0.03445,-0.15466 -0.08843,-0.37259 -0.16194,-0.65379c-0.0758,-0.2812 -0.15964,-0.57365 -0.25152,-0.87735c-0.09188,-0.30089 -0.17801,-0.55678 -0.25841,-0.76768c0.2297,-0.08436 0.45135,-0.26011 0.66497,-0.52725c0.21132,-0.26714 0.4548,-0.62568 0.73043,-1.0756c0.1493,-0.2109 0.35947,-0.56943 0.63052,-1.0756c0.26874,-0.50616 0.56735,-1.10793 0.89581,-1.80532c0.32617,-0.69457 0.65578,-1.44257 0.98884,-2.24399c0.33306,-0.80143 0.63741,-1.61691 0.91304,-2.44646l2.01558,0.90688c-0.43642,1.15293 -0.91878,2.28477 -1.44708,3.39551c-0.5283,1.11075 -1.07038,2.16526 -1.62625,3.16352c-0.55816,0.99827 -1.10713,1.89811 -1.64692,2.69954v0.04218c0,0 -0.07465,0.04499 -0.22395,0.13498c-0.1493,0.0928 -0.31583,0.20528 -0.49959,0.33744c-0.18376,0.13498 -0.35029,0.27277 -0.49959,0.41337c-0.1493,0.1406 -0.22395,0.26714 -0.22395,0.37962zM309.42837,172.54559h15.26329v2.10901h-15.26329v-2.10901M313.14945,181.44563h7.83837v1.77157h-7.83837v-1.77157M312.78768,184.82005h8.56191v1.83484h-8.56191v-1.83484M316.12975,182.31032h1.75717v7.52918h-1.75717v-7.52918M310.15192,176.42617h12.47249v2.08792h-10.61195v11.83157h-1.86054v-13.9195M322.09036,176.42617h1.89499v11.57849c0,0.57646 -0.06546,1.01514 -0.19639,1.31603c-0.13322,0.3037 -0.36637,0.53288 -0.69942,0.68754c-0.33306,0.15466 -0.75225,0.24886 -1.25758,0.28261c-0.50533,0.03656 -1.10254,0.05483 -1.79163,0.05483c-0.04594,-0.2812 -0.12863,-0.6088 -0.24807,-0.9828c-0.12174,-0.37119 -0.24578,-0.69035 -0.37211,-0.95749c0.31009,0.01406 0.62018,0.02812 0.93027,0.04218c0.31009,0.01406 0.58917,0.01687 0.83724,0.00844c0.24578,-0.00562 0.40886,-0.00844 0.48925,-0.00844c0.16079,-0.01406 0.26989,-0.05343 0.32732,-0.1181c0.05742,-0.06186 0.08614,-0.17013 0.08614,-0.32479v-11.57849M313.87299,179.10462l1.46431,-0.52725c0.20673,0.3515 0.40541,0.74518 0.59606,1.18105c0.18835,0.43586 0.32847,0.82252 0.42034,1.15996l-1.55045,0.6327c-0.06891,-0.33744 -0.19524,-0.73816 -0.379,-1.20214c-0.18376,-0.46398 -0.36751,-0.87876 -0.55127,-1.24432M318.83442,178.59846l1.56767,0.54834c-0.2297,0.50616 -0.45939,1.0053 -0.68909,1.4974c-0.2297,0.4921 -0.45365,0.92094 -0.67186,1.2865l-1.30927,-0.48507c0.13782,-0.26714 0.27334,-0.56943 0.40656,-0.90688c0.13093,-0.33744 0.25956,-0.67488 0.38589,-1.01233c0.12633,-0.33744 0.2297,-0.64677 0.31009,-0.92797M316.06084,170.7951h2.03281v7.08629h-2.03281zM332.78845,176.48944h1.72272c-0.08039,0.88579 -0.16653,1.81656 -0.25841,2.79234c-0.09188,0.97858 -0.19294,1.94873 -0.3032,2.91044c-0.10796,0.96452 -0.21017,1.87843 -0.30664,2.74172c-0.09877,0.8661 -0.19409,1.62957 -0.28597,2.29039h-1.79163c0.11485,-0.68895 0.2297,-1.4735 0.34454,-2.35366c0.11485,-0.87735 0.2274,-1.79829 0.33765,-2.76281c0.10796,-0.96171 0.20788,-1.92483 0.29975,-2.88935c0.09188,-0.96171 0.17227,-1.8714 0.24118,-2.72906M335.37252,178.9359l0.96472,-0.75925c0.31009,0.29526 0.63166,0.63973 0.96472,1.03342c0.33306,0.39368 0.59147,0.73816 0.77522,1.03342l-1.0164,0.8647c-0.16079,-0.30932 -0.40427,-0.67207 -0.73043,-1.08825c-0.32847,-0.41337 -0.64774,-0.77471 -0.95783,-1.08403M334.90739,183.30156l1.0164,-0.78034c0.34454,0.32338 0.70402,0.69597 1.07842,1.11778c0.37211,0.4218 0.66152,0.80143 0.86825,1.13887l-1.05086,0.88579c-0.19524,-0.32338 -0.47662,-0.71004 -0.84413,-1.15996c-0.36751,-0.44992 -0.72354,-0.85064 -1.06809,-1.20214M333.02963,172.88303h8.90646v2.04574h-8.90646v-2.04574M333.51199,176.48944h6.56356v1.94029h-6.56356v-1.94029M330.61782,180.70747h11.76617v2.04574h-11.76617v-2.04574M332.49558,185.28403h9.4405v1.94029h-9.4405v-1.94029M333.13299,170.66856l1.79163,0.56943c-0.2297,0.87173 -0.50763,1.73923 -0.8338,2.60252c-0.32847,0.8661 -0.67645,1.67878 -1.04397,2.43802c-0.36751,0.75925 -0.74077,1.4271 -1.11977,2.00356c-0.11485,-0.12654 -0.27334,-0.26714 -0.47547,-0.4218c-0.19984,-0.15466 -0.39737,-0.30932 -0.59262,-0.46398c-0.19524,-0.15466 -0.36751,-0.2812 -0.51682,-0.37962c0.39048,-0.50616 0.76029,-1.10091 1.10943,-1.78423c0.35143,-0.68051 0.67071,-1.41163 0.95783,-2.19338c0.28712,-0.77893 0.5283,-1.56911 0.72354,-2.37053M339.5415,176.48944h1.72272c0,0 -0.0023,0.06327 -0.00689,0.18981c-0.00689,0.12654 -0.01034,0.26292 -0.01034,0.40915c0,0.14904 -0.00574,0.27277 -0.01723,0.37119c-0.06891,2.01059 -0.13782,3.71468 -0.20673,5.11225c-0.06891,1.40039 -0.14586,2.5505 -0.23084,3.45035c-0.08729,0.89985 -0.1849,1.60285 -0.29286,2.10901c-0.11025,0.50616 -0.24003,0.87173 -0.38933,1.09669c-0.19524,0.32338 -0.39852,0.54413 -0.60984,0.66223c-0.21362,0.12092 -0.45824,0.20949 -0.73388,0.26574c-0.25267,0.04218 -0.57424,0.06327 -0.96472,0.06327c-0.39048,0 -0.79819,-0.01406 -1.22313,-0.04218c-0.01149,-0.2812 -0.05742,-0.59755 -0.13782,-0.94906c-0.08039,-0.3515 -0.1895,-0.66082 -0.32732,-0.92797c0.40197,0.04218 0.76948,0.0703 1.10254,0.08436c0.33306,0.01406 0.57998,0.02109 0.74077,0.02109c0.1493,0 0.26989,-0.02531 0.36177,-0.07592c0.09188,-0.04781 0.18376,-0.13498 0.27564,-0.26152c0.11485,-0.15466 0.21821,-0.4682 0.31009,-0.94062c0.09188,-0.46961 0.17801,-1.13746 0.25841,-2.00356c0.08039,-0.86329 0.15275,-1.96701 0.21706,-3.31115c0.06202,-1.34133 0.116,-2.96809 0.16194,-4.88026v-0.44289M327.27574,172.54559l1.03363,-1.53958c0.33306,0.18278 0.69138,0.40071 1.07498,0.65379c0.38589,0.25308 0.75455,0.51319 1.10599,0.78034c0.34914,0.26714 0.63281,0.51319 0.85102,0.73816l-1.08531,1.7083c-0.20673,-0.22496 -0.47892,-0.48226 -0.81657,-0.7719c-0.33995,-0.28683 -0.70287,-0.56803 -1.08876,-0.84361c-0.38359,-0.27277 -0.74192,-0.5146 -1.07498,-0.7255M326.31102,178.57737l0.99918,-1.51849c0.33306,0.18278 0.6799,0.39649 1.04052,0.64114c0.36292,0.24746 0.70746,0.49773 1.03363,0.75081c0.32847,0.25308 0.59606,0.4921 0.80279,0.71706l-1.06809,1.72939c-0.18376,-0.23902 -0.43642,-0.49913 -0.758,-0.78034c-0.32157,-0.2812 -0.66267,-0.55537 -1.0233,-0.82252c-0.36292,-0.26714 -0.70517,-0.50616 -1.02674,-0.71706M326.79338,188.80609c0.2297,-0.54834 0.48581,-1.19511 0.76833,-1.94029c0.28023,-0.74518 0.56161,-1.53958 0.84413,-2.38319c0.28023,-0.84361 0.54093,-1.67315 0.78211,-2.48864l1.41263,1.22323c-0.20673,0.74518 -0.43298,1.51146 -0.67875,2.29883c-0.24807,0.78736 -0.50074,1.5677 -0.758,2.34101c-0.25956,0.77331 -0.51567,1.4974 -0.76833,2.17229zM343.53821,175.77238h4.73748v2.1301h-4.73748v-2.1301M345.1748,170.96382h1.72272v14.15149h-1.72272v-14.15149M343.40039,185.49494c0.60869,-0.30932 1.34372,-0.72409 2.20508,-1.24432c0.86136,-0.52022 1.72846,-1.05451 2.60131,-1.60285l0.51682,2.00356c-0.76948,0.53428 -1.55963,1.0756 -2.37046,1.62394c-0.80853,0.54834 -1.56308,1.04748 -2.26365,1.4974l-0.68909,-2.27774M348.55133,173.66336h10.81868v2.04574h-10.81868v-2.04574M348.01728,185.95892c0.50533,-0.11248 1.08302,-0.26011 1.73306,-0.44289c0.64774,-0.18278 1.33913,-0.37681 2.07415,-0.58209c0.73503,-0.20247 1.47005,-0.41618 2.20508,-0.64114l0.17227,1.89811c-0.99918,0.33744 -2.00065,0.67067 -3.00442,0.99967c-1.00607,0.33182 -1.92255,0.6313 -2.74946,0.89844l-0.43068,-2.1301M354.11571,170.71074h1.7744c-0.01149,1.47631 0,2.93434 0.03445,4.3741c0.03445,1.44257 0.09532,2.81764 0.18261,4.12523c0.08499,1.30759 0.19065,2.50973 0.31698,3.60641c0.12633,1.09669 0.26989,2.05277 0.43068,2.86826c0.16079,0.81549 0.3365,1.44397 0.52715,1.88546c0.18835,0.4443 0.38589,0.66645 0.59262,0.66645c0.13782,0 0.24463,-0.2109 0.32043,-0.6327c0.0735,-0.4218 0.12174,-1.12481 0.14471,-2.10901c0.17227,0.25308 0.3767,0.48788 0.61329,0.70441c0.23429,0.21934 0.44906,0.39228 0.6443,0.51882c-0.08039,0.92797 -0.19524,1.65909 -0.34454,2.19338c-0.1493,0.53428 -0.35258,0.90969 -0.60984,1.12621c-0.25956,0.21934 -0.59606,0.32901 -1.00951,0.32901c-0.48236,0 -0.9073,-0.2573 -1.27481,-0.7719c-0.36751,-0.51179 -0.68335,-1.23166 -0.9475,-2.15963c-0.26415,-0.92797 -0.48466,-2.01481 -0.66152,-3.26054c-0.17916,-1.24291 -0.31698,-2.59971 -0.41345,-4.0704c-0.09877,-1.46787 -0.17342,-3.00043 -0.22395,-4.59765c-0.05283,-1.59442 -0.08499,-3.19305 -0.09647,-4.7959M356.30356,171.80743l1.05086,-1.09669c0.34454,0.29526 0.70976,0.63973 1.09565,1.03342c0.38359,0.39368 0.67301,0.74518 0.86825,1.05451l-1.08531,1.24432c-0.20673,-0.32338 -0.4904,-0.69597 -0.85102,-1.11778c-0.36292,-0.4218 -0.72239,-0.7944 -1.07842,-1.11778M357.45778,177.26978l1.65381,0.37962c-0.55127,2.79796 -1.34028,5.26129 -2.36702,7.38999c-1.02904,2.13151 -2.30729,3.86512 -3.83477,5.20083c-0.09188,-0.12654 -0.21821,-0.28542 -0.379,-0.47664c-0.16079,-0.1884 -0.32732,-0.37119 -0.49959,-0.54834c-0.17227,-0.17435 -0.32157,-0.31776 -0.44791,-0.43024c1.52748,-1.16699 2.77013,-2.73469 3.72796,-4.7031c0.96013,-1.96841 1.67563,-4.23912 2.14651,-6.81212M350.42909,179.04135v2.84717h1.5849v-2.84717h-1.5849M349.05091,177.29087h4.41016v6.36922h-4.41016z" fill="#ffffff" stroke-width="1"/></g></g></svg>