<svg version="1.1" xmlns="http://www.w3.org/2000/svg" xmlns:xlink="http://www.w3.org/1999/xlink" width="179.81496" height="32" viewBox="0,0,179.81496,32"><g transform="translate(-239.50663,-164)"><g stroke="none" stroke-miterlimit="10"><path d="M243.1804,180.54221h8.78289v1.51316h-8.78289v-1.51316M243.21458,177.55469h9.87647v7.56581h-9.87647v-1.70716h8.08231v-4.1321h-8.08231v-1.72656M246.70039,176.25492h1.79417v9.64156c0,0.29746 0.0262,0.51991 0.0786,0.66734c0.05012,0.15002 0.15493,0.2509 0.31441,0.30263c0.15948,0.05173 0.3987,0.0776 0.71767,0.0776c0.10252,0 0.29276,0 0.57072,0c0.28023,0 0.58553,0 0.91588,0c0.33035,0 0.63793,0 0.92272,0c0.28479,0 0.49553,0 0.63223,0c0.2734,0 0.47845,-0.05561 0.61514,-0.16684c0.1367,-0.10864 0.23922,-0.31557 0.30757,-0.62078c0.06835,-0.30263 0.11392,-0.73848 0.1367,-1.30753c0.20505,0.1552 0.46478,0.30393 0.77918,0.44619c0.31213,0.14226 0.5992,0.23926 0.8612,0.29099c-0.07974,0.81478 -0.20505,1.45496 -0.37592,1.92055c-0.17087,0.46559 -0.42718,0.7915 -0.76893,0.97774c-0.34175,0.18882 -0.8088,0.28323 -1.40116,0.28323c-0.10252,0 -0.26428,0 -0.48528,0c-0.22327,0 -0.47958,0 -0.76893,0c-0.29162,0 -0.57983,0 -0.86462,0c-0.28479,0 -0.53768,0 -0.75868,0c-0.22327,0 -0.38617,0 -0.4887,0c-0.71767,0 -1.27244,-0.08148 -1.66431,-0.24443c-0.39415,-0.16037 -0.67096,-0.44748 -0.83044,-0.86134c-0.15948,-0.41386 -0.23922,-0.99584 -0.23922,-1.74596v-9.66096M242.22351,177.55469h1.77708v8.72978h-1.77708v-8.72978M240.03633,172.9958h15.19063v1.90115h-15.19063v-1.90115M250.08368,173.75238c0.37592,0.69838 0.86348,1.37737 1.46268,2.03695c0.59692,0.65958 1.25991,1.2545 1.98896,1.78476c0.72906,0.53025 1.47521,0.95704 2.23844,1.28037c-0.1367,0.12933 -0.28137,0.29358 -0.43402,0.49275c-0.15493,0.20175 -0.30301,0.40868 -0.44427,0.62078c-0.14353,0.21469 -0.26087,0.41256 -0.352,0.59363c-0.78602,-0.41386 -1.55153,-0.93506 -2.29654,-1.5636c-0.74729,-0.62596 -1.43078,-1.33339 -2.05048,-2.12231c-0.62198,-0.78891 -1.1608,-1.61663 -1.61646,-2.48314l1.50368,-0.64018M246.2903,170.74546l1.93087,0.34919c-0.3987,1.2157 -0.93411,2.41459 -1.60621,3.59667c-0.6721,1.18466 -1.49229,2.29044 -2.46058,3.31732c-0.96828,1.02947 -2.11883,1.95159 -3.45164,2.76637c-0.06835,-0.16813 -0.17315,-0.35307 -0.31441,-0.55483c-0.14353,-0.19917 -0.29162,-0.39316 -0.44427,-0.58199c-0.15493,-0.18624 -0.30074,-0.33109 -0.43744,-0.43455c1.26446,-0.71132 2.34666,-1.5261 3.24659,-2.44434c0.89993,-0.91824 1.64038,-1.89469 2.22135,-2.92933c0.58097,-1.03464 1.01954,-2.06281 1.31572,-3.08452zM257.75589,173.34499h13.87491v1.84295h-13.87491v-1.84295M258.559,176.33252h12.37122v1.76536h-12.37122v-1.76536M257.53376,182.26877h14.64384v1.86235h-14.64384v-1.86235M257.03822,179.30064h15.46403v1.82355h-15.46403v-1.82355M263.71937,174.47016h1.87961v6.26604h-1.87961v-6.26604M259.89181,171.48264l1.6233,-0.73718c0.28479,0.34919 0.55249,0.73977 0.8031,1.17173c0.25061,0.43455 0.43288,0.81995 0.54679,1.15621l-1.70873,0.85358c-0.10252,-0.34919 -0.2734,-0.754 -0.51262,-1.21441c-0.23922,-0.45783 -0.48984,-0.8678 -0.75184,-1.22993M267.61528,170.74546l1.94796,0.58199c-0.28479,0.51732 -0.58097,1.02429 -0.88854,1.52092c-0.30757,0.49921 -0.58666,0.91695 -0.83728,1.25321l-1.64038,-0.56259c0.15948,-0.25866 0.32808,-0.54965 0.50578,-0.87298c0.17543,-0.32333 0.34289,-0.65312 0.50237,-0.98938c0.15948,-0.33626 0.29618,-0.64665 0.4101,-0.93118M263.51432,180.71681h1.93087c-0.07974,0.87944 -0.19935,1.69034 -0.35883,2.4327c-0.15948,0.74494 -0.40098,1.42134 -0.7245,2.02919c-0.3258,0.60785 -0.77007,1.15104 -1.33281,1.62956c-0.56502,0.47852 -1.28838,0.89238 -2.17009,1.24157c-0.88398,0.34919 -1.9639,0.64665 -3.23976,0.89238c-0.03417,-0.194 -0.10252,-0.4048 -0.20505,-0.63242c-0.10252,-0.22503 -0.21644,-0.45136 -0.34175,-0.67898c-0.12531,-0.22503 -0.25061,-0.41515 -0.37592,-0.57035c1.16194,-0.18106 2.13592,-0.4048 2.92193,-0.67122c0.78602,-0.26383 1.42167,-0.57681 1.90695,-0.93894c0.483,-0.36212 0.85892,-0.77598 1.12776,-1.24157c0.26656,-0.46559 0.46022,-0.98938 0.58097,-1.57136c0.11847,-0.58199 0.21188,-1.22217 0.28023,-1.92055M265.8382,182.90895c0.52401,1.24157 1.35559,2.19473 2.49475,2.85949c1.13916,0.66734 2.61436,1.09155 4.42562,1.27261c-0.12531,0.14226 -0.25859,0.32979 -0.39984,0.56259c-0.14353,0.23279 -0.27795,0.46817 -0.40326,0.70614c-0.12531,0.24055 -0.22783,0.45783 -0.30757,0.65182c-1.31003,-0.20693 -2.44349,-0.5406 -3.40038,-1.00102c-0.95689,-0.45783 -1.76797,-1.07473 -2.43324,-1.85071c-0.66755,-0.77598 -1.22345,-1.72656 -1.66772,-2.85173zM274.22808,176.17732h15.15646v2.15335h-15.15646v-2.15335M282.87426,177.0503c0.35314,1.50023 0.835,2.89958 1.44559,4.19806c0.60831,1.30106 1.36243,2.43917 2.26236,3.41431c0.89993,0.97774 1.94796,1.74466 3.14407,2.30078c-0.14809,0.14226 -0.30757,0.33238 -0.47845,0.57035c-0.17087,0.24055 -0.33605,0.47981 -0.49553,0.71778c-0.15948,0.24055 -0.29048,0.46429 -0.39301,0.67122c-1.27585,-0.68545 -2.38425,-1.58171 -3.32519,-2.68877c-0.93866,-1.10448 -1.73265,-2.38743 -2.38197,-3.84886c-0.64932,-1.46143 -1.19042,-3.07806 -1.6233,-4.84988l1.84543,-0.48499M280.75543,170.88125h1.99922c0,0.94411 -0.01937,1.95289 -0.0581,3.02632c-0.04101,1.07344 -0.12986,2.16887 -0.26656,3.28628c-0.1367,1.12 -0.35883,2.23224 -0.66641,3.33672c-0.30757,1.10707 -0.73476,2.17404 -1.28155,3.20092c-0.54679,1.02947 -1.24396,1.98651 -2.09149,2.87113c-0.84981,0.8872 -1.88416,1.6606 -3.10306,2.32018c-0.14809,-0.28453 -0.35314,-0.59233 -0.61514,-0.92342c-0.26201,-0.3285 -0.52401,-0.60268 -0.78602,-0.82254c1.18472,-0.60785 2.17579,-1.30623 2.97319,-2.09515c0.79741,-0.78891 1.44673,-1.64896 1.94796,-2.58014c0.50123,-0.93118 0.88626,-1.90115 1.1551,-2.90993c0.26656,-1.00877 0.45111,-2.02143 0.55363,-3.03796c0.10252,-1.01395 0.16518,-2.00332 0.18796,-2.96813c0.02278,-0.96222 0.03987,-1.86365 0.05126,-2.70429zM304.50682,179.26185h1.81126c0,0 -0.00342,0.05173 -0.01025,0.1552c-0.00456,0.10346 -0.00683,0.21986 -0.00683,0.34919c0,0.12933 -0.0057,0.24573 -0.01709,0.34919c-0.07974,1.73302 -0.16518,3.13884 -0.25631,4.21745c-0.09113,1.0812 -0.19935,1.91279 -0.32466,2.49478c-0.12531,0.58199 -0.27909,0.99584 -0.46136,1.24157c-0.19366,0.25866 -0.40212,0.43972 -0.6254,0.54319c-0.221,0.10346 -0.47958,0.1746 -0.77576,0.21339c-0.25061,0.0388 -0.57755,0.0582 -0.98081,0.0582c-0.40554,0 -0.83044,-0.00647 -1.27471,-0.0194c-0.02278,-0.28453 -0.08202,-0.60785 -0.17771,-0.96998c-0.09797,-0.36212 -0.2153,-0.66605 -0.352,-0.91178c0.42149,0.0388 0.8145,0.06078 1.17903,0.06596c0.36453,0.00776 0.63223,0.01164 0.8031,0.01164c0.14809,0 0.26998,-0.01293 0.36567,-0.0388c0.09797,-0.02587 0.19252,-0.09053 0.28365,-0.194c0.12531,-0.1552 0.23922,-0.49145 0.34175,-1.00877c0.10252,-0.51732 0.19024,-1.28037 0.26314,-2.28914c0.07518,-1.00877 0.14695,-2.32148 0.2153,-3.9381v-0.32979M296.06568,181.70618h1.69165v4.59769h-1.69165v-4.59769M300.33751,182.46277h1.67456v5.41247h-1.67456v-5.41247M291.94763,182.50156h1.67456v3.10392h7.4159v1.72656h-9.09046v-4.83048M302.59304,172.51081h1.70873c0,0 0,0.09053 0,0.27159c0,0.18106 -0.0057,0.32979 -0.01709,0.44619c-0.05696,0.96998 -0.11733,1.77829 -0.18113,2.42494c-0.06151,0.64665 -0.13442,1.15751 -0.21872,1.53256c-0.08658,0.37506 -0.20391,0.64665 -0.352,0.81478c-0.1367,0.194 -0.28821,0.33238 -0.45452,0.41515c-0.16404,0.08536 -0.35428,0.14097 -0.57072,0.16684c-0.18227,0.0388 -0.41921,0.06078 -0.71083,0.06596c-0.28934,0.00776 -0.5992,0.00517 -0.92955,-0.00776c-0.02278,-0.28453 -0.07404,-0.5988 -0.15379,-0.94282c-0.07974,-0.34143 -0.18227,-0.63501 -0.30757,-0.88074c0.26201,0.02587 0.50123,0.04526 0.71767,0.0582c0.21644,0.01293 0.38162,0.0194 0.49553,0.0194c0.10252,0 0.19366,-0.01293 0.2734,-0.0388c0.07974,-0.02587 0.14809,-0.0776 0.20505,-0.1552c0.11392,-0.14226 0.21074,-0.50439 0.29048,-1.08637c0.07974,-0.58199 0.14809,-1.53256 0.20505,-2.85173v-0.25219M297.56936,170.80366l2.18718,0.21339c-0.18227,0.47852 -0.38731,0.94023 -0.61514,1.38513c-0.22783,0.44748 -0.43288,0.83289 -0.61514,1.15621l-1.6233,-0.32979c0.12531,-0.36212 0.25289,-0.76951 0.38276,-1.22217c0.13214,-0.45265 0.22669,-0.85358 0.28365,-1.20277M295.68976,176.19672l0.90563,-1.31917c0.3987,0.1552 0.82589,0.34273 1.28155,0.56259c0.45566,0.21986 0.89196,0.44619 1.30889,0.67898c0.41465,0.23279 0.75868,0.45265 1.03207,0.65958l-0.95689,1.45496c-0.25061,-0.20693 -0.58097,-0.43326 -0.99106,-0.67898c-0.4101,-0.24573 -0.8407,-0.48887 -1.2918,-0.72942c-0.44883,-0.23797 -0.87829,-0.44748 -1.28838,-0.62854M303.12275,172.51081v1.86235h-8.13357v4.88868h10.06444v1.82355h-11.8586v-8.57459zM310.29942,181.26v-1.61016l1.0765,-0.71778h11.10676v2.03695h-10.21822c-0.31896,0 -0.61856,0.00905 -0.89879,0.02716c-0.27795,0.02069 -0.51148,0.05302 -0.70058,0.097c-0.18682,0.04656 -0.30871,0.10217 -0.36567,0.16684M315.8528,176.37132h1.86252v10.02955c0,0.54319 -0.05696,0.97256 -0.17087,1.28813c-0.11392,0.31815 -0.34175,0.56129 -0.68349,0.72942c-0.31896,0.18106 -0.71197,0.29358 -1.17903,0.33755c-0.46705,0.04656 -1.01385,0.06984 -1.64038,0.06984c-0.02278,-0.20693 -0.07404,-0.43972 -0.15379,-0.69838c-0.07974,-0.25866 -0.1629,-0.51473 -0.24947,-0.76822c-0.0843,-0.2509 -0.17201,-0.47335 -0.26314,-0.66734c0.44427,0.01293 0.87145,0.02199 1.28155,0.02716c0.4101,0.00776 0.68919,0.00517 0.83728,-0.00776c0.1367,0 0.23011,-0.02587 0.28023,-0.0776c0.0524,-0.05173 0.0786,-0.14226 0.0786,-0.27159v-9.99075M311.49554,182.22997l1.84543,0.58199c-0.26201,0.68545 -0.57527,1.36702 -0.9398,2.04471c-0.36453,0.68028 -0.74956,1.31787 -1.1551,1.91279c-0.40326,0.59492 -0.81563,1.11224 -1.23712,1.55196c-0.11392,-0.1164 -0.26542,-0.26254 -0.45452,-0.43843c-0.18682,-0.1733 -0.37706,-0.34143 -0.57072,-0.50439c-0.19366,-0.16037 -0.36453,-0.29229 -0.51262,-0.39575c0.61514,-0.56905 1.19384,-1.28037 1.73607,-2.13395c0.53996,-0.85358 0.96942,-1.72656 1.28838,-2.61893M318.75765,183.06415l1.55495,-0.83418c0.4101,0.47852 0.83386,1.00489 1.2713,1.57912c0.43971,0.57681 0.84981,1.14587 1.23029,1.70716c0.38276,0.56388 0.68805,1.07215 0.91588,1.5248l-1.67456,0.98938c-0.20505,-0.45265 -0.48756,-0.96739 -0.84753,-1.5442c-0.35769,-0.57423 -0.74956,-1.16268 -1.17561,-1.76536c-0.42832,-0.60009 -0.85323,-1.15233 -1.27471,-1.65672M308.65904,173.36439h14.60966v1.99815h-14.60966v-1.99815M310.29942,181.26c-0.03417,-0.14226 -0.08885,-0.34273 -0.16404,-0.60139c-0.07291,-0.25866 -0.15493,-0.52767 -0.24606,-0.80702c-0.09113,-0.27677 -0.17657,-0.51215 -0.25631,-0.70614c0.22783,-0.0776 0.44769,-0.23926 0.65957,-0.48499c0.20961,-0.24573 0.45111,-0.57552 0.7245,-0.98938c0.14809,-0.194 0.35542,-0.52379 0.62198,-0.98938c0.26884,-0.46559 0.56502,-1.01912 0.88854,-1.6606c0.3258,-0.63889 0.65388,-1.32693 0.98423,-2.06411c0.33035,-0.73718 0.63223,-1.4873 0.90563,-2.25034l1.99922,0.83418c-0.43288,1.06051 -0.91132,2.10161 -1.43534,3.12332c-0.52401,1.02171 -1.06169,1.99168 -1.61304,2.90993c-0.55363,0.91824 -1.09815,1.74596 -1.63355,2.48314v0.0388c0,0 -0.07404,0.04138 -0.22214,0.12416c-0.14809,0.08536 -0.31327,0.18882 -0.49553,0.31039c-0.18227,0.12416 -0.34744,0.2509 -0.49553,0.38023c-0.14809,0.12933 -0.22214,0.24573 -0.22214,0.34919zM325.49006,175.55654h5.05785v2.07575h-5.05785v-2.07575M333.89702,171.21105h1.91378v14.10345c0,0.53025 0.04557,0.86651 0.1367,1.00877c0.09113,0.14226 0.30188,0.21339 0.63223,0.21339c0.06835,0 0.19366,0 0.37592,0c0.18227,0 0.38162,0 0.59806,0c0.21644,0 0.41579,0 0.59806,0c0.18227,0 0.31896,0 0.4101,0c0.22783,0 0.40212,-0.10993 0.52287,-0.32979c0.11847,-0.21986 0.20619,-0.6182 0.26314,-1.19501c0.05696,-0.57423 0.10252,-1.38513 0.1367,-2.4327c0.15948,0.12933 0.34175,0.25866 0.54679,0.38799c0.20505,0.12933 0.41579,0.24185 0.63223,0.33755c0.21644,0.09829 0.4101,0.1733 0.58097,0.22503c-0.05696,1.2157 -0.16518,2.19473 -0.32466,2.93709c-0.15948,0.74494 -0.40782,1.28554 -0.74501,1.6218c-0.33491,0.33626 -0.81563,0.50439 -1.44217,0.50439c-0.09113,0 -0.25061,0 -0.47845,0c-0.22783,0 -0.47617,0 -0.74501,0c-0.26656,0 -0.50806,0 -0.7245,0c-0.21644,0 -0.37592,0 -0.47845,0c-0.61514,0 -1.09701,-0.10088 -1.44559,-0.30263c-0.3463,-0.19917 -0.5935,-0.53801 -0.74159,-1.01653c-0.14809,-0.47852 -0.22214,-1.14457 -0.22214,-1.99815v-14.06465M329.64228,171.19165h1.91378v17.59536h-1.91378v-17.59536M339.53584,174.12097l1.31572,1.86235c-0.56958,0.45265 -1.17903,0.90531 -1.82834,1.35797c-0.64932,0.45265 -1.31231,0.89238 -1.98896,1.31917c-0.67894,0.42679 -1.34306,0.82771 -1.99238,1.20277c-0.06835,-0.23279 -0.17657,-0.50827 -0.32466,-0.82642c-0.14809,-0.31557 -0.29048,-0.58328 -0.42718,-0.80314c0.62654,-0.37506 1.25649,-0.79926 1.88986,-1.27261c0.63109,-0.47076 1.23712,-0.95187 1.81809,-1.44332c0.58097,-0.49145 1.09359,-0.95704 1.53786,-1.39677M324.90909,184.42212c0.46705,-0.16813 1.00587,-0.37247 1.61646,-0.61302c0.60831,-0.23797 1.25421,-0.49663 1.9377,-0.77598c0.68349,-0.27677 1.36129,-0.55741 2.03339,-0.84194l0.34175,1.88175c-0.86576,0.43972 -1.74632,0.87298 -2.6417,1.29977c-0.8931,0.42679 -1.71557,0.81478 -2.46741,1.16397zM348.64338,176.19672h1.70873c-0.07974,0.81478 -0.16518,1.67094 -0.25631,2.5685c-0.09113,0.90014 -0.19138,1.79252 -0.30074,2.67713c-0.10708,0.8872 -0.20961,1.72785 -0.30757,2.52194c-0.09569,0.79667 -0.1891,1.49894 -0.28023,2.10679h-1.77708c0.11392,-0.63372 0.22783,-1.35538 0.34175,-2.16499c0.11392,-0.80702 0.22441,-1.65413 0.33149,-2.54134c0.10936,-0.88462 0.20961,-1.77053 0.30074,-2.65773c0.09113,-0.88462 0.17087,-1.72138 0.23922,-2.5103M351.20648,178.44707l0.95689,-0.69838c0.30757,0.27159 0.62654,0.58845 0.95689,0.95058c0.33035,0.36212 0.58666,0.67898 0.76893,0.95058l-1.00815,0.79538c-0.15948,-0.28453 -0.40098,-0.6182 -0.7245,-1.00102c-0.3258,-0.38023 -0.64248,-0.71261 -0.95006,-0.99714M350.74513,182.46277l1.00815,-0.71778c0.34175,0.29746 0.69716,0.64018 1.06625,1.02817c0.37136,0.38799 0.65957,0.73718 0.86462,1.04757l-1.04233,0.81478c-0.19366,-0.29746 -0.47275,-0.65312 -0.83728,-1.06697c-0.36453,-0.41386 -0.71767,-0.78245 -1.05941,-1.10577M348.88261,172.8794h8.83415v1.88175h-8.83415v-1.88175M349.36105,176.19672h6.51027v1.78476h-6.51027v-1.78476M346.49038,180.07663h11.67064v1.88175h-11.67064v-1.88175M348.3529,184.28632h9.36386v1.78476h-9.36386v-1.78476M348.98513,170.84246l1.77708,0.52379c-0.22783,0.80185 -0.50351,1.59981 -0.82703,2.3939c-0.3258,0.79667 -0.67096,1.5442 -1.03549,2.24258c-0.36453,0.69838 -0.73476,1.3127 -1.11068,1.84295c-0.11392,-0.1164 -0.27112,-0.24573 -0.47161,-0.38799c-0.19821,-0.14226 -0.39415,-0.28453 -0.5878,-0.42679c-0.19366,-0.14226 -0.36453,-0.25866 -0.51262,-0.34919c0.38731,-0.46559 0.75412,-1.01265 1.10042,-1.6412c0.34858,-0.62596 0.66527,-1.29847 0.95006,-2.01755c0.28479,-0.71649 0.52401,-1.44332 0.71767,-2.18051M355.34162,176.19672h1.70873c0,0 -0.00228,0.0582 -0.00683,0.1746c-0.00683,0.1164 -0.01025,0.24185 -0.01025,0.37635c0,0.13709 -0.0057,0.2509 -0.01709,0.34143c-0.06835,1.84942 -0.1367,3.4169 -0.20505,4.70244c-0.06835,1.28813 -0.14581,2.34605 -0.23239,3.17376c-0.0843,0.82771 -0.17999,1.47436 -0.28707,1.93995c-0.10936,0.46559 -0.23808,0.80185 -0.38617,1.00877c-0.19366,0.29746 -0.39643,0.50051 -0.60831,0.60914c-0.20961,0.11122 -0.45111,0.1927 -0.7245,0.24443c-0.25061,0.0388 -0.56958,0.0582 -0.95689,0.0582c-0.38731,0 -0.79171,-0.01293 -1.2132,-0.0388c-0.01139,-0.25866 -0.05696,-0.54965 -0.1367,-0.87298c-0.07974,-0.32333 -0.18796,-0.60785 -0.32466,-0.85358c0.3987,0.0388 0.76323,0.06466 1.09359,0.0776c0.33035,0.01293 0.57527,0.0194 0.73476,0.0194c0.14809,0 0.2677,-0.02328 0.35883,-0.06984c0.09113,-0.04397 0.18227,-0.12416 0.2734,-0.24055c0.11392,-0.14226 0.21644,-0.43067 0.30757,-0.86522c0.09113,-0.43196 0.17657,-1.04628 0.25631,-1.84295c0.07974,-0.79409 0.15151,-1.80933 0.2153,-3.04572c0.06151,-1.23381 0.11505,-2.73016 0.16062,-4.48905v-0.40739M343.17544,172.56901l1.02524,-1.41616c0.33035,0.16813 0.68577,0.36859 1.06625,0.60139c0.38276,0.23279 0.74842,0.47205 1.09701,0.71778c0.3463,0.24573 0.62767,0.47205 0.84411,0.67898l-1.0765,1.57136c-0.20505,-0.20693 -0.47503,-0.4436 -0.80994,-0.71002c-0.33719,-0.26383 -0.69716,-0.52249 -1.07992,-0.77598c-0.38048,-0.2509 -0.73589,-0.47335 -1.06625,-0.66734M342.21855,178.11727l0.99106,-1.39677c0.33035,0.16813 0.67438,0.36471 1.03207,0.58975c0.35997,0.22762 0.70172,0.45783 1.02524,0.69062c0.3258,0.23279 0.59122,0.45265 0.79627,0.65958l-1.05941,1.59076c-0.18227,-0.21986 -0.43288,-0.45912 -0.75184,-0.71778c-0.31896,-0.25866 -0.65843,-0.51085 -1.0184,-0.75658c-0.35769,-0.24573 -0.69602,-0.46559 -1.01499,-0.65958M342.69699,187.52604c0.22783,-0.50439 0.48186,-1.09931 0.76209,-1.78476c0.27795,-0.68545 0.55705,-1.41616 0.83728,-2.19215c0.27795,-0.77598 0.53654,-1.53903 0.77576,-2.28914l1.40116,1.12517c-0.20505,0.68545 -0.4306,1.3903 -0.67666,2.11455c-0.24378,0.72425 -0.49439,1.44203 -0.75184,2.15335c-0.25517,0.71132 -0.50806,1.37737 -0.75868,1.99815zM359.30588,175.53714h4.69901v1.95935h-4.69901v-1.95935M360.92917,171.11405h1.70873v13.01708h-1.70873v-13.01708M359.16918,184.48032c0.60375,-0.28453 1.33281,-0.66605 2.18718,-1.14457c0.85437,-0.47852 1.71443,-0.96998 2.58019,-1.47436l0.51262,1.84295c-0.76323,0.49145 -1.54697,0.98938 -2.35122,1.49376c-0.80196,0.50439 -1.55039,0.96351 -2.24527,1.37737l-0.68349,-2.09515M364.27829,173.59719h10.73084v1.88175h-10.73084v-1.88175M363.74858,184.9071c0.50123,-0.10346 1.07308,-0.23926 1.71557,-0.40739c0.64476,-0.16813 1.33167,-0.34661 2.06073,-0.53543c0.72906,-0.18624 1.45812,-0.38282 2.18718,-0.58975l0.17087,1.74596c-0.99106,0.31039 -1.98555,0.6169 -2.98345,0.91954c-0.99562,0.30522 -1.90353,0.58069 -2.72372,0.82642l-0.42718,-1.95935M369.79749,170.88125h1.75999c-0.01139,1.35797 0,2.69912 0.03417,4.02346c0.03417,1.32693 0.09341,2.59178 0.17771,3.79455c0.08658,1.20277 0.19252,2.30854 0.31782,3.31732c0.12531,1.00877 0.2677,1.88822 0.42718,2.63833c0.15948,0.75012 0.33377,1.32822 0.52287,1.73432c0.18682,0.40868 0.38276,0.61302 0.5878,0.61302c0.1367,0 0.24264,-0.194 0.31782,-0.58199c0.07291,-0.38799 0.12075,-1.03464 0.14353,-1.93995c0.17087,0.23279 0.3725,0.44877 0.60489,0.64794c0.23467,0.20175 0.44883,0.36083 0.64248,0.47723c-0.07974,0.85358 -0.19366,1.5261 -0.34175,2.01755c-0.14809,0.49145 -0.34972,0.83677 -0.60489,1.03593c-0.25745,0.20175 -0.59122,0.30263 -1.00132,0.30263c-0.47845,0 -0.89993,-0.23667 -1.26446,-0.71002c-0.36453,-0.47076 -0.6778,-1.13293 -0.9398,-1.98651c-0.26201,-0.85358 -0.48072,-1.8533 -0.65615,-2.99917c-0.17771,-1.14328 -0.31441,-2.39131 -0.4101,-3.74411c-0.09797,-1.35021 -0.17315,-2.75991 -0.22555,-4.22909c-0.05012,-1.4666 -0.08088,-2.93709 -0.09227,-4.41145M371.96759,171.89003l1.04233,-1.00877c0.34175,0.27159 0.70286,0.58845 1.08334,0.95058c0.38276,0.36212 0.67096,0.68545 0.86462,0.96998l-1.0765,1.14457c-0.20505,-0.29746 -0.48642,-0.64018 -0.84411,-1.02817c-0.35997,-0.38799 -0.71653,-0.73072 -1.06967,-1.02817M373.11244,176.9145l1.64038,0.34919c-0.54679,2.57367 -1.32939,4.83953 -2.3478,6.79759c-1.02068,1.96065 -2.28856,3.55529 -3.80364,4.78392c-0.09113,-0.1164 -0.21644,-0.26254 -0.37592,-0.43843c-0.15948,-0.1733 -0.32466,-0.34143 -0.49553,-0.50439c-0.17087,-0.16037 -0.31896,-0.29229 -0.44427,-0.39575c1.51508,-1.07344 2.74764,-2.51547 3.6977,-4.32609c0.95233,-1.81062 1.66203,-3.8993 2.12908,-6.26604M366.14081,178.54406v2.61893h1.57203v-2.61893h-1.57203M364.77382,176.9339h4.37436v5.85865h-4.37436z" fill="#ffffff" stroke-width="1"/><path d="M240,196v-32h179.32159v32z" fill="none" stroke-width="0"/></g></g></svg>