<svg version="1.1" xmlns="http://www.w3.org/2000/svg" xmlns:xlink="http://www.w3.org/1999/xlink" width="224" height="269" viewBox="0,0,224,269"><defs><linearGradient x1="128.00001" y1="212" x2="128.00001" y2="228" gradientUnits="userSpaceOnUse" id="color-1"><stop offset="0" stop-color="#000000" stop-opacity="0.1"/><stop offset="1" stop-color="#000000" stop-opacity="0"/></linearGradient></defs><g transform="translate(-128,-180)"><g stroke="none" stroke-miterlimit="10"><g fill-rule="evenodd"><path d="M138,210h204l10,2v227c0,5.54 -4.46,10 -10,10h-204c-5.54,0 -10,-4.46 -10,-10v-227z" fill="#1d2a41" stroke-width="1" stroke-linecap="butt" stroke-linejoin="miter"/><path d="M128,228v-16h224v16z" fill="url(#color-1)" stroke-width="12" stroke-linecap="round" stroke-linejoin="round" opacity="0.80769"/><path d="M138,180h204c5.54,0 10,4.46 10,10v22h-224v-22c0,-5.54 4.46,-10 10,-10z" fill="#31476d" stroke-width="1" stroke-linecap="butt" stroke-linejoin="miter"/></g><path d="M178.10671,197.58421h15.32019v1.72524h-15.32019v-1.72524M187.90611,196.49731h1.91503v5.90034c0,0.48307 -0.07476,0.85112 -0.22428,1.10415c-0.14953,0.25304 -0.41406,0.44281 -0.79362,0.56933c-0.37956,0.11502 -0.85918,0.18403 -1.43886,0.20703c-0.58198,0.023 -1.27553,0.03451 -2.08064,0.03451c-0.04601,-0.24154 -0.13227,-0.52103 -0.25878,-0.83847c-0.12652,-0.31514 -0.25304,-0.58773 -0.37956,-0.81776c0.37956,0.01151 0.7614,0.01955 1.14557,0.02416c0.38646,0.0069 0.73151,0.01035 1.03515,0.01035c0.30594,0 0.51068,0 0.61419,0c0.17253,0 0.29329,-0.02645 0.3623,-0.07936c0.06901,-0.05061 0.10352,-0.13917 0.10352,-0.26569v-5.84859M180.4703,200.05132l1.25943,-1.13866c0.36805,0.25304 0.74761,0.54633 1.13866,0.87987c0.39106,0.33355 0.75336,0.66364 1.08691,0.99029c0.33355,0.32895 0.59808,0.63719 0.79362,0.92473l-1.34569,1.25943c-0.17253,-0.28755 -0.41981,-0.60728 -0.74185,-0.95923c-0.32205,-0.34965 -0.67284,-0.697 -1.0524,-1.04205c-0.37956,-0.34505 -0.75911,-0.64984 -1.13866,-0.91438M179.27988,189.64808h1.93228v4.08884c0,0.24154 0.05406,0.42557 0.16218,0.55208c0.11041,0.12652 0.32434,0.21278 0.64179,0.25878c0.31514,0.04601 0.78901,0.06901 1.42161,0.06901c0.13802,0 0.3623,0 0.67284,0c0.31055,0 0.6648,0 1.06275,0c0.39566,0 0.81202,0 1.24908,0c0.43706,0 0.86608,0 1.28704,0c0.41866,0 0.79476,0 1.12831,0c0.33355,0 0.59234,0 0.77636,0c0.46007,0 0.80856,-0.02875 1.0455,-0.08626c0.23464,-0.0575 0.40371,-0.17253 0.50722,-0.34505c0.10352,-0.17253 0.18403,-0.42557 0.24154,-0.75911c0.23003,0.11502 0.51182,0.22083 0.84537,0.31744c0.33355,0.09891 0.63259,0.17138 0.89713,0.21738c-0.08052,0.57508 -0.23578,1.0179 -0.46581,1.32844c-0.23003,0.31055 -0.57163,0.52333 -1.02479,0.63834c-0.45547,0.11502 -1.08001,0.17253 -1.87361,0.17253c-0.13802,0 -0.36805,0 -0.6901,0c-0.32205,0 -0.69815,0 -1.12831,0c-0.43247,0 -0.88448,0 -1.35605,0c-0.47157,0 -0.92013,0 -1.34569,0c-0.42557,0 -0.79707,0 -1.11451,0c-0.31514,0 -0.53598,0 -0.6625,0c-1.08115,0 -1.92652,-0.06326 -2.53611,-0.18977c-0.60959,-0.12652 -1.0409,-0.35656 -1.29394,-0.6901c-0.25304,-0.33355 -0.37956,-0.81662 -0.37956,-1.4492v-4.12334M179.88371,191.66663h9.66139v-1.32844h-10.26522v-1.58722h12.09398v4.52015h-11.49015zM199.15473,190.01038l1.13866,-1.60448c0.79362,0.57508 1.48142,1.18467 2.0634,1.82876c0.57969,0.64409 1.09035,1.31349 1.53202,2.00818c0.44396,0.697 0.85572,1.40205 1.23527,2.11515c0.37956,0.7131 0.75911,1.42275 1.13866,2.12896c0.37956,0.70851 0.79362,1.39285 1.24217,2.05305c0.44857,0.6625 0.96844,1.29278 1.55962,1.89087c0.59349,0.59808 1.29278,1.14441 2.0979,1.63899c-0.09201,0.17253 -0.20358,0.3876 -0.3347,0.64524c-0.13341,0.25994 -0.25188,0.52217 -0.3554,0.78671c-0.10352,0.26454 -0.17253,0.49457 -0.20703,0.6901c-0.83962,-0.47157 -1.57573,-1.0179 -2.20832,-1.63899c-0.63259,-0.62109 -1.19042,-1.29163 -1.67349,-2.01163c-0.48307,-0.7177 -0.93164,-1.46186 -1.34569,-2.23247c-0.41406,-0.77061 -0.81892,-1.54122 -1.21458,-2.31183c-0.39796,-0.77061 -0.81776,-1.52166 -1.25943,-2.25317c-0.44396,-0.7292 -0.94199,-1.41355 -1.49407,-2.05305c-0.55208,-0.63719 -1.19042,-1.19732 -1.91503,-1.68039M201.94962,192.33947l2.12206,0.37956c-0.41406,1.79425 -0.95464,3.41598 -1.62173,4.8652c-0.66709,1.4492 -1.48026,2.72014 -2.4395,3.8128c-0.96154,1.09266 -2.08064,2.01854 -3.35733,2.77765c-0.11502,-0.13802 -0.27259,-0.30249 -0.47271,-0.49342c-0.20242,-0.18863 -0.41635,-0.3784 -0.64179,-0.56933c-0.22313,-0.18863 -0.41521,-0.34044 -0.57623,-0.45547c1.92077,-0.95464 3.44244,-2.30378 4.565,-4.04742c1.12026,-1.74135 1.92768,-3.8312 2.42225,-6.26955zM220.23724,194.18548c0.39106,0 0.74416,0.09431 1.0593,0.28294c0.31744,0.19093 0.57163,0.44396 0.76256,0.75911c0.18863,0.31744 0.28294,0.6717 0.28294,1.06275c0,0.37956 -0.09431,0.73035 -0.28294,1.0524c-0.19093,0.32205 -0.44512,0.57738 -0.76256,0.76601c-0.31514,0.19093 -0.66825,0.28639 -1.0593,0.28639c-0.37956,0 -0.73035,-0.09546 -1.0524,-0.28639c-0.32205,-0.18863 -0.57853,-0.44396 -0.76946,-0.76601c-0.18863,-0.32205 -0.28294,-0.67284 -0.28294,-1.0524c0,-0.39106 0.09431,-0.7453 0.28294,-1.06275c0.19093,-0.31514 0.44741,-0.56818 0.76946,-0.75911c0.32205,-0.18863 0.67284,-0.28294 1.0524,-0.28294zM229.86412,197.58421h15.32019v1.72524h-15.32019v-1.72524M239.66352,196.49731h1.91503v5.90034c0,0.48307 -0.07476,0.85112 -0.22428,1.10415c-0.14953,0.25304 -0.41406,0.44281 -0.79362,0.56933c-0.37956,0.11502 -0.86032,0.18403 -1.4423,0.20703c-0.57969,0.023 -1.27208,0.03451 -2.07719,0.03451c-0.04601,-0.24154 -0.13227,-0.52103 -0.25878,-0.83847c-0.12652,-0.31514 -0.25304,-0.58773 -0.37956,-0.81776c0.37956,0.01151 0.76256,0.01955 1.14902,0.02416c0.38415,0.0069 0.7292,0.01035 1.03515,0.01035c0.30365,0 0.50722,0 0.61073,0c0.17253,0 0.29329,-0.02645 0.3623,-0.07936c0.06901,-0.05061 0.10352,-0.13917 0.10352,-0.26569v-5.84859M232.22771,200.05132l1.25943,-1.13866c0.36805,0.25304 0.74761,0.54633 1.13866,0.87987c0.39106,0.33355 0.75336,0.66364 1.08691,0.99029c0.33355,0.32895 0.59808,0.63719 0.79362,0.92473l-1.34569,1.25943c-0.17253,-0.28755 -0.41981,-0.60728 -0.74185,-0.95923c-0.32205,-0.34965 -0.67284,-0.697 -1.0524,-1.04205c-0.37956,-0.34505 -0.75911,-0.64984 -1.13866,-0.91438M231.03729,189.64808h1.93228v4.08884c0,0.24154 0.05406,0.42557 0.16218,0.55208c0.11041,0.12652 0.3232,0.21278 0.63834,0.25878c0.31744,0.04601 0.79246,0.06901 1.42506,0.06901c0.13802,0 0.3623,0 0.67284,0c0.31055,0 0.66364,0 1.0593,0c0.39796,0 0.81547,0 1.25253,0c0.43706,0 0.86492,0 1.28359,0c0.42096,0 0.79821,0 1.13176,0c0.33355,0 0.59234,0 0.77636,0c0.46007,0 0.80856,-0.02875 1.0455,-0.08626c0.23464,-0.0575 0.40371,-0.17253 0.50722,-0.34505c0.10352,-0.17253 0.18403,-0.42557 0.24154,-0.75911c0.23003,0.11502 0.51182,0.22083 0.84537,0.31744c0.33355,0.09891 0.63259,0.17138 0.89713,0.21738c-0.08052,0.57508 -0.23578,1.0179 -0.46581,1.32844c-0.23003,0.31055 -0.57163,0.52333 -1.02479,0.63834c-0.45547,0.11502 -1.08001,0.17253 -1.87361,0.17253c-0.13802,0 -0.36805,0 -0.6901,0c-0.32205,0 -0.6993,0 -1.13176,0c-0.43016,0 -0.88103,0 -1.3526,0c-0.47157,0 -0.92013,0 -1.34569,0c-0.42557,0 -0.79591,0 -1.11106,0c-0.31744,0 -0.53943,0 -0.66595,0c-1.08115,0 -1.92652,-0.06326 -2.53611,-0.18977c-0.60959,-0.12652 -1.0409,-0.35656 -1.29394,-0.6901c-0.25304,-0.33355 -0.37956,-0.81662 -0.37956,-1.4492v-4.12334M231.64112,191.66663h9.66139v-1.32844h-10.26522v-1.58722h12.09398v4.52015h-11.49015zM253.65527,188.25063h2.0703v14.21604h-2.0703v-14.21604M259.67639,196.89412h2.0703v7.43581h-2.0703v-7.43581M248.54855,189.73434h1.94953v4.39939h8.50547v-4.41663h2.05305v6.21089h-12.50804v-6.19364M247.66867,196.89412h2.0703v4.64091h10.90356v1.84602h-12.97386zM265.19718,189.59633l1.19042,-1.12141c0.31055,0.25304 0.64409,0.53713 1.00065,0.85227c0.35656,0.31744 0.6901,0.62799 1.00065,0.93164c0.31055,0.30594 0.56358,0.58543 0.75911,0.83847l-1.25943,1.27668c-0.18403,-0.25304 -0.42557,-0.54403 -0.72461,-0.87298c-0.29904,-0.32665 -0.62109,-0.65674 -0.96614,-0.99029c-0.34505,-0.33355 -0.6786,-0.63834 -1.00065,-0.91438M266.26683,204.07114l-0.41406,-1.63899l0.34505,-0.60383l3.38148,-2.72589c0.06901,0.24154 0.17253,0.51413 0.31055,0.81776c0.13802,0.30594 0.26454,0.54518 0.37956,0.7177c-0.79362,0.64409 -1.43771,1.16971 -1.93228,1.57688c-0.49457,0.40945 -0.87987,0.73151 -1.15592,0.96614c-0.27604,0.23693 -0.47962,0.42096 -0.61073,0.55208c-0.13341,0.13341 -0.23464,0.24613 -0.30365,0.33815M264.00676,193.58164h3.10545v1.77701h-3.10545v-1.77701M272.02916,188.81996h4.64091v1.708h-4.64091v-1.708M269.95887,195.77271h7.91888v1.72524h-7.91888v-1.72524M277.30841,195.77271h0.32779l0.32779,-0.06901l1.12141,0.48307c-0.35656,1.19617 -0.83386,2.24282 -1.43196,3.13995c-0.59808,0.89713 -1.30199,1.67004 -2.1117,2.31873c-0.81202,0.65099 -1.70339,1.19502 -2.67413,1.63209c-0.97304,0.43706 -2.01163,0.78786 -3.1158,1.0524c-0.08052,-0.24154 -0.20473,-0.52333 -0.37266,-0.84537c-0.16563,-0.32205 -0.32895,-0.58083 -0.48997,-0.77636c1.00065,-0.19553 1.94953,-0.47502 2.84666,-0.83847c0.89713,-0.36115 1.71375,-0.81547 2.44985,-1.36295c0.7361,-0.54518 1.37215,-1.18927 1.90812,-1.93228c0.53368,-0.74071 0.93854,-1.58838 1.21458,-2.54302v-0.25878M272.06367,197.17016c0.46007,0.93164 1.07311,1.77126 1.83911,2.51886c0.76371,0.74761 1.67119,1.37674 2.72244,1.88742c1.05355,0.51297 2.21866,0.89598 3.49535,1.14902c-0.12652,0.12652 -0.26109,0.28755 -0.40371,0.48307c-0.14492,0.19553 -0.28064,0.39335 -0.40716,0.59349c-0.12652,0.20242 -0.23003,0.3899 -0.31055,0.56243c-2.01279,-0.48307 -3.72079,-1.28818 -5.12398,-2.41535c-1.4032,-1.12716 -2.51886,-2.54761 -3.34697,-4.26136l1.53547,-0.51758M271.56334,188.81996h1.7425v1.93228c0,0.56358 -0.08052,1.13866 -0.24154,1.72524c-0.16102,0.58659 -0.45661,1.14441 -0.88677,1.67349c-0.43247,0.52907 -1.06275,0.98339 -1.89087,1.36295c-0.08052,-0.11502 -0.19553,-0.26223 -0.34505,-0.44167c-0.14953,-0.17712 -0.30479,-0.35195 -0.46581,-0.52448c-0.16102,-0.17253 -0.29904,-0.29904 -0.41406,-0.37956c0.7361,-0.32205 1.28243,-0.67629 1.63899,-1.06275c0.35656,-0.38415 0.59004,-0.78097 0.70045,-1.19042c0.10811,-0.40716 0.16218,-0.81202 0.16218,-1.21458v-1.88052M275.8247,188.81996h1.7425v3.83005c0,0.25304 0.01725,0.43131 0.05175,0.53482c0.03451,0.10352 0.12076,0.15527 0.25878,0.15527c0.0575,0 0.14953,0 0.27604,0c0.12652,0 0.25533,0 0.38646,0c0.13341,0 0.23464,0 0.30365,0c0.13802,0 0.29559,-0.0092 0.47271,-0.02761c0.17942,-0.0161 0.32089,-0.0414 0.42441,-0.07591c0.023,0.23003 0.04601,0.49112 0.06901,0.78326c0.023,0.29445 0.05175,0.54518 0.08626,0.7522c-0.12652,0.0575 -0.28179,0.09201 -0.46581,0.10352c-0.18403,0.01151 -0.36805,0.01725 -0.55208,0.01725c-0.09201,0 -0.21509,0 -0.36921,0c-0.15642,0 -0.30939,0 -0.45891,0c-0.14953,0 -0.26454,0 -0.34505,0c-0.51758,0 -0.91093,-0.07476 -1.18007,-0.22428c-0.27143,-0.14953 -0.45547,-0.39451 -0.55208,-0.73496c-0.09891,-0.33815 -0.14837,-0.77176 -0.14837,-1.30084v-3.8128M266.26683,204.07114c-0.04601,-0.14953 -0.12422,-0.32205 -0.23464,-0.51758c-0.10811,-0.19553 -0.22773,-0.39106 -0.35885,-0.58659c-0.13341,-0.19553 -0.25188,-0.3508 -0.3554,-0.46581c0.12652,-0.08052 0.25649,-0.20128 0.3899,-0.3623c0.13112,-0.16102 0.24268,-0.3508 0.3347,-0.56933c0.09201,-0.21854 0.13802,-0.46007 0.13802,-0.72461v-7.26329h1.77701v8.60899c0,0 -0.08626,0.06556 -0.25878,0.19668c-0.17253,0.13341 -0.36805,0.29789 -0.58659,0.49342c-0.21854,0.19553 -0.41406,0.40256 -0.58659,0.62109c-0.17253,0.21854 -0.25878,0.40831 -0.25878,0.56933zM292.00751,190.1139v1.15592h2.26007v-1.15592h-2.26007M288.10846,190.1139v1.15592h2.20832v-1.15592h-2.20832M284.26116,190.1139v1.15592h2.15656v-1.15592h-2.15656M282.5014,188.87172h13.62945v3.65752h-13.62945v-3.65752M281.75955,193.32286h14.78537v1.38019h-14.78537v-1.38019M288.21197,192.14969l1.91503,0.10352c-0.08052,0.60959 -0.18403,1.25598 -0.31055,1.93917c-0.12652,0.6855 -0.24729,1.27553 -0.3623,1.7701h-1.72524c0.06901,-0.33355 0.13572,-0.71885 0.20013,-1.15592c0.06211,-0.43706 0.11962,-0.88908 0.17253,-1.35605c0.05061,-0.46467 0.08741,-0.89828 0.11041,-1.30084M281.53527,202.55293h15.49272v1.31118h-15.49272v-1.31118M284.5717,197.34269h9.33358v0.96614h-9.33358v-0.96614M284.64071,199.06793h9.24733v0.94889h-9.24733v-0.94889M284.70972,200.81043h9.28183v0.96614h-9.28183v-0.96614M283.62281,195.47941h11.21411v7.79811h-1.82876v-6.65945h-7.6256v6.65945h-1.75975z" fill="#ffffff" fill-rule="nonzero" stroke-width="1" stroke-linecap="butt" stroke-linejoin="miter"/><path d="M138.91076,232.93481h15.25232v1.7176h-15.25232v-1.7176M148.66675,231.85272h1.90654v5.8742c0,0.48093 -0.07442,0.84736 -0.22329,1.09927c-0.14886,0.25191 -0.41222,0.44085 -0.79009,0.56681c-0.37787,0.11451 -0.85537,0.18321 -1.43248,0.20611c-0.5794,0.0229 -1.26988,0.03435 -2.07143,0.03435c-0.0458,-0.24046 -0.13169,-0.51871 -0.25764,-0.83475c-0.12596,-0.31375 -0.25191,-0.58513 -0.37787,-0.81415c0.37787,0.01145 0.75803,0.01946 1.14048,0.02404c0.38474,0.00687 0.72826,0.01031 1.03057,0.01031c0.30459,0 0.50842,0 0.61147,0c0.17176,0 0.292,-0.02634 0.3607,-0.07901c0.0687,-0.05038 0.10306,-0.13855 0.10306,-0.26452v-5.82268M141.26388,235.39099l1.25385,-1.13362c0.36642,0.25191 0.74429,0.54391 1.13362,0.87598c0.38932,0.33207 0.75002,0.6607 1.08209,0.98591c0.33207,0.32749 0.59543,0.63437 0.79009,0.92064l-1.33973,1.25385c-0.17176,-0.28627 -0.41795,-0.6046 -0.73857,-0.95499c-0.32062,-0.3481 -0.66987,-0.69391 -1.04774,-1.03743c-0.37787,-0.34352 -0.75574,-0.64697 -1.13362,-0.91033M140.07873,225.03383h1.92372v4.07072c0,0.24046 0.05382,0.42367 0.16145,0.54963c0.10993,0.12596 0.32291,0.21184 0.63895,0.25764c0.31375,0.0458 0.78551,0.0687 1.41531,0.0687c0.13741,0 0.3607,0 0.66987,0c0.30917,0 0.66185,0 1.05805,0c0.3939,0 0.80842,0 1.24355,0c0.43512,0 0.86223,0 1.28133,0c0.4168,0 0.79125,0 1.12331,0c0.33207,0 0.58971,0 0.77292,0c0.45803,0 0.80498,-0.02862 1.04086,-0.08587c0.23359,-0.05725 0.40191,-0.17176 0.50498,-0.34352c0.10306,-0.17176 0.18321,-0.42367 0.24046,-0.75574c0.22901,0.11451 0.50956,0.21986 0.84163,0.31604c0.33207,0.09848 0.62978,0.17062 0.89316,0.21642c-0.08015,0.57253 -0.23474,1.01339 -0.46376,1.32255c-0.22901,0.30917 -0.56909,0.52101 -1.02026,0.63551c-0.45345,0.11451 -1.07522,0.17176 -1.86532,0.17176c-0.13741,0 -0.36642,0 -0.68704,0c-0.32062,0 -0.69505,0 -1.12331,0c-0.43055,0 -0.88056,0 -1.35003,0c-0.46948,0 -0.91606,0 -1.33973,0c-0.42367,0 -0.79353,0 -1.10957,0c-0.31375,0 -0.5336,0 -0.65956,0c-1.07637,0 -1.918,-0.06297 -2.52488,-0.18894c-0.60688,-0.12596 -1.03629,-0.35497 -1.2882,-0.68704c-0.25191,-0.33207 -0.37787,-0.81299 -0.37787,-1.44279v-4.10507M140.6799,227.04343h9.61859v-1.32255h-10.21974v-1.5802h12.04041v4.50013h-11.43925zM159.86552,225.39453l1.13362,-1.59737c0.79009,0.57253 1.47485,1.17943 2.05425,1.82066c0.57712,0.64123 1.08553,1.30767 1.52524,1.99929c0.442,0.69391 0.85193,1.39583 1.22981,2.10578c0.37787,0.70994 0.75574,1.41645 1.13362,2.11953c0.37787,0.70536 0.79009,1.38668 1.23668,2.04395c0.44657,0.65956 0.96415,1.28706 1.55272,1.88249c0.59085,0.59543 1.28706,1.13934 2.0886,1.63172c-0.0916,0.17176 -0.20268,0.38589 -0.33321,0.64239c-0.13283,0.25879 -0.25077,0.51987 -0.35383,0.78323c-0.10306,0.26336 -0.17176,0.49238 -0.20611,0.68704c-0.83591,-0.46948 -1.56875,-1.01339 -2.19853,-1.63172c-0.62978,-0.61833 -1.18514,-1.28592 -1.66607,-2.00273c-0.48093,-0.71453 -0.92751,-1.45538 -1.33973,-2.22258c-0.41222,-0.76719 -0.81529,-1.53439 -1.2092,-2.30159c-0.39619,-0.76719 -0.81415,-1.51493 -1.25385,-2.24319c-0.442,-0.72598 -0.93781,-1.40728 -1.48745,-2.04395c-0.54963,-0.63437 -1.18514,-1.19202 -1.90654,-1.67294M162.64805,227.7133l2.11266,0.37787c-0.41222,1.78631 -0.95041,3.40086 -1.61455,4.84364c-0.66414,1.44279 -1.4737,2.70809 -2.42869,3.79591c-0.95727,1.08782 -2.07143,2.0096 -3.34246,2.76534c-0.11451,-0.13741 -0.27138,-0.30115 -0.47063,-0.49123c-0.20153,-0.18779 -0.41452,-0.37673 -0.63895,-0.56681c-0.22214,-0.18779 -0.41338,-0.33894 -0.57368,-0.45345c1.91226,-0.95041 3.42719,-2.29357 4.54478,-4.0295c1.1153,-1.73363 1.91914,-3.81423 2.41151,-6.24177zM173.26284,232.93481h15.25232v1.7176h-15.25232v-1.7176M183.01883,231.85272h1.90654v5.8742c0,0.48093 -0.07442,0.84736 -0.22329,1.09927c-0.14886,0.25191 -0.41222,0.44085 -0.79009,0.56681c-0.37787,0.11451 -0.85651,0.18321 -1.43592,0.20611c-0.57712,0.0229 -1.26645,0.03435 -2.068,0.03435c-0.0458,-0.24046 -0.13169,-0.51871 -0.25764,-0.83475c-0.12596,-0.31375 -0.25191,-0.58513 -0.37787,-0.81415c0.37787,0.01145 0.75803,0.01946 1.14048,0.02404c0.38474,0.00687 0.72826,0.01031 1.03057,0.01031c0.30459,0 0.50842,0 0.61147,0c0.17176,0 0.292,-0.02634 0.3607,-0.07901c0.0687,-0.05038 0.10306,-0.13855 0.10306,-0.26452v-5.82268M175.61596,235.39099l1.25385,-1.13362c0.36642,0.25191 0.74429,0.54391 1.13362,0.87598c0.38932,0.33207 0.75002,0.6607 1.08209,0.98591c0.33207,0.32749 0.59543,0.63437 0.79009,0.92064l-1.33973,1.25385c-0.17176,-0.28627 -0.41795,-0.6046 -0.73857,-0.95499c-0.32062,-0.3481 -0.66987,-0.69391 -1.04774,-1.03743c-0.37787,-0.34352 -0.75574,-0.64697 -1.13362,-0.91033M174.43081,225.03383h1.92372v4.07072c0,0.24046 0.05382,0.42367 0.16145,0.54963c0.10993,0.12596 0.32176,0.21184 0.63551,0.25764c0.31604,0.0458 0.78895,0.0687 1.41875,0.0687c0.13741,0 0.3607,0 0.66987,0c0.30917,0 0.6607,0 1.05461,0c0.39619,0 0.81185,0 1.24698,0c0.43512,0 0.86109,0 1.2779,0c0.41909,0 0.79468,0 1.12675,0c0.33207,0 0.58971,0 0.77292,0c0.45803,0 0.80498,-0.02862 1.04086,-0.08587c0.23359,-0.05725 0.40191,-0.17176 0.50498,-0.34352c0.10306,-0.17176 0.18321,-0.42367 0.24046,-0.75574c0.22901,0.11451 0.50956,0.21986 0.84163,0.31604c0.33207,0.09848 0.62978,0.17062 0.89316,0.21642c-0.08015,0.57253 -0.23474,1.01339 -0.46376,1.32255c-0.22901,0.30917 -0.56909,0.52101 -1.02026,0.63551c-0.45345,0.11451 -1.07522,0.17176 -1.86532,0.17176c-0.13741,0 -0.36642,0 -0.68704,0c-0.32062,0 -0.6962,0 -1.12675,0c-0.42825,0 -0.87712,0 -1.34661,0c-0.46948,0 -0.91606,0 -1.33973,0c-0.42367,0 -0.79353,0 -1.10957,0c-0.31375,0 -0.5336,0 -0.65956,0c-1.07637,0 -1.918,-0.06297 -2.52488,-0.18894c-0.60688,-0.12596 -1.03629,-0.35497 -1.2882,-0.68704c-0.25191,-0.33207 -0.37787,-0.81299 -0.37787,-1.44279v-4.10507M175.03197,227.04343h9.61859v-1.32255h-10.21974v-1.5802h12.04041v4.50013h-11.43925zM196.94859,223.64258h2.06112v14.15305h-2.06112v-14.15305M202.94303,232.24778h2.06112v7.40288h-2.06112v-7.40288M191.8645,225.11972h1.9409v4.37989h8.46778v-4.39707h2.04395v6.18338h-12.45263v-6.1662M190.98851,232.24778h2.06112v4.62035h10.85525v1.83784h-12.91639zM208.43937,224.98231l1.18514,-1.11644c0.30917,0.25191 0.64123,0.53474 0.99621,0.8485c0.35497,0.31604 0.68704,0.62521 0.99621,0.92751c0.30917,0.30459 0.56108,0.58284 0.75574,0.83475l-1.25385,1.27103c-0.18321,-0.25191 -0.42367,-0.54162 -0.72139,-0.86911c-0.29772,-0.3252 -0.61833,-0.65384 -0.96186,-0.98591c-0.34352,-0.33207 -0.67559,-0.63551 -0.99621,-0.91033M209.50428,239.39301l-0.41222,-1.63172l0.34352,-0.60116l3.3665,-2.71382c0.0687,0.24046 0.17176,0.51184 0.30917,0.81415c0.13741,0.30459 0.26336,0.54277 0.37787,0.71453c-0.79009,0.64123 -1.43134,1.16454 -1.92372,1.56989c-0.49238,0.40764 -0.87598,0.72826 -1.15079,0.96186c-0.27482,0.23588 -0.47749,0.41909 -0.60804,0.54963c-0.13283,0.13283 -0.23359,0.24504 -0.30229,0.33665M207.25423,228.94998h3.09169v1.76914h-3.09169v-1.76914M215.24108,224.20939h4.62035v1.70042h-4.62035v-1.70042M213.17995,231.13132h7.8838v1.7176h-7.8838v-1.7176M220.49695,231.13132h0.32635l0.32635,-0.0687l1.11644,0.48093c-0.35497,1.19087 -0.83017,2.23288 -1.42561,3.12604c-0.59543,0.89316 -1.29622,1.66263 -2.10235,2.30846c-0.80842,0.64811 -1.69584,1.18972 -2.66229,1.62486c-0.96872,0.43512 -2.00273,0.78437 -3.102,1.04774c-0.08015,-0.24046 -0.20268,-0.52101 -0.36756,-0.84163c-0.16718,-0.32062 -0.33093,-0.57826 -0.49123,-0.77292c0.99621,-0.19466 1.9409,-0.47291 2.83405,-0.83475c0.89316,-0.35955 1.70615,-0.81185 2.43899,-1.3569c0.73284,-0.54277 1.36492,-1.184 1.89624,-1.92372c0.5336,-0.73743 0.93781,-1.58134 1.21262,-2.53175v-0.25764M215.27544,232.52259c0.45803,0.92751 1.06834,1.76341 1.83097,2.50771c0.76033,0.74429 1.66493,1.37065 2.71382,1.87905c1.04659,0.5107 2.2054,0.89201 3.47643,1.14392c-0.12596,0.12596 -0.26108,0.28627 -0.40535,0.48093c-0.14199,0.19466 -0.27597,0.39162 -0.40191,0.59085c-0.12596,0.20153 -0.22901,0.38818 -0.30917,0.55994c-2.00387,-0.48093 -3.7043,-1.28248 -5.10129,-2.40464c-1.39699,-1.12217 -2.50771,-2.53633 -3.33215,-4.24248l1.52866,-0.51528M214.77733,224.20939h1.73477v1.92372c0,0.56108 -0.08015,1.13362 -0.24046,1.7176c-0.16031,0.58398 -0.45459,1.13934 -0.88285,1.66607c-0.43055,0.52673 -1.05805,0.97903 -1.88249,1.3569c-0.08015,-0.11451 -0.19466,-0.26108 -0.34352,-0.4397c-0.14886,-0.17634 -0.30345,-0.35039 -0.46376,-0.52215c-0.16031,-0.17176 -0.29772,-0.29772 -0.41222,-0.37787c0.73284,-0.32062 1.27675,-0.6733 1.63172,-1.05805c0.35497,-0.38245 0.58742,-0.7775 0.69735,-1.18514c0.10763,-0.40535 0.16145,-0.80842 0.16145,-1.2092v-1.87219M219.01981,224.20939h1.73477v3.81308c0,0.25191 0.01717,0.4294 0.05152,0.53246c0.03435,0.10306 0.12024,0.15459 0.25764,0.15459c0.05725,0 0.14886,0 0.27482,0c0.12596,0 0.25421,0 0.38474,0c0.13283,0 0.23359,0 0.30229,0c0.13741,0 0.29428,-0.00916 0.47063,-0.02748c0.17863,-0.01603 0.31948,-0.04122 0.42253,-0.07558c0.0229,0.22901 0.0458,0.48894 0.0687,0.77979c0.0229,0.29314 0.05152,0.54277 0.08587,0.74888c-0.12596,0.05725 -0.28054,0.0916 -0.46376,0.10306c-0.18321,0.01145 -0.36642,0.01717 -0.54963,0.01717c-0.0916,0 -0.21528,0 -0.371,0c-0.15344,0 -0.30459,0 -0.45345,0c-0.14886,0 -0.26336,0 -0.34352,0c-0.51528,0 -0.90804,-0.07442 -1.17827,-0.22329c-0.26794,-0.14886 -0.45001,-0.39276 -0.54619,-0.7317c-0.09848,-0.33665 -0.14772,-0.76834 -0.14772,-1.29507v-3.79591M209.50428,239.39301c-0.0458,-0.14886 -0.12366,-0.32062 -0.23359,-0.51528c-0.10763,-0.19466 -0.22673,-0.38932 -0.35726,-0.58398c-0.13283,-0.19466 -0.25077,-0.34925 -0.35383,-0.46376c0.12596,-0.08015 0.25535,-0.20039 0.38818,-0.3607c0.13054,-0.16031 0.24162,-0.34925 0.33321,-0.56681c0.0916,-0.21756 0.13741,-0.45803 0.13741,-0.72139v-7.23112h1.76914v8.57085c0,0 -0.08587,0.06527 -0.25764,0.1958c-0.17176,0.13283 -0.36642,0.29657 -0.58398,0.49123c-0.21756,0.19466 -0.41222,0.40077 -0.58398,0.61833c-0.17176,0.21756 -0.25764,0.4065 -0.25764,0.56681zM235.13093,225.49759v1.15079h2.25006v-1.15079h-2.25006M231.24915,225.49759v1.15079h2.19853v-1.15079h-2.19853M227.41889,225.49759v1.15079h2.14701v-1.15079h-2.14701M225.66694,224.26091h13.56907v3.64132h-13.56907v-3.64132M224.92836,228.69233h14.71987v1.37409h-14.71987v-1.37409M231.35221,227.52436l1.90654,0.10306c-0.08015,0.60688 -0.18321,1.25041 -0.30917,1.93059c-0.12596,0.68246 -0.24619,1.26988 -0.3607,1.76226h-1.7176c0.0687,-0.33207 0.13397,-0.71567 0.1958,-1.15079c0.06413,-0.43512 0.12138,-0.88513 0.17176,-1.35003c0.05268,-0.4626 0.09046,-0.8943 0.11336,-1.29507M224.70508,237.88151h15.42408v1.30538h-15.42408v-1.30538M227.72807,232.69435h9.29224v0.96186h-9.29224v-0.96186M227.79676,234.41195h9.20635v0.94468h-9.20635v-0.94468M227.86548,236.14673h9.24071v0.96186h-9.24071v-0.96186M226.78338,230.83934h11.16443v7.76356h-1.82066v-6.62995h-7.59182v6.62995h-1.75196z" fill="#ffffff" fill-rule="nonzero" stroke-width="1" stroke-linecap="butt" stroke-linejoin="miter"/><path d="M138.62224,311.29158h15.98977v1.49849h-15.98977v-1.49849M138.71039,299.99119h15.77821v1.49849h-15.77821v-1.49849M139.92681,308.75295h13.5393v1.4456h-13.5393v-1.4456M145.56819,298.42219h1.90396v13.62744h-1.90396v-13.62744M151.94998,296.88844l0.89909,1.46324c-0.83446,0.14103 -1.75706,0.26443 -2.76779,0.37021c-1.01075,0.10578 -2.06263,0.19392 -3.15564,0.26443c-1.09301,0.07051 -2.1919,0.12928 -3.29667,0.17629c-1.10477,0.04701 -2.17428,0.07639 -3.20853,0.08814c0,-0.2233 -0.04466,-0.47599 -0.13398,-0.75806c-0.08697,-0.28207 -0.17159,-0.51712 -0.25386,-0.70517c1.03426,-0.03526 2.09553,-0.07639 3.18385,-0.1234c1.08596,-0.04701 2.15782,-0.10578 3.21558,-0.17629c1.05776,-0.07051 2.05675,-0.15632 2.99698,-0.25739c0.94022,-0.09872 1.78056,-0.21273 2.52099,-0.34201M142.34202,305.63257v0.95198h8.53258v-0.95198h-8.53258M142.34202,303.53469v0.93436h8.53258v-0.93436h-8.53258M140.49094,302.26537h12.32287v5.58849h-12.32287zM167.04066,298.77478v1.18117h2.30944v-1.18117h-2.30944M163.05643,298.77478v1.18117h2.25655v-1.18117h-2.25655M159.12511,298.77478v1.18117h2.20366v-1.18117h-2.20366M157.32691,297.50547h13.92714v3.73741h-13.92714v-3.73741M156.56886,302.05383h15.1083v1.41035h-15.1083v-1.41035M163.16221,300.85504l1.95685,0.10578c-0.08227,0.6229 -0.18805,1.28341 -0.31732,1.98153c-0.12928,0.70048 -0.25269,1.30339 -0.37021,1.80876h-1.76293c0.07051,-0.34083 0.13868,-0.73456 0.2045,-1.18117c0.06347,-0.44661 0.12222,-0.90849 0.17629,-1.38566c0.05171,-0.47481 0.08932,-0.9179 0.11283,-1.32924M156.33968,311.4855h15.8311v1.33982h-15.8311v-1.33982M159.44244,306.16145h9.53745v0.98725h-9.53745v-0.98725M159.51295,307.92438h9.4493v0.96961h-9.4493v-0.96961M159.58347,309.70494h9.48456v0.98725h-9.48456v-0.98725M158.47283,304.25749h11.45904v7.96843h-1.8687v-6.80491h-7.79215v6.80491h-1.79819zM174.90332,298.2459l1.21642,-1.1459c0.31732,0.25857 0.65816,0.54886 1.0225,0.87089c0.36433,0.32438 0.70517,0.64171 1.0225,0.95198c0.31732,0.31262 0.57589,0.59821 0.77569,0.85678l-1.28694,1.30457c-0.18805,-0.25857 -0.43486,-0.55592 -0.74043,-0.89205c-0.30558,-0.33378 -0.63466,-0.67109 -0.98725,-1.01192c-0.35259,-0.34083 -0.69342,-0.65228 -1.0225,-0.93436M175.99634,313.03687l-0.4231,-1.67478l0.35259,-0.61702l3.45534,-2.78543c0.07051,0.24681 0.17629,0.52535 0.31732,0.83563c0.14103,0.31262 0.27031,0.55708 0.38784,0.73338c-0.81095,0.65816 -1.4691,1.19526 -1.97448,1.61131c-0.50538,0.4184 -0.89909,0.74749 -1.18117,0.98725c-0.28207,0.24211 -0.4901,0.43015 -0.62408,0.56413c-0.13633,0.13633 -0.23976,0.25151 -0.31028,0.34554M173.68691,302.31826h3.17327v1.81581h-3.17327v-1.81581M181.88452,297.45258h4.74227v1.7453h-4.74227v-1.7453M179.769,304.55719h8.09185v1.76293h-8.09185v-1.76293M187.27908,304.55719h0.33496l0.33496,-0.07051l1.1459,0.49362c-0.36433,1.2223 -0.85208,2.2918 -1.46324,3.20853c-0.61115,0.91672 -1.33042,1.70652 -2.15782,2.36938c-0.82975,0.66521 -1.7406,1.22113 -2.73254,1.66773c-0.99429,0.44661 -2.05557,0.80507 -3.18385,1.07539c-0.08227,-0.24681 -0.2092,-0.53476 -0.38079,-0.86383c-0.16925,-0.32908 -0.33613,-0.59352 -0.50068,-0.79331c1.0225,-0.1998 1.99211,-0.48539 2.90884,-0.85678c0.91672,-0.36904 1.75118,-0.83328 2.50336,-1.39271c0.75218,-0.55708 1.40094,-1.21525 1.94628,-1.97448c0.54769,-0.75688 0.96256,-1.62307 1.24463,-2.59856v-0.26443M181.91977,305.98516c0.47011,0.95198 1.09654,1.80994 1.87928,2.57388c0.78039,0.76393 1.70886,1.40682 2.78543,1.92865c1.07421,0.52418 2.2636,0.91555 3.56817,1.1741c-0.12928,0.12928 -0.26796,0.29382 -0.41605,0.49362c-0.14574,0.1998 -0.28324,0.40195 -0.41252,0.60644c-0.12928,0.20685 -0.23506,0.39842 -0.31732,0.57471c-2.05675,-0.49362 -3.80205,-1.31632 -5.2359,-2.4681c-1.43385,-1.15178 -2.57388,-2.60326 -3.42008,-4.35444l1.569,-0.52888M181.40853,297.45258h1.78056v1.97448c0,0.57589 -0.08227,1.16353 -0.24681,1.76293c-0.16453,0.5994 -0.46659,1.16941 -0.90614,1.71005c-0.44191,0.54063 -1.08596,1.00487 -1.93217,1.39271c-0.08227,-0.11752 -0.1998,-0.26796 -0.35259,-0.45131c-0.15279,-0.18099 -0.31146,-0.35963 -0.47599,-0.53593c-0.16453,-0.17629 -0.30558,-0.30558 -0.4231,-0.38784c0.75218,-0.32908 1.31045,-0.69107 1.67478,-1.08596c0.36433,-0.39255 0.60293,-0.79803 0.71575,-1.21642c0.11048,-0.41605 0.16572,-0.82975 0.16572,-1.2411v-1.92159M185.76297,297.45258h1.78056v3.91371c0,0.25857 0.01763,0.44073 0.05289,0.54651c0.03526,0.10578 0.1234,0.15867 0.26443,0.15867c0.05877,0 0.15279,0 0.28207,0c0.12928,0 0.26092,0 0.3949,0c0.13633,0 0.23976,0 0.31028,0c0.14103,0 0.30205,-0.0094 0.48304,-0.0282c0.18334,-0.01646 0.3279,-0.04231 0.43368,-0.07756c0.0235,0.23506 0.04701,0.50185 0.07051,0.80037c0.0235,0.30088 0.05289,0.55708 0.08814,0.76864c-0.12928,0.05877 -0.28794,0.09402 -0.47599,0.10578c-0.18805,0.01176 -0.37609,0.01763 -0.56413,0.01763c-0.09402,0 -0.22095,0 -0.38079,0c-0.15749,0 -0.31262,0 -0.46541,0c-0.15279,0 -0.27031,0 -0.35259,0c-0.52888,0 -0.93201,-0.07639 -1.20937,-0.22918c-0.27501,-0.15279 -0.46188,-0.40313 -0.56061,-0.751c-0.10108,-0.34554 -0.15161,-0.78862 -0.15161,-1.32924v-3.89607M175.99634,313.03687c-0.04701,-0.15279 -0.12693,-0.32908 -0.23976,-0.52888c-0.11048,-0.1998 -0.23388,-0.3996 -0.37021,-0.5994c-0.13398,-0.1998 -0.25386,-0.35847 -0.35963,-0.47599c0.12928,-0.08227 0.26208,-0.20568 0.39842,-0.37021c0.13398,-0.16453 0.24799,-0.35847 0.34201,-0.58177c0.09402,-0.2233 0.14103,-0.47011 0.14103,-0.74043v-7.42193h1.81581v8.79701c0,0 -0.08814,0.067 -0.26443,0.20098c-0.17629,0.13633 -0.37609,0.3044 -0.5994,0.50419c-0.2233,0.1998 -0.4231,0.41136 -0.5994,0.63466c-0.17629,0.2233 -0.26443,0.41722 -0.26443,0.58177zM202.29924,298.77478v1.18117h2.30944v-1.18117h-2.30944M198.31502,298.77478v1.18117h2.25655v-1.18117h-2.25655M194.38369,298.77478v1.18117h2.20366v-1.18117h-2.20366M192.5855,297.50547h13.92714v3.73741h-13.92714v-3.73741M191.82744,302.05383h15.1083v1.41035h-15.1083v-1.41035M198.4208,300.85504l1.95685,0.10578c-0.08227,0.6229 -0.18805,1.28341 -0.31732,1.98153c-0.12928,0.70048 -0.25269,1.30339 -0.37021,1.80876h-1.76293c0.07051,-0.34083 0.13868,-0.73456 0.2045,-1.18117c0.06347,-0.44661 0.12222,-0.90849 0.17629,-1.38566c0.05171,-0.47481 0.08932,-0.9179 0.11283,-1.32924M191.59827,311.4855h15.8311v1.33982h-15.8311v-1.33982M194.70102,306.16145h9.53745v0.98725h-9.53745v-0.98725M194.77154,307.92438h9.4493v0.96961h-9.4493v-0.96961M194.84205,309.70494h9.48456v0.98725h-9.48456v-0.98725M193.7314,304.25749h11.45904v7.96843h-1.8687v-6.80491h-7.79215v6.80491h-1.79819z" fill="#ffffff" fill-rule="nonzero" stroke-width="1" stroke-linecap="butt" stroke-linejoin="miter"/><path d="M138.91589,384.1591h16.99702v1.87384h-16.99702v-1.87384M139.48372,374.43029h15.956v1.85491h-15.956v-1.85491M143.49638,377.68585h7.81712v1.70349h-7.81712v-1.70349M143.49638,380.88462h7.81712v1.70349h-7.81712v-1.70349M142.22823,372.48075h2.00633v12.64365h-2.00633v-12.64365M150.51853,372.48075h2.06311v12.64365h-2.06311v-12.64365M148.49328,387.49037l1.43851,-1.24923c0.73187,0.23975 1.47005,0.50726 2.21453,0.80253c0.74449,0.29779 1.45112,0.59432 2.11989,0.88959c0.66877,0.29779 1.24292,0.57288 1.72241,0.82524l-1.93062,1.28708c-0.40379,-0.25236 -0.90853,-0.52745 -1.51421,-0.82524c-0.60569,-0.29527 -1.25553,-0.5918 -1.94954,-0.88959c-0.69402,-0.29527 -1.39433,-0.5754 -2.10097,-0.84039M144.61311,386.07079l1.72241,1.32494c-0.56782,0.32808 -1.2139,0.65868 -1.93819,0.99181c-0.72682,0.33565 -1.46878,0.65111 -2.22588,0.94638c-0.7571,0.29779 -1.47636,0.54765 -2.15775,0.74953c-0.15142,-0.21451 -0.35585,-0.47066 -0.61325,-0.76847c-0.25994,-0.29527 -0.49716,-0.54386 -0.71168,-0.74575c0.68139,-0.18928 1.39433,-0.42272 2.13882,-0.70033c0.74449,-0.27761 1.45112,-0.57413 2.11989,-0.88959c0.66877,-0.31546 1.22399,-0.6183 1.66564,-0.90853zM168.443,372.5186h1.91169v13.17363h-1.91169v-13.17363M161.98867,380.03287l11.28088,-4.39121l0.77603,1.76027l-11.28088,4.42907l-0.77603,-1.79813M164.31677,374.50601h2.00633v12.1894c0,0.37856 0.03533,0.65868 0.10599,0.84039c0.06814,0.18422 0.20947,0.31042 0.42398,0.37856c0.21451,0.07066 0.53628,0.10599 0.96531,0.10599c0.11356,0 0.30536,0 0.5754,0c0.27256,0 0.57919,0 0.91988,0c0.34069,0 0.6877,0 1.04102,0c0.35331,0 0.66877,0 0.94638,0c0.27761,0 0.48581,0 0.62461,0c0.37856,0 0.66625,-0.06941 0.86311,-0.2082c0.19432,-0.1388 0.33565,-0.40127 0.42398,-0.78739c0.08833,-0.3836 0.15772,-0.94133 0.2082,-1.6732c0.23975,0.16405 0.53628,0.32177 0.88959,0.47318c0.35331,0.15142 0.67508,0.26499 0.96531,0.34069c-0.10095,0.92115 -0.25615,1.64923 -0.46562,2.18425c-0.20694,0.53755 -0.5224,0.91988 -0.94638,1.14701c-0.42145,0.22713 -1.01704,0.34069 -1.78676,0.34069c-0.12618,0 -0.33691,0 -0.63219,0c-0.29779,0 -0.63975,0 -1.02587,0c-0.3836,0 -0.76216,0 -1.13566,0c-0.37098,0 -0.70537,0 -1.00316,0c-0.29527,0 -0.49969,0 -0.61325,0c-0.87067,0 -1.54954,-0.08833 -2.03662,-0.26499c-0.48455,-0.17666 -0.82524,-0.4959 -1.0221,-0.95773c-0.19432,-0.45931 -0.29148,-1.09906 -0.29148,-1.91927v-12.1894M172.58815,376.00129h-0.15142l0.37856,-0.28392l0.35962,-0.26499l1.38172,0.5489l-0.07571,0.32177c0,1.11043 -0.00631,2.1098 -0.01893,2.99814c-0.01262,0.89086 -0.03154,1.63913 -0.05679,2.24482c-0.02523,0.60569 -0.05679,1.04733 -0.09464,1.32494c-0.05048,0.46688 -0.17035,0.82272 -0.35962,1.06752c-0.18928,0.24732 -0.43533,0.43407 -0.73818,0.56026c-0.27761,0.11356 -0.61452,0.18297 -1.01073,0.2082c-0.39874,0.02523 -0.75584,0.03154 -1.07131,0.01893c-0.01262,-0.27761 -0.0631,-0.60317 -0.15142,-0.97667c-0.08833,-0.37098 -0.18928,-0.66373 -0.30284,-0.87824c0.22713,0.01262 0.46436,0.01893 0.71168,0.01893c0.2448,0 0.42398,0 0.53755,0c0.1388,0 0.24858,-0.02902 0.32934,-0.08706c0.08328,-0.05552 0.15016,-0.18422 0.20063,-0.38612c0.02523,-0.16405 0.04795,-0.50221 0.06814,-1.01452c0.01767,-0.50978 0.03281,-1.21642 0.04543,-2.11989c0.01262,-0.90096 0.01893,-2.00128 0.01893,-3.30098M161.5912,372.5186l1.87384,0.58676c-0.40379,1.05995 -0.88329,2.12242 -1.43851,3.18742c-0.55521,1.06752 -1.15459,2.07068 -1.79813,3.00949c-0.64354,0.94133 -1.306,1.77162 -1.9874,2.49088c-0.0631,-0.15142 -0.15772,-0.3571 -0.28392,-0.61704c-0.12618,-0.25742 -0.26246,-0.51861 -0.40883,-0.7836c-0.14385,-0.26499 -0.27256,-0.47949 -0.38612,-0.64354c0.59307,-0.58045 1.16342,-1.25932 1.71106,-2.03662c0.55017,-0.77477 1.05868,-1.6038 1.52557,-2.48709c0.46688,-0.88329 0.86436,-1.78551 1.19244,-2.70666M159.64165,377.648l1.9874,-1.9874l0.01893,0.01893v14.40393h-2.00633z" fill="#ffffff" fill-rule="nonzero" stroke-width="1" stroke-linecap="butt" stroke-linejoin="miter"/></g></g></svg>