<svg version="1.1" xmlns="http://www.w3.org/2000/svg" xmlns:xlink="http://www.w3.org/1999/xlink" width="208" height="32" viewBox="0,0,208,32"><g transform="translate(-240,-164)"><g stroke="none" stroke-miterlimit="10"><path d="M243.2438,179.67927h11.05788v1.56253h-8.91441v8.15318h-2.14346v-9.71571M253.66064,179.67927h2.1635v7.57225c0,0.5342 -0.07345,0.93084 -0.22036,1.18993c-0.14691,0.26175 -0.41401,0.46608 -0.8013,0.61299c-0.38729,0.13355 -0.87875,0.20967 -1.47438,0.22837c-0.59296,0.02137 -1.29676,0.03205 -2.11141,0.03205c-0.05342,-0.25375 -0.14424,-0.54087 -0.27244,-0.86139c-0.12554,-0.32052 -0.25508,-0.60765 -0.38863,-0.86139c0.34723,0.01335 0.70381,0.0227 1.06973,0.02804c0.36859,0.00802 0.69713,0.01202 0.98559,0.01202c0.2858,0 0.48211,0 0.58895,0c0.17362,-0.01335 0.29381,-0.04674 0.36058,-0.10016c0.06678,-0.05342 0.10016,-0.15358 0.10016,-0.30049v-7.55222M244.58597,182.28348h9.69568v1.4223h-9.69568v-1.4223M240.59952,177.05503h17.7487v1.62262h-17.7487v-1.62262M241.84153,171.76647h15.46501v1.64265h-15.46501v-1.64265M242.58273,174.43078h13.86241v1.5425h-13.86241v-1.5425M244.58597,184.78753h9.73574v1.4223h-9.73574v-1.4223M248.31199,170.66469h2.20356v7.47208h-2.20356zM261.53337,172.74806h16.06598v1.90308h-16.06598v-1.90308M260.43159,181.1817h8.19325v1.86302h-8.19325v-1.86302M269.30593,181.1817h9.3351v1.86302h-9.3351v-1.86302M268.32435,170.62463h2.1635v8.99454h-2.1635v-8.99454M263.89719,178.93807h2.02327v10.43688h-2.02327v-10.43688M272.57122,178.93807h2.04331v10.43688h-2.04331v-10.43688M267.66328,173.14871l1.76285,0.68111c-0.54755,0.84136 -1.21263,1.6293 -1.99523,2.36382c-0.77992,0.73452 -1.63732,1.38491 -2.57216,1.95116c-0.93484,0.56892 -1.8964,1.04034 -2.88466,1.41428c-0.13355,-0.25375 -0.32987,-0.54488 -0.58895,-0.87341c-0.26175,-0.32586 -0.50615,-0.58895 -0.73318,-0.78928c0.9482,-0.28045 1.86969,-0.66108 2.76447,-1.14185c0.89478,-0.48077 1.70944,-1.03233 2.44396,-1.65467c0.73452,-0.61967 1.33549,-1.27006 1.80291,-1.95115M270.98866,173.14871c0.50748,0.66774 1.1552,1.2981 1.94314,1.89106c0.78794,0.59563 1.65868,1.12315 2.61222,1.58256c0.95621,0.46208 1.93513,0.82667 2.93675,1.09377c-0.14691,0.14691 -0.30984,0.32319 -0.48879,0.52885c-0.18163,0.20834 -0.34857,0.42202 -0.50081,0.64104c-0.15492,0.22169 -0.2858,0.42602 -0.39263,0.61299c-1.01497,-0.36058 -2.00324,-0.82534 -2.9648,-1.39426c-0.96155,-0.56625 -1.84966,-1.21663 -2.66431,-1.95115c-0.81465,-0.73452 -1.5091,-1.52246 -2.08337,-2.36382l1.60259,-0.64104M272.17057,181.58235l1.56253,0.44071c-0.32052,0.89478 -0.71849,1.75884 -1.19393,2.59219c-0.47276,0.83602 -0.99895,1.59458 -1.57856,2.27568c-0.58227,0.6811 -1.21396,1.24201 -1.89506,1.68272c-0.16026,-0.24039 -0.36726,-0.51416 -0.621,-0.82133c-0.25374,-0.30716 -0.48745,-0.54755 -0.70113,-0.72116c0.62768,-0.36058 1.22865,-0.82801 1.80292,-1.40227c0.57427,-0.57426 1.08575,-1.20595 1.53448,-1.89506c0.44606,-0.68644 0.8093,-1.4036 1.08976,-2.15148M274.89497,181.8027c0.32052,0.64103 0.70781,1.27806 1.16188,1.91109c0.45407,0.63569 0.95087,1.22064 1.49041,1.75484c0.54221,0.5342 1.08041,0.98159 1.61461,1.34217c-0.22704,0.20032 -0.49013,0.46342 -0.78928,0.78928c-0.30182,0.32853 -0.53954,0.63302 -0.71315,0.91348c-0.5342,-0.45407 -1.05504,-1.01898 -1.56252,-1.69474c-0.50748,-0.67309 -0.98158,-1.40361 -1.4223,-2.19155c-0.44072,-0.78794 -0.80797,-1.58256 -1.10178,-2.38385l1.32214,-0.44071M263.777,181.7426l1.44233,0.54087c-0.30716,0.8013 -0.67843,1.59591 -1.1138,2.38385c-0.4327,0.78794 -0.91615,1.5051 -1.45035,2.15148c-0.5342,0.64905 -1.11514,1.18057 -1.74282,1.59458c-0.09348,-0.29381 -0.23371,-0.63169 -0.42068,-1.01364c-0.18697,-0.37928 -0.36058,-0.70915 -0.52084,-0.9896c0.5342,-0.33388 1.04435,-0.74787 1.53047,-1.24201c0.48879,-0.49413 0.92684,-1.03901 1.31413,-1.63464c0.38729,-0.59296 0.70781,-1.18993 0.96155,-1.7909M265.64,183.225c0.14691,0.08013 0.3646,0.21367 0.65306,0.40064c0.2858,0.18697 0.58895,0.38729 0.90947,0.60098c0.32052,0.21368 0.61834,0.414 0.89344,0.60097c0.27244,0.18697 0.46208,0.3272 0.56892,0.42068l-1.24201,1.58256c-0.16026,-0.17362 -0.36459,-0.38462 -0.61299,-0.63303c-0.24573,-0.24573 -0.51283,-0.49947 -0.8013,-0.76123c-0.2858,-0.25908 -0.56224,-0.50615 -0.82934,-0.7412c-0.2671,-0.23237 -0.49413,-0.42202 -0.6811,-0.56892zM280.54411,181.70254h17.98909v1.94314h-17.98909v-1.94314M284.53055,175.01172h9.97613v1.76285h-9.97613v-1.76285M284.55059,178.3371h9.99616v1.74282h-9.99616v-1.74282M283.64913,171.60621h12.23979v10.97776h-2.1635v-9.17484h-7.99293v9.17484h-2.08337v-10.97776M291.58196,184.40691l1.82295,-0.8013c0.57427,0.45407 1.16589,0.96823 1.77487,1.5425c0.60631,0.57426 1.1739,1.13784 1.70275,1.69073c0.52618,0.55557 0.9629,1.04702 1.31012,1.47438l-1.88305,0.98159c-0.33387,-0.45407 -0.7639,-0.97224 -1.29009,-1.55452c-0.52886,-0.5796 -1.09377,-1.16321 -1.69474,-1.75083c-0.60097,-0.58761 -1.18191,-1.11514 -1.74282,-1.58256M282.32699,188.87414c-0.04007,-0.16026 -0.10016,-0.36059 -0.18029,-0.60098c-0.08013,-0.24039 -0.16026,-0.49146 -0.24039,-0.75321c-0.08013,-0.25908 -0.16694,-0.48211 -0.26042,-0.66908c0.22704,-0.05342 0.45407,-0.14424 0.6811,-0.27244c0.22704,-0.12554 0.4741,-0.29514 0.7412,-0.50882c0.20033,-0.13355 0.49813,-0.37394 0.89344,-0.72117c0.39263,-0.34723 0.82934,-0.76791 1.31012,-1.26205c0.48077,-0.49413 0.92149,-1.01497 1.32214,-1.56252l2.20356,0.84136c-0.77459,0.86807 -1.59859,1.69207 -2.472,2.472c-0.87608,0.7826 -1.72145,1.44099 -2.5361,1.97519v0.04007c0,0 -0.07346,0.03339 -0.22036,0.10016c-0.14691,0.06678 -0.31651,0.14957 -0.50882,0.2484c-0.19498,0.1015 -0.36593,0.21234 -0.51283,0.33254c-0.14691,0.12019 -0.22035,0.23371 -0.22035,0.34055M282.32699,188.87414l-0.02004,-1.4824l1.28207,-0.70113l11.59876,-0.46075c0.04007,0.2671 0.10016,0.56357 0.18029,0.88943c0.08013,0.32853 0.14023,0.59296 0.1803,0.79328c-1.84298,0.09348 -3.43221,0.17629 -4.76771,0.2484c-1.33549,0.07478 -2.46398,0.13889 -3.38547,0.19231c-0.92149,0.05342 -1.67872,0.10017 -2.27168,0.14023c-0.59563,0.04006 -1.06973,0.07613 -1.4223,0.10818c-0.35524,0.03472 -0.63569,0.07211 -0.84136,0.11218c-0.20833,0.04006 -0.38595,0.09348 -0.53286,0.16026zM302.76003,171.92673h13.74222v17.16776h-2.30372v-15.00426h-9.2149v15.04433h-2.2236v-17.20783M304.26246,178.69768h10.89762v2.12343h-10.89762v-2.12343M304.24243,185.66895h10.93768v2.1635h-10.93768zM320.78918,174.65114h17.66857v2.18353h-17.66857v-2.18353M324.11456,183.70578h10.91765v2.18353h-10.91765v-2.18353M328.44156,170.68472h2.28369v18.69022h-2.28369v-18.69022M326.59858,175.4324l1.96318,0.5609c-0.48077,1.41563 -1.06439,2.76714 -1.75083,4.05455c-0.68912,1.29009 -1.46103,2.46932 -2.31574,3.53772c-0.85471,1.0684 -1.77621,1.98321 -2.76447,2.74444c-0.1202,-0.18697 -0.27378,-0.38729 -0.46074,-0.60097c-0.18697,-0.21368 -0.38061,-0.42469 -0.58094,-0.63303c-0.20033,-0.20567 -0.38062,-0.37527 -0.54088,-0.50883c0.93484,-0.62768 1.8136,-1.4263 2.63626,-2.39587c0.81999,-0.96689 1.55719,-2.03128 2.21158,-3.19316c0.65439,-1.16188 1.18858,-2.35046 1.60259,-3.56576M332.52816,175.4925c0.414,1.18859 0.94553,2.34379 1.59458,3.46561c0.64638,1.12181 1.39025,2.15015 2.23161,3.08499c0.84136,0.93484 1.72946,1.70943 2.66431,2.32376c-0.17361,0.14691 -0.36993,0.32987 -0.58895,0.54889c-0.22169,0.22169 -0.4287,0.44872 -0.62101,0.6811c-0.19498,0.23505 -0.35924,0.45273 -0.4928,0.65305c-0.98827,-0.73452 -1.89907,-1.6293 -2.73242,-2.68434c-0.83602,-1.05504 -1.59057,-2.22761 -2.26366,-3.51769c-0.67576,-1.28742 -1.25403,-2.61889 -1.7348,-3.99445zM347.89301,176.1736h2.00324c-0.09348,0.84136 -0.19365,1.72545 -0.30049,2.65229c-0.10684,0.92951 -0.22303,1.85099 -0.34857,2.76447c-0.1282,0.91615 -0.24974,1.78422 -0.36459,2.60421c-0.11218,0.82267 -0.22169,1.54784 -0.32853,2.17552h-2.08337c0.13355,-0.65439 0.2671,-1.3996 0.40065,-2.23561c0.13355,-0.83335 0.26443,-1.7081 0.39263,-2.62425c0.12554,-0.91348 0.24173,-1.82829 0.34857,-2.74443c0.10684,-0.91348 0.20032,-1.77755 0.28045,-2.5922M350.89787,178.49736l1.12181,-0.72116c0.36059,0.28045 0.73453,0.60764 1.12182,0.98158c0.38729,0.37394 0.68777,0.70113 0.90145,0.98159l-1.18191,0.82133c-0.18697,-0.29381 -0.47143,-0.63836 -0.85338,-1.03367c-0.37928,-0.39264 -0.74921,-0.73585 -1.10979,-1.02966M350.35699,182.64406l1.18191,-0.7412c0.40065,0.30716 0.81732,0.66107 1.25002,1.06172c0.43537,0.40065 0.77325,0.76122 1.01364,1.08174l-1.22198,0.84136c-0.22704,-0.30716 -0.55423,-0.67443 -0.98158,-1.10178c-0.42735,-0.42736 -0.84136,-0.80797 -1.24201,-1.14185M348.17346,172.74806h10.35675v1.94314h-10.35675v-1.94314M348.73437,176.1736h7.63234v1.84298h-7.63234v-1.84298M345.36893,180.18008h13.68212v1.94315h-13.68212v-1.94315M347.55246,184.52711h10.97775v1.84298h-10.97775v-1.84298M348.29366,170.64466l2.08337,0.54087c-0.2671,0.828 -0.59162,1.65201 -0.97357,2.472c-0.37928,0.82267 -0.7826,1.59458 -1.20996,2.31574c-0.42735,0.72117 -0.86139,1.35553 -1.30211,1.90308c-0.13355,-0.12019 -0.31651,-0.25374 -0.54889,-0.40064c-0.23505,-0.14691 -0.46608,-0.29381 -0.69312,-0.44072c-0.22704,-0.14691 -0.42736,-0.2671 -0.60098,-0.36058c0.45407,-0.48077 0.88543,-1.04569 1.29409,-1.69474c0.40599,-0.64638 0.77592,-1.34083 1.1098,-2.08337c0.33387,-0.73986 0.61433,-1.49041 0.84136,-2.25164M355.74571,176.1736h2.00324c0,0 -0.00267,0.0601 -0.00802,0.1803c-0.00802,0.12019 -0.01202,0.24973 -0.01202,0.38862c0,0.14157 -0.00667,0.25909 -0.02003,0.35257c-0.08013,1.90975 -0.16026,3.52837 -0.24039,4.85585c-0.08013,1.33015 -0.17094,2.42258 -0.27244,3.2773c-0.09882,0.85471 -0.21101,1.52247 -0.33655,2.00324c-0.1282,0.48077 -0.27912,0.828 -0.45273,1.04168c-0.22704,0.30716 -0.46475,0.51684 -0.71315,0.62902c-0.24573,0.11485 -0.52886,0.19899 -0.84938,0.25241c-0.29381,0.04006 -0.66774,0.0601 -1.12181,0.0601c-0.45407,0 -0.92817,-0.01335 -1.4223,-0.04006c-0.01335,-0.2671 -0.06678,-0.56759 -0.16026,-0.90146c-0.09348,-0.33388 -0.22036,-0.62768 -0.38062,-0.88142c0.46742,0.04006 0.89478,0.06678 1.28207,0.08013c0.38729,0.01335 0.67442,0.02003 0.86139,0.02003c0.17361,0 0.31384,-0.02404 0.42068,-0.07212c0.10684,-0.0454 0.21368,-0.12821 0.32052,-0.2484c0.13355,-0.14691 0.25374,-0.44472 0.36058,-0.89344c0.10684,-0.44606 0.207,-1.08041 0.30048,-1.90308c0.09348,-0.81999 0.17762,-1.86836 0.25241,-3.14509c0.07211,-1.27406 0.13488,-2.81922 0.18831,-4.63549v-0.42068M341.48264,172.42754l1.20195,-1.46237c0.38729,0.17362 0.8053,0.38062 1.25403,0.62101c0.44606,0.24039 0.87341,0.48745 1.28207,0.7412c0.40599,0.25375 0.73586,0.48745 0.9896,0.70113l-1.26204,1.62262c-0.24039,-0.21368 -0.55823,-0.45808 -0.95354,-0.73319c-0.39263,-0.27244 -0.81198,-0.53954 -1.25804,-0.80129c-0.44873,-0.25908 -0.86674,-0.48879 -1.25403,-0.68912M340.36083,178.15681l1.16187,-1.44233c0.38729,0.17362 0.79195,0.37661 1.21397,0.60898c0.41935,0.23505 0.82,0.47277 1.20195,0.71316c0.37928,0.24039 0.68911,0.46742 0.9295,0.6811l-1.24201,1.64265c-0.21368,-0.22704 -0.50748,-0.4741 -0.88142,-0.7412c-0.37394,-0.2671 -0.77192,-0.52752 -1.19393,-0.78126c-0.41935,-0.25375 -0.81598,-0.48078 -1.18992,-0.6811M340.92174,187.87252c0.2671,-0.52084 0.56491,-1.13517 0.89344,-1.84298c0.32586,-0.70781 0.65305,-1.46237 0.98158,-2.26366c0.32586,-0.8013 0.62901,-1.58924 0.90947,-2.36382l1.64266,1.16188c-0.24039,0.70781 -0.50349,1.43565 -0.78928,2.18353c-0.28846,0.74787 -0.58361,1.48908 -0.88543,2.2236c-0.29915,0.73452 -0.59563,1.4223 -0.88944,2.06334zM367.46466,180.54066h10.13639v8.77418h-2.1635v-6.79098h-5.88952v6.87111h-2.08337v-8.85431M368.68663,186.26993h7.75254v2.00323h-7.75254v-2.00323M369.16741,171.60621h6.14995v2.00324h-6.14995v-2.00324M368.46628,171.60621h2.08337v2.30372c0,0.73452 -0.09616,1.5051 -0.28847,2.31174c-0.19498,0.80931 -0.5569,1.5879 -1.08576,2.33577c-0.52618,0.74787 -1.29676,1.40227 -2.31174,1.96318c-0.06678,-0.14691 -0.19097,-0.32719 -0.3726,-0.54087c-0.17895,-0.21368 -0.36192,-0.42468 -0.54889,-0.63302c-0.18697,-0.20567 -0.34722,-0.36192 -0.48077,-0.46876c0.88142,-0.46742 1.53582,-0.9856 1.96318,-1.55452c0.42735,-0.56625 0.70781,-1.14986 0.84136,-1.75083c0.13355,-0.60097 0.20033,-1.17523 0.20033,-1.72278v-2.24363M374.27567,171.60621h2.10341v5.42878c0,0.30716 0.01602,0.52752 0.04807,0.66107c0.03472,0.13355 0.12554,0.20033 0.27244,0.20033c0.08013,0 0.18029,0 0.30048,0c0.1202,0 0.2444,0 0.37261,0c0.12554,0 0.22837,0 0.3085,0c0.13355,0 0.30316,-0.01069 0.50882,-0.03206c0.20833,-0.0187 0.37928,-0.04807 0.51283,-0.08814c0.01335,0.2671 0.02938,0.55022 0.04808,0.84937c0.02137,0.30182 0.05208,0.5796 0.09215,0.83335c-0.13355,0.05342 -0.30449,0.08948 -0.51283,0.10817c-0.20567,0.02137 -0.40866,0.03205 -0.60898,0.03205c-0.10684,0 -0.2444,0 -0.41267,0c-0.1656,0 -0.33254,0 -0.50081,0c-0.1656,0 -0.30182,0 -0.40866,0c-0.58762,0 -1.035,-0.09348 -1.34217,-0.28045c-0.30716,-0.18697 -0.51417,-0.4741 -0.62101,-0.86139c-0.10684,-0.38729 -0.16026,-0.87475 -0.16026,-1.46237v-5.38871M361.25461,172.50767l1.3622,-1.38223c0.414,0.21368 0.85872,0.46341 1.33416,0.74921c0.47276,0.28847 0.92283,0.5756 1.35019,0.8614c0.42735,0.28847 0.78126,0.55957 1.06171,0.81331l-1.44233,1.5425c-0.25374,-0.25375 -0.58762,-0.53419 -1.00162,-0.84136c-0.414,-0.30716 -0.85472,-0.61433 -1.32214,-0.92149c-0.46742,-0.30716 -0.91482,-0.58094 -1.34217,-0.82133M360.21293,177.93645l1.34217,-1.40227c0.414,0.20032 0.85471,0.43003 1.32214,0.68912c0.46742,0.26175 0.92149,0.52885 1.36221,0.80129c0.44072,0.27511 0.80129,0.52618 1.08175,0.75322l-1.4223,1.56253c-0.2671,-0.24039 -0.60765,-0.50482 -1.02166,-0.79328c-0.414,-0.2858 -0.85739,-0.57292 -1.33015,-0.86139c-0.47544,-0.2858 -0.92015,-0.53553 -1.33416,-0.74921M360.69371,187.6121c0.37394,-0.49413 0.79462,-1.08175 1.26204,-1.76285c0.46742,-0.6811 0.94419,-1.40895 1.43032,-2.18354c0.48879,-0.77459 0.94687,-1.54249 1.37422,-2.30372l1.56252,1.5425c-0.37394,0.6811 -0.77859,1.38223 -1.21396,2.1034c-0.4327,0.72117 -0.86674,1.43566 -1.3021,2.14347c-0.4327,0.70781 -0.8694,1.38224 -1.31012,2.02327zM382.00817,176.95486h2.14346v3.82619c0,0.62768 -0.03071,1.30478 -0.09215,2.03128c-0.05876,0.72918 -0.1656,1.47037 -0.32052,2.22359c-0.15224,0.75589 -0.37527,1.48373 -0.66908,2.18354c-0.29381,0.70247 -0.67442,1.33416 -1.14184,1.89506c-0.10684,-0.14691 -0.26709,-0.31116 -0.48077,-0.4928c-0.21368,-0.17896 -0.43671,-0.35257 -0.66908,-0.52084c-0.23505,-0.1656 -0.4327,-0.28847 -0.59296,-0.3686c0.5609,-0.6811 0.96823,-1.42897 1.22198,-2.24362c0.25374,-0.81465 0.41667,-1.63331 0.48879,-2.45597c0.07479,-0.81999 0.11218,-1.5839 0.11218,-2.29171v-3.78612M383.19008,176.95486h15.32478v1.90308h-15.32478v-1.90308M385.49381,180.11998h12.35998v1.82295h-12.35998v-1.82295M384.57232,183.62565h14.24303v1.90308h-14.24303v-1.90308M390.42178,180.68089h2.26366v8.69406h-2.26366v-8.69406M382.06827,171.40589h2.18354v2.38386h11.03785v-2.38386h2.26366v4.28693h-15.48504v-4.28693M388.5788,170.66469h2.28369v4.02651h-2.28369z" fill="#ffffff" stroke-width="1"/><path d="M240,196v-32h208v32z" fill="none" stroke-width="0"/></g></g></svg>