<svg version="1.1" xmlns="http://www.w3.org/2000/svg" xmlns:xlink="http://www.w3.org/1999/xlink" width="59.17157" height="19.43128" viewBox="0,0,59.17157,19.43128"><g transform="translate(-240.14329,-169.89953)"><g fill="#ffffff" stroke="none" stroke-miterlimit="10"><path d="M242.18997,177.12689h6.32244v2.14756h-6.32244v-2.14756M255.72648,171.4689h2.18854v12.22457c0,0.55066 -0.06079,1.0077 -0.18238,1.37113c-0.12159,0.36619 -0.37151,0.64565 -0.74978,0.83837c-0.36476,0.19273 -0.80652,0.31663 -1.32528,0.37169c-0.52147,0.05507 -1.1402,0.0826 -1.8562,0.0826c-0.02702,-0.22026 -0.08376,-0.47494 -0.17022,-0.76404c-0.08916,-0.28909 -0.19048,-0.57544 -0.30396,-0.85902c-0.11618,-0.28083 -0.22831,-0.5245 -0.33639,-0.731c0.49985,0.01377 0.97674,0.0234 1.43066,0.02891c0.45122,0.00826 0.75788,0.01239 0.92,0.01239c0.1486,-0.01377 0.24992,-0.04818 0.30396,-0.10325c0.05404,-0.05507 0.08106,-0.15831 0.08106,-0.30974v-12.16262M249.78906,171.4689h7.13301v2.18886h-4.94447v15.63175h-2.18854v-17.82061M247.07365,170.49837l1.66167,1.79652c-0.67547,0.27533 -1.40499,0.53276 -2.18854,0.7723c-0.78355,0.24229 -1.57656,0.46255 -2.37902,0.66079c-0.80516,0.20099 -1.58601,0.3772 -2.34255,0.52863c-0.05404,-0.2478 -0.1486,-0.5479 -0.2837,-0.90032c-0.1351,-0.34967 -0.26344,-0.64152 -0.38502,-0.87554c0.70249,-0.1652 1.4185,-0.35517 2.14801,-0.56993c0.72951,-0.212 1.4185,-0.43915 2.06695,-0.68144c0.64846,-0.23954 1.21585,-0.4832 1.7022,-0.731M241.1565,172.48073h2.2088v12.72016l-2.33039,1.79652c-0.04053,-0.17896 -0.10808,-0.41712 -0.20264,-0.71448c-0.09457,-0.2946 -0.20264,-0.59058 -0.32423,-0.88793c-0.12159,-0.2946 -0.24317,-0.53827 -0.36476,-0.731c0.22966,-0.09637 0.45527,-0.26156 0.67683,-0.49559c0.22426,-0.23403 0.33639,-0.55066 0.33639,-0.94988v-10.7378M241.03491,186.99741l-0.16211,-1.98236l1.074,-0.76404l6.52508,-1.42482c-0.01351,0.33039 -0.00675,0.6952 0.02026,1.09443c0.02702,0.39923 0.06079,0.72962 0.10132,0.99118c-1.20234,0.27533 -2.21556,0.51624 -3.03964,0.72274c-0.82408,0.2065 -1.50361,0.38133 -2.03858,0.5245c-0.53227,0.14592 -0.95647,0.26707 -1.27259,0.36343c-0.31882,0.09637 -0.5701,0.18172 -0.75383,0.25606c-0.18103,0.07709 -0.33233,0.15005 -0.45392,0.21889zM264.41984,175.94987h14.1647v1.75522h-14.1647v-1.75522M264.60222,181.9589h11.26692v1.75522h-11.26692v-1.75522M267.29736,174.46309h2.06695v4.85266h4.05285v-4.85266h2.12774v6.54593h-8.24754v-6.54593M275.30174,181.9589h0.42555l0.38502,-0.0826l1.3577,0.72274c-0.55389,1.07378 -1.27665,1.992 -2.16827,2.75466c-0.89163,0.76541 -1.90484,1.4028 -3.03964,1.91215c-1.1348,0.50936 -2.35741,0.91547 -3.66783,1.21833c-1.31042,0.30286 -2.67488,0.53689 -4.09338,0.70209c-0.08106,-0.26156 -0.20534,-0.57544 -0.37286,-0.94162c-0.17022,-0.36343 -0.34314,-0.66905 -0.51876,-0.91684c1.29691,-0.09637 2.55329,-0.26569 3.76915,-0.50798c1.21585,-0.23954 2.34119,-0.55892 3.37602,-0.95814c1.03212,-0.39923 1.93996,-0.89895 2.72351,-1.49916c0.78355,-0.59746 1.39148,-1.3023 1.82378,-2.11452v-0.28909M267.98635,183.30113c0.66197,0.79845 1.54413,1.47989 2.64651,2.04431c1.09967,0.56442 2.37227,1.01458 3.81778,1.35048c1.44551,0.33865 2.99911,0.56993 4.66077,0.69383c-0.1486,0.15143 -0.30396,0.34416 -0.46608,0.57819c-0.16211,0.23403 -0.31342,0.46806 -0.45392,0.70209c-0.1432,0.23403 -0.25533,0.44741 -0.33639,0.64014c-1.72921,-0.17896 -3.33279,-0.48595 -4.81073,-0.92097c-1.48064,-0.43226 -2.80187,-1.01045 -3.96368,-1.73457c-1.16182,-0.72136 -2.14801,-1.59828 -2.95858,-2.63076l1.86431,-0.72274M262.83923,171.90254h15.94795v2.06496h-15.94795v-2.06496M261.82602,171.90254h2.14801v5.53409c0,0.85352 -0.02297,1.79239 -0.0689,2.81661c-0.04863,1.02697 -0.1405,2.07735 -0.27559,3.15113c-0.1351,1.07378 -0.33098,2.11314 -0.58766,3.11809c-0.25668,1.00495 -0.59442,1.9273 -1.01321,2.76705c-0.1486,-0.11013 -0.34449,-0.22715 -0.58766,-0.35104c-0.24317,-0.1239 -0.48904,-0.24504 -0.73762,-0.36343c-0.25128,-0.11564 -0.47148,-0.19411 -0.66061,-0.23541c0.40528,-0.79845 0.72951,-1.66298 0.97268,-2.59359c0.24317,-0.92785 0.42285,-1.88049 0.53903,-2.85791c0.11348,-0.97741 0.18778,-1.93143 0.22291,-2.86204c0.03242,-0.92785 0.04863,-1.78413 0.04863,-2.56881v-5.55474M268.9185,170.41577l2.18854,-0.51624c0.22966,0.44052 0.44311,0.92235 0.64035,1.44547c0.19454,0.52312 0.33233,0.97053 0.41339,1.34222l-2.33039,0.57819c-0.05404,-0.38546 -0.16887,-0.84663 -0.34449,-1.38352c-0.17562,-0.53689 -0.36476,-1.0256 -0.5674,-1.46612zM286.26469,182.74359h13.05017v2.10626h-13.05017v-2.10626M286.89288,173.84361h11.99643v2.08561h-11.99643v-2.08561M287.5616,178.28327h10.61846v2.06496h-10.61846v-2.06496M291.65498,175.18583h2.24933v14.14498h-2.24933v-14.14498M287.94662,170.78746l1.9251,-0.78469c0.37827,0.52312 0.74708,1.09718 1.10643,1.72218c0.35665,0.62775 0.60252,1.18253 0.73762,1.66436l-2.04669,0.86728c-0.08106,-0.31663 -0.2121,-0.67455 -0.39313,-1.07378c-0.18373,-0.39923 -0.39042,-0.81222 -0.62009,-1.23898c-0.22966,-0.42676 -0.46608,-0.81222 -0.70925,-1.15638M295.54571,170.00278l2.14801,0.64014c-0.24317,0.49559 -0.4931,0.99806 -0.74978,1.50742c-0.25668,0.50936 -0.51336,0.99118 -0.77004,1.44547c-0.25668,0.45429 -0.49985,0.85352 -0.72951,1.19768l-1.80352,-0.59884c0.22966,-0.38546 0.46202,-0.8191 0.69709,-1.30093c0.23777,-0.48182 0.46473,-0.97741 0.68088,-1.48677c0.21615,-0.50936 0.39177,-0.97741 0.52687,-1.40417M281.29995,172.00579l1.27665,-1.54872c0.4323,0.22026 0.89163,0.47769 1.37797,0.7723c0.48634,0.29735 0.95242,0.59746 1.39823,0.90032c0.44581,0.30286 0.80382,0.58507 1.074,0.84663l-1.3577,1.73457c-0.25668,-0.27533 -0.60117,-0.57544 -1.03348,-0.90032c-0.4323,-0.32213 -0.88893,-0.64565 -1.36986,-0.97053c-0.47824,-0.32213 -0.93351,-0.60022 -1.36581,-0.83424M280.3678,177.31274l1.23612,-1.59002c0.4323,0.2065 0.89838,0.44741 1.39823,0.72274c0.49985,0.27533 0.97674,0.55341 1.43066,0.83424c0.45122,0.28359 0.81868,0.54928 1.10237,0.79707l-1.29691,1.77587c-0.27019,-0.2478 -0.62549,-0.52312 -1.0659,-0.82598c-0.43771,-0.30286 -0.90243,-0.60572 -1.39418,-0.90858c-0.49445,-0.30286 -0.96458,-0.57131 -1.41039,-0.80533M280.79334,187.493c0.32423,-0.55066 0.67818,-1.19492 1.06185,-1.9328c0.38637,-0.73513 0.77545,-1.51981 1.16722,-2.35406c0.39177,-0.83149 0.75653,-1.65335 1.09427,-2.46556l1.72246,1.34222c-0.29721,0.74339 -0.61738,1.50329 -0.96052,2.27972c-0.34584,0.77918 -0.69709,1.54734 -1.05374,2.3045c-0.35935,0.75715 -0.71465,1.47989 -1.0659,2.16821z"/></g></g></svg>