<svg version="1.1" xmlns="http://www.w3.org/2000/svg" xmlns:xlink="http://www.w3.org/1999/xlink" width="208" height="32" viewBox="0,0,208,32"><g transform="translate(-236.82631,-164)"><g stroke="none" stroke-miterlimit="10"><path d="M236.82631,196l208,-32v32z" fill="none" stroke-width="0"/><path d="" fill="#ffffff" stroke-width="1"/><path d="" fill="#ffffff" stroke-width="1"/><path d="" fill="#ffffff" stroke-width="1"/><path d="" fill="#ffffff" stroke-width="1"/><path d="" fill="#ffffff" stroke-width="1"/><path d="M241.1127,175.03986h5.85462v2.11637h-5.85462v-2.11637M250.84403,170.60934h2.21526v14.37943c0,0.54063 0.05275,0.88347 0.15823,1.02851c0.10549,0.14505 0.34943,0.21757 0.73183,0.21757c0.07912,0 0.22416,0 0.43514,0c0.21098,0 0.44173,0 0.69227,0c0.25054,0 0.48129,0 0.69227,0c0.21098,0 0.36921,0 0.4747,0c0.26372,0 0.46547,-0.11208 0.60524,-0.33625c0.13713,-0.22416 0.23867,-0.6303 0.3046,-1.21839c0.06593,-0.58546 0.11867,-1.41223 0.15823,-2.4803c0.1846,0.13186 0.39558,0.26372 0.63293,0.39558c0.23735,0.13186 0.48129,0.24658 0.73183,0.34416c0.25054,0.10021 0.4747,0.17669 0.67249,0.22944c-0.06593,1.23949 -0.1912,2.23768 -0.3758,2.99456c-0.1846,0.75952 -0.47206,1.3107 -0.86237,1.65354c-0.38767,0.34284 -0.94412,0.51426 -1.66936,0.51426c-0.10549,0 -0.29009,0 -0.55382,0c-0.26372,0 -0.54986,0 -0.85841,0c-0.31119,0 -0.59205,0 -0.84259,0c-0.25054,0 -0.43514,0 -0.55382,0c-0.71205,0 -1.2685,-0.10285 -1.66936,-0.30855c-0.40349,-0.20307 -0.69095,-0.54854 -0.86237,-1.03643c-0.17142,-0.48789 -0.25713,-1.16697 -0.25713,-2.03725v-14.33987M245.91903,170.58956h2.21526v17.93967h-2.21526v-17.93967M257.37115,173.57621l1.52299,1.8988c-0.6593,0.46151 -1.36476,0.92303 -2.11637,1.38454c-0.75161,0.46151 -1.51904,0.90984 -2.30229,1.34498c-0.78589,0.43514 -1.55464,0.84391 -2.30625,1.22631c-0.07912,-0.23735 -0.20438,-0.51821 -0.3758,-0.84259c-0.17142,-0.32174 -0.33625,-0.59469 -0.49448,-0.81886c0.72524,-0.3824 1.45442,-0.8149 2.18757,-1.29751c0.73051,-0.47997 1.43201,-0.9705 2.1045,-1.47157c0.67249,-0.50107 1.26586,-0.97577 1.78012,-1.4241M240.44021,184.07892c0.54063,-0.17142 1.16433,-0.37976 1.87111,-0.62502c0.70414,-0.24262 1.45179,-0.50635 2.24295,-0.79117c0.79117,-0.28218 1.57574,-0.56832 2.35372,-0.85841l0.39558,1.91858c-1.00214,0.44833 -2.02011,0.89006 -3.0539,1.3252c-1.03643,0.43514 -1.98978,0.83072 -2.86006,1.18675zM267.91342,175.69257h1.97791c-0.0923,0.83072 -0.1912,1.70364 -0.29669,2.61876c-0.10549,0.91775 -0.22021,1.82759 -0.34416,2.72952c-0.12659,0.90456 -0.24658,1.76166 -0.35998,2.57129c-0.11076,0.81226 -0.21889,1.52827 -0.32438,2.14801h-2.05703c0.13186,-0.64612 0.26372,-1.3819 0.39558,-2.20735c0.13186,-0.82281 0.26108,-1.6865 0.38767,-2.59107c0.12395,-0.90193 0.23867,-1.80518 0.34416,-2.70974c0.10549,-0.90193 0.19779,-1.75507 0.27691,-2.55942M270.88029,177.98695l1.10763,-0.71205c0.35602,0.27691 0.72524,0.59997 1.10763,0.96918c0.3824,0.36921 0.67908,0.69227 0.89006,0.96918l-1.16697,0.81094c-0.1846,-0.29009 -0.46547,-0.6303 -0.84259,-1.0206c-0.37448,-0.38767 -0.73974,-0.72655 -1.09576,-1.01665M270.34625,182.08123l1.16697,-0.73183c0.39558,0.30328 0.80699,0.65271 1.23422,1.04829c0.42987,0.39558 0.76347,0.75161 1.00082,1.06807l-1.20653,0.83072c-0.22416,-0.30328 -0.54722,-0.6659 -0.96918,-1.08785c-0.42195,-0.42195 -0.83072,-0.79776 -1.22631,-1.12741M268.19033,172.31034h10.22581v1.91858h-10.22581v-1.91858M268.74414,175.69257h7.53585v1.81968h-7.53585v-1.81968M265.42125,179.6484h13.50914v1.91858h-13.50914v-1.91858M267.57718,183.94047h10.83896v1.81968h-10.83896v-1.81968M268.309,170.23353l2.05703,0.53404c-0.26372,0.81754 -0.58414,1.63112 -0.96127,2.44074c-0.37448,0.81226 -0.77271,1.57442 -1.19466,2.28647c-0.42195,0.71205 -0.8505,1.33839 -1.28564,1.87902c-0.13186,-0.11867 -0.31251,-0.25054 -0.54195,-0.39558c-0.23207,-0.14505 -0.4602,-0.29009 -0.68436,-0.43514c-0.22416,-0.14505 -0.42195,-0.26372 -0.59337,-0.35602c0.44833,-0.4747 0.87424,-1.03247 1.27773,-1.67331c0.40086,-0.63821 0.76611,-1.32388 1.09576,-2.05703c0.32965,-0.73051 0.60656,-1.47157 0.83072,-2.22317M275.66684,175.69257h1.97791c0,0 -0.00264,0.05934 -0.00791,0.17801c-0.00791,0.11867 -0.01187,0.24658 -0.01187,0.38372c0,0.13977 -0.00659,0.25581 -0.01978,0.34811c-0.07912,1.88561 -0.15823,3.48376 -0.23735,4.79446c-0.07912,1.31333 -0.16878,2.39196 -0.269,3.23587c-0.09758,0.84391 -0.20834,1.50321 -0.33229,1.97791c-0.12659,0.4747 -0.27559,0.81754 -0.44701,1.02851c-0.22416,0.30328 -0.45888,0.5103 -0.70414,0.62106c-0.24262,0.1134 -0.52217,0.19647 -0.83864,0.24922c-0.29009,0.03956 -0.6593,0.05934 -1.10763,0.05934c-0.44833,0 -0.91643,-0.01319 -1.40432,-0.03956c-0.01319,-0.26372 -0.06593,-0.56041 -0.15823,-0.89006c-0.0923,-0.32965 -0.21757,-0.61975 -0.3758,-0.87028c0.46151,0.03956 0.88347,0.06593 1.26586,0.07912c0.3824,0.01319 0.6659,0.01978 0.8505,0.01978c0.17142,0 0.30987,-0.02373 0.41536,-0.0712c0.10549,-0.04483 0.21098,-0.12659 0.31647,-0.24526c0.13186,-0.14505 0.25054,-0.4391 0.35602,-0.88215c0.10549,-0.44042 0.20438,-1.06675 0.29669,-1.87902c0.0923,-0.80963 0.17538,-1.84473 0.24922,-3.10532c0.0712,-1.25795 0.13318,-2.78358 0.18592,-4.57689v-0.41536M261.5841,171.99388l1.18675,-1.44388c0.3824,0.17142 0.7938,0.3758 1.23422,0.61315c0.44305,0.23735 0.86501,0.48129 1.26586,0.73183c0.40349,0.25054 0.73051,0.48129 0.98104,0.69227l-1.24609,1.60211c-0.23735,-0.21098 -0.55118,-0.45228 -0.94149,-0.72392c-0.38767,-0.269 -0.80303,-0.53272 -1.24609,-0.79117c-0.44042,-0.25581 -0.85182,-0.48261 -1.23422,-0.6804M260.47647,177.65071l1.14719,-1.4241c0.3824,0.17142 0.78062,0.37185 1.19466,0.60129c0.41668,0.23207 0.81226,0.46679 1.18675,0.70414c0.37712,0.23735 0.68436,0.46151 0.92171,0.67249l-1.22631,1.62189c-0.21098,-0.22416 -0.50107,-0.46811 -0.87028,-0.73183c-0.36921,-0.26372 -0.76084,-0.52085 -1.17488,-0.77139c-0.41668,-0.25054 -0.80963,-0.4747 -1.17884,-0.67249M261.03028,187.24359c0.26372,-0.51426 0.55645,-1.12082 0.87819,-1.81968c0.32438,-0.69886 0.64744,-1.44388 0.96918,-2.23504c0.32438,-0.79117 0.62502,-1.56914 0.90193,-2.33394l1.62189,1.14719c-0.23735,0.69886 -0.49711,1.4175 -0.7793,2.15593c-0.28482,0.73842 -0.57623,1.47025 -0.87424,2.19548c-0.29537,0.72524 -0.5881,1.40432 -0.87819,2.03725zM285.69486,172.68615h12.65864v1.72078h-12.65864v-1.72078M290.75831,173.45753l2.45261,0.15823c-0.19779,0.52744 -0.41932,1.0417 -0.66458,1.54277c-0.24262,0.50107 -0.46283,0.93621 -0.66062,1.30542l-1.72078,-0.27691c0.11867,-0.42195 0.23735,-0.88347 0.35602,-1.38454c0.11867,-0.50107 0.19779,-0.9494 0.23735,-1.34498M294.21966,170.25331l2.05703,0.57359c-0.32965,0.48789 -0.65535,0.96918 -0.97709,1.44388c-0.32438,0.4747 -0.62502,0.87687 -0.90193,1.20653l-1.68123,-0.53404c0.17142,-0.25054 0.35339,-0.53404 0.5459,-0.8505c0.18988,-0.31647 0.37053,-0.63689 0.54195,-0.96127c0.17142,-0.32174 0.30987,-0.61447 0.41536,-0.87819M287.49476,170.86647l1.78012,-0.75161c0.26372,0.31647 0.52349,0.67513 0.7793,1.07598c0.25845,0.40349 0.44701,0.75029 0.56568,1.04038l-1.87902,0.83072c-0.10549,-0.30328 -0.27691,-0.6593 -0.51426,-1.06807c-0.23735,-0.40877 -0.48129,-0.78457 -0.73183,-1.12741M284.94325,177.35402v7.95121h-2.03725v-5.99308h-2.45261v-1.95813h4.48986M280.51273,172.03344l1.64167,-1.02851c0.34284,0.31647 0.69886,0.6659 1.06807,1.04829c0.36921,0.3824 0.716,0.76479 1.04038,1.14719c0.32174,0.3824 0.57491,0.73183 0.75952,1.04829l-1.74056,1.16697c-0.17142,-0.30328 -0.41273,-0.65271 -0.72392,-1.04829c-0.30855,-0.39558 -0.64084,-0.79776 -0.99687,-1.20653c-0.35602,-0.40877 -0.70546,-0.78457 -1.04829,-1.12741M284.07297,184.65252c0.34284,0 0.67908,0.11208 1.00874,0.33625c0.32965,0.22416 0.77798,0.48129 1.34498,0.77139c0.6593,0.32965 1.43465,0.54722 2.32603,0.65271c0.88874,0.10549 1.86056,0.15823 2.91544,0.15823c0.69886,0 1.4742,-0.01714 2.32603,-0.05143c0.84918,-0.03165 1.68914,-0.08044 2.51986,-0.14637c0.83072,-0.06593 1.56255,-0.13845 2.19548,-0.21757c-0.07912,0.1846 -0.15823,0.39822 -0.23735,0.64084c-0.07912,0.24526 -0.15164,0.49316 -0.21757,0.7437c-0.06593,0.25054 -0.10549,0.4747 -0.11867,0.67249c-0.34284,0.01319 -0.78062,0.03297 -1.31333,0.05934c-0.53536,0.02637 -1.11554,0.05275 -1.74056,0.07912c-0.62766,0.02637 -1.24477,0.04615 -1.85133,0.05934c-0.60656,0.01319 -1.15378,0.01978 -1.64167,0.01978c-1.18675,0 -2.22185,-0.07252 -3.10532,-0.21757c-0.88347,-0.14505 -1.68782,-0.39558 -2.41305,-0.75161c-0.44833,-0.23735 -0.83732,-0.46811 -1.16697,-0.69227c-0.32965,-0.22416 -0.61975,-0.33625 -0.87028,-0.33625c-0.22416,0 -0.48129,0.10813 -0.77139,0.32438c-0.29009,0.21889 -0.59733,0.50239 -0.92171,0.8505c-0.32174,0.35075 -0.63425,0.71732 -0.93753,1.09972l-1.28564,-1.78012c0.69886,-0.64612 1.39509,-1.18675 2.08868,-1.62189c0.69095,-0.43514 1.31333,-0.65271 1.86715,-0.65271M289.03753,179.84619v1.24609h5.71617v-1.24609h-5.71617M289.03753,182.47682v1.24609h5.71617v-1.24609h-5.71617M289.03753,177.23535v1.24609h5.71617v-1.24609h-5.71617M287.03984,175.73213h9.79067v9.51376h-9.79067zM311.6253,170.25331h1.99769v13.90473h-1.99769v-13.90473M305.652,178.26386l10.36426,-4.39097l0.79117,1.81968l-10.36426,4.4503l-0.79117,-1.87902M307.66947,172.15211h2.01747v12.93555c0,0.36921 0.03297,0.64876 0.0989,0.83864c0.06593,0.19252 0.20438,0.32174 0.41536,0.38767c0.21098,0.06593 0.52085,0.0989 0.92962,0.0989c0.11867,0 0.31383,0 0.58546,0c0.269,0 0.57491,0 0.91775,0c0.34284,0 0.68963,0 1.04038,0c0.34811,0 0.66458,0 0.9494,0c0.28218,0 0.4892,0 0.62106,0c0.36921,0 0.64612,-0.06989 0.83072,-0.20966c0.1846,-0.13713 0.32306,-0.39031 0.41536,-0.75952c0.0923,-0.36921 0.15823,-0.90325 0.19779,-1.60211c0.23735,0.17142 0.53799,0.32965 0.90193,0.4747c0.3613,0.14505 0.68699,0.24394 0.97709,0.29669c-0.0923,0.93621 -0.24394,1.67068 -0.45492,2.20339c-0.21098,0.53536 -0.52744,0.91775 -0.9494,1.14719c-0.42195,0.23207 -1.00874,0.34811 -1.76034,0.34811c-0.13186,0 -0.34548,0 -0.64084,0c-0.29801,0 -0.63821,0 -1.0206,0c-0.3824,0 -0.76084,0 -1.13532,0c-0.37712,0 -0.71337,0 -1.00874,0c-0.29801,0 -0.50635,0 -0.62502,0c-0.84391,0 -1.50981,-0.0923 -1.99769,-0.27691c-0.48789,-0.1846 -0.82677,-0.51162 -1.01665,-0.98104c-0.19252,-0.46679 -0.28878,-1.12873 -0.28878,-1.98582v-12.91577M315.62068,174.11024h-0.15823l0.39558,-0.29669l0.39558,-0.25713l1.46366,0.53404l-0.07912,0.35602c0,0.93621 -0.00264,1.79594 -0.00791,2.5792c-0.00791,0.78589 -0.0145,1.48212 -0.01978,2.08868c-0.00791,0.60656 -0.0211,1.11422 -0.03956,1.52299c-0.0211,0.40877 -0.04483,0.71205 -0.0712,0.90984c-0.03956,0.44833 -0.14505,0.7938 -0.31647,1.03643c-0.17142,0.24526 -0.41536,0.42064 -0.73183,0.52612c-0.27691,0.11867 -0.6026,0.18724 -0.97709,0.2057c-0.37712,0.0211 -0.71732,0.03165 -1.0206,0.03165c-0.02637,-0.26372 -0.08175,-0.57096 -0.16614,-0.92171c-0.08703,-0.34811 -0.18329,-0.63425 -0.28878,-0.85841c0.1846,0.01319 0.3824,0.01978 0.59337,0.01978c0.21098,0 0.36262,0 0.45492,0c0.13186,0 0.23735,-0.03033 0.31647,-0.09098c0.07912,-0.05802 0.13186,-0.17933 0.15823,-0.36394c0.02637,-0.10549 0.04615,-0.33361 0.05934,-0.68436c0.01319,-0.34811 0.02373,-0.81226 0.03165,-1.39245c0.00528,-0.58019 0.00791,-1.28301 0.00791,-2.10846c0,-0.82281 0,-1.76825 0,-2.83633M300.01495,174.90141h6.46778v1.99769h-6.46778v-1.99769M302.38844,170.51044h1.99769v13.03445h-1.99769v-13.03445M299.7776,183.70312c0.54063,-0.19779 1.17092,-0.4391 1.89088,-0.72392c0.71732,-0.28218 1.47552,-0.59205 2.2746,-0.92962c0.79644,-0.33493 1.59683,-0.66722 2.40119,-0.99687l0.4747,1.87902c-1.05489,0.51426 -2.1256,1.02456 -3.21213,1.5309c-1.08917,0.50898 -2.08208,0.96786 -2.97874,1.37663zM320.20944,173.49709h17.56387v2.07681h-17.56387v-2.07681M326.63765,178.18474h7.6743v2.05703h-7.6743v-2.05703M333.75814,178.18474h2.21526c0,0 -0.00264,0.05934 -0.00791,0.17801c-0.00791,0.11867 -0.01187,0.25054 -0.01187,0.39558c0,0.14505 -0.01319,0.26372 -0.03956,0.35602c-0.11867,1.83287 -0.25054,3.32289 -0.39558,4.47008c-0.14505,1.14719 -0.30987,2.03725 -0.49448,2.67018c-0.1846,0.63293 -0.41536,1.08785 -0.69227,1.36476c-0.27691,0.30328 -0.57623,0.51426 -0.89797,0.63293c-0.32438,0.11867 -0.70414,0.19779 -1.13928,0.23735c-0.36921,0.03956 -0.85973,0.05538 -1.47157,0.04747c-0.61447,-0.00528 -1.25136,-0.0211 -1.91066,-0.04747c-0.01319,-0.31647 -0.0923,-0.67249 -0.23735,-1.06807c-0.14505,-0.39558 -0.32306,-0.73842 -0.53404,-1.02851c0.68568,0.06593 1.34234,0.10549 1.97,0.11867c0.62502,0.01319 1.08258,0.01978 1.37267,0.01978c0.22416,0 0.40877,-0.01714 0.55382,-0.05143c0.14505,-0.03165 0.2835,-0.09362 0.41536,-0.18592c0.19779,-0.1846 0.3758,-0.57096 0.53404,-1.15906c0.15823,-0.58546 0.30328,-1.41882 0.43514,-2.50008c0.13186,-1.08126 0.24394,-2.45261 0.33625,-4.11406v-0.33625M325.35201,174.80251h2.3735c-0.05275,1.0417 -0.13186,2.09 -0.23735,3.14488c-0.10549,1.05489 -0.27691,2.09659 -0.51426,3.1251c-0.23735,1.02851 -0.58019,2.01088 -1.02851,2.94709c-0.44833,0.93621 -1.0417,1.80913 -1.78012,2.61876c-0.73842,0.81226 -1.66145,1.52827 -2.76908,2.14801c-0.15823,-0.27691 -0.38503,-0.58019 -0.6804,-0.90984c-0.29801,-0.32965 -0.59205,-0.59997 -0.88215,-0.81094c1.02851,-0.54063 1.87638,-1.16697 2.5436,-1.87902c0.66458,-0.71205 1.19202,-1.4808 1.58233,-2.30625c0.38767,-0.82281 0.67381,-1.6865 0.85841,-2.59107c0.1846,-0.90193 0.30987,-1.81836 0.3758,-2.7493c0.06593,-0.9283 0.11867,-1.84078 0.15823,-2.73743M327.4486,170.82691l2.07681,-0.79117c0.26372,0.44833 0.53404,0.94281 0.81094,1.48343c0.27691,0.54063 0.48789,1.00214 0.63293,1.38454l-2.1757,0.9494c-0.13186,-0.40877 -0.32965,-0.89665 -0.59337,-1.46366c-0.26372,-0.567 -0.51426,-1.08785 -0.75161,-1.56255z" fill="#ffffff" stroke-width="1"/></g></g></svg>