<svg version="1.1" xmlns="http://www.w3.org/2000/svg" xmlns:xlink="http://www.w3.org/1999/xlink" width="224.00001" height="224" viewBox="0,0,224.00001,224"><defs><linearGradient x1="128" y1="212" x2="128" y2="228" gradientUnits="userSpaceOnUse" id="color-1"><stop offset="0" stop-color="#000000" stop-opacity="0.1"/><stop offset="1" stop-color="#000000" stop-opacity="0"/></linearGradient></defs><g transform="translate(-128,-180)"><g stroke="none" stroke-miterlimit="10"><path d="M138,211h204l10,1v182c0,5.54 -4.46,10 -10,10h-204c-5.54,0 -10,-4.46 -10,-10v-182z" fill="#1d2a41" fill-rule="nonzero" stroke-width="3" stroke-linecap="round" stroke-linejoin="round"/><g fill-rule="evenodd"><path d="M128.00001,228v-16h224v16z" fill="url(#color-1)" stroke-width="12" stroke-linecap="round" stroke-linejoin="round" opacity="0.80769"/><path d="M138,180h204c5.54,0 10,4.46 10,10v22h-224v-22c0,-5.54 4.46,-10 10,-10z" fill="#31476d" stroke-width="1" stroke-linecap="butt" stroke-linejoin="miter"/><path d="M336,256c0.55228,0 1,0.44772 1,1c0,0.55228 -0.44772,1 -1,1h-192c-0.55228,0 -1,-0.44772 -1,-1c0,-0.55228 0.44772,-1 1,-1z" fill="#31476d" stroke-width="1" stroke-linecap="butt" stroke-linejoin="miter"/><g fill="#7d97b4" stroke-width="1" stroke-linecap="butt" stroke-linejoin="miter"><path d="M143,257c0,-0.55228 0.44772,-1 1,-1c0.55228,0 1,0.44772 1,1c0,0.55228 -0.44772,1 -1,1c-0.55228,0 -1,-0.44772 -1,-1z"/><path d="M335,257c0,-0.55228 0.44772,-1 1,-1c0.55228,0 1,0.44772 1,1c0,0.55228 -0.44772,1 -1,1c-0.55228,0 -1,-0.44772 -1,-1z"/><path d="M239,257c0,-0.55228 0.44772,-1 1,-1c0.55228,0 1,0.44772 1,1c0,0.55228 -0.44772,1 -1,1c-0.55228,0 -1,-0.44772 -1,-1z"/><path d="M271,257c0,-0.55228 0.44772,-1 1,-1c0.55228,0 1,0.44772 1,1c0,0.55228 -0.44772,1 -1,1c-0.55228,0 -1,-0.44772 -1,-1z"/><path d="M175,257c0,-0.55228 0.44772,-1 1,-1c0.55228,0 1,0.44772 1,1c0,0.55228 -0.44772,1 -1,1c-0.55228,0 -1,-0.44772 -1,-1z"/><path d="M303,257c0,-0.55228 0.44772,-1 1,-1c0.55228,0 1,0.44772 1,1c0,0.55228 -0.44772,1 -1,1c-0.55228,0 -1,-0.44772 -1,-1z"/><path d="M207,257c0,-0.55228 0.44772,-1 1,-1c0.55228,0 1,0.44772 1,1c0,0.55228 -0.44772,1 -1,1c-0.55228,0 -1,-0.44772 -1,-1z"/></g></g><path d="M144.34826,236.31565c-0.77987,0 -1.48663,-0.11577 -2.12027,-0.34729c-0.63365,-0.23152 -1.17224,-0.59099 -1.6158,-1.07842c-0.44599,-0.48742 -0.78719,-1.12716 -1.02358,-1.91922c-0.23883,-0.79206 -0.35825,-1.73643 -0.35825,-2.83313v-7.58547h2.39446v7.76826c0,0.96265 0.11577,1.73035 0.34729,2.30306c0.23152,0.57272 0.55201,0.98093 0.96144,1.22464c0.407,0.24371 0.87858,0.36557 1.41474,0.36557c0.56053,0 1.04795,-0.12185 1.46226,-0.36557c0.41431,-0.24371 0.74088,-0.65193 0.97971,-1.22464c0.2364,-0.57272 0.3546,-1.34041 0.3546,-2.30306v-7.76826h2.32134v7.58547c0,1.0967 -0.1182,2.04107 -0.3546,2.83313c-0.23883,0.79206 -0.58003,1.43179 -1.02358,1.91922c-0.44599,0.48742 -0.98337,0.8469 -1.61214,1.07842c-0.62634,0.23152 -1.33553,0.34729 -2.12758,0.34729zM152.81109,236.05976v-13.50763h2.41273v13.50763zM167.96376,228.23666c0.46304,1.82783 1.2283,3.39366 2.29575,4.69751c1.06501,1.30385 2.51144,2.23604 4.33926,2.79657c-0.15842,0.13404 -0.32292,0.30708 -0.49351,0.5191c-0.1706,0.21446 -0.33144,0.43746 -0.48255,0.66898c-0.15353,0.23152 -0.27905,0.43868 -0.37653,0.62146c-1.32822,-0.47524 -2.45538,-1.12716 -3.38148,-1.95577c-0.9261,-0.82861 -1.69622,-1.82783 -2.31037,-2.99764c-0.61659,-1.16981 -1.11985,-2.48584 -1.50978,-3.9481l1.91922,-0.40212M161.1277,221.27265h11.75291v7.62203h-11.75291v-1.91922h9.70575v-3.7836h-9.70575v-1.91922M159.9579,221.27265h2.08372v5.39208c0,0.80425 -0.0329,1.69013 -0.0987,2.65766c-0.06824,0.96996 -0.20593,1.96064 -0.41308,2.97204c-0.20715,1.0114 -0.51179,1.98259 -0.91391,2.91356c-0.40212,0.93341 -0.93219,1.77177 -1.59021,2.51509c-0.10967,-0.13404 -0.26443,-0.2961 -0.46427,-0.4862c-0.20228,-0.18766 -0.41308,-0.36435 -0.63243,-0.53007c-0.21934,-0.16329 -0.40212,-0.28758 -0.54834,-0.37288c0.59709,-0.68239 1.06988,-1.42936 1.4184,-2.24091c0.34606,-0.80912 0.60197,-1.64626 0.76768,-2.51144c0.16329,-0.86517 0.2693,-1.71816 0.31805,-2.55896c0.04874,-0.8408 0.07312,-1.63286 0.07312,-2.37617zM176.06103,224.30684h16.57838v1.95577h-16.57838v-1.95577M186.33341,220.59636h2.102v14.40326c0,0.68239 -0.08774,1.19417 -0.26321,1.53538c-0.17791,0.34119 -0.4862,0.59709 -0.92488,0.76768c-0.42649,0.15842 -0.99922,0.26443 -1.71816,0.31805c-0.71894,0.05606 -1.57193,0.07799 -2.55896,0.06581c-0.03655,-0.20715 -0.10357,-0.44234 -0.20106,-0.70554c-0.09748,-0.26078 -0.20349,-0.52276 -0.31805,-0.78596c-0.11698,-0.26078 -0.2364,-0.48864 -0.35825,-0.68361c0.53616,0.02437 1.05161,0.03899 1.54634,0.04386c0.4923,0.00731 0.92488,0.01097 1.29776,0.01097c0.37044,0 0.63487,0 0.79327,0c0.21934,-0.01218 0.37532,-0.05849 0.46792,-0.13891c0.09017,-0.07799 0.13526,-0.22056 0.13526,-0.42771v-14.40326M177.92542,228.7119l1.6816,-1.0053c0.42649,0.42649 0.85664,0.90417 1.29045,1.43302c0.43137,0.53129 0.82739,1.05526 1.18809,1.57193c0.35825,0.5191 0.64096,0.99799 0.84811,1.43667l-1.82783,1.11497c-0.1706,-0.42649 -0.42649,-0.90538 -0.76768,-1.43667c-0.34119,-0.52885 -0.72138,-1.06745 -1.14056,-1.6158c-0.42162,-0.54834 -0.84567,-1.04795 -1.27216,-1.49881z" fill="#ffffff" fill-rule="nonzero" stroke-width="1" stroke-linecap="butt" stroke-linejoin="miter"/><path d="M145.28161,287.88611c0.63532,-0.02932 1.36349,-0.06353 2.18452,-0.10263c0.82103,-0.0391 1.69093,-0.08797 2.6097,-0.14661c0.91877,-0.05865 1.83754,-0.11729 2.75631,-0.17594l-0.02932,1.40747c-0.86012,0.06842 -1.72709,0.13684 -2.6009,0.20526c-0.87577,0.06842 -1.71634,0.12902 -2.52173,0.1818c-0.80735,0.05473 -1.54334,0.10653 -2.20798,0.15541l-0.1906,-1.52477M151.01414,286.49329l1.29019,-0.49848c0.22481,0.34209 0.44668,0.71352 0.66562,1.11425c0.2209,0.40074 0.41931,0.79171 0.59524,1.1729c0.17594,0.38119 0.30788,0.72329 0.39585,1.02628l-1.37815,0.57179c-0.06842,-0.303 -0.18571,-0.64998 -0.35187,-1.04095c-0.16616,-0.39096 -0.35382,-0.79171 -0.56299,-1.20222c-0.21112,-0.41051 -0.42909,-0.79171 -0.65389,-1.14358M147.29019,283.07723v1.64206h4.36905v-1.64206h-4.36905M145.9267,281.80171h7.15467v4.19311h-7.15467v-4.19311M147.67138,278.12174v1.31951h3.50403v-1.31951h-3.50403M146.24925,276.83155h6.42162v3.89989h-6.42162v-3.89989M148.71233,280.42355h1.49544v7.74112l-1.49544,0.04398v-7.7851M141.05918,283.45842h3.12284v1.40747h-3.12284v-1.40747M143.65421,283.45842h1.53943c0,0 -0.00293,0.03617 -0.0088,0.10849c-0.00391,0.07428 -0.00782,0.16029 -0.01173,0.25804c-0.00586,0.09774 -0.01369,0.18082 -0.02346,0.24924c-0.04887,1.07516 -0.11045,1.95483 -0.18473,2.63902c-0.07233,0.68419 -0.15736,1.21688 -0.25511,1.59807c-0.09774,0.38119 -0.21992,0.64998 -0.36653,0.80637c-0.15639,0.17594 -0.31961,0.30006 -0.48968,0.3724c-0.17202,0.07428 -0.37533,0.12608 -0.6099,0.15541c-0.19549,0.02932 -0.44961,0.04398 -0.76239,0.04398c-0.31277,0 -0.6451,-0.00977 -0.99696,-0.02932c-0.00977,-0.21503 -0.05376,-0.45743 -0.13195,-0.72719c-0.07819,-0.26781 -0.18082,-0.50434 -0.30788,-0.7096c0.31277,0.02932 0.606,0.04887 0.87967,0.05865c0.27368,0.00977 0.47404,0.01466 0.60111,0.01466c0.11729,0 0.21503,-0.01271 0.29322,-0.03812c0.07819,-0.02346 0.1515,-0.06939 0.21992,-0.13781c0.08797,-0.09774 0.17105,-0.30594 0.24924,-0.62456c0.07819,-0.31668 0.14661,-0.78291 0.20526,-1.39868c0.05865,-0.61577 0.11241,-1.41725 0.16128,-2.40444v-0.23458M140.78061,280.05702h1.39281c-0.0391,0.53758 -0.08797,1.09959 -0.14661,1.68604c-0.05865,0.58645 -0.11925,1.15042 -0.1818,1.6919c-0.06451,0.54344 -0.13097,1.02042 -0.19939,1.43094h-1.4368c0.07819,-0.42029 0.15345,-0.90704 0.22578,-1.46026c0.07428,-0.55126 0.14074,-1.11816 0.19939,-1.7007c0.05865,-0.58058 0.10752,-1.12989 0.14661,-1.64792M141.07384,280.05702h2.63902v-1.80333h-3.25479v-1.4368h4.70625v4.67693h-4.09048zM163.88669,277.31537h1.46612v8.2396h-1.46612v-8.2396M166.52571,276.27442h1.5101v11.55304c0,0.43983 -0.05083,0.779 -0.15248,1.01749c-0.1036,0.24044 -0.28247,0.42909 -0.5366,0.56592c-0.2639,0.12707 -0.60307,0.21015 -1.01749,0.24924c-0.41638,0.0391 -0.90313,0.05865 -1.46026,0.05865c-0.0391,-0.22481 -0.10556,-0.49164 -0.19939,-0.8005c-0.09187,-0.30691 -0.19157,-0.57765 -0.29909,-0.81223c0.40074,0.00977 0.77411,0.01662 1.12011,0.02052c0.34796,0.00586 0.58547,0.0088 0.71253,0.0088c0.11729,0 0.20037,-0.02248 0.24924,-0.06744c0.04887,-0.04301 0.07331,-0.12315 0.07331,-0.24044v-11.55304M158.31543,276.14247h1.49544v13.59095h-1.49544v-13.59095M161.30631,283.31181h1.42214v3.82658c0,0.32254 -0.03225,0.58156 -0.09676,0.77705c-0.06255,0.19549 -0.19646,0.35187 -0.40172,0.46916c-0.20526,0.11729 -0.44961,0.18766 -0.73306,0.21112c-0.28345,0.02541 -0.61577,0.03323 -0.99696,0.02346c-0.00977,-0.19549 -0.05669,-0.42029 -0.14074,-0.67442c-0.0821,-0.25413 -0.16714,-0.47404 -0.25511,-0.65976c0.23458,0.00977 0.44472,0.01466 0.63043,0.01466c0.18571,0 0.31766,0 0.39585,0c0.11729,0 0.17594,-0.06353 0.17594,-0.1906v-3.79726M155.50047,283.31181h6.37763v1.40747h-4.97015v3.84124h-1.40747v-5.24872M154.89937,280.70211h8.22494v1.4368h-8.22494v-1.4368M156.39481,278.04843h6.15771v1.4368h-6.43628l0.27856,-1.4368M156.10158,276.34773l1.45146,0.29322c-0.16616,0.77216 -0.37826,1.52672 -0.63629,2.26369c-0.25999,0.73893 -0.5366,1.36252 -0.82982,1.87077c-0.09774,-0.05865 -0.22969,-0.12707 -0.39585,-0.20526c-0.16616,-0.07819 -0.3372,-0.14955 -0.51314,-0.21405c-0.17594,-0.06255 -0.32743,-0.11827 -0.4545,-0.16714c0.31277,-0.47893 0.58645,-1.06342 0.82103,-1.75348c0.23458,-0.6881 0.42029,-1.38402 0.55713,-2.08775zM173.81234,277.54995h9.35385v1.42214h-9.35385v-1.42214M175.58634,281.42051v1.65672h5.65923v-1.65672h-5.65923M174.14954,280.13033h8.60614v4.23709h-8.60614v-4.23709M175.41041,284.55801c0.43983,0.72329 1.04095,1.34394 1.80333,1.86197c0.76239,0.51803 1.66161,0.93539 2.69767,1.25207c1.03606,0.31864 2.18941,0.54149 3.46004,0.66855c-0.10752,0.10752 -0.22187,0.24435 -0.34307,0.41051c-0.12315,0.16616 -0.2336,0.33427 -0.33134,0.50434c-0.09774,0.17202 -0.18082,0.33134 -0.24924,0.47796c-1.30974,-0.17594 -2.49436,-0.46427 -3.55388,-0.86501c-1.06147,-0.40074 -1.99002,-0.92365 -2.78563,-1.56875c-0.79757,-0.6451 -1.46026,-1.42214 -1.98806,-2.33114l1.29019,-0.41051M177.60958,276.14247h1.55409v6.62687c0,0.58645 -0.03617,1.16312 -0.10849,1.73003c-0.07428,0.5669 -0.20917,1.11132 -0.40465,1.63326c-0.19549,0.52389 -0.47893,1.01065 -0.85035,1.46026c-0.37141,0.44961 -0.85035,0.85719 -1.4368,1.22274c-0.58645,0.36751 -1.30974,0.68321 -2.16986,0.94712c-0.05865,-0.11729 -0.14661,-0.25706 -0.2639,-0.41931c-0.11729,-0.16029 -0.23653,-0.32353 -0.35774,-0.48968c-0.12315,-0.16616 -0.24337,-0.303 -0.36067,-0.41051c0.82103,-0.18571 1.49837,-0.42322 2.03205,-0.71253c0.53172,-0.28736 0.95689,-0.61675 1.27553,-0.98817c0.31668,-0.37141 0.55321,-0.77216 0.7096,-1.20222c0.15639,-0.43006 0.25902,-0.87967 0.30788,-1.34883c0.04887,-0.46916 0.07331,-0.94809 0.07331,-1.4368v-6.6122M172.83003,276.02519l1.46612,0.46916c-0.33232,0.82103 -0.72524,1.64206 -1.17876,2.46308c-0.45548,0.82103 -0.94223,1.59514 -1.46026,2.32234c-0.51803,0.72915 -1.05561,1.37229 -1.61273,1.92942c-0.04887,-0.12707 -0.12218,-0.29322 -0.21992,-0.49848c-0.09774,-0.20526 -0.20037,-0.41051 -0.30788,-0.61577c-0.10752,-0.20526 -0.21015,-0.37141 -0.30788,-0.49848c0.47893,-0.44961 0.9432,-0.97253 1.39281,-1.56875c0.44961,-0.59622 0.86501,-1.23643 1.24621,-1.92062c0.38119,-0.68419 0.70863,-1.37815 0.9823,-2.08189M171.36391,280.02769l1.49544,-1.49544l0.01466,0.01466v11.24516h-1.5101zM186.67022,277.05147h9.1486v1.49544h-9.1486v-1.49544M186.67022,280.43821h9.16326v1.48078h-9.16326v-1.48078M186.62623,283.91292h9.25122v1.48078h-9.25122v-1.48078M185.77589,277.05147h1.55409v5.2927c0,0.5669 -0.02444,1.18463 -0.07331,1.85318c-0.04887,0.6705 -0.14466,1.34492 -0.28736,2.02325c-0.14074,0.68028 -0.34796,1.32831 -0.62163,1.94408c-0.27368,0.61577 -0.63532,1.16801 -1.08493,1.65672c-0.07819,-0.09774 -0.19549,-0.21503 -0.35187,-0.35187c-0.15639,-0.13684 -0.31277,-0.26684 -0.46916,-0.38999c-0.15639,-0.1212 -0.29322,-0.21112 -0.41051,-0.26977c0.40074,-0.44961 0.7184,-0.94125 0.95298,-1.47492c0.23458,-0.53172 0.40758,-1.08395 0.519,-1.65672c0.11338,-0.57081 0.18669,-1.14259 0.21992,-1.71536c0.03518,-0.57081 0.05278,-1.11523 0.05278,-1.63326v-5.27804M195.24703,277.05147h1.55409v10.79065c0,0.43006 -0.05572,0.76433 -0.16714,1.00283c-0.11338,0.24044 -0.30691,0.4242 -0.58058,0.55126c-0.28345,0.12707 -0.65194,0.20526 -1.10545,0.23458c-0.45548,0.02932 -1.02531,0.0391 -1.70949,0.02932c-0.02932,-0.20526 -0.09481,-0.45743 -0.19646,-0.75652c-0.1036,-0.29713 -0.20917,-0.54833 -0.31668,-0.75359c0.303,0.01955 0.60111,0.02932 0.89433,0.02932c0.29322,0 0.55224,0 0.77705,0c0.22481,0 0.38119,0 0.46916,0c0.13684,0 0.23458,-0.02737 0.29322,-0.0821c0.05865,-0.05278 0.08797,-0.1427 0.08797,-0.26977v-10.77599M190.32086,277.63792h1.58341v11.93423h-1.58341zM203.72122,279.67583h8.79673v1.31951h-8.79673v-1.31951M204.14639,277.30071h8.01969v1.26087h-8.01969v-1.26087M205.74446,276.06917h1.46612v4.45701h-1.46612v-4.45701M207.34254,280.5555h1.45146v5.87915h-1.45146v-5.87915M209.01391,276.06917h1.48078v4.47167h-1.48078v-4.47167M205.68582,284.90988v0.95298h4.86753v-0.95298h-4.86753M205.68582,282.94528v0.92365h4.86753v-0.92365h-4.86753M204.32232,281.84569h7.65315v5.1021h-7.65315v-5.1021M206.21362,287.03576l1.29019,0.86501c-0.2639,0.23458 -0.57863,0.46916 -0.94419,0.70374c-0.36751,0.23458 -0.74186,0.4545 -1.12305,0.65976c-0.38119,0.20526 -0.74772,0.3763 -1.09959,0.51314c-0.12707,-0.14661 -0.29322,-0.3206 -0.49848,-0.52194c-0.20526,-0.19939 -0.39096,-0.36751 -0.55713,-0.50434c0.35187,-0.12707 0.71156,-0.28834 1.07907,-0.48382c0.36555,-0.19549 0.71253,-0.40074 1.04095,-0.61577c0.32646,-0.21503 0.5972,-0.42029 0.81223,-0.61577M199.00031,279.1187h4.86753v1.46612h-4.86753v-1.46612M200.86228,276.05451h1.45146v13.67892h-1.45146v-13.67892M200.84761,280.101l0.90899,0.30788c-0.10752,0.58645 -0.24142,1.19245 -0.40172,1.81799c-0.16225,0.62555 -0.34601,1.23838 -0.55126,1.83852c-0.20526,0.60209 -0.42713,1.1641 -0.66562,1.68604c-0.24044,0.52389 -0.49262,0.97155 -0.75652,1.34297c-0.07819,-0.20526 -0.1906,-0.44472 -0.3372,-0.7184c-0.14661,-0.27368 -0.27856,-0.50337 -0.39585,-0.68908c0.23458,-0.32254 0.46427,-0.70179 0.68908,-1.13771c0.22481,-0.43397 0.43495,-0.90313 0.63043,-1.40747c0.19549,-0.5024 0.36946,-1.0126 0.52194,-1.53063c0.15052,-0.51803 0.26977,-1.0214 0.35774,-1.5101M202.24043,281.28856c0.07819,0.09774 0.2033,0.26585 0.37533,0.50434c0.17007,0.24044 0.35089,0.49946 0.54247,0.77705c0.18962,0.27954 0.36262,0.53855 0.519,0.77705c0.15639,0.24044 0.26879,0.41443 0.3372,0.52194l-0.82103,1.21688c-0.08797,-0.20526 -0.19743,-0.44961 -0.32841,-0.73306c-0.13293,-0.28345 -0.27954,-0.58156 -0.43983,-0.89433c-0.16225,-0.31277 -0.31375,-0.60404 -0.4545,-0.87381c-0.1427,-0.26781 -0.26292,-0.47991 -0.36067,-0.63629l0.63043,-0.65976M208.77933,287.95941l1.11425,-0.85035c0.303,0.15639 0.62848,0.3372 0.97644,0.54247c0.34601,0.20526 0.68028,0.41051 1.00283,0.61577c0.32254,0.20526 0.59134,0.39096 0.80637,0.55713l-1.20222,0.95298c-0.18571,-0.16616 -0.43202,-0.35969 -0.73893,-0.58058c-0.30887,-0.21894 -0.63434,-0.43593 -0.97644,-0.65096c-0.34209,-0.21503 -0.66953,-0.41051 -0.9823,-0.58645zM214.79043,276.71426h1.58341v5.27804c0,0.59622 -0.01955,1.23838 -0.05865,1.92649c-0.0391,0.69005 -0.11534,1.38891 -0.22871,2.09655c-0.11142,0.7096 -0.27758,1.38891 -0.49848,2.03791c-0.21894,0.65096 -0.51412,1.24034 -0.88554,1.76814c-0.08797,-0.09774 -0.21797,-0.2033 -0.38999,-0.31668c-0.17007,-0.11142 -0.34307,-0.2209 -0.519,-0.32841c-0.17594,-0.10752 -0.33232,-0.1906 -0.46916,-0.24924c0.34209,-0.48871 0.61089,-1.0214 0.80637,-1.59807c0.19549,-0.57667 0.34014,-1.1729 0.43397,-1.78867c0.09187,-0.61577 0.15248,-1.22666 0.1818,-1.83265c0.02932,-0.606 0.04398,-1.17779 0.04398,-1.71536v-5.27804M215.87536,276.71426h10.43878v3.7826h-10.43878v-1.33417h8.75274v-1.11425h-8.75274v-1.33417M216.52045,285.1298h10.43878v1.33417h-10.43878v-1.33417M216.85767,282.15357h9.67641v1.30485h-9.67641v-1.30485M222.79545,282.56408h1.58341v7.18399h-1.58341v-7.18399M218.88091,282.59341h1.52477v2.27249c0,0.44961 -0.03421,0.90411 -0.10263,1.36349c-0.06842,0.45938 -0.20526,0.90118 -0.41051,1.32538c-0.20526,0.42616 -0.50826,0.82689 -0.90899,1.20222c-0.40074,0.37728 -0.93832,0.71742 -1.61273,1.02042c-0.06842,-0.11729 -0.16323,-0.24924 -0.28443,-0.39585c-0.12315,-0.14661 -0.25022,-0.29322 -0.38119,-0.43983c-0.13293,-0.14661 -0.26292,-0.2639 -0.38999,-0.35187c0.57667,-0.24435 1.0341,-0.51314 1.37229,-0.80637c0.33623,-0.29322 0.59231,-0.60404 0.76825,-0.93246c0.17594,-0.32646 0.29029,-0.66073 0.34307,-1.00283c0.05473,-0.34209 0.0821,-0.67931 0.0821,-1.01162v-2.24317M218.0892,280.90737l1.45146,-0.43983c0.12707,0.19549 0.26195,0.4154 0.40465,0.65976c0.14074,0.24435 0.25511,0.44961 0.34307,0.61577l-1.5101,0.49848c-0.06842,-0.17594 -0.17105,-0.39096 -0.30788,-0.6451c-0.13684,-0.25413 -0.2639,-0.48382 -0.38119,-0.68908M223.54318,280.49685l1.67138,0.42517c-0.25413,0.38119 -0.51314,0.7575 -0.77705,1.12892c-0.2639,0.37141 -0.49848,0.68908 -0.70374,0.95298l-1.1729,-0.39585c0.11729,-0.20526 0.23653,-0.43299 0.35774,-0.68321c0.12315,-0.24826 0.24044,-0.49751 0.35187,-0.74772c0.11338,-0.24826 0.20428,-0.47502 0.2727,-0.68028zM228.6746,276.9635h12.60865v1.46612h-12.60865v-1.46612M234.2312,280.32092h1.36349v5.57126h-1.36349v-5.57126M232.73576,283.66368v1.4368h4.36905v-1.4368h-4.36905M232.73576,281.02466v1.4368h4.36905v-1.4368h-4.36905M231.44558,279.73447h7.02273v6.67085h-7.02273v-6.67085M239.56788,280.62881h1.58341v9.0753h-1.58341v-9.0753M228.79189,280.71678h1.61273v6.84679h10.16023v1.46612h-11.77296zM247.55825,282.53476h3.84124v1.24621h-3.84124v-1.24621M247.55825,285.02717h3.87056v1.24621h-3.87056v-1.24621M244.66999,287.53424h10.02827v1.45146h-10.02827v-1.45146M243.68769,279.89574h11.87558v9.85233h-1.59807v-8.40088h-8.7674v8.40088h-1.5101v-9.85233M246.86917,280.83407h1.42214v7.35993h-1.42214v-7.35993M250.78372,280.83407h1.42214v7.34527h-1.42214v-7.34527M248.5992,277.62326l1.86197,0.39585c-0.16616,0.51803 -0.33037,1.0429 -0.49262,1.57461c-0.16029,0.53366 -0.31375,0.9911 -0.46036,1.37229l-1.4368,-0.39585c0.06842,-0.27368 0.13879,-0.58156 0.21112,-0.92365c0.07428,-0.34209 0.14074,-0.69201 0.19939,-1.04975c0.05865,-0.35578 0.09774,-0.68028 0.11729,-0.97351M243.05726,276.93418h13.18043v1.49544h-13.18043z" fill="#ffffff" fill-rule="nonzero" stroke-width="1" stroke-linecap="butt" stroke-linejoin="miter"/><path d="M142.39334,308.40008c-0.68419,-1.12403 -1.21981,-2.29693 -1.60687,-3.51869c-0.3851,-1.22177 -0.57765,-2.56083 -0.57765,-4.01717c0,-1.45634 0.19255,-2.79834 0.57765,-4.02597c0.38706,-1.22568 0.92268,-2.40053 1.60687,-3.52456l1.18756,0.5278c-0.61577,1.05561 -1.07027,2.18648 -1.36349,3.39261c-0.29322,1.20808 -0.43983,2.41812 -0.43983,3.63012c0,1.22177 0.14661,2.43376 0.43983,3.63598c0.29322,1.20222 0.74772,2.33114 1.36349,3.38674zM145.28161,294.04675h12.7406v1.61273h-12.7406v-1.61273M152.39229,298.78233l1.21688,-1.02628c0.40074,0.29322 0.8308,0.606 1.29019,0.93832c0.45938,0.33232 0.91681,0.67931 1.37229,1.04095c0.45352,0.36164 0.8787,0.71352 1.27553,1.05561c0.39488,0.34209 0.72426,0.65487 0.98817,0.93832l-1.31951,1.21688c-0.24435,-0.29322 -0.55713,-0.61577 -0.93832,-0.96764c-0.38119,-0.35187 -0.79171,-0.71645 -1.23155,-1.09373c-0.43983,-0.37533 -0.88749,-0.74381 -1.34297,-1.10545c-0.45352,-0.36164 -0.89043,-0.69397 -1.31071,-0.99696M151.89381,294.6332l1.74469,0.61577c-0.55713,1.02628 -1.22177,2.0252 -1.99392,2.99676c-0.77216,0.97351 -1.63717,1.87077 -2.59503,2.6918c-0.95786,0.82103 -1.99881,1.52477 -3.12284,2.11122c-0.07819,-0.14661 -0.18277,-0.30594 -0.31375,-0.47796c-0.13293,-0.17007 -0.26585,-0.34112 -0.39878,-0.51314c-0.13097,-0.17007 -0.25511,-0.31375 -0.3724,-0.43104c0.79171,-0.37141 1.54431,-0.82103 2.25783,-1.34883c0.71352,-0.5278 1.37326,-1.10252 1.97926,-1.72416c0.606,-0.61968 1.14846,-1.26184 1.6274,-1.92649c0.47893,-0.66464 0.87478,-1.32928 1.18756,-1.99392M150.77956,298.00528l1.73003,-1.71536v0.01466v10.40946h-1.73003zM160.26537,300.35108h12.18347v1.52477h-12.18347v-1.52477M162.87506,297.5068h6.90543v1.45146h-6.90543v-1.45146M167.85988,302.77017l1.33417,-0.68908c0.43983,0.38119 0.87283,0.79366 1.29898,1.23741c0.4242,0.4457 0.81223,0.89043 1.1641,1.33417c0.35187,0.4457 0.64021,0.85426 0.86501,1.22568l-1.42214,0.85035c-0.19549,-0.37141 -0.46916,-0.78975 -0.82103,-1.255c-0.35187,-0.4633 -0.73795,-0.93246 -1.15824,-1.40747c-0.42029,-0.47307 -0.84057,-0.90509 -1.26087,-1.29605M166.29113,293.00581l1.4368,0.65976c-0.84057,1.16312 -1.87957,2.21385 -3.11698,3.15216c-1.23545,0.93832 -2.58624,1.73491 -4.05236,2.38978c-0.06842,-0.13684 -0.16811,-0.29322 -0.29909,-0.46916c-0.13293,-0.17594 -0.2727,-0.34992 -0.41931,-0.52194c-0.14661,-0.17007 -0.27856,-0.30398 -0.39585,-0.40172c0.93832,-0.37141 1.84243,-0.8093 2.71233,-1.31364c0.86989,-0.5024 1.65868,-1.05463 2.36632,-1.65672c0.7096,-0.60013 1.29898,-1.21297 1.76814,-1.83852M166.61367,293.68022c0.32254,0.34209 0.72329,0.70374 1.20222,1.08493c0.47893,0.38119 1.01455,0.75261 1.60687,1.11425c0.59036,0.36164 1.21004,0.69886 1.85904,1.01162c0.65096,0.31277 1.30387,0.57667 1.95874,0.79171c-0.11729,0.09774 -0.24631,0.22969 -0.38706,0.39585c-0.1427,0.16616 -0.27758,0.33427 -0.40465,0.50434c-0.12707,0.17202 -0.23458,0.33134 -0.32254,0.47796c-0.63532,-0.2639 -1.27064,-0.57472 -1.90595,-0.93246c-0.63532,-0.35578 -1.24327,-0.74186 -1.82386,-1.15824c-0.58254,-0.41443 -1.11621,-0.83471 -1.601,-1.26087c-0.48285,-0.4242 -0.89043,-0.82201 -1.22274,-1.19342l1.04095,-0.83569M161.29165,306.4648c-0.02932,-0.11729 -0.07331,-0.27368 -0.13195,-0.46916c-0.05865,-0.19549 -0.12218,-0.39878 -0.1906,-0.6099c-0.06842,-0.20917 -0.13684,-0.38217 -0.20526,-0.519c0.18571,-0.0391 0.36653,-0.12218 0.54247,-0.24924c0.17594,-0.12707 0.38119,-0.29322 0.61577,-0.49848c0.11729,-0.09774 0.29127,-0.25902 0.52194,-0.48382c0.22871,-0.22481 0.48186,-0.49359 0.75945,-0.80637c0.27954,-0.31277 0.56397,-0.65291 0.85329,-1.02042c0.28736,-0.36555 0.5581,-0.73893 0.81223,-1.12011l1.46612,0.99696c-0.55713,0.72329 -1.17779,1.42898 -1.86197,2.11708c-0.68419,0.69005 -1.37326,1.2941 -2.06723,1.81212v0.04398c0,0 -0.05572,0.02639 -0.16714,0.07917c-0.11338,0.05473 -0.24337,0.12315 -0.38999,0.20526c-0.14661,0.08405 -0.27661,0.17202 -0.38999,0.2639c-0.11142,0.09383 -0.16714,0.17984 -0.16714,0.25804M161.29165,306.4648l-0.02932,-1.24621l1.04095,-0.57179l8.41554,-0.5278c0.02932,0.22481 0.07331,0.47404 0.13195,0.74772c0.05865,0.27368 0.11241,0.49359 0.16128,0.65976c-1.33906,0.09774 -2.49534,0.18571 -3.46884,0.2639c-0.97155,0.07819 -1.79453,0.14368 -2.46895,0.19646c-0.67442,0.05473 -1.23155,0.10165 -1.67138,0.14074c-0.43983,0.0391 -0.79171,0.07526 -1.05561,0.10849c-0.2639,0.03518 -0.47404,0.06939 -0.63043,0.10263c-0.15639,0.03518 -0.29811,0.07721 -0.42517,0.12608zM179.70614,294.19336h6.89077v1.5101h-6.89077v-1.5101M185.9225,294.19336h1.59807c0,0 -0.00293,0.05376 -0.0088,0.16128c-0.00391,0.10752 -0.00586,0.22481 -0.00586,0.35187c0,0.12707 0,0.22969 0,0.30788c-0.04887,1.83754 -0.09579,3.39358 -0.14074,4.66813c-0.04301,1.2765 -0.09872,2.32527 -0.16714,3.1463c-0.06842,0.82103 -0.1515,1.4583 -0.24924,1.91183c-0.09774,0.45548 -0.21992,0.78095 -0.36653,0.97644c-0.18571,0.27368 -0.3763,0.46427 -0.57179,0.57179c-0.19549,0.10752 -0.43006,0.18571 -0.70374,0.23458c-0.25413,0.0391 -0.56983,0.05865 -0.94712,0.05865c-0.37533,0 -0.76336,-0.00489 -1.1641,-0.01466c-0.00977,-0.23458 -0.05865,-0.5063 -0.14661,-0.81516c-0.08797,-0.30691 -0.20526,-0.57276 -0.35187,-0.79757c0.40074,0.0391 0.76727,0.0606 1.09959,0.06451c0.33232,0.00586 0.58156,0.0088 0.74772,0.0088c0.13684,0 0.24631,-0.01955 0.32841,-0.05865c0.08405,-0.0391 0.16518,-0.11241 0.24337,-0.21992c0.11729,-0.13684 0.21797,-0.41833 0.30202,-0.84449c0.0821,-0.4242 0.15541,-1.03509 0.21992,-1.83265c0.06255,-0.79562 0.11534,-1.80919 0.15834,-3.04074c0.04496,-1.23155 0.08699,-2.71721 0.12608,-4.45701v-0.38119M173.95894,297.56544l5.83517,-1.14358l0.24924,1.42214l-5.8205,1.1729l-0.2639,-1.45146M181.86134,294.8971h1.56875c-0.00977,0.99696 -0.0391,1.96656 -0.08797,2.90879c-0.04887,0.94419 -0.14368,1.85122 -0.28443,2.72112c-0.1427,0.86989 -0.36067,1.68604 -0.65389,2.44842c-0.29322,0.76239 -0.69201,1.46612 -1.19635,2.11122c-0.5024,0.6451 -1.14455,1.20711 -1.92649,1.68604c-0.11729,-0.20526 -0.28345,-0.43006 -0.49848,-0.67442c-0.21503,-0.24435 -0.42029,-0.43983 -0.61577,-0.58645c0.72329,-0.42029 1.31169,-0.91193 1.76521,-1.47492c0.45548,-0.56104 0.81321,-1.18365 1.0732,-1.86784c0.25804,-0.68419 0.4457,-1.4153 0.56299,-2.19331c0.11729,-0.77607 0.19255,-1.59221 0.22578,-2.44842c0.03518,-0.85426 0.05767,-1.731 0.06744,-2.63022M175.73295,304.77876l-0.24924,-1.46612l0.55713,-0.5278l3.79726,-1.61273c0.01955,0.22481 0.05376,0.47111 0.10263,0.73893c0.04887,0.26977 0.09774,0.48773 0.14661,0.65389c-0.86989,0.39096 -1.57168,0.71352 -2.10535,0.96764c-0.53172,0.25413 -0.94613,0.45938 -1.24327,0.61577c-0.29909,0.15639 -0.519,0.28051 -0.65976,0.3724c-0.1427,0.09383 -0.25804,0.17984 -0.34601,0.25804M175.73295,304.77876c-0.0391,-0.13684 -0.0997,-0.29322 -0.1818,-0.46916c-0.08405,-0.17594 -0.17202,-0.34698 -0.2639,-0.51314c-0.09383,-0.16616 -0.18473,-0.303 -0.2727,-0.41051c0.16616,-0.08797 0.33232,-0.23263 0.49848,-0.43397c0.16616,-0.19939 0.24924,-0.45548 0.24924,-0.76825v-8.54749h1.52477v9.72039c0,0 -0.05376,0.02932 -0.16128,0.08797c-0.10752,0.05865 -0.23653,0.13879 -0.38706,0.24044c-0.15248,0.1036 -0.30691,0.21601 -0.4633,0.3372c-0.15639,0.12315 -0.28639,0.25022 -0.38999,0.38119c-0.10165,0.13293 -0.15248,0.25804 -0.15248,0.37533zM188.69346,300.58565c0.58645,-0.12707 1.2853,-0.303 2.09655,-0.5278c0.81125,-0.22481 1.63228,-0.4545 2.46308,-0.68908l0.20526,1.42214c-0.75261,0.22481 -1.51499,0.4545 -2.28715,0.68908c-0.77216,0.23458 -1.47589,0.44472 -2.11122,0.63043l-0.36653,-1.52477M188.89873,295.8794h4.33972v1.45146h-4.33972v-1.45146M190.45281,293.06445h1.52477v11.8316c0,0.38119 -0.04105,0.68419 -0.12315,0.90899c-0.08405,0.22481 -0.2336,0.40074 -0.44864,0.5278c-0.20526,0.12707 -0.46427,0.2121 -0.77705,0.25511c-0.31277,0.04496 -0.69886,0.06255 -1.15824,0.05278c-0.01955,-0.20526 -0.07135,-0.4545 -0.15541,-0.74772c-0.0821,-0.29322 -0.17691,-0.55224 -0.28443,-0.77705c0.25413,0.00977 0.49359,0.01466 0.7184,0.01466c0.22481,0 0.38119,0 0.46916,0c0.15639,0 0.23458,-0.08308 0.23458,-0.24924v-11.81694M195.80416,294.31065h4.25175v1.31951h-4.25175v-1.31951M196.0534,293.06445l1.56875,0.29322c-0.37141,0.79171 -0.83569,1.58341 -1.39281,2.37512c-0.55713,0.79171 -1.23643,1.52965 -2.03791,2.21385c-0.06842,-0.11729 -0.16128,-0.24729 -0.27856,-0.38999c-0.11729,-0.14074 -0.24142,-0.27954 -0.3724,-0.41638c-0.13293,-0.13684 -0.25315,-0.24435 -0.36067,-0.32254c0.46916,-0.37141 0.88944,-0.7702 1.26087,-1.19635c0.37141,-0.4242 0.69103,-0.85622 0.95885,-1.29605c0.26977,-0.43983 0.48773,-0.86012 0.65389,-1.26087M199.57209,294.31065h0.35187l0.24924,-0.05865l1.04095,0.68908c-0.19549,0.33232 -0.42713,0.68126 -0.69494,1.04681c-0.26977,0.36751 -0.55321,0.72426 -0.85035,1.07027c-0.29909,0.34796 -0.58058,0.65389 -0.84449,0.91779c-0.13684,-0.11729 -0.31277,-0.24729 -0.5278,-0.38999c-0.21503,-0.14074 -0.40563,-0.25022 -0.57179,-0.32841c0.23458,-0.25413 0.47111,-0.53758 0.7096,-0.85035c0.24044,-0.31277 0.4633,-0.62848 0.66855,-0.94712c0.20526,-0.31668 0.36164,-0.5972 0.46916,-0.84156v-0.30788M193.22379,301.12812h9.16326v1.33417h-9.16326v-1.33417M194.19143,296.78839h7.28662v4.72091h-1.56875v-3.51869h-4.22243v3.51869h-1.49544v-4.72091M198.44318,302.02245c0.2639,0.50826 0.606,0.98719 1.02628,1.4368c0.42029,0.44961 0.90215,0.84057 1.4456,1.1729c0.54149,0.33232 1.125,0.60111 1.75055,0.80637c-0.15639,0.14661 -0.33037,0.34209 -0.52194,0.58645c-0.18962,0.24435 -0.33819,0.45938 -0.4457,0.6451c-0.66464,-0.25413 -1.28042,-0.59134 -1.84731,-1.01162c-0.5669,-0.42029 -1.0732,-0.90704 -1.5189,-1.46026c-0.44375,-0.55126 -0.82201,-1.14944 -1.13478,-1.79453l1.24621,-0.38119M197.09434,297.68274h1.53943v1.94994c0,0.42029 -0.03421,0.86696 -0.10263,1.34004c-0.06842,0.47502 -0.20037,0.96178 -0.39585,1.46026c-0.19549,0.49848 -0.48382,0.99892 -0.86501,1.50131c-0.38119,0.50434 -0.87674,0.99599 -1.48665,1.47492c-0.61186,0.47893 -1.37718,0.92854 -2.29594,1.34883c-0.10752,-0.15639 -0.26684,-0.34209 -0.47796,-0.55713c-0.20917,-0.21503 -0.40661,-0.39585 -0.59231,-0.54247c0.87967,-0.36164 1.61078,-0.74772 2.19331,-1.15824c0.58058,-0.41051 1.03899,-0.83374 1.37522,-1.26966c0.33819,-0.43397 0.58547,-0.86403 0.74186,-1.29019c0.15639,-0.4242 0.25706,-0.83471 0.30202,-1.23155c0.04301,-0.39488 0.06451,-0.76336 0.06451,-1.10545zM204.24902,300.67362h6.96408v1.36349h-6.96408v-1.36349M206.99066,299.28081h1.49544v5.86449h-1.49544v-5.86449M203.75054,304.67613c0.63532,-0.08797 1.37033,-0.20037 2.20504,-0.3372c0.83667,-0.13684 1.71927,-0.28639 2.64782,-0.44864c0.92854,-0.16029 1.8522,-0.31864 2.77097,-0.47502l0.08797,1.34883c-0.86989,0.16616 -1.74469,0.33232 -2.62436,0.49848c-0.87967,0.16616 -1.7222,0.3245 -2.5276,0.47502c-0.80735,0.15248 -1.54334,0.28736 -2.20798,0.40465l-0.35187,-1.46612M203.89715,293.94412h7.62383v1.36349h-7.62383v-1.36349M208.26619,296.09932l1.11425,-0.67442c0.27368,0.32254 0.54735,0.67442 0.82103,1.05561c0.27368,0.38119 0.5278,0.75456 0.76239,1.12011c0.23458,0.36751 0.4154,0.69787 0.54247,0.9911l-1.20222,0.77705c-0.11729,-0.29322 -0.28834,-0.63043 -0.51314,-1.01162c-0.22481,-0.38119 -0.47111,-0.7702 -0.73893,-1.16703c-0.26977,-0.39488 -0.53172,-0.75847 -0.78584,-1.09079M212.16607,294.38396h1.45146v8.89936h-1.45146v-8.89936M214.99569,293.24038h1.53943v11.43575c0,0.42029 -0.0518,0.74772 -0.15541,0.9823c-0.10165,0.23458 -0.28443,0.4154 -0.54833,0.54247c-0.2639,0.11729 -0.60111,0.19549 -1.01162,0.23458c-0.41051,0.0391 -0.89922,0.05865 -1.46612,0.05865c-0.02932,-0.21503 -0.09774,-0.46916 -0.20526,-0.76239c-0.10752,-0.29322 -0.21992,-0.54735 -0.3372,-0.76239c0.40074,0.00977 0.77705,0.01662 1.12892,0.02052c0.35187,0.00586 0.59134,0.0088 0.7184,0.0088c0.13684,0 0.22676,-0.02444 0.26977,-0.07331c0.04496,-0.04887 0.06744,-0.13684 0.06744,-0.2639v-11.42108M204.68886,299.19284c-0.02932,-0.10752 -0.07331,-0.24729 -0.13195,-0.41931c-0.05865,-0.17007 -0.12022,-0.34796 -0.18473,-0.53366c-0.06255,-0.18571 -0.12315,-0.34698 -0.1818,-0.48382c0.10752,-0.02932 0.21992,-0.10067 0.3372,-0.21405c0.11729,-0.11142 0.23458,-0.25022 0.35187,-0.41638c0.07819,-0.11729 0.20232,-0.31766 0.3724,-0.60111c0.17202,-0.28345 0.35089,-0.6187 0.5366,-1.00576c0.18571,-0.3851 0.34698,-0.78291 0.48382,-1.19342l1.52477,0.57179c-0.19549,0.41051 -0.41833,0.82787 -0.66855,1.25207c-0.24826,0.42616 -0.50728,0.83178 -0.77705,1.21688c-0.26781,0.38706 -0.53366,0.73208 -0.79757,1.03509v0.02932c0,0 -0.04398,0.02444 -0.13195,0.07331c-0.08797,0.04887 -0.18766,0.11241 -0.29909,0.1906c-0.11338,0.07819 -0.21405,0.16128 -0.30202,0.24924c-0.08797,0.08797 -0.13195,0.17105 -0.13195,0.24924M204.68886,299.19284l-0.02932,-1.09959l0.73306,-0.46916l4.58896,-0.30788c0.08797,0.19549 0.19549,0.40758 0.32254,0.63629c0.12707,0.23067 0.23458,0.4242 0.32254,0.58058c-0.96764,0.08797 -1.78379,0.16128 -2.44842,0.21992c-0.66464,0.05865 -1.20417,0.10752 -1.6186,0.14661c-0.41638,0.0391 -0.74674,0.07331 -0.9911,0.10263c-0.24435,0.02932 -0.43006,0.05865 -0.55713,0.08797c-0.12707,0.02932 -0.23458,0.06353 -0.32254,0.10263zM224.26158,293.65089h5.6299v1.36349h-5.6299v-1.36349M225.83033,294.82379c0.48871,1.1338 1.22861,2.08385 2.21971,2.85014c0.99305,0.76825 2.21775,1.30387 3.6741,1.60687c-0.10752,0.10752 -0.22481,0.24142 -0.35187,0.40172c-0.12707,0.16225 -0.24631,0.33134 -0.35774,0.50728c-0.11338,0.17594 -0.20917,0.3372 -0.28736,0.48382c-1.52477,-0.42029 -2.79247,-1.09275 -3.80312,-2.01739c-1.0126,-0.92268 -1.79746,-2.08775 -2.35459,-3.49524l1.26087,-0.3372M229.39301,293.65089h0.29322l0.27856,-0.04398l0.95298,0.3372c-0.31277,1.20222 -0.77411,2.23828 -1.38402,3.10818c-0.61186,0.86989 -1.34492,1.59319 -2.19918,2.16986c-0.85622,0.57667 -1.80235,1.03117 -2.83841,1.36349c-0.04887,-0.13684 -0.11729,-0.28834 -0.20526,-0.4545c-0.08797,-0.16616 -0.18571,-0.33037 -0.29322,-0.49262c-0.10752,-0.16029 -0.21015,-0.2942 -0.30788,-0.40172c0.68419,-0.17594 1.33124,-0.42322 1.94115,-0.74186c0.61186,-0.31668 1.16703,-0.70276 1.66551,-1.15824c0.49848,-0.45352 0.92854,-0.96666 1.29019,-1.53943c0.36164,-0.57081 0.63043,-1.20808 0.80637,-1.91183v-0.23458M219.04218,294.00277h1.42214v6.11372h-1.42214v-6.11372M221.91578,293.44564h1.40747v7.08137h-1.40747v-7.08137M219.08616,301.42134h11.8316v1.39281h-11.8316v-1.39281M218.39709,304.99868h13.12179v1.40747h-13.12179v-1.40747M227.25247,302.74085l1.58341,0.32254c-0.12707,0.34209 -0.25902,0.68908 -0.39585,1.04095c-0.13684,0.35187 -0.27172,0.68419 -0.40465,0.99696c-0.13097,0.31277 -0.25511,0.59134 -0.3724,0.83569l-1.42214,-0.30788c0.12707,-0.2639 0.25413,-0.56494 0.38119,-0.90313c0.12707,-0.33623 0.24729,-0.67832 0.36067,-1.02628c0.11142,-0.34601 0.20135,-0.66562 0.26977,-0.95885M221.1534,303.10738l1.45146,-0.39585c0.18571,0.29322 0.35187,0.62066 0.49848,0.9823c0.14661,0.36164 0.25413,0.67442 0.32254,0.93832l-1.56875,0.46916c-0.0391,-0.27368 -0.12511,-0.59622 -0.25804,-0.96764c-0.13097,-0.37141 -0.27954,-0.71352 -0.4457,-1.02628M223.88038,300.3804l1.40747,-0.36653c0.16616,0.2639 0.31571,0.55713 0.44864,0.87967c0.13097,0.32254 0.21601,0.61089 0.25511,0.86501l-1.48078,0.42517c-0.02932,-0.24435 -0.10263,-0.53758 -0.21992,-0.87967c-0.11729,-0.34209 -0.25413,-0.64998 -0.41051,-0.92365zM234.09926,293.70954h1.58341v5.27804c0,0.59622 -0.01955,1.23838 -0.05865,1.92649c-0.0391,0.69005 -0.11436,1.38891 -0.22578,2.09655c-0.11338,0.7096 -0.27954,1.38891 -0.49848,2.03791c-0.2209,0.65096 -0.51706,1.24034 -0.88847,1.76814c-0.08797,-0.09774 -0.21797,-0.2033 -0.38999,-0.31668c-0.17007,-0.11142 -0.34307,-0.2209 -0.519,-0.32841c-0.17594,-0.10752 -0.33232,-0.1906 -0.46916,-0.24924c0.34209,-0.48871 0.61089,-1.0214 0.80637,-1.59807c0.19549,-0.57667 0.34014,-1.1729 0.43397,-1.78867c0.09187,-0.61577 0.15248,-1.22666 0.1818,-1.83265c0.02932,-0.606 0.04398,-1.17779 0.04398,-1.71536v-5.27804M235.18419,293.70954h10.43878v3.7826h-10.43878v-1.33417h8.75274v-1.11425h-8.75274v-1.33417M235.82927,302.12508h10.43878v1.33417h-10.43878v-1.33417M236.16649,299.14886h9.67641v1.30485h-9.67641v-1.30485M242.10428,299.55937h1.58341v7.18399h-1.58341v-7.18399M238.18973,299.58869h1.52477v2.27249c0,0.44961 -0.03421,0.90411 -0.10263,1.36349c-0.06842,0.45938 -0.20526,0.90118 -0.41051,1.32538c-0.20526,0.42616 -0.50826,0.82689 -0.90899,1.20222c-0.40074,0.37728 -0.93832,0.71742 -1.61273,1.02042c-0.06842,-0.11729 -0.16421,-0.24924 -0.28736,-0.39585c-0.1212,-0.14661 -0.24729,-0.29322 -0.37826,-0.43983c-0.13293,-0.14661 -0.26292,-0.2639 -0.38999,-0.35187c0.57667,-0.24435 1.03313,-0.51314 1.36936,-0.80637c0.33819,-0.29322 0.59524,-0.60404 0.77118,-0.93246c0.17594,-0.32646 0.29127,-0.66073 0.34601,-1.00283c0.05278,-0.34209 0.07917,-0.67931 0.07917,-1.01162v-2.24317M237.39802,297.90265l1.45146,-0.43983c0.12707,0.19549 0.26097,0.4154 0.40172,0.65976c0.1427,0.24435 0.25804,0.44961 0.34601,0.61577l-1.5101,0.49848c-0.06842,-0.17594 -0.17105,-0.39096 -0.30788,-0.6451c-0.13684,-0.25413 -0.2639,-0.48382 -0.38119,-0.68908M242.852,297.49214l1.67138,0.42517c-0.25413,0.38119 -0.51314,0.7575 -0.77705,1.12892c-0.2639,0.37141 -0.49848,0.68908 -0.70374,0.95298l-1.1729,-0.39585c0.11729,-0.20526 0.23751,-0.43299 0.36067,-0.68321c0.1212,-0.24826 0.23849,-0.49751 0.35187,-0.74772c0.11142,-0.24826 0.20135,-0.47502 0.26977,-0.68028zM252.35247,294.1054h8.48885v1.30485h-8.48885v-1.30485M252.0739,302.31568h8.79673v1.30485h-8.79673v-1.30485M254.19978,293.04979h1.49544v3.28411h-1.49544v-3.28411M257.54254,293.04979h1.52477v3.28411h-1.52477v-3.28411M254.27308,299.48606v0.76239h4.35438v-0.76239h-4.35438M254.27308,297.6974v0.74772h4.35438v-0.74772h-4.35438M252.82163,296.58314h7.31595v4.77956h-7.31595v-4.77956M255.70989,301.20142h1.53943c-0.06842,0.70374 -0.18277,1.34394 -0.34307,1.92062c-0.16225,0.57667 -0.41443,1.09666 -0.75652,1.55995c-0.34209,0.46525 -0.81614,0.86892 -1.42214,1.21101c-0.606,0.34209 -1.38793,0.62555 -2.3458,0.85035c-0.06842,-0.18571 -0.18277,-0.40367 -0.34307,-0.65389c-0.16225,-0.24826 -0.31668,-0.45059 -0.4633,-0.60697c0.85035,-0.17594 1.53454,-0.39096 2.05257,-0.6451c0.51803,-0.25413 0.91877,-0.56006 1.20222,-0.91779c0.28345,-0.35578 0.48675,-0.75847 0.6099,-1.20808c0.1212,-0.44961 0.21112,-0.95298 0.26977,-1.5101M257.60118,302.77017c0.28345,0.67442 0.736,1.23838 1.35763,1.6919c0.61968,0.45548 1.38402,0.77607 2.29301,0.96178c-0.10752,0.09774 -0.22481,0.22481 -0.35187,0.38119c-0.12707,0.15639 -0.24435,0.31473 -0.35187,0.47502c-0.10752,0.16225 -0.19549,0.3118 -0.2639,0.44864c-1.01651,-0.28345 -1.8522,-0.73795 -2.50707,-1.36349c-0.65487,-0.62555 -1.15335,-1.40259 -1.49544,-2.33114l1.31951,-0.2639M247.60223,295.82076h4.53031v1.45146h-4.53031v-1.45146M249.24429,293.04979h1.49544v13.67892h-1.49544v-13.67892M249.40557,296.8617l0.86501,0.3372c-0.09774,0.59622 -0.22481,1.21395 -0.38119,1.85318c-0.15639,0.64118 -0.33037,1.26673 -0.52194,1.87663c-0.18962,0.61186 -0.39683,1.18169 -0.62163,1.70949c-0.22481,0.5278 -0.45938,0.9823 -0.70374,1.36349c-0.04887,-0.15639 -0.11729,-0.33037 -0.20526,-0.52194c-0.08797,-0.18962 -0.18082,-0.38021 -0.27856,-0.57179c-0.09774,-0.18962 -0.19549,-0.35285 -0.29322,-0.48968c0.23458,-0.31277 0.46231,-0.68712 0.68321,-1.12305c0.21894,-0.43397 0.42127,-0.90313 0.60697,-1.40747c0.18571,-0.5024 0.34992,-1.0126 0.49262,-1.53063c0.14074,-0.51803 0.25999,-1.01651 0.35774,-1.49544M250.66643,297.6974c0.08797,0.11729 0.21992,0.30495 0.39585,0.56299c0.17594,0.25999 0.36458,0.54344 0.56592,0.85035c0.19939,0.30887 0.38217,0.59524 0.54833,0.85915c0.16616,0.2639 0.28345,0.4545 0.35187,0.57179l-0.95298,1.11425c-0.07819,-0.21503 -0.18766,-0.47697 -0.32841,-0.78584c-0.1427,-0.30691 -0.2942,-0.62652 -0.4545,-0.95885c-0.16225,-0.33232 -0.31961,-0.64021 -0.47209,-0.92365c-0.15052,-0.28345 -0.27954,-0.51803 -0.38706,-0.70374zM272.04248,293.94412l1.05561,-0.86501c0.22481,0.15639 0.4672,0.33232 0.72719,0.5278c0.25804,0.19549 0.49946,0.39292 0.72426,0.59231c0.22481,0.20135 0.40563,0.3851 0.54247,0.55126l-1.09959,0.95298c-0.12707,-0.16616 -0.29811,-0.3548 -0.51314,-0.56592c-0.21503,-0.20917 -0.44668,-0.41931 -0.69494,-0.63043c-0.25022,-0.20917 -0.49751,-0.39683 -0.74186,-0.56299M262.36608,295.6155h13.16577v1.53943h-13.16577v-1.53943M262.90854,298.97292h6.39229v1.52477h-6.39229v-1.52477M265.25433,299.82327h1.56875v5.05812h-1.56875v-5.05812M262.38074,304.74944c0.59622,-0.09774 1.29214,-0.21797 2.08775,-0.36067c0.79757,-0.14074 1.64401,-0.29713 2.53932,-0.46916c0.89336,-0.17007 1.78476,-0.33819 2.6742,-0.50434l0.11729,1.40747c-0.81125,0.17594 -1.63228,0.35382 -2.46308,0.53366c-0.8308,0.1818 -1.62935,0.35578 -2.39564,0.52194c-0.76825,0.16616 -1.47003,0.31277 -2.10535,0.43983l-0.4545,-1.56875M269.6527,293.10843h1.68604c-0.01955,1.25109 0.00782,2.46504 0.0821,3.64184c0.07233,1.17876 0.18473,2.27151 0.3372,3.27824c0.15052,1.00674 0.33526,1.89129 0.5542,2.65368c0.2209,0.76239 0.46818,1.35567 0.74186,1.77987c0.27368,0.42616 0.56201,0.63923 0.86501,0.63923c0.17594,0 0.30788,-0.21308 0.39585,-0.63923c0.08797,-0.4242 0.1515,-1.10545 0.1906,-2.04377c0.17594,0.17594 0.39585,0.35187 0.65976,0.5278c0.2639,0.17594 0.50337,0.303 0.7184,0.38119c-0.07819,0.90899 -0.19743,1.6098 -0.35774,2.10241c-0.16225,0.49457 -0.38217,0.8396 -0.65976,1.03509c-0.27954,0.19549 -0.64411,0.29322 -1.09373,0.29322c-0.51803,0 -0.97741,-0.17594 -1.37815,-0.5278c-0.40074,-0.35187 -0.75261,-0.84546 -1.05561,-1.48078c-0.303,-0.63532 -0.56201,-1.38109 -0.77705,-2.2373c-0.21503,-0.85426 -0.38901,-1.78965 -0.52194,-2.80616c-0.13097,-1.01651 -0.22871,-2.08189 -0.29322,-3.19615c-0.06255,-1.11425 -0.09383,-2.24806 -0.09383,-3.4014zM278.18553,308.40008l-1.20222,-0.51314c0.61577,-1.05561 1.0732,-2.18452 1.37229,-3.38674c0.29713,-1.20222 0.4457,-2.41421 0.4457,-3.63598c0,-1.212 -0.14857,-2.42204 -0.4457,-3.63012c-0.29909,-1.20613 -0.75652,-2.337 -1.37229,-3.39261l1.20222,-0.5278c0.68419,1.12403 1.21883,2.29888 1.60393,3.52456c0.38706,1.22763 0.58058,2.56963 0.58058,4.02597c0,1.45634 -0.19353,2.79541 -0.58058,4.01717c-0.3851,1.22177 -0.91975,2.39466 -1.60393,3.51869z" fill="#ffffff" fill-rule="nonzero" stroke-width="1" stroke-linecap="butt" stroke-linejoin="miter"/><path d="M140.73357,335.03841h8.93277v1.61241h-8.93277v-1.61241M140.73357,338.50509h8.93277v1.59629h-8.93277v-1.59629M140.73357,341.98791h8.93277v1.59629h-8.93277v-1.59629M139.55651,331.50722h11.54488v12.88318h-1.82203v-11.22239h-7.96532v11.25464h-1.75753v-12.91543M144.16801,329.36272l2.08001,0.22574c-0.18274,0.51597 -0.37838,1.02335 -0.58691,1.52212c-0.21069,0.50092 -0.4074,0.93412 -0.59014,1.2996l-1.58017,-0.29024c0.09675,-0.26874 0.18811,-0.56434 0.27411,-0.88683c0.08599,-0.32248 0.16661,-0.64819 0.24186,-0.97712c0.07525,-0.32678 0.12899,-0.62454 0.16124,-0.89327zM161.42083,332.94227h6.36903v1.66078h-6.36903v-1.66078M166.90304,332.94227h1.69304c0,0 0,0.05052 0,0.15156c0,0.10319 -0.00215,0.21929 -0.00645,0.34828c-0.00645,0.12899 -0.00967,0.23111 -0.00967,0.30636c-0.043,1.64466 -0.08814,3.03887 -0.13544,4.1826c-0.04945,1.14589 -0.10642,2.08968 -0.17092,2.83139c-0.0645,0.74171 -0.14511,1.32218 -0.24186,1.7414c-0.09675,0.41923 -0.21499,0.72021 -0.35473,0.90295c-0.18274,0.25798 -0.37408,0.4375 -0.57402,0.53855c-0.19779,0.10319 -0.43642,0.18167 -0.71591,0.23541c-0.25798,0.03225 -0.58047,0.05052 -0.96745,0.05483c-0.38698,0.00645 -0.79008,-0.00107 -1.20931,-0.02257c-0.0215,-0.24724 -0.07847,-0.5321 -0.17092,-0.85458c-0.0903,-0.32248 -0.21069,-0.60197 -0.36118,-0.83846c0.40847,0.03225 0.78256,0.05052 1.12224,0.05483c0.33753,0.00645 0.59229,0.00967 0.76428,0.00967c0.13975,0.01075 0.25476,-0.00322 0.34505,-0.04192c0.09244,-0.03655 0.18167,-0.10857 0.26766,-0.21606c0.09675,-0.11825 0.18274,-0.36548 0.25798,-0.74171c0.07525,-0.37623 0.13975,-0.9137 0.19349,-1.61241c0.05375,-0.69871 0.10212,-1.59414 0.14511,-2.68628c0.043,-1.08999 0.08599,-2.41432 0.12899,-3.97299v-0.37085M163.38797,329.66907h1.70916c0,1.21469 -0.01398,2.40249 -0.04192,3.56343c-0.0258,1.16094 -0.09244,2.27565 -0.19994,3.34414c-0.10749,1.07064 -0.27948,2.08432 -0.51597,3.04101c-0.23649,0.95669 -0.55897,1.83815 -0.96745,2.64436c-0.40847,0.8062 -0.9352,1.52642 -1.58017,2.16063c-0.09675,-0.15049 -0.22036,-0.30958 -0.37085,-0.47727c-0.15049,-0.16554 -0.30636,-0.32355 -0.4676,-0.47405c-0.16124,-0.15049 -0.31711,-0.26874 -0.4676,-0.35473c0.59122,-0.55897 1.0728,-1.20179 1.44472,-1.92845c0.36978,-0.72451 0.65464,-1.51996 0.85458,-2.38637c0.19779,-0.86425 0.33969,-1.7887 0.42568,-2.77335c0.08599,-0.9825 0.13759,-2.00907 0.15479,-3.07971c0.01505,-1.06849 0.02257,-2.16171 0.02257,-3.27964M154.61645,330.65264h6.32066v1.53179h-6.32066v-1.53179M154.06823,334.42569h7.14299v1.56404h-7.14299v-1.56404M158.74423,337.5054l1.4028,-0.38698c0.19349,0.46223 0.39235,0.95885 0.5966,1.48987c0.20424,0.53317 0.39235,1.04914 0.56434,1.54791c0.17199,0.50092 0.30098,0.93412 0.38698,1.2996l-1.49954,0.48372c-0.07525,-0.37623 -0.19134,-0.82018 -0.34828,-1.33185c-0.15479,-0.50952 -0.32893,-1.03624 -0.52242,-1.58017c-0.19349,-0.54177 -0.38698,-1.04914 -0.58047,-1.52212M154.74544,342.61675l-0.16124,-1.45117l0.75783,-0.56434l5.22421,-1.19319c0.0215,0.21499 0.0559,0.4676 0.10319,0.75783c0.04945,0.29024 0.10104,0.52672 0.15479,0.70947c-0.98895,0.23649 -1.81665,0.44073 -2.48312,0.61272c-0.66647,0.17199 -1.21469,0.31711 -1.64466,0.43535c-0.42997,0.11825 -0.77181,0.22036 -1.0255,0.30636c-0.25153,0.08599 -0.44718,0.15587 -0.58691,0.20961c-0.13975,0.05375 -0.25261,0.11287 -0.33861,0.17737M154.72932,342.61675c-0.0215,-0.11825 -0.0645,-0.27411 -0.12899,-0.4676c-0.0645,-0.19349 -0.13437,-0.39021 -0.20961,-0.59014c-0.07525,-0.19779 -0.14511,-0.36655 -0.20961,-0.5063c0.15049,-0.043 0.28486,-0.15909 0.40311,-0.34828c0.11825,-0.18704 0.24724,-0.43105 0.38698,-0.73204c0.0645,-0.15049 0.15372,-0.39235 0.26766,-0.72559c0.1118,-0.33323 0.23434,-0.72344 0.36763,-1.17061c0.13544,-0.44502 0.26766,-0.92875 0.39666,-1.45117c0.12899,-0.52027 0.23649,-1.03302 0.32248,-1.53824l1.70916,0.48372c-0.16124,0.70947 -0.36011,1.42968 -0.5966,2.16063c-0.23649,0.73096 -0.4891,1.43504 -0.75783,2.11226c-0.26874,0.67721 -0.53747,1.28455 -0.8062,1.82203v0.04837c0,0 -0.05912,0.02902 -0.17737,0.08707c-0.11825,0.06019 -0.25261,0.13867 -0.40311,0.23541c-0.15049,0.09675 -0.28271,0.19564 -0.39666,0.29669c-0.1118,0.10319 -0.16769,0.19779 -0.16769,0.28379zM175.94867,333.34537h8.11044v5.82081h-8.15881v-1.28993h6.5464v-3.24095h-6.49802v-1.28993M177.09348,340.311h1.53179v2.06389c0,0.19349 0.04085,0.31388 0.12254,0.36118c0.07954,0.04945 0.25906,0.07417 0.53855,0.07417c0.0645,0 0.17199,0 0.32248,0c0.15049,0 0.32033,0 0.50952,0c0.18704,0 0.36118,0 0.52242,0c0.16124,0 0.28486,0 0.37085,0c0.15049,0 0.26336,-0.02472 0.33861,-0.07417c0.07525,-0.0473 0.13222,-0.15156 0.17092,-0.31281c0.03655,-0.16124 0.06557,-0.40847 0.08707,-0.74171c0.13975,0.11825 0.34936,0.22789 0.62884,0.32893c0.27948,0.10319 0.52134,0.17629 0.72559,0.21929c-0.05375,0.53747 -0.14511,0.9481 -0.27411,1.23188c-0.12899,0.28593 -0.31388,0.4848 -0.55467,0.5966c-0.24294,0.11394 -0.56327,0.17092 -0.961,0.17092c-0.08599,0 -0.22574,0 -0.41923,0c-0.19349,0 -0.40311,0 -0.62884,0c-0.22574,0 -0.43213,0 -0.61917,0c-0.18919,0 -0.32678,0 -0.41278,0c-0.53747,0 -0.95133,-0.05375 -1.24156,-0.16124c-0.29024,-0.10749 -0.4891,-0.29561 -0.5966,-0.56434c-0.10749,-0.26874 -0.16124,-0.63959 -0.16124,-1.11256v-2.08001M175.52945,340.19813l1.32218,0.54822c-0.08599,0.33323 -0.19349,0.69011 -0.32248,1.07064c-0.12899,0.38268 -0.26874,0.75891 -0.41923,1.12869c-0.15049,0.37193 -0.31173,0.70302 -0.48372,0.99324l-1.30605,-0.8062c0.17199,-0.25798 0.33323,-0.5536 0.48372,-0.88683c0.15049,-0.33323 0.28808,-0.68044 0.41278,-1.04162c0.12254,-0.35903 0.22681,-0.69441 0.31281,-1.00614M178.27055,339.81115l1.04807,-0.8707c0.26874,0.19349 0.55575,0.41385 0.86103,0.66109c0.30743,0.24724 0.59874,0.4891 0.87393,0.72559c0.27303,0.23649 0.50092,0.45147 0.68366,0.64497l-1.09644,0.99969c-0.16124,-0.20424 -0.37838,-0.4332 -0.65141,-0.68688c-0.27519,-0.25153 -0.56327,-0.5063 -0.86425,-0.76428c-0.30098,-0.25798 -0.58584,-0.49447 -0.85458,-0.70947M182.09196,340.55286l1.3383,-0.49985c0.21499,0.32248 0.42461,0.67399 0.62884,1.05452c0.20424,0.38268 0.38913,0.75676 0.55467,1.12224c0.16769,0.36548 0.29991,0.69333 0.39666,0.98357l-1.4028,0.56434c-0.08599,-0.29024 -0.20961,-0.62347 -0.37085,-0.99969c-0.16124,-0.37623 -0.34076,-0.76106 -0.53855,-1.15449c-0.19994,-0.39128 -0.40202,-0.74816 -0.60627,-1.07064M176.31953,335.60275h6.98175v1.24156h-6.98175v-1.24156M170.59546,330.07218h3.80529v1.54791h-2.28962v12.81868h-1.51567v-14.3666M173.94928,330.07218h0.29024l0.24186,-0.0645l1.12869,0.64497c-0.13975,0.46223 -0.29238,0.95133 -0.45792,1.4673c-0.16769,0.51597 -0.33753,1.02335 -0.50952,1.52212c-0.17199,0.50092 -0.33861,0.961 -0.49985,1.38023c0.51597,0.63421 0.85458,1.22758 1.01582,1.78011c0.16124,0.55467 0.24186,1.07387 0.24186,1.55759c0,0.48372 -0.05375,0.89435 -0.16124,1.23188c-0.10749,0.33969 -0.28486,0.60089 -0.5321,0.78363c-0.12899,0.08599 -0.26874,0.15264 -0.41923,0.19994c-0.15049,0.04945 -0.31173,0.0903 -0.48372,0.12254c-0.30098,0.03225 -0.65571,0.043 -1.06419,0.03225c-0.01075,-0.20424 -0.04837,-0.45147 -0.11287,-0.74171c-0.0645,-0.29024 -0.15587,-0.53747 -0.27411,-0.74171c0.16124,0.01075 0.30421,0.01612 0.4289,0.01612c0.12254,0 0.23756,0 0.34505,0c0.20424,0 0.36011,-0.043 0.4676,-0.12899c0.10749,-0.08599 0.17951,-0.21284 0.21606,-0.38053c0.03869,-0.16554 0.05805,-0.36655 0.05805,-0.60305c0,-0.39773 -0.07847,-0.84383 -0.23541,-1.3383c-0.15479,-0.49447 -0.47942,-1.02657 -0.9739,-1.59629c0.12899,-0.36548 0.25261,-0.76321 0.37085,-1.19319c0.11825,-0.42997 0.23649,-0.85996 0.35473,-1.28993c0.11825,-0.42997 0.22574,-0.83308 0.32248,-1.20931c0.09675,-0.37623 0.17737,-0.69333 0.24186,-0.95133v-0.49985M178.59303,330.66877h3.32157v1.27381h-4.32127l0.99969,-1.27381M177.91582,329.50783l1.58017,0.29024c-0.38698,0.69871 -0.84598,1.39742 -1.377,2.09613c-0.53317,0.69871 -1.15986,1.35443 -1.88007,1.96714c-0.08599,-0.10749 -0.19349,-0.22896 -0.32248,-0.3644c-0.12899,-0.1333 -0.26336,-0.26229 -0.40311,-0.38698c-0.13975,-0.12254 -0.26874,-0.22144 -0.38698,-0.29669c0.64497,-0.49447 1.20071,-1.04054 1.66723,-1.63821c0.46868,-0.59552 0.84275,-1.15127 1.12224,-1.66723M181.49537,330.66877h0.33861l0.22574,-0.0645l1.03195,0.67721c-0.19349,0.32248 -0.41923,0.65786 -0.67721,1.00614c-0.25798,0.35043 -0.52672,0.68688 -0.8062,1.00937c-0.27948,0.32248 -0.54284,0.60734 -0.79008,0.85458c-0.13975,-0.10749 -0.31926,-0.22896 -0.53855,-0.3644c-0.22144,-0.1333 -0.41278,-0.24294 -0.57402,-0.32893c0.22574,-0.22574 0.45147,-0.4891 0.67721,-0.79008c0.22574,-0.30098 0.4375,-0.60519 0.63529,-0.91262c0.19994,-0.30528 0.35903,-0.57617 0.47727,-0.81266zM186.42936,330.39466h14.35047v1.43504h-14.35047v-1.43504M189.76705,333.31313h11.17403v1.45117h-11.17403v-1.45117M187.41293,336.00586h2.17676v1.38668h-2.17676v-1.38668M186.07462,338.45673h3.43444v1.41892h-3.43444v-1.41892M191.63745,341.56868h4.2729v1.09644h-4.2729v-1.09644M190.05728,329.37884h1.72528v3.35382h-1.72528v-3.35382M195.36213,329.37884h1.72528v3.4022h-1.72528v-3.4022M193.31436,336.13485h1.14482v1.85427h-1.14482v-1.85427M186.75184,333.45824h1.25769v4.30514h-1.25769v-4.30514M193.31436,340.11751h1.14482v1.8704h-1.14482v-1.8704M191.78256,337.47316h4.04716v3.16033h-4.04716v-1.04807h2.83784v-1.06419h-2.83784v-1.04807M191.07311,335.506h4.70825v1.09644h-3.48281v6.98175h-1.22543v-8.07819M189.00922,333.31313h1.43504v4.74049c0,0.65571 -0.02365,1.37055 -0.07095,2.14451c-0.04945,0.77396 -0.15156,1.53394 -0.30636,2.27995c-0.15694,0.74816 -0.39128,1.41247 -0.70302,1.99294c-0.08599,-0.07525 -0.20961,-0.15909 -0.37085,-0.25153c-0.16124,-0.0903 -0.32464,-0.17844 -0.49018,-0.26443c-0.16769,-0.08599 -0.31603,-0.15049 -0.44502,-0.19349c0.30098,-0.54822 0.51597,-1.15019 0.64497,-1.8059c0.12899,-0.65571 0.21284,-1.32218 0.25153,-1.9994c0.03655,-0.67721 0.05483,-1.31681 0.05483,-1.91877v-4.72437M195.89422,332.34568h1.54791c0,1.73066 0.06772,3.25707 0.20317,4.57925c0.1333,1.32218 0.30743,2.42937 0.52242,3.32157c0.21499,0.8922 0.44933,1.56404 0.70302,2.01552c0.25153,0.45147 0.49018,0.67721 0.71591,0.67721c0.10749,0 0.19349,-0.06235 0.25798,-0.18704c0.0645,-0.12254 0.12147,-0.33216 0.17092,-0.62884c0.0473,-0.29453 0.08169,-0.69978 0.10319,-1.21576c0.15049,0.15049 0.33323,0.29561 0.54822,0.43535c0.21499,0.13975 0.41385,0.24186 0.5966,0.30636c-0.0645,0.78471 -0.16877,1.37807 -0.31281,1.78011c-0.14619,0.40418 -0.33753,0.67614 -0.57402,0.81588c-0.23649,0.13975 -0.54284,0.20961 -0.91908,0.20961c-0.54822,0 -1.03409,-0.27948 -1.45763,-0.83846c-0.42568,-0.55897 -0.78578,-1.36518 -1.08032,-2.41862c-0.29669,-1.05344 -0.5278,-2.32725 -0.69333,-3.82141c-0.16769,-1.49417 -0.27841,-3.17108 -0.33216,-5.03073M198.10323,332.53917l1.01582,-0.75783c0.25798,0.15049 0.52672,0.33538 0.8062,0.55467c0.27948,0.22144 0.49447,0.4289 0.64497,0.62239l-1.08032,0.83846c-0.12899,-0.19349 -0.32786,-0.40847 -0.5966,-0.64497c-0.26874,-0.23649 -0.5321,-0.44073 -0.79008,-0.61272M198.82881,335.47376l1.53179,0.25798c-0.40847,1.9349 -1.01045,3.64083 -1.8059,5.11779c-0.79546,1.47912 -1.79515,2.69166 -2.99909,3.63761c-0.08599,-0.09675 -0.20424,-0.21284 -0.35473,-0.34828c-0.15049,-0.1333 -0.3085,-0.26443 -0.47405,-0.39343c-0.16769,-0.12899 -0.31066,-0.23111 -0.4289,-0.30636c1.20394,-0.8277 2.17676,-1.922 2.91847,-3.28287c0.74171,-1.35873 1.27918,-2.91954 1.61241,-4.68244M186.88083,338.98882h1.22543v1.38668c0,0.37623 -0.02688,0.8062 -0.08062,1.28993c-0.05375,0.48372 -0.16661,0.9696 -0.33861,1.45763c-0.17199,0.49018 -0.42461,0.92875 -0.75783,1.31573c-0.11825,-0.10749 -0.27948,-0.23111 -0.48372,-0.37085c-0.20424,-0.13975 -0.37623,-0.24724 -0.51597,-0.32248c0.27948,-0.34398 0.48695,-0.72021 0.62239,-1.12869c0.1333,-0.40847 0.22144,-0.8148 0.26443,-1.21898c0.043,-0.40202 0.0645,-0.75891 0.0645,-1.07064zM204.39163,329.39497l1.48342,0.37085c-0.21499,0.90295 -0.47835,1.82203 -0.79008,2.75723c-0.31173,0.9352 -0.65786,1.82203 -1.0384,2.66048c-0.38268,0.83846 -0.78901,1.58017 -1.21898,2.22513c-0.043,-0.11825 -0.11287,-0.28486 -0.20961,-0.49985c-0.09675,-0.21499 -0.20101,-0.42997 -0.31281,-0.64497c-0.11394,-0.21499 -0.21391,-0.39235 -0.29991,-0.5321c0.34398,-0.53747 0.66431,-1.14804 0.961,-1.8317c0.29453,-0.68152 0.56327,-1.4071 0.8062,-2.17676c0.24079,-0.76751 0.44718,-1.54362 0.61917,-2.32833M203.6338,333.61949l1.37055,-1.35443l0.03225,0.01612v12.10922h-1.4028v-10.77092M209.26112,341.60093l1.01582,-0.66109c0.25798,0.26874 0.52134,0.56112 0.79008,0.87715c0.26874,0.31819 0.52134,0.62991 0.75783,0.9352c0.23649,0.30743 0.41923,0.57939 0.54822,0.81588l-1.06419,0.77396c-0.12899,-0.24724 -0.3085,-0.52994 -0.53855,-0.84813c-0.23219,-0.31603 -0.47727,-0.64067 -0.73526,-0.9739c-0.25798,-0.33323 -0.51597,-0.63959 -0.77396,-0.91908M206.16529,330.36241h5.80469v10.30332h-1.4028v-9.07788h-3.06358v9.15851h-1.3383v-10.38394M215.22705,329.57233h1.43504v13.06054c0,0.39773 -0.04514,0.70947 -0.13544,0.9352c-0.09244,0.22574 -0.25153,0.40311 -0.47727,0.5321c-0.22574,0.12899 -0.51597,0.20961 -0.8707,0.24186c-0.35473,0.03225 -0.79546,0.04837 -1.32218,0.04837c-0.0215,-0.19349 -0.07525,-0.4332 -0.16124,-0.71914c-0.08599,-0.28379 -0.17737,-0.53317 -0.27411,-0.74816c0.34398,0.01075 0.65894,0.01612 0.94488,0.01612c0.28379,0 0.47942,0 0.58691,0c0.10749,-0.01075 0.18059,-0.03547 0.21929,-0.07417c0.03655,-0.03655 0.05483,-0.11394 0.05483,-0.23219v-13.06054M212.9213,330.91063h1.32218v9.85184h-1.32218v-9.85184M208.39042,332.47467h1.27381v5.85306c0,0.54822 -0.03762,1.10719 -0.11287,1.67691c-0.07525,0.56972 -0.22036,1.12546 -0.43535,1.66723c-0.21499,0.54392 -0.52672,1.05452 -0.9352,1.53179c-0.40847,0.47942 -0.94595,0.90188 -1.61241,1.26736c-0.05375,-0.09675 -0.13114,-0.20961 -0.23219,-0.33861c-0.10319,-0.12899 -0.21069,-0.25584 -0.32248,-0.38053c-0.11394,-0.12254 -0.21391,-0.21606 -0.29991,-0.28056c0.61272,-0.33323 1.09644,-0.70194 1.45117,-1.10611c0.35473,-0.40202 0.62131,-0.82663 0.79975,-1.27381c0.17629,-0.44502 0.29131,-0.90188 0.34505,-1.37055c0.05375,-0.46652 0.08062,-0.9309 0.08062,-1.39313zM223.27299,332.11994h8.51354v1.67691h-8.51354v-1.67691M231.0287,332.11994h1.75753c0,0 0,0.04837 0,0.14511c0,0.09675 0,0.20639 0,0.32893c0,0.12469 0,0.22467 0,0.29991c-0.043,1.32218 -0.08814,2.45301 -0.13544,3.39251c-0.04945,0.94165 -0.10857,1.71883 -0.17737,2.33155c-0.07095,0.61272 -0.15156,1.09859 -0.24186,1.45763c-0.09244,0.36118 -0.20854,0.62776 -0.34828,0.79975c-0.19349,0.24724 -0.39988,0.42461 -0.61917,0.5321c-0.22144,0.10749 -0.48802,0.17737 -0.79975,0.20961c-0.26874,0.03225 -0.61486,0.04837 -1.0384,0.04837c-0.42568,0 -0.86425,-0.00538 -1.31573,-0.01612c-0.0215,-0.26874 -0.08814,-0.56972 -0.19994,-0.90295c-0.11394,-0.33323 -0.25153,-0.62347 -0.41278,-0.8707c0.46223,0.03225 0.8922,0.05375 1.28993,0.0645c0.39773,0.01075 0.69333,0.01612 0.88683,0.01612c0.15049,0 0.27734,-0.01612 0.38053,-0.04837c0.10104,-0.03225 0.18919,-0.09137 0.26443,-0.17737c0.09675,-0.10749 0.18274,-0.32033 0.25798,-0.63852c0.07525,-0.31603 0.13975,-0.76213 0.19349,-1.3383c0.05375,-0.57402 0.10212,-1.2996 0.14511,-2.17676c0.043,-0.87501 0.08062,-1.92522 0.11287,-3.15065v-0.30636M226.46557,329.5562h1.85427c-0.03225,1.23619 -0.09352,2.44012 -0.18382,3.6118c-0.09244,1.17169 -0.27841,2.2864 -0.55789,3.34414c-0.27948,1.05989 -0.70086,2.03271 -1.26413,2.91847c-0.56542,0.88791 -1.33723,1.66509 -2.31542,2.33155c-0.12899,-0.21499 -0.3085,-0.44611 -0.53855,-0.69333c-0.23219,-0.24724 -0.46652,-0.44611 -0.70302,-0.5966c0.90295,-0.58047 1.60166,-1.26628 2.09613,-2.05744c0.49447,-0.78901 0.85135,-1.65433 1.07064,-2.59598c0.22144,-0.9395 0.36226,-1.93919 0.42245,-2.99909c0.05805,-1.05774 0.09782,-2.14558 0.11932,-3.26352M222.01531,334.7643v7.19136h-1.7414v-5.48221h-1.91877v-1.70916h3.66018M218.96785,330.45916l1.3383,-0.96745c0.29024,0.26874 0.59122,0.56112 0.90295,0.87715c0.31173,0.31819 0.60734,0.63529 0.88683,0.95133c0.27948,0.31819 0.49985,0.60089 0.66109,0.84813l-1.43504,1.11256c-0.16124,-0.25798 -0.37085,-0.55144 -0.62884,-0.88038c-0.25798,-0.32678 -0.53962,-0.66217 -0.84491,-1.00614c-0.30743,-0.34398 -0.60089,-0.65571 -0.88038,-0.9352M221.12848,340.76247c0.27948,0 0.55144,0.10212 0.81588,0.30636c0.26229,0.20424 0.62991,0.44611 1.10289,0.72559c0.54822,0.33323 1.19319,0.545 1.9349,0.63529c0.74171,0.09244 1.58017,0.13867 2.51536,0.13867c0.45147,0 0.9438,-0.01075 1.47697,-0.03225c0.53102,-0.0215 1.07387,-0.04837 1.62854,-0.08062c0.55252,-0.03225 1.08677,-0.07309 1.60274,-0.12254c0.51597,-0.0473 0.97819,-0.09782 1.38668,-0.15156c-0.0645,0.16124 -0.13652,0.36011 -0.21606,0.5966c-0.08169,0.23649 -0.15156,0.47297 -0.20961,0.70947c-0.06019,0.23649 -0.09567,0.44073 -0.10642,0.61272c-0.29024,0.0215 -0.66647,0.043 -1.12869,0.0645c-0.46223,0.0215 -0.95885,0.043 -1.48987,0.0645c-0.53317,0.0215 -1.06311,0.03762 -1.58984,0.04837c-0.52672,0.01075 -0.99969,0.01612 -1.41892,0.01612c-1.06419,0 -1.96177,-0.06235 -2.69273,-0.18704c-0.73096,-0.12254 -1.39742,-0.35581 -1.9994,-0.69978c-0.36548,-0.22574 -0.68797,-0.44395 -0.96745,-0.65464c-0.27948,-0.20854 -0.50522,-0.31281 -0.67721,-0.31281c-0.16124,0 -0.34398,0.10427 -0.54822,0.31281c-0.20424,0.21069 -0.416,0.47727 -0.63529,0.79975c-0.22144,0.32248 -0.43965,0.65571 -0.65464,0.99969l-1.25769,-1.72528c0.55897,-0.63421 1.11579,-1.13729 1.67046,-1.50922c0.55252,-0.36978 1.0384,-0.55467 1.45763,-0.55467zM239.55836,335.65113h9.90022v1.54791h-9.90022v-1.54791M246.16926,336.6347l1.88652,0.08062c-0.26874,1.52642 -0.71161,2.797 -1.32863,3.81174c-0.61917,1.0169 -1.44472,1.83708 -2.47667,2.46054c-1.03195,0.62347 -2.3165,1.12332 -3.85367,1.49954c-0.043,-0.13975 -0.11072,-0.30098 -0.20317,-0.48372c-0.0903,-0.18274 -0.18919,-0.36871 -0.29669,-0.55789c-0.10749,-0.18704 -0.21499,-0.33969 -0.32248,-0.45792c1.37592,-0.26874 2.52289,-0.65571 3.44089,-1.16094c0.92015,-0.50522 1.63821,-1.18029 2.15418,-2.02519c0.51597,-0.84275 0.8492,-1.89835 0.99969,-3.16678M240.47744,339.81115l1.12869,-1.12869c0.63421,0.30098 1.31466,0.63636 2.04132,1.00614c0.72451,0.37193 1.44687,0.75891 2.16708,1.16094c0.72021,0.40418 1.39528,0.80191 2.02519,1.19319c0.62776,0.39343 1.16201,0.75676 1.60274,1.08999l-1.22543,1.3383c-0.41923,-0.33323 -0.93198,-0.70194 -1.53824,-1.10611c-0.60841,-0.40202 -1.26736,-0.81588 -1.97682,-1.24156c-0.70947,-0.42352 -1.42645,-0.83415 -2.15096,-1.23188c-0.72666,-0.39773 -1.41785,-0.75783 -2.07356,-1.08032M243.29916,329.5562l1.7414,-0.27411c0.13975,0.39773 0.27411,0.8277 0.40311,1.28993c0.12899,0.46223 0.22574,0.86533 0.29024,1.20931l-1.83815,0.32248c-0.03225,-0.34398 -0.11072,-0.75783 -0.23541,-1.24156c-0.12254,-0.48372 -0.24294,-0.91908 -0.36118,-1.30605M240.47744,339.81115c0.23649,-0.41923 0.48158,-0.89005 0.73526,-1.41247c0.25153,-0.52027 0.49555,-1.06849 0.73204,-1.64466c0.23649,-0.57402 0.4547,-1.15127 0.65464,-1.73173c0.19779,-0.58047 0.36655,-1.13944 0.5063,-1.67691l1.77365,0.25798c-0.21499,0.78471 -0.4805,1.59307 -0.79653,2.42506c-0.31819,0.83415 -0.64712,1.63821 -0.9868,2.41217c-0.33753,0.77396 -0.66217,1.46192 -0.9739,2.06389l-1.64466,-0.69333M240.09046,331.29761h9.15851v3.35382h-1.67691v-1.83815h-5.86918v1.83815h-1.61241v-3.35382M234.28578,338.26323c0.47297,-0.10749 1.0083,-0.24186 1.60596,-0.40311c0.59552,-0.16124 1.22651,-0.33646 1.89298,-0.52565c0.66647,-0.18704 1.33293,-0.37193 1.9994,-0.55467l0.22574,1.54791c-0.9137,0.29024 -1.8403,0.57187 -2.7798,0.84491c-0.94165,0.27519 -1.79946,0.52565 -2.57341,0.75138l-0.37085,-1.66078M234.49538,332.47467h5.25647v1.61241h-5.25647v-1.61241M236.49478,329.37884h1.67691v13.20566c0,0.42997 -0.04837,0.76321 -0.14511,0.99969c-0.09675,0.23649 -0.27411,0.41923 -0.5321,0.54822c-0.24724,0.12899 -0.56112,0.21177 -0.94165,0.24831c-0.38268,0.03869 -0.84813,0.05805 -1.39635,0.05805c-0.03225,-0.22574 -0.09352,-0.48695 -0.18382,-0.78363c-0.09244,-0.29453 -0.19241,-0.55467 -0.29991,-0.78041c0.32248,0.01075 0.62884,0.01612 0.91908,0.01612c0.29024,0 0.4891,0 0.5966,0c0.11825,0 0.19886,-0.02472 0.24186,-0.07417c0.043,-0.0473 0.0645,-0.12469 0.0645,-0.23219zM257.06917,330.10442h6.86888v1.56404h-6.86888v-1.56404M257.14979,335.635h6.41741v1.64466h-6.41741v-1.64466M255.89211,342.29426h9.75509v1.70916h-9.75509v-1.70916M263.29309,330.12055h1.69304c-0.043,0.85996 -0.09675,1.7629 -0.16124,2.70885c-0.0645,0.94595 -0.13437,1.89727 -0.20961,2.85397c-0.07525,0.95669 -0.15049,1.89727 -0.22574,2.82172c-0.07525,0.92445 -0.15587,1.79515 -0.24186,2.61211c-0.08599,0.81696 -0.16661,1.55329 -0.24186,2.209h-1.7414c0.09675,-0.66647 0.19134,-1.41678 0.28379,-2.25093c0.0903,-0.83201 0.17844,-1.71023 0.26443,-2.63468c0.08599,-0.92445 0.16661,-1.86503 0.24186,-2.82172c0.07525,-0.95669 0.14297,-1.90265 0.20317,-2.83784c0.05805,-0.9352 0.10319,-1.82203 0.13544,-2.66048M259.55229,331.0235h1.72528c-0.07525,0.8062 -0.16124,1.65541 -0.25798,2.54762c-0.09675,0.8922 -0.19886,1.79193 -0.30636,2.69918c-0.10749,0.9094 -0.21714,1.79946 -0.32893,2.67016c-0.11394,0.8707 -0.22467,1.68981 -0.33216,2.45732c-0.10749,0.76966 -0.20961,1.46622 -0.30636,2.08968h-1.70916c0.10749,-0.63421 0.22036,-1.34368 0.33861,-2.12839c0.11825,-0.78471 0.23434,-1.61564 0.34828,-2.49279c0.1118,-0.87501 0.22144,-1.76398 0.32893,-2.66693c0.10749,-0.90295 0.20208,-1.79301 0.28379,-2.67016c0.07954,-0.87501 0.15156,-1.71023 0.21606,-2.50569M252.3448,329.37884l1.53179,0.45147c-0.19349,0.63421 -0.42997,1.26843 -0.70947,1.90265c-0.27948,0.63421 -0.588,1.23081 -0.92553,1.78978c-0.33969,0.55897 -0.70838,1.04807 -1.10611,1.4673c-0.043,-0.11825 -0.11287,-0.28486 -0.20961,-0.49985c-0.09675,-0.21499 -0.19886,-0.42997 -0.30636,-0.64497c-0.10749,-0.21499 -0.20961,-0.38698 -0.30636,-0.51597c0.44073,-0.49447 0.8363,-1.08569 1.18674,-1.77365c0.34828,-0.68797 0.62991,-1.41355 0.84491,-2.17676M252.48991,331.03962h4.16003v1.64466h-4.48251l0.32248,-1.64466M252.86077,344.40653l-0.30636,-1.54791l0.4676,-0.56434l3.22483,-1.90265c0.03225,0.22574 0.08922,0.48587 0.17092,0.78041c0.07954,0.29669 0.15694,0.53102 0.23219,0.70302c-0.75246,0.46223 -1.3598,0.8406 -1.82203,1.13514c-0.46223,0.29669 -0.82233,0.53102 -1.08032,0.70302c-0.25798,0.17199 -0.45147,0.3085 -0.58047,0.40955c-0.12899,0.10319 -0.23111,0.19779 -0.30636,0.28379M251.65146,334.00647h4.59538v1.51567h-4.59538v-1.51567M250.73238,337.31191h5.90143v1.53179h-5.90143v-1.53179M252.86077,344.40653c-0.05375,-0.10749 -0.12899,-0.23434 -0.22574,-0.38053c-0.09675,-0.14404 -0.19886,-0.28593 -0.30636,-0.42568c-0.10749,-0.13975 -0.20961,-0.25261 -0.30636,-0.33861c0.11825,-0.08599 0.25046,-0.20961 0.39666,-0.37085c0.14404,-0.16124 0.26981,-0.35795 0.3773,-0.59014c0.10749,-0.23004 0.16124,-0.4848 0.16124,-0.76428v-7.19136h1.54791v8.17494c0,0 -0.0559,0.04514 -0.16769,0.13544c-0.11394,0.09244 -0.25153,0.21069 -0.41278,0.35473c-0.16124,0.14619 -0.32464,0.30528 -0.49018,0.47727c-0.16769,0.17199 -0.30528,0.33861 -0.41278,0.49985c-0.10749,0.16124 -0.16124,0.30098 -0.16124,0.41923z" fill="#ffffff" fill-rule="nonzero" stroke-width="1" stroke-linecap="butt" stroke-linejoin="miter"/><path d="M139.55651,367.78872h13.90818v14.61095h-1.76508v-13.02564h-10.45974v13.02564h-1.68336v-14.61095M140.58614,380.24234h12.07773v1.53627h-12.07773v-1.53627M144.26339,376.54875l0.70276,-0.99694c0.45761,0.08716 0.93484,0.19829 1.43168,0.3334c0.49466,0.13728 0.9708,0.2822 1.42841,0.43473c0.45761,0.15254 0.84986,0.30507 1.17672,0.45761l-0.71911,1.095c-0.31597,-0.15254 -0.70276,-0.31379 -1.16038,-0.48376c-0.45761,-0.16779 -0.93702,-0.32578 -1.43821,-0.47395c-0.5012,-0.146 -0.97515,-0.26803 -1.42187,-0.36609M145.01519,369.42305l1.42187,0.4903c-0.30507,0.4794 -0.67008,0.95336 -1.095,1.42187c-0.42493,0.46851 -0.86838,0.90433 -1.33035,1.30747c-0.46415,0.40314 -0.92503,0.75725 -1.38265,1.06232c-0.07627,-0.09806 -0.1874,-0.21246 -0.3334,-0.34321c-0.14818,-0.13075 -0.29527,-0.26149 -0.44127,-0.39224c-0.14818,-0.13075 -0.2822,-0.23426 -0.40205,-0.31052c0.68642,-0.39224 1.35105,-0.87492 1.99389,-1.44802c0.64283,-0.57093 1.16582,-1.16692 1.56896,-1.78796M149.34618,370.71418h0.29418l0.24515,-0.06538l0.9806,0.58836c-0.42493,0.66463 -0.96643,1.27696 -1.62453,1.83699c-0.66027,0.56221 -1.38809,1.06341 -2.18347,1.50359c-0.79538,0.44236 -1.62343,0.82371 -2.48419,1.14403c-0.86075,0.32251 -1.72149,0.58727 -2.58225,0.79428c-0.05448,-0.13075 -0.1253,-0.28873 -0.21246,-0.47395c-0.08716,-0.18522 -0.18195,-0.36282 -0.28438,-0.53279c-0.1046,-0.16779 -0.20593,-0.30616 -0.30399,-0.41512c0.80627,-0.15254 1.62343,-0.35955 2.4515,-0.62105c0.82806,-0.26149 1.61254,-0.57201 2.35345,-0.93157c0.74089,-0.35955 1.40335,-0.75725 1.98735,-1.19306c0.58182,-0.43582 1.03616,-0.90433 1.36303,-1.40553v-0.22881M144.57392,371.79284c0.4794,0.51209 1.10045,0.97733 1.86314,1.39572c0.76269,0.42056 1.60382,0.78884 2.52341,1.10481c0.92176,0.31597 1.86205,0.55567 2.82086,0.71911c-0.16343,0.15254 -0.33994,0.35628 -0.52953,0.61124c-0.19176,0.25714 -0.34212,0.48921 -0.45108,0.69622c-0.9697,-0.21791 -1.92307,-0.51536 -2.86008,-0.89235c-0.93702,-0.37481 -1.8054,-0.82153 -2.60513,-1.34015c-0.80192,-0.51645 -1.48071,-1.09065 -2.03638,-1.72259l1.27478,-0.57201M144.94981,370.71418h4.88666v1.30747h-5.80189l0.91522,-1.30747M142.72712,378.64069l0.78448,-1.14403c0.55567,0.05448 1.13641,0.13293 1.7422,0.23534c0.60361,0.1046 1.20505,0.219 1.80431,0.34321c0.59926,0.12639 1.16582,0.2604 1.69971,0.40205c0.53388,0.14165 1.00784,0.28328 1.42187,0.42493l-0.76814,1.24209c-0.53388,-0.19612 -1.1789,-0.39224 -1.93505,-0.58836c-0.75833,-0.19612 -1.55153,-0.37589 -2.37959,-0.53933c-0.82806,-0.16343 -1.61799,-0.28873 -2.36979,-0.37589zM156.61896,367.85409h1.78142v4.82128c0,0.69732 -0.02179,1.46546 -0.06538,2.30441c-0.04358,0.83896 -0.1253,1.69644 -0.24515,2.57245c-0.11985,0.87818 -0.29636,1.72803 -0.52953,2.54956c-0.23534,0.82371 -0.54369,1.57332 -0.92503,2.24885c-0.10895,-0.08716 -0.26149,-0.19067 -0.45761,-0.31052c-0.19612,-0.11985 -0.39224,-0.23207 -0.58836,-0.33667c-0.19612,-0.10242 -0.37045,-0.17542 -0.52299,-0.219c0.35955,-0.63194 0.64283,-1.32381 0.84986,-2.0756c0.20701,-0.75179 0.36282,-1.5232 0.46742,-2.31422c0.10242,-0.78884 0.16779,-1.55915 0.19612,-2.31095c0.02615,-0.75179 0.03922,-1.45455 0.03922,-2.10829v-4.82128M157.91008,367.85409h11.424v4.5271h-11.424v-1.48725h9.65891v-1.55262h-9.65891v-1.48725M159.70785,373.49254h9.29936v1.53627h-9.29936v-1.53627M158.75994,376.35262h11.35862v1.51993h-11.35862v-1.51993M165.82026,378.64069l1.55262,-0.63739c0.26149,0.39224 0.54478,0.82261 0.84986,1.29113c0.30507,0.46851 0.59163,0.92286 0.85966,1.36303c0.26585,0.44236 0.48049,0.82698 0.64393,1.15384l-1.63433,0.75179c-0.15254,-0.33776 -0.35411,-0.73327 -0.60471,-1.18653c-0.2506,-0.45108 -0.52299,-0.91632 -0.81716,-1.39572c-0.29418,-0.4794 -0.57747,-0.92612 -0.84986,-1.34015M159.65882,382.28526c-0.03268,-0.11985 -0.08934,-0.27239 -0.16997,-0.45761c-0.08281,-0.18522 -0.16234,-0.37916 -0.23861,-0.58182c-0.07627,-0.20048 -0.15254,-0.37154 -0.22881,-0.51318c0.14165,-0.03268 0.28873,-0.11222 0.44127,-0.23861c0.15254,-0.12421 0.31052,-0.28438 0.47395,-0.48049c0.07627,-0.08716 0.19067,-0.23426 0.34321,-0.44127c0.15254,-0.20701 0.32142,-0.45217 0.50665,-0.73545c0.18522,-0.28328 0.36827,-0.59163 0.54914,-0.92503c0.17868,-0.33122 0.3443,-0.67117 0.49684,-1.01982l1.99389,0.47395c-0.28328,0.4903 -0.59926,0.98605 -0.94792,1.48725c-0.34866,0.5012 -0.70821,0.97188 -1.07866,1.41207c-0.37045,0.44236 -0.73545,0.82698 -1.095,1.15384v0.04903c0,0 -0.05448,0.02724 -0.16343,0.08172c-0.10895,0.05448 -0.23099,0.1253 -0.36609,0.21246c-0.13728,0.08716 -0.25714,0.17651 -0.35955,0.26803c-0.1046,0.0937 -0.15689,0.17868 -0.15689,0.25495M159.65882,382.28526l-0.06538,-1.24209l0.9806,-0.52299l7.25644,-0.45761c0.04358,0.21791 0.10133,0.45979 0.17324,0.72565c0.06973,0.26803 0.13184,0.48376 0.18632,0.6472c-1.40553,0.10895 -2.58442,0.20156 -3.5367,0.27784c-0.95445,0.07627 -1.7313,0.14165 -2.33056,0.19612c-0.59926,0.05448 -1.06994,0.10024 -1.41207,0.13728c-0.3443,0.03922 -0.60906,0.07736 -0.79428,0.1144c-0.18522,0.03922 -0.33776,0.08062 -0.45761,0.12421zM177.78359,368.40977h7.68137v1.68336h-7.68137v-1.68336M184.71316,368.40977h1.78142c0,0 -0.00327,0.05993 -0.00981,0.17978c-0.00435,0.11985 -0.00654,0.2506 -0.00654,0.39224c0,0.14165 0,0.25605 0,0.34321c-0.05448,2.04836 -0.10678,3.78294 -0.15689,5.20372c-0.04794,1.42296 -0.11005,2.59206 -0.18632,3.50728c-0.07627,0.91522 -0.16888,1.62562 -0.27784,2.13118c-0.10895,0.50773 -0.24515,0.87055 -0.40859,1.08847c-0.20701,0.30507 -0.41948,0.51754 -0.63739,0.63739c-0.21791,0.11985 -0.4794,0.20701 -0.78448,0.26149c-0.28328,0.04358 -0.63521,0.06538 -1.05578,0.06538c-0.41839,0 -0.85094,-0.00545 -1.29766,-0.01634c-0.01089,-0.26149 -0.06538,-0.56439 -0.16343,-0.90869c-0.09806,-0.34212 -0.22881,-0.63848 -0.39224,-0.88908c0.44672,0.04358 0.8553,0.06755 1.22575,0.07191c0.37045,0.00654 0.64828,0.00981 0.83351,0.00981c0.15254,0 0.27457,-0.02179 0.36609,-0.06538c0.0937,-0.04358 0.18413,-0.1253 0.2713,-0.24515c0.13075,-0.15254 0.24297,-0.46633 0.33667,-0.94138c0.09152,-0.47287 0.17324,-1.15384 0.24515,-2.04292c0.06973,-0.8869 0.12857,-2.01676 0.17651,-3.38961c0.05012,-1.37284 0.09697,-3.02896 0.14055,-4.96837v-0.42493M171.377,372.16873l6.50465,-1.27478l0.27784,1.58531l-6.4883,1.30747l-0.29418,-1.61799M180.18606,369.19424h1.74874c-0.01089,1.11135 -0.04358,2.19219 -0.09806,3.24252c-0.05448,1.05251 -0.16016,2.06362 -0.31706,3.03333c-0.15907,0.9697 -0.40205,1.87948 -0.72892,2.72934c-0.32687,0.84986 -0.77032,1.63433 -1.33035,2.35345c-0.56221,0.71911 -1.27914,1.3456 -2.15079,1.87948c-0.13075,-0.22881 -0.31597,-0.4794 -0.55567,-0.75179c-0.23971,-0.27239 -0.46851,-0.4903 -0.68642,-0.65373c0.80627,-0.46851 1.46219,-1.01655 1.96774,-1.64414c0.50773,-0.6254 0.90651,-1.31945 1.19633,-2.08214c0.28765,-0.76269 0.49684,-1.57768 0.62759,-2.44496c0.13075,-0.86511 0.21573,-1.77488 0.25495,-2.72934c0.03705,-0.95227 0.06101,-1.9296 0.07191,-2.932M173.35454,380.20966l-0.27784,-1.63433l0.62105,-0.58836l4.23293,-1.79776c0.02179,0.2506 0.05993,0.52516 0.1144,0.82371c0.05448,0.30072 0.10895,0.54369 0.16343,0.72892c-0.9697,0.43582 -1.75092,0.79538 -2.34363,1.07866c-0.59489,0.28328 -1.05796,0.51209 -1.38919,0.68642c-0.3334,0.17433 -0.57855,0.3127 -0.73545,0.41512c-0.15907,0.1046 -0.28765,0.20048 -0.38571,0.28765M173.35454,380.20966c-0.04358,-0.15254 -0.11113,-0.32687 -0.20266,-0.52299c-0.0937,-0.19612 -0.19176,-0.38679 -0.29418,-0.57201c-0.1046,-0.18522 -0.20593,-0.33776 -0.30399,-0.45761c0.18522,-0.09806 0.37045,-0.25932 0.55567,-0.48376c0.18522,-0.22227 0.27784,-0.50773 0.27784,-0.85639v-9.52817h1.69971v10.83563c0,0 -0.05993,0.03268 -0.17978,0.09806c-0.11985,0.06538 -0.26367,0.15472 -0.43146,0.26803c-0.16997,0.11549 -0.34212,0.24079 -0.51645,0.37589c-0.17433,0.13728 -0.31924,0.27893 -0.43473,0.42493c-0.11332,0.14818 -0.16997,0.28765 -0.16997,0.41839zM187.80205,375.53546c0.65373,-0.14165 1.43277,-0.33776 2.33709,-0.58836c0.90433,-0.2506 1.81956,-0.50665 2.74568,-0.76814l0.22881,1.58531c-0.83896,0.2506 -1.68881,0.50665 -2.54956,0.76814c-0.86075,0.26149 -1.64523,0.49575 -2.35345,0.70276l-0.40859,-1.69971M188.03086,370.28925h4.83763v1.61799h-4.83763v-1.61799M189.76325,367.15132h1.69971v13.18908c0,0.42493 -0.04576,0.76269 -0.13728,1.01328c-0.0937,0.2506 -0.2604,0.44672 -0.50011,0.58836c-0.22881,0.14165 -0.51754,0.23644 -0.8662,0.28438c-0.34866,0.05012 -0.77904,0.06973 -1.29113,0.05884c-0.02179,-0.22881 -0.07954,-0.50665 -0.17324,-0.83351c-0.09152,-0.32687 -0.19721,-0.6156 -0.31706,-0.8662c0.28328,0.01089 0.55022,0.01634 0.80082,0.01634c0.2506,0 0.42493,0 0.52299,0c0.17433,0 0.26149,-0.09261 0.26149,-0.27784v-13.17274M195.72858,368.54051h4.73957v1.4709h-4.73957v-1.4709M196.00641,367.15132l1.74874,0.32687c-0.41403,0.88254 -0.93157,1.76508 -1.55262,2.64762c-0.62105,0.88254 -1.37829,1.70515 -2.27173,2.46785c-0.07627,-0.13075 -0.17978,-0.27566 -0.31052,-0.43473c-0.13075,-0.15689 -0.26912,-0.31161 -0.41512,-0.46415c-0.14818,-0.15254 -0.2822,-0.27239 -0.40205,-0.35955c0.52299,-0.41403 0.99149,-0.85857 1.40553,-1.33361c0.41403,-0.47287 0.77032,-0.95445 1.06886,-1.44475c0.30072,-0.4903 0.54369,-0.95881 0.72892,-1.40553M199.92881,368.54051h0.39224l0.27784,-0.06538l1.16038,0.76814c-0.21791,0.37045 -0.47614,0.75942 -0.77467,1.16692c-0.30072,0.40967 -0.61669,0.80736 -0.94792,1.19306c-0.3334,0.38788 -0.6472,0.72892 -0.94138,1.02309c-0.15254,-0.13075 -0.34866,-0.27566 -0.58836,-0.43473c-0.23971,-0.15689 -0.45217,-0.27893 -0.63739,-0.36609c0.26149,-0.28328 0.52516,-0.59926 0.79102,-0.94792c0.26803,-0.34866 0.51645,-0.70059 0.74526,-1.05578c0.22881,-0.35301 0.40314,-0.66572 0.52299,-0.93811v-0.34321M192.85215,376.14016h10.21458v1.48725h-10.21458v-1.48725M193.9308,371.30253h8.12264v5.26255h-1.74874v-3.9224h-4.70688v3.9224h-1.66702v-5.26255M198.67038,377.13711c0.29418,0.56657 0.67553,1.10045 1.14403,1.60165c0.46851,0.5012 1.00566,0.93702 1.61146,1.30747c0.60361,0.37045 1.25408,0.67008 1.9514,0.89888c-0.17433,0.16343 -0.36827,0.38134 -0.58182,0.65373c-0.21138,0.27239 -0.37699,0.51209 -0.49684,0.71911c-0.74089,-0.28328 -1.42732,-0.65918 -2.05926,-1.12769c-0.63194,-0.46851 -1.19633,-1.01111 -1.69317,-1.6278c-0.49466,-0.61451 -0.91632,-1.28132 -1.26498,-2.00042l1.38919,-0.42493M197.16679,372.29948h1.71605v2.17367c0,0.46851 -0.03813,0.96643 -0.1144,1.49378c-0.07627,0.52953 -0.22336,1.07212 -0.44127,1.6278c-0.21791,0.55567 -0.53933,1.11353 -0.96426,1.67356c-0.42493,0.56221 -0.97733,1.11026 -1.65721,1.64414c-0.68206,0.53388 -1.53519,1.03508 -2.55936,1.50359c-0.11985,-0.17433 -0.29745,-0.38134 -0.53279,-0.62105c-0.23317,-0.23971 -0.45326,-0.44127 -0.66027,-0.60471c0.9806,-0.40314 1.79559,-0.83351 2.44496,-1.29113c0.6472,-0.45761 1.1582,-0.92939 1.53301,-1.41533c0.37699,-0.48376 0.65265,-0.96316 0.82698,-1.43821c0.17433,-0.47287 0.28655,-0.93048 0.33667,-1.37284c0.04794,-0.44018 0.07191,-0.85094 0.07191,-1.23229zM209.44064,373.49254h10.03481v1.56896h-10.03481v-1.56896M216.14141,374.48948l1.91217,0.08172c-0.27239,1.54717 -0.72128,2.83502 -1.34669,3.86356c-0.62759,1.03072 -1.46436,1.86205 -2.51034,2.494c-1.04598,0.63194 -2.348,1.13859 -3.90606,1.51993c-0.04358,-0.14165 -0.11113,-0.30507 -0.20266,-0.4903c-0.0937,-0.18522 -0.19503,-0.37372 -0.30399,-0.56548c-0.10895,-0.18959 -0.21791,-0.3443 -0.32687,-0.46415c1.39463,-0.27239 2.55828,-0.66463 3.49094,-1.17672c0.93048,-0.51209 1.65721,-1.19633 2.1802,-2.05273c0.52299,-0.85421 0.86075,-1.92415 1.01328,-3.20983M210.37221,377.70913l1.14403,-1.14403c0.64283,0.30507 1.33144,0.64502 2.0658,1.01982c0.73654,0.37699 1.46981,0.76922 2.19981,1.17672c0.73,0.40967 1.41315,0.81281 2.04946,1.20941c0.63848,0.39878 1.18108,0.76705 1.6278,1.10481l-1.24209,1.35649c-0.42493,-0.33776 -0.94465,-0.71148 -1.55915,-1.12115c-0.61669,-0.40749 -1.28459,-0.82698 -2.00369,-1.25844c-0.71911,-0.42928 -1.44693,-0.84549 -2.18347,-1.24863c-0.73436,-0.40314 -1.43386,-0.76814 -2.09848,-1.095M213.23229,367.31476l1.76508,-0.27784c0.14165,0.40314 0.27784,0.83896 0.40859,1.30747c0.13075,0.46851 0.22881,0.87709 0.29418,1.22575l-1.86314,0.32687c-0.03268,-0.34866 -0.11113,-0.76814 -0.23534,-1.25844c-0.12639,-0.4903 -0.24951,-0.93157 -0.36936,-1.32381M210.37221,377.70913c0.23971,-0.42493 0.48812,-0.90215 0.74526,-1.43168c0.25495,-0.52734 0.50228,-1.08302 0.74199,-1.66702c0.23971,-0.58182 0.45979,-1.16692 0.66027,-1.75527c0.20266,-0.58836 0.37481,-1.15493 0.51645,-1.69971l1.79776,0.26149c-0.21791,0.79538 -0.48812,1.61472 -0.81063,2.45803c-0.32033,0.84549 -0.65155,1.66048 -0.99367,2.44496c-0.3443,0.78448 -0.67444,1.4818 -0.99041,2.09195l-1.66702,-0.70276M209.97997,369.07984h9.28302v3.39941h-1.69971v-1.86314h-5.94897v1.86314h-1.63433v-3.39941M204.09636,376.14016c0.4794,-0.10895 1.022,-0.24515 1.6278,-0.40859c0.60361,-0.16343 1.24319,-0.34104 1.91871,-0.53279c0.67553,-0.18959 1.35105,-0.37699 2.02658,-0.56221l0.22881,1.56896c-0.92612,0.29418 -1.86641,0.57965 -2.82086,0.85639c-0.95227,0.27893 -1.82065,0.53279 -2.60513,0.7616l-0.37589,-1.68336M204.30883,370.27291h5.32793v1.63433h-5.32793v-1.63433M206.3354,367.13498h1.69971v13.38519c0,0.43582 -0.04903,0.77359 -0.14709,1.01328c-0.09806,0.23971 -0.27784,0.42493 -0.53933,0.55567c-0.2506,0.13075 -0.56984,0.21465 -0.95772,0.25168c-0.38571,0.03922 -0.85639,0.05884 -1.41207,0.05884c-0.03268,-0.22881 -0.09588,-0.49357 -0.18959,-0.79428c-0.09152,-0.29854 -0.19176,-0.56221 -0.30072,-0.79102c0.32687,0.01089 0.63739,0.01634 0.93157,0.01634c0.29418,0 0.49575,0 0.60471,0c0.11985,0 0.20156,-0.02506 0.24515,-0.07518c0.04358,-0.04794 0.06538,-0.12639 0.06538,-0.23534zM227.18951,367.87043h6.96227v1.58531h-6.96227v-1.58531M227.27123,373.4762h6.50465v1.66702h-6.50465v-1.66702M225.99645,380.226h9.88772v1.7324h-9.88772v-1.7324M233.49804,367.88678h1.71605c-0.04358,0.87165 -0.09806,1.78687 -0.16343,2.74568c-0.06538,0.95881 -0.1362,1.92307 -0.21246,2.89277c-0.07627,0.9697 -0.15254,1.92307 -0.22881,2.86008c-0.07627,0.93702 -0.15799,1.81956 -0.24515,2.64762c-0.08716,0.82806 -0.16888,1.57441 -0.24515,2.23903h-1.76508c0.09806,-0.67553 0.19285,-1.43604 0.28438,-2.28153c0.0937,-0.84332 0.18413,-1.73348 0.2713,-2.6705c0.08716,-0.93702 0.16888,-1.89038 0.24515,-2.86008c0.07627,-0.9697 0.14491,-1.92852 0.20593,-2.87643c0.05884,-0.94792 0.1046,-1.8468 0.13728,-2.69665M229.70639,368.802h1.74874c-0.07627,0.81716 -0.16343,1.67792 -0.26149,2.58225c-0.09806,0.90433 -0.20156,1.81629 -0.31052,2.73588c-0.10895,0.92176 -0.22009,1.82392 -0.3334,2.70646c-0.11549,0.88254 -0.22772,1.71279 -0.33667,2.49073c-0.10895,0.78012 -0.21246,1.48615 -0.31052,2.11809h-1.7324c0.10895,-0.64283 0.22336,-1.36194 0.34321,-2.15732c0.11985,-0.79538 0.23752,-1.6376 0.35301,-2.52668c0.11332,-0.8869 0.22445,-1.78796 0.3334,-2.70319c0.10895,-0.91522 0.20483,-1.81738 0.28765,-2.70646c0.08062,-0.8869 0.15362,-1.73348 0.219,-2.53975M222.40091,367.13498l1.55262,0.45761c-0.19612,0.64283 -0.43582,1.28568 -0.71911,1.92852c-0.28328,0.64283 -0.59599,1.24754 -0.93811,1.81411c-0.3443,0.56657 -0.71802,1.06232 -1.12115,1.48725c-0.04358,-0.11985 -0.1144,-0.28873 -0.21246,-0.50665c-0.09806,-0.21791 -0.20156,-0.43582 -0.31052,-0.65373c-0.10895,-0.21791 -0.21246,-0.39224 -0.31052,-0.52299c0.44672,-0.5012 0.84659,-1.10045 1.1996,-1.79776c0.3552,-0.69732 0.64175,-1.43277 0.85966,-2.20635M222.548,368.81834h4.21659v1.66702h-4.54345l0.32687,-1.66702M222.9239,382.36697l-0.31052,-1.56896l0.47395,-0.57201l3.26867,-1.92852c0.03268,0.22881 0.08934,0.49248 0.16997,0.79102c0.08281,0.30072 0.16234,0.53824 0.23861,0.71257c-0.76269,0.46851 -1.37829,0.85203 -1.8468,1.15058c-0.46851,0.30072 -0.83351,0.53824 -1.095,0.71257c-0.26149,0.17433 -0.45761,0.3127 -0.58836,0.41512c-0.13075,0.1046 -0.23426,0.20048 -0.31052,0.28765M221.69815,371.82552h4.65786v1.53627h-4.65786v-1.53627M220.76658,375.17591h5.98167v1.55262h-5.98167v-1.55262M222.9239,382.36697c-0.05448,-0.10895 -0.13075,-0.23752 -0.22881,-0.38571c-0.09806,-0.146 -0.20156,-0.28982 -0.31052,-0.43146c-0.10895,-0.14165 -0.21246,-0.25605 -0.31052,-0.34321c0.11985,-0.08716 0.25387,-0.21246 0.40205,-0.37589c0.146,-0.16343 0.27348,-0.36282 0.38243,-0.59816c0.10895,-0.23317 0.16343,-0.49139 0.16343,-0.77467v-7.28913h1.56896v8.28608c0,0 -0.05666,0.04576 -0.16997,0.13728c-0.11549,0.0937 -0.25495,0.21355 -0.41839,0.35955c-0.16343,0.14818 -0.33014,0.30943 -0.50011,0.48376c-0.16779,0.17433 -0.30616,0.34321 -0.41512,0.50665c-0.10895,0.16343 -0.16343,0.30507 -0.16343,0.42493z" fill="#ffffff" fill-rule="nonzero" stroke-width="1" stroke-linecap="butt" stroke-linejoin="miter"/><path d="M218.61918,202.4427c-0.78369,0 -1.4939,-0.11633 -2.13065,-0.34899c-0.63675,-0.23266 -1.17798,-0.59389 -1.6237,-1.08369c-0.44817,-0.4898 -0.79103,-1.13267 -1.02859,-1.9286c-0.24,-0.79593 -0.36001,-1.74493 -0.36001,-2.84698v-7.62257h2.40616v7.80625c0,0.96736 0.11633,1.7388 0.34899,2.31432c0.23266,0.57552 0.5547,0.98573 0.96614,1.23063c0.40899,0.2449 0.88287,0.36735 1.42166,0.36735c0.56328,0 1.05308,-0.12245 1.46941,-0.36735c0.41633,-0.2449 0.7445,-0.65511 0.98451,-1.23063c0.23755,-0.57552 0.35633,-1.34696 0.35633,-2.31432v-7.80625h2.33269v7.62257c0,1.10206 -0.11878,2.05105 -0.35633,2.84698c-0.24,0.79593 -0.58287,1.4388 -1.02859,1.9286c-0.44817,0.4898 -0.98818,0.85103 -1.62003,1.08369c-0.6294,0.23266 -1.34206,0.34899 -2.13799,0.34899zM227.1234,202.18555v-13.57369h2.42453v13.57369zM233.20309,188.0792l1.26737,-1.1939c0.33062,0.26939 0.68572,0.57185 1.06532,0.90736c0.3796,0.33796 0.73471,0.66858 1.06532,0.99185c0.33062,0.32572 0.60001,0.62327 0.80818,0.89267l-1.34084,1.35921c-0.19592,-0.26939 -0.45307,-0.57919 -0.77144,-0.9294c-0.31837,-0.34776 -0.66124,-0.6992 -1.02859,-1.0543c-0.36735,-0.35511 -0.72246,-0.6796 -1.06532,-0.97349M234.34188,203.48965l-0.44082,-1.74493l0.36735,-0.64287l3.60006,-2.90209c0.07347,0.25715 0.18368,0.54736 0.33062,0.87063c0.14694,0.32572 0.28164,0.58042 0.40409,0.76409c-0.84491,0.68572 -1.53064,1.24533 -2.05718,1.6788c-0.52654,0.43592 -0.93675,0.77879 -1.23063,1.02859c-0.29388,0.25225 -0.51062,0.44817 -0.65021,0.58776c-0.14204,0.14204 -0.2498,0.26205 -0.32327,0.36001M231.93572,192.32212h3.30618v1.89187h-3.30618v-1.89187M240.47668,187.25265h4.9409v1.8184h-4.9409v-1.8184M238.27256,194.65481h8.43075v1.83676h-8.43075v-1.83676M246.09718,194.65481h0.34899l0.34899,-0.07347l1.1939,0.51429c-0.3796,1.27349 -0.88777,2.38779 -1.52451,3.34291c-0.63675,0.95512 -1.38615,1.77799 -2.2482,2.46861c-0.8645,0.69307 -1.8135,1.27227 -2.84698,1.73758c-1.03594,0.46531 -2.14167,0.83879 -3.3172,1.12043c-0.08572,-0.25715 -0.21674,-0.55715 -0.39307,-0.90001c-0.17878,-0.34286 -0.35388,-0.61838 -0.52531,-0.82654c1.06532,-0.20817 2.07554,-0.50572 3.03066,-0.89267c0.95512,-0.3845 1.82452,-0.86818 2.60821,-1.45104c0.78369,-0.58042 1.46084,-1.26614 2.03146,-2.05718c0.56817,-0.78858 0.9992,-1.69105 1.29308,-2.70739v-0.27551M240.51341,196.14259c0.4898,0.99185 1.14247,1.88575 1.95799,2.68168c0.81308,0.79593 1.78044,1.46574 2.90209,2.00942c1.1192,0.54613 2.35841,0.95389 3.71761,1.22329c-0.1347,0.1347 -0.27796,0.30613 -0.4298,0.51429c-0.15429,0.20817 -0.29878,0.41878 -0.43348,0.63185c-0.1347,0.21551 -0.2449,0.41511 -0.33062,0.59879c-2.14289,-0.51429 -3.96129,-1.37145 -5.45519,-2.57147c-1.4939,-1.20002 -2.68168,-2.71229 -3.56332,-4.53681l1.63472,-0.55103M239.98075,187.25265h1.85513v2.05718c0,0.60001 -0.08572,1.21226 -0.25715,1.83676c-0.17143,0.6245 -0.48613,1.21839 -0.9441,1.78166c-0.46042,0.56328 -1.13145,1.04696 -2.01309,1.45104c-0.08572,-0.12245 -0.20817,-0.27919 -0.36735,-0.47021c-0.15919,-0.18858 -0.3245,-0.3747 -0.49593,-0.55838c-0.17143,-0.18368 -0.31837,-0.31837 -0.44082,-0.40409c0.78369,-0.34286 1.36533,-0.72001 1.74493,-1.13145c0.3796,-0.40899 0.62817,-0.83144 0.74573,-1.26737c0.1151,-0.43348 0.17266,-0.8645 0.17266,-1.29308v-2.00207M244.51756,187.25265h1.85513v4.07762c0,0.26939 0.01837,0.45919 0.0551,0.5694c0.03674,0.11021 0.12857,0.16531 0.27551,0.16531c0.06122,0 0.15919,0 0.29388,0c0.1347,0 0.27307,0 0.41511,0c0.13959,0 0.24613,0 0.3196,0c0.14694,0 0.31592,-0.0098 0.50695,-0.02939c0.18858,-0.01714 0.33796,-0.04408 0.44817,-0.08082c0.02449,0.2449 0.04898,0.52287 0.07347,0.83389c0.02449,0.31348 0.0551,0.58042 0.09184,0.80083c-0.1347,0.06122 -0.3,0.09796 -0.49593,0.11021c-0.19592,0.01225 -0.39184,0.01837 -0.58776,0.01837c-0.09796,0 -0.22898,0 -0.39307,0c-0.16653,0 -0.32939,0 -0.48858,0c-0.15919,0 -0.28164,0 -0.36735,0c-0.55103,0 -0.96981,-0.07959 -1.25635,-0.23878c-0.28898,-0.15919 -0.48491,-0.42001 -0.58776,-0.78246c-0.10531,-0.36001 -0.15796,-0.82165 -0.15796,-1.38492v-4.05925M234.34188,203.48965c-0.04898,-0.15919 -0.13102,-0.34286 -0.24613,-0.55103c-0.11755,-0.20817 -0.24613,-0.41633 -0.38572,-0.6245c-0.14204,-0.20817 -0.26817,-0.37347 -0.37837,-0.49593c0.1347,-0.08572 0.27307,-0.21429 0.41511,-0.38572c0.13959,-0.17143 0.25837,-0.37347 0.35633,-0.60613c0.09796,-0.23266 0.14694,-0.4898 0.14694,-0.77144v-7.73278h1.89187v9.16545c0,0 -0.09184,0.0698 -0.27551,0.20939c-0.18368,0.14204 -0.39184,0.31715 -0.6245,0.52531c-0.23266,0.20817 -0.44082,0.42858 -0.6245,0.66124c-0.18368,0.23266 -0.27551,0.4347 -0.27551,0.60613zM261.74641,188.63023v1.23063h2.40616v-1.23063h-2.40616M257.59532,188.63023v1.23063h2.35106v-1.23063h-2.35106M253.49934,188.63023v1.23063h2.29596v-1.23063h-2.29596M251.62584,187.30776h14.51044v3.89394h-14.51044v-3.89394M250.83603,192.04661h15.74107v1.46941h-15.74107v-1.46941M257.70553,190.79761l2.03881,0.11021c-0.08572,0.64899 -0.19592,1.33716 -0.33062,2.06452c-0.1347,0.72981 -0.26327,1.35798 -0.38572,1.88452h-1.83676c0.07347,-0.35511 0.14449,-0.76532 0.21306,-1.23063c0.06612,-0.46531 0.12735,-0.94655 0.18368,-1.4437c0.05388,-0.4947 0.09306,-0.95634 0.11755,-1.38492M250.59725,201.8733h16.49414v1.39594h-16.49414v-1.39594M253.82996,196.32627h9.9369v1.02859h-9.9369v-1.02859M253.90343,198.16303h9.84506v1.01022h-9.84506v-1.01022M253.9769,200.01817h9.88179v1.02859h-9.88179v-1.02859M252.81974,194.34256h11.93897v8.30218h-1.94697v-7.08991h-8.1185v7.08991h-1.8735z" fill="#ffffff" fill-rule="nonzero" stroke-width="1" stroke-linecap="butt" stroke-linejoin="miter"/><path d="" fill="#ffffff" fill-rule="nonzero" stroke-width="1" stroke-linecap="butt" stroke-linejoin="miter"/></g></g></svg>