<svg version="1.1" xmlns="http://www.w3.org/2000/svg" xmlns:xlink="http://www.w3.org/1999/xlink" width="208" height="32" viewBox="0,0,208,32"><g transform="translate(-240,-164)"><g stroke="none" stroke-miterlimit="10"><path d="M240.91838,171.52402h4.67478v1.9097h-2.74519v15.8147h-1.92959v-17.7244M245.19531,171.52402h0.37796l0.29839,-0.07957l1.39249,0.8156c-0.29176,0.83549 -0.6233,1.71342 -0.99464,2.63379c-0.37133,0.92302 -0.7294,1.76912 -1.07421,2.53831c0.75592,0.79571 1.24661,1.54765 1.47206,2.25583c0.22545,0.71083 0.34481,1.36464 0.35807,1.96142c0,0.61004 -0.07559,1.12725 -0.22678,1.55163c-0.15384,0.42438 -0.3899,0.75592 -0.70818,0.99464c-0.15914,0.11936 -0.34083,0.21219 -0.54506,0.2785c-0.20688,0.06631 -0.41642,0.11936 -0.62861,0.15914c-0.21219,0.01326 -0.44427,0.02254 -0.69624,0.02785c-0.25197,0.00796 -0.50395,0.01194 -0.75592,0.01194c-0.01326,-0.26524 -0.05968,-0.57424 -0.13925,-0.927c-0.07957,-0.35011 -0.19893,-0.65779 -0.35807,-0.92302c0.21219,0.01326 0.41112,0.02254 0.59678,0.02785c0.18566,0.00796 0.35144,0.01194 0.49732,0.01194c0.13262,-0.01326 0.25463,-0.03316 0.36603,-0.05968c0.11405,-0.02652 0.21086,-0.06631 0.29043,-0.11936c0.14588,-0.09283 0.248,-0.24932 0.30635,-0.46947c0.061,-0.21749 0.09151,-0.47875 0.09151,-0.78377c0,-0.50395 -0.11936,-1.07818 -0.35807,-1.72271c-0.23871,-0.64187 -0.71614,-1.32751 -1.43227,-2.05691c0.1724,-0.43764 0.34878,-0.91241 0.52915,-1.42432c0.17771,-0.50925 0.35011,-1.01585 0.51721,-1.5198c0.16445,-0.50395 0.31961,-0.98535 0.46549,-1.44421c0.14588,-0.45621 0.26524,-0.84345 0.35807,-1.16173v-0.57689M248.05986,173.4934h9.58828v1.96938h-9.58828v-1.96938M247.26415,178.32732h11.47809v2.02906h-11.47809v-2.02906M251.95883,170.84767h2.12852v16.23244h-2.12852v-16.23244M256.17608,181.84833h2.02906v7.34041h-2.02906v-7.34041M247.82115,181.84833h2.06884v4.51564h7.55923v1.92959h-9.62807zM262.30303,172.29983h14.14371v9.56839h-2.06884v-7.81783h-10.0856v7.81783h-1.98927v-9.56839M260.47291,182.60425h17.78408v1.81024h-17.78408v-1.81024M264.90898,177.09397h8.83236v1.43227h-8.83236v-1.43227M268.05202,181.54994h2.22798c-0.09283,0.86202 -0.24269,1.64446 -0.44958,2.34734c-0.20423,0.70287 -0.50262,1.34607 -0.89517,1.92959c-0.3899,0.58352 -0.91639,1.10073 -1.57948,1.55163c-0.66309,0.4509 -1.50919,0.83815 -2.53831,1.16173c-1.02646,0.32624 -2.27573,0.59545 -3.74778,0.80764c-0.03979,-0.1724 -0.11936,-0.37796 -0.23871,-0.61667c-0.11936,-0.23871 -0.24534,-0.47079 -0.37796,-0.69624c-0.13262,-0.22545 -0.26524,-0.41112 -0.39785,-0.557c1.33944,-0.15914 2.46006,-0.35807 3.36187,-0.59678c0.9018,-0.23871 1.63783,-0.52384 2.20809,-0.85539c0.57026,-0.33155 1.01718,-0.71614 1.34077,-1.15378c0.32624,-0.43764 0.56628,-0.93231 0.72012,-1.484c0.15118,-0.54904 0.27319,-1.16173 0.36603,-1.83809M270.81711,183.2806c0.57026,1.27313 1.50787,2.224 2.81283,2.85261c1.30761,0.63126 3.02236,1.02646 5.14425,1.18561c-0.15914,0.14588 -0.32226,0.34083 -0.48936,0.58485c-0.16445,0.24667 -0.31961,0.49599 -0.46549,0.74797c-0.14588,0.25197 -0.26524,0.48406 -0.35807,0.69624c-1.55163,-0.19893 -2.88179,-0.52384 -3.99048,-0.97474c-1.10603,-0.4509 -2.03038,-1.06758 -2.77304,-1.85002c-0.74266,-0.78245 -1.36597,-1.76382 -1.86991,-2.94412l1.98927,-0.29839M268.42999,174.36867h1.81024v6.70384h-1.81024v-6.70384M271.89132,174.48803l1.57152,0.67635c-0.2785,0.35807 -0.55037,0.70553 -0.8156,1.04238c-0.26524,0.3395 -0.51058,0.63524 -0.73603,0.88721l-1.21345,-0.59678c0.19893,-0.2785 0.41775,-0.61402 0.65646,-1.00657c0.23871,-0.3899 0.41775,-0.72409 0.5371,-1.00259M265.32672,175.18428l1.3527,-0.61667c0.21219,0.29176 0.43366,0.61667 0.66442,0.97474c0.23341,0.35807 0.41642,0.66309 0.54904,0.91506l-1.41238,0.67635c-0.11936,-0.25197 -0.29176,-0.56363 -0.51721,-0.93496c-0.22545,-0.37133 -0.43764,-0.70951 -0.63657,-1.01453M270.37947,179.58056l1.03442,-0.99464c0.26524,0.1724 0.55037,0.35807 0.85539,0.557c0.30502,0.19893 0.59678,0.39785 0.87528,0.59678c0.2785,0.19893 0.51058,0.37133 0.69624,0.51721l-1.05431,1.11399c-0.18566,-0.1724 -0.41377,-0.36205 -0.68431,-0.56893c-0.27319,-0.20423 -0.55965,-0.41642 -0.85936,-0.63657c-0.29706,-0.21749 -0.58485,-0.41244 -0.86334,-0.58485M268.25095,170.64874l2.36723,0.33818c-0.21219,0.46416 -0.41112,0.89782 -0.59678,1.30098c-0.18566,0.40581 -0.35807,0.7546 -0.51721,1.04636l-2.1683,-0.33818c0.1724,-0.33155 0.34481,-0.72012 0.51721,-1.16571c0.1724,-0.44294 0.30502,-0.83682 0.39785,-1.18163M268.01224,177.5714l1.3527,0.557c-0.2785,0.42438 -0.6233,0.85804 -1.03442,1.30098c-0.41112,0.4456 -0.83947,0.86069 -1.28507,1.24528c-0.44294,0.38459 -0.87661,0.70951 -1.30098,0.97474c-0.13262,-0.19893 -0.31563,-0.42438 -0.54904,-0.67635c-0.23076,-0.25197 -0.43897,-0.44427 -0.62463,-0.57689c0.41112,-0.21219 0.83284,-0.47079 1.26518,-0.77582c0.42968,-0.30502 0.83682,-0.63657 1.22141,-0.99464c0.38459,-0.35807 0.70287,-0.70951 0.95485,-1.05431zM280.58443,171.92187l1.69088,-0.97474c0.2785,0.31828 0.57291,0.67635 0.88324,1.07421c0.31298,0.39785 0.60209,0.78908 0.86732,1.17367c0.26524,0.38459 0.48406,0.7294 0.65646,1.03442l-1.81024,1.11399c-0.14588,-0.30502 -0.34878,-0.65646 -0.60872,-1.05431c-0.25728,-0.39785 -0.53445,-0.80632 -0.83151,-1.22539c-0.29972,-0.41642 -0.58219,-0.79703 -0.84743,-1.14184M279.88818,177.41226l1.73067,-0.91506c0.26524,0.31828 0.54373,0.67237 0.83549,1.06227c0.29176,0.39255 0.55965,0.77714 0.80367,1.15378c0.24667,0.37929 0.44294,0.72144 0.58882,1.02646l-1.85002,1.01453c-0.11936,-0.30502 -0.29839,-0.64983 -0.5371,-1.03442c-0.23871,-0.38459 -0.49467,-0.78245 -0.76786,-1.19356c-0.27054,-0.41112 -0.53843,-0.78245 -0.80367,-1.11399M280.36561,187.53764c0.23871,-0.50395 0.49732,-1.10073 0.77582,-1.79034c0.2785,-0.68961 0.55965,-1.42299 0.84345,-2.20013c0.28645,-0.77449 0.55567,-1.5397 0.80764,-2.29562l1.75056,1.23335c-0.21219,0.67635 -0.44162,1.37923 -0.68829,2.10863c-0.24402,0.7294 -0.49599,1.44554 -0.75592,2.14841c-0.25728,0.70287 -0.51854,1.3726 -0.78377,2.00916l-1.94948,-1.21345M294.74803,175.30363l1.55163,-0.8156c0.30502,0.29176 0.61402,0.61004 0.927,0.95485c0.31033,0.34481 0.59545,0.69227 0.85539,1.04238c0.25728,0.35276 0.45886,0.67503 0.60474,0.96679l-1.65109,0.91506c-0.13262,-0.29176 -0.32093,-0.61667 -0.56495,-0.97474c-0.24667,-0.35807 -0.51986,-0.72012 -0.81958,-1.08614c-0.29706,-0.36337 -0.59811,-0.69757 -0.90313,-1.00259M287.16891,184.3747h9.19043v1.6312h-9.19043v-1.6312M287.58666,181.76876h7.45976v-1.05431h-9.11086v-1.57152h11.12002v4.21725h-9.46893v-1.59142M286.91031,181.76876h2.08873c-0.15914,0.7294 -0.33155,1.47869 -0.51721,2.24788c-0.18566,0.76919 -0.3647,1.43227 -0.5371,1.98927h-2.12852c0.19893,-0.59678 0.39785,-1.27976 0.59678,-2.04895c0.19893,-0.76919 0.3647,-1.49858 0.49732,-2.1882M295.78245,184.3747h2.12852c0,0 -0.01326,0.09946 -0.03979,0.29839c-0.02652,0.19893 -0.05968,0.37133 -0.09946,0.51721c-0.18566,1.03442 -0.38725,1.83013 -0.60474,2.38712c-0.22015,0.557 -0.4761,0.96148 -0.76786,1.21345c-0.21219,0.1724 -0.43366,0.29441 -0.66442,0.36603c-0.23341,0.07427 -0.50262,0.11803 -0.80764,0.13129c-0.26524,0.02652 -0.6233,0.03979 -1.07421,0.03979c-0.4509,0 -0.94159,-0.01326 -1.47206,-0.03979c-0.01326,-0.26524 -0.06631,-0.56097 -0.15914,-0.88721c-0.09283,-0.32359 -0.21882,-0.61137 -0.37796,-0.86334c0.4509,0.03979 0.88589,0.06631 1.30496,0.07957c0.41642,0.01326 0.71746,0.01989 0.90313,0.01989c0.15914,0 0.29441,-0.01061 0.40581,-0.03183c0.11405,-0.01857 0.21749,-0.061 0.31033,-0.12731c0.1724,-0.15914 0.34878,-0.46416 0.52915,-0.91506c0.17771,-0.4509 0.33287,-1.10736 0.46549,-1.96938l0.01989,-0.21882M285.65707,172.3794h12.73133v1.73067h-12.73133v-1.73067M292.48026,173.35415h1.94948v5.31135h-1.94948v-5.31135M286.91031,174.50792l1.75056,0.51721c-0.31828,0.63657 -0.72277,1.26252 -1.21345,1.87787c-0.49069,0.618 -0.98137,1.13919 -1.47206,1.56357c-0.10609,-0.10609 -0.24534,-0.22545 -0.41775,-0.35807c-0.1724,-0.13262 -0.35409,-0.26921 -0.54506,-0.40979c-0.19362,-0.13792 -0.36337,-0.24667 -0.50925,-0.32624c0.49069,-0.37133 0.94424,-0.80897 1.36066,-1.31292c0.41907,-0.50395 0.76786,-1.02116 1.04636,-1.55163M288.95925,173.37404h1.92959v5.31135h-1.92959v-5.31135M290.45121,170.90734l1.98927,-0.45753c0.23871,0.39785 0.45488,0.84212 0.6485,1.33281c0.19097,0.49069 0.31961,0.91506 0.38592,1.27313l-2.12852,0.5371c-0.05305,-0.35807 -0.16577,-0.78908 -0.33818,-1.29303c-0.1724,-0.50395 -0.35807,-0.96811 -0.557,-1.39249z" fill="#ffffff" stroke-width="1"/><path d="M240,196v-32h208v32z" fill="none" stroke-width="0"/></g></g></svg>