<svg version="1.1" xmlns="http://www.w3.org/2000/svg" xmlns:xlink="http://www.w3.org/1999/xlink" width="208.28991" height="32" viewBox="0,0,208.28991,32"><g transform="translate(-239.71009,-164)"><g stroke-miterlimit="10"><path d="M298.90515,183.66567h-10.14388c-1.03412,1.23135 -2.29955,2.50667 -3.7963,3.82597l9.16419,-0.3738l-2.24512,-2.28679l1.0001,-1.07743c0.58509,0.5717 1.14637,1.12873 1.68384,1.67111c0.53747,0.54238 1.01031,1.01879 1.41851,1.42924c1.46954,1.49521 2.07504,2.10355 1.81651,1.82503l-1.06133,1.25333c-0.23132,-0.26386 -0.65313,-0.72561 -1.26543,-1.38526l-12.61351,0.59368l-0.38779,-1.56117c1.6056,-1.23135 3.01391,-2.53599 4.22491,-3.91392h-5.85773v-1.49521h2.69415v-11.43393h12.61351v11.43393h2.75538zM322.1728,180.43338l-0.65313,-1.36328c1.48314,-0.77692 2.71456,-1.62714 3.69425,-2.55065c-0.78919,-0.80624 -1.61241,-1.61248 -2.46964,-2.41872l0.89805,-1.01146c0.89805,0.8209 1.74847,1.62714 2.55128,2.41872c0.78919,-0.87953 1.50355,-1.93497 2.14307,-3.16632h-5.89855v-1.40725h7.49055v1.47322c-0.66673,1.39259 -1.44913,2.62394 -2.34717,3.69404h6.08224c-0.63952,-0.79158 -1.1974,-1.67844 -1.67364,-2.66059c-0.47624,-0.98214 -0.89805,-2.10355 -1.26543,-3.36421l1.38789,-0.28585c0.28574,0.96749 0.58509,1.78838 0.89805,2.46269c1.53757,-0.96749 2.66693,-1.74441 3.3881,-2.33076l0.81641,1.20936c-1.11576,0.77692 -2.31316,1.56117 -3.5922,2.35275c0.32656,0.55704 0.70755,1.10675 1.14297,1.64912c0.55788,-0.33715 1.18379,-0.73294 1.87774,-1.18737c0.69395,-0.45442 1.23822,-0.82823 1.63282,-1.1214l0.83682,1.20936c-0.57149,0.41045 -1.69405,1.1214 -3.36769,2.13287c0.9933,0.92351 2.34037,1.81037 4.04122,2.66059l-0.63272,1.51719c-2.24512,-1.17271 -3.9936,-2.49201 -5.24542,-3.9579v1.05544h-6.57209v-1.03345c-1.34707,1.53918 -3.06834,2.88047 -5.16378,4.02386zM257.92145,171.44016v1.64912h-9.02131c-0.74837,1.86168 -1.72126,3.66472 -2.91866,5.40913h10.1847v11.21405h-1.592v-1.51719h-9.24583v1.51719h-1.61241v-8.33357c-0.91166,1.02612 -1.94577,2.03758 -3.10235,3.03439l-0.61231,-1.86901c1.53757,-1.246 2.91186,-2.68624 4.12286,-4.32071c1.21101,-1.63447 2.17029,-3.34589 2.87784,-5.13427h-6.22511v-1.64912zM333.92908,184.87502l1.34707,0.5717c-0.31296,0.48374 -0.85723,1.246 -1.63282,2.28679h5.57199v1.47322h-17.1854v-1.47322h5.53117l-1.53077,-2.15486l1.14297,-0.76959c0.50345,0.65965 1.08854,1.45123 1.75528,2.37474l-0.81641,0.54971h3.77589c0.88444,-1.14339 1.56478,-2.09622 2.04102,-2.85848zM303.86484,189.8224h-1.4083v-12.20352h7.32727v10.02668c0,0.54238 -0.06463,0.96016 -0.1939,1.25333c-0.12927,0.29318 -0.34357,0.49474 -0.64292,0.60468c-0.29935,0.10994 -0.72116,0.16491 -1.26543,0.16491h-1.46954l-0.30615,-1.56117h1.53077c0.28574,0 0.48985,-0.02932 0.61231,-0.08795c0.12246,-0.05864 0.2007,-0.16125 0.23472,-0.30784c0.03402,-0.14659 0.05103,-0.3738 0.05103,-0.68164v-1.62714h-4.46984zM317.80501,184.1714l1.38789,0.39579c-0.05443,1.3193 -0.10885,2.21349 -0.16328,2.68258c-0.06803,0.77692 -0.27894,1.3193 -0.63272,1.62714c-0.35378,0.30784 -0.93887,0.46175 -1.75528,0.46175h-3.12276c-0.62591,0 -1.08854,-0.17591 -1.38789,-0.52772c-0.29935,-0.35181 -0.44902,-0.90152 -0.44902,-1.64912v-6.9703h1.46954v3.07837c0.92526,-0.42511 1.84372,-0.8832 2.75538,-1.37427c0.91166,-0.49107 1.64642,-0.9345 2.2043,-1.33029l0.75518,1.47322c-0.65313,0.41045 -1.53077,0.89419 -2.63292,1.45123c-1.10215,0.55704 -2.12947,1.04078 -3.08194,1.45123v1.6931c0,0.45442 0.08844,0.77326 0.26533,0.95649c0.17689,0.18324 0.46263,0.27485 0.85723,0.27485h1.89815c0.54427,0 0.91846,-0.09162 1.12256,-0.27485c0.2041,-0.18324 0.33337,-0.53138 0.38779,-1.04445c0.02721,-0.33715 0.05443,-0.74027 0.08164,-1.20936c0.02721,-0.46908 0.04082,-0.85754 0.04082,-1.16538zM316.70286,179.07011h-3.30645c-0.5987,0 -1.03752,-0.16858 -1.31646,-0.50573c-0.27894,-0.33715 -0.41841,-0.87953 -0.41841,-1.62714v-7.05825h1.42871v3.5841c0.92526,-0.41045 1.85393,-0.84655 2.78599,-1.30831c0.93207,-0.46175 1.63622,-0.84655 2.11246,-1.15439l0.65313,1.45123c-1.0069,0.60101 -2.85743,1.49521 -5.55158,2.68258v1.25333c0,0.45442 0.07484,0.76593 0.22451,0.9345c0.14968,0.16858 0.41501,0.25287 0.796,0.25287h2.10225c0.38099,0 0.65993,-0.02565 0.83682,-0.07696c0.17689,-0.05131 0.30615,-0.16858 0.38779,-0.35181c0.08164,-0.18324 0.13607,-0.47275 0.16328,-0.86854c0.01361,-0.26386 0.03062,-0.59735 0.05103,-1.00047c0.02041,-0.40312 0.03062,-0.73661 0.03062,-1.00047l1.38789,0.46175l-0.04082,0.72561l-0.08164,1.56117c-0.05443,0.77692 -0.24492,1.31197 -0.57149,1.60515c-0.32656,0.29318 -0.88444,0.43977 -1.67364,0.43977zM261.98308,189.86637l-1.51036,-0.96749c0.85723,-1.28998 1.46954,-2.40406 1.83692,-3.34223c0.36738,-0.93817 0.61231,-2.02659 0.73477,-3.26527c0.12246,-1.23868 0.18369,-3.06737 0.18369,-5.48609v-6.68445h1.61241v6.66246c0,2.59462 -0.06803,4.57357 -0.2041,5.93685c-0.13607,1.36328 -0.3946,2.55431 -0.77559,3.5731c-0.38099,1.01879 -1.0069,2.20983 -1.87774,3.5731zM275.27013,189.69047v-19.5916h1.61241v19.5916zM306.84473,172.2977l1.06133,-0.85754c1.12937,1.52452 2.18389,3.00507 3.16358,4.44164l-1.16338,0.96749c-0.34017,-0.52772 -0.6055,-0.93084 -0.796,-1.20936l-7.24563,0.50573l-0.18369,-1.36328c1.27904,-1.34862 2.49685,-3.06371 3.65343,-5.14527l1.42871,0.70363c-0.43542,0.70363 -0.93887,1.45123 -1.51036,2.24281c-0.57149,0.79158 -1.08854,1.46589 -1.55118,2.02293l4.51066,-0.32982c-0.42181,-0.64499 -0.87764,-1.30464 -1.36748,-1.97895zM269.22871,188.63503v-17.78855h1.592v17.78855zM336.7661,179.37794v5.23322h-12.24613v-5.23322zM245.32835,180.19151v6.35463h9.24583v-6.35463zM294.68024,182.17046v-2.41872h-9.65403v2.41872zM285.02621,175.99174v2.33076h9.65403v-2.33076zM285.02621,174.60648h9.65403v-2.30877h-9.65403zM335.23533,183.24789v-2.48468h-9.16419v2.48468zM308.33467,182.19245h-4.46984v1.84702h4.46984zM303.86484,180.82917h4.46984v-1.82503h-4.46984z" fill="#ffffff" fill-rule="evenodd" stroke="#ffffff" stroke-width="0.5" stroke-linecap="round"/><path d="M240,196v-32h208v32z" fill="none" fill-rule="nonzero" stroke="none" stroke-width="0" stroke-linecap="butt"/></g></g></svg>