<svg version="1.1" xmlns="http://www.w3.org/2000/svg" xmlns:xlink="http://www.w3.org/1999/xlink" width="180" height="40" viewBox="0,0,180,40"><g transform="translate(-150,-160)"><g stroke-linecap="round" stroke-miterlimit="10"><path d="M150,160h180v40h-180z" fill="none" fill-rule="nonzero" stroke="none" stroke-width="0.2" stroke-linejoin="round"/><path d="M183.50464,185.04314l-0.70664,1.09754c-1.73402,-1.22283 -3.09217,-2.40558 -4.07444,-3.54822c-1.09253,1.20279 -2.5459,2.39054 -4.36011,3.56326l-0.73671,-1.08251c1.83425,-1.17272 3.27258,-2.32038 4.315,-3.44298c-0.70163,-0.95221 -1.28548,-1.99462 -1.75156,-3.12725c-0.46608,-1.13263 -0.85949,-2.44066 -1.18024,-3.9241v-1.17272h7.44225v1.15768c-0.29067,1.47342 -0.66655,2.77894 -1.12761,3.91658c-0.46107,1.13764 -1.06246,2.18757 -1.80418,3.1498c0.98228,1.1226 2.31035,2.26024 3.98423,3.41291zM173.20577,172.36877l1.11258,0.33077c-0.33077,1.04242 -0.7317,2.09486 -1.20279,3.15732v10.28384h-1.12761v-8.04364c-0.49114,0.88204 -1.02237,1.67889 -1.59369,2.39054l-0.40594,-1.44335c0.57132,-0.75174 1.15267,-1.74154 1.74404,-2.96938c0.59137,-1.22785 1.08251,-2.46321 1.47342,-3.70609zM181.23437,174.57889h-5.03667c0.3007,1.28297 0.65151,2.41309 1.05244,3.39036c0.40093,0.97727 0.89708,1.87685 1.48845,2.69876c0.65151,-0.85197 1.17522,-1.76659 1.57114,-2.74386c0.39592,-0.97727 0.70413,-2.09235 0.92464,-3.34525z" fill="#ffffff" fill-rule="evenodd" stroke="#ffffff" stroke-width="0.45" stroke-linejoin="miter"/><path d="M186.99272,186.09558h-1.06747v-13.02018h11.77229v13.02018h-1.06747v-0.78181h-9.63734zM196.63006,174.08274h-9.63734v10.25377h9.63734zM196.28426,179.3299l-0.37587,0.96223c-1.70395,-0.39091 -3.06711,-0.85699 -4.08948,-1.39824c-1.05244,0.55128 -2.4156,1.05745 -4.08948,1.51852l-0.37587,-0.93216c1.43332,-0.35081 2.61105,-0.72668 3.53319,-1.12761c-0.57132,-0.39091 -1.11759,-0.86701 -1.6388,-1.42831c-0.39091,0.41095 -0.8219,0.78181 -1.293,1.11258l-0.52622,-0.6916c0.53123,-0.38088 1.03239,-0.83945 1.50348,-1.37569c0.47109,-0.53624 0.88204,-1.07499 1.23286,-1.61625l0.84195,0.3458c-0.23053,0.36084 -0.431,0.65652 -0.60139,0.88706h4.75101v0.81188c-0.79184,0.79184 -1.58868,1.44335 -2.39054,1.95453c0.88204,0.38088 2.05476,0.70664 3.51815,0.97727zM188.46614,182.57743l0.12028,-0.85699c0.74172,0.12028 1.75407,0.31323 3.03704,0.57884c1.28297,0.26562 2.31035,0.49364 3.08214,0.68409l-0.16538,0.87202c-0.72167,-0.18042 -1.71397,-0.40093 -2.9769,-0.66153c-1.26293,-0.2606 -2.29532,-0.46608 -3.09718,-0.61643zM189.66892,180.74318l0.13531,-0.84195c1.79416,0.33077 3.1924,0.61643 4.19472,0.85699l-0.13531,0.87202c-0.5613,-0.15035 -1.24539,-0.30821 -2.05226,-0.4736c-0.80687,-0.16538 -1.52103,-0.3032 -2.14247,-0.41346zM193.84861,176.39811h-3.9241c0.5613,0.59137 1.19778,1.08752 1.90943,1.48845c0.79184,-0.42098 1.46339,-0.91713 2.01467,-1.48845z" fill="#ffffff" fill-rule="evenodd" stroke="#ffffff" stroke-width="0.45" stroke-linejoin="miter"/><path d="M205.18489,179.79598l-0.58636,0.82692c-0.33077,-0.36084 -0.76177,-0.78682 -1.293,-1.27796v6.87093h-1.11258v-7.20169c-0.57132,1.48344 -1.1627,2.68623 -1.77411,3.60836l-0.33077,-1.45838c0.36084,-0.55128 0.7342,-1.25792 1.1201,-2.11991c0.38589,-0.862 0.70914,-1.71397 0.96975,-2.55592h-1.78915v-1.08251h1.80418v-2.85662h1.11258v2.85662h1.66887v1.08251h-1.66887v1.62376c0.09021,0.09021 0.19545,0.18042 0.31573,0.27063c0.12028,0.11026 0.35833,0.32074 0.71416,0.63146c0.35582,0.31072 0.63898,0.57132 0.84947,0.78181zM213.49916,177.27013v1.09754h-3.6685v6.11918c0,0.57132 -0.11777,0.96474 -0.35332,1.18024c-0.23555,0.2155 -0.65903,0.32325 -1.27044,0.32325h-1.44335l-0.25559,-1.14265h1.30803c0.2606,0 0.45355,-0.02255 0.57884,-0.06766c0.12529,-0.0451 0.21049,-0.12529 0.25559,-0.24056c0.0451,-0.11527 0.06766,-0.29819 0.06766,-0.54877v-5.62303h-3.65347v-1.09754zM205.74118,174.62399v-1.14265h7.14155v1.14265zM206.44781,179.58549l1.0374,0.39091c-0.25058,0.79184 -0.56381,1.62627 -0.93968,2.5033c-0.37587,0.87703 -0.76427,1.65133 -1.1652,2.32288l-1.02237,-0.55629c0.41095,-0.67156 0.80436,-1.42831 1.18024,-2.27026c0.37587,-0.84195 0.67907,-1.6388 0.90961,-2.39054zM210.68764,180.00647l0.96223,-0.42098c0.48112,1.05244 1.13764,2.64613 1.96957,4.78108l-1.06747,0.42098c-0.81188,-2.2452 -1.43332,-3.8389 -1.86432,-4.78108z" fill="#ffffff" fill-rule="evenodd" stroke="#ffffff" stroke-width="0.45" stroke-linejoin="miter"/></g></g></svg>