<svg version="1.1" xmlns="http://www.w3.org/2000/svg" xmlns:xlink="http://www.w3.org/1999/xlink" width="208" height="32" viewBox="0,0,208,32"><g transform="translate(-240,-164)"><g stroke-miterlimit="10"><path d="M240,196v-32h208v32z" fill="none" fill-rule="nonzero" stroke="none" stroke-width="0" stroke-linecap="butt"/><path d="M249.85659,185.58887h5.11023v-12.49087h1.48553v15.45587h-1.48553v-1.32479h-13.29056v-14.13108h1.52515v12.49087h5.11023v-15.85541h1.54495zM297.43322,182.79209h-9.84412c-1.00356,1.17759 -2.2316,2.39724 -3.68412,3.65894l8.89338,-0.35748l-2.17878,-2.18695l0.97055,-1.03039c0.5678,0.54674 1.1125,1.07946 1.63408,1.59816c0.52159,0.5187 0.98045,0.97432 1.37659,1.36685c1.42611,1.42993 2.01372,2.01172 1.76283,1.74536l-1.02997,1.19862c-0.22448,-0.25234 -0.63383,-0.69394 -1.22804,-1.32479l-12.24078,0.56777l-0.37633,-1.49302c1.55816,-1.17759 2.92485,-2.42528 4.10007,-3.74306h-5.68463v-1.42993h2.61454v-10.93477h12.24078v10.93477h2.67396zM336.65125,172.40406l-1.64399,5.36224c0.69985,0.96731 1.18843,1.82597 1.46572,2.57598c0.2773,0.75001 0.41595,1.54559 0.41595,2.38672c0,1.19161 -0.23769,2.03975 -0.71306,2.54444c-0.47537,0.50468 -1.27426,0.75702 -2.39666,0.75702h-1.129l-0.29711,-1.49302h1.02997c0.77908,0 1.32377,-0.1507 1.63408,-0.45211c0.31031,-0.30141 0.46547,-0.83763 0.46547,-1.60867c0,-0.67291 -0.15516,-1.35984 -0.46547,-2.06078c-0.31031,-0.70095 -0.80219,-1.479 -1.47563,-2.33415l1.60437,-5.6987h-3.32759v16.42318h-1.4063v-17.97928h6.23923zM315.5567,181.48833l1.56476,0.39954c0,0.49066 -0.04622,1.64723 -0.13865,3.46969c-0.03961,0.67291 -0.14195,1.1881 -0.30701,1.54559c-0.16506,0.35748 -0.43246,0.60982 -0.80219,0.75702c-0.36973,0.1472 -0.89132,0.2208 -1.56476,0.2208h-2.04013c-0.67344,0 -1.18843,-0.0771 -1.54495,-0.23131c-0.35653,-0.15421 -0.60742,-0.42758 -0.75267,-0.82011c-0.14525,-0.39253 -0.21788,-0.96731 -0.21788,-1.72433v-15.53999h1.52515v6.9604c0.79228,-0.50468 1.62748,-1.07595 2.5056,-1.71381c0.87811,-0.63786 1.65389,-1.23717 2.32733,-1.79793l0.89132,1.45096c-1.13561,0.89721 -3.04369,2.24303 -5.72425,4.03745v6.43469c0,0.37851 0.03301,0.65889 0.09904,0.84114c0.06602,0.18225 0.18487,0.30842 0.35653,0.37851c0.17166,0.0701 0.43576,0.10514 0.79228,0.10514h1.3865c0.59421,0 0.99696,-0.09112 1.20823,-0.27337c0.21128,-0.18225 0.32352,-0.53973 0.33672,-1.07245c0.02641,-0.46262 0.04952,-1.0374 0.06932,-1.72433c0.01981,-0.68693 0.02971,-1.25469 0.02971,-1.7033zM263.44425,188.40667h-1.60437v-16.86478h14.00361v16.75964h-1.58457v-1.87153h-10.81467zM300.06756,176.60974v-1.66124h4.91216v-5.4043h1.54495v18.98865h-1.54495v-3.9954l-4.79332,2.33415l-0.57441,-1.59816l5.36772,-2.60752v-6.05618zM328.86707,173.3924h-1.48553c-0.15846,1.30376 -0.36313,2.53042 -0.61402,3.67997h2.67396v1.51404h-9.92335v-1.51404h2.53531c-0.25089,-1.59816 -0.48197,-2.82482 -0.69325,-3.67997h-1.34688v-1.49302h3.86238c-0.17166,-0.743 -0.36973,-1.42993 -0.59421,-2.06078l1.46572,-0.37851c0.26409,0.84114 0.48857,1.65423 0.67344,2.43929h3.44643zM274.25892,173.2452h-10.81467v11.43945h10.81467zM322.05343,187.0188v1.4089h-1.3865v-7.92771h7.56631v6.5188zM293.33315,181.36216v-2.31312h-9.36875v2.31312zM283.9644,175.45318v2.22901h9.36875v-2.22901zM283.9644,174.12839h9.36875v-2.20798h-9.36875zM322.05343,185.58887h4.79332v-3.59586h-4.79332zM326.03465,173.3924h-3.26817c0.34332,1.73835 0.57441,2.965 0.69325,3.67997h1.9609c0.23769,-1.09348 0.44236,-2.32013 0.61402,-3.67997z" fill="#ffffff" fill-rule="evenodd" stroke="#ffffff" stroke-width="0.5" stroke-linecap="round"/></g></g></svg>