<svg version="1.1" xmlns="http://www.w3.org/2000/svg" xmlns:xlink="http://www.w3.org/1999/xlink" width="208" height="32" viewBox="0,0,208,32"><g transform="translate(-240,-164)"><g stroke-miterlimit="10"><path d="M340.96827,172.15458v1.46424h-8.208v2.06231h6.97061v10.51779c0,0.63244 -0.07218,1.11708 -0.21654,1.45393c-0.14436,0.33684 -0.37809,0.57057 -0.70119,0.70119c-0.3231,0.13061 -0.78711,0.19592 -1.39206,0.19592h-2.53664l-0.28872,-1.44362h2.24792c0.39871,0 0.68744,-0.03093 0.86617,-0.0928c0.17873,-0.06187 0.29904,-0.17873 0.3609,-0.35059c0.06187,-0.17186 0.0928,-0.4434 0.0928,-0.81461v-8.7442h-12.4976v11.46645h-1.50549v-12.88944h7.01186v-2.06231h-8.29049v-1.46424h8.29049v-2.24792h1.58798v2.24792zM273.30385,184.30159h5.9807v1.44362h-5.9807v3.13471h-1.50549v-3.13471h-6.8675v-1.44362h6.8675v-2.2273h-5.38263v-1.40237c0.60494,-0.93491 1.26488,-2.03481 1.97982,-3.2997h-3.0316v-1.40237h3.77403c0.35747,-0.67369 0.68744,-1.36113 0.98991,-2.06231l1.52611,0.22685c-0.10999,0.26123 -0.39871,0.87305 -0.86617,1.83546h7.73367v1.40237h-8.49672c-0.60494,1.14115 -1.25113,2.24104 -1.93857,3.2997h3.71216v-2.47477h1.50549v2.47477h4.78456v1.40237h-4.78456zM299.90766,183.02296h-10.24969c-1.0449,1.15489 -2.32354,2.35103 -3.8359,3.58842l9.25978,-0.35059l-2.26854,-2.1448l1.01053,-1.01053c0.5912,0.5362 1.15833,1.05865 1.70141,1.56736c0.54308,0.5087 1.02084,0.95554 1.43331,1.3405c1.48486,1.40237 2.09668,1.97294 1.83546,1.71172l-1.0724,1.17552c-0.23373,-0.24748 -0.65994,-0.68056 -1.27863,-1.29926l-12.74508,0.55682l-0.39184,-1.46424c1.62235,-1.15489 3.04535,-2.37853 4.26898,-3.67091h-5.91883v-1.40237h2.72225v-10.72402h12.74508v10.72402h2.78412zM302.48555,170.99968h17.81837v1.50549h-6.00132v3.0316h4.84643v13.34315h-1.46424v-1.56736h-12.64197v1.56736h-1.48486v-13.34315h4.6402v-3.0316h-5.7126zM254.00062,177.53721v4.12462h4.66082v1.52611h-18.23083v-1.52611h3.36157v-9.79598c5.14203,-0.28872 9.33539,-0.75618 12.5801,-1.40237l0.28872,1.48486c-1.45737,0.31622 -3.20346,0.59807 -5.23827,0.84555c-2.03481,0.24748 -4.049,0.41934 -6.04257,0.51558v2.74287h12.64197v1.48486zM361.36452,172.83514l-1.71172,5.25889c0.72868,0.94866 1.23739,1.79077 1.52611,2.52633c0.28872,0.73556 0.43309,1.5158 0.43309,2.34072c0,1.16864 -0.24748,2.00044 -0.74243,2.4954c-0.49495,0.49495 -1.32675,0.74243 -2.4954,0.74243h-1.17552l-0.30935,-1.46424h1.0724c0.81118,0 1.37831,-0.1478 1.70141,-0.4434c0.3231,-0.2956 0.48464,-0.82149 0.48464,-1.57767c0,-0.65994 -0.16155,-1.33363 -0.48464,-2.02106c-0.3231,-0.68744 -0.83524,-1.45049 -1.53642,-2.28917l1.67047,-5.58886h-3.46468v16.10665h-1.46424v-17.63276h6.49628zM272.27269,172.07209h6.97061v1.38175h-14.74552v4.97017c0,1.78734 -0.05843,3.24126 -0.1753,4.36179c-0.11686,1.12052 -0.31966,2.13793 -0.60838,3.05222c-0.28872,0.91429 -0.71493,1.93514 -1.27863,3.06253l-1.46424,-0.76306c0.57745,-1.11365 1.0071,-2.10699 1.28894,-2.98004c0.28185,-0.87305 0.47777,-1.80452 0.58776,-2.79443c0.10999,-0.98991 0.16498,-2.25479 0.16498,-3.79465v-6.49628h7.46557l-0.61869,-1.89733l1.67047,-0.28872c0.01375,0.04125 0.06874,0.19248 0.16498,0.45371c0.30247,0.85242 0.49495,1.42987 0.57745,1.73234zM337.3386,183.29106v1.23739h-4.59895v3.65029h-1.54673v-3.65029h-4.72269v-1.23739h4.72269v-1.89733h-4.26898v-1.23739h2.80474c-0.64619,-0.86617 -1.19614,-1.56048 -1.64985,-2.08293l1.17552,-0.65994c-0.04125,-0.05499 0.2406,0.2956 0.84555,1.05178l0.96929,1.21676l-0.86617,0.47433h2.33041c0.68744,-0.89367 1.313,-1.81483 1.8767,-2.7635l1.31988,0.63932c-0.27498,0.45371 -0.78368,1.16177 -1.52611,2.12418h2.681v1.23739h-4.14524v1.89733zM305.04281,177.06288v8.76482h12.64197v-3.09347h-2.35103c-0.93491,0 -1.59142,-0.18561 -1.96951,-0.55682c-0.37809,-0.37122 -0.56714,-1.01741 -0.56714,-1.93857v-3.17596h-3.09347v0.02062c0,1.23739 -0.08937,2.24104 -0.2681,3.01097c-0.17873,0.76993 -0.51214,1.45049 -1.00022,2.04169c-0.48808,0.5912 -1.21333,1.18927 -2.17574,1.79421l-0.98991,-1.09302c0.89367,-0.57745 1.5433,-1.10677 1.94888,-1.58798c0.40559,-0.48121 0.67025,-1.02084 0.79399,-1.61891c0.12374,-0.59807 0.18561,-1.45393 0.18561,-2.56758zM353.25964,173.80443h-1.54673c-0.16498,1.27863 -0.37809,2.48165 -0.63932,3.60904h2.78412v1.48486h-10.33218v-1.48486h2.63976c-0.26123,-1.56736 -0.50183,-2.77037 -0.72181,-3.60904h-1.40237v-1.46424h4.02151c-0.17873,-0.72868 -0.38496,-1.40237 -0.61869,-2.02106l1.52611,-0.37122c0.27498,0.82492 0.5087,1.62235 0.70119,2.39228h3.58842zM346.16529,187.1682v1.38175h-1.44362v-7.77491h7.87803v6.39316zM295.63868,181.62059v-2.26854h-9.75473v2.26854zM285.88394,175.82549v2.18605h9.75473v-2.18605zM285.88394,174.52624h9.75473v-2.16543h-9.75473zM252.41264,181.66183v-4.12462h-7.03248v4.12462zM241.48239,188.90054l-0.76306,-1.44362c0.83867,-0.38496 1.89733,-0.95897 3.17596,-1.72203c1.27863,-0.76306 2.30291,-1.43331 3.07284,-2.01075l0.88679,1.25801c-0.81118,0.61869 -1.83202,1.30269 -3.06253,2.052c-1.23051,0.74931 -2.33385,1.37144 -3.31001,1.86639zM251.23712,185.00277l0.86617,-1.29926l6.20756,3.73278l-0.88679,1.44362c-0.78368,-0.5362 -1.78734,-1.18583 -3.01097,-1.94888c-1.22364,-0.76306 -2.28229,-1.40581 -3.17596,-1.92826zM346.16529,185.76583h4.99079v-3.52655h-4.99079zM317.68478,181.22875v-4.16587h-3.38219v2.681c0,0.41246 0.04468,0.72181 0.13405,0.92804c0.08937,0.20623 0.2406,0.35059 0.45371,0.43309c0.21311,0.08249 0.53276,0.12374 0.95897,0.12374zM350.31054,173.80443h-3.40281c0.35747,1.70484 0.59807,2.90786 0.72181,3.60904h2.04169c0.24748,-1.0724 0.46058,-2.27542 0.63932,-3.60904zM309.70364,172.50517v3.0316h3.09347v-3.0316z" fill="#ffffff" fill-rule="evenodd" stroke="#ffffff" stroke-width="0.5" stroke-linecap="round"/><path d="M240,196v-32h208v32z" fill="none" fill-rule="nonzero" stroke="none" stroke-width="0" stroke-linecap="butt"/></g></g></svg>