<svg version="1.1" xmlns="http://www.w3.org/2000/svg" xmlns:xlink="http://www.w3.org/1999/xlink" width="208" height="32" viewBox="0,0,208,32"><g transform="translate(-240,-164)"><g stroke-miterlimit="10"><path d="M338.13412,187.99766l-1.08353,1.51352c-1.12366,-0.90953 -2.0868,-1.84749 -2.88942,-2.81387c-0.80262,-0.96638 -1.49822,-2.08554 -2.0868,-3.35746c-0.58859,-1.27193 -1.07684,-2.76769 -1.46477,-4.48728c-0.44144,1.08007 -0.93639,2.03935 -1.48484,2.87782v6.45912l3.17033,-1.49221l0.28092,1.57747l-4.89596,2.28094l-0.68222,-1.32167c0.24078,-0.17054 0.41468,-0.34108 0.5217,-0.51161c0.10702,-0.17054 0.16052,-0.3695 0.16052,-0.59688v-4.47662c-0.8695,0.9948 -1.81258,1.89013 -2.82922,2.68597l-0.86281,-1.38562c1.75238,-1.46378 3.10679,-2.91335 4.06324,-4.34871c0.95645,-1.43536 1.64871,-3.13363 2.07677,-5.09482h-3.1302v2.87782h-1.38451v-4.41266h4.8157c0.12039,-0.90953 0.22072,-1.87592 0.30098,-2.89914l1.48484,0.10659c-0.09364,1.08007 -0.20065,2.01092 -0.32105,2.79256h5.05648v4.02895h-1.40458v-2.49411h-3.93282l-0.12039,0.57556c0.30767,2.20278 0.79593,4.0858 1.46477,5.64906c1.05678,-0.95217 2.10018,-1.96118 3.1302,-3.02705l0.92301,1.27903c0.01338,-0.01421 -0.10033,0.08527 -0.34111,0.29844c-1.25743,1.16534 -2.28746,2.08909 -3.09007,2.77124c0.54845,0.9948 1.19724,1.89013 1.94634,2.68597c0.74911,0.79584 1.61861,1.54905 2.6085,2.25963zM269.71109,185.88725h8.02616v1.44957h-8.02616v3.3468h-1.54504v-3.3468h-7.96597v-1.44957h7.96597v-1.81196h-5.73871v-11.04232h4.51472c0.29429,-0.63952 0.55514,-1.30035 0.78255,-1.9825l1.70556,0.23449c-0.09364,0.28423 -0.25416,0.68926 -0.48157,1.21508l-0.22072,0.53293h6.68178v4.64715h-11.41721v1.68406h11.87872v4.71111h-6.16008zM309.9021,180.34477h7.4242v1.38562h-16.4737v-1.38562h7.50446v-1.93987h-6.58145v-1.32167h6.58145v-1.96118h-7.24361v-1.32167h4.73544l-1.78582,-2.15304l1.0434,-0.87401l2.147,2.40885l-0.82268,0.6182h4.21373c0.36118,-0.44056 0.76917,-0.96993 1.22399,-1.58813c0.45482,-0.6182 0.79593,-1.11205 1.02334,-1.48155l1.26412,0.85269l-1.66543,2.21699h4.59498v1.32167h-7.18341v1.96118h6.52126v1.32167h-6.52126zM297.96318,184.62954h-9.97251c-1.01665,1.19376 -2.2607,2.43016 -3.73216,3.7092l9.00937,-0.36239l-2.20719,-2.21699l0.9832,-1.04454c0.57521,0.55425 1.12701,1.09428 1.6554,1.62011c0.52839,0.52582 0.99324,0.9877 1.39455,1.38562c1.44471,1.44957 2.03998,2.03935 1.78582,1.76933l-1.0434,1.21508c-0.22741,-0.25581 -0.64209,-0.70347 -1.24405,-1.34298l-12.40042,0.57556l-0.38124,-1.51352c1.57848,-1.19376 2.96299,-2.45859 4.15354,-3.79447h-5.75877v-1.44957h2.64863v-11.08496h12.40042v11.08496h2.70883zM360.66757,172.2016h17.33651v1.55616h-5.83903v3.13363h4.71537v13.79224h-1.42464v-1.62011h-12.30009v1.62011h-1.44471v-13.79224h4.51472v-3.13363h-5.55812zM245.8734,174.58912h1.16379v14.13332h-1.16379v-1.32167l-5.29727,0.7461v-13.47248h1.16379v11.72447l1.44471,-0.21317v-14.90074h1.34438v14.70888l1.34438,-0.19185zM257.77218,188.97825l-0.62203,1.68406c-1.92628,-0.9948 -3.49807,-2.09619 -4.71537,-3.30417c-1.24405,1.09428 -2.9563,2.20278 -5.13674,3.32549l-0.68222,-1.49221c2.01992,-0.96638 3.61846,-1.96118 4.79563,-2.98441c-1.25743,-1.54905 -2.25401,-3.48892 -2.98975,-5.8196v-1.57747h3.37099v-3.091h-4.01308v-1.51352h4.01308v-3.11231h1.38451v3.11231h4.41439v1.51352h-4.41439v3.06968h3.2506v1.64143c-0.37455,1.26482 -0.78589,2.36266 -1.23402,3.29351c-0.44813,0.93085 -1.0133,1.77999 -1.69553,2.54741c1.12366,1.05165 2.54831,1.95408 4.27393,2.70729zM397.88889,174.09883l-1.66543,5.43589c0.70898,0.98059 1.20392,1.85105 1.48484,2.61136c0.28092,0.76031 0.42137,1.56682 0.42137,2.4195c0,1.20798 -0.24078,2.06777 -0.72235,2.57938c-0.48157,0.51161 -1.29087,0.76742 -2.42791,0.76742h-1.14373l-0.30098,-1.51352h1.0434c0.78924,0 1.34104,-0.15277 1.6554,-0.45832c0.31436,-0.30555 0.47154,-0.84914 0.47154,-1.63077c0,-0.68215 -0.15718,-1.37851 -0.47154,-2.08909c-0.31436,-0.71057 -0.81265,-1.49931 -1.49487,-2.36621l1.6253,-5.77697h-3.37099v16.64875h-1.42464v-18.22622h6.3206zM317.7878,185.35432h-7.68505c0.61534,0.85269 1.57513,1.6059 2.87939,2.25963c1.30425,0.65373 2.97971,1.15113 5.02638,1.49221l-0.60196,1.59879c-2.03329,-0.39792 -3.73885,-0.96993 -5.11668,-1.71604c-1.37782,-0.7461 -2.4346,-1.60945 -3.17033,-2.59004c-1.20392,1.96118 -3.97295,3.42497 -8.30708,4.39135l-0.64209,-1.59879c4.22711,-0.78163 6.79548,-2.06066 7.70511,-3.8371h-7.4844v-1.3643h7.86564v-1.76933h1.58517v1.76933h7.9459zM348.4678,171.13573h1.54504v4.17818h6.88243v8.7827h-6.88243v6.5657h-1.54504v-6.5657h-6.82224v-8.7827h6.82224zM363.15568,178.46886v9.05982h12.30009v-3.19758h-2.28746c-0.90963,0 -1.54838,-0.19185 -1.91625,-0.57556c-0.36787,-0.38371 -0.5518,-1.05165 -0.5518,-2.00382v-3.28285h-3.00981v0.02132c0,1.27903 -0.08695,2.31647 -0.26085,3.11231c-0.1739,0.79584 -0.49829,1.49931 -0.97317,2.1104c-0.47488,0.61109 -1.18051,1.22929 -2.1169,1.8546l-0.96314,-1.12981c0.8695,-0.59688 1.50156,-1.14402 1.89618,-1.64143c0.39462,-0.4974 0.65213,-1.0552 0.77252,-1.6734c0.12039,-0.6182 0.18059,-1.50286 0.18059,-2.65399zM390.00319,175.10074h-1.50491c-0.16052,1.32167 -0.36787,2.56517 -0.62203,3.73051h2.70883v1.53484h-10.05277v-1.53484h2.56837c-0.25416,-1.62011 -0.48826,-2.86361 -0.70229,-3.73051h-1.36445v-1.51352h3.91275c-0.1739,-0.75321 -0.37455,-1.44957 -0.60196,-2.08909l1.48484,-0.38371c0.26754,0.85269 0.49495,1.67695 0.68222,2.4728h3.49138zM383.10069,188.9143v1.42825h-1.40458v-8.03659h7.66498v6.60834zM274.32614,182.71099v-1.9825h-10.33368v1.9825zM263.99245,176.33714h9.91231v-1.96118h-9.91231zM293.80964,183.17996v-2.34489h-9.49094v2.34489zM284.31871,177.18983v2.25963h9.49094v-2.25963zM284.31871,175.84684h9.49094v-2.23831h-9.49094zM355.33017,176.97665h-5.31733v5.47853h5.31733zM348.4678,176.97665h-5.25714v5.47853h5.25714zM321.98147,190.38519l-1.38451,-0.59688l2.42791,-7.22654l1.40458,0.51161zM383.10069,187.46473h4.85583v-3.64524h-4.85583zM254.92289,180.36609l-4.99629,0.02132c0.64209,1.90434 1.48484,3.49602 2.52824,4.77506c0.58859,-0.66794 1.07684,-1.38562 1.46477,-2.15304c0.38793,-0.76742 0.72235,-1.64853 1.00327,-2.64334zM375.45577,182.77494v-4.30608h-3.29073v2.77124c0,0.42634 0.04347,0.7461 0.13043,0.95927c0.08695,0.21317 0.2341,0.36239 0.44144,0.44766c0.20734,0.08527 0.51836,0.1279 0.93304,0.1279zM387.13383,175.10074h-3.31079c0.3478,1.76222 0.5819,3.00573 0.70229,3.73051h1.98647c0.24078,-1.1085 0.44813,-2.352 0.62203,-3.73051zM324.61004,179.74789l-0.92301,1.3643c-0.25416,-0.21317 -0.46819,-0.40503 -0.64209,-0.57556c-1.08353,-0.95217 -2.01992,-1.75512 -2.80916,-2.40885l0.86281,-1.32167c0.60196,0.46898 1.77244,1.44957 3.51145,2.94178zM367.69046,173.75775v3.13363h3.00981v-3.13363zM325.07154,174.41859l-0.84275,1.34298c-1.24405,-1.13692 -2.3209,-2.06777 -3.23053,-2.79256l0.82268,-1.30035c0.42806,0.34108 0.96648,0.78518 1.61526,1.33233c0.64878,0.54714 1.19389,1.01967 1.63533,1.4176z" fill="#ffffff" fill-rule="evenodd" stroke="#ffffff" stroke-width="0.5" stroke-linecap="round"/><path d="M240,196v-32h208v32z" fill="none" fill-rule="nonzero" stroke="none" stroke-width="0" stroke-linecap="butt"/></g></g></svg>