<svg version="1.1" xmlns="http://www.w3.org/2000/svg" xmlns:xlink="http://www.w3.org/1999/xlink" width="224" height="96" viewBox="0,0,224,96"><g transform="translate(-128,-180)"><g stroke="none" stroke-miterlimit="10"><path d="M352,266c0,5.54 -4.46,10 -10,10h-204c-5.54,0 -10,-4.46 -10,-10v-86h224z" fill="#1d2a41" fill-rule="evenodd"/><g fill="#ffffff"><path d="" fill-rule="nonzero"/><path d="" fill-rule="nonzero"/><path d="M148.98175,188.754c0.39537,-0.002 0.7615,0.20809 0.95898,0.55078l8.8926,15.408c0.19643,0.34054 0.19632,0.76006 -0.00029,1.1005c-0.19661,0.34044 -0.55983,0.55006 -0.95283,0.5499h-17.783c-0.393,0.00017 -0.75622,-0.20946 -0.95283,-0.5499c-0.19661,-0.34044 -0.19672,-0.75996 -0.00029,-1.1005l8.8926,-15.408c0.19503,-0.33846 0.55482,-0.54809 0.94531,-0.55078zM145.2751,198.49234c1.481,-0.85601 2.8269,-1.23693 3.9648,-1.1309c1.166,0.1086 2.10672,0.7414 2.6836,1.8242c0.0432,0.0816 0.025,0.18215 -0.0441,0.24337c-0.0691,0.0612 -0.17114,0.0672 -0.24691,0.0144c-0.9726,-0.68049 -1.7415,-0.51264 -2.1973,0.008c-0.2889,0.32985 -0.3553,0.74376 -0.23438,1.1543c0.12094,0.41052 0.4386,0.81153 0.93555,1.0703c1.1349,0.59097 3.0356,0.70616 4.5527,0.31445c0.0103,-0.002 0.0207,-0.003 0.0312,-0.004l-5.7305,-9.9297z" fill-rule="evenodd"/><path d="" fill-rule="nonzero"/></g><path d="M172.19117,194.59838h1.53337c-0.07156,0.64401 -0.14823,1.32074 -0.23001,2.03018c-0.08178,0.71148 -0.17071,1.41683 -0.26681,2.11605c-0.09814,0.70126 -0.19116,1.36572 -0.27907,1.99338c-0.08587,0.6297 -0.16969,1.18478 -0.25147,1.66524h-1.5947c0.10222,-0.5009 0.20445,-1.07131 0.30667,-1.71124c0.10222,-0.63788 0.20138,-1.30745 0.29747,-2.00871c0.09814,-0.69922 0.18809,-1.39945 0.26987,-2.10071c0.08178,-0.69922 0.15334,-1.36061 0.21467,-1.98418M174.49122,196.37708l0.85869,-0.55201c0.27601,0.21467 0.56224,0.46512 0.85869,0.75135c0.29645,0.28623 0.52646,0.53668 0.69002,0.75135l-0.90469,0.62868c-0.14311,-0.22489 -0.36085,-0.48863 -0.65321,-0.79122c-0.29032,-0.30054 -0.57348,-0.56326 -0.84949,-0.78815M174.07721,199.55115l0.90469,-0.56735c0.30667,0.23512 0.62561,0.50601 0.95682,0.81268c0.33325,0.30667 0.59188,0.58268 0.77588,0.82802l-0.93535,0.64401c-0.17378,-0.23512 -0.42423,-0.51623 -0.75135,-0.84335c-0.32712,-0.32712 -0.64401,-0.61846 -0.95069,-0.87402M172.40584,191.97632h7.92751v1.48737h-7.92751v-1.48737M172.83518,194.59838h5.84213v1.4107h-5.84213v-1.4107M170.25913,197.66511h10.4729v1.48737h-10.4729v-1.48737M171.9305,200.99252h8.40285v1.4107h-8.40285v-1.4107M172.49784,190.36629l1.5947,0.41401c-0.20445,0.63379 -0.45285,1.26452 -0.74522,1.89217c-0.29032,0.6297 -0.59904,1.22056 -0.92615,1.77257c-0.32712,0.55201 -0.65935,1.03758 -0.99669,1.4567c-0.10222,-0.092 -0.24227,-0.19423 -0.42014,-0.30667c-0.17991,-0.11245 -0.35676,-0.22489 -0.53054,-0.33734c-0.17378,-0.11245 -0.32712,-0.20445 -0.46001,-0.27601c0.34756,-0.36801 0.67775,-0.80042 0.99055,-1.29723c0.31076,-0.49477 0.59392,-1.02633 0.84949,-1.5947c0.25556,-0.56632 0.47023,-1.14082 0.64401,-1.7235M178.20197,194.59838h1.53337c0,0 -0.00204,0.046 -0.00613,0.138c-0.00613,0.092 -0.0092,0.19116 -0.0092,0.29747c0,0.10836 -0.00511,0.19831 -0.01533,0.26987c-0.06133,1.46181 -0.12267,2.70077 -0.184,3.71688c-0.06133,1.01816 -0.13085,1.85435 -0.20854,2.50859c-0.07565,0.65424 -0.16151,1.16536 -0.25761,1.53337c-0.09814,0.36801 -0.21365,0.63379 -0.34654,0.79735c-0.17378,0.23512 -0.35574,0.39561 -0.54588,0.48148c-0.18809,0.08791 -0.40481,0.15231 -0.65015,0.1932c-0.22489,0.03067 -0.51112,0.046 -0.85869,0.046c-0.34756,0 -0.71046,-0.01022 -1.08869,-0.03067c-0.01022,-0.20445 -0.05111,-0.43445 -0.12267,-0.69002c-0.07156,-0.25556 -0.16867,-0.48045 -0.29134,-0.67468c0.35779,0.03067 0.6849,0.05111 0.98135,0.06133c0.29645,0.01022 0.51623,0.01533 0.65935,0.01533c0.13289,0 0.24023,-0.0184 0.32201,-0.0552c0.08178,-0.03476 0.16356,-0.09814 0.24534,-0.19014c0.10222,-0.11245 0.19423,-0.34041 0.27601,-0.68388c0.08178,-0.34143 0.15845,-0.827 0.23001,-1.4567c0.07156,-0.62766 0.13596,-1.43012 0.1932,-2.40739c0.0552,-0.97522 0.10325,-2.15796 0.14414,-3.54821v-0.32201M167.2844,191.73098l0.92002,-1.11936c0.29645,0.13289 0.61641,0.29134 0.95989,0.47534c0.34143,0.184 0.66855,0.37312 0.98135,0.56735c0.31076,0.19423 0.56326,0.37312 0.75748,0.53668l-0.96602,1.24203c-0.184,-0.16356 -0.42628,-0.35063 -0.72682,-0.56121c-0.30258,-0.20854 -0.62459,-0.41299 -0.96602,-0.61335c-0.34347,-0.19831 -0.66344,-0.37414 -0.95989,-0.52748M166.42571,196.11641l0.88935,-1.10402c0.29645,0.13289 0.60619,0.28827 0.92922,0.46614c0.32098,0.17991 0.62766,0.36187 0.92002,0.54588c0.29032,0.184 0.52748,0.35779 0.71148,0.52134l-0.95069,1.25736c-0.16356,-0.17378 -0.38845,-0.3629 -0.67468,-0.56735c-0.28623,-0.20445 -0.58984,-0.40379 -0.91082,-0.59801c-0.32303,-0.19423 -0.62766,-0.36801 -0.91389,-0.52134M166.85505,203.55324c0.20445,-0.39868 0.43241,-0.86891 0.68388,-1.4107c0.24943,-0.54179 0.49988,-1.11936 0.75135,-1.7327c0.24943,-0.61335 0.48148,-1.21647 0.69615,-1.80937l1.25736,0.88935c-0.184,0.54179 -0.38539,1.09891 -0.60415,1.67137c-0.2208,0.57246 -0.4457,1.1398 -0.67468,1.70204c-0.23103,0.56224 -0.45899,1.08869 -0.68388,1.57937zM183.00141,191.37831h3.0054v9.55288h-3.0054v-1.3187h1.71737v-6.93082h-1.71737v-1.30336M182.18872,191.37831h1.30336v10.90224h-1.30336v-10.90224M186.35948,193.67836h9.64488v1.27269h-9.64488v-1.27269M187.2335,191.45498h7.86617v5.76546h-7.98884v-1.33403h6.57814v-3.0974h-6.45547v-1.33403M190.17756,190.44295h1.51803v14.19898h-1.51803v-14.19898M193.88831,197.83378h1.3647v6.76215h-1.3647v-6.76215M186.72749,197.83378h1.33403v1.27269c0,0.57246 -0.0276,1.18274 -0.0828,1.83084c-0.05725,0.65015 -0.17991,1.29927 -0.36801,1.94738c-0.19014,0.65015 -0.48454,1.26656 -0.88322,1.84924c-0.13289,-0.14311 -0.31894,-0.30156 -0.55815,-0.47534c-0.24125,-0.17378 -0.45388,-0.30667 -0.63788,-0.39868c0.35779,-0.5009 0.62152,-1.03042 0.79122,-1.58857c0.16765,-0.5561 0.27703,-1.11016 0.32814,-1.66217c0.05111,-0.55201 0.07667,-1.06825 0.07667,-1.5487v-1.22669M188.81287,198.46246l1.05802,0.184c-0.06133,0.57246 -0.14107,1.14696 -0.23921,1.7235c-0.09609,0.57859 -0.21058,1.12345 -0.34347,1.63457c-0.13289,0.51112 -0.28112,0.96602 -0.44468,1.3647c-0.10222,-0.08178 -0.24534,-0.18196 -0.42934,-0.30054c-0.184,-0.11654 -0.34245,-0.20547 -0.47534,-0.26681c0.23512,-0.55201 0.42117,-1.21647 0.55815,-1.99338c0.13903,-0.77691 0.24432,-1.55892 0.31587,-2.34605M191.91027,198.6158l1.01202,-0.12267c0.12267,0.48045 0.24023,0.99362 0.35267,1.5395c0.11245,0.54792 0.21263,1.07438 0.30054,1.57937c0.08587,0.50703 0.14414,0.94455 0.1748,1.31256l-1.10402,0.19934c-0.02044,-0.37823 -0.06849,-0.82597 -0.14414,-1.34323c-0.07769,-0.51521 -0.1656,-1.05189 -0.26374,-1.61004c-0.09609,-0.5561 -0.20547,-1.07438 -0.32814,-1.55483zM202.3985,195.08906h7.6515v1.30336h-7.6515v-1.30336M202.3985,197.31244h7.6515v1.30336h-7.6515v-1.30336M203.18051,202.84789h6.08747v1.3187h-6.08747v-1.3187M201.30981,192.81967h9.89022v1.33403h-9.89022v-1.33403M202.18383,199.59715h8.05018v5.02944h-1.4567v-3.71075h-5.19811v3.75675h-1.39536v-5.07544M204.80588,190.88763l1.39536,-0.53668c0.21467,0.3169 0.4273,0.66446 0.63788,1.04269c0.20854,0.37823 0.36903,0.71046 0.48148,0.99669l-1.44136,0.62868c-0.10222,-0.28623 -0.25761,-0.62868 -0.46614,-1.02736c-0.21058,-0.39868 -0.41299,-0.76668 -0.60721,-1.10402M200.22112,190.44295l1.4567,0.44468c-0.29645,0.85869 -0.64912,1.71737 -1.05802,2.57606c-0.4089,0.85869 -0.85562,1.66626 -1.34016,2.42272c-0.48659,0.75646 -0.98544,1.43114 -1.49657,2.02404c-0.05111,-0.13289 -0.12471,-0.29952 -0.2208,-0.49988c-0.09814,-0.19831 -0.20547,-0.3997 -0.32201,-0.60415c-0.11858,-0.20445 -0.22387,-0.37312 -0.31587,-0.50601c0.43957,-0.47023 0.8638,-1.02225 1.27269,-1.65604c0.4089,-0.63379 0.78713,-1.30847 1.13469,-2.02404c0.34756,-0.71557 0.64401,-1.44136 0.88935,-2.17738M198.99442,194.62904l1.5027,-1.5027v0.01533v11.60759h-1.5027zM216.27547,195.05839v0.85869h6.37881v-0.85869h-6.37881M216.27547,197.1131v0.85869h6.37881v-0.85869h-6.37881M216.27547,193.01901v0.85869h6.37881v-0.85869h-6.37881M214.6961,191.76165h9.61421v7.48283h-9.61421v-7.48283M218.69819,190.22828l1.97804,0.26067c-0.16356,0.34756 -0.33734,0.67979 -0.52134,0.99669c-0.184,0.3169 -0.34756,0.5929 -0.49068,0.82802l-1.5027,-0.30667c0.10222,-0.27601 0.20445,-0.57757 0.30667,-0.90469c0.10222,-0.32712 0.17889,-0.61846 0.23001,-0.87402M215.76946,200.2105h1.65604v2.20805c0,0.22489 0.06645,0.36801 0.19934,0.42934c0.13289,0.06133 0.42934,0.092 0.88935,0.092c0.08178,0 0.21263,0 0.39254,0c0.17787,0 0.38436,0 0.61948,0c0.23512,0 0.47023,0 0.70535,0c0.23512,0 0.44979,0 0.64401,0c0.19423,0 0.34756,0 0.46001,0c0.25556,0 0.44774,-0.03884 0.57655,-0.11654c0.12676,-0.07565 0.21569,-0.23614 0.26681,-0.48148c0.05111,-0.24534 0.092,-0.61335 0.12267,-1.10402c0.12267,0.092 0.27396,0.17583 0.45388,0.25147c0.17787,0.07769 0.36187,0.1472 0.55201,0.20854c0.18809,0.06133 0.35881,0.10734 0.51214,0.138c-0.07156,0.69513 -0.18605,1.2318 -0.34347,1.61004c-0.15947,0.37823 -0.39459,0.63584 -0.70535,0.77282c-0.31281,0.13903 -0.75033,0.20854 -1.31256,0.20854c-0.092,0 -0.24227,0 -0.45081,0c-0.21058,0 -0.4457,0 -0.70535,0c-0.2617,0 -0.52543,0 -0.79122,0c-0.26578,0 -0.50294,0 -0.71148,0c-0.21058,0 -0.35676,0 -0.43854,0c-0.6849,0 -1.21647,-0.05929 -1.5947,-0.17787c-0.37823,-0.11654 -0.6389,-0.32098 -0.78202,-0.61335c-0.14311,-0.29032 -0.21467,-0.68593 -0.21467,-1.18683v-2.23872M218.22284,199.71982l1.25736,-0.70535c0.25556,0.22489 0.51419,0.47534 0.77588,0.75135c0.25965,0.27601 0.49477,0.55201 0.70535,0.82802c0.20854,0.27601 0.37414,0.53157 0.49681,0.76668l-1.33403,0.79735c-0.11245,-0.23512 -0.2709,-0.49579 -0.47534,-0.78202c-0.20445,-0.28623 -0.43139,-0.57552 -0.68081,-0.86789c-0.25147,-0.29032 -0.49988,-0.55303 -0.74522,-0.78815M223.32895,200.36384l1.47203,-0.61335c0.22489,0.32712 0.45285,0.6849 0.68388,1.07336c0.22898,0.38845 0.43548,0.76668 0.61948,1.13469c0.184,0.36801 0.3169,0.70535 0.39868,1.01202l-1.56403,0.69002c-0.07156,-0.30667 -0.19116,-0.64912 -0.35881,-1.02736c-0.16969,-0.37823 -0.36392,-0.76668 -0.58268,-1.16536c-0.2208,-0.39868 -0.44365,-0.76668 -0.66855,-1.10402M213.88341,200.0265l1.4567,0.61335c-0.13289,0.33734 -0.27601,0.70739 -0.42934,1.11016c-0.15334,0.40481 -0.31383,0.79633 -0.48148,1.17456c-0.16969,0.37823 -0.34143,0.72068 -0.51521,1.02736l-1.53337,-0.72068c0.19423,-0.28623 0.38334,-0.61335 0.56735,-0.98135c0.184,-0.36801 0.35779,-0.74419 0.52134,-1.12856c0.16356,-0.38232 0.30156,-0.74726 0.41401,-1.09482zM228.25106,191.1483h13.35563v1.51803h-13.35563v-1.51803M233.84785,191.89965l1.88604,0.24534c-0.19423,0.49068 -0.40583,0.97113 -0.63481,1.44136c-0.23103,0.47023 -0.44365,0.87402 -0.63788,1.21136l-1.42603,-0.29134c0.10222,-0.24534 0.20752,-0.52134 0.31587,-0.82802c0.10631,-0.30667 0.20343,-0.61641 0.29134,-0.92922c0.08587,-0.31076 0.15436,-0.59392 0.20547,-0.84949M234.04719,196.42308h1.71737v2.79073c0,0.42934 -0.05622,0.85562 -0.16867,1.27883c-0.11245,0.42525 -0.31178,0.83722 -0.59801,1.23589c-0.28623,0.39868 -0.68695,0.77895 -1.20216,1.14082c-0.51726,0.36392 -1.17967,0.69922 -1.98724,1.00589c-0.80757,0.30667 -1.78893,0.58779 -2.94406,0.84335c-0.06133,-0.12267 -0.14823,-0.26578 -0.26067,-0.42934c-0.11245,-0.16356 -0.23512,-0.33018 -0.36801,-0.49988c-0.13289,-0.16765 -0.26067,-0.30258 -0.38334,-0.40481c1.08358,-0.20445 1.99133,-0.43241 2.72326,-0.68388c0.72988,-0.24943 1.3279,-0.51521 1.79404,-0.79735c0.4641,-0.2801 0.81677,-0.57144 1.05802,-0.87402c0.23921,-0.30054 0.40276,-0.60721 0.49068,-0.92002c0.08587,-0.31076 0.1288,-0.61948 0.1288,-0.92615v-2.76006M235.44255,201.8512l0.93535,-1.11936c0.42934,0.17378 0.88935,0.37312 1.38003,0.59801c0.49068,0.22489 0.98442,0.46001 1.48123,0.70535c0.49477,0.24534 0.95682,0.48761 1.38616,0.72682c0.42934,0.24125 0.79735,0.4641 1.10402,0.66855l-1.02736,1.30336c-0.27601,-0.21467 -0.6205,-0.44774 -1.03349,-0.69922c-0.41503,-0.24943 -0.86482,-0.50499 -1.34936,-0.76668c-0.48659,-0.25965 -0.97522,-0.51214 -1.4659,-0.75748c-0.49068,-0.24534 -0.96091,-0.46512 -1.4107,-0.65935M229.56976,194.18437h10.7949v7.09949h-1.76337v-5.58146h-7.34483v5.62746h-1.6867z" fill="#ffffff" fill-rule="nonzero"/><path d="M143.11621,225.13822v1.12566h6.73932v-1.12566h-6.73932M143.11621,222.85767v1.12566h6.73932v-1.12566h-6.73932M141.58123,221.6443h9.88239v5.84757h-9.88239v-5.84757M139.68077,232.44768h13.65407v1.49113h-13.65407v-1.49113M144.06644,227.98891h1.49113v5.27743h-1.49113v-5.27743M147.38494,227.98891h1.49113v5.27743h-1.49113v-5.27743M151.01043,228.31053l1.33032,0.59938c-0.28263,0.50679 -0.59645,1.01845 -0.94146,1.53499c-0.34696,0.51653 -0.6715,0.95998 -0.97362,1.33032l-1.19875,-0.55552c0.20466,-0.26314 0.41713,-0.56039 0.63739,-0.89175c0.21831,-0.33136 0.43272,-0.67247 0.64323,-1.02332c0.20856,-0.35085 0.37619,-0.68222 0.50289,-0.99409M140.7918,228.93914l1.21337,-0.52628c0.17543,0.30212 0.3606,0.62569 0.55552,0.9707c0.19492,0.34696 0.37717,0.68124 0.54675,1.00286c0.17153,0.32162 0.30602,0.60425 0.40348,0.8479l-1.27185,0.61399c-0.09746,-0.25339 -0.22611,-0.5487 -0.38594,-0.88591c-0.16178,-0.33526 -0.33331,-0.68124 -0.51459,-1.03794c-0.17933,-0.35475 -0.36157,-0.68319 -0.54675,-0.98532zM160.30807,226.33697h1.72503v6.38847c0,0.44831 -0.06042,0.79624 -0.18127,1.04379c-0.1228,0.2495 -0.34501,0.43759 -0.66662,0.56429c-0.32162,0.11695 -0.71633,0.19199 -1.18413,0.22513c-0.46781,0.03509 -1.02332,0.05263 -1.66656,0.05263c-0.03898,-0.24365 -0.11208,-0.52433 -0.21928,-0.84205c-0.1072,-0.31577 -0.21928,-0.5906 -0.33624,-0.82451c0.29238,0.00975 0.58671,0.01949 0.88298,0.02924c0.29823,0.00975 0.56429,0.0117 0.79819,0.00585c0.2339,-0.0039 0.39471,-0.00585 0.48242,-0.00585c0.13644,0 0.23195,-0.01949 0.28653,-0.05848c0.05263,-0.03898 0.07894,-0.11208 0.07894,-0.21928v-6.35923M156.858,228.20819l1.63732,0.42395c-0.21441,0.58476 -0.47755,1.16172 -0.78942,1.73088c-0.31187,0.57111 -0.64323,1.10519 -0.99409,1.60223c-0.35085,0.49704 -0.70658,0.93074 -1.06718,1.30108c-0.1072,-0.09746 -0.25047,-0.20466 -0.4298,-0.32162c-0.18127,-0.11695 -0.36255,-0.2339 -0.54382,-0.35085c-0.17933,-0.11695 -0.33721,-0.20466 -0.47365,-0.26314c0.54577,-0.49704 1.05549,-1.11591 1.52914,-1.8566c0.4717,-0.74069 0.84887,-1.496 1.1315,-2.26593M163.68504,228.77833l1.46189,-0.61399c0.34111,0.45806 0.67539,0.95023 1.00286,1.47651c0.32552,0.52628 0.62277,1.04477 0.89175,1.55545c0.26704,0.51264 0.46878,0.97849 0.60522,1.39757l-1.6227,0.70171c-0.1072,-0.39958 -0.28458,-0.86057 -0.53213,-1.38295c-0.2495,-0.52043 -0.53213,-1.05646 -0.8479,-1.60808c-0.31772,-0.54967 -0.63739,-1.05841 -0.959,-1.52622M155.95163,221.93668h10.3502v1.56422h-10.3502v-1.56422M154.63592,225.47445h13.01084v1.56422h-13.01084zM172.32482,224.96279h7.28022v1.37418h-7.28022v-1.37418M171.30149,231.29279h10.64258v1.37418h-10.64258v-1.37418M171.75468,222.33139h10.24786v1.40342h-10.24786v-1.40342M178.99105,224.96279h1.54961c0,0 0,0.04386 0,0.13157c0,0.08771 -0.00292,0.18712 -0.00877,0.29823c-0.0039,0.11305 -0.00585,0.20369 -0.00585,0.27191c-0.03898,1.42291 -0.08284,2.62848 -0.13157,3.61672c-0.04873,0.99019 -0.10428,1.7991 -0.16666,2.42674c-0.06432,0.62959 -0.13742,1.11689 -0.21928,1.46189c-0.08381,0.34696 -0.1842,0.5984 -0.30115,0.75434c-0.16568,0.22416 -0.34111,0.38009 -0.52628,0.46781c-0.18517,0.08771 -0.39958,0.15106 -0.64323,0.19005c-0.2339,0.01949 -0.52336,0.02924 -0.86836,0.02924c-0.34696,0 -0.70561,-0.00487 -1.07595,-0.01462c-0.00975,-0.17543 -0.04873,-0.38009 -0.11695,-0.61399c-0.06822,-0.2339 -0.15594,-0.4337 -0.26314,-0.59938c0.34111,0.02924 0.65298,0.04873 0.93561,0.05848c0.28263,0.00975 0.49704,0.00975 0.64323,0c0.1267,0 0.22903,-0.01462 0.307,-0.04386c0.07797,-0.02924 0.15106,-0.09259 0.21928,-0.19005c0.08771,-0.1072 0.16568,-0.32649 0.2339,-0.65785c0.06822,-0.33136 0.12865,-0.80404 0.18127,-1.41804c0.05458,-0.61399 0.10136,-1.40147 0.14034,-2.36242c0.03898,-0.959 0.07797,-2.12072 0.11695,-3.48515v-0.32162M171.59387,224.96279h1.56422c-0.06822,0.63349 -0.14619,1.29816 -0.2339,1.99402c-0.08771,0.69781 -0.17835,1.3927 -0.27191,2.08466c-0.09161,0.69196 -0.18615,1.34689 -0.28361,1.96478c-0.09746,0.61984 -0.19005,1.17341 -0.27776,1.66071h-1.60808c0.09746,-0.49704 0.19979,-1.06036 0.307,-1.68995c0.1072,-0.62764 0.21149,-1.28744 0.31284,-1.9794c0.10331,-0.69196 0.19394,-1.38393 0.27191,-2.07589c0.07797,-0.69196 0.15106,-1.34494 0.21928,-1.95894M172.26634,220.86949l1.56422,0.45319c-0.29238,0.67247 -0.63349,1.33227 -1.02332,1.9794c-0.38984,0.64908 -0.79917,1.25625 -1.22799,1.82152c-0.42882,0.56527 -0.85764,1.06231 -1.28647,1.49113c-0.1072,-0.07797 -0.24657,-0.17543 -0.4181,-0.29238c-0.16958,-0.11695 -0.34208,-0.23195 -0.51751,-0.34501c-0.17543,-0.1111 -0.33136,-0.20077 -0.46781,-0.26899c0.45806,-0.38009 0.89663,-0.83133 1.3157,-1.35371c0.41908,-0.52043 0.80696,-1.0779 1.16367,-1.6724c0.35475,-0.5945 0.65395,-1.19875 0.8976,-1.81275M174.13757,226.93635l0.87714,-0.8479c0.28263,0.1267 0.58183,0.27484 0.8976,0.44442c0.31772,0.17153 0.61302,0.34988 0.88591,0.53505c0.27289,0.18517 0.49704,0.3606 0.67247,0.52628l-0.92099,0.93561c-0.16568,-0.16568 -0.38009,-0.34598 -0.64323,-0.5409c-0.26314,-0.19492 -0.5487,-0.38496 -0.85667,-0.57014c-0.30602,-0.18517 -0.6101,-0.34598 -0.91222,-0.48242M173.90366,230.02094l0.86252,-0.8479c0.30212,0.13644 0.61399,0.29725 0.93561,0.48242c0.32162,0.18517 0.62374,0.37522 0.90637,0.57014c0.28263,0.19492 0.51166,0.38009 0.68709,0.55552l-0.90637,0.95023c-0.16568,-0.18517 -0.38789,-0.38009 -0.66662,-0.58476c-0.27678,-0.20466 -0.57404,-0.40738 -0.89175,-0.60815c-0.31577,-0.19882 -0.62471,-0.37132 -0.92684,-0.51751M168.97709,228.09124h2.98226v0.04386h7.71879v-0.04386h2.86531v1.40342h-2.86531v-0.04386h-7.71879v0.04386h-2.98226zM190.37919,220.94259l1.40342,0.65785c-0.55552,0.93561 -1.2085,1.79813 -1.95894,2.58755c-0.75044,0.78942 -1.57202,1.496 -2.46475,2.11974c-0.89078,0.62374 -1.80885,1.15977 -2.7542,1.60808c-0.1267,-0.24365 -0.29725,-0.50484 -0.51166,-0.78357c-0.21441,-0.27678 -0.4337,-0.52238 -0.65785,-0.73679c0.93561,-0.3606 1.83711,-0.80891 2.7045,-1.34494c0.86739,-0.53603 1.66656,-1.15002 2.3975,-1.84198c0.73095,-0.69196 1.34494,-1.44727 1.84198,-2.26593M190.94933,221.8782c0.76993,0.82841 1.52037,1.53206 2.25131,2.11097c0.73095,0.58086 1.44532,1.06621 2.14313,1.45604c0.69586,0.38984 1.37028,0.72607 2.02326,1.00871c-0.21441,0.17543 -0.42882,0.39958 -0.64323,0.67247c-0.21441,0.27289 -0.38496,0.5409 -0.51166,0.80404c-0.65298,-0.33136 -1.3274,-0.7212 -2.02326,-1.16951c-0.69781,-0.44831 -1.42681,-1.00676 -2.18699,-1.67533c-0.76018,-0.66662 -1.57397,-1.49211 -2.44136,-2.47645l1.3888,-0.73095M189.53129,225.57679h1.63732v9.00526h-1.63732zM203.71165,224.97741h1.46189c-0.06822,0.61399 -0.14132,1.25918 -0.21928,1.93555c-0.07797,0.67832 -0.16276,1.35079 -0.25437,2.01741c-0.09356,0.66857 -0.18225,1.30206 -0.26606,1.90046c-0.08187,0.60035 -0.16178,1.12956 -0.23975,1.58761h-1.52037c0.09746,-0.47755 0.19492,-1.02138 0.29238,-1.63147c0.09746,-0.60815 0.19199,-1.24651 0.28361,-1.91508c0.09356,-0.66662 0.17933,-1.33422 0.25729,-2.00279c0.07797,-0.66662 0.14619,-1.29719 0.20466,-1.89169M205.90448,226.67321l0.81866,-0.52628c0.26314,0.20466 0.53603,0.44344 0.81866,0.71633c0.28263,0.27289 0.50192,0.51166 0.65785,0.71633l-0.86252,0.59938c-0.13644,-0.21441 -0.34306,-0.46586 -0.61984,-0.75434c-0.27873,-0.28653 -0.54967,-0.537 -0.81281,-0.75141M205.50977,229.69932l0.86252,-0.5409c0.29238,0.22416 0.59645,0.48242 0.91222,0.7748c0.31772,0.29238 0.56429,0.55552 0.73972,0.78942l-0.89175,0.61399c-0.16568,-0.22416 -0.40446,-0.49217 -0.71633,-0.80404c-0.31187,-0.31187 -0.61399,-0.58963 -0.90637,-0.83328M203.91631,222.47758h7.55798v1.41804h-7.55798v-1.41804M204.32564,224.97741h5.56981v1.34494h-5.56981v-1.34494M201.86966,227.9012h9.98472v1.41804h-9.98472v-1.41804M203.46312,231.0735h8.01117v1.34494h-8.01117v-1.34494M204.00402,220.94259l1.52037,0.39471c-0.19492,0.60425 -0.43077,1.20557 -0.70756,1.80398c-0.27873,0.60035 -0.57404,1.16367 -0.88591,1.68995c-0.31187,0.52628 -0.62861,0.98921 -0.95023,1.3888c-0.09746,-0.08771 -0.23098,-0.18517 -0.40056,-0.29238c-0.17153,-0.1072 -0.34013,-0.21441 -0.50581,-0.32162c-0.16568,-0.1072 -0.31187,-0.19492 -0.43857,-0.26314c0.33136,-0.35085 0.64616,-0.76311 0.94438,-1.23676c0.29628,-0.4717 0.56624,-0.97849 0.80989,-1.52037c0.24365,-0.53993 0.44831,-1.08765 0.61399,-1.64317M209.44226,224.97741h1.46189c0,0 -0.00292,0.04386 -0.00877,0.13157c-0.0039,0.08771 -0.00585,0.18225 -0.00585,0.28361c0,0.10331 -0.00487,0.18907 -0.01462,0.25729c-0.05848,1.39367 -0.11695,2.57488 -0.17543,3.54363c-0.05848,0.9707 -0.12475,1.76791 -0.19882,2.39166c-0.07212,0.62374 -0.15399,1.11104 -0.2456,1.46189c-0.09356,0.35085 -0.20369,0.60425 -0.33039,0.76018c-0.16568,0.22416 -0.33916,0.37717 -0.52043,0.45903c-0.17933,0.08381 -0.38594,0.14521 -0.61984,0.1842c-0.21441,0.02924 -0.4873,0.04386 -0.81866,0.04386c-0.33136,0 -0.67734,-0.00975 -1.03794,-0.02924c-0.00975,-0.19492 -0.04873,-0.4142 -0.11695,-0.65785c-0.06822,-0.24365 -0.16081,-0.45806 -0.27776,-0.64323c0.34111,0.02924 0.65298,0.04873 0.93561,0.05848c0.28263,0.00975 0.49217,0.01462 0.62861,0.01462c0.1267,0 0.22903,-0.01754 0.307,-0.05263c0.07797,-0.03314 0.15594,-0.09356 0.2339,-0.18127c0.09746,-0.1072 0.18517,-0.32454 0.26314,-0.652c0.07797,-0.32552 0.15106,-0.78845 0.21928,-1.3888c0.06822,-0.5984 0.12962,-1.36346 0.1842,-2.29517c0.05263,-0.92976 0.09843,-2.05737 0.13742,-3.38282v-0.307M199.03359,222.24367l0.87714,-1.06718c0.28263,0.1267 0.58768,0.27776 0.91514,0.45319c0.32552,0.17543 0.63641,0.35573 0.93269,0.5409c0.29823,0.18517 0.53993,0.35573 0.7251,0.51166l-0.92099,1.18413c-0.17543,-0.15594 -0.40641,-0.33429 -0.69294,-0.53505c-0.28848,-0.19882 -0.59548,-0.39374 -0.92099,-0.58476c-0.32746,-0.18907 -0.63251,-0.3567 -0.91514,-0.50289M198.21493,226.42468l0.8479,-1.05256c0.28263,0.1267 0.57793,0.27484 0.88591,0.44442c0.30602,0.17153 0.5984,0.34501 0.87714,0.52043c0.27678,0.17543 0.50289,0.34111 0.67832,0.49704l-0.90637,1.19875c-0.15594,-0.16568 -0.37035,-0.34598 -0.64323,-0.5409c-0.27289,-0.19492 -0.56332,-0.38496 -0.87129,-0.57014c-0.30602,-0.18517 -0.59548,-0.35085 -0.86836,-0.49704M198.62426,233.51486c0.19492,-0.38009 0.41128,-0.82841 0.64908,-1.34494c0.23975,-0.51653 0.4795,-1.06718 0.71925,-1.65194c0.2378,-0.58476 0.45903,-1.15977 0.6637,-1.72503l1.19875,0.8479c-0.17543,0.51653 -0.3684,1.04769 -0.57891,1.59346c-0.20856,0.54577 -0.42297,1.08667 -0.64323,1.6227c-0.21831,0.53603 -0.43467,1.03794 -0.64908,1.50575zM214.01799,221.90744h2.86531v9.10759h-2.86531v-1.25723h1.63732v-6.60775h-1.63732v-1.24261M213.24318,221.90744h1.24261v10.39405h-1.24261v-10.39405M217.21953,224.10028h9.1953v1.21337h-9.1953v-1.21337M218.05281,221.98053h7.49951v5.49671h-7.61646v-1.27185h6.27152v-2.95302h-6.15457v-1.27185M220.85964,221.01568h1.44727v13.53712h-1.44727v-13.53712M224.39742,228.062h1.30108v6.44694h-1.30108v-6.44694M217.57038,228.062h1.27185v1.21337c0,0.54577 -0.02631,1.12761 -0.07894,1.7455c-0.05458,0.61984 -0.1725,1.23871 -0.35378,1.8566c-0.17933,0.61984 -0.45903,1.20752 -0.83913,1.76304c-0.1267,-0.13644 -0.30505,-0.28751 -0.53505,-0.45319c-0.22806,-0.16568 -0.4298,-0.29238 -0.60522,-0.38009c0.34111,-0.47755 0.59158,-0.98239 0.75141,-1.51452c0.16178,-0.53018 0.26704,-1.05841 0.31577,-1.58469c0.04873,-0.52628 0.07309,-1.01845 0.07309,-1.47651v-1.16951M219.55856,228.66138l1.00871,0.17543c-0.05848,0.54577 -0.13352,1.0935 -0.22513,1.64317c-0.09356,0.55162 -0.20369,1.07108 -0.33039,1.55838c-0.1267,0.4873 -0.26801,0.92099 -0.42395,1.30108c-0.09746,-0.07797 -0.2339,-0.17348 -0.40933,-0.28653c-0.17543,-0.1111 -0.32649,-0.19589 -0.45319,-0.25437c0.22416,-0.52628 0.40251,-1.15977 0.53505,-1.90046c0.1306,-0.74069 0.23,-1.48626 0.29823,-2.2367M222.51158,228.80757l0.96485,-0.11695c0.11695,0.45806 0.22903,0.94731 0.33624,1.46774c0.1072,0.52238 0.20272,1.0243 0.28653,1.50575c0.08187,0.4834 0.13742,0.90053 0.16666,1.25138l-1.05256,0.19005c-0.01949,-0.3606 -0.0653,-0.78747 -0.13742,-1.28062c-0.07407,-0.4912 -0.15691,-1.00286 -0.24852,-1.53499c-0.09356,-0.53018 -0.19882,-1.0243 -0.31577,-1.48236zM233.54887,221.62968h6.85627v7.79189h-1.53499v-6.41771h-3.84478v6.41771h-1.47651v-7.79189M236.80889,229.36309h1.43265v3.33311c0,0.19492 0.03216,0.32844 0.09648,0.40056c0.06237,0.07407 0.16666,0.1111 0.31284,0.1111h0.74557c0.1267,0 0.22416,-0.0614 0.29238,-0.1842c0.06822,-0.12085 0.11695,-0.35475 0.14619,-0.70171c0.02924,-0.34501 0.04873,-0.83913 0.05848,-1.48236c0.18517,0.13644 0.39276,0.25339 0.62277,0.35085c0.22806,0.09746 0.43467,0.17055 0.61984,0.21928c-0.04873,0.75044 -0.1189,1.34202 -0.21051,1.77474c-0.09356,0.43467 -0.25729,0.73679 -0.4912,0.90637c-0.2339,0.17153 -0.58476,0.25729 -1.05256,0.25729h-1.02332c-0.54577,0 -0.94048,-0.10233 -1.18413,-0.307c-0.24365,-0.20466 -0.36547,-0.59938 -0.36547,-1.18413v-3.49392M236.16565,223.99794h1.47651v2.4706c0,0.63349 -0.06042,1.31765 -0.18127,2.0525c-0.1228,0.73679 -0.34501,1.47261 -0.66662,2.20746c-0.32162,0.73679 -0.7865,1.43655 -1.39465,2.09928c-0.6101,0.66272 -1.40244,1.25235 -2.37704,1.76889c-0.05848,-0.1072 -0.14814,-0.2339 -0.26899,-0.38009c-0.1228,-0.14619 -0.24755,-0.29043 -0.37424,-0.43272c-0.1267,-0.14034 -0.24365,-0.24462 -0.35085,-0.31284c0.92586,-0.47755 1.66461,-1.00871 2.21623,-1.59346c0.54967,-0.58476 0.96387,-1.18706 1.24261,-1.8069c0.27678,-0.61789 0.45903,-1.23871 0.54675,-1.86245c0.08771,-0.62374 0.13157,-1.21337 0.13157,-1.76889v-2.44136M227.61358,222.05363h4.41491v1.49113h-4.41491v-1.49113M231.50222,222.05363h0.24852l0.27776,-0.05848l1.00871,0.307c-0.19492,1.78351 -0.49899,3.4179 -0.91222,4.90319c-0.41518,1.48723 -0.93171,2.80781 -1.54961,3.96173c-0.61984,1.15587 -1.34884,2.13339 -2.18699,2.93256c-0.08771,-0.1267 -0.19687,-0.26606 -0.32746,-0.4181c-0.13255,-0.15009 -0.26899,-0.29335 -0.40933,-0.4298c-0.14229,-0.13644 -0.28166,-0.25339 -0.4181,-0.35085c0.55552,-0.4873 1.06718,-1.09934 1.53499,-1.83614c0.46781,-0.73484 0.88493,-1.56033 1.25138,-2.47645c0.3645,-0.91612 0.67345,-1.89559 0.92684,-2.9384c0.25339,-1.04282 0.43857,-2.11974 0.55552,-3.23078v-0.36547M227.64282,225.50369l1.15489,-0.80404c0.39958,0.52628 0.81379,1.08667 1.24261,1.68118c0.42882,0.5945 0.83815,1.19583 1.22799,1.80398c0.38984,0.6101 0.74362,1.19485 1.06133,1.75427c0.31577,0.56137 0.56624,1.07595 0.75141,1.54376l-1.30108,0.96485c-0.17543,-0.46781 -0.41128,-0.98921 -0.70756,-1.56422c-0.29823,-0.57501 -0.63739,-1.17439 -1.01748,-1.79813c-0.38009,-0.62374 -0.77675,-1.24261 -1.18998,-1.8566c-0.41518,-0.61399 -0.82256,-1.18901 -1.22214,-1.72503zM248.60636,232.14068l0.95023,-0.57014c0.2339,0.2339 0.47268,0.4873 0.71633,0.76018c0.24365,0.27289 0.47268,0.54285 0.68709,0.80989c0.21441,0.26899 0.38496,0.50581 0.51166,0.71048l-0.99409,0.65785c-0.1267,-0.21441 -0.29238,-0.46098 -0.49704,-0.73972c-0.20466,-0.27678 -0.42882,-0.55942 -0.67247,-0.8479c-0.24365,-0.28653 -0.47755,-0.54675 -0.70171,-0.78065M246.01881,221.76125h5.13124v9.41459h-1.22799v-8.28893h-2.71912v8.3474h-1.18413v-9.47306M253.98612,221.17649h1.24261v11.79747c0,0.37035 -0.04386,0.65785 -0.13157,0.86252c-0.08771,0.20466 -0.23878,0.3606 -0.45319,0.46781c-0.21441,0.1072 -0.49899,0.17738 -0.85375,0.21051c-0.3567,0.03509 -0.79819,0.04776 -1.32447,0.03801c-0.02924,-0.16568 -0.08284,-0.37522 -0.16081,-0.62861c-0.07797,-0.25339 -0.16081,-0.47268 -0.24852,-0.65785c0.3606,0.00975 0.69489,0.01462 1.00286,0.01462c0.30602,0 0.51751,0 0.63446,0c0.19492,0 0.29238,-0.09746 0.29238,-0.29238v-11.81209M251.98333,222.30215h1.19875v8.93216h-1.19875v-8.93216M247.9485,223.76404h1.15489v5.49671c0,0.4873 -0.03898,0.97947 -0.11695,1.47651c-0.07797,0.49704 -0.22123,0.98434 -0.4298,1.46189c-0.21051,0.47755 -0.51751,0.92099 -0.92099,1.33032c-0.40543,0.40933 -0.93464,0.76993 -1.58761,1.0818c-0.03898,-0.08771 -0.09941,-0.19492 -0.18127,-0.32162c-0.08381,-0.1267 -0.17153,-0.25145 -0.26314,-0.37424c-0.09356,-0.12085 -0.17445,-0.21051 -0.24267,-0.26899c0.58476,-0.27289 1.05061,-0.57793 1.39757,-0.91514c0.34501,-0.33526 0.60327,-0.69294 0.7748,-1.07303c0.16958,-0.38009 0.28166,-0.7748 0.33624,-1.18413c0.05263,-0.40933 0.07894,-0.81866 0.07894,-1.22799v-5.4821M242.56874,222.22905l0.92099,-1.14028c0.25339,0.1267 0.53408,0.27776 0.84205,0.45319c0.30602,0.17543 0.60327,0.35085 0.89175,0.52628c0.28653,0.17543 0.51751,0.33624 0.69294,0.48242l-0.96485,1.27185c-0.16568,-0.15594 -0.38496,-0.32941 -0.65785,-0.52043c-0.27289,-0.18907 -0.56234,-0.37619 -0.86836,-0.56137c-0.30797,-0.18517 -0.59353,-0.35573 -0.85667,-0.51166M241.98398,226.14692l0.87714,-1.12566c0.26314,0.1267 0.5487,0.27289 0.85667,0.43857c0.30602,0.16568 0.60035,0.33136 0.88298,0.49704c0.28263,0.16568 0.52141,0.31674 0.71633,0.45319l-0.93561,1.25723c-0.16568,-0.14619 -0.38984,-0.30992 -0.67247,-0.4912c-0.28263,-0.17933 -0.57501,-0.35963 -0.87714,-0.5409c-0.30212,-0.17933 -0.58476,-0.34208 -0.8479,-0.48827M242.24713,233.63181c0.18517,-0.38009 0.38984,-0.82841 0.61399,-1.34494c0.22416,-0.51653 0.44831,-1.06523 0.67247,-1.64609c0.22416,-0.57891 0.4337,-1.14612 0.62861,-1.70164l1.25723,0.80404c-0.16568,0.51653 -0.34598,1.04769 -0.5409,1.59346c-0.19492,0.54577 -0.39666,1.0818 -0.60522,1.60808c-0.21051,0.52628 -0.41323,1.02332 -0.60815,1.49113zM262.58205,220.95721h1.59346v5.05815h-1.59346v-5.05815M259.93602,226.76092v2.09051h6.97323v-2.09051h-6.97323M258.44489,225.29903h10.07244v4.99967h-10.07244v-4.99967M263.31299,222.31677h6.19842v1.47651h-6.19842v-1.47651M260.90087,231.46821l1.49113,-0.14619c0.07797,0.32162 0.14619,0.6676 0.20466,1.03794c0.05848,0.37035 0.10526,0.72315 0.14034,1.05841c0.03314,0.33721 0.05458,0.63251 0.06432,0.88591l-1.59346,0.20466c0,-0.25339 -0.0117,-0.55552 -0.03509,-0.90637c-0.02534,-0.35085 -0.06237,-0.71438 -0.1111,-1.09057c-0.04873,-0.37424 -0.10233,-0.72217 -0.16081,-1.04379M263.91237,231.48283l1.43265,-0.32162c0.15594,0.30212 0.307,0.62861 0.45319,0.97947c0.14619,0.35085 0.28068,0.69196 0.40348,1.02332c0.12085,0.33136 0.20564,0.62861 0.25437,0.89175l-1.53499,0.38009c-0.04873,-0.25339 -0.12377,-0.55065 -0.22513,-0.89175c-0.10331,-0.34111 -0.22318,-0.69196 -0.35963,-1.05256c-0.13644,-0.3606 -0.27776,-0.69684 -0.42395,-1.00871M266.89463,231.3805l1.40342,-0.51166c0.24365,0.31187 0.49022,0.64811 0.73972,1.00871c0.24755,0.3606 0.47853,0.71828 0.69294,1.07303c0.21441,0.3567 0.38009,0.67637 0.49704,0.959l-1.50575,0.59938c-0.1072,-0.28263 -0.26022,-0.60425 -0.45903,-0.96485c-0.20077,-0.3606 -0.42005,-0.73095 -0.65785,-1.11104c-0.23975,-0.38009 -0.47658,-0.73095 -0.71048,-1.05256M258.50337,230.97117l1.50575,0.38009c-0.21441,0.58476 -0.49412,1.16951 -0.83913,1.75427c-0.34696,0.58476 -0.71048,1.07205 -1.09057,1.46189l-1.44727,-0.70171c0.37035,-0.32162 0.7212,-0.74849 1.05256,-1.28062c0.33136,-0.53018 0.60425,-1.06816 0.81866,-1.61393zM272.81529,223.32547h4.47339v9.76544h-4.47339v-1.3888h3.04074v-7.00246h-3.04074v-1.37418M271.8943,223.32547h1.43265v10.87648h-1.43265v-10.87648M272.7422,227.27258h3.83016v1.35956h-3.83016v-1.35956M274.01404,220.94259l1.71041,0.26314c-0.15594,0.47755 -0.32162,0.95705 -0.49704,1.4385c-0.17543,0.4834 -0.33624,0.89565 -0.48242,1.23676l-1.25723,-0.29238c0.06822,-0.24365 0.13937,-0.52141 0.21344,-0.83328c0.07212,-0.31187 0.13742,-0.62666 0.19589,-0.94438c0.05848,-0.31577 0.09746,-0.60522 0.11695,-0.86836M279.26224,223.23776h4.34182v1.43265h-4.34182v-1.43265M283.04854,223.23776h1.46189c0,0 0,0.04581 0,0.13742c0,0.09356 0,0.19589 0,0.307c0,0.11305 -0.00487,0.20369 -0.01462,0.27191c-0.04873,1.65681 -0.09941,3.06023 -0.15204,4.21025c-0.05458,1.15002 -0.11793,2.09538 -0.19005,2.83607c-0.07407,0.74069 -0.15983,1.31765 -0.25729,1.73088c-0.09746,0.41518 -0.22416,0.72023 -0.38009,0.91514c-0.19492,0.26314 -0.39471,0.44344 -0.59938,0.5409c-0.20466,0.09746 -0.45319,0.17055 -0.74557,0.21928c-0.26314,0.02924 -0.59938,0.04386 -1.00871,0.04386c-0.40933,0 -0.82841,-0.00975 -1.25723,-0.02924c-0.00975,-0.21441 -0.06042,-0.46781 -0.15204,-0.76018c-0.09356,-0.29238 -0.21831,-0.54577 -0.37424,-0.76018c0.47755,0.03898 0.91612,0.06335 1.3157,0.07309c0.39958,0.00975 0.69196,0.01462 0.87714,0.01462c0.14619,0 0.26606,-0.01754 0.35963,-0.05263c0.09161,-0.03314 0.18615,-0.09843 0.28361,-0.19589c0.11695,-0.13644 0.21928,-0.40251 0.307,-0.79819c0.08771,-0.39374 0.16081,-0.95121 0.21928,-1.6724c0.05848,-0.7212 0.115,-1.63732 0.16958,-2.74836c0.05263,-1.11104 0.09843,-2.43649 0.13742,-3.97635v-0.307M279.37919,220.94259l1.50575,0.35085c-0.18517,0.7212 -0.40641,1.4346 -0.6637,2.14021c-0.25924,0.70756 -0.5448,1.3732 -0.85667,1.99694c-0.31187,0.62374 -0.63349,1.16951 -0.96485,1.63732c-0.09746,-0.08771 -0.22416,-0.19005 -0.38009,-0.307c-0.15594,-0.11695 -0.31674,-0.23195 -0.48242,-0.34501c-0.16568,-0.1111 -0.307,-0.19589 -0.42395,-0.25437c0.32162,-0.41908 0.62666,-0.9093 0.91514,-1.47066c0.28653,-0.55942 0.5448,-1.16074 0.7748,-1.80398c0.22806,-0.64323 0.42005,-1.29134 0.57599,-1.94432M278.67748,227.33106l1.22799,-0.68709c0.24365,0.33136 0.50679,0.69878 0.78942,1.10227c0.28263,0.40543 0.5487,0.79527 0.79819,1.16951c0.24755,0.37619 0.44442,0.71048 0.5906,1.00286l-1.33032,0.81866c-0.13644,-0.30212 -0.32162,-0.64811 -0.55552,-1.03794c-0.2339,-0.38984 -0.48437,-0.79235 -0.75141,-1.20752c-0.26899,-0.41323 -0.52531,-0.80014 -0.76896,-1.16074z" fill="#ffffff" fill-rule="nonzero"/><path d="M145.99614,238.57593h6.85627v7.79189h-1.53499v-6.41771h-3.84478v6.41771h-1.47651v-7.79189M149.25616,246.30934h1.43265v3.33311c0,0.19492 0.03216,0.32844 0.09648,0.40056c0.06237,0.07407 0.16666,0.1111 0.31284,0.1111h0.74557c0.1267,0 0.22416,-0.0614 0.29238,-0.1842c0.06822,-0.12085 0.11695,-0.35475 0.14619,-0.70171c0.02924,-0.34501 0.04873,-0.83913 0.05848,-1.48236c0.18517,0.13644 0.39276,0.25339 0.62277,0.35085c0.22806,0.09746 0.43467,0.17055 0.61984,0.21928c-0.04873,0.75044 -0.1189,1.34202 -0.21051,1.77474c-0.09356,0.43467 -0.25729,0.73679 -0.4912,0.90637c-0.2339,0.17153 -0.58476,0.25729 -1.05256,0.25729h-1.02332c-0.54577,0 -0.94048,-0.10233 -1.18413,-0.307c-0.24365,-0.20466 -0.36547,-0.59938 -0.36547,-1.18413v-3.49392M148.61293,240.9442h1.47651v2.4706c0,0.63349 -0.06042,1.31765 -0.18127,2.0525c-0.1228,0.73679 -0.34501,1.47261 -0.66662,2.20746c-0.32162,0.73679 -0.7865,1.43655 -1.39465,2.09928c-0.6101,0.66272 -1.40244,1.25235 -2.37704,1.76889c-0.05848,-0.1072 -0.14814,-0.2339 -0.26899,-0.38009c-0.1228,-0.14619 -0.24755,-0.29043 -0.37424,-0.43272c-0.1267,-0.14034 -0.24365,-0.24462 -0.35085,-0.31284c0.92586,-0.47755 1.66461,-1.00871 2.21623,-1.59346c0.54967,-0.58476 0.96387,-1.18706 1.24261,-1.8069c0.27678,-0.61789 0.45903,-1.23871 0.54675,-1.86245c0.08771,-0.62374 0.13157,-1.21337 0.13157,-1.76889v-2.44136M140.06086,238.99988h4.41491v1.49113h-4.41491v-1.49113M143.94949,238.99988h0.24852l0.27776,-0.05848l1.00871,0.307c-0.19492,1.78351 -0.49997,3.4179 -0.91514,4.90319c-0.41323,1.48723 -0.92879,2.80781 -1.54668,3.96173c-0.61984,1.15587 -1.34884,2.13339 -2.18699,2.93256c-0.08771,-0.1267 -0.19687,-0.26606 -0.32746,-0.4181c-0.13255,-0.15009 -0.26899,-0.29335 -0.40933,-0.4298c-0.14229,-0.13644 -0.28166,-0.25339 -0.4181,-0.35085c0.55552,-0.4873 1.06718,-1.09934 1.53499,-1.83614c0.46781,-0.73484 0.88493,-1.56033 1.25138,-2.47645c0.3645,-0.91612 0.67345,-1.89559 0.92684,-2.9384c0.25339,-1.04282 0.43857,-2.11974 0.55552,-3.23078v-0.36547M140.0901,242.44995l1.15489,-0.80404c0.39958,0.52628 0.81379,1.08667 1.24261,1.68118c0.42882,0.5945 0.83815,1.19583 1.22799,1.80398c0.38984,0.6101 0.74362,1.19485 1.06133,1.75427c0.31577,0.56137 0.56624,1.07595 0.75141,1.54376l-1.30108,0.96485c-0.17543,-0.46781 -0.41128,-0.98921 -0.70756,-1.56422c-0.29823,-0.57501 -0.63739,-1.17439 -1.01748,-1.79813c-0.38009,-0.62374 -0.77675,-1.24261 -1.18998,-1.8566c-0.41518,-0.61399 -0.82256,-1.18901 -1.22214,-1.72503zM161.05363,249.08694l0.95023,-0.57014c0.2339,0.2339 0.47268,0.4873 0.71633,0.76018c0.24365,0.27289 0.47268,0.54285 0.68709,0.80989c0.21441,0.26899 0.38496,0.50581 0.51166,0.71048l-0.99409,0.65785c-0.1267,-0.21441 -0.29238,-0.46098 -0.49704,-0.73972c-0.20466,-0.27678 -0.42882,-0.55942 -0.67247,-0.8479c-0.24365,-0.28653 -0.47755,-0.54675 -0.70171,-0.78065M158.46608,238.7075h5.13124v9.41459h-1.22799v-8.28893h-2.71912v8.3474h-1.18413v-9.47306M166.43339,238.12275h1.24261v11.79747c0,0.37035 -0.04386,0.65785 -0.13157,0.86252c-0.08771,0.20466 -0.23878,0.3606 -0.45319,0.46781c-0.21441,0.1072 -0.49899,0.17738 -0.85375,0.21051c-0.3567,0.03509 -0.79819,0.04776 -1.32447,0.03801c-0.02924,-0.16568 -0.08284,-0.37522 -0.16081,-0.62861c-0.07797,-0.25339 -0.16081,-0.47268 -0.24852,-0.65785c0.3606,0.00975 0.69489,0.01462 1.00286,0.01462c0.30602,0 0.51751,0 0.63446,0c0.19492,0 0.29238,-0.09746 0.29238,-0.29238v-11.81209M164.4306,239.2484h1.19875v8.93216h-1.19875v-8.93216M160.39578,240.7103h1.15489v5.49671c0,0.4873 -0.03898,0.97947 -0.11695,1.47651c-0.07797,0.49704 -0.22221,0.98434 -0.43272,1.46189c-0.20856,0.47755 -0.51459,0.92099 -0.91807,1.33032c-0.40543,0.40933 -0.93464,0.76993 -1.58761,1.0818c-0.03898,-0.08771 -0.09941,-0.19492 -0.18127,-0.32162c-0.08381,-0.1267 -0.17153,-0.25145 -0.26314,-0.37424c-0.09356,-0.12085 -0.17445,-0.21051 -0.24267,-0.26899c0.58476,-0.27289 1.05061,-0.57793 1.39757,-0.91514c0.34501,-0.33526 0.6023,-0.69294 0.77188,-1.07303c0.17153,-0.38009 0.28458,-0.7748 0.33916,-1.18413c0.05263,-0.40933 0.07894,-0.81866 0.07894,-1.22799v-5.4821M155.01602,239.17531l0.92099,-1.14028c0.25339,0.1267 0.53408,0.27776 0.84205,0.45319c0.30602,0.17543 0.6023,0.35085 0.88883,0.52628c0.28848,0.17543 0.52043,0.33624 0.69586,0.48242l-0.96485,1.27185c-0.16568,-0.15594 -0.38496,-0.32941 -0.65785,-0.52043c-0.27289,-0.18907 -0.56234,-0.37619 -0.86836,-0.56137c-0.30797,-0.18517 -0.59353,-0.35573 -0.85667,-0.51166M154.43126,243.09318l0.87714,-1.12566c0.26314,0.1267 0.5487,0.27289 0.85667,0.43857c0.30602,0.16568 0.60035,0.33136 0.88298,0.49704c0.28263,0.16568 0.52141,0.31674 0.71633,0.45319l-0.93561,1.25723c-0.16568,-0.14619 -0.38984,-0.30992 -0.67247,-0.4912c-0.28263,-0.17933 -0.57501,-0.35963 -0.87714,-0.5409c-0.30212,-0.17933 -0.58476,-0.34208 -0.8479,-0.48827M154.6944,250.57807c0.18517,-0.38009 0.38984,-0.82841 0.61399,-1.34494c0.22416,-0.51653 0.44831,-1.06523 0.67247,-1.64609c0.22416,-0.57891 0.4337,-1.14612 0.62861,-1.70164l1.25723,0.80404c-0.16568,0.51653 -0.34598,1.04769 -0.5409,1.59346c-0.19492,0.54577 -0.39763,1.0818 -0.60815,1.60808c-0.20856,0.52628 -0.4103,1.02332 -0.60522,1.49113zM173.4651,239.27764h8.87369v1.35956h-8.87369v-1.35956M172.82186,249.92022h9.88239v1.3157h-9.88239v-1.3157M174.13757,241.74824h7.39717v8.43512h-1.44727v-7.28022h-4.5611v7.28022h-1.3888v-8.43512M175.16089,243.82413h5.20434v1.09642h-5.20434v-1.09642M175.13165,245.87077h5.56981v1.06718h-5.56981v-1.06718M175.10241,247.88819h5.29205v1.0818h-5.29205v-1.0818M177.20754,237.9327l1.66656,0.05848c-0.07797,0.49704 -0.17055,1.00871 -0.27776,1.53499c-0.1072,0.52628 -0.21441,1.02527 -0.32162,1.49698c-0.1072,0.47365 -0.21441,0.88591 -0.32162,1.23676l-1.37418,-0.11695c0.09746,-0.37035 0.1881,-0.80404 0.27191,-1.30108c0.08187,-0.49704 0.15496,-1.00188 0.21928,-1.51452c0.06237,-0.51069 0.10818,-0.97557 0.13742,-1.39465M172.16401,237.94732l1.44727,0.45319c-0.30212,0.82841 -0.65493,1.65389 -1.05841,2.47645c-0.40543,0.82451 -0.844,1.60223 -1.3157,2.33318c-0.47365,0.73095 -0.96387,1.37905 -1.47066,1.94432c-0.03898,-0.13644 -0.10916,-0.30505 -0.21051,-0.50581c-0.10331,-0.19882 -0.20856,-0.40348 -0.31577,-0.61399c-0.1072,-0.20856 -0.20466,-0.37619 -0.29238,-0.50289c0.42882,-0.45806 0.84303,-0.98726 1.24261,-1.58761c0.39958,-0.5984 0.76798,-1.23871 1.10519,-1.92093c0.33526,-0.68222 0.62471,-1.37418 0.86836,-2.07589M170.70212,241.93828l1.44727,-1.49113v0.01462v11.08114h-1.44727z" fill="#ffffff" fill-rule="nonzero"/></g></g></svg>