<svg version="1.1" xmlns="http://www.w3.org/2000/svg" xmlns:xlink="http://www.w3.org/1999/xlink" width="76.27037" height="18.53902" viewBox="0,0,76.27037,18.53902"><g transform="translate(-241.24966,-170.12462)"><g fill="#ffffff" stroke="none" stroke-miterlimit="10"><path d="M247.69036,174.11825l1.8402,0.37196c-0.37848,1.40951 -0.82483,2.78248 -1.33904,4.11891c-0.51682,1.33904 -1.09498,2.58541 -1.73449,3.73913c-0.6395,1.15632 -1.32468,2.16517 -2.05554,3.02654c-0.10441,-0.11746 -0.25058,-0.2545 -0.43852,-0.41111c-0.19054,-0.15661 -0.38631,-0.31323 -0.5873,-0.46984c-0.2036,-0.15661 -0.37718,-0.2806 -0.52074,-0.37196c0.73086,-0.78306 1.40038,-1.70316 2.00856,-2.7603c0.60557,-1.05714 1.14719,-2.20563 1.62486,-3.44548c0.47506,-1.23985 0.87573,-2.5058 1.202,-3.79786M242.77664,175.52776l1.5857,-0.80264c0.53509,0.71781 1.0741,1.47738 1.61703,2.27871c0.54031,0.80395 1.06105,1.61311 1.56221,2.4275c0.50377,0.817 0.95795,1.60659 1.36253,2.36877c0.40458,0.76479 0.72433,1.45389 0.95925,2.06729l-1.78147,0.97883c-0.22187,-0.62645 -0.52204,-1.32207 -0.90052,-2.08686c-0.37848,-0.76218 -0.80916,-1.56482 -1.29205,-2.40792c-0.48289,-0.84049 -0.99188,-1.67184 -1.52697,-2.49406c-0.53509,-0.82222 -1.06366,-1.59875 -1.5857,-2.32961M251.80144,173.159h5.69679v1.91851h-5.69679v-1.91851M251.68398,170.22251l1.97723,0.29365c-0.26102,1.63138 -0.62645,3.17793 -1.09629,4.63965c-0.46984,1.46172 -1.04408,2.68199 -1.72274,3.66082c-0.11746,-0.10441 -0.28321,-0.22578 -0.49725,-0.36412c-0.21665,-0.13573 -0.43591,-0.26885 -0.65777,-0.39936c-0.22187,-0.13051 -0.41111,-0.23492 -0.56772,-0.31323c0.45679,-0.5873 0.85223,-1.279 1.18634,-2.07512c0.3315,-0.79612 0.61079,-1.65748 0.83788,-2.58411c0.2297,-0.92662 0.4098,-1.87935 0.54031,-2.85818M257.02839,173.159h0.29365l0.3328,-0.07831l1.38994,0.41111c-0.14356,0.6395 -0.30279,1.29205 -0.47767,1.95766c-0.1775,0.6656 -0.36412,1.29858 -0.55989,1.89893c-0.19577,0.60035 -0.38501,1.14197 -0.56772,1.62486l-1.64443,-0.52857c0.15661,-0.41763 0.31062,-0.90705 0.46201,-1.46824c0.14878,-0.5612 0.29234,-1.14588 0.43068,-1.75406c0.13573,-0.60557 0.24927,-1.18243 0.34063,-1.73057v-0.3328M254.60089,178.44467c0.24797,1.35731 0.55467,2.54496 0.9201,3.56294c0.36543,1.01798 0.82613,1.92111 1.38211,2.7094c0.55337,0.79089 1.23463,1.51914 2.0438,2.18475c-0.24797,0.19577 -0.50247,0.44374 -0.76349,0.74391c-0.26102,0.30017 -0.45679,0.5873 -0.5873,0.86137c-0.90052,-0.80916 -1.65096,-1.67445 -2.25131,-2.59585c-0.60035,-0.91879 -1.1002,-1.95896 -1.49957,-3.12051c-0.39675,-1.16154 -0.73216,-2.49275 -1.00624,-3.99362l1.76189,-0.35238M252.81942,176.05633h1.93808v1.48782c0,0.74391 -0.04307,1.58179 -0.12921,2.51363c-0.08353,0.93445 -0.25841,1.89762 -0.52465,2.8895c-0.26885,0.99188 -0.67082,1.97723 -1.20592,2.95606c-0.53509,0.97883 -1.25943,1.89893 -2.173,2.7603c-0.09136,-0.15661 -0.21795,-0.33672 -0.37979,-0.54031c-0.16444,-0.20099 -0.3315,-0.39284 -0.50116,-0.57555c-0.16966,-0.18271 -0.3328,-0.3328 -0.48941,-0.45026c0.78306,-0.74391 1.40951,-1.5335 1.87935,-2.36877c0.46984,-0.83527 0.81961,-1.68359 1.0493,-2.54496c0.22709,-0.86137 0.37326,-1.69403 0.43852,-2.49797c0.06525,-0.80133 0.09788,-1.52828 0.09788,-2.18083v-1.44867M249.86336,171.63202v1.91851h-6.57773v12.33325h6.53858v1.89893h-8.57454v-16.15068zM271.47591,171.08388h1.97723v16.93374h-1.97723v-16.93374M275.64572,170.7315h2.01639v17.79511h-2.01639v-17.79511M267.3844,170.75108h1.97723v6.63646c0,1.279 -0.05481,2.57367 -0.16444,3.88399c-0.11224,1.31294 -0.35107,2.58541 -0.7165,3.81743c-0.36543,1.23463 -0.9462,2.38704 -1.74232,3.45722c-0.13051,-0.14356 -0.30017,-0.29104 -0.50899,-0.44243c-0.20882,-0.14878 -0.42677,-0.29887 -0.65386,-0.45026c-0.2297,-0.14878 -0.43591,-0.26233 -0.61862,-0.34063c0.74391,-0.95273 1.28553,-1.97723 1.62486,-3.07352c0.33933,-1.09629 0.55858,-2.22521 0.65777,-3.38675c0.09658,-1.16154 0.14487,-2.32309 0.14487,-3.48463v-6.61689M265.72039,175.91929l1.5857,0.48941c-0.09136,0.5612 -0.20621,1.14849 -0.34455,1.76189c-0.13573,0.6134 -0.30148,1.20722 -0.49725,1.78147c-0.19577,0.57425 -0.43068,1.08324 -0.70476,1.52697l-1.54655,-0.86137c0.26102,-0.39153 0.48681,-0.84832 0.67735,-1.37036c0.18794,-0.52204 0.35368,-1.07019 0.49725,-1.64443c0.14356,-0.57425 0.2545,-1.13544 0.3328,-1.68359M268.91137,176.85897l1.48782,-0.56772c0.20882,0.43068 0.40719,0.894 0.59513,1.38994c0.19054,0.49594 0.3576,0.98144 0.50116,1.4565c0.14356,0.47767 0.24144,0.90574 0.29365,1.28422l-1.56613,0.64603c-0.0522,-0.39153 -0.14356,-0.82874 -0.27407,-1.31163c-0.13051,-0.48289 -0.28321,-0.97883 -0.45809,-1.48782c-0.1775,-0.50899 -0.37065,-0.97883 -0.57947,-1.40951M272.78754,176.5849l1.5074,-0.68518c0.28712,0.45679 0.5612,0.94229 0.82222,1.4565c0.26102,0.51682 0.49594,1.02973 0.70476,1.53872c0.20882,0.50899 0.36543,0.96578 0.46984,1.37036l-1.60528,0.76349c-0.10441,-0.40458 -0.2545,-0.86789 -0.45026,-1.38994c-0.19577,-0.52204 -0.41763,-1.048 -0.6656,-1.57787c-0.24797,-0.52726 -0.50899,-1.01929 -0.78306,-1.47607M260.90455,171.96482l1.23332,-1.52697c0.33933,0.16966 0.7152,0.37196 1.12761,0.60687c0.4098,0.23492 0.80656,0.46984 1.19026,0.70476c0.38631,0.23492 0.69693,0.45026 0.93185,0.64603l-1.29205,1.70316c-0.22187,-0.20882 -0.51552,-0.44113 -0.88095,-0.69693c-0.36543,-0.25319 -0.75305,-0.50377 -1.16285,-0.75174c-0.41241,-0.24797 -0.79481,-0.47636 -1.14719,-0.68518M260.12149,177.21135l1.17459,-1.52697c0.35238,0.16966 0.73739,0.36151 1.15502,0.57555c0.41763,0.21665 0.81961,0.43591 1.20592,0.65777c0.3837,0.22187 0.70606,0.42416 0.96708,0.60687l-1.23332,1.68359c-0.23492,-0.19577 -0.54162,-0.41111 -0.9201,-0.64603c-0.37848,-0.23492 -0.77393,-0.47375 -1.18634,-0.7165c-0.4098,-0.24014 -0.79742,-0.45157 -1.16285,-0.63428M260.47387,187.23456c0.26102,-0.50899 0.54162,-1.10934 0.84179,-1.80105c0.30017,-0.69171 0.60426,-1.42648 0.91227,-2.20432c0.30539,-0.77523 0.58208,-1.5348 0.83005,-2.27871l1.70316,1.07671c-0.22187,0.69171 -0.46723,1.40299 -0.73608,2.13385c-0.26624,0.73086 -0.53901,1.44867 -0.8183,2.15342c-0.2819,0.70476 -0.55989,1.37036 -0.83396,1.99681zM282.30176,185.37478h13.31208v1.93808h-13.31208v-1.93808M281.12716,175.7431h15.73957v12.68563h-2.13385v-10.74754h-11.56976v10.7867h-2.03596v-12.72478M280.10918,171.3971h17.48189v2.03596h-17.48189v-2.03596M285.78639,172.65h1.87935v4.40473c0,0.74391 -0.09136,1.50087 -0.27407,2.27088c-0.18271,0.77001 -0.5377,1.49696 -1.06497,2.18083c-0.52987,0.68649 -1.31685,1.2777 -2.36094,1.77364c-0.07831,-0.14356 -0.19577,-0.31062 -0.35238,-0.50116c-0.15661,-0.18794 -0.31583,-0.37718 -0.47767,-0.56772c-0.16444,-0.18794 -0.31192,-0.32758 -0.44243,-0.41894c0.92662,-0.41763 1.6092,-0.88747 2.04771,-1.40951c0.43591,-0.52204 0.71911,-1.07019 0.84962,-1.64443c0.13051,-0.57425 0.19577,-1.15502 0.19577,-1.74232v-4.346M289.93662,172.63043h2.01639v7.39995c0,0.31323 0.03263,0.50899 0.09788,0.5873c0.06525,0.07831 0.24797,0.11746 0.54814,0.11746c0.0522,0 0.16053,0 0.32497,0c0.16183,0 0.34063,0 0.5364,0c0.19577,0 0.37587,0 0.54031,0c0.16183,0 0.2819,0 0.36021,0c0.18271,0 0.30409,-0.01305 0.36412,-0.03915c0.05742,-0.0261 0.10571,-0.06525 0.14487,-0.11746c0.19577,0.15661 0.46723,0.3067 0.81439,0.45026c0.34455,0.14356 0.66691,0.24144 0.96708,0.29365c-0.14356,0.52204 -0.37196,0.88095 -0.68518,1.07671c-0.31323,0.19577 -0.77654,0.29365 -1.38994,0.29365c-0.10441,0 -0.26102,0 -0.46984,0c-0.20882,0 -0.43721,0 -0.68518,0c-0.24797,0 -0.47245,0 -0.67343,0c-0.2036,0 -0.3576,0 -0.46201,0c-0.62645,0 -1.10934,-0.07831 -1.44867,-0.23492c-0.33933,-0.15661 -0.57425,-0.42808 -0.70476,-0.81439c-0.13051,-0.3837 -0.19577,-0.91488 -0.19577,-1.59353zM310.6878,171.22091h5.10949v1.89893h-3.24971v15.34804h-1.85978v-17.24697M315.36661,171.22091h0.39153l0.31323,-0.07831l1.44867,0.90052c-0.32628,0.93968 -0.69171,1.93417 -1.09629,2.98347c-0.40458,1.05191 -0.79612,2.00856 -1.17459,2.86993c0.80916,0.90052 1.33512,1.7384 1.57787,2.51363c0.24014,0.77784 0.36021,1.49304 0.36021,2.14559c0,0.6656 -0.07439,1.23332 -0.22317,1.70316c-0.15139,0.46984 -0.40328,0.82874 -0.75566,1.07671c-0.16966,0.11746 -0.36543,0.21143 -0.5873,0.2819c-0.22187,0.07309 -0.45679,0.12921 -0.70476,0.16836c-0.22187,0.0261 -0.46984,0.04176 -0.74391,0.04698c-0.27407,0.00783 -0.54814,0.00522 -0.82222,-0.00783c-0.01305,-0.27407 -0.05873,-0.60035 -0.13704,-0.97883c-0.07831,-0.37848 -0.20229,-0.70476 -0.37196,-0.97883c0.24797,0.0261 0.47375,0.04176 0.67735,0.04698c0.20099,0.00783 0.38631,0.00522 0.55597,-0.00783c0.13051,0 0.26102,-0.01697 0.39153,-0.0509c0.13051,-0.03132 0.24144,-0.07961 0.3328,-0.14487c0.16966,-0.10441 0.29104,-0.27799 0.36412,-0.52074c0.07048,-0.24014 0.10571,-0.52987 0.10571,-0.8692c0,-0.5612 -0.13704,-1.19417 -0.41111,-1.89893c-0.27407,-0.70476 -0.80264,-1.46172 -1.5857,-2.27088c0.19577,-0.49594 0.39545,-1.02842 0.59904,-1.59745c0.20099,-0.56642 0.39675,-1.14066 0.5873,-1.72274c0.18794,-0.57947 0.36021,-1.1237 0.51682,-1.63269c0.15661,-0.50899 0.28712,-0.93968 0.39153,-1.29205v-0.68518M300.05772,172.47381h9.41634v1.87935h-9.41634v-1.87935M299.54873,177.73992h10.35601v1.89893h-10.35601v-1.89893M301.11485,174.78385l1.80105,-0.45026c0.27407,0.46984 0.51943,0.98797 0.73608,1.55438c0.21404,0.56903 0.36673,1.06236 0.45809,1.47999l-1.87935,0.52857c-0.07831,-0.43068 -0.22187,-0.93707 -0.43068,-1.51914c-0.20882,-0.57947 -0.43721,-1.11064 -0.68518,-1.59353M306.65503,174.27486l2.07512,0.45026c-0.18271,0.44374 -0.37196,0.894 -0.56772,1.35078c-0.19577,0.45679 -0.38501,0.894 -0.56772,1.31163c-0.18271,0.41763 -0.36543,0.78959 -0.54814,1.11587l-1.76189,-0.43068c0.16966,-0.35238 0.34324,-0.75044 0.52074,-1.19417c0.17488,-0.44374 0.33802,-0.894 0.48941,-1.35078c0.14878,-0.45679 0.26885,-0.87442 0.36021,-1.2529M301.60427,185.74674h6.42112v1.8402h-6.42112v-1.8402M300.50798,181.16582h8.59412v7.20418h-2.07512v-5.32483h-4.54177v5.44229h-1.97723v-7.32164M303.18997,170.65319l1.89893,-0.52857c0.20882,0.41763 0.41502,0.87442 0.61862,1.37036c0.20099,0.49594 0.34716,0.9201 0.43852,1.27248l-2.01639,0.62645c-0.07831,-0.35238 -0.2049,-0.78698 -0.37979,-1.3038c-0.1775,-0.51421 -0.36412,-0.99318 -0.55989,-1.43692z"/></g></g></svg>