<svg version="1.1" xmlns="http://www.w3.org/2000/svg" xmlns:xlink="http://www.w3.org/1999/xlink" width="224" height="356" viewBox="0,0,224,356"><defs><linearGradient x1="128" y1="34" x2="128" y2="50" gradientUnits="userSpaceOnUse" id="color-1"><stop offset="0" stop-color="#000000" stop-opacity="0.1"/><stop offset="1" stop-color="#000000" stop-opacity="0"/></linearGradient></defs><g transform="translate(-128,-2)"><g fill-rule="evenodd" stroke-miterlimit="10"><g stroke="none" stroke-width="1" stroke-linecap="butt" stroke-linejoin="miter"><path d="M138,24h204c5.54,0 10,4.46 10,10v324h-224v-324c0,-5.54 4.46,-10 10,-10z" fill="#1d2a41"/><path d="M138,2h204c5.54,0 10,4.46 10,10v22h-224v-22c0,-5.54 4.46,-10 10,-10z" fill="#31476d"/></g><path d="M128,50v-16h224v16z" fill="url(#color-1)" stroke="none" stroke-width="12" stroke-linecap="round" stroke-linejoin="round" opacity="0.80769"/><path d="M222.55772,21.99958h-5.36512v3.45452h2.93345v-2.43167h1.40883v4.59316h-1.40883v-0.84916h-8.72315v-3.70541h1.40883v2.39308h2.99135v-3.45452h-5.44232v-1.29303h5.44232v-2.27729h-2.72116c-0.36025,0.6433 -0.77196,1.23514 -1.23514,1.77551l-1.10004,-0.77196c0.38598,-0.45031 0.76553,-0.98104 1.13864,-1.59217c0.37311,-0.61113 0.65617,-1.18046 0.84916,-1.70796l1.31233,0.23159c-0.12866,0.33452 -0.23159,0.5854 -0.30878,0.75266h8.06699v1.31233h-4.61246v2.27729h5.36512zM210.55374,17.54151l0.23159,1.48603c-0.29592,0.10293 -0.88775,0.33451 -1.77551,0.69476v5.73181c0,0.51464 -0.06111,0.90705 -0.18334,1.17724c-0.12223,0.27019 -0.33452,0.45996 -0.63687,0.56932c-0.30235,0.10936 -0.74301,0.16404 -1.32198,0.16404h-1.06144l-0.28949,-1.50533h1.02285c0.43744,0 0.7205,-0.06111 0.84915,-0.18334c0.12866,-0.12223 0.19299,-0.39563 0.19299,-0.8202v-4.55457c-0.77196,0.30878 -1.35093,0.54681 -1.73691,0.71407l-0.40528,-1.46673c0.48891,-0.16726 1.20297,-0.43745 2.14219,-0.81056v-3.72471h-1.77551v-1.42812h1.77551v-3.41593h1.42813v3.41593h1.67901v1.42812h-1.67901v3.14574zM221.92085,10.47807l0.21229,1.31233c-1.45386,0.19299 -3.23901,0.36668 -5.35547,0.52107c-2.11646,0.15439 -3.99168,0.25089 -5.62566,0.28948l-0.15439,-1.33163c1.72405,-0.02573 3.625,-0.11258 5.70286,-0.26054c2.07786,-0.14796 3.81799,-0.32486 5.22038,-0.53072zM219.93306,16.38357l-1.15794,-0.55967c0.77196,-1.09361 1.38309,-2.14219 1.83341,-3.14574l1.21584,0.54037c-0.25732,0.51464 -0.5661,1.07109 -0.92635,1.66936c-0.36025,0.59827 -0.6819,1.09683 -0.96495,1.49568zM217.79087,15.51511l-1.23514,0.48248c-0.11579,-0.28305 -0.30556,-0.71728 -0.56932,-1.30268c-0.26375,-0.5854 -0.49213,-1.07753 -0.68512,-1.47638l1.19654,-0.48248c0.47604,0.95209 0.90705,1.87844 1.29304,2.77906zM213.89247,15.36072l-1.17724,0.52107c-0.11579,-0.27019 -0.31522,-0.67225 -0.59827,-1.20619c-0.28305,-0.53394 -0.50178,-0.91027 -0.65617,-1.12899l1.15794,-0.55967c0.51464,0.90062 0.93922,1.69188 1.27374,2.37378z" fill="#ffffff" stroke="#ffffff" stroke-width="0.5" stroke-linecap="round" stroke-linejoin="miter"/><path d="M241.66374,20.86094v1.29303h-5.59671v2.25799c0,0.54037 0.09328,0.9167 0.27983,1.12899c0.18656,0.21229 0.53072,0.31843 1.0325,0.31843h1.29304c0.36025,0 0.63043,-0.03859 0.81056,-0.11579c0.18013,-0.0772 0.30556,-0.20585 0.37633,-0.38598c0.07076,-0.18013 0.11901,-0.44388 0.14474,-0.79126c0.05146,-0.57897 0.0772,-1.13221 0.0772,-1.65972l1.40883,0.32808c0,0.24446 -0.00643,0.54037 -0.0193,0.88776c-0.01286,0.34738 -0.03216,0.64973 -0.0579,0.90705c-0.0386,0.57897 -0.13831,1.01963 -0.29913,1.32198c-0.16083,0.30235 -0.41171,0.51464 -0.75266,0.63687c-0.34095,0.12223 -0.83307,0.18334 -1.47638,0.18334h-2.04569c-0.82342,0 -1.39596,-0.16726 -1.71761,-0.50178c-0.32165,-0.33452 -0.48248,-0.93922 -0.48248,-1.81411v-2.70186h-3.26153v0.0386c-0.0772,0.93922 -0.26697,1.70475 -0.56932,2.29658c-0.30235,0.59183 -0.83951,1.14186 -1.61147,1.65007c-0.77196,0.50821 -1.91704,1.04536 -3.43522,1.61146l-0.73336,-1.38953c1.33806,-0.42458 2.34483,-0.82664 3.0203,-1.20619c0.67547,-0.37955 1.13864,-0.79126 1.38953,-1.23514c0.25089,-0.44388 0.4085,-1.0325 0.47283,-1.76586h-4.95985v-1.29303h7.64241v-3.66681h-5.75111v-6.52306h12.91104v6.52306h-5.75111v3.66681zM238.34431,15.92039v-1.38953h-10.11268v1.38953zM228.23163,13.33432h10.11268v-1.38953h-10.11268zM236.74249,20.62935l-0.94565,-1.00355c1.02928,-0.77196 1.9492,-1.57609 2.75976,-2.41238l1.02285,0.98425c-0.84916,0.78483 -1.79481,1.59538 -2.83696,2.43167zM227.15088,18.25557l0.92635,-1.00355c0.82342,0.6819 1.73691,1.46029 2.74046,2.33518l-0.98425,1.06144c-0.7591,-0.7205 -1.65328,-1.51819 -2.68256,-2.39307z" fill="#ffffff" stroke="#ffffff" stroke-width="0.5" stroke-linecap="round" stroke-linejoin="miter"/><path d="M250.13601,19.16262l-0.75266,1.19654c-0.51464,-0.52751 -1.01642,-1.00355 -1.50533,-1.42813v8.64596h-1.38953v-9.01263c-0.59183,1.58252 -1.28017,2.99778 -2.06499,4.24578l-0.54037,-1.62111c0.51464,-0.78483 0.99712,-1.7144 1.44743,-2.78871c0.45031,-1.07431 0.83629,-2.17114 1.15794,-3.29048v-0.11579h-2.10359v-1.40883h2.10359v-3.68611h1.38953v3.68611h2.065v1.40883h-2.065v2.23868c0.30878,0.24446 0.84916,0.7012 1.62112,1.37023zM258.64687,18.52576l1.31233,0.40528c-0.93922,2.70186 -1.69831,4.82475 -2.27728,6.36867h3.22293v1.37023h-11.6566v-1.37023h7.02484c0.81056,-2.05856 1.60182,-4.31654 2.37378,-6.77395zM249.98162,17.32922l-0.82986,-1.25444c2.36735,-1.65971 4.12999,-3.67968 5.28793,-6.05989h1.33163c0.6047,1.23514 1.36701,2.37056 2.28693,3.40628c0.91992,1.03572 1.97172,1.95241 3.15539,2.75011l-0.71406,1.27374c-0.65617,-0.46318 -1.17081,-0.86202 -1.54392,-1.19654v1.33163h-7.68101v-1.31233c-0.5661,0.48891 -0.99711,0.84273 -1.29303,1.06145zM260.49958,17.44501c-0.65617,-0.46318 -1.17081,-0.86202 -1.54392,-1.19654c-1.60825,-1.37666 -2.88842,-2.93345 -3.84051,-4.67036c-0.88775,1.64685 -2.16149,3.20363 -3.8212,4.67036h7.66171M253.12735,23.85228l-1.25444,0.44388c-0.15439,-0.65617 -0.38598,-1.48602 -0.69476,-2.48957c-0.30878,-1.00355 -0.59184,-1.8913 -0.84916,-2.66326l1.19654,-0.36668c0.27019,0.7591 0.56288,1.63398 0.8781,2.62467c0.31522,0.99068 0.55645,1.80767 0.72371,2.45097zM256.31169,23.27331l-1.27374,0.36668c-0.15439,-0.70763 -0.35703,-1.53106 -0.60792,-2.47027c-0.25089,-0.93922 -0.47926,-1.70475 -0.68512,-2.29658l1.25444,-0.36668c0.34738,1.09361 0.78483,2.68256 1.31233,4.76685z" fill="#ffffff" stroke="#ffffff" stroke-width="0.5" stroke-linecap="round" stroke-linejoin="miter"/><path d="M271.28772,13.89399h-2.70186l-0.0193,3.8405h3.04925v1.44743h-3.10714c-0.06433,0.6819 -0.15439,1.26087 -0.27019,1.73691c0.88775,0.99068 2.01353,2.33518 3.37733,4.03349l-1.04215,1.04215c-0.99068,-1.23514 -1.9299,-2.37378 -2.81765,-3.41592c-0.61757,1.67258 -1.74334,3.36446 -3.37733,5.07564l-1.06145,-1.11934c1.19654,-1.2094 2.09394,-2.38986 2.69221,-3.54137c0.59827,-1.15151 0.96174,-2.42202 1.09039,-3.81155h-3.64751v-1.44743h3.70541l0.0193,-3.8405h-1.29303c-0.45031,1.14507 -0.87489,2.0843 -1.27374,2.81766l-1.17724,-0.71407c0.46318,-0.90062 0.90705,-1.89452 1.33163,-2.9817c0.42458,-1.08718 0.76553,-2.10681 1.02285,-3.05889l1.33163,0.28948c-0.23159,0.81056 -0.46318,1.53749 -0.69477,2.18079h4.86335zM273.98958,27.09451l-1.40883,-0.0193v-15.34271h6.75466v15.36201h-1.46673v-1.79481h-3.8791zM277.86868,13.19923h-3.8791v10.65305h3.8791z" fill="#ffffff" stroke="#ffffff" stroke-width="0.5" stroke-linecap="round" stroke-linejoin="miter"/></g></g></svg>