<svg version="1.1" xmlns="http://www.w3.org/2000/svg" xmlns:xlink="http://www.w3.org/1999/xlink" width="119.35061" height="18.39242" viewBox="0,0,119.35061,18.39242"><g transform="translate(-239.92065,-170.22462)"><g fill="#ffffff" stroke="none" stroke-miterlimit="10"><path d="M239.92065,171.74595h13.65599v1.71637h-13.65599v-1.71637M245.35594,176.27091h7.8744v1.69686h-7.8744v-1.69686M245.7474,180.09373h7.75395v1.75537h-7.75395v-1.75537M243.26313,170.36115h1.64113v4.29091h-1.64113v-4.29091M248.57797,170.36115h1.65618v4.13488h-1.65618v-4.13488M245.32583,180.09373h1.49057v2.3405c0,0.63714 -0.04216,1.32628 -0.12647,2.06744c-0.08632,0.74116 -0.24491,1.46541 -0.47578,2.17276c-0.23086,0.70995 -0.57715,1.34449 -1.03888,1.90361c-0.0803,-0.11702 -0.20075,-0.25095 -0.36135,-0.40179c-0.1606,-0.14823 -0.3212,-0.29386 -0.4818,-0.43689c-0.1606,-0.14303 -0.30112,-0.24705 -0.42157,-0.31207c0.41154,-0.4941 0.71768,-1.03372 0.91843,-1.61884c0.20075,-0.58512 0.33425,-1.17415 0.4005,-1.76708c0.06424,-0.59033 0.09636,-1.13904 0.09636,-1.64615v-2.30149M240.37233,175.23719h3.5081v1.71637h-2.07776v11.64398h-1.43034v-13.36035M243.39863,175.23719h0.25596l0.22584,-0.07802l1.02382,0.66314c-0.17064,0.61113 -0.36336,1.26127 -0.57816,1.95042c-0.21681,0.68915 -0.42559,1.32628 -0.62634,1.91141c0.43161,0.61113 0.7227,1.18975 0.87326,1.73587c0.15056,0.54612 0.22584,1.05322 0.22584,1.52132c0,0.52011 -0.05019,0.9583 -0.15056,1.31458c-0.10038,0.35888 -0.26097,0.63584 -0.4818,0.83088c-0.21079,0.19504 -0.46674,0.31857 -0.76787,0.37058c-0.14052,0.026 -0.29912,0.04551 -0.47578,0.05851c-0.17465,0.013 -0.35232,0.013 -0.53299,0c-0.01004,-0.26005 -0.04718,-0.55002 -0.11142,-0.86989c-0.06625,-0.31727 -0.15458,-0.58643 -0.26499,-0.80747c0.15056,0.013 0.28406,0.0221 0.4005,0.02731c0.11443,0.0078 0.22183,0.0117 0.3222,0.0117c0.1606,-0.013 0.29109,-0.05851 0.39146,-0.13653c0.10038,-0.07802 0.16863,-0.20154 0.20476,-0.37058c0.03413,-0.16904 0.05119,-0.36408 0.05119,-0.58512c0,-0.39008 -0.07026,-0.82958 -0.21079,-1.31848c-0.14052,-0.4863 -0.42157,-1.00901 -0.84315,-1.56813c0.14052,-0.4681 0.27904,-0.9622 0.41555,-1.48232c0.1345,-0.52011 0.25997,-1.02072 0.37641,-1.50182c0.11443,-0.4811 0.20677,-0.89719 0.27703,-1.24827v-0.42909M248.11123,174.90562l1.41528,-0.62413c0.17064,0.24705 0.33625,0.52921 0.49686,0.84648c0.1606,0.31987 0.28105,0.60333 0.36135,0.85038l-1.47551,0.76066c-0.06022,-0.26005 -0.16863,-0.56302 -0.32521,-0.90889c-0.15458,-0.34327 -0.31217,-0.65144 -0.47277,-0.9245M246.42493,178.45538l1.34,-0.68265c0.18067,0.28606 0.35332,0.61113 0.51793,0.97521c0.16662,0.36408 0.29008,0.68265 0.37038,0.9557l-1.43034,0.74116c-0.06022,-0.27306 -0.16763,-0.59813 -0.3222,-0.97521c-0.15658,-0.37708 -0.31518,-0.71515 -0.47578,-1.01422M250.79124,177.79224l1.4454,0.64364c-0.19071,0.44209 -0.38644,0.87119 -0.58719,1.28727c-0.20075,0.41609 -0.38142,0.77367 -0.54202,1.07273l-1.21955,-0.58512c0.11041,-0.23405 0.22082,-0.4915 0.33124,-0.77236c0.11041,-0.27826 0.21882,-0.56432 0.32521,-0.85818c0.10439,-0.29126 0.1867,-0.55392 0.24692,-0.78797zM261.67688,176.7h4.99866v1.91141h-4.99866v-1.91141M261.48115,185.78894h5.10406v1.85289h-5.10406v-1.85289M260.84879,180.34728h6.51934v8.23075h-1.64113v-6.37786h-3.29731v6.41687h-1.5809v-8.26976M264.73329,171.0243c0.29109,0.79317 0.65545,1.57334 1.09308,2.3405c0.43563,0.76716 0.92244,1.46931 1.46045,2.10645c0.536,0.63714 1.09007,1.16375 1.66221,1.57984c-0.12045,0.13003 -0.25294,0.29516 -0.39748,0.49541c-0.14655,0.20284 -0.28707,0.41089 -0.42157,0.62413c-0.13651,0.21585 -0.24993,0.41479 -0.34027,0.59683c-0.58217,-0.50711 -1.14227,-1.14164 -1.68027,-1.90361c-0.536,-0.75936 -1.02683,-1.59414 -1.4725,-2.50433c-0.44767,-0.91019 -0.82709,-1.83989 -1.13825,-2.78909l1.23461,-0.54612M263.60407,170.34165l1.52068,0.56562c-0.46172,1.63835 -1.08104,3.14927 -1.85794,4.53277c-0.77891,1.3861 -1.69533,2.56025 -2.74926,3.52245c-0.0803,-0.15603 -0.1877,-0.32897 -0.3222,-0.51881c-0.13651,-0.18724 -0.27804,-0.37578 -0.42459,-0.56562c-0.14454,-0.18724 -0.27703,-0.33937 -0.39748,-0.4564c0.65244,-0.54612 1.25268,-1.19625 1.80072,-1.95042c0.54604,-0.75416 1.02784,-1.57073 1.4454,-2.44972c0.41555,-0.87639 0.74378,-1.76968 0.98468,-2.67987M256.10608,172.09702h3.41776v11.35142h-3.41776v-1.93091h1.91214v-7.4896h-1.91214v-1.93091M255.26293,172.09702h1.47551v13.1263h-1.47551zM276.67287,174.45703h6.89575v1.96992h-6.89575v-1.96992M279.21737,170.34165h1.62607v18.19738h-1.62607v-18.19738M279.18726,175.39323l1.18944,0.50711c-0.20075,0.9232 -0.43362,1.85289 -0.69861,2.78909c-0.267,0.9362 -0.56812,1.84639 -0.90337,2.73058c-0.33726,0.88419 -0.69961,1.69946 -1.08706,2.44582c-0.38544,0.74896 -0.78895,1.3965 -1.21052,1.94261c-0.10038,-0.29906 -0.2409,-0.62803 -0.42157,-0.98691c-0.18067,-0.35628 -0.34629,-0.66444 -0.49686,-0.9245c0.39146,-0.4941 0.77088,-1.06623 1.13825,-1.71637c0.36536,-0.65014 0.70865,-1.34969 1.02985,-2.09865c0.3212,-0.74636 0.60727,-1.52002 0.8582,-2.32099c0.25094,-0.79837 0.45169,-1.58764 0.60225,-2.3678M280.96389,175.39323c0.21079,1.02722 0.47477,2.06354 0.79196,3.10896c0.31518,1.04802 0.6685,2.02323 1.05996,2.92562c0.39146,0.90499 0.79798,1.66956 1.21955,2.29369c-0.19071,0.18204 -0.40351,0.42909 -0.63838,0.74116c-0.23688,0.31207 -0.43061,0.60463 -0.58117,0.87769c-0.41154,-0.72815 -0.803,-1.61234 -1.17438,-2.65256c-0.37139,-1.04022 -0.70764,-2.15846 -1.00877,-3.35471c-0.30112,-1.19625 -0.55708,-2.37951 -0.76787,-3.54976l1.0991,-0.39008M270.06319,174.45703h6.08271v1.96992h-6.08271v-1.96992M272.54746,170.34165h1.56585v18.19738h-1.56585v-18.19738M272.44207,175.7248l1.05394,0.4876c-0.14052,0.80617 -0.31618,1.62795 -0.52697,2.46533c-0.21079,0.83998 -0.44667,1.66305 -0.70764,2.46923c-0.26097,0.80617 -0.54202,1.55643 -0.84315,2.25078c-0.30112,0.69695 -0.6173,1.29248 -0.94854,1.78658c-0.0803,-0.31207 -0.20376,-0.66054 -0.37038,-1.04542c-0.16461,-0.38228 -0.31217,-0.70995 -0.44265,-0.98301c0.30112,-0.44209 0.59221,-0.9492 0.87326,-1.52132c0.28105,-0.57212 0.54403,-1.18975 0.78895,-1.85289c0.24692,-0.66314 0.46574,-1.34319 0.65645,-2.04013c0.19071,-0.69435 0.34629,-1.36659 0.46674,-2.01673M274.09826,176.75852c0.09034,0.10402 0.21781,0.26916 0.38243,0.49541c0.16662,0.22885 0.3473,0.4863 0.54202,0.77236c0.19674,0.28606 0.39247,0.57472 0.58719,0.86598c0.19674,0.29386 0.37239,0.55392 0.52697,0.78017c0.15658,0.22885 0.26499,0.40179 0.32521,0.51881l-1.02382,1.81389c-0.11041,-0.28606 -0.26097,-0.61763 -0.45169,-0.99471c-0.19071,-0.37708 -0.39447,-0.76716 -0.61128,-1.17025c-0.2148,-0.40309 -0.42258,-0.78407 -0.62333,-1.14294c-0.20075,-0.35628 -0.37139,-0.65144 -0.51191,-0.88549zM296.86325,178.80645h1.59596c0,0 -0.00201,0.05201 -0.00602,0.15603c-0.00602,0.10402 -0.00903,0.22105 -0.00903,0.35107c0,0.13003 -0.00502,0.24705 -0.01506,0.35107c-0.07026,1.74237 -0.14554,3.15577 -0.22584,4.2402c-0.0803,1.08703 -0.17566,1.92311 -0.28607,2.50823c-0.11041,0.58512 -0.24592,1.00121 -0.40652,1.24827c-0.17064,0.26005 -0.35332,0.44209 -0.54805,0.54612c-0.19674,0.10402 -0.42559,0.17554 -0.68656,0.21455c-0.22082,0.03901 -0.5089,0.05851 -0.86423,0.05851c-0.35733,0 -0.73173,-0.0065 -1.12319,-0.0195c-0.02007,-0.28606 -0.07227,-0.61113 -0.15658,-0.97521c-0.08632,-0.36408 -0.18971,-0.66964 -0.31016,-0.9167c0.37139,0.03901 0.71768,0.06111 1.03888,0.06631c0.3212,0.0078 0.55708,0.0117 0.70764,0.0117c0.13049,0 0.23889,-0.013 0.32521,-0.03901c0.08431,-0.026 0.16662,-0.09102 0.24692,-0.19504c0.11041,-0.15603 0.21079,-0.4941 0.30112,-1.01422c0.09034,-0.52011 0.16763,-1.28727 0.23187,-2.30149c0.06625,-1.01422 0.12948,-2.334 0.18971,-3.95934v-0.33157M289.42548,181.26398h1.49057v4.62248h-1.49057v-4.62248M293.18953,182.02464h1.47551v5.44166h-1.47551v-5.44166M285.79693,182.06365h1.47551v3.12066h6.5344v1.73587h-8.00991v-4.85653M295.17696,172.01901h1.50562c0,0 0,0.09102 0,0.27306c0,0.18204 -0.00502,0.33157 -0.01506,0.4486c-0.05019,0.97521 -0.10238,1.78788 -0.15658,2.43802c-0.05621,0.65014 -0.12145,1.16375 -0.19573,1.54083c-0.07629,0.37708 -0.17967,0.65014 -0.31016,0.81917c-0.12045,0.19504 -0.25294,0.33417 -0.39748,0.41739c-0.14655,0.08582 -0.31518,0.14173 -0.50589,0.16774c-0.1606,0.03901 -0.36838,0.06111 -0.62333,0.06631c-0.25696,0.0078 -0.53098,0.0052 -0.82207,-0.0078c-0.02007,-0.28606 -0.06524,-0.60203 -0.13551,-0.9479c-0.07026,-0.34327 -0.1606,-0.63844 -0.27101,-0.88549c0.23086,0.026 0.44165,0.04551 0.63236,0.05851c0.19071,0.013 0.33625,0.0195 0.43663,0.0195c0.09034,0 0.17064,-0.013 0.2409,-0.03901c0.07026,-0.026 0.13049,-0.07802 0.18067,-0.15603c0.10038,-0.14303 0.18569,-0.50711 0.25596,-1.09223c0.07026,-0.58512 0.13049,-1.54083 0.18067,-2.86711v-0.25355M290.75043,170.30264l1.9272,0.21455c-0.1606,0.4811 -0.34127,0.9453 -0.54202,1.3926c-0.20075,0.4499 -0.38142,0.83738 -0.54202,1.16245l-1.43034,-0.33157c0.11041,-0.36408 0.22283,-0.77367 0.33726,-1.22876c0.11643,-0.4551 0.19975,-0.85818 0.24993,-1.20926M289.09424,175.7248l0.79798,-1.32628c0.35131,0.15603 0.72772,0.34457 1.12922,0.56562c0.4015,0.22105 0.78593,0.4486 1.15331,0.68265c0.36536,0.23405 0.6685,0.4551 0.9094,0.66314l-0.84315,1.46281c-0.22082,-0.20804 -0.51191,-0.43559 -0.87326,-0.68265c-0.36135,-0.24705 -0.74077,-0.4915 -1.13825,-0.73336c-0.39548,-0.23925 -0.77389,-0.4499 -1.13524,-0.63193M295.6437,172.01901v1.8724h-7.16676v4.91505h8.86811v1.83339h-10.44901v-8.62084zM301.89203,185.41836h10.23823v1.93091h-10.23823v-1.93091M300.98865,175.82232h12.1052v12.63869h-1.64113v-10.70778h-8.89822v10.74679h-1.56585v-12.6777M300.20573,171.49239h13.4452v2.02843h-13.4452v-2.02843M304.57203,172.74066h1.4454v4.38843c0,0.74116 -0.07026,1.49532 -0.21079,2.26248c-0.14052,0.76716 -0.41455,1.49142 -0.82207,2.17276c-0.40551,0.68395 -1.00977,1.27297 -1.81277,1.76708c-0.06022,-0.14303 -0.15056,-0.30947 -0.27101,-0.49931c-0.12045,-0.18724 -0.24391,-0.37578 -0.37038,-0.56562c-0.12447,-0.18724 -0.23688,-0.32637 -0.33726,-0.41739c0.71266,-0.41609 1.23762,-0.88419 1.57488,-1.4043c0.33525,-0.52011 0.55306,-1.06623 0.65344,-1.63835c0.10038,-0.57212 0.15056,-1.15075 0.15056,-1.73587v-4.32992M307.76395,172.72116h1.55079v7.37257c0,0.31207 0.02509,0.50711 0.07528,0.58512c0.05019,0.07802 0.19071,0.11702 0.42157,0.11702c0.04015,0 0.12346,0 0.24993,0c0.12447,0 0.26198,0 0.41254,0c0.15056,0 0.28908,0 0.41555,0c0.12447,0 0.21681,0 0.27703,0c0.14052,0 0.23387,-0.013 0.28005,-0.03901c0.04416,-0.026 0.0813,-0.06501 0.11142,-0.11702c0.15056,0.15603 0.35834,0.30557 0.62333,0.4486c0.267,0.14303 0.51593,0.24055 0.74679,0.29256c-0.11041,0.52011 -0.28607,0.87769 -0.52697,1.07273c-0.2409,0.19504 -0.59723,0.29256 -1.06899,0.29256c-0.0803,0 -0.20075,0 -0.36135,0c-0.1606,0 -0.33625,0 -0.52697,0c-0.19071,0 -0.36436,0 -0.52095,0c-0.15458,0 -0.27202,0 -0.35232,0c-0.4818,0 -0.85319,-0.07802 -1.11416,-0.23405c-0.26097,-0.15603 -0.44165,-0.42649 -0.54202,-0.81137c-0.10038,-0.38228 -0.15056,-0.91149 -0.15056,-1.58764zM323.72354,171.31686h3.92967v1.8919h-2.49933v15.29126h-1.43034v-17.18316M327.32197,171.31686h0.30112l0.2409,-0.07802l1.11416,0.89719c-0.25094,0.9362 -0.53199,1.92701 -0.84315,2.97243c-0.31116,1.04802 -0.61229,2.00113 -0.90337,2.85931c0.62232,0.89719 1.02683,1.73197 1.21353,2.50433c0.18469,0.77496 0.27703,1.48752 0.27703,2.13766c0,0.66314 -0.05822,1.22876 -0.17465,1.69686c-0.11443,0.4681 -0.30715,0.82568 -0.57816,1.07273c-0.13049,0.11702 -0.28105,0.21064 -0.45169,0.28086c-0.17064,0.07281 -0.35131,0.12873 -0.54202,0.16774c-0.17064,0.026 -0.36135,0.04161 -0.57214,0.04681c-0.21079,0.0078 -0.42157,0.0052 -0.63236,-0.0078c-0.01004,-0.27306 -0.04517,-0.59813 -0.10539,-0.97521c-0.06022,-0.37708 -0.15558,-0.70215 -0.28607,-0.97521c0.19071,0.026 0.36336,0.04161 0.51793,0.04681c0.15658,0.0078 0.30012,0.0052 0.43061,-0.0078c0.10038,0 0.20075,-0.0169 0.30112,-0.05071c0.10038,-0.03121 0.18569,-0.07932 0.25596,-0.14433c0.13049,-0.10402 0.22384,-0.27696 0.28005,-0.51881c0.0542,-0.23925 0.0813,-0.52791 0.0813,-0.86598c0,-0.55912 -0.10539,-1.18975 -0.31618,-1.8919c-0.21079,-0.70215 -0.6173,-1.45631 -1.21955,-2.26248c0.15056,-0.4941 0.30414,-1.02462 0.46072,-1.59154c0.15458,-0.56432 0.30514,-1.13644 0.45169,-1.71637c0.14454,-0.57732 0.27703,-1.11954 0.39748,-1.62665c0.12045,-0.50711 0.22082,-0.9362 0.30112,-1.28727v-0.68265M315.54801,172.56512h7.24204v1.8724h-7.24204v-1.8724M315.15655,177.81174h7.96474v1.8919h-7.96474v-1.8919M316.36105,174.86661l1.38517,-0.4486c0.21079,0.4681 0.39849,0.98431 0.5631,1.54863c0.16662,0.56692 0.28506,1.05843 0.35533,1.47451l-1.4454,0.52661c-0.06022,-0.42909 -0.17064,-0.9336 -0.33124,-1.51352c-0.1606,-0.57732 -0.33625,-1.10654 -0.52697,-1.58764M320.62196,174.35951l1.59596,0.4486c-0.14052,0.44209 -0.28607,0.89069 -0.43663,1.34579c-0.15056,0.4551 -0.29611,0.89069 -0.43663,1.30678c-0.14052,0.41609 -0.28105,0.78667 -0.42157,1.11174l-1.35506,-0.42909c0.13049,-0.35107 0.26298,-0.74766 0.39748,-1.18975c0.13651,-0.44209 0.26198,-0.89069 0.37641,-1.34579c0.11643,-0.4551 0.20978,-0.87119 0.28005,-1.24827M316.73745,185.78894h4.93844v1.83339h-4.93844v-1.83339M315.89431,181.22497h6.60968v7.17753h-1.59596v-5.30513h-3.49304v5.42215h-1.52068v-7.29455M317.95701,170.75124l1.46045,-0.52661c0.1606,0.41609 0.31819,0.87119 0.47277,1.36529c0.15658,0.4941 0.27001,0.9167 0.34027,1.26777l-1.55079,0.62413c-0.06022,-0.35107 -0.15859,-0.78407 -0.2951,-1.29898c-0.1345,-0.51231 -0.27703,-0.98951 -0.4276,-1.4316zM335.75345,175.7248h1.50562c-0.07026,0.81917 -0.14554,1.67996 -0.22584,2.58235c-0.0803,0.90499 -0.16763,1.80218 -0.26198,2.69157c-0.09636,0.89199 -0.1867,1.73717 -0.27101,2.53554c-0.08632,0.80097 -0.16963,1.50702 -0.24993,2.11815h-1.56585c0.10038,-0.63714 0.20075,-1.36269 0.30112,-2.17666c0.10038,-0.81137 0.19874,-1.66305 0.2951,-2.55504c0.09435,-0.88939 0.18168,-1.78008 0.26198,-2.67207c0.0803,-0.88939 0.15056,-1.73067 0.21079,-2.52384M338.01189,177.98728l0.84315,-0.70215c0.27101,0.27306 0.55206,0.59163 0.84315,0.9557c0.29109,0.36408 0.51693,0.68265 0.67753,0.9557l-0.88832,0.79967c-0.14052,-0.28606 -0.35332,-0.62153 -0.63838,-1.00641c-0.28707,-0.38228 -0.56611,-0.71645 -0.83713,-1.00251M337.60537,182.02464l0.88832,-0.72165c0.30112,0.29906 0.6153,0.64364 0.94252,1.03372c0.32521,0.39008 0.57816,0.74116 0.75883,1.05322l-0.91843,0.81917c-0.17064,-0.29906 -0.41656,-0.65664 -0.73775,-1.07273c-0.3212,-0.41609 -0.63236,-0.78667 -0.93349,-1.11174M335.96424,172.38959h7.78406v1.8919h-7.78406v-1.8919M336.38581,175.7248h5.73642v1.79438h-5.73642v-1.79438M333.85637,179.62563h10.28339v1.8919h-10.28339v-1.8919M335.4975,183.85803h8.25081v1.79438h-8.25081v-1.79438M336.05458,170.34165l1.56585,0.52661c-0.20075,0.80617 -0.44366,1.60844 -0.72872,2.40681c-0.28707,0.80097 -0.59121,1.55253 -0.91241,2.25468c-0.3212,0.70215 -0.64742,1.31978 -0.97865,1.85289c-0.10038,-0.11702 -0.23789,-0.24705 -0.41254,-0.39008c-0.17666,-0.14303 -0.35031,-0.28606 -0.52095,-0.42909c-0.17064,-0.14303 -0.3212,-0.26005 -0.45169,-0.35107c0.34127,-0.4681 0.66548,-1.01812 0.97263,-1.65005c0.30514,-0.62933 0.58318,-1.30548 0.83411,-2.02843c0.25094,-0.72035 0.46172,-1.45111 0.63236,-2.19227M341.65549,175.7248h1.50562c0,0 -0.00201,0.05851 -0.00602,0.17554c-0.00602,0.11702 -0.00903,0.24315 -0.00903,0.37838c0,0.13783 -0.00502,0.25225 -0.01506,0.34327c-0.06022,1.8594 -0.12045,3.43533 -0.18067,4.72781c-0.06022,1.29508 -0.12748,2.3587 -0.20175,3.19088c-0.07629,0.83218 -0.1616,1.48232 -0.25596,1.95042c-0.09636,0.4681 -0.20978,0.80617 -0.34027,1.01422c-0.17064,0.29906 -0.3483,0.50321 -0.53299,0.61243c-0.1867,0.11182 -0.4005,0.19374 -0.64139,0.24575c-0.22082,0.03901 -0.50187,0.05851 -0.84315,0.05851c-0.34127,0 -0.6976,-0.013 -1.06899,-0.03901c-0.01004,-0.26005 -0.05019,-0.55262 -0.12045,-0.87769c-0.07026,-0.32507 -0.16562,-0.61113 -0.28607,-0.85818c0.35131,0.03901 0.67251,0.06501 0.9636,0.07802c0.29109,0.013 0.50689,0.0195 0.64742,0.0195c0.13049,0 0.23588,-0.0234 0.31618,-0.07021c0.0803,-0.04421 0.1606,-0.12483 0.2409,-0.24185c0.10038,-0.14303 0.19071,-0.43299 0.27101,-0.86989c0.0803,-0.43429 0.15558,-1.05192 0.22584,-1.85289c0.07026,-0.79837 0.1335,-1.81909 0.18971,-3.06215c0.0542,-1.24046 0.10138,-2.74488 0.14153,-4.51326v-0.40959M330.93546,172.07752l0.90337,-1.4238c0.29109,0.16904 0.60526,0.37058 0.94252,0.60463c0.33525,0.23405 0.65645,0.4746 0.9636,0.72165c0.30514,0.24705 0.55306,0.4746 0.74378,0.68265l-0.94854,1.57984c-0.18067,-0.20804 -0.41856,-0.446 -0.71366,-0.71385c-0.29711,-0.26526 -0.61329,-0.52531 -0.94854,-0.78017c-0.33726,-0.25225 -0.65143,-0.4759 -0.94252,-0.67094M330.09232,177.65571l0.87326,-1.4043c0.29109,0.16904 0.59522,0.36668 0.91241,0.59293c0.31518,0.22885 0.6163,0.4603 0.90337,0.69435c0.28506,0.23405 0.51793,0.4551 0.69861,0.66314l-0.93349,1.59934c-0.1606,-0.22105 -0.38142,-0.4616 -0.66247,-0.72165c-0.28105,-0.26005 -0.57916,-0.51361 -0.89434,-0.76066c-0.31718,-0.24705 -0.6163,-0.4681 -0.89735,-0.66314M330.51389,187.11522c0.20075,-0.50711 0.42459,-1.10524 0.67151,-1.79438c0.24491,-0.68915 0.49083,-1.4238 0.73775,-2.20397c0.24491,-0.78017 0.47277,-1.54733 0.68355,-2.30149l1.23461,1.13124c-0.18067,0.68915 -0.37841,1.3978 -0.59321,2.12595c-0.21681,0.72815 -0.43763,1.44981 -0.66247,2.16496c-0.22685,0.71515 -0.45068,1.38479 -0.67151,2.00893zM345.14853,175.06166h4.14046v1.96992h-4.14046v-1.96992M346.57887,170.61471h1.50562v13.08729h-1.50562v-13.08729M345.02808,184.05307c0.53199,-0.28606 1.17438,-0.66964 1.9272,-1.15075c0.75281,-0.4811 1.51064,-0.97521 2.27349,-1.48232l0.45169,1.85289c-0.67251,0.4941 -1.36209,0.99471 -2.06872,1.50182c-0.70865,0.50711 -1.36911,0.96871 -1.9814,1.38479l-0.60225,-2.10645M349.52989,173.11124h9.4553v1.8919h-9.4553v-1.8919M349.06315,184.48216c0.44165,-0.10402 0.94653,-0.24055 1.51466,-0.40959c0.56611,-0.16904 1.17037,-0.34847 1.81277,-0.53831c0.6424,-0.18724 1.2848,-0.38488 1.9272,-0.59293l0.15056,1.75537c-0.87326,0.31207 -1.74853,0.62023 -2.6258,0.9245c-0.87928,0.30686 -1.68027,0.58382 -2.40297,0.83088l-0.37641,-1.96992M354.39305,170.38066h1.55079c-0.01004,1.36529 0,2.71368 0.03011,4.04516c0.03011,1.33408 0.08331,2.60575 0.1596,3.81501c0.07428,1.20926 0.16662,2.32099 0.27703,3.33521c0.11041,1.01422 0.23588,1.8984 0.37641,2.65256c0.14052,0.75416 0.2941,1.33539 0.46072,1.74367c0.16461,0.41089 0.33726,0.61633 0.51793,0.61633c0.12045,0 0.2138,-0.19504 0.28005,-0.58512c0.06424,-0.39008 0.1064,-1.04022 0.12647,-1.95042c0.15056,0.23405 0.32923,0.4512 0.536,0.65144c0.20476,0.20284 0.39247,0.36278 0.5631,0.4798c-0.07026,0.85818 -0.17064,1.53433 -0.30112,2.02843c-0.13049,0.4941 -0.30815,0.84128 -0.53299,1.04152c-0.22685,0.20284 -0.52095,0.30426 -0.88229,0.30426c-0.42157,0 -0.79296,-0.23795 -1.11416,-0.71385c-0.3212,-0.4733 -0.59723,-1.13904 -0.82809,-1.99723c-0.23086,-0.85818 -0.42358,-1.8633 -0.57816,-3.01534c-0.15658,-1.14944 -0.27703,-2.40421 -0.36135,-3.7643c-0.08632,-1.35749 -0.15157,-2.77479 -0.19573,-4.25191c-0.04617,-1.47451 -0.07428,-2.95293 -0.08431,-4.43524M356.30519,171.39487l0.91843,-1.01422c0.30112,0.27306 0.62032,0.59163 0.95758,0.9557c0.33525,0.36408 0.5882,0.68915 0.75883,0.97521l-0.94854,1.15075c-0.18067,-0.29906 -0.4286,-0.64364 -0.74378,-1.03372c-0.31718,-0.39008 -0.63136,-0.73466 -0.94252,-1.03372M357.31395,176.44645l1.4454,0.35107c-0.4818,2.58755 -1.17137,4.86564 -2.06872,6.83426c-0.89936,1.97122 -2.01653,3.57446 -3.35151,4.80972c-0.0803,-0.11702 -0.19071,-0.26396 -0.33124,-0.44079c-0.14052,-0.17424 -0.28607,-0.34327 -0.43663,-0.50711c-0.15056,-0.16123 -0.28105,-0.29386 -0.39146,-0.39788c1.33498,-1.07923 2.42204,-2.52904 3.26118,-4.34943c0.83713,-1.82039 1.46146,-3.92033 1.87299,-6.29984M351.17102,178.0848v2.63306h1.38517v-2.63306h-1.38517M349.96652,176.46595h3.85439v5.89025h-3.85439z"/></g></g></svg>