<svg version="1.1" xmlns="http://www.w3.org/2000/svg" xmlns:xlink="http://www.w3.org/1999/xlink" width="192" height="36" viewBox="0,0,192,36"><g transform="translate(-144,-162)"><g stroke="none" stroke-miterlimit="10"><path d="M144,198v-36h192v36z" fill="none" fill-rule="nonzero" stroke-linecap="butt" stroke-linejoin="miter"/><path d="M317,164c9.31184,0 17,7.09393 17,16c0,8.90606 -7.68816,16 -17,16h-154c-9.31184,0 -17,-7.09394 -17,-16c0,-8.90607 7.68816,-16 17,-16z" fill="#7d97b4" fill-rule="evenodd" stroke-linecap="round" stroke-linejoin="round"/><path d="M163,166h154c8.31,0 15,6.244 15,14c0,7.75599 -6.69,13.99999 -15,13.99999h-154c-8.31,0 -15,-6.244 -15,-13.99999c0,-7.756 6.69,-14 15,-14z" fill="#31476d" fill-rule="evenodd" stroke-linecap="round" stroke-linejoin="round"/><path d="M188.87872,177.25353h2.58926v1.66404h-2.58926v-1.66404M188.34208,172.40681h1.47575v12.90842l-1.47575,0.19386v-13.10229M185.80649,175.75104h1.39525v9.98423l-1.39525,0.24233v-10.22656M184.78687,185.54141c0.56347,-0.1077 1.21011,-0.23156 1.93994,-0.37158c0.72803,-0.14002 1.49453,-0.29404 2.29949,-0.46205c0.80496,-0.16587 1.5965,-0.33496 2.37461,-0.50729l0.10733,1.71251c-0.75129,0.17233 -1.516,0.34465 -2.29412,0.51698c-0.77813,0.17233 -1.52494,0.33604 -2.24046,0.49113c-0.71552,0.15725 -1.36395,0.30589 -1.9453,0.44589l-0.24149,-1.8256M195.89524,175.9126l1.15377,1.42171c-0.39353,0.33388 -0.81837,0.66239 -1.27451,0.9855c-0.45614,0.32311 -0.92122,0.62684 -1.39525,0.91118c-0.47403,0.2865 -0.93464,0.55899 -1.38184,0.81748c-0.04472,-0.20464 -0.12254,-0.43944 -0.23343,-0.70438c-0.1127,-0.2628 -0.21823,-0.48036 -0.31662,-0.65269c0.42037,-0.25849 0.84073,-0.54391 1.2611,-0.85625c0.42037,-0.31234 0.82105,-0.63546 1.20207,-0.96934c0.37923,-0.33388 0.70746,-0.65162 0.98472,-0.95318M192.00463,172.40681h1.50259v11.98755c0,0.44158 0.0313,0.72162 0.09391,0.84009c0.06261,0.11847 0.21018,0.17772 0.44273,0.17772c0.05367,0 0.14311,0 0.26832,0c0.12521,0 0.26385,0 0.4159,0c0.15205,0 0.29336,0 0.42394,0c0.12879,0 0.22449,0 0.2871,0c0.16099,0 0.27905,-0.07539 0.35418,-0.22618c0.07691,-0.15079 0.13327,-0.42544 0.16904,-0.82395c0.03577,-0.39851 0.06261,-0.95857 0.0805,-1.6802c0.17888,0.16156 0.40069,0.31234 0.66543,0.45236c0.26295,0.14002 0.49728,0.24233 0.70299,0.30696c-0.05367,0.88318 -0.14042,1.59403 -0.26026,2.13255c-0.12164,0.53853 -0.30589,0.92842 -0.55274,1.16968c-0.24506,0.24341 -0.58672,0.36512 -1.02498,0.36512c-0.07155,0 -0.18961,0 -0.35418,0c-0.16635,0 -0.34345,0 -0.53127,0c-0.18782,0 -0.36223,0 -0.52322,0c-0.16099,0 -0.27726,0 -0.34881,0c-0.47403,0 -0.84073,-0.08078 -1.1001,-0.24233c-0.25938,-0.16156 -0.44273,-0.44158 -0.55005,-0.84009c-0.10733,-0.39851 -0.16099,-0.95318 -0.16099,-1.66404zM199.53094,176.73655h4.11868v1.51864h-4.11868v-1.51864M204.85706,176.93041h4.53457v1.58326h-4.53457v-1.58326M201.35551,172.39066h1.30134v5.23445h-1.30134v-5.23445M199.59803,180.22618h3.34056v7.2216h-1.31475v-5.68681h-2.0258v-1.53479M198.96748,172.81071h1.32818v6.30073c0,0.70008 -0.01341,1.42924 -0.04024,2.18749c-0.02683,0.7604 -0.08318,1.51433 -0.16904,2.2618c-0.08407,0.74962 -0.20661,1.46586 -0.3676,2.14871c-0.16099,0.68501 -0.38011,1.30215 -0.65738,1.85144c-0.07155,-0.1077 -0.16725,-0.22941 -0.2871,-0.36512c-0.12164,-0.13355 -0.24685,-0.26495 -0.37564,-0.3942c-0.13058,-0.12925 -0.24953,-0.23156 -0.35686,-0.30696c0.21465,-0.49544 0.3819,-1.04797 0.50175,-1.65758c0.12164,-0.60745 0.21108,-1.23968 0.26832,-1.89668c0.05903,-0.657 0.10017,-1.31185 0.12342,-1.96454c0.02147,-0.65054 0.0322,-1.27199 0.0322,-1.86437v-6.30073M209.01599,176.93041h0.2549l0.22807,-0.04847l0.85861,0.25849c-0.16994,1.79867 -0.46777,3.37116 -0.8935,4.71747c-0.42394,1.34631 -0.96236,2.48475 -1.61527,3.41532c-0.65291,0.93273 -1.41762,1.68989 -2.29412,2.27149c-0.05367,-0.14002 -0.12968,-0.29942 -0.22807,-0.47821c-0.09838,-0.17664 -0.20124,-0.35112 -0.30856,-0.52345c-0.10733,-0.17233 -0.21465,-0.30696 -0.32199,-0.40389c0.77813,-0.44158 1.46233,-1.08028 2.05264,-1.91607c0.5903,-0.83363 1.07774,-1.83744 1.46233,-3.01142c0.38459,-1.17398 0.65291,-2.49336 0.80496,-3.95815v-0.32311M206.4938,177.98054c0.20571,1.2063 0.4946,2.34258 0.86667,3.40885c0.37027,1.06628 0.83268,2.00869 1.38721,2.82725c0.55452,0.81856 1.20743,1.46479 1.95873,1.93869c-0.09838,0.1077 -0.2075,0.24233 -0.32735,0.40389c-0.12164,0.16156 -0.23791,0.3285 -0.34881,0.50083c-0.1127,0.17233 -0.20929,0.33388 -0.28979,0.48467c-0.77813,-0.5816 -1.44892,-1.33554 -2.01238,-2.2618c-0.56347,-0.92626 -1.03035,-1.985 -1.40062,-3.17621c-0.37207,-1.18906 -0.67885,-2.47291 -0.92033,-3.85153l1.08669,-0.27465M209.74045,172.50375l0.83178,1.50248c-0.58135,0.15079 -1.2137,0.28542 -1.897,0.40389c-0.6851,0.11847 -1.38542,0.21541 -2.10093,0.29081c-0.71552,0.07539 -1.40867,0.13463 -2.07947,0.17772c-0.01789,-0.21541 -0.06529,-0.46313 -0.14221,-0.74316c-0.07513,-0.28003 -0.14847,-0.52237 -0.22002,-0.727c0.65291,-0.05386 1.32191,-0.12709 2.00701,-0.21972c0.68332,-0.09047 1.33622,-0.19279 1.95873,-0.30696c0.62071,-0.11201 1.16807,-0.23803 1.64211,-0.37804M204.1326,173.40847h1.36842v5.47679c0,0.68931 -0.0152,1.42171 -0.04561,2.19718c-0.0322,0.77548 -0.09301,1.55095 -0.18245,2.32643c-0.08944,0.77548 -0.22359,1.52618 -0.40247,2.2521c-0.17888,0.72808 -0.4159,1.38831 -0.71104,1.98069c-0.08944,-0.1077 -0.20392,-0.22079 -0.34345,-0.33927c-0.13774,-0.11847 -0.27816,-0.23695 -0.42126,-0.35542c-0.14311,-0.11847 -0.27279,-0.21002 -0.38906,-0.27465c0.25043,-0.53853 0.44988,-1.13413 0.59835,-1.78682c0.14668,-0.65054 0.25848,-1.32585 0.3354,-2.02593c0.07513,-0.70008 0.12611,-1.38939 0.15294,-2.06793c0.02683,-0.67854 0.04024,-1.314 0.04024,-1.90637zM211.92724,175.6218h11.83282v1.76097h-11.83282v-1.76097M214.15427,182.92419h7.31166v1.76097h-7.31166v-1.76097M217.05211,172.42297h1.52941v15.07328h-1.52941v-15.07328M215.81785,176.25188l1.31475,0.45236c-0.32199,1.14167 -0.71283,2.23164 -1.17255,3.26991c-0.46151,1.04043 -0.97846,1.99146 -1.55087,2.8531c-0.57241,0.86164 -1.18954,1.59941 -1.85139,2.21334c-0.0805,-0.15079 -0.18335,-0.31234 -0.30856,-0.48467c-0.12521,-0.17233 -0.2549,-0.3425 -0.38906,-0.51052c-0.13415,-0.16587 -0.2549,-0.30265 -0.36223,-0.41036c0.62608,-0.50621 1.21458,-1.15029 1.76553,-1.93223c0.54915,-0.77978 1.04286,-1.63819 1.48112,-2.57522c0.43825,-0.93704 0.79601,-1.8956 1.07327,-2.87571M219.78895,176.30034c0.27726,0.95857 0.63323,1.89022 1.0679,2.79494c0.43289,0.90472 0.93106,1.73404 1.49453,2.48798c0.56347,0.75393 1.15824,1.37862 1.78432,1.87406c-0.11627,0.11847 -0.24775,0.26603 -0.39443,0.44267c-0.14847,0.17879 -0.2871,0.36189 -0.4159,0.5493c-0.13058,0.18956 -0.24059,0.36512 -0.33003,0.52668c-0.66185,-0.59237 -1.27183,-1.314 -1.82993,-2.16487c-0.55989,-0.85086 -1.06522,-1.79652 -1.516,-2.83695c-0.45257,-1.03828 -0.83984,-2.11209 -1.16182,-3.22145zM229.9582,186.31688c-0.8944,0 -1.69219,-0.24018 -2.3934,-0.72054c-0.70299,-0.47821 -1.2602,-1.17506 -1.67162,-2.09055c-0.41143,-0.91549 -0.61713,-2.03024 -0.61713,-3.34424c0,-0.98011 0.12074,-1.85252 0.36223,-2.61722c0.24149,-0.7647 0.5742,-1.41632 0.99815,-1.95485c0.42573,-0.53853 0.92301,-0.94781 1.49185,-1.22783c0.56705,-0.28003 1.1815,-0.42005 1.84335,-0.42005c0.70657,0 1.30581,0.15617 1.79773,0.46851c0.49191,0.31234 0.8944,0.66239 1.20743,1.05012l-0.95252,1.35708c-0.25043,-0.29081 -0.52948,-0.53637 -0.83715,-0.7367c-0.30946,-0.19817 -0.69673,-0.29727 -1.16182,-0.29727c-0.58135,0 -1.09116,0.17449 -1.52941,0.52345c-0.43825,0.35112 -0.77991,0.84656 -1.02498,1.48632c-0.24685,0.64192 -0.37027,1.40986 -0.37027,2.30381c0,0.90472 0.11358,1.68235 0.34076,2.33289c0.22896,0.65269 0.56972,1.15352 1.02229,1.50248c0.45077,0.35112 1.00709,0.52668 1.66894,0.52668c0.27726,0 0.54111,-0.04632 0.79154,-0.13894c0.25043,-0.09047 0.45167,-0.21648 0.60372,-0.37804v-2.56876h-1.86481v-1.76097h3.4613v5.28292c-0.33093,0.39851 -0.77365,0.73454 -1.32818,1.00812c-0.55452,0.27573 -1.16718,0.41359 -1.83798,0.41359zM235.16357,186.09071v-8.96642h1.75748v8.96642h-1.75748M236.04902,175.55718c-0.32199,0 -0.57688,-0.11093 -0.7647,-0.3328c-0.18782,-0.21972 -0.28173,-0.51268 -0.28173,-0.87887c0,-0.35542 0.09391,-0.64408 0.28173,-0.86594c0.18782,-0.21972 0.44273,-0.32957 0.7647,-0.32957c0.30409,0 0.55452,0.10986 0.75129,0.32957c0.19677,0.22187 0.29515,0.51052 0.29515,0.86594c0,0.3662 -0.09838,0.65916 -0.29515,0.87887c-0.19677,0.22187 -0.4472,0.3328 -0.75129,0.3328zM241.75078,186.31688c-0.57241,0 -1.03035,-0.13786 -1.37379,-0.41359c-0.34523,-0.27357 -0.59566,-0.65592 -0.75129,-1.14706c-0.15741,-0.48898 -0.23612,-1.05659 -0.23612,-1.70282v-4.24896h-1.05986v-1.58326l1.16718,-0.09693l0.18782,-2.45567h1.46233v2.45567h1.89164v1.6802h-1.89164v4.26511c0,0.51698 0.08765,0.90688 0.26295,1.16968c0.17351,0.26495 0.43914,0.39743 0.7969,0.39743c0.12521,0 0.25759,-0.02154 0.39711,-0.06462c0.13774,-0.04309 0.26026,-0.09155 0.3676,-0.1454l0.29515,1.55095c-0.19677,0.07539 -0.42216,0.15079 -0.67616,0.22618c-0.25579,0.07539 -0.53574,0.11309 -0.83984,0.11309zM244.60836,186.09071v-12.87611h1.75748v3.32808l-0.0805,1.71251c0.31303,-0.35542 0.66006,-0.671 1.04108,-0.94673c0.37923,-0.27357 0.82374,-0.41036 1.33354,-0.41036c0.79601,0 1.37736,0.31234 1.74406,0.93704c0.3667,0.62469 0.55005,1.50248 0.55005,2.63338v5.62219h-1.75748v-5.34754c0,-0.74316 -0.09123,-1.26553 -0.27369,-1.56711c-0.18425,-0.30158 -0.47761,-0.45236 -0.88008,-0.45236c-0.32199,0 -0.60551,0.0937 -0.85057,0.28111c-0.24685,0.18956 -0.52232,0.46205 -0.82642,0.81748v6.26842zM255.28743,186.31688c-0.80496,0 -1.39078,-0.31234 -1.75748,-0.93704c-0.3667,-0.62469 -0.55005,-1.50248 -0.55005,-2.63338v-5.62219h1.75748v5.3637c0,0.72162 0.09212,1.23537 0.27636,1.54126c0.18245,0.30804 0.47492,0.46205 0.8774,0.46205c0.32199,0 0.60819,-0.09693 0.85861,-0.29081c0.25043,-0.19386 0.51428,-0.50621 0.79154,-0.93704v-6.13918h1.75748v8.96642h-1.44892l-0.13415,-1.32477h-0.04024c-0.33093,0.46313 -0.68422,0.83686 -1.05986,1.12121c-0.37564,0.2865 -0.81837,0.42975 -1.32818,0.42975zM265.12128,186.31688c-0.33093,0 -0.67259,-0.10232 -1.02498,-0.30696c-0.35418,-0.20464 -0.68779,-0.49006 -1.00082,-0.85625h-0.05367l-0.14758,0.93704h-1.38184v-12.87611h1.75748v3.32808l-0.05367,1.47017c0.31303,-0.33388 0.65291,-0.60314 1.01961,-0.80779c0.3667,-0.20464 0.74234,-0.30696 1.12693,-0.30696c0.61713,0 1.14483,0.18849 1.58307,0.56545c0.43825,0.37697 0.77365,0.90688 1.00619,1.58972c0.23255,0.68501 0.34881,1.48525 0.34881,2.40074c0,1.0232 -0.15205,1.89776 -0.45614,2.62369c-0.30409,0.72808 -0.69763,1.28276 -1.1806,1.66404c-0.48297,0.38343 -0.99725,0.57514 -1.54283,0.57514M264.74563,184.55591c0.33093,0 0.62876,-0.11632 0.8935,-0.34896c0.26295,-0.23049 0.47045,-0.57191 0.62249,-1.02427c0.15205,-0.45236 0.22807,-1.01242 0.22807,-1.6802c0,-0.60314 -0.05545,-1.11797 -0.16635,-1.54449c-0.1127,-0.42436 -0.28532,-0.74962 -0.51785,-0.9758c-0.23255,-0.22618 -0.54111,-0.33927 -0.9257,-0.33927c-0.26832,0 -0.53217,0.08293 -0.79154,0.2488c-0.25938,0.16802 -0.53217,0.41897 -0.81837,0.75286v4.16817c0.25043,0.28003 0.50801,0.4739 0.77276,0.5816c0.26295,0.1077 0.49728,0.16156 0.70299,0.16156zM272.59393,178.12594h5.63468v1.64788h-5.63468v-1.64788M271.8158,178.12594h1.52941v6.36535c0,0.26926 0.0313,0.46851 0.09391,0.59776c0.06261,0.12925 0.18604,0.21541 0.37027,0.25849c0.18245,0.04309 0.46151,0.06462 0.83715,0.06462c0.10733,0 0.271,0 0.49102,0c0.21823,0 0.46867,0 0.75129,0c0.28084,0 0.56705,0 0.85861,0c0.28979,0 0.55095,0 0.78349,0c0.23255,0 0.41143,0 0.53664,0c0.32199,0 0.56615,-0.05386 0.7325,-0.16156c0.16457,-0.1077 0.28532,-0.32634 0.36223,-0.65592c0.07513,-0.32742 0.13505,-0.80887 0.17978,-1.44432c0.11627,0.09693 0.25938,0.19386 0.42931,0.29081c0.16994,0.09693 0.34434,0.17987 0.52322,0.2488c0.17888,0.07108 0.34434,0.12278 0.49638,0.1551c-0.08944,0.86164 -0.21645,1.53156 -0.38101,2.00977c-0.16635,0.48036 -0.42573,0.81425 -0.77813,1.00165c-0.35418,0.18956 -0.84431,0.28434 -1.47039,0.28434c-0.08944,0 -0.22539,0 -0.40784,0c-0.18425,0 -0.3989,0 -0.64396,0c-0.24685,0 -0.49997,0 -0.75934,0c-0.25938,0 -0.50981,0 -0.75129,0c-0.24149,0 -0.45346,0 -0.63592,0c-0.18425,0 -0.31662,0 -0.39711,0c-0.69763,0 -1.24768,-0.07539 -1.65015,-0.22618c-0.40247,-0.15079 -0.686,-0.41467 -0.85057,-0.79163c-0.16635,-0.37697 -0.24953,-0.91549 -0.24953,-1.61557v-6.38151M275.39786,172.35834l1.38184,0.71085c-0.50086,1.00165 -1.08847,1.92792 -1.76285,2.77878c-0.67616,0.85086 -1.41403,1.61557 -2.21362,2.29411c-0.80137,0.67854 -1.64031,1.26553 -2.51682,1.76097c-0.10733,-0.24772 -0.25669,-0.51698 -0.4481,-0.80779c-0.19319,-0.29081 -0.3837,-0.53853 -0.57152,-0.74316c0.83178,-0.40928 1.63495,-0.90795 2.4095,-1.49602c0.77276,-0.58591 1.47933,-1.25907 2.11971,-2.01946c0.63859,-0.75824 1.17255,-1.58434 1.60186,-2.47828M276.24305,173.27922c0.79601,1.15244 1.68146,2.11101 2.65635,2.87571c0.97489,0.7647 2.03027,1.43248 3.16615,2.00331c-0.18782,0.19386 -0.37117,0.42759 -0.55005,0.70115c-0.17888,0.27573 -0.31751,0.54283 -0.4159,0.80133c-0.78707,-0.46313 -1.52941,-0.96395 -2.22704,-1.50248c-0.69763,-0.53853 -1.36127,-1.14706 -1.99092,-1.8256c-0.63145,-0.67854 -1.25125,-1.46479 -1.85945,-2.35873l1.22084,-0.6947M277.82613,178.12594h1.47575c0,0 0,0.04309 0,0.12925c0,0.08616 -0.00179,0.18526 -0.00537,0.29727c-0.00537,0.11417 -0.00805,0.20894 -0.00805,0.28434c-0.03577,0.92626 -0.07603,1.68774 -0.12074,2.28442c-0.04472,0.59884 -0.10017,1.0652 -0.16635,1.39909c-0.06797,0.33388 -0.15562,0.58699 -0.26295,0.75932c-0.14311,0.1831 -0.30589,0.3145 -0.48834,0.3942c-0.18425,0.08185 -0.3837,0.13355 -0.59835,0.1551c-0.20571,0.03231 -0.48029,0.04524 -0.82374,0.03878c-0.34523,-0.00431 -0.71015,-0.01723 -1.09473,-0.03878c-0.00894,-0.22618 -0.04472,-0.48467 -0.10733,-0.77548c-0.06261,-0.29081 -0.14311,-0.53853 -0.24149,-0.74316c0.34881,0.04309 0.67079,0.07 0.96595,0.08078c0.29515,0.01077 0.50981,0.01616 0.64396,0.01616c0.22359,0 0.38459,-0.05924 0.48297,-0.17772c0.06261,-0.09693 0.11627,-0.28542 0.16099,-0.56545c0.04472,-0.28003 0.08318,-0.68393 0.11538,-1.21167c0.03041,-0.52775 0.05456,-1.21167 0.07244,-2.05178zM285.91591,177.12429h8.80083v1.55095h-8.80083v-1.55095M285.56711,183.73197h9.63262v1.58326h-9.63262v-1.58326M290.14193,179.273h1.42209v8.2071h-1.42209v-8.2071M286.70745,182.50413c-0.01789,-0.11847 -0.05545,-0.27788 -0.1127,-0.47821c-0.05903,-0.19817 -0.11985,-0.40497 -0.18245,-0.62038c-0.06261,-0.21541 -0.12521,-0.39851 -0.18782,-0.5493c0.13415,-0.04309 0.26385,-0.1454 0.38906,-0.30696c0.12521,-0.16156 0.2549,-0.37158 0.38906,-0.63007c0.07155,-0.12925 0.17262,-0.33711 0.3032,-0.62361c0.12879,-0.28434 0.27636,-0.62576 0.44273,-1.02427c0.16457,-0.39851 0.32287,-0.82717 0.47492,-1.286c0.15205,-0.45666 0.2862,-0.91657 0.40247,-1.3797l1.50259,0.5816c-0.21465,0.64623 -0.4624,1.29461 -0.74324,1.94515c-0.28263,0.65269 -0.57599,1.27199 -0.88008,1.8579c-0.30409,0.58806 -0.60372,1.11905 -0.89887,1.59295v0.03231c0,0 -0.04472,0.02908 -0.13415,0.08724c-0.08944,0.06031 -0.19408,0.13894 -0.31393,0.23587c-0.12164,0.09693 -0.22718,0.19602 -0.31662,0.29727c-0.08944,0.10339 -0.13415,0.19279 -0.13415,0.26819M286.70745,182.50413v-1.29246l0.73787,-0.48467h6.85552v1.55095h-6.26523c-0.32199,0 -0.60819,0.01831 -0.85861,0.05493c-0.25043,0.03878 -0.40694,0.09585 -0.46955,0.17125M284.58774,173.95777h10.62539v1.61557h-10.62539v-1.61557M283.89011,173.95777h1.42209v4.58823c0,0.64623 -0.0152,1.35923 -0.04561,2.13902c-0.0322,0.78194 -0.09748,1.58434 -0.19588,2.4072c-0.09838,0.82502 -0.2388,1.61988 -0.42126,2.38458c-0.18425,0.7647 -0.43289,1.4594 -0.74593,2.08409c-0.0805,-0.1077 -0.19677,-0.22618 -0.34881,-0.35542c-0.15205,-0.12925 -0.30589,-0.25311 -0.46151,-0.37158c-0.15741,-0.11847 -0.29426,-0.20464 -0.41053,-0.25849c0.27726,-0.5816 0.49638,-1.21167 0.65738,-1.89022c0.16099,-0.67854 0.28173,-1.37862 0.36223,-2.10024c0.0805,-0.72162 0.13237,-1.43032 0.15562,-2.12609c0.02147,-0.69361 0.0322,-1.33124 0.0322,-1.91284v-4.58823M288.57227,172.74608l1.44892,-0.38774c0.15205,0.29081 0.29515,0.62146 0.42931,0.99196c0.13415,0.37266 0.22807,0.69901 0.28173,0.97903l-1.516,0.45236c-0.03577,-0.26926 -0.11358,-0.59776 -0.23343,-0.9855c-0.12164,-0.38774 -0.25848,-0.73778 -0.41053,-1.05012z" fill="#ffffff" fill-rule="nonzero" stroke-linecap="butt" stroke-linejoin="miter"/></g></g></svg>