<svg version="1.1" xmlns="http://www.w3.org/2000/svg" xmlns:xlink="http://www.w3.org/1999/xlink" width="208" height="32" viewBox="0,0,208,32"><g transform="translate(-240,-164)"><g stroke="none" stroke-miterlimit="10"><path d="M240,196v-32h208v32z" fill="none" stroke-width="0"/><path d="M305.52,185.06c0.52083,0.60547 1.10677,1.05471 1.7578,1.3477c1.06773,0.48177 2.46747,0.72266 4.1992,0.72266h8.3203c-0.23437,0.44271 -0.45247,1.07747 -0.6543,1.9043h-7.7637c-2.2396,0 -3.9551,-0.35157 -5.1465,-1.0547c-0.48828,-0.29297 -1.02538,-0.77151 -1.6113,-1.4356c-0.0456,0.05207 -0.10094,0.11717 -0.16602,0.19531c-0.957,1.1328 -1.90753,2.05727 -2.8516,2.7734l-1.1816,-2.002c1.03513,-0.61849 2.03447,-1.31836 2.998,-2.0996v-4.8242h-2.8418v-1.9238h4.9414zM308.0591,172.101l0.51758,-0.0391c3.01433,-0.20833 5.72267,-0.6543 8.125,-1.3379l1.5234,1.7188c-2.52607,0.66406 -5.22137,1.11326 -8.0859,1.3476v2.5293h9.043v1.9043h-3.2812v7.959h-2.1582v-7.959h-3.6035c-0.03253,2.08987 -0.18878,3.75327 -0.46875,4.9902c-0.25391,1.13933 -0.67057,2.16147 -1.25,3.0664l-1.7969,-1.3574c0.64453,-1.0026 1.05793,-2.2461 1.2402,-3.7305c0.13021,-1.02213 0.19531,-2.4121 0.19531,-4.1699zM304.4458,175.9194c-0.99607,-1.40627 -2.0703,-2.66603 -3.2227,-3.7793l1.6016,-1.2793c1.1198,0.93747 2.2461,2.12887 3.3789,3.5742z" fill="#ffffff" stroke-width="1"/><path d="M240.52699,171.60248h6.85714v1.94486h-6.85714v-1.94486M242.71246,177.83806h4.35088v9.06266h-4.35088v-1.88471h2.54637v-5.29323h-2.54637v-1.88471M242.95306,172.60498l1.96491,0.42105c-0.25397,1.26984 -0.56408,2.52632 -0.93033,3.76942c-0.36892,1.24311 -0.80468,2.40601 -1.30727,3.48872c-0.49992,1.08271 -1.09073,2.03175 -1.77243,2.84712c-0.02673,-0.18713 -0.08421,-0.43843 -0.17243,-0.75388c-0.08555,-0.31278 -0.1858,-0.63358 -0.30075,-0.96241c-0.11228,-0.32615 -0.22189,-0.58947 -0.32882,-0.78997c0.73517,-0.97577 1.32999,-2.16541 1.78446,-3.56892c0.45447,-1.40351 0.80869,-2.88722 1.06266,-4.45113M241.79015,177.83806h1.78446v10.60652h-1.78446v-10.60652M251.93551,180.22403h1.86466v8.34085h-1.86466v-8.34085M247.98564,172.76538h10.58647v1.84461h-10.58647v-1.84461M255.02323,180.12378h1.82456v6.67669c0,0.17377 0.00401,0.31679 0.01203,0.42907c0.00535,0.11495 0.0147,0.1858 0.02807,0.21253c0.0401,0.0802 0.10693,0.1203 0.2005,0.1203c0.0401,0 0.08421,0 0.13233,0c0.04545,0 0.08822,0 0.12832,0c0.05347,0 0.10025,-0.00668 0.14035,-0.02005c0.0401,-0.01337 0.07352,-0.0401 0.10025,-0.0802c0.05347,-0.05347 0.10025,-0.20718 0.14035,-0.46115c0.02673,-0.1604 0.04411,-0.39432 0.05213,-0.70175c0.00535,-0.30743 0.00802,-0.66834 0.00802,-1.08271c0.1604,0.13367 0.3609,0.26332 0.6015,0.38897c0.2406,0.12832 0.46784,0.2259 0.6817,0.29273c-0.01337,0.42774 -0.03609,0.85547 -0.06817,1.28321c-0.03475,0.42774 -0.08555,0.73517 -0.15238,0.92231c-0.10693,0.37427 -0.28738,0.6416 -0.54135,0.802c-0.1203,0.0802 -0.26065,0.14035 -0.42105,0.18045c-0.1604,0.0401 -0.32748,0.06015 -0.50125,0.06015c-0.13367,0 -0.27669,0 -0.42907,0c-0.15505,0 -0.28605,0 -0.39298,0c-0.21387,0 -0.42105,-0.03342 -0.62155,-0.10025c-0.2005,-0.06683 -0.37427,-0.17377 -0.5213,-0.3208c-0.14703,-0.1604 -0.24996,-0.37159 -0.30877,-0.63358c-0.06149,-0.25931 -0.09223,-0.71646 -0.09223,-1.37143v-6.59649M248.78764,180.18393h1.88471v2.60652c0,0.74854 -0.06282,1.5198 -0.18847,2.31378c-0.12832,0.79666 -0.39566,1.56257 -0.802,2.29774c-0.40902,0.73517 -1.04795,1.40351 -1.91679,2.00501c-0.09357,-0.13367 -0.22991,-0.28738 -0.40902,-0.46115c-0.18179,-0.17377 -0.36625,-0.34486 -0.55338,-0.51328c-0.18713,-0.16575 -0.3609,-0.2954 -0.5213,-0.38897c0.74854,-0.50794 1.30059,-1.05998 1.65614,-1.65614c0.35288,-0.59348 0.58279,-1.20434 0.68972,-1.83258c0.10693,-0.62824 0.1604,-1.23642 0.1604,-1.82456v-2.54637M254.42173,175.7328l1.56391,-0.802c0.3609,0.41437 0.7325,0.87552 1.11479,1.38346c0.37961,0.50794 0.73383,1.00919 1.06266,1.50376c0.32615,0.49457 0.58947,0.92899 0.78997,1.30326l-1.70426,0.94236c-0.17377,-0.37427 -0.41704,-0.8127 -0.72982,-1.31529c-0.31545,-0.49992 -0.65631,-1.01454 -1.02256,-1.54386c-0.36892,-0.52665 -0.72715,-1.01721 -1.07469,-1.47168M251.79516,171.06112l2.02506,-0.5614c0.2406,0.42774 0.47853,0.90226 0.71378,1.42356c0.23258,0.5213 0.40234,0.96909 0.50927,1.34336l-2.16541,0.66165c-0.0802,-0.37427 -0.22322,-0.83275 -0.42907,-1.37544c-0.20852,-0.54002 -0.4264,-1.03726 -0.65363,-1.49173M248.44679,179.66262v-1.50376l1.10276,-0.6416l7.5188,-0.2807c0.01337,0.2807 0.03743,0.59081 0.07218,0.93033c0.03208,0.34219 0.06817,0.61353 0.10827,0.81404c-1.43024,0.0802 -2.63592,0.14703 -3.61704,0.2005c-0.98379,0.05347 -1.7858,0.10025 -2.40601,0.14035c-0.62289,0.0401 -1.11479,0.07619 -1.47569,0.10827c-0.3609,0.03475 -0.63492,0.06817 -0.82206,0.10025c-0.18713,0.03475 -0.34753,0.07886 -0.4812,0.13233M248.44679,179.66262c-0.02673,-0.17377 -0.0802,-0.38496 -0.1604,-0.63358c-0.0802,-0.24595 -0.16307,-0.49591 -0.24862,-0.74987c-0.08822,-0.25397 -0.16575,-0.45447 -0.23258,-0.6015c0.21387,-0.0401 0.45848,-0.10693 0.73383,-0.2005c0.27268,-0.09357 0.49591,-0.23392 0.66967,-0.42105c0.1203,-0.10693 0.2807,-0.30476 0.4812,-0.59348c0.2005,-0.28605 0.41838,-0.60685 0.65363,-0.96241c0.23258,-0.35288 0.45313,-0.69373 0.66165,-1.02256c0.20585,-0.32615 0.3756,-0.59616 0.50927,-0.81002h2.34586c-0.2005,0.3208 -0.43442,0.68839 -0.70175,1.10276c-0.26733,0.41437 -0.54804,0.84478 -0.84211,1.29123c-0.29407,0.44912 -0.57744,0.87419 -0.85013,1.27519c-0.27535,0.401 -0.52665,0.74854 -0.75388,1.04261c0,0 -0.07619,0.02673 -0.22857,0.0802c-0.15505,0.05347 -0.34219,0.12297 -0.5614,0.20852c-0.22189,0.08822 -0.44645,0.18847 -0.67368,0.30075c-0.22723,0.11495 -0.41704,0.22857 -0.56942,0.34085c-0.15505,0.11495 -0.23258,0.23258 -0.23258,0.35288zM260.73752,175.5323h18.06516v1.96491h-18.06516v-1.96491M262.14103,172.22403h15.27819v1.88471h-15.27819v-1.88471M265.5295,170.66012h2.18546v5.83459h-2.18546v-5.83459M271.78513,170.66012h2.22556v5.83459h-2.22556v-5.83459M268.61722,176.63506h2.22556v8.2807h-2.22556v-8.2807M264.84779,182.83054v1.34336h9.86466v-1.34336h-9.86466M264.84779,180.12378v1.30326h9.86466v-1.30326h-9.86466M262.78263,178.62002h14.09524v7.05764h-14.09524v-7.05764M271.28388,186.96087l1.20301,-1.36341c0.73517,0.2406 1.48371,0.50125 2.24561,0.78195c0.7619,0.2807 1.4797,0.55071 2.15338,0.81002c0.67636,0.26199 1.26182,0.5066 1.75639,0.73383l-1.54386,1.44361c-0.4411,-0.22723 -0.97577,-0.47853 -1.60401,-0.75388c-0.62824,-0.27268 -1.30593,-0.55338 -2.03308,-0.84211c-0.72982,-0.28605 -1.45564,-0.55606 -2.17744,-0.81002M266.6122,185.65761l1.84461,1.26316c-0.53467,0.33417 -1.1589,0.65764 -1.87268,0.97043c-0.71646,0.31545 -1.45564,0.60685 -2.21754,0.87419c-0.7619,0.26733 -1.48371,0.49457 -2.16541,0.6817c-0.17377,-0.22723 -0.40769,-0.48789 -0.70175,-0.78195c-0.29407,-0.29407 -0.55472,-0.54135 -0.78195,-0.74185c0.69507,-0.17377 1.4142,-0.38496 2.15739,-0.63358c0.74052,-0.24595 1.44495,-0.51596 2.11328,-0.81002c0.66834,-0.29407 1.20969,-0.56809 1.62406,-0.82206zM296.38664,179.34182h2.12531c0,0 -0.00267,0.05347 -0.00802,0.1604c-0.00802,0.10693 -0.01203,0.22723 -0.01203,0.3609c0,0.13367 -0.00668,0.25397 -0.02005,0.3609c-0.09357,1.79114 -0.19382,3.24411 -0.30075,4.3589c-0.10693,1.11746 -0.23392,1.97694 -0.38095,2.57845c-0.14703,0.6015 -0.32748,1.02924 -0.54135,1.28321c-0.22723,0.26733 -0.47051,0.45447 -0.72982,0.5614c-0.26199,0.10693 -0.56675,0.18045 -0.91429,0.22055c-0.29407,0.0401 -0.67769,0.06015 -1.15088,0.06015c-0.47586,0 -0.97444,-0.00668 -1.49574,-0.02005c-0.02673,-0.29407 -0.09624,-0.62824 -0.20852,-1.00251c-0.11495,-0.37427 -0.25263,-0.68839 -0.41303,-0.94236c0.49457,0.0401 0.95572,0.06282 1.38346,0.06817c0.42774,0.00802 0.74185,0.01203 0.94236,0.01203c0.17377,0 0.31813,-0.01337 0.43308,-0.0401c0.11228,-0.02673 0.22189,-0.09357 0.32882,-0.2005c0.14703,-0.1604 0.2807,-0.50794 0.401,-1.04261c0.1203,-0.53467 0.22322,-1.32331 0.30877,-2.36591c0.08822,-1.04261 0.17243,-2.39933 0.25263,-4.07018v-0.34085M286.48188,181.86814h1.98496v4.75188h-1.98496v-4.75188M291.49441,182.65009h1.96491v5.59398h-1.96491v-5.59398M281.6498,182.69019h1.96491v3.20802h8.70175v1.78446h-10.66667v-4.99248M294.14102,172.36438h2.00501c0,0 0,0.09357 0,0.2807c0,0.18713 -0.00668,0.34085 -0.02005,0.46115c-0.06683,1.00251 -0.13634,1.83793 -0.20852,2.50627c-0.07485,0.66834 -0.16174,1.19632 -0.26065,1.58396c-0.10159,0.38764 -0.23926,0.66834 -0.41303,0.84211c-0.1604,0.2005 -0.33684,0.34352 -0.52932,0.42907c-0.19515,0.08822 -0.41972,0.1457 -0.67368,0.17243c-0.21387,0.0401 -0.49056,0.06282 -0.83008,0.06817c-0.34219,0.00802 -0.7071,0.00535 -1.09474,-0.00802c-0.02673,-0.29407 -0.08688,-0.61888 -0.18045,-0.97444c-0.09357,-0.35288 -0.21387,-0.65631 -0.3609,-0.91028c0.30743,0.02673 0.58814,0.04678 0.84211,0.06015c0.25397,0.01337 0.44779,0.02005 0.58145,0.02005c0.1203,0 0.22723,-0.01337 0.3208,-0.0401c0.09357,-0.02673 0.17377,-0.0802 0.2406,-0.1604c0.13367,-0.14703 0.24728,-0.5213 0.34085,-1.12281c0.09357,-0.6015 0.17377,-1.58396 0.2406,-2.94737v-0.26065M288.24629,170.59997l2.56642,0.22055c-0.21387,0.49457 -0.45447,0.97176 -0.7218,1.43158c-0.26733,0.46249 -0.50794,0.86082 -0.7218,1.19499l-1.90476,-0.34085c0.14703,-0.37427 0.29674,-0.79532 0.44912,-1.26316c0.15505,-0.46784 0.266,-0.88221 0.33283,-1.24311M286.04077,176.1739l1.06266,-1.36341c0.46784,0.1604 0.96909,0.35422 1.50376,0.58145c0.53467,0.22723 1.04528,0.46115 1.53183,0.70175c0.48922,0.2406 0.89424,0.46784 1.21504,0.6817l-1.12281,1.50376c-0.29407,-0.21387 -0.6817,-0.44779 -1.16291,-0.70175c-0.4812,-0.25397 -0.98647,-0.50526 -1.51579,-0.75388c-0.52665,-0.24595 -1.03058,-0.46249 -1.51178,-0.64962M294.76258,172.36438v1.92481h-9.54386v5.05263h11.80952v1.88471h-13.91479v-8.86215zM309.09841,176.35435h9.88471v2.00501h-9.88471v-2.00501M313.38914,177.27666h2.12531v8.6416h-2.12531v-8.6416M305.26884,177.85811v8.02005h-2.10526v-5.89474h-2.40601v-2.12531h4.51128M307.91546,171.84308h2.18546v4.43108c0,0.7218 -0.02673,1.50643 -0.0802,2.35388c-0.05347,0.85013 -0.15773,1.71629 -0.31278,2.5985c-0.15238,0.88221 -0.37159,1.73768 -0.65764,2.56642c-0.28872,0.82874 -0.66032,1.57728 -1.11479,2.24561c-0.1203,-0.1203 -0.29808,-0.26733 -0.53333,-0.4411c-0.23258,-0.17377 -0.46917,-0.33818 -0.70977,-0.49323c-0.2406,-0.15238 -0.4411,-0.26867 -0.6015,-0.34887c0.5614,-0.82874 0.96909,-1.74169 1.22306,-2.73885c0.25397,-0.99449 0.41704,-1.99298 0.48922,-2.99549c0.07485,-1.00251 0.11228,-1.91813 0.11228,-2.74687v-4.43108M316.93801,170.70022l1.76441,1.60401c-0.92231,0.29407 -1.95823,0.53467 -3.10777,0.7218c-1.14954,0.18713 -2.33517,0.33016 -3.55689,0.42907c-1.22439,0.10159 -2.40468,0.16575 -3.54085,0.19248c-0.0401,-0.25397 -0.11763,-0.55873 -0.23258,-0.91429c-0.11228,-0.35288 -0.22857,-0.64962 -0.34887,-0.89023c0.81537,-0.0401 1.64144,-0.09089 2.4782,-0.15238c0.83409,-0.05881 1.65614,-0.135 2.46617,-0.22857c0.80735,-0.09357 1.55856,-0.20451 2.25363,-0.33283c0.69507,-0.12565 1.30326,-0.26867 1.82456,-0.42907M304.16608,184.79546c0.2406,0 0.46383,0.05614 0.66967,0.16842c0.20852,0.11495 0.44244,0.26199 0.70175,0.4411c0.26199,0.18179 0.5868,0.37961 0.97444,0.59348c0.66834,0.38764 1.45297,0.63492 2.35388,0.74185c0.90359,0.10693 1.91679,0.1604 3.0396,0.1604c0.54804,0 1.14687,-0.00668 1.79649,-0.02005c0.64695,-0.01337 1.3046,-0.0401 1.97293,-0.0802c0.66834,-0.0401 1.31395,-0.09089 1.93684,-0.15238c0.62022,-0.05881 1.18429,-0.12164 1.69223,-0.18847c-0.0802,0.18713 -0.16708,0.42105 -0.26065,0.70175c-0.09357,0.2807 -0.17377,0.55739 -0.2406,0.83008c-0.06683,0.27535 -0.10693,0.51328 -0.1203,0.71378c-0.3609,0.02673 -0.82206,0.05347 -1.38346,0.0802c-0.5614,0.02673 -1.16959,0.04946 -1.82456,0.06817c-0.65497,0.02139 -1.29925,0.03876 -1.93283,0.05213c-0.63626,0.01337 -1.20835,0.02005 -1.71629,0.02005c-1.25648,0 -2.33517,-0.07352 -3.23609,-0.22055c-0.90359,-0.14703 -1.71629,-0.42105 -2.43809,-0.82206c-0.45447,-0.25397 -0.84879,-0.51195 -1.18296,-0.77393c-0.33417,-0.25931 -0.61487,-0.38897 -0.84211,-0.38897c-0.21387,0 -0.44779,0.12297 -0.70175,0.36892c-0.25397,0.24862 -0.5213,0.56675 -0.802,0.95439c-0.2807,0.38764 -0.55472,0.78864 -0.82206,1.20301l-1.44361,-2.04511c0.6817,-0.7218 1.3594,-1.30326 2.03308,-1.74436c0.67636,-0.4411 1.26851,-0.66165 1.77644,-0.66165M301.11847,172.08368l1.66416,-1.06266c0.3609,0.34753 0.73517,0.72849 1.12281,1.14286c0.38764,0.41437 0.75522,0.82473 1.10276,1.23108c0.34753,0.40902 0.62824,0.78062 0.84211,1.11479l-1.76441,1.22306c-0.18713,-0.33417 -0.44779,-0.71512 -0.78195,-1.14286c-0.33417,-0.42774 -0.6924,-0.85948 -1.07469,-1.29524c-0.37961,-0.43308 -0.74987,-0.83676 -1.11078,-1.21103zM328.12598,176.1739h2.00501c-0.09357,0.84211 -0.19382,1.72698 -0.30075,2.65464c-0.10693,0.93033 -0.22322,1.85263 -0.34887,2.76692c-0.12832,0.91696 -0.24996,1.7858 -0.36491,2.60652c-0.11228,0.82339 -0.22189,1.54921 -0.32882,2.17744h-2.08521c0.13367,-0.65497 0.26733,-1.40084 0.401,-2.23759c0.13367,-0.83409 0.26332,-1.70961 0.38897,-2.62657c0.12832,-0.91429 0.24595,-1.82991 0.35288,-2.74687c0.10693,-0.91429 0.2005,-1.77911 0.2807,-2.59449M331.1335,178.49972l1.12281,-0.7218c0.3609,0.2807 0.73517,0.60819 1.12281,0.98246c0.38764,0.37427 0.68839,0.70175 0.90226,0.98246l-1.18296,0.82206c-0.18713,-0.29407 -0.47051,-0.63893 -0.85013,-1.03459c-0.38229,-0.39298 -0.75388,-0.73651 -1.11479,-1.03058M330.59215,182.65009l1.18296,-0.74185c0.401,0.30743 0.81805,0.66165 1.25113,1.06266c0.43576,0.401 0.77393,0.7619 1.01454,1.08271l-1.22306,0.84211c-0.22723,-0.30743 -0.55472,-0.67502 -0.98246,-1.10276c-0.42774,-0.42774 -0.84211,-0.80869 -1.24311,-1.14286M328.40668,172.74533h10.36591v1.94486h-10.36591v-1.94486M328.96809,176.1739h7.6391v1.84461h-7.6391v-1.84461M325.59967,180.18393h13.69423v1.94486h-13.69423v-1.94486M327.78513,184.5348h10.98747v1.84461h-10.98747v-1.84461M328.52698,170.64007l2.08521,0.54135c-0.26733,0.82874 -0.59081,1.65347 -0.97043,2.47419c-0.38229,0.82339 -0.7873,1.59599 -1.21504,2.31779c-0.42774,0.7218 -0.86216,1.35673 -1.30326,1.90476c-0.13367,-0.1203 -0.31679,-0.25397 -0.54937,-0.401c-0.23525,-0.14703 -0.4665,-0.29407 -0.69373,-0.4411c-0.22723,-0.14703 -0.42774,-0.26733 -0.6015,-0.3609c0.45447,-0.4812 0.88622,-1.04662 1.29524,-1.69624c0.40635,-0.64695 0.77661,-1.34202 1.11078,-2.08521c0.33417,-0.74052 0.61487,-1.49173 0.84211,-2.25363M335.98563,176.1739h2.00501c0,0 -0.00401,0.06015 -0.01203,0.18045c-0.00535,0.1203 -0.00802,0.24996 -0.00802,0.38897c0,0.14169 -0.00668,0.25931 -0.02005,0.35288c-0.0802,1.91144 -0.1604,3.53149 -0.2406,4.86015c-0.0802,1.33133 -0.17109,2.42473 -0.27268,3.2802c-0.09891,0.85547 -0.21119,1.52381 -0.33684,2.00501c-0.12832,0.4812 -0.27936,0.82874 -0.45313,1.04261c-0.22723,0.30743 -0.46516,0.51729 -0.71378,0.62957c-0.24595,0.11495 -0.52932,0.19916 -0.85013,0.25263c-0.29407,0.0401 -0.66834,0.06015 -1.12281,0.06015c-0.45447,0 -0.92899,-0.01337 -1.42356,-0.0401c-0.01337,-0.26733 -0.06683,-0.56809 -0.1604,-0.90226c-0.09357,-0.33417 -0.22055,-0.62824 -0.38095,-0.88221c0.46784,0.0401 0.89557,0.06683 1.28321,0.0802c0.38764,0.01337 0.67502,0.02005 0.86216,0.02005c0.17377,0 0.31412,-0.02406 0.42105,-0.07218c0.10693,-0.04545 0.21387,-0.12832 0.3208,-0.24862c0.13367,-0.14703 0.25397,-0.44511 0.3609,-0.89424c0.10693,-0.44645 0.20718,-1.08137 0.30075,-1.90476c0.09357,-0.82072 0.17778,-1.87001 0.25263,-3.14787c0.07218,-1.27519 0.135,-2.82172 0.18847,-4.6396v-0.42105M321.70994,172.42453l1.20301,-1.46366c0.38764,0.17377 0.80601,0.38095 1.25514,0.62155c0.44645,0.2406 0.87285,0.48789 1.2792,0.74185c0.40902,0.25397 0.74052,0.48789 0.99449,0.70175l-1.26316,1.62406c-0.2406,-0.21387 -0.55739,-0.45848 -0.95038,-0.73383c-0.39566,-0.27268 -0.81671,-0.54002 -1.26316,-0.802c-0.44912,-0.25931 -0.8675,-0.48922 -1.25514,-0.68972M320.58713,178.15887l1.16291,-1.44361c0.38764,0.17377 0.79265,0.37694 1.21504,0.60952c0.41972,0.23525 0.82072,0.47318 1.20301,0.71378c0.37961,0.2406 0.68972,0.46784 0.93033,0.6817l-1.24311,1.64411c-0.21387,-0.22723 -0.50794,-0.47452 -0.88221,-0.74185c-0.37427,-0.26733 -0.7726,-0.52799 -1.19499,-0.78195c-0.41972,-0.25397 -0.81671,-0.4812 -1.19098,-0.6817M321.14854,187.88318c0.26733,-0.5213 0.56408,-1.13617 0.89023,-1.84461c0.32882,-0.70844 0.65764,-1.46366 0.98647,-2.26566c0.32615,-0.802 0.62957,-1.59064 0.91028,-2.36591l1.64411,1.16291c-0.2406,0.70844 -0.50526,1.43693 -0.79398,2.18546c-0.28605,0.74854 -0.58012,1.49039 -0.88221,2.22556c-0.29941,0.73517 -0.59616,1.42356 -0.89023,2.06516z" fill="#ffffff" stroke-width="1"/></g></g></svg>