<svg version="1.1" xmlns="http://www.w3.org/2000/svg" xmlns:xlink="http://www.w3.org/1999/xlink" width="208" height="32" viewBox="0,0,208,32"><g transform="translate(-240,-164)"><g stroke="none" stroke-miterlimit="10"><path d="M241.36935,175.16774h17.16166v3.63611h-1.83804v-1.83804h-13.5655v1.83804h-1.75812v-3.63611M244.18634,173.62938l1.53836,-0.6593c0.19979,0.39957 0.39691,0.8391 0.59137,1.31859c0.1918,0.47949 0.32765,0.88572 0.40756,1.2187l-1.63825,0.75919c-0.06659,-0.33298 -0.18913,-0.75253 -0.36761,-1.25866c-0.18114,-0.50613 -0.35828,-0.96563 -0.53143,-1.37853M248.74147,173.40962l1.61827,-0.57938c0.17315,0.41289 0.34363,0.86841 0.51145,1.36654c0.16516,0.5008 0.29435,0.91103 0.38759,1.23068l-1.69819,0.69925c-0.06659,-0.35962 -0.17981,-0.79249 -0.33964,-1.29861c-0.15983,-0.50613 -0.31966,-0.97895 -0.47949,-1.41848M256.75291,170.49273l0.59936,1.71816c-0.99893,0.14651 -2.10442,0.27571 -3.31646,0.38759c-1.21204,0.11454 -2.48002,0.21177 -3.80394,0.29169c-1.32658,0.07991 -2.65849,0.14251 -3.99573,0.1878c-1.3399,0.04795 -2.62919,0.07858 -3.86787,0.0919c-0.01332,-0.26638 -0.06659,-0.55274 -0.15983,-0.85908c-0.09323,-0.30634 -0.18647,-0.57272 -0.2797,-0.79915c1.26531,-0.02664 2.57059,-0.06659 3.91582,-0.11987c1.34523,-0.05328 2.67448,-0.12653 3.98774,-0.21977c1.3106,-0.09323 2.5586,-0.19712 3.744,-0.31167c1.1854,-0.11188 2.24427,-0.23442 3.17661,-0.36761M254.31551,172.57051l1.87799,0.57938c-0.31966,0.51944 -0.64331,1.03889 -0.97096,1.55833c-0.32499,0.51944 -0.63399,0.95898 -0.92701,1.31859l-1.4984,-0.51944c0.17315,-0.26638 0.35695,-0.57272 0.55141,-0.91902c0.1918,-0.3463 0.3716,-0.69659 0.53942,-1.05088c0.16516,-0.35162 0.30767,-0.67395 0.42754,-0.96697M247.64264,182.28014c0.66595,0.86574 1.54901,1.61161 2.64917,2.23761c1.09749,0.626 2.36281,1.13212 3.79594,1.51838c1.43047,0.38625 2.95817,0.65264 4.5831,0.79915c-0.13319,0.15983 -0.26905,0.34896 -0.40756,0.56739c-0.14118,0.2211 -0.27437,0.44752 -0.39957,0.67927c-0.12786,0.23442 -0.23175,0.4382 -0.31167,0.61135c-1.66489,-0.21311 -3.21923,-0.55674 -4.66302,-1.0309c-1.44645,-0.4715 -2.7424,-1.09749 -3.88785,-1.87799c-1.14544,-0.77783 -2.11774,-1.71284 -2.91688,-2.805l1.55833,-0.69925M246.78356,181.58088h8.41101v1.81806h-8.41101v-1.81806M254.55526,181.58088h0.39957l0.31966,-0.05994l1.17874,0.79915c-0.65264,1.23868 -1.51838,2.28023 -2.59722,3.12466c-1.07885,0.84709 -2.29754,1.53303 -3.65609,2.0578c-1.35855,0.52744 -2.77037,0.92435 -4.23547,1.19073c-0.05328,-0.15983 -0.13585,-0.35296 -0.24774,-0.57938c-0.11454,-0.22642 -0.23841,-0.44619 -0.3716,-0.6593c-0.13319,-0.21311 -0.25306,-0.38625 -0.35962,-0.51944c1.41183,-0.19979 2.75439,-0.51012 4.0277,-0.93101c1.27064,-0.41822 2.38945,-0.9643 3.35641,-1.63825c0.9643,-0.67128 1.69286,-1.49307 2.18566,-2.46537v-0.31966M242.98762,178.64402h13.92512v1.7781h-13.92512v-1.7781M246.66369,177.22554l2.01784,0.25972c-0.45285,2.67714 -1.20804,4.94139 -2.26558,6.79274c-1.0602,1.85136 -2.54262,3.33643 -4.44725,4.45524c-0.06659,-0.13319 -0.18247,-0.30634 -0.34763,-0.51944c-0.16782,-0.21311 -0.3383,-0.42355 -0.51145,-0.63133c-0.17315,-0.20511 -0.33298,-0.36761 -0.47949,-0.48748c1.78476,-0.91902 3.1473,-2.20165 4.08763,-3.84789c0.93766,-1.64358 1.5863,-3.65076 1.94592,-6.02157zM260.58881,174.22874h5.3343v1.95791h-5.3343v-1.95791M260.76862,181.90054l1.27863,-1.33857c0.61268,0.43953 1.252,0.92834 1.91795,1.46643c0.66595,0.54076 1.28929,1.08418 1.87,1.63026c0.57805,0.54608 1.04022,1.05221 1.38652,1.51838l-1.39851,1.53836c-0.31966,-0.46617 -0.75919,-0.98561 -1.31859,-1.55833c-0.5594,-0.57272 -1.16942,-1.14544 -1.83004,-1.71816c-0.65796,-0.57272 -1.29328,-1.08551 -1.90596,-1.53836M265.28379,174.22874h0.33964l0.35962,-0.03996l1.15876,0.13985c-0.10655,2.61054 -0.36627,4.85082 -0.77917,6.72082c-0.41289,1.87266 -1.00559,3.44166 -1.7781,4.70697c-0.77251,1.26531 -1.75146,2.29089 -2.93686,3.07671c-0.13319,-0.25306 -0.31566,-0.54342 -0.54742,-0.87107c-0.23442,-0.32499 -0.45818,-0.58737 -0.67128,-0.78716c1.02557,-0.57272 1.87799,-1.4318 2.55727,-2.57725c0.67927,-1.14544 1.20804,-2.55727 1.5863,-4.23547c0.38093,-1.67821 0.61801,-3.59616 0.71124,-5.75385v-0.37959M262.70655,170.21303l1.97789,0.19979c-0.11987,1.01225 -0.25972,2.08444 -0.41955,3.21656c-0.15983,1.13212 -0.33964,2.25759 -0.53942,3.37639c-0.19979,1.1188 -0.4089,2.17101 -0.62733,3.15663c-0.2211,0.98561 -0.45152,1.83804 -0.69126,2.55727c-0.19979,-0.13319 -0.45951,-0.27704 -0.77917,-0.43154c-0.31966,-0.15184 -0.60602,-0.28103 -0.85908,-0.38759c0.21311,-0.66595 0.41955,-1.46244 0.61934,-2.38945c0.19979,-0.92435 0.38625,-1.92328 0.5594,-2.9968c0.17315,-1.07086 0.32365,-2.14571 0.45152,-3.22455c0.1252,-1.07885 0.22776,-2.10442 0.30767,-3.07671M267.54138,175.6672h11.00824v1.69819h-11.00824v-1.69819M266.962,178.48419h12.04713v1.73814h-12.04713v-1.73814M269.59918,181.18131h6.77276v1.57831h-6.77276v-1.57831M268.06083,173.38964l1.63825,-0.43953c0.17315,0.37294 0.3463,0.78183 0.51944,1.22669c0.17315,0.44752 0.30634,0.82445 0.39957,1.13079l-1.71816,0.5594c-0.07991,-0.33298 -0.19979,-0.73255 -0.35962,-1.19872c-0.15983,-0.46617 -0.31966,-0.89238 -0.47949,-1.27863M271.55709,173.03002l1.69819,-0.29968c0.11987,0.39957 0.22909,0.83511 0.32765,1.3066c0.10123,0.47416 0.17848,0.87107 0.23175,1.19073l-1.79808,0.39957c-0.02664,-0.33298 -0.08258,-0.74587 -0.16782,-1.23868c-0.08791,-0.49281 -0.18514,-0.94566 -0.29169,-1.35855M277.27098,170.3329l1.2187,1.57831c-0.73255,0.14651 -1.54102,0.2797 -2.42541,0.39957c-0.88705,0.11987 -1.81007,0.21977 -2.76904,0.29968c-0.95898,0.07991 -1.91795,0.13985 -2.87693,0.17981c-0.95898,0.03996 -1.88465,0.07326 -2.77703,0.09989c-0.01332,-0.23974 -0.07059,-0.51279 -0.17182,-0.81912c-0.09856,-0.30634 -0.20112,-0.56606 -0.30767,-0.77917c0.87906,-0.03996 1.78076,-0.08657 2.70511,-0.13985c0.92701,-0.05328 1.8407,-0.11987 2.74107,-0.19979c0.89771,-0.07991 1.75013,-0.17048 2.55727,-0.27171c0.80447,-0.09856 1.50639,-0.21444 2.10575,-0.34763M271.33732,182.36005c0.46617,0.82578 1.0895,1.561 1.87,2.20564c0.77783,0.64731 1.69286,1.18407 2.74507,1.61028c1.05221,0.42621 2.21763,0.74587 3.49626,0.95898c-0.22642,0.21311 -0.45951,0.49281 -0.69925,0.8391c-0.23974,0.3463 -0.43287,0.6593 -0.57938,0.939c-1.99787,-0.42621 -3.71869,-1.14544 -5.16248,-2.15769c-1.44645,-1.01225 -2.58257,-2.3042 -3.40836,-3.87586l1.73814,-0.51944M276.23209,172.41068l1.99787,0.57938c-0.37294,0.61268 -0.75919,1.22802 -1.15876,1.84603c-0.39957,0.62067 -0.76585,1.15077 -1.09883,1.5903l-1.51838,-0.53942c0.21311,-0.31966 0.43021,-0.68327 0.6513,-1.09083c0.21843,-0.4049 0.42754,-0.81779 0.62733,-1.23868c0.19979,-0.41822 0.36627,-0.80048 0.49947,-1.14677M275.93241,181.18131h0.39957l0.33964,-0.05994l1.17874,0.47949c-0.39957,1.42514 -0.98561,2.61987 -1.75812,3.58417c-0.77251,0.96697 -1.68753,1.74613 -2.74507,2.3375c-1.0602,0.59403 -2.22962,1.05754 -3.50825,1.39051c-0.06659,-0.14651 -0.16649,-0.32365 -0.29968,-0.53143c-0.13319,-0.20511 -0.27571,-0.40756 -0.42754,-0.60735c-0.1545,-0.19979 -0.29835,-0.35296 -0.43154,-0.45951c1.21204,-0.25306 2.3042,-0.61934 3.2765,-1.09883c0.9723,-0.47949 1.79808,-1.10548 2.47735,-1.87799c0.67927,-0.77251 1.17874,-1.73148 1.4984,-2.87693v-0.2797M269.8589,176.74605h2.0578c-0.06659,0.82578 -0.15051,1.68487 -0.25173,2.57725c-0.09856,0.89238 -0.24774,1.78476 -0.44752,2.67714c-0.19979,0.89238 -0.47682,1.75812 -0.83111,2.59722c-0.35162,0.8391 -0.79382,1.62759 -1.32658,2.36547c-0.53276,0.74054 -1.19872,1.39717 -1.99787,1.9699c-0.14651,-0.25306 -0.35562,-0.5261 -0.62733,-0.81912c-0.27437,-0.29302 -0.54475,-0.53276 -0.81113,-0.71923c0.73255,-0.49281 1.33857,-1.06286 1.81806,-1.71017c0.47949,-0.64465 0.86974,-1.3399 1.17075,-2.08577c0.29835,-0.74587 0.53143,-1.51571 0.69925,-2.30953c0.16516,-0.79115 0.2837,-1.57299 0.35562,-2.34549c0.07459,-0.77251 0.13852,-1.50506 0.1918,-2.19765zM280.9071,181.22127h17.94083v1.93793h-17.94083v-1.93793M284.88285,174.5484h9.94937v1.75812h-9.94937v-1.75812M284.90283,177.86486h9.96935v1.73814h-9.96935v-1.73814M284.00379,171.15203h12.20696v10.9483h-2.15769v-9.15022h-7.97148v9.15022h-2.07778v-10.9483M291.91534,183.91839l1.81806,-0.79915c0.57272,0.45285 1.16142,0.96563 1.76611,1.53836c0.60735,0.57272 1.17341,1.13479 1.69819,1.6862c0.52744,0.55407 0.9643,1.04422 1.3106,1.47043l-1.87799,0.97895c-0.33298,-0.45285 -0.76185,-0.96963 -1.28663,-1.55034c-0.52744,-0.57805 -1.09083,-1.16009 -1.69019,-1.74613c-0.59936,-0.58604 -1.17874,-1.11215 -1.73814,-1.57831M282.6852,188.37363c-0.03996,-0.15983 -0.09989,-0.35962 -0.17981,-0.59936c-0.07991,-0.23974 -0.15983,-0.49014 -0.23974,-0.7512c-0.07991,-0.25839 -0.16649,-0.48082 -0.25972,-0.66729c0.22642,-0.05328 0.45285,-0.14385 0.67927,-0.27171c0.22642,-0.1252 0.47283,-0.29435 0.73921,-0.50746c0.19979,-0.13319 0.4968,-0.37294 0.89105,-0.71923c0.39158,-0.3463 0.82712,-0.76585 1.3066,-1.25866c0.47949,-0.49281 0.91902,-1.01225 1.31859,-1.55833l2.19765,0.8391c-0.77251,0.86574 -1.59563,1.68753 -2.46936,2.46537c-0.87107,0.7805 -1.71284,1.43713 -2.5253,1.9699v0.03996c0,0 -0.07326,0.0333 -0.21977,0.09989c-0.14651,0.06659 -0.31566,0.14917 -0.50746,0.24774c-0.19446,0.10123 -0.36494,0.21177 -0.51145,0.33165c-0.14651,0.11987 -0.21977,0.23308 -0.21977,0.33964M282.6852,188.37363l-0.01998,-1.47842l1.27863,-0.69925l11.56764,-0.45951c0.03996,0.26638 0.09989,0.56207 0.17981,0.88705c0.07991,0.32765 0.13985,0.59137 0.17981,0.79115c-1.83804,0.09323 -3.42301,0.17581 -4.75492,0.24774c-1.33191,0.07459 -2.45737,0.13852 -3.37639,0.1918c-0.91902,0.05328 -1.67554,0.09989 -2.26957,0.13985c-0.59137,0.03996 -1.0642,0.07592 -1.41848,0.10788c-0.35162,0.03463 -0.62999,0.07192 -0.83511,0.11188c-0.20778,0.03996 -0.38492,0.09323 -0.53143,0.15983zM304.12229,176.02682h11.3279v1.99787h-11.3279v-1.99787M301.20541,180.54199h17.34147v2.03782h-17.34147v-2.03782M308.83725,176.96582h2.27757v9.31005c0,0.61268 -0.08657,1.07485 -0.25972,1.38652c-0.17315,0.31433 -0.48615,0.55807 -0.939,0.73122c-0.45285,0.15983 -1.00559,0.26239 -1.65823,0.30767c-0.65264,0.04795 -1.42514,0.07192 -2.31752,0.07192c-0.03996,-0.21311 -0.11321,-0.45018 -0.21977,-0.71124c-0.10655,-0.25839 -0.21977,-0.51811 -0.33964,-0.77917c-0.11987,-0.25839 -0.23974,-0.48082 -0.35962,-0.66729c0.43953,0.01332 0.88572,0.02664 1.33857,0.03996c0.45285,0.01332 0.85242,0.01598 1.19872,0.00799c0.3463,-0.00533 0.58604,-0.00799 0.71923,-0.00799c0.21311,-0.01332 0.35962,-0.04662 0.43953,-0.09989c0.07991,-0.05328 0.11987,-0.16649 0.11987,-0.33964v-9.25012M301.12549,172.23088h17.40141v4.59509h-2.21763v-2.6172h-13.06604v2.6172h-2.11774v-4.59509M308.11802,170.83237l2.13772,-0.59936c0.23974,0.41289 0.47283,0.86841 0.69925,1.36654c0.22642,0.5008 0.38625,0.93101 0.47949,1.29062l-2.27757,0.69925c-0.07991,-0.35962 -0.21977,-0.80314 -0.41955,-1.33058c-0.19979,-0.52477 -0.40623,-1.00027 -0.61934,-1.42648zM331.01356,184.25802h6.05353v2.0578h-6.05353v-2.0578M330.23439,172.09102h7.87159v15.68324h-2.19765v-13.64542h-3.57618v13.78527h-2.09776v-15.82309M324.44058,172.111h2.13772v16.72213h-2.13772v-16.72213M320.76451,176.14669h8.91048v1.99787h-8.91048v-1.99787M324.30073,176.90588l1.43846,0.47949c-0.21311,0.81247 -0.47283,1.63825 -0.77917,2.47735c-0.30634,0.8391 -0.64598,1.66089 -1.01891,2.46537c-0.37294,0.80714 -0.77251,1.55301 -1.19872,2.23761c-0.42621,0.68727 -0.8724,1.28396 -1.33857,1.79009c-0.10655,-0.31966 -0.26905,-0.66995 -0.48748,-1.05088c-0.2211,-0.37826 -0.42488,-0.70059 -0.61135,-0.96697c0.42621,-0.42621 0.8391,-0.93234 1.23868,-1.51838c0.39957,-0.58604 0.77517,-1.20937 1.1268,-1.87c0.35429,-0.65796 0.67128,-1.33324 0.95098,-2.02584c0.2797,-0.69259 0.50613,-1.36521 0.67927,-2.01784M328.27648,170.39284l1.39851,1.67821c-0.75919,0.26638 -1.60096,0.51279 -2.5253,0.73921c-0.92701,0.22642 -1.87933,0.41955 -2.85695,0.57938c-0.98029,0.15983 -1.92328,0.29302 -2.82898,0.39957c-0.03996,-0.23974 -0.11987,-0.52344 -0.23974,-0.85109c-0.11987,-0.32499 -0.23974,-0.60069 -0.35962,-0.82712c0.87906,-0.11987 1.77544,-0.26638 2.68913,-0.43953c0.91103,-0.17315 1.77677,-0.37027 2.59722,-0.59137c0.81779,-0.21843 1.52637,-0.44752 2.12573,-0.68727M326.39849,178.34434c0.11987,0.10655 0.29568,0.28636 0.52744,0.53942c0.23442,0.25306 0.49147,0.53543 0.77118,0.84709c0.2797,0.31433 0.55541,0.63133 0.82712,0.95098c0.27437,0.31966 0.51811,0.60602 0.73122,0.85908c0.21311,0.25306 0.37294,0.43953 0.47949,0.5594l-1.25866,1.7781c-0.15983,-0.29302 -0.37693,-0.64598 -0.6513,-1.05887c-0.27171,-0.41289 -0.56073,-0.83644 -0.86707,-1.27064c-0.30634,-0.43154 -0.60336,-0.84044 -0.89105,-1.22669c-0.28503,-0.38625 -0.52078,-0.70591 -0.70724,-0.95898zM348.07532,175.70716h1.99787c-0.09323,0.8391 -0.19313,1.72083 -0.29968,2.64517c-0.10655,0.92701 -0.22376,1.84603 -0.35162,2.75705c-0.1252,0.91369 -0.24374,1.77943 -0.35562,2.59722c-0.11454,0.82046 -0.22509,1.54368 -0.33165,2.16968h-2.07778c0.13319,-0.65264 0.26638,-1.39584 0.39957,-2.22962c0.13319,-0.83111 0.26239,-1.70351 0.38759,-2.6172c0.12786,-0.91103 0.24507,-1.82339 0.35162,-2.73708c0.10655,-0.91103 0.19979,-1.77277 0.2797,-2.58524M351.07212,178.02468l1.1188,-0.71923c0.35962,0.2797 0.73255,0.60602 1.1188,0.97895c0.38625,0.37294 0.68593,0.69925 0.89904,0.97895l-1.17874,0.81912c-0.18647,-0.29302 -0.46883,-0.63665 -0.84709,-1.0309c-0.38093,-0.39158 -0.7512,-0.73388 -1.11081,-1.0269M350.5327,182.16027l1.17874,-0.73921c0.39957,0.30634 0.81646,0.6593 1.25066,1.05887c0.43154,0.39957 0.76718,0.75919 1.00692,1.07885l-1.2187,0.8391c-0.22642,-0.30634 -0.55274,-0.67262 -0.97895,-1.09883c-0.42621,-0.42621 -0.8391,-0.8058 -1.23868,-1.13878M348.35503,172.29081h10.32896v1.93793h-10.32896v-1.93793M348.91443,175.70716h7.61187v1.83804h-7.61187v-1.83804M345.55801,179.70289h13.64542v1.93793h-13.64542v-1.93793M347.73569,184.03826h10.9483v1.83804h-10.9483v-1.83804M348.4749,170.19305l2.07778,0.53942c-0.26638,0.82578 -0.5887,1.64757 -0.96697,2.46537c-0.38093,0.82046 -0.7845,1.5903 -1.21071,2.30953c-0.42621,0.71923 -0.85908,1.35189 -1.29861,1.89797c-0.13319,-0.11987 -0.317,-0.25306 -0.55141,-0.39957c-0.23175,-0.14651 -0.46084,-0.29302 -0.68727,-0.43953c-0.22642,-0.14651 -0.42621,-0.26638 -0.59936,-0.35962c0.45285,-0.47949 0.88172,-1.04289 1.28663,-1.69019c0.40756,-0.64465 0.77783,-1.33724 1.11081,-2.07778c0.33298,-0.73788 0.61268,-1.48641 0.8391,-2.2456M355.90696,175.70716h1.99787c0,0 -0.00266,0.05994 -0.00799,0.17981c-0.00799,0.11987 -0.01199,0.24907 -0.01199,0.38759c0,0.14118 -0.00666,0.25839 -0.01998,0.35162c-0.07991,1.90463 -0.15983,3.51891 -0.23974,4.84283c-0.07991,1.32658 -0.16915,2.41608 -0.26771,3.26851c-0.10123,0.85242 -0.21577,1.51838 -0.34363,1.99787c-0.1252,0.47949 -0.27437,0.82578 -0.44752,1.03889c-0.22642,0.30634 -0.46217,0.51545 -0.70724,0.62733c-0.24774,0.11454 -0.53143,0.19845 -0.85109,0.25173c-0.29302,0.03996 -0.66595,0.05994 -1.1188,0.05994c-0.45285,0 -0.92568,-0.01332 -1.41848,-0.03996c-0.01332,-0.26638 -0.06659,-0.56606 -0.15983,-0.89904c-0.09323,-0.33298 -0.21977,-0.626 -0.37959,-0.87906c0.46617,0.03996 0.89238,0.06659 1.27863,0.07991c0.38625,0.01332 0.67262,0.01998 0.85908,0.01998c0.17315,0 0.313,-0.02397 0.41955,-0.07192c0.10655,-0.04529 0.21311,-0.12786 0.31966,-0.24774c0.13319,-0.14651 0.25306,-0.44353 0.35962,-0.89105c0.10655,-0.44486 0.20645,-1.07751 0.29968,-1.89797c0.09323,-0.81779 0.17581,-1.86334 0.24774,-3.13665c0.07459,-1.27064 0.13852,-2.81166 0.1918,-4.62306v-0.41955M341.68216,171.97115l1.19872,-1.45844c0.38625,0.17315 0.80181,0.37959 1.24667,0.61934c0.44752,0.23974 0.87506,0.48615 1.28263,0.73921c0.4049,0.25306 0.73388,0.48615 0.98695,0.69925l-1.25866,1.61827c-0.23974,-0.21311 -0.55541,-0.45685 -0.94699,-0.73122c-0.39424,-0.27171 -0.81513,-0.53809 -1.26265,-0.79915c-0.44486,-0.25839 -0.86041,-0.48748 -1.24667,-0.68727M340.56335,177.68505l1.15876,-1.43846c0.38625,0.17315 0.78849,0.3756 1.20671,0.60735c0.42088,0.23442 0.82046,0.4715 1.19872,0.71124c0.38093,0.23974 0.69126,0.46617 0.93101,0.67927l-1.23868,1.63825c-0.21311,-0.22642 -0.50613,-0.47283 -0.87906,-0.73921c-0.37294,-0.26638 -0.76984,-0.5261 -1.19073,-0.77917c-0.41822,-0.25306 -0.8138,-0.47949 -1.18673,-0.67927M341.12275,187.37469c0.26638,-0.51944 0.56207,-1.13212 0.88705,-1.83804c0.32765,-0.70591 0.6553,-1.45844 0.98295,-2.25759c0.32499,-0.79915 0.62733,-1.58497 0.90703,-2.35748l1.63825,1.15876c-0.23974,0.70591 -0.50346,1.4318 -0.79115,2.17767c-0.28503,0.74587 -0.57672,1.48508 -0.87506,2.21763c-0.30101,0.73255 -0.59803,1.41848 -0.89105,2.0578zM367.59447,180.06251h10.1092v8.75065h-2.15769v-6.77276h-5.87372v6.85268h-2.07778v-8.83056M368.81316,185.7764h7.73174v1.99787h-7.73174v-1.99787M369.29265,171.15203h6.13345v1.99787h-6.13345v-1.99787M368.5934,171.15203h2.07778v2.29754c0,0.73255 -0.0959,1.50106 -0.28769,2.30554c-0.19446,0.80714 -0.55541,1.58364 -1.08284,2.32951c-0.52477,0.74587 -1.29328,1.39851 -2.30554,1.95791c-0.06659,-0.14651 -0.19046,-0.32632 -0.3716,-0.53942c-0.17848,-0.21311 -0.36095,-0.42355 -0.54742,-0.63133c-0.18647,-0.20511 -0.3463,-0.36095 -0.47949,-0.4675c0.87906,-0.46617 1.5317,-0.98295 1.95791,-1.55034c0.42621,-0.56473 0.70591,-1.14677 0.8391,-1.74613c0.13319,-0.59936 0.19979,-1.17208 0.19979,-1.71816v-2.23761M374.38721,171.15203h2.09776v5.41421c0,0.30634 0.01732,0.5261 0.05194,0.6593c0.03197,0.13319 0.1212,0.19979 0.26771,0.19979c0.07991,0 0.17981,0 0.29968,0c0.11987,0 0.24374,0 0.3716,0c0.1252,0 0.22776,0 0.30767,0c0.13319,0 0.30234,-0.01065 0.50746,-0.03197c0.20778,-0.01865 0.37826,-0.04795 0.51145,-0.08791c0.01332,0.26638 0.03063,0.54875 0.05194,0.84709c0.01865,0.30101 0.04795,0.57805 0.08791,0.83111c-0.13319,0.05328 -0.30234,0.08924 -0.50746,0.10788c-0.20778,0.02131 -0.41156,0.03197 -0.61135,0.03197c-0.10655,0 -0.24374,0 -0.41156,0c-0.16516,0 -0.33165,0 -0.49947,0c-0.16516,0 -0.30101,0 -0.40756,0c-0.58604,0 -1.03223,-0.09323 -1.33857,-0.2797c-0.30634,-0.18647 -0.51279,-0.47283 -0.61934,-0.85908c-0.10655,-0.38625 -0.15983,-0.8724 -0.15983,-1.45844v-5.37426M361.40109,172.05107l1.35855,-1.37853c0.41289,0.21311 0.85642,0.46217 1.33058,0.7472c0.4715,0.28769 0.92035,0.57405 1.34656,0.85908c0.42621,0.28769 0.77917,0.55807 1.05887,0.81113l-1.43846,1.53836c-0.25306,-0.25306 -0.58604,-0.53276 -0.99893,-0.8391c-0.41289,-0.30634 -0.85242,-0.61268 -1.31859,-0.91902c-0.46617,-0.30634 -0.91236,-0.57938 -1.33857,-0.81912M360.3622,177.46528l1.33857,-1.39851c0.41289,0.19979 0.85242,0.42888 1.31859,0.68727c0.46617,0.26106 0.91902,0.52744 1.35855,0.79915c0.43953,0.27437 0.79915,0.52477 1.07885,0.7512l-1.41848,1.55833c-0.26638,-0.23974 -0.60602,-0.50346 -1.01891,-0.79115c-0.41289,-0.28503 -0.85509,-0.57139 -1.32658,-0.85908c-0.47416,-0.28503 -0.91769,-0.5341 -1.33058,-0.7472M360.84168,187.11497c0.37294,-0.49281 0.79249,-1.07885 1.25866,-1.75812c0.46617,-0.67927 0.94166,-1.40516 1.42648,-2.17767c0.48748,-0.77251 0.94432,-1.53836 1.37054,-2.29754l1.55833,1.53836c-0.37294,0.67927 -0.77517,1.37853 -1.20671,2.09776c-0.4342,0.71923 -0.86707,1.4318 -1.29861,2.13772c-0.4342,0.70591 -0.87107,1.37853 -1.3106,2.01784zM382.09897,176.48633h2.13772v3.81592c0,0.626 -0.0293,1.30128 -0.08791,2.02584c-0.06127,0.72722 -0.16782,1.46643 -0.31966,2.21763c-0.1545,0.75386 -0.37826,1.47975 -0.67128,2.17767c-0.29302,0.70059 -0.67262,1.33058 -1.13878,1.88998c-0.10655,-0.14651 -0.26638,-0.31033 -0.47949,-0.49147c-0.21311,-0.17848 -0.43553,-0.35162 -0.66729,-0.51944c-0.23442,-0.16516 -0.43154,-0.28769 -0.59137,-0.36761c0.5594,-0.67927 0.96563,-1.42514 1.2187,-2.23761c0.25306,-0.81247 0.41556,-1.62893 0.48748,-2.44938c0.07459,-0.81779 0.11188,-1.57965 0.11188,-2.28556v-3.77597M383.27771,176.48633h15.28367v1.89797h-15.28367v-1.89797M385.57525,179.64295h12.32683v1.81806h-12.32683v-1.81806M384.65624,183.13922h14.20482v1.89797h-14.20482v-1.89797M390.49,180.20236h2.25759v8.67073h-2.25759v-8.67073M382.1589,170.95224h2.17767v2.37746h11.00824v-2.37746h2.25759v4.27543h-15.4435v-4.27543M388.65197,170.21303h2.27757v4.01571h-2.27757z" fill="#ffffff" stroke-width="1"/><path d="M240,196v-32h208v32z" fill="none" stroke-width="0"/></g></g></svg>