<svg version="1.1" xmlns="http://www.w3.org/2000/svg" xmlns:xlink="http://www.w3.org/1999/xlink" width="74.59471" height="18.47035" viewBox="0,0,74.59471,18.47035"><g transform="translate(-243.77541,-170.64972)"><g fill="#ffffff" stroke="none" stroke-miterlimit="10"><path d="M254.63595,173.51547h6.26862v2.06098h-6.26862v-2.06098M254.63595,182.54454h6.59253v2.06098h-6.59253v-2.06098M254.50257,178.03001h5.98282v2.0021h-5.98282v-2.0021M244.21364,173.51547h5.84944v2.06098h-5.84944v-2.06098M244.46134,178.01038h5.50648v2.02173h-5.50648v-2.02173M253.64516,170.88526h2.134v18.2348h-2.134v-18.2348M249.18663,170.86563h2.11495v18.21518h-2.11495v-18.21518M243.77541,182.62306h6.61159v2.06098h-6.61159zM273.55614,171.61151h1.92441v16.97859h-1.92441v-16.97859M277.61455,171.2582h1.96252v17.84224h-1.96252v-17.84224M269.57394,171.27783h1.92441v6.65404c0,1.28239 -0.05335,2.58048 -0.16005,3.89428c-0.10924,1.31641 -0.34169,2.59226 -0.69736,3.82754c-0.35567,1.2379 -0.92092,2.39336 -1.69577,3.46638c-0.12702,-0.14394 -0.29215,-0.29181 -0.49539,-0.4436c-0.20324,-0.14918 -0.41537,-0.29966 -0.63639,-0.45145c-0.22356,-0.14918 -0.42426,-0.26302 -0.60209,-0.34153c0.72404,-0.95525 1.25118,-1.98247 1.58145,-3.08166c0.33026,-1.09919 0.54366,-2.2311 0.6402,-3.39572c0.094,-1.16462 0.141,-2.32924 0.141,-3.49386v-6.63441M267.95439,176.45973l1.54334,0.49071c-0.08892,0.56268 -0.19943,1.15153 -0.33153,1.76656c-0.13465,0.61502 -0.29724,1.21042 -0.48777,1.78619c-0.19054,0.57577 -0.41918,1.08611 -0.68593,1.53102l-1.50523,-0.86365c0.25405,-0.39257 0.4738,-0.85056 0.65925,-1.37399c0.18291,-0.52343 0.34424,-1.07302 0.48396,-1.64879c0.13973,-0.57577 0.2477,-1.13845 0.32391,-1.68804M271.06012,177.4019l1.44807,-0.56922c0.20324,0.43183 0.39759,0.89637 0.58304,1.39362c0.18291,0.49725 0.34424,0.98404 0.48396,1.46035c0.13973,0.47893 0.23499,0.90814 0.2858,1.28762l-1.52429,0.64774c-0.05081,-0.39257 -0.13973,-0.83094 -0.26675,-1.3151c-0.12702,-0.48417 -0.27564,-0.98142 -0.44585,-1.49176c-0.17275,-0.51034 -0.36075,-0.98142 -0.56399,-1.41325M274.83273,177.1271l1.46712,-0.68699c0.27945,0.458 0.5462,0.94478 0.80025,1.46035c0.25405,0.51819 0.48269,1.03246 0.68593,1.54279c0.20324,0.51034 0.35567,0.96833 0.45729,1.37399l-1.56239,0.76551c-0.10162,-0.40565 -0.2477,-0.87019 -0.43823,-1.39362c-0.19054,-0.52343 -0.40648,-1.05077 -0.64782,-1.58205c-0.24135,-0.52866 -0.49539,-1.02199 -0.76214,-1.47998M263.26721,172.49479l1.20037,-1.53102c0.33026,0.17011 0.69609,0.37294 1.09749,0.60848c0.39885,0.23554 0.78628,0.47108 1.16227,0.70662c0.37345,0.23554 0.6745,0.45145 0.90314,0.64774l-1.25754,1.70767c-0.21594,-0.20937 -0.50174,-0.44229 -0.85741,-0.69877c-0.35567,-0.25386 -0.73293,-0.5051 -1.13178,-0.75373c-0.4014,-0.24863 -0.77357,-0.47762 -1.11654,-0.68699M262.50507,177.75521l1.14321,-1.53102c0.34296,0.17011 0.71768,0.36247 1.12416,0.57708c0.40648,0.21722 0.79771,0.43706 1.1737,0.65951c0.37345,0.22245 0.6872,0.42528 0.94125,0.60848l-1.20037,1.68804c-0.22864,-0.19628 -0.52715,-0.4122 -0.89552,-0.64774c-0.36837,-0.23554 -0.75198,-0.47501 -1.15084,-0.7184c-0.4014,-0.24078 -0.77993,-0.45276 -1.13559,-0.63596M262.84803,187.80496c0.25405,-0.51034 0.52715,-1.11228 0.8193,-1.80581c0.29215,-0.69354 0.58812,-1.43026 0.8879,-2.21016c0.29724,-0.77729 0.56653,-1.53887 0.80787,-2.28475l1.65766,1.07956c-0.21594,0.69354 -0.45347,1.4067 -0.7126,2.1395c-0.26167,0.73279 -0.52842,1.4525 -0.80025,2.15913c-0.27437,0.70662 -0.54493,1.37399 -0.81168,2.0021zM282.68279,174.22209h15.64298v9.67681h-2.134v-7.5962h-11.45119v7.69434h-2.05779v-9.77495M283.74979,180.79761h13.64235v2.08061h-13.64235v-2.08061M289.3706,170.78712h2.15305v18.31332h-2.15305zM311.72043,171.74891h4.97298v1.90396h-3.16289v15.38868h-1.81009v-17.29264M316.27423,171.74891h0.38107l0.30486,-0.07851l1.40996,0.90291c-0.31756,0.94216 -0.67323,1.93929 -1.067,2.99137c-0.39377,1.0547 -0.77485,2.01388 -1.14321,2.87753c0.78755,0.90291 1.29818,1.743 1.53191,2.52029c0.23626,0.7799 0.3544,1.497 0.3544,2.15128c0,0.66737 -0.07367,1.23659 -0.22102,1.70767c-0.14481,0.47108 -0.38869,0.83094 -0.73166,1.07956c-0.16513,0.11777 -0.35567,0.21199 -0.57161,0.28265c-0.21594,0.07328 -0.44458,0.12955 -0.68593,0.1688c-0.21594,0.02617 -0.45729,0.04187 -0.72404,0.04711c-0.26675,0.00785 -0.5335,0.00523 -0.80025,-0.00785c-0.0127,-0.2748 -0.05716,-0.60194 -0.13337,-0.98142c-0.07621,-0.37948 -0.19689,-0.70662 -0.36202,-0.98142c0.24135,0.02617 0.4611,0.04187 0.65925,0.04711c0.19562,0.00785 0.37599,0.00523 0.54112,-0.00785c0.12702,0 0.25405,-0.01701 0.38107,-0.05103c0.12702,-0.03141 0.23499,-0.07982 0.32391,-0.14525c0.16513,-0.10468 0.28199,-0.27872 0.35059,-0.52212c0.07113,-0.24078 0.1067,-0.53128 0.1067,-0.8715c0,-0.56268 -0.13337,-1.19733 -0.40012,-1.90396c-0.26675,-0.70662 -0.7812,-1.46559 -1.54334,-2.2769c0.19054,-0.49725 0.38488,-1.03115 0.58304,-1.60168c0.19562,-0.56792 0.38615,-1.14368 0.57161,-1.7273c0.18291,-0.581 0.35059,-1.12667 0.50301,-1.63701c0.15243,-0.51034 0.27945,-0.94216 0.38107,-1.29548v-0.68699M301.37434,173.00513h9.16477v1.88433h-9.16477v-1.88433M300.87895,178.28518h10.07934v1.90396h-10.07934v-1.90396M302.40324,175.32128l1.75293,-0.45145c0.26675,0.47108 0.50429,0.99058 0.7126,1.5585c0.21086,0.57053 0.36075,1.06517 0.44966,1.48391l-1.82914,0.52997c-0.07621,-0.43183 -0.21594,-0.93955 -0.41918,-1.52317c-0.20324,-0.581 -0.42553,-1.11359 -0.66687,-1.59775M307.79539,174.81094l2.01968,0.45145c-0.17783,0.44491 -0.36202,0.89637 -0.55255,1.35436c-0.19054,0.458 -0.37472,0.89637 -0.55255,1.3151c-0.17783,0.41874 -0.35567,0.79168 -0.5335,1.11882l-1.71482,-0.43183c0.16513,-0.35331 0.3328,-0.75242 0.50301,-1.19733c0.17275,-0.44491 0.33153,-0.89637 0.47634,-1.35436c0.14735,-0.458 0.26548,-0.87674 0.3544,-1.25622M302.87957,186.3132h6.24957v1.84507h-6.24957v-1.84507M301.81257,181.72015h8.36452v7.22326h-2.01968v-5.33893h-4.42043v5.4567h-1.92441v-7.34103M304.42291,171.17969l1.8482,-0.52997c0.20324,0.41874 0.40266,0.87674 0.59828,1.37399c0.19816,0.49725 0.34169,0.92254 0.43061,1.27585l-1.96252,0.62811c-0.07621,-0.35331 -0.2007,-0.78906 -0.37345,-1.30725c-0.17021,-0.51557 -0.35059,-0.99581 -0.54112,-1.44073z"/></g></g></svg>