<svg version="1.1" xmlns="http://www.w3.org/2000/svg" xmlns:xlink="http://www.w3.org/1999/xlink" width="224" height="76" viewBox="0,0,224,76"><g transform="translate(-128,-142)"><g stroke-miterlimit="10"><path d="M128,218v-76h224v76z" fill-opacity="0" fill="#000000" fill-rule="nonzero" stroke="none" stroke-width="1" stroke-linecap="round" stroke-linejoin="round"/><path d="M280.45568,194.956h3.1172l2.5469,5.3906c0.39062,0.83333 0.72655,1.77863 1.0078,2.8359h0.0625c0.27604,-1.04687 0.61197,-1.99217 1.0078,-2.8359l2.5469,-5.3906h3.1172v12.961h-2.0156v-6.7656c0,-2.1146 0.03123,-3.65107 0.0937,-4.6094h-0.0781c-0.47917,1.2708 -0.9427,2.41143 -1.3906,3.4219l-2.5469,5.7812h-1.5312l-2.5469,-5.7812c-0.52604,-1.19793 -0.98957,-2.33857 -1.3906,-3.4219h-0.0781c0.06247,0.9948 0.0937,2.53127 0.0937,4.6094v6.7656h-2.0156z" fill="#ffffff" fill-rule="nonzero" stroke="none" stroke-width="1" stroke-linecap="butt" stroke-linejoin="miter"/><path d="M334.001,210v-22h8v22z" fill="#ffffff" fill-rule="evenodd" stroke="none" stroke-width="1" stroke-linecap="butt" stroke-linejoin="miter"/><path d="M264.001,210v-17h8v17z" fill="#ffffff" fill-rule="evenodd" stroke="none" stroke-width="1" stroke-linecap="butt" stroke-linejoin="miter"/><path d="M203.87542,203.08921h-3.51838c0.47298,0.7143 1.02559,1.35861 1.65783,1.93294c0.63225,0.57433 1.37308,1.09799 2.22251,1.57096l-0.60812,0.98457c-1.52511,-0.92665 -2.80408,-2.17666 -3.83691,-3.75004v4.61878h-1.04248v-4.48846c-0.50194,0.72394 -1.07385,1.37791 -1.71575,1.96189c-0.6419,0.58398 -1.40204,1.14142 -2.28043,1.67231l-0.62259,-0.91217c0.96526,-0.54055 1.76884,-1.09316 2.41074,-1.65783c0.6419,-0.56468 1.21864,-1.20899 1.73023,-1.93294h-3.38807v-1.01353h3.86587v-1.72299h1.04248v1.72299h4.08305zM202.54336,198.77449v-1.63612h-6.44312v1.62164h-0.99905v-2.63517h8.45569v2.64964zM191.6552,207.95413l1.54925,-4.93731l0.53572,0.13031l0.4778,0.15927l-1.54925,4.96627zM198.11281,198.09398l0.65155,0.76738c-0.917,0.88804 -1.99809,1.75195 -3.24328,2.59173l-0.57916,-0.88321c0.56951,-0.34749 1.1366,-0.74084 1.70128,-1.18003c0.56468,-0.43919 1.05455,-0.87115 1.46961,-1.29586zM199.76341,198.89032l0.53572,-0.81082c0.54055,0.34749 1.66025,1.13418 3.35911,2.36006l-0.59364,0.83978c-0.49228,-0.37645 -1.07385,-0.81082 -1.74471,-1.30311c-0.67085,-0.49228 -1.18969,-0.85426 -1.55649,-1.08592zM194.4786,201.1056l-0.65155,0.88321c-0.35715,-0.32819 -0.79634,-0.7143 -1.31758,-1.15832c-0.52124,-0.44402 -0.94113,-0.78669 -1.25967,-1.028l0.63707,-0.8253c0.79151,0.60812 1.65543,1.31758 2.59173,2.1284zM194.84057,197.67409l-0.66603,0.91217c-0.37645,-0.34749 -0.806,-0.72636 -1.28862,-1.1366c-0.48263,-0.41024 -0.86873,-0.72636 -1.15832,-0.94837l0.63707,-0.81082c1.05214,0.80117 1.87743,1.46237 2.4759,1.98361z" fill="#ffffff" fill-rule="evenodd" stroke="#ffffff" stroke-width="0.5" stroke-linecap="round" stroke-linejoin="miter"/><path d="M208.65337,200.07759h-2.28767v1.23071c0,1.19693 -0.04585,2.19356 -0.13755,2.9899c-0.0917,0.79634 -0.23407,1.49857 -0.42713,2.10668c-0.19305,0.60812 -0.46333,1.27897 -0.81082,2.01257l-0.95561,-0.56468c0.34749,-0.74325 0.60812,-1.39963 0.78186,-1.96913c0.17374,-0.56951 0.29923,-1.22588 0.37645,-1.96913c0.07722,-0.74325 0.11583,-1.71816 0.11583,-2.92474v-4.37264h5.38616c-0.08687,-0.3668 -0.1834,-0.70947 -0.28958,-1.028c-0.01931,-0.06757 -0.03861,-0.13272 -0.05792,-0.19547c-0.01931,-0.06274 -0.03378,-0.11825 -0.04344,-0.16651l1.21623,-0.14479c0.17374,0.57916 0.32337,1.09075 0.44885,1.53477h4.76357v0.97009h-2.38902v1.5782h2.34559v0.91217h-2.34559v2.15736h-5.69022zM216.86291,207.24466l-0.34749,1.08592c-1.13901,-0.1834 -2.12357,-0.38369 -2.9537,-0.60088c-0.83012,-0.21719 -1.58303,-0.48022 -2.25871,-0.7891c-1.27414,0.55985 -2.89096,1.05214 -4.85044,1.47685l-0.43437,-1.01353c1.6699,-0.28958 3.05988,-0.63707 4.16993,-1.04248c-0.90735,-0.55985 -1.82917,-1.32241 -2.76547,-2.28767v-0.89769h7.84757v0.91217c-0.74325,0.90735 -1.66025,1.66025 -2.75099,2.25871c1.06179,0.3668 2.50968,0.66603 4.34368,0.89769zM213.88025,204.07378h-4.96627c0.75291,0.77221 1.56372,1.37067 2.43246,1.79539c1.01353,-0.48263 1.85813,-1.08109 2.53381,-1.79539zM209.68137,197.58722v1.5782h3.60525v-1.5782zM209.68137,200.07759v1.24519h3.60525v-1.24519zM206.36569,199.16542h2.28767v-1.5782h-2.28767z" fill="#ffffff" fill-rule="evenodd" stroke="#ffffff" stroke-width="0.5" stroke-linecap="round" stroke-linejoin="miter"/></g></g></svg>