<svg version="1.1" xmlns="http://www.w3.org/2000/svg" xmlns:xlink="http://www.w3.org/1999/xlink" width="224" height="68" viewBox="0,0,224,68"><g transform="translate(-128,-146)"><g stroke-miterlimit="10"><path d="M128,214v-68h224v68z" fill="none" fill-rule="nonzero" stroke="none" stroke-width="1" stroke-linecap="butt"/><path d="M128,214v-66h224v66z" fill="#1d2a41" fill-rule="nonzero" stroke="none" stroke-width="1" stroke-linecap="butt"/><g fill-rule="evenodd" stroke="none" stroke-width="1" stroke-linecap="butt"><path d="M148,166h16c5.54,0 10,4.46 10,10v16c0,5.54 -4.46,10 -10,10h-26v-26c0,-5.54 4.46,-10 10,-10z" fill="#7cc3ff"/><path d="M155.6783,172.415c0.48371,-0.00266 0.93163,0.25463 1.1732,0.6739l10.879,18.85c0.24033,0.41661 0.24021,0.92985 -0.00031,1.34634c-0.24052,0.4165 -0.68489,0.67296 -1.16569,0.67276h-21.756c-0.4808,0.0002 -0.92517,-0.25626 -1.16569,-0.67276c-0.24052,-0.4165 -0.24064,-0.92973 -0.00031,-1.34634l10.879,-18.85c0.23858,-0.4141 0.67875,-0.6706 1.1565,-0.6739zM151.14347,184.3217c1.8119,-1.0471 3.4584,-1.5132 4.8505,-1.3834c1.4265,0.1328 2.57736,0.907 3.2831,2.2317c0.05279,0.0998 0.03045,0.22276 -0.05407,0.29761c-0.08452,0.07485 -0.20928,0.08216 -0.30196,0.01769c-1.1899,-0.83 -2.13049,-0.6246 -2.6881,0.012c-0.35344,0.4034 -0.43467,0.91 -0.28674,1.4122c0.14792,0.5022 0.53654,0.9928 1.1445,1.3094c1.3885,0.723 3.7137,0.864 5.5697,0.3847c0.01271,-0.001 0.02549,-0.001 0.0382,0l-7.0106,-12.148z" fill="#093255"/></g><path d="M192.25649,187.25831l0.1255,1.56863l-2.46797,0.35555v4.07842h-1.50587v-3.84835l-3.74377,0.54379l-0.16731,-1.56862l3.91108,-0.56471v-3.17907h-3.45096v-1.52679c0.50196,-1.18518 1.03877,-2.7538 1.61046,-4.70585h-1.92417v-1.52679h2.36338c0.25098,-0.94815 0.495,-1.89628 0.73203,-2.84443l1.38038,0.2719c-0.18127,0.87842 -0.39041,1.73594 -0.62744,2.57254h3.7856v1.52679h-4.2039c-0.51591,1.82657 -1.02483,3.40216 -1.52679,4.72677h1.90325v-3.74377h1.46404v3.74377h1.94509v1.50587h-1.94509v2.94901zM201.9401,185.02041v1.58954h-3.72285v4.16207h4.81043v1.50587h-11.31496v-1.50587h4.95683v-4.16207h-3.76469v-1.58954zM193.03034,184.05833l-0.85752,-1.4013c3.1233,-1.53376 5.47971,-3.40216 7.06925,-5.60519h-6.23265v-1.56863h8.30323v1.48496c-0.72506,1.04575 -1.56862,2.04269 -2.53071,2.99084l0.81568,0.50196c1.68714,1.01786 2.90717,1.77776 3.66011,2.27973l-0.8366,1.33856c-1.39432,-0.9342 -2.9978,-1.95205 -4.81043,-3.05358c-1.32461,1.11546 -2.85141,2.12635 -4.58038,3.03267z" fill="#ffffff" fill-rule="evenodd" stroke="#ffffff" stroke-width="0.5" stroke-linecap="round"/><path d="M224.17267,191.75502l-0.85752,1.44313c-1.14335,-1.26885 -2.07755,-2.56556 -2.8026,-3.89017c-0.75294,1.26885 -1.84052,2.61436 -3.26273,4.03659l-0.96208,-1.21307c1.51982,-1.38038 2.68409,-2.83745 3.4928,-4.37122c-0.68322,-1.64531 -1.16427,-3.68102 -1.44313,-6.10715c-0.20915,0.44619 -0.47407,0.94815 -0.79476,1.50587l-0.77385,-1.38038c0.58562,-1.04575 1.11197,-2.25184 1.57908,-3.61828c0.46709,-1.36644 0.81917,-2.67014 1.0562,-3.91109l1.38038,0.1464c-0.20915,1.08758 -0.50892,2.22395 -0.89933,3.40913h3.97383v1.33856h-0.8366c-0.13943,1.95206 -0.33812,3.60085 -0.59608,4.94638c-0.25795,1.34553 -0.63093,2.57601 -1.11894,3.69148c0.69717,1.43616 1.65227,2.76077 2.86534,3.97383zM215.66029,179.20606v-3.45096h1.21307v4.78952h-6.42088v-4.78952h1.21307v3.45096h1.35947v-5.06141h1.2549v5.06141zM215.9531,189.3498l1.50587,-1.31765l0.39738,1.21307l-2.76077,2.3843l-0.79477,-1.02483c0.22309,-0.22309 0.33464,-0.47407 0.33464,-0.75294v-2.92809h-2.36338v1.08758c0,1.07364 -0.1255,1.95554 -0.37648,2.64574c-0.25098,0.69019 -0.76688,1.48845 -1.5477,2.39476l-1.02484,-1.04575c0.47407,-0.46013 0.82266,-0.87494 1.04575,-1.24444c0.22309,-0.3695 0.37995,-0.78082 0.47058,-1.23398c0.09063,-0.45316 0.13595,-1.0562 0.13595,-1.80914v-2.15423h4.97775zM208.86295,179.43612l1.15031,0.66928c-0.29281,0.7111 -0.71111,1.53376 -1.2549,2.46796v10.60387h-1.4013v-8.36597c-0.48801,0.72506 -1.05272,1.47102 -1.6941,2.2379l-0.58563,-1.50587c0.66928,-0.78082 1.35599,-1.73594 2.06013,-2.86534c0.70414,-1.1294 1.2793,-2.21001 1.72548,-3.24181zM221.76745,179.14332h-2.34247l-0.1255,0.31373c0.16731,2.46796 0.57864,4.65009 1.23398,6.54638c0.33464,-0.92026 0.59609,-1.93115 0.78431,-3.03267c0.18823,-1.10152 0.33811,-2.37733 0.44966,-3.82744zM208.98843,174.39563l1.21307,0.79477c-0.46013,0.86449 -1.04575,1.80565 -1.75686,2.82352c-0.7111,1.01786 -1.41524,1.9172 -2.1124,2.69802l-1.00392,-1.08757c0.66928,-0.73899 1.34553,-1.59651 2.02875,-2.57254c0.68322,-0.97603 1.22701,-1.86144 1.63136,-2.6562zM210.43156,183.7446v-1.35948h6.39996v1.35948z" fill="#ffffff" fill-rule="evenodd" stroke="#ffffff" stroke-width="0.5" stroke-linecap="round"/><path d="M244.85753,184.0165v1.42221h-2.15423l-0.1255,3.24181h1.88234v1.44312h-1.92417l-0.02091,0.37648c-0.04183,0.64139 -0.15686,1.13638 -0.3451,1.48496c-0.18823,0.34858 -0.48104,0.59608 -0.87842,0.74248c-0.39738,0.1464 -0.95163,0.21961 -1.66274,0.21961h-3.11632l-0.31373,-1.46405h2.92809c0.69717,0 1.1817,-0.09412 1.45359,-0.28235c0.27189,-0.18823 0.42178,-0.53333 0.44966,-1.03529v-0.04184h-9.3908l0.52287,-4.68494h-1.63135v-1.42221h1.77777l0.46013,-4.16207c-0.41829,0.52985 -0.73899,0.92026 -0.96208,1.17124l-1.06666,-1.12941c0.76688,-0.85053 1.49542,-1.8196 2.18561,-2.90717c0.69019,-1.08758 1.25141,-2.1403 1.68364,-3.15815l1.4013,0.48105c-0.23703,0.54379 -0.50892,1.1085 -0.81568,1.6941h9.16073v1.42221h-9.9555c-0.44619,0.73899 -0.85054,1.3525 -1.21307,1.84052h9.72544l-0.16731,4.74769zM233.24974,188.68052h7.8431l0.04183,-0.77385c0.05577,-0.94815 0.09064,-1.7708 0.10458,-2.46796h-7.61303zM241.4484,180.69102h-7.27839l-0.37648,3.32548h7.50846c0.0976,-1.91023 0.1464,-3.01872 0.1464,-3.32548zM228.1465,193.1354l-1.50587,-0.46013l2.02875,-7.19474l1.42221,0.43922c-0.11155,0.39041 -0.7111,2.60042 -1.79868,6.63002zM230.63538,182.17598l-0.89933,1.31765c-1.70109,-1.47799 -2.83049,-2.42613 -3.38822,-2.84444l0.89934,-1.21307zM231.221,177.17731l-0.85752,1.23398c-1.01786,-0.8366 -2.1403,-1.72199 -3.3673,-2.6562l0.89934,-1.19215c0.78082,0.58562 1.88932,1.45708 3.32548,2.61436zM239.12684,187.55112l-0.87842,1.08758c-0.30675,-0.27886 -0.72853,-0.62744 -1.26535,-1.04574c-0.53682,-0.41829 -1.01438,-0.78082 -1.43267,-1.08758l0.79477,-1.04575c0.96208,0.69717 1.88932,1.39432 2.78168,2.09149zM235.92686,181.79951l0.79477,-1.06666c1.22701,0.89237 2.11938,1.57559 2.6771,2.04966l-0.8366,1.1294c-0.75294,-0.64139 -1.63136,-1.34553 -2.63527,-2.11242z" fill="#ffffff" fill-rule="evenodd" stroke="#ffffff" stroke-width="0.5" stroke-linecap="round"/><path d="M265.39598,175.08582v1.44313h-8.28232l-0.94117,2.57254h8.15682v14.11757h-1.54771v-1.4013h-12.71628v1.4013h-1.50587v-14.11757h5.87709c0.43224,-1.14335 0.73899,-2.00087 0.92026,-2.57254h-7.90584v-1.44313zM252.86795,190.43738v-9.89276h-2.8026v9.89276zM259.99993,180.54462v9.89276h2.78169v-9.89276zM258.49406,190.43738v-2.3843h-4.16206v2.3843zM254.33199,180.54462v2.36338h4.16206v-2.36338zM254.33199,184.28839v2.36338h4.16206v-2.36338z" fill="#ffffff" fill-rule="evenodd" stroke="#ffffff" stroke-width="0.5" stroke-linecap="round"/><path d="M286.52005,191.67136l-0.75293,1.50587c-2.14727,-1.01786 -3.86229,-2.07058 -5.14507,-3.15815c-1.38038,1.11546 -3.19998,2.20303 -5.45879,3.26272l-0.79477,-1.44312c2.14727,-0.92026 3.86926,-1.88234 5.16598,-2.88625c-1.28278,-1.39432 -2.27276,-3.13724 -2.96992,-5.22873h-0.87842c-0.02788,1.43616 -0.11851,2.6318 -0.2719,3.58692c-0.15338,0.95511 -0.42527,1.88932 -0.81568,2.8026c-0.39041,0.91329 -0.96208,1.96251 -1.71502,3.14769l-1.31764,-0.81569c0.78082,-1.1573 1.35598,-2.1856 1.72548,-3.08495c0.3695,-0.89934 0.617,-1.88583 0.74248,-2.95946c0.12548,-1.07364 0.18823,-2.52374 0.18823,-4.35031v-5.16598h5.31239v-2.82352h1.52679v2.82352h4.95683v1.44313l-0.94116,2.63527l-1.44313,-0.39738l0.81568,-2.17515h-3.38822v3.82743h3.82744v1.48496c-0.36253,1.07364 -0.78779,2.03572 -1.27581,2.88625c-0.48801,0.85053 -1.1085,1.65228 -1.86144,2.40522c1.14335,0.9342 2.73289,1.82658 4.76861,2.67711zM270.79203,185.12498l1.48496,0.50195c-0.11155,0.41829 -0.45665,1.48845 -1.03529,3.21044c-0.57864,1.72199 -1.02832,3.03615 -1.34902,3.94247l-1.48496,-0.50196c0.20915,-0.55772 0.63093,-1.77777 1.26535,-3.66011c0.63442,-1.88234 1.00741,-3.0466 1.11896,-3.49279zM275.68613,182.21781h3.84835v-3.82743h-3.84835zM283.21549,183.72368h-5.06141c0.6135,1.72897 1.45009,3.14422 2.50979,4.24573c0.62744,-0.62744 1.14335,-1.28278 1.54771,-1.966c0.40436,-0.68322 0.73899,-1.44313 1.00391,-2.27973zM272.63254,182.21781l-0.89934,1.38039c-1.18518,-0.96208 -2.41219,-1.93812 -3.68102,-2.92809l0.81569,-1.29673c1.7429,1.29673 2.9978,2.24486 3.76468,2.84443zM273.51098,177.5747l-0.87842,1.29673c-1.51982,-1.26885 -2.70499,-2.23093 -3.55554,-2.88626l0.87842,-1.23398c0.54379,0.41829 1.16775,0.90632 1.87188,1.46404c0.70413,0.55773 1.26535,1.01089 1.68365,1.35948z" fill="#ffffff" fill-rule="evenodd" stroke="#ffffff" stroke-width="0.5" stroke-linecap="round"/><path d="M301.8716,178.16031h4.89409c-0.04183,1.46405 -0.10109,3.40216 -0.17778,5.81435c-0.07668,2.41219 -0.14989,4.41305 -0.21961,6.00259c-0.02788,0.65534 -0.13594,1.16775 -0.32418,1.53725c-0.18823,0.3695 -0.48453,0.63093 -0.88888,0.78431c-0.40436,0.15338 -0.96208,0.23006 -1.67319,0.23006h-2.19607l-0.31373,-1.5477h1.88234c0.54379,0 0.95162,-0.0488 1.22352,-0.1464c0.2719,-0.0976 0.46709,-0.26841 0.58562,-0.51242c0.11851,-0.24401 0.19172,-0.61699 0.21961,-1.11894c0.04183,-0.57167 0.10109,-1.97995 0.17778,-4.22481c0.07668,-2.24487 0.13594,-3.99475 0.17777,-5.24965h-3.40913c-0.0976,2.69105 -0.23703,4.75118 -0.41829,6.18036c-0.18127,1.42919 -0.51241,2.70151 -0.99346,3.81697c-0.48105,1.11546 -1.23049,2.32156 -2.24836,3.61828l-1.40129,-0.96208c0.98997,-1.18518 1.71852,-2.27624 2.18561,-3.27319c0.46709,-0.99695 0.79825,-2.18213 0.99345,-3.55554c0.19521,-1.37341 0.32766,-3.31502 0.39738,-5.82481h-2.27972v-1.56862h2.30064l0.08367,-4.0575h1.48496c0,0.94815 -0.02092,2.30064 -0.06275,4.0575zM298.0651,190.37463l-1.38039,0.71111l-0.35555,-0.983l-6.63003,0.73202l-0.25098,-1.33856c0.57168,-0.97603 1.12243,-2.09847 1.65228,-3.3673c0.52985,-1.26885 0.95511,-2.46796 1.27581,-3.59737h-3.17906v-1.48496h8.80518v1.48496h-4.03658c-0.29281,1.00392 -0.70762,2.1891 -1.24444,3.55554c-0.53682,1.36644 -0.99346,2.40522 -1.36994,3.11632l4.45488,-0.46013c-0.54379,-1.49193 -1.05271,-2.78168 -1.52679,-3.86925l1.38038,-0.52287c0.54379,1.28278 1.34553,3.29061 2.40522,6.0235zM290.07559,177.28189v-1.5477h7.27839v1.5477z" fill="#ffffff" fill-rule="evenodd" stroke="#ffffff" stroke-width="0.5" stroke-linecap="round"/></g></g></svg>