<svg version="1.1" xmlns="http://www.w3.org/2000/svg" xmlns:xlink="http://www.w3.org/1999/xlink" width="208" height="32" viewBox="0,0,208,32"><g transform="translate(-240,-164)"><g stroke="none" stroke-miterlimit="10"><path d="M240,196v-32h208v32z" fill="none" stroke-width="0"/><path d="M251.02,172.08h7.8613v3.7988h-2.0996v-2.2559h-13.584v2.2559h-2.0996v-3.7988h7.7637v-1.582h2.1582zM256.1762,176.9335v3.8672h-12.383v-3.8672zM245.7952,178.2519v1.2305h8.3789v-1.2305zM258.0022,181.6406v7.8613h-2.0801v-0.78125h-11.865v0.78125h-2.0801v-7.8613zM244.0572,183.0762v1.3672h4.8633v-1.3672zM244.0572,185.8008v1.4551h4.8633v-1.4551zM255.9222,187.2559v-1.4551h-5v1.4551zM255.9222,184.4434v-1.3672h-5v1.3672zM244.0182,174.5606h11.943v1.5039h-11.943z" fill="#ffffff" stroke-width="1"/><path d="M271.03,185.42h4.9219v-10.742h2.2168v14.658h-2.2168v-1.7969h-11.943v1.7969h-2.1973v-14.658h2.1973v10.742h4.8047v-14.727h2.2168z" fill="#ffffff" stroke-width="1"/><path d="M280.19066,181.96153h19.44375v2.10027h-19.44375v-2.10027M284.49947,174.72967h10.78284v1.9054h-10.78284v-1.9054M284.52112,178.32395h10.80449v1.88375h-10.80449v-1.88375M283.54677,171.04878h13.22955v11.86545h-2.33845v-9.91674h-8.63926v9.91674h-2.25184v-11.86545M292.12107,184.88459l1.97036,-0.86609c0.6207,0.49078 1.26016,1.04652 1.91839,1.66722c0.65535,0.6207 1.26882,1.22985 1.84044,1.82746c0.56874,0.60049 1.04075,1.13169 1.41606,1.5936l-2.03532,1.06097c-0.36087,-0.49078 -0.82567,-1.05086 -1.39441,-1.68022c-0.57162,-0.62647 -1.18221,-1.25727 -1.83178,-1.89241c-0.64957,-0.63513 -1.27748,-1.20531 -1.88375,-1.71053M282.11771,189.71305c-0.0433,-0.17322 -0.10826,-0.38975 -0.19487,-0.64957c-0.08661,-0.25983 -0.17322,-0.5312 -0.25983,-0.81412c-0.08661,-0.28003 -0.18043,-0.5211 -0.28148,-0.72319c0.24539,-0.05774 0.49079,-0.1559 0.73618,-0.29447c0.24539,-0.13569 0.51244,-0.31901 0.80114,-0.54997c0.21652,-0.14435 0.53842,-0.40418 0.96569,-0.77948c0.42438,-0.3753 0.8964,-0.83 1.41606,-1.36409c0.51966,-0.53409 0.99601,-1.09705 1.42905,-1.68888l2.38175,0.9094c-0.83722,0.93827 -1.72785,1.82889 -2.67189,2.67189c-0.94693,0.84589 -1.86066,1.55752 -2.74118,2.13492v0.04331c0,0 -0.07939,0.03609 -0.23818,0.10826c-0.15879,0.07217 -0.34211,0.16167 -0.54997,0.26849c-0.21075,0.1097 -0.39551,0.22951 -0.5543,0.35943c-0.15879,0.12992 -0.23818,0.25261 -0.23818,0.36809M282.11771,189.71305l-0.02165,-1.60227l1.38574,-0.75783l12.53668,-0.498c0.0433,0.28869 0.10826,0.60915 0.19487,0.96136c0.08661,0.3551 0.15157,0.64091 0.19487,0.85743c-1.99201,0.10104 -3.70976,0.19054 -5.15324,0.26849c-1.44349,0.08084 -2.66323,0.15012 -3.65924,0.20786c-0.99601,0.05774 -1.81446,0.10826 -2.45537,0.15157c-0.6438,0.04331 -1.15623,0.08228 -1.53731,0.11692c-0.38396,0.03753 -0.6871,0.07794 -0.9094,0.12125c-0.22519,0.04331 -0.41717,0.10105 -0.57595,0.17322z" fill="#ffffff" stroke-width="1"/></g></g></svg>