<svg version="1.1" xmlns="http://www.w3.org/2000/svg" xmlns:xlink="http://www.w3.org/1999/xlink" width="208" height="32" viewBox="0,0,208,32"><g transform="translate(-240,-164)"><g stroke-miterlimit="10"><path d="M338.84952,187.07373l-0.67499,1.44926c-1.60146,-0.51617 -2.92167,-1.07867 -3.96064,-1.68749c-1.03896,-0.60882 -1.90587,-1.32352 -2.60072,-2.1441c-0.69485,-0.82058 -1.32683,-1.84631 -1.89594,-3.07718c-0.62206,0.64852 -1.34337,1.30367 -2.16395,1.96543v3.93085l4.2485,-1.40955l0.21838,1.40955l-6.13451,2.02499l-0.51617,-1.13161c0.23823,-0.13235 0.42683,-0.29449 0.56581,-0.4864c0.13897,-0.19191 0.20846,-0.36727 0.20846,-0.5261v-2.75954c-1.27058,0.88676 -2.69998,1.69411 -4.2882,2.42204l-0.65514,-1.4294c1.46911,-0.62206 2.78601,-1.30698 3.95071,-2.05477c1.1647,-0.74779 2.26983,-1.61138 3.31542,-2.59079h-7.08745v-1.29043h8.00068v-1.88602h-6.51172v-1.31028h6.51172v-1.90587h-7.32568v-1.27058h7.32568v-2.04484h1.46911v2.04484h7.30583v1.27058h-7.30583v1.90587h6.51172v1.31028h-6.51172v1.88602h7.96098v1.29043h-7.86171c0.51617,1.1647 1.11176,2.12425 1.78675,2.87865c1.48234,-0.83382 2.76615,-1.62793 3.85144,-2.38233l0.83382,1.21102c-1.36323,0.84705 -2.57425,1.56175 -3.63306,2.1441c0.59559,0.46323 1.30036,0.87353 2.11432,1.23088c0.81397,0.35735 1.79668,0.69485 2.94814,1.01249zM345.24212,174.34809v5.49922h12.72564l-0.29779,6.57128c-0.07941,1.00587 -0.34742,1.71065 -0.80404,2.11432c-0.45662,0.40367 -1.19448,0.60551 -2.21359,0.60551h-2.28307l-0.27794,-1.40955h1.94558c0.52941,0 0.9397,-0.05956 1.23087,-0.17867c0.29117,-0.11912 0.49963,-0.30441 0.62537,-0.55588c0.12573,-0.25147 0.20846,-0.6022 0.24816,-1.0522c0.0397,-0.59559 0.08272,-1.38307 0.12904,-2.36248c0.04632,-0.97941 0.08272,-1.7669 0.10919,-2.36249h-12.64624v-8.23891h3.85145l0.25808,-0.63529l0.51618,-1.34999l1.54852,0.17867l-0.25809,0.69485c-0.14559,0.42353 -0.27794,0.79411 -0.39705,1.11176h6.84922c-0.11912,2.06469 -0.19191,3.22277 -0.21838,3.47424c-0.06618,0.63529 -0.1886,1.12831 -0.36727,1.47904c-0.17867,0.35073 -0.45,0.6022 -0.81397,0.7544c-0.36397,0.1522 -0.87022,0.22831 -1.51874,0.22831h-1.70734l-0.27794,-1.27058h1.54852c0.59559,0 1.00588,-0.09596 1.23088,-0.28787c0.225,-0.19191 0.35735,-0.51948 0.39705,-0.98271l0.09927,-0.99264c0.0397,-0.39705 0.06618,-0.74117 0.07941,-1.03234zM299.18362,183.77817h-9.86684c-1.00587,1.11176 -2.23674,2.26322 -3.69262,3.45439l8.91391,-0.3375l-2.18381,-2.06469l0.97279,-0.97279c0.56911,0.51617 1.11506,1.01911 1.63785,1.50881c0.52279,0.4897 0.98272,0.91985 1.37977,1.29043c1.4294,1.34999 2.01837,1.89925 1.7669,1.64778l-1.03235,1.13161c-0.225,-0.23823 -0.63529,-0.65514 -1.23087,-1.25072l-12.26903,0.53602l-0.3772,-1.40955c1.56175,-1.11176 2.9316,-2.28969 4.10953,-3.5338h-5.69776v-1.34999h2.62057v-10.32346h12.26903v10.32346h2.68013zM301.66522,172.20399h17.15282v1.44925h-5.77716v2.91836h4.66541v12.84476h-1.40955v-1.50881h-12.16977v1.50881h-1.4294v-12.84476h4.46688v-2.91836h-5.49923zM278.23892,184.57228l1.23087,0.29779c-0.01323,0.21177 -0.03309,0.5261 -0.05956,0.94301c-0.02647,0.41691 -0.04632,0.82389 -0.05956,1.22095c-0.02647,0.50294 -0.11581,0.89006 -0.26801,1.16139c-0.1522,0.27132 -0.39706,0.45993 -0.73456,0.56581c-0.3375,0.10588 -0.81066,0.15882 -1.41947,0.15882h-2.22351c-0.87352,0 -1.47904,-0.15551 -1.81653,-0.46654c-0.3375,-0.31103 -0.50625,-0.87683 -0.50625,-1.69742v-1.25073h-4.12938v-7.08745h4.12938v-1.58822h-3.51394v-4.586h8.39773v4.586h-3.57351v1.58822h4.10953v7.08745h-4.10953v1.01249c0,0.46323 0.07941,0.77095 0.23824,0.92315c0.15882,0.1522 0.47647,0.22831 0.95294,0.22831h1.92572c0.38382,0 0.66507,-0.02978 0.84375,-0.08934c0.17867,-0.05956 0.30772,-0.17206 0.38713,-0.3375c0.07941,-0.16544 0.12574,-0.4136 0.13897,-0.74448zM252.13249,171.21134h1.4691v3.67277h4.78452v8.41759h-4.78452v6.09481h-1.4691v-6.09481h-4.78453v-8.41759h4.78453zM304.12697,178.04071v8.43744h12.16977v-2.97792h-2.26322c-0.89999,0 -1.53197,-0.17867 -1.89594,-0.53602c-0.36397,-0.35735 -0.54595,-0.97941 -0.54595,-1.86617v-3.05733h-2.97792v0.01985c0,1.19117 -0.08603,2.15734 -0.25808,2.89851c-0.17206,0.74117 -0.49302,1.39631 -0.96286,1.96543c-0.46985,0.56911 -1.16801,1.14484 -2.09447,1.72719l-0.95294,-1.0522c0.86029,-0.55588 1.48565,-1.06543 1.87609,-1.52867c0.39044,-0.46323 0.64521,-0.98272 0.76433,-1.55845c0.11912,-0.57573 0.17868,-1.39962 0.17868,-2.47167zM263.46843,177.22674l2.42204,-0.29779c0.25147,-0.42353 0.58235,-1.03896 0.99264,-1.84631l1.25073,0.7147c-1.03234,1.93234 -2.40219,4.08968 -4.10953,6.47202l3.35512,-0.51618l0.0397,1.3897l-5.06246,0.77426l-0.27794,-1.4294c1.07205,-1.28381 2.07131,-2.68013 2.99777,-4.18894l-3.05733,0.45661l-0.29779,-1.34999c0.60882,-0.79411 1.2011,-1.72719 1.77682,-2.79924c0.57573,-1.07205 1.16801,-2.24336 1.77682,-3.51394l1.19117,0.55588c-1.27058,2.66027 -2.26984,4.51982 -2.99778,5.57864zM352.03178,185.68403v-2.97792h1.44926v4.32791h-11.05801v-4.32791h1.44925v2.97792h3.31542v-3.65291h1.54852v3.65291zM295.07409,182.42818v-2.18381h-9.39037v2.18381zM285.68372,176.84954v2.10439h9.39037v-2.10439zM285.68372,175.59881h9.39037v-2.08455h-9.39037zM244.82665,179.94658l0.63529,0.19853l0.79411,0.29779c-0.27794,0.86029 -0.72463,2.15403 -1.34007,3.88122c-0.61544,1.72719 -1.09521,3.01432 -1.43933,3.86137l-1.4294,-0.59559c0.38382,-0.89999 0.88675,-2.19704 1.50881,-3.89115c0.62206,-1.69411 1.04558,-2.94483 1.27058,-3.75218zM252.13249,176.37307h-3.29556v5.38011h3.29556zM256.85745,176.37307h-3.25586v5.38011h3.25586zM275.77717,175.67823v-2.22352h-5.47937v2.22352zM242.20608,172.68045l1.29043,-0.67499c1.04558,1.83969 1.9919,3.56689 2.83895,5.18158l-1.31029,0.79411c-0.41029,-0.82058 -0.9033,-1.77352 -1.47903,-2.85881c-0.57573,-1.08529 -1.02242,-1.89925 -1.34007,-2.4419zM267.65738,186.99432l-5.6779,0.93308l-0.19853,-1.48896l5.79702,-0.99264zM316.29674,182.05097v-4.01026h-3.25586v2.58087c0,0.39705 0.04301,0.69485 0.12904,0.89337c0.08603,0.19853 0.23162,0.3375 0.43676,0.41691c0.20515,0.07941 0.51286,0.11911 0.92315,0.11911zM308.6137,173.65324v2.91836h2.97792v-2.91836zM350.7612,177.32601l-0.91323,1.0919c-1.48234,-1.17793 -2.54116,-1.9919 -3.17645,-2.4419l0.87353,-1.0919c0.56911,0.41029 1.64116,1.22426 3.21615,2.4419zM273.69262,181.39583h2.83895v-1.80661h-2.83895zM276.53158,182.54729h-2.83895v1.80661h2.83895zM269.56324,181.39583h2.8191v-1.80661h-2.8191zM272.38234,182.54729h-2.8191v1.80661h2.8191z" fill="#ffffff" fill-rule="evenodd" stroke="#ffffff" stroke-width="0.5" stroke-linecap="round"/><path d="M240,196v-32h208v32z" fill="none" fill-rule="nonzero" stroke="none" stroke-width="0" stroke-linecap="butt"/></g></g></svg>