<svg version="1.1" xmlns="http://www.w3.org/2000/svg" xmlns:xlink="http://www.w3.org/1999/xlink" width="208" height="32" viewBox="0,0,208,32"><g transform="translate(-240,-164)"><g stroke="none" stroke-miterlimit="10"><path d="M240.81941,175.29498h5.91869v2.13953h-5.91869v-2.13953M250.65723,170.81597h2.2395v14.53678c0,0.54654 0.05332,0.89314 0.15996,1.03977c0.10664,0.14663 0.35326,0.21995 0.73984,0.21995c0.07998,0 0.22662,0 0.4399,0c0.21329,0 0.44657,0 0.69984,0c0.25328,0 0.48656,0 0.69984,0c0.21329,0 0.37325,0 0.47989,0c0.26661,0 0.47056,-0.11331 0.61186,-0.33992c0.13864,-0.22662 0.24128,-0.63719 0.30793,-1.23173c0.06665,-0.59187 0.11997,-1.42768 0.15996,-2.50744c0.18662,0.1333 0.39991,0.26661 0.63986,0.39991c0.23995,0.1333 0.48656,0.24928 0.73984,0.34792c0.25328,0.10131 0.47989,0.17863 0.67985,0.23195c-0.06665,1.25306 -0.19329,2.26216 -0.37992,3.02733c-0.18662,0.76783 -0.47723,1.32504 -0.87181,1.67163c-0.39191,0.34659 -0.95445,0.51988 -1.68763,0.51988c-0.10664,0 -0.29327,0 -0.55988,0c-0.26661,0 -0.55588,0 -0.86781,0c-0.3146,0 -0.59853,0 -0.85181,0c-0.25328,0 -0.4399,0 -0.55988,0c-0.71984,0 -1.28238,-0.10398 -1.68763,-0.31193c-0.40791,-0.20529 -0.69851,-0.55454 -0.87181,-1.04777c-0.1733,-0.49322 -0.25994,-1.17974 -0.25994,-2.05954v-14.49679M245.67833,170.79597h2.2395v18.13598h-2.2395v-18.13598M257.25576,173.8153l1.53966,1.91957c-0.66652,0.46656 -1.37969,0.93313 -2.13953,1.39969c-0.75983,0.46656 -1.53566,0.9198 -2.32748,1.3597c-0.79449,0.4399 -1.57165,0.85314 -2.33148,1.23973c-0.07998,-0.23995 -0.20662,-0.52388 -0.37992,-0.85181c-0.1733,-0.32526 -0.33992,-0.6012 -0.49989,-0.82782c0.73317,-0.38658 1.47034,-0.82382 2.21151,-1.31171c0.7385,-0.48523 1.44768,-0.98112 2.12753,-1.48767c0.67985,-0.50655 1.27972,-0.98645 1.7996,-1.43968M240.13956,184.43295c0.54654,-0.1733 1.17707,-0.38391 1.89158,-0.63186c0.71184,-0.24528 1.46767,-0.51189 2.2675,-0.79982c0.79982,-0.28527 1.59298,-0.57454 2.37947,-0.86781l0.39991,1.93957c-1.01311,0.45323 -2.04221,0.8998 -3.08732,1.3397c-1.04777,0.4399 -2.01155,0.83981 -2.89136,1.19973zM267.9134,175.95483h1.99956c-0.09331,0.83981 -0.19329,1.72228 -0.29993,2.64741c-0.10664,0.92779 -0.22262,1.84759 -0.34792,2.75939c-0.12797,0.91446 -0.24928,1.78094 -0.36392,2.59942c-0.11198,0.82115 -0.22128,1.54499 -0.32793,2.17152h-2.07954c0.1333,-0.65319 0.26661,-1.39702 0.39991,-2.23151c0.1333,-0.83182 0.26394,-1.70496 0.39191,-2.61942c0.12531,-0.9118 0.24128,-1.82493 0.34792,-2.73939c0.10664,-0.9118 0.19996,-1.77427 0.27994,-2.58743M270.91274,178.27432l1.11975,-0.71984c0.35992,0.27994 0.73317,0.60653 1.11975,0.97978c0.38658,0.37325 0.68651,0.69984 0.8998,0.97978l-1.17974,0.81982c-0.18662,-0.29327 -0.47056,-0.63719 -0.85181,-1.03177c-0.37858,-0.39191 -0.74783,-0.7345 -1.10775,-1.02777M270.37286,182.4134l1.17974,-0.73984c0.39991,0.3066 0.81582,0.65985 1.24772,1.05977c0.43457,0.39991 0.77183,0.75983 1.01178,1.07976l-1.21973,0.83981c-0.22662,-0.3066 -0.55321,-0.67318 -0.97978,-1.09976c-0.42657,-0.42657 -0.83981,-0.80649 -1.23973,-1.13975M268.19334,172.53559h10.33771v1.93957h-10.33771v-1.93957M268.75321,175.95483h7.61831v1.83959h-7.61831v-1.83959M265.39396,179.95394h13.65697v1.93957h-13.65697v-1.93957M267.57348,184.29298h10.95757v1.83959h-10.95757v-1.83959M268.31331,170.43605l2.07954,0.53988c-0.26661,0.82648 -0.59054,1.64897 -0.97178,2.46745c-0.37858,0.82115 -0.78116,1.59165 -1.20773,2.31149c-0.42657,0.71984 -0.85981,1.35303 -1.29971,1.89958c-0.1333,-0.11997 -0.31593,-0.25328 -0.54788,-0.39991c-0.23461,-0.14663 -0.46523,-0.29327 -0.69185,-0.4399c-0.22662,-0.14663 -0.42657,-0.26661 -0.59987,-0.35992c0.45323,-0.47989 0.8838,-1.04377 1.29171,-1.69162c0.40524,-0.64519 0.77449,-1.33837 1.10775,-2.07954c0.33326,-0.7385 0.6132,-1.48767 0.83981,-2.2475M275.75166,175.95483h1.99956c0,0 -0.00267,0.05999 -0.008,0.17996c-0.008,0.11997 -0.012,0.24928 -0.012,0.38791c0,0.1413 -0.00666,0.25861 -0.02,0.35192c-0.07998,1.90624 -0.15996,3.52189 -0.23995,4.84693c-0.07998,1.32771 -0.17063,2.41813 -0.27194,3.27127c-0.09864,0.85314 -0.21062,1.51966 -0.33593,1.99956c-0.12797,0.47989 -0.2786,0.82648 -0.4519,1.03977c-0.22662,0.3066 -0.4639,0.51589 -0.71184,0.62786c-0.24528,0.11464 -0.52788,0.19862 -0.84781,0.25194c-0.29327,0.03999 -0.66652,0.05999 -1.11975,0.05999c-0.45323,0 -0.92646,-0.01333 -1.41969,-0.03999c-0.01333,-0.26661 -0.06665,-0.56654 -0.15996,-0.8998c-0.09331,-0.33326 -0.21995,-0.62653 -0.37992,-0.8798c0.46656,0.03999 0.89314,0.06665 1.27972,0.07998c0.38658,0.01333 0.67318,0.02 0.85981,0.02c0.1733,0 0.31326,-0.02399 0.41991,-0.07198c0.10664,-0.04532 0.21329,-0.12797 0.31993,-0.24795c0.1333,-0.14663 0.25328,-0.4439 0.35992,-0.8918c0.10664,-0.44524 0.20662,-1.07843 0.29993,-1.89958c0.09331,-0.81848 0.17729,-1.86492 0.25194,-3.1393c0.07198,-1.27172 0.13464,-2.81404 0.18796,-4.62697v-0.41991M261.51482,172.21566l1.19973,-1.45968c0.38658,0.1733 0.80249,0.37992 1.24772,0.61986c0.4479,0.23995 0.87447,0.48656 1.27972,0.73984c0.40791,0.25328 0.7385,0.48656 0.99178,0.69984l-1.25972,1.61964c-0.23995,-0.21329 -0.55721,-0.45723 -0.95179,-0.73184c-0.39191,-0.27194 -0.81182,-0.53855 -1.25972,-0.79982c-0.44524,-0.25861 -0.86114,-0.48789 -1.24772,-0.68785M260.39507,177.93439l1.15974,-1.43968c0.38658,0.1733 0.78916,0.37592 1.20773,0.60787c0.42124,0.23461 0.82115,0.4719 1.19973,0.71184c0.38125,0.23995 0.69185,0.46656 0.93179,0.67985l-1.23973,1.63964c-0.21329,-0.22662 -0.50655,-0.47323 -0.8798,-0.73984c-0.37325,-0.26661 -0.76916,-0.52655 -1.18774,-0.77983c-0.42124,-0.25328 -0.81848,-0.47989 -1.19174,-0.67985M260.95494,187.63224c0.26661,-0.51988 0.56254,-1.13308 0.8878,-1.83959c0.32793,-0.70651 0.65452,-1.45968 0.97978,-2.2595c0.32793,-0.79982 0.63186,-1.58631 0.9118,-2.35948l1.63964,1.15974c-0.23995,0.70651 -0.50255,1.43302 -0.78783,2.17952c-0.28794,0.7465 -0.58254,1.48634 -0.8838,2.21951c-0.2986,0.73317 -0.59453,1.41969 -0.8878,2.05954zM285.88941,172.9155h12.79716v1.73961h-12.79716v-1.73961M291.00828,173.69533l2.47945,0.15996c-0.19996,0.53322 -0.42391,1.0531 -0.67185,1.55965c-0.24528,0.50655 -0.4679,0.94646 -0.66785,1.31971l-1.73961,-0.27994c0.11997,-0.42657 0.23995,-0.89314 0.35992,-1.39969c0.11997,-0.50655 0.19996,-0.95979 0.23995,-1.3597M294.5075,170.45605l2.07954,0.57987c-0.33326,0.49322 -0.66252,0.97978 -0.98778,1.45968c-0.32793,0.47989 -0.63186,0.88647 -0.9118,1.21973l-1.69962,-0.53988c0.1733,-0.25328 0.35725,-0.53988 0.55188,-0.85981c0.19196,-0.31993 0.37458,-0.64386 0.54788,-0.97178c0.1733,-0.32526 0.31326,-0.6212 0.41991,-0.8878M287.70901,171.07591l1.7996,-0.75983c0.26661,0.31993 0.52922,0.68251 0.78783,1.08776c0.26128,0.40791 0.4519,0.7585 0.57187,1.05177l-1.89958,0.83981c-0.10664,-0.3066 -0.27994,-0.66652 -0.51988,-1.07976c-0.23995,-0.41324 -0.48656,-0.79316 -0.73984,-1.13975M285.12958,177.63446v8.03822h-2.05954v-6.05866h-2.47945v-1.97956h4.53899M280.65058,172.25565l1.65963,-1.03977c0.34659,0.31993 0.70651,0.67318 1.07976,1.05977c0.37325,0.38658 0.72384,0.77316 1.05177,1.15974c0.32526,0.38658 0.58121,0.73984 0.76783,1.05977l-1.75961,1.17974c-0.1733,-0.3066 -0.41724,-0.65985 -0.73184,-1.05977c-0.31193,-0.39991 -0.64786,-0.80649 -1.00778,-1.21973c-0.35992,-0.41324 -0.71318,-0.79316 -1.05977,-1.13975M284.24978,185.01282c0.34659,0 0.68651,0.11331 1.01977,0.33992c0.33326,0.22662 0.78649,0.48656 1.3597,0.77983c0.66652,0.33326 1.45034,0.55321 2.35148,0.65985c0.89847,0.10664 1.88092,0.15996 2.94735,0.15996c0.70651,0 1.49034,-0.01733 2.35148,-0.05199c0.85848,-0.03199 1.70762,-0.08132 2.54744,-0.14797c0.83981,-0.06665 1.57965,-0.13997 2.21951,-0.21995c-0.07998,0.18662 -0.15996,0.40258 -0.23995,0.64786c-0.07998,0.24795 -0.1533,0.49856 -0.21995,0.75183c-0.06665,0.25328 -0.10664,0.47989 -0.11997,0.67985c-0.34659,0.01333 -0.78916,0.03333 -1.32771,0.05999c-0.54121,0.02666 -1.12775,0.05332 -1.75961,0.07998c-0.63453,0.02666 -1.25839,0.04666 -1.87159,0.05999c-0.6132,0.01333 -1.16641,0.02 -1.65963,0.02c-1.19973,0 -2.24617,-0.07332 -3.1393,-0.21995c-0.89314,-0.14663 -1.70629,-0.39991 -2.43946,-0.75983c-0.45323,-0.23995 -0.84648,-0.47323 -1.17974,-0.69984c-0.33326,-0.22662 -0.62653,-0.33992 -0.8798,-0.33992c-0.22662,0 -0.48656,0.10931 -0.77983,0.32793c-0.29327,0.22128 -0.60387,0.50789 -0.93179,0.85981c-0.32526,0.35459 -0.64119,0.72517 -0.94779,1.11175l-1.29971,-1.7996c0.70651,-0.65319 1.41035,-1.19973 2.11153,-1.63964c0.69851,-0.4399 1.32771,-0.65985 1.88758,-0.65985M289.26867,180.1539v1.25972h5.77872v-1.25972h-5.77872M289.26867,182.81331v1.25972h5.77872v-1.25972h-5.77872M289.26867,177.51448v1.25972h5.77872v-1.25972h-5.77872M287.24911,175.99482h9.89781v9.61787h-9.89781zM300.78611,175.55492h17.85604v2.19951h-17.85604v-2.19951M306.50484,185.19278l1.77961,-1.23973c0.42657,0.34659 0.87047,0.73984 1.3317,1.17974c0.45856,0.4399 0.89447,0.87581 1.30771,1.30771c0.41324,0.43457 0.7465,0.83182 0.99978,1.19174l-1.91957,1.39969c-0.21329,-0.35992 -0.51988,-0.76383 -0.9198,-1.21173c-0.39991,-0.44524 -0.82248,-0.89847 -1.26772,-1.3597c-0.4479,-0.45856 -0.88514,-0.88114 -1.31171,-1.26772M311.16381,176.57469c0.41324,1.58631 0.97978,3.06865 1.69962,4.44701c0.71984,1.38103 1.60364,2.59409 2.65141,3.63919c1.0451,1.04777 2.2675,1.87825 3.66719,2.49145c-0.1733,0.14663 -0.36259,0.33593 -0.56787,0.56787c-0.20795,0.23461 -0.40524,0.47856 -0.59187,0.73184c-0.18662,0.25328 -0.33992,0.47989 -0.4599,0.67985c-1.47967,-0.73317 -2.75939,-1.69029 -3.83915,-2.87136c-1.07976,-1.1784 -1.99556,-2.54477 -2.74739,-4.09909c-0.7545,-1.55166 -1.38503,-3.24728 -1.89158,-5.08687l2.07954,-0.49989M308.44441,170.47605h2.33948c-0.01333,0.98645 -0.03999,2.03555 -0.07998,3.1473c-0.03999,1.11442 -0.14263,2.25417 -0.30793,3.41924c-0.16796,1.16774 -0.43457,2.32082 -0.79982,3.45923c-0.36792,1.14108 -0.87447,2.24084 -1.51966,3.29927c-0.64786,1.0611 -1.48101,2.04488 -2.49945,2.95135c-1.02111,0.90647 -2.26483,1.69962 -3.73117,2.37947c-0.1733,-0.27994 -0.40924,-0.5932 -0.70784,-0.93979c-0.30127,-0.34659 -0.6052,-0.63986 -0.9118,-0.8798c1.42635,-0.59987 2.61942,-1.31038 3.57921,-2.13153c0.95979,-0.81848 1.73295,-1.70496 2.31949,-2.65941c0.58654,-0.95179 1.03977,-1.94757 1.3597,-2.98734c0.31993,-1.03977 0.54654,-2.0862 0.67985,-3.1393c0.1333,-1.0531 0.21062,-2.08354 0.23195,-3.09131c0.01866,-1.00511 0.03466,-1.94757 0.04799,-2.82737zM321.66148,171.73577h15.91647v2.11953h-15.91647v-2.11953M320.60172,180.21389h18.13598v2.15952h-18.13598v-2.15952M322.9212,175.175l1.93957,-0.59987c0.25328,0.45323 0.49056,0.93313 0.71184,1.43968c0.21862,0.50655 0.41857,1.00244 0.59987,1.48767c0.17863,0.48789 0.30793,0.91846 0.38791,1.29171l-2.07954,0.67985c-0.06665,-0.38658 -0.17996,-0.82382 -0.33992,-1.31171c-0.15996,-0.48523 -0.34659,-0.99178 -0.55988,-1.51966c-0.21329,-0.52522 -0.43324,-1.01444 -0.65985,-1.46767M334.35867,174.51515l2.29949,0.59987c-0.22662,0.51988 -0.47589,1.04243 -0.74783,1.56765c-0.27461,0.52788 -0.53855,1.03177 -0.79182,1.51166c-0.25328,0.47989 -0.49989,0.90647 -0.73984,1.27972l-1.87958,-0.57987c0.22662,-0.39991 0.4599,-0.85314 0.69984,-1.3597c0.23995,-0.50655 0.4599,-1.02377 0.65985,-1.55166c0.19996,-0.52522 0.36658,-1.01444 0.49989,-1.46767M328.49997,172.61557h2.2395v16.49634h-2.2395zM346.07607,182.75332h12.87714v2.03955h-12.87714v-2.03955M346.69593,174.13523h11.83738v2.01955h-11.83738v-2.01955M347.35579,178.43428h10.47768v1.99956h-10.47768v-1.99956M351.39489,175.43495h2.21951v13.69696h-2.21951v-13.69696M347.7357,171.17589l1.89958,-0.75983c0.37325,0.50655 0.73717,1.06243 1.09176,1.66763c0.35192,0.60787 0.59453,1.14508 0.72784,1.61164l-2.01955,0.83981c-0.07998,-0.3066 -0.21062,-0.65319 -0.39191,-1.03977c-0.17863,-0.38658 -0.38125,-0.78649 -0.60787,-1.19973c-0.22662,-0.41324 -0.4599,-0.78649 -0.69984,-1.11975M355.23404,170.41606l2.11953,0.61986c-0.23995,0.47989 -0.48656,0.96645 -0.73984,1.45968c-0.25328,0.49322 -0.50655,0.95979 -0.75983,1.39969c-0.25328,0.4399 -0.49322,0.82648 -0.71984,1.15974l-1.77961,-0.57987c0.22662,-0.37325 0.4559,-0.79316 0.68785,-1.25972c0.23461,-0.46656 0.45856,-0.94646 0.67185,-1.43968c0.21329,-0.49322 0.38658,-0.94646 0.51988,-1.3597M341.17716,172.35563l1.25972,-1.49967c0.42657,0.21329 0.8798,0.46256 1.3597,0.74783c0.47989,0.28794 0.93979,0.57854 1.37969,0.87181c0.4399,0.29327 0.79316,0.56654 1.05977,0.81982l-1.3397,1.67963c-0.25328,-0.26661 -0.5932,-0.55721 -1.01977,-0.87181c-0.42657,-0.31193 -0.87581,-0.6252 -1.3477,-0.93979c-0.47456,-0.31193 -0.92513,-0.58121 -1.3517,-0.80782M340.25736,177.49449l1.21973,-1.53966c0.42657,0.19996 0.88647,0.43324 1.37969,0.69984c0.49322,0.26661 0.96379,0.53588 1.41169,0.80782c0.44524,0.27461 0.80782,0.53188 1.08776,0.77183l-1.27972,1.71962c-0.26661,-0.23995 -0.61586,-0.50655 -1.04777,-0.79982c-0.43457,-0.29327 -0.89447,-0.58654 -1.37969,-0.8798c-0.48789,-0.29327 -0.95179,-0.55321 -1.39169,-0.77983M340.67727,187.3523c0.31993,-0.53322 0.67052,-1.15708 1.05177,-1.87159c0.37858,-0.71184 0.76117,-1.47167 1.14775,-2.27949c0.38658,-0.80516 0.7465,-1.60098 1.07976,-2.38747l1.69962,1.29971c-0.29327,0.71984 -0.6092,1.45568 -0.94779,2.20751c-0.34126,0.7545 -0.68785,1.49833 -1.03977,2.23151c-0.35459,0.73317 -0.70518,1.43302 -1.05177,2.09953zM367.43133,180.31386h10.11776v8.75806h-2.15952v-6.7785h-5.8787v6.85848h-2.07954v-8.83804M368.65106,186.0326h7.73828v1.99956h-7.73828v-1.99956M369.13096,171.39584h6.13864v1.99956h-6.13864v-1.99956M368.43111,171.39584h2.07954v2.29949c0,0.73317 -0.09598,1.50233 -0.28794,2.30749c-0.19462,0.80782 -0.55588,1.58498 -1.08376,2.33148c-0.52522,0.7465 -1.29438,1.39969 -2.30749,1.95957c-0.06665,-0.14663 -0.18929,-0.32659 -0.36792,-0.53988c-0.18129,-0.21329 -0.36525,-0.42391 -0.55188,-0.63186c-0.18662,-0.20529 -0.34659,-0.36125 -0.47989,-0.4679c0.8798,-0.46656 1.53299,-0.98378 1.95957,-1.55166c0.42657,-0.56521 0.70651,-1.14775 0.83981,-1.74761c0.1333,-0.59987 0.19996,-1.17307 0.19996,-1.71962v-2.2395M374.22983,171.39584h2.09953v5.4188c0,0.3066 0.01733,0.52655 0.05199,0.65985c0.03199,0.1333 0.12131,0.19996 0.26794,0.19996c0.07998,0 0.17996,0 0.29993,0c0.11997,0 0.24395,0 0.37192,0c0.12531,0 0.22795,0 0.30793,0c0.1333,0 0.30393,-0.01066 0.51189,-0.03199c0.20529,-0.01866 0.37458,-0.04799 0.50789,-0.08798c0.01333,0.26661 0.03066,0.54921 0.05199,0.84781c0.01866,0.30127 0.04799,0.57854 0.08798,0.83182c-0.1333,0.05332 -0.3026,0.08931 -0.50789,0.10798c-0.20795,0.02133 -0.41191,0.03199 -0.61186,0.03199c-0.10664,0 -0.24261,0 -0.40791,0c-0.16796,0 -0.33459,0 -0.49989,0c-0.16796,0 -0.30527,0 -0.41191,0c-0.58654,0 -1.0331,-0.09331 -1.3397,-0.27994c-0.3066,-0.18662 -0.51322,-0.47323 -0.61986,-0.85981c-0.10664,-0.38658 -0.15996,-0.87314 -0.15996,-1.45968v-5.37881M361.23271,172.29564l1.3597,-1.37969c0.41324,0.21329 0.85714,0.46256 1.3317,0.74783c0.4719,0.28794 0.92113,0.57454 1.3477,0.85981c0.42657,0.28794 0.77983,0.55854 1.05977,0.81182l-1.43968,1.53966c-0.25328,-0.25328 -0.58654,-0.53322 -0.99978,-0.83981c-0.41324,-0.3066 -0.85314,-0.6132 -1.31971,-0.9198c-0.46656,-0.3066 -0.91313,-0.57987 -1.3397,-0.81982M360.19294,177.71444l1.3397,-1.39969c0.41324,0.19996 0.85314,0.42924 1.31971,0.68785c0.46656,0.26128 0.9198,0.52788 1.3597,0.79982c0.4399,0.27461 0.79982,0.52522 1.07976,0.75183l-1.41969,1.55965c-0.26661,-0.23995 -0.60653,-0.50389 -1.01977,-0.79182c-0.41324,-0.28527 -0.85581,-0.57187 -1.32771,-0.85981c-0.47456,-0.28527 -0.91846,-0.53455 -1.3317,-0.74783M360.67283,187.3723c0.37325,-0.49322 0.79316,-1.07976 1.25972,-1.75961c0.46656,-0.67985 0.94379,-1.40635 1.43168,-2.17952c0.48523,-0.77316 0.94113,-1.53966 1.3677,-2.29949l1.55965,1.53966c-0.37325,0.67985 -0.77583,1.37969 -1.20773,2.09953c-0.43457,0.71984 -0.86781,1.43302 -1.29971,2.13953c-0.43457,0.70651 -0.87181,1.37969 -1.31171,2.01955zM381.94812,176.73466h2.13953v3.81915c0,0.62653 -0.02933,1.30238 -0.08798,2.02755c-0.06132,0.72784 -0.16796,1.46767 -0.31993,2.21951c-0.15463,0.7545 -0.37858,1.48101 -0.67185,2.17952c-0.29327,0.70118 -0.67318,1.3317 -1.13975,1.89158c-0.10664,-0.14663 -0.26661,-0.3106 -0.47989,-0.49189c-0.21329,-0.17863 -0.4359,-0.35192 -0.66785,-0.51988c-0.23461,-0.1653 -0.4319,-0.28794 -0.59187,-0.36792c0.55988,-0.67985 0.96645,-1.42635 1.21973,-2.2395c0.25328,-0.81315 0.41591,-1.6303 0.48789,-2.45146c0.07465,-0.81848 0.11198,-1.58098 0.11198,-2.28749v-3.77916M383.12785,176.73466h15.29661v1.89958h-15.29661v-1.89958M385.42734,179.89396h12.33726v1.8196h-12.33726v-1.8196M384.50755,183.39318h14.21685v1.89958h-14.21685v-1.89958M390.34625,180.45383h2.2595v8.67808h-2.2595v-8.67808M382.0081,171.19589h2.17952v2.37947h11.01756v-2.37947h2.2595v4.27905h-15.45657v-4.27905M388.50666,170.45605h2.27949v4.01911h-2.27949zM401.4238,173.95527h16.41636v9.85781h-2.2395v-7.73828h-12.01734v7.83826h-2.15952v-9.95779M402.54355,180.65379h14.31683v2.11953h-14.31683v-2.11953M408.44224,170.45605h2.2595v18.65586h-2.2595zM431.89704,171.43583h5.21884v1.93957h-3.31926v15.67652h-1.89958v-17.61609M436.67598,171.43583h0.39991l0.31993,-0.07998l1.47967,0.9198c-0.33326,0.95979 -0.70651,1.97556 -1.11975,3.04732c-0.41324,1.07443 -0.81315,2.05155 -1.19973,2.93135c0.82648,0.9198 1.3637,1.77561 1.61164,2.56743c0.24528,0.79449 0.36792,1.525 0.36792,2.19151c0,0.67985 -0.07598,1.25972 -0.22795,1.73961c-0.15463,0.47989 -0.41191,0.84648 -0.77183,1.09976c-0.1733,0.11997 -0.37325,0.21595 -0.59987,0.28794c-0.22662,0.07465 -0.46656,0.13197 -0.71984,0.17196c-0.22662,0.02666 -0.47989,0.04266 -0.75983,0.04799c-0.27994,0.008 -0.55988,0.00533 -0.83981,-0.008c-0.01333,-0.27994 -0.05999,-0.6132 -0.13997,-0.99978c-0.07998,-0.38658 -0.20662,-0.71984 -0.37992,-0.99978c0.25328,0.02666 0.48389,0.04266 0.69185,0.04799c0.20529,0.008 0.39458,0.00533 0.56787,-0.008c0.1333,0 0.26661,-0.01733 0.39991,-0.05199c0.1333,-0.03199 0.24661,-0.08132 0.33992,-0.14797c0.1733,-0.10664 0.29727,-0.28394 0.37192,-0.53188c0.07198,-0.24528 0.10798,-0.54121 0.10798,-0.8878c0,-0.57321 -0.13997,-1.21973 -0.41991,-1.93957c-0.27994,-0.71984 -0.81982,-1.493 -1.61964,-2.31949c0.19996,-0.50655 0.40391,-1.05043 0.61186,-1.63164c0.20529,-0.57854 0.40524,-1.16508 0.59987,-1.75961c0.19196,-0.59187 0.36792,-1.14775 0.52788,-1.66763c0.15996,-0.51988 0.29327,-0.95979 0.39991,-1.31971v-0.69984M421.03945,172.71555h9.61787v1.91957h-9.61787v-1.91957M420.51956,178.09436h10.57765v1.93957h-10.57765v-1.93957M422.11921,175.07503l1.83959,-0.4599c0.27994,0.47989 0.53055,1.00911 0.75183,1.58765c0.21862,0.58121 0.37458,1.08509 0.4679,1.51166l-1.91957,0.53988c-0.07998,-0.4399 -0.22662,-0.95712 -0.4399,-1.55166c-0.21329,-0.59187 -0.44657,-1.13441 -0.69984,-1.62764M427.77795,174.55514l2.11953,0.4599c-0.18662,0.45323 -0.37992,0.91313 -0.57987,1.37969c-0.19996,0.46656 -0.39325,0.91313 -0.57987,1.3397c-0.18662,0.42657 -0.37325,0.80649 -0.55988,1.13975l-1.7996,-0.4399c0.1733,-0.35992 0.35059,-0.7665 0.53188,-1.21973c0.17863,-0.45323 0.34526,-0.91313 0.49989,-1.37969c0.15197,-0.46656 0.27461,-0.89314 0.36792,-1.27972M422.6191,186.27254h6.55855v1.87958h-6.55855v-1.87958M421.49935,181.59358h8.77805v7.35837h-2.11953v-5.43879h-4.63897v5.55877h-2.01955v-7.47834M424.23874,170.85596l1.93957,-0.53988c0.21329,0.42657 0.42391,0.89314 0.63186,1.39969c0.20529,0.50655 0.35459,0.93979 0.4479,1.29971l-2.05954,0.63986c-0.07998,-0.35992 -0.20929,-0.80382 -0.38791,-1.3317c-0.18129,-0.52522 -0.37192,-1.01444 -0.57187,-1.46767z" fill="#ffffff" stroke-width="1"/><path d="M240,196v-32h208v32z" fill="none" stroke-width="0"/></g></g></svg>