<svg version="1.1" xmlns="http://www.w3.org/2000/svg" xmlns:xlink="http://www.w3.org/1999/xlink" width="224" height="140" viewBox="0,0,224,140"><g transform="translate(-128,-110)"><g stroke-miterlimit="10"><path d="M128,250v-140h224v140z" fill-opacity="0" fill="#000000" fill-rule="nonzero" stroke="none" stroke-width="1" stroke-linecap="butt"/><path d="M342,140l10,2v98h-224v-98l10,-2z" fill="#1d2a41" fill-rule="evenodd" stroke="none" stroke-width="1" stroke-linecap="butt"/><path d="M138,110h204c5.54,0 10,4.46 10,10v22h-224v-22c0,-5.54 4.46,-10 10,-10z" fill="#e10000" fill-rule="evenodd" stroke="none" stroke-width="1" stroke-linecap="butt"/><path d="M215.02557,132.8283l-0.76127,1.18949c-3.15082,-1.83974 -5.21788,-4.09712 -6.20119,-6.77214c-0.48637,1.35337 -1.26614,2.59043 -2.33932,3.7112c-1.07318,1.12076 -2.37633,2.15693 -3.90944,3.10852l-0.77713,-1.20535c1.8186,-1.01503 3.28563,-2.20187 4.4011,-3.56053c1.11548,-1.35866 1.74194,-2.88384 1.87938,-4.57556h-6.02673v-1.22121h6.04259v-3.90151h1.26879v3.90151h6.09017v1.22121h-6.10603c-0.01057,0.05287 -0.01586,0.13217 -0.01586,0.2379c0.34892,1.70229 1.03882,3.18254 2.06971,4.44075c1.03089,1.25821 2.49263,2.40012 4.38524,3.42572z" fill="#fdffab" fill-rule="evenodd" stroke="#fdffab" stroke-width="0.5" stroke-linecap="round"/><path d="M230.88539,127.08705v1.07847h-1.63356l-0.09516,2.45827h1.42739v1.09433h-1.4591l-0.01586,0.28548c-0.03172,0.48637 -0.11895,0.86172 -0.26169,1.12604c-0.14274,0.26433 -0.36477,0.45201 -0.66611,0.56303c-0.30133,0.11102 -0.72162,0.16653 -1.26086,0.16653h-2.36312l-0.2379,-1.11019h2.22037c0.52866,0 0.89608,-0.07137 1.10226,-0.21411c0.20618,-0.14274 0.31984,-0.40443 0.34099,-0.78506v-0.03172h-7.12106l0.3965,-3.5526h-1.23706v-1.07847h1.34808l0.34892,-3.1561c-0.3172,0.40178 -0.56038,0.69783 -0.72955,0.88815l-0.80885,-0.85643c0.58152,-0.64496 1.13398,-1.37981 1.65735,-2.20452c0.52337,-0.82471 0.94895,-1.62299 1.27672,-2.39483l1.0626,0.36477c-0.17975,0.41235 -0.38592,0.84057 -0.61854,1.28464h6.9466v1.07847h-7.54927c-0.33834,0.56038 -0.64496,1.0256 -0.91987,1.39566h7.37482l-0.12688,3.60018zM222.0832,130.62379h5.94743l0.03172,-0.58681c0.04229,-0.71898 0.06873,-1.3428 0.0793,-1.87146h-5.77297zM228.30025,124.56534h-5.51922l-0.28548,2.52171h5.69367c0.07402,-1.44853 0.11102,-2.2891 0.11102,-2.52171zM218.2134,134.00193l-1.14191,-0.34892l1.5384,-5.45578l1.07847,0.33306c-0.08458,0.29605 -0.53923,1.97191 -1.36394,5.02756zM220.10072,125.69138l-0.68197,0.99917c-1.28993,-1.12076 -2.14637,-1.83974 -2.56929,-2.15693l0.68197,-0.91987zM220.54479,121.90089l-0.65025,0.93573c-0.77185,-0.63439 -1.62299,-1.30579 -2.55343,-2.0142l0.68197,-0.90401c0.5921,0.44408 1.43267,1.1049 2.52171,1.98248zM226.53981,129.76736l-0.66611,0.82471c-0.23261,-0.21146 -0.55245,-0.47579 -0.95952,-0.79299c-0.40706,-0.3172 -0.7692,-0.5921 -1.0864,-0.82471l0.60267,-0.79299c0.72955,0.52866 1.43267,1.05732 2.10935,1.58598zM224.11326,125.40591l0.60267,-0.80885c0.93044,0.67669 1.60713,1.19477 2.03006,1.55426l-0.63439,0.85643c-0.57096,-0.48637 -1.23706,-1.02031 -1.99833,-1.60184z" fill="#fdffab" fill-rule="evenodd" stroke="#fdffab" stroke-width="0.5" stroke-linecap="round"/><path d="M242.28861,121.04446h3.42572v2.26795h0.91987v1.01503h-0.91987v2.26795h-3.42572v7.20036h-1.12604v-7.20036h-3.44158v-0.98331h3.44158v-1.28464h-3.96495v-1.01503h3.96495v-1.3005h-3.23541v-0.96745h3.23541v-1.4591h1.12604zM233.24851,121.12376h3.56846v9.89652h-2.48999v1.44324h-1.07847zM234.32698,129.89424h1.41152v-7.66029h-1.41152zM237.86371,127.95934v-0.79299h1.04675v0.88815c0,0.97273 -0.05551,1.80009 -0.16653,2.48206c-0.11102,0.68197 -0.31191,1.31372 -0.60267,1.89525c-0.29077,0.58152 -0.70576,1.16834 -1.24499,1.76044l-0.79299,-0.77713c0.47579,-0.51808 0.83793,-1.01238 1.0864,-1.48289c0.24847,-0.47051 0.42293,-1.00974 0.52337,-1.6177c0.10044,-0.60796 0.15067,-1.39302 0.15067,-2.35518zM245.80948,127.18221v6.81972h-1.07847v-6.81972zM239.84619,132.44767l-0.91987,-0.22204c0.21146,-0.62382 0.39385,-1.32958 0.54716,-2.11728c0.15331,-0.7877 0.26697,-1.56748 0.34099,-2.33932l0.85643,0.0793c-0.07402,0.81414 -0.18239,1.62827 -0.32513,2.44241c-0.14274,0.81414 -0.30926,1.53312 -0.49959,2.15693zM244.55656,132.05117l-0.90401,0.25375l-0.98331,-4.45661l0.88815,-0.22204zM244.69929,123.31241v-1.3005h-2.41069v1.3005zM242.28861,124.32744v1.28464h2.41069v-1.28464z" fill="#fdffab" fill-rule="evenodd" stroke="#fdffab" stroke-width="0.5" stroke-linecap="round"/><path d="M250.25023,121.50439l0.57096,0.20618v-0.52337h-2.0935v-0.76127h2.0935v-0.84057h0.98331v0.84057h1.82388v-0.84057h1.01503v0.84057h1.98248v0.76127h-1.98248v0.61854h-1.01503v-0.61854h-1.82388v0.63439h-0.79299c-0.02115,0.03172 -0.09516,0.15331 -0.22204,0.36477h5.07514c-0.01057,0.37006 -0.02379,0.83793 -0.03965,1.40359c-0.01586,0.56567 -0.03436,1.0071 -0.05551,1.3243c-0.04229,0.47579 -0.18768,0.80885 -0.43615,0.99917c-0.24847,0.19032 -0.66876,0.28548 -1.26086,0.28548h-0.34892l-0.1586,-0.74541h0.3172c0.35949,0 0.60003,-0.04758 0.72162,-0.14274c0.12159,-0.09516 0.19296,-0.29077 0.21411,-0.58681c0.01057,-0.20089 0.02643,-0.48372 0.04758,-0.8485c0.02115,-0.36477 0.037,-0.67933 0.04758,-0.94366h-4.64693c-0.10573,0.13745 -0.2749,0.33306 -0.50752,0.58681h3.61604v2.06178h-3.7112v-1.96662c-0.24319,0.24319 -0.50223,0.47051 -0.77713,0.68197l-0.41235,-0.77713c0.72955,-0.5921 1.32165,-1.2635 1.7763,-2.0142zM256.54658,123.43929l-0.53923,-0.76127c0.45465,-0.49694 0.83793,-0.99917 1.14984,-1.50668c0.31191,-0.50752 0.60532,-1.05732 0.88022,-1.64942l0.95159,0.2379c-0.14802,0.34892 -0.3172,0.70312 -0.50752,1.0626h4.01253v0.85643h-0.95159c-0.34892,1.05732 -0.83529,1.89789 -1.4591,2.52171c0.61325,0.33834 1.4591,0.66083 2.53757,0.96745l-0.45994,0.96745c-1.17362,-0.37006 -2.13579,-0.79299 -2.88649,-1.26879c-0.67669,0.44408 -1.5384,0.84586 -2.58515,1.20535l-0.49165,-0.93573c0.95159,-0.2749 1.70758,-0.57096 2.26795,-0.88815c-0.49694,-0.45465 -0.90401,-0.9886 -1.22121,-1.60184c-0.29605,0.35949 -0.52866,0.62382 -0.69783,0.79299zM254.91302,126.1989l1.07847,-0.33306l0.20618,0.36477c0.05287,0.09516 0.11366,0.20353 0.18239,0.32513c0.06873,0.12159 0.13481,0.25111 0.19824,0.38857h6.01087v0.80885h-14.13109v-0.80885h6.8673zM251.26526,133.46269v0.65025h-1.0626v-3.02922h10.65779v3.01337h-1.04675v-0.63439zM250.36125,129.08539v-0.71369h10.32474v0.71369zM260.68599,129.71978v0.71369h-10.32474v-0.71369zM251.26526,132.73315h8.54844v-0.91987h-8.54844zM260.52739,121.67885h-2.56929l-0.11102,0.17446c0.33834,0.74012 0.80885,1.34808 1.41152,1.82388c0.29605,-0.25375 0.54188,-0.54188 0.73748,-0.86436c0.1956,-0.32248 0.3727,-0.70047 0.5313,-1.13398zM252.53405,124.99355v-0.87229h-2.03006v0.87229z" fill="#fdffab" fill-rule="evenodd" stroke="#fdffab" stroke-width="0.5" stroke-linecap="round"/><path d="M278.38555,132.9076l-0.61854,1.04675c-1.26879,-0.72955 -2.29968,-1.50139 -3.09266,-2.31553c-0.80356,0.78242 -1.76044,1.52254 -2.87062,2.22037l-0.66611,-0.95159v1.22121h-1.14191v-13.71874h7.40653c0,0.30662 -0.01057,0.72427 -0.03172,1.25293c-0.02115,0.52866 -0.037,0.96216 -0.04758,1.3005c-0.03172,0.42293 -0.10838,0.74277 -0.22997,0.95952c-0.12159,0.21675 -0.3172,0.36742 -0.58681,0.45201c-0.26962,0.08458 -0.66347,0.12688 -1.18155,0.12688h-2.47413l-0.19032,-1.07847h2.20452c0.49694,0 0.83264,-0.05022 1.0071,-0.15067c0.17446,-0.10044 0.27755,-0.30398 0.30926,-0.6106c0.04229,-0.54981 0.06344,-0.92516 0.06344,-1.12604h-5.10686v4.07597h6.45494v1.11019c-0.39121,1.48025 -1.1049,2.83891 -2.14108,4.07597c0.39121,0.38064 0.81942,0.73484 1.28464,1.0626c0.46522,0.32777 1.01503,0.67669 1.64942,1.04675zM266.52241,119.66466h1.11019v2.93407h1.74458v1.12604h-1.74458v2.82305l1.6177,-0.5551l0.04758,0.60267l0.04758,0.53923l-1.71286,0.57096v4.39317c0,0.46522 -0.05287,0.81942 -0.1586,1.0626c-0.10573,0.24319 -0.28812,0.415 -0.54716,0.51545c-0.25904,0.10044 -0.63703,0.15067 -1.13398,0.15067h-0.99917l-0.22204,-1.14191h0.87229c0.4335,0 0.72162,-0.0608 0.86436,-0.18239c0.14274,-0.12159 0.21411,-0.36742 0.21411,-0.73748v-3.69534l-1.39566,0.44408c-0.24319,0.08458 -0.43879,0.14802 -0.58681,0.19032l-0.22204,-1.11019c0.52866,-0.14802 1.2635,-0.37535 2.20452,-0.68197v-3.18782h-1.83974v-1.12604h1.83974zM271.13761,126.73813v6.07431c1.09962,-0.64496 2.03006,-1.32165 2.79133,-2.03006c-0.82471,-1.07847 -1.48025,-2.42655 -1.96662,-4.04426zM276.41893,126.73813h-3.33056c0.41235,1.25821 0.95159,2.33139 1.6177,3.21954c0.79299,-0.91987 1.36394,-1.99305 1.71286,-3.21954z" fill="#fdffab" fill-rule="evenodd" stroke="#fdffab" stroke-width="0.5" stroke-linecap="round"/></g></g></svg>