<svg version="1.1" xmlns="http://www.w3.org/2000/svg" xmlns:xlink="http://www.w3.org/1999/xlink" width="207.79235" height="32" viewBox="0,0,207.79235,32"><g transform="translate(-240.20765,-164)"><g stroke-miterlimit="10"><path d="M257.64362,179.56148v1.53381h-6.44615v5.47197c0,0.912 -0.21418,1.55108 -0.64254,1.91726c-0.42836,0.36618 -1.13308,0.54927 -2.11417,0.54927h-2.23853l-0.26945,-1.63745h2.11417c0.42836,0 0.74618,-0.03109 0.95345,-0.09327c0.20727,-0.06218 0.34891,-0.17964 0.42491,-0.35236c0.076,-0.17273 0.114,-0.43872 0.114,-0.798v-5.05743h-7.00578v-1.55454c0.74618,-1.11927 1.67199,-2.73599 2.77744,-4.85016h-4.29052v-1.55454h5.09888c0.55272,-1.11927 1.00872,-2.11417 1.36799,-2.98471l1.57526,0.62181c-0.22109,0.59418 -0.57345,1.38181 -1.05709,2.3629h10.50867v1.55454h-11.2963c-1.18836,2.30762 -2.10035,3.93125 -2.73599,4.87088h5.05743v-3.62725h1.65817v3.62725zM298.4554,182.50474h-9.05777l-0.16582,1.53381h9.86613c-0.01382,0.31782 -0.038,0.74618 -0.07255,1.28508c-0.03454,0.53891 -0.06564,0.98799 -0.09327,1.34727c-0.05527,0.66327 -0.17964,1.17454 -0.37309,1.53381c-0.19345,0.35927 -0.48363,0.61491 -0.87054,0.76691c-0.38691,0.152 -0.92581,0.228 -1.61672,0.228h-3.31635l-0.29018,-1.43017h3.25416c0.456,0 0.79109,-0.02764 1.00527,-0.08291c0.21418,-0.05527 0.36963,-0.17618 0.46636,-0.36273c0.09673,-0.18654 0.15891,-0.48709 0.18654,-0.90163l0.08291,-1.13999h-9.90758l0.41454,-4.02107h8.93341v-1.49236h-8.91268v-1.28508h10.46722zM277.18933,176.18295v5.99015h-5.4927v5.01597c0,0.51127 -0.07255,0.90854 -0.21764,1.19181c-0.14509,0.28327 -0.40418,0.48709 -0.77727,0.61145c-0.37309,0.12436 -0.89818,0.18654 -1.57526,0.18654h-2.1349l-0.31091,-1.57526h1.96908c0.41454,0 0.722,-0.02764 0.92236,-0.08291c0.20036,-0.05527 0.33854,-0.15891 0.41454,-0.31091c0.076,-0.152 0.114,-0.37309 0.114,-0.66327v-4.37343h-6.13524v-5.99015zM292.36162,177.79967h-1.38872v-4.12471h-3.5858v-1.36799h5.45124c-0.17964,-0.42836 -0.43527,-0.95345 -0.76691,-1.57526l1.47163,-0.43527l0.20727,0.37309c0.12436,0.24873 0.25909,0.51127 0.40418,0.78763c0.14509,0.27636 0.28673,0.55963 0.42491,0.84981h5.57561v1.36799h-4.33198v4.12471h-1.38872v-4.12471h-2.07272zM271.84173,172.74224h7.71051v1.47163h-17.94972v-1.47163h8.45668c-0.22109,-0.70472 -0.48363,-1.4509 -0.78763,-2.23853l1.74108,-0.26945c0.33163,0.92581 0.608,1.76181 0.82909,2.50799zM275.59334,180.7222v-3.06762h-10.03195v3.06762zM284.69257,181.65492l0.78763,0.228l0.70472,0.18654c-1.07781,3.30253 -1.87235,5.77597 -2.38362,7.42032l-1.49236,-0.47672c0.26254,-0.73236 0.69781,-2.01399 1.30581,-3.84489c0.608,-1.8309 0.96727,-3.00198 1.07781,-3.51325zM245.31096,182.19383l1.26436,1.07781c-0.66327,0.93963 -1.44054,1.9069 -2.33181,2.9018c-0.89127,0.9949 -1.75835,1.83781 -2.60126,2.52871l-1.07781,-1.34727c0.81527,-0.608 1.64781,-1.38181 2.49762,-2.32144c0.84981,-0.93963 1.59945,-1.88617 2.2489,-2.83962zM252.75201,183.39601l1.11927,-1.16072c0.64945,0.59418 1.47854,1.39217 2.48726,2.39399c1.00872,1.00181 1.89308,1.88963 2.65308,2.66344l-1.16072,1.24363c-0.69091,-0.77381 -1.54072,-1.67199 -2.54944,-2.69453c-1.00872,-1.02254 -1.85854,-1.83781 -2.54944,-2.44581zM273.66572,184.308l0.93272,-1.16072c0.69091,0.49745 1.5649,1.16763 2.62199,2.01053c1.05709,0.8429 1.91726,1.55454 2.58053,2.1349l-0.97418,1.32654c-0.62181,-0.56654 -1.46127,-1.29199 -2.51835,-2.17635c-1.05709,-0.88436 -1.93799,-1.59599 -2.64271,-2.1349zM266.14176,183.14728l1.13999,1.07781c-0.59418,0.67709 -1.34036,1.40945 -2.23853,2.19708c-0.89818,0.78763 -1.78945,1.50617 -2.6738,2.15563l-0.9949,-1.34727c0.85672,-0.55272 1.72035,-1.19872 2.5909,-1.93799c0.87054,-0.73927 1.59599,-1.45436 2.17635,-2.14526zM289.37691,174.42114l0.9949,0.912c-0.41454,0.51127 -0.94309,1.07436 -1.58563,1.68926c-0.64254,0.61491 -1.25399,1.15036 -1.83435,1.60636l-0.80836,-1.05709c1.36799,-1.09163 2.44581,-2.14181 3.23344,-3.15053zM286.95183,173.96515l-0.93272,1.28508c-0.51127,-0.46982 -1.61672,-1.38872 -3.31635,-2.75671l0.93272,-1.18145c0.66327,0.48363 1.76872,1.36799 3.31635,2.65308zM282.16385,177.61313l0.93272,-1.2229c1.57526,1.21599 2.68071,2.10035 3.31635,2.65308l-0.9949,1.28508c-0.93963,-0.81527 -2.02435,-1.72035 -3.25416,-2.71526zM296.48632,175.54041l0.78763,-0.9949c0.53891,0.41454 1.15727,0.90163 1.85508,1.46127c0.69781,0.55963 1.24018,1.01218 1.62708,1.35763l-0.84981,1.09854c-0.80145,-0.74618 -1.94144,-1.72035 -3.41998,-2.92253z" fill="#ffffff" fill-rule="evenodd" stroke="#ffffff" stroke-width="0.5" stroke-linecap="round"/><path d="M448,164v32z" fill="none" fill-rule="nonzero" stroke="none" stroke-width="0" stroke-linecap="butt"/><path d="" fill="#ffffff" fill-rule="nonzero" stroke="none" stroke-width="1" stroke-linecap="butt"/><path d="" fill="#ffffff" fill-rule="nonzero" stroke="none" stroke-width="1" stroke-linecap="butt"/><path d="" fill="#ffffff" fill-rule="nonzero" stroke="none" stroke-width="1" stroke-linecap="butt"/></g></g></svg>