<svg version="1.1" xmlns="http://www.w3.org/2000/svg" xmlns:xlink="http://www.w3.org/1999/xlink" width="180" height="40" viewBox="0,0,180,40"><g transform="translate(-150,-160)"><g stroke-linecap="round" stroke-miterlimit="10"><path d="M150,160h180v40h-180z" fill="none" fill-rule="nonzero" stroke="none" stroke-width="0.2" stroke-linejoin="round"/><path d="M175.50686,177.4175h6.57367v1.17002h-6.74301c-0.31816,1.63187 -0.9314,3.04051 -1.8397,4.22593c-0.90831,1.18542 -2.22458,2.32208 -3.94882,3.40999l-0.78515,-1.07765c1.54976,-0.91344 2.73774,-1.88589 3.56394,-2.91735c0.8262,-1.03147 1.39325,-2.2451 1.70115,-3.64092h-5.15733v-1.17002h5.35746c0.07184,-0.51317 0.1129,-0.99041 0.12316,-1.43174l0.06158,-1.77043h-4.64929v-1.13923h11.4077v1.13923h-5.51141l-0.0154,0.6158c-0.01026,0.22579 -0.0154,0.44902 -0.0154,0.66968c0,0.22066 -0.00513,0.4131 -0.0154,0.57731c-0.01026,0.31816 -0.04619,0.76462 -0.10777,1.33937zM180.74116,181.35862l1.247,0.24632l-0.09237,2.34004c-0.02053,0.45159 -0.0975,0.80311 -0.23093,1.05456c-0.13342,0.25145 -0.35409,0.43619 -0.66199,0.55422c-0.3079,0.11803 -0.73383,0.17704 -1.27779,0.17704h-2.20149c-0.66712,0 -1.14949,-0.14882 -1.44713,-0.44646c-0.29764,-0.29764 -0.44646,-0.80567 -0.44646,-1.52411v-4.21823h1.21621v3.89494c0,0.41053 0.08211,0.69791 0.24632,0.86212c0.16421,0.16421 0.44132,0.24632 0.83133,0.24632h1.5395c0.47211,0 0.79284,-0.07441 0.96219,-0.22323c0.16935,-0.14882 0.25915,-0.43876 0.26941,-0.86982c0.01026,-0.28737 0.02053,-0.63633 0.03079,-1.04686c0.01026,-0.41053 0.0154,-0.75949 0.0154,-1.04686z" fill="#ffffff" fill-rule="evenodd" stroke="#ffffff" stroke-width="0.4" stroke-linejoin="miter"/></g></g></svg>