<svg version="1.1" xmlns="http://www.w3.org/2000/svg" xmlns:xlink="http://www.w3.org/1999/xlink" width="208" height="32" viewBox="0,0,208,32"><g transform="translate(-240,-164)"><g stroke-miterlimit="10"><path d="M285.27921,173.98787v5.65646h13.08951l-0.30631,6.75917c-0.08168,1.03464 -0.35736,1.75956 -0.82703,2.17478c-0.46967,0.41522 -1.22863,0.62282 -2.27688,0.62282h-2.34835l-0.28589,-1.44985h2.0012c0.54454,0 0.96657,-0.06126 1.26607,-0.18378c0.2995,-0.12252 0.51391,-0.31311 0.64324,-0.57177c0.12933,-0.25866 0.21441,-0.61942 0.25526,-1.08228c0.04084,-0.61261 0.08508,-1.42262 0.13273,-2.43003c0.04765,-1.00741 0.08508,-1.81742 0.11231,-2.43003h-13.00783v-8.47449h3.96157l0.26547,-0.65345l0.53093,-1.38859l1.5928,0.18378l-0.26547,0.71472c-0.14975,0.43564 -0.28589,0.81682 -0.40841,1.14355h7.04505c-0.12252,2.12373 -0.1974,3.31492 -0.22462,3.57358c-0.06807,0.65345 -0.19399,1.16056 -0.37778,1.52132c-0.18378,0.36076 -0.46286,0.61942 -0.83724,0.77598c-0.37438,0.15656 -0.8951,0.23484 -1.56216,0.23484h-1.75616l-0.28589,-1.30691h1.5928c0.61261,0 1.03464,-0.0987 1.26607,-0.2961c0.23143,-0.1974 0.36757,-0.53433 0.40841,-1.01081l0.1021,-1.02102c0.04084,-0.40841 0.06807,-0.76236 0.08168,-1.06186zM275.82454,183.99389l1.61322,0.38799l-0.18378,2.51172c-0.04084,0.51732 -0.14975,0.91892 -0.32673,1.20481c-0.17698,0.28589 -0.46627,0.49009 -0.86787,0.61261c-0.4016,0.12252 -0.96997,0.18378 -1.70511,0.18378h-4.10451c-1.04825,0 -1.77998,-0.19059 -2.1952,-0.57177c-0.41522,-0.38118 -0.62282,-1.05506 -0.62282,-2.02162v-2.87928l-6.37118,0.46967l-0.08168,-1.49069l6.45286,-0.49009v-3.12433l-1.34775,0.14294c-0.5037,0.05445 -1.05165,0.11231 -1.64385,0.17357c-0.59219,0.06126 -1.2014,0.11912 -1.82763,0.17357l-0.16336,-1.44985c2.20541,-0.19059 4.52994,-0.42883 6.97358,-0.71472c2.44365,-0.28589 4.47548,-0.57177 6.0955,-0.85766l0.26547,1.42943c-1.62002,0.28589 -3.87989,0.59219 -6.77959,0.91892v3.20601l9.1892,-0.6943l0.08168,1.49069l-9.27088,0.6943v2.73634c0,0.54454 0.0987,0.90871 0.2961,1.09249c0.1974,0.18378 0.5956,0.27568 1.1946,0.27568h3.34895c0.51732,0 0.9019,-0.03744 1.15376,-0.11231c0.25185,-0.07487 0.43223,-0.2042 0.54114,-0.38799c0.10891,-0.18378 0.18378,-0.46627 0.22462,-0.84745c0.02723,-0.32673 0.04424,-0.6977 0.05105,-1.11291c0.00681,-0.41522 0.01021,-0.73173 0.01021,-0.94955zM319.60598,180.46116v1.38859h-2.10331l-0.12252,3.16517h1.83784v1.40901h-1.87868l-0.02042,0.36757c-0.04084,0.62623 -0.15315,1.10951 -0.33694,1.44985c-0.18378,0.34034 -0.46967,0.58198 -0.85766,0.72493c-0.38799,0.14294 -0.92913,0.21441 -1.62343,0.21441h-3.04265l-0.30631,-1.42943h2.85886c0.68068,0 1.15376,-0.09189 1.41922,-0.27568c0.26547,-0.18378 0.41181,-0.52072 0.43904,-1.01081v-0.04084h-9.16878l0.51051,-4.57418h-1.5928v-1.38859h1.73574l0.44925,-4.06367c-0.40841,0.51732 -0.72152,0.8985 -0.93934,1.14355l-1.04144,-1.1027c0.74875,-0.83043 1.46006,-1.77658 2.13394,-2.83844c0.67387,-1.06186 1.22182,-2.08969 1.64385,-3.08349l1.36817,0.46967c-0.23143,0.53093 -0.4969,1.08228 -0.7964,1.65406h8.94416v1.38859h-9.72013c-0.43564,0.72152 -0.83043,1.32052 -1.18439,1.797h9.49551l-0.16336,4.63544zM338.82163,183.95305l1.22523,0.38799c-0.08168,0.76236 -0.1974,1.5928 -0.34715,2.49129c-0.14975,0.95295 -0.37097,1.60301 -0.66366,1.95015c-0.29269,0.34715 -0.67728,0.52072 -1.15376,0.52072c-0.87127,0 -1.57237,-0.67387 -2.10331,-2.02162c-0.16336,-0.42202 -0.2995,-0.83043 -0.40841,-1.22523c-0.8985,1.18439 -1.95356,2.2939 -3.16517,3.32853l-1.02102,-1.20481c1.5928,-1.36136 2.83844,-2.66827 3.73694,-3.92073c-0.47648,-2.43684 -0.77598,-5.38419 -0.8985,-8.84205h-6.30992v-1.40901h6.26908c-0.04084,-1.22523 -0.06126,-2.28028 -0.06126,-3.16517l1.40901,-0.02042c0.01361,0.2995 0.03403,1.36136 0.06126,3.18559h1.85826c-0.24505,-0.84405 -0.51732,-1.64044 -0.81682,-2.38919l1.18439,-0.40841c0.38118,1.04825 0.70791,1.98078 0.98018,2.7976h1.34775v1.40901h-4.53334c0.05445,2.72273 0.24505,5.11873 0.57177,7.188c0.76236,-1.37498 1.4975,-3.21962 2.20541,-5.53394l1.26607,0.42883c-0.77598,2.72273 -1.80381,5.0915 -3.08349,7.10632c0.13614,0.61261 0.32673,1.23203 0.57177,1.85826c0.17698,0.42202 0.33694,0.70791 0.47988,0.85766c0.14294,0.14975 0.2961,0.22462 0.45946,0.22462c0.17698,0 0.31311,-0.11231 0.40841,-0.33694c0.0953,-0.22462 0.19059,-0.64324 0.28589,-1.25586zM327.54954,183.66717l0.22462,1.53153c-0.74875,0.2042 -1.79019,0.5003 -3.12433,0.88829c-1.33414,0.38799 -2.1918,0.65686 -2.57298,0.80661l-0.32673,-1.55195l2.43003,-0.67387v-7.20842h-2.06247v-1.47027h2.06247v-4.96217h1.42943v4.96217h1.83784v1.47027h-1.83784v6.80001zM276.29421,176.92842v-2.36877h-13.13035v2.34835h-1.49069v-3.85946h7.47388l-0.73514,-2.24625l1.65406,-0.28589l0.81682,2.53214h6.94295v3.87989zM292.263,185.64795v-3.06307h1.49069v4.45166h-11.37419v-4.45166h1.49069v3.06307h3.41021v-3.75736h1.5928v3.75736zM240.35422,188.01672v-1.65406h17.86789v1.65406zM241.49777,174.2125v-1.65406h15.56038v1.65406zM242.41669,180.72662v-1.63364h13.74296v1.63364zM308.27263,185.01492h7.65767l0.04084,-0.75556c0.05445,-0.92573 0.08849,-1.72893 0.1021,-2.40961h-7.43304zM316.27745,177.2143h-7.10632l-0.36757,3.24685h7.33094c0.0953,-1.86507 0.14294,-2.94735 0.14294,-3.24685zM332.81801,183.2996h-4.65586v-5.75857h4.65586zM303.29004,189.36447l-1.47027,-0.44925l1.98078,-7.02463l1.38859,0.42883c-0.10891,0.38118 -0.6943,2.53894 -1.75616,6.47328zM332.98138,184.62693l0.22462,1.47027c-0.76236,0.17698 -1.88889,0.44585 -3.37958,0.80661c-1.49069,0.36076 -2.3994,0.58879 -2.72613,0.68409l-0.32673,-1.49069c0.8032,-0.17698 1.95356,-0.43904 3.45106,-0.78619c1.4975,-0.34715 2.41642,-0.57518 2.75676,-0.68409zM305.72008,178.66416l-0.87808,1.28649c-1.66086,-1.44304 -2.76357,-2.36877 -3.30811,-2.77718l0.87808,-1.18439zM306.29185,173.78367l-0.83724,1.20481c-0.99379,-0.81682 -2.08969,-1.68128 -3.28769,-2.5934l0.87808,-1.16397c0.76236,0.57177 1.84465,1.42262 3.24685,2.55256zM290.95609,177.05094l-0.93934,1.12312c-1.52473,-1.21161 -2.61382,-2.04885 -3.26727,-2.51172l0.8985,-1.12312c0.58539,0.42202 1.68809,1.25926 3.30811,2.51172zM329.38738,178.86836v3.10391h2.18499v-3.10391zM314.01078,183.91221l-0.85766,1.06186c-0.2995,-0.27227 -0.71131,-0.61261 -1.23544,-1.02102c-0.52412,-0.40841 -0.99039,-0.76236 -1.3988,-1.06186l0.77598,-1.02102c0.93934,0.68068 1.84465,1.36136 2.71592,2.04204zM310.88645,178.29659l0.77598,-1.04144c1.198,0.87127 2.06927,1.53834 2.61382,2.0012l-0.81682,1.1027c-0.73514,-0.62623 -1.5928,-1.31372 -2.57298,-2.06247z" fill="#ffffff" fill-rule="evenodd" stroke="#ffffff" stroke-width="0.5" stroke-linecap="round"/><path d="M240,196v-32h208v32z" fill="none" fill-rule="nonzero" stroke="none" stroke-width="0" stroke-linecap="butt"/></g></g></svg>