<svg version="1.1" xmlns="http://www.w3.org/2000/svg" xmlns:xlink="http://www.w3.org/1999/xlink" width="168.1" height="38.441" viewBox="0,0,168.1,38.441"><g transform="translate(-240,-180)"><g stroke="none" stroke-miterlimit="10"><path d="M248,180h152.1c4.432,0 8,3.568 8,8v22.441c0,4.432 -3.568,8 -8,8h-152.1c-4.432,0 -8,-3.568 -8,-8v-22.441c0,-4.432 3.568,-8 8,-8z" fill-opacity="0.7" fill="#000000" fill-rule="evenodd" stroke-width="0"/><path d="M254.88818,185.31436h0.84263v5.86505h-0.84263v-5.86505M252.36863,188.69323l4.37167,-1.85212l0.33372,0.76755l-4.37167,1.87715l-0.33372,-0.79257M253.2196,186.11528h0.85097v5.45625c0,0.15573 0.01391,0.27365 0.04171,0.35374c0.02781,0.0812 0.08621,0.13571 0.1752,0.16352c0.08899,0.02781 0.2197,0.04171 0.39212,0.04171c0.05006,0 0.13237,0 0.24695,0c0.11346,0 0.2425,0 0.38711,0c0.14461,0 0.29089,0 0.43884,0c0.14683,0 0.27976,0 0.39879,0c0.12014,0 0.20802,0 0.26364,0c0.15573,0 0.27253,-0.02948 0.3504,-0.08843c0.07787,-0.05784 0.13627,-0.16463 0.1752,-0.32037c0.03893,-0.15573 0.06674,-0.38099 0.08343,-0.67577c0.10011,0.07231 0.22637,0.13905 0.37877,0.20023c0.15351,0.06118 0.29144,0.1029 0.41381,0.12514c-0.03893,0.3949 -0.1029,0.7047 -0.19189,0.9294c-0.08899,0.22581 -0.22248,0.38711 -0.40046,0.48389c-0.17798,0.09789 -0.42549,0.14683 -0.74252,0.14683c-0.05562,0 -0.14572,0 -0.27031,0c-0.1257,0 -0.2692,0 -0.43049,0c-0.1613,0 -0.32148,0 -0.48055,0c-0.15796,0 -0.29923,0 -0.42382,0c-0.1257,0 -0.21358,0 -0.26364,0c-0.35596,0 -0.63684,-0.03893 -0.84263,-0.1168c-0.20579,-0.07787 -0.34873,-0.2158 -0.42882,-0.41381c-0.0812,-0.19689 -0.12181,-0.4761 -0.12181,-0.83763v-5.44791M256.57344,186.94123h-0.06674l0.16686,-0.12514l0.16686,-0.10846l0.61737,0.22526l-0.03337,0.15017c0,0.3949 -0.00111,0.75753 -0.00334,1.08791c-0.00334,0.33149 -0.00612,0.62516 -0.00834,0.88101c-0.00334,0.25585 -0.0089,0.46998 -0.01669,0.6424c-0.0089,0.17242 -0.01891,0.30034 -0.03003,0.38377c-0.01669,0.18911 -0.06118,0.33483 -0.13349,0.43717c-0.07231,0.10345 -0.1752,0.17743 -0.30869,0.22192c-0.1168,0.05006 -0.25474,0.07898 -0.41381,0.08677c-0.15796,0.0089 -0.3009,0.01335 -0.42882,0.01335c-0.01112,-0.11124 -0.03504,-0.24083 -0.07175,-0.38878c-0.0356,-0.14683 -0.07564,-0.26753 -0.12014,-0.36208c0.07787,0.00556 0.1613,0.00834 0.25029,0.00834c0.08899,0 0.15295,0 0.19189,0c0.05562,0 0.10011,-0.01279 0.13349,-0.03838c0.03337,-0.02447 0.05562,-0.07564 0.06674,-0.15351c0.01112,-0.0445 0.01947,-0.14072 0.02503,-0.28866c0.00556,-0.14683 0.00945,-0.34261 0.01168,-0.58734c0.00334,-0.24472 0.00501,-0.54118 0.00501,-0.88935c0,-0.34706 0,-0.74585 0,-1.19637M249.99091,187.27494h2.72812v0.84263h-2.72812v-0.84263M250.99205,185.42282h0.84263v5.49796h-0.84263v-5.49796M249.89079,190.98753c0.22804,-0.08343 0.4939,-0.18521 0.79758,-0.30535c0.30257,-0.11903 0.62238,-0.24973 0.95943,-0.39212c0.33594,-0.14127 0.67355,-0.28143 1.01283,-0.42048l0.20023,0.79257c-0.44495,0.21692 -0.89658,0.43216 -1.35488,0.64574c-0.45942,0.21469 -0.87823,0.40825 -1.25644,0.58066zM259.11802,185.56465h6.15705v0.65075h-6.15705v-0.65075M259.48511,188.92683h6.19877v0.61737h-6.19877v-0.61737M260.24431,189.81118h4.9807v0.54229h-4.9807v-0.54229M259.46843,190.63713h6.53248v0.60069h-6.53248v-0.60069M259.677,187.39174h1.76035v0.4672h-1.76035v-0.4672M259.49345,188.15929h1.95224v0.45886h-1.95224v-0.45886M262.93072,188.15929h1.97726v0.45886h-1.97726v-0.45886M262.93072,187.39174h1.77704v0.4672h-1.77704v-0.4672M261.73769,185.83997h0.88435v2.92001h-0.88435v-2.92001M258.58408,186.54911h7.24163v1.46001h-0.86766v-0.92606h-5.54802v0.92606h-0.82595v-1.46001M259.08465,188.92683h0.83429v1.15132c0,0.2336 -0.01391,0.485 -0.04171,0.7542c-0.02781,0.27031 -0.07954,0.54451 -0.15518,0.82261c-0.07453,0.2781 -0.18021,0.54618 -0.31703,0.80425c-0.13571,0.25919 -0.31202,0.49446 -0.52894,0.70581c-0.0445,-0.05562 -0.10568,-0.12125 -0.18354,-0.19689c-0.07787,-0.07453 -0.16018,-0.14683 -0.24695,-0.21692c-0.08565,-0.06897 -0.16185,-0.12014 -0.2286,-0.15351c0.26141,-0.25029 0.4533,-0.52282 0.57566,-0.8176c0.12236,-0.29478 0.20134,-0.59123 0.23694,-0.88935c0.03671,-0.29701 0.05506,-0.57343 0.05506,-0.82928v-1.13463M262.92238,190.95416c0.16686,0.27253 0.40324,0.4989 0.70915,0.67911c0.30591,0.18132 0.67132,0.32315 1.09626,0.42549c0.42604,0.10345 0.90048,0.17186 1.4233,0.20524c-0.07787,0.07787 -0.15851,0.18354 -0.24194,0.31703c-0.08343,0.13349 -0.15017,0.25585 -0.20023,0.36709c-0.57288,-0.06118 -1.08291,-0.16686 -1.53009,-0.31703c-0.44829,-0.15017 -0.83373,-0.35207 -1.15632,-0.60569c-0.32259,-0.25251 -0.58956,-0.56231 -0.80092,-0.9294l0.7008,-0.14183M264.86627,191.17107l0.65909,0.33372c-0.20023,0.13349 -0.41158,0.25696 -0.63406,0.37042c-0.22248,0.11458 -0.42549,0.21358 -0.60903,0.29701l-0.54229,-0.30034c0.12236,-0.06674 0.2514,-0.14072 0.38711,-0.22192c0.13682,-0.08009 0.27031,-0.16352 0.40046,-0.25029c0.13126,-0.08565 0.24417,-0.16185 0.33872,-0.2286M260.31106,193.10662l-0.04171,-0.584l0.3504,-0.24194l2.30264,-0.32537c-0.02225,0.10011 -0.04171,0.21525 -0.0584,0.3454c-0.01669,0.13126 -0.02503,0.23861 -0.02503,0.32204c-0.5117,0.08343 -0.92495,0.15128 -1.23975,0.20357c-0.31369,0.05339 -0.55675,0.09678 -0.72917,0.13015c-0.17242,0.03337 -0.29756,0.06118 -0.37543,0.08343c-0.07787,0.02225 -0.13905,0.0445 -0.18354,0.06674M260.31106,193.10662c-0.02225,-0.06674 -0.05562,-0.1435 -0.10011,-0.23026c-0.0445,-0.08565 -0.09344,-0.17186 -0.14683,-0.25863c-0.05228,-0.08565 -0.10067,-0.15629 -0.14517,-0.21191c0.09455,-0.05006 0.19578,-0.13515 0.30368,-0.25529c0.10901,-0.11903 0.16352,-0.27309 0.16352,-0.4622v-0.80092l0.86766,0.01669v1.35989c0,0 -0.0317,0.01947 -0.09511,0.0584c-0.06452,0.03893 -0.14239,0.09177 -0.2336,0.15851c-0.09233,0.06674 -0.18577,0.13627 -0.28032,0.20857c-0.09455,0.07231 -0.17409,0.14572 -0.23861,0.22025c-0.06341,0.07564 -0.09511,0.14127 -0.09511,0.19689zM269.57166,187.87563h4.1631v0.70915h-4.1631v-0.70915M269.57166,189.08535h4.1631v0.70915h-4.1631v-0.70915M269.99715,192.09713h3.31213v0.71749h-3.31213v-0.71749M268.97932,186.64088h5.38116v0.72583h-5.38116v-0.72583M269.45486,190.32844h4.38002v2.73647h-0.79257v-2.01898h-2.82824v2.04401h-0.7592v-2.7615M270.8815,185.58968l0.7592,-0.292c0.1168,0.17242 0.23249,0.36152 0.34706,0.56732c0.11346,0.20579 0.20079,0.38655 0.26197,0.54229l-0.78423,0.34206c-0.05562,-0.15573 -0.14016,-0.34206 -0.25362,-0.55897c-0.11458,-0.21692 -0.2247,-0.41714 -0.33038,-0.60069M268.38697,185.34774l0.79257,0.24194c-0.1613,0.4672 -0.35318,0.9344 -0.57566,1.40161c-0.22248,0.4672 -0.46609,0.90659 -0.73084,1.31818c-0.26364,0.41158 -0.5345,0.77867 -0.8126,1.10126c-0.02781,-0.07231 -0.06841,-0.16296 -0.12181,-0.27198c-0.05228,-0.1079 -0.11013,-0.21747 -0.17353,-0.32871c-0.06452,-0.11124 -0.12181,-0.20301 -0.17186,-0.27532c0.23916,-0.25585 0.46998,-0.55619 0.69246,-0.90103c0.22248,-0.34484 0.42827,-0.71193 0.61737,-1.10126c0.18911,-0.38934 0.3504,-0.78423 0.48389,-1.18469M267.71954,187.62534l0.8176,-0.8176v0.00834v6.31557h-0.8176zM277.12198,187.85894v0.4672h3.47064v-0.4672h-3.47064M277.12198,188.97689v0.4672h3.47064v-0.4672h-3.47064M277.12198,186.74934v0.4672h3.47064v-0.4672h-3.47064M276.26266,186.06522h5.23099v4.07133h-5.23099v-4.07133M278.44015,185.23094l1.07623,0.14183c-0.08899,0.18911 -0.18354,0.36987 -0.28366,0.54229c-0.10011,0.17242 -0.18911,0.32259 -0.26697,0.45052l-0.8176,-0.16686c0.05562,-0.15017 0.11124,-0.31425 0.16686,-0.49223c0.05562,-0.17798 0.09733,-0.3365 0.12514,-0.47554M276.84666,190.66216h0.90103v1.20138c0,0.12236 0.03615,0.20023 0.10846,0.2336c0.07231,0.03337 0.2336,0.05006 0.48389,0.05006c0.0445,0 0.11569,0 0.21358,0c0.09678,0 0.20913,0 0.33705,0c0.12792,0 0.25585,0 0.38377,0c0.12792,0 0.24472,0 0.3504,0c0.10568,0 0.18911,0 0.25029,0c0.13905,0 0.24361,-0.02114 0.31369,-0.06341c0.06897,-0.04116 0.11736,-0.12848 0.14517,-0.26197c0.02781,-0.13349 0.05006,-0.33372 0.06674,-0.60069c0.06674,0.05006 0.14906,0.09567 0.24695,0.13682c0.09678,0.04227 0.19689,0.08009 0.30034,0.11346c0.10234,0.03337 0.19522,0.0584 0.27865,0.07509c-0.03893,0.37821 -0.10123,0.67021 -0.18688,0.876c-0.08677,0.20579 -0.21469,0.34595 -0.38377,0.42048c-0.17019,0.07564 -0.40825,0.11346 -0.71415,0.11346c-0.05006,0 -0.13182,0 -0.24528,0c-0.11458,0 -0.2425,0 -0.38377,0c-0.14239,0 -0.28588,0 -0.43049,0c-0.14461,0 -0.27365,0 -0.38711,0c-0.11458,0 -0.19411,0 -0.23861,0c-0.37265,0 -0.66187,-0.03226 -0.86766,-0.09678c-0.20579,-0.06341 -0.34762,-0.17464 -0.42549,-0.33372c-0.07787,-0.15796 -0.1168,-0.3732 -0.1168,-0.64574v-1.21806M278.18152,190.39518l0.68412,-0.38377c0.13905,0.12236 0.27976,0.25863 0.42215,0.4088c0.14127,0.15017 0.2692,0.30034 0.38377,0.45052c0.11346,0.15017 0.20357,0.28922 0.27031,0.41714l-0.72583,0.43383c-0.06118,-0.12792 -0.14739,-0.26975 -0.25863,-0.42549c-0.11124,-0.15573 -0.23471,-0.31314 -0.37042,-0.47221c-0.13682,-0.15796 -0.27198,-0.3009 -0.40546,-0.42882M280.9597,190.74558l0.80092,-0.33372c0.12236,0.17798 0.24639,0.37265 0.37209,0.584c0.12459,0.21135 0.23694,0.41714 0.33705,0.61737c0.10011,0.20023 0.17242,0.38377 0.21692,0.55063l-0.85097,0.37543c-0.03893,-0.16686 -0.10401,-0.35318 -0.19522,-0.55897c-0.09233,-0.20579 -0.198,-0.41714 -0.31703,-0.63406c-0.12014,-0.21692 -0.24139,-0.41714 -0.36375,-0.60069M275.82049,190.56204l0.79257,0.33372c-0.07231,0.18354 -0.15017,0.38488 -0.2336,0.60403c-0.08343,0.22025 -0.17075,0.43327 -0.26197,0.63907c-0.09233,0.20579 -0.18577,0.39212 -0.28032,0.55897l-0.83429,-0.39212c0.10568,-0.15573 0.20857,-0.33372 0.30869,-0.53394c0.10011,-0.20023 0.19467,-0.40491 0.28366,-0.61404c0.08899,-0.20802 0.16408,-0.40658 0.22526,-0.59568zM285.14783,188.42626c-0.20579,0 -0.3821,-0.06952 -0.52894,-0.20857c-0.14795,-0.13905 -0.22192,-0.31425 -0.22192,-0.5256c0,-0.21692 0.07397,-0.39656 0.22192,-0.53895c0.14683,-0.14127 0.32315,-0.21191 0.52894,-0.21191c0.20579,0 0.38266,0.07064 0.53061,0.21191c0.14683,0.14239 0.22025,0.32204 0.22025,0.53895c0,0.21135 -0.07342,0.38655 -0.22025,0.5256c-0.14795,0.13905 -0.32482,0.20857 -0.53061,0.20857M285.14783,192.43919c-0.20579,0 -0.3821,-0.06952 -0.52894,-0.20857c-0.14795,-0.13905 -0.22192,-0.31425 -0.22192,-0.5256c0,-0.22248 0.07397,-0.40324 0.22192,-0.54229c0.14683,-0.13905 0.32315,-0.20857 0.52894,-0.20857c0.20579,0 0.38266,0.06952 0.53061,0.20857c0.14683,0.13905 0.22025,0.31981 0.22025,0.54229c0,0.21135 -0.07342,0.38655 -0.22025,0.5256c-0.14795,0.13905 -0.32482,0.20857 -0.53061,0.20857zM294.43347,186.57414l0.76755,-0.41714c0.1613,0.19467 0.32259,0.40713 0.48389,0.6374c0.1613,0.23138 0.30869,0.45663 0.44217,0.67577c0.13349,0.22025 0.24194,0.41937 0.32537,0.59735l-0.80926,0.49223c-0.07231,-0.17798 -0.17353,-0.38377 -0.30368,-0.61737c-0.13126,-0.2336 -0.27587,-0.46998 -0.43383,-0.70915c-0.15907,-0.23916 -0.31647,-0.45886 -0.47221,-0.65909M296.71942,190.66216l0.71749,-0.50892c0.24472,0.2336 0.50224,0.48778 0.77255,0.76254c0.2692,0.27587 0.52505,0.55119 0.76755,0.82595c0.24139,0.27587 0.43439,0.52226 0.579,0.73918l-0.79257,0.59235c-0.13349,-0.21692 -0.31425,-0.4672 -0.54229,-0.75086c-0.22804,-0.28366 -0.47388,-0.5701 -0.73751,-0.85932c-0.26475,-0.28922 -0.51948,-0.55619 -0.76421,-0.80092M297.63714,185.66477l0.95943,0.04171c-0.05562,0.9789 -0.1485,1.85768 -0.27865,2.63635c-0.13126,0.77867 -0.3276,1.46946 -0.58901,2.07237c-0.26141,0.60403 -0.61181,1.12963 -1.0512,1.57681c-0.43939,0.44829 -0.99002,0.83095 -1.65189,1.14798c-0.03893,-0.06118 -0.10011,-0.14183 -0.18354,-0.24194c-0.08343,-0.10011 -0.17131,-0.19912 -0.26364,-0.29701c-0.09122,-0.09678 -0.17019,-0.17576 -0.23694,-0.23694c0.63962,-0.26141 1.16689,-0.58956 1.58181,-0.98446c0.41381,-0.3949 0.73918,-0.86655 0.97612,-1.41495c0.23583,-0.54729 0.40936,-1.1769 0.5206,-1.88883c0.11124,-0.71193 0.18354,-1.51562 0.21692,-2.41109M292.54798,192.37245l-0.18354,-0.91772l0.30869,-0.31703l2.62801,-1.30149c0.02225,0.12792 0.0584,0.27643 0.10846,0.44551c0.05006,0.17019 0.09177,0.30535 0.12514,0.40546c-0.47833,0.24472 -0.88157,0.4533 -1.20972,0.62572c-0.32815,0.17242 -0.59791,0.31814 -0.80926,0.43717c-0.21135,0.12014 -0.37932,0.21747 -0.50391,0.292c-0.1257,0.07564 -0.22303,0.1396 -0.292,0.19189c-0.07008,0.05339 -0.12737,0.09956 -0.17186,0.13849M292.54798,192.37245c-0.02781,-0.06674 -0.07064,-0.14628 -0.12848,-0.23861c-0.05896,-0.09122 -0.12181,-0.18132 -0.18855,-0.27031c-0.06674,-0.08899 -0.12514,-0.15851 -0.1752,-0.20857c0.07231,-0.05006 0.15295,-0.11847 0.24194,-0.20524c0.08899,-0.08565 0.16853,-0.18855 0.23861,-0.30869c0.06897,-0.11903 0.10345,-0.24806 0.10345,-0.38711v-4.84722h0.97612v5.39785c0,0 -0.03615,0.02503 -0.10846,0.07509c-0.07231,0.05006 -0.1613,0.1168 -0.26697,0.20023c-0.10568,0.08343 -0.21135,0.17242 -0.31703,0.26697c-0.10568,0.09455 -0.19467,0.18911 -0.26697,0.28366c-0.07231,0.09455 -0.10846,0.1752 -0.10846,0.24194zM300.3736,185.64808h7.0998v7.45854h-0.90103v-6.64928h-5.33945v6.64928h-0.85932v-7.45854M300.89921,192.00536h6.16539v0.78423h-6.16539v-0.78423M302.77636,190.11987l0.35874,-0.50892c0.2336,0.0445 0.47721,0.10123 0.73084,0.17019c0.25251,0.07008 0.49557,0.14405 0.72917,0.22192c0.2336,0.07787 0.43383,0.15573 0.60069,0.2336l-0.36709,0.55897c-0.1613,-0.07787 -0.35874,-0.16018 -0.59235,-0.24695c-0.2336,-0.08565 -0.47833,-0.1663 -0.73417,-0.24194c-0.25585,-0.07453 -0.49779,-0.13682 -0.72583,-0.18688M303.16013,186.48237l0.72583,0.25029c-0.15573,0.24472 -0.34206,0.48667 -0.55897,0.72583c-0.21692,0.23916 -0.44329,0.46164 -0.67911,0.66743c-0.23694,0.20579 -0.47221,0.38655 -0.70581,0.54229c-0.03893,-0.05006 -0.09567,-0.10846 -0.17019,-0.1752c-0.07564,-0.06674 -0.15128,-0.13349 -0.22693,-0.20023c-0.07453,-0.06674 -0.14239,-0.11958 -0.20357,-0.15851c0.3504,-0.20023 0.68968,-0.44662 1.01783,-0.73918c0.32815,-0.29144 0.59513,-0.59568 0.80092,-0.91271M305.37099,187.14146h0.15017l0.12514,-0.03337l0.50057,0.30034c-0.21692,0.33928 -0.49334,0.65186 -0.82928,0.93774c-0.33705,0.287 -0.70859,0.54284 -1.11461,0.76755c-0.40602,0.22581 -0.82873,0.42048 -1.26812,0.584c-0.43939,0.16463 -0.87878,0.29979 -1.31818,0.40546c-0.02781,-0.06674 -0.06396,-0.14739 -0.10846,-0.24194c-0.0445,-0.09455 -0.09288,-0.18521 -0.14517,-0.27198c-0.05339,-0.08565 -0.10512,-0.15629 -0.15518,-0.21191c0.41158,-0.07787 0.82873,-0.18354 1.25143,-0.31703c0.42271,-0.13349 0.82317,-0.292 1.20138,-0.47554c0.37821,-0.18354 0.71582,-0.38655 1.01283,-0.60903c0.29812,-0.22248 0.53061,-0.46164 0.69747,-0.71749v-0.1168M302.93487,187.69209c0.24472,0.26141 0.56175,0.4989 0.95109,0.71248c0.38934,0.21469 0.81872,0.40268 1.28814,0.56398c0.47054,0.1613 0.95053,0.28366 1.43998,0.36709c-0.08343,0.07787 -0.17353,0.18187 -0.27031,0.31202c-0.09789,0.13126 -0.17464,0.24973 -0.23026,0.35541c-0.49501,-0.11124 -0.98168,-0.26308 -1.46001,-0.45552c-0.47833,-0.19133 -0.92161,-0.41937 -1.32986,-0.68412c-0.40936,-0.26364 -0.75587,-0.55675 -1.03952,-0.87934l0.65075,-0.292M303.12676,187.14146h2.49452v0.66743h-2.96173l0.4672,-0.66743M301.99213,191.18776l0.40046,-0.584c0.28366,0.02781 0.58011,0.06786 0.88935,0.12014c0.30813,0.05339 0.61515,0.11179 0.92105,0.1752c0.30591,0.06452 0.59513,0.13293 0.86766,0.20524c0.27253,0.07231 0.51448,0.14461 0.72583,0.21692l-0.39212,0.63406c-0.27253,-0.10011 -0.6018,-0.20023 -0.9878,-0.30034c-0.38711,-0.10011 -0.79202,-0.19189 -1.21472,-0.27532c-0.42271,-0.08343 -0.82595,-0.14739 -1.20972,-0.19189zM311.9869,185.86499h3.67087v0.83429h-3.67087v-0.83429M311.61147,187.85894h4.49682v0.83429h-4.49682v-0.83429M313.2884,188.27609h0.90937v3.7543c0,0.22804 -0.02336,0.40991 -0.07008,0.54562c-0.04783,0.13682 -0.14683,0.24417 -0.29701,0.32204c-0.14461,0.07231 -0.32092,0.11791 -0.52894,0.13682c-0.20913,0.02002 -0.45552,0.03003 -0.73918,0.03003c-0.01112,-0.13349 -0.04171,-0.28811 -0.09177,-0.46386c-0.05006,-0.17464 -0.10568,-0.32871 -0.16686,-0.4622c0.18354,0.00556 0.35485,0.00945 0.51392,0.01168c0.15796,0.00334 0.26475,0.00501 0.32037,0.00501c0.05562,-0.00556 0.09455,-0.01669 0.1168,-0.03337c0.02225,-0.01669 0.03337,-0.05284 0.03337,-0.10846v-3.73761M314.55651,189.72775l0.74252,-0.25029c0.12792,0.2781 0.25196,0.57399 0.37209,0.88768c0.11903,0.3148 0.2247,0.62071 0.31703,0.91772c0.09122,0.29812 0.15351,0.5612 0.18688,0.78924l-0.80926,0.30034c-0.03337,-0.2336 -0.0901,-0.50057 -0.17019,-0.80092c-0.0812,-0.30034 -0.17743,-0.61181 -0.28866,-0.9344c-0.11124,-0.32259 -0.22804,-0.62572 -0.3504,-0.90937M312.02862,189.51084l0.80926,0.18354c-0.08343,0.32259 -0.18354,0.64518 -0.30034,0.96777c-0.1168,0.32259 -0.24306,0.62683 -0.37877,0.91271c-0.13682,0.287 -0.27754,0.53895 -0.42215,0.75587c-0.05006,-0.0445 -0.11791,-0.09622 -0.20357,-0.15518c-0.08677,-0.05784 -0.17464,-0.11458 -0.26364,-0.17019c-0.08899,-0.05562 -0.16686,-0.10011 -0.2336,-0.13349c0.21692,-0.29478 0.41158,-0.65353 0.584,-1.07623c0.17242,-0.42271 0.30869,-0.85097 0.4088,-1.2848M308.40781,186.99128h3.09521v0.83429h-3.09521v-0.83429M309.60084,185.31436h0.89269v7.78391h-0.89269v-7.78391M309.49238,187.55026l0.55063,0.1752c-0.06118,0.31703 -0.13627,0.6463 -0.22526,0.9878c-0.08899,0.34261 -0.19189,0.67911 -0.30869,1.00949c-0.1168,0.33149 -0.24306,0.64018 -0.37877,0.92606c-0.13682,0.287 -0.27754,0.53339 -0.42215,0.73918c-0.02781,-0.08343 -0.06786,-0.17798 -0.12014,-0.28366c-0.05339,-0.10568 -0.11068,-0.21135 -0.17186,-0.31703c-0.06118,-0.10568 -0.11958,-0.19467 -0.1752,-0.26697c0.18354,-0.22804 0.35708,-0.50892 0.5206,-0.84263c0.16463,-0.33372 0.3098,-0.68857 0.4355,-1.06455c0.12459,-0.37487 0.22303,-0.72917 0.29534,-1.06288M310.45181,187.9674c0.05006,0.05562 0.12959,0.14739 0.23861,0.27532c0.1079,0.12792 0.2247,0.26975 0.3504,0.42549c0.12459,0.15573 0.23861,0.29756 0.34206,0.42549c0.10234,0.12792 0.17576,0.2197 0.22025,0.27532l-0.49223,0.70915c-0.05006,-0.11124 -0.12236,-0.24472 -0.21692,-0.40046c-0.09455,-0.15573 -0.19467,-0.3187 -0.30034,-0.48889c-0.10568,-0.16908 -0.2069,-0.32593 -0.30368,-0.47054c-0.09789,-0.14461 -0.18021,-0.26141 -0.24695,-0.3504zM318.66956,187.70043v0.6424h3.84607v-0.6424h-3.84607M318.66956,186.39894v0.6424h3.84607v-0.6424h-3.84607M317.79355,185.70648h5.63979v3.33716h-5.63979v-3.33716M316.70898,191.87187h7.79226v0.85097h-7.79226v-0.85097M319.21185,189.32729h0.85097v3.01178h-0.85097v-3.01178M321.10568,189.32729h0.85097v3.01178h-0.85097v-3.01178M323.17472,189.51084l0.7592,0.34206c-0.1613,0.28922 -0.34039,0.58122 -0.53728,0.876c-0.198,0.29478 -0.38322,0.54785 -0.55564,0.7592l-0.68412,-0.31703c0.1168,-0.15017 0.23805,-0.31981 0.36375,-0.50892c0.12459,-0.18911 0.24695,-0.38377 0.36709,-0.584c0.11903,-0.20023 0.21469,-0.38934 0.287,-0.56732M317.34304,189.86958l0.69246,-0.30034c0.10011,0.17242 0.20579,0.35708 0.31703,0.55397c0.11124,0.198 0.2158,0.38878 0.31369,0.57232c0.09678,0.18354 0.17298,0.34484 0.2286,0.48389l-0.72583,0.3504c-0.05562,-0.14461 -0.12904,-0.31314 -0.22025,-0.50558c-0.09233,-0.19133 -0.18966,-0.38878 -0.292,-0.59235c-0.10345,-0.20245 -0.20802,-0.38989 -0.31369,-0.56231zM328.48079,188.38455h0.98446v3.64584c0,0.25585 -0.03448,0.45441 -0.10345,0.59568c-0.07008,0.14239 -0.19689,0.24973 -0.38044,0.32204c-0.18354,0.06674 -0.4088,0.10957 -0.67577,0.12848c-0.26697,0.02002 -0.584,0.03003 -0.95109,0.03003c-0.02225,-0.13905 -0.06396,-0.29923 -0.12514,-0.48055c-0.06118,-0.18021 -0.12514,-0.33705 -0.19189,-0.47054c0.16686,0.00556 0.33538,0.01112 0.50558,0.01669c0.16908,0.00556 0.32037,0.00667 0.45385,0.00334c0.13349,-0.00223 0.22526,-0.00334 0.27532,-0.00334c0.07787,0 0.13237,-0.01112 0.16352,-0.03337c0.03003,-0.02225 0.04505,-0.06396 0.04505,-0.12514v-3.62916M326.51187,189.45244l0.9344,0.24194c-0.12236,0.33372 -0.27253,0.66298 -0.45052,0.9878c-0.17798,0.32593 -0.36709,0.63072 -0.56732,0.91438c-0.20023,0.28366 -0.40324,0.53116 -0.60903,0.74252c-0.06118,-0.05562 -0.1435,-0.1168 -0.24695,-0.18354c-0.10234,-0.06674 -0.20468,-0.13349 -0.30702,-0.20023c-0.10345,-0.06674 -0.19411,-0.1168 -0.27198,-0.15017c0.31147,-0.28366 0.6018,-0.63684 0.871,-1.05955c0.27031,-0.42271 0.48611,-0.85376 0.64741,-1.29315M330.408,189.77781l0.83429,-0.3504c0.19467,0.26141 0.38544,0.54229 0.57232,0.84263c0.18577,0.30034 0.35541,0.59624 0.50892,0.88768c0.1524,0.29256 0.26753,0.55842 0.3454,0.79758l-0.92606,0.40046c-0.06118,-0.22804 -0.16241,-0.49112 -0.30368,-0.78924c-0.14239,-0.29701 -0.30424,-0.60291 -0.48556,-0.91772c-0.18021,-0.31369 -0.36208,-0.60403 -0.54562,-0.871M325.99461,185.87334h5.90676v0.89269h-5.90676v-0.89269M325.24375,187.89232h7.42517v0.89269h-7.42517z" fill="#ffffff" fill-rule="nonzero" stroke-width="1"/><path d="M253.75355,201.40112l0.42549,-0.65909c0.36152,0.11124 0.72583,0.23916 1.09292,0.38377c0.36709,0.14461 0.71193,0.29478 1.03452,0.45052c0.32259,0.15573 0.59513,0.30591 0.8176,0.45052l-0.53394,0.70915c-0.21692,-0.15573 -0.47666,-0.31314 -0.77923,-0.47221c-0.30368,-0.15796 -0.63239,-0.31202 -0.98613,-0.4622c-0.35263,-0.15017 -0.7097,-0.28366 -1.07123,-0.40046M252.77743,195.16898l0.90103,-0.27532c0.11124,0.17242 0.22248,0.36431 0.33372,0.57566c0.11124,0.21135 0.19189,0.39768 0.24194,0.55897l-0.95109,0.30034c-0.03893,-0.15017 -0.10957,-0.33538 -0.21191,-0.55564c-0.10345,-0.21914 -0.20802,-0.42048 -0.31369,-0.60403M249.99091,195.81973h7.01637v1.85212h-0.9344v-1.01783h-5.19762v1.01783h-0.88435v-1.85212M253.3948,197.0211h0.94275c-0.02225,0.60069 -0.0584,1.15799 -0.10846,1.67191c-0.05006,0.51503 -0.14461,0.9839 -0.28366,1.40661c-0.13905,0.42271 -0.34484,0.8037 -0.61737,1.14298c-0.27253,0.33928 -0.64073,0.63406 -1.1046,0.88435c-0.46498,0.25029 -1.05065,0.46164 -1.75701,0.63406c-0.0445,-0.1168 -0.1168,-0.25196 -0.21692,-0.40546c-0.10011,-0.1524 -0.19745,-0.27587 -0.292,-0.37042c0.66187,-0.14461 1.20138,-0.32148 1.61852,-0.53061c0.41714,-0.20802 0.74697,-0.45552 0.98947,-0.74252c0.24139,-0.28588 0.4177,-0.61126 0.52894,-0.97612c0.11124,-0.36375 0.18521,-0.77088 0.22192,-1.2214c0.0356,-0.45052 0.06174,-0.94831 0.07842,-1.49338M249.89079,199.80763h7.24163v0.75086h-7.24163v-0.75086M251.26737,197.47162l0.5256,-0.57566c0.15017,0.07231 0.30312,0.15851 0.45886,0.25863c0.15573,0.10011 0.30479,0.20412 0.44718,0.31202c0.14127,0.10901 0.25362,0.2108 0.33705,0.30535l-0.55897,0.6424c-0.07787,-0.09455 -0.18354,-0.19745 -0.31703,-0.30869c-0.13349,-0.11124 -0.2781,-0.22415 -0.43383,-0.33872c-0.15573,-0.11346 -0.30869,-0.21191 -0.45886,-0.29534M250.42474,198.73974l0.50892,-0.60069c0.15573,0.07231 0.31425,0.15685 0.47554,0.25362c0.1613,0.09789 0.31425,0.198 0.45886,0.30034c0.14461,0.10345 0.26141,0.20245 0.3504,0.29701l-0.53394,0.67577c-0.08899,-0.10011 -0.20301,-0.20579 -0.34206,-0.31703c-0.13905,-0.11124 -0.28922,-0.2197 -0.45052,-0.32537c-0.1613,-0.10568 -0.31703,-0.20023 -0.4672,-0.28366zM258.66751,195.65287h2.37772v5.57305h-2.37772v-0.80092h1.54343v-3.97121h-1.54343v-0.80092M258.71757,198.01391h1.74366v0.78423h-1.74366v-0.78423M258.24202,195.65287h0.84263v6.24882h-0.84263v-6.24882M261.37895,196.56225h4.35499v0.89269h-4.35499v-0.89269M263.93187,195.0355h0.90937v6.5158c0,0.2781 -0.03615,0.48778 -0.10846,0.62905c-0.07231,0.14239 -0.19745,0.24973 -0.37543,0.32204c-0.17242,0.07231 -0.40435,0.11791 -0.6958,0.13682c-0.29256,0.02002 -0.64741,0.02725 -1.06455,0.02169c-0.01669,-0.12792 -0.05729,-0.27976 -0.12181,-0.45552c-0.06341,-0.17464 -0.12848,-0.32315 -0.19522,-0.44551c0.20579,0.00556 0.40491,0.00945 0.59735,0.01168c0.19133,0.00334 0.3593,0.00501 0.50391,0.00501c0.14461,0 0.24751,0 0.30869,0c0.08899,-0.00556 0.15128,-0.02392 0.18688,-0.05506c0.03671,-0.03003 0.05506,-0.08955 0.05506,-0.17854v-6.50745M261.52078,198.42271l0.74252,-0.39212c0.13905,0.19467 0.28922,0.40713 0.45052,0.6374c0.1613,0.23138 0.31425,0.45663 0.45886,0.67577c0.14461,0.22025 0.26141,0.41103 0.3504,0.57232l-0.79257,0.45886c-0.08343,-0.16686 -0.19355,-0.36319 -0.33038,-0.58901c-0.13571,-0.2247 -0.28143,-0.45663 -0.43717,-0.6958c-0.15573,-0.23916 -0.30312,-0.46164 -0.44217,-0.66743zM267.08548,195.23573h6.15705v0.65075h-6.15705v-0.65075M267.45257,198.59791h6.19877v0.61737h-6.19877v-0.61737M268.21177,199.48226h4.9807v0.54229h-4.9807v-0.54229M267.43588,200.3082h6.53248v0.60069h-6.53248v-0.60069M267.64446,197.06282h1.76035v0.4672h-1.76035v-0.4672M267.46091,197.83036h1.95224v0.45886h-1.95224v-0.45886M270.89818,197.83036h1.97726v0.45886h-1.97726v-0.45886M270.89818,197.06282h1.77704v0.4672h-1.77704v-0.4672M269.70515,195.51104h0.88435v2.92001h-0.88435v-2.92001M266.55154,196.22019h7.24163v1.46001h-0.86766v-0.92606h-5.54802v0.92606h-0.82595v-1.46001M267.05211,198.59791h0.83429v1.15132c0,0.2336 -0.01391,0.485 -0.04171,0.7542c-0.02781,0.27031 -0.07954,0.54451 -0.15518,0.82261c-0.07453,0.2781 -0.18021,0.54618 -0.31703,0.80425c-0.13571,0.25919 -0.31202,0.49446 -0.52894,0.70581c-0.0445,-0.05562 -0.10568,-0.12125 -0.18354,-0.19689c-0.07787,-0.07453 -0.16018,-0.14683 -0.24695,-0.21692c-0.08565,-0.06897 -0.16185,-0.12014 -0.2286,-0.15351c0.26141,-0.25029 0.4533,-0.52282 0.57566,-0.8176c0.12236,-0.29478 0.20134,-0.59123 0.23694,-0.88935c0.03671,-0.29701 0.05506,-0.57343 0.05506,-0.82928v-1.13463M270.88984,200.62523c0.16686,0.27253 0.40324,0.4989 0.70915,0.67911c0.30591,0.18132 0.67188,0.32315 1.09792,0.42549c0.42493,0.10345 0.89881,0.17186 1.42163,0.20524c-0.07787,0.07787 -0.15851,0.18354 -0.24194,0.31703c-0.08343,0.13349 -0.15017,0.25585 -0.20023,0.36709c-0.57288,-0.06118 -1.08291,-0.16686 -1.53009,-0.31703c-0.44829,-0.15017 -0.83373,-0.35207 -1.15632,-0.60569c-0.32259,-0.25251 -0.58956,-0.56231 -0.80092,-0.9294l0.7008,-0.14183M272.83373,200.84215l0.65909,0.33372c-0.20023,0.13349 -0.41158,0.25696 -0.63406,0.37042c-0.22248,0.11458 -0.42549,0.21358 -0.60903,0.29701l-0.54229,-0.30034c0.12236,-0.06674 0.2514,-0.14072 0.38711,-0.22192c0.13682,-0.08009 0.27031,-0.16352 0.40046,-0.25029c0.13126,-0.08565 0.24417,-0.16185 0.33872,-0.2286M268.27852,202.7777l-0.04171,-0.584l0.3504,-0.24194l2.30264,-0.32537c-0.02225,0.10011 -0.04171,0.21525 -0.0584,0.3454c-0.01669,0.13126 -0.02503,0.23861 -0.02503,0.32204c-0.5117,0.08343 -0.92495,0.15128 -1.23975,0.20357c-0.31369,0.05339 -0.55675,0.09678 -0.72917,0.13015c-0.17242,0.03337 -0.29756,0.06118 -0.37543,0.08343c-0.07787,0.02225 -0.13905,0.0445 -0.18354,0.06674M268.27852,202.7777c-0.02225,-0.06674 -0.05562,-0.1435 -0.10011,-0.23026c-0.0445,-0.08565 -0.09344,-0.17186 -0.14683,-0.25863c-0.05228,-0.08565 -0.10067,-0.15629 -0.14517,-0.21191c0.09455,-0.05006 0.19578,-0.13515 0.30368,-0.25529c0.10901,-0.11903 0.16352,-0.27309 0.16352,-0.4622v-0.80092l0.86766,0.01669v1.35989c0,0 -0.0317,0.01947 -0.09511,0.0584c-0.06452,0.03893 -0.14239,0.09177 -0.2336,0.15851c-0.09233,0.06674 -0.18577,0.13627 -0.28032,0.20857c-0.09455,0.07231 -0.17353,0.14572 -0.23694,0.22025c-0.06452,0.07564 -0.09678,0.14127 -0.09678,0.19689zM276.37946,197.37151h5.83168v0.70915h-5.83168v-0.70915M276.45455,199.79929h4.63865v0.70915h-4.63865v-0.70915M277.56415,196.77082h0.85097v1.96058h1.66858v-1.96058h0.876v2.6447h-3.39556v-2.6447M280.85959,199.79929h0.1752l0.15851,-0.03337l0.55897,0.292c-0.22804,0.43383 -0.5256,0.80481 -0.89269,1.11294c-0.36709,0.30924 -0.78423,0.56676 -1.25143,0.77255c-0.4672,0.20579 -0.97056,0.36987 -1.51006,0.49223c-0.53951,0.12236 -1.10126,0.21692 -1.68526,0.28366c-0.03337,-0.10568 -0.08454,-0.23249 -0.15351,-0.38044c-0.07008,-0.14683 -0.14127,-0.27031 -0.21358,-0.37042c0.53394,-0.03893 1.0512,-0.10735 1.55178,-0.20524c0.50057,-0.09678 0.96388,-0.22581 1.38993,-0.38711c0.42493,-0.1613 0.79869,-0.36319 1.12128,-0.60569c0.32259,-0.24139 0.57288,-0.52616 0.75086,-0.85431v-0.1168M277.84781,200.34157c0.27253,0.32259 0.63573,0.59791 1.08958,0.82595c0.45274,0.22804 0.97667,0.40991 1.5718,0.54562c0.59513,0.13682 1.23475,0.23026 1.91886,0.28032c-0.06118,0.06118 -0.12514,0.13905 -0.19189,0.2336c-0.06674,0.09455 -0.12904,0.18911 -0.18688,0.28366c-0.05896,0.09455 -0.10512,0.18076 -0.13849,0.25863c-0.71193,-0.07231 -1.37213,-0.19634 -1.9806,-0.37209c-0.60959,-0.17464 -1.15354,-0.40825 -1.63187,-0.7008c-0.47833,-0.29144 -0.88435,-0.64574 -1.21806,-1.06288l0.76755,-0.292M275.72871,195.7363h6.56585v0.83429h-6.56585v-0.83429M275.31157,195.7363h0.88435v2.23589c0,0.34484 -0.00945,0.72416 -0.02837,1.13797c-0.02002,0.41492 -0.05784,0.83929 -0.11346,1.27312c-0.05562,0.43383 -0.13627,0.85376 -0.24194,1.25978c-0.10568,0.40602 -0.24472,0.77867 -0.41714,1.11795c-0.06118,-0.0445 -0.14183,-0.09177 -0.24194,-0.14183c-0.10011,-0.05006 -0.20134,-0.099 -0.30368,-0.14683c-0.10345,-0.04672 -0.19411,-0.07842 -0.27198,-0.09511c0.16686,-0.32259 0.30034,-0.67188 0.40046,-1.04787c0.10011,-0.37487 0.17409,-0.75976 0.22192,-1.15466c0.04672,-0.3949 0.07731,-0.78034 0.09177,-1.15632c0.01335,-0.37487 0.02002,-0.72083 0.02002,-1.03786v-2.24424M278.23158,195.13561l0.90103,-0.20857c0.09455,0.17798 0.18243,0.37265 0.26364,0.584c0.08009,0.21135 0.13682,0.39212 0.17019,0.54229l-0.95943,0.2336c-0.02225,-0.15573 -0.06952,-0.34206 -0.14183,-0.55897c-0.07231,-0.21692 -0.15017,-0.41436 -0.2336,-0.59235zM284.7724,198.09734c-0.20579,0 -0.3821,-0.06952 -0.52894,-0.20857c-0.14795,-0.13905 -0.22192,-0.31425 -0.22192,-0.5256c0,-0.21692 0.07397,-0.39656 0.22192,-0.53895c0.14683,-0.14127 0.32315,-0.21191 0.52894,-0.21191c0.20579,0 0.38266,0.07064 0.53061,0.21191c0.14683,0.14239 0.22025,0.32204 0.22025,0.53895c0,0.21135 -0.07342,0.38655 -0.22025,0.5256c-0.14795,0.13905 -0.32482,0.20857 -0.53061,0.20857M284.7724,202.11027c-0.20579,0 -0.3821,-0.06952 -0.52894,-0.20857c-0.14795,-0.13905 -0.22192,-0.31425 -0.22192,-0.5256c0,-0.22248 0.07397,-0.40324 0.22192,-0.54229c0.14683,-0.13905 0.32315,-0.20857 0.52894,-0.20857c0.20579,0 0.38266,0.06952 0.53061,0.20857c0.14683,0.13905 0.22025,0.31981 0.22025,0.54229c0,0.21135 -0.07342,0.38655 -0.22025,0.5256c-0.14795,0.13905 -0.32482,0.20857 -0.53061,0.20857zM294.05804,196.24522l0.76755,-0.41714c0.1613,0.19467 0.32259,0.40713 0.48389,0.6374c0.1613,0.23138 0.30869,0.45663 0.44217,0.67577c0.13349,0.22025 0.24194,0.41937 0.32537,0.59735l-0.80926,0.49223c-0.07231,-0.17798 -0.17353,-0.38377 -0.30368,-0.61737c-0.13126,-0.2336 -0.27587,-0.46998 -0.43383,-0.70915c-0.15907,-0.23916 -0.31647,-0.45886 -0.47221,-0.65909M296.34399,200.33323l0.71749,-0.50892c0.24472,0.2336 0.50224,0.48778 0.77255,0.76254c0.2692,0.27587 0.52505,0.55119 0.76755,0.82595c0.24139,0.27587 0.43439,0.52226 0.579,0.73918l-0.79257,0.59235c-0.13349,-0.21692 -0.31425,-0.4672 -0.54229,-0.75086c-0.22804,-0.28366 -0.47388,-0.5701 -0.73751,-0.85932c-0.26475,-0.28922 -0.51948,-0.55619 -0.76421,-0.80092M297.26171,195.33584l0.95943,0.04171c-0.05562,0.9789 -0.1485,1.85768 -0.27865,2.63635c-0.13126,0.77867 -0.3276,1.46946 -0.58901,2.07237c-0.26141,0.60403 -0.61181,1.12963 -1.0512,1.57681c-0.43939,0.44829 -0.99002,0.83095 -1.65189,1.14798c-0.03893,-0.06118 -0.10011,-0.14183 -0.18354,-0.24194c-0.08343,-0.10011 -0.17131,-0.19912 -0.26364,-0.29701c-0.09122,-0.09678 -0.17019,-0.17576 -0.23694,-0.23694c0.63962,-0.26141 1.16689,-0.58956 1.58181,-0.98446c0.41381,-0.3949 0.73918,-0.86655 0.97612,-1.41495c0.23583,-0.54729 0.40936,-1.1769 0.5206,-1.88883c0.11124,-0.71193 0.18354,-1.51562 0.21692,-2.41109M292.17255,202.04352l-0.18354,-0.91772l0.30869,-0.31703l2.62801,-1.30149c0.02225,0.12792 0.0584,0.27643 0.10846,0.44551c0.05006,0.17019 0.09177,0.30535 0.12514,0.40546c-0.47833,0.24472 -0.88157,0.4533 -1.20972,0.62572c-0.32815,0.17242 -0.59791,0.31814 -0.80926,0.43717c-0.21135,0.12014 -0.37932,0.21747 -0.50391,0.292c-0.1257,0.07564 -0.22303,0.1396 -0.292,0.19189c-0.07008,0.05339 -0.12737,0.09956 -0.17186,0.13849M292.17255,202.04352c-0.02781,-0.06674 -0.07064,-0.14628 -0.12848,-0.23861c-0.05896,-0.09122 -0.12181,-0.18132 -0.18855,-0.27031c-0.06674,-0.08899 -0.12514,-0.15851 -0.1752,-0.20857c0.07231,-0.05006 0.15295,-0.11847 0.24194,-0.20524c0.08899,-0.08565 0.16853,-0.18855 0.23861,-0.30869c0.06897,-0.11903 0.10345,-0.24806 0.10345,-0.38711v-4.84722h0.97612v5.39785c0,0 -0.03615,0.02503 -0.10846,0.07509c-0.07231,0.05006 -0.1613,0.1168 -0.26697,0.20023c-0.10568,0.08343 -0.21135,0.17242 -0.31703,0.26697c-0.10568,0.09455 -0.19467,0.18911 -0.26697,0.28366c-0.07231,0.09455 -0.10846,0.1752 -0.10846,0.24194zM302.56778,201.71815c0.36152,-0.01669 0.77589,-0.03615 1.24309,-0.0584c0.4672,-0.02225 0.96221,-0.05006 1.48503,-0.08343c0.52282,-0.03337 1.04564,-0.06674 1.56846,-0.10011l-0.01669,0.80092c-0.48945,0.03893 -0.98279,0.07787 -1.48003,0.1168c-0.49835,0.03893 -0.97667,0.07342 -1.43498,0.10345c-0.45942,0.03115 -0.87823,0.06063 -1.25644,0.08843l-0.10846,-0.86766M305.82985,200.92558l0.73417,-0.28366c0.12792,0.19467 0.25474,0.40602 0.38044,0.63406c0.12459,0.22804 0.23694,0.45052 0.33705,0.66743c0.10011,0.21692 0.1752,0.41158 0.22526,0.584l-0.78423,0.32537c-0.03893,-0.17242 -0.10568,-0.36987 -0.20023,-0.59235c-0.09455,-0.22248 -0.20134,-0.45052 -0.32037,-0.68412c-0.12014,-0.2336 -0.24417,-0.45052 -0.37209,-0.65075M303.71076,198.98168v0.9344h2.48618v-0.9344h-2.48618M302.93487,198.25585h4.07133v2.38607h-4.07133v-2.38607M303.92768,196.16179v0.75086h1.99395v-0.75086h-1.99395M303.11841,195.42761h3.65418v2.21921h-3.65418v-2.21921M304.52002,197.47162h0.85097v4.40504l-0.85097,0.02503v-4.43007M300.16503,199.1986h1.77704v0.80092h-1.77704v-0.80092M301.64172,199.1986h0.876c0,0 -0.00111,0.02058 -0.00334,0.06174c-0.00334,0.04227 -0.00667,0.09122 -0.01001,0.14683c-0.00223,0.05562 -0.00612,0.1029 -0.01168,0.14183c-0.02781,0.61181 -0.06229,1.11238 -0.10345,1.50172c-0.04227,0.38934 -0.09122,0.69246 -0.14683,0.90937c-0.05562,0.21692 -0.12514,0.36987 -0.20857,0.45886c-0.08899,0.10011 -0.18243,0.17075 -0.28032,0.21191c-0.09678,0.04227 -0.21191,0.07175 -0.3454,0.08843c-0.11124,0.01669 -0.25585,0.02503 -0.43383,0.02503c-0.17798,0 -0.36709,-0.00556 -0.56732,-0.01669c-0.00556,-0.12236 -0.03059,-0.2603 -0.07509,-0.41381c-0.0445,-0.1524 -0.1029,-0.287 -0.1752,-0.4038c0.17798,0.01669 0.34484,0.02781 0.50057,0.03337c0.15573,0.00556 0.26975,0.00834 0.34206,0.00834c0.06674,0 0.12236,-0.00723 0.16686,-0.02169c0.0445,-0.01335 0.08621,-0.03949 0.12514,-0.07842c0.05006,-0.05562 0.09733,-0.17409 0.14183,-0.35541c0.0445,-0.18021 0.08343,-0.44551 0.1168,-0.79591c0.03337,-0.3504 0.06396,-0.80648 0.09177,-1.36823v-0.13349M300.00652,197.26305h0.79257c-0.02225,0.30591 -0.05006,0.62572 -0.08343,0.95943c-0.03337,0.33372 -0.06786,0.65464 -0.10345,0.96277c-0.03671,0.30924 -0.07453,0.58066 -0.11346,0.81427h-0.8176c0.0445,-0.23916 0.08788,-0.51615 0.13015,-0.83095c0.04116,-0.31369 0.07842,-0.63628 0.11179,-0.96777c0.03337,-0.33038 0.06118,-0.64296 0.08343,-0.93774M300.17338,197.26305h1.50172v-1.02618h-1.85212v-0.8176h2.67807v2.66138h-2.32767zM308.79992,195.23573h6.15705v0.65075h-6.15705v-0.65075M309.16701,198.59791h6.19877v0.61737h-6.19877v-0.61737M309.92621,199.48226h4.9807v0.54229h-4.9807v-0.54229M309.15032,200.3082h6.53248v0.60069h-6.53248v-0.60069M309.3589,197.06282h1.76035v0.4672h-1.76035v-0.4672M309.17535,197.83036h1.95224v0.45886h-1.95224v-0.45886M312.61262,197.83036h1.97726v0.45886h-1.97726v-0.45886M312.61262,197.06282h1.77704v0.4672h-1.77704v-0.4672M311.41959,195.51104h0.88435v2.92001h-0.88435v-2.92001M308.26598,196.22019h7.24163v1.46001h-0.86766v-0.92606h-5.54802v0.92606h-0.82595v-1.46001M308.76655,198.59791h0.83429v1.15132c0,0.2336 -0.01391,0.485 -0.04171,0.7542c-0.02781,0.27031 -0.07898,0.54451 -0.15351,0.82261c-0.07564,0.2781 -0.18132,0.54618 -0.31703,0.80425c-0.13682,0.25919 -0.31369,0.49446 -0.53061,0.70581c-0.0445,-0.05562 -0.10568,-0.12125 -0.18354,-0.19689c-0.07787,-0.07453 -0.15963,-0.14683 -0.24528,-0.21692c-0.08677,-0.06897 -0.16352,-0.12014 -0.23026,-0.15351c0.26141,-0.25029 0.4533,-0.52282 0.57566,-0.8176c0.12236,-0.29478 0.2019,-0.59123 0.23861,-0.88935c0.0356,-0.29701 0.05339,-0.57343 0.05339,-0.82928v-1.13463M312.60428,200.62523c0.16686,0.27253 0.40324,0.4989 0.70915,0.67911c0.30591,0.18132 0.67188,0.32315 1.09792,0.42549c0.42493,0.10345 0.89881,0.17186 1.42163,0.20524c-0.07787,0.07787 -0.15851,0.18354 -0.24194,0.31703c-0.08343,0.13349 -0.15017,0.25585 -0.20023,0.36709c-0.57288,-0.06118 -1.08291,-0.16686 -1.53009,-0.31703c-0.44829,-0.15017 -0.83373,-0.35207 -1.15632,-0.60569c-0.32259,-0.25251 -0.58956,-0.56231 -0.80092,-0.9294l0.7008,-0.14183M314.54817,200.84215l0.65909,0.33372c-0.20023,0.13349 -0.41158,0.25696 -0.63406,0.37042c-0.22248,0.11458 -0.42549,0.21358 -0.60903,0.29701l-0.54229,-0.30034c0.12236,-0.06674 0.2514,-0.14072 0.38711,-0.22192c0.13682,-0.08009 0.27087,-0.16352 0.40213,-0.25029c0.13015,-0.08565 0.2425,-0.16185 0.33705,-0.2286M309.99295,202.7777l-0.04171,-0.584l0.3504,-0.24194l2.30264,-0.32537c-0.02225,0.10011 -0.04171,0.21525 -0.0584,0.3454c-0.01669,0.13126 -0.02503,0.23861 -0.02503,0.32204c-0.5117,0.08343 -0.92439,0.15128 -1.23808,0.20357c-0.3148,0.05339 -0.55842,0.09678 -0.73084,0.13015c-0.17242,0.03337 -0.29756,0.06118 -0.37543,0.08343c-0.07787,0.02225 -0.13905,0.0445 -0.18354,0.06674M309.99295,202.7777c-0.02225,-0.06674 -0.05562,-0.1435 -0.10011,-0.23026c-0.0445,-0.08565 -0.09288,-0.17186 -0.14517,-0.25863c-0.05339,-0.08565 -0.10234,-0.15629 -0.14683,-0.21191c0.09455,-0.05006 0.19634,-0.13515 0.30535,-0.25529c0.1079,-0.11903 0.16185,-0.27309 0.16185,-0.4622v-0.80092l0.86766,0.01669v1.35989c0,0 -0.0317,0.01947 -0.09511,0.0584c-0.06452,0.03893 -0.14239,0.09177 -0.2336,0.15851c-0.09233,0.06674 -0.18577,0.13627 -0.28032,0.20857c-0.09455,0.07231 -0.17353,0.14572 -0.23694,0.22025c-0.06452,0.07564 -0.09678,0.14127 -0.09678,0.19689zM321.06397,195.00213l0.876,0.1752c-0.11124,0.44495 -0.24584,0.87712 -0.4038,1.29648c-0.15907,0.42048 -0.33872,0.80982 -0.53895,1.168c-0.20023,0.3593 -0.41436,0.67522 -0.6424,0.94775c-0.05006,-0.05006 -0.12069,-0.10846 -0.21191,-0.1752c-0.09233,-0.06674 -0.1841,-0.13349 -0.27532,-0.20023c-0.09233,-0.06674 -0.17464,-0.12236 -0.24695,-0.16686c0.33372,-0.35596 0.6246,-0.8037 0.87267,-1.3432c0.24695,-0.53951 0.43717,-1.10682 0.57065,-1.70195M321.19745,196.12007h2.77818v0.80926h-3.12858l0.3504,-0.80926M316.42532,201.76821h7.63374v0.80092h-7.63374v-0.80092M317.30967,199.44888h5.92345v2.59464h-0.876v-1.84378h-0.86766v1.84378h-0.8176v-1.84378h-0.85932v1.84378h-0.8176v-1.84378h-0.85097v1.84378h-0.83429v-2.59464M321.34762,197.71356l0.69246,-0.4672c0.17798,0.12792 0.36431,0.27365 0.55897,0.43717c0.19467,0.16463 0.3771,0.32593 0.54729,0.48389c0.16908,0.15907 0.30646,0.30535 0.41214,0.43884l-0.72583,0.5256c-0.10011,-0.13349 -0.23193,-0.28366 -0.39545,-0.45052c-0.16463,-0.16686 -0.3415,-0.33538 -0.53061,-0.50558c-0.18911,-0.16908 -0.37543,-0.32315 -0.55897,-0.4622M318.62784,195.00213h0.89269v4.03796h-0.89269v-4.03796M316.98429,195.27744h0.86766v3.52904h-0.86766zM328.43908,201.36775l0.54229,-0.32537c0.13349,0.13349 0.26975,0.2781 0.4088,0.43383c0.13905,0.15573 0.26975,0.3098 0.39212,0.4622c0.12236,0.15351 0.2197,0.28866 0.292,0.40546l-0.56732,0.37543c-0.07231,-0.12236 -0.16686,-0.26308 -0.28366,-0.42215c-0.1168,-0.15796 -0.24472,-0.31925 -0.38377,-0.48389c-0.13905,-0.16352 -0.27253,-0.31202 -0.40046,-0.44551M326.96239,195.4443h2.92835v5.37282h-0.7008v-4.73042h-1.55178v4.76379h-0.67577v-5.40619M331.50926,195.11058h0.70915v6.73271c0,0.21135 -0.02503,0.37543 -0.07509,0.49223c-0.05006,0.1168 -0.13627,0.20579 -0.25863,0.26697c-0.12236,0.06118 -0.28477,0.10123 -0.48722,0.12014c-0.20357,0.02002 -0.45552,0.02725 -0.75587,0.02169c-0.01669,-0.09455 -0.04728,-0.21413 -0.09177,-0.35874c-0.0445,-0.14461 -0.09177,-0.26975 -0.14183,-0.37543c0.20579,0.00556 0.39656,0.00834 0.57232,0.00834c0.17464,0 0.29534,0 0.36208,0c0.11124,0 0.16686,-0.05562 0.16686,-0.16686v-6.74105M330.36629,195.75299h0.68412v5.0975h-0.68412v-5.0975M328.06365,196.58727h0.65909v3.13693c0,0.2781 -0.02225,0.55897 -0.06674,0.84263c-0.0445,0.28366 -0.12681,0.56175 -0.24695,0.83429c-0.11903,0.27253 -0.29367,0.5256 -0.52393,0.7592c-0.23138,0.2336 -0.53339,0.43939 -0.90604,0.61737c-0.02225,-0.05006 -0.05673,-0.11124 -0.10345,-0.18354c-0.04783,-0.07231 -0.09789,-0.1435 -0.15017,-0.21358c-0.05339,-0.06897 -0.09956,-0.12014 -0.13849,-0.15351c0.33372,-0.15573 0.59958,-0.32982 0.79758,-0.52226c0.19689,-0.19133 0.34373,-0.39545 0.4405,-0.61237c0.09789,-0.21692 0.16241,-0.44217 0.19355,-0.67577c0.03003,-0.2336 0.04505,-0.4672 0.04505,-0.7008v-3.12858M324.99347,195.71127l0.5256,-0.65075c0.14461,0.07231 0.30479,0.15851 0.48055,0.25863c0.17464,0.10011 0.34428,0.20023 0.50892,0.30034c0.16352,0.10011 0.29534,0.19189 0.39545,0.27532l-0.55063,0.72583c-0.09455,-0.08899 -0.2197,-0.18799 -0.37543,-0.29701c-0.15573,-0.1079 -0.32092,-0.21469 -0.49557,-0.32037c-0.17576,-0.10568 -0.33872,-0.20301 -0.48889,-0.292M324.65975,197.94716l0.50057,-0.6424c0.15017,0.07231 0.31314,0.15573 0.48889,0.25029c0.17464,0.09455 0.34261,0.18911 0.50391,0.28366c0.1613,0.09455 0.29756,0.18076 0.4088,0.25863l-0.53394,0.71749c-0.09455,-0.08343 -0.22248,-0.17687 -0.38377,-0.28032c-0.1613,-0.10234 -0.32815,-0.20524 -0.50057,-0.30869c-0.17242,-0.10234 -0.33372,-0.19522 -0.48389,-0.27865M324.80992,202.21872c0.10568,-0.21692 0.22248,-0.47276 0.3504,-0.76755c0.12792,-0.29478 0.25585,-0.60792 0.38377,-0.93941c0.12792,-0.33038 0.24751,-0.65408 0.35874,-0.97111l0.71749,0.45886c-0.09455,0.29478 -0.19745,0.59791 -0.30869,0.90937c-0.11124,0.31147 -0.22637,0.61737 -0.3454,0.91772c-0.12014,0.30034 -0.23583,0.584 -0.34706,0.85097zM336.5734,195.60281c0.12792,0.77867 0.30034,1.5045 0.51726,2.17749c0.21692,0.67299 0.4939,1.28314 0.83095,1.83043c0.33594,0.54841 0.74752,1.02562 1.23475,1.43164c0.48611,0.40602 1.0601,0.73139 1.72197,0.97612c-0.06674,0.05562 -0.14016,0.13071 -0.22025,0.22526c-0.0812,0.09455 -0.15907,0.19022 -0.2336,0.287c-0.07564,0.09789 -0.13571,0.18577 -0.18021,0.26364c-0.7008,-0.28922 -1.30427,-0.65631 -1.81041,-1.10126c-0.50614,-0.44495 -0.93273,-0.96666 -1.2798,-1.56513c-0.34818,-0.59735 -0.63628,-1.26311 -0.86432,-1.99729c-0.22804,-0.73417 -0.41714,-1.53509 -0.56732,-2.40275l0.85097,-0.12514M337.2158,195.5027l0.70915,-0.35874c0.1168,0.16686 0.2336,0.34762 0.3504,0.54229c0.1168,0.19467 0.22248,0.38488 0.31703,0.57065c0.09455,0.18688 0.16686,0.35541 0.21692,0.50558l-0.75086,0.4088c-0.0445,-0.15017 -0.11124,-0.31981 -0.20023,-0.50892c-0.08899,-0.18911 -0.19022,-0.38655 -0.30368,-0.59235c-0.11458,-0.20579 -0.22748,-0.3949 -0.33872,-0.56732M339.59352,195.48601l0.89269,0.15017c-0.14461,0.80648 -0.33093,1.56846 -0.55897,2.28595c-0.22804,0.71749 -0.5256,1.38214 -0.89269,1.99395c-0.36709,0.61181 -0.83151,1.16077 -1.39326,1.64689c-0.56175,0.48722 -1.24865,0.89491 -2.06069,1.22307c-0.03893,-0.06674 -0.0901,-0.1435 -0.15351,-0.23026c-0.06452,-0.08565 -0.13126,-0.17019 -0.20023,-0.25362c-0.07008,-0.08343 -0.13293,-0.15295 -0.18855,-0.20857c0.77311,-0.29478 1.42497,-0.66354 1.95557,-1.10627c0.53172,-0.44162 0.96722,-0.94775 1.3065,-1.51841c0.33928,-0.56954 0.60903,-1.1897 0.80926,-1.86046c0.20023,-0.66966 0.36152,-1.37713 0.48389,-2.12243M334.82139,195.01881l0.84263,0.25863c-0.17798,0.47276 -0.38934,0.94386 -0.63406,1.41329c-0.24472,0.47054 -0.51003,0.91549 -0.79591,1.33486c-0.287,0.42048 -0.58066,0.78924 -0.88101,1.10627c-0.02781,-0.07231 -0.06952,-0.16686 -0.12514,-0.28366c-0.05562,-0.1168 -0.1168,-0.23527 -0.18354,-0.35541c-0.06674,-0.11903 -0.12514,-0.21469 -0.1752,-0.287c0.26141,-0.25585 0.51281,-0.55508 0.7542,-0.89769c0.2425,-0.3415 0.46665,-0.70692 0.67244,-1.09626c0.20579,-0.38934 0.38099,-0.78701 0.5256,-1.19303M333.99544,197.27973l0.84263,-0.85097l0.00834,0.00834v6.32391h-0.85097zM342.2549,196.33699h2.55292v5.57305h-2.55292v-0.79257h1.73532v-3.99624h-1.73532v-0.78423M341.7293,196.33699h0.8176v6.20711h-0.8176v-6.20711M342.21319,198.58957h2.18584v0.77589h-2.18584v-0.77589M342.93902,194.9771l0.97612,0.15017c-0.08899,0.27253 -0.18354,0.54618 -0.28366,0.82094c-0.10011,0.27587 -0.19189,0.51114 -0.27532,0.70581l-0.71749,-0.16686c0.03893,-0.13905 0.07898,-0.29756 0.12014,-0.47554c0.04227,-0.17798 0.08009,-0.35763 0.11346,-0.53895c0.03337,-0.18021 0.05562,-0.3454 0.06674,-0.49557M345.93412,196.28693h2.47784v0.8176h-2.47784v-0.8176M348.09492,196.28693h0.83429c0,0 0,0.02614 0,0.07842c0,0.05339 0,0.11179 0,0.1752c0,0.06452 -0.00278,0.11624 -0.00834,0.15518c-0.02781,0.94553 -0.05729,1.74644 -0.08843,2.40275c-0.03003,0.65631 -0.06619,1.19581 -0.10846,1.61852c-0.04116,0.42271 -0.08955,0.75197 -0.14517,0.9878c-0.05562,0.23694 -0.12792,0.41103 -0.21692,0.52226c-0.11124,0.15017 -0.22526,0.25307 -0.34206,0.30869c-0.1168,0.05562 -0.25863,0.09733 -0.42549,0.12514c-0.15017,0.01669 -0.34206,0.02503 -0.57566,0.02503c-0.2336,0 -0.47276,-0.00556 -0.71749,-0.01669c-0.00556,-0.12236 -0.03504,-0.26697 -0.08843,-0.43383c-0.05228,-0.16686 -0.12292,-0.31147 -0.21191,-0.43383c0.27253,0.02225 0.52282,0.03615 0.75086,0.04171c0.22804,0.00556 0.3949,0.00834 0.50057,0.00834c0.08343,0 0.15128,-0.01001 0.20357,-0.03003c0.05339,-0.01891 0.1079,-0.05618 0.16352,-0.11179c0.06674,-0.07787 0.12514,-0.22971 0.1752,-0.45552c0.05006,-0.2247 0.09177,-0.54284 0.12514,-0.95443c0.03337,-0.41158 0.06507,-0.9344 0.09511,-1.56846c0.03115,-0.63406 0.05784,-1.39048 0.08009,-2.26927v-0.1752M346.00086,194.9771l0.85932,0.20023c-0.10568,0.41158 -0.23193,0.81872 -0.37877,1.2214c-0.14795,0.4038 -0.31091,0.78367 -0.48889,1.13964c-0.17798,0.35596 -0.36152,0.66743 -0.55063,0.9344c-0.05562,-0.05006 -0.12792,-0.10846 -0.21692,-0.1752c-0.08899,-0.06674 -0.18076,-0.13237 -0.27532,-0.19689c-0.09455,-0.06341 -0.1752,-0.11179 -0.24194,-0.14517c0.18354,-0.23916 0.35763,-0.51893 0.52226,-0.83929c0.16352,-0.31925 0.31036,-0.66243 0.4405,-1.02951c0.13126,-0.36709 0.24139,-0.73695 0.33038,-1.1096M345.6004,198.62294l0.7008,-0.39212c0.13905,0.18911 0.28922,0.39879 0.45052,0.62905c0.1613,0.23138 0.31258,0.45385 0.45385,0.66743c0.14239,0.21469 0.25529,0.40546 0.33872,0.57232l-0.7592,0.4672c-0.07787,-0.17242 -0.18354,-0.36987 -0.31703,-0.59235c-0.13349,-0.22248 -0.27698,-0.45218 -0.43049,-0.68912c-0.1524,-0.23583 -0.29812,-0.45663 -0.43717,-0.66243zM354.40215,197.92214h2.37772v0.85932h-2.37772v-0.85932M353.97666,197.92214h0.88435v3.5207c0,0.17242 0.02503,0.28088 0.07509,0.32537c0.05006,0.0445 0.15851,0.06674 0.32537,0.06674c0.03893,0 0.10568,0 0.20023,0c0.09455,0 0.19745,0 0.30869,0c0.11124,0 0.21692,0 0.31703,0c0.10011,0 0.17242,0 0.21692,0c0.11124,0 0.19467,-0.03337 0.25029,-0.10011c0.05562,-0.06674 0.09567,-0.19634 0.12014,-0.38878c0.02559,-0.19133 0.04672,-0.4761 0.06341,-0.85431c0.06674,0.05006 0.14739,0.10011 0.24194,0.15017c0.09455,0.05006 0.193,0.09288 0.29534,0.12848c0.10345,0.03671 0.19411,0.06619 0.27198,0.08843c-0.03337,0.4672 -0.08788,0.83151 -0.16352,1.09292c-0.07453,0.26141 -0.19077,0.44607 -0.34873,0.55397c-0.15907,0.10901 -0.38044,0.16352 -0.66409,0.16352c-0.03893,0 -0.10011,0 -0.18354,0c-0.08343,0 -0.17631,0 -0.27865,0c-0.10345,0 -0.20802,0 -0.31369,0c-0.10568,0 -0.19912,0 -0.28032,0c-0.08009,0 -0.1396,0 -0.17854,0c-0.29478,0 -0.5256,-0.03504 -0.69246,-0.10512c-0.16686,-0.06897 -0.28644,-0.19244 -0.35874,-0.37042c-0.07231,-0.17798 -0.10846,-0.42549 -0.10846,-0.74252v-3.52904M353.95163,195.36921h3.27875v3.94619h-0.86766v-3.08687h-2.41109v-0.85932M349.98876,196.8459h3.45396v5.77328h-0.71749v-5.03076h-2.04401v5.13922h-0.69246v-5.88174M350.35585,200.20809h2.71144v0.62572h-2.71144v-0.62572M350.35585,201.49289h2.71144v0.7008h-2.71144v-0.7008M349.8219,195.29413h3.79601v0.79257h-3.79601v-0.79257M350.96488,195.48601h0.59235v1.93555h-0.59235v-1.93555M351.94099,195.48601h0.60069v1.93555h-0.60069v-1.93555M351.10671,197.41322h0.42549v0.84263c0,0.1613 -0.01391,0.33372 -0.04171,0.51726c-0.02781,0.18354 -0.07954,0.36542 -0.15518,0.54562c-0.07453,0.18132 -0.1841,0.34706 -0.32871,0.49724c-0.03337,-0.0445 -0.0851,-0.09733 -0.15518,-0.15851c-0.06897,-0.06118 -0.13126,-0.10568 -0.18688,-0.13349c0.13349,-0.12792 0.22915,-0.26586 0.287,-0.41381c0.05896,-0.14683 0.09956,-0.29423 0.12181,-0.44217c0.02225,-0.14683 0.03337,-0.287 0.03337,-0.42048v-0.83429M351.86591,197.41322h0.44217v1.59349c0,0.05006 0.00278,0.08176 0.00834,0.09511c0.00556,0.01446 0.02781,0.02169 0.06674,0.02169c0.01112,0 0.02892,0 0.05339,0c0.02559,0 0.05061,0 0.07509,0c0.02559,0 0.04672,0 0.06341,0c0.06118,0 0.10011,-0.00834 0.1168,-0.02503c0.0445,0.03893 0.10401,0.07342 0.17854,0.10345c0.07564,0.03115 0.14962,0.05506 0.22192,0.07175c-0.02781,0.10568 -0.0762,0.18354 -0.14517,0.2336c-0.07008,0.05006 -0.16908,0.07509 -0.29701,0.07509c-0.02225,0 -0.05451,0 -0.09678,0c-0.04116,0 -0.08287,0 -0.12514,0c-0.04116,0 -0.07564,0 -0.10345,0c-0.17242,0 -0.292,-0.03782 -0.35874,-0.11346c-0.06674,-0.07453 -0.10011,-0.2286 -0.10011,-0.4622zM361.59372,197.59676h0.876v2.21921h-0.876v-2.21921M360.62594,195.65287h2.59464v0.80092h-2.9951l0.40046,-0.80092M362.97029,195.65287h0.20857l0.1752,-0.05006l0.57566,0.43383c-0.15017,0.21692 -0.32259,0.44495 -0.51726,0.68412c-0.19467,0.23916 -0.39768,0.46553 -0.60903,0.67911c-0.21135,0.21469 -0.41714,0.40268 -0.61737,0.56398c-0.06118,-0.08343 -0.1435,-0.17687 -0.24695,-0.28032c-0.10234,-0.10234 -0.18966,-0.18688 -0.26197,-0.25362c0.1613,-0.13905 0.32648,-0.30312 0.49557,-0.49223c0.17019,-0.18911 0.32482,-0.38099 0.46386,-0.57566c0.13905,-0.19467 0.25029,-0.36987 0.33372,-0.5256v-0.18354M359.06582,197.30476h0.86766v3.90447c0,0.16686 0.02503,0.29311 0.07509,0.37877c0.05006,0.08677 0.15128,0.14517 0.30368,0.1752c0.15351,0.03115 0.38044,0.04672 0.68078,0.04672c0.08899,0 0.22971,0 0.42215,0c0.19133,0 0.41047,0 0.65742,0c0.24806,0 0.49557,0 0.74252,0c0.24806,0 0.47332,0 0.67577,0c0.20357,0 0.35819,0 0.46386,0c0.27253,0 0.47554,-0.03059 0.60903,-0.09177c0.13349,-0.06118 0.22915,-0.18243 0.287,-0.36375c0.05896,-0.18021 0.1079,-0.44551 0.14683,-0.79591c0.11124,0.06674 0.24862,0.13071 0.41214,0.19189c0.16463,0.06118 0.30813,0.1029 0.43049,0.12514c-0.03893,0.33928 -0.09455,0.62127 -0.16686,0.84597c-0.07231,0.22581 -0.1752,0.40546 -0.30869,0.53895c-0.13349,0.13349 -0.31147,0.22804 -0.53394,0.28366c-0.22248,0.05562 -0.50335,0.08343 -0.84263,0.08343c-0.06118,0 -0.16797,0 -0.32037,0c-0.15351,0 -0.33205,0 -0.53561,0c-0.20245,0 -0.41492,0 -0.6374,0c-0.22248,0 -0.4355,0 -0.63907,0c-0.20245,0 -0.37877,0 -0.52894,0c-0.15017,0 -0.25307,0 -0.30869,0c-0.49501,0 -0.88601,-0.03893 -1.17301,-0.1168c-0.28588,-0.07787 -0.48722,-0.2197 -0.60403,-0.42549c-0.1168,-0.20579 -0.1752,-0.49779 -0.1752,-0.876v-3.90447M360.60091,194.93538l0.8176,0.30869c-0.22804,0.41158 -0.49946,0.81482 -0.81427,1.20972c-0.31369,0.3949 -0.65019,0.76031 -1.00949,1.09626c-0.35819,0.33705 -0.72361,0.63072 -1.09626,0.88101c-0.02225,-0.06674 -0.06118,-0.15295 -0.1168,-0.25863c-0.05562,-0.10568 -0.1168,-0.21413 -0.18354,-0.32537c-0.06674,-0.11124 -0.12514,-0.20023 -0.1752,-0.26697c0.33372,-0.20023 0.66187,-0.43939 0.98446,-0.71749c0.32259,-0.2781 0.62127,-0.58122 0.89603,-0.90937c0.27587,-0.32815 0.50836,-0.66743 0.69747,-1.01783M359.76662,197.30476h5.23933v3.1119h-0.88435v-2.28595h-4.35499v-0.82595M359.76662,199.257h4.77213v0.85097h-4.77213zM366.59111,196.35367h7.40848v0.876h-7.40848v-0.876M369.30254,198.33094h3.23704v0.86766h-3.23704v-0.86766M372.30598,198.33094h0.9344c0,0 -0.00167,0.02503 -0.00501,0.07509c-0.00223,0.05006 -0.00334,0.10568 -0.00334,0.16686c0,0.06118 -0.00556,0.11124 -0.01669,0.15017c-0.05006,0.77311 -0.10568,1.40161 -0.16686,1.88549c-0.06118,0.48389 -0.13071,0.85932 -0.20857,1.12629c-0.07787,0.26697 -0.1752,0.45886 -0.292,0.57566c-0.1168,0.12792 -0.24361,0.21692 -0.38044,0.26697c-0.13571,0.05006 -0.29534,0.08343 -0.47888,0.10011c-0.15573,0.01669 -0.36319,0.02336 -0.62238,0.02002c-0.25807,-0.00223 -0.52616,-0.0089 -0.80425,-0.02002c-0.00556,-0.13349 -0.03893,-0.28366 -0.10011,-0.45052c-0.06118,-0.16686 -0.13627,-0.31147 -0.22526,-0.43383c0.28922,0.02781 0.56565,0.0445 0.82928,0.05006c0.26475,0.00556 0.4583,0.00834 0.58066,0.00834c0.09455,0 0.17242,-0.00723 0.2336,-0.02169c0.06118,-0.01335 0.11958,-0.03949 0.1752,-0.07842c0.08343,-0.07787 0.15851,-0.24083 0.22526,-0.48889c0.06674,-0.24695 0.12792,-0.59846 0.18354,-1.05454c0.05562,-0.45608 0.1029,-1.03452 0.14183,-1.73532v-0.14183M368.76026,196.9043h1.00115c-0.02225,0.43939 -0.05562,0.88157 -0.10011,1.32652c-0.0445,0.44495 -0.1168,0.88435 -0.21692,1.31818c-0.10011,0.43383 -0.24472,0.84819 -0.43383,1.24309c-0.18911,0.3949 -0.43939,0.7631 -0.75086,1.1046c-0.31147,0.34261 -0.7008,0.64463 -1.168,0.90604c-0.06674,-0.1168 -0.16296,-0.24472 -0.28866,-0.38377c-0.12459,-0.13905 -0.24806,-0.25307 -0.37042,-0.34206c0.43383,-0.22804 0.79146,-0.49223 1.0729,-0.79257c0.28032,-0.30034 0.5028,-0.6246 0.66743,-0.97278c0.16352,-0.34706 0.28421,-0.71137 0.36208,-1.09292c0.07787,-0.38044 0.13071,-0.76699 0.15851,-1.15966c0.02781,-0.39156 0.05006,-0.77645 0.06674,-1.15466M369.6446,195.22738l0.876,-0.33372c0.11124,0.18911 0.22526,0.39768 0.34206,0.62572c0.1168,0.22804 0.20579,0.42271 0.26697,0.584l-0.91772,0.40046c-0.05562,-0.17242 -0.13905,-0.37821 -0.25029,-0.61737c-0.11124,-0.23916 -0.21692,-0.45886 -0.31703,-0.65909zM380.39859,195.49436l0.60069,-0.49223c0.12792,0.08899 0.2653,0.18911 0.41214,0.30034c0.14795,0.11124 0.28588,0.22359 0.41381,0.33705c0.12792,0.11458 0.23082,0.21914 0.30869,0.31369l-0.62572,0.54229c-0.07231,-0.09455 -0.16964,-0.2019 -0.292,-0.32204c-0.12236,-0.11903 -0.25474,-0.23861 -0.39712,-0.35874c-0.14127,-0.11903 -0.28143,-0.22581 -0.42048,-0.32037M374.89228,196.44544h7.49191v0.876h-7.49191v-0.876M375.20097,198.35597h3.6375v0.86766h-3.6375v-0.86766M376.53583,198.83985h0.89269v2.8783h-0.89269v-2.8783M374.90062,201.64306c0.33928,-0.05562 0.73529,-0.12403 1.18803,-0.20524c0.45385,-0.08009 0.93496,-0.16908 1.44332,-0.26697c0.50947,-0.09678 1.01728,-0.19244 1.52341,-0.287l0.06674,0.80092c-0.46164,0.10011 -0.92884,0.20134 -1.40161,0.30368c-0.47276,0.10345 -0.92773,0.20245 -1.3649,0.29701c-0.43606,0.09455 -0.83485,0.17798 -1.19637,0.25029l-0.25863,-0.89269M379.03869,195.01881h0.95943c-0.01112,0.71193 0.00389,1.40272 0.04505,2.07237c0.04227,0.67077 0.10623,1.29259 0.19189,1.86547c0.08677,0.57288 0.19244,1.07623 0.31703,1.51006c0.1257,0.43383 0.26642,0.77144 0.42215,1.01283c0.15573,0.2425 0.31981,0.36375 0.49223,0.36375c0.10011,0 0.1752,-0.12125 0.22526,-0.36375c0.05006,-0.24139 0.08621,-0.62905 0.10846,-1.163c0.10011,0.10011 0.22526,0.20023 0.37543,0.30034c0.15017,0.10011 0.28644,0.17242 0.4088,0.21692c-0.0445,0.51726 -0.11291,0.91605 -0.20524,1.19637c-0.09122,0.28143 -0.21636,0.47777 -0.37543,0.58901c-0.15796,0.11124 -0.36486,0.16686 -0.62071,0.16686c-0.29478,0 -0.55619,-0.10011 -0.78423,-0.30034c-0.22804,-0.20023 -0.42827,-0.48111 -0.60069,-0.84263c-0.17242,-0.36152 -0.31981,-0.7859 -0.44217,-1.27312c-0.12236,-0.48611 -0.22136,-1.01839 -0.29701,-1.59683c-0.07453,-0.57844 -0.13015,-1.18469 -0.16686,-1.81875c-0.0356,-0.63406 -0.05339,-1.27924 -0.05339,-1.93555zM385.03723,197.37151v0.6424h3.84607v-0.6424h-3.84607M385.03723,196.07002v0.6424h3.84607v-0.6424h-3.84607M384.16123,195.37756h5.63979v3.33716h-5.63979v-3.33716M383.07665,201.54295h7.79226v0.85097h-7.79226v-0.85097M385.57952,198.99837h0.85097v3.01178h-0.85097v-3.01178M387.47335,198.99837h0.85097v3.01178h-0.85097v-3.01178M389.54239,199.18191l0.7592,0.34206c-0.1613,0.28922 -0.34095,0.58122 -0.53895,0.876c-0.19689,0.29478 -0.38155,0.54785 -0.55397,0.7592l-0.68412,-0.31703c0.1168,-0.15017 0.23749,-0.31981 0.36208,-0.50892c0.1257,-0.18911 0.24806,-0.38377 0.36709,-0.584c0.12014,-0.20023 0.21636,-0.38934 0.28866,-0.56732M383.71071,199.54066l0.69246,-0.30034c0.10011,0.17242 0.20579,0.35708 0.31703,0.55397c0.11124,0.198 0.21525,0.38878 0.31202,0.57232c0.09789,0.18354 0.17464,0.34484 0.23026,0.48389l-0.72583,0.3504c-0.05562,-0.14461 -0.12904,-0.31314 -0.22025,-0.50558c-0.09233,-0.19133 -0.18966,-0.38878 -0.292,-0.59235c-0.10345,-0.20245 -0.20802,-0.38989 -0.31369,-0.56231zM394.84847,198.05562h0.98446v3.64584c0,0.25585 -0.03504,0.45441 -0.10512,0.59568c-0.06897,0.14239 -0.19522,0.24973 -0.37877,0.32204c-0.18354,0.06674 -0.4088,0.10957 -0.67577,0.12848c-0.26697,0.02002 -0.584,0.03003 -0.95109,0.03003c-0.02225,-0.13905 -0.06396,-0.29923 -0.12514,-0.48055c-0.06118,-0.18021 -0.12514,-0.33705 -0.19189,-0.47054c0.16686,0.00556 0.33538,0.01112 0.50558,0.01669c0.16908,0.00556 0.32037,0.00667 0.45385,0.00334c0.13349,-0.00223 0.22526,-0.00334 0.27532,-0.00334c0.07787,0 0.13182,-0.01112 0.16185,-0.03337c0.03115,-0.02225 0.04672,-0.06396 0.04672,-0.12514v-3.62916M392.87955,199.12351l0.9344,0.24194c-0.12236,0.33372 -0.27253,0.66298 -0.45052,0.9878c-0.17798,0.32593 -0.36709,0.63072 -0.56732,0.91438c-0.20023,0.28366 -0.40324,0.53116 -0.60903,0.74252c-0.06118,-0.05562 -0.1435,-0.1168 -0.24695,-0.18354c-0.10234,-0.06674 -0.20524,-0.13349 -0.30869,-0.20023c-0.10234,-0.06674 -0.19244,-0.1168 -0.27031,-0.15017c0.31147,-0.28366 0.6018,-0.63684 0.871,-1.05955c0.27031,-0.42271 0.48611,-0.85376 0.64741,-1.29315M396.77567,199.44888l0.83429,-0.3504c0.19467,0.26141 0.38488,0.54229 0.57065,0.84263c0.18688,0.30034 0.35652,0.59624 0.50892,0.88768c0.15351,0.29256 0.2692,0.55842 0.34706,0.79758l-0.92606,0.40046c-0.06118,-0.22804 -0.16296,-0.49112 -0.30535,-0.78924c-0.14127,-0.29701 -0.30257,-0.60291 -0.48389,-0.91772c-0.18021,-0.31369 -0.36208,-0.60403 -0.54562,-0.871M392.36229,195.54441h5.90676v0.89269h-5.90676v-0.89269M391.61143,197.56339h7.42517v0.89269h-7.42517z" fill="#ffffff" fill-rule="nonzero" stroke-width="1"/><path d="M250.07433,205.0236h2.67807v0.78423h-2.67807v-0.78423M249.89079,207.75173h3.1703v0.79257h-3.1703v-0.79257M251.16725,208.11881h0.85932v3.35384c0,0.21135 -0.02503,0.38099 -0.07509,0.50892c-0.05006,0.12792 -0.14739,0.22526 -0.292,0.292c-0.14461,0.06674 -0.3187,0.10957 -0.52226,0.12848c-0.20245,0.02002 -0.44551,0.03003 -0.72917,0.03003c-0.01669,-0.12792 -0.05117,-0.2742 -0.10345,-0.43884c-0.05339,-0.16352 -0.11068,-0.30368 -0.17186,-0.42048c0.18911,0.00556 0.36987,0.00834 0.54229,0.00834c0.17242,0 0.28644,0 0.34206,0c0.06118,0 0.10123,-0.01001 0.12014,-0.03003c0.02002,-0.01891 0.03003,-0.05061 0.03003,-0.09511v-3.33716M252.47709,205.0236h0.19189l0.15851,-0.04171l0.54229,0.37543c-0.13349,0.21692 -0.28644,0.43939 -0.45886,0.66743c-0.17242,0.22804 -0.3504,0.44607 -0.53394,0.65408c-0.18354,0.20913 -0.36152,0.38878 -0.53394,0.53895c-0.05562,-0.07787 -0.13349,-0.16853 -0.2336,-0.27198c-0.10011,-0.10234 -0.18632,-0.18132 -0.25863,-0.23694c0.13905,-0.13349 0.28088,-0.28922 0.42549,-0.4672c0.14461,-0.17798 0.28088,-0.36152 0.4088,-0.55063c0.12792,-0.18911 0.22526,-0.35874 0.292,-0.50892v-0.15851M252.80246,207.75173h0.1168l0.12514,-0.02503l0.55063,0.13349c-0.09455,0.33928 -0.19745,0.68523 -0.30869,1.03786c-0.11124,0.35374 -0.21692,0.65297 -0.31703,0.89769l-0.66743,-0.15017c0.05562,-0.15017 0.11402,-0.32537 0.1752,-0.5256c0.06118,-0.20023 0.11958,-0.41047 0.1752,-0.63072c0.05562,-0.21914 0.10568,-0.42604 0.15017,-0.62071v-0.1168M250.24953,206.80898l0.47554,-0.57566c0.20579,0.12236 0.43105,0.25974 0.67577,0.41214c0.24472,0.15351 0.48278,0.30368 0.71415,0.45052c0.23026,0.14795 0.42048,0.27754 0.57065,0.38878l-0.49223,0.65909c-0.13905,-0.1168 -0.32259,-0.25307 -0.55063,-0.4088c-0.22804,-0.15573 -0.46442,-0.31592 -0.70915,-0.48055c-0.24472,-0.16352 -0.47276,-0.31202 -0.68412,-0.44551M253.46155,204.99023h4.24653v0.79257h-4.24653v-0.79257M255.18018,205.39903l0.9928,0.1168c-0.08343,0.25585 -0.16686,0.50725 -0.25029,0.7542c-0.08343,0.24806 -0.1613,0.46108 -0.2336,0.63907l-0.76755,-0.15017c0.05562,-0.19467 0.10735,-0.41881 0.15518,-0.67244c0.04672,-0.25251 0.0812,-0.48166 0.10345,-0.68745M255.11344,207.70167h0.84263v1.57681c0,0.26697 -0.02781,0.5434 -0.08343,0.82928c-0.05562,0.287 -0.16686,0.56787 -0.33372,0.84263c-0.16686,0.27587 -0.40713,0.53728 -0.72083,0.78423c-0.3148,0.24806 -0.73362,0.46943 -1.25644,0.66409c-0.05562,-0.08899 -0.13627,-0.19634 -0.24194,-0.32204c-0.10568,-0.12459 -0.21135,-0.22581 -0.31703,-0.30368c0.47276,-0.1613 0.84986,-0.34373 1.1313,-0.54729c0.28032,-0.20245 0.49001,-0.41659 0.62905,-0.6424c0.13905,-0.2247 0.23249,-0.45107 0.28032,-0.67911c0.04672,-0.22804 0.07008,-0.44217 0.07008,-0.6424v-1.56012M255.68075,211.12225l0.584,-0.54229c0.1613,0.12792 0.33538,0.26975 0.52226,0.42549c0.18577,0.15573 0.36486,0.30869 0.53728,0.45886c0.17242,0.15017 0.31425,0.28366 0.42549,0.40046l-0.61737,0.60069c-0.10011,-0.12236 -0.2336,-0.26141 -0.40046,-0.41714c-0.16686,-0.15573 -0.34317,-0.31592 -0.52894,-0.48055c-0.18688,-0.16352 -0.36097,-0.31202 -0.52226,-0.44551M253.7452,206.45024h3.6375v3.97956h-0.86766v-3.17864h-1.94389v3.21201h-0.82595zM258.99288,205.33229l0.57566,-0.57566c0.15573,0.12236 0.32259,0.25696 0.50057,0.4038c0.17798,0.14795 0.34651,0.29423 0.50558,0.43884c0.15796,0.14461 0.28421,0.2781 0.37877,0.40046l-0.60069,0.65075c-0.08899,-0.12236 -0.21024,-0.2603 -0.36375,-0.41381c-0.1524,-0.1524 -0.31592,-0.30924 -0.49056,-0.47054c-0.17576,-0.1613 -0.34428,-0.30591 -0.50558,-0.43383M259.56854,212.37369l-0.20023,-0.86766l0.21692,-0.31703l1.79372,-1.24309c0.01669,0.08343 0.04171,0.17631 0.07509,0.27865c0.03337,0.10345 0.06952,0.20357 0.10846,0.30034c0.03893,0.09789 0.07231,0.17743 0.10011,0.23861c-0.41714,0.29478 -0.75364,0.53673 -1.00949,0.72583c-0.25585,0.18911 -0.45497,0.33928 -0.59735,0.45052c-0.14127,0.11124 -0.24806,0.20023 -0.32037,0.26697c-0.07231,0.06674 -0.12792,0.12236 -0.16686,0.16686M258.32545,207.24281h1.81041v0.88435h-1.81041v-0.88435M261.05357,207.32624h4.9807v0.9344h-4.9807v-0.9344M263.09758,204.68989h0.95109v7.75889h-0.95109v-7.75889M259.56854,212.37369c-0.02225,-0.07787 -0.05951,-0.16964 -0.11179,-0.27532c-0.05339,-0.10568 -0.10901,-0.20857 -0.16686,-0.30869c-0.05896,-0.10011 -0.11624,-0.18076 -0.17186,-0.24194c0.09455,-0.06674 0.19355,-0.16575 0.29701,-0.29701c0.10234,-0.13015 0.15351,-0.287 0.15351,-0.47054v-3.53738h0.90937v4.23819c0,0 -0.03059,0.02058 -0.09177,0.06174c-0.06118,0.04227 -0.13627,0.09511 -0.22526,0.15851c-0.08899,0.06452 -0.17798,0.13682 -0.26697,0.21692c-0.08899,0.0812 -0.16519,0.16074 -0.2286,0.23861c-0.06452,0.07787 -0.09678,0.15017 -0.09678,0.21692zM267.41085,204.9068h6.15705v0.65075h-6.15705v-0.65075M267.77794,208.26899h6.19877v0.61737h-6.19877v-0.61737M268.53714,209.15333h4.9807v0.54229h-4.9807v-0.54229M267.76126,209.97928h6.53248v0.60069h-6.53248v-0.60069M267.96983,206.73389h1.76035v0.4672h-1.76035v-0.4672M267.78628,207.50144h1.95224v0.45886h-1.95224v-0.45886M271.22355,207.50144h1.97726v0.45886h-1.97726v-0.45886M271.22355,206.73389h1.77704v0.4672h-1.77704v-0.4672M270.03052,205.18212h0.88435v2.92001h-0.88435v-2.92001M266.87691,205.89126h7.24163v1.46001h-0.86766v-0.92606h-5.54802v0.92606h-0.82595v-1.46001M267.37748,208.26899h0.83429v1.15132c0,0.2336 -0.01391,0.485 -0.04171,0.7542c-0.02781,0.27031 -0.07898,0.54451 -0.15351,0.82261c-0.07564,0.2781 -0.18187,0.54618 -0.3187,0.80425c-0.13571,0.25919 -0.31202,0.49446 -0.52894,0.70581c-0.0445,-0.05562 -0.10568,-0.12125 -0.18354,-0.19689c-0.07787,-0.07453 -0.16018,-0.14683 -0.24695,-0.21692c-0.08565,-0.06897 -0.16185,-0.12014 -0.2286,-0.15351c0.26141,-0.25029 0.4533,-0.52282 0.57566,-0.8176c0.12236,-0.29478 0.20134,-0.59123 0.23694,-0.88935c0.03671,-0.29701 0.05506,-0.57343 0.05506,-0.82928v-1.13463M271.21521,210.29631c0.16686,0.27253 0.40324,0.4989 0.70915,0.67911c0.30591,0.18132 0.67188,0.32315 1.09792,0.42549c0.42493,0.10345 0.89881,0.17186 1.42163,0.20524c-0.07787,0.07787 -0.15851,0.18354 -0.24194,0.31703c-0.08343,0.13349 -0.15017,0.25585 -0.20023,0.36709c-0.57288,-0.06118 -1.08346,-0.16686 -1.53175,-0.31703c-0.44718,-0.15017 -0.83206,-0.35207 -1.15466,-0.60569c-0.32259,-0.25251 -0.58956,-0.56231 -0.80092,-0.9294l0.7008,-0.14183M273.1591,210.51322l0.65909,0.33372c-0.20023,0.13349 -0.41158,0.25696 -0.63406,0.37042c-0.22248,0.11458 -0.42549,0.21358 -0.60903,0.29701l-0.54229,-0.30034c0.12236,-0.06674 0.25196,-0.14072 0.38878,-0.22192c0.13571,-0.08009 0.2692,-0.16352 0.40046,-0.25029c0.13015,-0.08565 0.2425,-0.16185 0.33705,-0.2286M268.60389,212.44877l-0.04171,-0.584l0.3504,-0.24194l2.30264,-0.32537c-0.02225,0.10011 -0.04171,0.21525 -0.0584,0.3454c-0.01669,0.13126 -0.02503,0.23861 -0.02503,0.32204c-0.5117,0.08343 -0.92439,0.15128 -1.23808,0.20357c-0.3148,0.05339 -0.55842,0.09678 -0.73084,0.13015c-0.17242,0.03337 -0.29756,0.06118 -0.37543,0.08343c-0.07787,0.02225 -0.13905,0.0445 -0.18354,0.06674M268.60389,212.44877c-0.02225,-0.06674 -0.05562,-0.1435 -0.10011,-0.23026c-0.0445,-0.08565 -0.09344,-0.17186 -0.14683,-0.25863c-0.05228,-0.08565 -0.10067,-0.15629 -0.14517,-0.21191c0.09455,-0.05006 0.19634,-0.13515 0.30535,-0.25529c0.1079,-0.11903 0.16185,-0.27309 0.16185,-0.4622v-0.80092l0.86766,0.01669v1.35989c0,0 -0.03226,0.01947 -0.09678,0.0584c-0.06341,0.03893 -0.14072,0.09177 -0.23193,0.15851c-0.09233,0.06674 -0.18577,0.13627 -0.28032,0.20857c-0.09455,0.07231 -0.17409,0.14572 -0.23861,0.22025c-0.06341,0.07564 -0.09511,0.14127 -0.09511,0.19689zM276.70483,207.04258h5.83168v0.70915h-5.83168v-0.70915M276.77992,209.47036h4.63865v0.70915h-4.63865v-0.70915M277.88952,206.44189h0.85097v1.96058h1.66858v-1.96058h0.876v2.6447h-3.39556v-2.6447M281.18496,209.47036h0.1752l0.15851,-0.03337l0.55897,0.292c-0.22804,0.43383 -0.5256,0.80481 -0.89269,1.11294c-0.36709,0.30924 -0.78423,0.56676 -1.25143,0.77255c-0.4672,0.20579 -0.97056,0.36987 -1.51006,0.49223c-0.53951,0.12236 -1.10126,0.21692 -1.68526,0.28366c-0.03337,-0.10568 -0.0851,-0.23249 -0.15518,-0.38044c-0.06897,-0.14683 -0.1396,-0.27031 -0.21191,-0.37042c0.53394,-0.03893 1.0512,-0.10735 1.55178,-0.20524c0.50057,-0.09678 0.96333,-0.22581 1.38826,-0.38711c0.42604,-0.1613 0.80036,-0.36319 1.12295,-0.60569c0.32259,-0.24139 0.57288,-0.52616 0.75086,-0.85431v-0.1168M278.17318,210.01265c0.27253,0.32259 0.63573,0.59791 1.08958,0.82595c0.45274,0.22804 0.97667,0.40991 1.5718,0.54562c0.59513,0.13682 1.23475,0.23026 1.91886,0.28032c-0.06118,0.06118 -0.12514,0.13905 -0.19189,0.2336c-0.06674,0.09455 -0.12904,0.18911 -0.18688,0.28366c-0.05896,0.09455 -0.10512,0.18076 -0.13849,0.25863c-0.71193,-0.07231 -1.37268,-0.19634 -1.98227,-0.37209c-0.60847,-0.17464 -1.15187,-0.40825 -1.6302,-0.7008c-0.47833,-0.29144 -0.88435,-0.64574 -1.21806,-1.06288l0.76755,-0.292M276.05409,205.40738h6.56585v0.83429h-6.56585v-0.83429M275.63694,205.40738h0.88435v2.23589c0,0.34484 -0.00945,0.72416 -0.02837,1.13797c-0.02002,0.41492 -0.05784,0.83929 -0.11346,1.27312c-0.05562,0.43383 -0.13627,0.85376 -0.24194,1.25978c-0.10568,0.40602 -0.24472,0.77867 -0.41714,1.11795c-0.06118,-0.0445 -0.14183,-0.09177 -0.24194,-0.14183c-0.10011,-0.05006 -0.20134,-0.099 -0.30368,-0.14683c-0.10345,-0.04672 -0.19411,-0.07842 -0.27198,-0.09511c0.16686,-0.32259 0.30034,-0.67188 0.40046,-1.04787c0.10011,-0.37487 0.17409,-0.75976 0.22192,-1.15466c0.04672,-0.3949 0.07731,-0.78034 0.09177,-1.15632c0.01335,-0.37487 0.02002,-0.72083 0.02002,-1.03786v-2.24424M278.55695,204.80669l0.90103,-0.20857c0.09455,0.17798 0.18243,0.37265 0.26364,0.584c0.08009,0.21135 0.13682,0.39212 0.17019,0.54229l-0.95943,0.2336c-0.02225,-0.15573 -0.06952,-0.34206 -0.14183,-0.55897c-0.07231,-0.21692 -0.15017,-0.41436 -0.2336,-0.59235zM286.70795,206.62544h0.92606v2.21921h-0.92606v-2.21921M284.22177,207.07595h5.99854v0.74252h-5.99854v-0.74252M283.38749,208.37744h7.61706v0.7592h-7.61706v-0.7592M283.67949,209.70396h7.08311v0.7592h-7.08311v-0.7592M288.37653,209.01985h0.91772v2.47784c0,0.22248 -0.02892,0.39601 -0.08677,0.5206c-0.05896,0.1257 -0.17464,0.22192 -0.34706,0.28866c-0.16686,0.06118 -0.3682,0.09845 -0.60403,0.11179c-0.23694,0.01446 -0.5167,0.02169 -0.83929,0.02169c-0.02781,-0.12792 -0.07397,-0.27142 -0.13849,-0.43049c-0.06341,-0.15796 -0.1257,-0.29256 -0.18688,-0.4038c0.15573,0.00556 0.30869,0.00945 0.45886,0.01168c0.15017,0.00334 0.28199,0.00501 0.39545,0.00501c0.11458,0 0.19689,-0.00278 0.24695,-0.00834c0.07231,0 0.12125,-0.01001 0.14683,-0.03003c0.02447,-0.01891 0.03671,-0.05618 0.03671,-0.11179v-2.45281M284.41366,205.28223h2.67807v0.74252h-2.67807v-0.74252M287.70076,205.28223h3.24538v0.74252h-3.24538v-0.74252M284.51378,204.59811l0.85932,0.2336c-0.17242,0.41158 -0.38655,0.81037 -0.6424,1.19637c-0.25585,0.38711 -0.51726,0.71137 -0.78423,0.97278c-0.06118,-0.05006 -0.13627,-0.10568 -0.22526,-0.16686c-0.08899,-0.06118 -0.18076,-0.12236 -0.27532,-0.18354c-0.09455,-0.06118 -0.17798,-0.11124 -0.25029,-0.15017c0.27253,-0.22804 0.5256,-0.51337 0.7592,-0.85598c0.2336,-0.3415 0.41993,-0.69023 0.55897,-1.0462M287.85927,204.59811l0.85932,0.20857c-0.15017,0.40046 -0.34206,0.78534 -0.57566,1.15466c-0.2336,0.37042 -0.48111,0.678 -0.74252,0.92272c-0.05562,-0.05006 -0.12959,-0.10735 -0.22192,-0.17186c-0.09122,-0.06341 -0.18299,-0.1257 -0.27532,-0.18688c-0.09122,-0.06118 -0.17298,-0.11124 -0.24528,-0.15017c0.25585,-0.21135 0.49056,-0.47554 0.70414,-0.79257c0.21469,-0.31703 0.38044,-0.64518 0.49724,-0.98446M284.78909,205.85789l0.72583,-0.27532c0.10011,0.15573 0.20023,0.33093 0.30034,0.5256c0.10011,0.19467 0.17242,0.36431 0.21692,0.50892l-0.76755,0.30869c-0.03337,-0.14461 -0.09733,-0.31703 -0.19189,-0.51726c-0.09455,-0.20023 -0.18911,-0.38377 -0.28366,-0.55063M288.37653,205.86623l0.72583,-0.28366c0.12792,0.15017 0.2603,0.3237 0.39712,0.5206c0.13571,0.198 0.23694,0.37209 0.30368,0.52226l-0.76755,0.31703c-0.05562,-0.14461 -0.14628,-0.3187 -0.27198,-0.52226c-0.12459,-0.20245 -0.25362,-0.38711 -0.38711,-0.55397M284.81412,210.81357l0.65075,-0.50892c0.16686,0.11124 0.3365,0.23638 0.50892,0.37543c0.17242,0.13905 0.33372,0.28088 0.48389,0.42549c0.15017,0.14461 0.26697,0.28088 0.3504,0.4088l-0.68412,0.56732c-0.08343,-0.12792 -0.19578,-0.26864 -0.33705,-0.42215c-0.14239,-0.1524 -0.29701,-0.30257 -0.46386,-0.45052c-0.16686,-0.14683 -0.3365,-0.27865 -0.50892,-0.39545zM293.44067,207.76841c-0.20579,0 -0.38266,-0.06952 -0.53061,-0.20857c-0.14683,-0.13905 -0.22025,-0.31425 -0.22025,-0.5256c0,-0.21692 0.07342,-0.39656 0.22025,-0.53895c0.14795,-0.14127 0.32482,-0.21191 0.53061,-0.21191c0.20579,0 0.38266,0.07064 0.53061,0.21191c0.14683,0.14239 0.22025,0.32204 0.22025,0.53895c0,0.21135 -0.07342,0.38655 -0.22025,0.5256c-0.14795,0.13905 -0.32482,0.20857 -0.53061,0.20857M293.44067,211.78134c-0.20579,0 -0.38266,-0.06952 -0.53061,-0.20857c-0.14683,-0.13905 -0.22025,-0.31425 -0.22025,-0.5256c0,-0.22248 0.07342,-0.40324 0.22025,-0.54229c0.14795,-0.13905 0.32482,-0.20857 0.53061,-0.20857c0.20579,0 0.38266,0.06952 0.53061,0.20857c0.14683,0.13905 0.22025,0.31981 0.22025,0.54229c0,0.21135 -0.07342,0.38655 -0.22025,0.5256c-0.14795,0.13905 -0.32482,0.20857 -0.53061,0.20857zM300.09829,207.59321h7.58369v0.88435h-7.58369v-0.88435M300.59886,205.19046h6.62425v0.876h-6.62425v-0.876M303.91933,208.31904h0.9344v2.68641c0,0.15573 0.02781,0.25418 0.08343,0.29534c0.05562,0.04227 0.1752,0.06341 0.35874,0.06341c0.0445,0 0.11847,0 0.22192,0c0.10234,0 0.21469,0 0.33705,0c0.12236,0 0.23805,0 0.34706,0c0.1079,0 0.18688,0 0.23694,0c0.12236,0 0.21413,-0.02948 0.27532,-0.08843c0.06118,-0.05784 0.10401,-0.17854 0.12848,-0.36208c0.02559,-0.18354 0.04672,-0.45608 0.06341,-0.8176c0.06674,0.05006 0.15184,0.10011 0.25529,0.15017c0.10234,0.05006 0.20802,0.09455 0.31703,0.13349c0.1079,0.03893 0.20357,0.06952 0.287,0.09177c-0.03337,0.46164 -0.09177,0.8215 -0.1752,1.07957c-0.08343,0.25919 -0.21024,0.43884 -0.38044,0.53895c-0.16908,0.10011 -0.40102,0.15017 -0.6958,0.15017c-0.03893,0 -0.10401,0 -0.19522,0c-0.09233,0 -0.19411,0 -0.30535,0c-0.11124,0 -0.22415,0 -0.33872,0c-0.11346,0 -0.21469,0 -0.30368,0c-0.08899,0 -0.15295,0 -0.19189,0c-0.33372,0 -0.59235,-0.03782 -0.77589,-0.11346c-0.18354,-0.07453 -0.3098,-0.20079 -0.37877,-0.37877c-0.07008,-0.17798 -0.10512,-0.42271 -0.10512,-0.73417v-2.69475M303.27693,205.54086h0.91772c-0.01112,0.42827 -0.03059,0.86043 -0.0584,1.29648c-0.02781,0.43717 -0.07898,0.87378 -0.15351,1.30983c-0.07564,0.43717 -0.19133,0.86265 -0.34706,1.27646c-0.15573,0.41492 -0.36431,0.80704 -0.62572,1.17635c-0.26141,0.37042 -0.59068,0.71137 -0.9878,1.02284c-0.39823,0.31147 -0.88101,0.584 -1.44833,0.8176c-0.06674,-0.1168 -0.15573,-0.24751 -0.26697,-0.39212c-0.11124,-0.14461 -0.22526,-0.26419 -0.34206,-0.35874c0.54507,-0.20023 1.00393,-0.43939 1.37658,-0.71749c0.37265,-0.2781 0.67689,-0.58289 0.91271,-0.91438c0.23694,-0.33038 0.42382,-0.68078 0.56064,-1.0512c0.13571,-0.36931 0.23416,-0.74863 0.29534,-1.13797c0.06118,-0.38934 0.10178,-0.78034 0.12181,-1.17301c0.01891,-0.39156 0.03393,-0.77645 0.04505,-1.15466z" fill="#ffffff" fill-rule="nonzero" stroke-width="1"/></g></g></svg>