<svg version="1.1" xmlns="http://www.w3.org/2000/svg" xmlns:xlink="http://www.w3.org/1999/xlink" width="168.1" height="38.441" viewBox="0,0,168.1,38.441"><g transform="translate(-240,-180)"><g stroke="none" stroke-miterlimit="10"><path d="M248,180h152.1c4.432,0 8,3.568 8,8v22.441c0,4.432 -3.568,8 -8,8h-152.1c-4.432,0 -8,-3.568 -8,-8v-22.441c0,-4.432 3.568,-8 8,-8z" fill-opacity="0.7" fill="#000000" fill-rule="evenodd" stroke-width="0"/><path d="M255.81452,185.3102h0.84679v5.89403h-0.84679v-5.89403M253.28252,188.70576l4.39327,-1.86127l0.33536,0.77134l-4.39327,1.88642l-0.33536,-0.79649M254.1377,186.11508h0.85518v5.4832c0,0.1565 0.01397,0.275 0.04192,0.35549c0.02795,0.08161 0.08664,0.13638 0.17607,0.16433c0.08943,0.02795 0.22078,0.04192 0.39405,0.04192c0.0503,0 0.13303,0 0.24817,0c0.11402,0 0.2437,0 0.38902,0c0.14532,0 0.29233,0 0.441,0c0.14756,0 0.28115,0 0.40076,0c0.12073,0 0.20904,0 0.26494,0c0.1565,0 0.27388,-0.02962 0.35213,-0.08887c0.07825,-0.05813 0.13694,-0.16545 0.17607,-0.32195c0.03913,-0.1565 0.06707,-0.38287 0.08384,-0.67911c0.10061,0.07266 0.22749,0.13974 0.38064,0.20122c0.15427,0.06148 0.29288,0.1034 0.41585,0.12576c-0.03913,0.39685 -0.1034,0.70818 -0.19283,0.93399c-0.08943,0.22693 -0.22358,0.38902 -0.40244,0.48628c-0.17886,0.09837 -0.42759,0.14756 -0.74619,0.14756c-0.05589,0 -0.14644,0 -0.27164,0c-0.12632,0 -0.27053,0 -0.43262,0c-0.16209,0 -0.32307,0 -0.48292,0c-0.15874,0 -0.30071,0 -0.42591,0c-0.12632,0 -0.21463,0 -0.26494,0c-0.35772,0 -0.63999,-0.03913 -0.84679,-0.11738c-0.20681,-0.07825 -0.35046,-0.21687 -0.43094,-0.41585c-0.08161,-0.19786 -0.12241,-0.47845 -0.12241,-0.84176v-5.47482M257.50811,186.9451h-0.06707l0.16768,-0.12576l0.16768,-0.10899l0.62042,0.22637l-0.03354,0.15091c0,0.39685 -0.00112,0.76128 -0.00335,1.09329c-0.00335,0.33313 -0.00615,0.62825 -0.00838,0.88536c-0.00335,0.25711 -0.00894,0.4723 -0.01677,0.64558c-0.00894,0.17327 -0.019,0.30183 -0.03018,0.38567c-0.01677,0.19004 -0.06148,0.33648 -0.13415,0.43933c-0.07266,0.10396 -0.17607,0.1783 -0.31021,0.22302c-0.11738,0.0503 -0.25599,0.07937 -0.41585,0.08719c-0.15874,0.00894 -0.30239,0.01341 -0.43094,0.01341c-0.01118,-0.11179 -0.03521,-0.24202 -0.0721,-0.3907c-0.03577,-0.14756 -0.07602,-0.26885 -0.12073,-0.36387c0.07825,0.00559 0.16209,0.00838 0.25152,0.00838c0.08943,0 0.15371,0 0.19283,0c0.05589,0 0.10061,-0.01286 0.13415,-0.03857c0.03354,-0.02459 0.05589,-0.07602 0.06707,-0.15427c0.01118,-0.04471 0.01956,-0.14141 0.02515,-0.29009c0.00559,-0.14756 0.0095,-0.34431 0.01174,-0.59024c0.00335,-0.24593 0.00503,-0.54385 0.00503,-0.89375c0,-0.34878 0,-0.74954 0,-1.20228M250.89305,187.28047h2.7416v0.84679h-2.7416v-0.84679M251.89914,185.4192h0.84679v5.52513h-0.84679v-5.52513M250.79244,191.01139c0.22917,-0.08384 0.49634,-0.18613 0.80152,-0.30686c0.30406,-0.11961 0.62545,-0.25096 0.96417,-0.39405c0.3376,-0.14197 0.67688,-0.28282 1.01783,-0.42256l0.20122,0.79649c-0.44715,0.21799 -0.90101,0.4343 -1.36158,0.64893c-0.46168,0.21575 -0.88257,0.41026 -1.26265,0.58353zM260.06526,185.56173h6.18747v0.65396h-6.18747v-0.65396M260.43416,188.94052h6.22939v0.62042h-6.22939v-0.62042M261.19711,189.82923h5.00531v0.54497h-5.00531v-0.54497M260.41739,190.65926h6.56475v0.60366h-6.56475v-0.60366M260.62699,187.39784h1.76905v0.46951h-1.76905v-0.46951M260.44254,188.16918h1.96188v0.46113h-1.96188v-0.46113M263.89679,188.16918h1.98703v0.46113h-1.98703v-0.46113M263.89679,187.39784h1.78581v0.46951h-1.78581v-0.46951M262.69787,185.8384h0.88872v2.93444h-0.88872v-2.93444M259.52868,186.55105h7.2774v1.46722h-0.87195v-0.93064h-5.57543v0.93064h-0.83003v-1.46722M260.03172,188.94052h0.83841v1.15701c0,0.23475 -0.01397,0.4874 -0.04192,0.75792c-0.02795,0.27164 -0.07993,0.5472 -0.15594,0.82667c-0.0749,0.27947 -0.1811,0.54888 -0.3186,0.80823c-0.13638,0.26047 -0.31357,0.4969 -0.53155,0.7093c-0.04471,-0.05589 -0.1062,-0.12185 -0.18445,-0.19786c-0.07825,-0.0749 -0.16097,-0.14756 -0.24817,-0.21799c-0.08608,-0.06931 -0.16265,-0.12073 -0.22972,-0.15427c0.2627,-0.25152 0.45554,-0.5254 0.5785,-0.82164c0.12297,-0.29624 0.20234,-0.59415 0.23811,-0.89375c0.03689,-0.29847 0.05534,-0.57627 0.05534,-0.83338v-1.14024M263.88841,190.97786c0.16768,0.27388 0.40523,0.50137 0.71265,0.68247c0.30742,0.18221 0.67464,0.32474 1.10167,0.42759c0.42815,0.10396 0.90492,0.17271 1.43033,0.20625c-0.07825,0.07825 -0.1593,0.18445 -0.24314,0.3186c-0.08384,0.13415 -0.15091,0.25711 -0.20122,0.3689c-0.57571,-0.06148 -1.08826,-0.16768 -1.53764,-0.3186c-0.45051,-0.15091 -0.83785,-0.35381 -1.16204,-0.60869c-0.32419,-0.25376 -0.59248,-0.56509 -0.80487,-0.93399l0.70426,-0.14253M265.84191,191.19584l0.66234,0.33536c-0.20122,0.13415 -0.41362,0.25823 -0.63719,0.37225c-0.22358,0.11514 -0.42759,0.21463 -0.61204,0.29847l-0.54497,-0.30183c0.12297,-0.06707 0.25264,-0.14141 0.38902,-0.22302c0.1375,-0.08049 0.27164,-0.16433 0.40244,-0.25152c0.13191,-0.08608 0.24538,-0.16265 0.34039,-0.22972M261.26419,193.14096l-0.04192,-0.58689l0.35213,-0.24314l2.31401,-0.32698c-0.02236,0.10061 -0.04192,0.21631 -0.05869,0.3471c-0.01677,0.13191 -0.02515,0.23979 -0.02515,0.32363c-0.51422,0.08384 -0.92952,0.15203 -1.24588,0.20457c-0.31524,0.05366 -0.5595,0.09726 -0.73277,0.13079c-0.17327,0.03354 -0.29903,0.06148 -0.37728,0.08384c-0.07825,0.02236 -0.13974,0.04471 -0.18445,0.06707M261.26419,193.14096c-0.02236,-0.06707 -0.05589,-0.14421 -0.10061,-0.2314c-0.04471,-0.08608 -0.0939,-0.17271 -0.14756,-0.25991c-0.05254,-0.08608 -0.10117,-0.15706 -0.14588,-0.21296c0.09502,-0.0503 0.19675,-0.13582 0.30518,-0.25655c0.10955,-0.11961 0.16433,-0.27444 0.16433,-0.46448v-0.80487l0.87195,0.01677v1.36661c0,0 -0.03186,0.01956 -0.09558,0.05869c-0.06484,0.03913 -0.14309,0.09223 -0.23475,0.1593c-0.09278,0.06707 -0.18669,0.13694 -0.28171,0.2096c-0.09502,0.07266 -0.17495,0.14644 -0.23979,0.22134c-0.06372,0.07602 -0.09558,0.14197 -0.09558,0.19786zM270.57054,187.88412h4.18367v0.71265h-4.18367v-0.71265M270.57054,189.09982h4.18367v0.71265h-4.18367v-0.71265M270.99813,192.12648h3.32849v0.72103h-3.32849v-0.72103M269.97527,186.64327h5.40775v0.72942h-5.40775v-0.72942M270.45316,190.34905h4.40165v2.74999h-0.79649v-2.02895h-2.84221v2.05411h-0.76295v-2.77514M271.88685,185.58688l0.76295,-0.29344c0.11738,0.17327 0.23364,0.36331 0.34878,0.57012c0.11402,0.20681 0.20178,0.38846 0.26326,0.54497l-0.78811,0.34375c-0.05589,-0.1565 -0.14085,-0.34375 -0.25488,-0.56174c-0.11514,-0.21799 -0.22581,-0.41921 -0.33201,-0.60366M269.38,185.34374l0.79649,0.24314c-0.16209,0.46951 -0.35493,0.93902 -0.5785,1.40853c-0.22358,0.46951 -0.46839,0.91107 -0.73445,1.32469c-0.26494,0.41362 -0.53714,0.78252 -0.81661,1.1067c-0.02795,-0.07266 -0.06875,-0.16377 -0.12241,-0.27332c-0.05254,-0.10843 -0.11067,-0.21855 -0.17439,-0.33033c-0.06484,-0.11179 -0.12241,-0.20401 -0.17271,-0.27668c0.24034,-0.25711 0.4723,-0.55894 0.69588,-0.90548c0.22358,-0.34654 0.43038,-0.71544 0.62042,-1.1067c0.19004,-0.39126 0.35213,-0.78811 0.48628,-1.19054M268.70927,187.6326l0.82164,-0.82164v0.00838v6.34677h-0.82164zM278.15816,187.86735v0.46951h3.48779v-0.46951h-3.48779M278.15816,188.99082v0.46951h3.48779v-0.46951h-3.48779M278.15816,186.75227v0.46951h3.48779v-0.46951h-3.48779M277.29459,186.06477h5.25683v4.09144h-5.25683v-4.09144M279.48285,185.22636l1.08155,0.14253c-0.08943,0.19004 -0.18445,0.3717 -0.28506,0.54497c-0.10061,0.17327 -0.19004,0.32419 -0.26829,0.45274l-0.82164,-0.16768c0.05589,-0.15091 0.11179,-0.3158 0.16768,-0.49466c0.05589,-0.17886 0.09781,-0.33816 0.12576,-0.47789M277.88148,190.68441h0.90548v1.20731c0,0.12297 0.03633,0.20122 0.10899,0.23475c0.07266,0.03354 0.23475,0.0503 0.48628,0.0503c0.04471,0 0.11626,0 0.21463,0c0.09726,0 0.21016,0 0.33872,0c0.12856,0 0.25711,0 0.38567,0c0.12856,0 0.24593,0 0.35213,0c0.1062,0 0.19004,0 0.25152,0c0.13974,0 0.24482,-0.02124 0.31524,-0.06372c0.06931,-0.04136 0.11794,-0.12912 0.14588,-0.26326c0.02795,-0.13415 0.0503,-0.33536 0.06707,-0.60366c0.06707,0.0503 0.1498,0.09614 0.24817,0.1375c0.09726,0.04248 0.19786,0.08049 0.30183,0.11402c0.10285,0.03354 0.19619,0.05869 0.28003,0.07546c-0.03913,0.38008 -0.10173,0.67352 -0.1878,0.88033c-0.08719,0.20681 -0.21575,0.34766 -0.38567,0.42256c-0.17104,0.07602 -0.41026,0.11402 -0.71768,0.11402c-0.0503,0 -0.13247,0 -0.24649,0c-0.11514,0 -0.2437,0 -0.38567,0c-0.14309,0 -0.2873,0 -0.43262,0c-0.14532,0 -0.275,0 -0.38902,0c-0.11514,0 -0.19507,0 -0.23979,0c-0.37449,0 -0.66514,-0.03242 -0.87195,-0.09726c-0.20681,-0.06372 -0.34934,-0.17551 -0.42759,-0.33536c-0.07825,-0.15874 -0.11738,-0.37505 -0.11738,-0.64893v-1.22408M279.22294,190.41612l0.6875,-0.38567c0.13974,0.12297 0.28115,0.25991 0.42424,0.41082c0.14197,0.15091 0.27053,0.30183 0.38567,0.45274c0.11402,0.15091 0.20457,0.29065 0.27164,0.41921l-0.72942,0.43597c-0.06148,-0.12856 -0.14812,-0.27109 -0.25991,-0.42759c-0.11179,-0.1565 -0.23587,-0.31468 -0.37225,-0.47454c-0.1375,-0.15874 -0.27332,-0.30239 -0.40747,-0.43094M282.01484,190.76825l0.80487,-0.33536c0.12297,0.17886 0.24761,0.37449 0.37393,0.58689c0.1252,0.2124 0.23811,0.41921 0.33872,0.62042c0.10061,0.20122 0.17327,0.38567 0.21799,0.55335l-0.85518,0.37728c-0.03913,-0.16768 -0.10452,-0.35493 -0.19619,-0.56174c-0.09278,-0.20681 -0.19898,-0.41921 -0.3186,-0.63719c-0.12073,-0.21799 -0.24258,-0.41921 -0.36555,-0.60366M276.85024,190.5838l0.79649,0.33536c-0.07266,0.18445 -0.15091,0.38679 -0.23475,0.60701c-0.08384,0.22134 -0.17159,0.43541 -0.26326,0.64222c-0.09278,0.20681 -0.18669,0.39405 -0.28171,0.56174l-0.83841,-0.39405c0.1062,-0.1565 0.2096,-0.33536 0.31021,-0.53658c0.10061,-0.20122 0.19563,-0.40691 0.28506,-0.61707c0.08943,-0.20904 0.16489,-0.40859 0.22637,-0.59863zM286.22367,188.43747c-0.20681,0 -0.38399,-0.06987 -0.53155,-0.2096c-0.14868,-0.13974 -0.22302,-0.3158 -0.22302,-0.5282c0,-0.21799 0.07434,-0.39852 0.22302,-0.54161c0.14756,-0.14197 0.32474,-0.21296 0.53155,-0.21296c0.20681,0 0.38455,0.07099 0.53323,0.21296c0.14756,0.14309 0.22134,0.32363 0.22134,0.54161c0,0.2124 -0.07378,0.38846 -0.22134,0.5282c-0.14868,0.13974 -0.32642,0.2096 -0.53323,0.2096M286.22367,192.47023c-0.20681,0 -0.38399,-0.06987 -0.53155,-0.2096c-0.14868,-0.13974 -0.22302,-0.3158 -0.22302,-0.5282c0,-0.22358 0.07434,-0.40523 0.22302,-0.54497c0.14756,-0.13974 0.32474,-0.2096 0.53155,-0.2096c0.20681,0 0.38455,0.06987 0.53323,0.2096c0.14756,0.13974 0.22134,0.32139 0.22134,0.54497c0,0.2124 -0.07378,0.38846 -0.22134,0.5282c-0.14868,0.13974 -0.32642,0.2096 -0.53323,0.2096zM295.55517,186.5762l0.77134,-0.41921c0.16209,0.19563 0.32419,0.40914 0.48628,0.64055c0.16209,0.23252 0.31021,0.45889 0.44436,0.67911c0.13415,0.22134 0.24314,0.42144 0.32698,0.6003l-0.81326,0.49466c-0.07266,-0.17886 -0.17439,-0.38567 -0.30518,-0.62042c-0.13191,-0.23475 -0.27723,-0.4723 -0.43597,-0.71265c-0.15986,-0.24034 -0.31804,-0.46113 -0.47454,-0.66234M297.85242,190.68441l0.72103,-0.51143c0.24593,0.23475 0.50472,0.49019 0.77637,0.76631c0.27053,0.27723 0.52764,0.55391 0.77134,0.83003c0.24258,0.27723 0.43653,0.52484 0.58186,0.74283l-0.79649,0.59527c-0.13415,-0.21799 -0.3158,-0.46951 -0.54497,-0.75457c-0.22917,-0.28506 -0.47622,-0.57291 -0.74115,-0.86356c-0.26606,-0.29065 -0.52205,-0.55894 -0.76798,-0.80487M298.77467,185.66233l0.96417,0.04192c-0.05589,0.98373 -0.14924,1.86686 -0.28003,2.64938c-0.13191,0.78252 -0.32922,1.47672 -0.59192,2.08261c-0.2627,0.60701 -0.61483,1.13521 -1.0564,1.5846c-0.44156,0.45051 -0.99491,0.83506 -1.66005,1.15365c-0.03913,-0.06148 -0.10061,-0.14253 -0.18445,-0.24314c-0.08384,-0.10061 -0.17215,-0.2001 -0.26494,-0.29847c-0.09167,-0.09726 -0.17104,-0.17663 -0.23811,-0.23811c0.64278,-0.2627 1.17266,-0.59248 1.58963,-0.98932c0.41585,-0.39685 0.74283,-0.87083 0.98094,-1.42194c0.23699,-0.55 0.41138,-1.18272 0.52317,-1.89816c0.11179,-0.71544 0.18445,-1.52311 0.21799,-2.42301M293.66037,192.40315l-0.18445,-0.92225l0.31021,-0.3186l2.64099,-1.30792c0.02236,0.12856 0.05869,0.27779 0.10899,0.44771c0.0503,0.17104 0.09223,0.30686 0.12576,0.40747c-0.48069,0.24593 -0.88592,0.45554 -1.2157,0.62881c-0.32977,0.17327 -0.60086,0.31971 -0.81326,0.43933c-0.2124,0.12073 -0.3812,0.21855 -0.5064,0.29344c-0.12632,0.07602 -0.22413,0.14029 -0.29344,0.19283c-0.07043,0.05366 -0.128,0.10005 -0.17271,0.13918M293.66037,192.40315c-0.02795,-0.06707 -0.07099,-0.147 -0.12912,-0.23979c-0.05925,-0.09167 -0.12241,-0.18221 -0.18948,-0.27164c-0.06707,-0.08943 -0.12576,-0.1593 -0.17607,-0.2096c0.07266,-0.0503 0.15371,-0.11905 0.24314,-0.20625c0.08943,-0.08608 0.16936,-0.18948 0.23979,-0.31021c0.06931,-0.11961 0.10396,-0.24929 0.10396,-0.38902v-4.87116h0.98094v5.42452c0,0 -0.03633,0.02515 -0.10899,0.07546c-0.07266,0.0503 -0.16209,0.11738 -0.26829,0.20122c-0.1062,0.08384 -0.2124,0.17327 -0.3186,0.26829c-0.1062,0.09502 -0.19563,0.19004 -0.26829,0.28506c-0.07266,0.09502 -0.10899,0.17607 -0.10899,0.24314zM301.52466,185.64557h7.13487v7.49539h-0.90548v-6.68213h-5.36583v6.68213h-0.86356v-7.49539M302.05286,192.03425h6.19585v0.78811h-6.19585v-0.78811M303.93928,190.13945l0.36052,-0.51143c0.23475,0.04471 0.47957,0.10173 0.73445,0.17104c0.25376,0.07043 0.49802,0.14477 0.73277,0.22302c0.23475,0.07825 0.43597,0.1565 0.60366,0.23475l-0.3689,0.56174c-0.16209,-0.07825 -0.36052,-0.16097 -0.59527,-0.24817c-0.23475,-0.08608 -0.48069,-0.16712 -0.7378,-0.24314c-0.25711,-0.0749 -0.50025,-0.1375 -0.72942,-0.1878M304.32495,186.48398l0.72942,0.25152c-0.1565,0.24593 -0.34375,0.48907 -0.56174,0.72942c-0.21799,0.24034 -0.44548,0.46392 -0.68247,0.67073c-0.23811,0.20681 -0.47454,0.38846 -0.7093,0.54497c-0.03913,-0.0503 -0.09614,-0.10899 -0.17104,-0.17607c-0.07602,-0.06707 -0.15203,-0.13415 -0.22805,-0.20122c-0.0749,-0.06707 -0.14309,-0.12017 -0.20457,-0.1593c0.35213,-0.20122 0.69309,-0.44883 1.02286,-0.74283c0.32977,-0.29288 0.59807,-0.59863 0.80487,-0.91722M306.54674,187.14632h0.15091l0.12576,-0.03354l0.50305,0.30183c-0.21799,0.34095 -0.49578,0.65508 -0.83338,0.94237c-0.33872,0.28841 -0.71209,0.54553 -1.12012,0.77134c-0.40803,0.22693 -0.83282,0.42256 -1.27438,0.58689c-0.44156,0.16545 -0.88313,0.30127 -1.32469,0.40747c-0.02795,-0.06707 -0.06428,-0.14812 -0.10899,-0.24314c-0.04471,-0.09502 -0.09334,-0.18613 -0.14588,-0.27332c-0.05366,-0.08608 -0.10564,-0.15706 -0.15594,-0.21296c0.41362,-0.07825 0.83282,-0.18445 1.25762,-0.3186c0.42479,-0.13415 0.82723,-0.29344 1.20731,-0.47789c0.38008,-0.18445 0.71936,-0.38846 1.01783,-0.61204c0.29959,-0.22358 0.53323,-0.46392 0.70091,-0.72103v-0.11738M304.09858,187.69967c0.24593,0.2627 0.56453,0.50137 0.95579,0.716c0.39126,0.21575 0.82276,0.40467 1.29451,0.56677c0.47286,0.16209 0.95523,0.28506 1.4471,0.3689c-0.08384,0.07825 -0.17439,0.18277 -0.27164,0.31357c-0.09837,0.13191 -0.17551,0.25096 -0.2314,0.35716c-0.49746,-0.11179 -0.98653,-0.26438 -1.46722,-0.45777c-0.48069,-0.19228 -0.92616,-0.42144 -1.33643,-0.6875c-0.41138,-0.26494 -0.7596,-0.5595 -1.04466,-0.88368l0.65396,-0.29344M304.29141,187.14632h2.50685v0.67073h-2.97636l0.46951,-0.67073M303.15117,191.21261l0.40244,-0.58689c0.28506,0.02795 0.58297,0.06819 0.89375,0.12073c0.30965,0.05366 0.61819,0.11235 0.92561,0.17607c0.30742,0.06484 0.59807,0.13359 0.87195,0.20625c0.27388,0.07266 0.51702,0.14532 0.72942,0.21799l-0.39405,0.63719c-0.27388,-0.10061 -0.60477,-0.20122 -0.99268,-0.30183c-0.38902,-0.10061 -0.79593,-0.19283 -1.22073,-0.27668c-0.42479,-0.08384 -0.83003,-0.14812 -1.2157,-0.19283zM313.19533,185.86355h3.68901v0.83841h-3.68901v-0.83841M312.81805,187.86735h4.51903v0.83841h-4.51903v-0.83841M314.50325,188.28656h0.91387v3.77285c0,0.22917 -0.02348,0.41194 -0.07043,0.54832c-0.04807,0.1375 -0.14756,0.24538 -0.29847,0.32363c-0.14532,0.07266 -0.32251,0.1185 -0.53155,0.1375c-0.21016,0.02012 -0.45777,0.03018 -0.74283,0.03018c-0.01118,-0.13415 -0.04192,-0.28953 -0.09223,-0.46616c-0.0503,-0.17551 -0.1062,-0.33033 -0.16768,-0.46448c0.18445,0.00559 0.3566,0.0095 0.51646,0.01174c0.15874,0.00335 0.26606,0.00503 0.32195,0.00503c0.05589,-0.00559 0.09502,-0.01677 0.11738,-0.03354c0.02236,-0.01677 0.03354,-0.0531 0.03354,-0.10899v-3.75608M315.77763,189.74539l0.74619,-0.25152c0.12856,0.27947 0.2532,0.57683 0.37393,0.89207c0.11961,0.31636 0.22581,0.62378 0.3186,0.92225c0.09167,0.29959 0.15427,0.56397 0.1878,0.79314l-0.81326,0.30183c-0.03354,-0.23475 -0.09055,-0.50305 -0.17104,-0.80487c-0.08161,-0.30183 -0.1783,-0.61483 -0.29009,-0.93902c-0.11179,-0.32419 -0.22917,-0.62881 -0.35213,-0.91387M313.23725,189.52741l0.81326,0.18445c-0.08384,0.32419 -0.18445,0.64837 -0.30183,0.97256c-0.11738,0.32419 -0.24426,0.62993 -0.38064,0.91722c-0.1375,0.28841 -0.27891,0.54161 -0.42424,0.7596c-0.0503,-0.04471 -0.1185,-0.0967 -0.20457,-0.15594c-0.08719,-0.05813 -0.17551,-0.11514 -0.26494,-0.17104c-0.08943,-0.05589 -0.16768,-0.10061 -0.23475,-0.13415c0.21799,-0.29624 0.41362,-0.65675 0.58689,-1.08155c0.17327,-0.42479 0.31021,-0.85518 0.41082,-1.29115M309.59855,186.99541h3.1105v0.83841h-3.1105v-0.83841M310.79748,185.3102h0.8971v7.82237h-0.8971v-7.82237M310.68848,187.55714l0.55335,0.17607c-0.06148,0.3186 -0.13694,0.64949 -0.22637,0.99268c-0.08943,0.34431 -0.19283,0.68247 -0.31021,1.01448c-0.11738,0.33313 -0.24426,0.64334 -0.38064,0.93064c-0.1375,0.28841 -0.27891,0.53602 -0.42424,0.74283c-0.02795,-0.08384 -0.06819,-0.17886 -0.12073,-0.28506c-0.05366,-0.1062 -0.11123,-0.2124 -0.17271,-0.3186c-0.06148,-0.1062 -0.12017,-0.19563 -0.17607,-0.26829c0.18445,-0.22917 0.35884,-0.51143 0.52317,-0.84679c0.16545,-0.33536 0.31133,-0.69197 0.43765,-1.06981c0.1252,-0.37673 0.22413,-0.73277 0.2968,-1.06813M311.65265,187.97635c0.0503,0.05589 0.13023,0.14812 0.23979,0.27668c0.10843,0.12856 0.22581,0.27109 0.35213,0.42759c0.1252,0.1565 0.23979,0.29903 0.34375,0.42759c0.10285,0.12856 0.17663,0.22078 0.22134,0.27668l-0.49466,0.71265c-0.0503,-0.11179 -0.12297,-0.24593 -0.21799,-0.40244c-0.09502,-0.1565 -0.19563,-0.32027 -0.30183,-0.49131c-0.1062,-0.16992 -0.20793,-0.32754 -0.30518,-0.47286c-0.09837,-0.14532 -0.1811,-0.2627 -0.24817,-0.35213zM319.911,187.70806v0.64558h3.86507v-0.64558h-3.86507M319.911,186.40014v0.64558h3.86507v-0.64558h-3.86507M319.03067,185.70426h5.66765v3.35364h-5.66765v-3.35364M317.94073,191.90011h7.83075v0.85518h-7.83075v-0.85518M320.45596,189.34296h0.85518v3.02666h-0.85518v-3.02666M322.35916,189.34296h0.85518v3.02666h-0.85518v-3.02666M324.43841,189.52741l0.76295,0.34375c-0.16209,0.29065 -0.34207,0.58409 -0.53994,0.88033c-0.19898,0.29624 -0.38511,0.55056 -0.55838,0.76295l-0.6875,-0.3186c0.11738,-0.15091 0.23923,-0.32139 0.36555,-0.51143c0.1252,-0.19004 0.24817,-0.38567 0.3689,-0.58689c0.11961,-0.20122 0.21575,-0.39126 0.28841,-0.57012M318.57793,189.88792l0.69588,-0.30183c0.10061,0.17327 0.20681,0.35884 0.3186,0.5567c0.11179,0.19898 0.21687,0.3907 0.31524,0.57515c0.09726,0.18445 0.17383,0.34654 0.22972,0.48628l-0.72942,0.35213c-0.05589,-0.14532 -0.12967,-0.31468 -0.22134,-0.50808c-0.09278,-0.19228 -0.1906,-0.3907 -0.29344,-0.59527c-0.10396,-0.20345 -0.20904,-0.39182 -0.31524,-0.56509zM329.77071,188.39555h0.98932v3.66385c0,0.25711 -0.03465,0.45665 -0.10396,0.59863c-0.07043,0.14309 -0.19786,0.25096 -0.38232,0.32363c-0.18445,0.06707 -0.41082,0.11011 -0.67911,0.12912c-0.26829,0.02012 -0.58689,0.03018 -0.95579,0.03018c-0.02236,-0.13974 -0.06428,-0.30071 -0.12576,-0.48292c-0.06148,-0.1811 -0.12576,-0.33872 -0.19283,-0.47286c0.16768,0.00559 0.33704,0.01118 0.50808,0.01677c0.16992,0.00559 0.32195,0.00671 0.4561,0.00335c0.13415,-0.00224 0.22637,-0.00335 0.27668,-0.00335c0.07825,0 0.13303,-0.01118 0.16433,-0.03354c0.03018,-0.02236 0.04527,-0.06428 0.04527,-0.12576v-3.64709M327.79206,189.46872l0.93902,0.24314c-0.12297,0.33536 -0.27388,0.66626 -0.45274,0.99268c-0.17886,0.32754 -0.3689,0.63384 -0.57012,0.9189c-0.20122,0.28506 -0.40523,0.53379 -0.61204,0.74619c-0.06148,-0.05589 -0.14421,-0.11738 -0.24817,-0.18445c-0.10285,-0.06707 -0.20569,-0.13415 -0.30854,-0.20122c-0.10396,-0.06707 -0.19507,-0.11738 -0.27332,-0.15091c0.31301,-0.28506 0.60477,-0.63999 0.8753,-1.06478c0.27164,-0.42479 0.48851,-0.85797 0.65061,-1.29954M331.70743,189.7957l0.83841,-0.35213c0.19563,0.2627 0.38735,0.54497 0.57515,0.84679c0.18669,0.30183 0.35716,0.59918 0.51143,0.89207c0.15315,0.294 0.26885,0.56118 0.3471,0.80152l-0.93064,0.40244c-0.06148,-0.22917 -0.16321,-0.49354 -0.30518,-0.79314c-0.14309,-0.29847 -0.30574,-0.60589 -0.48795,-0.92225c-0.1811,-0.31524 -0.36387,-0.60701 -0.54832,-0.8753M327.27224,185.87194h5.93595v0.8971h-5.93595v-0.8971M326.51767,187.90089h7.46185v0.8971h-7.46185z" fill="#ffffff" fill-rule="nonzero" stroke-width="1"/><path d="M254.67428,201.47643l0.42759,-0.66234c0.36331,0.11179 0.72942,0.24034 1.09832,0.38567c0.3689,0.14532 0.71544,0.29624 1.03963,0.45274c0.32419,0.1565 0.59807,0.30742 0.82164,0.45274l-0.53658,0.71265c-0.21799,-0.1565 -0.47901,-0.31468 -0.78308,-0.47454c-0.30518,-0.15874 -0.63552,-0.31357 -0.991,-0.46448c-0.35437,-0.15091 -0.71321,-0.28506 -1.07652,-0.40244M253.69334,195.21351l0.90548,-0.27668c0.11179,0.17327 0.22358,0.36611 0.33536,0.5785c0.11179,0.2124 0.19283,0.39964 0.24314,0.56174l-0.95579,0.30183c-0.03913,-0.15091 -0.11011,-0.33704 -0.21296,-0.55838c-0.10396,-0.22022 -0.20904,-0.42256 -0.31524,-0.60701M250.89305,195.86747h7.05103v1.86127h-0.93902v-1.02286h-5.2233v1.02286h-0.88872v-1.86127M254.31376,197.07478h0.9474c-0.02236,0.60366 -0.05869,1.16371 -0.10899,1.68017c-0.0503,0.51758 -0.14532,0.98877 -0.28506,1.41356c-0.13974,0.42479 -0.34654,0.80767 -0.62042,1.14862c-0.27388,0.34095 -0.6439,0.63719 -1.11006,0.88872c-0.46727,0.25152 -1.05584,0.46392 -1.76569,0.63719c-0.04471,-0.11738 -0.11738,-0.2532 -0.21799,-0.40747c-0.10061,-0.15315 -0.19842,-0.27723 -0.29344,-0.37225c0.66514,-0.14532 1.20731,-0.32307 1.62652,-0.53323c0.41921,-0.20904 0.75066,-0.45777 0.99435,-0.74619c0.24258,-0.2873 0.41976,-0.61428 0.53155,-0.98094c0.11179,-0.36555 0.18613,-0.77469 0.22302,-1.22743c0.03577,-0.45274 0.06204,-0.95299 0.07881,-1.50075M250.79244,199.87507h7.2774v0.75457h-7.2774v-0.75457M252.17582,197.52752l0.5282,-0.5785c0.15091,0.07266 0.30462,0.1593 0.46113,0.25991c0.1565,0.10061 0.3063,0.20513 0.44939,0.31357c0.14197,0.10955 0.25488,0.21184 0.33872,0.30686l-0.56174,0.64558c-0.07825,-0.09502 -0.18445,-0.19842 -0.3186,-0.31021c-0.13415,-0.11179 -0.27947,-0.22525 -0.43597,-0.34039c-0.1565,-0.11402 -0.31021,-0.21296 -0.46113,-0.2968M251.32902,198.8019l0.51143,-0.60366c0.1565,0.07266 0.3158,0.15762 0.47789,0.25488c0.16209,0.09837 0.3158,0.19898 0.46113,0.30183c0.14532,0.10396 0.2627,0.20345 0.35213,0.29847l-0.53658,0.67911c-0.08943,-0.10061 -0.20401,-0.20681 -0.34375,-0.3186c-0.13974,-0.11179 -0.29065,-0.22078 -0.45274,-0.32698c-0.16209,-0.1062 -0.3186,-0.20122 -0.46951,-0.28506zM259.61252,195.69978h2.38947v5.60058h-2.38947v-0.80487h1.55106v-3.99083h-1.55106v-0.80487M259.66282,198.07249h1.75228v0.78811h-1.75228v-0.78811M259.18493,195.69978h0.84679v6.27969h-0.84679v-6.27969M262.33735,196.61365h4.3765v0.8971h-4.3765v-0.8971M264.90289,195.07936h0.91387v6.54799c0,0.27947 -0.03633,0.49019 -0.10899,0.63216c-0.07266,0.14309 -0.19842,0.25096 -0.37728,0.32363c-0.17327,0.07266 -0.40635,0.1185 -0.69923,0.1375c-0.294,0.02012 -0.65061,0.02739 -1.06981,0.0218c-0.01677,-0.12856 -0.05757,-0.28115 -0.12241,-0.45777c-0.06372,-0.17551 -0.12912,-0.32474 -0.19619,-0.44771c0.20681,0.00559 0.40691,0.0095 0.6003,0.01174c0.19228,0.00335 0.36108,0.00503 0.5064,0.00503c0.14532,0 0.24873,0 0.31021,0c0.08943,-0.00559 0.15203,-0.02403 0.1878,-0.05534c0.03689,-0.03018 0.05534,-0.08999 0.05534,-0.17942v-6.5396M262.47988,198.48331l0.74619,-0.39405c0.13974,0.19563 0.29065,0.40914 0.45274,0.64055c0.16209,0.23252 0.3158,0.45889 0.46113,0.67911c0.14532,0.22134 0.2627,0.41306 0.35213,0.57515l-0.79649,0.46113c-0.08384,-0.16768 -0.19451,-0.36499 -0.33201,-0.59192c-0.13638,-0.22581 -0.28282,-0.45889 -0.43933,-0.69923c-0.1565,-0.24034 -0.30462,-0.46392 -0.44436,-0.67073zM268.07208,195.28058h6.18747v0.65396h-6.18747v-0.65396M268.44098,198.65937h6.22939v0.62042h-6.22939v-0.62042M269.20393,199.54809h5.00531v0.54497h-5.00531v-0.54497M268.42421,200.37812h6.56475v0.60366h-6.56475v-0.60366M268.63381,197.1167h1.76905v0.46951h-1.76905v-0.46951M268.44936,197.88804h1.96188v0.46113h-1.96188v-0.46113M271.90361,197.88804h1.98703v0.46113h-1.98703v-0.46113M271.90361,197.1167h1.78581v0.46951h-1.78581v-0.46951M270.70469,195.55726h0.88872v2.93444h-0.88872v-2.93444M267.5355,196.2699h7.2774v1.46722h-0.87195v-0.93064h-5.57543v0.93064h-0.83003v-1.46722M268.03854,198.65937h0.83841v1.15701c0,0.23475 -0.01397,0.4874 -0.04192,0.75792c-0.02795,0.27164 -0.07993,0.5472 -0.15594,0.82667c-0.0749,0.27947 -0.1811,0.54888 -0.3186,0.80823c-0.13638,0.26047 -0.31357,0.4969 -0.53155,0.7093c-0.04471,-0.05589 -0.1062,-0.12185 -0.18445,-0.19786c-0.07825,-0.0749 -0.16097,-0.14756 -0.24817,-0.21799c-0.08608,-0.06931 -0.16265,-0.12073 -0.22972,-0.15427c0.2627,-0.25152 0.45554,-0.5254 0.5785,-0.82164c0.12297,-0.29624 0.20234,-0.59415 0.23811,-0.89375c0.03689,-0.29847 0.05534,-0.57627 0.05534,-0.83338v-1.14024M271.89523,200.69671c0.16768,0.27388 0.40523,0.50137 0.71265,0.68247c0.30742,0.18221 0.6752,0.32474 1.10335,0.42759c0.42703,0.10396 0.90325,0.17271 1.42865,0.20625c-0.07825,0.07825 -0.1593,0.18445 -0.24314,0.3186c-0.08384,0.13415 -0.15091,0.25711 -0.20122,0.3689c-0.57571,-0.06148 -1.08826,-0.16768 -1.53764,-0.3186c-0.45051,-0.15091 -0.83785,-0.35381 -1.16204,-0.60869c-0.32419,-0.25376 -0.59248,-0.56509 -0.80487,-0.93399l0.70426,-0.14253M273.84873,200.9147l0.66234,0.33536c-0.20122,0.13415 -0.41362,0.25823 -0.63719,0.37225c-0.22358,0.11514 -0.42759,0.21463 -0.61204,0.29847l-0.54497,-0.30183c0.12297,-0.06707 0.25264,-0.14141 0.38902,-0.22302c0.1375,-0.08049 0.27164,-0.16433 0.40244,-0.25152c0.13191,-0.08608 0.24538,-0.16265 0.34039,-0.22972M269.27101,202.85981l-0.04192,-0.58689l0.35213,-0.24314l2.31401,-0.32698c-0.02236,0.10061 -0.04192,0.21631 -0.05869,0.3471c-0.01677,0.13191 -0.02515,0.23979 -0.02515,0.32363c-0.51422,0.08384 -0.92952,0.15203 -1.24588,0.20457c-0.31524,0.05366 -0.5595,0.09726 -0.73277,0.13079c-0.17327,0.03354 -0.29903,0.06148 -0.37728,0.08384c-0.07825,0.02236 -0.13974,0.04471 -0.18445,0.06707M269.27101,202.85981c-0.02236,-0.06707 -0.05589,-0.14421 -0.10061,-0.2314c-0.04471,-0.08608 -0.0939,-0.17271 -0.14756,-0.25991c-0.05254,-0.08608 -0.10117,-0.15706 -0.14588,-0.21296c0.09502,-0.0503 0.19675,-0.13582 0.30518,-0.25655c0.10955,-0.11961 0.16433,-0.27444 0.16433,-0.46448v-0.80487l0.87195,0.01677v1.36661c0,0 -0.03186,0.01956 -0.09558,0.05869c-0.06484,0.03913 -0.14309,0.09223 -0.23475,0.1593c-0.09278,0.06707 -0.18669,0.13694 -0.28171,0.2096c-0.09502,0.07266 -0.17439,0.14644 -0.23811,0.22134c-0.06484,0.07602 -0.09726,0.14197 -0.09726,0.19786zM277.41197,197.42691h5.86049v0.71265h-5.86049v-0.71265M277.48743,199.86668h4.66156v0.71265h-4.66156v-0.71265M278.60251,196.82325h0.85518v1.97026h1.67682v-1.97026h0.88033v2.65776h-3.41233v-2.65776M281.91424,199.86668h0.17607l0.1593,-0.03354l0.56174,0.29344c-0.22917,0.43597 -0.5282,0.80879 -0.8971,1.11844c-0.3689,0.31077 -0.78811,0.56956 -1.25762,0.77637c-0.46951,0.20681 -0.97535,0.3717 -1.51752,0.49466c-0.54217,0.12297 -1.1067,0.21799 -1.69359,0.28506c-0.03354,-0.1062 -0.08496,-0.23364 -0.15427,-0.38232c-0.07043,-0.14756 -0.14197,-0.27164 -0.21463,-0.37225c0.53658,-0.03913 1.0564,-0.10788 1.55944,-0.20625c0.50305,-0.09726 0.96864,-0.22693 1.39679,-0.38902c0.42703,-0.16209 0.80264,-0.36499 1.12682,-0.60869c0.32419,-0.24258 0.57571,-0.52876 0.75457,-0.85853v-0.11738M278.88757,200.41165c0.27388,0.32419 0.63887,0.60086 1.09496,0.83003c0.45498,0.22917 0.9815,0.41194 1.57957,0.54832c0.59807,0.1375 1.24085,0.2314 1.92834,0.28171c-0.06148,0.06148 -0.12576,0.13974 -0.19283,0.23475c-0.06707,0.09502 -0.12967,0.19004 -0.1878,0.28506c-0.05925,0.09502 -0.10564,0.18166 -0.13918,0.25991c-0.71544,-0.07266 -1.37891,-0.19731 -1.99039,-0.37393c-0.6126,-0.17551 -1.15924,-0.41026 -1.63993,-0.70426c-0.48069,-0.29288 -0.88872,-0.64893 -1.22408,-1.06813l0.77134,-0.29344M276.75801,195.78363h6.59829v0.83841h-6.59829v-0.83841M276.33881,195.78363h0.88872v2.24694c0,0.34654 -0.0095,0.72774 -0.02851,1.14359c-0.02012,0.41697 -0.05813,0.84344 -0.11402,1.27941c-0.05589,0.43597 -0.13694,0.85797 -0.24314,1.266c-0.1062,0.40803 -0.24593,0.78252 -0.41921,1.12347c-0.06148,-0.04471 -0.14253,-0.09223 -0.24314,-0.14253c-0.10061,-0.0503 -0.20234,-0.09949 -0.30518,-0.14756c-0.10396,-0.04695 -0.19507,-0.07881 -0.27332,-0.09558c0.16768,-0.32419 0.30183,-0.6752 0.40244,-1.05304c0.10061,-0.37673 0.17495,-0.76351 0.22302,-1.16036c0.04695,-0.39685 0.07769,-0.78419 0.09223,-1.16204c0.01341,-0.37673 0.02012,-0.72439 0.02012,-1.04298v-2.25532M279.27324,195.17997l0.90548,-0.2096c0.09502,0.17886 0.18333,0.37449 0.26494,0.58689c0.08049,0.2124 0.1375,0.39405 0.17104,0.54497l-0.96417,0.23475c-0.02236,-0.1565 -0.06987,-0.34375 -0.14253,-0.56174c-0.07266,-0.21799 -0.15091,-0.41641 -0.23475,-0.59527zM285.84638,198.15633c-0.20681,0 -0.38399,-0.06987 -0.53155,-0.2096c-0.14868,-0.13974 -0.22302,-0.3158 -0.22302,-0.5282c0,-0.21799 0.07434,-0.39852 0.22302,-0.54161c0.14756,-0.14197 0.32474,-0.21296 0.53155,-0.21296c0.20681,0 0.38455,0.07099 0.53323,0.21296c0.14756,0.14309 0.22134,0.32363 0.22134,0.54161c0,0.2124 -0.07378,0.38846 -0.22134,0.5282c-0.14868,0.13974 -0.32642,0.2096 -0.53323,0.2096M285.84638,202.18908c-0.20681,0 -0.38399,-0.06987 -0.53155,-0.2096c-0.14868,-0.13974 -0.22302,-0.3158 -0.22302,-0.5282c0,-0.22358 0.07434,-0.40523 0.22302,-0.54497c0.14756,-0.13974 0.32474,-0.2096 0.53155,-0.2096c0.20681,0 0.38455,0.06987 0.53323,0.2096c0.14756,0.13974 0.22134,0.32139 0.22134,0.54497c0,0.2124 -0.07378,0.38846 -0.22134,0.5282c-0.14868,0.13974 -0.32642,0.2096 -0.53323,0.2096zM295.17789,196.29506l0.77134,-0.41921c0.16209,0.19563 0.32419,0.40914 0.48628,0.64055c0.16209,0.23252 0.31021,0.45889 0.44436,0.67911c0.13415,0.22134 0.24314,0.42144 0.32698,0.6003l-0.81326,0.49466c-0.07266,-0.17886 -0.17439,-0.38567 -0.30518,-0.62042c-0.13191,-0.23475 -0.27723,-0.4723 -0.43597,-0.71265c-0.15986,-0.24034 -0.31804,-0.46113 -0.47454,-0.66234M297.47513,200.40327l0.72103,-0.51143c0.24593,0.23475 0.50472,0.49019 0.77637,0.76631c0.27053,0.27723 0.52764,0.55391 0.77134,0.83003c0.24258,0.27723 0.43653,0.52484 0.58186,0.74283l-0.79649,0.59527c-0.13415,-0.21799 -0.3158,-0.46951 -0.54497,-0.75457c-0.22917,-0.28506 -0.47622,-0.57291 -0.74115,-0.86356c-0.26606,-0.29065 -0.52205,-0.55894 -0.76798,-0.80487M298.39739,195.38119l0.96417,0.04192c-0.05589,0.98373 -0.14924,1.86686 -0.28003,2.64938c-0.13191,0.78252 -0.32922,1.47672 -0.59192,2.08261c-0.2627,0.60701 -0.61483,1.13521 -1.0564,1.5846c-0.44156,0.45051 -0.99491,0.83506 -1.66005,1.15365c-0.03913,-0.06148 -0.10061,-0.14253 -0.18445,-0.24314c-0.08384,-0.10061 -0.17215,-0.2001 -0.26494,-0.29847c-0.09167,-0.09726 -0.17104,-0.17663 -0.23811,-0.23811c0.64278,-0.2627 1.17266,-0.59248 1.58963,-0.98932c0.41585,-0.39685 0.74283,-0.87083 0.98094,-1.42194c0.23699,-0.55 0.41138,-1.18272 0.52317,-1.89816c0.11179,-0.71544 0.18445,-1.52311 0.21799,-2.42301M293.28308,202.12201l-0.18445,-0.92225l0.31021,-0.3186l2.64099,-1.30792c0.02236,0.12856 0.05869,0.27779 0.10899,0.44771c0.0503,0.17104 0.09223,0.30686 0.12576,0.40747c-0.48069,0.24593 -0.88592,0.45554 -1.2157,0.62881c-0.32977,0.17327 -0.60086,0.31971 -0.81326,0.43933c-0.2124,0.12073 -0.3812,0.21855 -0.5064,0.29344c-0.12632,0.07602 -0.22413,0.14029 -0.29344,0.19283c-0.07043,0.05366 -0.128,0.10005 -0.17271,0.13918M293.28308,202.12201c-0.02795,-0.06707 -0.07099,-0.147 -0.12912,-0.23979c-0.05925,-0.09167 -0.12241,-0.18221 -0.18948,-0.27164c-0.06707,-0.08943 -0.12576,-0.1593 -0.17607,-0.2096c0.07266,-0.0503 0.15371,-0.11905 0.24314,-0.20625c0.08943,-0.08608 0.16936,-0.18948 0.23979,-0.31021c0.06931,-0.11961 0.10396,-0.24929 0.10396,-0.38902v-4.87116h0.98094v5.42452c0,0 -0.03633,0.02515 -0.10899,0.07546c-0.07266,0.0503 -0.16209,0.11738 -0.26829,0.20122c-0.1062,0.08384 -0.2124,0.17327 -0.3186,0.26829c-0.1062,0.09502 -0.19563,0.19004 -0.26829,0.28506c-0.07266,0.09502 -0.10899,0.17607 -0.10899,0.24314zM301.14737,195.36442h7.13487v7.49539h-0.90548v-6.68213h-5.36583v6.68213h-0.86356v-7.49539M301.67557,201.75311h6.19585v0.78811h-6.19585v-0.78811M303.56199,199.8583l0.36052,-0.51143c0.23475,0.04471 0.47957,0.10173 0.73445,0.17104c0.25376,0.07043 0.49802,0.14477 0.73277,0.22302c0.23475,0.07825 0.43597,0.1565 0.60366,0.23475l-0.3689,0.56174c-0.16209,-0.07825 -0.36052,-0.16097 -0.59527,-0.24817c-0.23475,-0.08608 -0.48069,-0.16712 -0.7378,-0.24314c-0.25711,-0.0749 -0.50025,-0.1375 -0.72942,-0.1878M303.94766,196.20283l0.72942,0.25152c-0.1565,0.24593 -0.34375,0.48907 -0.56174,0.72942c-0.21799,0.24034 -0.44548,0.46392 -0.68247,0.67073c-0.23811,0.20681 -0.47454,0.38846 -0.7093,0.54497c-0.03913,-0.0503 -0.09614,-0.10899 -0.17104,-0.17607c-0.07602,-0.06707 -0.15203,-0.13415 -0.22805,-0.20122c-0.0749,-0.06707 -0.14309,-0.12017 -0.20457,-0.1593c0.35213,-0.20122 0.69309,-0.44883 1.02286,-0.74283c0.32977,-0.29288 0.59807,-0.59863 0.80487,-0.91722M306.16945,196.86518h0.15091l0.12576,-0.03354l0.50305,0.30183c-0.21799,0.34095 -0.49578,0.65508 -0.83338,0.94237c-0.33872,0.28841 -0.71209,0.54553 -1.12012,0.77134c-0.40803,0.22693 -0.83282,0.42256 -1.27438,0.58689c-0.44156,0.16545 -0.88313,0.30127 -1.32469,0.40747c-0.02795,-0.06707 -0.06428,-0.14812 -0.10899,-0.24314c-0.04471,-0.09502 -0.09334,-0.18613 -0.14588,-0.27332c-0.05366,-0.08608 -0.10564,-0.15706 -0.15594,-0.21296c0.41362,-0.07825 0.83282,-0.18445 1.25762,-0.3186c0.42479,-0.13415 0.82723,-0.29344 1.20731,-0.47789c0.38008,-0.18445 0.71936,-0.38846 1.01783,-0.61204c0.29959,-0.22358 0.53323,-0.46392 0.70091,-0.72103v-0.11738M303.72129,197.41853c0.24593,0.2627 0.56453,0.50137 0.95579,0.716c0.39126,0.21575 0.82276,0.40467 1.29451,0.56677c0.47286,0.16209 0.95523,0.28506 1.4471,0.3689c-0.08384,0.07825 -0.17439,0.18277 -0.27164,0.31357c-0.09837,0.13191 -0.17551,0.25096 -0.2314,0.35716c-0.49746,-0.11179 -0.98653,-0.26438 -1.46722,-0.45777c-0.48069,-0.19228 -0.92616,-0.42144 -1.33643,-0.6875c-0.41138,-0.26494 -0.7596,-0.5595 -1.04466,-0.88368l0.65396,-0.29344M303.91413,196.86518h2.50685v0.67073h-2.97636l0.46951,-0.67073M302.77389,200.93147l0.40244,-0.58689c0.28506,0.02795 0.58297,0.06819 0.89375,0.12073c0.30965,0.05366 0.61819,0.11235 0.92561,0.17607c0.30742,0.06484 0.59807,0.13359 0.87195,0.20625c0.27388,0.07266 0.51702,0.14532 0.72942,0.21799l-0.39405,0.63719c-0.27388,-0.10061 -0.60477,-0.20122 -0.99268,-0.30183c-0.38902,-0.10061 -0.79593,-0.19283 -1.22073,-0.27668c-0.42479,-0.08384 -0.83003,-0.14812 -1.2157,-0.19283zM312.81805,195.58241h3.68901v0.83841h-3.68901v-0.83841M312.44076,197.58621h4.51903v0.83841h-4.51903v-0.83841M314.12597,198.00541h0.91387v3.77285c0,0.22917 -0.02348,0.41194 -0.07043,0.54832c-0.04807,0.1375 -0.14756,0.24538 -0.29847,0.32363c-0.14532,0.07266 -0.32251,0.1185 -0.53155,0.1375c-0.21016,0.02012 -0.45777,0.03018 -0.74283,0.03018c-0.01118,-0.13415 -0.04192,-0.28953 -0.09223,-0.46616c-0.0503,-0.17551 -0.1062,-0.33033 -0.16768,-0.46448c0.18445,0.00559 0.3566,0.0095 0.51646,0.01174c0.15874,0.00335 0.26606,0.00503 0.32195,0.00503c0.05589,-0.00559 0.09502,-0.01677 0.11738,-0.03354c0.02236,-0.01677 0.03354,-0.0531 0.03354,-0.10899v-3.75608M315.40035,199.46425l0.74619,-0.25152c0.12856,0.27947 0.2532,0.57683 0.37393,0.89207c0.11961,0.31636 0.22581,0.62378 0.3186,0.92225c0.09167,0.29959 0.15427,0.56397 0.1878,0.79314l-0.81326,0.30183c-0.03354,-0.23475 -0.09055,-0.50305 -0.17104,-0.80487c-0.08161,-0.30183 -0.1783,-0.61483 -0.29009,-0.93902c-0.11179,-0.32419 -0.22917,-0.62881 -0.35213,-0.91387M312.85997,199.24626l0.81326,0.18445c-0.08384,0.32419 -0.18445,0.64837 -0.30183,0.97256c-0.11738,0.32419 -0.24426,0.62993 -0.38064,0.91722c-0.1375,0.28841 -0.27891,0.54161 -0.42424,0.7596c-0.0503,-0.04471 -0.1185,-0.0967 -0.20457,-0.15594c-0.08719,-0.05813 -0.17551,-0.11514 -0.26494,-0.17104c-0.08943,-0.05589 -0.16768,-0.10061 -0.23475,-0.13415c0.21799,-0.29624 0.41362,-0.65675 0.58689,-1.08155c0.17327,-0.42479 0.31021,-0.85518 0.41082,-1.29115M309.22126,196.71426h3.1105v0.83841h-3.1105v-0.83841M310.42019,195.02906h0.8971v7.82237h-0.8971v-7.82237M310.3112,197.276l0.55335,0.17607c-0.06148,0.3186 -0.13694,0.64949 -0.22637,0.99268c-0.08943,0.34431 -0.19283,0.68247 -0.31021,1.01448c-0.11738,0.33313 -0.24426,0.64334 -0.38064,0.93064c-0.1375,0.28841 -0.27891,0.53602 -0.42424,0.74283c-0.02795,-0.08384 -0.06819,-0.17886 -0.12073,-0.28506c-0.05366,-0.1062 -0.11123,-0.2124 -0.17271,-0.3186c-0.06148,-0.1062 -0.12017,-0.19563 -0.17607,-0.26829c0.18445,-0.22917 0.35884,-0.51143 0.52317,-0.84679c0.16545,-0.33536 0.31133,-0.69197 0.43765,-1.06981c0.1252,-0.37673 0.22413,-0.73277 0.2968,-1.06813M311.27537,197.6952c0.0503,0.05589 0.13023,0.14812 0.23979,0.27668c0.10843,0.12856 0.22581,0.27109 0.35213,0.42759c0.1252,0.1565 0.23979,0.29903 0.34375,0.42759c0.10285,0.12856 0.17663,0.22078 0.22134,0.27668l-0.49466,0.71265c-0.0503,-0.11179 -0.12297,-0.24593 -0.21799,-0.40244c-0.09502,-0.1565 -0.19563,-0.32027 -0.30183,-0.49131c-0.1062,-0.16992 -0.20793,-0.32754 -0.30518,-0.47286c-0.09837,-0.14532 -0.1811,-0.2627 -0.24817,-0.35213zM319.53371,197.42691v0.64558h3.86507v-0.64558h-3.86507M319.53371,196.11899v0.64558h3.86507v-0.64558h-3.86507M318.65338,195.42311h5.66765v3.35364h-5.66765v-3.35364M317.56345,201.61896h7.83075v0.85518h-7.83075v-0.85518M320.07868,199.06181h0.85518v3.02666h-0.85518v-3.02666M321.98187,199.06181h0.85518v3.02666h-0.85518v-3.02666M324.06113,199.24626l0.76295,0.34375c-0.16209,0.29065 -0.34207,0.58409 -0.53994,0.88033c-0.19898,0.29624 -0.38511,0.55056 -0.55838,0.76295l-0.6875,-0.3186c0.11738,-0.15091 0.23923,-0.32139 0.36555,-0.51143c0.1252,-0.19004 0.24817,-0.38567 0.3689,-0.58689c0.11961,-0.20122 0.21575,-0.39126 0.28841,-0.57012M318.20064,199.60678l0.69588,-0.30183c0.10061,0.17327 0.20681,0.35884 0.3186,0.5567c0.11179,0.19898 0.21687,0.3907 0.31524,0.57515c0.09726,0.18445 0.17383,0.34654 0.22972,0.48628l-0.72942,0.35213c-0.05589,-0.14532 -0.12967,-0.31468 -0.22134,-0.50808c-0.09278,-0.19228 -0.1906,-0.3907 -0.29344,-0.59527c-0.10396,-0.20345 -0.20904,-0.39182 -0.31524,-0.56509zM329.39342,198.11441h0.98932v3.66385c0,0.25711 -0.03465,0.45665 -0.10396,0.59863c-0.07043,0.14309 -0.19786,0.25096 -0.38232,0.32363c-0.18445,0.06707 -0.41082,0.11011 -0.67911,0.12912c-0.26829,0.02012 -0.58689,0.03018 -0.95579,0.03018c-0.02236,-0.13974 -0.06428,-0.30071 -0.12576,-0.48292c-0.06148,-0.1811 -0.12576,-0.33872 -0.19283,-0.47286c0.16768,0.00559 0.33704,0.01118 0.50808,0.01677c0.16992,0.00559 0.32195,0.00671 0.4561,0.00335c0.13415,-0.00224 0.22637,-0.00335 0.27668,-0.00335c0.07825,0 0.13303,-0.01118 0.16433,-0.03354c0.03018,-0.02236 0.04527,-0.06428 0.04527,-0.12576v-3.64709M327.41477,199.18757l0.93902,0.24314c-0.12297,0.33536 -0.27388,0.66626 -0.45274,0.99268c-0.17886,0.32754 -0.3689,0.63384 -0.57012,0.9189c-0.20122,0.28506 -0.40523,0.53379 -0.61204,0.74619c-0.06148,-0.05589 -0.14421,-0.11738 -0.24817,-0.18445c-0.10285,-0.06707 -0.20569,-0.13415 -0.30854,-0.20122c-0.10396,-0.06707 -0.19507,-0.11738 -0.27332,-0.15091c0.31301,-0.28506 0.60477,-0.63999 0.8753,-1.06478c0.27164,-0.42479 0.48851,-0.85797 0.65061,-1.29954M331.33015,199.51455l0.83841,-0.35213c0.19563,0.2627 0.38735,0.54497 0.57515,0.84679c0.18669,0.30183 0.35716,0.59918 0.51143,0.89207c0.15315,0.294 0.26885,0.56118 0.3471,0.80152l-0.93064,0.40244c-0.06148,-0.22917 -0.16321,-0.49354 -0.30518,-0.79314c-0.14309,-0.29847 -0.30574,-0.60589 -0.48795,-0.92225c-0.1811,-0.31524 -0.36387,-0.60701 -0.54832,-0.8753M326.89496,195.59079h5.93595v0.8971h-5.93595v-0.8971M326.14039,197.61974h7.46185v0.8971h-7.46185z" fill="#ffffff" fill-rule="nonzero" stroke-width="1"/><path d="M250.97689,205.11681h2.6913v0.78811h-2.6913v-0.78811M250.79244,207.85841h3.18596v0.79649h-3.18596v-0.79649M252.07521,208.22731h0.86356v3.37041c0,0.2124 -0.02515,0.38287 -0.07546,0.51143c-0.0503,0.12856 -0.14812,0.22637 -0.29344,0.29344c-0.14532,0.06707 -0.32027,0.11011 -0.52484,0.12912c-0.20345,0.02012 -0.44771,0.03018 -0.73277,0.03018c-0.01677,-0.12856 -0.05142,-0.27556 -0.10396,-0.441c-0.05366,-0.16433 -0.11123,-0.30518 -0.17271,-0.42256c0.19004,0.00559 0.3717,0.00838 0.54497,0.00838c0.17327,0 0.28785,0 0.34375,0c0.06148,0 0.10173,-0.01006 0.12073,-0.03018c0.02012,-0.019 0.03018,-0.05086 0.03018,-0.09558v-3.35364M253.39151,205.11681h0.19283l0.1593,-0.04192l0.54497,0.37728c-0.13415,0.21799 -0.28785,0.44156 -0.46113,0.67073c-0.17327,0.22917 -0.35213,0.44827 -0.53658,0.65731c-0.18445,0.21016 -0.36331,0.3907 -0.53658,0.54161c-0.05589,-0.07825 -0.13415,-0.16936 -0.23475,-0.27332c-0.10061,-0.10285 -0.18724,-0.18221 -0.25991,-0.23811c0.13974,-0.13415 0.28227,-0.29065 0.42759,-0.46951c0.14532,-0.17886 0.28227,-0.36331 0.41082,-0.55335c0.12856,-0.19004 0.22637,-0.36052 0.29344,-0.51143v-0.1593M253.71849,207.85841h0.11738l0.12576,-0.02515l0.55335,0.13415c-0.09502,0.34095 -0.19842,0.68861 -0.31021,1.04298c-0.11179,0.35549 -0.21799,0.6562 -0.3186,0.90213l-0.67073,-0.15091c0.05589,-0.15091 0.11458,-0.32698 0.17607,-0.5282c0.06148,-0.20122 0.12017,-0.4125 0.17607,-0.63384c0.05589,-0.22022 0.1062,-0.42815 0.15091,-0.62378v-0.11738M251.15296,206.91101l0.47789,-0.5785c0.20681,0.12297 0.43318,0.26102 0.67911,0.41417c0.24593,0.15427 0.48516,0.30518 0.71768,0.45274c0.2314,0.14868 0.42256,0.27891 0.57347,0.3907l-0.49466,0.66234c-0.13974,-0.11738 -0.32419,-0.25432 -0.55335,-0.41082c-0.22917,-0.1565 -0.46672,-0.31748 -0.71265,-0.48292c-0.24593,-0.16433 -0.4751,-0.31357 -0.6875,-0.44771M254.38084,205.08327h4.26751v0.79649h-4.26751v-0.79649M256.10796,205.4941l0.99771,0.11738c-0.08384,0.25711 -0.16768,0.50975 -0.25152,0.75792c-0.08384,0.24929 -0.16209,0.46336 -0.23475,0.64222l-0.77134,-0.15091c0.05589,-0.19563 0.10788,-0.42088 0.15594,-0.67576c0.04695,-0.25376 0.08161,-0.48404 0.10396,-0.69085M256.04089,207.80811h0.84679v1.5846c0,0.26829 -0.02795,0.54608 -0.08384,0.83338c-0.05589,0.28841 -0.16768,0.57068 -0.33536,0.84679c-0.16768,0.27723 -0.40914,0.53994 -0.72439,0.78811c-0.31636,0.24929 -0.73724,0.47175 -1.26265,0.66737c-0.05589,-0.08943 -0.13694,-0.19731 -0.24314,-0.32363c-0.1062,-0.1252 -0.2124,-0.22693 -0.3186,-0.30518c0.4751,-0.16209 0.85406,-0.34543 1.13688,-0.55c0.28171,-0.20345 0.49243,-0.41865 0.63216,-0.64558c0.13974,-0.22581 0.23364,-0.4533 0.28171,-0.68247c0.04695,-0.22917 0.07043,-0.44436 0.07043,-0.64558v-1.56783M256.61101,211.24559l0.58689,-0.54497c0.16209,0.12856 0.33704,0.27109 0.52484,0.42759c0.18669,0.1565 0.36666,0.31021 0.53994,0.46113c0.17327,0.15091 0.3158,0.28506 0.42759,0.40244l-0.62042,0.60366c-0.10061,-0.12297 -0.23475,-0.2627 -0.40244,-0.41921c-0.16768,-0.1565 -0.34487,-0.31748 -0.53155,-0.48292c-0.1878,-0.16433 -0.36275,-0.31357 -0.52484,-0.44771M254.6659,206.55049h3.65547v3.99922h-0.87195v-3.19434h-1.9535v3.22788h-0.83003zM259.9395,205.42702l0.5785,-0.5785c0.1565,0.12297 0.32419,0.25823 0.50305,0.40579c0.17886,0.14868 0.34822,0.29568 0.50808,0.441c0.15874,0.14532 0.28562,0.27947 0.38064,0.40244l-0.60366,0.65396c-0.08943,-0.12297 -0.21128,-0.26158 -0.36555,-0.41585c-0.15315,-0.15315 -0.31748,-0.31077 -0.49299,-0.47286c-0.17663,-0.16209 -0.34598,-0.30742 -0.50808,-0.43597M260.518,212.50321l-0.20122,-0.87195l0.21799,-0.3186l1.80258,-1.24923c0.01677,0.08384 0.04192,0.17718 0.07546,0.28003c0.03354,0.10396 0.06987,0.20457 0.10899,0.30183c0.03913,0.09837 0.07266,0.1783 0.10061,0.23979c-0.41921,0.29624 -0.75736,0.53938 -1.01448,0.72942c-0.25711,0.19004 -0.45721,0.34095 -0.6003,0.45274c-0.14197,0.11179 -0.24929,0.20122 -0.32195,0.26829c-0.07266,0.06707 -0.12856,0.12297 -0.16768,0.16768M259.26877,207.34698h1.81935v0.88872h-1.81935v-0.88872M262.01037,207.43082h5.00531v0.93902h-5.00531v-0.93902M264.06448,204.78145h0.95579v7.79722h-0.95579v-7.79722M260.518,212.50321c-0.02236,-0.07825 -0.05981,-0.17048 -0.11235,-0.27668c-0.05366,-0.1062 -0.10955,-0.2096 -0.16768,-0.31021c-0.05925,-0.10061 -0.11682,-0.18166 -0.17271,-0.24314c0.09502,-0.06707 0.19451,-0.16656 0.29847,-0.29847c0.10285,-0.13079 0.15427,-0.28841 0.15427,-0.47286v-3.55486h0.91387v4.25913c0,0 -0.03074,0.02068 -0.09223,0.06204c-0.06148,0.04248 -0.13694,0.09558 -0.22637,0.1593c-0.08943,0.06484 -0.17886,0.1375 -0.26829,0.21799c-0.08943,0.08161 -0.16601,0.16153 -0.22972,0.23979c-0.06484,0.07825 -0.09726,0.15091 -0.09726,0.21799zM268.39906,204.99943h6.18747v0.65396h-6.18747v-0.65396M268.76796,208.37823h6.22939v0.62042h-6.22939v-0.62042M269.53091,209.26694h5.00531v0.54497h-5.00531v-0.54497M268.75119,210.09697h6.56475v0.60366h-6.56475v-0.60366M268.96079,206.83555h1.76905v0.46951h-1.76905v-0.46951M268.77634,207.60689h1.96188v0.46113h-1.96188v-0.46113M272.23059,207.60689h1.98703v0.46113h-1.98703v-0.46113M272.23059,206.83555h1.78581v0.46951h-1.78581v-0.46951M271.03167,205.27611h0.88872v2.93444h-0.88872v-2.93444M267.86248,205.98876h7.2774v1.46722h-0.87195v-0.93064h-5.57543v0.93064h-0.83003v-1.46722M268.36552,208.37823h0.83841v1.15701c0,0.23475 -0.01397,0.4874 -0.04192,0.75792c-0.02795,0.27164 -0.07937,0.5472 -0.15427,0.82667c-0.07602,0.27947 -0.18277,0.54888 -0.32027,0.80823c-0.13638,0.26047 -0.31357,0.4969 -0.53155,0.7093c-0.04471,-0.05589 -0.1062,-0.12185 -0.18445,-0.19786c-0.07825,-0.0749 -0.16097,-0.14756 -0.24817,-0.21799c-0.08608,-0.06931 -0.16265,-0.12073 -0.22972,-0.15427c0.2627,-0.25152 0.45554,-0.5254 0.5785,-0.82164c0.12297,-0.29624 0.20234,-0.59415 0.23811,-0.89375c0.03689,-0.29847 0.05534,-0.57627 0.05534,-0.83338v-1.14024M272.22221,210.41557c0.16768,0.27388 0.40523,0.50137 0.71265,0.68247c0.30742,0.18221 0.6752,0.32474 1.10335,0.42759c0.42703,0.10396 0.90325,0.17271 1.42865,0.20625c-0.07825,0.07825 -0.1593,0.18445 -0.24314,0.3186c-0.08384,0.13415 -0.15091,0.25711 -0.20122,0.3689c-0.57571,-0.06148 -1.08882,-0.16768 -1.53932,-0.3186c-0.44939,-0.15091 -0.83617,-0.35381 -1.16036,-0.60869c-0.32419,-0.25376 -0.59248,-0.56509 -0.80487,-0.93399l0.70426,-0.14253M274.17571,210.63355l0.66234,0.33536c-0.20122,0.13415 -0.41362,0.25823 -0.63719,0.37225c-0.22358,0.11514 -0.42759,0.21463 -0.61204,0.29847l-0.54497,-0.30183c0.12297,-0.06707 0.2532,-0.14141 0.3907,-0.22302c0.13638,-0.08049 0.27053,-0.16433 0.40244,-0.25152c0.13079,-0.08608 0.2437,-0.16265 0.33872,-0.22972M269.59799,212.57866l-0.04192,-0.58689l0.35213,-0.24314l2.31401,-0.32698c-0.02236,0.10061 -0.04192,0.21631 -0.05869,0.3471c-0.01677,0.13191 -0.02515,0.23979 -0.02515,0.32363c-0.51422,0.08384 -0.92896,0.15203 -1.2442,0.20457c-0.31636,0.05366 -0.56118,0.09726 -0.73445,0.13079c-0.17327,0.03354 -0.29903,0.06148 -0.37728,0.08384c-0.07825,0.02236 -0.13974,0.04471 -0.18445,0.06707M269.59799,212.57866c-0.02236,-0.06707 -0.05589,-0.14421 -0.10061,-0.2314c-0.04471,-0.08608 -0.0939,-0.17271 -0.14756,-0.25991c-0.05254,-0.08608 -0.10117,-0.15706 -0.14588,-0.21296c0.09502,-0.0503 0.19731,-0.13582 0.30686,-0.25655c0.10843,-0.11961 0.16265,-0.27444 0.16265,-0.46448v-0.80487l0.87195,0.01677v1.36661c0,0 -0.03242,0.01956 -0.09726,0.05869c-0.06372,0.03913 -0.14141,0.09223 -0.23308,0.1593c-0.09278,0.06707 -0.18669,0.13694 -0.28171,0.2096c-0.09502,0.07266 -0.17495,0.14644 -0.23979,0.22134c-0.06372,0.07602 -0.09558,0.14197 -0.09558,0.19786zM277.73895,207.14576h5.86049v0.71265h-5.86049v-0.71265M277.81441,209.58554h4.66156v0.71265h-4.66156v-0.71265M278.92949,206.54211h0.85518v1.97026h1.67682v-1.97026h0.88033v2.65776h-3.41233v-2.65776M282.24122,209.58554h0.17607l0.1593,-0.03354l0.56174,0.29344c-0.22917,0.43597 -0.5282,0.80879 -0.8971,1.11844c-0.3689,0.31077 -0.78811,0.56956 -1.25762,0.77637c-0.46951,0.20681 -0.97535,0.3717 -1.51752,0.49466c-0.54217,0.12297 -1.1067,0.21799 -1.69359,0.28506c-0.03354,-0.1062 -0.08552,-0.23364 -0.15594,-0.38232c-0.06931,-0.14756 -0.14029,-0.27164 -0.21296,-0.37225c0.53658,-0.03913 1.0564,-0.10788 1.55944,-0.20625c0.50305,-0.09726 0.96808,-0.22693 1.39512,-0.38902c0.42815,-0.16209 0.80431,-0.36499 1.1285,-0.60869c0.32419,-0.24258 0.57571,-0.52876 0.75457,-0.85853v-0.11738M279.21455,210.13051c0.27388,0.32419 0.63887,0.60086 1.09496,0.83003c0.45498,0.22917 0.9815,0.41194 1.57957,0.54832c0.59807,0.1375 1.24085,0.2314 1.92834,0.28171c-0.06148,0.06148 -0.12576,0.13974 -0.19283,0.23475c-0.06707,0.09502 -0.12967,0.19004 -0.1878,0.28506c-0.05925,0.09502 -0.10564,0.18166 -0.13918,0.25991c-0.71544,-0.07266 -1.37946,-0.19731 -1.99206,-0.37393c-0.61148,-0.17551 -1.15757,-0.41026 -1.63825,-0.70426c-0.48069,-0.29288 -0.88872,-0.64893 -1.22408,-1.06813l0.77134,-0.29344M277.08499,205.50248h6.59829v0.83841h-6.59829v-0.83841M276.66579,205.50248h0.88872v2.24694c0,0.34654 -0.0095,0.72774 -0.02851,1.14359c-0.02012,0.41697 -0.05813,0.84344 -0.11402,1.27941c-0.05589,0.43597 -0.13694,0.85797 -0.24314,1.266c-0.1062,0.40803 -0.24593,0.78252 -0.41921,1.12347c-0.06148,-0.04471 -0.14253,-0.09223 -0.24314,-0.14253c-0.10061,-0.0503 -0.20234,-0.09949 -0.30518,-0.14756c-0.10396,-0.04695 -0.19507,-0.07881 -0.27332,-0.09558c0.16768,-0.32419 0.30183,-0.6752 0.40244,-1.05304c0.10061,-0.37673 0.17495,-0.76351 0.22302,-1.16036c0.04695,-0.39685 0.07769,-0.78419 0.09223,-1.16204c0.01341,-0.37673 0.02012,-0.72439 0.02012,-1.04298v-2.25532M279.60022,204.89882l0.90548,-0.2096c0.09502,0.17886 0.18333,0.37449 0.26494,0.58689c0.08049,0.2124 0.1375,0.39405 0.17104,0.54497l-0.96417,0.23475c-0.02236,-0.1565 -0.06987,-0.34375 -0.14253,-0.56174c-0.07266,-0.21799 -0.15091,-0.41641 -0.23475,-0.59527zM287.79149,206.72656h0.93064v2.23017h-0.93064v-2.23017M285.29303,207.1793h6.02817v0.74619h-6.02817v-0.74619M284.45462,208.48722h7.65469v0.76295h-7.65469v-0.76295M284.74806,209.82029h7.1181v0.76295h-7.1181v-0.76295M289.46831,209.1328h0.92225v2.49008c0,0.22358 -0.02907,0.39797 -0.08719,0.52317c-0.05925,0.12632 -0.17551,0.22302 -0.34878,0.29009c-0.16768,0.06148 -0.37002,0.09893 -0.60701,0.11235c-0.23811,0.01453 -0.51926,0.0218 -0.84344,0.0218c-0.02795,-0.12856 -0.07434,-0.27276 -0.13918,-0.43262c-0.06372,-0.15874 -0.12632,-0.294 -0.1878,-0.40579c0.1565,0.00559 0.31021,0.0095 0.46113,0.01174c0.15091,0.00335 0.28338,0.00503 0.39741,0.00503c0.11514,0 0.19786,-0.00279 0.24817,-0.00838c0.07266,0 0.12185,-0.01006 0.14756,-0.03018c0.02459,-0.019 0.03689,-0.05645 0.03689,-0.11235v-2.46493M285.48586,205.37672h2.6913v0.74619h-2.6913v-0.74619M288.7892,205.37672h3.26142v0.74619h-3.26142v-0.74619M285.58647,204.68922l0.86356,0.23475c-0.17327,0.41362 -0.38846,0.81438 -0.64558,1.20228c-0.25711,0.38902 -0.51981,0.71488 -0.78811,0.97759c-0.06148,-0.0503 -0.13694,-0.1062 -0.22637,-0.16768c-0.08943,-0.06148 -0.18166,-0.12297 -0.27668,-0.18445c-0.09502,-0.06148 -0.17886,-0.11179 -0.25152,-0.15091c0.27388,-0.22917 0.5282,-0.5159 0.76295,-0.86021c0.23475,-0.34319 0.422,-0.69364 0.56174,-1.05137M288.9485,204.68922l0.86356,0.2096c-0.15091,0.40244 -0.34375,0.78922 -0.5785,1.16036c-0.23475,0.37225 -0.48348,0.68135 -0.74619,0.92728c-0.05589,-0.0503 -0.13023,-0.10788 -0.22302,-0.17271c-0.09167,-0.06372 -0.18389,-0.12632 -0.27668,-0.1878c-0.09167,-0.06148 -0.17383,-0.11179 -0.24649,-0.15091c0.25711,-0.2124 0.49299,-0.47789 0.70762,-0.79649c0.21575,-0.3186 0.38232,-0.64837 0.49969,-0.98932M285.86315,205.95522l0.72942,-0.27668c0.10061,0.1565 0.20122,0.33257 0.30183,0.5282c0.10061,0.19563 0.17327,0.36611 0.21799,0.51143l-0.77134,0.31021c-0.03354,-0.14532 -0.09781,-0.3186 -0.19283,-0.51981c-0.09502,-0.20122 -0.19004,-0.38567 -0.28506,-0.55335M289.46831,205.96361l0.72942,-0.28506c0.12856,0.15091 0.26158,0.3253 0.39908,0.52317c0.13638,0.19898 0.23811,0.37393 0.30518,0.52484l-0.77134,0.3186c-0.05589,-0.14532 -0.147,-0.32027 -0.27332,-0.52484c-0.1252,-0.20345 -0.25488,-0.38902 -0.38902,-0.5567M285.8883,210.93538l0.65396,-0.51143c0.16768,0.11179 0.33816,0.23755 0.51143,0.37728c0.17327,0.13974 0.33536,0.28227 0.48628,0.42759c0.15091,0.14532 0.26829,0.28227 0.35213,0.41082l-0.6875,0.57012c-0.08384,-0.12856 -0.19675,-0.26997 -0.33872,-0.42424c-0.14309,-0.15315 -0.29847,-0.30406 -0.46616,-0.45274c-0.16768,-0.14756 -0.33816,-0.28003 -0.51143,-0.39741zM294.55747,207.87518c-0.20681,0 -0.38455,-0.06987 -0.53323,-0.2096c-0.14756,-0.13974 -0.22134,-0.3158 -0.22134,-0.5282c0,-0.21799 0.07378,-0.39852 0.22134,-0.54161c0.14868,-0.14197 0.32642,-0.21296 0.53323,-0.21296c0.20681,0 0.38455,0.07099 0.53323,0.21296c0.14756,0.14309 0.22134,0.32363 0.22134,0.54161c0,0.2124 -0.07378,0.38846 -0.22134,0.5282c-0.14868,0.13974 -0.32642,0.2096 -0.53323,0.2096M294.55747,211.90794c-0.20681,0 -0.38455,-0.06987 -0.53323,-0.2096c-0.14756,-0.13974 -0.22134,-0.3158 -0.22134,-0.5282c0,-0.22358 0.07378,-0.40523 0.22134,-0.54497c0.14868,-0.13974 0.32642,-0.2096 0.53323,-0.2096c0.20681,0 0.38455,0.06987 0.53323,0.2096c0.14756,0.13974 0.22134,0.32139 0.22134,0.54497c0,0.2124 -0.07378,0.38846 -0.22134,0.5282c-0.14868,0.13974 -0.32642,0.2096 -0.53323,0.2096zM301.24798,207.69912h7.62115v0.88872h-7.62115v-0.88872M301.75103,205.28449h6.65698v0.88033h-6.65698v-0.88033M305.0879,208.42853h0.93902v2.69968c0,0.1565 0.02795,0.25544 0.08384,0.2968c0.05589,0.04248 0.17607,0.06372 0.36052,0.06372c0.04471,0 0.11905,0 0.22302,0c0.10285,0 0.21575,0 0.33872,0c0.12297,0 0.23923,0 0.34878,0c0.10843,0 0.1878,0 0.23811,0c0.12297,0 0.21519,-0.02962 0.27668,-0.08887c0.06148,-0.05813 0.10452,-0.17942 0.12912,-0.36387c0.02571,-0.18445 0.04695,-0.45833 0.06372,-0.82164c0.06707,0.0503 0.15259,0.10061 0.25655,0.15091c0.10285,0.0503 0.20904,0.09502 0.3186,0.13415c0.10843,0.03913 0.20457,0.06987 0.28841,0.09223c-0.03354,0.46392 -0.09223,0.82556 -0.17607,1.0849c-0.08384,0.26047 -0.21128,0.441 -0.38232,0.54161c-0.16992,0.10061 -0.403,0.15091 -0.69923,0.15091c-0.03913,0 -0.10452,0 -0.19619,0c-0.09278,0 -0.19507,0 -0.30686,0c-0.11179,0 -0.22525,0 -0.34039,0c-0.11402,0 -0.21575,0 -0.30518,0c-0.08943,0 -0.15371,0 -0.19283,0c-0.33536,0 -0.59527,-0.03801 -0.77972,-0.11402c-0.18445,-0.0749 -0.31133,-0.20178 -0.38064,-0.38064c-0.07043,-0.17886 -0.10564,-0.42479 -0.10564,-0.7378v-2.70807M304.44232,205.63663h0.92225c-0.01118,0.43038 -0.03074,0.86468 -0.05869,1.30289c-0.02795,0.43933 -0.07937,0.87809 -0.15427,1.3163c-0.07602,0.43933 -0.19228,0.86692 -0.34878,1.28277c-0.1565,0.41697 -0.36611,0.81102 -0.62881,1.18216c-0.2627,0.37225 -0.59359,0.71488 -0.99268,1.02789c-0.4002,0.31301 -0.88536,0.58689 -1.45548,0.82164c-0.06707,-0.11738 -0.1565,-0.24873 -0.26829,-0.39405c-0.11179,-0.14532 -0.22637,-0.2655 -0.34375,-0.36052c0.54776,-0.20122 1.00889,-0.44156 1.38338,-0.72103c0.37449,-0.27947 0.68023,-0.58577 0.91722,-0.9189c0.23811,-0.33201 0.42591,-0.68414 0.56341,-1.0564c0.13638,-0.37114 0.23531,-0.75233 0.2968,-1.14359c0.06148,-0.39126 0.10229,-0.78419 0.12241,-1.17881c0.019,-0.39349 0.0341,-0.78028 0.04527,-1.16036z" fill="#ffffff" fill-rule="nonzero" stroke-width="1"/></g></g></svg>