<svg version="1.1" xmlns="http://www.w3.org/2000/svg" xmlns:xlink="http://www.w3.org/1999/xlink" width="208" height="32" viewBox="0,0,208,32"><g transform="translate(-240,-164)"><g stroke-miterlimit="10"><path d="M240,196v-32h208v32z" fill="none" fill-rule="nonzero" stroke="none" stroke-width="0" stroke-linecap="butt"/><path d="" fill="#ffffff" fill-rule="nonzero" stroke="none" stroke-width="1" stroke-linecap="butt"/><path d="" fill="#ffffff" fill-rule="nonzero" stroke="none" stroke-width="1" stroke-linecap="butt"/><path d="M272.74536,184.36619h5.85992v1.48902h-5.85992v3.2333h-1.47508v-3.2333h-6.7288v-1.48902h6.7288v-2.29734h-5.27393v-1.44647c0.59273,-0.96432 1.23934,-2.09881 1.93983,-3.40347h-2.97037v-1.44647h3.69781c0.35025,-0.69487 0.67355,-1.40393 0.96992,-2.12717l1.49529,0.23399c-0.10777,0.26944 -0.39066,0.9005 -0.84868,1.89318h7.57748v1.44647h-8.32512c-0.59273,1.17703 -1.22587,2.31152 -1.89942,3.40347h3.63719v-2.5526h1.47508v2.5526h4.68793v1.44647h-4.68793zM298.81189,183.04734h-10.04269c-1.0238,1.19121 -2.27661,2.42497 -3.75843,3.70127l9.07277,-0.36162l-2.22273,-2.21226l0.99012,-1.04231c0.57926,0.55306 1.13494,1.09195 1.66705,1.61665c0.53211,0.5247 1.00023,0.98559 1.40436,1.38266c1.45488,1.44647 2.05434,2.03499 1.79839,1.76555l-1.05074,1.21249c-0.22901,-0.25526 -0.64661,-0.70197 -1.25281,-1.34012l-12.48769,0.57434l-0.38393,-1.51029c1.58959,-1.19121 2.98384,-2.45333 4.18277,-3.78636h-5.7993v-1.44647h2.66727v-11.06128h12.48769v11.06128h2.72789zM253.83197,177.38908v4.25434h4.56669v1.5741h-17.86264v-1.5741h3.29368v-10.10405c5.03818,-0.2978 9.14686,-0.77996 12.32603,-1.44647l0.28289,1.53156c-1.42793,0.32617 -3.13876,0.61688 -5.13248,0.87214c-1.99372,0.25526 -3.96723,0.43252 -5.92054,0.53179v2.82913h12.38665v1.53156zM338.82098,172.53913l-1.67715,5.42428c0.71397,0.9785 1.2124,1.84709 1.49529,2.60578c0.28289,0.75869 0.42434,1.56347 0.42434,2.41434c0,1.2054 -0.24248,2.06335 -0.72744,2.57387c-0.48496,0.51052 -1.29996,0.76578 -2.445,0.76578h-1.15178l-0.3031,-1.51029h1.05074c0.79479,0 1.35048,-0.15245 1.66705,-0.45734c0.31657,-0.30489 0.47486,-0.84732 0.47486,-1.62728c0,-0.68069 -0.15829,-1.37557 -0.47486,-2.08463c-0.31657,-0.70906 -0.81837,-1.49611 -1.50539,-2.36116l1.63674,-5.76463h-3.39471v16.61319h-1.43467v-18.18729h6.36508zM317.30094,181.7285l1.59632,0.40416c0,0.49634 -0.04715,1.66628 -0.14145,3.50983c-0.04041,0.68069 -0.14481,1.20185 -0.3132,1.56347c-0.16839,0.36162 -0.44118,0.61688 -0.81837,0.76578c-0.37719,0.1489 -0.9093,0.22335 -1.59632,0.22335h-2.08128c-0.68702,0 -1.2124,-0.078 -1.57612,-0.23399c-0.36372,-0.15599 -0.61967,-0.43252 -0.76785,-0.8296c-0.14818,-0.39707 -0.22227,-0.9785 -0.22227,-1.74428v-15.71978h1.55591v7.04093c0.80826,-0.51052 1.66031,-1.0884 2.55614,-1.73364c0.89583,-0.64524 1.68725,-1.25148 2.37428,-1.81873l0.9093,1.46775c-1.15851,0.90759 -3.10508,2.26898 -5.83971,4.08416v6.50914c0,0.38289 0.03368,0.66651 0.10103,0.85087c0.06736,0.18435 0.1886,0.31198 0.36372,0.38289c0.17512,0.07091 0.44455,0.10636 0.80826,0.10636h1.41446c0.6062,0 1.01707,-0.09218 1.2326,-0.27653c0.21554,-0.18435 0.33004,-0.54597 0.34351,-1.08486c0.02694,-0.46798 0.05052,-1.0494 0.07072,-1.74428c0.02021,-0.69487 0.03031,-1.26921 0.03031,-1.72301zM271.73503,171.75208h6.82983v1.4252h-14.44773v5.12648c0,1.84355 -0.05725,3.3432 -0.17176,4.49896c-0.1145,1.15576 -0.3132,2.20516 -0.5961,3.14821c-0.28289,0.94305 -0.7005,1.99599 -1.25281,3.15885l-1.43467,-0.78705c0.56579,-1.14867 0.98676,-2.17326 1.26291,-3.07376c0.27616,-0.9005 0.46812,-1.86127 0.57589,-2.88231c0.10777,-1.02104 0.16165,-2.3257 0.16165,-3.91399v-6.70058h7.31479l-0.6062,-1.957l1.63674,-0.2978c0.01347,0.04254 0.06736,0.19854 0.16165,0.46798c0.29636,0.87923 0.48496,1.47484 0.56579,1.78682zM301.49937,176.79347v-1.68046h5.01124v-5.46682h1.57612v19.20833h-1.57612v-4.04162l-4.89,2.36116l-0.58599,-1.61665l5.47599,-2.63769v-6.12625zM330.87978,173.5389h-1.5155c-0.16165,1.31884 -0.37045,2.55969 -0.6264,3.72255h2.72789v1.53156h-10.12351v-1.53156h2.58645c-0.25595,-1.61665 -0.49169,-2.8575 -0.70723,-3.72255h-1.37405v-1.51029h3.94029c-0.17512,-0.7516 -0.37719,-1.44647 -0.6062,-2.08463l1.49529,-0.38289c0.26942,0.85087 0.49843,1.67337 0.68702,2.46752h3.51595zM323.92871,187.32295v1.4252h-1.41446v-8.01943h7.71893v6.59422zM294.62912,181.60087v-2.33989h-9.55773v2.33989zM285.07139,175.62353v2.2548h9.55773v-2.2548zM285.07139,174.28341h9.55773v-2.23353h-9.55773zM252.27606,181.64341v-4.25434h-6.89045v4.25434zM241.56656,189.10977l-0.74764,-1.48902c0.82174,-0.39707 1.85901,-0.98913 3.11182,-1.77619c1.25281,-0.78705 2.2564,-1.47838 3.01079,-2.07399l0.86888,1.29757c-0.79479,0.63815 -1.79502,1.34366 -3.00068,2.11653c-1.20566,0.77287 -2.28671,1.41457 -3.24316,1.92509zM251.12429,185.08943l0.84868,-1.34012l6.08219,3.85018l-0.86888,1.48902c-0.76785,-0.55306 -1.75124,-1.22312 -2.95017,-2.01017c-1.19893,-0.78705 -2.2362,-1.45002 -3.11182,-1.9889zM323.92871,185.87648h4.89v-3.63746h-4.89zM327.99024,173.5389h-3.33409c0.35025,1.75846 0.58599,2.99931 0.70723,3.72255h2.00045c0.24248,-1.10613 0.45128,-2.34698 0.6264,-3.72255z" fill="#ffffff" fill-rule="evenodd" stroke="#ffffff" stroke-width="0.5" stroke-linecap="round"/></g></g></svg>