<svg version="1.1" xmlns="http://www.w3.org/2000/svg" xmlns:xlink="http://www.w3.org/1999/xlink" width="208" height="32" viewBox="0,0,208,32"><g transform="translate(-240,-164)"><g stroke="none" stroke-miterlimit="10"><path d="M241.71472,175.63632h5.894v2.1306h-5.894v-2.1306M251.51151,171.17599h2.23016v14.47615c0,0.54427 0.0531,0.88941 0.1593,1.03543c0.1062,0.14602 0.35178,0.21903 0.73675,0.21903c0.07965,0 0.22567,0 0.43807,0c0.2124,0 0.4447,0 0.69693,0c0.25222,0 0.48453,0 0.69693,0c0.2124,0 0.37169,0 0.47789,0c0.26549,0 0.4686,-0.11284 0.60931,-0.33851c0.13806,-0.22567 0.24027,-0.63454 0.30665,-1.22659c0.06637,-0.5894 0.11947,-1.42173 0.1593,-2.49699c0.18585,0.13275 0.39824,0.26549 0.63719,0.39824c0.23895,0.13275 0.48453,0.24824 0.73675,0.34647c0.25222,0.10089 0.47789,0.17788 0.67701,0.23098c-0.06637,1.24783 -0.19248,2.25273 -0.37833,3.0147c-0.18585,0.76463 -0.47524,1.31951 -0.86817,1.66466c-0.39028,0.34514 -0.95047,0.51772 -1.68059,0.51772c-0.1062,0 -0.29205,0 -0.55754,0c-0.26549,0 -0.55356,0 -0.86419,0c-0.31328,0 -0.59604,0 -0.84826,0c-0.25222,0 -0.43807,0 -0.55754,0c-0.71684,0 -1.27703,-0.10354 -1.68059,-0.31063c-0.40621,-0.20443 -0.6956,-0.55223 -0.86817,-1.0434c-0.17257,-0.49117 -0.25886,-1.17482 -0.25886,-2.05095v-14.43632M246.55338,171.15608h2.23016v18.06034h-2.23016v-18.06034M258.08253,174.16282l1.53324,1.91157c-0.66374,0.46462 -1.37394,0.92924 -2.1306,1.39385c-0.75666,0.46462 -1.52925,0.91596 -2.31778,1.35403c-0.79118,0.43807 -1.5651,0.84959 -2.32176,1.23455c-0.07965,-0.23895 -0.20576,-0.5217 -0.37833,-0.84826c-0.17257,-0.32391 -0.33851,-0.59869 -0.4978,-0.82436c0.73011,-0.38497 1.46421,-0.82038 2.20229,-1.30624c0.73542,-0.4832 1.44164,-0.97702 2.11865,-1.48147c0.67701,-0.50444 1.27438,-0.98233 1.7921,-1.43368M241.03771,184.73618c0.54427,-0.17257 1.17216,-0.38231 1.88369,-0.62922c0.70887,-0.24426 1.46155,-0.50975 2.25804,-0.79649c0.79649,-0.28408 1.58634,-0.57214 2.36955,-0.86419l0.39824,1.93148c-1.00888,0.45134 -2.0337,0.89605 -3.07444,1.33412c-1.0434,0.43807 -2.00316,0.83631 -2.8793,1.19473zM268.69571,176.29342h1.99122c-0.09292,0.83631 -0.19248,1.7151 -0.29868,2.63637c-0.1062,0.92392 -0.22169,1.83988 -0.34647,2.74788c-0.12744,0.91065 -0.24824,1.77351 -0.3624,2.58858c-0.11151,0.81773 -0.22036,1.53855 -0.32656,2.16246h-2.07087c0.13275,-0.65046 0.26549,-1.3912 0.39824,-2.2222c0.13275,-0.82835 0.26284,-1.69785 0.39028,-2.60849c0.12478,-0.90799 0.24027,-1.81732 0.34647,-2.72797c0.1062,-0.90799 0.19912,-1.76687 0.27877,-2.57663M271.68254,178.60323l1.11508,-0.71684c0.35842,0.27877 0.73011,0.604 1.11508,0.9757c0.38497,0.37169 0.68365,0.69693 0.89605,0.9757l-1.17482,0.8164c-0.18585,-0.29205 -0.4686,-0.63454 -0.84826,-1.02747c-0.377,-0.39028 -0.74472,-0.73144 -1.10313,-1.02349M271.14491,182.72505l1.17482,-0.73675c0.39824,0.30532 0.81242,0.6571 1.24252,1.05535c0.43276,0.39824 0.76861,0.75666 1.00756,1.07526l-1.21464,0.83631c-0.22567,-0.30532 -0.5509,-0.67038 -0.9757,-1.09517c-0.42479,-0.42479 -0.83631,-0.80312 -1.23455,-1.13499M268.97448,172.88844h10.29459v1.93148h-10.29459v-1.93148M269.53202,176.29342h7.58654v1.83192h-7.58654v-1.83192M266.18678,180.27585h13.60001v1.93148h-13.60001v-1.93148M268.35721,184.5968h10.91187v1.83192h-10.91187v-1.83192M269.09396,170.79766l2.07087,0.53763c-0.26549,0.82304 -0.58807,1.64209 -0.96773,2.45716c-0.377,0.81773 -0.7779,1.58501 -1.2027,2.30185c-0.42479,0.71684 -0.85622,1.34739 -1.29429,1.89166c-0.13275,-0.11947 -0.31461,-0.25222 -0.54559,-0.39824c-0.23364,-0.14602 -0.46329,-0.29205 -0.68896,-0.43807c-0.22567,-0.14602 -0.42479,-0.26549 -0.59737,-0.35842c0.45134,-0.47789 0.88012,-1.03942 1.28633,-1.68457c0.40355,-0.6425 0.77126,-1.33279 1.10313,-2.07087c0.33187,-0.73542 0.61064,-1.48147 0.83631,-2.23813M276.50128,176.29342h1.99122c0,0 -0.00265,0.05974 -0.00796,0.17921c-0.00796,0.11947 -0.01195,0.24824 -0.01195,0.3863c0,0.14071 -0.00664,0.25753 -0.01991,0.35045c-0.07965,1.89829 -0.1593,3.5072 -0.23895,4.82671c-0.07965,1.32217 -0.16992,2.40804 -0.27081,3.25763c-0.09823,0.84959 -0.20974,1.51332 -0.33452,1.99122c-0.12744,0.47789 -0.27744,0.82304 -0.45002,1.03543c-0.22567,0.30532 -0.46196,0.51373 -0.70887,0.62524c-0.24426,0.11416 -0.52568,0.19779 -0.84428,0.25089c-0.29205,0.03982 -0.66374,0.05974 -1.11508,0.05974c-0.45134,0 -0.9226,-0.01328 -1.41376,-0.03982c-0.01328,-0.26549 -0.06637,-0.56418 -0.1593,-0.89605c-0.09292,-0.33187 -0.21903,-0.62391 -0.37833,-0.87614c0.46462,0.03982 0.88941,0.06637 1.27438,0.07965c0.38497,0.01328 0.67038,0.01991 0.85622,0.01991c0.17257,0 0.31196,-0.02389 0.41816,-0.07168c0.1062,-0.04513 0.2124,-0.12744 0.31859,-0.24691c0.13275,-0.14602 0.25222,-0.44205 0.35842,-0.88808c0.1062,-0.44338 0.20576,-1.07393 0.29868,-1.89166c0.09292,-0.81507 0.17656,-1.85714 0.25089,-3.12621c0.07168,-1.26641 0.13407,-2.80231 0.18717,-4.60768v-0.41816M262.32382,172.56984l1.19473,-1.45359c0.38497,0.17257 0.79914,0.37833 1.24252,0.61728c0.44603,0.23895 0.87082,0.48453 1.27438,0.73675c0.40621,0.25222 0.73542,0.48453 0.98764,0.69693l-1.25447,1.61289c-0.23895,-0.2124 -0.55489,-0.45533 -0.94782,-0.72879c-0.39028,-0.27081 -0.80843,-0.5363 -1.25447,-0.79649c-0.44338,-0.25753 -0.85755,-0.48586 -1.24252,-0.68498M261.20874,178.26473l1.15491,-1.43368c0.38497,0.17257 0.78587,0.37435 1.2027,0.60533c0.41948,0.23364 0.81773,0.46993 1.19473,0.70887c0.37966,0.23895 0.68896,0.46462 0.92791,0.67701l-1.23455,1.6328c-0.2124,-0.22567 -0.50444,-0.47126 -0.87614,-0.73675c-0.37169,-0.26549 -0.76596,-0.52435 -1.18278,-0.77657c-0.41948,-0.25222 -0.81507,-0.47789 -1.18677,-0.67701M261.76628,187.92213c0.26549,-0.51772 0.5602,-1.12836 0.8841,-1.83192c0.32656,-0.70356 0.65179,-1.45359 0.9757,-2.25008c0.32656,-0.79649 0.62922,-1.5797 0.90799,-2.34964l1.6328,1.15491c-0.23895,0.70356 -0.50046,1.42704 -0.78454,2.17043c-0.28674,0.74339 -0.58011,1.48014 -0.88012,2.21025c-0.29735,0.73011 -0.59205,1.41376 -0.8841,2.05095zM286.59676,173.26677h12.74379v1.73236h-12.74379v-1.73236M291.69427,174.04335l2.46911,0.1593c-0.19912,0.53099 -0.42214,1.04871 -0.66905,1.55315c-0.24426,0.50444 -0.46594,0.94251 -0.66507,1.3142l-1.73236,-0.27877c0.11947,-0.42479 0.23895,-0.88941 0.35842,-1.39385c0.11947,-0.50444 0.19912,-0.95578 0.23895,-1.35403M295.1789,170.81757l2.07087,0.57745c-0.33187,0.49117 -0.65976,0.9757 -0.98366,1.45359c-0.32656,0.47789 -0.62922,0.88277 -0.90799,1.21464l-1.69253,-0.53763c0.17257,-0.25222 0.35576,-0.53763 0.54958,-0.85622c0.19116,-0.31859 0.37302,-0.64117 0.54559,-0.96773c0.17257,-0.32391 0.31196,-0.61861 0.41816,-0.8841M288.40876,171.43485l1.7921,-0.75666c0.26549,0.31859 0.52701,0.67967 0.78454,1.08322c0.26019,0.40621 0.45002,0.75533 0.56949,1.04738l-1.89166,0.83631c-0.1062,-0.30532 -0.27877,-0.66374 -0.51772,-1.07526c-0.23895,-0.41152 -0.48453,-0.78985 -0.73675,-1.13499M285.84009,177.96604v8.00469h-2.05095v-6.03339h-2.46911v-1.9713h4.52006M281.37977,172.60967l1.65271,-1.03543c0.34514,0.31859 0.70356,0.67038 1.07526,1.05535c0.37169,0.38497 0.72082,0.76994 1.04738,1.15491c0.32391,0.38497 0.57878,0.73675 0.76463,1.05535l-1.75227,1.17482c-0.17257,-0.30532 -0.4155,-0.6571 -0.72879,-1.05535c-0.31063,-0.39824 -0.64515,-0.80312 -1.00357,-1.21464c-0.35842,-0.41152 -0.7102,-0.78985 -1.05535,-1.13499M284.96396,185.31363c0.34514,0 0.68365,0.11284 1.01552,0.33851c0.33187,0.22567 0.78321,0.48453 1.35403,0.77657c0.66374,0.33187 1.4443,0.5509 2.34167,0.6571c0.89472,0.1062 1.87307,0.1593 2.93505,0.1593c0.70356,0 1.48412,-0.01726 2.34167,-0.05177c0.8549,-0.03186 1.7005,-0.08098 2.53681,-0.14735c0.83631,-0.06637 1.57306,-0.13939 2.21025,-0.21903c-0.07965,0.18585 -0.1593,0.4009 -0.23895,0.64515c-0.07965,0.24691 -0.15266,0.49648 -0.21903,0.7487c-0.06637,0.25222 -0.1062,0.47789 -0.11947,0.67701c-0.34514,0.01328 -0.78587,0.03319 -1.32217,0.05974c-0.53896,0.02655 -1.12305,0.0531 -1.75227,0.07965c-0.63188,0.02655 -1.25314,0.04646 -1.86378,0.05974c-0.61064,0.01328 -1.16154,0.01991 -1.65271,0.01991c-1.19473,0 -2.2368,-0.07301 -3.12621,-0.21903c-0.88941,-0.14602 -1.69917,-0.39824 -2.42928,-0.75666c-0.45134,-0.23895 -0.84295,-0.47126 -1.17482,-0.69693c-0.33187,-0.22567 -0.62391,-0.33851 -0.87614,-0.33851c-0.22567,0 -0.48453,0.10885 -0.77657,0.32656c-0.29205,0.22036 -0.60135,0.50577 -0.92791,0.85622c-0.32391,0.35311 -0.63852,0.72215 -0.94384,1.10712l-1.29429,-1.7921c0.70356,-0.65046 1.40447,-1.19473 2.10273,-1.6328c0.6956,-0.43807 1.32217,-0.6571 1.87971,-0.6571M289.96191,180.47498v1.25447h5.75462v-1.25447h-5.75462M289.96191,183.1233v1.25447h5.75462v-1.25447h-5.75462M289.96191,177.84657v1.25447h5.75462v-1.25447h-5.75462M287.95078,176.33325h9.85652v9.57775h-9.85652zM303.48228,172.07204h13.65975v17.06473h-2.2899v-14.91422h-9.1596v14.95404h-2.21025v-17.10455M304.97569,178.80235h10.83222v2.11069h-10.83222v-2.11069M304.95578,185.73179h10.87205v2.15051h-10.87205zM321.40323,174.7801h17.56253v2.17043h-17.56253v-2.17043M324.70865,183.7804h10.85213v2.17043h-10.85213v-2.17043M329.00968,170.83749h2.26999v18.57806h-2.26999v-18.57806M327.17776,175.55667l1.95139,0.55754c-0.47789,1.40713 -1.058,2.75053 -1.74032,4.03022c-0.68498,1.28234 -1.45226,2.45451 -2.30185,3.51649c-0.84959,1.06198 -1.76555,1.9713 -2.74788,2.72797c-0.11947,-0.18585 -0.27213,-0.38497 -0.45798,-0.59737c-0.18585,-0.2124 -0.37833,-0.42214 -0.57745,-0.62922c-0.19912,-0.20443 -0.37833,-0.37302 -0.53763,-0.50577c0.92924,-0.62391 1.80271,-1.41775 2.62044,-2.3815c0.81507,-0.96109 1.54784,-2.01909 2.1983,-3.174c0.65046,-1.15491 1.18145,-2.33636 1.59297,-3.54437M333.07176,175.61641c0.41152,1.18145 0.93985,2.32972 1.58501,3.44481c0.6425,1.11508 1.3819,2.13724 2.21822,3.06647c0.83631,0.92924 1.71908,1.69917 2.64832,2.30981c-0.17257,0.14602 -0.36771,0.32789 -0.58542,0.54559c-0.22036,0.22036 -0.42612,0.44603 -0.61728,0.67701c-0.19381,0.23364 -0.35709,0.45002 -0.48984,0.64914c-0.98233,-0.73011 -1.88767,-1.61952 -2.71602,-2.66823c-0.831,-1.04871 -1.58103,-2.21423 -2.25008,-3.49658c-0.6717,-1.27969 -1.2465,-2.60318 -1.72439,-3.97049zM348.3444,176.29342h1.99122c-0.09292,0.83631 -0.19248,1.7151 -0.29868,2.63637c-0.1062,0.92392 -0.22302,1.83988 -0.35045,2.74788c-0.12478,0.91065 -0.24293,1.77351 -0.35444,2.58858c-0.11416,0.81773 -0.22434,1.53855 -0.33054,2.16246h-2.07087c0.13275,-0.65046 0.26549,-1.3912 0.39824,-2.2222c0.13275,-0.82835 0.26284,-1.69785 0.39028,-2.60849c0.12478,-0.90799 0.24027,-1.81732 0.34647,-2.72797c0.1062,-0.90799 0.19912,-1.76687 0.27877,-2.57663M351.33122,178.60323l1.11508,-0.71684c0.35842,0.27877 0.73011,0.604 1.11508,0.9757c0.38497,0.37169 0.68365,0.69693 0.89605,0.9757l-1.17482,0.8164c-0.18585,-0.29205 -0.46727,-0.63454 -0.84428,-1.02747c-0.37966,-0.39028 -0.7487,-0.73144 -1.10712,-1.02349M350.79359,182.72505l1.17482,-0.73675c0.39824,0.30532 0.81374,0.6571 1.2465,1.05535c0.4301,0.39824 0.76463,0.75666 1.00357,1.07526l-1.21464,0.83631c-0.22567,-0.30532 -0.5509,-0.67038 -0.9757,-1.09517c-0.42479,-0.42479 -0.83631,-0.80312 -1.23455,-1.13499M348.62317,172.88844h10.29459v1.93148h-10.29459v-1.93148M349.18071,176.29342h7.58654v1.83192h-7.58654v-1.83192M345.83546,180.27585h13.60001v1.93148h-13.60001v-1.93148M348.00589,184.5968h10.91187v1.83192h-10.91187v-1.83192M348.74264,170.79766l2.07087,0.53763c-0.26549,0.82304 -0.58675,1.64209 -0.96375,2.45716c-0.37966,0.81773 -0.78189,1.58501 -1.20668,2.30185c-0.42479,0.71684 -0.85622,1.34739 -1.29429,1.89166c-0.13275,-0.11947 -0.31594,-0.25222 -0.54958,-0.39824c-0.23098,-0.14602 -0.45931,-0.29205 -0.68498,-0.43807c-0.22567,-0.14602 -0.42479,-0.26549 -0.59737,-0.35842c0.45134,-0.47789 0.87879,-1.03942 1.28234,-1.68457c0.40621,-0.6425 0.77525,-1.33279 1.10712,-2.07087c0.33187,-0.73542 0.61064,-1.48147 0.83631,-2.23813M356.14997,176.29342h1.99122c0,0 -0.00265,0.05974 -0.00796,0.17921c-0.00796,0.11947 -0.01195,0.24824 -0.01195,0.3863c0,0.14071 -0.00664,0.25753 -0.01991,0.35045c-0.07965,1.89829 -0.1593,3.5072 -0.23895,4.82671c-0.07965,1.32217 -0.16859,2.40804 -0.26682,3.25763c-0.10089,0.84959 -0.21372,1.51332 -0.33851,1.99122c-0.12744,0.47789 -0.27744,0.82304 -0.45002,1.03543c-0.22567,0.30532 -0.46063,0.51373 -0.70489,0.62524c-0.24691,0.11416 -0.52966,0.19779 -0.84826,0.25089c-0.29205,0.03982 -0.66374,0.05974 -1.11508,0.05974c-0.45134,0 -0.9226,-0.01328 -1.41376,-0.03982c-0.01328,-0.26549 -0.06637,-0.56418 -0.1593,-0.89605c-0.09292,-0.33187 -0.21903,-0.62391 -0.37833,-0.87614c0.46462,0.03982 0.88941,0.06637 1.27438,0.07965c0.38497,0.01328 0.67038,0.01991 0.85622,0.01991c0.17257,0 0.31196,-0.02389 0.41816,-0.07168c0.1062,-0.04513 0.2124,-0.12744 0.31859,-0.24691c0.13275,-0.14602 0.25222,-0.44205 0.35842,-0.88808c0.1062,-0.44338 0.20576,-1.07393 0.29868,-1.89166c0.09292,-0.81507 0.17656,-1.85714 0.25089,-3.12621c0.07168,-1.26641 0.13407,-2.80231 0.18717,-4.60768v-0.41816M341.9725,172.56984l1.19473,-1.45359c0.38497,0.17257 0.79914,0.37833 1.24252,0.61728c0.44603,0.23895 0.87215,0.48453 1.27836,0.73675c0.40355,0.25222 0.73144,0.48453 0.98366,0.69693l-1.25447,1.61289c-0.23895,-0.2124 -0.55356,-0.45533 -0.94384,-0.72879c-0.39293,-0.27081 -0.81242,-0.5363 -1.25845,-0.79649c-0.44338,-0.25753 -0.85755,-0.48586 -1.24252,-0.68498M340.85742,178.26473l1.15491,-1.43368c0.38497,0.17257 0.78587,0.37435 1.2027,0.60533c0.41948,0.23364 0.81773,0.46993 1.19473,0.70887c0.37966,0.23895 0.68896,0.46462 0.92791,0.67701l-1.23455,1.6328c-0.2124,-0.22567 -0.50444,-0.47126 -0.87614,-0.73675c-0.37169,-0.26549 -0.76596,-0.52435 -1.18278,-0.77657c-0.41948,-0.25222 -0.81507,-0.47789 -1.18677,-0.67701M341.41496,187.92213c0.26549,-0.51772 0.56152,-1.12836 0.88808,-1.83192c0.32391,-0.70356 0.64914,-1.45359 0.9757,-2.25008c0.32391,-0.79649 0.62524,-1.5797 0.90401,-2.34964l1.6328,1.15491c-0.23895,0.70356 -0.50046,1.42704 -0.78454,2.17043c-0.28674,0.74339 -0.57878,1.48014 -0.87614,2.21025c-0.30001,0.73011 -0.59604,1.41376 -0.88808,2.05095zM367.79859,180.63427h10.07556v8.72153h-2.15051v-6.75023h-5.85418v6.82987h-2.07087v-8.80118M369.01323,186.32915h7.70601v1.99122h-7.70601v-1.99122M369.49112,171.75345h6.11304v1.99122h-6.11304v-1.99122M368.7942,171.75345h2.07087v2.2899c0,0.73011 -0.09558,1.49607 -0.28674,2.29786c-0.19381,0.80445 -0.55356,1.57837 -1.07924,2.32176c-0.52303,0.74339 -1.28898,1.39385 -2.29786,1.95139c-0.06637,-0.14602 -0.1885,-0.32523 -0.36638,-0.53763c-0.18054,-0.2124 -0.36373,-0.42214 -0.54958,-0.62922c-0.18585,-0.20443 -0.34514,-0.35975 -0.47789,-0.46594c0.87614,-0.46462 1.5266,-0.97968 1.95139,-1.54518c0.42479,-0.56285 0.70356,-1.14296 0.83631,-1.74032c0.13275,-0.59737 0.19912,-1.16818 0.19912,-1.71245v-2.23016M374.56873,171.75345h2.09078v5.3962c0,0.30532 0.01726,0.52435 0.05177,0.6571c0.03186,0.13275 0.1208,0.19912 0.26682,0.19912c0.07965,0 0.17921,0 0.29868,0c0.11947,0 0.24293,0 0.37037,0c0.12478,0 0.227,0 0.30665,0c0.13275,0 0.30266,-0.01062 0.50975,-0.03186c0.20443,-0.01858 0.37302,-0.04779 0.50577,-0.08761c0.01328,0.26549 0.03053,0.54692 0.05177,0.84428c0.01858,0.30001 0.04779,0.57612 0.08761,0.82835c-0.13275,0.0531 -0.30134,0.08894 -0.50577,0.10753c-0.20709,0.02124 -0.41019,0.03186 -0.60931,0.03186c-0.1062,0 -0.2416,0 -0.40621,0c-0.16726,0 -0.3332,0 -0.4978,0c-0.16726,0 -0.30399,0 -0.41019,0c-0.58409,0 -1.0288,-0.09292 -1.33412,-0.27877c-0.30532,-0.18585 -0.51108,-0.47126 -0.61728,-0.85622c-0.1062,-0.38497 -0.1593,-0.8695 -0.1593,-1.45359v-5.35637M361.62581,172.64949l1.35403,-1.37394c0.41152,0.2124 0.85357,0.46063 1.32615,0.74472c0.46993,0.28674 0.91729,0.57214 1.34208,0.85622c0.42479,0.28674 0.77657,0.55621 1.05535,0.80843l-1.43368,1.53324c-0.25222,-0.25222 -0.58409,-0.53099 -0.99561,-0.83631c-0.41152,-0.30532 -0.84959,-0.61064 -1.3142,-0.91596c-0.46462,-0.30532 -0.90932,-0.57745 -1.33412,-0.8164M360.59038,178.04569l1.33412,-1.39385c0.41152,0.19912 0.84959,0.42745 1.3142,0.68498c0.46462,0.26019 0.91596,0.52568 1.35403,0.79649c0.43807,0.27346 0.79649,0.52303 1.07526,0.7487l-1.41376,1.55315c-0.26549,-0.23895 -0.604,-0.50179 -1.01552,-0.78852c-0.41152,-0.28408 -0.85224,-0.56949 -1.32217,-0.85622c-0.47258,-0.28408 -0.91463,-0.53232 -1.32615,-0.74472M361.06827,187.66327c0.37169,-0.49117 0.78985,-1.07526 1.25447,-1.75227c0.46462,-0.67701 0.93985,-1.40049 1.42571,-2.17043c0.4832,-0.76994 0.9372,-1.53324 1.36199,-2.2899l1.55315,1.53324c-0.37169,0.67701 -0.77259,1.37394 -1.2027,2.09078c-0.43276,0.71684 -0.86419,1.42704 -1.29429,2.1306c-0.43276,0.70356 -0.86817,1.37394 -1.30624,2.01113zM382.25482,177.07h2.1306v3.80322c0,0.62391 -0.02921,1.29695 -0.08761,2.01909c-0.06106,0.7248 -0.16726,1.46155 -0.31859,2.21025c-0.15399,0.75135 -0.377,1.47483 -0.66905,2.17043c-0.29205,0.69825 -0.67038,1.32615 -1.13499,1.88369c-0.1062,-0.14602 -0.26549,-0.3093 -0.47789,-0.48984c-0.2124,-0.17788 -0.43409,-0.35045 -0.66507,-0.51772c-0.23364,-0.16461 -0.4301,-0.28674 -0.5894,-0.36638c0.55754,-0.67701 0.96242,-1.4204 1.21464,-2.23016c0.25222,-0.80976 0.41417,-1.6235 0.48586,-2.44123c0.07434,-0.81507 0.11151,-1.57439 0.11151,-2.27795v-3.7634M383.42964,177.07h15.23281v1.89166h-15.23281v-1.89166M385.71954,180.21612h12.28581v1.81201h-12.28581v-1.81201M384.80358,183.70075h14.15755v1.89166h-14.15755v-1.89166M390.61794,180.77366h2.25008v8.64188h-2.25008v-8.64188M382.31456,171.55432h2.17043v2.36955h10.97161v-2.36955h2.25008v4.2612h-15.39211v-4.2612M388.78602,170.81757h2.26999v4.00235h-2.26999zM401.01209,175.63632h5.894v2.1306h-5.894v-2.1306M410.80888,171.17599h2.23016v14.47615c0,0.54427 0.0531,0.88941 0.1593,1.03543c0.1062,0.14602 0.35178,0.21903 0.73675,0.21903c0.07965,0 0.22567,0 0.43807,0c0.2124,0 0.4447,0 0.69693,0c0.25222,0 0.48453,0 0.69693,0c0.2124,0 0.37169,0 0.47789,0c0.26549,0 0.4686,-0.11284 0.60931,-0.33851c0.13806,-0.22567 0.24027,-0.63454 0.30665,-1.22659c0.06637,-0.5894 0.11947,-1.42173 0.1593,-2.49699c0.18585,0.13275 0.39824,0.26549 0.63719,0.39824c0.23895,0.13275 0.48453,0.24824 0.73675,0.34647c0.25222,0.10089 0.47789,0.17788 0.67701,0.23098c-0.06637,1.24783 -0.19248,2.25273 -0.37833,3.0147c-0.18585,0.76463 -0.47391,1.31951 -0.86419,1.66466c-0.39293,0.34514 -0.95446,0.51772 -1.68457,0.51772c-0.1062,0 -0.29205,0 -0.55754,0c-0.26549,0 -0.55356,0 -0.86419,0c-0.31328,0 -0.59604,0 -0.84826,0c-0.25222,0 -0.43807,0 -0.55754,0c-0.71684,0 -1.27703,-0.10354 -1.68059,-0.31063c-0.40621,-0.20443 -0.6956,-0.55223 -0.86817,-1.0434c-0.17257,-0.49117 -0.25886,-1.17482 -0.25886,-2.05095v-14.43632M405.85075,171.15608h2.23016v18.06034h-2.23016v-18.06034M417.37989,174.16282l1.53324,1.91157c-0.66374,0.46462 -1.37394,0.92924 -2.1306,1.39385c-0.75666,0.46462 -1.52925,0.91596 -2.31778,1.35403c-0.79118,0.43807 -1.5651,0.84959 -2.32176,1.23455c-0.07965,-0.23895 -0.20576,-0.5217 -0.37833,-0.84826c-0.17257,-0.32391 -0.33851,-0.59869 -0.4978,-0.82436c0.73011,-0.38497 1.46421,-0.82038 2.20229,-1.30624c0.73542,-0.4832 1.44164,-0.97702 2.11865,-1.48147c0.67701,-0.50444 1.27438,-0.98233 1.7921,-1.43368M400.33507,184.73618c0.54427,-0.17257 1.17216,-0.38231 1.88369,-0.62922c0.70887,-0.24426 1.46155,-0.50975 2.25804,-0.79649c0.79649,-0.28408 1.58634,-0.57214 2.36955,-0.86419l0.39824,1.93148c-1.00888,0.45134 -2.0337,0.89605 -3.07444,1.33412c-1.0434,0.43807 -2.00316,0.83631 -2.8793,1.19473zM431.99543,171.79327h5.19708v1.93148h-3.30542v15.61114h-1.89166v-17.54262M436.75443,171.79327h0.39824l0.31859,-0.07965l1.4735,0.91596c-0.33187,0.95578 -0.70356,1.96732 -1.11508,3.03461c-0.41152,1.06995 -0.80976,2.04299 -1.19473,2.91912c0.82304,0.91596 1.35801,1.7682 1.60492,2.55672c0.24426,0.79118 0.36638,1.51864 0.36638,2.18237c0,0.67701 -0.07567,1.25447 -0.227,1.73236c-0.15399,0.47789 -0.41019,0.84295 -0.76861,1.09517c-0.17257,0.11947 -0.37169,0.21505 -0.59737,0.28674c-0.22567,0.07434 -0.46462,0.13142 -0.71684,0.17124c-0.22567,0.02655 -0.47789,0.04248 -0.75666,0.04779c-0.27877,0.00796 -0.55754,0.00531 -0.83631,-0.00796c-0.01328,-0.27877 -0.05974,-0.61064 -0.13939,-0.99561c-0.07965,-0.38497 -0.20576,-0.71684 -0.37833,-0.99561c0.25222,0.02655 0.48187,0.04248 0.68896,0.04779c0.20443,0.00796 0.39293,0.00531 0.56551,-0.00796c0.13275,0 0.26549,-0.01726 0.39824,-0.05177c0.13275,-0.03186 0.24558,-0.08098 0.33851,-0.14735c0.17257,-0.1062 0.29603,-0.28275 0.37037,-0.52966c0.07168,-0.24426 0.10753,-0.53896 0.10753,-0.8841c0,-0.57082 -0.13939,-1.21464 -0.41816,-1.93148c-0.27877,-0.71684 -0.8164,-1.48678 -1.61289,-2.30981c0.19912,-0.50444 0.40223,-1.04605 0.60931,-1.62483c0.20443,-0.57612 0.40355,-1.16022 0.59737,-1.75227c0.19116,-0.5894 0.36638,-1.14296 0.52568,-1.66068c0.1593,-0.51772 0.29205,-0.95578 0.39824,-1.3142v-0.69693M421.18312,173.06765h9.57775v1.91157h-9.57775v-1.91157M420.6654,178.42402h10.53354v1.93148h-10.53354v-1.93148M422.25837,175.41729l1.83192,-0.45798c0.27877,0.47789 0.52834,1.0049 0.7487,1.58103c0.21771,0.57878 0.37302,1.08057 0.46594,1.50536l-1.91157,0.53763c-0.07965,-0.43807 -0.22567,-0.95313 -0.43807,-1.54518c-0.2124,-0.5894 -0.4447,-1.12968 -0.69693,-1.62085M427.89352,174.89957l2.11069,0.45798c-0.18585,0.45134 -0.37833,0.90932 -0.57745,1.37394c-0.19912,0.46462 -0.39161,0.90932 -0.57745,1.33412c-0.18585,0.42479 -0.37169,0.80312 -0.55754,1.13499l-1.7921,-0.43807c0.17257,-0.35842 0.34913,-0.7633 0.52966,-1.21464c0.17788,-0.45134 0.34382,-0.90932 0.4978,-1.37394c0.15133,-0.46462 0.27346,-0.88941 0.36638,-1.27438M422.75618,186.5681h6.53119v1.87174h-6.53119v-1.87174M421.6411,181.90865h8.74144v7.32768h-2.11069v-5.41611h-4.61962v5.53558h-2.01113v-7.44715M424.36906,171.21582l1.93148,-0.53763c0.2124,0.42479 0.42214,0.88941 0.62922,1.39385c0.20443,0.50444 0.35311,0.93587 0.44603,1.29429l-2.05095,0.63719c-0.07965,-0.35842 -0.20841,-0.80047 -0.3863,-1.32615c-0.18054,-0.52303 -0.37037,-1.01021 -0.56949,-1.46155z" fill="#ffffff" stroke-width="1"/><path d="M240,196v-32h208v32z" fill="none" stroke-width="0"/></g></g></svg>