<svg version="1.1" xmlns="http://www.w3.org/2000/svg" xmlns:xlink="http://www.w3.org/1999/xlink" width="208" height="32" viewBox="0,0,208,32"><g transform="translate(-240,-164)"><g stroke="none" stroke-miterlimit="10"><path d="M240.85541,175.28512h5.92653v2.14236h-5.92653v-2.14236M250.70627,170.80018h2.24247v14.55604c0,0.54727 0.05339,0.89432 0.16018,1.04115c0.10678,0.14683 0.35372,0.22024 0.74082,0.22024c0.08009,0 0.22692,0 0.44049,0c0.21357,0 0.44716,0 0.70077,0c0.25361,0 0.4872,0 0.70077,0c0.21357,0 0.37375,0 0.48053,0c0.26696,0 0.47119,-0.11346 0.61267,-0.34037c0.13882,-0.22692 0.2416,-0.63804 0.30834,-1.23336c0.06674,-0.59265 0.12013,-1.42957 0.16018,-2.51077c0.18687,0.13348 0.40044,0.26696 0.64071,0.40044c0.24026,0.13348 0.4872,0.24961 0.74082,0.34838c0.25361,0.10145 0.48053,0.17886 0.68075,0.23226c-0.06674,1.25472 -0.19355,2.26516 -0.38042,3.03134c-0.18687,0.76885 -0.47786,1.3268 -0.87296,1.67384c-0.39243,0.34705 -0.95572,0.52057 -1.68986,0.52057c-0.10678,0 -0.29366,0 -0.56062,0c-0.26696,0 -0.55661,0 -0.86896,0c-0.31501,0 -0.59933,0 -0.85294,0c-0.25361,0 -0.44049,0 -0.56062,0c-0.72079,0 -1.28408,-0.10411 -1.68986,-0.31234c-0.40845,-0.20556 -0.69944,-0.55528 -0.87296,-1.04916c-0.17353,-0.49388 -0.26029,-1.1813 -0.26029,-2.06227v-14.51599M245.72077,170.78015h2.24247v18.16001h-2.24247v-18.16001M257.31354,173.80349l1.5417,1.92212c-0.6674,0.46718 -1.38152,0.93436 -2.14236,1.40154c-0.76084,0.46718 -1.53769,0.92101 -2.33057,1.3615c-0.79554,0.44049 -1.57373,0.85428 -2.33457,1.24137c-0.08009,-0.24026 -0.20689,-0.52458 -0.38042,-0.85294c-0.17353,-0.32569 -0.34037,-0.602 -0.50055,-0.82891c0.73414,-0.38709 1.47229,-0.82491 2.21444,-1.31345c0.73948,-0.48587 1.4496,-0.98242 2.13035,-1.48964c0.68075,-0.50722 1.28141,-0.98775 1.80199,-1.44159M240.17466,184.4352c0.54727,-0.17353 1.17863,-0.38442 1.89409,-0.6327c0.71279,-0.2456 1.46962,-0.51256 2.2705,-0.80088c0.80088,-0.28565 1.59509,-0.5753 2.38262,-0.86896l0.40044,1.94214c-1.01445,0.45383 -2.04492,0.90099 -3.09141,1.34148c-1.04916,0.44049 -2.01422,0.84093 -2.89519,1.20132zM261.59827,173.0026h16.25791v1.9021h-16.25791v-1.9021M262.5393,176.086h14.49597v1.82201h-14.49597v-1.82201M261.33798,182.21275h17.1589v1.92212h-17.1589v-1.92212M260.75734,179.14937h18.11996v1.88207h-18.11996v-1.88207M268.58596,174.16388h2.20243v6.46712h-2.20243v-6.46712M264.10102,171.08049l1.9021,-0.76084c0.3337,0.3604 0.64738,0.76351 0.94104,1.20933c0.29366,0.44849 0.50722,0.84627 0.64071,1.19331l-2.00221,0.88097c-0.12013,-0.3604 -0.32035,-0.77819 -0.60066,-1.25338c-0.28031,-0.47252 -0.57397,-0.89565 -0.88097,-1.2694M273.15099,170.31965l2.28251,0.60066c-0.3337,0.53392 -0.68075,1.05716 -1.04115,1.56973c-0.3604,0.51523 -0.68742,0.94638 -0.98108,1.29342l-1.92212,-0.58064c0.18687,-0.26696 0.38309,-0.56729 0.58865,-0.90099c0.20823,-0.3337 0.40578,-0.67408 0.59265,-1.02112c0.18687,-0.34705 0.34705,-0.6674 0.48053,-0.96106M268.3457,180.61099h2.26249c-0.09344,0.90767 -0.23359,1.74459 -0.42046,2.51077c-0.18687,0.76885 -0.46985,1.46695 -0.84894,2.09431c-0.38175,0.62736 -0.90366,1.18797 -1.56572,1.68185c-0.65939,0.49388 -1.50699,0.92101 -2.5428,1.28141c-1.03314,0.3604 -2.2972,0.6674 -3.79218,0.92101c-0.04004,-0.20022 -0.12013,-0.41779 -0.24026,-0.65272c-0.12013,-0.23226 -0.25361,-0.46585 -0.40044,-0.70077c-0.14683,-0.23226 -0.29366,-0.42847 -0.44049,-0.58865c1.3615,-0.18687 2.50276,-0.41779 3.42377,-0.69276c0.92101,-0.2723 1.66584,-0.59532 2.23446,-0.96907c0.56596,-0.37375 1.00644,-0.80088 1.32146,-1.28141c0.31234,-0.48053 0.53926,-1.02112 0.68075,-1.62179c0.13882,-0.60066 0.24827,-1.26139 0.32836,-1.98218M271.0687,182.87348c0.61401,1.28141 1.58842,2.26516 2.92322,2.95125c1.3348,0.68876 3.06337,1.12658 5.18571,1.31345c-0.14683,0.14683 -0.30434,0.34037 -0.47252,0.58064c-0.16552,0.24026 -0.32169,0.4832 -0.46852,0.7288c-0.14683,0.24827 -0.26696,0.47252 -0.3604,0.67274c-1.53503,-0.21357 -2.86315,-0.55795 -3.98439,-1.03314c-1.12124,-0.47252 -2.07162,-1.10922 -2.85114,-1.9101c-0.7822,-0.80088 -1.43358,-1.78196 -1.95415,-2.94324zM281.54024,173.94364h16.43811v9.87087h-2.24247v-7.74854h-12.03326v7.84865h-2.16238v-9.97099M282.66147,180.65103h14.33579v2.12234h-14.33579v-2.12234M288.56798,170.43978h2.26249v18.68058h-2.26249zM312.05385,171.42086h5.22576v1.94214h-3.32366v15.69729h-1.9021v-17.63943M316.83912,171.42086h0.40044l0.32035,-0.08009l1.48163,0.92101c-0.3337,0.96106 -0.70745,1.97818 -1.12124,3.05136c-0.41379,1.07585 -0.81423,2.05426 -1.20132,2.93523c0.82758,0.92101 1.3655,1.77796 1.61378,2.57083c0.2456,0.79554 0.36841,1.52702 0.36841,2.19442c0,0.68075 -0.07608,1.26139 -0.22825,1.74192c-0.15484,0.48053 -0.41245,0.8476 -0.77285,1.10121c-0.17353,0.12013 -0.37375,0.21624 -0.60066,0.28832c-0.22692,0.07475 -0.46718,0.13215 -0.72079,0.17219c-0.22692,0.0267 -0.48053,0.04271 -0.76084,0.04805c-0.28031,0.00801 -0.56062,0.00534 -0.84093,-0.00801c-0.01335,-0.28031 -0.06007,-0.61401 -0.14015,-1.0011c-0.08009,-0.38709 -0.20689,-0.72079 -0.38042,-1.0011c0.25361,0.0267 0.48453,0.04271 0.69276,0.04805c0.20556,0.00801 0.3951,0.00534 0.56863,-0.00801c0.13348,0 0.26696,-0.01735 0.40044,-0.05206c0.13348,-0.03204 0.24694,-0.08142 0.34037,-0.14816c0.17353,-0.10678 0.29766,-0.28431 0.37241,-0.53259c0.07208,-0.2456 0.10812,-0.54193 0.10812,-0.88898c0,-0.57397 -0.14015,-1.22135 -0.42046,-1.94214c-0.28031,-0.72079 -0.8209,-1.49498 -1.62179,-2.32256c0.20022,-0.50722 0.40445,-1.05182 0.61267,-1.6338c0.20556,-0.5793 0.40578,-1.16662 0.60066,-1.76194c0.19221,-0.59265 0.36841,-1.14927 0.52858,-1.66984c0.16018,-0.52057 0.29366,-0.96106 0.40044,-1.32146v-0.70077M301.18187,172.70227h9.63061v1.92212h-9.63061v-1.92212M300.6613,178.08821h10.59167v1.94214h-10.59167v-1.94214M302.26307,175.06487l1.84203,-0.46051c0.28031,0.48053 0.53125,1.01045 0.75283,1.58975c0.21891,0.58198 0.37508,1.08653 0.46852,1.51367l-1.92212,0.5406c-0.08009,-0.44049 -0.22692,-0.95839 -0.44049,-1.55371c-0.21357,-0.59265 -0.44716,-1.13592 -0.70077,-1.6298M307.92931,174.5443l2.12234,0.46051c-0.18687,0.45383 -0.38042,0.91434 -0.58064,1.38152c-0.20022,0.46718 -0.39377,0.91434 -0.58064,1.34148c-0.18687,0.42714 -0.37375,0.80756 -0.56062,1.14126l-1.80199,-0.44049c0.17353,-0.3604 0.35105,-0.76751 0.53259,-1.22135c0.17886,-0.45383 0.34571,-0.91434 0.50055,-1.38152c0.15217,-0.46718 0.27497,-0.89432 0.36841,-1.28141M302.76362,186.27723h6.56724v1.88207h-6.56724v-1.88207M301.64238,181.59207h8.78968v7.36812h-2.12234v-5.446h-4.64512v5.56613h-2.02223v-7.48825M304.3854,170.84022l1.94214,-0.5406c0.21357,0.42714 0.42447,0.89432 0.6327,1.40154c0.20556,0.50722 0.35506,0.94104 0.44849,1.30143l-2.06227,0.64071c-0.08009,-0.3604 -0.20956,-0.80489 -0.38843,-1.33347c-0.18153,-0.52591 -0.37241,-1.01579 -0.57263,-1.46962z" fill="#ffffff" stroke-width="1"/><path d="M240,196v-32h208v32z" fill="none" stroke-width="0"/></g></g></svg>