<svg version="1.1" xmlns="http://www.w3.org/2000/svg" xmlns:xlink="http://www.w3.org/1999/xlink" width="208.02074" height="32" viewBox="0,0,208.02074,32"><g transform="translate(-239.97926,-164)"><g stroke-miterlimit="10"><path d="M240,196v-32h208v32z" fill="none" fill-rule="nonzero" stroke="none" stroke-width="0" stroke-linecap="butt"/><path d="M299.10359,183.30148h-10.08216c-1.02783,1.13602 -2.28556,2.31261 -3.7732,3.52977l9.10843,-0.34486l-2.23146,-2.10975l0.99402,-0.99402c0.58153,0.52744 1.1394,1.04135 1.6736,1.54174c0.5342,0.50039 1.00416,0.93992 1.40988,1.31859c1.4606,1.37945 2.06241,1.9407 1.80546,1.68374l-1.05487,1.1563c-0.22991,-0.24343 -0.64915,-0.66944 -1.25773,-1.27802l-12.53678,0.54772l-0.38543,-1.44031c1.59584,-1.13602 2.99557,-2.33966 4.19921,-3.61092h-5.82209v-1.37945h2.67776v-10.54874h12.53678v10.54874h2.73862zM262.14241,188.85986v-17.22285h15.43768v14.20023c0,0.78439 -0.08791,1.37607 -0.26372,1.77503c-0.17581,0.39896 -0.46658,0.67282 -0.8723,0.82158c-0.40572,0.14876 -1.00078,0.22315 -1.78517,0.22315h-2.51547l-0.284,-1.54174h2.3329c0.54096,0 0.93654,-0.04057 1.18673,-0.12172c0.25019,-0.08114 0.41924,-0.24005 0.50715,-0.47672c0.08791,-0.23667 0.13186,-0.61196 0.13186,-1.12588v-12.25277h-12.31363v15.72168zM325.41459,173.66561v2.73862h13.97708v1.4606h-13.97708c-0.01352,1.71755 -0.08114,3.15786 -0.20286,4.32093c-0.12172,1.16307 -0.35163,2.27204 -0.68973,3.32691c-0.3381,1.05487 -0.83849,2.16384 -1.50117,3.32691l-1.37945,-0.99402c0.66268,-1.12249 1.1563,-2.16384 1.48088,-3.12405c0.32458,-0.96021 0.53758,-1.99479 0.63901,-3.10376c0.10143,-1.10897 0.15215,-2.58985 0.15215,-4.44264v-4.97008c2.23146,-0.0541 4.63198,-0.18257 7.20155,-0.38543c2.56957,-0.20286 4.8416,-0.45982 6.81611,-0.77087l0.38543,1.54174c-1.70403,0.24343 -3.7563,0.45982 -6.15681,0.64915c-2.40052,0.18934 -4.64888,0.33134 -6.74511,0.42601zM318.07104,183.38262l1.37945,0.38543c0,0.36515 -0.03381,1.35917 -0.10143,2.98205c-0.0541,0.64915 -0.22991,1.10221 -0.52744,1.35917c-0.29753,0.25696 -0.79116,0.38543 -1.48088,0.38543h-0.64915c-0.59506,0 -1.03797,-0.13186 -1.32874,-0.39558c-0.29077,-0.26372 -0.43615,-0.74044 -0.43615,-1.43017v-7.74927h-4.46293v2.39375c0,1.39297 -0.06086,2.49518 -0.18257,3.30663c-0.12172,0.81144 -0.41586,1.60598 -0.88244,2.38361c-0.46658,0.77763 -1.21378,1.57217 -2.24161,2.38361l-1.17659,-0.97373c0.94668,-0.78439 1.62626,-1.48764 2.03875,-2.10975c0.41248,-0.62211 0.6762,-1.30169 0.79116,-2.03875c0.11495,-0.73706 0.17243,-1.83589 0.17243,-3.29648v-3.55006h7.40441v8.80414c0,0.32458 0.04057,0.5342 0.12172,0.62887c0.08114,0.09467 0.25696,0.142 0.52744,0.142h0.32458c0.24343,0 0.40572,-0.04733 0.48687,-0.142c0.08114,-0.09467 0.12848,-0.30429 0.142,-0.62887c0.01352,-0.36515 0.03043,-0.83849 0.05072,-1.42002c0.02029,-0.58153 0.03043,-1.05487 0.03043,-1.42002zM274.8009,184.53893l-1.17659,1.09545c-1.0684,-1.27126 -2.30585,-2.71833 -3.71235,-4.34121c-1.52822,1.71755 -3.03614,3.21196 -4.52379,4.48322l-0.97373,-1.23745c1.56879,-1.32536 3.06319,-2.77919 4.48322,-4.3615c-1.7446,-1.96098 -3.11053,-3.46891 -4.09778,-4.52379l1.07516,-0.97373c1.31183,1.36593 2.65071,2.813 4.01664,4.34121c1.23069,-1.48764 2.3329,-3.01586 3.30663,-4.58465l1.27802,0.8723c-1.04135,1.60936 -2.23146,3.21872 -3.57034,4.82808c1.10897,1.21716 2.40728,2.68452 3.89492,4.40207zM246.11644,174.2539v1.54174c-0.48687,1.13602 -0.97373,2.1368 -1.4606,3.00233c1.32536,1.08192 2.15708,1.77165 2.49518,2.06918l-0.89259,1.1563c-0.27048,-0.27048 -0.85201,-0.78439 -1.7446,-1.54174v8.54042h-1.42002v-7.83041c-0.68973,0.89259 -1.42002,1.71079 -2.19089,2.45461l-0.62887,-1.52145c0.90611,-0.90611 1.73784,-1.92041 2.49518,-3.04291c0.75735,-1.12249 1.35917,-2.25175 1.80546,-3.38777h-3.81378v-1.44031zM328.41692,187.56155v1.39974h-1.52145v-8.23613h10.77189v8.23613h-1.52145v-1.39974zM305.79798,179.08198v5.55838l2.23146,-0.40572l0.02029,1.50117l-6.49153,1.25773l-0.20286,-1.52145l2.96176,-0.54772v-5.84238h-2.41404v-1.4606h6.28867v1.4606zM248.79419,188.08899v0.97373h-1.4606v-8.74329h10.38645v8.74329h-1.4606v-0.97373zM310.95064,176.78966l-1.25773,-0.68973c1.19011,-1.87984 2.12327,-3.80025 2.79947,-5.76124l1.48088,0.24343c-0.22991,0.66268 -0.47334,1.28478 -0.7303,1.86632h5.90324v1.42002h-3.59063l1.56203,2.15032l-1.17659,0.75058c-0.21638,-0.32458 -0.8182,-1.17659 -1.80546,-2.55604l-0.26372,-0.34486h-1.27802c-0.54096,1.10897 -1.08868,2.0827 -1.64317,2.92119zM305.41255,173.86847h-0.79116c-0.68973,1.20364 -1.41326,2.26527 -2.17061,3.18491l-1.11573,-0.89259c0.64915,-0.79792 1.29154,-1.7446 1.92717,-2.84005c0.63563,-1.09545 1.12926,-2.10299 1.48088,-3.02262l1.48088,0.30429c-0.284,0.71677 -0.56125,1.33212 -0.83173,1.84603h5.15266v1.42002h-3.59063l0.36515,0.5883l0.97373,1.64317l-1.19688,0.64915c-0.44629,-0.85201 -1.00754,-1.81222 -1.68374,-2.88062zM256.88833,178.77769h-8.723v-4.30064h8.723zM258.10549,173.01645h-11.1979v-1.39974h11.1979zM294.90437,181.92203v-2.23146h-9.5953v2.23146zM285.30908,176.22165v2.15032h9.5953v-2.15032zM328.41692,186.1821h7.72898v-4.01664h-7.72898zM285.30908,174.94363h9.5953v-2.13003h-9.5953zM249.58535,175.7145v1.82574h5.86267v-1.82574zM310.68692,181.61774l1.05487,-0.85201c0.44629,0.47334 0.93316,1.01092 1.4606,1.61274c0.52744,0.60182 0.98725,1.13264 1.37945,1.59245l-1.11573,0.97373c-0.96021,-1.17659 -1.8866,-2.28556 -2.77919,-3.32691zM256.25946,184.76207h-3.06319v2.06918h3.06319zM251.8371,184.76207h-3.04291v2.06918h3.04291zM253.19627,181.57716v1.92717h3.06319v-1.92717zM248.79419,183.50434h3.04291v-1.92717h-3.04291zM244.87899,173.36132l-1.35917,0.60858c-0.3922,-1.12249 -0.79792,-2.14356 -1.21716,-3.06319l1.33888,-0.5883l0.60858,1.52145z" fill="#ffffff" fill-rule="evenodd" stroke="#ffffff" stroke-width="0.5" stroke-linecap="round"/></g></g></svg>