<svg version="1.1" xmlns="http://www.w3.org/2000/svg" xmlns:xlink="http://www.w3.org/1999/xlink" width="208.45065" height="32" viewBox="0,0,208.45065,32"><g transform="translate(-239.54935,-164)"><g stroke-miterlimit="10"><path d="M240,196v-32h208v32z" fill="none" fill-rule="nonzero" stroke="none" stroke-width="0" stroke-linecap="butt"/><path d="M338.43796,175.51541h-6.53141c0.77319,1.85837 1.74646,3.53022 2.9198,5.01555c1.17335,1.48534 2.62138,2.94693 4.3441,4.38479l-1.09874,1.46499c-1.60064,-1.3836 -3.02832,-2.93337 -4.28306,-4.64931c-1.25474,-1.71594 -2.25513,-3.537 -3.00119,-5.46319v7.87432h4.08976v1.52603h-4.08976v3.58108h-1.58707v-3.58108h-4.04907v-1.52603h4.04907v-8.05744c-0.74606,1.92619 -1.69559,3.70656 -2.84859,5.34111c-1.153,1.63455 -2.64512,3.34031 -4.47636,5.11729l-1.05805,-1.40395c1.76341,-1.58707 3.21823,-3.13006 4.36445,-4.62896c1.14622,-1.4989 2.10592,-3.16397 2.87911,-4.99521h-6.49072v-1.56672h7.63015v-3.33692h1.58707v3.33692h7.6505zM277.39675,175.51541h-6.53141c0.77319,1.85837 1.74646,3.53022 2.9198,5.01555c1.17335,1.48534 2.62138,2.94693 4.3441,4.38479l-1.09874,1.46499c-1.60064,-1.3836 -3.02832,-2.93337 -4.28306,-4.64931c-1.25474,-1.71594 -2.25513,-3.537 -3.00119,-5.46319v7.87432h4.08976v1.52603h-4.08976v3.58108h-1.58707v-3.58108h-4.04907v-1.52603h4.04907v-8.05744c-0.74606,1.92619 -1.69559,3.70656 -2.84859,5.34111c-1.153,1.63455 -2.64512,3.34031 -4.47636,5.11729l-1.05805,-1.40395c1.76341,-1.58707 3.21823,-3.13006 4.36445,-4.62896c1.14622,-1.4989 2.10592,-3.16397 2.87911,-4.99521h-6.49072v-1.56672h7.63015v-3.33692h1.58707v3.33692h7.6505zM357.82872,183.43042l1.44464,0.32555c0,0.40694 -0.02713,1.05805 -0.08139,1.95332l-0.02035,0.67145c-0.04069,0.55615 -0.14921,0.98683 -0.32555,1.29204c-0.17634,0.30521 -0.4612,0.52224 -0.85458,0.65111c-0.39338,0.12887 -0.94953,0.1933 -1.66846,0.1933h-5.16816c-0.67824,0 -1.21065,-0.07121 -1.59724,-0.21364c-0.38659,-0.14243 -0.66806,-0.39338 -0.8444,-0.75284c-0.17634,-0.35946 -0.26451,-0.87831 -0.26451,-1.55655v-6.99939l-1.70915,0.59007l-0.38659,-1.44464l2.09575,-0.71215v-5.02573h1.44464v4.5374l2.52304,-0.87492v-5.45301h1.42429v4.98503l4.33393,-1.48534l-0.22382,7.2639c-0.04069,0.55615 -0.12208,0.97666 -0.24416,1.26152c-0.12208,0.28486 -0.33234,0.48833 -0.63076,0.61041c-0.29842,0.12208 -0.73249,0.18312 -1.30221,0.18312h-1.09874l-0.28486,-1.50568h0.73249c0.39338,0 0.68502,-0.03052 0.87492,-0.09156c0.18991,-0.06104 0.32216,-0.17295 0.39677,-0.33573c0.07461,-0.16278 0.11869,-0.42051 0.13226,-0.77319l0.18312,-4.55774l-2.86894,0.97666v8.05744h-1.42429v-7.56911l-2.52304,0.87492v6.87731c0,0.48833 0.03391,0.84779 0.10174,1.07839c0.06782,0.2306 0.20686,0.39338 0.41711,0.48833c0.21025,0.09495 0.5392,0.14243 0.98683,0.14243h4.35427c0.56972,0 0.98683,-0.03391 1.25134,-0.10174c0.26451,-0.06782 0.45103,-0.20347 0.55954,-0.40694c0.10852,-0.20347 0.17634,-0.52902 0.20347,-0.97666zM379.41696,174.96604h-10.86534l-0.14243,2.70616l-0.04069,0.63076h8.76959c-0.05426,0.88171 -0.12887,2.08218 -0.22382,3.60143c-0.09495,1.51925 -0.17634,2.71972 -0.24416,3.60143c-0.06782,0.81388 -0.22043,1.43447 -0.45781,1.86176c-0.23738,0.42729 -0.59685,0.7291 -1.07839,0.90544c-0.48155,0.17634 -1.15639,0.26451 -2.02453,0.26451h-3.21484l-0.32555,-1.52603h2.97067c0.67824,0 1.1903,-0.05765 1.5362,-0.17295c0.3459,-0.1153 0.59685,-0.31877 0.75284,-0.61041c0.15599,-0.29164 0.26112,-0.72232 0.31538,-1.29204l0.32555,-5.08677h-7.24356c-0.16278,1.35647 -0.43407,2.55356 -0.81388,3.59126c-0.37981,1.0377 -0.92579,2.02453 -1.63794,2.9605c-0.71215,0.93597 -1.6515,1.89906 -2.81807,2.88928l-1.20048,-1.30221c1.27508,-1.05805 2.25513,-2.06184 2.94015,-3.01137c0.68502,-0.94953 1.18691,-1.9974 1.50568,-3.14362c0.31877,-1.14622 0.53241,-2.60103 0.64093,-4.36445l0.14243,-2.50269h-4.98503v-1.54638h8.42369l-1.09874,-2.58408l1.66846,-0.42729c0.20347,0.42051 0.63754,1.42429 1.30221,3.01137h7.12147zM298.31354,183.41008h-10.11249c-1.03092,1.13944 -2.29244,2.31957 -3.78455,3.54039l9.13583,-0.3459l-2.23818,-2.1161l0.99701,-0.99701c0.58328,0.52902 1.14283,1.04448 1.67863,1.54638c0.53581,0.50189 1.00718,0.94275 1.41412,1.32256c1.46499,1.3836 2.06862,1.94654 1.81089,1.68881l-1.05805,1.15978c-0.2306,-0.24416 -0.65111,-0.67145 -1.26152,-1.28187l-12.57449,0.54937l-0.38659,-1.44464c1.60064,-1.13944 3.00458,-2.3467 4.21184,-3.62178h-5.83961v-1.3836h2.68581v-10.58048h12.57449v10.58048h2.74685zM345.17284,177.38734v7.04009l2.33991,-0.75284l0.12208,0.75284l0.08139,0.65111l-6.04308,1.97367l-0.38659,-1.36325l2.44165,-0.79354v-7.50807h-2.13644v-1.48534h2.13644v-4.8833h1.44464v4.8833h1.7295v1.48534zM254.8115,184.36639h-3.01137c-0.6918,0 -1.18352,-0.14582 -1.47516,-0.43746c-0.29164,-0.29164 -0.43746,-0.79693 -0.43746,-1.51586v-4.5374h1.40395v2.27887c0.88171,-0.31199 1.77359,-0.65789 2.67564,-1.0377c0.90205,-0.37981 1.63116,-0.72571 2.18731,-1.0377l0.59007,1.22082c-0.63754,0.31199 -1.47855,0.67484 -2.52304,1.08857c-1.04448,0.41372 -2.02114,0.77658 -2.92998,1.08857v0.44764c0,0.4612 0.09156,0.7698 0.27469,0.92579c0.18312,0.15599 0.51207,0.23399 0.98683,0.23399h1.7702c0.55615,0 0.93597,-0.07461 1.13944,-0.22382c0.20347,-0.14921 0.33234,-0.4612 0.38659,-0.93597c0.02713,-0.25773 0.04748,-0.5392 0.06104,-0.8444c0.01356,-0.30521 0.02035,-0.55954 0.02035,-0.76302l1.36325,0.36625l-0.16278,1.91262c-0.06782,0.66467 -0.27129,1.12587 -0.61041,1.3836c-0.33912,0.25773 -0.90884,0.38659 -1.70915,0.38659zM315.85271,184.36639h-3.01137c-0.6918,0 -1.18352,-0.14582 -1.47516,-0.43746c-0.29164,-0.29164 -0.43746,-0.79693 -0.43746,-1.51586v-4.5374h1.40395v2.27887c0.88171,-0.31199 1.77359,-0.65789 2.67564,-1.0377c0.90205,-0.37981 1.63116,-0.72571 2.18731,-1.0377l0.59007,1.22082c-0.63754,0.31199 -1.47855,0.67484 -2.52304,1.08857c-1.04448,0.41372 -2.02114,0.77658 -2.92998,1.08857v0.44764c0,0.4612 0.09156,0.7698 0.27469,0.92579c0.18312,0.15599 0.51207,0.23399 0.98683,0.23399h1.7702c0.55615,0 0.93597,-0.07461 1.13944,-0.22382c0.20347,-0.14921 0.33234,-0.4612 0.38659,-0.93597c0.02713,-0.25773 0.04748,-0.5392 0.06104,-0.8444c0.01356,-0.30521 0.02035,-0.55954 0.02035,-0.76302l1.36325,0.36625l-0.16278,1.91262c-0.06782,0.66467 -0.27129,1.12587 -0.61041,1.3836c-0.33912,0.25773 -0.90884,0.38659 -1.70915,0.38659zM315.77132,177.30596h-3.03171c-0.63754,0 -1.09874,-0.14582 -1.3836,-0.43746c-0.28486,-0.29164 -0.42729,-0.75623 -0.42729,-1.39377v-4.82226h1.40395v2.48234c0.88171,-0.29842 1.77698,-0.62398 2.68581,-0.97666c0.90884,-0.35268 1.59385,-0.63754 2.05505,-0.85458l0.63076,1.18013c-0.62398,0.27129 -1.48195,0.61041 -2.5739,1.01735c-1.09196,0.40694 -2.02453,0.73249 -2.79772,0.97666v0.50868c0,0.40694 0.08478,0.68502 0.25434,0.83423c0.16956,0.14921 0.47137,0.22382 0.90544,0.22382h1.81089c0.54259,0 0.91901,-0.07121 1.12926,-0.21364c0.21025,-0.14243 0.33573,-0.43068 0.37642,-0.86475c0.05426,-0.86814 0.08139,-1.3836 0.08139,-1.54638l1.32256,0.38659l-0.14243,1.81089c-0.06782,0.62398 -0.27469,1.06144 -0.62059,1.31239c-0.3459,0.25095 -0.90544,0.37642 -1.67863,0.37642zM254.73011,177.30596h-3.03171c-0.63754,0 -1.09874,-0.14582 -1.3836,-0.43746c-0.28486,-0.29164 -0.42729,-0.75623 -0.42729,-1.39377v-4.82226h1.40395v2.48234c0.88171,-0.29842 1.77698,-0.62398 2.68581,-0.97666c0.90884,-0.35268 1.59385,-0.63754 2.05505,-0.85458l0.63076,1.18013c-0.62398,0.27129 -1.48195,0.61041 -2.5739,1.01735c-1.09196,0.40694 -2.02453,0.73249 -2.79772,0.97666v0.50868c0,0.40694 0.08478,0.68502 0.25434,0.83423c0.16956,0.14921 0.47137,0.22382 0.90544,0.22382h1.81089c0.54259,0 0.91901,-0.07121 1.12926,-0.21364c0.21025,-0.14243 0.33573,-0.43068 0.37642,-0.86475c0.05426,-0.86814 0.08139,-1.3836 0.08139,-1.54638l1.32256,0.38659l-0.14243,1.81089c-0.06782,0.62398 -0.27469,1.06144 -0.62059,1.31239c-0.3459,0.25095 -0.90544,0.37642 -1.67863,0.37642zM242.29805,184.59021h-1.36325v-8.40334h7.20286v6.59245c0,0.65111 -0.13904,1.09874 -0.41711,1.34291c-0.27808,0.24416 -0.77658,0.36625 -1.49551,0.36625h-1.56672l-0.24416,-1.15978h1.54638c0.27129,0 0.4612,-0.02374 0.56972,-0.07121c0.10852,-0.04748 0.17973,-0.12547 0.21364,-0.23399c0.03391,-0.10852 0.05087,-0.28486 0.05087,-0.52902v-0.59007h-4.4967zM303.33926,184.59021h-1.36325v-8.40334h7.20286v6.59245c0,0.65111 -0.13904,1.09874 -0.41711,1.34291c-0.27808,0.24416 -0.77658,0.36625 -1.49551,0.36625h-1.56672l-0.24416,-1.15978h1.54638c0.27129,0 0.4612,-0.02374 0.56972,-0.07121c0.10852,-0.04748 0.17973,-0.12547 0.21364,-0.23399c0.03391,-0.10852 0.05087,-0.28486 0.05087,-0.52902v-0.59007h-4.4967zM306.41167,172.44301l0.85458,-0.81388c0.52902,0.52902 1.29543,1.33612 2.29922,2.4213c0.25773,0.25773 0.53581,0.54937 0.83423,0.87492l-0.97666,0.91562l-0.83423,-0.95631l-7.04009,0.38659l-0.30521,-1.22082c0.74606,-0.51546 1.48534,-1.12587 2.21783,-1.83124c0.73249,-0.70536 1.28187,-1.34291 1.64811,-1.91262l1.24117,0.6918c-0.4612,0.55615 -0.98344,1.12248 -1.56672,1.69898c-0.58328,0.5765 -1.09196,1.02753 -1.52603,1.35308l4.37462,-0.24416zM245.37046,172.44301l0.85458,-0.81388c0.52902,0.52902 1.29543,1.33612 2.29922,2.4213c0.25773,0.25773 0.53581,0.54937 0.83423,0.87492l-0.97666,0.91562l-0.83423,-0.95631l-7.04009,0.38659l-0.30521,-1.22082c0.74606,-0.51546 1.48534,-1.12587 2.21783,-1.83124c0.73249,-0.70536 1.28187,-1.34291 1.64811,-1.91262l1.24117,0.6918c-0.4612,0.55615 -0.98344,1.12248 -1.56672,1.69898c-0.58328,0.5765 -1.09196,1.02753 -1.52603,1.35308l4.37462,-0.24416zM294.10169,182.02648v-2.23818h-9.62416v2.23818zM284.47753,176.30895v2.15679h9.62416v-2.15679zM284.47753,175.02708h9.62416v-2.13644h-9.62416zM241.36209,189.41246l-1.44464,-0.73249c0.84101,-1.22082 1.47855,-2.45521 1.91262,-3.70317l1.34291,0.56972c-0.37981,1.23439 -0.98344,2.52304 -1.81089,3.86594zM302.4033,189.41246l-1.44464,-0.73249c0.84101,-1.22082 1.47855,-2.45521 1.91262,-3.70317l1.34291,0.56972c-0.37981,1.23439 -0.98344,2.52304 -1.81089,3.86594zM303.33926,178.54713h4.4967v-1.24117h-4.4967zM242.29805,178.54713h4.4967v-1.24117h-4.4967zM307.83597,179.62552h-4.4967v1.22082h4.4967zM246.79476,179.62552h-4.4967v1.22082h4.4967zM253.91623,185.58721l1.28187,-0.6918c0.93597,1.39717 1.64133,2.55695 2.1161,3.47935l-1.44464,0.75284c-0.67824,-1.43786 -1.32934,-2.61799 -1.95332,-3.54039zM314.95744,185.58721l1.28187,-0.6918c0.93597,1.39717 1.64133,2.55695 2.1161,3.47935l-1.44464,0.75284c-0.67824,-1.43786 -1.32934,-2.61799 -1.95332,-3.54039zM245.06525,185.60756l1.42429,-0.30521l0.26451,0.87492c0.37981,1.31578 0.61041,2.17035 0.6918,2.56373l-1.52603,0.32555c-0.08139,-0.52902 -0.29842,-1.43108 -0.65111,-2.70616zM306.10646,185.60756l1.42429,-0.30521l0.26451,0.87492c0.37981,1.31578 0.61041,2.17035 0.6918,2.56373l-1.52603,0.32555c-0.08139,-0.52902 -0.29842,-1.43108 -0.65111,-2.70616zM310.64386,185.62791l1.34291,-0.44764c0.24416,0.54259 0.50189,1.12926 0.77319,1.76002c0.27129,0.63076 0.47477,1.15639 0.61041,1.5769l-1.48534,0.44764c-0.12208,-0.4612 -0.28147,-0.94953 -0.47816,-1.46499c-0.19669,-0.51546 -0.45103,-1.13944 -0.76302,-1.87193zM249.60265,185.62791l1.34291,-0.44764c0.24416,0.54259 0.50189,1.12926 0.77319,1.76002c0.27129,0.63076 0.47477,1.15639 0.61041,1.5769l-1.48534,0.44764c-0.12208,-0.4612 -0.28147,-0.94953 -0.47816,-1.46499c-0.19669,-0.51546 -0.45103,-1.13944 -0.76302,-1.87193z" fill="#ffffff" fill-rule="evenodd" stroke="#ffffff" stroke-width="0.5" stroke-linecap="round"/></g></g></svg>