<svg version="1.1" xmlns="http://www.w3.org/2000/svg" xmlns:xlink="http://www.w3.org/1999/xlink" width="180" height="40" viewBox="0,0,180,40"><g transform="translate(-150,-160)"><g stroke-linecap="round" stroke-miterlimit="10"><path d="M150,160h180v40h-180z" fill-opacity="0" fill="#000000" fill-rule="nonzero" stroke="none" stroke-width="0.2" stroke-linejoin="round"/><path d="M171.80376,174.22191l0.47201,0.20574v-0.52227h-1.73071v-0.75967h1.73071v-0.8388h0.81291v0.8388h1.50782v-0.8388h0.83913v0.8388h1.63893v0.75967h-1.63893v0.61723h-0.83913v-0.61723h-1.50782v0.63306h-0.65557c-0.01748,0.03165 -0.07867,0.15299 -0.18356,0.36401h4.19566c-0.00874,0.36928 -0.01967,0.83616 -0.03278,1.40064c-0.01311,0.56447 -0.02841,1.00498 -0.04589,1.3215c-0.03496,0.47479 -0.15515,0.80715 -0.36056,0.99706c-0.20541,0.18992 -0.55287,0.28488 -1.04236,0.28488h-0.28845l-0.13111,-0.74384h0.26223c0.29719,0 0.49605,-0.04748 0.59657,-0.14244c0.10052,-0.09496 0.15952,-0.29015 0.177,-0.58558c0.00874,-0.20047 0.02185,-0.48271 0.03933,-0.84671c0.01748,-0.36401 0.03059,-0.6779 0.03933,-0.94167h-3.84165c-0.08741,0.13716 -0.22727,0.33235 -0.41957,0.58558h2.98941v2.05743h-3.06808v-1.96247c-0.20104,0.24267 -0.4152,0.46952 -0.64246,0.68054l-0.3409,-0.77549c0.60313,-0.59085 1.09262,-1.26084 1.46848,-2.00995zM177.009,176.15273l-0.44579,-0.75967c0.37586,-0.49589 0.69272,-0.99706 0.95058,-1.50351c0.25786,-0.50644 0.50042,-1.05509 0.72768,-1.64595l0.78669,0.2374c-0.12237,0.34818 -0.26223,0.70164 -0.41957,1.06037h3.31719v0.85463h-0.78669c-0.28845,1.05509 -0.69054,1.89389 -1.20625,2.5164c0.50698,0.33763 1.20625,0.65943 2.09783,0.96541l-0.38023,0.96541c-0.97025,-0.36928 -1.76567,-0.79132 -2.38628,-1.26611c-0.55942,0.44314 -1.27181,0.84408 -2.13716,1.20281l-0.40645,-0.93376c0.78669,-0.27432 1.41166,-0.56975 1.87494,-0.88628c-0.41083,-0.45369 -0.74735,-0.98651 -1.00958,-1.59847c-0.24475,0.35873 -0.43705,0.62251 -0.5769,0.79132zM175.65852,178.90653l0.89158,-0.33235l0.17045,0.36401c0.04371,0.09496 0.09397,0.20311 0.15078,0.32444c0.05682,0.12134 0.11145,0.25058 0.16389,0.38775h4.96924v0.80715h-11.68229v-0.80715h5.67725zM172.64289,186.15502v0.64888h-0.87847v-3.02284h8.81089v3.00702h-0.86535v-0.63306zM171.89554,181.78693v-0.71219h8.53555v0.71219zM180.43108,182.41999v0.71219h-8.53555v-0.71219zM172.64289,185.427h7.06707v-0.91793h-7.06707zM180.29997,174.396h-2.12405l-0.09178,0.17409c0.27971,0.73857 0.66868,1.34524 1.16692,1.82004c0.24475,-0.25322 0.44797,-0.54074 0.60968,-0.86254c0.16171,-0.3218 0.30812,-0.699 0.43923,-1.13159zM173.6918,177.70372v-0.87045h-1.67826v0.87045z" fill="#ffffff" fill-rule="evenodd" stroke="#ffffff" stroke-width="0.4" stroke-linejoin="miter"/><path d="M195.06345,185.60109l-0.51135,1.04454c-1.04892,-0.72801 -1.90116,-1.49823 -2.55673,-2.31065c-0.66431,0.78077 -1.45537,1.51933 -2.37317,2.2157l-0.55068,-0.94958v1.21863h-0.94402v-13.68984h6.12304c0,0.30598 -0.00874,0.72274 -0.02622,1.25029c-0.01748,0.52755 -0.03059,0.96013 -0.03933,1.29777c-0.02622,0.42204 -0.0896,0.7412 -0.19012,0.9575c-0.10052,0.21629 -0.26223,0.36664 -0.48512,0.45105c-0.22289,0.08441 -0.5485,0.12661 -0.9768,0.12661h-2.04538l-0.15734,-1.0762h1.82249c0.41083,0 0.68835,-0.05012 0.83258,-0.15035c0.14423,-0.10023 0.22945,-0.30334 0.25567,-0.60932c0.03496,-0.54865 0.05245,-0.92321 0.05245,-1.12367h-4.22188v4.06739h5.33636v1.10785c-0.32342,1.47713 -0.91343,2.83293 -1.77004,4.06739c0.32342,0.37983 0.67742,0.73329 1.06203,1.06037c0.3846,0.32708 0.83913,0.67526 1.36359,1.04454zM185.25609,172.38605h0.9178v2.92788h1.44226v1.12367h-1.44226v2.8171l1.33737,-0.55392l0.03933,0.6014l0.03933,0.5381l-1.41604,0.56975v4.38391c0,0.46424 -0.04371,0.8177 -0.13111,1.06037c-0.08741,0.24267 -0.23819,0.41412 -0.45234,0.51436c-0.21415,0.10023 -0.52664,0.15035 -0.93747,0.15035h-0.82602l-0.18356,-1.1395h0.72113c0.35838,0 0.59657,-0.06067 0.71457,-0.182c0.118,-0.12134 0.177,-0.36664 0.177,-0.73593v-3.68755l-1.15381,0.44314c-0.20104,0.08441 -0.36275,0.14771 -0.48512,0.18992l-0.18356,-1.10785c0.43705,-0.14771 1.04454,-0.37456 1.82249,-0.68054v-3.18111h-1.52093v-1.12367h1.52093zM189.07152,179.44462v6.06151c0.90906,-0.64361 1.67826,-1.31887 2.30761,-2.02578c-0.68179,-1.0762 -1.22373,-2.42144 -1.62582,-4.03573zM193.43763,179.44462h-2.7534c0.3409,1.25556 0.78669,2.32648 1.33737,3.21276c0.65557,-0.91793 1.12758,-1.98885 1.41604,-3.21276z" fill="#ffffff" fill-rule="evenodd" stroke="#ffffff" stroke-width="0.4" stroke-linejoin="miter"/><path d="M208.08311,185.49031l-0.41957,1.26611c-1.76567,-0.64361 -3.20356,-1.4402 -4.31366,-2.38979c-0.55068,0.44314 -1.1844,0.85463 -1.90116,1.23446c-0.71676,0.37983 -1.57337,0.78077 -2.56984,1.20281l-0.44579,-1.15533c1.71323,-0.67526 3.07245,-1.37162 4.07766,-2.08909c-0.79543,-0.84408 -1.46848,-1.92027 -2.01916,-3.22859c-0.37586,1.03399 -0.83476,2.02314 -1.3767,2.96745c-0.54194,0.94431 -1.20625,1.92291 -1.99294,2.9358l-0.56379,-1.21863c0.97025,-1.1817 1.76786,-2.44782 2.39284,-3.79834c0.62498,-1.35052 1.11666,-2.89096 1.47504,-4.62131h-3.10741v-1.02872l0.61624,-3.00702l1.02269,0.28488l-0.52446,2.62718h2.20272c0.15734,-0.97069 0.28845,-2.02578 0.39334,-3.16528l1.02269,0.11078c-0.09615,1.02344 -0.22289,2.04161 -0.38023,3.0545h6.35905v1.12367h-6.55572c-0.13111,0.71746 -0.27971,1.3769 -0.44579,1.9783h5.65103v1.1395c-0.34964,0.83352 -0.72113,1.56154 -1.11447,2.18404c-0.39334,0.62251 -0.83476,1.1817 -1.32426,1.6776c0.97899,0.75967 2.25954,1.398 3.84165,1.91499zM205.5526,179.71367h-4.22188c0.52446,1.25556 1.21062,2.3001 2.0585,3.13363c0.93528,-0.85463 1.65641,-1.89917 2.16339,-3.13363zM206.66707,173.87373l-0.48512,1.02872c-0.74298,-0.5592 -1.50782,-1.11312 -2.2945,-1.66177l0.49823,-0.99706c0.69054,0.47479 1.451,1.01817 2.28139,1.63012z" fill="#ffffff" fill-rule="evenodd" stroke="#ffffff" stroke-width="0.4" stroke-linejoin="miter"/><path d="M221.22077,175.50385h-6.88351c-0.39334,1.02344 -0.84787,1.9994 -1.36359,2.92788h2.56984v-2.00995h0.97025v2.00995h3.77609v5.14358c0,0.47479 -0.04808,0.8388 -0.14423,1.09202c-0.09615,0.25322 -0.2513,0.42995 -0.46546,0.53018c-0.21415,0.10023 -0.5179,0.15035 -0.91124,0.15035h-1.29803l-0.19667,-1.1395h1.19314c0.34964,0 0.58127,-0.07122 0.69491,-0.21366c0.11363,-0.14244 0.17045,-0.3983 0.17045,-0.76758v-3.62425h-2.81896v7.15353h-0.97025v-7.15353h-2.85829v5.90325h-0.94402v-5.15941c-0.40208,0.56975 -0.93091,1.23974 -1.58648,2.00995l-0.43268,-1.25029c0.77795,-0.85463 1.451,-1.73035 2.01916,-2.62718c0.56816,-0.89683 1.07514,-1.88862 1.52093,-2.97536h-3.17297v-1.18698h3.61876c0.25349,-0.69636 0.48949,-1.4402 0.70802,-2.23152l0.93091,0.26905c-0.18356,0.65416 -0.38023,1.30832 -0.59001,1.96247h6.46394z" fill="#ffffff" fill-rule="evenodd" stroke="#ffffff" stroke-width="0.4" stroke-linejoin="miter"/><path d="M233.46685,182.3092l0.93091,0.25322c0,0.31653 -0.01748,0.82297 -0.05245,1.51933l-0.01311,0.52227c-0.02622,0.43259 -0.09615,0.76758 -0.20978,1.00498c-0.11363,0.2374 -0.29719,0.40621 -0.55068,0.50644c-0.25349,0.10023 -0.61187,0.15035 -1.07514,0.15035h-3.33031c-0.43705,0 -0.78013,-0.05539 -1.02925,-0.16618c-0.24912,-0.11078 -0.43049,-0.30598 -0.54412,-0.58558c-0.11363,-0.2796 -0.17045,-0.68317 -0.17045,-1.21072v-5.44428l-1.10136,0.45897l-0.24912,-1.12367l1.35048,-0.55392v-3.90912h0.93091v3.52929l1.62582,-0.68054v-4.24148h0.9178v3.87747l2.79274,-1.15533l-0.14423,5.65003c-0.02622,0.43259 -0.07867,0.75967 -0.15734,0.98124c-0.07867,0.22157 -0.21415,0.37983 -0.40645,0.47479c-0.1923,0.09496 -0.47201,0.14244 -0.83913,0.14244h-0.70802l-0.18356,-1.17115h0.47201c0.25349,0 0.44142,-0.02374 0.56379,-0.07122c0.12237,-0.04748 0.2076,-0.13452 0.25567,-0.26114c0.04808,-0.12661 0.07648,-0.32708 0.08522,-0.6014l0.118,-3.54511l-1.84871,0.75967v6.26726h-0.9178v-5.88742l-1.62582,0.68054v5.34932c0,0.37983 0.02185,0.65943 0.06556,0.8388c0.04371,0.17937 0.1333,0.30598 0.26878,0.37983c0.13549,0.07386 0.34745,0.11078 0.6359,0.11078h2.80585c0.36712,0 0.6359,-0.02638 0.80635,-0.07913c0.17045,-0.05275 0.29064,-0.15826 0.36056,-0.31653c0.06993,-0.15826 0.11363,-0.41149 0.13111,-0.75967zM225.31154,177.60876v5.47594l1.50782,-0.58558l0.07867,0.58558l0.05245,0.50644l-3.8941,1.53516l-0.24912,-1.06037l1.57337,-0.61723v-5.83994h-1.3767v-1.15533h1.3767v-3.79834h0.93091v3.79834h1.11447v1.15533z" fill="#ffffff" fill-rule="evenodd" stroke="#ffffff" stroke-width="0.4" stroke-linejoin="miter"/><path d="M247.12897,174.41183h-9.11245v10.4296h9.36157v1.18698h-10.39737v-12.81939h10.14825zM239.26211,184.12924l-0.65557,-1.06037c1.04017,-0.94958 2.14154,-2.13656 3.30408,-3.56094c-1.34611,-1.6354 -2.32072,-2.80127 -2.92385,-3.49764l0.68179,-0.91793c0.97899,1.1184 1.96672,2.279 2.96319,3.48181c0.9178,-1.1817 1.74819,-2.39506 2.49117,-3.64007l0.82602,0.75967c-0.78669,1.29777 -1.6433,2.55333 -2.56984,3.76668c1.52093,1.85696 2.55236,3.12835 3.0943,3.81416l-0.77357,0.94958c-1.10136,-1.41383 -2.11968,-2.68521 -3.05497,-3.81416c-1.18877,1.46658 -2.31635,2.70631 -3.38275,3.7192z" fill="#ffffff" fill-rule="evenodd" stroke="#ffffff" stroke-width="0.4" stroke-linejoin="miter"/><path d="M252.87178,176.26352v2.94371h2.4125v1.21863h-2.4125v2.97536h-1.08825v-2.97536h-2.42562v-1.21863h2.42562v-2.94371z" fill="#ffffff" fill-rule="evenodd" stroke="#ffffff" stroke-width="0.4" stroke-linejoin="miter"/><path d="M261.85311,179.04896l-0.4589,2.80127l-0.77357,-0.31653l0.43268,-2.45309h-1.23248v5.82412c0,0.6014 -0.10271,1.01817 -0.30812,1.25029c-0.20541,0.23212 -0.56161,0.34818 -1.06858,0.34818h-0.99647l-0.18356,-1.20281h0.94402c0.29719,0 0.48731,-0.05539 0.57035,-0.16618c0.08304,-0.11078 0.12456,-0.33499 0.12456,-0.67262v-5.38098h-1.80938v-1.10785h2.20272c-0.61187,-1.00234 -1.13195,-1.80949 -1.56026,-2.42144l0.59001,-0.6014l1.0358,1.53516c0.70802,-1.19226 1.1407,-1.95192 1.29803,-2.279h-3.40897v-1.0762h4.44478v1.18698c-0.21852,0.39038 -0.49386,0.87309 -0.82602,1.44812c-0.33216,0.57503 -0.64683,1.10521 -0.94402,1.59055l0.39334,0.61723h1.53404zM262.54802,176.13691h1.87494l0.32779,-1.89917h-2.56984v-1.09202h6.45083v1.09202h-2.89763l-0.35401,1.89917h2.60918v7.12188h-0.89158v-6.06151h-3.6712v6.06151h-0.87847zM268.7104,185.79101l-0.56379,1.02872c-0.28845,-0.34818 -0.72768,-0.83352 -1.3177,-1.45603c-0.59001,-0.62251 -1.12977,-1.1817 -1.61926,-1.6776c-0.27971,0.62251 -0.68835,1.18434 -1.22592,1.68551c-0.53757,0.50117 -1.2434,0.98387 -2.1175,1.44812l-0.59001,-1.04454c0.96151,-0.46424 1.69575,-0.93112 2.20272,-1.40064c0.50698,-0.46952 0.85443,-0.98387 1.04236,-1.54307c0.18793,-0.5592 0.2819,-1.25556 0.2819,-2.08909v-2.75379h0.93091v2.86458c0,0.66471 -0.05682,1.25556 -0.17045,1.77256c0.44579,0.43259 0.99647,0.9786 1.65204,1.63803c0.65557,0.65943 1.15381,1.16852 1.4947,1.52725z" fill="#ffffff" fill-rule="evenodd" stroke="#ffffff" stroke-width="0.4" stroke-linejoin="miter"/><path d="M278.12441,175.26645h3.57942v1.18698h-3.57942v3.1178h2.71407v7.23267h-1.00958v-1.02872h-4.36611v1.02872h-1.00958v-7.23267h2.70096v-3.1178h-3.42209v-1.18698h3.42209v-2.94371h0.97025zM272.74872,172.3544l0.98336,0.36401c-0.3409,1.27666 -0.68179,2.37396 -1.02269,3.29189v10.7303h-0.98336v-8.37217c-0.41957,0.87573 -0.84787,1.65122 -1.28492,2.32648l-0.41957,-1.40855c0.51572,-0.85463 1.01614,-1.88862 1.50126,-3.10197c0.48512,-1.21336 0.89376,-2.49002 1.22592,-3.82999zM275.46279,180.74239v3.87747h4.36611v-3.87747z" fill="#ffffff" fill-rule="evenodd" stroke="#ffffff" stroke-width="0.4" stroke-linejoin="miter"/><path d="M288.52178,183.0847h-1.07514v2.43727l2.00605,-0.6014l0.02622,0.9021l-3.0943,1.01289l-0.28845,-0.8388c0.1923,-0.09496 0.31467,-0.17409 0.36712,-0.2374c0.05245,-0.06331 0.07867,-0.14771 0.07867,-0.25322v-2.42144h-1.21936c-0.06993,0.71746 -0.20541,1.36898 -0.40645,1.95456c-0.20104,0.58558 -0.48512,1.17379 -0.85224,1.76464l-0.82602,-0.69636c0.48075,-0.74912 0.80854,-1.46658 0.98336,-2.15239c0.17482,-0.68581 0.26223,-1.59847 0.26223,-2.73797v-2.279h9.89914v0.79132h-8.98134v1.7409c0,0.35873 -0.00437,0.62251 -0.01311,0.79132h9.25668v0.82297h-5.11346c0.48949,0.62251 1.04454,1.11312 1.66515,1.47186c1.11884,-0.61195 1.90116,-1.06564 2.34695,-1.36107l0.39334,0.82297c-0.32342,0.18992 -0.91343,0.517 -1.77004,0.98124c0.77795,0.26377 1.72197,0.45897 2.83207,0.58558l-0.38023,0.98124c-1.04017,-0.15826 -1.92738,-0.37983 -2.66162,-0.66471c-0.73424,-0.28488 -1.37452,-0.65152 -1.92083,-1.09993c-0.54631,-0.44842 -1.0511,-1.0208 -1.51437,-1.71716zM288.70534,178.44756v-2.95954h-3.88099v2.04161h-0.93091v-2.83293h4.8119v-0.85463h-4.353v-0.88628h9.68935v0.88628h-4.41855v0.85463h4.86434v2.83293h-0.9178v-2.04161h-3.94654v2.95954zM285.95194,180.61578h7.82753v0.77549h-7.82753zM285.5586,176.92823v-0.71219h2.46495v0.71219zM290.35738,176.92823v-0.71219h2.45184v0.71219zM288.02355,177.52963v0.69636h-2.46495v-0.69636zM290.37049,178.22599v-0.69636h2.45184v0.69636z" fill="#ffffff" fill-rule="evenodd" stroke="#ffffff" stroke-width="0.4" stroke-linejoin="miter"/><path d="M300.55808,177.65624h-2.07161v1.34524c0,1.30832 -0.04152,2.3977 -0.12456,3.26815c-0.08304,0.87045 -0.21197,1.63803 -0.38679,2.30274c-0.17482,0.66471 -0.41957,1.398 -0.73424,2.19987l-0.86535,-0.61723c0.31467,-0.81242 0.55068,-1.52989 0.70802,-2.15239c0.15734,-0.62251 0.27097,-1.33997 0.3409,-2.15239c0.06993,-0.81242 0.10489,-1.87807 0.10489,-3.19693v-4.77957h4.87746c-0.07867,-0.40094 -0.16608,-0.77549 -0.26223,-1.12367c-0.01748,-0.07386 -0.03496,-0.14508 -0.05245,-0.21366c-0.01748,-0.06858 -0.03059,-0.12925 -0.03933,-0.182l1.10136,-0.15826c0.15734,0.63306 0.29282,1.19226 0.40645,1.6776h4.31366v1.06037h-2.16339v1.72508h2.12405v0.99706h-2.12405v2.35813h-5.1528zM307.99227,185.49031l-0.31467,1.18698c-1.03143,-0.20047 -1.92301,-0.4194 -2.67473,-0.6568c-0.75172,-0.2374 -1.43352,-0.52491 -2.04538,-0.86254c-1.15381,0.61195 -2.61792,1.15005 -4.39233,1.61429l-0.39334,-1.10785c1.51219,-0.31653 2.77088,-0.69636 3.77609,-1.1395c-0.82165,-0.61195 -1.65641,-1.44548 -2.50428,-2.50057v-0.98124h7.1064v0.99706c-0.67305,0.99179 -1.50344,1.81476 -2.49117,2.46892c0.96151,0.40094 2.27265,0.72801 3.93343,0.98124zM305.29131,182.02433h-4.49722c0.68179,0.84408 1.41604,1.49823 2.20272,1.96247c0.9178,-0.52755 1.68263,-1.1817 2.2945,-1.96247zM301.48899,174.9341v1.72508h3.26475v-1.72508zM301.48899,177.65624v1.36107h3.26475v-1.36107zM298.48647,176.65918h2.07161v-1.72508h-2.07161z" fill="#ffffff" fill-rule="evenodd" stroke="#ffffff" stroke-width="0.4" stroke-linejoin="miter"/></g></g></svg>