<svg version="1.1" xmlns="http://www.w3.org/2000/svg" xmlns:xlink="http://www.w3.org/1999/xlink" width="87.86773" height="18.93427" viewBox="0,0,87.86773,18.93427"><g transform="translate(-239.79738,-170.83643)"><g fill="#ffffff" stroke="#ffffff" stroke-width="0.5" stroke-linecap="round" stroke-miterlimit="10"><path d="M246.78223,182.62224l-0.71325,1.15624c-0.74891,-0.78389 -1.39083,-1.4502 -1.92577,-1.99892v7.60373h-1.24819v-8.07406c-0.65381,1.6723 -1.41461,3.11596 -2.2824,4.33099l-0.53494,-1.54818c0.52305,-0.67937 1.01638,-1.49919 1.47999,-2.45946c0.46361,-0.96026 0.86779,-1.98258 1.21252,-3.06697h-2.31806v-1.3718h2.44288v-2.74362c-1.03421,0.19598 -1.86633,0.33969 -2.49637,0.43114l-0.16048,-1.33261c0.83213,-0.13064 1.82175,-0.32335 2.9689,-0.57812c1.14715,-0.25477 2.1546,-0.50626 3.02239,-0.75449l0.26746,1.35221c-0.70136,0.23517 -1.48593,0.43767 -2.35372,0.60751v3.01797h2.33589v1.3718h-2.33589v1.50899c0.98666,0.90147 1.86633,1.75068 2.63902,2.54764zM255.98314,187.95268l-0.89156,1.33261c-1.0461,-1.04519 -1.90497,-2.10997 -2.57661,-3.19435c-0.67164,-1.08438 -1.18578,-2.25369 -1.54241,-3.50791c-0.35663,1.1889 -0.91237,2.33533 -1.66722,3.43931c-0.75486,1.10398 -1.75043,2.21775 -2.98673,3.34133l-0.8024,-1.29342c1.28385,-1.09745 2.25862,-2.1361 2.92432,-3.11596c0.6657,-0.97986 1.12337,-2.02178 1.373,-3.12576c0.24963,-1.10398 0.37446,-2.46599 0.37446,-4.08603v-6.25151h1.35517v6.70225c0,0.41807 -0.00595,0.7251 -0.01783,0.92107c0.20209,1.8944 0.65084,3.52751 1.34626,4.89931c0.69542,1.3718 1.7326,2.68482 3.11155,3.93905zM254.37833,174.45019l1.10554,0.50953c-0.73703,2.14263 -1.47999,4.03703 -2.22891,5.6832l-1.08771,-0.56832c0.3804,-0.83615 0.77863,-1.77681 1.19469,-2.822c0.41606,-1.04519 0.75486,-1.97932 1.01638,-2.80241zM249.45691,180.15299l-1.12337,0.50953c-0.4755,-1.47633 -1.12337,-3.29233 -1.9436,-5.44803l1.05205,-0.52912c0.89156,2.26022 1.56321,4.08276 2.01492,5.46762z"/><path d="M260.74408,189.16771h-1.39083v-16.40288h13.26643v16.40288h-1.39083v-1.43059h-10.48476zM266.64621,174.29341v5.23246h4.58263v-5.23246zM260.74408,179.52587h4.5648v-5.23246h-4.5648zM271.22883,181.01526h-4.58263v5.19327h4.58263zM265.30887,186.20852v-5.19327h-4.5648v5.19327z"/><path d="M291.69908,183.79806h-8.86212c-0.90345,1.09745 -2.00899,2.23408 -3.3166,3.40991l8.00622,-0.33315l-1.96143,-2.03811l0.87373,-0.96026c0.51116,0.50953 1.00152,1.00599 1.47107,1.48939c0.46955,0.4834 0.88264,0.908 1.23927,1.27382c1.28385,1.33261 1.81284,1.87481 1.58698,1.62657l-0.92723,1.11704c-0.20209,-0.23517 -0.5706,-0.64671 -1.10554,-1.23463l-11.0197,0.52912l-0.3388,-1.3914c1.40273,-1.09745 2.63308,-2.26022 3.69106,-3.48831h-5.11756v-1.33261h2.35372v-10.19056h11.0197v10.19056h2.40722zM288.00802,182.46545v-2.15569h-8.43417v2.15569zM279.57385,176.95864v2.07731h8.43417v-2.07731zM279.57385,175.72401h8.43417v-2.05771h-8.43417z"/><path d="M309.54815,180.70171v1.33261h-1.83662l-0.10699,3.03757h1.60481v1.35221h-1.64048l-0.01783,0.35275c-0.03566,0.60098 -0.13373,1.06479 -0.29421,1.3914c-0.16048,0.32662 -0.41012,0.55852 -0.74891,0.6957c-0.3388,0.13718 -0.81132,0.20577 -1.41758,0.20577h-2.65685l-0.26746,-1.3718h2.49637c0.59438,0 1.00747,-0.08819 1.23927,-0.26456c0.2318,-0.17637 0.3596,-0.49973 0.38338,-0.97006v-0.03919h-8.00622l0.44578,-4.38978h-1.39083v-1.33261h1.51566l0.39229,-3.89984c-0.35663,0.49646 -0.63004,0.86228 -0.82023,1.09745l-0.9094,-1.05825c0.65381,-0.79695 1.27493,-1.70496 1.86336,-2.72402c0.58843,-1.01905 1.0669,-2.00545 1.43541,-2.95918l1.19469,0.45074c-0.20209,0.50953 -0.43389,1.03866 -0.69542,1.58738h7.81008v1.33261h-8.48766c-0.3804,0.69244 -0.72514,1.26729 -1.03421,1.72455h8.29152l-0.14265,4.44857zM299.65181,185.07189h6.68671l0.03566,-0.7251c0.04755,-0.88841 0.07727,-1.65923 0.08915,-2.31248h-6.49057zM304.66239,184.01364l-0.74891,1.01905c-0.26153,-0.2613 -0.62112,-0.58791 -1.07879,-0.97986c-0.45767,-0.39195 -0.86481,-0.73163 -1.22144,-1.01905l0.67759,-0.97986c0.82023,0.65325 1.61075,1.30648 2.37155,1.95973zM306.64165,177.58574h-6.20526l-0.32097,3.11596h6.40142c0.08321,-1.78988 0.12482,-2.82853 0.12482,-3.11596zM301.93421,178.6244l0.67759,-0.99945c1.0461,0.83615 1.8069,1.47633 2.2824,1.92053l-0.71325,1.05825c-0.64192,-0.60098 -1.39083,-1.26075 -2.24674,-1.97932zM295.30099,189.2461l-1.28385,-0.43114l1.72963,-6.74144l1.21252,0.41154c-0.0951,0.36582 -0.60626,2.43659 -1.53349,6.21232zM297.42291,178.97715l-0.76674,1.23463c-1.45027,-1.38487 -2.41316,-2.27328 -2.88866,-2.66523l0.76674,-1.13664zM297.92219,174.29341l-0.73108,1.15624c-0.86779,-0.78389 -1.82473,-1.61351 -2.87083,-2.48885l0.76674,-1.11704c0.6657,0.54872 1.61075,1.36527 2.83517,2.44965z"/><path d="M326.32733,184.05283l1.06988,0.37235c-0.07132,0.73163 -0.17237,1.52859 -0.30314,2.39086c-0.13076,0.91453 -0.32394,1.53838 -0.57952,1.87153c-0.25558,0.33315 -0.5914,0.49973 -1.00747,0.49973c-0.7608,0 -1.373,-0.64671 -1.83662,-1.94013c-0.14265,-0.40501 -0.26153,-0.79695 -0.35663,-1.17584c-0.78457,1.13664 -1.70585,2.20142 -2.76384,3.19435l-0.89156,-1.15624c1.39083,-1.30648 2.47854,-2.5607 3.26311,-3.76267c-0.41606,-2.33861 -0.67759,-5.16714 -0.78457,-8.4856h-5.50985v-1.35221h5.47419c-0.03566,-1.17584 -0.05349,-2.18835 -0.05349,-3.03757l1.23035,-0.0196c0.01188,0.28743 0.02971,1.30648 0.05349,3.05716h1.62265c-0.21397,-0.81002 -0.45172,-1.57431 -0.71325,-2.29288l1.03421,-0.39195c0.33285,1.00599 0.61815,1.90093 0.85589,2.68482h1.17686v1.35221h-3.95854c0.04755,2.61296 0.21397,4.91237 0.49928,6.89823c0.6657,-1.31954 1.30763,-3.08983 1.92577,-5.31085l1.10554,0.41154c-0.67759,2.61296 -1.57509,4.88624 -2.69251,6.81984c0.11888,0.58791 0.28529,1.18237 0.49928,1.78334c0.15454,0.40501 0.29421,0.67937 0.41904,0.82308c0.12482,0.14371 0.25855,0.21556 0.40121,0.21556c0.15454,0 0.27341,-0.10779 0.35663,-0.32335c0.08321,-0.21556 0.16643,-0.61731 0.24963,-1.20523zM316.48449,183.77847l0.19614,1.4698c-0.65381,0.19598 -1.56321,0.48014 -2.72818,0.85248c-1.16498,0.37235 -1.91389,0.63038 -2.24674,0.77409l-0.28529,-1.48939l2.12192,-0.64671v-6.91782h-1.80095v-1.411h1.80095v-4.76213h1.24819v4.76213h1.60481v1.411h-1.60481v6.52588zM321.08495,183.42573h-4.06552v-5.52641h4.06552zM318.0893,179.17312v2.97878h1.90794v-2.97878zM321.2276,184.69954l0.19614,1.411c-0.6657,0.16984 -1.64939,0.42788 -2.95107,0.77409c-1.30168,0.34622 -2.09516,0.56505 -2.38047,0.65651l-0.28529,-1.43059c0.70136,-0.16984 1.70585,-0.42135 3.01348,-0.75449c1.30763,-0.33315 2.11003,-0.55199 2.40722,-0.65651z"/></g></g></svg>