<svg version="1.1" xmlns="http://www.w3.org/2000/svg" xmlns:xlink="http://www.w3.org/1999/xlink" width="88.35109" height="18.17648" viewBox="0,0,88.35109,18.17648"><g transform="translate(-150.62575,-173.38883)"><g fill="#ffffff" fill-rule="evenodd" stroke="#ffffff" stroke-width="0.45" stroke-linecap="round" stroke-miterlimit="10"><path d="M162.17321,189.54118l-0.6135,1.4108c-2.5392,-2.18203 -4.20502,-4.85941 -4.99745,-8.03213c-0.39196,1.60517 -1.02037,3.0724 -1.88523,4.40168c-0.86486,1.32928 -1.91505,2.55824 -3.15057,3.68688l-0.62628,-1.42961c1.46558,-1.20388 2.64784,-2.61154 3.54678,-4.22298c0.89894,-1.61144 1.4038,-3.4204 1.51457,-5.42686h-4.85686v-1.44842h4.86964v-4.62741h1.0225v4.62741h4.90798v1.44842h-4.92076c-0.00852,0.0627 -0.01278,0.15676 -0.01278,0.28216c0.28119,2.01901 0.83717,3.77466 1.66795,5.26697c0.83078,1.49231 2.00878,2.84667 3.534,4.06309z"/><path d="M168.1676,187.73537l-0.74131,0.90291l-1.40593,-2.82159c-0.14485,0.96561 -0.35574,1.84344 -0.63267,2.63349c-0.27693,0.79005 -0.66675,1.64906 -1.16948,2.57705l-0.74131,-1.03458c0.43456,-0.80259 0.77752,-1.53934 1.02889,-2.21025c0.25136,-0.67091 0.44521,-1.39199 0.58154,-2.16322c0.13633,-0.77124 0.23006,-1.68982 0.28119,-2.75576h-1.73824v-1.44842h1.77659c0.00852,-0.30097 0.01278,-0.77751 0.01278,-1.42961v-1.56128h-1.54653v-1.42961h1.54653v-3.06613h0.90747v3.06613h1.52096v1.42961h-1.52096v1.56128c0,0.6521 -0.00426,1.12864 -0.01278,1.42961h1.72546v1.44842h-1.76381c-0.00852,0.26335 -0.02982,0.63329 -0.06391,1.10983c0.44308,0.82767 1.09492,2.08171 1.95552,3.76212zM173.9447,185.87311l0.85634,0.30097c0,0.28843 -0.00426,0.65837 -0.01278,1.10983c-0.00852,0.45145 -0.0213,0.87156 -0.03834,1.26031c-0.01704,0.5267 -0.0703,0.92799 -0.15977,1.20388c-0.08947,0.27589 -0.23006,0.47027 -0.42178,0.58313c-0.19172,0.11286 -0.47077,0.1693 -0.83717,0.1693h-0.94581c-0.42604,0 -0.73705,-0.14421 -0.93303,-0.43264c-0.19598,-0.28843 -0.29397,-0.79632 -0.29397,-1.52366v-3.16018c-0.27267,1.15372 -0.68379,2.19457 -1.23339,3.12256c-0.54959,0.92799 -1.26747,1.82463 -2.15363,2.68992l-0.6135,-1.12864c0.93729,-0.89037 1.65304,-1.73998 2.14724,-2.54884c0.49421,-0.80886 0.84356,-1.7055 1.04806,-2.68992c0.2045,-0.98442 0.32805,-2.2416 0.37065,-3.77153l0.01278,-3.76212h0.92025l-0.03834,3.95023c-0.00852,0.92799 -0.07669,1.86225 -0.2045,2.80278h0.65184v4.00666c0,0.43891 0.05112,0.73048 0.15337,0.87469c0.10225,0.14421 0.28971,0.21632 0.56237,0.21632h0.37065c0.30675,0 0.50912,-0.06897 0.60711,-0.20692c0.09799,-0.13794 0.15124,-0.43264 0.15977,-0.8841l0.01278,-1.44842c0.00852,-0.22573 0.01278,-0.47027 0.01278,-0.73361zM173.15227,185.42166v-9.25482h-3.73211v9.25482h-0.89468v-10.64681h5.5087v10.64681z"/><path d="M187.60781,186.87008h-3.27199c0.28119,0.7148 0.69658,1.31047 1.24617,1.78701c0.54959,0.47654 1.28877,0.85275 2.21754,1.12864l-0.28119,1.29793c-1.80641,-0.61448 -3.05897,-1.7055 -3.75767,-3.27305c-0.29823,0.7148 -0.76474,1.34496 -1.39954,1.89047c-0.6348,0.54551 -1.47197,1.01891 -2.51151,1.4202l-0.33231,-1.2415c1.0225,-0.35113 1.81493,-0.77124 2.3773,-1.26031c0.56237,-0.48908 0.94581,-1.07221 1.15031,-1.74939h-3.02915v-1.2415h3.23364c0.00852,-0.05016 0.01278,-0.1254 0.01278,-0.22573c0.00852,-0.18811 0.01278,-0.54551 0.01278,-1.07221h-2.60737v-5.81248h6.1222v5.81248h-2.60737v1.07221v0.22573h3.42536zM180.36087,182.44958l-0.46012,1.12864c-0.19598,-0.28843 -0.52403,-0.74615 -0.98415,-1.37317v8.80337h-0.8819v-8.87861c-0.46864,1.74312 -0.94155,3.17899 -1.41871,4.30763l-0.39622,-1.67414c0.32379,-0.73988 0.64758,-1.6616 0.97137,-2.76516c0.32379,-1.10356 0.58794,-2.19457 0.79243,-3.27305h-1.44428v-1.27912h1.4954v-3.57402h0.8819v3.57402h1.36759v1.27912h-1.36759v1.82463c0.51125,0.62702 0.99267,1.26031 1.44428,1.89987zM182.81486,176.8064v1.16626h-0.85634v-1.16626h-1.84049v-1.2415h1.84049v-1.74939h0.85634v1.74939h1.96831v-1.74939h0.85634v1.74939h1.82771v1.2415h-1.82771v1.16626h-0.85634v-1.16626zM185.9846,183.23963v-1.35436h-4.47342v1.35436zM181.51118,180.90711h4.47342v-1.29793h-4.47342z"/><path d="M200.45292,189.50356l-0.56237,1.42961c-1.32925,-1.07848 -2.40074,-2.24787 -3.21447,-3.50818c-0.81374,-1.26031 -1.40806,-2.68678 -1.78298,-4.27941c-0.35787,1.49231 -0.94368,2.87802 -1.75742,4.15715c-0.81374,1.27912 -1.91079,2.50808 -3.29116,3.68688l-0.60072,-1.39199c1.28664,-1.02831 2.29849,-2.06917 3.03554,-3.12256c0.73705,-1.05339 1.26534,-2.21025 1.58487,-3.47056c0.31953,-1.26031 0.4793,-2.74321 0.4793,-4.44871v-4.58979h1.00972v4.85314c0,0.23827 -0.00852,0.59567 -0.02556,1.07221c0.13633,2.09425 0.61563,3.90947 1.43789,5.44567c0.82226,1.5362 2.05138,2.92505 3.68738,4.16655zM199.02143,176.449l0.8819,0.84648c-0.85208,1.99393 -1.68286,3.82483 -2.49233,5.4927l-0.84356,-0.95934c0.38344,-0.76496 0.80735,-1.65847 1.27173,-2.68051c0.46438,-1.02204 0.85847,-1.92182 1.18226,-2.69932zM193.11651,181.82883l-0.86912,0.92172c-0.88616,-2.06917 -1.6999,-3.87499 -2.44121,-5.41746l0.84356,-0.8841c0.71575,1.50485 1.53801,3.29813 2.46677,5.37984z"/><path d="M208.14721,188.20563h3.29755v-11.17351h0.95859v13.8258h-0.95859v-1.18507h-8.57619v-12.64073h0.98415v11.17351h3.29755v-14.1832h0.99693z"/><path d="M223.67637,177.8786h0.84356v1.50485h1.54653v1.18507h-1.54653v1.37317h-0.84356v-1.37317h-3.06749v1.4108h-0.83078v-1.4108h-1.21421v-1.18507h1.21421v-1.50485h0.83078v1.50485h3.06749zM215.27912,175.88468h2.90133v11.92593h-2.08334v1.50485h-0.818zM219.26685,182.61888h5.7771v4.98481h-0.85634v-3.81855h-4.0772v3.81855h-0.84356zM225.97699,189.76691l-0.42178,1.22269c-0.78391,-0.73988 -1.94274,-1.76193 -3.47649,-3.06613c-0.27267,0.66464 -0.69445,1.22896 -1.26534,1.69296c-0.57089,0.46399 -1.38463,0.92172 -2.44121,1.37317l-0.34509,-1.31674c0.98841,-0.35113 1.73398,-0.72421 2.23671,-1.11923c0.50273,-0.39502 0.84782,-0.81826 1.03528,-1.26972c0.18746,-0.45145 0.32379,-1.04085 0.409,-1.7682c0.01704,-0.18811 0.02556,-0.54551 0.02556,-1.07221h0.86912c0,0.37621 -0.01704,0.77751 -0.05112,1.20388c-0.03408,0.41383 -0.08521,0.81513 -0.15337,1.20388c1.29516,1.04085 2.48807,2.01274 3.57874,2.91565zM222.58997,176.8064v1.9563h-0.85634v-1.9563h-2.64571v-1.16626h2.64571v-1.82463h0.85634v1.82463h2.91411v1.16626zM216.09712,186.49387h1.27812v-9.29244h-1.27812z"/><path d="M238.70707,189.50356l-0.409,1.50485c-1.7212,-0.76496 -3.12287,-1.71177 -4.20502,-2.8404c-0.53681,0.5267 -1.15457,1.01577 -1.85327,1.46723c-0.69871,0.45145 -1.53374,0.92799 -2.50512,1.42961l-0.43456,-1.37317c1.67008,-0.80259 2.99506,-1.63025 3.97495,-2.483c-0.77539,-1.00323 -1.43149,-2.28235 -1.96831,-3.83737c-0.36639,1.22896 -0.81374,2.40462 -1.34203,3.52699c-0.52829,1.12237 -1.17587,2.28549 -1.94274,3.48937l-0.54959,-1.44842c0.94581,-1.40453 1.72333,-2.90937 2.33257,-4.51455c0.60924,-1.60517 1.08853,-3.43607 1.43789,-5.4927h-3.02915v-1.22269l0.60072,-3.57402l0.99693,0.33859l-0.51125,3.12256h2.14724c0.15337,-1.15372 0.28119,-2.40776 0.38344,-3.76212l0.99693,0.13167c-0.09373,1.21642 -0.21728,2.42657 -0.37065,3.63045h6.19888v1.33555h-6.3906c-0.12781,0.85275 -0.27267,1.63652 -0.43456,2.35133h5.5087v1.35436c-0.34083,0.99069 -0.70297,1.85598 -1.0864,2.59586c-0.38344,0.73988 -0.81374,1.40453 -1.2909,1.99393c0.95433,0.90291 2.20263,1.6616 3.74489,2.27608zM236.24029,182.63769h-4.11555c0.51125,1.49231 1.18013,2.73381 2.00665,3.7245c0.91173,-1.01577 1.61469,-2.25727 2.1089,-3.7245zM237.3267,175.69657l-0.4729,1.22269c-0.72427,-0.66464 -1.46984,-1.32301 -2.23671,-1.97511l0.48569,-1.18507c0.67314,0.56432 1.41445,1.21015 2.22393,1.93749z"/></g></g></svg>