<svg version="1.1" xmlns="http://www.w3.org/2000/svg" xmlns:xlink="http://www.w3.org/1999/xlink" width="182.12479" height="32.765" viewBox="0,0,182.12479,32.765"><g transform="translate(-240,-180)"><g stroke="none" stroke-miterlimit="10"><path d="M248.66745,180h164.78989c4.80177,0 8.66745,3.568 8.66745,8v16.765c0,4.432 -3.86568,8 -8.66745,8h-164.78989c-4.80177,0 -8.66745,-3.568 -8.66745,-8v-16.765c0,-4.432 3.86568,-8 8.66745,-8z" fill-opacity="0.7" fill="#000000" fill-rule="evenodd" stroke-width="0"/><path d="M250.74652,188.96963v0.72019h4.31176v-0.72019h-4.31176M250.74652,187.51055v0.72019h4.31176v-0.72019h-4.31176M249.76445,186.73425h6.32266v3.74122h-6.32266v-3.74122M248.54855,193.64616h8.73575v0.95401h-8.73575v-0.95401M251.35447,190.79348h0.95401v3.37645h-0.95401v-3.37645M253.47761,190.79348h0.95401v3.37645h-0.95401v-3.37645M255.79717,190.99924l0.85113,0.38348c-0.18083,0.32424 -0.3816,0.6516 -0.60234,0.98207c-0.22198,0.33047 -0.42962,0.61418 -0.62291,0.85113l-0.76695,-0.35542c0.13094,-0.16835 0.26687,-0.35853 0.40779,-0.57054c0.13967,-0.212 0.27685,-0.43024 0.41153,-0.65471c0.13344,-0.22447 0.24068,-0.43648 0.32175,-0.63601M249.25939,191.40142l0.7763,-0.33671c0.11224,0.1933 0.23071,0.40031 0.35542,0.62104c0.12471,0.22198 0.24131,0.43585 0.3498,0.64162c0.10974,0.20577 0.19579,0.38659 0.25814,0.54248l-0.81372,0.39283c-0.06235,-0.16212 -0.14466,-0.35105 -0.24692,-0.5668c-0.10351,-0.2145 -0.21325,-0.43585 -0.32923,-0.66407c-0.11473,-0.22697 -0.23133,-0.4371 -0.3498,-0.6304zM261.74571,189.73658h1.10366v4.08728c0,0.28683 -0.03866,0.50943 -0.11598,0.66781c-0.07857,0.15963 -0.22073,0.27997 -0.4265,0.36103c-0.20577,0.07482 -0.4583,0.12284 -0.7576,0.14404c-0.2993,0.02245 -0.65471,0.03367 -1.06625,0.03367c-0.02494,-0.15588 -0.07171,-0.33546 -0.1403,-0.53874c-0.06859,-0.20203 -0.1403,-0.37786 -0.21512,-0.52751c0.18706,0.00624 0.37537,0.01247 0.56492,0.01871c0.1908,0.00624 0.36103,0.00748 0.51068,0.00374c0.14965,-0.00249 0.25253,-0.00374 0.30865,-0.00374c0.08729,0 0.1484,-0.01247 0.18332,-0.03741c0.03367,-0.02494 0.05051,-0.07171 0.05051,-0.1403v-4.06858M259.53839,190.93377l1.04754,0.27124c-0.13718,0.37412 -0.30553,0.74326 -0.50506,1.1074c-0.19953,0.36539 -0.41153,0.70709 -0.63601,1.02509c-0.22447,0.318 -0.45206,0.59548 -0.68277,0.83242c-0.06859,-0.06235 -0.16025,-0.13094 -0.27498,-0.20577c-0.11598,-0.07482 -0.23196,-0.14965 -0.34793,-0.22447c-0.11473,-0.07482 -0.21574,-0.13094 -0.30304,-0.16835c0.34918,-0.318 0.67529,-0.71395 0.97833,-1.18784c0.30179,-0.47389 0.5431,-0.95713 0.72393,-1.44972M263.90627,191.29854l0.93531,-0.39283c0.21824,0.29306 0.43211,0.60795 0.64162,0.94466c0.20826,0.33671 0.39844,0.66843 0.57054,0.99516c0.17085,0.32798 0.29992,0.62603 0.38722,0.89415l-1.03819,0.44895c-0.06859,-0.25565 -0.18207,-0.55058 -0.34045,-0.8848c-0.15963,-0.33297 -0.34045,-0.67591 -0.54248,-1.02884c-0.20327,-0.35167 -0.40779,-0.67716 -0.61356,-0.97646M258.9585,186.92131h6.62196v1.00078h-6.62196v-1.00078M258.11673,189.18475h8.32422v1.00078h-8.32422zM270.90235,190.45677c0.4053,0.97272 1.03819,1.77209 1.89867,2.39812c0.86048,0.62728 1.94855,1.05627 3.26422,1.28698c-0.06859,0.06859 -0.14341,0.15713 -0.22447,0.26563c-0.08106,0.10974 -0.15713,0.22073 -0.22821,0.33297c-0.07233,0.11224 -0.13032,0.21512 -0.17397,0.30865c-0.91036,-0.1933 -1.70974,-0.48199 -2.39812,-0.86609c-0.68963,-0.38285 -1.28074,-0.86422 -1.77334,-1.44411c-0.49259,-0.57989 -0.90101,-1.25643 -1.22525,-2.02961l0.86048,-0.25253M274.02627,190.1107h0.19641l0.18706,-0.03741l0.70148,0.318c-0.21824,0.66095 -0.50506,1.2452 -0.86048,1.75276c-0.35542,0.50881 -0.76695,0.95027 -1.2346,1.32439c-0.46765,0.37412 -0.98082,0.68901 -1.53951,0.94466c-0.55744,0.25565 -1.14793,0.46454 -1.77147,0.62665c-0.05612,-0.13094 -0.13593,-0.28246 -0.23944,-0.45456c-0.10226,-0.17085 -0.20016,-0.31239 -0.29369,-0.42463c0.56118,-0.11847 1.0993,-0.28994 1.61434,-0.51442c0.51379,-0.22447 0.98394,-0.49571 1.41044,-0.81372c0.42775,-0.318 0.7975,-0.69088 1.10927,-1.11863c0.31177,-0.4265 0.55183,-0.90475 0.72019,-1.43476v-0.16835M270.58435,190.1107h3.59157v0.97272h-3.87216l0.28059,-0.97272M271.09877,186.23854l1.12237,0.18706c-0.12471,0.9166 -0.29119,1.76773 -0.49945,2.55338c-0.20951,0.78566 -0.48137,1.50709 -0.81559,2.1643c-0.33297,0.65845 -0.74575,1.25081 -1.23834,1.77708c-0.49259,0.52751 -1.08495,0.98768 -1.77708,1.38051c-0.04365,-0.07482 -0.10725,-0.16399 -0.1908,-0.2675c-0.0848,-0.10226 -0.17584,-0.20327 -0.27311,-0.30304c-0.09602,-0.09977 -0.18768,-0.17771 -0.27498,-0.23383c0.84177,-0.46765 1.52767,-1.05378 2.05767,-1.75837c0.53001,-0.7046 0.94466,-1.52018 1.24396,-2.44676c0.2993,-0.92533 0.51442,-1.94294 0.64536,-3.05284M273.20321,186.81843l0.78566,-0.46765c0.12471,0.13094 0.26064,0.27747 0.40779,0.43959c0.14591,0.16212 0.28433,0.318 0.41528,0.46765c0.13094,0.14965 0.24006,0.28059 0.32736,0.39283l-0.81372,0.53312c-0.07482,-0.11847 -0.17771,-0.25752 -0.30865,-0.41715c-0.13094,-0.15838 -0.26812,-0.3205 -0.41153,-0.48636c-0.14341,-0.16461 -0.27747,-0.31863 -0.40218,-0.46204M268.22738,189.4747c-0.01871,-0.07482 -0.04864,-0.16711 -0.08979,-0.27685c-0.03991,-0.1085 -0.08044,-0.22198 -0.12159,-0.34045c-0.03991,-0.11847 -0.07857,-0.21512 -0.11598,-0.28994c0.06859,-0.02494 0.13406,-0.07046 0.19641,-0.13655c0.06235,-0.06485 0.12471,-0.15027 0.18706,-0.25627c0.03741,-0.06235 0.09665,-0.17771 0.17771,-0.34606c0.08106,-0.16835 0.16524,-0.36976 0.25253,-0.60421c0.08729,-0.2332 0.159,-0.47139 0.21512,-0.71457l1.0569,0.17771c-0.07482,0.26812 -0.17023,0.53936 -0.2862,0.81372c-0.11473,0.27436 -0.2332,0.53312 -0.35542,0.7763c-0.12097,0.24318 -0.23757,0.45518 -0.3498,0.63601v0.01871c0,0 -0.03928,0.01684 -0.11785,0.05051c-0.07732,0.03492 -0.16773,0.08044 -0.27124,0.13655c-0.10226,0.05612 -0.1908,0.11535 -0.26563,0.17771c-0.07482,0.06235 -0.11224,0.12159 -0.11224,0.17771M268.22738,189.4747v-0.74824l0.60795,-0.41153h6.91191v0.96336h-6.53778c-0.26189,0 -0.48012,0.01684 -0.65471,0.05051c-0.17459,0.03492 -0.28371,0.08355 -0.32736,0.14591zM276.81348,187.65085h8.34292v0.97272h-8.34292v-0.97272M280.94753,188.98834h1.01013v6.04207h-1.01013v-6.04207M278.31933,190.12006h5.78954v0.95401h-4.78876v3.10521h-1.00078v-4.05923M283.66927,190.12006h1.01948v2.94621c0,0.24318 -0.03118,0.43336 -0.09353,0.57054c-0.06235,0.13718 -0.18083,0.24318 -0.35542,0.318c-0.16835,0.07482 -0.3816,0.11972 -0.63975,0.13468c-0.25939,0.01621 -0.56991,0.02432 -0.93156,0.02432c-0.01871,-0.13718 -0.06111,-0.29182 -0.1272,-0.46391c-0.06485,-0.17085 -0.13157,-0.32175 -0.20016,-0.45269c0.16212,0.00624 0.32112,0.0106 0.47701,0.01309c0.15588,0.00374 0.29306,0.00561 0.41153,0.00561c0.11847,0 0.19953,0 0.24318,0c0.07482,-0.00624 0.12658,-0.02058 0.15526,-0.04302c0.02744,-0.0212 0.04115,-0.06298 0.04115,-0.12533v-2.92751M279.86258,186.27595l1.03819,0.24318c-0.22447,0.74824 -0.50943,1.49025 -0.85487,2.22603c-0.34669,0.73577 -0.76321,1.42291 -1.24957,2.06141c-0.48636,0.63975 -1.06001,1.18721 -1.72096,1.6424c-0.04365,-0.08106 -0.09977,-0.17646 -0.16835,-0.2862c-0.06859,-0.1085 -0.13905,-0.21574 -0.21138,-0.32175c-0.07108,-0.106 -0.1378,-0.1933 -0.20016,-0.26189c0.44271,-0.29306 0.84302,-0.641 1.20093,-1.0438c0.35916,-0.40156 0.67716,-0.83803 0.95401,-1.30943c0.2781,-0.47015 0.51878,-0.95651 0.72206,-1.45908c0.20203,-0.50132 0.36539,-0.99828 0.4901,-1.49088zM289.84229,189.58693h1.0569v4.26499c0,0.29306 -0.0424,0.51754 -0.1272,0.67342c-0.08355,0.15588 -0.23445,0.27124 -0.45269,0.34606c-0.21824,0.07482 -0.49384,0.12159 -0.82681,0.1403c-0.33422,0.01871 -0.72891,0.02806 -1.1841,0.02806c-0.03118,-0.14965 -0.08605,-0.32299 -0.16461,-0.52003c-0.07732,-0.19579 -0.15651,-0.36227 -0.23757,-0.49945c0.23071,0.00624 0.45955,0.01247 0.68651,0.01871c0.22821,0.00624 0.43086,0.00935 0.60795,0.00935c0.17833,0 0.30179,-0.00312 0.37038,-0.00935c0.106,0 0.17771,-0.01559 0.21512,-0.04677c0.03741,-0.03118 0.05612,-0.08729 0.05612,-0.16835v-4.23693M286.54066,186.96808h6.5939v0.99142h-6.5939v-0.99142M292.83527,186.96808h0.28059l0.22447,-0.05612l0.79501,0.58924c-0.31177,0.33671 -0.66905,0.67778 -1.07186,1.02322c-0.40156,0.34669 -0.8187,0.67404 -1.25144,0.98207c-0.43398,0.30927 -0.86609,0.57615 -1.29633,0.80062c-0.04988,-0.07482 -0.11535,-0.15776 -0.19641,-0.24879c-0.08106,-0.08979 -0.16399,-0.17708 -0.24879,-0.26189c-0.08355,-0.08355 -0.15963,-0.15339 -0.22821,-0.20951c0.28683,-0.14341 0.57552,-0.31364 0.86609,-0.51068c0.28932,-0.19579 0.57116,-0.40281 0.84552,-0.62104c0.27436,-0.21824 0.52252,-0.43336 0.7445,-0.64536c0.22073,-0.212 0.39969,-0.40842 0.53687,-0.58924zM297.22185,194.21669h4.93841v0.53312h-4.93841v-0.53312M296.71678,192.3835h5.98595v0.51442h-5.98595v-0.51442M296.71678,191.56978h5.98595v0.51442h-5.98595v-0.51442M295.58506,190.62512h8.20263v0.63601h-8.20263v-0.63601M296.6139,193.19721h6.21978v1.81449h-0.99142v-1.29072h-4.27435v1.30007h-0.95401v-1.82385M295.48218,186.67813h4.47076v0.58924h-4.47076v-0.58924M296.4736,186.32272h0.83242v1.24396h-0.83242v-1.24396M298.1478,186.31336h0.84177v1.24396h-0.84177v-1.24396M300.84148,187.05225h3.05845v0.68277h-3.05845v-0.68277M296.41748,187.79115h2.6095v0.53312h-2.6095v-0.53312M300.86954,186.27595l0.78566,0.18706c-0.16212,0.46765 -0.37724,0.90725 -0.64536,1.31878c-0.26812,0.41153 -0.55807,0.75448 -0.86983,1.02884c-0.04365,-0.04988 -0.10475,-0.106 -0.18332,-0.16835c-0.07732,-0.06235 -0.15838,-0.12471 -0.24318,-0.18706c-0.08355,-0.06235 -0.15651,-0.11224 -0.21886,-0.14965c0.30553,-0.24318 0.57864,-0.54123 0.81933,-0.89415c0.23944,-0.35167 0.42463,-0.73016 0.55557,-1.13546M302.49697,187.36091l0.86048,0.07482c-0.13718,0.51754 -0.34606,0.96149 -0.62665,1.33187c-0.28059,0.37163 -0.62167,0.6834 -1.02322,0.93531c-0.40281,0.25316 -0.86298,0.46079 -1.38051,0.62291c-0.02494,-0.05612 -0.06547,-0.12783 -0.12159,-0.21512c-0.05612,-0.08729 -0.11535,-0.17459 -0.17771,-0.26189c-0.06235,-0.08729 -0.12159,-0.159 -0.17771,-0.21512c0.69836,-0.16835 1.27825,-0.43336 1.73967,-0.79501c0.46142,-0.36165 0.76383,-0.85425 0.90725,-1.47778M301.0566,187.57603c0.25565,0.51754 0.64536,0.95713 1.16913,1.31878c0.52377,0.36165 1.14419,0.61418 1.86126,0.7576c-0.09353,0.08729 -0.1933,0.2039 -0.2993,0.3498c-0.106,0.14715 -0.18706,0.27997 -0.24318,0.39844c-0.76071,-0.20577 -1.41106,-0.53188 -1.95105,-0.97833c-0.53874,-0.44521 -0.95464,-0.99828 -1.2477,-1.65923l0.71083,-0.18706M296.33331,188.5768h1.89867v1.40296h-1.89867v-0.47701h1.20654v-0.44895h-1.20654v-0.47701M298.75575,187.79115h0.83242c0,0 0,0.03741 0,0.11224c0,0.07482 -0.00312,0.13718 -0.00935,0.18706c-0.01871,0.41153 -0.04365,0.74949 -0.07482,1.01387c-0.03118,0.26563 -0.0636,0.47139 -0.09727,0.6173c-0.03492,0.14715 -0.08355,0.25814 -0.14591,0.33297c-0.06235,0.08106 -0.13406,0.13843 -0.21512,0.1721c-0.08106,0.03492 -0.17147,0.05549 -0.27124,0.06173c-0.07482,0.00624 -0.17584,0.0106 -0.30304,0.01309c-0.12845,0.00374 -0.26438,0.00249 -0.40779,-0.00374c-0.00624,-0.09353 -0.02494,-0.20265 -0.05612,-0.32736c-0.03118,-0.12471 -0.07171,-0.23383 -0.12159,-0.32736c0.106,0.00624 0.19953,0.01247 0.28059,0.01871c0.08106,0.00624 0.14341,0.00935 0.18706,0.00935c0.03741,0 0.07171,-0.00624 0.10288,-0.01871c0.03118,-0.01247 0.05924,-0.03429 0.08418,-0.06547c0.04988,-0.06235 0.09041,-0.21512 0.12159,-0.4583c0.03118,-0.24318 0.06235,-0.64848 0.09353,-1.2159v-0.12159M296.2959,187.48249l0.74824,0.12159c-0.13094,0.318 -0.29805,0.61855 -0.50132,0.90163c-0.20203,0.28433 -0.45581,0.54809 -0.76134,0.79127c-0.06235,-0.08106 -0.14778,-0.17459 -0.25627,-0.28059c-0.10974,-0.106 -0.20514,-0.18394 -0.2862,-0.23383c0.26189,-0.18706 0.48012,-0.39595 0.65471,-0.62665c0.17459,-0.23071 0.30865,-0.45518 0.40218,-0.67342M296.05272,188.5768h0.67342v1.63678h-0.67342v-1.63678M298.98957,190.2697l0.88854,-0.24318c0.08106,0.11847 0.16087,0.25253 0.23944,0.40218c0.07732,0.14965 0.13468,0.28059 0.1721,0.39283l-0.93531,0.26189c-0.03118,-0.11224 -0.08106,-0.2463 -0.14965,-0.40218c-0.06859,-0.15588 -0.1403,-0.29306 -0.21512,-0.41153zM308.94122,189.86752h3.43257v0.90725h-3.43257v-0.90725M310.15712,190.40065c0.1933,0.54871 0.44458,1.06937 0.75386,1.56196c0.30803,0.49259 0.67591,0.9272 1.10366,1.30382c0.4265,0.37786 0.90163,0.67591 1.42541,0.89415c-0.07482,0.06235 -0.15588,0.14466 -0.24318,0.24692c-0.08729,0.10351 -0.1696,0.20826 -0.24692,0.31426c-0.07857,0.106 -0.14279,0.20265 -0.19267,0.28994c-0.56118,-0.26812 -1.06126,-0.62042 -1.50023,-1.0569c-0.44022,-0.43648 -0.82369,-0.93718 -1.15043,-1.5021c-0.32798,-0.56368 -0.60109,-1.17599 -0.81933,-1.83694l0.86983,-0.21512M312.12126,189.86752h0.18706l0.18706,-0.02806l0.63601,0.19641c-0.12471,0.75448 -0.33172,1.45097 -0.62104,2.08947c-0.29057,0.63975 -0.66157,1.20717 -1.11301,1.70226c-0.45269,0.49634 -0.99392,0.90662 -1.62369,1.23086c-0.07482,-0.11847 -0.17771,-0.25129 -0.30865,-0.39844c-0.13094,-0.14591 -0.25565,-0.26563 -0.37412,-0.35916c0.43648,-0.20577 0.82619,-0.45393 1.16913,-0.7445c0.34295,-0.28932 0.641,-0.61668 0.89415,-0.98207c0.25191,-0.36415 0.45892,-0.75822 0.62104,-1.18223c0.16212,-0.424 0.27747,-0.86672 0.34606,-1.32813v-0.19641M311.86873,186.62201h1.02884c0,0 -0.00125,0.04801 -0.00374,0.14404c-0.00374,0.09727 -0.00873,0.17708 -0.01496,0.23944c-0.01871,0.66095 -0.05425,1.15043 -0.10662,1.46843c-0.05362,0.318 -0.13655,0.53624 -0.24879,0.65471c-0.09977,0.11224 -0.21637,0.18831 -0.3498,0.22821c-0.13468,0.04115 -0.2862,0.07108 -0.45456,0.08979c-0.16212,0.00624 -0.37537,0.00935 -0.63975,0.00935c-0.26563,0 -0.54809,-0.00624 -0.84739,-0.01871c-0.00624,-0.12471 -0.03242,-0.265 -0.07857,-0.42089c-0.04739,-0.15588 -0.10538,-0.28994 -0.17397,-0.40218c0.18706,0.01247 0.36664,0.02307 0.53874,0.0318c0.17085,0.00998 0.32362,0.01621 0.4583,0.01871c0.13344,0.00374 0.23445,0.00561 0.30304,0.00561c0.09353,0 0.16835,-0.00499 0.22447,-0.01496c0.05612,-0.00873 0.106,-0.0318 0.14965,-0.06921c0.04365,-0.04988 0.07794,-0.14217 0.10288,-0.27685c0.02494,-0.13344 0.04677,-0.32673 0.06547,-0.57989c0.01871,-0.25191 0.03429,-0.57428 0.04677,-0.96711v-0.1403M304.60141,191.10213c0.28683,-0.06235 0.60982,-0.13718 0.96898,-0.22447c0.35791,-0.08729 0.73515,-0.18083 1.13172,-0.28059c0.39532,-0.09977 0.7894,-0.20265 1.18223,-0.30865l0.12159,0.97272c-0.54248,0.15588 -1.09119,0.3099 -1.64614,0.46204c-0.55495,0.15339 -1.06313,0.28932 -1.52455,0.40779l-0.23383,-1.02884M304.73235,188.10915h3.18939v0.97272h-3.18939v-0.97272M305.9576,186.29466h1.01948v7.58533c0,0.26812 -0.03242,0.47514 -0.09727,0.62104c-0.0661,0.14715 -0.1802,0.25814 -0.34232,0.33297c-0.16212,0.08106 -0.36913,0.13219 -0.62104,0.15339c-0.25316,0.02245 -0.5668,0.03367 -0.94092,0.03367c-0.01871,-0.13094 -0.05737,-0.28994 -0.11598,-0.47701c-0.05986,-0.18706 -0.12408,-0.34606 -0.19267,-0.47701c0.23071,0.00624 0.45082,0.00935 0.66033,0.00935c0.20826,0 0.34669,0 0.41528,0c0.08106,0 0.13718,-0.01434 0.16835,-0.04302c0.03118,-0.02744 0.04677,-0.08168 0.04677,-0.16274v-7.57597M308.23039,186.62201h3.94699v0.93531h-2.95557v7.43568h-0.99142zM315.02071,187.80985h2.86203v6.24784h-2.86203v-0.88854h1.94544v-4.48011h-1.94544v-0.87919M314.43147,187.80985h0.9166v6.95867h-0.9166v-6.95867M314.97394,190.33518h2.4505v0.86983h-2.4505v-0.86983M315.78766,186.2853l1.09431,0.16835c-0.09977,0.30553 -0.20577,0.61231 -0.318,0.92034c-0.11224,0.30927 -0.21512,0.57303 -0.30865,0.79127l-0.80436,-0.18706c0.04365,-0.15588 0.08917,-0.33359 0.13655,-0.53312c0.04614,-0.19953 0.08792,-0.40093 0.12533,-0.60421c0.03741,-0.20203 0.06235,-0.38722 0.07482,-0.55557M319.14541,187.75373h2.77786v0.9166h-2.77786v-0.9166M321.56785,187.75373h0.93531c0,0 0,0.02931 0,0.08792c0,0.05986 0,0.12533 0,0.19641c0,0.07233 -0.00312,0.13032 -0.00935,0.17397c-0.03118,1.06001 -0.0636,1.95791 -0.09727,2.69368c-0.03492,0.73577 -0.07545,1.3406 -0.12159,1.81449c-0.04739,0.47389 -0.10226,0.84302 -0.16461,1.1074c-0.06235,0.26563 -0.14341,0.46079 -0.24318,0.5855c-0.12471,0.16835 -0.25253,0.28371 -0.38348,0.34606c-0.13094,0.06235 -0.28994,0.10912 -0.47701,0.1403c-0.16835,0.01871 -0.38348,0.02806 -0.64536,0.02806c-0.26189,0 -0.53001,-0.00624 -0.80436,-0.01871c-0.00624,-0.13718 -0.03866,-0.2993 -0.09727,-0.48636c-0.05986,-0.18706 -0.13967,-0.34918 -0.23944,-0.48636c0.30553,0.02494 0.58613,0.04053 0.84177,0.04677c0.25565,0.00624 0.44271,0.00935 0.56118,0.00935c0.09353,0 0.17023,-0.01122 0.23009,-0.03367c0.05861,-0.0212 0.1191,-0.06298 0.18145,-0.12533c0.07482,-0.08729 0.1403,-0.25752 0.19641,-0.51068c0.05612,-0.25191 0.10288,-0.60857 0.1403,-1.06999c0.03741,-0.46142 0.07358,-1.04754 0.1085,-1.75837c0.03367,-0.71083 0.06298,-1.55884 0.08792,-2.54403v-0.19641M319.22023,186.2853l0.96336,0.22447c-0.11847,0.46142 -0.26001,0.91785 -0.42463,1.36929c-0.16586,0.45269 -0.34856,0.87856 -0.54809,1.27763c-0.19953,0.39906 -0.4053,0.74824 -0.6173,1.04754c-0.06235,-0.05612 -0.14341,-0.12159 -0.24318,-0.19641c-0.09977,-0.07482 -0.20265,-0.1484 -0.30865,-0.22073c-0.106,-0.07108 -0.19641,-0.12533 -0.27124,-0.16274c0.20577,-0.26812 0.40093,-0.58176 0.5855,-0.94092c0.18332,-0.35791 0.34856,-0.74263 0.49571,-1.15417c0.14591,-0.41153 0.26874,-0.82619 0.36851,-1.24396M318.77128,190.37259l0.78566,-0.43959c0.15588,0.212 0.32424,0.44708 0.50506,0.70522c0.18083,0.25939 0.35105,0.50881 0.51068,0.74824c0.15838,0.24068 0.28433,0.45456 0.37786,0.64162l-0.85113,0.52377c-0.08729,-0.1933 -0.20577,-0.41465 -0.35542,-0.66407c-0.14965,-0.24942 -0.3099,-0.50694 -0.48075,-0.77256c-0.1721,-0.26438 -0.33609,-0.51192 -0.49197,-0.74263zM328.89129,186.29466h0.94466v6.5752h-0.94466v-6.5752M326.06667,190.08264l4.901,-2.07638l0.37412,0.86048l-4.901,2.10444l-0.37412,-0.88854M327.02068,187.19255h0.95401v6.1169c0,0.17459 0.01559,0.30678 0.04677,0.39657c0.03118,0.09104 0.09665,0.15214 0.19641,0.18332c0.09977,0.03118 0.2463,0.04677 0.43959,0.04677c0.05612,0 0.1484,0 0.27685,0c0.1272,0 0.27186,0 0.43398,0c0.16212,0 0.32611,0 0.49197,0c0.16461,0 0.31426,0 0.44895,0c0.13344,0 0.23133,0 0.29369,0c0.17459,0 0.30553,-0.03305 0.39283,-0.09914c0.08729,-0.06485 0.15277,-0.18457 0.19641,-0.35916c0.04365,-0.17459 0.07482,-0.42712 0.09353,-0.7576c0.11224,0.08106 0.2544,0.15588 0.4265,0.22447c0.17085,0.06859 0.32486,0.11535 0.46204,0.1403c-0.04365,0.44271 -0.11535,0.79002 -0.21512,1.04193c-0.09977,0.25316 -0.24942,0.43398 -0.44895,0.54248c-0.19953,0.10974 -0.47701,0.16461 -0.83242,0.16461c-0.06235,0 -0.16337,0 -0.30304,0c-0.14092,0 -0.30179,0 -0.48262,0c-0.18083,0 -0.35978,0 -0.53687,0c-0.17833,0 -0.33733,0 -0.47701,0c-0.14092,0 -0.23944,0 -0.29556,0c-0.39906,0 -0.71395,-0.04365 -0.94466,-0.13094c-0.23071,-0.08729 -0.39096,-0.24193 -0.48075,-0.46391c-0.09104,-0.22073 -0.13655,-0.53375 -0.13655,-0.93905v-6.10754M330.78061,188.1185h-0.07482l0.18706,-0.1403l0.18706,-0.12159l0.69213,0.25253l-0.03741,0.16835c0,0.44271 -0.00125,0.84926 -0.00374,1.21964c-0.00374,0.37163 -0.00686,0.70086 -0.00935,0.98768c-0.00374,0.28683 -0.00998,0.52689 -0.01871,0.72019c-0.00998,0.1933 -0.0212,0.33671 -0.03367,0.43024c-0.01871,0.212 -0.06859,0.37537 -0.14965,0.4901c-0.08106,0.11598 -0.19641,0.19891 -0.34606,0.24879c-0.13094,0.05612 -0.28496,0.08854 -0.46204,0.09727c-0.17833,0.00998 -0.3392,0.01496 -0.48262,0.01496c-0.01247,-0.12471 -0.03866,-0.26999 -0.07857,-0.43585c-0.04115,-0.16461 -0.08667,-0.29992 -0.13655,-0.40592c0.08729,0.00624 0.18083,0.00935 0.28059,0.00935c0.09977,0 0.17147,0 0.21512,0c0.06235,0 0.11224,-0.01434 0.14965,-0.04302c0.03741,-0.02744 0.06235,-0.0848 0.07482,-0.1721c0.01247,-0.04988 0.02182,-0.15776 0.02806,-0.32362c0.00624,-0.16461 0.01122,-0.3841 0.01496,-0.65845c0.00249,-0.27436 0.00374,-0.6067 0.00374,-0.99704c0,-0.38909 0,-0.83616 0,-1.34123M323.40105,188.49262h3.05845v0.94466h-3.05845v-0.94466M324.52341,186.41625h0.94466v6.16366h-0.94466v-6.16366M323.28881,192.65473c0.25565,-0.09353 0.5537,-0.20764 0.89415,-0.34232c0.3392,-0.13344 0.69774,-0.27997 1.0756,-0.43959c0.37662,-0.15838 0.7551,-0.31551 1.13546,-0.47139l0.22447,0.88854c-0.49883,0.24318 -1.00514,0.48449 -1.51894,0.72393c-0.51504,0.24068 -0.98457,0.45768 -1.40857,0.65097zM339.17029,188.03432l0.94466,0.38348c-0.39906,0.66095 -0.86048,1.29384 -1.38425,1.89867c-0.52377,0.60483 -1.07997,1.16103 -1.66858,1.66858c-0.58987,0.50881 -1.1841,0.95339 -1.78269,1.33375c-0.05612,-0.06859 -0.13094,-0.15277 -0.22447,-0.25253c-0.09353,-0.09977 -0.19018,-0.19641 -0.28994,-0.28994c-0.09977,-0.09353 -0.19018,-0.16835 -0.27124,-0.22447c0.6173,-0.34295 1.2159,-0.74824 1.79579,-1.2159c0.57989,-0.46765 1.11613,-0.98207 1.60873,-1.54325c0.49259,-0.56118 0.9166,-1.14731 1.27202,-1.75837M334.86789,188.94157l0.70148,-0.5986c0.39906,0.31177 0.82494,0.64973 1.27763,1.01387c0.45144,0.36539 0.90039,0.73827 1.34684,1.11863c0.44521,0.38036 0.8611,0.74949 1.2477,1.1074c0.38659,0.35916 0.71083,0.68527 0.97272,0.97833l-0.78566,0.74824c-0.24318,-0.2993 -0.55183,-0.63164 -0.92595,-0.99704c-0.37412,-0.36415 -0.77942,-0.7445 -1.2159,-1.14107c-0.43648,-0.39532 -0.87919,-0.78316 -1.32813,-1.16352c-0.44895,-0.38036 -0.87919,-0.73577 -1.29072,-1.06625M341.11573,186.73425v0.96336h-6.90255v6.09819h7.15509v0.96336h-8.13716v-8.02492zM345.1656,187.70697l0.86048,-0.46765c0.18083,0.21824 0.36165,0.45643 0.54248,0.71457c0.18083,0.25939 0.34606,0.51192 0.49571,0.7576c0.14965,0.24692 0.27124,0.47015 0.36477,0.66968l-0.90725,0.55183c-0.08106,-0.19953 -0.19454,-0.43024 -0.34045,-0.69213c-0.14715,-0.26189 -0.30927,-0.52689 -0.48636,-0.79501c-0.17833,-0.26812 -0.35479,-0.51442 -0.52938,-0.73889M347.72834,192.28996l0.80436,-0.57054c0.27436,0.26189 0.56305,0.54684 0.86609,0.85487c0.30179,0.30927 0.58862,0.61793 0.86048,0.92595c0.27061,0.30927 0.48698,0.5855 0.6491,0.82868l-0.88854,0.66407c-0.14965,-0.24318 -0.3523,-0.52377 -0.60795,-0.84177c-0.25565,-0.318 -0.53188,-0.63913 -0.82868,-0.96336c-0.29556,-0.32424 -0.58051,-0.62354 -0.85487,-0.89789M348.75718,186.68749l1.0756,0.04677c-0.06235,1.09742 -0.16711,2.08261 -0.31426,2.95557c-0.14591,0.87295 -0.36539,1.64738 -0.65845,2.3233c-0.29306,0.67716 -0.68589,1.2664 -1.17848,1.76773c-0.49259,0.50257 -1.1099,0.93156 -1.8519,1.28698c-0.04365,-0.06859 -0.11224,-0.159 -0.20577,-0.27124c-0.09353,-0.11224 -0.19143,-0.22323 -0.29369,-0.33297c-0.10351,-0.1085 -0.19267,-0.19704 -0.2675,-0.26563c0.71707,-0.29306 1.30818,-0.66095 1.77334,-1.10366c0.46391,-0.44271 0.82806,-0.97147 1.09244,-1.58628c0.26563,-0.61356 0.46079,-1.3194 0.5855,-2.11753c0.12471,-0.79813 0.20577,-1.69914 0.24318,-2.70303M343.05181,194.20734l-0.20577,-1.02884l0.34606,-0.35542l2.94621,-1.45908c0.02494,0.14341 0.06547,0.3099 0.12159,0.49945c0.05612,0.1908 0.10288,0.34232 0.1403,0.45456c-0.53624,0.27436 -0.98831,0.50818 -1.35619,0.70148c-0.36789,0.1933 -0.6703,0.35666 -0.90725,0.4901c-0.23694,0.13468 -0.42525,0.2438 -0.56492,0.32736c-0.14092,0.0848 -0.25004,0.15651 -0.32736,0.21512c-0.07857,0.05986 -0.14279,0.11161 -0.19267,0.15526M343.05181,194.20734c-0.03118,-0.07482 -0.07919,-0.16399 -0.14404,-0.2675c-0.0661,-0.10226 -0.13655,-0.20327 -0.21138,-0.30304c-0.07482,-0.09977 -0.1403,-0.17771 -0.19641,-0.23383c0.08106,-0.05612 0.17147,-0.13281 0.27124,-0.23009c0.09977,-0.09602 0.18893,-0.21138 0.2675,-0.34606c0.07732,-0.13344 0.11598,-0.2781 0.11598,-0.43398v-5.43412h1.09431v6.05143c0,0 -0.04053,0.02806 -0.12159,0.08418c-0.08106,0.05612 -0.18083,0.13094 -0.2993,0.22447c-0.11847,0.09353 -0.23694,0.1933 -0.35542,0.2993c-0.11847,0.106 -0.21824,0.212 -0.2993,0.318c-0.08106,0.106 -0.12159,0.19641 -0.12159,0.27124zM354.43448,187.91274c0.25565,1.05378 0.61917,1.9922 1.09057,2.81527c0.47015,0.82307 1.0887,1.51208 1.85565,2.06702c0.76695,0.55495 1.71473,0.96025 2.84333,1.2159c-0.07482,0.06859 -0.15588,0.159 -0.24318,0.27124c-0.08729,0.11224 -0.16835,0.22759 -0.24318,0.34606c-0.07482,0.11847 -0.1403,0.22759 -0.19641,0.32736c-0.87919,-0.23071 -1.64614,-0.55058 -2.30085,-0.95962c-0.65471,-0.40779 -1.21403,-0.89852 -1.67794,-1.47217c-0.46516,-0.57365 -0.85986,-1.23024 -1.1841,-1.96975c-0.32424,-0.73827 -0.59548,-1.55323 -0.81372,-2.44489l0.86983,-0.19641M351.92786,186.77166h5.07871v1.01948h-5.07871v-1.01948M358.61529,189.0164h0.18706l0.18706,-0.04677l0.69213,0.27124c-0.18706,0.81683 -0.44583,1.53827 -0.7763,2.1643c-0.33047,0.62728 -0.72642,1.17287 -1.18784,1.63678c-0.46142,0.46516 -0.97583,0.85986 -1.54325,1.1841c-0.56742,0.32424 -1.1816,0.59236 -1.84255,0.80436c-0.03741,-0.09353 -0.08854,-0.19517 -0.15339,-0.30491c-0.0661,-0.1085 -0.13655,-0.21574 -0.21138,-0.32175c-0.07482,-0.106 -0.14653,-0.1933 -0.21512,-0.26189c0.59236,-0.16212 1.1523,-0.38348 1.67981,-0.66407c0.52627,-0.28059 1.00015,-0.62665 1.42166,-1.03819c0.42026,-0.41153 0.78129,-0.88729 1.08308,-1.42728c0.30304,-0.53874 0.52938,-1.14481 0.67903,-1.81823v-0.17771M356.85692,189.0164h1.98285v0.94466h-2.17926l0.19641,-0.94466M353.46176,187.05225h1.0569v1.39361c0,0.36789 -0.01434,0.76508 -0.04302,1.19158c-0.02744,0.42775 -0.08605,0.87046 -0.17584,1.32813c-0.09104,0.45892 -0.22385,0.91909 -0.39844,1.38051c-0.17459,0.46142 -0.4053,0.91161 -0.69213,1.35058c-0.28683,0.44022 -0.64848,0.85674 -1.08495,1.24957c-0.04988,-0.09353 -0.11847,-0.19517 -0.20577,-0.30491c-0.08729,-0.1085 -0.17895,-0.21574 -0.27498,-0.32175c-0.09727,-0.106 -0.18332,-0.19018 -0.25814,-0.25253c0.47389,-0.41777 0.84926,-0.86983 1.12611,-1.35619c0.2781,-0.48636 0.48573,-0.98394 0.62291,-1.49275c0.13718,-0.50756 0.22572,-1.00015 0.26563,-1.47778c0.04115,-0.47638 0.06173,-0.91099 0.06173,-1.30382v-1.38425M356.81015,186.77166h1.02884c-0.06235,0.35542 -0.13406,0.72767 -0.21512,1.11675c-0.08106,0.39033 -0.16025,0.76446 -0.23757,1.12237c-0.07857,0.35916 -0.15526,0.67591 -0.23009,0.95027h-1.10366c0.08729,-0.28683 0.17771,-0.61294 0.27124,-0.97833c0.09353,-0.36415 0.1827,-0.73827 0.2675,-1.12237c0.08355,-0.38285 0.15651,-0.74575 0.21886,-1.0887zM360.95356,192.0842h8.39904v0.92595h-8.39904v-0.92595M361.23415,187.27673h7.88462v0.9166h-7.88462v-0.9166M363.217,188.88545h3.86281v0.84177h-3.86281v-0.84177M363.217,190.46612h3.86281v0.84177h-3.86281v-0.84177M362.59034,186.31336h0.99142v6.24784h-0.99142v-6.24784M366.68698,186.31336h1.01948v6.24784h-1.01948v-6.24784M365.6862,193.73033l0.71083,-0.6173c0.36165,0.11847 0.72642,0.25066 1.09431,0.39657c0.36789,0.14715 0.71707,0.29369 1.04754,0.43959c0.33047,0.14715 0.61418,0.28309 0.85113,0.40779l-0.95401,0.63601c-0.19953,-0.12471 -0.44895,-0.26064 -0.74824,-0.40779c-0.2993,-0.14591 -0.62042,-0.29244 -0.96336,-0.43959c-0.34295,-0.14591 -0.68901,-0.28433 -1.03819,-0.41528M363.76883,193.02886l0.85113,0.65471c-0.28059,0.16212 -0.59984,0.32549 -0.95775,0.4901c-0.35916,0.16586 -0.7258,0.32175 -1.09992,0.46765c-0.37412,0.14715 -0.72954,0.27061 -1.06625,0.37038c-0.07482,-0.106 -0.17584,-0.23258 -0.30304,-0.37973c-0.12845,-0.14591 -0.24567,-0.26874 -0.35167,-0.36851c0.33671,-0.09353 0.68901,-0.20888 1.0569,-0.34606c0.36789,-0.13718 0.71707,-0.28371 1.04754,-0.43959c0.33047,-0.15588 0.60483,-0.30553 0.82307,-0.44895zM375.54432,186.33207h0.94466v6.50973h-0.94466v-6.50973M372.35493,190.04523l5.57442,-2.16991l0.38348,0.86983l-5.57442,2.18861l-0.38348,-0.88854M373.50536,187.31414h0.99142v6.02337c0,0.18706 0.01746,0.32549 0.05238,0.41528c0.03367,0.09104 0.10351,0.15339 0.20951,0.18706c0.106,0.03492 0.265,0.05238 0.47701,0.05238c0.05612,0 0.1509,0 0.28433,0c0.13468,0 0.2862,0 0.45456,0c0.16835,0 0.33983,0 0.51442,0c0.17459,0 0.33047,0 0.46765,0c0.13718,0 0.24006,0 0.30865,0c0.18706,0 0.32923,-0.03429 0.4265,-0.10288c0.09602,-0.06859 0.16586,-0.19828 0.20951,-0.38909c0.04365,-0.18956 0.07794,-0.46516 0.10288,-0.82681c0.11847,0.08106 0.265,0.159 0.43959,0.23383c0.17459,0.07482 0.33359,0.13094 0.47701,0.16835c-0.04988,0.45518 -0.12595,0.81496 -0.22821,1.07934c-0.10351,0.26563 -0.25939,0.45456 -0.46765,0.5668c-0.20951,0.11224 -0.50444,0.16835 -0.8848,0.16835c-0.06235,0 -0.16648,0 -0.31239,0c-0.14715,0 -0.31551,0 -0.50506,0c-0.1908,0 -0.37786,0 -0.56118,0c-0.18457,0 -0.3498,0 -0.49571,0c-0.14715,0 -0.24879,0 -0.30491,0c-0.43024,0 -0.76508,-0.04365 -1.00452,-0.13094c-0.24068,-0.08729 -0.40966,-0.24505 -0.50694,-0.47326c-0.09602,-0.22697 -0.14404,-0.5431 -0.14404,-0.9484v-6.02337M377.59264,188.05303h-0.07482l0.18706,-0.1403l0.17771,-0.13094l0.68277,0.27124l-0.03741,0.159c0,0.54871 -0.00312,1.04255 -0.00935,1.48152c-0.00624,0.44022 -0.01559,0.80997 -0.02806,1.10927c-0.01247,0.2993 -0.02806,0.51754 -0.04677,0.65471c-0.02494,0.23071 -0.08418,0.40655 -0.17771,0.52751c-0.09353,0.12221 -0.21512,0.2145 -0.36477,0.27685c-0.13718,0.05612 -0.30366,0.09041 -0.49945,0.10288c-0.19704,0.01247 -0.3735,0.01559 -0.52938,0.00935c-0.00624,-0.13718 -0.03118,-0.29805 -0.07482,-0.48262c-0.04365,-0.18332 -0.09353,-0.32798 -0.14965,-0.43398c0.11224,0.00624 0.22946,0.00935 0.35167,0.00935c0.12097,0 0.20951,0 0.26563,0c0.06859,0 0.12346,-0.01434 0.16461,-0.04302c0.03991,-0.02744 0.07233,-0.09104 0.09727,-0.1908c0.01247,-0.08106 0.02369,-0.24817 0.03367,-0.50132c0.00873,-0.25191 0.01621,-0.60109 0.02245,-1.04754c0.00624,-0.44521 0.00935,-0.98893 0.00935,-1.63117M372.15852,186.33207l0.92595,0.28994c-0.19953,0.52377 -0.43648,1.04879 -0.71083,1.57505c-0.27436,0.52751 -0.57054,1.02322 -0.88854,1.48714c-0.318,0.46516 -0.64536,0.87545 -0.98207,1.23086c-0.03118,-0.07482 -0.07794,-0.17646 -0.1403,-0.30491c-0.06235,-0.1272 -0.12907,-0.25627 -0.20016,-0.38722c-0.07233,-0.13094 -0.13655,-0.23694 -0.19267,-0.318c0.29306,-0.28683 0.57552,-0.62229 0.84739,-1.00639c0.27061,-0.38285 0.52128,-0.79252 0.75199,-1.22899c0.23071,-0.43648 0.42712,-0.8823 0.58924,-1.33749M371.19515,188.86675l0.98207,-0.98207l0.00935,0.00935v7.11767h-0.99142zM385.00961,186.29466h0.94466v6.5752h-0.94466v-6.5752M382.18499,190.08264l4.901,-2.07638l0.37412,0.86048l-4.901,2.10444l-0.37412,-0.88854M383.139,187.19255h0.95401v6.1169c0,0.17459 0.01559,0.30678 0.04677,0.39657c0.03118,0.09104 0.09665,0.15214 0.19641,0.18332c0.09977,0.03118 0.2463,0.04677 0.43959,0.04677c0.05612,0 0.1484,0 0.27685,0c0.1272,0 0.27186,0 0.43398,0c0.16212,0 0.32611,0 0.49197,0c0.16461,0 0.31426,0 0.44895,0c0.13344,0 0.23133,0 0.29369,0c0.17459,0 0.30553,-0.03305 0.39283,-0.09914c0.08729,-0.06485 0.15277,-0.18457 0.19641,-0.35916c0.04365,-0.17459 0.07482,-0.42712 0.09353,-0.7576c0.11224,0.08106 0.2544,0.15588 0.4265,0.22447c0.17085,0.06859 0.32486,0.11535 0.46204,0.1403c-0.04365,0.44271 -0.11535,0.79002 -0.21512,1.04193c-0.09977,0.25316 -0.24942,0.43398 -0.44895,0.54248c-0.19953,0.10974 -0.47701,0.16461 -0.83242,0.16461c-0.06235,0 -0.16337,0 -0.30304,0c-0.14092,0 -0.30179,0 -0.48262,0c-0.18083,0 -0.35978,0 -0.53687,0c-0.17833,0 -0.33733,0 -0.47701,0c-0.14092,0 -0.23944,0 -0.29556,0c-0.39906,0 -0.71395,-0.04365 -0.94466,-0.13094c-0.23071,-0.08729 -0.39096,-0.24193 -0.48075,-0.46391c-0.09104,-0.22073 -0.13655,-0.53375 -0.13655,-0.93905v-6.10754M386.89893,188.1185h-0.07482l0.18706,-0.1403l0.18706,-0.12159l0.69213,0.25253l-0.03741,0.16835c0,0.44271 -0.00125,0.84926 -0.00374,1.21964c-0.00374,0.37163 -0.00686,0.70086 -0.00935,0.98768c-0.00374,0.28683 -0.0106,0.52689 -0.02058,0.72019c-0.00873,0.1933 -0.01933,0.33671 -0.0318,0.43024c-0.01871,0.212 -0.06859,0.37537 -0.14965,0.4901c-0.08106,0.11598 -0.19641,0.19891 -0.34606,0.24879c-0.13094,0.05612 -0.28496,0.08854 -0.46204,0.09727c-0.17833,0.00998 -0.3392,0.01496 -0.48262,0.01496c-0.01247,-0.12471 -0.03866,-0.26999 -0.07857,-0.43585c-0.04115,-0.16461 -0.08667,-0.29992 -0.13655,-0.40592c0.08729,0.00624 0.18083,0.00935 0.28059,0.00935c0.09977,0 0.17147,0 0.21512,0c0.06235,0 0.11224,-0.01434 0.14965,-0.04302c0.03741,-0.02744 0.06235,-0.0848 0.07482,-0.1721c0.01247,-0.04988 0.02182,-0.15776 0.02806,-0.32362c0.00624,-0.16461 0.01122,-0.3841 0.01496,-0.65845c0.00249,-0.27436 0.00374,-0.6067 0.00374,-0.99704c0,-0.38909 0,-0.83616 0,-1.34123M379.51937,188.49262h3.05845v0.94466h-3.05845v-0.94466M380.64174,186.41625h0.94466v6.16366h-0.94466v-6.16366M379.40713,192.65473c0.25565,-0.09353 0.5537,-0.20764 0.89415,-0.34232c0.3392,-0.13344 0.69774,-0.27997 1.0756,-0.43959c0.37662,-0.15838 0.7551,-0.31551 1.13546,-0.47139l0.22447,0.88854c-0.49883,0.24318 -1.00514,0.48449 -1.51894,0.72393c-0.51504,0.24068 -0.98457,0.45768 -1.40857,0.65097zM395.28862,188.03432l0.94466,0.38348c-0.39906,0.66095 -0.86048,1.29384 -1.38425,1.89867c-0.52377,0.60483 -1.07997,1.16103 -1.66858,1.66858c-0.58987,0.50881 -1.1841,0.95339 -1.78269,1.33375c-0.05612,-0.06859 -0.13094,-0.15277 -0.22447,-0.25253c-0.09353,-0.09977 -0.19018,-0.19641 -0.28994,-0.28994c-0.09977,-0.09353 -0.19018,-0.16835 -0.27124,-0.22447c0.6173,-0.34295 1.2159,-0.74824 1.79579,-1.2159c0.57989,-0.46765 1.11613,-0.98207 1.60873,-1.54325c0.49259,-0.56118 0.9166,-1.14731 1.27202,-1.75837M390.98621,188.94157l0.70148,-0.5986c0.39906,0.31177 0.82432,0.64973 1.27576,1.01387c0.45269,0.36539 0.90226,0.73827 1.34871,1.11863c0.44521,0.38036 0.8611,0.74949 1.2477,1.1074c0.38659,0.35916 0.71083,0.68527 0.97272,0.97833l-0.78566,0.74824c-0.24318,-0.2993 -0.55183,-0.63164 -0.92595,-0.99704c-0.37412,-0.36415 -0.77942,-0.7445 -1.2159,-1.14107c-0.43648,-0.39532 -0.87919,-0.78316 -1.32813,-1.16352c-0.44895,-0.38036 -0.87919,-0.73577 -1.29072,-1.06625M397.23405,186.73425v0.96336h-6.90255v6.09819h7.15509v0.96336h-8.13716v-8.02492zM399.1982,187.80985h2.86203v6.24784h-2.86203v-0.88854h1.94544v-4.48011h-1.94544v-0.87919M398.60895,187.80985h0.9166v6.95867h-0.9166v-6.95867M399.15143,190.33518h2.4505v0.86983h-2.4505v-0.86983M399.96515,186.2853l1.09431,0.16835c-0.09977,0.30553 -0.20577,0.61231 -0.318,0.92034c-0.11224,0.30927 -0.21512,0.57303 -0.30865,0.79127l-0.80436,-0.18706c0.04365,-0.15588 0.08917,-0.33359 0.13655,-0.53312c0.04614,-0.19953 0.08792,-0.40093 0.12533,-0.60421c0.03741,-0.20203 0.06235,-0.38722 0.07482,-0.55557M403.32289,187.75373h2.77786v0.9166h-2.77786v-0.9166M405.74533,187.75373h0.93531c0,0 0,0.02931 0,0.08792c0,0.05986 0,0.12533 0,0.19641c0,0.07233 -0.00312,0.13032 -0.00935,0.17397c-0.03118,1.06001 -0.06422,1.95791 -0.09914,2.69368c-0.03367,0.73577 -0.07358,1.3406 -0.11972,1.81449c-0.04739,0.47389 -0.10226,0.84302 -0.16461,1.1074c-0.06235,0.26563 -0.14341,0.46079 -0.24318,0.5855c-0.12471,0.16835 -0.25253,0.28371 -0.38348,0.34606c-0.13094,0.06235 -0.28994,0.10912 -0.47701,0.1403c-0.16835,0.01871 -0.38348,0.02806 -0.64536,0.02806c-0.26189,0 -0.53001,-0.00624 -0.80436,-0.01871c-0.00624,-0.13718 -0.03866,-0.2993 -0.09727,-0.48636c-0.05986,-0.18706 -0.13967,-0.34918 -0.23944,-0.48636c0.30553,0.02494 0.58613,0.04053 0.84177,0.04677c0.25565,0.00624 0.44271,0.00935 0.56118,0.00935c0.09353,0 0.1696,-0.01122 0.22821,-0.03367c0.05986,-0.0212 0.12097,-0.06298 0.18332,-0.12533c0.07482,-0.08729 0.1403,-0.25752 0.19641,-0.51068c0.05612,-0.25191 0.10288,-0.60857 0.1403,-1.06999c0.03741,-0.46142 0.07358,-1.04754 0.1085,-1.75837c0.03367,-0.71083 0.06298,-1.55884 0.08792,-2.54403v-0.19641M403.39772,186.2853l0.96336,0.22447c-0.11847,0.46142 -0.26001,0.91785 -0.42463,1.36929c-0.16586,0.45269 -0.34856,0.87856 -0.54809,1.27763c-0.19953,0.39906 -0.4053,0.74824 -0.6173,1.04754c-0.06235,-0.05612 -0.14341,-0.12159 -0.24318,-0.19641c-0.09977,-0.07482 -0.20265,-0.1484 -0.30865,-0.22073c-0.106,-0.07108 -0.19641,-0.12533 -0.27124,-0.16274c0.20577,-0.26812 0.40093,-0.58176 0.5855,-0.94092c0.18332,-0.35791 0.34856,-0.74263 0.49571,-1.15417c0.14591,-0.41153 0.26874,-0.82619 0.36851,-1.24396M402.94877,190.37259l0.78566,-0.43959c0.15588,0.212 0.32424,0.44708 0.50506,0.70522c0.18083,0.25939 0.35043,0.50881 0.50881,0.74824c0.15963,0.24068 0.2862,0.45456 0.37973,0.64162l-0.85113,0.52377c-0.08729,-0.1933 -0.20577,-0.41465 -0.35542,-0.66407c-0.14965,-0.24942 -0.31052,-0.50694 -0.48262,-0.77256c-0.17085,-0.26438 -0.33422,-0.51192 -0.4901,-0.74263zM407.72818,186.70619h3.00233v0.87919h-3.00233v-0.87919M407.52241,189.76464h3.55416v0.88854h-3.55416v-0.88854M408.95343,190.17617h0.96336v3.75993c0,0.23694 -0.02806,0.42712 -0.08418,0.57054c-0.05612,0.14341 -0.16524,0.25253 -0.32736,0.32736c-0.16212,0.07482 -0.35666,0.12284 -0.58363,0.14404c-0.22821,0.02245 -0.50132,0.03367 -0.81933,0.03367c-0.01871,-0.14341 -0.05737,-0.3074 -0.11598,-0.49197c-0.05986,-0.18332 -0.12408,-0.34045 -0.19267,-0.47139c0.212,0.00624 0.41465,0.00935 0.60795,0.00935c0.1933,0 0.32112,0 0.38348,0c0.06859,0 0.11411,-0.01122 0.13655,-0.03367c0.0212,-0.0212 0.0318,-0.05674 0.0318,-0.10662v-3.74122M410.42186,186.70619h0.21512l0.17771,-0.04677l0.60795,0.42089c-0.14965,0.24318 -0.32112,0.49259 -0.51442,0.74824c-0.1933,0.25565 -0.39283,0.50008 -0.5986,0.73328c-0.20577,0.23445 -0.4053,0.43585 -0.5986,0.60421c-0.06235,-0.08729 -0.14965,-0.18893 -0.26189,-0.30491c-0.11224,-0.11473 -0.20888,-0.20327 -0.28994,-0.26563c0.15588,-0.14965 0.31489,-0.32424 0.47701,-0.52377c0.16212,-0.19953 0.31489,-0.4053 0.4583,-0.6173c0.14341,-0.212 0.25253,-0.40218 0.32736,-0.57054v-0.17771M410.78663,189.76464h0.13094l0.1403,-0.02806l0.6173,0.14965c-0.106,0.38036 -0.22136,0.7682 -0.34606,1.16352c-0.12471,0.39657 -0.24318,0.73203 -0.35542,1.00639l-0.74824,-0.16835c0.06235,-0.16835 0.12783,-0.36477 0.19641,-0.58924c0.06859,-0.22447 0.13406,-0.46017 0.19641,-0.70709c0.06235,-0.24567 0.11847,-0.47763 0.16835,-0.69587v-0.13094M407.92459,188.70774l0.53312,-0.64536c0.23071,0.13718 0.48324,0.29119 0.7576,0.46204c0.27436,0.1721 0.54123,0.34045 0.80062,0.50506c0.25814,0.16586 0.47139,0.31115 0.63975,0.43585l-0.55183,0.73889c-0.15588,-0.13094 -0.36165,-0.28371 -0.6173,-0.4583c-0.25565,-0.17459 -0.52065,-0.35417 -0.79501,-0.53874c-0.27436,-0.18332 -0.53001,-0.3498 -0.76695,-0.49945M411.52552,186.66878h4.7607v0.88854h-4.7607v-0.88854M413.45225,187.12708l1.11301,0.13094c-0.09353,0.28683 -0.18706,0.56867 -0.28059,0.84552c-0.09353,0.2781 -0.18083,0.51691 -0.26189,0.71644l-0.86048,-0.16835c0.06235,-0.21824 0.12034,-0.46952 0.17397,-0.75386c0.05238,-0.28309 0.09104,-0.53998 0.11598,-0.77069M413.37742,189.70852h0.94466v1.76773c0,0.2993 -0.03118,0.6092 -0.09353,0.92969c-0.06235,0.32175 -0.18706,0.63663 -0.37412,0.94466c-0.18706,0.30927 -0.45643,0.60234 -0.8081,0.87919c-0.35292,0.2781 -0.82244,0.52627 -1.40857,0.7445c-0.06235,-0.09977 -0.15277,-0.22011 -0.27124,-0.36103c-0.11847,-0.13967 -0.23694,-0.25316 -0.35542,-0.34045c0.53001,-0.18083 0.95214,-0.38535 1.2664,-0.61356c0.31551,-0.22697 0.55121,-0.46703 0.70709,-0.72019c0.15588,-0.25191 0.26064,-0.50569 0.31426,-0.76134c0.05238,-0.25565 0.07857,-0.49571 0.07857,-0.72019v-1.74902M414.01343,193.54327l0.65471,-0.60795c0.18083,0.14341 0.37599,0.30242 0.5855,0.47701c0.20826,0.17459 0.40904,0.34606 0.60234,0.51442c0.1933,0.16835 0.3523,0.318 0.47701,0.44895l-0.69213,0.67342c-0.11224,-0.13718 -0.26189,-0.29306 -0.44895,-0.46765c-0.18706,-0.17459 -0.38472,-0.35417 -0.59298,-0.53874c-0.20951,-0.18332 -0.40468,-0.3498 -0.5855,-0.49945M411.84352,188.30556h4.07793v4.46141h-0.97272v-3.56351h-2.17926v3.60093h-0.92595z" fill="#ffffff" fill-rule="nonzero" stroke-width="1"/><path d="M249.2968,197.89431l0.64536,-0.64536c0.17459,0.13718 0.36165,0.28807 0.56118,0.45269c0.19953,0.16586 0.38784,0.32985 0.56492,0.49197c0.17833,0.16212 0.3205,0.31177 0.4265,0.44895l-0.67342,0.72954c-0.09977,-0.13718 -0.2357,-0.29182 -0.40779,-0.46391c-0.17085,-0.17085 -0.35417,-0.34669 -0.54996,-0.52751c-0.19704,-0.18083 -0.38597,-0.34295 -0.5668,-0.48636M249.94216,205.78829l-0.22447,-0.97272l0.24318,-0.35542l2.01091,-1.39361c0.01871,0.09353 0.04677,0.19766 0.08418,0.31239c0.03741,0.11598 0.07794,0.22821 0.12159,0.33671c0.04365,0.10974 0.08106,0.19891 0.11224,0.2675c-0.46765,0.33047 -0.84489,0.60171 -1.13172,0.81372c-0.28683,0.212 -0.50943,0.38036 -0.66781,0.50506c-0.15963,0.12471 -0.27997,0.22447 -0.36103,0.2993c-0.08106,0.07482 -0.14341,0.13718 -0.18706,0.18706M248.54855,200.03616h2.02961v0.99142h-2.02961v-0.99142M251.607,200.12969h5.58377v1.04754h-5.58377v-1.04754M253.8985,197.17413h1.06625v8.69834h-1.06625v-8.69834M249.94216,205.78829c-0.02494,-0.08729 -0.06672,-0.19018 -0.12533,-0.30865c-0.05986,-0.11847 -0.12221,-0.23383 -0.18706,-0.34606c-0.0661,-0.11224 -0.13032,-0.20265 -0.19267,-0.27124c0.106,-0.07482 0.21699,-0.18581 0.33297,-0.33297c0.11473,-0.14591 0.1721,-0.32175 0.1721,-0.52751v-3.96569h1.01948v4.75135c0,0 -0.03429,0.02307 -0.10288,0.06921c-0.06859,0.04739 -0.15277,0.10662 -0.25253,0.17771c-0.09977,0.07233 -0.19953,0.15339 -0.2993,0.24318c-0.09977,0.09104 -0.18519,0.1802 -0.25627,0.2675c-0.07233,0.08729 -0.1085,0.16835 -0.1085,0.24318zM258.73403,197.41731h6.90255v0.72954h-6.90255v-0.72954M259.14556,201.18659h6.94932v0.69213h-6.94932v-0.69213M259.99669,202.17801h5.58377v0.60795h-5.58377v-0.60795M259.12686,203.10397h7.32344v0.67342h-7.32344v-0.67342M259.36069,199.46563h1.97349v0.52377h-1.97349v-0.52377M259.15492,200.32611h2.18861v0.51442h-2.18861v-0.51442M263.00838,200.32611h2.21667v0.51442h-2.21667v-0.51442M263.00838,199.46563h1.9922v0.52377h-1.9922v-0.52377M261.67089,197.72596h0.99142v3.27357h-0.99142v-3.27357M258.13544,198.52097h8.11845v1.63678h-0.97272v-1.03819h-6.21978v1.03819h-0.92595v-1.63678M258.69662,201.18659h0.93531v1.29072c0,0.26189 -0.01559,0.54372 -0.04677,0.84552c-0.03118,0.30304 -0.08854,0.61044 -0.1721,0.92221c-0.0848,0.31177 -0.20327,0.61231 -0.35542,0.90163c-0.15339,0.29057 -0.35167,0.55432 -0.59485,0.79127c-0.04988,-0.06235 -0.11847,-0.13593 -0.20577,-0.22073c-0.08729,-0.08355 -0.17895,-0.16461 -0.27498,-0.24318c-0.09727,-0.07732 -0.18332,-0.13468 -0.25814,-0.1721c0.29306,-0.28059 0.50818,-0.58613 0.64536,-0.9166c0.13718,-0.33047 0.22634,-0.66282 0.2675,-0.99704c0.03991,-0.33297 0.05986,-0.64287 0.05986,-0.92969v-1.27202M262.99902,203.45938c0.18706,0.30553 0.45206,0.55931 0.79501,0.76134c0.34295,0.20327 0.75323,0.36227 1.23086,0.47701c0.47638,0.11598 1.00764,0.19267 1.59376,0.23009c-0.08729,0.08729 -0.17771,0.20577 -0.27124,0.35542c-0.09353,0.14965 -0.16835,0.28683 -0.22447,0.41153c-0.64224,-0.06859 -1.21403,-0.18706 -1.71535,-0.35542c-0.50257,-0.16835 -0.93468,-0.3947 -1.29633,-0.67903c-0.36165,-0.28309 -0.66095,-0.6304 -0.89789,-1.04193l0.78566,-0.159M265.17828,203.70256l0.73889,0.37412c-0.22447,0.14965 -0.46142,0.28807 -0.71083,0.41528c-0.24942,0.12845 -0.47701,0.23944 -0.68277,0.33297l-0.60795,-0.33671c0.13718,-0.07482 0.28184,-0.15776 0.43398,-0.24879c0.15339,-0.08979 0.30366,-0.18332 0.45082,-0.28059c0.14591,-0.09602 0.27186,-0.18145 0.37786,-0.25627M260.07152,205.87247l-0.04677,-0.65471l0.39283,-0.27124l2.58144,-0.36477c-0.02494,0.11224 -0.04677,0.24131 -0.06547,0.38722c-0.01871,0.14715 -0.02806,0.2675 -0.02806,0.36103c-0.57365,0.09353 -1.03632,0.1696 -1.38799,0.22821c-0.35292,0.05986 -0.62603,0.1085 -0.81933,0.14591c-0.1933,0.03741 -0.33359,0.06859 -0.42089,0.09353c-0.08729,0.02494 -0.15588,0.04988 -0.20577,0.07482M260.07152,205.87247c-0.02494,-0.07482 -0.06235,-0.16087 -0.11224,-0.25814c-0.04988,-0.09602 -0.10413,-0.19267 -0.16274,-0.28994c-0.05986,-0.09602 -0.11473,-0.17521 -0.16461,-0.23757c0.106,-0.05612 0.22011,-0.15152 0.34232,-0.2862c0.12097,-0.13344 0.18145,-0.30616 0.18145,-0.51816v-0.89789l0.97272,0.01871v1.52455c0,0 -0.03554,0.02182 -0.10662,0.06547c-0.07233,0.04365 -0.15963,0.10288 -0.26189,0.17771c-0.10351,0.07482 -0.20826,0.15277 -0.31426,0.23383c-0.106,0.08106 -0.19454,0.16337 -0.26563,0.24692c-0.07233,0.0848 -0.1085,0.15838 -0.1085,0.22073zM269.15333,199.81169h6.53778v0.79501h-6.53778v-0.79501M269.23751,202.53343h5.2003v0.79501h-5.2003v-0.79501M270.48147,199.13827h0.95401v2.19797h1.87061v-2.19797h0.98207v2.96492h-3.80669v-2.96492M274.17592,202.53343h0.19641l0.17771,-0.03741l0.62665,0.32736c-0.25565,0.48636 -0.58924,0.90226 -1.00078,1.2477c-0.41153,0.34669 -0.87919,0.63538 -1.40296,0.86609c-0.52377,0.23071 -1.08807,0.41465 -1.6929,0.55183c-0.60483,0.13718 -1.2346,0.24318 -1.88932,0.318c-0.03741,-0.11847 -0.09478,-0.26064 -0.1721,-0.4265c-0.07857,-0.16461 -0.15838,-0.30304 -0.23944,-0.41528c0.5986,-0.04365 1.17848,-0.12034 1.73967,-0.23009c0.56118,-0.1085 1.08059,-0.25316 1.55822,-0.43398c0.47638,-0.18083 0.8954,-0.40717 1.25705,-0.67903c0.36165,-0.27061 0.64224,-0.58987 0.84177,-0.95775v-0.13094M270.79947,203.14138c0.30553,0.36165 0.7127,0.6703 1.22151,0.92595c0.50756,0.25565 1.09493,0.45955 1.76212,0.61169c0.66718,0.15339 1.38425,0.25814 2.1512,0.31426c-0.06859,0.06859 -0.1403,0.15588 -0.21512,0.26189c-0.07482,0.106 -0.14466,0.212 -0.20951,0.318c-0.0661,0.106 -0.11785,0.20265 -0.15526,0.28994c-0.79813,-0.08106 -1.53827,-0.22011 -2.22042,-0.41715c-0.6834,-0.19579 -1.29322,-0.45768 -1.82946,-0.78566c-0.53624,-0.32673 -0.99142,-0.72393 -1.36555,-1.19158l0.86048,-0.32736M268.42379,197.97849h7.36085v0.93531h-7.36085v-0.93531M267.95614,197.97849h0.99142v2.50662c0,0.38659 -0.0106,0.81185 -0.0318,1.27576c-0.02245,0.46516 -0.06485,0.94092 -0.1272,1.42728c-0.06235,0.48636 -0.15277,0.95713 -0.27124,1.41231c-0.11847,0.45518 -0.27436,0.87295 -0.46765,1.25331c-0.06859,-0.04988 -0.159,-0.10288 -0.27124,-0.159c-0.11224,-0.05612 -0.22572,-0.11099 -0.34045,-0.16461c-0.11598,-0.05238 -0.21761,-0.08792 -0.30491,-0.10662c0.18706,-0.36165 0.33671,-0.75323 0.44895,-1.17474c0.11224,-0.42026 0.19517,-0.85175 0.24879,-1.29446c0.05238,-0.44271 0.08667,-0.87482 0.10288,-1.29633c0.01496,-0.42026 0.02245,-0.8081 0.02245,-1.16352v-2.51597M271.22971,197.30507l1.01013,-0.23383c0.106,0.19953 0.2039,0.41777 0.29369,0.65471c0.09104,0.23694 0.15526,0.43959 0.19267,0.60795l-1.0756,0.26189c-0.02494,-0.17459 -0.07794,-0.38348 -0.159,-0.62665c-0.08106,-0.24318 -0.16835,-0.46454 -0.26189,-0.66407z" fill="#ffffff" fill-rule="nonzero" stroke-width="1"/></g></g></svg>