<svg version="1.1" xmlns="http://www.w3.org/2000/svg" xmlns:xlink="http://www.w3.org/1999/xlink" width="151.1015" height="43.534" viewBox="0,0,151.1015,43.534"><g transform="translate(-240,-180)"><g stroke="none" stroke-miterlimit="10"><path d="M248.33089,180h134.43972c4.61531,0 8.33089,3.568 8.33089,8v27.534c0,4.432 -3.71558,8 -8.33089,8h-134.43972c-4.61531,0 -8.33089,-3.568 -8.33089,-8v-27.534c0,-4.432 3.71558,-8 8.33089,-8z" fill-opacity="0.7" fill="#000000" fill-rule="evenodd" stroke-width="0"/><path d="M245.76816,189.4778h7.10592v0.82422h-7.10592v-0.82422M248.34485,192.0625h4.20113v0.79221h-4.20113v-0.79221M248.03277,194.80724h4.8173v0.80022h-4.8173v-0.80022M250.02531,190.67012h0.86423v4.56923h-0.86423v-4.56923M248.32085,188.33349l0.89624,0.20806c-0.19205,0.63484 -0.43585,1.26007 -0.7314,1.87571c-0.29661,0.6167 -0.65298,1.19179 -1.06909,1.72527c-0.41611,0.53348 -0.90424,0.99493 -1.46439,1.38437c-0.02667,-0.08002 -0.06508,-0.17071 -0.11523,-0.27207c-0.05121,-0.10136 -0.10349,-0.20165 -0.15684,-0.30088c-0.05335,-0.09816 -0.10136,-0.18192 -0.14404,-0.25127c0.36276,-0.23473 0.69085,-0.51907 0.98427,-0.85303c0.29341,-0.33289 0.55642,-0.69405 0.78901,-1.08349c0.23153,-0.38944 0.43158,-0.79115 0.60016,-1.20512c0.16751,-0.41291 0.30462,-0.82209 0.41131,-1.22753M246.72842,191.67039h0.86423v4.11311h-0.86423zM258.29954,188.33349h0.80822v5.62552h-0.80822v-5.62552M255.88289,191.57437l4.19313,-1.77648l0.32009,0.7362l-4.19313,1.80049l-0.32009,-0.7602M256.69911,189.1017h0.81622v5.23341c0,0.14937 0.01334,0.26247 0.04001,0.33929c0.02667,0.07789 0.08269,0.13017 0.16805,0.15684c0.08536,0.02667 0.21072,0.04001 0.3761,0.04001c0.04801,0 0.12643,0 0.23526,0c0.1099,0 0.2342,0 0.3729,0c0.1387,0 0.27901,0 0.42091,0c0.14084,0 0.26887,0 0.3841,0c0.11416,0 0.19792,0 0.25127,0c0.14937,0 0.2614,-0.02827 0.33609,-0.08482c0.07469,-0.05548 0.1307,-0.15791 0.16805,-0.30728c0.03734,-0.14937 0.06402,-0.36543 0.08002,-0.64817c0.09603,0.06935 0.21766,0.13337 0.3649,0.19205c0.14617,0.05868 0.27794,0.09869 0.39531,0.12003c-0.03734,0.37877 -0.09869,0.67592 -0.18405,0.89144c-0.08536,0.21659 -0.21339,0.3713 -0.3841,0.46413c-0.17071,0.09389 -0.40811,0.14084 -0.71219,0.14084c-0.05335,0 -0.13977,0 -0.25927,0c-0.12057,0 -0.2582,0 -0.41291,0c-0.15471,0 -0.30835,0 -0.46092,0c-0.15151,0 -0.28701,0 -0.40651,0c-0.12057,0 -0.20486,0 -0.25287,0c-0.34143,0 -0.61083,-0.03734 -0.80822,-0.11203c-0.19739,-0.07469 -0.33502,-0.20699 -0.41291,-0.39691c-0.07682,-0.18885 -0.11523,-0.45666 -0.11523,-0.80342v-5.22541M259.91597,189.89391h-0.06402l0.16004,-0.12003l0.16004,-0.10403l0.59216,0.21606l-0.03201,0.14404c0,0.37877 -0.00107,0.7266 -0.0032,1.04348c-0.0032,0.31795 -0.00587,0.59963 -0.008,0.84503c-0.0032,0.2454 -0.00854,0.45079 -0.016,0.61617c-0.00854,0.16538 -0.01814,0.28808 -0.02881,0.3681c-0.016,0.18138 -0.05868,0.32115 -0.12803,0.41931c-0.06935,0.09923 -0.16805,0.17018 -0.29608,0.21286c-0.11203,0.04801 -0.24433,0.07575 -0.39691,0.08322c-0.15151,0.00854 -0.28861,0.0128 -0.41131,0.0128c-0.01067,-0.1067 -0.03361,-0.231 -0.06882,-0.3729c-0.03414,-0.14084 -0.07255,-0.2566 -0.11523,-0.34729c0.07469,0.00534 0.15471,0.008 0.24006,0.008c0.08536,0 0.14671,0 0.18405,0c0.05335,0 0.09603,-0.01227 0.12803,-0.03681c0.03201,-0.02347 0.05335,-0.07255 0.06402,-0.14724c0.01067,-0.04268 0.01867,-0.13497 0.02401,-0.27687c0.00534,-0.14084 0.0096,-0.32862 0.0128,-0.56335c0.00213,-0.23473 0.0032,-0.51907 0.0032,-0.85303c0,-0.33289 0,-0.71539 0,-1.14751M253.60227,190.214h2.61671v0.80822h-2.61671v-0.80822M254.56253,188.43752h0.80822v5.27342h-0.80822v-5.27342M253.50625,193.77496c0.21873,-0.08002 0.47373,-0.17765 0.76501,-0.29288c0.29021,-0.11416 0.59696,-0.23953 0.92025,-0.3761c0.32222,-0.1355 0.64604,-0.26994 0.97146,-0.40331l0.19205,0.7602c-0.42678,0.20806 -0.85997,0.41451 -1.29955,0.61937c-0.44065,0.20592 -0.84236,0.39157 -1.20512,0.55695zM261.91651,188.65358h6.80984v7.15393h-0.86423v-6.37772h-5.12138v6.37772h-0.82422v-7.15393M262.42065,194.75122h5.91359v0.7522h-5.91359v-0.7522M264.22113,192.94274l0.34409,-0.48813c0.22406,0.04268 0.45719,0.09709 0.69939,0.16324c0.24327,0.06722 0.47693,0.13817 0.70099,0.21286c0.22406,0.07469 0.41611,0.14937 0.57616,0.22406l-0.35209,0.53614c-0.15471,-0.07469 -0.34409,-0.15364 -0.56815,-0.23686c-0.22406,-0.08216 -0.45879,-0.15951 -0.70419,-0.23206c-0.2454,-0.07149 -0.47746,-0.13124 -0.69619,-0.17925M264.58923,189.4538l0.69619,0.24006c-0.14937,0.23473 -0.32809,0.46679 -0.53614,0.69619c-0.20806,0.2294 -0.42571,0.44279 -0.65298,0.64017c-0.22619,0.19739 -0.45132,0.37077 -0.67538,0.52014c-0.03734,-0.04801 -0.09229,-0.10403 -0.16484,-0.16805c-0.07149,-0.06402 -0.14297,-0.12803 -0.21446,-0.19205c-0.07255,-0.06402 -0.13817,-0.1147 -0.19685,-0.15204c0.33609,-0.19205 0.66151,-0.42838 0.97626,-0.70899c0.31475,-0.27954 0.57082,-0.57135 0.76821,-0.87544M266.70981,190.08597h0.14404l0.12003,-0.03201l0.48013,0.28808c-0.20806,0.32542 -0.47373,0.62523 -0.79701,0.89944c-0.32222,0.27527 -0.67805,0.52067 -1.06749,0.7362c-0.38944,0.21659 -0.79488,0.40331 -1.21633,0.56015c-0.42145,0.15791 -0.84289,0.28754 -1.26434,0.3889c-0.02667,-0.06402 -0.06135,-0.14137 -0.10403,-0.23206c-0.04268,-0.09069 -0.08962,-0.17765 -0.14084,-0.26087c-0.05015,-0.08216 -0.09923,-0.14991 -0.14724,-0.20325c0.39477,-0.07469 0.79488,-0.17605 1.20032,-0.30408c0.40544,-0.12803 0.78955,-0.28008 1.15231,-0.45612c0.36276,-0.17605 0.68712,-0.37077 0.97306,-0.58416c0.28488,-0.21339 0.50734,-0.44279 0.66738,-0.68819v-0.11203M264.37318,190.61411c0.23473,0.25073 0.53881,0.47853 0.91225,0.68338c0.37343,0.20592 0.78581,0.38624 1.23713,0.54095c0.45025,0.15471 0.91011,0.27207 1.37957,0.35209c-0.08002,0.07469 -0.16644,0.17445 -0.25927,0.29928c-0.09389,0.1259 -0.16751,0.23953 -0.22086,0.34089c-0.47479,-0.1067 -0.94159,-0.25233 -1.40038,-0.43692c-0.45879,-0.18352 -0.8845,-0.40224 -1.27714,-0.65618c-0.39157,-0.25287 -0.7234,-0.53401 -0.99547,-0.84343l0.62417,-0.28008M264.55723,190.08597h2.39265v0.64017h-2.84077l0.44812,-0.64017M263.46893,193.96701l0.3841,-0.56015c0.27207,0.02667 0.55588,0.06508 0.85143,0.11523c0.29661,0.05121 0.59163,0.10723 0.88504,0.16805c0.29341,0.06188 0.57082,0.1275 0.83222,0.19685c0.2614,0.06935 0.49347,0.1387 0.69619,0.20806l-0.3761,0.60816c-0.2614,-0.09603 -0.57776,-0.19205 -0.94906,-0.28808c-0.37023,-0.09603 -0.75807,-0.18405 -1.16351,-0.26407c-0.40544,-0.08002 -0.79221,-0.14137 -1.16031,-0.18405zM273.08753,190.79016h3.3209v0.86423h-3.3209v-0.86423M269.68661,194.55117h7.27396v0.86423h-7.27396v-0.86423M272.59939,188.43752h0.92025v6.58578h-0.92025zM279.46524,190.62211v0.61617h3.68899v-0.61617h-3.68899M279.46524,189.37377v0.61617h3.68899v-0.61617h-3.68899M278.62502,188.7096h5.40946v3.20086h-5.40946v-3.20086M277.58474,194.62319h7.47402v0.81622h-7.47402v-0.81622M279.98539,192.18253h0.81622v2.88878h-0.81622v-2.88878M281.80187,192.18253h0.81622v2.88878h-0.81622v-2.88878M283.78641,192.35858l0.7282,0.32809c-0.15471,0.27741 -0.32702,0.55748 -0.51694,0.84023c-0.18885,0.28274 -0.36597,0.52548 -0.53134,0.7282l-0.65618,-0.30408c0.11203,-0.14404 0.2278,-0.30675 0.34729,-0.48813c0.12057,-0.18138 0.23846,-0.3681 0.3537,-0.56015c0.11416,-0.19205 0.20592,-0.37343 0.27527,-0.54415M278.1929,192.70267l0.66418,-0.28808c0.09603,0.16538 0.19739,0.34249 0.30408,0.53134c0.1067,0.18992 0.20646,0.3729 0.29928,0.54895c0.09389,0.17605 0.16751,0.33076 0.22086,0.46413l-0.69619,0.33609c-0.05335,-0.1387 -0.1243,-0.30035 -0.21286,-0.48493c-0.08749,-0.18352 -0.18085,-0.3729 -0.28008,-0.56815c-0.09816,-0.19419 -0.19792,-0.37397 -0.29928,-0.53935zM288.87578,191.27829h0.94425v3.49694c0,0.2454 -0.03361,0.43585 -0.10083,0.57135c-0.06615,0.13657 -0.18725,0.23953 -0.3633,0.30888c-0.17605,0.06402 -0.39211,0.10509 -0.64817,0.12323c-0.25607,0.01921 -0.56015,0.02881 -0.91225,0.02881c-0.02134,-0.13337 -0.06135,-0.28701 -0.12003,-0.46092c-0.05868,-0.17285 -0.12003,-0.32329 -0.18405,-0.45132c0.16004,0.00534 0.32169,0.01067 0.48493,0.016c0.16218,0.00534 0.30728,0.0064 0.43532,0.0032c0.12803,-0.00213 0.21606,-0.0032 0.26407,-0.0032c0.07469,0 0.12643,-0.01067 0.15524,-0.03201c0.02987,-0.02134 0.04481,-0.06135 0.04481,-0.12003v-3.48094M286.98727,192.30256l0.89624,0.23206c-0.11737,0.32009 -0.2614,0.63591 -0.43212,0.94746c-0.17071,0.31262 -0.35209,0.60496 -0.54415,0.87704c-0.19205,0.27207 -0.38677,0.50947 -0.58416,0.71219c-0.05868,-0.05335 -0.1371,-0.11203 -0.23526,-0.17605c-0.09923,-0.06402 -0.19792,-0.12803 -0.29608,-0.19205c-0.09923,-0.06402 -0.18618,-0.11203 -0.26087,-0.14404c0.29875,-0.27207 0.57776,-0.61083 0.83703,-1.01627c0.2582,-0.40544 0.46466,-0.81889 0.61937,-1.24033M290.72428,192.61465l0.80022,-0.33609c0.18672,0.25073 0.36917,0.52014 0.54735,0.80822c0.17925,0.28808 0.34196,0.57189 0.48813,0.85143c0.14724,0.28061 0.2582,0.53561 0.33289,0.76501l-0.88824,0.3841c-0.05868,-0.21873 -0.15631,-0.47106 -0.29288,-0.757c-0.1355,-0.28488 -0.28968,-0.57829 -0.46252,-0.88024c-0.17391,-0.30088 -0.34889,-0.57936 -0.52494,-0.83543M286.49114,188.86964h5.66553v0.85623h-5.66553v-0.85623M285.77094,190.80616h7.12192v0.85623h-7.12192zM296.38981,194.79123c0.34676,-0.016 0.7442,-0.03468 1.19232,-0.05602c0.44812,-0.02134 0.92292,-0.04801 1.42438,-0.08002c0.50147,-0.03201 1.00294,-0.06402 1.50441,-0.09603l-0.016,0.76821c-0.46946,0.03734 -0.94265,0.07469 -1.41958,0.11203c-0.478,0.03734 -0.93679,0.07042 -1.37637,0.09923c-0.44065,0.02987 -0.84236,0.05815 -1.20512,0.08482l-0.10403,-0.83222M299.51865,194.03103l0.70419,-0.27207c0.1227,0.18672 0.24433,0.38944 0.3649,0.60816c0.1195,0.21873 0.22726,0.43212 0.32329,0.64017c0.09603,0.20806 0.16805,0.39477 0.21606,0.56015l-0.7522,0.31208c-0.03734,-0.16538 -0.10136,-0.35476 -0.19205,-0.56815c-0.09069,-0.21339 -0.19312,-0.43212 -0.30728,-0.65618c-0.11523,-0.22406 -0.2342,-0.43212 -0.3569,-0.62417M297.4861,192.16653v0.89624h2.38464v-0.89624h-2.38464M296.7419,191.47034h3.90505v2.28862h-3.90505v-2.28862M297.69416,189.4618v0.72019h1.91252v-0.72019h-1.91252M296.91795,188.75761h3.50495v2.12857h-3.50495v-2.12857M298.26231,190.71814h0.81622v4.22514l-0.81622,0.02401v-4.24915M294.08519,192.37458h1.70446v0.76821h-1.70446v-0.76821M295.50157,192.37458h0.84023c0,0 -0.00107,0.01974 -0.0032,0.05922c-0.0032,0.04054 -0.00587,0.08749 -0.008,0.14084c-0.0032,0.05335 -0.00747,0.09869 -0.0128,0.13604c-0.02667,0.58682 -0.05975,1.06695 -0.09923,1.44039c-0.04054,0.37343 -0.08749,0.66418 -0.14084,0.87224c-0.05335,0.20806 -0.12003,0.35476 -0.20005,0.44012c-0.08536,0.09603 -0.17445,0.16378 -0.26727,0.20325c-0.09389,0.04054 -0.20486,0.06882 -0.33289,0.08482c-0.1067,0.016 -0.2454,0.02401 -0.41611,0.02401c-0.17071,0 -0.35209,-0.00534 -0.54415,-0.016c-0.00534,-0.11737 -0.02934,-0.24967 -0.07202,-0.39691c-0.04268,-0.14617 -0.09869,-0.27527 -0.16805,-0.3873c0.17071,0.016 0.33076,0.02667 0.48013,0.03201c0.14937,0.00534 0.25874,0.008 0.32809,0.008c0.06402,0 0.11737,-0.00694 0.16004,-0.02081c0.04268,-0.0128 0.08269,-0.03788 0.12003,-0.07522c0.04801,-0.05335 0.09336,-0.16698 0.13604,-0.34089c0.04268,-0.17285 0.08002,-0.42732 0.11203,-0.76341c0.03201,-0.33609 0.06135,-0.77354 0.08802,-1.31235v-0.12803M293.93315,190.51808h0.7602c-0.02134,0.29341 -0.04801,0.60016 -0.08002,0.92025c-0.03201,0.32009 -0.06508,0.6279 -0.09923,0.92345c-0.03521,0.29661 -0.07149,0.55695 -0.10883,0.78101h-0.78421c0.04268,-0.2294 0.08429,-0.49507 0.12483,-0.79701c0.03948,-0.30088 0.07522,-0.6103 0.10723,-0.92825c0.03201,-0.31689 0.05868,-0.6167 0.08002,-0.89944M294.09319,190.51808h1.44039v-0.98427h-1.77648v-0.78421h2.56869v2.55269h-2.2326zM302.36742,188.57356h5.90559v0.62417h-5.90559v-0.62417M302.71951,191.79843h5.9456v0.59216h-5.9456v-0.59216M303.44771,192.64666h4.77729v0.52014h-4.77729v-0.52014M302.70351,193.43887h6.26569v0.57616h-6.26569v-0.57616M302.90356,190.32603h1.68846v0.44812h-1.68846v-0.44812M302.72752,191.06223h1.8725v0.44012h-1.8725v-0.44012M306.02441,191.06223h1.89651v0.44012h-1.89651v-0.44012M306.02441,190.32603h1.70446v0.44812h-1.70446v-0.44812M304.8801,188.83763h0.84823v2.80076h-0.84823v-2.80076M301.85528,189.51781h6.94587v1.40038h-0.83222v-0.88824h-5.32143v0.88824h-0.79221v-1.40038M302.33541,191.79843h0.80022v1.1043c0,0.22406 -0.01334,0.46519 -0.04001,0.7234c-0.02667,0.25927 -0.07575,0.52227 -0.14724,0.78901c-0.07255,0.26674 -0.17391,0.52387 -0.30408,0.77141c-0.13124,0.2486 -0.30088,0.47426 -0.50894,0.67698c-0.04268,-0.05335 -0.10136,-0.1163 -0.17605,-0.18885c-0.07469,-0.07149 -0.15311,-0.14084 -0.23526,-0.20806c-0.08322,-0.06615 -0.15684,-0.11523 -0.22086,-0.14724c0.25073,-0.24006 0.43478,-0.50147 0.55215,-0.78421c0.11737,-0.28274 0.19365,-0.56709 0.22886,-0.85303c0.03414,-0.28488 0.05121,-0.55001 0.05121,-0.79541v-1.08829M306.0164,193.74295c0.16004,0.2614 0.38677,0.47853 0.68018,0.65138c0.29341,0.17391 0.64444,0.30995 1.05308,0.40811c0.40758,0.09923 0.8621,0.16484 1.36357,0.19685c-0.07469,0.07469 -0.15204,0.17605 -0.23206,0.30408c-0.08002,0.12803 -0.14404,0.2454 -0.19205,0.35209c-0.54948,-0.05868 -1.03868,-0.16004 -1.4676,-0.30408c-0.42998,-0.14404 -0.79968,-0.33769 -1.1091,-0.58096c-0.30942,-0.2422 -0.56549,-0.53935 -0.76821,-0.89144l0.67218,-0.13604M307.88091,193.95101l0.63217,0.32009c-0.19205,0.12803 -0.39477,0.24647 -0.60816,0.3553c-0.21339,0.1099 -0.40811,0.20486 -0.58416,0.28488l-0.52014,-0.28808c0.11737,-0.06402 0.24167,-0.13497 0.3729,-0.21286c0.13017,-0.07682 0.2582,-0.15684 0.3841,-0.24006c0.12483,-0.08216 0.2326,-0.15524 0.32329,-0.21926M303.51173,195.80751l-0.04001,-0.56015l0.33609,-0.23206l2.2086,-0.31208c-0.02134,0.09603 -0.04001,0.20646 -0.05602,0.33129c-0.016,0.1259 -0.02401,0.22886 -0.02401,0.30888c-0.4908,0.08002 -0.88664,0.14511 -1.18752,0.19525c-0.30195,0.05121 -0.53561,0.09283 -0.70099,0.12483c-0.16538,0.03201 -0.28541,0.05868 -0.3601,0.08002c-0.07469,0.02134 -0.13337,0.04268 -0.17605,0.06402M303.51173,195.80751c-0.02134,-0.06402 -0.05335,-0.13764 -0.09603,-0.22086c-0.04268,-0.08216 -0.08909,-0.16484 -0.13924,-0.24807c-0.05121,-0.08216 -0.09816,-0.14991 -0.14084,-0.20325c0.09069,-0.04801 0.18832,-0.12963 0.29288,-0.24487c0.10349,-0.11416 0.15524,-0.26194 0.15524,-0.44332v-0.76821l0.83222,0.016v1.30435c0,0 -0.03041,0.01867 -0.09122,0.05602c-0.06188,0.03734 -0.13657,0.08802 -0.22406,0.15204c-0.08856,0.06402 -0.17818,0.1307 -0.26887,0.20005c-0.09069,0.06935 -0.16644,0.13977 -0.22726,0.21126c-0.06188,0.07255 -0.09283,0.1355 -0.09283,0.18885zM314.13059,188.3495l0.84023,0.16805c-0.1067,0.42678 -0.2358,0.84129 -0.3873,1.24354c-0.15257,0.40331 -0.32489,0.77674 -0.51694,1.1203c-0.19205,0.34463 -0.39744,0.64764 -0.61617,0.90905c-0.04801,-0.04801 -0.11576,-0.10403 -0.20325,-0.16805c-0.08856,-0.06402 -0.17658,-0.12803 -0.26407,-0.19205c-0.08856,-0.06402 -0.16751,-0.11737 -0.23686,-0.16004c0.32009,-0.34143 0.5991,-0.77087 0.83703,-1.28835c0.23686,-0.51747 0.41931,-1.06162 0.54735,-1.63244M314.25863,189.42179h2.66472v0.77621h-3.00081l0.33609,-0.77621M309.68139,194.83925h7.32197v0.76821h-7.32197v-0.76821M310.52962,192.61465h5.68153v2.48867h-0.84023v-1.76848h-0.83222v1.76848h-0.78421v-1.76848h-0.82422v1.76848h-0.78421v-1.76848h-0.81622v1.76848h-0.80022v-2.48867M314.40266,190.9502l0.66418,-0.44812c0.17071,0.1227 0.34943,0.26247 0.53614,0.41931c0.18672,0.15791 0.3617,0.31262 0.52494,0.46413c0.16218,0.15257 0.29395,0.29288 0.39531,0.42091l-0.69619,0.50414c-0.09603,-0.12803 -0.22246,-0.27207 -0.3793,-0.43212c-0.15791,-0.16004 -0.32755,-0.32169 -0.50894,-0.48493c-0.18138,-0.16218 -0.3601,-0.30995 -0.53614,-0.44332M311.79396,188.3495h0.85623v3.87304h-0.85623v-3.87304M310.21754,188.61357h0.83222v3.38491h-0.83222zM321.2045,194.45514l0.52014,-0.31208c0.12803,0.12803 0.25874,0.26674 0.39211,0.41611c0.13337,0.14937 0.25874,0.29715 0.3761,0.44332c0.11737,0.14724 0.21072,0.27687 0.28008,0.3889l-0.54415,0.3601c-0.06935,-0.11737 -0.16004,-0.25233 -0.27207,-0.40491c-0.11203,-0.15151 -0.23473,-0.30622 -0.3681,-0.46413c-0.13337,-0.15684 -0.2614,-0.29928 -0.3841,-0.42732M319.78812,188.77361h2.80876v5.15339h-0.67218v-4.53722h-1.4884v4.56923h-0.64817v-5.1854M324.14929,188.45353h0.68018v6.45774c0,0.20272 -0.02401,0.3601 -0.07202,0.47213c-0.04801,0.11203 -0.1307,0.19739 -0.24807,0.25607c-0.11737,0.05868 -0.27314,0.09709 -0.46733,0.11523c-0.19525,0.01921 -0.43692,0.02614 -0.725,0.02081c-0.016,-0.09069 -0.04535,-0.20539 -0.08802,-0.34409c-0.04268,-0.1387 -0.08802,-0.25874 -0.13604,-0.3601c0.19739,0.00534 0.38037,0.008 0.54895,0.008c0.16751,0 0.28328,0 0.34729,0c0.1067,0 0.16004,-0.05335 0.16004,-0.16004v-6.46574M323.053,189.06969h0.65618v4.88932h-0.65618v-4.88932M320.8444,189.86991h0.63217v3.00881c0,0.26674 -0.02134,0.53614 -0.06402,0.80822c-0.04268,0.27207 -0.1211,0.53881 -0.23526,0.80022c-0.11523,0.2614 -0.28328,0.50414 -0.50414,0.7282c-0.22193,0.22406 -0.5116,0.42145 -0.86903,0.59216c-0.02134,-0.04801 -0.05441,-0.1067 -0.09923,-0.17605c-0.04588,-0.06935 -0.09389,-0.13764 -0.14404,-0.20486c-0.05121,-0.06615 -0.09549,-0.11523 -0.13284,-0.14724c0.32009,-0.14937 0.57509,-0.31635 0.76501,-0.50094c0.18885,-0.18352 0.33022,-0.3793 0.42411,-0.58736c0.09283,-0.20806 0.15418,-0.42411 0.18405,-0.64817c0.02881,-0.22406 0.04321,-0.44812 0.04321,-0.67218v-3.00081M317.89961,189.02968l0.50414,-0.62417c0.1387,0.06935 0.29235,0.15204 0.46092,0.24807c0.16751,0.09603 0.33022,0.19205 0.48813,0.28808c0.15684,0.09603 0.28328,0.18405 0.3793,0.26407l-0.52814,0.69619c-0.09069,-0.08536 -0.21072,-0.18032 -0.3601,-0.28488c-0.14937,-0.10349 -0.30782,-0.20592 -0.47533,-0.30728c-0.16858,-0.10136 -0.32489,-0.19472 -0.46893,-0.28008M317.57952,191.17426l0.48013,-0.61617c0.14404,0.06935 0.30035,0.14937 0.46893,0.24006c0.16751,0.09069 0.32862,0.18138 0.48333,0.27207c0.15471,0.09069 0.28541,0.17338 0.39211,0.24807l-0.51214,0.68819c-0.09069,-0.08002 -0.21339,-0.16965 -0.3681,-0.26887c-0.15471,-0.09816 -0.31475,-0.19685 -0.48013,-0.29608c-0.16538,-0.09816 -0.32009,-0.18725 -0.46413,-0.26727M317.72356,195.27136c0.10136,-0.20806 0.21339,-0.45346 0.33609,-0.7362c0.1227,-0.28274 0.2454,-0.58309 0.3681,-0.90104c0.1227,-0.31689 0.2374,-0.62737 0.34409,-0.93145l0.68819,0.44012c-0.09069,0.28274 -0.18938,0.57349 -0.29608,0.87224c-0.1067,0.29875 -0.21712,0.59216 -0.33129,0.88024c-0.11523,0.28808 -0.22619,0.56015 -0.33289,0.81622zM329.0066,188.92565c0.1227,0.74687 0.28808,1.44306 0.49613,2.08856c0.20806,0.64551 0.47373,1.23073 0.79701,1.75567c0.32222,0.52601 0.71646,0.98373 1.18272,1.37317c0.46733,0.38944 1.01841,0.70152 1.65325,0.93625c-0.06402,0.05335 -0.13497,0.12537 -0.21286,0.21606c-0.07682,0.09069 -0.15097,0.18245 -0.22246,0.27527c-0.07255,0.09389 -0.13017,0.17818 -0.17285,0.25287c-0.67218,-0.27741 -1.251,-0.6295 -1.73647,-1.05628c-0.48546,-0.42678 -0.89517,-0.92718 -1.22913,-1.5012c-0.33289,-0.57295 -0.6087,-1.21153 -0.82742,-1.91572c-0.21873,-0.70419 -0.40011,-1.4724 -0.54415,-2.30462l0.81622,-0.12003M329.62277,188.82963l0.68018,-0.34409c0.11203,0.16004 0.22406,0.33342 0.33609,0.52014c0.11203,0.18672 0.21339,0.36917 0.30408,0.54735c0.09069,0.17925 0.16004,0.34089 0.20806,0.48493l-0.72019,0.39211c-0.04268,-0.14404 -0.1067,-0.30675 -0.19205,-0.48813c-0.08536,-0.18138 -0.18245,-0.37077 -0.29128,-0.56815c-0.1099,-0.19739 -0.21819,-0.37877 -0.32489,-0.54415M331.90338,188.81362l0.85623,0.14404c-0.1387,0.77354 -0.31742,1.50441 -0.53614,2.19259c-0.21873,0.68819 -0.50414,1.32569 -0.85623,1.91252c-0.35209,0.58682 -0.79755,1.11337 -1.33636,1.57963c-0.53881,0.46733 -1.19766,0.85837 -1.97653,1.17312c-0.03734,-0.06402 -0.08642,-0.13764 -0.14724,-0.22086c-0.06188,-0.08216 -0.1259,-0.16324 -0.19205,-0.24327c-0.06722,-0.08002 -0.1275,-0.14671 -0.18085,-0.20005c0.74153,-0.28274 1.3673,-0.63644 1.87731,-1.06109c0.50894,-0.42358 0.92612,-0.90905 1.25154,-1.45639c0.32542,-0.54628 0.58416,-1.14111 0.77621,-1.78448c0.19205,-0.64231 0.34676,-1.32089 0.46413,-2.03575M327.32615,188.3655l0.80822,0.24807c-0.17071,0.45346 -0.37343,0.90531 -0.60816,1.35557c-0.23473,0.45132 -0.4892,0.8781 -0.76341,1.28035c-0.27527,0.40331 -0.55695,0.757 -0.84503,1.06109c-0.02667,-0.06935 -0.06668,-0.16004 -0.12003,-0.27207c-0.05335,-0.11203 -0.11203,-0.22566 -0.17605,-0.34089c-0.06402,-0.11416 -0.12003,-0.20592 -0.16805,-0.27527c0.25073,-0.2454 0.4924,-0.53241 0.725,-0.86103c0.23153,-0.32755 0.44599,-0.67805 0.64337,-1.05148c0.19739,-0.37343 0.36543,-0.75487 0.50414,-1.14431M326.53394,190.53409l0.80822,-0.81622l0.008,0.008v6.06564h-0.81622zM334.45607,189.62984h2.44866v5.34544h-2.44866v-0.7602h1.66445v-3.83303h-1.66445v-0.7522M333.95194,189.62984h0.78421v5.95361h-0.78421v-5.95361M334.41606,191.79043h2.09657v0.7442h-2.09657v-0.7442M335.11225,188.32549l0.93625,0.14404c-0.08536,0.2614 -0.17605,0.52387 -0.27207,0.78741c-0.09603,0.2646 -0.18405,0.49027 -0.26407,0.67698l-0.68819,-0.16004c0.03734,-0.13337 0.07629,-0.28541 0.11683,-0.45612c0.03948,-0.17071 0.07522,-0.34303 0.10723,-0.51694c0.03201,-0.17285 0.05335,-0.33129 0.06402,-0.47533M337.98502,189.58183h2.37664v0.78421h-2.37664v-0.78421M340.05758,189.58183h0.80022c0,0 0,0.02507 0,0.07522c0,0.05121 0,0.10723 0,0.16805c0,0.06188 -0.00267,0.1115 -0.008,0.14884c-0.02667,0.90691 -0.05495,1.67512 -0.08482,2.30462c-0.02881,0.6295 -0.06295,1.14698 -0.10243,1.55242c-0.04054,0.40544 -0.08749,0.72126 -0.14084,0.94746c-0.05335,0.22726 -0.1227,0.39424 -0.20806,0.50094c-0.1067,0.14404 -0.21606,0.24273 -0.32809,0.29608c-0.11203,0.05335 -0.24807,0.09336 -0.40811,0.12003c-0.14404,0.016 -0.32809,0.02401 -0.55215,0.02401c-0.22406,0 -0.45346,-0.00534 -0.68819,-0.016c-0.00534,-0.11737 -0.03308,-0.25607 -0.08322,-0.41611c-0.05121,-0.16004 -0.1195,-0.29875 -0.20486,-0.41611c0.2614,0.02134 0.50147,0.03468 0.72019,0.04001c0.21873,0.00534 0.37877,0.008 0.48013,0.008c0.08002,0 0.14511,-0.0096 0.19525,-0.02881c0.05121,-0.01814 0.10349,-0.05388 0.15684,-0.10723c0.06402,-0.07469 0.12003,-0.22033 0.16805,-0.43692c0.04801,-0.21552 0.08802,-0.52067 0.12003,-0.91545c0.03201,-0.39477 0.06295,-0.89624 0.09283,-1.50441c0.02881,-0.60816 0.05388,-1.33369 0.07522,-2.17659v-0.16805M338.04904,188.32549l0.82422,0.19205c-0.10136,0.39477 -0.22246,0.78528 -0.3633,1.17152c-0.1419,0.3873 -0.29821,0.75167 -0.46893,1.09309c-0.17071,0.34143 -0.34676,0.64017 -0.52814,0.89624c-0.05335,-0.04801 -0.1227,-0.10403 -0.20806,-0.16805c-0.08536,-0.06402 -0.17338,-0.12697 -0.26407,-0.18885c-0.09069,-0.06082 -0.16805,-0.10723 -0.23206,-0.13924c0.17605,-0.2294 0.34303,-0.49773 0.50094,-0.80502c0.15684,-0.30622 0.29821,-0.63537 0.42411,-0.98747c0.12483,-0.35209 0.22993,-0.70686 0.31529,-1.06429M337.66494,191.82243l0.67218,-0.3761c0.13337,0.18138 0.27741,0.3825 0.43212,0.60336c0.15471,0.22193 0.29981,0.43532 0.43532,0.64017c0.13657,0.20592 0.24487,0.3889 0.32489,0.54895l-0.7282,0.44812c-0.07469,-0.16538 -0.17605,-0.35476 -0.30408,-0.56815c-0.12803,-0.21339 -0.26567,-0.43372 -0.41291,-0.66098c-0.14617,-0.22619 -0.28594,-0.43798 -0.41931,-0.63537zM345.45104,188.82963h3.50495v0.65618h-3.50495v-0.65618M346.93944,189.24574l0.67218,0.15204c-0.08002,0.21873 -0.16004,0.43212 -0.24006,0.64017c-0.08002,0.20806 -0.15738,0.38944 -0.23206,0.54415l-0.60016,-0.16004c0.07469,-0.16004 0.15044,-0.35209 0.22726,-0.57616c0.07789,-0.22406 0.1355,-0.42411 0.17285,-0.60016M345.57907,190.27002h3.12084v3.73701h-0.68018v-3.12084h-1.78448v3.15285h-0.65618v-3.76902M346.82741,191.18226h0.64817c-0.00534,0.59749 -0.01974,1.12404 -0.04321,1.57963c-0.02454,0.45666 -0.07789,0.85143 -0.16004,1.18432c-0.08322,0.33396 -0.20859,0.61937 -0.3761,0.85623c-0.16858,0.23793 -0.39851,0.43958 -0.68979,0.60496c-0.29021,0.16538 -0.65671,0.30408 -1.0995,0.41611c-0.02667,-0.08536 -0.07735,-0.18672 -0.15204,-0.30408c-0.07469,-0.11737 -0.14671,-0.21072 -0.21606,-0.28008c0.40544,-0.09069 0.73887,-0.20272 1.00027,-0.33609c0.2614,-0.13337 0.46573,-0.29875 0.61297,-0.49613c0.14617,-0.19739 0.25287,-0.44012 0.32009,-0.7282c0.06615,-0.28808 0.10883,-0.63751 0.12803,-1.04828c0.01814,-0.41078 0.02721,-0.89357 0.02721,-1.44839M341.85006,189.1097h3.47294v0.70419h-3.47294v-0.70419M342.29819,190.82216h3.03282v0.70419h-3.03282v-0.70419M344.35474,189.8379l0.68819,0.16805c-0.09603,0.19739 -0.19312,0.39211 -0.29128,0.58416c-0.09923,0.19205 -0.19419,0.35743 -0.28488,0.49613l-0.63217,-0.15204c0.05868,-0.10136 0.12003,-0.21606 0.18405,-0.34409c0.06402,-0.12803 0.12643,-0.25874 0.18725,-0.39211c0.06188,-0.13337 0.1115,-0.2534 0.14884,-0.3601M342.37021,190.00594l0.65618,-0.20806c0.08536,0.13337 0.16431,0.28274 0.23686,0.44812c0.07149,0.16538 0.12323,0.30942 0.15524,0.43212l-0.68819,0.23206c-0.02667,-0.1227 -0.07309,-0.26941 -0.13924,-0.44012c-0.06722,-0.17071 -0.14084,-0.32542 -0.22086,-0.46413M341.9941,190.82216h0.7522v1.62444c0,0.2454 -0.00694,0.51214 -0.02081,0.80022c-0.0128,0.28808 -0.03788,0.58256 -0.07522,0.88344c-0.03734,0.30195 -0.09069,0.59696 -0.16004,0.88504c-0.06935,0.28808 -0.16271,0.55215 -0.28008,0.79221c-0.04801,-0.04268 -0.1131,-0.09069 -0.19525,-0.14404c-0.08322,-0.05335 -0.16751,-0.10296 -0.25287,-0.14884c-0.08536,-0.04481 -0.16004,-0.07789 -0.22406,-0.09923c0.1387,-0.29875 0.24113,-0.6231 0.30728,-0.97306c0.06722,-0.34889 0.10883,-0.69832 0.12483,-1.04828c0.016,-0.34889 0.02401,-0.66738 0.02401,-0.95546v-1.61644M344.46677,191.55036l0.69619,0.29608c-0.17071,0.16004 -0.3665,0.30782 -0.58736,0.44332c-0.22193,0.13657 -0.45399,0.25927 -0.69619,0.3681c-0.24327,0.1099 -0.48226,0.20219 -0.71699,0.27687c-0.05868,-0.08536 -0.13604,-0.18032 -0.23206,-0.28488c-0.09603,-0.10349 -0.19205,-0.18992 -0.28808,-0.25927c0.21873,-0.05868 0.44172,-0.1323 0.66898,-0.22086c0.22619,-0.08749 0.44225,-0.18458 0.64817,-0.29128c0.20486,-0.1067 0.37397,-0.21606 0.50734,-0.32809M344.59481,192.60665l0.67218,0.28808c-0.18138,0.20272 -0.39317,0.38944 -0.63537,0.56015c-0.24327,0.17071 -0.50094,0.32542 -0.77301,0.46413c-0.27207,0.1387 -0.54681,0.25607 -0.82422,0.35209c-0.05868,-0.09069 -0.13497,-0.19205 -0.22886,-0.30408c-0.09283,-0.11203 -0.18458,-0.20539 -0.27527,-0.28008c0.25073,-0.07469 0.50574,-0.16698 0.76501,-0.27687c0.2582,-0.10883 0.502,-0.2326 0.7314,-0.3713c0.2294,-0.1387 0.41878,-0.28274 0.56815,-0.43212M344.69083,193.75095l0.7442,0.32009c-0.19739,0.22406 -0.42678,0.43212 -0.68819,0.62417c-0.2614,0.19205 -0.54415,0.36276 -0.84823,0.51214c-0.30408,0.14937 -0.61617,0.27741 -0.93625,0.3841c-0.05868,-0.09069 -0.13764,-0.19472 -0.23686,-0.31208c-0.09816,-0.11737 -0.19259,-0.21339 -0.28328,-0.28808c0.28808,-0.08002 0.57616,-0.18298 0.86423,-0.30888c0.28808,-0.12483 0.55375,-0.26727 0.79701,-0.42732c0.2422,-0.16004 0.43798,-0.32809 0.58736,-0.50414M343.1064,188.50154l0.70419,-0.19205c0.07469,0.13337 0.14297,0.28274 0.20486,0.44812c0.06082,0.16538 0.10456,0.30942 0.13124,0.43212l-0.7442,0.21606c-0.016,-0.1227 -0.05335,-0.26941 -0.11203,-0.44012c-0.05868,-0.17071 -0.12003,-0.32542 -0.18405,-0.46413M347.25952,194.63119l0.44812,-0.46413c0.16538,0.1067 0.33609,0.2278 0.51214,0.3633c0.17605,0.13657 0.34143,0.27261 0.49613,0.40811c0.15471,0.13657 0.28008,0.26354 0.3761,0.3809l-0.46413,0.52014c-0.09069,-0.1227 -0.21179,-0.25607 -0.3633,-0.40011c-0.15257,-0.14404 -0.31689,-0.28701 -0.49293,-0.42892c-0.17605,-0.14084 -0.34676,-0.26727 -0.51214,-0.3793zM353.00507,190.83817h0.84023v2.12857h-0.84023v-2.12857M352.07682,188.97367h2.48867v0.76821h-2.87277l0.3841,-0.76821M354.32543,188.97367h0.20005l0.16805,-0.04801l0.55215,0.41611c-0.14404,0.20806 -0.30942,0.42678 -0.49613,0.65618c-0.18672,0.2294 -0.38144,0.44652 -0.58416,0.65138c-0.20272,0.20592 -0.40011,0.38624 -0.59216,0.54095c-0.05868,-0.08002 -0.1371,-0.16965 -0.23526,-0.26887c-0.09923,-0.09816 -0.18352,-0.17925 -0.25287,-0.24327c0.15471,-0.13337 0.31368,-0.29074 0.47693,-0.47213c0.16218,-0.18138 0.30995,-0.36543 0.44332,-0.55215c0.13337,-0.18672 0.24006,-0.35476 0.32009,-0.50414v-0.17605M350.58042,190.55809h0.83222v3.74501c0,0.16004 0.02401,0.28114 0.07202,0.3633c0.04801,0.08322 0.14564,0.13924 0.29288,0.16805c0.14617,0.02987 0.3633,0.04481 0.65138,0.04481c0.08536,0 0.22033,0 0.40491,0c0.18352,0 0.39424,0 0.63217,0c0.23686,0 0.47426,0 0.71219,0c0.23686,0 0.45292,0 0.64817,0c0.19419,0 0.34196,0 0.44332,0c0.2614,0 0.45612,-0.02934 0.58416,-0.08802c0.12803,-0.05868 0.21979,-0.17498 0.27527,-0.34889c0.05655,-0.17285 0.10349,-0.42732 0.14084,-0.76341c0.1067,0.06402 0.239,0.12537 0.39691,0.18405c0.15684,0.05868 0.29395,0.09869 0.41131,0.12003c-0.03734,0.32542 -0.09069,0.59589 -0.16004,0.81142c-0.06935,0.21659 -0.16805,0.3889 -0.29608,0.51694c-0.12803,0.12803 -0.29875,0.21873 -0.51214,0.27207c-0.21339,0.05335 -0.4828,0.08002 -0.80822,0.08002c-0.05868,0 -0.16111,0 -0.30728,0c-0.14724,0 -0.31795,0 -0.51214,0c-0.19525,0 -0.39957,0 -0.61297,0c-0.21339,0 -0.41718,0 -0.61136,0c-0.19525,0 -0.3649,0 -0.50894,0c-0.14404,0 -0.24273,0 -0.29608,0c-0.47479,0 -0.84983,-0.03734 -1.1251,-0.11203c-0.27421,-0.07469 -0.46733,-0.21072 -0.57936,-0.40811c-0.11203,-0.19739 -0.16805,-0.47746 -0.16805,-0.84023v-3.74501M352.05282,188.28548l0.78421,0.29608c-0.21873,0.39477 -0.47853,0.78154 -0.77941,1.16031c-0.30195,0.37877 -0.62523,0.72926 -0.96986,1.05148c-0.34356,0.32329 -0.69405,0.60496 -1.05148,0.84503c-0.02134,-0.06402 -0.05868,-0.14671 -0.11203,-0.24807c-0.05335,-0.10136 -0.11203,-0.20539 -0.17605,-0.31208c-0.06402,-0.1067 -0.12003,-0.19205 -0.16805,-0.25607c0.32009,-0.19205 0.63484,-0.42145 0.94425,-0.68819c0.30942,-0.26674 0.59643,-0.55748 0.86103,-0.87224c0.26354,-0.31475 0.486,-0.64017 0.66738,-0.97626M351.2526,190.55809h5.02535v2.9848h-0.84823v-2.19259h-4.17713v-0.79221M351.2526,192.4306h4.57723v0.81622h-4.57723zM361.07925,188.86164h3.52095v0.80022h-3.52095v-0.80022M360.71915,190.77415h4.31316v0.80022h-4.31316v-0.80022M362.32759,191.17426h0.87224v3.60097c0,0.21873 -0.02294,0.39317 -0.06882,0.52334c-0.04481,0.13124 -0.13924,0.2342 -0.28328,0.30888c-0.1387,0.06935 -0.30782,0.1131 -0.50734,0.13124c-0.20059,0.01921 -0.43692,0.02881 -0.70899,0.02881c-0.01067,-0.12803 -0.04001,-0.27634 -0.08802,-0.44492c-0.04801,-0.16751 -0.10136,-0.31529 -0.16004,-0.44332c0.17605,0.00534 0.34036,0.00907 0.49293,0.0112c0.15151,0.0032 0.25393,0.0048 0.30728,0.0048c0.05335,-0.00534 0.09069,-0.016 0.11203,-0.03201c0.02134,-0.016 0.03201,-0.05068 0.03201,-0.10403v-3.58497M363.54391,192.56663l0.71219,-0.24006c0.1227,0.26674 0.24113,0.55055 0.3553,0.85143c0.11523,0.30195 0.21712,0.59536 0.30568,0.88024c0.08749,0.28594 0.14724,0.53828 0.17925,0.757l-0.77621,0.28808c-0.03201,-0.22406 -0.08642,-0.48013 -0.16324,-0.76821c-0.07789,-0.28808 -0.17018,-0.58682 -0.27687,-0.89624c-0.1067,-0.30942 -0.21873,-0.60016 -0.33609,-0.87224M361.11926,192.35858l0.77621,0.17605c-0.08002,0.30942 -0.17605,0.61883 -0.28808,0.92825c-0.11203,0.30942 -0.23313,0.60123 -0.3633,0.87544c-0.13124,0.27527 -0.26621,0.51694 -0.40491,0.725c-0.04801,-0.04268 -0.1131,-0.09229 -0.19525,-0.14884c-0.08322,-0.05548 -0.16751,-0.1099 -0.25287,-0.16324c-0.08536,-0.05335 -0.16004,-0.09603 -0.22406,-0.12803c0.20806,-0.28274 0.39477,-0.62684 0.56015,-1.03228c0.16538,-0.40544 0.29608,-0.81622 0.39211,-1.23233M357.64632,189.94193h2.9688v0.80022h-2.9688v-0.80022M358.79063,188.33349h0.85623v7.46601h-0.85623v-7.46601M358.6866,190.47807l0.52814,0.16805c-0.05868,0.30408 -0.1307,0.6199 -0.21606,0.94746c-0.08536,0.32862 -0.18405,0.65138 -0.29608,0.96826c-0.11203,0.31795 -0.23313,0.61403 -0.3633,0.88824c-0.13124,0.27527 -0.26621,0.5116 -0.40491,0.70899c-0.02667,-0.08002 -0.06508,-0.17071 -0.11523,-0.27207c-0.05121,-0.10136 -0.10616,-0.20272 -0.16484,-0.30408c-0.05868,-0.10136 -0.1147,-0.18672 -0.16805,-0.25607c0.17605,-0.21873 0.34303,-0.48813 0.50094,-0.80822c0.15684,-0.32009 0.29555,-0.66044 0.41611,-1.02108c0.1195,-0.35956 0.21392,-0.69939 0.28328,-1.01947M359.60685,190.87818c0.04801,0.05335 0.1243,0.14137 0.22886,0.26407c0.10349,0.1227 0.21499,0.25874 0.33449,0.40811c0.12057,0.14937 0.23046,0.28541 0.32969,0.40811c0.09816,0.1227 0.16858,0.21072 0.21126,0.26407l-0.47213,0.68018c-0.04801,-0.1067 -0.11737,-0.23473 -0.20806,-0.3841c-0.09069,-0.14937 -0.18672,-0.30568 -0.28808,-0.46893c-0.10136,-0.16218 -0.19899,-0.31262 -0.29288,-0.45132c-0.09283,-0.1387 -0.17125,-0.25073 -0.23526,-0.33609zM369.65756,189.67786v2.10457h2.02455v-2.10457h-2.02455M368.80133,188.86164h3.77702v3.73701h-3.77702v-3.73701M371.12996,193.5349l0.80022,-0.28008c0.14937,0.2294 0.29608,0.47479 0.44012,0.7362c0.14404,0.2614 0.27367,0.51587 0.3889,0.76341c0.11416,0.2486 0.20059,0.47159 0.25927,0.66898l-0.86423,0.32809c-0.04801,-0.19205 -0.12643,-0.41611 -0.23526,-0.67218c-0.1099,-0.25607 -0.2326,-0.51907 -0.3681,-0.78901c-0.13657,-0.26887 -0.27687,-0.52067 -0.42091,-0.7554M369.32147,193.28683l0.88824,0.19205c-0.1387,0.44812 -0.32275,0.87757 -0.55215,1.28835c-0.2294,0.41078 -0.47746,0.7522 -0.7442,1.02428c-0.05335,-0.04268 -0.12697,-0.09603 -0.22086,-0.16004c-0.09283,-0.06402 -0.18725,-0.12537 -0.28328,-0.18405c-0.09603,-0.05868 -0.18138,-0.1067 -0.25607,-0.14404c0.2614,-0.24006 0.49347,-0.54041 0.69619,-0.90104c0.20272,-0.35956 0.3601,-0.7314 0.47213,-1.1155M366.04059,189.00567l0.56015,-0.52014c0.14404,0.11203 0.29768,0.24006 0.46092,0.3841c0.16218,0.14404 0.31795,0.28808 0.46733,0.43212c0.14937,0.14404 0.26941,0.27207 0.3601,0.3841l-0.58416,0.59216c-0.08536,-0.11737 -0.20005,-0.25073 -0.34409,-0.40011c-0.14404,-0.14937 -0.29715,-0.30035 -0.45932,-0.45292c-0.16324,-0.15151 -0.31689,-0.29128 -0.46092,-0.41931M366.72077,195.63946l-0.20806,-0.80822l0.16805,-0.28808l1.57643,-1.28835c0.02667,0.08002 0.06028,0.16644 0.10083,0.25927c0.03948,0.09389 0.08056,0.18458 0.12323,0.27207c0.04268,0.08856 0.08002,0.16218 0.11203,0.22086c-0.3681,0.30942 -0.66685,0.56015 -0.89624,0.7522c-0.2294,0.19205 -0.40918,0.34409 -0.53935,0.45612c-0.13124,0.11203 -0.22726,0.19845 -0.28808,0.25927c-0.06188,0.06188 -0.1115,0.11683 -0.14884,0.16484M365.68849,190.81416h1.46439v0.82422h-1.46439v-0.82422M366.72077,195.63946c-0.03201,-0.05868 -0.08162,-0.1243 -0.14884,-0.19685c-0.06615,-0.07149 -0.13284,-0.14084 -0.20005,-0.20806c-0.06615,-0.06615 -0.1259,-0.1179 -0.17925,-0.15524c0.06402,-0.05335 0.13497,-0.12803 0.21286,-0.22406c0.07682,-0.09603 0.1419,-0.20966 0.19525,-0.34089c0.05335,-0.13017 0.08002,-0.27527 0.08002,-0.43532v-3.26488h0.83222v3.705c0,0 -0.02667,0.02774 -0.08002,0.08322c-0.05335,0.05655 -0.12003,0.12857 -0.20005,0.21606c-0.08002,0.08856 -0.15844,0.18352 -0.23526,0.28488c-0.07789,0.10136 -0.14351,0.20005 -0.19685,0.29608c-0.05335,0.09603 -0.08002,0.17605 -0.08002,0.24006z" fill="#ffffff" fill-rule="nonzero" stroke-width="1"/><path d="M245.5361,201.3466c0,-0.55482 0.06935,-1.06695 0.20806,-1.53641c0.1387,-0.46946 0.32809,-0.89624 0.56815,-1.28035c0.24006,-0.3841 0.50947,-0.72286 0.80822,-1.01627l0.68018,0.31208c-0.27741,0.29341 -0.52548,0.61723 -0.7442,0.97146c-0.21873,0.3553 -0.39104,0.74367 -0.51694,1.16511c-0.12483,0.42145 -0.18725,0.8829 -0.18725,1.38437c0,0.49613 0.06242,0.95599 0.18725,1.37957c0.1259,0.42465 0.29821,0.81302 0.51694,1.16511c0.21873,0.35209 0.46679,0.67752 0.7442,0.97626l-0.68018,0.31208c-0.29875,-0.29875 -0.56815,-0.63911 -0.80822,-1.02108c-0.24006,-0.3809 -0.42945,-0.80608 -0.56815,-1.27554c-0.1387,-0.46946 -0.20806,-0.9816 -0.20806,-1.53641zM248.5049,199.122h2.77675v0.79221h-2.77675v-0.79221M249.65721,197.60959h0.77621v7.46601h-0.77621v-7.46601M249.64921,199.69016l0.47213,0.19205c-0.05868,0.32542 -0.13337,0.66258 -0.22406,1.01147c-0.09069,0.34996 -0.19365,0.69139 -0.30888,1.02428c-0.11416,0.33396 -0.23686,0.64337 -0.3681,0.92825c-0.13017,0.28594 -0.26727,0.53294 -0.41131,0.741c-0.02667,-0.08536 -0.06402,-0.18032 -0.11203,-0.28488c-0.04801,-0.10349 -0.10029,-0.20752 -0.15684,-0.31208c-0.05548,-0.10349 -0.10456,-0.19259 -0.14724,-0.26727c0.13337,-0.16538 0.26407,-0.3681 0.39211,-0.60816c0.12803,-0.24006 0.24807,-0.49613 0.3601,-0.76821c0.11203,-0.27207 0.21072,-0.55108 0.29608,-0.83703c0.08536,-0.28488 0.15471,-0.55802 0.20806,-0.81942M250.40141,200.17829c0.04268,0.05335 0.11043,0.14777 0.20325,0.28328c0.09389,0.13657 0.19259,0.28594 0.29608,0.44812c0.10456,0.16324 0.20112,0.31422 0.28968,0.45292c0.08749,0.1387 0.14724,0.2374 0.17925,0.29608l-0.49613,0.58416c-0.04268,-0.11203 -0.10136,-0.24807 -0.17605,-0.40811c-0.07469,-0.16004 -0.15471,-0.32702 -0.24006,-0.50094c-0.08536,-0.17285 -0.16644,-0.33289 -0.24327,-0.48013c-0.07789,-0.14617 -0.14617,-0.26727 -0.20486,-0.3633l0.39211,-0.31208M252.00984,197.94569h3.24888v3.63298h-3.24888v-0.7362h2.41665v-2.16058h-2.41665v-0.7362M252.07386,199.40208h2.76875v0.69619h-2.76875v-0.69619M253.63428,201.14655c0.11737,0.48013 0.27634,0.92665 0.47693,1.33956c0.19952,0.41398 0.45132,0.77568 0.7554,1.08509c0.30408,0.30942 0.66685,0.55215 1.08829,0.7282c-0.06402,0.05868 -0.13337,0.13177 -0.20806,0.21926c-0.07469,0.08856 -0.14404,0.17818 -0.20806,0.26887c-0.06402,0.09069 -0.12003,0.17605 -0.16805,0.25607c-0.44279,-0.22406 -0.82156,-0.52014 -1.13631,-0.88824c-0.31475,-0.3681 -0.57776,-0.79488 -0.78901,-1.28035c-0.21019,-0.48546 -0.3793,-1.01894 -0.50734,-1.60043l0.69619,-0.12803M255.15469,201.7147l0.56015,0.60016c-0.14937,0.11737 -0.30675,0.2374 -0.47213,0.3601c-0.16538,0.1227 -0.32916,0.2374 -0.49133,0.34409c-0.16324,0.1067 -0.31689,0.20005 -0.46092,0.28008l-0.45612,-0.54415c0.13337,-0.08002 0.28168,-0.18032 0.44492,-0.30088c0.16218,-0.1195 0.32062,-0.24487 0.47533,-0.3761c0.15471,-0.13017 0.28808,-0.25127 0.40011,-0.3633M251.63374,205.09961l-0.07202,-0.72019l0.3601,-0.27207l1.74447,-0.39211c-0.00534,0.11737 -0.00534,0.24913 0,0.39531c0.00534,0.14724 0.016,0.26621 0.03201,0.3569c-0.40011,0.10136 -0.72553,0.18672 -0.97626,0.25607c-0.25073,0.06935 -0.44812,0.12643 -0.59216,0.17125c-0.14404,0.04588 -0.25233,0.08322 -0.32489,0.11203c-0.07149,0.02987 -0.12857,0.06082 -0.17125,0.09283M251.63374,205.09961c-0.016,-0.06402 -0.04535,-0.1403 -0.08802,-0.22886c-0.04268,-0.08749 -0.08642,-0.17391 -0.13124,-0.25927c-0.04588,-0.08536 -0.09283,-0.15204 -0.14084,-0.20005c0.07469,-0.04801 0.14671,-0.11897 0.21606,-0.21286c0.06935,-0.09283 0.10403,-0.22726 0.10403,-0.40331v-5.84958h0.84023v6.40173c0,0 -0.02667,0.016 -0.08002,0.04801c-0.05335,0.03201 -0.12003,0.07469 -0.20005,0.12803c-0.08002,0.05335 -0.16004,0.1131 -0.24006,0.17925c-0.08002,0.06722 -0.14671,0.1355 -0.20005,0.20486c-0.05335,0.06935 -0.08002,0.13337 -0.08002,0.19205zM259.6439,197.93768h3.96107v2.25661h-3.93706v-0.7362h3.12884v-0.78421h-3.15285v-0.7362M259.25179,197.93768h0.83222v2.44866c0,0.34143 -0.01174,0.71753 -0.03521,1.1283c-0.02454,0.41078 -0.07149,0.82956 -0.14084,1.25634c-0.06935,0.42678 -0.17071,0.84023 -0.30408,1.24033c-0.13337,0.40011 -0.30942,0.7602 -0.52814,1.08029c-0.04801,-0.04801 -0.11576,-0.10563 -0.20325,-0.17285c-0.08856,-0.06615 -0.17818,-0.12857 -0.26887,-0.18725c-0.09069,-0.05868 -0.16805,-0.10136 -0.23206,-0.12803c0.20272,-0.30408 0.36276,-0.63377 0.48013,-0.98907c0.11737,-0.35423 0.20432,-0.72073 0.26087,-1.0995c0.05548,-0.37877 0.09283,-0.75114 0.11203,-1.1171c0.01814,-0.3649 0.02721,-0.70206 0.02721,-1.01147v-2.44866M259.6599,200.9545h4.18513v0.7282h-4.18513v-0.7282M260.3961,204.13936h2.82476v0.68819h-2.82476v-0.68819M261.37237,200.12227h0.80822v2.71273h-0.80822v-2.71273M260.04401,202.50692h3.60097v2.56069h-0.77621v-1.8485h-2.08056v1.8645h-0.7442v-2.57669M256.35501,201.7227c0.32009,-0.07469 0.70686,-0.17338 1.16031,-0.29608c0.45346,-0.1227 0.90958,-0.25073 1.36837,-0.3841l0.11203,0.77621c-0.42145,0.12803 -0.84556,0.25607 -1.27234,0.3841c-0.42678,0.12803 -0.81889,0.2454 -1.17632,0.35209l-0.19205,-0.83222M256.46704,199.15401h2.51268v0.79221h-2.51268v-0.79221M257.35528,197.6176h0.78421v6.44974c0,0.20272 -0.02134,0.36276 -0.06402,0.48013c-0.04268,0.11737 -0.1227,0.21072 -0.24006,0.28008c-0.11203,0.06935 -0.25447,0.1147 -0.42732,0.13604c-0.17391,0.02134 -0.39157,0.02934 -0.65298,0.02401c-0.00534,-0.10136 -0.03041,-0.231 -0.07522,-0.3889c-0.04588,-0.15684 -0.09549,-0.29128 -0.14884,-0.40331c0.15471,0.00534 0.29608,0.008 0.42411,0.008c0.12803,0 0.21606,0 0.26407,0c0.04801,0 0.08269,-0.0096 0.10403,-0.02881c0.02134,-0.01814 0.03201,-0.05655 0.03201,-0.11523zM267.22995,200.06626h3.99308v0.68018h-3.99308v-0.68018M267.22995,201.22657h3.99308v0.68018h-3.99308v-0.68018M267.63806,204.11535h3.17686v0.68819h-3.17686v-0.68819M266.66179,198.88194h5.16139v0.69619h-5.16139v-0.69619M267.11792,202.41889h4.20113v2.62471h-0.7602v-1.93652h-2.71273v1.96053h-0.7282v-2.64871M268.48628,197.87367l0.7282,-0.28008c0.11203,0.16538 0.22299,0.34676 0.33289,0.54415c0.10883,0.19739 0.19259,0.37077 0.25127,0.52014l-0.7522,0.32809c-0.05335,-0.14937 -0.13444,-0.32809 -0.24327,-0.53614c-0.1099,-0.20806 -0.21552,-0.40011 -0.31689,-0.57616M266.09364,197.6416l0.7602,0.23206c-0.15471,0.44812 -0.33876,0.89624 -0.55215,1.34436c-0.21339,0.44812 -0.44652,0.86957 -0.69939,1.26434c-0.25393,0.39477 -0.51427,0.74687 -0.78101,1.05628c-0.02667,-0.06935 -0.06508,-0.15631 -0.11523,-0.26087c-0.05121,-0.10349 -0.10723,-0.20859 -0.16805,-0.31529c-0.06188,-0.1067 -0.11683,-0.19472 -0.16484,-0.26407c0.2294,-0.2454 0.45079,-0.53348 0.66418,-0.86423c0.21339,-0.33076 0.41078,-0.68285 0.59216,-1.05628c0.18138,-0.37343 0.33609,-0.7522 0.46413,-1.13631M265.45347,199.82619l0.78421,-0.78421v0.008v6.05763h-0.78421zM274.4719,200.05025v0.44812h3.3289v-0.44812h-3.3289M274.4719,201.12254v0.44812h3.3289v-0.44812h-3.3289M274.4719,198.98597v0.44812h3.3289v-0.44812h-3.3289M273.64768,198.32979h5.01735v3.90505h-5.01735v-3.90505M275.73624,197.52957l1.03228,0.13604c-0.08536,0.18138 -0.17605,0.35476 -0.27207,0.52014c-0.09603,0.16538 -0.18138,0.30942 -0.25607,0.43212l-0.78421,-0.16004c0.05335,-0.14404 0.1067,-0.30141 0.16004,-0.47213c0.05335,-0.17071 0.09336,-0.32275 0.12003,-0.45612M274.20783,202.73898h0.86423v1.15231c0,0.11737 0.03468,0.19205 0.10403,0.22406c0.06935,0.03201 0.22406,0.04801 0.46413,0.04801c0.04268,0 0.11096,0 0.20486,0c0.09283,0 0.20059,0 0.32329,0c0.1227,0 0.2454,0 0.3681,0c0.1227,0 0.23473,0 0.33609,0c0.10136,0 0.18138,0 0.24006,0c0.13337,0 0.23366,-0.02027 0.30088,-0.06082c0.06615,-0.03948 0.11256,-0.12323 0.13924,-0.25127c0.02667,-0.12803 0.04801,-0.32009 0.06402,-0.57616c0.06402,0.04801 0.14297,0.09176 0.23686,0.13124c0.09283,0.04054 0.18885,0.07682 0.28808,0.10883c0.09816,0.03201 0.18725,0.05602 0.26727,0.07202c-0.03734,0.36276 -0.09709,0.64284 -0.17925,0.84023c-0.08322,0.19739 -0.20592,0.33182 -0.3681,0.40331c-0.16324,0.07255 -0.39157,0.10883 -0.68498,0.10883c-0.04801,0 -0.12643,0 -0.23526,0c-0.1099,0 -0.2326,0 -0.3681,0c-0.13657,0 -0.27421,0 -0.41291,0c-0.1387,0 -0.26247,0 -0.3713,0c-0.1099,0 -0.18618,0 -0.22886,0c-0.35743,0 -0.63484,-0.03094 -0.83222,-0.09283c-0.19739,-0.06082 -0.33342,-0.16751 -0.40811,-0.32009c-0.07469,-0.15151 -0.11203,-0.35796 -0.11203,-0.61937v-1.16832M275.48817,202.48291l0.65618,-0.3681c0.13337,0.11737 0.26834,0.24807 0.40491,0.39211c0.1355,0.14404 0.2582,0.28808 0.3681,0.43212c0.10883,0.14404 0.19525,0.27741 0.25927,0.40011l-0.69619,0.41611c-0.05868,-0.1227 -0.14137,-0.25874 -0.24807,-0.40811c-0.1067,-0.14937 -0.22513,-0.30035 -0.3553,-0.45292c-0.13124,-0.15151 -0.26087,-0.28861 -0.3889,-0.41131M278.15289,202.819l0.76821,-0.32009c0.11737,0.17071 0.23633,0.35743 0.3569,0.56015c0.1195,0.20272 0.22726,0.40011 0.32329,0.59216c0.09603,0.19205 0.16538,0.3681 0.20806,0.52814l-0.81622,0.3601c-0.03734,-0.16004 -0.09976,-0.33876 -0.18725,-0.53614c-0.08856,-0.19739 -0.18992,-0.40011 -0.30408,-0.60816c-0.11523,-0.20806 -0.23153,-0.40011 -0.34889,-0.57616M273.22356,202.64295l0.7602,0.32009c-0.06935,0.17605 -0.14404,0.36917 -0.22406,0.57936c-0.08002,0.21126 -0.16378,0.41558 -0.25127,0.61297c-0.08856,0.19739 -0.17818,0.3761 -0.26887,0.53614l-0.80022,-0.3761c0.10136,-0.14937 0.20005,-0.32009 0.29608,-0.51214c0.09603,-0.19205 0.18672,-0.38837 0.27207,-0.58896c0.08536,-0.19952 0.15738,-0.38997 0.21606,-0.57135zM280.59355,201.12254h7.16993v0.82422h-7.16993v-0.82422M280.96965,198.50584h6.47375v0.82422h-6.47375v-0.82422M283.71439,197.60959h0.91225v7.46601h-0.91225v-7.46601M286.09103,199.35406l0.90424,0.26407c-0.09603,0.18672 -0.19472,0.37183 -0.29608,0.55535c-0.10136,0.18458 -0.20272,0.35796 -0.30408,0.52014c-0.10136,0.16324 -0.19739,0.30888 -0.28808,0.43692l-0.7362,-0.24807c0.08536,-0.1387 0.17338,-0.29608 0.26407,-0.47213c0.09069,-0.17605 0.17765,-0.35743 0.26087,-0.54415c0.08216,-0.18672 0.14724,-0.35743 0.19525,-0.51214M281.5378,199.66615l0.76821,-0.28808c0.10136,0.14937 0.19899,0.30942 0.29288,0.48013c0.09283,0.17071 0.17658,0.33876 0.25127,0.50414c0.07469,0.16538 0.12803,0.31475 0.16004,0.44812l-0.82422,0.32809c-0.02667,-0.13337 -0.07309,-0.28541 -0.13924,-0.45612c-0.06722,-0.17071 -0.14457,-0.34569 -0.23206,-0.52494c-0.08856,-0.17818 -0.18085,-0.34196 -0.27687,-0.49133M283.55435,201.45063l0.69619,0.28008c-0.18672,0.31475 -0.40277,0.6199 -0.64817,0.91545c-0.2454,0.29661 -0.51054,0.57669 -0.79541,0.84023c-0.28594,0.2646 -0.58202,0.50734 -0.88824,0.7282c-0.30728,0.22193 -0.61563,0.41024 -0.92505,0.56495c-0.04801,-0.07469 -0.1067,-0.15631 -0.17605,-0.24487c-0.06935,-0.08749 -0.14244,-0.17391 -0.21926,-0.25927c-0.07789,-0.08536 -0.15151,-0.15738 -0.22086,-0.21606c0.30942,-0.12803 0.61617,-0.28701 0.92025,-0.47693c0.30408,-0.18885 0.59749,-0.39797 0.88024,-0.62737c0.28274,-0.2294 0.54148,-0.47213 0.77621,-0.7282c0.23473,-0.25607 0.43478,-0.51481 0.60016,-0.77621M284.81069,201.45863c0.16538,0.2614 0.36436,0.52014 0.59696,0.77621c0.23153,0.25607 0.4876,0.49987 0.76821,0.7314c0.27954,0.2326 0.57135,0.44225 0.87544,0.62897c0.30408,0.18672 0.60816,0.34676 0.91225,0.48013c-0.06402,0.05868 -0.13497,0.1307 -0.21286,0.21606c-0.07682,0.08536 -0.15097,0.17178 -0.22246,0.25927c-0.07255,0.08856 -0.13017,0.17018 -0.17285,0.24487c-0.30942,-0.15471 -0.61723,-0.34143 -0.92345,-0.56015c-0.30728,-0.21873 -0.6007,-0.46146 -0.88024,-0.7282c-0.28061,-0.26674 -0.54361,-0.54948 -0.78901,-0.84823c-0.2454,-0.29875 -0.46146,-0.6055 -0.64817,-0.92025zM291.09238,198.0177h4.72928v0.77621h-4.72928v-0.77621M290.83631,198.0177h0.83222v2.2166c0,0.35209 -0.01334,0.73887 -0.04001,1.16031c-0.02667,0.42145 -0.07735,0.8509 -0.15204,1.28835c-0.07469,0.43745 -0.18405,0.86263 -0.32809,1.27554c-0.14404,0.41398 -0.33609,0.78635 -0.57616,1.1171c-0.04801,-0.04801 -0.11737,-0.10136 -0.20806,-0.16004c-0.09069,-0.05868 -0.18138,-0.1163 -0.27207,-0.17285c-0.09069,-0.05548 -0.17071,-0.09656 -0.24006,-0.12323c0.22406,-0.30942 0.40277,-0.65084 0.53614,-1.02428c0.13337,-0.37343 0.23046,-0.75647 0.29128,-1.14911c0.06188,-0.39157 0.10349,-0.77674 0.12483,-1.15551c0.02134,-0.37877 0.03201,-0.73086 0.03201,-1.05628v-2.2166M292.76483,201.26658v0.52014h2.01654v-0.52014h-2.01654M292.76483,200.17029v0.51214h2.01654v-0.51214h-2.01654M291.99662,199.54612h3.57696v2.86477h-3.57696v-2.86477M292.17267,202.76298l0.76821,0.21606c-0.08536,0.19205 -0.18138,0.38944 -0.28808,0.59216c-0.1067,0.20272 -0.21873,0.39584 -0.33609,0.57936c-0.11737,0.18458 -0.22673,0.34623 -0.32809,0.48493c-0.05335,-0.04268 -0.12003,-0.08962 -0.20005,-0.14084c-0.08002,-0.05015 -0.16431,-0.10083 -0.25287,-0.15204c-0.08749,-0.05015 -0.16324,-0.09122 -0.22726,-0.12323c0.16538,-0.19205 0.32542,-0.41878 0.48013,-0.68018c0.15471,-0.2614 0.28274,-0.52014 0.3841,-0.77621M294.44528,202.97104l0.7442,-0.28808c0.09603,0.16004 0.19632,0.33449 0.30088,0.52334c0.10349,0.18992 0.20059,0.3729 0.29128,0.54895c0.09069,0.17605 0.16538,0.33076 0.22406,0.46413l-0.79221,0.34409c-0.04801,-0.1387 -0.1147,-0.30035 -0.20005,-0.48493c-0.08536,-0.18352 -0.17765,-0.3729 -0.27687,-0.56815c-0.09816,-0.19419 -0.19525,-0.37397 -0.29128,-0.53935M293.32498,198.80192l0.96826,0.17605c-0.09603,0.18138 -0.19472,0.3585 -0.29608,0.53134c-0.10136,0.17391 -0.19205,0.31955 -0.27207,0.43692l-0.68819,-0.19205c0.05335,-0.1387 0.10776,-0.29768 0.16324,-0.47693c0.05655,-0.17818 0.09816,-0.33662 0.12483,-0.47533M293.31698,202.13882h0.81622v2.11257c0,0.19205 -0.02027,0.34249 -0.06082,0.45132c-0.03948,0.1099 -0.1259,0.19419 -0.25927,0.25287c-0.12803,0.05868 -0.28541,0.09443 -0.47213,0.10723c-0.18672,0.01387 -0.40811,0.01814 -0.66418,0.0128c-0.016,-0.1067 -0.04535,-0.2294 -0.08802,-0.3681c-0.04268,-0.1387 -0.08802,-0.2614 -0.13604,-0.3681c0.15471,0.00534 0.30515,0.008 0.45132,0.008c0.14724,0 0.2422,0 0.28488,0c0.08536,0 0.12803,-0.03734 0.12803,-0.11203v-2.09657M288.80376,198.28978l0.49613,-0.60816c0.1387,0.07469 0.29181,0.16111 0.45932,0.25927c0.16858,0.09923 0.33182,0.19525 0.48973,0.28808c0.15684,0.09389 0.28594,0.17818 0.3873,0.25287l-0.52014,0.68018c-0.09069,-0.07469 -0.21339,-0.16431 -0.3681,-0.26887c-0.15471,-0.10349 -0.31635,-0.20859 -0.48493,-0.31529c-0.16751,-0.1067 -0.32062,-0.20272 -0.45932,-0.28808M288.41966,200.45036l0.48813,-0.61617c0.1387,0.07469 0.29235,0.15738 0.46092,0.24807c0.16751,0.09069 0.32969,0.17978 0.48653,0.26727c0.15791,0.08856 0.28754,0.16751 0.3889,0.23686l-0.50414,0.69619c-0.09603,-0.08002 -0.22139,-0.16805 -0.3761,-0.26407c-0.15471,-0.09603 -0.31635,-0.19472 -0.48493,-0.29608c-0.16751,-0.10136 -0.32062,-0.19205 -0.45932,-0.27207M288.53969,204.51546c0.11203,-0.21339 0.23473,-0.46146 0.3681,-0.7442c0.13337,-0.28274 0.26781,-0.58416 0.40331,-0.90424c0.13657,-0.32009 0.26087,-0.63484 0.3729,-0.94425l0.70419,0.47213c-0.1067,0.28274 -0.21873,0.57349 -0.33609,0.87224c-0.11737,0.29875 -0.23846,0.59323 -0.3633,0.88344c-0.1259,0.29128 -0.2502,0.56762 -0.3729,0.82902zM297.29405,198.90594h2.44866v5.34544h-2.44866v-0.7602h1.66445v-3.83303h-1.66445v-0.7522M296.78992,198.90594h0.78421v5.95361h-0.78421v-5.95361M297.25404,201.06653h2.09657v0.7442h-2.09657v-0.7442M297.95023,197.60159l0.93625,0.14404c-0.08536,0.2614 -0.17605,0.52387 -0.27207,0.78741c-0.09603,0.2646 -0.18405,0.49027 -0.26407,0.67698l-0.68819,-0.16004c0.03734,-0.13337 0.07575,-0.28541 0.11523,-0.45612c0.04054,-0.17071 0.07682,-0.34303 0.10883,-0.51694c0.03201,-0.17285 0.05335,-0.33129 0.06402,-0.47533M300.823,198.85793h2.37664v0.78421h-2.37664v-0.78421M302.89556,198.85793h0.80022c0,0 0,0.02507 0,0.07522c0,0.05121 0,0.10723 0,0.16805c0,0.06188 -0.00267,0.1115 -0.008,0.14884c-0.02667,0.90691 -0.05495,1.67512 -0.08482,2.30462c-0.02881,0.6295 -0.06348,1.14698 -0.10403,1.55242c-0.03948,0.40544 -0.08589,0.72126 -0.13924,0.94746c-0.05335,0.22726 -0.1227,0.39424 -0.20806,0.50094c-0.1067,0.14404 -0.21606,0.24273 -0.32809,0.29608c-0.11203,0.05335 -0.24807,0.09336 -0.40811,0.12003c-0.14404,0.016 -0.32809,0.02401 -0.55215,0.02401c-0.22406,0 -0.45346,-0.00534 -0.68819,-0.016c-0.00534,-0.11737 -0.03308,-0.25607 -0.08322,-0.41611c-0.05121,-0.16004 -0.1195,-0.29875 -0.20486,-0.41611c0.2614,0.02134 0.50147,0.03468 0.72019,0.04001c0.21873,0.00534 0.37877,0.008 0.48013,0.008c0.08002,0 0.14511,-0.0096 0.19525,-0.02881c0.05121,-0.01814 0.10349,-0.05388 0.15684,-0.10723c0.06402,-0.07469 0.12003,-0.22033 0.16805,-0.43692c0.04801,-0.21552 0.08802,-0.52067 0.12003,-0.91545c0.03201,-0.39477 0.06242,-0.89624 0.09122,-1.50441c0.02987,-0.60816 0.05548,-1.33369 0.07682,-2.17659v-0.16805M300.88702,197.60159l0.82422,0.19205c-0.10136,0.39477 -0.22299,0.78528 -0.3649,1.17152c-0.14084,0.3873 -0.29661,0.75167 -0.46733,1.09309c-0.17071,0.34143 -0.34676,0.64017 -0.52814,0.89624c-0.05335,-0.04801 -0.1227,-0.10403 -0.20806,-0.16805c-0.08536,-0.06402 -0.17338,-0.12697 -0.26407,-0.18885c-0.09069,-0.06082 -0.16805,-0.10723 -0.23206,-0.13924c0.17605,-0.2294 0.34249,-0.49773 0.49933,-0.80502c0.15791,-0.30622 0.29981,-0.63537 0.42571,-0.98747c0.12483,-0.35209 0.22993,-0.70686 0.31529,-1.06429M300.50292,201.09854l0.67218,-0.3761c0.13337,0.18138 0.27741,0.3825 0.43212,0.60336c0.15471,0.22193 0.29981,0.43532 0.43532,0.64017c0.13657,0.20592 0.24487,0.3889 0.32489,0.54895l-0.7282,0.44812c-0.07469,-0.16538 -0.17605,-0.35476 -0.30408,-0.56815c-0.12803,-0.21339 -0.26567,-0.43372 -0.41291,-0.66098c-0.14617,-0.22619 -0.28594,-0.43798 -0.41931,-0.63537zM306.80862,198.42581h5.10538v0.77621h-5.10538v-0.77621M307.77688,200.53838v0.90424h3.08883v-0.90424h-3.08883M306.99267,199.83419h4.69727v2.31262h-4.69727v-2.31262M307.68085,202.25085c0.24006,0.39477 0.56815,0.73353 0.98427,1.01627c0.41611,0.28274 0.90691,0.51054 1.4724,0.68338c0.56549,0.17391 1.19499,0.29555 1.88851,0.3649c-0.05868,0.05868 -0.12163,0.13337 -0.18885,0.22406c-0.06615,0.09069 -0.1259,0.18245 -0.17925,0.27527c-0.05335,0.09389 -0.09869,0.18085 -0.13604,0.26087c-0.71486,-0.09603 -1.36197,-0.2534 -1.94132,-0.47213c-0.57829,-0.21873 -1.08509,-0.50414 -1.52041,-0.85623c-0.43425,-0.35209 -0.79541,-0.77621 -1.08349,-1.27234l0.70419,-0.22406M308.88118,197.65761h0.84823v3.61698c0,0.32009 -0.02027,0.63484 -0.06082,0.94425c-0.03948,0.30942 -0.11256,0.60656 -0.21926,0.89144c-0.1067,0.28594 -0.2614,0.55162 -0.46413,0.79701c-0.20272,0.2454 -0.46413,0.46786 -0.78421,0.66738c-0.32009,0.20059 -0.71486,0.3729 -1.18432,0.51694c-0.03201,-0.06402 -0.08002,-0.1403 -0.14404,-0.22886c-0.06402,-0.08749 -0.12963,-0.17658 -0.19685,-0.26727c-0.06615,-0.09069 -0.13124,-0.16538 -0.19525,-0.22406c0.44812,-0.10136 0.81729,-0.231 1.1075,-0.3889c0.29128,-0.15684 0.52334,-0.33662 0.69619,-0.53935c0.17391,-0.20272 0.30355,-0.42145 0.3889,-0.65618c0.08536,-0.23473 0.14137,-0.48013 0.16805,-0.7362c0.02667,-0.25607 0.04001,-0.51747 0.04001,-0.78421v-3.60897M306.27247,197.59359l0.80022,0.25607c-0.18138,0.44812 -0.39637,0.89624 -0.64497,1.34436c-0.24753,0.44812 -0.51267,0.87063 -0.79541,1.26754c-0.28274,0.39797 -0.57616,0.749 -0.88024,1.05308c-0.02667,-0.06935 -0.06668,-0.16004 -0.12003,-0.27207c-0.05335,-0.11203 -0.10936,-0.22406 -0.16805,-0.33609c-0.05868,-0.11203 -0.1147,-0.20272 -0.16805,-0.27207c0.2614,-0.2454 0.51481,-0.53081 0.7602,-0.85623c0.2454,-0.32542 0.47213,-0.67485 0.68018,-1.04828c0.20806,-0.37343 0.38677,-0.7522 0.53614,-1.13631M305.47226,199.77818l0.81622,-0.81622l0.008,0.008v6.13765h-0.82422zM313.82651,198.15374h4.99335v0.81622h-4.99335v-0.81622M313.82651,200.00224h5.00135v0.80822h-5.00135v-0.80822M313.8025,201.89875h5.04936v0.80822h-5.04936v-0.80822M313.33838,198.15374h0.84823v2.88878c0,0.30942 -0.01334,0.64657 -0.04001,1.01147c-0.02667,0.36597 -0.07895,0.73406 -0.15684,1.1043c-0.07682,0.3713 -0.18992,0.725 -0.33929,1.06109c-0.14937,0.33609 -0.34676,0.63751 -0.59216,0.90424c-0.04268,-0.05335 -0.1067,-0.11737 -0.19205,-0.19205c-0.08536,-0.07469 -0.17071,-0.14564 -0.25607,-0.21286c-0.08536,-0.06615 -0.16004,-0.11523 -0.22406,-0.14724c0.21873,-0.2454 0.39211,-0.51374 0.52014,-0.80502c0.12803,-0.29021 0.22246,-0.59163 0.28328,-0.90424c0.06188,-0.31155 0.10189,-0.62363 0.12003,-0.93625c0.01921,-0.31155 0.02881,-0.6087 0.02881,-0.89144v-2.88078M318.50777,198.15374h0.84823v5.88959c0,0.23473 -0.03094,0.41718 -0.09283,0.54735c-0.06082,0.13124 -0.16591,0.23153 -0.31529,0.30088c-0.15471,0.06935 -0.35636,0.11203 -0.60496,0.12803c-0.24753,0.016 -0.55802,0.02134 -0.93145,0.016c-0.016,-0.11203 -0.05228,-0.24967 -0.10883,-0.41291c-0.05548,-0.16218 -0.11256,-0.29928 -0.17125,-0.41131c0.16538,0.01067 0.32809,0.016 0.48813,0.016c0.16004,0 0.30141,0 0.42411,0c0.1227,0 0.20806,0 0.25607,0c0.07469,0 0.12803,-0.01494 0.16004,-0.04481c0.03201,-0.02881 0.04801,-0.07789 0.04801,-0.14724v-5.88159M315.81905,198.47383h0.86423v6.51376h-0.86423zM322.7089,198.28178h3.20086v0.7282h-3.20086v-0.7282M325.75773,198.28178h0.16805l0.15204,-0.04001l0.58416,0.35209c-0.26674,0.47479 -0.6055,0.89357 -1.01627,1.25634c-0.41078,0.36276 -0.8765,0.67218 -1.39718,0.92825c-0.51961,0.25607 -1.07176,0.46786 -1.65645,0.63537c-0.58362,0.16858 -1.17952,0.30355 -1.78768,0.40491c-0.03734,-0.11203 -0.09229,-0.24273 -0.16484,-0.39211c-0.07149,-0.14937 -0.14724,-0.27474 -0.22726,-0.3761c0.56549,-0.07469 1.12297,-0.18298 1.67245,-0.32489c0.54948,-0.14084 1.06269,-0.31795 1.53962,-0.53134c0.478,-0.21339 0.90104,-0.46839 1.26914,-0.76501c0.3681,-0.29555 0.65618,-0.6327 0.86423,-1.01147v-0.13604M323.08501,197.59359l0.94425,0.17605c-0.29875,0.48013 -0.66578,0.93359 -1.1011,1.36037c-0.43425,0.42678 -0.97146,0.81089 -1.61163,1.15231c-0.04801,-0.06935 -0.1067,-0.14404 -0.17605,-0.22406c-0.06935,-0.08002 -0.14297,-0.15898 -0.22086,-0.23686c-0.07682,-0.07682 -0.14724,-0.13657 -0.21126,-0.17925c0.39477,-0.18138 0.74527,-0.3841 1.05148,-0.60816c0.30728,-0.22406 0.57135,-0.46039 0.79221,-0.70899c0.22193,-0.24753 0.39957,-0.49133 0.53294,-0.7314M322.79693,198.70589c0.30942,0.41611 0.71859,0.77621 1.22753,1.08029c0.51,0.30408 1.09843,0.55482 1.76528,0.7522c0.66685,0.19739 1.38437,0.33876 2.15258,0.42411c-0.05868,0.06402 -0.1211,0.14137 -0.18725,0.23206c-0.06722,0.09069 -0.1291,0.18405 -0.18565,0.28008c-0.05548,0.09603 -0.10189,0.18138 -0.13924,0.25607c-0.78421,-0.11203 -1.51241,-0.28274 -2.18459,-0.51214c-0.67218,-0.2294 -1.27501,-0.52708 -1.80849,-0.89304c-0.53348,-0.3649 -0.98693,-0.80075 -1.36037,-1.30755l0.72019,-0.31208M321.33253,202.02679h5.76155v0.7362h-5.76155v-0.7362M322.39682,202.94703l0.68819,0.30408c-0.1387,0.18138 -0.30675,0.37077 -0.50414,0.56815c-0.19739,0.19739 -0.40277,0.38144 -0.61617,0.55215c-0.21339,0.17071 -0.41611,0.31475 -0.60816,0.43212c-0.03734,-0.05868 -0.08962,-0.12697 -0.15684,-0.20486c-0.06615,-0.07682 -0.1355,-0.15151 -0.20806,-0.22406c-0.07149,-0.07149 -0.13657,-0.13124 -0.19525,-0.17925c0.18138,-0.09069 0.37183,-0.20539 0.57135,-0.34409c0.20059,-0.1387 0.39157,-0.28701 0.57295,-0.44492c0.18138,-0.15684 0.33342,-0.30995 0.45612,-0.45932M323.73318,201.3226h0.87224v2.88878c0,0.19739 -0.02401,0.35209 -0.07202,0.46413c-0.04801,0.11203 -0.14137,0.20005 -0.28008,0.26407c-0.12803,0.05868 -0.28541,0.09336 -0.47213,0.10403c-0.18672,0.01067 -0.40544,0.016 -0.65618,0.016c-0.016,-0.11203 -0.04961,-0.239 -0.10083,-0.3809c-0.05015,-0.14084 -0.10189,-0.2646 -0.15524,-0.3713c0.14404,0.00534 0.29074,0.00907 0.44012,0.0112c0.14937,0.0032 0.24807,0.0048 0.29608,0.0048c0.04801,-0.00534 0.08109,-0.016 0.09923,-0.03201c0.01921,-0.016 0.02881,-0.04535 0.02881,-0.08802v-2.88078M325.19758,203.38715l0.60816,-0.44012c0.17605,0.1387 0.3585,0.29181 0.54735,0.45932c0.18992,0.16858 0.36863,0.33822 0.53614,0.50894c0.16858,0.17071 0.30355,0.32809 0.40491,0.47213l-0.65618,0.48813c-0.09069,-0.14404 -0.21499,-0.30302 -0.3729,-0.47693c-0.15684,-0.17285 -0.33022,-0.34889 -0.52014,-0.52814c-0.18885,-0.17818 -0.3713,-0.33929 -0.54735,-0.48333zM332.91966,197.71362h0.86423v7.36198h-0.86423v-7.36198M331.55129,198.04171l0.83222,0.16805c-0.07469,0.36276 -0.16538,0.72286 -0.27207,1.08029c-0.1067,0.35743 -0.22513,0.69192 -0.3553,1.00347c-0.13124,0.31262 -0.26887,0.58896 -0.41291,0.82902c-0.05335,-0.04268 -0.12697,-0.09069 -0.22086,-0.14404c-0.09283,-0.05335 -0.18618,-0.10563 -0.28008,-0.15684c-0.09283,-0.05015 -0.17391,-0.08856 -0.24327,-0.11523c0.14404,-0.21339 0.27848,-0.46413 0.40331,-0.7522c0.1259,-0.28808 0.2342,-0.59643 0.32489,-0.92505c0.09069,-0.32755 0.16538,-0.65671 0.22406,-0.98747M331.79936,199.18602h3.713v0.84023h-3.92906l0.21606,-0.84023M330.71106,201.51465h5.16939v0.84823h-5.16939v-0.84823M330.17492,197.6416l0.81622,0.24807c-0.17071,0.45346 -0.36917,0.90531 -0.59536,1.35557c-0.22726,0.45132 -0.47426,0.87704 -0.741,1.27714c-0.26674,0.40011 -0.54415,0.75487 -0.83222,1.06429c-0.02134,-0.06935 -0.06028,-0.16004 -0.11683,-0.27207c-0.05548,-0.11203 -0.11416,-0.22566 -0.17605,-0.34089c-0.06082,-0.11416 -0.1179,-0.20592 -0.17125,-0.27527c0.2454,-0.2454 0.48013,-0.53241 0.70419,-0.86103c0.22406,-0.32755 0.43212,-0.67805 0.62417,-1.05148c0.19205,-0.37343 0.35476,-0.75487 0.48813,-1.14431M329.3827,199.81019l0.81622,-0.81622v0.008v6.06564h-0.81622zM336.68067,197.9937h7.02589v0.76821h-7.02589v-0.76821M339.79351,198.32179h0.90424v3.19286c0,0.32009 -0.02934,0.6279 -0.08802,0.92345c-0.05868,0.29661 -0.16538,0.57829 -0.32009,0.84503c-0.15471,0.26674 -0.3681,0.5132 -0.64017,0.7394c-0.27207,0.22726 -0.62257,0.42998 -1.05148,0.60816c-0.42998,0.17925 -0.95172,0.33289 -1.56522,0.46092c-0.03201,-0.06935 -0.07735,-0.15097 -0.13604,-0.24487c-0.05868,-0.09283 -0.12163,-0.18618 -0.18885,-0.28008c-0.06615,-0.09283 -0.13124,-0.17125 -0.19525,-0.23526c0.59216,-0.09603 1.08563,-0.21499 1.4804,-0.3569c0.39477,-0.14084 0.71219,-0.29928 0.95226,-0.47533c0.24006,-0.17605 0.42145,-0.3697 0.54415,-0.58096c0.1227,-0.21019 0.20379,-0.43425 0.24327,-0.67218c0.04054,-0.23686 0.06082,-0.48333 0.06082,-0.7394v-3.18486M338.19308,201.23457v0.60816h4.15312v-0.60816h-4.15312M338.19308,199.98624v0.59216h4.15312v-0.59216h-4.15312M337.38486,199.29005h5.81757v3.24888h-5.81757v-3.24888M338.2811,202.53092c0.27741,0.3681 0.60123,0.66151 0.97146,0.88024c0.3713,0.21873 0.79328,0.38144 1.26594,0.48813c0.47159,0.1067 0.99814,0.17711 1.57963,0.21126c0.58149,0.03521 1.219,0.05548 1.91252,0.06082c-0.07469,0.09603 -0.14831,0.22513 -0.22086,0.3873c-0.07149,0.16324 -0.1179,0.31689 -0.13924,0.46092c-0.71486,-0.02134 -1.38064,-0.06295 -1.99734,-0.12483c-0.61563,-0.06082 -1.17845,-0.16751 -1.68846,-0.32009c-0.50894,-0.15151 -0.96773,-0.36757 -1.37637,-0.64817c-0.40758,-0.27954 -0.75807,-0.64604 -1.05148,-1.0995zM348.92397,200.27431h2.9848v0.79221h-2.9848v-0.79221M344.63482,198.41781h3.57696v0.70419h-3.57696v-0.70419M344.55479,201.60267h3.66499v0.7282h-3.66499v-0.7282M344.50678,200.2103h3.83303v0.71219h-3.83303v-0.71219M350.29234,200.61841h0.83222v4.42519h-0.83222v-4.42519M345.08294,199.28205l0.68018,-0.16805c0.07469,0.14937 0.1403,0.31742 0.19685,0.50414c0.05548,0.18672 0.09122,0.34676 0.10723,0.48013l-0.72019,0.19205c-0.01067,-0.13337 -0.04001,-0.29501 -0.08802,-0.48493c-0.04801,-0.18885 -0.1067,-0.3633 -0.17605,-0.52334M347.05947,199.106l0.77621,0.15204c-0.08536,0.21873 -0.17071,0.43478 -0.25607,0.64817c-0.08536,0.21339 -0.16538,0.39744 -0.24006,0.55215l-0.69619,-0.15204c0.04801,-0.11203 0.09709,-0.239 0.14724,-0.3809c0.05121,-0.14084 0.10083,-0.28328 0.14884,-0.42732c0.04801,-0.14404 0.08802,-0.27474 0.12003,-0.39211M351.03654,197.70562l0.67218,0.63217c-0.27207,0.10136 -0.57082,0.19579 -0.89624,0.28328c-0.32542,0.08856 -0.65618,0.16591 -0.99227,0.23206c-0.33609,0.06722 -0.66418,0.12483 -0.98427,0.17285c-0.016,-0.09603 -0.04961,-0.20699 -0.10083,-0.33289c-0.05015,-0.12483 -0.10189,-0.22993 -0.15524,-0.31529c0.29875,-0.05335 0.60016,-0.1147 0.90424,-0.18405c0.30408,-0.06935 0.59109,-0.14671 0.86103,-0.23206c0.26887,-0.08536 0.49933,-0.17071 0.69139,-0.25607M345.78713,197.75363l0.76821,-0.18405c0.08536,0.16538 0.17071,0.35049 0.25607,0.55535c0.08536,0.20592 0.14671,0.3809 0.18405,0.52494l-0.80022,0.21606c-0.03201,-0.14937 -0.08696,-0.32969 -0.16484,-0.54095c-0.07682,-0.21019 -0.15791,-0.40064 -0.24327,-0.57135M346.0672,200.65842h0.77621v3.48094c0,0.18138 -0.01974,0.32275 -0.05922,0.42411c-0.04054,0.10136 -0.11683,0.18138 -0.22886,0.24006c-0.11203,0.05868 -0.247,0.09443 -0.40491,0.10723c-0.15684,0.01387 -0.33929,0.02081 -0.54735,0.02081c-0.01067,-0.10136 -0.03841,-0.21873 -0.08322,-0.35209c-0.04588,-0.13337 -0.09549,-0.25073 -0.14884,-0.35209c0.1227,0.00534 0.24113,0.008 0.3553,0.008c0.11523,0 0.19419,0 0.23686,0c0.06935,0 0.10403,-0.03734 0.10403,-0.11203v-3.46493M348.57988,198.3778h0.80022v2.80876c0,0.28808 -0.0096,0.60016 -0.02881,0.93625c-0.01814,0.33609 -0.05495,0.67592 -0.11043,1.01947c-0.05655,0.34463 -0.13817,0.67432 -0.24487,0.98907c-0.1067,0.31475 -0.24807,0.60016 -0.42411,0.85623c-0.04268,-0.05335 -0.10509,-0.11363 -0.18725,-0.18085c-0.08322,-0.06615 -0.16751,-0.13017 -0.25287,-0.19205c-0.08536,-0.06082 -0.15738,-0.10723 -0.21606,-0.13924c0.20272,-0.30408 0.35209,-0.64551 0.44812,-1.02428c0.09603,-0.37877 0.15631,-0.76554 0.18085,-1.16031c0.02347,-0.39477 0.03521,-0.76287 0.03521,-1.1043v-2.80876M347.03546,202.811l0.56015,-0.31208c0.12803,0.18672 0.2534,0.39051 0.3761,0.61136c0.1227,0.22193 0.21606,0.41024 0.28008,0.56495l-0.58416,0.3601c-0.06402,-0.16538 -0.15738,-0.36436 -0.28008,-0.59696c-0.1227,-0.23153 -0.24006,-0.44065 -0.35209,-0.62737M345.13895,202.56293l0.67218,0.17605c-0.09603,0.26674 -0.21606,0.53348 -0.3601,0.80022c-0.14404,0.26674 -0.29608,0.4908 -0.45612,0.67218c-0.06402,-0.05868 -0.15364,-0.12963 -0.26887,-0.21286c-0.11416,-0.08216 -0.21126,-0.14724 -0.29128,-0.19525c0.14937,-0.16538 0.28541,-0.35743 0.40811,-0.57616c0.1227,-0.21873 0.22139,-0.44012 0.29608,-0.66418zM353.65325,205.4197l-0.23206,-0.58416c0.33609,-0.11203 0.59216,-0.26407 0.76821,-0.45612c0.17605,-0.19205 0.26407,-0.41345 0.26407,-0.66418l-0.08002,-0.7602l0.44012,0.68819c-0.06402,0.06402 -0.13604,0.10936 -0.21606,0.13604c-0.08002,0.02667 -0.16271,0.04001 -0.24807,0.04001c-0.18672,0 -0.3537,-0.05868 -0.50094,-0.17605c-0.14617,-0.11737 -0.21926,-0.28274 -0.21926,-0.49613c0,-0.21873 0.07309,-0.38677 0.21926,-0.50414c0.14724,-0.11737 0.31955,-0.17605 0.51694,-0.17605c0.26674,0 0.46946,0.09443 0.60816,0.28328c0.1387,0.18992 0.20806,0.44492 0.20806,0.76501c0,0.44812 -0.13604,0.84023 -0.40811,1.17632c-0.27207,0.33609 -0.64551,0.57882 -1.1203,0.7282zM360.64713,198.60186h7.10592v0.80022h-7.10592v-0.80022M362.7517,201.47464h3.55296v0.72019h-3.55296v-0.72019M362.11953,200.12227h4.05709v0.7522h-3.20887v4.20113h-0.84823v-4.95334M366.00058,200.12227h0.84023v4.00108c0,0.21873 -0.02667,0.39211 -0.08002,0.52014c-0.05335,0.12803 -0.15738,0.22673 -0.31208,0.29608c-0.15471,0.06402 -0.34783,0.10243 -0.57936,0.11523c-0.2326,0.01387 -0.51427,0.02081 -0.84503,0.02081c-0.016,-0.11737 -0.04908,-0.25607 -0.09923,-0.41611c-0.05121,-0.16004 -0.10616,-0.29608 -0.16484,-0.40811c0.14937,0.00534 0.29608,0.00907 0.44012,0.0112c0.14404,0.0032 0.27207,0.0048 0.3841,0.0048c0.11203,0 0.19205,0 0.24006,0c0.06402,0 0.10936,-0.01227 0.13604,-0.03681c0.02667,-0.02347 0.04001,-0.06455 0.04001,-0.12323v-3.98507M363.16781,197.60959l0.88824,0.20005c-0.18672,0.59216 -0.42038,1.18005 -0.70099,1.76368c-0.27954,0.58469 -0.6151,1.12884 -1.00667,1.63244c-0.39264,0.50467 -0.84769,0.93839 -1.36517,1.30115c-0.03734,-0.06402 -0.09069,-0.13764 -0.16004,-0.22086c-0.06935,-0.08216 -0.1387,-0.16324 -0.20806,-0.24327c-0.06935,-0.08002 -0.13337,-0.14671 -0.19205,-0.20005c0.35743,-0.23473 0.68125,-0.51374 0.97146,-0.83703c0.29128,-0.32222 0.55162,-0.67165 0.78101,-1.04828c0.2294,-0.37557 0.42678,-0.76234 0.59216,-1.16031c0.16538,-0.39691 0.29875,-0.79275 0.40011,-1.18752M362.7517,202.80299h3.55296v0.72019h-3.55296zM373.97073,198.39381h0.89624v5.5775c0,0.2614 -0.03628,0.46519 -0.10883,0.61136c-0.07149,0.14724 -0.19792,0.25554 -0.3793,0.32489c-0.18672,0.07469 -0.42571,0.12003 -0.71699,0.13604c-0.29021,0.016 -0.64071,0.02401 -1.05148,0.02401c-0.016,-0.08536 -0.04375,-0.18405 -0.08322,-0.29608c-0.04054,-0.11203 -0.08482,-0.22406 -0.13284,-0.33609c-0.04801,-0.11203 -0.09603,-0.20539 -0.14404,-0.28008c0.20272,0.01067 0.40384,0.01707 0.60336,0.01921c0.20059,0.0032 0.37984,0.0048 0.53774,0.0048c0.15684,0 0.26727,0 0.33129,0c0.09069,-0.00534 0.15471,-0.02294 0.19205,-0.05281c0.03734,-0.02881 0.05602,-0.08589 0.05602,-0.17125v-5.5615M369.36148,199.99424h0.83222v3.705h-0.83222v-3.705M369.71358,199.99424h3.02482v3.08083h-3.02482v-0.81622h2.16858v-1.44839h-2.16858v-0.81622M368.59328,198.15374h7.21795v0.87224h-7.21795zM376.93953,200.49037h2.53668v0.71219h-1.74447v3.87304h-0.79221v-4.58524M379.0761,200.49037h0.84823v3.697c0,0.19205 -0.02294,0.34516 -0.06882,0.45932c-0.04481,0.11523 -0.1339,0.20752 -0.26727,0.27687c-0.12803,0.06402 -0.28434,0.10243 -0.46893,0.11523c-0.18352,0.01387 -0.39531,0.02081 -0.63537,0.02081c-0.02134,-0.11203 -0.05868,-0.24273 -0.11203,-0.39211c-0.05335,-0.14937 -0.10936,-0.27474 -0.16805,-0.3761c0.15471,0.00534 0.30302,0.00907 0.44492,0.0112c0.14084,0.0032 0.23793,0.00213 0.29128,-0.0032c0.05335,0 0.08962,-0.008 0.10883,-0.02401c0.01814,-0.016 0.02721,-0.05068 0.02721,-0.10403v-3.68099M377.29962,201.6987h2.24861v0.64017h-2.24861v-0.64017M377.29962,202.87501h2.24861v0.64817h-2.24861v-0.64817M380.58051,197.6336h0.84823v2.47267c0,0.1387 0.02134,0.22673 0.06402,0.26407c0.04268,0.03734 0.14404,0.05602 0.30408,0.05602c0.03734,0 0.09976,0 0.18725,0c0.08856,0 0.18618,0 0.29288,0c0.1067,0 0.20806,0 0.30408,0c0.09603,0 0.16538,0 0.20806,0c0.09069,0 0.16004,-0.02134 0.20806,-0.06402c0.04801,-0.04268 0.08269,-0.1243 0.10403,-0.24487c0.02134,-0.1195 0.03734,-0.30195 0.04801,-0.54735c0.08536,0.06402 0.20379,0.12643 0.3553,0.18725c0.15257,0.06188 0.28488,0.10616 0.39691,0.13284c-0.02667,0.33609 -0.07575,0.59856 -0.14724,0.78741c-0.07255,0.18992 -0.17925,0.32222 -0.32009,0.39691c-0.1419,0.07469 -0.33022,0.11203 -0.56495,0.11203c-0.03734,0 -0.09603,0 -0.17605,0c-0.08002,0 -0.16965,0 -0.26887,0c-0.09816,0 -0.19792,0 -0.29928,0c-0.10136,0 -0.18938,0 -0.26407,0c-0.07469,0 -0.1307,0 -0.16805,0c-0.29875,0 -0.52814,-0.03201 -0.68819,-0.09603c-0.16004,-0.06402 -0.27047,-0.17498 -0.33129,-0.33289c-0.06188,-0.15684 -0.09283,-0.36863 -0.09283,-0.63537v-2.48867M383.00516,198.13774l0.54415,0.63217c-0.23473,0.1067 -0.4908,0.21339 -0.76821,0.32009c-0.27741,0.1067 -0.55908,0.20379 -0.84503,0.29128c-0.28488,0.08856 -0.56068,0.17018 -0.82742,0.24487c-0.016,-0.08002 -0.04908,-0.17765 -0.09923,-0.29288c-0.05121,-0.11416 -0.10083,-0.21392 -0.14884,-0.29928c0.25607,-0.08002 0.51481,-0.16965 0.77621,-0.26887c0.2614,-0.09816 0.51054,-0.20219 0.7474,-0.31208c0.23793,-0.10883 0.44492,-0.21392 0.62097,-0.31529M380.58851,201.37061h0.84823v2.57669c0,0.1387 0.02401,0.22673 0.07202,0.26407c0.04801,0.03734 0.15471,0.05602 0.32009,0.05602c0.03201,0 0.09336,0 0.18405,0c0.09069,0 0.19099,0 0.30088,0c0.10883,0 0.21232,0 0.31048,0c0.09923,0 0.17018,0 0.21286,0c0.10136,0 0.17605,-0.02401 0.22406,-0.07202c0.04801,-0.04801 0.08429,-0.14297 0.10883,-0.28488c0.02347,-0.14084 0.04054,-0.34996 0.05121,-0.62737c0.09603,0.06402 0.21712,0.12537 0.3633,0.18405c0.14724,0.05868 0.27954,0.10136 0.39691,0.12803c-0.03201,0.37343 -0.08429,0.66258 -0.15684,0.86743c-0.07149,0.20592 -0.17925,0.34996 -0.32329,0.43212c-0.14404,0.08322 -0.33876,0.12483 -0.58416,0.12483c-0.03734,0 -0.09763,0 -0.18085,0c-0.08216,0 -0.17391,0 -0.27527,0c-0.10136,0 -0.20272,0 -0.30408,0c-0.10136,0 -0.19205,0 -0.27207,0c-0.08002,0 -0.1387,0 -0.17605,0c-0.29341,0 -0.52174,-0.03201 -0.68498,-0.09603c-0.16218,-0.06402 -0.27527,-0.17338 -0.33929,-0.32809c-0.06402,-0.15471 -0.09603,-0.37077 -0.09603,-0.64817v-2.57669M383.06918,201.73071l0.56815,0.63217c-0.23473,0.13337 -0.49613,0.25714 -0.78421,0.3713c-0.28808,0.11523 -0.58149,0.22193 -0.88024,0.32009c-0.29875,0.09923 -0.58949,0.18885 -0.87224,0.26887c-0.02134,-0.08002 -0.05708,-0.18032 -0.10723,-0.30088c-0.05121,-0.1195 -0.10083,-0.21926 -0.14884,-0.29928c0.26674,-0.08536 0.53721,-0.18298 0.81142,-0.29288c0.27527,-0.10883 0.53561,-0.22353 0.78101,-0.34409c0.2454,-0.1195 0.45612,-0.23793 0.63217,-0.3553M378.64399,198.3698l0.7282,-0.27207c0.12803,0.18138 0.255,0.37717 0.3809,0.58736c0.12483,0.21126 0.23793,0.41825 0.33929,0.62097c0.10136,0.20272 0.17605,0.38677 0.22406,0.55215l-0.77621,0.32009c-0.04268,-0.16538 -0.11096,-0.35209 -0.20486,-0.56015c-0.09283,-0.20806 -0.19952,-0.42145 -0.32009,-0.64017c-0.1195,-0.21873 -0.24327,-0.42145 -0.3713,-0.60816M376.88351,200.05825c-0.016,-0.05868 -0.04001,-0.13764 -0.07202,-0.23686c-0.03201,-0.09816 -0.06668,-0.19792 -0.10403,-0.29928c-0.03734,-0.10136 -0.07469,-0.19205 -0.11203,-0.27207c0.06402,-0.016 0.12803,-0.05068 0.19205,-0.10403c0.06402,-0.05335 0.12803,-0.1227 0.19205,-0.20806c0.04801,-0.05868 0.11576,-0.15631 0.20325,-0.29288c0.08856,-0.1355 0.18352,-0.29555 0.28488,-0.48013c0.10136,-0.18352 0.18938,-0.37397 0.26407,-0.57135l0.91225,0.24006c-0.11203,0.21873 -0.239,0.43745 -0.3809,0.65618c-0.14084,0.21873 -0.28594,0.42518 -0.43532,0.61937c-0.14937,0.19525 -0.29341,0.3649 -0.43212,0.50894v0.008c0,0 -0.02667,0.0144 -0.08002,0.04321c-0.05335,0.02987 -0.11363,0.06722 -0.18085,0.11203c-0.06615,0.04588 -0.12483,0.09283 -0.17605,0.14084c-0.05015,0.04801 -0.07522,0.09336 -0.07522,0.13604M376.88351,200.05825l-0.02401,-0.57616l0.39211,-0.24006l2.52068,-0.16805c-0.02667,0.10136 -0.04641,0.21712 -0.05922,0.34729c-0.01387,0.13124 -0.02347,0.23686 -0.02881,0.31689c-0.45346,0.03734 -0.83489,0.06935 -1.14431,0.09603c-0.30942,0.02667 -0.56442,0.05068 -0.76501,0.07202c-0.19952,0.02134 -0.3569,0.04001 -0.47213,0.05602c-0.11416,0.016 -0.20219,0.03201 -0.26407,0.04801c-0.06082,0.016 -0.11256,0.03201 -0.15524,0.04801z" fill="#ffffff" fill-rule="nonzero" stroke-width="1"/><path d="M245.98422,210.87077h6.64979v0.83222h-6.64979v-0.83222M247.4086,209.31835h3.76902v0.79221h-3.76902v-0.79221M250.12934,212.19113l0.7282,-0.3761c0.24006,0.20806 0.47639,0.43318 0.70899,0.67538c0.23153,0.24327 0.44332,0.486 0.63537,0.7282c0.19205,0.24327 0.34943,0.46626 0.47213,0.66898l-0.77621,0.46413c-0.1067,-0.20272 -0.25607,-0.43105 -0.44812,-0.68498c-0.19205,-0.25287 -0.40277,-0.50894 -0.63217,-0.76821c-0.2294,-0.2582 -0.45879,-0.494 -0.68819,-0.70739M249.2731,206.86169l0.78421,0.3601c-0.45879,0.63484 -1.02534,1.20833 -1.69966,1.72046c-0.67538,0.51214 -1.41318,0.94692 -2.2134,1.30435c-0.03734,-0.07469 -0.09229,-0.16004 -0.16484,-0.25607c-0.07149,-0.09603 -0.14724,-0.19099 -0.22726,-0.28488c-0.08002,-0.09283 -0.15204,-0.16591 -0.21606,-0.21926c0.51214,-0.20272 1.0056,-0.44172 1.4804,-0.71699c0.47479,-0.27421 0.90531,-0.57562 1.29155,-0.90424c0.3873,-0.32755 0.70899,-0.66204 0.96506,-1.00347M249.44915,207.22979c0.17605,0.18672 0.39477,0.3841 0.65618,0.59216c0.2614,0.20806 0.55322,0.41078 0.87544,0.60816c0.32329,0.19739 0.66258,0.38144 1.01787,0.55215c0.35423,0.17071 0.71006,0.31475 1.06749,0.43212c-0.06402,0.05335 -0.13444,0.12537 -0.21126,0.21606c-0.07789,0.09069 -0.15151,0.18245 -0.22086,0.27527c-0.06935,0.09389 -0.12803,0.18085 -0.17605,0.26087c-0.34676,-0.14404 -0.69352,-0.31368 -1.04028,-0.50894c-0.34676,-0.19419 -0.67912,-0.40491 -0.99707,-0.63217c-0.31689,-0.22619 -0.60763,-0.45559 -0.87224,-0.68819c-0.26354,-0.23153 -0.486,-0.44865 -0.66738,-0.65138l0.56815,-0.45612M246.54437,214.20767c-0.016,-0.06402 -0.04001,-0.14937 -0.07202,-0.25607c-0.03201,-0.1067 -0.06668,-0.21766 -0.10403,-0.33289c-0.03734,-0.11416 -0.07469,-0.20859 -0.11203,-0.28328c0.10136,-0.02134 0.20005,-0.06668 0.29608,-0.13604c0.09603,-0.06935 0.20806,-0.16004 0.33609,-0.27207c0.06402,-0.05335 0.15898,-0.14137 0.28488,-0.26407c0.12483,-0.1227 0.26354,-0.26941 0.41611,-0.44012c0.15151,-0.17071 0.30568,-0.35636 0.46252,-0.55695c0.15791,-0.19952 0.30622,-0.40331 0.44492,-0.61136l0.80022,0.54415c-0.30408,0.39477 -0.64284,0.77994 -1.01627,1.15551c-0.37343,0.37664 -0.74954,0.70632 -1.1283,0.98907v0.02401c0,0 -0.03041,0.0144 -0.09122,0.04321c-0.06188,0.02987 -0.13284,0.06722 -0.21286,0.11203c-0.08002,0.04588 -0.15044,0.09389 -0.21126,0.14404c-0.06188,0.05121 -0.09283,0.09816 -0.09283,0.14084M246.54437,214.20767l-0.016,-0.68018l0.56815,-0.31208l4.59324,-0.28808c0.016,0.1227 0.04001,0.25874 0.07202,0.40811c0.03201,0.14937 0.06135,0.26941 0.08802,0.3601c-0.73086,0.05335 -1.36143,0.10136 -1.89171,0.14404c-0.53134,0.04268 -0.98106,0.07842 -1.34916,0.10723c-0.3681,0.02987 -0.67218,0.05548 -0.91225,0.07682c-0.24006,0.02134 -0.43212,0.04108 -0.57616,0.05922c-0.14404,0.01921 -0.25874,0.03788 -0.34409,0.05602c-0.08536,0.01921 -0.16271,0.04214 -0.23206,0.06882zM258.48359,212.90332l0.68018,-0.40011c0.18138,0.11737 0.37503,0.2518 0.58096,0.40331c0.20486,0.15257 0.39957,0.30622 0.58416,0.46092c0.18352,0.15471 0.33396,0.29608 0.45132,0.42411l-0.7282,0.44812c-0.1067,-0.1227 -0.24807,-0.263 -0.42411,-0.42091c-0.17605,-0.15684 -0.36383,-0.31689 -0.56335,-0.48013c-0.20059,-0.16218 -0.39424,-0.30728 -0.58096,-0.43532M254.66656,210.44666h5.34544v0.70419h-5.34544v-0.70419M253.81833,207.61389h3.10484v0.69619h-3.10484v-0.69619M253.77032,211.61497h7.0499v0.7282h-7.0499v-0.7282M256.87515,211.80702h0.87224v1.72046c0,0.20806 -0.02934,0.3665 -0.08802,0.47533c-0.05868,0.1099 -0.16805,0.19152 -0.32809,0.24487c-0.15471,0.05335 -0.34303,0.08642 -0.56495,0.09923c-0.22086,0.01387 -0.48333,0.02081 -0.78741,0.02081c-0.02134,-0.11737 -0.05975,-0.2454 -0.11523,-0.3841c-0.05655,-0.1387 -0.1115,-0.25874 -0.16484,-0.3601c0.1387,0.00534 0.27901,0.00907 0.42091,0.0112c0.14084,0.0032 0.2646,0.0048 0.3713,0.0048c0.1067,0 0.18138,0 0.22406,0c0.06402,-0.00534 0.1067,-0.0176 0.12803,-0.03681c0.02134,-0.01814 0.03201,-0.05121 0.03201,-0.09923v-1.69646M255.07467,212.52722l0.80822,0.25607c-0.19739,0.28808 -0.44439,0.56389 -0.741,0.82742c-0.29555,0.2646 -0.58736,0.48493 -0.87544,0.66098c-0.04801,-0.05335 -0.11203,-0.11363 -0.19205,-0.18085c-0.08002,-0.06615 -0.16271,-0.13284 -0.24807,-0.20005c-0.08536,-0.06615 -0.16271,-0.1179 -0.23206,-0.15524c0.29341,-0.14404 0.57242,-0.32435 0.83703,-0.54095c0.26354,-0.21552 0.478,-0.43798 0.64337,-0.66738M255.07467,206.87769h0.80022v3.3289h-0.80022v-3.3289M257.23525,207.61389h3.51295v0.69619h-3.51295v-0.69619M258.59562,206.87769h0.80822v3.3289h-0.80822v-3.3289M255.78686,208.29408c0.06935,0.03201 0.16431,0.08536 0.28488,0.16004c0.1195,0.07469 0.247,0.15578 0.3825,0.24327c0.13657,0.08856 0.26354,0.17018 0.3809,0.24487c0.11737,0.07469 0.20272,0.1307 0.25607,0.16805l-0.44812,0.57616c-0.07469,-0.06935 -0.16698,-0.14937 -0.27687,-0.24006c-0.10883,-0.09069 -0.22726,-0.18672 -0.3553,-0.28808c-0.12803,-0.10136 -0.24967,-0.19632 -0.3649,-0.28488c-0.11416,-0.08749 -0.21126,-0.15791 -0.29128,-0.21126l0.43212,-0.3681M259.38783,208.03c0.12803,0.19205 0.28168,0.38677 0.46092,0.58416c0.17818,0.19739 0.37023,0.37984 0.57616,0.54735c0.20486,0.16858 0.40598,0.31155 0.60336,0.42892c-0.08536,0.06402 -0.18138,0.15471 -0.28808,0.27207c-0.1067,0.11737 -0.18938,0.22139 -0.24807,0.31208c-0.19205,-0.1387 -0.38944,-0.31368 -0.59216,-0.52494c-0.20272,-0.21019 -0.39584,-0.43798 -0.57936,-0.68338c-0.18458,-0.2454 -0.34089,-0.48546 -0.46893,-0.72019l0.53614,-0.21606M255.06667,207.93398l0.57616,0.20806c-0.11737,0.2614 -0.2614,0.52281 -0.43212,0.78421c-0.17071,0.2614 -0.35743,0.50254 -0.56015,0.7234c-0.20272,0.22193 -0.40811,0.40758 -0.61617,0.55695c-0.05868,-0.09603 -0.1387,-0.20165 -0.24006,-0.31689c-0.10136,-0.11416 -0.19472,-0.20592 -0.28008,-0.27527c0.20272,-0.11737 0.40171,-0.26567 0.59696,-0.44492c0.19419,-0.17818 0.37557,-0.37557 0.54415,-0.59216c0.16751,-0.21552 0.30462,-0.42998 0.41131,-0.64337M258.5236,208.006l0.57616,0.21606c-0.1227,0.25073 -0.27367,0.49987 -0.45292,0.7474c-0.17818,0.2486 -0.37237,0.47533 -0.58256,0.68018c-0.21126,0.20592 -0.42358,0.37824 -0.63697,0.51694c-0.05868,-0.09069 -0.13977,-0.19365 -0.24327,-0.30888c-0.10456,-0.11416 -0.19685,-0.20592 -0.27687,-0.27527c0.20806,-0.1067 0.41345,-0.24433 0.61617,-0.41291c0.20272,-0.16751 0.39211,-0.35156 0.56815,-0.55215c0.17605,-0.19952 0.32009,-0.40331 0.43212,-0.61136zM262.93279,207.42984h4.99335v0.81622h-4.99335v-0.81622M262.93279,209.27834h5.00135v0.80822h-5.00135v-0.80822M262.90878,211.17485h5.04936v0.80822h-5.04936v-0.80822M262.44466,207.42984h0.84823v2.88878c0,0.30942 -0.01334,0.64657 -0.04001,1.01147c-0.02667,0.36597 -0.07842,0.73406 -0.15524,1.1043c-0.07789,0.3713 -0.19152,0.725 -0.34089,1.06109c-0.14937,0.33609 -0.34676,0.63751 -0.59216,0.90424c-0.04268,-0.05335 -0.1067,-0.11737 -0.19205,-0.19205c-0.08536,-0.07469 -0.17071,-0.14564 -0.25607,-0.21286c-0.08536,-0.06615 -0.16004,-0.11523 -0.22406,-0.14724c0.21873,-0.2454 0.39211,-0.51374 0.52014,-0.80502c0.12803,-0.29021 0.22299,-0.59163 0.28488,-0.90424c0.06082,-0.31155 0.10083,-0.62363 0.12003,-0.93625c0.01814,-0.31155 0.02721,-0.6087 0.02721,-0.89144v-2.88078M267.61405,207.42984h0.84823v5.88959c0,0.23473 -0.03041,0.41718 -0.09122,0.54735c-0.06188,0.13124 -0.16751,0.23153 -0.31689,0.30088c-0.15471,0.06935 -0.35583,0.11203 -0.60336,0.12803c-0.2486,0.016 -0.55962,0.02134 -0.93305,0.016c-0.016,-0.11203 -0.05175,-0.24967 -0.10723,-0.41291c-0.05655,-0.16218 -0.11416,-0.29928 -0.17285,-0.41131c0.16538,0.01067 0.32809,0.016 0.48813,0.016c0.16004,0 0.30141,0 0.42411,0c0.1227,0 0.20806,0 0.25607,0c0.07469,0 0.12803,-0.01494 0.16004,-0.04481c0.03201,-0.02881 0.04801,-0.07789 0.04801,-0.14724v-5.88159M264.92532,207.74993h0.86423v6.51376h-0.86423zM272.02324,209.28634h1.54442v0.82422h-1.54442v-0.82422M271.70315,206.8857h0.88024v6.39372l-0.88024,0.09603v-6.48975M270.19074,208.54214h0.83222v4.94533l-0.83222,0.12003v-5.06537M269.58258,213.39145c0.33609,-0.05335 0.72126,-0.1147 1.15551,-0.18405c0.43532,-0.06935 0.89304,-0.14564 1.37317,-0.22886c0.48013,-0.08216 0.95226,-0.16591 1.41638,-0.25127l0.06402,0.84823c-0.44812,0.08536 -0.90424,0.17071 -1.36837,0.25607c-0.46413,0.08536 -0.90958,0.16644 -1.33636,0.24327c-0.42678,0.07789 -0.81355,0.15151 -1.16031,0.22086l-0.14404,-0.90424M276.20837,208.62216l0.68819,0.70419c-0.23473,0.16538 -0.48813,0.32809 -0.7602,0.48813c-0.27207,0.16004 -0.54948,0.31048 -0.83222,0.45132c-0.28274,0.1419 -0.55748,0.27687 -0.82422,0.40491c-0.02667,-0.10136 -0.07309,-0.21766 -0.13924,-0.34889c-0.06722,-0.13017 -0.13017,-0.23793 -0.18885,-0.32329c0.25073,-0.12803 0.50147,-0.26941 0.7522,-0.42411c0.25073,-0.15471 0.48973,-0.31475 0.71699,-0.48013c0.22619,-0.16538 0.42198,-0.32275 0.58736,-0.47213M273.88774,206.8857h0.89624v5.9376c0,0.21873 0.01867,0.35743 0.05602,0.41611c0.03734,0.05868 0.12537,0.08802 0.26407,0.08802c0.03201,0 0.08536,0 0.16004,0c0.07469,0 0.15738,0 0.24807,0c0.09069,0 0.17498,0 0.25287,0c0.07682,0 0.1339,0 0.17125,0c0.09603,0 0.16698,-0.03734 0.21286,-0.11203c0.04481,-0.07469 0.07789,-0.21072 0.09923,-0.40811c0.02134,-0.19739 0.03734,-0.47479 0.04801,-0.83222c0.1067,0.08002 0.239,0.15471 0.39691,0.22406c0.15684,0.06935 0.29661,0.12003 0.41931,0.15204c-0.03201,0.43745 -0.08376,0.78955 -0.15524,1.05628c-0.07255,0.26674 -0.18192,0.45986 -0.32809,0.57936c-0.14724,0.12057 -0.35156,0.18085 -0.61297,0.18085c-0.04268,0 -0.1131,0 -0.21126,0c-0.09923,0 -0.20486,0 -0.31689,0c-0.11203,0 -0.21606,0 -0.31208,0c-0.09603,0 -0.16538,0 -0.20806,0c-0.28274,0 -0.50147,-0.04001 -0.65618,-0.12003c-0.15471,-0.08002 -0.26407,-0.21873 -0.32809,-0.41611c-0.06402,-0.19739 -0.09603,-0.47213 -0.09603,-0.82422zM277.63275,207.77394h3.00081v0.81622h-3.00081v-0.81622M280.73759,208.62216h3.64898v0.82422h-3.64898v-0.82422M278.71304,208.10202h0.84823v4.02509h-0.84823v-4.02509M283.98646,208.62216h0.84023c0,0 0,0.02507 0,0.07522c0,0.05121 0,0.10883 0,0.17285c0,0.06402 -0.00267,0.1147 -0.008,0.15204c-0.02134,0.81622 -0.04641,1.51081 -0.07522,2.08376c-0.02987,0.57402 -0.06188,1.04508 -0.09603,1.41318c-0.03521,0.3681 -0.07789,0.65884 -0.12803,0.87224c-0.05121,0.21339 -0.11416,0.36543 -0.18885,0.45612c-0.09603,0.1387 -0.19739,0.23473 -0.30408,0.28808c-0.1067,0.05335 -0.23206,0.08802 -0.3761,0.10403c-0.13337,0.02134 -0.30408,0.03201 -0.51214,0.03201c-0.20806,0 -0.42411,-0.00534 -0.64817,-0.016c-0.00534,-0.1227 -0.03201,-0.26407 -0.08002,-0.42411c-0.04801,-0.16004 -0.11203,-0.29875 -0.19205,-0.41611c0.22406,0.016 0.42945,0.02667 0.61617,0.03201c0.18672,0.00534 0.32542,0.008 0.41611,0.008c0.08002,0 0.14297,-0.0096 0.18885,-0.02881c0.04481,-0.01814 0.08856,-0.05388 0.13124,-0.10723c0.05868,-0.06402 0.10936,-0.19099 0.15204,-0.3809c0.04268,-0.18885 0.07895,-0.46092 0.10883,-0.81622c0.02881,-0.35423 0.05548,-0.80342 0.08002,-1.34756c0.02347,-0.54415 0.04855,-1.20032 0.07522,-1.96853v-0.18405M277.52872,212.07109c0.26674,-0.05868 0.57509,-0.1307 0.92505,-0.21606c0.34889,-0.08536 0.71806,-0.17871 1.1075,-0.28008c0.38944,-0.10136 0.77621,-0.20272 1.16031,-0.30408l0.11203,0.81622c-0.53348,0.15471 -1.07336,0.30942 -1.61964,0.46413c-0.54735,0.15471 -1.04241,0.29341 -1.4852,0.41611l-0.20005,-0.89624M281.92991,207.01373h0.87224c-0.00534,0.65084 -0.01707,1.27768 -0.03521,1.88051c-0.01921,0.60283 -0.06615,1.17365 -0.14084,1.71246c-0.07469,0.53881 -0.19739,1.04028 -0.3681,1.50441c-0.17071,0.46413 -0.40918,0.88557 -0.71539,1.26434c-0.30728,0.37877 -0.70099,0.70952 -1.18112,0.99227c-0.04268,-0.07469 -0.09869,-0.15471 -0.16805,-0.24006c-0.06935,-0.08536 -0.14244,-0.16965 -0.21926,-0.25287c-0.07789,-0.08216 -0.15151,-0.14724 -0.22086,-0.19525c0.44812,-0.25073 0.81089,-0.54415 1.08829,-0.88024c0.27741,-0.33609 0.4924,-0.71113 0.64497,-1.1251c0.15151,-0.41291 0.2566,-0.8637 0.31529,-1.35236c0.05868,-0.4876 0.09336,-1.00774 0.10403,-1.56042c0.01067,-0.55162 0.01867,-1.13417 0.02401,-1.74767zM286.03502,209.76647h2.53668v0.71219h-1.74447v3.87304h-0.79221v-4.58524M288.17159,209.76647h0.84823v3.697c0,0.19205 -0.02294,0.34516 -0.06882,0.45932c-0.04481,0.11523 -0.1339,0.20752 -0.26727,0.27687c-0.12803,0.06402 -0.28381,0.10243 -0.46733,0.11523c-0.18458,0.01387 -0.39691,0.02081 -0.63697,0.02081c-0.02134,-0.11203 -0.05868,-0.24273 -0.11203,-0.39211c-0.05335,-0.14937 -0.10936,-0.27474 -0.16805,-0.3761c0.15471,0.00534 0.30302,0.00907 0.44492,0.0112c0.14084,0.0032 0.23793,0.00213 0.29128,-0.0032c0.05335,0 0.08962,-0.008 0.10883,-0.02401c0.01814,-0.016 0.02721,-0.05068 0.02721,-0.10403v-3.68099M286.39511,210.9748h2.24861v0.64017h-2.24861v-0.64017M286.39511,212.15112h2.24861v0.64817h-2.24861v-0.64817M289.676,206.9097h0.84823v2.47267c0,0.1387 0.02134,0.22673 0.06402,0.26407c0.04268,0.03734 0.14404,0.05602 0.30408,0.05602c0.03734,0 0.09976,0 0.18725,0c0.08856,0 0.18618,0 0.29288,0c0.1067,0 0.20806,0 0.30408,0c0.09603,0 0.16538,0 0.20806,0c0.09069,0 0.16004,-0.02134 0.20806,-0.06402c0.04801,-0.04268 0.08269,-0.1243 0.10403,-0.24487c0.02134,-0.1195 0.03734,-0.30195 0.04801,-0.54735c0.08536,0.06402 0.20379,0.12643 0.3553,0.18725c0.15257,0.06188 0.28488,0.10616 0.39691,0.13284c-0.02667,0.33609 -0.07575,0.59856 -0.14724,0.78741c-0.07255,0.18992 -0.17925,0.32222 -0.32009,0.39691c-0.1419,0.07469 -0.33022,0.11203 -0.56495,0.11203c-0.03734,0 -0.09603,0 -0.17605,0c-0.08002,0 -0.16965,0 -0.26887,0c-0.09816,0 -0.19792,0 -0.29928,0c-0.10136,0 -0.18938,0 -0.26407,0c-0.07469,0 -0.1307,0 -0.16805,0c-0.29875,0 -0.52814,-0.03201 -0.68819,-0.09603c-0.16004,-0.06402 -0.27047,-0.17498 -0.33129,-0.33289c-0.06188,-0.15684 -0.09283,-0.36863 -0.09283,-0.63537v-2.48867M292.10065,207.41384l0.54415,0.63217c-0.23473,0.1067 -0.4908,0.21339 -0.76821,0.32009c-0.27741,0.1067 -0.55908,0.20379 -0.84503,0.29128c-0.28488,0.08856 -0.56068,0.17018 -0.82742,0.24487c-0.016,-0.08002 -0.04908,-0.17765 -0.09923,-0.29288c-0.05121,-0.11416 -0.10083,-0.21392 -0.14884,-0.29928c0.25607,-0.08002 0.51481,-0.16965 0.77621,-0.26887c0.2614,-0.09816 0.51054,-0.20219 0.7474,-0.31208c0.23793,-0.10883 0.44492,-0.21392 0.62097,-0.31529M289.684,210.64671h0.84823v2.57669c0,0.1387 0.02401,0.22673 0.07202,0.26407c0.04801,0.03734 0.15471,0.05602 0.32009,0.05602c0.03201,0 0.09336,0 0.18405,0c0.09069,0 0.19099,0 0.30088,0c0.10883,0 0.21232,0 0.31048,0c0.09923,0 0.17018,0 0.21286,0c0.10136,0 0.17605,-0.02401 0.22406,-0.07202c0.04801,-0.04801 0.08429,-0.14297 0.10883,-0.28488c0.02347,-0.14084 0.04054,-0.34996 0.05121,-0.62737c0.09603,0.06402 0.21712,0.12537 0.3633,0.18405c0.14724,0.05868 0.27954,0.10136 0.39691,0.12803c-0.03201,0.37343 -0.08429,0.66258 -0.15684,0.86743c-0.07149,0.20592 -0.17925,0.34996 -0.32329,0.43212c-0.14404,0.08322 -0.33876,0.12483 -0.58416,0.12483c-0.03734,0 -0.09763,0 -0.18085,0c-0.08216,0 -0.17391,0 -0.27527,0c-0.10136,0 -0.20272,0 -0.30408,0c-0.10136,0 -0.19205,0 -0.27207,0c-0.08002,0 -0.1387,0 -0.17605,0c-0.29341,0 -0.52174,-0.03201 -0.68498,-0.09603c-0.16218,-0.06402 -0.27527,-0.17338 -0.33929,-0.32809c-0.06402,-0.15471 -0.09603,-0.37077 -0.09603,-0.64817v-2.57669M292.16467,211.00681l0.56815,0.63217c-0.23473,0.13337 -0.49613,0.25714 -0.78421,0.3713c-0.28808,0.11523 -0.58149,0.22193 -0.88024,0.32009c-0.29875,0.09923 -0.58949,0.18885 -0.87224,0.26887c-0.02134,-0.08002 -0.05708,-0.18032 -0.10723,-0.30088c-0.05121,-0.1195 -0.10083,-0.21926 -0.14884,-0.29928c0.26674,-0.08536 0.53721,-0.18298 0.81142,-0.29288c0.27527,-0.10883 0.53561,-0.22353 0.78101,-0.34409c0.2454,-0.1195 0.45612,-0.23793 0.63217,-0.3553M287.73948,207.6459l0.7282,-0.27207c0.12803,0.18138 0.255,0.37717 0.3809,0.58736c0.12483,0.21126 0.23793,0.41825 0.33929,0.62097c0.10136,0.20272 0.17605,0.38677 0.22406,0.55215l-0.77621,0.32009c-0.04268,-0.16538 -0.11096,-0.35209 -0.20486,-0.56015c-0.09283,-0.20806 -0.19952,-0.42145 -0.32009,-0.64017c-0.1195,-0.21873 -0.24327,-0.42145 -0.3713,-0.60816M285.979,209.33436c-0.016,-0.05868 -0.04001,-0.13764 -0.07202,-0.23686c-0.03201,-0.09816 -0.06668,-0.19792 -0.10403,-0.29928c-0.03734,-0.10136 -0.07469,-0.19205 -0.11203,-0.27207c0.06402,-0.016 0.12803,-0.05068 0.19205,-0.10403c0.06402,-0.05335 0.12803,-0.1227 0.19205,-0.20806c0.04801,-0.05868 0.1163,-0.15631 0.20486,-0.29288c0.08749,-0.1355 0.18192,-0.29555 0.28328,-0.48013c0.10136,-0.18352 0.18938,-0.37397 0.26407,-0.57135l0.91225,0.24006c-0.11203,0.21873 -0.239,0.43745 -0.3809,0.65618c-0.14084,0.21873 -0.28594,0.42518 -0.43532,0.61937c-0.14937,0.19525 -0.29341,0.3649 -0.43212,0.50894v0.008c0,0 -0.02667,0.0144 -0.08002,0.04321c-0.05335,0.02987 -0.1131,0.06722 -0.17925,0.11203c-0.06722,0.04588 -0.1259,0.09283 -0.17605,0.14084c-0.05121,0.04801 -0.07682,0.09336 -0.07682,0.13604M285.979,209.33436l-0.02401,-0.57616l0.39211,-0.24006l2.52068,-0.16805c-0.02667,0.10136 -0.04641,0.21712 -0.05922,0.34729c-0.01387,0.13124 -0.02347,0.23686 -0.02881,0.31689c-0.45346,0.03734 -0.83489,0.06935 -1.14431,0.09603c-0.30942,0.02667 -0.56442,0.05068 -0.76501,0.07202c-0.19952,0.02134 -0.35636,0.04001 -0.47053,0.05602c-0.11523,0.016 -0.20325,0.03201 -0.26407,0.04801c-0.06188,0.016 -0.11416,0.03201 -0.15684,0.04801zM295.91768,210.6227c0,0.55482 -0.06935,1.06695 -0.20806,1.53641c-0.1387,0.46946 -0.32809,0.89464 -0.56815,1.27554c-0.24006,0.38197 -0.50947,0.72233 -0.80822,1.02108l-0.68018,-0.31208c0.27741,-0.29875 0.52548,-0.62417 0.7442,-0.97626c0.21873,-0.35209 0.39051,-0.74047 0.51534,-1.16511c0.1259,-0.42358 0.18885,-0.88344 0.18885,-1.37957c0,-0.50147 -0.06295,-0.96293 -0.18885,-1.38437c-0.12483,-0.42145 -0.29661,-0.80982 -0.51534,-1.16511c-0.21873,-0.35423 -0.46679,-0.67805 -0.7442,-0.97146l0.68018,-0.31208c0.29875,0.29341 0.56815,0.63217 0.80822,1.01627c0.24006,0.3841 0.42945,0.81089 0.56815,1.28035c0.1387,0.46946 0.20806,0.9816 0.20806,1.53641z" fill="#ffffff" fill-rule="nonzero" stroke-width="1"/></g></g></svg>