<svg version="1.1" xmlns="http://www.w3.org/2000/svg" xmlns:xlink="http://www.w3.org/1999/xlink" width="168.1" height="32.878" viewBox="0,0,168.1,32.878"><g transform="translate(-240,-180)"><g stroke="none" stroke-miterlimit="10"><path d="M248,180h152.1c4.432,0 8,3.568 8,8v16.878c0,4.432 -3.568,8 -8,8h-152.1c-4.432,0 -8,-3.568 -8,-8v-16.878c0,-4.432 3.568,-8 8,-8z" fill-opacity="0.7" fill="#000000" fill-rule="evenodd" stroke-width="0"/><path d="M254.70327,186.58014l0.51752,0.72083c-0.33269,0.06777 -0.7005,0.12753 -1.10342,0.17928c-0.40416,0.05298 -0.82495,0.09919 -1.26238,0.13862c-0.43743,0.04066 -0.87485,0.07331 -1.31228,0.09796c-0.43743,0.02464 -0.86253,0.04313 -1.27531,0.05545c-0.01232,-0.10474 -0.04005,-0.22672 -0.08317,-0.36596c-0.04313,-0.138 -0.08625,-0.25321 -0.12938,-0.34563c0.40046,-0.01848 0.81324,-0.04189 1.23835,-0.07023c0.4251,-0.02711 0.84405,-0.06223 1.25683,-0.10535c0.41278,-0.04313 0.804,-0.08933 1.17366,-0.13862c0.36966,-0.04929 0.69619,-0.10474 0.97959,-0.16635M249.99939,188.87201h5.55409v0.804h-5.55409v-0.804M252.27278,187.18083h0.89642v4.12167h-0.89642v-4.12167M252.28202,191.82002h0.82249v2.69849h-0.82249v-2.69849M250.60932,187.95711l0.78552,-0.24028c0.08009,0.15402 0.1645,0.32345 0.25321,0.50828c0.08995,0.18483 0.15649,0.34193 0.19961,0.47131l-0.82249,0.27724c-0.03697,-0.13554 -0.09549,-0.30065 -0.17559,-0.49534c-0.08009,-0.19345 -0.16018,-0.36719 -0.24028,-0.52122M254.14878,187.55049l0.85021,0.23104c-0.13554,0.26492 -0.27231,0.52799 -0.41032,0.78922c-0.13924,0.26246 -0.27047,0.4861 -0.39368,0.67093l-0.73007,-0.22179c0.08009,-0.13554 0.16327,-0.28833 0.24952,-0.45837c0.08625,-0.16881 0.16758,-0.34255 0.24397,-0.52122c0.07763,-0.17867 0.14109,-0.34193 0.19037,-0.48979M251.81071,189.33408l0.76704,0.268c-0.17251,0.30805 -0.38814,0.60069 -0.6469,0.87793c-0.25876,0.27724 -0.53908,0.52799 -0.84097,0.75225c-0.30189,0.22549 -0.61301,0.40909 -0.93338,0.55079c-0.06777,-0.10474 -0.16018,-0.2298 -0.27724,-0.3752c-0.11706,-0.14417 -0.22487,-0.25938 -0.32345,-0.34563c0.29573,-0.10474 0.58714,-0.24644 0.87424,-0.4251c0.28587,-0.17867 0.54894,-0.3789 0.78922,-0.60069c0.24028,-0.22179 0.43743,-0.45591 0.59145,-0.70235M253.66823,189.33408c0.15402,0.22179 0.34809,0.43866 0.58221,0.6506c0.23412,0.21317 0.48856,0.40601 0.76334,0.57851c0.27355,0.17251 0.54894,0.31421 0.82618,0.4251c-0.09858,0.08009 -0.20762,0.19099 -0.32715,0.33269c-0.12075,0.1417 -0.2181,0.27108 -0.29203,0.38814c-0.2834,-0.14786 -0.56804,-0.33146 -0.85391,-0.55079c-0.2871,-0.2181 -0.55695,-0.45961 -0.80955,-0.72453c-0.2526,-0.26492 -0.46515,-0.536 -0.63766,-0.81324l0.74855,-0.28648M250.43374,191.45961h4.66691v3.64112h-0.92414v-2.91104h-2.86484v2.95725h-0.87793v-3.68732M251.03443,192.78113h3.40084v0.69311h-3.40084v-0.69311M251.03443,194.07492h3.3916v0.71159h-3.3916v-0.71159M246.97745,191.33947c0.35733,-0.09858 0.7886,-0.23288 1.2938,-0.40293c0.5052,-0.16881 1.01348,-0.34255 1.52483,-0.52122l0.1571,0.88718c-0.47439,0.17867 -0.95495,0.35425 -1.44166,0.52676c-0.48671,0.17251 -0.93646,0.32961 -1.34925,0.47131l-0.18483,-0.96111M247.12531,188.31753h2.81863v0.9149h-2.81863v-0.9149M248.15111,186.54317h0.9149v7.55023c0,0.23412 -0.02588,0.42018 -0.07763,0.55818c-0.05298,0.13924 -0.14725,0.2489 -0.28279,0.32899c-0.12938,0.08009 -0.29388,0.13246 -0.49349,0.1571c-0.20085,0.02464 -0.45221,0.03389 -0.7541,0.02772c-0.00616,-0.11706 -0.03512,-0.26677 -0.08687,-0.44913c-0.05298,-0.18113 -0.11028,-0.33639 -0.17189,-0.46577c0.17867,0.00616 0.34193,0.00924 0.48979,0.00924c0.14786,0 0.24952,-0.00308 0.30497,-0.00924c0.05545,0 0.09549,-0.00924 0.12014,-0.02772c0.02464,-0.01848 0.03697,-0.06161 0.03697,-0.12938zM260.54384,190.06415h3.3916v0.89642h-3.3916v-0.89642M261.74522,190.59091c0.19099,0.54216 0.43866,1.0566 0.74301,1.54332c0.30558,0.48671 0.66969,0.91613 1.09233,1.28825c0.42141,0.37335 0.89087,0.66785 1.40839,0.88348c-0.07393,0.06161 -0.15402,0.14293 -0.24028,0.24397c-0.08625,0.10227 -0.16758,0.20578 -0.24397,0.31051c-0.07763,0.10474 -0.14109,0.20023 -0.19037,0.28648c-0.55448,-0.26492 -1.04859,-0.61301 -1.48232,-1.04428c-0.43496,-0.43127 -0.81386,-0.92599 -1.13669,-1.48417c-0.32407,-0.55695 -0.59392,-1.16195 -0.80955,-1.81501l0.85945,-0.21255M263.68592,190.06415h0.18483l0.18483,-0.02772l0.62842,0.19407c-0.12322,0.74547 -0.32838,1.43365 -0.61548,2.06453c-0.28587,0.63211 -0.65183,1.19276 -1.09788,1.68194c-0.44728,0.49041 -0.98205,0.8958 -1.60431,1.21617c-0.07393,-0.11706 -0.17559,-0.24829 -0.30497,-0.39368c-0.12938,-0.14417 -0.2526,-0.26246 -0.36966,-0.35487c0.43127,-0.20331 0.81632,-0.44852 1.15518,-0.73562c0.33885,-0.28587 0.63273,-0.60932 0.88163,-0.97035c0.25013,-0.3598 0.45529,-0.74917 0.61548,-1.16811c0.16018,-0.41894 0.27416,-0.85637 0.34193,-1.31228v-0.19407M263.4364,186.85738h1.01656c0,0 -0.00123,0.04744 -0.0037,0.14232c-0.0037,0.09611 -0.00863,0.17497 -0.01479,0.23658c-0.01848,0.65306 -0.0536,1.13669 -0.10535,1.4509c-0.05298,0.31421 -0.13492,0.52984 -0.24582,0.6469c-0.09858,0.1109 -0.21378,0.18606 -0.34563,0.22549c-0.13308,0.04066 -0.28279,0.07023 -0.44913,0.08872c-0.16018,0.00616 -0.37089,0.00924 -0.63211,0.00924c-0.26246,0 -0.54155,-0.00616 -0.83727,-0.01848c-0.00616,-0.12322 -0.03204,-0.26184 -0.07763,-0.41586c-0.04682,-0.15402 -0.10412,-0.28648 -0.17189,-0.39738c0.18483,0.01232 0.36226,0.0228 0.53231,0.03142c0.16881,0.00986 0.31975,0.01602 0.45283,0.01848c0.13184,0.0037 0.23165,0.00554 0.29942,0.00554c0.09241,0 0.16635,-0.00493 0.22179,-0.01479c0.05545,-0.00863 0.10474,-0.03142 0.14786,-0.06839c0.04313,-0.04929 0.07701,-0.14047 0.10166,-0.27355c0.02464,-0.13184 0.04621,-0.32283 0.06469,-0.57297c0.01848,-0.2489 0.03389,-0.56742 0.04621,-0.95556v-0.13862M256.25583,191.28402c0.2834,-0.06161 0.60254,-0.13554 0.95741,-0.22179c0.35364,-0.08625 0.72576,-0.17867 1.11636,-0.27724c0.39184,-0.09858 0.78182,-0.20023 1.16996,-0.30497l0.12014,0.96111c-0.536,0.15402 -1.07817,0.3062 -1.62649,0.45653c-0.54832,0.15156 -1.05044,0.28587 -1.50635,0.40293l-0.23104,-1.01656M256.38521,188.32677h3.15132v0.96111h-3.15132v-0.96111M257.59583,186.53393h1.00731v7.49479c0,0.26492 -0.03204,0.46946 -0.09611,0.61363c-0.06531,0.1454 -0.17805,0.25506 -0.33824,0.32899c-0.16018,0.08009 -0.36473,0.13061 -0.61363,0.15156c-0.25013,0.02218 -0.56003,0.03327 -0.92969,0.03327c-0.01848,-0.12938 -0.0573,-0.28648 -0.11644,-0.47131c-0.05791,-0.18483 -0.12075,-0.34193 -0.18852,-0.47131c0.22796,0.00616 0.44544,0.00924 0.65244,0.00924c0.20578,0 0.34255,0 0.41032,0c0.08009,0 0.13554,-0.01417 0.16635,-0.04251c0.0308,-0.02711 0.04621,-0.08071 0.04621,-0.1608v-7.48554M259.84149,186.85738h3.89988v0.92414h-2.92029v7.34692h-0.97959zM266.47683,193.33561c-0.01232,-0.06777 -0.03389,-0.15587 -0.06469,-0.2643c-0.0308,-0.1072 -0.06469,-0.21933 -0.10166,-0.33639c-0.03697,-0.11706 -0.07085,-0.21871 -0.10166,-0.30497c0.16635,-0.01848 0.34378,-0.05545 0.53231,-0.1109c0.18729,-0.05545 0.40724,-0.13246 0.65984,-0.23104c0.1417,-0.04929 0.34809,-0.12938 0.61917,-0.24028c0.27108,-0.1109 0.5779,-0.24644 0.92044,-0.40662c0.34132,-0.16018 0.69557,-0.3407 1.06276,-0.54155c0.36596,-0.19961 0.71837,-0.41032 1.05722,-0.63211l0.67462,0.69311c-0.72083,0.43127 -1.4737,0.81016 -2.2586,1.13669c-0.78614,0.32653 -1.56734,0.60685 -2.34362,0.84097v0.02772c0,0 -0.03389,0.01232 -0.10166,0.03697c-0.06777,0.02464 -0.14478,0.0536 -0.23104,0.08687c-0.08625,0.0345 -0.16142,0.07331 -0.22549,0.11644c-0.06531,0.04313 -0.09796,0.08625 -0.09796,0.12938M266.47683,193.33561l-0.01848,-0.65614l0.60993,-0.31421l5.9145,-0.268c0.00616,0.11706 0.02156,0.24767 0.04621,0.39184c0.02464,0.1454 0.04929,0.26122 0.07393,0.34748c-0.93646,0.05545 -1.74047,0.10166 -2.41201,0.13862c-0.67154,0.03697 -1.23835,0.069 -1.70042,0.09611c-0.46207,0.02834 -0.8422,0.05298 -1.14039,0.07393c-0.29942,0.02218 -0.53662,0.04251 -0.71159,0.06099c-0.1762,0.01848 -0.31359,0.0382 -0.41217,0.05915c-0.09858,0.02218 -0.18175,0.04559 -0.24952,0.07023M267.04055,191.82926c-0.01232,-0.06161 -0.03512,-0.14478 -0.06839,-0.24952c-0.0345,-0.10474 -0.07147,-0.21255 -0.1109,-0.32345c-0.04066,-0.1109 -0.0764,-0.20639 -0.1072,-0.28648c0.08625,-0.01232 0.17744,-0.04005 0.27355,-0.08317c0.09488,-0.04313 0.19469,-0.09549 0.29942,-0.1571c0.07393,-0.04313 0.19407,-0.11706 0.36042,-0.22179c0.16635,-0.10474 0.34809,-0.2298 0.54524,-0.3752c0.19715,-0.14417 0.3789,-0.3025 0.54524,-0.47501l0.7578,0.56373c-0.29573,0.22179 -0.61301,0.43435 -0.95187,0.63766c-0.33885,0.20331 -0.6777,0.3789 -1.01656,0.52676v0.02772c0,0 -0.02588,0.01232 -0.07763,0.03697c-0.05298,0.02464 -0.11459,0.05853 -0.18483,0.10166c-0.07147,0.04313 -0.13308,0.08749 -0.18483,0.13308c-0.05298,0.04682 -0.07948,0.09488 -0.07948,0.14417M267.04055,191.82926v-0.62842l0.46207,-0.25876l2.73546,-0.04621c-0.03697,0.10474 -0.07085,0.23104 -0.10166,0.3789c-0.0308,0.14786 -0.05237,0.268 -0.06469,0.36042c-0.60993,0.01848 -1.10096,0.03512 -1.47308,0.0499c-0.37335,0.01602 -0.66292,0.03019 -0.86869,0.04251c-0.20701,0.01232 -0.3598,0.02588 -0.45837,0.04066c-0.09858,0.01602 -0.17559,0.03635 -0.23104,0.06099M269.54498,192.47616h1.00731v1.7189c0,0.22796 -0.03204,0.40354 -0.09611,0.52676c-0.06531,0.12322 -0.19037,0.21871 -0.3752,0.28648c-0.17251,0.06161 -0.38013,0.09858 -0.62287,0.1109c-0.24397,0.01232 -0.52923,0.01848 -0.85575,0.01848c-0.0308,-0.12938 -0.08009,-0.27293 -0.14786,-0.43065c-0.06777,-0.15649 -0.13554,-0.29326 -0.20331,-0.41032c0.15402,0.00616 0.30805,0.01047 0.46207,0.01294c0.15402,0.0037 0.28956,0.00554 0.40662,0.00554c0.11706,0 0.19715,0 0.24028,0c0.07393,-0.00616 0.12322,-0.01848 0.14786,-0.03697c0.02464,-0.01848 0.03697,-0.05545 0.03697,-0.1109v-1.69118M271.33781,191.72761l0.66538,-0.47131c0.22179,0.14786 0.45468,0.31544 0.69865,0.50273c0.24274,0.18852 0.4707,0.37643 0.68386,0.56373c0.21194,0.18852 0.38259,0.36596 0.51197,0.53231l-0.71159,0.51752c-0.11706,-0.16018 -0.27724,-0.33762 -0.48055,-0.53231c-0.20331,-0.19345 -0.4251,-0.38876 -0.66538,-0.58591c-0.24028,-0.19715 -0.47439,-0.37274 -0.70235,-0.52676M271.07905,193.75148l0.73007,-0.48979c0.22796,0.1109 0.47316,0.24028 0.73562,0.38814c0.26122,0.14786 0.51505,0.29696 0.76149,0.44728c0.24644,0.15156 0.44975,0.29203 0.60993,0.42141l-0.76704,0.55448c-0.14786,-0.12938 -0.34008,-0.27108 -0.57666,-0.4251c-0.23781,-0.15402 -0.4861,-0.31113 -0.74486,-0.47131c-0.25876,-0.16018 -0.50828,-0.30189 -0.74855,-0.4251M267.78911,193.25244l0.90566,0.36966c-0.19715,0.17867 -0.42326,0.35857 -0.67832,0.5397c-0.25629,0.18236 -0.51814,0.35179 -0.78552,0.50828c-0.26862,0.15772 -0.52614,0.29511 -0.77258,0.41217c-0.05545,-0.06777 -0.12938,-0.14478 -0.22179,-0.23104c-0.09241,-0.08625 -0.18606,-0.17127 -0.28094,-0.25506c-0.09611,-0.08256 -0.18113,-0.14848 -0.25506,-0.19777c0.38198,-0.13554 0.76272,-0.30681 1.14224,-0.51382c0.37828,-0.20578 0.69372,-0.41648 0.94632,-0.63211M269.22153,186.8389h3.69656v0.85945h-3.69656v-0.85945M270.51532,187.3749c0.2834,0.59761 0.72699,1.08864 1.33076,1.47308c0.60377,0.38567 1.34,0.64628 2.2087,0.78182c-0.06777,0.06777 -0.1417,0.15402 -0.22179,0.25876c-0.08009,0.10474 -0.15402,0.20947 -0.22179,0.31421c-0.06777,0.10474 -0.12322,0.20331 -0.16635,0.29573c-0.91182,-0.20947 -1.67393,-0.55633 -2.28633,-1.04058c-0.61363,-0.48302 -1.09295,-1.10959 -1.43796,-1.8797l0.79476,-0.20331M272.72402,186.8389h0.18483l0.1571,-0.02772l0.58221,0.22179c-0.21563,0.6469 -0.52799,1.19029 -0.93708,1.63019c-0.41032,0.44112 -0.89395,0.80031 -1.4509,1.07755c-0.55818,0.27724 -1.1638,0.49287 -1.81686,0.6469c-0.0308,-0.08009 -0.07208,-0.17127 -0.12383,-0.27355c-0.05298,-0.10104 -0.10843,-0.20085 -0.16635,-0.29942c-0.05915,-0.09858 -0.11952,-0.17867 -0.18113,-0.24028c0.44975,-0.08009 0.87362,-0.19284 1.27162,-0.33824c0.39676,-0.14417 0.75841,-0.32407 1.08494,-0.5397c0.32653,-0.21563 0.60993,-0.46515 0.85021,-0.74855c0.24028,-0.2834 0.42202,-0.60993 0.54524,-0.97959v-0.12938M266.15338,187.1069h0.89642v2.78166h-0.89642v-2.78166M267.7429,186.69104h0.89642v3.5025h-0.89642zM276.0879,188.70566h6.05312v3.44705h-6.21947v-0.804h5.23988v-1.84828h-5.07354v-0.79476M277.14142,187.20856h3.27146v0.78552h-3.27146v-0.78552M276.23576,190.04567h5.48016v0.73931h-5.48016v-0.73931M277.4279,186.49697l1.06276,0.20331c-0.20947,0.35117 -0.45406,0.69434 -0.73377,1.02949c-0.28094,0.33639 -0.597,0.65676 -0.94817,0.96111c-0.35117,0.30558 -0.74855,0.59083 -1.19214,0.85575c-0.04929,-0.07393 -0.11398,-0.15895 -0.19407,-0.25506c-0.08009,-0.09488 -0.1645,-0.18544 -0.25321,-0.2717c-0.08995,-0.08625 -0.17189,-0.15402 -0.24582,-0.20331c0.41278,-0.21563 0.77936,-0.45283 1.09973,-0.71159c0.32037,-0.25876 0.59761,-0.52676 0.83173,-0.804c0.23412,-0.27724 0.4251,-0.54524 0.57297,-0.804M280.18184,187.20856h0.22179l0.1571,-0.04621l0.67462,0.43435c-0.10474,0.19099 -0.23104,0.39245 -0.3789,0.60439c-0.14786,0.21317 -0.30189,0.41956 -0.46207,0.61917c-0.16018,0.20085 -0.31421,0.37828 -0.46207,0.53231c-0.09241,-0.08009 -0.21255,-0.16635 -0.36042,-0.25876c-0.14786,-0.09241 -0.27724,-0.16635 -0.38814,-0.22179c0.12938,-0.13554 0.25876,-0.29265 0.38814,-0.47131c0.12938,-0.17867 0.24829,-0.35733 0.35672,-0.536c0.1072,-0.17867 0.1916,-0.33885 0.25321,-0.48055v-0.17559M276.85493,192.67947h0.99807v1.17366c0,0.12938 0.04128,0.2107 0.12383,0.24397c0.08379,0.0345 0.26122,0.05175 0.53231,0.05175c0.04929,0 0.12815,0 0.23658,0c0.1072,0 0.23165,0 0.37335,0c0.1417,0 0.2834,0 0.4251,0c0.1417,0 0.27293,0 0.39368,0c0.11952,0 0.21317,0 0.28094,0c0.15402,0 0.268,-0.02156 0.34193,-0.06469c0.07393,-0.04313 0.1263,-0.12938 0.1571,-0.25876c0.0308,-0.12938 0.05545,-0.32653 0.07393,-0.59145c0.06777,0.04929 0.15587,0.09673 0.2643,0.14232c0.1072,0.04682 0.2181,0.08687 0.33269,0.12014c0.11336,0.0345 0.21317,0.06407 0.29942,0.08872c-0.03697,0.38814 -0.10166,0.6851 -0.19407,0.89087c-0.09241,0.20701 -0.23227,0.35056 -0.41956,0.43065c-0.18852,0.08009 -0.44605,0.12014 -0.77258,0.12014c-0.05545,0 -0.14601,0 -0.2717,0c-0.12692,0 -0.27047,0 -0.43065,0c-0.16018,0 -0.3216,0 -0.48425,0c-0.16388,0 -0.30743,0 -0.43065,0c-0.12322,0 -0.21255,0 -0.268,0c-0.41278,0 -0.73315,-0.03573 -0.96111,-0.1072c-0.22796,-0.07023 -0.38506,-0.18852 -0.47131,-0.35487c-0.08625,-0.16635 -0.12938,-0.40046 -0.12938,-0.70235v-1.1829M278.25963,192.54085l0.74855,-0.48979c0.16018,0.12938 0.32345,0.27416 0.48979,0.43435c0.16635,0.16018 0.31914,0.32037 0.45837,0.48055c0.138,0.16018 0.24705,0.31113 0.32715,0.45283l-0.79476,0.536c-0.06777,-0.12938 -0.16943,-0.27909 -0.30497,-0.44913c-0.13554,-0.16881 -0.2834,-0.33824 -0.44359,-0.50828c-0.16018,-0.16881 -0.32037,-0.32098 -0.48055,-0.45653M281.50336,192.73492l0.86869,-0.34193c0.13554,0.20331 0.27108,0.4251 0.40662,0.66538c0.13554,0.24028 0.25876,0.47562 0.36966,0.70604c0.1109,0.23165 0.19099,0.43989 0.24028,0.62472l-0.94262,0.3789c-0.04313,-0.18483 -0.11398,-0.39307 -0.21255,-0.62472c-0.09858,-0.23042 -0.21255,-0.4707 -0.34193,-0.72083c-0.12938,-0.2489 -0.25876,-0.47809 -0.38814,-0.68756M275.71824,192.63326l0.86869,0.3789c-0.07393,0.19099 -0.15834,0.39738 -0.25321,0.61917c-0.09611,0.22179 -0.1953,0.43866 -0.29757,0.6506c-0.10104,0.21317 -0.20393,0.40601 -0.30866,0.57851l-0.92414,-0.45283c0.11706,-0.16018 0.23104,-0.34193 0.34193,-0.54524c0.1109,-0.20331 0.21563,-0.41278 0.31421,-0.62842c0.09858,-0.21563 0.18483,-0.41586 0.25876,-0.60069zM289.49718,186.53393h0.93338v6.49671h-0.93338v-6.49671M286.70628,190.2767l4.8425,-2.05159l0.36966,0.85021l-4.8425,2.07932l-0.36966,-0.87793M287.6489,187.42111h0.94262v6.04388c0,0.17251 0.0154,0.30312 0.04621,0.39184c0.0308,0.08995 0.09549,0.15033 0.19407,0.18113c0.09858,0.0308 0.24336,0.04621 0.43435,0.04621c0.05545,0 0.14663,0 0.27355,0c0.12568,0 0.26862,0 0.4288,0c0.16018,0 0.32222,0 0.4861,0c0.16265,0 0.31051,0 0.44359,0c0.13184,0 0.22857,0 0.29018,0c0.17251,0 0.30189,-0.03265 0.38814,-0.09796c0.08625,-0.06407 0.15094,-0.18236 0.19407,-0.35487c0.04313,-0.17251 0.07393,-0.42202 0.09241,-0.74855c0.1109,0.08009 0.25137,0.15402 0.42141,0.22179c0.16881,0.06777 0.32098,0.11398 0.45653,0.13862c-0.04313,0.43743 -0.11398,0.78059 -0.21255,1.02949c-0.09858,0.25013 -0.24644,0.4288 -0.44359,0.536c-0.19715,0.10843 -0.47131,0.16265 -0.82249,0.16265c-0.06161,0 -0.16142,0 -0.29942,0c-0.13924,0 -0.29819,0 -0.47686,0c-0.17867,0 -0.35549,0 -0.53046,0c-0.1762,0 -0.33331,0 -0.47131,0c-0.13924,0 -0.23658,0 -0.29203,0c-0.3943,0 -0.70543,-0.04313 -0.93338,-0.12938c-0.22796,-0.08625 -0.38629,-0.23904 -0.47501,-0.45837c-0.08995,-0.2181 -0.13492,-0.52738 -0.13492,-0.92784v-6.03464M291.36395,188.33601h-0.07393l0.18483,-0.13862l0.18483,-0.12014l0.68386,0.24952l-0.03697,0.16635c0,0.43743 -0.00123,0.83912 -0.0037,1.20508c-0.0037,0.36719 -0.00678,0.69249 -0.00924,0.97589c-0.0037,0.2834 -0.00986,0.5206 -0.01848,0.71159c-0.00986,0.19099 -0.02095,0.33269 -0.03327,0.4251c-0.01848,0.20947 -0.06777,0.37089 -0.14786,0.48425c-0.08009,0.11459 -0.19407,0.19653 -0.34193,0.24582c-0.12938,0.05545 -0.28156,0.08749 -0.45653,0.09611c-0.1762,0.00986 -0.33516,0.01479 -0.47686,0.01479c-0.01232,-0.12322 -0.0382,-0.26677 -0.07763,-0.43065c-0.04066,-0.16265 -0.08564,-0.29634 -0.13492,-0.40108c0.08625,0.00616 0.17867,0.00924 0.27724,0.00924c0.09858,0 0.16943,0 0.21255,0c0.06161,0 0.1109,-0.01417 0.14786,-0.04251c0.03697,-0.02711 0.06161,-0.08379 0.07393,-0.17004c0.01232,-0.04929 0.02156,-0.15587 0.02772,-0.31975c0.00616,-0.16265 0.01109,-0.37951 0.01479,-0.6506c0.00246,-0.27108 0.0037,-0.59946 0.0037,-0.98513c0,-0.38444 0,-0.82618 0,-1.32522M284.07248,188.70566h3.02194v0.93338h-3.02194v-0.93338M285.18144,186.65407h0.93338v6.09009h-0.93338v-6.09009M283.96158,192.81809c0.2526,-0.09241 0.54709,-0.20516 0.88348,-0.33824c0.33516,-0.13184 0.68941,-0.27663 1.06276,-0.43435c0.37212,-0.15649 0.74609,-0.31174 1.12191,-0.46577l0.22179,0.87793c-0.49287,0.24028 -0.99314,0.47871 -1.50081,0.71529c-0.50889,0.23781 -0.97281,0.45221 -1.39176,0.6432zM294.18258,186.81117h6.82016v0.72083h-6.82016v-0.72083M294.5892,190.53546h6.86637v0.68386h-6.86637v-0.68386M295.43017,191.51505h5.51712v0.60069h-5.51712v-0.60069M294.57072,192.42995h7.23603v0.66538h-7.23603v-0.66538M294.80175,188.83504h1.94994v0.51752h-1.94994v-0.51752M294.59844,189.68525h2.16249v0.50828h-2.16249v-0.50828M298.40591,189.68525h2.19021v0.50828h-2.19021v-0.50828M298.40591,188.83504h1.96842v0.51752h-1.96842v-0.51752M297.08438,187.11614h0.97959v3.23449h-0.97959v-3.23449M293.59113,187.90166h8.02155v1.61725h-0.96111v-1.0258h-6.14554v1.0258h-0.9149v-1.61725M294.14561,190.53546h0.92414v1.27531c0,0.25876 -0.0154,0.53723 -0.04621,0.83542c-0.0308,0.29942 -0.0881,0.60316 -0.17189,0.9112c-0.08256,0.30805 -0.199,0.605 -0.34933,0.89087c-0.15156,0.2871 -0.34748,0.54771 -0.58775,0.78182c-0.04929,-0.06161 -0.11706,-0.13431 -0.20331,-0.2181c-0.08625,-0.08256 -0.17682,-0.16265 -0.2717,-0.24028c-0.09611,-0.0764 -0.18113,-0.13308 -0.25506,-0.17004c0.28956,-0.27724 0.50212,-0.57913 0.63766,-0.90566c0.13554,-0.32653 0.22364,-0.65491 0.2643,-0.98513c0.03943,-0.32899 0.05915,-0.63519 0.05915,-0.9186v-1.25683M298.39666,192.78113c0.18483,0.30189 0.44667,0.55264 0.78552,0.75225c0.33885,0.20085 0.74363,0.35795 1.21432,0.47131c0.47193,0.11459 0.99746,0.19037 1.57658,0.22734c-0.08625,0.08625 -0.17559,0.20331 -0.268,0.35117c-0.09241,0.14786 -0.16635,0.2834 -0.22179,0.40662c-0.63458,-0.06777 -1.19954,-0.18483 -1.69487,-0.35117c-0.49657,-0.16635 -0.92352,-0.38999 -1.28086,-0.67093c-0.35733,-0.27971 -0.65306,-0.62287 -0.88718,-1.02949l0.77628,-0.1571M300.54991,193.0214l0.73007,0.36966c-0.22179,0.14786 -0.45591,0.28464 -0.70235,0.41032c-0.24644,0.12692 -0.47131,0.23658 -0.67462,0.32899l-0.60069,-0.33269c0.13554,-0.07393 0.27909,-0.15587 0.43065,-0.24582c0.15033,-0.08872 0.29757,-0.18113 0.44174,-0.27724c0.1454,-0.09488 0.27047,-0.17928 0.3752,-0.25321M295.5041,195.16541l-0.04621,-0.6469l0.38814,-0.268l2.55063,-0.36042c-0.02464,0.1109 -0.04621,0.23843 -0.06469,0.38259c-0.01848,0.1454 -0.02772,0.2643 -0.02772,0.35672c-0.56681,0.09241 -1.02456,0.16758 -1.37327,0.22549c-0.34748,0.05915 -0.61671,0.1072 -0.8077,0.14417c-0.19099,0.03697 -0.32961,0.06777 -0.41586,0.09241c-0.08625,0.02464 -0.15402,0.04929 -0.20331,0.07393M295.5041,195.16541c-0.02464,-0.07393 -0.06161,-0.15895 -0.1109,-0.25506c-0.04929,-0.09488 -0.1035,-0.19037 -0.16265,-0.28648c-0.05791,-0.09488 -0.11151,-0.17312 -0.1608,-0.23473c0.10474,-0.05545 0.21687,-0.14971 0.33639,-0.28279c0.12075,-0.13184 0.18113,-0.3025 0.18113,-0.51197v-0.88718l0.96111,0.01848v1.50635c0,0 -0.03512,0.02156 -0.10535,0.06469c-0.07147,0.04313 -0.15772,0.10166 -0.25876,0.17559c-0.10227,0.07393 -0.20578,0.15094 -0.31051,0.23104c-0.10474,0.08009 -0.19222,0.16142 -0.26246,0.24397c-0.07147,0.08379 -0.1072,0.15649 -0.1072,0.2181zM304.764,189.8516v3.7705h-0.95187v-2.8556h-1.21062v-0.9149h2.16249M302.70316,187.39338l0.74855,-0.536c0.17251,0.14786 0.35241,0.31236 0.5397,0.49349c0.18852,0.18236 0.36596,0.36103 0.53231,0.536c0.16635,0.1762 0.30189,0.33824 0.40662,0.4861l-0.804,0.60993c-0.08625,-0.14786 -0.20947,-0.31421 -0.36966,-0.49904c-0.16018,-0.18483 -0.33269,-0.37458 -0.51752,-0.56927c-0.18483,-0.19345 -0.3635,-0.36719 -0.536,-0.52122M304.36662,193.21547c0.16018,0 0.31729,0.05237 0.47131,0.1571c0.15402,0.10474 0.36658,0.22487 0.63766,0.36042c0.30805,0.15402 0.66846,0.25568 1.08125,0.30497c0.41278,0.04929 0.86561,0.07393 1.35849,0.07393c0.32037,0 0.6777,-0.00801 1.072,-0.02403c0.3943,-0.01479 0.78552,-0.03758 1.17366,-0.06839c0.38814,-0.0308 0.73007,-0.06469 1.0258,-0.10166c-0.03697,0.08625 -0.07393,0.18791 -0.1109,0.30497c-0.03697,0.11706 -0.07085,0.23535 -0.10166,0.35487c-0.0308,0.12075 -0.04929,0.22426 -0.05545,0.31051c-0.16018,0.01232 -0.3635,0.02464 -0.60993,0.03697c-0.24644,0.01232 -0.51629,0.0228 -0.80955,0.03142c-0.29203,0.00986 -0.5779,0.01787 -0.8576,0.02403c-0.28094,0.00616 -0.53539,0.00924 -0.76334,0.00924c-0.54832,0 -1.03073,-0.03265 -1.44721,-0.09796c-0.41525,-0.06407 -0.7923,-0.18236 -1.13115,-0.35487c-0.20947,-0.1109 -0.39122,-0.21748 -0.54524,-0.31975c-0.15402,-0.10104 -0.28956,-0.15156 -0.40662,-0.15156c-0.10474,0 -0.22672,0.05052 -0.36596,0.15156c-0.138,0.10227 -0.28094,0.23473 -0.4288,0.39738c-0.14786,0.16388 -0.29881,0.33516 -0.45283,0.51382l-0.60069,-0.85021c0.32653,-0.30805 0.65429,-0.56249 0.98329,-0.76334c0.33023,-0.19961 0.62472,-0.29942 0.88348,-0.29942M306.38124,189.55587v0.9149h3.28994v-0.9149h-3.28994M305.47559,188.78884h5.15671v2.43973h-5.15671v-2.43973M305.17986,187.38414h5.79437v0.83173h-5.79437v-0.83173M307.52718,186.54317h0.96111v7.21754h-0.96111v-7.21754M307.27766,190.96981l0.73007,0.25876c-0.17867,0.32037 -0.3943,0.62965 -0.6469,0.92784c-0.2526,0.29942 -0.52861,0.5705 -0.82803,0.81324c-0.29819,0.24397 -0.60439,0.44605 -0.9186,0.60624c-0.04313,-0.08009 -0.10166,-0.16635 -0.17559,-0.25876c-0.07393,-0.09241 -0.15094,-0.1836 -0.23104,-0.27355c-0.08009,-0.08872 -0.15402,-0.1608 -0.22179,-0.21625c0.30189,-0.12322 0.59761,-0.28217 0.88718,-0.47686c0.28956,-0.19345 0.55756,-0.41032 0.804,-0.6506c0.24644,-0.24028 0.44667,-0.48363 0.60069,-0.73007M307.7767,191.54278l0.56373,-0.59145c0.29573,0.16635 0.605,0.35425 0.92784,0.56373c0.32407,0.20947 0.63211,0.42202 0.92414,0.63766c0.29326,0.21563 0.53231,0.41586 0.71713,0.60069l-0.60993,0.67462c-0.16635,-0.18483 -0.39122,-0.38999 -0.67462,-0.61548c-0.2834,-0.22426 -0.58714,-0.44913 -0.9112,-0.67462c-0.32283,-0.22426 -0.63519,-0.42264 -0.93708,-0.59515zM315.99231,190.06415h3.3916v0.89642h-3.3916v-0.89642M317.1937,190.59091c0.19099,0.54216 0.43866,1.0566 0.74301,1.54332c0.30558,0.48671 0.66908,0.91613 1.09049,1.28825c0.42264,0.37335 0.89272,0.66785 1.41024,0.88348c-0.07393,0.06161 -0.15402,0.14293 -0.24028,0.24397c-0.08625,0.10227 -0.16819,0.20578 -0.24582,0.31051c-0.0764,0.10474 -0.13924,0.20023 -0.18852,0.28648c-0.55448,-0.26492 -1.04921,-0.61301 -1.48417,-1.04428c-0.43373,-0.43127 -0.81201,-0.92599 -1.13485,-1.48417c-0.32407,-0.55695 -0.59392,-1.16195 -0.80955,-1.81501l0.85945,-0.21255M319.13439,190.06415h0.18483l0.18483,-0.02772l0.62842,0.19407c-0.12322,0.74547 -0.32838,1.43365 -0.61548,2.06453c-0.28587,0.63211 -0.65244,1.19276 -1.09973,1.68194c-0.44605,0.49041 -0.98021,0.8958 -1.60246,1.21617c-0.07393,-0.11706 -0.17559,-0.24829 -0.30497,-0.39368c-0.12938,-0.14417 -0.2526,-0.26246 -0.36966,-0.35487c0.43127,-0.20331 0.81632,-0.44852 1.15518,-0.73562c0.33885,-0.28587 0.63273,-0.60932 0.88163,-0.97035c0.25013,-0.3598 0.45529,-0.74917 0.61548,-1.16811c0.16018,-0.41894 0.27416,-0.85637 0.34193,-1.31228v-0.19407M318.88487,186.85738h1.01656c0,0 -0.00185,0.04744 -0.00554,0.14232c-0.00246,0.09611 -0.00678,0.17497 -0.01294,0.23658c-0.01848,0.65306 -0.0536,1.13669 -0.10535,1.4509c-0.05298,0.31421 -0.13492,0.52984 -0.24582,0.6469c-0.09858,0.1109 -0.2144,0.18606 -0.34748,0.22549c-0.13184,0.04066 -0.28094,0.07023 -0.44728,0.08872c-0.16018,0.00616 -0.3715,0.00924 -0.63396,0.00924c-0.26122,0 -0.5397,-0.00616 -0.83542,-0.01848c-0.00616,-0.12322 -0.03204,-0.26184 -0.07763,-0.41586c-0.04682,-0.15402 -0.10412,-0.28648 -0.17189,-0.39738c0.18483,0.01232 0.36165,0.0228 0.53046,0.03142c0.17004,0.00986 0.32098,0.01602 0.45283,0.01848c0.13308,0.0037 0.2335,0.00554 0.30127,0.00554c0.09241,0 0.16635,-0.00493 0.22179,-0.01479c0.05545,-0.00863 0.10474,-0.03142 0.14786,-0.06839c0.04313,-0.04929 0.07701,-0.14047 0.10166,-0.27355c0.02464,-0.13184 0.04621,-0.32283 0.06469,-0.57297c0.01848,-0.2489 0.03389,-0.56742 0.04621,-0.95556v-0.13862M311.7043,191.28402c0.2834,-0.06161 0.60254,-0.13554 0.95741,-0.22179c0.35364,-0.08625 0.72576,-0.17867 1.11636,-0.27724c0.39184,-0.09858 0.78182,-0.20023 1.16996,-0.30497l0.12014,0.96111c-0.536,0.15402 -1.07817,0.3062 -1.62649,0.45653c-0.54832,0.15156 -1.05044,0.28587 -1.50635,0.40293l-0.23104,-1.01656M311.83368,188.32677h3.15132v0.96111h-3.15132v-0.96111M313.0443,186.53393h1.00731v7.49479c0,0.26492 -0.03204,0.46946 -0.09611,0.61363c-0.06531,0.1454 -0.17805,0.25506 -0.33824,0.32899c-0.16018,0.08009 -0.36534,0.13061 -0.61548,0.15156c-0.2489,0.02218 -0.55818,0.03327 -0.92784,0.03327c-0.01848,-0.12938 -0.0573,-0.28648 -0.11644,-0.47131c-0.05791,-0.18483 -0.12075,-0.34193 -0.18852,-0.47131c0.22796,0.00616 0.44482,0.00924 0.6506,0.00924c0.20701,0 0.3444,0 0.41217,0c0.08009,0 0.13554,-0.01417 0.16635,-0.04251c0.0308,-0.02711 0.04621,-0.08071 0.04621,-0.1608v-7.48554M315.28996,186.85738h3.89988v0.92414h-2.92029v7.34692h-0.97959zM321.99923,188.03104h2.82787v6.17326h-2.82787v-0.87793h1.92221v-4.42664h-1.92221v-0.86869M321.41702,188.03104h0.90566v6.87561h-0.90566v-6.87561M321.95302,190.52622h2.42125v0.85945h-2.42125v-0.85945M322.75703,186.52469l1.08125,0.16635c-0.09858,0.30189 -0.20331,0.605 -0.31421,0.90935c-0.1109,0.30558 -0.21255,0.56619 -0.30497,0.78182l-0.79476,-0.18483c0.04313,-0.15402 0.08749,-0.32961 0.13308,-0.52676c0.04682,-0.19715 0.08872,-0.39615 0.12568,-0.597c0.03697,-0.19961 0.06161,-0.38259 0.07393,-0.54894M326.07469,187.97559h2.7447v0.90566h-2.7447v-0.90566M328.46822,187.97559h0.92414c0,0 0,0.02896 0,0.08687c0,0.05915 0,0.12383 0,0.19407c0,0.07147 -0.00308,0.12876 -0.00924,0.17189c-0.0308,1.04736 -0.06346,1.93454 -0.09796,2.66153c-0.03327,0.72699 -0.07331,1.3246 -0.12014,1.79283c-0.04559,0.46823 -0.09919,0.83296 -0.1608,1.09418c-0.06161,0.26246 -0.1417,0.45529 -0.24028,0.57851c-0.12322,0.16635 -0.24952,0.28032 -0.3789,0.34193c-0.12938,0.06161 -0.28648,0.10782 -0.47131,0.13862c-0.16635,0.01848 -0.3789,0.02772 -0.63766,0.02772c-0.25876,0 -0.52368,-0.00616 -0.79476,-0.01848c-0.00616,-0.13554 -0.0382,-0.29573 -0.09611,-0.48055c-0.05915,-0.18483 -0.138,-0.34501 -0.23658,-0.48055c0.30189,0.02464 0.57913,0.04005 0.83173,0.04621c0.2526,0.00616 0.43743,0.00924 0.55448,0.00924c0.09241,0 0.16758,-0.01109 0.22549,-0.03327c0.05915,-0.02095 0.11952,-0.06223 0.18113,-0.12383c0.07393,-0.08625 0.13862,-0.25445 0.19407,-0.50458c0.05545,-0.2489 0.10166,-0.60131 0.13862,-1.05722c0.03697,-0.45591 0.07208,-1.03504 0.10535,-1.73739c0.0345,-0.70235 0.06407,-1.54024 0.08872,-2.51366v-0.19407M326.14862,186.52469l0.95187,0.22179c-0.11706,0.45591 -0.25753,0.90689 -0.42141,1.35294c-0.16265,0.44728 -0.34255,0.86808 -0.5397,1.26238c-0.19715,0.3943 -0.40046,0.73931 -0.60993,1.03504c-0.06161,-0.05545 -0.1417,-0.12014 -0.24028,-0.19407c-0.09858,-0.07393 -0.20023,-0.14663 -0.30497,-0.2181c-0.10474,-0.07023 -0.19407,-0.12383 -0.268,-0.1608c0.20331,-0.26492 0.39553,-0.57482 0.57666,-0.92969c0.18236,-0.35364 0.34625,-0.73377 0.49164,-1.14039c0.14417,-0.40662 0.26554,-0.81632 0.36411,-1.22911M325.70504,190.56319l0.77628,-0.43435c0.15402,0.20947 0.32037,0.44174 0.49904,0.6968c0.17867,0.25629 0.34625,0.50273 0.50273,0.73931c0.15772,0.23781 0.28279,0.44913 0.3752,0.63396l-0.84097,0.51752c-0.08625,-0.19099 -0.20331,-0.4097 -0.35117,-0.65614c-0.14786,-0.24644 -0.30681,-0.50088 -0.47686,-0.76334c-0.16881,-0.26122 -0.33023,-0.50581 -0.48425,-0.73377zM331.14823,186.81117h6.82016v0.72083h-6.82016v-0.72083M331.55485,190.53546h6.86637v0.68386h-6.86637v-0.68386M332.39582,191.51505h5.51712v0.60069h-5.51712v-0.60069M331.53637,192.42995h7.23603v0.66538h-7.23603v-0.66538M331.7674,188.83504h1.94994v0.51752h-1.94994v-0.51752M331.56409,189.68525h2.16249v0.50828h-2.16249v-0.50828M335.37155,189.68525h2.19021v0.50828h-2.19021v-0.50828M335.37155,188.83504h1.96842v0.51752h-1.96842v-0.51752M334.05003,187.11614h0.97959v3.23449h-0.97959v-3.23449M330.55678,187.90166h8.02155v1.61725h-0.96111v-1.0258h-6.14554v1.0258h-0.9149v-1.61725M331.11126,190.53546h0.92414v1.27531c0,0.25876 -0.0154,0.53723 -0.04621,0.83542c-0.0308,0.29942 -0.0881,0.60316 -0.17189,0.9112c-0.08256,0.30805 -0.199,0.605 -0.34933,0.89087c-0.15156,0.2871 -0.34748,0.54771 -0.58775,0.78182c-0.04929,-0.06161 -0.11706,-0.13431 -0.20331,-0.2181c-0.08625,-0.08256 -0.17682,-0.16265 -0.2717,-0.24028c-0.09611,-0.0764 -0.18113,-0.13308 -0.25506,-0.17004c0.28956,-0.27724 0.50212,-0.57913 0.63766,-0.90566c0.13554,-0.32653 0.22364,-0.65491 0.2643,-0.98513c0.03943,-0.32899 0.05915,-0.63519 0.05915,-0.9186v-1.25683M335.36231,192.78113c0.18483,0.30189 0.44667,0.55264 0.78552,0.75225c0.33885,0.20085 0.74363,0.35795 1.21432,0.47131c0.47193,0.11459 0.99746,0.19037 1.57658,0.22734c-0.08625,0.08625 -0.17559,0.20331 -0.268,0.35117c-0.09241,0.14786 -0.16635,0.2834 -0.22179,0.40662c-0.63458,-0.06777 -1.20015,-0.18483 -1.69672,-0.35117c-0.49534,-0.16635 -0.92168,-0.38999 -1.27901,-0.67093c-0.35733,-0.27971 -0.65306,-0.62287 -0.88718,-1.02949l0.77628,-0.1571M337.51556,193.0214l0.73007,0.36966c-0.22179,0.14786 -0.45591,0.28464 -0.70235,0.41032c-0.24644,0.12692 -0.47131,0.23658 -0.67462,0.32899l-0.60069,-0.33269c0.13554,-0.07393 0.27847,-0.15587 0.4288,-0.24582c0.15156,-0.08872 0.29942,-0.18113 0.44359,-0.27724c0.1454,-0.09488 0.27047,-0.17928 0.3752,-0.25321M332.46975,195.16541l-0.04621,-0.6469l0.38814,-0.268l2.55063,-0.36042c-0.02464,0.1109 -0.04621,0.23843 -0.06469,0.38259c-0.01848,0.1454 -0.02772,0.2643 -0.02772,0.35672c-0.56681,0.09241 -1.02456,0.16758 -1.37327,0.22549c-0.34748,0.05915 -0.61671,0.1072 -0.8077,0.14417c-0.19099,0.03697 -0.32961,0.06777 -0.41586,0.09241c-0.08625,0.02464 -0.15402,0.04929 -0.20331,0.07393M332.46975,195.16541c-0.02464,-0.07393 -0.06161,-0.15895 -0.1109,-0.25506c-0.04929,-0.09488 -0.1035,-0.19037 -0.16265,-0.28648c-0.05791,-0.09488 -0.11151,-0.17312 -0.1608,-0.23473c0.10474,-0.05545 0.21687,-0.14971 0.33639,-0.28279c0.12075,-0.13184 0.18113,-0.3025 0.18113,-0.51197v-0.88718l0.96111,0.01848v1.50635c0,0 -0.03512,0.02156 -0.10535,0.06469c-0.07147,0.04313 -0.15834,0.10166 -0.26061,0.17559c-0.10104,0.07393 -0.20393,0.15094 -0.30866,0.23104c-0.10474,0.08009 -0.19222,0.16142 -0.26246,0.24397c-0.07147,0.08379 -0.1072,0.15649 -0.1072,0.2181zM342.56137,187.00524h5.46167v0.89642h-5.46167v-0.89642M342.26565,187.00524h0.96111v2.55987c0,0.40662 -0.0154,0.85329 -0.04621,1.34c-0.0308,0.48671 -0.08933,0.98267 -0.17559,1.48787c-0.08625,0.5052 -0.21255,0.99622 -0.3789,1.47308c-0.16635,0.47809 -0.38814,0.90812 -0.66538,1.2901c-0.05545,-0.05545 -0.13554,-0.11706 -0.24028,-0.18483c-0.10474,-0.06777 -0.20947,-0.13431 -0.31421,-0.19961c-0.10474,-0.06407 -0.19715,-0.11151 -0.27724,-0.14232c0.25876,-0.35733 0.46515,-0.75163 0.61917,-1.1829c0.15402,-0.43127 0.26615,-0.87362 0.33639,-1.32707c0.07147,-0.45221 0.11952,-0.89703 0.14417,-1.33446c0.02464,-0.43743 0.03697,-0.84405 0.03697,-1.21987v-2.55987M344.49283,190.75726v0.60069h2.32884v-0.60069h-2.32884M344.49283,189.49118v0.59145h2.32884v-0.59145h-2.32884M343.60565,188.77035h4.13091v3.30843h-4.13091v-3.30843M343.80896,192.4854l0.88718,0.24952c-0.09858,0.22179 -0.20947,0.44975 -0.33269,0.68386c-0.12322,0.23412 -0.2526,0.45714 -0.38814,0.66908c-0.13554,0.21317 -0.26184,0.39985 -0.3789,0.56003c-0.06161,-0.04929 -0.13862,-0.1035 -0.23104,-0.16265c-0.09241,-0.05791 -0.18976,-0.11644 -0.29203,-0.17559c-0.10104,-0.05791 -0.18852,-0.10535 -0.26246,-0.14232c0.19099,-0.22179 0.37582,-0.48363 0.55448,-0.78552c0.17867,-0.30189 0.32653,-0.60069 0.44359,-0.89642M346.43352,192.72568l0.85945,-0.33269c0.1109,0.18483 0.22672,0.38629 0.34748,0.60439c0.11952,0.21933 0.23165,0.43065 0.33639,0.63396c0.10474,0.20331 0.19099,0.38198 0.25876,0.536l-0.9149,0.39738c-0.05545,-0.16018 -0.13246,-0.34686 -0.23104,-0.56003c-0.09858,-0.21194 -0.20516,-0.43065 -0.31975,-0.65614c-0.11336,-0.22426 -0.22549,-0.43188 -0.33639,-0.62287M345.13973,187.9109l1.11821,0.20331c-0.1109,0.20947 -0.22487,0.41402 -0.34193,0.61363c-0.11706,0.20085 -0.22179,0.36904 -0.31421,0.50458l-0.79476,-0.22179c0.06161,-0.16018 0.12445,-0.34378 0.18852,-0.55079c0.06531,-0.20578 0.11336,-0.38876 0.14417,-0.54894M345.13048,191.76457h0.94262v2.43973c0,0.22179 -0.02341,0.39553 -0.07023,0.52122c-0.04559,0.12692 -0.1454,0.22426 -0.29942,0.29203c-0.14786,0.06777 -0.32961,0.10905 -0.54524,0.12383c-0.21563,0.01602 -0.47131,0.02095 -0.76704,0.01479c-0.01848,-0.12322 -0.05237,-0.26492 -0.10166,-0.4251c-0.04929,-0.16018 -0.10166,-0.30189 -0.1571,-0.4251c0.17867,0.00616 0.35302,0.00924 0.52306,0.00924c0.16881,0 0.27786,0 0.32715,0c0.09858,0 0.14786,-0.04313 0.14786,-0.12938v-2.42125M339.91833,187.31945l0.57297,-0.70235c0.16018,0.08625 0.337,0.18606 0.53046,0.29942c0.19469,0.11459 0.38321,0.22549 0.56557,0.33269c0.18113,0.10843 0.33023,0.20578 0.44728,0.29203l-0.60069,0.78552c-0.10474,-0.08625 -0.24644,-0.18976 -0.4251,-0.31051c-0.17867,-0.11952 -0.36534,-0.24089 -0.56003,-0.36411c-0.19345,-0.12322 -0.37027,-0.23412 -0.53046,-0.33269M339.47474,189.81463l0.56373,-0.71159c0.16018,0.08625 0.33762,0.18175 0.53231,0.28648c0.19345,0.10474 0.38075,0.20762 0.56188,0.30866c0.18236,0.10227 0.33207,0.19345 0.44913,0.27355l-0.58221,0.804c-0.1109,-0.09241 -0.25568,-0.19407 -0.43435,-0.30497c-0.17867,-0.1109 -0.36534,-0.22487 -0.56003,-0.34193c-0.19345,-0.11706 -0.37027,-0.22179 -0.53046,-0.31421M339.61336,194.50927c0.12938,-0.24644 0.27108,-0.53292 0.4251,-0.85945c0.15402,-0.32653 0.30928,-0.67462 0.46577,-1.04428c0.15772,-0.36966 0.30127,-0.73315 0.43065,-1.09049l0.81324,0.54524c-0.12322,0.32653 -0.2526,0.6623 -0.38814,1.00731c-0.13554,0.34501 -0.27539,0.6851 -0.41956,1.02025c-0.1454,0.33639 -0.28895,0.65552 -0.43065,0.95741zM354.18707,186.53393h0.93338v6.49671h-0.93338v-6.49671M351.39616,190.2767l4.8425,-2.05159l0.36966,0.85021l-4.8425,2.07932l-0.36966,-0.87793M352.33879,187.42111h0.94262v6.04388c0,0.17251 0.0154,0.30312 0.04621,0.39184c0.0308,0.08995 0.09549,0.15033 0.19407,0.18113c0.09858,0.0308 0.24336,0.04621 0.43435,0.04621c0.05545,0 0.14601,0 0.2717,0c0.12692,0 0.27047,0 0.43065,0c0.16018,0 0.32222,0 0.4861,0c0.16265,0 0.31051,0 0.44359,0c0.13184,0 0.22857,0 0.29018,0c0.17251,0 0.30189,-0.03265 0.38814,-0.09796c0.08625,-0.06407 0.15094,-0.18236 0.19407,-0.35487c0.04313,-0.17251 0.07393,-0.42202 0.09241,-0.74855c0.1109,0.08009 0.25137,0.15402 0.42141,0.22179c0.16881,0.06777 0.32098,0.11398 0.45653,0.13862c-0.04313,0.43743 -0.11398,0.78059 -0.21255,1.02949c-0.09858,0.25013 -0.24644,0.4288 -0.44359,0.536c-0.19715,0.10843 -0.47131,0.16265 -0.82249,0.16265c-0.06161,0 -0.16142,0 -0.29942,0c-0.13924,0 -0.29819,0 -0.47686,0c-0.17867,0 -0.3561,0 -0.53231,0c-0.17497,0 -0.33146,0 -0.46946,0c-0.13924,0 -0.23658,0 -0.29203,0c-0.3943,0 -0.70543,-0.04313 -0.93338,-0.12938c-0.22796,-0.08625 -0.38691,-0.23904 -0.47686,-0.45837c-0.08872,-0.2181 -0.13308,-0.52738 -0.13308,-0.92784v-6.03464M356.05383,188.33601h-0.07393l0.18483,-0.13862l0.18483,-0.12014l0.68386,0.24952l-0.03697,0.16635c0,0.43743 -0.00123,0.83912 -0.0037,1.20508c-0.0037,0.36719 -0.00739,0.69249 -0.01109,0.97589c-0.00246,0.2834 -0.00863,0.5206 -0.01848,0.71159c-0.00863,0.19099 -0.0191,0.33269 -0.03142,0.4251c-0.01848,0.20947 -0.06777,0.37089 -0.14786,0.48425c-0.08009,0.11459 -0.19407,0.19653 -0.34193,0.24582c-0.12938,0.05545 -0.28217,0.08749 -0.45837,0.09611c-0.17497,0.00986 -0.33331,0.01479 -0.47501,0.01479c-0.01232,-0.12322 -0.03881,-0.26677 -0.07948,-0.43065c-0.03943,-0.16265 -0.08379,-0.29634 -0.13308,-0.40108c0.08625,0.00616 0.17867,0.00924 0.27724,0.00924c0.09858,0 0.16943,0 0.21255,0c0.06161,0 0.1109,-0.01417 0.14786,-0.04251c0.03697,-0.02711 0.06161,-0.08379 0.07393,-0.17004c0.01232,-0.04929 0.02156,-0.15587 0.02772,-0.31975c0.00616,-0.16265 0.01109,-0.37951 0.01479,-0.6506c0.00246,-0.27108 0.0037,-0.59946 0.0037,-0.98513c0,-0.38444 0,-0.82618 0,-1.32522M348.76236,188.70566h3.02194v0.93338h-3.02194v-0.93338M349.87133,186.65407h0.93338v6.09009h-0.93338v-6.09009M348.65146,192.81809c0.2526,-0.09241 0.54709,-0.20516 0.88348,-0.33824c0.33516,-0.13184 0.68941,-0.27663 1.06276,-0.43435c0.37212,-0.15649 0.74609,-0.31174 1.12191,-0.46577l0.22179,0.87793c-0.49287,0.24028 -0.99376,0.47871 -1.50265,0.71529c-0.50766,0.23781 -0.97096,0.45221 -1.38991,0.6432zM362.83703,193.03065h2.80015v0.95187h-2.80015v-0.95187M362.47661,187.40263h3.64112v7.25451h-1.01656v-6.31188h-1.65421v6.37657h-0.97035v-7.3192M359.7966,187.41187h0.98883v7.73506h-0.98883v-7.73506M358.09618,189.27863h4.12167v0.92414h-4.12167v-0.92414M359.73191,189.62981l0.66538,0.22179c-0.09858,0.37582 -0.21871,0.7578 -0.36042,1.14594c-0.1417,0.38814 -0.29881,0.76827 -0.47131,1.14039c-0.17251,0.37335 -0.35733,0.71837 -0.55448,1.03504c-0.19715,0.3179 -0.40354,0.59392 -0.61917,0.82803c-0.04929,-0.14786 -0.12507,-0.3099 -0.22734,-0.4861c-0.10104,-0.17497 -0.19469,-0.32407 -0.28094,-0.44728c0.19715,-0.19715 0.38814,-0.43127 0.57297,-0.70235c0.18483,-0.27108 0.35918,-0.55941 0.52306,-0.865c0.16265,-0.30435 0.30866,-0.61671 0.43804,-0.93708c0.12938,-0.32037 0.23412,-0.6315 0.31421,-0.93338M361.57096,186.61711l0.6469,0.77628c-0.35117,0.12322 -0.74116,0.2372 -1.16996,0.34193c-0.42757,0.10474 -0.86808,0.19407 -1.32152,0.268c-0.45221,0.07393 -0.88779,0.13554 -1.30674,0.18483c-0.01848,-0.1109 -0.05545,-0.24212 -0.1109,-0.39368c-0.05545,-0.15033 -0.1109,-0.27786 -0.16635,-0.38259c0.40662,-0.05545 0.82064,-0.12322 1.24205,-0.20331c0.42264,-0.08009 0.8231,-0.17127 1.20138,-0.27355c0.37951,-0.10104 0.70789,-0.20701 0.98513,-0.3179M360.70226,190.29519c0.05545,0.04929 0.13739,0.13246 0.24582,0.24952c0.1072,0.11706 0.22549,0.24767 0.35487,0.39184c0.12938,0.1454 0.25753,0.29203 0.38444,0.43989c0.12568,0.14786 0.23781,0.28032 0.33639,0.39738c0.09858,0.11706 0.17251,0.20331 0.22179,0.25876l-0.58221,0.82249c-0.07393,-0.13554 -0.17374,-0.29881 -0.29942,-0.48979c-0.12692,-0.19099 -0.26122,-0.38691 -0.40293,-0.58775c-0.1417,-0.19961 -0.27847,-0.38876 -0.41032,-0.56742c-0.13308,-0.17867 -0.24274,-0.32653 -0.32899,-0.44359zM367.14353,191.29326c0.37582,-0.08625 0.82557,-0.20208 1.34925,-0.34748c0.52368,-0.14417 1.0566,-0.29326 1.59876,-0.44728l0.12938,0.89642c-0.48671,0.14786 -0.98144,0.29696 -1.48417,0.44728c-0.5015,0.15156 -0.95864,0.28587 -1.37143,0.40293l-0.22179,-0.95187M367.24518,188.28056h2.98498v0.9149h-2.98498v-0.9149M368.31719,186.54317h0.96111v7.4763c0,0.24028 -0.02772,0.4325 -0.08317,0.57666c-0.05545,0.1454 -0.15094,0.25814 -0.28648,0.33824c-0.13554,0.08625 -0.30681,0.1417 -0.51382,0.16635c-0.20578,0.02464 -0.45961,0.03389 -0.76149,0.02772c-0.00616,-0.12938 -0.03573,-0.28648 -0.08872,-0.47131c-0.05175,-0.18483 -0.11151,-0.34809 -0.17928,-0.48979c0.17251,0.00616 0.33454,0.01047 0.4861,0.01294c0.15033,0.0037 0.25321,0.00246 0.30866,-0.0037c0.05545,0 0.09549,-0.01232 0.12014,-0.03697c0.02464,-0.02464 0.03697,-0.06777 0.03697,-0.12938v-7.46706M371.18202,189.99022h4.3065v0.87793h-4.3065v-0.87793M371.20051,191.81078h4.27877v0.86869h-4.27877v-0.86869M371.24671,193.6683h4.56526v0.90566h-4.56526v-0.90566M371.55168,186.58938l0.93338,0.24952c-0.16635,0.5052 -0.36658,1.00547 -0.60069,1.50081c-0.23412,0.49657 -0.48671,0.96172 -0.7578,1.39545c-0.27108,0.43496 -0.55448,0.81571 -0.85021,1.14224c-0.04929,-0.06161 -0.11706,-0.13862 -0.20331,-0.23104c-0.08625,-0.09241 -0.17559,-0.18483 -0.268,-0.27724c-0.09241,-0.09241 -0.17251,-0.16635 -0.24028,-0.22179c0.27724,-0.2834 0.54031,-0.61486 0.78922,-0.99438c0.25013,-0.37828 0.47686,-0.78614 0.68017,-1.22356c0.20331,-0.43743 0.37582,-0.8841 0.51752,-1.34M371.85665,188.15118h3.75201v0.90566h-3.75201v6.11781h-0.95187v-6.24719l0.7578,-0.77628h0.19407M373.12272,188.62249h0.92414v5.53561h-0.92414v-5.53561M372.84548,186.9498l0.85021,-0.34193c0.13554,0.20331 0.26184,0.4251 0.3789,0.66538c0.11706,0.24028 0.20639,0.45283 0.268,0.63766l-0.89642,0.38814c-0.04929,-0.18483 -0.13246,-0.40354 -0.24952,-0.65614c-0.11706,-0.2526 -0.23412,-0.48363 -0.35117,-0.69311zM378.18701,189.38029h5.19367v0.94262h-5.19367v-0.94262M380.77461,191.55202h3.11436v0.92414h-3.11436v-0.92414M380.24785,189.87008h1.03504v4.52829l-1.03504,-0.12938v-4.39891M378.07612,190.84967l1.00731,0.10166c-0.12322,0.93646 -0.33269,1.76203 -0.62842,2.4767c-0.29573,0.71467 -0.70543,1.29996 -1.22911,1.75587c-0.04929,-0.06161 -0.12322,-0.13554 -0.22179,-0.22179c-0.09858,-0.08625 -0.20023,-0.17127 -0.30497,-0.25506c-0.10474,-0.08256 -0.19715,-0.1454 -0.27724,-0.18852c0.5052,-0.37582 0.88533,-0.87978 1.14039,-1.51189c0.25629,-0.63088 0.42757,-1.34986 0.51382,-2.15695M378.84315,192.00485c0.15402,0.43743 0.34994,0.78983 0.58775,1.05722c0.23658,0.26862 0.51197,0.47193 0.82618,0.60993c0.31421,0.13924 0.65922,0.23473 1.03504,0.28648c0.37582,0.05298 0.77628,0.07948 1.20138,0.07948c0.09241,0 0.22179,0 0.38814,0c0.16635,0 0.35117,0 0.55448,0c0.20331,0 0.4097,-0.00185 0.61917,-0.00554c0.20947,-0.00246 0.40354,-0.00554 0.58221,-0.00924c0.17867,-0.00246 0.32653,-0.0037 0.44359,-0.0037c-0.04929,0.07393 -0.09858,0.17251 -0.14786,0.29573c-0.04929,0.12322 -0.09241,0.24767 -0.12938,0.37335c-0.03697,0.12692 -0.06469,0.23966 -0.08317,0.33824h-0.47131h-1.81132c-0.536,0 -1.03011,-0.03697 -1.48232,-0.1109c-0.45345,-0.07393 -0.86192,-0.20824 -1.22541,-0.40293c-0.3635,-0.19345 -0.68694,-0.4707 -0.97035,-0.83173c-0.2834,-0.3598 -0.52368,-0.82618 -0.72083,-1.39915l0.804,-0.27724M376.83777,187.53201h7.88292v2.23642h-1.0258v-1.2938h-5.87754v1.2938h-0.97959v-2.23642M379.97985,186.728l0.98883,-0.27724c0.10474,0.19099 0.20947,0.40046 0.31421,0.62842c0.10474,0.22796 0.17867,0.42819 0.22179,0.60069l-1.04428,0.31421c-0.0308,-0.16635 -0.09241,-0.36966 -0.18483,-0.60993c-0.09241,-0.24028 -0.19099,-0.45899 -0.29573,-0.65614zM387.90898,188.54856v0.45283h4.17712v-0.45283h-4.17712M387.90898,187.4858v0.44359h4.17712v-0.44359h-4.17712M386.95711,186.82966h6.12706v2.82787h-6.12706v-2.82787M385.81118,190.04567h8.3912v0.79476h-8.3912v-0.79476M390.16388,191.24705h3.1236v0.78552h-3.1236v-0.78552M387.25284,191.27478h2.15325v0.70235h-2.15325v-0.70235M387.25284,192.43919h2.15325v0.69311h-2.15325v-0.69311M391.22665,191.91243c0.26492,0.59145 0.66846,1.09788 1.21062,1.51929c0.54216,0.42264 1.18906,0.72637 1.9407,0.9112c-0.10474,0.09241 -0.21255,0.21563 -0.32345,0.36966c-0.1109,0.15402 -0.20023,0.28956 -0.268,0.40662c-0.79476,-0.23412 -1.47431,-0.60685 -2.03866,-1.11821c-0.56311,-0.51136 -1.00177,-1.13361 -1.31598,-1.86677l0.79476,-0.22179M393.14886,191.24705h0.1571l0.16635,-0.02772l0.56373,0.22179c-0.18483,0.63458 -0.44975,1.19214 -0.79476,1.6727c-0.34501,0.48055 -0.74855,0.88718 -1.21062,1.21987c-0.46207,0.33269 -0.96111,0.60069 -1.49711,0.804c-0.04929,-0.10474 -0.12199,-0.2298 -0.2181,-0.3752c-0.09488,-0.14417 -0.18852,-0.25938 -0.28094,-0.34563c0.47439,-0.15402 0.92106,-0.37274 1.34,-0.65614c0.41894,-0.2834 0.78367,-0.62534 1.09418,-1.0258c0.31174,-0.40046 0.53847,-0.85021 0.68017,-1.34925v-0.13862M385.80194,193.83465c0.38198,-0.0308 0.81756,-0.06962 1.30674,-0.11644c0.49041,-0.04559 1.00793,-0.09488 1.55256,-0.14786c0.54586,-0.05175 1.08679,-0.10535 1.62279,-0.1608l0.00924,0.79476c-0.52368,0.06161 -1.04859,0.12137 -1.57474,0.17928c-0.52738,0.05915 -1.03442,0.11459 -1.52114,0.16635c-0.48671,0.05298 -0.92722,0.10104 -1.32152,0.14417l-0.07393,-0.85945M388.88857,190.30443h0.95187v4.86098h-0.95187v-4.86098M386.64291,190.32291h0.90566v3.7705h-0.90566zM395.17273,189.06608h8.19713v1.0258h-8.19713v-1.0258M399.84888,189.48194c0.19099,0.71467 0.45098,1.38128 0.77998,1.99984c0.33023,0.61979 0.7387,1.16195 1.22541,1.62649c0.48671,0.46577 1.05352,0.83111 1.70042,1.09603c-0.08009,0.06777 -0.16635,0.15834 -0.25876,0.2717c-0.09241,0.11459 -0.18175,0.22857 -0.268,0.34193c-0.08625,0.11459 -0.1571,0.22118 -0.21255,0.31975c-0.69003,-0.32653 -1.28948,-0.75348 -1.79838,-1.28086c-0.50766,-0.52614 -0.93708,-1.13731 -1.28825,-1.8335c-0.35117,-0.69619 -0.64382,-1.4663 -0.87793,-2.31035l0.99807,-0.23104M398.70295,186.54317h1.08125c0,0.44975 -0.01109,0.9303 -0.03327,1.44166c-0.02095,0.51136 -0.06839,1.03319 -0.14232,1.5655c-0.07393,0.53354 -0.19407,1.06338 -0.36042,1.58952c-0.16635,0.52738 -0.39738,1.03565 -0.69311,1.52483c-0.29573,0.49041 -0.67277,0.94632 -1.13115,1.36773c-0.45961,0.42264 -1.01902,0.79106 -1.67824,1.10527c-0.08009,-0.13554 -0.19099,-0.28217 -0.33269,-0.43989c-0.1417,-0.15649 -0.2834,-0.2871 -0.4251,-0.39184c0.64074,-0.28956 1.17674,-0.62225 1.60801,-0.99807c0.43127,-0.37582 0.78244,-0.78552 1.05352,-1.22911c0.27108,-0.44359 0.47871,-0.90566 0.62287,-1.38621c0.1454,-0.48055 0.24582,-0.96296 0.30127,-1.44721c0.05545,-0.48302 0.08933,-0.95433 0.10166,-1.41394c0.01232,-0.45837 0.02156,-0.88779 0.02772,-1.28825z" fill="#ffffff" fill-rule="nonzero" stroke-width="1"/><path d="M247.97552,197.52382h6.82016v0.72083h-6.82016v-0.72083M248.38214,201.24811h6.86637v0.68386h-6.86637v-0.68386M249.22311,202.2277h5.51712v0.60069h-5.51712v-0.60069M248.36366,203.1426h7.23603v0.66538h-7.23603v-0.66538M248.5947,199.54769h1.94994v0.51752h-1.94994v-0.51752M248.39138,200.3979h2.16249v0.50828h-2.16249v-0.50828M252.19885,200.3979h2.19021v0.50828h-2.19021v-0.50828M252.19885,199.54769h1.96842v0.51752h-1.96842v-0.51752M250.87732,197.82879h0.97959v3.23449h-0.97959v-3.23449M247.38407,198.61431h8.02155v1.61725h-0.96111v-1.0258h-6.14554v1.0258h-0.9149v-1.61725M247.93855,201.24811h0.92414v1.27531c0,0.25876 -0.0154,0.53723 -0.04621,0.83542c-0.0308,0.29942 -0.08749,0.60316 -0.17004,0.9112c-0.08379,0.30805 -0.20085,0.605 -0.35117,0.89087c-0.15156,0.2871 -0.34748,0.54771 -0.58775,0.78182c-0.04929,-0.06161 -0.11706,-0.13431 -0.20331,-0.2181c-0.08625,-0.08256 -0.17682,-0.16265 -0.2717,-0.24028c-0.09611,-0.0764 -0.18113,-0.13308 -0.25506,-0.17004c0.28956,-0.27724 0.50212,-0.57913 0.63766,-0.90566c0.13554,-0.32653 0.22364,-0.65491 0.2643,-0.98513c0.03943,-0.32899 0.05915,-0.63519 0.05915,-0.9186v-1.25683M252.1896,203.49377c0.18483,0.30189 0.44667,0.55264 0.78552,0.75225c0.33885,0.20085 0.74363,0.35795 1.21432,0.47131c0.47193,0.11459 0.99746,0.19037 1.57658,0.22734c-0.08625,0.08625 -0.17559,0.20331 -0.268,0.35117c-0.09241,0.14786 -0.16635,0.2834 -0.22179,0.40662c-0.63458,-0.06777 -1.19954,-0.18483 -1.69487,-0.35117c-0.49657,-0.16635 -0.92352,-0.38999 -1.28086,-0.67093c-0.35733,-0.27971 -0.65306,-0.62287 -0.88718,-1.02949l0.77628,-0.1571M254.34285,203.73405l0.73007,0.36966c-0.22179,0.14786 -0.45591,0.28464 -0.70235,0.41032c-0.24644,0.12692 -0.47131,0.23658 -0.67462,0.32899l-0.60069,-0.33269c0.13554,-0.07393 0.27847,-0.15587 0.4288,-0.24582c0.15156,-0.08872 0.30004,-0.18113 0.44544,-0.27724c0.14417,-0.09488 0.26862,-0.17928 0.37335,-0.25321M249.29704,205.87806l-0.04621,-0.6469l0.38814,-0.268l2.55063,-0.36042c-0.02464,0.1109 -0.04621,0.23843 -0.06469,0.38259c-0.01848,0.1454 -0.02772,0.2643 -0.02772,0.35672c-0.56681,0.09241 -1.02456,0.16758 -1.37327,0.22549c-0.34748,0.05915 -0.61671,0.1072 -0.8077,0.14417c-0.19099,0.03697 -0.32961,0.06777 -0.41586,0.09241c-0.08625,0.02464 -0.15402,0.04929 -0.20331,0.07393M249.29704,205.87806c-0.02464,-0.07393 -0.06161,-0.15895 -0.1109,-0.25506c-0.04929,-0.09488 -0.10289,-0.19037 -0.1608,-0.28648c-0.05915,-0.09488 -0.11336,-0.17312 -0.16265,-0.23473c0.10474,-0.05545 0.21748,-0.14971 0.33824,-0.28279c0.11952,-0.13184 0.17928,-0.3025 0.17928,-0.51197v-0.88718l0.96111,0.01848v1.50635c0,0 -0.03512,0.02156 -0.10535,0.06469c-0.07147,0.04313 -0.15834,0.10166 -0.26061,0.17559c-0.10104,0.07393 -0.20393,0.15094 -0.30866,0.23104c-0.10474,0.08009 -0.19222,0.16142 -0.26246,0.24397c-0.07147,0.08379 -0.1072,0.15649 -0.1072,0.2181zM258.27045,199.88962h6.45975v0.78552h-6.45975v-0.78552M258.35363,202.57887h5.13823v0.78552h-5.13823v-0.78552M259.58273,199.22424h0.94262v2.17173h1.84828v-2.17173h0.97035v2.92953h-3.76125v-2.92953M263.23309,202.57887h0.19407l0.17559,-0.03697l0.61917,0.32345c-0.2526,0.48055 -0.58221,0.89149 -0.98883,1.2328c-0.40662,0.34255 -0.86869,0.6278 -1.38621,0.85575c-0.51752,0.22796 -1.07508,0.4097 -1.6727,0.54524c-0.59761,0.13554 -1.21987,0.24028 -1.86677,0.31421c-0.03697,-0.11706 -0.09365,-0.25753 -0.17004,-0.42141c-0.07763,-0.16265 -0.15649,-0.29942 -0.23658,-0.41032c0.59145,-0.04313 1.16442,-0.11891 1.7189,-0.22734c0.55448,-0.1072 1.06708,-0.25013 1.53777,-0.4288c0.47193,-0.17867 0.88656,-0.40231 1.24389,-0.67093c0.35733,-0.26738 0.63458,-0.58283 0.83173,-0.94632v-0.12938M259.89694,203.17956c0.30189,0.35733 0.70358,0.6623 1.20508,0.9149c0.50273,0.2526 1.08371,0.45406 1.74293,0.60439c0.65922,0.15156 1.36773,0.25506 2.12552,0.31051c-0.06777,0.06777 -0.13862,0.15402 -0.21255,0.25876c-0.07393,0.10474 -0.14293,0.20947 -0.20701,0.31421c-0.06531,0.10474 -0.11644,0.20023 -0.15341,0.28648c-0.7886,-0.08009 -1.5199,-0.21748 -2.19391,-0.41217c-0.67524,-0.19345 -1.27778,-0.45221 -1.80762,-0.77628c-0.52984,-0.32283 -0.97959,-0.71529 -1.34925,-1.17736l0.85021,-0.32345M257.54962,198.0783h7.27299v0.92414h-7.27299v-0.92414M257.08755,198.0783h0.97959v2.4767c0,0.38198 -0.01047,0.80215 -0.03142,1.26053c-0.02218,0.45961 -0.06407,0.92969 -0.12568,1.41024c-0.06161,0.48055 -0.15094,0.9457 -0.268,1.39545c-0.11706,0.44975 -0.27108,0.86253 -0.46207,1.23835c-0.06777,-0.04929 -0.1571,-0.10166 -0.268,-0.1571c-0.1109,-0.05545 -0.22364,-0.10967 -0.33824,-0.16265c-0.11336,-0.05175 -0.21317,-0.08687 -0.29942,-0.10535c0.18483,-0.35733 0.33269,-0.74424 0.44359,-1.16072c0.1109,-0.41525 0.19222,-0.84158 0.24397,-1.27901c0.05298,-0.43743 0.08749,-0.86438 0.1035,-1.28086c0.01479,-0.41525 0.02218,-0.79846 0.02218,-1.14963v-2.48594M260.32205,197.41292l0.99807,-0.23104c0.10474,0.19715 0.20146,0.41278 0.29018,0.6469c0.08995,0.23412 0.15341,0.43435 0.19037,0.60069l-1.06276,0.25876c-0.02464,-0.17251 -0.07701,-0.3789 -0.1571,-0.61917c-0.08009,-0.24028 -0.16635,-0.45899 -0.25876,-0.65614z" fill="#ffffff" fill-rule="nonzero" stroke-width="1"/></g></g></svg>