<svg version="1.1" xmlns="http://www.w3.org/2000/svg" xmlns:xlink="http://www.w3.org/1999/xlink" width="208" height="32" viewBox="0,0,208,32"><g transform="translate(-240,-164)"><g stroke-miterlimit="10"><path d="M270.30343,186.24496v1.49417h8.03518v1.26267h-17.49304v-1.26267h7.9951v-1.49417h-6.69264v-1.1785h6.69264v-1.47312h-5.99131v-6.46068h5.99131v-1.47312h-7.97506v-1.24163h7.97506v-1.66252c-2.84537,0.12626 -5.04954,0.19642 -6.61249,0.21044l-0.06011,-1.3679c2.07058,-0.02806 4.55193,-0.10523 7.44406,-0.23149c2.89213,-0.12626 5.25994,-0.25955 7.10342,-0.39984l0.20038,1.34686c-2.07058,0.15433 -4.27474,0.28059 -6.61249,0.3788v1.72565h8.01514v1.24163h-8.01514v1.47312h6.0314v6.46068h-6.0314v1.47312h6.75276v1.1785zM318.33416,172.6712v1.49417h-7.97506v2.10446h6.77279v10.73273c0,0.64536 -0.07013,1.13991 -0.2104,1.48364c-0.14026,0.34373 -0.36737,0.58223 -0.68129,0.71552c-0.31392,0.13329 -0.76478,0.19992 -1.35255,0.19992h-2.46465l-0.28053,-1.47312h2.18412c0.3874,0 0.66793,-0.03157 0.84159,-0.0947c0.17366,-0.06313 0.29055,-0.18239 0.35066,-0.35776c0.06011,-0.17537 0.09017,-0.45246 0.09017,-0.83126v-8.9229h-12.14294v11.70078h-1.46276v-13.15286h6.81287v-2.10446h-8.05521v-1.49417h8.05521v-2.29386h1.54292v2.29386zM298.47665,183.7617h-9.95881c-1.01525,1.17849 -2.2576,2.39908 -3.72704,3.66175l8.997,-0.35776l-2.20416,-2.18863l0.98185,-1.03119c0.57442,0.54716 1.12545,1.08029 1.65312,1.59939c0.52767,0.5191 0.99188,0.97507 1.39263,1.3679c1.44272,1.43103 2.03717,2.01327 1.78337,1.7467l-1.04197,1.19955c-0.2271,-0.25253 -0.64121,-0.69447 -1.24235,-1.32581l-12.38339,0.5682l-0.38072,-1.49416c1.57631,-1.17849 2.95891,-2.42714 4.14783,-3.74594h-5.75086v-1.43104h2.64499v-10.94318h12.38339v10.94318h2.70511zM338.15159,173.36567l-1.66314,5.36637c0.70801,0.96805 1.20227,1.82737 1.4828,2.57796c0.28053,0.75059 0.42079,1.54677 0.42079,2.38856c0,1.19252 -0.24045,2.04133 -0.72136,2.5464c-0.48091,0.50507 -1.2891,0.7576 -2.42458,0.7576h-1.14216l-0.30057,-1.49416h1.04197c0.78816,0 1.3392,-0.15082 1.65312,-0.45246c0.31392,-0.30164 0.47089,-0.83828 0.47089,-1.60991c0,-0.67343 -0.15697,-1.36088 -0.47089,-2.06237c-0.31392,-0.70148 -0.81153,-1.48014 -1.49282,-2.33595l1.62306,-5.70308h-3.36636v16.43581h-1.42269v-17.99311h6.31192zM314.8075,184.03528v1.26267h-4.46844v3.7249h-1.50284v-3.7249h-4.58866v-1.26267h4.58866v-1.93611h-4.14783v-1.26267h2.72515c-0.62786,-0.88387 -1.16219,-1.59237 -1.60303,-2.1255l1.14216,-0.67343c-0.04008,-0.05612 0.23377,0.30164 0.82155,1.07327l0.94178,1.24163l-0.84159,0.48403h2.26427c0.66793,-0.91193 1.27575,-1.85192 1.82345,-2.81997l1.28242,0.65238c-0.26717,0.46298 -0.76145,1.18551 -1.48281,2.16759h2.60492v1.26267h-4.02761v1.93611zM330.27672,174.35477h-1.50284c-0.1603,1.30477 -0.36737,2.53237 -0.62117,3.68281h2.70511v1.51521h-10.03896v-1.51521h2.56484c-0.25381,-1.59939 -0.48759,-2.827 -0.70132,-3.68281h-1.36257v-1.49416h3.90738c-0.17366,-0.74357 -0.37404,-1.43103 -0.60113,-2.06236l1.4828,-0.3788c0.26717,0.84178 0.49426,1.65551 0.68129,2.44117h3.48659zM240.76765,188.22315v-1.70461h17.53312v1.70461zM241.88977,173.99701v-1.70461h15.26884v1.70461zM323.3837,187.99166v1.40998h-1.40265v-7.9338h7.65445v6.52382zM242.79148,180.71023v-1.68356h13.48547v1.68356zM294.32882,182.33066v-2.3149h-9.4779v2.3149zM284.85092,176.41714v2.23073h9.4779v-2.23073zM284.85092,175.09133h9.4779v-2.20969h-9.4779zM323.3837,186.56062h4.84915v-3.59862h-4.84915zM327.4113,174.35477h-3.30624c0.34733,1.73969 0.5811,2.96729 0.70132,3.68281h1.98374c0.24045,-1.09432 0.44752,-2.32192 0.62117,-3.68281zM270.30343,179.78427h4.56863v-1.45208h-4.56863zM274.87207,180.94172h-4.56863v1.43103h4.56863zM264.31212,179.78427h4.52855v-1.45208h-4.52855zM268.84067,180.94172h-4.52855v1.43103h4.52855z" fill="#ffffff" fill-rule="evenodd" stroke="#ffffff" stroke-width="0.5" stroke-linecap="round"/><path d="M240,196.00001v-32h208v32z" fill="none" fill-rule="nonzero" stroke="none" stroke-width="0" stroke-linecap="butt"/></g></g></svg>