<svg version="1.1" xmlns="http://www.w3.org/2000/svg" xmlns:xlink="http://www.w3.org/1999/xlink" width="208" height="32" viewBox="0,0,208,32"><g transform="translate(-237.84141,-164)"><g stroke-miterlimit="10"><path d="M237.84141,196v-32h208v32z" fill="none" stroke="none" stroke-width="0"/><path d="M245.19,187.08v-5.8398h2.041v1.6406h3.7012v1.6797h-3.7012v2.2168c1.6016,-0.26041 2.8744,-0.49804 3.8184,-0.71289l0.0586,1.6406c-2.14847,0.61198 -4.5801,1.11001 -7.2949,1.4941l-0.5664,-1.875c0.6966,-0.07813 1.3444,-0.15951 1.9434,-0.24414zM251.1177,172.119h7.8516v1.6797h-5.5664v1.7188h4.8633v5.127h-14.58c-0.03907,2.05727 -0.14323,3.66207 -0.3125,4.8144c-0.21485,1.47133 -0.64455,2.81247 -1.2891,4.0234l-1.7969,-1.4551c0.61198,-1.2044 1.00261,-2.6367 1.1719,-4.2969c0.12369,-1.21747 0.18554,-2.85483 0.18554,-4.9121v-6.6992h7.3047v-1.6211h2.168zM243.7056,173.7987v1.7188h2.9004v-1.7188zM243.7056,177.0799v2.002h2.9004v-2.002zM256.2056,179.0819v-2.002h-2.8027v2.002zM248.608,173.7987v1.7188h2.793v-1.7188zM248.608,177.0799v2.002h2.793v-2.002zM253.7056,183.2811c1.41273,-0.48177 2.63343,-1.04167 3.6621,-1.6797l1.2988,1.582c-1.46487,0.71613 -3.1185,1.32487 -4.9609,1.8262v1.4844c0,0.39063 0.12044,0.61849 0.36133,0.68359c0.20182,0.0586 0.68035,0.0879 1.4356,0.0879c0.90493,0 1.43553,-0.0944 1.5918,-0.2832c0.14323,-0.16927 0.2474,-0.7487 0.3125,-1.7383l0.0195,-0.30273l2.002,0.53711c-0.013,0.08463 -0.03253,0.32552 -0.0586,0.72265c-0.09765,1.26953 -0.38086,2.08983 -0.84961,2.4609c-0.46223,0.37109 -1.62433,0.55664 -3.4863,0.55664c-1.31513,0 -2.1908,-0.09766 -2.627,-0.29297c-0.48177,-0.22135 -0.72265,-0.69662 -0.72265,-1.4258v-6.2598h2.0215z" fill="#ffffff" stroke="none" stroke-width="1"/><path d="M329.20141,177.52c0.44922,1.52347 1.30209,3.14457 2.5586,4.8633c1.52993,2.09633 3.41143,3.7565 5.6445,4.9805l-1.3965,2.0117c-2.36327,-1.3932 -4.33593,-3.2389 -5.918,-5.5371c-0.85287,-1.25 -1.53647,-2.5228 -2.0508,-3.8184c-0.51432,1.7448 -1.31185,3.3301 -2.3926,4.7559c-1.58853,2.1094 -3.55143,3.6654 -5.8887,4.668l-1.377,-1.7871c2.44793,-1.02213 4.42383,-2.59767 5.9277,-4.7266c1.263,-1.79687 2.0117,-3.60027 2.2461,-5.4102h-7.793v-2.1191h7.8809v-4.707h2.2559v4.707h8.0469v2.1191z" fill="#ffffff" stroke="none" stroke-width="1"/><path d="M340.84141,185.18v4.3262h-1.9629v-18.223h5.1465l0.97656,0.83984c-0.53385,2.07033 -1.16862,3.9193 -1.9043,5.5469c0.91147,1.36067 1.3672,2.88737 1.3672,4.5801c0,1.08073 -0.16601,1.87173 -0.49804,2.373c-0.3125,0.46875 -0.88543,0.70313 -1.7188,0.70313c-0.60547,0 -1.07421,-0.04883 -1.4062,-0.14649zM340.84141,183.3148c0.37109,0.0586 0.69987,0.0879 0.98632,0.0879c0.31901,0 0.52735,-0.14974 0.625,-0.44922c0.08464,-0.26042 0.12696,-0.63802 0.12696,-1.1328c0,-1.36067 -0.42643,-2.70833 -1.2793,-4.043c0.6836,-1.6406 1.21093,-3.19333 1.582,-4.6582h-2.041zM352.70641,184.3207c-0.11719,-0.42318 -0.26693,-0.87565 -0.44922,-1.3574l1.2109,-0.45898c0.50781,1.13933 0.91471,2.4577 1.2207,3.9551l-1.4551,0.625c-0.07161,-0.48177 -0.14974,-0.91471 -0.23437,-1.2988c-1.64713,0.33203 -3.47657,0.57617 -5.4883,0.73242l-0.38086,-1.7773c1.15233,-0.0456 2.0117,-0.09117 2.5781,-0.13672c0.09766,-0.00667 0.17904,-0.01317 0.24414,-0.0195v-2.4609h-3.2226v7.3828h-1.8555v-9.1016h5.0781v-1.3184h-4.3359v-7.7246h10.361v7.7246h-4.3457v1.3184h5.2832v7.2949c0,0.6836 -0.22136,1.1426 -0.66407,1.377c-0.3125,0.16927 -0.78777,0.2539 -1.4258,0.2539c-0.65104,0 -1.34114,-0.04883 -2.0703,-0.14648l-0.26367,-1.8652c0.20182,0.02607 0.55339,0.0749 1.0547,0.14649c0.37761,0.05207 0.70638,0.0781 0.98633,0.0781c0.22135,0 0.35807,-0.07487 0.41016,-0.22461c0.03253,-0.08463 0.0488,-0.21159 0.0488,-0.38086v-4.8144h-3.418v2.3242c0.40365,-0.0456 0.78125,-0.08792 1.1328,-0.12695zM347.47201,173.0027v1.3965h2.4805v-1.3965zM347.47201,175.9421v1.5625h2.4805v-1.5625zM354.11261,177.5046v-1.5625h-2.4805v1.5625zM354.11261,174.3991v-1.3965h-2.4805v1.3965z" fill="#ffffff" stroke="none" stroke-width="1"/><path d="M368.07141,178.41v7.7344c0,0.5013 0.21485,0.80403 0.64454,0.9082c0.44271,0.11068 1.45507,0.16602 3.0371,0.16602c1.54293,0 2.5618,-0.07813 3.0566,-0.23438c0.27995,-0.09115 0.46224,-0.34505 0.54687,-0.76172c0.11068,-0.58593 0.16927,-1.2793 0.17578,-2.0801l2.041,0.57618c-0.10417,1.9206 -0.36784,3.1478 -0.79102,3.6816c-0.27995,0.35156 -0.70311,0.55989 -1.2695,0.625c-0.89193,0.09765 -2.4056,0.14648 -4.541,0.14648c-1.65367,0 -2.73767,-0.04557 -3.252,-0.13672c-0.77473,-0.13021 -1.26627,-0.47201 -1.4746,-1.0254c-0.10417,-0.29297 -0.15625,-0.6836 -0.15625,-1.1719v-7.7441l-1.8652,0.64453l-0.45899,-1.8945l2.3242,-0.80078v-5.2637h1.9824v4.5801l2.0996,-0.71289v-5.1465h1.9629v4.4629l3.2715,-1.123l1.0254,0.625v7.3144c0,0.50781 -0.12044,0.88541 -0.36133,1.1328c-0.27343,0.27343 -0.73243,0.41015 -1.377,0.41015c-0.52735,0 -1.08725,-0.04557 -1.6797,-0.13672l-0.32226,-1.8652c0.38411,0.09765 0.77475,0.14648 1.1719,0.14648c0.28646,0 0.46224,-0.05859 0.52734,-0.17578c0.06513,-0.09765 0.0977,-0.26041 0.0977,-0.48828v-4.6191l-2.3535,0.82031v7.9004h-1.9629v-7.2266zM360.89371,175.2166v-4.7168h2.0996v4.7168h1.8945v1.9824h-1.8945v6.2109c0.6836,-0.23437 1.36067,-0.47851 2.0312,-0.73242l0.18555,1.8848c-2.1094,0.96353 -4.2741,1.77083 -6.4941,2.4219l-0.6836,-2.0801c1.0026,-0.26041 1.8815,-0.50781 2.6367,-0.74218c0.09115,-0.03253 0.16602,-0.05533 0.22461,-0.0684v-6.8945h-2.4805v-1.9824z" fill="#ffffff" stroke="none" stroke-width="1"/><path d="M387.32141,175.76c-0.0456,1.08727 -0.1107,2.0443 -0.19531,2.8711h7.8711c-0.09765,4.51827 -0.35156,7.4512 -0.76172,8.7988c-0.20833,0.67707 -0.5957,1.1458 -1.1621,1.4062c-0.44271,0.20182 -1.09051,0.30273 -1.9434,0.30273c-0.89847,0 -1.91733,-0.06836 -3.0566,-0.20507l-0.38085,-2.1973c1.52993,0.21485 2.6074,0.32227 3.2324,0.32227c0.52734,0 0.86264,-0.14974 1.0059,-0.44922c0.34505,-0.7292 0.58593,-2.74093 0.72265,-6.0352h-5.8105c-0.21485,1.17187 -0.51758,2.1875 -0.90821,3.0469c-1.08727,2.37627 -2.90367,4.26103 -5.4492,5.6543l-1.543,-1.7188c2.55207,-1.32813 4.23827,-3.06967 5.0586,-5.2246c0.54687,-1.4388 0.90167,-3.62957 1.0644,-6.5723h-6.4648v-2.002h7.9785v-3.2617h2.2559v3.2617h8.2422v2.002z" fill="#ffffff" stroke="none" stroke-width="1"/><path d="M316.87519,183.92108h-9.81761c-1.00086,1.19037 -2.22559,2.42326 -3.67419,3.69865l8.86943,-0.36136l-2.17291,-2.21069l0.96793,-1.04158c0.56628,0.55267 1.10951,1.09118 1.62969,1.61551c0.52018,0.52433 0.97781,0.98489 1.37288,1.38168c0.9869,1.00298 1.57116,1.59317 1.75278,1.77055l-1.02189,1.20537c-0.22388,-0.25508 -0.63213,-0.70147 -1.22474,-1.33917l-12.20781,0.57393l-0.37532,-1.50922c1.55396,-1.19037 2.91697,-2.4516 4.08902,-3.78368h-5.66933v-1.44545h2.6075v-11.05344h12.20781v11.05344h2.66675zM312.78616,182.47563v-2.33823h-9.34351v2.33823zM303.44265,176.50252v2.2532h9.34351v-2.2532zM303.44265,175.16336h9.34351v-2.23194h-9.34351z" fill="#ffffff" stroke="#ffffff" stroke-width="0.5"/><path d="" fill="#ffffff" stroke="#ffffff" stroke-width="0.5"/><path d="" fill="#ffffff" stroke="#ffffff" stroke-width="0.5"/><path d="" fill="#ffffff" stroke="#ffffff" stroke-width="0.5"/><path d="M283.68891,173.82419v5.88808h12.66214l-0.2963,7.03594c-0.07902,1.077 -0.34569,1.83161 -0.80003,2.26383c-0.45434,0.43222 -1.18851,0.64833 -2.20254,0.64833h-2.27168l-0.27656,-1.50922h1.93587c0.52677,0 0.93501,-0.06377 1.22473,-0.19131c0.28972,-0.12754 0.49714,-0.32594 0.62224,-0.59519c0.12511,-0.26925 0.20742,-0.64479 0.24692,-1.12661c0.03951,-0.6377 0.08231,-1.48087 0.1284,-2.52953c0.04609,-1.04866 0.08231,-1.89184 0.10865,-2.52954h-12.58313v-8.82149h3.83222l0.25679,-0.68021l0.5136,-1.44545l1.54079,0.1913l-0.2568,0.74399c-0.14486,0.45347 -0.27655,0.85027 -0.39507,1.19037h6.81504c-0.11852,2.21069 -0.19095,3.45066 -0.21729,3.71991c-0.06585,0.68021 -0.18766,1.20808 -0.36544,1.58361c-0.17778,0.37554 -0.44775,0.64479 -0.8099,0.80776c-0.36215,0.16297 -0.86588,0.24445 -1.51117,0.24445h-1.69882l-0.27655,-1.36042h1.54079c0.59261,0 1.00086,-0.10274 1.22473,-0.30822c0.22388,-0.20548 0.35557,-0.55622 0.39507,-1.05221l0.09877,-1.06283c0.03951,-0.42513 0.06585,-0.79358 0.07902,-1.10534z" fill="#ffffff" stroke="#ffffff" stroke-width="0.5"/><path d="" fill="#ffffff" stroke="#ffffff" stroke-width="0.5"/><path d="" fill="#ffffff" stroke="#ffffff" stroke-width="0.5"/><path d="" fill="#ffffff" stroke="#ffffff" stroke-width="0.5"/><path d="" fill="#ffffff" stroke="#ffffff" stroke-width="0.5"/><path d="M272.38878,171.73316v14.42833c0,0.61051 0.09141,1.01751 0.27422,1.22102c0.18281,0.20351 0.53268,0.30525 1.04959,0.30525h1.02122c0.41605,0 0.72494,-0.04071 0.92666,-0.1221c0.20173,-0.0814 0.34356,-0.22385 0.42551,-0.42736c0.08195,-0.20351 0.13553,-0.51554 0.16075,-0.93611c0.02522,-0.27134 0.05043,-0.78688 0.07565,-1.54663c0.02522,-0.75974 0.03152,-1.28207 0.01891,-1.56697l1.41836,0.28491c0,0.47484 -0.01261,1.04125 -0.03783,1.69925c-0.02522,0.65799 -0.05043,1.22441 -0.07565,1.69925c-0.03783,0.65121 -0.14814,1.14979 -0.33095,1.49574c-0.18281,0.34596 -0.46332,0.59354 -0.84156,0.74278c-0.37823,0.14923 -0.90145,0.22385 -1.56965,0.22385h-1.41836c-0.64299,0 -1.15045,-0.0814 -1.52238,-0.2442c-0.37193,-0.1628 -0.64613,-0.44431 -0.82264,-0.84454c-0.17651,-0.40022 -0.26476,-0.95985 -0.26476,-1.67889v-14.73358z" fill="#ffffff" stroke="#ffffff" stroke-width="0.5"/><path d="M262.7866,189.21995l-1.06059,-1.27668c1.10254,-0.91561 1.92045,-1.76029 2.45375,-2.53404c0.53329,-0.77376 0.9018,-1.68291 1.10554,-2.72747c0.20373,-1.04456 0.30559,-2.46957 0.30559,-4.27499v-6.69295h1.47405v6.69295c0,1.99886 -0.12284,3.6044 -0.36851,4.81661c-0.24568,1.21221 -0.66512,2.26322 -1.25833,3.15304c-0.59322,0.88981 -1.47704,1.83766 -2.65149,2.84354z" fill="#ffffff" stroke="#ffffff" stroke-width="0.5"/><path d="" fill="#ffffff" stroke="#ffffff" stroke-width="0.5"/><path d="M290.44469,185.96172v-3.18849h1.44203v4.63394h-11.00284v-4.63394h1.44203v3.18849h3.29888v-3.91121h1.54079v3.91121z" fill="#ffffff" stroke="#ffffff" stroke-width="0.5"/><path d="M289.18045,177.01268l-0.90867,1.16912c-1.47494,-1.26122 -2.52848,-2.13275 -3.1606,-2.61456l0.86917,-1.16912c0.56628,0.4393 1.63297,1.31082 3.20011,2.61456z" fill="#ffffff" stroke="#ffffff" stroke-width="0.5"/><path d="M315.80319,188.77384l0.0053,-0.00625c0.07659,0.08242 0.07483,0.0845 -0.0053,0.00625z" fill="#ffffff" stroke="#ffffff" stroke-width="0.5"/><path d="M257.4362,185.57912l-0.00961,0.14653c0.00173,-0.04929 0.00337,-0.09852 0.00494,-0.14767z" fill="#ffffff" stroke="#ffffff" stroke-width="0.5"/></g></g></svg>