<svg version="1.1" xmlns="http://www.w3.org/2000/svg" xmlns:xlink="http://www.w3.org/1999/xlink" width="134.32866" height="18.4242" viewBox="0,0,134.32866,18.4242"><g transform="translate(-240.68028,-171.02268)"><g fill="#ffffff" stroke="none" stroke-miterlimit="10"><path d="M240.68028,172.56618h15.36976v1.71933h-15.36976v-1.71933M246.79769,177.09896h8.86261v1.69979h-8.86261v-1.69979M247.23827,180.92838h8.72704v1.75841h-8.72704v-1.75841M244.44223,171.17899h1.84708v4.29833h-1.84708v-4.29833M250.42407,171.17899h1.86403v4.14203h-1.86403v-4.14203M246.76379,180.92838h1.67763v2.34454c0,0.63824 -0.04745,1.32857 -0.14234,2.07101c-0.09715,0.74244 -0.27565,1.46794 -0.53548,2.17652c-0.25983,0.71118 -0.64959,1.34681 -1.16925,1.90689c-0.09038,-0.11723 -0.22594,-0.25139 -0.4067,-0.40248c-0.18075,-0.14849 -0.36151,-0.29437 -0.54226,-0.43765c-0.18075,-0.14328 -0.33891,-0.24748 -0.47448,-0.31261c0.46318,-0.49496 0.80775,-1.03551 1.03369,-1.62164c0.22594,-0.58614 0.37619,-1.17618 0.45076,-1.77013c0.0723,-0.59135 0.10845,-1.14101 0.10845,-1.649v-2.30547M241.18865,176.06345h3.94835v1.71933h-2.33851v11.6641h-1.60984v-13.38343M244.59474,176.06345h0.28808l0.25419,-0.07815l1.15231,0.66429c-0.19205,0.61219 -0.40896,1.26345 -0.65072,1.95379c-0.24402,0.69034 -0.479,1.32857 -0.70494,1.91471c0.48578,0.61219 0.81339,1.19181 0.98285,1.73887c0.16946,0.54706 0.25419,1.05504 0.25419,1.52395c0,0.52101 -0.05649,0.95996 -0.16946,1.31685c-0.11297,0.3595 -0.29373,0.63693 -0.54226,0.83231c-0.23724,0.19538 -0.52532,0.31912 -0.86423,0.37122c-0.15816,0.02605 -0.33666,0.04559 -0.53548,0.05861c-0.19657,0.01303 -0.39653,0.01303 -0.59988,0c-0.0113,-0.2605 -0.0531,-0.55097 -0.1254,-0.87139c-0.07456,-0.31782 -0.17398,-0.58744 -0.29824,-0.80887c0.16946,0.01303 0.31971,0.02214 0.45076,0.02735c0.12879,0.00782 0.24967,0.01172 0.36264,0.01172c0.18075,-0.01303 0.32762,-0.05861 0.44059,-0.13677c0.11297,-0.07815 0.18979,-0.20189 0.23046,-0.37122c0.03841,-0.16933 0.05762,-0.36471 0.05762,-0.58614c0,-0.39076 -0.07908,-0.83101 -0.23724,-1.32076c-0.15816,-0.48714 -0.47448,-1.01076 -0.94896,-1.57084c0.15816,-0.46891 0.31406,-0.96387 0.4677,-1.48488c0.15138,-0.52101 0.2926,-1.02248 0.42364,-1.50442c0.12879,-0.48193 0.23272,-0.89874 0.3118,-1.25042v-0.42983M249.89875,175.73131l1.5929,-0.62521c0.19205,0.24748 0.37845,0.53013 0.55921,0.84794c0.18075,0.32042 0.31632,0.60437 0.4067,0.85185l-1.66068,0.76198c-0.06778,-0.2605 -0.18979,-0.56399 -0.36603,-0.91046c-0.17398,-0.34387 -0.35134,-0.65256 -0.5321,-0.92609M248.00083,179.2872l1.50817,-0.68383c0.20335,0.28656 0.39766,0.61219 0.58293,0.97689c0.18753,0.36471 0.32649,0.68383 0.41686,0.95736l-1.60984,0.74244c-0.06778,-0.27353 -0.18866,-0.59916 -0.36264,-0.97689c-0.17624,-0.37773 -0.35473,-0.71639 -0.53548,-1.01597M252.91509,178.62291l1.62679,0.64475c-0.21465,0.44286 -0.43494,0.87269 -0.66088,1.2895c-0.22594,0.41681 -0.42929,0.775 -0.61005,1.07458l-1.3726,-0.58614c0.12427,-0.23445 0.24854,-0.49235 0.37281,-0.7737c0.12427,-0.27874 0.24628,-0.56529 0.36603,-0.85967c0.11749,-0.29176 0.21013,-0.55488 0.27791,-0.78933zM257.77851,172.89832h15.0139v1.95379h-15.0139v-1.95379M261.43878,181.14329h7.7103v1.64118h-7.7103v-1.64118M261.08292,184.26935h8.42202v1.69979h-8.42202v-1.69979M264.37039,181.94435h1.72846v6.97502h-1.72846v-6.97502M258.49023,176.49328h12.2687v1.93425h-10.43856v10.96074h-1.83014v-12.89499M270.2336,176.49328h1.86403v10.72628c0,0.53403 -0.06439,0.94042 -0.19318,1.21916c-0.13105,0.28135 -0.36038,0.49366 -0.688,0.63693c-0.32762,0.14328 -0.73996,0.23055 -1.23704,0.26181c-0.49707,0.03386 -1.08453,0.0508 -1.76235,0.0508c-0.04519,-0.2605 -0.12653,-0.56399 -0.24402,-0.91046c-0.11975,-0.34387 -0.24176,-0.63954 -0.36603,-0.88702c0.30502,0.01303 0.61005,0.02605 0.91507,0.03908c0.30502,0.01303 0.57954,0.01563 0.82356,0.00782c0.24176,-0.00521 0.40218,-0.00782 0.48126,-0.00782c0.15816,-0.01303 0.26548,-0.0495 0.32197,-0.10941c0.05649,-0.05731 0.08473,-0.15761 0.08473,-0.30088v-10.72628M262.1505,178.97459l1.44039,-0.48845c0.20335,0.32563 0.39879,0.69034 0.58632,1.09412c0.18527,0.40378 0.3231,0.76198 0.41348,1.07458l-1.52511,0.58614c-0.06778,-0.31261 -0.19205,-0.68383 -0.37281,-1.11366c-0.18075,-0.42983 -0.36151,-0.81408 -0.54226,-1.15273M267.03087,178.50568l1.54206,0.50798c-0.22594,0.46891 -0.45189,0.93131 -0.67783,1.38719c-0.22594,0.45588 -0.44624,0.85315 -0.66088,1.19181l-1.28787,-0.44937c0.13557,-0.24748 0.26774,-0.52752 0.39653,-0.84013c0.13105,-0.31261 0.25871,-0.62521 0.38297,-0.93782c0.12427,-0.31261 0.22594,-0.59916 0.30502,-0.85967M264.30261,171.27668h1.99959v6.56472h-1.99959zM282.6887,174.94979h7.13414v1.91471h-7.13414v-1.91471M282.909,178.8769h6.60883v1.93425h-6.60883v-1.93425M282.3159,183.07754h7.86281v1.97332h-7.86281v-1.97332M282.77343,171.88235l1.44039,-0.5666c0.27113,0.48193 0.51402,1.01857 0.72867,1.60992c0.21465,0.59395 0.36716,1.11887 0.45753,1.57475l-1.55901,0.64475c-0.05649,-0.45588 -0.1864,-0.98731 -0.38975,-1.59429c-0.20335,-0.60437 -0.42929,-1.16055 -0.67783,-1.66853M287.82325,171.15945l1.76235,0.46891c-0.22594,0.59916 -0.45189,1.20093 -0.67783,1.8053c-0.22594,0.60698 -0.44059,1.12538 -0.64394,1.55521l-1.50817,-0.44937c0.13557,-0.31261 0.26887,-0.66429 0.39992,-1.05504c0.12879,-0.39076 0.25532,-0.79193 0.37958,-1.20353c0.12427,-0.40899 0.22029,-0.78282 0.28808,-1.12147M285.2814,175.90715h1.74541v13.5202h-1.74541v-13.5202M274.35141,175.34055h8.15089v1.75841h-8.15089v-1.75841M275.28343,172.1168h6.35464v8.18636h-6.45632v-1.77795h4.76175v-4.65001h-4.66007v-1.75841M276.11377,181.94435h1.64373v7.483h-1.64373v-7.483M276.77465,181.94435h5.13455v6.50611h-5.13455v-1.81702h3.3722v-2.87207h-3.3722v-1.81702M277.02884,172.78109l1.72846,0.07815c-0.09038,1.91471 -0.25193,3.67963 -0.48465,5.29476c-0.23046,1.61513 -0.57728,3.07005 -1.04047,4.36476c-0.46318,1.29731 -1.10147,2.42139 -1.91487,3.37223c-0.06778,-0.13025 -0.17285,-0.29958 -0.31519,-0.50798c-0.14009,-0.2084 -0.28921,-0.41681 -0.44737,-0.62521c-0.15816,-0.2084 -0.29937,-0.37122 -0.42364,-0.48845c0.72302,-0.79454 1.28223,-1.76492 1.67763,-2.91114c0.3954,-1.14622 0.68348,-2.44614 0.86423,-3.89976c0.18075,-1.45101 0.29937,-3.01013 0.35586,-4.67736zM304.76897,179.63888h1.79625c0,0 -0.00226,0.0521 -0.00678,0.1563c-0.00678,0.1042 -0.01017,0.22143 -0.01017,0.35168c0,0.13025 -0.00565,0.24748 -0.01695,0.35168c-0.07908,1.74538 -0.16381,3.16123 -0.25419,4.24753c-0.09038,1.08891 -0.1977,1.92643 -0.32197,2.51257c-0.12427,0.58614 -0.27678,1.00294 -0.45753,1.25042c-0.19205,0.2605 -0.39766,0.44286 -0.61682,0.54706c-0.22142,0.1042 -0.479,0.17584 -0.77272,0.21492c-0.24854,0.03908 -0.57277,0.05861 -0.97268,0.05861c-0.40218,0 -0.82356,-0.00651 -1.26415,-0.01954c-0.02259,-0.28656 -0.08134,-0.61219 -0.17624,-0.97689c-0.09715,-0.36471 -0.21352,-0.6708 -0.34908,-0.91828c0.41799,0.03908 0.80775,0.06122 1.16925,0.06643c0.36151,0.00782 0.62699,0.01172 0.79645,0.01172c0.14686,0 0.26887,-0.01303 0.36603,-0.03908c0.0949,-0.02605 0.18753,-0.09118 0.27791,-0.19538c0.12427,-0.1563 0.23724,-0.49496 0.33891,-1.01597c0.10167,-0.52101 0.18866,-1.2895 0.26096,-2.30547c0.07456,-1.01597 0.14573,-2.33803 0.21352,-3.96619v-0.33214M296.39778,182.10065h1.67763v4.63047h-1.67763v-4.63047M300.63421,182.86263h1.66068v5.45106h-1.66068v-5.45106M292.31387,182.9017h1.66068v3.12606h7.35444v1.73887h-9.01512v-4.86493M302.87105,172.83971h1.69457c0,0 0,0.09118 0,0.27353c0,0.18235 -0.00565,0.33214 -0.01695,0.44937c-0.05649,0.97689 -0.11523,1.79097 -0.17624,2.44223c-0.06326,0.65126 -0.1367,1.16576 -0.22029,1.54349c-0.08586,0.37773 -0.20222,0.65126 -0.34908,0.82059c-0.13557,0.19538 -0.28469,0.33475 -0.44737,0.41811c-0.16494,0.08597 -0.35473,0.14198 -0.56938,0.16803c-0.18075,0.03908 -0.41461,0.06122 -0.70155,0.06643c-0.28921,0.00782 -0.59762,0.00521 -0.92524,-0.00782c-0.02259,-0.28656 -0.07343,-0.60307 -0.15251,-0.94954c-0.07908,-0.34387 -0.18075,-0.63954 -0.30502,-0.88702c0.25983,0.02605 0.49707,0.04559 0.71172,0.05861c0.21465,0.01303 0.37845,0.01954 0.49143,0.01954c0.10167,0 0.19205,-0.01303 0.27113,-0.03908c0.07908,-0.02605 0.14686,-0.07815 0.20335,-0.1563c0.11297,-0.14328 0.209,-0.50798 0.28808,-1.09412c0.07908,-0.58614 0.14686,-1.54349 0.20335,-2.87207v-0.25399M297.88901,171.12037l2.16905,0.21492c-0.18075,0.48193 -0.3841,0.94694 -0.61005,1.395c-0.22594,0.45067 -0.42929,0.83882 -0.61005,1.16446l-1.60984,-0.33214c0.12427,-0.36471 0.2508,-0.775 0.37958,-1.23089c0.13105,-0.45588 0.22481,-0.85967 0.2813,-1.21135M296.02498,176.5519l0.89812,-1.32857c0.3954,0.1563 0.81904,0.34517 1.27093,0.5666c0.45189,0.22143 0.88457,0.44937 1.29804,0.68383c0.41122,0.23445 0.75239,0.45588 1.02352,0.66429l-0.94896,1.46534c-0.24854,-0.2084 -0.57615,-0.43634 -0.98285,-0.68383c-0.4067,-0.24748 -0.83373,-0.49235 -1.2811,-0.73462c-0.44511,-0.23967 -0.87101,-0.45067 -1.27771,-0.63303M303.39636,172.83971v1.87563h-8.06616v4.92354h9.98102v1.83656h-11.76032v-8.63573zM310.51356,181.65128v-1.62164l1.06758,-0.7229h11.01471v2.05148h-10.13354c-0.31632,0 -0.61343,0.00912 -0.89134,0.02735c-0.27565,0.02084 -0.50611,0.0534 -0.69139,0.09769c-0.18753,0.04689 -0.30954,0.1029 -0.36603,0.16803M316.02092,176.72774h1.84708v10.10107c0,0.54706 -0.05649,0.9795 -0.16946,1.29731c-0.11297,0.32042 -0.33891,0.56529 -0.67783,0.73462c-0.31632,0.18235 -0.70607,0.29567 -1.16925,0.33996c-0.46318,0.04689 -1.00545,0.07034 -1.62679,0.07034c-0.02259,-0.2084 -0.07343,-0.44286 -0.15251,-0.70336c-0.07908,-0.2605 -0.16155,-0.5184 -0.24741,-0.7737c-0.0836,-0.25269 -0.17059,-0.47672 -0.26096,-0.6721c0.44059,0.01303 0.86423,0.02214 1.27093,0.02735c0.4067,0.00782 0.68348,0.00521 0.83034,-0.00782c0.13557,0 0.2282,-0.02605 0.27791,-0.07815c0.05197,-0.0521 0.07795,-0.14328 0.07795,-0.27353v-10.062M311.69976,182.62817l1.83014,0.58614c-0.25983,0.69034 -0.57051,1.37677 -0.93201,2.05929c-0.36151,0.68513 -0.74335,1.32727 -1.14553,1.92643c-0.39992,0.59916 -0.80887,1.12017 -1.22687,1.56303c-0.11297,-0.11723 -0.26209,-0.26441 -0.44737,-0.44156c-0.18753,-0.17454 -0.37733,-0.34387 -0.56938,-0.50798c-0.19205,-0.16151 -0.36151,-0.29437 -0.50837,-0.39857c0.61005,-0.57311 1.18394,-1.2895 1.72168,-2.14916c0.53548,-0.85967 0.96139,-1.73887 1.27771,-2.63761M318.90169,183.4683l1.54206,-0.84013c0.4067,0.48193 0.82695,1.01206 1.26076,1.59038c0.43607,0.58093 0.8439,1.15404 1.22348,1.71933c0.37733,0.5679 0.67896,1.07979 0.9049,1.53568l-1.66068,0.99643c-0.20335,-0.45588 -0.48352,-0.97429 -0.84051,-1.55521c-0.35473,-0.57832 -0.74335,-1.17097 -1.16586,-1.77795c-0.42477,-0.60437 -0.84616,-1.16055 -1.26415,-1.66853M308.88677,173.69937h14.48858v2.0124h-14.48858v-2.0124M310.51356,181.65128c-0.03389,-0.14328 -0.08812,-0.34517 -0.16268,-0.60567c-0.0723,-0.2605 -0.15364,-0.53143 -0.24402,-0.81277c-0.09038,-0.27874 -0.17511,-0.5158 -0.25419,-0.71118c0.22594,-0.07815 0.44398,-0.24097 0.6541,-0.48845c0.20787,-0.24748 0.44737,-0.57962 0.7185,-0.99643c0.14686,-0.19538 0.35247,-0.52752 0.61682,-0.99643c0.26661,-0.46891 0.56034,-1.02639 0.88118,-1.67244c0.3231,-0.64345 0.64846,-1.33639 0.97607,-2.07883c0.32762,-0.74244 0.62699,-1.4979 0.89812,-2.26639l1.98265,0.84013c-0.42929,1.06807 -0.90377,2.1166 -1.42344,3.1456c-0.51967,1.02899 -1.05289,2.00589 -1.59968,2.93068c-0.54904,0.92479 -1.08904,1.75841 -1.62001,2.50085v0.03908c0,0 -0.07343,0.04168 -0.22029,0.12504c-0.14686,0.08597 -0.31067,0.19017 -0.49143,0.31261c-0.18075,0.12504 -0.34456,0.25269 -0.49143,0.38294c-0.14686,0.13025 -0.22029,0.24748 -0.22029,0.35168zM335.00012,172.13634h4.42283v1.89517h-2.81299v15.31768h-1.60984v-17.21285M339.05014,172.13634h0.33891l0.27113,-0.07815l1.25398,0.89874c-0.28243,0.93782 -0.59875,1.93034 -0.94896,2.97757c-0.35021,1.04983 -0.68913,2.00458 -1.01674,2.86425c0.70042,0.89874 1.1557,1.73496 1.36582,2.50866c0.20787,0.7763 0.3118,1.49009 0.3118,2.14135c0,0.66429 -0.06552,1.23089 -0.19657,1.69979c-0.12879,0.46891 -0.34569,0.8271 -0.65072,1.07458c-0.14686,0.11723 -0.31632,0.21101 -0.50837,0.28135c-0.19205,0.07294 -0.3954,0.12895 -0.61005,0.16803c-0.19205,0.02605 -0.4067,0.04168 -0.64394,0.04689c-0.23724,0.00782 -0.47448,0.00521 -0.71172,-0.00782c-0.0113,-0.27353 -0.05084,-0.59916 -0.11862,-0.97689c-0.06778,-0.37773 -0.17511,-0.70336 -0.32197,-0.97689c0.21465,0.02605 0.40896,0.04168 0.58293,0.04689c0.17624,0.00782 0.33778,0.00521 0.48465,-0.00782c0.11297,0 0.22594,-0.01693 0.33891,-0.0508c0.11297,-0.03126 0.209,-0.07945 0.28808,-0.14458c0.14686,-0.1042 0.25193,-0.27744 0.31519,-0.51971c0.061,-0.23967 0.09151,-0.52883 0.09151,-0.86748c0,-0.56009 -0.11862,-1.19181 -0.35586,-1.89517c-0.23724,-0.70336 -0.69477,-1.45883 -1.3726,-2.26639c0.16946,-0.49496 0.3423,-1.02639 0.51854,-1.59429c0.17398,-0.56529 0.34343,-1.13841 0.50837,-1.71933c0.16268,-0.57832 0.3118,-1.12147 0.44737,-1.62946c0.13557,-0.50798 0.24854,-0.93782 0.33891,-1.2895v-0.68383M325.79859,173.38677h8.15089v1.87563h-8.15089v-1.87563M325.35801,178.64245h8.96428v1.89517h-8.96428v-1.89517M326.71366,175.69223l1.55901,-0.44937c0.23724,0.46891 0.4485,0.98601 0.63377,1.55131c0.18753,0.5679 0.32084,1.06026 0.39992,1.47706l-1.62679,0.52752c-0.06778,-0.42983 -0.19205,-0.93521 -0.37281,-1.51614c-0.18075,-0.57832 -0.37845,-1.10845 -0.5931,-1.59038M331.5093,175.18425l1.79625,0.44937c-0.15816,0.44286 -0.32197,0.89223 -0.49143,1.34811c-0.16946,0.45588 -0.33327,0.89223 -0.49143,1.30904c-0.15816,0.41681 -0.31632,0.78803 -0.47448,1.11366l-1.52511,-0.42983c0.14686,-0.35168 0.29599,-0.74895 0.44737,-1.19181c0.15364,-0.44286 0.29486,-0.89223 0.42364,-1.34811c0.13105,-0.45588 0.23611,-0.87269 0.31519,-1.25042M327.13731,186.63343h5.55819v1.83656h-5.55819v-1.83656M326.18835,182.06157h7.43917v7.18993h-1.79625v-5.3143h-3.93141v5.43152h-1.71152v-7.30716M328.50991,171.56974l1.64373,-0.52752c0.18075,0.41681 0.35812,0.87269 0.5321,1.36765c0.17624,0.49496 0.30389,0.91828 0.38297,1.26996l-1.74541,0.62521c-0.06778,-0.35168 -0.17849,-0.78542 -0.33214,-1.30122c-0.15138,-0.5132 -0.3118,-0.99122 -0.48126,-1.43408zM348.53974,176.5519h1.69457c-0.07908,0.82059 -0.16381,1.68286 -0.25419,2.58681c-0.09038,0.90656 -0.18866,1.8053 -0.29486,2.69622c-0.10845,0.89353 -0.21013,1.74017 -0.30502,2.53992c-0.09715,0.80236 -0.19092,1.50963 -0.2813,2.12181h-1.76235c0.11297,-0.63824 0.22594,-1.36505 0.33891,-2.18042c0.11297,-0.81277 0.22368,-1.66593 0.33214,-2.55946c0.10619,-0.89093 0.20448,-1.78316 0.29486,-2.67669c0.09038,-0.89093 0.16946,-1.73366 0.23724,-2.5282M351.0816,178.81829l0.94896,-0.70336c0.30502,0.27353 0.62134,0.59265 0.94896,0.95736c0.32762,0.36471 0.5818,0.68383 0.76256,0.95736l-0.9998,0.80105c-0.15816,-0.28656 -0.39766,-0.62261 -0.7185,-1.00815c-0.3231,-0.38294 -0.63716,-0.71769 -0.94218,-1.00425M350.62406,182.86263l0.9998,-0.7229c0.33891,0.29958 0.69252,0.64475 1.0608,1.03551c0.36603,0.39076 0.65072,0.74244 0.85406,1.05504l-1.03369,0.82059c-0.19205,-0.29958 -0.46883,-0.65778 -0.83034,-1.07458c-0.36151,-0.41681 -0.71172,-0.78803 -1.05063,-1.11366M348.77698,173.21092h8.76093v1.89517h-8.76093v-1.89517M349.25146,176.5519h6.45632v1.79748h-6.45632v-1.79748M346.40458,180.45947h11.57392v1.89517h-11.57392v-1.89517M348.25166,184.69919h9.28625v1.79748h-9.28625v-1.79748M348.87865,171.15945l1.76235,0.52752c-0.22594,0.80756 -0.49933,1.61122 -0.82017,2.41097c-0.3231,0.80236 -0.6654,1.55521 -1.02691,2.25858c-0.36151,0.70336 -0.72867,1.32206 -1.10147,1.8561c-0.11297,-0.11723 -0.26774,-0.24748 -0.46431,-0.39076c-0.19883,-0.14328 -0.39427,-0.28656 -0.58632,-0.42983c-0.19205,-0.14328 -0.36151,-0.2605 -0.50837,-0.35168c0.3841,-0.46891 0.749,-1.01988 1.09469,-1.6529c0.34343,-0.63042 0.65636,-1.30773 0.93879,-2.03194c0.28243,-0.7216 0.51967,-1.45362 0.71172,-2.19606M355.18246,176.5519h1.69457c0,0 -0.00226,0.05861 -0.00678,0.17584c-0.00678,0.11723 -0.01017,0.24357 -0.01017,0.37903c0,0.13807 -0.00565,0.25269 -0.01695,0.34387c-0.06778,1.86261 -0.13557,3.44127 -0.20335,4.73598c-0.06778,1.29731 -0.14347,2.36278 -0.22707,3.19639c-0.08586,0.83362 -0.18188,1.48488 -0.28808,1.95379c-0.10845,0.46891 -0.23611,0.80756 -0.38297,1.01597c-0.19205,0.29958 -0.39201,0.50408 -0.59988,0.61349c-0.21013,0.11202 -0.45076,0.19408 -0.72189,0.24618c-0.24854,0.03908 -0.56486,0.05861 -0.94896,0.05861c-0.3841,0 -0.78515,-0.01303 -1.20315,-0.03908c-0.0113,-0.2605 -0.05649,-0.55357 -0.13557,-0.8792c-0.07908,-0.32563 -0.1864,-0.61219 -0.32197,-0.85967c0.3954,0.03908 0.75691,0.06513 1.08453,0.07815c0.32762,0.01303 0.57051,0.01954 0.72867,0.01954c0.14686,0 0.26548,-0.02345 0.35586,-0.07034c0.09038,-0.04429 0.18075,-0.12504 0.27113,-0.24227c0.11297,-0.14328 0.21465,-0.43374 0.30502,-0.87139c0.09038,-0.43504 0.17511,-1.05374 0.25419,-1.8561c0.07908,-0.79975 0.15025,-1.82223 0.21352,-3.06744c0.061,-1.24261 0.1141,-2.74963 0.15929,-4.52106v-0.4103M343.11711,172.89832l1.01674,-1.42626c0.32762,0.16933 0.68122,0.37122 1.0608,0.60567c0.37733,0.23445 0.73883,0.47542 1.08453,0.7229c0.34343,0.24748 0.62247,0.47542 0.83712,0.68383l-1.06758,1.58257c-0.20335,-0.2084 -0.47109,-0.44677 -0.80323,-0.71509c-0.33439,-0.26571 -0.69025,-0.52622 -1.06758,-0.78151c-0.37958,-0.25269 -0.73319,-0.47672 -1.0608,-0.6721M342.16815,178.48615l0.98285,-1.40673c0.32762,0.16933 0.66992,0.36731 1.02691,0.59395c0.35473,0.22924 0.69364,0.46109 1.01674,0.69555c0.32084,0.23445 0.58293,0.45588 0.78628,0.66429l-1.05063,1.6021c-0.18075,-0.22143 -0.42929,-0.4624 -0.74561,-0.7229c-0.31632,-0.2605 -0.65185,-0.5145 -1.00658,-0.76198c-0.35699,-0.24748 -0.69364,-0.46891 -1.00996,-0.66429M342.64263,187.96201c0.22594,-0.50798 0.47787,-1.10715 0.75578,-1.79748c0.27565,-0.69034 0.55243,-1.42626 0.83034,-2.20778c0.27565,-0.78151 0.5321,-1.55 0.76934,-2.30547l1.38955,1.1332c-0.20335,0.69034 -0.4259,1.40021 -0.66766,2.12963c-0.24402,0.72941 -0.49256,1.45231 -0.74561,2.1687c-0.25532,0.71639 -0.50724,1.38719 -0.75578,2.0124zM359.11386,175.88761h4.66007v1.97332h-4.66007v-1.97332M360.72371,171.43298h1.69457v13.1099h-1.69457v-13.1099M358.9783,184.89456c0.59875,-0.28656 1.32177,-0.6708 2.16905,-1.15273c0.84729,-0.48193 1.70022,-0.97689 2.5588,-1.48488l0.50837,1.8561c-0.75691,0.49496 -1.53302,0.99643 -2.32834,1.50442c-0.79758,0.50798 -1.54093,0.97038 -2.23006,1.38719l-0.67783,-2.11009M364.04507,173.93383h10.64191v1.89517h-10.64191v-1.89517M363.51975,185.3244c0.49707,-0.1042 1.06532,-0.24097 1.70474,-0.4103c0.63716,-0.16933 1.31725,-0.34908 2.04026,-0.53924c0.72302,-0.18756 1.44603,-0.38555 2.16905,-0.59395l0.16946,1.75841c-0.98285,0.31261 -1.96796,0.6213 -2.95533,0.92609c-0.98963,0.30739 -1.89114,0.58483 -2.70454,0.83231l-0.42364,-1.97332M369.51853,171.19853h1.74541c-0.0113,1.36765 0,2.71837 0.03389,4.05215c0.03389,1.33639 0.09377,2.61026 0.17962,3.82161c0.0836,1.21135 0.18753,2.32501 0.3118,3.34097c0.12427,1.01597 0.26548,1.90168 0.42364,2.65715c0.15816,0.75546 0.33101,1.33769 0.51854,1.74668c0.18527,0.4116 0.37958,0.6174 0.58293,0.6174c0.13557,0 0.24063,-0.19538 0.31519,-0.58614c0.0723,-0.39076 0.11975,-1.04202 0.14234,-1.95379c0.16946,0.23445 0.37055,0.45198 0.60327,0.65256c0.23046,0.20319 0.44172,0.3634 0.63377,0.48063c-0.07908,0.85967 -0.19205,1.53698 -0.33891,2.03194c-0.14686,0.49496 -0.34682,0.84273 -0.59988,1.04332c-0.25532,0.20319 -0.58632,0.30479 -0.99302,0.30479c-0.47448,0 -0.89247,-0.23836 -1.25398,-0.71509c-0.36151,-0.47412 -0.67218,-1.14101 -0.93201,-2.00068c-0.25983,-0.85967 -0.47674,-1.86652 -0.65072,-3.02055c-0.17624,-1.15143 -0.3118,-2.40837 -0.4067,-3.77081c-0.09715,-1.35983 -0.17059,-2.77959 -0.22029,-4.25925c-0.05197,-1.47706 -0.0836,-2.95803 -0.0949,-4.44291M371.67064,172.21449l1.03369,-1.01597c0.33891,0.27353 0.69816,0.59265 1.07775,0.95736c0.37733,0.36471 0.66201,0.69034 0.85406,0.97689l-1.06758,1.15273c-0.20335,-0.29958 -0.48239,-0.64475 -0.83712,-1.03551c-0.35699,-0.39076 -0.71059,-0.73593 -1.0608,-1.03551M372.806,177.2748l1.62679,0.35168c-0.54226,2.59202 -1.31838,4.87405 -2.32834,6.84607c-1.01222,1.97463 -2.2696,3.58064 -3.77212,4.81804c-0.09038,-0.11723 -0.21465,-0.26441 -0.37281,-0.44156c-0.15816,-0.17454 -0.32197,-0.34387 -0.49143,-0.50798c-0.16946,-0.16151 -0.31632,-0.29437 -0.44059,-0.39857c1.50252,-1.08109 2.726,-2.53341 3.67044,-4.35694c0.94218,-1.82353 1.64486,-3.92711 2.10805,-6.31073M365.89215,178.91598v2.63761h1.55901v-2.63761h-1.55901M364.53649,177.29434h4.3381v5.90043h-4.3381z"/></g></g></svg>