<svg version="1.1" xmlns="http://www.w3.org/2000/svg" xmlns:xlink="http://www.w3.org/1999/xlink" width="346" height="38" viewBox="0,0,346,38"><g transform="translate(-114,-161)"><g stroke-miterlimit="10"><path d="M124,161h232c5.54,0 10,4.46 10,10v18c0,5.54 -4.46,10 -10,10h-232c-5.54,0 -10,-4.46 -10,-10v-18c0,-5.54 4.46,-10 10,-10z" fill="#12151a" fill-rule="evenodd" stroke="none" stroke-width="1" stroke-linecap="butt"/><path d="M340.09114,186.77138l-0.2146,1.07302c-1.82176,-0.10492 -3.28107,-0.2456 -4.37793,-0.42206c-1.09687,-0.17645 -2.06974,-0.45544 -2.91862,-0.83696c-0.4769,0.30522 -1.08495,0.58659 -1.82414,0.84411c-0.73919,0.25753 -1.65722,0.51028 -2.75409,0.75827l-0.4006,-1.00149c0.92518,-0.20984 1.70253,-0.40775 2.33204,-0.59374c0.62951,-0.18599 1.1541,-0.3839 1.57377,-0.59374c-0.68673,-0.43875 -1.35439,-0.98241 -2.00298,-1.631l0.71535,-0.70104c0.77258,0.77258 1.50223,1.34962 2.18897,1.73114c0.26706,-0.24799 0.47213,-0.52936 0.6152,-0.84411c0.14307,-0.31475 0.23845,-0.6915 0.28614,-1.13025h-4.33501v-5.37942h4.39224v-1.31624h-5.47957v-1.00149h12.03217v1.00149h-5.47957v1.31624h4.40655v5.37942h-4.46378c-0.04769,0.52459 -0.14784,0.98241 -0.30045,1.37347c-0.15261,0.39106 -0.36721,0.74396 -0.64381,1.05872c0.72489,0.26706 1.6,0.46975 2.62533,0.60805c1.02533,0.1383 2.3678,0.24083 4.02741,0.3076zM334.43988,182.27899v0.22891h3.36214v-1.34486h-3.36214zM334.43988,180.27601h3.36214v-1.33055h-3.36214zM333.36686,181.16304h-3.33353v1.34486h3.33353v-0.25753zM330.03334,180.27601h3.33353v-1.33055h-3.33353z" fill="#ff3d2e" fill-rule="evenodd" stroke="#ff3d2e" stroke-width="0.45" stroke-linecap="round"/><path d="M348.30334,182.23607v0.97287h-2.50372v3.36214c0,0.35291 -0.04292,0.62235 -0.12876,0.80834c-0.08584,0.18599 -0.23607,0.31952 -0.45067,0.4006c-0.2146,0.08107 -0.52697,0.12161 -0.93711,0.12161h-0.84411l-0.2003,-1.0301h0.75827c0.2766,0 0.46975,-0.01908 0.57943,-0.05723c0.10969,-0.03815 0.17884,-0.10492 0.20745,-0.2003c0.02861,-0.09538 0.04292,-0.26706 0.04292,-0.51505v-2.89001h-2.68971v-0.97287h2.68971v-1.54515h-2.96154v-0.94426h1.75976c-0.01908,-0.09538 -0.13353,-0.72966 -0.34337,-1.90283l-0.08584,-0.4006h-0.90134v-0.92995h2.56095l-0.44352,-1.38778l1.0301,-0.17168c0.17168,0.4769 0.32906,0.99672 0.47213,1.55946h2.30342v0.92995h-0.80119c-0.12399,0.61997 -0.30998,1.38778 -0.55797,2.30342h1.68822v0.94426h-2.74694v1.54515zM350.17756,180.03279h4.33501v1.0301h-1.54515v7.01042h-0.98718v-7.01042h-1.80268v0.02861c0,1.2304 -0.04054,2.23427 -0.12161,3.01162c-0.08107,0.77735 -0.22653,1.47362 -0.43636,2.08882c-0.20984,0.6152 -0.51505,1.25663 -0.91565,1.92429l-1.0301,-0.51505c0.4006,-0.60089 0.70343,-1.18986 0.90849,-1.76691c0.20507,-0.57705 0.34814,-1.24232 0.42921,-1.99582c0.08107,-0.7535 0.12161,-1.73591 0.12161,-2.94724v-4.40655c0.83934,-0.0763 1.69061,-0.20745 2.5538,-0.39344c0.86319,-0.18599 1.59523,-0.39344 2.19612,-0.62235l0.32906,1.0158c-0.50551,0.20984 -1.12787,0.40298 -1.86706,0.57943c-0.73919,0.17645 -1.4617,0.30283 -2.16751,0.37913zM343.22437,183.70969l0.84411,0.34337c-0.44829,1.17317 -0.95857,2.1842 -1.53085,3.03308l-0.78688,-0.48644c0.28614,-0.39106 0.54367,-0.82027 0.77258,-1.28763c0.22891,-0.46736 0.46259,-1.00149 0.70104,-1.60238zM346.50066,177.44323h-2.40357c0.22891,1.06825 0.38152,1.83606 0.45782,2.30342h1.35916c0.17168,-0.59136 0.36721,-1.35916 0.58659,-2.30342zM346.20022,184.28197l0.71535,-0.52936c0.35291,0.4769 0.8155,1.13979 1.38778,1.98867l-0.74396,0.57228c-0.50551,-0.79165 -0.95857,-1.46885 -1.35916,-2.03159z" fill="#ff3d2e" fill-rule="evenodd" stroke="#ff3d2e" stroke-width="0.45" stroke-linecap="round"/><path d="M386,161h64c5.54,0 10,4.46 10,10v18c0,5.54 -4.46,10 -10,10h-64c-5.54,0 -10,-4.46 -10,-10v-18c0,-5.54 4.46,-10 10,-10z" fill="#12151a" fill-rule="evenodd" stroke="none" stroke-width="1" stroke-linecap="butt"/><path d="M406.29309,170.98775h11.21165v1.30741h-11.21165v-1.30741M407.03314,167.43554h9.79323v1.29508h-9.79323v-1.29508M411.9421,172.06081h1.38141v3.97156c0,0.23023 0.04111,0.37577 0.12334,0.43663c0.08223,0.0625 0.25901,0.09374 0.53037,0.09374c0.06579,0 0.17431,0 0.32562,0c0.15294,0 0.31987,0 0.50077,0c0.1809,0 0.35194,0 0.5131,0c0.15952,0 0.27628,0 0.35028,0c0.1809,0 0.31658,-0.04359 0.40703,-0.13075c0.09045,-0.08552 0.15458,-0.26395 0.19241,-0.53529c0.03618,-0.27135 0.06661,-0.67426 0.09127,-1.20873c0.09868,0.074 0.22448,0.14801 0.37742,0.22202c0.1513,0.074 0.30671,0.13978 0.46623,0.19734c0.16116,0.05756 0.30342,0.10278 0.42676,0.13567c-0.04934,0.68249 -0.13567,1.21449 -0.25901,1.59602c-0.12334,0.38317 -0.31,0.64877 -0.55997,0.79678c-0.25162,0.14801 -0.59533,0.22202 -1.03113,0.22202c-0.05755,0 -0.15377,0 -0.28861,0c-0.1365,0 -0.28697,0 -0.45142,0c-0.16445,0 -0.33055,0 -0.4983,0c-0.16939,0 -0.31986,0 -0.45142,0c-0.13157,0 -0.22612,0 -0.28368,0c-0.49336,0 -0.87572,-0.05591 -1.14707,-0.16774c-0.27136,-0.11019 -0.45883,-0.29685 -0.56243,-0.55997c-0.10197,-0.26313 -0.15294,-0.62493 -0.15294,-1.08539v-3.98389M410.99237,167.95357h1.35675c-0.01644,0.63315 -0.04522,1.27206 -0.08633,1.91671c-0.04111,0.6463 -0.11759,1.29179 -0.22941,1.93644c-0.11019,0.6463 -0.28039,1.27534 -0.51063,1.8871c-0.23023,0.61341 -0.53859,1.19312 -0.92505,1.7391c-0.38646,0.54764 -0.87324,1.05168 -1.46035,1.51216c-0.58875,0.46046 -1.30248,0.86338 -2.14119,1.20873c-0.09868,-0.17268 -0.23023,-0.3659 -0.3947,-0.5797c-0.16445,-0.21379 -0.33302,-0.39058 -0.50569,-0.53037c0.80583,-0.29602 1.48419,-0.64959 2.03512,-1.06073c0.55093,-0.41113 1.00153,-0.86174 1.35181,-1.35181c0.34864,-0.48843 0.62328,-1.00645 0.82392,-1.55409c0.20228,-0.54599 0.34864,-1.10677 0.43909,-1.68236c0.09045,-0.57559 0.14965,-1.15364 0.17761,-1.73416c0.02961,-0.57888 0.05263,-1.14789 0.06907,-1.70703zM419.1945,167.75623l0.74004,-0.97439c0.26313,0.1069 0.54106,0.23188 0.83378,0.37496c0.29108,0.14471 0.57229,0.29272 0.84364,0.44402c0.27136,0.15294 0.49336,0.29931 0.66604,0.4391l-0.76471,1.09772c-0.16445,-0.14801 -0.3766,-0.3067 -0.63644,-0.47609c-0.2582,-0.16774 -0.53529,-0.3322 -0.83131,-0.49336c-0.29602,-0.15952 -0.57971,-0.29685 -0.85105,-0.41196M418.49147,171.08642l0.70304,-0.99906c0.25491,0.09867 0.53036,0.21791 0.82638,0.35769c0.29602,0.13978 0.5797,0.28532 0.85105,0.43662c0.27136,0.15294 0.49336,0.29931 0.66604,0.4391l-0.74004,1.09772c-0.16445,-0.13978 -0.3766,-0.29191 -0.63644,-0.45637c-0.2582,-0.16445 -0.53529,-0.32315 -0.83131,-0.4761c-0.29602,-0.1513 -0.57559,-0.28451 -0.83872,-0.39962M418.92316,177.11777c0.22201,-0.30424 0.4687,-0.67262 0.74004,-1.10513c0.27136,-0.43087 0.54681,-0.88888 0.82638,-1.37401c0.27957,-0.48514 0.53859,-0.96205 0.77704,-1.43075l0.97439,0.87572c-0.21379,0.42757 -0.44567,0.86914 -0.69564,1.32467c-0.25162,0.45718 -0.50241,0.90531 -0.75239,1.34441c-0.25162,0.44073 -0.50487,0.86257 -0.75977,1.26548l-1.11006,-0.90038M425.23819,166.64616h1.34441v5.871h-1.34441v-5.871M422.22868,171.69079h7.41276v1.25807h-7.41276v-1.25807M422.73438,168.57027h6.43836v1.24574h-6.43836v-1.24574M426.66894,174.56462l1.07306,-0.51803c0.27957,0.35358 0.55749,0.74003 0.83377,1.15939c0.27465,0.41936 0.52543,0.83214 0.75239,1.23834c0.2253,0.40785 0.3914,0.78033 0.4983,1.11746l-1.18407,0.59204c-0.09045,-0.32068 -0.2401,-0.69072 -0.44896,-1.11006c-0.2105,-0.41936 -0.44979,-0.84529 -0.71784,-1.27781c-0.26641,-0.43087 -0.53529,-0.83131 -0.80665,-1.20134M422.90705,177.83315l-0.04933,-1.04839l0.69071,-0.43169l4.72394,-0.50569c-0.00823,0.17268 -0.00411,0.37167 0.01234,0.59697c0.01644,0.22695 0.03289,0.41442 0.04933,0.56243c-0.87982,0.1069 -1.62151,0.19735 -2.22505,0.27135c-0.60519,0.074 -1.09855,0.13978 -1.48009,0.19734c-0.38317,0.05756 -0.68414,0.10443 -0.90285,0.14061c-0.21708,0.03782 -0.38729,0.07483 -0.51063,0.11101c-0.12334,0.03782 -0.22612,0.07318 -0.30835,0.10607M422.90705,177.83315c-0.01644,-0.09867 -0.05181,-0.22612 -0.10607,-0.38235c-0.05262,-0.15623 -0.10935,-0.32068 -0.17021,-0.49336c-0.0625,-0.17268 -0.12252,-0.32068 -0.18009,-0.44402c0.13979,-0.04111 0.27136,-0.12745 0.3947,-0.25901c0.12334,-0.13157 0.25901,-0.31246 0.40703,-0.54269c0.08223,-0.1069 0.19488,-0.28779 0.33795,-0.5427c0.14472,-0.25491 0.30342,-0.55503 0.4761,-0.90038c0.17268,-0.34536 0.34289,-0.71784 0.51063,-1.11746c0.16939,-0.39799 0.32397,-0.79843 0.46375,-1.20134l1.43075,0.44403c-0.23846,0.57559 -0.50569,1.14706 -0.80171,1.71444c-0.29602,0.56736 -0.60436,1.10349 -0.92504,1.60835c-0.32068,0.50652 -0.64138,0.96535 -0.96206,1.37649v0.02466c0,0 -0.04359,0.02466 -0.13074,0.074c-0.08552,0.04934 -0.18583,0.11101 -0.30095,0.18501c-0.11512,0.074 -0.2179,0.15212 -0.30835,0.23435c-0.09045,0.08223 -0.13567,0.15623 -0.13567,0.22201z" fill="#ff3c2e" fill-rule="nonzero" stroke="none" stroke-width="1" stroke-linecap="butt"/><path d="M393.06368,181.69736h11.13865v1.21789h-11.13865v-1.21789M397.99868,182.2175h1.43356v5.06187c0,0.50746 -0.04652,0.99546 -0.13955,1.46401c-0.09303,0.47024 -0.26219,0.9168 -0.50746,1.33968c-0.24527,0.42288 -0.58357,0.81362 -1.01491,1.17222c-0.43134,0.36029 -0.987,0.68168 -1.66699,0.96417c-0.68168,0.28418 -1.50883,0.52775 -2.48146,0.73074c-0.05075,-0.10995 -0.12264,-0.23935 -0.21567,-0.3882c-0.09303,-0.14716 -0.19199,-0.29517 -0.29686,-0.44402c-0.10657,-0.14716 -0.21059,-0.27149 -0.31209,-0.37298c0.93879,-0.15224 1.72112,-0.34084 2.34698,-0.56581c0.62586,-0.22328 1.12909,-0.47447 1.50968,-0.75357c0.38059,-0.2791 0.66815,-0.58611 0.86267,-0.92103c0.19452,-0.33323 0.32393,-0.68845 0.3882,-1.06566c0.06259,-0.37552 0.09388,-0.76626 0.09388,-1.17222v-5.04918M395.4614,186.83535v0.96417h6.58424v-0.96417h-6.58424M395.4614,184.85627v0.93879h6.58424v-0.93879h-6.58424M394.18008,183.75256h9.22301v5.15068h-9.22301v-5.15068M395.60095,188.89055c0.4398,0.58357 0.95402,1.04874 1.54267,1.3955c0.58696,0.34676 1.25511,0.60472 2.00445,0.77387c0.74765,0.16915 1.58242,0.28079 2.50429,0.33492c0.92188,0.05582 1.93256,0.08796 3.03205,0.09642c-0.11841,0.15224 -0.23428,0.35691 -0.34761,0.61402c-0.11502,0.2588 -0.18945,0.50238 -0.22328,0.73074c-1.13332,-0.03383 -2.18798,-0.0998 -3.16399,-0.19791c-0.9777,-0.09642 -1.87082,-0.26557 -2.67937,-0.50746c-0.80685,-0.2402 -1.53421,-0.58273 -2.18206,-1.0276c-0.64616,-0.44318 -1.20182,-1.02421 -1.66699,-1.74311zM412.47386,185.31298h4.73202v1.25595h-4.73202v-1.25595M405.67395,182.36974h5.67082v1.1164h-5.67082v-1.1164M405.54709,187.41893h5.81037v1.15446h-5.81037v-1.15446M405.47097,185.21149h6.07678v1.12909h-6.07678v-1.12909M414.64323,185.8585h1.31938v7.01558h-1.31938v-7.01558M406.38439,183.73987l1.07834,-0.26641c0.11841,0.23681 0.22243,0.50323 0.31209,0.79924c0.08796,0.29602 0.14462,0.54974 0.17,0.76118l-1.14178,0.30447c-0.01691,-0.21144 -0.06343,-0.46771 -0.13955,-0.7688c-0.07612,-0.2994 -0.16915,-0.57596 -0.2791,-0.82969M409.51793,183.46077l1.23058,0.24104c-0.13532,0.34676 -0.27064,0.68929 -0.40596,1.0276c-0.13532,0.3383 -0.26219,0.63009 -0.38059,0.87536l-1.10372,-0.24104c0.07612,-0.17761 0.15477,-0.3789 0.23597,-0.60387c0.0795,-0.22328 0.15731,-0.4491 0.23343,-0.67745c0.07612,-0.22836 0.13955,-0.43557 0.1903,-0.62163M415.82306,181.24065l1.06566,1.00223c-0.43134,0.16069 -0.90496,0.31039 -1.42088,0.4491c-0.51591,0.1404 -1.04028,0.26303 -1.57311,0.36791c-0.53283,0.10657 -1.05297,0.19791 -1.56043,0.27403c-0.02537,-0.15224 -0.07781,-0.32816 -0.15731,-0.52775c-0.08119,-0.19791 -0.16408,-0.36452 -0.24865,-0.49984c0.47362,-0.08458 0.95148,-0.18184 1.43356,-0.29179c0.48208,-0.10995 0.9371,-0.23258 1.36506,-0.36791c0.42626,-0.13532 0.79163,-0.27064 1.0961,-0.40596M407.50079,181.31677l1.21789,-0.29179c0.13532,0.26219 0.27064,0.55566 0.40596,0.88044c0.13532,0.32646 0.23258,0.60387 0.29179,0.83223l-1.26864,0.34253c-0.05075,-0.23681 -0.13701,-0.52268 -0.2588,-0.8576c-0.12348,-0.33323 -0.25288,-0.63517 -0.3882,-0.90581M407.94481,185.92193h1.23058v5.51858c0,0.28756 -0.03129,0.51168 -0.09388,0.67238c-0.06428,0.16069 -0.18522,0.28756 -0.36283,0.38059c-0.17761,0.09303 -0.39074,0.1497 -0.63939,0.17c-0.25034,0.02199 -0.54044,0.03298 -0.87029,0.03298c-0.01691,-0.16069 -0.06089,-0.34676 -0.13194,-0.5582c-0.07273,-0.21144 -0.15139,-0.39751 -0.23597,-0.5582c0.19452,0.00846 0.38313,0.01269 0.56581,0.01269c0.18099,0 0.30532,0 0.37298,0c0.10995,0 0.16492,-0.0592 0.16492,-0.17761v-5.49321M411.92834,182.30631h1.26864v4.45292c0,0.45671 -0.01522,0.95148 -0.04567,1.48431c-0.02876,0.53283 -0.08711,1.07158 -0.17507,1.61625c-0.08965,0.54636 -0.21905,1.06904 -0.3882,1.56804c-0.16915,0.499 -0.39328,0.95148 -0.67238,1.35744c-0.06766,-0.08458 -0.16661,-0.18015 -0.29686,-0.28671c-0.13194,-0.10487 -0.26557,-0.20637 -0.40089,-0.30447c-0.13532,-0.09642 -0.2495,-0.17 -0.34253,-0.22074c0.32139,-0.48208 0.5582,-1.02337 0.71044,-1.62386c0.15224,-0.60049 0.24781,-1.21367 0.28671,-1.83953c0.03721,-0.62586 0.05582,-1.20944 0.05582,-1.75072v-4.45292M409.47987,189.33457l0.88805,-0.49477c0.20298,0.29602 0.40174,0.6191 0.59626,0.96924c0.19452,0.35184 0.34253,0.65039 0.44402,0.89566l-0.92611,0.57089c-0.10149,-0.26219 -0.2495,-0.57765 -0.44402,-0.9464c-0.19452,-0.36706 -0.38059,-0.6986 -0.5582,-0.99461M406.47319,188.94129l1.06566,0.2791c-0.15224,0.42288 -0.34253,0.84576 -0.57089,1.26864c-0.22836,0.42288 -0.4694,0.7781 -0.72312,1.06566c-0.10149,-0.09303 -0.24273,-0.20552 -0.42373,-0.33746c-0.18268,-0.13025 -0.33746,-0.23343 -0.46432,-0.30955c0.23681,-0.26219 0.45248,-0.56666 0.64701,-0.91342c0.19452,-0.34676 0.35099,-0.69775 0.4694,-1.05297zM418.44915,187.62191h4.87157v1.1164h-4.87157v-1.1164M418.22079,183.37197h6.19096v1.07834h-6.19096v-1.07834M423.09237,181.26602l1.14178,0.4694c-0.19452,0.2791 -0.39074,0.55989 -0.58865,0.84238c-0.1996,0.28418 -0.38398,0.52353 -0.55313,0.71805l-0.86267,-0.39328c0.10149,-0.15224 0.20552,-0.32393 0.31209,-0.51507c0.10487,-0.18945 0.20637,-0.38398 0.30447,-0.58357c0.09642,-0.19791 0.17846,-0.37721 0.24612,-0.5379M420.69464,181.07573h1.25595v5.67082h-1.25595v-5.67082M418.57601,181.73542l0.97685,-0.40596c0.16915,0.24527 0.32816,0.51591 0.47701,0.81193c0.14716,0.29602 0.25034,0.5582 0.30955,0.78656l-1.04028,0.45671c-0.04229,-0.22836 -0.13278,-0.49731 -0.27149,-0.80685c-0.1404,-0.30786 -0.29094,-0.58865 -0.45164,-0.84238M420.72001,183.81599l0.90073,0.53283c-0.21144,0.3383 -0.47785,0.68084 -0.79924,1.0276c-0.32139,0.34676 -0.66561,0.66561 -1.03267,0.95655c-0.36875,0.29263 -0.73074,0.54044 -1.08596,0.74342c-0.07612,-0.14378 -0.18184,-0.31716 -0.31716,-0.52014c-0.13532,-0.20298 -0.26641,-0.36368 -0.39328,-0.48208c0.34676,-0.14378 0.69352,-0.33407 1.04028,-0.57089c0.34676,-0.23681 0.67069,-0.50323 0.97178,-0.79924c0.2994,-0.29602 0.5379,-0.59203 0.71551,-0.88805M421.77298,184.10778c0.11841,0.0592 0.28333,0.15224 0.49477,0.2791c0.21144,0.12686 0.4398,0.26219 0.68507,0.40596c0.24527,0.14378 0.4694,0.27656 0.67238,0.39835c0.20298,0.12348 0.34676,0.21905 0.43134,0.28671l-0.72312,0.93879c-0.11841,-0.10995 -0.27064,-0.24358 -0.45671,-0.40089c-0.18607,-0.15562 -0.38905,-0.32054 -0.60895,-0.49477c-0.2199,-0.17253 -0.4288,-0.33492 -0.62671,-0.48716c-0.1996,-0.15224 -0.37129,-0.27487 -0.51507,-0.36791l0.64701,-0.5582M425.33786,183.46077h4.44024v1.26864h-4.44024v-1.26864M425.47741,181.13916l1.24327,0.1903c-0.11841,0.84576 -0.27487,1.66192 -0.4694,2.44847c-0.19452,0.78656 -0.42965,1.51814 -0.70536,2.19475c-0.27403,0.67661 -0.59288,1.26864 -0.95655,1.77609c-0.0592,-0.07612 -0.1497,-0.16915 -0.27149,-0.2791c-0.12348,-0.10995 -0.24865,-0.21821 -0.37552,-0.32477c-0.12686,-0.10487 -0.23681,-0.18691 -0.32985,-0.24612c0.3383,-0.44825 0.6284,-0.97516 0.87029,-1.58072c0.2402,-0.60387 0.44318,-1.26103 0.60895,-1.97147c0.16408,-0.71044 0.29263,-1.44625 0.38567,-2.20743M427.74827,184.22195l1.25595,0.11418c-0.17761,1.43779 -0.45248,2.70643 -0.82462,3.80592c-0.37213,1.09949 -0.89058,2.04674 -1.55535,2.84175c-0.66308,0.79501 -1.51476,1.46316 -2.55504,2.00445c-0.04229,-0.09303 -0.10572,-0.20975 -0.1903,-0.35014c-0.08458,-0.1387 -0.17338,-0.27825 -0.26641,-0.41865c-0.09303,-0.1387 -0.18184,-0.25034 -0.26641,-0.33492c0.96417,-0.4398 1.7448,-1.01068 2.34191,-1.71266c0.59541,-0.70198 1.05382,-1.54605 1.3752,-2.5322c0.32139,-0.98446 0.54974,-2.1237 0.68507,-3.41771M426.07367,184.51374c0.18607,1.07412 0.44571,2.0848 0.77894,3.03205c0.33492,0.94725 0.76626,1.78202 1.29401,2.50429c0.52945,0.72397 1.17053,1.29317 1.92326,1.70759c-0.14378,0.11841 -0.30194,0.28333 -0.47447,0.49477c-0.17423,0.21144 -0.31209,0.40174 -0.41358,0.57089c-0.80347,-0.499 -1.48008,-1.14854 -2.02982,-1.94863c-0.54974,-0.7984 -1.00053,-1.72027 -1.35237,-2.76563c-0.35014,-1.04367 -0.63094,-2.17868 -0.84238,-3.40503l1.1164,-0.1903M418.76631,189.94352l0.81193,-0.78656c0.45671,0.17761 0.93287,0.38651 1.42849,0.62671c0.49392,0.24189 0.96078,0.48716 1.40058,0.73581c0.4398,0.25034 0.81616,0.48124 1.12909,0.69268l-0.81193,0.88805c-0.29602,-0.22836 -0.66561,-0.47616 -1.10879,-0.74342c-0.44487,-0.26557 -0.91427,-0.52353 -1.40819,-0.77387c-0.49562,-0.24865 -0.97601,-0.46178 -1.44117,-0.63939M422.88939,187.62191h0.22836l0.21567,-0.03806l0.73581,0.2791c-0.27064,0.93879 -0.66561,1.73973 -1.18491,2.4028c-0.52099,0.66477 -1.14093,1.20859 -1.85983,1.63147c-0.7189,0.42288 -1.50968,0.75273 -2.37236,0.98954c-0.0592,-0.15224 -0.14801,-0.33238 -0.26641,-0.54044c-0.11841,-0.20637 -0.23258,-0.36875 -0.34253,-0.48716c0.76964,-0.17761 1.48431,-0.4398 2.144,-0.78656c0.65969,-0.34676 1.22212,-0.79332 1.68729,-1.33968c0.46517,-0.54467 0.80347,-1.18914 1.01491,-1.93341v-0.17761M418.76631,189.94352c0.19452,-0.27064 0.39328,-0.58188 0.59626,-0.93372c0.20298,-0.35014 0.39582,-0.71128 0.5785,-1.08342c0.18099,-0.37213 0.33492,-0.72735 0.46178,-1.06566l1.20521,0.22836c-0.14378,0.36368 -0.3087,0.73581 -0.49477,1.1164c-0.18607,0.38059 -0.37805,0.74427 -0.57596,1.09103c-0.1996,0.34676 -0.38398,0.65123 -0.55313,0.91342zM435.85488,181.60856h6.27976v3.57756h-6.24171v-1.16715h4.96038v-1.24327h-4.99844v-1.16715M435.23325,181.60856h1.31938v3.88204c0,0.54129 -0.01945,1.13755 -0.05836,1.78878c-0.03721,0.65123 -0.11079,1.31516 -0.22074,1.99176c-0.10995,0.67661 -0.27064,1.33207 -0.48208,1.96639c-0.21144,0.63432 -0.49054,1.20521 -0.8373,1.71266c-0.07612,-0.07612 -0.18353,-0.16746 -0.32223,-0.27403c-0.1404,-0.10487 -0.28248,-0.20383 -0.42626,-0.29686c-0.14378,-0.09303 -0.26641,-0.16069 -0.36791,-0.20298c0.32139,-0.48208 0.57512,-1.00476 0.76118,-1.56804c0.18607,-0.56158 0.32393,-1.14262 0.41358,-1.74311c0.08796,-0.60049 0.14632,-1.19083 0.17507,-1.77102c0.03045,-0.5785 0.04567,-1.11302 0.04567,-1.60356v-3.88204M435.88025,186.39133h6.63498v1.15446h-6.63498v-1.15446M437.0474,191.44051h4.4783v1.09103h-4.4783v-1.09103M438.59514,185.07194h1.28133v4.30069h-1.28133v-4.30069M436.4892,188.85249h5.70888v4.05965h-1.23058v-2.93056h-3.29846v2.95593h-1.17983v-4.08502M430.64077,187.60922c0.50746,-0.11841 1.12063,-0.27487 1.83953,-0.4694c0.7189,-0.19452 1.44202,-0.39751 2.16937,-0.60895l0.17761,1.23058c-0.66815,0.20298 -1.34053,0.40596 -2.01714,0.60895c-0.67661,0.20298 -1.29824,0.38905 -1.8649,0.5582l-0.30447,-1.31938M430.81838,183.53689h3.98353v1.25595h-3.98353v-1.25595M432.22657,181.1011h1.24327v10.22523c0,0.32139 -0.03383,0.57512 -0.10149,0.76118c-0.06766,0.18607 -0.19452,0.33407 -0.38059,0.44402c-0.17761,0.10995 -0.40427,0.18184 -0.67999,0.21567c-0.27403,0.03383 -0.61825,0.04652 -1.03267,0.03806c-0.00846,-0.16069 -0.04905,-0.36621 -0.12179,-0.61656c-0.07104,-0.24865 -0.14885,-0.46178 -0.23343,-0.63939c0.24527,0.00846 0.4694,0.01269 0.67238,0.01269c0.20298,0 0.34253,0 0.41865,0c0.07612,0 0.13109,-0.01522 0.16492,-0.04567c0.03383,-0.02876 0.05075,-0.08965 0.05075,-0.18268z" fill="#ff3c2e" fill-rule="nonzero" stroke="none" stroke-width="1" stroke-linecap="butt"/></g></g></svg>