<svg version="1.1" xmlns="http://www.w3.org/2000/svg" xmlns:xlink="http://www.w3.org/1999/xlink" width="208" height="32" viewBox="0,0,208,32"><g transform="translate(-240,-164)"><g stroke-miterlimit="10"><path d="M240,196v-32h208v32z" fill="none" fill-rule="nonzero" stroke="none" stroke-width="0" stroke-linecap="butt"/><path d="M245.19,187.08v-5.8398h2.041v1.6406h3.7012v1.6797h-3.7012v2.2168c1.6016,-0.26041 2.8744,-0.49804 3.8184,-0.71289l0.0586,1.6406c-2.14847,0.61198 -4.5801,1.11001 -7.2949,1.4941l-0.5664,-1.875c0.6966,-0.07813 1.3444,-0.15951 1.9434,-0.24414zM251.1177,172.119h7.8516v1.6797h-5.5664v1.7188h4.8633v5.127h-14.58c-0.03907,2.05727 -0.14323,3.66207 -0.3125,4.8144c-0.21485,1.47133 -0.64455,2.81247 -1.2891,4.0234l-1.7969,-1.4551c0.61198,-1.2044 1.00261,-2.6367 1.1719,-4.2969c0.12369,-1.21747 0.18554,-2.85483 0.18554,-4.9121v-6.6992h7.3047v-1.6211h2.168zM243.7056,173.7987v1.7188h2.9004v-1.7188zM243.7056,177.0799v2.002h2.9004v-2.002zM256.2056,179.0819v-2.002h-2.8027v2.002zM248.608,173.7987v1.7188h2.793v-1.7188zM248.608,177.0799v2.002h2.793v-2.002zM253.7056,183.2811c1.41273,-0.48177 2.63343,-1.04167 3.6621,-1.6797l1.2988,1.582c-1.46487,0.71613 -3.1185,1.32487 -4.9609,1.8262v1.4844c0,0.39063 0.12044,0.61849 0.36133,0.68359c0.20182,0.0586 0.68035,0.0879 1.4356,0.0879c0.90493,0 1.43553,-0.0944 1.5918,-0.2832c0.14323,-0.16927 0.2474,-0.7487 0.3125,-1.7383l0.0195,-0.30273l2.002,0.53711c-0.013,0.08463 -0.03253,0.32552 -0.0586,0.72265c-0.09765,1.26953 -0.38086,2.08983 -0.84961,2.4609c-0.46223,0.37109 -1.62433,0.55664 -3.4863,0.55664c-1.31513,0 -2.1908,-0.09766 -2.627,-0.29297c-0.48177,-0.22135 -0.72265,-0.69662 -0.72265,-1.4258v-6.2598h2.0215z" fill="#ffffff" fill-rule="nonzero" stroke="none" stroke-width="1" stroke-linecap="butt"/><path d="M315.09,173.8v3.7793c0,0.42969 -0.09115,0.74545 -0.27344,0.94727c-0.21484,0.23437 -0.69011,0.35156 -1.4258,0.35156c-0.70313,0 -1.2793,-0.03906 -1.7285,-0.11718l-0.25391,-1.6211c0.51432,0.10417 0.94725,0.15625 1.2988,0.15625c0.1888,0 0.30924,-0.04557 0.36133,-0.13672c0.03907,-0.07812 0.0586,-0.20507 0.0586,-0.38086v-2.9785h-1.7383c-0.05207,1.37367 -0.23436,2.42837 -0.54688,3.1641c-0.34505,0.8008 -1.05795,1.53323 -2.1387,2.1973l-1.3965,-1.2402c0.97653,-0.50781 1.6048,-1.16211 1.8848,-1.9629c0.16927,-0.5013 0.27344,-1.2207 0.3125,-2.1582h-3.8574v-1.6602h5.5566v-1.6406h2.1484v1.6406h6.1328v1.6602zM318.1076,179.3371v3.9648h-9.6387c-0.05207,0.35807 -0.11392,0.71614 -0.18555,1.0742h10.664c-0.16276,1.7904 -0.38737,3.0176 -0.67383,3.6816c-0.41667,0.96353 -1.39323,1.4453 -2.9297,1.4453c-1.27607,0 -2.6465,-0.05534 -4.1113,-0.16601l-0.36133,-1.7774c1.39973,0.14974 2.653,0.22461 3.7598,0.22461c0.59895,0 0.99282,-0.06836 1.1816,-0.20508c0.29297,-0.21484 0.52083,-0.77474 0.68359,-1.6797h-8.5938c-0.07161,0.26693 -0.19531,0.66733 -0.37109,1.2012l-2.0996,-0.41992c0.49479,-1.4844 0.86589,-3.08923 1.1133,-4.8145h9.4238v-1.0449h-10v-1.4844zM303.7426,175.0207c-0.72267,-1.0026 -1.64713,-1.99543 -2.7734,-2.9785l1.4551,-1.3867c1.02213,0.74867 1.98243,1.70243 2.8809,2.8613zM303.1469,180.0598c-1.0026,-1.26953 -1.9759,-2.3047 -2.9199,-3.1055l1.4648,-1.416c0.97653,0.74867 1.9824,1.71547 3.0176,2.9004zM300.6274,187.9602c1.14587,-1.78387 2.2331,-4.07227 3.2617,-6.8652l1.6016,1.1816c-0.85287,2.58467 -1.875,5.00003 -3.0664,7.2461zM318.0294,178.595c-0.85287,-1.3802 -1.74803,-2.5716 -2.6855,-3.5742l1.4844,-0.95703c1.14587,1.04167 2.0736,2.181 2.7832,3.418zM304.3674,177.4231c0.95053,-0.78127 1.7318,-1.81643 2.3438,-3.1055l1.7774,0.66406c-0.63802,1.4518 -1.52019,2.66273 -2.6465,3.6328z" fill="#ffffff" fill-rule="nonzero" stroke="none" stroke-width="1" stroke-linecap="butt"/><path d="M284.18961,173.69959v5.64672h13.06696l-0.30578,6.74752c-0.08154,1.03285 -0.35674,1.75653 -0.8256,2.17103c-0.46886,0.4145 -1.22651,0.62175 -2.27296,0.62175h-2.34431l-0.28539,-1.44735h1.99776c0.54361,0 0.9649,-0.06116 1.26389,-0.18347c0.29898,-0.12231 0.51303,-0.31257 0.64214,-0.57079c0.12911,-0.25821 0.21405,-0.61835 0.25482,-1.08042c0.04077,-0.61156 0.08494,-1.42017 0.1325,-2.42585c0.04757,-1.00567 0.08494,-1.81429 0.11212,-2.42585h-12.98542v-8.45989h3.95474l0.26501,-0.65233l0.53002,-1.3862l1.59005,0.18347l-0.26501,0.71348c-0.14949,0.43489 -0.28539,0.81541 -0.40771,1.14158h7.03292c-0.12231,2.12007 -0.19706,3.30921 -0.22424,3.56742c-0.06795,0.65233 -0.19366,1.15856 -0.37713,1.5187c-0.18347,0.36014 -0.46207,0.61835 -0.8358,0.77464c-0.37373,0.15629 -0.89355,0.23443 -1.55947,0.23443h-1.75313l-0.28539,-1.30466h1.59005c0.61156,0 1.03285,-0.09853 1.26389,-0.29559c0.23103,-0.19706 0.36693,-0.53341 0.40771,-1.00907l0.10193,-1.01926c0.04077,-0.40771 0.06795,-0.76105 0.08154,-1.06003zM291.16137,185.33957v-3.05779h1.48812v4.44399h-11.35459v-4.44399h1.48812v3.05779h3.40434v-3.75089h1.59005v3.75089zM289.85672,176.75738l-0.93772,1.12119c-1.5221,-1.20953 -2.60931,-2.04532 -3.26164,-2.50739l0.89695,-1.12119c0.58438,0.4213 1.68518,1.25709 3.30241,2.50739z" fill="#ffffff" fill-rule="evenodd" stroke="#ffffff" stroke-width="0.5" stroke-linecap="round"/><path d="" fill="#ffffff" fill-rule="nonzero" stroke="#ffffff" stroke-width="0.5" stroke-linecap="butt"/><path d="" fill="#ffffff" fill-rule="nonzero" stroke="#ffffff" stroke-width="0.5" stroke-linecap="butt"/><path d="" fill="#ffffff" fill-rule="nonzero" stroke="#ffffff" stroke-width="0.5" stroke-linecap="butt"/><path d="" fill="#ffffff" fill-rule="nonzero" stroke="#ffffff" stroke-width="0.5" stroke-linecap="butt"/><path d="" fill="#ffffff" fill-rule="nonzero" stroke="#ffffff" stroke-width="0.5" stroke-linecap="butt"/><path d="" fill="#ffffff" fill-rule="nonzero" stroke="#ffffff" stroke-width="0.5" stroke-linecap="butt"/><path d="M272.5431,171.17396v14.31564c0,0.60574 0.09114,1.00957 0.27343,1.21148c0.18229,0.20191 0.53115,0.30287 1.04658,0.30287h1.0183c0.41486,0 0.72286,-0.04038 0.92401,-0.12115c0.20114,-0.08077 0.34257,-0.2221 0.42429,-0.42402c0.08172,-0.20191 0.13514,-0.51151 0.16029,-0.9288c0.02514,-0.26922 0.05029,-0.78073 0.07543,-1.53454c0.02514,-0.75381 0.03143,-1.27205 0.01886,-1.55473l1.4143,0.28268c0,0.47113 -0.01257,1.03312 -0.03771,1.68597c-0.02514,0.65285 -0.05029,1.21484 -0.07543,1.68597c-0.03771,0.64612 -0.14772,1.14081 -0.33,1.48406c-0.18229,0.34325 -0.462,0.58891 -0.83915,0.73698c-0.37715,0.14807 -0.89887,0.2221 -1.56516,0.2221h-1.4143c-0.64115,0 -1.14716,-0.08077 -1.51802,-0.2423c-0.37086,-0.16153 -0.64429,-0.44084 -0.82029,-0.83794c-0.176,-0.3971 -0.264,-0.95236 -0.264,-1.66578v-14.61851z" fill="#ffffff" fill-rule="nonzero" stroke="#ffffff" stroke-width="0.5" stroke-linecap="butt"/><path d="M262.54871,189.42691l-1.11258,-1.33263c1.15658,-0.95572 2.01459,-1.83741 2.57403,-2.64506c0.55943,-0.80765 0.94601,-1.75664 1.15973,-2.84698c0.21372,-1.09033 0.32057,-2.57776 0.32057,-4.46228v-6.9862h1.5463v6.9862c0,2.08644 -0.12886,3.76232 -0.38658,5.02764c-0.25772,1.26532 -0.69772,2.36238 -1.32001,3.29118c-0.62229,0.9288 -1.54944,1.91818 -2.78146,2.96812z" fill="#ffffff" fill-rule="nonzero" stroke="#ffffff" stroke-width="0.5" stroke-linecap="butt"/><path d="" fill="#ffffff" fill-rule="nonzero" stroke="#ffffff" stroke-width="0.5" stroke-linecap="butt"/><path d="" fill="#ffffff" fill-rule="nonzero" stroke="#ffffff" stroke-width="0.5" stroke-linecap="butt"/><path d="" fill="#ffffff" fill-rule="nonzero" stroke="#ffffff" stroke-width="0.5" stroke-linecap="butt"/><path d="" fill="#ffffff" fill-rule="nonzero" stroke="#ffffff" stroke-width="0.5" stroke-linecap="butt"/><path d="" fill="#ffffff" fill-rule="nonzero" stroke="#ffffff" stroke-width="0.5" stroke-linecap="butt"/></g></g></svg>