<svg version="1.1" xmlns="http://www.w3.org/2000/svg" xmlns:xlink="http://www.w3.org/1999/xlink" width="224" height="76" viewBox="0,0,224,76"><g transform="translate(-128,-142)"><g stroke-miterlimit="10"><path d="M128,218v-76h224v76z" fill="none" fill-rule="nonzero" stroke="none" stroke-width="1" stroke-linecap="round" stroke-linejoin="round"/><g fill-rule="evenodd" stroke="none" stroke-width="1" stroke-linecap="butt" stroke-linejoin="miter"><path d="M327.9992,164.99926c8.8294,0 16,7.1706 16,16c0,8.8294 -7.1706,16 -16,16h-86c-8.8294,0 -16,-7.1706 -16,-16c0,-8.8294 7.1706,-16 16,-16z" fill="#7d97b4"/><path d="M241.9992,166.99926h86c7.756,0 14,6.244 14,14c0,7.756 -6.244,14 -14,14h-86c-7.756,0 -14,-6.244 -14,-14c0,-7.756 6.244,-14 14,-14z" fill="#31476d"/></g><path d="M321.02001,174.99901c0.22586,0.00491 0.44339,0.08614 0.61719,0.23047l6,5c0.2282,0.19001 0.36015,0.4716 0.36015,0.76855c0,0.29695 -0.13196,0.57854 -0.36015,0.76855l-6,5c-0.29801,0.2485 -0.71286,0.3022 -1.06432,0.13777c-0.35146,-0.16444 -0.57608,-0.51733 -0.57628,-0.90535v-10c-0.00005,-0.26931 0.10853,-0.52726 0.30115,-0.71548c0.19262,-0.18822 0.45301,-0.29079 0.72225,-0.28452z" fill="#ffffff" fill-rule="evenodd" stroke="none" stroke-width="1" stroke-linecap="butt" stroke-linejoin="miter" opacity="0.988"/><path d="M252.52306,176.52401h-6.42238c-0.47573,1.33747 -1.01708,2.54225 -1.62405,3.61435v7.77006h-0.93506v-6.25745c-0.41832,0.60505 -0.86534,1.18355 -1.34107,1.73553l-0.44292,-1.27378c0.63158,-0.67935 1.22624,-1.49669 1.784,-2.45203c0.55775,-0.95534 1.05809,-2.0009 1.50102,-3.13668h-3.18658v-1.17825h3.6172c0.25427,-0.76427 0.45933,-1.47546 0.61517,-2.13358l0.91045,0.27068c-0.15584,0.63689 -0.32809,1.25786 -0.51674,1.8629h6.04098zM252.19087,181.55544h-2.879v4.23532h3.32192v1.16232h-7.61581v-1.16232h3.35883v-4.23532h-2.82979v-1.1464h2.82979v-2.72271h0.93506v2.72271h2.879z" fill="#ffffff" fill-rule="evenodd" stroke="#ffffff" stroke-width="0.45" stroke-linecap="round" stroke-linejoin="miter"/><path d="M264.10057,183.48204l0.87354,0.25476c0,0.31845 -0.0164,0.82796 -0.04921,1.52854l-0.0123,0.52543c-0.02461,0.43521 -0.09023,0.77223 -0.19685,1.01106c-0.10663,0.23883 -0.27888,0.40867 -0.51674,0.50951c-0.23787,0.10084 -0.57416,0.15126 -1.00888,0.15126h-3.12507c-0.41011,0 -0.73205,-0.05573 -0.96582,-0.16718c-0.23376,-0.11146 -0.40396,-0.30783 -0.51059,-0.58912c-0.10663,-0.28129 -0.15994,-0.68731 -0.15994,-1.21805v-5.47726l-1.03349,0.46175l-0.23376,-1.13048l1.26725,-0.55728v-3.9328h0.87354v3.55066l1.52562,-0.68466v-4.26716h0.86124v3.90095l2.62063,-1.16232l-0.13534,5.68425c-0.02461,0.43521 -0.07382,0.76427 -0.14764,0.98718c-0.07382,0.22291 -0.20096,0.38213 -0.38141,0.47767c-0.18045,0.09553 -0.44292,0.1433 -0.78742,0.1433h-0.66438l-0.17225,-1.17825h0.44292c0.23787,0 0.41421,-0.02388 0.52905,-0.07165c0.11483,-0.04777 0.1948,-0.13534 0.23992,-0.26272c0.04511,-0.12738 0.07177,-0.32906 0.07997,-0.60505l0.11073,-3.56659l-1.73478,0.76427v6.30521h-0.86124v-5.92308l-1.52562,0.68466v5.38172c0,0.38213 0.02051,0.66343 0.06152,0.84388c0.04101,0.18045 0.12508,0.30783 0.25222,0.38213c0.12714,0.0743 0.32604,0.11146 0.59672,0.11146h2.63293c0.3445,0 0.59672,-0.02654 0.75666,-0.07961c0.15994,-0.05307 0.27273,-0.15922 0.33834,-0.31845c0.06562,-0.15922 0.10663,-0.41398 0.12303,-0.76427zM256.44785,178.75313v5.5091l1.41489,-0.58912l0.07382,0.58912l0.04921,0.50951l-3.65411,1.54446l-0.23376,-1.06679l1.47641,-0.62097v-5.87531h-1.29186v-1.16232h1.29186v-3.82134h0.87354v3.82134h1.04579v1.16232z" fill="#ffffff" fill-rule="evenodd" stroke="#ffffff" stroke-width="0.45" stroke-linecap="round" stroke-linejoin="miter"/><path d="M267.92693,187.95619h-0.87354v-13.78867h9.63357v13.78867h-0.87354v-0.82796h-7.88649zM275.81342,175.23431h-7.88649v10.85898h7.88649zM275.53044,180.79117l-0.30759,1.01902c-1.39439,-0.41398 -2.5099,-0.90757 -3.34653,-1.48077c-0.86124,0.58382 -1.97675,1.11987 -3.34653,1.60815l-0.30759,-0.98718c1.17293,-0.37152 2.13669,-0.76958 2.8913,-1.19417c-0.46753,-0.41398 -0.91455,-0.91818 -1.34107,-1.51261c-0.31989,0.43521 -0.67259,0.82796 -1.05809,1.17825l-0.43062,-0.73242c0.43472,-0.40336 0.84483,-0.88899 1.23034,-1.45689c0.38551,-0.56789 0.7218,-1.13844 1.00888,-1.71164l0.68899,0.36621c-0.18865,0.38213 -0.3527,0.69527 -0.49214,0.93941h3.88788v0.8598c-0.64798,0.83857 -1.30006,1.52854 -1.95624,2.06989c0.7218,0.40336 1.68147,0.74835 2.879,1.03495zM269.13267,184.23038l0.09843,-0.90757c0.60697,0.12738 1.4354,0.33171 2.48529,0.61301c1.04989,0.28129 1.89062,0.52278 2.5222,0.72446l-0.13534,0.92349c-0.59056,-0.19107 -1.40259,-0.42459 -2.43608,-0.70058c-1.03349,-0.27599 -1.87832,-0.49359 -2.5345,-0.65281zM270.11694,182.28787l0.11073,-0.89165c1.46821,0.35029 2.61243,0.65281 3.43265,0.90757l-0.11073,0.92349c-0.45933,-0.15922 -1.01913,-0.32641 -1.67942,-0.50155c-0.66028,-0.17514 -1.2447,-0.3211 -1.75324,-0.43786zM273.53729,177.68633h-3.21119c0.45933,0.62628 0.98017,1.15171 1.56253,1.5763c0.64798,-0.44582 1.19753,-0.97126 1.64866,-1.5763z" fill="#ffffff" fill-rule="evenodd" stroke="#ffffff" stroke-width="0.45" stroke-linecap="round" stroke-linejoin="miter"/><path d="M289.00268,179.29448h-4.63839v6.55997h5.20434v1.27378h-10.72858v-1.27378h4.49075v-12.4512h1.03349v4.6493h4.63839z" fill="#ffffff" fill-rule="evenodd" stroke="#ffffff" stroke-width="0.45" stroke-linecap="round" stroke-linejoin="miter"/><path d="M300.66632,180.2339h-2.42377v6.11415h3.65411v1.09864h-10.77779v-1.09864h3.64181v-6.11415h-2.43608v-6.11415h8.34172zM299.73126,179.1671v-1.49669h-6.4716v1.49669zM293.25966,176.65139h6.4716v-1.46485h-6.4716zM297.31979,186.34804v-6.11415h-1.63635v6.11415zM299.55901,185.21756l-0.75051,-0.58912c0.27888,-0.48828 0.58646,-1.10394 0.92276,-1.84698c0.33629,-0.74304 0.58646,-1.36401 0.75051,-1.8629l0.77512,0.5732c-0.18865,0.52013 -0.45523,1.15702 -0.79972,1.91067c-0.3445,0.75365 -0.64388,1.3587 -0.89815,1.81514zM291.69713,181.77835l0.7382,-0.65281c0.23787,0.40336 0.527,0.93941 0.86739,1.60815c0.34039,0.66873 0.62132,1.25786 0.84278,1.76737l-0.75051,0.73242c-0.21326,-0.53074 -0.48804,-1.13844 -0.82433,-1.8231c-0.33629,-0.68466 -0.62747,-1.22867 -0.87354,-1.63203z" fill="#ffffff" fill-rule="evenodd" stroke="#ffffff" stroke-width="0.45" stroke-linecap="round" stroke-linejoin="miter"/><path d="M314.20008,178.68944v1.22601h-4.74912v5.939c0,0.48828 -0.05332,0.87042 -0.15994,1.1464c-0.10663,0.27599 -0.28093,0.47236 -0.5229,0.58912c-0.24197,0.11676 -0.57621,0.17514 -1.00273,0.17514h-1.46411l-0.19685,-1.25786h1.34107c0.27888,0 0.48393,-0.02919 0.61517,-0.08757c0.13124,-0.05838 0.22351,-0.16718 0.27683,-0.32641c0.05332,-0.15922 0.07997,-0.39806 0.07997,-0.7165v-5.46133h-4.98288v-1.22601zM304.57881,175.66421v-1.22601h8.53857v1.22601zM305.87066,181.06185l0.84894,0.63689c-0.31169,0.82796 -0.7054,1.72756 -1.18113,2.69882c-0.47573,0.97126 -0.93916,1.80187 -1.39029,2.49183l-0.82433,-0.79611c0.46753,-0.71119 0.93711,-1.53384 1.40874,-2.46795c0.47163,-0.93411 0.85099,-1.7886 1.13807,-2.56348zM310.85355,181.79428l0.81203,-0.7165c0.3527,0.58382 0.79152,1.37462 1.31647,2.37242c0.52495,0.99779 0.94326,1.84698 1.25495,2.54756l-0.86124,0.79611c-0.31169,-0.70058 -0.72795,-1.56834 -1.2488,-2.60329c-0.52084,-1.03495 -0.94531,-1.83371 -1.2734,-2.3963z" fill="#ffffff" fill-rule="evenodd" stroke="#ffffff" stroke-width="0.45" stroke-linecap="round" stroke-linejoin="miter"/></g></g></svg>