<svg version="1.1" xmlns="http://www.w3.org/2000/svg" xmlns:xlink="http://www.w3.org/1999/xlink" width="120" height="60" viewBox="0,0,120,60"><g transform="translate(-180,-150)"><g stroke-miterlimit="10"><path d="M180,210v-60h120v60z" fill="none" fill-rule="nonzero" stroke="none" stroke-width="1" stroke-linecap="butt" opacity="0.80769"/><path d="M245.12983,168.45177l-0.55317,0.78011c-0.31205,-0.34041 -0.71865,-0.74229 -1.21981,-1.20563v6.48203h-1.04961v-6.79407c-0.53899,1.39947 -1.09689,2.53418 -1.6737,3.40413l-0.31205,-1.37584c0.34041,-0.52007 0.69265,-1.18672 1.0567,-1.99993c0.36405,-0.81321 0.66901,-1.61696 0.91486,-2.41126h-1.68788v-1.02124h1.70206v-2.69493h1.04961v2.69493h1.57441v1.02124h-1.57441v1.53186c0.0851,0.0851 0.18439,0.17021 0.29786,0.25531c0.11347,0.10402 0.33805,0.30259 0.67373,0.59572c0.33568,0.29313 0.60281,0.53899 0.80139,0.73756zM252.9735,166.06888v1.03542h-3.46086v5.77283c0,0.53899 -0.11111,0.91013 -0.33332,1.11343c-0.22221,0.2033 -0.62173,0.30495 -1.19854,0.30495h-1.36165l-0.24113,-1.07797h1.234c0.24585,0 0.42788,-0.02128 0.54608,-0.06383c0.1182,-0.04255 0.19857,-0.1182 0.24113,-0.22694c0.04255,-0.10874 0.06383,-0.28131 0.06383,-0.51771v-5.30477h-3.44668v-1.03542zM245.65463,163.57252v-1.07797h6.73734v1.07797zM246.32127,168.25319l0.97869,0.36878c-0.2364,0.74702 -0.53189,1.53422 -0.88649,2.36161c-0.3546,0.82739 -0.72101,1.55786 -1.09925,2.19141l-0.9645,-0.5248c0.38769,-0.63355 0.75884,-1.34747 1.11343,-2.14176c0.3546,-0.7943 0.64064,-1.54604 0.85812,-2.25523zM250.32112,168.65034l0.90777,-0.39715c0.45388,0.99287 1.07325,2.49636 1.85809,4.51047l-1.00705,0.39715c-0.76593,-2.11812 -1.3522,-3.62161 -1.7588,-4.51047z" fill="#ffffff" fill-rule="evenodd" stroke="#ffffff" stroke-width="0.5" stroke-linecap="round"/><path d="M263.82416,172.49417h3.26229v0.9645h-7.10612v0.92195h-1.03542v-8.05644c-0.34987,0.59572 -0.7612,1.2009 -1.234,1.81553l-0.55317,-1.09216c0.59572,-0.71865 1.12525,-1.57441 1.58859,-2.56728c0.46334,-0.99287 0.83685,-2.0472 1.12053,-3.163l1.10634,0.19857c-0.15129,0.65246 -0.38296,1.37111 -0.69501,2.15595h2.96443c-0.25531,-0.77538 -0.50116,-1.43257 -0.73756,-1.97156l0.92195,-0.28368c0.2364,0.54844 0.53426,1.30019 0.89358,2.25523h2.65238v0.97869h-3.14882v1.88645h2.85096v0.95032h-2.85096v1.90064h2.85096v0.95032h-2.85096zM255.92375,173.84164l-1.07797,-0.3546l1.6737,-5.33313l0.58154,0.19857l0.48225,0.17021zM257.65418,165.40223l-1.00705,0.5248c-0.21749,-0.4728 -0.51062,-1.08507 -0.8794,-1.83681c-0.36878,-0.75174 -0.64773,-1.30255 -0.83685,-1.65242l0.92195,-0.51062c0.22694,0.4066 0.51535,0.94796 0.86522,1.62405c0.34987,0.6761 0.66191,1.2931 0.93614,1.85099zM262.80292,172.49417v-2.15595h-2.82259v2.15595zM259.98033,167.48726v1.90064h2.82259v-1.90064zM259.98033,164.65049v1.88645h2.82259v-1.88645z" fill="#ffffff" fill-rule="evenodd" stroke="#ffffff" stroke-width="0.5" stroke-linecap="round"/></g></g></svg>