<svg version="1.1" xmlns="http://www.w3.org/2000/svg" xmlns:xlink="http://www.w3.org/1999/xlink" width="98.56289" height="20.24267" viewBox="0,0,98.56289,20.24267"><g transform="translate(-239.93268,-170.11491)"><g fill="#ffffff" fill-rule="evenodd" stroke="#ffffff" stroke-width="0.5" stroke-linecap="round" stroke-miterlimit="10"><path d="M254.39886,183.63575h3.7738v1.49652h-3.7738v4.84787h-1.44529v-4.84787h-3.67344v-1.49652h3.67344v-3.1195h-3.03109v-1.47544h3.03109v-3.09842h-3.23182v-1.47544h3.97454c0.8297,-1.61596 1.47205,-2.9579 1.92705,-4.02584l1.36499,0.5691c-0.53529,1.1663 -1.11742,2.31855 -1.74639,3.45674h2.58947v1.47544h-3.43256v3.09842h3.09131v1.47544h-3.09131zM248.23631,180.49517h-4.4563c-0.16059,0.73069 -0.36801,1.41923 -0.62228,2.06561h5.21909v5.92283h-4.81762v1.20143h-1.26463v-5.24834c-0.34794,0.64638 -0.86985,1.47544 -1.56573,2.48717l-0.52191,-1.70729c0.54867,-0.80095 1.00033,-1.5738 1.35496,-2.31855c0.35463,-0.74475 0.63231,-1.5457 0.83305,-2.40286h-1.64602v-1.41221h1.90698c0.08029,-0.50586 0.1539,-1.25061 0.22081,-2.23423h-2.48911v-1.41221h2.54933c0.04015,-1.03983 0.06022,-1.80565 0.06022,-2.29747h-2.12778v-1.34897h7.36695v3.64644h1.16426v1.41221h-1.16426zM243.55921,187.13464h3.51285v-3.22489h-3.51285zM246.95162,176.84873h-2.72999c-0.06691,0.95552 -0.13382,1.70027 -0.20073,2.23423h2.93072zM246.95162,175.43653v-2.29747h-2.5694l-0.08029,2.29747zM253.09409,173.62385l-1.26463,0.59018c-0.20073,-0.44966 -0.47173,-1.01173 -0.81297,-1.68621c-0.34125,-0.67449 -0.58547,-1.11712 -0.73268,-1.32789l1.22448,-0.71664l0.3011,0.59018c0.49514,0.94147 0.92338,1.7916 1.2847,2.5504z"/><path d="M274.77339,171.81117l-0.82301,7.67228h3.2519c-0.05353,0.63233 -0.13382,1.82673 -0.24088,3.58321l-0.22081,3.26704c-0.06691,0.84311 -0.24088,1.493 -0.52191,1.94969c-0.28103,0.45668 -0.68919,0.77987 -1.22448,0.96957c-0.53529,0.1897 -1.25124,0.28455 -2.14786,0.28455h-3.43256l-0.24088,-1.49652h3.1716c0.6825,0 1.20775,-0.05269 1.57576,-0.15808c0.36801,-0.10539 0.64904,-0.2986 0.84308,-0.57964c0.19404,-0.28104 0.32452,-0.68854 0.39143,-1.22251c0.04015,-0.22483 0.16059,-1.70729 0.36132,-4.44739l0.04015,-0.67449h-12.28494l0.78286,-6.63947l1.52558,0.02108l-0.56206,5.14296h7.34688l0.6825,-6.15468h-10.96009v-1.51759zM260.50118,185.1955v-1.47544h13.28861v1.47544z"/><path d="M298.2593,183.97299h-9.97649c-1.01705,1.18035 -2.26161,2.40286 -3.73366,3.66752l9.01297,-0.35832l-2.20808,-2.19208l0.9836,-1.03281c0.57544,0.54802 1.12746,1.08199 1.65606,1.6019c0.5286,0.51992 0.99363,0.9766 1.3951,1.37005c1.44529,1.43328 2.0408,2.01643 1.78654,1.74945l-1.04382,1.20143c-0.2275,-0.25293 -0.64235,-0.69556 -1.24455,-1.32789l-12.40538,0.5691l-0.3814,-1.49652c1.57911,-1.18035 2.96418,-2.43096 4.1552,-3.75183h-5.76107v-1.43328h2.64969v-10.9604h12.40538v10.9604h2.70991zM294.1041,182.53971v-2.31855h-9.49473v2.31855zM284.60937,176.61688v2.23423h9.49473v-2.23423zM284.60937,175.28898h9.49473v-2.21316h-9.49473z"/><path d="M316.62649,182.66617l1.5858,0.40048c0,0.49181 -0.04684,1.65109 -0.14051,3.47782c-0.04015,0.67449 -0.14386,1.19089 -0.31114,1.54921c-0.16728,0.35832 -0.43827,0.61125 -0.81297,0.7588c-0.3747,0.14754 -0.9033,0.22132 -1.5858,0.22132h-2.06756c-0.6825,0 -1.20441,-0.07728 -1.56573,-0.23185c-0.36132,-0.15457 -0.61558,-0.42858 -0.76279,-0.82203c-0.14721,-0.39345 -0.22081,-0.96957 -0.22081,-1.72837v-15.57641h1.54565v6.97671c0.80294,-0.50586 1.64937,-1.07847 2.53929,-1.71783c0.88992,-0.63936 1.67613,-1.24007 2.35863,-1.80214l0.9033,1.45436c-1.15088,0.89931 -3.08462,2.24829 -5.80122,4.04692v6.44977c0,0.3794 0.03346,0.66043 0.10037,0.84311c0.06691,0.18267 0.18735,0.30914 0.36132,0.3794c0.17397,0.07026 0.44162,0.10539 0.80294,0.10539h1.40514c0.6022,0 1.01036,-0.09134 1.22448,-0.27401c0.21412,-0.18267 0.32787,-0.54099 0.34125,-1.07496c0.02676,-0.46371 0.05018,-1.03983 0.07026,-1.72837c0.02007,-0.68854 0.03011,-1.25763 0.03011,-1.70729zM300.92907,177.77615v-1.66514h4.97821v-5.41697h1.56573v19.03315h-1.56573v-4.00476l-4.85777,2.33962l-0.58213,-1.6019l5.4399,-2.61363v-6.07037z"/><path d="M338.0047,173.56061l-1.66609,5.37481c0.70926,0.96957 1.20441,1.83025 1.48543,2.58202c0.28103,0.75177 0.42154,1.54921 0.42154,2.39232c0,1.1944 -0.24088,2.04454 -0.72264,2.5504c-0.48176,0.50586 -1.29139,0.7588 -2.42889,0.7588h-1.14419l-0.3011,-1.49652h1.04382c0.78956,0 1.34157,-0.15106 1.65606,-0.45317c0.31448,-0.30211 0.47173,-0.83959 0.47173,-1.61244c0,-0.67449 -0.15724,-1.36302 -0.47173,-2.06561c-0.31448,-0.70259 -0.81297,-1.48246 -1.49547,-2.33962l1.62595,-5.71205h-3.37234v16.46167h-1.42521v-18.02142h6.32313zM330.11584,174.55127h-1.50551c-0.16059,1.30682 -0.36801,2.53635 -0.62228,3.6886h2.70991v1.51759h-10.05679v-1.51759h2.5694c-0.25426,-1.6019 -0.48845,-2.83144 -0.70257,-3.6886h-1.36499v-1.49652h3.91432c-0.17397,-0.74475 -0.3747,-1.43328 -0.6022,-2.06561l1.48543,-0.3794c0.26765,0.84311 0.49514,1.65811 0.6825,2.44501h3.49278zM323.21058,188.20961v1.41221h-1.40514v-7.94629h7.66805v6.53408zM323.21058,186.77632h4.85777v-3.60428h-4.85777zM327.24534,174.55127h-3.31212c0.34794,1.74242 0.58213,2.97195 0.70257,3.6886h1.98727c0.24088,-1.09604 0.44831,-2.32557 0.62228,-3.6886z"/></g></g></svg>