<svg version="1.1" xmlns="http://www.w3.org/2000/svg" xmlns:xlink="http://www.w3.org/1999/xlink" width="139.02804" height="20.14428" viewBox="0,0,139.02804,20.14428"><g transform="translate(-239.65546,-170.5132)"><g fill="#ffffff" stroke="none" stroke-miterlimit="10"><path d="M246.64037,170.93641h2.31476v16.71637h-2.31476v-16.71637M253.78771,175.21073h2.27416v15.25633h-2.27416v-15.25633M239.65546,175.27419h2.23355v11.32058h12.99517v2.3276h-15.22872zM259.02639,172.01557h10.61949v2.09483h-10.61949v-2.09483M258.6812,178.95604h11.22864v2.09483h-11.22864v-2.09483M265.74733,172.58689h2.13203v17.90132h-2.13203v-17.90132M261.1178,172.56572h2.03049v7.0251c0,1.31191 -0.06362,2.62666 -0.19087,3.94422c-0.12995,1.32038 -0.41151,2.58292 -0.84469,3.78763c-0.43317,1.20752 -1.11,2.31914 -2.03049,3.33481c-0.10829,-0.15517 -0.2572,-0.33151 -0.44671,-0.529c-0.18951,-0.19749 -0.38849,-0.38794 -0.59696,-0.57132c-0.21117,-0.18339 -0.39798,-0.33151 -0.56042,-0.44435c0.78512,-0.88872 1.36449,-1.85503 1.7381,-2.89891c0.3709,-1.04389 0.61456,-2.12728 0.73098,-3.25017c0.11371,-1.12006 0.17056,-2.24438 0.17056,-3.3729v-7.0251M274.80334,171.06336l2.0711,0.86756c-0.5144,0.67712 -1.0897,1.33589 -1.72592,1.97634c-0.63622,0.64326 -1.30629,1.23292 -2.01019,1.76898c-0.7039,0.53606 -1.40781,1.01568 -2.11172,1.43888c-0.17597,-0.25392 -0.40881,-0.53323 -0.69849,-0.83793c-0.29239,-0.30188 -0.57395,-0.55862 -0.84469,-0.77022c0.63622,-0.33856 1.29004,-0.74484 1.96145,-1.21882c0.66871,-0.47117 1.29816,-0.98605 1.88837,-1.54467c0.58748,-0.5558 1.07751,-1.11583 1.47008,-1.6801M275.27035,176.90352l1.98989,0.8464c-0.5144,0.70533 -1.10323,1.39655 -1.76653,2.07368c-0.6633,0.67712 -1.35367,1.30487 -2.0711,1.88324c-0.71744,0.57837 -1.43488,1.08621 -2.15233,1.52352c-0.17597,-0.23981 -0.4061,-0.51207 -0.69037,-0.81678c-0.28427,-0.30188 -0.56177,-0.55862 -0.8325,-0.77022c0.64976,-0.36677 1.31982,-0.80126 2.01019,-1.30345c0.69037,-0.49937 1.34689,-1.04953 1.96958,-1.65048c0.62269,-0.59812 1.13708,-1.19342 1.54317,-1.7859M275.65615,182.55323l2.0711,0.8464c-0.56853,1.00158 -1.24538,1.93966 -2.0305,2.81428c-0.78512,0.87461 -1.64064,1.67164 -2.56655,2.39108c-0.92861,0.71943 -1.90054,1.34012 -2.91579,1.86207c-0.16244,-0.28213 -0.3885,-0.59953 -0.67818,-0.9522c-0.29239,-0.35267 -0.57395,-0.6489 -0.84469,-0.88872c0.93403,-0.4232 1.84099,-0.94233 2.72086,-1.55738c0.87988,-0.61223 1.68937,-1.29922 2.42847,-2.06098c0.7364,-0.76176 1.34148,-1.57995 1.81527,-2.45456zM279.31104,182.40511h18.23384v2.05252h-18.23384v-2.05252M283.35173,175.33768h10.11187v1.86207h-10.11187v-1.86207M283.37203,178.85023h10.13217v1.84092h-10.13217v-1.84092M282.4583,171.74049h12.40633v11.59566h-2.19294v-9.69126h-8.10168v9.69126h-2.11172v-11.59566M290.49907,185.2617l1.84775,-0.8464c0.58208,0.47963 1.18175,1.02273 1.79902,1.62932c0.61456,0.60659 1.18987,1.20188 1.72592,1.7859c0.53334,0.58683 0.97599,1.10596 1.32794,1.55738l-1.90867,1.03684c-0.33842,-0.47963 -0.7743,-1.02696 -1.30764,-1.64202c-0.53605,-0.61223 -1.10865,-1.2287 -1.7178,-1.84939c-0.60915,-0.62069 -1.19799,-1.17791 -1.76653,-1.67163M281.11818,189.98036c-0.04061,-0.16927 -0.10152,-0.38088 -0.18275,-0.63479c-0.08122,-0.25392 -0.16244,-0.51913 -0.24366,-0.79562c-0.08122,-0.27367 -0.1692,-0.50925 -0.26396,-0.70674c0.23013,-0.05643 0.46024,-0.15235 0.69037,-0.28777c0.23013,-0.1326 0.48055,-0.31176 0.75128,-0.53747c0.20305,-0.14107 0.50356,-0.39498 0.90154,-0.76176c0.40069,-0.36677 0.84469,-0.81113 1.33201,-1.33308c0.48732,-0.52195 0.93403,-1.07211 1.34012,-1.65048l2.23355,0.88872c-0.78512,0.91693 -1.62169,1.78731 -2.5097,2.61114c-0.8853,0.82665 -1.74081,1.52211 -2.56655,2.08637v0.04233c0,0 -0.07445,0.03527 -0.22335,0.1058c-0.1489,0.07053 -0.32217,0.15799 -0.5198,0.26239c-0.19492,0.10722 -0.36684,0.2243 -0.51575,0.35126c-0.1489,0.12696 -0.22336,0.24687 -0.22336,0.35971M281.11818,189.98036l-0.0203,-1.56584l1.29952,-0.7406l11.75656,-0.48668c0.04061,0.28213 0.10152,0.5953 0.18275,0.93951c0.08122,0.34703 0.14214,0.62633 0.18275,0.83793c-1.86806,0.09874 -3.47892,0.18621 -4.83257,0.26239c-1.35366,0.07899 -2.49751,0.14671 -3.43154,0.20314c-0.93403,0.05643 -1.70291,0.10581 -2.30665,0.14812c-0.60103,0.04232 -1.08157,0.0804 -1.44165,0.11426c-0.35737,0.03668 -0.64164,0.07618 -0.85281,0.1185c-0.20847,0.04232 -0.38714,0.09874 -0.53605,0.16927zM311.98171,173.0524v1.41772h2.65996v-1.41772h-2.65996M307.3928,173.0524v1.41772h2.59903v-1.41772h-2.59903M302.86479,173.0524v1.41772h2.53812v-1.41772h-2.53812M300.79368,171.52888h16.04092v4.48591h-16.04092v-4.48591M299.92057,176.98816h17.40135v1.6928h-17.40135v-1.6928M307.51462,175.54927l2.25385,0.12696c-0.09476,0.74765 -0.21659,1.54044 -0.36549,2.37837c-0.1489,0.84075 -0.29104,1.56443 -0.42641,2.17101h-2.03049c0.08122,-0.40909 0.15973,-0.88167 0.23553,-1.41772c0.0731,-0.53606 0.14078,-1.09045 0.20305,-1.66317c0.05956,-0.56991 0.10288,-1.10173 0.12995,-1.59546M299.65661,188.30873h18.23384v1.60816h-18.23384v-1.60816M303.23028,181.91843h10.98498v1.18496h-10.98498v-1.18496M303.31149,184.03442h10.88346v1.1638h-10.88346v-1.1638M303.39272,186.17157h10.92407v1.18496h-10.92407v-1.18496M302.1135,179.63316h13.19822v9.56429h-2.15233v-8.16774h-8.97479v8.16774h-2.0711zM329.89068,181.02971h7.00521v1.81975h-7.00521v-1.81975M330.13434,178.89255l1.72592,0.48668c-0.4061,1.07211 -0.94079,2.08778 -1.60409,3.04703c-0.6633,0.95925 -1.35367,1.76333 -2.0711,2.41223c-0.09476,-0.11286 -0.22607,-0.24687 -0.39391,-0.40204c-0.17056,-0.15517 -0.34789,-0.30752 -0.53199,-0.45706c-0.18139,-0.14671 -0.33977,-0.26944 -0.47514,-0.36818c0.71744,-0.56426 1.3672,-1.26254 1.94928,-2.09483c0.58208,-0.83229 1.04909,-1.70691 1.40104,-2.62383M331.35264,182.10886l1.58378,0.4232c-0.43317,1.19906 -1.00172,2.32055 -1.70562,3.36443c-0.7039,1.04389 -1.46196,1.92556 -2.27415,2.64499c-0.13537,-0.15517 -0.33165,-0.35689 -0.58884,-0.60518c-0.25719,-0.24546 -0.47379,-0.44577 -0.64976,-0.60095c0.78512,-0.60659 1.49579,-1.36835 2.13202,-2.28527c0.63622,-0.91693 1.13708,-1.89734 1.50256,-2.94124M333.97198,182.17234l1.6244,0.33856c-0.4061,1.65048 -0.96787,3.16694 -1.68531,4.54939c-0.71744,1.38245 -1.54995,2.5392 -2.49751,3.47023c-0.09476,-0.11286 -0.21929,-0.2398 -0.37361,-0.38088c-0.15703,-0.14107 -0.32352,-0.28213 -0.4995,-0.4232c-0.17597,-0.14107 -0.32487,-0.25392 -0.44671,-0.33856c0.92049,-0.81819 1.71239,-1.85925 2.37568,-3.1232c0.6633,-1.26113 1.16414,-2.62525 1.50256,-4.09234M336.40858,181.02971h1.86806c0,0 -0.00406,0.1058 -0.01218,0.3174c-0.00542,0.2116 -0.01489,0.38089 -0.02843,0.50784c-0.06768,1.72101 -0.14214,3.11756 -0.22336,4.18967c-0.08122,1.07211 -0.17597,1.89029 -0.28427,2.45456c-0.10829,0.56426 -0.25043,0.95925 -0.42641,1.18495c-0.17597,0.23981 -0.36279,0.40909 -0.56042,0.50784c-0.19492,0.09874 -0.42099,0.16928 -0.67818,0.2116c-0.21659,0.02821 -0.49002,0.04514 -0.82032,0.05078c-0.333,0.00846 -0.68902,0.00564 -1.06804,-0.00846c-0.01353,-0.28213 -0.06362,-0.59953 -0.15026,-0.9522c-0.08934,-0.35267 -0.20169,-0.6489 -0.33706,-0.88872c0.31134,0.02821 0.59561,0.04514 0.8528,0.05078c0.25719,0.00846 0.45349,0.01269 0.58884,0.01269c0.13537,0 0.24366,-0.01834 0.32487,-0.05502c0.08122,-0.03385 0.16244,-0.10015 0.24366,-0.19891c0.10829,-0.14107 0.20305,-0.45565 0.28427,-0.94374c0.08122,-0.48527 0.15974,-1.21882 0.23554,-2.20064c0.0731,-0.979 0.13672,-2.27963 0.19086,-3.9019v-0.33856M330.23587,176.438v1.3754h5.07623v-1.3754h-5.07623M330.23587,173.41212v1.35424h5.07623v-1.35424h-5.07623M328.3272,171.63469h8.95448v7.95614h-8.95448v-7.95614M322.68242,175.21073h1.74623v5.69202c0,0.78997 -0.04738,1.61521 -0.14214,2.47572c-0.09476,0.8605 -0.28427,1.72101 -0.56853,2.58151c-0.28427,0.8605 -0.71068,1.67445 -1.27921,2.44186c-0.56853,0.77022 -1.31982,1.45862 -2.25385,2.06521c-0.12183,-0.19749 -0.30186,-0.43448 -0.54012,-0.71097c-0.23554,-0.27367 -0.4616,-0.49514 -0.67818,-0.66443c0.8528,-0.49373 1.52693,-1.07916 2.02238,-1.75627c0.49274,-0.67712 0.86093,-1.3895 1.10459,-2.13715c0.24366,-0.74765 0.40203,-1.49249 0.47514,-2.23449c0.07581,-0.73919 0.11371,-1.43324 0.11371,-2.08214v-5.67087M323.49463,186.08694l1.31982,-1.07916c0.35195,0.36677 0.71474,0.76458 1.08835,1.19342c0.3709,0.43166 0.71609,0.85909 1.03555,1.2823c0.31676,0.4232 0.56313,0.81113 0.73911,1.1638l-1.44165,1.22728c-0.16244,-0.35267 -0.39256,-0.75189 -0.69037,-1.19765c-0.29781,-0.44294 -0.62675,-0.89013 -0.98682,-1.34154c-0.35737,-0.45142 -0.71203,-0.86756 -1.06398,-1.24844M320.1443,171.86745h6.88338v12.90757h-1.76653v-10.87623h-3.39093v10.96086h-1.72592zM351.84034,170.74597h2.0508v14.87544h-2.0508v-14.87544M345.70824,179.31575l10.6398,-4.69751l0.8122,1.94671l-10.6398,4.76099l-0.81219,-2.0102M347.77936,172.77732h2.0711v13.83861c0,0.39499 0.03384,0.69405 0.10152,0.89718c0.06768,0.20595 0.20982,0.3442 0.42641,0.41474c0.21659,0.07053 0.5347,0.1058 0.95434,0.1058c0.12183,0 0.32217,0 0.60103,0c0.27615,0 0.59019,0 0.94215,0c0.35195,0 0.70796,0 1.06804,0c0.35737,0 0.6809,0 0.97058,0c0.29239,0 0.50627,0 0.64163,0c0.37903,0 0.6633,-0.07476 0.85281,-0.22429c0.18951,-0.14671 0.33165,-0.41756 0.42641,-0.81255c0.09476,-0.39499 0.16245,-0.9663 0.20305,-1.71396c0.24366,0.18339 0.55094,0.35266 0.92184,0.50783c0.37361,0.15517 0.70932,0.26098 1.00712,0.31741c-0.09476,1.00158 -0.25043,1.78731 -0.46701,2.35722c-0.21659,0.57273 -0.54147,0.98181 -0.97464,1.22728c-0.43317,0.24828 -1.03555,0.37241 -1.80714,0.37241c-0.13537,0 -0.35466,0 -0.65788,0c-0.30592,0 -0.65517,0 -1.04774,0c-0.39256,0 -0.78107,0 -1.1655,0c-0.38714,0 -0.73234,0 -1.03555,0c-0.30592,0 -0.5198,0 -0.64164,0c-0.86635,0 -1.54994,-0.09874 -2.0508,-0.29624c-0.50085,-0.19749 -0.84875,-0.54734 -1.04368,-1.04953c-0.19763,-0.49937 -0.29646,-1.20752 -0.29646,-2.12446v-13.81745M355.94194,174.87216h-0.16244l0.4061,-0.3174l0.4061,-0.27508l1.50257,0.57132l-0.08122,0.38089c0,1.00158 -0.00271,1.92133 -0.00813,2.75926c-0.00813,0.84075 -0.01489,1.58558 -0.0203,2.23449c-0.00813,0.6489 -0.02302,1.19201 -0.04467,1.62932c-0.01895,0.4373 -0.04196,0.76176 -0.06904,0.97336c-0.04061,0.47963 -0.1489,0.84922 -0.32488,1.10878c-0.17597,0.26239 -0.42641,0.45001 -0.75128,0.56285c-0.28427,0.12696 -0.61863,0.20032 -1.00307,0.22006c-0.38714,0.02257 -0.7364,0.03385 -1.04774,0.03385c-0.02707,-0.28213 -0.08392,-0.61082 -0.17056,-0.98605c-0.08934,-0.37241 -0.18815,-0.67853 -0.29646,-0.91834c0.18951,0.0141 0.39256,0.02116 0.60914,0.02116c0.21659,0 0.37226,0 0.46702,0c0.13537,0 0.24366,-0.03244 0.32487,-0.09733c0.08122,-0.06207 0.13537,-0.19185 0.16245,-0.38934c0.02707,-0.11286 0.04738,-0.3569 0.06091,-0.73214c0.01353,-0.37241 0.02301,-0.86897 0.02843,-1.48966c0.00813,-0.62069 0.01218,-1.37258 0.01218,-2.25566c0,-0.88025 0,-1.8917 0,-3.03434M339.92134,175.71856h6.63972v2.13716h-6.63972v-2.13716M342.35793,171.02105h2.0508v13.94441h-2.0508v-13.94441M339.67767,185.13473c0.555,-0.2116 1.2007,-0.46975 1.93709,-0.77445c0.73911,-0.30188 1.51745,-0.63338 2.33506,-0.99451c0.82032,-0.3583 1.64335,-0.71379 2.46908,-1.06646l0.48732,2.0102c-1.08293,0.55016 -2.18345,1.09608 -3.30159,1.63778c-1.11542,0.54452 -2.13337,1.03543 -3.05386,1.47273zM360.65269,174.2162h18.03081v2.22179h-18.03081v-2.22179M367.2518,179.23111h7.87833v2.20064h-7.87833v-2.20064M374.56159,179.23111h2.27415c0,0 -0.00271,0.06348 -0.00813,0.19044c-0.00813,0.12696 -0.01218,0.26803 -0.01218,0.4232c0,0.15517 -0.01353,0.28213 -0.04061,0.38089c-0.12183,1.96082 -0.25719,3.55487 -0.4061,4.78215c-0.1489,1.22728 -0.31812,2.17948 -0.50762,2.85659c-0.18951,0.67712 -0.42641,1.1638 -0.71067,1.46004c-0.28427,0.32445 -0.59155,0.55016 -0.92184,0.67712c-0.333,0.12696 -0.72286,0.2116 -1.16957,0.25392c-0.37903,0.04232 -0.88258,0.05925 -1.51069,0.05079c-0.6308,-0.00564 -1.28463,-0.02257 -1.96146,-0.05079c-0.01353,-0.33856 -0.09476,-0.71943 -0.24366,-1.14264c-0.1489,-0.4232 -0.33165,-0.78997 -0.54823,-1.10032c0.7039,0.07053 1.37803,0.11286 2.02238,0.12696c0.64164,0.0141 1.11136,0.02116 1.40916,0.02116c0.23013,0 0.41963,-0.01834 0.56853,-0.05502c0.1489,-0.03385 0.29104,-0.10015 0.42641,-0.1989c0.20305,-0.19749 0.3858,-0.61082 0.54824,-1.23997c0.16244,-0.62634 0.31134,-1.51788 0.44671,-2.67462c0.13537,-1.15674 0.25043,-2.62383 0.34518,-4.40127v-0.35971M365.93199,175.61276h2.43659c-0.05415,1.11442 -0.13537,2.2359 -0.24366,3.36443c-0.10829,1.12853 -0.28427,2.24295 -0.52793,3.34327c-0.24366,1.10032 -0.59561,2.15126 -1.05586,3.15284c-0.46025,1.00158 -1.0694,1.93543 -1.82744,2.80158c-0.75806,0.86897 -1.70561,1.63496 -2.84269,2.29797c-0.16244,-0.29624 -0.39527,-0.62069 -0.69849,-0.97336c-0.30592,-0.35267 -0.6078,-0.64185 -0.9056,-0.86757c1.05586,-0.57837 1.92627,-1.24843 2.61122,-2.01019c0.68224,-0.76176 1.22371,-1.58418 1.6244,-2.46725c0.39798,-0.88025 0.69172,-1.80424 0.88123,-2.77195c0.18951,-0.96489 0.31812,-1.9453 0.3858,-2.94124c0.06768,-0.9931 0.12183,-1.96929 0.16245,-2.92853M368.0843,171.35961l2.13202,-0.8464c0.27073,0.47963 0.54823,1.00863 0.8325,1.58699c0.28427,0.57837 0.50085,1.07211 0.64976,1.48119l-2.23355,1.01568c-0.13537,-0.4373 -0.33842,-0.95925 -0.60914,-1.56584c-0.27073,-0.60659 -0.52793,-1.1638 -0.77159,-1.67163z"/></g></g></svg>