<svg version="1.1" xmlns="http://www.w3.org/2000/svg" xmlns:xlink="http://www.w3.org/1999/xlink" width="180" height="40" viewBox="0,0,180,40"><g transform="translate(-150,-160)"><g stroke-linecap="round" stroke-miterlimit="10"><path d="M150,160h180v40h-180z" fill="none" fill-rule="nonzero" stroke="none" stroke-width="0.2" stroke-linejoin="round"/><path d="M218.07977,183.20213l1.23844,0.25447c0,0.53157 -0.02827,1.22148 -0.08482,2.06973c-0.03393,0.47502 -0.12441,0.85108 -0.27144,1.12817c-0.14703,0.2771 -0.39019,0.48068 -0.72949,0.61074c-0.3393,0.13006 -0.80866,0.1951 -1.40809,0.1951h-1.74739c-0.50895,0 -0.90763,-0.05938 -1.19603,-0.17813c-0.2884,-0.11875 -0.49764,-0.32233 -0.6277,-0.61074c-0.13006,-0.2884 -0.1951,-0.69274 -0.1951,-1.213v-4.78413l-2.47689,0.13572l-0.05089,0.66163c-0.10179,1.15362 -0.31951,2.10366 -0.65315,2.85012c-0.33364,0.74646 -0.84542,1.40527 -1.53533,1.97642c-0.68991,0.57115 -1.66257,1.15079 -2.91798,1.73891l-0.71253,-1.18755c1.11969,-0.49764 1.98208,-0.97831 2.58716,-1.44202c0.60508,-0.46371 1.05183,-1.00376 1.34023,-1.62016c0.2884,-0.6164 0.47785,-1.40527 0.56833,-2.36662l0.05089,-0.54288l-3.0028,0.15268l-0.2884,-1.27237c1.27803,-1.0179 2.62957,-2.34117 4.05463,-3.96981h-5.0895v-1.3063h6.81993l-0.66163,-2.01883l1.40809,-0.16965l0.74646,2.18848h5.92078v1.3063h-7.48156c-0.5655,0.6786 -1.17341,1.3572 -1.82374,2.0358c-0.65033,0.6786 -1.25824,1.27803 -1.82374,1.79829l7.58335,-0.35626c-0.66729,-0.74646 -1.28368,-1.40244 -1.84918,-1.96794l0.95004,-0.78039c0.53157,0.52026 1.18472,1.19603 1.95946,2.02732c0.77473,0.83128 1.44485,1.58057 2.01035,2.24786l-0.967,0.93307c-0.21489,-0.27144 -0.55419,-0.68426 -1.0179,-1.23844l-2.30724,0.11875v4.58055c0,0.41847 0.07917,0.69274 0.23751,0.8228c0.15834,0.13006 0.46371,0.1951 0.91611,0.1951h1.10272c0.38454,0 0.66729,-0.02545 0.84825,-0.07634c0.18096,-0.05089 0.30537,-0.1442 0.37323,-0.27992c0.06786,-0.13572 0.1131,-0.34496 0.13572,-0.6277c0.02262,-0.30537 0.03959,-0.65033 0.05089,-1.03486c0.01131,-0.38454 0.01696,-0.71253 0.01696,-0.98397zM201.18264,175.95808v7.90569h1.39113v0.967h-10.58616v-0.66163c-0.44109,0.18096 -0.99528,0.39585 -1.66257,0.64467c-1.49292,0.59943 -2.30158,0.92742 -2.42599,0.98397l-0.3393,-1.22148c0.24882,-0.07917 0.92742,-0.33364 2.0358,-0.76342v-5.7681h-1.84918v-1.23844h1.84918v-4.22428h1.17058v4.22428h1.73043v1.23844h-1.73043v5.32701c0.68991,-0.27144 1.16493,-0.46371 1.42506,-0.57681l0.15268,0.66163l0.08482,0.40716h0.95004v-7.90569h3.29121v-1.23844h-4.29214v-1.00093h4.29214v-1.3572h1.18755v1.3572h4.37697v1.00093h-4.37697v1.23844zM185.74449,186.67996l-0.79735,1.23844c-1.95663,-1.37982 -3.48913,-2.7144 -4.59751,-4.00374c-1.23279,1.3572 -2.87274,2.69743 -4.91985,4.0207l-0.83128,-1.22148c2.06973,-1.32327 3.69271,-2.61826 4.86895,-3.88498c-0.7917,-1.07445 -1.45051,-2.25069 -1.97642,-3.52872c-0.52591,-1.27803 -0.96983,-2.75398 -1.33175,-4.42786v-1.32327h8.39767v1.3063c-0.32799,1.66257 -0.75212,3.1357 -1.27237,4.41938c-0.52026,1.28368 -1.19886,2.46841 -2.0358,3.55417c1.10838,1.26672 2.60695,2.5504 4.49572,3.85105zM174.12347,172.37846l1.25541,0.37323c-0.37323,1.17624 -0.82563,2.36379 -1.3572,3.56265v11.60406h-1.27237v-9.07627c-0.55419,0.99528 -1.15362,1.89442 -1.79829,2.69743l-0.45805,-1.62864c0.64467,-0.84825 1.30065,-1.96511 1.96794,-3.35059c0.66729,-1.38547 1.22148,-2.77943 1.66257,-4.18187zM183.18278,174.87232h-5.68327c0.3393,1.44768 0.73515,2.72288 1.18755,3.82561c0.4524,1.10272 1.01224,2.1178 1.67953,3.04522c0.73515,-0.96135 1.3261,-1.99339 1.77284,-3.09611c0.44675,-1.10272 0.79453,-2.36096 1.04335,-3.77471zM200.02902,183.86377v-1.15362h-5.49666v1.15362zM194.53236,177.97691h5.49666v-1.05183h-5.49666zM194.53236,181.811h5.49666v-1.03486h-5.49666zM194.53236,178.87606v1.0179h5.49666v-1.0179zM192.05547,187.95233l-0.49198,-1.03486c0.78039,-0.28275 1.54381,-0.60508 2.29027,-0.967c0.74646,-0.36192 1.37982,-0.71819 1.90008,-1.06879l0.57681,1.00093c-1.17624,0.72384 -2.6013,1.41375 -4.27518,2.06973zM198.11197,185.96743l0.45805,-0.98397c1.94532,0.88218 3.2799,1.49857 4.00374,1.84918l-0.47502,1.03486c-0.57681,-0.30537 -1.24975,-0.64184 -2.01883,-1.00942c-0.76908,-0.36757 -1.42506,-0.66446 -1.96794,-0.89066z" fill="#ffffff" fill-rule="evenodd" stroke="#ffffff" stroke-width="0.45" stroke-linejoin="miter"/></g></g></svg>