<svg version="1.1" xmlns="http://www.w3.org/2000/svg" xmlns:xlink="http://www.w3.org/1999/xlink" width="61.79959" height="21.20537" viewBox="0,0,61.79959,21.20537"><g transform="translate(-240.24836,-169.98197)"><g fill="#ffffff" stroke="#ffffff" stroke-width="0.5" stroke-linecap="round" stroke-miterlimit="10"><path d="M258.42037,178.76951v1.57059h-5.25856v7.74236h2.7044v-5.79571h1.50244v8.45023h-1.50244v-1.15029h-8.56393v-7.21145h1.48098v5.70723h2.81172v-7.74236h-5.15124v-1.57059h5.15124v-3.62785h-4.5288v-1.52635h4.5288v-3.07482h1.56683v3.07482h4.55026v1.52635h-4.55026v3.62785zM246.18618,171.77927v1.52635l-1.54537,5.50814c0.55805,0.95858 0.96586,1.85448 1.22342,2.6877c0.25756,0.83322 0.38634,1.68488 0.38634,2.55498c0,0.8406 -0.08943,1.49317 -0.26829,1.95771c-0.17886,0.46454 -0.46504,0.79636 -0.85854,0.99545c-0.3935,0.19909 -0.94082,0.29863 -1.64196,0.29863h-0.90147l-0.34342,-1.54847h0.88c0.44358,0 0.77984,-0.05162 1.00878,-0.15485c0.22894,-0.10323 0.38992,-0.28757 0.48293,-0.55303c0.09301,-0.26545 0.13951,-0.64888 0.13951,-1.15029c0,-1.59271 -0.51512,-3.18543 -1.54537,-4.77814l1.56683,-5.77359h-2.83318v17.38713h-1.43805v-18.95772z"/><path d="M279.51898,185.87036h-7.81271c0.71545,0.82585 1.70635,1.4858 2.97269,1.97983c1.26635,0.49404 3.00847,0.90328 5.22636,1.22772l-0.55805,1.63696c-2.16066,-0.35394 -3.95644,-0.84797 -5.38734,-1.48211c-1.4309,-0.63414 -2.56846,-1.44524 -3.4127,-2.43331c-1.24488,1.72544 -4.26408,3.0527 -9.05759,3.98178l-0.49366,-1.61483c2.43253,-0.42767 4.31058,-0.90696 5.63417,-1.43787c1.32358,-0.5309 2.20716,-1.15029 2.65074,-1.85817h-7.92003v-1.39362h8.30637l0.02146,-1.30514h1.5883v1.30514h8.24198zM276.55702,173.77016h-12.21273v9.5784h-1.54537v-11.01627h5.60197c0.3148,-0.89959 0.52943,-1.59271 0.6439,-2.07938l1.73854,0.17697c-0.11447,0.47192 -0.30764,1.10605 -0.57951,1.90241h7.92003v11.01627h-1.56683zM275.71995,177.77407v1.2609h-4.55026v0.24333c1.98895,1.03231 3.46278,1.8213 4.42148,2.36695l-0.60098,1.15029c-0.91578,-0.5604 -2.18928,-1.28302 -3.8205,-2.16786v1.88029h-1.37366v-2.43331c-0.52943,0.58989 -1.13399,1.13923 -1.81366,1.64802c-0.67968,0.50878 -1.51318,1.02125 -2.5005,1.53741l-0.60098,-1.23878c1.03025,-0.48666 1.87806,-0.95858 2.54342,-1.41575c0.66537,-0.45717 1.26992,-0.9807 1.81366,-1.57059h-4.03514v-1.2609h4.59319v-3.42876h1.37366v3.42876zM274.30336,174.21258c-0.82992,0.91434 -1.60261,1.74019 -2.31806,2.47756l0.81561,0.8406c0.85854,-0.79636 1.667,-1.61483 2.42537,-2.45543zM268.89456,176.62378l-0.83708,0.90696c-0.32911,-0.36868 -0.65821,-0.71893 -0.98732,-1.05075c-0.32911,-0.33182 -0.61529,-0.63045 -0.85854,-0.8959l-0.51512,-0.50878l0.83708,-0.88484c1.03025,0.97333 1.81724,1.78443 2.36098,2.43331z"/><path d="M299.32979,183.41493h-9.37955l-0.17171,1.63696h10.21662c-0.01431,0.33919 -0.03935,0.79636 -0.07512,1.3715c-0.03577,0.57515 -0.06797,1.05444 -0.09659,1.43787c-0.05724,0.70787 -0.18602,1.25352 -0.38634,1.63696c-0.20033,0.38343 -0.50082,0.65626 -0.90147,0.81848c-0.40065,0.16222 -0.9587,0.24333 -1.67415,0.24333h-3.43416l-0.30049,-1.52635h3.36977c0.4722,0 0.81919,-0.0295 1.04098,-0.08848c0.22179,-0.05899 0.38277,-0.18803 0.48293,-0.38712c0.10016,-0.19909 0.16455,-0.51984 0.19317,-0.96226l0.08585,-1.21666h-10.25955l0.42927,-4.29148h9.25076v-1.59271h-9.2293v-1.3715h10.83906zM293.01952,178.39346h-1.43805v-4.40208h-3.71318v-1.45999h5.6449c-0.18602,-0.45717 -0.45073,-1.01757 -0.79415,-1.6812l1.52391,-0.46454l0.21463,0.39818c0.12878,0.26545 0.26829,0.54565 0.41854,0.8406c0.15024,0.29495 0.29691,0.59727 0.44,0.90696h5.77368v1.45999h-4.48587v4.40208h-1.43805v-4.40208h-2.14635zM285.07803,182.50797l0.81561,0.24333l0.72976,0.19909c-1.1161,3.52462 -1.93887,6.16439 -2.4683,7.91933l-1.54537,-0.50878c0.27187,-0.78161 0.7226,-2.14943 1.3522,-4.10345c0.6296,-1.95402 1.00163,-3.20386 1.1161,-3.74951zM289.92878,174.78773l1.03025,0.97333c-0.42927,0.54565 -0.97659,1.14661 -1.64196,1.80286c-0.66537,0.65626 -1.29854,1.22772 -1.89952,1.71438l-0.83708,-1.12817c1.41659,-1.16504 2.53269,-2.28584 3.3483,-3.3624zM287.41755,174.30107l-0.96586,1.3715c-0.52943,-0.50141 -1.67415,-1.48211 -3.43416,-2.9421l0.96586,-1.2609c0.68683,0.51616 1.83155,1.45999 3.43416,2.83149zM282.45948,178.19437l0.96586,-1.30514c1.63123,1.29777 2.77595,2.2416 3.43416,2.83149l-1.03025,1.3715c-0.97301,-0.87009 -2.09627,-1.83605 -3.36977,-2.89785zM297.29075,175.98227c1.53106,1.28302 2.71155,2.32271 3.54148,3.11906l0.88,-1.17241c-0.40065,-0.36868 -0.96228,-0.85166 -1.68488,-1.44893c-0.7226,-0.59727 -1.36293,-1.11711 -1.92098,-1.55953z"/></g></g></svg>