<svg version="1.1" xmlns="http://www.w3.org/2000/svg" xmlns:xlink="http://www.w3.org/1999/xlink" width="208" height="80" viewBox="0,0,208,80"><g transform="translate(-136,-140)"><g stroke="none" stroke-miterlimit="10"><path d="M136,220v-80h208v80z" fill-opacity="0" fill="#000000" stroke-width="1"/><path d="M179.634,203.63046c-3.01538,0 -5.83333,-0.56538 -8.45385,-1.69615c-2.62051,-1.13077 -4.9,-2.66538 -6.83846,-4.60385c-1.93846,-1.93846 -3.4641,-4.22692 -4.57692,-6.86538c-1.11282,-2.63846 -1.66923,-5.46538 -1.66923,-8.48077c0,-3.01538 0.55641,-5.82436 1.66923,-8.42692c1.11282,-2.60256 2.63846,-4.87308 4.57692,-6.81154c1.93846,-1.93846 4.21795,-3.45513 6.83846,-4.55c2.62051,-1.09487 5.43846,-1.64231 8.45385,-1.64231c3.01538,0 5.83333,0.54744 8.45385,1.64231c2.62051,1.09487 4.9,2.61154 6.83846,4.55c1.93846,1.93846 3.4641,4.20897 4.57692,6.81154c1.11282,2.60256 1.66923,5.41154 1.66923,8.42692c0,3.01538 -0.55641,5.84231 -1.66923,8.48077c-1.11282,2.63846 -2.63846,4.92692 -4.57692,6.86538c-1.93846,1.93846 -4.21795,3.47308 -6.83846,4.60385c-2.62051,1.13077 -5.43846,1.69615 -8.45385,1.69615zM179.634,200.50738c1.25641,-1.29231 2.30641,-2.77308 3.15,-4.44231c0.84359,-1.66923 1.53462,-3.65256 2.07308,-5.95h-10.39231c0.50256,2.15385 1.17564,4.09231 2.01923,5.81538c0.84359,1.72308 1.89359,3.24872 3.15,4.57692zM175.05708,199.86123c-0.89744,-1.3641 -1.66923,-2.8359 -2.31538,-4.41538c-0.64615,-1.57949 -1.18462,-3.35641 -1.61539,-5.33077h-8.07692c1.3641,2.54872 2.94359,4.55 4.73846,6.00385c1.79487,1.45385 4.21795,2.70128 7.26923,3.74231zM184.26477,199.80738c2.58462,-0.82564 4.90897,-2.0641 6.97308,-3.71538c2.0641,-1.65128 3.72436,-3.64359 4.98077,-5.97692h-8.02308c-0.46667,1.93846 -1.0141,3.69744 -1.64231,5.27692c-0.6282,1.57949 -1.39102,3.05128 -2.28846,4.41538zM161.97246,186.88431h8.56154c-0.10769,-0.96923 -0.17051,-1.83974 -0.18846,-2.61154c-0.01795,-0.77179 -0.02692,-1.53462 -0.02692,-2.28846c0,-0.89744 0.01795,-1.69615 0.05385,-2.39615c0.0359,-0.7 0.1077,-1.48077 0.21538,-2.34231h-8.61538c-0.25128,0.86154 -0.4218,1.63333 -0.51154,2.31538c-0.08974,0.68205 -0.13461,1.48974 -0.13461,2.42308c0,0.93333 0.04487,1.76795 0.13461,2.50385c0.08974,0.7359 0.26026,1.53461 0.51154,2.39615zM173.87246,186.88431h11.57692c0.14359,-1.11282 0.23333,-2.01923 0.26923,-2.71923c0.0359,-0.7 0.05385,-1.42692 0.05385,-2.18077c0,-0.71795 -0.01795,-1.40897 -0.05385,-2.07308c-0.0359,-0.6641 -0.12564,-1.55256 -0.26923,-2.66539h-11.57692c-0.14359,1.11282 -0.23333,2.00128 -0.26923,2.66539c-0.0359,0.6641 -0.05385,1.35513 -0.05385,2.07308c0,0.75385 0.01795,1.48077 0.05385,2.18077c0.0359,0.7 0.12564,1.60641 0.26923,2.71923zM188.68015,186.88431h8.61538c0.25128,-0.86154 0.4218,-1.66026 0.51154,-2.39615c0.08974,-0.7359 0.13461,-1.57051 0.13461,-2.50385c0,-0.93333 -0.04487,-1.74103 -0.13461,-2.42308c-0.08974,-0.68205 -0.26026,-1.45385 -0.51154,-2.31539h-8.56154c0.10769,1.25641 0.17949,2.21667 0.21538,2.88077c0.0359,0.6641 0.05385,1.28333 0.05385,1.85769c0,0.78974 -0.02692,1.53462 -0.08077,2.23462c-0.05385,0.7 -0.13462,1.58846 -0.24231,2.66538zM188.14169,174.01508h8.07692c-1.18462,-2.47692 -2.80897,-4.54103 -4.87308,-6.19231c-2.0641,-1.65128 -4.44231,-2.81795 -7.13461,-3.5c0.89744,1.32821 1.66026,2.7641 2.28846,4.30769c0.62821,1.54359 1.17564,3.33846 1.64231,5.38462zM174.46477,174.01508h10.44615c-0.39487,-1.90256 -1.05897,-3.74231 -1.99231,-5.51923c-0.93333,-1.77692 -2.02821,-3.34744 -3.28462,-4.71154c-1.14872,0.96923 -2.11795,2.24359 -2.90769,3.82308c-0.78974,1.57949 -1.54359,3.71538 -2.26154,6.40769zM163.04939,174.01508h8.13077c0.39487,-1.93846 0.89744,-3.67051 1.50769,-5.19615c0.61026,-1.52564 1.38205,-3.00641 2.31538,-4.44231c-2.69231,0.68205 -5.04359,1.83077 -7.05385,3.44615c-2.01026,1.61538 -3.64359,3.67949 -4.9,6.19231z" fill="#ffffff" stroke-width="0.05"/><path d="M219.97687,178.4411v10.82084h-2.7378v-8.23948h-3.23321v-2.58136h5.97102M214.50127,172.44401l1.77305,-1.8252c0.48672,0.33028 1.02211,0.69879 1.60618,1.10555c0.58059,0.41023 1.14379,0.81526 1.68962,1.21506c0.5493,0.39981 0.99778,0.74746 1.34543,1.04297l-1.85128,2.08595c-0.33028,-0.33028 -0.75963,-0.70401 -1.28807,-1.1212c-0.53192,-0.41719 -1.08469,-0.84828 -1.65833,-1.29329c-0.57363,-0.44152 -1.1125,-0.84481 -1.61661,-1.20985M218.9339,188.16682c0.41719,0 0.82221,0.14254 1.21506,0.42762c0.38938,0.28856 0.94041,0.64143 1.65311,1.05862c0.85176,0.52149 1.85128,0.85524 2.99855,1.00125c1.14727,0.14949 2.4336,0.22424 3.859,0.22424c0.69532,0 1.46538,-0.01738 2.31018,-0.05215c0.84133,-0.03476 1.70526,-0.07822 2.59179,-0.13037c0.88653,-0.05215 1.7435,-0.11299 2.57093,-0.18252c0.82395,-0.06953 1.57489,-0.14776 2.25282,-0.23467c-0.1043,0.24336 -0.21729,0.54235 -0.33897,0.89696c-0.12168,0.35809 -0.22598,0.71096 -0.31289,1.05862c-0.08691,0.34766 -0.13906,0.65186 -0.15645,0.9126c-0.48672,0.03476 -1.09512,0.06953 -1.8252,0.1043c-0.73008,0.03476 -1.51579,0.06084 -2.35712,0.07822c-0.84481,0.01738 -1.6844,0.03476 -2.51878,0.05215c-0.83438,0.01738 -1.60792,0.02607 -2.32061,0.02607c-1.61661,0 -2.98986,-0.09561 -4.11974,-0.28682c-1.12989,-0.19121 -2.14678,-0.54756 -3.05069,-1.06905c-0.52149,-0.31289 -0.99604,-0.631 -1.42366,-0.95432c-0.42414,-0.31985 -0.78397,-0.47977 -1.07948,-0.47977c-0.27813,0 -0.59623,0.15645 -0.95432,0.46934c-0.35461,0.31289 -0.72661,0.7127 -1.11598,1.19942c-0.39285,0.48672 -0.78918,0.99951 -1.18899,1.53838l-1.8252,-2.50313c0.90391,-0.92129 1.81303,-1.67745 2.72737,-2.26847c0.91086,-0.59102 1.71395,-0.88653 2.40927,-0.88653M221.22844,176.77235h16.40074v2.50313h-16.40074v-2.50313M222.92327,170.98385h13.08931v2.47706h-13.08931v-2.47706M225.26996,178.20644h2.7378c-0.05215,1.37325 -0.16514,2.63351 -0.33897,3.78078c-0.17383,1.14727 -0.46412,2.18503 -0.87088,3.11327c-0.41023,0.93172 -0.9943,1.75393 -1.75219,2.46663c-0.75442,0.7127 -1.75741,1.32979 -3.00898,1.85128c-0.08691,-0.22598 -0.2225,-0.48324 -0.40676,-0.7718c-0.18078,-0.28508 -0.37895,-0.56321 -0.59449,-0.83438c-0.21902,-0.2677 -0.43283,-0.47977 -0.64143,-0.63621c1.06036,-0.39981 1.90342,-0.88305 2.52921,-1.44973c0.62578,-0.56321 1.10034,-1.21506 1.42366,-1.95557c0.31985,-0.73703 0.54061,-1.5662 0.66229,-2.48749c0.12168,-0.92129 0.20859,-1.94688 0.26074,-3.07677M230.25015,178.25858h2.63351v7.37903c0,0.34766 0.03476,0.56842 0.1043,0.66229c0.06953,0.09734 0.22598,0.14602 0.46934,0.14602c0.06953,0 0.20512,0 0.40676,0c0.19816,0 0.39807,0 0.59971,0c0.19816,0 0.33201,0 0.40154,0c0.17383,0 0.3042,-0.06605 0.39111,-0.19816c0.08691,-0.12863 0.15645,-0.41023 0.20859,-0.84481c0.05215,-0.43457 0.08691,-1.08643 0.1043,-1.95557c0.17383,0.13906 0.39633,0.27813 0.6675,0.41719c0.2677,0.13906 0.5493,0.26074 0.84481,0.36504c0.29551,0.1043 0.56494,0.19121 0.8083,0.26074c-0.08691,1.16465 -0.22598,2.06856 -0.41719,2.71173c-0.19121,0.64317 -0.46934,1.08991 -0.83438,1.34022c-0.36504,0.25379 -0.86045,0.38068 -1.48624,0.38068c-0.1043,0 -0.25553,0 -0.45369,0c-0.20164,0 -0.40676,0 -0.61535,0c-0.20859,0 -0.4085,0 -0.59971,0c-0.19121,0 -0.34766,0 -0.46934,0c-0.74746,0 -1.31588,-0.10082 -1.70526,-0.30246c-0.39285,-0.19816 -0.6675,-0.54061 -0.82395,-1.02733c-0.15645,-0.48672 -0.23467,-1.13858 -0.23467,-1.95557zM255.30757,169.44547h2.63351v18.33024h-2.63351v-18.33024M247.43313,180.00556l13.66294,-5.7885l1.04297,2.39884l-13.66294,5.86672l-1.04297,-2.47706M250.09271,171.9486h2.65958v17.0526c0,0.48672 0.04346,0.85524 0.13037,1.10555c0.08691,0.25379 0.26943,0.42414 0.54756,0.51106c0.27813,0.08691 0.68662,0.13037 1.22549,0.13037c0.15645,0 0.41371,0 0.7718,0c0.35461,0 0.75789,0 1.20985,0c0.45195,0 0.90913,0 1.37151,0c0.45891,0 0.8761,0 1.25157,0c0.37199,0 0.6449,0 0.81873,0c0.48672,0 0.85176,-0.09213 1.09512,-0.27639c0.24336,-0.18078 0.42588,-0.51453 0.54756,-1.00125c0.12168,-0.48672 0.20859,-1.19073 0.26074,-2.11202c0.31289,0.22598 0.70922,0.43457 1.18899,0.62578c0.47629,0.19121 0.90565,0.32158 1.28807,0.39111c-0.12168,1.23418 -0.32158,2.20241 -0.59971,2.90468c-0.27813,0.70575 -0.69532,1.20985 -1.25157,1.51231c-0.55625,0.30594 -1.32979,0.45891 -2.32061,0.45891c-0.17383,0 -0.45543,0 -0.84481,0c-0.39285,0 -0.84133,0 -1.34543,0c-0.5041,0 -1.00299,0 -1.49667,0c-0.49715,0 -0.94041,0 -1.32979,0c-0.39285,0 -0.6675,0 -0.82395,0c-1.1125,0 -1.99034,-0.12168 -2.63351,-0.36504c-0.64317,-0.24336 -1.08991,-0.67446 -1.34022,-1.29329c-0.25379,-0.61535 -0.38068,-1.48798 -0.38068,-2.61786v-17.02653M260.57458,174.52996h-0.20859l0.52149,-0.39111l0.52149,-0.33897l1.9295,0.70401l-0.1043,0.46934c0,1.23418 -0.00348,2.36755 -0.01043,3.40009c-0.01043,1.03602 -0.01912,1.95383 -0.02607,2.75345c-0.01043,0.79961 -0.02781,1.46885 -0.05215,2.00772c-0.02781,0.53887 -0.0591,0.93868 -0.09387,1.19942c-0.05215,0.59102 -0.19121,1.04645 -0.41719,1.36629c-0.22598,0.32332 -0.54756,0.55451 -0.96475,0.69358c-0.36504,0.15645 -0.7944,0.24684 -1.28807,0.27117c-0.49715,0.02781 -0.94563,0.04172 -1.34543,0.04172c-0.03476,-0.34766 -0.10777,-0.75268 -0.21902,-1.21506c-0.11473,-0.45891 -0.24162,-0.83612 -0.38068,-1.13163c0.24336,0.01738 0.5041,0.02607 0.78223,0.02607c0.27813,0 0.47803,0 0.59971,0c0.17383,0 0.31289,-0.03998 0.41719,-0.11994c0.1043,-0.07648 0.17383,-0.23641 0.20859,-0.47977c0.03476,-0.13906 0.06084,-0.43979 0.07822,-0.90217c0.01738,-0.45891 0.03129,-1.07079 0.04172,-1.83563c0.00695,-0.76485 0.01043,-1.69135 0.01043,-2.77952c0,-1.08469 0,-2.33104 0,-3.73906M240.00195,175.57293h8.5263v2.63351h-8.5263v-2.63351M243.13086,169.78443h2.63351v17.18297h-2.63351v-17.18297M239.68905,187.176c0.7127,-0.26074 1.5436,-0.57885 2.4927,-0.95432c0.94563,-0.37199 1.94514,-0.78049 2.99855,-1.22549c1.04993,-0.44152 2.10507,-0.87957 3.16542,-1.31415l0.62578,2.47706c-1.39063,0.67793 -2.80212,1.35065 -4.23447,2.01815c-1.43583,0.67098 -2.74476,1.2759 -3.92679,1.81477zM281.38188,169.44547h2.63351v18.33024h-2.63351v-18.33024M273.50744,180.00556l13.66294,-5.7885l1.04297,2.39884l-13.66294,5.86672l-1.04297,-2.47706M276.16702,171.9486h2.65958v17.0526c0,0.48672 0.04346,0.85524 0.13037,1.10555c0.08691,0.25379 0.26943,0.42414 0.54756,0.51106c0.27813,0.08691 0.68662,0.13037 1.22549,0.13037c0.15645,0 0.41197,0 0.76658,0c0.35809,0 0.76311,0 1.21506,0c0.45195,0 0.90913,0 1.37151,0c0.45891,0 0.8761,0 1.25157,0c0.37199,0 0.6449,0 0.81873,0c0.48672,0 0.85176,-0.09213 1.09512,-0.27639c0.24336,-0.18078 0.42588,-0.51453 0.54756,-1.00125c0.12168,-0.48672 0.20859,-1.19073 0.26074,-2.11202c0.31289,0.22598 0.70922,0.43457 1.18899,0.62578c0.47629,0.19121 0.90565,0.32158 1.28807,0.39111c-0.12168,1.23418 -0.32158,2.20241 -0.59971,2.90468c-0.27813,0.70575 -0.69532,1.20985 -1.25157,1.51231c-0.55625,0.30594 -1.32979,0.45891 -2.32061,0.45891c-0.17383,0 -0.45543,0 -0.84481,0c-0.39285,0 -0.84133,0 -1.34543,0c-0.5041,0 -1.00473,0 -1.50188,0c-0.49367,0 -0.9352,0 -1.32458,0c-0.39285,0 -0.6675,0 -0.82395,0c-1.1125,0 -1.99034,-0.12168 -2.63351,-0.36504c-0.64317,-0.24336 -1.08991,-0.67446 -1.34022,-1.29329c-0.25379,-0.61535 -0.38068,-1.48798 -0.38068,-2.61786v-17.02653M286.64889,174.52996h-0.20859l0.52149,-0.39111l0.52149,-0.33897l1.9295,0.70401l-0.1043,0.46934c0,1.23418 -0.00348,2.36755 -0.01043,3.40009c-0.01043,1.03602 -0.01912,1.95383 -0.02607,2.75345c-0.01043,0.79961 -0.02781,1.46885 -0.05215,2.00772c-0.02781,0.53887 -0.0591,0.93868 -0.09387,1.19942c-0.05215,0.59102 -0.19121,1.04645 -0.41719,1.36629c-0.22598,0.32332 -0.54756,0.55451 -0.96475,0.69358c-0.36504,0.15645 -0.79613,0.24684 -1.29329,0.27117c-0.49367,0.02781 -0.94041,0.04172 -1.34022,0.04172c-0.03476,-0.34766 -0.10951,-0.75268 -0.22424,-1.21506c-0.11125,-0.45891 -0.23641,-0.83612 -0.37547,-1.13163c0.24336,0.01738 0.5041,0.02607 0.78223,0.02607c0.27813,0 0.47803,0 0.59971,0c0.17383,0 0.31289,-0.03998 0.41719,-0.11994c0.1043,-0.07648 0.17383,-0.23641 0.20859,-0.47977c0.03476,-0.13906 0.06084,-0.43979 0.07822,-0.90217c0.01738,-0.45891 0.03129,-1.07079 0.04172,-1.83563c0.00695,-0.76485 0.01043,-1.69135 0.01043,-2.77952c0,-1.08469 0,-2.33104 0,-3.73906M266.07626,175.57293h8.5263v2.63351h-8.5263v-2.63351M269.20518,169.78443h2.63351v17.18297h-2.63351v-17.18297M265.76337,187.176c0.7127,-0.26074 1.54186,-0.57885 2.48749,-0.95432c0.9491,-0.37199 1.95036,-0.78049 3.00376,-1.22549c1.04993,-0.44152 2.10507,-0.87957 3.16542,-1.31415l0.62578,2.47706c-1.39063,0.67793 -2.80212,1.35065 -4.23447,2.01815c-1.43583,0.67098 -2.74476,1.2759 -3.92679,1.81477zM294.60156,170.2277h19.24284v2.0338h-19.24284v-2.0338M295.74883,180.73564h19.37321v1.9295h-19.37321v-1.9295M298.12159,183.49952h15.56636v1.69483h-15.56636v-1.69483M295.69668,186.08088h20.41619v1.87735h-20.41619v-1.87735M296.34854,175.93797h5.50168v1.46016h-5.50168v-1.46016M295.7749,178.33681h6.10139v1.43409h-6.10139v-1.43409M306.51752,178.33681h6.17961v1.43409h-6.17961v-1.43409M306.51752,175.93797h5.55383v1.46016h-5.55383v-1.46016M302.78889,171.08815h2.76388v9.12601h-2.76388v-9.12601M292.9328,173.30446h22.6325v4.563h-2.71173v-2.89425h-17.33942v2.89425h-2.58136v-4.563M294.49726,180.73564h2.60743v3.59826c0,0.73008 -0.04346,1.51579 -0.13037,2.35712c-0.08691,0.84481 -0.24857,1.70178 -0.48498,2.57093c-0.23293,0.86914 -0.56321,1.707 -0.99082,2.51356c-0.42414,0.81004 -0.97518,1.54534 -1.65311,2.20589c-0.13906,-0.17383 -0.33028,-0.37895 -0.57363,-0.61535c-0.24336,-0.23293 -0.50063,-0.45891 -0.7718,-0.67793c-0.2677,-0.21555 -0.50584,-0.37547 -0.71444,-0.47977c0.81699,-0.78223 1.4167,-1.63399 1.79913,-2.55528c0.38242,-0.92129 0.62926,-1.8478 0.74051,-2.77952c0.11473,-0.92825 0.17209,-1.79217 0.17209,-2.59179v-3.54611M306.49145,187.0717c0.52149,0.85176 1.26026,1.55924 2.21632,2.12245c0.95606,0.56668 2.09811,1.00994 3.42616,1.32979c1.33153,0.32332 2.81429,0.53713 4.44828,0.64143c-0.24336,0.24336 -0.49541,0.57363 -0.75616,0.99082c-0.26074,0.41719 -0.46934,0.79961 -0.62578,1.14727c-1.79044,-0.19121 -3.38619,-0.52149 -4.78724,-0.99082c-1.39758,-0.46934 -2.60048,-1.10034 -3.60868,-1.893c-1.00821,-0.78918 -1.84259,-1.75741 -2.50313,-2.90468l2.19024,-0.44326M312.56676,187.74963l2.05987,1.04297c-0.62578,0.41719 -1.28633,0.80309 -1.98165,1.1577c-0.69532,0.35809 -1.32979,0.6675 -1.90342,0.92825l-1.69483,-0.93868c0.38242,-0.20859 0.78571,-0.43979 1.20985,-0.69358c0.42762,-0.25031 0.84655,-0.51106 1.25678,-0.78223c0.40676,-0.2677 0.75789,-0.50584 1.0534,-0.71444M298.33019,193.79888l-0.13037,-1.8252l1.09512,-0.75616l7.19651,-1.0169c-0.06953,0.31289 -0.13037,0.67272 -0.18252,1.07948c-0.05215,0.41023 -0.07822,0.74573 -0.07822,1.00647c-1.59922,0.26074 -2.89077,0.47281 -3.87464,0.63621c-0.98039,0.16688 -1.74002,0.30246 -2.27889,0.40676c-0.53887,0.1043 -0.92998,0.19121 -1.17334,0.26074c-0.24336,0.06953 -0.43457,0.13906 -0.57363,0.20859M298.33019,193.79888c-0.06953,-0.20859 -0.17383,-0.44848 -0.31289,-0.71965c-0.13906,-0.2677 -0.29029,-0.53713 -0.45369,-0.8083c-0.16688,-0.2677 -0.31985,-0.48846 -0.45891,-0.66229c0.29551,-0.15645 0.61188,-0.4224 0.9491,-0.79787c0.34071,-0.37199 0.51106,-0.8535 0.51106,-1.44452v-2.50313l2.71173,0.05215v4.25011c0,0 -0.10082,0.06084 -0.30246,0.18252c-0.19816,0.12168 -0.44152,0.28682 -0.73008,0.49541c-0.28508,0.20859 -0.57537,0.42588 -0.87088,0.65186c-0.29551,0.22598 -0.54408,0.45543 -0.74573,0.68836c-0.19816,0.23641 -0.29725,0.44152 -0.29725,0.61535z" fill="#ffffff" stroke-width="1"/></g></g></svg>