<svg version="1.1" xmlns="http://www.w3.org/2000/svg" xmlns:xlink="http://www.w3.org/1999/xlink" width="208" height="32" viewBox="0,0,208,32"><g transform="translate(-222.70588,-164)"><g stroke="none" stroke-miterlimit="10"><path d="M251.44231,171.61314h5.15331v1.98658h-3.1864v15.59761h-1.96691v-17.58419M256.14323,171.61314h0.35404l0.31471,-0.07868l1.37684,0.88511c-0.34093,0.931 -0.71727,1.92364 -1.12901,2.9779c-0.41436,1.05689 -0.81824,2.03116 -1.21162,2.92283c0.83922,0.90478 1.38995,1.75055 1.65221,2.53732c0.26225,0.78676 0.39338,1.51452 0.39338,2.18327c0,0.65564 -0.0813,1.21949 -0.2439,1.69154c-0.16522,0.47206 -0.4183,0.8261 -0.75923,1.06213c-0.17047,0.11801 -0.36322,0.21243 -0.57827,0.28324c-0.21767,0.07343 -0.45108,0.12982 -0.70022,0.16915c-0.22292,0.02622 -0.47599,0.04196 -0.75923,0.04721c-0.28061,0.00787 -0.5586,0.00525 -0.83397,-0.00787c-0.01311,-0.26225 -0.06294,-0.57434 -0.14949,-0.93625c-0.08392,-0.35929 -0.21111,-0.67006 -0.38158,-0.93232c0.26225,0.02622 0.50484,0.04196 0.72776,0.04721c0.22292,0.00787 0.41305,0.00525 0.5704,-0.00787c0.14424,0 0.28586,-0.01705 0.42485,-0.05114c0.13637,-0.03147 0.25045,-0.07999 0.34224,-0.14555c0.18358,-0.11801 0.31471,-0.30553 0.39338,-0.56254c0.07868,-0.25439 0.11146,-0.54549 0.09835,-0.87331c0,-0.57696 -0.14424,-1.22342 -0.43272,-1.93937c-0.28848,-0.71333 -0.84577,-1.48961 -1.67187,-2.32882c0.2098,-0.49828 0.41961,-1.03328 0.62941,-1.605c0.2098,-0.56909 0.41043,-1.14605 0.60187,-1.73088c0.18882,-0.58221 0.36847,-1.12901 0.53893,-1.6404c0.17047,-0.5114 0.31471,-0.95067 0.43272,-1.31783v-0.64908M241.01768,177.39586h9.12647v1.77022h-9.12647v-1.77022M240.09323,180.1692h10.75901v1.77022h-10.75901v-1.77022M242.55187,183.11957h5.6647v1.71121h-5.6647v-1.71121M242.02081,172.98998v1.92757h1.65221v-1.92757h-1.65221M240.58496,171.45578h4.60257v5.01562h-4.60257v-5.01562M247.41014,172.98998v1.92757h1.73088v-1.92757h-1.73088M246.01364,171.45578h4.60257v5.01562h-4.60257v-5.01562M242.5322,181.23133h1.98658c-0.15735,0.6163 -0.337,1.25227 -0.53893,1.9079c-0.20456,0.65564 -0.39207,1.21949 -0.56254,1.69154h-2.04559c0.2098,-0.49828 0.41699,-1.07525 0.62154,-1.73088c0.20194,-0.65564 0.38158,-1.27849 0.53893,-1.86857M247.8822,183.11957h2.00625c0,0 -0.00656,0.09835 -0.01967,0.29504c-0.01311,0.19669 -0.03278,0.35404 -0.05901,0.47206c-0.07868,0.90478 -0.17047,1.65483 -0.27537,2.25015c-0.1049,0.59794 -0.21898,1.07393 -0.34224,1.42798c-0.12588,0.35404 -0.28717,0.62286 -0.48386,0.80643c-0.22292,0.22292 -0.46944,0.37634 -0.73956,0.46026c-0.2675,0.08654 -0.58483,0.13637 -0.95199,0.14949c-0.30159,0.02622 -0.71464,0.03934 -1.23915,0.03934c-0.52451,0 -1.07525,-0.01311 -1.65221,-0.03934c-0.01311,-0.28848 -0.0813,-0.60319 -0.20456,-0.94412c-0.12588,-0.34093 -0.28061,-0.63597 -0.46419,-0.88511c0.57696,0.05245 1.13163,0.08523 1.66401,0.09835c0.52975,0.01311 0.91265,0.01967 1.14868,0.01967c0.19669,0 0.35404,-0.01049 0.47206,-0.03147c0.11801,-0.01836 0.22947,-0.06032 0.33437,-0.12588c0.18358,-0.15735 0.34093,-0.52451 0.47206,-1.10147c0.13113,-0.57696 0.23603,-1.46207 0.31471,-2.65533zM268.84948,181.44769h2.04559v6.51048h-2.04559v-6.51048M268.31841,179.53979l1.92757,-0.55074c0.17047,0.26225 0.3252,0.55074 0.46419,0.86544c0.13637,0.31471 0.23078,0.59007 0.28324,0.8261l-2.02592,0.59007c-0.03934,-0.23603 -0.11801,-0.51795 -0.23603,-0.84577c-0.11801,-0.32782 -0.2557,-0.62286 -0.41305,-0.88511M261.31621,171.47545h14.83051v1.43585h-14.83051v-1.43585M262.83073,175.78299h4.0125v1.10147h-4.0125v-1.10147M270.52135,175.78299h4.15018v1.10147h-4.15018v-1.10147M267.64966,172.32123h2.08493v6.6875h-2.08493v-6.6875M260.23441,173.77674h17.07279v3.95349h-1.96691v-2.63566h-13.21764v2.59632h-1.88823v-3.91415M262.81106,177.59255h4.0125v1.10147h-4.0125v-1.10147M270.50168,177.59255h4.15018v1.10147h-4.15018v-1.10147M264.10922,178.93005l1.9079,0.60974c-0.39338,0.7212 -0.85233,1.42273 -1.37684,2.1046c-0.52451,0.68186 -1.0818,1.31783 -1.67187,1.9079c-0.59007,0.59007 -1.18015,1.10147 -1.77022,1.53419c-0.09179,-0.11801 -0.22292,-0.27275 -0.39338,-0.46419c-0.17047,-0.18882 -0.34749,-0.38158 -0.53107,-0.57827c-0.18358,-0.19669 -0.34749,-0.35404 -0.49173,-0.47206c0.85233,-0.55074 1.66794,-1.23653 2.44684,-2.05739c0.78152,-0.81824 1.40831,-1.67974 1.88037,-2.58452M264.6993,180.56258h12.11617v1.45551h-12.11617v7.2579h-2.06526v-6.92353l1.80956,-1.78989h0.2557M263.81419,182.78519h11.86048v1.3375h-11.86048v-1.3375M263.81419,184.9488h11.95882v1.35717h-11.95882v-1.35717M263.61749,187.17141h13.80772v1.51452h-13.80772zM287.29911,170.94439l2.26195,0.41305c-0.23603,1.16703 -0.53762,2.30129 -0.90478,3.40276c-0.36716,1.10147 -0.76972,2.12689 -1.20768,3.07625c-0.44059,0.95199 -0.92314,1.78202 -1.44765,2.49011c-0.14424,-0.11801 -0.34749,-0.25308 -0.60974,-0.40518c-0.26225,-0.14949 -0.52451,-0.29635 -0.78676,-0.44059c-0.26225,-0.14424 -0.49173,-0.2557 -0.68842,-0.33437c0.55074,-0.64253 1.03984,-1.39651 1.46732,-2.26195c0.42485,-0.86544 0.80119,-1.80694 1.12901,-2.82448c0.32782,-1.01493 0.59007,-2.05346 0.78676,-3.11559M287.55481,174.09145h8.06434v2.1046h-9.08713l1.02279,-2.1046M294.95039,174.09145h0.31471l0.41305,-0.11801l1.55386,0.88511c-0.17047,0.68186 -0.37371,1.36372 -0.60974,2.04559c-0.23603,0.68186 -0.47861,1.32701 -0.72776,1.93544c-0.24914,0.61105 -0.49173,1.15917 -0.72776,1.64434c-0.15735,-0.07868 -0.34355,-0.17047 -0.5586,-0.27537c-0.21767,-0.1049 -0.43403,-0.2098 -0.64908,-0.31471c-0.21767,-0.1049 -0.4183,-0.19669 -0.60187,-0.27537c0.19669,-0.41961 0.39994,-0.91789 0.60974,-1.49485c0.2098,-0.57696 0.40387,-1.17752 0.58221,-1.80169c0.17571,-0.62154 0.30946,-1.20113 0.40125,-1.73875v-0.49173M279.49047,173.81608l1.25882,-1.53419c0.44583,0.23603 0.92183,0.50746 1.42798,0.8143c0.50353,0.30946 0.98477,0.62154 1.44371,0.93625c0.45895,0.31471 0.83266,0.60974 1.12114,0.88511l-1.35717,1.73088c-0.26225,-0.27537 -0.61236,-0.58352 -1.05033,-0.92445c-0.44059,-0.34093 -0.91002,-0.68186 -1.40831,-1.02279c-0.49828,-0.34093 -0.9769,-0.63597 -1.43585,-0.88511M279.23477,186.0306c0.38027,-0.48517 0.79725,-1.06213 1.25096,-1.73088c0.45108,-0.66875 0.91265,-1.38077 1.38471,-2.13607c0.47206,-0.75267 0.91789,-1.50272 1.3375,-2.25015l1.65221,1.39651c-0.36716,0.68186 -0.75398,1.37684 -1.16048,2.08493c-0.4065,0.70809 -0.82217,1.40962 -1.24702,2.1046c-0.42747,0.69497 -0.84446,1.35717 -1.25096,1.98658l-1.96691,-1.45551M291.52797,178.55633c0.26225,1.38995 0.64646,2.66189 1.15261,3.81581c0.50353,1.15392 1.16835,2.15049 1.99445,2.98971c0.8261,0.83922 1.84234,1.48174 3.04871,1.92757c-0.15735,0.13113 -0.32782,0.31077 -0.5114,0.53893c-0.18358,0.23078 -0.35404,0.46419 -0.5114,0.70022c-0.15735,0.23603 -0.28848,0.45239 -0.39338,0.64908c-1.29816,-0.57696 -2.37603,-1.35455 -3.2336,-2.33276c-0.8602,-0.97559 -1.55911,-2.13607 -2.09673,-3.48143c-0.53762,-1.34275 -0.96379,-2.84678 -1.27849,-4.51209l1.82923,-0.29504M289.52172,176.88446h2.26195v1.27849c0,0.62941 -0.03934,1.32045 -0.11801,2.07312c-0.07868,0.75529 -0.24259,1.53944 -0.49173,2.35243c-0.24914,0.81299 -0.62286,1.62598 -1.12114,2.43897c-0.49828,0.81299 -1.15654,1.59582 -1.97478,2.34849c-0.82086,0.75529 -1.84758,1.44765 -3.08018,2.07706c-0.1049,-0.17047 -0.2557,-0.3606 -0.45239,-0.5704c-0.19669,-0.2098 -0.39994,-0.41699 -0.60974,-0.62154c-0.2098,-0.20194 -0.4065,-0.36191 -0.59007,-0.47993c1.14081,-0.55074 2.08493,-1.1513 2.83235,-1.80169c0.74743,-0.64777 1.34406,-1.32308 1.78989,-2.02592c0.44583,-0.70022 0.78021,-1.39782 1.00312,-2.09279c0.22292,-0.69497 0.37109,-1.3611 0.44452,-1.99838c0.07081,-0.63466 0.10621,-1.21424 0.10621,-1.73875zM303.72282,178.24163v2.4193h8.79209v-2.4193h-8.79209M301.67723,176.37306h13.02095v6.15643h-13.02095v-6.15643M299.5923,172.69494h17.11213v1.92757h-17.11213v-1.92757M306.96822,170.92472h2.14393v6.49081h-2.14393v-6.49081M309.17116,181.44769h2.1636v4.93695c0,0.31471 0.05245,0.5114 0.15735,0.59007c0.1049,0.07868 0.33437,0.11801 0.68842,0.11801c0.07868,0 0.21636,0 0.41305,0c0.19669,0 0.41305,0 0.64908,0c0.23603,0 0.45895,0 0.66875,0c0.2098,0 0.36716,0 0.47206,0c0.23603,0 0.41699,-0.06294 0.54287,-0.18882c0.12326,-0.12326 0.20849,-0.38158 0.2557,-0.77496c0.04458,-0.39338 0.07999,-0.98346 0.10621,-1.77022c0.15735,0.1049 0.35404,0.21636 0.59007,0.33437c0.23603,0.11801 0.47599,0.21898 0.71989,0.3029c0.24128,0.08654 0.46026,0.15604 0.65695,0.20849c-0.06556,1.03591 -0.19014,1.83578 -0.37371,2.39963c-0.18358,0.56385 -0.45501,0.9533 -0.8143,1.16835c-0.36191,0.21767 -0.85757,0.32651 -1.48698,0.32651c-0.09179,0 -0.22554,0 -0.40125,0c-0.17833,0 -0.38158,0 -0.60974,0c-0.23078,0 -0.4537,0 -0.66875,0c-0.21767,0 -0.4183,0 -0.60187,0c-0.18358,0 -0.32126,0 -0.41305,0c-0.7212,0 -1.27849,-0.08261 -1.67187,-0.24783c-0.39338,-0.1626 -0.66482,-0.44059 -0.8143,-0.83397c-0.15211,-0.39338 -0.22816,-0.931 -0.22816,-1.61287v-4.95662M304.47024,182.19512h2.28162c-0.09179,0.87855 -0.24914,1.68761 -0.47206,2.42717c-0.22292,0.74218 -0.56647,1.41093 -1.03066,2.00625c-0.46681,0.59794 -1.11327,1.12245 -1.93937,1.57353c-0.8261,0.4537 -1.88823,0.8379 -3.1864,1.15261c-0.06556,-0.19669 -0.16653,-0.41699 -0.3029,-0.66088c-0.139,-0.24128 -0.28717,-0.47993 -0.44452,-0.71596c-0.15735,-0.23603 -0.31471,-0.42616 -0.47206,-0.5704c1.14081,-0.22292 2.06264,-0.49566 2.76548,-0.81824c0.70022,-0.31995 1.24047,-0.69629 1.62073,-1.12901c0.38027,-0.43272 0.6517,-0.92183 0.8143,-1.46732c0.16522,-0.54287 0.28717,-1.14212 0.36585,-1.79776zM326.06693,176.35339h1.96691c-0.09179,0.8261 -0.19014,1.69417 -0.29504,2.60419c-0.1049,0.91265 -0.21898,1.81743 -0.34224,2.71434c-0.12588,0.89953 -0.2439,1.75186 -0.35404,2.55698c-0.11277,0.80775 -0.22161,1.51977 -0.32651,2.13607h-2.04559c0.13113,-0.64253 0.26225,-1.37422 0.39338,-2.19507c0.13113,-0.81824 0.25832,-1.67712 0.38158,-2.57665c0.12588,-0.89691 0.24128,-1.79514 0.34618,-2.69467c0.1049,-0.89691 0.19669,-1.74531 0.27537,-2.54518M329.0173,178.63501l1.10147,-0.70809c0.35404,0.27537 0.7212,0.59663 1.10147,0.96379c0.38027,0.36716 0.67531,0.68842 0.88511,0.96379l-1.16048,0.80643c-0.18358,-0.28848 -0.46157,-0.62679 -0.83397,-1.01493c-0.37503,-0.38551 -0.73956,-0.72251 -1.0936,-1.01099M328.48623,182.70652l1.16048,-0.72776c0.39338,0.30159 0.80381,0.64908 1.23129,1.04246c0.42485,0.39338 0.75529,0.74743 0.99132,1.06213l-1.19982,0.8261c-0.22292,-0.30159 -0.54418,-0.66219 -0.96379,-1.0818c-0.41961,-0.41961 -0.8261,-0.79332 -1.21949,-1.12114M326.3423,172.98998h10.16893v1.9079h-10.16893v-1.9079M326.89303,176.35339h7.49393v1.80956h-7.49393v-1.80956M323.58862,180.28722h13.434v1.9079h-13.434v-1.9079M325.73255,184.55541h10.77867v1.80956h-10.77867v-1.80956M326.46031,170.92472l2.04559,0.53107c-0.26225,0.81299 -0.57958,1.62205 -0.95199,2.42717c-0.37503,0.80775 -0.77234,1.56566 -1.19195,2.27375c-0.41961,0.70809 -0.84577,1.33094 -1.27849,1.86857c-0.13113,-0.11801 -0.31077,-0.24914 -0.53893,-0.39338c-0.23078,-0.14424 -0.45764,-0.28848 -0.68055,-0.43272c-0.22292,-0.14424 -0.41961,-0.26225 -0.59007,-0.35404c0.44583,-0.47206 0.86937,-1.02673 1.27062,-1.66401c0.39863,-0.63466 0.76185,-1.31652 1.08967,-2.04559c0.32782,-0.72645 0.60319,-1.46338 0.8261,-2.21081M333.77722,176.35339h1.96691c0,0 -0.00262,0.05901 -0.00787,0.17702c-0.00787,0.11801 -0.0118,0.24521 -0.0118,0.38158c0,0.139 -0.00656,0.25439 -0.01967,0.34618c-0.07868,1.87512 -0.15735,3.46439 -0.23603,4.76779c-0.07868,1.30603 -0.16653,2.37865 -0.26357,3.21787c-0.09966,0.83922 -0.21111,1.49485 -0.33437,1.96691c-0.12588,0.47206 -0.27406,0.81299 -0.44452,1.02279c-0.22292,0.30159 -0.45501,0.50746 -0.69629,0.61761c-0.2439,0.11277 -0.5232,0.19538 -0.8379,0.24783c-0.28848,0.03934 -0.65564,0.05901 -1.10147,0.05901c-0.44583,0 -0.91133,-0.01311 -1.39651,-0.03934c-0.01311,-0.26225 -0.06556,-0.55729 -0.15735,-0.88511c-0.09179,-0.32782 -0.21636,-0.6163 -0.37371,-0.86544c0.45895,0.03934 0.87855,0.06556 1.25882,0.07868c0.38027,0.01311 0.66219,0.01967 0.84577,0.01967c0.17047,0 0.30815,-0.0236 0.41305,-0.07081c0.1049,-0.04458 0.2098,-0.12588 0.31471,-0.2439c0.13113,-0.14424 0.24914,-0.43665 0.35404,-0.87724c0.1049,-0.43797 0.20325,-1.06082 0.29504,-1.86857c0.09179,-0.80512 0.1744,-1.83447 0.24783,-3.08805c0.07081,-1.25096 0.13244,-2.7681 0.18489,-4.55143v-0.41305M319.77281,172.67527l1.18015,-1.43585c0.38027,0.17047 0.7907,0.37371 1.23129,0.60974c0.43797,0.23603 0.85757,0.47861 1.25882,0.72776c0.39863,0.24914 0.72251,0.47861 0.97165,0.68842l-1.23915,1.5932c-0.23603,-0.2098 -0.5468,-0.44977 -0.93232,-0.71989c-0.38814,-0.2675 -0.80119,-0.52975 -1.23915,-0.78676c-0.44059,-0.25439 -0.85102,-0.47993 -1.23129,-0.67662M318.67134,178.30064l1.14081,-1.41618c0.38027,0.17047 0.77758,0.36978 1.19195,0.59794c0.41174,0.23078 0.80512,0.46419 1.18015,0.70022c0.3724,0.23603 0.67662,0.45895 0.91265,0.66875l-1.21949,1.61287c-0.2098,-0.22292 -0.49828,-0.4655 -0.86544,-0.72776c-0.36716,-0.26225 -0.75792,-0.51795 -1.17228,-0.7671c-0.41174,-0.24914 -0.80119,-0.47206 -1.16835,-0.66875M319.22208,187.84016c0.26225,-0.5114 0.55467,-1.11458 0.87724,-1.80956c0.31995,-0.69497 0.64121,-1.43585 0.96379,-2.22261c0.31995,-0.78676 0.61761,-1.56042 0.89298,-2.32096l1.61287,1.14081c-0.23603,0.69497 -0.49566,1.40962 -0.7789,2.14393c-0.28061,0.73431 -0.56778,1.46207 -0.86151,2.18327c-0.29635,0.7212 -0.58876,1.39651 -0.87724,2.02592zM345.28365,180.64126h9.95257v8.61507h-2.12426v-6.66783h-5.78272v6.74651h-2.04559v-8.69375M346.48347,186.26663h7.61195v1.96691h-7.61195v-1.96691M346.95553,171.86884h6.03842v1.96691h-6.03842v-1.96691M346.26711,171.86884h2.04559v2.26195c0,0.7212 -0.09441,1.47781 -0.28324,2.26982c-0.19145,0.79463 -0.54549,1.55911 -1.06213,2.29342c-0.51926,0.73431 -1.27718,1.37684 -2.27375,1.92757c-0.06556,-0.14424 -0.1862,-0.32126 -0.36191,-0.53107c-0.17833,-0.2098 -0.35929,-0.41699 -0.54287,-0.62154c-0.18358,-0.20194 -0.34093,-0.35536 -0.47206,-0.46026c0.86544,-0.45895 1.50797,-0.96772 1.92757,-1.52632c0.41961,-0.55598 0.69497,-1.12901 0.8261,-1.71908c0.13113,-0.59007 0.19669,-1.15392 0.19669,-1.69154v-2.20294M351.97115,171.86884h2.06526v5.33033c0,0.30159 0.01574,0.51795 0.04721,0.64908c0.03409,0.13113 0.12326,0.19669 0.2675,0.19669c0.07868,0 0.17702,0 0.29504,0c0.11801,0 0.23996,0 0.36585,0c0.12326,0 0.22423,0 0.3029,0c0.13113,0 0.29897,-0.01049 0.50353,-0.03147c0.20194,-0.01836 0.36847,-0.04721 0.4996,-0.08654c0.01311,0.26225 0.02885,0.54025 0.04721,0.83397c0.02098,0.29635 0.05114,0.56909 0.09048,0.81824c-0.13113,0.05245 -0.29897,0.08786 -0.50353,0.10621c-0.20194,0.02098 -0.40125,0.03147 -0.59794,0.03147c-0.1049,0 -0.23865,0 -0.40125,0c-0.16522,0 -0.32913,0 -0.49173,0c-0.16522,0 -0.30028,0 -0.40518,0c-0.57696,0 -1.01624,-0.09179 -1.31783,-0.27537c-0.30159,-0.18358 -0.50484,-0.4655 -0.60974,-0.84577c-0.1049,-0.38027 -0.15735,-0.85889 -0.15735,-1.43585v-5.29099M339.18623,172.75395l1.3375,-1.35717c0.4065,0.2098 0.84315,0.45501 1.30996,0.73562c0.46419,0.28324 0.90609,0.56516 1.3257,0.84577c0.41961,0.28324 0.7671,0.54942 1.04246,0.79857l-1.41618,1.51452c-0.24914,-0.24914 -0.57696,-0.52451 -0.98346,-0.8261c-0.4065,-0.30159 -0.83922,-0.60319 -1.29816,-0.90478c-0.45895,-0.30159 -0.89822,-0.5704 -1.31783,-0.80643M338.16343,178.08428l1.31783,-1.37684c0.4065,0.19669 0.83922,0.42223 1.29816,0.67662c0.45895,0.25701 0.90478,0.51926 1.3375,0.78676c0.43272,0.27012 0.78676,0.51664 1.06213,0.73956l-1.39651,1.53419c-0.26225,-0.23603 -0.59663,-0.49566 -1.00312,-0.7789c-0.4065,-0.28061 -0.84184,-0.56254 -1.30603,-0.84577c-0.46681,-0.28061 -0.90347,-0.52582 -1.30996,-0.73562M338.63549,187.58446c0.36716,-0.48517 0.78021,-1.06213 1.23915,-1.73088c0.45895,-0.66875 0.92838,-1.38339 1.40831,-2.14393c0.4773,-0.76054 0.92576,-1.51452 1.34537,-2.26195l1.53419,1.51452c-0.36716,0.66875 -0.76447,1.35717 -1.19195,2.06526c-0.42485,0.70809 -0.85102,1.40962 -1.27849,2.1046c-0.42485,0.69497 -0.85364,1.35717 -1.28636,1.98658zM359.56343,177.12049h2.1046v3.7568c0,0.6163 -0.03016,1.28111 -0.09048,1.99445c-0.0577,0.71596 -0.1626,1.44371 -0.31471,2.18327c-0.14949,0.74218 -0.36847,1.45683 -0.65695,2.14393c-0.28848,0.68973 -0.66219,1.30996 -1.12114,1.8607c-0.1049,-0.14424 -0.26225,-0.30553 -0.47206,-0.48386c-0.2098,-0.17571 -0.42879,-0.34618 -0.65695,-0.5114c-0.23078,-0.1626 -0.42485,-0.28324 -0.58221,-0.36191c0.55074,-0.66875 0.95067,-1.40306 1.19982,-2.20294c0.24914,-0.79988 0.40912,-1.60369 0.47993,-2.41143c0.07343,-0.80512 0.11015,-1.55517 0.11015,-2.25015v-3.71746M360.72391,177.12049h15.04687v1.86857h-15.04687v-1.86857M362.98585,180.22821h12.13584v1.78989h-12.13584v-1.78989M362.08108,183.6703h13.98474v1.86857h-13.98474v-1.86857M367.82446,180.77894h2.22261v8.5364h-2.22261v-8.5364M359.62244,171.67214h2.14393v2.34062h10.83768v-2.34062h2.22261v4.20919h-15.20422v-4.20919M366.0149,170.94439h2.24228v3.95349h-2.24228z" fill="#ffffff" stroke-width="1"/><path d="M222.70588,196v-32h208v32z" fill="none" stroke-width="0"/></g></g></svg>