<svg version="1.1" xmlns="http://www.w3.org/2000/svg" xmlns:xlink="http://www.w3.org/1999/xlink" width="138.65698" height="20.56241" viewBox="0,0,138.65698,20.56241"><g transform="translate(-239.91559,-170.71993)"><g fill="#ffffff" stroke="none" stroke-miterlimit="10"><path d="M246.88185,171.15191h2.30859v17.06335h-2.30859v-17.06335M254.01012,175.51495h2.26809v15.573h-2.26809v-15.573M239.91559,175.57974h2.22758v11.55556h12.96049v2.37591h-15.18807zM259.23482,172.25347h10.59115v2.13832h-10.59115v-2.13832M258.89056,179.338h11.19867v2.13832h-11.19867v-2.13832M265.93782,172.83665h2.12633v18.2729h-2.12633v-18.2729M261.32065,172.81505h2.02508v7.17092c0,1.33915 -0.06345,2.68118 -0.19036,4.02609c-0.1296,1.34779 -0.41042,2.63654 -0.84243,3.86625c-0.43202,1.23259 -1.10704,2.36727 -2.02508,3.40403c-0.108,-0.15839 -0.25651,-0.33839 -0.44552,-0.53998c-0.18901,-0.20159 -0.38746,-0.39598 -0.59537,-0.58318c-0.21061,-0.18719 -0.39691,-0.33839 -0.55892,-0.45358c0.78303,-0.90717 1.36085,-1.89353 1.73347,-2.95909c0.36991,-1.06556 0.61292,-2.17144 0.72903,-3.31763c0.1134,-1.14332 0.17011,-2.29095 0.17011,-3.44291v-7.17092M274.96966,171.28151l2.06558,0.88557c-0.51302,0.69117 -1.08679,1.36363 -1.72131,2.01736c-0.63452,0.65661 -1.3028,1.25851 -2.00483,1.80569c-0.70203,0.54718 -1.40405,1.03676 -2.10608,1.46874c-0.17551,-0.25919 -0.40771,-0.5443 -0.69663,-0.85533c-0.29161,-0.30815 -0.57242,-0.57022 -0.84243,-0.78621c0.63452,-0.34559 1.2866,-0.76029 1.95622,-1.24411c0.66692,-0.48094 1.2947,-1.00652 1.88332,-1.57674c0.58592,-0.56734 1.07464,-1.139 1.46616,-1.71497M275.43543,177.24288l1.98457,0.86397c-0.51302,0.71997 -1.10029,1.42555 -1.76182,2.11672c-0.66153,0.69117 -1.35005,1.33195 -2.06558,1.92233c-0.71553,0.59038 -1.43105,1.10876 -2.14658,1.55514c-0.17551,-0.24479 -0.40502,-0.5227 -0.68853,-0.83373c-0.28351,-0.30815 -0.56027,-0.57022 -0.83028,-0.78621c0.64802,-0.37438 1.3163,-0.81789 2.00483,-1.33051c0.68853,-0.50974 1.3433,-1.07132 1.96432,-1.68474c0.62102,-0.61054 1.13404,-1.21819 1.53906,-1.82297M275.8202,183.00986l2.06558,0.86397c-0.56702,1.02236 -1.24205,1.97992 -2.02508,2.87269c-0.78303,0.89277 -1.63626,1.70633 -2.5597,2.44071c-0.92613,0.73437 -1.89547,1.36795 -2.90801,1.90073c-0.16201,-0.28799 -0.38746,-0.61198 -0.67638,-0.97196c-0.29161,-0.35999 -0.57242,-0.66238 -0.84243,-0.90717c0.93154,-0.43198 1.83607,-0.96188 2.7136,-1.5897c0.87753,-0.62494 1.68486,-1.32619 2.42199,-2.10376c0.73443,-0.77757 1.3379,-1.61274 1.81042,-2.5055zM279.46533,182.85867h18.18519v2.09512h-18.18519v-2.09512M283.49523,175.64454h10.08488v1.90073h-10.08488v-1.90073M283.51549,179.23h10.10513v1.87913h-10.10513v-1.87913M282.6042,171.97268h12.37322v11.83635h-2.18708v-9.89242h-8.08005v9.89242h-2.10608v-11.83635M290.6235,185.77455l1.84282,-0.86397c0.58052,0.48958 1.17859,1.04396 1.79422,1.66314c0.61292,0.61918 1.18669,1.22683 1.72131,1.82297c0.53192,0.59902 0.97339,1.12892 1.3244,1.5897l-1.90357,1.05836c-0.33751,-0.48958 -0.77223,-1.04828 -1.30415,-1.6761c-0.53462,-0.62494 -1.10569,-1.25419 -1.71321,-1.88777c-0.60752,-0.63357 -1.1948,-1.20235 -1.76182,-1.70633M281.26765,190.59117c-0.0405,-0.17279 -0.10125,-0.38879 -0.18226,-0.64798c-0.081,-0.25919 -0.16201,-0.5299 -0.24301,-0.81213c-0.081,-0.27935 -0.16876,-0.51982 -0.26326,-0.72141c0.22951,-0.0576 0.45902,-0.15551 0.68853,-0.29375c0.22951,-0.13536 0.47927,-0.31823 0.74928,-0.54862c0.20251,-0.144 0.50222,-0.40319 0.89913,-0.77757c0.39961,-0.37438 0.84243,-0.82797 1.32845,-1.36075c0.48602,-0.53278 0.93154,-1.09436 1.33655,-1.68474l2.22758,0.90717c-0.78303,0.93596 -1.61736,1.82441 -2.50299,2.66534c-0.88293,0.84381 -1.73616,1.5537 -2.5597,2.12968v0.0432c0,0 -0.07425,0.036 -0.22276,0.108c-0.1485,0.072 -0.32131,0.16127 -0.51842,0.26783c-0.19441,0.10944 -0.36586,0.22895 -0.51437,0.35855c-0.1485,0.1296 -0.22276,0.25199 -0.22276,0.36719M281.26765,190.59117l-0.02025,-1.59834l1.29605,-0.75597l11.72519,-0.49678c0.0405,0.28799 0.10125,0.60766 0.18226,0.959c0.081,0.35423 0.14176,0.63934 0.18226,0.85533c-1.86307,0.1008 -3.46963,0.19007 -4.81968,0.26783c-1.35005,0.08064 -2.49084,0.14975 -3.42238,0.20735c-0.93154,0.0576 -1.69836,0.108 -2.30049,0.15119c-0.59942,0.0432 -1.07869,0.08208 -1.4378,0.11664c-0.35641,0.03744 -0.63992,0.07776 -0.85053,0.12096c-0.20791,0.0432 -0.38612,0.1008 -0.53462,0.17279zM304.51553,180.46116h12.47447v2.20312h-12.47447v-2.20312M303.17898,188.25846h14.86406v2.22471h-14.86406v-2.22471M309.45671,176.59491h2.22758v13.0459h-2.22758v-13.0459M302.04493,173.76541h15.93735v2.13832h-15.93735v-2.13832M301.05265,173.76541h2.14658v5.55099c0,0.86397 -0.0243,1.81433 -0.0729,2.85109c-0.0459,1.03676 -0.13635,2.08792 -0.27136,3.15348c-0.13501,1.06556 -0.32806,2.1052 -0.57917,3.11892c-0.24841,1.0166 -0.58187,1.94969 -1.00039,2.79925c-0.13501,-0.11519 -0.32806,-0.23759 -0.57917,-0.36719c-0.24841,-0.1296 -0.49817,-0.25631 -0.74928,-0.38015c-0.24841,-0.12096 -0.46712,-0.21743 -0.65612,-0.28943c0.40502,-0.77757 0.72498,-1.63434 0.95989,-2.5703c0.23761,-0.93596 0.41447,-1.89353 0.53057,-2.87269c0.1134,-0.97916 0.18631,-1.93673 0.21871,-2.87269c0.0351,-0.93596 0.05265,-1.79273 0.05265,-2.5703v-5.55099M307.93791,171.36791l2.14658,-0.62638c0.20251,0.41758 0.41447,0.87117 0.63587,1.36075c0.22411,0.48958 0.38341,0.91436 0.47792,1.27435l-2.24783,0.71277c-0.0945,-0.35999 -0.23896,-0.79917 -0.43337,-1.31755c-0.19711,-0.51838 -0.39017,-0.98636 -0.57917,-1.40395zM327.86466,180.33156l1.64031,-1.27435c0.45902,0.44638 0.95179,0.92876 1.47831,1.44714c0.52652,0.51838 1.04629,1.04396 1.55931,1.57674c0.51302,0.53278 0.99229,1.05116 1.4378,1.55514c0.44552,0.50398 0.81678,0.95756 1.11379,1.36075l-1.80232,1.51194c-0.27001,-0.41758 -0.61832,-0.88269 -1.04494,-1.39531c-0.42392,-0.50974 -0.88293,-1.0454 -1.37705,-1.60698c-0.49142,-0.56158 -0.99769,-1.11308 -1.51881,-1.6545c-0.51842,-0.53854 -1.01389,-1.0454 -1.48641,-1.52058M327.96591,170.95752h2.22758v4.92461c0,0.70557 -0.0405,1.44282 -0.1215,2.21176c-0.081,0.77181 -0.23356,1.54938 -0.45767,2.33271c-0.22141,0.78621 -0.53732,1.5609 -0.94774,2.32407c-0.41312,0.76317 -0.95044,1.49754 -1.61196,2.20312c-0.66153,0.70557 -1.47156,1.36075 -2.43009,1.96552c-0.0945,-0.17279 -0.23221,-0.36719 -0.41312,-0.58318c-0.18361,-0.21599 -0.37666,-0.43198 -0.57917,-0.64798c-0.20251,-0.21599 -0.39151,-0.38879 -0.56702,-0.51838c0.91803,-0.51838 1.67676,-1.07708 2.27619,-1.6761c0.60212,-0.59614 1.07869,-1.22251 1.4297,-1.87913c0.35101,-0.65374 0.61157,-1.31179 0.78168,-1.97416c0.16741,-0.66238 0.27811,-1.31467 0.33211,-1.95688c0.054,-0.63934 0.081,-1.24699 0.081,-1.82297v-4.90301M320.79714,174.58618h15.41083v2.26791h-13.244v14.32025h-2.16683v-16.58816M335.23594,174.58618h2.14658v13.82347c0,0.64798 -0.07425,1.15196 -0.22276,1.51194c-0.1485,0.35999 -0.42527,0.63357 -0.83028,0.82077c-0.40502,0.18719 -0.92748,0.29807 -1.56741,0.33263c-0.64262,0.03744 -1.42295,0.05616 -2.34099,0.05616c-0.0135,-0.21599 -0.06075,-0.4651 -0.14176,-0.74733c-0.081,-0.27935 -0.16876,-0.55582 -0.26326,-0.82941c-0.0945,-0.27359 -0.19576,-0.51838 -0.30376,-0.73437c0.41852,0.0144 0.83298,0.0288 1.2434,0.0432c0.41312,0.0144 0.78168,0.0216 1.10569,0.0216c0.32401,0 0.54677,0 0.66828,0c0.20251,-0.0144 0.33751,-0.0576 0.40502,-0.1296c0.0675,-0.072 0.10125,-0.20159 0.10125,-0.38879zM351.80106,170.95752h2.04533v15.18422h-2.04533v-15.18422M345.68533,179.70519l10.6114,-4.79502l0.81003,1.98712l-10.6114,4.85981l-0.81003,-2.05192M347.75091,173.03104h2.06558v14.12586c0,0.40319 0.03375,0.70845 0.10125,0.9158c0.0675,0.21023 0.20926,0.35135 0.42527,0.42334c0.21601,0.072 0.53327,0.108 0.95179,0.108c0.1215,0 0.32131,0 0.59942,0c0.27541,0 0.58862,0 0.93964,0c0.35101,0 0.70608,0 1.06519,0c0.35641,0 0.67907,0 0.96799,0c0.29161,0 0.50492,0 0.63992,0c0.37801,0 0.66153,-0.07632 0.85053,-0.22895c0.18901,-0.14975 0.33076,-0.42622 0.42527,-0.82941c0.0945,-0.40319 0.16201,-0.98636 0.20251,-1.74953c0.24301,0.18719 0.54947,0.35999 0.91938,0.51838c0.37261,0.15839 0.70743,0.26639 1.00444,0.32399c-0.0945,1.02236 -0.24976,1.82441 -0.46577,2.40615c-0.21601,0.58462 -0.54002,1.0022 -0.97204,1.25275c-0.43202,0.25343 -1.03279,0.38015 -1.80232,0.38015c-0.13501,0 -0.35371,0 -0.65612,0c-0.30511,0 -0.65343,0 -1.04494,0c-0.39151,0 -0.77898,0 -1.16239,0c-0.38612,0 -0.73038,0 -1.03279,0c-0.30511,0 -0.51842,0 -0.63992,0c-0.86403,0 -1.54581,-0.1008 -2.04533,-0.30239c-0.49952,-0.20159 -0.84648,-0.5587 -1.04089,-1.07132c-0.19711,-0.50974 -0.29566,-1.23259 -0.29566,-2.16856v-14.10426M355.89172,175.16936h-0.16201l0.40502,-0.32399l0.40502,-0.28079l1.49856,0.58318l-0.081,0.38879c0,1.02236 -0.0027,1.9612 -0.0081,2.81653c-0.0081,0.85821 -0.01485,1.6185 -0.02025,2.28087c-0.0081,0.66238 -0.02295,1.21675 -0.04455,1.66314c-0.0189,0.44638 -0.04185,0.77757 -0.06885,0.99356c-0.0405,0.48958 -0.1485,0.86685 -0.32401,1.1318c-0.17551,0.26783 -0.42527,0.45934 -0.74928,0.57454c-0.28351,0.1296 -0.61697,0.20447 -1.00039,0.22463c-0.38612,0.02304 -0.73443,0.03456 -1.04494,0.03456c-0.027,-0.28799 -0.0837,-0.6235 -0.17011,-1.00652c-0.0891,-0.38015 -0.18766,-0.69261 -0.29566,-0.9374c0.18901,0.0144 0.39151,0.0216 0.60752,0.0216c0.21601,0 0.37126,0 0.46577,0c0.13501,0 0.24301,-0.03312 0.32401,-0.09936c0.081,-0.06336 0.13501,-0.19583 0.16201,-0.39742c0.027,-0.11519 0.04725,-0.36431 0.06075,-0.74733c0.0135,-0.38015 0.02295,-0.88701 0.02835,-1.52058c0.0081,-0.63357 0.01215,-1.40107 0.01215,-2.30247c0,-0.89853 0,-1.93097 0,-3.09732M339.91386,176.03333h6.622v2.18152h-6.622v-2.18152M342.34396,171.23831h2.04533v14.23385h-2.04533v-14.23385M339.67085,185.64496c0.55352,-0.21599 1.19749,-0.4795 1.93192,-0.79053c0.73713,-0.30815 1.51341,-0.64653 2.32884,-1.01516c0.81813,-0.36575 1.63896,-0.72861 2.46249,-1.0886l0.48602,2.05192c-1.08004,0.56158 -2.17763,1.11884 -3.29277,1.67178c-1.11244,0.55582 -2.12768,1.05692 -3.04571,1.5033zM360.58989,174.49979h17.98268v2.26791h-17.98268v-2.26791M367.17139,179.61879h7.8573v2.24631h-7.8573v-2.24631M374.46167,179.61879h2.26809c0,0 -0.0027,0.0648 -0.0081,0.19439c-0.0081,0.1296 -0.01215,0.27359 -0.01215,0.43198c0,0.15839 -0.0135,0.28799 -0.0405,0.38879c-0.1215,2.00152 -0.25651,3.62866 -0.40502,4.88141c-0.1485,1.25275 -0.31726,2.22471 -0.50627,2.91589c-0.18901,0.69117 -0.42527,1.18795 -0.70878,1.49034c-0.28351,0.33119 -0.58997,0.56158 -0.91938,0.69117c-0.33211,0.1296 -0.72093,0.21599 -1.16644,0.25919c-0.37801,0.0432 -0.88023,0.06048 -1.50666,0.05184c-0.62912,-0.00576 -1.2812,-0.02304 -1.95622,-0.05184c-0.0135,-0.34559 -0.0945,-0.73437 -0.24301,-1.16636c-0.1485,-0.43198 -0.33076,-0.80637 -0.54677,-1.12316c0.70203,0.072 1.37435,0.11519 2.01698,0.1296c0.63992,0.0144 1.10839,0.0216 1.4054,0.0216c0.22951,0 0.41852,-0.01872 0.56702,-0.05616c0.1485,-0.03456 0.29026,-0.10224 0.42527,-0.20303c0.20251,-0.20159 0.38476,-0.6235 0.54677,-1.26571c0.16201,-0.63934 0.31051,-1.54938 0.44552,-2.73014c0.13501,-1.18076 0.24976,-2.6783 0.34426,-4.49263v-0.36719M365.85509,175.92533h2.43009c-0.054,1.13756 -0.13501,2.28231 -0.24301,3.43427c-0.108,1.15196 -0.28351,2.28951 -0.52652,3.41267c-0.24301,1.12316 -0.59402,2.19592 -1.05304,3.21828c-0.45902,1.02236 -1.06654,1.9756 -1.82257,2.85973c-0.75603,0.88701 -1.70106,1.6689 -2.83511,2.34567c-0.16201,-0.30239 -0.39422,-0.63357 -0.69663,-0.99356c-0.30511,-0.35999 -0.60617,-0.65517 -0.90318,-0.88557c1.05304,-0.59038 1.92112,-1.27435 2.60425,-2.05192c0.68043,-0.77757 1.22045,-1.61706 1.62006,-2.51846c0.39691,-0.89853 0.68988,-1.84169 0.87888,-2.82949c0.18901,-0.98492 0.31726,-1.98568 0.38476,-3.00228c0.0675,-1.01372 0.1215,-2.01016 0.16201,-2.98933M368.00167,171.5839l2.12633,-0.86397c0.27001,0.48958 0.54677,1.02956 0.83028,1.61994c0.28351,0.59038 0.49952,1.09436 0.64802,1.51194l-2.22758,1.03676c-0.13501,-0.44638 -0.33751,-0.97916 -0.60752,-1.59834c-0.27001,-0.61918 -0.52652,-1.18795 -0.76953,-1.70633z"/></g></g></svg>