<svg version="1.1" xmlns="http://www.w3.org/2000/svg" xmlns:xlink="http://www.w3.org/1999/xlink" width="99.74066" height="21.8398" viewBox="0,0,99.74066,21.8398"><g transform="translate(-239.99999,-180)"><g stroke="none" stroke-miterlimit="10"><path d="M248,180h80.08377c-0.08596,7.28491 -0.01898,14.5686 -0.0341,21.8398h-80.04968c-4.432,0 -8,-3.568 -8,-8v-5.8398c0,-4.432 3.568,-8 8,-8z" fill-opacity="0.7" fill="#000000" stroke-width="0"/><path d="M331.74065,180.00608c4.432,0 8,3.4004 8,7.8324v5.8398c0,4.432 -3.568,8 -8,8l-3.74071,0.15545c0.04959,-7.29431 0.0194,-14.62436 -0.01995,-21.82765z" fill-opacity="0.7" fill="#000000" stroke-width="0"/><path d="M246.51493,187.06324h7.4465v0.87949h-7.4465v-0.87949M249.81411,187.43886h0.95838v3.65537c0,0.36645 -0.0311,0.71886 -0.09329,1.05722c-0.0622,0.33958 -0.17528,0.66206 -0.33925,0.96744c-0.16397,0.30538 -0.39014,0.58755 -0.6785,0.84651c-0.28836,0.26018 -0.65984,0.49227 -1.11443,0.69626c-0.45572,0.20521 -1.0087,0.38111 -1.65892,0.52769c-0.03392,-0.0794 -0.08199,-0.17284 -0.14418,-0.28034c-0.0622,-0.10627 -0.12835,-0.21315 -0.19846,-0.32065c-0.07124,-0.10627 -0.14079,-0.19605 -0.20864,-0.26934c0.62761,-0.10994 1.15062,-0.24613 1.56902,-0.4086c0.41841,-0.16124 0.75483,-0.34263 1.00926,-0.54418c0.25444,-0.20155 0.44668,-0.42325 0.57672,-0.66511c0.13004,-0.24064 0.21655,-0.49716 0.25952,-0.76955c0.04184,-0.27118 0.06276,-0.55334 0.06276,-0.84651v-3.64621M248.11787,190.77359v0.69626h4.40174v-0.69626h-4.40174M248.11787,189.34442v0.67794h4.40174v-0.67794h-4.40174M247.26127,188.54738h6.16583v3.7195h-6.16583v-3.7195M248.21117,192.25772c0.29402,0.42142 0.63779,0.75734 1.03131,1.00775c0.3924,0.25041 0.83907,0.43669 1.34003,0.55884c0.49983,0.12215 1.05789,0.20277 1.67419,0.24186c0.6163,0.04031 1.29197,0.06352 2.02701,0.06963c-0.07916,0.10994 -0.15662,0.25774 -0.23238,0.44341c-0.0769,0.18689 -0.12665,0.36279 -0.14927,0.52769c-0.75765,-0.02443 -1.46273,-0.07207 -2.11521,-0.14292c-0.65362,-0.06963 -1.2507,-0.19178 -1.79123,-0.36645c-0.5394,-0.17345 -1.02566,-0.42081 -1.45877,-0.74207c-0.43198,-0.32004 -0.80345,-0.73962 -1.11443,-1.25877zM259.21977,188.2817h3.37552v0.90697h-3.37552v-0.90697M259.46572,186.6235l0.89901,0.17407c-0.10743,0.58633 -0.24143,1.1586 -0.40201,1.71683c-0.16171,0.55945 -0.34716,1.08043 -0.55637,1.56292c-0.2092,0.4825 -0.44385,0.90697 -0.70394,1.27343c-0.04523,-0.06718 -0.10856,-0.14841 -0.18998,-0.24369c-0.08255,-0.09406 -0.16736,-0.18689 -0.25444,-0.2785c-0.0882,-0.09161 -0.16623,-0.16796 -0.23408,-0.22903c0.23747,-0.31149 0.44837,-0.67794 0.6327,-1.09936c0.18319,-0.42142 0.34264,-0.87827 0.47834,-1.37054c0.1357,-0.49105 0.24595,-0.99309 0.33077,-1.50612M261.25526,188.85887l0.94141,0.1191c-0.14701,1.03828 -0.363,1.95442 -0.64796,2.7484c-0.2861,0.79398 -0.66775,1.4762 -1.14496,2.04664c-0.47834,0.57167 -1.0822,1.05294 -1.81159,1.44383c-0.02827,-0.08551 -0.0735,-0.18506 -0.1357,-0.29866c-0.0622,-0.11238 -0.12835,-0.22354 -0.19846,-0.33347c-0.07124,-0.10994 -0.13513,-0.20155 -0.19168,-0.27484c0.66719,-0.31759 1.21564,-0.72558 1.64535,-1.22395c0.42971,-0.49716 0.76783,-1.0957 1.01435,-1.79562c0.24539,-0.6987 0.4218,-1.50918 0.52923,-2.43142M259.68624,189.02377c0.14135,0.80009 0.33925,1.54643 0.59368,2.23903c0.25444,0.69382 0.5852,1.3003 0.9923,1.81944c0.4071,0.51914 0.90183,0.92224 1.48421,1.2093c-0.06785,0.06108 -0.14135,0.1417 -0.22051,0.24186c-0.07916,0.10139 -0.15266,0.20399 -0.22051,0.30782c-0.06785,0.10383 -0.12722,0.1985 -0.17811,0.284c-0.6163,-0.34813 -1.13648,-0.81108 -1.56054,-1.38886c-0.42406,-0.57655 -0.77009,-1.24961 -1.0381,-2.01916c-0.26914,-0.76955 -0.48852,-1.61545 -0.65814,-2.53769l0.80571,-0.15574M255.1912,194.8687l-0.12722,-0.95278l0.38165,-0.36645l2.71399,-1.01691c0,0.14658 0.01131,0.30965 0.03392,0.48922c0.02262,0.18078 0.04523,0.32614 0.06785,0.43608c-0.49191,0.20155 -0.90749,0.37256 -1.24674,0.51303c-0.33925,0.14047 -0.6163,0.25957 -0.83116,0.35729c-0.21486,0.09772 -0.38731,0.17834 -0.51735,0.24186c-0.13004,0.06474 -0.23012,0.11971 -0.30023,0.1649c-0.07124,0.04642 -0.12948,0.091 -0.17471,0.13376M255.1912,194.8687c-0.01696,-0.09772 -0.04354,-0.20949 -0.07972,-0.3353c-0.03732,-0.12459 -0.07859,-0.2498 -0.12383,-0.37561c-0.04523,-0.12459 -0.09329,-0.22659 -0.14418,-0.30599c0.07916,-0.04275 0.14983,-0.10688 0.21203,-0.19239c0.0622,-0.08551 0.09329,-0.21071 0.09329,-0.37561v-3.44466h0.91597v4.28751c0,0 -0.0294,0.01527 -0.0882,0.04581c-0.05993,0.03054 -0.13344,0.0684 -0.22051,0.1136c-0.0882,0.04642 -0.17584,0.10139 -0.26292,0.1649c-0.0882,0.06474 -0.16058,0.13192 -0.21712,0.20155c-0.05654,0.07085 -0.08481,0.14292 -0.08481,0.21621M255.0555,187.21899h3.1126v3.59124h-2.83272v-0.9711h1.93371v-1.6582h-2.21359zM268.23529,186.6235h0.8566v6.44042h-0.8566v-6.44042M265.67397,190.33384l4.44415,-2.03382l0.33925,0.84284l-4.44415,2.0613l-0.33925,-0.87033M266.53905,187.50299h0.86508v5.99151c0,0.17101 0.01414,0.30049 0.04241,0.38844c0.02827,0.08917 0.08764,0.14902 0.17811,0.17956c0.09047,0.03054 0.22334,0.04581 0.39862,0.04581c0.05089,0 0.134,0 0.24935,0c0.11647,0 0.24822,0 0.39522,0c0.14701,0 0.29571,0 0.44611,0c0.14927,0 0.28497,0 0.4071,0c0.121,0 0.20977,0 0.26631,0c0.15832,0 0.27705,-0.03237 0.35621,-0.09711c0.07916,-0.06352 0.13853,-0.18078 0.17811,-0.3518c0.03958,-0.17101 0.06785,-0.41837 0.08481,-0.74207c0.10177,0.0794 0.23069,0.15269 0.38674,0.21987c0.15492,0.06718 0.29458,0.11299 0.41897,0.13742c-0.03958,0.43364 -0.1046,0.77383 -0.19507,1.02057c-0.09047,0.24797 -0.22617,0.42509 -0.4071,0.53136c-0.18093,0.10749 -0.43254,0.16124 -0.75483,0.16124c-0.05654,0 -0.14814,0 -0.27479,0c-0.12778,0 -0.27366,0 -0.43763,0c-0.16397,0 -0.32681,0 -0.48852,0c-0.16058,0 -0.30419,0 -0.43085,0c-0.12778,0 -0.21712,0 -0.26801,0c-0.36186,0 -0.6474,-0.04275 -0.8566,-0.12826c-0.2092,-0.08551 -0.35451,-0.23697 -0.43593,-0.4544c-0.08255,-0.21621 -0.12383,-0.52281 -0.12383,-0.9198v-5.98235M269.94849,188.40996h-0.06785l0.16962,-0.13742l0.16962,-0.1191l0.62761,0.24736l-0.03392,0.1649c0,0.43364 -0.00113,0.83185 -0.00339,1.19464c-0.00339,0.36401 -0.00622,0.68649 -0.00848,0.96744c-0.00339,0.28095 -0.00905,0.51609 -0.01696,0.70542c-0.00905,0.18933 -0.01922,0.32981 -0.03053,0.42142c-0.01696,0.20766 -0.0622,0.36767 -0.1357,0.48005c-0.0735,0.1136 -0.17811,0.19483 -0.3138,0.24369c-0.11874,0.05497 -0.25896,0.08673 -0.42067,0.09528c-0.16058,0.00977 -0.30589,0.01466 -0.43593,0.01466c-0.01131,-0.12215 -0.03562,-0.26446 -0.07294,-0.42692c-0.03619,-0.16124 -0.0769,-0.29377 -0.12213,-0.3976c0.07916,0.00611 0.16397,0.00916 0.25444,0.00916c0.09047,0 0.15549,0 0.19507,0c0.05654,0 0.10177,-0.01405 0.1357,-0.04214c0.03392,-0.02687 0.05654,-0.08306 0.06785,-0.16857c0.01131,-0.04886 0.01979,-0.15452 0.02544,-0.31698c0.00565,-0.16124 0.01018,-0.37623 0.01357,-0.64496c0.00226,-0.26873 0.00339,-0.59427 0.00339,-0.9766c0,-0.38111 0,-0.81902 0,-1.31374M263.25682,188.77641h2.77335v0.9253h-2.77335v-0.9253M264.27457,186.7426h0.8566v6.03732h-0.8566v-6.03732M263.15505,192.85321c0.23182,-0.09161 0.50152,-0.20338 0.80911,-0.3353c0.30872,-0.1307 0.63439,-0.27423 0.97703,-0.43058c0.34151,-0.15513 0.68472,-0.30904 1.02962,-0.46173l0.20355,0.87033c-0.45233,0.23819 -0.91145,0.47456 -1.37735,0.70909c-0.46703,0.23575 -0.89279,0.44829 -1.27727,0.63763zM272.06879,186.98995h7.2175v8.19024h-0.91597v-7.30159h-5.42797v7.30159h-0.87356v-8.19024M272.60311,193.97089h6.26761v0.86117h-6.26761v-0.86117M274.51138,191.90043l0.36469,-0.55884c0.23747,0.04886 0.48512,0.11116 0.74295,0.18689c0.2567,0.07696 0.50378,0.15819 0.74126,0.24369c0.23747,0.08551 0.44102,0.17101 0.61065,0.25652l-0.37317,0.61381c-0.16397,-0.08551 -0.36469,-0.1759 -0.60217,-0.27118c-0.23747,-0.09406 -0.48626,-0.18262 -0.74635,-0.26568c-0.26009,-0.08184 -0.50605,-0.15025 -0.73786,-0.20521M274.90151,187.90609l0.73786,0.27484c-0.15832,0.26873 -0.34773,0.53441 -0.56824,0.79704c-0.22051,0.26263 -0.4512,0.50693 -0.69207,0.73291c-0.23974,0.22598 -0.47834,0.42447 -0.71581,0.59549c-0.03958,-0.05497 -0.09782,-0.1191 -0.17471,-0.19239c-0.07577,-0.07329 -0.1521,-0.14658 -0.22899,-0.21987c-0.07577,-0.07329 -0.14475,-0.13131 -0.20694,-0.17407c0.35621,-0.21987 0.70111,-0.49044 1.03471,-0.81169c0.33359,-0.32004 0.60499,-0.65412 0.8142,-1.00225M277.14903,188.62983h0.15266l0.12722,-0.03665l0.50887,0.32981c-0.22051,0.37256 -0.50209,0.71581 -0.84473,1.02973c-0.34151,0.31515 -0.71864,0.5961 -1.13139,0.84284c-0.41275,0.24797 -0.84247,0.46173 -1.28914,0.64129c-0.44668,0.18078 -0.89335,0.3292 -1.34003,0.44524c-0.02827,-0.07329 -0.06502,-0.16185 -0.11026,-0.26568c-0.04523,-0.10383 -0.09442,-0.20338 -0.14757,-0.29866c-0.05428,-0.09406 -0.10686,-0.17162 -0.15775,-0.2327c0.41841,-0.08551 0.84247,-0.20155 1.27218,-0.34813c0.42971,-0.14658 0.83681,-0.32065 1.22129,-0.5222c0.38448,-0.20155 0.72769,-0.42447 1.02962,-0.66878c0.30306,-0.2443 0.5394,-0.50693 0.70903,-0.78788v-0.12826M274.67252,189.23448c0.24878,0.28705 0.57107,0.54785 0.96686,0.78238c0.39579,0.23575 0.83229,0.44219 1.3095,0.61931c0.47834,0.17712 0.96629,0.31149 1.46386,0.4031c-0.08481,0.08551 -0.17697,0.19972 -0.27649,0.34263c-0.09838,0.14414 -0.17584,0.27423 -0.23238,0.39027c-0.50322,-0.12215 -0.99796,-0.28889 -1.48421,-0.50021c-0.48626,-0.2101 -0.93689,-0.46051 -1.3519,-0.75123c-0.41614,-0.2895 -0.7684,-0.61137 -1.05676,-0.9656l0.66153,-0.32065M274.86759,188.62983h2.53588v0.73291h-3.01083l0.47495,-0.73291M273.71415,193.07308l0.4071,-0.64129c0.28836,0.03054 0.58973,0.07451 0.9041,0.13192c0.31324,0.05863 0.62535,0.12276 0.93632,0.19239c0.31098,0.07085 0.60499,0.14597 0.88205,0.22537c0.27705,0.0794 0.52301,0.1588 0.73786,0.23819l-0.39862,0.69626c-0.27705,-0.10994 -0.61234,-0.21987 -1.00587,-0.32981c-0.3924,-0.10994 -0.80345,-0.21071 -1.23317,-0.30232c-0.42971,-0.09161 -0.83964,-0.16185 -1.22977,-0.21071zM283.90855,189.43603h3.5197v0.98942h-3.5197v-0.98942M280.30404,193.74186h7.70941v0.98942h-7.70941v-0.98942M283.3912,186.7426h0.97534v7.53978h-0.97534zM290.66807,189.24364v0.70542h3.90983v-0.70542h-3.90983M290.66807,187.81447v0.70542h3.90983v-0.70542h-3.90983M289.77755,187.05408h5.73329v3.66453h-5.73329v-3.66453M288.67499,193.82431h7.92144v0.93446h-7.92144v-0.93446M291.21935,191.0301h0.86508v3.30724h-0.86508v-3.30724M293.14458,191.0301h0.86508v3.30724h-0.86508v-3.30724M295.24792,191.23165l0.77179,0.37561c-0.16397,0.31759 -0.34603,0.63824 -0.54619,0.96194c-0.20129,0.3237 -0.38957,0.60159 -0.56485,0.83368l-0.69546,-0.34813c0.11874,-0.1649 0.242,-0.35118 0.36978,-0.55884c0.12665,-0.20766 0.25104,-0.42142 0.37317,-0.64129c0.121,-0.21987 0.21825,-0.42753 0.29175,-0.62297M289.31956,191.62559l0.70394,-0.32981c0.10177,0.18933 0.2092,0.39211 0.32229,0.60831c0.11308,0.21743 0.21882,0.42692 0.3172,0.62847c0.09951,0.20155 0.17754,0.37867 0.23408,0.53136l-0.73786,0.38478c-0.05654,-0.1588 -0.13174,-0.34386 -0.2256,-0.55518c-0.09273,-0.2101 -0.19168,-0.42692 -0.29684,-0.65045c-0.10404,-0.22232 -0.20977,-0.42814 -0.3172,-0.61747zM300.64197,189.99487h1.00078v4.0035c0,0.28095 -0.03506,0.49899 -0.10517,0.65412c-0.07124,0.15635 -0.20016,0.27423 -0.38674,0.35363c-0.18659,0.07329 -0.41558,0.12032 -0.68698,0.14108c-0.2714,0.02199 -0.59368,0.03298 -0.96686,0.03298c-0.02262,-0.15269 -0.06502,-0.32859 -0.12722,-0.52769c-0.0622,-0.19788 -0.12722,-0.37012 -0.19507,-0.5167c0.16962,0.00611 0.34038,0.01221 0.51226,0.01832c0.17302,0.00611 0.32737,0.00733 0.46307,0.00366c0.1357,-0.00244 0.22899,-0.00366 0.27988,-0.00366c0.07916,0 0.13457,-0.01221 0.16623,-0.03665c0.03053,-0.02443 0.0458,-0.07024 0.0458,-0.13742v-3.98518M298.6404,191.16752l0.94989,0.26568c-0.12439,0.36645 -0.27705,0.72802 -0.45798,1.0847c-0.18093,0.3579 -0.37317,0.6926 -0.57672,1.00408c-0.20355,0.31149 -0.40992,0.58327 -0.61913,0.81536c-0.0622,-0.06108 -0.14588,-0.12826 -0.25104,-0.20155c-0.10404,-0.07329 -0.20807,-0.14658 -0.31211,-0.21987c-0.10517,-0.07329 -0.19733,-0.12826 -0.27649,-0.1649c0.31663,-0.31149 0.61178,-0.69932 0.88544,-1.16349c0.27479,-0.46417 0.49417,-0.93751 0.65814,-1.42001M302.60112,191.52482l0.84812,-0.38478c0.19789,0.28705 0.39183,0.59549 0.58181,0.9253c0.18885,0.32981 0.3613,0.65473 0.51735,0.97477c0.15492,0.32126 0.27196,0.6132 0.35112,0.87582l-0.94141,0.43974c-0.0622,-0.25041 -0.1651,-0.5393 -0.30872,-0.86666c-0.14475,-0.32614 -0.30928,-0.66206 -0.49361,-1.00775c-0.18319,-0.34447 -0.36808,-0.66328 -0.55467,-0.95644M298.11457,187.23731h6.00469v0.98026h-6.00469v-0.98026M297.35126,189.45435h7.54827v0.98026h-7.54827zM306.54488,188.10764h2.59525v6.11977h-2.59525v-0.87033h1.76409v-4.38828h-1.76409v-0.86117M306.01057,188.10764h0.83116v6.81603h-0.83116v-6.81603M306.50248,190.5812h2.22208v0.852h-2.22208v-0.852M307.24034,186.61434l0.9923,0.1649c-0.09047,0.29927 -0.18659,0.59976 -0.28836,0.90148c-0.10177,0.30294 -0.19507,0.56128 -0.27988,0.77505l-0.72938,-0.18323c0.03958,-0.15269 0.08029,-0.32675 0.12213,-0.5222c0.04297,-0.19544 0.08142,-0.39272 0.11534,-0.59182c0.03392,-0.19788 0.05654,-0.37928 0.06785,-0.54418M310.2851,188.05267h2.51892v0.89781h-2.51892v-0.89781M312.48173,188.05267h0.84812c0,0 0,0.02871 0,0.08612c0,0.05863 0,0.12276 0,0.19239c0,0.07085 -0.00283,0.12765 -0.00848,0.1704c-0.02827,1.03828 -0.05767,1.91777 -0.0882,2.63847c-0.03166,0.72069 -0.06842,1.31312 -0.11026,1.7773c-0.04297,0.46417 -0.09273,0.82574 -0.14927,1.0847c-0.05654,0.26018 -0.13004,0.45135 -0.22051,0.5735c-0.11308,0.1649 -0.22899,0.27789 -0.34773,0.33897c-0.11874,0.06108 -0.26292,0.10688 -0.43254,0.13742c-0.15266,0.01832 -0.34773,0.02748 -0.5852,0.02748c-0.23747,0 -0.4806,-0.00611 -0.72938,-0.01832c-0.00565,-0.13437 -0.03506,-0.29316 -0.0882,-0.47639c-0.05428,-0.18323 -0.12665,-0.34202 -0.21712,-0.47639c0.27705,0.02443 0.53149,0.0397 0.76331,0.04581c0.23182,0.00611 0.40144,0.00916 0.50887,0.00916c0.08481,0 0.15436,-0.01099 0.20864,-0.03298c0.05315,-0.02077 0.10799,-0.06169 0.16454,-0.12276c0.06785,-0.08551 0.12722,-0.25224 0.17811,-0.50021c0.05089,-0.24675 0.09329,-0.5961 0.12722,-1.04806c0.03392,-0.45196 0.06672,-1.02607 0.09838,-1.72233c0.03053,-0.69626 0.05711,-1.52689 0.07972,-2.49188v-0.19239M310.35294,186.61434l0.87356,0.21987c-0.10743,0.45196 -0.23634,0.89903 -0.38674,1.34122c-0.14927,0.44341 -0.31437,0.86055 -0.4953,1.25144c-0.18093,0.39088 -0.36752,0.73291 -0.55976,1.02607c-0.05654,-0.05497 -0.13004,-0.1191 -0.22051,-0.19239c-0.09047,-0.07329 -0.18376,-0.14536 -0.27988,-0.21621c-0.09612,-0.06963 -0.17811,-0.12276 -0.24595,-0.15941c0.18659,-0.26263 0.363,-0.56984 0.52923,-0.92163c0.16736,-0.35057 0.31776,-0.72741 0.4512,-1.13051c0.13231,-0.4031 0.24369,-0.80925 0.33416,-1.21846M309.94585,190.61784l0.71242,-0.43058c0.14135,0.20766 0.29402,0.43791 0.45798,0.69076c0.16397,0.25407 0.31833,0.49838 0.46307,0.73291c0.14361,0.23575 0.25783,0.44524 0.34264,0.62847l-0.77179,0.51303c-0.07916,-0.18933 -0.18659,-0.40615 -0.32229,-0.65045c-0.1357,-0.2443 -0.28101,-0.49654 -0.43593,-0.75673c-0.15605,-0.25896 -0.30476,-0.50143 -0.44611,-0.72741zM317.57893,190.59952l0.68698,-0.54052c0.19224,0.18933 0.39862,0.39394 0.61913,0.61381c0.22051,0.21987 0.4382,0.4428 0.65305,0.66878c0.21486,0.22598 0.41558,0.44585 0.60217,0.65962c0.18659,0.21376 0.34207,0.40615 0.46647,0.57716l-0.75483,0.64129c-0.11308,-0.17712 -0.25896,-0.37439 -0.43763,-0.59182c-0.17754,-0.21621 -0.36921,-0.44341 -0.57503,-0.6816c-0.20694,-0.23819 -0.41897,-0.47211 -0.63609,-0.70176c-0.21825,-0.22842 -0.42632,-0.44341 -0.62422,-0.64496M317.62134,186.6235h0.93293v2.08878c0,0.29927 -0.01696,0.61198 -0.05089,0.93812c-0.03392,0.32736 -0.09782,0.65717 -0.19168,0.98942c-0.09273,0.33347 -0.2256,0.66206 -0.39862,0.98576c-0.17189,0.3237 -0.39635,0.63519 -0.67341,0.93446c-0.27705,0.29927 -0.6163,0.57716 -1.01774,0.83368c-0.03958,-0.07329 -0.09782,-0.15574 -0.17471,-0.24736c-0.07577,-0.09161 -0.15605,-0.18323 -0.24087,-0.27484c-0.08481,-0.09161 -0.16397,-0.1649 -0.23747,-0.21987c0.38448,-0.21987 0.70224,-0.45685 0.95329,-0.71092c0.25217,-0.25285 0.45177,-0.51853 0.59877,-0.79704c0.14701,-0.27728 0.25557,-0.5564 0.32568,-0.83735c0.07124,-0.28095 0.11817,-0.55762 0.14079,-0.83002c0.02262,-0.27118 0.03392,-0.52891 0.03392,-0.77322v-2.07962M314.61899,188.1626h6.4542v0.96194h-5.54671v6.07397h-0.90749v-7.03591M320.66609,188.1626h0.89901v5.86326c0,0.27484 -0.0311,0.4886 -0.09329,0.64129c-0.0622,0.15269 -0.17811,0.26873 -0.34773,0.34813c-0.16962,0.0794 -0.389,0.12643 -0.65814,0.14108c-0.26801,0.01588 -0.59425,0.02382 -0.97873,0.02382c-0.00565,-0.09161 -0.02544,-0.19727 -0.05937,-0.31698c-0.03392,-0.11849 -0.07068,-0.23575 -0.11026,-0.3518c-0.03958,-0.11604 -0.08199,-0.21987 -0.12722,-0.31149c0.17528,0.00611 0.34886,0.01221 0.52075,0.01832c0.17302,0.00611 0.32737,0.00916 0.46307,0.00916c0.1357,0 0.22899,0 0.27988,0c0.08481,-0.00611 0.14135,-0.02443 0.16962,-0.05497c0.02827,-0.03054 0.04241,-0.08551 0.04241,-0.1649zM325.05087,188.53822l0.84812,0.30232c-0.17528,0.27484 -0.38448,0.54052 -0.62761,0.79704c-0.24313,0.25652 -0.49926,0.49288 -0.7684,0.70909c-0.26801,0.21743 -0.53205,0.40554 -0.79214,0.56434c-0.03958,-0.06108 -0.09895,-0.14047 -0.17811,-0.23819c-0.07916,-0.09772 -0.15832,-0.19422 -0.23747,-0.2895c-0.07916,-0.09406 -0.14701,-0.17162 -0.20355,-0.2327c0.37883,-0.18323 0.74465,-0.41837 1.09747,-0.70542c0.35395,-0.28705 0.64118,-0.58938 0.86169,-0.90697M327.13725,189.10622l0.61913,-0.55884c0.24878,0.1588 0.51057,0.33714 0.78536,0.53502c0.27366,0.19911 0.53375,0.40066 0.78027,0.60465c0.24539,0.20521 0.44442,0.39027 0.59708,0.55518l-0.66153,0.64129c-0.14701,-0.17101 -0.33812,-0.36218 -0.57333,-0.5735c-0.23408,-0.2101 -0.48682,-0.42203 -0.75822,-0.6358c-0.2714,-0.21376 -0.53432,-0.4031 -0.78875,-0.568M324.12642,192.03785h4.89365v3.12402h-0.92445v-2.25369h-3.08716v2.27201h-0.88205v-3.14234M324.60137,194.04418h3.91832v0.86117h-3.91832v-0.86117M322.95601,187.38389h7.2175v1.8964h-0.93293v-0.99859h-5.39405v0.99859h-0.89053v-1.8964M325.86507,186.75176l0.95838,-0.21987c0.09612,0.17712 0.18941,0.37073 0.27988,0.58083c0.09047,0.21132 0.15266,0.39638 0.18659,0.55518l-1.00078,0.24736c-0.03392,-0.15269 -0.09047,-0.33897 -0.16962,-0.55884c-0.07916,-0.21987 -0.16397,-0.42142 -0.25444,-0.60465M326.42483,189.3719l0.78875,0.36645c-0.30532,0.52525 -0.66832,1.00469 -1.08899,1.43833c-0.4218,0.43364 -0.88431,0.81963 -1.38752,1.15799c-0.50322,0.33958 -1.03188,0.63152 -1.58599,0.87582c-0.0622,-0.12215 -0.14701,-0.25835 -0.25444,-0.4086c-0.10743,-0.14902 -0.21203,-0.2785 -0.3138,-0.38844c0.52583,-0.19544 1.03188,-0.4428 1.51814,-0.74207c0.48626,-0.29927 0.92841,-0.64313 1.32646,-1.03157c0.39918,-0.38722 0.73165,-0.80986 0.99739,-1.26793M326.84889,189.71087c0.50322,0.62297 1.06128,1.13295 1.67419,1.52994c0.61404,0.39699 1.28292,0.74207 2.00665,1.03523c-0.10743,0.10383 -0.21486,0.23025 -0.32229,0.37928c-0.10743,0.15025 -0.19224,0.29866 -0.25444,0.44524c-0.49756,-0.2443 -0.96686,-0.50571 -1.40788,-0.78421c-0.44102,-0.27728 -0.86112,-0.59793 -1.26031,-0.96194c-0.39805,-0.36279 -0.78649,-0.78849 -1.16532,-1.27709z" fill="#ffffff" stroke-width="1"/></g></g></svg>