<svg version="1.1" xmlns="http://www.w3.org/2000/svg" xmlns:xlink="http://www.w3.org/1999/xlink" width="100" height="40" viewBox="0,0,100,40"><g transform="translate(-190,-160)"><g stroke="none" stroke-miterlimit="10"><g fill-rule="evenodd" stroke-width="1" stroke-linecap="butt" stroke-linejoin="miter"><path d="M268,164.03c9.3118,0 17,7.0939 17,16c0,8.9061 -7.6882,16 -17,16h-56c-9.3118,0 -17,-7.0939 -17,-16c0,-8.9061 7.6882,-16 17,-16z" fill="#7d97b4"/><path d="M212,166.03h56c8.31,0 15,6.244 15,14c0,7.756 -6.69,14 -15,14h-56c-8.31,0 -15,-6.244 -15,-14c0,-7.756 6.69,-14 15,-14z" fill="#31476d"/></g><path d="M190,200v-40h100v40z" fill="none" fill-rule="nonzero" stroke-width="2" stroke-linecap="round" stroke-linejoin="round"/><path d="M224.16045,181.17392h14.68218v1.65339h-14.68218v-1.65339M233.55176,180.13227h1.83527v5.65462c0,0.46295 -0.07165,0.81568 -0.21495,1.05818c-0.14329,0.2425 -0.39681,0.42437 -0.76057,0.54562c-0.36374,0.11023 -0.8234,0.17636 -1.37894,0.19841c-0.55775,0.02205 -1.22241,0.03307 -1.994,0.03307c-0.04409,-0.23147 -0.12676,-0.49932 -0.24801,-0.80355c-0.12125,-0.30202 -0.2425,-0.56326 -0.36374,-0.78371c0.36374,0.01102 0.7297,0.01874 1.09786,0.02315c0.37036,0.00661 0.70104,0.00992 0.99204,0.00992c0.2932,0 0.4894,0 0.58861,0c0.16534,0 0.28108,-0.02535 0.34722,-0.07605c0.06614,-0.0485 0.0992,-0.13338 0.0992,-0.25462v-5.60502M226.42561,183.53828l1.20698,-1.09124c0.35272,0.2425 0.71648,0.52358 1.09124,0.84323c0.37477,0.31965 0.72198,0.636 1.04164,0.94905c0.31965,0.31525 0.57318,0.61065 0.76057,0.88623l-1.28965,1.20698c-0.16534,-0.27556 -0.40233,-0.582 -0.71096,-0.91929c-0.30863,-0.33509 -0.64482,-0.66798 -1.00857,-0.99865c-0.36374,-0.33068 -0.7275,-0.62278 -1.09124,-0.8763M225.28476,173.56829h1.8518v3.91856c0,0.23147 0.05181,0.40783 0.15542,0.52908c0.10581,0.12125 0.31084,0.20392 0.61506,0.24801c0.30202,0.04409 0.75616,0.06614 1.3624,0.06614c0.13227,0 0.34722,0 0.64482,0c0.29761,0 0.63711,0 1.0185,0c0.37918,0 0.7782,0 1.19706,0c0.41886,0 0.83001,0 1.23343,0c0.40122,0 0.76166,0 1.08133,0c0.31965,0 0.56767,0 0.74403,0c0.4409,0 0.7749,-0.02756 1.00196,-0.08267c0.22486,-0.05511 0.38689,-0.16534 0.4861,-0.33068c0.0992,-0.16534 0.17636,-0.40783 0.23147,-0.7275c0.22045,0.11023 0.49051,0.21164 0.81016,0.30422c0.31965,0.09479 0.60625,0.16423 0.85977,0.20832c-0.07716,0.55113 -0.22597,0.9755 -0.44642,1.27312c-0.22045,0.29761 -0.54782,0.50153 -0.98211,0.61176c-0.4365,0.11023 -1.03503,0.16534 -1.79559,0.16534c-0.13227,0 -0.35272,0 -0.66136,0c-0.30863,0 -0.66907,0 -1.08133,0c-0.41446,0 -0.84764,0 -1.29957,0c-0.45192,0 -0.88182,0 -1.28965,0c-0.40783,0 -0.76387,0 -1.06809,0c-0.30202,0 -0.51366,0 -0.63491,0c-1.03613,0 -1.84629,-0.06063 -2.43049,-0.18188c-0.5842,-0.12125 -0.99755,-0.3417 -1.24004,-0.66136c-0.2425,-0.31965 -0.36374,-0.78261 -0.36374,-1.38885v-3.95162M225.86345,175.50276h9.25902v-1.27312h-9.83771v-1.52112h11.59032v4.3319h-11.01163zM244.3319,173.91551l1.09124,-1.53766c0.76057,0.55113 1.41972,1.13533 1.97746,1.7526c0.55554,0.61726 1.04494,1.25878 1.46822,1.92456c0.42547,0.66798 0.82008,1.34366 1.18384,2.02707c0.36374,0.6834 0.7275,1.3635 1.09124,2.04029c0.36374,0.679 0.76057,1.33485 1.19045,1.96754c0.42988,0.63491 0.92811,1.23895 1.49467,1.81212c0.56877,0.57318 1.23895,1.09675 2.01053,1.57073c-0.08818,0.16534 -0.1951,0.37146 -0.32076,0.61837c-0.12786,0.24911 -0.24139,0.50043 -0.3406,0.75395c-0.0992,0.25352 -0.16534,0.47397 -0.19841,0.66136c-0.80466,-0.45192 -1.5101,-0.9755 -2.11635,-1.57073c-0.60625,-0.59522 -1.14084,-1.23784 -1.6038,-1.92786c-0.46295,-0.68781 -0.89284,-1.40098 -1.28965,-2.13949c-0.39681,-0.73852 -0.78481,-1.47703 -1.16399,-2.21556c-0.38139,-0.73852 -0.78371,-1.45829 -1.20698,-2.15934c-0.42547,-0.69883 -0.90275,-1.35468 -1.43184,-1.96754c-0.52908,-0.61065 -1.14084,-1.14746 -1.83527,-1.61041M247.01042,176.14759l2.03368,0.36374c-0.39681,1.71953 -0.91488,3.27373 -1.55419,4.66258c-0.63932,1.38885 -1.41861,2.60686 -2.33791,3.654c-0.92149,1.04715 -1.994,1.93447 -3.21751,2.66197c-0.11023,-0.13227 -0.26124,-0.28989 -0.45303,-0.47288c-0.19399,-0.18077 -0.39902,-0.36265 -0.61506,-0.54562c-0.21384,-0.18077 -0.39792,-0.32627 -0.55223,-0.4365c1.84078,-0.91488 3.29908,-2.20784 4.37489,-3.87887c1.07361,-1.66883 1.8474,-3.67165 2.32137,-6.00844z" fill="#ffffff" fill-rule="nonzero" stroke-width="1" stroke-linecap="butt" stroke-linejoin="miter"/></g></g></svg>