<svg version="1.1" xmlns="http://www.w3.org/2000/svg" xmlns:xlink="http://www.w3.org/1999/xlink" width="208" height="32" viewBox="0,0,208,32"><g transform="translate(-240,-164)"><g stroke="none" stroke-miterlimit="10"><path d="M241.46084,175.5112h5.87276v2.12292h-5.87276v-2.12292M251.22232,171.06694h2.22212v14.42398c0,0.5423 0.05291,0.88621 0.15873,1.0317c0.10582,0.1455 0.35052,0.21825 0.73409,0.21825c0.07936,0 0.22486,0 0.43649,0c0.21163,0 0.4431,0 0.69441,0c0.25131,0 0.48278,0 0.69441,0c0.21163,0 0.37035,0 0.47617,0c0.26454,0 0.46691,-0.11244 0.60712,-0.33729c0.13756,-0.22485 0.23941,-0.63225 0.30554,-1.22217c0.06613,-0.58728 0.11905,-1.41661 0.15873,-2.48799c0.18518,0.13227 0.3968,0.26454 0.63489,0.39681c0.23809,0.13227 0.48279,0.24734 0.7341,0.34522c0.25131,0.10053 0.47617,0.17724 0.67458,0.23015c-0.06613,1.24334 -0.1918,2.24461 -0.37697,3.00383c-0.18518,0.76187 -0.47352,1.31476 -0.86504,1.65866c-0.38887,0.3439 -0.94705,0.51585 -1.67453,0.51585c-0.10582,0 -0.29099,0 -0.55553,0c-0.26454,0 -0.55156,0 -0.86107,0c-0.31215,0 -0.59389,0 -0.8452,0c-0.25131,0 -0.43649,0 -0.55553,0c-0.71426,0 -1.27243,-0.10317 -1.67453,-0.30951c-0.40474,-0.2037 -0.69309,-0.55024 -0.86504,-1.03964c-0.17195,-0.4894 -0.25793,-1.17058 -0.25793,-2.04357v-14.3843M246.28206,171.0471h2.22212v17.99525h-2.22212v-17.99525M257.76965,174.04301l1.52771,1.90467c-0.66134,0.46294 -1.36899,0.92589 -2.12293,1.38883c-0.75394,0.46294 -1.52374,0.91266 -2.30942,1.34915c-0.78832,0.43649 -1.55946,0.84652 -2.31339,1.2301c-0.07936,-0.23809 -0.20502,-0.51982 -0.37697,-0.8452c-0.17195,-0.32274 -0.33729,-0.59654 -0.49601,-0.82139c0.72748,-0.38358 1.45893,-0.81742 2.19435,-1.30153c0.73277,-0.48146 1.43644,-0.97351 2.11102,-1.47613c0.67458,-0.50262 1.26979,-0.97879 1.78564,-1.42851M240.78626,184.57826c0.5423,-0.17195 1.16794,-0.38094 1.8769,-0.62696c0.70632,-0.24337 1.45629,-0.50792 2.2499,-0.79362c0.79361,-0.28305 1.58062,-0.57008 2.36101,-0.86107l0.39681,1.92452c-1.00525,0.44971 -2.02636,0.89282 -3.06336,1.32931c-1.03964,0.43649 -1.99595,0.8333 -2.86893,1.19043zM268.34459,176.16593h1.98404c-0.09259,0.83329 -0.19179,1.70892 -0.2976,2.62687c-0.10582,0.92059 -0.22089,1.83325 -0.34523,2.73797c-0.12698,0.90736 -0.24734,1.76712 -0.36109,2.57926c-0.11111,0.81478 -0.21956,1.533 -0.32538,2.15467h-2.0634c0.13227,-0.64812 0.26454,-1.38619 0.39681,-2.21419c0.13227,-0.82536 0.26189,-1.69173 0.38887,-2.59909c0.12433,-0.90473 0.23941,-1.81077 0.34523,-2.71814c0.10582,-0.90473 0.1984,-1.7605 0.27776,-2.56735M271.32065,178.46742l1.11106,-0.71425c0.35712,0.27776 0.72748,0.60182 1.11106,0.97218c0.38358,0.37035 0.68119,0.69442 0.89282,0.97218l-1.17059,0.81346c-0.18518,-0.291 -0.46691,-0.63225 -0.8452,-1.02376c-0.37565,-0.38887 -0.74203,-0.7288 -1.09916,-1.0198M270.78496,182.57438l1.17058,-0.73409c0.39681,0.30422 0.80948,0.65473 1.23804,1.05154c0.4312,0.39681 0.76584,0.75393 1.00392,1.07138l-1.21026,0.8333c-0.22485,-0.30422 -0.54892,-0.66797 -0.97218,-1.09123c-0.42326,-0.42326 -0.83329,-0.80022 -1.2301,-1.1309M268.62235,172.77322h10.25749v1.92452h-10.25749v-1.92452M269.17789,176.16593h7.55919v1.82532h-7.55919v-1.82532M265.8447,180.13401h13.551v1.92452h-13.55099v-1.92452M268.0073,184.43938h10.87254v1.82532h-10.87254v-1.82532M268.7414,170.68998l2.0634,0.53569c-0.26454,0.82007 -0.58596,1.63617 -0.96425,2.44831c-0.37565,0.81478 -0.7751,1.5793 -1.19836,2.29355c-0.42326,0.71426 -0.85314,1.34253 -1.28963,1.88484c-0.13227,-0.11904 -0.31348,-0.25131 -0.54363,-0.39681c-0.2328,-0.1455 -0.46163,-0.29099 -0.68648,-0.43649c-0.22485,-0.1455 -0.42326,-0.26454 -0.59521,-0.35713c0.44972,-0.47617 0.87695,-1.03566 1.28169,-1.67849c0.4021,-0.64019 0.76848,-1.32798 1.09915,-2.0634c0.33067,-0.73277 0.60845,-1.47612 0.8333,-2.23006M276.12203,176.16593h1.98404c0,0 -0.00264,0.05953 -0.00793,0.17857c-0.00793,0.11904 -0.01191,0.24734 -0.01191,0.38491c0,0.14021 -0.00661,0.2566 -0.01984,0.34919c-0.07936,1.89145 -0.15873,3.49455 -0.23809,4.80931c-0.07936,1.31741 -0.16931,2.39936 -0.26983,3.24589c-0.09788,0.84653 -0.20899,1.50787 -0.33332,1.98404c-0.12698,0.47617 -0.27644,0.82007 -0.44839,1.0317c-0.22485,0.30422 -0.4603,0.51188 -0.70632,0.62299c-0.24338,0.11375 -0.52379,0.19708 -0.84124,0.24999c-0.291,0.03968 -0.66134,0.05952 -1.11106,0.05952c-0.44972,0 -0.91928,-0.01323 -1.40867,-0.03968c-0.01323,-0.26454 -0.06614,-0.56214 -0.15873,-0.89282c-0.09259,-0.33068 -0.21824,-0.62167 -0.37696,-0.87297c0.46294,0.03968 0.88621,0.06613 1.26979,0.07936c0.38358,0.01323 0.66796,0.01984 0.85313,0.01984c0.17195,0 0.31083,-0.02381 0.41665,-0.07143c0.10582,-0.04497 0.21163,-0.12698 0.31745,-0.24602c0.13227,-0.1455 0.25131,-0.44046 0.35713,-0.88488c0.10582,-0.44178 0.20502,-1.07005 0.29761,-1.88484c0.09259,-0.81214 0.17592,-1.85045 0.24999,-3.11495c0.07142,-1.26185 0.13359,-2.7922 0.1865,-4.59107v-0.41665M261.99566,172.45577l1.19043,-1.44835c0.38358,0.17195 0.79626,0.37697 1.23804,0.61506c0.44443,0.23809 0.86768,0.48279 1.26978,0.73409c0.40474,0.25131 0.73278,0.48278 0.98409,0.69441l-1.24995,1.60707c-0.23809,-0.21163 -0.55289,-0.45369 -0.94441,-0.72616c-0.38887,-0.26983 -0.80552,-0.53436 -1.24994,-0.79361c-0.44178,-0.2566 -0.85446,-0.4841 -1.23804,-0.68251M260.8846,178.13013l1.15074,-1.42851c0.38358,0.17195 0.78304,0.373 1.19836,0.60315c0.41797,0.2328 0.81478,0.46823 1.19043,0.70632c0.37829,0.23809 0.68648,0.46294 0.92456,0.67458l-1.2301,1.62691c-0.21163,-0.22485 -0.50262,-0.46955 -0.87298,-0.73409c-0.37036,-0.26454 -0.7632,-0.52247 -1.17852,-0.77378c-0.41797,-0.25131 -0.81213,-0.47617 -1.18248,-0.67458M261.44013,187.75273c0.26454,-0.51585 0.55817,-1.1243 0.88091,-1.82532c0.32538,-0.70102 0.64944,-1.44835 0.97218,-2.24196c0.32538,-0.79361 0.62696,-1.574 0.90472,-2.34117l1.62691,1.15075c-0.23809,0.70102 -0.49866,1.4219 -0.78172,2.16261c-0.2857,0.74071 -0.57801,1.4748 -0.87694,2.20228c-0.29629,0.72748 -0.58992,1.40867 -0.88092,2.04356zM286.18111,173.15019h12.69786v1.72611h-12.69786v-1.72611M291.26025,173.92396l2.46021,0.15873c-0.1984,0.52908 -0.42062,1.04493 -0.66664,1.54755c-0.24338,0.50262 -0.46426,0.93911 -0.66267,1.30946l-1.72612,-0.27776c0.11904,-0.42326 0.23809,-0.8862 0.35713,-1.38882c0.11904,-0.50262 0.1984,-0.95234 0.23808,-1.34915M294.73233,170.70982l2.0634,0.57537c-0.33067,0.4894 -0.65738,0.97218 -0.98012,1.44835c-0.32538,0.47617 -0.62696,0.87959 -0.90472,1.21027l-1.68644,-0.53569c0.17195,-0.25131 0.35448,-0.53569 0.5476,-0.85313c0.19047,-0.31744 0.37168,-0.63886 0.54363,-0.96425c0.17195,-0.32274 0.31083,-0.61638 0.41665,-0.88092M287.98659,171.32487l1.78564,-0.75393c0.26454,0.31744 0.52511,0.67722 0.78171,1.07932c0.25925,0.40474 0.4484,0.75261 0.56743,1.04361l-1.88484,0.83329c-0.10582,-0.30422 -0.27777,-0.66135 -0.51585,-1.07138c-0.23809,-0.41003 -0.48279,-0.78701 -0.7341,-1.13091M285.42717,177.83252v7.97585h-2.04356v-6.01165h-2.46021v-1.9642h4.50377M280.98293,172.49545l1.64675,-1.0317c0.3439,0.31744 0.70102,0.66796 1.07138,1.05154c0.37036,0.38358 0.71822,0.76717 1.04361,1.15075c0.32274,0.38358 0.57669,0.7341 0.76187,1.05154l-1.74595,1.17058c-0.17195,-0.30422 -0.414,-0.65473 -0.72616,-1.05154c-0.30951,-0.39681 -0.64283,-0.80023 -0.99995,-1.21027c-0.35712,-0.41003 -0.70764,-0.787 -1.05154,-1.1309M284.5542,185.15363c0.3439,0 0.68119,0.11243 1.01187,0.33729c0.33067,0.22485 0.78039,0.48278 1.34915,0.77378c0.66134,0.33068 1.43909,0.54891 2.33323,0.65473c0.8915,0.10582 1.86633,0.15873 2.92448,0.15873c0.70103,0 1.47877,-0.01719 2.33323,-0.05158c0.85181,-0.03175 1.69437,-0.08068 2.52767,-0.14682c0.8333,-0.06614 1.56739,-0.13889 2.20229,-0.21825c-0.07936,0.18517 -0.15873,0.39946 -0.23809,0.64283c-0.07936,0.24602 -0.15211,0.49469 -0.21825,0.746c-0.06613,0.25131 -0.10581,0.47617 -0.11904,0.67458c-0.3439,0.01323 -0.78303,0.03306 -1.3174,0.05952c-0.53701,0.02645 -1.119,0.05291 -1.74596,0.07936c-0.6296,0.02645 -1.24862,0.04629 -1.85706,0.05952c-0.60844,0.01323 -1.15736,0.01985 -1.64675,0.01985c-1.19043,0 -2.22873,-0.07275 -3.11494,-0.21824c-0.88621,-0.1455 -1.69305,-0.39681 -2.42053,-0.75394c-0.44972,-0.23809 -0.83991,-0.46956 -1.17059,-0.69441c-0.33067,-0.22485 -0.62167,-0.33729 -0.87298,-0.33729c-0.22485,0 -0.48278,0.10846 -0.77378,0.32538c-0.291,0.21957 -0.59918,0.50395 -0.92456,0.85314c-0.32274,0.35183 -0.63622,0.71955 -0.94044,1.10313l-1.28963,-1.78564c0.70103,-0.64812 1.39941,-1.19042 2.09515,-1.62691c0.69309,-0.43649 1.3174,-0.65474 1.87293,-0.65474M289.53414,180.33241v1.24994h5.73388v-1.24994h-5.73388M289.53414,182.97119v1.24994h5.73388v-1.24994h-5.73388M289.53414,177.71348v1.24994h5.73388v-1.24994h-5.73388M287.53026,176.20561h9.821v9.54324h-9.821zM302.68833,172.27721h14.10652v9.54323h-2.0634v-7.79727h-10.05908v7.79727h-1.98404v-9.54323M300.86301,182.55454h17.73732v1.80548h-17.73732v-1.80548M305.28742,177.05875h8.80914v1.42851h-8.80914v-1.42851M308.42221,181.503h2.22213c-0.09259,0.85975 -0.24073,1.64015 -0.44443,2.34117c-0.20634,0.70102 -0.50394,1.34253 -0.89281,1.92452c-0.39152,0.58199 -0.91796,1.09784 -1.5793,1.54755c-0.66134,0.44971 -1.5039,0.83594 -2.52767,1.15868c-1.02641,0.32539 -2.27371,0.59389 -3.7419,0.80552c-0.03968,-0.17195 -0.11905,-0.37697 -0.23809,-0.61506c-0.11904,-0.23809 -0.2447,-0.46956 -0.37697,-0.69441c-0.13227,-0.22485 -0.26454,-0.41004 -0.39681,-0.55553c1.33592,-0.15873 2.4536,-0.35712 3.35303,-0.59521c0.89943,-0.23809 1.63352,-0.52246 2.20228,-0.85314c0.56876,-0.33068 1.01583,-0.71425 1.34121,-1.15074c0.32274,-0.43649 0.56082,-0.92986 0.71425,-1.4801c0.15078,-0.5476 0.27248,-1.15868 0.36507,-1.83326M311.18002,183.22911c0.56876,1.26979 1.50523,2.21816 2.8094,2.84512c1.30153,0.6296 3.01045,1.02376 5.12676,1.18249c-0.15873,0.1455 -0.32009,0.33993 -0.4841,0.5833c-0.16666,0.24602 -0.32274,0.49469 -0.46823,0.746c-0.14549,0.25131 -0.26454,0.48279 -0.35712,0.69442c-1.54755,-0.19841 -2.8729,-0.52247 -3.97602,-0.97218c-1.10577,-0.44971 -2.02901,-1.06477 -2.76972,-1.84516c-0.74071,-0.78039 -1.36237,-1.75919 -1.865,-2.93638l1.98404,-0.29761M308.79918,174.34061h1.80548v6.68622h-1.80548v-6.68622M312.2514,174.45965l1.56739,0.67457c-0.27776,0.35712 -0.54892,0.70368 -0.81346,1.03964c-0.26454,0.33861 -0.50924,0.63357 -0.73409,0.88488l-1.21027,-0.59521c0.1984,-0.27776 0.41665,-0.6124 0.65474,-1.00392c0.23809,-0.38887 0.41665,-0.72219 0.53569,-0.99996M305.70407,175.15407l1.34915,-0.61505c0.21163,0.291 0.43384,0.61505 0.66663,0.97218c0.23015,0.35712 0.41136,0.66135 0.54363,0.91266l-1.40867,0.67458c-0.11904,-0.25131 -0.291,-0.56215 -0.51585,-0.9325c-0.22485,-0.37035 -0.43649,-0.70764 -0.63489,-1.01186M310.74354,179.5388l1.0317,-0.99202c0.26454,0.17195 0.54892,0.35712 0.85314,0.55553c0.30422,0.19841 0.59521,0.39681 0.87298,0.59521c0.27776,0.19841 0.50924,0.37035 0.69441,0.51585l-1.05154,1.11106c-0.18518,-0.17195 -0.41268,-0.3611 -0.68251,-0.56744c-0.27247,-0.2037 -0.55685,-0.41532 -0.85314,-0.63489c-0.29893,-0.21692 -0.58727,-0.41136 -0.86504,-0.58331M308.62061,170.63046l2.36101,0.33728c-0.21163,0.46294 -0.41004,0.89547 -0.59521,1.29757c-0.18518,0.40474 -0.35712,0.75261 -0.51585,1.0436l-2.16261,-0.33729c0.17195,-0.33068 0.3439,-0.71822 0.51585,-1.16264c0.17195,-0.44178 0.30422,-0.83462 0.39681,-1.17852M308.38253,177.53492l1.34915,0.55553c-0.27776,0.42326 -0.62167,0.85579 -1.0317,1.29757c-0.41003,0.44442 -0.83594,0.85843 -1.27772,1.24201c-0.44443,0.38358 -0.87827,0.70764 -1.30153,0.97218c-0.13227,-0.19841 -0.31348,-0.42327 -0.54363,-0.67458c-0.2328,-0.25131 -0.44178,-0.44311 -0.62696,-0.57538c0.41003,-0.21163 0.83066,-0.46956 1.26185,-0.77378c0.42856,-0.30422 0.83462,-0.6349 1.2182,-0.99202c0.38358,-0.35712 0.70103,-0.70764 0.95234,-1.05154zM322.35017,171.74152h2.14276v5.83308c0,0.83329 -0.03307,1.75918 -0.0992,2.77766c-0.06613,1.01847 -0.18782,2.0634 -0.36506,3.13478c-0.17989,1.07138 -0.44178,2.10309 -0.78568,3.09511c-0.3439,0.99202 -0.80023,1.88484 -1.36899,2.67845c-0.11904,-0.1455 -0.28041,-0.32141 -0.4841,-0.52775c-0.20634,-0.2037 -0.41532,-0.4021 -0.62696,-0.59521c-0.21163,-0.19047 -0.3902,-0.33199 -0.5357,-0.42458c0.4894,-0.71426 0.87695,-1.50126 1.16265,-2.36101c0.28305,-0.85975 0.49072,-1.74331 0.62299,-2.65068c0.13227,-0.90473 0.22222,-1.79357 0.26983,-2.66655c0.04497,-0.87298 0.06745,-1.69305 0.06745,-2.46021v-5.83308M323.69932,171.74152h13.65019v6.19021h-13.65019v-1.94436h11.50743v-2.30149h-11.50743v-1.94436M324.81038,180.21337h9.48372v1.9642h-9.48372v-1.9642M333.34175,180.21337h2.08325v6.24973c0,0.30422 0.02645,0.49601 0.07936,0.57537c0.05291,0.07936 0.16534,0.11904 0.33729,0.11904c0.03968,0 0.12301,0 0.24999,0c0.12433,0 0.25263,0 0.38491,0c0.13227,0 0.22485,0 0.27776,0c0.13227,0 0.23147,-0.06614 0.29761,-0.19841c0.06613,-0.13227 0.11243,-0.40739 0.13888,-0.82536c0.02645,-0.41532 0.04629,-1.04625 0.05952,-1.89278c0.14549,0.11904 0.33067,0.23412 0.55553,0.34522c0.22485,0.11375 0.4603,0.21692 0.70632,0.30951c0.24338,0.09259 0.45104,0.16533 0.62299,0.21824c-0.05291,1.04493 -0.15476,1.85838 -0.30554,2.44037c-0.15343,0.58199 -0.37829,0.99202 -0.67457,1.23011c-0.29893,0.23809 -0.69309,0.35712 -1.18249,0.35712c-0.07936,0 -0.18518,0 -0.31745,0c-0.13227,0 -0.27776,0 -0.43649,0c-0.15873,0 -0.30422,0 -0.43649,0c-0.13227,0 -0.23809,0 -0.31745,0c-0.5423,0 -0.96821,-0.07936 -1.27772,-0.23808c-0.31216,-0.15873 -0.5304,-0.42988 -0.65473,-0.81346c-0.12698,-0.38358 -0.19047,-0.91927 -0.19047,-1.60708v-6.26956M328.46101,177.53492h2.22213c-0.05291,1.41528 -0.14814,2.72475 -0.2857,3.9284c-0.1402,1.20365 -0.39549,2.29091 -0.76584,3.26176c-0.37036,0.9735 -0.92853,1.83722 -1.67453,2.59116c-0.74865,0.75394 -1.75124,1.39544 -3.0078,1.92452c-0.07936,-0.18517 -0.19444,-0.38754 -0.34523,-0.60711c-0.15343,-0.21692 -0.31216,-0.4312 -0.47617,-0.64283c-0.16666,-0.21163 -0.32935,-0.38358 -0.48807,-0.51585c1.11106,-0.43649 1.98404,-0.96954 2.61894,-1.59914c0.63489,-0.62696 1.10445,-1.35047 1.40867,-2.17054c0.30422,-0.82007 0.50659,-1.74331 0.60712,-2.76972c0.09788,-1.02376 0.16004,-2.15731 0.1865,-3.40064zM355.97966,179.30071h2.10308c0,0 -0.00264,0.05291 -0.00793,0.15873c-0.00793,0.10582 -0.01191,0.22485 -0.01191,0.35712c0,0.13227 -0.00661,0.25131 -0.01984,0.35713c-0.09259,1.77241 -0.19179,3.21018 -0.29761,4.31331c-0.10582,1.10577 -0.23147,1.95626 -0.37697,2.55147c-0.14549,0.59521 -0.32406,1.01848 -0.53569,1.26979c-0.22485,0.26454 -0.46559,0.44971 -0.72219,0.55553c-0.25925,0.10582 -0.56082,0.17856 -0.90472,0.21824c-0.291,0.03968 -0.67061,0.05952 -1.13884,0.05952c-0.47088,0 -0.96425,-0.00661 -1.4801,-0.01984c-0.02645,-0.291 -0.09524,-0.62167 -0.20634,-0.99202c-0.11375,-0.37035 -0.24999,-0.68119 -0.40871,-0.9325c0.4894,0.03968 0.94573,0.06217 1.36899,0.06746c0.42326,0.00794 0.7341,0.01191 0.9325,0.01191c0.17195,0 0.31348,-0.01323 0.42458,-0.03968c0.11375,-0.02645 0.22353,-0.09259 0.32935,-0.19841c0.14549,-0.15873 0.27777,-0.50262 0.39681,-1.0317c0.11904,-0.52908 0.22221,-1.30947 0.30951,-2.34117c0.08465,-1.0317 0.16666,-2.37424 0.24602,-4.02761v-0.33728M346.1785,181.8006h1.9642v4.70218h-1.9642v-4.70218M351.1386,182.57438h1.94436v5.53547h-1.94436v-5.53547M341.39696,182.61406h1.94436v3.17446h8.61073v1.76579h-10.55509v-4.94026M353.75754,172.39625h1.98404c0,0 0,0.09259 0,0.27776c0,0.18517 -0.00661,0.33729 -0.01984,0.45633c-0.06613,0.99202 -0.13492,1.8187 -0.20634,2.48005c-0.07407,0.66135 -0.16005,1.18381 -0.25793,1.56739c-0.10053,0.38358 -0.23677,0.66135 -0.40872,0.8333c-0.15873,0.19841 -0.33331,0.33993 -0.52378,0.42458c-0.19311,0.0873 -0.41533,0.14417 -0.66664,0.17063c-0.21163,0.03968 -0.48542,0.06217 -0.82139,0.06746c-0.33861,0.00794 -0.69971,0.00529 -1.08329,-0.00794c-0.02645,-0.291 -0.08597,-0.61241 -0.17856,-0.96425c-0.09259,-0.34919 -0.21164,-0.64945 -0.35713,-0.90076c0.30422,0.02645 0.58199,0.04629 0.8333,0.05952c0.25131,0.01323 0.4431,0.01984 0.57537,0.01984c0.11904,0 0.22486,-0.01323 0.31745,-0.03968c0.09259,-0.02645 0.17195,-0.07936 0.23809,-0.15873c0.13227,-0.1455 0.2447,-0.51585 0.33729,-1.11106c0.09259,-0.59521 0.17195,-1.56739 0.23809,-2.91654v-0.25793M347.92446,170.6503l2.53957,0.21824c-0.21163,0.4894 -0.44971,0.9616 -0.71425,1.41661c-0.26454,0.45765 -0.50263,0.85181 -0.71426,1.18249l-1.88483,-0.33729c0.14549,-0.37035 0.29496,-0.787 0.44839,-1.24994c0.15078,-0.46294 0.25925,-0.87298 0.32539,-1.23011M345.74201,176.16593l1.05154,-1.34914c0.46294,0.15873 0.95895,0.35052 1.48803,0.57537c0.52908,0.22485 1.03567,0.45633 1.51977,0.69442c0.48146,0.23809 0.88091,0.46294 1.19836,0.67458l-1.11106,1.48803c-0.291,-0.21163 -0.67458,-0.44311 -1.15075,-0.69441c-0.47617,-0.25131 -0.97483,-0.49998 -1.49597,-0.746c-0.52378,-0.24337 -1.02376,-0.45766 -1.49993,-0.64283M354.37259,172.39625v1.90468h-9.44403v4.99978h11.68599v1.865h-13.76924v-8.76946z" fill="#ffffff" stroke-width="1"/><path d="M240,196v-32h208v32z" fill="none" stroke-width="0"/></g></g></svg>