<svg version="1.1" xmlns="http://www.w3.org/2000/svg" xmlns:xlink="http://www.w3.org/1999/xlink" width="180" height="40" viewBox="0,0,180,40"><g transform="translate(-150,-160)"><g stroke-linecap="round" stroke-miterlimit="10"><path d="M150,160h180v40h-180z" fill="none" fill-rule="nonzero" stroke="none" stroke-width="0.2" stroke-linejoin="round"/><path d="M176.77382,183.21315h-1.3468v2.52935l2.51293,-0.62413l0.03285,0.93619l-3.87615,1.05116l-0.36134,-0.87049c0.24089,-0.09855 0.39418,-0.18067 0.45988,-0.24637c0.0657,-0.0657 0.09855,-0.15329 0.09855,-0.26279v-2.51293h-1.52747c-0.0876,0.74457 -0.25731,1.42071 -0.50916,2.02841c-0.25184,0.6077 -0.6077,1.21814 -1.06758,1.83132l-1.03474,-0.72267c0.60223,-0.77742 1.01284,-1.52199 1.23183,-2.23371c0.21899,-0.71172 0.32849,-1.65886 0.32849,-2.84142v-2.36511h12.4004v0.82122h-11.2507v1.80668c0,0.37229 -0.00548,0.64603 -0.01642,0.82122h11.59561v0.85407h-6.40551c0.61318,0.64603 1.30847,1.15518 2.0859,1.52747c1.40155,-0.63508 2.38153,-1.10591 2.93996,-1.4125l0.49273,0.85407c-0.40513,0.19709 -1.14423,0.53653 -2.21729,1.01831c0.97451,0.27374 2.15707,0.47631 3.54766,0.6077l-0.47631,1.01831c-1.303,-0.16424 -2.41438,-0.39418 -3.33415,-0.68982c-0.91976,-0.29564 -1.72182,-0.67614 -2.40617,-1.14149c-0.68435,-0.46536 -1.31669,-1.05937 -1.89702,-1.78204zM230.74431,178.20372h3.18633v1.26468h-3.18633v7.55521h-1.33037v-7.55521h-4.74664c-0.03285,1.27015 -0.16151,2.32679 -0.38597,3.1699c-0.22447,0.84312 -0.59949,1.61233 -1.12507,2.30762c-0.52558,0.6953 -1.27563,1.44261 -2.25014,2.24193l-1.01831,-1.00189c0.98546,-0.75552 1.71361,-1.42892 2.18444,-2.0202c0.47083,-0.59128 0.79658,-1.23457 0.97725,-1.92986c0.18067,-0.6953 0.28195,-1.6178 0.30385,-2.76751h-3.59694v-1.26468h3.59694v-3.61336c-1.00736,0.17519 -2.02567,0.33396 -3.05493,0.47631l-0.24637,-1.2154c1.18255,-0.14234 2.51019,-0.34491 3.98291,-0.6077c1.47272,-0.26279 2.71823,-0.5201 3.73654,-0.77195l0.27921,1.19898c-0.68982,0.17519 -1.81216,0.40513 -3.367,0.68982v3.8433h4.73022v-6.09344h1.33037zM216.80001,178.08875h-6.19199v6.76684h6.94751v1.31395h-14.32205v-1.31395h5.9949v-12.84386h1.37965v4.79592h6.19199zM177.00376,178.40081v-3.07136h-4.86161v2.11874h-1.16613v-2.93996h6.02774v-0.88692h-5.45289v-0.91976h12.13761v0.91976h-5.53501v0.88692h6.09344v2.93996h-1.14971v-2.11874h-4.94374v3.07136zM191.85139,177.57959h-2.59505v1.39607c0,1.35775 -0.05201,2.48829 -0.15603,3.39163c-0.10402,0.90334 -0.26553,1.69992 -0.48452,2.38975c-0.21899,0.68982 -0.52558,1.45082 -0.91976,2.28299l-1.08401,-0.64055c0.39418,-0.84312 0.68982,-1.58769 0.88692,-2.23371c0.19709,-0.64603 0.33944,-1.3906 0.42703,-2.23371c0.0876,-0.84312 0.13139,-1.94903 0.13139,-3.31772v-4.96016h6.10987c-0.09855,-0.41608 -0.20804,-0.80479 -0.32849,-1.16613c-0.0219,-0.07665 -0.0438,-0.15056 -0.0657,-0.22173c-0.0219,-0.07117 -0.03832,-0.13413 -0.04927,-0.18888l1.37965,-0.16424c0.19709,0.65697 0.36681,1.2373 0.50916,1.74098h5.40362v1.10043h-2.71002v1.79026h2.66075v1.03474h-2.66075v2.44723h-6.45478zM259.8483,174.95169v1.85595h5.27222v5.30507h-10.93863v-5.30507h4.35246v-4.73022h1.31395v1.64244h6.50405v1.23183zM246.49528,174.80388h3.94185v1.19898h-3.94185v3.28487h3.1699v7.70303h-1.2154v-1.01831h-4.5167v1.01831h-1.18255v-7.70303h2.51293v-7.2103h1.23183zM201.16401,185.70966l-0.39418,1.23183c-1.29205,-0.20804 -2.40891,-0.43525 -3.35057,-0.68161c-0.94166,-0.24637 -1.79573,-0.54474 -2.5622,-0.89513c-1.44534,0.63508 -3.2794,1.1935 -5.50216,1.67529l-0.49273,-1.14971c1.89428,-0.32849 3.47102,-0.72267 4.73022,-1.18255c-1.02926,-0.63508 -2.07495,-1.50009 -3.13706,-2.59505v-1.01831h8.90201v1.03474c-0.84312,1.02926 -1.88333,1.88333 -3.12063,2.5622c1.20445,0.41608 2.84689,0.75552 4.92731,1.01831zM240.25402,183.72231l1.9545,-0.36134l0.09855,1.18255l-6.17556,1.16613l-0.16424,-1.18255l3.12063,-0.57485c0.24089,-0.95261 0.50916,-2.10232 0.80479,-3.44912c0.29564,-1.3468 0.542,-2.4965 0.7391,-3.44912l1.11686,0.26279c-0.31754,1.55484 -0.81574,3.69001 -1.49462,6.40551zM255.41371,178.03948v2.87427h8.47498v-2.87427zM173.55464,180.65095h9.80535v0.80479h-9.80535zM243.93308,180.50313v4.28676h4.5167v-4.28676zM242.42204,175.23091v1.18255h-6.37266v-1.18255zM236.54211,177.46462l1.08401,-0.31206c0.03285,0.16424 0.13687,0.59128 0.31206,1.2811c0.50368,2.10232 0.81574,3.48197 0.93619,4.13894l-1.10043,0.24637c-0.16424,-0.96356 -0.57485,-2.74835 -1.23183,-5.35435zM197.78059,182.11272h-5.63356c0.85407,0.87597 1.77383,1.55484 2.75929,2.03662c1.14971,-0.54748 2.10779,-1.22635 2.87427,-2.03662zM193.01752,174.7546v1.79026h4.08967v-1.79026zM253.50849,187.12215l-1.10043,-0.64055c0.37229,-0.54748 0.73636,-1.17708 1.09222,-1.8888c0.35586,-0.71172 0.62686,-1.3468 0.81301,-1.90523l1.11686,0.45988c-0.21899,0.59128 -0.50916,1.25373 -0.87049,1.98735c-0.36134,0.73362 -0.71172,1.39607 -1.05116,1.98735zM193.01752,177.57959v1.4125h4.08967v-1.4125zM263.67517,183.18031l1.06758,-0.50916c0.65697,1.10591 1.33037,2.31584 2.0202,3.62979l-1.06758,0.64055c-0.35039,-0.72267 -1.02379,-1.9764 -2.0202,-3.76118zM260.2589,183.27885l1.10043,-0.34491c0.20804,0.48178 0.43525,1.05937 0.68161,1.73277c0.24637,0.6734 0.43525,1.23457 0.56664,1.6835l-1.14971,0.32849c-0.22994,-0.83217 -0.6296,-1.96545 -1.19898,-3.39985zM256.74409,183.32812l1.14971,-0.24637c0.25184,0.98546 0.50916,2.15159 0.77195,3.49839l-1.2154,0.26279c-0.1095,-0.74457 -0.31754,-1.79573 -0.62413,-3.15348zM189.25634,176.54486h2.59505v-1.79026h-2.59505zM238.06958,172.29095l1.19898,-0.27921l0.87049,2.52935l-1.24825,0.27921zM173.06191,176.82407v-0.7391h3.08778v0.7391zM179.07323,176.82407v-0.7391h3.07136v0.7391zM176.14969,177.4482v0.72267h-3.08778v-0.72267zM179.08966,178.17087v-0.72267h3.07136v0.72267z" fill="#ffffff" fill-rule="evenodd" stroke="#ffffff" stroke-width="0.45" stroke-linejoin="miter"/></g></g></svg>