<svg version="1.1" xmlns="http://www.w3.org/2000/svg" xmlns:xlink="http://www.w3.org/1999/xlink" width="208" height="32" viewBox="0,0,208,32"><g transform="translate(-240,-164)"><g stroke="none" stroke-miterlimit="10"><path d="M244.52663,170.84128h2.07575v5.86799h-2.07575v-5.86799M244.52663,181.85873h2.07575v7.60443h-2.07575v-7.60443M243.4688,180.30192v1.27739h4.31118v-1.27739h-4.31118M243.4688,177.58747v1.23747h4.31118v-1.23747h-4.31118M241.57268,176.0107h8.18325v7.14537h-8.18325v-7.14537M241.01382,172.89707h9.18121v1.89612h-9.18121v-1.89612M252.23086,176.5496h5.38897v1.91608h-5.38897v-1.91608M252.23086,171.77936h5.38897v1.93604h-5.38897v-1.93604M252.19094,181.18012h5.42889v1.93604h-5.42889v-1.93604M240.85415,184.37358h9.32092v1.89612h-9.32092v-1.89612M256.56199,171.77936h2.09571v15.24879c0,0.54555 -0.06254,0.98066 -0.18762,1.30533c-0.12774,0.32733 -0.35793,0.57748 -0.69059,0.75046c-0.34596,0.18628 -0.76776,0.29939 -1.26541,0.33931c-0.50031,0.03992 -1.12969,0.05988 -1.88814,0.05988c-0.01331,-0.18628 -0.05589,-0.40983 -0.12774,-0.67063c-0.07451,-0.25814 -0.15435,-0.51761 -0.23951,-0.77841c-0.08782,-0.25814 -0.1783,-0.48035 -0.27144,-0.66664c0.45241,0.02661 0.8955,0.03992 1.32928,0.03992c0.43112,0 0.71321,-0.00665 0.84627,-0.01996c0.14637,0 0.25015,-0.0306 0.31136,-0.09181c0.05855,-0.05855 0.08782,-0.161 0.08782,-0.30737v-15.20887M251.19298,171.77936h2.05579v7.02562c0,0.82498 -0.03726,1.71249 -0.11177,2.66255c-0.07185,0.95272 -0.21024,1.91475 -0.41515,2.88609c-0.20758,0.97135 -0.51095,1.89878 -0.91014,2.7823c-0.39918,0.88619 -0.93143,1.68189 -1.59673,2.38711c-0.10645,-0.11975 -0.26878,-0.25681 -0.487,-0.41116c-0.22088,-0.15169 -0.44043,-0.29806 -0.65865,-0.4391c-0.22088,-0.13838 -0.41116,-0.24084 -0.57083,-0.30737c0.62539,-0.6653 1.11505,-1.39448 1.46899,-2.18752c0.35128,-0.79038 0.6174,-1.60871 0.79837,-2.45497c0.1783,-0.84361 0.29406,-1.68455 0.34729,-2.52284c0.05323,-0.83828 0.07984,-1.63665 0.07984,-2.3951zM264.12651,172.49789h3.51281v1.63665h-3.51281v-1.63665M264.72528,177.06853h1.4171v7.02562h-1.4171v-7.02562M267.24014,172.49789h0.4391l0.35926,-0.0998l1.11771,0.83828c-0.31935,0.63869 -0.69458,1.31331 -1.1257,2.02386c-0.43378,0.71321 -0.85026,1.32928 -1.24944,1.84822c-0.10645,-0.15967 -0.26346,-0.33931 -0.47104,-0.5389c-0.20491,-0.19959 -0.3739,-0.35261 -0.50696,-0.45906c0.18628,-0.30604 0.36991,-0.652 0.55087,-1.03788c0.1783,-0.38588 0.34729,-0.77841 0.50696,-1.17759c0.15967,-0.39918 0.28608,-0.7518 0.37922,-1.05783v-0.33931M263.3481,181.24v2.17555h4.23134v-2.17555h-4.23134M263.3481,177.60743v2.11567h4.23134v-2.11567h-4.23134M261.73141,175.97078h7.5246v9.06145h-7.5246v-9.06145M263.54769,170.82132l1.8562,0.25947c-0.19959,0.74514 -0.45241,1.5129 -0.75845,2.30329c-0.30604,0.79304 -0.67196,1.57145 -1.09775,2.33522c-0.42579,0.76643 -0.93143,1.48895 -1.51689,2.16756c-0.14637,-0.18628 -0.35926,-0.40317 -0.63869,-0.65067c-0.27943,-0.24483 -0.53224,-0.42713 -0.75845,-0.54688c0.51894,-0.58547 0.96469,-1.21485 1.33726,-1.88814c0.37257,-0.67063 0.69192,-1.34924 0.95804,-2.03583c0.26612,-0.68393 0.47237,-1.33194 0.61873,-1.94402M261.01288,186.86847c0.71853,-0.05323 1.54351,-0.12375 2.47493,-0.21157c0.93143,-0.08516 1.92007,-0.1783 2.96593,-0.27943c1.0432,-0.09846 2.09039,-0.20092 3.14157,-0.30737l0.03992,1.77636c-1.47698,0.17298 -2.95129,0.34596 -4.42295,0.51894c-1.46899,0.17298 -2.77565,0.326 -3.91998,0.45906l-0.27943,-1.956M273.64702,176.13045h2.01587v13.4325h-2.01587v-13.4325M270.05438,174.63352h9.08141v1.8562h-9.08141v-1.8562M270.67311,171.81928l1.47698,-0.55886c0.26612,0.41249 0.52293,0.8649 0.77042,1.35722c0.24483,0.49233 0.42713,0.92477 0.54688,1.29734l-1.57677,0.65865c-0.09314,-0.37257 -0.25548,-0.81832 -0.487,-1.33726c-0.23419,-0.51894 -0.47769,-0.9913 -0.7305,-1.4171M276.52114,171.20055l1.91608,0.45906c-0.2129,0.45241 -0.4391,0.91413 -0.67861,1.38516c-0.23951,0.4737 -0.47503,0.92344 -0.70655,1.34924c-0.23419,0.42579 -0.45773,0.80502 -0.67063,1.13767l-1.61669,-0.45906c0.2129,-0.33265 0.42979,-0.72518 0.65067,-1.17759c0.21822,-0.45241 0.42713,-0.91546 0.62672,-1.38916c0.19959,-0.47104 0.35926,-0.90615 0.47902,-1.30533M270.39368,178.92473h8.38284v1.81628h-8.38284v-1.81628M269.71507,183.05628h9.7201v1.91608h-9.7201zM282.74839,172.07875l1.956,-0.77841c0.30604,0.45241 0.60942,0.94074 0.91014,1.465c0.29806,0.52692 0.56684,1.03921 0.80635,1.53685c0.23951,0.50031 0.41914,0.95671 0.5389,1.3692l-2.11567,0.85824c-0.10645,-0.39918 -0.27011,-0.85558 -0.49099,-1.3692c-0.21822,-0.51095 -0.46704,-1.03654 -0.74647,-1.57677c-0.27943,-0.53757 -0.56551,-1.03921 -0.85824,-1.50492M295.2029,171.22051l2.31526,0.73849c-0.26612,0.51894 -0.54555,1.05384 -0.83828,1.60472c-0.29273,0.55353 -0.58547,1.07247 -0.8782,1.55681c-0.29273,0.487 -0.56551,0.92344 -0.81832,1.30932l-1.93604,-0.69857c0.25282,-0.39918 0.51229,-0.86224 0.77841,-1.38916c0.26612,-0.52426 0.52293,-1.05917 0.77042,-1.60472c0.24483,-0.54555 0.44708,-1.05118 0.60676,-1.51689M282.28933,177.16833h15.72781v2.11567h-15.72781v-2.11567M281.05186,181.91861h18.04307v2.15559h-18.04307v-2.15559M288.85589,170.84128h2.27534v18.62188h-2.27534zM316.5991,179.50355h2.11567c0,0 -0.00266,0.05323 -0.00798,0.15967c-0.00798,0.10645 -0.01198,0.2262 -0.01198,0.35926c0,0.13306 -0.00665,0.25282 -0.01996,0.35926c-0.09314,1.78302 -0.19294,3.22939 -0.29939,4.33912c-0.10645,1.11239 -0.23286,1.96797 -0.37922,2.56675c-0.14637,0.59877 -0.326,1.02457 -0.5389,1.27739c-0.2262,0.26612 -0.4697,0.45241 -0.7305,0.55886c-0.25814,0.10645 -0.56019,0.17963 -0.90615,0.21955c-0.29273,0.03992 -0.67462,0.05988 -1.14565,0.05988c-0.4737,0 -0.97001,-0.00665 -1.48895,-0.01996c-0.02661,-0.29273 -0.0958,-0.62539 -0.20758,-0.99796c-0.11443,-0.37257 -0.25149,-0.68526 -0.41116,-0.93808c0.49233,0.03992 0.95139,0.06254 1.37718,0.06786c0.42579,0.00798 0.73849,0.01198 0.93808,0.01198c0.17298,0 0.31669,-0.01331 0.43112,-0.03992c0.11177,-0.02661 0.22088,-0.09314 0.32733,-0.19959c0.14637,-0.15967 0.27943,-0.50563 0.39918,-1.03788c0.11975,-0.53224 0.22354,-1.3173 0.31136,-2.35518c0.08516,-1.03788 0.16766,-2.38844 0.24749,-4.05171v-0.33931M306.73928,182.0184h1.97596v4.73032h-1.97596v-4.73032M311.72907,182.79681h1.956v5.5686h-1.956v-5.5686M301.92913,182.83673h1.956v3.19346h8.66227v1.77636h-10.61826v-4.96983M314.36368,172.55777h1.99591c0,0 0,0.09314 0,0.27943c0,0.18628 -0.00665,0.33931 -0.01996,0.45906c-0.06653,0.99796 -0.13705,1.82959 -0.21157,2.49489c-0.07185,0.6653 -0.15701,1.1909 -0.25548,1.57677c-0.10113,0.38588 -0.23818,0.6653 -0.41116,0.83828c-0.15967,0.19959 -0.33664,0.34197 -0.53091,0.42713c-0.19161,0.08782 -0.41382,0.14504 -0.66664,0.17165c-0.2129,0.03992 -0.48966,0.06254 -0.8303,0.06786c-0.33797,0.00798 -0.6999,0.00532 -1.08578,-0.00798c-0.02661,-0.29273 -0.08649,-0.61607 -0.17963,-0.97001c-0.09314,-0.35128 -0.2129,-0.65333 -0.35926,-0.90615c0.30604,0.02661 0.58547,0.04657 0.83828,0.05988c0.25282,0.01331 0.44575,0.01996 0.57882,0.01996c0.11975,0 0.2262,-0.01331 0.31935,-0.03992c0.09314,-0.02661 0.17298,-0.07984 0.23951,-0.15967c0.13306,-0.14637 0.24616,-0.51894 0.33931,-1.11771c0.09314,-0.59877 0.17298,-1.57677 0.23951,-2.93399v-0.25947M308.49569,170.80136l2.55477,0.21955c-0.2129,0.49233 -0.45241,0.96735 -0.71853,1.42508c-0.26612,0.46039 -0.50563,0.85691 -0.71853,1.18957l-1.89612,-0.33931c0.14637,-0.37257 0.29673,-0.79171 0.45108,-1.25743c0.15169,-0.46571 0.2608,-0.8782 0.32733,-1.23747M306.30018,176.35001l1.05783,-1.35722c0.46571,0.15967 0.96469,0.35261 1.49694,0.57882c0.53224,0.2262 1.04187,0.45906 1.52887,0.69857c0.48434,0.23951 0.88619,0.46571 1.20553,0.67861l-1.11771,1.49694c-0.29273,-0.2129 -0.67861,-0.44575 -1.15763,-0.69857c-0.47902,-0.25282 -0.98199,-0.50297 -1.50891,-0.75046c-0.52426,-0.24483 -1.0259,-0.46039 -1.50492,-0.64668M314.98241,172.55777v1.91608h-9.50055v5.0297h11.75594v1.87616h-13.85165v-8.82194zM321.12983,172.61765h17.6838v1.99591h-17.6838v-1.99591M325.441,181.0404h9.08141v1.67657h-9.08141v-1.67657M325.02186,184.23387h9.91969v1.73645h-9.91969v-1.73645M328.89393,181.85873h2.03583v7.12541h-2.03583v-7.12541M321.96811,176.29013h14.45042v1.97596h-12.29483v11.19708h-2.15559v-13.17304M335.7998,176.29013h2.19551v10.95757c0,0.54555 -0.07584,0.9607 -0.22753,1.24545c-0.15435,0.28741 -0.42447,0.5043 -0.81034,0.65067c-0.38588,0.14637 -0.87155,0.23552 -1.45702,0.26745c-0.58547,0.0346 -1.27739,0.05189 -2.07575,0.05189c-0.05323,-0.26612 -0.14903,-0.57615 -0.28741,-0.9301c-0.14105,-0.35128 -0.28475,-0.65333 -0.43112,-0.90615c0.35926,0.01331 0.71853,0.02661 1.07779,0.03992c0.35926,0.01331 0.68127,0.01597 0.96602,0.00798c0.28741,-0.00532 0.47769,-0.00798 0.57083,-0.00798c0.18628,-0.01331 0.31269,-0.05056 0.37922,-0.11177c0.06653,-0.05855 0.0998,-0.161 0.0998,-0.30737v-10.95757M326.27929,178.82494l1.69653,-0.49898c0.23951,0.33265 0.46838,0.70522 0.68659,1.11771c0.22088,0.41249 0.38455,0.77841 0.49099,1.09775l-1.79632,0.59877c-0.07984,-0.31935 -0.2262,-0.69857 -0.4391,-1.13767c-0.2129,-0.4391 -0.42579,-0.83163 -0.63869,-1.17759M332.02752,178.34592l1.81628,0.51894c-0.26612,0.47902 -0.53224,0.95139 -0.79837,1.4171c-0.26612,0.46571 -0.52559,0.87155 -0.77841,1.21751l-1.51689,-0.45906c0.15967,-0.25282 0.31669,-0.5389 0.47104,-0.85824c0.15169,-0.31935 0.30072,-0.63869 0.44708,-0.95804c0.14637,-0.31935 0.26612,-0.61208 0.35926,-0.8782M328.8141,170.96104h2.35518v6.70627h-2.35518zM352.20621,171.83924h5.20934v1.93604h-3.31322v15.64797h-1.89612v-17.58401M356.97645,171.83924h0.39918l0.31935,-0.07984l1.47698,0.91812c-0.33265,0.95804 -0.70522,1.97196 -1.11771,3.04177c-0.41249,1.07247 -0.81167,2.04781 -1.19755,2.92601c0.82498,0.91812 1.36121,1.77237 1.60871,2.56275c0.24483,0.79304 0.36725,1.52222 0.36725,2.18752c0,0.67861 -0.07584,1.25743 -0.22753,1.73645c-0.15435,0.47902 -0.41116,0.84494 -0.77042,1.09775c-0.17298,0.11975 -0.37257,0.21556 -0.59877,0.28741c-0.2262,0.07451 -0.46571,0.13173 -0.71853,0.17165c-0.2262,0.02661 -0.47902,0.04258 -0.75845,0.0479c-0.27943,0.00798 -0.55886,0.00532 -0.83828,-0.00798c-0.01331,-0.27943 -0.05988,-0.61208 -0.13971,-0.99796c-0.07984,-0.38588 -0.20624,-0.71853 -0.37922,-0.99796c0.25282,0.02661 0.48301,0.04258 0.69059,0.0479c0.20491,0.00798 0.39386,0.00532 0.56684,-0.00798c0.13306,0 0.26612,-0.0173 0.39918,-0.05189c0.13306,-0.03193 0.24616,-0.08117 0.33931,-0.1477c0.17298,-0.10645 0.29673,-0.28342 0.37124,-0.53091c0.07185,-0.24483 0.10778,-0.54023 0.10778,-0.88619c0,-0.57216 -0.13971,-1.21751 -0.41914,-1.93604c-0.27943,-0.71853 -0.81832,-1.49028 -1.61669,-2.31526c0.19959,-0.50563 0.40184,-1.04852 0.60676,-1.62867c0.20758,-0.57748 0.40717,-1.16295 0.59877,-1.7564c0.19427,-0.59079 0.37124,-1.14565 0.53091,-1.66459c0.15967,-0.51894 0.29273,-0.95804 0.39918,-1.3173v-0.69857M341.3684,173.11662h9.60035v1.91608h-9.60035v-1.91608M340.84946,178.48563h10.55839v1.93604h-10.55839v-1.93604M342.44619,175.4718l1.83624,-0.45906c0.27943,0.47902 0.52958,1.00727 0.75046,1.58476c0.21822,0.58015 0.3739,1.08312 0.46704,1.50891l-1.91608,0.5389c-0.07984,-0.4391 -0.2262,-0.95538 -0.4391,-1.54883c-0.2129,-0.59079 -0.44575,-1.13235 -0.69857,-1.62467M348.09463,174.95287l2.11567,0.45906c-0.18628,0.45241 -0.37922,0.91147 -0.57882,1.37718c-0.19959,0.46571 -0.39253,0.91147 -0.57882,1.33726c-0.18628,0.42579 -0.37257,0.80502 -0.55886,1.13767l-1.79632,-0.4391c0.17298,-0.35926 0.34995,-0.7651 0.53091,-1.21751c0.1783,-0.45241 0.34463,-0.91147 0.49898,-1.37718c0.15169,-0.46571 0.2741,-0.89151 0.36725,-1.27739M342.94517,186.64892h6.5466v1.87616h-6.5466v-1.87616M341.82746,181.97848h8.76206v7.34497h-2.11567v-5.42889h-4.63052v5.54864h-2.01587v-7.46472M344.56186,171.26042l1.93604,-0.5389c0.2129,0.42579 0.42313,0.89151 0.63071,1.39714c0.20491,0.50563 0.35394,0.93808 0.44708,1.29734l-2.05579,0.63869c-0.07984,-0.35926 -0.20891,-0.80236 -0.38721,-1.32928c-0.18096,-0.52426 -0.37124,-1.01259 -0.57083,-1.465z" fill="#ffffff" stroke-width="1"/><path d="M240,196v-32h208v32z" fill="none" stroke-width="0"/></g></g></svg>