<svg version="1.1" xmlns="http://www.w3.org/2000/svg" xmlns:xlink="http://www.w3.org/1999/xlink" width="224" height="140" viewBox="0,0,224,140"><g transform="translate(-128,-110)"><g stroke-miterlimit="10"><path d="M342,140l10,0.94444v101.06h-224v-101.06l10,-0.94444z" fill="#1d2a41" fill-rule="evenodd" stroke="none" stroke-width="1" stroke-linecap="butt"/><path d="M138,110h204c5.54,0 10,4.46 10,10v22h-224v-22c0,-5.54 4.46,-10 10,-10z" fill="#458eb2" fill-rule="evenodd" stroke="none" stroke-width="1" stroke-linecap="butt"/><path d="M128,250v-140h224v140z" fill-opacity="0" fill="#000000" fill-rule="nonzero" stroke="none" stroke-width="1" stroke-linecap="butt"/><path d="M222.83692,127.30611v1.13482h-1.71892l-0.10013,2.58672h1.50197v1.15151h-1.53534l-0.01669,0.30039c-0.03338,0.51178 -0.12516,0.90674 -0.27536,1.18488c-0.1502,0.27814 -0.38384,0.47562 -0.70092,0.59244c-0.31708,0.11682 -0.75933,0.17523 -1.32674,0.17523h-2.48659l-0.25033,-1.1682h2.33639c0.55628,0 0.9429,-0.0751 1.15985,-0.22529c0.21695,-0.1502 0.33655,-0.42556 0.3588,-0.82608v-0.03338h-7.49314l0.41721,-3.73823h-1.3017v-1.13482h1.41852l0.36715,-3.32101c-0.33377,0.42278 -0.58966,0.73429 -0.76767,0.93456l-0.85111,-0.90118c0.61191,-0.67867 1.19323,-1.4519 1.74395,-2.3197c0.55072,-0.8678 0.99853,-1.70779 1.34343,-2.51997l1.11813,0.38384c-0.18914,0.4339 -0.40609,0.88449 -0.65085,1.35177h7.30957v1.13482h-7.94373c-0.35602,0.58966 -0.67867,1.07919 -0.96793,1.46859h7.76016l-0.13351,3.78829zM213.5748,131.02765h6.25819l0.03338,-0.61748c0.0445,-0.75655 0.07232,-1.41296 0.08344,-1.96924h-6.07462zM220.1167,124.65264h-5.8076l-0.30039,2.65347h5.99118c0.07788,-1.52422 0.11682,-2.40871 0.11682,-2.65347zM209.5028,134.5823l-1.20157,-0.36715l1.61879,-5.74085l1.13482,0.35046c-0.08901,0.31152 -0.56741,2.07494 -1.43521,5.29026zM211.48873,125.83752l-0.71761,1.05138c-1.35733,-1.17932 -2.25851,-1.93587 -2.70354,-2.26964l0.71761,-0.96793zM211.95601,121.84896l-0.68423,0.98462c-0.81217,-0.66754 -1.70779,-1.37402 -2.68685,-2.11944l0.71761,-0.95125c0.62304,0.46728 1.50753,1.16263 2.65347,2.08606zM218.26427,130.12647l-0.70092,0.8678c-0.24476,-0.22251 -0.58132,-0.50066 -1.00966,-0.83443c-0.42834,-0.33377 -0.80939,-0.62304 -1.14316,-0.8678l0.63416,-0.83443c0.76767,0.55628 1.50753,1.11257 2.21957,1.66885zM215.71093,125.53713l0.63416,-0.85111c0.97906,0.71204 1.6911,1.2572 2.13613,1.63547l-0.66754,0.90118c-0.60079,-0.51178 -1.3017,-1.07363 -2.10275,-1.68554z" fill="#ffffff" fill-rule="evenodd" stroke="#ffffff" stroke-width="0.5" stroke-linecap="round"/><path d="M234.83597,120.94779h3.60472v2.38646h0.96793v1.06806h-0.96793v2.38646h-3.60472v7.57659h-1.18488v-7.57659h-3.62141v-1.03469h3.62141v-1.35177h-4.17213v-1.06806h4.17213v-1.36846h-3.40446v-1.018h3.40446v-1.53534h1.18488zM225.32351,121.03123h3.75492v10.41363h-2.6201v1.51865h-1.13482zM226.45833,130.25998h1.48528v-8.06055h-1.48528zM230.17987,128.22398v-0.83443h1.10144v0.93456c0,1.02356 -0.05841,1.89415 -0.17523,2.61175c-0.11682,0.71761 -0.32821,1.38237 -0.63416,1.99428c-0.30596,0.61191 -0.74264,1.22939 -1.31005,1.85243l-0.83443,-0.81774c0.50066,-0.54516 0.88171,-1.06528 1.14316,-1.56038c0.26145,-0.49509 0.44503,-1.0625 0.55072,-1.70223c0.10569,-0.63973 0.15854,-1.46581 0.15854,-2.47824zM238.54082,127.40624v7.17606h-1.13482v-7.17606zM232.26594,132.94683l-0.96793,-0.23364c0.22251,-0.65642 0.41443,-1.39905 0.57575,-2.22792c0.16132,-0.82886 0.28092,-1.64938 0.3588,-2.46156l0.90118,0.08344c-0.07788,0.85668 -0.19192,1.71335 -0.34211,2.57003c-0.1502,0.85668 -0.32543,1.61322 -0.52569,2.26964zM237.22242,132.52961l-0.95125,0.26702l-1.03469,-4.68947l0.93456,-0.23364zM237.37262,123.33424v-1.36846h-2.53665v1.36846zM234.83597,124.40231v1.35177h2.53665v-1.35177z" fill="#ffffff" fill-rule="evenodd" stroke="#ffffff" stroke-width="0.5" stroke-linecap="round"/><path d="M250.50648,125.73739h5.24019v1.25164l-1.63547,3.75492l-1.31839,-0.50066l1.51865,-3.25426h-4.73954v5.40708c0,0.53403 -0.06675,0.94568 -0.20026,1.23495c-0.13351,0.28927 -0.3588,0.49509 -0.67588,0.61748c-0.31708,0.12238 -0.76489,0.18357 -1.34343,0.18357h-2.38646l-0.25033,-1.28502h2.16951c0.37827,0 0.66198,-0.0306 0.85111,-0.09179c0.18914,-0.06119 0.31986,-0.17801 0.39218,-0.35046c0.07232,-0.17245 0.10848,-0.44225 0.10848,-0.80939v-4.90642h-6.60865v-1.25164h6.95911c-1.88024,-1.42409 -3.10406,-2.33083 -3.67147,-2.72023l0.71761,-0.96793c0.73429,0.52291 1.71892,1.25164 2.95387,2.1862l3.88842,-2.78698h-9.57921v-1.23495h11.6319v1.23495l-4.90642,3.58803z" fill="#ffffff" fill-rule="evenodd" stroke="#ffffff" stroke-width="0.5" stroke-linecap="round"/><path d="M272.81903,133.43079l-0.65085,1.10144c-1.33508,-0.76767 -2.41983,-1.57985 -3.25426,-2.43652c-0.84555,0.8233 -1.85243,1.6021 -3.02062,2.33639l-0.70092,-1.00131v1.28502h-1.20157v-14.43557h7.79354c0,0.32264 -0.01113,0.76211 -0.03338,1.31839c-0.02225,0.55628 -0.03894,1.01244 -0.05007,1.36846c-0.03338,0.44503 -0.11404,0.78158 -0.24198,1.00966c-0.12795,0.22808 -0.33377,0.38662 -0.61748,0.47562c-0.2837,0.08901 -0.69814,0.13351 -1.24329,0.13351h-2.60341l-0.20026,-1.13482h2.3197c0.52291,0 0.87615,-0.05285 1.05972,-0.15854c0.18357,-0.10569 0.29205,-0.31986 0.32543,-0.64251c0.0445,-0.57853 0.06675,-0.9735 0.06675,-1.18488h-5.3737v4.28895h6.79223v1.1682c-0.41165,1.5576 -1.16263,2.98724 -2.25295,4.28895c0.41165,0.40052 0.86224,0.77323 1.35177,1.11813c0.48953,0.3449 1.06806,0.71204 1.73561,1.10144zM260.33602,119.49588h1.1682v3.08738h1.83574v1.18488h-1.83574v2.97056l1.70223,-0.5841l0.05007,0.63416l0.05007,0.56741l-1.80236,0.60079v4.62272c0,0.48953 -0.05563,0.86224 -0.16689,1.11813c-0.11126,0.25589 -0.30317,0.43668 -0.57575,0.54238c-0.27258,0.10569 -0.67032,0.15854 -1.19323,0.15854h-1.05138l-0.23364,-1.20157h0.91787c0.45615,0 0.75933,-0.06397 0.90952,-0.19192c0.1502,-0.12795 0.22529,-0.38662 0.22529,-0.77602v-3.88842l-1.46859,0.46728c-0.25589,0.08901 -0.46172,0.15576 -0.61748,0.20026l-0.23364,-1.1682c0.55628,-0.15576 1.32952,-0.39496 2.3197,-0.71761v-3.35439h-1.93587v-1.18488h1.93587zM265.19238,126.93896v6.3917c1.15707,-0.67867 2.13613,-1.39071 2.93718,-2.13613c-0.8678,-1.13482 -1.5576,-2.55334 -2.06938,-4.25557zM270.74965,126.93896h-3.50459c0.4339,1.32396 1.00131,2.45321 1.70223,3.38777c0.83443,-0.96793 1.43521,-2.09719 1.80236,-3.38777z" fill="#ffffff" fill-rule="evenodd" stroke="#ffffff" stroke-width="0.5" stroke-linecap="round"/></g></g></svg>