<svg version="1.1" xmlns="http://www.w3.org/2000/svg" xmlns:xlink="http://www.w3.org/1999/xlink" width="208" height="32" viewBox="0,0,208,32"><g transform="translate(-240,-164)"><g stroke-miterlimit="10"><path d="M344.63996,173.83358v5.49585h12.4296l-0.29086,6.56725c-0.07756,1.00526 -0.33934,1.7096 -0.78533,2.11303c-0.44599,0.40343 -1.16669,0.60514 -2.16209,0.60514h-2.22996l-0.27147,-1.40868h1.90031c0.51709,0 0.91784,-0.05952 1.20224,-0.17857c0.2844,-0.11904 0.48801,-0.30422 0.61082,-0.55554c0.12281,-0.25131 0.20361,-0.60183 0.24239,-1.05155c0.03878,-0.59522 0.0808,-1.38223 0.12604,-2.36103c0.04525,-0.9788 0.0808,-1.76582 0.10665,-2.36103h-12.35204v-8.23386h3.76184l0.25208,-0.6349l0.50416,-1.34916l1.51249,0.17857l-0.25208,0.69442c-0.1422,0.42327 -0.27147,0.79363 -0.38782,1.11108h6.68988c-0.11635,2.06343 -0.18745,3.2208 -0.2133,3.47211c-0.06464,0.6349 -0.18421,1.12761 -0.35873,1.47813c-0.17452,0.35052 -0.43953,0.60183 -0.79503,0.75394c-0.3555,0.15211 -0.84997,0.22817 -1.48341,0.22817h-1.66762l-0.27147,-1.2698h1.51249c0.58173,0 0.98247,-0.0959 1.20224,-0.28769c0.21976,-0.19179 0.34904,-0.51916 0.38782,-0.98211l0.09695,-0.99203c0.03878,-0.39681 0.06464,-0.74072 0.07756,-1.03171zM299.65295,183.25788h-9.6373c-0.98247,1.11108 -2.18471,2.26183 -3.60672,3.45227l8.70654,-0.33729l-2.133,-2.06343l0.95016,-0.97219c0.55587,0.51586 1.08912,1.01849 1.59975,1.50789c0.51063,0.4894 0.95985,0.91928 1.34767,1.28964c1.39615,1.34916 1.97141,1.89809 1.72579,1.64677l-1.00833,1.13092c-0.21976,-0.23809 -0.62051,-0.65474 -1.20224,-1.24996l-11.98361,0.5357l-0.36843,-1.40868c1.52542,-1.11108 2.8634,-2.28829 4.01393,-3.53163h-5.5652v-1.34916h2.55961v-10.31713h11.98361v10.31713h2.61778zM318.88877,172.22649v1.48805h-8.5708c-0.711,1.67984 -1.6353,3.30677 -2.77291,4.88079h9.67609v10.11872h-1.51249v-1.369h-8.7841v1.369h-1.53189v-7.5196c-0.86613,0.9259 -1.8486,1.83856 -2.94742,2.73801l-0.58173,-1.68645c1.46079,-1.1243 2.76644,-2.42386 3.91697,-3.89868c1.15053,-1.47482 2.0619,-3.01908 2.73412,-4.63279h-5.91424v-1.48805zM279.19549,184.05151l1.20224,0.29761c-0.01293,0.21163 -0.03232,0.52578 -0.05817,0.94243c-0.02585,0.41665 -0.04525,0.82339 -0.05817,1.2202c-0.02585,0.50263 -0.11311,0.88952 -0.26178,1.16068c-0.14866,0.27115 -0.38782,0.45964 -0.71747,0.56546c-0.32965,0.10582 -0.7918,0.15873 -1.38645,0.15873h-2.17179c-0.8532,0 -1.44463,-0.15542 -1.77427,-0.46625c-0.32965,-0.31084 -0.49447,-0.87629 -0.49447,-1.69637v-1.24996h-4.03332v-7.0831h4.03332v-1.58725h-3.4322v-4.58319h8.20237v4.58319h-3.49037v1.58725h4.01393v7.0831h-4.01393v1.01187c0,0.46295 0.07756,0.77048 0.23269,0.92259c0.15513,0.15211 0.46538,0.22817 0.93077,0.22817h1.88092c0.37489,0 0.6496,-0.02976 0.82412,-0.08928c0.17452,-0.05952 0.30056,-0.17195 0.37812,-0.33729c0.07756,-0.16534 0.12281,-0.41335 0.13574,-0.74402zM253.69639,170.69877h1.43493v3.67052h4.67322v8.41243h-4.67322v6.09107h-1.43493v-6.09107h-4.67322v-8.41243h4.67322zM324.93875,177.36522v6.36884l2.09422,-0.67458l0.17452,1.56741l-5.72033,1.88486l-0.31026,-1.54757l2.28813,-0.75394v-6.84502h-2.01666v-1.42853h2.01666v-5.11888h1.47371v5.11888h1.95849v1.42853zM264.76862,176.71048l2.3657,-0.29761c0.24562,-0.42327 0.5688,-1.03833 0.96955,-1.84518l1.22163,0.71426c-1.00833,1.93115 -2.34631,4.08717 -4.01393,6.46804l3.27707,-0.51586l0.03878,1.38884l-4.94469,0.77378l-0.27147,-1.42853c1.04711,-1.28303 2.02312,-2.67848 2.92803,-4.18637l-2.98621,0.45633l-0.29086,-1.34916c0.59466,-0.79363 1.17315,-1.72613 1.73549,-2.79753c0.56234,-1.07139 1.14083,-2.24199 1.73549,-3.51179l1.16346,0.55554c-1.24102,2.65864 -2.21703,4.51705 -2.92803,5.57522zM351.27166,185.16258v-2.97609h1.41554v4.32526h-10.80076v-4.32526h1.41554v2.97609h3.23829v-3.65068h1.51249v3.65068zM327.98313,175.5002h9.01679v8.84892h-9.01679zM306.92455,180.12306v5.73394h8.7841v-5.73394zM338.27973,188.05932h-11.92544v-1.42853h11.92544zM327.34323,173.35741v-1.42853h10.70381v1.42853zM295.63902,181.90872v-2.18247h-9.17192v2.18247zM286.4671,176.3335v2.10311h9.17192v-2.10311zM286.4671,175.08354h9.17192v-2.08327h-9.17192zM246.56052,179.42864l0.62051,0.19841l0.77564,0.29761c-0.27147,0.85976 -0.70777,2.15271 -1.30889,3.87884c-0.60112,1.72613 -1.06973,3.01247 -1.40584,3.859l-1.39615,-0.59522c0.37489,-0.89944 0.86613,-2.1957 1.47371,-3.88876c0.60758,-1.69307 1.02126,-2.94303 1.24102,-3.74988zM253.69639,175.85733h-3.2189v5.37681h3.2189zM258.31144,175.85733h-3.18012v5.37681h3.18012zM329.41806,179.28976h6.10815v-2.38088h-6.10815zM335.52621,180.61908h-6.10815v2.34119h6.10815zM276.79101,175.16291v-2.22215h-5.3519v2.22215zM244.00091,172.16697l1.26041,-0.67458c1.02126,1.83856 1.94556,3.5647 2.77291,5.1784l-1.2798,0.79363c-0.40075,-0.82008 -0.88229,-1.77243 -1.44463,-2.85705c-0.56234,-1.08462 -0.99863,-1.89809 -1.30889,-2.4404zM268.86011,186.47207l-5.54581,0.93251l-0.19391,-1.48805l5.66216,-0.99203zM350.03064,176.80968l-0.89198,1.09123c-1.44786,-1.17721 -2.48204,-1.99068 -3.10255,-2.4404l0.8532,-1.09123c0.55587,0.41004 1.60299,1.22351 3.14133,2.4404zM274.75496,180.87701h2.77291v-1.8055h-2.77291zM277.52787,182.02776h-2.77291v1.8055h2.77291zM270.72165,180.87701h2.75352v-1.8055h-2.75352zM273.47516,182.02776h-2.75352v1.8055h2.75352z" fill="#ffffff" fill-rule="evenodd" stroke="#ffffff" stroke-width="0.5" stroke-linecap="round"/><path d="M240,196v-32h208v32z" fill="none" fill-rule="nonzero" stroke="none" stroke-width="0" stroke-linecap="butt"/></g></g></svg>