<svg version="1.1" xmlns="http://www.w3.org/2000/svg" xmlns:xlink="http://www.w3.org/1999/xlink" width="153.66495" height="19.09968" viewBox="0,0,153.66495,19.09968"><g transform="translate(-240.53846,-170.2235)"><g fill="#ffffff" stroke="none" stroke-miterlimit="10"><path d="M240.53846,171.80332h17.58664v1.78237h-17.58664v-1.78237M247.53822,176.50229h10.14092v1.76211h-10.14092v-1.76211M248.04236,180.47211h9.9858v1.82287h-9.9858v-1.82287M244.84302,170.36528h2.1135v4.45592h-2.1135v-4.45592M251.68766,170.36528h2.13289v4.29388h-2.13289v-4.29388M247.49944,180.47211h1.9196v2.4305c0,0.66164 -0.05429,1.37728 -0.16288,2.14694c-0.11117,0.76966 -0.31541,1.52176 -0.61272,2.25631c-0.29731,0.73725 -0.74328,1.39619 -1.3379,1.97681c-0.10341,-0.12152 -0.25853,-0.2606 -0.46536,-0.41724c-0.20683,-0.15393 -0.41365,-0.30516 -0.62048,-0.45369c-0.20683,-0.14853 -0.3878,-0.25655 -0.54292,-0.32407c0.52999,-0.5131 0.92425,-1.07347 1.18278,-1.6811c0.25853,-0.60762 0.43046,-1.2193 0.51577,-1.83503c0.08273,-0.61303 0.1241,-1.18284 0.1241,-1.70945v-2.38999M241.12016,175.42882h4.51785v1.78237h-2.67581v12.09174h-1.84204v-13.8741M245.01753,175.42882h0.32963l0.29085,-0.08102l1.31851,0.68864c-0.21975,0.63463 -0.46794,1.30977 -0.74457,2.02542c-0.27921,0.71565 -0.54809,1.37728 -0.80662,1.98491c0.55584,0.63463 0.93072,1.2355 1.12461,1.80262c0.1939,0.56712 0.29085,1.09372 0.29085,1.57982c0,0.54011 -0.06463,0.99515 -0.1939,1.36513c-0.12927,0.37268 -0.33609,0.66029 -0.62048,0.86283c-0.27146,0.20254 -0.60109,0.33082 -0.98888,0.38483c-0.18097,0.027 -0.38521,0.04726 -0.61272,0.06076c-0.22492,0.0135 -0.45372,0.0135 -0.6864,0c-0.01293,-0.27005 -0.06075,-0.57117 -0.14349,-0.90334c-0.08532,-0.32947 -0.19907,-0.60898 -0.34126,-0.83852c0.1939,0.0135 0.36582,0.02295 0.51577,0.02836c0.14736,0.0081 0.28568,0.01215 0.41494,0.01215c0.20683,-0.0135 0.37487,-0.06076 0.50414,-0.14178c0.12927,-0.08102 0.21717,-0.20929 0.2637,-0.38483c0.04395,-0.17554 0.06593,-0.37808 0.06593,-0.60762c0,-0.40508 -0.09049,-0.86148 -0.27146,-1.36918c-0.18097,-0.505 -0.54292,-1.04781 -1.08583,-1.62843c0.18097,-0.4861 0.35936,-0.9992 0.53516,-1.53932c0.17322,-0.54011 0.3348,-1.05997 0.48475,-1.55957c0.14736,-0.4996 0.26629,-0.93169 0.35677,-1.29627v-0.44559M251.08657,175.0845l1.82265,-0.64813c0.21975,0.25655 0.43304,0.54956 0.63987,0.87903c0.20683,0.33217 0.36195,0.62653 0.46536,0.88308l-1.90021,0.78991c-0.07756,-0.27005 -0.21717,-0.58467 -0.41882,-0.94384c-0.19907,-0.35647 -0.40202,-0.67649 -0.60884,-0.96005M248.9149,178.77076l1.7257,-0.7089c0.23268,0.29706 0.45502,0.63463 0.66701,1.01271c0.21458,0.37808 0.37358,0.7089 0.47699,0.99245l-1.84204,0.76966c-0.07756,-0.28356 -0.21587,-0.62113 -0.41494,-1.01271c-0.20165,-0.39158 -0.40589,-0.74265 -0.61272,-1.05322M254.53797,178.08211l1.86143,0.66839c-0.24561,0.4591 -0.49767,0.90469 -0.75621,1.33677c-0.25853,0.43209 -0.49121,0.80342 -0.69804,1.11398l-1.57058,-0.60762c0.14219,-0.24305 0.28439,-0.5104 0.42658,-0.80206c0.14219,-0.28896 0.2818,-0.58602 0.41882,-0.89118c0.13444,-0.30246 0.24043,-0.57522 0.31799,-0.81827zM268.55687,176.94788h6.43745v1.98491h-6.43745v-1.98491M268.3048,186.38632h6.57318v1.92415h-6.57318v-1.92415M267.49042,180.73541h8.39583v8.54726h-2.1135v-6.62311h-4.24639v6.66362h-2.03594v-8.58777M272.49302,171.05392c0.37487,0.82367 0.84411,1.63384 1.40771,2.4305c0.56101,0.79666 1.18796,1.52581 1.88082,2.18745c0.69028,0.66164 1.40383,1.2085 2.14064,1.64059c-0.15512,0.13503 -0.32575,0.30651 -0.51189,0.51446c-0.18873,0.21064 -0.3697,0.42669 -0.54292,0.64813c-0.1758,0.22415 -0.32187,0.43074 -0.43821,0.61978c-0.74974,-0.52661 -1.47105,-1.18554 -2.16391,-1.97681c-0.69028,-0.78856 -1.32239,-1.65544 -1.89633,-2.60063c-0.57653,-0.9452 -1.06515,-1.91064 -1.46588,-2.89635l1.58997,-0.56712M271.03878,170.34502l1.95838,0.58737c-0.59462,1.70135 -1.39219,3.27037 -2.39271,4.70707c-1.0031,1.4394 -2.1833,2.6587 -3.5406,3.6579c-0.10341,-0.16203 -0.24173,-0.34162 -0.41494,-0.53876c-0.1758,-0.19444 -0.35807,-0.39023 -0.5468,-0.58737c-0.18614,-0.19444 -0.35677,-0.35242 -0.51189,-0.47395c0.84023,-0.56712 1.61324,-1.24225 2.31903,-2.02542c0.70321,-0.78316 1.32368,-1.63113 1.86143,-2.54392c0.53516,-0.91009 0.95786,-1.83773 1.2681,-2.78292M261.38261,172.1679h4.40151v11.78792h-4.40151v-2.00516h2.46252v-7.7776h-2.46252v-2.00516M260.29677,172.1679h1.90021v13.63105h-1.90021zM287.86921,174.61865h8.88057v2.04567h-8.88057v-2.04567M291.1461,170.34502h2.09411v18.89714h-2.09411v-18.89714M291.10732,175.59085l1.5318,0.52661c-0.25853,0.9587 -0.55843,1.92415 -0.89969,2.89635c-0.34385,0.9722 -0.73164,1.9174 -1.16339,2.83558c-0.43433,0.91819 -0.90098,1.76481 -1.39995,2.53987c-0.49638,0.77776 -1.01603,1.4502 -1.55895,2.01731c-0.12927,-0.31056 -0.31024,-0.65218 -0.54292,-1.02486c-0.23268,-0.36998 -0.44597,-0.68999 -0.63987,-0.96005c0.50414,-0.5131 0.99276,-1.10723 1.46588,-1.78237c0.47053,-0.67514 0.91262,-1.40159 1.32627,-2.17935c0.41365,-0.77506 0.78206,-1.57847 1.10522,-2.41025c0.32317,-0.82907 0.5817,-1.64869 0.7756,-2.45886M293.39533,175.59085c0.27146,1.06672 0.61143,2.14289 1.01991,3.22851c0.40589,1.08832 0.86091,2.10103 1.36505,3.03812c0.50414,0.93979 1.02766,1.73376 1.57058,2.38189c-0.24561,0.18904 -0.51965,0.44559 -0.82213,0.76966c-0.30507,0.32407 -0.55455,0.62788 -0.74845,0.91144c-0.52999,-0.75615 -1.03413,-1.67435 -1.51241,-2.75457c-0.47828,-1.08022 -0.91133,-2.24146 -1.29912,-3.48372c-0.3878,-1.24225 -0.71743,-2.47101 -0.98888,-3.68626l1.41546,-0.40508M279.35704,174.61865h7.83352v2.04567h-7.83352v-2.04567M282.55638,170.34502h2.01655v18.89714h-2.01655v-18.89714M282.42065,175.93517l1.35729,0.50635c-0.18097,0.83717 -0.40719,1.69055 -0.67865,2.56013c-0.27146,0.87228 -0.57523,1.72701 -0.91133,2.56418c-0.33609,0.83717 -0.69804,1.61628 -1.08583,2.33733c-0.3878,0.72375 -0.79499,1.34218 -1.22156,1.85528c-0.10341,-0.32407 -0.26241,-0.68594 -0.47699,-1.08562c-0.212,-0.39698 -0.40202,-0.73725 -0.57006,-1.02081c0.3878,-0.4591 0.76267,-0.9857 1.12461,-1.57982c0.36195,-0.59412 0.70062,-1.2355 1.01603,-1.92415c0.31799,-0.68864 0.59979,-1.39484 0.8454,-2.11859c0.24561,-0.72105 0.44597,-1.41914 0.60109,-2.09428M284.55354,177.00864c0.11634,0.10802 0.28051,0.27951 0.4925,0.51446c0.21458,0.23765 0.44726,0.505 0.69804,0.80206c0.25336,0.29706 0.50543,0.59682 0.75621,0.89928c0.25336,0.30516 0.47958,0.57522 0.67865,0.81017c0.20165,0.23765 0.34126,0.41724 0.41882,0.53876l-1.31851,1.88364c-0.14219,-0.29706 -0.33609,-0.64138 -0.5817,-1.03296c-0.24561,-0.39158 -0.50802,-0.79666 -0.78723,-1.21525c-0.27663,-0.41859 -0.54421,-0.81422 -0.80274,-1.18689c-0.25853,-0.36998 -0.47828,-0.67649 -0.65926,-0.91954zM313.87106,179.13533h2.05533c0,0 -0.00258,0.05401 -0.00776,0.16203c-0.00776,0.10802 -0.01163,0.22955 -0.01163,0.36457c0,0.13503 -0.00646,0.25655 -0.01939,0.36457c-0.09049,1.80937 -0.18744,3.27712 -0.29085,4.40326c-0.10341,1.12883 -0.22622,1.99706 -0.36841,2.60469c-0.14219,0.60762 -0.3167,1.03971 -0.52353,1.29627c-0.21975,0.27005 -0.45502,0.4591 -0.70579,0.56712c-0.25336,0.10802 -0.54809,0.18229 -0.88418,0.2228c-0.28439,0.04051 -0.65538,0.06076 -1.11298,0.06076c-0.46019,0 -0.94235,-0.00675 -1.44649,-0.02025c-0.02585,-0.29706 -0.09307,-0.63463 -0.20165,-1.01271c-0.11117,-0.37808 -0.24431,-0.69539 -0.39943,-0.95195c0.47828,0.04051 0.92425,0.06346 1.3379,0.06886c0.41365,0.0081 0.71743,0.01215 0.91133,0.01215c0.16805,0 0.30765,-0.0135 0.41882,-0.04051c0.10858,-0.027 0.21458,-0.09452 0.31799,-0.20254c0.14219,-0.16203 0.27146,-0.5131 0.3878,-1.05322c0.11634,-0.54011 0.21587,-1.33677 0.2986,-2.38999c0.08532,-1.05322 0.16675,-2.42375 0.24431,-4.1116v-0.34432M304.29245,181.68736h1.9196v4.80024h-1.9196v-4.80024M309.13993,182.47727h1.90021v5.65091h-1.90021v-5.65091M299.61949,182.51778h1.90021v3.24067h8.41522v1.80262h-10.31543v-5.04329M311.69939,172.08688h1.93899c0,0 0,0.09452 0,0.28356c0,0.18904 -0.00646,0.34432 -0.01939,0.46585c-0.06463,1.01271 -0.13185,1.85663 -0.20165,2.53177c-0.07239,0.67514 -0.15641,1.2085 -0.25207,1.60008c-0.09824,0.39158 -0.23139,0.67514 -0.39943,0.85067c-0.15512,0.20254 -0.32575,0.34702 -0.51189,0.43344c-0.18873,0.08912 -0.40589,0.14718 -0.6515,0.17419c-0.20683,0.04051 -0.47441,0.06346 -0.80274,0.06886c-0.33092,0.0081 -0.68382,0.0054 -1.05869,-0.0081c-0.02585,-0.29706 -0.08402,-0.62518 -0.17451,-0.98435c-0.09049,-0.35647 -0.20683,-0.66299 -0.34902,-0.91954c0.29731,0.027 0.56877,0.04726 0.81438,0.06076c0.24561,0.0135 0.43304,0.02025 0.56231,0.02025c0.11634,0 0.21975,-0.0135 0.31024,-0.04051c0.09049,-0.027 0.16805,-0.08102 0.23268,-0.16203c0.12927,-0.14853 0.23914,-0.52661 0.32963,-1.13423c0.09049,-0.60762 0.16805,-1.60008 0.23268,-2.97736v-0.2633M305.99876,170.30452l2.48191,0.2228c-0.20683,0.4996 -0.43951,0.98165 -0.69804,1.44615c-0.25853,0.4672 -0.49121,0.86958 -0.69804,1.20715l-1.84204,-0.34432c0.14219,-0.37808 0.28697,-0.80342 0.43433,-1.27601c0.14995,-0.4726 0.25724,-0.89118 0.32187,-1.25576M303.86587,175.93517l1.02766,-1.37728c0.45243,0.16203 0.93718,0.35782 1.45424,0.58737c0.51706,0.22955 1.01215,0.46585 1.48527,0.7089c0.47053,0.24305 0.86091,0.4726 1.17115,0.68864l-1.08583,1.51906c-0.28439,-0.21605 -0.65926,-0.45234 -1.12461,-0.7089c-0.46536,-0.25655 -0.95398,-0.5104 -1.46588,-0.76156c-0.50931,-0.24845 -0.99664,-0.4672 -1.462,-0.65623M312.30048,172.08688v1.9444h-9.22959v5.10405h11.42065v1.90389h-13.45659v-8.95234zM318.27257,172.14764h17.17945v2.02542h-17.17945v-2.02542M322.46079,180.6949h8.8224v1.70135h-8.8224v-1.70135M322.0536,183.93557h9.63678v1.76211h-9.63678v-1.76211M325.81524,181.52532h1.97777v7.23074h-1.97777v-7.23074M319.08695,175.87441h14.03829v2.00516h-11.94418v11.36259h-2.09411v-13.36775M332.52415,175.87441h2.13289v11.11954c0,0.55361 -0.07368,0.9749 -0.22104,1.26386c-0.14995,0.29166 -0.41236,0.51176 -0.78723,0.66029c-0.37487,0.14853 -0.84669,0.239 -1.41546,0.27141c-0.56877,0.03511 -1.24095,0.05266 -2.01655,0.05266c-0.05171,-0.27005 -0.14478,-0.58467 -0.27921,-0.94384c-0.13702,-0.35647 -0.27663,-0.66299 -0.41882,-0.91954c0.34902,0.0135 0.69804,0.027 1.04705,0.04051c0.34902,0.0135 0.66184,0.0162 0.93847,0.0081c0.27921,-0.0054 0.46406,-0.0081 0.55455,-0.0081c0.18097,-0.0135 0.30378,-0.05131 0.36841,-0.11342c0.06463,-0.05941 0.09695,-0.16338 0.09695,-0.31191v-11.11954M323.27516,178.44669l1.64814,-0.50635c0.23268,0.33757 0.45502,0.71565 0.66701,1.13423c0.21458,0.41859 0.37358,0.78991 0.47699,1.11398l-1.74509,0.60762c-0.07756,-0.32407 -0.21975,-0.7089 -0.42658,-1.15449c-0.20683,-0.44559 -0.41365,-0.84392 -0.62048,-1.195M328.85945,177.96059l1.76448,0.52661c-0.25853,0.4861 -0.51706,0.96545 -0.7756,1.43805c-0.25853,0.4726 -0.5106,0.88443 -0.75621,1.2355l-1.47363,-0.46585c0.15512,-0.25655 0.30636,-0.54686 0.45372,-0.87093c0.14995,-0.32407 0.29602,-0.64813 0.43821,-0.9722c0.14219,-0.32407 0.25853,-0.62113 0.34902,-0.89118M325.73768,170.46655h2.28801v6.8054h-2.28801zM348.46264,171.35773h5.06076v1.96465h-3.21872v15.87927h-1.84204v-17.84392M353.09683,171.35773h0.3878l0.31024,-0.08102l1.43485,0.93169c-0.32317,0.9722 -0.68511,2.00111 -1.08583,3.08673c-0.40073,1.08832 -0.78852,2.07808 -1.16339,2.96926c0.80145,0.93169 1.32239,1.79857 1.56283,2.60063c0.23785,0.80476 0.35677,1.54472 0.35677,2.21986c0,0.68864 -0.07497,1.27601 -0.22492,1.76211c-0.14736,0.4861 -0.39555,0.85743 -0.74457,1.11398c-0.16805,0.12152 -0.36195,0.21874 -0.5817,0.29166c-0.21975,0.07561 -0.45243,0.13368 -0.69804,0.17419c-0.21975,0.027 -0.46536,0.04321 -0.73682,0.04861c-0.27146,0.0081 -0.54292,0.0054 -0.81438,-0.0081c-0.01293,-0.28356 -0.05817,-0.62113 -0.13573,-1.01271c-0.07756,-0.39158 -0.20036,-0.72915 -0.36841,-1.01271c0.24561,0.027 0.46794,0.04321 0.66701,0.04861c0.20165,0.0081 0.3865,0.0054 0.55455,-0.0081c0.12927,0 0.25853,-0.01755 0.3878,-0.05266c0.12927,-0.03241 0.23914,-0.08237 0.32963,-0.14988c0.16805,-0.10802 0.28826,-0.28761 0.36065,-0.53876c0.0698,-0.24845 0.10471,-0.54821 0.10471,-0.89928c0,-0.58062 -0.13573,-1.2355 -0.40719,-1.96465c-0.27146,-0.72915 -0.79499,-1.51231 -1.57058,-2.34948c0.1939,-0.5131 0.39168,-1.06402 0.59333,-1.65274c0.19907,-0.58602 0.39297,-1.18014 0.5817,-1.78237c0.18614,-0.59952 0.35677,-1.16259 0.51189,-1.6892c0.15512,-0.52661 0.28439,-0.9722 0.3878,-1.33677v-0.7089M337.93393,172.654h9.32654v1.9444h-9.32654v-1.9444M337.42979,178.10237h10.25726v1.96465h-10.25726v-1.96465M338.98098,175.04399l1.78387,-0.46585c0.27146,0.4861 0.51319,1.02216 0.72518,1.60818c0.21458,0.58872 0.36711,1.09913 0.4576,1.53121l-1.86143,0.54686c-0.07756,-0.44559 -0.21975,-0.9695 -0.42658,-1.57172c-0.20683,-0.59952 -0.43304,-1.14909 -0.67865,-1.64869M344.46832,174.51738l2.05533,0.46585c-0.18097,0.4591 -0.36841,0.92494 -0.56231,1.39754c-0.1939,0.4726 -0.38134,0.92494 -0.56231,1.35703c-0.18097,0.43209 -0.36195,0.81692 -0.54292,1.15449l-1.74509,-0.44559c0.16805,-0.36457 0.33868,-0.77641 0.51189,-1.2355c0.1758,-0.4591 0.33738,-0.92494 0.48475,-1.39754c0.14995,-0.4726 0.27017,-0.90469 0.36065,-1.29627M339.46573,186.38632h6.35989v1.90389h-6.35989v-1.90389M338.37989,181.64685h8.51217v7.45353h-2.05533v-5.50913h-4.49846v5.63066h-1.95838v-7.57506M341.03631,170.77036l1.88082,-0.54686c0.20683,0.43209 0.40977,0.90469 0.60884,1.41779c0.20165,0.5131 0.34772,0.95195 0.43821,1.31652l-1.99716,0.64813c-0.07756,-0.36457 -0.20424,-0.81422 -0.38004,-1.34893c-0.17322,-0.53201 -0.35677,-1.02756 -0.55067,-1.48666zM367.01878,174.88196h7.75596v2.00516h-7.75596v-2.00516M371.28455,170.75011h1.99716v15.94003c0,0.55361 -0.06075,0.99515 -0.18227,1.32462c-0.1241,0.33217 -0.34126,0.59277 -0.6515,0.78181c-0.31024,0.17554 -0.7045,0.29301 -1.18278,0.35242c-0.47828,0.06211 -1.07291,0.08642 -1.78387,0.07291c-0.03878,-0.28356 -0.1228,-0.63868 -0.25207,-1.06537c-0.12927,-0.42399 -0.25853,-0.78451 -0.3878,-1.08157c0.45243,0.0135 0.87642,0.02295 1.27198,0.02836c0.39297,0.0081 0.65409,0.0054 0.78335,-0.0081c0.14219,-0.0135 0.24302,-0.04726 0.30248,-0.10127c0.05688,-0.05401 0.08532,-0.15528 0.08532,-0.30381v-15.94003M367.11572,179.19609l1.60936,-0.72915c0.23268,0.4726 0.46536,0.9749 0.69804,1.50691c0.23268,0.53471 0.45243,1.05862 0.65926,1.57172c0.20683,0.5131 0.36841,0.9722 0.48475,1.37728l-1.68692,0.85067c-0.11634,-0.41859 -0.27146,-0.89118 -0.46536,-1.41779c-0.1939,-0.52661 -0.40331,-1.06672 -0.62823,-1.62033c-0.22751,-0.55361 -0.45114,-1.06672 -0.67089,-1.53932M365.93294,170.40579l1.88082,0.52661c-0.32317,1.09372 -0.71096,2.17395 -1.16339,3.24067c-0.45243,1.06672 -0.95011,2.07268 -1.49302,3.01787c-0.54292,0.9452 -1.11169,1.77562 -1.70631,2.49126c-0.06463,-0.14853 -0.17063,-0.34162 -0.31799,-0.57927c-0.14995,-0.23495 -0.30507,-0.47395 -0.46536,-0.717c-0.16288,-0.24305 -0.30895,-0.43209 -0.43821,-0.56712c0.7756,-0.90469 1.49044,-2.01191 2.14452,-3.32168c0.6515,-1.30977 1.17115,-2.67355 1.55895,-4.09134M357.42078,171.23621h4.47907v1.9444h-2.65642v16.10206h-1.82265v-18.04646M361.25998,171.23621h0.32963l0.31024,-0.08102l1.3379,0.78991c-0.23268,0.89118 -0.4938,1.83638 -0.78335,2.83558c-0.29214,0.9992 -0.57394,1.90389 -0.8454,2.71406c0.56877,0.83717 0.94106,1.62708 1.11686,2.36974c0.17322,0.74265 0.25982,1.42454 0.25982,2.04567c0,0.64813 -0.06463,1.19094 -0.1939,1.62843c-0.12927,0.44019 -0.33609,0.77506 -0.62048,1.00461c-0.27146,0.22955 -0.61401,0.37133 -1.02766,0.42534c-0.34902,0.05401 -0.74974,0.06751 -1.20217,0.04051c0,-0.27005 -0.0349,-0.58467 -0.10471,-0.94384c-0.07239,-0.35647 -0.17968,-0.66974 -0.32187,-0.93979c0.16805,0.0135 0.3167,0.02295 0.44597,0.02836c0.12927,0.0081 0.25207,0.0054 0.36841,-0.0081c0.20683,0 0.38134,-0.05401 0.52353,-0.16203c0.10341,-0.09452 0.18097,-0.2633 0.23268,-0.50635c0.05171,-0.24305 0.07756,-0.51986 0.07756,-0.83042c0,-0.4996 -0.08402,-1.09103 -0.25207,-1.77426c-0.16805,-0.68054 -0.51706,-1.39889 -1.04705,-2.15504c0.12927,-0.4591 0.26241,-0.9587 0.39943,-1.49881c0.13444,-0.54011 0.2637,-1.08022 0.3878,-1.62033c0.12151,-0.54011 0.23785,-1.05052 0.34902,-1.53121c0.10858,-0.478 0.19519,-0.88578 0.25982,-1.22335v-0.60762M364.43992,175.42882l1.60936,-1.6811l0.23268,0.10127v15.35266h-1.84204zM384.33396,176.11746h9.55922v2.02542h-9.55922v-2.02542M388.48339,177.04915h2.05533v8.72955h-2.05533v-8.72955M380.63048,177.63652v8.10167h-2.03594v-5.95472h-2.32679v-2.14694h4.36273M383.18995,171.56027h2.1135v4.47617c0,0.72915 -0.02585,1.52176 -0.07756,2.37784c-0.05171,0.85878 -0.15124,1.73376 -0.2986,2.62494c-0.14995,0.89118 -0.36324,1.75536 -0.63987,2.59253c-0.27921,0.83717 -0.63857,1.59333 -1.07808,2.26847c-0.11634,-0.12152 -0.28697,-0.27005 -0.51189,-0.44559c-0.22751,-0.17554 -0.4576,-0.34162 -0.69028,-0.49825c-0.23268,-0.15393 -0.42658,-0.27141 -0.5817,-0.35242c0.54292,-0.83717 0.93718,-1.75941 1.18278,-2.76672c0.24561,-1.00461 0.4046,-2.01326 0.47699,-3.02597c0.0698,-1.01271 0.10471,-1.93765 0.10471,-2.77482v-4.47617M391.91541,170.40579l1.70631,1.62033c-0.89194,0.29706 -1.89375,0.54011 -3.00543,0.72915c-1.11169,0.18904 -2.25828,0.33352 -3.43977,0.43344c-1.18408,0.10262 -2.32549,0.16744 -3.42426,0.19444c-0.03878,-0.25655 -0.11246,-0.56442 -0.22104,-0.92359c-0.11117,-0.35647 -0.22492,-0.65623 -0.34126,-0.89928c0.78852,-0.04051 1.58739,-0.09182 2.39659,-0.15393c0.80662,-0.05941 1.60161,-0.13638 2.38496,-0.2309c0.78077,-0.09452 1.50724,-0.20659 2.17942,-0.33622c0.67218,-0.12693 1.26034,-0.27141 1.76448,-0.43344M379.56404,184.64446c0.23268,0 0.44985,0.05671 0.6515,0.17013c0.19907,0.11612 0.42528,0.26466 0.67865,0.44559c0.25078,0.18364 0.5636,0.38348 0.93847,0.59952c0.64633,0.39158 1.40641,0.64138 2.28025,0.7494c0.87125,0.10802 1.8498,0.16203 2.93563,0.16203c0.52999,0 1.1091,-0.00675 1.73733,-0.02025c0.62565,-0.0135 1.26164,-0.04051 1.90797,-0.08102c0.64633,-0.04051 1.27068,-0.09182 1.87306,-0.15393c0.59979,-0.05941 1.1453,-0.12288 1.63651,-0.19039c-0.07756,0.18904 -0.16158,0.42534 -0.25207,0.7089c-0.09049,0.28356 -0.16805,0.56307 -0.23268,0.83852c-0.06463,0.27816 -0.10341,0.51851 -0.11634,0.72105c-0.34902,0.027 -0.79499,0.05401 -1.3379,0.08102c-0.54292,0.027 -1.13108,0.04996 -1.76448,0.06886c-0.6334,0.02161 -1.25647,0.03916 -1.86919,0.05266c-0.61531,0.0135 -1.16857,0.02025 -1.65978,0.02025c-1.2151,0 -2.25828,-0.07427 -3.12953,-0.2228c-0.87384,-0.14853 -1.65978,-0.42534 -2.35781,-0.83042c-0.43951,-0.25655 -0.82084,-0.51716 -1.144,-0.78181c-0.32317,-0.26195 -0.59462,-0.39293 -0.81438,-0.39293c-0.20683,0 -0.43304,0.12422 -0.67865,0.37268c-0.24561,0.25115 -0.50414,0.57252 -0.7756,0.9641c-0.27146,0.39158 -0.53645,0.79666 -0.79499,1.21525l-1.39607,-2.06592c0.65926,-0.72915 1.31593,-1.31652 1.97001,-1.76211c0.6515,-0.44559 1.22286,-0.66839 1.71407,-0.66839M376.61678,171.80332l1.60936,-1.07347c0.34902,0.35107 0.71096,0.7359 1.08583,1.15449c0.37487,0.41859 0.73035,0.83312 1.06644,1.24361c0.33609,0.41318 0.60755,0.78856 0.81438,1.12613l-1.70631,1.2355c-0.18097,-0.33757 -0.43304,-0.7224 -0.75621,-1.15449c-0.32317,-0.43209 -0.66831,-0.86823 -1.03542,-1.30842c-0.3697,-0.43749 -0.72906,-0.84527 -1.07808,-1.22335z"/></g></g></svg>