<svg version="1.1" xmlns="http://www.w3.org/2000/svg" xmlns:xlink="http://www.w3.org/1999/xlink" width="208" height="32" viewBox="0,0,208,32"><g transform="translate(-240,-164)"><g stroke-miterlimit="10"><path d="M240,196v-32h208v32z" fill="none" fill-rule="nonzero" stroke="none" stroke-width="0" stroke-linecap="butt"/><path d="M248.8,175.92v-5.2441h2.2559v5.2441h7.207v2.0215h-7.207v8.2129h8.4473v2.041h-19.004v-2.041h8.3008v-8.2129h-7.0606v-2.0215z" fill="#ffffff" fill-rule="nonzero" stroke="none" stroke-width="1" stroke-linecap="butt"/><path d="M264.81,184.03c1.2044,-1.30207 2.31117,-3.03383 3.3203,-5.1953c0.41015,-0.87893 0.79425,-1.97267 1.1523,-3.2812h-3.3301v-1.9434h3.7891c0.25391,-1.23047 0.44271,-2.3047 0.56641,-3.2227l2.1289,0.32227c-0.13021,0.89847 -0.30274,1.86527 -0.51758,2.9004h7.2559v1.9434h-7.7148l-0.0684,0.24414c-0.38411,1.4388 -0.82681,2.73763 -1.3281,3.8965h8.3106v1.8359h-4.1211v5.2441h5.2344v1.9434h-12.939v-1.9434h5.5469v-5.2441h-2.9297c-0.931,1.69273 -1.94987,3.1055 -3.0566,4.2383l-1.2988,-1.5625v5.332h-2.0801v-10.059c-0.43619,0.7552 -0.96353,1.56573 -1.582,2.4316l-0.97656,-2.1777c1.05467,-1.47787 1.9596,-3.21613 2.7148,-5.2148c0.42969,-1.1328 0.87893,-2.52277 1.3477,-4.1699l2.0801,0.51758c-0.47526,1.6406 -0.97656,3.09893 -1.5039,4.375z" fill="#ffffff" fill-rule="nonzero" stroke="none" stroke-width="1" stroke-linecap="butt"/><path d="M296.64509,182.39967h-8.95609l-0.16396,1.51659h9.75538c-0.01366,0.31425 -0.03757,0.7378 -0.07173,1.27066c-0.03416,0.53286 -0.0649,0.9769 -0.09223,1.33214c-0.05465,0.65582 -0.17762,1.16135 -0.3689,1.51659c-0.19128,0.35524 -0.47821,0.608 -0.86077,0.7583c-0.38256,0.15029 -0.91542,0.22544 -1.59857,0.22544h-3.27912l-0.28692,-1.41412h3.21763c0.45088,0 0.78221,-0.02733 0.99398,-0.08198c0.21178,-0.05465 0.36549,-0.1742 0.46113,-0.35865c0.09564,-0.18445 0.15712,-0.48162 0.18445,-0.89151l0.08198,-1.1272h-9.79636l0.40989,-3.97593h8.83312v-1.4756h-8.81263v-1.27066h10.34972zM290.61971,177.74742h-1.37313v-4.0784h-3.54555v-1.35264h5.39005c-0.17762,-0.42355 -0.43038,-0.94275 -0.7583,-1.55758l1.45511,-0.43038l0.20494,0.3689c0.12297,0.24593 0.25618,0.50553 0.39964,0.77879c0.14346,0.27326 0.28351,0.55335 0.42014,0.84027h5.51302v1.35264h-4.28335v4.0784h-1.37313v-4.0784h-2.04945zM283.03675,181.5594l0.77879,0.22544l0.69681,0.18445c-1.06571,3.26546 -1.85134,5.71113 -2.35687,7.33703l-1.4756,-0.47137c0.2596,-0.72414 0.68998,-1.99138 1.29115,-3.80173c0.60117,-1.81035 0.95641,-2.96829 1.06571,-3.47382zM287.66851,174.40682l0.98374,0.90176c-0.40989,0.50553 -0.9325,1.0623 -1.56783,1.6703c-0.63533,0.608 -1.23992,1.13744 -1.81376,1.58832l-0.79928,-1.04522c1.35264,-1.07938 2.41835,-2.11776 3.19714,-3.11516zM285.27065,173.95594l-0.92225,1.27066c-0.50553,-0.46454 -1.59857,-1.37313 -3.27912,-2.72577l0.92225,-1.16819c0.65582,0.47821 1.74886,1.35264 3.27912,2.62329zM280.53643,177.56297l0.92225,-1.20917c1.55758,1.20234 2.65062,2.07678 3.27912,2.62329l-0.98374,1.27066c-0.92908,-0.80612 -2.00163,-1.70104 -3.21763,-2.68478zM294.69812,175.51353l0.77879,-0.98374c0.53286,0.40989 1.14428,0.89151 1.83426,1.44486c0.68998,0.55335 1.22625,1.00081 1.60882,1.34239l-0.84027,1.08621c-0.79245,-0.7378 -1.91965,-1.70104 -3.38159,-2.88972z" fill="#ffffff" fill-rule="evenodd" stroke="#ffffff" stroke-width="0.5" stroke-linecap="round"/></g></g></svg>