<svg version="1.1" xmlns="http://www.w3.org/2000/svg" xmlns:xlink="http://www.w3.org/1999/xlink" width="138.86183" height="20.98501" viewBox="0,0,138.86183,20.98501"><g transform="translate(-240.35181,-170.46811)"><g fill="#ffffff" fill-rule="evenodd" stroke="#ffffff" stroke-width="0.5" stroke-linecap="round" stroke-miterlimit="10"><path d="M249.90549,181.91516v1.48935h-3.51794v5.14701c0,0.54025 -0.06031,0.95274 -0.18092,1.23747c-0.12062,0.28473 -0.33169,0.48915 -0.63323,0.61326c-0.30154,0.12411 -0.74044,0.18617 -1.31671,0.18617h-1.18605l-0.28144,-1.57696h1.06543c0.38865,0 0.66003,-0.0292 0.81415,-0.08761c0.15412,-0.05841 0.25128,-0.16062 0.29149,-0.30663c0.04021,-0.14601 0.06031,-0.40884 0.06031,-0.78848v-4.42424h-3.77927v-1.48935h3.77927v-2.36544h-4.16122v-1.44554h2.47261c-0.0268,-0.14601 -0.18762,-1.11701 -0.48246,-2.91299l-0.12062,-0.61326h-1.26646v-1.42364h3.59835l-0.62318,-2.12451l1.44738,-0.26283c0.24123,0.73007 0.46236,1.52585 0.66338,2.38734h3.2365v1.42364h-1.12574c-0.17422,0.94909 -0.43555,2.12451 -0.784,3.52625h2.3721v1.44554h-3.85968v2.36544zM252.53892,178.54222h6.09106v1.57696h-2.17107v10.73207h-1.38707v-10.73207h-2.53292v0.0438c0,1.88359 -0.05696,3.42039 -0.17087,4.61041c-0.11391,1.19002 -0.31829,2.25592 -0.61313,3.19772c-0.29484,0.94179 -0.72369,1.92374 -1.28656,2.94584l-1.44738,-0.78848c0.56287,-0.91989 0.98837,-1.82153 1.27651,-2.70492c0.28814,-0.88339 0.48916,-1.90184 0.60308,-3.05535c0.11391,-1.15351 0.17087,-2.65746 0.17087,-4.51185v-6.74587c1.17935,-0.11681 2.37545,-0.31758 3.5883,-0.60231c1.21285,-0.28473 2.24143,-0.60231 3.08574,-0.95274l0.46236,1.55505c-0.71029,0.32123 -1.58475,0.61691 -2.62338,0.88704c-1.03863,0.27013 -2.05381,0.4636 -3.04553,0.58041zM242.7691,184.17108l1.18605,0.52565c-0.62988,1.79598 -1.34687,3.34373 -2.15097,4.64326l-1.10564,-0.74467c0.40205,-0.59866 0.7639,-1.25573 1.08554,-1.9712c0.32164,-0.71547 0.64998,-1.53315 0.98502,-2.45304zM247.37258,174.57793h-3.37722c0.32164,1.63536 0.53607,2.81078 0.64328,3.52625h1.90974c0.24123,-0.90529 0.51596,-2.08071 0.8242,-3.52625zM246.95042,185.04717l1.00513,-0.81038c0.49586,0.73007 1.14584,1.74487 1.94994,3.0444l-1.04533,0.87609c-0.71029,-1.21192 -1.34687,-2.24862 -1.90974,-3.11011z"/><path d="M269.24411,181.89326h8.88531l-0.26133,6.43924c-0.06701,0.87609 -0.25798,1.4784 -0.57292,1.80693c-0.31494,0.32853 -0.87446,0.4928 -1.67856,0.4928h-2.33189l-0.22113,-1.42364h2.05046c0.54947,0 0.92807,-0.09856 1.13579,-0.29568c0.20773,-0.19712 0.33169,-0.57311 0.3719,-1.12796c0,-0.29203 0.0201,-0.85418 0.06031,-1.68647c0.05361,-1.48935 0.08041,-2.43114 0.08041,-2.82538h-8.60388c-0.75049,0.86149 -1.51439,1.60616 -2.29169,2.23402l-0.7639,-1.24842c0.58967,-0.43804 1.2095,-1.0221 1.85948,-1.75217c0.64998,-0.73007 1.25641,-1.54045 1.81928,-2.43114h-2.27158v-7.84098c0.7639,-0.08761 1.64171,-0.22632 2.63343,-0.41614c0.99172,-0.18982 1.78912,-0.38694 2.3922,-0.59136l0.30154,1.31413c-0.53607,0.18982 -1.1827,0.36504 -1.93989,0.52565c-0.75719,0.16062 -1.44403,0.28473 -2.06051,0.37234v1.86169h3.67876v1.33603h-3.67876v2.0588h8.48326v-2.0588h-3.71897v-1.33603h3.71897v-2.0588h-3.79938v-1.37984h5.12614v8.21332h-7.25701c-0.30824,0.55486 -0.69019,1.16082 -1.14584,1.81788zM263.71592,182.24369l0.66338,0.21902l0.70359,0.21902c-1.21955,4.23442 -1.97005,6.89189 -2.25148,7.97239l-1.38707,-0.50375c0.21443,-0.65707 0.60978,-1.98945 1.18605,-3.99715c0.57627,-2.0077 0.93812,-3.31088 1.08554,-3.90954zM265.28392,179.61543l-0.92472,1.29223c-0.48246,-0.51105 -1.04868,-1.08781 -1.69866,-1.73027c-0.64998,-0.64246 -1.1894,-1.14621 -1.61825,-1.51125l0.88451,-1.20462c0.93812,0.81768 2.05716,1.86899 3.35712,3.15391zM266.81171,189.55902l-1.34687,-0.63516c0.28144,-0.49645 0.57627,-1.14986 0.88451,-1.96025c0.30824,-0.81038 0.56957,-1.5514 0.784,-2.22307l1.26646,0.48185c-0.21443,0.70087 -0.46906,1.4638 -0.7639,2.28878c-0.29484,0.82498 -0.56957,1.5076 -0.8242,2.04785zM265.68597,174.3151l-0.88451,1.24842c-0.73709,-0.74467 -1.80923,-1.73027 -3.2164,-2.95679l0.88451,-1.22652c0.8175,0.67167 1.88964,1.64996 3.2164,2.93489zM269.08329,185.3319l1.26646,-0.30663c0.12062,0.42344 0.25798,1.02575 0.4121,1.80693c0.15412,0.78118 0.26468,1.41999 0.33169,1.91644l-1.30666,0.24092c-0.24123,-1.56236 -0.47576,-2.78158 -0.70359,-3.65766zM271.5157,185.17858l1.14584,-0.45995c0.20103,0.48185 0.3987,1.05861 0.59302,1.73027c0.19432,0.67167 0.31159,1.06591 0.35179,1.18272c0.0268,0.10221 0.05361,0.18982 0.08041,0.26283c0.0268,0.07301 0.04691,0.14601 0.06031,0.21902l-1.20615,0.43804c-0.36185,-1.35794 -0.70359,-2.48225 -1.02523,-3.37294zM273.84759,184.93766l1.10564,-0.56946c0.21443,0.43804 0.45566,0.971 0.72369,1.59886c0.26803,0.62786 0.45566,1.08781 0.56287,1.37984l-1.14584,0.56946c-0.16082,-0.42344 -0.3719,-0.94909 -0.63323,-1.57696c-0.26133,-0.62786 -0.46571,-1.09511 -0.61313,-1.40174z"/><path d="M298.83501,184.76244h-9.99095c-1.01853,1.22652 -2.26488,2.49685 -3.73907,3.81098l9.02603,-0.37234l-2.21128,-2.27783l0.98502,-1.07321c0.57627,0.56946 1.12909,1.12431 1.65846,1.66457c0.52937,0.54025 0.99507,1.0148 1.39712,1.42364c1.44738,1.48935 2.04376,2.09531 1.78912,1.81788l-1.04533,1.24842c-0.22783,-0.26283 -0.64328,-0.72277 -1.24636,-1.37984l-12.42335,0.59136l-0.38195,-1.55505c1.5814,-1.22652 2.96847,-2.52605 4.16122,-3.89859h-5.76942v-1.48935h2.65353v-11.38913h12.42335v11.38913h2.71384zM294.67379,183.27309v-2.40924h-9.50849v2.40924zM285.1653,177.11858v2.32163h9.50849v-2.32163zM285.1653,175.73874h9.50849v-2.29973h-9.50849z"/><path d="M309.22801,170.89836h1.54789v4.29283h6.89516v9.0237h-6.89516v6.74587h-1.54789v-6.74587h-6.83485v-9.0237h6.83485zM316.10307,176.89956h-5.32717v5.62886h5.32717zM309.22801,176.89956h-5.26686v5.62886h5.26686z"/><path d="M329.59186,188.79244h9.42808l-0.26133,1.51125h-9.30746c-1.6216,0 -2.91821,-0.25918 -3.88984,-0.77753c-0.97162,-0.51835 -1.69866,-1.37619 -2.18112,-2.57351c-0.21443,1.24112 -0.59637,2.58446 -1.14584,4.03l-1.12574,-0.91989c0.52267,-1.34333 0.88451,-2.61366 1.08554,-3.81098c0.20103,-1.19732 0.30154,-2.84728 0.30154,-4.94989l1.24636,0.0219c0,1.25573 -0.0134,2.15371 -0.04021,2.69397c0.20103,0.90529 0.44561,1.65726 0.73374,2.25592c0.28814,0.59866 0.63323,1.08051 1.03528,1.44554v-7.84098h-4.0004v-1.46745h3.55815v-3.08821h-2.93497v-1.46745h2.93497v-2.75967h1.38707v2.75967h2.63343v1.46745h-2.63343v3.08821h2.93497v1.46745h-2.55302v3.17582h2.25148v1.48935h-2.25148v3.92049c0.69689,0.21902 1.6283,0.32853 2.79425,0.32853zM332.98919,180.92956l0.42215,1.44554l-3.2365,3.06631l-0.68349,-1.13891c0.16082,-0.17522 0.27473,-0.34313 0.34174,-0.50375c0.06701,-0.16062 0.10051,-0.38694 0.10051,-0.67897v-8.56375h3.53804c-0.05361,-1.44554 -0.08711,-2.61366 -0.10051,-3.50435h1.32677c0.0134,1.16812 0.05361,2.33623 0.12062,3.50435h4.08081v1.46745h-4.0004c0.16082,2.14641 0.34844,3.92049 0.56287,5.32223c0.58967,-1.13891 1.13914,-2.50415 1.64841,-4.09571l1.10564,0.43804c-0.72369,2.23402 -1.53449,4.07381 -2.4324,5.51935c0.09381,0.42344 0.19432,0.82498 0.30154,1.20462c0.30824,0.87609 0.60308,1.31413 0.88451,1.31413c0.21443,0 0.38865,-0.37964 0.52267,-1.13891c0.04021,-0.26283 0.09046,-0.60231 0.15077,-1.01845c0.06031,-0.41614 0.10386,-0.79943 0.13067,-1.14986l1.22625,0.43804c-0.10721,0.80308 -0.24123,1.67187 -0.40205,2.60636c-0.17422,0.73007 -0.38195,1.25207 -0.62318,1.56601c-0.24123,0.31393 -0.56957,0.4709 -0.98502,0.4709c-0.41545,0 -0.8041,-0.19347 -1.16595,-0.58041c-0.36185,-0.38694 -0.71029,-1.09876 -1.04533,-2.13546l-0.0201,-0.06571c-0.87111,1.09511 -1.90304,2.20482 -3.09579,3.32913l-0.88451,-1.09511c0.8041,-0.73007 1.49094,-1.39809 2.06051,-2.00405c0.56957,-0.60596 1.07548,-1.21557 1.51774,-1.82883c-0.38865,-1.86899 -0.65668,-4.23442 -0.8041,-7.09631h-2.29169v6.59256zM338.17563,173.2638l-0.92472,0.9637c-0.71029,-0.91989 -1.32677,-1.66457 -1.84943,-2.23402l0.84431,-0.91989c0.29484,0.32123 0.62318,0.68262 0.98502,1.08416c0.36185,0.40154 0.67678,0.77023 0.94482,1.10606z"/><path d="M357.63487,184.78434l1.42728,0.35043c0,0.43804 -0.0268,1.13891 -0.08041,2.10261l-0.0201,0.72277c-0.04021,0.59866 -0.14742,1.06226 -0.32164,1.39079c-0.17422,0.32853 -0.45566,0.56216 -0.84431,0.70087c-0.38865,0.13871 -0.93812,0.20807 -1.64841,0.20807h-5.10604c-0.67008,0 -1.1961,-0.07666 -1.57805,-0.22997c-0.38195,-0.15332 -0.66003,-0.42344 -0.83425,-0.81038c-0.17422,-0.38694 -0.26133,-0.94544 -0.26133,-1.67552v-7.53435l-1.68861,0.63516l-0.38195,-1.55505l2.07056,-0.76658v-5.40984h1.42728v4.88419l2.49271,-0.94179v-5.86978h1.40718v5.36603l4.28184,-1.59886l-0.22113,7.81908c-0.04021,0.59866 -0.12062,1.0513 -0.24123,1.35794c-0.12062,0.30663 -0.32834,0.52565 -0.62318,0.65707c-0.29484,0.13141 -0.72369,0.19712 -1.28656,0.19712h-1.08554l-0.28144,-1.62076h0.72369c0.38865,0 0.67678,-0.03285 0.86441,-0.09856c0.18762,-0.06571 0.31829,-0.18617 0.392,-0.36139c0.07371,-0.17522 0.11727,-0.45264 0.13067,-0.83228l0.18092,-4.90609l-2.83445,1.0513v8.67326h-1.40718v-8.14761l-2.49271,0.94179v7.40294c0,0.52565 0.0335,0.91259 0.10051,1.16082c0.06701,0.24823 0.20438,0.42344 0.4121,0.52565c0.20773,0.10221 0.53272,0.15332 0.97497,0.15332h4.30194c0.56287,0 0.97497,-0.0365 1.2363,-0.10951c0.26133,-0.07301 0.44561,-0.21902 0.55282,-0.43804c0.10721,-0.21902 0.17422,-0.56946 0.20103,-1.0513zM345.1311,178.2794v7.57815l2.31179,-0.81038l0.12062,0.81038l0.08041,0.70087l-5.97045,2.12451l-0.38195,-1.46745l2.4123,-0.85418v-8.0819h-2.11076v-1.59886h2.11076v-5.25652h1.42728v5.25652h1.70871v1.59886z"/><path d="M378.96364,175.67304h-10.73474l-0.14072,2.91299l-0.04021,0.67897h8.66418c-0.05361,0.94909 -0.12732,2.24132 -0.22113,3.87669c-0.09381,1.63536 -0.17422,2.92759 -0.24123,3.87669c-0.06701,0.87609 -0.21778,1.5441 -0.45231,2.00405c-0.23453,0.45995 -0.58967,0.78483 -1.06543,0.97465c-0.47576,0.18982 -1.14249,0.28473 -2.0002,0.28473h-3.1762l-0.32164,-1.64266h2.93497c0.67008,0 1.176,-0.06206 1.51774,-0.18617c0.34174,-0.12411 0.58967,-0.34313 0.74379,-0.65707c0.15412,-0.31393 0.25798,-0.77753 0.31159,-1.39079l0.32164,-5.47554h-7.1565c-0.16082,1.46014 -0.42885,2.74872 -0.8041,3.86573c-0.37525,1.11701 -0.91466,2.17927 -1.61825,3.18677c-0.70359,1.0075 -1.63165,2.0442 -2.7842,3.11011l-1.18605,-1.40174c1.25976,-1.13891 2.22803,-2.21942 2.90481,-3.24152c0.67678,-1.0221 1.17265,-2.15006 1.48759,-3.38389c0.31494,-1.23382 0.52602,-2.79983 0.63323,-4.69802l0.14072,-2.69397h-4.92512v-1.66457h8.32244l-1.08554,-2.78158l1.64841,-0.45995c0.20103,0.45264 0.62988,1.53315 1.28656,3.24152h7.03588z"/></g></g></svg>