<svg version="1.1" xmlns="http://www.w3.org/2000/svg" xmlns:xlink="http://www.w3.org/1999/xlink" width="100.15393" height="20.89579" viewBox="0,0,100.15393,20.89579"><g transform="translate(-239.79881,-170.08038)"><g fill="#ffffff" stroke="none" stroke-miterlimit="10"><path d="M241.89924,171.06266l1.6965,-0.80368c0.30968,0.50602 0.61666,1.05669 0.92095,1.65202c0.3016,0.59532 0.53319,1.10879 0.69475,1.5404l-1.73689,0.93763c-0.16157,-0.43161 -0.3972,-0.96442 -0.70688,-1.59844c-0.30968,-0.63104 -0.59916,-1.20702 -0.86844,-1.72792M252.11861,182.02401h1.93885v7.4564h-1.93885v-7.4564M250.76545,176.08568v1.83061h4.86733v-1.83061h-4.86733M248.84679,174.25508h8.80563v5.49183h-8.80563v-5.49183M247.81677,180.86314h10.72428v10.06838h-2.08023v-8.12613h-6.64462v8.17078h-1.99944v-10.11302M248.96797,184.52436h8.56328v1.80829h-8.56328v-1.80829M248.98817,188.09629h8.54307v1.94223h-8.54307v-1.94223M247.7158,171.12963h10.90606v2.03153h-10.90606v-2.03153M240.54607,174.29973h6.05892v2.16548h-6.05892v-2.16548M245.3932,179.47901c0.13465,0.10419 0.33392,0.27832 0.59782,0.5224c0.2612,0.24706 0.53991,0.51198 0.83613,0.79475c0.29622,0.28278 0.56954,0.54621 0.81997,0.79029c0.24774,0.24706 0.41873,0.42268 0.51299,0.52686l-1.27237,1.91991c-0.14811,-0.22325 -0.3393,-0.48816 -0.57358,-0.79475c-0.23697,-0.30362 -0.48606,-0.6236 -0.74727,-0.95995c-0.2639,-0.33338 -0.51972,-0.64593 -0.76746,-0.93763c-0.25043,-0.28873 -0.46317,-0.5224 -0.63821,-0.70099l1.23198,-1.16088M245.81733,174.29973h0.42412l0.38373,-0.0893l1.19159,0.84833c-0.45778,1.41389 -1.05964,2.77122 -1.80556,4.072c-0.74861,1.30375 -1.56725,2.48398 -2.45588,3.54067c-0.88864,1.05669 -1.79748,1.93479 -2.72651,2.6343c-0.05386,-0.22325 -0.14407,-0.48072 -0.27064,-0.77243c-0.12925,-0.28873 -0.25851,-0.57151 -0.38777,-0.84833c-0.12656,-0.27385 -0.25043,-0.48519 -0.37161,-0.63401c0.84825,-0.56556 1.66688,-1.28739 2.45588,-2.16548c0.78632,-0.8781 1.49319,-1.84996 2.12062,-2.91559c0.62474,-1.06265 1.10541,-2.13721 1.44202,-3.22366v-0.44649M243.07062,181.66683l2.12062,-2.8129v12.12223h-2.12062zM276.47547,179.81388h2.14082c0,0 -0.00269,0.05954 -0.00807,0.1786c-0.00807,0.11906 -0.01212,0.25301 -0.01212,0.40185c0,0.14884 -0.00673,0.28278 -0.02019,0.40185c-0.09425,1.99433 -0.19523,3.61211 -0.30294,4.85336c-0.10771,1.24422 -0.23562,2.2012 -0.38373,2.87094c-0.14811,0.66973 -0.32987,1.14599 -0.5453,1.42877c-0.22889,0.29766 -0.47394,0.50602 -0.73514,0.62508c-0.2639,0.11906 -0.57089,0.20092 -0.92095,0.24557c-0.29622,0.04465 -0.68398,0.06697 -1.16331,0.06697c-0.47664,0 -0.9775,-0.00744 -1.50261,-0.02232c-0.02693,-0.32742 -0.09829,-0.69951 -0.21408,-1.11623c-0.1131,-0.41672 -0.25043,-0.76648 -0.41201,-1.04925c0.49818,0.04465 0.96269,0.06995 1.39355,0.0759c0.43085,0.00893 0.74727,0.01339 0.94923,0.01339c0.17504,0 0.3191,-0.01489 0.4322,-0.04465c0.11579,-0.02976 0.22755,-0.10419 0.33526,-0.22325c0.14811,-0.1786 0.28275,-0.56556 0.40392,-1.16088c0.12118,-0.59532 0.22485,-1.47342 0.31102,-2.6343c0.08886,-1.16088 0.17369,-2.67151 0.25448,-4.53188v-0.37952M266.49844,182.62678h1.99944v5.29092h-1.99944v-5.29092M271.54755,183.49744h1.97924v6.22855h-1.97924v-6.22855M261.63111,183.54209h1.97924v3.57193h8.76524v1.98688h-10.74449v-5.55881M274.21347,172.04494h2.01964c0,0 0,0.10419 0,0.31255c0,0.20836 -0.00673,0.37952 -0.02019,0.51347c-0.06732,1.11623 -0.13734,2.04642 -0.21004,2.79057c-0.0754,0.74415 -0.16427,1.33204 -0.26659,1.76364c-0.09963,0.43161 -0.23697,0.74415 -0.41201,0.93763c-0.16157,0.22325 -0.3393,0.38249 -0.53319,0.47775c-0.19658,0.09823 -0.42278,0.16223 -0.6786,0.19199c-0.21543,0.04465 -0.49414,0.06995 -0.83613,0.0759c-0.34469,0.00893 -0.71226,0.00596 -1.10273,-0.00893c-0.02693,-0.32742 -0.08751,-0.68908 -0.18176,-1.08497c-0.09425,-0.39292 -0.21543,-0.73076 -0.36354,-1.01353c0.30968,0.02976 0.59242,0.05209 0.84825,0.06697c0.25583,0.01489 0.45105,0.02232 0.5857,0.02232c0.12118,0 0.22889,-0.01489 0.32315,-0.04465c0.09425,-0.02976 0.17504,-0.0893 0.24236,-0.1786c0.13465,-0.16371 0.24909,-0.58044 0.34334,-1.25018c0.09425,-0.66973 0.17504,-1.76364 0.24236,-3.28171v-0.29022M268.27573,170.08038l2.58514,0.24557c-0.21543,0.55067 -0.45778,1.082 -0.72707,1.59398c-0.26929,0.51495 -0.51164,0.95846 -0.72707,1.33054l-1.91866,-0.37952c0.14811,-0.41672 0.2989,-0.88554 0.4524,-1.40645c0.15618,-0.52091 0.26794,-0.98228 0.33526,-1.38412M266.05413,176.28661l1.07041,-1.51807c0.47124,0.1786 0.97616,0.3944 1.51473,0.64741c0.53857,0.25301 1.0529,0.51347 1.543,0.78136c0.49279,0.2679 0.90076,0.52091 1.2239,0.75903l-1.131,1.67435c-0.29622,-0.23813 -0.68668,-0.49858 -1.17139,-0.78136c-0.48471,-0.28278 -0.99232,-0.56258 -1.52281,-0.8394c-0.53319,-0.27385 -1.04213,-0.51495 -1.52685,-0.72331M274.83956,172.04494v2.14315h-9.61348v5.62578h11.89568v2.0985h-14.01631v-9.86745zM280.93887,182.44818h18.13637v2.16548h-18.13637v-2.16548M284.95796,174.99178h10.05781v1.96456h-10.05781v-1.96456M284.97816,178.69766h10.078v1.94223h-10.078v-1.94223M284.06931,171.19661h12.34v12.23385h-2.18121v-10.22465h-8.05836v10.22465h-2.10042v-12.23385M292.06709,185.46199l1.83787,-0.89298c0.57896,0.50602 1.17543,1.07902 1.7894,1.71899c0.61128,0.63997 1.18351,1.26803 1.71669,1.88419c0.53049,0.61914 0.97078,1.16683 1.32084,1.64309l-1.89847,1.0939c-0.33661,-0.50602 -0.77151,-1.08348 -1.30468,-1.73239c-0.53049,-0.64593 -1.09868,-1.29632 -1.70457,-1.95116c-0.60589,-0.65486 -1.19159,-1.24274 -1.75708,-1.76364M282.73635,190.44037c-0.04039,-0.1786 -0.10098,-0.40185 -0.18176,-0.66973c-0.08079,-0.2679 -0.16157,-0.5477 -0.24236,-0.8394c-0.08079,-0.28873 -0.1683,-0.53728 -0.26255,-0.74564c0.22889,-0.05954 0.45778,-0.16074 0.68668,-0.30362c0.22889,-0.13991 0.47798,-0.32891 0.74727,-0.56705c0.20197,-0.14884 0.50222,-0.41672 0.90076,-0.80368c0.39585,-0.38696 0.83613,-0.85578 1.32084,-1.40645c0.48471,-0.55067 0.92904,-1.13111 1.33296,-1.74132l2.2216,0.93763c-0.78093,0.96739 -1.61167,1.88568 -2.49224,2.75485c-0.88325,0.87215 -1.73555,1.60588 -2.55687,2.2012v0.04465c0,0 -0.07405,0.03721 -0.22216,0.11162c-0.14811,0.07441 -0.3191,0.16669 -0.51299,0.27683c-0.19658,0.11312 -0.36892,0.23664 -0.51703,0.37059c-0.14811,0.13395 -0.22216,0.26046 -0.22216,0.37952M282.73635,190.44037l-0.02019,-1.65202l1.29257,-0.78136l11.69371,-0.51347c0.04039,0.29766 0.10098,0.62807 0.18176,0.99121c0.08079,0.36613 0.14137,0.6608 0.18176,0.88405c-1.85807,0.10419 -3.46031,0.19646 -4.80675,0.27683c-1.34643,0.08334 -2.48415,0.15478 -3.41319,0.21432c-0.92904,0.05954 -1.69246,0.11162 -2.29027,0.15627c-0.60051,0.04465 -1.07983,0.08483 -1.43798,0.12055c-0.35546,0.03869 -0.63686,0.08037 -0.84421,0.12502c-0.21004,0.04465 -0.38912,0.10419 -0.53722,0.1786zM301.92294,174.05415h16.58125v11.006h-2.262v-8.6396h-12.13804v8.75123h-2.18121v-11.11763M303.05393,181.53288h14.46062v2.3664h-14.46062v-2.3664M309.01187,170.14736h2.2822v20.82881h-2.2822zM325.73449,178.65301v8.41635h-2.08023v-6.20623h-2.62554v-2.21013h4.70576M321.33168,172.40213l1.47434,-1.42877c0.40392,0.3572 0.83209,0.75159 1.28449,1.1832c0.44971,0.43161 0.88325,0.86322 1.30065,1.29482c0.41739,0.43161 0.754,0.81857 1.00982,1.16088l-1.55512,1.6297c-0.24236,-0.3572 -0.56146,-0.75903 -0.95731,-1.20553c-0.39854,-0.44649 -0.82267,-0.90043 -1.27237,-1.3618c-0.4524,-0.46137 -0.88056,-0.88554 -1.28449,-1.2725M329.20828,174.23275l1.37335,-1.2725c0.60589,0.23813 1.26968,0.51644 1.99136,0.83493c0.719,0.32148 1.40837,0.65336 2.06811,0.99567c0.65975,0.34231 1.21852,0.65486 1.6763,0.93763l-1.49453,1.4511c-0.40392,-0.28278 -0.92904,-0.59978 -1.57532,-0.95102c-0.64628,-0.34827 -1.32219,-0.70099 -2.02772,-1.05818c-0.70822,-0.3572 -1.37874,-0.66973 -2.01156,-0.93763M327.59256,175.75081h10.34055v1.76364h-8.30072v9.80048h-2.03984v-11.56411M336.9031,175.75081h2.08023v9.44328c0,0.50602 -0.05386,0.90043 -0.16157,1.1832c-0.10771,0.28278 -0.31641,0.50602 -0.62609,0.66973c-0.29622,0.16371 -0.66917,0.26046 -1.11888,0.29022c-0.4524,0.02976 -0.99501,0.04465 -1.62783,0.04465c-0.04039,-0.28278 -0.11041,-0.60723 -0.21004,-0.97335c-0.10233,-0.36314 -0.21408,-0.67122 -0.33526,-0.92423c0.36354,0.01489 0.71091,0.02232 1.04213,0.02232c0.32853,0 0.54665,0 0.65437,0c0.12118,0 0.20197,-0.02976 0.24236,-0.0893c0.04039,-0.05954 0.06058,-0.14884 0.06058,-0.2679v-9.39863M327.73393,170.88406h9.75486v1.83061h-9.75486v-1.83061M328.72356,178.94323h8.90661v1.67435h-8.90661v-1.67435M328.72356,182.09099h8.90661v1.76364h-8.90661v-1.76364M332.25793,176.5545h1.93885v10.67113h-1.93885v-10.67113M336.72133,170.88406h0.48471l0.44432,-0.11162l1.29257,1.13855c-0.70014,0.74415 -1.52146,1.4764 -2.46396,2.19673c-0.9425,0.72331 -1.87154,1.33054 -2.7871,1.82169c-0.12118,-0.20836 -0.29218,-0.45096 -0.51299,-0.72778c-0.22351,-0.27385 -0.41605,-0.48519 -0.57761,-0.63401c0.5251,-0.2679 1.05022,-0.59235 1.57532,-0.97335c0.5251,-0.37803 1.01386,-0.76796 1.46626,-1.16981c0.44971,-0.40185 0.8092,-0.77392 1.07848,-1.11623v-0.42417M324.80545,186.15406c0.30968,0 0.61936,0.12651 0.92904,0.37952c0.30968,0.25301 0.73381,0.55812 1.27237,0.9153c0.65975,0.44649 1.43395,0.72927 2.32258,0.84833c0.88864,0.11906 1.885,0.1786 2.98907,0.1786c0.5655,0 1.18217,-0.0119 1.84999,-0.03572c0.66514,-0.02083 1.34104,-0.05358 2.02772,-0.09823c0.68668,-0.04465 1.35316,-0.09674 1.99944,-0.15627c0.64628,-0.05954 1.23198,-0.12651 1.75708,-0.20092c-0.06732,0.20836 -0.14407,0.45393 -0.23024,0.73671c-0.08886,0.28278 -0.16695,0.56556 -0.23428,0.84833c-0.06732,0.28278 -0.10771,0.52091 -0.12118,0.71438c-0.37701,0.02976 -0.85498,0.05954 -1.43395,0.0893c-0.57896,0.02976 -1.20101,0.05507 -1.86615,0.0759c-0.66783,0.02382 -1.33161,0.04316 -1.99136,0.05804c-0.65975,0.01489 -1.26564,0.02232 -1.81768,0.02232c-1.25217,0 -2.31855,-0.08186 -3.19911,-0.24557c-0.88325,-0.16371 -1.67495,-0.46882 -2.37509,-0.9153c-0.41739,-0.2679 -0.78765,-0.54026 -1.1108,-0.81708c-0.32315,-0.27385 -0.59242,-0.41078 -0.80786,-0.41078c-0.21543,0 -0.46452,0.12948 -0.74727,0.38845c-0.28275,0.26194 -0.57896,0.59681 -0.88864,1.0046c-0.30968,0.41078 -0.61936,0.85429 -0.92904,1.33054l-1.31277,-2.03153c0.68668,-0.77392 1.3774,-1.41389 2.07215,-1.91991c0.69207,-0.50602 1.30738,-0.75903 1.84595,-0.75903z"/></g></g></svg>