<svg version="1.1" xmlns="http://www.w3.org/2000/svg" xmlns:xlink="http://www.w3.org/1999/xlink" width="99.27595" height="20.19061" viewBox="0,0,99.27595,20.19061"><g transform="translate(-240.13121,-170.39593)"><g fill="#ffffff" stroke="none" stroke-miterlimit="10"><path d="M244.8838,178.42096v1.77148h7.69754v-1.77148h-7.69754M242.85278,176.56411h11.86112v5.46385h-11.86112v-5.46385M241.63418,183.50063h14.44051v6.97921h-2.19349v-4.9943h-10.17538v5.01563h-2.07163v-7.00054M242.62937,187.83329h12.20639v1.96357h-12.20639v-1.96357M240.13122,172.80771h17.32454v4.8022h-2.27474v-2.56118h-12.87663v2.56118h-2.17319v-4.8022M246.85388,171.07891l2.23411,-0.68298c0.27081,0.48378 0.53213,1.01024 0.78397,1.5794c0.24914,0.56916 0.42786,1.06716 0.53618,1.49402l-2.37629,0.74702c-0.08124,-0.41263 -0.23289,-0.91776 -0.45495,-1.51536c-0.22476,-0.59761 -0.46578,-1.1383 -0.72304,-1.62208zM259.87268,175.73173h5.6056v2.09163h-5.6056v-2.09163M261.76152,170.86548h2.0107v14.32124h-2.0107v-14.32124M259.56803,185.57091c0.7447,-0.24189 1.64241,-0.55919 2.69313,-0.9519c1.048,-0.38987 2.1136,-0.79113 3.19682,-1.20375l0.4062,2.04895c-0.96134,0.42686 -1.92947,0.84234 -2.90435,1.24644c-0.97488,0.40694 -1.8753,0.78827 -2.70125,1.14398l-0.69055,-2.28372M267.02184,173.6401h11.33306v2.09163h-11.33306v-2.09163M267.3468,178.20753h3.47303v1.85685h-3.47303v-1.85685M266.14851,173.6401h2.0107v7.00054c0,0.76835 -0.03385,1.59647 -0.10155,2.48434c-0.0677,0.89073 -0.18956,1.78429 -0.36559,2.6807c-0.17602,0.89641 -0.43735,1.75298 -0.78397,2.56971c-0.34392,0.81957 -0.79345,1.55662 -1.34859,2.21115c-0.10832,-0.14229 -0.25997,-0.30591 -0.45495,-0.4909c-0.19768,-0.18497 -0.39808,-0.36284 -0.60118,-0.53358c-0.2031,-0.17075 -0.3859,-0.2988 -0.54837,-0.38418c0.677,-0.79681 1.16851,-1.68326 1.47452,-2.65935c0.3033,-0.97324 0.49963,-1.9721 0.589,-2.99658c0.08666,-1.02447 0.12998,-1.99202 0.12998,-2.90267v-6.97921M270.02774,178.20753h1.8076c0,0 0,0.09533 0,0.286c0,0.19351 -0.00677,0.35431 -0.02031,0.48237c-0.01354,1.60784 -0.03656,2.90978 -0.06906,3.90581c-0.03521,0.99603 -0.08666,1.75725 -0.15435,2.28372c-0.0677,0.52647 -0.16925,0.88931 -0.30465,1.08851c-0.16249,0.21343 -0.32903,0.37278 -0.49963,0.47808c-0.16789,0.10813 -0.37371,0.18356 -0.61743,0.22625c-0.2031,0.02846 -0.46036,0.04553 -0.77178,0.05122c-0.31142,0.00853 -0.64315,0.01281 -0.9952,0.01281c-0.02708,-0.2988 -0.08124,-0.63032 -0.16249,-0.99458c-0.08124,-0.36142 -0.18279,-0.66307 -0.30465,-0.90495c0.28434,0.02846 0.5389,0.04553 0.76366,0.05122c0.22206,0.00853 0.38725,0.01281 0.49557,0.01281c0.23018,0 0.39943,-0.07826 0.50775,-0.23478c0.0677,-0.12806 0.12186,-0.40553 0.16249,-0.83239c0.04062,-0.42686 0.07447,-1.08851 0.10155,-1.98491c0.02708,-0.89641 0.04739,-2.09874 0.06093,-3.607v-0.32015M272.26186,170.56668h2.05133c-0.01354,1.50824 0,2.98805 0.04062,4.43936c0.04062,1.45133 0.11239,2.83152 0.21529,4.14056c0.1002,1.30905 0.22206,2.51138 0.36559,3.607c0.14081,1.09562 0.3033,2.04468 0.48745,2.84717c0.18144,0.80535 0.38048,1.43142 0.59712,1.8782c0.21664,0.44963 0.44005,0.67445 0.67023,0.67445c0.16249,0 0.29111,-0.26749 0.3859,-0.80249c0.09478,-0.53216 0.15571,-1.36028 0.18279,-2.48434c0.2031,0.22766 0.44953,0.45532 0.73929,0.68298c0.29247,0.22766 0.56056,0.39841 0.80429,0.51224c-0.09478,1.0814 -0.23018,1.93084 -0.4062,2.54837c-0.17602,0.62038 -0.42245,1.05435 -0.73929,1.30194c-0.31954,0.25043 -0.72981,0.37565 -1.2308,0.37565c-0.55514,0 -1.04665,-0.26038 -1.47452,-0.78115c-0.42516,-0.51792 -0.78939,-1.23933 -1.09269,-2.16419c-0.30601,-0.92487 -0.56056,-2.01053 -0.76366,-3.25697c-0.2031,-1.24359 -0.36287,-2.60245 -0.47932,-4.07653c-0.11374,-1.47125 -0.19768,-3.00797 -0.25185,-4.61011c-0.05417,-1.59931 -0.08801,-3.21001 -0.10155,-4.83209M274.43504,171.48444l1.50295,-0.9391c0.39266,0.36995 0.7921,0.7897 1.19829,1.25924c0.4062,0.46955 0.71086,0.88218 0.91396,1.23789l-1.58419,1.02447c-0.18956,-0.36995 -0.48068,-0.79681 -0.87333,-1.28058c-0.39266,-0.48378 -0.77855,-0.91776 -1.15768,-1.30194M276.26295,177.93006l1.97008,0.36284c-0.63638,2.76038 -1.55305,5.16787 -2.75,7.22251c-1.19966,2.05748 -2.70667,3.72651 -4.52103,5.0071c-0.09478,-0.14229 -0.23289,-0.31018 -0.41432,-0.50371c-0.18415,-0.19067 -0.37506,-0.38275 -0.57274,-0.57627c-0.19498,-0.19067 -0.37371,-0.34291 -0.53618,-0.45674c1.80083,-1.12409 3.25639,-2.62521 4.36668,-4.5034c1.11029,-1.8782 1.92947,-4.06231 2.45753,-6.55234zM280.26405,182.34811h18.2385v2.07028h-18.2385v-2.07028M284.30577,175.21949h10.11445v1.8782h-10.11445v-1.8782M284.32607,178.76245h10.13475v1.85685h-10.13475v-1.85685M283.41213,171.59116h12.40949v11.69606h-2.19349v-9.77516h-8.10375v9.77516h-2.11225v-11.69606M291.45494,185.22942l1.84822,-0.85373c0.58223,0.48378 1.1807,1.03158 1.79541,1.64342c0.61743,0.61184 1.19288,1.21229 1.72637,1.80137c0.53618,0.59192 0.9803,1.11553 1.33235,1.57085l-1.90915,1.04582c-0.3385,-0.48378 -0.77449,-1.03585 -1.30798,-1.65623c-0.53618,-0.61753 -1.10893,-1.23933 -1.71823,-1.86538c-0.60931,-0.62607 -1.19829,-1.18811 -1.76698,-1.68611M282.07166,189.98895c-0.04062,-0.17075 -0.10155,-0.38418 -0.18279,-0.6403c-0.08124,-0.25612 -0.16249,-0.52361 -0.24372,-0.80249c-0.08124,-0.27604 -0.16925,-0.51366 -0.26404,-0.71286c0.23018,-0.05692 0.46036,-0.15367 0.69055,-0.29027c0.23018,-0.13375 0.48068,-0.31445 0.75147,-0.54212c0.2031,-0.14229 0.50504,-0.39841 0.90583,-0.76835c0.39808,-0.36995 0.84084,-0.81815 1.32828,-1.34463c0.48745,-0.52647 0.93427,-1.0814 1.34047,-1.66477l2.23411,0.89641c-0.78533,0.92487 -1.6221,1.80278 -2.51033,2.63374c-0.88552,0.83381 -1.74126,1.53529 -2.5672,2.10443v0.04269c0,0 -0.07447,0.03558 -0.22341,0.10672c-0.14894,0.07114 -0.3209,0.15935 -0.51588,0.26465c-0.19768,0.10813 -0.371,0.22625 -0.51994,0.35431c-0.14894,0.12806 -0.22341,0.24901 -0.22341,0.36284M282.07166,189.98895l-0.02031,-1.5794l1.29984,-0.74702l11.75957,-0.4909c0.04062,0.28458 0.10155,0.60045 0.18279,0.94763c0.08124,0.35002 0.14217,0.63176 0.18279,0.8452c-1.86853,0.0996 -3.4798,0.18782 -4.83381,0.26465c-1.35401,0.07968 -2.49815,0.14798 -3.43241,0.2049c-0.93427,0.05692 -1.70334,0.10672 -2.30723,0.14941c-0.60118,0.04269 -1.08185,0.08111 -1.44202,0.11525c-0.35746,0.037 -0.64045,0.07684 -0.84897,0.11953c-0.21122,0.04269 -0.39131,0.0996 -0.54025,0.17075zM301.36628,174.32308h16.67462v10.52218h-2.27474v-8.2598h-12.20639v8.36652h-2.19349v-10.62889M302.50365,181.47303h14.54206v2.26238h-14.54206v-2.26238M308.49514,170.58803h2.29504v19.91315h-2.29504zM332.31893,171.63385h5.30095v2.07028h-3.37148v16.73303h-1.92947v-18.80331M337.17304,171.63385h0.4062l0.32496,-0.08537l1.50295,0.98179c-0.3385,1.02447 -0.71763,2.10871 -1.13737,3.2527c-0.41974,1.14684 -0.82595,2.1898 -1.21861,3.1289c0.83948,0.98179 1.38515,1.89528 1.637,2.74046c0.24914,0.84804 0.37371,1.62777 0.37371,2.33921c0,0.72567 -0.07853,1.34463 -0.2356,1.85685c-0.15435,0.51224 -0.41432,0.90352 -0.77991,1.17388c-0.17602,0.12806 -0.37913,0.2305 -0.60931,0.30734c-0.23018,0.07968 -0.47391,0.14088 -0.73116,0.18356c-0.23018,0.02846 -0.48745,0.04553 -0.77178,0.05122c-0.28434,0.00853 -0.56868,0.00569 -0.85302,-0.00853c-0.01354,-0.2988 -0.06093,-0.65453 -0.14217,-1.06716c-0.08124,-0.41263 -0.20987,-0.76835 -0.3859,-1.06716c0.25726,0.02846 0.4915,0.04553 0.70274,0.05122c0.20852,0.00853 0.40079,0.00569 0.57681,-0.00853c0.1354,0 0.27081,-0.01851 0.4062,-0.0555c0.1354,-0.03416 0.25049,-0.0868 0.34527,-0.15794c0.17602,-0.11383 0.30194,-0.30307 0.37776,-0.56774c0.07312,-0.26181 0.10967,-0.57769 0.10967,-0.94763c0,-0.61184 -0.14217,-1.30194 -0.42651,-2.07028c-0.28434,-0.76835 -0.83272,-1.59362 -1.64512,-2.47581c0.2031,-0.54069 0.40891,-1.12122 0.61743,-1.7416c0.21122,-0.61753 0.41432,-1.24359 0.60931,-1.8782c0.19768,-0.63176 0.37776,-1.2251 0.54025,-1.78002c0.16249,-0.55492 0.29788,-1.02447 0.4062,-1.40864v-0.74702M321.29052,172.9998h9.76918v2.04895h-9.76918v-2.04895M320.76246,178.7411h10.74406v2.07028h-10.74406v-2.07028M322.38727,175.5183l1.86853,-0.4909c0.28434,0.51224 0.53755,1.07711 0.75959,1.69465c0.22476,0.62038 0.38453,1.15822 0.47932,1.61354l-1.94978,0.57627c-0.08124,-0.46955 -0.23018,-1.02163 -0.44682,-1.65623c-0.21664,-0.63176 -0.45359,-1.21088 -0.71086,-1.73732M328.13504,174.96337l2.15288,0.4909c-0.18956,0.48378 -0.3859,0.97468 -0.589,1.47267c-0.2031,0.49801 -0.39943,0.97468 -0.589,1.42999c-0.18956,0.45532 -0.37913,0.86084 -0.56868,1.21657l-1.82792,-0.46955c0.17602,-0.38418 0.35475,-0.81815 0.53618,-1.30194c0.18415,-0.48378 0.3534,-0.97468 0.50775,-1.47267c0.15707,-0.49801 0.28299,-0.95334 0.37776,-1.36595M322.89502,187.47046h6.66172v2.00626h-6.66172v-2.00626M321.75765,182.47617h8.91615v7.85428h-2.15288v-5.80534h-4.71195v5.9334h-2.05133v-7.98234M324.54014,171.01489l1.97008,-0.57627c0.21664,0.45532 0.42922,0.95334 0.63774,1.49402c0.21122,0.54069 0.36422,1.00313 0.45901,1.3873l-2.09194,0.68298c-0.08124,-0.38418 -0.21394,-0.85799 -0.39808,-1.42145c-0.18144,-0.56061 -0.37371,-1.08281 -0.57681,-1.56659z"/></g></g></svg>