<svg version="1.1" xmlns="http://www.w3.org/2000/svg" xmlns:xlink="http://www.w3.org/1999/xlink" width="208" height="32" viewBox="0,0,208,32"><g transform="translate(-240,-164)"><g stroke="none" stroke-miterlimit="10"><path d="M249.39047,175.15432h9.68265v9.53399h-1.97797v-7.39244h-5.80205v7.53659h-1.90262v-9.67813M253.19572,171.03597h2.03449v19.08857h-2.03449v-19.08857M250.03096,181.43481h8.59005v2.12095h-8.59005v-2.12095M244.7752,172.82745h1.97797v17.35886h-1.97797v-17.35886M241.91185,176.78107h7.00767v2.05918h-7.00767v-2.05918M244.86939,177.58415l1.20562,0.57657c-0.18838,0.7413 -0.41066,1.50594 -0.66686,2.29392c-0.25871,0.79072 -0.53876,1.57321 -0.84017,2.34746c-0.30141,0.777 -0.62793,1.50457 -0.97957,2.18273c-0.35164,0.6809 -0.70956,1.26845 -1.07376,1.76266c-0.08791,-0.31574 -0.22605,-0.67678 -0.41443,-1.08313c-0.18838,-0.4036 -0.3642,-0.74268 -0.52746,-1.01723c0.32652,-0.41184 0.65305,-0.89917 0.97957,-1.46202c0.32652,-0.56284 0.63798,-1.16412 0.93436,-1.80384c0.29387,-0.63697 0.56011,-1.28218 0.79872,-1.93563c0.23861,-0.6507 0.43327,-1.2712 0.58397,-1.8615M248.05299,171.18011l1.13027,1.81208c-0.62793,0.2471 -1.31488,0.47361 -2.06086,0.67953c-0.74849,0.20592 -1.51833,0.38438 -2.30952,0.53539c-0.79119,0.15101 -1.55726,0.27456 -2.29822,0.37065c-0.03768,-0.2471 -0.11052,-0.53539 -0.21852,-0.86485c-0.10549,-0.32947 -0.21475,-0.61089 -0.32778,-0.84426c0.7284,-0.12355 1.46056,-0.27181 2.19649,-0.44478c0.73342,-0.17023 1.43921,-0.36242 2.11737,-0.57657c0.67816,-0.21141 1.26841,-0.4338 1.77076,-0.66717M246.69666,179.12853c0.11303,0.10982 0.28885,0.30888 0.52746,0.59716c0.23861,0.28828 0.49355,0.60402 0.76482,0.94722c0.26875,0.3432 0.51365,0.65894 0.73468,0.94722c0.21852,0.28828 0.37801,0.4942 0.47848,0.61775l-1.16795,1.72971c-0.11303,-0.2471 -0.26373,-0.54911 -0.45211,-0.90604c-0.18838,-0.35692 -0.39559,-0.73169 -0.62165,-1.12431c-0.22605,-0.38987 -0.43955,-0.7564 -0.64049,-1.0996c-0.20094,-0.3432 -0.37676,-0.62462 -0.52746,-0.84426zM260.93807,179.9728h17.14243v2.22391h-17.14243v-2.22391M262.80301,172.2097h11.98086v2.18273h-11.98086v-2.18273M274.18106,172.2097h0.5463l0.45211,-0.12355l1.5447,1.29728c-0.60281,0.64521 -1.28976,1.29316 -2.06086,1.94386c-0.77361,0.65344 -1.57484,1.26845 -2.40371,1.84502c-0.82886,0.57657 -1.63889,1.0845 -2.43008,1.52379c-0.10047,-0.17846 -0.22982,-0.36791 -0.38806,-0.56833c-0.15573,-0.19768 -0.31522,-0.38987 -0.47848,-0.57657c-0.16326,-0.18395 -0.31396,-0.34457 -0.45211,-0.48185c0.70328,-0.35692 1.4254,-0.78935 2.16635,-1.29728c0.74095,-0.50793 1.42163,-1.02959 2.04202,-1.56497c0.62291,-0.53539 1.11018,-1.02959 1.46182,-1.48261v-0.51479M268.51088,177.06936h2.10984v10.46062c0,0.64521 -0.07912,1.13941 -0.23736,1.48261c-0.15573,0.3432 -0.45336,0.59716 -0.89291,0.7619c-0.42699,0.17846 -0.96073,0.29103 -1.60122,0.3377c-0.64049,0.04942 -1.40028,0.07413 -2.27938,0.07413c-0.03768,-0.21965 -0.10675,-0.46675 -0.20722,-0.7413c-0.10047,-0.27456 -0.20722,-0.54911 -0.32024,-0.82367c-0.11303,-0.27456 -0.22605,-0.51479 -0.33908,-0.72071c0.45211,0.02746 0.90171,0.04393 1.34879,0.04942c0.44457,0.00824 0.8364,0.00824 1.17548,0c0.33908,-0.00549 0.57769,-0.00824 0.71584,-0.00824c0.20094,0 0.33908,-0.03432 0.41443,-0.10296c0.07535,-0.06864 0.11303,-0.19219 0.11303,-0.37065zM294.52593,179.89043h1.99681c0,0 -0.00377,0.05491 -0.0113,0.16473c-0.00502,0.10982 -0.00754,0.23337 -0.00754,0.37065c0,0.13728 -0.00628,0.26083 -0.01884,0.37065c-0.08791,1.83953 -0.1821,3.33175 -0.28257,4.47665c-0.10047,1.14765 -0.21978,2.03035 -0.35792,2.6481c-0.13814,0.61775 -0.30768,1.05704 -0.50862,1.31787c-0.21349,0.27456 -0.44206,0.46675 -0.6857,0.57657c-0.24615,0.10982 -0.53248,0.18533 -0.85901,0.22651c-0.27629,0.04118 -0.63798,0.06178 -1.08506,0.06178c-0.44457,0 -0.91175,-0.00686 -1.40153,-0.02059c-0.02512,-0.30201 -0.09168,-0.64521 -0.19968,-1.02959c-0.10549,-0.38438 -0.23359,-0.70698 -0.38429,-0.96781c0.46467,0.04118 0.89794,0.06452 1.29981,0.07001c0.40187,0.00824 0.697,0.01236 0.88538,0.01236c0.16326,0 0.29764,-0.01373 0.40313,-0.04118c0.108,-0.02746 0.21224,-0.0961 0.31271,-0.20592c0.13814,-0.16473 0.26373,-0.52166 0.37676,-1.07077c0.11303,-0.54911 0.21098,-1.35906 0.29387,-2.42983c0.08038,-1.07077 0.15824,-2.46415 0.23359,-4.18013v-0.35006M285.22004,182.48499h1.86495v4.88025h-1.86495v-4.88025M289.9295,183.28807h1.84611v5.7451h-1.84611v-5.7451M280.68012,183.32925h1.84611v3.29468h8.17562v1.83267h-10.02173v-5.12735M292.41609,172.72449h1.88378c0,0 0,0.0961 0,0.28828c0,0.19219 -0.00628,0.35006 -0.01884,0.47361c-0.06279,1.02959 -0.1281,1.88758 -0.19591,2.57397c-0.07033,0.68639 -0.15321,1.22864 -0.24866,1.62675c-0.09293,0.39811 -0.22103,0.68639 -0.38429,0.86485c-0.1507,0.20592 -0.31648,0.3528 -0.49732,0.44066c-0.18335,0.0906 -0.39434,0.14963 -0.63295,0.17709c-0.20094,0.04118 -0.4609,0.06452 -0.77989,0.07001c-0.3215,0.00824 -0.66435,0.00549 -1.02855,-0.00824c-0.02512,-0.30201 -0.08163,-0.6356 -0.16954,-1.00076c-0.08791,-0.36242 -0.20094,-0.67404 -0.33908,-0.93487c0.28885,0.02746 0.55258,0.04805 0.79119,0.06178c0.23861,0.01373 0.42071,0.02059 0.5463,0.02059c0.11303,0 0.21349,-0.01373 0.30141,-0.04118c0.08791,-0.02746 0.16326,-0.08237 0.22605,-0.16473c0.12559,-0.15101 0.23233,-0.53539 0.32024,-1.15314c0.08791,-0.61775 0.16326,-1.62675 0.22605,-3.02699v-0.26769M286.87777,170.91242l2.41124,0.22651c-0.20094,0.50793 -0.42699,0.99801 -0.67816,1.47025c-0.25117,0.47498 -0.47722,0.88407 -0.67816,1.22727l-1.78959,-0.35006c0.13814,-0.38438 0.2788,-0.81681 0.42197,-1.29728c0.14568,-0.48047 0.24992,-0.90604 0.31271,-1.27669M284.8056,176.63693l0.99841,-1.40024c0.43955,0.16473 0.91049,0.36379 1.41284,0.59716c0.50234,0.23337 0.98208,0.47361 1.43921,0.72071c0.45964,0.2471 0.84017,0.48047 1.14157,0.70012l-1.05492,1.54438c-0.27629,-0.21965 -0.64049,-0.45988 -1.09259,-0.72071c-0.45211,-0.26083 -0.92557,-0.51891 -1.42037,-0.77425c-0.49732,-0.25259 -0.97203,-0.47498 -1.42414,-0.66717M293.00006,172.72449v1.97681h-8.96681v5.18912h11.09549v1.93563h-13.07346v-9.10156zM307.14728,178.07835c0.42699,0 0.81379,0.11257 1.16041,0.3377c0.34411,0.22788 0.62039,0.52989 0.82886,0.90604c0.20596,0.37889 0.30894,0.80171 0.30894,1.26845c0,0.45302 -0.10298,0.87172 -0.30894,1.2561c-0.20847,0.38438 -0.48476,0.68914 -0.82886,0.91427c-0.34662,0.22788 -0.73342,0.34182 -1.16041,0.34182c-0.41443,0 -0.79747,-0.11394 -1.14911,-0.34182c-0.35164,-0.22514 -0.63044,-0.52989 -0.8364,-0.91427c-0.20847,-0.38438 -0.31271,-0.80308 -0.31271,-1.2561c0,-0.46675 0.10424,-0.88956 0.31271,-1.26845c0.20596,-0.37614 0.48476,-0.67815 0.8364,-0.90604c0.35164,-0.22514 0.73468,-0.3377 1.14911,-0.3377zM319.07163,171.9626h2.03449v5.90984c0,0.89231 -0.02512,1.87385 -0.07535,2.94462c-0.05023,1.07077 -0.15321,2.16488 -0.30894,3.28233c-0.15824,1.12019 -0.38178,2.20195 -0.67063,3.24526c-0.28885,1.04332 -0.67188,1.99054 -1.14911,2.84166c-0.12559,-0.12355 -0.30141,-0.25808 -0.52746,-0.4036c-0.22605,-0.14277 -0.45462,-0.28005 -0.6857,-0.41184c-0.23359,-0.12904 -0.43829,-0.22788 -0.61411,-0.29652c0.46467,-0.80994 0.82886,-1.69264 1.09259,-2.6481c0.26373,-0.95271 0.46215,-1.93013 0.59528,-2.93227c0.13061,-1.00213 0.21475,-1.98367 0.25243,-2.94462c0.03768,-0.96095 0.05651,-1.85326 0.05651,-2.67693v-5.90984M320.31492,171.9626h13.12997v5.06557h-13.12997v-1.81208h11.09549v-1.46202h-11.09549v-1.79148M320.95541,178.09894h13.03578v1.77089h-13.03578v-1.77089M321.84079,184.52358h11.22735v1.7503h-11.22735v-1.7503M320.52214,187.94181h13.92116v1.7503h-13.92116v-1.7503M326.41838,182.77328h1.95913v6.32167h-1.95913v-6.32167M328.73544,180.40522l1.48819,-0.96781c0.42699,0.32947 0.8791,0.70012 1.35632,1.11196c0.47722,0.41184 0.92682,0.82642 1.34879,1.24374c0.41946,0.42007 0.76733,0.80171 1.04362,1.1449l-1.62005,1.09136c-0.23861,-0.3432 -0.56137,-0.72758 -0.96826,-1.15314c-0.40941,-0.42556 -0.84268,-0.85799 -1.29981,-1.29728c-0.45964,-0.43929 -0.90924,-0.83053 -1.34879,-1.17373M322.17987,183.67931c-0.03768,-0.15101 -0.09042,-0.3432 -0.15824,-0.57657c-0.07033,-0.23337 -0.14568,-0.47361 -0.22605,-0.72071c-0.08289,-0.2471 -0.15573,-0.45302 -0.21852,-0.61775c0.16326,-0.04118 0.3328,-0.11394 0.50862,-0.21827c0.17582,-0.10159 0.3642,-0.24161 0.56514,-0.42007c0.13814,-0.10982 0.35792,-0.30201 0.65932,-0.57657c0.30141,-0.27456 0.62793,-0.60814 0.97957,-1.00076c0.35164,-0.38987 0.67188,-0.79759 0.96073,-1.22315l1.62005,1.15314c-0.52746,0.5903 -1.10515,1.16687 -1.73308,1.72971c-0.62793,0.56284 -1.25586,1.05018 -1.88378,1.46202v0.06178c0,0 -0.05275,0.0302 -0.15824,0.0906c-0.108,0.06315 -0.23359,0.13865 -0.37676,0.22651c-0.14568,0.0906 -0.27126,0.19082 -0.37676,0.30064c-0.108,0.10982 -0.16201,0.21965 -0.16201,0.32947M322.17987,183.67931l-0.03768,-1.46202l1.05492,-0.63834l8.59005,-0.4942c0.01256,0.26083 0.04395,0.54911 0.09419,0.86485c0.05023,0.31574 0.10047,0.57657 0.1507,0.78249c-1.64517,0.10982 -3.02285,0.20592 -4.13302,0.28828c-1.11269,0.08237 -2.01439,0.15101 -2.70511,0.20592c-0.69072,0.05491 -1.23325,0.1057 -1.62759,0.15238c-0.39685,0.04942 -0.69574,0.09472 -0.89668,0.13591c-0.20094,0.04118 -0.3642,0.0961 -0.48978,0.16473zM341.43214,170.97419l2.20403,0.55598c-0.42699,1.46888 -0.94189,2.86912 -1.5447,4.20072c-0.60281,1.3316 -1.27469,2.55338 -2.01565,3.66533c-0.74095,1.11196 -1.53214,2.07977 -2.37357,2.90344c-0.12559,-0.15101 -0.29764,-0.33359 -0.51616,-0.54774c-0.22103,-0.21141 -0.45085,-0.42007 -0.68946,-0.62599c-0.23861,-0.20592 -0.44583,-0.36379 -0.62165,-0.47361c0.85398,-0.71385 1.63261,-1.57184 2.33589,-2.57397c0.70328,-1.00213 1.32493,-2.10722 1.86495,-3.31527c0.54002,-1.20805 0.99213,-2.47101 1.35632,-3.78888M346.70673,179.60214c0.40187,1.23551 0.94189,2.41198 1.62005,3.52943c0.67816,1.12019 1.4794,2.11272 2.40371,2.97757c0.9218,0.86485 1.93527,1.55125 3.04043,2.05918c-0.16326,0.15101 -0.33908,0.3432 -0.52746,0.57657c-0.18838,0.23337 -0.3642,0.47361 -0.52746,0.72071c-0.16326,0.2471 -0.30768,0.48047 -0.43327,0.70012c-1.1805,-0.63148 -2.24421,-1.44142 -3.19113,-2.42983c-0.94943,-0.9884 -1.78457,-2.11821 -2.50543,-3.3894c-0.72337,-1.26845 -1.32995,-2.64398 -1.81973,-4.12659l1.9403,-0.61775M341.22492,174.16592h5.99043v2.22391h-6.97l0.97957,-2.22391M346.46184,174.16592h0.41443l0.37676,-0.12355l1.46935,0.7413c-0.59025,2.60829 -1.43168,4.92143 -2.52427,6.93942c-1.09259,2.01799 -2.36729,3.73397 -3.82408,5.14794c-1.45679,1.41397 -3.02661,2.53279 -4.70946,3.35646c-0.10047,-0.19219 -0.24489,-0.41595 -0.43327,-0.67129c-0.18838,-0.25259 -0.38304,-0.49969 -0.58397,-0.7413c-0.20094,-0.23886 -0.38932,-0.42007 -0.56514,-0.54362c1.65773,-0.75503 3.18108,-1.75716 4.57006,-3.0064c1.38646,-1.24923 2.58204,-2.7593 3.58672,-4.53019c1.00468,-1.77089 1.74564,-3.79575 2.22286,-6.07457zM369.87727,179.89043h1.99681c0,0 -0.00251,0.05491 -0.00754,0.16473c-0.00754,0.10982 -0.0113,0.23337 -0.0113,0.37065c0,0.13728 -0.00628,0.26083 -0.01884,0.37065c-0.08791,1.83953 -0.1821,3.33175 -0.28257,4.47665c-0.10047,1.14765 -0.21978,2.03035 -0.35792,2.6481c-0.13814,0.61775 -0.30768,1.05704 -0.50862,1.31787c-0.21349,0.27456 -0.44206,0.46675 -0.6857,0.57657c-0.24615,0.10982 -0.53248,0.18533 -0.85901,0.22651c-0.27629,0.04118 -0.63672,0.06178 -1.08129,0.06178c-0.44708,0 -0.91552,-0.00686 -1.4053,-0.02059c-0.02512,-0.30201 -0.09042,-0.64521 -0.19591,-1.02959c-0.108,-0.38438 -0.23736,-0.70698 -0.38806,-0.96781c0.46467,0.04118 0.89794,0.06452 1.29981,0.07001c0.40187,0.00824 0.697,0.01236 0.88538,0.01236c0.16326,0 0.29764,-0.01373 0.40313,-0.04118c0.108,-0.02746 0.21224,-0.0961 0.31271,-0.20592c0.13814,-0.16473 0.26373,-0.52166 0.37676,-1.07077c0.11303,-0.54911 0.21098,-1.35906 0.29387,-2.42983c0.08038,-1.07077 0.15824,-2.46415 0.23359,-4.18013v-0.35006M360.57138,182.48499h1.86495v4.88025h-1.86495v-4.88025M365.28084,183.28807h1.84611v5.7451h-1.84611v-5.7451M356.03146,183.32925h1.84611v3.29468h8.17562v1.83267h-10.02173v-5.12735M367.76743,172.72449h1.88378c0,0 0,0.0961 0,0.28828c0,0.19219 -0.00628,0.35006 -0.01884,0.47361c-0.06279,1.02959 -0.1281,1.88758 -0.19591,2.57397c-0.07033,0.68639 -0.15196,1.22864 -0.24489,1.62675c-0.09545,0.39811 -0.2248,0.68639 -0.38806,0.86485c-0.1507,0.20592 -0.31648,0.3528 -0.49732,0.44066c-0.18335,0.0906 -0.39434,0.14963 -0.63295,0.17709c-0.20094,0.04118 -0.4609,0.06452 -0.77989,0.07001c-0.3215,0.00824 -0.66435,0.00549 -1.02855,-0.00824c-0.02512,-0.30201 -0.08163,-0.6356 -0.16954,-1.00076c-0.08791,-0.36242 -0.20094,-0.67404 -0.33908,-0.93487c0.28885,0.02746 0.55258,0.04805 0.79119,0.06178c0.23861,0.01373 0.42071,0.02059 0.5463,0.02059c0.11303,0 0.21349,-0.01373 0.30141,-0.04118c0.08791,-0.02746 0.16326,-0.08237 0.22605,-0.16473c0.12559,-0.15101 0.23233,-0.53539 0.32024,-1.15314c0.08791,-0.61775 0.16326,-1.62675 0.22605,-3.02699v-0.26769M362.22911,170.91242l2.41124,0.22651c-0.20094,0.50793 -0.42699,0.99801 -0.67816,1.47025c-0.25117,0.47498 -0.47722,0.88407 -0.67816,1.22727l-1.78959,-0.35006c0.13814,-0.38438 0.28006,-0.81681 0.42574,-1.29728c0.14317,-0.48047 0.24615,-0.90604 0.30894,-1.27669M360.15695,176.63693l0.99841,-1.40024c0.43955,0.16473 0.91049,0.36379 1.41284,0.59716c0.50234,0.23337 0.98334,0.47361 1.44298,0.72071c0.45713,0.2471 0.8364,0.48047 1.13781,0.70012l-1.05492,1.54438c-0.27629,-0.21965 -0.64049,-0.45988 -1.09259,-0.72071c-0.45211,-0.26083 -0.92557,-0.51891 -1.42037,-0.77425c-0.49732,-0.25259 -0.97203,-0.47498 -1.42414,-0.66717M368.35141,172.72449v1.97681h-8.96681v5.18912h11.09549v1.93563h-13.07346v-9.10156zM384.81567,170.97419h1.90262v14.47601h-1.90262v-14.47601M379.12665,179.31386l9.87103,-4.57137l0.75351,1.89444l-9.87103,4.63315l-0.75351,-1.95622M381.04811,172.951h1.92146v13.46701c0,0.38438 0.0314,0.67541 0.09419,0.87309c0.06279,0.20043 0.19466,0.33496 0.39559,0.4036c0.20094,0.06864 0.49606,0.10296 0.88538,0.10296c0.11303,0 0.29889,0 0.5576,0c0.25619,0 0.54755,0 0.87408,0c0.32652,0 0.65681,0 0.99087,0c0.33155,0 0.63295,0 0.90422,0c0.26875,0 0.46592,0 0.59151,0c0.35164,0 0.61537,-0.07276 0.79119,-0.21827c0.17582,-0.14277 0.30768,-0.40634 0.39559,-0.79072c0.08791,-0.38438 0.1507,-0.94036 0.18838,-1.66793c0.22605,0.17846 0.51239,0.3432 0.85901,0.4942c0.34411,0.15101 0.6543,0.25396 0.93059,0.30888c-0.08791,0.97468 -0.23233,1.73932 -0.43327,2.29392c-0.20094,0.55735 -0.50234,0.95546 -0.90422,1.19432c-0.40187,0.24161 -0.96073,0.36242 -1.67657,0.36242c-0.12559,0 -0.32903,0 -0.61035,0c-0.28382,0 -0.60783,0 -0.97203,0c-0.3642,0 -0.72463,0 -1.08129,0c-0.35918,0 -0.67942,0 -0.96073,0c-0.28382,0 -0.48225,0 -0.59528,0c-0.80375,0 -1.43795,-0.0961 -1.90262,-0.28828c-0.46467,-0.19219 -0.78742,-0.53264 -0.96826,-1.02135c-0.18335,-0.48597 -0.27503,-1.1751 -0.27503,-2.06741v-13.44642M388.62092,174.98959h-0.1507l0.37676,-0.30888l0.37676,-0.26769l1.394,0.55598l-0.07535,0.37065c0,0.97468 -0.00251,1.86973 -0.00754,2.68517c-0.00754,0.81818 -0.01381,1.54301 -0.01884,2.17449c-0.00754,0.63148 -0.02009,1.16 -0.03768,1.58557c-0.02009,0.42556 -0.0427,0.7413 -0.06782,0.94722c-0.03768,0.46675 -0.13814,0.82642 -0.30141,1.07901c-0.16326,0.25534 -0.39559,0.43792 -0.697,0.54774c-0.26373,0.12355 -0.57393,0.19494 -0.93059,0.21415c-0.35918,0.02197 -0.68319,0.03295 -0.97203,0.03295c-0.02512,-0.27456 -0.07786,-0.59442 -0.15824,-0.95958c-0.08289,-0.36242 -0.17456,-0.66031 -0.27503,-0.89368c0.17582,0.01373 0.3642,0.02059 0.56514,0.02059c0.20094,0 0.34536,0 0.43327,0c0.12559,0 0.22605,-0.03157 0.30141,-0.09472c0.07535,-0.0604 0.12559,-0.1867 0.1507,-0.37889c0.02512,-0.10982 0.04395,-0.34732 0.05651,-0.71248c0.01256,-0.36242 0.02261,-0.84564 0.03014,-1.44966c0.00502,-0.60402 0.00754,-1.33572 0.00754,-2.19508c0,-0.85662 0,-1.8409 0,-2.95286M373.75786,175.81326h6.15997v2.07977h-6.15997v-2.07977M376.0184,171.24189h1.90262v13.56997h-1.90262v-13.56997M373.53181,184.97659c0.5149,-0.20592 1.1152,-0.45714 1.8009,-0.75366c0.68319,-0.29378 1.4053,-0.61638 2.16635,-0.96781c0.75854,-0.34869 1.52084,-0.69463 2.28691,-1.03782l0.45211,1.95622c-1.00468,0.53539 -2.02444,1.06665 -3.05926,1.5938c-1.03734,0.52989 -1.983,1.00762 -2.83698,1.43319zM392.99129,174.35124h16.728v2.16214h-16.728v-2.16214M399.11359,179.23149h7.30908v2.14154h-7.30908v-2.14154M405.89521,179.23149h2.10984c0,0 -0.00251,0.06178 -0.00754,0.18533c-0.00754,0.12355 -0.0113,0.26083 -0.0113,0.41184c0,0.15101 -0.01256,0.27456 -0.03768,0.37065c-0.11303,1.90817 -0.23861,3.45942 -0.37676,4.65374c-0.13814,1.19432 -0.29513,2.12095 -0.47095,2.77989c-0.17582,0.65894 -0.39559,1.13255 -0.65932,1.42083c-0.26373,0.31574 -0.55006,0.53539 -0.85901,0.65894c-0.30643,0.12355 -0.66686,0.20592 -1.08129,0.2471c-0.35164,0.04118 -0.81882,0.05766 -1.40153,0.04942c-0.58523,-0.00549 -1.19181,-0.02197 -1.81973,-0.04942c-0.01256,-0.32947 -0.08791,-0.70012 -0.22605,-1.11196c-0.13814,-0.41184 -0.30768,-0.76876 -0.50862,-1.07077c0.65305,0.06864 1.27846,0.10982 1.87625,0.12355c0.59528,0.01373 1.03106,0.02059 1.30735,0.02059c0.21349,0 0.38932,-0.01785 0.52746,-0.05354c0.13814,-0.03295 0.27001,-0.09747 0.39559,-0.19356c0.18838,-0.19219 0.35792,-0.59442 0.50862,-1.20668c0.1507,-0.60952 0.28885,-1.47712 0.41443,-2.6028c0.12559,-1.12568 0.23233,-2.55338 0.32024,-4.28309v-0.35006M397.88913,175.7103h2.26054c-0.05023,1.0845 -0.12559,2.17586 -0.22605,3.27409c-0.10047,1.09823 -0.26373,2.18273 -0.48978,3.2535c-0.22605,1.07077 -0.55258,2.0935 -0.97957,3.06817c-0.42699,0.97468 -0.99213,1.88346 -1.69541,2.72635c-0.70328,0.84564 -1.58238,1.59106 -2.6373,2.23627c-0.1507,-0.28828 -0.36671,-0.60402 -0.64802,-0.94722c-0.28382,-0.3432 -0.56388,-0.62462 -0.84017,-0.84426c0.97957,-0.56284 1.78708,-1.21491 2.42255,-1.95622c0.63295,-0.7413 1.13529,-1.54164 1.50703,-2.401c0.36922,-0.85662 0.64174,-1.75579 0.81756,-2.69752c0.17582,-0.93898 0.29513,-1.89307 0.35792,-2.86226c0.06279,-0.96644 0.11303,-1.91641 0.1507,-2.8499M399.88594,171.57135l1.97797,-0.82367c0.25117,0.46675 0.50862,0.98154 0.77235,1.54438c0.26373,0.56284 0.46467,1.04332 0.60281,1.44142l-2.07216,0.9884c-0.12559,-0.42556 -0.31396,-0.93349 -0.56514,-1.52379c-0.25117,-0.5903 -0.48978,-1.13255 -0.71584,-1.62675z" fill="#ffffff" stroke-width="1"/><path d="M240,196v-32h208v32z" fill="none" stroke-width="0"/></g></g></svg>