<svg version="1.1" xmlns="http://www.w3.org/2000/svg" xmlns:xlink="http://www.w3.org/1999/xlink" width="96.60446" height="22.043" viewBox="0,0,96.60446,22.043"><g transform="translate(-240,-180)"><g stroke="none" stroke-miterlimit="10"><path d="M244.59748,180h87.4095c2.547,0 4.59748,3.568 4.59748,8v6.043c0,4.432 -2.05047,8 -4.59748,8h-87.4095c-2.547,0 -4.59748,-3.568 -4.59748,-8v-6.043c0,-4.432 2.05047,-8 4.59748,-8z" fill-opacity="0.7" fill="#000000" fill-rule="evenodd" stroke-width="0"/><path d="M248.69977,187.51105h7.91227v1.00155h-7.91227v-1.00155M253.11572,190.45198l0.75571,-0.63735c0.24887,0.1821 0.51595,0.37634 0.80124,0.58273c0.28529,0.20638 0.56937,0.42187 0.85223,0.64646c0.28165,0.2246 0.54569,0.44311 0.79214,0.65556c0.24523,0.21245 0.44979,0.4067 0.61368,0.58273l-0.81945,0.75571c-0.15175,-0.1821 -0.34599,-0.38241 -0.58273,-0.60093c-0.23673,-0.21852 -0.49167,-0.44493 -0.76483,-0.67924c-0.27315,-0.23309 -0.55116,-0.46193 -0.83402,-0.68652c-0.28165,-0.2246 -0.55298,-0.43097 -0.81399,-0.61914M252.80615,187.87525l1.0835,0.38241c-0.34599,0.63735 -0.75875,1.25771 -1.23829,1.86107c-0.47953,0.60457 -1.01673,1.1618 -1.61159,1.67168c-0.59487,0.50988 -1.24132,0.94693 -1.93938,1.31113c-0.04856,-0.09105 -0.11351,-0.18999 -0.19485,-0.29683c-0.08256,-0.10562 -0.16449,-0.21185 -0.24584,-0.31868c-0.08256,-0.10562 -0.16025,-0.19485 -0.23309,-0.26769c0.49167,-0.23066 0.95907,-0.50988 1.40218,-0.83766c0.44311,-0.32778 0.85284,-0.68469 1.22918,-1.07075c0.37634,-0.38484 0.71323,-0.78364 1.01066,-1.1964c0.29743,-0.41276 0.54327,-0.82552 0.73751,-1.23829M252.11416,189.96942l1.07439,-1.06529v0.0091v6.46457h-1.07439zM259.64403,189.49595v0.70109h4.19742v-0.70109h-4.19742M259.64403,188.07556v0.70109h4.19742v-0.70109h-4.19742M258.688,187.31985h6.15501v3.64202h-6.15501v-3.64202M257.50435,194.04847h8.5041v0.92871h-8.5041v-0.92871M260.23586,191.27143h0.92871v3.28692h-0.92871v-3.28692M262.3027,191.27143h0.92871v3.28692h-0.92871v-3.28692M264.56075,191.47174l0.82856,0.37331c-0.17603,0.31565 -0.37148,0.63432 -0.58636,0.95603c-0.21609,0.32171 -0.41822,0.5979 -0.60639,0.82856l-0.74661,-0.34599c0.12747,-0.16389 0.2598,-0.34903 0.39698,-0.55541c0.13597,-0.20638 0.26951,-0.41883 0.40062,-0.63735c0.1299,-0.21852 0.2343,-0.4249 0.31321,-0.61914M258.19633,191.86326l0.75571,-0.32778c0.10926,0.18817 0.2246,0.3897 0.34599,0.60457c0.1214,0.21609 0.23551,0.42429 0.34235,0.6246c0.10562,0.20031 0.18878,0.37634 0.24947,0.52809l-0.79214,0.38241c-0.0607,-0.15782 -0.14083,-0.34175 -0.24037,-0.55177c-0.10076,-0.20881 -0.20699,-0.42429 -0.31868,-0.64646c-0.1129,-0.22095 -0.22702,-0.42551 -0.34235,-0.61368zM270.35155,190.24257h1.07439v3.9789c0,0.27922 -0.03764,0.49592 -0.1129,0.6501c-0.07648,0.15539 -0.21488,0.27254 -0.41519,0.35145c-0.20031,0.07284 -0.44615,0.11958 -0.73751,0.14022c-0.29136,0.02185 -0.63735,0.03278 -1.03798,0.03278c-0.02428,-0.15175 -0.06981,-0.32656 -0.13658,-0.52445c-0.06677,-0.19667 -0.13658,-0.36785 -0.20941,-0.51352c0.1821,0.00607 0.36602,0.01214 0.55177,0.01821c0.18452,0.00607 0.34964,0.00728 0.49531,0.00365c0.14568,-0.00242 0.24584,-0.00365 0.30046,-0.00365c0.08498,0 0.14446,-0.01214 0.17846,-0.03642c0.03278,-0.02428 0.04917,-0.06981 0.04917,-0.13658v-3.96069M268.20276,191.40801l1.01976,0.26405c-0.13354,0.3642 -0.29743,0.72354 -0.49167,1.07804c-0.19424,0.35571 -0.40062,0.68834 -0.61914,0.99792c-0.21852,0.30957 -0.44008,0.57969 -0.66466,0.81035c-0.06677,-0.0607 -0.156,-0.12747 -0.26769,-0.20031c-0.1129,-0.07284 -0.2252,-0.14568 -0.33689,-0.21852c-0.1129,-0.07284 -0.21185,-0.12747 -0.29683,-0.16389c0.33992,-0.30957 0.65738,-0.69502 0.95239,-1.15634c0.29379,-0.46132 0.5287,-0.93175 0.70473,-1.41128M272.45482,191.76311l0.9105,-0.38241c0.21245,0.28529 0.42066,0.59183 0.6246,0.91961c0.20274,0.32778 0.38788,0.65071 0.55541,0.96877c0.16632,0.31928 0.29197,0.60943 0.37695,0.87044l-1.01066,0.43704c-0.06677,-0.24887 -0.17724,-0.53598 -0.33142,-0.86134c-0.15539,-0.32414 -0.33203,-0.65799 -0.52992,-1.00155c-0.19667,-0.34235 -0.39516,-0.6592 -0.59547,-0.95056M267.63825,187.50195h6.44637v0.97424h-6.44637v-0.97424M266.8188,189.70537h8.10349v0.97424h-8.10349zM275.86921,188.17572h4.28847v0.87409h-4.28847v-0.87409M276.83434,189.12265l0.82856,0.25494c-0.11533,0.27922 -0.24887,0.56451 -0.40062,0.85588c-0.15175,0.29136 -0.31139,0.56754 -0.47893,0.82856c-0.16632,0.26101 -0.33142,0.49167 -0.49531,0.69199c-0.04249,-0.04856 -0.10501,-0.11229 -0.18756,-0.1912c-0.08134,-0.07891 -0.16449,-0.15661 -0.24947,-0.23309c-0.08498,-0.07527 -0.16086,-0.13718 -0.22763,-0.18575c0.23066,-0.26101 0.45343,-0.57361 0.66831,-0.93781c0.21609,-0.3642 0.39698,-0.72537 0.54266,-1.0835M278.31846,190.57034l0.92871,0.16389c-0.26708,0.99548 -0.64221,1.86957 -1.12538,2.62225c-0.48196,0.75268 -1.07804,1.36879 -1.78823,1.84833c-0.04249,-0.06677 -0.10319,-0.14568 -0.1821,-0.23673c-0.07891,-0.09105 -0.16207,-0.18089 -0.24947,-0.26951c-0.08863,-0.08741 -0.16328,-0.15842 -0.22398,-0.21306c0.67378,-0.40062 1.23039,-0.9366 1.66986,-1.60795c0.44069,-0.67013 0.76422,-1.43921 0.97059,-2.30721M278.34578,189.45043l0.7193,-0.39151c0.14568,0.17603 0.29136,0.36541 0.43704,0.56815c0.14568,0.20395 0.2774,0.40609 0.39516,0.60639c0.11897,0.20031 0.20881,0.38241 0.26951,0.5463l-0.77393,0.43704c-0.04856,-0.16389 -0.12929,-0.34782 -0.24219,-0.55177c-0.11169,-0.20274 -0.23734,-0.41215 -0.37695,-0.62825c-0.13961,-0.21488 -0.28225,-0.41033 -0.42794,-0.58636M276.5794,191.41712l0.71019,-0.51899c0.2246,0.2246 0.46011,0.46436 0.70655,0.7193c0.24523,0.25494 0.48135,0.51595 0.70837,0.78304c0.22823,0.26708 0.43643,0.52627 0.6246,0.77757c0.18817,0.25251 0.34599,0.485 0.47346,0.69744l-0.78304,0.61004c-0.10926,-0.21245 -0.25494,-0.44797 -0.43704,-0.70655c-0.1821,-0.25737 -0.38544,-0.52445 -0.61004,-0.80124c-0.2246,-0.27558 -0.45707,-0.54691 -0.69744,-0.81399c-0.23916,-0.26708 -0.47104,-0.51595 -0.69562,-0.74661M281.1046,188.5035h3.03198v0.9105h-3.03198v-0.9105M281.19565,186.88281l0.9105,0.14568c-0.10319,0.61914 -0.23248,1.22432 -0.38788,1.81555c-0.15418,0.59243 -0.34235,1.14177 -0.56451,1.64801c-0.22095,0.50745 -0.4771,0.95542 -0.76846,1.3439c-0.03642,-0.06677 -0.09105,-0.14872 -0.16389,-0.24584c-0.07284,-0.09712 -0.15053,-0.19424 -0.23309,-0.29136c-0.08134,-0.09712 -0.15539,-0.17603 -0.22216,-0.23673c0.25494,-0.32778 0.47346,-0.71202 0.65556,-1.1527c0.1821,-0.43947 0.33689,-0.91718 0.46436,-1.43314c0.12747,-0.51595 0.23066,-1.04708 0.30957,-1.59338M282.77993,189.12265l0.92871,0.10926c-0.14568,1.03798 -0.36541,1.95273 -0.6592,2.74426c-0.295,0.79274 -0.68834,1.47259 -1.18002,2.03953c-0.49167,0.56815 -1.10778,1.0404 -1.84833,1.41674c-0.04249,-0.0607 -0.10319,-0.13536 -0.1821,-0.22398c-0.07891,-0.08741 -0.16207,-0.17846 -0.24947,-0.27315c-0.08863,-0.09347 -0.16935,-0.16753 -0.24219,-0.22216c0.7284,-0.31565 1.32327,-0.73022 1.78459,-1.24375c0.46132,-0.51231 0.82249,-1.12842 1.0835,-1.84833c0.26101,-0.71869 0.44918,-1.5515 0.56451,-2.49843M281.32312,189.87837c0.15175,0.68592 0.36299,1.33541 0.63371,1.94848c0.26951,0.61307 0.5985,1.15937 0.98699,1.6389c0.38848,0.47953 0.83766,0.86195 1.34754,1.14724c-0.07284,0.0607 -0.15297,0.13779 -0.24037,0.23127c-0.08863,0.0947 -0.17117,0.19059 -0.24766,0.28772c-0.07527,0.09712 -0.13718,0.18817 -0.18575,0.27315c-0.54023,-0.34599 -1.01066,-0.78486 -1.41128,-1.31659c-0.40062,-0.53052 -0.74054,-1.13752 -1.01976,-1.821c-0.27922,-0.68227 -0.50988,-1.41492 -0.69199,-2.19795l0.82856,-0.1912M277.18944,187.16506l0.83766,-0.30046c0.1214,0.16389 0.23795,0.3472 0.34964,0.54995c0.1129,0.20395 0.19667,0.37877 0.2513,0.52445l-0.87409,0.3551c-0.04249,-0.15782 -0.11836,-0.34175 -0.22763,-0.55177c-0.10926,-0.20881 -0.22155,-0.40123 -0.33689,-0.57726zM285.02887,191.69937h8.10349v0.89229h-8.10349v-0.89229M288.57073,187.64763h1.03798v7.74839h-1.03798v-7.74839M288.28848,192.11821l0.81035,0.3551c-0.28529,0.38241 -0.62704,0.74358 -1.02523,1.0835c-0.39698,0.33992 -0.82188,0.64463 -1.2747,0.91415c-0.45161,0.27073 -0.90808,0.49107 -1.3694,0.66103c-0.04856,-0.07891 -0.11229,-0.16875 -0.1912,-0.26951c-0.07891,-0.09954 -0.15965,-0.19667 -0.24219,-0.29136c-0.08134,-0.09347 -0.15842,-0.17664 -0.23127,-0.24947c0.33992,-0.10319 0.67863,-0.23066 1.01612,-0.38241c0.33628,-0.15175 0.66042,-0.32656 0.97242,-0.52445c0.31321,-0.19667 0.60032,-0.40426 0.86134,-0.62279c0.26101,-0.21852 0.4856,-0.44311 0.67378,-0.67378M289.80902,192.07268c0.19424,0.2246 0.42612,0.44432 0.69562,0.6592c0.27073,0.21609 0.56391,0.42126 0.87954,0.6155c0.31565,0.19424 0.64646,0.36845 0.99245,0.52263c0.34599,0.15539 0.68288,0.28469 1.01066,0.38788c-0.06677,0.0607 -0.14265,0.14083 -0.22763,0.24037c-0.08498,0.10076 -0.16571,0.20274 -0.24219,0.30593c-0.07527,0.10319 -0.13718,0.19727 -0.18575,0.28225c-0.33992,-0.13354 -0.68166,-0.29622 -1.02523,-0.48803c-0.34235,-0.19059 -0.67438,-0.40123 -0.99609,-0.63189c-0.32171,-0.23066 -0.62521,-0.47832 -0.9105,-0.74297c-0.28529,-0.26344 -0.5372,-0.53477 -0.75571,-0.81399l0.76483,-0.33689M286.93183,189.5779v0.69199h4.29758v-0.69199h-4.29758M286.93183,188.1393v0.67378h4.29758v-0.67378h-4.29758M285.92116,187.31985h6.37352v3.76948h-6.37352z" fill="#ffffff" fill-rule="nonzero" stroke-width="1"/></g></g></svg>