<svg version="1.1" xmlns="http://www.w3.org/2000/svg" xmlns:xlink="http://www.w3.org/1999/xlink" width="139.46774" height="20.15442" viewBox="0,0,139.46774,20.15442"><g transform="translate(-240.08724,-170.57093)"><g fill="#ffffff" stroke="none" stroke-miterlimit="10"><path d="M240.75004,178.37195h18.03601v2.18001h-18.03601v-2.18001M245.73103,187.7973h10.44401v2.05178h-10.44401v-2.05178M244.5862,182.83884h12.87425v7.82239h-2.24948v-5.77062h-8.47572v5.83474h-2.14906v-7.88651M241.95511,171.61819h2.16914v2.84256h11.26748v-2.84256h2.26956v4.93709h-15.70619v-4.93709M248.62321,170.72054h2.2294v4.95846h-2.2294v-4.95846M246.65492,178.54294l2.2294,0.66255c-0.50881,1.16837 -1.12742,2.30825 -1.85582,3.41963c-0.73108,1.11138 -1.56794,2.13299 -2.51058,3.06484c-0.94532,0.9347 -1.97365,1.73689 -3.085,2.40656c-0.10712,-0.18523 -0.237,-0.39611 -0.38964,-0.63263c-0.15532,-0.23367 -0.31734,-0.4645 -0.48605,-0.69247c-0.16603,-0.22798 -0.32269,-0.4132 -0.46998,-0.55569c1.01762,-0.55569 1.95892,-1.24674 2.8239,-2.07315c0.8623,-0.82641 1.61481,-1.72834 2.25751,-2.70578c0.64271,-0.97459 1.13813,-1.93921 1.48626,-2.89386zM275.59689,170.69917l1.5666,1.90217c-0.99084,0.28497 -2.08479,0.53432 -3.28183,0.74804c-1.19972,0.21373 -2.44899,0.39468 -3.74779,0.54287c-1.29881,0.15103 -2.60029,0.27214 -3.90445,0.36334c-1.30684,0.09404 -2.56949,0.16243 -3.78796,0.20518c-0.04017,-0.29922 -0.11381,-0.6483 -0.22093,-1.04726c-0.10712,-0.39896 -0.21424,-0.71955 -0.32135,-0.96177c1.20508,-0.05699 2.44363,-0.13536 3.71566,-0.2351c1.27203,-0.09974 2.51727,-0.22085 3.73574,-0.36334c1.21847,-0.14249 2.36061,-0.31062 3.42644,-0.50439c1.06315,-0.19093 2.00311,-0.40751 2.81988,-0.64973M262.03975,176.769h15.8267v2.18001h-15.8267v-2.18001M260.674,181.74883h18.35736v2.24413h-18.35736v-2.24413M268.74802,173.52036h2.24948v14.31968c0,0.71242 -0.09775,1.24246 -0.29324,1.59013c-0.19281,0.35051 -0.51684,0.61838 -0.9721,0.80361c-0.45525,0.17098 -1.0444,0.28497 -1.76745,0.34196c-0.72305,0.05699 -1.60008,0.07837 -2.63109,0.06412c-0.04017,-0.22798 -0.11113,-0.47732 -0.2129,-0.74804c-0.09908,-0.27072 -0.20888,-0.54571 -0.32939,-0.82498c-0.12051,-0.27642 -0.23432,-0.51437 -0.34144,-0.71385c0.5222,0.01425 1.03101,0.0285 1.52643,0.04275c0.49542,0.01425 0.93728,0.0171 1.32559,0.00855c0.3883,-0.0057 0.6561,-0.00855 0.80339,-0.00855c0.22763,0 0.39098,-0.04275 0.49007,-0.12824c0.10176,-0.08549 0.15264,-0.2351 0.15264,-0.44883zM280.89923,182.49688h18.03601v2.07315h-18.03601v-2.07315M284.89608,175.35841h10.00215v1.88079h-10.00215v-1.88079M284.91616,178.90627h10.02224v1.85942h-10.02224v-1.85942M284.01235,171.72506h12.27172v11.71222h-2.16914v-9.78868h-8.01377v9.78868h-2.0888v-11.71222M291.96587,185.38219l1.8277,-0.85491c0.57576,0.48445 1.16893,1.03301 1.7795,1.6457c0.6079,0.61268 1.17696,1.21397 1.70719,1.80385c0.52756,0.59273 0.9654,1.11708 1.31354,1.57303l-1.88796,1.04726c-0.33474,-0.48445 -0.76723,-1.03729 -1.29747,-1.65852c-0.52756,-0.61838 -1.0926,-1.24104 -1.69514,-1.86797c-0.60254,-0.62693 -1.18499,-1.18975 -1.74736,-1.68844M282.68677,190.14829c-0.04017,-0.17098 -0.10042,-0.38471 -0.18076,-0.64118c-0.08034,-0.25647 -0.16068,-0.52434 -0.24102,-0.80361c-0.08034,-0.27642 -0.16737,-0.51437 -0.2611,-0.71385c0.22763,-0.05699 0.45525,-0.15388 0.68288,-0.29067c0.22763,-0.13394 0.47534,-0.31489 0.74313,-0.54287c0.20085,-0.14249 0.49944,-0.39896 0.89577,-0.76942c0.39366,-0.37046 0.8315,-0.81928 1.31354,-1.34648c0.48203,-0.52719 0.92389,-1.08288 1.32559,-1.66707l2.20931,0.89765c-0.77661,0.92615 -1.60275,1.80528 -2.47844,2.63739c-0.87837,0.83496 -1.72594,1.53741 -2.54272,2.10734v0.04275c0,0 -0.07364,0.03562 -0.22093,0.10686c-0.14729,0.07124 -0.31734,0.15958 -0.51015,0.26502c-0.19549,0.10829 -0.36688,0.22655 -0.51417,0.35479c-0.14729,0.12824 -0.22093,0.24935 -0.22093,0.36334M282.68677,190.14829l-0.02008,-1.58158l1.28542,-0.74804l11.62901,-0.49157c0.04017,0.28497 0.10042,0.60128 0.18076,0.94895c0.08034,0.35051 0.14059,0.63263 0.18076,0.84636c-1.84779,0.09974 -3.44117,0.18808 -4.78014,0.26502c-1.33898,0.07979 -2.47041,0.14818 -3.3943,0.20518c-0.92389,0.05699 -1.68309,0.10686 -2.2776,0.14961c-0.59718,0.04275 -1.07386,0.08122 -1.43003,0.11541c-0.35349,0.03705 -0.63333,0.07694 -0.83954,0.11969c-0.20888,0.04275 -0.38696,0.09974 -0.53425,0.17098zM308.81688,179.99628l1.62686,-1.26099c0.45525,0.4417 0.94398,0.91902 1.46618,1.43197c0.5222,0.51294 1.03771,1.03301 1.54652,1.5602c0.50881,0.52719 0.98415,1.04014 1.42601,1.53883c0.44186,0.49869 0.81008,0.94752 1.10466,1.34648l-1.78753,1.49609c-0.26779,-0.4132 -0.61191,-0.87343 -1.03235,-1.38067c-0.42312,-0.50439 -0.87837,-1.03444 -1.36576,-1.59013c-0.49007,-0.55569 -0.99218,-1.1014 -1.50635,-1.63715c-0.51684,-0.53289 -1.00959,-1.03444 -1.47823,-1.50464M308.91731,170.72054h2.20931v4.87297c0,0.69817 -0.04017,1.42769 -0.12051,2.18856c-0.08034,0.76372 -0.2303,1.53313 -0.4499,2.30825c-0.22227,0.77796 -0.53693,1.54453 -0.94398,2.2997c-0.40973,0.75517 -0.94264,1.48184 -1.59874,2.18001c-0.6561,0.69817 -1.45948,1.34648 -2.41016,1.94491c-0.09373,-0.17098 -0.2303,-0.36334 -0.40973,-0.57706c-0.1821,-0.21373 -0.37357,-0.42745 -0.57442,-0.64118c-0.20085,-0.21373 -0.3883,-0.38471 -0.56237,-0.51294c0.9105,-0.51294 1.66435,-1.06578 2.26153,-1.65852c0.59451,-0.58989 1.06583,-1.20969 1.41396,-1.85942c0.34813,-0.64688 0.60656,-1.29803 0.77527,-1.95346c0.16603,-0.65543 0.27583,-1.30088 0.32939,-1.93636c0.05356,-0.63263 0.08034,-1.23391 0.08034,-1.80385v-4.85159M301.80734,174.31115h15.28441v2.24413h-13.13535v14.17008h-2.14906v-16.41421M316.12769,174.31115h2.12897v13.6785c0,0.64118 -0.07364,1.13987 -0.22093,1.49609c-0.14729,0.35621 -0.42178,0.62693 -0.82347,0.81216c-0.40169,0.18523 -0.91988,0.29494 -1.55455,0.32914c-0.63735,0.03705 -1.41128,0.05557 -2.32178,0.05557c-0.01339,-0.21373 -0.06025,-0.46022 -0.14059,-0.73949c-0.08034,-0.27642 -0.16737,-0.54999 -0.2611,-0.82071c-0.09373,-0.27072 -0.19415,-0.51294 -0.30127,-0.72667c0.41508,0.01425 0.82749,0.0285 1.23721,0.04275c0.40705,0.01425 0.77125,0.02137 1.0926,0.02137c0.32135,0 0.54229,0 0.66279,0c0.20085,-0.01425 0.33474,-0.05699 0.40169,-0.12824c0.06695,-0.07124 0.10042,-0.19948 0.10042,-0.38471zM321.43004,171.57545h4.71989v2.05178h-2.77168v16.99127h-1.94821v-19.04304M325.74823,171.57545h0.38161l0.30127,-0.08549l1.40592,0.87628c-0.29458,0.89765 -0.62932,1.8409 -1.00423,2.82974c-0.37491,0.99169 -0.73644,1.90074 -1.08457,2.72715c0.76322,0.85491 1.25864,1.66279 1.48626,2.42366c0.22763,0.76372 0.34813,1.46616 0.36152,2.10734c0,0.65543 -0.07632,1.21112 -0.22896,1.66707c-0.15532,0.45595 -0.39366,0.81216 -0.71501,1.06863c-0.16068,0.12824 -0.34412,0.22798 -0.55032,0.29922c-0.20888,0.07124 -0.42044,0.12824 -0.63467,0.17098c-0.21424,0.01425 -0.44856,0.02422 -0.70296,0.02992c-0.25441,0.00855 -0.50881,0.01282 -0.76322,0.01282c-0.01339,-0.28497 -0.06025,-0.61696 -0.14059,-0.99597c-0.08034,-0.37616 -0.20085,-0.70672 -0.36152,-0.99169c0.21424,0.01425 0.41508,0.02422 0.60254,0.02992c0.18746,0.00855 0.35483,0.01282 0.50212,0.01282c0.1339,-0.01425 0.25842,-0.03562 0.37357,-0.06412c0.11247,-0.0285 0.20888,-0.07124 0.28922,-0.12824c0.14729,-0.09974 0.25173,-0.26787 0.31332,-0.50439c0.05891,-0.23367 0.08837,-0.51437 0.08837,-0.84208c0,-0.54144 -0.12051,-1.1584 -0.36152,-1.85087c-0.24102,-0.68963 -0.72305,-1.42627 -1.44609,-2.20993c0.17407,-0.4702 0.35215,-0.98029 0.53425,-1.53028c0.17942,-0.54714 0.35349,-1.09143 0.5222,-1.63287c0.16603,-0.54144 0.32269,-1.05866 0.46998,-1.55166c0.14729,-0.49015 0.26779,-0.9062 0.36152,-1.24816v-0.61981M328.64042,173.69134h9.6808v2.11589h-9.6808v-2.11589M327.83704,178.8849h11.58884v2.18001h-11.58884v-2.18001M332.57701,170.84878h2.14906v17.44009h-2.14906v-17.44009M336.83496,182.66786h2.04863v7.88651h-2.04863v-7.88651M328.39941,182.66786h2.0888v4.85159h7.63216v2.07315h-9.72097zM341.29375,175.89272h5.94505v2.28687h-5.94505v-2.28687M351.17539,171.10525h2.24948v15.53793c0,0.58419 0.05356,0.95465 0.16068,1.11138c0.10712,0.15673 0.35483,0.2351 0.74313,0.2351c0.08034,0 0.22763,0 0.44186,0c0.21424,0 0.44856,0 0.70296,0c0.25441,0 0.48873,0 0.70296,0c0.21424,0 0.37491,0 0.48203,0c0.26779,0 0.47266,-0.12111 0.61459,-0.36334c0.13925,-0.24222 0.24236,-0.68108 0.3093,-1.31656c0.06695,-0.63263 0.12051,-1.52601 0.16068,-2.68013c0.18746,0.14249 0.40169,0.28497 0.64271,0.42745c0.24102,0.14249 0.48873,0.26645 0.74313,0.37188c0.25441,0.10829 0.48203,0.19093 0.68288,0.24792c-0.06695,1.33935 -0.19415,2.41796 -0.38161,3.23582c-0.18746,0.82071 -0.47801,1.4163 -0.87167,1.78675c-0.39634,0.37046 -0.96272,0.55569 -1.69916,0.55569c-0.10712,0 -0.29458,0 -0.56237,0c-0.26779,0 -0.55835,0 -0.87167,0c-0.316,0 -0.6012,0 -0.85561,0c-0.25441,0 -0.44186,0 -0.56237,0c-0.72305,0 -1.28809,-0.11114 -1.69514,-0.33341c-0.40973,-0.21943 -0.70162,-0.59273 -0.87569,-1.11993c-0.17407,-0.52719 -0.2611,-1.26099 -0.2611,-2.20138v-15.49518M346.17431,171.08388h2.24948v19.38501h-2.24948v-19.38501M357.80332,174.31115l1.54652,2.05178c-0.66949,0.49869 -1.38584,0.99739 -2.14906,1.49609c-0.76322,0.49869 -1.5425,0.98314 -2.33785,1.45334c-0.79803,0.4702 -1.57865,0.9119 -2.34187,1.32511c-0.08034,-0.25647 -0.20754,-0.55996 -0.38161,-0.91048c-0.17407,-0.34766 -0.34144,-0.64261 -0.50212,-0.88483c0.73644,-0.4132 1.47689,-0.88055 2.22136,-1.40205c0.74179,-0.51864 1.45413,-1.04869 2.13701,-1.59013c0.68288,-0.54144 1.28542,-1.05438 1.80762,-1.53883M340.61087,185.66003c0.54898,-0.18523 1.18232,-0.41036 1.90001,-0.67538c0.71501,-0.26217 1.47421,-0.54714 2.2776,-0.85491c0.80339,-0.30492 1.60008,-0.61411 2.39007,-0.92757l0.40169,2.07315c-1.01762,0.48445 -2.05131,0.96177 -3.10107,1.43197c-1.05244,0.4702 -2.02051,0.89765 -2.90424,1.28236zM372.54545,171.7678h5.24209v2.07315h-3.33405v16.75617h-1.90804v-18.82932M377.34568,171.7678h0.40169l0.32135,-0.08549l1.48626,0.98314c-0.33474,1.02589 -0.70966,2.11162 -1.12474,3.25719c-0.41508,1.14842 -0.81678,2.19284 -1.20508,3.13323c0.83016,0.98314 1.36977,1.89789 1.61882,2.74425c0.24637,0.84921 0.36956,1.63002 0.36956,2.34244c0,0.72667 -0.07632,1.34648 -0.22896,1.85942c-0.15532,0.51294 -0.41374,0.90478 -0.77527,1.1755c-0.17407,0.12824 -0.37491,0.23082 -0.60254,0.30777c-0.22763,0.07979 -0.46864,0.14106 -0.72305,0.1838c-0.22763,0.0285 -0.48203,0.04559 -0.76322,0.05129c-0.28118,0.00855 -0.56237,0.0057 -0.84355,-0.00855c-0.01339,-0.29922 -0.06025,-0.65543 -0.14059,-1.06863c-0.08034,-0.4132 -0.20754,-0.76942 -0.38161,-1.06863c0.25441,0.0285 0.48605,0.04559 0.69493,0.05129c0.2062,0.00855 0.39634,0.0057 0.5704,-0.00855c0.1339,0 0.26779,-0.01852 0.40169,-0.05557c0.1339,-0.0342 0.24771,-0.08692 0.34144,-0.15816c0.17407,-0.11399 0.29859,-0.30349 0.37357,-0.56851c0.0723,-0.26217 0.10846,-0.57849 0.10846,-0.94895c0,-0.61268 -0.14059,-1.30373 -0.42178,-2.07315c-0.28118,-0.76942 -0.82347,-1.59583 -1.62686,-2.47923c0.20085,-0.54144 0.40571,-1.12278 0.61459,-1.74401c0.2062,-0.61838 0.40705,-1.24531 0.60254,-1.88079c0.19281,-0.63263 0.36956,-1.22679 0.53023,-1.78248c0.16068,-0.55569 0.29458,-1.02589 0.40169,-1.4106v-0.74804M361.63949,173.13565h9.66071v2.05178h-9.66071v-2.05178M361.11729,178.8849h10.62477v2.07315h-10.62477v-2.07315M362.72406,175.65763l1.84779,-0.49157c0.28118,0.51294 0.53291,1.07861 0.75518,1.69699c0.21959,0.62123 0.37625,1.15982 0.46998,1.61577l-1.92813,0.57706c-0.08034,-0.4702 -0.22763,-1.02304 -0.44186,-1.65852c-0.21424,-0.63263 -0.44856,-1.21254 -0.70296,-1.73973M368.40801,175.10194l2.12897,0.49157c-0.18746,0.48445 -0.38161,0.97602 -0.58245,1.47471c-0.20085,0.49869 -0.395,0.97602 -0.58245,1.43197c-0.18746,0.45595 -0.37491,0.86203 -0.56237,1.21824l-1.80762,-0.4702c0.17407,-0.38471 0.35215,-0.81928 0.53425,-1.30373c0.17942,-0.48445 0.3468,-0.97602 0.50212,-1.47471c0.15264,-0.49869 0.27583,-0.95465 0.36956,-1.36785M363.22617,187.62632h6.58776v2.00903h-6.58776v-2.00903M362.10143,182.62511h8.81716v7.86514h-2.12897v-5.81336h-4.65964v5.9416h-2.02855v-7.99338M364.85303,171.14799l1.94821,-0.57706c0.21424,0.45595 0.42579,0.95465 0.63467,1.49609c0.2062,0.54144 0.35617,1.00452 0.4499,1.38922l-2.06872,0.68393c-0.08034,-0.38471 -0.21022,-0.85918 -0.38964,-1.42342c-0.1821,-0.56139 -0.37357,-1.08431 -0.57442,-1.56875z"/></g></g></svg>