<svg version="1.1" xmlns="http://www.w3.org/2000/svg" xmlns:xlink="http://www.w3.org/1999/xlink" width="208" height="32" viewBox="0,0,208,32"><g transform="translate(-240,-164)"><g stroke-miterlimit="10"><path d="M240,196v-32h208v32z" fill="none" fill-rule="nonzero" stroke="none" stroke-width="0" stroke-linecap="butt"/><path d="M359.46636,183.64084l1.43959,0.32441c0,0.40552 -0.02703,1.05435 -0.0811,1.94649l-0.02028,0.66911c-0.04055,0.55421 -0.14869,0.98338 -0.32441,1.28752c-0.17572,0.30414 -0.45959,0.52041 -0.85159,0.64883c-0.392,0.12841 -0.94621,0.19262 -1.66262,0.19262h-5.15008c-0.67586,0 -1.20642,-0.07097 -1.59166,-0.2129c-0.38524,-0.14193 -0.66573,-0.392 -0.84145,-0.75021c-0.17572,-0.35821 -0.26359,-0.87524 -0.26359,-1.55111v-6.97491l-1.70318,0.588l-0.38524,-1.43959l2.08842,-0.70966v-5.00815h1.43959v4.52153l2.51421,-0.87186v-5.43394h1.41931v4.9676l4.31877,-1.48014l-0.22304,7.2385c-0.04055,0.55421 -0.12166,0.97324 -0.24331,1.25711c-0.12166,0.28386 -0.33117,0.48662 -0.62855,0.60828c-0.29738,0.12166 -0.72993,0.18248 -1.29766,0.18248h-1.0949l-0.28386,-1.50042h0.72993c0.392,0 0.68262,-0.03041 0.87186,-0.09124c0.18924,-0.06083 0.32104,-0.17235 0.39538,-0.33455c0.07434,-0.16221 0.11828,-0.41904 0.13179,-0.77048l0.18248,-4.5418l-2.8589,0.97324v8.02926h-1.41931v-7.54264l-2.51421,0.87186v6.85326c0,0.48662 0.03379,0.84483 0.10138,1.07462c0.06759,0.22979 0.20614,0.392 0.41566,0.48662c0.20952,0.09462 0.53731,0.14193 0.98338,0.14193h4.33904c0.56773,0 0.98338,-0.03379 1.24697,-0.10138c0.26359,-0.06759 0.44945,-0.20276 0.55759,-0.40552c0.10814,-0.20276 0.17572,-0.52717 0.20276,-0.97324zM380.9791,175.20606h-10.82734l-0.14193,2.6967l-0.04055,0.62855h8.73892c-0.05407,0.87862 -0.12841,2.0749 -0.22304,3.58884c-0.09462,1.51393 -0.17572,2.71021 -0.24331,3.58884c-0.06759,0.81104 -0.21966,1.42945 -0.45621,1.85525c-0.23655,0.42579 -0.59476,0.72655 -1.07462,0.90228c-0.47986,0.17572 -1.15235,0.26359 -2.01745,0.26359h-3.20359l-0.32441,-1.52069h2.96028c0.67586,0 1.18614,-0.05745 1.53083,-0.17235c0.34469,-0.1149 0.59476,-0.31766 0.75021,-0.60828c0.15545,-0.29062 0.26021,-0.71979 0.31428,-1.28752l0.32441,-5.06898h-7.21822c-0.16221,1.35173 -0.43255,2.54463 -0.81104,3.5787c-0.37848,1.03407 -0.92255,2.01745 -1.63221,2.95015c-0.70966,0.93269 -1.64573,1.89242 -2.80821,2.87918l-1.19628,-1.29766c1.27062,-1.05435 2.24725,-2.05463 2.92987,-3.00083c0.68262,-0.94621 1.18276,-1.99042 1.50042,-3.13263c0.31766,-1.14221 0.53055,-2.59194 0.63869,-4.34918l0.14193,-2.49394h-4.9676v-1.54097h8.39423l-1.0949,-2.57504l1.66262,-0.42579c0.20276,0.41904 0.63531,1.41931 1.29766,3.00083h7.09657zM300.15932,183.62057h-10.07713c-1.02731,1.13545 -2.28442,2.31145 -3.77132,3.52801l9.10388,-0.34469l-2.23035,-2.10869l0.99352,-0.99352c0.58124,0.52717 1.13883,1.04083 1.67276,1.54097c0.53393,0.50014 1.00366,0.93945 1.40918,1.31793c1.45987,1.37876 2.06138,1.93973 1.80456,1.6829l-1.05435,1.15573c-0.22979,-0.24331 -0.64883,-0.66911 -1.25711,-1.27738l-12.53051,0.54745l-0.38524,-1.43959c1.59504,-1.13545 2.99408,-2.33849 4.19711,-3.60911h-5.81919v-1.37876h2.67642v-10.54347h12.53051v10.54347h2.73725zM263.21661,189.17617v-17.21425h15.42997v14.19314c0,0.784 -0.08786,1.37538 -0.26359,1.77414c-0.17572,0.39876 -0.46635,0.67248 -0.87186,0.82117c-0.40552,0.14869 -1.00028,0.22304 -1.78428,0.22304h-2.51421l-0.28386,-1.54097h2.33173c0.54069,0 0.93607,-0.04055 1.18614,-0.12166c0.25007,-0.0811 0.41904,-0.23993 0.5069,-0.47648c0.08786,-0.23655 0.13179,-0.61166 0.13179,-1.12531v-12.24665h-12.30748v15.71383zM324.04434,189.17617v-17.21425h15.42997v14.19314c0,0.784 -0.08786,1.37538 -0.26359,1.77414c-0.17572,0.39876 -0.46635,0.67248 -0.87186,0.82117c-0.40552,0.14869 -1.00028,0.22304 -1.78428,0.22304h-2.51421l-0.28386,-1.54097h2.33173c0.54069,0 0.93607,-0.04055 1.18614,-0.12166c0.25007,-0.0811 0.41904,-0.23993 0.5069,-0.47648c0.08786,-0.23655 0.13179,-0.61166 0.13179,-1.12531v-12.24665h-12.30748v15.71383zM275.86877,184.8574l-1.176,1.0949c-1.06786,-1.27062 -2.30469,-2.71697 -3.71049,-4.33904c-1.52745,1.71669 -3.03463,3.21035 -4.52153,4.48098l-0.97324,-1.23683c1.568,-1.32469 3.06166,-2.7778 4.48098,-4.35932c-1.74373,-1.96 -3.10897,-3.46718 -4.09573,-4.52153l1.07462,-0.97324c1.31118,1.36525 2.64939,2.81159 4.01463,4.33904c1.23007,-1.4869 2.33173,-3.01435 3.30497,-4.58236l1.27738,0.87186c-1.04083,1.60856 -2.23035,3.21711 -3.56856,4.82567c1.10842,1.21655 2.40607,2.68318 3.89297,4.39987zM336.69651,184.8574l-1.176,1.0949c-1.06786,-1.27062 -2.30469,-2.71697 -3.71049,-4.33904c-1.52745,1.71669 -3.03463,3.21035 -4.52153,4.48098l-0.97324,-1.23683c1.568,-1.32469 3.06166,-2.7778 4.48098,-4.35932c-1.74373,-1.96 -3.10897,-3.46718 -4.09573,-4.52153l1.07462,-0.97324c1.31118,1.36525 2.64939,2.81159 4.01463,4.33904c1.23007,-1.4869 2.33173,-3.01435 3.30497,-4.58236l1.27738,0.87186c-1.04083,1.60856 -2.23035,3.21711 -3.56856,4.82567c1.10842,1.21655 2.40607,2.68318 3.89297,4.39987zM247.19864,174.57751v1.54097c-0.48662,1.13545 -0.97324,2.13573 -1.45987,3.00083c1.32469,1.08138 2.15601,1.77076 2.49394,2.06814l-0.89214,1.15573c-0.27035,-0.27035 -0.85159,-0.784 -1.74373,-1.54097v8.53616h-1.41931v-7.8265c-0.68938,0.89214 -1.41931,1.70994 -2.1898,2.45339l-0.62855,-1.52069c0.90566,-0.90566 1.73697,-1.91945 2.49394,-3.04139c0.75697,-1.12193 1.35849,-2.25063 1.80456,-3.38608h-3.81187v-1.43959zM308.02637,174.57751v1.54097c-0.48662,1.13545 -0.97324,2.13573 -1.45987,3.00083c1.32469,1.08138 2.15601,1.77076 2.49394,2.06814l-0.89214,1.15573c-0.27035,-0.27035 -0.85159,-0.784 -1.74373,-1.54097v8.53616h-1.41931v-7.8265c-0.68938,0.89214 -1.41931,1.70994 -2.1898,2.45339l-0.62855,-1.52069c0.90566,-0.90566 1.73697,-1.91945 2.49394,-3.04139c0.75697,-1.12193 1.35849,-2.25063 1.80456,-3.38608h-3.81187v-1.43959zM346.85474,177.6189v7.01547l2.33173,-0.75021l0.12166,0.75021l0.0811,0.64883l-6.02195,1.96676l-0.38524,-1.35849l2.43311,-0.79076v-7.48181h-2.12897v-1.48014h2.12897v-4.86622h1.43959v4.86622h1.72345v1.48014zM249.87506,188.40568v0.97324h-1.45987v-8.73892h10.38127v8.73892h-1.45987v-0.97324zM310.70279,188.40568v0.97324h-1.45987v-8.73892h10.38127v8.73892h-1.45987v-0.97324zM257.96515,179.09904h-8.71864v-4.29849h8.71864zM318.79288,179.09904h-8.71864v-4.29849h8.71864zM259.1817,173.34068h-11.1923v-1.39904h11.1923zM320.00943,173.34068h-11.1923v-1.39904h11.1923zM295.9622,182.24181v-2.23035h-9.59051v2.23035zM286.3717,176.54427v2.14925h9.59051v-2.14925zM286.3717,175.26689h9.59051v-2.12897h-9.59051zM311.49355,176.03738v1.82483h5.85974v-1.82483zM250.66582,176.03738v1.82483h5.85974v-1.82483zM318.16433,185.08043h-3.06166v2.06814h3.06166zM257.33659,185.08043h-3.06166v2.06814h3.06166zM252.91644,185.08043h-3.04139v2.06814h3.04139zM313.74418,185.08043h-3.04139v2.06814h3.04139zM315.10266,181.89712v1.92621h3.06166v-1.92621zM254.27493,181.89712v1.92621h3.06166v-1.92621zM249.87506,183.82333h3.04139v-1.92621h-3.04139zM310.70279,183.82333h3.04139v-1.92621h-3.04139zM245.96181,173.68537l-1.35849,0.60828c-0.392,-1.12193 -0.79752,-2.14249 -1.21655,-3.06166l1.33821,-0.588l0.60828,1.52069zM306.78954,173.68537l-1.35849,0.60828c-0.392,-1.12193 -0.79752,-2.14249 -1.21655,-3.06166l1.33821,-0.588l0.60828,1.52069z" fill="#ffffff" fill-rule="evenodd" stroke="#ffffff" stroke-width="0.5" stroke-linecap="round"/></g></g></svg>