<svg version="1.1" xmlns="http://www.w3.org/2000/svg" xmlns:xlink="http://www.w3.org/1999/xlink" width="208" height="32" viewBox="0,0,208,32"><g transform="translate(-240,-164)"><g stroke-miterlimit="10"><path d="M240,196v-32h208v32z" fill="none" fill-rule="nonzero" stroke="none" stroke-width="0" stroke-linecap="butt"/><path d="M278.73702,175.08577h-6.47532c0.76655,2.04131 1.73146,3.87775 2.89473,5.50931c1.16327,1.63156 2.59887,3.23704 4.30679,4.81645l-1.08931,1.60921c-1.58689,-1.51981 -3.00232,-3.22214 -4.24628,-5.107c-1.24396,-1.88486 -2.23577,-3.8852 -2.97542,-6.00101v8.6495h4.05464v1.67626h-4.05464v3.93362h-1.57344v-3.93362h-4.01429v-1.67626h4.01429v-8.85065c-0.73965,2.11581 -1.68103,4.07145 -2.82413,5.86691c-1.1431,1.79546 -2.6224,3.66914 -4.43791,5.62106l-1.04896,-1.54216c1.74827,-1.74331 3.19059,-3.43819 4.32697,-5.08465c1.13638,-1.64646 2.08784,-3.47544 2.85438,-5.48695h-6.43497v-1.72096h7.56462v-3.66542h1.57344v3.66542h7.5848zM319.26324,179.3323h-7.70583c0.53793,2.04131 1.44232,3.75482 2.71318,5.14053c1.27086,1.38571 3.02921,2.61496 5.27506,3.68777l-0.84724,1.85506c-2.16516,-1.20691 -3.86973,-2.45851 -5.11369,-3.75482c-1.24396,-1.29631 -2.17525,-2.81612 -2.79387,-4.55942c-1.15655,3.29292 -3.8193,6.10158 -7.98824,8.426l-0.90775,-1.67626c2.36689,-1.26651 4.19584,-2.64849 5.48687,-4.14595c1.29103,-1.49746 2.07103,-3.15509 2.33999,-4.9729h-7.64531v-1.67626h7.74618v-4.87233h-6.65687v-1.60921h14.98804v1.60921h-6.69721v4.87233h7.80669zM299.47418,183.75762h-10.02565c-1.02206,1.25161 -2.27275,2.54791 -3.75205,3.88892l9.05738,-0.37995l-2.21896,-2.32441l0.98844,-1.09516c0.57827,0.5811 1.13301,1.14731 1.66422,1.69861c0.53121,0.5513 0.99853,1.03556 1.40198,1.45276c1.45241,1.51981 2.05085,2.13816 1.79534,1.85506l-1.04896,1.27396c-0.22862,-0.2682 -0.64551,-0.73755 -1.25068,-1.40806l-12.4665,0.60345l-0.38327,-1.58686c1.58689,-1.25161 2.97878,-2.57771 4.17567,-3.97832h-5.78946v-1.51981h2.66275v-11.62206h12.4665v11.62206h2.72326zM331.62888,183.40002v2.03386h8.12945v1.56451h-8.12945v3.33017h-1.5331v-3.33017h-8.06893v-1.56451h8.06893v-2.03386h-5.80963v-7.95664h13.15236v7.95664zM388.53502,182.37191l1.59361,0.42465c0,0.5215 -0.04707,1.75076 -0.14121,3.68777c-0.04034,0.7152 -0.14457,1.26278 -0.31267,1.64273c-0.1681,0.37995 -0.44043,0.64815 -0.81698,0.8046c-0.37655,0.15645 -0.90775,0.23468 -1.59361,0.23468h-2.07775c-0.68586,0 -1.21034,-0.08195 -1.57344,-0.24585c-0.3631,-0.1639 -0.61862,-0.45445 -0.76655,-0.87165c-0.14793,-0.4172 -0.2219,-1.02811 -0.2219,-1.83271v-16.51674h1.55327v7.39789c0.80689,-0.5364 1.65749,-1.14358 2.5518,-1.82153c0.89431,-0.67795 1.68439,-1.31493 2.37025,-1.91094l0.90775,1.54216c-1.15655,0.9536 -3.09981,2.38401 -5.8298,4.29122v6.83914c0,0.4023 0.03362,0.7003 0.10086,0.894c0.06724,0.1937 0.18828,0.3278 0.3631,0.4023c0.17483,0.0745 0.44379,0.11175 0.80689,0.11175h1.41206c0.60517,0 1.01534,-0.09685 1.23051,-0.29055c0.21517,-0.1937 0.32948,-0.57365 0.34293,-1.13986c0.0269,-0.4917 0.05043,-1.10261 0.0706,-1.83271c0.02017,-0.7301 0.03026,-1.33356 0.03026,-1.81036zM372.76026,177.18668v-1.76566h5.00274v-5.74398h1.57344v20.18216h-1.57344v-4.24652l-4.8817,2.48086l-0.585,-1.69861l5.4667,-2.77142v-6.43684zM360.1929,174.50467l1.47258,-0.42465c0.17483,0.4917 0.42362,1.29631 0.74638,2.41381h5.80963v6.88384h-12.14374c-0.09414,1.43041 -0.33957,2.64104 -0.73629,3.63189c-0.39672,0.99086 -1.0456,2.05249 -1.94663,3.18489l-1.3112,-1.11751c0.78,-0.9536 1.3381,-1.75821 1.6743,-2.41381c0.33621,-0.6556 0.56483,-1.41178 0.68586,-2.26854c0.12103,-0.85676 0.18155,-2.10464 0.18155,-3.74365v-4.15712h6.17273c-0.24207,-0.8493 -0.44379,-1.51236 -0.60517,-1.98916zM364.06599,169.65469h1.5331v2.10091h4.43791v1.58686h-4.43791v1.74331h-1.5331v-1.74331h-5.38601v1.76566h-1.51292v-1.76566h-4.80101v-1.58686h4.80101v-2.10091h1.51292v2.10091h5.38601zM328.60303,173.11896v1.56451h-1.47258v-1.56451h-4.90188v-1.51981h4.90188v-1.92211h1.47258v1.92211h4.55895v-1.92211h1.45241v1.92211h4.8817v1.51981h-4.8817v1.56451h-1.45241v-1.56451zM256.34573,184.80808h-2.98551c-0.68586,0 -1.17336,-0.16018 -1.46249,-0.48053c-0.28914,-0.32035 -0.43371,-0.87538 -0.43371,-1.66508v-4.98408h1.39189v2.50321c0.87413,-0.3427 1.75835,-0.72265 2.65266,-1.13986c0.89431,-0.4172 1.61715,-0.79715 2.16853,-1.13986l0.585,1.34101c-0.63207,0.3427 -1.46586,0.74128 -2.50137,1.19573c-1.03551,0.45445 -2.00379,0.85303 -2.90482,1.19573v0.4917c0,0.5066 0.09078,0.84558 0.27233,1.01693c0.18155,0.17135 0.50767,0.25703 0.97836,0.25703h1.75499c0.55138,0 0.92793,-0.08195 1.12965,-0.24585c0.20172,-0.1639 0.32948,-0.5066 0.38327,-1.02811c0.0269,-0.2831 0.04707,-0.59228 0.06052,-0.92753c0.01345,-0.33525 0.02017,-0.61463 0.02017,-0.83813l1.35155,0.4023l-0.16138,2.10091c-0.06724,0.7301 -0.26896,1.23671 -0.60517,1.51981c-0.33621,0.2831 -0.90103,0.42465 -1.69448,0.42465zM256.26505,177.05258h-3.00568c-0.63207,0 -1.08931,-0.16018 -1.37172,-0.48053c-0.28241,-0.32035 -0.42362,-0.83068 -0.42362,-1.53098v-5.29698h1.39189v2.72671c0.87413,-0.3278 1.76172,-0.6854 2.66275,-1.07281c0.90103,-0.3874 1.58017,-0.7003 2.03741,-0.93871l0.62534,1.29631c-0.61862,0.298 -1.46922,0.6705 -2.5518,1.11751c-1.08258,0.447 -2.00715,0.8046 -2.7737,1.07281v0.55875c0,0.447 0.08405,0.75245 0.25215,0.91636c0.1681,0.1639 0.46733,0.24585 0.89767,0.24585h1.79534c0.53793,0 0.91112,-0.07823 1.11956,-0.23468c0.20845,-0.15645 0.33284,-0.47308 0.37319,-0.94988c0.05379,-0.9536 0.08069,-1.51981 0.08069,-1.69861l1.3112,0.42465l-0.14121,1.98916c-0.06724,0.6854 -0.27233,1.16593 -0.61526,1.44158c-0.34293,0.27565 -0.89767,0.41348 -1.66422,0.41348zM243.93975,185.05393h-1.35155v-9.2306h7.14101v7.24144c0,0.7152 -0.13784,1.20691 -0.41353,1.47511c-0.27569,0.2682 -0.76991,0.4023 -1.48267,0.4023h-1.55327l-0.24207,-1.27396h1.5331c0.26896,0 0.45724,-0.02607 0.56483,-0.07823c0.10759,-0.05215 0.17819,-0.13783 0.21181,-0.25703c0.03362,-0.1192 0.05043,-0.3129 0.05043,-0.5811v-0.64815h-4.45809zM246.98577,171.71091l0.84724,-0.894c0.52448,0.5811 1.2843,1.46766 2.27947,2.65966c0.25552,0.2831 0.53121,0.60345 0.82707,0.96106l-0.96827,1.00576l-0.82707,-1.05046l-6.97963,0.42465l-0.30258,-1.34101c0.73965,-0.5662 1.47258,-1.23671 2.19878,-2.01151c0.7262,-0.7748 1.27086,-1.47511 1.63396,-2.10091l1.23051,0.7599c-0.45724,0.6109 -0.975,1.23298 -1.55327,1.86624c-0.57827,0.63325 -1.08258,1.12868 -1.51292,1.48628l4.33705,-0.2682zM356.13826,181.25441v0.55875h10.52996v-3.75482h-10.52996zM325.7789,178.72884h10.16686v-1.85506h-10.16686zM335.94576,181.94726v-1.85506h-10.16686v1.85506zM295.29851,182.23781v-2.45851h-9.54151v2.45851zM285.75699,175.95743v2.36911h9.54151v-2.36911zM285.75699,174.54937h9.54151v-2.34676h-9.54151zM243.01182,190.35091l-1.43224,-0.8046c0.83379,-1.34101 1.46586,-2.69691 1.8962,-4.06772l1.33137,0.6258c-0.37655,1.35591 -0.975,2.77142 -1.79534,4.24652zM243.93975,178.41594h4.45809v-1.36336h-4.45809zM248.39784,179.6005h-4.45809v1.34101h4.45809zM255.45815,186.14908l1.27086,-0.7599c0.92793,1.53471 1.62723,2.80866 2.09792,3.82187l-1.43224,0.82695c-0.67241,-1.57941 -1.31793,-2.87572 -1.93654,-3.88892zM246.68319,186.17143l1.41206,-0.33525l0.26224,0.96106c0.37655,1.44531 0.60517,2.38401 0.68586,2.81612l-1.51292,0.3576c-0.08069,-0.5811 -0.29586,-1.57196 -0.64551,-2.97257zM251.18162,186.19378l1.33137,-0.4917c0.24207,0.596 0.49758,1.24043 0.76655,1.93329c0.26896,0.69285 0.47069,1.27023 0.60517,1.73213l-1.47258,0.4917c-0.12103,-0.5066 -0.27905,-1.04301 -0.47405,-1.60921c-0.195,-0.5662 -0.44715,-1.25161 -0.75646,-2.05621zM347.06071,178.79589v2.32441h-2.09792v-2.32441z" fill="#ffffff" fill-rule="evenodd" stroke="#ffffff" stroke-width="0.5" stroke-linecap="round"/></g></g></svg>