<svg version="1.1" xmlns="http://www.w3.org/2000/svg" xmlns:xlink="http://www.w3.org/1999/xlink" width="224" height="344" viewBox="0,0,224,344"><g transform="translate(-128,-8)"><g stroke="none" stroke-miterlimit="10"><path d="M138,8h204c5.54,0 10,4.46 10,10v324c0,5.54 -4.46,10 -10,10h-204c-5.54,0 -10,-4.46 -10,-10v-324c0,-5.54 4.46,-10 10,-10z" fill-opacity="0.8" fill="#1d2a41" fill-rule="evenodd" stroke-width="12" stroke-linecap="round" stroke-linejoin="round"/><path d="M188.37131,154.67376h4.08112v17.53778c0,0.78436 0.11029,1.37262 0.3309,1.7648c0.22061,0.39218 0.67406,0.64954 1.36037,0.7721c0.68632,0.12256 1.70353,0.18384 3.05165,0.18384c0.36767,0 0.96329,0 1.78687,0c0.81868,0 1.75499,0 2.80898,0c1.05399,0 2.11532,0 3.18401,0c1.06378,0 2.02463,0 2.88252,0c0.85789,0 1.5197,0 1.98541,0c0.98045,0 1.76481,-0.08579 2.35307,-0.25736c0.58827,-0.17157 1.04908,-0.49022 1.38244,-0.95594c0.32845,-0.46571 0.58581,-1.12752 0.7721,-1.98541c0.18138,-0.85789 0.33335,-1.98542 0.45591,-3.38255c0.36767,0.22061 0.78436,0.43385 1.25008,0.63975c0.46571,0.21079 0.94368,0.40199 1.4339,0.57356c0.49022,0.17157 0.93143,0.29414 1.32361,0.36767c-0.19609,1.71579 -0.46571,3.14969 -0.80887,4.30171c-0.34315,1.15203 -0.83338,2.06385 -1.47067,2.73546c-0.63729,0.67651 -1.48293,1.16183 -2.53692,1.45597c-1.05399,0.29414 -2.40209,0.4412 -4.04434,0.4412c-0.26962,0 -0.73534,0 -1.39714,0c-0.6618,0 -1.42654,0 -2.29424,0c-0.87259,0 -1.77461,0 -2.70604,0c-0.93142,0 -1.82609,0 -2.68398,0c-0.85789,0 -1.61039,0 -2.25748,0c-0.652,0 -1.10055,0 -1.34567,0c-2.27954,0 -4.06886,-0.19118 -5.36795,-0.57356c-1.29909,-0.37748 -2.21091,-1.04418 -2.73546,-2.00011c-0.52944,-0.95594 -0.79416,-2.31631 -0.79416,-4.08112v-17.53778M190.68762,159.96818h20.69972v3.89729h-20.69972v-3.89729M186.75357,147.68806h27.28098v17.90544h-4.11789v-13.97139h-23.16309zM238.88892,149.48964h13.30959v3.71346h-13.30959v-3.71346M251.02197,149.48964h0.66181l0.6618,-0.11029l2.4266,0.62503c-0.51474,5.0248 -1.42165,9.44907 -2.72074,13.27282c-1.29909,3.82375 -2.93399,7.10824 -4.9047,9.8535c-1.97561,2.74526 -4.27476,5.01255 -6.89746,6.80187c-0.29414,-0.46571 -0.68631,-0.99271 -1.17653,-1.58098c-0.49022,-0.58827 -0.94368,-1.05398 -1.36037,-1.39714c2.35308,-1.42165 4.44387,-3.40706 6.27241,-5.95623c1.82363,-2.54916 3.33597,-5.57139 4.53703,-9.06669c1.20105,-3.4904 2.03443,-7.35582 2.50015,-11.59626v-0.84564M243.66861,152.28392c0.53924,3.57864 1.33095,6.94157 2.37514,10.08881c1.03928,3.15214 2.37514,5.94642 4.00758,8.38284c1.62754,2.44132 3.63011,4.3728 6.0077,5.79445c-0.29414,0.22061 -0.60542,0.51474 -0.93387,0.88241c-0.33336,0.36767 -0.65935,0.74759 -0.978,1.13977c-0.31865,0.39218 -0.57602,0.74759 -0.7721,1.06624c-2.52465,-1.71579 -4.63997,-3.89238 -6.34596,-6.52979c-1.70108,-2.63251 -3.09086,-5.65964 -4.16935,-9.0814c-1.0785,-3.41686 -1.94864,-7.13522 -2.61045,-11.15506l3.41932,-0.58827M221.86588,147.0998h16.80244v3.52961h-16.80244v-3.52961M226.09407,154.78406h9.00787v3.38254h-9.00787v-3.38254M226.0573,162.54186h9.22848v3.38254h-9.22848v-3.38254M224.03512,149.12196h3.75021v23.42047l-3.75021,0.40443v-23.8249M221.46145,171.43943c1.47068,-0.19609 3.18155,-0.42894 5.13264,-0.69857c1.94619,-0.26962 4.01004,-0.57111 6.19154,-0.90447c2.1815,-0.32845 4.35074,-0.65199 6.50772,-0.97064l0.18383,3.30902c-2.00992,0.39218 -4.037,0.76474 -6.08123,1.11771c-2.04914,0.35786 -4.02229,0.69612 -5.91946,1.01477c-1.90207,0.31865 -3.63746,0.61278 -5.20618,0.88241l-0.80887,-3.75022M232.49149,149.08521h3.86051v30.73706h-3.86051zM273.3762,162.61539h14.89056v3.34579h-14.89056v-3.34579M273.30266,169.08636h14.96409v3.30902h-14.96409v-3.30902M288.08292,146.438l3.82375,1.39713c-0.58826,1.27459 -1.22557,2.52956 -1.91188,3.76493c-0.68631,1.24026 -1.32361,2.3016 -1.91187,3.18401l-3.41931,-1.28684c0.39218,-0.63729 0.80152,-1.36037 1.22801,-2.16924c0.4314,-0.80887 0.84319,-1.64226 1.23537,-2.50015c0.39218,-0.85789 0.71082,-1.6545 0.95594,-2.38984M269.66274,148.16603l3.30901,-1.47067c0.51473,0.68632 1.01722,1.42165 1.50744,2.20601c0.49022,0.78436 0.93143,1.56136 1.32361,2.33102c0.39218,0.77455 0.67406,1.48048 0.84564,2.11777l-3.56638,1.69127c-0.14706,-0.61279 -0.40443,-1.3187 -0.7721,-2.11777c-0.36767,-0.79416 -0.77701,-1.60793 -1.22802,-2.44132c-0.4559,-0.83338 -0.92898,-1.60548 -1.4192,-2.31631M270.76574,155.88707h17.61131v3.67668h-13.75079v20.29528h-3.86052v-23.97196M286.50195,155.88707h3.82374v19.59671c0,0.95594 -0.1103,1.72069 -0.3309,2.29425c-0.2206,0.57846 -0.6618,1.02702 -1.32361,1.34566c-0.66181,0.29414 -1.48783,0.47062 -2.47808,0.52945c-0.99516,0.06373 -2.17905,0.09559 -3.55167,0.09559c-0.07353,-0.51474 -0.2255,-1.13487 -0.45591,-1.8604c-0.23531,-0.72063 -0.48777,-1.33831 -0.7574,-1.85305c0.90692,0.04902 1.78196,0.07844 2.62515,0.08824c0.84809,0.0147 1.40694,0.0098 1.67657,-0.01471c0.51473,-0.02451 0.77211,-0.24511 0.77211,-0.6618v-19.55994M278.70738,145.51882h3.97082v12.79485h-3.97082v-12.79485M259.80924,148.644l2.27954,-2.75751c0.75985,0.36767 1.55647,0.78927 2.38985,1.26478c0.83338,0.48042 1.62508,0.97799 2.37513,1.49273c0.74514,0.51474 1.35057,1.00495 1.81628,1.47067l-2.46337,3.05165c-0.41669,-0.46571 -0.98536,-0.9682 -1.70598,-1.50744c-0.72553,-0.53924 -1.49763,-1.0785 -2.3163,-1.61774c-0.82358,-0.53924 -1.61529,-1.00496 -2.37514,-1.39714M258.08119,158.42398l2.24277,-2.79428c0.78436,0.36767 1.60058,0.79662 2.44867,1.28684c0.84319,0.49022 1.65205,0.98535 2.42661,1.48538c0.76966,0.50493 1.38734,0.99025 1.85305,1.45596l-2.38984,3.08841c-0.4412,-0.46571 -1.02947,-0.97555 -1.76481,-1.52949c-0.73534,-0.54905 -1.5246,-1.0883 -2.36778,-1.61774c-0.84809,-0.52454 -1.66431,-0.9829 -2.44867,-1.37508M259.14743,177.13829c0.61278,-0.95594 1.27949,-2.08346 2.00011,-3.38255c0.72553,-1.29909 1.46087,-2.67907 2.20602,-4.13994c0.75005,-1.45596 1.45596,-2.89477 2.11776,-4.31642l2.90458,2.38984c-0.56376,1.29909 -1.16428,2.63986 -1.80158,4.02229c-0.63729,1.38733 -1.29174,2.75506 -1.96334,4.10318c-0.67651,1.34812 -1.34567,2.62269 -2.00747,3.82375z" fill="#ffffff" fill-rule="nonzero" stroke-width="1" stroke-linecap="butt" stroke-linejoin="miter"/><path d="M146.42177,198.16766l1.67354,-1.24443c0.34329,0.37189 0.70088,0.78242 1.07278,1.23155c0.37189,0.452 0.72234,0.89541 1.05132,1.33025c0.32898,0.43769 0.58645,0.82818 0.7724,1.17147l-1.78081,1.41607c-0.18595,-0.3576 -0.43626,-0.76238 -0.75095,-1.21438c-0.31468,-0.44914 -0.65081,-0.91401 -1.00841,-1.39461c-0.3576,-0.47774 -0.70089,-0.90972 -1.02987,-1.29592M148.46005,216.64093l-0.47202,-2.14556l0.53638,-0.7724l3.84056,-2.7034c0.07152,0.31468 0.17164,0.66798 0.30037,1.0599c0.12874,0.39479 0.24317,0.7066 0.34329,0.93546c-0.88683,0.67228 -1.60917,1.21582 -2.16702,1.63063c-0.55784,0.41481 -0.9941,0.75095 -1.30879,1.00841c-0.31468,0.25746 -0.55069,0.45772 -0.70803,0.60076c-0.15734,0.14304 -0.27892,0.27177 -0.36474,0.3862M145.17734,203.35992h4.52713v2.20992h-4.52713v-2.20992M148.46005,216.64093c-0.07152,-0.15734 -0.1788,-0.34043 -0.32184,-0.54927c-0.14304,-0.20597 -0.29752,-0.40908 -0.46344,-0.60933c-0.16306,-0.20025 -0.30896,-0.3576 -0.43769,-0.47203c0.15734,-0.12874 0.31897,-0.30038 0.4849,-0.51494c0.16306,-0.21455 0.30467,-0.47202 0.42482,-0.7724c0.12301,-0.30038 0.18452,-0.63652 0.18452,-1.00841v-9.35464h2.23138v10.66343c0,0 -0.07151,0.06436 -0.21455,0.1931c-0.14304,0.12874 -0.31897,0.29323 -0.52781,0.49348c-0.20597,0.20025 -0.41624,0.41767 -0.6308,0.65225c-0.21455,0.23745 -0.38906,0.4706 -0.52352,0.69946c-0.13732,0.22886 -0.20597,0.42196 -0.20597,0.5793M152.06459,199.21899h12.61589v2.10265h-12.61589v-2.10265M158.39398,212.52145l1.69499,-1.28733c0.50063,0.37189 1.04846,0.78957 1.6435,1.25301c0.59217,0.4663 1.15717,0.92831 1.69499,1.38603c0.53496,0.45772 0.98123,0.86538 1.33883,1.22297l-1.80227,1.45898c-0.31468,-0.3576 -0.73235,-0.77669 -1.25301,-1.2573c-0.52352,-0.47774 -1.07421,-0.95978 -1.65208,-1.44611c-0.58073,-0.48632 -1.13572,-0.92974 -1.66496,-1.33025M161.16176,202.60897l2.25284,0.7724c-0.71518,1.20152 -1.58056,2.34581 -2.59613,3.4329c-1.01557,1.08709 -2.14842,2.0769 -3.39856,2.96945c-1.25301,0.89542 -2.609,1.65065 -4.06798,2.26571c-0.08582,-0.18595 -0.2074,-0.39049 -0.36474,-0.61363c-0.15734,-0.22028 -0.31897,-0.44198 -0.48489,-0.66512c-0.16306,-0.22028 -0.31611,-0.40193 -0.45915,-0.54497c1.35886,-0.52924 2.63189,-1.19436 3.8191,-1.99537c1.18721,-0.80101 2.23853,-1.68497 3.15397,-2.65191c0.91544,-0.96407 1.63062,-1.95389 2.14556,-2.96946M162.42764,206.81427l2.40302,0.90113c-0.87253,1.34455 -1.92672,2.59613 -3.16255,3.75473c-1.2387,1.1586 -2.6233,2.19848 -4.1538,3.11964c-1.5305,0.92402 -3.18258,1.68641 -4.95624,2.28717c-0.10012,-0.20025 -0.23315,-0.42195 -0.39908,-0.66512c-0.16306,-0.24317 -0.33041,-0.48346 -0.50206,-0.72091c-0.17165,-0.23458 -0.32898,-0.43054 -0.47203,-0.58788c1.67353,-0.51494 3.24409,-1.18721 4.71165,-2.01683c1.4647,-0.82961 2.75918,-1.76365 3.88346,-2.8021c1.12142,-1.03559 2.00395,-2.12553 2.64762,-3.26983M153.11591,207.1361c-0.0286,-0.20025 -0.08582,-0.43626 -0.17165,-0.70803c-0.08582,-0.27177 -0.17451,-0.54783 -0.26605,-0.82818c-0.0944,-0.27749 -0.17021,-0.50206 -0.22743,-0.67371c0.25746,-0.07152 0.56071,-0.16163 0.90972,-0.27034c0.35187,-0.10584 0.62794,-0.25889 0.82819,-0.45915c0.14304,-0.14304 0.33613,-0.37619 0.5793,-0.69946c0.24317,-0.3204 0.50492,-0.68515 0.78528,-1.09423c0.27749,-0.40623 0.54497,-0.79958 0.80244,-1.18006c0.25746,-0.37762 0.45771,-0.68801 0.60075,-0.93117h2.59613c-0.24317,0.37189 -0.51922,0.79672 -0.82818,1.27446c-0.3061,0.4806 -0.63366,0.97409 -0.98266,1.48044c-0.35187,0.50921 -0.68801,0.99554 -1.00842,1.45898c-0.32326,0.4663 -0.62078,0.8711 -0.89255,1.21439c0,0 -0.08868,0.0286 -0.26605,0.08582c-0.18023,0.05722 -0.40623,0.13589 -0.678,0.23602c-0.27177,0.10012 -0.54354,0.21026 -0.81531,0.33041c-0.27177,0.12301 -0.50063,0.24889 -0.68658,0.37762c-0.18595,0.12874 -0.27892,0.25746 -0.27892,0.3862M153.11591,207.1361l-0.04291,-1.67354l1.1586,-0.66512l6.35086,-0.32183c-0.12874,0.28608 -0.25318,0.61792 -0.37333,0.99554c-0.12301,0.38048 -0.21312,0.6923 -0.27034,0.93546c-1.34455,0.08582 -2.43449,0.16449 -3.26983,0.23601c-0.8382,0.07152 -1.48902,0.13159 -1.95246,0.18023c-0.4663,0.05149 -0.81388,0.10156 -1.04274,0.15019c-0.22886,0.05149 -0.4148,0.10585 -0.55784,0.16306M156.84918,197.20216l2.2743,-0.55784c0.25746,0.44341 0.50063,0.93975 0.72949,1.48902c0.22886,0.55212 0.3862,1.03559 0.47202,1.4504l-2.40302,0.62222c-0.05722,-0.40051 -0.1931,-0.88397 -0.40766,-1.4504c-0.21455,-0.56357 -0.43627,-1.08136 -0.66513,-1.55339zM179.12009,196.77305h2.16702v15.08328h-2.16702v-15.08328M172.6405,205.46256l11.24273,-4.76314l0.85822,1.97392l-11.24273,4.82751l-0.85823,-2.03829M174.82897,198.83279h2.18847v14.03196c0,0.40051 0.03576,0.70374 0.10728,0.90972c0.07152,0.20883 0.2217,0.34901 0.45056,0.42053c0.22886,0.07152 0.565,0.10728 1.00842,0.10728c0.12874,0 0.34043,0 0.63509,0c0.2918,0 0.62364,0 0.99554,0c0.37189,0 0.74809,0 1.12857,0c0.37762,0 0.72091,0 1.02987,0c0.3061,0 0.53066,0 0.6737,0c0.40051,0 0.70088,-0.07581 0.90114,-0.22743c0.20025,-0.14876 0.35044,-0.42339 0.45056,-0.82389c0.10012,-0.40051 0.17165,-0.97981 0.21456,-1.7379c0.25746,0.18595 0.58359,0.3576 0.97837,0.51494c0.39192,0.15734 0.74522,0.26461 1.0599,0.32183c-0.10012,1.01557 -0.26461,1.81229 -0.49347,2.39015c-0.22886,0.58073 -0.57215,0.99554 -1.02987,1.24443c-0.45772,0.25174 -1.09423,0.37762 -1.90954,0.37762c-0.14304,0 -0.37476,0 -0.69517,0c-0.32326,0 -0.6923,0 -1.10711,0c-0.41481,0 -0.82533,0 -1.23155,0c-0.40909,0 -0.77383,0 -1.09423,0c-0.32326,0 -0.54926,0 -0.678,0c-0.91544,0 -1.63778,-0.10013 -2.16701,-0.30038c-0.52924,-0.20025 -0.89684,-0.55499 -1.10281,-1.0642c-0.20883,-0.50635 -0.31325,-1.2244 -0.31325,-2.15414v-14.0105M183.45412,200.95689h-0.17165l0.42911,-0.32183l0.42911,-0.27892l1.58771,0.57931l-0.08582,0.3862c0,1.01557 -0.00287,1.94817 -0.00859,2.79781c-0.00858,0.8525 -0.01573,1.60774 -0.02145,2.26572c-0.00858,0.65797 -0.02289,1.20867 -0.04291,1.65208c-0.02289,0.44341 -0.04864,0.7724 -0.07724,0.98695c-0.04291,0.48632 -0.15734,0.86108 -0.34329,1.12427c-0.18595,0.26605 -0.45056,0.45629 -0.79385,0.57072c-0.30038,0.12874 -0.65368,0.20311 -1.05991,0.22314c-0.40909,0.02289 -0.77813,0.03433 -1.10711,0.03433c-0.0286,-0.28608 -0.08868,-0.61935 -0.18022,-0.99983c-0.0944,-0.37762 -0.19883,-0.68801 -0.31326,-0.93117c0.20025,0.01431 0.41481,0.02146 0.64367,0.02146c0.22886,0 0.39335,0 0.49347,0c0.14304,0 0.25747,-0.0329 0.34329,-0.0987c0.08582,-0.06294 0.14304,-0.19453 0.17165,-0.39478c0.0286,-0.11443 0.05006,-0.36189 0.06437,-0.74237c0.01431,-0.37762 0.02575,-0.88111 0.03432,-1.51047c0.00572,-0.62937 0.00859,-1.39175 0.00859,-2.28716c0,-0.89255 0,-1.91813 0,-3.07673M166.52566,201.81511h7.01597v2.16701h-7.01597v-2.16701M169.10033,197.05197h2.16701v14.13923h-2.16701v-14.13923M166.26818,211.36285c0.58645,-0.21455 1.27017,-0.47631 2.05116,-0.78528c0.77812,-0.3061 1.60059,-0.64224 2.46739,-1.00841c0.86395,-0.36332 1.73217,-0.72377 2.6047,-1.08136l0.51494,2.03828c-1.14429,0.55784 -2.30576,1.1114 -3.48439,1.66066c-1.18149,0.55212 -2.25856,1.0499 -3.23121,1.49331zM189.99807,197.41672h15.83422v1.67353h-15.83422v-1.67353M190.94212,206.06332h15.94151v1.58772h-15.94151v-1.58772M192.89458,208.33761h12.80899v1.39461h-12.80899v-1.39461M190.89921,210.46172h16.79972v1.5448h-16.79972v-1.5448M191.4356,202.11549h4.52713v1.20152h-4.52713v-1.20152M190.96357,204.08941h5.02061v1.18006h-5.02061v-1.18006M199.80328,204.08941h5.08497v1.18006h-5.08497v-1.18006M199.80328,202.11549h4.57004v1.20152h-4.57004v-1.20152M196.73513,198.12475h2.27429v7.50946h-2.27429v-7.50946M188.62491,199.94848h18.62346v3.75473h-2.23138v-2.38157h-14.26797v2.38157h-2.12411v-3.75473M189.91225,206.06332h2.14556v2.96087c0,0.60075 -0.03576,1.24729 -0.10728,1.93958c-0.07152,0.69516 -0.20311,1.40034 -0.39478,2.11552c-0.19453,0.71518 -0.46774,1.40463 -0.8196,2.06832c-0.34901,0.66655 -0.80244,1.2716 -1.36029,1.81515c-0.11443,-0.14304 -0.27177,-0.31183 -0.47202,-0.50636c-0.20025,-0.19167 -0.41194,-0.37762 -0.63508,-0.55784c-0.22028,-0.17737 -0.41624,-0.30896 -0.58788,-0.39478c0.67228,-0.64367 1.16575,-1.34456 1.48044,-2.10265c0.31468,-0.75809 0.51779,-1.52048 0.60934,-2.28716c0.0944,-0.76382 0.14161,-1.47472 0.14161,-2.13269v-2.91796M199.78182,211.27703c0.42911,0.70088 1.03702,1.28305 1.82372,1.74649c0.78671,0.4663 1.72646,0.83104 2.81927,1.09423c1.09566,0.26605 2.31578,0.44198 3.66033,0.52781c-0.20025,0.20025 -0.40766,0.47203 -0.62222,0.81531c-0.21455,0.34329 -0.3862,0.65797 -0.51494,0.94404c-1.47329,-0.15734 -2.78493,-0.42911 -3.93496,-0.81531c-1.15288,-0.3862 -2.14413,-0.90542 -2.97374,-1.55767c-0.82961,-0.64939 -1.5162,-1.44611 -2.05974,-2.39015l1.80227,-0.36475M204.78097,211.83488l1.695,0.85822c-0.51494,0.34329 -1.05848,0.66083 -1.63063,0.95263c-0.57215,0.29466 -1.09423,0.54927 -1.56626,0.76382l-1.39461,-0.77241c0.31468,-0.17165 0.64653,-0.36188 0.99554,-0.57071c0.35187,-0.20597 0.69659,-0.42053 1.03416,-0.64367c0.33471,-0.22028 0.62364,-0.41623 0.8668,-0.58788M193.06622,216.81257l-0.10728,-1.50189l0.90113,-0.62221l5.92175,-0.83677c-0.05722,0.25746 -0.10728,0.55355 -0.15019,0.88826c-0.04291,0.33757 -0.06437,0.61363 -0.06437,0.82818c-1.31594,0.21455 -2.37728,0.38906 -3.18401,0.52352c-0.80959,0.13732 -1.43609,0.24889 -1.87951,0.33471c-0.44341,0.08582 -0.76525,0.15734 -0.96551,0.21456c-0.20025,0.05722 -0.35759,0.11443 -0.47202,0.17164M193.06622,216.81257c-0.05722,-0.17165 -0.14304,-0.36903 -0.25747,-0.59217c-0.11443,-0.22028 -0.23887,-0.44198 -0.37332,-0.66512c-0.13732,-0.22028 -0.26319,-0.40193 -0.37762,-0.54497c0.24317,-0.12874 0.50492,-0.34758 0.78527,-0.65654c0.27749,-0.3061 0.41624,-0.70231 0.41624,-1.18864v-2.05973l2.23138,0.04291v3.49726c0,0 -0.08154,0.05007 -0.2446,0.15019c-0.16592,0.10012 -0.36617,0.23601 -0.60075,0.40765c-0.23745,0.17165 -0.47774,0.35044 -0.72091,0.53639c-0.24317,0.18595 -0.44628,0.37476 -0.60934,0.56643c-0.16592,0.19453 -0.24889,0.36331 -0.24889,0.50635zM218.38382,209.11002h7.74547v1.65208h-7.74547v-1.65208M215.91643,198.2964h12.78753v1.67354h-12.78753v-1.67354M216.47427,200.97835h11.65039v1.56626h-11.65038v-1.56626M215.2513,203.61738h14.11778v1.67354h-14.11778v-1.67354M218.40527,211.9207h7.76692v1.63063h-7.76692v-1.63063M216.73174,206.25642h9.29027v1.69499h-7.16617v8.86116h-2.12411v-10.55615M225.65726,206.25642h2.18847v8.28186c0,0.51494 -0.06437,0.92259 -0.1931,1.22297c-0.12874,0.30038 -0.37905,0.52924 -0.75095,0.68658c-0.3576,0.15734 -0.80101,0.25317 -1.33024,0.28751c-0.52924,0.03719 -1.16575,0.04863 -1.90955,0.03433c-0.04291,-0.27177 -0.12588,-0.59789 -0.24889,-0.97837c-0.12015,-0.37762 -0.25174,-0.70231 -0.39478,-0.97408c0.47203,0.01431 0.92974,0.02432 1.37315,0.03004c0.44341,0.00858 0.73664,0.00572 0.87968,-0.00859c0.25746,0 0.3862,-0.11443 0.3862,-0.34329v-8.23895M221.08722,196.77305h2.27429v7.40218h-2.27429v-7.40217M211.79695,196.77305h2.10265v20.01806h-2.10265v-20.01806M209.99468,200.9998l1.63063,0.1931c0,0.58645 -0.04005,1.23728 -0.12015,1.95246c-0.07724,0.71518 -0.17594,1.42608 -0.29609,2.13268c-0.12301,0.70946 -0.26319,1.34312 -0.42053,1.90097l-1.69499,-0.5793c0.15734,-0.50063 0.29609,-1.07707 0.41624,-1.72932c0.12301,-0.64939 0.22743,-1.31451 0.31325,-1.99537c0.08582,-0.678 0.14304,-1.30307 0.17164,-1.87522M213.68504,200.35613l1.45898,-0.60076c0.22886,0.48632 0.46058,1.02272 0.69516,1.60917c0.23745,0.58645 0.41338,1.07278 0.52781,1.45898l-1.52334,0.72949c-0.10012,-0.40051 -0.26462,-0.90542 -0.49348,-1.51476c-0.22886,-0.60648 -0.45057,-1.16718 -0.66513,-1.68212zM240.63327,204.96909h7.8742v2.08119h-7.8742v-2.08119M243.42249,206.19205c0.44341,1.25873 1.01842,2.45309 1.72503,3.58309c0.70946,1.13 1.55482,2.12696 2.53605,2.99091c0.97837,0.8668 2.06832,1.55053 3.26984,2.05116c-0.17165,0.14304 -0.3576,0.33185 -0.55785,0.56643c-0.20025,0.23745 -0.38906,0.47774 -0.56643,0.7209c-0.18023,0.24317 -0.32755,0.46487 -0.44198,0.66512c-1.28734,-0.61506 -2.43592,-1.42322 -3.44577,-2.42448c-1.00698,-1.00126 -1.88666,-2.14985 -2.63904,-3.44577c-0.74952,-1.29306 -1.37459,-2.69768 -1.87522,-4.21388l1.99537,-0.49348M247.92817,204.96909h0.42911l0.42912,-0.06437l1.45898,0.45057c-0.28608,1.73075 -0.76239,3.32848 -1.42894,4.79318c-0.66369,1.46756 -1.51477,2.7692 -2.55322,3.90492c-1.03559,1.13858 -2.27572,2.07976 -3.7204,2.82355c-0.17165,-0.27177 -0.40766,-0.57644 -0.70803,-0.91401c-0.30038,-0.33471 -0.58645,-0.60934 -0.85822,-0.82389c1.00126,-0.47203 1.89524,-1.04131 2.68195,-1.70786c0.78671,-0.66369 1.469,-1.41464 2.04686,-2.25284c0.58073,-0.83533 1.05705,-1.73933 1.42894,-2.71198c0.37189,-0.97266 0.63652,-1.98822 0.79386,-3.04669v-0.45056M247.34887,197.524h2.36012c0,0 -0.0043,0.11013 -0.01288,0.33041c-0.00572,0.22314 -0.01573,0.40622 -0.03003,0.54926c-0.04291,1.5162 -0.12588,2.63904 -0.24889,3.36853c-0.12015,0.72949 -0.30897,1.23012 -0.56643,1.50189c-0.22886,0.25746 -0.49777,0.43197 -0.80673,0.52352c-0.3061,0.0944 -0.65225,0.16306 -1.03845,0.20597c-0.37189,0.01431 -0.86108,0.02146 -1.46756,0.02146c-0.60934,0 -1.2573,-0.01431 -1.94388,-0.04291c-0.01431,-0.28608 -0.07581,-0.6079 -0.18452,-0.9655c-0.10584,-0.3576 -0.23744,-0.66513 -0.39478,-0.92259c0.42911,0.0286 0.84105,0.05293 1.23584,0.07295c0.39192,0.02289 0.74094,0.03719 1.04703,0.04291c0.30896,0.00858 0.54211,0.01288 0.69945,0.01288c0.21455,0 0.3862,-0.01144 0.51493,-0.03433c0.12874,-0.02003 0.24317,-0.07295 0.34329,-0.15877c0.10012,-0.11443 0.17879,-0.32613 0.23601,-0.63509c0.05722,-0.3061 0.10728,-0.74952 0.15019,-1.33024c0.04291,-0.57787 0.07868,-1.31737 0.10728,-2.2185v-0.32183M230.67787,207.80122c0.65797,-0.14304 1.39747,-0.31468 2.21851,-0.51493c0.82389,-0.20025 1.68927,-0.41481 2.59613,-0.64367c0.90972,-0.22886 1.81514,-0.46487 2.71627,-0.70803l0.27893,2.23138c-1.24443,0.3576 -2.50315,0.7109 -3.77618,1.05991c-1.27303,0.35187 -2.43879,0.66369 -3.49726,0.93546l-0.53639,-2.36012M230.97825,200.93544h7.31635v2.23138h-7.31635v-2.23138M233.78893,196.77305h2.33866v17.40048c0,0.61506 -0.07581,1.08995 -0.22743,1.42466c-0.14876,0.33757 -0.40909,0.59217 -0.78098,0.76382c-0.37189,0.18595 -0.84821,0.30324 -1.42894,0.35187c-0.57787,0.05149 -1.29592,0.07724 -2.15414,0.07724c-0.04291,-0.30038 -0.13159,-0.66512 -0.26605,-1.09423c-0.13732,-0.42911 -0.28465,-0.79386 -0.44199,-1.09423c0.52924,0.01431 1.03416,0.02146 1.51477,0.02146c0.47774,0 0.79528,0 0.95262,0c0.18595,0 0.31469,-0.03289 0.38621,-0.09869c0.07152,-0.06294 0.10727,-0.18738 0.10727,-0.37333v-17.37902M239.00264,197.524h9.05426v2.14556h-6.77997v17.0572h-2.27429zM254.47212,202.09404h2.38157v10.23432c0,0.45772 0.06437,0.80101 0.1931,1.02987c0.12874,0.22886 0.39335,0.37905 0.79386,0.45057c0.40051,0.07152 0.99411,0.10728 1.78081,0.10728c0.21456,0 0.56214,0 1.04274,0c0.47775,0 1.02414,0 1.63921,0c0.61506,0 1.23298,0 1.85377,0c0.62365,0 1.18578,0 1.68641,0c0.50063,0 0.88683,0 1.1586,0c0.57215,0 1.02987,-0.05007 1.37316,-0.15019c0.34329,-0.10012 0.6122,-0.28607 0.80673,-0.55784c0.19167,-0.27177 0.34043,-0.65797 0.44628,-1.1586c0.10871,-0.50063 0.19882,-1.1586 0.27034,-1.97392c0.21456,0.12874 0.45772,0.25317 0.72949,0.37332c0.27177,0.12301 0.5507,0.23459 0.83677,0.33471c0.28607,0.10012 0.54354,0.17165 0.7724,0.21456c-0.11443,1.00126 -0.27177,1.83803 -0.47202,2.5103c-0.20025,0.67228 -0.48633,1.20437 -0.85822,1.59629c-0.37189,0.39479 -0.86538,0.67799 -1.48044,0.84964c-0.61506,0.17165 -1.40177,0.25747 -2.36012,0.25747c-0.15734,0 -0.42911,0 -0.81531,0c-0.3862,0 -0.83391,0 -1.34312,0c-0.50635,0 -1.0313,0 -1.57484,0c-0.54354,0 -1.06563,0 -1.56626,0c-0.50063,0 -0.93975,0 -1.31737,0c-0.38048,0 -0.64224,0 -0.78528,0c-1.33024,0 -2.37442,-0.11157 -3.13252,-0.33471c-0.75809,-0.22028 -1.29162,-0.60934 -1.60058,-1.16718c-0.3061,-0.55784 -0.45915,-1.3517 -0.45915,-2.38157v-10.23432M255.82382,205.18364h12.0795v2.27429h-12.0795v-2.27429M253.52808,198.01747h15.92005v10.44887h-2.40303v-8.15312h-13.51702zM276.42119,207.39357l2.14556,-2.83213v12.22968h-2.14556v-9.39755M280.49775,204.6258l1.33025,1.24442c-0.40051,0.3862 -0.79386,0.7724 -1.18006,1.1586c-0.3862,0.3862 -0.73664,0.70803 -1.05133,0.9655l-0.94404,-0.94404c0.28607,-0.31468 0.61077,-0.71232 0.97409,-1.19293c0.36617,-0.47774 0.65654,-0.88826 0.87109,-1.23155M273.88943,200.46341h5.81446v2.08119h-5.81446v-2.08119M278.26637,205.95604c0.14304,0.12874 0.36189,0.3533 0.65654,0.67371c0.29179,0.32326 0.60649,0.678 0.94405,1.0642c0.3347,0.3862 0.64081,0.7438 0.9183,1.07278c0.28035,0.32898 0.47774,0.56499 0.59217,0.70803l-1.1586,1.78081c-0.15734,-0.28608 -0.36188,-0.62221 -0.61363,-1.00841c-0.24888,-0.3862 -0.51923,-0.78671 -0.81102,-1.20152c-0.29465,-0.41481 -0.57788,-0.80816 -0.84965,-1.18006c-0.27177,-0.37189 -0.50062,-0.67228 -0.68657,-0.90114l1.00841,-1.00841M278.99586,200.46341h0.42911l0.32184,-0.10728l1.13715,0.92259c-0.44342,1.27303 -1.01556,2.52461 -1.71645,3.75473c-0.70089,1.23012 -1.46184,2.36727 -2.28287,3.41144c-0.82389,1.04417 -1.6435,1.92385 -2.45881,2.63904c-0.05721,-0.21455 -0.14303,-0.46916 -0.25746,-0.76381c-0.11443,-0.2918 -0.23601,-0.57358 -0.36475,-0.84535c-0.12874,-0.27177 -0.24316,-0.47917 -0.34329,-0.62222c0.74379,-0.58645 1.47614,-1.31308 2.19705,-2.17988c0.72377,-0.86395 1.37888,-1.79655 1.96533,-2.79781c0.58645,-1.00126 1.04417,-1.99538 1.37315,-2.98233v-0.42911M275.77752,197.69564l1.73791,-0.90114c0.31468,0.44341 0.63652,0.9326 0.9655,1.46756c0.32898,0.53782 0.58646,0.99268 0.7724,1.36458l-1.82373,1.09423c-0.15734,-0.40051 -0.40051,-0.88683 -0.72949,-1.45898c-0.32898,-0.57215 -0.63652,-1.09423 -0.92259,-1.56626M283.11534,199.75538h9.01135v2.12411h-9.01135v-2.12411M291.41865,199.75538h0.34328l0.34329,-0.08582l1.60917,0.36474c-0.20025,0.80101 -0.42196,1.61632 -0.66512,2.44593c-0.24316,0.82961 -0.47917,1.53766 -0.70803,2.12411l-1.93101,-0.42911c0.17165,-0.52924 0.35044,-1.1772 0.53639,-1.94388c0.18595,-0.76382 0.34329,-1.48901 0.47203,-2.17559v-0.30038M286.50532,196.77305h2.14556v9.33318h-2.14556v-9.33318M281.97819,199.75538h2.10264v5.72865c0,0.84392 -0.03575,1.75507 -0.10727,2.73344c-0.07152,0.98123 -0.2117,1.97964 -0.42053,2.9952c-0.20598,1.01557 -0.50921,1.99537 -0.90972,2.93941c-0.40051,0.94404 -0.92259,1.79512 -1.56626,2.55321c-0.11443,-0.15734 -0.27606,-0.33328 -0.4849,-0.52781c-0.20598,-0.19167 -0.41624,-0.37762 -0.63079,-0.55784c-0.21456,-0.17737 -0.39335,-0.30897 -0.53639,-0.39479c0.57215,-0.68658 1.03273,-1.44181 1.38174,-2.26571c0.35187,-0.82103 0.61077,-1.66496 0.7767,-2.53176c0.16306,-0.86395 0.27034,-1.72217 0.32183,-2.57467c0.04863,-0.84964 0.07295,-1.64636 0.07295,-2.39015v-5.70719M283.30843,205.09782h7.85275v2.01683h-7.85275v-2.01683M290.79643,205.09782h0.3862l0.3862,-0.08582l1.37316,0.53639c-0.44342,2.00252 -1.10425,3.73328 -1.9825,5.19226c-0.88111,1.45898 -1.93672,2.68195 -3.16684,3.6689c-1.23012,0.98695 -2.59613,1.77366 -4.09802,2.36011c-0.12874,-0.27177 -0.31182,-0.59361 -0.54926,-0.9655c-0.23458,-0.37189 -0.45915,-0.66512 -0.67371,-0.87968c1.34455,-0.45772 2.58183,-1.11998 3.71182,-1.98679c1.13,-0.86395 2.09121,-1.92242 2.88363,-3.17542c0.79529,-1.25015 1.37172,-2.67623 1.72932,-4.27825v-0.3862M285.60418,206.40661c0.44342,1.34455 1.04417,2.57467 1.80227,3.69036c0.7581,1.11569 1.68784,2.06689 2.78923,2.8536c1.10138,0.78671 2.36012,1.38746 3.77618,1.80227c-0.15734,0.15734 -0.32613,0.35044 -0.50635,0.5793c-0.17737,0.22886 -0.34472,0.46773 -0.50206,0.71662c-0.15734,0.25174 -0.28608,0.47775 -0.3862,0.678c-2.27429,-0.78671 -4.11948,-2.01683 -5.53555,-3.69037c-1.41607,-1.67353 -2.5103,-3.71897 -3.2827,-6.1363zM305.4077,199.0688h7.76692v2.16701h-7.76692v-2.16701M312.48804,199.0688h0.3862l0.3862,-0.06436l1.41607,0.36474c-0.30038,2.93227 -0.82962,5.51409 -1.58772,7.74547c-0.7581,2.23138 -1.71215,4.14808 -2.86217,5.7501c-1.15288,1.60202 -2.49457,2.92511 -4.02507,3.96928c-0.17165,-0.27177 -0.40051,-0.5793 -0.68658,-0.92259c-0.28607,-0.34329 -0.55069,-0.61506 -0.79386,-0.81531c1.37316,-0.82961 2.59184,-1.98822 3.65603,-3.47581c1.06705,-1.48758 1.95103,-3.25123 2.65192,-5.29094c0.70089,-2.03685 1.18721,-4.29255 1.45898,-6.7671v-0.49348M308.19692,200.69942c0.31468,2.08835 0.77669,4.05082 1.38603,5.88742c0.60648,1.83946 1.3846,3.47009 2.33437,4.89187c0.95263,1.42465 2.12268,2.55178 3.51013,3.3814c-0.17165,0.12874 -0.35331,0.30038 -0.54498,0.51494c-0.19453,0.21455 -0.38477,0.43626 -0.57072,0.66512c-0.18595,0.22886 -0.33614,0.43626 -0.45057,0.62221c-1.47328,-1.00126 -2.7077,-2.27143 -3.70324,-3.81051c-0.99268,-1.53622 -1.8037,-3.30273 -2.43306,-5.29953c-0.62937,-1.99394 -1.13715,-4.16381 -1.52335,-6.50962l1.99537,-0.34329M295.47376,197.67419h9.80521v2.05974h-9.80521v-2.05974M297.94115,202.1584h5.25662v1.97392h-5.25662v-1.97392M297.91969,206.68553h5.38536v1.97392h-5.38536v-1.97392M296.73964,198.85424h2.18847v13.66721l-2.18847,0.23602v-13.90322M295.23775,211.87779c0.85823,-0.11443 1.85662,-0.25031 2.9952,-0.40765c1.13572,-0.15734 2.34009,-0.33328 3.61312,-0.52781c1.27303,-0.19167 2.53891,-0.38047 3.79764,-0.56642l0.10728,1.931c-1.17291,0.22886 -2.35582,0.44628 -3.54875,0.65225c-1.19579,0.20883 -2.34724,0.40623 -3.45435,0.59217c-1.10997,0.18595 -2.12268,0.3576 -3.03812,0.51494l-0.47202,-2.18847M301.67442,198.83279h2.25284v17.93687h-2.25284zM325.53304,206.72844h8.68952v1.95246h-8.68952v-1.95246M325.49012,210.50463h8.73243v1.931h-8.73243v-1.931M334.11528,197.28798l2.23138,0.81531c-0.34329,0.7438 -0.71518,1.47614 -1.11569,2.19705c-0.40051,0.72377 -0.7724,1.34312 -1.11569,1.85806l-1.99537,-0.75095c0.22886,-0.37189 0.46773,-0.79386 0.71661,-1.26588c0.25175,-0.47203 0.49205,-0.95835 0.72091,-1.45898c0.22886,-0.50063 0.41481,-0.9655 0.55784,-1.39461M323.36602,198.2964l1.931,-0.85822c0.30038,0.40051 0.59361,0.82961 0.87968,1.28733c0.28607,0.45772 0.54354,0.91115 0.7724,1.36029c0.22886,0.452 0.39336,0.86395 0.49348,1.23584l-2.0812,0.98696c-0.08582,-0.3576 -0.23601,-0.76954 -0.45056,-1.23584c-0.21456,-0.46344 -0.45342,-0.93833 -0.71661,-1.42466c-0.26605,-0.48632 -0.54211,-0.9369 -0.82819,-1.3517M324.00969,202.80207h10.27723v2.14556h-8.0244v11.84348h-2.25284v-13.98905M333.19269,202.80207h2.23138v11.43583c0,0.55784 -0.06436,1.00412 -0.1931,1.33883c-0.12874,0.33757 -0.3862,0.59933 -0.7724,0.78528c-0.3862,0.17165 -0.86824,0.27463 -1.44611,0.30896c-0.58073,0.03719 -1.2716,0.05579 -2.07261,0.05579c-0.04291,-0.30038 -0.13302,-0.66226 -0.27034,-1.08566c-0.13446,-0.42053 -0.28036,-0.78098 -0.4377,-1.08136c0.52924,0.0286 1.03988,0.04577 1.53193,0.05149c0.49491,0.00858 0.82104,0.00573 0.97838,-0.00858c0.30038,-0.01431 0.45057,-0.14303 0.45057,-0.3862v-11.41438M328.6441,196.75159h2.3172v7.46655h-2.3172v-7.46655M317.61593,198.57532l1.33024,-1.60917c0.44342,0.21455 0.90829,0.46058 1.39461,0.73807c0.48633,0.28035 0.94833,0.57072 1.38603,0.8711c0.43484,0.30038 0.78814,0.58645 1.05991,0.85822l-1.43752,1.78082c-0.24316,-0.27177 -0.57644,-0.565 -0.99983,-0.87968c-0.42053,-0.31468 -0.87109,-0.62936 -1.3517,-0.94405c-0.47775,-0.31468 -0.93832,-0.58645 -1.38174,-0.81531M316.60751,204.28251l1.30879,-1.63062c0.45772,0.21455 0.93403,0.46487 1.42894,0.75095c0.49205,0.28608 0.96407,0.57501 1.41607,0.8668c0.44914,0.29466 0.80959,0.57787 1.08136,0.84964l-1.39461,1.80227c-0.25747,-0.27177 -0.60075,-0.56929 -1.02986,-0.89256c-0.42911,-0.3204 -0.89112,-0.63508 -1.38603,-0.94404c-0.49205,-0.3061 -0.96694,-0.57358 -1.42466,-0.80244M317.22972,215.2034c0.3576,-0.55784 0.74809,-1.21582 1.17148,-1.97391c0.42053,-0.75809 0.84964,-1.5634 1.28733,-2.4159c0.43484,-0.84964 0.84535,-1.68927 1.23155,-2.51888l1.69499,1.39461c-0.32898,0.75809 -0.67942,1.54051 -1.05132,2.34724c-0.37189,0.80959 -0.7538,1.60774 -1.14573,2.39445c-0.39479,0.78671 -0.78528,1.5305 -1.17147,2.23138z" fill="#ffffff" fill-rule="nonzero" stroke-width="1" stroke-linecap="butt" stroke-linejoin="miter"/></g></g></svg>