<svg version="1.1" xmlns="http://www.w3.org/2000/svg" xmlns:xlink="http://www.w3.org/1999/xlink" width="139.23402" height="20.76299" viewBox="0,0,139.23402,20.76299"><g transform="translate(-240.20411,-170.60574)"><g fill="#ffffff" stroke="none" stroke-miterlimit="10"><path d="M247.19936,171.04194h2.31819v17.22979h-2.31819v-17.22979M254.35729,175.44753h2.27752v15.72491h-2.27752v-15.72491M240.20411,175.51296h2.23685v11.66828h13.01443v2.39908h-15.25128zM259.60373,172.15424h10.63523v2.15918h-10.63523v-2.15918M259.25804,179.30787h11.24528v2.15918h-11.24528v-2.15918M266.33463,172.74311h2.13518v18.45114h-2.13518v-18.45114M261.69824,172.7213h2.0335v7.24087c0,1.35221 -0.06372,2.70733 -0.19115,4.06536c-0.13014,1.36094 -0.41212,2.66226 -0.84594,3.90396c-0.43381,1.24462 -1.11165,2.39036 -2.0335,3.43723c-0.10845,-0.15994 -0.25758,-0.34169 -0.44737,-0.54525c-0.18979,-0.20356 -0.38908,-0.39985 -0.59785,-0.58887c-0.21148,-0.18902 -0.39857,-0.34169 -0.56125,-0.45801c0.78629,-0.91601 1.36651,-1.912 1.74068,-2.98795c0.37145,-1.07595 0.61547,-2.19262 0.73206,-3.34999c0.11388,-1.15447 0.17081,-2.3133 0.17081,-3.47649v-7.24087M275.40406,171.1728l2.07417,0.8942c-0.51515,0.69792 -1.09131,1.37693 -1.72848,2.03704c-0.63716,0.66302 -1.30822,1.27079 -2.01317,1.8233c-0.70495,0.55252 -1.4099,1.04687 -2.11484,1.48307c-0.17624,-0.26172 -0.40941,-0.54961 -0.69953,-0.86367c-0.29282,-0.31115 -0.5748,-0.57578 -0.84594,-0.79388c0.63716,-0.34896 1.29195,-0.76771 1.96436,-1.25625c0.6697,-0.48563 1.30009,-1.01634 1.89116,-1.59212c0.58836,-0.57287 1.07911,-1.15011 1.47226,-1.7317M275.87177,177.19232l1.99283,0.87239c-0.51515,0.72699 -1.10487,1.43945 -1.76915,2.13737c-0.66428,0.69792 -1.35567,1.34494 -2.07417,1.94108c-0.7185,0.59614 -1.43701,1.11957 -2.15551,1.57031c-0.17624,-0.24718 -0.4067,-0.5278 -0.69139,-0.84186c-0.28469,-0.31115 -0.5626,-0.57578 -0.83374,-0.79388c0.65072,-0.37804 1.32178,-0.82587 2.01317,-1.34349c0.69139,-0.51471 1.34889,-1.08177 1.9725,-1.70117c0.62361,-0.61649 1.13876,-1.23008 1.54546,-1.84075M276.25813,183.01555l2.07417,0.87239c-0.56938,1.03233 -1.24722,1.99924 -2.0335,2.90071c-0.78629,0.90147 -1.64307,1.72298 -2.57035,2.46451c-0.92999,0.74154 -1.90336,1.38129 -2.92011,1.91927c-0.16268,-0.2908 -0.38908,-0.61795 -0.67919,-0.98144c-0.29282,-0.3635 -0.5748,-0.66884 -0.84594,-0.91601c0.93541,-0.4362 1.84371,-0.97127 2.7249,-1.60521c0.88118,-0.63103 1.69188,-1.33913 2.43207,-2.12428c0.73748,-0.78515 1.34347,-1.62847 1.81795,-2.52994zM279.91844,182.86288h18.26087v2.11556h-18.26087v-2.11556M283.96511,175.57839h10.12685v1.91927h-10.12685v-1.91927M283.98545,179.19882h10.14718v1.89746h-10.14718v-1.89746M283.07037,171.87071h12.42471v11.9518h-2.19618v-9.98892h-8.11368v9.98892h-2.11484v-11.9518M291.12305,185.80721l1.85049,-0.87239c0.58294,0.49436 1.1835,1.05414 1.80168,1.67936c0.61547,0.62522 1.19163,1.2388 1.72848,1.84075c0.53413,0.60486 0.97744,1.13993 1.32991,1.60521l-1.91149,1.06868c-0.33892,-0.49436 -0.77544,-1.0585 -1.30958,-1.69245c-0.53685,-0.63103 -1.11029,-1.26643 -1.72034,-1.90618c-0.61005,-0.63976 -1.19977,-1.21408 -1.76915,-1.72298M281.72826,190.67081c-0.04067,-0.17448 -0.10168,-0.39258 -0.18302,-0.6543c-0.08134,-0.26172 -0.16268,-0.53507 -0.24402,-0.82005c-0.08134,-0.28207 -0.16946,-0.52489 -0.26436,-0.72845c0.23046,-0.05816 0.46093,-0.15703 0.69139,-0.29661c0.23046,-0.13668 0.48126,-0.32133 0.7524,-0.55397c0.20335,-0.1454 0.50431,-0.40712 0.90288,-0.78515c0.40128,-0.37804 0.84594,-0.83604 1.33398,-1.37402c0.48804,-0.53798 0.93541,-1.10503 1.34211,-1.70117l2.23685,0.91601c-0.78629,0.94509 -1.62409,1.84221 -2.51341,2.69134c-0.88661,0.85204 -1.74339,1.56886 -2.57035,2.15045v0.04362c0,0 -0.07456,0.03635 -0.22369,0.10905c-0.14912,0.0727 -0.32265,0.16285 -0.52058,0.27044c-0.19522,0.1105 -0.36739,0.23118 -0.51651,0.36204c-0.14912,0.13086 -0.22369,0.25445 -0.22369,0.37077M281.72826,190.67081l-0.02034,-1.61393l1.30144,-0.76335l11.77399,-0.50163c0.04067,0.2908 0.10168,0.61358 0.18302,0.96836c0.08134,0.35768 0.14235,0.64557 0.18302,0.86367c-1.87082,0.10178 -3.48407,0.19193 -4.83974,0.27044c-1.35567,0.08142 -2.50121,0.15121 -3.43662,0.20937c-0.93541,0.05816 -1.70543,0.10905 -2.31006,0.15267c-0.60192,0.04362 -1.08318,0.08288 -1.44379,0.11777c-0.3579,0.0378 -0.64259,0.07852 -0.85407,0.12214c-0.20877,0.04362 -0.38772,0.10178 -0.53685,0.17448zM308.97721,175.36029h10.02517v2.22461h-10.02517v-2.22461M314.65069,170.86746h2.23685v17.40427c0,0.71246 -0.08134,1.2577 -0.24402,1.63574c-0.16268,0.37804 -0.44737,0.66157 -0.85407,0.85058c-0.39314,0.18902 -0.91101,0.31261 -1.5536,0.37077c-0.6453,0.05816 -1.4221,0.08724 -2.3304,0.08724c-0.02711,-0.23264 -0.08405,-0.49872 -0.17081,-0.79824c-0.08947,-0.29661 -0.18437,-0.59468 -0.28469,-0.8942c-0.10303,-0.29661 -0.20877,-0.55397 -0.31723,-0.77207c0.65072,0.01454 1.26077,0.02472 1.83015,0.03053c0.56938,0.00872 0.95575,0.01309 1.1591,0.01309c0.20335,-0.01454 0.34299,-0.05816 0.4189,-0.13086c0.07321,-0.0727 0.10981,-0.21083 0.10981,-0.41439v-17.38246M309.2009,180.31113l1.80982,-0.91601c0.35247,0.52344 0.69817,1.08613 1.03709,1.68808c0.33892,0.60486 0.64394,1.201 0.91508,1.78841c0.27113,0.59032 0.46771,1.12539 0.58972,1.60521l-1.9725,1.04687c-0.10845,-0.46528 -0.28469,-1.00035 -0.52871,-1.60521c-0.24402,-0.60195 -0.52464,-1.2199 -0.84187,-1.85384c-0.31994,-0.63103 -0.65614,-1.21554 -1.00862,-1.75351M300.19247,175.40391h8.19502v2.22461h-8.19502v-2.22461M303.46641,170.84565h2.11484v20.3486h-2.11484v-20.3486M303.36474,176.86517l1.40312,0.54525c-0.18979,0.88694 -0.42297,1.80295 -0.69953,2.74804c-0.27927,0.94509 -0.59243,1.86402 -0.93948,2.75677c-0.34434,0.89566 -0.71715,1.7317 -1.11843,2.50813c-0.39857,0.77934 -0.81476,1.44527 -1.24857,1.99778c-0.10845,-0.33442 -0.27791,-0.71682 -0.50838,-1.1472c-0.23046,-0.42747 -0.43381,-0.79388 -0.61005,-1.09922c0.4067,-0.47982 0.79713,-1.04397 1.1713,-1.69245c0.37145,-0.64557 0.71986,-1.33913 1.04522,-2.08066c0.32536,-0.74154 0.6209,-1.49761 0.88661,-2.26823c0.263,-0.77061 0.46906,-1.52669 0.61819,-2.26823M305.47958,178.98073c0.16268,0.1454 0.38908,0.39548 0.67919,0.75026c0.29282,0.35768 0.60869,0.74008 0.94761,1.1472c0.33892,0.40712 0.65072,0.78515 0.93541,1.13411c0.28469,0.34896 0.48804,0.60341 0.61005,0.76335l-1.34211,1.96289c-0.16268,-0.30534 -0.3701,-0.66593 -0.62225,-1.08177c-0.24944,-0.41293 -0.51651,-0.84477 -0.8012,-1.29551c-0.28469,-0.45074 -0.5626,-0.86949 -0.83374,-1.25625c-0.27113,-0.38385 -0.5016,-0.70664 -0.69139,-0.96836zM328.53952,171.04194h2.31819v17.22979h-2.31819v-17.22979M335.69745,175.44753h2.27752v15.72491h-2.27752v-15.72491M321.54426,175.51296h2.23685v11.66828h13.01443v2.39908h-15.25128zM352.5552,170.84565h2.05384v15.33233h-2.05384v-15.33233M346.41402,179.67864l10.65556,-4.84179l0.8134,2.00651l-10.65556,4.90722l-0.8134,-2.07194M348.48819,172.93939h2.07417v14.26365c0,0.40712 0.03389,0.71536 0.10168,0.92474c0.06778,0.21228 0.21013,0.35477 0.42704,0.42747c0.21691,0.0727 0.53549,0.10905 0.95575,0.10905c0.12201,0 0.32265,0 0.60192,0c0.27656,0 0.59107,0 0.94355,0c0.35247,0 0.70902,0 1.06962,0c0.3579,0 0.6819,0 0.97201,0c0.29282,0 0.50702,0 0.64259,0c0.37959,0 0.66428,-0.07706 0.85407,-0.23118c0.18979,-0.15121 0.33214,-0.43038 0.42704,-0.8375c0.0949,-0.40712 0.16268,-0.99598 0.20335,-1.7666c0.24402,0.18902 0.55176,0.3635 0.92321,0.52344c0.37416,0.15994 0.71037,0.26899 1.00862,0.32715c-0.0949,1.03233 -0.2508,1.84221 -0.46771,2.42962c-0.21691,0.59032 -0.54227,1.01198 -0.97608,1.26497c-0.43381,0.2559 -1.03709,0.38385 -1.80982,0.38385c-0.13557,0 -0.35519,0 -0.65886,0c-0.30638,0 -0.65614,0 -1.04929,0c-0.39314,0 -0.78222,0 -1.16723,0c-0.38772,0 -0.73342,0 -1.03709,0c-0.30638,0 -0.52058,0 -0.64259,0c-0.86763,0 -1.55224,-0.10178 -2.05384,-0.30534c-0.5016,-0.20356 -0.85,-0.56415 -1.04522,-1.08177c-0.19793,-0.51471 -0.29689,-1.24462 -0.29689,-2.18971v-14.24184M356.66288,175.09857h-0.16268l0.4067,-0.32715l0.4067,-0.28353l1.50479,0.58887l-0.08134,0.39258c0,1.03233 -0.00271,1.98034 -0.00813,2.84401c-0.00813,0.86658 -0.01491,1.63428 -0.02034,2.30312c-0.00813,0.66884 -0.02305,1.22862 -0.04474,1.67936c-0.01898,0.45074 -0.04203,0.78515 -0.06914,1.00325c-0.04067,0.49436 -0.14912,0.8753 -0.32536,1.14284c-0.17624,0.27044 -0.42704,0.46382 -0.7524,0.58014c-0.28469,0.13086 -0.61954,0.20647 -1.00455,0.22682c-0.38772,0.02326 -0.73748,0.0349 -1.04929,0.0349c-0.02711,-0.2908 -0.08405,-0.62958 -0.17081,-1.01634c-0.08947,-0.38385 -0.18844,-0.69937 -0.29689,-0.94655c0.18979,0.01454 0.39314,0.02181 0.61005,0.02181c0.21691,0 0.37281,0 0.46771,0c0.13557,0 0.24402,-0.03344 0.32536,-0.10033c0.08134,-0.06397 0.13557,-0.19774 0.16268,-0.4013c0.02711,-0.11632 0.04745,-0.36786 0.06101,-0.75462c0.01356,-0.38385 0.02305,-0.89566 0.02847,-1.53541c0.00813,-0.63976 0.0122,-1.41473 0.0122,-2.32493c0,-0.90729 0,-1.9498 0,-3.12753M340.61853,175.97096h6.64956v2.2028h-6.64956v-2.2028M343.05874,171.12918h2.05384v14.3727h-2.05384v-14.3727M340.37451,185.67635c0.55582,-0.2181 1.20248,-0.48418 1.93996,-0.79824c0.7402,-0.31115 1.5197,-0.65284 2.33853,-1.02506c0.82154,-0.36931 1.64578,-0.73572 2.47274,-1.09922l0.48804,2.07194c-1.08453,0.56706 -2.18669,1.12975 -3.30648,1.68808c-1.11707,0.56124 -2.13654,1.06723 -3.05839,1.51797zM361.38061,174.42246h18.05752v2.29004h-18.05752v-2.29004M367.9895,179.5914h7.89v2.26823h-7.89v-2.26823M375.31011,179.5914h2.27752c0,0 -0.00271,0.06543 -0.00813,0.19629c-0.00813,0.13086 -0.0122,0.27626 -0.0122,0.4362c0,0.15994 -0.01356,0.2908 -0.04067,0.39258c-0.12201,2.02105 -0.25758,3.66406 -0.4067,4.92903c-0.14912,1.26497 -0.31858,2.24642 -0.50838,2.94433c-0.18979,0.69792 -0.42704,1.19954 -0.71173,1.50488c-0.28469,0.33442 -0.59243,0.56706 -0.92321,0.69792c-0.33349,0.13086 -0.72393,0.2181 -1.1713,0.26172c-0.37959,0.04362 -0.8839,0.06107 -1.51293,0.05234c-0.63174,-0.00582 -1.28653,-0.02326 -1.96436,-0.05234c-0.01356,-0.34896 -0.0949,-0.74154 -0.24402,-1.17773c-0.14912,-0.4362 -0.33214,-0.81423 -0.54905,-1.13411c0.70495,0.0727 1.38007,0.11632 2.02537,0.13086c0.64259,0.01454 1.113,0.02181 1.41125,0.02181c0.23046,0 0.42026,-0.0189 0.56938,-0.05671c0.14912,-0.0349 0.29147,-0.10323 0.42704,-0.20501c0.20335,-0.20356 0.38637,-0.62958 0.54905,-1.27806c0.16268,-0.64557 0.3118,-1.56449 0.44737,-2.75677c0.13557,-1.19227 0.2508,-2.70442 0.3457,-4.53645v-0.37077M366.66772,175.86192h2.4402c-0.05423,1.14865 -0.13557,2.30458 -0.24402,3.46777c-0.10845,1.16319 -0.28469,2.31185 -0.52871,3.44596c-0.24402,1.13411 -0.59649,2.21734 -1.05742,3.24967c-0.46093,1.03233 -1.07098,1.99488 -1.83015,2.88763c-0.75917,0.89566 -1.70814,1.68518 -2.84691,2.36855c-0.16268,-0.30534 -0.39586,-0.63976 -0.69953,-1.00325c-0.30638,-0.3635 -0.60869,-0.66157 -0.90694,-0.8942c1.05742,-0.59614 1.92912,-1.28678 2.61509,-2.07194c0.68326,-0.78515 1.22553,-1.63283 1.6268,-2.54303c0.39857,-0.90729 0.69275,-1.85965 0.88254,-2.85709c0.18979,-0.99453 0.31858,-2.00505 0.38637,-3.03157c0.06778,-1.02361 0.12201,-2.02977 0.16268,-3.01848M368.82323,171.47813l2.13518,-0.87239c0.27113,0.49436 0.54905,1.0396 0.83374,1.63574c0.28469,0.59614 0.5016,1.10503 0.65072,1.52669l-2.23685,1.04687c-0.13557,-0.45074 -0.33892,-0.98871 -0.61005,-1.61393c-0.27113,-0.62522 -0.52871,-1.19954 -0.77273,-1.72298z"/></g></g></svg>