<svg version="1.1" xmlns="http://www.w3.org/2000/svg" xmlns:xlink="http://www.w3.org/1999/xlink" width="480" height="40" viewBox="0,0,480,40"><g transform="translate(0,-160.00003)"><g stroke-miterlimit="10"><path d="M0,200.00004v-40h480v40z" fill="none" fill-rule="nonzero" stroke="#000000" stroke-width="0" stroke-linecap="butt"/><path d="M269.83597,181.43498h8.89553l-0.26163,6.05331c-0.06709,0.82358 -0.25828,1.38979 -0.57358,1.69863c-0.3153,0.30884 -0.87546,0.46327 -1.68049,0.46327h-2.33457l-0.22138,-1.33832h2.05281c0.5501,0 0.92913,-0.09266 1.1371,-0.27796c0.20797,-0.1853 0.33207,-0.53876 0.37232,-1.06036c0,-0.27453 0.02013,-0.80299 0.06038,-1.58539c0.05367,-1.40008 0.0805,-2.28543 0.0805,-2.65605h-8.61377c-0.75136,0.80986 -1.51613,1.5099 -2.29432,2.10013l-0.76477,-1.1736c0.59035,-0.41179 1.21089,-0.96085 1.86162,-1.64716c0.65073,-0.68631 1.25785,-1.44813 1.82137,-2.28543h-2.2742v-7.37104c0.76477,-0.08236 1.64359,-0.21276 2.63646,-0.3912c0.99286,-0.17844 1.79118,-0.36375 2.39495,-0.55591l0.30188,1.23537c-0.53668,0.17844 -1.18406,0.34316 -1.94212,0.49414c-0.75806,0.15099 -1.44569,0.26766 -2.06288,0.35003v1.75011h3.68299v1.25596h-3.68299v1.93542h8.49301v-1.93542h-3.72324v-1.25596h3.72324v-1.93542h-3.80374v-1.29713h5.13203v7.72107h-7.26535c-0.30859,0.5216 -0.69098,1.09125 -1.14716,1.70893zM330.2531,187.92067h9.43892l-0.26163,1.42068h-9.31816c-1.62347,0 -2.92157,-0.24364 -3.89431,-0.73093c-0.97274,-0.48729 -1.70062,-1.29371 -2.18363,-2.41927c-0.21467,1.16674 -0.59706,2.42956 -1.14716,3.78847l-1.12703,-0.86476c0.52327,-1.26282 0.88553,-2.45702 1.08678,-3.58258c0.20126,-1.12556 0.30188,-2.67664 0.30188,-4.65323l1.24779,0.02059c0,1.18047 -0.01342,2.02464 -0.04025,2.53251c0.20126,0.85103 0.44612,1.55794 0.73459,2.12072c0.28847,0.56278 0.63396,1.01575 1.03647,1.35891v-7.37104h-4.005v-1.3795h3.56224v-2.90312h-2.93834v-1.3795h2.93834v-2.59428h1.38867v2.59428h2.63646v1.3795h-2.63646v2.90312h2.93834v1.3795h-2.55595v2.98548h2.25407v1.40008h-2.25407v3.68553c0.69769,0.2059 1.63018,0.30884 2.79746,0.30884zM299.46089,184.13221h-10.00244c-1.0197,1.15301 -2.26749,2.3472 -3.74337,3.58258l9.03641,-0.35003l-2.21382,-2.1413l0.98616,-1.00889c0.57693,0.53533 1.13039,1.05693 1.66036,1.56481c0.52998,0.50787 0.99622,0.95398 1.39873,1.33832c1.44904,1.40008 2.0461,1.96973 1.79118,1.70893l-1.04653,1.1736c-0.22809,-0.24708 -0.64402,-0.67946 -1.24779,-1.29713l-12.43764,0.55591l-0.38239,-1.46186c1.58322,-1.15301 2.97188,-2.37466 4.166,-3.66493h-5.77605v-1.40008h2.65658v-10.70654h12.43764v10.70654h2.71696zM333.65433,180.52904l0.42264,1.35891l-3.24023,2.88253l-0.68427,-1.07065c0.161,-0.16471 0.27505,-0.32257 0.34214,-0.47356c0.06709,-0.15099 0.10063,-0.36375 0.10063,-0.63827v-8.0505h3.54211c-0.05367,-1.35891 -0.08721,-2.45702 -0.10063,-3.29432h1.32829c0.01342,1.09811 0.05367,2.19621 0.12075,3.29432h4.0855v1.3795h-4.005c0.161,2.01777 0.34884,3.68553 0.56352,5.00325c0.59035,-1.07065 1.14045,-2.35407 1.6503,-3.85024l1.10691,0.41179c-0.72452,2.10013 -1.53626,3.82965 -2.4352,5.18856c0.09392,0.39807 0.19455,0.77553 0.30188,1.13242c0.30859,0.82358 0.60377,1.23537 0.88553,1.23537c0.21467,0 0.3891,-0.35688 0.52327,-1.07065c0.04025,-0.24708 0.09057,-0.56621 0.15094,-0.95741c0.06038,-0.3912 0.10398,-0.75152 0.13082,-1.08095l1.22766,0.41179c-0.10734,0.75495 -0.24151,1.57167 -0.40251,2.45015c-0.17442,0.68631 -0.38239,1.17703 -0.62389,1.47215c-0.24151,0.29512 -0.57023,0.44267 -0.98616,0.44267c-0.41593,0 -0.80502,-0.18188 -1.16729,-0.54562c-0.36226,-0.36375 -0.71111,-1.03291 -1.04653,-2.00748l-0.02013,-0.06177c-0.87211,1.02947 -1.90523,2.07268 -3.09935,3.1296l-0.88553,-1.02947c0.80502,-0.68631 1.49265,-1.3143 2.06288,-1.88394c0.57023,-0.56964 1.07672,-1.14272 1.51948,-1.71922c-0.3891,-1.75698 -0.65744,-3.98063 -0.80502,-6.671h-2.29432v6.19744zM318.56011,178.73775h-7.58736v8.48288h8.51314v1.64716h-17.54954v-1.64716h7.34585v-16.101h1.69055v6.01214h7.58736zM250.47512,181.45557v1.40008h-3.52198v4.83853c0,0.50787 -0.06038,0.89564 -0.18113,1.16331c-0.12075,0.26766 -0.33207,0.45983 -0.63396,0.57651c-0.30188,0.11667 -0.74129,0.17501 -1.31823,0.17501h-1.18741l-0.28176,-1.48244h1.06666c0.3891,0 0.66079,-0.02745 0.81509,-0.08236c0.1543,-0.05491 0.25157,-0.15099 0.29182,-0.28825c0.04025,-0.13726 0.06038,-0.38434 0.06038,-0.74122v-4.15909h-3.78362v-1.40008h3.78362v-2.22367h-4.166v-1.35891h2.47545c-0.02683,-0.13726 -0.18784,-1.05007 -0.48301,-2.73841l-0.12075,-0.57651h-1.26791v-1.33832h3.60249l-0.62389,-1.99719l1.44904,-0.24708c0.24151,0.68631 0.46289,1.4344 0.66415,2.24425h3.24023v1.33832h-1.12703c-0.17442,0.89221 -0.43605,1.99719 -0.7849,3.31492h2.37482v1.35891h-3.86412v2.22367zM253.11158,178.28479h6.09806v1.48244h-2.17357v10.08887h-1.38867v-10.08887h-2.53583v0.04118c0,1.77069 -0.05702,3.21539 -0.17107,4.33409c-0.11404,1.11869 -0.31866,2.12072 -0.61383,3.00607c-0.29518,0.88535 -0.72452,1.80844 -1.28804,2.76929l-1.44904,-0.74122c0.56352,-0.86476 0.98951,-1.71236 1.27798,-2.5428c0.28847,-0.83044 0.48972,-1.78786 0.60377,-2.87223c0.11404,-1.08438 0.17107,-2.4982 0.17107,-4.24144v-6.34157c1.1807,-0.10981 2.37818,-0.29855 3.59242,-0.56621c1.21425,-0.26766 2.24401,-0.56621 3.08928,-0.89564l0.46289,1.46186c-0.71111,0.30198 -1.58657,0.57994 -2.62639,0.83388c-1.03982,0.25394 -2.05617,0.43581 -3.04903,0.54562zM295.29489,182.73211v-2.26485h-9.51942v2.26485zM285.77547,176.94646v2.18249h9.51942v-2.18249zM285.77547,175.64933h9.51942v-2.1619h-9.51942zM264.30143,181.76441l0.66415,0.2059l0.7044,0.2059c-1.22095,3.98063 -1.97231,6.47883 -2.25407,7.49459l-1.38867,-0.47356c0.21467,-0.61769 0.61048,-1.87022 1.18741,-3.75759c0.57693,-1.88737 0.9392,-3.11244 1.08678,-3.67522zM243.33052,183.57628l1.18741,0.49414c-0.6306,1.68834 -1.34842,3.14333 -2.15344,4.36497l-1.10691,-0.70004c0.40251,-0.56278 0.76477,-1.18047 1.08678,-1.85306c0.32201,-0.67259 0.65073,-1.44126 0.98616,-2.30603zM247.93929,174.55808h-3.3811c0.32201,1.53735 0.53668,2.64232 0.64402,3.31492h1.91193c0.24151,-0.85103 0.51656,-1.956 0.82515,-3.31492zM265.87122,179.29367l-0.92578,1.21478c-0.48301,-0.48042 -1.04989,-1.02261 -1.70062,-1.62657c-0.65073,-0.60396 -1.19077,-1.07752 -1.62011,-1.42068l0.88553,-1.13242c0.9392,0.76868 2.05952,1.75698 3.36098,2.96489zM267.40077,188.64131l-1.34842,-0.59709c0.28176,-0.46669 0.57693,-1.08095 0.88553,-1.84276c0.30859,-0.76181 0.57023,-1.45843 0.7849,-2.08983l1.26791,0.45297c-0.21467,0.65886 -0.4696,1.37606 -0.76477,2.15161c-0.29518,0.77553 -0.57023,1.41724 -0.82515,1.92512zM266.27374,174.311l-0.88553,1.1736c-0.73794,-0.70004 -1.81131,-1.62657 -3.2201,-2.77958l0.88553,-1.15301c0.81844,0.63142 1.89181,1.55108 3.2201,2.75899zM269.67497,184.66753l1.26791,-0.28825c0.12075,0.39807 0.25828,0.96428 0.41258,1.69863c0.1543,0.73436 0.26499,1.33489 0.33207,1.80158l-1.30817,0.22648c-0.24151,-1.46872 -0.47631,-2.61486 -0.7044,-3.43845zM247.51665,184.39987l1.00628,-0.76181c0.49643,0.68631 1.14716,1.6403 1.95219,2.86194l-1.04653,0.82358c-0.71111,-1.13929 -1.34842,-2.11386 -1.91193,-2.92371zM272.11017,184.5234l1.14716,-0.43238c0.20126,0.45297 0.39916,0.99516 0.59371,1.62657c0.19455,0.63142 0.31195,1.00203 0.3522,1.11183c0.02683,0.09608 0.05367,0.17844 0.0805,0.24708c0.02683,0.06864 0.04696,0.13726 0.06038,0.2059l-1.20754,0.41179c-0.36226,-1.27655 -0.7044,-2.33347 -1.02641,-3.17079zM274.44474,184.29692l1.10691,-0.53533c0.21467,0.41179 0.45618,0.91281 0.72452,1.50303c0.26834,0.59023 0.45618,1.02261 0.56352,1.29713l-1.14716,0.53533c-0.161,-0.39807 -0.37232,-0.89221 -0.63396,-1.48244c-0.26163,-0.59023 -0.46624,-1.02947 -0.61383,-1.31773zM338.84674,173.32271l-0.92578,0.90594c-0.71111,-0.86476 -1.32829,-1.56481 -1.85156,-2.10013l0.84528,-0.86476c0.29518,0.30198 0.62389,0.64171 0.98616,1.01918c0.36226,0.37747 0.67756,0.72406 0.9459,1.03977z" fill="#ffffff" fill-rule="evenodd" stroke="#ffffff" stroke-width="0.5" stroke-linecap="round"/></g></g></svg>