<svg version="1.1" xmlns="http://www.w3.org/2000/svg" xmlns:xlink="http://www.w3.org/1999/xlink" width="180" height="40" viewBox="0,0,180,40"><g transform="translate(-150,-160)"><g stroke-linecap="round" stroke-miterlimit="10"><path d="M150,160h180v40h-180z" fill="none" fill-rule="nonzero" stroke="none" stroke-width="0.2" stroke-linejoin="round"/><path d="M181.22429,180.25274l-0.32939,1.16239c-1.16202,-0.22851 -2.2051,-0.49427 -3.12923,-0.79728c-0.92413,-0.30301 -1.76133,-0.66316 -2.51162,-1.08042c-1.62866,0.87427 -3.573,1.57965 -5.83301,2.11614l-0.37057,-1.13258c1.88486,-0.38746 3.5913,-0.93885 5.11931,-1.65417c-0.78689,-0.55636 -1.54174,-1.25677 -2.26457,-2.10124c-0.60389,0.68551 -1.24437,1.32135 -1.92146,1.90751l-0.63133,-0.90905c0.67709,-0.57623 1.36104,-1.2667 2.05184,-2.07143c0.69081,-0.80473 1.24208,-1.55482 1.65382,-2.25027l1.04307,0.34275c-0.17385,0.28812 -0.42089,0.6706 -0.74113,1.14749h6.29965v1.02826c-0.91498,1.13258 -2.02211,2.11614 -3.32138,2.95067c1.28098,0.5663 2.90964,1.01337 4.886,1.34122zM171.91894,186.28821v0.90905h-1.02935v-5.5586h8.52305v5.5586h-1.02935v-0.90905zM171.91894,185.27484h6.46434v-2.60792h-6.46434zM178.25975,175.96084h-5.59968c0.72284,0.96369 1.58292,1.75351 2.58025,2.36948c1.27182,-0.71532 2.2783,-1.50515 3.01944,-2.36948z" fill="#ffffff" fill-rule="evenodd" stroke="#ffffff" stroke-width="0.4" stroke-linejoin="miter"/><path d="M193.9471,183.03948l0.97446,0.23844c0,0.29805 -0.0183,0.77492 -0.0549,1.43063l-0.01373,0.49178c-0.02745,0.40733 -0.10064,0.72276 -0.21959,0.9463c-0.11895,0.22353 -0.3111,0.3825 -0.57644,0.47687c-0.26534,0.09438 -0.64049,0.14157 -1.12542,0.14157h-3.48607c-0.4575,0 -0.81663,-0.05216 -1.07739,-0.15648c-0.26077,-0.10432 -0.45063,-0.28812 -0.56957,-0.55139c-0.11895,-0.26327 -0.17843,-0.64329 -0.17843,-1.14003v-5.12643l-1.15287,0.43217l-0.26077,-1.05807l1.41365,-0.52158v-3.6809h0.97446v3.32324l1.70187,-0.6408v-3.99384h0.96073v3.65109l2.92337,-1.08787l-0.15098,5.32016c-0.02745,0.40733 -0.08235,0.71532 -0.1647,0.92395c-0.08235,0.20864 -0.22417,0.35766 -0.42547,0.44707c-0.2013,0.08941 -0.49409,0.13412 -0.87838,0.13412h-0.74113l-0.19215,-1.10278h0.49409c0.26534,0 0.46206,-0.02236 0.59017,-0.06706c0.12809,-0.04471 0.21731,-0.12667 0.26763,-0.24589c0.05032,-0.11922 0.08006,-0.30798 0.08921,-0.5663l0.12353,-3.33814l-1.93518,0.71532v5.90135h-0.96073v-5.54369l-1.70187,0.6408v5.03701c0,0.35766 0.02287,0.62093 0.06863,0.78983c0.04575,0.16889 0.13953,0.28812 0.28136,0.35766c0.14182,0.06954 0.36371,0.10432 0.66565,0.10432h2.93709c0.38429,0 0.66565,-0.02484 0.84407,-0.07451c0.17843,-0.04967 0.30423,-0.14902 0.37743,-0.29805c0.07319,-0.14902 0.11895,-0.38746 0.13725,-0.71532zM185.41033,178.61347v5.15623l1.57834,-0.55139l0.08235,0.55139l0.0549,0.47687l-4.07624,1.44553l-0.26077,-0.99846l1.64697,-0.58119v-5.49899h-1.44109v-1.08787h1.44109v-3.57658h0.97446v3.57658h1.1666v1.08787z" fill="#ffffff" fill-rule="evenodd" stroke="#ffffff" stroke-width="0.4" stroke-linejoin="miter"/><path d="M208.24825,175.60318h-9.53868v9.82069h9.79944v1.11768h-10.88369v-12.07094h10.62293zM200.01342,184.75326l-0.68623,-0.99846c1.08883,-0.89414 2.2417,-2.01182 3.45863,-3.35304c-1.40907,-1.53991 -2.42927,-2.63773 -3.06062,-3.29344l0.71368,-0.86434c1.02478,1.0531 2.05871,2.14595 3.10178,3.27853c0.96073,-1.11271 1.82996,-2.25523 2.6077,-3.42755l0.86466,0.71532c-0.82348,1.22199 -1.72016,2.40426 -2.69004,3.54677c1.59207,1.74855 2.67175,2.94571 3.23903,3.59148l-0.80976,0.89414c-1.15287,-1.33128 -2.21883,-2.52844 -3.19786,-3.59148c-1.24437,1.38096 -2.4247,2.54832 -3.54097,3.50206z" fill="#ffffff" fill-rule="evenodd" stroke="#ffffff" stroke-width="0.4" stroke-linejoin="miter"/><path d="M215.72822,183.76971h-1.12542v2.29497l2.09988,-0.5663l0.02745,0.84944l-3.23903,0.95376l-0.30194,-0.78983c0.2013,-0.08941 0.32939,-0.16393 0.38429,-0.22353c0.0549,-0.05961 0.08235,-0.13909 0.08235,-0.23844v-2.28007h-1.2764c-0.07319,0.67558 -0.21502,1.28906 -0.42547,1.84045c-0.21044,0.55139 -0.50782,1.10526 -0.89211,1.66161l-0.86466,-0.65571c0.50324,-0.70538 0.84635,-1.38096 1.02935,-2.02673c0.18299,-0.64577 0.27449,-1.50515 0.27449,-2.57812v-2.14595h10.36216v0.74512h-9.40143v1.63927c0,0.33779 -0.00458,0.58617 -0.01373,0.74512h9.68964v0.77492h-5.35264c0.51239,0.58617 1.09341,1.04813 1.74304,1.38592c1.17118,-0.57623 1.99008,-1.00343 2.45672,-1.28161l0.41174,0.77492c-0.33855,0.17882 -0.95615,0.48681 -1.85283,0.92395c0.81434,0.24838 1.80251,0.43217 2.96454,0.55139l-0.39802,0.92395c-1.08883,-0.14902 -2.01753,-0.35766 -2.78611,-0.6259c-0.76858,-0.26825 -1.43881,-0.61348 -2.01067,-1.03572c-0.57186,-0.42224 -1.10026,-0.96121 -1.58521,-1.61691zM215.92037,179.4033v-2.78675h-4.06251v1.92241h-0.97446v-2.66753h5.03697v-0.80473h-4.55661v-0.83453h10.14256v0.83453h-4.62523v0.80473h5.09186v2.66753h-0.96073v-1.92241h-4.13114v2.78675zM213.03818,181.44493h8.19365v0.73021h-8.19365zM212.62643,177.97267v-0.6706h2.58025v0.6706zM217.64968,177.97267v-0.6706h2.56652v0.6706zM215.20668,178.53896v0.65571h-2.58025v-0.65571zM217.66341,179.19467v-0.65571h2.56652v0.65571z" fill="#ffffff" fill-rule="evenodd" stroke="#ffffff" stroke-width="0.4" stroke-linejoin="miter"/><path d="M228.3275,178.65818h-2.16851v1.2667c0,1.23193 -0.04346,2.25771 -0.13038,3.07735c-0.08692,0.81963 -0.22188,1.5424 -0.40487,2.1683c-0.18299,0.6259 -0.43919,1.31638 -0.76858,2.07143l-0.90583,-0.58119c0.32939,-0.76499 0.57644,-1.44057 0.74113,-2.02673c0.1647,-0.58617 0.28365,-1.26173 0.35684,-2.02673c0.07319,-0.76499 0.1098,-1.76842 0.1098,-3.01028v-4.50052h5.10559c-0.08235,-0.37753 -0.17385,-0.73021 -0.27449,-1.05807c-0.0183,-0.06954 -0.0366,-0.13661 -0.0549,-0.20118c-0.0183,-0.06458 -0.03203,-0.1217 -0.04118,-0.17138l1.15287,-0.14902c0.1647,0.5961 0.30652,1.12265 0.42547,1.57965h4.51543v0.99846h-2.26457v1.62436h2.22341v0.93885h-2.22341v2.22046h-5.39381zM236.10941,186.03487l-0.32939,1.11768c-1.07968,-0.18877 -2.01295,-0.39491 -2.79984,-0.61845c-0.78689,-0.22353 -1.50057,-0.49427 -2.14106,-0.81219c-1.20777,0.57623 -2.74037,1.08291 -4.59778,1.52004l-0.41174,-1.04317c1.58292,-0.29805 2.90049,-0.65571 3.95271,-1.07297c-0.86008,-0.57623 -1.73388,-1.36109 -2.62142,-2.35457v-0.92395h7.4388v0.93885c-0.70454,0.93389 -1.57376,1.70881 -2.6077,2.32477c1.00648,0.37753 2.37895,0.68551 4.11741,0.92395zM233.28212,182.77124h-4.70757c0.71368,0.79479 1.48227,1.41076 2.30575,1.8479c0.96073,-0.49674 1.76133,-1.11271 2.40182,-1.8479zM229.30196,176.09497v1.62436h3.41746v-1.62436zM229.30196,178.65818v1.28161h3.41746v-1.28161zM226.159,177.71933h2.16851v-1.62436h-2.16851z" fill="#ffffff" fill-rule="evenodd" stroke="#ffffff" stroke-width="0.4" stroke-linejoin="miter"/></g></g></svg>