<svg version="1.1" xmlns="http://www.w3.org/2000/svg" xmlns:xlink="http://www.w3.org/1999/xlink" width="199.3446" height="39.18325" viewBox="0,0,199.3446,39.18325"><g transform="translate(-138.6554,-157.81675)"><g stroke-miterlimit="10"><path d="M142,197v-34h196v34z" fill-opacity="0" fill="#000000" fill-rule="nonzero" stroke="none" stroke-width="1" stroke-linecap="butt"/><path d="M140.11624,159.33994h14.19823v1.19394h-2.00066v10.0033c0,0.61311 -0.06723,1.07562 -0.20168,1.38755c-0.13445,0.31193 -0.37109,0.52974 -0.70991,0.65344c-0.33882,0.1237 -0.84705,0.18555 -1.5247,0.18555h-2.14587l-0.22588,-1.24235h2.09747c0.43025,0 0.74218,-0.03227 0.93579,-0.09681c0.19361,-0.06454 0.32807,-0.18555 0.40336,-0.36302c0.07529,-0.17748 0.11294,-0.46521 0.11294,-0.86319v-9.66448h-10.93909zM141.77808,169.32711v-6.3892h6.51828v6.3892zM142.95588,164.11571v4.04972h4.13039v-4.04972z" fill="#ffd253" fill-rule="evenodd" stroke="#ffd253" stroke-width="0.45" stroke-linecap="round"/><path d="M158.28352,173.02187h-1.11327v-8.95457h5.79223v7.35726c0,0.39798 -0.05109,0.70453 -0.15328,0.91966c-0.10218,0.21512 -0.2716,0.36302 -0.50823,0.44369c-0.23664,0.08067 -0.57008,0.12101 -1.00033,0.12101h-1.16167l-0.24202,-1.14554h1.21008c0.22588,0 0.38722,-0.02151 0.48403,-0.06454c0.09681,-0.04302 0.15865,-0.11832 0.18555,-0.22588c0.02689,-0.10756 0.04034,-0.27428 0.04034,-0.50016v-1.19394h-3.53342zM169.30328,168.87535l1.09714,0.29042c-0.04302,0.96806 -0.08605,1.62419 -0.12907,1.96839c-0.05378,0.57008 -0.2205,0.96806 -0.50016,1.19394c-0.27966,0.22588 -0.74218,0.33882 -1.38755,0.33882h-2.46856c-0.49479,0 -0.8605,-0.12907 -1.09714,-0.38722c-0.23664,-0.25815 -0.35496,-0.66151 -0.35496,-1.21008v-5.11459h1.16167v2.25881c0.73142,-0.31193 1.45747,-0.64806 2.17814,-1.0084c0.72067,-0.36033 1.3015,-0.68571 1.74251,-0.97613l0.59697,1.081c-0.5163,0.30117 -1.21008,0.65613 -2.08133,1.06487c-0.87125,0.40874 -1.68335,0.76369 -2.43629,1.06487v1.24235c0,0.33344 0.06992,0.56739 0.20975,0.70184c0.13983,0.13445 0.36571,0.20168 0.67764,0.20168h1.50049c0.43025,0 0.72605,-0.06723 0.88739,-0.20168c0.16134,-0.13445 0.26353,-0.38991 0.30655,-0.76638c0.02151,-0.24739 0.04302,-0.54319 0.06454,-0.88739c0.02151,-0.3442 0.03227,-0.62924 0.03227,-0.85512zM168.43203,165.13218h-2.61376c-0.47327,0 -0.82016,-0.1237 -1.04067,-0.37109c-0.2205,-0.24739 -0.33075,-0.64537 -0.33075,-1.19394v-5.17913h1.1294v2.6299c0.73142,-0.30117 1.46554,-0.62117 2.20234,-0.95999c0.7368,-0.33882 1.29344,-0.62117 1.66991,-0.84705l0.5163,1.06487c-0.79596,0.44101 -2.25881,1.09714 -4.38854,1.96839v0.91966c0,0.33344 0.05916,0.56201 0.17748,0.68571c0.11832,0.1237 0.32807,0.18555 0.62924,0.18555h1.66184c0.30117,0 0.52168,-0.01882 0.66151,-0.05647c0.13983,-0.03765 0.24202,-0.1237 0.30655,-0.25815c0.06454,-0.13445 0.10756,-0.34689 0.12907,-0.63731c0.01076,-0.19361 0.0242,-0.43832 0.04034,-0.73411c0.01613,-0.2958 0.0242,-0.5405 0.0242,-0.73411l1.09714,0.33882l-0.03227,0.53243l-0.06454,1.14554c-0.04302,0.57008 -0.19361,0.96268 -0.45176,1.17781c-0.25815,0.21512 -0.69916,0.32269 -1.32302,0.32269zM160.63913,160.1628l0.83899,-0.62924c0.89277,1.11865 1.72638,2.20503 2.50082,3.25914l-0.91966,0.70991c-0.26891,-0.38722 -0.47865,-0.68302 -0.62924,-0.88739l-5.72769,0.37109l-0.14521,-1.00033c1.01109,-0.98957 1.97377,-2.24805 2.88805,-3.77544l1.1294,0.5163c-0.3442,0.5163 -0.74218,1.06487 -1.19394,1.6457c-0.45176,0.58084 -0.8605,1.07562 -1.22621,1.48436l3.56569,-0.24202c-0.33344,-0.47327 -0.69378,-0.95731 -1.081,-1.45209zM161.81694,167.42325h-3.53342v1.35529h3.53342zM158.28352,166.42292h3.53342v-1.33915h-3.53342z" fill="#ffd253" fill-rule="evenodd" stroke="#ffd253" stroke-width="0.45" stroke-linecap="round"/><path d="M177.43499,167.84275h-4.66283v-1.16167h13.43992v1.16167h-7.24432c-0.43025,0.60235 -0.9089,1.19932 -1.43596,1.79091c-0.52706,0.59159 -1.04335,1.11327 -1.5489,1.56503l6.59895,-0.30655c-0.79596,-0.94655 -1.30688,-1.5489 -1.53276,-1.80705l0.91966,-0.74218c0.92504,1.02184 2.04906,2.32335 3.37208,3.90451l-0.90352,0.85512l-0.91966,-1.09714l-9.30952,0.4679l-0.27428,-1.09714c1.33377,-1.06487 2.50082,-2.24267 3.50115,-3.53342zM178.96776,158.33961h1.1294c0.73142,1.02184 1.66453,1.99528 2.79931,2.92032c1.13478,0.92504 2.42822,1.74789 3.88031,2.46856l-0.5647,1.16167c-1.35529,-0.6884 -2.62721,-1.51125 -3.81577,-2.46856c-1.18856,-0.95731 -2.14318,-1.91999 -2.86385,-2.88805c-0.73142,0.98957 -1.67797,1.95495 -2.83965,2.89612c-1.16167,0.94117 -2.4578,1.77747 -3.88838,2.50889l-0.5647,-1.14554c1.46285,-0.72067 2.76166,-1.54621 3.89645,-2.47662c1.13478,-0.93041 2.07864,-1.92268 2.83158,-2.97679zM183.37244,164.66428h-7.77676v-1.1294h7.77676z" fill="#ffd253" fill-rule="evenodd" stroke="#ffd253" stroke-width="0.45" stroke-linecap="round"/><path d="M202.58845,171.76339l-0.5163,1.29075c-2.17276,-0.65613 -3.94216,-1.46823 -5.3082,-2.43629c-0.67764,0.45176 -1.45747,0.87125 -2.33948,1.25848c-0.88201,0.38722 -1.93612,0.79596 -3.16233,1.22621l-0.54857,-1.17781c2.10822,-0.6884 3.78082,-1.39831 5.01778,-2.12973c-0.97882,-0.8605 -1.80705,-1.95763 -2.48469,-3.29141c-0.46252,1.05411 -1.02722,2.06251 -1.69411,3.02519c-0.66689,0.96268 -1.48436,1.96032 -2.45242,2.99292l-0.69378,-1.24235c1.19394,-1.2047 2.17545,-2.49545 2.94452,-3.87224c0.76907,-1.3768 1.37411,-2.94721 1.81511,-4.71123h-3.82384v-1.04873l0.75831,-3.06553l1.25848,0.29042l-0.64537,2.6783h2.71057c0.19361,-0.98957 0.35496,-2.0652 0.48403,-3.22687l1.25848,0.11294c-0.11832,1.04335 -0.27428,2.08133 -0.4679,3.11393h7.82516v1.14554h-8.06718c-0.16134,0.73142 -0.3442,1.40369 -0.54857,2.01679h6.95391v1.16167c-0.43025,0.84974 -0.88739,1.59192 -1.37142,2.22654c-0.48403,0.63462 -1.02722,1.2047 -1.62957,1.71024c1.2047,0.77445 2.78049,1.4252 4.72737,1.95226zM199.47452,165.87436h-5.19526c0.64537,1.27999 1.48974,2.34486 2.53309,3.1946c1.15092,-0.87125 2.03831,-1.93612 2.66217,-3.1946zM200.84594,159.92078l-0.59697,1.04873c-0.91428,-0.57008 -1.85545,-1.13478 -2.82351,-1.69411l0.61311,-1.01646c0.84974,0.48403 1.78553,1.03798 2.80738,1.66184z" fill="#ffd253" fill-rule="evenodd" stroke="#ffd253" stroke-width="0.45" stroke-linecap="round"/><path d="M212.73696,167.26191v3.79157h6.11492v1.19394h-13.85941v-1.19394h6.45374v-3.79157h-5.05005v-1.21008h5.05005v-3.30754h-3.83998c-0.46252,1.01109 -1.00571,1.95226 -1.62957,2.82351l-1.081,-0.66151c1.21545,-1.62419 2.12436,-3.60872 2.72671,-5.95358l1.22621,0.29042c-0.22588,0.81747 -0.4679,1.57579 -0.72605,2.27494h3.32368v-3.16233h1.29075v3.16233h5.51795v1.22621h-5.51795v3.30754h4.96938v1.21008z" fill="#ffd253" fill-rule="evenodd" stroke="#ffd253" stroke-width="0.45" stroke-linecap="round"/><path d="M235.05076,165.95503v1.09714h-1.66184l-0.09681,2.50082h1.45209v1.11327h-1.48436l-0.01613,0.29042c-0.03227,0.49479 -0.12101,0.87663 -0.26622,1.14554c-0.14521,0.26891 -0.37109,0.45983 -0.67764,0.57277c-0.30655,0.11294 -0.73411,0.16941 -1.28268,0.16941h-2.40402l-0.24202,-1.1294h2.25881c0.53781,0 0.91159,-0.0726 1.12134,-0.21781c0.20975,-0.14521 0.32538,-0.41143 0.34689,-0.79865v-0.03227h-7.24432l0.40336,-3.61409h-1.25848v-1.09714h1.37142l0.35496,-3.21074c-0.32269,0.40874 -0.57008,0.70991 -0.74218,0.90352l-0.82285,-0.87125c0.59159,-0.65613 1.15361,-1.40369 1.68604,-2.24267c0.53243,-0.83899 0.96537,-1.65108 1.29882,-2.43629l1.081,0.37109c-0.18286,0.41949 -0.3926,0.85512 -0.62924,1.30688h7.06685v1.09714h-7.67995c-0.3442,0.57008 -0.65613,1.04335 -0.93579,1.41982h7.50247l-0.12907,3.6625zM226.0962,169.55299h6.05038l0.03227,-0.59697c0.04302,-0.73142 0.06992,-1.36604 0.08067,-1.90385h-5.8729zM232.42086,163.38967h-5.61475l-0.29042,2.56536h5.79223c0.07529,-1.4736 0.11294,-2.32873 0.11294,-2.56536zM222.15942,172.98961l-1.16167,-0.35496l1.56503,-5.55022l1.09714,0.33882c-0.08605,0.30117 -0.54857,2.00604 -1.38755,5.11459zM224.0794,164.53521l-0.69378,1.01646c-1.31226,-1.14016 -2.18352,-1.87158 -2.61376,-2.19427l0.69378,-0.93579zM224.53117,160.6791l-0.66151,0.95193c-0.7852,-0.64537 -1.65108,-1.3284 -2.59763,-2.04906l0.69378,-0.91966c0.60235,0.45176 1.45747,1.12403 2.56536,2.01679zM230.62995,168.68173l-0.67764,0.83899c-0.23664,-0.21512 -0.56201,-0.48403 -0.97613,-0.80672c-0.41411,-0.32269 -0.78252,-0.60235 -1.1052,-0.83899l0.61311,-0.80672c0.74218,0.53781 1.45747,1.07562 2.14587,1.61344zM228.1614,164.24479l0.61311,-0.82285c0.94655,0.6884 1.63495,1.21545 2.0652,1.58117l-0.64537,0.87125c-0.58084,-0.49479 -1.25848,-1.03798 -2.03293,-1.62957z" fill="#ffd253" fill-rule="evenodd" stroke="#ffd253" stroke-width="0.45" stroke-linecap="round"/><path d="M246.65136,159.80784h3.48502v2.30721h0.93579v1.0326h-0.93579v2.30721h-3.48502v7.325h-1.14554v-7.325h-3.50115v-1.00033h3.50115v-1.30688h-4.03359v-1.0326h4.03359v-1.32302h-3.29141v-0.9842h3.29141v-1.48436h1.14554zM237.45478,159.88851h3.63023v10.06784h-2.53309v1.46823h-1.09714zM238.55192,168.81081h1.43596v-7.79289h-1.43596zM242.14988,166.84242v-0.80672h1.06487v0.90352c0,0.98957 -0.05647,1.83125 -0.16941,2.52503c-0.11294,0.69378 -0.31731,1.33646 -0.61311,1.92806c-0.2958,0.59159 -0.71798,1.18856 -1.26655,1.79091l-0.80672,-0.79058c0.48403,-0.52706 0.85243,-1.02991 1.1052,-1.50856c0.25277,-0.47865 0.43025,-1.02722 0.53243,-1.6457c0.10218,-0.61848 0.15328,-1.41713 0.15328,-2.39595zM250.23319,166.05183v6.93777h-1.09714v-6.93777zM244.16667,171.40844l-0.93579,-0.22588c0.21512,-0.63462 0.40067,-1.3526 0.55664,-2.15394c0.15597,-0.80134 0.2716,-1.59461 0.34689,-2.37982l0.87125,0.08067c-0.07529,0.82823 -0.18555,1.65646 -0.33075,2.48469c-0.14521,0.82823 -0.31462,1.55965 -0.50823,2.19427zM248.95858,171.00508l-0.91966,0.25815l-1.00033,-4.53375l0.90352,-0.22588zM249.10378,162.11505v-1.32302h-2.45242v1.32302zM246.65136,163.14765v1.30688h2.45242v-1.30688z" fill="#ffd253" fill-rule="evenodd" stroke="#ffd253" stroke-width="0.45" stroke-linecap="round"/><path d="M151.8397,179.86595h-3.66038v1.05917h4.48591v0.88784h-9.96869v-0.88784h4.34572v-1.05917h-3.39558v-0.87226h3.39558v-1.01244h-3.86287v-0.88784h3.86287v-1.16821h1.13705v1.16821h4.04978v0.88784h-4.04978v1.01244h3.66038zM144.87719,189.9281h-1.12148v-7.07154h7.72573v5.51393c0,0.55035 -0.11942,0.93197 -0.35825,1.14484c-0.23883,0.21287 -0.66977,0.31931 -1.29281,0.31931h-1.65106l-0.17134,-0.88784h1.46415c0.28037,0 0.48286,-0.02336 0.60747,-0.07009c0.12461,-0.04673 0.20249,-0.11942 0.23364,-0.21807c0.03115,-0.09865 0.04673,-0.25701 0.04673,-0.47507v-0.57631h-5.48278zM141.48161,180.95628v6.49522l1.35512,-1.26166l0.26479,1.24609l-2.4766,2.18065l-0.70092,-0.87226c0.15576,-0.14538 0.26739,-0.28556 0.33489,-0.42055c0.0675,-0.13499 0.10124,-0.29075 0.10124,-0.46728v-5.77872h-1.47973v-1.12148zM144.87719,184.80357h5.48278v-1.01244h-5.48278zM150.35997,185.70698h-5.48278v0.99687h5.48278zM142.5252,179.04042l-0.98129,0.66977c-0.21807,-0.36344 -0.50882,-0.82553 -0.87226,-1.38627c-0.36344,-0.56074 -0.69054,-1.04879 -0.98129,-1.46415l0.91899,-0.62304c0.22845,0.30114 0.53218,0.72948 0.9112,1.28503c0.37902,0.55555 0.7139,1.06177 1.00466,1.51867z" fill="#ffd253" fill-rule="evenodd" stroke="#ffd253" stroke-width="0.45" stroke-linecap="round"/><path d="M159.1293,187.56053l-0.85668,-0.82553c0.60227,-0.44651 1.06177,-0.86188 1.37848,-1.24609c0.31671,-0.38421 0.53997,-0.82294 0.66977,-1.31618c0.1298,-0.49324 0.20508,-1.13965 0.22585,-1.93922l0.01558,-0.59189h-2.27411v-1.1059h9.53256v1.1059h-3.11521v3.5825c0,0.32191 0.04673,0.53478 0.14018,0.63862c0.09346,0.10384 0.26999,0.15576 0.52959,0.15576h0.60747c0.32191,0 0.53218,-0.05711 0.63083,-0.17134c0.09865,-0.11422 0.15316,-0.36344 0.16355,-0.74765c0.01038,-0.2596 0.01558,-0.81515 0.01558,-1.66664l1.02802,0.21807c0,0.34267 -0.01558,0.96572 -0.04673,1.86913c-0.02077,0.60227 -0.14278,1.01244 -0.36604,1.23051c-0.22326,0.21807 -0.61525,0.3271 -1.17599,0.3271h-1.24609c-0.50882,0 -0.86966,-0.11682 -1.08254,-0.35046c-0.21287,-0.23364 -0.31931,-0.65679 -0.31931,-1.26945v-3.81614h-1.91586l-0.01558,0.6542c-0.02077,0.9138 -0.11422,1.67183 -0.28037,2.27411c-0.16614,0.60227 -0.42315,1.12927 -0.77102,1.58097c-0.34787,0.45171 -0.83851,0.92158 -1.47194,1.40963zM161.52801,188.4951h6.66656l-0.23364,1.13705h-6.61983c-1.11109,0 -2.0197,-0.14278 -2.72581,-0.42834c-0.70612,-0.28556 -1.30839,-0.75544 -1.80682,-1.40963l-1.96259,2.07162l-0.51401,-1.29281l1.93143,-1.93143v-4.23669h-1.83798v-1.16821h2.95945v5.43605c0.41536,0.64381 0.95014,1.1085 1.60434,1.39406c0.6542,0.28556 1.5005,0.42834 2.5389,0.42834zM159.1916,177.96567v-1.12148h7.74131v1.12148zM158.07013,179.1183l-0.96572,0.76323c-0.63343,-0.95533 -1.31358,-1.94182 -2.04047,-2.95945l0.93456,-0.70092c0.32191,0.42575 0.67237,0.90341 1.05138,1.433c0.37902,0.52959 0.7191,1.01764 1.02023,1.46415z" fill="#ffd253" fill-rule="evenodd" stroke="#ffd253" stroke-width="0.45" stroke-linecap="round"/><path d="M182.11958,183.07462h-4.70397c-0.17653,0.41536 -0.38421,0.85149 -0.62304,1.30839h5.96564v3.89402c0,0.43613 -0.05711,0.77621 -0.17134,1.02023c-0.11422,0.24402 -0.30373,0.41796 -0.56853,0.5218c-0.26479,0.10384 -0.64121,0.15576 -1.12927,0.15576h-1.68222l-0.20249,-0.99687h1.40185c0.33229,0 0.58151,-0.02856 0.74765,-0.08567c0.16614,-0.05711 0.28037,-0.15576 0.34267,-0.29595c0.0623,-0.14018 0.09346,-0.35046 0.09346,-0.63083v-2.58563h-5.34259c-0.40498,0.72688 -0.78919,1.34993 -1.15263,1.86913l3.44231,-0.26479c-0.16614,-0.20768 -0.28556,-0.36344 -0.35825,-0.46728l-0.48286,-0.59189l0.82553,-0.54516c0.52959,0.64381 1.23051,1.53165 2.10277,2.66351l-0.87226,0.59189l-0.51401,-0.7165l-5.31144,0.42055l-0.28037,-1.02802c0.57112,-0.73727 1.01764,-1.38108 1.33954,-1.93143h-2.866v4.65725h-1.16821v-5.65411h4.59494c0.21807,-0.41536 0.42055,-0.85149 0.60747,-1.30839h-4.57937v-4.09651h1.15263v3.09964h8.25532v-3.09964h1.13705zM177.80501,177.21802h5.77872v0.99687h-13.45773v-0.99687h6.41734c-0.12461,-0.37383 -0.27518,-0.784 -0.45171,-1.23051l1.16821,-0.28037c0.20768,0.55035 0.3894,1.05398 0.54516,1.51088zM173.78638,181.81296l-0.3271,-0.85668c0.43613,-0.14538 1.17859,-0.42575 2.22738,-0.84111l-0.52959,-0.23364c-1.0384,-0.41536 -1.53684,-0.61785 -1.4953,-0.60747l0.37383,-0.82553l2.81927,1.16821c1.04879,-0.43613 1.93663,-0.8463 2.66351,-1.23051l0.45171,0.80996c-0.36344,0.1973 -1.01244,0.50363 -1.94701,0.91899c0.68535,0.28037 1.433,0.60227 2.24295,0.96572l-0.42055,0.87226c-0.39459,-0.18691 -1.39146,-0.63343 -2.99061,-1.33954c-1.07994,0.46728 -2.10277,0.86707 -3.06849,1.19936z" fill="#ffd253" fill-rule="evenodd" stroke="#ffd253" stroke-width="0.45" stroke-linecap="round"/><path d="M199.34672,183.23038v1.05917h-1.60434l-0.09346,2.41429h1.40185v1.07475h-1.433l-0.01558,0.28037c-0.03115,0.47767 -0.11682,0.8463 -0.25701,1.1059c-0.14018,0.2596 -0.35825,0.44392 -0.6542,0.55295c-0.29595,0.10903 -0.70871,0.16355 -1.2383,0.16355h-2.32083l-0.23364,-1.09033h2.18065c0.5192,0 0.88005,-0.07009 1.08254,-0.21028c0.20249,-0.14018 0.31412,-0.39719 0.33489,-0.77102v-0.03115h-6.99366l0.3894,-3.48904h-1.21493v-1.05917h1.32397l0.34267,-3.09964c-0.31152,0.39459 -0.55035,0.68535 -0.7165,0.87226l-0.79438,-0.84111c0.57112,-0.63343 1.11369,-1.35512 1.6277,-2.16507c0.51401,-0.80996 0.93197,-1.59395 1.25387,-2.35199l1.0436,0.35825c-0.17653,0.40498 -0.37902,0.82553 -0.60747,1.26166h6.82232v1.05917h-7.41421c-0.33229,0.55035 -0.63343,1.00725 -0.90341,1.37069h7.24287l-0.12461,3.53577zM190.702,186.70385h5.84103l0.03115,-0.57631c0.04154,-0.70612 0.0675,-1.31877 0.07788,-1.83798h-5.66969zM196.80782,180.75379h-5.42047l-0.28037,2.4766h5.59181c0.07269,-1.42261 0.10903,-2.24815 0.10903,-2.4766zM186.90144,190.02155l-1.12148,-0.34267l1.51088,-5.35817l1.05917,0.3271c-0.08307,0.29075 -0.52959,1.93663 -1.33954,4.93762zM188.75499,181.85969l-0.66977,0.98129c-1.26685,-1.10071 -2.10796,-1.80682 -2.52332,-2.11835l0.66977,-0.90341zM189.19112,178.13701l-0.63862,0.91899c-0.75804,-0.62304 -1.59395,-1.28243 -2.50775,-1.97816l0.66977,-0.88784c0.58151,0.43613 1.40704,1.08513 2.4766,1.94701zM195.07888,185.86274l-0.6542,0.80996c-0.22845,-0.20768 -0.54257,-0.46728 -0.94235,-0.7788c-0.39979,-0.31152 -0.75544,-0.58151 -1.06696,-0.80996l0.59189,-0.7788c0.7165,0.5192 1.40704,1.0384 2.07162,1.55761zM192.69574,181.57932l0.59189,-0.79438c0.9138,0.66458 1.57838,1.1734 1.99374,1.52646l-0.62304,0.84111c-0.56074,-0.47767 -1.21493,-1.00206 -1.96259,-1.57318z" fill="#ffd253" fill-rule="evenodd" stroke="#ffd253" stroke-width="0.45" stroke-linecap="round"/><path d="M209.92287,184.25841v1.85355h4.81301v1.09033h-4.81301v2.94388h-1.18378v-2.94388h-4.81301v-1.09033h4.81301v-1.85355h-3.81614v-1.09033h8.92509v1.09033zM202.6177,180.66033h11.978v1.05917h-10.79422v1.77567c0,1.433 -0.11942,2.64274 -0.35825,3.62923c-0.23883,0.98648 -0.649,1.98855 -1.23051,3.00618l-1.01244,-0.68535c0.39459,-0.73727 0.69054,-1.38627 0.88784,-1.94701c0.1973,-0.56074 0.33489,-1.15263 0.41277,-1.77567c0.07788,-0.62304 0.11682,-1.40185 0.11682,-2.33641zM212.58638,178.30835v-1.74452h1.18378v2.80369h-10.96556v-2.78812h1.21493v1.72894h3.66038v-2.42987h1.21493v2.42987z" fill="#ffd253" fill-rule="evenodd" stroke="#ffd253" stroke-width="0.45" stroke-linecap="round"/><path d="M223.17811,181.34568h-2.58563v1.32397c0.39459,0.28037 0.85668,0.63343 1.38627,1.05917c0.52959,0.42575 0.93976,0.77361 1.23051,1.0436l-0.52959,1.01244l-1.40185,-1.21493l-0.68535,-0.59189v6.10582h-1.13705v-6.58868c-0.72688,1.53684 -1.50569,2.80369 -2.33641,3.80056l-0.59189,-1.16821c0.55035,-0.64381 1.07215,-1.38367 1.5654,-2.21959c0.49324,-0.83592 0.92158,-1.69 1.28503,-2.56226h-2.49217v-1.16821h2.57005v-2.1495c-0.7165,0.13499 -1.51088,0.2596 -2.38314,0.37383l-0.10903,-1.1059c0.92418,-0.13499 1.92884,-0.30633 3.01397,-0.51401c1.08513,-0.20768 2.00672,-0.41536 2.76475,-0.62304l0.21807,1.13705c-0.55035,0.14538 -1.33954,0.31671 -2.36756,0.51401v2.36756h2.58563zM225.10955,189.63215h-1.13705v-12.22722h5.68527v12.11819h-1.15263v-1.15263h-3.39558zM228.50513,178.61987h-3.39558v8.50454h3.39558z" fill="#ffd253" fill-rule="evenodd" stroke="#ffd253" stroke-width="0.45" stroke-linecap="round"/><path d="M236.57354,176.98438h9.4391v1.15263h-1.27724v9.61044c0,0.55035 -0.0649,0.9735 -0.1947,1.26945c-0.1298,0.29595 -0.35825,0.50622 -0.68535,0.63083c-0.3271,0.12461 -0.79178,0.18691 -1.39406,0.18691h-2.05604l-0.20249,-1.18378h1.94701c0.41536,0 0.7191,-0.02856 0.9112,-0.08567c0.19211,-0.05711 0.32191,-0.17134 0.3894,-0.34267c0.0675,-0.17134 0.10124,-0.44392 0.10124,-0.81774v-9.26776h-6.97808zM237.07197,186.18984v-6.09024h4.61052v6.09024zM235.62339,184.41417l-1.86913,5.49835l-1.16821,-0.42055l1.8847,-5.49835zM238.14672,181.18992v3.90959h2.4766v-3.90959zM232.13435,180.67591l0.66977,-0.98129c0.40498,0.26999 1.28762,0.92418 2.64793,1.96259l0.3271,0.24922l-0.68535,1.01244c-0.92418,-0.72688 -1.91066,-1.47453 -2.95945,-2.24295zM232.95989,177.14014l0.66977,-0.98129c1.16301,0.84111 2.05085,1.51088 2.66351,2.00931l-0.66977,1.01244c-0.79957,-0.6542 -1.68741,-1.33435 -2.66351,-2.04047z" fill="#ffd253" fill-rule="evenodd" stroke="#ffd253" stroke-width="0.45" stroke-linecap="round"/><path d="M251.97827,182.71637l-0.29595,-0.98129c1.04879,-0.84111 2.0197,-1.80682 2.91273,-2.89715h-2.89715v-1.12148h4.15881l-0.57631,-1.66664l1.19936,-0.28037l0.7165,1.94701h3.92517v1.12148h-5.09338c-0.88264,1.06956 -1.74452,1.99374 -2.58563,2.77254l5.15568,-0.24922l-1.29281,-1.35512l0.80996,-0.73208l3.00618,3.1931l-0.82553,0.79438c-0.15576,-0.18691 -0.42055,-0.48805 -0.79438,-0.90341zM260.59184,186.22099l0.91899,0.14018c0,0.13499 -0.00519,0.24922 -0.01558,0.34267c-0.03115,1.06956 -0.05192,1.67702 -0.0623,1.8224c-0.03115,0.48805 -0.14538,0.82294 -0.34267,1.00466c-0.1973,0.18172 -0.53997,0.27258 -1.02802,0.27258h-0.62304c-0.5192,0 -0.87745,-0.09086 -1.07475,-0.27258c-0.1973,-0.18172 -0.29595,-0.51141 -0.29595,-0.98908v-5.17126h1.0436v4.85973c0,0.1973 0.04932,0.33489 0.14797,0.41277c0.09865,0.07788 0.2622,0.11682 0.49065,0.11682h0.20249c0.21807,0 0.36604,-0.03894 0.44392,-0.11682c0.07788,-0.07788 0.12201,-0.24662 0.1324,-0.50622c0.02077,-0.26999 0.03634,-0.5867 0.04673,-0.95014c0.01038,-0.36344 0.01558,-0.68535 0.01558,-0.96572zM252.61689,184.77242v-1.40185h1.05917v1.65106c-0.01038,0.85149 -0.07788,1.54982 -0.20249,2.09498c-0.12461,0.54516 -0.35565,1.05398 -0.69314,1.52646c-0.33748,0.47247 -0.83851,0.98908 -1.50309,1.54982l-0.80996,-0.79438c0.59189,-0.4569 1.03581,-0.87745 1.33175,-1.26166c0.29595,-0.38421 0.50622,-0.83072 0.63083,-1.33954c0.12461,-0.50882 0.18691,-1.18378 0.18691,-2.02489zM256.4486,183.40172v6.37061h-1.0436v-6.37061zM249.11227,189.95925l-1.16821,-0.34267l1.7601,-5.59181l1.12148,0.3271zM250.9191,181.9843l-0.70092,0.99687c-0.95533,-0.85149 -1.79644,-1.54722 -2.52332,-2.08719l0.6542,-0.93456c0.78919,0.58151 1.64587,1.25647 2.57005,2.02489zM251.26177,178.16816l-0.68535,0.96572c-0.62304,-0.5192 -1.44857,-1.15263 -2.4766,-1.90028l0.6542,-0.93456c0.78919,0.53997 1.6251,1.16301 2.50775,1.86913z" fill="#ffd253" fill-rule="evenodd" stroke="#ffd253" stroke-width="0.45" stroke-linecap="round"/></g></g></svg>