<svg version="1.1" xmlns="http://www.w3.org/2000/svg" xmlns:xlink="http://www.w3.org/1999/xlink" width="340" height="100" viewBox="0,0,340,100"><g transform="translate(-70,-130)"><g stroke-miterlimit="10"><path d="M70,230v-100h340v100z" fill="none" fill-rule="nonzero" stroke="none" stroke-width="1" stroke-linecap="butt" opacity="0.988"/><g fill="#ff0000" fill-rule="nonzero" stroke="none" stroke-linecap="butt"><path d="M123.44132,165.39274c1.98791,0 3.56472,0.593 4.72836,1.78091c1.16362,1.16364 1.74536,2.74045 1.74536,4.72836v1.01736c0,1.91518 -0.58173,3.45463 -1.74536,4.61827c-0.14946,0.14946 -0.30747,0.28877 -0.47053,0.41904c0.25635,0.18115 0.50142,0.37713 0.72444,0.60014c1.21212,1.18791 1.81818,2.84709 1.81818,4.98045v1.60154c0,2.20609 -0.60609,3.927 -1.81818,5.16336c-1.18791,1.21212 -2.84891,1.81818 -4.98227,1.81818c-2.13327,0 -3.80563,-0.60609 -5.01772,-1.81818c-1.18789,-1.23636 -1.78091,-2.95727 -1.78091,-5.16336v-1.60154c0,-2.13336 0.593,-3.79254 1.78091,-4.98045c0.23216,-0.22753 0.48687,-0.42685 0.75284,-0.6108c-0.1599,-0.12684 -0.31376,-0.26352 -0.46164,-0.40838c-1.16362,-1.16364 -1.74536,-2.70309 -1.74536,-4.61827v-1.01736c0,-1.98791 0.58173,-3.56472 1.74536,-4.72836c1.18782,-1.18789 2.76291,-1.78091 4.72654,-1.78091zM123.44133,168.26565c-0.67873,0 -1.26052,0.14588 -1.74536,0.43679c-0.46064,0.26673 -0.8123,0.67824 -1.05473,1.23582c-0.24243,0.55754 -0.36222,1.23654 -0.36222,2.03654v1.05473c0,1.21218 0.26567,2.14554 0.79901,2.80009c0.55754,0.63034 1.34509,0.94464 2.36327,0.94464c1.04245,0 1.83175,-0.31434 2.36509,-0.94464c0.53334,-0.65454 0.79901,-1.588 0.79901,-2.80009v-1.05473c0,-0.8 -0.12156,-1.47897 -0.36399,-2.03654c-0.24246,-0.5576 -0.59412,-0.96915 -1.05473,-1.23582c-0.46054,-0.29091 -1.04234,-0.43679 -1.74536,-0.43679zM123.44121,179.28291c-1.09091,0 -1.95133,0.36473 -2.58163,1.092c-0.60606,0.72727 -0.90909,1.75609 -0.90909,3.08945v1.60154c0,0.87273 0.13462,1.62288 0.40128,2.25318c0.29095,0.63034 0.68945,1.11661 1.19854,1.456c0.53336,0.31515 1.16373,0.4723 1.891,0.4723c0.72727,0 1.34636,-0.15715 1.85545,-0.4723c0.53333,-0.33945 0.93361,-0.8257 1.20027,-1.456c0.29091,-0.63027 0.43502,-1.38045 0.43502,-2.25318v-1.60154c0,-1.33327 -0.30309,-2.36215 -0.90909,-3.08945c-0.606,-0.7273 -1.46645,-1.092 -2.58163,-1.092z" stroke-width="1.1"/><path d="M99.45187,172.86164l3.13391,7.67936c0.40587,1.002 0.73608,2.17445 1.044,3.40018c0.30427,-1.21745 0.63453,-2.38572 1.04582,-3.40018l3.13563,-7.67936h4.1459v18.57635h-2.88882v-9.68726c0,-2.44 0.04248,-3.98054 0.09411,-5.3249c-0.44685,1.32891 -0.89321,2.63898 -1.10445,3.19272l-3.34509,8.78354h-2.16263l-3.13391,-8.22972c-0.49776,-1.31154 -0.91019,-2.53391 -1.31573,-3.74818c0.05165,1.37145 0.0941,2.92791 0.0941,5.32672v9.68726h-2.88882v-18.57635z" stroke-width="1.21"/><path d="" stroke-width="1.21"/></g><path d="M149.80339,189.9633l-1.18505,1.22522c-0.46866,-0.68291 -1.64032,-2.17593 -3.51497,-4.47907c-0.58918,0.88376 -1.35912,1.72066 -2.30983,2.51069c-0.95071,0.79003 -2.17593,1.61354 -3.67565,2.47052l-0.92393,-1.40599c1.92821,-1.04445 3.38776,-2.08555 4.37864,-3.1233c0.99089,-1.03775 1.69053,-2.19602 2.09894,-3.47479c0.40841,-1.27878 0.69295,-2.96261 0.85363,-5.05151c0.06695,-0.81681 0.10043,-2.48391 0.10043,-5.00129h1.58676v1.32564c0,1.87465 -0.02678,3.14004 -0.08034,3.79616c-0.09373,1.41938 -0.23098,2.6379 -0.41175,3.65556c-0.18077,1.01767 -0.44523,1.93491 -0.79338,2.75172c1.07123,1.27208 2.3634,2.87223 3.87651,4.80044zM135.16104,187.21159l5.10172,-4.31839l0.86368,1.40599l-7.13036,6.22651l-1.1047,-1.36582c0.25442,-0.2812 0.42514,-0.50214 0.51218,-0.66282c0.08704,-0.16068 0.13056,-0.35484 0.13056,-0.58248v-13.77867h1.62693zM142.2914,178.85601l-1.3859,0.80342c-0.40171,-0.81681 -0.91054,-1.79096 -1.5265,-2.92244c-0.61596,-1.13148 -1.13148,-2.0119 -1.54658,-2.64125l1.26539,-0.82351c0.68291,1.07123 1.74744,2.93249 3.1936,5.58377z" fill="#ff0000" fill-rule="evenodd" stroke="#ff0000" stroke-width="0.75" stroke-linecap="round"/><path d="M168.90472,180.68379h-7.57224v8.27523h8.49617v1.60684h-17.51457v-1.60684h7.33121v-15.70688h1.68718v5.86497h7.57224z" fill="#ff0000" fill-rule="evenodd" stroke="#ff0000" stroke-width="0.75" stroke-linecap="round"/><path d="M187.48382,185.90603h-12.15174v3.39445h14.40132v1.44616h-16.00816v-16.12867h15.56628v1.46624h-13.95944v3.01283h12.15174zM175.33208,184.43979h10.60515v-3.89659h-10.60515z" fill="#ff0000" fill-rule="evenodd" stroke="#ff0000" stroke-width="0.75" stroke-linecap="round"/><path d="M210.1202,190.04365l-0.9641,1.50641c-3.99032,-2.32992 -6.60814,-5.18876 -7.85344,-8.57652c-0.61596,1.71396 -1.60349,3.28064 -2.96261,4.70001c-1.35912,1.41938 -3.00948,2.73163 -4.95108,3.93676l-0.98419,-1.5265c2.30314,-1.28547 4.16105,-2.78854 5.57373,-4.5092c1.41268,-1.72066 2.20606,-3.65222 2.38013,-5.79467h-7.6325v-1.54658h7.65258v-4.94104h1.60684v4.94104h7.71284v1.54658h-7.73292c-0.01339,0.06695 -0.02009,0.16738 -0.02009,0.30128c0.44188,2.15585 1.3156,4.03049 2.62116,5.62395c1.30556,1.59345 3.15677,3.03961 5.55365,4.33847z" fill="#ff0000" fill-rule="evenodd" stroke="#ff0000" stroke-width="0.75" stroke-linecap="round"/><path d="M228.67922,185.96629l1.42607,0.32137c0,0.40171 -0.02678,1.04445 -0.08034,1.92821l-0.02009,0.66282c-0.04017,0.549 -0.14729,0.97415 -0.32137,1.27543c-0.17407,0.30128 -0.45527,0.51553 -0.84359,0.64274c-0.38832,0.12721 -0.93732,0.19081 -1.64701,0.19081h-5.10172c-0.66952,0 -1.19509,-0.0703 -1.57671,-0.2109c-0.38162,-0.1406 -0.65947,-0.38832 -0.83355,-0.74316c-0.17407,-0.35484 -0.26111,-0.86702 -0.26111,-1.53654v-6.90942l-1.68718,0.58248l-0.38162,-1.42607l2.06881,-0.70299v-4.96112h1.42607v4.47907l2.4906,-0.86368v-5.38292h1.40599v4.92095l4.27822,-1.46624l-0.22094,7.17053c-0.04017,0.549 -0.12051,0.9641 -0.24103,1.2453c-0.12051,0.2812 -0.32806,0.48205 -0.62265,0.60257c-0.29459,0.12051 -0.72308,0.18077 -1.28547,0.18077h-1.08462l-0.2812,-1.48633h0.72308c0.38832,0 0.67621,-0.03013 0.86368,-0.09038c0.18747,-0.06026 0.31802,-0.17073 0.39167,-0.33141c0.07365,-0.16068 0.11717,-0.4151 0.13056,-0.76325l0.18077,-4.49916l-2.83206,0.9641v7.95387h-1.40599v-7.47181l-2.4906,0.86368v6.78891c0,0.48205 0.03348,0.8369 0.10043,1.06453c0.06695,0.22764 0.2042,0.38832 0.41175,0.48205c0.20755,0.09373 0.53227,0.1406 0.97415,0.1406h4.2983c0.56239,0 0.97415,-0.03348 1.23526,-0.10043c0.26111,-0.06695 0.44523,-0.20086 0.55235,-0.40171c0.10712,-0.20086 0.17407,-0.52222 0.20086,-0.9641zM216.18603,180.00089v6.94959l2.30983,-0.74316l0.12051,0.74316l0.08034,0.64274l-5.9654,1.9483l-0.38162,-1.34573l2.41026,-0.78334v-7.41156h-2.10898v-1.46624h2.10898v-4.82052h1.42607v4.82052h1.70727v1.46624z" fill="#ff0000" fill-rule="evenodd" stroke="#ff0000" stroke-width="0.75" stroke-linecap="round"/><path d="M240.46942,186.95048h-1.64701v3.09317l3.07308,-0.76325l0.04017,1.14487l-4.74018,1.28547l-0.44188,-1.06453c0.29459,-0.12051 0.48205,-0.22094 0.56239,-0.30128c0.08034,-0.08034 0.12051,-0.18747 0.12051,-0.32137v-3.07308h-1.86795c-0.10712,0.91054 -0.31467,1.7374 -0.62265,2.48056c-0.30798,0.74316 -0.74316,1.48968 -1.30556,2.23954l-1.26539,-0.88376c0.73647,-0.95071 1.23861,-1.86126 1.50641,-2.73163c0.26781,-0.87037 0.40171,-2.02864 0.40171,-3.47479v-2.89231h15.16457v1.00428h-13.75858v2.20941c0,0.45527 -0.0067,0.79003 -0.02009,1.00428h14.18038v1.04445h-7.83335c0.74986,0.79003 1.60015,1.41268 2.55086,1.86795c1.71396,-0.77664 2.9124,-1.35243 3.59531,-1.72735l0.60257,1.04445c-0.49544,0.24103 -1.39929,0.65613 -2.71155,1.2453c1.19174,0.33476 2.6379,0.58248 4.33847,0.74316l-0.58248,1.2453c-1.59345,-0.20086 -2.95257,-0.48205 -4.07736,-0.84359c-1.12479,-0.36154 -2.10563,-0.82685 -2.94253,-1.39594c-0.8369,-0.56909 -1.61019,-1.29552 -2.31988,-2.17928zM240.75062,181.06542v-3.75599h-5.94531v2.59103h-1.42607v-3.59531h7.37139v-1.08462h-6.66839v-1.12479h14.8432v1.12479h-6.76882v1.08462h7.45173v3.59531h-1.40599v-2.59103h-6.04574v3.75599zM236.53266,183.81714h11.99105v0.98419h-11.99105zM235.93009,179.13721v-0.90385h3.77608v0.90385zM243.28139,179.13721v-0.90385h3.75599v0.90385zM239.70617,179.90046v0.88376h-3.77608v-0.88376zM243.30148,180.78422v-0.88376h3.75599v0.88376z" fill="#ff0000" fill-rule="evenodd" stroke="#ff0000" stroke-width="0.75" stroke-linecap="round"/></g></g></svg>