<svg version="1.1" xmlns="http://www.w3.org/2000/svg" xmlns:xlink="http://www.w3.org/1999/xlink" width="208" height="32" viewBox="0,0,208,32"><g transform="translate(-240,-164)"><g stroke-miterlimit="10"><path d="M240,196v-32h208v32z" fill="none" fill-rule="nonzero" stroke="none" stroke-width="0" stroke-linecap="butt"/><path d="M246.66,178.9h11.152v10.605h-2.2559v-1.3476h-9.4043v1.3476h-2.2168v-7.2266c-0.80727,0.8008 -1.67317,1.56577 -2.5977,2.2949l-1.2012,-1.875c1.78387,-1.24347 3.3008,-2.7897 4.5508,-4.6387c0.97007,-1.4388 1.72853,-2.9297 2.2754,-4.4727h-5.9863v-1.9434h18.125v1.9434h-9.7461c-0.6966,1.88153 -1.59503,3.65237 -2.6953,5.3125zM246.15218,180.8043v5.4102h9.4043v-5.4102z" fill="#ffffff" fill-rule="nonzero" stroke="none" stroke-width="1" stroke-linecap="butt"/><path d="M262.94,171.3h2.3438v6.6016c0,2.72787 -0.15299,4.81447 -0.45898,6.2598c-0.28646,1.33467 -0.77149,2.52933 -1.4551,3.584c-0.24089,0.37761 -0.57292,0.81707 -0.99609,1.3184l-1.8555,-1.582c1.17187,-1.24347 1.90103,-2.89387 2.1875,-4.9512c0.15625,-1.10027 0.23437,-2.5358 0.23437,-4.3066zM269.1412,171.60273h2.2754v15.898h-2.2754zM275.5572,170.82148h2.3047v18.457h-2.3047z" fill="#ffffff" fill-rule="nonzero" stroke="none" stroke-width="1" stroke-linecap="butt"/><path d="M301.95,174.96c0.8138,-1.4258 1.49413,-2.93947 2.041,-4.541l2.1973,0.45899c-0.63151,1.47133 -1.33138,2.81247 -2.0996,4.0234c0.39713,-0.01953 1.0091,-0.04883 1.8359,-0.0879c0.07162,0 0.56642,-0.0293 1.4844,-0.0879l-0.0586,-0.0977c-0.29297,-0.50131 -0.63151,-1.03191 -1.0156,-1.5918l1.6602,-0.82031c1.13933,1.47787 2.03777,2.89063 2.6953,4.2383l-1.875,1.0254c-0.16927,-0.36459 -0.36459,-0.77475 -0.58594,-1.2305c-2.05727,0.25391 -4.5703,0.44922 -7.5391,0.58594l-0.49804,-1.8359c0.25391,0 0.83984,-0.01303 1.7578,-0.0391zM309.2938,178.0557v9.5606c0,0.6706 -0.1595,1.13283 -0.47851,1.3867c-0.28646,0.22786 -0.77799,0.34179 -1.4746,0.34179c-0.71613,0 -1.37043,-0.04232 -1.9629,-0.12695l-0.32227,-1.8457c0.80727,0.09765 1.39973,0.14648 1.7774,0.14648c0.24089,0 0.38411,-0.04883 0.42968,-0.14648c0.03253,-0.07813 0.0488,-0.19857 0.0488,-0.36133v-1.7774h-3.8184v4.2676h-2.0215v-11.445zM303.493,179.6573v1.2793h3.8184v-1.2793zM303.493,182.4014v1.3672h3.8184v-1.3672zM313.0145,173.4561c1.51693,-0.55339 2.96223,-1.23372 4.3359,-2.041l1.4648,1.4844c-1.97267,1.04167 -3.90627,1.82293 -5.8008,2.3438v1.6504c0,0.32552 0.0944,0.51758 0.2832,0.57617c0.26042,0.08464 0.90169,0.12696 1.9238,0.12696c0.87893,0 1.4258,-0.09766 1.6406,-0.29297c0.16927,-0.15625 0.27995,-0.74545 0.33204,-1.7676c0.00667,-0.19531 0.01317,-0.34831 0.0195,-0.45899l2.0605,0.49805c-0.05207,1.7578 -0.25063,2.82877 -0.5957,3.2129c-0.22135,0.2474 -0.58919,0.41993 -1.1035,0.51758c-0.65755,0.13021 -1.61781,0.19531 -2.8808,0.19531c-1.582,0 -2.6139,-0.11719 -3.0957,-0.35156c-0.45573,-0.22787 -0.68359,-0.7194 -0.68359,-1.4746v-7.1777h2.0996zM313.0145,182.9678c1.52347,-0.50781 3.0827,-1.21095 4.6777,-2.1094l1.3672,1.6211c-2.11587,1.0612 -4.13083,1.82943 -6.0449,2.3047v1.748c0,0.42318 0.13672,0.67383 0.41015,0.75196c0.20833,0.06513 0.74543,0.0977 1.6113,0.0977c1.21093,0 1.90103,-0.10417 2.0703,-0.3125c0.18229,-0.22135 0.29948,-1.05795 0.35157,-2.5098l2.0801,0.55664c-0.013,1.9336 -0.30597,3.13803 -0.87891,3.6133c-0.5013,0.41667 -1.76757,0.625 -3.7988,0.625c-1.60807,0 -2.67253,-0.13021 -3.1934,-0.39063c-0.5013,-0.24088 -0.75195,-0.72915 -0.75195,-1.4648v-7.3633h2.0996z" fill="#ffffff" fill-rule="nonzero" stroke="none" stroke-width="1" stroke-linecap="butt"/><path d="M334.79,174.72c0.8268,-0.59896 1.66013,-1.38023 2.5,-2.3438l1.6016,1.0644c-0.7292,0.77473 -1.56903,1.49413 -2.5195,2.1582c0.89193,0.44271 1.9987,0.89845 3.3203,1.3672l-1.0645,1.7188c-1.6992,-0.65755 -3.18357,-1.36719 -4.4531,-2.1289v1.2109h-8.3984v-0.83984c-1.30207,0.83333 -2.85807,1.59507 -4.668,2.2852l-1.0156,-1.6699c1.73173,-0.55989 3.16403,-1.17839 4.2969,-1.8555l-0.0977,-0.0781c-0.86587,-0.70313 -1.7578,-1.31837 -2.6758,-1.8457l1.4941,-1.2988c1.1914,0.76173 2.15493,1.46487 2.8906,2.1094c0.76173,-0.63802 1.39,-1.28255 1.8848,-1.9336h-4.3555v-1.6992h7.2461c0.54037,0.7292 1.10027,1.38023 1.6797,1.9531l0.20508,-0.17578c0.7096,-0.61198 1.36713,-1.26951 1.9726,-1.9726l1.5625,1.1328c-0.66406,0.65104 -1.49413,1.34764 -2.4902,2.0898c0.33203,0.2474 0.69336,0.49805 1.084,0.75196zM326.831,176.1848h6.748c-1.46487,-0.95707 -2.67253,-2.01827 -3.623,-3.1836c-0.7552,1.0156 -1.51367,1.84893 -2.2754,2.5c-0.24089,0.20833 -0.52409,0.4362 -0.84961,0.68359zM335.0732,184.5832c-0.29947,0.78127 -0.72591,1.6797 -1.2793,2.6953h5.5762v1.7383h-18.74v-1.7383h5.2246c-0.44921,-1.1068 -0.85285,-2.00523 -1.2109,-2.6953h-1.5332v-5.3223h13.74v5.3223zM332.749,184.5832h-5.7812c0.39713,0.8594 0.73243,1.71553 1.0059,2.5684l0.0293,0.12695h3.6426l0.0684,-0.14648c0.46875,-1.00913 0.81381,-1.85873 1.0352,-2.5488zM325.3076,180.8039v2.2559h9.3262v-2.2559z" fill="#ffffff" fill-rule="nonzero" stroke="none" stroke-width="1" stroke-linecap="butt"/><path d="M350.23,178.41v7.7344c0,0.5013 0.21485,0.80403 0.64454,0.9082c0.44271,0.11068 1.45507,0.16602 3.0371,0.16602c1.54293,0 2.5618,-0.07813 3.0566,-0.23438c0.27995,-0.09115 0.46224,-0.34505 0.54687,-0.76172c0.11068,-0.58593 0.16927,-1.2793 0.17578,-2.0801l2.041,0.57618c-0.10417,1.9206 -0.36784,3.1478 -0.79102,3.6816c-0.27995,0.35156 -0.70311,0.55989 -1.2695,0.625c-0.89193,0.09765 -2.4056,0.14648 -4.541,0.14648c-1.65367,0 -2.73767,-0.04557 -3.252,-0.13672c-0.77473,-0.13021 -1.26627,-0.47201 -1.4746,-1.0254c-0.10417,-0.29297 -0.15625,-0.6836 -0.15625,-1.1719v-7.7441l-1.8652,0.64453l-0.45899,-1.8945l2.3242,-0.80078v-5.2637h1.9824v4.5801l2.0996,-0.71289v-5.1465h1.9629v4.4629l3.2715,-1.123l1.0254,0.625v7.3144c0,0.50781 -0.12044,0.88541 -0.36133,1.1328c-0.27343,0.27343 -0.73243,0.41015 -1.377,0.41015c-0.52735,0 -1.08725,-0.04557 -1.6797,-0.13672l-0.32226,-1.8652c0.38411,0.09765 0.77475,0.14648 1.1719,0.14648c0.28646,0 0.46224,-0.05859 0.52734,-0.17578c0.06513,-0.09765 0.0977,-0.26041 0.0977,-0.48828v-4.6191l-2.3535,0.82031v7.9004h-1.9629v-7.2266zM343.0523,175.2166v-4.7168h2.0996v4.7168h1.8945v1.9824h-1.8945v6.2109c0.6836,-0.23437 1.36067,-0.47851 2.0312,-0.73242l0.18555,1.8848c-2.1094,0.96353 -4.2741,1.77083 -6.4941,2.4219l-0.6836,-2.0801c1.0026,-0.26041 1.8815,-0.50781 2.6367,-0.74218c0.09115,-0.03253 0.16602,-0.05533 0.22461,-0.0684v-6.8945h-2.4805v-1.9824z" fill="#ffffff" fill-rule="nonzero" stroke="none" stroke-width="1" stroke-linecap="butt"/><path d="M369.48,175.76c-0.0456,1.08727 -0.1107,2.0443 -0.19531,2.8711h7.8711c-0.09765,4.51827 -0.35156,7.4512 -0.76172,8.7988c-0.20833,0.67707 -0.5957,1.1458 -1.1621,1.4062c-0.44271,0.20182 -1.09051,0.30273 -1.9434,0.30273c-0.89847,0 -1.91733,-0.06836 -3.0566,-0.20507l-0.38085,-2.1973c1.52993,0.21485 2.6074,0.32227 3.2324,0.32227c0.52734,0 0.86264,-0.14974 1.0059,-0.44922c0.34505,-0.7292 0.58593,-2.74093 0.72265,-6.0352h-5.8105c-0.21485,1.17187 -0.51758,2.1875 -0.90821,3.0469c-1.08727,2.37627 -2.90367,4.26103 -5.4492,5.6543l-1.543,-1.7188c2.55207,-1.32813 4.23827,-3.06967 5.0586,-5.2246c0.54687,-1.4388 0.90167,-3.62957 1.0644,-6.5723h-6.4648v-2.002h7.9785v-3.2617h2.2559v3.2617h8.2422v2.002z" fill="#ffffff" fill-rule="nonzero" stroke="none" stroke-width="1" stroke-linecap="butt"/><path d="M298.69399,183.47997h-9.7624c-0.99523,1.16216 -2.21307,2.36582 -3.65354,3.61098l8.81956,-0.3528l-2.1607,-2.15829l0.96249,-1.01689c0.56309,0.53957 1.10326,1.06531 1.62052,1.57721c0.51726,0.5119 0.97231,0.96155 1.36516,1.34893c1.41428,1.41119 1.997,1.98535 1.74819,1.72248l-1.02142,1.18291c-0.22262,-0.24903 -0.62857,-0.68484 -1.21784,-1.30742l-12.13916,0.56032l-0.3732,-1.47345c1.54522,-1.16216 2.90057,-2.39349 4.06603,-3.69399h-5.63744v-1.41119h2.59283v-10.79144h12.13916v10.79144h2.65176zM294.62796,182.06878v-2.28281h-9.29098v2.28281zM285.33699,176.23725v2.19979h9.29098v-2.19979zM285.33699,174.92982h9.29098v-2.17904h-9.29098z" fill="#ffffff" fill-rule="evenodd" stroke="#ffffff" stroke-width="0.5" stroke-linecap="round"/></g></g></svg>