<svg version="1.1" xmlns="http://www.w3.org/2000/svg" xmlns:xlink="http://www.w3.org/1999/xlink" width="208" height="32" viewBox="0,0,208,32"><g transform="translate(-240,-164)"><g stroke="none" stroke-miterlimit="10"><path d="M240,196v-32h208v32z" fill="none" stroke-width="0"/><path d="M244.34,181.49c-0.7422,1.69273 -1.66343,3.25197 -2.7637,4.6777l-1.2207,-2.041c1.6146,-1.73827 2.8581,-3.7565 3.7305,-6.0547l0.0488,-0.13672h-3.4961v-1.8359h3.7012v-2.7539c-0.9896,0.18229 -1.8913,0.32552 -2.7051,0.42969l-0.82032,-1.7188c2.78647,-0.33854 5.306,-0.91147 7.5586,-1.7188l1.1816,1.7188c-1.12627,0.34505 -2.1712,0.62826 -3.1348,0.84961v3.1934h3.1152v1.8359h-3.1152v1.5723c1.23047,0.74867 2.36327,1.62433 3.3984,2.627l-1.2207,1.9434c-0.69013,-0.86587 -1.41603,-1.66667 -2.1777,-2.4024v7.832h-2.0801zM258.656,172.447v16.514h-2.1191v-1.3965h-4.2383v1.543h-2.0801v-16.66zM252.2986,174.4294v11.172h4.2383v-11.172z" fill="#ffffff" stroke-width="1"/><path d="M269.78,187.54c1.3086,-1.15887 2.2884,-2.70183 2.9394,-4.6289c0.39713,-1.17187 0.67057,-2.5358 0.82031,-4.0918c0.05207,-0.57943 0.0781,-1.10676 0.0781,-1.582v-1.6797h-0.6836c-0.01953,0.08463 -0.04557,0.20182 -0.0781,0.35156c-0.30599,1.38673 -0.76499,2.63023 -1.377,3.7305l-1.3184,-1.6602c0.944,-1.99867 1.569,-4.52797 1.875,-7.5879l1.9238,0.28321c-0.14323,1.12627 -0.31251,2.1126 -0.50782,2.959h5.0098l1.0547,0.85938c-0.44922,1.88153 -0.97982,3.51563 -1.5918,4.9023l-1.7285,-0.69336c0.59245,-1.3216 0.96679,-2.36977 1.123,-3.1445h-1.8555v1.7383c0,1.89453 0.44923,3.8151 1.3477,5.7617c0.69013,1.4974 1.68623,2.90367 2.9883,4.2188l-1.2988,2.2266c-1.3086,-1.51693 -2.41863,-3.32033 -3.3301,-5.4102c-0.24739,-0.5599 -0.42968,-1.10353 -0.54687,-1.6309c-0.52083,2.832 -1.7871,5.2441 -3.7988,7.2363l-1.0644,-1.4551c-0.0456,0.48828 -0.20185,0.82358 -0.46875,1.0059c-0.25391,0.16927 -0.71941,0.2539 -1.3965,0.2539c-1.00913,0 -1.78387,-0.04883 -2.3242,-0.14648l-0.37109,-1.8359l0.41992,0.0293c0.84633,0.0586 1.43553,0.0879 1.7676,0.0879c0.24089,0 0.38412,-0.05208 0.42969,-0.15625c0.03907,-0.07813 0.0586,-0.19857 0.0586,-0.36133v-5.7227h-7.4805v-1.6602h10.723v1.6602h-1.3379zM269.59445,173.077v4.9024c0,0.50781 -0.10091,0.86261 -0.30273,1.0644c-0.21485,0.21484 -0.59898,0.32226 -1.1524,0.32226c-0.48177,0 -1.07747,-0.04232 -1.7871,-0.12695l-0.18554,-0.99609h-4.6094v-4.1406h5.0586v3.6035c0.32552,0.02607 0.58594,0.0391 0.78125,0.0391c0.24088,0 0.36132,-0.12044 0.36132,-0.36133v-4.3066h-7.1387v-1.6797h10.234v1.6797zM263.21745,175.4598v1.4062h1.8164v-1.4062zM266.69405,182.5204v4.3164h-3.4766v1.1816h-1.7188v-5.498zM263.21745,183.8778v1.5625h1.8359v-1.5625z" fill="#ffffff" stroke-width="1"/><path d="M291.03,185.42h4.9219v-10.742h2.2168v14.658h-2.2168v-1.7969h-11.943v1.7969h-2.1973v-14.658h2.1973v10.742h4.8047v-14.727h2.2168z" fill="#ffffff" stroke-width="1"/><path d="M299.76013,181.96153h19.44375v2.10027h-19.44375v-2.10027M304.06894,174.72967h10.78284v1.9054h-10.78284v-1.9054M304.09059,178.32395h10.80449v1.88375h-10.80449v-1.88375M303.11624,171.04878h13.22955v11.86545h-2.33845v-9.91674h-8.63926v9.91674h-2.25184v-11.86545M311.69054,184.88459l1.97036,-0.86609c0.6207,0.49078 1.26016,1.04652 1.91839,1.66722c0.65535,0.6207 1.26882,1.22985 1.84044,1.82746c0.56874,0.60049 1.04075,1.13169 1.41606,1.5936l-2.03532,1.06097c-0.36087,-0.49078 -0.82567,-1.05086 -1.39441,-1.68022c-0.57162,-0.62647 -1.18221,-1.25727 -1.83178,-1.89241c-0.64957,-0.63513 -1.27748,-1.20531 -1.88375,-1.71053M301.68718,189.71305c-0.0433,-0.17322 -0.10826,-0.38975 -0.19487,-0.64957c-0.08661,-0.25983 -0.17322,-0.5312 -0.25983,-0.81412c-0.08661,-0.28003 -0.18043,-0.5211 -0.28148,-0.72319c0.24539,-0.05774 0.49079,-0.1559 0.73618,-0.29447c0.24539,-0.13569 0.51244,-0.31901 0.80114,-0.54997c0.21652,-0.14435 0.53842,-0.40418 0.96569,-0.77948c0.42438,-0.3753 0.8964,-0.83 1.41606,-1.36409c0.51966,-0.53409 0.99601,-1.09705 1.42905,-1.68888l2.38175,0.9094c-0.83722,0.93827 -1.72785,1.82889 -2.67189,2.67189c-0.94693,0.84589 -1.86066,1.55752 -2.74118,2.13492v0.04331c0,0 -0.07939,0.03609 -0.23818,0.10826c-0.15879,0.07217 -0.34211,0.16167 -0.54997,0.26849c-0.21075,0.1097 -0.39551,0.22951 -0.5543,0.35943c-0.15879,0.12992 -0.23818,0.25261 -0.23818,0.36809M301.68718,189.71305l-0.02165,-1.60227l1.38574,-0.75783l12.53668,-0.498c0.0433,0.28869 0.10826,0.60915 0.19487,0.96136c0.08661,0.3551 0.15157,0.64091 0.19487,0.85743c-1.99201,0.10104 -3.70976,0.19054 -5.15324,0.26849c-1.44349,0.08084 -2.66323,0.15012 -3.65924,0.20786c-0.99601,0.05774 -1.81446,0.10826 -2.45537,0.15157c-0.6438,0.04331 -1.15623,0.08228 -1.53731,0.11692c-0.38396,0.03753 -0.6871,0.07794 -0.9094,0.12125c-0.22519,0.04331 -0.41717,0.10105 -0.57595,0.17322z" fill="#ffffff" stroke-width="1"/></g></g></svg>