<svg version="1.1" xmlns="http://www.w3.org/2000/svg" xmlns:xlink="http://www.w3.org/1999/xlink" width="480" height="40" viewBox="0,0,480,40"><g transform="translate(0,-160)"><g stroke-miterlimit="10"><path d="M240,196v-32h208v32z" fill="none" fill-rule="nonzero" stroke="none" stroke-width="0" stroke-linecap="butt"/><path d="M0,200v-40h480v40z" fill="none" fill-rule="nonzero" stroke="#000000" stroke-width="0" stroke-linecap="butt"/><path d="M249.97942,186.0278h5.25831v-12.28004h1.52858v15.195h-1.52858v-1.30243h-13.67569v-13.89257h1.56934v12.28004h5.25831v-15.58779h1.58972zM298.93472,183.27823h-10.12939c-1.03264,1.15771 -2.29627,2.35677 -3.79088,3.59718l9.1511,-0.35145l-2.24192,-2.15004l0.99867,-1.013c0.58426,0.53751 1.14474,1.06124 1.68144,1.57118c0.5367,0.50995 1.00886,0.95787 1.41648,1.34378c1.46744,1.4058 2.07207,1.97776 1.81391,1.7159l-1.05982,1.17839c-0.23099,-0.24808 -0.65219,-0.68222 -1.26363,-1.30243l-12.59549,0.55818l-0.38724,-1.46782c1.60331,-1.15771 3.0096,-2.38434 4.21888,-3.67988h-5.84936v-1.4058h2.6903v-10.7502h12.59549v10.7502h2.75144zM338.65741,177.86178h-7.68366v8.51747h8.62119v1.65388h-17.77228v-1.65388h7.43909v-16.16665h1.71201v6.03665h7.68366zM271.39991,178.50266v1.48849h-2.50687v8.91026h-1.46744v-8.91026h-2.99602c-0.02718,1.52984 -0.11889,2.77369 -0.27514,3.73156c-0.15625,0.95787 -0.41442,1.8296 -0.77448,2.61519c-0.36007,0.78559 -0.89337,1.70212 -1.59991,2.74957l-1.36553,-0.82694c0.72013,-0.96476 1.25004,-1.79515 1.58972,-2.49115c0.33968,-0.69601 0.58426,-1.47126 0.73372,-2.32576c0.14946,-0.8545 0.23778,-2.00533 0.26495,-3.45247h-2.32344v-1.48849h2.34382v-0.22741v-5.23039h-1.91582v-1.50916h9.78291v1.50916h-1.99734v5.45779zM311.18374,186.15184l0.04076,0.59953l-1.46744,0.18606v2.25341h-1.36553v-2.06735c-3.84523,0.45482 -6.1279,0.74424 -6.84804,0.86829l-0.14267,-1.3231l1.05982,-0.12404l0.69296,-0.08269v-7.23571h-1.75277v-1.26108h17.81305v1.26108h-9.45681v6.40877l1.38591,-0.18606zM319.27502,187.57831l-0.59105,1.4058c-1.65766,-0.64777 -3.02998,-1.4058 -4.11697,-2.27408c-1.00547,0.86829 -2.24192,1.64699 -3.70935,2.3361l-0.67257,-1.3231c1.34515,-0.52373 2.4797,-1.16461 3.40364,-1.92263c-0.50273,-0.53751 -0.95451,-1.1336 -1.35534,-1.78825c-0.40083,-0.65466 -0.78467,-1.40235 -1.15153,-2.24307v-1.28175h6.92956v1.38512c-0.57067,1.46092 -1.37233,2.74957 -2.40497,3.86594c0.92394,0.68912 2.14681,1.30243 3.66859,1.83994zM303.86694,176.74541v-5.85059h12.88083v5.85059zM294.71584,181.87243v-2.27408h-9.64024v2.27408zM285.0756,176.06319v2.19139h9.64024v-2.19139zM285.0756,174.76076h9.64024v-2.17071h-9.64024zM277.37156,181.39694l1.03943,1.07502c-1.08699,1.30932 -2.22493,2.50838 -3.41383,3.59718c-1.1889,1.0888 -2.59179,2.08802 -4.20869,2.99765l-0.91715,-1.34378c1.54896,-0.81316 2.9043,-1.74002 4.06602,-2.78058c1.16172,-1.04056 2.30646,-2.2224 3.43421,-3.5455zM315.30071,174.36796h-9.98672v1.17839h9.98672zM305.31399,173.27227h9.98672v-1.15771h-9.98672zM271.39991,182.65802l-0.87639,-1.30243c1.08699,-0.68912 2.17398,-1.50916 3.26097,-2.46014c1.08699,-0.95098 2.0449,-1.90885 2.87373,-2.87361l1.05982,1.13704c-0.84242,0.96476 -1.81391,1.92608 -2.91449,2.88395c-1.10058,0.95787 -2.23512,1.8296 -3.40364,2.61519zM271.42029,176.6007l-0.856,-1.28175c0.93753,-0.56508 1.9328,-1.30243 2.98583,-2.21206c1.05302,-0.90963 1.95319,-1.79859 2.70049,-2.66688l1.05982,1.07502c-0.74731,0.86829 -1.65426,1.76069 -2.72087,2.67721c-1.06661,0.91652 -2.12303,1.71934 -3.16925,2.40846zM264.44997,178.2339v0.26876h2.97563v-5.45779h-2.97563zM316.46243,181.76906h-3.89278c0.52991,1.24041 1.20248,2.27408 2.01772,3.10102c0.82883,-0.90963 1.45385,-1.94331 1.87506,-3.10102zM304.53951,184.51863v1.77792l3.85202,-0.47549v-1.30243zM304.53951,180.77674h3.85202v-1.55051h-3.85202zM308.39153,183.42294v-1.55051h-3.85202v1.55051z" fill="#ffffff" fill-rule="evenodd" stroke="#ffffff" stroke-width="0.5" stroke-linecap="round"/></g></g></svg>