<svg version="1.1" xmlns="http://www.w3.org/2000/svg" xmlns:xlink="http://www.w3.org/1999/xlink" width="224" height="68" viewBox="0,0,224,68"><g transform="translate(-128,-146)"><g stroke-miterlimit="10"><path d="M128,214v-68h224v68z" fill="none" fill-rule="nonzero" stroke="none" stroke-width="1" stroke-linecap="butt"/><path d="M128,214v-66h224v66z" fill="#1d2a41" fill-rule="nonzero" stroke="none" stroke-width="1" stroke-linecap="butt"/><g fill-rule="evenodd" stroke="none" stroke-width="1" stroke-linecap="butt"><path d="M148,166h16c5.54,0 10,4.46 10,10v16c0,5.54 -4.46,10 -10,10h-26v-26c0,-5.54 4.46,-10 10,-10z" fill="#f1de2f"/><path d="M155.6783,172.415c0.48371,-0.00266 0.93163,0.25463 1.1732,0.6739l10.879,18.85c0.24033,0.41661 0.24021,0.92985 -0.00031,1.34634c-0.24052,0.4165 -0.68489,0.67296 -1.16569,0.67276h-21.756c-0.4808,0.0002 -0.92517,-0.25626 -1.16569,-0.67276c-0.24052,-0.4165 -0.24064,-0.92973 -0.00031,-1.34634l10.879,-18.85c0.23858,-0.4141 0.67875,-0.6706 1.1565,-0.6739zM151.14347,184.3217c1.8119,-1.0471 3.4584,-1.5132 4.8505,-1.3834c1.4265,0.1328 2.57736,0.907 3.2831,2.2317c0.05279,0.0998 0.03045,0.22276 -0.05407,0.29761c-0.08452,0.07485 -0.20928,0.08216 -0.30196,0.01769c-1.1899,-0.83 -2.13049,-0.6246 -2.6881,0.012c-0.35344,0.4034 -0.43467,0.91 -0.28674,1.4122c0.14792,0.5022 0.53654,0.9928 1.1445,1.3094c1.3885,0.723 3.7137,0.864 5.5697,0.3847c0.01271,-0.001 0.02549,-0.001 0.0382,0l-7.0106,-12.148z" fill="#191705"/></g><path d="M203.20245,184.53441v1.4353h-2.17406l-0.12664,3.27165h1.89967v1.45641h-1.94188l-0.02111,0.37993c-0.04221,0.64729 -0.15831,1.14684 -0.34827,1.49863c-0.18997,0.35179 -0.48547,0.60156 -0.88651,0.74931c-0.40104,0.14775 -0.96039,0.22163 -1.67804,0.22163h-3.145l-0.31661,-1.47752h2.95504c0.70358,0 1.19257,-0.09498 1.46697,-0.28495c0.2744,-0.18997 0.42567,-0.53824 0.45381,-1.04482v-0.04221h-9.47723l0.52769,-4.72806h-1.64638v-1.4353h1.79413l0.46436,-4.20038c-0.42215,0.53472 -0.7458,0.92873 -0.97094,1.18202l-1.07648,-1.1398c0.77394,-0.85837 1.50918,-1.83635 2.20572,-2.93393c0.69654,-1.09759 1.26293,-2.15999 1.69915,-3.18722l1.4142,0.48547c-0.23922,0.54879 -0.51361,1.11869 -0.82319,1.7097h9.24505v1.4353h-10.04713c-0.45029,0.7458 -0.85837,1.36495 -1.22423,1.85745h9.81495l-0.16886,4.79138zM191.48784,189.24137h7.91528l0.04221,-0.78097c0.05629,-0.95687 0.09147,-1.78709 0.10554,-2.49067h-7.6831zM199.76194,181.17834h-7.34538l-0.37993,3.35608h7.57756c0.0985,-1.92781 0.14775,-3.0465 0.14775,-3.35608zM186.33763,193.73725l-1.51973,-0.46436l2.04742,-7.26095l1.4353,0.44326c-0.11257,0.394 -0.71765,2.62436 -1.81524,6.69105zM188.84941,182.67696l-0.90762,1.32977c-1.71674,-1.49159 -2.85654,-2.44846 -3.4194,-2.87061l0.90762,-1.22423zM189.44042,177.63229l-0.8654,1.24534c-1.02723,-0.8443 -2.15999,-1.73784 -3.39829,-2.68064l0.90762,-1.20312c0.78801,0.59101 1.9067,1.47048 3.35608,2.63843zM197.41902,188.10157l-0.88651,1.09759c-0.30958,-0.28143 -0.73524,-0.63322 -1.277,-1.05537c-0.54176,-0.42215 -1.02371,-0.78801 -1.44586,-1.09759l0.80208,-1.05537c0.97094,0.70358 1.9067,1.40716 2.80729,2.11074zM194.18959,182.29703l0.80208,-1.07648c1.2383,0.90058 2.13889,1.59009 2.70175,2.06853l-0.8443,1.1398c-0.75987,-0.64729 -1.64638,-1.35791 -2.65953,-2.13185z" fill="#ffffff" fill-rule="evenodd" stroke="#ffffff" stroke-width="0.45" stroke-linecap="round"/><path d="M218.37868,176.49249h4.5592v3.01836h1.22423v1.35087h-1.22423v3.01836h-4.5592v9.58277h-1.49863v-9.58277h-4.58031v-1.30866h4.58031v-1.7097h-5.27685v-1.35087h5.27685v-1.73081h-4.30591v-1.28755h4.30591v-1.94188h1.49863zM206.34746,176.59803h4.74917v13.17103h-3.31386v1.92077h-1.4353zM207.78276,188.27043h1.87856v-10.19488h-1.87856zM212.48971,185.69532v-1.05537h1.39309v1.18202c0,1.29459 -0.07388,2.39569 -0.22163,3.30331c-0.14775,0.90762 -0.41511,1.7484 -0.80208,2.52234c-0.38697,0.77394 -0.93928,1.55491 -1.65693,2.34292l-1.05537,-1.03426c0.63322,-0.68951 1.11518,-1.34736 1.44586,-1.97354c0.33068,-0.62619 0.56286,-1.34384 0.69654,-2.15296c0.13368,-0.80912 0.20052,-1.85393 0.20052,-3.13445zM223.06453,184.66106v9.07619h-1.4353v-9.07619zM215.12814,191.66872l-1.22423,-0.2955c0.28143,-0.83023 0.52417,-1.76951 0.72821,-2.81784c0.20404,-1.04833 0.35531,-2.08612 0.45381,-3.11334l1.1398,0.10554c-0.0985,1.08351 -0.24274,2.16703 -0.4327,3.25054c-0.18997,1.08351 -0.41159,2.04038 -0.66488,2.87061zM221.39704,191.14104l-1.20312,0.33772l-1.30866,-5.93118l1.18202,-0.2955zM221.58701,179.51085v-1.73081h-3.20833v1.73081zM218.37868,180.86172v1.7097h3.20833v-1.7097z" fill="#ffffff" fill-rule="evenodd" stroke="#ffffff" stroke-width="0.45" stroke-linecap="round"/><path d="M244.17194,185.99083h-4.85471v5.27685h6.05783v1.54084h-14.03643v-1.54084h6.35333v-5.27685h-5.02356v-1.60416h5.02356v-4.64363h-5.25575v-1.58306h12.43227v1.58306h-5.55125v4.64363h4.85471zM229.96665,185.86418l0.78097,0.31661l0.73876,0.2744c-0.2955,0.8443 -1.21016,3.27869 -2.74396,7.30317l-1.56195,-0.5699c0.21107,-0.42215 0.70006,-1.63934 1.46697,-3.65158c0.7669,-2.01224 1.20664,-3.23647 1.31921,-3.67269zM231.33864,182.95136l-0.92873,1.4142c-1.80117,-1.4353 -3.10983,-2.44142 -3.92598,-3.01836l0.88651,-1.30866c0.90058,0.64729 2.0052,1.45641 3.31386,2.42735zM231.92964,177.61118l-0.8654,1.37198l-1.54084,-1.1398c-0.56286,-0.40808 -1.18905,-0.87244 -1.87856,-1.39309l0.8654,-1.32977c1.08351,0.75987 2.22331,1.59009 3.4194,2.49067zM238.32519,178.15998l-1.60416,-3.22943l1.47752,-0.67544l1.66749,3.18722z" fill="#ffffff" fill-rule="evenodd" stroke="#ffffff" stroke-width="0.45" stroke-linecap="round"/><path d="M260.78348,179.38421h5.59346v1.20312h-18.44788v-1.20312h5.38239c-0.12664,-0.73172 -0.2744,-1.40013 -0.44326,-2.0052h-3.86266v-1.18202h7.51424c-0.23922,-0.64729 -0.44326,-1.14684 -0.61212,-1.49863l1.75192,-0.2955c0.197,0.45029 0.42215,1.04833 0.67544,1.79413h6.96545v1.18202h-3.94709c-0.12664,0.52065 -0.31661,1.18905 -0.5699,2.0052zM250.35642,187.84828v-5.99451h13.52985v5.99451zM260.42465,191.11993l0.06332,-1.37198l0.02111,-0.42215l1.49863,0.40104l-0.08443,1.01316l-0.08443,0.8443c-0.07036,0.67544 -0.28495,1.13628 -0.64378,1.38254c-0.35883,0.24625 -0.97446,0.36938 -1.8469,0.36938h-4.34813c-0.83023,0 -1.41068,-0.15127 -1.74136,-0.45381c-0.33068,-0.30254 -0.49602,-0.85485 -0.49602,-1.65693v-2.59621h1.58306v2.38514c0,0.40808 0.08795,0.69654 0.26384,0.8654c0.1759,0.16886 0.49602,0.25329 0.96039,0.25329h3.4194c0.56286,0 0.93928,-0.07036 1.12925,-0.21107c0.18997,-0.14072 0.29199,-0.40808 0.30606,-0.80208zM262.34543,185.39982h-10.44817v1.30866h10.44817zM251.89726,184.28113h10.44817v-1.26644h-10.44817zM259.81254,177.379h-5.4035l0.42215,2.0052h4.43256c0.16886,-0.53472 0.35179,-1.20312 0.54879,-2.0052zM249.08997,193.14624l-1.24534,-0.88651c0.42215,-0.52065 0.86189,-1.14332 1.31921,-1.86801c0.45733,-0.72469 0.84078,-1.40364 1.15035,-2.03687l1.4142,0.65433c-0.32365,0.66137 -0.73172,1.38254 -1.22423,2.16351c-0.49251,0.78097 -0.9639,1.43882 -1.4142,1.97354zM262.72536,189.24137l1.26644,-0.75987c0.63322,0.85837 1.48456,2.10371 2.554,3.73601l-1.26644,0.8654c-0.8443,-1.35087 -1.69563,-2.63139 -2.554,-3.84155zM256.13985,188.86143l0.99205,-0.94983c0.66137,0.63322 1.3368,1.30866 2.02631,2.02631l-1.05537,1.01316c-0.70358,-0.81615 -1.35791,-1.5127 -1.96299,-2.08963z" fill="#ffffff" fill-rule="evenodd" stroke="#ffffff" stroke-width="0.45" stroke-linecap="round"/><path d="M287.52658,192.28084l-0.82319,1.39309c-1.68859,-0.97094 -3.06058,-1.99817 -4.11595,-3.08168c-1.06944,1.0413 -2.34292,2.02631 -3.82044,2.95504l-0.88651,-1.26644v1.62527h-1.51973v-18.25791h9.85716c0,0.40808 -0.01407,0.9639 -0.04221,1.66749c-0.02814,0.70358 -0.04925,1.28052 -0.06332,1.73081c-0.04221,0.56286 -0.14423,0.98853 -0.30606,1.277c-0.16182,0.28847 -0.42215,0.48899 -0.78097,0.60156c-0.35883,0.11257 -0.88299,0.16886 -1.5725,0.16886h-3.29276l-0.25329,-1.4353h2.93393c0.66137,0 1.10814,-0.06684 1.34032,-0.20052c0.23218,-0.13368 0.36938,-0.40456 0.41159,-0.81264c0.05629,-0.73172 0.08443,-1.23127 0.08443,-1.49863h-6.79659v5.42461h8.59072v1.47752c-0.52065,1.97003 -1.47048,3.77823 -2.8495,5.42461c0.52065,0.50658 1.09055,0.97798 1.7097,1.4142c0.61915,0.43622 1.35087,0.90058 2.19517,1.39309zM271.73823,174.65614h1.47752v3.90487h2.32182v1.49863h-2.32182v3.75712l2.15296,-0.73876l0.06332,0.80208l0.06332,0.71765l-2.2796,0.75987v5.84675c0,0.61915 -0.07036,1.09055 -0.21107,1.4142c-0.14072,0.32365 -0.38345,0.55231 -0.72821,0.68599c-0.34475,0.13368 -0.84781,0.20052 -1.50918,0.20052h-1.32977l-0.2955,-1.51973h1.16091c0.57694,0 0.96039,-0.08091 1.15035,-0.24274c0.18997,-0.16182 0.28495,-0.48899 0.28495,-0.98149v-4.91803l-1.85745,0.59101c-0.32365,0.11257 -0.58397,0.197 -0.78097,0.25329l-0.2955,-1.47752c0.70358,-0.197 1.68156,-0.49954 2.93393,-0.90762v-4.24259h-2.44846v-1.49863h2.44846zM277.88049,184.07005v8.08414c1.46345,-0.85837 2.70175,-1.75895 3.71491,-2.70175c-1.09759,-1.4353 -1.97003,-3.22943 -2.61732,-5.38239zM284.90926,184.07005h-4.43256c0.54879,1.67452 1.26644,3.10279 2.15296,4.28481c1.05537,-1.22423 1.81524,-2.6525 2.2796,-4.28481z" fill="#ffffff" fill-rule="evenodd" stroke="#ffffff" stroke-width="0.45" stroke-linecap="round"/></g></g></svg>