<svg version="1.1" xmlns="http://www.w3.org/2000/svg" xmlns:xlink="http://www.w3.org/1999/xlink" width="208.25889" height="32" viewBox="0,0,208.25889,32"><g transform="translate(-239.74111,-164)"><g stroke-miterlimit="10"><path d="M240,196v-32h208v32z" fill="none" fill-rule="nonzero" stroke="none" stroke-width="0" stroke-linecap="butt"/><path d="M336.88119,180.04329v1.63424h-6.25379v5.83025c0,0.97171 -0.20779,1.65264 -0.62337,2.0428c-0.41558,0.39016 -1.09927,0.58523 -2.05108,0.58523h-2.17173l-0.26141,-1.74466h2.05108c0.41558,0 0.72391,-0.03313 0.925,-0.09938c0.20109,-0.06625 0.3385,-0.1914 0.41223,-0.37543c0.07373,-0.18404 0.1106,-0.46745 0.1106,-0.85024v-5.38856h-6.79672v-1.65632c0.72391,-1.19255 1.6221,-2.91513 2.69456,-5.16772h-4.16249v-1.65632h4.94673c0.53623,-1.19255 0.97862,-2.2526 1.32717,-3.18014l1.52826,0.66253c-0.21449,0.63308 -0.55634,1.47229 -1.02554,2.51761h10.19508v1.65632h-10.95921c-1.1529,2.45872 -2.03768,4.18865 -2.65434,5.18981h4.90651v-3.86475h1.60869v3.86475zM304.44595,173.74927v6.11735h12.88964l-0.30163,7.3099c-0.08043,1.11894 -0.3519,1.90293 -0.8144,2.35198c-0.4625,0.44905 -1.20987,0.67357 -2.24211,0.67357h-2.31249l-0.28152,-1.56798h1.97065c0.53623,0 0.95181,-0.06625 1.24674,-0.19876c0.29493,-0.13251 0.50607,-0.33863 0.63342,-0.61836c0.12736,-0.27973 0.21114,-0.66989 0.25136,-1.17047c0.04022,-0.66253 0.08379,-1.53854 0.13071,-2.62803c0.04692,-1.08949 0.08379,-1.9655 0.1106,-2.62803h-12.8092v-9.16498h3.90108l0.26141,-0.7067l0.52282,-1.50173l1.56847,0.19876l-0.26141,0.77295c-0.14746,0.47113 -0.28152,0.88337 -0.40217,1.23672h6.93748c-0.12065,2.29677 -0.19438,3.58502 -0.2212,3.86475c-0.06703,0.7067 -0.19103,1.25512 -0.37201,1.64528c-0.18098,0.39016 -0.4558,0.66989 -0.82445,0.8392c-0.36866,0.16931 -0.88143,0.25397 -1.53831,0.25397h-1.72934l-0.28152,-1.41339h1.56847c0.60326,0 1.01884,-0.10674 1.24674,-0.32022c0.2279,-0.21348 0.36196,-0.57787 0.40217,-1.09317l0.10054,-1.10421c0.04022,-0.44169 0.06703,-0.82448 0.08043,-1.14838zM289.9074,180.0212v3.33473h8.02335v1.61215h-8.02335v5.49899h-1.58858v-5.49899h-8.02335v-1.61215h8.02335v-3.33473h-7.17878v-1.63424h7.17878v-8.08285h1.58858v8.08285h7.19889v1.63424zM378.46585,180.74998v1.50173h-2.07119l-0.12065,3.42306h1.80978v1.52382h-1.84999l-0.02011,0.39752c-0.04022,0.67725 -0.15081,1.19991 -0.33179,1.56798c-0.18098,0.36807 -0.4625,0.6294 -0.84456,0.78399c-0.38206,0.15459 -0.91494,0.23188 -1.59864,0.23188h-2.99619l-0.30163,-1.5459h2.81521c0.67029,0 1.13614,-0.09938 1.39755,-0.29814c0.26141,-0.19876 0.40552,-0.56315 0.43234,-1.09317v-0.04417h-9.02878l0.50272,-4.94688h-1.56847v-1.50173h1.70923l0.44239,-4.39477c-0.40217,0.55947 -0.71051,0.97171 -0.925,1.23672l-1.02554,-1.19255c0.73732,-0.89809 1.43777,-1.92133 2.10135,-3.06972c0.66359,-1.14838 1.20317,-2.25996 1.61875,-3.33473l1.34728,0.50794c-0.2279,0.57419 -0.48931,1.17047 -0.78424,1.78883h8.80758v1.50173h-9.57171c-0.42898,0.78031 -0.81775,1.42812 -1.1663,1.94342h9.35052l-0.16087,5.01313zM397.38808,184.5264l1.20652,0.4196c-0.08043,0.82448 -0.19438,1.72257 -0.34185,2.69428c-0.14746,1.0306 -0.36531,1.73362 -0.65353,2.10905c-0.28822,0.37543 -0.66694,0.56315 -1.13614,0.56315c-0.85797,0 -1.54837,-0.72878 -2.07119,-2.18634c-0.16087,-0.45641 -0.29493,-0.89809 -0.40217,-1.32506c-0.88478,1.28089 -1.92373,2.4808 -3.11684,3.59974l-1.00543,-1.30297c1.56847,-1.47229 2.7951,-2.88568 3.67988,-4.24018c-0.4692,-2.63539 -0.76413,-5.82289 -0.88478,-9.56249h-6.21357v-1.52382h6.17335c-0.04022,-1.32506 -0.06033,-2.46608 -0.06033,-3.42306l1.3875,-0.02208c0.01341,0.3239 0.03351,1.47229 0.06033,3.44515h1.82989c-0.2413,-0.91282 -0.50942,-1.7741 -0.80435,-2.58386l1.1663,-0.44169c0.37536,1.13366 0.6971,2.14218 0.96521,3.02555h1.32717v1.52382h-4.46412c0.05362,2.94457 0.2413,5.53579 0.56304,7.77367c0.75072,-1.48701 1.47463,-3.48195 2.17173,-5.98484l1.24674,0.46377c-0.76413,2.94457 -1.77626,5.50635 -3.0364,7.68533c0.13406,0.66253 0.32174,1.33242 0.56304,2.00967c0.17427,0.45641 0.33179,0.76559 0.47255,0.92754c0.14076,0.16195 0.29158,0.24293 0.45244,0.24293c0.17427,0 0.30833,-0.12146 0.40217,-0.36439c0.09384,-0.24293 0.18768,-0.69565 0.28152,-1.35818zM357.93493,173.32967l-1.66902,5.63149c0.71051,1.01588 1.20652,1.91765 1.48804,2.70532c0.28152,0.78767 0.42228,1.62319 0.42228,2.50657c0,1.25144 -0.2413,2.14218 -0.72391,2.6722c-0.48261,0.53002 -1.29366,0.79503 -2.43315,0.79503h-1.14619l-0.30163,-1.56798h1.04565c0.79094,0 1.34393,-0.15827 1.65896,-0.47481c0.31504,-0.31654 0.47255,-0.87969 0.47255,-1.68945c0,-0.7067 -0.15752,-1.42812 -0.47255,-2.16426c-0.31504,-0.73614 -0.8144,-1.55326 -1.49809,-2.45136l1.6288,-5.98484h-3.37825v17.24782h-1.42771v-18.88206h6.33422zM256.16511,176.90732h1.54837v1.65632h-1.54837v5.14564h-6.17335c-0.16087,1.06005 -0.41223,1.96918 -0.75407,2.72741c-0.34185,0.75823 -0.78759,1.4502 -1.33722,2.07592c-0.54964,0.62572 -1.27355,1.29193 -2.17173,1.99863l-1.18641,-1.34714c1.20652,-0.85393 2.098,-1.66368 2.67445,-2.42927c0.57645,-0.76559 0.98532,-1.7741 1.22663,-3.02555h-3.39836v-1.67841h3.61956c0.06703,-0.86865 0.11395,-2.02439 0.14076,-3.46723h-4.28314v-1.65632h4.28314v-3.5114h-3.11684v-1.63424h10.4766zM272.11126,187.7507h5.75107v1.67841h-17.6956v-1.67841h5.83151l-0.90489,-1.43548c-0.75072,-1.17783 -1.22663,-1.91397 -1.42771,-2.20843l1.30706,-0.99379c0.44239,0.61836 1.24674,1.81827 2.41304,3.59974l-1.34728,1.03796h4.06195c0.4558,-0.72142 0.95181,-1.53854 1.48804,-2.45136c0.53623,-0.91282 0.95851,-1.66368 1.26684,-2.2526l1.52826,0.94962c-0.4692,0.88337 -1.22663,2.13481 -2.27228,3.75433zM386.28811,184.21722l0.2212,1.65632c-0.73732,0.22084 -1.76286,0.54106 -3.07662,0.96067c-1.31376,0.4196 -2.15833,0.71038 -2.53369,0.87233l-0.32174,-1.67841l2.39293,-0.72878v-7.79575h-2.03097v-1.59007h2.03097v-5.36648h1.4076v5.36648h1.80978v1.59007h-1.80978v7.35407zM243.85862,170.37037l1.46793,0.39752c-0.4692,1.76674 -1.02554,3.5114 -1.66902,5.23397v14.48729h-1.48804v-10.97589c-0.4558,0.98643 -0.90489,1.87716 -1.34728,2.6722l-0.80435,-1.72257c0.6971,-1.44284 1.4009,-3.06603 2.11141,-4.86958c0.71051,-1.80355 1.28695,-3.54453 1.72934,-5.22293zM311.32311,186.35939v-3.31264h1.46793v4.81437h-11.20051v-4.81437h1.46793v3.31264h3.35814v-4.06351h1.56847v4.06351zM350.03224,174.36763h-1.50815c-0.16087,1.36923 -0.36866,2.65748 -0.62337,3.86475h2.71467v1.59007h-10.07443v-1.59007h2.57391c-0.25471,-1.67841 -0.48931,-2.96666 -0.7038,-3.86475h-1.36739v-1.56798h3.92118c-0.17427,-0.78031 -0.37536,-1.50173 -0.60326,-2.16426l1.48804,-0.39752c0.26812,0.88337 0.49601,1.7373 0.68369,2.56178h3.4989zM262.53955,175.82519h12.97007v6.82404h-12.97007zM260.95096,173.32967v-1.67841h16.14724v1.67841zM343.11486,188.67824v1.47965h-1.4076v-8.32577h7.6815v6.84613zM273.92104,180.99291v-3.53349h-9.79291v3.53349zM367.30556,185.67478h7.54074l0.04022,-0.81712c0.05362,-1.00115 0.08714,-1.8698 0.10054,-2.60595h-7.31954zM375.18814,177.23858h-6.99781l-0.36196,3.5114h7.219c0.09384,-2.01703 0.14076,-3.1875 0.14076,-3.5114zM391.47614,183.8197h-4.58477v-6.22777h4.58477zM362.39905,190.37873l-1.44782,-0.48585l1.95054,-7.59699l1.36739,0.46377c-0.10725,0.41224 -0.68369,2.74581 -1.72934,7.00072zM324.91655,182.84799l1.22663,1.14838c-0.64348,1.00115 -1.39755,2.03175 -2.26222,3.0918c-0.86467,1.06005 -1.70588,1.95814 -2.52363,2.69428l-1.04565,-1.43548c0.79094,-0.64781 1.59864,-1.47229 2.42309,-2.47344c0.82445,-1.00115 1.55172,-2.00967 2.18179,-3.02555zM332.13555,184.12888l1.08587,-1.23672c0.63007,0.63308 1.43442,1.48333 2.41304,2.55073c0.97862,1.06741 1.83659,2.01335 2.57391,2.83783l-1.12608,1.32506c-0.67029,-0.82448 -1.49474,-1.78147 -2.47336,-2.87096c-0.97862,-1.08949 -1.80307,-1.95814 -2.47336,-2.60595zM343.11486,187.17651h4.86629v-3.77641h-4.86629zM391.63701,185.25518l0.2212,1.59007c-0.75072,0.1914 -1.86005,0.48217 -3.32798,0.87233c-1.46793,0.39016 -2.36277,0.63676 -2.6845,0.73982l-0.32174,-1.61215c0.79094,-0.1914 1.92373,-0.47481 3.39836,-0.85024c1.47463,-0.37543 2.37952,-0.62204 2.71467,-0.73982zM250.19284,182.03087h4.44401v-3.46723h-4.32336c-0.02681,1.61951 -0.06703,2.77526 -0.12065,3.46723zM254.63685,176.90732v-3.5114h-4.32336v3.5114zM295.2563,171.36417l1.20652,1.10421c-0.50942,0.69197 -1.58188,2.07592 -3.21738,4.15185l-0.60326,0.77295l-1.14619,-1.10421c0.50942,-0.58891 1.13949,-1.38027 1.89021,-2.37406c0.75072,-0.99379 1.37409,-1.84404 1.8701,-2.55073zM286.69002,176.22271l-1.18641,1.14838l-3.78042,-4.90271l1.10598,-1.1263zM347.1567,174.36763h-3.31793c0.34855,1.82563 0.58315,3.11388 0.7038,3.86475h1.99076c0.2413,-1.14838 0.44909,-2.43663 0.62337,-3.86475zM364.79198,178.80657l-0.86467,1.39131c-1.6355,-1.56062 -2.72137,-2.56178 -3.2576,-3.00346l0.86467,-1.28089zM365.35502,173.52842l-0.82445,1.30297c-0.97862,-0.88337 -2.05778,-1.81827 -3.23749,-2.8047l0.86467,-1.2588c0.75072,0.61836 1.81648,1.53854 3.19727,2.76054zM310.03615,177.06191l-0.925,1.21464c-1.50144,-1.31033 -2.57391,-2.21579 -3.21738,-2.71637l0.88478,-1.21464c0.57645,0.45641 1.66231,1.36186 3.2576,2.71637zM388.09789,179.02741v3.35681h2.15162v-3.35681zM372.95608,184.48223l-0.84456,1.14838c-0.29493,-0.29446 -0.70045,-0.66253 -1.21657,-1.10421c-0.51612,-0.44169 -0.97527,-0.82448 -1.37744,-1.14838l0.76413,-1.10421c0.925,0.73614 1.81648,1.47229 2.67445,2.20843zM369.87946,178.40905l0.76413,-1.1263c1.17971,0.94226 2.03768,1.66368 2.57391,2.16426l-0.80435,1.19255c-0.72391,-0.67725 -1.56847,-1.42076 -2.53369,-2.23051z" fill="#ffffff" fill-rule="evenodd" stroke="#ffffff" stroke-width="0.5" stroke-linecap="round"/></g></g></svg>