<svg version="1.1" xmlns="http://www.w3.org/2000/svg" xmlns:xlink="http://www.w3.org/1999/xlink" width="224" height="76" viewBox="0,0,224,76"><g transform="translate(-128,-142)"><g stroke-miterlimit="10"><path d="M128,218v-76h224v76z" fill="none" fill-rule="nonzero" stroke="none" stroke-width="1" stroke-linecap="round" stroke-linejoin="round"/><g fill-rule="evenodd" stroke="none" stroke-width="1" stroke-linecap="butt" stroke-linejoin="miter"><path d="M327.9992,164.99926c8.8294,0 16,7.1706 16,16c0,8.8294 -7.1706,16 -16,16h-86c-8.8294,0 -16,-7.1706 -16,-16c0,-8.8294 7.1706,-16 16,-16z" fill="#7d97b4"/><path d="M241.9992,166.99926h86c7.756,0 14,6.244 14,14c0,7.756 -6.244,14 -14,14h-86c-7.756,0 -14,-6.244 -14,-14c0,-7.756 6.244,-14 14,-14z" fill="#31476d"/></g><path d="M326.97,174.999c0.26924,-0.00627 0.52963,0.0963 0.72225,0.28452c0.19262,0.18822 0.30119,0.44617 0.30115,0.71548v10c-0.0002,0.38802 -0.22482,0.74091 -0.57628,0.90535c-0.35146,0.16444 -0.76631,0.11074 -1.06432,-0.13777l-6,-5c-0.2282,-0.19001 -0.36015,-0.4716 -0.36015,-0.76855c0,-0.29695 0.13196,-0.57854 0.36015,-0.76855l6,-5c0.1738,-0.14433 0.39133,-0.22556 0.61719,-0.23047z" fill="#ffffff" fill-rule="evenodd" stroke="none" stroke-width="1" stroke-linecap="butt" stroke-linejoin="miter" opacity="0.988"/><path d="M271.16358,185.64485l-0.93448,-0.76316c0.42571,-0.63337 0.75797,-1.24338 0.99678,-1.83003c0.23881,-0.58665 0.41013,-1.24598 0.51397,-1.97799c0.10383,-0.73201 0.15575,-1.62756 0.15575,-2.68664v-3.25511c1.31866,-0.04153 2.65289,-0.12979 4.0027,-0.26477c1.34981,-0.13498 2.5854,-0.3063 3.70678,-0.51397l0.21805,1.18368c-2.13893,0.38418 -4.40245,0.63337 -6.79057,0.74759v1.75994h6.4012v1.12138c-0.44647,1.30828 -1.17849,2.52829 -2.19603,3.66006c1.10061,0.9864 1.98837,1.79109 2.66327,2.41408l-0.74759,0.93448c-1.15253,-1.09023 -2.05586,-1.94165 -2.71,-2.55425c-0.96563,0.9241 -2.18046,1.77032 -3.64448,2.53868l-0.65414,-1.04351c1.31866,-0.6749 2.4608,-1.44326 3.42644,-2.30506l-2.35178,-2.18046l0.68529,-0.84103l2.00914,1.83782l0.45167,0.40494c0.80988,-0.87218 1.4173,-1.82743 1.82224,-2.86575h-5.15523c-0.02077,1.41211 -0.17392,2.59838 -0.45945,3.55882c-0.28554,0.96044 -0.75537,1.93386 -1.40951,2.92026zM273.78013,186.57933h6.61925l-0.17132,1.18368h-6.66597c-0.7372,0 -1.3524,-0.05451 -1.8456,-0.16353c-0.4932,-0.10902 -0.93708,-0.30111 -1.33164,-0.57626c-0.39456,-0.27515 -0.7995,-0.67231 -1.21483,-1.19146l-2.04029,2.22718l-0.57626,-1.18368l1.96241,-2.11816v-4.28304h-1.83782v-1.13695h2.99034v5.34212c0.36341,0.51916 0.73201,0.91372 1.1058,1.18368c0.37379,0.26996 0.79171,0.45686 1.25376,0.56069c0.46205,0.10383 1.0461,0.15575 1.75215,0.15575zM270.43157,177.09434l-0.85661,0.87218c-0.42571,-0.59184 -0.93448,-1.27193 -1.52632,-2.04029l-0.62299,-0.84103l0.84103,-0.73201c0.2492,0.28034 0.59184,0.69827 1.02793,1.25376c0.43609,0.5555 0.81508,1.05129 1.13695,1.48738z" fill="#ffffff" fill-rule="evenodd" stroke="#ffffff" stroke-width="0.45" stroke-linecap="round" stroke-linejoin="miter"/><path d="M284.19961,188.27697h-1.18368v-13.44097h12.02367v13.44097h-1.18368v-1.09023h-9.65632zM293.85592,176.05083h-9.65632v9.96781h9.65632zM291.84679,183.83818h-5.63804v-5.65362h5.63804zM287.23667,179.25922v3.48873h3.56661v-3.48873z" fill="#ffffff" fill-rule="evenodd" stroke="#ffffff" stroke-width="0.45" stroke-linecap="round" stroke-linejoin="miter"/></g></g></svg>