<svg version="1.1" xmlns="http://www.w3.org/2000/svg" xmlns:xlink="http://www.w3.org/1999/xlink" width="118.97244" height="19.59051" viewBox="0,0,118.97244,19.59051"><g transform="translate(-244.11456,-170.09537)"><g fill="#ffffff" stroke="none" stroke-miterlimit="10"><path d="M250.20901,174.06307h12.20901v9.75392h-2.21251v-7.52209h-7.86445v7.62542h-2.13205v-9.85725M255.11675,170.34335h2.17228v19.28053h-2.17228v-19.28053M251.19458,180.63457h9.97639v2.2525h-9.97639v-2.2525M244.47661,173.1538l1.54875,-1.52922c0.40227,0.28931 0.82466,0.62271 1.26716,1.00019c0.4425,0.38024 0.86221,0.7591 1.25912,1.13658c0.39423,0.38024 0.71202,0.73568 0.95339,1.06632l-1.64932,1.7152c-0.22795,-0.33064 -0.52966,-0.69573 -0.90512,-1.09525c-0.37546,-0.39952 -0.78041,-0.80318 -1.21487,-1.21097c-0.43714,-0.40504 -0.85684,-0.76599 -1.25912,-1.08285M244.11456,186.27614c0.34864,-0.52351 0.73482,-1.15036 1.15855,-1.88052c0.42105,-0.73017 0.84612,-1.5058 1.27521,-2.32689c0.42909,-0.81834 0.83136,-1.62703 1.20682,-2.42608l1.72978,1.34323c-0.33523,0.74394 -0.69057,1.50166 -1.06603,2.27316c-0.37546,0.7715 -0.7603,1.53197 -1.15453,2.28143c-0.39691,0.75221 -0.78309,1.45896 -1.15855,2.12024zM272.63577,177.32815h9.77525v8.18338h-9.77525v-1.79786h7.82422v-4.58765h-7.82422v-1.79786M271.83122,177.32815h2.01137v9.46461h-2.01137v-9.46461M274.3052,172.90582v1.50855h5.53126v-1.50855h-5.53126M272.5352,171.21128h9.15173v4.89763h-9.15173v-4.89763M276.09532,175.63361h2.03148v11.09715c0,0.39952 0.04425,0.6544 0.13275,0.76461c0.08582,0.11021 0.28293,0.16532 0.59134,0.16532c0.06704,0 0.18102,0 0.34193,0c0.16091,0 0.34193,0 0.54307,0c0.20114,0 0.38886,0 0.56318,0c0.17432,0 0.30171,0 0.38216,0c0.18773,0 0.32852,-0.05235 0.42239,-0.15705c0.09386,-0.10195 0.16091,-0.30171 0.20114,-0.59929c0.04023,-0.29482 0.07375,-0.71088 0.10057,-1.24817c0.22795,0.13777 0.50284,0.27829 0.82466,0.42157c0.32182,0.14603 0.61682,0.2466 0.885,0.30171c-0.05364,0.73017 -0.16091,1.30879 -0.32182,1.73587c-0.16091,0.42708 -0.39155,0.73017 -0.69191,0.90926c-0.30305,0.1791 -0.71605,0.26865 -1.239,0.26865c-0.10727,0 -0.26818,0 -0.48273,0c-0.21455,0 -0.4492,0 -0.70398,0c-0.25477,0 -0.48943,0 -0.70398,0c-0.21455,0 -0.37546,0 -0.48273,0c-0.60341,0 -1.07944,-0.07302 -1.42807,-0.21905c-0.34864,-0.14328 -0.59671,-0.4009 -0.74421,-0.77287c-0.1475,-0.37197 -0.22125,-0.89549 -0.22125,-1.57055v-11.09715M272.89724,180.57257h8.669v1.69454h-8.669v-1.69454M264.97245,184.25096c-0.02682,-0.13777 -0.08045,-0.32375 -0.16091,-0.55796c-0.08045,-0.2342 -0.16091,-0.47943 -0.24136,-0.73568c-0.08045,-0.25349 -0.16091,-0.46979 -0.24136,-0.64888c0.22795,-0.05511 0.46261,-0.19976 0.70398,-0.43397c0.24136,-0.2342 0.51625,-0.5304 0.82466,-0.8886c0.16091,-0.19287 0.39959,-0.49596 0.71605,-0.90926c0.31377,-0.4133 0.65839,-0.90926 1.03384,-1.48789c0.37546,-0.57862 0.75493,-1.2096 1.13843,-1.89292c0.38082,-0.68057 0.73214,-1.35838 1.05396,-2.03345l1.77,1.09525c-0.7375,1.35012 -1.56216,2.67544 -2.47398,3.97596c-0.91182,1.30328 -1.83705,2.44399 -2.77569,3.42214v0.062c0,0 -0.06704,0.03444 -0.20114,0.10333c-0.13409,0.06888 -0.29232,0.15843 -0.47468,0.26865c-0.17968,0.11021 -0.33657,0.22318 -0.47066,0.33891c-0.13409,0.11848 -0.20114,0.22594 -0.20114,0.32238M264.97245,184.25096l-0.12068,-1.73587l0.92523,-0.66128l5.26979,-0.92993c-0.04023,0.28931 -0.06034,0.61307 -0.06034,0.97126c0,0.35819 0.0067,0.6544 0.02011,0.8886c-1.19341,0.2342 -2.15887,0.42983 -2.89637,0.58689c-0.7375,0.15981 -1.31409,0.29069 -1.72978,0.39264c-0.41568,0.1047 -0.72409,0.19425 -0.92523,0.26865c-0.20114,0.07715 -0.36205,0.15017 -0.48273,0.21905M264.83166,179.22934c-0.02682,-0.15154 -0.08314,-0.35544 -0.16895,-0.61169c-0.0885,-0.25349 -0.17968,-0.51525 -0.27355,-0.78527c-0.09386,-0.26727 -0.18102,-0.49734 -0.26148,-0.69021c0.20114,-0.05511 0.39557,-0.19012 0.5833,-0.40504c0.18773,-0.21216 0.38216,-0.49045 0.5833,-0.83487c0.12068,-0.15154 0.28159,-0.4133 0.48273,-0.78527c0.20114,-0.37197 0.42239,-0.81972 0.66375,-1.34323c0.24136,-0.52351 0.47871,-1.08147 0.71202,-1.67387c0.236,-0.5924 0.44116,-1.1848 0.61548,-1.7772l2.07171,0.97126c-0.32182,0.79905 -0.69057,1.60499 -1.10625,2.41782c-0.41568,0.81283 -0.8555,1.59397 -1.31946,2.34342c-0.46127,0.75221 -0.92657,1.42451 -1.39589,2.01691v0.062c0,0 -0.05766,0.03444 -0.17298,0.10333c-0.11264,0.06888 -0.24941,0.16532 -0.41032,0.28931c-0.16091,0.12399 -0.30171,0.24798 -0.42239,0.37197c-0.12068,0.12399 -0.18102,0.2342 -0.18102,0.33064M264.83166,179.22934l-0.04023,-1.54988l0.90512,-0.64062l3.41933,-0.28931c-0.04023,0.27553 -0.08045,0.58551 -0.12068,0.92993c-0.04023,0.34442 -0.06704,0.62684 -0.08045,0.84727c-0.76432,0.08266 -1.39053,0.16119 -1.87862,0.23558c-0.49077,0.07715 -0.87964,0.13914 -1.16659,0.18599c-0.28964,0.0496 -0.51223,0.09506 -0.66777,0.13639c-0.15286,0.04133 -0.27623,0.08955 -0.37009,0.14466M264.34893,186.50345c0.54977,-0.15154 1.16927,-0.33753 1.8585,-0.55796c0.69191,-0.22043 1.42941,-0.45877 2.21251,-0.71501c0.78578,-0.25349 1.57423,-0.51801 2.36537,-0.79354l0.36205,1.83919c-1.09955,0.4133 -2.1991,0.82247 -3.29864,1.22751c-1.09955,0.40779 -2.10523,0.7839 -3.01705,1.12831zM300.43288,179.27067h2.13205c0,0 -0.00268,0.05511 -0.00805,0.16532c-0.00805,0.11021 -0.01207,0.2342 -0.01207,0.37197c0,0.13777 -0.0067,0.26176 -0.02011,0.37197c-0.09386,1.84608 -0.19443,3.34361 -0.30171,4.49259c-0.10727,1.15173 -0.23466,2.03758 -0.38216,2.65753c-0.1475,0.61995 -0.32852,1.06081 -0.54307,1.32257c-0.22795,0.27553 -0.47334,0.46841 -0.73616,0.57862c-0.26014,0.11021 -0.56452,0.18599 -0.91316,0.22732c-0.295,0.04133 -0.67984,0.062 -1.15453,0.062c-0.47736,0 -0.97753,-0.00689 -1.50048,-0.02067c-0.02682,-0.30309 -0.09655,-0.64751 -0.20918,-1.03325c-0.11532,-0.38575 -0.25343,-0.7095 -0.41434,-0.97126c0.49614,0.04133 0.95875,0.06475 1.38784,0.07026c0.42909,0.00827 0.74421,0.0124 0.94534,0.0124c0.17432,0 0.31914,-0.01378 0.43446,-0.04133c0.11264,-0.02755 0.22259,-0.09644 0.32986,-0.20665c0.1475,-0.16532 0.28159,-0.52351 0.40227,-1.07458c0.12068,-0.55107 0.22527,-1.3639 0.31377,-2.43848c0.08582,-1.07458 0.16895,-2.47292 0.24941,-4.19501v-0.35131M290.49672,181.87447h1.99125v4.89763h-1.99125v-4.89763M295.52514,182.68041h1.97114v5.76556h-1.97114v-5.76556M285.64932,182.72174h1.97114v3.30641h8.72934v1.83919h-10.70048v-5.14561M298.18014,172.07922h2.01137c0,0 0,0.09644 0,0.28931c0,0.19287 -0.0067,0.35131 -0.02011,0.4753c-0.06704,1.03325 -0.13811,1.8943 -0.21321,2.58314c-0.07241,0.68884 -0.15823,1.23302 -0.25746,1.63254c-0.10191,0.39952 -0.24002,0.68884 -0.41434,0.86793c-0.16091,0.20665 -0.33925,0.35406 -0.53502,0.44223c-0.19309,0.09093 -0.41702,0.15017 -0.6718,0.17772c-0.21455,0.04133 -0.49346,0.06475 -0.83673,0.07026c-0.34059,0.00827 -0.70532,0.00551 -1.09418,-0.00827c-0.02682,-0.30309 -0.08716,-0.63786 -0.18102,-1.00432c-0.09386,-0.36371 -0.21455,-0.67644 -0.36205,-0.9382c0.30841,0.02755 0.59,0.04822 0.84477,0.062c0.25477,0.01378 0.4492,0.02067 0.5833,0.02067c0.12068,0 0.22795,-0.01378 0.32182,-0.04133c0.09386,-0.02755 0.17432,-0.08266 0.24136,-0.16532c0.13409,-0.15154 0.24807,-0.53729 0.34193,-1.15725c0.09386,-0.61995 0.17432,-1.63254 0.24136,-3.03777v-0.26865M292.26672,170.26069l2.57455,0.22732c-0.21455,0.50974 -0.45591,1.00157 -0.72409,1.47549c-0.26818,0.47668 -0.50955,0.88722 -0.72409,1.23164l-1.9108,-0.35131c0.1475,-0.38575 0.29902,-0.81972 0.45457,-1.3019c0.15286,-0.48218 0.26282,-0.90926 0.32986,-1.28124M290.05422,176.00558l1.06603,-1.40523c0.46932,0.16532 0.97216,0.36508 1.50853,0.59929c0.53637,0.2342 1.04859,0.4753 1.53669,0.72328c0.49077,0.24798 0.89707,0.48218 1.21889,0.70261l-1.12637,1.54988c-0.295,-0.22043 -0.68387,-0.46152 -1.16659,-0.72328c-0.48273,-0.26176 -0.98959,-0.52076 -1.52059,-0.77701c-0.52832,-0.25349 -1.03384,-0.47668 -1.51657,-0.66955M298.80367,172.07922v1.98385h-9.57411v5.2076h11.84696v1.94252h-13.9589v-9.13397zM304.878,181.70915h18.06209v2.00451h-18.06209v-2.00451M308.88062,174.80701h10.01661v1.81853h-10.01661v-1.81853M308.90074,178.23741h10.03673v1.79786h-10.03673v-1.79786M307.99562,171.29394h12.28946v11.32447h-2.17228v-9.46461h-8.02536v9.46461h-2.09182v-11.32447M315.96064,184.49894l1.83035,-0.8266c0.57659,0.46841 1.16927,0.99881 1.77805,1.59121c0.61146,0.5924 1.18134,1.17378 1.70966,1.74413c0.531,0.57311 0.97082,1.0801 1.31946,1.52095l-1.89069,1.01259c-0.33523,-0.46841 -0.767,-1.00295 -1.29532,-1.60361c-0.531,-0.59791 -1.09821,-1.19995 -1.70162,-1.80613c-0.60341,-0.60618 -1.18671,-1.15036 -1.74989,-1.63254M306.66812,189.10725c-0.04023,-0.16532 -0.10057,-0.37197 -0.18102,-0.61995c-0.08045,-0.24798 -0.16091,-0.50698 -0.24136,-0.77701c-0.08045,-0.26727 -0.16761,-0.49734 -0.26148,-0.69021c0.22795,-0.05511 0.45591,-0.14879 0.68387,-0.28105c0.22795,-0.1295 0.47602,-0.30446 0.74421,-0.52489c0.20114,-0.13777 0.49882,-0.38575 0.89305,-0.74394c0.39691,-0.35819 0.83673,-0.79216 1.31946,-1.3019c0.48273,-0.50974 0.92523,-1.04703 1.3275,-1.61188l2.21251,0.86793c-0.77773,0.89549 -1.60641,1.74551 -2.48605,2.55007c-0.87696,0.80732 -1.72441,1.48651 -2.54237,2.03758v0.04133c0,0 -0.07375,0.03444 -0.22125,0.10333c-0.1475,0.06888 -0.31914,0.1543 -0.51491,0.25625c-0.19309,0.1047 -0.36339,0.21905 -0.51089,0.34304c-0.1475,0.12399 -0.22125,0.24109 -0.22125,0.35131M306.66812,189.10725l-0.02011,-1.52922l1.28728,-0.72328l11.64582,-0.4753c0.04023,0.27553 0.10057,0.58138 0.18102,0.91753c0.08045,0.33891 0.1408,0.61169 0.18102,0.81834c-1.85046,0.09644 -3.44614,0.18185 -4.78706,0.25625c-1.34091,0.07715 -2.47398,0.14328 -3.39921,0.19838c-0.92523,0.05511 -1.68687,0.10333 -2.28491,0.14466c-0.59537,0.04133 -1.07005,0.07853 -1.42405,0.11159c-0.35668,0.03582 -0.63962,0.07439 -0.8488,0.11572c-0.2065,0.04133 -0.3835,0.09644 -0.531,0.16532zM336.49671,170.32268h2.03148v14.52756h-2.03148v-14.52756M330.42238,178.69205l10.53957,-4.58765l0.80455,1.90119l-10.53957,4.64965l-0.80455,-1.96318M332.47398,172.30653h2.0516v13.51497c0,0.38575 0.03352,0.67782 0.10057,0.8762c0.06704,0.20114 0.20784,0.33615 0.42239,0.40504c0.21455,0.06888 0.52966,0.10333 0.94534,0.10333c0.12068,0 0.31914,0 0.59537,0c0.27355,0 0.58464,0 0.93327,0c0.34864,0 0.69996,0 1.05396,0c0.35668,0 0.6785,0 0.96546,0c0.28964,0 0.5015,0 0.63559,0c0.37546,0 0.65705,-0.07302 0.84477,-0.21905c0.18773,-0.14328 0.32852,-0.40779 0.42239,-0.79354c0.09386,-0.38575 0.16091,-0.94371 0.20114,-1.67387c0.24136,0.1791 0.54575,0.34442 0.91316,0.49596c0.37009,0.15154 0.70264,0.25487 0.99764,0.30998c-0.09386,0.97815 -0.24807,1.74551 -0.46261,2.30209c-0.21455,0.55934 -0.53637,0.95886 -0.96546,1.19858c-0.42909,0.24247 -1.0258,0.36371 -1.79012,0.36371c-0.13409,0 -0.35266,0 -0.65571,0c-0.30036,0 -0.64498,0 -1.03384,0c-0.38886,0 -0.77371,0 -1.15453,0c-0.3835,0 -0.72677,0 -1.02982,0c-0.30036,0 -0.51089,0 -0.63157,0c-0.85818,0 -1.53534,-0.09644 -2.03148,-0.28931c-0.49614,-0.19287 -0.84075,-0.53454 -1.03384,-1.02499c-0.19577,-0.4877 -0.29366,-1.17929 -0.29366,-2.07478v-13.4943M340.55968,174.35238h-0.16091l0.40227,-0.30998l0.40227,-0.26865l1.48841,0.55796l-0.08045,0.37197c0,0.97815 -0.00402,1.87639 -0.01207,2.69473c-0.00536,0.82109 -0.01073,1.5485 -0.01609,2.18223c-0.00805,0.63373 -0.02146,1.16413 -0.04023,1.59121c-0.02146,0.42708 -0.04559,0.74394 -0.07241,0.95059c-0.04023,0.46841 -0.1475,0.82936 -0.32182,1.08285c-0.17432,0.25625 -0.42239,0.43948 -0.74421,0.54969c-0.28159,0.12399 -0.6128,0.19563 -0.99362,0.21492c-0.3835,0.02204 -0.72946,0.03306 -1.03787,0.03306c-0.02682,-0.27553 -0.08314,-0.59653 -0.16895,-0.96299c-0.0885,-0.36371 -0.18639,-0.66266 -0.29366,-0.89686c0.18773,0.01378 0.38886,0.02067 0.60341,0.02067c0.21455,0 0.36875,0 0.46261,0c0.13409,0 0.24136,-0.03169 0.32182,-0.09506c0.08045,-0.06062 0.13409,-0.18736 0.16091,-0.38024c0.02682,-0.11021 0.04693,-0.34855 0.06034,-0.71501c0.01341,-0.36371 0.02279,-0.84865 0.02816,-1.45482c0.00805,-0.60618 0.01207,-1.34048 0.01207,-2.2029c0,-0.85967 0,-1.84746 0,-2.96337M324.68998,175.17898h6.57717v2.08717h-6.57717v-2.08717M327.10362,170.59133h2.03148v13.6183h-2.03148v-13.6183M324.44862,184.37495c0.54977,-0.20665 1.18939,-0.45877 1.91885,-0.75634c0.73214,-0.29482 1.50316,-0.61857 2.31307,-0.97126c0.81259,-0.34993 1.62787,-0.6971 2.44582,-1.04152l0.48273,1.96318c-1.07273,0.53729 -2.16155,1.07045 -3.26646,1.59948c-1.10759,0.53178 -2.1173,1.01121 -3.02912,1.43829zM345.22605,173.71176h17.86095v2.16983h-17.86095v-2.16983M351.763,178.60939h7.80411v2.14917h-7.80411v-2.14917M359.00392,178.60939h2.25273c0,0 -0.00268,0.062 -0.00805,0.18599c-0.00805,0.12399 -0.01207,0.26176 -0.01207,0.4133c0,0.15154 -0.01341,0.27553 -0.04023,0.37197c-0.12068,1.91497 -0.25477,3.47174 -0.40227,4.67031c-0.1475,1.19858 -0.31512,2.1285 -0.50284,2.78979c-0.18773,0.66128 -0.42239,1.13658 -0.70398,1.42589c-0.28159,0.31686 -0.58732,0.53729 -0.91718,0.66128c-0.32718,0.12399 -0.71202,0.20665 -1.15453,0.24798c-0.37546,0.04133 -0.87428,0.05786 -1.49646,0.0496c-0.62487,-0.00551 -1.27253,-0.02204 -1.94298,-0.0496c-0.01341,-0.33064 -0.09386,-0.70261 -0.24136,-1.11591c-0.1475,-0.4133 -0.32852,-0.7715 -0.54307,-1.07458c0.69728,0.06888 1.36505,0.11021 2.00332,0.12399c0.63559,0.01378 1.10089,0.02067 1.39589,0.02067c0.22795,0 0.41568,-0.01791 0.56318,-0.05373c0.1475,-0.03306 0.2883,-0.09781 0.42239,-0.19425c0.20114,-0.19287 0.38216,-0.59653 0.54307,-1.21097c0.16091,-0.61169 0.30841,-1.48238 0.4425,-2.61207c0.13409,-1.12969 0.24807,-2.56247 0.34193,-4.29834v-0.35131M350.45561,175.07566h2.41364c-0.05364,1.08836 -0.13409,2.18361 -0.24136,3.28575c-0.10727,1.10214 -0.28159,2.1905 -0.52296,3.26508c-0.24136,1.07458 -0.59,2.10095 -1.04591,3.0791c-0.45591,0.97815 -1.05932,1.89017 -1.81023,2.73606c-0.75091,0.84865 -1.68955,1.59672 -2.81592,2.24423c-0.16091,-0.28931 -0.39155,-0.60618 -0.69191,-0.95059c-0.30305,-0.34442 -0.60207,-0.62684 -0.89707,-0.84727c1.04591,-0.56485 1.90678,-1.21924 2.5826,-1.96318c0.6785,-0.74394 1.21487,-1.54713 1.60909,-2.40955c0.39691,-0.85967 0.68923,-1.76204 0.87696,-2.70713c0.18773,-0.94233 0.31512,-1.89981 0.38216,-2.87245c0.06704,-0.96988 0.12068,-1.92323 0.16091,-2.86005M352.58766,170.92197l2.11194,-0.8266c0.26818,0.46841 0.54307,0.98504 0.82466,1.54988c0.28159,0.56485 0.49614,1.04703 0.64364,1.44656l-2.21251,0.99192c-0.13409,-0.42708 -0.33523,-0.93682 -0.60341,-1.52922c-0.26818,-0.5924 -0.52296,-1.13658 -0.76432,-1.63254z"/></g></g></svg>