<svg version="1.1" xmlns="http://www.w3.org/2000/svg" xmlns:xlink="http://www.w3.org/1999/xlink" width="208" height="32" viewBox="0,0,208,32"><g transform="translate(-240,-164)"><g stroke-miterlimit="10"><path d="M319.02024,175.22065h-6.34272c0.75085,1.87868 1.696,3.56881 2.83545,5.07038c1.13945,1.50157 2.54565,2.97915 4.2186,4.43273l-1.067,1.481c-1.55439,-1.39873 -2.94084,-2.96544 -4.15932,-4.70013c-1.21849,-1.7347 -2.18999,-3.57567 -2.91449,-5.52291v7.9604h3.97161v1.54271h-3.97161v3.62023h-1.54122v-3.62023h-3.93209v-1.54271h3.93209v-8.14552c-0.72451,1.94725 -1.64661,3.74708 -2.7663,5.39949c-1.11969,1.65242 -2.5687,3.37683 -4.34704,5.17323l-1.02748,-1.4193c1.71247,-1.60442 3.12526,-3.16428 4.23836,-4.67956c1.11311,-1.51529 2.04508,-3.19856 2.79594,-5.04981h-6.3032v-1.58385h7.40972v-3.3734h1.54122v3.3734h7.42948zM378.67345,172.36149v1.46043h-7.86419v2.05695h6.67863v10.49045c0,0.6308 -0.06916,1.11418 -0.20747,1.45015c-0.13831,0.33597 -0.36225,0.56909 -0.67181,0.69936c-0.30956,0.13027 -0.75414,0.19541 -1.33375,0.19541h-2.43039l-0.27663,-1.43987h2.15376c0.38201,0 0.65864,-0.03085 0.82989,-0.09256c0.17125,-0.06171 0.28651,-0.17827 0.34579,-0.34968c0.05928,-0.17141 0.08892,-0.44224 0.08892,-0.8125v-8.72147h-11.97411v11.43664h-1.44243v-12.85594h6.71815v-2.05695h-7.94322v-1.46043h7.94322v-2.24208h1.52146v2.24208zM325.89646,173.43111v5.69775h12.66569l-0.29639,6.80851c-0.07904,1.04219 -0.34579,1.77241 -0.80025,2.19065c-0.45446,0.41825 -1.18885,0.62737 -2.20316,0.62737h-2.27232l-0.27663,-1.46043h1.93641c0.52691,0 0.93527,-0.06171 1.22507,-0.18513c0.2898,-0.12342 0.49727,-0.3154 0.62242,-0.57595c0.12514,-0.26055 0.20747,-0.62394 0.24699,-1.09018c0.03952,-0.61709 0.08233,-1.43301 0.12844,-2.44777c0.04611,-1.01476 0.08233,-1.83069 0.10868,-2.44777h-12.58665v-8.53634h3.8333l0.25687,-0.65822l0.51374,-1.39873l1.54122,0.18513l-0.25687,0.71993c-0.1449,0.43882 -0.27663,0.82278 -0.39519,1.15189h6.81695c-0.11856,2.13923 -0.19101,3.33912 -0.21735,3.59966c-0.06586,0.65822 -0.18771,1.16903 -0.36555,1.53243c-0.17783,0.36339 -0.44788,0.62394 -0.81013,0.78164c-0.36225,0.1577 -0.86611,0.23655 -1.51158,0.23655h-1.6993l-0.27663,-1.31645h1.54122c0.59278,0 1.00114,-0.09942 1.22507,-0.29826c0.22394,-0.19884 0.35567,-0.53823 0.39519,-1.01819l0.0988,-1.02848c0.03952,-0.41139 0.06586,-0.76793 0.07904,-1.06961zM299.81423,183.20162h-9.82035c-1.00114,1.15189 -2.22621,2.34492 -3.67522,3.57909l8.87191,-0.34968l-2.17352,-2.13923l0.9682,-1.00791c0.56643,0.53481 1.10981,1.0559 1.63014,1.56328c0.52033,0.50738 0.97808,0.95305 1.37327,1.33702c1.42267,1.39873 2.00886,1.96782 1.75857,1.70727l-1.02748,1.17246c-0.22394,-0.24683 -0.6323,-0.67879 -1.22507,-1.29588l-12.21122,0.55538l-0.37543,-1.46043c1.55439,-1.15189 2.91778,-2.37235 4.09017,-3.66137h-5.67091v-1.39873h2.60822v-10.69614h12.21122v10.69614h2.6675zM278.96821,184.0244l1.22507,0.30854c-0.01317,0.21941 -0.03293,0.54509 -0.05928,0.97705c-0.02635,0.43196 -0.04611,0.85363 -0.05928,1.26502c-0.02635,0.52109 -0.11526,0.9222 -0.26675,1.20332c-0.15149,0.28112 -0.39519,0.47653 -0.73109,0.58623c-0.33591,0.1097 -0.80684,0.16456 -1.41279,0.16456h-2.21304c-0.86941,0 -1.47206,-0.16113 -1.80797,-0.48338c-0.33591,-0.32226 -0.50386,-0.90849 -0.50386,-1.75869v-1.29588h-4.10993v-7.34331h4.10993v-1.64556h-3.49739v-4.75155h8.35817v4.75155h-3.55667v1.64556h4.09017v7.34331h-4.09017v1.04904c0,0.47996 0.07904,0.79878 0.23711,0.95648c0.15807,0.1577 0.47422,0.23655 0.94844,0.23655h1.91665c0.38201,0 0.66194,-0.03085 0.83977,-0.09256c0.17783,-0.06171 0.30627,-0.17827 0.38531,-0.34968c0.07904,-0.17141 0.12514,-0.42853 0.13831,-0.77136zM398.21535,173.04028l-1.64002,5.24522c0.69816,0.9462 1.18556,1.78612 1.46219,2.51976c0.27663,0.73365 0.41494,1.51186 0.41494,2.33464c0,1.1656 -0.23711,1.99524 -0.71133,2.48891c-0.47422,0.49367 -1.27118,0.7405 -2.39087,0.7405h-1.12628l-0.29639,-1.46043h1.02748c0.7772,0 1.32058,-0.14741 1.63014,-0.44224c0.30956,-0.29483 0.46434,-0.81935 0.46434,-1.57357c0,-0.65822 -0.15478,-1.33016 -0.46434,-2.01581c-0.30956,-0.68565 -0.80025,-1.44672 -1.47206,-2.28321l1.6005,-5.57434h-3.31956v16.06478h-1.40291v-17.58692h6.22417zM349.54829,170.18112h1.52146v4.03162h6.77743v8.47463h-6.77743v6.33541h-1.52146v-6.33541h-6.71815v-8.47463h6.71815zM375.19582,183.46902v1.23417h-4.40632v3.6408h-1.48194v-3.6408h-4.52487v-1.23417h4.52487v-1.89239h-4.09017v-1.23417h2.68726c-0.61912,-0.86392 -1.14604,-1.55643 -1.58074,-2.07752l1.12628,-0.65822c-0.03952,-0.05485 0.23052,0.29483 0.81013,1.04904l0.92869,1.2136l-0.82989,0.4731h2.2328c0.65864,-0.89135 1.25801,-1.81012 1.79809,-2.75631l1.26459,0.63765c-0.26346,0.45253 -0.75085,1.15875 -1.46219,2.11866h2.5687v1.23417h-3.97161v1.89239zM252.98478,170.18112h1.46219v3.80536h4.76198v8.72147h-4.76198v6.31484h-1.46219v-6.31484h-4.76198v-8.72147h4.76198zM264.26732,176.41368l2.41063,-0.30854c0.25028,-0.43882 0.57961,-1.07647 0.98796,-1.91296l1.24483,0.7405c-1.02748,2.0021 -2.39087,4.23732 -4.09017,6.70566l3.33932,-0.53481l0.03952,1.43987l-5.03861,0.80221l-0.27663,-1.481c1.067,-1.33016 2.06155,-2.77688 2.98365,-4.34016l-3.04293,0.4731l-0.29639,-1.39873c0.60595,-0.82278 1.19544,-1.78955 1.76845,-2.9003c0.57302,-1.11075 1.1625,-2.32435 1.76845,-3.6408l1.18556,0.57595c-1.26459,2.75631 -2.25914,4.68299 -2.98365,5.78003zM332.65413,185.17629v-3.08543h1.44243v4.48415h-11.00591v-4.48415h1.44243v3.08543h3.2998v-3.78479h1.54122v3.78479zM390.44996,174.00705h-1.48194c-0.15807,1.27531 -0.36225,2.4752 -0.61254,3.59966h2.6675v1.481h-9.89939v-1.481h2.52919c-0.25028,-1.56328 -0.48081,-2.76317 -0.69157,-3.59966h-1.34363v-1.46043h3.85306c-0.17125,-0.72679 -0.36884,-1.39873 -0.59278,-2.01581l1.46219,-0.37025c0.26346,0.82278 0.48739,1.61813 0.67181,2.38606h3.43811zM383.65278,187.33609v1.37816h-1.38315v-7.7547h7.54804v6.37655zM295.72407,181.80289v-2.26265h-9.34613v2.26265zM286.37794,176.02286v2.18037h9.34613v-2.18037zM286.37794,174.72698h9.34613v-2.1598h-9.34613zM356.30596,175.81717h-5.2362v5.28636h5.2362zM349.54829,175.81717h-5.17693v5.28636h5.17693zM245.71338,179.2317l0.6323,0.2057l0.79037,0.30854c-0.27663,0.89135 -0.72121,2.23179 -1.33375,4.02134c-0.61254,1.78955 -1.09005,3.12314 -1.43255,4.00077l-1.42267,-0.61709c0.38201,-0.93248 0.88258,-2.27636 1.5017,-4.03162c0.61912,-1.75526 1.04065,-3.05114 1.26459,-3.88764zM252.98478,175.52919h-3.28004v5.57434h3.28004zM257.68749,175.52919h-3.24052v5.57434h3.24052zM383.65278,185.93736h4.78174v-3.51738h-4.78174zM276.51806,174.80926v-2.30378h-5.45356v2.30378zM243.10515,171.70327l1.28435,-0.69936c1.04065,1.90611 1.98251,3.69565 2.82557,5.36864l-1.30411,0.82278c-0.40836,-0.85021 -0.89905,-1.83754 -1.47206,-2.96201c-0.57302,-1.12447 -1.0176,-1.96782 -1.33375,-2.53005zM268.43653,186.53388l-5.65115,0.96677l-0.19759,-1.54271l5.7697,-1.02848zM387.62439,174.00705h-3.26028c0.34249,1.70041 0.57302,2.9003 0.69157,3.59966h1.95617c0.23711,-1.06961 0.44129,-2.2695 0.61254,-3.59966zM331.38953,176.51653l-0.90893,1.13132c-1.47536,-1.22046 -2.52919,-2.06381 -3.16148,-2.53005l0.86941,-1.13132c0.56643,0.4251 1.63343,1.26845 3.201,2.53005zM274.44334,180.73328h2.82557v-1.87182h-2.82557zM277.26892,181.92631h-2.82557v1.87182h2.82557zM270.33342,180.73328h2.80582v-1.87182h-2.80582zM273.13923,181.92631h-2.80582v1.87182h2.80582z" fill="#ffffff" fill-rule="evenodd" stroke="#ffffff" stroke-width="0.5" stroke-linecap="round"/><path d="M240,196v-32h208v32z" fill="none" fill-rule="nonzero" stroke="none" stroke-width="0" stroke-linecap="butt"/></g></g></svg>