<svg version="1.1" xmlns="http://www.w3.org/2000/svg" xmlns:xlink="http://www.w3.org/1999/xlink" width="208" height="32" viewBox="0,0,208,32"><g transform="translate(-240,-164)"><g stroke-miterlimit="10"><path d="M344.17889,173.39265v5.88578h12.71097l-0.29745,7.03319c-0.07932,1.07658 -0.34702,1.83089 -0.80311,2.26294c-0.45609,0.43205 -1.1931,0.64807 -2.21103,0.64807h-2.28044l-0.27762,-1.50863h1.94333c0.5288,0 0.93862,-0.06374 1.22945,-0.19123c0.29084,-0.12749 0.49905,-0.32581 0.62464,-0.59495c0.12559,-0.26914 0.20821,-0.64453 0.24787,-1.12616c0.03966,-0.63745 0.08262,-1.4803 0.12889,-2.52855c0.04627,-1.04825 0.08262,-1.8911 0.10906,-2.52855h-12.63165v-8.81805h3.847l0.25779,-0.67995l0.51558,-1.44488l1.54673,0.19123l-0.25779,0.74369c-0.14542,0.4533 -0.27762,0.84993 -0.3966,1.1899h6.84132c-0.11898,2.20982 -0.19169,3.44931 -0.21813,3.71845c-0.0661,0.67995 -0.18838,1.20761 -0.36685,1.583c-0.17847,0.37539 -0.44948,0.64453 -0.81303,0.80744c-0.36355,0.1629 -0.86921,0.24436 -1.51699,0.24436h-1.70537l-0.27762,-1.35989h1.54673c0.5949,0 1.00471,-0.1027 1.22945,-0.3081c0.22474,-0.2054 0.35694,-0.556 0.3966,-1.05179l0.09915,-1.06242c0.03966,-0.42497 0.0661,-0.79327 0.07932,-1.10491zM272.59296,184.80299h5.75067v1.48738h-5.75067v3.22974h-1.44758v-3.22974h-6.60336v-1.48738h6.60336v-2.29482h-5.1756v-1.44488c0.58168,-0.96326 1.21623,-2.0965 1.90367,-3.39973h-2.915v-1.44488h3.62887c0.34372,-0.69411 0.661,-1.40239 0.95184,-2.12483l1.46741,0.23373c-0.10576,0.26914 -0.38338,0.89951 -0.83286,1.8911h7.43621v1.44488h-8.16992c-0.58168,1.17574 -1.20301,2.30898 -1.86401,3.39973h3.56938v-2.5498h1.44758v2.5498h4.60054v1.44488h-4.60054zM298.17353,183.4856h-9.85546c-1.00471,1.1899 -2.23417,2.42231 -3.68836,3.6972l8.90362,-0.36122l-2.18129,-2.20982l0.97167,-1.04117c0.56846,0.55246 1.11378,1.09075 1.63597,1.61487c0.52219,0.52412 0.98158,0.9845 1.37818,1.38114c1.42775,1.44488 2.01604,2.03275 1.76486,1.76361l-1.03115,1.21115c-0.22474,-0.25498 -0.63456,-0.70119 -1.22945,-1.33864l-12.25488,0.5737l-0.37677,-1.50863c1.55995,-1.1899 2.92821,-2.45064 4.10479,-3.7822h-5.69118v-1.44488h2.61755v-11.04912h12.25488v11.04912h2.67704zM254.03217,177.83355v4.24966h4.48156v1.57237h-17.52963v-1.57237h3.23227v-10.09294c4.94426,-0.29748 8.97633,-0.7791 12.09624,-1.44488l0.27762,1.52988c-1.40131,0.32581 -3.08024,0.6162 -5.03679,0.87118c-1.95655,0.25498 -3.89327,0.43205 -5.81016,0.53121v2.82602h12.15573v1.52988zM327.44246,185.75916l0.01983,0.80744l0.01983,0.76494c-0.5288,0.07083 -2.85551,0.46746 -6.98012,1.1899l-0.17847,-1.50863l0.89235,-0.14874v-7.54315h1.26911v7.33066l1.40792,-0.25498v-8.90304h-2.55806v-6.39574h5.61186v6.39574h-1.70537v3.22974h2.08214v1.46613h-2.08214v3.95218zM271.60146,172.20275h6.70251v1.42364h-14.17838v5.12084c0,1.84152 -0.05619,3.33952 -0.16855,4.49402c-0.11237,1.15449 -0.30736,2.20274 -0.58498,3.14475c-0.27762,0.94201 -0.68744,1.9938 -1.22945,3.15537l-1.40792,-0.78619c0.55524,-1.14741 0.96836,-2.17087 1.23937,-3.07038c0.27101,-0.89951 0.45939,-1.85923 0.56515,-2.87914c0.10576,-1.01992 0.15864,-2.32315 0.15864,-3.90969v-6.69321h7.17842l-0.5949,-1.95484l1.60622,-0.29748c0.01322,0.0425 0.0661,0.19832 0.15864,0.46746c0.29084,0.87826 0.47592,1.47322 0.55524,1.78486zM337.754,179.59716l-0.53541,1.44488c-1.98299,-0.69411 -3.54955,-1.49446 -4.69969,-2.40106c-1.28233,0.94909 -2.83568,1.77777 -4.66003,2.48605l-0.57507,-1.38114c1.66571,-0.62328 3.04719,-1.32448 4.14445,-2.10358c-0.74032,-0.79327 -1.41453,-1.72111 -2.02265,-2.78353c-0.44948,0.59495 -0.89896,1.13324 -1.34843,1.61487l-0.83286,-1.16866c0.7271,-0.80744 1.41123,-1.70341 2.05239,-2.68791c0.64117,-0.9845 1.14022,-1.94422 1.49716,-2.87914l1.34843,0.42497c-0.27762,0.65161 -0.54202,1.21824 -0.7932,1.69986h5.39373v1.42364c-0.81964,1.75653 -1.85079,3.22266 -3.09346,4.3984c1.01794,0.73661 2.39281,1.37406 4.12462,1.91235zM317.96377,188.01148l-0.69405,1.55113c-2.85551,-1.30323 -4.79223,-3.13058 -5.81016,-5.48206c-0.47592,1.09075 -1.22284,2.08942 -2.24078,2.99601c-1.01794,0.90659 -2.33332,1.74944 -3.94615,2.52855l-0.81303,-1.55113c2.14163,-0.92076 3.70158,-1.96547 4.67986,-3.13412c0.97828,-1.16866 1.46741,-2.51084 1.46741,-4.02655v-2.29482h1.48724v2.29482c0,0.21248 -0.01322,0.48871 -0.03966,0.82868c0.7271,2.93227 2.69687,5.02876 5.90931,6.2895zM350.96072,185.52543v-3.18725h1.44758v4.63213h-11.04525v-4.63213h1.44758v3.18725h3.31159v-3.90969h1.54673v3.90969zM305.6494,180.02212l-0.61473,-1.46613c1.54673,-0.55246 2.7167,-1.0872 3.50989,-1.60425c0.7932,-0.51704 1.33191,-1.08012 1.61614,-1.68924c0.28423,-0.60912 0.42634,-1.36697 0.42634,-2.27357v-2.91102h1.48724v2.97476c0,0.73661 -0.07271,1.35989 -0.21813,1.86985c0.1322,0.08499 0.27101,0.16645 0.41643,0.24436c0.14542,0.07791 0.29084,0.15936 0.43626,0.24436c3.06702,1.78486 4.82528,2.81894 5.27475,3.10225l-0.77337,1.46613c-0.31728,-0.21248 -1.87062,-1.17574 -4.66003,-2.88977l-1.28894,-0.78619c-0.44948,0.70828 -1.11708,1.35281 -2.00282,1.9336c-0.88574,0.58079 -2.08875,1.17574 -3.60904,1.78486zM330.00051,188.07523v1.42364h-1.40792v-7.94686h7.83281v7.94686h-1.40792v-1.42364zM294.06874,182.04071v-2.33731h-9.37954v2.33731zM284.6892,176.06994v2.25232h9.37954v-2.25232zM284.6892,174.7313h9.37954v-2.23107h-9.37954zM252.50527,182.08321v-4.24966h-6.762v4.24966zM241.99542,189.54136l-0.73371,-1.48738c0.80642,-0.39663 1.82435,-0.98805 3.0538,-1.77423c1.22945,-0.78619 2.21434,-1.47676 2.95465,-2.07171l0.85269,1.29615c-0.77998,0.63745 -1.76156,1.34218 -2.94474,2.11421c-1.18318,0.77202 -2.24408,1.41301 -3.1827,1.92297zM303.23015,181.38201l0.69405,0.31872l0.69405,0.23373c-0.30406,0.97742 -0.69405,2.17441 -1.16996,3.59096l-1.16996,3.61221l-1.34843,-0.53121c0.15864,-0.39663 0.51227,-1.46259 1.0609,-3.19787c0.54863,-1.73528 0.96175,-3.07746 1.23937,-4.02655zM251.37497,185.52543l0.83286,-1.33864l5.9688,3.84594l-0.85269,1.48738c-0.75354,-0.55246 -1.71859,-1.22178 -2.89517,-2.00796c-1.17657,-0.78619 -2.19451,-1.44843 -3.0538,-1.98672zM330.00051,186.71534h5.01696v-3.76095h-5.01696zM335.25544,173.26516h-4.73935l-0.23796,0.38247c0.67422,1.30323 1.42775,2.3444 2.26061,3.1235c1.04437,-0.92076 1.94994,-2.08942 2.7167,-3.50597zM325.65777,176.04869v-3.50597h-3.0538v3.50597zM304.61824,178.40725l-0.85269,1.29615c-1.67893,-1.48738 -2.78941,-2.45772 -3.33142,-2.91102l0.77337,-1.25365c1.08403,0.84993 2.22095,1.80611 3.41074,2.86852zM305.51059,173.4564l-0.87252,1.31739c-1.62605,-1.48738 -2.7167,-2.47189 -3.27193,-2.95351l0.83286,-1.1899c0.3966,0.31164 0.91879,0.74723 1.56656,1.30677c0.64778,0.55954 1.22945,1.06596 1.74503,1.51925zM349.6916,176.5799l-0.91218,1.16866c-1.48063,-1.26073 -2.53823,-2.13191 -3.17278,-2.61354l0.87252,-1.16866c0.56846,0.43913 1.63927,1.31031 3.21244,2.61354zM316.09976,171.16158l1.01132,0.97742c-0.37016,0.48163 -0.81633,1.00575 -1.33852,1.57237c-0.52219,0.56662 -1.03446,1.08366 -1.53682,1.55113l-0.89235,-1.10491c0.50236,-0.46746 1.00802,-0.97388 1.51699,-1.51925c0.50897,-0.54537 0.92209,-1.03763 1.23937,-1.47676zM314.39438,184.22929l-0.97167,-1.06242c0.43626,-0.46746 0.87582,-0.98805 1.31869,-1.56175c0.44287,-0.5737 0.82294,-1.10137 1.14022,-1.583l1.09064,0.91368c-0.80642,1.16157 -1.66571,2.2594 -2.57789,3.29349zM309.25844,174.37007l-1.03115,0.99867c-0.87252,-1.09075 -1.73181,-2.11066 -2.57789,-3.05976l0.95184,-1.01992c0.71388,0.79327 1.59961,1.82027 2.65721,3.081zM309.25844,183.14562l-1.05098,0.95617c-0.70066,-0.93493 -1.50707,-1.94068 -2.41925,-3.01726l0.99149,-1.01992c0.67422,0.7791 1.50046,1.80611 2.47874,3.081z" fill="#ffffff" fill-rule="evenodd" stroke="#ffffff" stroke-width="0.5" stroke-linecap="round"/><path d="M240,196v-32h208v32z" fill="none" fill-rule="nonzero" stroke="none" stroke-width="0" stroke-linecap="butt"/></g></g></svg>