<svg version="1.1" xmlns="http://www.w3.org/2000/svg" xmlns:xlink="http://www.w3.org/1999/xlink" width="270" height="260" viewBox="0,0,270,260"><g transform="translate(-105,-50)"><g stroke-miterlimit="10"><path d="M105,310v-260h270v260z" fill-opacity="0" fill="#000000" fill-rule="nonzero" stroke="none" stroke-width="1" stroke-linecap="butt" stroke-linejoin="miter"/><path d="M139,249h136l10,2v49c0,5.54 -4.46,10 -10,10h-136c-5.54,0 -10,-4.46 -10,-10v-49z" fill="#12151a" fill-rule="evenodd" stroke="none" stroke-width="1" stroke-linecap="butt" stroke-linejoin="miter"/><path d="M139,224h136c5.54,0 10,4.46 10,10v17h-156v-17c0,-5.54 4.46,-10 10,-10z" fill="#31476d" fill-rule="evenodd" stroke="none" stroke-width="1" stroke-linecap="butt" stroke-linejoin="miter"/><path d="M149,286.5h38c3.324,0 6,2.676 6,6c0,3.324 -2.676,6 -6,6h-38c-3.324,0 -6,-2.676 -6,-6c0,-3.324 2.676,-6 6,-6z" fill="#f1de2e" fill-rule="evenodd" stroke="none" stroke-width="0.2" stroke-linecap="round" stroke-linejoin="round" opacity="0.988"/><path d="M149,262.5h38c3.324,0 6,2.676 6,6c0,3.324 -2.676,6 -6,6h-38c-3.324,0 -6,-2.676 -6,-6c0,-3.324 2.676,-6 6,-6z" fill="#fc3122" fill-rule="evenodd" stroke="none" stroke-width="0.2" stroke-linecap="round" stroke-linejoin="round" opacity="0.988"/><path d="M175.39075,234.99661h1.46398c-0.06832,0.61488 -0.14151,1.26098 -0.21959,1.93831c-0.07808,0.67929 -0.16299,1.35272 -0.25474,2.0203c-0.09369,0.66952 -0.18251,1.30393 -0.26645,1.90318c-0.08199,0.60121 -0.16201,1.13116 -0.24009,1.58988h-1.52255c0.0976,-0.47824 0.1952,-1.02283 0.2928,-1.6338c0.0976,-0.60901 0.19226,-1.2483 0.28401,-1.91782c0.09369,-0.66757 0.17958,-1.33613 0.25766,-2.00565c0.07808,-0.66757 0.1464,-1.29904 0.20496,-1.89439M177.58672,236.69483l0.81983,-0.52703c0.26352,0.20496 0.53679,0.44407 0.81983,0.71735c0.28304,0.27328 0.50263,0.51239 0.65879,0.71735l-0.86375,0.60023c-0.13664,-0.21472 -0.34452,-0.46652 -0.62366,-0.75541c-0.27718,-0.28694 -0.54753,-0.53777 -0.81105,-0.75249M177.19144,239.72527l0.86375,-0.54167c0.2928,0.22448 0.59731,0.48312 0.91352,0.77591c0.31817,0.2928 0.56509,0.55631 0.74077,0.79055l-0.89303,0.61487c-0.16592,-0.22448 -0.40503,-0.49287 -0.71735,-0.80519c-0.31232,-0.31232 -0.61487,-0.59047 -0.90767,-0.83447M175.5957,232.4932h7.56879v1.42006h-7.56879v-1.42006M176.00562,234.99661h5.57778v1.34686h-5.57778v-1.34686M173.54613,237.92457h9.999v1.42006h-9.999v-1.42006M175.14187,241.10142h8.02263v1.34686h-8.02263v-1.34686M175.68354,230.95602l1.52254,0.39528c-0.1952,0.60511 -0.43236,1.20729 -0.71149,1.80655c-0.27718,0.60121 -0.57193,1.16533 -0.88424,1.69236c-0.31232,0.52704 -0.62951,0.99063 -0.95158,1.39079c-0.0976,-0.08784 -0.23132,-0.18544 -0.40114,-0.2928c-0.17177,-0.10736 -0.34062,-0.21472 -0.50654,-0.32208c-0.16592,-0.10736 -0.31231,-0.1952 -0.43919,-0.26352c0.33184,-0.35136 0.64708,-0.7642 0.94573,-1.23853c0.2967,-0.47238 0.56705,-0.97989 0.81105,-1.52254c0.244,-0.54069 0.44895,-1.0892 0.61487,-1.64552M181.12956,234.99661h1.46398c0,0 -0.00195,0.04391 -0.00585,0.13175c-0.00585,0.08784 -0.00879,0.18252 -0.00879,0.28402c0,0.10345 -0.00488,0.18934 -0.01464,0.25766c-0.05856,1.39567 -0.11712,2.57856 -0.17568,3.54869c-0.05856,0.97208 -0.12493,1.77044 -0.19911,2.39508c-0.07223,0.62464 -0.1542,1.11262 -0.24594,1.46398c-0.09369,0.35136 -0.20398,0.60511 -0.33086,0.76127c-0.16592,0.22448 -0.33965,0.3777 -0.52118,0.45969c-0.17958,0.08393 -0.38649,0.14543 -0.62073,0.18447c-0.21472,0.02928 -0.488,0.04391 -0.81983,0.04391c-0.33184,0 -0.67831,-0.00976 -1.03942,-0.02928c-0.00976,-0.1952 -0.0488,-0.41479 -0.11712,-0.65879c-0.06832,-0.244 -0.16103,-0.45871 -0.27815,-0.64415c0.3416,0.02928 0.65391,0.0488 0.93695,0.05856c0.28304,0.00976 0.49287,0.01463 0.62951,0.01463c0.12688,0 0.22935,-0.01757 0.30743,-0.0527c0.07808,-0.03319 0.15616,-0.09369 0.23424,-0.18153c0.0976,-0.10736 0.18544,-0.325 0.26352,-0.65293c0.07808,-0.32598 0.15128,-0.78957 0.2196,-1.39078c0.06832,-0.59925 0.12981,-1.36541 0.18446,-2.29845c0.05271,-0.93109 0.09858,-2.06031 0.13762,-3.38766v-0.30743M170.706,232.25896l0.87839,-1.06871c0.28304,0.12688 0.58852,0.27815 0.91645,0.45383c0.32598,0.17568 0.63829,0.35623 0.93695,0.54167c0.2967,0.18544 0.53777,0.35623 0.72321,0.51239l-0.92231,1.18582c-0.17568,-0.15616 -0.40698,-0.33476 -0.69392,-0.53581c-0.28889,-0.1991 -0.59633,-0.3943 -0.92231,-0.5856c-0.32793,-0.18934 -0.63342,-0.35721 -0.91646,-0.50361M169.88617,236.44595l0.84911,-1.05407c0.28304,0.12688 0.57876,0.27523 0.88718,0.44505c0.30646,0.17177 0.59925,0.34549 0.87839,0.52117c0.27718,0.17568 0.5036,0.3416 0.67928,0.49776l-0.90767,1.20046c-0.15616,-0.16592 -0.37087,-0.34648 -0.64415,-0.54167c-0.27328,-0.1952 -0.56315,-0.38551 -0.86961,-0.57095c-0.30841,-0.18544 -0.59926,-0.35136 -0.87253,-0.49776M170.29609,243.54627c0.1952,-0.38064 0.41284,-0.82959 0.65293,-1.34686c0.23814,-0.51728 0.47726,-1.0687 0.71735,-1.6543c0.23814,-0.5856 0.45969,-1.16142 0.66465,-1.7275l1.20047,0.84911c-0.17568,0.51728 -0.36795,1.04918 -0.57681,1.59574c-0.21081,0.54656 -0.42553,1.08822 -0.64415,1.62502c-0.22057,0.5368 -0.43822,1.03943 -0.65294,1.50791zM185.68254,235.56756h1.56646v2.79621c0,0.45872 -0.02147,0.95354 -0.06441,1.48448c-0.04489,0.53289 -0.12395,1.07457 -0.23717,1.62502c-0.11127,0.55241 -0.27425,1.08432 -0.48897,1.59574c-0.21472,0.51337 -0.49287,0.97502 -0.83447,1.38493c-0.07808,-0.10736 -0.19519,-0.22741 -0.35135,-0.36014c-0.15616,-0.13078 -0.31915,-0.25766 -0.48897,-0.38064c-0.17177,-0.12103 -0.31622,-0.21081 -0.43334,-0.26937c0.40992,-0.49776 0.70759,-1.0443 0.89303,-1.63966c0.18544,-0.59536 0.30451,-1.19363 0.35721,-1.79484c0.05465,-0.59925 0.08198,-1.15752 0.08198,-1.6748v-2.76693M186.54629,235.56756h11.19946v1.39078h-11.19946v-1.39078M188.22987,237.88066h9.03277v1.33222h-9.03277v-1.33222M187.55644,240.44262h10.40892v1.39079h-10.40892v-1.39079M191.83127,238.29057h1.6543v6.35368h-1.6543v-6.35368M185.72646,231.51233h1.59574v1.74214h8.06654v-1.74214h1.6543v3.13292h-11.31658v-3.13292M190.4844,230.97066h1.66894v2.9426h-1.66894zM199.79533,240.8379c-0.01952,-0.0976 -0.05855,-0.23228 -0.11711,-0.40405c-0.05856,-0.16982 -0.11907,-0.3455 -0.18153,-0.52703c-0.06441,-0.17958 -0.1259,-0.33281 -0.18446,-0.45969c0.18544,-0.03904 0.36599,-0.13957 0.54167,-0.30158c0.17568,-0.16006 0.38064,-0.37673 0.61488,-0.65001c0.12688,-0.12688 0.30743,-0.34159 0.54167,-0.64415c0.23424,-0.30256 0.4958,-0.65879 0.78469,-1.06871c0.28694,-0.40992 0.57681,-0.85691 0.8696,-1.341c0.2928,-0.48214 0.56607,-0.97208 0.81983,-1.46984l1.27367,0.80519c-0.55632,0.95647 -1.18095,1.90025 -1.8739,2.83134c-0.69295,0.93304 -1.39079,1.75092 -2.0935,2.45363v0.04392c0,0 -0.05076,0.0244 -0.15225,0.0732c-0.10345,0.0488 -0.21862,0.11224 -0.3455,0.19032c-0.12688,0.07808 -0.24107,0.15811 -0.34257,0.24009c-0.10345,0.08393 -0.15519,0.16006 -0.15519,0.22838M199.79533,240.8379l-0.08783,-1.22974l0.67343,-0.48311l3.98203,-0.67343c-0.02928,0.20496 -0.04392,0.43432 -0.04392,0.68807c0,0.25376 0.00488,0.45871 0.01464,0.61487c-0.89791,0.17568 -1.62697,0.32402 -2.18719,0.44505c-0.56217,0.12297 -0.99648,0.22057 -1.30294,0.2928c-0.30841,0.07417 -0.53777,0.13762 -0.68807,0.19032c-0.15225,0.05465 -0.2723,0.10638 -0.36014,0.15518M199.69285,237.28042c-0.01952,-0.10736 -0.05856,-0.24887 -0.11712,-0.42455c-0.05856,-0.17568 -0.122,-0.35916 -0.19032,-0.55045c-0.06832,-0.18934 -0.13175,-0.34745 -0.19031,-0.47433c0.1464,-0.03904 0.28791,-0.13664 0.42455,-0.2928c0.13664,-0.15616 0.28303,-0.35135 0.43919,-0.58559c0.07808,-0.11712 0.1952,-0.30744 0.35136,-0.57095c0.15616,-0.26352 0.32695,-0.57583 0.51239,-0.93695c0.18544,-0.36112 0.37087,-0.75151 0.55631,-1.17119c0.18544,-0.41968 0.34647,-0.84423 0.48311,-1.27366l1.46399,0.70271c-0.244,0.56608 -0.52215,1.13703 -0.83447,1.71286c-0.31232,0.57583 -0.64123,1.12434 -0.98673,1.64552c-0.34745,0.52313 -0.69685,0.99453 -1.04821,1.4142v0.04392c0,0 -0.04392,0.02635 -0.13176,0.07905c-0.08784,0.05465 -0.18739,0.12102 -0.29865,0.1991c-0.11321,0.07808 -0.21374,0.16104 -0.30158,0.24888c-0.08784,0.08784 -0.13175,0.16592 -0.13175,0.23424M199.69285,237.28042l-0.02928,-1.11263l0.65879,-0.43919l2.67909,-0.2196c-0.0488,0.1952 -0.08491,0.41479 -0.10834,0.65879c-0.02537,0.244 -0.03806,0.44407 -0.03806,0.60023c-0.60511,0.06832 -1.09506,0.12688 -1.46984,0.17568c-0.37673,0.0488 -0.67733,0.08979 -0.90181,0.12297c-0.22448,0.03513 -0.39527,0.06929 -0.51239,0.10248c-0.11712,0.03513 -0.20983,0.07222 -0.27815,0.11126M199.34149,242.40436c0.41968,-0.10736 0.89791,-0.23911 1.43471,-0.39527c0.5368,-0.15616 1.10775,-0.32501 1.71286,-0.50654c0.60511,-0.17958 1.21023,-0.36209 1.81534,-0.54753l0.23424,1.30295c-0.83935,0.2928 -1.68553,0.58071 -2.53854,0.86375c-0.85496,0.28304 -1.62893,0.54167 -2.32188,0.77591l-0.33672,-1.49326M204.94855,234.38174l6.95391,-1.05407l0.26352,1.37614l-6.95391,1.09799l-0.26352,-1.42006M204.64111,237.54394l7.65662,-1.39078l0.24887,1.3615l-7.65662,1.43471l-0.24887,-1.40543M207.04204,230.92674h1.56646c-0.01952,1.02479 -0.00488,2.03688 0.04392,3.03629c0.0488,1.00136 0.12981,1.95588 0.24302,2.86355c0.11127,0.90767 0.24497,1.74214 0.40113,2.50341c0.15616,0.76127 0.33184,1.42494 0.52703,1.99102c0.1952,0.56608 0.40992,1.00527 0.64415,1.31758c0.23424,0.31232 0.47824,0.46848 0.73199,0.46848c0.10736,0 0.1952,-0.04685 0.26352,-0.14055c0.06832,-0.09175 0.12492,-0.25473 0.16982,-0.48897c0.04295,-0.23424 0.07417,-0.55143 0.09369,-0.95158c0.1464,0.18544 0.32501,0.3533 0.53582,0.50361c0.20886,0.15225 0.40113,0.2723 0.57681,0.36014c-0.07808,0.5856 -0.1874,1.03942 -0.32793,1.3615c-0.14249,0.32208 -0.33086,0.54851 -0.56509,0.67929c-0.23424,0.13273 -0.54167,0.1991 -0.92231,0.1991c-0.49776,0 -0.9389,-0.18056 -1.32344,-0.54167c-0.38649,-0.36112 -0.72613,-0.86375 -1.01893,-1.5079c-0.2928,-0.64415 -0.54167,-1.40054 -0.74663,-2.26917c-0.20496,-0.86863 -0.37283,-1.81339 -0.50361,-2.83427c-0.13273,-1.01893 -0.23033,-2.08471 -0.2928,-3.19734c-0.06441,-1.11263 -0.09662,-2.23013 -0.09662,-3.35251M208.95986,231.98081l0.92231,-0.83447c0.20496,0.10736 0.42943,0.23618 0.67343,0.38649c0.244,0.15225 0.47823,0.30646 0.70271,0.46262c0.22448,0.15616 0.40503,0.29767 0.54167,0.42455l-0.93695,0.92231c-0.21472,-0.1952 -0.50459,-0.42261 -0.86961,-0.68222c-0.36697,-0.25766 -0.71149,-0.48409 -1.03357,-0.67929M211.34615,238.23201l1.31758,0.60023c-0.54656,0.86863 -1.21022,1.65626 -1.99101,2.36287c-0.78079,0.70856 -1.64454,1.33124 -2.59125,1.86804c-0.94671,0.5368 -1.94222,0.99063 -2.98653,1.36151c-0.0976,-0.20496 -0.23619,-0.42749 -0.41577,-0.66758c-0.18153,-0.23814 -0.36013,-0.44993 -0.53581,-0.63537c0.99551,-0.30256 1.95197,-0.68612 2.8694,-1.15069c0.91743,-0.46262 1.74995,-1.00917 2.49756,-1.63966c0.74565,-0.62853 1.3576,-1.32832 1.83583,-2.09935zM220.78883,231.87833h6.41225v1.20047h-6.41225v-1.20047M223.51184,232.6396l1.22974,0.27816c-0.1464,0.40016 -0.29279,0.79055 -0.43919,1.17118c-0.1464,0.38064 -0.28791,0.71247 -0.42455,0.99551l-1.09799,-0.2928c0.13664,-0.2928 0.27621,-0.64415 0.4187,-1.05406c0.14054,-0.40992 0.24498,-0.77591 0.3133,-1.09799M221.02307,234.5135h5.70953v6.8368h-1.24438v-5.70953h-3.26468v5.76809h-1.20047v-6.89536M223.30688,236.18244h1.18582c-0.00976,1.09311 -0.03611,2.0564 -0.07906,2.8899c-0.04489,0.83544 -0.14249,1.55768 -0.29279,2.1667c-0.15225,0.61097 -0.38161,1.13312 -0.68807,1.56646c-0.30841,0.43529 -0.72809,0.80421 -1.25903,1.10677c-0.53289,0.30256 -1.20437,0.55631 -2.01444,0.76127c-0.0488,-0.15616 -0.14152,-0.3416 -0.27816,-0.55632c-0.13664,-0.21472 -0.26839,-0.38551 -0.39527,-0.51239c0.74175,-0.16592 1.35174,-0.37087 1.82998,-0.61487c0.47824,-0.244 0.85204,-0.54655 1.12141,-0.90767c0.26742,-0.36112 0.46262,-0.80518 0.5856,-1.33222c0.12103,-0.52704 0.1991,-1.16631 0.23423,-1.91782c0.03319,-0.75151 0.04978,-1.63478 0.04978,-2.6498M214.20091,232.39072h6.35369v1.28831h-6.35369v-1.28831M215.02074,235.52364h5.5485v1.2883h-5.5485v-1.2883M218.78318,233.72295l1.25903,0.30743c-0.17568,0.36112 -0.35331,0.71735 -0.53289,1.0687c-0.18153,0.35136 -0.35526,0.65392 -0.52117,0.90767l-1.15655,-0.27815c0.10736,-0.18544 0.2196,-0.39528 0.33672,-0.62952c0.11712,-0.23424 0.23228,-0.47335 0.3455,-0.71735c0.11127,-0.244 0.20105,-0.46359 0.26937,-0.65879M215.1525,234.03038l1.20047,-0.38063c0.15616,0.244 0.3006,0.51727 0.43334,0.81983c0.13078,0.30256 0.22545,0.56607 0.28401,0.79055l-1.25902,0.42455c-0.0488,-0.22448 -0.13469,-0.49287 -0.25766,-0.80519c-0.12103,-0.31232 -0.25473,-0.59535 -0.40113,-0.84911M214.46443,235.52364h1.37614v2.97188c0,0.44896 -0.01171,0.93695 -0.03514,1.46399c-0.02537,0.52704 -0.07222,1.06578 -0.14054,1.61623c-0.06832,0.55241 -0.16592,1.09213 -0.2928,1.61917c-0.12688,0.52704 -0.29767,1.01014 -0.51239,1.44934c-0.08784,-0.07808 -0.20691,-0.16592 -0.35721,-0.26352c-0.15225,-0.0976 -0.30645,-0.18837 -0.46261,-0.2723c-0.15616,-0.08199 -0.29279,-0.14249 -0.40991,-0.18153c0.25376,-0.54656 0.44212,-1.13995 0.56509,-1.7802c0.12103,-0.63829 0.19618,-1.27757 0.22546,-1.91782c0.02928,-0.63829 0.04392,-1.22096 0.04392,-1.74799v-2.95725M218.98814,236.85587l1.27366,0.54167c-0.31232,0.2928 -0.67051,0.56315 -1.07457,0.81105c-0.40601,0.24985 -0.83057,0.47433 -1.27366,0.67343c-0.44505,0.20105 -0.88229,0.3699 -1.31173,0.50654c-0.10736,-0.15616 -0.24887,-0.32989 -0.42455,-0.52118c-0.17568,-0.18934 -0.35135,-0.34745 -0.52703,-0.47433c0.40016,-0.10736 0.80714,-0.24204 1.22096,-0.40405c0.41577,-0.16006 0.81202,-0.33769 1.18875,-0.53289c0.37478,-0.1952 0.68417,-0.39527 0.92817,-0.60023M219.22237,238.78832l1.22974,0.52703c-0.33184,0.37088 -0.7193,0.71247 -1.1624,1.02479c-0.44505,0.31232 -0.91645,0.59535 -1.41421,0.84911c-0.49776,0.25376 -1.00038,0.46847 -1.5079,0.64415c-0.10736,-0.16592 -0.24595,-0.35136 -0.41577,-0.55632c-0.17177,-0.20496 -0.34062,-0.37575 -0.50654,-0.51239c0.45872,-0.13664 0.92524,-0.30549 1.39957,-0.50654c0.47238,-0.1991 0.9184,-0.42553 1.33808,-0.67929c0.41968,-0.25376 0.76615,-0.51727 1.03943,-0.79055M219.39805,240.88182l1.3615,0.5856c-0.36112,0.40992 -0.78079,0.79055 -1.25902,1.1419c-0.47824,0.35136 -0.99551,0.66367 -1.55182,0.93695c-0.55632,0.27328 -1.12726,0.50752 -1.71286,0.70271c-0.10736,-0.16592 -0.25083,-0.35624 -0.43041,-0.57096c-0.18153,-0.21472 -0.35526,-0.39039 -0.52117,-0.52703c0.52704,-0.1464 1.05407,-0.33477 1.5811,-0.5651c0.52704,-0.22838 1.01307,-0.48897 1.45812,-0.78176c0.4431,-0.2928 0.80129,-0.60023 1.07457,-0.92231M216.49937,231.2781l1.2883,-0.35135c0.13664,0.244 0.26156,0.51727 0.37477,0.81983c0.11127,0.30256 0.19129,0.56607 0.24009,0.79055l-1.3615,0.39527c-0.02928,-0.22448 -0.09759,-0.49287 -0.20495,-0.80519c-0.10736,-0.31232 -0.21959,-0.59535 -0.33671,-0.84911M224.09743,242.4922l0.81983,-0.84911c0.30256,0.1952 0.61487,0.41675 0.93695,0.66465c0.32208,0.24985 0.62463,0.49873 0.90767,0.74663c0.28304,0.24985 0.51239,0.48213 0.68807,0.69685l-0.84911,0.95159c-0.16592,-0.22448 -0.38747,-0.46848 -0.66465,-0.73199c-0.27913,-0.26352 -0.57973,-0.52508 -0.90181,-0.78469c-0.32208,-0.25766 -0.63439,-0.48897 -0.93695,-0.69393zM234.60883,235.55292h1.53718v3.89419h-1.53718v-3.89419M232.91061,232.14185h4.55299v1.40542h-5.2557l0.70272,-1.40542M237.0244,232.14185h0.36599l0.30743,-0.08784l1.01015,0.76127c-0.26352,0.38064 -0.56607,0.78079 -0.90767,1.20047c-0.3416,0.41968 -0.69783,0.8169 -1.06871,1.19168c-0.37088,0.37673 -0.73199,0.70662 -1.08335,0.98965c-0.10736,-0.1464 -0.25083,-0.31036 -0.43041,-0.4919c-0.18153,-0.17958 -0.33574,-0.32793 -0.46262,-0.44505c0.28304,-0.244 0.57388,-0.53191 0.87253,-0.86375c0.2967,-0.33184 0.56704,-0.66855 0.81104,-1.01014c0.244,-0.3416 0.4392,-0.64903 0.5856,-0.92231v-0.32208M230.17296,235.04053h1.52255v6.85144c0,0.2928 0.04391,0.51434 0.13175,0.66464c0.08784,0.15225 0.26645,0.25474 0.53582,0.30744c0.26742,0.05465 0.66464,0.08198 1.19168,0.08198c0.15616,0 0.40309,0 0.74078,0c0.33574,0 0.72125,0 1.15654,0c0.43334,0 0.86765,0 1.30294,0c0.43334,0 0.82861,0 1.18582,0c0.35526,0 0.62561,0 0.81105,0c0.47824,0 0.83447,-0.05367 1.06871,-0.16103c0.23424,-0.10736 0.40308,-0.32013 0.50653,-0.6383c0.1015,-0.31622 0.18642,-0.78176 0.25474,-1.39664c0.1952,0.11712 0.43724,0.22935 0.72613,0.33671c0.28694,0.10736 0.53776,0.18055 0.75248,0.21959c-0.06832,0.59536 -0.16591,1.09018 -0.29279,1.48448c-0.12688,0.39625 -0.30744,0.71149 -0.54167,0.94573c-0.23424,0.23424 -0.54655,0.40016 -0.93695,0.49776c-0.3904,0.0976 -0.88327,0.1464 -1.47862,0.1464c-0.10736,0 -0.29475,0 -0.56216,0c-0.26937,0 -0.58169,0 -0.93695,0c-0.35721,0 -0.73102,0 -1.12141,0c-0.3904,0 -0.76323,0 -1.11848,0c-0.35721,0 -0.66757,0 -0.93109,0c-0.26352,0 -0.44408,0 -0.54168,0c-0.86863,0 -1.55377,-0.06832 -2.05543,-0.20496c-0.50361,-0.13664 -0.85789,-0.38551 -1.06285,-0.74663c-0.20496,-0.36112 -0.30744,-0.87351 -0.30744,-1.53718v-6.85144M232.86669,230.88282l1.4347,0.54167c-0.40016,0.72223 -0.87546,1.42982 -1.42592,2.12277c-0.55241,0.69295 -1.14289,1.33418 -1.77142,1.92368c-0.63049,0.59145 -1.27268,1.10677 -1.9266,1.54596c-0.03904,-0.11712 -0.10736,-0.26839 -0.20496,-0.45383c-0.0976,-0.18544 -0.20495,-0.37576 -0.32207,-0.57095c-0.11712,-0.1952 -0.21959,-0.35135 -0.30743,-0.46847c0.5856,-0.35136 1.16142,-0.77103 1.7275,-1.25903c0.56608,-0.488 1.09115,-1.01991 1.57524,-1.59574c0.48214,-0.57583 0.88912,-1.17118 1.22096,-1.78606M231.4027,235.04053h9.19381v5.46065h-1.55182v-4.01131h-7.64199v-1.44934M231.4027,238.46625h8.37398v1.49327h-8.37398z" fill="#ffffff" fill-rule="nonzero" stroke="none" stroke-width="1" stroke-linecap="butt" stroke-linejoin="miter"/><path d="M214.56872,268.7354v0.9744h-1.47593l-0.08597,2.22105h1.28965v0.98873h-1.31831l-0.01432,0.25793c-0.02866,0.43943 -0.10748,0.77857 -0.23644,1.01739c-0.12896,0.23882 -0.32958,0.40839 -0.60183,0.50869c-0.27226,0.1003 -0.65199,0.15046 -1.13919,0.15046h-2.13508l-0.21494,-1.00305h2.00612c0.47764,0 0.80961,-0.06449 0.99589,-0.19346c0.18628,-0.12896 0.28898,-0.3654 0.30808,-0.70931v-0.02866h-6.43389l0.35823,-3.20978h-1.11769v-0.9744h1.218l0.31524,-2.85155c-0.28659,0.363 -0.50631,0.63049 -0.65915,0.80245l-0.7308,-0.77379c0.52541,-0.58273 1.02455,-1.24666 1.49742,-1.99178c0.47287,-0.74513 0.85737,-1.46637 1.15351,-2.16374l0.96006,0.32958c-0.1624,0.37257 -0.34868,0.75946 -0.55884,1.16068h6.27627v0.9744h-6.82079c-0.30569,0.5063 -0.58274,0.92663 -0.83111,1.26098h6.66316l-0.11463,3.25277zM206.61591,271.93086h5.37351l0.02867,-0.53018c0.03822,-0.6496 0.06209,-1.21322 0.07165,-1.69086h-5.2159zM212.23303,266.45703h-4.98663l-0.25793,2.27837h5.14425c0.06688,-1.30875 0.1003,-2.06821 0.1003,-2.27837zM203.11954,274.98301l-1.03172,-0.31524l1.38995,-4.92931l0.9744,0.30092c-0.07643,0.26748 -0.48719,1.78162 -1.23233,4.54241zM204.82474,267.47442l-0.61616,0.90275c-1.16546,-1.01262 -1.93924,-1.66221 -2.32136,-1.94879l0.61616,-0.8311zM205.22596,264.0497l-0.58751,0.84544c-0.69736,-0.57317 -1.46637,-1.17979 -2.30703,-1.81983l0.61616,-0.81678c0.53497,0.40122 1.29442,0.99828 2.27837,1.79118zM210.64247,271.15707l-0.60184,0.74513c-0.21016,-0.19106 -0.49914,-0.42988 -0.86692,-0.71647c-0.36779,-0.28659 -0.69498,-0.53497 -0.98157,-0.74513l0.54452,-0.71647c0.65915,0.47764 1.29442,0.95529 1.90581,1.43294zM208.45008,267.21649l0.54452,-0.7308c0.84066,0.61139 1.45204,1.07948 1.83416,1.40428l-0.57317,0.77379c-0.51586,-0.43943 -1.11769,-0.92186 -1.8055,-1.44727z" fill="#ffffff" fill-rule="evenodd" stroke="#ffffff" stroke-width="0.5" stroke-linecap="round" stroke-linejoin="miter"/><path d="M224.87155,263.27591h3.09515v2.0491h0.8311v0.91708h-0.8311v2.0491h-3.09515v6.50554h-1.01739v-6.50554h-3.10948v-0.88843h3.10948v-1.16067h-3.58235v-0.91708h3.58235v-1.175h-2.92319v-0.87409h2.92319v-1.31831h1.01739zM216.7038,263.34755h3.22411v8.94154h-2.24971v1.30397h-0.9744zM217.6782,271.2717h1.27532v-6.9211h-1.27532zM220.87365,269.52352v-0.71647h0.94574v0.80245c0,0.87887 -0.05015,1.62638 -0.15046,2.24255c-0.1003,0.61616 -0.28181,1.18696 -0.54452,1.71237c-0.26271,0.52541 -0.63766,1.0556 -1.12485,1.59056l-0.71647,-0.70213c0.42988,-0.4681 0.75707,-0.91469 0.98156,-1.33979c0.22449,-0.42511 0.38212,-0.91231 0.47287,-1.4616c0.09075,-0.5493 0.13613,-1.2586 0.13613,-2.12792zM228.05267,268.82138v6.16163h-0.9744v-6.16163zM222.66482,273.57873l-0.8311,-0.20061c0.19106,-0.56362 0.35585,-1.20128 0.49437,-1.91297c0.13852,-0.71169 0.24122,-1.41622 0.30808,-2.11358l0.77378,0.07165c-0.06688,0.73558 -0.16479,1.47115 -0.29375,2.20672c-0.12896,0.73558 -0.27943,1.38517 -0.45138,1.94879zM226.92065,273.2205l-0.81678,0.22926l-0.88842,-4.02656l0.80245,-0.20061zM227.04962,265.32501v-1.175h-2.17807v1.175zM224.87155,266.24209v1.16067h2.17807v-1.16067z" fill="#ffffff" fill-rule="evenodd" stroke="#ffffff" stroke-width="0.5" stroke-linecap="round" stroke-linejoin="miter"/><path d="M231.82295,263.91099l0.51585,0.18628v-0.47287h-1.89148v-0.68781h1.89148v-0.75946h0.88843v0.75946h1.64787v-0.75946h0.91708v0.75946h1.79117v0.68781h-1.79117v0.55885h-0.91708v-0.55885h-1.64787v0.57318h-0.71647c-0.0191,0.02866 -0.08597,0.13851 -0.20061,0.32957h4.58541c-0.00955,0.33435 -0.0215,0.75708 -0.03583,1.26816c-0.01433,0.51108 -0.03105,0.90992 -0.05015,1.19651c-0.03822,0.42988 -0.16957,0.7308 -0.39406,0.90275c-0.22449,0.17195 -0.60422,0.25793 -1.13919,0.25793h-0.31525l-0.14329,-0.67348h0.28659c0.3248,0 0.54213,-0.04299 0.65198,-0.12897c0.10986,-0.08597 0.17434,-0.2627 0.19345,-0.53018c0.00955,-0.1815 0.02389,-0.43704 0.04299,-0.76662c0.0191,-0.32958 0.03344,-0.61378 0.04299,-0.8526h-4.19851c-0.09553,0.12419 -0.24838,0.30092 -0.45855,0.53019h3.2671v1.86281h-3.35308v-1.77684c-0.21972,0.21972 -0.45377,0.42511 -0.70213,0.61616l-0.37257,-0.70213c0.65915,-0.53497 1.19412,-1.14158 1.60489,-1.81983zM237.51171,265.65918l-0.4872,-0.68781c0.41078,-0.44899 0.75707,-0.90275 1.03888,-1.36129c0.28181,-0.45854 0.54691,-0.95529 0.79529,-1.49026l0.85976,0.21495c-0.13374,0.31525 -0.28659,0.63527 -0.45854,0.96007h3.62534v0.77378h-0.85976c-0.31525,0.95529 -0.75469,1.71475 -1.31831,2.27837c0.55407,0.30569 1.31831,0.59706 2.2927,0.87409l-0.41556,0.87409c-1.06037,-0.33435 -1.92969,-0.71648 -2.60795,-1.14635c-0.61139,0.40122 -1.38995,0.76424 -2.33569,1.08903l-0.44421,-0.84544c0.85977,-0.24838 1.5428,-0.51586 2.0491,-0.80245c-0.44899,-0.41078 -0.81678,-0.8932 -1.10336,-1.44727c-0.26748,0.3248 -0.47764,0.56363 -0.63049,0.71648zM236.03578,268.15249l0.9744,-0.30092l0.18628,0.32958c0.04776,0.08597 0.10269,0.18389 0.16479,0.29375c0.06209,0.10986 0.1218,0.22688 0.17911,0.35107h5.43084v0.7308h-12.76748v-0.7308h6.20462zM232.74002,274.71536v0.5875h-0.96006v-2.73691h9.62935v2.72259h-0.94574v-0.57317zM231.92325,270.76044v-0.64482h9.32844v0.64482zM241.25168,271.33362v0.64482h-9.32844v-0.64482zM232.74002,274.0562h7.72353v-0.83111h-7.72353zM241.10838,264.06862h-2.32136l-0.1003,0.15762c0.30569,0.66871 0.7308,1.218 1.27532,1.64787c0.26748,-0.22926 0.48959,-0.48958 0.66632,-0.78095c0.17673,-0.29137 0.33674,-0.63288 0.48003,-1.02455zM233.88638,267.06346v-0.78812h-1.83416v0.78812z" fill="#ffffff" fill-rule="evenodd" stroke="#ffffff" stroke-width="0.5" stroke-linecap="round" stroke-linejoin="miter"/><path d="M257.00132,274.2506l-0.55885,0.94574c-1.14636,-0.65915 -2.07776,-1.35652 -2.79423,-2.09209c-0.72602,0.70692 -1.59056,1.37562 -2.59362,2.00612l-0.60184,-0.85977v1.10336h-1.03171v-12.39491h6.69182c0,0.27703 -0.00955,0.65438 -0.02866,1.13202c-0.0191,0.47764 -0.03344,0.86932 -0.04299,1.175c-0.02866,0.38212 -0.09791,0.67109 -0.20777,0.86692c-0.10986,0.19584 -0.28659,0.33196 -0.53019,0.40839c-0.2436,0.07643 -0.59945,0.11464 -1.06754,0.11464h-2.23539l-0.17195,-0.9744h1.99178c0.44899,0 0.75229,-0.04538 0.90991,-0.13613c0.15762,-0.09075 0.25077,-0.27464 0.27943,-0.55168c0.03821,-0.49676 0.05732,-0.83589 0.05732,-1.01739h-4.61406v3.68265h5.83206v1.00305c-0.35345,1.3374 -0.99828,2.56497 -1.93447,3.68266c0.35345,0.34391 0.74035,0.66393 1.16068,0.96007c0.42033,0.29614 0.91708,0.61138 1.49025,0.94574zM246.28294,262.28556h1.00306v2.65094h1.57623v1.01739h-1.57623v2.55063l1.46159,-0.50153l0.04299,0.54452l0.04298,0.4872l-1.54757,0.51586v3.96924c0,0.42033 -0.04776,0.74035 -0.14329,0.96007c-0.09553,0.21972 -0.26032,0.37496 -0.49437,0.46571c-0.23405,0.09075 -0.57556,0.13612 -1.02455,0.13612h-0.90275l-0.20061,-1.03171h0.78811c0.39167,0 0.65198,-0.05493 0.78095,-0.16479c0.12896,-0.10986 0.19346,-0.33196 0.19346,-0.66632v-3.33875l-1.26099,0.40122c-0.21972,0.07643 -0.39644,0.13374 -0.53018,0.17195l-0.20061,-1.00305c0.47764,-0.13374 1.14158,-0.33913 1.99178,-0.61616v-2.8802h-1.66222v-1.01739h1.66222zM250.45279,268.67647v5.48816c0.9935,-0.58273 1.83416,-1.19412 2.52197,-1.83417c-0.74513,-0.9744 -1.33741,-2.1924 -1.77684,-3.65399zM255.22447,268.67647h-3.00917c0.37257,1.1368 0.85977,2.10641 1.4616,2.90886c0.71647,-0.8311 1.23232,-1.80072 1.54757,-2.90886z" fill="#ffffff" fill-rule="evenodd" stroke="#ffffff" stroke-width="0.5" stroke-linecap="round" stroke-linejoin="miter"/><path d="M213.39218,292.41303v0.9733h-1.47425l-0.08588,2.21854h1.28818v0.9876h-1.31681l-0.01432,0.25764c-0.02863,0.43894 -0.10735,0.77768 -0.23616,1.01623c-0.12882,0.23855 -0.3292,0.40793 -0.60115,0.50812c-0.27195,0.10019 -0.65124,0.15029 -1.13789,0.15029h-2.13266l-0.2147,-1.00191h2.00385c0.4771,0 0.80869,-0.06441 0.99476,-0.19324c0.18607,-0.12881 0.28865,-0.36497 0.30774,-0.70849v-0.02863h-6.42659l0.35782,-3.20614h-1.11642v-0.9733h1.21662l0.31488,-2.84831c-0.28626,0.3626 -0.50573,0.62977 -0.6584,0.80153l-0.72997,-0.7729c0.52482,-0.58207 1.02339,-1.24525 1.49573,-1.98953c0.47233,-0.74428 0.8564,-1.46472 1.15221,-2.16127l0.95898,0.32921c-0.16221,0.37214 -0.34829,0.75861 -0.55821,1.15937h6.26916v0.97329h-6.81305c-0.30535,0.50573 -0.58207,0.92558 -0.83016,1.25956h6.65561l-0.11451,3.24908zM205.44839,295.60486h5.36743l0.02863,-0.52958c0.03816,-0.64887 0.06202,-1.21185 0.07156,-1.68895h-5.20997zM211.05914,290.13724h-4.98098l-0.25763,2.2758h5.13842c0.0668,-1.30726 0.10019,-2.06587 0.10019,-2.27578zM201.95599,298.65356l-1.03055,-0.31489l1.38837,-4.92372l0.97329,0.30058c-0.07634,0.26718 -0.48665,1.7796 -1.23093,4.53726zM203.65925,291.15348l-0.61547,0.90172c-1.16414,-1.01146 -1.93705,-1.66033 -2.31873,-1.94658l0.61546,-0.83016zM204.06002,287.73264l-0.58683,0.84447c-0.69657,-0.57252 -1.46472,-1.17845 -2.30442,-1.81777l0.61547,-0.81585c0.53436,0.40077 1.29296,0.99714 2.27579,1.78914zM209.47038,294.83194l-0.60116,0.74428c-0.20992,-0.19085 -0.49857,-0.4294 -0.86594,-0.71565c-0.36737,-0.28627 -0.69419,-0.53436 -0.98045,-0.74429l0.5439,-0.71565c0.6584,0.4771 1.29295,0.95421 1.90364,1.43131zM207.28047,290.89584l0.54389,-0.72998c0.83971,0.6107 1.4504,1.07825 1.83209,1.40269l-0.57253,0.77292c-0.51528,-0.43894 -1.11642,-0.92082 -1.80345,-1.44563z" fill="#ffffff" fill-rule="evenodd" stroke="#ffffff" stroke-width="0.5" stroke-linecap="round" stroke-linejoin="miter"/><path d="M223.68333,287.0807h3.09163v2.04678h0.83016v0.91603h-0.83016v2.04678h-3.09163v6.49816h-1.01623v-6.49816h-3.10595v-0.88742h3.10595v-1.15936h-3.57829v-0.91603h3.57829v-1.17369h-2.91988v-0.87309h2.91988v-1.31681h1.01623zM215.52483,287.15227h3.22046v8.93139h-2.24717v1.3025h-0.97329zM216.49813,295.06742h1.27387v-6.91324h-1.27387zM219.68996,293.32122v-0.71566h0.94467v0.80154c0,0.87788 -0.05009,1.62454 -0.15029,2.24001c-0.1002,0.61547 -0.28149,1.18561 -0.5439,1.71042c-0.26241,0.52482 -0.63693,1.0544 -1.12358,1.58876l-0.71566,-0.70134c0.4294,-0.46756 0.75621,-0.91366 0.98045,-1.33828c0.22423,-0.42462 0.38169,-0.91126 0.47234,-1.45993c0.09065,-0.54867 0.13597,-1.25717 0.13597,-2.1255zM226.86084,292.61989v6.15465h-0.9733v-6.15465zM221.4791,297.37184l-0.83016,-0.20038c0.19084,-0.56298 0.35543,-1.19991 0.4938,-1.9108c0.13835,-0.71089 0.24094,-1.41462 0.30774,-2.1112l0.77291,0.07157c-0.0668,0.73474 -0.1646,1.46949 -0.29342,2.20423c-0.12882,0.73474 -0.27911,1.3836 -0.45087,1.94658zM225.7301,297.01401l-0.81585,0.229l-0.88742,-4.02198l0.80154,-0.20038zM225.85892,289.12748v-1.17369h-2.1756v1.17369zM223.68333,290.04352v1.15936h2.1756v-1.15936z" fill="#ffffff" fill-rule="evenodd" stroke="#ffffff" stroke-width="0.5" stroke-linecap="round" stroke-linejoin="miter"/><path d="M241.17398,293.52161h-3.29202v3.57829h4.10787v1.04486h-9.51824v-1.04486h4.30826v-3.57829h-3.40653v-1.08779h3.40653v-3.14889h-3.56397v-1.07349h8.43044v1.07349h-3.76436v3.14889h3.29202zM231.54124,293.43573l0.52958,0.2147l0.50096,0.18608c-0.20039,0.57252 -0.82062,2.22331 -1.86071,4.95234l-1.05917,-0.38646c0.14314,-0.28627 0.47473,-1.11166 0.99477,-2.47617c0.52004,-1.36452 0.81824,-2.19468 0.89458,-2.49048zM232.47159,291.46052l-0.62977,0.95898c-1.22139,-0.9733 -2.1088,-1.65554 -2.66224,-2.04677l0.60115,-0.88742c0.61069,0.43894 1.35976,0.98761 2.24717,1.64602zM232.87236,287.83929l-0.58684,0.93036l-1.04486,-0.77291c-0.38169,-0.27672 -0.80631,-0.59162 -1.27387,-0.94467l0.58683,-0.90173c0.73474,0.51527 1.50766,1.07825 2.31873,1.68895zM237.20924,288.21144l-1.0878,-2.18991l1.00191,-0.45802l1.13074,2.16128z" fill="#ffffff" fill-rule="evenodd" stroke="#ffffff" stroke-width="0.5" stroke-linecap="round" stroke-linejoin="miter"/><path d="M252.43842,289.0416h3.79298v0.81585h-12.50969v-0.81585h3.64985c-0.08588,-0.49619 -0.18607,-0.94944 -0.30058,-1.35974h-2.6193v-0.80154h5.09547c-0.16221,-0.43894 -0.30057,-0.77768 -0.41508,-1.01623l1.188,-0.20038c0.13359,0.30534 0.28626,0.71088 0.45801,1.21661h4.72334v0.80154h-2.67656c-0.08588,0.35305 -0.2147,0.8063 -0.38645,1.35974zM245.36773,294.78117v-4.06494h9.17472v4.06494zM252.19509,296.9997l0.04294,-0.93035l0.01431,-0.28627l1.01623,0.27195l-0.05725,0.68702l-0.05725,0.57253c-0.04771,0.45802 -0.19324,0.77052 -0.43656,0.93751c-0.24332,0.16699 -0.66078,0.25047 -1.25239,0.25047h-2.94851c-0.56298,0 -0.95659,-0.10258 -1.18084,-0.30773c-0.22423,-0.20515 -0.33636,-0.57968 -0.33636,-1.12358v-1.76052h1.07349v1.61739c0,0.27672 0.05964,0.47233 0.17892,0.58684c0.11928,0.11451 0.33636,0.17176 0.65124,0.17176h2.31873c0.38169,0 0.63692,-0.04771 0.76574,-0.14313c0.12882,-0.09542 0.198,-0.27672 0.20755,-0.5439zM253.49759,293.12084h-7.085v0.88741h7.085zM246.41258,292.36225h7.085v-0.85879h-7.085zM251.78001,287.68185h-3.66416l0.28627,1.35974h3.00575c0.11451,-0.3626 0.23855,-0.81585 0.37214,-1.35974zM244.50894,298.37376l-0.84448,-0.60115c0.28626,-0.35305 0.58445,-0.7753 0.89457,-1.26672c0.31012,-0.49142 0.57014,-0.95183 0.78007,-1.38122l0.95898,0.44371c-0.21947,0.44847 -0.49619,0.93751 -0.83016,1.46709c-0.33397,0.52958 -0.65363,0.97568 -0.95898,1.33828zM253.75522,295.72583l0.85878,-0.51527c0.4294,0.58207 1.00669,1.42654 1.73189,2.53342l-0.85879,0.58683c-0.57253,-0.91604 -1.14982,-1.78438 -1.73189,-2.60498zM249.28952,295.4682l0.67271,-0.6441c0.44849,0.4294 0.90651,0.88742 1.37407,1.37406l-0.71565,0.68703c-0.4771,-0.55344 -0.92082,-1.02576 -1.33112,-1.41699z" fill="#ffffff" fill-rule="evenodd" stroke="#ffffff" stroke-width="0.5" stroke-linecap="round" stroke-linejoin="miter"/><path d="M270.57316,297.78692l-0.55821,0.94468c-1.14506,-0.6584 -2.0754,-1.35498 -2.79106,-2.08972c-0.7252,0.70612 -1.58876,1.37407 -2.59068,2.00385l-0.60115,-0.85879v1.1021h-1.03055v-12.38086h6.68423c0,0.27672 -0.00954,0.65363 -0.02863,1.13073c-0.01909,0.4771 -0.03339,0.86833 -0.04294,1.17368c-0.02863,0.38169 -0.09781,0.67033 -0.20754,0.86595c-0.10973,0.19561 -0.28627,0.33159 -0.52958,0.40793c-0.24332,0.07634 -0.59877,0.1145 -1.06633,0.1145h-2.23284l-0.17176,-0.97329h1.98953c0.44849,0 0.75143,-0.04533 0.90888,-0.13598c0.15744,-0.09065 0.25049,-0.27434 0.27912,-0.55106c0.03817,-0.49619 0.05724,-0.83494 0.05724,-1.01623h-4.60883v3.67847h5.82545v1.00192c-0.35305,1.33589 -0.99714,2.56205 -1.93228,3.67847c0.35305,0.34352 0.73951,0.66317 1.15936,0.95898c0.41985,0.29581 0.91604,0.61069 1.48857,0.94466zM259.86693,285.83546h1.00192v2.64792h1.57445v1.01624h-1.57445v2.54773l1.45995,-0.50096l0.04293,0.5439l0.04294,0.48665l-1.54582,0.51527v3.96474c0,0.41985 -0.04771,0.73952 -0.14313,0.95899c-0.09542,0.21947 -0.26002,0.37452 -0.4938,0.46517c-0.23379,0.09065 -0.57492,0.13598 -1.02339,0.13598h-0.90172l-0.20039,-1.03055h0.78722c0.39123,0 0.65125,-0.05487 0.78007,-0.1646c0.12882,-0.10973 0.19322,-0.33159 0.19322,-0.66556v-3.33496l-1.25956,0.40077c-0.21947,0.07634 -0.39599,0.13359 -0.52958,0.17176l-0.20039,-1.00191c0.47711,-0.13359 1.14028,-0.33874 1.98953,-0.61547v-2.87694h-1.66032v-1.01624h1.66032zM264.03206,292.21912v5.48193c0.99238,-0.58207 1.83208,-1.19276 2.51911,-1.83209c-0.74428,-0.9733 -1.3359,-2.1899 -1.77484,-3.64984zM268.79833,292.21912h-3.00575c0.37214,1.13551 0.85879,2.10402 1.45994,2.90556c0.71566,-0.83016 1.23092,-1.79868 1.54581,-2.90556z" fill="#ffffff" fill-rule="evenodd" stroke="#ffffff" stroke-width="0.5" stroke-linecap="round" stroke-linejoin="miter"/></g></g></svg>