<svg version="1.1" xmlns="http://www.w3.org/2000/svg" xmlns:xlink="http://www.w3.org/1999/xlink" width="23.27158" height="12.68515" viewBox="0,0,23.27158,12.68515"><g transform="translate(-245.08673,-173.815)"><g fill="#ffffff" stroke="#ffffff" stroke-width="0.5" stroke-linecap="round" stroke-miterlimit="10"><path d="M255.09126,182.38776l0.84762,0.21137c0,0.26422 -0.01592,0.68696 -0.04775,1.26823l-0.01194,0.43596c-0.02388,0.36109 -0.08755,0.64072 -0.19101,0.83889c-0.10347,0.19817 -0.2706,0.33907 -0.50142,0.42275c-0.23081,0.08367 -0.55712,0.1255 -0.97895,0.1255h-3.03235c-0.39795,0 -0.71034,-0.04623 -0.93716,-0.13871c-0.22683,-0.09248 -0.39198,-0.25541 -0.49544,-0.4888c-0.10347,-0.23339 -0.1552,-0.57027 -0.1552,-1.01063v-4.5445l-1.00282,0.38311l-0.22683,-0.93796l1.22965,-0.46237v-3.26306h0.84762v2.946l1.48036,-0.56806v-3.54048h0.83568v3.23663l2.54287,-0.96438l-0.13133,4.71624c-0.02388,0.36109 -0.07163,0.63411 -0.14326,0.81907c-0.07163,0.18495 -0.19499,0.31706 -0.37009,0.39632c-0.1751,0.07926 -0.42978,0.1189 -0.76406,0.1189h-0.64467l-0.16714,-0.9776h0.42978c0.23081,0 0.40192,-0.01982 0.51335,-0.05945c0.11143,-0.03964 0.18902,-0.11229 0.2328,-0.21797c0.04377,-0.10569 0.06964,-0.27302 0.0776,-0.50201l0.10745,-2.95921l-1.68331,0.63411v5.23146h-0.83568v-4.9144l-1.48036,0.56806v4.46523c0,0.31706 0.0199,0.55045 0.05969,0.70017c0.03979,0.14973 0.12138,0.25541 0.24473,0.31706c0.12337,0.06165 0.31637,0.09248 0.57901,0.09248h2.55481c0.33428,0 0.57901,-0.02201 0.73421,-0.06605c0.1552,-0.04404 0.26463,-0.1321 0.32831,-0.26422c0.06367,-0.1321 0.10347,-0.34348 0.11939,-0.63411zM247.6656,178.46417v4.57092l1.37291,-0.4888l0.07163,0.4888l0.04775,0.42275l-3.5457,1.28144l-0.22683,-0.88512l1.4326,-0.51522v-4.87477h-1.25353v-0.96438h1.25353v-3.17058h0.84762v3.17058h1.01476v0.96438z"/><path d="M262.09908,183.03509h-0.97895v2.03446l1.82657,-0.50201l0.02388,0.75302l-2.81746,0.84549l-0.26264,-0.70017c0.1751,-0.07926 0.28652,-0.14532 0.33428,-0.19817c0.04775,-0.05284 0.07163,-0.1233 0.07163,-0.21137v-2.02124h-1.11027c-0.06367,0.59889 -0.18703,1.14273 -0.37009,1.63153c-0.18306,0.4888 -0.44172,0.9798 -0.77599,1.473l-0.75212,-0.58127c0.43774,-0.62531 0.7362,-1.2242 0.89538,-1.79666c0.15918,-0.57246 0.23876,-1.33429 0.23876,-2.28546v-1.90235h9.01347v0.66054h-8.17779v1.45318c0,0.29944 -0.00398,0.51962 -0.01194,0.66054h8.42849v0.68696h-4.65596c0.4457,0.51962 0.95109,0.92916 1.51617,1.2286c1.01874,-0.51081 1.73106,-0.88952 2.13697,-1.13612l0.35815,0.68696c-0.29448,0.15853 -0.8317,0.43155 -1.61168,0.81907c0.70835,0.22018 1.5679,0.38311 2.57869,0.4888l-0.34621,0.81907c-0.94711,-0.1321 -1.75494,-0.31706 -2.42349,-0.55485c-0.66855,-0.23779 -1.25154,-0.54384 -1.74897,-0.91815c-0.49743,-0.37431 -0.95706,-0.8521 -1.37888,-1.43336zM262.26622,179.16433v-2.47041h-3.53376v1.70419h-0.84762v-2.36473h4.38138v-0.71338h-3.96354v-0.7398h8.82245v0.7398h-4.02323v0.71338h4.42913v2.36473h-0.83568v-1.70419h-3.59345v2.47041zM259.75916,180.97421h7.1272v0.64733h-7.1272zM259.40101,177.89611v-0.59449h2.24442v0.59449zM263.77046,177.89611v-0.59449h2.23248v0.59449zM261.64543,178.39812v0.58127h-2.24442v-0.58127zM263.78239,178.97939v-0.58127h2.23248v0.58127z"/></g></g></svg>