<svg version="1.1" xmlns="http://www.w3.org/2000/svg" xmlns:xlink="http://www.w3.org/1999/xlink" width="208" height="32" viewBox="0,0,208,32"><g transform="translate(-240,-164)"><g stroke-miterlimit="10"><path d="M240,196v-32h208v32z" fill="none" fill-rule="nonzero" stroke="none" stroke-width="0" stroke-linecap="butt"/><path d="M298.76051,183.91244h-10.06156c-1.02573,1.22529 -2.28089,2.49433 -3.76549,3.80714l9.08982,-0.37196l-2.2269,-2.27553l0.99198,-1.07213c0.58034,0.56888 1.13707,1.12318 1.67018,1.66289c0.53311,0.53971 1.00211,1.01378 1.407,1.42221c1.45761,1.48785 2.0582,2.0932 1.80177,1.81605l-1.05272,1.24717c-0.22944,-0.26256 -0.64783,-0.72204 -1.25516,-1.37845l-12.51115,0.59076l-0.38465,-1.55349c1.59257,-1.22529 2.98945,-2.52351 4.19063,-3.89466h-5.8102v-1.48785h2.67229v-11.37767h12.51115v11.37767h2.73302zM258.29159,188.37598l-0.97174,1.64101c-4.02192,-2.53809 -6.66047,-5.65237 -7.91563,-9.34281c-0.62083,1.8671 -1.61619,3.57375 -2.98608,5.11995c-1.36988,1.5462 -3.03331,2.9757 -4.99029,4.2885l-0.99198,-1.66289c2.32138,-1.40033 4.194,-3.03769 5.61787,-4.91209c1.42387,-1.8744 2.22353,-3.97854 2.39898,-6.31242h-7.69294v-1.68477h7.71319v-5.38251h1.61957v5.38251h7.77392v1.68477h-7.79416c-0.0135,0.07293 -0.02024,0.18233 -0.02024,0.3282c0.44538,2.34847 1.32602,4.39061 2.64192,6.12644c1.3159,1.73582 3.18177,3.31119 5.59763,4.72611zM338.84479,173.10365l-1.6803,5.57943c0.71531,1.00649 1.21468,1.89992 1.4981,2.68032c0.28342,0.78039 0.42514,1.60819 0.42514,2.48339c0,1.23987 -0.24294,2.12237 -0.72881,2.6475c-0.48587,0.52512 -1.3024,0.78768 -2.44959,0.78768h-1.15394l-0.30367,-1.55349h1.05272c0.79629,0 1.35301,-0.15681 1.67018,-0.47042c0.31716,-0.31362 0.47575,-0.87156 0.47575,-1.67383c0,-0.70016 -0.15858,-1.41491 -0.47575,-2.14425c-0.31716,-0.72934 -0.81991,-1.5389 -1.50822,-2.42869l1.63981,-5.92951h-3.40109v17.08838h-1.43737v-18.70751h6.37704zM266.18697,180.3241h-2.97595v-1.55349h11.82284c-0.05399,1.10859 -0.13834,2.48704 -0.25306,4.13534c-0.11472,1.6483 -0.21257,2.87359 -0.29355,3.67586c-0.06748,0.75851 -0.21932,1.34563 -0.4555,1.76135c-0.23619,0.41572 -0.58709,0.7111 -1.05272,0.88615c-0.46563,0.17504 -1.09658,0.26256 -1.89287,0.26256h-2.67229l-0.28342,-1.59725h2.49008c0.59384,0 1.04597,-0.0547 1.35639,-0.1641c0.31042,-0.1094 0.53648,-0.30632 0.67819,-0.59076c0.14171,-0.28444 0.23956,-0.70381 0.29355,-1.25811c0.06748,-0.84603 0.14171,-1.80876 0.22269,-2.88818c0.08098,-1.07942 0.14171,-1.96921 0.1822,-2.66938h-5.66848c-0.02699,0.23339 -0.05399,0.6564 -0.08098,1.26905c-0.06748,1.34198 -0.26993,2.48339 -0.60734,3.42424c-0.33741,0.94085 -0.89751,1.82699 -1.6803,2.65844c-0.78279,0.83144 -1.89624,1.69936 -3.34036,2.60373l-1.11345,-1.50973c1.32265,-0.71475 2.34162,-1.41127 3.05693,-2.08955c0.71531,-0.67828 1.2248,-1.40762 1.52847,-2.18801c0.30367,-0.78039 0.51624,-1.75406 0.6377,-2.921zM309.22696,170.06232h1.55883v4.2885h6.94389v9.01461h-6.94389v6.73908h-1.55883v-6.73908h-6.88316v-9.01461h6.88316zM330.88866,174.13202h-1.51834c-0.16196,1.35657 -0.37115,2.63291 -0.62758,3.82902h2.73302v1.57537h-10.14254v-1.57537h2.59131c-0.25643,-1.66289 -0.49262,-2.93923 -0.70856,-3.82902h-1.37663v-1.55349h3.94769c-0.17545,-0.7731 -0.3779,-1.48785 -0.60734,-2.14425l1.4981,-0.39384c0.26993,0.87521 0.49937,1.72124 0.68832,2.53809h3.52256zM323.92453,188.31034v1.46597h-1.41712v-8.24881h7.73343v6.78284zM270.62054,170.49992l1.41712,-0.59076c0.67482,1.9838 1.51497,3.62481 2.52045,4.92303c1.00548,1.29822 2.345,2.48704 4.01855,3.56646l-0.85027,1.59725c-1.80852,-1.25446 -3.256,-2.59644 -4.34246,-4.02594c-1.08646,-1.4295 -2.00759,-3.25285 -2.76339,-5.47003zM266.85505,170.25924l1.41712,0.63452c-0.7558,1.88169 -1.68705,3.55917 -2.79375,5.03243c-1.1067,1.47326 -2.44285,2.82983 -4.00843,4.0697l-0.87052,-1.44409c1.34964,-1.00649 2.55757,-2.22083 3.62378,-3.64304c1.06621,-1.42221 1.94348,-2.97205 2.6318,-4.64953zM294.56988,182.42459v-2.40681h-9.57569v2.40681zM284.99419,176.27627v2.31929h9.57569v-2.31929zM284.99419,174.89782h9.57569v-2.29741h-9.57569zM316.15061,176.05747h-5.36481v5.62319h5.36481zM309.22696,176.05747h-5.30408v5.62319h5.30408zM323.92453,186.82249h4.89919v-3.7415h-4.89919zM327.99369,174.13202h-3.34036c0.35091,1.80876 0.58709,3.0851 0.70856,3.82902h2.00421c0.24294,-1.13777 0.45213,-2.41411 0.62758,-3.82902z" fill="#ffffff" fill-rule="evenodd" stroke="#ffffff" stroke-width="0.5" stroke-linecap="round"/></g></g></svg>