<svg version="1.1" xmlns="http://www.w3.org/2000/svg" xmlns:xlink="http://www.w3.org/1999/xlink" width="179.72791" height="26.01331" viewBox="0,0,179.72791,26.01331"><g transform="translate(-240,-180)"><g stroke="none" stroke-miterlimit="10"><path d="M248.55338,180h162.62115c4.73857,0 8.55338,2.83276 8.55338,6.35149v13.31034c0,3.51872 -3.81481,6.35149 -8.55338,6.35149h-162.62115c-4.73857,0 -8.55338,-2.83276 -8.55338,-6.35149v-13.31034c0,-3.51872 3.81481,-6.35149 8.55338,-6.35149z" fill-opacity="0.7" fill="#000000" fill-rule="evenodd" stroke-width="0"/><path d="M247.56786,192.5317h9.13156v1.14282h-9.13156v-1.14282M249.52383,190.39991h5.17565v1.08788h-5.17565v-1.08788M253.25997,194.34483l0.99997,-0.51647c0.32966,0.2857 0.65419,0.59485 0.97359,0.92744c0.31794,0.33405 0.60877,0.66738 0.8725,0.99997c0.26373,0.33405 0.47984,0.64027 0.64833,0.91865l-1.0659,0.63734c-0.14651,-0.27838 -0.35164,-0.59192 -0.61536,-0.94063c-0.26373,-0.34724 -0.55309,-0.69888 -0.8681,-1.05491c-0.31501,-0.35457 -0.63001,-0.67836 -0.94502,-0.9714M252.08419,187.0264l1.07689,0.49449c-0.63001,0.87176 -1.40801,1.65928 -2.33399,2.36256c-0.92744,0.70327 -1.94059,1.30032 -3.03946,1.79115c-0.05128,-0.10256 -0.12674,-0.21977 -0.22637,-0.35164c-0.09816,-0.13186 -0.20219,-0.26226 -0.31208,-0.3912c-0.10989,-0.12747 -0.20878,-0.22783 -0.29669,-0.30109c0.70327,-0.27838 1.38091,-0.60657 2.0329,-0.98458c0.65199,-0.37654 1.24318,-0.79045 1.77357,-1.24172c0.53185,-0.4498 0.97359,-0.90913 1.32523,-1.37798M252.32594,187.53187c0.24175,0.2564 0.54211,0.52745 0.90107,0.81316c0.35896,0.2857 0.75968,0.56408 1.20216,0.83514c0.44394,0.27105 0.90986,0.52379 1.39775,0.75822c0.48643,0.23442 0.97506,0.43222 1.46588,0.59339c-0.08791,0.07326 -0.18461,0.17216 -0.2901,0.29669c-0.10696,0.12454 -0.20805,0.25054 -0.30329,0.37801c-0.09524,0.12893 -0.17582,0.24834 -0.24175,0.35823c-0.47617,-0.1978 -0.95235,-0.43075 -1.42852,-0.69888c-0.47617,-0.26666 -0.93257,-0.55603 -1.36918,-0.8681c-0.43515,-0.31061 -0.8344,-0.62562 -1.19776,-0.94502c-0.36189,-0.31794 -0.66738,-0.6161 -0.91645,-0.89448l0.78019,-0.62635M248.33706,197.11396c-0.02198,-0.08791 -0.05494,-0.20512 -0.0989,-0.35164c-0.04395,-0.14651 -0.09157,-0.29889 -0.14285,-0.45713c-0.05128,-0.15677 -0.10256,-0.28644 -0.15384,-0.389c0.13919,-0.0293 0.27472,-0.09157 0.40658,-0.18681c0.13186,-0.09524 0.2857,-0.21977 0.46152,-0.37361c0.08791,-0.07326 0.21831,-0.19413 0.3912,-0.36263c0.17142,-0.16849 0.36189,-0.36995 0.57141,-0.60438c0.20805,-0.23442 0.41977,-0.48936 0.63514,-0.76481c0.21684,-0.27398 0.4205,-0.55383 0.61097,-0.83953l1.09886,0.74723c-0.41757,0.54211 -0.88275,1.07103 -1.39556,1.58676c-0.5128,0.5172 -1.02927,0.96993 -1.5494,1.3582v0.03297c0,0 -0.04176,0.01978 -0.12527,0.05934c-0.08498,0.04102 -0.18241,0.0923 -0.2923,0.15384c-0.10989,0.063 -0.20659,0.12893 -0.2901,0.1978c-0.08498,0.07033 -0.12747,0.13479 -0.12747,0.1934M248.33706,197.11396l-0.02198,-0.93403l0.78019,-0.42856l6.30748,-0.39559c0.02198,0.16849 0.05494,0.3553 0.0989,0.56042c0.04395,0.20512 0.08425,0.36995 0.12088,0.49449c-1.00363,0.07326 -1.86953,0.13919 -2.59771,0.1978c-0.72965,0.05861 -1.34721,0.10769 -1.85268,0.14725c-0.50548,0.04102 -0.92305,0.07619 -1.2527,0.10549c-0.32966,0.0293 -0.59339,0.05641 -0.79118,0.08132c-0.1978,0.02637 -0.3553,0.05201 -0.47251,0.07692c-0.11721,0.02637 -0.22344,0.05787 -0.31867,0.0945zM260.53445,190.20211v0.84613h5.06576v-0.84613h-5.06576M260.53445,188.48788v0.84613h5.06576v-0.84613h-5.06576M259.38064,187.57583h7.42832v4.39546h-7.42832v-4.39546M257.95212,195.69643h10.26339v1.12084h-10.26339v-1.12084M261.24871,192.3449h1.12084v3.9669h-1.12084v-3.9669M263.74313,192.3449h1.12084v3.9669h-1.12084v-3.9669M266.46831,192.58665l0.99997,0.45053c-0.21245,0.38094 -0.44834,0.76554 -0.70767,1.15381c-0.2608,0.38826 -0.50474,0.72159 -0.73184,0.99997l-0.90107,-0.41757c0.15384,-0.1978 0.31354,-0.42123 0.4791,-0.67031c0.1641,-0.24908 0.32526,-0.50548 0.4835,-0.7692c0.15677,-0.26373 0.28277,-0.5128 0.37801,-0.74723M258.78725,193.05916l0.91206,-0.39559c0.13186,0.2271 0.27105,0.47031 0.41757,0.72965c0.14651,0.2608 0.28351,0.51207 0.41098,0.75382c0.12893,0.24175 0.23003,0.4542 0.30329,0.63734l-0.95601,0.46152c-0.07326,-0.19047 -0.16996,-0.41244 -0.2901,-0.66591c-0.12161,-0.25201 -0.24981,-0.51207 -0.3846,-0.78019c-0.13626,-0.26666 -0.27398,-0.51354 -0.41317,-0.74063zM273.45709,191.10318h1.29666v4.80203c0,0.33699 -0.04542,0.59851 -0.13626,0.78459c-0.0923,0.18754 -0.25933,0.32893 -0.50108,0.42416c-0.24175,0.08791 -0.53844,0.14432 -0.89008,0.16923c-0.35164,0.02637 -0.7692,0.03956 -1.2527,0.03956c-0.0293,-0.18314 -0.08425,-0.39413 -0.16483,-0.63295c-0.08058,-0.23735 -0.16483,-0.44394 -0.25274,-0.61976c0.21977,0.00733 0.44174,0.01465 0.66591,0.02198c0.2227,0.00733 0.42196,0.00879 0.59778,0.0044c0.17582,-0.00293 0.29669,-0.0044 0.36263,-0.0044c0.10256,0 0.17435,-0.01465 0.21538,-0.04395c0.03956,-0.0293 0.05934,-0.08425 0.05934,-0.16483v-4.78006M270.86377,192.50973l1.23073,0.31867c-0.16117,0.43955 -0.35896,0.87323 -0.59339,1.30105c-0.23442,0.42929 -0.4835,0.83074 -0.74723,1.20435c-0.26373,0.37361 -0.53112,0.69961 -0.80217,0.97799c-0.08058,-0.07326 -0.18827,-0.15384 -0.32307,-0.24175c-0.13626,-0.08791 -0.27179,-0.17582 -0.40658,-0.26373c-0.13626,-0.08791 -0.25567,-0.15384 -0.35823,-0.1978c0.41024,-0.37361 0.79338,-0.8388 1.14941,-1.39556c0.35457,-0.55676 0.63807,-1.1245 0.85052,-1.70324M275.99546,192.93828l1.09886,-0.46152c0.2564,0.34431 0.50768,0.71426 0.75382,1.10985c0.24468,0.39559 0.46812,0.78532 0.67031,1.16919c0.20073,0.38534 0.35237,0.73551 0.45493,1.05051l-1.21974,0.52745c-0.08058,-0.30036 -0.21391,-0.64686 -0.39999,-1.03953c-0.18754,-0.3912 -0.39999,-0.79411 -0.63734,-1.20875c-0.23882,-0.41317 -0.4791,-0.79558 -0.72085,-1.14721M270.18247,187.7956h7.77996v1.17578h-7.77996v-1.17578M269.19349,190.45485h9.77989v1.17578h-9.77989zM280.65464,187.77362l0.85711,-0.63734c0.17582,0.19047 0.35896,0.40072 0.54943,0.63075c0.19047,0.23149 0.36995,0.45859 0.53844,0.6813c0.16849,0.22417 0.30036,0.42416 0.39559,0.59998l-0.91206,0.72525c-0.09524,-0.18314 -0.22344,-0.39046 -0.3846,-0.62196c-0.16117,-0.23003 -0.33332,-0.46812 -0.51647,-0.71426c-0.18314,-0.24468 -0.35896,-0.46592 -0.52745,-0.66371M281.69856,197.23484l-0.24175,-1.09886l0.27472,-0.39559l1.96697,-1.38457c0.03663,0.16117 0.08791,0.34211 0.15384,0.54284c0.06593,0.20219 0.12454,0.36189 0.17582,0.4791c-0.4542,0.34431 -0.82415,0.62269 -1.10985,0.83514c-0.2857,0.21245 -0.50914,0.3846 -0.67031,0.51647c-0.16117,0.13186 -0.28204,0.23442 -0.36263,0.30768c-0.08058,0.07326 -0.14285,0.13919 -0.18681,0.1978M280.0173,190.43287h2.3186v1.13183h-2.3186v-1.13183M281.69856,197.23484c-0.03663,-0.08058 -0.09157,-0.17435 -0.16483,-0.28131c-0.07326,-0.10549 -0.15164,-0.20952 -0.23516,-0.31208c-0.08498,-0.10256 -0.16043,-0.18314 -0.22637,-0.24175c0.08058,-0.06593 0.16336,-0.15384 0.24834,-0.26373c0.08351,-0.10989 0.15677,-0.24175 0.21977,-0.39559c0.06154,-0.15384 0.0923,-0.326 0.0923,-0.51647v-4.79105h1.14282v5.46135c0,0 -0.03663,0.03297 -0.10989,0.0989c-0.07326,0.06593 -0.16263,0.15018 -0.26812,0.25274c-0.10696,0.10256 -0.21538,0.21391 -0.32526,0.33405c-0.10989,0.12161 -0.19926,0.24102 -0.26812,0.35823c-0.07033,0.11721 -0.10549,0.21611 -0.10549,0.29669M283.54465,188.31207h6.46132v1.07689h-6.46132v-1.07689M286.7863,195.12502l0.8681,-0.65932c0.2564,0.19047 0.53698,0.40438 0.84173,0.64174c0.30329,0.23882 0.59265,0.47544 0.8681,0.70987c0.27398,0.23442 0.50255,0.44321 0.68569,0.62635l-0.92305,0.74723c-0.16117,-0.18314 -0.37508,-0.39779 -0.64174,-0.64393c-0.26812,-0.24468 -0.55016,-0.49156 -0.84613,-0.74063c-0.29743,-0.24908 -0.58166,-0.47617 -0.85272,-0.6813M288.20384,190.04827l1.15381,0.39559c-0.36629,0.61536 -0.8095,1.20142 -1.32963,1.75818c-0.52013,0.55676 -1.10033,1.0637 -1.7406,1.52083c-0.64174,0.45859 -1.33622,0.84539 -2.08345,1.1604c-0.04395,-0.09524 -0.10622,-0.19999 -0.18681,-0.31428c-0.08058,-0.11282 -0.16263,-0.22637 -0.24615,-0.34065c-0.08498,-0.11282 -0.1641,-0.20585 -0.23735,-0.27911c0.69595,-0.27105 1.34794,-0.6117 1.95598,-1.02194c0.60804,-0.41024 1.14648,-0.86297 1.61533,-1.3582c0.46885,-0.49376 0.83514,-1.0007 1.09886,-1.52083M288.85217,192.20204l1.23073,0.46152c-0.44687,0.68862 -0.98678,1.32963 -1.61973,1.92301c-0.63441,0.59339 -1.34354,1.12597 -2.1274,1.59775c-0.78386,0.47324 -1.62998,0.86371 -2.53838,1.17139c-0.05128,-0.10256 -0.11941,-0.21611 -0.20439,-0.34065c-0.08351,-0.12454 -0.16923,-0.24761 -0.25713,-0.36922c-0.08791,-0.12014 -0.16849,-0.22051 -0.24175,-0.30109c0.85711,-0.26373 1.66148,-0.60804 2.4131,-1.03293c0.75016,-0.42489 1.41314,-0.90327 1.98894,-1.43512c0.57434,-0.53039 1.02634,-1.08861 1.356,-1.67467M284.0831,192.36687c-0.01465,-0.10256 -0.04395,-0.22344 -0.08791,-0.36263c-0.04395,-0.13919 -0.08937,-0.28058 -0.13626,-0.42416c-0.04835,-0.14212 -0.08718,-0.25713 -0.11648,-0.34504c0.13186,-0.03663 0.2879,-0.08278 0.46812,-0.13846c0.17875,-0.05421 0.3194,-0.1326 0.42196,-0.23516c0.07326,-0.07326 0.17216,-0.19267 0.29669,-0.35823c0.12454,-0.1641 0.2586,-0.3509 0.40218,-0.56042c0.14212,-0.20805 0.27911,-0.40951 0.41098,-0.60438c0.13186,-0.1934 0.23442,-0.35237 0.30768,-0.47691h1.32963c-0.12454,0.19047 -0.26519,0.40804 -0.42196,0.65273c-0.15824,0.24615 -0.32673,0.49888 -0.50548,0.75822c-0.18021,0.2608 -0.35237,0.50987 -0.51647,0.74723c-0.16556,0.23882 -0.31794,0.44614 -0.45713,0.62196c0,0 -0.04542,0.01465 -0.13626,0.04395c-0.0923,0.0293 -0.20805,0.06959 -0.34724,0.12088c-0.13919,0.05128 -0.27838,0.10769 -0.41757,0.16923c-0.13919,0.063 -0.2564,0.12747 -0.35164,0.1934c-0.09524,0.06593 -0.14285,0.13186 -0.14285,0.1978M284.0831,192.36687l-0.02198,-0.85711l0.59339,-0.34065l3.25264,-0.16483c-0.06593,0.14651 -0.12967,0.31647 -0.1912,0.50987c-0.063,0.19486 -0.10915,0.35457 -0.13846,0.4791c-0.68862,0.04395 -1.24684,0.08425 -1.67467,0.12088c-0.42929,0.03663 -0.76261,0.0674 -0.99997,0.0923c-0.23882,0.02637 -0.41684,0.05201 -0.53405,0.07692c-0.11721,0.02637 -0.21245,0.05421 -0.2857,0.08351M285.99512,187.27913l1.1648,-0.2857c0.13186,0.2271 0.2564,0.4813 0.37361,0.76261c0.11721,0.28277 0.1978,0.53039 0.24175,0.74283l-1.23073,0.31867c-0.0293,-0.20512 -0.0989,-0.45273 -0.20878,-0.74283c-0.10989,-0.28864 -0.22344,-0.55383 -0.34065,-0.79558zM298.4892,189.10325l1.10985,0.45053c-0.46885,0.77653 -1.01095,1.52009 -1.62632,2.23069c-0.61536,0.7106 -1.26882,1.36406 -1.96037,1.96037c-0.69302,0.59778 -1.39116,1.12011 -2.09443,1.56698c-0.06593,-0.08058 -0.15384,-0.17948 -0.26373,-0.29669c-0.10989,-0.11721 -0.22344,-0.23076 -0.34065,-0.34065c-0.11721,-0.10989 -0.22344,-0.1978 -0.31867,-0.26373c0.72525,-0.40292 1.42852,-0.87909 2.10982,-1.42852c0.6813,-0.54943 1.31131,-1.15381 1.89005,-1.81313c0.57874,-0.65932 1.07689,-1.34794 1.49445,-2.06586M293.43443,190.16915l0.82415,-0.70327c0.46885,0.36629 0.9692,0.76334 1.50105,1.19117c0.53039,0.42929 1.05784,0.86737 1.58236,1.31424c0.52306,0.44687 1.01169,0.88056 1.46588,1.30105c0.4542,0.42196 0.83514,0.8051 1.14282,1.14941l-0.92305,0.87909c-0.2857,-0.35164 -0.64833,-0.7421 -1.08788,-1.17139c-0.43955,-0.42782 -0.91572,-0.8747 -1.42852,-1.34061c-0.5128,-0.46445 -1.03293,-0.92011 -1.56039,-1.36699c-0.52745,-0.44687 -1.03293,-0.86444 -1.51643,-1.2527M300.77484,187.57583v1.13183h-8.10961v7.16459h8.40631v1.13183h-9.56011v-9.42825zM301.95062,189.70762h3.02188v1.10985h-3.02188v-1.10985M302.99454,187.20221h1.09886v7.37338h-1.09886v-7.37338M301.86271,194.77338c0.38826,-0.16117 0.85711,-0.37728 1.40655,-0.64833c0.54943,-0.27105 1.10253,-0.54943 1.65928,-0.83514l0.32966,1.04392c-0.49083,0.27838 -0.99411,0.56042 -1.50984,0.84613c-0.5172,0.2857 -0.99923,0.54577 -1.4461,0.78019l-0.43955,-1.18677M305.14832,188.60876h6.90086v1.0659h-6.90086v-1.0659M304.80767,195.01513c0.32233,-0.05861 0.69009,-0.13553 1.10326,-0.23076c0.41464,-0.09524 0.85638,-0.19633 1.32523,-0.30329c0.46885,-0.10549 0.9377,-0.21684 1.40655,-0.33405l0.10989,0.98898c-0.63734,0.17582 -1.27615,0.34944 -1.91642,0.52086c-0.64174,0.17289 -1.22633,0.32893 -1.75379,0.46812l-0.27472,-1.10985M308.69765,187.07035h1.13183c-0.00733,0.7692 0,1.52889 0.02198,2.27904c0.02198,0.75162 0.0608,1.46808 0.11648,2.14938c0.05421,0.6813 0.12161,1.30765 0.20219,1.87906c0.08058,0.57141 0.17216,1.06956 0.27472,1.49445c0.10256,0.42489 0.21464,0.75236 0.33625,0.98238c0.12014,0.23149 0.24615,0.34724 0.37801,0.34724c0.08791,0 0.15531,-0.10989 0.20219,-0.32966c0.04835,-0.21977 0.07985,-0.58606 0.0945,-1.09886c0.10989,0.13186 0.23955,0.2542 0.389,0.36702c0.15091,0.11428 0.28864,0.20439 0.41317,0.27032c-0.05128,0.4835 -0.12454,0.86444 -0.21977,1.14282c-0.09524,0.27838 -0.2249,0.47398 -0.389,0.58679c-0.16556,0.11428 -0.38021,0.17142 -0.64393,0.17142c-0.30768,0 -0.57874,-0.13406 -0.81316,-0.40218c-0.23442,-0.26666 -0.43588,-0.64174 -0.60438,-1.12524c-0.16849,-0.4835 -0.30988,-1.04978 -0.42416,-1.69884c-0.11282,-0.6476 -0.19999,-1.35453 -0.26153,-2.12081c-0.063,-0.76481 -0.11062,-1.56332 -0.14285,-2.39552c-0.0337,-0.83074 -0.05421,-1.66368 -0.06154,-2.49882M310.0932,187.64176l0.67031,-0.57141c0.21977,0.15384 0.452,0.33332 0.69668,0.53844c0.24615,0.20512 0.43149,0.38826 0.55603,0.54943l-0.69228,0.64833c-0.13186,-0.16849 -0.31281,-0.36263 -0.54284,-0.5824c-0.23149,-0.21977 -0.46079,-0.41391 -0.68789,-0.5824M310.82944,190.48782l1.05491,0.1978c-0.35164,1.45783 -0.85565,2.7413 -1.51204,3.85042c-0.65492,1.11059 -1.46955,2.01385 -2.44387,2.7098c-0.05861,-0.06593 -0.13919,-0.14871 -0.24175,-0.24834c-0.10256,-0.09816 -0.20878,-0.1934 -0.31867,-0.2857c-0.10989,-0.09084 -0.20512,-0.16556 -0.2857,-0.22417c0.97433,-0.60804 1.76771,-1.42486 2.38014,-2.45047c0.61097,-1.02561 1.06663,-2.20872 1.36699,-3.54933M306.34608,191.41086v1.48347h1.01095v-1.48347h-1.01095M305.46699,190.4988h2.81309v3.31857h-2.81309zM317.37867,191.82843l0.89008,-0.64833c0.24908,0.2271 0.51647,0.47251 0.80217,0.73624c0.2857,0.26373 0.56775,0.53112 0.84613,0.80217c0.27838,0.27105 0.53844,0.53478 0.78019,0.79118c0.24175,0.2564 0.44321,0.48716 0.60438,0.69228l-0.97799,0.7692c-0.14651,-0.21245 -0.33552,-0.44907 -0.56701,-0.70987c-0.23003,-0.25933 -0.47837,-0.53185 -0.74503,-0.81755c-0.26812,-0.2857 -0.54284,-0.56628 -0.82415,-0.84173c-0.28277,-0.27398 -0.55236,-0.53185 -0.80876,-0.7736M317.43361,187.05936h1.20875v2.50541c0,0.35896 -0.02198,0.73404 -0.06593,1.12524c-0.04395,0.39266 -0.12674,0.78825 -0.24834,1.18677c-0.12014,0.39999 -0.2923,0.79411 -0.51647,1.18238c-0.2227,0.38826 -0.51354,0.76188 -0.8725,1.12084c-0.35896,0.35896 -0.79851,0.69228 -1.31864,0.99997c-0.05128,-0.08791 -0.12674,-0.18681 -0.22637,-0.29669c-0.09816,-0.10989 -0.20219,-0.21977 -0.31208,-0.32966c-0.10989,-0.10989 -0.21245,-0.1978 -0.30768,-0.26373c0.49815,-0.26373 0.90986,-0.54797 1.23512,-0.85272c0.32673,-0.30329 0.58533,-0.62196 0.7758,-0.95601c0.19047,-0.33259 0.33112,-0.66738 0.42196,-1.00436c0.0923,-0.33699 0.15311,-0.66884 0.18241,-0.99557c0.0293,-0.32526 0.04395,-0.63441 0.04395,-0.92744v-2.49442M313.54364,188.90545h8.36235v1.15381h-7.18657v7.28547h-1.17578v-8.43927M321.37853,188.90545h1.1648v7.03273c0,0.32966 -0.04029,0.58606 -0.12088,0.7692c-0.08058,0.18314 -0.23076,0.32233 -0.45053,0.41757c-0.21977,0.09524 -0.50401,0.15164 -0.85272,0.16923c-0.34724,0.01905 -0.76994,0.02857 -1.26809,0.02857c-0.00733,-0.10989 -0.03297,-0.23662 -0.07692,-0.38021c-0.04395,-0.14212 -0.09157,-0.28277 -0.14285,-0.42196c-0.05128,-0.13919 -0.10622,-0.26373 -0.16483,-0.37361c0.2271,0.00733 0.452,0.01465 0.6747,0.02198c0.22417,0.00733 0.42416,0.01099 0.59998,0.01099c0.17582,0 0.29669,0 0.36263,0c0.10989,-0.00733 0.18314,-0.0293 0.21977,-0.06593c0.03663,-0.03663 0.05494,-0.10256 0.05494,-0.1978zM329.36727,195.50962l0.56042,-0.8681c0.47617,0.14651 0.95601,0.31501 1.43951,0.50548c0.4835,0.19047 0.9377,0.38826 1.36259,0.59339c0.42489,0.20512 0.78386,0.40292 1.07689,0.59339l-0.70327,0.93403c-0.2857,-0.20512 -0.62855,-0.41244 -1.02854,-0.62196c-0.39852,-0.20805 -0.83074,-0.41098 -1.29666,-0.60877c-0.46445,-0.1978 -0.93477,-0.37361 -1.41094,-0.52745M328.0816,187.30111l1.18677,-0.36263c0.14651,0.2271 0.29303,0.47984 0.43955,0.75822c0.14651,0.27838 0.25274,0.52379 0.31867,0.73624l-1.2527,0.39559c-0.05128,-0.1978 -0.14505,-0.44174 -0.28131,-0.73184c-0.13479,-0.28864 -0.27179,-0.55383 -0.41098,-0.79558M324.4114,188.15823h9.24144v2.43948h-1.23073v-1.34061h-6.84592v1.34061h-1.1648v-2.43948M328.89476,189.74059h1.24172c-0.0293,0.79118 -0.07692,1.52522 -0.14285,2.20212c-0.06593,0.67836 -0.19047,1.29593 -0.37361,1.85268c-0.18314,0.55676 -0.4542,1.05857 -0.81316,1.50544c-0.35896,0.44687 -0.84466,0.83514 -1.45709,1.1648c-0.61097,0.32966 -1.38164,0.60804 -2.31201,0.83514c-0.05861,-0.15384 -0.15384,-0.33186 -0.2857,-0.53405c-0.13186,-0.20073 -0.26006,-0.36336 -0.3846,-0.4879c0.87176,-0.19047 1.58236,-0.42343 2.1318,-0.69888c0.54943,-0.27398 0.98385,-0.59998 1.30325,-0.97799c0.31794,-0.37654 0.55016,-0.8051 0.69668,-1.28567c0.14651,-0.4791 0.24395,-1.01535 0.2923,-1.60874c0.04689,-0.59339 0.08132,-1.24904 0.10329,-1.96697M324.27953,193.41079h9.53814v0.98898h-9.53814v-0.98898M326.09266,190.33398l0.69228,-0.75822c0.1978,0.09524 0.39925,0.20878 0.60438,0.34065c0.20512,0.13186 0.40072,0.26886 0.58679,0.41098c0.18754,0.14359 0.33625,0.27765 0.44614,0.40218l-0.73624,0.84613c-0.10256,-0.12454 -0.24175,-0.26006 -0.41757,-0.40658c-0.17582,-0.14651 -0.36629,-0.29523 -0.57141,-0.44614c-0.20512,-0.14945 -0.40658,-0.27911 -0.60438,-0.389M324.98281,192.00425l0.67031,-0.79118c0.20512,0.09524 0.41391,0.20659 0.62635,0.33405c0.21245,0.12893 0.41391,0.2608 0.60438,0.39559c0.19047,0.13626 0.34431,0.26666 0.46152,0.3912l-0.70327,0.89008c-0.11721,-0.13186 -0.26739,-0.27105 -0.45053,-0.41757c-0.18314,-0.14651 -0.38094,-0.28937 -0.59339,-0.42856c-0.21245,-0.13919 -0.41757,-0.26373 -0.61536,-0.37361zM335.83958,187.93845h3.13176v7.34041h-3.13176v-1.05491h2.0329v-5.23059h-2.0329v-1.05491M335.90551,191.04824h2.29663v1.03293h-2.29663v-1.03293M335.27916,187.93845h1.10985v8.23049h-1.10985v-8.23049M339.41089,189.13621h5.73607v1.17578h-5.73607v-1.17578M342.77341,187.12529h1.19776v8.58213c0,0.36629 -0.04762,0.64247 -0.14285,0.82854c-0.09524,0.18754 -0.26006,0.32893 -0.49449,0.42416c-0.2271,0.09524 -0.53258,0.15531 -0.91645,0.18021c-0.38534,0.02637 -0.85272,0.0359 -1.40215,0.02857c-0.02198,-0.16849 -0.07546,-0.36849 -0.16043,-0.59998c-0.08351,-0.23003 -0.16923,-0.42563 -0.25713,-0.58679c0.27105,0.00733 0.53258,0.01245 0.78459,0.01538c0.25347,0.0044 0.47544,0.00659 0.66591,0.00659c0.19047,0 0.326,0 0.40658,0c0.11721,-0.00733 0.19926,-0.0315 0.24615,-0.07253c0.04835,-0.03956 0.07253,-0.11794 0.07253,-0.23516v-8.57114M339.5977,191.58668l0.97799,-0.51647c0.18314,0.2564 0.38094,0.53625 0.59339,0.83953c0.21245,0.30475 0.41391,0.60144 0.60438,0.89008c0.19047,0.2901 0.34431,0.54137 0.46152,0.75382l-1.04392,0.60438c-0.10989,-0.21977 -0.25494,-0.47837 -0.43515,-0.7758c-0.17875,-0.29596 -0.37068,-0.60144 -0.5758,-0.91645c-0.20512,-0.31501 -0.39925,-0.60804 -0.5824,-0.87909zM346.92712,187.38902h8.10961v0.85711h-8.10961v-0.85711M347.41062,191.81744h8.16456v0.81316h-8.16456v-0.81316M348.41058,192.98224h6.56022v0.71426h-6.56022v-0.71426M347.38864,194.07011h8.6041v0.79118h-8.6041v-0.79118M347.66336,189.79553h2.3186v0.61536h-2.3186v-0.61536M347.42161,190.80649h2.57134v0.60438h-2.57134v-0.60438M351.94892,190.80649h2.60431v0.60438h-2.60431v-0.60438M351.94892,189.79553h2.34058v0.61536h-2.34058v-0.61536M350.37755,187.75165h1.1648v3.84602h-1.1648v-3.84602M346.22384,188.68568h9.53814v1.92301h-1.14282v-1.21974h-7.30744v1.21974h-1.08788v-1.92301M346.88316,191.81744h1.09886v1.51643c0,0.30768 -0.01831,0.63881 -0.05494,0.99337c-0.03663,0.35603 -0.10476,0.71719 -0.20439,1.08348c-0.09816,0.36629 -0.23662,0.71939 -0.41537,1.0593c-0.18021,0.34138 -0.41317,0.65126 -0.69888,0.92964c-0.05861,-0.07326 -0.13919,-0.1597 -0.24175,-0.25933c-0.10256,-0.09816 -0.21025,-0.1934 -0.32307,-0.2857c-0.11428,-0.09084 -0.21538,-0.15824 -0.30329,-0.20219c0.34431,-0.32966 0.59705,-0.68862 0.75822,-1.07689c0.16117,-0.38826 0.26593,-0.77873 0.31428,-1.17139c0.04689,-0.3912 0.07033,-0.75529 0.07033,-1.09227v-1.49445M351.93794,194.48768c0.21977,0.35896 0.53112,0.65712 0.93403,0.89448c0.40292,0.23882 0.88422,0.42563 1.44391,0.56042c0.56115,0.13626 1.18604,0.22637 1.87466,0.27032c-0.10256,0.10256 -0.20878,0.24175 -0.31867,0.41757c-0.10989,0.17582 -0.1978,0.33699 -0.26373,0.4835c-0.75455,-0.08058 -1.42706,-0.21977 -2.01751,-0.41757c-0.58899,-0.1978 -1.09593,-0.46372 -1.52083,-0.79778c-0.42489,-0.33259 -0.77653,-0.74063 -1.05491,-1.22413l0.92305,-0.18681M354.49829,194.77338l0.8681,0.43955c-0.26373,0.17582 -0.54211,0.33845 -0.83514,0.4879c-0.29303,0.15091 -0.56042,0.28131 -0.80217,0.3912l-0.71426,-0.39559c0.16117,-0.08791 0.33112,-0.18534 0.50987,-0.2923c0.18021,-0.10549 0.35603,-0.21538 0.52745,-0.32966c0.17289,-0.11282 0.3216,-0.21318 0.44614,-0.30109M348.49849,197.32275l-0.05494,-0.7692l0.46152,-0.31867l3.03286,-0.42856c-0.0293,0.13186 -0.05494,0.28351 -0.07692,0.45493c-0.02198,0.17289 -0.03297,0.31428 -0.03297,0.42416c-0.67397,0.10989 -1.21827,0.19926 -1.63291,0.26812c-0.41317,0.07033 -0.73331,0.12747 -0.96041,0.17142c-0.2271,0.04395 -0.39193,0.08058 -0.49449,0.10989c-0.10256,0.0293 -0.18314,0.05861 -0.24175,0.08791M348.49849,197.32275c-0.0293,-0.08791 -0.07326,-0.189 -0.13186,-0.30329c-0.05861,-0.11282 -0.12307,-0.22637 -0.1934,-0.34065c-0.06886,-0.11282 -0.1326,-0.20585 -0.1912,-0.27911c0.12454,-0.06593 0.25787,-0.17802 0.39999,-0.33625c0.14359,-0.15677 0.21538,-0.35969 0.21538,-0.60877v-1.05491l1.14282,0.02198v1.79115c0,0 -0.04176,0.02564 -0.12527,0.07692c-0.08498,0.05128 -0.18827,0.12088 -0.30988,0.20878c-0.12014,0.08791 -0.24248,0.17948 -0.36702,0.27472c-0.12454,0.09524 -0.22856,0.19194 -0.31208,0.2901c-0.08498,0.09963 -0.12747,0.18607 -0.12747,0.25933zM359.16846,190.20211h7.68106v0.93403h-7.68106v-0.93403M359.26736,193.39981h6.10968v0.93403h-6.10968v-0.93403M360.72885,189.41093h1.12084v2.58233h2.19773v-2.58233h1.15381v3.4834h-4.47238v-3.4834M365.06936,193.39981h0.23076l0.20878,-0.04395l0.73624,0.3846c-0.30036,0.57141 -0.69228,1.06004 -1.17578,1.46588c-0.4835,0.40731 -1.03293,0.74649 -1.6483,1.01755c-0.61536,0.27105 -1.27834,0.48716 -1.98894,0.64833c-0.7106,0.16117 -1.4505,0.2857 -2.2197,0.37361c-0.04395,-0.13919 -0.11135,-0.30622 -0.20219,-0.50108c-0.0923,-0.1934 -0.18607,-0.35603 -0.28131,-0.4879c0.70327,-0.05128 1.38457,-0.14139 2.04389,-0.27032c0.65932,-0.12747 1.26955,-0.29743 1.83071,-0.50987c0.55969,-0.21245 1.05198,-0.47837 1.47687,-0.79778c0.42489,-0.31794 0.75455,-0.69302 0.98898,-1.12524v-0.15384M361.10246,194.11407c0.35896,0.42489 0.8366,0.78752 1.43292,1.08788c0.59778,0.30036 1.2886,0.53991 2.07246,0.71866c0.78386,0.18021 1.62632,0.30329 2.52739,0.36922c-0.08058,0.08058 -0.16483,0.18314 -0.25274,0.30768c-0.08791,0.12454 -0.17069,0.24908 -0.24834,0.37361c-0.07619,0.12454 -0.13626,0.23809 -0.18021,0.34065c-0.9377,-0.09524 -1.80726,-0.2586 -2.6087,-0.49009c-0.8029,-0.23003 -1.51936,-0.53771 -2.14938,-0.92305c-0.63001,-0.38387 -1.1648,-0.85052 -1.60434,-1.39995l1.01095,-0.3846M358.31134,188.04834h8.64806v1.09886h-8.64806v-1.09886M357.76191,188.04834h1.1648v2.94495c0,0.4542 -0.01319,0.95381 -0.03956,1.49885c-0.02491,0.5465 -0.07399,1.10546 -0.14725,1.67687c-0.07326,0.57141 -0.17948,1.1245 -0.31867,1.65928c-0.13919,0.53478 -0.32233,1.02561 -0.54943,1.47248c-0.08058,-0.05861 -0.18681,-0.12088 -0.31867,-0.18681c-0.13186,-0.06593 -0.26593,-0.1304 -0.40218,-0.1934c-0.13479,-0.06154 -0.25347,-0.10329 -0.35603,-0.12527c0.21977,-0.42489 0.39559,-0.88495 0.52745,-1.38017c0.13186,-0.49376 0.22856,-1.0007 0.2901,-1.52083c0.063,-0.52013 0.10329,-1.0278 0.12088,-1.52303c0.01905,-0.49376 0.02857,-0.94942 0.02857,-1.36699v-2.95594M361.60794,187.25716l1.18677,-0.27472c0.12454,0.23442 0.23955,0.49083 0.34504,0.7692c0.10696,0.27838 0.18241,0.51647 0.22637,0.71426l-1.26369,0.30768c-0.0293,-0.20512 -0.09157,-0.45053 -0.18681,-0.73624c-0.09524,-0.2857 -0.1978,-0.54577 -0.30768,-0.78019zM369.01428,188.83952h3.36252v7.34041h-3.36252v-1.04392h2.28564v-5.26356h-2.28564v-1.03293M368.32199,188.83952h1.07689v8.17555h-1.07689v-8.17555M368.95933,191.80645h2.87902v1.02194h-2.87902v-1.02194M369.91535,187.04837l1.28567,0.1978c-0.11721,0.35896 -0.24175,0.71939 -0.37361,1.08128c-0.13186,0.36336 -0.25274,0.67324 -0.36263,0.92964l-0.94502,-0.21977c0.05128,-0.18314 0.10403,-0.39193 0.15824,-0.62635c0.05568,-0.23442 0.10549,-0.47105 0.14945,-0.70987c0.04395,-0.23735 0.07326,-0.45493 0.08791,-0.65273M373.86027,188.77359h3.26363v1.07689h-3.26363v-1.07689M376.70632,188.77359h1.09886c0,0 0,0.03443 0,0.10329c0,0.07033 0,0.14725 0,0.23076c0,0.08498 -0.00366,0.15311 -0.01099,0.20439c-0.03663,1.24538 -0.07546,2.30029 -0.11648,3.16473c-0.03956,0.86444 -0.08718,1.57504 -0.14285,2.1318c-0.05421,0.55676 -0.11794,0.99044 -0.1912,1.30105c-0.07326,0.31208 -0.16849,0.54137 -0.2857,0.68789c-0.14651,0.1978 -0.29669,0.33332 -0.45053,0.40658c-0.15384,0.07326 -0.34065,0.1282 -0.56042,0.16483c-0.1978,0.02198 -0.45053,0.03297 -0.75822,0.03297c-0.30768,0 -0.62269,-0.00733 -0.94502,-0.02198c-0.00733,-0.16117 -0.04542,-0.35164 -0.11428,-0.57141c-0.07033,-0.21977 -0.1641,-0.41024 -0.28131,-0.57141c0.35896,0.0293 0.68862,0.04762 0.98898,0.05494c0.30036,0.00733 0.52013,0.01099 0.65932,0.01099c0.10989,0 0.19926,-0.01319 0.26812,-0.03956c0.07033,-0.02491 0.14212,-0.07399 0.21538,-0.14725c0.08791,-0.10256 0.16483,-0.30255 0.23076,-0.59998c0.06593,-0.29596 0.12088,-0.71499 0.16483,-1.2571c0.04395,-0.54211 0.08571,-1.23073 0.12527,-2.06586c0.04102,-0.83514 0.07619,-1.83144 0.10549,-2.98891v-0.23076M373.94818,187.04837l1.13183,0.26373c-0.13919,0.54211 -0.30548,1.07835 -0.49888,1.60874c-0.19486,0.53185 -0.40951,1.0322 -0.64393,1.50105c-0.23442,0.46885 -0.47617,0.87909 -0.72525,1.23073c-0.07326,-0.06593 -0.16849,-0.14285 -0.2857,-0.23076c-0.11721,-0.08791 -0.23809,-0.17435 -0.36263,-0.25933c-0.12454,-0.08351 -0.23076,-0.14725 -0.31867,-0.1912c0.24175,-0.31501 0.47105,-0.68349 0.68789,-1.10546c0.21538,-0.4205 0.40951,-0.8725 0.5824,-1.356c0.17142,-0.4835 0.31574,-0.97066 0.43295,-1.46149M373.42072,191.85041l0.92305,-0.51647c0.18314,0.24908 0.38094,0.52526 0.59339,0.82854c0.21245,0.30475 0.41171,0.59778 0.59778,0.87909c0.18754,0.28277 0.33625,0.53405 0.44614,0.75382l-0.99997,0.61536c-0.10256,-0.2271 -0.24175,-0.48716 -0.41757,-0.78019c-0.17582,-0.29303 -0.36482,-0.59558 -0.56701,-0.90766c-0.20073,-0.31061 -0.39266,-0.60144 -0.5758,-0.8725zM381.45342,189.45488v0.53844h4.96686v-0.53844h-4.96686M381.45342,188.19119v0.52745h4.96686v-0.52745h-4.96686M380.32159,187.411h7.28547v3.36252h-7.28547v-3.36252M378.95899,191.23504h9.97768v0.94502h-9.97768v-0.94502M384.13464,192.66357h3.71416v0.93403h-3.71416v-0.93403M380.67322,192.69653h2.56035v0.83514h-2.56035v-0.83514M380.67322,194.0811h2.56035v0.82415h-2.56035v-0.82415M385.39834,193.45475c0.31501,0.70327 0.79484,1.30545 1.43951,1.80653c0.64467,0.50255 1.41387,0.86371 2.30761,1.08348c-0.12454,0.10989 -0.25274,0.2564 -0.3846,0.43955c-0.13186,0.18314 -0.23809,0.34431 -0.31867,0.4835c-0.94502,-0.27838 -1.75305,-0.72159 -2.42409,-1.32963c-0.66957,-0.60804 -1.19117,-1.34794 -1.56478,-2.2197l0.94502,-0.26373M387.68397,192.66357h0.18681l0.1978,-0.03297l0.67031,0.26373c-0.21977,0.75455 -0.53478,1.41753 -0.94502,1.98894c-0.41024,0.57141 -0.89008,1.05491 -1.43951,1.4505c-0.54943,0.39559 -1.14282,0.71426 -1.78016,0.95601c-0.05861,-0.12454 -0.14505,-0.27325 -0.25933,-0.44614c-0.11282,-0.17142 -0.22417,-0.30841 -0.33405,-0.41098c0.56408,-0.18314 1.0952,-0.44321 1.59335,-0.78019c0.49815,-0.33699 0.93184,-0.74356 1.30105,-1.21974c0.37068,-0.47617 0.64027,-1.01095 0.80876,-1.60434v-0.16483M378.94801,195.74039c0.4542,-0.03663 0.97213,-0.08278 1.55379,-0.13846c0.58313,-0.05421 1.19849,-0.11282 1.84609,-0.17582c0.64906,-0.06154 1.29226,-0.12527 1.9296,-0.1912l0.01099,0.94502c-0.62269,0.07326 -1.24684,0.14432 -1.87246,0.21318c-0.62709,0.07033 -1.22999,0.13626 -1.80873,0.1978c-0.57874,0.063 -1.10253,0.12014 -1.57138,0.17142l-0.08791,-1.02194M382.61821,191.54273h1.13183v5.78002h-1.13183v-5.78002M379.94797,191.5647h1.07689v4.48336h-1.07689zM390.09048,190.07025h9.74692v1.21974h-9.74692v-1.21974M395.65074,190.56474c0.2271,0.84979 0.53625,1.64244 0.92744,2.37794c0.39266,0.73697 0.87836,1.38164 1.45709,1.934c0.57874,0.55383 1.2527,0.98824 2.02191,1.30325c-0.09524,0.08058 -0.1978,0.18827 -0.30768,0.32307c-0.10989,0.13626 -0.21611,0.27179 -0.31867,0.40658c-0.10256,0.13626 -0.18681,0.26299 -0.25274,0.38021c-0.82049,-0.38826 -1.53328,-0.89594 -2.13839,-1.52303c-0.60364,-0.62562 -1.11425,-1.35234 -1.53182,-2.18015c-0.41757,-0.82781 -0.76554,-1.74353 -1.04392,-2.74716l1.18677,-0.27472M394.28814,187.07035h1.28567c0,0.53478 -0.01319,1.10619 -0.03956,1.71423c-0.02491,0.60804 -0.08132,1.22853 -0.16923,1.86148c-0.08791,0.63441 -0.23076,1.26443 -0.42856,1.89005c-0.1978,0.62709 -0.47251,1.23146 -0.82415,1.81313c-0.35164,0.58313 -0.79997,1.12524 -1.34501,1.62632c-0.5465,0.50255 -1.21168,0.94063 -1.99554,1.31424c-0.09524,-0.16117 -0.2271,-0.33552 -0.39559,-0.52306c-0.16849,-0.18607 -0.33699,-0.34138 -0.50548,-0.46592c0.76188,-0.34431 1.39922,-0.7399 1.91202,-1.18677c0.5128,-0.44687 0.93037,-0.93403 1.2527,-1.46149c0.32233,-0.52745 0.56921,-1.07689 0.74063,-1.6483c0.17289,-0.57141 0.2923,-1.14502 0.35823,-1.72082c0.06593,-0.57434 0.10622,-1.13476 0.12088,-1.68126c0.01465,-0.54504 0.02564,-1.05564 0.03297,-1.53182zM404.101,188.09229h6.6701v1.02194h-6.6701v-1.02194M403.6175,196.09202h7.42832v0.98898h-7.42832v-0.98898M404.60647,189.94937h5.56025v6.34044h-1.08788v-5.47234h-3.42845v5.47234h-1.04392v-6.34044M405.37568,191.50976h3.91195v0.82415h-3.91195v-0.82415M405.3537,193.04817h4.18667v0.80217h-4.18667v-0.80217M405.33173,194.5646h3.97789v0.81316h-3.97789v-0.81316M406.91409,187.08134l1.2527,0.04395c-0.05861,0.37361 -0.1282,0.75822 -0.20878,1.15381c-0.08058,0.39559 -0.16117,0.77067 -0.24175,1.12524c-0.08058,0.35603 -0.16117,0.66591 -0.24175,0.92964l-1.03293,-0.08791c0.07326,-0.27838 0.14139,-0.60438 0.20439,-0.97799c0.06154,-0.37361 0.11648,-0.75309 0.16483,-1.13842c0.04689,-0.38387 0.08132,-0.73331 0.10329,-1.04832M403.12301,187.09233l1.08788,0.34065c-0.2271,0.62269 -0.49302,1.24318 -0.79778,1.86148c-0.30329,0.61976 -0.63295,1.20435 -0.98898,1.75379c-0.35457,0.54943 -0.72232,1.03659 -1.10326,1.46149c-0.0293,-0.10256 -0.08278,-0.2293 -0.16043,-0.38021c-0.07619,-0.14945 -0.15457,-0.30329 -0.23516,-0.46152c-0.08058,-0.15677 -0.15384,-0.28277 -0.21977,-0.37801c0.32233,-0.34431 0.63368,-0.7421 0.93403,-1.19337c0.30036,-0.4498 0.57727,-0.9311 0.83074,-1.44391c0.25201,-0.5128 0.46958,-1.03293 0.65273,-1.56039M402.02415,190.09223l1.08788,-1.12084v0.01099v8.32939h-1.08788z" fill="#ffffff" fill-rule="nonzero" stroke-width="1"/></g></g></svg>