<svg version="1.1" xmlns="http://www.w3.org/2000/svg" xmlns:xlink="http://www.w3.org/1999/xlink" width="75.36962" height="18.20105" viewBox="0,0,75.36962,18.20105"><g transform="translate(-240.94985,-170.57462)"><g fill="#ffffff" stroke="none" stroke-miterlimit="10"><path d="M242.72979,174.63441h14.54569v2.05903h-14.54569v-2.05903M241.46661,179.58774h16.82323v2.05903h-16.82323v-2.05903M250.90217,180.22876c0.44658,1.06189 1.03989,2.0163 1.77993,2.86322c0.74004,0.84951 1.63065,1.57211 2.67181,2.16781c1.03861,0.59569 2.22141,1.04247 3.54838,1.34031c-0.15311,0.16835 -0.32154,0.37166 -0.50527,0.60994c-0.18629,0.24087 -0.36237,0.4908 -0.52824,0.7498c-0.16587,0.259 -0.29985,0.49209 -0.40192,0.69929c-1.41629,-0.4144 -2.6565,-0.98419 -3.72063,-1.70938c-1.06668,-0.72519 -1.98536,-1.61226 -2.75602,-2.6612c-0.77322,-1.04894 -1.42777,-2.23385 -1.96367,-3.55474l1.87563,-0.50505M253.60077,170.67175l2.25841,0.73814c-0.29346,0.518 -0.59969,1.04247 -0.91867,1.57341c-0.31898,0.53094 -0.63159,1.0321 -0.93781,1.50348c-0.30622,0.47397 -0.60607,0.89872 -0.89954,1.27427l-1.76079,-0.69929c0.28071,-0.40145 0.56141,-0.85469 0.84212,-1.35974c0.28071,-0.50505 0.5461,-1.02304 0.79618,-1.55398c0.24753,-0.53094 0.45423,-1.02304 0.62011,-1.47629M244.28005,171.60414l1.74165,-0.87412c0.4083,0.47915 0.80001,1.02304 1.17514,1.63168c0.37768,0.60864 0.66221,1.13959 0.8536,1.59283l-1.85649,1.02951c-0.10207,-0.3108 -0.25519,-0.66044 -0.45934,-1.04894c-0.20415,-0.3885 -0.42999,-0.78994 -0.67752,-1.20434c-0.25008,-0.4144 -0.5091,-0.78994 -0.77705,-1.12664M248.77773,175.35313h2.41152v3.82669c0,0.66044 -0.0638,1.33643 -0.19139,2.02795c-0.12759,0.69411 -0.36364,1.38046 -0.70815,2.05903c-0.3445,0.68116 -0.84212,1.34808 -1.49285,2.00076c-0.65073,0.65526 -1.48902,1.27686 -2.51487,1.86478c-1.0284,0.59051 -2.30179,1.13182 -3.82016,1.62391c-0.08932,-0.16835 -0.21691,-0.36648 -0.38278,-0.5944c-0.16587,-0.22533 -0.34705,-0.45454 -0.54355,-0.68764c-0.19905,-0.2331 -0.39426,-0.42735 -0.58566,-0.58274c1.39077,-0.42735 2.55825,-0.88707 3.50245,-1.37916c0.94419,-0.49209 1.70338,-1.00362 2.27755,-1.53456c0.57417,-0.53094 1.00799,-1.07225 1.30146,-1.62391c0.29346,-0.54908 0.49124,-1.09556 0.59331,-1.63945c0.10207,-0.54389 0.15311,-1.06836 0.15311,-1.57341zM275.30447,179.04384h2.02874c0,0 -0.00255,0.0518 -0.00766,0.1554c-0.00766,0.1036 -0.01148,0.22015 -0.01148,0.34965c0,0.1295 -0.00638,0.24605 -0.01914,0.34965c-0.08932,1.73528 -0.18501,3.14293 -0.28709,4.22295c-0.10207,1.08261 -0.22329,1.91529 -0.36364,2.49803c-0.14035,0.58274 -0.3126,0.99714 -0.51675,1.24319c-0.21691,0.259 -0.44913,0.4403 -0.69666,0.54389c-0.25008,0.1036 -0.541,0.17482 -0.87274,0.21367c-0.28071,0.03885 -0.6469,0.05827 -1.09858,0.05827c-0.45423,0 -0.93016,-0.00647 -1.42777,-0.01942c-0.02552,-0.2849 -0.09187,-0.60864 -0.19905,-0.97124c-0.10973,-0.3626 -0.24115,-0.66692 -0.39426,-0.91297c0.4721,0.03885 0.9123,0.06086 1.3206,0.06604c0.4083,0.00777 0.70815,0.01165 0.89954,0.01165c0.16587,0 0.30367,-0.01295 0.4134,-0.03885c0.10718,-0.0259 0.21181,-0.09065 0.31388,-0.19425c0.14035,-0.1554 0.26795,-0.49209 0.38278,-1.01009c0.11483,-0.518 0.21436,-1.28204 0.29857,-2.29213c0.08166,-1.01009 0.16077,-2.3245 0.23732,-3.94324v-0.33022M265.84977,181.49137h1.89477v4.60368h-1.89477v-4.60368M270.63454,182.24894h1.87563v5.41952h-1.87563v-5.41952M261.23726,182.28778h1.87563v3.10797h8.30635v1.72881h-10.18198v-4.83678M273.16089,172.28401h1.91391c0,0 0,0.09065 0,0.27195c0,0.1813 -0.00638,0.33022 -0.01914,0.44677c-0.0638,0.97124 -0.13015,1.78061 -0.19905,2.4281c-0.07145,0.64749 -0.15439,1.15901 -0.24881,1.53456c-0.09697,0.37555 -0.22839,0.64749 -0.39426,0.81584c-0.15311,0.19425 -0.32154,0.33281 -0.50527,0.41569c-0.18629,0.08547 -0.40064,0.14115 -0.64307,0.16705c-0.20415,0.03885 -0.46827,0.06086 -0.79236,0.06604c-0.32664,0.00777 -0.67497,0.00518 -1.04499,-0.00777c-0.02552,-0.2849 -0.08294,-0.59958 -0.17225,-0.94405c-0.08932,-0.34188 -0.20415,-0.63584 -0.3445,-0.88189c0.29346,0.0259 0.56141,0.04532 0.80384,0.05827c0.24243,0.01295 0.42744,0.01942 0.55503,0.01942c0.11483,0 0.21691,-0.01295 0.30622,-0.03885c0.08932,-0.0259 0.16587,-0.0777 0.22967,-0.1554c0.12759,-0.14245 0.23605,-0.50505 0.32536,-1.08779c0.08932,-0.58274 0.16587,-1.53456 0.22967,-2.85545v-0.25252M267.53401,170.57462l2.4498,0.21367c-0.20415,0.47915 -0.43382,0.94146 -0.68901,1.38693c-0.25519,0.44807 -0.48486,0.83397 -0.68901,1.15772l-1.81821,-0.33022c0.14035,-0.3626 0.28453,-0.77052 0.43254,-1.22376c0.14546,-0.45324 0.25008,-0.85469 0.31388,-1.20434M265.42871,175.97472l1.01437,-1.32089c0.44658,0.1554 0.92505,0.34317 1.43543,0.56332c0.51038,0.22015 0.99778,0.44677 1.46222,0.67987c0.46699,0.2331 0.8536,0.45324 1.15983,0.66044l-1.07179,1.45686c-0.28071,-0.2072 -0.65073,-0.43382 -1.11007,-0.67987c-0.45934,-0.24605 -0.94164,-0.48951 -1.44691,-0.73037c-0.50272,-0.23828 -0.98375,-0.44807 -1.44309,-0.62936M273.7542,172.28401v1.86478h-9.11019v4.89505h11.27291v1.82593h-13.28251v-8.58577zM289.48651,174.96463h7.65562v1.92306h-7.65562v-1.92306M293.6971,171.00197h1.97132v15.28732c0,0.53094 -0.06124,0.9544 -0.18373,1.27038c-0.11994,0.31857 -0.33302,0.5685 -0.63924,0.7498c-0.30622,0.16835 -0.69539,0.28101 -1.16748,0.33799c-0.4721,0.05957 -1.05903,0.08288 -1.76079,0.06993c-0.03828,-0.27195 -0.12121,-0.61253 -0.24881,-1.02174c-0.12759,-0.40663 -0.25519,-0.75239 -0.38278,-1.03728c0.44658,0.01295 0.86509,0.02201 1.25552,0.02719c0.38789,0.00777 0.64562,0.00518 0.77322,-0.00777c0.14035,-0.01295 0.2386,-0.04532 0.29474,-0.09712c0.05869,-0.0518 0.08804,-0.14892 0.08804,-0.29137v-15.28732M289.58221,179.10212l1.58854,-0.69929c0.22967,0.45324 0.45934,0.93498 0.68901,1.44521c0.22967,0.51281 0.44658,1.01527 0.65073,1.50737c0.20415,0.49209 0.36364,0.93239 0.47848,1.32089l-1.6651,0.81584c-0.11483,-0.40145 -0.26795,-0.85469 -0.45934,-1.35974c-0.19139,-0.50505 -0.39809,-1.02304 -0.62011,-1.55398c-0.22456,-0.53094 -0.4453,-1.02304 -0.66221,-1.47629M288.41472,170.67175l1.85649,0.50505c-0.31898,1.04894 -0.70177,2.08493 -1.14834,3.10797c-0.44658,1.02304 -0.93781,1.9878 -1.47371,2.8943c-0.53589,0.90649 -1.09731,1.70291 -1.68424,2.38925c-0.0638,-0.14245 -0.16842,-0.32763 -0.31388,-0.55555c-0.14801,-0.22533 -0.30112,-0.45454 -0.45934,-0.68764c-0.16077,-0.2331 -0.30495,-0.4144 -0.43254,-0.54389c0.76556,-0.86764 1.46988,-1.92953 2.11295,-3.18567c0.64562,-1.25614 1.15983,-2.56407 1.54261,-3.92381M280.01268,171.46817h4.42112v1.86478h-2.62205v15.44272h-1.79907v-17.30751M283.80221,171.46817h0.32536l0.30622,-0.0777l1.3206,0.75757c-0.22967,0.85469 -0.48741,1.76118 -0.77322,2.71947c-0.28836,0.95829 -0.56652,1.82593 -0.83446,2.60292c0.56141,0.80289 0.92761,1.56046 1.09858,2.2727c0.17353,0.71224 0.26029,1.36621 0.26029,1.96191c0,0.62159 -0.0638,1.14218 -0.19139,1.56175c-0.12759,0.42217 -0.33174,0.74332 -0.61245,0.96347c-0.26795,0.22015 -0.60607,0.35612 -1.01437,0.40792c-0.3445,0.0518 -0.74004,0.06475 -1.18662,0.03885c0,-0.259 -0.03445,-0.56073 -0.10335,-0.9052c-0.07145,-0.34188 -0.17736,-0.64231 -0.31771,-0.90131c0.16587,0.01295 0.3126,0.02201 0.4402,0.02719c0.12759,0.00777 0.24881,0.00518 0.36364,-0.00777c0.20415,0 0.3764,-0.0518 0.51675,-0.1554c0.10207,-0.09065 0.17863,-0.25252 0.22967,-0.48562c0.05104,-0.2331 0.07656,-0.49857 0.07656,-0.79642c0,-0.47915 -0.08294,-1.04635 -0.24881,-1.70161c-0.16587,-0.65267 -0.51038,-1.34161 -1.03351,-2.0668c0.12759,-0.4403 0.25901,-0.91944 0.39426,-1.43744c0.1327,-0.518 0.26029,-1.03599 0.38278,-1.55398c0.11994,-0.518 0.23477,-1.0075 0.3445,-1.46852c0.10718,-0.45843 0.19267,-0.84951 0.25646,-1.17326v-0.58274M286.94102,175.4891l1.58854,-1.61226l0.22967,0.09712v14.72401h-1.81821zM306.57769,176.14955h9.43556v1.94248h-9.43556v-1.94248M310.67345,177.04309h2.02874v8.37209h-2.02874v-8.37209M302.92213,177.60641v7.76992h-2.0096v-5.71089h-2.29669v-2.05903h4.30629M305.44849,171.77896h2.08616v4.29288c0,0.69929 -0.02552,1.45945 -0.07656,2.28047c-0.05104,0.82361 -0.15056,1.66276 -0.29857,2.51746c-0.14546,0.85469 -0.35599,1.68348 -0.63159,2.48638c-0.27305,0.80289 -0.62648,1.52809 -1.0603,2.17558c-0.11483,-0.11655 -0.28453,-0.259 -0.5091,-0.42735c-0.22201,-0.16835 -0.44785,-0.32763 -0.67752,-0.47785c-0.22967,-0.14763 -0.42106,-0.26029 -0.57417,-0.33799c0.53589,-0.80289 0.92505,-1.68737 1.16748,-2.65343c0.24243,-0.96347 0.39809,-1.93083 0.46699,-2.90207c0.07145,-0.97124 0.10718,-1.85831 0.10718,-2.6612v-4.29288M314.06106,170.67175l1.68424,1.55398c-0.8804,0.2849 -1.86925,0.518 -2.96655,0.69929c-1.09731,0.1813 -2.22906,0.31986 -3.39527,0.41569c-1.16876,0.09842 -2.29541,0.16058 -3.37996,0.18648c-0.03828,-0.24605 -0.11101,-0.54131 -0.21819,-0.88577c-0.10973,-0.34188 -0.22201,-0.62936 -0.33685,-0.86246c0.77832,-0.03885 1.56685,-0.08806 2.36559,-0.14763c0.79618,-0.05698 1.57961,-0.13079 2.35028,-0.22144c0.77322,-0.09065 1.49157,-0.19813 2.15506,-0.32245c0.66349,-0.12173 1.24404,-0.26029 1.74165,-0.41569M301.86948,184.32739c0.22967,0 0.44275,0.05439 0.63924,0.16317c0.19905,0.11137 0.42234,0.25382 0.66987,0.42735c0.25008,0.17612 0.56014,0.36778 0.93016,0.57497c0.63797,0.37555 1.38822,0.61512 2.25075,0.71872c0.85998,0.1036 1.82587,0.1554 2.89765,0.1554c0.52313,0 1.09475,-0.00647 1.71486,-0.01942c0.61755,-0.01295 1.24532,-0.03885 1.88328,-0.0777c0.63797,-0.03885 1.25425,-0.08806 1.84883,-0.14763c0.59203,-0.05698 1.13048,-0.11784 1.61534,-0.18259c-0.07656,0.1813 -0.15949,0.40792 -0.24881,0.67987c-0.08932,0.27195 -0.16587,0.54001 -0.22967,0.80419c-0.0638,0.26677 -0.10207,0.49728 -0.11483,0.69152c-0.3445,0.0259 -0.7847,0.0518 -1.3206,0.0777c-0.53589,0.0259 -1.11644,0.04792 -1.74165,0.06604c-0.62521,0.02072 -1.24021,0.03755 -1.84501,0.0505c-0.60735,0.01295 -1.15345,0.01942 -1.6383,0.01942c-1.19938,0 -2.22906,-0.07122 -3.08904,-0.21367c-0.86253,-0.14245 -1.6383,-0.40792 -2.32731,-0.79642c-0.43382,-0.24605 -0.81022,-0.49598 -1.1292,-0.7498c-0.31898,-0.25123 -0.58693,-0.37684 -0.80384,-0.37684c-0.20415,0 -0.42744,0.11914 -0.66987,0.35742c-0.24243,0.24087 -0.49762,0.54908 -0.76556,0.92462c-0.26795,0.37555 -0.52951,0.76404 -0.7847,1.16549l-1.37801,-1.98133c0.65073,-0.69929 1.29763,-1.26261 1.9407,-1.68996c0.64562,-0.42735 1.21087,-0.64102 1.69572,-0.64102M298.96035,172.01206l1.58854,-1.02951c0.3445,0.3367 0.70177,0.70577 1.07179,1.10721c0.37002,0.40145 0.72091,0.79901 1.05265,1.19268c0.33174,0.39627 0.59969,0.75627 0.80384,1.08002l-1.68424,1.18491c-0.17863,-0.32375 -0.42744,-0.69282 -0.74642,-1.10721c-0.31898,-0.4144 -0.66093,-0.83268 -1.02585,-1.25484c-0.36237,-0.41958 -0.7158,-0.81066 -1.0603,-1.17326z"/></g></g></svg>