<svg version="1.1" xmlns="http://www.w3.org/2000/svg" xmlns:xlink="http://www.w3.org/1999/xlink" width="98.55817" height="20.61046" viewBox="0,0,98.55817,20.61046"><g transform="translate(-240.28585,-170.51585)"><g fill="#ffffff" fill-rule="evenodd" stroke="#ffffff" stroke-width="0.5" stroke-linecap="round" stroke-miterlimit="10"><path d="M246.91738,174.52684v1.92443h-1.57022v-1.92443h-4.81131v-1.5136h4.81131v-2.14066h1.57022v2.14066h4.85157v-2.14066h1.59035v2.14066h4.69053v1.5136h-4.69053v1.92443h-1.59035v-1.92443zM258.17062,189.14389l-0.88576,1.55685c-1.57022,-0.79284 -2.86196,-1.64694 -3.87522,-2.56231c-1.01326,-0.91537 -1.77488,-1.93524 -2.28487,-3.05963c-0.46972,1.12439 -1.22464,2.14066 -2.26474,3.04882c-1.0401,0.90816 -2.44592,1.77308 -4.21745,2.59474l-0.9059,-1.53523c1.57022,-0.63427 2.82841,-1.3226 3.77456,-2.06498c0.94616,-0.74238 1.63397,-1.56766 2.06343,-2.47582c0.42946,-0.90816 0.65761,-1.96768 0.68445,-3.17856l0.02013,-1.16763h1.52996l-0.02013,1.25412c0,0.1874 -0.01342,0.43967 -0.04026,0.7568c0.25499,1.45594 0.9059,2.73169 1.95271,3.82724c1.04681,1.09556 2.53651,2.09742 4.46908,3.00558zM257.38551,179.45685l-2.03323,3.54615l-1.32864,-0.67031l1.691,-2.81097h-6.9452c-0.59051,1.23971 -1.32194,2.45059 -2.19428,3.63264l-1.30852,-0.9514c1.46285,-1.8884 2.61032,-4.07951 3.4424,-6.57335l1.40917,0.4757c-0.17447,0.57661 -0.39591,1.19646 -0.66433,1.85957h7.93162zM243.65616,182.54892l0.68445,0.36759l0.68445,0.34597l-1.12734,2.63799l-1.77153,4.21646l-1.40917,-0.82167c0.21473,-0.43246 0.71465,-1.54603 1.49976,-3.34073c0.78511,-1.7947 1.2649,-2.9299 1.43937,-3.4056zM241.18004,177.16483l1.02668,-1.12439c0.3892,0.3748 0.91261,0.92978 1.57022,1.66496c0.65761,0.73518 1.20115,1.36224 1.63061,1.88119l-1.10721,1.21088c-1.08707,-1.3262 -2.12718,-2.53708 -3.12031,-3.63264z"/><path d="M277.41587,184.55985l1.1676,0.41083c-0.0671,0.80725 -0.18118,1.72262 -0.34223,2.7461c-0.17447,1.00907 -0.41604,1.70821 -0.72472,2.09742c-0.30868,0.38921 -0.66433,0.58382 -1.06695,0.58382c-0.83208,0 -1.55008,-0.70635 -2.15402,-2.11904c-0.16105,-0.41804 -0.3221,-0.87212 -0.48314,-1.36224c-0.8455,1.21088 -1.84534,2.39293 -2.99952,3.54615l-1.04681,-1.05952c1.43601,-1.39828 2.62374,-2.84701 3.56319,-4.3462c-0.5234,-2.23436 -0.93944,-5.23993 -1.24812,-9.01673h-4.2879v3.00558h3.48266l-0.20131,6.37874c-0.02684,0.83608 -0.20131,1.42351 -0.5234,1.76226c-0.3221,0.33876 -0.88577,0.50813 -1.69101,0.50813h-0.98642l-0.2617,-1.53522h0.8455c0.37578,0 0.65761,-0.03964 0.8455,-0.11893c0.18789,-0.07929 0.31874,-0.21623 0.39256,-0.41083c0.07381,-0.19461 0.12414,-0.50093 0.15098,-0.91898c0.02684,-0.56219 0.05368,-1.26133 0.08052,-2.09741c0.02684,-0.83608 0.04027,-1.52081 0.04027,-2.05417h-2.17415c0,1.54243 -0.06711,2.86142 -0.20131,3.95698c-0.13421,1.09556 -0.359,2.11904 -0.67439,3.07045c-0.31538,0.9514 -0.76162,2.01093 -1.33871,3.17856l-1.32864,-0.71355c0.59051,-1.12439 1.03339,-2.14067 1.32864,-3.04883c0.29526,-0.90816 0.49992,-1.8956 0.614,-2.96233c0.11408,-1.06673 0.17111,-2.44338 0.17111,-4.12996v-5.42733h5.59642c-0.05368,-0.73518 -0.08724,-1.37666 -0.10066,-1.92444l-0.10066,-1.70821h1.46957l0.18118,3.63264h4.77105v1.55685h-4.6704c0.17447,2.78214 0.44959,5.18228 0.82537,7.20041c0.72472,-1.48477 1.3622,-3.28668 1.91245,-5.40571l1.30852,0.41083c-0.40262,1.45594 -0.82537,2.75692 -1.26825,3.90293c-0.44288,1.14601 -0.93944,2.20193 -1.48969,3.16775c0.18789,0.72076 0.41604,1.4199 0.68445,2.09742c0.33552,0.83608 0.65761,1.25412 0.96629,1.25412c0.16105,0 0.2919,-0.12253 0.39256,-0.36759c0.10066,-0.24506 0.19795,-0.69193 0.2919,-1.34062c0.12078,-0.77842 0.21473,-1.57847 0.28184,-2.40013zM265.47818,184.12739l0.12078,1.68659c-0.46972,0.14415 -1.22799,0.41083 -2.27481,0.80004c-1.04681,0.38921 -1.92587,0.72797 -2.63716,1.01627l-0.2617,-1.68658c1.01997,-0.34597 1.69101,-0.57661 2.0131,-0.69193v-7.22203h-1.79166v-1.57847h1.79166v-5.31922h1.38904v5.31922h1.73127v1.57847h-1.73127v6.70308c0.41604,-0.14415 0.80524,-0.28831 1.1676,-0.43246zM277.19443,173.25109l-0.98642,0.99465c-0.7784,-1.00907 -1.44943,-1.81632 -2.0131,-2.42176l0.9059,-0.9514c0.49656,0.49012 1.19444,1.28295 2.09363,2.37851z"/><path d="M298.49304,184.58147h-10.00511c-1.01997,1.21088 -2.2681,2.46501 -3.74437,3.76238l9.03883,-0.36759l-2.21441,-2.24877l0.98642,-1.05952c0.57709,0.56219 1.13069,1.10998 1.66081,1.64334c0.53012,0.53336 0.99649,1.00186 1.39911,1.40549c1.44943,1.47036 2.04666,2.06859 1.79166,1.7947l-1.04681,1.2325c-0.22815,-0.25948 -0.64419,-0.71355 -1.24813,-1.36224l-12.44097,0.58382l-0.38249,-1.53522c1.58364,-1.21088 2.97268,-2.49384 4.16712,-3.84887h-5.7776v-1.47036h2.65729v-11.24389h12.44097v11.24389h2.71769zM294.32592,183.11111v-2.37851h-9.52197v2.37851zM284.80395,177.03509v2.29202h9.52197v-2.29202zM284.80395,175.67285h9.52197v-2.2704h-9.52197z"/><path d="M318.44287,173.18622v1.53523h-8.01214v2.16228h6.80428v11.02766c0,0.6631 -0.07046,1.17124 -0.21137,1.52441c-0.14092,0.35317 -0.36907,0.59823 -0.68445,0.73518c-0.31538,0.13695 -0.76833,0.20542 -1.35884,0.20542h-2.47612l-0.28183,-1.5136h2.19428c0.3892,0 0.67103,-0.03243 0.8455,-0.0973c0.17447,-0.06487 0.2919,-0.1874 0.3523,-0.36759c0.06039,-0.18019 0.09059,-0.46489 0.09059,-0.85411v-9.16809h-12.1994v12.02231h-1.46957v-13.51429h6.84455v-2.16228h-8.09267v-1.53523h8.09267v-2.35689h1.55009v2.35689zM314.89982,184.86257v1.29737h-4.48921v3.82724h-1.50983v-3.82724h-4.61v-1.29737h4.61v-1.9893h-4.16712v-1.29737h2.73782c-0.63077,-0.90816 -1.1676,-1.63613 -1.61048,-2.18391l1.14747,-0.69193c-0.04026,-0.05766 0.23486,0.30993 0.82537,1.10276l0.94616,1.27575l-0.84551,0.49733h2.27481c0.67103,-0.93699 1.28167,-1.90281 1.83192,-2.89747l1.28838,0.67031c-0.26841,0.4757 -0.76498,1.21808 -1.48969,2.22715h2.61703v1.29737h-4.04633v1.9893z"/><path d="M338.35245,173.89978l-1.67088,5.51383c0.7113,0.99465 1.20786,1.87759 1.4897,2.6488c0.28184,0.77121 0.42275,1.58928 0.42275,2.45419c0,1.22529 -0.24157,2.09742 -0.72472,2.61637c-0.48314,0.51895 -1.29509,0.77842 -2.43585,0.77842h-1.14747l-0.30196,-1.53523h1.04681c0.79182,0 1.34542,-0.15496 1.66081,-0.46489c0.31538,-0.30993 0.47308,-0.86131 0.47308,-1.65415c0,-0.69193 -0.1577,-1.39828 -0.47308,-2.11904c-0.31538,-0.72076 -0.81531,-1.52081 -1.49976,-2.40013l1.63061,-5.8598h-3.38201v16.88745h-1.4293v-18.48754h6.34127zM330.44096,174.91606h-1.50982c-0.16105,1.34062 -0.36907,2.60195 -0.62406,3.784h2.71769v1.55685h-10.08564v-1.55685h2.57677c-0.25499,-1.64334 -0.48985,-2.90467 -0.70458,-3.784h-1.36891v-1.53523h3.92555c-0.17447,-0.76401 -0.37577,-1.47035 -0.60393,-2.11904l1.48969,-0.38921c0.26841,0.86491 0.49656,1.701 0.68445,2.50825h3.50279zM323.51589,188.92767v1.44873h-1.40917v-8.15181h7.69005v6.70308zM323.51589,187.45731h4.87171v-3.69751h-4.87171zM327.56222,174.91606h-3.32162c0.34894,1.78749 0.5838,3.04882 0.70459,3.784h1.99297c0.24157,-1.12439 0.44959,-2.38572 0.62406,-3.784z"/></g></g></svg>