<svg version="1.1" xmlns="http://www.w3.org/2000/svg" xmlns:xlink="http://www.w3.org/1999/xlink" width="208" height="32" viewBox="0,0,208,32"><g transform="translate(-240,-164)"><g stroke-miterlimit="10"><path d="M264.2344,173.39468h-2.95721v5.63531c0,1.78558 -0.04559,3.28548 -0.13675,4.49967c-0.09116,1.21419 -0.24501,2.32127 -0.46153,3.32119c-0.21652,0.99992 -0.5299,2.07128 -0.94016,3.21406l-1.12818,-0.85709c0.37606,-1.05706 0.66665,-2.03556 0.87177,-2.9355c0.20513,-0.89993 0.34758,-1.90344 0.42735,-3.0105c0.07977,-1.10706 0.11966,-2.50339 0.11966,-4.18898v-7.07092h6.46142c-0.20513,-0.72852 -0.37036,-1.27848 -0.49572,-1.64988l1.40169,-0.21427c0.13675,0.3714 0.31908,0.99278 0.547,1.86415h5.74349v1.39275h-2.95721v1.67131h2.75209v1.15706h-2.56405c0.33048,0.48568 0.74927,0.95707 1.25638,1.41418c0.50711,0.45711 1.04557,0.84994 1.61536,1.17849l-0.49572,1.00707c-0.90027,-0.55711 -1.75495,-1.39276 -2.56405,-2.50697v2.46411h-1.02562v-2.31412c-0.66096,0.87136 -1.44726,1.6356 -2.35893,2.29269l-0.547,-0.94279c1.15098,-0.75709 2.04555,-1.62131 2.68372,-2.59267h-1.77774v-1.15706h1.99996v-1.67131h-4.46146v1.67131h1.98287v1.15706h-1.98287v0.44996c0.63817,0.35711 1.23645,0.73567 1.79484,1.13564l-0.41025,1.04992c-0.36467,-0.29998 -0.82619,-0.63567 -1.38459,-1.00707v2.07843h-1.00853v-2.6141c-0.66096,1.12849 -1.41877,2.007 -2.27346,2.63553l-0.5299,-1.07135c0.98004,-0.68567 1.78914,-1.57131 2.4273,-2.65695h-2.11962v-1.15706h2.49568zM296.42185,173.63038v5.93528h10.95706l-0.25641,7.09234c-0.06838,1.08563 -0.29914,1.84629 -0.6923,2.28198c-0.39315,0.43569 -1.02847,0.65353 -1.90594,0.65353h-1.96578l-0.23932,-1.52132h1.67518c0.45583,0 0.80911,-0.06429 1.05981,-0.19285c0.2507,-0.12856 0.43019,-0.32854 0.53845,-0.59995c0.10826,-0.27141 0.17948,-0.64995 0.21367,-1.13563c0.03418,-0.64281 0.07122,-1.49275 0.11111,-2.54981c0.03989,-1.05706 0.07123,-1.907 0.09402,-2.54981h-10.88869v-8.89221h3.31618l0.22222,-0.68567l0.44443,-1.45703l1.33331,0.19284l-0.22222,0.74994c-0.12536,0.45711 -0.23932,0.85709 -0.34188,1.19992h5.89733c-0.10256,2.22841 -0.16524,3.47832 -0.18803,3.74973c-0.05698,0.68567 -0.16239,1.21776 -0.31624,1.59631c-0.15384,0.37855 -0.38745,0.64996 -0.70084,0.81423c-0.31338,0.16428 -0.74928,0.24641 -1.30767,0.24641h-1.47006l-0.23931,-1.37133h1.33331c0.51281,0 0.86608,-0.10357 1.05981,-0.3107c0.19373,-0.20712 0.30768,-0.56067 0.34187,-1.06063l0.08547,-1.07135c0.03418,-0.42854 0.05698,-0.79994 0.06838,-1.1142zM284.0631,179.71566v3.23548h6.82039v1.56418h-6.82039v5.33533h-1.3504v-5.33533h-6.82039v-1.56418h6.82039v-3.23548h-6.10245v-1.5856h6.10245v-7.84229h1.3504v7.84229h6.11954v1.5856zM359.34377,180.42275v1.45704h-1.76065l-0.10256,3.32119h1.53843v1.47847h-1.57262l-0.01709,0.38568c-0.03418,0.65709 -0.1282,1.16421 -0.28205,1.52132c-0.15384,0.35711 -0.39316,0.61067 -0.71794,0.76066c-0.32478,0.14999 -0.77776,0.22498 -1.35895,0.22498h-2.54696l-0.2564,-1.49989h2.39312c0.56979,0 0.96579,-0.09642 1.18801,-0.28927c0.22222,-0.19285 0.34473,-0.54639 0.36752,-1.06064v-0.04285h-7.67507l0.42734,-4.79966h-1.33331v-1.45704h1.45296l0.37607,-4.26398c-0.34188,0.54282 -0.60397,0.94279 -0.78631,1.19992l-0.87178,-1.15706c0.62677,-0.87136 1.2222,-1.86415 1.78629,-2.97835c0.56409,-1.1142 1.02277,-2.1927 1.37604,-3.23548l1.14528,0.49282c-0.19373,0.55711 -0.41595,1.13564 -0.66665,1.73559h7.48704v1.45704h-8.1366c-0.36467,0.75709 -0.69515,1.38561 -0.99144,1.88557h7.94858l-0.13675,4.86393zM375.42895,184.08677l1.02562,0.40711c-0.06838,0.79994 -0.16524,1.67131 -0.29059,2.6141c-0.12536,0.99992 -0.31054,1.68202 -0.55554,2.04628c-0.24501,0.36426 -0.56694,0.54639 -0.96579,0.54639c-0.72933,0 -1.31622,-0.70709 -1.76065,-2.12127c-0.13675,-0.44282 -0.25071,-0.87137 -0.34188,-1.28563c-0.75212,1.24276 -1.63529,2.40697 -2.64952,3.4926l-0.85468,-1.2642c1.33331,-1.42847 2.37602,-2.79979 3.12814,-4.11398c-0.39886,-2.55696 -0.64956,-5.64959 -0.75212,-9.2779h-5.28195v-1.47846h5.24776c-0.03418,-1.28562 -0.05128,-2.39268 -0.05128,-3.32118l1.17946,-0.02143c0.01139,0.31427 0.02849,1.42847 0.05128,3.34261h1.55553c-0.20513,-0.88565 -0.43304,-1.72131 -0.68375,-2.50696l0.99143,-0.42854c0.31908,1.09992 0.59258,2.07842 0.82049,2.9355h1.12819v1.47847h-3.7948c0.04559,2.85693 0.20512,5.37104 0.47862,7.54231c0.63817,-1.44276 1.25354,-3.37833 1.84612,-5.80672l1.05981,0.44996c-0.64956,2.85693 -1.50994,5.34248 -2.58115,7.45661c0.11396,0.64281 0.27349,1.29276 0.47862,1.94986c0.14814,0.44282 0.28205,0.74281 0.4017,0.89993c0.11966,0.15713 0.24786,0.2357 0.38461,0.2357c0.14814,0 0.2621,-0.11785 0.34187,-0.35354c0.07977,-0.23569 0.15954,-0.67496 0.23931,-1.31777zM268.23433,185.39382h5.57255v1.17849h-5.57255v0.7928c0,0.59995 -0.06268,1.06063 -0.18803,1.38204c-0.12536,0.3214 -0.33902,0.54996 -0.64101,0.68567c-0.30199,0.13571 -0.73218,0.20355 -1.29057,0.20355h-1.86321l-0.17094,-1.3499h2.15381c0.2849,0 0.48717,-0.07856 0.60683,-0.23569c0.11966,-0.15713 0.17948,-0.45711 0.17948,-0.89993v-0.57853h-5.81186v-1.17849h5.81186v-1.24277h-4.83752v-1.17849h4.83752v-1.32847l-4.94008,0.25713l-0.03419,-1.13563c4.90019,-0.24284 8.34743,-0.46425 10.34169,-0.66424l0.15384,1.15706c-0.99144,0.08571 -2.42731,0.19285 -4.30761,0.3214v1.39275h4.44437v1.17849h-4.44437zM310.18228,171.31626h14.76896v1.56418h-4.97427v3.14977h4.01702v13.86328h-1.21365v-1.62845h-10.47844v1.62845h-1.23075v-13.86328h3.84609v-3.14977h-4.73496zM341.8911,173.22327l-1.41878,5.46389c0.60398,0.98565 1.02562,1.86058 1.26493,2.62481c0.23931,0.76423 0.35897,1.57489 0.35897,2.43197c0,1.21419 -0.20512,2.07842 -0.61537,2.59267c-0.41025,0.51425 -1.09969,0.77138 -2.06834,0.77138h-0.97434l-0.25641,-1.52132h0.88887c0.67235,0 1.14243,-0.15356 1.41023,-0.46068c0.2678,-0.30712 0.4017,-0.85351 0.4017,-1.63917c0,-0.68567 -0.1339,-1.38562 -0.4017,-2.09985c-0.2678,-0.71424 -0.6923,-1.50704 -1.27348,-2.3784l1.38459,-5.80672h-2.87174v16.7345h-1.21366v-18.3201h5.38452zM245.2604,186.72229h-0.94015l-0.2735,-1.39276h0.8205c0.41025,0 0.70085,-0.10357 0.87178,-0.31069c0.17093,-0.20712 0.25641,-0.55353 0.25641,-1.03921c0,-0.4714 -0.09117,-0.92136 -0.2735,-1.3499c-0.18233,-0.42854 -0.49572,-0.92136 -0.94016,-1.47846l1.12819,-3.89972h-2.11962l0.03419,12.57766h-1.12819l-0.03418,-13.97042h4.52983v1.3499l-1.23074,3.72831c0.46723,0.65709 0.78061,1.24634 0.94015,1.76773c0.15954,0.52139 0.23932,1.07493 0.23932,1.6606c0,0.84279 -0.1453,1.44633 -0.43589,1.81059c-0.29059,0.36426 -0.77206,0.54639 -1.44442,0.54639zM251.31157,175.13027l1.21365,-0.34283c0.07977,0.22856 0.23932,0.77851 0.47863,1.64988h3.50421v1.37133h-1.29912c-0.09116,0.68567 -0.2849,1.78558 -0.58119,3.29976h1.77774v1.41418h-7.12807v1.2642c0,0.95708 -0.05413,1.7713 -0.16239,2.44268c-0.10826,0.67138 -0.30483,1.31062 -0.58973,1.91772c-0.2849,0.6071 -0.70084,1.24634 -1.24784,1.91772l-1.00853,-0.83566c0.53561,-0.62852 0.9316,-1.19991 1.18801,-1.71416c0.25641,-0.51425 0.42735,-1.07135 0.51282,-1.67131c0.08547,-0.59995 0.1282,-1.3999 0.1282,-2.39983v-2.33554h1.79484c-0.07977,-0.67138 -0.2564,-1.7713 -0.5299,-3.29976h-1.57262v-1.37133h3.89737l-0.15385,-0.53567c-0.13675,-0.48568 -0.21082,-0.74281 -0.22222,-0.77138zM312.3019,177.61581v9.10648h10.47844v-3.21405h-1.94869c-0.77492,0 -1.31907,-0.19285 -1.63245,-0.57853c-0.31338,-0.38568 -0.47008,-1.05707 -0.47008,-2.01414v-3.29976h-2.56405v0.02142c0,1.28562 -0.07407,2.32841 -0.22222,3.12835c-0.14814,0.79994 -0.4245,1.50704 -0.82905,2.12127c-0.40455,0.61424 -1.00568,1.23562 -1.80338,1.86415l-0.82049,-1.13563c0.74072,-0.59995 1.27918,-1.14992 1.61535,-1.64988c0.33618,-0.49997 0.55555,-1.06063 0.65811,-1.68202c0.10256,-0.62139 0.15384,-1.5106 0.15384,-2.66766zM365.99322,183.78679l0.18803,1.60703c-0.62677,0.21427 -1.49854,0.52496 -2.61533,0.93207c-1.11679,0.40712 -1.83473,0.68924 -2.15381,0.84637l-0.2735,-1.62846l2.03415,-0.70709v-7.56374h-1.72646v-1.54274h1.72646v-5.20676h1.19655v5.20676h1.53844v1.54274h-1.53844v7.1352zM251.07226,170.41633h1.21365v1.73559h4.23924v1.39275h-4.23924v1.04993h-1.21365v-1.04993h-3.8119v1.41419h-1.21365v-1.41419h-4.23924v-1.39275h4.23924v-1.73559h1.21365v1.73559h3.8119zM302.2679,185.86521v-3.21405h1.24784v4.67109h-9.52119v-4.67109h1.24784v3.21405h2.85465v-3.94257h1.33331v3.94257zM335.17328,174.23034h-1.28203c-0.13675,1.32847 -0.31339,2.57838 -0.52991,3.74973h2.30765v1.54274h-8.56394v-1.54274h2.188c-0.21652,-1.62846 -0.41595,-2.87837 -0.59828,-3.74973h-1.16237v-1.52132h3.33327c-0.14814,-0.75709 -0.31908,-1.45703 -0.51281,-2.09984l1.26494,-0.38568c0.22791,0.85708 0.42164,1.68559 0.58118,2.48553h2.97431zM329.29304,188.11505v1.43561h-1.19656v-8.07799h6.5298v6.64238zM349.85677,185.20097h6.41014l0.03419,-0.7928c0.04559,-0.97136 0.07407,-1.81415 0.08547,-2.52839h-6.22211zM356.5575,177.01585h-5.94861l-0.30768,3.40689h6.13664c0.07977,-1.957 0.11966,-3.09263 0.11966,-3.40689zM370.4034,183.4011h-3.89736v-6.04242h3.89736zM345.6859,189.76493l-1.23075,-0.4714l1.65809,-7.37089l1.16237,0.44997c-0.09116,0.39997 -0.58119,2.6641 -1.47006,6.79237zM329.29304,186.65801h4.13667v-3.66402h-4.13667zM370.54015,184.79386l0.18803,1.54274c-0.63817,0.1857 -1.58117,0.46783 -2.82901,0.84637c-1.24784,0.37855 -2.00851,0.61782 -2.28201,0.7178l-0.2735,-1.56418c0.67235,-0.1857 1.63529,-0.46068 2.88883,-0.82494c1.25354,-0.36426 2.02276,-0.60352 2.30765,-0.7178zM288.61003,171.31626l1.02562,1.07135c-0.43304,0.67138 -1.34471,2.01414 -2.735,4.02828l-0.51281,0.74994l-0.97434,-1.07135c0.43304,-0.57138 0.96864,-1.33919 1.60681,-2.3034c0.63817,-0.96421 1.16807,-1.78915 1.58972,-2.47482zM281.32811,176.03021l-1.00853,1.1142l-3.21361,-4.7568l0.94015,-1.09277zM322.78034,181.94407v-4.32826h-2.80337v2.78551c0,0.42854 0.03704,0.74995 0.11111,0.96422c0.07407,0.21427 0.19943,0.36425 0.37606,0.44996c0.17663,0.08571 0.44159,0.12857 0.79486,0.12857zM251.15773,181.10841h2.23927c0.2735,-1.4856 0.46153,-2.58552 0.56409,-3.29976h-3.35037c0.20513,1.09992 0.38746,2.19984 0.547,3.29976zM332.72888,174.23034h-2.82047c0.29629,1.7713 0.49572,3.02121 0.59828,3.74973h1.69228c0.20513,-1.1142 0.38176,-2.36411 0.52991,-3.74973zM316.16508,172.88044v3.14977h2.56405v-3.14977zM347.72005,178.53717l-0.73503,1.34991c-1.39029,-1.51417 -2.31335,-2.48553 -2.76918,-2.91407l0.73503,-1.24277zM348.19868,173.41611l-0.70084,1.2642c-0.83189,-0.85708 -1.74926,-1.76416 -2.75209,-2.72124l0.73503,-1.22134c0.63817,0.59995 1.54413,1.49275 2.7179,2.67838zM301.1739,176.84443l-0.78631,1.17849c-1.27633,-1.27133 -2.18799,-2.14984 -2.73499,-2.63553l0.75212,-1.17848c0.49002,0.44282 1.41308,1.32133 2.76918,2.63552zM367.53165,178.75144v3.25691h1.82903v-3.25691zM354.6601,184.04391l-0.71794,1.1142c-0.2507,-0.2857 -0.59543,-0.64281 -1.03417,-1.07135c-0.43874,-0.42854 -0.82904,-0.79994 -1.17092,-1.11421l0.64956,-1.07135c0.78631,0.71424 1.54413,1.42847 2.27346,2.1427zM352.04476,178.15148l0.64956,-1.09278c1.00283,0.91422 1.73216,1.61417 2.18799,2.09985l-0.68375,1.15706c-0.61537,-0.65709 -1.33331,-1.37848 -2.15381,-2.16413z" fill="#ffffff" fill-rule="evenodd" stroke="#ffffff" stroke-width="0.5" stroke-linecap="round"/><path d="M240,196v-32h208v32z" fill="none" fill-rule="nonzero" stroke="none" stroke-width="0" stroke-linecap="butt"/></g></g></svg>