<svg version="1.1" xmlns="http://www.w3.org/2000/svg" xmlns:xlink="http://www.w3.org/1999/xlink" width="208" height="32" viewBox="0,0,208,32"><g transform="translate(-240,-164)"><g stroke="none" stroke-miterlimit="10"><path d="M240,196v-32h208v32z" fill="none" stroke-width="0"/><path d="M245.45,179.12c0.86587,0.59896 1.6764,1.24676 2.4316,1.9434v-0.79101h11.123v9.2285h-1.9629v-0.82031h-7.1777v0.82031h-1.9824v-8.1836l-1.0156,1.6113c-0.48177,-0.57292 -0.95377,-1.08399 -1.416,-1.5332v8.1055h-2.0606v-7.998c-0.77473,0.8724 -1.49087,1.6146 -2.1484,2.2266l-1.0156,-1.8555c2.18747,-1.91407 3.8411,-4.01367 4.9609,-6.2988h-4.5215v-1.9434h2.6367v-3.1348h2.0801v3.1348h1.5039l0.89843,0.9375c-0.61197,1.40627 -1.38997,2.81577 -2.334,4.2285zM249.8641,181.8544v1.8164h2.6465v-1.8164zM249.8641,185.1747v1.8848h2.6465v-1.8848zM257.0418,187.0595v-1.8848h-2.7344v1.8848zM257.0418,183.6708v-1.8164h-2.7344v1.8164zM258.0672,174.1786v4.9609h-9.3262v-4.9609zM250.7039,175.6825v1.9727h5.3418v-1.9727zM247.5887,171.2977h11.699v1.6992h-11.699z" fill="#ffffff" stroke-width="1"/><path d="M280.19066,181.96154h19.44375v2.10027h-19.44375v-2.10027M284.49947,174.72967h10.78284v1.9054h-10.78284v-1.9054M284.52112,178.32395h10.80449v1.88375h-10.80449v-1.88375M283.54677,171.04879h13.22955v11.86545h-2.33845v-9.91674h-8.63926v9.91674h-2.25184v-11.86545M292.12107,184.88459l1.97036,-0.86609c0.6207,0.49078 1.26016,1.04653 1.91839,1.66723c0.65535,0.6207 1.26882,1.22985 1.84044,1.82746c0.56874,0.60049 1.04075,1.13169 1.41606,1.5936l-2.03532,1.06097c-0.36087,-0.49078 -0.82567,-1.05086 -1.39441,-1.68022c-0.57162,-0.62647 -1.18221,-1.25727 -1.83178,-1.89241c-0.64957,-0.63513 -1.27748,-1.20531 -1.88375,-1.71053M282.11771,189.71305c-0.0433,-0.17322 -0.10826,-0.38975 -0.19487,-0.64957c-0.08661,-0.25983 -0.17322,-0.5312 -0.25983,-0.81412c-0.08661,-0.28003 -0.18043,-0.5211 -0.28148,-0.72319c0.24539,-0.05774 0.49079,-0.1559 0.73618,-0.29447c0.24539,-0.13569 0.51244,-0.31901 0.80114,-0.54997c0.21652,-0.14435 0.53842,-0.40417 0.96569,-0.77948c0.42438,-0.3753 0.8964,-0.83001 1.41606,-1.3641c0.51966,-0.53409 0.99601,-1.09705 1.42905,-1.68888l2.38175,0.9094c-0.83722,0.93827 -1.72785,1.82889 -2.67189,2.67189c-0.94693,0.84589 -1.86066,1.55752 -2.74118,2.13492v0.04331c0,0 -0.07939,0.03609 -0.23818,0.10826c-0.15879,0.07217 -0.34211,0.16167 -0.54997,0.26849c-0.21075,0.1097 -0.39551,0.22951 -0.5543,0.35942c-0.15879,0.12992 -0.23818,0.25261 -0.23818,0.36809M282.11771,189.71305l-0.02165,-1.60227l1.38574,-0.75783l12.53668,-0.498c0.0433,0.28869 0.10826,0.60915 0.19487,0.96136c0.08661,0.3551 0.15157,0.64091 0.19487,0.85743c-1.99201,0.10104 -3.70976,0.19054 -5.15324,0.26849c-1.44349,0.08084 -2.66323,0.15012 -3.65924,0.20786c-0.99601,0.05774 -1.81446,0.10826 -2.45537,0.15157c-0.6438,0.04331 -1.15623,0.08228 -1.53731,0.11692c-0.38396,0.03753 -0.6871,0.07794 -0.9094,0.12125c-0.22519,0.04331 -0.41717,0.10105 -0.57595,0.17322z" fill="#ffffff" stroke-width="1"/><path d="M277.24393,179.37139h2.29066c0,0 -0.00288,0.05763 -0.00864,0.17288c-0.00864,0.11525 -0.01297,0.24491 -0.01297,0.38898c0,0.14407 -0.0072,0.27373 -0.02161,0.38898c-0.10085,1.93049 -0.2089,3.49649 -0.32415,4.69801c-0.11525,1.2044 -0.25212,2.13074 -0.41059,2.77904c-0.15847,0.6483 -0.35296,1.10931 -0.58347,1.38304c-0.24491,0.28813 -0.50711,0.48983 -0.7866,0.60508c-0.28237,0.11525 -0.61084,0.19449 -0.98542,0.23771c-0.31695,0.04322 -0.73042,0.06483 -1.24041,0.06483c-0.51288,0 -1.05025,-0.0072 -1.6121,-0.02161c-0.02881,-0.31695 -0.10373,-0.67711 -0.22474,-1.0805c-0.1239,-0.40339 -0.27229,-0.74194 -0.44517,-1.01567c0.53305,0.04322 1.03008,0.06771 1.49109,0.07347c0.46101,0.00864 0.79957,0.01297 1.01567,0.01297c0.18729,0 0.34144,-0.01441 0.46245,-0.04322c0.1239,-0.02881 0.24347,-0.10085 0.35873,-0.2161c0.15847,-0.17288 0.30254,-0.54745 0.4322,-1.12372c0.12966,-0.57627 0.24203,-1.42626 0.33712,-2.54998c0.0922,-1.12372 0.18152,-2.586 0.26796,-4.38683v-0.36737M266.5686,182.09425h2.13939v5.12157h-2.13939v-5.12157M271.9711,182.93704h2.11778v6.02918h-2.11778v-6.02918M261.3606,182.98026h2.11778v3.4576h9.37873v1.92329h-11.49651v-5.38089M274.82361,171.85112h2.161c0,0 0,0.10085 0,0.30254c0,0.20169 -0.0072,0.36737 -0.02161,0.49703c-0.07203,1.0805 -0.14695,1.98092 -0.22474,2.70125c-0.08068,0.72033 -0.17432,1.2894 -0.28093,1.70719c-0.10949,0.41779 -0.25788,0.72033 -0.44517,0.90762c-0.17288,0.2161 -0.36305,0.37025 -0.5705,0.46245c-0.21034,0.09508 -0.45237,0.15703 -0.7261,0.18585c-0.23051,0.04322 -0.52872,0.06771 -0.89465,0.07347c-0.36881,0.00864 -0.76211,0.00576 -1.1799,-0.00864c-0.02881,-0.31695 -0.09364,-0.66703 -0.19449,-1.05025c-0.10085,-0.38034 -0.23051,-0.70737 -0.38898,-0.98109c0.33135,0.02881 0.63389,0.05042 0.90762,0.06483c0.27373,0.01441 0.48262,0.02161 0.62669,0.02161c0.12966,0 0.24491,-0.01441 0.34576,-0.04322c0.10085,-0.02881 0.18729,-0.08644 0.25932,-0.17288c0.14407,-0.15847 0.26652,-0.56186 0.36737,-1.21016c0.10085,-0.6483 0.18729,-1.70719 0.25932,-3.17667v-0.28093M268.47028,169.94944l2.76608,0.23771c-0.23051,0.53305 -0.48983,1.04736 -0.77796,1.54295c-0.28813,0.49847 -0.54745,0.92779 -0.77796,1.28795l-2.05295,-0.36737c0.15847,-0.40339 0.32127,-0.8572 0.48839,-1.36143c0.16424,-0.50423 0.28237,-0.95084 0.3544,-1.33982M266.09318,175.95701l1.14533,-1.46948c0.50423,0.17288 1.04448,0.38178 1.62075,0.62669c0.57627,0.24491 1.12804,0.49703 1.65532,0.75635c0.5244,0.25932 0.95948,0.50423 1.30524,0.73474l-1.21016,1.62075c-0.31695,-0.23051 -0.73474,-0.48262 -1.25338,-0.75635c-0.51864,-0.27373 -1.06177,-0.54457 -1.62939,-0.81254c-0.5705,-0.26508 -1.11507,-0.49847 -1.63371,-0.70016M275.49352,171.85112v2.07456h-10.28635v5.44572h12.72828v2.03134h-14.99733v-9.55161z" fill="#ffffff" stroke-width="1"/></g></g></svg>