<svg version="1.1" xmlns="http://www.w3.org/2000/svg" xmlns:xlink="http://www.w3.org/1999/xlink" width="175.62115" height="32" viewBox="0,0,175.62115,32"><g transform="translate(-240,-164)"><g stroke="none" stroke-miterlimit="10"><path d="M244.84761,178.70676v1.6757h6.33974v-1.6757h-6.33974M243.17486,176.95031h9.76888v5.16841h-9.76888v-5.16841M242.1712,183.51176h11.89328v6.60183h-1.80658v-4.72425h-8.38049v4.74444h-1.70621v-6.62202M242.99085,187.61015h10.05325v1.8574h-10.05325v-1.8574M240.93337,173.39703h14.26859v4.54254h-1.87348v-2.42269h-10.60526v2.42269h-1.78984v-4.54254M246.47018,171.76171l1.84002,-0.64605c0.22304,0.45762 0.43827,0.95561 0.64569,1.49399c0.20519,0.53838 0.35239,1.00946 0.4416,1.41324l-1.95712,0.70661c-0.06691,-0.39032 -0.19181,-0.86813 -0.3747,-1.43342c-0.18512,-0.56529 -0.38361,-1.07675 -0.5955,-1.53437zM257.19253,174.81027h15.1886v2.11985h-15.1886v-2.11985M259.9693,187.10542h9.55143v2.05928h-9.55143v-2.05928M263.79991,171.29736h1.95712v10.63965h-1.95712v-10.63965M258.93219,180.74586h11.726v9.30717h-1.95712v-7.22769h-7.91213v7.30845h-1.85676zM287.01773,180.03924h1.77312c0,0 -0.00223,0.05384 -0.00669,0.16152c-0.00669,0.10768 -0.01004,0.22881 -0.01004,0.36341c0,0.13459 -0.00558,0.25573 -0.01673,0.3634c-0.07806,1.80356 -0.1617,3.26659 -0.25091,4.38911c-0.08922,1.1252 -0.19515,1.99065 -0.31783,2.59632c-0.12267,0.60567 -0.27321,1.03637 -0.45164,1.2921c-0.18958,0.26918 -0.39366,0.45762 -0.61223,0.56529c-0.21634,0.10768 -0.46948,0.1817 -0.75943,0.22208c-0.24534,0.04038 -0.56539,0.06056 -0.96016,0.06056c-0.397,0 -0.81296,-0.00673 -1.24787,-0.02019c-0.02231,-0.29611 -0.08029,-0.63259 -0.17397,-1.00945c-0.09591,-0.37687 -0.21077,-0.69316 -0.34459,-0.94889c0.41262,0.04038 0.79735,0.06326 1.1542,0.06864c0.35685,0.00807 0.61892,0.01211 0.7862,0.01211c0.14497,0 0.26541,-0.01345 0.36131,-0.04037c0.09368,-0.02692 0.18511,-0.09422 0.27433,-0.20189c0.12267,-0.16152 0.23419,-0.51146 0.33455,-1.04984c0.10037,-0.53838 0.18735,-1.33248 0.26095,-2.38231c0.07137,-1.04984 0.14051,-2.41596 0.20742,-4.09839v-0.34322M278.75433,182.58307h1.65602v4.78481h-1.65602v-4.78481M282.93621,183.37044h1.6393v5.63276h-1.6393v-5.63276M274.72299,183.41082h1.6393v3.23025h7.25976v1.79683h-8.89905v-5.02708M285.14425,173.01344h1.67275c0,0 0,0.09421 0,0.28265c0,0.18843 -0.00558,0.34322 -0.01673,0.46435c-0.05576,1.00946 -0.11486,1.85066 -0.17731,2.52363c-0.06022,0.67297 -0.1316,1.20462 -0.21411,1.59494c-0.08475,0.39032 -0.19961,0.67297 -0.34458,0.84794c-0.13382,0.20189 -0.28214,0.34591 -0.44495,0.43205c-0.16059,0.08883 -0.34681,0.1467 -0.5587,0.17362c-0.17843,0.04038 -0.41038,0.06326 -0.69587,0.06864c-0.28325,0.00807 -0.58657,0.00538 -0.90997,-0.00808c-0.02231,-0.29611 -0.07249,-0.62317 -0.15055,-0.98119c-0.07806,-0.35533 -0.17842,-0.66085 -0.30109,-0.91658c0.25649,0.02692 0.49067,0.04711 0.70255,0.06057c0.21188,0.01346 0.37358,0.02019 0.4851,0.02019c0.10037,0 0.18958,-0.01346 0.26764,-0.04038c0.07806,-0.02692 0.14497,-0.08076 0.20073,-0.16151c0.11151,-0.14805 0.20631,-0.52491 0.28437,-1.13059c0.07806,-0.60567 0.14497,-1.59494 0.20073,-2.9678v-0.26246M280.22635,171.2368l2.14112,0.22208c-0.17843,0.498 -0.37916,0.9785 -0.60219,1.4415c-0.22303,0.4657 -0.42376,0.86678 -0.60219,1.20327l-1.58911,-0.34321c0.12267,-0.37687 0.24868,-0.80084 0.37804,-1.27192c0.12713,-0.47108 0.21857,-0.88832 0.27434,-1.25172M278.38632,176.84936l0.88656,-1.37285c0.39031,0.16152 0.80849,0.35667 1.25457,0.58548c0.44607,0.22881 0.87207,0.46435 1.27799,0.70662c0.40815,0.24227 0.74605,0.47108 1.01369,0.68643l-0.93674,1.51418c-0.24534,-0.21535 -0.56874,-0.45089 -0.9702,-0.70662c-0.40146,-0.25573 -0.823,-0.50876 -1.2646,-0.75911c-0.43937,-0.24766 -0.8598,-0.4657 -1.26126,-0.65413M285.6628,173.01344v1.93815h-7.96231v5.08765h9.85252v1.89777h-11.60891v-8.92357zM292.60472,186.88334h11.37473v1.99872h-11.37473v-1.99872M291.60107,176.95031h13.44894v13.08253h-1.8233v-11.08381h-9.88598v11.12419h-1.73967v-13.12291M290.73124,172.46833h14.93769v2.09966h-14.93769v-2.09966M295.58223,173.76043h1.60584v4.54254c0,0.76719 -0.07806,1.54783 -0.23418,2.34194c-0.15612,0.79411 -0.46056,1.54379 -0.91332,2.24907c-0.45053,0.70797 -1.12187,1.31767 -2.014,1.82913c-0.06691,-0.14805 -0.16728,-0.32034 -0.3011,-0.51684c-0.13382,-0.19382 -0.27098,-0.38898 -0.41149,-0.58549c-0.13828,-0.19382 -0.26319,-0.33783 -0.3747,-0.43204c0.79177,-0.4307 1.37501,-0.91524 1.74971,-1.45362c0.37246,-0.53838 0.61446,-1.10367 0.72598,-1.69589c0.11151,-0.59222 0.16727,-1.19115 0.16727,-1.79682v-4.48198M299.12847,173.74024h1.72294v7.63147c0,0.32303 0.02787,0.52492 0.08364,0.60568c0.05576,0.08076 0.21188,0.12113 0.46837,0.12113c0.0446,0 0.13605,0 0.27434,0c0.14051,0 0.2944,0 0.46168,0c0.16728,0 0.32005,0 0.45833,0c0.14051,0 0.24422,0 0.31113,0c0.15612,0 0.25983,-0.01346 0.31113,-0.04038c0.04906,-0.02692 0.09033,-0.0673 0.12378,-0.12114c0.16728,0.16152 0.39923,0.3163 0.69587,0.46435c0.2944,0.14805 0.56985,0.24899 0.82634,0.30283c-0.12267,0.53838 -0.31782,0.90851 -0.58546,1.1104c-0.26764,0.20189 -0.66352,0.30284 -1.18766,0.30284c-0.08922,0 -0.22303,0 -0.40146,0c-0.17843,0 -0.37358,0 -0.58546,0c-0.21188,0 -0.4037,0 -0.57543,0c-0.17397,0 -0.30555,0 -0.39477,0c-0.53528,0 -0.94789,-0.08075 -1.23783,-0.24227c-0.28994,-0.16152 -0.49068,-0.44147 -0.60219,-0.83987c-0.11151,-0.3957 -0.16728,-0.9435 -0.16728,-1.64339zM307.55915,176.18312h4.95135v2.16024h-4.95135v-2.16023M315.78909,171.66077h1.87349v14.67747c0,0.55184 0.0446,0.90178 0.13382,1.04983c0.08922,0.14805 0.29552,0.22208 0.61892,0.22208c0.06691,0 0.18958,0 0.36801,0c0.17843,0 0.37358,0 0.58546,0c0.21188,0 0.40704,0 0.58546,0c0.17843,0 0.31224,0 0.40146,0c0.22303,0 0.39366,-0.1144 0.51187,-0.34321c0.11597,-0.22881 0.20184,-0.64336 0.25761,-1.24365c0.05576,-0.5976 0.10037,-1.4415 0.13382,-2.53171c0.15612,0.13459 0.33455,0.26919 0.53528,0.40378c0.20073,0.13459 0.40704,0.25169 0.61892,0.35129c0.21188,0.10229 0.40146,0.18035 0.56874,0.23419c-0.05576,1.26519 -0.1617,2.28406 -0.31783,3.05663c-0.15612,0.77526 -0.39812,1.33787 -0.72598,1.68781c-0.33009,0.34994 -0.80181,0.52491 -1.41515,0.52491c-0.08922,0 -0.24534,0 -0.46837,0c-0.22303,0 -0.46614,0 -0.72932,0c-0.26095,0 -0.49737,0 -0.70925,0c-0.21188,0 -0.368,0 -0.46837,0c-0.60219,0 -1.07391,-0.10498 -1.41515,-0.31495c-0.33901,-0.20728 -0.581,-0.55991 -0.72598,-1.05791c-0.14497,-0.498 -0.21746,-1.19116 -0.21746,-2.07948v-14.63709M311.62394,171.64058h1.87348v18.3115h-1.87348v-18.3115M321.30918,174.68913l1.28802,1.93815c-0.55759,0.47108 -1.1542,0.94215 -1.78985,1.41323c-0.63565,0.47108 -1.28467,0.9287 -1.94708,1.37286c-0.66464,0.44416 -1.31479,0.8614 -1.95043,1.25172c-0.06691,-0.24227 -0.17285,-0.52895 -0.31782,-0.86005c-0.14497,-0.32841 -0.28437,-0.60702 -0.41819,-0.83583c0.61334,-0.39032 1.23003,-0.83179 1.85007,-1.3244c0.6178,-0.48992 1.21107,-0.99061 1.77981,-1.50207c0.56874,-0.51146 1.07056,-0.99599 1.50548,-1.45361M306.99041,185.40954c0.45722,-0.17497 0.98469,-0.38763 1.58243,-0.63798c0.5955,-0.24766 1.2278,-0.51684 1.8969,-0.80756c0.6691,-0.28803 1.33263,-0.5801 1.99058,-0.8762l0.33455,1.95834c-0.84753,0.45762 -1.70956,0.90851 -2.58608,1.35267c-0.8743,0.44416 -1.67944,0.84794 -2.41545,1.21134zM330.22496,176.84936h1.67275c-0.07806,0.84794 -0.1617,1.73895 -0.25091,2.67303c-0.08922,0.93678 -0.18735,1.86547 -0.2944,2.7861c-0.10483,0.92332 -0.20407,1.79818 -0.29775,2.62458c-0.09591,0.8291 -0.18846,1.55994 -0.27768,2.19253h-1.73966c0.11151,-0.65951 0.22303,-1.41055 0.33455,-2.25311c0.11151,-0.83987 0.21969,-1.72145 0.32452,-2.64477c0.10706,-0.92063 0.20519,-1.84259 0.2944,-2.76591c0.08922,-0.92063 0.16728,-1.79145 0.23419,-2.61247M332.73409,179.1913l0.93674,-0.7268c0.30109,0.28265 0.61334,0.6124 0.93674,0.98926c0.3234,0.37687 0.57431,0.70662 0.75274,0.98926l-0.98693,0.82775c-0.15612,-0.29611 -0.39254,-0.64336 -0.70925,-1.04175c-0.31894,-0.3957 -0.62896,-0.74161 -0.93005,-1.03772M332.28245,183.37044l0.98692,-0.74699c0.33455,0.30956 0.6836,0.66625 1.04715,1.07003c0.36131,0.40378 0.64234,0.76718 0.84307,1.09021l-1.02038,0.84794c-0.18958,-0.30956 -0.46279,-0.6797 -0.81965,-1.1104c-0.35685,-0.4307 -0.70256,-0.8143 -1.03711,-1.15078M330.45914,173.39703h8.64814v1.95834h-8.64814v-1.95834M330.92752,176.84936h6.37319v1.85739h-6.37319v-1.85739M328.11729,180.88718h11.4249v1.95834h-11.4249v-1.95834M329.94059,185.26821h9.16669v1.8574h-9.16669v-1.8574M330.55951,171.27717l1.73967,0.5451c-0.22303,0.83448 -0.49291,1.66493 -0.80962,2.49134c-0.31894,0.8291 -0.65684,1.60705 -1.01369,2.33386c-0.35685,0.72681 -0.71929,1.36613 -1.08729,1.91797c-0.11151,-0.12114 -0.26541,-0.25573 -0.46168,-0.40378c-0.19404,-0.14805 -0.38585,-0.29611 -0.57542,-0.44416c-0.18958,-0.14805 -0.35685,-0.26918 -0.50182,-0.3634c0.37916,-0.48454 0.73824,-1.05388 1.07725,-1.708c0.34124,-0.65143 0.65126,-1.35132 0.93006,-2.09966c0.2788,-0.74565 0.51297,-1.50207 0.70255,-2.26925M336.78216,176.84936h1.67275c0,0 -0.00223,0.06057 -0.00669,0.18171c-0.00669,0.12114 -0.01004,0.25169 -0.01004,0.39166c0,0.14267 -0.00558,0.26112 -0.01673,0.35533c-0.06691,1.9247 -0.13382,3.55597 -0.20073,4.89383c-0.06691,1.34055 -0.14162,2.44153 -0.22414,3.30293c-0.08475,0.8614 -0.18066,1.53437 -0.28771,2.01891c-0.10483,0.48454 -0.22973,0.83448 -0.3747,1.04983c-0.18958,0.30956 -0.38696,0.52088 -0.59215,0.63394c-0.20742,0.11575 -0.44495,0.20054 -0.71259,0.25438c-0.24534,0.04038 -0.55758,0.06057 -0.93674,0.06057c-0.37916,0 -0.77504,-0.01346 -1.18766,-0.04038c-0.01115,-0.26918 -0.05576,-0.57202 -0.13382,-0.90851c-0.07806,-0.33649 -0.184,-0.63259 -0.31782,-0.88832c0.39031,0.04038 0.74716,0.0673 1.07056,0.08076c0.3234,0.01346 0.56316,0.02018 0.71929,0.02018c0.14497,0 0.26206,-0.02423 0.35128,-0.07268c0.08922,-0.04576 0.17843,-0.12921 0.26764,-0.25035c0.11151,-0.14805 0.21188,-0.44819 0.30109,-0.90043c0.08922,-0.44955 0.17285,-1.08886 0.25091,-1.91796c0.07806,-0.8264 0.1472,-1.88298 0.20743,-3.16969c0.06245,-1.28403 0.11598,-2.84128 0.16058,-4.67176v-0.42397M324.87215,173.074l1.00366,-1.4738c0.3234,0.17497 0.67133,0.38359 1.04379,0.62586c0.37469,0.24227 0.73267,0.49126 1.07391,0.74699c0.33901,0.25573 0.61445,0.49127 0.82634,0.70662l-1.05383,1.63531c-0.20073,-0.21535 -0.46503,-0.46166 -0.79289,-0.73892c-0.33009,-0.27457 -0.68137,-0.54376 -1.05383,-0.80756c-0.37469,-0.26111 -0.72375,-0.49262 -1.04715,-0.6945M323.93541,178.84808l0.97019,-1.45362c0.3234,0.17497 0.66129,0.37956 1.01369,0.61375c0.35017,0.23689 0.6836,0.47646 1.00031,0.71873c0.31894,0.24227 0.57877,0.47108 0.7795,0.68643l-1.0371,1.65551c-0.17843,-0.22881 -0.42377,-0.47781 -0.73602,-0.74699c-0.31225,-0.26918 -0.64457,-0.53164 -0.99696,-0.78737c-0.35017,-0.25573 -0.68136,-0.48454 -0.99361,-0.68643M324.40378,188.63979c0.22303,-0.52491 0.4706,-1.14405 0.74271,-1.85739c0.27433,-0.71335 0.54866,-1.4738 0.82299,-2.28137c0.2721,-0.80757 0.52524,-1.60166 0.75943,-2.38231l1.37165,1.17096c-0.20073,0.71335 -0.42153,1.44688 -0.66241,2.20061c-0.23865,0.75373 -0.48287,1.50073 -0.73266,2.24099c-0.25203,0.74026 -0.50071,1.43342 -0.74605,2.07948zM340.66294,176.16293h4.60008v2.0391h-4.60008v-2.0391M342.25206,171.55982h1.67275v13.54688h-1.67275v-13.54688M340.52912,185.47011c0.59104,-0.29611 1.30475,-0.69316 2.14113,-1.19116c0.83637,-0.498 1.67833,-1.00946 2.52586,-1.53437l0.50182,1.91797c-0.74716,0.51146 -1.5144,1.02964 -2.30171,1.55456c-0.78508,0.52491 -1.51774,1.00272 -2.198,1.43342l-0.66911,-2.18042M345.53066,174.14402h10.50489v1.95834h-10.50489v-1.95834M345.0121,185.91427c0.49068,-0.10768 1.0516,-0.249 1.68279,-0.42398c0.62896,-0.17497 1.30029,-0.36071 2.014,-0.55721c0.71371,-0.19382 1.42741,-0.3984 2.14112,-0.61375l0.16728,1.81702c-0.97019,0.32303 -1.94374,0.64201 -2.92063,0.95696c-0.97466,0.31764 -1.86345,0.60433 -2.66637,0.86006l-0.41819,-2.0391M350.93365,171.31755h1.72294c-0.01115,1.41323 0,2.80897 0.03346,4.18721c0.03346,1.38093 0.09145,2.69727 0.17397,3.94899c0.08475,1.25172 0.18846,2.4025 0.31113,3.45234c0.12267,1.04984 0.26207,1.96507 0.41819,2.74571c0.15612,0.78064 0.32563,1.38228 0.50852,1.8049c0.18512,0.42532 0.37804,0.63798 0.57877,0.63798c0.13382,0 0.23753,-0.20189 0.31113,-0.60567c0.07137,-0.40378 0.1182,-1.07675 0.14051,-2.01891c0.16728,0.24227 0.36578,0.46704 0.5955,0.67432c0.22749,0.20997 0.43603,0.37552 0.62561,0.49665c-0.07806,0.88832 -0.18957,1.58821 -0.33455,2.09966c-0.14497,0.51146 -0.34236,0.87082 -0.59215,1.0781c-0.25203,0.20997 -0.57877,0.31495 -0.98023,0.31495c-0.46837,0 -0.88099,-0.24631 -1.23784,-0.73892c-0.35685,-0.48992 -0.66352,-1.17904 -0.92001,-2.06736c-0.25649,-0.88832 -0.4706,-1.92873 -0.64234,-3.12123c-0.17397,-1.18981 -0.30779,-2.48865 -0.40147,-3.8965c-0.09591,-1.40516 -0.1695,-2.87223 -0.2208,-4.40122c-0.04906,-1.5263 -0.07918,-3.05663 -0.09033,-4.591M353.05805,172.36738l1.02038,-1.04983c0.33455,0.28265 0.68918,0.6124 1.06387,0.98926c0.37246,0.37687 0.65349,0.71335 0.84307,1.00946l-1.05383,1.19116c-0.20073,-0.30956 -0.47729,-0.66624 -0.82968,-1.07002c-0.35017,-0.40378 -0.6981,-0.76046 -1.0438,-1.07003M354.17879,177.59636l1.60584,0.36341c-0.53528,2.67842 -1.3014,5.03651 -2.29836,7.07426c-0.99919,2.04045 -2.24037,3.69999 -3.72355,4.97863c-0.08922,-0.12114 -0.21188,-0.27322 -0.368,-0.45628c-0.15612,-0.18035 -0.31782,-0.35532 -0.4851,-0.52491c-0.16728,-0.1669 -0.31225,-0.30419 -0.43492,-0.41186c1.48318,-1.11713 2.68979,-2.61785 3.61984,-4.50216c0.93228,-1.88431 1.62703,-4.05801 2.08425,-6.52108M347.35396,179.29224v2.72553h1.53894v-2.72553h-1.53894M346.01576,177.61655h4.28225v6.0971h-4.28225z" fill="#ffffff" stroke-width="1"/><path d="M240,196v-32h175.62115v32z" fill="none" stroke-width="0"/></g></g></svg>