<svg version="1.1" xmlns="http://www.w3.org/2000/svg" xmlns:xlink="http://www.w3.org/1999/xlink" width="208" height="32" viewBox="0,0,208,32"><g transform="translate(-240,-164)"><g stroke-miterlimit="10"><path d="M240,196v-32h208v32z" fill="none" fill-rule="nonzero" stroke="none" stroke-width="0" stroke-linecap="butt"/><path d="M245.58364,182.77c0.79722,0.51432 1.67968,1.23699 2.64738,2.168l-0.9402,1.8164c-0.62128,-0.8268 -1.19034,-1.50713 -1.70718,-2.041v4.7852h-1.69072v-5.2148c-0.74227,1.6146 -1.62473,2.9655 -2.64738,4.0527l-0.96494,-1.8457c1.22606,-1.02867 2.24596,-2.30797 3.05967,-3.8379h-2.60608v-1.7188h3.15865v-1.9043h-3.48032v-1.7969h1.80616c-0.14295,-0.8268 -0.34363,-1.7285 -0.60205,-2.7051h-0.88243v-1.8164h3.12571v-2.2168h1.75667v2.2168h2.99372v1.8164h-0.88243c-0.20343,0.97653 -0.45635,1.87823 -0.75874,2.7051h1.88859v1.7969h-3.27418v1.9043h2.96897v1.7188h-2.96897zM243.25793,174.5278c0.20893,0.8138 0.39037,1.7155 0.54431,2.7051h1.63295c0.25291,-0.83987 0.47009,-1.74157 0.65153,-2.7051zM251.01859,179.2739c0.00563,2.01827 -0.12632,3.89 -0.39587,5.6152c-0.2804,1.79033 -0.77799,3.3919 -1.49276,4.8047l-1.36076,-1.4746c0.6103,-1.17187 1.02817,-2.61067 1.2536,-4.3164c0.19793,-1.45833 0.2969,-3.3203 0.2969,-5.5859v-6.123c0.10996,-0.013 0.27765,-0.03253 0.50308,-0.0586c1.74842,-0.19531 3.49958,-0.64128 5.25346,-1.3379l1.08039,1.6992c-1.46253,0.58594 -3.17244,1.03841 -5.12974,1.3574v3.3789h5.53384v2.041h-1.88859v10.225h-1.70718v-10.225z" fill="#ffffff" fill-rule="nonzero" stroke="none" stroke-width="1" stroke-linecap="butt"/><path d="M264.25583,179.28h-1.71538v-7.5391l0.09073,-0.01c1.40753,-0.22136 2.60336,-0.60873 3.58749,-1.1621l1.13815,1.416c-0.83022,0.39713 -1.87761,0.7552 -3.14218,1.0742v1.6211h2.66385v1.4648h-2.66385v1.6113h6.16064v-1.6113h-2.71334v-1.4648h2.71334v-1.4941h-2.75455v-1.5625h4.44527v7.6562h-6.07822c-0.17594,0.37761 -0.40412,0.80404 -0.68452,1.2793h7.84308c-0.04949,3.5482 -0.19794,5.84637 -0.44535,6.8945c-0.15944,0.6706 -0.38212,1.15563 -0.66802,1.4551c-0.3189,0.33854 -0.80274,0.50781 -1.45155,0.50781c-0.81371,0 -1.60821,-0.05208 -2.38347,-0.15625l-0.33813,-1.9434c0.8632,0.17578 1.5807,0.26367 2.1525,0.26367c0.47283,0 0.76974,-0.14648 0.89071,-0.43945c0.24192,-0.60547 0.40961,-2.2591 0.50308,-4.9609h-7.26577c-0.45635,0.52083 -0.90445,0.96353 -1.3443,1.3281l1.22885,0.41016c-0.22543,1.92053 -0.55256,3.50907 -0.98141,4.7656l-1.59993,-0.9668c0.47834,-1.15233 0.84672,-2.48697 1.10513,-4.0039c-0.12646,0.09765 -0.32714,0.24739 -0.60205,0.44922l-0.92373,-1.2988l-0.16494,0.69336c-0.59933,2.5 -1.21511,4.46613 -1.84737,5.8984l-1.55044,-1.4746c0.86873,-1.90753 1.61097,-4.17967 2.22673,-6.8164l1.46802,1.1523l-0.09897,0.41016c1.28659,-0.80727 2.35324,-1.95637 3.19995,-3.4473zM260.28071,175.0612c-0.70376,-1.1068 -1.52023,-2.10613 -2.44943,-2.998l1.24532,-1.3867c0.89068,0.7292 1.74015,1.6895 2.5484,2.8809zM259.7199,180.1003c-0.71474,-1.1068 -1.5367,-2.15497 -2.46589,-3.1445l1.2536,-1.4355c0.98414,0.90493 1.8391,1.9108 2.56487,3.0176zM265.12183,188.0593c-0.09347,-1.53647 -0.28865,-2.97527 -0.58555,-4.3164l1.26179,-0.40039c0.42885,1.34113 0.70651,2.67903 0.83296,4.0137zM267.62074,187.0046c-0.26391,-1.39973 -0.57731,-2.56837 -0.9402,-3.5059l1.14634,-0.57617c0.41236,0.95707 0.76148,2.0508 1.04737,3.2812zM269.75677,186.07687c-0.26391,-1.15887 -0.63229,-2.19077 -1.10513,-3.0957l1.1216,-0.625c0.49483,0.86587 0.88246,1.83267 1.1629,2.9004z" fill="#ffffff" fill-rule="nonzero" stroke="none" stroke-width="1" stroke-linecap="butt"/><path d="M299.65783,176.07h5.9545v2.002h-5.9545v8.1641h7.52968v2.041h-16.04913v-2.041h6.52353v-15.742h1.99584z" fill="#ffffff" fill-rule="nonzero" stroke="none" stroke-width="1" stroke-linecap="butt"/><path d="M315.0702,174.08v-3.584h1.85565v3.584h6.11943v10.332h-1.82263v-1.3574h-4.2968v6.4453h-1.85565v-6.4453h-4.18955v1.4648h-1.82263v-10.439zM310.88066,176.082v4.9707h4.18955v-4.9707zM321.22257,181.0527v-4.9707h-4.2968v4.9707z" fill="#ffffff" fill-rule="nonzero" stroke="none" stroke-width="1" stroke-linecap="butt"/><path d="M332.42496,182.87v-8.8574h3.03501c-0.04397,-0.8854 -0.07421,-2.05727 -0.09072,-3.5156h1.59993c0.01649,1.09373 0.03848,2.0996 0.06596,3.0176l0.01647,0.49805h3.58749v1.7774h-3.49679c0.12096,1.70573 0.30515,3.2129 0.55257,4.5215c0.47833,-1.02213 0.91269,-2.2754 1.30308,-3.7598l1.38551,0.78125c-0.74773,2.2656 -1.45149,4.01363 -2.11128,5.2441c0.32989,0.97007 0.57731,1.4551 0.74225,1.4551c0.06048,0 0.11821,-0.11393 0.17318,-0.34179c0.13745,-0.57292 0.24466,-1.25325 0.32164,-2.041l1.31128,0.99609c-0.35738,2.66273 -0.87695,3.9941 -1.55872,3.9941c-0.2859,0 -0.61028,-0.20833 -0.97313,-0.625c-0.36288,-0.42317 -0.70926,-1.00584 -1.03917,-1.748c-0.72026,1.00913 -1.48725,1.8913 -2.30096,2.6465l-1.17109,-1.3184c1.11064,-0.91147 2.05082,-1.98567 2.82051,-3.2226c-0.51133,-1.9792 -0.85772,-4.1732 -1.03917,-6.582h-1.54225v6.1719c0.50033,-0.3125 1.02266,-0.65757 1.56699,-1.0352l0.27215,1.6211c-1.24256,1.02867 -2.4934,1.88803 -3.75251,2.5781l-0.82472,-1.7188c0.39037,-0.16927 0.77248,-0.3483 1.14634,-0.53711zM329.48892,186.0731c0.58282,0.32552 1.2646,0.60221 2.04533,0.83008c0.91269,0.26041 1.75116,0.39062 2.51538,0.39062h7.05963c-0.25291,0.56641 -0.45084,1.20117 -0.59379,1.9043h-6.56474c-1.59996,0 -3.09821,-0.36133 -4.49475,-1.084c-1.02265,-0.52083 -1.92986,-1.39323 -2.72161,-2.6172c-0.18144,1.51693 -0.47559,2.85157 -0.88243,4.0039l-1.19583,-1.582c0.53332,-2.0638 0.83848,-4.71353 0.91545,-7.9492l1.46802,0.30274c-0.01649,0.625 -0.07148,1.5853 -0.16494,2.8809c0.24191,0.46224 0.58279,0.95377 1.02262,1.4746v-5.918h-3.05148v-1.8164h2.98552v-2.2168h-2.5484v-1.7773h2.5484v-2.4023h1.64123v2.4023h2.25975v1.7773h-2.25975v2.2168h2.38347v1.8164h-2.36692v2.2266h2.0618v1.7969h-2.0618zM338.96521,173.9541c-0.37937,-1.04167 -0.81922,-1.95313 -1.31955,-2.7344l1.22885,-0.78125c0.48383,0.7422 0.96216,1.6146 1.435,2.6172z" fill="#ffffff" fill-rule="nonzero" stroke="none" stroke-width="1" stroke-linecap="butt"/><path d="M356.88693,180.76621v1.37954h-1.74395l-0.10159,3.14454h1.52384v1.39983h-1.5577l-0.01693,0.36517c-0.03386,0.62215 -0.12699,1.10228 -0.27937,1.4404c-0.15238,0.33812 -0.38943,0.57819 -0.71112,0.7202c-0.3217,0.14201 -0.77038,0.21302 -1.34606,0.21302h-2.5228l-0.25397,-1.42012h2.37041c0.56438,0 0.95663,-0.09129 1.17674,-0.27388c0.22011,-0.18259 0.34145,-0.51733 0.36403,-1.00422v-0.04057h-7.60226l0.42329,-4.54437h-1.32066v-1.37954h1.43918l0.37249,-4.03719c-0.33863,0.51395 -0.59825,0.89264 -0.77885,1.13609l-0.86351,-1.09552c0.62082,-0.82502 1.2106,-1.765 1.76934,-2.81994c0.55874,-1.05494 1.01307,-2.07607 1.36299,-3.06339l1.13441,0.46661c-0.19189,0.52747 -0.412,1.07523 -0.66033,1.64328h7.41601v1.37954h-8.05941c-0.36121,0.71682 -0.68855,1.31192 -0.98203,1.78529h7.87316l-0.13545,4.60523zM372.8195,184.23535l1.01589,0.38546c-0.06773,0.7574 -0.16367,1.58241 -0.28784,2.47506c-0.12416,0.94674 -0.30759,1.59256 -0.55027,1.93744c-0.24269,0.34489 -0.56156,0.51733 -0.95663,0.51733c-0.72241,0 -1.30373,-0.66948 -1.74395,-2.00845c-0.13545,-0.41927 -0.24833,-0.82502 -0.33863,-1.21724c-0.74499,1.17667 -1.61978,2.27895 -2.62439,3.30684l-0.84658,-1.19695c1.32066,-1.35249 2.35348,-2.65088 3.09847,-3.89518c-0.39507,-2.42096 -0.6434,-5.3491 -0.74499,-8.78443h-5.23184v-1.39983h5.19798c-0.03386,-1.21724 -0.05079,-2.26542 -0.05079,-3.14454l1.16828,-0.02029c0.01129,0.29755 0.02822,1.35249 0.05079,3.16483h1.54077c-0.20318,-0.83854 -0.42893,-1.62975 -0.67726,-2.37362l0.98203,-0.40575c0.31605,1.04142 0.58696,1.96787 0.81271,2.77937h1.11748v1.39983h-3.7588c0.04515,2.70498 0.20318,5.08537 0.47408,7.14115c0.63211,-1.36602 1.24165,-3.19864 1.82861,-5.49788l1.04975,0.42603c-0.6434,2.70498 -1.49562,5.05832 -2.55666,7.06c0.11288,0.60862 0.2709,1.22401 0.47408,1.84615c0.14674,0.41927 0.27937,0.7033 0.39789,0.85207c0.11852,0.14877 0.24551,0.22316 0.38096,0.22316c0.14674,0 0.25962,-0.11158 0.33863,-0.33474c0.07901,-0.22316 0.15803,-0.63905 0.23704,-1.24767zM363.4733,183.95132l0.18625,1.52155c-0.62082,0.20287 -1.48433,0.49704 -2.59052,0.8825c-1.10619,0.38546 -1.81732,0.65258 -2.13337,0.80135l-0.2709,-1.54184l2.01485,-0.66948v-7.16144h-1.71008v-1.46069h1.71008v-4.92983h1.18521v4.92983h1.52384v1.46069h-1.52384v6.75569zM347.48993,185.29029h6.34932l0.03386,-0.75063c0.04515,-0.91969 0.07337,-1.71766 0.08466,-2.39391h-6.16308zM354.12709,177.54051h-5.89217l-0.30477,3.22569h6.07842c0.07901,-1.85291 0.11852,-2.92814 0.11852,-3.22569zM367.84163,183.58615h-3.86039v-5.72104h3.86039zM343.35864,189.6115l-1.21907,-0.44632l1.64236,-6.97886l1.15134,0.42603c-0.0903,0.3787 -0.57567,2.5224 -1.45611,6.4311zM367.97708,184.90483l0.18625,1.46069c-0.63211,0.17582 -1.56617,0.44294 -2.80217,0.80135c-1.236,0.35841 -1.98945,0.58495 -2.26036,0.67963l-0.2709,-1.48098c0.66597,-0.17582 1.61978,-0.43618 2.86143,-0.78106c1.24165,-0.34489 2.00356,-0.57143 2.28576,-0.67963zM345.37349,178.98092l-0.72806,1.2781c-1.3771,-1.43364 -2.2914,-2.35333 -2.74291,-2.75908l0.72806,-1.17667zM345.84757,174.13224l-0.69419,1.19695c-0.824,-0.81149 -1.73266,-1.67033 -2.72598,-2.5765l0.72806,-1.15638c0.63211,0.56805 1.52948,1.41335 2.69211,2.53592zM364.99713,179.18379v3.08368h1.81167v-3.08368zM352.24769,184.19477l-0.71112,1.05494c-0.24833,-0.2705 -0.58978,-0.60862 -1.02436,-1.01437c-0.43458,-0.40575 -0.82118,-0.7574 -1.15981,-1.05494l0.6434,-1.01437c0.77885,0.67625 1.52948,1.35249 2.25189,2.02874zM349.65717,178.61574l0.6434,-1.03466c0.99332,0.86559 1.71573,1.52832 2.16724,1.98816l-0.67726,1.09552c-0.60954,-0.62215 -1.32066,-1.30515 -2.13337,-2.04902z" fill="#ffffff" fill-rule="evenodd" stroke="#ffffff" stroke-width="0.5" stroke-linecap="round"/><path d="M290.72399,183.47997h-8.97255c-0.91471,1.16216 -2.03402,2.36582 -3.35794,3.61098l8.10599,-0.3528l-1.98588,-2.15829l0.88462,-1.01689c0.51753,0.53957 1.014,1.06531 1.48941,1.57721c0.47541,0.5119 0.89364,0.96155 1.25471,1.34893c1.29985,1.41119 1.83543,1.98535 1.60675,1.72248l-0.93878,1.18291c-0.20461,-0.24903 -0.57771,-0.68484 -1.11931,-1.30742l-11.15701,0.56032l-0.34301,-1.47345c1.4202,-1.16216 2.66589,-2.39349 3.73706,-3.69399h-5.18133v-1.41119h2.38305v-10.79144h11.15701v10.79144h2.43721zM286.98694,182.06878v-2.28281h-8.53927v2.28281zM278.44767,176.23725v2.19979h8.53927v-2.19979zM278.44767,174.92982h8.53927v-2.17904h-8.53927z" fill="#ffffff" fill-rule="evenodd" stroke="#ffffff" stroke-width="0.5" stroke-linecap="round"/></g></g></svg>