<svg version="1.1" xmlns="http://www.w3.org/2000/svg" xmlns:xlink="http://www.w3.org/1999/xlink" width="208" height="32" viewBox="0,0,208,32"><g transform="translate(-240,-164)"><g stroke-miterlimit="10"><path d="M240,196v-32h208v32z" fill="none" fill-rule="nonzero" stroke="none" stroke-width="0" stroke-linecap="butt"/><path d="M326.40413,173.90556v5.85247h12.96958l-0.3035,6.99339c-0.08093,1.07049 -0.35408,1.82053 -0.81945,2.25014c-0.46537,0.4296 -1.21737,0.64441 -2.25602,0.64441h-2.32683l-0.28327,-1.50009h1.98287c0.53956,0 0.95771,-0.06338 1.25447,-0.19015c0.29676,-0.12677 0.50921,-0.32396 0.63735,-0.59159c0.12814,-0.26762 0.21245,-0.64089 0.25292,-1.11979c0.04047,-0.63384 0.08431,-1.47192 0.13152,-2.51424c0.04721,-1.04232 0.08431,-1.8804 0.11128,-2.51424h-12.88864v-8.76815h3.92527l0.26303,-0.6761l0.52607,-1.43671l1.5782,0.19015l-0.26303,0.73948c-0.14838,0.45073 -0.28327,0.84512 -0.40467,1.18317h6.9805c-0.1214,2.19732 -0.19559,3.42979 -0.22257,3.69741c-0.06744,0.6761 -0.19222,1.20078 -0.37432,1.57404c-0.1821,0.37326 -0.45862,0.64089 -0.82957,0.80287c-0.37095,0.16198 -0.8869,0.24297 -1.54785,0.24297h-1.74007l-0.28327,-1.3522h1.5782c0.607,0 1.02516,-0.10212 1.25447,-0.30636c0.22931,-0.20424 0.3642,-0.55285 0.40467,-1.04584l0.10117,-1.0564c0.04047,-0.42256 0.06744,-0.78878 0.08093,-1.09866zM299.69611,183.94139h-10.05597c-1.02516,1.18317 -2.27962,2.4086 -3.7634,3.67628l9.08477,-0.35918l-2.22567,-2.19732l0.99143,-1.03528c0.58002,0.54933 1.13644,1.08457 1.66925,1.60573c0.53281,0.52116 1.00155,0.97893 1.40622,1.37332c1.4568,1.43671 2.05706,2.02125 1.80077,1.75363l-1.05213,1.2043c-0.22931,-0.25354 -0.64747,-0.69723 -1.25447,-1.33107l-12.50421,0.57046l-0.38443,-1.50009c1.59169,-1.18317 2.98779,-2.43677 4.1883,-3.7608h-5.80697v-1.43671h2.6708v-10.98659h12.50421v10.98659h2.7315zM258.94615,180.39188h-7.72914c0.51258,1.22543 1.10272,2.27127 1.77042,3.13752c0.6677,0.86625 1.49052,1.6339 2.46847,2.30296c0.97795,0.66906 2.19532,1.29233 3.65212,1.86983l-0.7891,1.54235c-2.29311,-0.97189 -4.11074,-2.13393 -5.45289,-3.48613c-1.34215,-1.3522 -2.45835,-3.14104 -3.34862,-5.36653h-3.35874v7.2258l4.63344,-2.11281l0.08093,1.60573l-6.1914,2.87342l-0.76887,-1.5846c0.26978,-0.15494 0.45862,-0.30284 0.56653,-0.44369c0.10791,-0.14085 0.16187,-0.30988 0.16187,-0.50707v-7.05677h-3.13617v-1.64799h3.13617v-8.09205h1.5175v8.09205h12.78748zM309.26648,178.38471h7.56727l-0.28327,8.85266h3.37897v1.56348h-17.82558v-1.56348h4.08714l1.19377,-7.2258h-4.04667v-1.62686h4.3097l0.76887,-4.71156h-5.50347v-1.60573h16.20691v1.60573h-9.08477zM265.86596,170.90537v15.02205l1.25447,-0.19015v-11.49367h1.25447v13.83888h-1.25447v-0.97189l-5.01787,0.69723v-13.45858h1.25447v11.97961l1.214,-0.19015v-15.23334zM268.84026,178.61712h10.52134v1.41558h-1.47703v7.31031c0,0.5775 -0.07082,1.02471 -0.21245,1.34163c-0.14163,0.31692 -0.37769,0.54229 -0.70817,0.6761c-0.33048,0.13381 -0.79922,0.20072 -1.40622,0.20072h-1.78053l-0.26303,-1.39445h1.59843c0.40467,0 0.7048,-0.03521 0.90038,-0.10564c0.19559,-0.07043 0.33048,-0.19015 0.40467,-0.35918c0.07419,-0.16902 0.11128,-0.42256 0.11128,-0.76061v-6.90888h-7.68867zM269.89239,178.32133l-0.62723,-1.3522c1.26796,-0.36622 2.18857,-0.75357 2.76185,-1.16204c0.57328,-0.40848 0.96783,-0.95781 1.18365,-1.64799h-3.4599v-1.39445h3.72294l0.02023,-0.21128c0.01349,-0.22537 0.02698,-0.52116 0.04047,-0.88738c0.01349,-0.36622 0.02023,-0.68314 0.02023,-0.95076h1.37587c0,0.30988 -0.02023,0.97189 -0.0607,1.98604v0.06338h3.68247v1.39445h-3.84434c-0.02698,0.14085 -0.08093,0.35213 -0.16187,0.63384l0.40467,0.21128c1.83449,0.87329 3.10919,1.51418 3.8241,1.92265l-0.607,1.37332l-1.37587,-0.76061c-1.29493,-0.70427 -2.2459,-1.23247 -2.8529,-1.5846c-0.3642,0.4789 -0.87003,0.90499 -1.5175,1.27825c-0.64747,0.37326 -1.49052,0.73596 -2.52917,1.0881zM333.32393,185.96969v-3.16921h1.47703v4.60592h-11.26997v-4.60592h1.47703v3.16921h3.37897v-3.88756h1.5782v3.88756zM314.93182,187.23737l0.26303,-7.2258h-6.21164l-1.19377,7.2258zM256.45745,171.13778l0.7284,1.5846c-1.22749,0.85921 -2.65394,1.70433 -4.27935,2.53537c-1.62541,0.83104 -3.2542,1.56348 -4.88635,2.19732l-0.56653,-1.56348c1.51076,-0.56341 3.06872,-1.26768 4.6739,-2.11281c1.60518,-0.84512 3.04849,-1.72546 4.32994,-2.64101zM295.50781,182.50468v-2.32409h-9.57037v2.32409zM285.93744,176.5677v2.23957h9.57037v-2.23957zM285.93744,175.23663h9.57037v-2.21845h-9.57037zM269.87216,187.06834v-5.36653h4.95717v5.36653zM332.029,177.07477l-0.93073,1.16204c-1.51076,-1.2536 -2.58987,-2.11985 -3.23734,-2.59875l0.89027,-1.16204c0.58002,0.43665 1.67262,1.3029 3.2778,2.59875zM271.14686,182.99063v2.76778h2.46847v-2.76778z" fill="#ffffff" fill-rule="evenodd" stroke="#ffffff" stroke-width="0.5" stroke-linecap="round"/></g></g></svg>