<svg version="1.1" xmlns="http://www.w3.org/2000/svg" xmlns:xlink="http://www.w3.org/1999/xlink" width="34.38833" height="28.84622" viewBox="0,0,34.38833,28.84622"><g transform="translate(-222.90877,-164.23749)"><g fill="#ff0000" stroke="none" stroke-miterlimit="10"><path d="M222.90877,185.76453v-14.20784h3.56174v14.20784h-3.56174M222.90877,171.55668c0,-1.43513 0.32617,-2.70849 0.97851,-3.82006c0.65234,-1.10635 1.56561,-1.96484 2.7398,-2.57542c1.1742,-0.6158 2.51801,-0.92371 4.03143,-0.92371v3.09206c-1.30467,0 -2.33015,0.36531 -3.07642,1.09592c-0.74106,0.73061 -1.11158,1.77435 -1.11158,3.13121h-3.56174M222.90877,185.72537h3.56174c0,1.35685 0.37052,2.40581 1.11158,3.14685c0.74627,0.74627 1.77174,1.1194 3.07642,1.1194v3.09206c-1.51342,0 -2.85724,-0.31312 -4.03143,-0.93935c-1.1742,-0.62623 -2.08748,-1.48732 -2.7398,-2.58325c-0.65234,-1.09592 -0.97851,-2.37449 -0.97851,-3.83572M235.31616,172.57432c-0.15657,-1.64388 -0.6445,-2.93028 -1.46384,-3.8592c-0.82455,-0.92371 -1.9022,-1.38556 -3.23296,-1.38556v-3.09206c2.21793,0 4.0262,0.67842 5.42481,2.03529c1.39338,1.35685 2.23359,3.23558 2.52062,5.63617l-3.24862,0.66538M235.31616,184.74689l3.24862,0.62623c-0.28703,2.42668 -1.12723,4.31845 -2.52062,5.67531c-1.39861,1.35685 -3.20688,2.03529 -5.42481,2.03529v-3.09206c1.33076,0 2.40842,-0.46185 3.23296,-1.38556c0.81934,-0.92893 1.30728,-2.21532 1.46384,-3.8592z"/><path d="M252.796,193.08372l-11.0375,-27.59374h3.48347l11.0375,27.59374h-3.48347M241.09312,193.08372v-27.59374h3.56174v27.59374h-3.56174M253.73536,193.08372v-27.59374h3.56174v27.59374z"/></g></g></svg>