<svg version="1.1" xmlns="http://www.w3.org/2000/svg" xmlns:xlink="http://www.w3.org/1999/xlink" width="99.28889" height="20.69274" viewBox="0,0,99.28889,20.69274"><g transform="translate(-240.22901,-169.8397)"><g fill="#ffffff" fill-rule="evenodd" stroke="#ffffff" stroke-width="0.5" stroke-linecap="round" stroke-miterlimit="10"><path d="M298.92607,183.99884h-10.06521c-1.0261,1.20899 -2.28172,2.46117 -3.76686,3.75652l9.09311,-0.36702l-2.22771,-2.24528l0.99234,-1.05787c0.58055,0.56132 1.13748,1.10825 1.67078,1.64078c0.5333,0.53253 1.00247,1.0003 1.40751,1.4033c1.45814,1.46806 2.05895,2.06537 1.80242,1.7919l-1.0531,1.23058c-0.22952,-0.25907 -0.64806,-0.71244 -1.25562,-1.36012l-12.51569,0.58291l-0.38479,-1.53283c1.59315,-1.20899 2.99053,-2.48995 4.19215,-3.84288h-5.8123v-1.46806h2.67325v-11.22638h12.51569v11.22638h2.73401zM262.02706,189.91427v-18.32922h15.41172v15.11243c0,0.83478 -0.08776,1.46447 -0.26328,1.88905c-0.17552,0.42459 -0.46579,0.71604 -0.87083,0.87436c-0.40504,0.15832 -0.9991,0.23748 -1.78217,0.23748h-2.51124l-0.28353,-1.64078h2.32897c0.54005,0 0.93496,-0.04318 1.18474,-0.12954c0.24977,-0.08636 0.41854,-0.25547 0.5063,-0.50735c0.08776,-0.25187 0.13164,-0.65127 0.13164,-1.1982v-13.03987h-12.29292v16.73162zM301.45756,171.41234h17.49766v1.57601h-5.89331v3.17361h4.7592v13.9682h-1.43789v-1.64078h-12.41443v1.64078h-1.45814v-13.9682h4.55668v-3.17361h-5.60978zM339.02488,173.33378l-1.68091,5.50524c0.71557,0.9931 1.21512,1.87466 1.49864,2.64468c0.28353,0.77001 0.42529,1.58681 0.42529,2.45037c0,1.22339 -0.24302,2.09415 -0.72907,2.61229c-0.48605,0.51814 -1.30287,0.77721 -2.45048,0.77721h-1.15436l-0.30378,-1.53283h1.0531c0.79658,0 1.3535,-0.15472 1.67078,-0.46417c0.31728,-0.30945 0.47592,-0.85997 0.47592,-1.65157c0,-0.69085 -0.15864,-1.3961 -0.47592,-2.11574c-0.31728,-0.71964 -0.8202,-1.51844 -1.50877,-2.3964l1.64041,-5.85067h-3.40232v16.86115h-1.43789v-18.45875h6.37936zM257.28811,179.76736h1.0936v1.33853h-1.0936v3.84288h-3.64535v2.61229c0,0.83478 -0.16539,1.41769 -0.49617,1.74872c-0.33078,0.33103 -0.92821,0.49655 -1.7923,0.49655h-1.64041l-0.24302,-1.4033h1.5999c0.52655,0 0.87421,-0.08276 1.04297,-0.24828c0.16877,-0.16552 0.25315,-0.48576 0.25315,-0.96072v-2.24528h-3.34157v-1.31694h3.34157v-2.52593h-3.6656v-1.33853h3.6656v-2.52593h-2.91628v-1.01469l-0.85058,-0.7988c1.30962,-1.78471 2.30872,-3.54782 2.99729,-5.28935l1.29612,0.34543c-0.14851,0.37421 -0.38479,0.90675 -0.70882,1.5976h3.92887v1.18741l-1.5999,2.61229h2.77451zM303.9688,177.75956v9.1754h12.41443v-3.23838h-2.30872c-0.91809,0 -1.56277,-0.1943 -1.93406,-0.58291c-0.37129,-0.38861 -0.55693,-1.06507 -0.55693,-2.02938v-3.32473h-3.03779v0.02159c0,1.29535 -0.08776,2.34602 -0.26328,3.15202c-0.17552,0.806 -0.50292,1.51844 -0.98222,2.13733c-0.4793,0.61889 -1.19149,1.24498 -2.13658,1.87826l-0.97209,-1.14423c0.87758,-0.6045 1.51552,-1.15862 1.91381,-1.66237c0.39829,-0.50375 0.65819,-1.06866 0.7797,-1.69475c0.12151,-0.62609 0.18227,-1.52204 0.18227,-2.68785zM247.95197,174.8882v1.18741h-2.653v1.44648h3.36182v1.16582h-8.18178v-1.16582h3.46308v-1.44648h-2.71376v-1.18741h2.71376v-1.4033h-3.13905v-1.20899h3.13905v-1.96462h1.35688v1.96462h3.13905v1.20899h-3.13905v1.4033zM274.66426,185.31578l-1.17461,1.16582c-1.0666,-1.35292 -2.30197,-2.89295 -3.7061,-4.62009c-1.52565,1.82788 -3.03104,3.41829 -4.51618,4.77121l-0.97209,-1.31694c1.56615,-1.41049 3.05804,-2.95772 4.47568,-4.64168c-1.74167,-2.08695 -3.1053,-3.69175 -4.09089,-4.81439l1.07335,-1.03628c1.30962,1.45367 2.64625,2.9937 4.00988,4.62009c1.22862,-1.58321 2.32897,-3.20959 3.30106,-4.87916l1.27587,0.92834c-1.0396,1.71274 -2.22771,3.42548 -3.56434,5.13823c1.1071,1.29535 2.40323,2.85697 3.88837,4.68485zM331.06587,174.34847h-1.51889c-0.16202,1.33853 -0.37129,2.5979 -0.62781,3.77811h2.73401v1.55442h-10.14621v-1.55442h2.59225c-0.25652,-1.64078 -0.4928,-2.90015 -0.70882,-3.77811h-1.37713v-1.53283h3.94913c-0.17552,-0.76282 -0.37804,-1.46806 -0.60756,-2.11574l1.49864,-0.38861c0.27003,0.86357 0.49955,1.69835 0.68857,2.50435h3.52384zM242.74723,189.84951h-1.27587v-9.93103h6.23759v7.988c0,0.66207 -0.13164,1.12983 -0.39491,1.4033c-0.26328,0.27346 -0.69869,0.41019 -1.30625,0.41019h-1.5999l-0.24302,-1.29535h1.41763c0.33753,0 0.56368,-0.06117 0.67844,-0.18351c0.11476,-0.12234 0.17214,-0.35622 0.17214,-0.70165v-1.16582h-3.68585zM324.09921,188.33826v1.44648h-1.41763v-8.13912h7.73624v6.69265zM294.73392,182.53077v-2.37481h-9.57916v2.37481zM285.15476,176.46421v2.28845h9.57916v-2.28845zM285.15476,175.10409h9.57916v-2.26686h-9.57916zM324.09921,186.8702h4.90097v-3.69175h-4.90097zM316.38323,182.12058v-4.36102h-3.32132v2.80659c0,0.43178 0.04388,0.75562 0.13164,0.97151c0.08776,0.21589 0.23627,0.36702 0.44554,0.45337c0.20927,0.08636 0.52318,0.12954 0.94171,0.12954zM328.16985,174.34847h-3.34157c0.35103,1.78471 0.58731,3.04408 0.70882,3.77811h2.00494c0.24302,-1.12264 0.45229,-2.38201 0.62781,-3.77811zM308.54573,172.98835v3.17361h3.03779v-3.17361zM252.97445,175.8813l1.53915,-2.46117h-3.01754c-0.48605,0.84918 -1.0126,1.66956 -1.57965,2.46117zM246.43308,183.76136h-3.68585v1.48965h3.68585zM242.74723,182.63872h3.68585v-1.46806h-3.68585zM256.03249,179.76736v-2.52593h-2.38973v2.52593zM253.64276,181.10589v2.52593h2.38973v-2.52593z"/></g></g></svg>