<svg version="1.1" xmlns="http://www.w3.org/2000/svg" xmlns:xlink="http://www.w3.org/1999/xlink" width="208" height="32" viewBox="0,0,208,32"><g transform="translate(-240,-164)"><g stroke="none" stroke-miterlimit="10"><path d="M240,196v-32h208v32z" fill="none" stroke-width="0"/><path d="M275.39,184.74c1.3216,1.1198 2.79947,2.01173 4.4336,2.6758l-1.1621,1.9629c-1.6732,-0.80727 -3.20967,-1.88473 -4.6094,-3.2324c-1.47787,1.43227 -3.2552,2.58787 -5.332,3.4668l-1.2793,-1.7383c1.91407,-0.58593 3.6849,-1.62433 5.3125,-3.1152c-1.36067,-1.6276 -2.36653,-3.29753 -3.0176,-5.0098h-0.91797v-1.8848h3.8379v-2.6367h-4.4531v10.889h-5.5469v1.6992h-1.7773v-13.33h1.6797v9.7559h1.084v-13.457h1.7773v13.457h1.123v-9.7559h1.3965v-1.1816h4.7168v-2.8027h2.0606v2.8027h4.8047v1.9238h-4.8047v2.6367h3.1055l0.9375,0.96679c-1.0612,2.52607 -2.18423,4.49547 -3.3691,5.9082zM274.013,183.4021c1.0482,-1.3802 1.77087,-2.59767 2.168,-3.6524h-4.4336c0.58593,1.39973 1.34113,2.6172 2.2656,3.6524z" fill="#ffffff" stroke-width="1"/><path d="M248.45355,175.39688h10.10223v7.25031h-10.16248v-1.60672h8.15409v-4.03687h-8.09383v-1.60672M249.87952,184.07314h1.90798v2.57075c0,0.24101 0.05088,0.39097 0.15264,0.44988c0.09908,0.06159 0.32268,0.09239 0.6708,0.09239c0.08034,0 0.21423,0 0.40168,0c0.18745,0 0.399,0 0.63465,0c0.23297,0 0.44988,0 0.65072,0c0.20084,0 0.35482,0 0.46193,0c0.18745,0 0.32804,-0.03079 0.42176,-0.09239c0.09373,-0.05891 0.16469,-0.18879 0.21289,-0.38963c0.04552,-0.20084 0.08168,-0.50879 0.10845,-0.92386c0.17406,0.14728 0.43515,0.28385 0.78327,0.40971c0.34812,0.12854 0.64938,0.21958 0.90378,0.27314c-0.06695,0.66946 -0.18076,1.18094 -0.34143,1.53441c-0.16067,0.35615 -0.39231,0.60386 -0.6949,0.74311c-0.29992,0.14193 -0.69758,0.21289 -1.19299,0.21289c-0.10711,0 -0.28118,0 -0.52218,0c-0.24101,0 -0.5021,0 -0.78327,0c-0.28118,0 -0.53825,0 -0.77122,0c-0.23565,0 -0.40704,0 -0.51415,0c-0.66946,0 -1.18495,-0.06695 -1.54646,-0.20084c-0.36151,-0.13389 -0.60921,-0.36821 -0.74311,-0.70294c-0.13389,-0.33473 -0.20084,-0.79666 -0.20084,-1.38579v-2.59083M247.93137,183.93256l1.64688,0.68285c-0.10711,0.41507 -0.24101,0.85959 -0.40168,1.33357c-0.16067,0.47666 -0.33473,0.94529 -0.52218,1.40588c-0.18745,0.46327 -0.38829,0.87566 -0.60252,1.23717l-1.6268,-1.0042c0.21423,-0.32134 0.41507,-0.68955 0.60252,-1.10462c0.18745,-0.41507 0.35883,-0.84754 0.51415,-1.29742c0.15264,-0.4472 0.28251,-0.86495 0.38963,-1.25324M251.34564,183.45054l1.30546,-1.08453c0.33473,0.24101 0.69357,0.51549 1.0765,0.82344c0.38026,0.30795 0.74043,0.60921 1.08052,0.90378c0.34277,0.29457 0.62796,0.56235 0.85558,0.80336l-1.36571,1.24521c-0.20084,-0.2544 -0.4713,-0.53959 -0.81139,-0.85558c-0.34277,-0.31331 -0.7016,-0.63064 -1.0765,-0.95198c-0.3749,-0.32134 -0.72972,-0.61591 -1.06445,-0.88369M256.10554,184.3744l1.66697,-0.6226c0.26779,0.40168 0.52888,0.83951 0.78327,1.31349c0.2544,0.47666 0.48603,0.94261 0.6949,1.39784c0.2062,0.45524 0.36954,0.86361 0.49005,1.22512l-1.7473,0.70294c-0.10711,-0.36151 -0.26109,-0.77658 -0.46193,-1.24521c-0.20084,-0.46862 -0.42578,-0.94796 -0.67482,-1.43801c-0.24636,-0.48737 -0.49674,-0.9319 -0.75114,-1.33357M248.91549,178.20863h8.69635v1.54646h-8.69635v-1.54646M241.78568,171.31983h4.73981v1.92806h-2.85192v15.96674h-1.88789v-17.8948M245.96314,171.31983h0.36151l0.30126,-0.08034l1.40588,0.80336c-0.17406,0.57574 -0.36419,1.18495 -0.57038,1.82764c-0.20887,0.64269 -0.42042,1.27466 -0.63465,1.89593c-0.21423,0.62394 -0.42176,1.197 -0.6226,1.71919c0.64269,0.78997 1.06445,1.52906 1.26529,2.21727c0.20084,0.69089 0.30126,1.33759 0.30126,1.94011c0,0.60252 -0.06695,1.11399 -0.20084,1.53441c-0.13389,0.4231 -0.35482,0.74846 -0.66277,0.97608c-0.16067,0.10711 -0.33473,0.19013 -0.52218,0.24904c-0.18745,0.06159 -0.38829,0.11247 -0.60252,0.15264c-0.3749,0.04017 -0.81675,0.05356 -1.32554,0.04017c-0.01339,-0.2544 -0.06025,-0.56235 -0.14059,-0.92386c-0.08034,-0.36151 -0.19415,-0.66946 -0.34143,-0.92386c0.20084,0.01339 0.37892,0.02008 0.53423,0.02008c0.15264,0 0.2959,0 0.4298,0c0.2544,0 0.44854,-0.05356 0.58243,-0.16067c0.13389,-0.10711 0.22494,-0.26511 0.27314,-0.47398c0.04552,-0.2062 0.06829,-0.45657 0.06829,-0.75114c0,-0.4954 -0.0964,-1.05106 -0.28921,-1.66697c-0.19548,-0.61591 -0.60118,-1.27868 -1.21709,-1.98831c0.16067,-0.45524 0.31465,-0.95064 0.46193,-1.48621c0.14728,-0.53557 0.29457,-1.07114 0.44185,-1.60672c0.14728,-0.53557 0.28118,-1.03767 0.40168,-1.5063c0.1205,-0.46862 0.22092,-0.86361 0.30126,-1.18495v-0.6226M251.74732,172.06294h4.13729v1.58663h-5.3825l1.24521,-1.58663M250.9038,170.61689l1.96823,0.36151c-0.48201,0.8703 -1.05374,1.74061 -1.71517,2.61091c-0.66411,0.8703 -1.44471,1.68705 -2.34179,2.45024c-0.10711,-0.13389 -0.24101,-0.28519 -0.40168,-0.4539c-0.16067,-0.16603 -0.32804,-0.3267 -0.5021,-0.48201c-0.17406,-0.15264 -0.33473,-0.27582 -0.48201,-0.36954c0.80336,-0.61591 1.49692,-1.29608 2.0807,-2.04053c0.5811,-0.74177 1.04571,-1.43399 1.39383,-2.07668M255.36244,172.06294h0.42176l0.28118,-0.08034l1.28537,0.84353c-0.24101,0.40168 -0.52218,0.81943 -0.84353,1.25324c-0.32134,0.43649 -0.65608,0.85558 -1.0042,1.25726c-0.34812,0.40168 -0.67616,0.7565 -0.98411,1.06445c-0.17406,-0.13389 -0.39766,-0.28519 -0.6708,-0.4539c-0.27582,-0.16603 -0.51415,-0.3026 -0.71499,-0.40971c0.28118,-0.28118 0.56235,-0.60921 0.84353,-0.98411c0.28118,-0.3749 0.54494,-0.75382 0.79131,-1.13675c0.24904,-0.38026 0.4472,-0.71767 0.59449,-1.01223z" fill="#ffffff" stroke-width="1"/></g></g></svg>