<svg version="1.1" xmlns="http://www.w3.org/2000/svg" xmlns:xlink="http://www.w3.org/1999/xlink" width="208" height="32" viewBox="0,0,208,32"><g transform="translate(-240,-164)"><g stroke="none" stroke-miterlimit="10"><path d="M240,196v-32h208v32z" fill="none" stroke-width="0"/><path d="M258.08,175.78h1.5039v1.7969h-1.5039v4.5996h-4.9805c-0.11719,1.8034 -0.49152,3.2487 -1.123,4.3359c-0.8008,1.38673 -1.81967,2.46097 -3.0566,3.2227l-1.5625,-1.5625c1.1914,-0.69013 2.1354,-1.6309 2.832,-2.8223c0.46224,-0.8008 0.73568,-1.85873 0.82032,-3.1738h-4.0527v-1.8164h4.082v-2.7832h-5.5762v-1.7969h5.5762v-2.6074h-3.7793v-1.8164h10.82zM256.0194,175.78v-2.6074h-2.9004v2.6074zM256.0194,177.5769h-2.9004v2.7832h2.9004zM244.9554,175.3406v14.16h-2.0996v-10.02c-0.48177,0.79427 -1.02864,1.61457 -1.6406,2.4609l-0.99609,-2.1777c1.10027,-1.49087 2.03127,-3.2031 2.793,-5.1367c0.47526,-1.19793 0.94399,-2.62047 1.4062,-4.2676l2.1191,0.53711c-0.50781,1.6992 -1.03515,3.18033 -1.582,4.4434z" fill="#ffffff" stroke-width="1"/><path d="M285.02,177.79c0.50781,0 0.96681,0.16927 1.377,0.50781c0.54036,0.44271 0.81054,1.00911 0.81054,1.6992c0,0.42318 -0.12044,0.81705 -0.36133,1.1816c-0.43619,0.67707 -1.05469,1.0156 -1.8555,1.0156c-0.35157,0 -0.68687,-0.08464 -1.0059,-0.25391c-0.25391,-0.13021 -0.46875,-0.30273 -0.64453,-0.51758c-0.35807,-0.42317 -0.53711,-0.90494 -0.53711,-1.4453c0,-0.7552 0.31575,-1.35417 0.94726,-1.7969c0.37761,-0.26041 0.80077,-0.39062 1.2695,-0.39062z" fill="#ffffff" stroke-width="1"/><path d="M292.06,172.3h15.859v2.0801h-15.859zM293.1635,178.7453h13.672v2.0215h-13.672zM290.8002,185.718h18.398v2.0801h-18.398z" fill="#ffffff" stroke-width="1"/><path d="M327.72,173.66v13.711c0,0.8008 -0.20833,1.34767 -0.625,1.6406c-0.33203,0.22787 -0.89843,0.3418 -1.6992,0.3418c-0.99607,0 -1.9824,-0.04557 -2.959,-0.13672l-0.49805,-2.0801c1.1784,0.14974 2.2038,0.22461 3.0762,0.22461c0.3125,0 0.5013,-0.05859 0.56641,-0.17578c0.05207,-0.09115 0.0781,-0.26042 0.0781,-0.50781v-13.018h-10.107v-1.9238h14.082v1.9238zM323.8528,176.16v7.7539h-5.0293v1.5039h-1.9434v-9.2578zM318.8235,177.8592v4.3359h3.1445v-4.3359zM313.9602,175.4178c-1.0482,-1.237 -2.1094,-2.2917 -3.1836,-3.1641l1.4844,-1.4356c1.1914,0.8854 2.24283,1.89777 3.1543,3.0371zM313.45238,180.4569c-1.11327,-1.28907 -2.14517,-2.33723 -3.0957,-3.1445l1.4356,-1.4746c1.11327,0.79427 2.18097,1.80663 3.2031,3.0371zM310.65938,187.8788c1.3216,-1.8164 2.57487,-4.0983 3.7598,-6.8457l1.7188,1.2012c-0.93747,2.59113 -2.16467,4.99023 -3.6816,7.1973z" fill="#ffffff" stroke-width="1"/><path d="M345.09,173.8v3.7793c0,0.42969 -0.09115,0.74545 -0.27344,0.94727c-0.21484,0.23437 -0.69011,0.35156 -1.4258,0.35156c-0.70313,0 -1.2793,-0.03906 -1.7285,-0.11718l-0.25391,-1.6211c0.51433,0.10417 0.94726,0.15625 1.2988,0.15625c0.1888,0 0.30924,-0.04557 0.36133,-0.13672c0.03907,-0.07812 0.0586,-0.20507 0.0586,-0.38086v-2.9785h-1.7383c-0.05207,1.37367 -0.23436,2.42837 -0.54687,3.1641c-0.34505,0.8008 -1.05795,1.53323 -2.1387,2.1973l-1.3965,-1.2402c0.97653,-0.50781 1.6048,-1.16211 1.8848,-1.9629c0.16927,-0.5013 0.27344,-1.2207 0.3125,-2.1582h-3.8574v-1.6602h5.5566v-1.6406h2.1484v1.6406h6.1328v1.6602zM348.1076,179.3371v3.9648h-9.6387c-0.05207,0.35807 -0.11392,0.71614 -0.18555,1.0742h10.664c-0.16276,1.7904 -0.38737,3.0176 -0.67382,3.6816c-0.41667,0.96353 -1.39323,1.4453 -2.9297,1.4453c-1.27607,0 -2.6465,-0.05534 -4.1113,-0.16601l-0.36133,-1.7774c1.39973,0.14974 2.653,0.22461 3.7598,0.22461c0.59896,0 0.99283,-0.06836 1.1816,-0.20508c0.29297,-0.21484 0.52083,-0.77474 0.68359,-1.6797h-8.5938c-0.07161,0.26693 -0.19531,0.66733 -0.37109,1.2012l-2.0996,-0.41992c0.49479,-1.4844 0.86589,-3.08923 1.1133,-4.8145h9.4238v-1.0449h-10v-1.4844zM333.7426,175.0207c-0.72267,-1.0026 -1.64713,-1.99543 -2.7734,-2.9785l1.4551,-1.3867c1.02213,0.74867 1.98243,1.70243 2.8809,2.8613zM333.14689,180.0598c-1.0026,-1.26953 -1.9759,-2.3047 -2.9199,-3.1055l1.4648,-1.416c0.97653,0.74867 1.9824,1.71547 3.0176,2.9004zM330.62739,187.9602c1.14587,-1.78387 2.2331,-4.07227 3.2617,-6.8652l1.6016,1.1816c-0.85287,2.58467 -1.875,5.00003 -3.0664,7.2461zM348.02939,178.595c-0.85287,-1.3802 -1.74807,-2.5716 -2.6856,-3.5742l1.4844,-0.95703c1.14587,1.04167 2.0736,2.181 2.7832,3.418zM334.36739,177.4231c0.95053,-0.78127 1.7318,-1.81643 2.3438,-3.1055l1.7773,0.66406c-0.63802,1.4518 -1.52019,2.66273 -2.6465,3.6328z" fill="#ffffff" stroke-width="1"/><path d="M261.1594,176.30675c0.63874,-0.08154 1.3699,-0.17396 2.19347,-0.27724c0.82085,-0.10057 1.69335,-0.21609 2.61749,-0.34655c0.92414,-0.12775 1.84828,-0.25957 2.77242,-0.39548l0.08154,1.87546c-1.27749,0.20385 -2.56177,0.40091 -3.85285,0.59118c-1.29108,0.19026 -2.44625,0.36014 -3.46553,0.50964l-0.34655,-1.957M261.46518,172.4539h7.19606v1.91623h-7.19606v-1.91623M264.25798,170.63959h2.01816v8.37842c0,0.48925 -0.05708,0.86978 -0.17124,1.14159c-0.11688,0.27181 -0.3384,0.48246 -0.66457,0.63195c-0.32617,0.14949 -0.72708,0.24055 -1.20274,0.27317c-0.47566,0.03533 -1.04645,0.053 -1.71238,0.053c-0.04077,-0.27181 -0.11552,-0.58166 -0.22424,-0.92958c-0.10872,-0.34519 -0.23103,-0.6469 -0.36694,-0.90511c0.4213,0.01359 0.82629,0.02039 1.21497,0.02039c0.38596,0 0.6469,0 0.7828,0c0.21745,0 0.32617,-0.10193 0.32617,-0.30578v-8.35803M269.13011,172.49467h7.88917v1.81431h-7.88917v-1.81431M268.84471,176.5106l1.10081,-1.48814c0.58438,0.31258 1.22313,0.67951 1.91623,1.10081c0.69311,0.4213 1.36311,0.8358 2.01001,1.24351c0.64418,0.40771 1.16333,0.77465 1.55745,1.10081l-1.16197,1.71238c-0.38053,-0.33976 -0.88337,-0.72708 -1.50852,-1.16197c-0.62515,-0.43489 -1.28428,-0.87386 -1.97739,-1.3169c-0.69311,-0.44033 -1.33865,-0.83716 -1.93662,-1.19051M275.57191,172.47428h1.99777c-0.04077,1.37262 -0.06387,2.5441 -0.06931,3.51445c-0.00815,0.97306 0.02854,1.71374 0.11008,2.22201c0.08154,0.511 0.22424,0.76649 0.42809,0.76649c0.14949,0 0.2555,-0.1359 0.31801,-0.40771c0.0598,-0.27181 0.10329,-0.7067 0.13047,-1.30467c0.20385,0.16308 0.45527,0.3153 0.75426,0.45663c0.29899,0.14406 0.57079,0.25006 0.81542,0.31801c-0.06795,0.73388 -0.18347,1.30739 -0.34655,1.72053c-0.16308,0.41586 -0.38325,0.70126 -0.66049,0.85619c-0.27996,0.15765 -0.65097,0.23647 -1.11305,0.23647c-0.62515,0 -1.10353,-0.20114 -1.43514,-0.60341c-0.33432,-0.39955 -0.56943,-0.96627 -0.70534,-1.70015c-0.1359,-0.73388 -0.21065,-1.61453 -0.22424,-2.64195c-0.01359,-1.02471 -0.01359,-2.16901 0,-3.43291M271.8006,170.61921h2.03855c-0.04077,1.31826 -0.11552,2.5142 -0.22424,3.58784c-0.10872,1.07363 -0.31258,2.04126 -0.61156,2.90289c-0.29899,0.86434 -0.73388,1.6186 -1.30467,2.26278c-0.57079,0.6469 -1.33865,1.20138 -2.30356,1.66345c-0.10872,-0.24463 -0.2854,-0.52323 -0.53002,-0.8358c-0.24463,-0.31258 -0.47566,-0.5572 -0.69311,-0.73388c0.82901,-0.38053 1.48134,-0.83988 1.957,-1.37806c0.47566,-0.53546 0.82901,-1.16333 1.06004,-1.88362c0.23103,-0.72029 0.38732,-1.5425 0.46887,-2.46664c0.08154,-0.92414 0.12911,-1.9638 0.1427,-3.11897M262.01559,182.03506h14.79984v1.93662h-14.79984v-1.93662M275.83692,182.03506h2.22201c0,0 -0.00272,0.05436 -0.00815,0.16308c-0.00815,0.10872 -0.01495,0.23103 -0.02039,0.36694c-0.00815,0.1359 -0.02582,0.25142 -0.053,0.34655c-0.10872,1.20954 -0.22696,2.20435 -0.35471,2.98443c-0.13047,0.7828 -0.27724,1.40524 -0.44033,1.86731c-0.16308,0.46207 -0.36014,0.80183 -0.59118,1.01927c-0.25822,0.24463 -0.53682,0.41722 -0.8358,0.51779c-0.29899,0.10329 -0.65233,0.16852 -1.06004,0.1957c-0.35335,0.02718 -0.82221,0.03669 -1.4066,0.02854c-0.58438,-0.00544 -1.19595,-0.02175 -1.83469,-0.04893c-0.02718,-0.29899 -0.10464,-0.63603 -0.23239,-1.01112c-0.13047,-0.37237 -0.29083,-0.69447 -0.4811,-0.96627c0.63874,0.05436 1.25031,0.08834 1.83469,0.10193c0.58438,0.01359 1.01248,0.02039 1.28428,0.02039c0.20385,0 0.37373,-0.01087 0.50964,-0.03262c0.1359,-0.01903 0.26501,-0.07611 0.38732,-0.17124c0.14949,-0.1359 0.29219,-0.3982 0.42809,-0.78688c0.1359,-0.38596 0.2555,-0.92958 0.35878,-1.63084c0.10057,-0.69854 0.19162,-1.59142 0.27317,-2.67865l0.02039,-0.2854M268.53893,180.77116h2.26278c-0.1359,1.07363 -0.34655,2.06844 -0.63195,2.98443c-0.2854,0.9187 -0.7298,1.75451 -1.33321,2.50741c-0.60613,0.75562 -1.43921,1.42154 -2.49926,1.99777c-1.06004,0.57895 -2.43266,1.05868 -4.11786,1.43921c-0.10872,-0.2854 -0.27181,-0.61564 -0.48925,-0.99073c-0.21745,-0.37237 -0.44169,-0.67408 -0.67272,-0.90511c1.23672,-0.23103 2.27366,-0.51643 3.11082,-0.85619c0.83444,-0.33976 1.52075,-0.72436 2.05893,-1.15382c0.53546,-0.42673 0.95676,-0.89832 1.2639,-1.41475c0.30442,-0.51643 0.53546,-1.07771 0.69311,-1.68384c0.15493,-0.60341 0.27317,-1.24487 0.35471,-1.92439z" fill="#ffffff" stroke-width="1"/></g></g></svg>