<svg version="1.1" xmlns="http://www.w3.org/2000/svg" xmlns:xlink="http://www.w3.org/1999/xlink" width="192" height="36" viewBox="0,0,192,36"><g transform="translate(-144,-162)"><g stroke="none" stroke-miterlimit="10"><path d="M144,198v-36h192v36z" fill="none" fill-rule="nonzero" stroke-linecap="butt" stroke-linejoin="miter"/><path d="M317,164c9.31184,0 17,7.09393 17,16c0,8.90606 -7.68816,16 -17,16h-154c-9.31184,0 -17,-7.09394 -17,-16c0,-8.90607 7.68816,-16 17,-16z" fill="#7d97b4" fill-rule="evenodd" stroke-linecap="round" stroke-linejoin="round"/><path d="M163,166h154c8.31,0 15,6.244 15,14c0,7.75599 -6.69,13.99999 -15,13.99999h-154c-8.31,0 -15,-6.244 -15,-13.99999c0,-7.756 6.69,-14 15,-14z" fill="#31476d" fill-rule="evenodd" stroke-linecap="round" stroke-linejoin="round"/><path d="M209.38896,182.36984h14.14029v1.5589h-14.14029v-1.5589M209.86135,174.27618h13.27423v1.54315h-13.27423v-1.54315M213.19959,176.98456h6.50327v1.41718h-6.50327v-1.41718M213.19959,179.64571h6.50327v1.41718h-6.50327v-1.41718M212.14458,172.65429h1.66912v10.51861h-1.66912v-10.51861M219.04151,172.65429h1.71636v10.51861h-1.71636v-10.51861M217.35665,185.14121l1.19673,-1.03926c0.60886,0.19946 1.22297,0.422 1.84233,0.66765c0.61936,0.24774 1.20723,0.49444 1.7636,0.74008c0.55637,0.24774 1.03402,0.47659 1.43292,0.68654l-1.60613,1.07076c-0.33592,-0.20995 -0.75583,-0.4388 -1.25971,-0.68654c-0.50389,-0.24564 -1.04451,-0.49234 -1.62188,-0.74008c-0.57737,-0.24564 -1.15999,-0.47869 -1.74785,-0.69914M214.12863,183.96022l1.43292,1.10225c-0.47239,0.27294 -1.00987,0.54798 -1.61243,0.82511c-0.60466,0.27924 -1.22192,0.54168 -1.85178,0.78732c-0.62986,0.24774 -1.22822,0.4556 -1.79509,0.62356c-0.12597,-0.17846 -0.29603,-0.39156 -0.51018,-0.6393c-0.21625,-0.24564 -0.41361,-0.45245 -0.59207,-0.62041c0.56687,-0.15746 1.15999,-0.35167 1.77935,-0.58262c0.61936,-0.23095 1.20723,-0.47764 1.7636,-0.74008c0.55637,-0.26244 1.01827,-0.51438 1.38569,-0.75583zM233.95337,172.68579h1.59039v10.95951h-1.59039v-10.95951M228.58384,178.93712l9.38487,-3.65317l0.6456,1.46442l-9.38487,3.68466l-0.6456,-1.49591M230.52065,174.33916h1.66912v10.1407c0,0.31493 0.02939,0.54798 0.08818,0.69914c0.05669,0.15326 0.17426,0.25824 0.35272,0.31493c0.17846,0.05879 0.44615,0.08818 0.80307,0.08818c0.09448,0 0.25404,0 0.47869,0c0.22675,0 0.48184,0 0.76528,0c0.28344,0 0.57212,0 0.86605,0c0.29393,0 0.55637,0 0.78732,0c0.23095,0 0.40416,0 0.51963,0c0.31493,0 0.55427,-0.05774 0.71804,-0.17321c0.16166,-0.11547 0.27924,-0.33382 0.35272,-0.65505c0.07348,-0.31913 0.13122,-0.78312 0.17321,-1.39198c0.19946,0.13647 0.44615,0.26769 0.74008,0.39366c0.29393,0.12597 0.56162,0.22045 0.80307,0.28344c-0.08398,0.76633 -0.2131,1.37204 -0.38736,1.81714c-0.17216,0.4472 -0.4346,0.76528 -0.78732,0.95423c-0.35062,0.18896 -0.84611,0.28344 -1.48646,0.28344c-0.10498,0 -0.28029,0 -0.52593,0c-0.24774,0 -0.53223,0 -0.85346,0c-0.31913,0 -0.63406,0 -0.94479,0c-0.30863,0 -0.58682,0 -0.83456,0c-0.24564,0 -0.41571,0 -0.51018,0c-0.72434,0 -1.28911,-0.07348 -1.69431,-0.22045c-0.40311,-0.14697 -0.68654,-0.41256 -0.85031,-0.79677c-0.16166,-0.38211 -0.24249,-0.91434 -0.24249,-1.59669v-10.1407M237.40184,175.58313h-0.12597l0.31493,-0.2362l0.29918,-0.22045l1.14949,0.45665l-0.06299,0.26769c0,0.92379 -0.00525,1.7552 -0.01575,2.49423c-0.0105,0.74113 -0.02624,1.36364 -0.04724,1.86753c-0.02099,0.50389 -0.04724,0.8713 -0.07873,1.10225c-0.04199,0.38841 -0.14172,0.68444 -0.29918,0.8881c-0.15746,0.20575 -0.36217,0.36112 -0.61411,0.46609c-0.23095,0.09448 -0.51123,0.15222 -0.84086,0.17321c-0.33173,0.02099 -0.62881,0.02624 -0.89125,0.01575c-0.0105,-0.23095 -0.05249,-0.50179 -0.12597,-0.81252c-0.07348,-0.30863 -0.15746,-0.55218 -0.25194,-0.73063c0.18896,0.0105 0.38631,0.01575 0.59207,0.01575c0.20365,0 0.35272,0 0.4472,0c0.11547,0 0.2068,-0.02414 0.27399,-0.07243c0.06928,-0.04619 0.12492,-0.15326 0.16691,-0.32123c0.02099,-0.13647 0.03989,-0.4178 0.05669,-0.84401c0.0147,-0.4241 0.02729,-1.01197 0.03779,-1.7636c0.0105,-0.74953 0.01575,-1.66492 0.01575,-2.74618M228.25317,172.68579l1.5589,0.48814c-0.33592,0.8818 -0.73483,1.7657 -1.19673,2.6517c-0.46189,0.8881 -0.96053,1.72266 -1.49591,2.50368c-0.53538,0.78312 -1.0865,1.47387 -1.65337,2.07223c-0.05249,-0.12597 -0.13122,-0.29708 -0.2362,-0.51333c-0.10498,-0.21415 -0.21835,-0.43145 -0.34012,-0.6519c-0.11967,-0.22045 -0.22675,-0.39891 -0.32123,-0.53538c0.49339,-0.48289 0.96788,-1.04766 1.42348,-1.69431c0.4577,-0.64455 0.88075,-1.33425 1.26916,-2.06908c0.38841,-0.73483 0.71909,-1.48541 0.99202,-2.25174M226.63129,176.95307l1.65337,-1.65337l0.01575,0.01575v11.98303h-1.66912zM241.74785,173.86677l1.0865,-1.02352c0.28344,0.23095 0.58787,0.49024 0.91329,0.77787c0.32543,0.28973 0.62986,0.57317 0.91329,0.85031c0.28344,0.27924 0.51438,0.53433 0.69284,0.76528l-1.14949,1.16524c-0.16796,-0.23095 -0.38841,-0.49654 -0.66135,-0.79677c-0.27294,-0.29813 -0.56687,-0.59941 -0.8818,-0.90384c-0.31493,-0.30443 -0.61936,-0.58262 -0.91329,-0.83456M242.72413,187.07802l-0.37791,-1.49591l0.31493,-0.55112l3.0863,-2.48793c0.06299,0.22045 0.15746,0.46924 0.28344,0.74638c0.12597,0.27924 0.24144,0.49759 0.34642,0.65505c-0.72434,0.58787 -1.3122,1.06761 -1.7636,1.43922c-0.4514,0.37371 -0.80307,0.66765 -1.05501,0.8818c-0.25194,0.21625 -0.43775,0.38421 -0.55742,0.50389c-0.12177,0.12177 -0.21415,0.22465 -0.27714,0.30863M240.66135,177.50419h2.83436v1.62188h-2.83436v-1.62188M247.98344,173.15818h4.23579v1.5589h-4.23579v-1.5589M246.09387,179.50399h7.22761v1.57464h-7.22761v-1.57464M252.80184,179.50399h0.29918l0.29918,-0.06299l1.02352,0.4409c-0.32543,1.09175 -0.76108,2.04703 -1.30695,2.86585c-0.54588,0.81881 -1.18938,1.52425 -1.93051,2.11632c-0.73903,0.59416 -1.55155,1.0907 -2.43755,1.48961c-0.8881,0.39891 -1.83603,0.71909 -2.8438,0.96053c-0.07348,-0.22045 -0.18686,-0.47764 -0.34012,-0.77157c-0.15117,-0.29393 -0.30023,-0.53013 -0.4472,-0.70859c0.91329,-0.17846 1.77935,-0.43355 2.59816,-0.76528c0.81881,-0.32962 1.56414,-0.74428 2.23599,-1.24397c0.67185,-0.49759 1.25236,-1.08545 1.74155,-1.7636c0.48709,-0.67605 0.85661,-1.44972 1.10855,-2.32102v-0.2362M248.01493,180.77945c0.41991,0.85031 0.97838,1.61663 1.67542,2.29898c0.69914,0.68234 1.52845,1.25656 2.48793,1.72266c0.96158,0.46819 2.02499,0.81776 3.19022,1.04871c-0.11547,0.11547 -0.2383,0.26244 -0.36847,0.4409c-0.13227,0.17846 -0.25614,0.35902 -0.37162,0.54168c-0.11547,0.18476 -0.20995,0.35587 -0.28344,0.51333c-1.83708,-0.4409 -3.39598,-1.17573 -4.67669,-2.2045c-1.28071,-1.02877 -2.29898,-2.32522 -3.05481,-3.88937l1.40143,-0.47239M247.55828,173.15818h1.59039v1.7636c0,0.51438 -0.07348,1.03926 -0.22045,1.57464c-0.14697,0.53538 -0.41676,1.04451 -0.80937,1.5274c-0.39471,0.48289 -0.96998,0.89755 -1.72581,1.24397c-0.07348,-0.10498 -0.17846,-0.23935 -0.31493,-0.40311c-0.13647,-0.16166 -0.27819,-0.32123 -0.42515,-0.47869c-0.14697,-0.15746 -0.27294,-0.27294 -0.37791,-0.34642c0.67185,-0.29393 1.17048,-0.61726 1.49591,-0.96998c0.32543,-0.35062 0.53853,-0.71279 0.6393,-1.0865c0.09868,-0.37162 0.14802,-0.74113 0.14802,-1.10855v-1.71636M251.44765,173.15818h1.59039v3.49571c0,0.23095 0.01575,0.39366 0.04724,0.48814c0.03149,0.09448 0.11022,0.14172 0.2362,0.14172c0.05249,0 0.13647,0 0.25194,0c0.11547,0 0.2341,0 0.35587,0c0.11967,0 0.211,0 0.27399,0c0.12597,0 0.27084,-0.0084 0.4346,-0.02519c0.16166,-0.0147 0.28973,-0.03779 0.38421,-0.06928c0.02099,0.20995 0.04199,0.44825 0.06299,0.71489c0.02099,0.26874 0.04724,0.49759 0.07873,0.68654c-0.11547,0.05249 -0.25719,0.08398 -0.42515,0.09448c-0.16796,0.0105 -0.33592,0.01575 -0.50389,0.01575c-0.08398,0 -0.19631,0 -0.33697,0c-0.14277,0 -0.28239,0 -0.41885,0c-0.13647,0 -0.24144,0 -0.31493,0c-0.47239,0 -0.83141,-0.06823 -1.07706,-0.2047c-0.24774,-0.13647 -0.41676,-0.36007 -0.50703,-0.6708c-0.08818,-0.30863 -0.13227,-0.70439 -0.13227,-1.18728v-3.47996M242.72413,187.07802c-0.04199,-0.13647 -0.11337,-0.29393 -0.21415,-0.47239c-0.09868,-0.17846 -0.2089,-0.35692 -0.33067,-0.53538c-0.11967,-0.17846 -0.22675,-0.32018 -0.32123,-0.42515c0.11547,-0.07348 0.2341,-0.18371 0.35587,-0.33067c0.11967,-0.14697 0.2215,-0.32018 0.30548,-0.51963c0.08398,-0.19946 0.12597,-0.41991 0.12597,-0.66135v-6.62924h1.62188v7.85746c0,0 -0.07873,0.05984 -0.2362,0.17951c-0.15746,0.12177 -0.33592,0.27189 -0.53538,0.45035c-0.19946,0.17846 -0.37791,0.36742 -0.53538,0.56687c-0.15746,0.19946 -0.2362,0.37267 -0.2362,0.51963zM266.21779,174.33916v1.05501h2.06278v-1.05501h-2.06278M262.6591,174.33916v1.05501h2.01554v-1.05501h-2.01554M259.14765,174.33916v1.05501h1.9683v-1.05501h-1.9683M257.54151,173.20542h12.43967v3.33824h-12.43967v-3.33824M256.86442,177.268h13.49468v1.25971h-13.49468v-1.25971M262.75358,176.19724l1.74785,0.09448c-0.07348,0.55637 -0.16796,1.14634 -0.28344,1.7699c-0.11547,0.62566 -0.2257,1.16418 -0.33067,1.61558h-1.57464c0.06299,-0.30443 0.12387,-0.6561 0.18266,-1.05501c0.05669,-0.39891 0.10917,-0.81147 0.15746,-1.23767c0.04619,-0.4241 0.07978,-0.81986 0.10078,-1.18728M256.65971,185.69233h14.14029v1.19673h-14.14029v-1.19673M259.43108,180.93691h8.51881v0.8818h-8.51881v-0.8818M259.49407,182.51155h8.44008v0.86605h-8.44008v-0.86605M259.55706,184.10194h8.47157v0.8818h-8.47157v-0.8818M258.56503,179.2363h10.23517v7.11738h-1.66912v-6.07812h-6.95992v6.07812h-1.60613z" fill="#ffffff" fill-rule="nonzero" stroke-linecap="butt" stroke-linejoin="miter"/></g></g></svg>