<svg version="1.1" xmlns="http://www.w3.org/2000/svg" xmlns:xlink="http://www.w3.org/1999/xlink" width="208" height="32" viewBox="0,0,208,32"><g transform="translate(-240,-164)"><g stroke="none" stroke-miterlimit="10"><path d="M240,196v-32h208v32z" fill="none" stroke-width="0"/><path d="M270.64,172.44h7.5586l0.98632,1.0059c-0.26693,1.9792 -0.60873,3.6719 -1.0254,5.0781c-0.45573,1.569 -1.10026,3.0957 -1.9336,4.5801c1.0482,1.60807 2.2331,2.91993 3.5547,3.9356l-1.2793,2.2168c-1.34767,-1.22393 -2.50977,-2.6302 -3.4863,-4.2188c-0.78773,1.1068 -1.49737,1.98247 -2.1289,2.627c-0.65105,0.67053 -1.36068,1.24997 -2.1289,1.7383l-1.377,-1.8848c1.69273,-0.96353 3.1836,-2.4707 4.4726,-4.5215c-0.02607,-0.05207 -0.0521,-0.1009 -0.0781,-0.14649c-0.7552,-1.5104 -1.36393,-3.3138 -1.8262,-5.4102c-0.26042,-1.1784 -0.4362,-2.18427 -0.52735,-3.0176h-1.1426v-1.2207h-0.9375v16.299h-2.002v-3.9746l-0.63476,0.15625c-1.95967,0.50781 -3.83467,0.92121 -5.625,1.2402l-0.64454,-2.0801c0.8854,-0.11719 1.49737,-0.20182 1.8359,-0.25391v-11.387h-1.4355v-1.9043h9.8047zM267.3392,173.20171h-3.125v2.334h3.125zM267.3392,177.19591h-3.125v2.3633h3.125zM267.3392,181.18031h-3.125v3.1055c0.33854,-0.0586 0.59245,-0.10092 0.76172,-0.12695c0.52083,-0.08464 1.3086,-0.22462 2.3633,-0.41993zM273.3158,174.42251c0.26693,2.46093 0.82683,4.6224 1.6797,6.4844c0.91147,-1.9336 1.55927,-4.09507 1.9434,-6.4844z" fill="#ffffff" stroke-width="1"/><path d="M280.19066,181.96153h19.44375v2.10027h-19.44375v-2.10027M284.49947,174.72967h10.78284v1.9054h-10.78284v-1.9054M284.52112,178.32395h10.80449v1.88375h-10.80449v-1.88375M283.54677,171.04878h13.22955v11.86545h-2.33845v-9.91674h-8.63926v9.91674h-2.25184v-11.86545M292.12107,184.88459l1.97036,-0.86609c0.6207,0.49078 1.26016,1.04652 1.91839,1.66722c0.65535,0.6207 1.26882,1.22985 1.84044,1.82746c0.56874,0.60049 1.04075,1.13169 1.41606,1.5936l-2.03532,1.06097c-0.36087,-0.49078 -0.82567,-1.05086 -1.39441,-1.68022c-0.57162,-0.62647 -1.18221,-1.25727 -1.83178,-1.89241c-0.64957,-0.63513 -1.27748,-1.20531 -1.88375,-1.71053M282.11771,189.71305c-0.0433,-0.17322 -0.10826,-0.38975 -0.19487,-0.64957c-0.08661,-0.25983 -0.17322,-0.5312 -0.25983,-0.81412c-0.08661,-0.28003 -0.18043,-0.5211 -0.28148,-0.72319c0.24539,-0.05774 0.49079,-0.1559 0.73618,-0.29447c0.24539,-0.13569 0.51244,-0.31901 0.80114,-0.54997c0.21652,-0.14435 0.53842,-0.40418 0.96569,-0.77948c0.42438,-0.3753 0.8964,-0.83 1.41606,-1.36409c0.51966,-0.53409 0.99601,-1.09705 1.42905,-1.68888l2.38175,0.9094c-0.83722,0.93827 -1.72785,1.82889 -2.67189,2.67189c-0.94693,0.84589 -1.86066,1.55752 -2.74118,2.13492v0.04331c0,0 -0.07939,0.03609 -0.23818,0.10826c-0.15879,0.07217 -0.34211,0.16167 -0.54997,0.26849c-0.21075,0.1097 -0.39551,0.22951 -0.5543,0.35943c-0.15879,0.12992 -0.23818,0.25261 -0.23818,0.36809M282.11771,189.71305l-0.02165,-1.60227l1.38574,-0.75783l12.53668,-0.498c0.0433,0.28869 0.10826,0.60915 0.19487,0.96136c0.08661,0.3551 0.15157,0.64091 0.19487,0.85743c-1.99201,0.10104 -3.70976,0.19054 -5.15324,0.26849c-1.44349,0.08084 -2.66323,0.15012 -3.65924,0.20786c-0.99601,0.05774 -1.81446,0.10826 -2.45537,0.15157c-0.6438,0.04331 -1.15623,0.08228 -1.53731,0.11692c-0.38396,0.03753 -0.6871,0.07794 -0.9094,0.12125c-0.22519,0.04331 -0.41717,0.10105 -0.57595,0.17322z" fill="#ffffff" stroke-width="1"/><path d="M256.98939,179.84442h2.23689c0,0 -0.00284,0.05681 -0.00852,0.17043c-0.00852,0.11362 -0.01278,0.24428 -0.01278,0.39199c0,0.15055 -0.0071,0.26843 -0.0213,0.35364c-0.09942,1.76111 -0.21304,3.1913 -0.34086,4.29057c-0.12782,1.10211 -0.27269,1.95852 -0.4346,2.56923c-0.16475,0.61071 -0.36074,1.04388 -0.58798,1.29953c-0.24144,0.26985 -0.49709,0.45732 -0.76693,0.56242c-0.26985,0.10794 -0.5894,0.18321 -0.95867,0.22582c-0.31246,0.04261 -0.72007,0.06391 -1.22283,0.06391c-0.50561,0 -1.04246,-0.0142 -1.61056,-0.04261c-0.0142,-0.29825 -0.07811,-0.64337 -0.19173,-1.03536c-0.11362,-0.38915 -0.26275,-0.71864 -0.44738,-0.98849c0.52549,0.04261 1.01548,0.06675 1.46996,0.07243c0.45448,0.00852 0.79534,0.01278 1.02258,0.01278c0.17043,0 0.31956,-0.0142 0.44738,-0.04261c0.12782,-0.0284 0.24144,-0.09942 0.34086,-0.21304c0.15623,-0.17043 0.30251,-0.51839 0.43886,-1.04388c0.1335,-0.52549 0.25422,-1.29669 0.36216,-2.31358c0.1051,-1.01406 0.20025,-2.33773 0.28547,-3.97101v-0.36216M254.83772,171.81292h2.15167c0,0 -0.00284,0.09942 -0.00852,0.29825c-0.00852,0.19883 -0.01988,0.36926 -0.03409,0.51129c-0.08521,1.1788 -0.16617,2.15877 -0.24286,2.93991c-0.07953,0.78114 -0.17895,1.38758 -0.29825,1.81934c-0.12214,0.4346 -0.26843,0.75841 -0.43886,0.97145c-0.18463,0.21304 -0.38347,0.36926 -0.5965,0.46868c-0.21304,0.09942 -0.45448,0.16333 -0.72433,0.19173c-0.22724,0.04261 -0.52975,0.06675 -0.90754,0.07243c-0.37495,0.00852 -0.77545,0.00568 -1.20153,-0.00852c-0.0142,-0.31246 -0.07385,-0.66041 -0.17895,-1.04388c-0.10794,-0.38347 -0.24002,-0.71012 -0.39625,-0.97997c0.34086,0.0284 0.65331,0.04971 0.93736,0.06391c0.28405,0.0142 0.49709,0.0213 0.63911,0.0213c0.14203,0 0.25848,-0.0142 0.34938,-0.04261c0.09374,-0.0284 0.18321,-0.08521 0.26843,-0.17043c0.11362,-0.12782 0.2102,-0.36216 0.28973,-0.70302c0.07669,-0.34086 0.1477,-0.84505 0.21304,-1.51256c0.06249,-0.66752 0.12214,-1.54097 0.17895,-2.62036v-0.27695M248.404,169.91689l2.70557,0.23434c-0.22724,0.52549 -0.48288,1.03252 -0.76693,1.52108c-0.28405,0.49141 -0.53969,0.91464 -0.76693,1.2697l-2.00255,-0.36216c0.15623,-0.39767 0.31246,-0.84505 0.46868,-1.34213c0.15623,-0.49709 0.27695,-0.93736 0.36216,-1.32083M246.25232,175.90324l1.23562,-1.38474c0.46868,0.21304 0.97287,0.45448 1.51256,0.72433c0.53969,0.26985 1.05524,0.53969 1.54665,0.80954c0.48856,0.26985 0.89618,0.52549 1.22283,0.76693l-1.29953,1.53387c-0.31246,-0.22724 -0.70586,-0.48715 -1.18023,-0.77972c-0.4772,-0.28973 -0.98139,-0.58372 -1.51256,-0.88197c-0.53401,-0.29825 -1.04246,-0.561 -1.52535,-0.78824M240.32989,183.80691h14.48652v1.98124h-14.48652v-1.98124M255.3064,171.81292v2.02385h-10.14056v6.00765h12.69701v2.02385h-14.9339v-10.05535z" fill="#ffffff" stroke-width="1"/></g></g></svg>