<svg version="1.1" xmlns="http://www.w3.org/2000/svg" xmlns:xlink="http://www.w3.org/1999/xlink" width="174.28535" height="32" viewBox="0,0,174.28535,32"><g transform="translate(-239.62374,-164)"><g stroke="none" stroke-miterlimit="10"><path d="M240.19644,175.8625h4.98593v2.11768h-4.98593v-2.11768M248.48386,171.42923h1.88657v14.38832c0,0.54096 0.04492,0.88401 0.13475,1.02915c0.08984,0.14514 0.29758,0.2177 0.62324,0.2177c0.06738,0 0.1909,0 0.37058,0c0.17967,0 0.37619,0 0.58955,0c0.21336,0 0.40988,0 0.58955,0c0.17967,0 0.31443,0 0.40426,0c0.22459,0 0.3964,-0.11215 0.51544,-0.33645c0.11679,-0.2243 0.20326,-0.63069 0.2594,-1.21915c0.05615,-0.58582 0.10107,-1.4131 0.13475,-2.48184c0.15721,0.13194 0.33689,0.26388 0.53902,0.39583c0.20213,0.13194 0.40988,0.24673 0.62324,0.34437c0.21336,0.10028 0.40426,0.1768 0.57271,0.22958c-0.05615,1.24026 -0.16283,2.23906 -0.32004,2.99641c-0.15721,0.75999 -0.40202,1.31151 -0.73441,1.65456c-0.33015,0.34305 -0.80404,0.51458 -1.42166,0.51458c-0.08984,0 -0.24705,0 -0.47164,0c-0.22459,0 -0.46827,0 -0.73104,0c-0.26502,0 -0.50421,0 -0.71757,0c-0.21336,0 -0.37058,0 -0.47164,0c-0.6064,0 -1.08028,-0.10292 -1.42166,-0.30875c-0.34362,-0.20319 -0.58843,-0.54888 -0.73441,-1.03707c-0.14598,-0.48819 -0.21898,-1.16769 -0.21898,-2.03851v-14.34874M244.28962,171.40944h1.88657v17.95077h-1.88657v-17.95077M254.0425,174.39794l1.29701,1.89997c-0.56148,0.4618 -1.16226,0.9236 -1.80235,1.3854c-0.64009,0.4618 -1.29365,0.9104 -1.96068,1.34581c-0.66928,0.43541 -1.32397,0.84443 -1.96405,1.22706c-0.06738,-0.2375 -0.17406,-0.51853 -0.32004,-0.84311c-0.14598,-0.32194 -0.28635,-0.59506 -0.42111,-0.81936c0.61763,-0.38263 1.23862,-0.8154 1.86298,-1.29831c0.62212,-0.48027 1.21953,-0.9711 1.79224,-1.47248c0.57271,-0.50138 1.07804,-0.97637 1.51599,-1.42498M239.62374,184.90715c0.46041,-0.17153 0.99157,-0.37999 1.59348,-0.62541c0.59966,-0.24277 1.23638,-0.50666 1.91015,-0.79165c0.67377,-0.28236 1.34193,-0.56867 2.00448,-0.85895l0.33689,1.91976c-0.85345,0.4486 -1.72037,0.89061 -2.60077,1.32602c-0.88264,0.43541 -1.69454,0.83124 -2.43569,1.18748zM263.02053,176.51561h1.68443c-0.07861,0.83124 -0.16283,1.7047 -0.25267,2.62038c-0.08984,0.91832 -0.18753,1.82872 -0.29309,2.73121c-0.1078,0.90512 -0.20999,1.76275 -0.30657,2.57288c-0.09433,0.81277 -0.18641,1.52921 -0.27625,2.14934h-1.75181c0.1123,-0.64652 0.22459,-1.38276 0.33689,-2.20872c0.1123,-0.82332 0.22235,-1.68754 0.33015,-2.59267c0.10556,-0.90249 0.20326,-1.80629 0.29309,-2.71142c0.08984,-0.90249 0.16844,-1.75615 0.23582,-2.561M265.54719,178.81141l0.94328,-0.71249c0.3032,0.27708 0.61763,0.60034 0.94328,0.96978c0.32566,0.36944 0.57832,0.6927 0.758,0.96978l-0.99382,0.81145c-0.15721,-0.29027 -0.3964,-0.63069 -0.71757,-1.02123c-0.31892,-0.38791 -0.62998,-0.727 -0.93318,-1.01728M265.09239,182.90822l0.99382,-0.73228c0.33689,0.30347 0.68725,0.65311 1.05109,1.04894c0.36608,0.39583 0.65019,0.75207 0.85232,1.06873l-1.02751,0.83124c-0.1909,-0.30347 -0.46603,-0.66631 -0.82537,-1.08852c-0.35935,-0.42222 -0.70746,-0.79825 -1.04435,-1.12811M263.25635,173.13129h8.70853v1.91976h-8.70853v-1.91976M263.728,176.51561h6.4177v1.82081h-6.4177v-1.82081M260.89815,180.47389h11.50469v1.91976h-11.50469v-1.91976M262.73418,184.76861h9.2307v1.82081h-9.2307v-1.82081M263.35742,171.0532l1.75181,0.53437c-0.22459,0.81804 -0.49747,1.63213 -0.81864,2.44225c-0.31892,0.81277 -0.65805,1.57539 -1.0174,2.28788c-0.35935,0.71249 -0.72431,1.33922 -1.09488,1.88018c-0.1123,-0.11875 -0.26614,-0.25069 -0.46154,-0.39583c-0.19764,-0.14514 -0.39191,-0.29027 -0.58281,-0.43541c-0.1909,-0.14514 -0.35935,-0.26388 -0.50533,-0.35624c0.38181,-0.47499 0.74452,-1.03311 1.08814,-1.67435c0.34138,-0.6386 0.65244,-1.3247 0.93318,-2.0583c0.28074,-0.73096 0.51656,-1.47248 0.70746,-2.22455M269.62352,176.51561h1.68443c0,0 -0.00225,0.05937 -0.00674,0.17812c-0.00674,0.11875 -0.01011,0.24673 -0.01011,0.38395c0,0.13986 -0.00561,0.25597 -0.01684,0.34833c-0.06738,1.88678 -0.13475,3.48592 -0.20213,4.79743c-0.06738,1.31415 -0.14374,2.39343 -0.22908,3.23787c-0.0831,0.84443 -0.17743,1.50414 -0.28299,1.97914c-0.1078,0.47499 -0.2347,0.81804 -0.38068,1.02915c-0.1909,0.30347 -0.39079,0.51062 -0.59966,0.62145c-0.20662,0.11347 -0.44469,0.19659 -0.7142,0.24937c-0.24705,0.03958 -0.56148,0.05937 -0.94328,0.05937c-0.38181,0 -0.78045,-0.01319 -1.19595,-0.03958c-0.01123,-0.26388 -0.05615,-0.56075 -0.13475,-0.89061c-0.07861,-0.32986 -0.18529,-0.62013 -0.32004,-0.87082c0.39303,0.03958 0.75238,0.06597 1.07804,0.07917c0.32566,0.01319 0.56709,0.01979 0.72431,0.01979c0.14598,0 0.2639,-0.02375 0.35373,-0.07125c0.08984,-0.04486 0.17967,-0.12666 0.26951,-0.24541c0.1123,-0.14514 0.21336,-0.43937 0.3032,-0.88269c0.08984,-0.44069 0.17406,-1.06741 0.25267,-1.88018c0.07861,-0.81013 0.14935,-1.84588 0.21224,-3.10724c0.06064,-1.25873 0.11342,-2.7853 0.15834,-4.57972v-0.41562M257.63034,172.81463l1.01066,-1.44477c0.32566,0.17153 0.67602,0.37604 1.05109,0.61353c0.37731,0.2375 0.73666,0.48159 1.07804,0.73228c0.34362,0.25069 0.62212,0.48159 0.83548,0.6927l-1.06119,1.6031c-0.20213,-0.21111 -0.4694,-0.45256 -0.80179,-0.72436c-0.33015,-0.26916 -0.68388,-0.53305 -1.06119,-0.79165c-0.37507,-0.25597 -0.72543,-0.48291 -1.05109,-0.68082M256.68706,178.47496l0.97697,-1.42498c0.32566,0.17153 0.66479,0.37208 1.0174,0.60166c0.35485,0.23222 0.69174,0.46708 1.01066,0.70457c0.32117,0.2375 0.58281,0.4618 0.78495,0.67291l-1.04435,1.62289c-0.17967,-0.2243 -0.42672,-0.4684 -0.74115,-0.73228c-0.31443,-0.26388 -0.64795,-0.52117 -1.00055,-0.77186c-0.35485,-0.25069 -0.68949,-0.47499 -1.00392,-0.67291M257.1587,188.07377c0.22459,-0.51458 0.47389,-1.12151 0.74789,-1.82081c0.27625,-0.69929 0.55137,-1.44477 0.82537,-2.23642c0.27625,-0.79165 0.53228,-1.57011 0.7681,-2.33538l1.38124,1.1479c-0.20213,0.69929 -0.42335,1.41838 -0.66367,2.15726c-0.24256,0.73888 -0.49073,1.47116 -0.74452,2.19684c-0.25154,0.72568 -0.50084,1.40519 -0.74789,2.03851zM278.1636,173.50733h10.78038v1.72185h-10.78038v-1.72185M282.47575,174.27919l2.0887,0.15833c-0.16844,0.52777 -0.3571,1.04235 -0.56597,1.54373c-0.20662,0.50138 -0.39416,0.93679 -0.5626,1.30623l-1.46546,-0.27708c0.10107,-0.42222 0.20213,-0.88401 0.3032,-1.3854c0.10107,-0.50138 0.16844,-0.94999 0.20213,-1.34581M285.42352,171.07299l1.75181,0.57395c-0.28074,0.48819 -0.55811,0.96978 -0.83211,1.44477c-0.27625,0.47499 -0.53228,0.87742 -0.7681,1.20727l-1.43177,-0.53437c0.14598,-0.25069 0.30095,-0.53437 0.4649,-0.85103c0.16171,-0.31666 0.31555,-0.63728 0.46154,-0.96186c0.14598,-0.32194 0.2639,-0.61485 0.35373,-0.87874M279.69644,171.68652l1.51599,-0.75207c0.22459,0.31666 0.44581,0.67554 0.66367,1.07665c0.2201,0.40374 0.38068,0.75075 0.48175,1.04103l-1.60021,0.83124c-0.08984,-0.30347 -0.23582,-0.65971 -0.43795,-1.06873c-0.20213,-0.40902 -0.40988,-0.78506 -0.62324,-1.12811M277.52352,178.17809v7.95613h-1.73497v-5.99678h-2.0887v-1.95934h3.82367M273.75038,172.85421l1.39808,-1.02915c0.29197,0.31666 0.59517,0.66631 0.90959,1.04894c0.31443,0.38263 0.60977,0.76527 0.88601,1.1479c0.274,0.38263 0.48961,0.73228 0.64682,1.04894l-1.4823,1.16769c-0.14598,-0.30347 -0.35149,-0.65311 -0.6165,-1.04894c-0.26277,-0.39583 -0.54576,-0.79825 -0.84896,-1.20727c-0.3032,-0.40902 -0.60078,-0.78506 -0.89275,-1.12811M276.78237,185.4811c0.29197,0 0.57832,0.11215 0.85906,0.33645c0.28074,0.2243 0.66254,0.48159 1.14542,0.77186c0.56148,0.32986 1.22178,0.54756 1.9809,0.65311c0.75687,0.10555 1.58449,0.15833 2.48286,0.15833c0.59517,0 1.25546,-0.01715 1.9809,-0.05146c0.72318,-0.03167 1.43851,-0.08049 2.14597,-0.14646c0.70746,-0.06597 1.3307,-0.13854 1.86972,-0.2177c-0.06738,0.18472 -0.13475,0.39847 -0.20213,0.64124c-0.06738,0.24541 -0.12914,0.49346 -0.18529,0.74416c-0.05615,0.25069 -0.08984,0.47499 -0.10107,0.67291c-0.29197,0.01319 -0.66479,0.03299 -1.11846,0.05937c-0.45592,0.02639 -0.95002,0.05278 -1.4823,0.07917c-0.53453,0.02639 -1.06007,0.04618 -1.57663,0.05937c-0.51656,0.01319 -0.98259,0.01979 -1.39808,0.01979c-1.01066,0 -1.89218,-0.07257 -2.64456,-0.2177c-0.75238,-0.14514 -1.43738,-0.39583 -2.05501,-0.75207c-0.38181,-0.2375 -0.71308,-0.4684 -0.99382,-0.6927c-0.28074,-0.2243 -0.52779,-0.33645 -0.74115,-0.33645c-0.1909,0 -0.40988,0.10819 -0.65693,0.32458c-0.24705,0.21903 -0.5087,0.5027 -0.78495,0.85103c-0.274,0.35097 -0.54014,0.71777 -0.79842,1.1004l-1.09488,-1.78122c0.59517,-0.64652 1.18809,-1.18748 1.77876,-1.62289c0.58843,-0.43541 1.11846,-0.65311 1.59011,-0.65311M281.0103,180.6718v1.24686h4.86802v-1.24686h-4.86802M281.0103,183.30405v1.24686h4.86802v-1.24686h-4.86802M281.0103,178.05934v1.24686h4.86802v-1.24686h-4.86802M279.30902,176.5552h8.33795v9.51965h-8.33795zM292.51499,186.35192h11.45416v1.95934h-11.45416v-1.95934M291.50433,176.61457h13.54286v12.8248h-1.83603v-10.86546h-9.95501v10.90504h-1.75181v-12.86439M290.62842,172.22089h15.042v2.0583h-15.042v-2.0583M295.51328,173.48753h1.61706v4.45306c0,0.75207 -0.07861,1.51734 -0.23582,2.2958c-0.15721,0.77846 -0.46266,1.51338 -0.91633,2.20476c-0.45592,0.69402 -1.13306,1.29172 -2.03143,1.7931c-0.06738,-0.14514 -0.16844,-0.31402 -0.3032,-0.50666c-0.13475,-0.19 -0.27175,-0.38131 -0.411,-0.57395c-0.14149,-0.19 -0.26839,-0.33117 -0.38068,-0.42354c0.7973,-0.42222 1.38461,-0.89721 1.76192,-1.42498c0.37507,-0.52777 0.61875,-1.08193 0.73104,-1.66247c0.1123,-0.58055 0.16844,-1.16769 0.16844,-1.76143v-4.39368M299.08428,173.46774h1.73497v7.48114c0,0.31666 0.02807,0.51458 0.08422,0.59374c0.05615,0.07917 0.21336,0.11875 0.47164,0.11875c0.04492,0 0.13812,0 0.27962,0c0.13925,0 0.29309,0 0.46154,0c0.16844,0 0.32341,0 0.4649,0c0.13925,0 0.24256,0 0.30994,0c0.15721,0 0.26165,-0.01319 0.3133,-0.03958c0.04941,-0.02639 0.09096,-0.06597 0.12465,-0.11875c0.16844,0.15833 0.40202,0.31007 0.70072,0.4552c0.29646,0.14514 0.57383,0.24409 0.83211,0.29687c-0.12352,0.52777 -0.32004,0.89061 -0.58955,1.08852c-0.26951,0.19791 -0.66816,0.29687 -1.19595,0.29687c-0.08984,0 -0.22459,0 -0.40426,0c-0.17967,0 -0.37619,0 -0.58955,0c-0.21336,0 -0.40651,0 -0.57945,0c-0.17518,0 -0.30769,0 -0.39753,0c-0.53902,0 -0.95451,-0.07917 -1.24648,-0.2375c-0.29197,-0.15833 -0.4941,-0.43277 -0.6064,-0.82332c-0.1123,-0.38791 -0.16844,-0.92492 -0.16844,-1.61102zM307.55699,172.81463h14.92409v1.97914h-14.92409v-1.97914M311.19537,181.16658h7.66418v1.66247h-7.66418v-1.66247M310.84164,184.3332h8.37164v1.72185h-8.37164v-1.72185M314.10944,181.97803h1.71812v7.06552h-1.71812v-7.06552M308.26445,176.45624h12.19531v1.95934h-10.37612v11.10295h-1.81919v-13.0623M319.93758,176.45624h1.85288v10.86546c0,0.54096 -0.06401,0.95262 -0.19203,1.23498c-0.13026,0.285 -0.35822,0.50006 -0.68388,0.6452c-0.32566,0.14514 -0.73554,0.23354 -1.22964,0.2652c-0.4941,0.0343 -1.07804,0.05146 -1.75181,0.05146c-0.04492,-0.26388 -0.12577,-0.57131 -0.24256,-0.92228c-0.11903,-0.34833 -0.24031,-0.64784 -0.36384,-0.89853c0.3032,0.01319 0.6064,0.02639 0.90959,0.03958c0.3032,0.01319 0.57608,0.01583 0.81864,0.00792c0.24031,-0.00528 0.39977,-0.00792 0.47838,-0.00792c0.15721,-0.01319 0.2639,-0.05014 0.32004,-0.11083c0.05615,-0.05805 0.08422,-0.15965 0.08422,-0.30479v-10.86546M311.90283,178.96974l1.43177,-0.49478c0.20213,0.32986 0.3964,0.69929 0.58281,1.10832c0.18416,0.40902 0.32117,0.77186 0.411,1.08852l-1.51599,0.59374c-0.06738,-0.31666 -0.1909,-0.6927 -0.37058,-1.12811c-0.17967,-0.43541 -0.35935,-0.82464 -0.53902,-1.16769M316.754,178.49475l1.53284,0.51458c-0.22459,0.47499 -0.44918,0.94339 -0.67377,1.40519c-0.22459,0.4618 -0.44357,0.86422 -0.65693,1.20727l-1.28017,-0.4552c0.13475,-0.25069 0.26726,-0.53437 0.39753,-0.85103c0.12802,-0.31666 0.25379,-0.63332 0.37731,-0.94999c0.12352,-0.31666 0.22459,-0.60694 0.3032,-0.87082M314.04206,171.17195h1.98763v6.6499h-1.98763zM330.39792,176.51561h1.68443c-0.07861,0.83124 -0.16283,1.7047 -0.25267,2.62038c-0.08984,0.91832 -0.18866,1.82872 -0.29646,2.73121c-0.10556,0.90512 -0.2055,1.76275 -0.29983,2.57288c-0.09657,0.81277 -0.18978,1.52921 -0.27962,2.14934h-1.75181c0.1123,-0.64652 0.22459,-1.38276 0.33689,-2.20872c0.1123,-0.82332 0.22235,-1.68754 0.33015,-2.59267c0.10556,-0.90249 0.20326,-1.80629 0.29309,-2.71142c0.08984,-0.90249 0.16844,-1.75615 0.23582,-2.561M332.92458,178.81141l0.94328,-0.71249c0.3032,0.27708 0.61763,0.60034 0.94328,0.96978c0.32566,0.36944 0.57832,0.6927 0.758,0.96978l-0.99382,0.81145c-0.15721,-0.29027 -0.39528,-0.63069 -0.7142,-1.02123c-0.32117,-0.38791 -0.63335,-0.727 -0.93655,-1.01728M332.46978,182.90822l0.99382,-0.73228c0.33689,0.30347 0.68837,0.65311 1.05446,1.04894c0.36384,0.39583 0.64682,0.75207 0.84896,1.06873l-1.02751,0.83124c-0.1909,-0.30347 -0.46603,-0.66631 -0.82537,-1.08852c-0.35935,-0.42222 -0.70746,-0.79825 -1.04435,-1.12811M330.63374,173.13129h8.70853v1.91976h-8.70853v-1.91976M331.10539,176.51561h6.4177v1.82081h-6.4177v-1.82081M328.27554,180.47389h11.50469v1.91976h-11.50469v-1.91976M330.11157,184.76861h9.2307v1.82081h-9.2307v-1.82081M330.73481,171.0532l1.75181,0.53437c-0.22459,0.81804 -0.49635,1.63213 -0.81527,2.44225c-0.32117,0.81277 -0.66142,1.57539 -1.02077,2.28788c-0.35935,0.71249 -0.72431,1.33922 -1.09488,1.88018c-0.1123,-0.11875 -0.26726,-0.25069 -0.4649,-0.39583c-0.19539,-0.14514 -0.38854,-0.29027 -0.57945,-0.43541c-0.1909,-0.14514 -0.35935,-0.26388 -0.50533,-0.35624c0.38181,-0.47499 0.7434,-1.03311 1.08478,-1.67435c0.34362,-0.6386 0.65581,-1.3247 0.93655,-2.0583c0.28074,-0.73096 0.51656,-1.47248 0.70746,-2.22455M337.00091,176.51561h1.68443c0,0 -0.00225,0.05937 -0.00674,0.17812c-0.00674,0.11875 -0.01011,0.24673 -0.01011,0.38395c0,0.13986 -0.00561,0.25597 -0.01684,0.34833c-0.06738,1.88678 -0.13475,3.48592 -0.20213,4.79743c-0.06738,1.31415 -0.14262,2.39343 -0.22571,3.23787c-0.08535,0.84443 -0.1808,1.50414 -0.28635,1.97914c-0.1078,0.47499 -0.2347,0.81804 -0.38068,1.02915c-0.1909,0.30347 -0.38967,0.51062 -0.59629,0.62145c-0.20887,0.11347 -0.44806,0.19659 -0.71757,0.24937c-0.24705,0.03958 -0.56148,0.05937 -0.94328,0.05937c-0.38181,0 -0.78045,-0.01319 -1.19595,-0.03958c-0.01123,-0.26388 -0.05615,-0.56075 -0.13475,-0.89061c-0.07861,-0.32986 -0.18529,-0.62013 -0.32004,-0.87082c0.39303,0.03958 0.75238,0.06597 1.07804,0.07917c0.32566,0.01319 0.56709,0.01979 0.72431,0.01979c0.14598,0 0.2639,-0.02375 0.35373,-0.07125c0.08984,-0.04486 0.17967,-0.12666 0.26951,-0.24541c0.1123,-0.14514 0.21336,-0.43937 0.3032,-0.88269c0.08984,-0.44069 0.17406,-1.06741 0.25267,-1.88018c0.07861,-0.81013 0.14935,-1.84588 0.21224,-3.10724c0.06064,-1.25873 0.11342,-2.7853 0.15834,-4.57972v-0.41562M325.00773,172.81463l1.01066,-1.44477c0.32566,0.17153 0.67602,0.37604 1.05109,0.61353c0.37731,0.2375 0.73778,0.48159 1.08141,0.73228c0.34138,0.25069 0.61875,0.48159 0.83211,0.6927l-1.06119,1.6031c-0.20213,-0.21111 -0.46827,-0.45256 -0.79842,-0.72436c-0.33239,-0.26916 -0.68725,-0.53305 -1.06456,-0.79165c-0.37507,-0.25597 -0.72543,-0.48291 -1.05109,-0.68082M324.06445,178.47496l0.97697,-1.42498c0.32566,0.17153 0.66479,0.37208 1.0174,0.60166c0.35485,0.23222 0.69174,0.46708 1.01066,0.70457c0.32117,0.2375 0.58281,0.4618 0.78495,0.67291l-1.04435,1.62289c-0.17967,-0.2243 -0.42672,-0.4684 -0.74115,-0.73228c-0.31443,-0.26388 -0.64795,-0.52117 -1.00055,-0.77186c-0.35485,-0.25069 -0.68949,-0.47499 -1.00392,-0.67291M324.53609,188.07377c0.22459,-0.51458 0.47501,-1.12151 0.75126,-1.82081c0.274,-0.69929 0.54913,-1.44477 0.82537,-2.23642c0.274,-0.79165 0.52891,-1.57011 0.76473,-2.33538l1.38124,1.1479c-0.20213,0.69929 -0.42335,1.41838 -0.66367,2.15726c-0.24256,0.73888 -0.48961,1.47116 -0.74115,2.19684c-0.25379,0.72568 -0.50421,1.40519 -0.75126,2.03851zM340.9088,175.84271h4.6322v1.99893h-4.6322v-1.99893M342.50901,171.33028h1.68443v13.28h-1.68443v-13.28M340.77404,184.96653c0.59517,-0.29027 1.31386,-0.6795 2.15608,-1.16769c0.84222,-0.48819 1.69005,-0.98957 2.5435,-1.50414l0.50533,1.88018c-0.75238,0.50138 -1.52497,1.00936 -2.31778,1.52393c-0.79056,0.51458 -1.52834,0.98297 -2.21335,1.40519l-0.67377,-2.13747M345.8105,173.86357h10.57825v1.91976h-10.57825v-1.91976M345.28833,185.40194c0.4941,-0.10555 1.05895,-0.24409 1.69454,-0.41562c0.63335,-0.17153 1.30937,-0.35361 2.02806,-0.54624c0.71869,-0.19 1.43738,-0.39055 2.15608,-0.60166l0.16844,1.78122c-0.97697,0.31666 -1.95619,0.62937 -2.93765,0.93811c-0.98371,0.31138 -1.87983,0.59242 -2.68836,0.84311l-0.42111,-1.99893M351.25122,171.09278h1.73497c-0.01123,1.3854 0,2.75364 0.03369,4.10473c0.03369,1.35373 0.0932,2.64413 0.17855,3.87119c0.0831,1.22706 0.18641,2.35517 0.30994,3.38432c0.12352,1.02915 0.2639,1.92636 0.42111,2.69163c0.15721,0.76527 0.32903,1.35505 0.51544,1.76935c0.18416,0.41694 0.37731,0.62541 0.57945,0.62541c0.13475,0 0.23919,-0.19791 0.3133,-0.59374c0.07187,-0.39583 0.11903,-1.05554 0.14149,-1.97914c0.16844,0.2375 0.36833,0.45784 0.59966,0.66103c0.22908,0.20583 0.43908,0.36812 0.62998,0.48687c-0.07861,0.87082 -0.1909,1.55692 -0.33689,2.0583c-0.14598,0.50138 -0.34475,0.85367 -0.59629,1.05686c-0.25379,0.20583 -0.58281,0.30875 -0.98708,0.30875c-0.47164,0 -0.88714,-0.24145 -1.24648,-0.72436c-0.35935,-0.48027 -0.66816,-1.15582 -0.92644,-2.02664c-0.25828,-0.87082 -0.47389,-1.89073 -0.64682,-3.05974c-0.17518,-1.16637 -0.30994,-2.43962 -0.40426,-3.81973c-0.09657,-1.37748 -0.16957,-2.81565 -0.21898,-4.31452c-0.05166,-1.49623 -0.0831,-2.99641 -0.09433,-4.50056M353.39046,172.12193l1.02751,-1.02915c0.33689,0.27708 0.69399,0.60034 1.0713,0.96978c0.37507,0.36944 0.65805,0.69929 0.84896,0.98957l-1.06119,1.16769c-0.20213,-0.30347 -0.4795,-0.65311 -0.83211,-1.04894c-0.35485,-0.39583 -0.70634,-0.74548 -1.05446,-1.04894M354.51903,177.24789l1.61706,0.35624c-0.53902,2.62565 -1.31049,4.93729 -2.31441,6.93489c-1.00617,2.00025 -2.25602,3.6271 -3.74955,4.88055c-0.08984,-0.11875 -0.21336,-0.26784 -0.37058,-0.44728c-0.15721,-0.1768 -0.32004,-0.34833 -0.48849,-0.51458c-0.16844,-0.16361 -0.31443,-0.29819 -0.43795,-0.40374c1.49353,-1.09512 2.70857,-2.56628 3.64512,-4.41347c0.93879,-1.84719 1.63839,-3.97806 2.09881,-6.39261M347.64653,178.91037v2.67183h1.54968v-2.67183h-1.54968M346.29899,177.26769h4.31215v5.97699h-4.31215z" fill="#ffffff" stroke-width="1"/><path d="M240,196v-32h173.90909v32z" fill="none" stroke-width="0"/><path d="M316.57017,170.6974h1.75548zM307.92337,172.2991c0,0 1.09412,1.00907 0,0zM307.27016,177.26c0,0 0.89273,0.8398 0,0zM307.49064,188.0608c1.04513,-1.77733 0,0 0,0z" fill="#ffffff" stroke-width="1"/></g></g></svg>