<svg version="1.1" xmlns="http://www.w3.org/2000/svg" xmlns:xlink="http://www.w3.org/1999/xlink" width="146.95402" height="32.878" viewBox="0,0,146.95402,32.878"><g transform="translate(-240,-180)"><g stroke="none" stroke-miterlimit="10"><path d="M246.99365,180h132.96673c3.87448,0 6.99365,3.568 6.99365,8v16.878c0,4.432 -3.11917,8 -6.99365,8h-132.96673c-3.87448,0 -6.99365,-3.568 -6.99365,-8v-16.878c0,-4.432 3.11917,-8 6.99365,-8z" fill-opacity="0.7" fill="#000000" fill-rule="evenodd" stroke-width="0"/><path d="M256.18151,185.84163l0.53198,0.74097c-0.34199,0.06966 -0.72007,0.1311 -1.13426,0.18429c-0.41545,0.05446 -0.848,0.10196 -1.29765,0.14249c-0.44965,0.0418 -0.8993,0.07536 -1.34895,0.1007c-0.44965,0.02533 -0.88663,0.04433 -1.31095,0.057c-0.01267,-0.10766 -0.04116,-0.23306 -0.0855,-0.37619c-0.04433,-0.14186 -0.08866,-0.26029 -0.13299,-0.35529c0.41165,-0.019 0.83597,-0.04306 1.27295,-0.0722c0.43698,-0.02787 0.86763,-0.06396 1.29195,-0.1083c0.42432,-0.04433 0.82647,-0.09183 1.20645,-0.14249c0.37999,-0.05066 0.71564,-0.10766 1.00696,-0.17099M251.3462,188.19754h5.70928v0.82647h-5.70928v-0.82647M253.68311,186.45911h0.92146v4.23684h-0.92146v-4.23684M253.69261,191.22792h0.84547v2.77389h-0.84547v-2.77389M251.97318,187.25707l0.80747,-0.24699c0.08233,0.15833 0.16909,0.33249 0.26029,0.52248c0.09246,0.18999 0.16086,0.35149 0.20519,0.48448l-0.84547,0.28499c-0.038,-0.13933 -0.09816,-0.30905 -0.18049,-0.50918c-0.08233,-0.19886 -0.16466,-0.37745 -0.24699,-0.53578M255.61154,186.83909l0.87397,0.23749c-0.13933,0.27232 -0.27992,0.54275 -0.42178,0.81127c-0.14313,0.26979 -0.27802,0.49968 -0.40468,0.68967l-0.75047,-0.22799c0.08233,-0.13933 0.16783,-0.29639 0.25649,-0.47118c0.08866,-0.17353 0.17226,-0.35212 0.25079,-0.53578c0.0798,-0.18366 0.14503,-0.35149 0.19569,-0.50348M253.20813,188.67252l0.78847,0.27549c-0.17733,0.31665 -0.39898,0.61748 -0.66497,0.90247c-0.26599,0.28499 -0.55415,0.54275 -0.86447,0.77327c-0.31032,0.23179 -0.63014,0.42052 -0.95946,0.56618c-0.06966,-0.10766 -0.16466,-0.23622 -0.28499,-0.38569c-0.12033,-0.14819 -0.23116,-0.26662 -0.33249,-0.35529c0.30399,-0.10766 0.60354,-0.25332 0.89867,-0.43698c0.29386,-0.18366 0.56428,-0.38949 0.81127,-0.61748c0.24699,-0.22799 0.44965,-0.46865 0.60798,-0.72197M255.11756,188.67252c0.15833,0.22799 0.35782,0.45092 0.59848,0.66877c0.24066,0.21913 0.50221,0.41735 0.78467,0.59468c0.28119,0.17733 0.56428,0.32299 0.84927,0.43698c-0.10133,0.08233 -0.21343,0.19633 -0.33629,0.34199c-0.12413,0.14566 -0.22419,0.27866 -0.30019,0.39898c-0.29132,-0.15199 -0.58391,-0.34072 -0.87777,-0.56618c-0.29512,-0.22419 -0.57251,-0.47245 -0.83217,-0.74477c-0.25966,-0.27232 -0.47815,-0.55098 -0.65548,-0.83597l0.76947,-0.29449M251.79268,190.85744h4.79732v3.74286h-0.94996v-2.99239h-2.94489v3.03988h-0.90247v-3.79036M252.41016,192.21589h3.49587v0.71247h-3.49587v-0.71247M252.41016,193.54584h3.48637v0.73147h-3.48637v-0.73147M248.23982,190.73394c0.36732,-0.10133 0.81064,-0.23939 1.32995,-0.41418c0.51931,-0.17353 1.04179,-0.35212 1.56744,-0.53578l0.16149,0.91197c-0.48765,0.18366 -0.98163,0.36415 -1.48194,0.54148c-0.50031,0.17733 -0.96263,0.33882 -1.38695,0.48448l-0.18999,-0.98796M248.39181,187.62756h2.89739v0.94046h-2.89739v-0.94046M249.44627,185.80363h0.94046v7.7612c0,0.24066 -0.0266,0.43192 -0.0798,0.57378c-0.05446,0.14313 -0.15136,0.25586 -0.29069,0.33819c-0.13299,0.08233 -0.30209,0.13616 -0.50728,0.16149c-0.20646,0.02533 -0.46485,0.03483 -0.77517,0.0285c-0.00633,-0.12033 -0.0361,-0.27422 -0.0893,-0.46168c-0.05446,-0.18619 -0.11336,-0.34579 -0.17669,-0.47878c0.18366,0.00633 0.35149,0.0095 0.50348,0.0095c0.15199,0 0.25649,-0.00317 0.31349,-0.0095c0.057,0 0.09816,-0.0095 0.1235,-0.0285c0.02533,-0.019 0.038,-0.06333 0.038,-0.13299zM259.39239,185.99362l0.90247,-0.22799c0.08866,0.19633 0.17733,0.41292 0.26599,0.64978c0.08866,0.23812 0.15833,0.44268 0.20899,0.61368l-0.94996,0.27549c-0.03167,-0.17733 -0.09056,-0.38949 -0.17669,-0.63648c-0.08486,-0.24699 -0.16846,-0.47182 -0.25079,-0.67447M257.91045,187.26657h4.21784v0.94996h-4.21784v-0.94996M259.49689,189.2425h1.65294v0.93096h-1.65294v-0.93096M260.81734,189.2425h0.96896c0,0 0,0.0266 0,0.0798c0,0.05446 0,0.11336 0,0.17669c0,0.06333 -0.00317,0.11716 -0.0095,0.16149c-0.01267,0.7663 -0.0266,1.41671 -0.0418,1.95123c-0.01647,0.53578 -0.03736,0.97783 -0.0627,1.32615c-0.02533,0.34832 -0.057,0.62064 -0.095,0.81697c-0.038,0.19633 -0.08866,0.33882 -0.15199,0.42748c-0.08866,0.12666 -0.18049,0.21659 -0.27549,0.26979c-0.095,0.05446 -0.21216,0.0912 -0.35149,0.1102c-0.114,0.019 -0.26282,0.03167 -0.44648,0.038c-0.18366,0.00633 -0.37682,0.00317 -0.57948,-0.0095c-0.00633,-0.13299 -0.03357,-0.28816 -0.0817,-0.46548c-0.04686,-0.17733 -0.10513,-0.33249 -0.17479,-0.46548c0.16466,0.01267 0.31539,0.02217 0.45218,0.0285c0.13553,0.00633 0.24129,0.0095 0.31729,0.0095c0.06333,0 0.11716,-0.0095 0.16149,-0.0285c0.04433,-0.019 0.08233,-0.057 0.114,-0.114c0.038,-0.057 0.07156,-0.16783 0.1007,-0.33249c0.02787,-0.16466 0.0513,-0.40532 0.0703,-0.72197c0.019,-0.31665 0.03483,-0.72514 0.0475,-1.22545c0.01267,-0.50031 0.02533,-1.11146 0.038,-1.83343v-0.19949M263.06875,187.53256h3.66686v0.94996h-3.66686v-0.94996M263.20175,185.78463l1.04496,0.17099c-0.10766,0.63331 -0.24699,1.25079 -0.41798,1.85243c-0.17099,0.60164 -0.37492,1.15896 -0.61178,1.67194c-0.23812,0.51298 -0.50918,0.96263 -0.81317,1.34895c-0.04433,-0.06966 -0.114,-0.15516 -0.20899,-0.25649c-0.095,-0.10133 -0.19189,-0.20266 -0.29069,-0.30399c-0.09753,-0.10133 -0.18429,-0.18366 -0.26029,-0.24699c0.27232,-0.32299 0.50855,-0.70931 0.70867,-1.15896c0.19886,-0.44965 0.36922,-0.93603 0.51108,-1.45914c0.14313,-0.52185 0.25586,-1.06143 0.33819,-1.61874M265.06368,188.09304l1.00696,0.1045c-0.15199,1.07029 -0.37809,2.01709 -0.67827,2.84039c-0.30145,0.8233 -0.70867,1.53578 -1.22165,2.13742c-0.51298,0.60164 -1.16212,1.10512 -1.94743,1.51044c-0.03167,-0.076 -0.08233,-0.16973 -0.15199,-0.28119c-0.06966,-0.1102 -0.14249,-0.22229 -0.21849,-0.33629c-0.076,-0.114 -0.14566,-0.20583 -0.20899,-0.27549c0.72831,-0.32932 1.32172,-0.7568 1.78023,-1.28245c0.45978,-0.52565 0.8195,-1.15579 1.07916,-1.89043c0.25966,-0.73464 0.44648,-1.57694 0.56048,-2.5269M263.55323,188.32103c0.14566,0.82963 0.35339,1.60037 0.62318,2.31221c0.26852,0.71311 0.62001,1.33692 1.05446,1.87143c0.43318,0.53578 0.9696,0.94933 1.60924,1.24065c-0.076,0.06333 -0.15833,0.14693 -0.24699,0.25079c-0.08866,0.10513 -0.17416,0.21279 -0.25649,0.32299c-0.08233,0.11146 -0.14883,0.21153 -0.19949,0.30019c-0.68397,-0.35465 -1.25079,-0.82963 -1.70044,-1.42495c-0.44965,-0.59531 -0.8138,-1.29385 -1.09246,-2.09562c-0.27866,-0.8005 -0.50348,-1.6789 -0.67447,-2.6352l0.88347,-0.14249M258.89841,187.76056h0.96896v2.34641c0,0.51931 -0.03357,1.04179 -0.1007,1.56744c-0.06586,0.52565 -0.19823,1.03673 -0.39708,1.53324c-0.20013,0.49778 -0.50601,0.9715 -0.91767,1.42115c-0.08866,-0.10766 -0.20583,-0.22356 -0.35149,-0.34769c-0.14566,-0.12286 -0.27866,-0.22862 -0.39898,-0.31729c0.35465,-0.39898 0.61748,-0.81697 0.78847,-1.25395c0.17099,-0.43698 0.28182,-0.87713 0.33249,-1.32045c0.05066,-0.44332 0.076,-0.87397 0.076,-1.29195zM267.26759,190.68644c0.38632,-0.08866 0.84863,-0.20773 1.38695,-0.35719c0.53831,-0.14819 1.08612,-0.30145 1.64344,-0.45978l0.13299,0.92146c-0.50031,0.15199 -1.00823,0.30525 -1.52374,0.45978c-0.51678,0.15579 -0.98733,0.29386 -1.41165,0.41418l-0.22799,-0.97846M267.37209,187.58956h3.06838v0.94046h-3.06838v-0.94046M268.47405,185.80363h0.98796v7.68521c0,0.24699 -0.0285,0.44458 -0.0855,0.59278c-0.057,0.14946 -0.15516,0.26536 -0.29449,0.34769c-0.13933,0.08866 -0.31475,0.14566 -0.52628,0.17099c-0.21279,0.02533 -0.47435,0.03483 -0.78467,0.0285c-0.00633,-0.13299 -0.0361,-0.29449 -0.0893,-0.48448c-0.05446,-0.18999 -0.11653,-0.35782 -0.18619,-0.50348c0.17733,0.00633 0.34389,0.01077 0.49968,0.0133c0.15453,0.0038 0.26029,0.00253 0.31729,-0.0038c0.057,0 0.09816,-0.01267 0.1235,-0.038c0.02533,-0.02533 0.038,-0.06966 0.038,-0.13299v-7.67571M271.41893,189.347h4.42683v0.90247h-4.42683v-0.90247M271.43793,191.21842h4.39833v0.89297h-4.39833v-0.89297M271.48543,193.12785h4.69282v0.93096h-4.69282v-0.93096M271.79892,185.85113l0.95946,0.25649c-0.17099,0.51931 -0.37682,1.03356 -0.61748,1.54274c-0.24066,0.51045 -0.50031,0.9886 -0.77897,1.43445c-0.27866,0.44712 -0.56998,0.8385 -0.87397,1.17416c-0.05066,-0.06333 -0.12033,-0.14249 -0.20899,-0.23749c-0.08866,-0.095 -0.18049,-0.18999 -0.27549,-0.28499c-0.095,-0.095 -0.17733,-0.17099 -0.24699,-0.22799c0.28499,-0.29132 0.55605,-0.63204 0.81317,-1.02216c0.25586,-0.38885 0.48828,-0.8081 0.69727,-1.25775c0.20899,-0.44965 0.38632,-0.9088 0.53198,-1.37745M272.11241,187.45657h3.85685v0.93096h-3.85685v6.28876h-0.97846v-6.42176l0.77897,-0.79797h0.19949M273.41386,187.94105h0.94996v5.69028h-0.94996v-5.69028M273.12887,186.22161l0.87397,-0.35149c0.13933,0.20899 0.26916,0.43698 0.38949,0.68397c0.12033,0.24699 0.21216,0.46548 0.27549,0.65548l-0.92146,0.39898c-0.05066,-0.18999 -0.13616,-0.41482 -0.25649,-0.67447c-0.12033,-0.25966 -0.24066,-0.49715 -0.36099,-0.71247zM278.61966,188.72002h5.3388v0.96896h-5.3388v-0.96896M281.27956,190.95243h3.20138v0.94996h-3.20138v-0.94996M280.73808,189.2235h1.06396v4.65482l-1.06396,-0.13299v-4.52183M278.50566,190.23046l1.03546,0.1045c-0.12666,0.96263 -0.34199,1.81126 -0.64598,2.5459c-0.30399,0.73464 -0.72514,1.33628 -1.26345,1.80493c-0.05066,-0.06333 -0.12666,-0.13933 -0.22799,-0.22799c-0.10133,-0.08866 -0.20583,-0.17606 -0.31349,-0.26219c-0.10766,-0.08486 -0.20266,-0.14946 -0.28499,-0.19379c0.51931,-0.38632 0.9107,-0.90437 1.17416,-1.55414c0.26219,-0.64851 0.43762,-1.38758 0.52628,-2.21722M279.29413,191.41792c0.15833,0.44965 0.35972,0.8119 0.60418,1.08676c0.24319,0.27612 0.52628,0.48512 0.84927,0.62698c0.32299,0.14313 0.67764,0.24129 1.06396,0.29449c0.38632,0.05446 0.79797,0.0817 1.23495,0.0817c0.095,0 0.22799,0 0.39898,0c0.17099,0 0.36099,0 0.56998,0c0.20899,0 0.42115,-0.0019 0.63648,-0.0057c0.21533,-0.00253 0.41482,-0.0057 0.59848,-0.0095c0.18366,-0.00253 0.33565,-0.0038 0.45598,-0.0038c-0.05066,0.076 -0.10133,0.17733 -0.15199,0.30399c-0.05066,0.12666 -0.095,0.25459 -0.13299,0.38379c-0.038,0.13046 -0.0665,0.24636 -0.0855,0.34769h-0.48448h-1.86193c-0.55098,0 -1.05889,-0.038 -1.52374,-0.114c-0.46612,-0.076 -0.886,-0.21406 -1.25965,-0.41418c-0.37365,-0.19886 -0.70614,-0.48385 -0.99746,-0.85497c-0.29132,-0.36985 -0.53831,-0.84927 -0.74097,-1.43825l0.82647,-0.28499M277.23271,186.82009h8.10319v2.29891h-1.05446v-1.32995h-6.04177v1.32995h-1.00696v-2.29891M280.46259,185.99362l1.01646,-0.28499c0.10766,0.19633 0.21533,0.41165 0.32299,0.64598c0.10766,0.23432 0.18366,0.44015 0.22799,0.61748l-1.07346,0.32299c-0.03167,-0.17099 -0.095,-0.37999 -0.18999,-0.62698c-0.095,-0.24699 -0.19633,-0.47182 -0.30399,-0.67447zM287.26433,186.07912h7.01073v0.74097h-7.01073v-0.74097M287.68231,189.90747h7.05823v0.70297h-7.05823v-0.70297M288.54678,190.91444h5.67128v0.61748h-5.67128v-0.61748M287.66332,191.8549h7.43822v0.68397h-7.43822v-0.68397M287.90081,188.15954h2.00442v0.53198h-2.00442v-0.53198M287.69181,189.03351h2.22292v0.52248h-2.22292v-0.52248M291.60567,189.03351h2.25141v0.52248h-2.25141v-0.52248M291.60567,188.15954h2.02342v0.53198h-2.02342v-0.53198M290.24722,186.39261h1.00696v3.32487h-1.00696v-3.32487M286.65635,187.20008h8.24569v1.66244h-0.98796v-1.05446h-6.31726v1.05446h-0.94046v-1.66244M287.22633,189.90747h0.94996v1.31095c0,0.26599 -0.01583,0.55225 -0.0475,0.85877c-0.03167,0.30779 -0.08993,0.62001 -0.17479,0.93666c-0.08613,0.31665 -0.20646,0.62191 -0.36099,0.91577c-0.15579,0.29512 -0.35719,0.56301 -0.60418,0.80367c-0.05066,-0.06333 -0.12033,-0.13806 -0.20899,-0.22419c-0.08866,-0.08486 -0.18176,-0.16719 -0.27929,-0.24699c-0.0988,-0.07853 -0.18619,-0.13679 -0.26219,-0.17479c0.29766,-0.28499 0.51615,-0.59531 0.65548,-0.93096c0.13933,-0.33565 0.22989,-0.67321 0.27169,-1.01266c0.04053,-0.33819 0.0608,-0.65294 0.0608,-0.94426v-1.29195M291.59617,192.21589c0.18999,0.31032 0.45915,0.56808 0.80747,0.77327c0.34832,0.20646 0.76504,0.36795 1.25015,0.48448c0.48385,0.1178 1.02343,0.19569 1.61874,0.23369c-0.08866,0.08866 -0.18049,0.20899 -0.27549,0.36099c-0.095,0.15199 -0.17099,0.29132 -0.22799,0.41798c-0.65231,-0.06966 -1.23305,-0.18999 -1.74223,-0.36099c-0.51045,-0.17099 -0.94933,-0.40088 -1.31665,-0.68967c-0.36732,-0.28752 -0.67131,-0.64028 -0.91197,-1.05826l0.79797,-0.16149M293.80958,192.46288l0.75047,0.37999c-0.22799,0.15199 -0.46865,0.29259 -0.72197,0.42178c-0.25332,0.13046 -0.48448,0.24319 -0.69347,0.33819l-0.61748,-0.34199c0.13933,-0.076 0.28689,-0.16023 0.44268,-0.25269c0.15453,-0.0912 0.30652,-0.18619 0.45598,-0.28499c0.14819,-0.09753 0.27612,-0.18429 0.38379,-0.26029M288.62278,194.66679l-0.0475,-0.66497l0.39898,-0.27549l2.6219,-0.37049c-0.02533,0.114 -0.0475,0.24509 -0.0665,0.39329c-0.019,0.14946 -0.0285,0.27169 -0.0285,0.36669c-0.58264,0.095 -1.05256,0.17226 -1.40975,0.23179c-0.35845,0.0608 -0.63584,0.1102 -0.83217,0.14819c-0.19633,0.038 -0.33882,0.06966 -0.42748,0.095c-0.08866,0.02533 -0.15833,0.05066 -0.20899,0.076M288.62278,194.66679c-0.02533,-0.076 -0.06333,-0.16339 -0.114,-0.26219c-0.05066,-0.09753 -0.10576,-0.19569 -0.16529,-0.29449c-0.0608,-0.09753 -0.11653,-0.17796 -0.16719,-0.24129c0.10766,-0.057 0.22356,-0.15389 0.34769,-0.29069c0.12286,-0.13553 0.18429,-0.31095 0.18429,-0.52628v-0.91197l0.98796,0.019v1.54844c0,0 -0.0361,0.02217 -0.1083,0.0665c-0.07346,0.04433 -0.16276,0.1045 -0.26789,0.18049c-0.10386,0.076 -0.20963,0.15516 -0.31729,0.23749c-0.10766,0.08233 -0.19759,0.16593 -0.26979,0.25079c-0.07346,0.08613 -0.1102,0.16086 -0.1102,0.22419zM297.84693,188.51103h6.64025v0.80747h-6.64025v-0.80747M297.93242,191.27542h5.2818v0.80747h-5.2818v-0.80747M299.19588,187.82705h0.96896v2.23241h1.89993v-2.23241h0.99746v3.01139h-3.86635v-3.01139M302.94823,191.27542h0.19949l0.18049,-0.038l0.63648,0.33249c-0.25966,0.49398 -0.59848,0.9164 -1.01646,1.26725c-0.41798,0.35212 -0.89297,0.64534 -1.42495,0.87967c-0.53198,0.23432 -1.10512,0.42115 -1.71943,0.56048c-0.61431,0.13933 -1.25395,0.24699 -1.91893,0.32299c-0.038,-0.12033 -0.09626,-0.26472 -0.17479,-0.43318c-0.0798,-0.16719 -0.16086,-0.30779 -0.24319,-0.42178c0.60798,-0.04433 1.19695,-0.12223 1.76693,-0.23369c0.56998,-0.1102 1.09752,-0.25712 1.58264,-0.44078c0.48385,-0.18366 0.90943,-0.41355 1.27675,-0.68967c0.36732,-0.27486 0.65231,-0.59911 0.85497,-0.97276v-0.13299M299.51886,191.8929c0.31032,0.36732 0.72387,0.68081 1.24065,0.94046c0.51551,0.25966 1.11209,0.46675 1.78973,0.62128c0.67764,0.15579 1.40595,0.26219 2.18492,0.31919c-0.06966,0.06966 -0.14249,0.15833 -0.21849,0.26599c-0.076,0.10766 -0.14756,0.21533 -0.21469,0.32299c-0.06586,0.10766 -0.1178,0.20583 -0.15579,0.29449c-0.81064,-0.08233 -1.56237,-0.22356 -2.25521,-0.42368c-0.69411,-0.19886 -1.31348,-0.46485 -1.85813,-0.79797c-0.54465,-0.33185 -1.00696,-0.73527 -1.38695,-1.21025l0.87397,-0.33249M297.10596,186.6491h7.47622v0.94996h-7.47622v-0.94996M296.63097,186.6491h1.00696v2.5459c0,0.39265 -0.0114,0.82457 -0.0342,1.29575c-0.02153,0.47245 -0.06396,0.95566 -0.1273,1.44964c-0.06333,0.49398 -0.15516,0.97213 -0.27549,1.43445c-0.12033,0.46232 -0.27866,0.88663 -0.47498,1.27295c-0.06966,-0.05066 -0.16149,-0.1045 -0.27549,-0.16149c-0.114,-0.057 -0.22926,-0.11273 -0.34579,-0.16719c-0.1178,-0.0532 -0.22103,-0.0893 -0.30969,-0.1083c0.18999,-0.36732 0.34199,-0.76504 0.45598,-1.19315c0.114,-0.42685 0.19823,-0.8651 0.25269,-1.31475c0.0532,-0.44965 0.08803,-0.88853 0.1045,-1.31665c0.0152,-0.42685 0.0228,-0.82077 0.0228,-1.18175v-2.5554M299.95585,185.96512l1.02596,-0.23749c0.10766,0.20266 0.20773,0.42432 0.30019,0.66497c0.0912,0.24066 0.15579,0.44648 0.19379,0.61748l-1.09246,0.26599c-0.02533,-0.17733 -0.07916,-0.38949 -0.16149,-0.63648c-0.08233,-0.24699 -0.17099,-0.47182 -0.26599,-0.67447zM307.59356,193.97332c-0.36732,0 -0.69347,-0.04433 -0.97846,-0.13299c-0.28499,-0.08866 -0.53831,-0.20583 -0.75997,-0.35149c-0.22166,-0.14566 -0.41165,-0.31032 -0.56998,-0.49398l0.59848,-0.78847c0.20899,0.20266 0.44332,0.37682 0.70297,0.52248c0.25966,0.14566 0.56048,0.21849 0.90247,0.21849c0.25332,0 0.47498,-0.04116 0.66497,-0.1235c0.18999,-0.08233 0.33692,-0.20456 0.44078,-0.36669c0.10513,-0.16086 0.15769,-0.35212 0.15769,-0.57378c0,-0.24699 -0.0589,-0.46105 -0.17669,-0.64218c-0.11653,-0.17986 -0.32045,-0.31919 -0.61178,-0.41798c-0.29132,-0.09753 -0.69664,-0.14629 -1.21595,-0.14629v-0.90247c0.44965,0 0.8024,-0.0494 1.05826,-0.14819c0.25712,-0.09753 0.44078,-0.23369 0.55098,-0.40848c0.11146,-0.17353 0.16719,-0.37112 0.16719,-0.59278c0,-0.29132 -0.08866,-0.52121 -0.26599,-0.68967c-0.17733,-0.16719 -0.42432,-0.25079 -0.74097,-0.25079c-0.25966,0 -0.50031,0.05826 -0.72197,0.17479c-0.22166,0.1178 -0.43698,0.27169 -0.64598,0.46168l-0.63648,-0.76947c0.29132,-0.25966 0.60481,-0.46738 0.94046,-0.62318c0.33565,-0.15453 0.70614,-0.23179 1.11146,-0.23179c0.43698,0 0.8214,0.07093 1.15326,0.21279c0.33312,0.14313 0.59278,0.35085 0.77897,0.62318c0.18746,0.27232 0.28119,0.60798 0.28119,1.00696c0,0.38632 -0.1064,0.71691 -0.31919,0.99176c-0.21153,0.27612 -0.50095,0.48385 -0.86827,0.62318v0.0475c0.26599,0.06966 0.50665,0.18176 0.72197,0.33629c0.21533,0.15579 0.38505,0.35212 0.50918,0.58898c0.12286,0.23812 0.18429,0.51235 0.18429,0.82267c0,0.42432 -0.10893,0.78657 -0.32679,1.08676c-0.21913,0.30145 -0.51108,0.53261 -0.87587,0.69347c-0.36352,0.16213 -0.76694,0.24319 -1.21025,0.24319zM313.98681,187.22858l0.87397,-0.47498c0.18366,0.22166 0.36732,0.46358 0.55098,0.72577c0.18366,0.26346 0.35149,0.51995 0.50348,0.76947c0.15199,0.25079 0.27549,0.47752 0.37049,0.68017l-0.92146,0.56048c-0.08233,-0.20266 -0.19823,-0.43698 -0.34769,-0.70297c-0.14819,-0.26599 -0.31222,-0.53515 -0.49208,-0.80747c-0.18113,-0.27232 -0.36035,-0.52248 -0.53768,-0.75047M316.58971,191.8834l0.81697,-0.57948c0.27866,0.26599 0.57124,0.55541 0.87777,0.86827c0.30779,0.31412 0.59911,0.62761 0.87397,0.94046c0.27612,0.31412 0.49651,0.59468 0.66117,0.84167l-0.90247,0.67447c-0.15199,-0.24699 -0.35782,-0.53198 -0.61748,-0.85497c-0.25966,-0.32299 -0.54021,-0.64914 -0.84167,-0.97846c-0.30019,-0.32932 -0.58961,-0.63331 -0.86827,-0.91197M317.63467,186.19312l1.09246,0.0475c-0.06333,1.11462 -0.16973,2.11525 -0.31919,3.00189c-0.14819,0.88663 -0.37112,1.6732 -0.66877,2.35971c-0.29766,0.68777 -0.69664,1.28625 -1.19695,1.79543c-0.50031,0.51045 -1.12729,0.94616 -1.88093,1.30715c-0.04433,-0.06966 -0.114,-0.16149 -0.20899,-0.27549c-0.095,-0.114 -0.19506,-0.22673 -0.30019,-0.33819c-0.10386,-0.1102 -0.19379,-0.20013 -0.26979,-0.26979c0.72831,-0.29766 1.32805,-0.67131 1.79923,-1.12096c0.47245,-0.44965 0.84293,-0.9867 1.11146,-1.61114c0.26979,-0.62318 0.46802,-1.34008 0.59468,-2.15072c0.12666,-0.81064 0.20899,-1.72577 0.24699,-2.7454M311.83989,193.83082l-0.20899,-1.04496l0.35149,-0.36099l2.99239,-1.48194c0.02533,0.14566 0.0665,0.31475 0.1235,0.50728c0.057,0.19379 0.1045,0.34769 0.14249,0.46168c-0.54465,0.27866 -1.0038,0.51615 -1.37745,0.71247c-0.37365,0.19633 -0.68081,0.36225 -0.92146,0.49778c-0.24066,0.13679 -0.43255,0.24762 -0.57568,0.33249c-0.14186,0.08613 -0.25269,0.15896 -0.33249,0.21849c-0.07853,0.0608 -0.14313,0.11336 -0.19379,0.15769M311.83989,193.83082c-0.03167,-0.076 -0.08106,-0.16656 -0.14819,-0.27169c-0.06586,-0.10386 -0.13679,-0.20646 -0.21279,-0.30779c-0.076,-0.10133 -0.14249,-0.18049 -0.19949,-0.23749c0.08233,-0.057 0.17416,-0.13489 0.27549,-0.23369c0.10133,-0.09753 0.19126,-0.21469 0.26979,-0.35149c0.0798,-0.13553 0.1197,-0.28246 0.1197,-0.44078v-5.51929h1.11146v6.14627c0,0 -0.04116,0.0285 -0.1235,0.0855c-0.08233,0.057 -0.18366,0.13299 -0.30399,0.22799c-0.12033,0.095 -0.24066,0.19633 -0.36099,0.30399c-0.12033,0.10766 -0.22166,0.21533 -0.30399,0.32299c-0.08233,0.10766 -0.1235,0.19949 -0.1235,0.27549zM324.51241,188.71052h3.94235v1.02596h-3.94235v-1.02596M320.47507,193.17535h8.63517v1.02596h-8.63517v-1.02596M323.93293,185.91763h1.09246v7.8182h-1.09246zM330.86767,187.33307h2.90689v6.34576h-2.90689v-0.90247h1.97592v-4.55033h-1.97592v-0.89297M330.26919,187.33307h0.93096v7.06773h-0.93096v-7.06773M330.82017,189.89797h2.48891v0.88347h-2.48891v-0.88347M331.64664,185.78463l1.11146,0.17099c-0.10133,0.31032 -0.20899,0.62191 -0.32299,0.93476c-0.114,0.31412 -0.21849,0.58201 -0.31349,0.80367l-0.81697,-0.18999c0.04433,-0.15833 0.08993,-0.33882 0.13679,-0.54148c0.04813,-0.20266 0.0912,-0.40722 0.1292,-0.61368c0.038,-0.20519 0.06333,-0.39329 0.076,-0.56428M335.05701,187.27607h2.82139v0.93096h-2.82139v-0.93096M337.51742,187.27607h0.94996c0,0 0,0.02977 0,0.0893c0,0.0608 0,0.1273 0,0.19949c0,0.07346 -0.00317,0.13236 -0.0095,0.17669c-0.03167,1.07663 -0.06523,1.98859 -0.1007,2.7359c-0.0342,0.74731 -0.07536,1.36161 -0.1235,1.84293c-0.04686,0.48132 -0.10196,0.85623 -0.16529,1.12476c-0.06333,0.26979 -0.14566,0.46802 -0.24699,0.59468c-0.12666,0.17099 -0.25649,0.28816 -0.38949,0.35149c-0.13299,0.06333 -0.29449,0.11083 -0.48448,0.14249c-0.17099,0.019 -0.38949,0.0285 -0.65548,0.0285c-0.26599,0 -0.53831,-0.00633 -0.81697,-0.019c-0.00633,-0.13933 -0.03926,-0.30399 -0.0988,-0.49398c-0.0608,-0.18999 -0.14186,-0.35465 -0.24319,-0.49398c0.31032,0.02533 0.59531,0.04116 0.85497,0.0475c0.25966,0.00633 0.44965,0.0095 0.56998,0.0095c0.095,0 0.17226,-0.0114 0.23179,-0.0342c0.0608,-0.02153 0.12286,-0.06396 0.18619,-0.1273c0.076,-0.08866 0.14249,-0.26156 0.19949,-0.51868c0.057,-0.25586 0.1045,-0.61811 0.14249,-1.08676c0.038,-0.46865 0.0741,-1.06396 0.1083,-1.78593c0.03546,-0.72197 0.06586,-1.58327 0.0912,-2.5839v-0.19949M335.13301,185.78463l0.97846,0.22799c-0.12033,0.46865 -0.26472,0.93223 -0.43318,1.39075c-0.16719,0.45978 -0.35212,0.89233 -0.55478,1.29765c-0.20266,0.40532 -0.41165,0.75997 -0.62698,1.06396c-0.06333,-0.057 -0.14566,-0.1235 -0.24699,-0.19949c-0.10133,-0.076 -0.20583,-0.15073 -0.31349,-0.22419c-0.10766,-0.0722 -0.19949,-0.1273 -0.27549,-0.16529c0.20899,-0.27232 0.40658,-0.59088 0.59278,-0.95566c0.18746,-0.36352 0.35592,-0.75427 0.50538,-1.17226c0.14819,-0.41798 0.27296,-0.83913 0.37429,-1.26345M334.67702,189.93597l0.79797,-0.44648c0.15833,0.21533 0.32932,0.45408 0.51298,0.71627c0.18366,0.26346 0.35592,0.51678 0.51678,0.75997c0.16213,0.24446 0.29069,0.46168 0.38569,0.65168l-0.86447,0.53198c-0.08866,-0.19633 -0.20899,-0.42115 -0.36099,-0.67447c-0.15199,-0.25332 -0.31539,-0.51488 -0.49018,-0.78467c-0.17353,-0.26852 -0.33945,-0.51995 -0.49778,-0.75427zM340.06332,186.5921h7.54271v0.90247h-7.54271v-0.90247M339.53134,188.77702h8.52118v0.91197h-8.52118v-0.91197M341.39327,191.9309h4.82582v0.77897h-4.82582v-0.77897M341.40277,193.48884h4.82582v0.85497h-4.82582v-0.85497M340.74729,190.35396h6.19376v4.31284h-1.07346v-3.46737h-4.10384v3.47687h-1.01646v-4.32234M345.33562,187.44707l1.13046,0.23749c-0.08233,0.17733 -0.16466,0.35275 -0.24699,0.52628c-0.08233,0.17479 -0.16466,0.33945 -0.24699,0.49398c-0.08233,0.15579 -0.15833,0.29386 -0.22799,0.41418l-0.96896,-0.23749c0.06333,-0.13299 0.1311,-0.28372 0.20329,-0.45218c0.07346,-0.16719 0.14186,-0.33819 0.20519,-0.51298c0.06333,-0.17353 0.114,-0.32995 0.15199,-0.46928M341.26977,187.68456l0.99746,-0.19949c0.13299,0.19633 0.24826,0.41608 0.34579,0.65927c0.0988,0.24446 0.16403,0.45852 0.19569,0.64218l-1.06396,0.24699c-0.02533,-0.18999 -0.08423,-0.41165 -0.17669,-0.66497c-0.0912,-0.25332 -0.19063,-0.48132 -0.29829,-0.68397M343.01771,185.87013l1.05446,-0.17099c0.114,0.17099 0.21533,0.36225 0.30399,0.57378c0.08866,0.21279 0.14883,0.39835 0.18049,0.55668l-1.10196,0.21849c-0.02533,-0.16466 -0.07916,-0.35782 -0.16149,-0.57948c-0.08233,-0.22166 -0.17416,-0.42115 -0.27549,-0.59848zM349.01198,187.13358h4.47433v0.91197h-4.47433v-0.91197M350.01894,188.12154l0.86447,0.26599c-0.12033,0.29132 -0.25966,0.58898 -0.41798,0.89297c-0.15833,0.30399 -0.32489,0.59214 -0.49968,0.86447c-0.17353,0.27232 -0.34579,0.51298 -0.51678,0.72197c-0.04433,-0.05066 -0.10956,-0.11716 -0.19569,-0.19949c-0.08486,-0.08233 -0.17163,-0.16339 -0.26029,-0.24319c-0.08866,-0.07853 -0.16783,-0.14313 -0.23749,-0.19379c0.24066,-0.27232 0.47372,-0.59848 0.69917,-0.97846c0.22419,-0.37999 0.41228,-0.7568 0.56428,-1.13046M351.56738,189.63198l0.96896,0.17099c-0.27866,1.03863 -0.67004,1.95059 -1.17416,2.7359c-0.50285,0.7853 -1.12476,1.42811 -1.86573,1.92843c-0.04433,-0.06966 -0.10766,-0.15199 -0.18999,-0.24699c-0.08233,-0.095 -0.16973,-0.18873 -0.26219,-0.28119c-0.0912,-0.0912 -0.16846,-0.16529 -0.23179,-0.22229c0.70297,-0.41798 1.28372,-0.9772 1.74223,-1.67764c0.45978,-0.69917 0.79734,-1.50158 1.01266,-2.40721M351.59588,188.46353l0.75047,-0.40848c0.15199,0.18366 0.30399,0.38125 0.45598,0.59278c0.15199,0.21279 0.28942,0.42368 0.41228,0.63268c0.12413,0.20899 0.21786,0.39898 0.28119,0.56998l-0.80747,0.45598c-0.05066,-0.17099 -0.13489,-0.36289 -0.25269,-0.57568c-0.11653,-0.21153 -0.24762,-0.43002 -0.39329,-0.65548c-0.14566,-0.22419 -0.29449,-0.42812 -0.44648,-0.61178M349.75295,190.51545l0.74097,-0.54148c0.23432,0.23432 0.47942,0.48448 0.73527,0.75047c0.25712,0.26599 0.50475,0.53831 0.74287,0.81697c0.23686,0.27866 0.45345,0.54908 0.64978,0.81127c0.19633,0.26346 0.36099,0.50601 0.49398,0.72767l-0.81697,0.63648c-0.114,-0.22166 -0.26599,-0.46738 -0.45598,-0.73717c-0.18999,-0.26852 -0.40215,-0.54718 -0.63648,-0.83597c-0.23432,-0.28752 -0.47625,-0.57061 -0.72577,-0.84927c-0.25079,-0.27866 -0.49335,-0.53831 -0.72767,-0.77897M354.47427,187.47557h3.16338v0.94996h-3.16338v-0.94996M354.56927,185.78463l0.94996,0.15199c-0.10766,0.64598 -0.24256,1.27738 -0.40468,1.89423c-0.16086,0.61811 -0.35719,1.19125 -0.58898,1.71943c-0.23052,0.52945 -0.49778,0.99683 -0.80177,1.40215c-0.038,-0.06966 -0.095,-0.15516 -0.17099,-0.25649c-0.076,-0.10133 -0.15706,-0.20266 -0.24319,-0.30399c-0.08486,-0.10133 -0.16213,-0.18366 -0.23179,-0.24699c0.26599,-0.34199 0.49398,-0.74287 0.68397,-1.20265c0.18999,-0.45852 0.35149,-0.95693 0.48448,-1.49524c0.13299,-0.53831 0.24066,-1.09246 0.32299,-1.66244M356.2222,188.12154l0.96896,0.114c-0.15199,1.08296 -0.38189,2.03736 -0.68967,2.86319c-0.30652,0.8271 -0.71627,1.53641 -1.22925,2.12792c-0.51298,0.59278 -1.15579,1.08549 -1.92843,1.47814c-0.04433,-0.06333 -0.10766,-0.14123 -0.18999,-0.23369c-0.08233,-0.0912 -0.16973,-0.18619 -0.26219,-0.28499c-0.0912,-0.09753 -0.17479,-0.17479 -0.25079,-0.23179c0.75997,-0.32932 1.38061,-0.76187 1.86193,-1.29765c0.48132,-0.53451 0.85813,-1.17732 1.13046,-1.92843c0.27232,-0.74984 0.46865,-1.61874 0.58898,-2.6067M354.70226,188.91001c0.15833,0.71564 0.37809,1.39328 0.65927,2.03292c0.28246,0.63964 0.62634,1.20962 1.03166,1.70993c0.40532,0.50031 0.87397,0.8993 1.40595,1.19695c-0.076,0.06333 -0.16023,0.14376 -0.25269,0.24129c-0.0912,0.0988 -0.17606,0.19886 -0.25459,0.30019c-0.0798,0.10133 -0.14503,0.19633 -0.19569,0.28499c-0.56364,-0.36099 -1.05446,-0.81887 -1.47244,-1.37365c-0.41798,-0.55351 -0.77264,-1.18682 -1.06396,-1.89993c-0.29132,-0.71184 -0.53198,-1.47624 -0.72197,-2.29321l0.86447,-0.19949M350.38943,186.07912l0.87397,-0.31349c0.12666,0.17099 0.24826,0.36225 0.36479,0.57378c0.1178,0.21279 0.20519,0.39518 0.26219,0.54718l-0.91197,0.37049c-0.04433,-0.16466 -0.1235,-0.35655 -0.23749,-0.57568c-0.114,-0.21786 -0.23116,-0.41862 -0.35149,-0.60228zM361.485,187.22858l0.87397,-0.47498c0.18366,0.22166 0.36732,0.46358 0.55098,0.72577c0.18366,0.26346 0.35149,0.51995 0.50348,0.76947c0.15199,0.25079 0.27549,0.47752 0.37049,0.68017l-0.92146,0.56048c-0.08233,-0.20266 -0.19759,-0.43698 -0.34579,-0.70297c-0.14946,-0.26599 -0.31412,-0.53515 -0.49398,-0.80747c-0.18113,-0.27232 -0.36035,-0.52248 -0.53768,-0.75047M364.0879,191.8834l0.81697,-0.57948c0.27866,0.26599 0.57124,0.55541 0.87777,0.86827c0.30779,0.31412 0.59911,0.62761 0.87397,0.94046c0.27612,0.31412 0.49651,0.59468 0.66117,0.84167l-0.90247,0.67447c-0.15199,-0.24699 -0.35782,-0.53198 -0.61748,-0.85497c-0.25966,-0.32299 -0.54021,-0.64914 -0.84167,-0.97846c-0.30019,-0.32932 -0.58961,-0.63331 -0.86827,-0.91197M365.13286,186.19312l1.09246,0.0475c-0.06333,1.11462 -0.16973,2.11525 -0.31919,3.00189c-0.14819,0.88663 -0.37112,1.6732 -0.66877,2.35971c-0.29766,0.68777 -0.69664,1.28625 -1.19695,1.79543c-0.50031,0.51045 -1.12729,0.94616 -1.88093,1.30715c-0.04433,-0.06966 -0.114,-0.16149 -0.20899,-0.27549c-0.095,-0.114 -0.19506,-0.22673 -0.30019,-0.33819c-0.10386,-0.1102 -0.19379,-0.20013 -0.26979,-0.26979c0.72831,-0.29766 1.32868,-0.67131 1.80113,-1.12096c0.47118,-0.44965 0.84103,-0.9867 1.10956,-1.61114c0.26979,-0.62318 0.46802,-1.34008 0.59468,-2.15072c0.12666,-0.81064 0.20899,-1.72577 0.24699,-2.7454M359.33809,193.83082l-0.20899,-1.04496l0.35149,-0.36099l2.99239,-1.48194c0.02533,0.14566 0.0665,0.31475 0.1235,0.50728c0.057,0.19379 0.1045,0.34769 0.14249,0.46168c-0.54465,0.27866 -1.0038,0.51615 -1.37745,0.71247c-0.37365,0.19633 -0.68081,0.36225 -0.92146,0.49778c-0.24066,0.13679 -0.43255,0.24762 -0.57568,0.33249c-0.14186,0.08613 -0.25269,0.15896 -0.33249,0.21849c-0.07853,0.0608 -0.14313,0.11336 -0.19379,0.15769M359.33809,193.83082c-0.03167,-0.076 -0.08043,-0.16656 -0.14629,-0.27169c-0.06713,-0.10386 -0.13869,-0.20646 -0.21469,-0.30779c-0.076,-0.10133 -0.14249,-0.18049 -0.19949,-0.23749c0.08233,-0.057 0.17416,-0.13489 0.27549,-0.23369c0.10133,-0.09753 0.19126,-0.21469 0.26979,-0.35149c0.0798,-0.13553 0.1197,-0.28246 0.1197,-0.44078v-5.51929h1.11146v6.14627c0,0 -0.04116,0.0285 -0.1235,0.0855c-0.08233,0.057 -0.18366,0.13299 -0.30399,0.22799c-0.12033,0.095 -0.24066,0.19633 -0.36099,0.30399c-0.12033,0.10766 -0.22166,0.21533 -0.30399,0.32299c-0.08233,0.10766 -0.1235,0.19949 -0.1235,0.27549zM370.89914,187.43757c0.25966,1.07029 0.62824,2.02342 1.10576,2.85939c0.47878,0.83597 1.10766,1.53578 1.88663,2.09942c0.77897,0.56364 1.7416,0.9753 2.88789,1.23495c-0.076,0.06966 -0.15833,0.16149 -0.24699,0.27549c-0.08866,0.114 -0.17099,0.23116 -0.24699,0.35149c-0.076,0.12033 -0.14249,0.23116 -0.19949,0.33249c-0.89297,-0.23432 -1.67194,-0.55921 -2.33691,-0.97466c-0.66497,-0.41418 -1.23305,-0.9126 -1.70424,-1.49524c-0.47245,-0.58264 -0.87333,-1.24952 -1.20265,-2.00062c-0.32932,-0.74984 -0.60481,-1.57757 -0.82647,-2.48321l0.88347,-0.19949M368.35324,186.27861h5.1583v1.03546h-5.1583v-1.03546M375.14548,188.55853h0.18999l0.18999,-0.0475l0.70297,0.27549c-0.18999,0.82963 -0.45282,1.56237 -0.78847,2.19822c-0.33565,0.63711 -0.73781,1.19125 -1.20645,1.66244c-0.46865,0.47245 -0.99113,0.87333 -1.56744,1.20265c-0.57631,0.32932 -1.20012,0.60164 -1.87143,0.81697c-0.038,-0.095 -0.08993,-0.19823 -0.15579,-0.30969c-0.06713,-0.1102 -0.13869,-0.21913 -0.21469,-0.32679c-0.076,-0.10766 -0.14883,-0.19633 -0.21849,-0.26599c0.60164,-0.16466 1.16972,-0.38949 1.70424,-0.67447c0.53578,-0.28499 1.01709,-0.63648 1.44394,-1.05446c0.42812,-0.41798 0.79544,-0.9012 1.10196,-1.44964c0.30779,-0.54718 0.53768,-1.16276 0.68967,-1.84673v-0.18049M373.35955,188.55853h2.01392v0.95946h-2.21342l0.19949,-0.95946M369.91118,186.5636h1.07346v1.41545c0,0.37365 -0.01457,0.77707 -0.0437,1.21025c-0.02787,0.43445 -0.0874,0.8841 -0.17859,1.34895c-0.09246,0.46612 -0.22736,0.9335 -0.40468,1.40215c-0.17733,0.46865 -0.41165,0.9259 -0.70297,1.37175c-0.29132,0.44712 -0.65864,0.87017 -1.10196,1.26915c-0.05066,-0.095 -0.12033,-0.19823 -0.20899,-0.30969c-0.08866,-0.1102 -0.18239,-0.21913 -0.28119,-0.32679c-0.09753,-0.10766 -0.18429,-0.19316 -0.26029,-0.25649c0.48132,-0.42432 0.86257,-0.88347 1.14376,-1.37745c0.28246,-0.49398 0.49335,-0.99936 0.63268,-1.51614c0.13933,-0.51551 0.22926,-1.01583 0.26979,-1.50094c0.0418,-0.48385 0.0627,-0.92526 0.0627,-1.32425v-1.40595M373.31205,186.27861h1.04496c-0.06333,0.36099 -0.13616,0.73907 -0.21849,1.13426c-0.08233,0.39645 -0.16276,0.77644 -0.24129,1.13996c-0.0798,0.36479 -0.15769,0.68651 -0.23369,0.96516h-1.12096c0.08866,-0.29132 0.18049,-0.62254 0.27549,-0.99366c0.095,-0.36985 0.18556,-0.74984 0.27169,-1.13996c0.08486,-0.38885 0.15896,-0.75744 0.22229,-1.10576z" fill="#ffffff" fill-rule="nonzero" stroke-width="1"/><path d="M250.25374,204.8523h5.01581v0.54148h-5.01581v-0.54148M249.74076,202.99038h6.07977v0.52248h-6.07977v-0.52248M249.74076,202.16391h6.07977v0.52248h-6.07977v-0.52248M248.5913,201.20444h8.33118v0.64598h-8.33118v-0.64598M249.63626,203.81684h6.31726v1.84293h-1.00696v-1.31095h-4.34133v1.32045h-0.96896v-1.85243M248.48681,197.1956h4.54083v0.59848h-4.54083v-0.59848M249.49377,196.83461h0.84547v1.26345h-0.84547v-1.26345M251.1942,196.82511h0.85497v1.26345h-0.85497v-1.26345M253.9301,197.57558h3.10638v0.69347h-3.10638v-0.69347M249.43677,198.32605h2.6504v0.54148h-2.6504v-0.54148M253.9586,196.78711l0.79797,0.18999c-0.16466,0.47498 -0.38315,0.92146 -0.65548,1.33945c-0.27232,0.41798 -0.56681,0.7663 -0.88347,1.04496c-0.04433,-0.05066 -0.10576,-0.10766 -0.18429,-0.17099c-0.0798,-0.06333 -0.16213,-0.12666 -0.24699,-0.18999c-0.08613,-0.06333 -0.16086,-0.114 -0.22419,-0.15199c0.31032,-0.24699 0.58771,-0.54971 0.83217,-0.90817c0.24319,-0.35719 0.43128,-0.74161 0.56428,-1.15326M255.61154,197.88907l0.87397,0.076c-0.13933,0.52565 -0.35149,0.97656 -0.63648,1.35275c-0.28499,0.37745 -0.63141,0.69411 -1.03926,0.94996c-0.40912,0.25712 -0.8765,0.46802 -1.40215,0.63268c-0.02533,-0.057 -0.0665,-0.12983 -0.1235,-0.21849c-0.057,-0.08866 -0.11716,-0.17733 -0.18049,-0.26599c-0.06333,-0.08866 -0.1235,-0.16149 -0.18049,-0.21849c0.70931,-0.17099 1.29828,-0.44015 1.76693,-0.80747c0.46865,-0.36732 0.7758,-0.86763 0.92146,-1.50094M254.14859,198.10756c0.25966,0.52565 0.65548,0.97213 1.18745,1.33945c0.53198,0.36732 1.16212,0.62381 1.89043,0.76947c-0.095,0.08866 -0.19633,0.20709 -0.30399,0.35529c-0.10766,0.14946 -0.18999,0.28436 -0.24699,0.40468c-0.77264,-0.20899 -1.43255,-0.54021 -1.97972,-0.99366c-0.54845,-0.45218 -0.9715,-1.01393 -1.26915,-1.68524l0.72197,-0.18999M249.35127,199.12402h1.92843v1.42495h-1.92843v-0.48448h1.22545v-0.45598h-1.22545v-0.48448M251.81168,198.32605h0.84547c0,0 0,0.038 0,0.114c0,0.076 -0.00317,0.13933 -0.0095,0.18999c-0.019,0.41798 -0.04433,0.76124 -0.076,1.02976c-0.03167,0.26979 -0.0646,0.47878 -0.0988,0.62698c-0.03546,0.14946 -0.08486,0.26219 -0.14819,0.33819c-0.06333,0.08233 -0.13616,0.14059 -0.21849,0.17479c-0.08233,0.03546 -0.17416,0.05636 -0.27549,0.0627c-0.076,0.00633 -0.17859,0.01077 -0.30779,0.0133c-0.13046,0.0038 -0.26852,0.00253 -0.41418,-0.0038c-0.00633,-0.095 -0.02533,-0.20583 -0.057,-0.33249c-0.03167,-0.12666 -0.07283,-0.23749 -0.1235,-0.33249c0.10766,0.00633 0.20266,0.01267 0.28499,0.019c0.08233,0.00633 0.14566,0.0095 0.18999,0.0095c0.038,0 0.07283,-0.00633 0.1045,-0.019c0.03167,-0.01267 0.06016,-0.03483 0.0855,-0.0665c0.05066,-0.06333 0.09183,-0.21849 0.1235,-0.46548c0.03167,-0.24699 0.06333,-0.65864 0.095,-1.23495v-0.1235M249.31328,198.01257l0.75997,0.1235c-0.13299,0.32299 -0.30272,0.62824 -0.50918,0.91577c-0.20519,0.28879 -0.46295,0.55668 -0.77327,0.80367c-0.06333,-0.08233 -0.15009,-0.17733 -0.26029,-0.28499c-0.11146,-0.10766 -0.20836,-0.18683 -0.29069,-0.23749c0.26599,-0.18999 0.48765,-0.40215 0.66497,-0.63648c0.17733,-0.23432 0.31349,-0.46232 0.40848,-0.68397M249.06629,199.12402h0.68397v1.66244h-0.68397v-1.66244M252.04917,200.84346l0.90247,-0.24699c0.08233,0.12033 0.16339,0.25649 0.24319,0.40848c0.07853,0.15199 0.13679,0.28499 0.17479,0.39898l-0.94996,0.26599c-0.03167,-0.114 -0.08233,-0.25016 -0.15199,-0.40848c-0.06966,-0.15833 -0.14249,-0.29766 -0.21849,-0.41798zM262.15679,200.43497h3.48637v0.92146h-3.48637v-0.92146M263.39174,200.97645c0.19633,0.55731 0.45155,1.08612 0.76567,1.58644c0.31285,0.50031 0.68651,0.94173 1.12096,1.32425c0.43318,0.38379 0.91577,0.68651 1.44774,0.90817c-0.076,0.06333 -0.15833,0.14693 -0.24699,0.25079c-0.08866,0.10513 -0.17226,0.21153 -0.25079,0.31919c-0.0798,0.10766 -0.14503,0.20583 -0.19569,0.29449c-0.56998,-0.27232 -1.07789,-0.63014 -1.52374,-1.07346c-0.44712,-0.44332 -0.83723,-0.95186 -1.17036,-1.52564c-0.33185,-0.57251 -0.60861,-1.19442 -0.83027,-1.86573l0.88347,-0.21849M265.38666,200.43497h0.18999l0.18999,-0.0285l0.64598,0.19949c-0.12666,0.7663 -0.33692,1.47371 -0.63078,2.12222c-0.29512,0.64978 -0.67194,1.22609 -1.13046,1.72893c-0.45978,0.50411 -1.0095,0.92083 -1.64914,1.25015c-0.076,-0.12033 -0.18049,-0.25522 -0.31349,-0.40468c-0.13299,-0.14819 -0.25966,-0.26979 -0.37999,-0.36479c0.44332,-0.20899 0.83913,-0.46105 1.18745,-0.75617c0.34832,-0.29386 0.65104,-0.62634 0.90817,-0.99746c0.25586,-0.36985 0.46612,-0.7701 0.63078,-1.20075c0.16466,-0.43065 0.28182,-0.8803 0.35149,-1.34895v-0.19949M265.13017,197.1386h1.04496c0,0 -0.00127,0.04876 -0.0038,0.14629c-0.0038,0.0988 -0.00887,0.17986 -0.0152,0.24319c-0.019,0.67131 -0.05573,1.16846 -0.1102,1.49144c-0.0532,0.32299 -0.13679,0.54465 -0.25079,0.66497c-0.10133,0.114 -0.21976,0.19126 -0.35529,0.23179c-0.13679,0.0418 -0.29069,0.0722 -0.46168,0.0912c-0.16466,0.00633 -0.38125,0.0095 -0.64978,0.0095c-0.26979,0 -0.55668,-0.00633 -0.86067,-0.019c-0.00633,-0.12666 -0.03357,-0.26916 -0.0817,-0.42748c-0.04686,-0.15833 -0.10513,-0.29449 -0.17479,-0.40848c0.18999,0.01267 0.37239,0.02343 0.54718,0.0323c0.17353,0.01013 0.32869,0.01647 0.46548,0.019c0.13553,0.0038 0.23812,0.0057 0.30779,0.0057c0.095,0 0.17099,-0.00507 0.22799,-0.0152c0.057,-0.00887 0.10766,-0.0323 0.15199,-0.0703c0.04433,-0.05066 0.07916,-0.14439 0.1045,-0.28119c0.02533,-0.13553 0.0475,-0.33185 0.0665,-0.58898c0.019,-0.25586 0.03483,-0.58328 0.0475,-0.98226v-0.14249M257.74896,201.68893c0.29132,-0.06333 0.61938,-0.13933 0.98416,-0.22799c0.36352,-0.08866 0.74604,-0.18366 1.14756,-0.28499c0.40278,-0.10133 0.80367,-0.20583 1.20265,-0.31349l0.1235,0.98796c-0.55098,0.15833 -1.10829,0.31475 -1.67194,0.46928c-0.56364,0.15579 -1.07979,0.29386 -1.54844,0.41418l-0.23749,-1.04496M257.88195,198.64904h3.23938v0.98796h-3.23938v-0.98796M259.1264,196.80611h1.03546v7.70421c0,0.27232 -0.03293,0.48258 -0.0988,0.63078c-0.06713,0.14946 -0.18303,0.26219 -0.34769,0.33819c-0.16466,0.08233 -0.37492,0.13426 -0.63078,0.15579c-0.25712,0.0228 -0.57568,0.0342 -0.95566,0.0342c-0.019,-0.13299 -0.0589,-0.29449 -0.1197,-0.48448c-0.05953,-0.18999 -0.12413,-0.35149 -0.19379,-0.48448c0.23432,0.00633 0.45725,0.0095 0.66877,0.0095c0.21279,0 0.35402,0 0.42368,0c0.08233,0 0.13933,-0.01457 0.17099,-0.0437c0.03167,-0.02787 0.0475,-0.08296 0.0475,-0.16529v-7.69471M261.43481,197.1386h4.00885v0.94996h-3.00189v7.55221h-1.00696zM271.01995,201.03345c0.41165,0.98796 1.05446,1.79987 1.92843,2.43571c0.87397,0.63711 1.97909,1.07283 3.31537,1.30715c-0.06966,0.06966 -0.14566,0.15959 -0.22799,0.26979c-0.08233,0.11146 -0.16023,0.22419 -0.23369,0.33819c-0.0722,0.114 -0.13046,0.21849 -0.17479,0.31349c-0.92463,-0.19633 -1.73717,-0.48955 -2.43761,-0.87967c-0.69917,-0.38885 -1.29892,-0.87777 -1.79923,-1.46674c-0.50031,-0.58898 -0.91513,-1.27612 -1.24445,-2.06142l0.87397,-0.25649M274.19283,200.68196h0.19949l0.18999,-0.038l0.71247,0.32299c-0.22166,0.67131 -0.51298,1.26472 -0.87397,1.78023c-0.36099,0.51678 -0.77897,0.96516 -1.25395,1.34515c-0.47498,0.37999 -0.9962,0.69981 -1.56364,0.95946c-0.56618,0.25966 -1.16592,0.47182 -1.79923,0.63648c-0.057,-0.13299 -0.13806,-0.28689 -0.24319,-0.46168c-0.10386,-0.17353 -0.20329,-0.31729 -0.29829,-0.43128c0.56998,-0.12033 1.11652,-0.29449 1.63964,-0.52248c0.52185,-0.22799 1,-0.50348 1.43445,-0.82647c0.43318,-0.32299 0.8081,-0.70171 1.12476,-1.13616c0.31665,-0.43318 0.56048,-0.91893 0.73147,-1.45724v-0.17099M270.69696,200.68196h3.64786v0.98796h-3.93285l0.28499,-0.98796M271.21944,196.74911l1.13996,0.18999c-0.12666,0.93096 -0.29576,1.79543 -0.50728,2.5934c-0.21279,0.79797 -0.48892,1.53071 -0.82837,2.19822c-0.33819,0.66877 -0.75744,1.27042 -1.25775,1.80493c-0.50031,0.53578 -1.10196,1.00316 -1.80493,1.40215c-0.04433,-0.076 -0.10893,-0.16656 -0.19379,-0.27169c-0.08613,-0.10386 -0.17796,-0.20646 -0.27549,-0.30779c-0.0988,-0.10133 -0.19253,-0.18049 -0.28119,-0.23749c0.85497,-0.47498 1.55161,-1.07029 2.08992,-1.78593c0.53831,-0.71564 0.95946,-1.54401 1.26345,-2.48511c0.30399,-0.93983 0.52248,-1.97339 0.65548,-3.10068M273.35686,197.33809l0.79797,-0.47498c0.12666,0.13299 0.26409,0.28182 0.41228,0.44648c0.14946,0.16466 0.29069,0.32299 0.42368,0.47498c0.13299,0.15199 0.24382,0.28499 0.33249,0.39898l-0.82647,0.54148c-0.076,-0.12033 -0.18049,-0.26156 -0.31349,-0.42368c-0.13299,-0.16086 -0.27232,-0.32552 -0.41798,-0.49398c-0.14566,-0.16719 -0.28182,-0.32362 -0.40848,-0.46928M268.30305,200.03599c-0.019,-0.076 -0.04876,-0.16973 -0.0893,-0.28119c-0.0418,-0.1102 -0.0836,-0.22546 -0.1254,-0.34579c-0.04053,-0.12033 -0.0798,-0.21849 -0.1178,-0.29449c0.06966,-0.02533 0.13616,-0.07156 0.19949,-0.13869c0.06333,-0.06586 0.12666,-0.15263 0.18999,-0.26029c0.038,-0.06333 0.09816,-0.18049 0.18049,-0.35149c0.08233,-0.17099 0.16783,-0.37555 0.25649,-0.61368c0.08866,-0.23686 0.16149,-0.47878 0.21849,-0.72577l1.07346,0.18049c-0.076,0.27232 -0.17289,0.54781 -0.29069,0.82647c-0.11653,0.27866 -0.23622,0.54148 -0.35909,0.78847c-0.12413,0.24699 -0.24319,0.46232 -0.35719,0.64598v0.019c0,0 -0.03926,0.0171 -0.1178,0.0513c-0.0798,0.03546 -0.17163,0.0817 -0.27549,0.13869c-0.10513,0.057 -0.19569,0.11716 -0.27169,0.18049c-0.076,0.06333 -0.114,0.1235 -0.114,0.18049M268.30305,200.03599v-0.75997l0.61748,-0.41798h7.02023v0.97846h-6.64025c-0.26599,0 -0.48765,0.0171 -0.66497,0.0513c-0.17733,0.03546 -0.28816,0.08486 -0.33249,0.14819zM277.02372,198.18356h8.47368v0.98796h-8.47368v-0.98796M281.22256,199.54201h1.02596v6.13677h-1.02596v-6.13677M278.55316,200.69146h5.88028v0.96896h-4.86381v3.15388h-1.01646v-4.12284M283.98696,200.69146h1.03546v2.99239c0,0.24699 -0.03167,0.44015 -0.095,0.57948c-0.06333,0.13933 -0.18366,0.24699 -0.36099,0.32299c-0.17099,0.076 -0.38759,0.1216 -0.64978,0.13679c-0.26346,0.01647 -0.57884,0.0247 -0.94616,0.0247c-0.019,-0.13933 -0.06143,-0.29639 -0.1273,-0.47118c-0.06713,-0.17353 -0.13553,-0.32679 -0.20519,-0.45978c0.16466,0.00633 0.32615,0.01077 0.48448,0.0133c0.15833,0.0038 0.29766,0.0057 0.41798,0.0057c0.12033,0 0.20266,0 0.24699,0c0.076,-0.00633 0.12856,-0.0209 0.15769,-0.0437c0.02787,-0.02153 0.0418,-0.06396 0.0418,-0.1273v-2.97339M280.1206,196.78711l1.05446,0.24699c-0.22799,0.75997 -0.51741,1.51361 -0.86827,2.26091c-0.35212,0.74731 -0.77517,1.44521 -1.26915,2.09372c-0.49398,0.64978 -1.07663,1.20582 -1.74793,1.66814c-0.04433,-0.08233 -0.10133,-0.17923 -0.17099,-0.29069c-0.06966,-0.1102 -0.14059,-0.21913 -0.21279,-0.32679c-0.07346,-0.10766 -0.14186,-0.19633 -0.20519,-0.26599c0.44965,-0.29766 0.85623,-0.65104 1.21975,-1.06016c0.36479,-0.40785 0.68777,-0.85117 0.96896,-1.32995c0.28246,-0.47752 0.52691,-0.9715 0.73337,-1.48194c0.20519,-0.50918 0.37112,-1.01393 0.49778,-1.51424zM287.33083,198.34505h2.90689v6.34576h-2.90689v-0.90247h1.97592v-4.55033h-1.97592v-0.89297M286.73235,198.34505h0.93096v7.06773h-0.93096v-7.06773M287.28333,200.90995h2.48891v0.88347h-2.48891v-0.88347M288.1098,196.79661l1.11146,0.17099c-0.10133,0.31032 -0.20899,0.62191 -0.32299,0.93476c-0.114,0.31412 -0.21849,0.58201 -0.31349,0.80367l-0.81697,-0.18999c0.04433,-0.15833 0.09056,-0.33882 0.13869,-0.54148c0.04686,-0.20266 0.0893,-0.40722 0.1273,-0.61368c0.038,-0.20519 0.06333,-0.39329 0.076,-0.56428M291.52017,198.28805h2.82139v0.93096h-2.82139v-0.93096M293.98057,198.28805h0.94996c0,0 0,0.02977 0,0.0893c0,0.0608 0,0.1273 0,0.19949c0,0.07346 -0.00317,0.13236 -0.0095,0.17669c-0.03167,1.07663 -0.0646,1.98859 -0.0988,2.7359c-0.03546,0.74731 -0.07663,1.36161 -0.1235,1.84293c-0.04813,0.48132 -0.10386,0.85623 -0.16719,1.12476c-0.06333,0.26979 -0.14566,0.46802 -0.24699,0.59468c-0.12666,0.17099 -0.25649,0.28816 -0.38949,0.35149c-0.13299,0.06333 -0.29449,0.11083 -0.48448,0.14249c-0.17099,0.019 -0.38949,0.0285 -0.65548,0.0285c-0.26599,0 -0.53831,-0.00633 -0.81697,-0.019c-0.00633,-0.13933 -0.0399,-0.30399 -0.1007,-0.49398c-0.05953,-0.18999 -0.13996,-0.35465 -0.24129,-0.49398c0.31032,0.02533 0.59531,0.04116 0.85497,0.0475c0.25966,0.00633 0.44965,0.0095 0.56998,0.0095c0.095,0 0.17289,-0.0114 0.23369,-0.0342c0.05953,-0.02153 0.12096,-0.06396 0.18429,-0.1273c0.076,-0.08866 0.14249,-0.26156 0.19949,-0.51868c0.057,-0.25586 0.1045,-0.61811 0.14249,-1.08676c0.038,-0.46865 0.07473,-1.06396 0.1102,-1.78593c0.0342,-0.72197 0.06396,-1.58327 0.0893,-2.5839v-0.19949M291.59617,196.79661l0.97846,0.22799c-0.12033,0.46865 -0.26472,0.93223 -0.43318,1.39075c-0.16719,0.45978 -0.35212,0.89233 -0.55478,1.29765c-0.20266,0.40532 -0.41165,0.75997 -0.62698,1.06396c-0.06333,-0.057 -0.14566,-0.1235 -0.24699,-0.19949c-0.10133,-0.076 -0.20583,-0.15073 -0.31349,-0.22419c-0.10766,-0.0722 -0.19949,-0.1273 -0.27549,-0.16529c0.20899,-0.27232 0.40658,-0.59088 0.59278,-0.95566c0.18746,-0.36352 0.35529,-0.75427 0.50348,-1.17226c0.14946,-0.41798 0.27486,-0.83913 0.37619,-1.26345M291.14018,200.94795l0.79797,-0.44648c0.15833,0.21533 0.32932,0.45408 0.51298,0.71627c0.18366,0.26346 0.35655,0.51678 0.51868,0.75997c0.16086,0.24446 0.28879,0.46168 0.38379,0.65168l-0.86447,0.53198c-0.08866,-0.19633 -0.20899,-0.42115 -0.36099,-0.67447c-0.15199,-0.25332 -0.31475,-0.51488 -0.48828,-0.78467c-0.17479,-0.26852 -0.34135,-0.51995 -0.49968,-0.75427zM296.52648,197.60408h7.54271v0.90247h-7.54271v-0.90247M295.9945,199.789h8.52118v0.91197h-8.52118v-0.91197M297.85643,202.94288h4.82582v0.77897h-4.82582v-0.77897M297.86593,204.50082h4.82582v0.85497h-4.82582v-0.85497M297.21045,201.36594h6.19376v4.31284h-1.07346v-3.46737h-4.10384v3.47687h-1.01646v-4.32234M301.79878,198.45905l1.13046,0.23749c-0.08233,0.17733 -0.16466,0.35275 -0.24699,0.52628c-0.08233,0.17479 -0.16466,0.33945 -0.24699,0.49398c-0.08233,0.15579 -0.15833,0.29386 -0.22799,0.41418l-0.96896,-0.23749c0.06333,-0.13299 0.1311,-0.28372 0.20329,-0.45218c0.07346,-0.16719 0.14186,-0.33819 0.20519,-0.51298c0.06333,-0.17353 0.114,-0.32995 0.15199,-0.46928M297.73293,198.69654l0.99746,-0.19949c0.13299,0.19633 0.24826,0.41608 0.34579,0.65927c0.0988,0.24446 0.16403,0.45852 0.19569,0.64218l-1.06396,0.24699c-0.02533,-0.18999 -0.08423,-0.41165 -0.17669,-0.66497c-0.0912,-0.25332 -0.19063,-0.48132 -0.29829,-0.68397M299.48087,196.88211l1.05446,-0.17099c0.114,0.17099 0.21533,0.36225 0.30399,0.57378c0.08866,0.21279 0.14883,0.39835 0.18049,0.55668l-1.10196,0.21849c-0.02533,-0.16466 -0.07916,-0.35782 -0.16149,-0.57948c-0.08233,-0.22166 -0.17416,-0.42115 -0.27549,-0.59848zM305.47514,198.14556h4.47433v0.91197h-4.47433v-0.91197M306.4821,199.13352l0.86447,0.26599c-0.12033,0.29132 -0.25966,0.58898 -0.41798,0.89297c-0.15833,0.30399 -0.32489,0.59214 -0.49968,0.86447c-0.17353,0.27232 -0.34579,0.51298 -0.51678,0.72197c-0.04433,-0.05066 -0.10956,-0.11716 -0.19569,-0.19949c-0.08486,-0.08233 -0.17163,-0.16339 -0.26029,-0.24319c-0.08866,-0.07853 -0.16783,-0.14313 -0.23749,-0.19379c0.24066,-0.27232 0.47308,-0.59848 0.69727,-0.97846c0.22546,-0.37999 0.41418,-0.7568 0.56618,-1.13046M308.03054,200.64396l0.96896,0.17099c-0.27866,1.03863 -0.66941,1.95059 -1.17226,2.7359c-0.50411,0.7853 -1.12666,1.42811 -1.86763,1.92843c-0.04433,-0.06966 -0.10766,-0.15199 -0.18999,-0.24699c-0.08233,-0.095 -0.16909,-0.18873 -0.26029,-0.28119c-0.09246,-0.0912 -0.17036,-0.16529 -0.23369,-0.22229c0.70297,-0.41798 1.28435,-0.9772 1.74413,-1.67764c0.45852,-0.69917 0.79544,-1.50158 1.01076,-2.40721M308.05904,199.47551l0.75047,-0.40848c0.15199,0.18366 0.30399,0.38125 0.45598,0.59278c0.15199,0.21279 0.29006,0.42368 0.41418,0.63268c0.12286,0.20899 0.21596,0.39898 0.27929,0.56998l-0.80747,0.45598c-0.05066,-0.17099 -0.13489,-0.36289 -0.25269,-0.57568c-0.11653,-0.21153 -0.24762,-0.43002 -0.39329,-0.65548c-0.14566,-0.22419 -0.29449,-0.42812 -0.44648,-0.61178M306.21611,201.52743l0.74097,-0.54148c0.23432,0.23432 0.48005,0.48448 0.73717,0.75047c0.25586,0.26599 0.50221,0.53831 0.73907,0.81697c0.23812,0.27866 0.45535,0.54908 0.65168,0.81127c0.19633,0.26346 0.36099,0.50601 0.49398,0.72767l-0.81697,0.63648c-0.114,-0.22166 -0.26599,-0.46738 -0.45598,-0.73717c-0.18999,-0.26852 -0.40215,-0.54718 -0.63648,-0.83597c-0.23432,-0.28752 -0.47625,-0.57061 -0.72577,-0.84927c-0.25079,-0.27866 -0.49335,-0.53831 -0.72767,-0.77897M310.93743,198.48755h3.16338v0.94996h-3.16338v-0.94996M311.03243,196.79661l0.94996,0.15199c-0.10766,0.64598 -0.24192,1.27738 -0.40278,1.89423c-0.16213,0.61811 -0.35909,1.19125 -0.59088,1.71943c-0.23052,0.52945 -0.49778,0.99683 -0.80177,1.40215c-0.038,-0.06966 -0.095,-0.15516 -0.17099,-0.25649c-0.076,-0.10133 -0.15643,-0.20266 -0.24129,-0.30399c-0.08613,-0.10133 -0.16403,-0.18366 -0.23369,-0.24699c0.26599,-0.34199 0.49398,-0.74287 0.68397,-1.20265c0.18999,-0.45852 0.35149,-0.95693 0.48448,-1.49524c0.13299,-0.53831 0.24066,-1.09246 0.32299,-1.66244M312.68536,199.13352l0.96896,0.114c-0.15199,1.08296 -0.38125,2.03736 -0.68777,2.86319c-0.30779,0.8271 -0.71817,1.53641 -1.23115,2.12792c-0.51298,0.59278 -1.15579,1.08549 -1.92843,1.47814c-0.04433,-0.06333 -0.10766,-0.14123 -0.18999,-0.23369c-0.08233,-0.0912 -0.16909,-0.18619 -0.26029,-0.28499c-0.09246,-0.09753 -0.17669,-0.17479 -0.25269,-0.23179c0.75997,-0.32932 1.38061,-0.76187 1.86193,-1.29765c0.48132,-0.53451 0.85813,-1.17732 1.13046,-1.92843c0.27232,-0.74984 0.46865,-1.61874 0.58898,-2.6067M311.16542,199.92199c0.15833,0.71564 0.37872,1.39328 0.66117,2.03292c0.28119,0.63964 0.62444,1.20962 1.02976,1.70993c0.40532,0.50031 0.87397,0.8993 1.40595,1.19695c-0.076,0.06333 -0.15959,0.14376 -0.25079,0.24129c-0.09246,0.0988 -0.17859,0.19886 -0.25839,0.30019c-0.07853,0.10133 -0.14313,0.19633 -0.19379,0.28499c-0.56364,-0.36099 -1.05446,-0.81887 -1.47244,-1.37365c-0.41798,-0.55351 -0.77264,-1.18682 -1.06396,-1.89993c-0.29132,-0.71184 -0.53198,-1.47624 -0.72197,-2.29321l0.86447,-0.19949M306.85258,197.0911l0.87397,-0.31349c0.12666,0.17099 0.24826,0.36225 0.36479,0.57378c0.1178,0.21279 0.20519,0.39518 0.26219,0.54718l-0.91197,0.37049c-0.04433,-0.16466 -0.1235,-0.35655 -0.23749,-0.57568c-0.114,-0.21786 -0.23116,-0.41862 -0.35149,-0.60228z" fill="#ffffff" fill-rule="nonzero" stroke-width="1"/></g></g></svg>