<svg version="1.1" xmlns="http://www.w3.org/2000/svg" xmlns:xlink="http://www.w3.org/1999/xlink" width="180" height="40" viewBox="0,0,180,40"><g transform="translate(-150,-160)"><g stroke-linecap="round" stroke-miterlimit="10"><path d="M150,160h180v40h-180z" fill-opacity="0" fill="#000000" fill-rule="nonzero" stroke="none" stroke-width="0.2" stroke-linejoin="round"/><path d="M181.81746,186.81776l-0.79102,0.454c-0.11058,-0.32354 -0.25516,-0.70969 -0.43378,-1.15847l-6.32809,0.50096l-0.05104,-1.11151l3.21508,-0.20352v-2.26998h-2.70475v-3.96072h2.70475v-1.53419h-2.2327v-3.88244h5.38399v3.88244h-2.24545v1.53419h2.71751v3.96072h-2.71751v2.20736l1.87546,-0.10959l-0.47205,-1.15847l0.72722,-0.43834c0.22114,0.5114 0.46567,1.09063 0.7336,1.73771c0.26793,0.64707 0.47418,1.16369 0.61877,1.54985zM173.05254,174.85733h-2.33476v-1.11151h3.24059v4.53996h-2.00305l-0.14034,2.39522h2.05408l-0.20413,4.44603c-0.01701,0.43834 -0.07868,0.77492 -0.18499,1.00975c-0.10631,0.23483 -0.26793,0.3992 -0.48481,0.49313c-0.21689,0.09393 -0.51671,0.1409 -0.89946,0.1409h-1.25031l-0.17861,-1.09585h1.35237c0.23815,0 0.41251,-0.0287 0.52309,-0.0861c0.11058,-0.0574 0.18286,-0.15655 0.21689,-0.29745c0.03403,-0.1409 0.05529,-0.36789 0.06379,-0.68099c0.01701,-0.36528 0.03828,-0.84015 0.06379,-1.42461c0.02551,-0.58445 0.04253,-1.06454 0.05104,-1.44026h-2.06683l0.28068,-4.5243h1.90098zM179.71235,176.56372v-1.94122h-3.66162v1.94122zM178.33446,182.07429h1.84995v-2.05081h-1.84995zM177.42862,180.02348h-1.81167v2.05081h1.81167z" fill="#ffffff" fill-rule="evenodd" stroke="#ffffff" stroke-width="0.4" stroke-linejoin="miter"/><path d="M188.32417,183.4989h-1.04618v2.41087l1.95201,-0.59489l0.02551,0.89234l-3.01095,1.00192l-0.28068,-0.82972c0.18713,-0.09393 0.3062,-0.17221 0.35723,-0.23483c0.05104,-0.06262 0.07655,-0.14611 0.07655,-0.25048v-2.39522h-1.18652c-0.06805,0.70969 -0.19988,1.35416 -0.3955,1.93339c-0.19563,0.57924 -0.47205,1.16108 -0.82929,1.74553l-0.80377,-0.68882c0.4678,-0.741 0.78675,-1.4507 0.95687,-2.12908c0.17011,-0.67838 0.25516,-1.58116 0.25516,-2.70832v-2.25432h9.63248v0.78275h-8.7394v1.72205c0,0.35485 -0.00425,0.61576 -0.01276,0.78275h9.00733v0.81406h-4.97572c0.4763,0.61576 1.0164,1.10107 1.62029,1.45592c1.0887,-0.60533 1.84995,-1.0541 2.28372,-1.34633l0.38275,0.81406c-0.3147,0.18786 -0.88883,0.5114 -1.72236,0.97061c0.75699,0.26092 1.67558,0.454 2.75579,0.57924l-0.36999,0.97061c-1.01215,-0.15655 -1.87546,-0.37572 -2.58992,-0.65751c-0.71447,-0.28179 -1.33749,-0.64446 -1.86909,-1.08802c-0.53159,-0.44356 -1.02279,-1.00975 -1.47358,-1.69857zM188.50278,178.91198v-2.92749h-3.77644v2.0195h-0.90584v-2.80225h4.68228v-0.84537h-4.23574v-0.87668h9.42834v0.87668h-4.29953v0.84537h4.73331v2.80225h-0.89308v-2.0195h-3.84023v2.92749zM185.82354,181.05671h7.61667v0.7671h-7.61667zM185.4408,177.40909v-0.70448h2.39855v0.70448zM190.11032,177.40909v-0.70448h2.3858v0.70448zM187.83935,178.00399v0.68882h-2.39855v-0.68882zM190.12307,178.69281v-0.68882h2.3858v0.68882z" fill="#ffffff" fill-rule="evenodd" stroke="#ffffff" stroke-width="0.4" stroke-linejoin="miter"/><path d="M201.08241,183.4989h-1.04618v2.41087l1.95201,-0.59489l0.02551,0.89234l-3.01095,1.00192l-0.28068,-0.82972c0.18713,-0.09393 0.3062,-0.17221 0.35723,-0.23483c0.05104,-0.06262 0.07655,-0.14611 0.07655,-0.25048v-2.39522h-1.18652c-0.06805,0.70969 -0.19988,1.35416 -0.3955,1.93339c-0.19563,0.57924 -0.47205,1.16108 -0.82929,1.74553l-0.80377,-0.68882c0.4678,-0.741 0.78675,-1.4507 0.95687,-2.12908c0.17011,-0.67838 0.25516,-1.58116 0.25516,-2.70832v-2.25432h9.63248v0.78275h-8.7394v1.72205c0,0.35485 -0.00425,0.61576 -0.01276,0.78275h9.00733v0.81406h-4.97572c0.4763,0.61576 1.0164,1.10107 1.62029,1.45592c1.0887,-0.60533 1.84995,-1.0541 2.28372,-1.34633l0.38275,0.81406c-0.3147,0.18786 -0.88883,0.5114 -1.72236,0.97061c0.75699,0.26092 1.67558,0.454 2.75579,0.57924l-0.36999,0.97061c-1.01215,-0.15655 -1.87546,-0.37572 -2.58992,-0.65751c-0.71447,-0.28179 -1.33749,-0.64446 -1.86909,-1.08802c-0.53159,-0.44356 -1.02279,-1.00975 -1.47358,-1.69857zM201.26102,178.91198v-2.92749h-3.77644v2.0195h-0.90584v-2.80225h4.68228v-0.84537h-4.23574v-0.87668h9.42834v0.87668h-4.29953v0.84537h4.73331v2.80225h-0.89308v-2.0195h-3.84023v2.92749zM198.5818,181.05671h7.61667v0.7671h-7.61667zM198.19905,177.40909v-0.70448h2.39855v0.70448zM202.86857,177.40909v-0.70448h2.3858v0.70448zM200.5976,178.00399v0.68882h-2.39855v-0.68882zM202.88133,178.69281v-0.68882h2.3858v0.68882z" fill="#ffffff" fill-rule="evenodd" stroke="#ffffff" stroke-width="0.4" stroke-linejoin="miter"/><path d="M212.79449,178.12923h-2.01581v1.33068c0,1.29415 -0.04041,2.37174 -0.12121,3.23276c-0.0808,0.86103 -0.20626,1.62029 -0.37637,2.27781c-0.17011,0.65751 -0.40826,1.38286 -0.71447,2.17605l-0.84204,-0.61055c0.3062,-0.80362 0.53585,-1.51332 0.68894,-2.12908c0.1531,-0.61576 0.26368,-1.32546 0.33171,-2.12908c0.06805,-0.80362 0.10206,-1.85773 0.10206,-3.16231v-4.72782h4.74607c-0.07655,-0.39659 -0.1616,-0.7671 -0.25516,-1.11151c-0.01701,-0.07306 -0.03403,-0.1435 -0.05104,-0.21134c-0.01701,-0.06784 -0.02977,-0.12785 -0.03828,-0.18003l1.07169,-0.15655c0.1531,0.6262 0.28494,1.17934 0.3955,1.65943h4.19747v1.04889h-2.10511v1.7064h2.06683v0.98627h-2.06683v2.3326h-5.014zM220.02842,185.87846l-0.3062,1.17413c-1.00365,-0.1983 -1.87121,-0.41486 -2.60269,-0.64968c-0.73148,-0.23483 -1.39491,-0.51922 -1.99028,-0.8532c-1.12273,0.60533 -2.5474,1.1376 -4.27402,1.59681l-0.38275,-1.09585c1.47146,-0.3131 2.69625,-0.68882 3.67438,-1.12716c-0.79952,-0.60533 -1.61179,-1.42983 -2.43682,-2.47349v-0.97061h6.91497v0.98627c-0.65493,0.98105 -1.46294,1.79511 -2.42407,2.44218c0.9356,0.39659 2.21143,0.72013 3.82748,0.97061zM217.40022,182.45001h-4.37608c0.66343,0.83493 1.37789,1.48201 2.14338,1.94122c0.89308,-0.52183 1.63731,-1.16891 2.2327,-1.94122zM213.70032,175.43656v1.7064h3.1768v-1.7064zM213.70032,178.12923v1.34633h3.1768v-1.34633zM210.77868,177.14296h2.01581v-1.7064h-2.01581z" fill="#ffffff" fill-rule="evenodd" stroke="#ffffff" stroke-width="0.4" stroke-linejoin="miter"/><path d="M225.23378,176.75158v2.91183h2.34752v1.20544h-2.34752v2.94314h-1.05893v-2.94314h-2.36027v-1.20544h2.36027v-2.91183z" fill="#ffffff" fill-rule="evenodd" stroke="#ffffff" stroke-width="0.4" stroke-linejoin="miter"/><path d="M233.97318,179.50687l-0.44654,2.77094l-0.75274,-0.3131l0.42103,-2.42653h-1.19928v5.76105c0,0.59489 -0.09994,1.00714 -0.29982,1.23675c-0.19988,0.22961 -0.54648,0.34441 -1.0398,0.34441h-0.96963l-0.17861,-1.18978h0.91859c0.28919,0 0.47418,-0.05479 0.55498,-0.16438c0.0808,-0.10959 0.12121,-0.33136 0.12121,-0.66534v-5.32271h-1.76063v-1.09585h2.14338c-0.59539,-0.99148 -1.10147,-1.78989 -1.51823,-2.39522l0.57412,-0.59489l1.0079,1.51854c0.68894,-1.17934 1.10997,-1.93079 1.26307,-2.25432h-3.31714v-1.06454h4.32504v1.17413c-0.21264,0.38616 -0.48056,0.86363 -0.80377,1.43243c-0.32321,0.5688 -0.6294,1.09324 -0.91859,1.57333l0.38275,0.61055h1.49272zM234.64937,176.62634h1.82443l0.31895,-1.8786h-2.50061v-1.0802h6.27705v1.0802h-2.81957l-0.34448,1.8786h2.53889v7.04476h-0.86757v-5.99587h-3.57232v5.99587h-0.8548zM240.64575,186.1759l-0.5486,1.01758c-0.28068,-0.34441 -0.70808,-0.8245 -1.2822,-1.44026c-0.57412,-0.61576 -1.09934,-1.16891 -1.57564,-1.65943c-0.27218,0.61576 -0.66981,1.17152 -1.1929,1.66726c-0.52309,0.49574 -1.20991,0.97322 -2.06045,1.43243l-0.57412,-1.03323c0.9356,-0.45921 1.65007,-0.92104 2.14338,-1.38547c0.49331,-0.46443 0.83141,-0.97322 1.01429,-1.52636c0.18286,-0.55314 0.27431,-1.24197 0.27431,-2.06646v-2.72397h0.90584v2.83356c0,0.65751 -0.05529,1.24197 -0.16586,1.75336c0.43378,0.4279 0.96963,0.968 1.60754,1.62029c0.63792,0.65229 1.12273,1.15586 1.45444,1.51071z" fill="#ffffff" fill-rule="evenodd" stroke="#ffffff" stroke-width="0.4" stroke-linejoin="miter"/><path d="M249.80616,175.76532h3.483v1.17413h-3.483v3.08404h2.64096v7.15434h-0.98238v-1.01758h-4.24849v1.01758h-0.98238v-7.15434h2.6282v-3.08404h-3.3299v-1.17413h3.3299v-2.91183h0.9441zM244.57528,172.88479l0.95687,0.36007c-0.33171,1.26284 -0.66343,2.34825 -0.99514,3.25624v10.6141h-0.95687v-8.2815c-0.40826,0.86624 -0.82503,1.63334 -1.25031,2.30129l-0.40826,-1.3933c0.50183,-0.84537 0.98876,-1.86817 1.46082,-3.06838c0.47205,-1.20022 0.86969,-2.46306 1.1929,-3.78851zM247.21624,181.18195v3.83548h4.24849v-3.83548z" fill="#ffffff" fill-rule="evenodd" stroke="#ffffff" stroke-width="0.4" stroke-linejoin="miter"/><path d="M259.92346,183.4989h-1.04618v2.41087l1.95201,-0.59489l0.02551,0.89234l-3.01095,1.00192l-0.28068,-0.82972c0.18713,-0.09393 0.3062,-0.17221 0.35723,-0.23483c0.05104,-0.06262 0.07655,-0.14611 0.07655,-0.25048v-2.39522h-1.18652c-0.06805,0.70969 -0.19988,1.35416 -0.3955,1.93339c-0.19563,0.57924 -0.47205,1.16108 -0.82929,1.74553l-0.80377,-0.68882c0.4678,-0.741 0.78675,-1.4507 0.95687,-2.12908c0.17011,-0.67838 0.25516,-1.58116 0.25516,-2.70832v-2.25432h9.63248v0.78275h-8.7394v1.72205c0,0.35485 -0.00425,0.61576 -0.01276,0.78275h9.00733v0.81406h-4.97572c0.4763,0.61576 1.0164,1.10107 1.62029,1.45592c1.0887,-0.60533 1.84995,-1.0541 2.28372,-1.34633l0.38275,0.81406c-0.3147,0.18786 -0.88883,0.5114 -1.72236,0.97061c0.75699,0.26092 1.67558,0.454 2.75579,0.57924l-0.36999,0.97061c-1.01215,-0.15655 -1.87546,-0.37572 -2.58992,-0.65751c-0.71447,-0.28179 -1.33749,-0.64446 -1.86909,-1.08802c-0.53159,-0.44356 -1.02279,-1.00975 -1.47358,-1.69857zM260.10207,178.91198v-2.92749h-3.77644v2.0195h-0.90584v-2.80225h4.68228v-0.84537h-4.23574v-0.87668h9.42834v0.87668h-4.29953v0.84537h4.73331v2.80225h-0.89308v-2.0195h-3.84023v2.92749zM257.42283,181.05671h7.61667v0.7671h-7.61667zM257.04009,177.40909v-0.70448h2.39855v0.70448zM261.70961,177.40909v-0.70448h2.3858v0.70448zM259.43864,178.00399v0.68882h-2.39855v-0.68882zM261.72237,178.69281v-0.68882h2.3858v0.68882z" fill="#ffffff" fill-rule="evenodd" stroke="#ffffff" stroke-width="0.4" stroke-linejoin="miter"/><path d="M271.63553,178.12923h-2.01581v1.33068c0,1.29415 -0.04041,2.37174 -0.12121,3.23276c-0.0808,0.86103 -0.20626,1.62029 -0.37637,2.27781c-0.17011,0.65751 -0.40826,1.38286 -0.71447,2.17605l-0.84204,-0.61055c0.3062,-0.80362 0.53585,-1.51332 0.68894,-2.12908c0.1531,-0.61576 0.26368,-1.32546 0.33171,-2.12908c0.06805,-0.80362 0.10206,-1.85773 0.10206,-3.16231v-4.72782h4.74607c-0.07655,-0.39659 -0.1616,-0.7671 -0.25516,-1.11151c-0.01701,-0.07306 -0.03403,-0.1435 -0.05104,-0.21134c-0.01701,-0.06784 -0.02977,-0.12785 -0.03828,-0.18003l1.07169,-0.15655c0.1531,0.6262 0.28494,1.17934 0.3955,1.65943h4.19747v1.04889h-2.10511v1.7064h2.06683v0.98627h-2.06683v2.3326h-5.014zM278.86945,185.87846l-0.3062,1.17413c-1.00365,-0.1983 -1.87121,-0.41486 -2.60269,-0.64968c-0.73148,-0.23483 -1.39491,-0.51922 -1.99028,-0.8532c-1.12273,0.60533 -2.5474,1.1376 -4.27402,1.59681l-0.38275,-1.09585c1.47146,-0.3131 2.69625,-0.68882 3.67438,-1.12716c-0.79952,-0.60533 -1.61179,-1.42983 -2.43682,-2.47349v-0.97061h6.91497v0.98627c-0.65493,0.98105 -1.46294,1.79511 -2.42407,2.44218c0.9356,0.39659 2.21143,0.72013 3.82748,0.97061zM276.24125,182.45001h-4.37608c0.66343,0.83493 1.37789,1.48201 2.14338,1.94122c0.89308,-0.52183 1.63731,-1.16891 2.2327,-1.94122zM272.54136,175.43656v1.7064h3.1768v-1.7064zM272.54136,178.12923v1.34633h3.1768v-1.34633zM269.61972,177.14296h2.01581v-1.7064h-2.01581z" fill="#ffffff" fill-rule="evenodd" stroke="#ffffff" stroke-width="0.4" stroke-linejoin="miter"/></g></g></svg>