<svg version="1.1" xmlns="http://www.w3.org/2000/svg" xmlns:xlink="http://www.w3.org/1999/xlink" width="199.8842" height="39.33588" viewBox="0,0,199.8842,39.33588"><g transform="translate(-138.1158,-157.66412)"><g stroke-miterlimit="10"><path d="M142,197v-34h196v34z" fill-opacity="0" fill="#000000" fill-rule="nonzero" stroke="none" stroke-width="1" stroke-linecap="butt"/><path d="M145.32292,170.28288l-0.98578,0.61409c-0.50636,-0.99117 -0.97501,-1.89076 -1.40595,-2.69878c-0.61409,1.40056 -1.45443,2.84422 -2.52102,4.33098l-0.71106,-1.16355c1.09891,-1.43289 1.95002,-2.93041 2.55334,-4.49258c-0.21547,-0.38785 -0.37169,-0.67874 -0.46865,-0.87266c-0.67874,-1.26051 -1.29283,-2.38635 -1.84228,-3.37752l0.92114,-0.58177c0.33398,0.56023 0.86189,1.5083 1.58372,2.84422l0.29089,0.53329c0.34475,-1.22819 0.63025,-2.69339 0.8565,-4.39562h-3.74921v-1.19587h4.94507v1.19587c-0.26934,2.17626 -0.70567,4.11012 -1.30899,5.80157c0.49558,0.89421 1.10968,2.04698 1.84228,3.45832zM152.88597,168.63452l1.11507,0.25857l-0.01616,0.6949l-0.04848,1.34131c-0.02155,0.44172 -0.08888,0.78108 -0.202,1.0181c-0.11312,0.23702 -0.29897,0.4067 -0.55753,0.50905c-0.25857,0.10235 -0.63025,0.15352 -1.11507,0.15352h-1.19587c-0.58177,0 -0.99386,-0.1239 -1.23627,-0.37169c-0.24241,-0.24779 -0.36361,-0.68412 -0.36361,-1.30899v-2.63414c-0.35553,0.94807 -0.89421,1.80996 -1.61604,2.58566c-0.72183,0.7757 -1.69684,1.55678 -2.92503,2.34325l-0.7757,-0.98578c1.23896,-0.75415 2.19512,-1.48945 2.86847,-2.20589c0.67335,-0.71644 1.15008,-1.50291 1.43019,-2.35941c0.28011,-0.8565 0.43633,-1.915 0.46865,-3.17551c0.01077,-0.44172 0.02155,-0.98309 0.03232,-1.62412c0.01077,-0.64103 0.01616,-1.1824 0.01616,-1.62412h1.17971l-0.04848,3.40984c-0.03232,0.89421 -0.11851,1.69145 -0.25857,2.39173h0.75954v3.44216c0,0.28011 0.02424,0.48481 0.07272,0.61409c0.04848,0.12928 0.13736,0.21547 0.26665,0.25857c0.12928,0.04309 0.32859,0.06464 0.59793,0.06464h0.50097c0.29089,0 0.50366,-0.02155 0.63833,-0.06464c0.13467,-0.04309 0.22894,-0.12659 0.28281,-0.25049c0.05387,-0.1239 0.08619,-0.3259 0.09696,-0.60601c0.02155,-0.60332 0.03232,-1.22819 0.03232,-1.8746zM151.85171,168.08507v-7.80546h-4.94507v7.83778h-1.16355v-9.03365h7.25601v9.00133z" fill="#dbe9ff" fill-rule="evenodd" stroke="#dbe9ff" stroke-width="0.45" stroke-linecap="round"/><path d="M163.89118,168.6022v-8.17715h-3.18359v8.24179h-1.03426v-9.38917h5.26828v9.32453zM162.8246,161.34619v4.31482c0,1.10968 -0.0808,2.05237 -0.24241,2.82806c1.08813,1.10968 2.04159,2.11162 2.86039,3.00583l-0.79186,0.82418c-1.02349,-1.16355 -1.82612,-2.06853 -2.40789,-2.71494c-0.24779,0.59255 -0.59255,1.142 -1.03426,1.64836c-0.44172,0.50636 -1.03426,1.06658 -1.77764,1.68068l-0.82418,-0.8565c0.91575,-0.70028 1.5891,-1.33054 2.02005,-1.89076c0.43094,-0.56023 0.72452,-1.17432 0.88074,-1.84228c0.15622,-0.66796 0.23433,-1.56217 0.23433,-2.68262v-4.31482zM168.54537,170.70305v-12.12028h1.0181v12.45964c0,0.45249 -0.05925,0.79994 -0.17776,1.04234c-0.11851,0.24241 -0.31782,0.41748 -0.59793,0.52521c-0.28011,0.10774 -0.67874,0.1616 -1.19587,0.1616h-1.32515l-0.22625,-1.11507h1.29283c0.33398,0 0.58447,-0.02424 0.75146,-0.07272c0.16699,-0.04848 0.2855,-0.14006 0.35553,-0.27473c0.07003,-0.13467 0.10504,-0.33667 0.10504,-0.60601zM166.21828,169.26477v-9.27605h1.00194v9.27605zM157.7664,166.75992l0.56561,0.17776l0.51713,0.17776c-0.08619,0.25857 -0.33129,1.10429 -0.7353,2.53718c-0.40401,1.43289 -0.69759,2.51024 -0.88074,3.23207l-1.09891,-0.37169c0.1616,-0.44172 0.45249,-1.40056 0.87266,-2.87655c0.42017,-1.47598 0.67335,-2.43483 0.75954,-2.87655zM158.92995,164.56211l-0.74338,0.9373c-0.78647,-0.75415 -1.57294,-1.45982 -2.35941,-2.11701l0.71106,-0.88882c1.13123,0.94807 1.92847,1.63758 2.39173,2.06853zM159.237,160.58665l-0.71106,0.92114c-0.32321,-0.33398 -0.71644,-0.71106 -1.17971,-1.13123c-0.46326,-0.42017 -0.82957,-0.7326 -1.09891,-0.9373l0.66258,-0.88882c0.76492,0.62487 1.54062,1.3036 2.32709,2.03621z" fill="#dbe9ff" fill-rule="evenodd" stroke="#dbe9ff" stroke-width="0.45" stroke-linecap="round"/><path d="M179.46978,161.15227v1.82612h5.18748v5.2198h-10.76281v-5.2198h4.2825v-4.65419h1.29283v1.61604h6.39951v1.21203zM175.10648,164.19042v2.82806h8.33875v-2.82806zM173.23188,173.1271l-1.08274,-0.63025c0.3663,-0.53868 0.72452,-1.15816 1.07466,-1.85844c0.35014,-0.70028 0.61679,-1.32515 0.79994,-1.8746l1.09891,0.45249c-0.21547,0.58177 -0.50097,1.23358 -0.8565,1.9554c-0.35553,0.72183 -0.70028,1.37363 -1.03426,1.9554zM183.23514,169.24861l1.05042,-0.50097c0.64641,1.08813 1.30899,2.27861 1.98773,3.57144l-1.05042,0.63025c-0.34475,-0.71106 -1.00733,-1.94463 -1.98773,-3.70072zM179.87379,169.34557l1.08274,-0.33937c0.2047,0.47404 0.42825,1.04234 0.67066,1.70492c0.24241,0.66258 0.42825,1.21472 0.55753,1.65644l-1.13123,0.32321c-0.22625,-0.81879 -0.61948,-1.93386 -1.17971,-3.3452zM176.41547,169.39406l1.13123,-0.24241c0.24779,0.96962 0.50097,2.11701 0.75954,3.44216l-1.19587,0.25857c-0.10774,-0.7326 -0.31243,-1.76687 -0.61409,-3.10279z" fill="#dbe9ff" fill-rule="evenodd" stroke="#dbe9ff" stroke-width="0.45" stroke-linecap="round"/><path d="M194.25651,169.02237l0.03232,0.59793c-0.28011,0.03232 -0.89421,0.12928 -1.84228,0.29089v3.24823h-1.13123v-3.07047c-1.60526,0.23702 -2.59643,0.39862 -2.97351,0.48481l-0.11312,-1.21203c0.28011,-0.02155 1.30899,-0.17238 3.08663,-0.45249v-2.39173h-2.6503v-1.17971c0.38785,-1.01272 0.79186,-2.24629 1.21203,-3.70072h-1.38979v-1.16355h1.69684c0.18315,-0.68951 0.36092,-1.41134 0.53329,-2.16549l1.13123,0.17776c-0.19392,0.82957 -0.36092,1.49214 -0.50097,1.98773h2.6503v1.16355h-2.97351c-0.38785,1.40056 -0.79186,2.64491 -1.21203,3.73305h1.53524v-2.76342h1.09891v2.76342h1.34131v1.14739h-1.34131v2.21397l1.7938,-0.32321zM202.59526,171.83427l-0.67874,1.14739c-1.60526,-0.75415 -2.91964,-1.68607 -3.94313,-2.79574c-1.04504,1.10968 -2.37019,2.06853 -3.97545,2.87655l-0.67874,-1.05042c1.65913,-0.7757 2.96812,-1.68068 3.92697,-2.71494c-0.70028,-0.9373 -1.30899,-2.12778 -1.82612,-3.57144c-0.12928,0.18315 -0.35553,0.45788 -0.67874,0.82418l-0.90498,-0.7757c0.42017,-0.44172 0.86458,-0.99656 1.33323,-1.66452c0.46865,-0.66796 0.86458,-1.31438 1.18779,-1.93924l1.05042,0.56561c-0.52791,1.01272 -1.16355,1.97695 -1.90692,2.89271l0.95346,-0.40401c0.42017,1.23896 0.9373,2.28939 1.5514,3.15127c0.62487,-0.89421 1.12045,-1.92847 1.48675,-3.10279l1.06658,0.38785c-0.47404,1.41134 -1.08274,2.61259 -1.82612,3.60376c0.48481,0.51713 1.03965,0.98309 1.66452,1.39787c0.62487,0.41478 1.35747,0.80533 2.19781,1.17163zM199.05614,160.45737h3.26439v1.22819h-7.7893v-1.22819h3.23207c-0.1616,-0.61409 -0.3663,-1.26051 -0.61409,-1.93924l1.17971,-0.25857c0.26934,0.76492 0.51174,1.49753 0.72722,2.19781zM198.58749,162.86527l0.87266,-0.74338l0.45249,0.53329c1.35747,1.62681 2.20858,2.66646 2.55334,3.11895l-0.88882,0.80802c-0.51713,-0.68951 -1.51369,-1.92847 -2.98967,-3.71688z" fill="#dbe9ff" fill-rule="evenodd" stroke="#dbe9ff" stroke-width="0.45" stroke-linecap="round"/><path d="M204.93852,173.06246l-0.43633,-1.24435c2.05775,-0.571 3.7519,-1.14469 5.08244,-1.72108c1.33054,-0.57639 2.48062,-1.23896 3.45024,-1.98773c0.96962,-0.74876 1.92847,-1.69415 2.87655,-2.83614l0.9373,0.9373c-1.06658,1.20664 -2.12778,2.20858 -3.18359,3.00583c-1.05581,0.79725 -2.26514,1.49483 -3.628,2.09277c-1.36286,0.59793 -3.06239,1.1824 -5.0986,1.7534zM210.83705,167.42249v-9.14677h1.32515v9.14677zM205.66573,167.50329l-1.09891,-0.6949c0.62487,-0.92653 1.26051,-1.98234 1.90692,-3.16743c0.64641,-1.18509 1.16893,-2.26784 1.56756,-3.24823l1.14739,0.50097c-0.45249,1.05581 -1.00464,2.19781 -1.65644,3.426c-0.6518,1.22819 -1.27398,2.28939 -1.86652,3.18359zM213.64896,160.95834l0.92114,-0.7757c2.15472,2.55334 3.55528,4.26634 4.2017,5.139l-0.95346,0.84034c-0.4094,-0.56023 -1.05042,-1.3844 -1.92308,-2.47254c-0.87266,-1.08813 -1.62142,-1.9985 -2.24629,-2.7311z" fill="#dbe9ff" fill-rule="evenodd" stroke="#dbe9ff" stroke-width="0.45" stroke-linecap="round"/><path d="M229.82549,160.76442h4.47642c-0.03232,1.16355 -0.08349,2.80921 -0.15352,4.93699c-0.07003,2.12778 -0.12659,3.76267 -0.16968,4.90467c-0.02155,0.51713 -0.11043,0.92383 -0.26665,1.22011c-0.15622,0.29627 -0.40401,0.50905 -0.74338,0.63833c-0.33937,0.12928 -0.79994,0.19392 -1.38171,0.19392h-2.03621l-0.24241,-1.26051h1.90692c0.42017,0 0.74068,-0.03771 0.96154,-0.11312c0.22086,-0.07541 0.37977,-0.21278 0.47673,-0.41209c0.09696,-0.19931 0.15083,-0.49289 0.1616,-0.88074l0.14544,-4.23402l0.11312,-3.76537h-3.74921c-0.33398,0.79725 -0.72722,1.57294 -1.17971,2.32709l-1.06658,-0.71106c0.50636,-0.76492 0.97232,-1.6726 1.39787,-2.72302c0.42556,-1.05042 0.74607,-2.03351 0.96154,-2.94927l1.19587,0.29089c-0.2047,0.82957 -0.47404,1.67529 -0.80802,2.53718zM223.70071,158.04948l1.27667,0.22625c-0.12928,0.64641 -0.33398,1.45982 -0.61409,2.44022h2.53718v11.11833h-4.39562v1.06658h-1.16355v-12.18492h1.713c0.2047,-0.62487 0.42017,-1.51369 0.64641,-2.66646zM222.50484,161.96029v3.71688h3.23207v-3.71688zM225.73691,166.92152h-3.23207v3.6684h3.23207zM231.58697,167.61642l-1.03426,0.72722c-0.68951,-1.06658 -1.45982,-2.14394 -2.31093,-3.23207l0.88882,-0.72722c0.95885,1.16355 1.77764,2.2409 2.45638,3.23207z" fill="#dbe9ff" fill-rule="evenodd" stroke="#dbe9ff" stroke-width="0.45" stroke-linecap="round"/><path d="M249.84818,168.48907l1.14739,0.25857c0,0.32321 -0.02155,0.84034 -0.06464,1.5514l-0.01616,0.53329c-0.03232,0.44172 -0.11851,0.78378 -0.25857,1.02618c-0.14006,0.24241 -0.3663,0.41478 -0.67874,0.51713c-0.31243,0.10235 -0.75415,0.15352 -1.32515,0.15352h-4.10473c-0.53868,0 -0.96154,-0.05656 -1.26859,-0.16968c-0.30705,-0.11312 -0.5306,-0.31243 -0.67066,-0.59793c-0.14006,-0.2855 -0.21008,-0.69759 -0.21008,-1.23627v-5.55917l-1.35747,0.46865l-0.30705,-1.14739l1.66452,-0.56561v-3.99161h1.14739v3.60376l2.00389,-0.6949v-4.33098h1.13123v3.95929l3.44216,-1.17971l-0.17776,5.76925c-0.03232,0.44172 -0.09696,0.7757 -0.19392,1.00194c-0.09696,0.22625 -0.26395,0.38785 -0.50097,0.48481c-0.23702,0.09696 -0.58177,0.14544 -1.03426,0.14544h-0.87266l-0.22625,-1.19587h0.58177c0.31243,0 0.54407,-0.02424 0.6949,-0.07272c0.15083,-0.04848 0.25587,-0.13736 0.31513,-0.26665c0.05925,-0.12928 0.09427,-0.33398 0.10504,-0.61409l0.14544,-3.61992l-2.27861,0.7757v6.39951h-1.13123v-6.01166l-2.00389,0.6949v5.4622c0,0.38785 0.02693,0.67335 0.0808,0.8565c0.05387,0.18315 0.1643,0.31243 0.33129,0.38785c0.16699,0.07541 0.42825,0.11312 0.78378,0.11312h3.45832c0.45249,0 0.78378,-0.02693 0.99386,-0.0808c0.21008,-0.05387 0.35822,-0.1616 0.44441,-0.32321c0.08619,-0.1616 0.14006,-0.42017 0.1616,-0.7757zM239.79643,163.68945v5.59149l1.85844,-0.59793l0.09696,0.59793l0.06464,0.51713l-4.79963,1.56756l-0.30705,-1.08274l1.93924,-0.63025v-5.96318h-1.69684v-1.17971h1.69684v-3.87849h1.14739v3.87849h1.37363v1.17971z" fill="#dbe9ff" fill-rule="evenodd" stroke="#dbe9ff" stroke-width="0.45" stroke-linecap="round"/><path d="M266.68729,160.42505h-11.23146v10.64968h11.5385v1.21203h-12.81517v-13.0899h12.50813zM256.99107,170.34752l-0.80802,-1.08274c1.28206,-0.96962 2.63953,-2.18165 4.07241,-3.63608c-1.65913,-1.66991 -2.86039,-2.86039 -3.60376,-3.57144l0.84034,-0.9373c1.20664,1.142 2.42406,2.32709 3.65224,3.55528c1.13123,-1.20664 2.15472,-2.4456 3.07047,-3.71688l1.0181,0.7757c-0.96962,1.32515 -2.02543,2.60721 -3.16743,3.84617c1.8746,1.89615 3.14588,3.19437 3.81385,3.89465l-0.95346,0.96962c-1.35747,-1.44366 -2.61259,-2.74188 -3.76537,-3.89465c-1.46521,1.49753 -2.855,2.76342 -4.16938,3.79769z" fill="#dbe9ff" fill-rule="evenodd" stroke="#dbe9ff" stroke-width="0.45" stroke-linecap="round"/><path d="M145.31761,187.84384h-1.39973v2.62877l2.6117,-0.64866l0.03414,0.97298l-4.0285,1.09247l-0.37554,-0.90471c0.25036,-0.10242 0.40968,-0.18777 0.47796,-0.25605c0.06828,-0.06828 0.10242,-0.15932 0.10242,-0.27312v-2.6117h-1.5875c-0.09104,0.77384 -0.26743,1.47655 -0.52917,2.10813c-0.26174,0.63159 -0.63159,1.26602 -1.10954,1.9033l-1.0754,-0.75108c0.6259,-0.80798 1.05264,-1.58181 1.28024,-2.32151c0.2276,-0.7397 0.3414,-1.72406 0.3414,-2.95309v-2.45807h12.88778v0.8535h-11.69289v1.87769c0,0.38692 -0.00569,0.67142 -0.01707,0.8535h12.05136v0.88764h-6.65727c0.63728,0.67142 1.3599,1.20058 2.16788,1.5875c1.45663,-0.66004 2.47514,-1.14937 3.05551,-1.46801l0.5121,0.88764c-0.42106,0.20484 -1.1892,0.55762 -2.30444,1.05833c1.01282,0.2845 2.24185,0.49503 3.6871,0.63159l-0.49503,1.05833c-1.35421,-0.1707 -2.50928,-0.40968 -3.46519,-0.71694c-0.95592,-0.30726 -1.7895,-0.70271 -2.50074,-1.18636c-0.71125,-0.48365 -1.36844,-1.10101 -1.97157,-1.85209zM145.55659,182.84236v-3.19207h-5.05269v2.20202h-1.21196v-3.05551h6.26466v-0.92178h-5.66721v-0.95592h12.61466v0.95592h-5.75256v0.92178h6.33294v3.05551h-1.19489v-2.20202h-5.13804v3.19207zM141.97191,185.18094h10.19074v0.83643h-10.19074zM141.45981,181.20365v-0.76815h3.20914v0.76815zM147.7074,181.20365v-0.76815h3.19207v0.76815zM144.66896,181.8523v0.75108h-3.20914v-0.75108zM147.72447,182.60338v-0.75108h3.19207v0.75108z" fill="#dbe9ff" fill-rule="evenodd" stroke="#dbe9ff" stroke-width="0.45" stroke-linecap="round"/><path d="M169.71052,180.19652v6.19638h-2.91895v3.32863c0,0.47796 -0.05121,0.84781 -0.15363,1.10954c-0.10242,0.26174 -0.28165,0.44666 -0.5377,0.55477c-0.25605,0.10811 -0.61736,0.16216 -1.08394,0.16216h-1.39973l-0.23898,-1.16075h1.21196c0.29588,0 0.51494,-0.0313 0.65719,-0.09388c0.14225,-0.06259 0.23898,-0.17354 0.29019,-0.33286c0.05121,-0.15932 0.07681,-0.3983 0.07681,-0.71694v-2.85068h-2.91895v-6.19638h2.15081c0.18208,-0.569 0.35847,-1.18351 0.52917,-1.84355h-4.06264v4.38697c0,1.44525 -0.0569,2.66291 -0.1707,3.65296c-0.1138,0.99005 -0.30726,1.91183 -0.58038,2.76533c-0.27312,0.8535 -0.67142,1.76958 -1.19489,2.74826l-1.14368,-0.52917c0.5121,-0.97868 0.90186,-1.86916 1.16929,-2.67144c0.26743,-0.80229 0.45235,-1.65578 0.55477,-2.56049c0.10242,-0.90471 0.15363,-2.02278 0.15363,-3.35424v-5.65014h10.68576v1.21196h-4.16506c-0.14794,0.55762 -0.31864,1.17213 -0.5121,1.84355zM157.48846,185.02731l0.59745,0.13656l0.56331,0.13656c-0.03414,0.1707 -0.18492,0.79091 -0.45235,1.86062c-0.26743,1.06971 -0.49218,1.95735 -0.67426,2.66291l-0.46089,1.79234l-1.16075,-0.32433c0.95592,-3.64158 1.48508,-5.7298 1.5875,-6.26466zM168.49855,185.33457v-1.51922h-4.62595v1.51922zM163.87261,182.77408h4.62595v-1.48508h-4.62595zM163.27516,187.21226l0.95592,0.58038c-0.33002,0.58038 -0.72547,1.20058 -1.18636,1.86062c-0.46089,0.66004 -0.91324,1.2461 -1.35706,1.7582l-0.90471,-0.71694c0.48934,-0.53486 0.95307,-1.10385 1.3912,-1.70699c0.43813,-0.60314 0.80513,-1.19489 1.10101,-1.77527zM167.57678,187.86091l0.88764,-0.61452c0.35278,0.4552 0.78237,1.02988 1.28878,1.72406c0.50641,0.69418 0.89617,1.2461 1.16929,1.65578l-0.93885,0.6828c-0.2845,-0.4552 -0.67426,-1.04126 -1.16929,-1.7582c-0.49503,-0.71694 -0.90755,-1.28024 -1.23757,-1.68992zM159.21252,182.82529l-0.76815,1.02419c-0.4552,-0.3983 -0.96729,-0.83643 -1.53629,-1.31438c-0.569,-0.47796 -1.04126,-0.86488 -1.4168,-1.16075l0.6828,-0.99005c0.67142,0.5121 1.51922,1.19489 2.54342,2.04839c0.1138,0.07966 0.21053,0.15363 0.29019,0.22191c0.07966,0.06828 0.14794,0.12518 0.20484,0.1707zM159.69048,178.91628l-0.73401,1.05833c-0.569,-0.54624 -1.50215,-1.35421 -2.79947,-2.42393l0.71694,-0.93885c0.77384,0.60314 1.71268,1.37128 2.81654,2.30444z" fill="#dbe9ff" fill-rule="evenodd" stroke="#dbe9ff" stroke-width="0.45" stroke-linecap="round"/><path d="M181.21564,190.01172h6.53778l-0.27312,1.21196h-6.36708c-1.21765,0 -2.2703,-0.20768 -3.15793,-0.62305c-0.88764,-0.41537 -1.62164,-1.06118 -2.20202,-1.93743c-0.4552,1.09247 -1.18351,2.16788 -2.18495,3.22621l-0.88764,-1.04126c0.88764,-0.92178 1.5306,-1.85778 1.9289,-2.808c0.3983,-0.95022 0.66573,-2.19917 0.80229,-3.74685l1.28024,0.13656c-0.10242,1.10385 -0.26174,2.07115 -0.47796,2.90189c0.42106,0.75108 0.93031,1.33714 1.52776,1.7582c0.59745,0.42106 1.30585,0.69418 2.1252,0.81936v-6.98159h-6.23052v-1.19489h13.29746v1.19489h-5.7867v2.69705h5.15511v1.17782h-5.15511v3.20914zM185.79037,180.91346v-1.7582h-11.02716v1.79234h-1.2461v-2.97016h6.35001l-0.61452,-1.77527l1.45094,-0.13656l0.63159,1.91183h5.68428v2.93602z" fill="#dbe9ff" fill-rule="evenodd" stroke="#dbe9ff" stroke-width="0.45" stroke-linecap="round"/><path d="M200.82897,189.82395h4.0285v1.21196h-10.80525v-1.21196h5.4453c0.37554,-0.99005 0.82789,-2.3841 1.35706,-4.18213c0.52917,-1.79803 0.91893,-3.27742 1.16929,-4.43818l1.29731,0.39261c-0.27312,1.11523 -0.66004,2.49505 -1.16075,4.13945c-0.50072,1.6444 -0.94454,3.00715 -1.33145,4.08824zM193.06216,176.18509l1.29731,0.30726c-0.44382,1.43387 -0.88764,2.67429 -1.33145,3.72124v11.59047h-1.26317v-8.99584c-0.48934,0.86488 -1.02988,1.67854 -1.62164,2.441l-0.56331,-1.43387c0.66004,-0.87626 1.29447,-1.98864 1.9033,-3.33717c0.60883,-1.34852 1.13515,-2.77955 1.57897,-4.29308zM200.36808,179.05284h4.1992v1.26317h-10.13953v-1.26317h4.52353c-0.25036,-0.94454 -0.52917,-1.85493 -0.83643,-2.73119l1.34852,-0.20484l0.11949,0.37554c0.06828,0.21622 0.19346,0.61167 0.37554,1.18636c0.18208,0.57469 0.31864,1.03273 0.40968,1.37413zM198.57574,188.11696l-1.22903,0.35847c-0.21622,-0.88764 -0.52063,-2.0427 -0.91324,-3.46519c-0.39261,-1.42249 -0.71978,-2.52066 -0.98152,-3.29449l1.22903,-0.3414c0.26174,0.77384 0.58322,1.8464 0.96445,3.21768c0.38123,1.37128 0.69133,2.54626 0.93031,3.52494z" fill="#dbe9ff" fill-rule="evenodd" stroke="#dbe9ff" stroke-width="0.45" stroke-linecap="round"/><path d="M216.56742,178.848h4.72837c-0.03414,1.22903 -0.08819,2.96732 -0.16216,5.21486c-0.07397,2.24754 -0.13371,3.97444 -0.17923,5.18072c-0.02276,0.54624 -0.11664,0.97583 -0.28165,1.28878c-0.16501,0.31295 -0.42675,0.5377 -0.78522,0.67426c-0.35847,0.13656 -0.84496,0.20484 -1.45948,0.20484h-2.15081l-0.25605,-1.33145h2.01425c0.44382,0 0.78237,-0.03983 1.01566,-0.11949c0.23329,-0.07966 0.40114,-0.22475 0.50356,-0.43528c0.10242,-0.21053 0.15932,-0.52063 0.1707,-0.93031l0.15363,-4.47232l0.11949,-3.97729h-3.96022c-0.35278,0.84212 -0.76815,1.66147 -1.2461,2.45807l-1.12661,-0.75108c0.53486,-0.80798 1.02704,-1.76674 1.47655,-2.87628c0.44951,-1.10954 0.78806,-2.14796 1.01566,-3.11526l1.26317,0.30726c-0.21622,0.87626 -0.50072,1.76958 -0.8535,2.67998zM210.09793,175.98025l1.34852,0.23898c-0.13656,0.6828 -0.35278,1.54198 -0.64866,2.57756h2.67998v11.7441h-4.64302v1.12661h-1.22903v-12.87071h1.80941c0.21622,-0.66004 0.44382,-1.59888 0.6828,-2.81654zM208.83475,180.11117v3.92608h3.41398v-3.92608zM212.24874,185.35164h-3.41398v3.87487h3.41398zM218.42804,186.08564l-1.09247,0.76815c-0.72832,-1.12661 -1.54198,-2.26461 -2.441,-3.41398l0.93885,-0.76815c1.01282,1.22903 1.87769,2.36703 2.59463,3.41398z" fill="#dbe9ff" fill-rule="evenodd" stroke="#dbe9ff" stroke-width="0.45" stroke-linecap="round"/><path d="M237.99016,185.02731v1.22903h-3.31156v3.55054h4.30162v1.21196h-9.86641v-1.21196h4.28455v-3.55054h-3.3457v-1.22903zM229.69419,184.25916l-0.64866,-1.16075c1.33145,-0.5121 2.62877,-1.1892 3.89194,-2.03132c1.26317,-0.84212 2.23047,-1.71268 2.90189,-2.6117h-5.75256v-1.2461h7.42541v1.16075c-0.61452,0.88764 -1.40542,1.75251 -2.37272,2.59463c1.47939,0.81936 2.82223,1.59319 4.0285,2.32151l-0.71694,1.12661c-1.54767,-0.96729 -2.99861,-1.83786 -4.35283,-2.6117c-1.35421,1.02419 -2.82223,1.84355 -4.40404,2.45807zM226.94593,182.27905l-2.62877,0.39261l-0.25605,-1.14368c0.52348,-0.67142 1.02419,-1.45094 1.50215,-2.33858c0.47796,-0.88764 0.99575,-1.92321 1.55336,-3.10672l1.0754,0.49503c-1.11523,2.25323 -1.9858,3.84642 -2.6117,4.77958l2.08253,-0.25605c0.26174,-0.43244 0.55762,-0.96729 0.88764,-1.60457l1.0754,0.59745c-0.87626,1.65009 -2.07684,3.5164 -3.60175,5.59893l2.95309,-0.46089l0.03414,1.21196l-4.42111,0.64866l-0.23898,-1.22903c0.87626,-1.03557 1.74113,-2.23047 2.59463,-3.58468zM224.04405,190.62624l-0.18777,-1.29731l5.25753,-0.90471l0.06828,1.33145z" fill="#dbe9ff" fill-rule="evenodd" stroke="#dbe9ff" stroke-width="0.45" stroke-linecap="round"/><path d="M246.33735,181.98886h-2.69705v1.45094c0,1.41111 -0.05405,2.58609 -0.16216,3.52494c-0.10811,0.93885 -0.27596,1.76674 -0.50356,2.48367c-0.2276,0.71694 -0.54624,1.50784 -0.95592,2.37272l-1.12661,-0.66573c0.40968,-0.87626 0.71694,-1.65009 0.92178,-2.32151c0.20484,-0.67142 0.35278,-1.44525 0.44382,-2.32151c0.09104,-0.87626 0.13656,-2.02563 0.13656,-3.44812v-5.15511h6.35001c-0.10242,-0.43244 -0.21622,-0.83643 -0.3414,-1.21196c-0.02276,-0.07966 -0.04552,-0.15647 -0.06828,-0.23044c-0.02276,-0.07397 -0.03983,-0.1394 -0.05121,-0.1963l1.43387,-0.1707c0.20484,0.6828 0.38123,1.28593 0.52917,1.80941h5.616v1.14368h-2.81654v1.86062h2.76533v1.0754h-2.76533v2.54342h-6.70848zM256.01599,190.43847l-0.40968,1.28024c-1.34283,-0.21622 -2.50359,-0.45235 -3.48226,-0.7084c-0.97868,-0.25605 -1.86631,-0.56615 -2.66291,-0.93031c-1.50215,0.66004 -3.40829,1.24041 -5.71842,1.74113l-0.5121,-1.19489c1.96873,-0.3414 3.60744,-0.75108 4.91613,-1.22903c-1.06971,-0.66004 -2.1565,-1.55905 -3.26035,-2.69705v-1.05833h9.25189v1.0754c-0.87626,1.06971 -1.95735,1.95735 -3.24328,2.66291c1.25179,0.43244 2.95879,0.78522 5.12097,1.05833zM252.49959,186.70016h-5.85498c0.88764,0.9104 1.84355,1.61595 2.86775,2.11667c1.19489,-0.569 2.19064,-1.27455 2.98723,-2.11667zM247.54931,179.05284v1.86062h4.25041v-1.86062zM247.54931,181.98886v1.46801h4.25041v-1.46801zM243.6403,180.91346h2.69705v-1.86062h-2.69705z" fill="#dbe9ff" fill-rule="evenodd" stroke="#dbe9ff" stroke-width="0.45" stroke-linecap="round"/><path d="M258.06438,177.29464h15.02152v1.26317h-2.11667v10.58335c0,0.64866 -0.07112,1.13799 -0.21337,1.46801c-0.14225,0.33002 -0.39261,0.56046 -0.75108,0.69133c-0.35847,0.13087 -0.89617,0.1963 -1.61311,0.1963h-2.2703l-0.23898,-1.31438h2.21909c0.4552,0 0.78522,-0.03414 0.99005,-0.10242c0.20484,-0.06828 0.34709,-0.1963 0.42675,-0.38407c0.07966,-0.18777 0.11949,-0.49218 0.11949,-0.91324v-10.22488h-11.5734zM259.82258,187.86091v-6.75969h6.89624v6.75969zM261.06868,182.34733v4.28455h4.3699v-4.28455z" fill="#dbe9ff" fill-rule="evenodd" stroke="#dbe9ff" stroke-width="0.45" stroke-linecap="round"/><path d="M277.2851,191.76992h-1.17782v-9.4738h6.1281v7.78388c0,0.42106 -0.05405,0.74539 -0.16216,0.97298c-0.10811,0.2276 -0.28734,0.38407 -0.5377,0.46942c-0.25036,0.08535 -0.60314,0.12802 -1.05833,0.12802h-1.22903l-0.25605,-1.21196h1.28024c0.23898,0 0.40968,-0.02276 0.5121,-0.06828c0.10242,-0.04552 0.16785,-0.12518 0.1963,-0.23898c0.02845,-0.1138 0.04267,-0.29019 0.04267,-0.52917v-1.26317h-3.73831zM288.94385,187.38295l1.16075,0.30726c-0.04552,1.02419 -0.09104,1.71837 -0.13656,2.08253c-0.0569,0.60314 -0.23329,1.02419 -0.52917,1.26317c-0.29588,0.23898 -0.78522,0.35847 -1.46801,0.35847h-2.6117c-0.52348,0 -0.9104,-0.13656 -1.16075,-0.40968c-0.25036,-0.27312 -0.37554,-0.69987 -0.37554,-1.28024v-5.41116h1.22903v2.38979c0.77384,-0.33002 1.54198,-0.68564 2.30444,-1.06687c0.76246,-0.38123 1.37697,-0.72547 1.84355,-1.03273l0.63159,1.14368c-0.54624,0.31864 -1.28024,0.69418 -2.20202,1.12661c-0.92178,0.43244 -1.78096,0.80798 -2.57756,1.12661v1.31438c0,0.35278 0.07397,0.60029 0.22191,0.74254c0.14794,0.14225 0.38692,0.21337 0.71694,0.21337h1.5875c0.4552,0 0.76815,-0.07112 0.93885,-0.21337c0.1707,-0.14225 0.27881,-0.41252 0.32433,-0.81082c0.02276,-0.26174 0.04552,-0.57469 0.06828,-0.93885c0.02276,-0.36416 0.03414,-0.66573 0.03414,-0.90471zM288.02207,183.42274h-2.76533c-0.50072,0 -0.86772,-0.13087 -1.10101,-0.39261c-0.23329,-0.26174 -0.34993,-0.6828 -0.34993,-1.26317v-5.47944h1.19489v2.7824c0.77384,-0.31864 1.55052,-0.65719 2.33004,-1.01566c0.77953,-0.35847 1.36844,-0.65719 1.76674,-0.89617l0.54624,1.12661c-0.84212,0.46658 -2.38979,1.16075 -4.64302,2.08253v0.97298c0,0.35278 0.06259,0.5946 0.18777,0.72547c0.12518,0.13087 0.34709,0.1963 0.66573,0.1963h1.7582c0.31864,0 0.55193,-0.01991 0.69987,-0.05974c0.14794,-0.03983 0.25605,-0.13087 0.32433,-0.27312c0.06828,-0.14225 0.1138,-0.367 0.13656,-0.67426c0.01138,-0.20484 0.0256,-0.46373 0.04267,-0.77668c0.01707,-0.31295 0.0256,-0.57184 0.0256,-0.77668l1.16075,0.35847l-0.03414,0.56331l-0.06828,1.21196c-0.04552,0.60314 -0.20484,1.0185 -0.47796,1.2461c-0.27312,0.2276 -0.7397,0.3414 -1.39973,0.3414zM279.77731,178.1652l0.88764,-0.66573c0.94454,1.18351 1.82648,2.33289 2.64584,3.44812l-0.97298,0.75108c-0.2845,-0.40968 -0.50641,-0.72263 -0.66573,-0.93885l-6.05982,0.39261l-0.15363,-1.05833c1.06971,-1.04695 2.08822,-2.37841 3.05551,-3.99436l1.19489,0.54624c-0.36416,0.54624 -0.78522,1.12661 -1.26317,1.74113c-0.47796,0.61452 -0.9104,1.13799 -1.29731,1.57043l3.77245,-0.25605c-0.35278,-0.50072 -0.73401,-1.01282 -1.14368,-1.53629zM281.02341,185.84666h-3.73831v1.43387h3.73831zM277.2851,184.78833h3.73831v-1.4168h-3.73831z" fill="#dbe9ff" fill-rule="evenodd" stroke="#dbe9ff" stroke-width="0.45" stroke-linecap="round"/><path d="M298.48593,187.57072l0.03414,0.63159c-0.29588,0.03414 -0.94454,0.13656 -1.94597,0.30726v3.43105h-1.19489v-3.24328c-1.69561,0.25036 -2.74257,0.42106 -3.14086,0.5121l-0.11949,-1.28024c0.29588,-0.02276 1.38266,-0.18208 3.26035,-0.47796v-2.52635h-2.79947v-1.2461c0.40968,-1.06971 0.83643,-2.37272 1.28024,-3.90901h-1.46801v-1.22903h1.79234c0.19346,-0.72832 0.38123,-1.49077 0.56331,-2.28737l1.19489,0.18777c-0.20484,0.87626 -0.38123,1.57612 -0.52917,2.0996h2.79947v1.22903h-3.14086c-0.40968,1.47939 -0.83643,2.79378 -1.28024,3.94315h1.62164v-2.91895h1.16075v2.91895h1.4168v1.21196h-1.4168v2.33858l1.89476,-0.3414zM307.29401,190.54089l-0.71694,1.21196c-1.69561,-0.7966 -3.08396,-1.78096 -4.16506,-2.95309c-1.10385,1.17213 -2.50359,2.18495 -4.1992,3.03844l-0.71694,-1.10954c1.75251,-0.81936 3.13517,-1.77527 4.14799,-2.86775c-0.7397,-0.99005 -1.38266,-2.24754 -1.9289,-3.77245c-0.13656,0.19346 -0.37554,0.48365 -0.71694,0.87057l-0.95592,-0.81936c0.44382,-0.46658 0.91324,-1.05264 1.40827,-1.7582c0.49503,-0.70556 0.91324,-1.38835 1.25464,-2.04839l1.10954,0.59745c-0.55762,1.06971 -1.22903,2.08822 -2.01425,3.05551l1.00712,-0.42675c0.44382,1.30869 0.99005,2.41824 1.63871,3.32863c0.66004,-0.94454 1.18351,-2.03701 1.57043,-3.27742l1.12661,0.40968c-0.50072,1.49077 -1.14368,2.75964 -1.9289,3.80659c0.5121,0.54624 1.09816,1.03842 1.7582,1.47655c0.66004,0.43813 1.43387,0.85065 2.32151,1.23757zM303.55569,178.52367h3.44812v1.29731h-8.2277v-1.29731h3.41398c-0.1707,-0.64866 -0.38692,-1.33145 -0.64866,-2.04839l1.2461,-0.27312c0.2845,0.80798 0.54055,1.58181 0.76815,2.32151zM303.06067,181.06709l0.92178,-0.78522l0.47796,0.56331c1.43387,1.71837 2.33289,2.81654 2.69705,3.29449l-0.93885,0.8535c-0.54624,-0.72832 -1.59888,-2.03701 -3.15793,-3.92608z" fill="#dbe9ff" fill-rule="evenodd" stroke="#dbe9ff" stroke-width="0.45" stroke-linecap="round"/><path d="M323.22023,187.26347l1.10954,0.39261c-0.04552,0.29588 -0.10811,0.65435 -0.18777,1.0754c-0.07966,0.42106 -0.15932,0.7966 -0.23898,1.12661c-0.13656,0.55762 -0.32717,0.96445 -0.57184,1.2205c-0.24467,0.25605 -0.54908,0.38407 -0.91324,0.38407c-0.35278,0 -0.70556,-0.19346 -1.05833,-0.58038c-0.35278,-0.38692 -0.67142,-0.97868 -0.95592,-1.77527c-0.48934,-1.32007 -0.83643,-3.08396 -1.04126,-5.29167h-3.55054v5.54772l1.26317,-0.63159l0.35847,1.12661l-2.91895,1.46801l-0.47796,-1.10954c0.19346,-0.13656 0.32148,-0.27312 0.38407,-0.40968c0.06259,-0.13656 0.09388,-0.31295 0.09388,-0.52917v-11.43684c1.38835,-0.07966 2.87344,-0.21906 4.45525,-0.41821c1.58181,-0.19915 3.02137,-0.42959 4.31869,-0.69133l0.29019,1.26317c-0.78522,0.18208 -1.88338,0.37554 -3.29449,0.58038c0.03414,1.62733 0.09673,2.95309 0.18777,3.97729h3.72124v1.26317h-3.61882c0.21622,2.10529 0.55762,3.77245 1.02419,5.00148c0.12518,0.31864 0.27027,0.58607 0.43528,0.80229c0.16501,0.21622 0.29303,0.32433 0.38407,0.32433c0.12518,0 0.22475,-0.07112 0.29872,-0.21337c0.07397,-0.14225 0.14509,-0.38976 0.21337,-0.74254c0.0569,-0.26174 0.1138,-0.55477 0.1707,-0.8791c0.0569,-0.32433 0.09673,-0.60598 0.11949,-0.84496zM312.60275,176.09974l1.2461,0.37554c-0.42106,1.34283 -0.88764,2.59463 -1.39973,3.75538v11.55633h-1.2461v-9.08119c-0.53486,0.93315 -1.08678,1.78665 -1.65578,2.56049l-0.49503,-1.46801c0.63728,-0.92178 1.28878,-2.09391 1.9545,-3.5164c0.66573,-1.42249 1.19774,-2.81654 1.59604,-4.18213zM315.81189,179.06991v3.48226h3.43105c-0.09104,-1.29731 -0.15363,-2.57187 -0.18777,-3.82366c-0.8535,0.1138 -1.93459,0.2276 -3.24328,0.3414zM317.86028,188.56078l1.05833,-0.42675c0.6259,1.12661 1.12092,2.16219 1.48508,3.10672l-1.0754,0.46089c-0.20484,-0.54624 -0.44382,-1.10954 -0.71694,-1.68992c-0.27312,-0.58038 -0.52348,-1.06402 -0.75108,-1.45094z" fill="#dbe9ff" fill-rule="evenodd" stroke="#dbe9ff" stroke-width="0.45" stroke-linecap="round"/></g></g></svg>