<svg version="1.1" xmlns="http://www.w3.org/2000/svg" xmlns:xlink="http://www.w3.org/1999/xlink" width="224" height="210" viewBox="0,0,224,210"><g transform="translate(-128,-180)"><g stroke="none" stroke-miterlimit="10"><path d="M352,180v210h-224v-210z" fill="#1d2a41" fill-rule="evenodd" stroke-linecap="butt" stroke-linejoin="miter"/><path d="M342,180c0.55228,0 1,0.44772 1,1c0,0.55228 -0.44772,1 -1,1h-204c-0.55228,0 -1,-0.44772 -1,-1c0,-0.55228 0.44772,-1 1,-1z" fill="#31476d" fill-rule="nonzero" stroke-linecap="round" stroke-linejoin="round"/><path d="M150.02104,194.9c0.45457,0.009 0.85661,0.29721 1.0117,0.72461l3.2578,8.957l0.79297,-1.1914c0.20408,-0.30639 0.54789,-0.49038 0.91602,-0.49023h3v2.1992h-2.4121l-1.6719,2.5098c-0.23012,0.34513 -0.6348,0.53149 -1.04665,0.48197c-0.41184,-0.0495 -0.76082,-0.3265 -0.90256,-0.71634l-2.9219,-8.0352l-4.002,12.008c-0.14436,0.43328 -0.54142,0.73231 -0.99772,0.7514c-0.4563,0.0191 -0.87694,-0.24574 -1.05698,-0.66545l-2.7129,-6.334h-2.2754v-2.1992h3c0.4401,-0.00035 0.83804,0.26164 1.0117,0.66602l1.8594,4.3398l4.0859,-12.254c0.1522,-0.45648 0.5834,-0.76108 1.0645,-0.75195z" fill="#ffffff" fill-rule="nonzero" stroke-linecap="butt" stroke-linejoin="miter"/><path d="M174.27529,208.76671l0.87312,-1.35247c0.74186,0.22826 1.48943,0.49077 2.24271,0.78752c0.75328,0.29674 1.4609,0.6049 2.12287,0.92448c0.66197,0.31957 1.22122,0.62773 1.67775,0.92448l-1.09567,1.45519c-0.44512,-0.31957 -0.97812,-0.64257 -1.599,-0.96899c-0.62316,-0.32414 -1.29769,-0.64028 -2.02357,-0.94844c-0.7236,-0.30816 -1.45633,-0.58208 -2.1982,-0.82176M172.27226,195.97813l1.84895,-0.56496c0.22826,0.35381 0.45653,0.74757 0.6848,1.18127c0.22826,0.4337 0.39376,0.81605 0.49648,1.14703l-1.95167,0.61632c-0.07989,-0.30816 -0.22484,-0.68822 -0.43485,-1.14019c-0.21229,-0.44968 -0.42686,-0.86284 -0.64371,-1.23948M166.55421,197.31349h14.39784v3.80062h-1.91743v-2.08863h-10.6657v2.08863h-1.81471v-3.80062M173.53913,199.77875h1.93455c-0.04565,1.23263 -0.11984,2.37624 -0.22256,3.43083c-0.10272,1.05687 -0.29674,2.01901 -0.58208,2.88642c-0.28533,0.86741 -0.70762,1.64922 -1.26687,2.34543c-0.55925,0.69621 -1.31481,1.30111 -2.26668,1.81471c-0.95415,0.5136 -2.15597,0.9473 -3.60545,1.30111c-0.09131,-0.23968 -0.23968,-0.51702 -0.44512,-0.83203c-0.20544,-0.31272 -0.40517,-0.5661 -0.5992,-0.76012c1.35818,-0.29674 2.46527,-0.65969 3.32126,-1.08883c0.856,-0.42686 1.5328,-0.93475 2.03042,-1.52367c0.49534,-0.58664 0.85714,-1.25432 1.0854,-2.00303c0.22826,-0.74643 0.38006,-1.58188 0.45539,-2.50635c0.07305,-0.92448 0.12669,-1.94596 0.16093,-3.06446M166.34877,205.4968h14.86008v1.54079h-14.86008v-1.54079M169.17355,200.70323l1.07855,-1.18127c0.30816,0.14837 0.62202,0.32528 0.9416,0.53072c0.31957,0.20544 0.62545,0.41887 0.91763,0.64028c0.2899,0.2237 0.52045,0.43256 0.69164,0.62659l-1.14703,1.31823c-0.15979,-0.19403 -0.37664,-0.40517 -0.65056,-0.63344c-0.27392,-0.22826 -0.57066,-0.45996 -0.89024,-0.69507c-0.31957,-0.23283 -0.63344,-0.43485 -0.9416,-0.60604M167.44444,203.30545l1.04431,-1.23263c0.31957,0.14837 0.64485,0.32185 0.97583,0.52045c0.33098,0.20087 0.64485,0.40631 0.9416,0.61632c0.29674,0.21229 0.53642,0.41544 0.71904,0.60947l-1.09567,1.38671c-0.18261,-0.20544 -0.41658,-0.42229 -0.70192,-0.65056c-0.28533,-0.22826 -0.59349,-0.45082 -0.92448,-0.66768c-0.33098,-0.21685 -0.65056,-0.41088 -0.95871,-0.58208zM184.35891,196.97109h4.87917v11.4361h-4.87917v-1.64351h3.16718v-8.14908h-3.16718v-1.64351M184.46163,201.81602h3.57806v1.60927h-3.57806v-1.60927M183.4858,196.97109h1.72911v12.82281h-1.72911v-12.82281M189.92288,198.83716h8.93659v1.83183h-8.93659v-1.83183M195.16158,195.70421h1.86607v13.37065c0,0.57066 -0.07419,1.00094 -0.22256,1.29084c-0.14837,0.29218 -0.40517,0.51246 -0.7704,0.66083c-0.35381,0.14837 -0.82975,0.24196 -1.4278,0.28077c-0.60034,0.04109 -1.32851,0.05593 -2.1845,0.04451c-0.03424,-0.2625 -0.11756,-0.57409 -0.24995,-0.93475c-0.13011,-0.35838 -0.26365,-0.66311 -0.40061,-0.9142c0.42229,0.01141 0.83089,0.0194 1.22579,0.02397c0.39262,0.00685 0.7373,0.01027 1.03404,0.01027c0.29674,0 0.50789,0 0.63344,0c0.18261,-0.01141 0.31044,-0.04908 0.38349,-0.11299c0.07533,-0.06163 0.11299,-0.18375 0.11299,-0.36637v-13.35353M190.21392,202.6549l1.52367,-0.80464c0.28533,0.39946 0.59349,0.83545 0.92448,1.30796c0.33098,0.47479 0.64485,0.93703 0.9416,1.38671c0.29674,0.45197 0.53642,0.84344 0.71904,1.17443l-1.62639,0.9416c-0.1712,-0.3424 -0.39718,-0.74529 -0.67795,-1.20867c-0.27848,-0.4611 -0.57751,-0.93703 -0.89708,-1.4278c-0.31957,-0.49077 -0.62202,-0.9473 -0.90736,-1.36959zM201.6329,196.11509h12.63449v1.33535h-12.63449v-1.33535M202.38618,203.01442h12.72009v1.26687h-12.72009v-1.26687M203.94409,204.82913h10.22059v1.11279h-10.22059v-1.11279M202.35194,206.524h13.40489v1.23263h-13.40489v-1.23263M202.77994,199.86435h3.6123v0.95871h-3.6123v-0.95871M202.4033,201.43938h4.00606v0.9416h-4.00606v-0.9416M209.4567,201.43938h4.05742v0.9416h-4.05742v-0.9416M209.4567,199.86435h3.64654v0.95871h-3.64654v-0.95871M207.00855,196.68005h1.81471v5.99197h-1.81471v-5.99197M200.53723,198.13524h14.86008v2.99598h-1.78047v-1.90031h-11.38474v1.90031h-1.69487v-2.99598M201.56442,203.01442h1.71199v2.36255c0,0.47936 -0.02853,0.99524 -0.0856,1.54764c-0.05707,0.55469 -0.16321,1.11736 -0.31843,1.68802c-0.15294,0.57066 -0.36979,1.12078 -0.65056,1.65036c-0.27848,0.53186 -0.64028,1.01464 -1.0854,1.44834c-0.09131,-0.11413 -0.21685,-0.24881 -0.37664,-0.40403c-0.15979,-0.15294 -0.3287,-0.30131 -0.50675,-0.44512c-0.17576,-0.14153 -0.33213,-0.24653 -0.46909,-0.31501c0.53642,-0.5136 0.93018,-1.07285 1.18127,-1.67775c0.25109,-0.6049 0.41316,-1.21323 0.48621,-1.82498c0.07533,-0.60947 0.11299,-1.17671 0.11299,-1.70172v-2.32831M209.43958,207.17455c0.3424,0.55925 0.82746,1.02377 1.45519,1.39356c0.62773,0.37207 1.37872,0.66311 2.25298,0.87312c0.87197,0.21229 1.84438,0.35267 2.91723,0.42115c-0.15979,0.15979 -0.32528,0.37664 -0.49648,0.65056c-0.1712,0.27392 -0.30816,0.52501 -0.41088,0.75328c-1.17557,-0.12555 -2.22216,-0.3424 -3.13979,-0.65056c-0.91991,-0.30816 -1.71085,-0.72246 -2.37282,-1.24291c-0.66197,-0.51816 -1.20981,-1.15388 -1.64351,-1.90716l1.43807,-0.29104M213.42852,207.61967l1.35247,0.6848c-0.41088,0.27392 -0.84458,0.52729 -1.30111,0.76012c-0.45653,0.23511 -0.87312,0.43827 -1.24975,0.60947l-1.11279,-0.61632c0.25109,-0.13696 0.51588,-0.28876 0.79436,-0.45539c0.28077,-0.16435 0.55469,-0.33555 0.82176,-0.5136c0.26935,-0.17576 0.50104,-0.33213 0.69507,-0.46909M204.08105,211.59149l-0.0856,-1.19839l0.71904,-0.49648l4.7251,-0.66768c-0.04565,0.20544 -0.0856,0.44169 -0.11984,0.70876c-0.03424,0.26935 -0.05136,0.48963 -0.05136,0.66083c-1.05002,0.1712 -1.89803,0.31044 -2.54402,0.41773c-0.64371,0.10957 -1.14247,0.19859 -1.49628,0.26707c-0.35381,0.06848 -0.61061,0.12555 -0.7704,0.1712c-0.15979,0.04565 -0.28533,0.09131 -0.37664,0.13696M204.08105,211.59149c-0.04565,-0.13696 -0.11413,-0.29446 -0.20544,-0.47251c-0.09131,-0.17576 -0.19174,-0.35267 -0.30131,-0.53072c-0.10729,-0.17576 -0.20658,-0.32071 -0.29789,-0.43485c0.19403,-0.10272 0.40175,-0.27734 0.62316,-0.52387c0.2237,-0.24424 0.33555,-0.56039 0.33555,-0.94844v-1.64351l1.78047,0.03424v2.79055c0,0 -0.06506,0.03995 -0.19517,0.11984c-0.13239,0.07989 -0.29218,0.18832 -0.47936,0.32528c-0.18946,0.13696 -0.3812,0.27962 -0.57523,0.428c-0.19403,0.14837 -0.35609,0.29903 -0.48621,0.45197c-0.13239,0.15522 -0.19859,0.2899 -0.19859,0.40403zM220.70448,200.49779h11.96682v1.45519h-11.96682v-1.45519M220.85856,205.47968h9.51867v1.45519h-9.51867v-1.45519M223.13551,199.26516h1.74623v4.02318h3.42398v-4.02318h1.79759v5.42701h-6.9678v-5.42701M229.89787,205.47968h0.35952l0.32528,-0.06848l1.14703,0.5992c-0.46794,0.89024 -1.07855,1.6515 -1.83183,2.2838c-0.75328,0.63458 -1.60927,1.16301 -2.56799,1.5853c-0.95871,0.42229 -1.99162,0.75898 -3.0987,1.01007c-1.10709,0.25109 -2.25983,0.44512 -3.45822,0.58208c-0.06848,-0.21685 -0.17348,-0.47708 -0.31501,-0.78067c-0.14381,-0.30131 -0.2899,-0.55469 -0.43827,-0.76012c1.09567,-0.07989 2.15711,-0.22028 3.1843,-0.42115c1.02719,-0.19859 1.97792,-0.46338 2.85218,-0.79436c0.87197,-0.33098 1.63895,-0.74529 2.30092,-1.24291c0.66197,-0.49534 1.17557,-1.0797 1.54079,-1.75308v-0.23968M223.71759,206.59248c0.55925,0.66197 1.30454,1.22693 2.23586,1.69487c0.92904,0.46794 2.00417,0.84116 3.22539,1.11964c1.22122,0.28077 2.53375,0.47251 3.93758,0.57523c-0.12555,0.12555 -0.2568,0.28533 -0.39376,0.47936c-0.13696,0.19403 -0.26479,0.38805 -0.38349,0.58208c-0.12098,0.19403 -0.21571,0.37093 -0.28419,0.53072c-1.4609,-0.14837 -2.81566,-0.40289 -4.06427,-0.76355c-1.2509,-0.35838 -2.36711,-0.83773 -3.34865,-1.43807c-0.98154,-0.59805 -1.81471,-1.32508 -2.49951,-2.18108l1.57503,-0.5992M219.36913,197.14229h13.47337v1.71199h-13.47337v-1.71199M218.51313,197.14229h1.81471v4.58814c0,0.70762 -0.0194,1.48601 -0.05821,2.33516c-0.04109,0.85143 -0.1187,1.72226 -0.23283,2.6125c-0.11413,0.89024 -0.27962,1.75194 -0.49648,2.58511c-0.21685,0.83317 -0.50218,1.59786 -0.856,2.29407c-0.12555,-0.09131 -0.29104,-0.18832 -0.49648,-0.29104c-0.20544,-0.10272 -0.41316,-0.20316 -0.62316,-0.30131c-0.21229,-0.09587 -0.39832,-0.16093 -0.55811,-0.19517c0.3424,-0.66197 0.61632,-1.37872 0.82176,-2.15026c0.20544,-0.76925 0.35724,-1.55905 0.45539,-2.3694c0.09587,-0.81034 0.15865,-1.60128 0.18832,-2.37282c0.02739,-0.76925 0.04109,-1.47916 0.04109,-2.12972v-4.60526M224.5051,195.90965l1.84895,-0.428c0.19403,0.36522 0.37436,0.76469 0.54099,1.19839c0.16435,0.4337 0.28077,0.80464 0.34925,1.11279l-1.96879,0.47936c-0.04565,-0.31957 -0.14267,-0.70192 -0.29104,-1.14703c-0.14837,-0.44512 -0.30816,-0.85029 -0.47936,-1.21551z" fill="#ffffff" fill-rule="nonzero" stroke-linecap="butt" stroke-linejoin="miter"/><path d="M151.56971,234.27886l0.8583,1.18732c-0.54359,0.12398 -1.13487,0.23842 -1.77382,0.34332c-0.63896,0.1049 -1.30653,0.1955 -2.0027,0.2718c-0.69618,0.07629 -1.39712,0.14019 -2.10284,0.19169c-0.70571,0.0534 -1.38759,0.08965 -2.04562,0.10872c-0.01907,-0.16212 -0.06485,-0.35763 -0.13733,-0.58651c-0.07057,-0.22888 -0.144,-0.41961 -0.2203,-0.5722c0.64849,-0.03815 1.3132,-0.08869 1.99412,-0.15163c0.68283,-0.06104 1.35326,-0.1297 2.01129,-0.20599c0.65803,-0.07629 1.28078,-0.16498 1.86824,-0.26607c0.58555,-0.09918 1.10244,-0.20599 1.55067,-0.32043M144.68899,236.91099l1.1444,-0.41485c0.16212,0.24795 0.31948,0.52166 0.47207,0.82111c0.15259,0.30136 0.26703,0.56171 0.34332,0.78105l-1.20162,0.48637c-0.05722,-0.22888 -0.16022,-0.50068 -0.30899,-0.81539c-0.14687,-0.31471 -0.29659,-0.60081 -0.44918,-0.8583M147.34972,236.63919l1.1301,-0.40054c0.16212,0.29564 0.31185,0.61702 0.44918,0.96416c0.13924,0.34904 0.2327,0.65231 0.28038,0.9098l-1.20162,0.44346c-0.03815,-0.25749 -0.11635,-0.56743 -0.2346,-0.92983c-0.12016,-0.36239 -0.26131,-0.69141 -0.42343,-0.98705M145.63312,239.11396h6.75197v1.25884h-6.75197v-1.25884M143.94513,241.76039h8.92634v1.28745h-8.92634v-1.28745M147.65013,239.52881h1.45911v6.93794h-1.45911v-6.93794M150.91168,243.53422h1.38759v4.03402h-1.38759v-4.03402M144.4315,243.60574h1.40189v2.01701h5.89367v1.25884h-7.29556v-3.27585M139.55348,241.51721c0.54359,-0.12398 1.19685,-0.29087 1.95979,-0.50068c0.76293,-0.20981 1.53541,-0.42915 2.31741,-0.65803l0.18597,1.40189c-0.69618,0.21934 -1.40666,0.43583 -2.13145,0.64945c-0.72479,0.21553 -1.38282,0.41389 -1.97409,0.59509l-0.35763,-1.48772M139.78236,236.92529h4.24859v1.4162h-4.24859v-1.4162M141.39883,234.17873h1.40189v11.52985c0,0.36239 -0.03815,0.64849 -0.11444,0.8583c-0.07629,0.20981 -0.21934,0.3767 -0.42915,0.50068c-0.20027,0.12398 -0.45776,0.20504 -0.77247,0.24319c-0.31471,0.03815 -0.70095,0.05245 -1.15871,0.04292c-0.01907,-0.1812 -0.06676,-0.41294 -0.14305,-0.69522c-0.07629,-0.28038 -0.16212,-0.5207 -0.25749,-0.72097c0.26703,0.00954 0.51784,0.01431 0.75244,0.01431c0.2327,0 0.39196,0 0.47779,0c0.08583,0 0.14782,-0.01717 0.18597,-0.0515c0.03815,-0.03243 0.05722,-0.10109 0.05722,-0.20599v-11.51555M145.71895,238.3558l1.31606,0.32902c-0.21934,0.55313 -0.51021,1.07955 -0.87261,1.57928c-0.36239,0.50163 -0.74386,0.91934 -1.1444,1.25312c-0.07629,-0.07629 -0.17929,-0.16975 -0.30899,-0.28038c-0.12779,-0.10872 -0.26035,-0.21362 -0.39768,-0.31471c-0.13924,-0.09918 -0.26607,-0.17738 -0.38051,-0.2346c0.391,-0.2861 0.74195,-0.63419 1.05285,-1.04427c0.30899,-0.41008 0.55408,-0.83923 0.73528,-1.28745M150.95459,236.02408l1.37328,0.52929c-0.23842,0.43869 -0.47874,0.88405 -0.72097,1.33609c-0.24414,0.45395 -0.46634,0.83827 -0.66661,1.15299l-1.05857,-0.47207c0.12398,-0.22888 0.25272,-0.494 0.38624,-0.79536c0.13351,-0.29945 0.26226,-0.60177 0.38624,-0.90694c0.12398,-0.30517 0.22411,-0.58651 0.30041,-0.844zM161.41157,243.34825h1.55925v2.24589c0,0.19073 0.04101,0.31185 0.12302,0.36335c0.08011,0.0534 0.25844,0.08011 0.53501,0.08011c0.06676,0 0.17452,0 0.32329,0c0.14687,0 0.30803,0 0.48351,0c0.17738,0 0.34714,0 0.50926,0c0.16212,0 0.28133,0 0.35763,0c0.17166,0 0.2985,-0.03338 0.38051,-0.10014c0.08011,-0.06676 0.13733,-0.20313 0.17166,-0.40912c0.03243,-0.20409 0.05817,-0.5064 0.07725,-0.90694c0.1049,0.07629 0.23842,0.14973 0.40054,0.2203c0.16212,0.07248 0.33188,0.13733 0.50926,0.19455c0.17548,0.05722 0.33474,0.1049 0.47779,0.14305c-0.05722,0.59127 -0.15259,1.04617 -0.2861,1.3647c-0.13351,0.32043 -0.32425,0.54455 -0.5722,0.67234c-0.24795,0.1297 -0.58174,0.19455 -1.00135,0.19455c-0.06676,0 -0.16975,0 -0.30899,0c-0.13733,0 -0.28896,0 -0.4549,0c-0.16785,0 -0.3376,0 -0.50926,0c-0.17166,0 -0.32425,0 -0.45776,0c-0.13351,0 -0.23365,0 -0.30041,0c-0.54359,0 -0.96034,-0.05531 -1.25026,-0.16594c-0.29182,-0.10872 -0.49305,-0.29468 -0.60367,-0.5579c-0.10872,-0.26131 -0.16308,-0.62084 -0.16308,-1.0786v-2.26019M155.60372,240.31559l1.30176,-0.52929c0.26703,0.29564 0.52929,0.62656 0.78678,0.99277c0.25749,0.36812 0.44822,0.69999 0.5722,0.99563l-1.38759,0.5722c-0.1049,-0.2861 -0.27847,-0.61988 -0.5207,-1.00135c-0.24414,-0.38147 -0.49495,-0.72479 -0.75244,-1.02996M164.3441,239.67186l1.4162,0.64373c-0.26703,0.37193 -0.55027,0.741 -0.84972,1.10721c-0.30136,0.36812 -0.57125,0.68569 -0.80966,0.95271l-1.23023,-0.58651c0.16212,-0.19073 0.33664,-0.40817 0.52356,-0.65231c0.18501,-0.24223 0.36049,-0.49209 0.52643,-0.74958c0.16785,-0.25749 0.30899,-0.49591 0.42343,-0.71525M154.30197,242.08941h12.64564v1.37328h-12.64564v-1.37328M159.7951,239.57172h1.55925v3.14711h-1.55925v-3.14711M157.94975,243.31964h1.57355c-0.08583,0.54359 -0.21744,1.03664 -0.39482,1.47914c-0.17548,0.44441 -0.43773,0.83827 -0.78678,1.1816c-0.34714,0.34332 -0.81443,0.64373 -1.40189,0.90122c-0.58555,0.25749 -1.33132,0.47683 -2.23731,0.65803c-0.03815,-0.13351 -0.103,-0.28133 -0.19455,-0.44346c-0.08965,-0.16212 -0.18883,-0.32425 -0.29754,-0.48637c-0.11063,-0.16212 -0.21362,-0.29564 -0.30899,-0.40054c0.79154,-0.11444 1.43527,-0.26035 1.93118,-0.43773c0.49591,-0.17548 0.885,-0.38051 1.16729,-0.61512c0.28038,-0.2327 0.49209,-0.50163 0.63514,-0.8068c0.14305,-0.30517 0.24795,-0.64849 0.31471,-1.02996M156.86257,237.72638v0.91552h7.42431v-0.91552h-7.42431M156.86257,235.75228v0.90122h7.42431v-0.90122h-7.42431M155.37484,234.60788h10.47128v5.17842h-10.47128zM168.36381,236.78224h4.36303v1.4305h-4.36303v-1.4305M170.09472,234.16442h1.40189v13.34659h-1.40189v-13.34659M170.06611,237.81221l0.844,0.31471c-0.08583,0.55313 -0.19741,1.1301 -0.33474,1.73091c-0.13924,0.60081 -0.29468,1.18922 -0.46634,1.76524c-0.17166,0.57792 -0.35953,1.11484 -0.56362,1.61075c-0.20599,0.49591 -0.42343,0.92029 -0.65231,1.27315c-0.04768,-0.15259 -0.11158,-0.32234 -0.19169,-0.50926c-0.08202,-0.18501 -0.16785,-0.37098 -0.25749,-0.5579c-0.09155,-0.18501 -0.18024,-0.34427 -0.26607,-0.47779c0.20981,-0.29564 0.41008,-0.64659 0.60081,-1.05285c0.19073,-0.40436 0.37002,-0.83827 0.53787,-1.30176c0.16594,-0.46158 0.31376,-0.93364 0.44346,-1.4162c0.12779,-0.48065 0.22983,-0.94032 0.30613,-1.379M171.43939,238.6419c0.07629,0.09537 0.19359,0.2594 0.3519,0.49209c0.1564,0.2346 0.32806,0.49019 0.51498,0.76675c0.18501,0.27656 0.35381,0.53119 0.5064,0.76389c0.15259,0.2346 0.25749,0.40436 0.31471,0.50926l-0.88691,1.04427c-0.07629,-0.19073 -0.17834,-0.42438 -0.30613,-0.70095c-0.1297,-0.27656 -0.26798,-0.56266 -0.41485,-0.8583c-0.14877,-0.29564 -0.29182,-0.57506 -0.42915,-0.83827c-0.13924,-0.26131 -0.25654,-0.47302 -0.3519,-0.63514l0.70095,-0.54359M177.26154,234.60788c0.23842,0.33378 0.53215,0.6771 0.88119,1.02996c0.34714,0.35286 0.72097,0.69809 1.12151,1.03568c0.40054,0.33951 0.81539,0.65231 1.24454,0.93841c0.42915,0.2861 0.844,0.53405 1.24454,0.74386c-0.08583,0.12398 -0.17643,0.2737 -0.2718,0.44918c-0.09537,0.17738 -0.1831,0.35667 -0.26321,0.53787c-0.08202,0.1812 -0.14687,0.34332 -0.19455,0.48637c-0.58174,-0.37193 -1.17492,-0.80585 -1.77955,-1.30176c-0.60653,-0.49591 -1.17873,-1.02042 -1.7166,-1.57355c-0.53978,-0.55313 -1.0004,-1.08241 -1.38187,-1.58786l1.11579,-0.75817M176.54629,234.02137l1.33037,0.50068c-0.38147,0.71525 -0.83923,1.41334 -1.37328,2.09426c-0.53405,0.68283 -1.10339,1.31511 -1.70802,1.89685c-0.60653,0.58174 -1.21974,1.08718 -1.83963,1.51633c-0.05722,-0.1049 -0.13828,-0.23651 -0.24319,-0.39482c-0.1049,-0.1564 -0.21458,-0.31566 -0.32902,-0.47779c-0.11444,-0.16212 -0.21458,-0.29087 -0.30041,-0.38624c0.58174,-0.36239 1.15203,-0.79154 1.71088,-1.28745c0.55694,-0.49591 1.07383,-1.0395 1.55067,-1.63077c0.47683,-0.59127 0.87737,-1.20162 1.20162,-1.83104M174.44345,238.55607h5.02106v1.30176h-5.02106v-1.30176M173.41348,241.28833l1.18732,-0.31471c0.12398,0.36239 0.24319,0.74863 0.35763,1.15871c0.11444,0.41008 0.21934,0.81062 0.31471,1.20162c0.09537,0.391 0.16212,0.73909 0.20027,1.04427l-1.24454,0.34332c-0.03815,-0.31471 -0.10014,-0.66757 -0.18597,-1.05857c-0.08583,-0.391 -0.1831,-0.79631 -0.29182,-1.21593c-0.11063,-0.41961 -0.22316,-0.80585 -0.3376,-1.15871M176.14574,240.87348l1.18732,-0.17166c0.09537,0.36239 0.18406,0.74577 0.26607,1.15012c0.08011,0.40626 0.15354,0.80204 0.2203,1.18732c0.06676,0.38719 0.10967,0.73337 0.12875,1.03855l-1.24454,0.20027c-0.01907,-0.30517 -0.05722,-0.65612 -0.11444,-1.05285c-0.05722,-0.39482 -0.12398,-0.79727 -0.20027,-1.20734c-0.07629,-0.41008 -0.15736,-0.79154 -0.24319,-1.1444M179.63617,240.70182l1.34467,0.30041c-0.22888,0.5722 -0.47683,1.17015 -0.74386,1.79385c-0.26703,0.62561 -0.53882,1.22451 -0.81539,1.79671c-0.27656,0.5722 -0.53882,1.07288 -0.78678,1.50203l-1.10149,-0.31471c0.19073,-0.33378 0.38433,-0.71048 0.58078,-1.1301c0.19455,-0.41961 0.38719,-0.86116 0.57792,-1.32465c0.19073,-0.46158 0.36716,-0.91648 0.52929,-1.3647c0.16212,-0.44822 0.30041,-0.86784 0.41485,-1.25884M172.71254,245.56553h8.51149v1.34467h-8.51149zM190.46508,244.59279h4.01971v1.44481h-4.01971v-1.44481M189.79274,235.40896h5.393v11.51555h-1.55925v-10.08504h-2.34602v10.27101h-1.48772v-11.70151M185.38679,236.69641h1.54494v2.78948c0,0.61035 -0.04005,1.27029 -0.12016,1.97982c-0.08202,0.71144 -0.24509,1.42669 -0.48923,2.14575c-0.24223,0.72097 -0.5846,1.41524 -1.0271,2.08281c-0.44441,0.66757 -1.02901,1.26361 -1.7538,1.78813c-0.06676,-0.1049 -0.16689,-0.23365 -0.30041,-0.38624c-0.13351,-0.15259 -0.2718,-0.30327 -0.41485,-0.45204c-0.14305,-0.14687 -0.26703,-0.25368 -0.37193,-0.32043c0.66757,-0.47683 1.19685,-0.99945 1.58786,-1.56783c0.391,-0.56648 0.68187,-1.15775 0.87261,-1.77382c0.19073,-0.61416 0.31757,-1.22165 0.38051,-1.82246c0.06104,-0.60081 0.09155,-1.16348 0.09155,-1.68799v-2.77518M184.12795,236.00977h4.89232v1.4305h-4.89232v-1.4305M182.64023,239.87213h6.75197v1.44481h-6.75197v-1.44481M186.5312,241.84622c0.12398,0.09537 0.2861,0.25272 0.48637,0.47207c0.20027,0.21934 0.42247,0.46253 0.66661,0.72956c0.24223,0.26703 0.48542,0.53405 0.72956,0.80108c0.24223,0.26703 0.45681,0.50735 0.64373,0.72097c0.18501,0.21553 0.32043,0.37575 0.40626,0.48065l-1.02996,1.30176c-0.13351,-0.20027 -0.29278,-0.42724 -0.47779,-0.68092c-0.18692,-0.25177 -0.38719,-0.5188 -0.60081,-0.80108c-0.21553,-0.28038 -0.4301,-0.55408 -0.64373,-0.82111c-0.21553,-0.26703 -0.42057,-0.51784 -0.61512,-0.75244c-0.19646,-0.2327 -0.36144,-0.4301 -0.49495,-0.59223l0.92983,-0.8583M184.05643,234.16442l1.47342,0.30041c-0.12398,0.62942 -0.28133,1.24644 -0.47207,1.85107c-0.19073,0.60653 -0.40531,1.17683 -0.64373,1.71088c-0.23842,0.53405 -0.49591,1.00612 -0.77247,1.4162c-0.09537,-0.08583 -0.21648,-0.18406 -0.36335,-0.29468c-0.14877,-0.10872 -0.30422,-0.2203 -0.46634,-0.33474c-0.16212,-0.11444 -0.30041,-0.20027 -0.41485,-0.25749c0.40054,-0.53405 0.73909,-1.19209 1.01566,-1.97409c0.27656,-0.78201 0.49114,-1.58786 0.64373,-2.41755zM198.11827,235.30883h4.07693v9.55576h-4.07693v-1.37328h2.64643v-6.80919h-2.64643v-1.37328M198.2041,239.35715h2.98975v1.34467h-2.98975v-1.34467M197.38871,235.30883h1.44481v10.71447h-1.44481v-10.71447M202.7674,236.86807h7.46722v1.53064h-7.46722v-1.53064M207.14474,234.25025h1.55925v11.17223c0,0.47683 -0.06199,0.83637 -0.18597,1.0786c-0.12398,0.24414 -0.33855,0.4282 -0.64373,0.55217c-0.29564,0.12398 -0.69332,0.20218 -1.19304,0.2346c-0.50163,0.03433 -1.11007,0.04673 -1.82532,0.03719c-0.02861,-0.21934 -0.09727,-0.47969 -0.20599,-0.78105c-0.11063,-0.29945 -0.22316,-0.55408 -0.3376,-0.76389c0.35286,0.00954 0.69427,0.01621 1.02424,0.02003c0.32806,0.00572 0.61607,0.00858 0.86402,0.00858c0.24795,0 0.42438,0 0.52929,0c0.15259,-0.00954 0.26035,-0.04101 0.32329,-0.09441c0.06104,-0.0515 0.09155,-0.15354 0.09155,-0.30613v-11.15792M203.01059,240.0581l1.27315,-0.67234c0.23842,0.33378 0.49591,0.69809 0.77247,1.0929c0.27656,0.39673 0.53882,0.78296 0.78678,1.15871c0.24795,0.37765 0.44822,0.70476 0.60081,0.98132l-1.35898,0.78678c-0.14305,-0.2861 -0.33092,-0.62275 -0.56362,-1.00993c-0.2346,-0.38528 -0.48542,-0.78296 -0.75244,-1.19304c-0.26703,-0.41008 -0.51975,-0.79154 -0.75817,-1.1444zM212.7094,237.82651h4.01971v1.1444h-4.01971v-1.1444M212.7094,240.37281h4.01971v1.10149h-4.01971v-1.10149M212.7094,242.93341h4.01971v1.1444h-4.01971v-1.1444M213.43895,235.48049h2.40324v1.20162h-2.40324v-1.20162M214.21142,238.41302h1.08718v8.64024h-1.08718v-8.64024M213.19577,234.15012l1.38759,0.30041c-0.24795,0.99181 -0.58651,1.93595 -1.01566,2.8324c-0.42915,0.89645 -0.89645,1.64985 -1.40189,2.26019c-0.07629,-0.08583 -0.1831,-0.18597 -0.32043,-0.30041c-0.13924,-0.11444 -0.28229,-0.22888 -0.42915,-0.34332c-0.14877,-0.11444 -0.27561,-0.20504 -0.38051,-0.2718c0.49591,-0.52452 0.92983,-1.18541 1.30176,-1.98268c0.37193,-0.79536 0.65803,-1.62696 0.8583,-2.4948M212.07998,237.82651h1.24454v3.80514c0,0.43869 -0.01144,0.91743 -0.03433,1.43622c-0.02479,0.5207 -0.07534,1.04808 -0.15163,1.58214c-0.07629,0.53405 -0.18406,1.04903 -0.32329,1.54494c-0.13733,0.49591 -0.32043,0.94413 -0.54931,1.34467c-0.07629,-0.07629 -0.1831,-0.15545 -0.32043,-0.23746c-0.13924,-0.08011 -0.28038,-0.16308 -0.42343,-0.24891c-0.14305,-0.08583 -0.26226,-0.14782 -0.35763,-0.18597c0.27656,-0.50544 0.47969,-1.06143 0.60939,-1.66797c0.12779,-0.60463 0.21076,-1.21974 0.24891,-1.84535c0.03815,-0.6237 0.05722,-1.19781 0.05722,-1.72233v-3.80514M216.19982,237.82651h1.20162v8.13956c0,0.25749 -0.02384,0.47874 -0.07153,0.66375c-0.04768,0.18692 -0.15259,0.33283 -0.31471,0.43773c-0.15259,0.1049 -0.32615,0.17357 -0.5207,0.20599c-0.19646,0.03433 -0.43297,0.0515 -0.70953,0.0515c-0.01907,-0.1812 -0.06866,-0.39386 -0.14877,-0.638c-0.08202,-0.24223 -0.16117,-0.43964 -0.23746,-0.59223c0.15259,0.00954 0.29087,0.01431 0.41485,0.01431c0.12398,0 0.20981,-0.00477 0.25749,-0.01431c0.08583,0 0.12875,-0.05245 0.12875,-0.15736v-8.11095M215.49888,235.48049h0.2861l0.21458,-0.05722l0.88691,0.5579c-0.16212,0.44822 -0.36716,0.92506 -0.61512,1.4305c-0.24795,0.50544 -0.4816,0.93459 -0.70095,1.28745c-0.13351,-0.09537 -0.29373,-0.20027 -0.48065,-0.31471c-0.18501,-0.11444 -0.35381,-0.20504 -0.5064,-0.2718c0.12398,-0.22888 0.24509,-0.48446 0.36335,-0.76675c0.12016,-0.28038 0.22793,-0.56648 0.32329,-0.8583c0.09537,-0.28992 0.17166,-0.54455 0.22888,-0.76389v-0.24319M222.05058,243.46269l1.20162,-0.38624c0.20981,0.41961 0.41008,0.86307 0.60081,1.33037c0.19073,0.4673 0.35572,0.92029 0.49495,1.35898c0.13733,0.43869 0.22983,0.82969 0.27752,1.17301l-1.30176,0.44346c-0.04768,-0.33378 -0.13351,-0.72765 -0.25749,-1.1816c-0.12398,-0.45204 -0.27466,-0.91648 -0.45204,-1.39331c-0.17548,-0.47683 -0.36335,-0.92506 -0.56362,-1.34467M217.50158,245.40818c0.50544,-0.04768 1.08432,-0.1049 1.73663,-0.17166c0.65422,-0.06676 1.34563,-0.14114 2.07423,-0.22316c0.73051,-0.08011 1.46293,-0.15831 2.19725,-0.2346l0.02861,1.35898c-0.6771,0.09537 -1.35898,0.18597 -2.04562,0.2718c-0.68664,0.08583 -1.34658,0.1688 -1.97982,0.24891c-0.63514,0.08202 -1.21974,0.1564 -1.7538,0.22316l-0.25749,-1.47342M219.17527,238.05539v3.1185h3.46182v-3.1185h-3.46182M217.94504,236.78224h5.9652v5.6791h-5.9652v-5.6791M220.07649,234.20734h1.60216v3.34738h-1.60216v-3.34738M220.24815,237.55472h1.28745v3.90527h0.12875v4.5633h-1.54494v-4.5633h0.12875zM231.04844,240.53016c0.61988,1.48772 1.58786,2.71033 2.90392,3.66781c1.31606,0.95939 2.98021,1.61551 4.99245,1.96837c-0.1049,0.1049 -0.21934,0.24032 -0.34332,0.40626c-0.12398,0.16785 -0.24128,0.3376 -0.3519,0.50926c-0.10872,0.17166 -0.19646,0.32902 -0.26321,0.47207c-1.39236,-0.29564 -2.61591,-0.73719 -3.67067,-1.32465c-1.05285,-0.58555 -1.95597,-1.32178 -2.70937,-2.2087c-0.7534,-0.88691 -1.37805,-1.92164 -1.87396,-3.10419l1.31606,-0.38624M235.82632,240.00088h0.30041l0.2861,-0.05722l1.07288,0.48637c-0.33378,1.01089 -0.77247,1.90448 -1.31606,2.68076c-0.54359,0.77819 -1.17301,1.45339 -1.88826,2.02559c-0.71525,0.5722 -1.49917,1.0538 -2.35175,1.44481c-0.85449,0.391 -1.75856,0.71048 -2.71223,0.95844c-0.08583,-0.20027 -0.20695,-0.43201 -0.36335,-0.69522c-0.15831,-0.26131 -0.30899,-0.47779 -0.45204,-0.64945c0.8583,-0.1812 1.68036,-0.44346 2.46619,-0.78678c0.78773,-0.34332 1.50775,-0.75817 2.16006,-1.24454c0.65422,-0.48637 1.21974,-1.05667 1.69658,-1.71088c0.47683,-0.65231 0.844,-1.38377 1.10149,-2.19439v-0.25749M230.56207,240.00088h5.49313v1.48772h-5.92228l0.42915,-1.48772M231.34885,234.07859l1.7166,0.2861c-0.19073,1.40189 -0.44632,2.70365 -0.76675,3.90527c-0.31853,1.20162 -0.73337,2.30502 -1.24454,3.31018c-0.50926,1.00707 -1.14059,1.91306 -1.89399,2.71796c-0.7534,0.8068 -1.65938,1.51061 -2.71796,2.11142c-0.06676,-0.11444 -0.16498,-0.25081 -0.29468,-0.40912c-0.12779,-0.1564 -0.26607,-0.3109 -0.41485,-0.46348c-0.14687,-0.15259 -0.28705,-0.2718 -0.42057,-0.35763c1.28745,-0.71525 2.33649,-1.6117 3.14711,-2.68935c0.81062,-1.07764 1.44481,-2.32504 1.90257,-3.7422c0.45776,-1.41524 0.78678,-2.97163 0.98705,-4.66916M234.56748,234.96551l1.20162,-0.71525c0.19073,0.20027 0.39768,0.42438 0.62084,0.67234c0.22507,0.24795 0.43773,0.48637 0.638,0.71525c0.20027,0.22888 0.36716,0.42915 0.50068,0.60081l-1.24454,0.81539c-0.11444,-0.1812 -0.2718,-0.39386 -0.47207,-0.638c-0.20027,-0.24223 -0.41008,-0.49019 -0.62942,-0.74386c-0.21934,-0.25177 -0.42438,-0.48733 -0.61512,-0.70667M226.9572,239.02813c-0.02861,-0.11444 -0.07439,-0.25558 -0.13733,-0.42343c-0.06104,-0.16594 -0.12207,-0.33951 -0.1831,-0.5207c-0.06294,-0.1812 -0.12302,-0.32902 -0.18024,-0.44346c0.1049,-0.03815 0.20504,-0.10776 0.30041,-0.20885c0.09537,-0.09918 0.19073,-0.22983 0.2861,-0.39196c0.05722,-0.09537 0.14782,-0.2718 0.2718,-0.52929c0.12398,-0.25749 0.25272,-0.56552 0.38624,-0.9241c0.13351,-0.35667 0.24319,-0.72097 0.32902,-1.0929l1.61647,0.2718c-0.11444,0.41008 -0.2594,0.82492 -0.43487,1.24454c-0.17738,0.41961 -0.35953,0.81539 -0.54645,1.18732c-0.18501,0.37193 -0.36335,0.69618 -0.53501,0.97274v0.02861c0,0 -0.06008,0.02575 -0.18024,0.07725c-0.11826,0.0534 -0.25654,0.12302 -0.41485,0.20885c-0.1564,0.08583 -0.29182,0.17643 -0.40626,0.2718c-0.11444,0.09537 -0.17166,0.18597 -0.17166,0.2718M226.9572,239.02813v-1.1444l0.92983,-0.62942h10.57142v1.47342h-9.99921c-0.40054,0 -0.73432,0.02575 -1.00135,0.07725c-0.26703,0.0534 -0.43392,0.12779 -0.50068,0.22316zM240.84739,235.36605h11.35819v1.35898h-11.35819v-1.35898M240.0463,238.6562h12.83161v1.37328h-12.83161v-1.37328M242.85009,243.40547h7.26695v1.17301h-7.26695v-1.17301M242.8644,245.7515h7.26695v1.28745h-7.26695v-1.28745M241.87735,241.03084h9.32688v6.49448h-1.61647v-5.22134h-6.17977v5.23564h-1.53064v-6.50879M248.78668,236.6535l1.7023,0.35763c-0.12398,0.26703 -0.24795,0.53119 -0.37193,0.7925c-0.12398,0.26321 -0.24795,0.51117 -0.37193,0.74386c-0.12398,0.2346 -0.23842,0.4425 -0.34332,0.6237l-1.45911,-0.35763c0.09537,-0.20027 0.19741,-0.42724 0.30613,-0.68092c0.11063,-0.25177 0.21362,-0.50926 0.30899,-0.77247c0.09537,-0.26131 0.17166,-0.49686 0.22888,-0.70667M242.66412,237.01112l1.50203,-0.30041c0.20027,0.29564 0.37384,0.62656 0.5207,0.99277c0.14877,0.36812 0.247,0.69046 0.29468,0.96702l-1.60216,0.37193c-0.03815,-0.2861 -0.12684,-0.61988 -0.26607,-1.00135c-0.13733,-0.38147 -0.28705,-0.72479 -0.44918,-1.02996M245.29625,234.27886l1.58786,-0.25749c0.17166,0.25749 0.32425,0.5455 0.45776,0.86402c0.13351,0.32043 0.22411,0.59986 0.2718,0.83827l-1.65938,0.32902c-0.03815,-0.24795 -0.11921,-0.53882 -0.24319,-0.87261c-0.12398,-0.33378 -0.26226,-0.63419 -0.41485,-0.90122zM254.32272,236.18143h6.73767v1.37328h-6.73767v-1.37328M255.83906,237.66916l1.30176,0.40054c-0.1812,0.43869 -0.391,0.88691 -0.62942,1.34467c-0.23842,0.45776 -0.48923,0.89168 -0.75244,1.30176c-0.26131,0.41008 -0.5207,0.77247 -0.77819,1.08718c-0.06676,-0.07629 -0.16498,-0.17643 -0.29468,-0.30041c-0.12779,-0.12398 -0.25844,-0.24605 -0.39196,-0.36621c-0.13351,-0.11826 -0.25272,-0.21553 -0.35763,-0.29182c0.36239,-0.41008 0.71239,-0.90122 1.04999,-1.47342c0.33951,-0.5722 0.6237,-1.13963 0.85258,-1.7023M258.17077,239.94366l1.45911,0.25749c-0.41961,1.56402 -1.00898,2.9373 -1.7681,4.11985c-0.75721,1.18255 -1.69372,2.15052 -2.80951,2.90392c-0.06676,-0.1049 -0.16212,-0.22888 -0.2861,-0.37193c-0.12398,-0.14305 -0.25558,-0.28419 -0.39482,-0.42343c-0.13733,-0.13733 -0.25368,-0.24891 -0.34904,-0.33474c1.05857,-0.62942 1.93309,-1.47151 2.62354,-2.52627c0.69236,-1.05285 1.20067,-2.26115 1.52492,-3.62489M258.21369,238.18414l1.1301,-0.61512c0.22888,0.27656 0.45776,0.57411 0.68664,0.89263c0.22888,0.32043 0.43583,0.638 0.62084,0.95271c0.18692,0.31471 0.32806,0.60081 0.42343,0.8583l-1.21593,0.68664c-0.07629,-0.25749 -0.20313,-0.54645 -0.38051,-0.86688c-0.17548,-0.31853 -0.37288,-0.64754 -0.59223,-0.98705c-0.21934,-0.3376 -0.44346,-0.64468 -0.67234,-0.92124M255.43851,241.27402l1.11579,-0.81539c0.35286,0.35286 0.72193,0.72956 1.10721,1.1301c0.38719,0.40054 0.75912,0.81062 1.11579,1.23023c0.35858,0.41961 0.68569,0.82683 0.98132,1.22165c0.29564,0.39673 0.54359,0.76198 0.74386,1.09577l-1.23023,0.95844c-0.17166,-0.33378 -0.40054,-0.70381 -0.68664,-1.11007c-0.2861,-0.40436 -0.60558,-0.82397 -0.95844,-1.25884c-0.35286,-0.43297 -0.71716,-0.85926 -1.0929,-1.27887c-0.37765,-0.41961 -0.74291,-0.81062 -1.09577,-1.17301M262.54811,236.69641h4.76357v1.4305h-4.76357v-1.4305M262.69116,234.15012l1.4305,0.22888c-0.16212,0.97274 -0.36525,1.92355 -0.60939,2.85242c-0.24223,0.93078 -0.53787,1.79385 -0.88691,2.58921c-0.34714,0.79727 -0.74958,1.50107 -1.20734,2.11142c-0.05722,-0.1049 -0.14305,-0.23365 -0.25749,-0.38624c-0.11444,-0.15259 -0.23651,-0.30517 -0.36621,-0.45776c-0.12779,-0.15259 -0.24414,-0.27656 -0.34904,-0.37193c0.40054,-0.51498 0.74386,-1.11865 1.02996,-1.81102c0.2861,-0.69046 0.52929,-1.44099 0.72956,-2.25161c0.20027,-0.81062 0.36239,-1.64508 0.48637,-2.50338M265.18024,237.66916l1.45911,0.17166c-0.22888,1.63077 -0.57506,3.06795 -1.03855,4.31154c-0.46158,1.24549 -1.0786,2.3136 -1.85107,3.20433c-0.77247,0.89263 -1.74045,1.63459 -2.90392,2.22586c-0.06676,-0.09537 -0.16212,-0.21267 -0.2861,-0.3519c-0.12398,-0.13733 -0.25558,-0.28038 -0.39482,-0.42915c-0.13733,-0.14687 -0.26321,-0.26321 -0.37765,-0.34904c1.1444,-0.49591 2.079,-1.14726 2.80379,-1.95407c0.72479,-0.8049 1.29222,-1.77287 1.7023,-2.90392c0.41008,-1.12914 0.70571,-2.43758 0.88691,-3.9253M262.89143,238.85647c0.23842,1.07764 0.56934,2.09807 0.99277,3.06128c0.42534,0.9632 0.94318,1.82151 1.55353,2.57491c0.61035,0.7534 1.31606,1.35421 2.11714,1.80243c-0.11444,0.09537 -0.24128,0.21648 -0.38051,0.36335c-0.13733,0.14877 -0.26607,0.29945 -0.38624,0.45204c-0.11826,0.15259 -0.21553,0.29564 -0.29182,0.42915c-0.84876,-0.54359 -1.58786,-1.23309 -2.21728,-2.06851c-0.62942,-0.83351 -1.16348,-1.78717 -1.60216,-2.86101c-0.43869,-1.07192 -0.80108,-2.223 -1.08718,-3.45323l1.30176,-0.30041M256.39695,234.59358l1.31606,-0.47207c0.19073,0.25749 0.37384,0.5455 0.54931,0.86402c0.17738,0.32043 0.30899,0.59509 0.39482,0.82397l-1.37328,0.5579c-0.06676,-0.24795 -0.18597,-0.53691 -0.35763,-0.86688c-0.17166,-0.32806 -0.34809,-0.63038 -0.52929,-0.90694z" fill="#ffffff" fill-rule="nonzero" stroke-linecap="butt" stroke-linejoin="miter"/><path d="M151.91055,269.23756l0.79185,1.10293c-0.50905,0.10369 -1.07182,0.19513 -1.68833,0.27432c-0.6184,0.08107 -1.26224,0.15177 -1.93154,0.2121c-0.6693,0.06222 -1.3386,0.11218 -2.0079,0.14989c-0.6693,0.03771 -1.31975,0.06599 -1.95134,0.08484c-0.01885,-0.16025 -0.06127,-0.3469 -0.12726,-0.55995c-0.06599,-0.21116 -0.13197,-0.38744 -0.19796,-0.52884c0.61274,-0.02828 1.24433,-0.0641 1.89478,-0.10747c0.65045,-0.04148 1.29147,-0.09521 1.92306,-0.1612c0.63159,-0.06599 1.23019,-0.13669 1.7958,-0.2121c0.56561,-0.07541 1.06522,-0.16025 1.49886,-0.25452M144.71322,272.74432h8.49823v1.23019h-8.49823v-1.23019M148.19169,270.15667h1.37159v6.30651h-1.37159v-6.30651M148.20583,277.25503h1.25847v4.12892h-1.25847v-4.12892M145.64647,271.34444l1.20191,-0.36764c0.12255,0.23567 0.25169,0.49491 0.38744,0.77771c0.13763,0.2828 0.23944,0.52319 0.30543,0.72115l-1.25847,0.4242c-0.05656,-0.20739 -0.14611,-0.46003 -0.26866,-0.75791c-0.12255,-0.296 -0.2451,-0.56183 -0.36764,-0.7975M151.06214,270.72228l1.30089,0.3535c-0.20739,0.40535 -0.41666,0.80787 -0.62782,1.20757c-0.21305,0.40158 -0.41384,0.74377 -0.60237,1.02657l-1.11707,-0.33936c0.12255,-0.20739 0.24981,-0.44117 0.38178,-0.70135c0.13197,-0.25829 0.25641,-0.52413 0.3733,-0.7975c0.11878,-0.27338 0.21587,-0.52319 0.29129,-0.74943M147.48469,273.45133l1.17363,0.41006c-0.26395,0.47134 -0.59389,0.91911 -0.98981,1.34331c-0.39592,0.4242 -0.82484,0.80787 -1.28675,1.15101c-0.46191,0.34502 -0.93796,0.62594 -1.42815,0.84275c-0.10369,-0.16025 -0.2451,-0.35162 -0.4242,-0.57409c-0.17911,-0.22059 -0.34408,-0.39687 -0.49491,-0.52884c0.45248,-0.16025 0.89837,-0.37707 1.33766,-0.65045c0.4374,-0.27338 0.83992,-0.57975 1.20757,-0.91911c0.36764,-0.33936 0.6693,-0.69758 0.90497,-1.07465M150.32686,273.45133c0.23567,0.33936 0.53261,0.67119 0.89083,0.99547c0.35822,0.32617 0.74754,0.62122 1.16798,0.88517c0.41855,0.26395 0.83992,0.48077 1.26413,0.65045c-0.15083,0.12255 -0.31768,0.29223 -0.50056,0.50905c-0.18477,0.21682 -0.33371,0.41478 -0.44683,0.59389c-0.43363,-0.22624 -0.86915,-0.50716 -1.30655,-0.84275c-0.43929,-0.33371 -0.85218,-0.70324 -1.23868,-1.10859c-0.3865,-0.40535 -0.71172,-0.82013 -0.97567,-1.24433l1.14535,-0.43834M145.3778,276.70356h7.14077v5.57122h-1.41401v-4.45415h-4.38345v4.52485h-1.34331v-5.64192M146.29691,278.7256h5.20357v1.06051h-5.20357v-1.06051M146.29691,280.70522h5.18943v1.08879h-5.18943v-1.08879M140.08939,276.51974c0.54675,-0.15083 1.20663,-0.35633 1.97962,-0.61651c0.773,-0.25829 1.5507,-0.52413 2.33312,-0.7975l0.24038,1.35745c-0.72586,0.27338 -1.46115,0.54204 -2.20586,0.80599c-0.74471,0.26395 -1.43287,0.50433 -2.06446,0.72115l-0.2828,-1.47058M140.31563,271.89591h4.31275v1.39987h-4.31275v-1.39987M141.88519,269.181h1.39987v11.5525c0,0.35822 -0.03959,0.64291 -0.11878,0.85406c-0.08107,0.21305 -0.2253,0.38084 -0.43269,0.50339c-0.19796,0.12255 -0.44966,0.20267 -0.75508,0.24038c-0.30731,0.03771 -0.69192,0.05185 -1.15384,0.04242c-0.00943,-0.17911 -0.05373,-0.40818 -0.13292,-0.68721c-0.08107,-0.27715 -0.16874,-0.5147 -0.26301,-0.71266c0.27338,0.00943 0.52319,0.01414 0.74943,0.01414c0.22624,0 0.38178,-0.00471 0.46662,-0.01414c0.08484,0 0.14611,-0.01414 0.18382,-0.04242c0.03771,-0.02828 0.05656,-0.09427 0.05656,-0.19796zM160.84713,274.5684h5.18943v1.37159h-5.18943v-1.37159M162.68535,275.37439c0.29223,0.82956 0.67119,1.61669 1.13687,2.3614c0.46757,0.74471 1.02469,1.40176 1.67137,1.97114c0.64479,0.57126 1.36311,1.02186 2.15496,1.3518c-0.11312,0.09427 -0.23567,0.2187 -0.36764,0.3733c-0.13197,0.15648 -0.25641,0.31485 -0.3733,0.47511c-0.11878,0.16025 -0.21587,0.30637 -0.29129,0.43834c-0.84841,-0.40535 -1.60444,-0.93796 -2.26808,-1.59784c-0.66553,-0.65987 -1.24528,-1.41684 -1.73924,-2.27091c-0.49585,-0.85218 -0.90874,-1.77789 -1.23868,-2.77713l1.31503,-0.32522M165.65478,274.5684h0.2828l0.2828,-0.04242l0.96153,0.29694c-0.18853,1.14064 -0.50245,2.19361 -0.94173,3.15891c-0.4374,0.96719 -0.99735,1.82502 -1.67985,2.57351c-0.68438,0.75037 -1.50263,1.37065 -2.45473,1.86084c-0.11312,-0.17911 -0.26866,-0.3799 -0.46662,-0.60237c-0.19796,-0.22059 -0.3865,-0.40158 -0.56561,-0.54298c0.65987,-0.31108 1.24905,-0.68627 1.76752,-1.12556c0.51847,-0.4374 0.96813,-0.93231 1.34897,-1.48472c0.38273,-0.55052 0.69664,-1.1463 0.94173,-1.78731c0.2451,-0.64102 0.41949,-1.31032 0.52319,-2.0079v-0.29694M165.27299,269.66177h1.55542c0,0 -0.00188,0.07259 -0.00566,0.21776c-0.00566,0.14706 -0.0132,0.26772 -0.02262,0.36199c-0.02828,0.99924 -0.08201,1.73924 -0.1612,2.22c-0.08107,0.48077 -0.20645,0.8107 -0.37613,0.98981c-0.15083,0.16968 -0.32711,0.28469 -0.52884,0.34502c-0.20362,0.06222 -0.43269,0.10747 -0.68721,0.13575c-0.2451,0.00943 -0.56749,0.01414 -0.96719,0.01414c-0.40158,0 -0.82861,-0.00943 -1.2811,-0.02828c-0.00943,-0.18853 -0.04902,-0.40064 -0.11878,-0.63631c-0.07164,-0.23567 -0.15931,-0.43834 -0.26301,-0.60803c0.2828,0.01885 0.55429,0.03488 0.81447,0.04808c0.25829,0.01508 0.48925,0.02451 0.69287,0.02828c0.20173,0.00566 0.35445,0.00848 0.45814,0.00848c0.1414,0 0.25452,-0.00754 0.33936,-0.02262c0.08484,-0.0132 0.16025,-0.04808 0.22624,-0.10464c0.06599,-0.07541 0.11783,-0.21493 0.15554,-0.41855c0.03771,-0.20173 0.0707,-0.49396 0.09898,-0.87669c0.02828,-0.38084 0.05185,-0.86821 0.0707,-1.46209v-0.2121M154.2861,276.4349c0.43363,-0.09427 0.92194,-0.20739 1.46492,-0.33936c0.5411,-0.13197 1.11047,-0.27338 1.70813,-0.4242c0.59954,-0.15083 1.19626,-0.30637 1.79014,-0.46662l0.18382,1.47058c-0.82013,0.23567 -1.64968,0.46851 -2.48867,0.69852c-0.83898,0.2319 -1.60726,0.4374 -2.30484,0.61651l-0.3535,-1.55542M154.48406,271.91005h4.82179v1.47058h-4.82179v-1.47058M156.33642,269.16686h1.54128v11.46766c0,0.40535 -0.04902,0.71832 -0.14706,0.93891c-0.09992,0.22247 -0.27243,0.39027 -0.51753,0.50339c-0.2451,0.12255 -0.55806,0.19985 -0.93891,0.2319c-0.38273,0.03394 -0.85689,0.0509 -1.4225,0.0509c-0.02828,-0.19796 -0.08767,-0.43834 -0.17817,-0.72115c-0.08861,-0.2828 -0.18477,-0.52319 -0.28846,-0.72115c0.34879,0.00943 0.68156,0.01414 0.99829,0.01414c0.31485,0 0.52413,0 0.62782,0c0.12255,0 0.20739,-0.02168 0.25452,-0.06504c0.04713,-0.04148 0.0707,-0.12349 0.0707,-0.24604v-11.45352M159.77248,269.66177h5.96714v1.41401h-4.46829v11.24142h-1.49886zM168.63835,271.75451h4.31275v1.41401h-4.31275v-1.41401M170.34931,269.16686h1.38573v13.19276h-1.38573v-13.19276M170.32103,272.7726l0.83427,0.31108c-0.08484,0.54675 -0.19513,1.11707 -0.33088,1.71096c-0.13763,0.59389 -0.29129,1.17552 -0.46097,1.74489c-0.16968,0.57126 -0.35539,1.10199 -0.55712,1.59218c-0.20362,0.49019 -0.41855,0.90968 -0.64479,1.25847c-0.04713,-0.15083 -0.11029,-0.31862 -0.18948,-0.50339c-0.08107,-0.18288 -0.16591,-0.3667 -0.25452,-0.55147c-0.0905,-0.18288 -0.17817,-0.34031 -0.26301,-0.47228c0.20739,-0.29223 0.40535,-0.63913 0.59389,-1.04071c0.18853,-0.3997 0.36576,-0.82861 0.53167,-1.28675c0.16403,-0.45626 0.31014,-0.92288 0.43834,-1.39987c0.12632,-0.47511 0.22719,-0.92948 0.3026,-1.36311M171.67848,273.59273c0.07541,0.09427 0.19136,0.25641 0.34785,0.48642c0.1546,0.2319 0.32428,0.48454 0.50905,0.75791c0.18288,0.27338 0.34973,0.52507 0.50056,0.75508c0.15083,0.2319 0.25452,0.3997 0.31108,0.50339l-0.87669,1.03223c-0.07541,-0.18853 -0.17628,-0.41949 -0.3026,-0.69287c-0.1282,-0.27338 -0.26489,-0.55618 -0.41006,-0.84841c-0.14706,-0.29223 -0.28846,-0.56843 -0.4242,-0.82861c-0.13763,-0.25829 -0.25358,-0.46757 -0.34785,-0.62782l0.69287,-0.53733M177.43352,269.60521c0.23567,0.32994 0.52601,0.6693 0.87103,1.01809c0.34313,0.34879 0.71266,0.69004 1.10859,1.02375c0.39592,0.33559 0.80599,0.64479 1.23019,0.92759c0.4242,0.2828 0.83427,0.5279 1.23019,0.73529c-0.08484,0.12255 -0.17439,0.27055 -0.26866,0.444c-0.09427,0.17534 -0.18099,0.35256 -0.26018,0.53167c-0.08107,0.17911 -0.14517,0.33936 -0.19231,0.48077c-0.57503,-0.36764 -1.16138,-0.79656 -1.75903,-1.28675c-0.59954,-0.49019 -1.16515,-1.00866 -1.69682,-1.55542c-0.53355,-0.54675 -0.98887,-1.06994 -1.36594,-1.56956l1.10293,-0.74943M176.72651,269.02546l1.31503,0.49491c-0.37707,0.70701 -0.82956,1.39705 -1.35745,2.07012c-0.5279,0.67496 -1.09068,1.29995 -1.68833,1.87498c-0.59954,0.57503 -1.20568,1.07465 -1.81842,1.49886c-0.05656,-0.10369 -0.13669,-0.23378 -0.24038,-0.39027c-0.10369,-0.1546 -0.2121,-0.31203 -0.32522,-0.47228c-0.11312,-0.16025 -0.2121,-0.28752 -0.29694,-0.38178c0.57503,-0.35822 1.13875,-0.78242 1.69116,-1.27261c0.55052,-0.49019 1.06145,-1.02752 1.53279,-1.61198c0.47134,-0.58446 0.86726,-1.18777 1.18777,-1.80994M174.64791,273.50789h4.96319v1.28675h-4.96319v-1.28675M173.62982,276.20865l1.17363,-0.31108c0.12255,0.35822 0.24038,0.74 0.3535,1.14535c0.11312,0.40535 0.21682,0.80128 0.31108,1.18777c0.09427,0.3865 0.16025,0.73057 0.19796,1.03223l-1.23019,0.33936c-0.03771,-0.31108 -0.09898,-0.65987 -0.18382,-1.04637c-0.08484,-0.3865 -0.18099,-0.78714 -0.28846,-1.20191c-0.10935,-0.41478 -0.22059,-0.79656 -0.33371,-1.14535M176.33059,275.79859l1.17363,-0.16968c0.09427,0.35822 0.18194,0.73717 0.26301,1.13687c0.07918,0.40158 0.15177,0.79279 0.21776,1.17363c0.06599,0.38273 0.10841,0.72492 0.12726,1.02657l-1.23019,0.19796c-0.01885,-0.30166 -0.05656,-0.64856 -0.11312,-1.04071c-0.05656,-0.39027 -0.12255,-0.78808 -0.19796,-1.19343c-0.07541,-0.40535 -0.15554,-0.78242 -0.24038,-1.13121M179.78079,275.62891l1.32917,0.29694c-0.22624,0.56561 -0.47134,1.15666 -0.73529,1.77317c-0.26395,0.6184 -0.53261,1.2104 -0.80599,1.776c-0.27338,0.56561 -0.53261,1.06051 -0.77771,1.48472l-1.08879,-0.31108c0.18853,-0.32994 0.3799,-0.70229 0.57409,-1.11707c0.19231,-0.41478 0.38273,-0.85124 0.57126,-1.30938c0.18853,-0.45626 0.36293,-0.90591 0.52319,-1.34897c0.16025,-0.44306 0.29694,-0.85784 0.41006,-1.24433M172.93695,280.43656h8.41339v1.32917h-8.41339zM190.48488,279.47503h3.97338v1.42815h-3.97338v-1.42815M189.82029,270.39705h5.33084v11.38282h-1.54128v-9.9688h-2.31898v10.15263h-1.47058v-11.56664M185.46512,271.66967h1.52714v2.75733c0,0.60331 -0.03959,1.25565 -0.11878,1.957c-0.08107,0.70324 -0.24227,1.41024 -0.48359,2.12102c-0.23944,0.71266 -0.57786,1.39893 -1.01526,2.05881c-0.43929,0.65987 -1.01715,1.24905 -1.73358,1.76752c-0.06599,-0.10369 -0.16497,-0.23096 -0.29694,-0.38178c-0.13197,-0.15083 -0.26866,-0.29977 -0.41006,-0.44683c-0.1414,-0.14517 -0.26395,-0.25075 -0.36764,-0.31674c0.65987,-0.47134 1.18306,-0.98793 1.56956,-1.54976c0.3865,-0.55995 0.67401,-1.14441 0.86255,-1.75338c0.18853,-0.60708 0.31391,-1.20757 0.37613,-1.80145c0.06033,-0.59389 0.0905,-1.15006 0.0905,-1.66854v-2.74319M184.22079,270.99094h4.83593v1.41401h-4.83593v-1.41401M182.75022,274.80878h6.67415v1.42815h-6.67415v-1.42815M186.59634,276.76012c0.12255,0.09427 0.2828,0.24981 0.48077,0.46662c0.19796,0.21682 0.41761,0.4572 0.65893,0.72115c0.23944,0.26395 0.47982,0.5279 0.72115,0.79185c0.23944,0.26395 0.45154,0.5015 0.63631,0.71266c0.18288,0.21305 0.31674,0.37142 0.40158,0.47511l-1.01809,1.28675c-0.13197,-0.19796 -0.2894,-0.42232 -0.47228,-0.67307c-0.18477,-0.24887 -0.38273,-0.51282 -0.59389,-0.79185c-0.21305,-0.27715 -0.42515,-0.54769 -0.63631,-0.81164c-0.21305,-0.26395 -0.41572,-0.51187 -0.60803,-0.74377c-0.19419,-0.23001 -0.35727,-0.42515 -0.48925,-0.5854l0.91911,-0.84841M184.15009,269.16686l1.45644,0.29694c-0.12255,0.62217 -0.27809,1.23208 -0.46662,1.82974c-0.18853,0.59954 -0.40064,1.16326 -0.63631,1.69116c-0.23567,0.5279 -0.49019,0.99452 -0.76357,1.39987c-0.09427,-0.08484 -0.21399,-0.18194 -0.35916,-0.29129c-0.14706,-0.10747 -0.30071,-0.21776 -0.46097,-0.33088c-0.16025,-0.11312 -0.29694,-0.19796 -0.41006,-0.25452c0.39592,-0.5279 0.73057,-1.17835 1.00395,-1.95134c0.27338,-0.773 0.48548,-1.56956 0.63631,-2.38969zM205.14821,269.16686h1.42815v9.94052h-1.42815v-9.94052M200.87789,274.89362l7.40944,-3.13911l0.56561,1.30089l-7.40944,3.18153l-0.56561,-1.34331M202.32018,270.52431h1.4423v9.24766c0,0.26395 0.02357,0.4638 0.0707,0.59954c0.04713,0.13763 0.14611,0.23001 0.29694,0.27715c0.15083,0.04713 0.37236,0.0707 0.66459,0.0707c0.08484,0 0.22436,0 0.41855,0c0.19231,0 0.41101,0 0.6561,0c0.2451,0 0.49302,0 0.74377,0c0.24887,0 0.47511,0 0.67873,0c0.20173,0 0.34973,0 0.444,0c0.26395,0 0.46191,-0.04996 0.59389,-0.14989c0.13197,-0.09804 0.23096,-0.27903 0.29694,-0.54298c0.06599,-0.26395 0.11312,-0.64573 0.1414,-1.14535c0.16968,0.12255 0.38461,0.23567 0.64479,0.33936c0.25829,0.10369 0.49113,0.17439 0.69852,0.2121c-0.06599,0.6693 -0.17439,1.19437 -0.32522,1.57521c-0.15083,0.38273 -0.37707,0.6561 -0.67873,0.82013c-0.30166,0.16591 -0.72115,0.24887 -1.25847,0.24887c-0.09427,0 -0.24698,0 -0.45814,0c-0.21305,0 -0.45626,0 -0.72963,0c-0.27338,0 -0.54392,0 -0.81164,0c-0.26961,0 -0.50999,0 -0.72115,0c-0.21305,0 -0.36199,0 -0.44683,0c-0.60331,0 -1.07936,-0.06599 -1.42815,-0.19796c-0.34879,-0.13197 -0.59106,-0.36576 -0.7268,-0.70135c-0.13763,-0.33371 -0.20645,-0.80693 -0.20645,-1.41967v-9.23352M208.00452,271.92419h-0.11312l0.2828,-0.2121l0.2828,-0.18382l1.04637,0.38178l-0.05656,0.25452c0,0.6693 -0.00188,1.28393 -0.00566,1.84388c-0.00566,0.56183 -0.01037,1.05957 -0.01414,1.4932c-0.00566,0.43363 -0.01508,0.79656 -0.02828,1.08879c-0.01508,0.29223 -0.03205,0.50905 -0.0509,0.65045c-0.02828,0.32051 -0.10369,0.56749 -0.22624,0.74094c-0.12255,0.17534 -0.29694,0.30071 -0.52319,0.37613c-0.19796,0.08484 -0.4308,0.13386 -0.69852,0.14706c-0.26961,0.01508 -0.51282,0.02262 -0.72963,0.02262c-0.01885,-0.18853 -0.05845,-0.40818 -0.11878,-0.65893c-0.06222,-0.24887 -0.13103,-0.45343 -0.20645,-0.61368c0.13197,0.00943 0.27338,0.01414 0.4242,0.01414c0.15083,0 0.25924,0 0.32522,0c0.09427,0 0.16968,-0.02168 0.22624,-0.06504c0.05656,-0.04148 0.09427,-0.1282 0.11312,-0.26018c0.01885,-0.07541 0.03299,-0.2385 0.04242,-0.48925c0.00943,-0.24887 0.01697,-0.58069 0.02262,-0.99547c0.00377,-0.41478 0.00566,-0.91722 0.00566,-1.50734c0,-0.58823 0,-1.26413 0,-2.0277M196.84794,272.4898h4.62383v1.42815h-4.62383v-1.42815M198.54476,269.35068h1.42815v9.31836h-1.42815v-9.31836M196.67826,278.78216c0.3865,-0.1414 0.8371,-0.31391 1.3518,-0.51753c0.51282,-0.20173 1.05486,-0.42326 1.62612,-0.66459c0.56938,-0.23944 1.14158,-0.47699 1.71661,-0.71266l0.33936,1.34331c-0.75414,0.36764 -1.5196,0.73246 -2.29636,1.09445c-0.77865,0.36387 -1.48849,0.69192 -2.12951,0.98415zM220.68823,271.79693l1.42815,0.57975c-0.60331,0.99924 -1.30089,1.95605 -2.09274,2.87045c-0.79185,0.9144 -1.63272,1.75526 -2.5226,2.5226c-0.89177,0.76922 -1.79014,1.44135 -2.69511,2.01639c-0.08484,-0.10369 -0.19796,-0.23096 -0.33936,-0.38178c-0.1414,-0.15083 -0.28752,-0.29694 -0.43834,-0.43834c-0.15083,-0.1414 -0.28752,-0.25452 -0.41006,-0.33936c0.93325,-0.51847 1.83822,-1.13121 2.71491,-1.83822c0.87669,-0.70701 1.68739,-1.48472 2.43211,-2.33312c0.74471,-0.84841 1.38573,-1.73453 1.92306,-2.65835M214.18377,273.16852l1.06051,-0.90497c0.60331,0.47134 1.24622,0.98227 1.92872,1.53279c0.68438,0.55241 1.36311,1.11613 2.03618,1.69116c0.67496,0.57503 1.30466,1.1331 1.88912,1.67419c0.58446,0.54298 1.07465,1.036 1.47058,1.47906l-1.18777,1.13121c-0.36764,-0.45248 -0.83427,-0.95493 -1.39987,-1.50734c-0.56561,-0.55052 -1.17835,-1.12556 -1.83822,-1.7251c-0.65987,-0.59766 -1.32917,-1.184 -2.0079,-1.75903c-0.67873,-0.57503 -1.32917,-1.11236 -1.95134,-1.61198M223.62938,269.83145v1.45644h-10.43543v9.21938h10.81721v1.45644h-12.30193v-12.13225z" fill="#ffffff" fill-rule="nonzero" stroke-linecap="butt" stroke-linejoin="miter"/><path d="M141.21289,310.29963h3.98541v1.13464h-3.98541v-1.13464M141.21289,312.82419h3.98541v1.09209h-3.98541v-1.09209M141.21289,315.36294h3.98541v1.13464h-3.98541v-1.13464M141.93622,307.97362h2.38274v1.19137h-2.38274v-1.19137M142.7021,310.88113h1.0779v8.5665h-1.0779v-8.5665M141.69511,306.65461l1.37575,0.29784c-0.24584,0.98335 -0.5815,1.91943 -1.00699,2.80822c-0.42549,0.8888 -0.8888,1.63577 -1.38993,2.24091c-0.07564,-0.0851 -0.18154,-0.18438 -0.3177,-0.29784c-0.13805,-0.11346 -0.27988,-0.22693 -0.42549,-0.34039c-0.1475,-0.11346 -0.27326,-0.20329 -0.37727,-0.26948c0.49168,-0.52004 0.92189,-1.17529 1.29065,-1.96576c0.36876,-0.78857 0.65242,-1.61307 0.85098,-2.47351M140.58884,310.29963h1.23392v3.77266c0,0.43494 -0.01135,0.9096 -0.03404,1.42397c-0.02458,0.51626 -0.0747,1.03914 -0.15034,1.56863c-0.07564,0.5295 -0.18154,1.04008 -0.3177,1.53176c-0.13805,0.49168 -0.32053,0.93607 -0.54746,1.3332c-0.07564,-0.07564 -0.18249,-0.15412 -0.32053,-0.23544c-0.13616,-0.07942 -0.27515,-0.16169 -0.41698,-0.24678c-0.14183,-0.0851 -0.26002,-0.14656 -0.35457,-0.18438c0.2742,-0.50113 0.4756,-1.05237 0.60419,-1.65373c0.1267,-0.59947 0.20896,-1.20933 0.24678,-1.8296c0.03782,-0.61838 0.05673,-1.18759 0.05673,-1.70763v-3.77266M144.67353,310.29963h1.19137v8.0701c0,0.25529 -0.02364,0.47466 -0.07091,0.65809c-0.04728,0.18532 -0.15129,0.32999 -0.31202,0.434c-0.15129,0.10401 -0.32337,0.17209 -0.51626,0.20423c-0.19478,0.03404 -0.42927,0.05106 -0.70347,0.05106c-0.01891,-0.17965 -0.06808,-0.3905 -0.1475,-0.63256c-0.08132,-0.24016 -0.1598,-0.43589 -0.23544,-0.58717c0.15129,0.00946 0.28839,0.01418 0.41131,0.01418c0.12292,0 0.20802,-0.00473 0.25529,-0.01418c0.0851,0 0.12765,-0.052 0.12765,-0.15601v-8.04173M143.97856,307.97362h0.28366l0.21274,-0.05673l0.87934,0.55313c-0.16074,0.4444 -0.36403,0.91716 -0.60987,1.41829c-0.24584,0.50113 -0.47749,0.92662 -0.69496,1.27647c-0.13237,-0.09455 -0.29028,-0.19856 -0.47371,-0.31202c-0.18532,-0.11346 -0.35363,-0.20329 -0.50491,-0.26948c0.12292,-0.22693 0.24395,-0.48033 0.36308,-0.76021c0.11725,-0.27799 0.22314,-0.56164 0.3177,-0.85098c0.09455,-0.28744 0.1702,-0.5399 0.22693,-0.75737v-0.24111M150.47435,315.88771l1.19137,-0.38294c0.20802,0.41603 0.40658,0.8557 0.59568,1.31901c0.18911,0.46331 0.35174,0.91244 0.48789,1.34738c0.13805,0.43494 0.23071,0.82261 0.27799,1.163l-1.29065,0.43967c-0.04728,-0.33093 -0.13237,-0.72144 -0.25529,-1.17151c-0.12292,-0.44818 -0.27137,-0.90865 -0.44534,-1.38142c-0.17587,-0.47276 -0.36308,-0.91716 -0.56164,-1.3332M145.96418,317.81659c0.50113,-0.04728 1.07601,-0.10401 1.72465,-0.1702c0.64674,-0.06619 1.33131,-0.13994 2.05369,-0.22125c0.72428,-0.07942 1.45044,-0.15696 2.1785,-0.2326l0.02837,1.34738c-0.67133,0.09455 -1.34738,0.18438 -2.02816,0.26948c-0.68078,0.0851 -1.33509,0.16736 -1.96292,0.24678c-0.62972,0.08132 -1.20933,0.15507 -1.73883,0.22125l-0.25529,-1.46084M147.62358,310.52655v3.09188h3.43227v-3.09188h-3.43227M146.40385,309.26427h5.91429v5.63063h-5.91429v-5.63063M148.51711,306.71134h1.58849v3.31881h-1.58849v-3.31881M148.6873,310.03015h1.27647v3.87194h0.12765v4.52436h-1.53176v-4.52436h0.12765zM159.39543,312.9802c0.61459,1.47503 1.57431,2.6872 2.87914,3.63651c1.30483,0.9512 2.95478,1.60173 4.94985,1.95157c-0.10401,0.10401 -0.21747,0.23827 -0.34039,0.4028c-0.12292,0.16641 -0.23827,0.33472 -0.34606,0.50491c-0.10968,0.1702 -0.19762,0.32621 -0.2638,0.46804c-1.38047,-0.29311 -2.59264,-0.73089 -3.63651,-1.31334c-1.04576,-0.58055 -1.94212,-1.3105 -2.68909,-2.18985c-0.74697,-0.87934 -1.36629,-1.90524 -1.85797,-3.0777l1.30483,-0.38294M164.13253,312.45544h0.29784l0.28366,-0.05673l1.06372,0.48222c-0.33093,1.00226 -0.76588,1.88822 -1.30483,2.65788c-0.53895,0.77155 -1.163,1.44099 -1.87215,2.00831c-0.70915,0.56732 -1.48637,1.04481 -2.33168,1.43248c-0.84719,0.38767 -1.74356,0.70442 -2.68909,0.95026c-0.0851,-0.19856 -0.20613,-0.42833 -0.36308,-0.68929c-0.15507,-0.25908 -0.30352,-0.47371 -0.44534,-0.64391c0.85098,-0.17965 1.66697,-0.43967 2.44798,-0.78006c0.77912,-0.34039 1.49299,-0.7517 2.14163,-1.23392c0.64674,-0.48222 1.2065,-1.04765 1.67926,-1.69628c0.47276,-0.64674 0.83679,-1.37196 1.09209,-2.17566v-0.25529M158.91321,312.45544h5.44625v1.47503h-5.87174l0.42549,-1.47503M159.69327,306.58369l1.70195,0.28366c-0.18911,1.38993 -0.44156,2.68058 -0.75737,3.87194c-0.3177,1.19137 -0.72995,2.28535 -1.23675,3.28193c-0.50491,0.99848 -1.13085,1.89673 -1.87782,2.69476c-0.74697,0.79992 -1.64522,1.49772 -2.69476,2.0934c-0.06619,-0.11346 -0.16358,-0.24867 -0.29217,-0.40563c-0.1267,-0.15507 -0.26286,-0.30824 -0.40847,-0.45953c-0.1475,-0.15129 -0.28744,-0.26948 -0.41982,-0.35457c1.27647,-0.70915 2.31655,-1.59795 3.12025,-2.66639c0.8037,-1.06845 1.43248,-2.3052 1.88633,-3.71026c0.45385,-1.40317 0.78006,-2.94627 0.97862,-4.62931M162.88443,307.46304l1.19137,-0.70915c0.18911,0.19856 0.39523,0.42076 0.61838,0.6666c0.22125,0.24584 0.43116,0.48222 0.62972,0.70915c0.19856,0.22693 0.36403,0.42549 0.4964,0.59568l-1.23392,0.80843c-0.11346,-0.17965 -0.26948,-0.3905 -0.46804,-0.63256c-0.19856,-0.24016 -0.40658,-0.486 -0.62405,-0.73751c-0.21747,-0.24962 -0.42076,-0.48317 -0.60987,-0.70064M155.3391,311.49099c-0.02837,-0.11346 -0.07375,-0.2534 -0.13616,-0.41982c-0.06051,-0.16452 -0.12197,-0.33661 -0.18438,-0.51626c-0.06051,-0.17965 -0.11914,-0.32621 -0.17587,-0.43967c0.10401,-0.03782 0.20329,-0.10684 0.29784,-0.20707c0.09455,-0.09833 0.18911,-0.22787 0.28366,-0.38861c0.05673,-0.09455 0.14656,-0.26948 0.26948,-0.52477c0.12292,-0.25529 0.25057,-0.5607 0.38294,-0.91622c0.13237,-0.35363 0.24111,-0.71482 0.32621,-1.08358l1.60267,0.26948c-0.11346,0.40658 -0.25813,0.81788 -0.434,1.23392c-0.17398,0.41603 -0.35268,0.80843 -0.53612,1.17718c-0.18532,0.36876 -0.36308,0.69024 -0.53328,0.96444v0.02837c0,0 -0.05862,0.02553 -0.17587,0.07659c-0.11914,0.05295 -0.25718,0.12197 -0.41414,0.20707c-0.15507,0.0851 -0.28933,0.17492 -0.4028,0.26948c-0.11346,0.09455 -0.1702,0.18438 -0.1702,0.26948M155.3391,311.49099v-1.13464l0.92189,-0.62405h10.4812v1.46084h-9.91388c-0.39712,0 -0.72806,0.02553 -0.99281,0.07659c-0.26475,0.05295 -0.43022,0.1267 -0.4964,0.22125zM169.11075,307.86016h11.26126v1.34738h-11.26126v-1.34738M168.3165,311.12224h12.7221v1.36156h-12.7221v-1.36156M171.09636,315.83098h7.20494v1.163h-7.20494v-1.163M171.11054,318.15698h7.20494v1.27647h-7.20494v-1.27647M170.13192,313.47661h9.24728v6.43906h-1.60267v-5.17678h-6.12703v5.19096h-1.51758v-6.45324M176.98228,309.13663l1.68777,0.35457c-0.12292,0.26475 -0.24584,0.52666 -0.36876,0.78574c-0.12292,0.26097 -0.24584,0.5068 -0.36876,0.73751c-0.12292,0.2326 -0.23638,0.43873 -0.34039,0.61838l-1.44666,-0.35457c0.09455,-0.19856 0.19572,-0.4236 0.30352,-0.67511c0.10968,-0.24962 0.2118,-0.50491 0.30635,-0.76588c0.09455,-0.25908 0.1702,-0.49262 0.22693,-0.70064M170.91198,309.4912l1.48921,-0.29784c0.19856,0.29311 0.37159,0.62121 0.5191,0.9843c0.14561,0.36497 0.24206,0.68456 0.28933,0.95877l-1.58849,0.36876c-0.03782,-0.28366 -0.12481,-0.61459 -0.26097,-0.99281c-0.13805,-0.37821 -0.28744,-0.7186 -0.44818,-1.02117M173.52164,306.78226l1.57431,-0.25529c0.1702,0.25529 0.32148,0.54084 0.45385,0.85665c0.13237,0.3177 0.2222,0.59474 0.26948,0.83112l-1.64522,0.32621c-0.03782,-0.24584 -0.11819,-0.53422 -0.24111,-0.86516c-0.12292,-0.33093 -0.26002,-0.62878 -0.41131,-0.89353zM182.47108,308.66859h6.68017v1.36156h-6.68017v-1.36156M183.97448,310.14361l1.29065,0.39712c-0.17965,0.43494 -0.38767,0.87934 -0.62405,1.3332c-0.23638,0.45385 -0.48411,0.88407 -0.74319,1.29065c-0.26097,0.40658 -0.5191,0.76588 -0.77439,1.0779c-0.06619,-0.07564 -0.16263,-0.17492 -0.28933,-0.29784c-0.12859,-0.12292 -0.25908,-0.24395 -0.39145,-0.36308c-0.13237,-0.11725 -0.25057,-0.21369 -0.35457,-0.28933c0.3593,-0.40658 0.70726,-0.89353 1.04386,-1.46084c0.33472,-0.56732 0.61554,-1.12991 0.84247,-1.68777M186.2863,312.3987l1.44666,0.25529c-0.41603,1.55067 -0.99943,2.91223 -1.75018,4.08469c-0.75264,1.17246 -1.6821,2.13217 -2.78837,2.87914c-0.06619,-0.10401 -0.16074,-0.22693 -0.28366,-0.36876c-0.12292,-0.14183 -0.25246,-0.28177 -0.38861,-0.41982c-0.13805,-0.13616 -0.25435,-0.24678 -0.3489,-0.33188c1.04954,-0.62405 1.91753,-1.45895 2.60399,-2.50471c0.68456,-1.04386 1.18759,-2.24185 1.50907,-3.59396M186.32885,310.6542l1.12045,-0.60987c0.22693,0.2742 0.45385,0.56921 0.68078,0.88502c0.22693,0.3177 0.43305,0.63256 0.61838,0.94458c0.18343,0.31202 0.32243,0.59568 0.41698,0.85098l-1.20555,0.68078c-0.07564,-0.25529 -0.20045,-0.54179 -0.37443,-0.85949c-0.17587,-0.31581 -0.37254,-0.64202 -0.59001,-0.97862c-0.21747,-0.33472 -0.43967,-0.63918 -0.6666,-0.91338M183.57735,313.71772l1.10627,-0.80843c0.34985,0.34985 0.71671,0.72333 1.1006,1.12045c0.38199,0.39712 0.75075,0.8037 1.10627,1.21973c0.35363,0.41603 0.677,0.81977 0.97011,1.21122c0.29311,0.39334 0.53895,0.75548 0.73751,1.08641l-1.21973,0.95026c-0.1702,-0.33093 -0.39712,-0.6978 -0.68078,-1.1006c-0.28366,-0.40091 -0.60041,-0.81694 -0.95026,-1.2481c-0.34985,-0.42927 -0.71104,-0.85192 -1.08358,-1.26796c-0.37443,-0.41603 -0.73657,-0.8037 -1.08641,-1.163M190.62628,309.17917h4.72292v1.41829h-4.72292v-1.41829M190.76811,306.65461l1.41829,0.22693c-0.16074,0.96444 -0.36119,1.90713 -0.60136,2.82808c-0.24206,0.92284 -0.53517,1.77854 -0.87934,2.56711c-0.34606,0.79046 -0.74602,1.48826 -1.19988,2.0934c-0.05673,-0.10401 -0.14183,-0.23165 -0.25529,-0.38294c-0.11346,-0.15129 -0.23355,-0.30257 -0.36025,-0.45385c-0.12859,-0.15129 -0.24489,-0.2742 -0.3489,-0.36876c0.39712,-0.51059 0.73751,-1.10911 1.02117,-1.79556c0.28366,-0.68456 0.52477,-1.4287 0.72333,-2.2324c0.19856,-0.8037 0.3593,-1.63104 0.48222,-2.48202M193.23594,310.14361l1.44666,0.1702c-0.22693,1.61686 -0.56921,3.04177 -1.02685,4.27474c-0.45953,1.23486 -1.07223,2.29386 -1.83811,3.17698c-0.76588,0.88502 -1.72559,1.62064 -2.87914,2.20687c-0.06619,-0.09455 -0.16074,-0.21085 -0.28366,-0.3489c-0.12292,-0.13616 -0.25246,-0.27799 -0.38861,-0.42549c-0.13805,-0.14561 -0.2638,-0.26097 -0.37727,-0.34606c1.13464,-0.49168 2.06125,-1.13747 2.77986,-1.93739c0.7186,-0.79803 1.28119,-1.75774 1.68777,-2.87914c0.40658,-1.11951 0.69969,-2.41677 0.87934,-3.8918M190.96667,311.3208c0.23638,1.06845 0.56543,2.08017 0.98713,3.03515c0.41982,0.95498 0.93229,1.80596 1.53743,2.55293c0.60514,0.74697 1.30483,1.34265 2.09908,1.78705c-0.11346,0.09455 -0.23827,0.21463 -0.37443,0.36025c-0.13805,0.1475 -0.26569,0.2969 -0.38294,0.44818c-0.11914,0.15129 -0.21653,0.29311 -0.29217,0.42549c-0.84152,-0.53895 -1.57431,-1.22257 -2.19836,-2.05085c-0.62405,-0.82639 -1.15355,-1.77192 -1.58849,-2.83659c-0.43494,-1.06278 -0.79425,-2.20403 -1.0779,-3.42376l1.29065,-0.29784M184.52761,307.09428l1.30483,-0.46804c0.18911,0.25529 0.37159,0.54084 0.54746,0.85665c0.17398,0.3177 0.30352,0.59001 0.38861,0.81694l-1.36156,0.55313c-0.06619,-0.24584 -0.18438,-0.53233 -0.35457,-0.85949c-0.1702,-0.32526 -0.34512,-0.625 -0.52477,-0.8992zM197.9305,308.96643h4.33998v9.47421h-4.33998v-1.34738h2.95005v-6.79363h-2.95005v-1.3332M197.03697,308.96643h1.38993v10.55211h-1.38993v-10.55211M197.85958,312.79583h3.71593v1.31901h-3.71593v-1.31901M199.0935,306.65461l1.6594,0.25529c-0.15129,0.46331 -0.31202,0.92851 -0.48222,1.3956c-0.1702,0.46898 -0.32621,0.86894 -0.46804,1.19988l-1.21973,-0.28366c0.06619,-0.23638 0.13521,-0.50586 0.20707,-0.80843c0.06997,-0.30257 0.13332,-0.60798 0.19005,-0.91622c0.05673,-0.30635 0.09455,-0.58717 0.11346,-0.84247M204.18518,308.88133h4.21234v1.38993h-4.21234v-1.38993M207.85856,308.88133h1.41829c0,0 0,0.04444 0,0.13332c0,0.09077 0,0.19005 0,0.29784c0,0.10968 -0.00473,0.19762 -0.01418,0.2638c-0.04728,1.6074 -0.09644,2.96896 -0.1475,4.08469c-0.05295,1.11573 -0.11441,2.03289 -0.18438,2.75149c-0.07186,0.7186 -0.15507,1.27836 -0.24962,1.67926c-0.09455,0.4028 -0.21747,0.69875 -0.36876,0.88785c-0.18911,0.25529 -0.38294,0.43022 -0.5815,0.52477c-0.19856,0.09455 -0.43967,0.16547 -0.72333,0.21274c-0.25529,0.02837 -0.5815,0.04255 -0.97862,0.04255c-0.39712,0 -0.8037,-0.00946 -1.21973,-0.02837c-0.00946,-0.20802 -0.05862,-0.45385 -0.1475,-0.73751c-0.09077,-0.28366 -0.2118,-0.5295 -0.36308,-0.73751c0.46331,0.03782 0.8888,0.06146 1.27647,0.07091c0.38767,0.00946 0.67133,0.01418 0.85098,0.01418c0.14183,0 0.25813,-0.01702 0.3489,-0.05106c0.08888,-0.03215 0.1806,-0.0955 0.27515,-0.19005c0.11346,-0.13237 0.21274,-0.3905 0.29784,-0.77439c0.0851,-0.38199 0.15601,-0.92284 0.21274,-1.62253c0.05673,-0.69969 0.11157,-1.58849 0.16452,-2.66639c0.05106,-1.0779 0.0955,-2.36383 0.13332,-3.85776v-0.29784M204.29864,306.65461l1.46084,0.34039c-0.17965,0.69969 -0.39429,1.39182 -0.64391,2.07638c-0.25151,0.68645 -0.52855,1.33225 -0.83112,1.93739c-0.30257,0.60514 -0.61459,1.13464 -0.93607,1.58849c-0.09455,-0.0851 -0.21747,-0.18438 -0.36876,-0.29784c-0.15129,-0.11346 -0.3073,-0.22504 -0.46804,-0.33472c-0.16074,-0.10779 -0.29784,-0.19005 -0.41131,-0.24678c0.31202,-0.40658 0.60798,-0.88218 0.88785,-1.4268c0.27799,-0.54273 0.52855,-1.12613 0.7517,-1.75018c0.22125,-0.62405 0.40752,-1.25283 0.55881,-1.88633M203.61786,312.85256l1.19137,-0.6666c0.23638,0.32148 0.49168,0.67794 0.76588,1.06939c0.2742,0.39334 0.53233,0.77155 0.77439,1.13464c0.24016,0.36497 0.43116,0.68929 0.57299,0.97295l-1.29065,0.79425c-0.13237,-0.29311 -0.31202,-0.62878 -0.53895,-1.00699c-0.22693,-0.37821 -0.46993,-0.76872 -0.729,-1.17151c-0.26097,-0.40091 -0.50964,-0.77628 -0.74602,-1.12613zM211.97162,307.09428h10.46702v1.10627h-10.46702v-1.10627M212.59567,312.81001h10.53793v1.04954h-10.53793v-1.04954M213.88631,314.3134h8.46722v0.92189h-8.46722v-0.92189M212.5673,315.71751h11.10525v1.02117h-11.10525v-1.02117M212.92187,310.20035h2.9926v0.79425h-2.9926v-0.79425M212.60985,311.50518h3.31881v0.78006h-3.31881v-0.78006M218.45322,311.50518h3.36136v0.78006h-3.36136v-0.78006M218.45322,310.20035h3.02097v0.79425h-3.02097v-0.79425M216.42506,307.56232h1.50339v4.96403h-1.50339v-4.96403M211.06391,308.76787h12.3108v2.48202h-1.47503v-1.57431h-9.43166v1.57431h-1.40411v-2.48202M211.91488,312.81001h1.41829v1.95725c0,0.39712 -0.02364,0.8245 -0.07091,1.28214c-0.04728,0.45953 -0.13427,0.92567 -0.26097,1.39844c-0.12859,0.47276 -0.30824,0.92851 -0.53895,1.36724c-0.2326,0.44062 -0.53328,0.84058 -0.90204,1.19988c-0.07564,-0.09455 -0.17965,-0.20613 -0.31202,-0.33472c-0.13237,-0.1267 -0.27137,-0.24962 -0.41698,-0.36876c-0.1475,-0.11725 -0.27799,-0.20423 -0.39145,-0.26097c0.4444,-0.42549 0.77061,-0.8888 0.97862,-1.38993c0.20802,-0.50113 0.34323,-1.0051 0.40563,-1.5119c0.06051,-0.50491 0.09077,-0.97484 0.09077,-1.40979v-1.92888M218.43904,316.25647c0.28366,0.46331 0.68551,0.84814 1.20555,1.15449c0.52004,0.30824 1.1422,0.54935 1.86648,0.72333c0.72238,0.17587 1.52798,0.29217 2.41677,0.3489c-0.13237,0.13237 -0.26948,0.31202 -0.41131,0.53895c-0.14183,0.22693 -0.25529,0.43494 -0.34039,0.62405c-0.9739,-0.10401 -1.84095,-0.28366 -2.60115,-0.53895c-0.7621,-0.25529 -1.41735,-0.59852 -1.96576,-1.02968c-0.54841,-0.42927 -1.00226,-0.95593 -1.36156,-1.57998l1.19137,-0.24111M221.74367,316.62522l1.12045,0.56732c-0.34039,0.22693 -0.69969,0.43683 -1.0779,0.62972c-0.37821,0.19478 -0.72333,0.36308 -1.03536,0.50491l-0.92189,-0.51059c0.20802,-0.11346 0.42738,-0.23922 0.65809,-0.37727c0.2326,-0.13616 0.46047,-0.27799 0.68362,-0.42549c0.22125,-0.14561 0.41225,-0.27515 0.57299,-0.38861M213.99978,319.91567l-0.07091,-0.99281l0.59568,-0.41131l3.91449,-0.55313c-0.03782,0.1702 -0.07091,0.36592 -0.09928,0.58717c-0.02837,0.22314 -0.04255,0.40563 -0.04255,0.54746c-0.86989,0.14183 -1.57147,0.25718 -2.10475,0.34606c-0.53517,0.09077 -0.94931,0.16452 -1.24243,0.22125c-0.29311,0.05673 -0.50586,0.10401 -0.63823,0.14183c-0.13237,0.03782 -0.23638,0.07564 -0.31202,0.11346M213.99978,319.91567c-0.03782,-0.11346 -0.09455,-0.24395 -0.1702,-0.39145c-0.07564,-0.14561 -0.1579,-0.29217 -0.24678,-0.43967c-0.09077,-0.14561 -0.17398,-0.26569 -0.24962,-0.36025c0.16074,-0.0851 0.33377,-0.22976 0.5191,-0.434c0.18343,-0.20234 0.27515,-0.46425 0.27515,-0.78574v-1.36156l1.47503,0.02837v2.31182c0,0 -0.0539,0.03309 -0.16169,0.09928c-0.10968,0.06619 -0.24206,0.15601 -0.39712,0.26948c-0.15696,0.11346 -0.31581,0.23165 -0.47655,0.35457c-0.16074,0.12292 -0.29501,0.24773 -0.4028,0.37443c-0.10968,0.12859 -0.16452,0.24016 -0.16452,0.33472zM227.77142,310.72512h9.91388v1.20555h-9.91388v-1.20555M227.89907,314.85235h7.88572v1.20555h-7.88572v-1.20555M229.7854,309.70394h1.44666v3.33299h2.83659v-3.33299h1.48921v4.49599h-5.77246v-4.49599M235.38766,314.85235h0.29784l0.26948,-0.05673l0.95026,0.4964c-0.38767,0.73751 -0.89353,1.36818 -1.51758,1.89201c-0.62405,0.52572 -1.3332,0.96349 -2.12744,1.31334c-0.79425,0.34985 -1.64995,0.62878 -2.56711,0.83679c-0.91716,0.20802 -1.87215,0.36876 -2.86496,0.48222c-0.05673,-0.17965 -0.14372,-0.39523 -0.26097,-0.64674c-0.11914,-0.24962 -0.24016,-0.45953 -0.36308,-0.62972c0.90771,-0.06619 1.78705,-0.18249 2.63803,-0.3489c0.85098,-0.16452 1.6386,-0.38389 2.36288,-0.65809c0.72238,-0.2742 1.35778,-0.61743 1.90619,-1.02968c0.54841,-0.41036 0.9739,-0.89447 1.27647,-1.45233v-0.19856M230.26762,315.77425c0.46331,0.54841 1.07979,1.01645 1.84946,1.40411c0.77155,0.38767 1.66319,0.69686 2.6749,0.92756c1.01172,0.2326 2.09908,0.39145 3.26208,0.47655c-0.10401,0.10401 -0.21274,0.23638 -0.32621,0.39712c-0.11346,0.16074 -0.21936,0.32148 -0.3177,0.48222c-0.10023,0.16074 -0.17871,0.3073 -0.23544,0.43967c-1.21028,-0.12292 -2.33262,-0.33377 -3.36703,-0.63256c-1.0363,-0.2969 -1.96103,-0.69402 -2.77418,-1.19137c-0.81316,-0.49546 -1.50339,-1.09776 -2.07071,-1.80691l1.30483,-0.4964M226.66515,307.94526h11.16198v1.41829h-11.16198v-1.41829M225.956,307.94526h1.50339v3.80103c0,0.58623 -0.01607,1.23108 -0.04822,1.93455c-0.03404,0.70536 -0.09833,1.4268 -0.19289,2.16432c-0.09455,0.73751 -0.23165,1.45139 -0.41131,2.14163c-0.17965,0.69024 -0.41603,1.32374 -0.70915,1.90052c-0.10401,-0.07564 -0.24111,-0.15601 -0.41131,-0.24111c-0.1702,-0.0851 -0.34323,-0.1683 -0.5191,-0.24962c-0.17398,-0.07942 -0.32715,-0.13332 -0.45953,-0.16169c0.28366,-0.54841 0.51059,-1.1422 0.68078,-1.78138c0.1702,-0.63729 0.29595,-1.29159 0.37727,-1.96292c0.07942,-0.67133 0.13143,-1.32658 0.15601,-1.96576c0.02269,-0.63729 0.03404,-1.22541 0.03404,-1.76436v-3.81521M230.92004,306.92409l1.53176,-0.35457c0.16074,0.30257 0.30919,0.63351 0.44534,0.99281c0.13805,0.3593 0.23544,0.6666 0.29217,0.92189l-1.63104,0.39712c-0.03782,-0.26475 -0.11819,-0.5815 -0.24111,-0.95026c-0.12292,-0.36876 -0.25529,-0.70442 -0.39712,-1.00699zM243.58541,307.15101h7.16239v1.37575h-7.16239v-1.37575M250.02447,307.15101h1.50339v11.04852c0,0.40658 -0.0539,0.71104 -0.16169,0.91338c-0.10968,0.20423 -0.29217,0.36308 -0.54746,0.47655c-0.26475,0.11346 -0.60514,0.18154 -1.02117,0.20423c-0.41603,0.02458 -0.92662,0.03688 -1.53176,0.03688c-0.02837,-0.17965 -0.09266,-0.40185 -0.19289,-0.6666c-0.09833,-0.26475 -0.19951,-0.48222 -0.30352,-0.65242c0.26475,0.00946 0.52761,0.01607 0.78857,0.01986c0.25908,0.00567 0.49073,0.00567 0.69496,0c0.20234,-0.00378 0.34606,-0.00567 0.43116,-0.00567c0.13237,0 0.2222,-0.02364 0.26948,-0.07091c0.04728,-0.04728 0.07091,-0.13237 0.07091,-0.25529v-11.04852M240.1815,307.37794l1.13464,-0.78006c0.23638,0.24584 0.48978,0.51721 0.76021,0.8141c0.26853,0.29879 0.52099,0.5919 0.75737,0.87934c0.23638,0.28933 0.42076,0.55219 0.55313,0.78857l-1.20555,0.89353c-0.13237,-0.22693 -0.30919,-0.49168 -0.53044,-0.79425c-0.22314,-0.30257 -0.46425,-0.6127 -0.72333,-0.9304c-0.26097,-0.31581 -0.50964,-0.60608 -0.74602,-0.87083M239.6,309.61885h1.53176v10.29682h-1.53176v-10.29682M241.72744,310.72512h7.70134v1.17718h-7.70134v-1.17718M247.20206,309.61885l0.78006,-0.51059c0.17965,0.16074 0.37159,0.34228 0.57583,0.54463c0.20234,0.20423 0.36025,0.37727 0.47371,0.5191l-0.80843,0.5815c-0.11346,-0.16074 -0.26664,-0.34795 -0.45953,-0.56164c-0.19478,-0.2118 -0.38199,-0.4028 -0.56164,-0.57299M241.5998,316.52594c0.51059,-0.05673 1.12045,-0.13994 1.8296,-0.24962c0.70915,-0.10779 1.4372,-0.21842 2.18417,-0.33188l0.07091,1.12045c-0.68078,0.12292 -1.35873,0.243 -2.03383,0.36025c-0.677,0.11914 -1.29443,0.22598 -1.85229,0.32053l-0.19856,-1.21973M248.05304,312.32779l1.10627,0.21274c-0.31202,1.30483 -0.7725,2.47256 -1.38142,3.50319c-0.61081,1.03063 -1.34171,1.8816 -2.19268,2.55293c-0.05673,-0.07564 -0.1371,-0.16358 -0.24111,-0.2638c-0.10401,-0.09833 -0.21085,-0.19951 -0.32053,-0.30352c-0.10779,-0.10401 -0.20423,-0.18438 -0.28933,-0.24111c0.83207,-0.58623 1.52514,-1.34738 2.07922,-2.28345c0.55219,-0.93607 0.96539,-1.99507 1.23959,-3.17698M243.01809,313.47661v1.10627h1.29065v-1.10627h-1.29065M242.06783,312.59726h3.21953v2.86496h-3.21953v-2.86496M245.71285,309.03734h1.20555c0.01891,1.09681 0.06146,2.11799 0.12765,3.06352c0.06619,0.94553 0.16547,1.77287 0.29784,2.48202c0.13237,0.70915 0.29122,1.26417 0.47655,1.66508c0.18343,0.4028 0.39807,0.60892 0.64391,0.61838c0.10401,0.00946 0.19194,-0.11819 0.2638,-0.38294c0.06997,-0.26475 0.12386,-0.64296 0.16169,-1.13464c0.10401,0.12292 0.24584,0.25057 0.42549,0.38294c0.17965,0.13237 0.32621,0.22693 0.43967,0.28366c-0.0851,0.58623 -0.19572,1.04481 -0.33188,1.37575c-0.13805,0.33093 -0.28744,0.56259 -0.44818,0.69496c-0.16074,0.13237 -0.32621,0.19856 -0.4964,0.19856c-0.51059,-0.01891 -0.93607,-0.26002 -1.27647,-0.72333c-0.34039,-0.46331 -0.61459,-1.111 -0.82261,-1.94306c-0.20802,-0.83207 -0.36119,-1.8088 -0.45953,-2.9302c-0.10023,-1.11951 -0.16925,-2.3364 -0.20707,-3.65069zM257.3996,308.00199h8.60905v1.31901h-8.60905v-1.31901M256.77555,318.32718h9.58767v1.27647h-9.58767v-1.27647M258.05201,310.39891h7.17657v8.18356h-1.40411v-7.06311h-4.42508v7.06311h-1.34738v-8.18356M259.04482,312.41289h5.04913v1.06372h-5.04913v-1.06372M259.01646,314.3985h5.4037v1.03536h-5.4037v-1.03536M258.98809,316.35575h5.13423v1.04954h-5.13423v-1.04954M261.03043,306.69716l1.61686,0.05673c-0.07564,0.48222 -0.16547,0.97862 -0.26948,1.48921c-0.10401,0.51059 -0.20802,0.9947 -0.31202,1.45233c-0.10401,0.45953 -0.20802,0.85949 -0.31202,1.19988l-1.3332,-0.11346c0.09455,-0.3593 0.18249,-0.78006 0.2638,-1.26228c0.07942,-0.48222 0.15034,-0.972 0.21274,-1.46935c0.06051,-0.49546 0.10495,-0.94647 0.13332,-1.35305M256.13732,306.71134l1.40411,0.43967c-0.29311,0.8037 -0.63634,1.60456 -1.02968,2.40259c-0.39145,0.79992 -0.81694,1.55445 -1.27647,2.2636c-0.45764,0.70915 -0.93229,1.33792 -1.42397,1.88633c-0.03782,-0.13237 -0.10684,-0.29595 -0.20707,-0.49073c-0.09833,-0.19289 -0.19951,-0.39145 -0.30352,-0.59568c-0.10401,-0.20234 -0.19856,-0.36497 -0.28366,-0.48789c0.41603,-0.4444 0.81788,-0.95782 1.20555,-1.54027c0.38767,-0.58055 0.74508,-1.20177 1.07223,-1.86364c0.32526,-0.66187 0.60608,-1.3332 0.84247,-2.01398M254.71902,310.58329l1.40411,-1.44666v0.01418v10.75067h-1.40411z" fill="#ffffff" fill-rule="nonzero" stroke-linecap="butt" stroke-linejoin="miter"/></g></g></svg>