<svg version="1.1" xmlns="http://www.w3.org/2000/svg" xmlns:xlink="http://www.w3.org/1999/xlink" width="139.68603" height="19.83182" viewBox="0,0,139.68603,19.83182"><g transform="translate(-240.19859,-169.9936)"><g fill="#ffffff" fill-rule="evenodd" stroke="#ffffff" stroke-width="0.5" stroke-linecap="round" stroke-miterlimit="10"><path d="M245.81597,173.82481h1.1792v13.65481h-1.1792v-1.27692l-5.36738,0.72084v-13.01635h1.1792v11.32752l1.46383,-0.20595v-14.39624h1.36218v14.21088l1.36218,-0.18536zM257.87225,187.72676l-0.63026,1.62704c-1.95178,-0.96112 -3.54437,-2.02522 -4.77778,-3.1923c-1.26052,1.05724 -2.99543,2.1282 -5.20474,3.2129l-0.69125,-1.44168c2.04665,-0.93366 3.66636,-1.89478 4.85911,-2.88337c-1.27408,-1.4966 -2.28385,-3.37079 -3.02932,-5.62257v-1.52407h3.41561v-2.98635h-4.0662v-1.46228h4.0662v-3.00694h1.40284v3.00694h4.47282v1.46228h-4.47282v2.96575h3.29362v1.58585c-0.37951,1.222 -0.7963,2.28267 -1.25036,3.182c-0.45406,0.89934 -1.02672,1.71972 -1.71797,2.46116c1.13854,1.01604 2.58204,1.88792 4.3305,2.61563zM254.98525,179.40619l-5.06242,0.0206c0.65059,1.83986 1.50449,3.37766 2.56171,4.61339c0.59638,-0.64533 1.0911,-1.33871 1.48416,-2.08014c0.39307,-0.74144 0.73192,-1.59272 1.01655,-2.55384z"/><path d="M269.9692,184.74042h8.1324v1.40049h-8.1324v3.23349h-1.56549v-3.23349h-8.07141v-1.40049h8.07141v-1.75062h-5.81467v-10.66846h4.57447c0.29819,-0.61786 0.56249,-1.25632 0.79291,-1.91538l1.72813,0.22655c-0.09488,0.27461 -0.25753,0.66592 -0.48794,1.17394l-0.22364,0.51489h6.77022v4.48982h-11.56834v1.62704h12.03595v4.5516h-6.24162zM274.64533,181.67169v-1.91538h-10.47046v1.91538zM264.17486,175.51364h10.04351v-1.89478h-10.04351z"/><path d="M298.59525,183.52528h-10.10451c-1.0301,1.15335 -2.29063,2.34789 -3.78157,3.58361l9.12862,-0.35012l-2.23641,-2.14193l0.99622,-1.00918c0.58282,0.53548 1.14192,1.05724 1.67731,1.56526c0.53538,0.50802 1.00638,0.95426 1.413,1.33871c1.46383,1.40049 2.06698,1.9703 1.80946,1.70943l-1.05721,1.17394c-0.23042,-0.24715 -0.65059,-0.67965 -1.26052,-1.29752l-12.56456,0.55608l-0.38629,-1.46228c1.59937,-1.15335 3.00221,-2.37535 4.20852,-3.666h-5.835v-1.40049h2.68369v-10.70965h12.56456v10.70965h2.74468zM294.38673,182.12479v-2.2655h-9.61656v2.2655zM284.77017,176.33746v2.18312h9.61656v-2.18312zM284.77017,175.03994h9.61656v-2.16253h-9.61656z"/><path d="M317.2591,183.19576l1.52482,0.72084c-0.06777,0.4531 -0.16604,0.96456 -0.2948,1.53436c-0.12876,0.56981 -0.25414,1.04694 -0.37612,1.43139c-0.25753,0.7689 -0.57605,1.30438 -0.95556,1.60645c-0.37951,0.30207 -0.92845,0.4531 -1.64681,0.4531c-1.19275,0 -2.26352,-0.5904 -3.2123,-1.77121c-0.8539,-1.05724 -1.46722,-2.38564 -1.83996,-3.98523c-0.37274,-1.59958 -0.5591,-3.73808 -0.5591,-6.41549v-3.23349h-8.78299v-1.58585h10.38914v4.81934v0.14417c0.86746,-0.70025 1.79591,-1.47944 2.78535,-2.33759c0.98944,-0.85814 1.74847,-1.56182 2.27707,-2.11104l1.13854,1.29752c-0.52861,0.50802 -1.23003,1.12245 -2.10426,1.8433c-0.87423,0.72084 -1.7383,1.41079 -2.5922,2.06985c1.91111,1.15335 3.53759,2.16939 4.87944,3.04813l-0.87423,1.46228c-1.89756,-1.31811 -3.66636,-2.49205 -5.30639,-3.52183l-0.16265,0.12357c0.06777,1.8124 0.25753,3.26782 0.56927,4.36624c0.31174,1.09843 0.78613,2.04582 1.42317,2.84218c0.62348,0.78263 1.24697,1.17394 1.87045,1.17394c0.37951,0 0.67092,-0.09955 0.87423,-0.29863c0.20331,-0.19909 0.36596,-0.54578 0.48794,-1.04007c0.08132,-0.32953 0.16943,-0.75174 0.2643,-1.26662c0.09488,-0.51489 0.16943,-0.97142 0.22364,-1.3696z"/><path d="M334.7031,184.49327h4.49315v1.33871h-4.49315v3.56302h-1.26052v-3.56302h-4.31017v-1.33871h4.31017v-2.05955h-3.55792v-8.13522h5.63169c0.8539,-1.56526 1.47061,-2.81472 1.85012,-3.74838l1.19953,0.53548c-0.27108,0.61786 -0.81324,1.68883 -1.62648,3.2129h1.34185v8.13522h-3.57826zM328.58347,178.52058h-2.05343v1.95657h2.37873c-0.04066,2.36162 -0.10165,4.37997 -0.18298,6.05507c-0.05422,0.94739 -0.26769,1.60302 -0.64043,1.96687c-0.37274,0.36385 -0.99961,0.54578 -1.88062,0.54578h-1.50449l-0.22364,-1.25632h1.42317c0.62348,0 1.04705,-0.10641 1.27069,-0.31923c0.22364,-0.21282 0.34902,-0.63503 0.37612,-1.26662c0.01355,-0.57667 0.03727,-1.42795 0.07116,-2.55384c0.03388,-1.12589 0.04405,-1.78494 0.0305,-1.97717h-5.57069v-10.27715h6.77022v1.25632h-2.31773v1.89478h2.05343v1.19454h-2.05343v1.60645h2.05343zM322.32152,187.95331l-1.07754,-0.12357c0.23042,-1.31811 0.39984,-3.06186 0.50827,-5.23125l0.99622,0.0206c-0.05422,2.15566 -0.19653,3.93374 -0.42695,5.33423zM323.21609,182.72206l0.99622,-0.06179c0.13554,1.78494 0.21009,3.3296 0.22364,4.63398h-1.07754c0,-0.86501 -0.04744,-2.38908 -0.14232,-4.5722zM324.61892,182.72206l0.91489,-0.18536c0.12199,0.75517 0.33885,2.05955 0.65059,3.91314l-0.99622,0.18536c-0.14909,-1.20827 -0.33885,-2.51265 -0.56927,-3.91314zM337.04117,178.99428h-2.33806v2.20372h2.33806zM334.7031,175.57543v2.18312h2.33806v-2.18312zM333.44258,178.99428h-2.2974v2.20372h2.2974zM331.14518,177.75855h2.2974v-2.18312h-2.2974zM332.12106,173.47469l-1.1792,0.59727c-0.25753,-0.56294 -0.73192,-1.4966 -1.42317,-2.80099l1.13854,-0.57667c0.1762,0.28834 0.66415,1.21513 1.46383,2.78039zM327.52626,185.64662l-0.93523,0.24715c-0.08132,-0.61786 -0.30496,-1.76435 -0.67092,-3.43945l0.89456,-0.20595c0.13554,0.53548 0.37274,1.66823 0.71158,3.39825zM335.15038,173.16576l-1.1792,0.41191c-0.12199,-0.34326 -0.29819,-0.80322 -0.52861,-1.3799c-0.23042,-0.57667 -0.43373,-1.0641 -0.60993,-1.46228l1.19953,-0.43251c0.13554,0.26088 0.31513,0.68995 0.53877,1.28722c0.22364,0.59727 0.41679,1.12245 0.57943,1.57555zM325.33051,180.47715v-1.95657h-2.0331v1.95657zM323.29741,174.54565h2.0331v-1.89478h-2.0331zM323.29741,175.74019v1.60645h2.0331v-1.60645z"/><path d="M358.06342,183.54588l1.4435,0.32953c0,0.41191 -0.02711,1.07097 -0.08132,1.97717l-0.02033,0.67965c-0.04066,0.56294 -0.14909,0.99888 -0.3253,1.30781c-0.1762,0.30893 -0.46084,0.52862 -0.8539,0.65906c-0.39307,0.13044 -0.94878,0.19566 -1.66714,0.19566h-5.16407c-0.6777,0 -1.20969,-0.07208 -1.59598,-0.21625c-0.38629,-0.14417 -0.66753,-0.39818 -0.84374,-0.76203c-0.1762,-0.36385 -0.2643,-0.88904 -0.2643,-1.57555v-7.08485l-1.7078,0.59727l-0.38629,-1.46228l2.09409,-0.72084v-5.08708h1.4435v4.59279l2.52104,-0.88561v-5.51959h1.42317v5.04589l4.3305,-1.50347l-0.22364,7.35259c-0.04066,0.56294 -0.12199,0.98858 -0.24397,1.27692c-0.12199,0.28834 -0.33207,0.49429 -0.63026,0.61786c-0.29819,0.12357 -0.73192,0.18536 -1.30118,0.18536h-1.09787l-0.28463,-1.52407h0.73192c0.39307,0 0.68448,-0.03089 0.87423,-0.09268c0.18976,-0.06179 0.32191,-0.17506 0.39645,-0.33983c0.07455,-0.16476 0.1186,-0.42564 0.13215,-0.78263l0.18298,-4.61339l-2.86667,0.98858v8.15581h-1.42317v-7.66152l-2.52104,0.88561v6.96127c0,0.49429 0.03388,0.85814 0.10165,1.09156c0.06777,0.23342 0.2067,0.39818 0.41679,0.49429c0.21009,0.09611 0.53877,0.14417 0.98605,0.14417h4.35083c0.56927,0 0.98605,-0.03433 1.25036,-0.10298c0.2643,-0.06865 0.45067,-0.20595 0.5591,-0.41191c0.10843,-0.20595 0.1762,-0.53548 0.20331,-0.98858zM345.41754,177.42902v7.12604l2.33806,-0.76203l0.12199,0.76203l0.08132,0.65906l-6.03831,1.99776l-0.38629,-1.3799l2.43972,-0.80322v-7.59973h-2.13475v-1.50347h2.13475v-4.94292h1.4435v4.94292h1.72813v1.50347z"/><path d="M379.63461,174.97816h-10.85675l-0.14232,2.7392l-0.04066,0.63846h8.76266c-0.05422,0.89247 -0.12876,2.1076 -0.22364,3.6454c-0.09488,1.5378 -0.1762,2.75293 -0.24397,3.6454c-0.06777,0.82382 -0.22025,1.45198 -0.45745,1.88449c-0.23719,0.43251 -0.59638,0.73801 -1.07754,0.9165c-0.48117,0.17849 -1.15548,0.26774 -2.02293,0.26774h-3.2123l-0.3253,-1.54466h2.96833c0.6777,0 1.18936,-0.05835 1.53499,-0.17506c0.34563,-0.11671 0.59638,-0.32266 0.75225,-0.61786c0.15587,-0.2952 0.26091,-0.73114 0.31513,-1.30781l0.3253,-5.14887h-7.23784c-0.16265,1.37303 -0.43373,2.58473 -0.81324,3.6351c-0.37951,1.05037 -0.92506,2.04925 -1.63665,2.99664c-0.71158,0.94739 -1.6502,1.92225 -2.81584,2.92456l-1.19953,-1.31811c1.27408,-1.07097 2.25335,-2.08701 2.93783,-3.04813c0.68448,-0.96112 1.18598,-2.02179 1.50449,-3.182c0.31852,-1.16021 0.53199,-2.63279 0.64043,-4.41773l0.14232,-2.53324h-4.98109v-1.56526h8.41703l-1.09787,-2.61563l1.66714,-0.43251c0.20331,0.42564 0.63704,1.44168 1.30118,3.04813h7.11585z"/></g></g></svg>