<svg version="1.1" xmlns="http://www.w3.org/2000/svg" xmlns:xlink="http://www.w3.org/1999/xlink" width="192" height="36" viewBox="0,0,192,36"><g transform="translate(-144,-162)"><g stroke="none" stroke-miterlimit="10"><path d="M144,198v-36h192v36z" fill="none" fill-rule="nonzero" stroke-linecap="butt" stroke-linejoin="miter"/><path d="M317,164c9.31184,0 17,7.09393 17,16c0,8.90606 -7.68816,16 -17,16h-154c-9.31184,0 -17,-7.09394 -17,-16c0,-8.90607 7.68816,-16 17,-16z" fill="#7d97b4" fill-rule="evenodd" stroke-linecap="round" stroke-linejoin="round"/><path d="M163,166h154c8.31,0 15,6.244 15,14c0,7.75599 -6.69,13.99999 -15,13.99999h-154c-8.31,0 -15,-6.244 -15,-13.99999c0,-7.756 6.69,-14 15,-14z" fill="#31476d" fill-rule="evenodd" stroke-linecap="round" stroke-linejoin="round"/><path d="M209.29095,185.51552h14.27266v1.33756h-14.27266v-1.33756M209.36962,175.42865h14.08383v1.33757h-14.08383v-1.33757M210.45542,183.24951h12.08536v1.29036h-12.08536v-1.29036M215.49098,174.02815h1.6995v12.16403h-1.6995v-12.16403M221.18745,172.6591l0.80254,1.3061c-0.74484,0.12589 -1.56838,0.23604 -2.47057,0.33046c-0.90221,0.09442 -1.84112,0.1731 -2.81676,0.23604c-0.97564,0.06294 -1.95652,0.11539 -2.94266,0.15736c-0.98612,0.04196 -1.94079,0.06819 -2.86397,0.07868c0,-0.19933 -0.03987,-0.42488 -0.1196,-0.67665c-0.07764,-0.25178 -0.15317,-0.46159 -0.22659,-0.62945c0.92318,-0.03147 1.87051,-0.06818 2.84194,-0.11016c0.96934,-0.04196 1.9261,-0.09442 2.87027,-0.15736c0.94417,-0.06294 1.83588,-0.13952 2.67515,-0.22975c0.83925,-0.08812 1.58935,-0.18987 2.25027,-0.30528M212.61127,180.46422v0.84975h7.61628v-0.84975h-7.61628M212.61127,178.59162v0.83401h7.61628v-0.83401h-7.61628M210.95897,177.45861h10.99956v4.98836h-10.99956zM234.65758,174.34287v1.05432h2.06143v-1.05432h-2.06143M231.10122,174.34287v1.05432h2.01421v-1.05432h-2.01421M227.59206,174.34287v1.05432h1.96702v-1.05432h-1.96702M225.98698,173.20987h12.43154v3.33605h-12.43154v-3.33605M225.31032,177.26978h13.48587v1.25889h-13.48587v-1.25889M231.19564,176.19973l1.74671,0.09441c-0.07343,0.55601 -0.16786,1.14559 -0.28324,1.76874c-0.1154,0.62524 -0.22554,1.16342 -0.33046,1.61452h-1.57362c0.06294,-0.30423 0.1238,-0.65567 0.18253,-1.05432c0.05665,-0.39864 0.10911,-0.81094 0.15737,-1.23686c0.04616,-0.42382 0.07972,-0.81933 0.10071,-1.18651M225.10575,185.68862h14.13104v1.19594h-14.13104v-1.19594M227.87531,180.9363h8.51324v0.88123h-8.51324v-0.88123M227.93826,182.50992h8.43457v0.86548h-8.43457v-0.86548M228.00121,184.09926h8.46603v0.88122h-8.46603v-0.88122M227.00982,179.2368h10.22849v7.11272h-1.66804v-6.07414h-6.95536v6.07415h-1.60509zM241.67589,173.87078l1.0858,-1.02285c0.28324,0.2308 0.58748,0.48993 0.91269,0.77736c0.32522,0.28954 0.62945,0.5728 0.9127,0.84975c0.28324,0.27906 0.51405,0.53399 0.69239,0.76477l-1.14874,1.16447c-0.16786,-0.2308 -0.38815,-0.49621 -0.66091,-0.79625c-0.27276,-0.29794 -0.5665,-0.59903 -0.88123,-0.90324c-0.31472,-0.30423 -0.61894,-0.58224 -0.91269,-0.83402M242.65154,187.0734l-0.37766,-1.49493l0.31472,-0.55077l3.08428,-2.48632c0.06294,0.2203 0.15736,0.46894 0.28324,0.7459c0.12589,0.27906 0.24129,0.49727 0.34619,0.65462c-0.72387,0.58749 -1.31135,1.06692 -1.76245,1.43828c-0.4511,0.37347 -0.80254,0.66721 -1.05433,0.88123c-0.25178,0.21611 -0.43746,0.38396 -0.55706,0.50357c-0.1217,0.1217 -0.21401,0.22451 -0.27695,0.30843M240.59011,177.50583h2.83251v1.62083h-2.83251v-1.62083M247.9074,173.16265h4.23303v1.55788h-4.23303v-1.55788M246.01907,179.50431h7.22288v1.57362h-7.22288v-1.57362M252.72265,179.50431h0.29899l0.29899,-0.06295l1.02285,0.44061c-0.32522,1.09104 -0.76058,2.04569 -1.3061,2.86397c-0.54552,0.81828 -1.18756,1.52327 -1.9261,2.11493c-0.74065,0.59377 -1.55369,1.08999 -2.4391,1.48864c-0.88752,0.39864 -1.83483,0.71862 -2.84194,0.9599c-0.07343,-0.2203 -0.18674,-0.47734 -0.3399,-0.77106c-0.15107,-0.29375 -0.30003,-0.52977 -0.4469,-0.70812c0.91269,-0.17835 1.77817,-0.43327 2.59645,-0.76477c0.81828,-0.32941 1.56311,-0.74379 2.23453,-1.24315c0.6714,-0.49727 1.2505,-1.08474 1.73727,-1.76246c0.48887,-0.6756 0.85919,-1.44877 1.11098,-2.31951v-0.23604M247.93887,180.77894c0.41964,0.84975 0.9788,1.61558 1.67747,2.29748c0.69658,0.6819 1.52535,1.25575 2.48632,1.72153c0.95886,0.46788 2.02051,0.81723 3.18498,1.04802c-0.1154,0.1154 -0.23918,0.26227 -0.37136,0.4406c-0.1301,0.17835 -0.25282,0.35879 -0.36822,0.54133c-0.1154,0.18464 -0.20981,0.35564 -0.28324,0.51299c-1.83587,-0.4406 -3.39375,-1.17497 -4.67363,-2.20306c-1.27987,-1.02809 -2.29747,-2.3237 -3.05281,-3.88683l1.40051,-0.47208M247.48253,173.16265h1.58934v1.76246c0,0.51405 -0.07343,1.03859 -0.2203,1.57362c-0.14687,0.53503 -0.41648,1.04382 -0.80883,1.5264c-0.39445,0.48257 -0.96935,0.89695 -1.72468,1.24315c-0.07343,-0.1049 -0.17834,-0.23918 -0.31472,-0.40284c-0.13638,-0.16157 -0.27801,-0.32101 -0.42488,-0.47837c-0.14687,-0.15736 -0.27276,-0.27276 -0.37766,-0.3462c0.67141,-0.29375 1.16972,-0.61685 1.49493,-0.96934c0.32522,-0.35039 0.53818,-0.71233 0.63889,-1.0858c0.09861,-0.37136 0.14792,-0.74065 0.14792,-1.10782v-1.71524M251.36935,173.16265h1.58934v3.49343c0,0.2308 0.01574,0.39341 0.04721,0.48782c0.03147,0.09442 0.11016,0.14163 0.23604,0.14163c0.05246,0 0.13638,0 0.25178,0c0.1154,0 0.23289,0 0.35249,0c0.1217,0 0.21401,0 0.27695,0c0.12588,0 0.2696,-0.00839 0.43117,-0.02518c0.16365,-0.01468 0.29269,-0.03776 0.38711,-0.06924c0.02098,0.20982 0.04196,0.44795 0.06294,0.71441c0.02098,0.26857 0.04721,0.49727 0.07868,0.6861c-0.1154,0.05246 -0.25701,0.08393 -0.42487,0.09442c-0.16786,0.01049 -0.33571,0.01575 -0.50357,0.01575c-0.08393,0 -0.19723,0 -0.3399,0c-0.14058,0 -0.27905,0 -0.41543,0c-0.13638,0 -0.24129,0 -0.31472,0c-0.47207,0 -0.83192,-0.06819 -1.07951,-0.20458c-0.24548,-0.13638 -0.41229,-0.35983 -0.50041,-0.67035c-0.09023,-0.30843 -0.13533,-0.70393 -0.13533,-1.18651v-3.47768M242.65154,187.0734c-0.04196,-0.13638 -0.1133,-0.29374 -0.21401,-0.47208c-0.09861,-0.17835 -0.20876,-0.35669 -0.33046,-0.53504c-0.1196,-0.17835 -0.22659,-0.31996 -0.32101,-0.42487c0.1154,-0.07343 0.23394,-0.18359 0.35564,-0.33046c0.1196,-0.14687 0.22136,-0.31996 0.30529,-0.51929c0.08393,-0.19933 0.12588,-0.41964 0.12588,-0.66092v-6.6249h1.62083v7.85233c0,0 -0.07869,0.05981 -0.23605,0.17939c-0.15736,0.1217 -0.3357,0.27171 -0.53503,0.45006c-0.19933,0.17835 -0.37766,0.36718 -0.53503,0.56651c-0.15736,0.19933 -0.23604,0.37242 -0.23604,0.51928zM266.12984,174.34287v1.05432h2.06144v-1.05432h-2.06144M262.57347,174.34287v1.05432h2.01422v-1.05432h-2.01422M259.06432,174.34287v1.05432h1.96702v-1.05432h-1.96702M257.45923,173.20987h12.43154v3.33605h-12.43154v-3.33605M256.78258,177.26978h13.48587v1.25889h-13.48587v-1.25889M262.66788,176.19973l1.7467,0.09441c-0.07343,0.55601 -0.16786,1.14559 -0.28324,1.76874c-0.1154,0.62524 -0.22554,1.16342 -0.33046,1.61452h-1.57362c0.06295,-0.30423 0.1238,-0.65567 0.18254,-1.05432c0.05665,-0.39864 0.1091,-0.81094 0.15736,-1.23686c0.04616,-0.42382 0.07972,-0.81933 0.10071,-1.18651M256.57801,185.68862h14.13104v1.19594h-14.13104v-1.19594M259.34756,180.9363h8.51324v0.88123h-8.51324v-0.88123M259.4105,182.50992h8.43457v0.86548h-8.43457v-0.86548M259.47346,184.09926h8.46603v0.88122h-8.46603v-0.88122M258.48208,179.2368h10.22848v7.11272h-1.66803v-6.07414h-6.95536v6.07415h-1.60509z" fill="#ffffff" fill-rule="nonzero" stroke-linecap="butt" stroke-linejoin="miter"/></g></g></svg>