<svg version="1.1" xmlns="http://www.w3.org/2000/svg" xmlns:xlink="http://www.w3.org/1999/xlink" width="71.57276" height="35.16225" viewBox="0,0,71.57276,35.16225"><g transform="translate(-204.16258,-162.45805)"><g fill="#ffffff" fill-rule="evenodd" stroke="#ffffff" stroke-width="0.5" stroke-linecap="round" stroke-miterlimit="10"><path d="M238.363,165.79958h-12.36614c-0.81912,1.50613 -1.67788,2.94621 -2.57628,4.32022v26.23841h-3.1708v-21.79928c-3.69927,4.67694 -8.27051,9.11606 -13.71373,13.31738l-2.02139,-2.77445c3.96351,-2.77445 7.458,-5.79993 10.48347,-9.07643c3.02548,-3.2765 5.50267,-6.68511 7.43157,-10.22584h-16.72599v-3.09153h32.65929zM225.28344,176.58032l1.86285,-2.41774c5.33752,4.54482 9.3803,8.12519 12.12833,10.7411l-2.21956,2.61591c-2.24599,-2.32526 -6.16986,-5.97168 -11.77161,-10.93928z"/><path d="M260.70145,162.76983h14.78388v28.77505c0,1.18905 -0.15194,2.11387 -0.4558,2.77445c-0.30387,0.66058 -0.81912,1.1296 -1.54577,1.40704c-0.72664,0.27745 -1.73734,0.41617 -3.03208,0.41617h-3.88424l-0.59453,-2.93299h3.88424c0.7927,0 1.38723,-0.06606 1.78358,-0.19818c0.39635,-0.13212 0.66719,-0.36993 0.81252,-0.71343c0.14533,-0.3435 0.21799,-0.85876 0.21799,-1.54577v-5.86599h-9.55205c-0.39635,2.56307 -1.1362,4.75621 -2.21956,6.57942c-1.08336,1.82321 -2.73482,3.76533 -4.95438,5.82635l-2.3781,-1.86285c2.19314,-1.98175 3.77194,-3.7257 4.73639,-5.23183c0.96445,-1.50613 1.60522,-3.26989 1.9223,-5.29128c0.31708,-2.02139 0.47562,-4.98741 0.47562,-8.89807zM244.60962,163.6418h11.81125v26.19877h-9.1557v2.73482h-2.65555zM263.55518,172.63896h9.11606v-6.8965h-9.11606zM263.39664,182.0721h9.2746v-6.61905h-9.11606v2.02139c0,1.82321 -0.05285,3.35577 -0.15854,4.59767zM253.72568,178.10859h-6.46051v8.83862h6.46051zM247.26517,175.21524h6.46051v-8.64044h-6.46051z"/></g></g></svg>