<svg version="1.1" xmlns="http://www.w3.org/2000/svg" xmlns:xlink="http://www.w3.org/1999/xlink" width="77.67716" height="18.98419" viewBox="0,0,77.67716,18.98419"><g transform="translate(-240.46934,-170.54287)"><g fill="#ffffff" stroke="none" stroke-miterlimit="10"><path d="M240.46934,174.32371h16.42363v9.86218h-2.2405v-7.74171h-12.02266v7.84173h-2.16048v-9.9622M241.58959,181.02519h14.32316v2.12047h-14.32316v-2.12047M247.49089,170.82293h2.2605v18.66412h-2.2605zM263.61446,174.88383h9.98221v1.88042h-9.98221v-1.88042M264.13457,178.92472h9.02199v1.8204h-9.02199v-1.8204M263.3744,183.40571h10.58234v1.76039h-10.58234v-1.76039M267.55533,175.46396h2.00044v8.88196h-2.00044v-8.88196M270.37595,181.44528l1.3603,-0.72016c0.32007,0.30673 0.65081,0.64948 0.99222,1.02823c0.33874,0.38142 0.5948,0.71882 0.76817,1.01222l-1.44032,0.82018c-0.17337,-0.2934 -0.42009,-0.64414 -0.74016,-1.05223c-0.32007,-0.40542 -0.63347,-0.76817 -0.94021,-1.08824M260.25371,171.64311h16.80371v17.84394h-2.2805v-15.86351h-12.34273v15.86351h-2.18048v-17.84394M261.43398,186.5064h14.38318v1.98044h-14.38318zM283.05875,186.36637h11.10245v2.08046h-11.10245v-2.08046M281.99852,180.76513h13.36295v8.70192h-2.30051v-6.64147h-8.86196v6.66147h-2.20049v-8.72193M290.42038,173.90361l1.68037,-1.12025c0.61347,0.57346 1.26428,1.2096 1.95243,1.90842c0.68549,0.70149 1.32829,1.39898 1.92843,2.09246c0.60013,0.69349 1.07357,1.32029 1.42031,1.88042l-1.8204,1.3403c-0.33341,-0.57346 -0.78284,-1.2176 -1.3483,-1.93243c-0.56813,-0.71216 -1.1896,-1.43232 -1.86441,-2.16048c-0.67215,-0.72549 -1.32163,-1.39497 -1.94843,-2.00844M281.23835,179.32481c-0.02667,-0.13336 -0.08402,-0.32674 -0.17204,-0.58013c-0.08535,-0.25339 -0.1747,-0.51745 -0.26806,-0.79218c-0.09335,-0.27206 -0.18671,-0.50144 -0.28006,-0.68815c0.26672,-0.05335 0.53078,-0.18004 0.79218,-0.38008c0.25872,-0.20004 0.55479,-0.4601 0.8882,-0.78017c0.17337,-0.16004 0.42943,-0.42409 0.76817,-0.79218c0.34141,-0.36541 0.71882,-0.80151 1.13225,-1.30829c0.41343,-0.50678 0.83618,-1.05757 1.26828,-1.65237c0.43476,-0.59213 0.83218,-1.18826 1.19226,-1.7884l2.16048,0.94021c-0.60013,0.85352 -1.24694,1.68971 -1.94043,2.50855c-0.69349,0.82152 -1.40031,1.58835 -2.12047,2.30051c-0.72016,0.71482 -1.42698,1.35897 -2.12047,1.93243v0.06001c0,0 -0.06668,0.03334 -0.20004,0.10002c-0.13336,0.06668 -0.28673,0.15337 -0.4601,0.26006c-0.17337,0.10669 -0.32274,0.22005 -0.4481,0.34008c-0.12803,0.12003 -0.19204,0.22672 -0.19204,0.32007M281.23835,179.32481l-0.04001,-1.66037l1.48033,-0.78017l12.44275,-0.4601c0.01334,0.2934 0.04001,0.63347 0.08002,1.02023c0.04001,0.38675 0.08002,0.69349 0.12003,0.9202c-1.93376,0.09335 -3.61013,0.17604 -5.02911,0.24805c-1.42165,0.07468 -2.61924,0.1347 -3.59279,0.18004c-0.97355,0.04801 -1.78039,0.09469 -2.42053,0.14003c-0.64014,0.04801 -1.15359,0.08802 -1.54034,0.12003c-0.38675,0.03467 -0.68949,0.07468 -0.9082,0.12003c-0.22138,0.04801 -0.41876,0.09869 -0.59213,0.15203zM299.94248,172.0232l1.70038,-0.98022c0.28006,0.32007 0.57746,0.68015 0.8922,1.08024c0.31207,0.40009 0.60147,0.79351 0.86819,1.18026c0.26672,0.38675 0.48677,0.7335 0.66015,1.04023l-1.8204,1.12025c-0.1467,-0.30673 -0.34941,-0.66015 -0.60813,-1.06023c-0.26139,-0.40009 -0.54145,-0.81085 -0.84019,-1.23227c-0.3014,-0.41876 -0.58546,-0.80151 -0.85219,-1.14825M299.24233,177.54442l1.74038,-0.9202c0.26672,0.32007 0.54679,0.67615 0.84019,1.06824c0.2934,0.39475 0.56412,0.78151 0.81218,1.16026c0.24539,0.38142 0.44143,0.72549 0.58813,1.03223l-1.86041,1.02023c-0.12003,-0.30673 -0.30007,-0.65348 -0.54012,-1.04023c-0.24005,-0.38675 -0.49611,-0.78684 -0.76817,-1.20027c-0.27473,-0.41343 -0.54545,-0.78684 -0.81218,-1.12025M299.72244,187.72667c0.24005,-0.50678 0.50011,-1.10691 0.78017,-1.8004c0.28006,-0.69349 0.56412,-1.43098 0.85219,-2.21249c0.2854,-0.77884 0.55479,-1.54834 0.80818,-2.30851l1.76039,1.24027c-0.21338,0.68015 -0.44276,1.38697 -0.68815,2.12047c-0.24805,0.7335 -0.50278,1.45366 -0.76417,2.16048c-0.25872,0.70682 -0.52145,1.3803 -0.78817,2.02045l-1.96043,-1.22027M314.18563,175.42395l1.56034,-0.82018c0.30673,0.2934 0.61614,0.61347 0.92821,0.96021c0.31474,0.34674 0.6028,0.69615 0.86419,1.04823c0.25872,0.35474 0.46144,0.67882 0.60813,0.97221l-1.66037,0.9202c-0.13336,-0.2934 -0.32407,-0.62014 -0.57213,-0.98022c-0.24539,-0.36008 -0.51745,-0.72416 -0.81618,-1.09224c-0.3014,-0.36541 -0.60547,-0.70149 -0.9122,-1.00822M306.56395,184.54597h9.24204v1.64036h-9.24204v-1.64036M306.98404,181.92539h7.50166v-1.06023h-9.16202v-1.58035h11.18247v4.24094h-9.5221v-1.60035M306.30389,181.92539h2.10046c-0.16004,0.7335 -0.33341,1.48699 -0.52011,2.2605c-0.18671,0.7735 -0.36675,1.44032 -0.54012,2.00044h-2.14047c0.20004,-0.60013 0.40009,-1.28695 0.60013,-2.06046c0.20004,-0.7735 0.36675,-1.507 0.50011,-2.20049M315.22586,184.54597h2.14047c0,0 -0.01334,0.10002 -0.04001,0.30007c-0.02667,0.20004 -0.06001,0.37342 -0.10002,0.52011c-0.18671,1.04023 -0.39075,1.84041 -0.61214,2.40053c-0.21871,0.56012 -0.47477,0.96688 -0.76817,1.22027c-0.21338,0.17337 -0.43743,0.29607 -0.67215,0.36808c-0.23205,0.07468 -0.50144,0.11869 -0.80818,0.13203c-0.26672,0.02667 -0.6268,0.04001 -1.08024,0.04001c-0.45343,0 -0.94688,-0.01334 -1.48033,-0.04001c-0.01334,-0.26672 -0.06668,-0.56412 -0.16004,-0.8922c-0.09335,-0.32541 -0.22005,-0.6148 -0.38008,-0.86819c0.45343,0.04001 0.88953,0.06668 1.30829,0.08002c0.42143,0.01334 0.72549,0.02 0.9122,0.02c0.16004,0 0.2974,-0.01067 0.41209,-0.03201c0.11202,-0.01867 0.21471,-0.06135 0.30807,-0.12803c0.17337,-0.16004 0.35074,-0.46677 0.53212,-0.9202c0.17871,-0.45343 0.33474,-1.11358 0.4681,-1.98044l0.02,-0.22005M305.04361,172.4833h12.80283v1.74038h-12.80283v-1.74038M311.90513,173.46352h1.96043v5.34118h-1.96043v-5.34118M306.30389,174.62377l1.76039,0.52011c-0.32007,0.64014 -0.72683,1.26961 -1.22027,1.88842c-0.49344,0.62147 -0.98688,1.14559 -1.48033,1.57235c-0.10669,-0.10669 -0.24672,-0.22672 -0.42009,-0.36008c-0.17337,-0.13336 -0.35608,-0.27073 -0.54812,-0.41209c-0.19471,-0.1387 -0.36541,-0.24805 -0.51211,-0.32807c0.49344,-0.37342 0.95088,-0.81351 1.3723,-1.32029c0.41876,-0.50678 0.76817,-1.02689 1.04823,-1.56034M308.36434,173.48352h1.94043v5.34118h-1.94043v-5.34118M309.86468,171.00297l2.00044,-0.4601c0.24005,0.40009 0.4561,0.84685 0.64814,1.3403c0.19471,0.49344 0.32541,0.9202 0.39209,1.28028l-2.14047,0.54012c-0.05335,-0.36008 -0.1667,-0.79351 -0.34008,-1.30029c-0.17337,-0.50678 -0.36008,-0.97355 -0.56012,-1.40031z"/></g></g></svg>