<svg version="1.1" xmlns="http://www.w3.org/2000/svg" xmlns:xlink="http://www.w3.org/1999/xlink" width="209.21225" height="32" viewBox="0,0,209.21225,32"><g transform="translate(-238.78775,-164)"><g stroke-miterlimit="10"><path d="M240,196v-32h208v32z" fill="none" fill-rule="nonzero" stroke="none" stroke-width="0" stroke-linecap="butt"/><path d="M241.19723,178.30563v-7.35276h15.24105v15.81168c0,0.7519 -0.08003,1.31945 -0.2401,1.70263c-0.16007,0.38318 -0.43844,0.65069 -0.83513,0.80251c-0.39668,0.15183 -0.97779,0.22774 -1.74333,0.22774h-2.23396l-0.27142,-1.58334h2.12957c0.48716,0 0.84209,-0.03615 1.06479,-0.10845c0.2227,-0.0723 0.37233,-0.20605 0.44888,-0.40126c0.07655,-0.19521 0.11483,-0.50247 0.11483,-0.92181v-14.03314h-12.10933v6.46349c0,1.99544 -0.05567,3.57516 -0.16703,4.73917c-0.11135,1.16401 -0.31665,2.20149 -0.61591,3.11245c-0.29925,0.91096 -0.75509,1.92314 -1.36752,3.03654l-1.48235,-0.86758c0.61243,-1.0411 1.06131,-1.98821 1.34664,-2.84133c0.28533,-0.85312 0.47672,-1.84361 0.57415,-2.97147c0.09743,-1.12786 0.14615,-2.73288 0.14615,-4.81508zM278.52737,174.68348h-7.51614l-0.08351,2.75457l-0.02088,0.629h6.36784c-0.04176,0.98326 -0.09743,2.36778 -0.16703,4.15355c-0.06959,1.78577 -0.13223,3.15583 -0.1879,4.11017c-0.06959,0.79528 -0.2053,1.39536 -0.40712,1.80023c-0.20182,0.40487 -0.51499,0.68684 -0.93952,0.84589c-0.42452,0.15906 -1.02651,0.23859 -1.80596,0.23859h-2.25484l-0.31317,-1.64841h1.98342c0.55675,0 0.98127,-0.05061 1.27357,-0.15183c0.29229,-0.10122 0.50804,-0.28196 0.64722,-0.54224c0.13919,-0.26027 0.22966,-0.63623 0.27142,-1.12786c0.05567,-0.79528 0.11831,-1.91952 0.1879,-3.37272c0.06959,-1.4532 0.10439,-2.33886 0.10439,-2.65697h-4.84373c-0.11135,1.60503 -0.30273,2.96785 -0.57415,4.08848c-0.27142,1.12063 -0.66114,2.1545 -1.16918,3.10161c-0.50804,0.94711 -1.20745,1.93398 -2.09825,2.96062l-1.25269,-1.12786c1.02999,-1.14232 1.78508,-2.1798 2.26528,-3.11245c0.4802,-0.93265 0.81425,-1.99905 1.00215,-3.19921c0.1879,-1.20016 0.32361,-2.93532 0.40712,-5.20549c0.02784,-0.34703 0.05567,-1.19293 0.08351,-2.53768h-2.0043v-1.58334h4.90637l-1.02303,-2.9064l1.56586,-0.4121l1.12742,3.3185h4.46792zM296.62873,186.6778h2.81855v1.47489h-6.80628v1.58334h-1.37796v-12.10277c-0.37581,0.8242 -0.69594,1.48935 -0.9604,1.99544l-0.77249,-1.69178c0.58459,-1.02664 1.11698,-2.24848 1.59718,-3.66553c0.4802,-1.41705 0.85948,-2.89917 1.13786,-4.44636l1.41971,0.30365c-0.2227,1.0411 -0.50804,2.12558 -0.856,3.25343h2.88119c-0.25054,-1.17124 -0.50108,-2.1545 -0.75161,-2.94978l1.21093,-0.32534c0.18094,0.59285 0.4802,1.68455 0.89776,3.27512h2.15045v1.49658h-2.58889v2.92809h2.31748v1.38813h-2.31748v2.9064h2.31748v1.40982h-2.31748zM264.26759,185.76684h-1.08566l-0.29229,-1.53996h0.9604c0.72378,0 1.22137,-0.13737 1.49279,-0.4121c0.27142,-0.27473 0.40712,-0.78082 0.40712,-1.51827c0,-1.28691 -0.59155,-2.70396 -1.77464,-4.25115l1.60762,-5.27056h-3.06909v17.00461h-1.46147v-18.60963h6.03379v1.62672l-1.67025,4.92353c0.61243,0.91096 1.06131,1.76047 1.34664,2.54852c0.28533,0.78805 0.428,1.58695 0.428,2.3967c0,0.80974 -0.09395,1.43874 -0.28186,1.88699c-0.1879,0.44825 -0.49064,0.76275 -0.9082,0.9435c-0.41756,0.18075 -0.99519,0.27112 -1.73289,0.27112zM289.94772,171.92891v1.58334c-0.26446,2.89194 -0.73074,5.473 -1.39884,7.74317c0.86296,2.0822 1.60066,3.96196 2.21308,5.63928l-1.27357,0.80251c-0.18094,-0.53501 -0.62634,-1.74239 -1.3362,-3.62215l-0.29229,-0.73744c-0.64026,1.74962 -1.52411,3.6077 -2.65153,5.57421l-1.06479,-1.34475c1.25269,-2.0822 2.227,-4.18608 2.92294,-6.31166c-0.72378,-1.87976 -1.42667,-3.65107 -2.10869,-5.31394l1.19005,-0.60731l1.54498,3.77398c0.43148,-1.82192 0.7377,-3.70891 0.91864,-5.66097h-3.36138v-1.51827zM253.99554,179.60701h-10.48083v-1.36644h4.4888v-1.99544h-3.79982v-1.34475h3.79982v-1.88699h1.46147v1.88699h3.8207v1.34475h-3.8207v1.99544h4.53056zM244.89266,186.95976v-5.48746h7.68316v5.48746zM281.30416,189.04196l2.0043,-8.00344l0.75161,0.19521l0.6681,0.2169l-1.94167,8.02513zM246.31238,182.90382v2.62444h4.86461v-2.62444zM295.25077,186.6778v-3.16667h-2.60977v3.16667zM284.93696,178.43577l-1.00215,1.27968c-0.72378,-0.80974 -1.69113,-1.77854 -2.90206,-2.9064l0.91864,-1.19293c1.44755,1.31583 2.44274,2.25571 2.98558,2.81964zM292.641,174.87868v2.92809h2.60977v-2.92809zM292.641,179.1949v2.9064h2.60977v-2.9064zM285.06223,172.83987l-0.9604,1.27968c-0.72378,-0.7519 -1.56586,-1.53273 -2.52626,-2.34247l0.87688,-1.2363c0.8908,0.69407 1.76072,1.46043 2.60977,2.29909z" fill="#ffffff" fill-rule="evenodd" stroke="#ffffff" stroke-width="0.5" stroke-linecap="round"/></g></g></svg>