<svg version="1.1" xmlns="http://www.w3.org/2000/svg" xmlns:xlink="http://www.w3.org/1999/xlink" width="208" height="32" viewBox="0,0,208,32"><g transform="translate(-240,-164)"><g stroke="none" stroke-miterlimit="10"><path d="M240.00001,196v-32h208v32z" fill="none" stroke-width="0"/><path d="M243.93685,175.01374h10.03525v1.89041h-10.03525v-1.89041M244.45973,179.07611h9.06994v1.83008h-9.06994v-1.83008M243.69552,183.58091h10.63857v1.76974h-10.63857v-1.76974M247.89866,175.59695h2.01107v8.92916h-2.01107v-8.92916M250.73428,181.61006l1.36753,-0.72399c0.32177,0.30836 0.65427,0.65293 0.99749,1.03369c0.34054,0.38345 0.59796,0.72264 0.77225,1.0176l-1.44797,0.82454c-0.17429,-0.29496 -0.42233,-0.64757 -0.7441,-1.05782c-0.32177,-0.40758 -0.63684,-0.77225 -0.9452,-1.09402M240.55825,171.7558h16.89301v17.93876h-2.29262v-15.9478h-12.40831v15.9478h-2.19207v-17.93876M241.74478,186.69807h14.45961v1.99096h-14.45961zM263.02193,176.48182h15.44503v2.0714h-15.44503v-2.0714M266.42064,186.7584h9.21071v2.01107h-9.21071v-2.01107M275.41013,171.03182l1.76974,1.74963c-1.01894,0.25474 -2.12503,0.47864 -3.31827,0.6717c-1.19324,0.19574 -2.4334,0.36333 -3.72048,0.50277c-1.28709,0.14212 -2.57819,0.26278 -3.87332,0.36199c-1.29245,0.10189 -2.5554,0.17966 -3.78886,0.23328c-0.02681,-0.28155 -0.09787,-0.60734 -0.21317,-0.97738c-0.11262,-0.36736 -0.22256,-0.6717 -0.32982,-0.91303c1.19324,-0.05363 2.41597,-0.13407 3.6682,-0.24133c1.25491,-0.10726 2.47898,-0.23194 3.67222,-0.37406c1.19324,-0.13943 2.31273,-0.29362 3.35849,-0.46255c1.04576,-0.16625 1.97085,-0.34993 2.77528,-0.55103M265.4151,180.9464h11.66422v8.70794h-2.29262v-6.69687h-7.19964v6.7572h-2.17196v-8.76827M261.93595,172.66079h2.23229v5.47012c0,0.84465 -0.03352,1.77242 -0.10055,2.78332c-0.06704,1.01358 -0.19843,2.04593 -0.39417,3.09705c-0.19306,1.0538 -0.47327,2.07677 -0.84063,3.0689c-0.37004,0.99213 -0.85672,1.8837 -1.46004,2.67473c-0.12066,-0.16089 -0.29496,-0.33518 -0.52288,-0.52288c-0.22792,-0.1877 -0.45584,-0.37272 -0.68376,-0.55506c-0.22792,-0.17966 -0.42903,-0.31641 -0.60332,-0.41026c0.54969,-0.72399 0.9814,-1.51233 1.29513,-2.36502c0.31641,-0.85001 0.55103,-1.73489 0.70388,-2.65462c0.15552,-0.91705 0.25608,-1.81131 0.30166,-2.68277c0.04827,-0.87146 0.0724,-1.6893 0.0724,-2.45351zM295.88285,179.63921h2.13174c0,0 -0.00402,0.05363 -0.01207,0.16089c-0.00536,0.10726 -0.00804,0.22792 -0.00804,0.36199c0,0.13407 -0.0067,0.25474 -0.02011,0.36199c-0.09385,1.79656 -0.1944,3.25391 -0.30166,4.37207c-0.10726,1.12084 -0.23463,1.98292 -0.3821,2.58624c-0.14748,0.60332 -0.32847,1.03235 -0.54299,1.28709c-0.22792,0.26814 -0.47193,0.45584 -0.73203,0.5631c-0.26278,0.10726 -0.56846,0.181 -0.91705,0.22122c-0.29496,0.04022 -0.68108,0.06033 -1.15838,0.06033c-0.47461,0 -0.97336,-0.0067 -1.49624,-0.02011c-0.02681,-0.29496 -0.09787,-0.63014 -0.21317,-1.00554c-0.11262,-0.3754 -0.24937,-0.69047 -0.41026,-0.9452c0.49607,0.04022 0.95861,0.06301 1.38764,0.06838c0.42903,0.00804 0.7441,0.01207 0.9452,0.01207c0.17429,0 0.31775,-0.01341 0.43037,-0.04022c0.1153,-0.02681 0.22658,-0.09385 0.33384,-0.20111c0.14748,-0.16089 0.28155,-0.50947 0.40221,-1.04576c0.12066,-0.53629 0.22524,-1.32731 0.31373,-2.37307c0.08581,-1.04576 0.16893,-2.40658 0.24937,-4.08248v-0.34188M285.94815,182.17316h1.99096v4.76624h-1.99096v-4.76624M290.97583,182.95748h1.97085v5.61089h-1.97085v-5.61089M281.10147,182.9977h1.97085v3.21772h8.72805v1.78985h-10.6989v-5.00757M293.63044,172.64068h2.01107c0,0 0,0.09385 0,0.28155c0,0.1877 -0.0067,0.34188 -0.02011,0.46255c-0.06704,1.00554 -0.13675,1.84348 -0.20915,2.51384c-0.07508,0.67036 -0.16357,1.19994 -0.26546,1.58875c-0.09921,0.38881 -0.23597,0.67036 -0.41026,0.84465c-0.16089,0.20111 -0.33786,0.34456 -0.53092,0.43037c-0.19574,0.08849 -0.42098,0.14614 -0.67572,0.17295c-0.21452,0.04022 -0.49204,0.06301 -0.83258,0.06838c-0.34322,0.00804 -0.70924,0.00536 -1.09805,-0.00804c-0.02681,-0.29496 -0.08715,-0.62075 -0.181,-0.97738c-0.09385,-0.35395 -0.21452,-0.65829 -0.36199,-0.91303c0.30836,0.02681 0.58991,0.04692 0.84465,0.06033c0.25474,0.01341 0.44914,0.02011 0.58321,0.02011c0.12066,0 0.22792,-0.01341 0.32177,-0.04022c0.09385,-0.02681 0.17429,-0.08044 0.24133,-0.16089c0.13407,-0.14748 0.24803,-0.52288 0.34188,-1.1262c0.09385,-0.60332 0.17429,-1.58875 0.24133,-2.95628v-0.26144M287.71789,170.87093l2.57417,0.22122c-0.21452,0.49607 -0.45584,0.9747 -0.72399,1.43591c-0.26814,0.46389 -0.50947,0.86342 -0.72399,1.1986l-1.91052,-0.34188c0.14748,-0.3754 0.29764,-0.79773 0.45048,-1.26698c0.15552,-0.46925 0.2668,-0.88487 0.33384,-1.24686M285.50571,176.46171l1.06587,-1.36753c0.46925,0.16089 0.97202,0.35529 1.5083,0.58321c0.53629,0.22792 1.04844,0.46255 1.53646,0.70388c0.4907,0.24133 0.89694,0.46925 1.21871,0.68376l-1.1262,1.5083c-0.29496,-0.21452 -0.68376,-0.44914 -1.16642,-0.70388c-0.48266,-0.25474 -0.98811,-0.50679 -1.51635,-0.75616c-0.53092,-0.24669 -1.03771,-0.46389 -1.52037,-0.65159M294.25388,172.64068v1.93063h-9.5727v5.0679h11.84521v1.89041h-13.95684v-8.88894zM310.78489,175.41595h8.04429v1.99096h-8.04429v-1.99096M315.20925,171.31337h2.0714v15.82714c0,0.54969 -0.06301,0.98811 -0.18904,1.31524c-0.12871,0.32982 -0.35395,0.58857 -0.67572,0.77627c-0.32177,0.17429 -0.73069,0.29094 -1.22675,0.34993c-0.49607,0.06167 -1.11279,0.08581 -1.85019,0.0724c-0.04022,-0.28155 -0.12737,-0.63416 -0.26144,-1.05782c-0.13407,-0.42098 -0.26814,-0.77895 -0.40221,-1.07391c0.46925,0.01341 0.909,0.02279 1.31926,0.02816c0.40758,0.00804 0.6784,0.00536 0.81247,-0.00804c0.14748,-0.01341 0.25205,-0.04692 0.31373,-0.10055c0.05899,-0.05363 0.08849,-0.15418 0.08849,-0.30166v-15.82714M310.88544,179.69954l1.66919,-0.72399c0.24133,0.46925 0.48266,0.968 0.72399,1.49624c0.24133,0.53092 0.46925,1.05112 0.68376,1.56059c0.21452,0.50947 0.3821,0.96531 0.50277,1.36753l-1.74963,0.84465c-0.12066,-0.41562 -0.28155,-0.88487 -0.48266,-1.40775c-0.20111,-0.52288 -0.4183,-1.05917 -0.65159,-1.60886c-0.23597,-0.54969 -0.46791,-1.05917 -0.69583,-1.52841M309.65869,170.97149l1.95074,0.52288c-0.33518,1.08598 -0.73739,2.15855 -1.20664,3.21772c-0.46925,1.05917 -0.98543,2.058 -1.54853,2.9965c-0.5631,0.9385 -1.15301,1.76304 -1.76974,2.47362c-0.06704,-0.14748 -0.17697,-0.3392 -0.32982,-0.57517c-0.15552,-0.23328 -0.31641,-0.47059 -0.48266,-0.71192c-0.16893,-0.24133 -0.32043,-0.42903 -0.4545,-0.5631c0.80443,-0.89828 1.54584,-1.99766 2.22425,-3.29816c0.67572,-1.30049 1.21469,-2.65462 1.6169,-4.06237M300.83008,171.79603h4.64558v1.93063h-2.75517v15.98802h-1.89041v-17.91865M304.81201,171.79603h0.34188l0.32177,-0.08044l1.38764,0.78432c-0.24133,0.88487 -0.51215,1.82337 -0.81247,2.8155c-0.303,0.99213 -0.59528,1.89041 -0.87683,2.69484c0.58991,0.83124 0.97604,1.61556 1.15838,2.35295c0.17966,0.73739 0.26948,1.41445 0.26948,2.03118c0,0.64354 -0.06704,1.18251 -0.20111,1.6169c-0.13407,0.43707 -0.34859,0.76957 -0.64354,0.99749c-0.28155,0.22792 -0.63684,0.3687 -1.06587,0.42233c-0.36199,0.05363 -0.77762,0.06704 -1.24686,0.04022c0,-0.26814 -0.0362,-0.58053 -0.1086,-0.93716c-0.07508,-0.35395 -0.18636,-0.665 -0.33384,-0.93314c0.17429,0.01341 0.32847,0.02279 0.46255,0.02816c0.13407,0.00804 0.26144,0.00536 0.3821,-0.00804c0.21452,0 0.39551,-0.05363 0.54299,-0.16089c0.10726,-0.09385 0.1877,-0.26144 0.24133,-0.50277c0.05363,-0.24133 0.08044,-0.51618 0.08044,-0.82454c0,-0.49607 -0.08715,-1.0833 -0.26144,-1.7617c-0.17429,-0.67572 -0.53629,-1.38898 -1.08598,-2.13978c0.13407,-0.45584 0.27216,-0.95191 0.41428,-1.48819c0.13943,-0.53629 0.27351,-1.07257 0.40221,-1.60886c0.12603,-0.53629 0.24669,-1.04308 0.36199,-1.52037c0.11262,-0.47461 0.20245,-0.87951 0.26948,-1.21469v-0.60332M308.11016,175.95894l1.66919,-1.66919l0.24133,0.10055v15.24393h-1.91052zM328.74376,176.64271h9.91459v2.01107h-9.91459v-2.01107M333.04746,177.5678h2.13174v8.66772h-2.13174v-8.66772M324.90262,178.15101v8.04429h-2.11163v-5.91255h-2.41329v-2.13174h4.52491M327.55723,172.1178h2.19207v4.44447c0,0.72399 -0.02681,1.51098 -0.08044,2.361c-0.05363,0.85269 -0.15686,1.72148 -0.30971,2.60635c-0.15552,0.88487 -0.37674,1.74293 -0.66365,2.57417c-0.28959,0.83124 -0.66231,1.58204 -1.11816,2.2524c-0.12066,-0.12066 -0.29764,-0.26814 -0.53092,-0.44244c-0.23597,-0.17429 -0.47461,-0.3392 -0.71594,-0.49472c-0.24133,-0.15284 -0.44244,-0.26948 -0.60332,-0.34993c0.5631,-0.83124 0.97202,-1.74695 1.22675,-2.74712c0.25474,-0.99749 0.41964,-1.99901 0.49472,-3.00454c0.0724,-1.00554 0.1086,-1.92393 0.1086,-2.75517v-4.44447M336.60706,170.97149l1.76974,1.60886c-0.92509,0.29496 -1.96415,0.53629 -3.11716,0.72399c-1.15301,0.1877 -2.34223,0.33116 -3.56764,0.43037c-1.2281,0.10189 -2.41195,0.16625 -3.55155,0.19306c-0.04022,-0.25474 -0.11664,-0.56042 -0.22926,-0.91705c-0.1153,-0.35395 -0.23328,-0.65159 -0.35395,-0.89292c0.81784,-0.04022 1.6464,-0.09117 2.48569,-0.15284c0.83661,-0.05899 1.66115,-0.13541 2.47362,-0.22926c0.80979,-0.09385 1.56327,-0.20513 2.26045,-0.33384c0.69717,-0.12603 1.3072,-0.26948 1.83008,-0.43037M323.79653,185.10932c0.24133,0 0.46657,0.05631 0.67572,0.16893c0.20647,0.1153 0.44109,0.26278 0.70388,0.44244c0.2601,0.18234 0.58455,0.38076 0.97336,0.59528c0.67036,0.38881 1.4587,0.63684 2.36502,0.7441c0.90364,0.10726 1.91856,0.16089 3.04476,0.16089c0.54969,0 1.15033,-0.0067 1.80192,-0.02011c0.64891,-0.01341 1.30854,-0.04022 1.97889,-0.08044c0.67036,-0.04022 1.31792,-0.09117 1.9427,-0.15284c0.62209,-0.05899 1.18787,-0.12201 1.69734,-0.18904c-0.08044,0.1877 -0.16759,0.42233 -0.26144,0.70388c-0.09385,0.28155 -0.17429,0.55908 -0.24133,0.83258c-0.06704,0.27619 -0.10726,0.51483 -0.12066,0.71594c-0.36199,0.02681 -0.82454,0.05363 -1.38764,0.08044c-0.5631,0.02681 -1.17312,0.04961 -1.83008,0.06838c-0.65695,0.02145 -1.30317,0.03888 -1.93867,0.05229c-0.63818,0.01341 -1.21201,0.02011 -1.72148,0.02011c-1.26027,0 -2.34223,-0.07374 -3.24587,-0.22122c-0.90632,-0.14748 -1.72148,-0.42233 -2.44546,-0.82454c-0.45584,-0.25474 -0.85135,-0.51349 -1.18653,-0.77627c-0.33518,-0.2601 -0.61673,-0.39015 -0.84465,-0.39015c-0.21452,0 -0.44914,0.12335 -0.70388,0.37004c-0.25474,0.24937 -0.52288,0.56846 -0.80443,0.95727c-0.28155,0.38881 -0.5564,0.79102 -0.82454,1.20664l-1.44797,-2.05129c0.68376,-0.72399 1.36485,-1.3072 2.04325,-1.74963c0.67572,-0.44244 1.26832,-0.66365 1.77779,-0.66365M320.7397,172.35913l1.66919,-1.06587c0.36199,0.34859 0.73739,0.73069 1.1262,1.14631c0.38881,0.41562 0.7575,0.82722 1.10609,1.2348c0.34859,0.41026 0.63014,0.78298 0.84465,1.11816l-1.76974,1.22675c-0.1877,-0.33518 -0.44914,-0.71728 -0.78432,-1.14631c-0.33518,-0.42903 -0.69315,-0.86208 -1.07391,-1.29915c-0.38345,-0.43439 -0.75616,-0.83929 -1.11816,-1.21469z" fill="#ffffff" stroke-width="1"/></g></g></svg>