<svg version="1.1" xmlns="http://www.w3.org/2000/svg" xmlns:xlink="http://www.w3.org/1999/xlink" width="98.39473" height="20.94135" viewBox="0,0,98.39473,20.94135"><g transform="translate(-241.59175,-170.38645)"><g fill="#ffffff" fill-rule="evenodd" stroke="#ffffff" stroke-width="0.5" stroke-linecap="round" stroke-miterlimit="10"><path d="M332.25497,180.94531h7.46644l-0.408,6.9687c-0.0816,0.94994 -0.3026,1.59931 -0.663,1.94812c-0.3604,0.34881 -0.9622,0.52321 -1.80541,0.52321h-1.71361l-0.2652,-1.40265h1.48921c0.4216,0 0.7378,-0.0371 0.9486,-0.11132c0.2108,-0.07422 0.3706,-0.21522 0.4794,-0.42302c0.1088,-0.2078 0.1904,-0.52692 0.2448,-0.95736l0.3468,-5.14303h-1.36681c-0.3672,1.88504 -0.93841,3.48435 -1.71361,4.79794c-0.7752,1.31359 -1.90401,2.57152 -3.38642,3.77378l-0.93841,-1.11321c1.36001,-0.97962 2.40721,-2.05202 3.14162,-3.21718c0.7344,-1.16516 1.28521,-2.57894 1.65241,-4.24133h-1.50961c-0.4216,1.2468 -0.9588,2.34516 -1.61161,3.2951c-0.6528,0.94994 -1.54361,1.91472 -2.67241,2.89435l-0.8568,-1.20227c0.9656,-0.75698 1.75101,-1.53623 2.35621,-2.33774c0.6052,-0.80151 1.09141,-1.68466 1.45861,-2.64944h-1.53001c-0.476,0.71245 -1.06081,1.41749 -1.75441,2.1151l-0.7752,-1.02415v1.2468h-1.20361v-11.68871h-3.63122v11.7555h-1.22401v-13.18041h6.05883v11.66645c0.6256,-0.60856 1.1662,-1.23937 1.62181,-1.89246c0.4556,-0.65308 0.8806,-1.43233 1.27501,-2.33774h-0.9996v-7.79247h8.11924v7.79247h-5.71203c-0.2856,0.69761 -0.5916,1.34327 -0.91801,1.93699zM311.40607,179.43135h5.56923v9.57361h2.67241v1.29132h-18.01329v-1.29132h2.69281v-9.57361h5.54883v-1.29132h-7.56844v-1.22453h7.58884v-1.33585h-6.87483v-4.16341h15.21847v4.16341h-6.85443v1.33585h7.56844v1.22453h-7.54804zM250.26699,187.55779h5.26323v-13.22494h1.53001v16.3642h-1.53001v-1.40265h-13.68846v-14.96155h1.57081v13.22494h5.26323v-16.78722h1.59121zM299.26802,184.59665h-10.13885c-1.0336,1.2468 -2.29841,2.53812 -3.79442,3.87397l9.15964,-0.37849l-2.24401,-2.31548l0.9996,-1.09095c0.5848,0.57887 1.1458,1.1429 1.68301,1.69208c0.5372,0.54918 1.00981,1.03158 1.41781,1.44717c1.46881,1.51397 2.07401,2.12994 1.81561,1.84793l-1.0608,1.26906c-0.2312,-0.26717 -0.6528,-0.73472 -1.26481,-1.40265l-12.60726,0.60114l-0.3876,-1.58076c1.60481,-1.2468 3.01242,-2.56781 4.22282,-3.96303h-5.85483v-1.51397h2.69281v-11.57739h12.60726v11.57739h2.75401zM271.70749,179.45361v1.60302h-2.50921v9.59587h-1.46881v-9.59587h-2.99881c-0.0272,1.64755 -0.119,2.98711 -0.2754,4.01869c-0.1564,1.03158 -0.4148,1.97038 -0.7752,2.81642c-0.3604,0.84604 -0.8942,1.83309 -1.60141,2.96114l-1.36681,-0.89057c0.7208,-1.039 1.25121,-1.93328 1.59121,-2.68284c0.34,-0.74956 0.5848,-1.58447 0.7344,-2.50472c0.1496,-0.92025 0.238,-2.15963 0.2652,-3.71812h-2.32561v-1.60302h2.34601v-0.24491v-5.63285h-1.91761v-1.62529h9.79205v1.62529h-1.99921v5.87775zM326.46135,174.51096v6.14492c0,1.58818 -0.0748,2.87951 -0.2244,3.87397c0.6256,0.71245 1.46881,1.74403 2.52961,3.09473c0.1632,0.19296 0.3026,0.36365 0.4182,0.51208c0.1156,0.14843 0.2142,0.27459 0.2958,0.37849l-1.0404,1.04642c-0.8568,-1.17258 -1.71361,-2.30063 -2.57041,-3.38416c-0.2448,0.80151 -0.595,1.56221 -1.05061,2.28208c-0.4556,0.71988 -1.071,1.5251 -1.84621,2.41567l-0.93841,-1.20227c0.93841,-1.00931 1.62861,-1.88875 2.07061,-2.63831c0.442,-0.74956 0.7412,-1.59189 0.8976,-2.52699c0.1564,-0.9351 0.2346,-2.22642 0.2346,-3.87397v-6.12266zM295.0452,183.08268v-2.44906h-9.64924v2.44906zM285.39595,176.82644v2.36001h9.64924v-2.36001zM285.39595,175.42379h9.64924v-2.33774h-9.64924zM277.68472,182.5706l1.0404,1.15774c-1.08801,1.41007 -2.22701,2.70139 -3.41702,3.87397c-1.19001,1.17258 -2.59421,2.24868 -4.21262,3.22831l-0.918,-1.44717c1.55041,-0.87573 2.90701,-1.8739 4.06982,-2.99453c1.16281,-1.12063 2.30861,-2.3934 3.43742,-3.81831zM315.42489,189.00496v-1.22453h-9.58804v1.22453zM305.83685,183.06042v1.20227h9.58804v-1.20227zM305.83685,186.62269h9.58804v-1.20227h-9.58804zM305.83685,181.90268h9.58804v-1.18h-9.58804zM271.70749,183.92872l-0.87721,-1.40265c1.08801,-0.74214 2.17601,-1.62529 3.26402,-2.64944c1.08801,-1.02415 2.04681,-2.05573 2.87641,-3.09473l1.06081,1.22453c-0.8432,1.039 -1.81561,2.07428 -2.91721,3.10586c-1.10161,1.03158 -2.23721,1.97038 -3.40682,2.81642zM271.72789,177.40531l-0.8568,-1.38038c0.93841,-0.60856 1.93461,-1.40265 2.98861,-2.38227c1.054,-0.97962 1.95501,-1.93699 2.70301,-2.87208l1.0608,1.15774c-0.748,0.9351 -1.65581,1.89617 -2.72341,2.88321c-1.06761,0.98705 -2.12501,1.85164 -3.17221,2.59378zM264.75105,179.16418v0.28944h2.97841v-5.87775h-2.97841zM332.03057,174.44417h5.56923v-1.84793h-5.56923zM337.5998,175.78002h-5.56923v1.84793h5.56923zM307.67286,174.4219v-1.87019h-3.16202v1.87019zM313.62969,172.55171v1.87019h3.14161v-1.87019zM312.20168,172.55171h-3.10081v1.87019h3.10081z"/></g></g></svg>