<svg version="1.1" xmlns="http://www.w3.org/2000/svg" xmlns:xlink="http://www.w3.org/1999/xlink" width="208" height="32" viewBox="0,0,208,32"><g transform="translate(-240,-164)"><g stroke-miterlimit="10"><path d="M240,196.00001v-32h208v32z" fill="none" fill-rule="nonzero" stroke="none" stroke-width="0" stroke-linecap="butt"/><path d="M245.1763,173.85339v5.62876h13.02541l-0.3048,6.72607c-0.08128,1.02957 -0.35561,1.75095 -0.82298,2.16413c-0.46737,0.41318 -1.22262,0.61977 -2.26573,0.61977h-2.33685l-0.28449,-1.44275h1.99141c0.54188,0 0.96183,-0.06096 1.25987,-0.18288c0.29803,-0.12193 0.5114,-0.31159 0.6401,-0.56897c0.12869,-0.25739 0.21337,-0.61639 0.25401,-1.07699c0.04064,-0.60961 0.08466,-1.41566 0.13208,-2.41814c0.04742,-1.00248 0.08467,-1.80852 0.11176,-2.41813h-12.94413v-8.43299h3.94217l0.26416,-0.65025l0.52833,-1.38179l1.58499,0.18288l-0.26416,0.71121c-0.14901,0.4335 -0.28448,0.81282 -0.40641,1.13795h7.01055c-0.12192,2.11333 -0.19643,3.29869 -0.22352,3.55608c-0.06774,0.65025 -0.19304,1.15488 -0.37592,1.51387c-0.18288,0.35899 -0.4606,0.61639 -0.83314,0.77218c-0.37254,0.15579 -0.89072,0.23368 -1.55452,0.23368h-1.74756l-0.28449,-1.30051h1.585c0.60961,0 1.02957,-0.09822 1.25987,-0.29465c0.2303,-0.19643 0.36577,-0.53172 0.40641,-1.00586l0.1016,-1.01602c0.04064,-0.40641 0.06773,-0.75863 0.08128,-1.05667zM299.63513,183.5056h-10.09927c-1.02957,1.13795 -2.28944,2.31654 -3.77961,3.53576l9.12388,-0.34544l-2.23525,-2.11333l0.99571,-0.9957c0.58252,0.52833 1.14133,1.04312 1.67643,1.54435c0.5351,0.50124 1.00587,0.94151 1.41228,1.32083c1.46308,1.38179 2.06591,1.94399 1.80852,1.6866l-1.05667,1.15827c-0.2303,-0.24384 -0.65025,-0.67057 -1.25987,-1.28019l-12.55804,0.54865l-0.38609,-1.44275c1.59854,-1.13795 3.00066,-2.34363 4.20634,-3.61705h-5.83197v-1.38179h2.6823v-10.56664h12.55804v10.56664h2.74327zM302.17519,171.65878h17.55687v1.4834h-5.91325v2.98711h4.77531v13.14733h-1.44275v-1.54435h-12.45644v1.54435h-1.46307v-13.14733h4.5721v-2.98711h-5.62876zM279.15211,187.48841l-0.8941,1.36147c-1.77465,-1.04312 -3.18015,-2.20477 -4.2165,-3.48496c-1.03634,-1.28019 -1.84578,-2.88212 -2.42829,-4.80579h-1.64596v6.60415l3.43416,-1.54435l0.28449,1.48339l-5.16139,2.19461l-0.6909,-1.34115c0.28449,-0.16257 0.46738,-0.29803 0.54865,-0.40641c0.08128,-0.10837 0.12192,-0.27094 0.12192,-0.48769v-15.36227h9.10357v8.85972h-4.55178c0.40641,1.16504 0.87378,2.14719 1.40211,2.94646c1.02957,-0.70444 2.11333,-1.50371 3.25128,-2.39781l0.85346,1.05666c-0.86701,0.67735 -1.97108,1.4834 -3.31223,2.41814c0.96184,1.13795 2.26234,2.10655 3.90152,2.90582zM339.86964,173.4673l-1.6866,5.18171c0.71799,0.93474 1.21923,1.7645 1.50371,2.48926c0.28449,0.72476 0.42673,1.49355 0.42673,2.30637c0,1.15149 -0.24385,1.97109 -0.73154,2.45878c-0.48769,0.48769 -1.30728,0.73154 -2.45877,0.73154h-1.15827l-0.3048,-1.44275h1.05666c0.79927,0 1.35808,-0.14563 1.67644,-0.43689c0.31835,-0.29126 0.47753,-0.80943 0.47753,-1.55452c0,-0.65025 -0.15918,-1.31405 -0.47753,-1.9914c-0.31835,-0.67735 -0.82298,-1.4292 -1.51387,-2.25557l1.64596,-5.50684h-3.41384v15.87027h-1.44275v-17.37399h6.40095zM265.3342,175.98703v2.11333c0.16256,0.13547 0.77217,0.69767 1.82884,1.6866l0.8941,0.83314l-0.95506,1.09731c-0.36577,-0.37931 -0.95506,-0.96183 -1.76788,-1.74756v9.08325h-1.46307v-9.42869c-0.65026,1.80175 -1.37502,3.33255 -2.17429,4.59242l-0.67058,-1.58499c0.47415,-0.74508 0.97539,-1.74079 1.50371,-2.98711c0.52833,-1.24632 0.96861,-2.46555 1.32083,-3.65768h-2.41814v-1.44275h2.43846v-3.90153h1.46307v3.90153h2.37749v1.44275zM304.69492,177.63299v8.63619h12.45644v-3.04807h-2.31653c-0.9212,0 -1.56806,-0.18288 -1.94061,-0.54865c-0.37254,-0.36577 -0.55881,-1.00248 -0.55881,-1.91012v-3.12935h-3.04807v0.02032c0,1.21922 -0.08805,2.20815 -0.26416,2.96678c-0.17611,0.75863 -0.50463,1.42921 -0.98555,2.01173c-0.48091,0.58252 -1.19552,1.17181 -2.14381,1.76788l-0.97538,-1.07699c0.88056,-0.56897 1.52065,-1.09053 1.92028,-1.56467c0.39963,-0.47414 0.66042,-1.00586 0.78234,-1.59516c0.12192,-0.58929 0.18288,-1.43259 0.18288,-2.52989zM252.1259,185.45637v-3.04807h1.48339v4.42986h-11.31849v-4.42986h1.4834v3.04807h3.39352v-3.73897h1.585v3.73897zM331.8837,174.42236h-1.52403c-0.16256,1.25987 -0.37255,2.44523 -0.62994,3.55608h2.74327v1.46308h-10.18055v-1.46308h2.60102c-0.25739,-1.54435 -0.49447,-2.72971 -0.71122,-3.55608h-1.38179v-1.44275h3.96249c-0.17611,-0.71799 -0.37932,-1.38179 -0.60962,-1.9914l1.50371,-0.36577c0.27094,0.81282 0.50124,1.59854 0.6909,2.35717h3.53576zM324.89346,187.59002v1.36147h-1.42243v-7.66081h7.76241v6.29934zM295.42879,182.12381v-2.23525h-9.61158v2.23525zM285.81721,176.41376v2.15397h9.61158v-2.15397zM285.81721,175.13358h9.61158v-2.13365h-9.61158zM269.96726,175.49934h6.19774v-2.41813h-6.19774zM276.165,179.17735v-2.33686h-6.19774v2.33686zM324.89346,186.20822h4.91755v-3.4748h-4.91755zM317.15137,181.73772v-4.10473h-3.33256v2.64166c0,0.40641 0.04403,0.71121 0.13208,0.91442c0.08805,0.2032 0.23707,0.34545 0.44705,0.42673c0.20998,0.08128 0.52495,0.12192 0.9449,0.12192zM328.97787,174.42236h-3.35287c0.35222,1.67982 0.58929,2.86518 0.71121,3.55608h2.01173c0.24385,-1.05667 0.45382,-2.24202 0.62993,-3.55608zM309.28735,173.14217v2.98711h3.04807v-2.98711zM250.82539,176.90145l-0.93474,1.11763c-1.51726,-1.20568 -2.60102,-2.03883 -3.25127,-2.49942l0.8941,-1.11762c0.58252,0.41995 1.67982,1.2531 3.29191,2.49941z" fill="#ffffff" fill-rule="evenodd" stroke="#ffffff" stroke-width="0.5" stroke-linecap="round"/></g></g></svg>