<svg version="1.1" xmlns="http://www.w3.org/2000/svg" xmlns:xlink="http://www.w3.org/1999/xlink" width="210.39428" height="32" viewBox="0,0,210.39428,32"><g transform="translate(-238.25804,-164)"><g stroke="none" stroke-miterlimit="10"><path d="M244.31867,174.84865h13.49309v2.08846h-13.49309v-2.08846M248.47512,180.25408h8.86572v2.02704h-8.86572v-2.02704M246.73473,187.21561h11.05656v2.06798h-11.05656v-2.06798M251.44401,181.13451h2.17036v7.26866h-2.17036v-7.26866M248.70034,171.0198l2.25226,0.2457c-0.3276,2.30686 -0.75348,4.49769 -1.27765,6.57251c-0.52689,2.07481 -1.1821,3.97217 -1.96561,5.69208c-0.78625,1.71991 -1.73902,3.21459 -2.85832,4.48405c-0.1092,-0.1365 -0.26891,-0.31395 -0.47912,-0.53235c-0.21294,-0.2184 -0.43544,-0.4368 -0.66749,-0.6552c-0.23205,-0.2184 -0.42998,-0.38903 -0.59378,-0.51188c1.06471,-1.10566 1.96288,-2.44336 2.69452,-4.01312c0.72892,-1.56976 1.32542,-3.31014 1.78952,-5.22115c0.4641,-1.91101 0.83266,-3.93122 1.10566,-6.06063M243.31539,170.87648l2.04751,0.6552c-0.4641,1.1466 -1.01284,2.29321 -1.6462,3.43982c-0.6361,1.1466 -1.31587,2.22769 -2.03932,3.24326c-0.72346,1.01829 -1.47421,1.91647 -2.25226,2.69452c-0.06825,-0.17745 -0.17062,-0.4095 -0.30712,-0.69615c-0.1365,-0.28665 -0.27983,-0.5733 -0.42998,-0.85995c-0.15015,-0.28665 -0.29348,-0.51871 -0.42998,-0.69616c0.66886,-0.6279 1.31723,-1.35818 1.94513,-2.19083c0.6279,-0.83265 1.20803,-1.72674 1.74039,-2.68224c0.53235,-0.9555 0.98963,-1.92466 1.37183,-2.90747M241.28836,176.42523l2.08846,-2.08846l0.02048,0.02048v15.52013h-2.10894zM267.49649,182.01493h2.29321v1.47421c0,0.39585 -0.0546,0.81901 -0.1638,1.26946c-0.1092,0.45045 -0.32761,0.90772 -0.65521,1.37183c-0.3276,0.4641 -0.80126,0.92411 -1.42097,1.38002c-0.62245,0.45864 -1.44144,0.89953 -2.45701,1.32269c-1.0183,0.42316 -2.28502,0.80536 -3.80018,1.14661c-0.09555,-0.1638 -0.22523,-0.34808 -0.38903,-0.55283c-0.1638,-0.20475 -0.34125,-0.4136 -0.53235,-0.62654c-0.1911,-0.21021 -0.37538,-0.39039 -0.55283,-0.54054c1.44691,-0.273 2.63856,-0.57058 3.57495,-0.89272c0.93367,-0.31941 1.68032,-0.65384 2.23997,-1.00328c0.55965,-0.34671 0.96916,-0.69479 1.22851,-1.04423c0.25935,-0.34671 0.42998,-0.68114 0.51188,-1.00328c0.0819,-0.31941 0.12285,-0.61562 0.12285,-0.88862v-1.41279M269.15497,187.03133l1.02375,-1.57658c0.55965,0.15015 1.16981,0.33033 1.83048,0.54054c0.66339,0.21294 1.32268,0.44226 1.97789,0.68796c0.65521,0.2457 1.27355,0.4914 1.85504,0.7371c0.57876,0.2457 1.07972,0.47775 1.50288,0.69615l-1.10566,1.82228c-0.3822,-0.23205 -0.85586,-0.47502 -1.42097,-0.72891c-0.56784,-0.25116 -1.17663,-0.51052 -1.82638,-0.77806c-0.64702,-0.26481 -1.30085,-0.52007 -1.96151,-0.76577c-0.66339,-0.2457 -1.28857,-0.45728 -1.87552,-0.63473M262.17296,179.4146h13.06312v6.63393h-2.35464v-4.68879h-8.45621v4.81165h-2.25226v-6.75679M271.81673,173.76347v2.76414h3.19412v-2.76414h-3.19412M269.81017,171.90023h7.33009v6.49061h-7.33009v-6.49061M259.90022,172.14594h7.49389v1.98609h-7.49389v-1.98609M266.69795,172.14594h2.12941c0,0 -0.00273,0.09828 -0.00819,0.29484c-0.00819,0.19929 -0.01911,0.36036 -0.03276,0.48321c-0.04095,1.07835 -0.09282,1.96152 -0.15561,2.64948c-0.06006,0.6907 -0.13787,1.22714 -0.23342,1.60934c-0.09555,0.3822 -0.2184,0.66203 -0.36855,0.83948c-0.1911,0.2184 -0.40541,0.36855 -0.64292,0.45045c-0.24024,0.0819 -0.51051,0.1365 -0.81081,0.1638c-0.25935,0.0273 -0.61016,0.04095 -1.05242,0.04095c-0.44499,0 -0.91319,-0.00682 -1.40459,-0.02048c-0.01365,-0.25935 -0.06825,-0.5501 -0.1638,-0.87224c-0.09555,-0.31941 -0.2184,-0.59515 -0.36855,-0.82719c0.4368,0.04095 0.83266,0.06825 1.18756,0.0819c0.3549,0.01365 0.61426,0.02048 0.77805,0.02048c0.1638,0 0.29075,-0.01092 0.38083,-0.03276c0.08736,-0.01911 0.17199,-0.07644 0.2539,-0.17199c0.09555,-0.1092 0.17063,-0.31805 0.22523,-0.62654c0.0546,-0.30576 0.10647,-0.76577 0.15561,-1.38002c0.04641,-0.61425 0.09009,-1.41278 0.13104,-2.39559v-0.30712M262.76674,170.87648h2.08846c-0.0546,1.03741 -0.15424,1.98881 -0.29893,2.85423c-0.14196,0.86814 -0.36992,1.65302 -0.68387,2.35464c-0.31395,0.70434 -0.76167,1.32951 -1.34316,1.87552c-0.57876,0.54601 -1.33225,1.01694 -2.26045,1.41279c-0.1092,-0.2457 -0.28392,-0.52553 -0.52416,-0.83948c-0.23751,-0.31395 -0.46547,-0.56648 -0.68387,-0.75758c0.7917,-0.31395 1.42643,-0.68933 1.90418,-1.12613c0.47775,-0.4368 0.83948,-0.94185 1.08518,-1.51515c0.2457,-0.57331 0.41632,-1.21213 0.51187,-1.91647c0.09555,-0.70162 0.1638,-1.4824 0.20475,-2.34235zM279.96582,182.09683h18.38664v1.98609h-18.38664v-1.98609M284.04037,175.25815h10.1966v1.80181h-10.1966v-1.80181M284.06084,178.65702h10.21708v1.78134h-10.21708v-1.78134M283.13946,171.77738h12.51029v11.22036h-2.21131v-9.3776h-8.16957v9.3776h-2.12941v-11.22036M291.24761,184.86097l1.86323,-0.81901c0.58695,0.4641 1.19165,0.98963 1.8141,1.57658c0.61971,0.58695 1.19984,1.16299 1.74039,1.7281c0.53782,0.56784 0.98417,1.07016 1.33907,1.50696l-1.92466,1.00328c-0.34125,-0.4641 -0.78215,-0.99372 -1.32269,-1.58886c-0.53782,-0.59241 -1.11384,-1.18892 -1.7281,-1.78952c-0.61426,-0.6006 -1.20802,-1.13979 -1.78133,-1.61754M281.7881,189.42692c-0.04095,-0.1638 -0.10237,-0.36855 -0.18427,-0.61425c-0.0819,-0.2457 -0.1638,-0.50233 -0.2457,-0.76987c-0.0819,-0.26481 -0.17063,-0.49276 -0.26618,-0.68386c0.23205,-0.0546 0.4641,-0.14742 0.69615,-0.27847c0.23205,-0.12831 0.48458,-0.30166 0.75758,-0.52006c0.20475,-0.1365 0.50915,-0.38221 0.91319,-0.73711c0.40131,-0.3549 0.84767,-0.78487 1.33907,-1.28993c0.4914,-0.50505 0.94186,-1.03741 1.35136,-1.59706l2.25226,0.85996c-0.7917,0.88726 -1.63392,1.72946 -2.52663,2.52663c-0.89544,0.79989 -1.75949,1.47284 -2.59215,2.01884v0.04095c0,0 -0.07508,0.03412 -0.22523,0.10237c-0.15015,0.06825 -0.32351,0.15288 -0.52007,0.25389c-0.19929,0.10374 -0.37401,0.21704 -0.52416,0.33989c-0.15015,0.12285 -0.22523,0.23888 -0.22523,0.34808M281.7881,189.42692l-0.02047,-1.51516l1.31041,-0.71662l11.85508,-0.47093c0.04095,0.273 0.10237,0.57603 0.18428,0.90909c0.0819,0.33579 0.14333,0.60607 0.18428,0.81082c-1.88371,0.09555 -3.50807,0.18018 -4.87307,0.25389c-1.365,0.07644 -2.51844,0.14196 -3.4603,0.19656c-0.94185,0.0546 -1.71581,0.10237 -2.32187,0.14333c-0.60879,0.04095 -1.09474,0.07781 -1.45783,0.11057c-0.36036,0.03549 -0.64565,0.07371 -0.85586,0.11466c-0.21294,0.04095 -0.39449,0.09555 -0.54464,0.1638zM300.58425,175.77003h6.06063v2.19083h-6.06063v-2.19083M310.658,171.18361h2.29321v14.88539c0,0.55965 0.0546,0.91456 0.1638,1.06471c0.1092,0.15015 0.36173,0.22523 0.75758,0.22523c0.0819,0 0.23206,0 0.45045,0c0.2184,0 0.45728,0 0.71663,0c0.25935,0 0.49823,0 0.71663,0c0.2184,0 0.3822,0 0.4914,0c0.273,0 0.48185,-0.11603 0.62654,-0.34808c0.14196,-0.23205 0.24707,-0.65247 0.31531,-1.26126c0.06825,-0.60607 0.12286,-1.46192 0.16381,-2.56758c0.1911,0.1365 0.4095,0.273 0.6552,0.4095c0.2457,0.1365 0.49823,0.25526 0.75758,0.35627c0.25935,0.10374 0.4914,0.18292 0.69615,0.23752c-0.06825,1.28311 -0.19793,2.31642 -0.38903,3.09993c-0.1911,0.78625 -0.48731,1.35682 -0.88862,1.71171c-0.40404,0.3549 -0.98143,0.53235 -1.73219,0.53235c-0.1092,0 -0.3003,0 -0.57331,0c-0.273,0 -0.56921,0 -0.88862,0c-0.32214,0 -0.61289,0 -0.87224,0c-0.25935,0 -0.45045,0 -0.5733,0c-0.7371,0 -1.31313,-0.10647 -1.7281,-0.31941c-0.41769,-0.21021 -0.71526,-0.56785 -0.89272,-1.0729c-0.17745,-0.50505 -0.26617,-1.20803 -0.26617,-2.10894v-14.84445M305.5597,171.16313h2.29321v18.57092h-2.29321v-18.57092M317.41479,174.25487l1.57658,1.96561c-0.6825,0.47775 -1.41278,0.95551 -2.19083,1.43326c-0.77805,0.47775 -1.57248,0.94186 -2.3833,1.3923c-0.81354,0.45045 -1.60935,0.87361 -2.3874,1.26946c-0.0819,-0.2457 -0.21157,-0.53645 -0.38903,-0.87224c-0.17745,-0.33306 -0.34808,-0.61562 -0.51188,-0.84767c0.75076,-0.39585 1.50561,-0.84357 2.26455,-1.34316c0.75621,-0.49687 1.48239,-1.00465 2.17855,-1.52335c0.69615,-0.5187 1.31041,-1.0101 1.84276,-1.4742M299.8881,185.12715c0.55965,-0.17745 1.2053,-0.39312 1.93694,-0.64701c0.72891,-0.25116 1.50287,-0.52416 2.32187,-0.819c0.81901,-0.29211 1.63119,-0.58832 2.43654,-0.88862l0.4095,1.98609c-1.0374,0.4641 -2.09119,0.92138 -3.16136,1.37183c-1.0729,0.45045 -2.05979,0.85996 -2.9607,1.22851zM332.44351,171.81833h5.344v1.98609h-3.39887v16.05248h-1.94513v-18.03857M337.33706,171.81833h0.4095l0.3276,-0.0819l1.51516,0.94185c-0.34125,0.98281 -0.72345,2.02294 -1.1466,3.12041c-0.42316,1.1002 -0.83266,2.10075 -1.22851,3.00165c0.8463,0.94186 1.39641,1.81819 1.6503,2.62901c0.25116,0.81355 0.37674,1.56157 0.37674,2.24407c0,0.69616 -0.0778,1.28993 -0.23341,1.78133c-0.15834,0.4914 -0.42179,0.86678 -0.79034,1.12613c-0.17745,0.12285 -0.3822,0.22113 -0.61425,0.29484c-0.23205,0.07644 -0.47776,0.13513 -0.7371,0.17609c-0.23205,0.0273 -0.4914,0.04368 -0.77805,0.04914c-0.28665,0.00819 -0.57331,0.00546 -0.85996,-0.00819c-0.01365,-0.28665 -0.06142,-0.62791 -0.14333,-1.02376c-0.0819,-0.39585 -0.21157,-0.7371 -0.38903,-1.02375c0.25935,0.0273 0.4955,0.04368 0.70844,0.04914c0.21021,0.00819 0.40404,0.00546 0.58149,-0.00819c0.1365,0 0.273,-0.01774 0.4095,-0.05324c0.1365,-0.03276 0.25253,-0.08326 0.34808,-0.15151c0.17745,-0.1092 0.30439,-0.29074 0.38083,-0.54463c0.07371,-0.25116 0.11057,-0.5542 0.11057,-0.9091c0,-0.58695 -0.14333,-1.24898 -0.42998,-1.98609c-0.28665,-0.73711 -0.83948,-1.52881 -1.65848,-2.37511c0.20475,-0.5187 0.4136,-1.07562 0.62654,-1.67077c0.21021,-0.59241 0.41496,-1.19302 0.61425,-1.80181c0.19656,-0.60607 0.37675,-1.17527 0.54055,-1.70763c0.1638,-0.53235 0.3003,-0.9828 0.4095,-1.35135v-0.71663M321.32553,173.12874h9.84852v1.96561h-9.84852v-1.96561M320.79318,178.63654h10.83133v1.98609h-10.83133v-1.98609M322.43119,175.5448l1.8837,-0.47093c0.28665,0.4914 0.54327,1.03331 0.76986,1.62572c0.22386,0.59515 0.38357,1.11112 0.47912,1.54792l-1.96561,0.55283c-0.0819,-0.45045 -0.23206,-0.98007 -0.45046,-1.58886c-0.2184,-0.60607 -0.45727,-1.16162 -0.71662,-1.66667M328.22564,175.01245l2.17037,0.47093c-0.1911,0.4641 -0.38903,0.93503 -0.59378,1.41278c-0.20475,0.47775 -0.40268,0.93503 -0.59378,1.37184c-0.1911,0.4368 -0.3822,0.82583 -0.5733,1.16708l-1.84276,-0.45046c0.17745,-0.36855 0.359,-0.78487 0.54464,-1.24898c0.18291,-0.4641 0.35354,-0.93503 0.51188,-1.41278c0.15561,-0.47775 0.28119,-0.91456 0.37674,-1.31041M322.94306,187.01086h6.71583v1.92466h-6.71583v-1.92466M321.79645,182.21969h8.98857v7.53484h-2.17036v-5.56923h-4.75023v5.69208h-2.06799v-7.65769M324.60155,171.22456l1.98609,-0.55283c0.2184,0.4368 0.43407,0.91456 0.64701,1.43326c0.21021,0.5187 0.36309,0.96233 0.45864,1.33088l-2.10894,0.6552c-0.0819,-0.36855 -0.21431,-0.8231 -0.39722,-1.36364c-0.18564,-0.53781 -0.38084,-1.03877 -0.58559,-1.50287z" fill="#ffffff" stroke-width="1"/><path d="M240.65232,196v-32h208v32z" fill="none" stroke-width="0"/></g></g></svg>