<svg version="1.1" xmlns="http://www.w3.org/2000/svg" xmlns:xlink="http://www.w3.org/1999/xlink" width="208" height="32" viewBox="0,0,208,32"><g transform="translate(-235.4,-165.6)"><g stroke="none" stroke-miterlimit="10"><path d="M241.54572,184.19356c-0.0266,-0.13299 -0.07314,-0.30985 -0.13963,-0.53061c-0.06649,-0.21809 -0.14362,-0.44417 -0.23139,-0.67822c-0.08511,-0.23139 -0.16091,-0.43353 -0.2274,-0.60641c0.22607,-0.05319 0.45481,-0.18618 0.6862,-0.39895c0.23405,-0.21278 0.49736,-0.49869 0.78993,-0.85775c0.15958,-0.17288 0.38832,-0.45614 0.6862,-0.84977c0.30055,-0.39097 0.637,-0.86307 1.00935,-1.41629c0.37236,-0.55056 0.74471,-1.145 1.11707,-1.78332c0.37236,-0.63833 0.71812,-1.27665 1.03728,-1.91498l1.6756,1.01733c-0.71812,1.27665 -1.52267,2.52937 -2.41367,3.75814c-0.891,1.23144 -1.78864,2.3126 -2.69294,3.24349v0.05984c0,0 -0.0625,0.02926 -0.18751,0.08777c-0.12767,0.06117 -0.27794,0.14096 -0.45082,0.23937c-0.17288,0.10107 -0.32581,0.2048 -0.4588,0.31118c-0.13299,0.10639 -0.19948,0.21278 -0.19948,0.31916M241.54572,184.19356l-0.11969,-1.7155l0.93754,-0.67822l5.28613,-0.89765c-0.0266,0.27927 -0.04654,0.60109 -0.05984,0.96547c-0.0133,0.36704 -0.0133,0.66359 0,0.88967c-1.19686,0.22607 -2.16366,0.41491 -2.90039,0.56651c-0.73939,0.15426 -1.31522,0.28459 -1.72747,0.39097c-0.41225,0.10639 -0.71812,0.19283 -0.91759,0.25932c-0.19948,0.06649 -0.36571,0.13963 -0.49869,0.21942M241.42604,179.32632c-0.0266,-0.14628 -0.07979,-0.33911 -0.15958,-0.57848c-0.07979,-0.23937 -0.16623,-0.48938 -0.25932,-0.75003c-0.09309,-0.25799 -0.17953,-0.48007 -0.25932,-0.66625c0.19948,-0.05319 0.38964,-0.18352 0.5705,-0.39097c0.1782,-0.2048 0.36704,-0.47342 0.56651,-0.80589c0.11969,-0.15958 0.27927,-0.42555 0.47874,-0.79791c0.19948,-0.37236 0.4189,-0.8152 0.65827,-1.32852c0.23937,-0.51066 0.47475,-1.05856 0.70615,-1.64369c0.23405,-0.58513 0.43087,-1.17026 0.59045,-1.7554l2.01472,0.91759c-0.30586,0.78461 -0.66093,1.58252 -1.06521,2.39372c-0.40693,0.81121 -0.83647,1.58252 -1.28862,2.31393c-0.45215,0.73142 -0.91094,1.39634 -1.37639,1.99477v0.0399c0,0 -0.05984,0.03591 -0.17953,0.10772c-0.11969,0.07447 -0.25666,0.16756 -0.41092,0.27927c-0.1516,0.11437 -0.28725,0.23139 -0.40693,0.35108c-0.11969,0.11969 -0.17953,0.22607 -0.17953,0.31916M241.42604,179.32632l-0.0399,-1.45618l0.8777,-0.57848l3.49084,-0.29922c-0.0399,0.25267 -0.07979,0.54125 -0.11969,0.86573c-0.0399,0.32714 -0.05984,0.59045 -0.05984,0.78993c-0.78461,0.07979 -1.42559,0.15293 -1.92296,0.21942c-0.50002,0.06649 -0.89632,0.12633 -1.18888,0.17953c-0.29257,0.05319 -0.51465,0.09974 -0.66625,0.13963c-0.15426,0.0399 -0.27794,0.08644 -0.37103,0.13963M241.04703,186.20827c0.8245,-0.18618 1.82189,-0.43885 2.99215,-0.75801c1.17026,-0.31916 2.36047,-0.64497 3.57063,-0.97744l0.27927,1.73545c-1.11707,0.35906 -2.23813,0.71147 -3.36318,1.05723c-1.12239,0.34576 -2.14238,0.66492 -3.05997,0.95749l-0.4189,-2.01472M247.86914,174.45909h11.56965v2.07456h-11.56965v-2.07456M255.98784,175.59611l2.15435,0.29922c-0.27927,1.80859 -0.67157,3.42036 -1.17691,4.83532c-0.50534,1.41762 -1.15032,2.66102 -1.93492,3.73022c-0.78461,1.07185 -1.73146,2.00275 -2.84055,2.79267c-1.11175,0.79259 -2.41899,1.4615 -3.92171,2.00674c-0.07979,-0.14628 -0.19948,-0.33246 -0.35906,-0.55853c-0.15958,-0.22607 -0.32847,-0.45614 -0.50667,-0.69019c-0.18086,-0.23139 -0.35108,-0.42023 -0.51066,-0.56651c1.44953,-0.43885 2.69693,-1.00137 3.74218,-1.68757c1.0426,-0.68354 1.92296,-1.5014 2.64107,-2.45356c0.71812,-0.94951 1.2966,-2.06259 1.73545,-3.33924c0.43885,-1.27665 0.76466,-2.73283 0.97744,-4.36854M251.1605,175.91527c0.35906,1.87508 0.88834,3.57063 1.58784,5.08666c0.69684,1.51602 1.62108,2.80597 2.77273,3.86985c1.14899,1.06388 2.57458,1.86843 4.27678,2.41367c-0.14628,0.13299 -0.30852,0.30852 -0.48672,0.52662c-0.18086,0.22075 -0.34709,0.44417 -0.49869,0.67024c-0.15426,0.22607 -0.29124,0.4322 -0.41092,0.61838c-1.80859,-0.66492 -3.31397,-1.58917 -4.51615,-2.77273c-1.20484,-1.18356 -2.17962,-2.61714 -2.92433,-4.30072c-0.74471,-1.68092 -1.34314,-3.59191 -1.79529,-5.73296l1.99477,-0.37901M251.49962,171.40709l1.81524,-0.71812c0.26597,0.33246 0.52928,0.69418 0.78993,1.08515c0.25799,0.39363 0.49736,0.77929 0.71812,1.15697c0.21809,0.38034 0.38698,0.72344 0.50667,1.0293l-1.91498,0.81785c-0.10639,-0.29257 -0.26198,-0.63567 -0.46678,-1.0293c-0.20746,-0.39097 -0.43353,-0.79259 -0.67822,-1.20484c-0.24735,-0.41225 -0.50401,-0.79126 -0.76998,-1.13702zM272.2452,173.16249h2.07456v11.2106h-2.07456v-11.2106M276.43421,171.12783h2.11445v15.61903c0,0.62503 -0.07314,1.10377 -0.21942,1.43623c-0.14628,0.33246 -0.39895,0.59178 -0.75801,0.77796c-0.37236,0.17288 -0.8511,0.28592 -1.43623,0.33911c-0.58513,0.05319 -1.31655,0.07979 -2.19424,0.07979c-0.0399,-0.30586 -0.12633,-0.67556 -0.25932,-1.10909c-0.13299,-0.43087 -0.27927,-0.79924 -0.43885,-1.1051c0.59843,0.0266 1.15431,0.04255 1.66763,0.04787c0.51066,0.00798 0.85243,0.00532 1.02531,-0.00798c0.18618,0 0.3165,-0.03325 0.39097,-0.09974c0.07181,-0.06649 0.10772,-0.18618 0.10772,-0.35906v-15.61903M263.74749,173.5016v3.03205h4.22891v-3.03205h-4.22891M261.81256,171.60657h8.21844v6.84205h-8.21844v-6.84205M261.21413,180.28381h8.03891v1.93492h-8.03891v-1.93492M268.3953,180.28381h2.09451c0,0 -0.00266,0.0492 -0.00798,0.14761c-0.00798,0.10107 -0.01197,0.2141 -0.01197,0.33911c0,0.12767 -0.00665,0.24469 -0.01995,0.35108c-0.05319,1.55592 -0.11703,2.82592 -0.1915,3.81001c-0.07181,0.98408 -0.16091,1.7421 -0.2673,2.27404c-0.10639,0.53194 -0.25267,0.91094 -0.43885,1.13702c-0.19948,0.23937 -0.40161,0.41225 -0.60641,0.51864c-0.20746,0.10639 -0.45747,0.17953 -0.75003,0.21942c-0.23937,0.0399 -0.55853,0.0625 -0.95749,0.06782c-0.39895,0.00798 -0.81785,0.00532 -1.2567,-0.00798c-0.0133,-0.31916 -0.07314,-0.66891 -0.17953,-1.04925c-0.10639,-0.37768 -0.23937,-0.70615 -0.39895,-0.98542c0.37236,0.0399 0.71147,0.06649 1.01733,0.07979c0.30586,0.0133 0.53859,0.01995 0.69817,0.01995c0.14628,0 0.26597,-0.01729 0.35906,-0.05186c0.09309,-0.03192 0.17953,-0.09442 0.25932,-0.18751c0.10639,-0.14628 0.19948,-0.43885 0.27927,-0.8777c0.07979,-0.43885 0.15293,-1.10111 0.21942,-1.98679c0.06649,-0.88302 0.11969,-2.04264 0.15958,-3.47888v-0.33911M264.38582,178.88747h2.01472c-0.0399,1.19686 -0.12235,2.32058 -0.24735,3.37116c-0.12767,1.05058 -0.34443,2.02136 -0.65029,2.91236c-0.30586,0.891 -0.74471,1.69156 -1.31655,2.4017c-0.57183,0.7128 -1.33649,1.33516 -2.29398,1.8671c-0.11969,-0.25267 -0.30187,-0.53593 -0.54657,-0.84977c-0.24735,-0.31118 -0.49071,-0.55987 -0.73009,-0.74604c0.8378,-0.43885 1.50007,-0.95749 1.98679,-1.55592c0.48406,-0.59843 0.84977,-1.27665 1.09712,-2.03466c0.24469,-0.75801 0.41358,-1.5865 0.50667,-2.48548c0.09309,-0.89632 0.15293,-1.85646 0.17953,-2.88044zM292.51204,170.72887h2.01472v14.02322h-2.01472v-14.02322M286.48784,178.80768l10.45258,-4.42838l0.79791,1.83519l-10.45258,4.48823l-0.79791,-1.89503M288.52251,172.64385h2.03466v13.04578c0,0.37236 0.03325,0.65428 0.09974,0.84578c0.06649,0.19416 0.20613,0.32448 0.4189,0.39097c0.21278,0.06649 0.52529,0.09974 0.93754,0.09974c0.11969,0 0.31517,0 0.58646,0c0.27395,0 0.5838,0 0.92956,0c0.34576,0 0.69551,0 1.04925,0c0.35108,0 0.66891,0 0.9535,0c0.28725,0 0.49736,0 0.63035,0c0.37236,0 0.65162,-0.07048 0.8378,-0.21145c0.18618,-0.1383 0.32581,-0.39363 0.4189,-0.76599c0.09309,-0.37236 0.15958,-0.91094 0.19948,-1.61576c0.23937,0.17288 0.54125,0.33246 0.90562,0.47874c0.36704,0.14628 0.69684,0.24602 0.9894,0.29922c-0.09309,0.94419 -0.24602,1.68491 -0.4588,2.22217c-0.21278,0.53992 -0.53194,0.92557 -0.95749,1.15697c-0.42555,0.23405 -1.01733,0.35108 -1.77534,0.35108c-0.13299,0 -0.34842,0 -0.6463,0c-0.30055,0 -0.64365,0 -1.0293,0c-0.38565,0 -0.76865,0 -1.14899,0c-0.37768,0 -0.71546,0 -1.01334,0c-0.30055,0 -0.51066,0 -0.63035,0c-0.8511,0 -1.52267,-0.09309 -2.01472,-0.27927c-0.49204,-0.18618 -0.83514,-0.51598 -1.0293,-0.9894c-0.1915,-0.47077 -0.28725,-1.13835 -0.28725,-2.00275v-13.02583M296.54147,174.61867h-0.15958l0.39895,-0.29922l0.39895,-0.25932l1.47613,0.53859l-0.07979,0.35906c0,0.94419 -0.00266,1.81125 -0.00798,2.60118c-0.00798,0.79259 -0.01463,1.49475 -0.01995,2.10647c-0.00798,0.61173 -0.02128,1.12372 -0.0399,1.53597c-0.02128,0.41225 -0.04522,0.71812 -0.07181,0.91759c-0.0399,0.45215 -0.14628,0.80057 -0.31916,1.04526c-0.17288,0.24735 -0.4189,0.42422 -0.73806,0.53061c-0.27927,0.11969 -0.60907,0.18884 -0.9894,0.20746c-0.37768,0.02128 -0.71945,0.03192 -1.02531,0.03192c-0.0266,-0.26597 -0.08378,-0.57582 -0.17155,-0.92956c-0.08511,-0.35108 -0.18086,-0.63966 -0.28725,-0.86573c0.18618,0.0133 0.38565,0.01995 0.59843,0.01995c0.21278,0 0.36571,0 0.4588,0c0.13299,0 0.23937,-0.03059 0.31916,-0.09176c0.07979,-0.05851 0.13299,-0.18086 0.15958,-0.36704c0.0266,-0.10639 0.04654,-0.33645 0.05984,-0.69019c0.0133,-0.35108 0.02261,-0.81919 0.02793,-1.40432c0.00798,-0.58513 0.01197,-1.29394 0.01197,-2.12642c0,-0.82982 0,-1.78332 0,-2.8605M280.80275,175.41658h6.52289v2.01472h-6.52289v-2.01472M283.19648,170.98819h2.01472v13.14552h-2.01472v-13.14552M280.56338,184.29329c0.54524,-0.19948 1.17957,-0.44284 1.90301,-0.73009c0.7261,-0.28459 1.49076,-0.5971 2.29398,-0.93754c0.80589,-0.33778 1.61443,-0.6729 2.42564,-1.00536l0.47874,1.89503c-1.06388,0.51864 -2.14504,1.03329 -3.24349,1.54395c-1.09579,0.51332 -2.09584,0.97611 -3.00013,1.38836zM301.16933,174.00029h17.71354v2.09451h-17.71354v-2.09451M307.65233,178.72789h7.7397v2.07456h-7.7397v-2.07456M314.83349,178.72789h2.23414c0,0 -0.00266,0.05984 -0.00798,0.17953c-0.00798,0.11969 -0.01197,0.25267 -0.01197,0.39895c0,0.14628 -0.0133,0.26597 -0.0399,0.35906c-0.11969,1.84849 -0.25267,3.35121 -0.39895,4.50818c-0.14628,1.15697 -0.31251,2.05461 -0.49869,2.69294c-0.18618,0.63833 -0.4189,1.09712 -0.69817,1.37639c-0.27927,0.30586 -0.58114,0.51864 -0.90562,0.63833c-0.32714,0.11969 -0.71014,0.19948 -1.14899,0.23937c-0.37236,0.0399 -0.86706,0.05585 -1.48411,0.04787c-0.61971,-0.00532 -1.26202,-0.02128 -1.92695,-0.04787c-0.0133,-0.31916 -0.09309,-0.67822 -0.23937,-1.07717c-0.14628,-0.39895 -0.32581,-0.74471 -0.53859,-1.03728c0.69152,0.06649 1.35245,0.10639 1.9828,0.11969c0.63301,0.0133 1.09579,0.01995 1.38836,0.01995c0.22607,0 0.41225,-0.01729 0.55853,-0.05186c0.14628,-0.03192 0.28592,-0.09442 0.4189,-0.18751c0.19948,-0.18618 0.37901,-0.57582 0.53859,-1.16893c0.15958,-0.59045 0.30586,-1.43091 0.43885,-2.52139c0.13299,-1.09047 0.24602,-2.47351 0.33911,-4.14912v-0.33911M306.35573,175.31684h2.39372c-0.05319,1.05058 -0.13299,2.10781 -0.23937,3.17168c-0.10639,1.06388 -0.27927,2.11445 -0.51864,3.15173c-0.23937,1.03728 -0.58513,2.02801 -1.03728,2.9722c-0.45215,0.94419 -1.05058,1.82455 -1.79529,2.64107c-0.74471,0.81919 -1.6756,1.54129 -2.79267,2.16632c-0.15958,-0.27927 -0.38964,-0.58513 -0.69019,-0.91759c-0.29788,-0.33246 -0.59311,-0.60508 -0.88568,-0.81785c1.03728,-0.54524 1.89104,-1.17691 2.56128,-1.89503c0.6729,-0.71812 1.20484,-1.49342 1.59581,-2.3259c0.39363,-0.82982 0.68354,-1.70087 0.86972,-2.61315c0.18618,-0.90961 0.31251,-1.83386 0.37901,-2.77273c0.06649,-0.93621 0.11969,-1.85646 0.15958,-2.76076M308.47018,171.30736l2.09451,-0.79791c0.26597,0.45215 0.53859,0.95084 0.81785,1.49608c0.27927,0.54524 0.49204,1.01068 0.63833,1.39634l-2.19424,0.95749c-0.13299,-0.41225 -0.33246,-0.90429 -0.59843,-1.47613c-0.26597,-0.57183 -0.51864,-1.09712 -0.75801,-1.57587z" fill="#ffffff" stroke-width="1"/><path d="M235.4,197.60001v-32h208v32z" fill="none" stroke-width="0"/><path d="" fill="#ffffff" stroke-width="1"/><path d="" fill="#ffffff" stroke-width="1"/></g></g></svg>