<svg version="1.1" xmlns="http://www.w3.org/2000/svg" xmlns:xlink="http://www.w3.org/1999/xlink" width="208" height="32" viewBox="0,0,208,32"><g transform="translate(-240,-164)"><g stroke-miterlimit="10"><path d="M240,196v-32h208v32z" fill="none" fill-rule="nonzero" stroke="none" stroke-width="0" stroke-linecap="butt"/><path d="M251.04,185.42h4.9219v-10.742h2.2168v14.658h-2.2168v-1.7969h-11.943v1.7969h-2.1973v-14.658h2.1973v10.742h4.8047v-14.727h2.2168z" fill="#ffffff" fill-rule="nonzero" stroke="none" stroke-width="1" stroke-linecap="butt"/><path d="M265.18,176.66c-0.8724,1.30207 -1.9987,2.42187 -3.3789,3.3594l-1.2402,-1.3965c1.4974,-0.84633 2.77997,-1.9596 3.8477,-3.3398h-3.5059v-1.582h4.2773v-1.1426c-0.83333,0.07813 -1.87173,0.14649 -3.1152,0.20508l-0.64453,-1.4258c3.0534,-0.19531 5.63477,-0.49479 7.7441,-0.89844l0.9375,1.4062c-1.05467,0.22135 -2.0345,0.38737 -2.9395,0.49805v1.3574h3.6816v1.582h-3.6816v0.48828c1.23047,0.47526 2.45117,1.06446 3.6621,1.7676l-1.1426,1.4844c-0.77473,-0.58594 -1.56573,-1.11327 -2.373,-1.582l-0.14649,-0.0781v3.0371h-1.9824zM272.8167,183.1151c1.862,1.47787 4.1504,2.69207 6.8652,3.6426l-1.2988,1.8652c-3.09247,-1.31513 -5.5534,-2.9753 -7.3828,-4.9805v5.8594h-2.1191v-5.8008l-0.0586,0.0781c-1.83593,2.2656 -4.2155,3.9941 -7.1387,5.1855l-1.2598,-1.7676c2.70833,-0.93747 5.0065,-2.29813 6.8945,-4.082h-6.8164v-1.6992h8.3789v-1.8945h2.1191v1.8945h8.4961v1.6992zM271.6448,171.3961h2.0801v6.1816h-2.0801zM276.1663,170.65392h2.1387v7.998c0,0.7422 -0.28646,1.2077 -0.85937,1.3965c-0.26042,0.09115 -0.72915,0.13672 -1.4062,0.13672c-0.6966,0 -1.39973,-0.03581 -2.1094,-0.10743l-0.36133,-1.709c0.78773,0.09765 1.46807,0.14648 2.041,0.14648c0.27343,0 0.43945,-0.07487 0.49805,-0.2246c0.03907,-0.09766 0.0586,-0.25066 0.0586,-0.45899z" fill="#ffffff" fill-rule="nonzero" stroke="none" stroke-width="1" stroke-linecap="butt"/><path d="M326.98,172.75h4.1797v1.8848h-1.377c-0.2474,0.99607 -0.57943,2.041 -0.9961,3.1348h2.6074v1.8848h-10.898v-1.8848h2.3926c-0.26041,-1.25 -0.53385,-2.29493 -0.82031,-3.1348h-1.2695v-1.8848h4.1406v-2.2559h2.041zM324.0406,174.6348c0.33203,0.97007 0.58919,2.015 0.77148,3.1348h1.9922l0.09766,-0.27344c0.27995,-0.7422 0.54036,-1.5853 0.78125,-2.5293l0.0879,-0.33203zM330.0953,181.295v7.998h-2.002v-0.95703h-4.2578v1.1621h-2.0606v-8.2031zM323.8355,183.0919v3.3887h4.2578v-3.3887zM336.8825,178.1603c0.77473,0.73567 1.38997,1.61133 1.8457,2.627c0.44922,1.0156 0.67383,2.04423 0.67383,3.0859c0,0.96353 -0.17904,1.67317 -0.53711,2.1289c-0.37109,0.47526 -0.98306,0.71289 -1.8359,0.71289c-0.7292,0 -1.43557,-0.05208 -2.1191,-0.15625l-0.47852,-2.0801c0.78773,0.14323 1.43877,0.21485 1.9531,0.21485c0.39063,0 0.63477,-0.09115 0.73242,-0.27344c0.06513,-0.13021 0.0977,-0.39062 0.0977,-0.78125c0,-1.60807 -0.48177,-2.9948 -1.4453,-4.1602c-0.25391,-0.30599 -0.57292,-0.63476 -0.95703,-0.98633l0.11719,-0.27343c0.67707,-1.52993 1.2044,-3.125 1.582,-4.7852h-2.5v16.064h-2.0215v-18.086h5.8789l1.084,0.99609c-0.65755,2.2396 -1.34765,4.15693 -2.0703,5.752z" fill="#ffffff" fill-rule="nonzero" stroke="none" stroke-width="1" stroke-linecap="butt"/><path d="M345.02,177.79c0.50781,0 0.96681,0.16927 1.377,0.50781c0.54037,0.44271 0.81055,1.00911 0.81055,1.6992c0,0.42318 -0.12044,0.81705 -0.36133,1.1816c-0.43619,0.67707 -1.05469,1.0156 -1.8555,1.0156c-0.35156,0 -0.68686,-0.08464 -1.0059,-0.25391c-0.2539,-0.13021 -0.46874,-0.30273 -0.64453,-0.51758c-0.35807,-0.42317 -0.53711,-0.90494 -0.53711,-1.4453c0,-0.7552 0.31576,-1.35417 0.94727,-1.7969c0.37761,-0.26041 0.80077,-0.39062 1.2695,-0.39062z" fill="#ffffff" fill-rule="nonzero" stroke="none" stroke-width="1" stroke-linecap="butt"/><path d="M361.03,172.08h7.8613v3.7988h-2.0996v-2.2559h-13.584v2.2559h-2.0996v-3.7988h7.7637v-1.582h2.1582zM366.1862,176.9335v3.8672h-12.383v-3.8672zM355.8052,178.2519v1.2305h8.3789v-1.2305zM368.0122,181.6406v7.8613h-2.0801v-0.78125h-11.865v0.78125h-2.0801v-7.8613zM354.0672,183.0762v1.3672h4.8633v-1.3672zM354.0672,185.8008v1.4551h4.8633v-1.4551zM365.9322,187.2559v-1.4551h-5v1.4551zM365.9322,184.4434v-1.3672h-5v1.3672zM354.0282,174.5606h11.943v1.5039h-11.943z" fill="#ffffff" fill-rule="nonzero" stroke="none" stroke-width="1" stroke-linecap="butt"/><path d="M378.84,175.94v-5.2637h2.1973v5.2637h8.4668v2.0215h-8.4668v8.1934h7.4805v2.0215h-17.021v-2.0215h7.3438v-8.1934h-8.3398v-2.0215z" fill="#ffffff" fill-rule="nonzero" stroke="none" stroke-width="1" stroke-linecap="butt"/><path d="M399.96,173.76c-0.00667,0.07161 -0.01643,0.1595 -0.0293,0.26367c-0.13021,0.97653 -0.29948,2.03773 -0.50781,3.1836l-0.13672,0.75195h6.9141v8.3398h3.3008v1.9629h-19.004v-1.9629h4.6875c0.48828,-1.69273 0.99935,-3.8314 1.5332,-6.416h-3.916v-1.9238h4.2871c0.32552,-1.79687 0.54036,-3.1966 0.64453,-4.1992h-5.7129v-1.9238h15.732v1.9238zM403.9639,179.883h-5.0293c-0.14323,0.7552 -0.2474,1.31837 -0.3125,1.6895c-0.23438,1.2956 -0.57945,2.87113 -1.0352,4.7266h6.377z" fill="#ffffff" fill-rule="nonzero" stroke="none" stroke-width="1" stroke-linecap="butt"/><path d="M424.64,182.54c-0.09115,1.52347 -0.27344,2.78323 -0.54687,3.7793c-0.33203,1.2044 -0.85937,2.28513 -1.582,3.2422l-1.4356,-1.3477c0.8138,-1.17187 1.3509,-2.5423 1.6113,-4.1113c0.14974,-0.90493 0.22461,-1.9238 0.22461,-3.0566v-9.8438h6.0938v16.416c0,0.61849 -0.14323,1.05795 -0.42969,1.3184c-0.26042,0.24088 -0.71942,0.36132 -1.377,0.36132c-0.69013,0 -1.29887,-0.03906 -1.8262,-0.11718l-0.36132,-2.002c0.6836,0.10417 1.26303,0.15625 1.7383,0.15625c0.23437,0 0.37109,-0.06836 0.41015,-0.20507c0.01953,-0.07813 0.0293,-0.20834 0.0293,-0.39063v-4.1992zM424.6693,180.7627h2.5195v-3.0078h-2.5195zM424.6693,175.9775h2.5195v-2.8711h-2.5195zM419.5326,174.2002h2.8516v1.9043h-2.8516v3.4961h2.1289v7.5781h-4.4629v1.4356h-1.7774v-9.0137h2.168v-3.4961h-2.9492v-1.9043h2.9492v-3.7012h1.9434zM417.1986,181.3389v4.082h2.7051v-4.082zM413.5658,174.9033c-0.63151,-0.96353 -1.51041,-1.95313 -2.6367,-2.9688l1.4941,-1.377c0.91147,0.71613 1.81967,1.6569 2.7246,2.8223zM413.10682,179.9619c-0.931,-1.24347 -1.87177,-2.2721 -2.8223,-3.0859l1.582,-1.3965c1.0026,0.84633 1.92707,1.83917 2.7734,2.9785zM410.62632,188.1553c0.87893,-1.6406 1.7383,-3.9876 2.5781,-7.041l1.7578,1.0254c-0.61198,2.62373 -1.42578,5.08467 -2.4414,7.3828z" fill="#ffffff" fill-rule="nonzero" stroke="none" stroke-width="1" stroke-linecap="butt"/><path d="M298.69399,183.47997h-9.7624c-0.99523,1.16216 -2.21307,2.36582 -3.65354,3.61098l8.81956,-0.3528l-2.1607,-2.15829l0.96249,-1.01689c0.56309,0.53957 1.10326,1.06531 1.62052,1.57721c0.51726,0.5119 0.97231,0.96155 1.36516,1.34893c1.41428,1.41119 1.997,1.98535 1.74819,1.72248l-1.02142,1.18291c-0.22262,-0.24903 -0.62857,-0.68484 -1.21784,-1.30742l-12.13916,0.56032l-0.3732,-1.47345c1.54522,-1.16216 2.90057,-2.39349 4.06603,-3.69399h-5.63744v-1.41119h2.59283v-10.79144h12.13916v10.79144h2.65176zM294.62796,182.06878v-2.28281h-9.29098v2.28281zM285.33699,176.23725v2.19979h9.29098v-2.19979zM285.33699,174.92982h9.29098v-2.17904h-9.29098z" fill="#ffffff" fill-rule="evenodd" stroke="#ffffff" stroke-width="0.5" stroke-linecap="round"/><path d="M317.51751,179.55294v1.50575h-6.3282v5.37185c0,0.89531 -0.21026,1.5227 -0.63079,1.88218c-0.42052,0.35948 -1.11235,0.53922 -2.07549,0.53922h-2.19758l-0.26452,-1.60749h2.07549c0.42052,0 0.73253,-0.03052 0.936,-0.09157c0.20348,-0.06104 0.34252,-0.17635 0.41713,-0.34591c0.07461,-0.16957 0.11191,-0.4307 0.11191,-0.7834v-4.96489h-6.8776v-1.52609c0.73253,-1.09879 1.6414,-2.68593 2.72662,-4.76141h-4.21202v-1.52609h5.00559c0.54261,-1.09879 0.99027,-2.07549 1.34296,-2.9301l1.54644,0.61044c-0.21704,0.58331 -0.56296,1.35653 -1.03774,2.31966h10.3164v1.52609h-11.08962c-1.16661,2.2654 -2.06192,3.85932 -2.68593,4.78176h4.96489v-3.56089h1.62783v3.56089zM305.4105,182.13712l1.24122,1.05809c-0.65113,0.92244 -1.41418,1.87201 -2.28914,2.84871c-0.87496,0.9767 -1.72618,1.80418 -2.55366,2.48245l-1.05809,-1.32262c0.80035,-0.59687 1.61766,-1.35653 2.45192,-2.27897c0.83426,-0.92244 1.57018,-1.85166 2.20775,-2.78767zM312.7154,183.3173l1.09879,-1.13948c0.63757,0.58331 1.45149,1.3667 2.44175,2.35019c0.99027,0.98348 1.85844,1.85505 2.60453,2.61471l-1.13948,1.22088c-0.67826,-0.75966 -1.51253,-1.6414 -2.50279,-2.64523c-0.99027,-1.00383 -1.82453,-1.80418 -2.50279,-2.40106z" fill="#ffffff" fill-rule="evenodd" stroke="#ffffff" stroke-width="0.5" stroke-linecap="round"/></g></g></svg>