<svg version="1.1" xmlns="http://www.w3.org/2000/svg" xmlns:xlink="http://www.w3.org/1999/xlink" width="100.09973" height="19.45213" viewBox="0,0,100.09973,19.45213"><g transform="translate(-239.35973,-170.53346)"><g fill="#ffffff" fill-rule="evenodd" stroke="#ffffff" stroke-width="0.5" stroke-linecap="round" stroke-miterlimit="10"><path d="M269.74315,186.20411v1.45147h8.19776v1.2266h-17.847v-1.2266h8.15687v-1.45147h-6.82806v-1.14482h6.82806v-1.43103h-6.11254v-6.27609h6.11254v-1.43103h-8.13643v-1.20615h8.13643v-1.61502c-2.90295,0.12266 -5.15171,0.1908 -6.74629,0.20443l-0.06133,-1.32881c2.11247,-0.02726 4.64403,-0.10222 7.59468,-0.22488c2.95065,-0.12266 5.36636,-0.25213 7.24715,-0.38842l0.20443,1.30837c-2.11247,0.14992 -4.36124,0.27258 -6.74629,0.36798v1.67635h8.17732v1.20615h-8.17732v1.43103h6.15343v6.27609h-6.15343v1.43103h6.88939v1.14482zM298.48642,183.7918h-10.16032c-1.03579,1.14482 -2.30328,2.33054 -3.80245,3.55713l9.17904,-0.34754l-2.24876,-2.1261l1.00172,-1.00172c0.58604,0.53153 1.14823,1.04942 1.68657,1.55369c0.53834,0.50427 1.01194,0.94721 1.42081,1.32881c1.47192,1.39014 2.0784,1.95574 1.81945,1.69679l-1.06305,1.16527c-0.23169,-0.24532 -0.65419,-0.67463 -1.26748,-1.28793l-12.63396,0.55197l-0.38842,-1.45147c1.60821,-1.14482 3.01879,-2.35779 4.23176,-3.63891h-5.86723v-1.39014h2.69851v-10.63051h12.63396v10.63051h2.75984zM338.96414,173.69281l-1.69679,5.21304c0.72233,0.94039 1.2266,1.77516 1.5128,2.5043c0.28621,0.72914 0.42931,1.50258 0.42931,2.32031c0,1.15845 -0.24532,1.983 -0.73596,2.47364c-0.49064,0.49064 -1.31519,0.73596 -2.47364,0.73596h-1.16527l-0.30665,-1.45147h1.06305c0.8041,0 1.36629,-0.14651 1.68657,-0.43953c0.32028,-0.29302 0.48042,-0.81432 0.48042,-1.56391c0,-0.65419 -0.16014,-1.322 -0.48042,-2.00344c-0.32028,-0.68144 -0.82795,-1.43785 -1.52303,-2.26921l1.65591,-5.54013h-3.43447v15.96621h-1.45147v-17.47902h6.43964zM317.19203,182.52431l1.61502,0.38842c0,0.47701 -0.0477,1.60139 -0.1431,3.37314c-0.04089,0.65419 -0.14651,1.15505 -0.31687,1.50258c-0.17036,0.34754 -0.44635,0.59286 -0.82795,0.73596c-0.38161,0.1431 -0.91995,0.21465 -1.61502,0.21465h-2.10566c-0.69507,0 -1.2266,-0.07496 -1.59458,-0.22488c-0.36798,-0.14992 -0.62693,-0.41568 -0.77685,-0.79729c-0.14992,-0.38161 -0.22488,-0.94039 -0.22488,-1.67635v-15.10759h1.57413v6.76673c0.81773,-0.49064 1.67976,-1.04601 2.58608,-1.66613c0.90632,-0.62011 1.70702,-1.20275 2.40209,-1.7479l0.91995,1.41059c-1.17208,0.87225 -3.14145,2.18062 -5.90811,3.92511v6.25565c0,0.36798 0.03407,0.64056 0.10222,0.81773c0.06814,0.17717 0.1908,0.29983 0.36798,0.36798c0.17717,0.06814 0.44975,0.10222 0.81773,0.10222h1.43103c0.6133,0 1.02898,-0.08859 1.24704,-0.26576c0.21806,-0.17717 0.33391,-0.52471 0.34754,-1.04261c0.02726,-0.44975 0.05111,-1.00854 0.07155,-1.67635c0.02044,-0.66781 0.03066,-1.21978 0.03066,-1.65591zM301.20538,177.78147v-1.61502h5.06994v-5.25393h1.59458v18.46029h-1.59458v-3.88423l-4.94728,2.26921l-0.59286,-1.55369l5.54013,-2.53497v-5.88767zM330.92993,174.65365h-1.53325c-0.16355,1.26748 -0.37479,2.46001 -0.63374,3.57758h2.75984v1.47192h-10.24209v-1.47192h2.61674c-0.25895,-1.55369 -0.49745,-2.74622 -0.71552,-3.57758h-1.39014v-1.45147h3.98644c-0.17717,-0.72233 -0.38161,-1.39014 -0.6133,-2.00344l1.5128,-0.36798c0.27258,0.81773 0.50427,1.60821 0.69507,2.37142h3.55713zM239.60973,188.12578v-1.65591h17.88788v1.65591zM240.75456,174.30611v-1.65591h15.57779v1.65591zM323.89743,187.9009v1.3697h-1.43103v-7.70712h7.80934v6.33742zM241.6745,180.82752v-1.63546h13.75834v1.63546zM294.25466,182.40165v-2.24876h-9.66968v2.24876zM284.58498,176.65709v2.16699h9.66968v-2.16699zM284.58498,175.36916h9.66968v-2.14655h-9.66968zM323.89743,186.51076h4.94728v-3.4958h-4.94728zM328.00654,174.65365h-3.37314c0.35435,1.68998 0.59286,2.8825 0.71552,3.57758h2.02389c0.24532,-1.06305 0.45657,-2.25558 0.63374,-3.57758zM269.74315,179.92802h4.66107v-1.41059h-4.66107zM274.40422,181.0524h-4.66107v1.39014h4.66107zM263.6306,179.92802h4.62018v-1.41059h-4.62018zM268.25079,181.0524h-4.62018v1.39014h4.62018z"/></g></g></svg>