<svg version="1.1" xmlns="http://www.w3.org/2000/svg" xmlns:xlink="http://www.w3.org/1999/xlink" width="208" height="32" viewBox="0,0,208,32"><g transform="translate(-240,-164)"><g stroke-miterlimit="10"><path d="M240,196v-32h208v32z" fill="none" fill-rule="nonzero" stroke="none" stroke-width="0" stroke-linecap="butt"/><path d="M299.03342,182.49795h-10.05495c-1.02505,1.18168 -2.27939,2.40556 -3.76302,3.67164l9.08384,-0.35872l-2.22544,-2.19454l0.99133,-1.03397c0.57996,0.54864 1.13632,1.08321 1.66908,1.60371c0.53276,0.5205 1.00145,0.9777 1.40607,1.37159c1.45665,1.43489 2.05685,2.0187 1.80058,1.75142l-1.05203,1.20278c-0.22929,-0.25322 -0.6474,-0.69635 -1.25434,-1.32939l-12.50293,0.56974l-0.38439,-1.4982c1.59153,-1.18168 2.98749,-2.43369 4.18787,-3.75605h-5.80638v-1.43489h2.67053v-10.97272h12.50293v10.97272h2.73122zM258.28762,178.95292h-7.72835c0.51253,1.22388 1.1026,2.2684 1.77024,3.13356c0.66763,0.86516 1.49037,1.63184 2.46822,2.30005c0.97785,0.66821 2.19509,1.2907 3.65175,1.86747l-0.78902,1.5404c-2.29288,-0.97066 -4.11032,-2.13124 -5.45233,-3.48173c-1.34201,-1.35049 -2.4581,-3.13707 -3.34828,-5.35975h-3.35839v7.21668l4.63296,-2.11014l0.08093,1.60371l-6.19077,2.86979l-0.76879,-1.5826c0.26975,-0.15474 0.45858,-0.30245 0.56648,-0.44313c0.1079,-0.14068 0.16185,-0.30949 0.16185,-0.50643v-7.04786h-3.13585v-1.64591h3.13585v-8.08183h1.51735v8.08183h12.78617zM265.20672,169.47839v15.00309l1.25434,-0.18991v-11.47916h1.25434v13.82141h-1.25434v-0.97066l-5.01736,0.69635v-13.44159h1.25434v11.96449l1.21388,-0.18991v-15.2141zM327.43813,172.55919h1.17341v13.99022h-1.17341v-1.30829l-5.34106,0.73855v-13.33608h1.17341v11.60576l1.45665,-0.21101v-14.74987h1.3555v14.55996l1.3555,-0.18991zM339.43528,186.80263l-0.62717,1.66701c-1.9422,-0.98473 -3.52699,-2.07497 -4.75435,-3.27072c-1.25434,1.08321 -2.98074,2.18048 -5.17921,3.29182l-0.68786,-1.4771c2.03662,-0.9566 3.64837,-1.94133 4.83528,-2.95419c-1.26783,-1.53337 -2.27265,-3.45359 -3.01446,-5.76068v-1.5615h3.39885v-3.0597h-4.04626v-1.4982h4.04626v-3.0808h1.39596v3.0808h4.45088v1.4982h-4.45088v3.0386h3.27747v1.62481c-0.37765,1.25202 -0.79239,2.33874 -1.24422,3.26016c-0.45183,0.92143 -1.02168,1.76197 -1.70954,2.52162c1.13295,1.041 2.56937,1.93429 4.30926,2.67988zM309.61438,169.22518h1.39596v1.79362h7.48557v1.456h-7.48557v1.92023h6.17054v1.456h-13.83819v-1.456h6.2717v-1.92023h-7.54627v-1.456h7.54627zM316.35139,183.08879l1.47688,0.48533c-0.02698,0.74558 -0.08093,1.46303 -0.16185,2.15234c-0.08093,0.75965 -0.33719,1.2907 -0.76879,1.59315c-0.4316,0.30245 -1.15993,0.45368 -2.18498,0.45368h-7.38442c-0.68786,0 -1.22062,-0.08089 -1.59827,-0.24267c-0.37765,-0.16178 -0.65077,-0.43258 -0.81937,-0.8124c-0.16859,-0.37983 -0.25289,-0.92143 -0.25289,-1.62481v-5.10654h1.3555v3.14411c1.64548,-0.30949 3.4056,-0.70338 5.28036,-1.18168c1.87476,-0.4783 3.48652,-0.94253 4.83528,-1.39269l0.44509,1.4982c-1.33526,0.39389 -2.974,0.82647 -4.9162,1.29774c-1.9422,0.47126 -3.82371,0.89681 -5.64453,1.27663v0.25322c0,0.57677 0.10453,0.96011 0.31358,1.15003c0.20906,0.18991 0.60357,0.28487 1.18353,0.28487h6.71678c0.52601,0 0.92389,-0.03869 1.19365,-0.11606c0.26975,-0.07737 0.46532,-0.21453 0.58671,-0.41148c0.12139,-0.19695 0.20231,-0.48533 0.24278,-0.86516c0.02698,-0.25322 0.06069,-0.86516 0.10116,-1.83582zM268.18072,177.1804h10.52026v1.41379h-1.47688v7.30108c0,0.57677 -0.07081,1.02342 -0.21243,1.33994c-0.14162,0.31652 -0.37765,0.5416 -0.70809,0.67524c-0.33044,0.13364 -0.79914,0.20046 -1.40607,0.20046h-1.78035l-0.26301,-1.39269h1.59827c0.40463,0 0.70472,-0.03517 0.90029,-0.10551c0.19557,-0.07034 0.33044,-0.18991 0.40463,-0.35872c0.07418,-0.16881 0.11127,-0.42203 0.11127,-0.75965v-6.90015h-7.68789zM269.23274,176.88498l-0.62717,-1.35049c1.26783,-0.36576 2.18835,-0.75262 2.76157,-1.16058c0.57322,-0.40796 0.96773,-0.9566 1.18353,-1.64591h-3.45955v-1.39269h3.72256l0.02023,-0.21101c0.01349,-0.22508 0.02698,-0.5205 0.04046,-0.88626c0.01349,-0.36576 0.02023,-0.68228 0.02023,-0.94956h1.37573c0,0.30949 -0.02023,0.97066 -0.06069,1.98353v0.0633h3.68209v1.39269h-3.84394c-0.02698,0.14068 -0.08093,0.35169 -0.16185,0.63304l0.40463,0.21101c1.8343,0.87219 3.10887,1.51227 3.82371,1.92023l-0.60694,1.37159l-1.37573,-0.75965c-1.2948,-0.70338 -2.24567,-1.23091 -2.85261,-1.5826c-0.36416,0.4783 -0.86994,0.90384 -1.51735,1.27663c-0.6474,0.37279 -1.49037,0.73503 -2.52891,1.08672zM303.58545,178.84741v2.00463h-1.39596v-3.43953h16.18502v3.37622h-1.41619v-1.94133zM255.79918,169.71051l0.72833,1.5826c-1.22736,0.85812 -2.65367,1.70218 -4.27892,2.53217c-1.62525,0.82999 -3.25386,1.5615 -4.88585,2.19454l-0.56648,-1.5615c1.5106,-0.5627 3.06841,-1.26608 4.67343,-2.11014c1.60502,-0.84406 3.04818,-1.72328 4.32949,-2.63767zM294.84554,181.06305v-2.32115h-9.56939v2.32115zM285.27615,175.13356v2.23675h9.56939v-2.23675zM285.27615,173.80418h9.56939v-2.21565h-9.56939zM269.21251,185.62096v-5.35975h4.95666v5.35975zM336.56244,178.27767l-5.03759,0.0211c0.6474,1.88506 1.49711,3.46063 2.54914,4.72671c0.59345,-0.66118 1.08574,-1.37159 1.47688,-2.13124c0.39114,-0.75965 0.72833,-1.63184 1.01156,-2.61657zM270.48708,181.54839v2.76428h2.46822v-2.76428z" fill="#ffffff" fill-rule="evenodd" stroke="#ffffff" stroke-width="0.5" stroke-linecap="round"/></g></g></svg>