<svg version="1.1" xmlns="http://www.w3.org/2000/svg" xmlns:xlink="http://www.w3.org/1999/xlink" width="138.65482" height="20.54628" viewBox="0,0,138.65482,20.54628"><g transform="translate(-240.66427,-170.85945)"><g fill="#ffffff" stroke="none" stroke-miterlimit="10"><path d="M241.32321,178.81214h17.93088v2.2224h-17.93088v-2.2224M246.27516,188.42073h10.38314v2.09167h-10.38314v-2.09167M245.13701,183.36587h12.79921v7.97448h-2.23637v-5.88281h-8.42632v5.94818h-2.13653v-8.03985M242.52126,171.92707h2.1565v2.89783h11.20181v-2.89783h2.25634v5.03307h-15.61464v-5.03307M249.15049,171.01197h2.2164v5.05486h-2.2164v-5.05486M247.19367,178.98645l2.2164,0.67543c-0.50584,1.19109 -1.12085,2.35313 -1.845,3.48612c-0.72682,1.13299 -1.5588,2.17446 -2.49595,3.12443c-0.93981,0.95287 -1.96215,1.77065 -3.06702,2.45335c-0.10649,-0.18883 -0.23562,-0.40381 -0.38737,-0.64493c-0.15442,-0.23822 -0.31549,-0.47353 -0.48322,-0.70593c-0.16507,-0.23241 -0.32081,-0.42124 -0.46724,-0.56649c1.01169,-0.56649 1.9475,-1.27098 2.80744,-2.11346c0.85727,-0.84248 1.60539,-1.76194 2.24436,-2.75839c0.63896,-0.99354 1.1315,-1.97691 1.4776,-2.95012zM275.96694,170.99018l1.55747,1.93915c-0.98507,0.29051 -2.07263,0.5447 -3.2627,0.76258c-1.19273,0.21788 -2.43471,0.40236 -3.72595,0.55342c-1.29124,0.15397 -2.58514,0.27744 -3.8817,0.3704c-1.29922,0.09587 -2.55452,0.16559 -3.76588,0.20917c-0.03994,-0.30504 -0.11315,-0.6609 -0.21964,-1.06762c-0.10649,-0.40672 -0.21299,-0.73353 -0.31948,-0.98047c1.19805,-0.0581 2.42939,-0.13799 3.694,-0.23967c1.26461,-0.10168 2.5026,-0.22515 3.71397,-0.3704c1.21137,-0.14526 2.34685,-0.31665 3.40647,-0.5142c1.05695,-0.19464 1.99143,-0.41543 2.80345,-0.66237M262.48883,177.17803h15.73445v2.2224h-15.73445v-2.2224M261.13104,182.25468h18.25036v2.28776h-18.25036v-2.28776M269.158,173.86622h2.23637v14.59809c0,0.72627 -0.09718,1.26662 -0.29153,1.62105c-0.19169,0.35733 -0.51383,0.6304 -0.96643,0.81924c-0.4526,0.17431 -1.03831,0.29051 -1.75715,0.34861c-0.71883,0.0581 -1.59075,0.07989 -2.61575,0.06537c-0.03994,-0.23241 -0.11049,-0.48661 -0.21166,-0.76258c-0.09851,-0.27599 -0.20766,-0.55632 -0.32747,-0.84102c-0.11981,-0.2818 -0.23296,-0.52437 -0.33945,-0.72772c0.51916,0.01453 1.025,0.02905 1.51754,0.04358c0.49253,0.01453 0.93182,0.01743 1.31786,0.00871c0.38604,-0.00581 0.65227,-0.00871 0.7987,-0.00871c0.2263,0 0.3887,-0.04358 0.48721,-0.13073c0.10117,-0.08715 0.15175,-0.23967 0.15175,-0.45756zM281.23838,183.01726h17.93088v2.11346h-17.93088v-2.11346M285.21193,175.74h9.94385v1.91736h-9.94385v-1.91736M285.2319,179.35684h9.96382v1.89557h-9.96382v-1.89557M284.33336,172.03601h12.20019v11.93993h-2.1565v-9.97899h-7.96706v9.97899h-2.07663v-11.93993M292.24051,185.95867l1.81705,-0.87153c0.5724,0.49387 1.16211,1.0531 1.76913,1.67769c0.60435,0.62459 1.1701,1.23757 1.69724,1.83892c0.52448,0.60426 0.95978,1.1388 1.30588,1.60361l-1.87695,1.06762c-0.33279,-0.49387 -0.76276,-1.05746 -1.28991,-1.69076c-0.52448,-0.6304 -1.08624,-1.26517 -1.68526,-1.90429c-0.59903,-0.63912 -1.17809,-1.21288 -1.73718,-1.72126M283.0155,190.81744c-0.03994,-0.17431 -0.09984,-0.39219 -0.17971,-0.65364c-0.07987,-0.26146 -0.15974,-0.53454 -0.23961,-0.81924c-0.07987,-0.2818 -0.1664,-0.52437 -0.25958,-0.72772c0.2263,-0.0581 0.4526,-0.15687 0.6789,-0.29631c0.2263,-0.13654 0.47257,-0.32101 0.7388,-0.55342c0.19968,-0.14526 0.49653,-0.40672 0.89055,-0.78437c0.39136,-0.37767 0.82666,-0.83521 1.30588,-1.37266c0.47922,-0.53744 0.91851,-1.10394 1.31786,-1.69948l2.19643,0.9151c-0.77208,0.94415 -1.59341,1.84038 -2.464,2.68867c-0.87325,0.85119 -1.71588,1.56729 -2.52789,2.14832v0.04358c0,0 -0.07322,0.03631 -0.21964,0.10894c-0.14643,0.07263 -0.31549,0.16268 -0.50718,0.27017c-0.19435,0.11039 -0.36474,0.23096 -0.51117,0.36168c-0.14643,0.13073 -0.21964,0.2542 -0.21964,0.3704M283.0155,190.81744l-0.01997,-1.61232l1.27792,-0.76258l11.56122,-0.50112c0.03994,0.29051 0.09984,0.61298 0.17971,0.96739c0.07987,0.35733 0.13977,0.64493 0.17971,0.86281c-1.83702,0.10168 -3.42111,0.19173 -4.75228,0.27017c-1.33117,0.08134 -2.45601,0.15107 -3.37452,0.20917c-0.91851,0.0581 -1.67328,0.10894 -2.26432,0.15252c-0.5937,0.04358 -1.0676,0.08279 -1.42169,0.11766c-0.35143,0.03776 -0.62964,0.07844 -0.83464,0.12202c-0.20766,0.04358 -0.38471,0.10168 -0.53114,0.17431zM307.97496,181.75355h10.10359v9.54323h-2.1565v-7.3862h-5.87047v7.47336h-2.07663v-9.63038M309.19298,187.98497h7.72745v2.17882h-7.72745v-2.17882M309.6722,172.03601h6.13004v2.17882h-6.13004v-2.17882M308.97334,172.03601h2.07663v2.50565c0,0.7989 -0.09584,1.63702 -0.28753,2.51436c-0.19435,0.88024 -0.55377,1.72708 -1.07825,2.5405c-0.52714,0.81342 -1.29656,1.52517 -2.30825,2.13524c-0.06656,-0.15978 -0.18903,-0.35588 -0.3674,-0.58828c-0.18104,-0.23241 -0.36474,-0.46191 -0.5511,-0.68851c-0.18636,-0.2237 -0.3461,-0.39364 -0.47922,-0.50985c0.87857,-0.5084 1.53085,-1.07197 1.95682,-1.69076c0.42597,-0.61588 0.70552,-1.25064 0.83864,-1.90429c0.13312,-0.65364 0.19968,-1.27824 0.19968,-1.87378v-2.44028M314.76393,172.03601h2.0966v5.9046c0,0.33409 0.01731,0.57375 0.05192,0.71901c0.03195,0.14526 0.12114,0.21788 0.26757,0.21788c0.07987,0 0.17971,0 0.29951,0c0.11981,0 0.2436,0 0.3714,0c0.12513,0 0.22763,0 0.3075,0c0.13312,0 0.30351,-0.01162 0.51117,-0.03486c0.205,-0.02034 0.37406,-0.05229 0.50718,-0.09587c0.01331,0.29051 0.03062,0.59845 0.05192,0.92382c0.01864,0.32828 0.04792,0.6304 0.08786,0.90639c-0.13312,0.0581 -0.30218,0.09732 -0.50718,0.11766c-0.20766,0.02324 -0.41133,0.03486 -0.61101,0.03486c-0.10649,0 -0.24227,0 -0.40734,0c-0.16773,0 -0.33412,0 -0.49919,0c-0.16773,0 -0.30484,0 -0.41133,0c-0.58571,0 -1.03166,-0.10168 -1.33783,-0.30504c-0.30617,-0.20336 -0.5125,-0.51565 -0.61899,-0.93689c-0.10649,-0.42124 -0.15974,-0.95142 -0.15974,-1.59053v-5.86102M301.78501,173.01648l1.35779,-1.50338c0.41266,0.23241 0.85594,0.50403 1.32984,0.81487c0.47123,0.31375 0.91984,0.62605 1.34581,0.93689c0.42597,0.31375 0.77874,0.60861 1.05828,0.8846l-1.43767,1.67769c-0.25292,-0.27599 -0.58571,-0.58102 -0.99838,-0.9151c-0.41266,-0.33409 -0.85195,-0.66817 -1.31786,-1.00226c-0.46591,-0.33409 -0.91185,-0.63185 -1.33783,-0.89332M300.7467,178.92108l1.33783,-1.52517c0.41266,0.21788 0.85195,0.46772 1.31786,0.74951c0.46591,0.2847 0.91851,0.57521 1.35779,0.87153c0.43929,0.29922 0.7987,0.5723 1.07825,0.81924l-1.4177,1.69948c-0.26623,-0.26146 -0.60568,-0.54906 -1.01835,-0.86281c-0.41266,-0.31084 -0.85461,-0.62314 -1.32585,-0.93689c-0.4739,-0.31084 -0.91718,-0.58247 -1.32984,-0.81487M301.22592,189.44478c0.37273,-0.53744 0.79205,-1.17656 1.25796,-1.91736c0.46591,-0.7408 0.94247,-1.53243 1.42968,-2.37492c0.48455,-0.84248 0.93981,-1.67769 1.36578,-2.50565l1.55747,1.67769c-0.37273,0.7408 -0.77474,1.50338 -1.20604,2.28776c-0.43396,0.78437 -0.86659,1.56148 -1.29789,2.33134c-0.43396,0.76985 -0.87059,1.50338 -1.30987,2.20061zM322.47142,177.85346h2.13653v4.16155c0,0.68269 -0.02929,1.41914 -0.08786,2.20932c-0.06123,0.79309 -0.16773,1.59926 -0.31948,2.41849c-0.15442,0.82214 -0.37805,1.61378 -0.67091,2.37492c-0.29286,0.76404 -0.67224,1.45109 -1.13815,2.06117c-0.10649,-0.15978 -0.26623,-0.33844 -0.47922,-0.53599c-0.21299,-0.19464 -0.43529,-0.38347 -0.66692,-0.56649c-0.23429,-0.18012 -0.4313,-0.31375 -0.59104,-0.4009c0.55909,-0.7408 0.9651,-1.55422 1.21802,-2.44028c0.25292,-0.88605 0.41666,-1.77647 0.4912,-2.67123c0.07188,-0.89186 0.10782,-1.72273 0.10782,-2.49257v-4.11797M323.6495,177.85346h15.27519v2.06988h-15.27519v-2.06988M325.94577,181.29599h12.31999v1.98273h-12.31999v-1.98273M325.02727,185.10893h14.19694v2.06988h-14.19694v-2.06988M330.8578,181.90607h2.25634v9.45608h-2.25634v-9.45608M322.53132,171.81813h2.17647v2.59279h11.00213v-2.59279h2.25634v4.66267h-15.43493v-4.66267M329.02078,171.01197h2.2763v4.37943h-2.2763zM341.2609,172.92933h17.69127v2.17882h-17.69127v-2.17882M345.5739,182.12395h9.08525v1.83021h-9.08525v-1.83021M345.15458,185.61006h9.92388v1.89557h-9.92388v-1.89557M349.02829,183.01726h2.03669v7.77838h-2.03669v-7.77838M342.09954,176.93836h14.45652v2.15703h-12.30002v12.22318h-2.1565v-14.38021M355.93707,176.93836h2.19643v11.96172c0,0.59554 -0.07588,1.04873 -0.22763,1.35959c-0.15442,0.31375 -0.42464,0.55051 -0.81068,0.71029c-0.38604,0.15978 -0.87192,0.2571 -1.45763,0.29196c-0.58571,0.03776 -1.27792,0.05665 -2.07663,0.05665c-0.05325,-0.29051 -0.14909,-0.62895 -0.28753,-1.01533c-0.1411,-0.38347 -0.28487,-0.71319 -0.4313,-0.98918c0.35942,0.01453 0.71883,0.02905 1.07825,0.04358c0.35942,0.01453 0.68289,0.01743 0.97042,0.00871c0.28487,-0.00581 0.4739,-0.00871 0.56708,-0.00871c0.18636,-0.01453 0.31283,-0.0552 0.37938,-0.12202c0.06656,-0.06391 0.09984,-0.17576 0.09984,-0.33554v-11.96172M346.41254,179.70546l1.69724,-0.5447c0.23961,0.36314 0.4699,0.76985 0.69088,1.22014c0.21831,0.45029 0.38072,0.84974 0.48721,1.19835l-1.79708,0.65364c-0.07987,-0.34861 -0.2263,-0.76258 -0.43929,-1.24193c-0.21299,-0.47935 -0.42597,-0.90784 -0.63896,-1.28551M352.1632,179.18254l1.81705,0.56649c-0.26623,0.52291 -0.53247,1.03857 -0.7987,1.54696c-0.26623,0.5084 -0.52581,0.95142 -0.77874,1.32908l-1.51754,-0.50112c0.15974,-0.27599 0.31682,-0.58828 0.47123,-0.93689c0.15175,-0.34861 0.30085,-0.69722 0.44727,-1.04583c0.14643,-0.34861 0.26623,-0.66817 0.35942,-0.95868M348.94842,171.12091h2.35617v7.32084h-2.35617zM372.35041,172.07959h5.21154v2.11346h-3.31462v17.08195h-1.89692v-19.1954M377.12266,172.07959h0.39935l0.31948,-0.08715l1.4776,1.00226c-0.33279,1.04583 -0.70552,2.15267 -1.11818,3.32052c-0.41266,1.17075 -0.81202,2.23547 -1.19805,3.19415c0.82533,1.00226 1.36179,1.93479 1.60939,2.7976c0.24494,0.86571 0.3674,1.66171 0.3674,2.38798c0,0.7408 -0.07588,1.37266 -0.22763,1.89557c-0.15442,0.52291 -0.41133,0.92237 -0.77075,1.19835c-0.17305,0.13073 -0.37273,0.23531 -0.59903,0.31375c-0.2263,0.08134 -0.46591,0.14381 -0.71883,0.18738c-0.2263,0.02905 -0.47922,0.04648 -0.75877,0.05229c-0.27955,0.00871 -0.55909,0.00581 -0.83864,-0.00871c-0.01331,-0.30504 -0.0599,-0.66817 -0.13977,-1.08941c-0.07987,-0.42124 -0.20633,-0.78437 -0.37938,-1.08941c0.25292,0.02905 0.48322,0.04648 0.69088,0.05229c0.205,0.00871 0.39403,0.00581 0.56708,-0.00871c0.13312,0 0.26623,-0.01889 0.39935,-0.05665c0.13312,-0.03486 0.24627,-0.0886 0.33945,-0.16123c0.17305,-0.1162 0.29685,-0.30939 0.3714,-0.57956c0.07188,-0.26727 0.10782,-0.58974 0.10782,-0.96739c0,-0.62459 -0.13977,-1.32908 -0.41932,-2.11346c-0.27955,-0.78437 -0.81867,-1.62685 -1.61737,-2.52744c0.19968,-0.55196 0.40334,-1.1446 0.61101,-1.77792c0.205,-0.6304 0.40468,-1.26953 0.59903,-1.91736c0.19169,-0.64493 0.3674,-1.25064 0.52714,-1.81713c0.15974,-0.56649 0.29286,-1.04583 0.39935,-1.43803v-0.76258M361.50802,173.47403h9.6044v2.09167h-9.6044v-2.09167M360.98886,179.33505h10.56285v2.11346h-10.56285v-2.11346M362.58627,176.04504l1.83702,-0.50112c0.27955,0.52291 0.52981,1.09958 0.75078,1.72998c0.21831,0.63332 0.37406,1.18238 0.46724,1.64719l-1.91689,0.58828c-0.07987,-0.47935 -0.2263,-1.04293 -0.43929,-1.69076c-0.21299,-0.64493 -0.44594,-1.23612 -0.69887,-1.77356M368.23709,175.47854l2.11656,0.50112c-0.18636,0.49387 -0.37938,0.99499 -0.57906,1.50338c-0.19968,0.5084 -0.3927,0.99499 -0.57906,1.45981c-0.18636,0.46482 -0.37273,0.87879 -0.55909,1.24193l-1.79708,-0.47935c0.17305,-0.39219 0.3501,-0.83521 0.53114,-1.32908c0.17838,-0.49387 0.34477,-0.99499 0.49919,-1.50338c0.15175,-0.5084 0.27422,-0.97321 0.3674,-1.39445M363.08546,188.24642h6.54936v2.04809h-6.54936v-2.04809M361.96727,183.148h8.76576v8.01806h-2.11656v-5.92639h-4.63248v6.05712h-2.01672v-8.14879M364.70283,171.44773l1.93685,-0.58828c0.21299,0.46482 0.42331,0.97321 0.63098,1.52517c0.205,0.55196 0.35409,1.02405 0.44727,1.41624l-2.05666,0.69722c-0.07987,-0.39219 -0.20899,-0.87589 -0.38737,-1.45109c-0.18104,-0.5723 -0.3714,-1.10539 -0.57107,-1.59926z"/></g></g></svg>