<svg version="1.1" xmlns="http://www.w3.org/2000/svg" xmlns:xlink="http://www.w3.org/1999/xlink" width="180" height="40" viewBox="0,0,180,40"><g transform="translate(-150,-160)"><g stroke-linecap="round" stroke-miterlimit="10"><path d="M150,160h180v40h-180z" fill="none" fill-rule="nonzero" stroke="none" stroke-width="0.2" stroke-linejoin="round"/><path d="M176.27213,182.00279v-7.28965h-2.83807v7.34728h-0.92201v-8.37013h4.69649v8.31251zM175.32131,175.53431v3.84652c0,0.98924 -0.07203,1.82962 -0.2161,2.52112c0.97003,0.98924 1.82001,1.88244 2.54994,2.67959l-0.70591,0.73473c-0.91241,-1.03726 -1.62793,-1.84402 -2.14656,-2.42028c-0.2209,0.52824 -0.52824,1.01805 -0.92201,1.46946c-0.39378,0.4514 -0.92201,0.95082 -1.58471,1.49827l-0.73473,-0.76354c0.81636,-0.62428 1.41663,-1.18613 1.8008,-1.68555c0.38417,-0.49942 0.64589,-1.04687 0.78515,-1.64233c0.13926,-0.59547 0.20889,-1.39262 0.20889,-2.39147v-3.84652zM180.42118,183.87563v-10.80482h0.9076v11.10735c0,0.40338 -0.05282,0.71312 -0.15847,0.92921c-0.10565,0.2161 -0.28333,0.37217 -0.53304,0.46821c-0.24971,0.09604 -0.60507,0.14406 -1.06608,0.14406h-1.18133l-0.20169,-0.99404h1.15251c0.29773,0 0.52103,-0.02161 0.6699,-0.06483c0.14887,-0.04322 0.25451,-0.12486 0.31694,-0.24491c0.06243,-0.12005 0.09364,-0.30013 0.09364,-0.54024zM178.34666,182.59346v-8.26929h0.8932v8.26929zM170.8121,180.36046l0.50422,0.15847l0.46101,0.15847c-0.07683,0.2305 -0.29533,0.98444 -0.65549,2.26181c-0.36016,1.27737 -0.62188,2.2378 -0.78515,2.88128l-0.97964,-0.33135c0.14406,-0.39378 0.40338,-1.24856 0.77795,-2.56434c0.37457,-1.31579 0.60027,-2.17057 0.6771,-2.56434zM171.84936,178.40119l-0.6627,0.83557c-0.70111,-0.6723 -1.40223,-1.30138 -2.10334,-1.88724l0.63388,-0.79235c1.00845,0.84518 1.71917,1.45985 2.13215,1.84402zM172.12308,174.85721l-0.63388,0.82117c-0.28813,-0.29773 -0.63869,-0.63388 -1.05167,-1.00845c-0.41298,-0.37457 -0.73953,-0.65309 -0.97964,-0.83557l0.59066,-0.79235c0.6819,0.55705 1.37341,1.16212 2.07453,1.81521z" fill="#ffffff" fill-rule="evenodd" stroke="#ffffff" stroke-width="0.45" stroke-linejoin="miter"/><path d="M192.85393,175.23177h3.45754v1.05167h-3.45754v2.88128h2.78044v6.75661h-1.06608v-0.8932h-3.96177v0.8932h-1.03726v-6.75661h2.20418v-6.32442h1.08048zM187.37949,183.05446l1.71436,-0.31694l0.08644,1.03726l-5.41682,1.02286l-0.14406,-1.03726l2.73722,-0.50422c0.21129,-0.83557 0.4466,-1.84402 0.70591,-3.02535c0.25932,-1.18133 0.47541,-2.18978 0.64829,-3.02535l0.97964,0.2305c-0.27852,1.36381 -0.71552,3.23664 -1.31098,5.61851zM190.60653,180.2308v3.76008h3.96177v-3.76008zM189.28114,175.60634v1.03726h-5.58969v-1.03726zM184.12364,177.56561l0.95082,-0.27372c0.02881,0.14406 0.12005,0.51863 0.27372,1.1237c0.4418,1.84402 0.71552,3.05416 0.82117,3.63042l-0.96523,0.2161c-0.14406,-0.84518 -0.50422,-2.41068 -1.08048,-4.69649zM185.46343,173.02759l1.05167,-0.24491l0.76354,2.21859l-1.09489,0.24491z" fill="#ffffff" fill-rule="evenodd" stroke="#ffffff" stroke-width="0.45" stroke-linejoin="miter"/><path d="M204.56635,175.36143v1.62793h4.62446v4.65328h-9.59468v-4.65328h3.8177v-4.14905h1.15251v1.44064h5.70494v1.08048zM200.67662,178.06984v2.52112h7.43371v-2.52112zM199.00547,186.03659l-0.96523,-0.56185c0.32655,-0.48021 0.64589,-1.03246 0.95803,-1.65674c0.31214,-0.62428 0.54984,-1.18133 0.71312,-1.67115l0.97964,0.40338c-0.19209,0.51863 -0.4466,1.09969 -0.76354,1.74318c-0.31694,0.64349 -0.62428,1.22455 -0.92201,1.74318zM207.92305,182.57905l0.93642,-0.4466c0.57626,0.97003 1.16692,2.03131 1.77199,3.18382l-0.93642,0.56185c-0.30734,-0.63388 -0.898,-1.73357 -1.77199,-3.29907zM204.92651,182.66549l0.96523,-0.30253c0.18248,0.42259 0.38177,0.92921 0.59787,1.51988c0.2161,0.59066 0.38177,1.08288 0.49702,1.47666l-1.00845,0.28813c-0.20169,-0.72993 -0.55225,-1.72397 -1.05167,-2.98213zM201.84354,182.70871l1.00845,-0.2161c0.2209,0.86439 0.4466,1.88724 0.6771,3.06857l-1.06608,0.2305c-0.09604,-0.65309 -0.27852,-1.5751 -0.54744,-2.76603z" fill="#ffffff" fill-rule="evenodd" stroke="#ffffff" stroke-width="0.45" stroke-linejoin="miter"/></g></g></svg>