<svg version="1.1" xmlns="http://www.w3.org/2000/svg" xmlns:xlink="http://www.w3.org/1999/xlink" width="188.40009" height="43.557" viewBox="0,0,188.40009,43.557"><g transform="translate(-240,-180)"><g stroke="none" stroke-miterlimit="10"><path d="M248.9661,180h170.4679c4.96722,0 8.9661,3.568 8.9661,8v27.557c0,4.432 -3.99888,8 -8.9661,8h-170.4679c-4.96722,0 -8.9661,-3.568 -8.9661,-8v-27.557c0,-4.432 3.99888,-8 8.9661,-8z" fill-opacity="0.7" fill="#000000" fill-rule="evenodd" stroke-width="0"/><path d="M252.09508,186.7677h1.12612v3.87462h-1.12612v-3.87462M248.93622,187.52163l0.93525,-0.36265c0.17178,0.21632 0.33593,0.4549 0.49244,0.71575c0.15524,0.26085 0.29521,0.51534 0.41991,0.76347c0.12343,0.24813 0.22013,0.47399 0.29012,0.67758l-0.99251,0.42945c-0.05726,-0.20995 -0.14633,-0.44409 -0.26721,-0.70239c-0.12088,-0.25703 -0.25576,-0.51916 -0.40464,-0.78638c-0.15015,-0.26721 -0.30793,-0.51216 -0.47335,-0.73484M255.32075,187.07309l1.13566,0.33402c-0.13997,0.27994 -0.2863,0.56433 -0.439,0.85318c-0.15269,0.29012 -0.30539,0.56561 -0.45808,0.82646c-0.15269,0.26085 -0.29903,0.49308 -0.439,0.69667l-0.90662,-0.32448c0.13361,-0.21632 0.26849,-0.46126 0.40464,-0.73484c0.13742,-0.27358 0.26849,-0.55543 0.39319,-0.84554c0.12343,-0.28885 0.2265,-0.55733 0.30921,-0.80546M249.13663,190.09834h7.16708v5.58288h-1.09749v-4.5522h-6.06959v-1.03069M249.46111,192.14063h6.14594v0.99251h-6.14594v-0.99251M248.92668,194.25926h6.85215v1.02114h-6.85215zM261.46669,191.01451c0.41355,0.99251 1.05932,1.80815 1.93731,2.44692c0.87799,0.64004 1.98821,1.07777 3.33064,1.31317c-0.06998,0.06998 -0.14633,0.16033 -0.22904,0.27103c-0.08271,0.11198 -0.16033,0.22522 -0.23286,0.33974c-0.0738,0.11452 -0.13297,0.2195 -0.17751,0.31493c-0.92889,-0.19723 -1.74453,-0.4918 -2.44692,-0.88372c-0.70367,-0.39064 -1.30681,-0.88181 -1.80943,-1.4735c-0.50262,-0.59169 -0.91935,-1.28199 -1.25018,-2.07092l0.87799,-0.25767M264.65418,190.6614h0.20041l0.19087,-0.03817l0.71575,0.32448c-0.22268,0.6744 -0.51534,1.27054 -0.87799,1.78843c-0.36265,0.51916 -0.78256,0.96961 -1.25973,1.35134c-0.47717,0.38174 -1.00015,0.70303 -1.56893,0.96388c-0.57006,0.26085 -1.1732,0.47399 -1.80943,0.63941c-0.05726,-0.13361 -0.1387,-0.28821 -0.24431,-0.46381c-0.10434,-0.17433 -0.20423,-0.31875 -0.29966,-0.43327c0.5726,-0.12088 1.12167,-0.29585 1.64719,-0.52489c0.52425,-0.22904 1.0046,-0.5058 1.44105,-0.83027c0.43518,-0.32448 0.81182,-0.70494 1.12994,-1.14139c0.31811,-0.43518 0.56306,-0.92316 0.73484,-1.46396v-0.17178M261.14221,190.6614h3.66466v0.99251h-3.95096l0.2863,-0.99251M261.6671,186.71044l1.14521,0.19087c-0.12724,0.93525 -0.29712,1.8037 -0.50962,2.60534c-0.21377,0.80164 -0.49117,1.53776 -0.83218,2.20834c-0.33974,0.67185 -0.76093,1.27627 -1.26354,1.81324c-0.50262,0.53825 -1.10703,1.00778 -1.81324,1.4086c-0.04454,-0.07635 -0.11007,-0.16733 -0.19659,-0.27294c-0.08525,-0.10434 -0.17687,-0.20741 -0.27485,-0.30921c-0.09925,-0.1018 -0.19341,-0.18132 -0.28248,-0.23858c0.8589,-0.47717 1.55875,-1.07522 2.09955,-1.79416c0.54079,-0.71893 0.96388,-1.55112 1.26927,-2.49655c0.30539,-0.94416 0.52489,-1.98248 0.65849,-3.11496M263.81436,187.30213l0.80164,-0.47717c0.12724,0.13361 0.26594,0.28312 0.41609,0.44854c0.14888,0.16542 0.29012,0.32448 0.42373,0.47717c0.13361,0.15269 0.24495,0.2863 0.33402,0.40082l-0.83027,0.54397c-0.07635,-0.12088 -0.18132,-0.26276 -0.31493,-0.42564c-0.13361,-0.1616 -0.27358,-0.32702 -0.41991,-0.49626c-0.14633,-0.16796 -0.28312,-0.32511 -0.41037,-0.47144M258.73728,190.01245c-0.01909,-0.07635 -0.04963,-0.17051 -0.09162,-0.28248c-0.04072,-0.1107 -0.08207,-0.2265 -0.12406,-0.34738c-0.04072,-0.12088 -0.08016,-0.2195 -0.11834,-0.29585c0.06998,-0.02545 0.13679,-0.07189 0.20041,-0.13933c0.06362,-0.06617 0.12724,-0.15333 0.19087,-0.26149c0.03817,-0.06362 0.09861,-0.18132 0.18132,-0.35311c0.08271,-0.17178 0.1686,-0.37728 0.25767,-0.6165c0.08907,-0.23795 0.16224,-0.48099 0.2195,-0.72911l1.0784,0.18132c-0.07635,0.27358 -0.17369,0.55034 -0.29203,0.83027c-0.11707,0.27994 -0.23731,0.54397 -0.36074,0.7921c-0.1247,0.24813 -0.24431,0.46445 -0.35883,0.64895v0.01909c0,0 -0.03945,0.01718 -0.11834,0.05153c-0.08016,0.03563 -0.17305,0.08207 -0.27867,0.13933c-0.10434,0.05726 -0.19469,0.1177 -0.27103,0.18132c-0.07635,0.06362 -0.11452,0.12406 -0.11452,0.18132M258.73728,190.01245v-0.76347l0.62032,-0.41991h7.05256v0.98297h-6.67083c-0.26721,0 -0.48989,0.01718 -0.66804,0.05153c-0.17814,0.03563 -0.28948,0.08525 -0.33402,0.14888zM267.49811,188.15149h8.5127v0.99251h-8.5127v-0.99251M271.71629,189.5162h1.03069v6.16503h-1.03069v-6.16503M269.03459,190.67095h5.90736v0.97343h-4.88621v3.1684h-1.02114v-4.14183M274.49341,190.67095h1.04023v3.00617c0,0.24813 -0.03181,0.44218 -0.09543,0.58215c-0.06362,0.13997 -0.18451,0.24813 -0.36265,0.32448c-0.17178,0.07635 -0.39001,0.12216 -0.65468,0.13742c-0.2634,0.01654 -0.5796,0.02481 -0.94861,0.02481c-0.01909,-0.13997 -0.06235,-0.29775 -0.12979,-0.47335c-0.06617,-0.17433 -0.13424,-0.32829 -0.20423,-0.4619c0.16542,0.00636 0.32766,0.01082 0.48671,0.01336c0.15906,0.00382 0.29903,0.00573 0.41991,0.00573c0.12088,0 0.20359,0 0.24813,0c0.07635,-0.00636 0.12852,-0.021 0.15651,-0.0439c0.02927,-0.02163 0.0439,-0.06426 0.0439,-0.12788v-2.98708M270.60925,186.74861l1.05932,0.24813c-0.22904,0.76347 -0.5198,1.52058 -0.87227,2.27133c-0.35374,0.75075 -0.77874,1.45187 -1.275,2.10336c-0.49626,0.65277 -1.08158,1.21137 -1.75598,1.67582c-0.04454,-0.08271 -0.1018,-0.18005 -0.17178,-0.29203c-0.06998,-0.1107 -0.14188,-0.22013 -0.21568,-0.32829c-0.07253,-0.10816 -0.14061,-0.19723 -0.20423,-0.26721c0.45172,-0.29903 0.86018,-0.65404 1.22537,-1.06504c0.36647,-0.40973 0.69158,-0.85509 0.97533,-1.33607c0.28248,-0.47971 0.5268,-0.97597 0.73293,-1.48877c0.20741,-0.51153 0.37474,-1.0186 0.50198,-1.52122zM280.45803,189.39213h0.95434c-0.04454,0.40082 -0.09225,0.822 -0.14315,1.26354c-0.0509,0.44281 -0.10625,0.88181 -0.16605,1.31699c-0.06108,0.43645 -0.11834,0.85 -0.17178,1.24064c-0.05472,0.39192 -0.10752,0.73739 -0.15842,1.03641h-0.99251c0.06362,-0.31175 0.12724,-0.66677 0.19087,-1.06504c0.06362,-0.397 0.12597,-0.81373 0.18705,-1.25018c0.05981,-0.43518 0.11516,-0.87099 0.16605,-1.30744c0.0509,-0.43518 0.09543,-0.84682 0.13361,-1.23491M281.88954,190.49917l0.53443,-0.34356c0.17178,0.13361 0.34992,0.28948 0.53443,0.46763c0.18451,0.17814 0.32766,0.33402 0.42945,0.46763l-0.56306,0.39128c-0.08907,-0.13997 -0.22395,-0.30412 -0.40464,-0.49244c-0.18196,-0.18705 -0.35883,-0.35056 -0.53061,-0.49053M281.63187,192.47465l0.56306,-0.35311c0.19087,0.14633 0.39001,0.31493 0.59742,0.5058c0.20614,0.19087 0.36647,0.36265 0.48099,0.51534l-0.58215,0.40082c-0.10816,-0.14633 -0.26403,-0.32129 -0.46763,-0.52489c-0.20359,-0.20359 -0.40082,-0.38492 -0.59169,-0.54397M280.59164,187.76021h4.93393v0.92571h-4.93393v-0.92571M280.85885,189.39213h3.63603v0.87799h-3.63603v-0.87799M279.25556,191.30081h6.51813v0.92571h-6.51813v-0.92571M280.29579,193.37173h5.22978v0.87799h-5.22978v-0.87799M280.6489,186.75816l0.99251,0.25767c-0.12724,0.39446 -0.28121,0.78701 -0.4619,1.17765c-0.18196,0.39192 -0.37474,0.75965 -0.57833,1.10322c-0.20359,0.34356 -0.41037,0.64577 -0.62032,0.90662c-0.06362,-0.05726 -0.15079,-0.12088 -0.26149,-0.19087c-0.11198,-0.06998 -0.22204,-0.13997 -0.3302,-0.20995c-0.10816,-0.06998 -0.20359,-0.12724 -0.2863,-0.17178c0.21632,-0.22904 0.42182,-0.49816 0.6165,-0.80737c0.19341,-0.30793 0.36965,-0.63877 0.5287,-0.99251c0.15906,-0.35247 0.29266,-0.71003 0.40082,-1.07268M284.19904,189.39213h0.95434c0,0 -0.00127,0.02863 -0.00382,0.08589c-0.00382,0.05726 -0.00573,0.11897 -0.00573,0.18514c0,0.06744 -0.00318,0.12343 -0.00954,0.16796c-0.03817,0.9098 -0.07635,1.68091 -0.11452,2.31332c-0.03817,0.63368 -0.0808,1.15411 -0.12788,1.5613c-0.04835,0.40718 -0.10243,0.7253 -0.16224,0.95434c-0.06108,0.22904 -0.13297,0.39446 -0.21568,0.49626c-0.10816,0.14633 -0.22077,0.24622 -0.33784,0.29966c-0.11834,0.05472 -0.25385,0.0948 -0.40655,0.12025c-0.13997,0.01909 -0.31811,0.02863 -0.53443,0.02863c-0.21632,0 -0.44218,-0.00636 -0.67758,-0.01909c-0.00636,-0.12724 -0.03181,-0.2704 -0.07635,-0.42945c-0.04454,-0.15906 -0.10498,-0.29903 -0.18132,-0.41991c0.22268,0.01909 0.42627,0.03181 0.61078,0.03817c0.18451,0.00636 0.32129,0.00954 0.41037,0.00954c0.08271,0 0.14951,-0.01145 0.20041,-0.03436c0.0509,-0.02163 0.1018,-0.06108 0.15269,-0.11834c0.06362,-0.06998 0.12088,-0.21186 0.17178,-0.42564c0.0509,-0.2125 0.09861,-0.51471 0.14315,-0.90662c0.04454,-0.39064 0.08462,-0.89008 0.12025,-1.49831c0.03436,-0.60696 0.06426,-1.34307 0.08971,-2.20834v-0.20041M277.40415,187.60752l0.5726,-0.69667c0.18451,0.08271 0.38364,0.18132 0.59742,0.29585c0.2125,0.11452 0.41609,0.23222 0.61078,0.35311c0.19341,0.12088 0.35056,0.23222 0.47144,0.33402l-0.60123,0.77301c-0.11452,-0.1018 -0.26531,-0.21823 -0.45236,-0.34929c-0.18832,-0.12979 -0.38873,-0.25703 -0.60123,-0.38174c-0.21377,-0.12343 -0.41291,-0.23286 -0.59742,-0.32829M276.86972,190.33693l0.55352,-0.68712c0.18451,0.08271 0.37728,0.17942 0.57833,0.29012c0.19977,0.11198 0.39064,0.22522 0.5726,0.33974c0.18069,0.11452 0.32829,0.22268 0.44281,0.32448l-0.59169,0.78256c-0.1018,-0.10816 -0.24177,-0.22586 -0.41991,-0.35311c-0.17814,-0.12724 -0.3671,-0.25131 -0.56688,-0.37219c-0.20105,-0.12088 -0.39064,-0.22904 -0.56879,-0.32448M277.13693,194.96547c0.12724,-0.24813 0.26912,-0.54079 0.42564,-0.87799c0.15524,-0.3372 0.31111,-0.69667 0.46763,-1.0784c0.15524,-0.38174 0.29966,-0.75711 0.43327,-1.12612l0.78256,0.55352c-0.11452,0.3372 -0.23986,0.68394 -0.37601,1.04023c-0.13742,0.35629 -0.27739,0.70939 -0.41991,1.05932c-0.14379,0.34992 -0.28567,0.67758 -0.42564,0.98297zM287.18612,187.38802h1.8705v5.94553h-1.8705v-0.82073h1.06886v-4.31361h-1.06886v-0.81119M286.68032,187.38802h0.81119v6.78535h-0.81119v-6.78535M289.27612,188.81953h6.00279v0.7921h-6.00279v-0.7921M289.82009,187.43574h4.89576v3.58831h-4.97211v-0.83027h4.09411v-1.92776h-4.01777v-0.83027M291.65242,186.80587h0.9448v8.83718h-0.9448v-8.83718M293.96192,191.40579h0.84936v4.20863h-0.84936v-4.20863M289.50516,191.40579h0.83027v0.7921c0,0.35629 -0.01718,0.73611 -0.05153,1.13948c-0.03563,0.40464 -0.11198,0.80864 -0.22904,1.21201c-0.11834,0.40464 -0.30157,0.78828 -0.5497,1.15093c-0.08271,-0.08907 -0.1985,-0.18769 -0.34738,-0.29585c-0.15015,-0.10816 -0.28248,-0.19087 -0.397,-0.24813c0.22268,-0.31175 0.38683,-0.64132 0.49244,-0.9887c0.10434,-0.34611 0.17242,-0.69094 0.20423,-1.0345c0.03181,-0.34356 0.04772,-0.66486 0.04772,-0.96388v-0.76347M290.80306,191.79707l0.65849,0.11452c-0.03817,0.35629 -0.08716,0.71385 -0.14697,1.07268c-0.06108,0.3601 -0.13297,0.69921 -0.21568,1.01733c-0.08271,0.31811 -0.17496,0.60123 -0.27676,0.84936c-0.06362,-0.0509 -0.15269,-0.11325 -0.26721,-0.18705c-0.11452,-0.07253 -0.21314,-0.12788 -0.29585,-0.16605c0.14633,-0.34356 0.26276,-0.75711 0.34929,-1.24064c0.08525,-0.48353 0.15015,-0.97024 0.19469,-1.46014M292.73083,191.8925l0.62986,-0.07635c0.07635,0.29903 0.14951,0.61841 0.2195,0.95816c0.06998,0.34102 0.13234,0.66867 0.18705,0.98297c0.05344,0.31557 0.08971,0.58787 0.10879,0.81691l-0.68712,0.12406c-0.01272,-0.2354 -0.04263,-0.51407 -0.08971,-0.836c-0.04835,-0.32066 -0.10243,-0.65468 -0.16224,-1.00206c-0.06108,-0.34611 -0.12979,-0.66867 -0.20614,-0.9677zM299.2585,189.69752h4.76215v0.81119h-4.76215v-0.81119M299.2585,191.08131h4.76215v0.81119h-4.76215v-0.81119M299.74522,194.52648h3.78873v0.82073h-3.78873v-0.82073M298.58092,188.2851h6.15549v0.83027h-6.15549v-0.83027M299.1249,192.50328h5.01028v3.13023h-0.90662v-2.3095h-3.23521v2.33813h-0.86845v-3.15886M300.75682,187.08263l0.86845,-0.33402c0.13361,0.19723 0.26594,0.41355 0.397,0.64895c0.12979,0.2354 0.22968,0.44218 0.29966,0.62032l-0.89708,0.39128c-0.06362,-0.17814 -0.16033,-0.39128 -0.29012,-0.63941c-0.13106,-0.24813 -0.25703,-0.47717 -0.37792,-0.68712M297.90334,186.80587l0.90662,0.27676c-0.18451,0.53443 -0.404,1.06886 -0.65849,1.60329c-0.25449,0.53443 -0.53252,1.03705 -0.83409,1.50786c-0.30284,0.47081 -0.61332,0.89072 -0.93143,1.25973c-0.03181,-0.08271 -0.07762,-0.18641 -0.13742,-0.31111c-0.06108,-0.12343 -0.12788,-0.24876 -0.20041,-0.37601c-0.0738,-0.12724 -0.13933,-0.23222 -0.19659,-0.31493c0.27358,-0.29266 0.53761,-0.63623 0.7921,-1.03069c0.25449,-0.39446 0.48989,-0.81437 0.70621,-1.25973c0.21632,-0.44536 0.40082,-0.89708 0.55352,-1.35516M297.13987,189.41122l0.93525,-0.93525v0.00954v7.22434h-0.93525zM307.89527,189.67843v0.53443h3.97005v-0.53443h-3.97005M307.89527,190.95725v0.53443h3.97005v-0.53443h-3.97005M307.89527,188.40916v0.53443h3.97005v-0.53443h-3.97005M306.9123,187.62661h5.9837v4.65717h-5.9837v-4.65717M309.40313,186.67227l1.2311,0.16224c-0.1018,0.21632 -0.20995,0.42309 -0.32448,0.62032c-0.11452,0.19723 -0.21632,0.36901 -0.30539,0.51534l-0.93525,-0.19087c0.06362,-0.17178 0.12724,-0.35947 0.19087,-0.56306c0.06362,-0.20359 0.11134,-0.38492 0.14315,-0.54397M307.58034,192.88501h1.03069v1.37425c0,0.13997 0.04135,0.22904 0.12406,0.26721c0.08271,0.03817 0.26721,0.05726 0.55352,0.05726c0.0509,0 0.13234,0 0.24431,0c0.1107,0 0.23922,0 0.38555,0c0.14633,0 0.29266,0 0.439,0c0.14633,0 0.27994,0 0.40082,0c0.12088,0 0.21632,0 0.2863,0c0.15906,0 0.27803,-0.02418 0.35692,-0.07253c0.08016,-0.04708 0.13615,-0.14697 0.16796,-0.29966c0.03181,-0.15269 0.05726,-0.38174 0.07635,-0.68712c0.07635,0.05726 0.16987,0.10943 0.28058,0.15651c0.11198,0.04835 0.22713,0.09162 0.34547,0.12979c0.11707,0.03817 0.22332,0.0668 0.31875,0.08589c-0.04454,0.43263 -0.11579,0.76665 -0.21377,1.00206c-0.09925,0.2354 -0.24558,0.39573 -0.439,0.48099c-0.19469,0.08653 -0.46699,0.12979 -0.81691,0.12979c-0.05726,0 -0.15079,0 -0.28058,0c-0.13106,0 -0.27803,0 -0.4409,0c-0.1616,0 -0.32511,0 -0.49053,0c-0.16542,0 -0.31302,0 -0.44281,0c-0.13106,0 -0.22204,0 -0.27294,0c-0.42627,0 -0.75711,-0.0369 -0.99251,-0.1107c-0.2354,-0.07253 -0.39764,-0.19977 -0.48671,-0.38174c-0.08907,-0.18069 -0.13361,-0.42691 -0.13361,-0.73866v-1.39333M309.10728,192.57962l0.78256,-0.439c0.15906,0.13997 0.32002,0.29585 0.4829,0.46763c0.1616,0.17178 0.30793,0.34356 0.439,0.51534c0.12979,0.17178 0.23286,0.33084 0.30921,0.47717l-0.83027,0.49626c-0.06998,-0.14633 -0.1686,-0.30857 -0.29585,-0.48671c-0.12724,-0.17814 -0.26849,-0.35819 -0.42373,-0.54016c-0.15651,-0.18069 -0.31111,-0.3442 -0.46381,-0.49053M312.28523,192.98045l0.91617,-0.38174c0.13997,0.20359 0.28185,0.42627 0.42564,0.66804c0.14251,0.24177 0.27103,0.47717 0.38555,0.70621c0.11452,0.22904 0.19723,0.439 0.24813,0.62986l-0.97343,0.42945c-0.04454,-0.19087 -0.11897,-0.404 -0.22332,-0.63941c-0.10561,-0.2354 -0.2265,-0.47717 -0.36265,-0.7253c-0.13742,-0.24813 -0.27612,-0.47717 -0.41609,-0.68712M306.4065,192.77049l0.90662,0.38174c-0.08271,0.20995 -0.17178,0.44027 -0.26721,0.69094c-0.09543,0.25195 -0.19532,0.49562 -0.29966,0.73102c-0.10561,0.2354 -0.2125,0.44854 -0.32066,0.63941l-0.95434,-0.44854c0.12088,-0.17814 0.23858,-0.38174 0.35311,-0.61078c0.11452,-0.22904 0.22268,-0.46317 0.32448,-0.70239c0.1018,-0.23795 0.18769,-0.46508 0.25767,-0.6814zM315.84491,187.53117h2.71987v6.37498h-2.71987v-0.91617h1.76553v-4.54265h-1.76553v-0.91617M315.90217,190.23195h1.99457v0.89708h-1.99457v-0.89708M315.3582,187.53117h0.96388v7.148h-0.96388v-7.148M318.94651,188.5714h4.98165v1.02114h-4.98165v-1.02114M321.86679,186.82496h1.04023v7.45339c0,0.31811 -0.04135,0.55797 -0.12406,0.71957c-0.08271,0.16287 -0.22586,0.28567 -0.42945,0.36837c-0.19723,0.08271 -0.46254,0.13488 -0.79592,0.15651c-0.33466,0.0229 -0.74057,0.03118 -1.21774,0.02481c-0.01909,-0.14633 -0.0649,-0.32002 -0.13742,-0.52107c-0.0738,-0.19977 -0.14888,-0.36965 -0.22522,-0.50962c0.2354,0.00636 0.46254,0.01082 0.6814,0.01336c0.22013,0.00382 0.41291,0.00573 0.57833,0.00573c0.16542,0 0.28312,0 0.35311,0c0.1018,-0.00636 0.17305,-0.02736 0.21377,-0.06299c0.04199,-0.03436 0.06299,-0.10243 0.06299,-0.20423v-7.44384M319.10875,190.69958l0.84936,-0.44854c0.15906,0.22268 0.33084,0.46572 0.51534,0.72911c0.18451,0.26467 0.35947,0.52234 0.52489,0.77301c0.16542,0.25195 0.29903,0.47017 0.40082,0.65468l-0.90662,0.52489c-0.09543,-0.19087 -0.22077,-0.41546 -0.37601,-0.67376c-0.15651,-0.25703 -0.32384,-0.52234 -0.50198,-0.79592c-0.17814,-0.27358 -0.34674,-0.52807 -0.5058,-0.76347zM325.97999,196.08205l-0.27676,-0.69667c0.40082,-0.13361 0.70621,-0.31493 0.91617,-0.54397c0.20995,-0.22904 0.31493,-0.49308 0.31493,-0.7921l-0.09543,-0.90662l0.52489,0.82073c-0.07635,0.07635 -0.16224,0.13043 -0.25767,0.16224c-0.09543,0.03181 -0.19405,0.04772 -0.29585,0.04772c-0.22268,0 -0.42118,-0.06998 -0.59551,-0.20995c-0.1756,-0.13997 -0.2634,-0.3372 -0.2634,-0.59169c0,-0.26085 0.0878,-0.46126 0.2634,-0.60123c0.17433,-0.13997 0.37919,-0.20995 0.61459,-0.20995c0.31811,0 0.55988,0.11261 0.7253,0.33784c0.16542,0.2265 0.24813,0.53061 0.24813,0.91235c0,0.53443 -0.16224,1.00206 -0.48671,1.40288c-0.32448,0.40082 -0.76983,0.6903 -1.33607,0.86845zM334.61676,191.52031h7.93056v0.99251h-7.93056v-0.99251M336.31548,189.66889h4.49494v0.9448h-4.49494v-0.9448M339.56023,193.09497l0.86845,-0.44854c0.2863,0.24813 0.56815,0.51662 0.84554,0.80546c0.27612,0.29012 0.5287,0.5796 0.75775,0.86845c0.22904,0.29012 0.41673,0.55606 0.56306,0.79783l-0.92571,0.55352c-0.12724,-0.24177 -0.30539,-0.51407 -0.53443,-0.81691c-0.22904,-0.30157 -0.48035,-0.60696 -0.75393,-0.91617c-0.27358,-0.30793 -0.54715,-0.58914 -0.82073,-0.84364M338.53909,186.73907l0.93525,0.42945c-0.54715,0.75711 -1.22283,1.44105 -2.02702,2.05183c-0.80546,0.61078 -1.68536,1.1293 -2.6397,1.55557c-0.04454,-0.08907 -0.10943,-0.19087 -0.19469,-0.30539c-0.08653,-0.11452 -0.17751,-0.22777 -0.27294,-0.33974c-0.09543,-0.1107 -0.18132,-0.19787 -0.25767,-0.26149c0.61078,-0.24177 1.19929,-0.5268 1.76553,-0.85509c0.56624,-0.32702 1.08031,-0.68649 1.54221,-1.0784c0.46063,-0.39064 0.84364,-0.78956 1.14902,-1.19674M338.74904,187.17807c0.20995,0.22268 0.47081,0.45808 0.78256,0.70621c0.31175,0.24813 0.6604,0.48989 1.04596,0.7253c0.38428,0.2354 0.78828,0.4549 1.21201,0.65849c0.42245,0.20359 0.84682,0.37537 1.27309,0.51534c-0.07635,0.06362 -0.16033,0.14951 -0.25195,0.25767c-0.09289,0.10816 -0.18069,0.21759 -0.2634,0.32829c-0.08271,0.11198 -0.15269,0.21568 -0.20995,0.31111c-0.41355,-0.17178 -0.82709,-0.3741 -1.24064,-0.60696c-0.41355,-0.23159 -0.80928,-0.4829 -1.1872,-0.75393c-0.37919,-0.26976 -0.72593,-0.54334 -1.04023,-0.82073c-0.31557,-0.27612 -0.58151,-0.53507 -0.79783,-0.77683l0.67758,-0.54397M335.28479,195.4999c-0.01909,-0.07635 -0.04772,-0.17814 -0.08589,-0.30539c-0.03817,-0.12724 -0.07953,-0.25958 -0.12406,-0.397c-0.04454,-0.13615 -0.08907,-0.24876 -0.13361,-0.33784c0.12088,-0.02545 0.23858,-0.07953 0.35311,-0.16224c0.11452,-0.08271 0.24813,-0.19087 0.40082,-0.32448c0.07635,-0.06362 0.1896,-0.1686 0.33974,-0.31493c0.14888,-0.14633 0.3143,-0.32129 0.49626,-0.52489c0.18069,-0.20359 0.36519,-0.425 0.55352,-0.66422c0.18705,-0.23795 0.36329,-0.48099 0.5287,-0.72911l0.95434,0.64895c-0.36265,0.47081 -0.76665,0.93016 -1.21201,1.37807c-0.44536,0.44918 -0.8939,0.84236 -1.34562,1.17956v0.02863c0,0 -0.03626,0.01718 -0.10879,0.05153c-0.0738,0.03563 -0.15842,0.08016 -0.25385,0.13361c-0.09543,0.05472 -0.17942,0.11198 -0.25195,0.17178c-0.0738,0.06108 -0.1107,0.11707 -0.1107,0.16796M335.28479,195.4999l-0.01909,-0.81119l0.67758,-0.37219l5.4779,-0.34356c0.01909,0.14633 0.04772,0.30857 0.08589,0.48671c0.03817,0.17814 0.07317,0.32129 0.10498,0.42945c-0.87163,0.06362 -1.62365,0.12088 -2.25606,0.17178c-0.63368,0.0509 -1.17002,0.09353 -1.60902,0.12788c-0.439,0.03563 -0.80164,0.06617 -1.08795,0.09162c-0.2863,0.02545 -0.51534,0.04899 -0.68712,0.07062c-0.17178,0.0229 -0.30857,0.04517 -0.41037,0.0668c-0.1018,0.0229 -0.19405,0.05026 -0.27676,0.08207zM346.67006,191.41533h5.78329v0.93525h-5.78329v-0.93525M350.37289,190.41328h1.0116v4.15137c0,0.25449 -0.03181,0.4549 -0.09543,0.60123c-0.06362,0.14633 -0.18769,0.25767 -0.37219,0.33402c-0.17814,0.07635 -0.404,0.12216 -0.67758,0.13742c-0.27358,0.01654 -0.59805,0.02481 -0.97343,0.02481c-0.01909,-0.13361 -0.05853,-0.29457 -0.11834,-0.4829c-0.06108,-0.18705 -0.12343,-0.34738 -0.18705,-0.48099c0.25449,0.00636 0.49944,0.01082 0.73484,0.01336c0.2354,0.00382 0.39446,0.00573 0.47717,0.00573c0.07635,0 0.12852,-0.01272 0.15651,-0.03817c0.02927,-0.02545 0.0439,-0.06998 0.0439,-0.13361v-4.13229M347.24266,192.85638l0.83027,-0.439c0.15269,0.15906 0.3073,0.3372 0.46381,0.53443c0.15524,0.19723 0.29966,0.39128 0.43327,0.58215c0.13361,0.19087 0.2354,0.36583 0.30539,0.52489l-0.88754,0.49626c-0.06362,-0.15906 -0.15715,-0.33911 -0.28058,-0.54016c-0.1247,-0.19977 -0.2634,-0.40146 -0.41609,-0.60505c-0.15269,-0.20359 -0.30221,-0.3881 -0.44854,-0.55352M345.33398,186.7677h0.99251v8.90398h-0.99251v-8.90398M343.62572,192.69415c0.24177,-0.17178 0.53443,-0.39446 0.87799,-0.66804c0.34356,-0.27358 0.69349,-0.5567 1.04977,-0.84936l0.37219,0.83027c-0.2863,0.26721 -0.58533,0.53888 -0.89708,0.81501c-0.31175,0.27739 -0.6076,0.53061 -0.88754,0.75965l-0.51534,-0.88754M343.62572,188.62866l0.70621,-0.55352c0.14633,0.14633 0.30093,0.30857 0.46381,0.48671c0.1616,0.17814 0.3143,0.35438 0.45808,0.5287c0.14251,0.1756 0.25195,0.33338 0.32829,0.47335l-0.74438,0.62986c-0.07635,-0.14633 -0.18132,-0.31048 -0.31493,-0.49244c-0.13361,-0.18069 -0.27994,-0.36519 -0.439,-0.55352c-0.15906,-0.18705 -0.31175,-0.3601 -0.45808,-0.51916M348.9891,187.52163h2.71032l-0.19087,0.81119h-3.0348l0.51534,-0.81119M349.14179,186.7677l1.04977,0.27676c-0.2354,0.30539 -0.51025,0.60251 -0.82455,0.89135c-0.31557,0.29012 -0.6515,0.55606 -1.00778,0.79783c-0.35629,0.24177 -0.71575,0.45172 -1.0784,0.62986c-0.0509,-0.06362 -0.1177,-0.1387 -0.20041,-0.22522c-0.08271,-0.08525 -0.16733,-0.16796 -0.25385,-0.24813c-0.08525,-0.07889 -0.15969,-0.14697 -0.22332,-0.20423c0.34992,-0.13997 0.68712,-0.31366 1.0116,-0.52107c0.32448,-0.20614 0.61714,-0.43009 0.87799,-0.67185c0.26085,-0.24177 0.47717,-0.48353 0.64895,-0.7253M348.0443,189.15355l0.75393,-0.439c0.17178,0.13997 0.34547,0.29903 0.52107,0.47717c0.17433,0.17814 0.30602,0.34356 0.3951,0.49626l-0.7921,0.46763c-0.08271,-0.14633 -0.20677,-0.31493 -0.37219,-0.5058c-0.16542,-0.19087 -0.33402,-0.35629 -0.5058,-0.49626M351.34632,187.52163h0.19087l0.18132,-0.03817l0.67758,0.34356c-0.2354,0.50262 -0.53443,0.94607 -0.89708,1.33035c-0.36265,0.38555 -0.77111,0.72148 -1.22537,1.00778c-0.45554,0.2863 -0.94607,0.52807 -1.47159,0.7253c-0.52425,0.19723 -1.06313,0.35947 -1.61665,0.48671c-0.0509,-0.12088 -0.12406,-0.26085 -0.2195,-0.41991c-0.09543,-0.15906 -0.19087,-0.2863 -0.2863,-0.38174c0.50262,-0.09543 0.99442,-0.22586 1.47541,-0.39128c0.47971,-0.16542 0.92762,-0.36901 1.34371,-0.61078c0.41736,-0.24177 0.7851,-0.52043 1.10322,-0.836c0.31811,-0.3143 0.56624,-0.66867 0.74438,-1.06313zM353.8276,187.37848h7.59654v1.0116h-7.59654v-1.0116M353.3218,191.42487h8.65585v1.03069h-8.65585v-1.03069M354.42883,189.01994l0.92571,-0.2863c0.12088,0.21632 0.23413,0.44536 0.33974,0.68712c0.10434,0.24177 0.19977,0.47844 0.2863,0.71003c0.08525,0.23286 0.14697,0.43836 0.18514,0.6165l-0.99251,0.32448c-0.03181,-0.18451 -0.08589,-0.39319 -0.16224,-0.62605c-0.07635,-0.23159 -0.16542,-0.47335 -0.26721,-0.7253c-0.1018,-0.25067 -0.20677,-0.48417 -0.31493,-0.70048M359.88765,188.70501l1.09749,0.2863c-0.10816,0.24813 -0.22777,0.49753 -0.35883,0.7482c-0.12979,0.25195 -0.25513,0.49244 -0.37601,0.72148c-0.12088,0.22904 -0.23858,0.43263 -0.35311,0.61078l-0.89708,-0.27676c0.10816,-0.19087 0.2195,-0.40718 0.33402,-0.64895c0.11452,-0.24177 0.2195,-0.48862 0.31493,-0.74057c0.09543,-0.25067 0.17496,-0.48417 0.23858,-0.70048M357.09144,187.79839h1.06886v7.8733h-1.06886zM363.56185,187.53117h2.71987v6.37498h-2.71987v-0.91617h1.76553v-4.54265h-1.76553v-0.91617M363.61911,190.23195h1.99457v0.89708h-1.99457v-0.89708M363.07514,187.53117h0.96388v7.148h-0.96388v-7.148M366.66345,188.5714h4.98165v1.02114h-4.98165v-1.02114M369.58373,186.82496h1.04023v7.45339c0,0.31811 -0.04135,0.55797 -0.12406,0.71957c-0.08271,0.16287 -0.22586,0.28567 -0.42945,0.36837c-0.19723,0.08271 -0.46317,0.13488 -0.79783,0.15651c-0.33338,0.0229 -0.73866,0.03118 -1.21583,0.02481c-0.01909,-0.14633 -0.06553,-0.32002 -0.13933,-0.52107c-0.07253,-0.19977 -0.14697,-0.36965 -0.22332,-0.50962c0.2354,0.00636 0.46254,0.01082 0.6814,0.01336c0.22013,0.00382 0.41291,0.00573 0.57833,0.00573c0.16542,0 0.28312,0 0.35311,0c0.1018,-0.00636 0.17305,-0.02736 0.21377,-0.06299c0.04199,-0.03436 0.06299,-0.10243 0.06299,-0.20423v-7.44384M366.82569,190.69958l0.84936,-0.44854c0.15906,0.22268 0.33084,0.46572 0.51534,0.72911c0.18451,0.26467 0.35947,0.52234 0.52489,0.77301c0.16542,0.25195 0.29903,0.47017 0.40082,0.65468l-0.90662,0.52489c-0.09543,-0.19087 -0.22141,-0.41546 -0.37792,-0.67376c-0.15524,-0.25703 -0.32193,-0.52234 -0.50007,-0.79592c-0.17814,-0.27358 -0.34674,-0.52807 -0.5058,-0.76347zM374.50812,189.49711v0.73484h4.3995v-0.73484h-4.3995M374.50812,188.00834v0.73484h4.3995v-0.73484h-4.3995M373.50606,187.21624h6.45133v3.81736h-6.45133v-3.81736M372.26542,194.2688h8.91352v0.97343h-8.91352v-0.97343M375.12844,191.35807h0.97343v3.44516h-0.97343v-3.44516M377.29479,191.35807h0.97343v3.44516h-0.97343v-3.44516M379.66155,191.56803l0.86845,0.39128c-0.18451,0.33084 -0.39001,0.66486 -0.6165,1.00206c-0.22522,0.3372 -0.43645,0.62668 -0.63368,0.86845l-0.78256,-0.36265c0.13361,-0.17178 0.27167,-0.36583 0.41418,-0.58215c0.14379,-0.21632 0.28376,-0.439 0.41991,-0.66804c0.13742,-0.22904 0.24749,-0.44536 0.3302,-0.64895M372.99072,191.97839l0.7921,-0.34356c0.11452,0.19723 0.2354,0.40846 0.36265,0.63368c0.12724,0.2265 0.24622,0.44472 0.35692,0.65468c0.11198,0.20995 0.19977,0.39446 0.2634,0.55352l-0.83027,0.40082c-0.06362,-0.16542 -0.1476,-0.35819 -0.25195,-0.57833c-0.10561,-0.21886 -0.21695,-0.44472 -0.33402,-0.67758c-0.11834,-0.23159 -0.23795,-0.44599 -0.35883,-0.64322zM385.73114,190.27967h1.12612v4.17046c0,0.29266 -0.04008,0.5198 -0.12025,0.6814c-0.07889,0.16287 -0.22332,0.28567 -0.43327,0.36837c-0.20995,0.07635 -0.46763,0.12534 -0.77301,0.14697c-0.30539,0.0229 -0.66804,0.03436 -1.08795,0.03436c-0.02545,-0.15906 -0.07317,-0.34229 -0.14315,-0.5497c-0.06998,-0.20614 -0.14315,-0.38555 -0.2195,-0.53825c0.19087,0.00636 0.38364,0.01272 0.57833,0.01909c0.19341,0.00636 0.36647,0.00763 0.51916,0.00382c0.15269,-0.00255 0.25767,-0.00382 0.31493,-0.00382c0.08907,0 0.15079,-0.01272 0.18514,-0.03817c0.03563,-0.02545 0.05344,-0.07317 0.05344,-0.14315v-4.15137M383.4789,191.50122l1.06886,0.27676c-0.13997,0.38174 -0.31175,0.75838 -0.51534,1.12994c-0.20359,0.37283 -0.41991,0.72148 -0.64895,1.04596c-0.22904,0.32448 -0.46126,0.6076 -0.69667,0.84936c-0.06998,-0.06362 -0.16415,-0.13361 -0.28248,-0.20995c-0.11707,-0.07635 -0.23477,-0.15269 -0.35311,-0.22904c-0.11707,-0.07635 -0.22013,-0.13361 -0.30921,-0.17178c0.35629,-0.32448 0.6884,-0.72848 0.99633,-1.21201c0.30921,-0.48353 0.55606,-0.97661 0.74057,-1.47923M387.93567,191.87341l0.95434,-0.40082c0.22268,0.29903 0.44027,0.62032 0.65277,0.96388c0.21377,0.34356 0.40782,0.68203 0.58215,1.01542c0.1756,0.33466 0.30793,0.63877 0.397,0.91235l-1.05932,0.45808c-0.06998,-0.26085 -0.18641,-0.56179 -0.34929,-0.9028c-0.1616,-0.33974 -0.34611,-0.68967 -0.55352,-1.04977c-0.20614,-0.35883 -0.41418,-0.69094 -0.62414,-0.99633M382.88721,187.40711h6.75672v1.02114h-6.75672v-1.02114M382.02831,189.71661h8.49362v1.02114h-8.49362zM392.37334,188.31373h2.92028v6.37498h-2.92028v-0.90662h1.98502v-4.57128h-1.98502v-0.89708M391.77211,188.31373h0.93525v7.10028h-0.93525v-7.10028M392.32563,190.89044h2.50037v0.88754h-2.50037v-0.88754M393.1559,186.75816l1.11658,0.17178c-0.1018,0.31175 -0.20995,0.62477 -0.32448,0.93907c-0.11452,0.31557 -0.2195,0.58469 -0.31493,0.80737l-0.82073,-0.19087c0.04454,-0.15906 0.09034,-0.34038 0.13742,-0.54397c0.04835,-0.20359 0.09162,-0.40909 0.12979,-0.6165c0.03817,-0.20614 0.06362,-0.3951 0.07635,-0.56688M396.58198,188.25647h2.83439v0.93525h-2.83439v-0.93525M399.05371,188.25647h0.95434c0,0 0,0.0299 0,0.08971c0,0.06108 0,0.12788 0,0.20041c0,0.0738 -0.00318,0.13297 -0.00954,0.17751c-0.03181,1.08158 -0.06553,1.99775 -0.10116,2.7485c-0.03436,0.75075 -0.07571,1.36789 -0.12406,1.85142c-0.04708,0.48353 -0.10243,0.86018 -0.16605,1.12994c-0.06362,0.27103 -0.14633,0.47017 -0.24813,0.59742c-0.12724,0.17178 -0.25767,0.28948 -0.39128,0.35311c-0.13361,0.06362 -0.29585,0.11134 -0.48671,0.14315c-0.17178,0.01909 -0.39128,0.02863 -0.65849,0.02863c-0.26721,0 -0.54079,-0.00636 -0.82073,-0.01909c-0.00636,-0.13997 -0.04008,-0.30539 -0.10116,-0.49626c-0.05981,-0.19087 -0.14061,-0.35629 -0.2424,-0.49626c0.31175,0.02545 0.59805,0.04135 0.8589,0.04772c0.26085,0.00636 0.45172,0.00954 0.5726,0.00954c0.09543,0 0.17305,-0.01145 0.23286,-0.03436c0.06108,-0.02163 0.12343,-0.06426 0.18705,-0.12788c0.07635,-0.08907 0.14315,-0.26276 0.20041,-0.52107c0.05726,-0.25703 0.10498,-0.62096 0.14315,-1.09176c0.03817,-0.47081 0.07444,-1.06886 0.10879,-1.79416c0.03563,-0.7253 0.06617,-1.59056 0.09162,-2.5958v-0.20041M396.65832,186.75816l0.98297,0.22904c-0.12088,0.47081 -0.26531,0.93652 -0.43327,1.39715c-0.16924,0.4619 -0.35565,0.89644 -0.55924,1.30363c-0.20359,0.40718 -0.41355,0.76347 -0.62986,1.06886c-0.06362,-0.05726 -0.14633,-0.12406 -0.24813,-0.20041c-0.1018,-0.07635 -0.20677,-0.15142 -0.31493,-0.22522c-0.10816,-0.07253 -0.20041,-0.12788 -0.27676,-0.16605c0.20995,-0.27358 0.40909,-0.5936 0.59742,-0.96006c0.18705,-0.36519 0.35501,-0.75775 0.50389,-1.17765c0.15015,-0.41991 0.27612,-0.843 0.37792,-1.26927M396.20024,190.92862l0.80164,-0.44854c0.15906,0.21632 0.33084,0.45617 0.51534,0.71957c0.18451,0.26467 0.35756,0.51916 0.51916,0.76347c0.16287,0.24558 0.29203,0.46381 0.38746,0.65468l-0.86845,0.53443c-0.08907,-0.19723 -0.20995,-0.42309 -0.36265,-0.67758c-0.15269,-0.25449 -0.31684,-0.51725 -0.49244,-0.78828c-0.17433,-0.26976 -0.34102,-0.52234 -0.50007,-0.75775zM405.03742,187.39756h4.19909v0.95434h-4.19909v-0.95434M404.60797,189.67843h5.14389v0.95434h-5.14389v-0.95434M406.52619,190.1556h1.04023v4.29452c0,0.26085 -0.02736,0.4689 -0.08207,0.62414c-0.05344,0.15651 -0.16605,0.2793 -0.33784,0.36837c-0.16542,0.08271 -0.36774,0.13488 -0.60696,0.15651c-0.23795,0.0229 -0.51916,0.03436 -0.84364,0.03436c-0.01272,-0.15269 -0.04772,-0.32956 -0.10498,-0.53061c-0.05726,-0.19977 -0.12088,-0.37601 -0.19087,-0.5287c0.20995,0.00636 0.40591,0.01082 0.58787,0.01336c0.18069,0.00382 0.30284,0.00573 0.36647,0.00573c0.06362,-0.00636 0.10816,-0.01909 0.13361,-0.03817c0.02545,-0.01909 0.03817,-0.06044 0.03817,-0.12406v-4.27544M407.97678,191.81615l0.84936,-0.2863c0.14633,0.31811 0.28757,0.65659 0.42373,1.01542c0.13742,0.3601 0.25894,0.71003 0.36456,1.04977c0.10434,0.34102 0.1756,0.64195 0.21377,0.9028l-0.92571,0.34356c-0.03817,-0.26721 -0.10307,-0.5726 -0.19469,-0.91617c-0.09289,-0.34356 -0.20296,-0.69985 -0.3302,-1.06886c-0.12724,-0.36901 -0.26085,-0.71575 -0.40082,-1.04023M405.08513,191.56803l0.92571,0.20995c-0.09543,0.36901 -0.20995,0.73802 -0.34356,1.10703c-0.13361,0.36901 -0.27867,0.71703 -0.43518,1.04405c-0.15524,0.32829 -0.31557,0.6165 -0.48099,0.86463c-0.05726,-0.0509 -0.13552,-0.11007 -0.23477,-0.17751c-0.09798,-0.06617 -0.19787,-0.13106 -0.29966,-0.19469c-0.1018,-0.06362 -0.19087,-0.11452 -0.26721,-0.15269c0.24813,-0.3372 0.47081,-0.74757 0.66804,-1.2311c0.19723,-0.48353 0.35311,-0.97343 0.46763,-1.46968M400.9433,188.68592h3.5406v0.95434h-3.5406v-0.95434M402.30801,186.7677h1.02114v8.90398h-1.02114v-8.90398M402.18394,189.32533l0.62986,0.20041c-0.06998,0.36265 -0.15588,0.73929 -0.25767,1.12994c-0.1018,0.39192 -0.2195,0.77683 -0.35311,1.15475c-0.13361,0.37919 -0.27867,0.7323 -0.43518,1.05932c-0.15524,0.32829 -0.31557,0.61014 -0.48099,0.84554c-0.03181,-0.09543 -0.07826,-0.20359 -0.13933,-0.32448c-0.05981,-0.12088 -0.1247,-0.24177 -0.19469,-0.36265c-0.06998,-0.12088 -0.13679,-0.22268 -0.20041,-0.30539c0.20995,-0.26085 0.40846,-0.58215 0.59551,-0.96388c0.18832,-0.38174 0.35374,-0.78765 0.49626,-1.21774c0.14379,-0.42882 0.25703,-0.83409 0.33974,-1.21583M403.28143,189.8025c0.05726,0.06362 0.14824,0.1686 0.27294,0.31493c0.12343,0.14633 0.2564,0.30857 0.39891,0.48671c0.14379,0.17814 0.27421,0.34038 0.39128,0.48671c0.11834,0.14633 0.20296,0.25131 0.25385,0.31493l-0.56306,0.81119c-0.05726,-0.12724 -0.13997,-0.27994 -0.24813,-0.45808c-0.10816,-0.17814 -0.22268,-0.36456 -0.34356,-0.55924c-0.12088,-0.19341 -0.23731,-0.37283 -0.34929,-0.53825c-0.1107,-0.16542 -0.20423,-0.29903 -0.28058,-0.40082zM412.89163,190.90953h3.91279v0.83982h-3.91279v-0.83982M411.73688,187.55026h2.96799v0.82073h-2.96799v-0.82073M415.5256,187.55026h3.56923v0.82073h-3.56923v-0.82073M411.82277,186.7009l0.95434,0.24813c-0.12088,0.34356 -0.26403,0.68394 -0.42945,1.02114c-0.16542,0.3372 -0.34229,0.65531 -0.53061,0.95434c-0.18705,0.29903 -0.37919,0.56306 -0.57642,0.7921c-0.05726,-0.05726 -0.13806,-0.12088 -0.2424,-0.19087c-0.10561,-0.06998 -0.2125,-0.13679 -0.32066,-0.20041c-0.10816,-0.06362 -0.20041,-0.11452 -0.27676,-0.15269c0.29903,-0.29903 0.57388,-0.66995 0.82455,-1.11276c0.25195,-0.44154 0.45108,-0.89453 0.59742,-1.35898M415.64967,186.7009l0.96388,0.22904c-0.14633,0.40082 -0.3372,0.78701 -0.5726,1.15857c-0.2354,0.37283 -0.47717,0.68649 -0.7253,0.94098c-0.06362,-0.05726 -0.14633,-0.11961 -0.24813,-0.18705c-0.1018,-0.06617 -0.2055,-0.13297 -0.31111,-0.20041c-0.10434,-0.06617 -0.19469,-0.12152 -0.27103,-0.16605c0.24813,-0.21632 0.47526,-0.48353 0.6814,-0.80164c0.20741,-0.31811 0.36837,-0.64259 0.4829,-0.97343M412.25222,188.2183l0.86845,-0.22904c0.13361,0.19087 0.26213,0.40718 0.38555,0.64895c0.1247,0.24177 0.2125,0.45172 0.2634,0.62986l-0.91617,0.26721c-0.04454,-0.17814 -0.12597,-0.39001 -0.24431,-0.63559c-0.11707,-0.24431 -0.23604,-0.47144 -0.35692,-0.6814M416.36542,188.19921l0.91617,-0.19087c0.16542,0.19087 0.33084,0.41037 0.49626,0.65849c0.16542,0.24813 0.28948,0.46763 0.37219,0.65849l-0.98297,0.20995c-0.06998,-0.17814 -0.18005,-0.39319 -0.3302,-0.64513c-0.14888,-0.25067 -0.30602,-0.48099 -0.47144,-0.69094M415.36336,189.19172c0.20995,0.20359 0.46445,0.39764 0.76347,0.58215c0.29903,0.18451 0.62795,0.35756 0.98679,0.51916c0.3601,0.16287 0.7323,0.30602 1.11658,0.42945c0.38555,0.1247 0.76602,0.2284 1.14139,0.31111c-0.10816,0.09543 -0.22141,0.22586 -0.33974,0.39128c-0.11707,0.16542 -0.21059,0.31175 -0.28058,0.439c-0.3881,-0.1018 -0.77301,-0.23222 -1.15475,-0.39128c-0.38174,-0.15906 -0.75584,-0.34229 -1.1223,-0.5497c-0.36519,-0.20614 -0.70557,-0.42691 -1.02114,-0.66231c-0.3143,-0.2354 -0.58914,-0.48035 -0.82455,-0.73484l0.73484,-0.33402M414.80985,188.67638l0.82073,0.41037c-0.36901,0.43263 -0.80483,0.82709 -1.30744,1.18338c-0.50262,0.35629 -1.03832,0.6744 -1.60711,0.95434c-0.57006,0.27994 -1.14457,0.51534 -1.72354,0.70621c-0.06362,-0.12088 -0.15142,-0.25767 -0.2634,-0.41037c-0.1107,-0.15269 -0.22332,-0.27994 -0.33784,-0.38174c0.55352,-0.15906 1.11021,-0.35947 1.67009,-0.60123c0.55988,-0.24177 1.08031,-0.52043 1.5613,-0.836c0.47971,-0.3143 0.87545,-0.65595 1.1872,-1.02496M410.73482,194.53602h8.32183v0.90662h-8.32183v-0.90662M417.19569,192.00702l0.92571,0.25767c-0.13361,0.34356 -0.28821,0.69794 -0.46381,1.06313c-0.17433,0.36647 -0.35247,0.71639 -0.53443,1.04977c-0.18069,0.33466 -0.35374,0.63241 -0.51916,0.89326c-0.06998,-0.0509 -0.15588,-0.10816 -0.25767,-0.17178c-0.1018,-0.06362 -0.2055,-0.12597 -0.31111,-0.18705c-0.10434,-0.05981 -0.19787,-0.10879 -0.28058,-0.14697c0.17814,-0.22904 0.35438,-0.49816 0.5287,-0.80737c0.1756,-0.30793 0.34293,-0.6305 0.50198,-0.9677c0.15906,-0.3372 0.29585,-0.66486 0.41037,-0.98297M414.08455,192.25515l0.81119,-0.29585c0.11452,0.18451 0.22586,0.38619 0.33402,0.60505c0.10816,0.22013 0.20868,0.43327 0.30157,0.63941c0.09162,0.20741 0.15969,0.39382 0.20423,0.55924l-0.8589,0.35311c-0.04454,-0.16542 -0.10816,-0.35501 -0.19087,-0.56879c-0.08271,-0.2125 -0.17687,-0.432 -0.28248,-0.65849c-0.10434,-0.22522 -0.21059,-0.43645 -0.31875,-0.63368M411.70825,192.48419l0.82073,-0.36265c0.13361,0.17178 0.26403,0.35947 0.39128,0.56306c0.12724,0.20359 0.24622,0.40209 0.35692,0.59551c0.11198,0.19469 0.19659,0.36837 0.25385,0.52107l-0.86845,0.41991c-0.05726,-0.15269 -0.13679,-0.32956 -0.23858,-0.53061c-0.1018,-0.19977 -0.21504,-0.40464 -0.33974,-0.61459c-0.12343,-0.20995 -0.24876,-0.40718 -0.37601,-0.59169z" fill="#ffffff" fill-rule="nonzero" stroke-width="1"/><path d="M249.1748,198.30757h8.31229v0.9448h-8.31229v-0.9448M252.65814,198.77519l1.17384,0.15269c-0.12088,0.30539 -0.25258,0.60441 -0.3951,0.89708c-0.14379,0.29266 -0.27612,0.54397 -0.397,0.75393l-0.88754,-0.18132c0.06362,-0.15269 0.12915,-0.32448 0.19659,-0.51534c0.06617,-0.19087 0.12661,-0.38364 0.18132,-0.57833c0.05344,-0.19341 0.09607,-0.36965 0.12788,-0.5287M252.7822,201.59049h1.06886v1.7369c0,0.26721 -0.03499,0.53252 -0.10498,0.79592c-0.06998,0.26467 -0.19405,0.52107 -0.37219,0.7692c-0.17814,0.24813 -0.42754,0.4848 -0.7482,0.71003c-0.32193,0.2265 -0.7342,0.43518 -1.23682,0.62605c-0.50262,0.19087 -1.1134,0.36583 -1.83233,0.52489c-0.03817,-0.07635 -0.09225,-0.16542 -0.16224,-0.26721c-0.06998,-0.1018 -0.14633,-0.2055 -0.22904,-0.31111c-0.08271,-0.10434 -0.16224,-0.18832 -0.23858,-0.25195c0.6744,-0.12724 1.23937,-0.26912 1.69491,-0.42564c0.45427,-0.15524 0.82582,-0.32066 1.11467,-0.49626c0.29012,-0.17433 0.51025,-0.35565 0.6604,-0.54397c0.14888,-0.18705 0.25067,-0.37792 0.30539,-0.5726c0.05344,-0.19341 0.08016,-0.38555 0.08016,-0.57642v-1.71781M253.65065,204.96885l0.58215,-0.69667c0.26721,0.10816 0.55352,0.23222 0.8589,0.37219c0.30539,0.13997 0.61269,0.2863 0.92189,0.439c0.30793,0.15269 0.59551,0.30348 0.86272,0.45236c0.26721,0.15015 0.49626,0.28885 0.68712,0.41609l-0.63941,0.81119c-0.17178,-0.13361 -0.38619,-0.27867 -0.64322,-0.43518c-0.25831,-0.15524 -0.53825,-0.3143 -0.83982,-0.47717c-0.30284,-0.1616 -0.60696,-0.31875 -0.91235,-0.47144c-0.30539,-0.15269 -0.59805,-0.28948 -0.87799,-0.41037M249.99554,200.19716h6.71855v4.41859h-1.09749v-3.47379h-4.57128v3.50242h-1.04977zM260.50281,201.73364l0.70621,-0.66804c0.2354,0.26085 0.47081,0.54206 0.70621,0.84364c0.2354,0.30284 0.45172,0.60187 0.64895,0.89708c0.19723,0.29648 0.35311,0.56242 0.46763,0.79783l-0.76347,0.74438c-0.11452,-0.24177 -0.26721,-0.51534 -0.45808,-0.82073c-0.19087,-0.30539 -0.40082,-0.61587 -0.62986,-0.93143c-0.22904,-0.3143 -0.4549,-0.60187 -0.67758,-0.86272M264.85459,200.89382c0.07635,0.40082 0.18132,0.82519 0.31493,1.27309c0.13361,0.44918 0.29903,0.89135 0.49626,1.32653c0.19723,0.43645 0.43263,0.83918 0.70621,1.20819c0.27358,0.36901 0.58851,0.68076 0.9448,0.93525c-0.06998,0.06362 -0.15588,0.15269 -0.25767,0.26721c-0.1018,0.11452 -0.19723,0.23222 -0.2863,0.35311c-0.08907,0.12088 -0.16224,0.22904 -0.2195,0.32448c-0.36901,-0.30539 -0.69349,-0.66804 -0.97343,-1.08795c-0.27994,-0.41991 -0.52171,-0.86845 -0.7253,-1.34562c-0.20359,-0.47717 -0.37219,-0.95434 -0.5058,-1.43151c-0.13361,-0.47717 -0.24495,-0.92889 -0.33402,-1.35516l0.83982,-0.46763M260.35965,197.99263l1.13566,0.03817c-0.0509,1.25973 -0.14633,2.42847 -0.2863,3.50624c-0.13997,1.07904 -0.35629,2.05246 -0.64895,2.92028c-0.29266,0.86908 -0.69985,1.61538 -1.22155,2.23888c-0.05726,-0.06362 -0.1476,-0.13997 -0.27103,-0.22904c-0.1247,-0.08907 -0.25513,-0.18005 -0.39128,-0.27294c-0.13742,-0.09162 -0.25067,-0.16287 -0.33974,-0.21377c0.50898,-0.53443 0.90344,-1.20247 1.18338,-2.00411c0.27994,-0.80164 0.48035,-1.70827 0.60123,-2.71987c0.12088,-1.0116 0.20041,-2.09955 0.23858,-3.26384M264.05295,197.98309l1.13566,0.04772c-0.0509,0.97343 -0.13043,1.88768 -0.23858,2.74277c-0.10816,0.85636 -0.25767,1.64719 -0.44854,2.37249c-0.19087,0.7253 -0.439,1.38379 -0.74438,1.97548c-0.30539,0.59169 -0.68712,1.1134 -1.14521,1.56512c-0.05726,-0.06362 -0.1476,-0.13997 -0.27103,-0.22904c-0.1247,-0.08907 -0.25576,-0.18132 -0.39319,-0.27676c-0.13615,-0.09543 -0.25195,-0.1686 -0.34738,-0.2195c0.61078,-0.51534 1.08349,-1.1662 1.41815,-1.95258c0.33338,-0.7851 0.57642,-1.68536 0.72911,-2.70078c0.15269,-1.01414 0.25449,-2.12245 0.30539,-3.32492zM273.54862,197.8304h0.96388v6.709h-0.96388v-6.709M270.66651,201.69547l5.00074,-2.11863l0.38174,0.87799l-5.00074,2.14726l-0.38174,-0.90662M271.63994,198.74656h0.97343v6.24138c0,0.17814 0.01591,0.31302 0.04772,0.40464c0.03181,0.09289 0.09861,0.15524 0.20041,0.18705c0.1018,0.03181 0.25131,0.04772 0.44854,0.04772c0.05726,0 0.15079,0 0.28058,0c0.13106,0 0.2793,0 0.44472,0c0.16542,0 0.33275,0 0.50198,0c0.16796,0 0.32002,0 0.45617,0c0.13742,0 0.23795,0 0.30157,0c0.17814,0 0.31175,-0.03372 0.40082,-0.10116c0.08907,-0.06617 0.15588,-0.18832 0.20041,-0.36647c0.04454,-0.17814 0.07635,-0.43582 0.09543,-0.77301c0.11452,0.08271 0.25894,0.15906 0.43327,0.22904c0.1756,0.06998 0.33338,0.1177 0.47335,0.14315c-0.04454,0.45172 -0.1177,0.8061 -0.2195,1.06313c-0.1018,0.25831 -0.25449,0.44281 -0.45808,0.55352c-0.20359,0.11198 -0.48671,0.16796 -0.84936,0.16796c-0.06362,0 -0.16669,0 -0.30921,0c-0.14379,0 -0.30793,0 -0.49244,0c-0.18451,0 -0.36774,0 -0.5497,0c-0.18069,0 -0.34229,0 -0.4848,0c-0.14379,0 -0.24431,0 -0.30157,0c-0.40718,0 -0.72848,-0.04454 -0.96388,-0.13361c-0.2354,-0.08907 -0.39955,-0.24686 -0.49244,-0.47335c-0.09162,-0.22522 -0.13742,-0.54461 -0.13742,-0.95816v-6.23183M275.47638,199.69136h-0.07635l0.19087,-0.14315l0.19087,-0.12406l0.70621,0.25767l-0.03817,0.17178c0,0.45172 -0.00127,0.86654 -0.00382,1.24446c-0.00382,0.37919 -0.007,0.71512 -0.00954,1.00778c-0.00382,0.29266 -0.01018,0.53761 -0.01909,0.73484c-0.01018,0.19723 -0.02163,0.34356 -0.03436,0.439c-0.01909,0.21632 -0.06998,0.38301 -0.15269,0.50007c-0.08271,0.11834 -0.20041,0.20296 -0.35311,0.25385c-0.13361,0.05726 -0.29139,0.09034 -0.47335,0.09925c-0.18069,0.01018 -0.3442,0.01527 -0.49053,0.01527c-0.01272,-0.12724 -0.04008,-0.27549 -0.08207,-0.44472c-0.04072,-0.16796 -0.08653,-0.30602 -0.13742,-0.41418c0.08907,0.00636 0.18451,0.00954 0.2863,0.00954c0.1018,0 0.17496,0 0.2195,0c0.06362,0 0.11452,-0.01463 0.15269,-0.0439c0.03817,-0.02799 0.06362,-0.08653 0.07635,-0.1756c0.01272,-0.0509 0.02227,-0.16097 0.02863,-0.3302c0.00636,-0.16796 0.01082,-0.39192 0.01336,-0.67185c0.00382,-0.27994 0.00573,-0.61905 0.00573,-1.01733c0,-0.397 0,-0.85318 0,-1.36852M267.94665,200.07309h3.12069v0.96388h-3.12069v-0.96388M269.09185,197.95446h0.96388v6.28909h-0.96388v-6.28909M267.83213,204.3199c0.26085,-0.09543 0.56433,-0.21186 0.91044,-0.34929c0.34738,-0.13615 0.71321,-0.28567 1.09749,-0.44854c0.38555,-0.1616 0.77238,-0.32193 1.16048,-0.48099l0.22904,0.90662c-0.50898,0.24813 -1.02623,0.49435 -1.55175,0.73866c-0.52425,0.24558 -1.00269,0.46699 -1.43533,0.66422zM278.38711,198.1167h7.04302v0.74438h-7.04302v-0.74438M278.80702,201.96268h7.09074v0.70621h-7.09074v-0.70621M279.67547,202.97428h5.6974v0.62032h-5.6974v-0.62032M278.78794,203.91908h7.47247v0.68712h-7.47247v-0.68712M279.02652,200.2067h2.01365v0.53443h-2.01365v-0.53443M278.81657,201.08469h2.23315v0.52489h-2.23315v-0.52489M282.74844,201.08469h2.26178v0.52489h-2.26178v-0.52489M282.74844,200.2067h2.03274v0.53443h-2.03274v-0.53443M281.38374,198.43163h1.0116v3.34019h-1.0116v-3.34019M277.77634,199.24282h8.28366v1.67009h-0.99251v-1.05932h-6.34635v1.05932h-0.9448v-1.67009M278.34894,201.96268h0.95434v1.31699c0,0.26721 -0.01591,0.55479 -0.04772,0.86272c-0.03181,0.30921 -0.09098,0.62287 -0.17751,0.94098c-0.08525,0.31811 -0.20614,0.62477 -0.36265,0.91998c-0.15524,0.29648 -0.35692,0.56561 -0.60505,0.80737c-0.0509,-0.06362 -0.12088,-0.1387 -0.20995,-0.22522c-0.08907,-0.08525 -0.18323,-0.16796 -0.28248,-0.24813c-0.09798,-0.07889 -0.18514,-0.13742 -0.26149,-0.1756c0.29903,-0.2863 0.51852,-0.59805 0.65849,-0.93525c0.13997,-0.3372 0.23031,-0.67631 0.27103,-1.01733c0.04199,-0.33974 0.06299,-0.65595 0.06299,-0.94861v-1.2979M282.7389,204.28173c0.19087,0.31175 0.46126,0.57069 0.81119,0.77683c0.34992,0.20741 0.76792,0.36965 1.254,0.48671c0.48735,0.11834 1.03005,0.19659 1.6281,0.23477c-0.08907,0.08907 -0.18132,0.20995 -0.27676,0.36265c-0.09543,0.15269 -0.17178,0.29266 -0.22904,0.41991c-0.65531,-0.06998 -1.23873,-0.19087 -1.75026,-0.36265c-0.5128,-0.17178 -0.9537,-0.40273 -1.32271,-0.69285c-0.36901,-0.28885 -0.6744,-0.64322 -0.91617,-1.06313l0.80164,-0.16224M284.96251,204.52986l0.75393,0.38174c-0.22904,0.15269 -0.47081,0.29394 -0.7253,0.42373c-0.25449,0.13106 -0.48671,0.24431 -0.69667,0.33974l-0.62032,-0.34356c0.13997,-0.07635 0.28821,-0.16097 0.44472,-0.25385c0.15524,-0.09162 0.30793,-0.18705 0.45808,-0.2863c0.14888,-0.09798 0.27739,-0.18514 0.38555,-0.26149M279.75182,206.74392l-0.04772,-0.66804l0.40082,-0.27676l2.63398,-0.37219c-0.02545,0.11452 -0.04772,0.24622 -0.0668,0.3951c-0.01909,0.15015 -0.02863,0.27294 -0.02863,0.36837c-0.58533,0.09543 -1.05804,0.17305 -1.41815,0.23286c-0.35883,0.06108 -0.63686,0.1107 -0.83409,0.14888c-0.19723,0.03817 -0.34038,0.06998 -0.42945,0.09543c-0.08907,0.02545 -0.15906,0.0509 -0.20995,0.07635M279.75182,206.74392c-0.02545,-0.07635 -0.06362,-0.16415 -0.11452,-0.2634c-0.0509,-0.09798 -0.10625,-0.19659 -0.16605,-0.29585c-0.06108,-0.09798 -0.11707,-0.17878 -0.16796,-0.2424c0.10816,-0.05726 0.22395,-0.1546 0.34738,-0.29203c0.1247,-0.13615 0.18705,-0.31239 0.18705,-0.5287v-0.91617l0.99251,0.01909v1.55557c0,0 -0.0369,0.02227 -0.1107,0.0668c-0.07253,0.04454 -0.1616,0.10498 -0.26721,0.18132c-0.10434,0.07635 -0.21059,0.15588 -0.31875,0.23858c-0.10816,0.08271 -0.19914,0.16669 -0.27294,0.25195c-0.07253,0.08653 -0.10879,0.1616 -0.10879,0.22522zM290.34498,200.76022h4.76215v0.81119h-4.76215v-0.81119M290.34498,202.14401h4.76215v0.81119h-4.76215v-0.81119M290.83169,205.58917h3.78873v0.82073h-3.78873v-0.82073M289.6674,199.3478h6.15549v0.83027h-6.15549v-0.83027M290.21137,203.56597h5.01028v3.13023h-0.90662v-2.3095h-3.23521v2.33813h-0.86845v-3.15886M291.84329,198.14533l0.86845,-0.33402c0.13361,0.19723 0.26531,0.41355 0.3951,0.64895c0.13106,0.2354 0.23159,0.44218 0.30157,0.62032l-0.89708,0.39128c-0.06362,-0.17814 -0.16097,-0.39128 -0.29203,-0.63941c-0.12979,-0.24813 -0.25513,-0.47717 -0.37601,-0.68712M288.98982,197.86857l0.90662,0.27676c-0.18451,0.53443 -0.404,1.06886 -0.65849,1.60329c-0.25449,0.53443 -0.53316,1.03705 -0.836,1.50786c-0.30157,0.47081 -0.61141,0.89072 -0.92953,1.25973c-0.03181,-0.08271 -0.07826,-0.18641 -0.13933,-0.31111c-0.05981,-0.12343 -0.12661,-0.24876 -0.20041,-0.37601c-0.07253,-0.12724 -0.13742,-0.23222 -0.19469,-0.31493c0.27358,-0.29266 0.53761,-0.63623 0.7921,-1.03069c0.25449,-0.39446 0.48989,-0.81437 0.70621,-1.25973c0.21632,-0.44536 0.40082,-0.89708 0.55352,-1.35516M288.22635,200.47392l0.93525,-0.93525v0.00954v7.22434h-0.93525zM298.98175,200.74113v0.53443h3.97005v-0.53443h-3.97005M298.98175,202.01994v0.53443h3.97005v-0.53443h-3.97005M298.98175,199.47186v0.53443h3.97005v-0.53443h-3.97005M297.99878,198.6893h5.9837v4.65717h-5.9837v-4.65717M300.4896,197.73496l1.2311,0.16224c-0.1018,0.21632 -0.20995,0.42309 -0.32448,0.62032c-0.11452,0.19723 -0.21632,0.36901 -0.30539,0.51534l-0.93525,-0.19087c0.06362,-0.17178 0.12724,-0.35947 0.19087,-0.56306c0.06362,-0.20359 0.11134,-0.38492 0.14315,-0.54397M298.66681,203.94771h1.03069v1.37425c0,0.13997 0.04135,0.22904 0.12406,0.26721c0.08271,0.03817 0.26721,0.05726 0.55352,0.05726c0.0509,0 0.1317,0 0.2424,0c0.11198,0 0.24113,0 0.38746,0c0.14633,0 0.29266,0 0.439,0c0.14633,0 0.27994,0 0.40082,0c0.12088,0 0.21632,0 0.2863,0c0.15906,0 0.27867,-0.02418 0.35883,-0.07253c0.07889,-0.04708 0.13424,-0.14697 0.16605,-0.29966c0.03181,-0.15269 0.05726,-0.38174 0.07635,-0.68712c0.07635,0.05726 0.17051,0.10943 0.28248,0.15651c0.1107,0.04835 0.22522,0.09162 0.34356,0.12979c0.11707,0.03817 0.22332,0.0668 0.31875,0.08589c-0.04454,0.43263 -0.11579,0.76665 -0.21377,1.00206c-0.09925,0.2354 -0.24558,0.39573 -0.439,0.48099c-0.19469,0.08653 -0.46699,0.12979 -0.81691,0.12979c-0.05726,0 -0.15079,0 -0.28058,0c-0.13106,0 -0.27739,0 -0.439,0c-0.16287,0 -0.32702,0 -0.49244,0c-0.16542,0 -0.31302,0 -0.44281,0c-0.13106,0 -0.22204,0 -0.27294,0c-0.42627,0 -0.75711,-0.0369 -0.99251,-0.1107c-0.2354,-0.07253 -0.39764,-0.19977 -0.48671,-0.38174c-0.08907,-0.18069 -0.13361,-0.42691 -0.13361,-0.73866v-1.39333M300.19376,203.64232l0.78256,-0.439c0.15906,0.13997 0.32002,0.29585 0.4829,0.46763c0.1616,0.17178 0.3073,0.34356 0.43709,0.51534c0.13106,0.17178 0.23477,0.33084 0.31111,0.47717l-0.83027,0.49626c-0.06998,-0.14633 -0.1686,-0.30857 -0.29585,-0.48671c-0.12724,-0.17814 -0.26912,-0.35819 -0.42564,-0.54016c-0.15524,-0.18069 -0.30921,-0.3442 -0.4619,-0.49053M303.3717,204.04314l0.91617,-0.38174c0.13997,0.20359 0.28121,0.42627 0.42373,0.66804c0.14379,0.24177 0.27294,0.47717 0.38746,0.70621c0.11452,0.22904 0.19723,0.439 0.24813,0.62986l-0.97343,0.42945c-0.04454,-0.19087 -0.11961,-0.404 -0.22522,-0.63941c-0.10434,-0.2354 -0.22459,-0.47717 -0.36074,-0.7253c-0.13742,-0.24813 -0.27612,-0.47717 -0.41609,-0.68712M297.49298,203.83319l0.90662,0.38174c-0.08271,0.20995 -0.17178,0.44027 -0.26721,0.69094c-0.09543,0.25195 -0.19532,0.49562 -0.29966,0.73102c-0.10561,0.2354 -0.2125,0.44854 -0.32066,0.63941l-0.95434,-0.44854c0.12088,-0.17814 0.23858,-0.38174 0.35311,-0.61078c0.11452,-0.22904 0.22268,-0.46317 0.32448,-0.70239c0.1018,-0.23795 0.18769,-0.46508 0.25767,-0.6814zM310.2334,198.46026h4.19909v0.95434h-4.19909v-0.95434M309.80395,200.74113h5.14389v0.95434h-5.14389v-0.95434M311.72217,201.2183h1.04023v4.29452c0,0.26085 -0.02672,0.4689 -0.08016,0.62414c-0.05472,0.15651 -0.16796,0.2793 -0.33974,0.36837c-0.16542,0.08271 -0.3671,0.13488 -0.60505,0.15651c-0.23922,0.0229 -0.52107,0.03436 -0.84554,0.03436c-0.01272,-0.15269 -0.04772,-0.32956 -0.10498,-0.53061c-0.05726,-0.19977 -0.12088,-0.37601 -0.19087,-0.5287c0.20995,0.00636 0.40591,0.01082 0.58787,0.01336c0.18069,0.00382 0.30284,0.00573 0.36647,0.00573c0.06362,-0.00636 0.10816,-0.01909 0.13361,-0.03817c0.02545,-0.01909 0.03817,-0.06044 0.03817,-0.12406v-4.27544M313.17276,202.87885l0.84936,-0.2863c0.14633,0.31811 0.28821,0.65659 0.42564,1.01542c0.13615,0.3601 0.25703,0.71003 0.36265,1.04977c0.10434,0.34102 0.1756,0.64195 0.21377,0.9028l-0.92571,0.34356c-0.03817,-0.26721 -0.10307,-0.5726 -0.19469,-0.91617c-0.09289,-0.34356 -0.20296,-0.69985 -0.3302,-1.06886c-0.12724,-0.36901 -0.26085,-0.71575 -0.40082,-1.04023M310.28112,202.63072l0.92571,0.20995c-0.09543,0.36901 -0.20995,0.73802 -0.34356,1.10703c-0.13361,0.36901 -0.27803,0.71703 -0.43327,1.04405c-0.15651,0.32829 -0.31748,0.6165 -0.4829,0.86463c-0.05726,-0.0509 -0.13488,-0.11007 -0.23286,-0.17751c-0.09925,-0.06617 -0.19977,-0.13106 -0.30157,-0.19469c-0.1018,-0.06362 -0.19087,-0.11452 -0.26721,-0.15269c0.24813,-0.3372 0.47081,-0.74757 0.66804,-1.2311c0.19723,-0.48353 0.35311,-0.97343 0.46763,-1.46968M306.13929,199.74862h3.5406v0.95434h-3.5406v-0.95434M307.50399,197.8304h1.02114v8.90398h-1.02114v-8.90398M307.37993,200.38802l0.62986,0.20041c-0.06998,0.36265 -0.15588,0.73929 -0.25767,1.12994c-0.1018,0.39192 -0.2195,0.77683 -0.35311,1.15475c-0.13361,0.37919 -0.27803,0.7323 -0.43327,1.05932c-0.15651,0.32829 -0.31748,0.61014 -0.4829,0.84554c-0.03181,-0.09543 -0.07762,-0.20359 -0.13742,-0.32448c-0.06108,-0.12088 -0.12661,-0.24177 -0.19659,-0.36265c-0.06998,-0.12088 -0.13679,-0.22268 -0.20041,-0.30539c0.20995,-0.26085 0.40909,-0.58215 0.59742,-0.96388c0.18705,-0.38174 0.35247,-0.78765 0.49626,-1.21774c0.14251,-0.42882 0.25513,-0.83409 0.33784,-1.21583M308.47742,200.86519c0.05726,0.06362 0.14824,0.1686 0.27294,0.31493c0.12343,0.14633 0.25703,0.30857 0.40082,0.48671c0.14251,0.17814 0.27294,0.34038 0.39128,0.48671c0.11707,0.14633 0.20105,0.25131 0.25195,0.31493l-0.56306,0.81119c-0.05726,-0.12724 -0.13997,-0.27994 -0.24813,-0.45808c-0.10816,-0.17814 -0.22268,-0.36456 -0.34356,-0.55924c-0.12088,-0.19341 -0.23668,-0.37283 -0.34738,-0.53825c-0.11198,-0.16542 -0.20614,-0.29903 -0.28248,-0.40082zM318.08761,201.97223h3.91279v0.83982h-3.91279v-0.83982M316.93286,198.61295h2.96799v0.82073h-2.96799v-0.82073M320.72158,198.61295h3.56923v0.82073h-3.56923v-0.82073M317.01875,197.76359l0.95434,0.24813c-0.12088,0.34356 -0.26403,0.68394 -0.42945,1.02114c-0.16542,0.3372 -0.34165,0.65531 -0.5287,0.95434c-0.18832,0.29903 -0.3811,0.56306 -0.57833,0.7921c-0.05726,-0.05726 -0.13806,-0.12088 -0.2424,-0.19087c-0.10561,-0.06998 -0.2125,-0.13679 -0.32066,-0.20041c-0.10816,-0.06362 -0.20041,-0.11452 -0.27676,-0.15269c0.29903,-0.29903 0.57451,-0.66995 0.82646,-1.11276c0.25067,-0.44154 0.44918,-0.89453 0.59551,-1.35898M320.84565,197.76359l0.96388,0.22904c-0.14633,0.40082 -0.3372,0.78701 -0.5726,1.15857c-0.2354,0.37283 -0.47717,0.68649 -0.7253,0.94098c-0.06362,-0.05726 -0.14633,-0.11961 -0.24813,-0.18705c-0.1018,-0.06617 -0.20487,-0.13297 -0.30921,-0.20041c-0.10561,-0.06617 -0.19659,-0.12152 -0.27294,-0.16605c0.24813,-0.21632 0.4759,-0.48353 0.68331,-0.80164c0.20614,-0.31811 0.36647,-0.64259 0.48099,-0.97343M317.4482,199.28099l0.86845,-0.22904c0.13361,0.19087 0.26276,0.40718 0.38746,0.64895c0.12343,0.24177 0.21059,0.45172 0.26149,0.62986l-0.91617,0.26721c-0.04454,-0.17814 -0.12534,-0.39001 -0.2424,-0.63559c-0.11834,-0.24431 -0.23795,-0.47144 -0.35883,-0.6814M321.5614,199.2619l0.91617,-0.19087c0.16542,0.19087 0.33084,0.41037 0.49626,0.65849c0.16542,0.24813 0.28948,0.46763 0.37219,0.65849l-0.98297,0.20995c-0.06998,-0.17814 -0.17942,-0.39319 -0.32829,-0.64513c-0.15015,-0.25067 -0.30793,-0.48099 -0.47335,-0.69094M320.55935,200.25442c0.20995,0.20359 0.46445,0.39764 0.76347,0.58215c0.29903,0.18451 0.62859,0.35756 0.9887,0.51916c0.35883,0.16287 0.73102,0.30602 1.11658,0.42945c0.38428,0.1247 0.76411,0.2284 1.13948,0.31111c-0.10816,0.09543 -0.22077,0.22586 -0.33784,0.39128c-0.11834,0.16542 -0.2125,0.31175 -0.28248,0.439c-0.3881,-0.1018 -0.77301,-0.23222 -1.15475,-0.39128c-0.38174,-0.15906 -0.7552,-0.34229 -1.12039,-0.5497c-0.36647,-0.20614 -0.70685,-0.42691 -1.02114,-0.66231c-0.31557,-0.2354 -0.59105,-0.48035 -0.82646,-0.73484l0.73484,-0.33402M320.00583,199.73907l0.82073,0.41037c-0.36901,0.43263 -0.80483,0.82709 -1.30744,1.18338c-0.50262,0.35629 -1.03832,0.6744 -1.60711,0.95434c-0.57006,0.27994 -1.14457,0.51534 -1.72354,0.70621c-0.06362,-0.12088 -0.15079,-0.25767 -0.26149,-0.41037c-0.11198,-0.15269 -0.22522,-0.27994 -0.33974,-0.38174c0.55352,-0.15906 1.11021,-0.35947 1.67009,-0.60123c0.55988,-0.24177 1.08031,-0.52043 1.5613,-0.836c0.47971,-0.3143 0.87545,-0.65595 1.1872,-1.02496M315.9308,205.59871h8.32183v0.90662h-8.32183v-0.90662M322.39168,203.06972l0.92571,0.25767c-0.13361,0.34356 -0.28757,0.69794 -0.4619,1.06313c-0.1756,0.36647 -0.35374,0.71639 -0.53443,1.04977c-0.18196,0.33466 -0.35565,0.63241 -0.52107,0.89326c-0.06998,-0.0509 -0.15588,-0.10816 -0.25767,-0.17178c-0.1018,-0.06362 -0.20487,-0.12597 -0.30921,-0.18705c-0.10561,-0.05981 -0.19977,-0.10879 -0.28248,-0.14697c0.17814,-0.22904 0.35501,-0.49816 0.53061,-0.80737c0.17433,-0.30793 0.34102,-0.6305 0.50007,-0.9677c0.15906,-0.3372 0.29585,-0.66486 0.41037,-0.98297M319.28053,203.31784l0.81119,-0.29585c0.11452,0.18451 0.22586,0.38619 0.33402,0.60505c0.10816,0.22013 0.20868,0.43327 0.30157,0.63941c0.09162,0.20741 0.15969,0.39382 0.20423,0.55924l-0.8589,0.35311c-0.04454,-0.16542 -0.10816,-0.35501 -0.19087,-0.56879c-0.08271,-0.2125 -0.17623,-0.432 -0.28058,-0.65849c-0.10561,-0.22522 -0.2125,-0.43645 -0.32066,-0.63368M316.90423,203.54689l0.82073,-0.36265c0.13361,0.17178 0.26403,0.35947 0.39128,0.56306c0.12724,0.20359 0.24686,0.40209 0.35883,0.59551c0.1107,0.19469 0.19469,0.36837 0.25195,0.52107l-0.86845,0.41991c-0.05726,-0.15269 -0.13679,-0.32956 -0.23858,-0.53061c-0.1018,-0.19977 -0.21441,-0.40464 -0.33784,-0.61459c-0.1247,-0.20995 -0.25067,-0.40718 -0.37792,-0.59169zM325.52191,198.30757h8.31229v0.9448h-8.31229v-0.9448M329.00525,198.77519l1.17384,0.15269c-0.12088,0.30539 -0.25258,0.60441 -0.3951,0.89708c-0.14379,0.29266 -0.27612,0.54397 -0.397,0.75393l-0.88754,-0.18132c0.06362,-0.15269 0.12915,-0.32448 0.19659,-0.51534c0.06617,-0.19087 0.12661,-0.38364 0.18132,-0.57833c0.05344,-0.19341 0.09607,-0.36965 0.12788,-0.5287M329.12931,201.59049h1.06886v1.7369c0,0.26721 -0.03499,0.53252 -0.10498,0.79592c-0.06998,0.26467 -0.19405,0.52107 -0.37219,0.7692c-0.17814,0.24813 -0.42754,0.4848 -0.7482,0.71003c-0.32193,0.2265 -0.7342,0.43518 -1.23682,0.62605c-0.50262,0.19087 -1.1134,0.36583 -1.83233,0.52489c-0.03817,-0.07635 -0.09225,-0.16542 -0.16224,-0.26721c-0.06998,-0.1018 -0.14633,-0.2055 -0.22904,-0.31111c-0.08271,-0.10434 -0.16224,-0.18832 -0.23858,-0.25195c0.6744,-0.12724 1.23937,-0.26912 1.69491,-0.42564c0.45427,-0.15524 0.82646,-0.32066 1.11658,-0.49626c0.28885,-0.17433 0.50834,-0.35565 0.65849,-0.54397c0.14888,-0.18705 0.25067,-0.37792 0.30539,-0.5726c0.05344,-0.19341 0.08016,-0.38555 0.08016,-0.57642v-1.71781M329.99776,204.96885l0.58215,-0.69667c0.26721,0.10816 0.55352,0.23222 0.8589,0.37219c0.30539,0.13997 0.61269,0.2863 0.92189,0.439c0.30793,0.15269 0.59551,0.30348 0.86272,0.45236c0.26721,0.15015 0.49626,0.28885 0.68712,0.41609l-0.63941,0.81119c-0.17178,-0.13361 -0.38619,-0.27867 -0.64322,-0.43518c-0.25831,-0.15524 -0.53825,-0.3143 -0.83982,-0.47717c-0.30284,-0.1616 -0.60696,-0.31875 -0.91235,-0.47144c-0.30539,-0.15269 -0.59805,-0.28948 -0.87799,-0.41037M326.34264,200.19716h6.71855v4.41859h-1.09749v-3.47379h-4.57128v3.50242h-1.04977zM338.35777,198.57478h4.48539v0.98297h-4.48539v-0.98297M342.40416,198.57478h1.04023c0,0 -0.00127,0.03499 -0.00382,0.10498c-0.00382,0.06998 -0.00573,0.14633 -0.00573,0.22904c0,0.08271 0,0.14951 0,0.20041c-0.03181,1.1961 -0.06171,2.20898 -0.08971,3.03861c-0.02927,0.83091 -0.06617,1.51358 -0.1107,2.04801c-0.04454,0.53443 -0.09861,0.94925 -0.16224,1.24446c-0.06362,0.29648 -0.14315,0.50834 -0.23858,0.63559c-0.12088,0.17814 -0.24495,0.30221 -0.37219,0.37219c-0.12724,0.06998 -0.27994,0.12088 -0.45808,0.15269c-0.16542,0.02545 -0.37028,0.03817 -0.61459,0.03817c-0.24558,0 -0.4988,-0.00318 -0.75965,-0.00954c-0.00636,-0.15269 -0.03817,-0.32956 -0.09543,-0.53061c-0.05726,-0.19977 -0.13361,-0.37283 -0.22904,-0.51916c0.26085,0.02545 0.49944,0.03945 0.71575,0.04199c0.21632,0.00382 0.37855,0.00573 0.48671,0.00573c0.08907,0 0.16097,-0.01272 0.21568,-0.03817c0.05344,-0.02545 0.10561,-0.07317 0.15651,-0.14315c0.07635,-0.08907 0.14188,-0.2723 0.19659,-0.5497c0.05344,-0.27612 0.10116,-0.67376 0.14315,-1.19292c0.04072,-0.51789 0.07571,-1.17765 0.10498,-1.9793c0.02799,-0.80164 0.05472,-1.76871 0.08016,-2.90119v-0.24813M334.61676,200.76976l3.79827,-0.74438l0.16224,0.92571l-3.78873,0.76347l-0.17178,-0.9448M339.76064,199.03286h1.02114c-0.00636,0.64895 -0.02545,1.28009 -0.05726,1.89341c-0.03181,0.61459 -0.09353,1.20501 -0.18514,1.77125c-0.09289,0.56624 -0.23477,1.09749 -0.42564,1.59375c-0.19087,0.49626 -0.44981,0.95434 -0.77683,1.37425c-0.32829,0.41991 -0.74693,0.78574 -1.25591,1.09749c-0.07635,-0.13361 -0.18451,-0.27994 -0.32448,-0.439c-0.13997,-0.15906 -0.27358,-0.2863 -0.40082,-0.38174c0.47081,-0.27358 0.85445,-0.5936 1.15093,-0.96006c0.29521,-0.36519 0.52743,-0.77047 0.69667,-1.21583c0.16796,-0.44536 0.29012,-0.92125 0.36647,-1.42769c0.07635,-0.50516 0.12597,-1.03641 0.14888,-1.59375c0.02163,-0.55606 0.03563,-1.12676 0.04199,-1.71208M335.77151,205.46511l-0.16224,-0.95434l0.36265,-0.34356l2.47174,-1.04977c0.01272,0.14633 0.03499,0.30666 0.0668,0.48099c0.03181,0.1756 0.06362,0.31748 0.09543,0.42564c-0.56624,0.25449 -1.02241,0.46445 -1.36852,0.62986c-0.34738,0.16542 -0.61778,0.29903 -0.81119,0.40082c-0.19469,0.1018 -0.33784,0.1826 -0.42945,0.2424c-0.09289,0.06108 -0.16796,0.11707 -0.22522,0.16796M335.77151,205.46511c-0.02545,-0.08907 -0.0649,-0.19087 -0.11834,-0.30539c-0.05472,-0.11452 -0.11198,-0.22586 -0.17178,-0.33402c-0.06108,-0.10816 -0.12025,-0.19723 -0.17751,-0.26721c0.10816,-0.05726 0.21632,-0.15142 0.32448,-0.28248c0.10816,-0.12979 0.16224,-0.29648 0.16224,-0.50007v-5.5638h0.99251v6.32727c0,0 -0.03499,0.01909 -0.10498,0.05726c-0.06998,0.03817 -0.15397,0.09034 -0.25195,0.15651c-0.09925,0.06744 -0.19977,0.14061 -0.30157,0.2195c-0.1018,0.08016 -0.18578,0.16287 -0.25195,0.24813c-0.06744,0.08653 -0.10116,0.16796 -0.10116,0.24431zM344.20786,202.7357c0.38174,-0.08271 0.83664,-0.19723 1.3647,-0.34356c0.52807,-0.14633 1.0625,-0.29585 1.60329,-0.44854l0.13361,0.92571c-0.48989,0.14633 -0.98615,0.29585 -1.48877,0.44854c-0.50262,0.15269 -0.9607,0.28948 -1.37425,0.41037l-0.23858,-0.99251M344.34147,199.67227h2.82484v0.9448h-2.82484v-0.9448M345.35307,197.83994h0.99251v7.70151c0,0.24813 -0.02672,0.44536 -0.08016,0.59169c-0.05472,0.14633 -0.15206,0.26085 -0.29203,0.34356c-0.13361,0.08271 -0.30221,0.13806 -0.5058,0.16605c-0.20359,0.02927 -0.4549,0.04072 -0.75393,0.03436c-0.01272,-0.13361 -0.04581,-0.29585 -0.09925,-0.48671c-0.05472,-0.19087 -0.11707,-0.35947 -0.18705,-0.5058c0.16542,0.00636 0.32129,0.00954 0.46763,0.00954c0.14633,0 0.24813,0 0.30539,0c0.1018,0 0.15269,-0.05408 0.15269,-0.16224v-7.69197M348.83641,198.65113h2.76758v0.8589h-2.76758v-0.8589M348.99864,197.83994l1.02114,0.19087c-0.24177,0.51534 -0.54397,1.03069 -0.90662,1.54603c-0.36265,0.51534 -0.80483,0.99569 -1.32653,1.44105c-0.04454,-0.07635 -0.10498,-0.16097 -0.18132,-0.25385c-0.07635,-0.09162 -0.15715,-0.18196 -0.2424,-0.27103c-0.08653,-0.08907 -0.16478,-0.15906 -0.23477,-0.20995c0.30539,-0.24177 0.57897,-0.50135 0.82073,-0.77874c0.24177,-0.27612 0.45045,-0.55733 0.62605,-0.84364c0.17433,-0.2863 0.31557,-0.55988 0.42373,-0.82073M351.28906,198.65113h0.22904l0.16224,-0.03817l0.67758,0.44854c-0.12724,0.21632 -0.27867,0.44345 -0.45427,0.6814c-0.17433,0.23922 -0.35819,0.47144 -0.55161,0.69667c-0.19469,0.2265 -0.37792,0.42564 -0.5497,0.59742c-0.08907,-0.07635 -0.20359,-0.16097 -0.34356,-0.25385c-0.13997,-0.09162 -0.26403,-0.16287 -0.37219,-0.21377c0.15269,-0.16542 0.3073,-0.34992 0.46381,-0.55352c0.15524,-0.20359 0.29966,-0.40909 0.43327,-0.6165c0.13361,-0.20614 0.2354,-0.38873 0.30539,-0.54779v-0.20041M347.15677,203.0888h5.96462v0.86845h-5.96462v-0.86845M347.78663,200.26396h4.74306v3.07297h-1.02114v-2.29041h-2.7485v2.29041h-0.97343v-3.07297M350.55422,203.67095c0.17178,0.33084 0.39446,0.64259 0.66804,0.93525c0.27358,0.29266 0.58724,0.54715 0.94098,0.76347c0.35247,0.21632 0.7323,0.39128 1.13948,0.52489c-0.1018,0.09543 -0.21441,0.22268 -0.33784,0.38174c-0.1247,0.15906 -0.22204,0.29903 -0.29203,0.41991c-0.43263,-0.16542 -0.83346,-0.38492 -1.20247,-0.65849c-0.36901,-0.27358 -0.69794,-0.59042 -0.98679,-0.95052c-0.29012,-0.35883 -0.53697,-0.7482 -0.74057,-1.16811l0.81119,-0.24813M349.67622,200.84611h1.00206v1.26927c0,0.27358 -0.02227,0.56433 -0.0668,0.87227c-0.04454,0.30921 -0.13043,0.62605 -0.25767,0.95052c-0.12724,0.32448 -0.31493,0.65022 -0.56306,0.97724c-0.24813,0.32829 -0.57069,0.64831 -0.9677,0.96006c-0.39828,0.31175 -0.89644,0.60441 -1.49449,0.87799c-0.06998,-0.1018 -0.17305,-0.22268 -0.30921,-0.36265c-0.13742,-0.13997 -0.26658,-0.25767 -0.38746,-0.35311c0.5726,-0.2354 1.0485,-0.48671 1.42769,-0.75393c0.37792,-0.26721 0.67694,-0.5427 0.89708,-0.82646c0.21886,-0.28248 0.37919,-0.56242 0.48099,-0.83982c0.1018,-0.27612 0.16733,-0.54334 0.19659,-0.80164c0.02799,-0.25703 0.04199,-0.49689 0.04199,-0.71957zM354.21888,200.08264h7.31978v1.03069h-7.31978v-1.03069M361.1092,200.08264h1.06886c0,0 0,0.03181 0,0.09543c0,0.06362 0,0.13361 0,0.20995c0,0.07635 -0.00318,0.13997 -0.00954,0.19087c-0.03181,0.92889 -0.0668,1.72099 -0.10498,2.3763c-0.03817,0.65531 -0.07953,1.19738 -0.12406,1.62619c-0.04454,0.43009 -0.09989,0.76729 -0.16605,1.0116c-0.06744,0.24558 -0.14888,0.42882 -0.24431,0.5497c-0.12724,0.16542 -0.26085,0.28121 -0.40082,0.34738c-0.13997,0.06744 -0.30539,0.1107 -0.49626,0.12979c-0.17814,0.02545 -0.40528,0.03817 -0.6814,0.03817c-0.27739,0 -0.56242,-0.00636 -0.85509,-0.01909c-0.00636,-0.15269 -0.04263,-0.33275 -0.10879,-0.54016c-0.06744,-0.20614 -0.15206,-0.38237 -0.25385,-0.5287c0.30539,0.02545 0.58851,0.03945 0.84936,0.04199c0.26085,0.00382 0.45172,0.00573 0.5726,0.00573c0.09543,0.00636 0.17496,-0.00191 0.23858,-0.02481c0.06362,-0.02163 0.12406,-0.06108 0.18132,-0.11834c0.06998,-0.07635 0.13234,-0.22777 0.18705,-0.45427c0.05344,-0.22522 0.10243,-0.54334 0.14697,-0.95434c0.04454,-0.40973 0.08271,-0.92635 0.11452,-1.54985c0.03181,-0.6235 0.06044,-1.36789 0.08589,-2.23315v-0.20041M357.23459,197.84948h1.04023v1.25018c0,0.41991 -0.01718,0.87926 -0.05153,1.37807c-0.03563,0.50007 -0.11516,1.0186 -0.23858,1.55557c-0.1247,0.53825 -0.3143,1.07459 -0.56879,1.60902c-0.25449,0.53443 -0.59296,1.05104 -1.01542,1.54985c-0.42373,0.50007 -0.96006,0.96325 -1.60902,1.38952c-0.05726,-0.08271 -0.13361,-0.17178 -0.22904,-0.26721c-0.09543,-0.09543 -0.19532,-0.1896 -0.29966,-0.28248c-0.10561,-0.09162 -0.19977,-0.16287 -0.28248,-0.21377c0.60441,-0.38174 1.10512,-0.79846 1.50213,-1.25018c0.39828,-0.45172 0.71512,-0.91935 0.95052,-1.40288c0.2354,-0.48353 0.41037,-0.96388 0.52489,-1.44105c0.11452,-0.47717 0.1896,-0.94034 0.22522,-1.38952c0.03436,-0.4479 0.05153,-0.85954 0.05153,-1.23491v-1.25018M354.85828,198.44117l0.89708,-0.36265c0.17814,0.20995 0.36265,0.44981 0.55352,0.71957c0.19087,0.27103 0.33084,0.50516 0.41991,0.70239l-0.95434,0.41037c-0.0509,-0.13361 -0.12724,-0.28503 -0.22904,-0.45427c-0.1018,-0.16796 -0.21123,-0.34102 -0.32829,-0.51916c-0.11834,-0.17814 -0.23795,-0.34356 -0.35883,-0.49626M358.14121,202.48757l0.8589,-0.40082c0.14633,0.17814 0.29775,0.37346 0.45427,0.58596c0.15524,0.21377 0.30157,0.42373 0.439,0.62986c0.13615,0.20741 0.2424,0.39382 0.31875,0.55924l-0.91617,0.45808c-0.06998,-0.16542 -0.1686,-0.35501 -0.29585,-0.56879c-0.12724,-0.2125 -0.26594,-0.42882 -0.41609,-0.64895c-0.14888,-0.21886 -0.29648,-0.42373 -0.44281,-0.61459zM366.97839,200.45483h0.95434c-0.04454,0.40082 -0.09225,0.822 -0.14315,1.26354c-0.0509,0.44281 -0.10625,0.88181 -0.16605,1.31699c-0.06108,0.43645 -0.11834,0.85 -0.17178,1.24064c-0.05472,0.39192 -0.10752,0.73739 -0.15842,1.03641h-0.99251c0.06362,-0.31175 0.12724,-0.66677 0.19087,-1.06504c0.06362,-0.397 0.12597,-0.81373 0.18705,-1.25018c0.05981,-0.43518 0.11516,-0.87099 0.16605,-1.30744c0.0509,-0.43518 0.09543,-0.84682 0.13361,-1.23491M368.40989,201.56186l0.53443,-0.34356c0.17178,0.13361 0.34992,0.28948 0.53443,0.46763c0.18451,0.17814 0.32766,0.33402 0.42945,0.46763l-0.56306,0.39128c-0.08907,-0.13997 -0.22459,-0.30412 -0.40655,-0.49244c-0.18069,-0.18705 -0.35692,-0.35056 -0.5287,-0.49053M368.15222,203.53734l0.56306,-0.35311c0.19087,0.14633 0.39001,0.31493 0.59742,0.5058c0.20614,0.19087 0.36647,0.36265 0.48099,0.51534l-0.58215,0.40082c-0.10816,-0.14633 -0.26403,-0.32129 -0.46763,-0.52489c-0.20359,-0.20359 -0.40082,-0.38492 -0.59169,-0.54397M367.11199,198.82291h4.93393v0.92571h-4.93393v-0.92571M367.37921,200.45483h3.63603v0.87799h-3.63603v-0.87799M365.77592,202.36351h6.51813v0.92571h-6.51813v-0.92571M366.81615,204.43442h5.22978v0.87799h-5.22978v-0.87799M367.16925,197.82085l0.99251,0.25767c-0.12724,0.39446 -0.28185,0.78701 -0.46381,1.17765c-0.18069,0.39192 -0.37283,0.75965 -0.57642,1.10322c-0.20359,0.34356 -0.41037,0.64577 -0.62032,0.90662c-0.06362,-0.05726 -0.15079,-0.12088 -0.26149,-0.19087c-0.11198,-0.06998 -0.22204,-0.13997 -0.3302,-0.20995c-0.10816,-0.06998 -0.20359,-0.12724 -0.2863,-0.17178c0.21632,-0.22904 0.42182,-0.49816 0.6165,-0.80737c0.19341,-0.30793 0.36965,-0.63877 0.5287,-0.99251c0.15906,-0.35247 0.29266,-0.71003 0.40082,-1.07268M370.71939,200.45483h0.95434c0,0 -0.00127,0.02863 -0.00382,0.08589c-0.00382,0.05726 -0.00573,0.11897 -0.00573,0.18514c0,0.06744 -0.00318,0.12343 -0.00954,0.16796c-0.03817,0.9098 -0.07635,1.68091 -0.11452,2.31332c-0.03817,0.63368 -0.0808,1.15411 -0.12788,1.5613c-0.04835,0.40718 -0.10243,0.7253 -0.16224,0.95434c-0.06108,0.22904 -0.13297,0.39446 -0.21568,0.49626c-0.10816,0.14633 -0.22077,0.24622 -0.33784,0.29966c-0.11834,0.05472 -0.25385,0.0948 -0.40655,0.12025c-0.13997,0.01909 -0.31811,0.02863 -0.53443,0.02863c-0.21632,0 -0.44218,-0.00636 -0.67758,-0.01909c-0.00636,-0.12724 -0.03181,-0.2704 -0.07635,-0.42945c-0.04454,-0.15906 -0.10498,-0.29903 -0.18132,-0.41991c0.22268,0.01909 0.42627,0.03181 0.61078,0.03817c0.18451,0.00636 0.32129,0.00954 0.41037,0.00954c0.08271,0 0.14951,-0.01145 0.20041,-0.03436c0.0509,-0.02163 0.1018,-0.06108 0.15269,-0.11834c0.06362,-0.06998 0.12088,-0.21186 0.17178,-0.42564c0.0509,-0.2125 0.09861,-0.51471 0.14315,-0.90662c0.04454,-0.39064 0.08462,-0.89008 0.12025,-1.49831c0.03436,-0.60696 0.06426,-1.34307 0.08971,-2.20834v-0.20041M363.9245,198.67021l0.5726,-0.69667c0.18451,0.08271 0.38364,0.18132 0.59742,0.29585c0.2125,0.11452 0.41609,0.23222 0.61078,0.35311c0.19341,0.12088 0.35056,0.23222 0.47144,0.33402l-0.60123,0.77301c-0.11452,-0.1018 -0.26594,-0.21823 -0.45427,-0.34929c-0.18705,-0.12979 -0.38683,-0.25703 -0.59932,-0.38174c-0.21377,-0.12343 -0.41291,-0.23286 -0.59742,-0.32829M363.39007,201.39962l0.55352,-0.68712c0.18451,0.08271 0.37728,0.17942 0.57833,0.29012c0.19977,0.11198 0.39064,0.22522 0.5726,0.33974c0.18069,0.11452 0.32829,0.22268 0.44281,0.32448l-0.59169,0.78256c-0.1018,-0.10816 -0.24177,-0.22586 -0.41991,-0.35311c-0.17814,-0.12724 -0.3671,-0.25131 -0.56688,-0.37219c-0.20105,-0.12088 -0.39064,-0.22904 -0.56879,-0.32448M363.65729,206.02817c0.12724,-0.24813 0.26912,-0.54079 0.42564,-0.87799c0.15524,-0.3372 0.31048,-0.69667 0.46572,-1.0784c0.15651,-0.38174 0.30157,-0.75711 0.43518,-1.12612l0.78256,0.55352c-0.11452,0.3372 -0.23986,0.68394 -0.37601,1.04023c-0.13742,0.35629 -0.27739,0.70939 -0.41991,1.05932c-0.14379,0.34992 -0.28567,0.67758 -0.42564,0.98297zM373.70647,198.45072h1.8705v5.94553h-1.8705v-0.82073h1.06886v-4.31361h-1.06886v-0.81119M373.20068,198.45072h0.81119v6.78535h-0.81119v-6.78535M375.79648,199.88223h6.00279v0.7921h-6.00279v-0.7921M376.34045,198.49843h4.89576v3.58831h-4.97211v-0.83027h4.09411v-1.92776h-4.01777v-0.83027M378.17278,197.86857h0.9448v8.83718h-0.9448v-8.83718M380.48228,202.46848h0.84936v4.20863h-0.84936v-4.20863M376.02552,202.46848h0.83027v0.7921c0,0.35629 -0.01718,0.73611 -0.05153,1.13948c-0.03563,0.40464 -0.11261,0.80864 -0.23095,1.21201c-0.11707,0.40464 -0.29966,0.78828 -0.54779,1.15093c-0.08271,-0.08907 -0.1985,-0.18769 -0.34738,-0.29585c-0.15015,-0.10816 -0.28248,-0.19087 -0.397,-0.24813c0.22268,-0.31175 0.38683,-0.64132 0.49244,-0.9887c0.10434,-0.34611 0.17242,-0.69094 0.20423,-1.0345c0.03181,-0.34356 0.04772,-0.66486 0.04772,-0.96388v-0.76347M377.32342,202.85976l0.65849,0.11452c-0.03817,0.35629 -0.08716,0.71385 -0.14697,1.07268c-0.06108,0.3601 -0.13297,0.69921 -0.21568,1.01733c-0.08271,0.31811 -0.17496,0.60123 -0.27676,0.84936c-0.06362,-0.0509 -0.15269,-0.11325 -0.26721,-0.18705c-0.11452,-0.07253 -0.21314,-0.12788 -0.29585,-0.16605c0.14633,-0.34356 0.26276,-0.75711 0.34929,-1.24064c0.08525,-0.48353 0.15015,-0.97024 0.19469,-1.46014M379.25118,202.9552l0.62986,-0.07635c0.07635,0.29903 0.14951,0.61841 0.2195,0.95816c0.06998,0.34102 0.13234,0.66867 0.18705,0.98297c0.05344,0.31557 0.08971,0.58787 0.10879,0.81691l-0.68712,0.12406c-0.01272,-0.2354 -0.04263,-0.51407 -0.08971,-0.836c-0.04835,-0.32066 -0.10243,-0.65468 -0.16224,-1.00206c-0.06108,-0.34611 -0.12979,-0.66867 -0.20614,-0.9677zM385.77886,200.76022h4.76215v0.81119h-4.76215v-0.81119M385.77886,202.14401h4.76215v0.81119h-4.76215v-0.81119M386.26557,205.58917h3.78873v0.82073h-3.78873v-0.82073M385.10128,199.3478h6.15549v0.83027h-6.15549v-0.83027M385.64525,203.56597h5.01028v3.13023h-0.90662v-2.3095h-3.23521v2.33813h-0.86845v-3.15886M387.27717,198.14533l0.86845,-0.33402c0.13361,0.19723 0.26594,0.41355 0.397,0.64895c0.12979,0.2354 0.22968,0.44218 0.29966,0.62032l-0.89708,0.39128c-0.06362,-0.17814 -0.16033,-0.39128 -0.29012,-0.63941c-0.13106,-0.24813 -0.25703,-0.47717 -0.37792,-0.68712M384.4237,197.86857l0.90662,0.27676c-0.18451,0.53443 -0.404,1.06886 -0.65849,1.60329c-0.25449,0.53443 -0.53252,1.03705 -0.83409,1.50786c-0.30284,0.47081 -0.61332,0.89072 -0.93143,1.25973c-0.03181,-0.08271 -0.07762,-0.18641 -0.13742,-0.31111c-0.06108,-0.12343 -0.12788,-0.24876 -0.20041,-0.37601c-0.0738,-0.12724 -0.13933,-0.23222 -0.19659,-0.31493c0.27358,-0.29266 0.53761,-0.63623 0.7921,-1.03069c0.25449,-0.39446 0.48989,-0.81437 0.70621,-1.25973c0.21632,-0.44536 0.40082,-0.89708 0.55352,-1.35516M383.66023,200.47392l0.93525,-0.93525v0.00954v7.22434h-0.93525zM394.41563,200.74113v0.53443h3.97005v-0.53443h-3.97005M394.41563,202.01994v0.53443h3.97005v-0.53443h-3.97005M394.41563,199.47186v0.53443h3.97005v-0.53443h-3.97005M393.43266,198.6893h5.9837v4.65717h-5.9837v-4.65717M395.92348,197.73496l1.2311,0.16224c-0.1018,0.21632 -0.20995,0.42309 -0.32448,0.62032c-0.11452,0.19723 -0.21632,0.36901 -0.30539,0.51534l-0.93525,-0.19087c0.06362,-0.17178 0.12724,-0.35947 0.19087,-0.56306c0.06362,-0.20359 0.11134,-0.38492 0.14315,-0.54397M394.1007,203.94771h1.03069v1.37425c0,0.13997 0.04135,0.22904 0.12406,0.26721c0.08271,0.03817 0.26721,0.05726 0.55352,0.05726c0.0509,0 0.13234,0 0.24431,0c0.1107,0 0.23922,0 0.38555,0c0.14633,0 0.29266,0 0.439,0c0.14633,0 0.27994,0 0.40082,0c0.12088,0 0.21632,0 0.2863,0c0.15906,0 0.27867,-0.02418 0.35883,-0.07253c0.07889,-0.04708 0.13424,-0.14697 0.16605,-0.29966c0.03181,-0.15269 0.05726,-0.38174 0.07635,-0.68712c0.07635,0.05726 0.17051,0.10943 0.28248,0.15651c0.1107,0.04835 0.22522,0.09162 0.34356,0.12979c0.11707,0.03817 0.22332,0.0668 0.31875,0.08589c-0.04454,0.43263 -0.11579,0.76665 -0.21377,1.00206c-0.09925,0.2354 -0.24558,0.39573 -0.439,0.48099c-0.19469,0.08653 -0.46699,0.12979 -0.81691,0.12979c-0.05726,0 -0.15079,0 -0.28058,0c-0.13106,0 -0.27739,0 -0.439,0c-0.16287,0 -0.32702,0 -0.49244,0c-0.16542,0 -0.31302,0 -0.44281,0c-0.13106,0 -0.22204,0 -0.27294,0c-0.42627,0 -0.75711,-0.0369 -0.99251,-0.1107c-0.2354,-0.07253 -0.39764,-0.19977 -0.48671,-0.38174c-0.08907,-0.18069 -0.13361,-0.42691 -0.13361,-0.73866v-1.39333M395.62764,203.64232l0.78256,-0.439c0.15906,0.13997 0.32002,0.29585 0.4829,0.46763c0.1616,0.17178 0.3073,0.34356 0.43709,0.51534c0.13106,0.17178 0.23477,0.33084 0.31111,0.47717l-0.83027,0.49626c-0.06998,-0.14633 -0.1686,-0.30857 -0.29585,-0.48671c-0.12724,-0.17814 -0.26912,-0.35819 -0.42564,-0.54016c-0.15524,-0.18069 -0.30921,-0.3442 -0.4619,-0.49053M398.80559,204.04314l0.91617,-0.38174c0.13997,0.20359 0.28121,0.42627 0.42373,0.66804c0.14379,0.24177 0.27294,0.47717 0.38746,0.70621c0.11452,0.22904 0.19723,0.439 0.24813,0.62986l-0.97343,0.42945c-0.04454,-0.19087 -0.11897,-0.404 -0.22332,-0.63941c-0.10561,-0.2354 -0.2265,-0.47717 -0.36265,-0.7253c-0.13742,-0.24813 -0.27612,-0.47717 -0.41609,-0.68712M392.92686,203.83319l0.90662,0.38174c-0.08271,0.20995 -0.17178,0.44027 -0.26721,0.69094c-0.09543,0.25195 -0.19532,0.49562 -0.29966,0.73102c-0.10561,0.2354 -0.2125,0.44854 -0.32066,0.63941l-0.95434,-0.44854c0.12088,-0.17814 0.23858,-0.38174 0.35311,-0.61078c0.11452,-0.22904 0.22268,-0.46317 0.32448,-0.70239c0.1018,-0.23795 0.18769,-0.46508 0.25767,-0.6814zM405.66728,198.46026h4.19909v0.95434h-4.19909v-0.95434M405.23783,200.74113h5.14389v0.95434h-5.14389v-0.95434M407.15605,201.2183h1.04023v4.29452c0,0.26085 -0.02736,0.4689 -0.08207,0.62414c-0.05344,0.15651 -0.16605,0.2793 -0.33784,0.36837c-0.16542,0.08271 -0.3671,0.13488 -0.60505,0.15651c-0.23922,0.0229 -0.52107,0.03436 -0.84554,0.03436c-0.01272,-0.15269 -0.04772,-0.32956 -0.10498,-0.53061c-0.05726,-0.19977 -0.12088,-0.37601 -0.19087,-0.5287c0.20995,0.00636 0.40591,0.01082 0.58787,0.01336c0.18069,0.00382 0.30284,0.00573 0.36647,0.00573c0.06362,-0.00636 0.10816,-0.01909 0.13361,-0.03817c0.02545,-0.01909 0.03817,-0.06044 0.03817,-0.12406v-4.27544M408.60665,202.87885l0.84936,-0.2863c0.14633,0.31811 0.28757,0.65659 0.42373,1.01542c0.13742,0.3601 0.25894,0.71003 0.36456,1.04977c0.10434,0.34102 0.1756,0.64195 0.21377,0.9028l-0.92571,0.34356c-0.03817,-0.26721 -0.10307,-0.5726 -0.19469,-0.91617c-0.09289,-0.34356 -0.20296,-0.69985 -0.3302,-1.06886c-0.12724,-0.36901 -0.26085,-0.71575 -0.40082,-1.04023M405.715,202.63072l0.92571,0.20995c-0.09543,0.36901 -0.20995,0.73802 -0.34356,1.10703c-0.13361,0.36901 -0.27803,0.71703 -0.43327,1.04405c-0.15651,0.32829 -0.31748,0.6165 -0.4829,0.86463c-0.05726,-0.0509 -0.13488,-0.11007 -0.23286,-0.17751c-0.09925,-0.06617 -0.19977,-0.13106 -0.30157,-0.19469c-0.1018,-0.06362 -0.19087,-0.11452 -0.26721,-0.15269c0.24813,-0.3372 0.47081,-0.74757 0.66804,-1.2311c0.19723,-0.48353 0.35311,-0.97343 0.46763,-1.46968M401.57317,199.74862h3.5406v0.95434h-3.5406v-0.95434M402.93787,197.8304h1.02114v8.90398h-1.02114v-8.90398M402.81381,200.38802l0.62986,0.20041c-0.06998,0.36265 -0.15588,0.73929 -0.25767,1.12994c-0.1018,0.39192 -0.2195,0.77683 -0.35311,1.15475c-0.13361,0.37919 -0.27803,0.7323 -0.43327,1.05932c-0.15651,0.32829 -0.31748,0.61014 -0.4829,0.84554c-0.03181,-0.09543 -0.07762,-0.20359 -0.13742,-0.32448c-0.06108,-0.12088 -0.12661,-0.24177 -0.19659,-0.36265c-0.06998,-0.12088 -0.13679,-0.22268 -0.20041,-0.30539c0.20995,-0.26085 0.40909,-0.58215 0.59742,-0.96388c0.18705,-0.38174 0.35247,-0.78765 0.49626,-1.21774c0.14251,-0.42882 0.25513,-0.83409 0.33784,-1.21583M403.9113,200.86519c0.05726,0.06362 0.14824,0.1686 0.27294,0.31493c0.12343,0.14633 0.2564,0.30857 0.39891,0.48671c0.14379,0.17814 0.27485,0.34038 0.39319,0.48671c0.11707,0.14633 0.20105,0.25131 0.25195,0.31493l-0.56306,0.81119c-0.05726,-0.12724 -0.13997,-0.27994 -0.24813,-0.45808c-0.10816,-0.17814 -0.22268,-0.36456 -0.34356,-0.55924c-0.12088,-0.19341 -0.23731,-0.37283 -0.34929,-0.53825c-0.1107,-0.16542 -0.20423,-0.29903 -0.28058,-0.40082zM413.52149,201.97223h3.91279v0.83982h-3.91279v-0.83982M412.36674,198.61295h2.96799v0.82073h-2.96799v-0.82073M416.15547,198.61295h3.56923v0.82073h-3.56923v-0.82073M412.45263,197.76359l0.95434,0.24813c-0.12088,0.34356 -0.26403,0.68394 -0.42945,1.02114c-0.16542,0.3372 -0.34165,0.65531 -0.5287,0.95434c-0.18832,0.29903 -0.3811,0.56306 -0.57833,0.7921c-0.05726,-0.05726 -0.13806,-0.12088 -0.2424,-0.19087c-0.10561,-0.06998 -0.2125,-0.13679 -0.32066,-0.20041c-0.10816,-0.06362 -0.20041,-0.11452 -0.27676,-0.15269c0.29903,-0.29903 0.57451,-0.66995 0.82646,-1.11276c0.25067,-0.44154 0.44918,-0.89453 0.59551,-1.35898M416.27953,197.76359l0.96388,0.22904c-0.14633,0.40082 -0.3372,0.78701 -0.5726,1.15857c-0.2354,0.37283 -0.47717,0.68649 -0.7253,0.94098c-0.06362,-0.05726 -0.14633,-0.11961 -0.24813,-0.18705c-0.1018,-0.06617 -0.20487,-0.13297 -0.30921,-0.20041c-0.10561,-0.06617 -0.19659,-0.12152 -0.27294,-0.16605c0.24813,-0.21632 0.47526,-0.48353 0.6814,-0.80164c0.20741,-0.31811 0.36837,-0.64259 0.4829,-0.97343M412.88208,199.28099l0.86845,-0.22904c0.13361,0.19087 0.26276,0.40718 0.38746,0.64895c0.12343,0.24177 0.21059,0.45172 0.26149,0.62986l-0.91617,0.26721c-0.04454,-0.17814 -0.12534,-0.39001 -0.2424,-0.63559c-0.11834,-0.24431 -0.23795,-0.47144 -0.35883,-0.6814M416.99528,199.2619l0.91617,-0.19087c0.16542,0.19087 0.33084,0.41037 0.49626,0.65849c0.16542,0.24813 0.28948,0.46763 0.37219,0.65849l-0.98297,0.20995c-0.06998,-0.17814 -0.18005,-0.39319 -0.3302,-0.64513c-0.14888,-0.25067 -0.30602,-0.48099 -0.47144,-0.69094M415.99323,200.25442c0.20995,0.20359 0.46445,0.39764 0.76347,0.58215c0.29903,0.18451 0.62859,0.35756 0.9887,0.51916c0.35883,0.16287 0.73102,0.30602 1.11658,0.42945c0.38428,0.1247 0.76411,0.2284 1.13948,0.31111c-0.10816,0.09543 -0.22141,0.22586 -0.33974,0.39128c-0.11707,0.16542 -0.21059,0.31175 -0.28058,0.439c-0.3881,-0.1018 -0.77301,-0.23222 -1.15475,-0.39128c-0.38174,-0.15906 -0.7552,-0.34229 -1.12039,-0.5497c-0.36647,-0.20614 -0.70748,-0.42691 -1.02305,-0.66231c-0.3143,-0.2354 -0.58914,-0.48035 -0.82455,-0.73484l0.73484,-0.33402M415.43971,199.73907l0.82073,0.41037c-0.36901,0.43263 -0.80483,0.82709 -1.30744,1.18338c-0.50262,0.35629 -1.03832,0.6744 -1.60711,0.95434c-0.57006,0.27994 -1.14457,0.51534 -1.72354,0.70621c-0.06362,-0.12088 -0.15142,-0.25767 -0.2634,-0.41037c-0.1107,-0.15269 -0.22332,-0.27994 -0.33784,-0.38174c0.55352,-0.15906 1.11021,-0.35947 1.67009,-0.60123c0.55988,-0.24177 1.08031,-0.52043 1.5613,-0.836c0.47971,-0.3143 0.87545,-0.65595 1.1872,-1.02496M411.36468,205.59871h8.32183v0.90662h-8.32183v-0.90662M417.82556,203.06972l0.92571,0.25767c-0.13361,0.34356 -0.28757,0.69794 -0.4619,1.06313c-0.1756,0.36647 -0.35438,0.71639 -0.53634,1.04977c-0.18069,0.33466 -0.35374,0.63241 -0.51916,0.89326c-0.06998,-0.0509 -0.15588,-0.10816 -0.25767,-0.17178c-0.1018,-0.06362 -0.20487,-0.12597 -0.30921,-0.18705c-0.10561,-0.05981 -0.19977,-0.10879 -0.28248,-0.14697c0.17814,-0.22904 0.35501,-0.49816 0.53061,-0.80737c0.17433,-0.30793 0.34102,-0.6305 0.50007,-0.9677c0.15906,-0.3372 0.29585,-0.66486 0.41037,-0.98297M414.71441,203.31784l0.81119,-0.29585c0.11452,0.18451 0.22586,0.38619 0.33402,0.60505c0.10816,0.22013 0.20868,0.43327 0.30157,0.63941c0.09162,0.20741 0.15969,0.39382 0.20423,0.55924l-0.8589,0.35311c-0.04454,-0.16542 -0.10816,-0.35501 -0.19087,-0.56879c-0.08271,-0.2125 -0.17687,-0.432 -0.28248,-0.65849c-0.10434,-0.22522 -0.21059,-0.43645 -0.31875,-0.63368M412.33811,203.54689l0.82073,-0.36265c0.13361,0.17178 0.26403,0.35947 0.39128,0.56306c0.12724,0.20359 0.24686,0.40209 0.35883,0.59551c0.1107,0.19469 0.19469,0.36837 0.25195,0.52107l-0.86845,0.41991c-0.05726,-0.15269 -0.13679,-0.32956 -0.23858,-0.53061c-0.1018,-0.19977 -0.21441,-0.40464 -0.33784,-0.61459c-0.1247,-0.20995 -0.25067,-0.40718 -0.37792,-0.59169z" fill="#ffffff" fill-rule="nonzero" stroke-width="1"/><path d="M249.1748,209.37026h8.31229v0.9448h-8.31229v-0.9448M252.65814,209.83789l1.17384,0.15269c-0.12088,0.30539 -0.25258,0.60441 -0.3951,0.89708c-0.14379,0.29266 -0.27612,0.54397 -0.397,0.75393l-0.88754,-0.18132c0.06362,-0.15269 0.12915,-0.32448 0.19659,-0.51534c0.06617,-0.19087 0.12661,-0.38364 0.18132,-0.57833c0.05344,-0.19341 0.09607,-0.36965 0.12788,-0.5287M252.7822,212.65319h1.06886v1.7369c0,0.26721 -0.03499,0.53252 -0.10498,0.79592c-0.06998,0.26467 -0.19405,0.52107 -0.37219,0.7692c-0.17814,0.24813 -0.42754,0.4848 -0.7482,0.71003c-0.32193,0.2265 -0.7342,0.43518 -1.23682,0.62605c-0.50262,0.19087 -1.1134,0.36583 -1.83233,0.52489c-0.03817,-0.07635 -0.09225,-0.16542 -0.16224,-0.26721c-0.06998,-0.1018 -0.14633,-0.2055 -0.22904,-0.31111c-0.08271,-0.10434 -0.16224,-0.18832 -0.23858,-0.25195c0.6744,-0.12724 1.23937,-0.26912 1.69491,-0.42564c0.45427,-0.15524 0.82582,-0.32066 1.11467,-0.49626c0.29012,-0.17433 0.51025,-0.35565 0.6604,-0.54397c0.14888,-0.18705 0.25067,-0.37792 0.30539,-0.5726c0.05344,-0.19341 0.08016,-0.38555 0.08016,-0.57642v-1.71781M253.65065,216.03155l0.58215,-0.69667c0.26721,0.10816 0.55352,0.23222 0.8589,0.37219c0.30539,0.13997 0.61269,0.2863 0.92189,0.439c0.30793,0.15269 0.59551,0.30348 0.86272,0.45236c0.26721,0.15015 0.49626,0.28885 0.68712,0.41609l-0.63941,0.81119c-0.17178,-0.13361 -0.38619,-0.27867 -0.64322,-0.43518c-0.25831,-0.15524 -0.53825,-0.3143 -0.83982,-0.47717c-0.30284,-0.1616 -0.60696,-0.31875 -0.91235,-0.47144c-0.30539,-0.15269 -0.59805,-0.28948 -0.87799,-0.41037M249.99554,211.25985h6.71855v4.41859h-1.09749v-3.47379h-4.57128v3.50242h-1.04977z" fill="#ffffff" fill-rule="nonzero" stroke-width="1"/></g></g></svg>