<svg version="1.1" xmlns="http://www.w3.org/2000/svg" xmlns:xlink="http://www.w3.org/1999/xlink" width="135.6039" height="48" viewBox="0,0,135.6039,48"><g transform="translate(-130,-156)"><g fill-rule="evenodd" stroke-miterlimit="10"><path d="M136.16381,156h123.27627c3.41475,0 6.16381,4.46 6.16381,10v28c0,5.54 -2.74906,10 -6.16381,10h-123.27627c-3.41475,0 -6.16381,-4.46 -6.16381,-10v-28c0,-5.54 2.74906,-10 6.16381,-10z" fill="#e4e600" stroke="none" stroke-width="1" stroke-linecap="butt"/><path d="M150.7017,171.29474v2.54991h4.22557v1.07825h-4.22557v2.88504h-1.13653v-13.28868h1.13653v2.20021h3.84672v1.04911h-3.84672v2.46249h3.58445v1.06368zM142.43999,167.76858v-1.04911h3.83215v-2.08364h1.13653v13.11383h-1.13653v-2.82676h-4.211v-1.07825h4.211v-2.54991h-3.56987v-1.06368h3.56987v-2.46249z" fill="#000000" stroke="#000000" stroke-width="0.4" stroke-linecap="round"/><path d="M163.71353,175.70973l0.02914,0.42256l-1.04911,0.13114v1.58823h-0.97625v-1.45709c-2.74905,0.32056 -4.38099,0.52455 -4.89583,0.61198l-0.102,-0.93254l0.75769,-0.08743l0.49541,-0.05828v-5.09982h-1.2531v-0.88883h12.73498v0.88883h-6.76091v4.51698l0.99082,-0.13114zM169.49818,176.71512l-0.42256,0.99082c-1.1851,-0.45656 -2.16621,-0.99082 -2.94333,-1.6028c-0.71883,0.61198 -1.6028,1.16082 -2.65191,1.64651l-0.48084,-0.93254c0.96168,-0.36913 1.77279,-0.82083 2.43334,-1.3551c-0.35942,-0.37884 -0.6824,-0.79897 -0.96897,-1.26038c-0.28656,-0.46141 -0.56098,-0.98839 -0.82326,-1.58094v-0.9034h4.95411v0.97625c-0.40799,1.02968 -0.98111,1.93793 -1.71937,2.72476c0.66055,0.4857 1.5348,0.91797 2.62277,1.29681zM158.48257,169.07996v-4.12357h9.20882v4.12357zM166.65686,167.4043h-7.13975v0.83054h7.13975zM159.51711,166.63204h7.13975v-0.81597h-7.13975zM167.4874,172.62069h-2.78305c0.37884,0.87426 0.85968,1.6028 1.44252,2.18564c0.59255,-0.64112 1.03939,-1.36967 1.34052,-2.18564zM158.96341,174.55862v1.2531l2.7539,-0.33513v-0.91797zM161.71731,173.78636v-1.09282h-2.7539v1.09282zM158.96341,171.92129h2.7539v-1.09282h-2.7539z" fill="#000000" stroke="#000000" stroke-width="0.4" stroke-linecap="round"/><path d="M177.77447,171.79015v0.99082h-2.54991v3.42417c0,0.35942 -0.04371,0.63383 -0.13114,0.82326c-0.08743,0.18942 -0.24042,0.32542 -0.45898,0.40799c-0.21856,0.08257 -0.5367,0.12385 -0.9544,0.12385h-0.85968l-0.20399,-1.04911h0.77226c0.2817,0 0.47841,-0.01943 0.59012,-0.05828c0.11171,-0.03886 0.18214,-0.10685 0.21128,-0.20399c0.02914,-0.09714 0.04371,-0.27199 0.04371,-0.52455v-2.94333h-2.73933v-0.99082h2.73933v-1.57366h-3.01618v-0.96168h1.79222c-0.01943,-0.09714 -0.136,-0.74312 -0.3497,-1.93793l-0.08743,-0.40799h-0.91797v-0.94711h2.60819l-0.4517,-1.41338l1.04911,-0.17485c0.17485,0.4857 0.33513,1.01511 0.48084,1.58823h2.34592v0.94711h-0.81597c-0.12628,0.63141 -0.3157,1.41338 -0.56827,2.34592h1.71937v0.96168h-2.79762v1.57366zM179.68326,169.54623h4.41499v1.04911h-1.57366v7.13975h-1.00539v-7.13975h-1.83594v0.02914c0,1.2531 -0.04128,2.27549 -0.12385,3.06718c-0.08257,0.79169 -0.23071,1.5008 -0.44441,2.12735c-0.21371,0.62655 -0.52455,1.27981 -0.93254,1.95979l-1.04911,-0.52455c0.40799,-0.61198 0.7164,-1.21181 0.92525,-1.79951c0.20885,-0.58769 0.35456,-1.26524 0.43713,-2.03264c0.08257,-0.7674 0.12385,-1.76794 0.12385,-3.00161v-4.48784c0.85483,-0.07771 1.7218,-0.21128 2.60091,-0.4007c0.87911,-0.18942 1.62466,-0.4007 2.23664,-0.63383l0.33513,1.03454c-0.51484,0.21371 -1.14867,0.41041 -1.9015,0.59012c-0.75283,0.17971 -1.48866,0.30842 -2.20749,0.38613zM172.60179,173.29095l0.85968,0.3497c-0.45656,1.19482 -0.97625,2.22449 -1.55909,3.08903l-0.8014,-0.49541c0.29142,-0.39827 0.55369,-0.8354 0.78683,-1.31138c0.23313,-0.47598 0.47113,-1.01996 0.71397,-1.63194zM175.93853,166.90889h-2.44791c0.23313,1.08796 0.38856,1.86993 0.46627,2.34592h1.38424c0.17485,-0.60226 0.37399,-1.38424 0.59741,-2.34592zM175.63254,173.87379l0.72855,-0.53912c0.35942,0.4857 0.83054,1.16082 1.41338,2.02536l-0.75769,0.58284c-0.51484,-0.80626 -0.97625,-1.49595 -1.38424,-2.06907z" fill="#000000" stroke="#000000" stroke-width="0.4" stroke-linecap="round"/><path d="M198.59631,176.7734l-0.55369,0.97625c-1.01025,-0.74797 -1.85536,-1.54937 -2.53534,-2.4042c-0.70912,0.8354 -1.69994,1.69508 -2.97247,2.57905l-0.65569,-0.87426c1.30167,-0.86454 2.3022,-1.72908 3.00161,-2.59362c-0.80626,-1.28224 -1.39395,-2.86076 -1.76308,-4.73555h-0.30599v0.05828c0,1.19482 -0.05343,2.21235 -0.16028,3.05261c-0.10685,0.84026 -0.28413,1.61737 -0.53184,2.33135c-0.24771,0.71397 -0.59498,1.46923 -1.04182,2.26578l-0.87426,-0.62655c0.62169,-1.05882 1.04911,-2.10307 1.28224,-3.13275c0.23313,-1.02968 0.3497,-2.35563 0.3497,-3.97786v-3.87586c0.97139,-0.068 2.01321,-0.18456 3.12546,-0.3497c1.11225,-0.16514 2.17835,-0.35942 3.19832,-0.58284l0.20399,1.10739c-0.8354,0.18456 -1.74851,0.35456 -2.73933,0.50998c-0.99082,0.15542 -1.92822,0.27685 -2.81219,0.36427v1.82136h5.21639v1.07825c-0.21371,1.00054 -0.47113,1.88693 -0.77226,2.65919c-0.30113,0.77226 -0.67512,1.47895 -1.12196,2.12007c0.61198,0.80626 1.43281,1.54937 2.46249,2.22935zM187.79926,169.70651v1.19482v0.64112h2.36049v6.10521h-1.00539v-5.05611h-1.38424c-0.02914,1.17539 -0.11657,2.17107 -0.26228,2.98704c-0.14571,0.81597 -0.37884,1.59794 -0.6994,2.34592l-0.97625,-0.61198c0.27199,-0.56341 0.47355,-1.1341 0.60469,-1.71208c0.13114,-0.57798 0.22099,-1.24824 0.26956,-2.01079c0.04857,-0.76254 0.07285,-1.78008 0.07285,-3.05261v-5.72637h1.01996v3.93415h1.26767v-4.18185h0.99082v4.18185h0.97625v0.96168zM196.97894,169.72108h-2.89961c0.36913,1.59309 0.84511,2.8899 1.42795,3.89043c0.33999,-0.53427 0.62898,-1.1171 0.86697,-1.74851c0.23799,-0.63141 0.43956,-1.34538 0.60469,-2.14192z" fill="#000000" stroke="#000000" stroke-width="0.4" stroke-linecap="round"/><path d="M212.83209,168.03085h-4.67726c0.55369,1.33081 1.25067,2.52805 2.09093,3.59173c0.84026,1.06368 1.87722,2.11035 3.11089,3.14003l-0.78683,1.04911c-1.14625,-0.99082 -2.16864,-2.10064 -3.06718,-3.32945c-0.89854,-1.22881 -1.61494,-2.53291 -2.14921,-3.91229v5.63895h2.92875v1.09282h-2.92875v2.56448h-1.13653v-2.56448h-2.89961v-1.09282h2.89961v-5.77008c-0.53427,1.37938 -1.21424,2.65434 -2.03993,3.82487c-0.82569,1.17053 -1.89422,2.39206 -3.2056,3.66459l-0.75769,-1.00539c1.26281,-1.13653 2.30463,-2.24149 3.12546,-3.31488c0.82083,-1.07339 1.50809,-2.26578 2.06178,-3.57716h-4.64812v-1.12196h5.46409v-2.38963h1.13653v2.38963h5.47866z" fill="#000000" stroke="#000000" stroke-width="0.4" stroke-linecap="round"/><path d="M154.1994,185.49144h-3.66211v1.05967h4.48803v0.88826h-9.9734v-0.88826h4.34778v-1.05967h-3.39719v-0.87267h3.39719v-1.01292h-3.86469v-0.88826h3.86469v-1.16876h1.13759v1.16876h4.0517v0.88826h-4.0517v1.01292h3.66211zM147.2336,195.55834h-1.12201v-7.07488h7.72939v5.51654c0,0.55062 -0.11947,0.93241 -0.35842,1.14538c-0.23895,0.21297 -0.67009,0.31946 -1.29343,0.31946h-1.65185l-0.17142,-0.88826h1.46484c0.2805,0 0.48309,-0.02338 0.60775,-0.07013c0.12467,-0.04675 0.20258,-0.11947 0.23375,-0.21817c0.03117,-0.0987 0.04675,-0.25713 0.04675,-0.4753v-0.57659h-5.48537zM143.83641,186.58228v6.4983l1.35576,-1.26226l0.26492,1.24668l-2.47777,2.18168l-0.70126,-0.87267c0.15583,-0.14545 0.26752,-0.2857 0.33504,-0.42075c0.06753,-0.13506 0.10129,-0.29089 0.10129,-0.4675v-5.78146h-1.48043v-1.12201zM147.2336,190.43139h5.48537v-1.01292h-5.48537zM152.71897,191.33523h-5.48537v0.99734h5.48537zM144.8805,184.66551l-0.98176,0.67009c-0.21817,-0.36361 -0.50906,-0.82592 -0.87267,-1.38693c-0.36361,-0.561 -0.69087,-1.04929 -0.98176,-1.46484l0.91942,-0.62334c0.22856,0.30128 0.53243,0.72982 0.91163,1.28563c0.3792,0.55581 0.71424,1.06227 1.00513,1.51939z" fill="#000000" stroke="#000000" stroke-width="0.4" stroke-linecap="round"/><path d="M164.21956,193.15849v1.10642h6.24896v0.93501h-13.60435v-0.93501h6.21779v-1.10642h-5.20487v-0.87267h5.20487v-1.09084h-4.65945v-4.78412h4.65945v-1.09084h-6.20221v-0.91942h6.20221v-1.23109c-2.21285,0.0935 -3.92703,0.14545 -5.14254,0.15583l-0.04675,-1.01292c1.61029,-0.02078 3.54004,-0.07792 5.78925,-0.17142c2.24921,-0.0935 4.09065,-0.1922 5.52433,-0.29609l0.15583,0.99734c-1.61029,0.11428 -3.32447,0.20778 -5.14254,0.2805v1.27784h6.23338v0.91942h-6.23338v1.09084h4.69062v4.78412h-4.69062v1.09084h5.25162v0.87267zM164.21956,188.37437h3.55303v-1.07526h-3.55303zM167.77258,189.23146h-3.55303v1.05967h3.55303zM159.56011,188.37437h3.52186v-1.07526h-3.52186zM163.08196,189.23146h-3.52186v1.05967h3.52186z" fill="#000000" stroke="#000000" stroke-width="0.4" stroke-linecap="round"/><path d="M179.36666,189.2938v1.05967h-2.7271v3.66211c0,0.38439 -0.04675,0.67788 -0.14025,0.88046c-0.0935,0.20258 -0.25713,0.34803 -0.49088,0.43634c-0.23375,0.08831 -0.57399,0.13246 -1.02072,0.13246h-0.91942l-0.21817,-1.12201h0.82592c0.30128,0 0.51166,-0.02078 0.63113,-0.06233c0.11947,-0.04156 0.19479,-0.11428 0.22596,-0.21817c0.03117,-0.10389 0.04675,-0.29089 0.04675,-0.561v-3.14786h-2.92969v-1.05967h2.92969v-1.68301h-3.22577v-1.02851h1.91676c-0.02078,-0.10389 -0.14545,-0.79476 -0.374,-2.0726l-0.0935,-0.43634h-0.98176v-1.01292h2.78944l-0.48309,-1.51159l1.12201,-0.187c0.187,0.51945 0.35842,1.08565 0.51425,1.6986h2.50893v1.01292h-0.87267c-0.13506,0.67528 -0.33764,1.51159 -0.60775,2.50893h1.83885v1.02851h-2.99202v1.68301zM181.4081,186.89395h4.72178v1.12201h-1.68301v7.63589h-1.07526v-7.63589h-1.96351v0.03117c0,1.34018 -0.04415,2.43361 -0.13246,3.28032c-0.08831,0.8467 -0.24674,1.60509 -0.4753,2.27518c-0.22856,0.67009 -0.561,1.36875 -0.99734,2.09597l-1.12201,-0.561c0.43634,-0.6545 0.76619,-1.29602 0.98955,-1.92456c0.22336,-0.62853 0.3792,-1.35316 0.4675,-2.17389c0.08831,-0.82073 0.13246,-1.89079 0.13246,-3.21019v-4.7997c0.91423,-0.08311 1.84144,-0.22596 2.78164,-0.42854c0.9402,-0.20258 1.73755,-0.42854 2.39206,-0.67788l0.35842,1.10642c-0.55062,0.22856 -1.2285,0.43893 -2.03364,0.63113c-0.80514,0.1922 -1.59211,0.32985 -2.36089,0.41296zM173.83454,190.89889l0.91942,0.374c-0.48828,1.27784 -1.04409,2.37907 -1.66743,3.30369l-0.85709,-0.52984c0.31167,-0.42595 0.59217,-0.89345 0.84151,-1.40251c0.24934,-0.50906 0.50386,-1.09084 0.76359,-1.74535zM177.40315,184.07334h-2.61802c0.24934,1.16356 0.41556,1.99988 0.49867,2.50893h1.48043c0.187,-0.64412 0.39997,-1.48043 0.63892,-2.50893zM177.0759,191.52223l0.77917,-0.57659c0.38439,0.51945 0.88826,1.24148 1.51159,2.1661l-0.81034,0.62334c-0.55062,-0.86228 -1.04409,-1.5999 -1.48043,-2.21285z" fill="#000000" stroke="#000000" stroke-width="0.4" stroke-linecap="round"/><path d="M196.13445,183.10717h4.7062v4.53478h-9.98899c-0.02078,1.54796 -0.17921,2.87515 -0.4753,3.98157c-0.29609,1.10642 -0.80255,2.36089 -1.51939,3.7634l-1.01292,-0.73242c0.47789,-0.91423 0.8441,-1.73236 1.09863,-2.45439c0.25453,-0.72203 0.43893,-1.49341 0.55321,-2.31414c0.11428,-0.82073 0.17142,-1.81287 0.17142,-2.97644v-3.80236h5.15812c-0.187,-0.51945 -0.3792,-1.04409 -0.57659,-1.57393l1.19993,-0.24934zM192.72168,194.81034v0.96617h-1.19993v-6.15546h9.02281v6.15546h-1.21551v-0.96617zM190.85166,184.19801v2.33752h8.78906v-2.33752zM192.72168,193.76625h6.60738v-3.03877h-6.60738z" fill="#000000" stroke="#000000" stroke-width="0.4" stroke-linecap="round"/><path d="M213.04249,184.4941h3.64653c-0.03117,1.09084 -0.07532,2.53491 -0.13246,4.3322c-0.05714,1.79729 -0.11168,3.28811 -0.16363,4.47245c-0.02078,0.48828 -0.10129,0.87008 -0.24154,1.14538c-0.14025,0.27531 -0.36102,0.4701 -0.6623,0.58438c-0.30128,0.11428 -0.71684,0.17142 -1.24668,0.17142h-1.63626l-0.23375,-1.15317h1.40251c0.40517,0 0.70905,-0.03636 0.91163,-0.10908c0.20258,-0.07272 0.34803,-0.19999 0.43634,-0.38179c0.08831,-0.18181 0.14285,-0.45971 0.16363,-0.83371c0.03117,-0.42595 0.07532,-1.47523 0.13246,-3.14786c0.05714,-1.67262 0.10129,-2.97644 0.13246,-3.91144h-2.5401c-0.07272,2.00507 -0.17661,3.54004 -0.31167,4.60491c-0.13506,1.06487 -0.38179,2.01286 -0.74021,2.84398c-0.35842,0.83112 -0.91683,1.72976 -1.67522,2.69594l-1.04409,-0.71684c0.73762,-0.88306 1.28044,-1.696 1.62847,-2.43881c0.34803,-0.74281 0.59477,-1.62587 0.74021,-2.64919c0.14545,-1.02331 0.24414,-2.46998 0.29609,-4.33999h-1.6986v-1.16876h1.71418l0.06233,-3.02319h1.10642c0,0.70645 -0.01558,1.71418 -0.04675,3.02319zM210.2063,193.59483l-1.02851,0.52984l-0.26492,-0.73242l-4.93995,0.54542l-0.187,-0.99734c0.42595,-0.72723 0.83631,-1.56354 1.23109,-2.50893c0.39478,-0.9454 0.71164,-1.83885 0.95059,-2.68035h-2.36868v-1.10642h6.56063v1.10642h-3.0076c-0.21817,0.74801 -0.52724,1.63107 -0.92721,2.64919c-0.39997,1.01812 -0.74021,1.7921 -1.02072,2.32193l3.31927,-0.34284c-0.40517,-1.11162 -0.78437,-2.0726 -1.13759,-2.88294l1.02851,-0.38959c0.40517,0.95578 1.00254,2.4518 1.7921,4.48803zM204.25343,183.83959v-1.15317h5.42304v1.15317z" fill="#000000" stroke="#000000" stroke-width="0.4" stroke-linecap="round"/><path d="M219.13562,188.82629v-1.35576h13.66668v1.35576z" fill="#000000" stroke="#000000" stroke-width="0.4" stroke-linecap="round"/><path d="M248.43249,194.62334l-0.71684,1.13759c-2.29596,-1.46484 -3.83353,-3.23616 -4.6127,-5.31395c-0.36361,1.0389 -0.9454,1.99728 -1.74535,2.87515c-0.79995,0.87787 -1.84924,1.70639 -3.14786,2.48556l-0.74801,-1.07526c1.20512,-0.70645 2.1635,-1.4129 2.87515,-2.11935c0.71164,-0.70645 1.2285,-1.47264 1.55055,-2.29856c0.32206,-0.82592 0.48828,-1.7843 0.49867,-2.87515l0.01558,-1.41809h1.18434l-0.01558,1.52718c0,0.14545 -0.00519,0.25453 -0.01558,0.32725c0.17661,1.43368 0.67269,2.70892 1.48822,3.82574c0.81553,1.11681 1.94533,2.09078 3.3894,2.9219zM246.65598,185.1486h-5.34512c-0.50906,1.09084 -1.07526,2.10896 -1.6986,3.05436l-1.01292,-0.67009c1.21551,-1.75573 2.1661,-3.77639 2.85177,-6.06196l1.18434,0.24934c-0.21817,0.72723 -0.48828,1.48043 -0.81034,2.2596h6.07754v1.13759l-1.54276,3.33486l-1.02851,-0.49867zM237.10333,188.53021l0.49867,0.14025l0.6545,0.20258l-2.18168,6.32688l-1.19993,-0.48309c0.16622,-0.42595 0.55321,-1.47264 1.16097,-3.14006c0.60775,-1.66743 0.96358,-2.68295 1.06747,-3.04656zM238.4435,185.91219l-1.09084,0.60775c-0.25972,-0.49867 -0.60775,-1.13499 -1.04409,-1.90897c-0.43634,-0.77398 -0.82073,-1.44147 -1.15317,-2.00247l1.01292,-0.561c1.00773,1.61029 1.76612,2.89852 2.27518,3.86469z" fill="#000000" stroke="#000000" stroke-width="0.4" stroke-linecap="round"/></g></g></svg>