<svg version="1.1" xmlns="http://www.w3.org/2000/svg" xmlns:xlink="http://www.w3.org/1999/xlink" width="192" height="24" viewBox="0,0,192,24"><g transform="translate(-143.99995,-168)"><g stroke-miterlimit="10"><path d="M143.99995,192v-24h192v24z" fill="none" fill-rule="nonzero" stroke="none" stroke-width="1" stroke-linecap="butt"/><path d="M224.65458,178.20459h6.5525v1.16625h-6.7213c-0.31714,1.62662 -0.9284,3.03072 -1.83378,4.21232c-0.90538,1.1816 -2.21741,2.3146 -3.9361,3.39901l-0.78262,-1.07418c1.54477,-0.9105 2.72893,-1.87981 3.55247,-2.90796c0.82354,-1.02814 1.38876,-2.23787 1.69567,-3.62919h-5.14072v-1.16625h5.34021c0.07161,-0.51151 0.11253,-0.98722 0.12276,-1.42712l0.06138,-1.76472h-4.63432v-1.13556h11.37096v1.13556h-5.49366l-0.01535,0.61382c-0.01023,0.22507 -0.01535,0.44757 -0.01535,0.66753c0,0.21995 -0.00512,0.41177 -0.01535,0.57545c-0.01023,0.31714 -0.04604,0.76216 -0.10742,1.33505zM229.87202,182.13301l1.24298,0.24553l-0.09207,2.3325c-0.02046,0.45013 -0.09719,0.80052 -0.23018,1.05116c-0.13299,0.25064 -0.35294,0.43479 -0.65985,0.55244c-0.30691,0.11765 -0.73146,0.17647 -1.27367,0.17647h-2.1944c-0.66497,0 -1.14579,-0.14834 -1.44247,-0.44502c-0.29668,-0.29668 -0.44502,-0.80308 -0.44502,-1.5192v-4.20465h1.21229v3.88239c0,0.40921 0.08184,0.69566 0.24553,0.85934c0.16368,0.16368 0.4399,0.24553 0.82865,0.24553h1.53454c0.47059,0 0.79029,-0.07417 0.95909,-0.22251c0.1688,-0.14834 0.25831,-0.43734 0.26854,-0.86702c0.01023,-0.28645 0.02046,-0.63428 0.03069,-1.04349c0.01023,-0.40921 0.01535,-0.75704 0.01535,-1.04349z" fill="#9c9c9c" fill-rule="evenodd" stroke="#9c9c9c" stroke-width="0.45" stroke-linecap="round"/><path d="M246.76733,185.89264l-0.65985,1.12022c-1.15602,-0.94119 -2.10744,-1.94887 -2.85425,-3.02305c-0.6752,0.94119 -1.64196,1.95398 -2.90029,3.03839l-0.78262,-0.95142c1.3504,-1.06395 2.3632,-2.11767 3.03839,-3.16116c-0.64451,-1.2174 -1.09464,-2.63941 -1.3504,-4.26603c-0.16368,0.32737 -0.35806,0.6752 -0.58313,1.04349l-0.59847,-1.08953c0.4399,-0.73658 0.8619,-1.63173 1.266,-2.68545c0.4041,-1.05372 0.69822,-2.03583 0.88236,-2.94632l1.07418,0.19949c-0.14322,0.69566 -0.36317,1.47316 -0.65985,2.3325h4.09723v1.1816h-1.16625c-0.13299,1.37086 -0.32993,2.55757 -0.5908,3.56014c-0.26087,1.00257 -0.62149,1.91306 -1.08185,2.73149c0.71612,1.04349 1.67265,2.01537 2.86959,2.91563zM233.58561,180.42967l-0.46036,-0.93607c0.66497,-0.35806 1.24809,-0.71612 1.74938,-1.07418c0.50128,-0.35806 0.94119,-0.74681 1.31971,-1.16625h-2.82356v-0.96676h3.06908v-3.22254h1.04349v3.22254h2.99236v0.96676h-2.99236v0.30691c0.37852,0.19438 0.82865,0.4399 1.3504,0.73658c0.52174,0.29668 0.98211,0.57801 1.38109,0.844l-0.49105,0.90538c-0.61382,-0.47059 -1.36063,-0.97188 -2.24043,-1.50385v1.44247h-1.04349v-1.73403c-0.68543,0.74681 -1.63685,1.47316 -2.85425,2.17905zM239.8312,185.27883l-0.46036,1.0128l-0.64451,-0.35294l-1.28902,-0.69054c-0.92073,0.64451 -2.20463,1.22763 -3.8517,1.74938l-0.47571,-0.98211c1.46293,-0.46036 2.56269,-0.89003 3.29927,-1.28902c-0.96165,-0.48082 -1.72892,-0.84911 -2.30181,-1.10487c0.29668,-0.46036 0.56778,-0.94119 0.81331,-1.44247h-1.64196v-0.93607h2.08698c0.18415,-0.41944 0.3376,-0.80308 0.46036,-1.15091l1.04349,0.27622c-0.14322,0.38875 -0.25576,0.68031 -0.3376,0.87469h3.36065v0.89003c-0.20461,0.50128 -0.42967,0.94374 -0.6752,1.32738c-0.24553,0.38364 -0.53709,0.73914 -0.87469,1.06651zM244.49621,176.68539h-2.31716l-0.15345,0.36829c0.18415,1.90283 0.58824,3.48853 1.21229,4.75708c0.32737,-0.68543 0.5908,-1.44247 0.79029,-2.27112c0.19949,-0.82865 0.3555,-1.78007 0.46804,-2.85425zM238.75702,182.17905h-2.65476c-0.14322,0.30691 -0.32225,0.65985 -0.53709,1.05883c0.62405,0.26599 1.22763,0.54221 1.81076,0.82865c0.31714,-0.25576 0.58568,-0.53709 0.80563,-0.844c0.21995,-0.30691 0.41177,-0.65474 0.57545,-1.04349zM239.52429,173.41681l0.76727,0.52174c-0.45013,0.69566 -0.94119,1.39132 -1.47316,2.08698l-0.75193,-0.53709c0.22507,-0.28645 0.48082,-0.63428 0.76727,-1.04349c0.28645,-0.40921 0.51663,-0.75193 0.69054,-1.02814zM235.78001,175.45775l-0.76727,0.49105c-0.35806,-0.59336 -0.80819,-1.27367 -1.3504,-2.04094l0.70589,-0.49105c0.21484,0.28645 0.53197,0.7417 0.95142,1.36574z" fill="#9c9c9c" fill-rule="evenodd" stroke="#9c9c9c" stroke-width="0.45" stroke-linecap="round"/><path d="M262.06672,179.23273v1.0128h-3.28392v1.70334h2.45527v5.0333h-1.05883v-0.79796h-3.86705v0.81331h-1.05883v-5.04864h2.45527v-1.70334h-3.05374c-0.07161,1.4527 -0.24553,2.66755 -0.52174,3.64454c-0.27622,0.97699 -0.72635,1.96677 -1.3504,2.96934l-1.0128,-0.58313c0.49105,-0.79796 0.86446,-1.54989 1.12022,-2.25578c0.25576,-0.70589 0.43734,-1.50641 0.54476,-2.40156c0.10742,-0.89515 0.16113,-2.03327 0.16113,-3.41436v-4.38879h7.90289v3.80567h-2.71614v1.61127zM252.81343,179.43222l0.09207,0.53709c-0.59336,0.24553 -1.06395,0.45013 -1.41178,0.61382v4.57294c0,0.41944 -0.05115,0.73914 -0.15345,0.95909c-0.1023,0.21995 -0.27622,0.37341 -0.52174,0.46036c-0.24553,0.08696 -0.6087,0.13044 -1.08953,0.13044h-1.02814l-0.1688,-1.05883h0.92073c0.27622,0 0.48082,-0.02046 0.61382,-0.06138c0.13299,-0.04092 0.22251,-0.12021 0.26854,-0.23785c0.04604,-0.11765 0.06905,-0.29924 0.06905,-0.54476v-3.72894l-1.62662,0.73658l-0.24553,-1.16625l1.87214,-0.79796v-2.85425h-1.78007v-1.12022h1.78007v-2.80821h1.08953v2.80821h1.33505v1.12022h-1.33505v2.37854l1.21229,-0.53709zM254.68557,176.62401h5.69315v-1.79541h-5.69315zM256.31219,182.96167v2.25578h3.86705v-2.25578zM254.68557,178.34269v0.89003h3.02305v-1.61127h-3.02305z" fill="#9c9c9c" fill-rule="evenodd" stroke="#9c9c9c" stroke-width="0.45" stroke-linecap="round"/></g></g></svg>