<svg version="1.1" xmlns="http://www.w3.org/2000/svg" xmlns:xlink="http://www.w3.org/1999/xlink" width="58.5234" height="20.87451" viewBox="0,0,58.5234,20.87451"><g transform="translate(-240.25091,-169.86827)"><g fill="#ffffff" fill-rule="evenodd" stroke="#ffffff" stroke-width="0.5" stroke-linecap="round" stroke-miterlimit="10"><path d="M240.50091,189.20365v-1.80033h17.86736v1.80033zM241.64442,174.17865v-1.80033h15.55992v1.80033zM242.56331,181.26885v-1.77811h13.74255v1.77811z"/><path d="M275.97017,184.82506l1.61317,0.4223l-0.18378,2.73384c-0.04084,0.56307 -0.14975,1.00019 -0.32672,1.31135c-0.17697,0.31117 -0.46625,0.53343 -0.86784,0.66679c-0.40159,0.13336 -0.96994,0.20004 -1.70506,0.20004h-4.10439c-1.04822,0 -1.77993,-0.20745 -2.19513,-0.62234c-0.4152,-0.41489 -0.62281,-1.14836 -0.62281,-2.20041v-3.13391l-6.37099,0.51121l-0.08168,-1.62252l6.45267,-0.53343v-3.40063l-1.34771,0.15558c-0.50369,0.05927 -1.05162,0.12224 -1.6438,0.18892c-0.59218,0.06668 -1.20137,0.12965 -1.82758,0.18892l-0.16336,-1.57807c2.20534,-0.20745 4.5298,-0.46675 6.97338,-0.77792c2.44357,-0.31117 4.47535,-0.62234 6.09532,-0.93351l0.26546,1.55584c-1.61997,0.31117 -3.87977,0.64456 -6.77939,1.00019v3.48954l9.18893,-0.7557l0.08168,1.62252l-9.27061,0.7557v2.97833c0,0.5927 0.0987,0.98907 0.29609,1.18911c0.19739,0.20004 0.59558,0.30006 1.19456,0.30006h3.34885c0.5173,0 0.90188,-0.04075 1.15372,-0.12224c0.25185,-0.0815 0.43222,-0.22226 0.54113,-0.4223c0.10891,-0.20004 0.18378,-0.5075 0.22462,-0.92239c0.02723,-0.35562 0.04424,-0.7594 0.05105,-1.21134c0.00681,-0.45194 0.01021,-0.79644 0.01021,-1.03352zM276.43983,177.13475v-2.57826h-13.12996v2.55603h-1.49065v-4.20078h7.47366l-0.73511,-2.4449l1.65401,-0.31117l0.81679,2.75607h6.94275v4.223z"/><path d="M285.42456,173.93416v6.1567h13.08912l-0.3063,7.35692c-0.08168,1.12613 -0.35735,1.91517 -0.827,2.36711c-0.46966,0.45194 -1.22859,0.6779 -2.27681,0.6779h-2.34828l-0.28588,-1.57807h2.00114c0.54453,0 0.96654,-0.06668 1.26603,-0.20004c0.29949,-0.13336 0.5139,-0.3408 0.64323,-0.62234c0.12933,-0.28153 0.21441,-0.6742 0.25525,-1.178c0.04084,-0.66679 0.08508,-1.54843 0.13273,-2.64493c0.04765,-1.0965 0.08508,-1.97814 0.11231,-2.64493h-13.00744v-9.22393h3.96145l0.26546,-0.71124l0.53092,-1.51139l1.59275,0.20004l-0.26546,0.77792c-0.14975,0.47416 -0.28588,0.88905 -0.4084,1.24467h7.04485c-0.12252,2.31154 -0.19739,3.60808 -0.22462,3.88961c-0.06807,0.71124 -0.19399,1.2632 -0.37777,1.65586c-0.18378,0.39266 -0.46285,0.6742 -0.83721,0.8446c-0.37436,0.1704 -0.89507,0.2556 -1.56212,0.2556h-1.75611l-0.28588,-1.42249h1.59275c0.6126,0 1.03461,-0.10743 1.26603,-0.32228c0.23143,-0.21485 0.36756,-0.58159 0.4084,-1.1002l0.1021,-1.11132c0.04084,-0.44453 0.06807,-0.82978 0.08168,-1.15577zM292.40815,186.6254v-3.33395h1.49065v4.84534h-11.37385v-4.84534h1.49065v3.33395h3.41011v-4.08965h1.59275v4.08965zM291.10128,177.26811l-0.93931,1.22245c-1.52468,-1.31876 -2.61374,-2.23004 -3.26717,-2.73384l0.89847,-1.22245c0.58537,0.45934 1.68804,1.37062 3.30801,2.73384z"/></g></g></svg>