<svg version="1.1" xmlns="http://www.w3.org/2000/svg" xmlns:xlink="http://www.w3.org/1999/xlink" width="208" height="80" viewBox="0,0,208,80"><g transform="translate(-136,-140)"><g stroke-miterlimit="10"><path d="M136,220v-80h208v80z" fill-opacity="0" fill="#000000" fill-rule="nonzero" stroke="none" stroke-width="1" stroke-linecap="butt"/><path d="M180.56463,188.53028h-3.25007v6.1038l6.06416,-1.50613l0.07927,2.2592l-9.35387,2.53664l-0.87197,-2.10066c0.58131,-0.23781 0.95124,-0.43599 1.10978,-0.59453c0.15854,-0.15854 0.23781,-0.36993 0.23781,-0.63416v-6.06416h-3.68606c-0.21139,1.79679 -0.62095,3.42843 -1.22869,4.89493c-0.60774,1.4665 -1.4665,2.9396 -2.57628,4.41931l-2.49701,-1.74394c1.45328,-1.87606 2.44416,-3.67285 2.97263,-5.39037c0.52847,-1.71752 0.7927,-4.00314 0.7927,-6.85687v-5.70745h29.92447v1.98175h-27.15001v4.35986c0,0.89839 -0.01321,1.55898 -0.03964,1.98175h27.98235v2.06102h-15.45767c1.47971,1.55898 3.15759,2.78767 5.03365,3.68606c3.38219,-1.53255 5.74708,-2.66876 7.09468,-3.40861l1.18905,2.06102c-0.97766,0.47562 -2.76124,1.29474 -5.35073,2.45737c2.35168,0.66058 5.2054,1.14942 8.56117,1.4665l-1.14942,2.45737c-3.14438,-0.39635 -5.82635,-0.95124 -8.04592,-1.66467c-2.21956,-0.71343 -4.15508,-1.63164 -5.80654,-2.75464c-1.65146,-1.12299 -3.17741,-2.55646 -4.57785,-4.3004zM181.11952,176.91721v-7.41176h-11.73198v5.11292h-2.81409v-7.09468h14.54607v-2.14029h-13.15884v-2.21956h29.29031v2.21956h-13.35701v2.14029h14.70461v7.09468h-2.77445v-5.11292h-11.93015v7.41176zM172.79616,182.34721h23.66213v1.94212h-23.66213zM171.60711,173.11225v-1.78358h7.45139v1.78358zM186.11354,173.11225v-1.78358h7.41176v1.78358zM179.0585,174.61838v1.74394h-7.45139v-1.74394zM186.15317,176.36232v-1.74394h7.41176v1.74394z" fill="#ffffff" fill-rule="evenodd" stroke="#ffffff" stroke-width="0.5" stroke-linecap="round"/><path d="M215.21851,174.35842h-6.26234v3.36898c0,3.2765 -0.12551,6.00471 -0.37653,8.18464c-0.25102,2.17993 -0.64077,4.10223 -1.16923,5.7669c-0.52847,1.66467 -1.26832,3.5011 -2.21956,5.50927l-2.61591,-1.54577c0.95124,-2.0346 1.66467,-3.83139 2.14029,-5.39037c0.47562,-1.55898 0.81912,-3.35577 1.03051,-5.39037c0.21139,-2.0346 0.31708,-4.70336 0.31708,-8.00628v-11.96979h14.74424c-0.23781,-1.00409 -0.50204,-1.94212 -0.7927,-2.81409c-0.05285,-0.18496 -0.10569,-0.36332 -0.15854,-0.53507c-0.05285,-0.17175 -0.09248,-0.32369 -0.11891,-0.4558l3.32934,-0.39635c0.47562,1.5854 0.88518,2.98584 1.22869,4.20132h13.03993v2.65555h-6.53978v4.32022h6.42088v2.49701h-6.42088v5.90562h-15.57658zM237.69159,193.97778l-0.95124,2.97263c-3.11796,-0.50204 -5.81314,-1.05033 -8.08555,-1.64485c-2.27241,-0.59453 -4.33343,-1.31456 -6.18307,-2.16011c-3.48789,1.53255 -7.9138,2.88015 -13.27774,4.04278l-1.18905,-2.77445c4.57124,-0.7927 8.37621,-1.74394 11.4149,-2.85372c-2.4838,-1.53255 -5.00723,-3.62 -7.5703,-6.26234v-2.45737h21.4822v2.49701c-2.0346,2.4838 -4.54482,4.54482 -7.53066,6.18307c2.90657,1.00409 6.87008,1.82321 11.89052,2.45737zM229.52677,185.2977h-13.59482c2.06102,2.11387 4.28059,3.75212 6.65869,4.91475c2.77445,-1.32117 5.0865,-2.95942 6.93614,-4.91475zM218.0326,167.54119v4.32022h9.86913v-4.32022zM218.0326,174.35842v3.40861h9.86913v-3.40861zM208.95617,171.86142h6.26234v-4.32022h-6.26234z" fill="#ffffff" fill-rule="evenodd" stroke="#ffffff" stroke-width="0.5" stroke-linecap="round"/><path d="M276.04725,166.66922h-12.36614c-0.81912,1.50613 -1.67788,2.94621 -2.57628,4.32022v26.23841h-3.1708v-21.79928c-3.69927,4.67694 -8.27051,9.11606 -13.71373,13.31738l-2.02139,-2.77445c3.96351,-2.77445 7.458,-5.79993 10.48347,-9.07643c3.02548,-3.2765 5.50267,-6.68511 7.43157,-10.22584h-16.72599v-3.09153h32.65929zM262.96768,177.44996l1.86285,-2.41774c5.33752,4.54482 9.3803,8.12519 12.12833,10.7411l-2.21956,2.61591c-2.24599,-2.32526 -6.16986,-5.97168 -11.77161,-10.93928z" fill="#ffffff" fill-rule="evenodd" stroke="#ffffff" stroke-width="0.5" stroke-linecap="round"/><path d="M298.3857,163.63947h14.78388v28.77505c0,1.18905 -0.15194,2.11387 -0.4558,2.77445c-0.30387,0.66058 -0.81912,1.1296 -1.54577,1.40704c-0.72664,0.27745 -1.73734,0.41617 -3.03208,0.41617h-3.88424l-0.59453,-2.93299h3.88424c0.7927,0 1.38723,-0.06606 1.78358,-0.19818c0.39635,-0.13212 0.66719,-0.36993 0.81252,-0.71343c0.14533,-0.3435 0.21799,-0.85876 0.21799,-1.54577v-5.86599h-9.55205c-0.39635,2.56307 -1.1362,4.75621 -2.21956,6.57942c-1.08336,1.82321 -2.73482,3.76533 -4.95438,5.82635l-2.3781,-1.86285c2.19314,-1.98175 3.77194,-3.7257 4.73639,-5.23183c0.96445,-1.50613 1.60522,-3.26989 1.9223,-5.29128c0.31708,-2.02139 0.47562,-4.98741 0.47562,-8.89807zM282.29387,164.51144h11.81125v26.19877h-9.1557v2.73482h-2.65555zM301.23943,173.5086h9.11606v-6.8965h-9.11606zM301.08089,182.94174h9.2746v-6.61905h-9.11606v2.02139c0,1.82321 -0.05285,3.35577 -0.15854,4.59767zM291.40993,178.97823h-6.46051v8.83862h6.46051zM284.94942,176.08488h6.46051v-8.64044h-6.46051z" fill="#ffffff" fill-rule="evenodd" stroke="#ffffff" stroke-width="0.5" stroke-linecap="round"/></g></g></svg>