<svg version="1.1" xmlns="http://www.w3.org/2000/svg" xmlns:xlink="http://www.w3.org/1999/xlink" width="208.57597" height="32" viewBox="0,0,208.57597,32"><g transform="translate(-239.42403,-164)"><g stroke-miterlimit="10"><path d="M240,196v-32h208v32z" fill="none" fill-rule="nonzero" stroke="none" stroke-width="0" stroke-linecap="butt"/><path d="M278.09,175.78h1.5039v1.7969h-1.5039v4.5996h-4.9805c-0.11719,1.8034 -0.49152,3.2487 -1.123,4.3359c-0.8008,1.38673 -1.81967,2.46097 -3.0566,3.2227l-1.5625,-1.5625c1.1914,-0.69013 2.1354,-1.6309 2.832,-2.8223c0.46224,-0.8008 0.73568,-1.85873 0.82031,-3.1738h-4.0527v-1.8164h4.082v-2.7832h-5.5762v-1.7969h5.5762v-2.6074h-3.7793v-1.8164h10.82zM276.0294,175.78v-2.6074h-2.9004v2.6074zM276.0294,177.5769h-2.9004v2.7832h2.9004zM264.9654,175.3406v14.16h-2.0996v-10.02c-0.48177,0.79427 -1.02864,1.61457 -1.6406,2.4609l-0.99609,-2.1777c1.10027,-1.49087 2.03127,-3.2031 2.793,-5.1367c0.47526,-1.19793 0.94399,-2.62047 1.4062,-4.2676l2.1191,0.53711c-0.50781,1.6992 -1.03515,3.18033 -1.582,4.4434z" fill="#ffffff" fill-rule="nonzero" stroke="none" stroke-width="1" stroke-linecap="butt"/><path d="M291.25,174.2c0.27995,1.24347 0.72591,2.4772 1.3379,3.7012c1.6732,-1.41273 3.18037,-2.93293 4.5215,-4.5606l1.7774,1.4746c-1.84247,1.9922 -3.6198,3.57097 -5.332,4.7363c0.03253,0.0456 0.06507,0.09443 0.0976,0.14649c1.41927,2.15493 3.47007,4.04947 6.1524,5.6836l-1.3965,1.9141c-3.10547,-1.86847 -5.49153,-4.5996 -7.1582,-8.1934v8.5156c0,0.64453 -0.15625,1.09699 -0.46875,1.3574c-0.31901,0.26693 -0.90168,0.40039 -1.748,0.40039c-1.00913,0 -1.92383,-0.05208 -2.7441,-0.15625l-0.40039,-2.2168c1.12627,0.15625 2.00517,0.23438 2.6367,0.23438c0.27344,0 0.4362,-0.05859 0.48828,-0.17578c0.03907,-0.07813 0.0586,-0.19857 0.0586,-0.36133v-16.201h2.1778zM280.84,175.2742h6.4746l1.084,1.0644c-0.37761,1.96613 -0.87891,3.6393 -1.5039,5.0195c-0.89847,1.9792 -2.1745,3.74353 -3.8281,5.293c-0.33203,0.3125 -0.77473,0.69337 -1.3281,1.1426l-1.543,-1.7383c3.125,-2.2526 5.05207,-5.19207 5.7812,-8.8184h-5.1367z" fill="#ffffff" fill-rule="nonzero" stroke="none" stroke-width="1" stroke-linecap="butt"/><path d="M305.22,184.92c0.6706,0.79427 1.48113,1.36067 2.4316,1.6992c0.98307,0.34505 2.29817,0.51758 3.9453,0.51758h8.2031c-0.2474,0.61198 -0.44922,1.25978 -0.60547,1.9434h-8.0957c-2.194,0 -3.8509,-0.3418 -4.9707,-1.0254c-0.51432,-0.3125 -1.06119,-0.78123 -1.6406,-1.4062c-0.87893,1.10027 -1.87503,2.07033 -2.9883,2.9102l-1.2012,-1.9629c0.99607,-0.57292 1.94333,-1.24999 2.8418,-2.0312v-4.9805h-2.6465v-1.9238h4.7266zM311.3821,174.451h-5.3027v-1.6797h3.1152c-0.35157,-0.57292 -0.72267,-1.11979 -1.1133,-1.6406l1.9336,-0.70312c0.55339,0.8268 0.98959,1.60807 1.3086,2.3438h2.5c0.26042,-0.52735 0.57618,-1.31511 0.94727,-2.3633l2.1875,0.45898c-0.29948,0.65755 -0.63478,1.29232 -1.0059,1.9043h3.2617v1.6797h-5.752c-0.16276,0.50131 -0.33529,0.98307 -0.51758,1.4453h5.0293v10.078h-10.674v-10.078h3.623c0.17579,-0.50131 0.32878,-0.98307 0.45899,-1.4453zM309.3215,177.3123v1.4648h6.6113v-1.4648zM309.3215,180.0955v1.4844h6.6113v-1.4844zM309.3215,182.9568v1.5332h6.6113v-1.5332zM303.8332,175.7986c-0.93747,-1.4844 -1.9368,-2.73767 -2.998,-3.7598l1.6211,-1.2793c1.25,1.15887 2.28517,2.3568 3.1055,3.5938z" fill="#ffffff" fill-rule="nonzero" stroke="none" stroke-width="1" stroke-linecap="butt"/><path d="M256.72356,185.88627l0.10703,-2.69717l1.60546,0.40672l-0.17125,2.84701c-0.04281,0.77062 -0.15341,1.34858 -0.33179,1.73389c-0.17838,0.38531 -0.47093,0.65289 -0.87765,0.80273c-0.40672,0.14984 -1.00965,0.22476 -1.80882,0.22476h-3.96013c-0.81343,0 -1.43064,-0.07492 -1.85163,-0.22476c-0.42099,-0.14984 -0.72424,-0.43169 -0.90976,-0.84554c-0.18552,-0.41385 -0.27828,-1.02036 -0.27828,-1.81952v-7.98448h7.29948v-4.98762h-7.51354v-1.64827h9.16181v8.28416h-7.27808v5.75824c0,0.54229 0.04281,0.94187 0.12844,1.19874c0.08562,0.25687 0.24617,0.43169 0.48164,0.52445c0.23547,0.09276 0.61721,0.13914 1.14523,0.13914h3.1681c0.55656,0 0.95971,-0.04281 1.20944,-0.12844c0.24974,-0.08562 0.41742,-0.2426 0.50304,-0.47093c0.08562,-0.22833 0.14271,-0.59937 0.17125,-1.11312zM241.97475,176.72445l2.86842,-0.25687c0.49948,-0.78489 0.99182,-1.61973 1.47702,-2.50451l1.3914,0.87765c-0.72781,1.2701 -1.5341,2.55446 -2.41889,3.8531c-0.88479,1.29864 -1.73389,2.42603 -2.54733,3.38216l4.36685,-0.57796l0.04281,1.58405l-6.48605,0.89906l-0.32109,-1.60546c1.28437,-1.35572 2.46884,-2.83988 3.55341,-4.45247l-3.61763,0.42812l-0.32109,-1.56265c0.69927,-0.79916 1.38426,-1.75887 2.05499,-2.87912c0.67073,-1.12025 1.36999,-2.38678 2.0978,-3.79958l1.4128,0.59937c-1.39853,2.69717 -2.583,4.70221 -3.55341,6.01512zM247.36909,187.27766l-7.42792,1.15593l-0.23547,-1.66968l7.55636,-1.24155z" fill="#ffffff" fill-rule="evenodd" stroke="#ffffff" stroke-width="0.5" stroke-linecap="round"/></g></g></svg>