<svg version="1.1" xmlns="http://www.w3.org/2000/svg" xmlns:xlink="http://www.w3.org/1999/xlink" width="176.67133" height="32" viewBox="0,0,176.67133,32"><g transform="translate(-240,-164)"><g stroke-miterlimit="10"><path d="M240,196v-32h176.67133v32z" fill="none" fill-rule="nonzero" stroke="none" stroke-width="0" stroke-linecap="butt"/><path d="M249.3432,172.48h6.77679v4.3164h-1.83313v-2.6367h-11.63737v2.6367h-1.79992v-4.3164h6.67724v-1.9824h1.81657zM253.5901,175.7612v5.2734h-4.40447c-0.14931,0.60547 -0.33732,1.1914 -0.56405,1.7578h6.61923v6.709h-1.91612v-1.0059h-9.65492v1.0059h-1.89947v-6.709h4.93533c0.2599,-0.83987 0.42303,-1.4258 0.4894,-1.7578h-3.89849v-5.2734zM245.16263,177.3432v2.0898h6.57769v-2.0898zM243.66958,184.4526v2.3633h9.65492v-2.3633z" fill="#ffffff" fill-rule="nonzero" stroke="none" stroke-width="1" stroke-linecap="butt"/><path d="M272.1236,179.78v7.8809c0,0.58594 -0.09124,1.01564 -0.27373,1.2891c-0.2212,0.32552 -0.68847,0.48828 -1.40182,0.48828c-0.68568,0 -1.40731,-0.04557 -2.1649,-0.13672l-0.34008,-1.9434c0.79077,0.16276 1.44605,0.24414 1.96581,0.24414c0.23225,0 0.37603,-0.05208 0.43133,-0.15625c0.04423,-0.08464 0.06634,-0.2474 0.06634,-0.48829v-7.1777h-6.94267v6.1621h-4.37134v1.6602h-1.45992v-13.682h1.3935v10.156h0.81288v-13.359h1.44327v13.359h0.85439v-10.156h1.32716v4.1016h10.13652v1.7578zM268.77254,174.1062c1.34372,0.65104 2.70959,1.44204 4.09759,2.373l-1.08661,1.4551c-1.02299,-0.79427 -2.22298,-1.61457 -3.59993,-2.4609c-0.741,1.21093 -1.88569,2.04753 -3.43405,2.5098l-0.87928,-1.5234c1.65895,-0.42969 2.7262,-1.24999 3.20174,-2.4609h-3.2764v-1.6992h3.48382v-1.7969h1.65069v1.7969h3.97315v1.6992h-4.09759c-0.00567,0.03253 -0.01673,0.06834 -0.03321,0.10742zM269.38635,181.1668v5.2344h-3.55016v0.9375h-1.50961v-6.1719zM265.80298,182.7684v2.0312h2.17323v-2.0312z" fill="#ffffff" fill-rule="nonzero" stroke="none" stroke-width="1" stroke-linecap="butt"/><path d="M298.53937,182.24h-3.43405v-1.6016h1.65893c-0.24884,-0.66407 -0.53086,-1.28257 -0.84606,-1.8555l1.49304,-0.64453c0.43132,0.85287 0.77972,1.6862 1.04516,2.5h1.94925c0.32626,-0.78773 0.61381,-1.6341 0.86263,-2.5391l1.66725,0.61524c-0.28202,0.71613 -0.58064,1.3574 -0.89584,1.9238h1.78336v1.6016h-3.55016v1.4258h3.78238v1.6602h-3.78238v3.6914h-1.73359v-3.6914h-3.64138v-1.6602h3.64138zM300.32273,176.2244h6.28746v11.416c0,0.6706 -0.15207,1.1426 -0.45621,1.416c-0.25437,0.23438 -0.68295,0.35157 -1.28571,0.35157c-0.77973,0 -1.53177,-0.04883 -2.25613,-0.14649l-0.40645,-1.9629c0.96773,0.13672 1.69214,0.20508 2.17323,0.20508c0.19907,0 0.3152,-0.05859 0.34837,-0.17578c0.02214,-0.07161 0.03321,-0.17253 0.03321,-0.30274v-9.1016h-10.60028v11.582h-1.8497v-13.281h6.17959v-1.7676h-7.10032v-1.8164h7.10032v-2.1387h1.83313v2.1387h7.19987v1.8164h-7.19987z" fill="#ffffff" fill-rule="nonzero" stroke="none" stroke-width="1" stroke-linecap="butt"/><path d="M313.87919,172.75h3.55016v1.8848h-1.1696c-0.21014,0.99607 -0.49216,2.041 -0.84607,3.1348h2.21468v1.8848h-9.25656v-1.8848h2.03223c-0.22119,-1.25 -0.45344,-2.29493 -0.69676,-3.1348h-1.07829v-1.8848h3.51695v-2.2559h1.73359zM311.38252,174.6348c0.28202,0.97007 0.50045,2.015 0.65528,3.1348h1.69214l0.08295,-0.27344c0.23778,-0.7422 0.45897,-1.5853 0.66358,-2.5293l0.07466,-0.33203zM316.52527,181.295v7.998h-1.70046v-0.95703h-3.6165v1.1621h-1.75024v-8.2031zM311.20831,183.0919v3.3887h3.6165v-3.3887zM322.29019,178.1603c0.65804,0.73567 1.18061,1.61133 1.5677,2.627c0.38156,1.0156 0.57234,2.04423 0.57234,3.0859c0,0.96353 -0.15207,1.67317 -0.45621,2.1289c-0.3152,0.47526 -0.83499,0.71289 -1.55938,0.71289c-0.61937,0 -1.21935,-0.05208 -1.79992,-0.15625l-0.40645,-2.0801c0.66908,0.14323 1.22206,0.21485 1.65893,0.21485c0.33179,0 0.53916,-0.09115 0.6221,-0.27344c0.05532,-0.13021 0.08298,-0.39062 0.08298,-0.78125c0,-1.60807 -0.40921,-2.9948 -1.22761,-4.1602c-0.21567,-0.30599 -0.48663,-0.63476 -0.81288,-0.98633l0.09954,-0.27343c0.57509,-1.52993 1.02299,-3.125 1.34372,-4.7852h-2.12345v16.064h-1.71702v-18.086h4.99343l0.92073,0.99609c-0.55851,2.2396 -1.14467,4.15693 -1.75847,5.752z" fill="#ffffff" fill-rule="nonzero" stroke="none" stroke-width="1" stroke-linecap="butt"/><path d="M290.87883,183.58645h-9.58665c-0.97731,1.14124 -2.17323,2.32323 -3.58777,3.54597l8.66078,-0.34645l-2.1218,-2.11943l0.94516,-0.99858c0.55295,0.52986 1.0834,1.04613 1.59135,1.54882c0.50795,0.50268 0.95481,0.94424 1.34058,1.32465c1.38882,1.38578 1.96105,1.94961 1.71672,1.69147l-1.00303,1.16161c-0.21861,-0.24455 -0.61725,-0.67251 -1.19592,-1.28388l-11.92062,0.55023l-0.36648,-1.44692c1.5174,-1.14124 2.84835,-2.3504 3.99283,-3.62749h-5.53595v-1.38578h2.54615v-10.59717h11.92062v10.59717h2.60402zM286.886,182.20066v-2.24171h-9.12372v2.24171zM277.76229,176.47412v2.16019h9.12372v-2.16019zM277.76229,175.19022h9.12372v-2.13981h-9.12372z" fill="#ffffff" fill-rule="evenodd" stroke="#ffffff" stroke-width="0.5" stroke-linecap="round"/><path d="M353.5705,187.08384l0.06592,-1.16791l1.02181,0.44593l-0.06592,1.21038c-0.05494,0.70783 -0.20876,1.19623 -0.46146,1.4652c-0.25271,0.26897 -0.67022,0.40346 -1.25254,0.40346h-2.4062c-0.54936,0 -0.93666,-0.14157 -1.1619,-0.4247c-0.22524,-0.28313 -0.33786,-0.814 -0.33786,-1.59261v-3.39757h-3.70819v1.27409h3.03248v1.04051h-3.03248v1.69878l3.08192,-0.63704v1.18915l-4.33446,1.10421l-0.3461,-1.23162c0.20876,-0.12741 0.34335,-0.23712 0.40378,-0.32914c0.06043,-0.09202 0.09064,-0.20881 0.09064,-0.35037v-3.75856h-1.33495c-0.04395,1.34487 -0.16756,2.43846 -0.37082,3.28078c-0.20326,0.84231 -0.53013,1.79434 -0.98061,2.85608l-1.02181,-0.84939c0.37357,-0.82108 0.6455,-1.52183 0.8158,-2.10225c0.1703,-0.58042 0.29116,-1.25285 0.36258,-2.01731c0.07142,-0.76445 0.10713,-1.81911 0.10713,-3.16399v-4.50178h5.57053l-0.3461,-1.16791l0.82404,-0.33976l-0.29666,-0.53087c0.92293,-0.50964 1.73049,-1.21038 2.42269,-2.10225h-1.99418v-1.25285h2.53805v-1.65632h1.10422v1.65632h2.99952v1.25285h-2.57101c0.37357,0.41054 0.8213,0.80338 1.34319,1.17853c0.52189,0.37515 1.05203,0.69013 1.5904,0.94495l-0.36258,1.21038c-0.52739,-0.29729 -1.05752,-0.65828 -1.5904,-1.08298c-0.53288,-0.4247 -1.00259,-0.86355 -1.40911,-1.31656v2.71806h-1.10422v-2.76053c-0.67022,0.86355 -1.42834,1.59969 -2.27436,2.20842c0.0879,0.25482 0.19777,0.60165 0.32962,1.04051h6.1144v1.27409h-4.38391v1.44397h3.59283v3.7798h-3.75763v1.59261c1.29649,-0.35391 2.4941,-0.72906 3.59283,-1.12544l0.21425,1.14668c-1.36242,0.46717 -2.63144,0.84231 -3.80708,1.12544v0.31852c0,0.45301 0.05768,0.75384 0.17305,0.90248c0.11537,0.14864 0.33236,0.22297 0.65099,0.22297h1.59864c0.38455,0 0.64825,-0.07432 0.79108,-0.22297c0.14283,-0.14864 0.23623,-0.44947 0.28017,-0.90248zM370.23264,183.91985l1.17014,0.33976c0,0.4247 -0.02197,1.10421 -0.06592,2.03854l-0.01648,0.70075c-0.03296,0.58042 -0.12086,1.02989 -0.26369,1.34841c-0.14283,0.31852 -0.37357,0.54503 -0.6922,0.67951c-0.31863,0.13449 -0.76911,0.20173 -1.35143,0.20173h-4.18614c-0.54936,0 -0.98061,-0.07432 -1.29375,-0.22297c-0.31314,-0.14864 -0.54112,-0.41054 -0.68396,-0.78569c-0.14283,-0.37515 -0.21425,-0.91664 -0.21425,-1.62446v-7.30477l-1.38439,0.61581l-0.31314,-1.50767l1.69753,-0.74322v-5.245h1.17014v4.73536l2.04363,-0.9131v-5.69093h1.15366v5.20253l3.51042,-1.55014l-0.18129,7.58083c-0.03296,0.58042 -0.09889,1.01927 -0.19777,1.31656c-0.09889,0.29729 -0.26919,0.50964 -0.51091,0.63704c-0.24172,0.12741 -0.59331,0.19111 -1.05477,0.19111h-0.88997l-0.23073,-1.57138h0.59331c0.31863,0 0.55486,-0.03185 0.70868,-0.09556c0.15382,-0.0637 0.26095,-0.1805 0.32138,-0.35037c0.06043,-0.16988 0.09614,-0.43885 0.10713,-0.80692l0.14833,-4.7566l-2.3238,1.01927v8.40898h-1.15366v-7.89935l-2.04363,0.9131v7.17737c0,0.50964 0.02747,0.88478 0.0824,1.12544c0.05494,0.24066 0.16756,0.41054 0.33786,0.50964c0.1703,0.0991 0.43674,0.14864 0.79932,0.14864h3.5269c0.46146,0 0.79932,-0.03539 1.01357,-0.10617c0.21425,-0.07078 0.36533,-0.21235 0.45322,-0.4247c0.0879,-0.21235 0.14283,-0.55211 0.16481,-1.01927zM331.8817,186.72285h4.25206v-12.61348h1.23606v15.60758h-1.23606v-1.33779h-11.05865v-14.26979h1.26903v12.61348h4.25206v-16.01105h1.28551zM380.02227,179.67289h1.21958v1.91113h4.6476v4.31067c0,0.62289 -0.05219,1.10067 -0.15657,1.43335c-0.10438,0.33268 -0.28841,0.5698 -0.55211,0.71137c-0.26369,0.14157 -0.64275,0.21235 -1.13718,0.21235h-1.59864l-0.23073,-1.42273h1.40087c0.41752,0 0.70318,-0.07786 0.857,-0.23358c0.15382,-0.15572 0.23623,-0.44593 0.24721,-0.87063v-2.69682h-3.47746v6.90131h-1.21958v-6.90131h-3.46098v5.3087h-1.15366v-6.75267h4.61464zM383.82935,170.79674h1.15366v2.10225h2.81823v1.44397h-2.81823v2.22965h-1.15366v-2.22965h-2.62046v2.22965h-1.13718v-2.22965h-2.62046v2.22965h-1.15366v-2.22965h-2.80175v-1.44397h2.80175v-2.10225h1.15366v2.10225h2.62046v-2.10225h1.13718v2.10225h2.62046zM359.98155,177.61311v7.34724l1.8953,-0.78569l0.09889,0.78569l0.06592,0.67951l-4.89481,2.05978l-0.31314,-1.42273l1.9777,-0.82816v-7.83564h-1.73049v-1.55014h1.73049v-5.09635h1.17014v5.09635h1.40087v1.55014zM375.14394,178.97214v2.10225h-1.17014v-3.52498h13.34949v3.52498h-1.17014v-2.10225zM341.14394,177.10348l-0.62627,-1.12544c1.27452,-0.79277 2.26337,-1.65632 2.96655,-2.59065h-2.57101v-1.25285h2.98303v-1.65632h1.08774v1.65632h2.43917v1.25285h-2.43917v0.04247c0.58232,0.41054 1.25254,0.9131 2.01066,1.50767l0.28017,0.23358l-0.56035,1.06174l-0.29666,-0.25482c-0.65923,-0.59457 -1.13718,-1.00511 -1.43383,-1.23162v2.35706h-1.08774v-2.59065c-0.74713,0.96265 -1.66457,1.82619 -2.7523,2.59065zM345.4784,181.35044h-2.62046v0.99804v0.57334h2.62046zM349.13715,181.35044h-2.55453v1.57138h2.55453zM342.85795,180.24623h2.62046v-1.44397h-2.62046zM350.24137,182.92182h2.50509v-1.57138h-2.50509zM346.58262,178.80226v1.44397h2.55453v-1.44397z" fill="#ffffff" fill-rule="evenodd" stroke="#ffffff" stroke-width="0.5" stroke-linecap="round"/></g></g></svg>