<svg version="1.1" xmlns="http://www.w3.org/2000/svg" xmlns:xlink="http://www.w3.org/1999/xlink" width="208.43302" height="32" viewBox="0,0,208.43302,32"><g transform="translate(-239.56698,-164)"><g stroke="none" stroke-miterlimit="10"><path d="M241.65606,171.08229l1.68733,-0.72314c0.308,0.45531 0.61333,0.9508 0.91598,1.48646c0.29997,0.53566 0.5303,0.99767 0.691,1.38602l-1.72751,0.84367c-0.1607,-0.38835 -0.39505,-0.86777 -0.70306,-1.43825c-0.308,-0.5678 -0.59592,-1.08605 -0.86375,-1.55476M251.82023,180.94516h1.92838v6.70916h-1.92838v-6.70916M250.47439,175.60193v1.64716h4.84104v-1.64716h-4.84104M248.56609,173.95477h8.75806v4.94148h-8.75806v-4.94148M247.54164,179.90062h10.66636v9.05937h-2.06899v-7.31178h-6.60872v7.35195h-1.98864v-9.09955M248.68662,183.19493h8.51702v1.62707h-8.51702v-1.62707M248.7067,186.4089h8.49693v1.7476h-8.49693v-1.7476M247.4412,171.14255h10.84714v1.82794h-10.84714v-1.82794M240.31021,173.99495h6.02619v1.94847h-6.02619v-1.94847M245.13116,178.6552c0.13392,0.09374 0.33211,0.25042 0.59458,0.47004c0.2598,0.2223 0.537,0.46067 0.83161,0.71511c0.29461,0.25444 0.56646,0.49147 0.81554,0.71109c0.2464,0.2223 0.41648,0.38032 0.51022,0.47406l-1.2655,1.72751c-0.14731,-0.20087 -0.33747,-0.43924 -0.57048,-0.71511c-0.23569,-0.27319 -0.48344,-0.5611 -0.74323,-0.86375c-0.26247,-0.29997 -0.51691,-0.58119 -0.76332,-0.84367c-0.24908,-0.2598 -0.46067,-0.47004 -0.63476,-0.63074l1.22533,-1.04454M245.553,173.99495h0.42183l0.38166,-0.08035l1.18515,0.76332c-0.45531,1.2722 -1.05391,2.4935 -1.7958,3.66392c-0.74457,1.1731 -1.55877,2.23505 -2.44262,3.18585c-0.88384,0.9508 -1.78777,1.7409 -2.71179,2.3703c-0.05357,-0.20087 -0.14329,-0.43255 -0.26917,-0.69502c-0.12856,-0.2598 -0.25712,-0.51423 -0.38568,-0.76332c-0.12588,-0.2464 -0.24908,-0.43656 -0.36961,-0.57048c0.84367,-0.50888 1.65787,-1.15837 2.44262,-1.94847c0.78206,-0.7901 1.48512,-1.66457 2.10917,-2.6234c0.62137,-0.95616 1.09944,-1.92302 1.43423,-2.90061v-0.40175M242.82112,180.62376l2.10917,-2.531v10.9074h-2.10917zM261.06039,171.24299h15.76853v2.12925h-13.55893v15.64801h-2.2096v-17.77726M275.52325,171.24299h2.24978v15.06548c0,0.64279 -0.09106,1.13426 -0.27319,1.47441c-0.17945,0.34282 -0.47674,0.60128 -0.89188,0.77537c-0.44192,0.17409 -1.00437,0.2839 -1.68733,0.32943c-0.68297,0.04821 -1.52663,0.06562 -2.531,0.05223c-0.04017,-0.20087 -0.10713,-0.43255 -0.20087,-0.69502c-0.09374,-0.2598 -0.20087,-0.52361 -0.3214,-0.79144c-0.12052,-0.26783 -0.24105,-0.48879 -0.36157,-0.66288c0.4687,0.02678 0.93741,0.04285 1.40611,0.04821c0.4687,0.00803 0.88384,0.00803 1.24541,0c0.36157,-0.00536 0.60931,-0.00803 0.74323,-0.00803c0.22766,0 0.38835,-0.04017 0.4821,-0.12052c0.09374,-0.08035 0.14061,-0.22096 0.14061,-0.42183v-15.04539M264.19401,176.46569l1.52663,-1.24541c0.83027,0.69636 1.67126,1.43959 2.52296,2.22969c0.84902,0.7901 1.66859,1.59359 2.45869,2.41048c0.7901,0.81688 1.51592,1.60297 2.17746,2.35825c0.66422,0.75796 1.22399,1.45834 1.6793,2.10113l-1.64716,1.54672c-0.42853,-0.64279 -0.96821,-1.36326 -1.61904,-2.16139c-0.64815,-0.79546 -1.36728,-1.61502 -2.15738,-2.45869c-0.7901,-0.84367 -1.60698,-1.67796 -2.45065,-2.50288c-0.84367,-0.82224 -1.67394,-1.58154 -2.49083,-2.2779M272.1285,174.17573l2.06899,0.64279c-0.70975,1.54003 -1.51994,3.02916 -2.43056,4.46742c-0.91062,1.44093 -1.88419,2.7774 -2.92069,4.00943c-1.03918,1.23202 -2.10113,2.30334 -3.18585,3.21397c-0.13392,-0.12052 -0.3147,-0.26515 -0.54236,-0.43389c-0.22766,-0.16606 -0.46201,-0.32943 -0.70306,-0.49013c-0.24105,-0.1607 -0.44862,-0.28792 -0.62271,-0.38166c1.13828,-0.84367 2.223,-1.84803 3.25414,-3.0131c1.03115,-1.16506 1.98195,-2.43056 2.8524,-3.7965c0.87045,-1.36594 1.61368,-2.77205 2.22969,-4.21833zM280.48481,181.32681h18.0384v1.94847h-18.0384v-1.94847M284.48219,174.61766h10.00348v1.76768h-10.00348v-1.76768M284.50227,177.95215h10.02356v1.7476h-10.02356v-1.7476M283.59834,171.20281h12.27334v11.00784h-2.16943v-9.19998h-8.01483v9.19998h-2.08908v-11.00784M291.55292,184.0386l1.82794,-0.80349c0.57584,0.45531 1.16908,0.97089 1.77973,1.54672c0.60798,0.57584 1.17712,1.14096 1.70742,1.69537c0.52763,0.55709 0.96553,1.0499 1.31371,1.47843l-1.88821,0.98428c-0.33479,-0.45531 -0.76733,-0.9749 -1.29764,-1.55877c-0.52763,-0.58119 -1.09275,-1.1664 -1.69537,-1.75563c-0.60262,-0.58923 -1.18515,-1.11819 -1.7476,-1.5869M282.27258,188.51807c-0.04017,-0.1607 -0.10044,-0.36157 -0.18079,-0.60262c-0.08035,-0.24105 -0.1607,-0.49281 -0.24105,-0.75528c-0.08035,-0.2598 -0.16739,-0.48344 -0.26113,-0.67092c0.22766,-0.05357 0.45531,-0.14463 0.68297,-0.27319c0.22766,-0.12588 0.4754,-0.29595 0.74323,-0.51022c0.20087,-0.13392 0.4995,-0.37496 0.89589,-0.72314c0.39371,-0.34818 0.83161,-0.77001 1.31371,-1.2655c0.4821,-0.49549 0.92402,-1.01776 1.32576,-1.56681l2.2096,0.84367c-0.77671,0.87045 -1.60297,1.69671 -2.47877,2.47877c-0.87848,0.78474 -1.72617,1.44495 -2.54305,1.98061v0.04017c0,0 -0.07365,0.03348 -0.22096,0.10044c-0.14731,0.06696 -0.31738,0.14999 -0.51022,0.24908c-0.19552,0.10178 -0.36693,0.21293 -0.51423,0.33345c-0.14731,0.12052 -0.22096,0.23435 -0.22096,0.34148M282.27258,188.51807l-0.02009,-1.48646l1.28559,-0.70306l11.63055,-0.46201c0.04017,0.26783 0.10044,0.56512 0.18079,0.89188c0.08035,0.32943 0.14061,0.59458 0.18079,0.79546c-1.84803,0.09374 -3.44162,0.17677 -4.78078,0.24908c-1.33915,0.07499 -2.47074,0.13927 -3.39475,0.19284c-0.92402,0.05357 -1.68332,0.10044 -2.2779,0.14061c-0.59726,0.04017 -1.074,0.07633 -1.43022,0.10847c-0.35354,0.03482 -0.63342,0.07231 -0.83965,0.11249c-0.20891,0.04017 -0.38702,0.09374 -0.53432,0.1607zM301.09438,172.167l1.34585,-1.14498c0.308,0.24105 0.6294,0.51156 0.96419,0.81153c0.33479,0.30265 0.64681,0.60396 0.93607,0.90393c0.28658,0.30265 0.52361,0.58119 0.71109,0.83563l-1.4262,1.28559c-0.1607,-0.25444 -0.38434,-0.54236 -0.67092,-0.86375c-0.28926,-0.3214 -0.59458,-0.64279 -0.91598,-0.96419c-0.3214,-0.3214 -0.6361,-0.60931 -0.9441,-0.86375M300.15028,177.49014l1.22533,-1.22533c0.33479,0.21427 0.68297,0.45799 1.04454,0.73118c0.36157,0.27586 0.70707,0.55441 1.0365,0.83563c0.32675,0.28122 0.59057,0.53566 0.79144,0.76332l-1.30567,1.38602c-0.20087,-0.24105 -0.45531,-0.50888 -0.76332,-0.80349c-0.308,-0.29461 -0.64279,-0.58923 -1.00437,-0.88384c-0.36157,-0.29461 -0.70306,-0.56244 -1.02445,-0.80349M300.5922,187.23248c0.28122,-0.50888 0.58253,-1.11551 0.90393,-1.81991c0.3214,-0.70172 0.64681,-1.44495 0.97624,-2.22969c0.32675,-0.78206 0.63074,-1.55476 0.91196,-2.31807l1.60698,1.14498c-0.24105,0.69636 -0.50486,1.41281 -0.79144,2.14934c-0.28926,0.73654 -0.58387,1.46236 -0.88384,2.17746c-0.30265,0.71779 -0.60128,1.39808 -0.89589,2.04087l-1.82794,-1.14498M307.52232,170.35915h1.86812v6.3275h-1.86812v-6.3275M305.15202,172.34779h6.42794v1.72751h-6.42794v-1.72751M306.81926,177.44996v2.531h3.17379v-2.531h-3.17379M305.39307,175.78272h6.10654v5.86549h-6.10654v-5.86549M307.42188,180.50323l1.16506,0.4821c-0.21427,0.7901 -0.49147,1.60297 -0.83161,2.4386c-0.34282,0.83831 -0.72448,1.62573 -1.14498,2.36227c-0.42317,0.73654 -0.86241,1.34585 -1.31773,1.82794c-0.08035,-0.26783 -0.21025,-0.58655 -0.38969,-0.95616c-0.18213,-0.36693 -0.34684,-0.67761 -0.49415,-0.93205c0.41514,-0.38835 0.8142,-0.87447 1.1972,-1.45834c0.38032,-0.58119 0.73118,-1.2039 1.05257,-1.86812c0.3214,-0.66154 0.57584,-1.29362 0.76332,-1.89624M307.80354,176.68665h1.30567v3.93711h0.24105v8.29606h-1.78777v-8.29606h0.24105v-3.93711M314.0306,171.72508h2.531v1.56681h-3.77641l1.24541,-1.56681M313.60877,170.21854l1.70742,0.24105c-0.24105,0.91062 -0.53566,1.85741 -0.88384,2.84034c-0.34818,0.98562 -0.7901,1.92704 -1.32576,2.82427c-0.18748,-0.1607 -0.42451,-0.32809 -0.71109,-0.50218c-0.28926,-0.17409 -0.55441,-0.30131 -0.79546,-0.38166c0.33479,-0.52227 0.6294,-1.07534 0.88384,-1.65921c0.25444,-0.58119 0.47942,-1.16372 0.67493,-1.7476c0.19284,-0.58119 0.34282,-1.11953 0.44996,-1.61502M316.36073,171.72508h0.38166l0.26113,-0.10044l1.16506,0.72314c-0.13392,0.45531 -0.29729,0.93741 -0.49013,1.44629c-0.19552,0.50888 -0.39371,1.00437 -0.59458,1.48646c-0.20087,0.4821 -0.39505,0.91732 -0.58253,1.30567c-0.1607,-0.10713 -0.36827,-0.23837 -0.62271,-0.39371c-0.25444,-0.15266 -0.48879,-0.27586 -0.70306,-0.36961c0.1607,-0.34818 0.3147,-0.74993 0.46201,-1.20524c0.14731,-0.45531 0.28792,-0.91062 0.42183,-1.36594c0.13392,-0.45531 0.23435,-0.85706 0.30131,-1.20524v-0.3214M308.24546,182.39144l1.1048,-0.92402c0.3214,0.33479 0.64681,0.69636 0.97624,1.08471c0.32675,0.38835 0.63476,0.77001 0.92402,1.14498c0.28658,0.37496 0.51022,0.70975 0.67092,1.00437l-1.16506,1.06463c-0.1607,-0.308 -0.38166,-0.65619 -0.66288,-1.04454c-0.28122,-0.38835 -0.58253,-0.78742 -0.90393,-1.1972c-0.3214,-0.4071 -0.6361,-0.78474 -0.9441,-1.13292M312.22275,175.60193h6.28733v9.05937h-1.60698v-7.49256h-3.13362v7.55283h-1.54672v-9.11963M314.6734,177.95215h1.44629c0,1.62038 -0.04285,3.02916 -0.12856,4.22637c-0.08838,1.19988 -0.26649,2.23505 -0.53432,3.1055c-0.26783,0.87045 -0.67627,1.60966 -1.22533,2.21764c-0.54905,0.61065 -1.29898,1.13694 -2.24978,1.57886c-0.06696,-0.20087 -0.20087,-0.43255 -0.40175,-0.69502c-0.20087,-0.2598 -0.38835,-0.46335 -0.56244,-0.61065c0.85706,-0.37496 1.53065,-0.8209 2.02078,-1.33781c0.48745,-0.51423 0.84501,-1.14364 1.07266,-1.88821c0.22766,-0.74189 0.37496,-1.65252 0.44192,-2.73187c0.06696,-1.07668 0.10713,-2.36494 0.12052,-3.8648M315.11532,185.94689l1.22533,-0.96419c0.308,0.28122 0.63342,0.59191 0.97624,0.93205c0.34014,0.34282 0.66422,0.67493 0.97223,0.99633c0.308,0.3214 0.56244,0.60931 0.76332,0.86375l-1.28559,1.1048c-0.18748,-0.26783 -0.42853,-0.57316 -0.72314,-0.91598c-0.29461,-0.34014 -0.61199,-0.68833 -0.95214,-1.04454c-0.34282,-0.35354 -0.66824,-0.67761 -0.97624,-0.97223zM322.66814,173.31198h2.26986v4.51964c0,0.83027 -0.03616,1.73688 -0.10847,2.71982c-0.07499,0.98562 -0.20891,1.98998 -0.40175,3.0131c-0.19552,1.02579 -0.48344,2.02078 -0.86375,2.98497c-0.383,0.96419 -0.87581,1.83464 -1.47843,2.61135c-0.12052,-0.13392 -0.29729,-0.28792 -0.5303,-0.46201c-0.23569,-0.17409 -0.47674,-0.33881 -0.72314,-0.49415c-0.24908,-0.15266 -0.46067,-0.26917 -0.63476,-0.34952c0.56244,-0.72314 1.01106,-1.51057 1.34585,-2.36227c0.33479,-0.84902 0.58253,-1.72215 0.74323,-2.61938c0.1607,-0.89723 0.26515,-1.7784 0.31336,-2.64349c0.04553,-0.86241 0.0683,-1.66189 0.0683,-2.39842v-4.51964M328.17206,170.68054l2.14934,-0.52227c0.22766,0.44192 0.44862,0.92402 0.66288,1.44629c0.21427,0.52227 0.38166,0.98428 0.50218,1.38602l-2.2096,0.64279c-0.10713,-0.40175 -0.26783,-0.87715 -0.4821,-1.4262c-0.21427,-0.54905 -0.42183,-1.05793 -0.62271,-1.52663M324.09434,173.31198h12.83579v8.55719h-2.2096v-6.54846h-10.62618v-2.00873M324.13452,178.73555h11.7109v2.00873h-11.7109zM348.58076,178.9766l1.62707,-1.18515c0.45531,0.41514 0.9441,0.86375 1.46637,1.34585c0.52227,0.4821 1.03784,0.97089 1.54672,1.46637c0.50888,0.49549 0.98428,0.97758 1.4262,1.44629c0.44192,0.4687 0.81019,0.89054 1.1048,1.2655l-1.78777,1.40611c-0.26783,-0.38835 -0.61199,-0.8209 -1.03249,-1.29764c-0.42317,-0.47406 -0.87848,-0.97223 -1.36594,-1.4945c-0.49013,-0.52227 -0.99231,-1.03516 -1.50655,-1.53869c-0.51691,-0.50084 -1.00972,-0.97223 -1.47843,-1.41415M348.6812,170.25871h2.2096v4.5799c0,0.65619 -0.04017,1.34183 -0.12052,2.05694c-0.08035,0.71779 -0.23034,1.44093 -0.44996,2.16943c-0.2223,0.73118 -0.53834,1.45164 -0.94812,2.16139c-0.4071,0.70975 -0.93875,1.39272 -1.59493,2.0489c-0.65619,0.65619 -1.45968,1.2655 -2.41048,1.82794c-0.09374,-0.1607 -0.23167,-0.34148 -0.4138,-0.54236c-0.17945,-0.20087 -0.36961,-0.40175 -0.57048,-0.60262c-0.20087,-0.20087 -0.38835,-0.36157 -0.56244,-0.4821c0.91062,-0.4821 1.66457,-1.00169 2.26183,-1.55877c0.59458,-0.55441 1.06597,-1.13694 1.41415,-1.7476c0.34818,-0.60798 0.6053,-1.21997 0.77135,-1.83598c0.16873,-0.61601 0.27988,-1.22265 0.33345,-1.81991c0.05357,-0.59458 0.08035,-1.15971 0.08035,-1.69537v-4.55982M341.57029,173.63338h15.28644v2.10917h-13.13709v13.31788h-2.14934v-15.42705M355.89254,173.63338h2.12925v12.85587c0,0.60262 -0.07365,1.07132 -0.22096,1.40611c-0.14731,0.33479 -0.42183,0.58923 -0.82358,0.76332c-0.40175,0.17409 -0.92,0.2772 -1.55476,0.30934c-0.63744,0.03482 -1.41147,0.05223 -2.32209,0.05223c-0.01339,-0.20087 -0.06026,-0.43255 -0.14061,-0.69502c-0.08035,-0.2598 -0.16739,-0.51691 -0.26113,-0.77135c-0.09374,-0.25444 -0.19418,-0.4821 -0.30131,-0.68297c0.41514,0.01339 0.8276,0.02678 1.23738,0.04017c0.4071,0.01339 0.77135,0.02009 1.09275,0.02009c0.3214,0 0.54236,0 0.66288,0c0.20087,-0.01339 0.33479,-0.05357 0.40175,-0.12052c0.06696,-0.06696 0.10044,-0.18748 0.10044,-0.36157zM368.10562,175.78272h2.00873c-0.09374,0.84367 -0.19418,1.73019 -0.30131,2.65956c-0.10713,0.93205 -0.22498,1.85607 -0.35354,2.77205c-0.12588,0.91866 -0.24507,1.78911 -0.35755,2.61135c-0.11517,0.82492 -0.22632,1.55208 -0.33345,2.18148h-2.08908c0.13392,-0.65619 0.26783,-1.40343 0.40175,-2.24174c0.13392,-0.83563 0.26515,-1.71278 0.39371,-2.63144c0.12588,-0.91598 0.24239,-1.8333 0.34952,-2.75196c0.10713,-0.91598 0.20087,-1.78241 0.28122,-2.5993M371.11871,178.11285l1.12489,-0.72314c0.36157,0.28122 0.73654,0.60931 1.12489,0.98428c0.38835,0.37496 0.68966,0.70306 0.90393,0.98428l-1.18515,0.82358c-0.18748,-0.29461 -0.47138,-0.64012 -0.8517,-1.0365c-0.383,-0.39371 -0.75528,-0.73787 -1.11685,-1.03249M370.57636,182.27092l1.18515,-0.74323c0.40175,0.308 0.8209,0.66288 1.25747,1.06463c0.43389,0.40175 0.77135,0.76332 1.0124,1.08471l-1.22533,0.84367c-0.22766,-0.308 -0.55575,-0.67627 -0.98428,-1.1048c-0.42853,-0.42853 -0.84367,-0.81019 -1.24541,-1.14498M368.38684,172.34779h10.38513v1.94847h-10.38513v-1.94847M368.94928,175.78272h7.65326v1.84803h-7.65326v-1.84803M365.57462,179.80018h13.71963v1.94847h-13.71963v-1.94847M367.76413,184.15912h11.00784v1.84803h-11.00784v-1.84803M368.50736,170.23862l2.08908,0.54236c-0.26783,0.83027 -0.59191,1.65653 -0.97223,2.47877c-0.383,0.82492 -0.78876,1.59895 -1.21729,2.32209c-0.42853,0.72314 -0.86375,1.35924 -1.30567,1.90829c-0.13392,-0.12052 -0.31872,-0.25444 -0.55441,-0.40175c-0.23301,-0.14731 -0.46335,-0.29461 -0.691,-0.44192c-0.22766,-0.14731 -0.42853,-0.26783 -0.60262,-0.36157c0.45531,-0.4821 0.88652,-1.04856 1.29362,-1.69939c0.40978,-0.64815 0.78206,-1.34451 1.11685,-2.08908c0.33479,-0.74189 0.61601,-1.4945 0.84367,-2.25781M375.97984,175.78272h2.00873c0,0 -0.00268,0.06026 -0.00803,0.18079c-0.00803,0.12052 -0.01205,0.25042 -0.01205,0.38969c0,0.14195 -0.0067,0.2598 -0.02009,0.35354c-0.08035,1.91499 -0.1607,3.53804 -0.24105,4.86916c-0.08035,1.3338 -0.17007,2.42922 -0.26917,3.28628c-0.10178,0.85706 -0.2156,1.52663 -0.34148,2.00873c-0.12856,0.4821 -0.27988,0.83027 -0.45397,1.04454c-0.22766,0.308 -0.46469,0.51825 -0.71109,0.63074c-0.24908,0.11517 -0.53432,0.19953 -0.85572,0.2531c-0.29461,0.04017 -0.66958,0.06026 -1.12489,0.06026c-0.45531,0 -0.93071,-0.01339 -1.4262,-0.04017c-0.01339,-0.26783 -0.06696,-0.56914 -0.1607,-0.90393c-0.09374,-0.33479 -0.22096,-0.6294 -0.38166,-0.88384c0.4687,0.04017 0.89723,0.06696 1.28559,0.08035c0.38835,0.01339 0.67627,0.02009 0.86375,0.02009c0.17409,0 0.3147,-0.0241 0.42183,-0.07231c0.10713,-0.04553 0.21427,-0.12856 0.3214,-0.24908c0.13392,-0.14731 0.25444,-0.44594 0.36157,-0.89589c0.10713,-0.44728 0.20757,-1.08337 0.30131,-1.90829c0.09374,-0.82224 0.17811,-1.87348 0.2531,-3.15371c0.07231,-1.27755 0.13525,-2.82695 0.18882,-4.6482v-0.42183M361.67768,172.02639l1.20524,-1.46637c0.38835,0.17409 0.80617,0.38166 1.25345,0.62271c0.44996,0.24105 0.87982,0.48879 1.2896,0.74323c0.4071,0.25444 0.73787,0.48879 0.99231,0.70306l-1.2655,1.62707c-0.24105,-0.21427 -0.55843,-0.45933 -0.95214,-0.7352c-0.39639,-0.27319 -0.81956,-0.54102 -1.26952,-0.80349c-0.44728,-0.2598 -0.86509,-0.49013 -1.25345,-0.691M360.55279,177.77136l1.16506,-1.44629c0.38835,0.17409 0.79278,0.37764 1.21327,0.61065c0.42317,0.23569 0.82492,0.47406 1.20524,0.71511c0.383,0.24105 0.69502,0.4687 0.93607,0.68297l-1.24541,1.64716c-0.21427,-0.22766 -0.50888,-0.4754 -0.88384,-0.74323c-0.37496,-0.26783 -0.77269,-0.52896 -1.19319,-0.7834c-0.42317,-0.25444 -0.82224,-0.4821 -1.1972,-0.68297M361.11524,187.5137c0.26783,-0.52227 0.56646,-1.13828 0.89589,-1.84803c0.32675,-0.70975 0.65485,-1.46637 0.98428,-2.26986c0.32675,-0.80349 0.63074,-1.59359 0.91196,-2.3703l1.64716,1.16506c-0.24105,0.70975 -0.50486,1.43959 -0.79144,2.18952c-0.28926,0.74993 -0.58387,1.49316 -0.88384,2.22969c-0.30265,0.73654 -0.60128,1.4262 -0.89589,2.06899zM387.73091,180.16175h10.16417v8.79824h-2.16943v-6.80959h-5.90567v6.88994h-2.08908v-8.87859M388.95624,185.90672h7.77379v2.00873h-7.77379v-2.00873M389.43833,171.20281h6.1668v2.00873h-6.1668v-2.00873M388.73528,171.20281h2.08908v2.31004c0,0.73654 -0.09642,1.50923 -0.28926,2.31807c-0.19552,0.81153 -0.55843,1.59225 -1.08873,2.34218c-0.52763,0.74993 -1.30032,1.40611 -2.31807,1.96856c-0.06696,-0.14731 -0.19016,-0.32809 -0.36961,-0.54236c-0.18213,-0.21427 -0.36693,-0.42585 -0.55441,-0.63476c-0.18748,-0.20623 -0.34818,-0.36291 -0.4821,-0.47004c0.88384,-0.4687 1.54003,-0.9883 1.96856,-1.55877c0.42853,-0.5678 0.70975,-1.15301 0.84367,-1.75563c0.13392,-0.60262 0.20087,-1.17846 0.20087,-1.72751v-2.24978M394.56059,171.20281h2.10917v5.44366c0,0.308 0.01741,0.52896 0.05223,0.66288c0.03214,0.13392 0.12186,0.20087 0.26917,0.20087c0.08035,0 0.18079,0 0.30131,0c0.12052,0 0.24507,0 0.37362,0c0.12588,0 0.229,0 0.30934,0c0.13392,0 0.30533,-0.01071 0.51423,-0.03214c0.20623,-0.01875 0.3763,-0.04821 0.51022,-0.08838c0.01339,0.26783 0.0308,0.55173 0.05223,0.8517c0.01875,0.30265 0.04821,0.58119 0.08838,0.83563c-0.13392,0.05357 -0.30399,0.08972 -0.51022,0.10847c-0.20891,0.02143 -0.4138,0.03214 -0.61467,0.03214c-0.10713,0 -0.24373,0 -0.40978,0c-0.16873,0 -0.33613,0 -0.50218,0c-0.16873,0 -0.30667,0 -0.4138,0c-0.58923,0 -1.03784,-0.09374 -1.34585,-0.28122c-0.308,-0.18748 -0.51557,-0.4754 -0.62271,-0.86375c-0.10713,-0.38835 -0.1607,-0.87715 -0.1607,-1.46637v-5.40348M381.50385,172.10674l1.36594,-1.38602c0.41514,0.21427 0.86108,0.46469 1.33781,0.75127c0.47406,0.28926 0.92536,0.57717 1.35388,0.86375c0.42853,0.28926 0.7834,0.5611 1.06463,0.81554l-1.44629,1.54672c-0.25444,-0.25444 -0.58923,-0.53566 -1.00437,-0.84367c-0.41514,-0.308 -0.85706,-0.61601 -1.32576,-0.92402c-0.4687,-0.308 -0.91732,-0.58253 -1.34585,-0.82358M380.45931,177.5504l1.34585,-1.40611c0.41514,0.20087 0.85706,0.43121 1.32576,0.691c0.4687,0.26247 0.92402,0.5303 1.36594,0.80349c0.44192,0.27586 0.80349,0.52763 1.08471,0.75528l-1.4262,1.56681c-0.26783,-0.24105 -0.60931,-0.5062 -1.02445,-0.79546c-0.41514,-0.28658 -0.85974,-0.5745 -1.3338,-0.86375c-0.47674,-0.28658 -0.92268,-0.537 -1.33781,-0.75127M380.9414,187.25257c0.37496,-0.49549 0.7968,-1.08471 1.2655,-1.76768c0.4687,-0.68297 0.94812,-1.41281 1.43825,-2.18952c0.48745,-0.77671 0.94544,-1.54672 1.37397,-2.31004l1.56681,1.54672c-0.37496,0.68297 -0.77939,1.38602 -1.21327,2.10917c-0.43656,0.72314 -0.87179,1.43959 -1.30567,2.14934c-0.43656,0.70975 -0.87581,1.38602 -1.31773,2.02882zM402.31429,176.56612h2.14934v3.83667c0,0.6294 -0.02946,1.30835 -0.08838,2.03685c-0.0616,0.73118 -0.16873,1.47441 -0.3214,2.22969c-0.15534,0.75796 -0.38032,1.4878 -0.67493,2.18952c-0.29461,0.7044 -0.67627,1.33781 -1.14498,1.90026c-0.10713,-0.14731 -0.26783,-0.31202 -0.4821,-0.49415c-0.21427,-0.17945 -0.4379,-0.35354 -0.67092,-0.52227c-0.23569,-0.16606 -0.43389,-0.28926 -0.59458,-0.36961c0.56244,-0.68297 0.97089,-1.43289 1.22533,-2.24978c0.25444,-0.81688 0.41782,-1.63778 0.49013,-2.4627c0.07499,-0.82224 0.11249,-1.58824 0.11249,-2.29799v-3.7965M403.49944,176.56612h15.36678v1.90829h-15.36678v-1.90829M405.80948,179.73992h12.39386v1.82794h-12.39386v-1.82794M404.88547,183.25519h14.28207v1.90829h-14.28207v-1.90829M410.75096,180.30236h2.26986v8.71789h-2.26986v-8.71789M402.37455,171.00194h2.18952v2.39039h11.0681v-2.39039h2.26986v4.29868h-15.52748v-4.29868M408.90293,170.25871h2.28995v4.03755h-2.28995z" fill="#ffffff" stroke-width="1"/><path d="M240,196v-32h208v32z" fill="none" stroke-width="0"/></g></g></svg>