<svg version="1.1" xmlns="http://www.w3.org/2000/svg" xmlns:xlink="http://www.w3.org/1999/xlink" width="126" height="100" viewBox="0,0,126,100"><g transform="translate(-177,-130)"><g stroke-miterlimit="10"><path d="M177,230v-100h126v100z" fill="none" fill-rule="nonzero" stroke="#959196" stroke-width="0" stroke-linecap="butt"/><path d="M177,230v-100h126v100z" fill="none" fill-rule="nonzero" stroke="#959196" stroke-width="0" stroke-linecap="butt"/><path d="M249.09652,193.4969l-1.71037,2.82411c-3.1821,-2.22747 -5.90013,-4.53449 -8.15412,-6.92105c-2.30702,2.4396 -5.42283,4.89247 -9.3474,7.35859l-1.71037,-2.58545c3.68593,-2.17443 6.72218,-4.53449 9.10875,-7.08016c-2.30702,-2.94343 -4.1102,-6.37744 -5.40956,-10.30203c-0.34473,3.52682 -1.02755,6.72218 -2.04847,9.58606c-1.02092,2.86389 -2.59208,5.96643 -4.71347,9.30763l-2.02858,-2.42635c2.17443,-3.23513 3.73897,-6.43711 4.69358,-9.60594c0.95463,-3.16883 1.53801,-7.00724 1.75015,-11.5152c0.05304,-1.19328 0.11933,-3.43401 0.19889,-6.72218h-4.13673v-2.90366h19.2119v2.78434l-3.26165,7.31882h5.64821v2.74456c-0.82204,2.4396 -1.717,4.62067 -2.68489,6.54318c-0.96789,1.92251 -2.08825,3.6793 -3.36108,5.27034c2.06836,2.14791 4.72011,4.25605 7.95524,6.32442zM226.98096,178.97859l-1.5115,2.54567c-1.32588,-1.3789 -2.51916,-2.54567 -3.57986,-3.5003v18.33682h-2.78434v-18.85392c-1.3789,3.68593 -2.85063,6.7752 -4.41516,9.26785l-1.43195,-2.90366c1.08721,-1.59104 2.1678,-3.59312 3.24176,-6.00621c1.07396,-2.41309 1.9424,-4.81292 2.60534,-7.19949v-0.11933h-4.85269v-2.86389h4.85269v-7.5177h2.78434v7.5177h4.77314v2.86389h-4.77314v3.97762c2.41309,1.98881 4.1102,3.47379 5.09136,4.45493zM244.16428,175.39873h-5.8471v-2.42635l3.34119,-7.55747h-9.22807c0,1.21981 -0.03978,2.54567 -0.11933,3.97762c0.71597,3.23513 1.63082,6.1189 2.74456,8.65133c1.11373,2.53242 2.47938,4.81954 4.09695,6.8614c2.04184,-2.62523 3.71244,-5.79406 5.0118,-9.50651z" fill="#ff0000" fill-rule="evenodd" stroke="#ff0000" stroke-width="0.45" stroke-linecap="round"/><path d="M281.72752,185.06435l2.62523,1.31261c-0.37125,2.25398 -0.79552,4.07044 -1.27284,5.44934c-0.53036,1.53801 -1.19328,2.62523 -1.98881,3.26165c-0.79552,0.63642 -1.69711,0.95463 -2.70478,0.95463c-2.25398,0 -4.30909,-1.43195 -6.16531,-4.29582c-0.4508,-0.68945 -0.91485,-1.57779 -1.39217,-2.665c-3.39423,1.77667 -7.15971,3.35446 -11.29644,4.73336l-1.19328,-2.90366c4.18976,-1.32588 8.02153,-2.86389 11.49532,-4.61404c-0.66294,-2.14791 -1.20654,-4.561 -1.63082,-7.23927l-8.07457,1.07396l-0.27843,-2.82411l7.95524,-1.07396c-0.21214,-1.53801 -0.37125,-3.14232 -0.47732,-4.81292l-7.04038,0.8353l-0.27843,-2.82411l7.08016,-0.8353l-0.47732,-8.47233l2.98321,-0.07955c0.15911,3.02299 0.33147,5.75428 0.51709,8.1939l7.75636,-0.91485c-1.19328,-1.24632 -3.00974,-2.96996 -5.44934,-5.1709l1.71037,-1.78993c0.92812,0.76901 1.95566,1.66397 3.08265,2.68489c1.12699,1.02092 2.03522,1.91589 2.72467,2.68489l-1.5115,1.5115l4.69358,-0.55687l0.23865,2.82411l-13.04659,1.55128c0.18562,2.01533 0.35798,3.60637 0.51709,4.77314l13.20569,-1.78993l0.27843,2.82411l-13.08637,1.75015c0.42427,2.49264 0.87508,4.54775 1.35239,6.16531c3.39423,-1.98881 6.13879,-4.03066 8.23366,-6.12553l1.71037,2.10813c-2.25398,2.30702 -5.2372,4.561 -8.94964,6.76195c0.4508,1.08721 0.96789,2.06836 1.55128,2.94343c0.98114,1.48497 2.05511,2.22747 3.22187,2.22747c0.55687,0 1.00766,-0.19889 1.35239,-0.59665c0.34473,-0.39776 0.67619,-1.20654 0.99441,-2.42635c0.50383,-1.96229 0.84856,-3.5003 1.03418,-4.61404zM255.95256,181.28561l1.35239,0.55687l1.39217,0.47732c-2.70478,6.92105 -4.44167,11.50858 -5.21068,13.76256l-2.78434,-1.23306c0.58338,-1.29935 1.47835,-3.52019 2.68489,-6.66251c1.20654,-3.14232 2.06173,-5.4427 2.56556,-6.90116zM258.93577,176.07493l-1.75015,2.54567c-2.1214,-1.77667 -4.70685,-3.83177 -7.75636,-6.16531l1.6706,-2.38658c1.19328,0.84856 2.53242,1.84959 4.0174,3.0031c1.48497,1.1535 2.75782,2.15454 3.81851,3.0031zM260.40749,166.6082l-1.63082,2.42635c-3.23513,-2.57219 -5.64821,-4.4682 -7.23927,-5.68799l1.6706,-2.22747c1.75015,1.21981 4.14998,3.0495 7.19949,5.48912z" fill="#ff0000" fill-rule="evenodd" stroke="#ff0000" stroke-width="0.45" stroke-linecap="round"/></g></g></svg>