<svg version="1.1" xmlns="http://www.w3.org/2000/svg" xmlns:xlink="http://www.w3.org/1999/xlink" width="208" height="32" viewBox="0,0,208,32"><g transform="translate(-240,-164)"><g stroke-miterlimit="10"><path d="M240,196v-32h208v32z" fill="none" fill-rule="nonzero" stroke="none" stroke-width="0" stroke-linecap="butt"/><path d="M258.09,175.78h1.5039v1.7969h-1.5039v4.5996h-4.9805c-0.11719,1.8034 -0.49152,3.2487 -1.123,4.3359c-0.8008,1.38673 -1.81967,2.46097 -3.0566,3.2227l-1.5625,-1.5625c1.1914,-0.69013 2.1354,-1.6309 2.832,-2.8223c0.46224,-0.8008 0.73568,-1.85873 0.82031,-3.1738h-4.0527v-1.8164h4.082v-2.7832h-5.5762v-1.7969h5.5762v-2.6074h-3.7793v-1.8164h10.82zM256.0294,175.78v-2.6074h-2.9004v2.6074zM256.0294,177.5769h-2.9004v2.7832h2.9004zM244.9654,175.3406v14.16h-2.0996v-10.02c-0.48177,0.79427 -1.02864,1.61457 -1.6406,2.4609l-0.99609,-2.1777c1.10027,-1.49087 2.03127,-3.2031 2.793,-5.1367c0.47526,-1.19793 0.94399,-2.62047 1.4062,-4.2676l2.1191,0.53711c-0.50781,1.6992 -1.03515,3.18033 -1.582,4.4434z" fill="#ffffff" fill-rule="nonzero" stroke="none" stroke-width="1" stroke-linecap="butt"/><path d="M272.07,176.02c0.45573,0.23438 0.97983,0.51433 1.5723,0.83985l-1.2402,1.0059h5.8789l1.1035,1.1035c-1.46487,2.20707 -2.92647,4.02023 -4.3848,5.4395l-1.9824,-1.1621c1.28253,-1.17187 2.31117,-2.33723 3.0859,-3.4961h-4.8633v7.6562c0,0.8854 -0.2181,1.4518 -0.65429,1.6992c-0.29297,0.16927 -0.83984,0.25391 -1.6406,0.25391c-1.0482,0 -2.2038,-0.0651 -3.4668,-0.19531l-0.47852,-2.1777c1.21747,0.19531 2.2982,0.29297 3.2422,0.29297c0.35807,0 0.57943,-0.05859 0.66406,-0.17578c0.06513,-0.09766 0.0977,-0.2767 0.0977,-0.53711v-6.8164h-8.1836v-1.8848h10.586c-2.20053,-1.263 -4.40107,-2.3307 -6.6016,-3.2031l1.582,-1.2598c1.47787,0.59245 2.7832,1.16861 3.916,1.7285c1.0026,-0.6836 1.8815,-1.35417 2.6367,-2.0117h-10.439v-1.8555h13.281l1.2012,1.1719c-1.70573,1.37373 -3.3431,2.5684 -4.9121,3.584z" fill="#ffffff" fill-rule="nonzero" stroke="none" stroke-width="1" stroke-linecap="butt"/><path d="M295.60847,186.05587h2.7248v1.37249h-6.57989v1.47341h-1.33212v-11.26251c-0.36331,0.76698 -0.67279,1.38595 -0.92845,1.8569l-0.7468,-1.57433c0.56514,-0.95536 1.07983,-2.09238 1.54405,-3.41105c0.46423,-1.31867 0.8309,-2.69789 1.10001,-4.13766l1.37249,0.28257c-0.21529,0.96882 -0.49114,1.978 -0.82753,3.02756h2.78535c-0.2422,-1.08992 -0.48441,-2.00492 -0.72661,-2.74498l1.17066,-0.30276c0.17493,0.55169 0.46423,1.5676 0.8679,3.04774h2.07892v1.39268h-2.50278v2.7248h2.24039v1.29176h-2.24039v2.70462h2.24039v1.31194h-2.24039zM289.14968,172.33095v1.47341c-0.25566,2.69116 -0.70643,5.09302 -1.35231,7.20558c0.83426,1.93764 1.54742,3.68689 2.13947,5.24776l-1.23121,0.7468c-0.17493,-0.49786 -0.60551,-1.62143 -1.29176,-3.37068l-0.28257,-0.68625c-0.61897,1.62815 -1.47341,3.35722 -2.56333,5.18721l-1.02937,-1.25139c1.21102,-1.93764 2.15293,-3.89546 2.82572,-5.87346c-0.6997,-1.74925 -1.37922,-3.39759 -2.03855,-4.94501l1.15047,-0.56514l1.49359,3.51197c0.41713,-1.69543 0.71316,-3.45141 0.88808,-5.26795h-3.24958v-1.41286zM280.79362,188.25589l1.93764,-7.44779l0.72661,0.18165l0.64588,0.20184l-1.87709,7.46797zM294.27634,186.05587v-2.94682h-2.52296v2.94682zM284.30559,178.38606l-0.96882,1.19084c-0.6997,-0.75353 -1.63488,-1.65506 -2.80554,-2.70462l0.88808,-1.1101c1.3994,1.22448 2.36149,2.09911 2.88627,2.62388zM291.75338,175.07593v2.7248h2.52296v-2.7248zM291.75338,179.09249v2.70462h2.52296v-2.70462zM284.42669,173.17866l-0.92845,1.19084c-0.6997,-0.6997 -1.51378,-1.42632 -2.44223,-2.17984l0.84772,-1.15047c0.86117,0.64588 1.70216,1.35904 2.52296,2.13947z" fill="#ffffff" fill-rule="evenodd" stroke="#ffffff" stroke-width="0.5" stroke-linecap="round"/></g></g></svg>