<svg version="1.1" xmlns="http://www.w3.org/2000/svg" xmlns:xlink="http://www.w3.org/1999/xlink" width="100" height="40" viewBox="0,0,100,40"><g transform="translate(-190,-160)"><g stroke="none" stroke-miterlimit="10"><path d="M190,200v-40h100v40z" fill="none" fill-rule="nonzero" stroke-width="2" stroke-linecap="round" stroke-linejoin="round"/><g stroke-width="1" stroke-linecap="butt" stroke-linejoin="miter"><g fill-rule="evenodd"><path d="M268,164.03c9.3118,0 17,7.0939 17,16c0,8.9061 -7.6882,16 -17,16h-56c-9.3118,0 -17,-7.0939 -17,-16c0,-8.9061 7.6882,-16 17,-16z" fill="#7d97b4"/><path d="M212,166.03h56c8.31,0 15,6.244 15,14c0,7.756 -6.69,14 -15,14h-56c-8.31,0 -15,-6.244 -15,-14c0,-7.756 6.69,-14 15,-14z" fill="#31476d"/></g><g fill="#31476d" fill-rule="nonzero"><path d="M216.977,174.03h1.5928v7.4785h-1.5928zM223.9975,173.8865h1.5928v4.8877c0,1.71807 -0.139,2.99637 -0.41699,3.8349c-0.23242,0.71553 -0.54915,1.2852 -0.9502,1.709c-0.834,0.8978 -2.17383,1.5609 -4.0195,1.9893l-0.78613,-1.4014c2.01887,-0.41013 3.31313,-1.09147 3.8828,-2.044c0.36003,-0.60607 0.5765,-1.37167 0.64941,-2.2968c0.0319,-0.4284 0.04785,-1.02087 0.04785,-1.7774z"/><path d="M230.922,173.83h1.5654v3.2197l6.5693,-0.8819l0.85449,0.8545c-0.50586,1.4128 -1.11883,2.5544 -1.8389,3.4248c-0.49219,0.59707 -1.07552,1.10293 -1.75,1.5176l-1.1895,-0.9912c0.793,-0.44207 1.46747,-1.02313 2.0234,-1.7432c0.38737,-0.50127 0.66993,-1.0185 0.84766,-1.5517l-5.5166,0.7998v4.7168c0,0.54233 0.18685,0.8659 0.56055,0.9707c0.32357,0.09573 1.03907,0.1436 2.1465,0.1436c1.2578,0 2.56347,-0.06837 3.917,-0.2051v1.5586c-1.235,0.09113 -2.50877,0.1367 -3.8213,0.1367c-1.81833,0 -2.94853,-0.09117 -3.3906,-0.2735c-0.65169,-0.26427 -0.97754,-0.89543 -0.97754,-1.8935v-4.9287l-2.8711,0.417l-0.15039,-1.4561l3.0215,-0.4033z"/><path d="M242.946,181.23c-0.32813,-1.40367 -0.77246,-2.70023 -1.333,-3.8897l1.2988,-0.6357c0.57877,1.18487 1.05044,2.5156 1.415,3.9922zM246.1179,180.6147c-0.25521,-1.11653 -0.67447,-2.40853 -1.2578,-3.876l1.3467,-0.5605c0.52409,1.153 0.96159,2.45867 1.3125,3.917zM243.9919,184.8667c1.52213,-0.4056 2.68423,-0.95247 3.4863,-1.6406c0.80207,-0.6882 1.41273,-1.6817 1.832,-2.9805c0.32813,-1.02993 0.56738,-2.35383 0.71777,-3.9717l1.4561,0.4307c-0.27344,2.13733 -0.65397,3.77567 -1.1416,4.915c-0.59245,1.39453 -1.48111,2.47007 -2.666,3.2266c-0.75193,0.48307 -1.71353,0.91143 -2.8848,1.2851z"/><path d="M254.67,173.83h1.5928v3.9239c2.72073,0.83853 4.9743,1.6953 6.7607,2.5703l-0.76562,1.4765c-1.71353,-0.8704 -3.7119,-1.69753 -5.9951,-2.4814v6.9453h-1.5928z"/></g></g><path d="M224.87373,185.80252h14.41884v1.35127h-14.41884v-1.35127M224.95322,175.61235h14.22808v1.35127h-14.22808v-1.35127M226.05013,183.51331h12.20912v1.30358h-12.20912v-1.30358M231.13726,174.1975h1.71691v12.28861h-1.71691v-12.28861M236.89208,172.81443l0.81076,1.31948c-0.75247,0.12718 -1.58443,0.23846 -2.49588,0.33384c-0.91144,0.09538 -1.85998,0.17487 -2.84562,0.23846c-0.98563,0.06359 -1.97656,0.11658 -2.97279,0.15897c-0.99623,0.04239 -1.96067,0.06889 -2.89331,0.07949c0,-0.20137 -0.04027,-0.42923 -0.12082,-0.68358c-0.07843,-0.25436 -0.15473,-0.46632 -0.22892,-0.63589c0.93264,-0.03179 1.88966,-0.06889 2.87105,-0.11128c0.97927,-0.04239 1.94583,-0.09538 2.89967,-0.15897c0.95384,-0.06359 1.85468,-0.14096 2.70254,-0.2321c0.84786,-0.08902 1.60563,-0.19183 2.27331,-0.30841M228.22806,180.69949v0.85845h7.69429v-0.85845h-7.69429M228.22806,178.80771v0.84256h7.69429v-0.84256h-7.69429M226.55884,177.66311h11.11221v5.03944h-11.11221zM250.50017,174.51545v1.06512h2.08255v-1.06512h-2.08255M246.90738,174.51545v1.06512h2.03485v-1.06512h-2.03485M243.36228,174.51545v1.06512h1.98716v-1.06512h-1.98716M241.74076,173.37084h12.55886v3.37023h-12.55886v-3.37023M241.05717,177.47234h13.62398v1.27178h-13.62398v-1.27178M247.00276,176.39133l1.7646,0.09538c-0.07419,0.5617 -0.16957,1.15732 -0.28615,1.78686c-0.11658,0.63165 -0.22786,1.17534 -0.33384,1.63106h-1.58973c0.06359,-0.30735 0.12506,-0.66239 0.18441,-1.06512c0.05723,-0.40273 0.11022,-0.81924 0.15897,-1.24953c0.04663,-0.42817 0.08055,-0.82772 0.10174,-1.19866M240.85051,185.97739h14.27577v1.20819h-14.27577v-1.20819M243.64843,181.17641h8.60044v0.89025h-8.60044v-0.89025M243.71202,182.76614h8.52095v0.87435h-8.52095v-0.87435M243.77561,184.37177h8.55274v0.89025h-8.55274v-0.89025M242.77408,179.4595h10.33324v7.18558h-1.68511v-6.13636h-7.0266v6.13636h-1.62152z" fill="#ffffff" fill-rule="nonzero" stroke-width="1" stroke-linecap="butt" stroke-linejoin="miter"/></g></g></svg>