<svg version="1.1" xmlns="http://www.w3.org/2000/svg" xmlns:xlink="http://www.w3.org/1999/xlink" width="100" height="40" viewBox="0,0,100,40"><g transform="translate(-189.99999,-159.99997)"><g stroke="none" stroke-miterlimit="10"><path d="M189.99999,199.99997v-40h100v40z" fill="none" fill-rule="nonzero" stroke-width="2" stroke-linecap="round" stroke-linejoin="round"/><g fill-rule="evenodd" stroke-width="1" stroke-linecap="butt" stroke-linejoin="miter"><path d="M268,164.03c9.3118,0 17,7.0939 17,16c0,8.9061 -7.6882,16 -17,16h-56c-9.3118,0 -17,-7.0939 -17,-16c0,-8.9061 7.6882,-16 17,-16z" fill="#7d97b4"/><path d="M212,166.03h56c8.31,0 15,6.244 15,14c0,7.756 -6.69,14 -15,14h-56c-8.31,0 -15,-6.244 -15,-14c0,-7.756 6.69,-14 15,-14z" fill="#31476d"/></g><path d="M225.93252,174.09648h12.33526v1.47588h-12.33526v-1.47588M225.06253,177.66966h13.93542v1.49142h-13.93542v-1.49142M228.10751,182.82748h7.89208v1.27392h-7.89208v-1.27392M228.12304,185.37531h7.89208v1.3982h-7.89208v-1.3982M227.05109,180.24857h10.1292v7.05316h-1.75552v-5.67049h-6.71138v5.68603h-1.66231v-7.06869M234.55478,175.49468l1.84874,0.38839c-0.13464,0.29 -0.26928,0.57689 -0.40393,0.86067c-0.13464,0.28585 -0.26928,0.55514 -0.40393,0.80785c-0.13464,0.25478 -0.25893,0.48057 -0.37285,0.67735l-1.58463,-0.38839c0.10357,-0.2175 0.21543,-0.464 0.33557,-0.73949c0.11807,-0.27343 0.22889,-0.55307 0.33246,-0.83892c0.10357,-0.28378 0.18643,-0.5396 0.24857,-0.76746M227.90554,175.88307l1.63124,-0.32625c0.2175,0.32107 0.406,0.68046 0.5655,1.07817c0.16157,0.39978 0.26825,0.74985 0.32003,1.05021l-1.73999,0.40393c-0.04143,-0.31071 -0.13671,-0.67321 -0.28585,-1.08749c-0.15121,-0.41428 -0.31486,-0.78714 -0.49092,-1.11856M230.76409,172.91577l1.72445,-0.27964c0.18643,0.27964 0.35214,0.59242 0.49714,0.93835c0.145,0.348 0.24339,0.65146 0.29518,0.91039l-1.80213,0.35732c-0.04143,-0.26928 -0.12946,-0.58517 -0.26411,-0.94767c-0.13464,-0.3625 -0.28482,-0.68874 -0.45053,-0.97874zM240.56705,174.982h7.31726v1.49142h-7.31726v-1.49142M242.21382,176.59771l1.41374,0.435c-0.19678,0.47643 -0.42464,0.96321 -0.68357,1.46035c-0.25893,0.49714 -0.53132,0.96838 -0.81717,1.41374c-0.28378,0.44535 -0.5655,0.83892 -0.84514,1.1807c-0.0725,-0.08286 -0.17918,-0.19161 -0.32003,-0.32625c-0.13878,-0.13464 -0.28068,-0.26721 -0.42568,-0.39771c-0.145,-0.12843 -0.27446,-0.23407 -0.38839,-0.31693c0.39357,-0.44535 0.77471,-0.97874 1.14342,-1.60017c0.36664,-0.62142 0.67424,-1.23767 0.92281,-1.84874M244.74612,179.06786l1.58463,0.27964c-0.45571,1.69856 -1.09578,3.18997 -1.9202,4.47425c-0.82235,1.28428 -1.83941,2.33552 -3.05119,3.15372c-0.0725,-0.11393 -0.17607,-0.24857 -0.31071,-0.40393c-0.13464,-0.15536 -0.27757,-0.30864 -0.42878,-0.45985c-0.14914,-0.14914 -0.2755,-0.27032 -0.37907,-0.36353c1.14963,-0.68357 2.09938,-1.59809 2.84923,-2.74359c0.75192,-1.14342 1.30395,-2.45566 1.65609,-3.93672M244.79273,177.15699l1.22731,-0.66803c0.24857,0.30035 0.49714,0.62349 0.74571,0.96942c0.24857,0.348 0.47435,0.69289 0.67735,1.03467c0.20093,0.34178 0.35318,0.65249 0.45675,0.93214l-1.32053,0.74571c-0.08286,-0.27964 -0.22061,-0.59346 -0.41325,-0.94146c-0.19057,-0.34593 -0.40496,-0.70324 -0.64317,-1.07196c-0.23821,-0.36664 -0.4816,-0.70014 -0.73017,-1.00049M241.77883,180.51267l1.21178,-0.88553c0.38321,0.38321 0.78506,0.79232 1.20556,1.22731c0.41842,0.435 0.82132,0.88035 1.20867,1.33606c0.38943,0.45571 0.74467,0.89796 1.06574,1.32674c0.32107,0.43085 0.59035,0.82753 0.80785,1.19003l-1.33606,1.04088c-0.18643,-0.3625 -0.435,-0.76435 -0.74571,-1.20556c-0.31071,-0.43914 -0.65767,-0.89485 -1.04088,-1.36713c-0.38321,-0.47021 -0.77885,-0.93317 -1.18692,-1.38888c-0.41014,-0.45571 -0.80681,-0.88035 -1.19003,-1.27392M249.50001,175.54129h5.17335v1.55356h-5.17335v-1.55356M249.65537,172.77595l1.55356,0.24857c-0.17607,1.05642 -0.39564,2.08902 -0.65871,3.0978c-0.26514,1.01085 -0.58725,1.94816 -0.96631,2.81194c-0.377,0.86585 -0.81406,1.6302 -1.3112,2.29305c-0.06214,-0.11393 -0.15536,-0.25375 -0.27964,-0.41946c-0.12428,-0.16571 -0.25582,-0.33143 -0.3946,-0.49714c-0.14086,-0.16571 -0.26825,-0.30035 -0.38218,-0.40393c0.435,-0.55928 0.80785,-1.21488 1.11856,-1.96681c0.31071,-0.74985 0.57482,-1.56495 0.79232,-2.4453c0.2175,-0.88035 0.39357,-1.78659 0.52821,-2.71873M252.35856,176.59771l1.58463,0.18643c-0.24857,1.77106 -0.62349,3.33187 -1.12478,4.68243c-0.50335,1.35263 -1.17449,2.51262 -2.01341,3.47997c-0.83892,0.96942 -1.89016,1.7752 -3.15372,2.41734c-0.0725,-0.10357 -0.17607,-0.23096 -0.31071,-0.38218c-0.13464,-0.14914 -0.27653,-0.3045 -0.42568,-0.46607c-0.15121,-0.1595 -0.28896,-0.28585 -0.41325,-0.37907c1.24285,-0.53857 2.25784,-1.24595 3.04498,-2.12216c0.78714,-0.87414 1.40338,-1.92538 1.84874,-3.15372c0.44535,-1.22628 0.76642,-2.64726 0.96321,-4.26297M249.87287,177.88716c0.25893,1.17035 0.61935,2.27855 1.08128,3.32462c0.45985,1.04606 1.02121,1.9782 1.68406,2.79641c0.66285,0.81821 1.42927,1.4707 2.29927,1.95748c-0.12428,0.10357 -0.261,0.2351 -0.41014,0.3946c-0.15121,0.16157 -0.29207,0.32521 -0.42257,0.49092c-0.12843,0.16571 -0.23407,0.32107 -0.31693,0.46607c-0.92178,-0.59035 -1.72445,-1.33917 -2.40802,-2.24645c-0.68357,-0.90521 -1.26356,-1.94091 -1.73999,-3.10712c-0.47643,-1.16413 -0.86999,-2.41423 -1.1807,-3.75029l1.41374,-0.32625M242.81971,173.25755l1.42927,-0.51267c0.20714,0.27964 0.406,0.59242 0.59657,0.93835c0.19264,0.348 0.33557,0.64628 0.42878,0.89485l-1.49142,0.60589c-0.0725,-0.26928 -0.20196,-0.5831 -0.38839,-0.94146c-0.18643,-0.35628 -0.37803,-0.6846 -0.57482,-0.98496z" fill="#ffffff" fill-rule="nonzero" stroke-width="1" stroke-linecap="butt" stroke-linejoin="miter"/></g></g></svg>