<svg version="1.1" xmlns="http://www.w3.org/2000/svg" xmlns:xlink="http://www.w3.org/1999/xlink" width="148.68252" height="22.44459" viewBox="0,0,148.68252,22.44459"><g transform="translate(-240,-180)"><g stroke="none" stroke-miterlimit="10"><path d="M247.07591,180h134.53071c3.92005,0 7.07591,2.43574 7.07591,5.4613v11.52198c0,3.02556 -3.15586,5.4613 -7.07591,5.4613h-134.53071c-3.92005,0 -7.07591,-2.43574 -7.07591,-5.4613v-11.52198c0,-3.02556 3.15586,-5.4613 7.07591,-5.4613z" fill-opacity="0.7" fill="#000000" fill-rule="evenodd" stroke-width="0"/><path d="M248.72514,193.80773c-0.0123,-0.06768 -0.03384,-0.15566 -0.0646,-0.26396c-0.03076,-0.10706 -0.0646,-0.21904 -0.10152,-0.33594c-0.03691,-0.11691 -0.07075,-0.21842 -0.10152,-0.30456c0.16612,-0.01846 0.34333,-0.05537 0.5316,-0.11075c0.18704,-0.05537 0.4067,-0.13229 0.65896,-0.23073c0.14151,-0.04922 0.34763,-0.12921 0.61836,-0.23996c0.27073,-0.11075 0.57651,-0.24611 0.91738,-0.40609c0.3421,-0.15997 0.69588,-0.34025 1.06136,-0.54083c0.3667,-0.19935 0.71926,-0.40977 1.05767,-0.63128l0.67373,0.69218c-0.71988,0.4307 -1.47175,0.80909 -2.25561,1.13519c-0.7851,0.3261 -1.56527,0.60605 -2.34052,0.83985v0.02769c0,0 -0.03384,0.0123 -0.10152,0.03691c-0.06768,0.02461 -0.14459,0.05353 -0.23073,0.08675c-0.08614,0.03446 -0.16181,0.07322 -0.22704,0.11629c-0.06399,0.04307 -0.09598,0.08614 -0.09598,0.12921M248.72514,193.80773l-0.01846,-0.65527l0.60913,-0.31379l5.90667,-0.26765c0.00615,0.11691 0.02153,0.24734 0.04614,0.39131c0.02461,0.14521 0.04922,0.26088 0.07383,0.34701c-0.93522,0.05537 -1.73816,0.10152 -2.40881,0.13844c-0.67065,0.03691 -1.23671,0.06891 -1.69817,0.09598c-0.46146,0.0283 -0.84109,0.05291 -1.13888,0.07383c-0.29903,0.02215 -0.53591,0.04245 -0.71065,0.06092c-0.17597,0.01846 -0.31317,0.03815 -0.41162,0.05907c-0.09845,0.02215 -0.18151,0.04553 -0.24919,0.07015M249.28812,192.30337c-0.0123,-0.06152 -0.03507,-0.14459 -0.06829,-0.24919c-0.03446,-0.1046 -0.07137,-0.21227 -0.11075,-0.32302c-0.04061,-0.11075 -0.0763,-0.20611 -0.10706,-0.28611c0.08614,-0.0123 0.1772,-0.03999 0.27318,-0.08306c0.09476,-0.04307 0.19443,-0.09537 0.29903,-0.1569c0.07383,-0.04307 0.19381,-0.11691 0.35994,-0.2215c0.16612,-0.1046 0.34763,-0.2295 0.54452,-0.37471c0.19689,-0.14397 0.37839,-0.3021 0.54452,-0.47438l0.75679,0.56298c-0.29534,0.2215 -0.6122,0.43377 -0.95061,0.63681c-0.3384,0.20304 -0.6768,0.37839 -1.01521,0.52606v0.02769c0,0 -0.02584,0.0123 -0.07752,0.03691c-0.05291,0.02461 -0.11444,0.05845 -0.18458,0.10152c-0.07137,0.04307 -0.1329,0.08737 -0.18458,0.1329c-0.05291,0.04676 -0.07937,0.09476 -0.07937,0.14397M249.28812,192.30337v-0.62758l0.46146,-0.25842l2.73183,-0.04614c-0.03691,0.1046 -0.07075,0.23073 -0.10152,0.37839c-0.03076,0.14767 -0.0523,0.26765 -0.0646,0.35994c-0.60913,0.01846 -1.10011,0.03507 -1.47298,0.04984c-0.37163,0.016 -0.66081,0.03015 -0.86754,0.04245c-0.2055,0.0123 -0.35748,0.02584 -0.45592,0.04061c-0.09845,0.016 -0.17535,0.0363 -0.23073,0.06092M251.78923,192.94941h1.00598v1.71663c0,0.22765 -0.032,0.40301 -0.09598,0.52606c-0.06522,0.12306 -0.19012,0.21842 -0.37471,0.28611c-0.17228,0.06152 -0.37963,0.09845 -0.62205,0.11075c-0.24365,0.0123 -0.52853,0.01846 -0.85463,0.01846c-0.03076,-0.12921 -0.07999,-0.27257 -0.14767,-0.43008c-0.06768,-0.15628 -0.13536,-0.29288 -0.20304,-0.40977c0.15382,0.00615 0.30764,0.01046 0.46146,0.01292c0.15382,0.00369 0.28918,0.00554 0.40609,0.00554c0.11691,0 0.19689,0 0.23996,0c0.07383,-0.00615 0.12306,-0.01846 0.14767,-0.03691c0.02461,-0.01846 0.03691,-0.05537 0.03691,-0.11075v-1.68894M253.57969,192.20185l0.6645,-0.47069c0.2215,0.14767 0.45407,0.31503 0.69773,0.50207c0.24242,0.18828 0.47007,0.37593 0.68296,0.56298c0.21166,0.18828 0.38209,0.36548 0.5113,0.5316l-0.71065,0.51683c-0.11691,-0.15997 -0.27688,-0.33717 -0.47992,-0.5316c-0.20304,-0.19319 -0.42455,-0.38824 -0.6645,-0.58513c-0.23996,-0.19689 -0.47376,-0.37224 -0.70141,-0.52606M253.32127,194.22304l0.72911,-0.48915c0.22765,0.11075 0.47253,0.23996 0.73464,0.38762c0.26088,0.14767 0.51437,0.29656 0.76049,0.4467c0.24611,0.15136 0.44916,0.29164 0.60913,0.42085l-0.76602,0.55375c-0.14767,-0.12921 -0.33964,-0.27073 -0.5759,-0.42455c-0.23749,-0.15382 -0.48545,-0.31072 -0.74387,-0.47069c-0.25842,-0.15997 -0.5076,-0.30149 -0.74757,-0.42455M250.03568,193.72466l0.90446,0.36916c-0.19689,0.17843 -0.42269,0.35809 -0.67742,0.53898c-0.25595,0.18212 -0.51745,0.35132 -0.78448,0.5076c-0.26826,0.15751 -0.52545,0.29472 -0.77156,0.41162c-0.05537,-0.06768 -0.12921,-0.14459 -0.2215,-0.23073c-0.0923,-0.08614 -0.18582,-0.17105 -0.28057,-0.25473c-0.09598,-0.08245 -0.18089,-0.14829 -0.25473,-0.1975c0.38147,-0.13536 0.76171,-0.30641 1.14072,-0.51314c0.37778,-0.2055 0.6928,-0.41592 0.94507,-0.63128M251.46621,187.31962h3.69167v0.85831h-3.69167v-0.85831M252.75829,187.85491c0.28303,0.59682 0.72603,1.0872 1.329,1.47113c0.60297,0.38516 1.33823,0.64542 2.20577,0.78079c-0.06768,0.06768 -0.14151,0.15382 -0.2215,0.25842c-0.07999,0.1046 -0.15382,0.20919 -0.2215,0.31379c-0.06768,0.1046 -0.12306,0.20304 -0.16612,0.29534c-0.91062,-0.20919 -1.67233,-0.5556 -2.28515,-1.03921c-0.61159,-0.48238 -1.08966,-1.10812 -1.43422,-1.87722l0.79371,-0.20304M254.96406,187.31962h0.18458l0.1569,-0.02769l0.58144,0.2215c-0.21534,0.64604 -0.52729,1.18872 -0.93584,1.62803c-0.40977,0.44054 -0.89277,0.79924 -1.44898,1.07612c-0.55744,0.27688 -1.16226,0.49222 -1.81446,0.64604c-0.03076,-0.07999 -0.07199,-0.17105 -0.12368,-0.27318c-0.05291,-0.10091 -0.10829,-0.20058 -0.16612,-0.29903c-0.05907,-0.09845 -0.11936,-0.17843 -0.18089,-0.23996c0.44916,-0.07999 0.87247,-0.19259 1.26993,-0.33778c0.39624,-0.14397 0.75741,-0.32364 1.08351,-0.53898c0.3261,-0.21534 0.60913,-0.46454 0.84908,-0.74757c0.23996,-0.28303 0.42147,-0.60913 0.54452,-0.97829v-0.12921M248.40212,187.58726h0.89523v2.77799h-0.89523v-2.77799M249.98954,187.17195h0.89523v3.49786h-0.89523zM258.32349,189.1839h6.04511v3.44249h-6.21124v-0.80294h5.23294v-1.84584h-5.06682v-0.79371M259.37561,187.68878h3.26713v0.78448h-3.26713v-0.78448M258.47115,190.52214h5.47291v0.73834h-5.47291v-0.73834M259.66172,186.97813l1.06136,0.20304c-0.20919,0.35071 -0.45407,0.69342 -0.73464,1.02813c-0.27934,0.33594 -0.59436,0.65589 -0.94507,0.95983c-0.35071,0.30518 -0.74757,0.59005 -1.19057,0.85463c-0.04922,-0.07383 -0.11383,-0.15874 -0.19381,-0.25473c-0.07999,-0.09476 -0.16428,-0.1852 -0.25288,-0.27134c-0.08983,-0.08614 -0.17166,-0.15382 -0.2455,-0.20304c0.41224,-0.21534 0.77833,-0.45223 1.09827,-0.71065c0.31995,-0.25842 0.59682,-0.52606 0.83062,-0.80294c0.2338,-0.27688 0.42455,-0.54452 0.57221,-0.80294M262.41201,187.68878h0.2215l0.1569,-0.04614l0.67373,0.43377c-0.1046,0.19073 -0.23073,0.39193 -0.37839,0.60359c-0.14767,0.21289 -0.30149,0.419 -0.46146,0.61836c-0.15997,0.20058 -0.31379,0.37778 -0.46146,0.5316c-0.0923,-0.07999 -0.21227,-0.16612 -0.35994,-0.25842c-0.14767,-0.0923 -0.27688,-0.16612 -0.38762,-0.2215c0.12921,-0.13536 0.25842,-0.29226 0.38762,-0.47069c0.12921,-0.17843 0.24734,-0.35686 0.3544,-0.53529c0.10829,-0.17843 0.19319,-0.3384 0.25473,-0.47992v-0.17535M259.08951,193.15245h0.99675v1.1721c0,0.12921 0.04123,0.21043 0.12368,0.24365c0.08367,0.03446 0.26088,0.05168 0.5316,0.05168c0.04922,0 0.12798,0 0.23627,0c0.10706,0 0.23134,0 0.37286,0c0.14151,0 0.28303,0 0.42455,0c0.14151,0 0.27257,0 0.39317,0c0.11936,0 0.21289,0 0.28057,0c0.15382,0 0.26765,-0.02153 0.34148,-0.0646c0.07383,-0.04307 0.12613,-0.12921 0.1569,-0.25842c0.03076,-0.12921 0.05537,-0.3261 0.07383,-0.59067c0.06768,0.04922 0.15566,0.0966 0.26396,0.14213c0.10706,0.04676 0.21781,0.08675 0.33225,0.11998c0.11321,0.03446 0.21289,0.06399 0.29903,0.0886c-0.03691,0.38762 -0.10152,0.68419 -0.19381,0.88969c-0.0923,0.20673 -0.23196,0.35009 -0.419,0.43008c-0.18828,0.07999 -0.44546,0.11998 -0.77156,0.11998c-0.05537,0 -0.14582,0 -0.27134,0c-0.12675,0 -0.27011,0 -0.43008,0c-0.15997,0 -0.32118,0 -0.48361,0c-0.16367,0 -0.30702,0 -0.43008,0c-0.12306,0 -0.21227,0 -0.26765,0c-0.41224,0 -0.73218,-0.03569 -0.95983,-0.10706c-0.22765,-0.07015 -0.38455,-0.18828 -0.47069,-0.3544c-0.08614,-0.16612 -0.12921,-0.39993 -0.12921,-0.70141v-1.18133M260.49234,193.01402l0.74757,-0.48915c0.15997,0.12921 0.32302,0.2738 0.48915,0.43377c0.16612,0.15997 0.31871,0.31995 0.45777,0.47992c0.13782,0.15997 0.24672,0.31072 0.32671,0.45223l-0.79371,0.53529c-0.06768,-0.12921 -0.1692,-0.27872 -0.30456,-0.44854c-0.13536,-0.16858 -0.28303,-0.33778 -0.443,-0.5076c-0.15997,-0.16858 -0.31995,-0.32056 -0.47992,-0.45592M263.73179,193.20783l0.86754,-0.34148c0.13536,0.20304 0.27073,0.42455 0.40609,0.6645c0.13536,0.23996 0.25842,0.475 0.36916,0.70511c0.11075,0.23134 0.19073,0.43931 0.23996,0.62389l-0.94138,0.37839c-0.04307,-0.18458 -0.11383,-0.39255 -0.21227,-0.62389c-0.09845,-0.23012 -0.21227,-0.47007 -0.34148,-0.71988c-0.12921,-0.24857 -0.25842,-0.47746 -0.38762,-0.68665M257.95432,193.10631l0.86754,0.37839c-0.07383,0.19073 -0.15813,0.39686 -0.25288,0.61836c-0.09598,0.2215 -0.19443,0.43808 -0.29534,0.64974c-0.10213,0.21289 -0.2055,0.40547 -0.3101,0.57775l-0.92292,-0.45223c0.11691,-0.15997 0.23073,-0.34148 0.34148,-0.54452c0.11075,-0.20304 0.21534,-0.41224 0.31379,-0.62758c0.09845,-0.21534 0.18458,-0.41532 0.25842,-0.5999zM271.71503,187.01505h0.93215v6.48811h-0.93215v-6.48811M268.92782,190.75287l4.83609,-2.04888l0.36916,0.84908l-4.83609,2.07656l-0.36916,-0.87677M269.86919,187.90105h0.94138v6.03588c0,0.17228 0.01538,0.30272 0.04614,0.39131c0.03076,0.08983 0.09537,0.15013 0.19381,0.18089c0.09845,0.03076 0.24304,0.04614 0.43377,0.04614c0.05537,0 0.14582,0 0.27134,0c0.12675,0 0.27011,0 0.43008,0c0.15997,0 0.32179,0 0.48545,0c0.16243,0 0.30948,0 0.44115,0c0.1329,0 0.23012,0 0.29164,0c0.17228,0 0.30149,-0.03261 0.38762,-0.09783c0.08614,-0.06399 0.15074,-0.18212 0.19381,-0.3544c0.04307,-0.17228 0.07383,-0.42147 0.0923,-0.74757c0.11075,0.07999 0.25042,0.15382 0.419,0.2215c0.16982,0.06768 0.3224,0.11383 0.45777,0.13844c-0.04307,0.43685 -0.11383,0.77956 -0.21227,1.02813c-0.09845,0.2498 -0.24611,0.42823 -0.443,0.53529c-0.19689,0.10829 -0.47069,0.16243 -0.8214,0.16243c-0.06152,0 -0.16121,0 -0.29903,0c-0.13906,0 -0.29779,0 -0.47622,0c-0.17843,0 -0.35563,0 -0.5316,0c-0.17474,0 -0.33102,0 -0.46885,0c-0.13906,0 -0.23627,0 -0.29164,0c-0.39378,0 -0.70449,-0.04307 -0.93215,-0.12921c-0.22765,-0.08614 -0.3864,-0.23873 -0.47622,-0.45777c-0.0886,-0.21781 -0.1329,-0.52668 -0.1329,-0.92661v-6.02665M273.57932,188.81474h-0.07383l0.18458,-0.13844l0.18458,-0.11998l0.68296,0.24919l-0.03691,0.16612c0,0.43685 -0.00123,0.83801 -0.00369,1.20348c-0.00369,0.3667 -0.00677,0.69158 -0.00923,0.9746c-0.00369,0.28303 -0.00985,0.51991 -0.01846,0.71065c-0.00985,0.19073 -0.02092,0.33225 -0.03322,0.42455c-0.01846,0.20919 -0.06768,0.3704 -0.14767,0.48361c-0.07999,0.11444 -0.19381,0.19627 -0.34148,0.2455c-0.12921,0.05537 -0.2818,0.08737 -0.45777,0.09598c-0.17474,0.00985 -0.33287,0.01476 -0.47438,0.01476c-0.0123,-0.12306 -0.03877,-0.26642 -0.07937,-0.43008c-0.03938,-0.16243 -0.08367,-0.29595 -0.1329,-0.40054c0.08614,0.00615 0.17843,0.00923 0.27688,0.00923c0.09845,0 0.1692,0 0.21227,0c0.06152,0 0.11075,-0.01415 0.14767,-0.04245c0.03691,-0.02707 0.06152,-0.08367 0.07383,-0.16982c0.0123,-0.04922 0.02153,-0.15566 0.02769,-0.31933c0.00615,-0.16243 0.01046,-0.37901 0.01292,-0.64974c0.00369,-0.27073 0.00554,-0.59866 0.00554,-0.98383c0,-0.38394 0,-0.82509 0,-1.32346M266.2975,189.1839h3.01794v0.93215h-3.01794v-0.93215M267.405,187.13503h0.93215v6.08203h-0.93215v-6.08203M266.18675,193.29089c0.25227,-0.0923 0.54575,-0.20489 0.88046,-0.33778c0.33594,-0.13167 0.68973,-0.27626 1.06136,-0.43377c0.37286,-0.15628 0.74695,-0.31133 1.12227,-0.46515l0.2215,0.87677c-0.49222,0.23996 -0.99245,0.47808 -1.50067,0.71434c-0.50699,0.23749 -0.96968,0.45161 -1.38807,0.64235zM276.39423,187.29192h6.81113v0.71988h-6.81113v-0.71988M276.8003,191.01129h6.85728v0.68296h-6.85728v-0.68296M277.64017,191.98958h5.50982v0.5999h-5.50982v-0.5999M276.78185,192.90327h7.22645v0.6645h-7.22645v-0.6645M277.01258,189.31311h1.94735v0.51683h-1.94735v-0.51683M276.80953,190.1622h2.15963v0.5076h-2.15963v-0.5076M280.61195,190.1622h2.18732v0.5076h-2.18732v-0.5076M280.61195,189.31311h1.96581v0.51683h-1.96581v-0.51683M279.29219,187.59649h0.97829v3.23021h-0.97829v-3.23021M275.80356,188.38097h8.01093v1.6151h-0.95983v-1.02444h-6.13741v1.02444h-0.91369v-1.6151M276.35731,191.01129h0.92292v1.27363c0,0.25842 -0.01538,0.53652 -0.04614,0.83432c-0.03076,0.29903 -0.08798,0.60236 -0.17166,0.91c-0.08245,0.30764 -0.19935,0.6042 -0.35071,0.88969c-0.15013,0.28672 -0.34517,0.54699 -0.58513,0.78079c-0.04922,-0.06152 -0.11691,-0.13413 -0.20304,-0.21781c-0.08614,-0.08245 -0.1772,-0.16243 -0.27318,-0.23996c-0.09476,-0.0763 -0.17905,-0.1329 -0.25288,-0.16982c0.28918,-0.27688 0.50145,-0.57837 0.63681,-0.90446c0.13536,-0.3261 0.22273,-0.65404 0.26211,-0.98383c0.04061,-0.32856 0.06092,-0.63435 0.06092,-0.91738v-1.25517M280.60273,193.25398c0.18458,0.30149 0.44608,0.5519 0.78448,0.75126c0.3384,0.20058 0.74264,0.35748 1.21271,0.47069c0.47131,0.11444 0.99614,0.19012 1.5745,0.22704c-0.08614,0.08614 -0.17535,0.20304 -0.26765,0.35071c-0.0923,0.14767 -0.16612,0.28303 -0.2215,0.40609c-0.63374,-0.06768 -1.19795,-0.18458 -1.69263,-0.35071c-0.49591,-0.16612 -0.9223,-0.38947 -1.27916,-0.67004c-0.35686,-0.27934 -0.65219,-0.62205 -0.88601,-1.02813l0.77525,-0.1569M282.75313,193.49394l0.72911,0.36916c-0.2215,0.14767 -0.45531,0.28425 -0.70141,0.40977c-0.24611,0.12675 -0.47069,0.23627 -0.67373,0.32856l-0.5999,-0.33225c0.13536,-0.07383 0.27872,-0.15566 0.43008,-0.2455c0.15013,-0.0886 0.29779,-0.18089 0.443,-0.27688c0.14397,-0.09476 0.26826,-0.17905 0.37286,-0.25288M277.714,195.6351l-0.04614,-0.64604l0.38762,-0.26765l2.54725,-0.35994c-0.02461,0.11075 -0.04614,0.23811 -0.0646,0.38209c-0.01846,0.14521 -0.02769,0.26396 -0.02769,0.35624c-0.56606,0.0923 -1.02321,0.16736 -1.37146,0.22519c-0.34701,0.05907 -0.6159,0.10706 -0.80663,0.14397c-0.19073,0.03691 -0.32917,0.06768 -0.41532,0.0923c-0.08614,0.02461 -0.15382,0.04922 -0.20304,0.07383M277.714,195.6351c-0.02461,-0.07383 -0.06152,-0.15874 -0.11075,-0.25473c-0.04922,-0.09476 -0.10275,-0.19012 -0.16059,-0.28611c-0.05907,-0.09476 -0.11321,-0.17289 -0.16243,-0.23442c0.1046,-0.05537 0.21658,-0.14951 0.33594,-0.28241c0.1206,-0.13167 0.18089,-0.3021 0.18089,-0.5113v-0.88601l0.95983,0.01846v1.50436c0,0 -0.03569,0.02153 -0.10706,0.0646c-0.07015,0.04307 -0.15628,0.10152 -0.25842,0.17535c-0.10091,0.07383 -0.20366,0.15074 -0.30826,0.23073c-0.1046,0.07999 -0.19259,0.16121 -0.26396,0.24365c-0.07015,0.08367 -0.10521,0.15628 -0.10521,0.21781zM286.96164,190.32833v3.76551h-0.95061v-2.85182h-1.20903v-0.91369h2.15963M284.90353,187.87336l0.74757,-0.53529c0.17228,0.14767 0.35194,0.31195 0.53898,0.49284c0.18828,0.18212 0.36548,0.36055 0.5316,0.53529c0.16612,0.17597 0.30149,0.33778 0.40609,0.48545l-0.80294,0.60913c-0.08614,-0.14767 -0.20919,-0.31379 -0.36916,-0.49837c-0.15997,-0.18458 -0.33225,-0.37409 -0.51683,-0.56852c-0.18458,-0.19319 -0.36301,-0.3667 -0.53529,-0.52052M286.56478,193.68775c0.15997,0 0.31687,0.0523 0.47069,0.1569c0.15382,0.1046 0.36609,0.22457 0.63681,0.35994c0.30764,0.15382 0.66757,0.25534 1.07982,0.30456c0.41224,0.04922 0.86446,0.07383 1.35669,0.07383c0.31995,0 0.6768,-0.008 1.07059,-0.02399c0.39378,-0.01476 0.78448,-0.03753 1.1721,-0.06829c0.38762,-0.03076 0.72911,-0.0646 1.02444,-0.10152c-0.03691,0.08614 -0.07383,0.18766 -0.11075,0.30456c-0.03691,0.11691 -0.07075,0.23504 -0.10152,0.3544c-0.03076,0.1206 -0.04922,0.22397 -0.05537,0.3101c-0.15997,0.0123 -0.36301,0.02461 -0.60913,0.03691c-0.24611,0.0123 -0.51561,0.02277 -0.80847,0.03138c-0.29164,0.00985 -0.57775,0.01784 -0.85831,0.02399c-0.27934,0.00615 -0.53283,0.00923 -0.76049,0.00923c-0.5476,0 -1.02875,-0.03261 -1.44344,-0.09783c-0.41592,-0.06399 -0.79309,-0.18212 -1.13149,-0.3544c-0.20919,-0.11075 -0.3907,-0.2172 -0.54452,-0.31933c-0.15382,-0.10091 -0.28918,-0.15136 -0.40609,-0.15136c-0.1046,0 -0.22581,0.05045 -0.36363,0.15136c-0.13906,0.10213 -0.28241,0.23442 -0.43008,0.39686c-0.14767,0.16367 -0.29841,0.33471 -0.45223,0.51314l-0.5999,-0.84908c0.3261,-0.30764 0.65343,-0.56175 0.98198,-0.76233c0.32979,-0.19935 0.62389,-0.29903 0.88231,-0.29903M288.57674,190.033v0.91369h3.28559v-0.91369h-3.28559M287.67228,189.26697h5.14989v2.4365h-5.14989v-2.4365M287.37695,187.86414h5.7867v0.83062h-5.7867v-0.83062M289.72116,187.02428h0.95983v7.20799h-0.95983v-7.20799M289.47197,191.44506l0.72911,0.25842c-0.17843,0.31995 -0.39378,0.62882 -0.64604,0.92661c-0.25227,0.29903 -0.52729,0.56974 -0.82509,0.81217c-0.29903,0.24365 -0.60543,0.44546 -0.91923,0.60543c-0.04307,-0.07999 -0.10152,-0.16612 -0.17535,-0.25842c-0.07383,-0.0923 -0.15074,-0.18336 -0.23073,-0.27318c-0.07999,-0.0886 -0.15382,-0.16059 -0.2215,-0.21596c0.30149,-0.12306 0.59682,-0.2818 0.88601,-0.47622c0.28918,-0.19319 0.55683,-0.40977 0.80294,-0.64974c0.24611,-0.23996 0.44608,-0.48299 0.5999,-0.72911M289.97035,192.01726l0.56298,-0.59067c0.29534,0.16612 0.6042,0.35378 0.92661,0.56298c0.32364,0.20919 0.63128,0.42147 0.92292,0.63681c0.29288,0.21534 0.5316,0.41532 0.71619,0.5999l-0.60913,0.67373c-0.16612,-0.18458 -0.3907,-0.38947 -0.67373,-0.61466c-0.28303,-0.22397 -0.58636,-0.44854 -0.91,-0.67373c-0.3224,-0.22397 -0.63435,-0.42208 -0.93584,-0.59436zM298.17509,190.5406h3.38711v0.89523h-3.38711v-0.89523M299.37488,191.06666c0.19073,0.54144 0.43869,1.05521 0.74387,1.54128c0.30395,0.48607 0.66635,0.91492 1.0872,1.28655c0.42208,0.37286 0.89154,0.66696 1.40837,0.88231c-0.07383,0.06152 -0.15382,0.14274 -0.23996,0.24365c-0.08614,0.10213 -0.16797,0.2055 -0.2455,0.3101c-0.0763,0.1046 -0.13906,0.19996 -0.18828,0.28611c-0.55375,-0.26457 -1.0472,-0.6122 -1.48036,-1.0429c-0.43439,-0.4307 -0.8134,-0.92476 -1.13704,-1.48221c-0.3224,-0.55622 -0.59129,-1.16041 -0.80663,-1.81261l0.85831,-0.21227M301.31301,190.5406h0.18458l0.18458,-0.02769l0.62758,0.19381c-0.12306,0.74449 -0.32733,1.43176 -0.61282,2.0618c-0.28672,0.63128 -0.65281,1.19118 -1.09827,1.67971c-0.4467,0.48976 -0.98075,0.89462 -1.60218,1.21456c-0.07383,-0.11691 -0.17535,-0.24796 -0.30456,-0.39317c-0.12921,-0.14397 -0.25227,-0.26211 -0.36916,-0.3544c0.4307,-0.20304 0.81524,-0.44792 1.15364,-0.73464c0.3384,-0.28549 0.6325,-0.60851 0.88231,-0.96906c0.24857,-0.35932 0.45285,-0.74818 0.61282,-1.16657c0.15997,-0.41839 0.2738,-0.85523 0.34148,-1.31054v-0.19381M301.06383,187.33807h1.01521c0,0 -0.00123,0.04738 -0.00369,0.14213c-0.00369,0.09598 -0.00861,0.17474 -0.01476,0.23627c-0.01846,0.65219 -0.05415,1.13519 -0.10706,1.44898c-0.05168,0.31379 -0.1329,0.52914 -0.24365,0.64604c-0.09845,0.11075 -0.2135,0.18582 -0.34517,0.22519c-0.1329,0.04061 -0.28241,0.07015 -0.44854,0.0886c-0.15997,0.00615 -0.37102,0.00923 -0.63312,0.00923c-0.26088,0 -0.53898,-0.00615 -0.83432,-0.01846c-0.00615,-0.12306 -0.03261,-0.2615 -0.07937,-0.41532c-0.04553,-0.15382 -0.10213,-0.28611 -0.16982,-0.39686c0.18458,0.0123 0.36117,0.02277 0.52975,0.03138c0.16982,0.00985 0.32118,0.016 0.45407,0.01846c0.13167,0.00369 0.23134,0.00554 0.29903,0.00554c0.0923,0 0.16612,-0.00492 0.2215,-0.01476c0.05537,-0.00861 0.1046,-0.03138 0.14767,-0.06829c0.04307,-0.04922 0.07691,-0.14028 0.10152,-0.27318c0.02461,-0.13167 0.04614,-0.3224 0.0646,-0.57221c0.01846,-0.24857 0.03384,-0.56667 0.04614,-0.9543v-0.13844M293.89275,191.75885c0.28303,-0.06152 0.60112,-0.13536 0.9543,-0.2215c0.3544,-0.08614 0.72726,-0.17843 1.11858,-0.27688c0.39009,-0.09845 0.77895,-0.19996 1.16657,-0.30456l0.11998,0.95983c-0.53529,0.15382 -1.07674,0.3058 -1.62433,0.45592c-0.5476,0.15136 -1.04905,0.28549 -1.50436,0.40239l-0.23073,-1.01521M294.02196,188.80551h3.14715v0.95983h-3.14715v-0.95983M295.23098,187.01505h1.00598v7.48486c0,0.26457 -0.03261,0.46885 -0.09783,0.61282c-0.06399,0.14521 -0.17597,0.25473 -0.33594,0.32856c-0.15997,0.07999 -0.36486,0.13043 -0.61466,0.15136c-0.24857,0.02215 -0.55744,0.03322 -0.92661,0.03322c-0.01846,-0.12921 -0.05661,-0.28611 -0.11444,-0.47069c-0.05907,-0.18458 -0.12244,-0.34148 -0.19012,-0.47069c0.22765,0.00615 0.44484,0.00923 0.65158,0.00923c0.2055,0 0.3421,0 0.40977,0c0.07999,0 0.13536,-0.01415 0.16612,-0.04245c0.03076,-0.02707 0.04614,-0.0806 0.04614,-0.16059v-7.47563M297.47367,187.33807h3.89472v0.92292h-2.91642v7.33719h-0.97829zM304.34018,191.5835l0.92292,-1.21825v5.26063h-0.92292v-4.04238M306.09373,190.39293l0.57221,0.53529c-0.17228,0.16612 -0.34148,0.33225 -0.5076,0.49837c-0.16612,0.16612 -0.31687,0.30456 -0.45223,0.41532l-0.40609,-0.40609c0.12306,-0.13536 0.26334,-0.30641 0.42085,-0.51314c0.15628,-0.2055 0.28057,-0.38209 0.37286,-0.52975M303.25114,188.60247h2.50111v0.89523h-2.50111v-0.89523M305.13389,190.96514c0.06152,0.05537 0.15566,0.15198 0.28241,0.2898c0.12552,0.13906 0.26088,0.29164 0.40609,0.45777c0.14397,0.16612 0.27626,0.31995 0.39686,0.46146c0.11936,0.14151 0.20366,0.24304 0.25288,0.30456l-0.49837,0.76602c-0.06768,-0.12306 -0.15505,-0.26765 -0.26211,-0.43377c-0.10829,-0.16612 -0.22519,-0.3384 -0.35071,-0.51683c-0.12675,-0.17843 -0.24857,-0.34763 -0.36548,-0.5076c-0.11691,-0.15997 -0.21534,-0.28918 -0.29534,-0.38762l0.43377,-0.43377M305.44768,188.60247h0.18458l0.13844,-0.04614l0.48915,0.39686c-0.19073,0.5476 -0.43685,1.08597 -0.73834,1.6151c-0.30149,0.52914 -0.62882,1.01828 -0.98198,1.46744c-0.3544,0.44916 -0.70696,0.82755 -1.05767,1.13519c-0.02461,-0.0923 -0.06152,-0.20182 -0.11075,-0.32856c-0.04922,-0.12552 -0.10152,-0.24672 -0.1569,-0.36363c-0.05537,-0.11691 -0.1046,-0.20611 -0.14767,-0.26765c0.31995,-0.25227 0.63558,-0.56483 0.94691,-0.93768c0.3101,-0.37163 0.59129,-0.77279 0.84355,-1.20348c0.25227,-0.4307 0.44916,-0.85831 0.59067,-1.28285v-0.18458M304.06331,187.4119l0.74757,-0.38762c0.13536,0.19073 0.2738,0.40116 0.41532,0.63128c0.14151,0.23134 0.25227,0.427 0.33225,0.58698l-0.78448,0.47069c-0.06768,-0.17228 -0.17228,-0.38147 -0.31379,-0.62758c-0.14151,-0.24611 -0.2738,-0.47069 -0.39686,-0.67373M307.21969,188.29791h3.87626v0.91369h-3.87626v-0.91369M310.79138,188.29791h0.14767l0.14767,-0.03691l0.69218,0.1569c-0.08614,0.34455 -0.18151,0.69526 -0.28611,1.05213c-0.1046,0.35686 -0.20611,0.66142 -0.30456,0.91369l-0.83062,-0.18458c0.07383,-0.22765 0.15074,-0.50638 0.23073,-0.83616c0.07999,-0.32856 0.14767,-0.64051 0.20304,-0.93584v-0.12921M308.6779,187.01505h0.92292v4.01469h-0.92292v-4.01469M306.73054,188.29791h0.90446v2.4642c0,0.36301 -0.01538,0.75494 -0.04614,1.1758c-0.03076,0.42208 -0.09044,0.85155 -0.17905,1.28839c-0.08983,0.43685 -0.22089,0.85831 -0.39317,1.2644c-0.17228,0.40609 -0.39686,0.77218 -0.67373,1.09827c-0.04922,-0.06768 -0.11813,-0.14336 -0.20673,-0.22704c-0.08983,-0.08245 -0.18089,-0.16243 -0.27318,-0.23996c-0.0923,-0.0763 -0.1692,-0.1329 -0.23073,-0.16982c0.24611,-0.29534 0.44484,-0.6202 0.59621,-0.9746c0.15013,-0.35317 0.26088,-0.71619 0.33225,-1.08904c0.07015,-0.37163 0.11629,-0.7408 0.13844,-1.1075c0.02092,-0.36548 0.03138,-0.70818 0.03138,-1.02813v-2.45496M307.30275,190.59597h3.37788v0.86754h-3.37788v-0.86754M310.52374,190.59597h0.16612l0.16612,-0.03691l0.59067,0.23073c-0.19073,0.86139 -0.475,1.60588 -0.85277,2.23346c-0.37901,0.62758 -0.83309,1.15364 -1.36223,1.57819c-0.52914,0.42455 -1.11673,0.76295 -1.76277,1.01521c-0.05537,-0.11691 -0.13351,-0.25534 -0.23442,-0.41532c-0.10213,-0.15997 -0.19935,-0.28611 -0.29164,-0.37839c0.57837,-0.19689 1.11058,-0.48176 1.59665,-0.85463c0.48607,-0.37163 0.90015,-0.82693 1.24225,-1.36592c0.34086,-0.53776 0.58821,-1.15119 0.74203,-1.8403v-0.16612M308.29027,191.15895c0.19073,0.57837 0.44916,1.1075 0.77525,1.58742c0.3261,0.47992 0.72603,0.88908 1.1998,1.22748c0.47376,0.3384 1.01521,0.59682 1.62433,0.77525c-0.06768,0.06768 -0.13967,0.15074 -0.21596,0.24919c-0.07752,0.09845 -0.15013,0.2012 -0.21781,0.30826c-0.06768,0.10829 -0.12306,0.2055 -0.16612,0.29164c-0.97829,-0.3384 -1.772,-0.86754 -2.38113,-1.58742c-0.60913,-0.71988 -1.07982,-1.59972 -1.41207,-2.63955zM312.68336,187.45805h8.10322v0.88601h-8.10322v-0.88601M316.27351,187.83645h1.0429v3.68244c0,0.36916 -0.03384,0.72418 -0.10152,1.06505c-0.06768,0.3421 -0.19073,0.66696 -0.36916,0.9746c-0.17843,0.30764 -0.42455,0.59189 -0.73834,0.85277c-0.31379,0.26211 -0.71803,0.49591 -1.21271,0.70141c-0.49591,0.20673 -1.09766,0.38394 -1.80523,0.5316c-0.03691,-0.07999 -0.08922,-0.17412 -0.1569,-0.28241c-0.06768,-0.10706 -0.13967,-0.21474 -0.21596,-0.32302c-0.07752,-0.10706 -0.1532,-0.1975 -0.22704,-0.27134c0.68296,-0.11075 1.25209,-0.24796 1.7074,-0.41162c0.45531,-0.16243 0.8214,-0.34517 1.09827,-0.54821c0.27688,-0.20304 0.48607,-0.42639 0.62758,-0.67004c0.14151,-0.24242 0.23565,-0.50083 0.28241,-0.77525c0.04553,-0.27318 0.06829,-0.55744 0.06829,-0.85277v-3.67321M314.42767,191.19587v0.70141h4.78994v-0.70141h-4.78994M314.42767,189.75612v0.68296h4.78994v-0.68296h-4.78994M313.49553,188.95318h6.70961v3.74705h-6.70961v-3.74705M314.5292,192.691c0.31995,0.42455 0.69404,0.76295 1.12227,1.01521c0.427,0.25227 0.91307,0.43993 1.45821,0.56298c0.54391,0.12306 1.15119,0.20427 1.82184,0.24365c0.67065,0.04061 1.40591,0.06399 2.20577,0.07015c-0.08614,0.11075 -0.17044,0.25964 -0.25288,0.4467c-0.08367,0.18828 -0.13782,0.36548 -0.16243,0.5316c-0.82447,-0.02461 -1.59173,-0.0726 -2.30175,-0.14397c-0.71126,-0.07015 -1.36038,-0.19319 -1.94735,-0.36916c-0.58821,-0.17474 -1.11735,-0.42393 -1.58742,-0.74757c-0.47131,-0.3224 -0.87616,-0.7451 -1.21456,-1.26809zM326.80401,190.08837h3.44249v0.91369h-3.44249v-0.91369M321.85716,187.9472h4.12544v0.81217h-4.12544v-0.81217M321.76488,191.62041h4.22697v0.83985h-4.22697v-0.83985M321.7095,190.01454h4.42078v0.8214h-4.42078v-0.8214M328.3822,190.48523h0.95983v5.10373h-0.95983v-5.10373M322.374,188.94395l0.78448,-0.19381c0.08614,0.17228 0.16181,0.36609 0.22704,0.58144c0.06399,0.21534 0.10521,0.39993 0.12368,0.55375l-0.83062,0.2215c-0.0123,-0.15382 -0.04614,-0.34025 -0.10152,-0.55929c-0.05537,-0.21781 -0.12306,-0.419 -0.20304,-0.60359M324.65361,188.74091l0.89523,0.17535c-0.09845,0.25227 -0.19689,0.50145 -0.29534,0.74757c-0.09845,0.24611 -0.19073,0.45838 -0.27688,0.63681l-0.80294,-0.17535c0.05537,-0.12921 0.11259,-0.27564 0.17166,-0.43931c0.05784,-0.16243 0.11444,-0.32671 0.16982,-0.49284c0.05537,-0.16612 0.10152,-0.31687 0.13844,-0.45223M329.24051,187.1258l0.77525,0.72911c-0.31379,0.11691 -0.65835,0.22581 -1.03367,0.32671c-0.37532,0.10213 -0.75679,0.19135 -1.14442,0.26765c-0.38762,0.07752 -0.76602,0.14397 -1.13519,0.19935c-0.01846,-0.11075 -0.05661,-0.23873 -0.11444,-0.38394c-0.05907,-0.14397 -0.11936,-0.26518 -0.18089,-0.36363c0.34455,-0.06152 0.69218,-0.13229 1.0429,-0.21227c0.35071,-0.07999 0.68173,-0.1692 0.99306,-0.26765c0.3101,-0.09845 0.5759,-0.19689 0.7974,-0.29534M323.18617,187.18118l0.88601,-0.21227c0.09845,0.19073 0.19689,0.40424 0.29534,0.64051c0.09845,0.23749 0.1692,0.43931 0.21227,0.60543l-0.92292,0.24919c-0.03691,-0.17228 -0.09967,-0.38024 -0.18828,-0.62389c-0.08983,-0.24242 -0.18396,-0.46208 -0.28241,-0.65896M323.50919,190.53137h0.89523v4.01469c0,0.20919 -0.02277,0.37224 -0.06829,0.48915c-0.04676,0.11691 -0.13475,0.20919 -0.26396,0.27688c-0.12921,0.06768 -0.28425,0.1089 -0.46515,0.12368c-0.18212,0.016 -0.39317,0.02399 -0.63312,0.02399c-0.0123,-0.11691 -0.0443,-0.25227 -0.09598,-0.40609c-0.05291,-0.15382 -0.11014,-0.28918 -0.17166,-0.40609c0.14151,0.00615 0.27872,0.00923 0.41162,0.00923c0.13167,0 0.22211,0 0.27134,0c0.07999,0 0.11998,-0.04307 0.11998,-0.12921v-3.99623M326.40715,187.90105h0.92292v3.23944c0,0.33225 -0.01046,0.69218 -0.03138,1.07982c-0.02215,0.38762 -0.06522,0.77956 -0.12921,1.1758c-0.06522,0.39747 -0.15936,0.77771 -0.28241,1.14072c-0.12306,0.36301 -0.28611,0.69218 -0.48915,0.98752c-0.04922,-0.06152 -0.12121,-0.13105 -0.21596,-0.20858c-0.09598,-0.0763 -0.19319,-0.15013 -0.29164,-0.2215c-0.09845,-0.07015 -0.18151,-0.12368 -0.24919,-0.16059c0.2338,-0.35071 0.40609,-0.74449 0.51683,-1.18133c0.11075,-0.43685 0.18028,-0.88293 0.20858,-1.33823c0.02707,-0.45531 0.04061,-0.87985 0.04061,-1.27363v-3.23944M324.62592,193.01402l0.64604,-0.35994c0.14767,0.21534 0.29226,0.45038 0.43377,0.70511c0.14151,0.25595 0.24919,0.47315 0.32302,0.65158l-0.67373,0.41532c-0.07383,-0.19073 -0.18151,-0.42023 -0.32302,-0.6885c-0.14151,-0.26703 -0.27688,-0.50822 -0.40609,-0.72356M322.43861,192.72792l0.77525,0.20304c-0.11075,0.30764 -0.24919,0.61528 -0.41532,0.92292c-0.16612,0.30764 -0.34148,0.56606 -0.52606,0.77525c-0.07383,-0.06768 -0.17659,-0.14951 -0.30826,-0.2455c-0.1329,-0.09476 -0.2455,-0.16982 -0.33778,-0.22519c0.17228,-0.19073 0.32917,-0.41224 0.47069,-0.6645c0.14151,-0.25227 0.25534,-0.5076 0.34148,-0.76602zM331.68624,187.75338h2.63032v6.16509h-2.63032v-0.88601h1.7074v-4.39309h-1.7074v-0.88601M331.74162,190.36524h1.9289v0.86754h-1.9289v-0.86754M331.21556,187.75338h0.93215v6.91266h-0.93215v-6.91266M334.68572,188.75937h4.81763v0.98752h-4.81763v-0.98752M337.50985,187.07043h1.00598v7.20799c0,0.30764 -0.03999,0.5396 -0.11998,0.69588c-0.07999,0.15751 -0.21842,0.27626 -0.41532,0.35624c-0.19073,0.07999 -0.4473,0.13043 -0.76972,0.15136c-0.32364,0.02215 -0.71619,0.03015 -1.17765,0.02399c-0.01846,-0.14151 -0.06276,-0.30948 -0.1329,-0.50391c-0.07137,-0.19319 -0.14397,-0.35748 -0.21781,-0.49284c0.22765,0.00615 0.44792,0.01046 0.66081,0.01292c0.21166,0.00369 0.39747,0.00554 0.55744,0.00554c0.15997,0 0.2738,0 0.34148,0c0.09845,-0.00615 0.16797,-0.02646 0.20858,-0.06092c0.03938,-0.03322 0.05907,-0.09906 0.05907,-0.1975v-7.19876M334.84262,190.81748l0.8214,-0.43377c0.15382,0.21534 0.31995,0.45038 0.49837,0.70511c0.17843,0.25595 0.34763,0.50514 0.5076,0.74757c0.15997,0.24365 0.28918,0.45469 0.38762,0.63312l-0.87677,0.5076c-0.0923,-0.18458 -0.2135,-0.40178 -0.36363,-0.65158c-0.15136,-0.24857 -0.31317,-0.50514 -0.48545,-0.76972c-0.17228,-0.26457 -0.33533,-0.51068 -0.48915,-0.73834zM347.71733,187.0612l0.51683,0.71988c-0.33225,0.06768 -0.69957,0.12736 -1.10197,0.17905c-0.40362,0.05291 -0.82385,0.09906 -1.2607,0.13844c-0.43685,0.04061 -0.8737,0.07322 -1.31054,0.09783c-0.43685,0.02461 -0.86139,0.04307 -1.27363,0.05537c-0.0123,-0.1046 -0.03999,-0.22642 -0.08306,-0.36548c-0.04307,-0.13782 -0.08614,-0.25288 -0.12921,-0.34517c0.39993,-0.01846 0.81217,-0.04184 1.23671,-0.07015c0.42455,-0.02707 0.84293,-0.06214 1.25517,-0.10521c0.41224,-0.04307 0.80294,-0.08922 1.1721,-0.13844c0.36916,-0.04922 0.69526,-0.1046 0.97829,-0.16612M343.01968,189.35003h5.54674v0.80294h-5.54674v-0.80294M345.29006,187.6611h0.89523v4.11621h-0.89523v-4.11621M345.29929,192.29414h0.8214v2.69492h-0.8214v-2.69492M343.6288,188.43635l0.78448,-0.23996c0.07999,0.15382 0.16489,0.32302 0.25473,0.5076c0.0886,0.18458 0.15444,0.34148 0.1975,0.47069l-0.8214,0.27688c-0.03691,-0.13536 -0.09537,-0.30025 -0.17535,-0.49468c-0.07999,-0.19319 -0.15997,-0.3667 -0.23996,-0.52052M347.16358,188.03026l0.84908,0.23073c-0.13536,0.26457 -0.27195,0.52729 -0.40977,0.78817c-0.13906,0.26211 -0.27011,0.48545 -0.39317,0.67004l-0.72911,-0.2215c0.07999,-0.13536 0.16305,-0.28795 0.24919,-0.45777c0.08614,-0.16858 0.16797,-0.3421 0.2455,-0.52052c0.0763,-0.17843 0.13906,-0.34148 0.18828,-0.48915M344.8286,189.81149l0.76602,0.26765c-0.17228,0.30764 -0.38762,0.5999 -0.64604,0.87677c-0.25842,0.27688 -0.53836,0.52729 -0.83985,0.75126c-0.30149,0.22519 -0.6122,0.40855 -0.93215,0.55006c-0.06768,-0.1046 -0.15997,-0.2295 -0.27688,-0.37471c-0.11691,-0.14397 -0.22457,-0.25903 -0.32302,-0.34517c0.29534,-0.1046 0.58636,-0.24611 0.87308,-0.42455c0.28549,-0.17843 0.54821,-0.37839 0.78817,-0.5999c0.23996,-0.2215 0.43685,-0.45531 0.59067,-0.70141M346.68366,189.81149c0.15382,0.2215 0.34763,0.43808 0.58144,0.64974c0.2338,0.21289 0.48792,0.40547 0.76233,0.57775c0.27318,0.17228 0.54821,0.31379 0.82509,0.42455c-0.09845,0.07999 -0.20735,0.19073 -0.32671,0.33225c-0.1206,0.14151 -0.21781,0.27073 -0.29164,0.38762c-0.28303,-0.14767 -0.56729,-0.33102 -0.85277,-0.55006c-0.28672,-0.21781 -0.55622,-0.459 -0.80847,-0.72356c-0.25227,-0.26457 -0.46454,-0.53529 -0.63681,-0.81217l0.74757,-0.28611M343.45345,191.93421h4.66074v3.6363h-0.92292v-2.90719h-2.86105v2.95334h-0.87677v-3.68244M344.05335,193.25398h3.39634v0.69218h-3.39634v-0.69218M344.05335,194.54606h3.38711v0.71065h-3.38711v-0.71065M340.00174,191.81422c0.35686,-0.09845 0.78756,-0.23258 1.29208,-0.40239c0.50453,-0.16858 1.01213,-0.3421 1.52282,-0.52052l0.1569,0.88601c-0.47376,0.17843 -0.95368,0.35378 -1.43975,0.52606c-0.48607,0.17228 -0.93522,0.32917 -1.34746,0.47069l-0.18458,-0.95983M340.1494,188.79628h2.8149v0.91369h-2.8149v-0.91369M341.17384,187.02428h0.91369v7.54024c0,0.2338 -0.02584,0.41962 -0.07752,0.55744c-0.05291,0.13906 -0.14705,0.24857 -0.28241,0.32856c-0.12921,0.07999 -0.29349,0.13229 -0.49284,0.1569c-0.20058,0.02461 -0.45161,0.03384 -0.7531,0.02769c-0.00615,-0.11691 -0.03507,-0.26642 -0.08675,-0.44854c-0.05291,-0.18089 -0.11014,-0.33594 -0.17166,-0.46515c0.17843,0.00615 0.34148,0.00923 0.48915,0.00923c0.14767,0 0.24919,-0.00308 0.30456,-0.00923c0.05537,0 0.09537,-0.00923 0.11998,-0.02769c0.02461,-0.01846 0.03691,-0.06152 0.03691,-0.12921zM350.8368,187.20886l0.87677,-0.2215c0.08614,0.19073 0.17228,0.40116 0.25842,0.63128c0.08614,0.23134 0.15382,0.43008 0.20304,0.59621l-0.92292,0.26765c-0.03076,-0.17228 -0.08737,-0.37839 -0.16982,-0.61836c-0.08367,-0.23996 -0.16551,-0.45838 -0.2455,-0.65527M349.39704,188.44558h4.09776v0.92292h-4.09776v-0.92292M350.93831,190.36524h1.60588v0.90446h-1.60588v-0.90446M352.22117,190.36524h0.94138c0,0 0,0.02584 0,0.07752c0,0.05291 0,0.11014 0,0.17166c0,0.06152 -0.00308,0.11383 -0.00923,0.1569c-0.0123,0.74449 -0.02584,1.37638 -0.04061,1.89568c-0.016,0.52052 -0.0363,0.94999 -0.06092,1.28839c-0.02461,0.3384 -0.05537,0.60297 -0.0923,0.79371c-0.03691,0.19073 -0.08614,0.32917 -0.14767,0.41532c-0.08614,0.12306 -0.17535,0.21043 -0.26765,0.26211c-0.0923,0.05291 -0.20611,0.0886 -0.34148,0.10706c-0.11075,0.01846 -0.25534,0.03076 -0.43377,0.03691c-0.17843,0.00615 -0.36609,0.00308 -0.56298,-0.00923c-0.00615,-0.12921 -0.032,-0.27995 -0.07752,-0.45223c-0.04676,-0.17228 -0.10398,-0.32302 -0.17166,-0.45223c0.15997,0.0123 0.30641,0.02153 0.43931,0.02769c0.13167,0.00615 0.23442,0.00923 0.30826,0.00923c0.06152,0 0.11383,-0.00923 0.1569,-0.02769c0.04307,-0.01846 0.07999,-0.05537 0.11075,-0.11075c0.03691,-0.05537 0.06953,-0.16305 0.09783,-0.32302c0.02707,-0.15997 0.04984,-0.39378 0.06829,-0.70141c0.01846,-0.30764 0.03384,-0.70449 0.04614,-1.19057c0.0123,-0.48607 0.02461,-1.07982 0.03691,-1.78123v-0.19381M354.40849,188.70399h3.56247v0.92292h-3.56247v-0.92292M354.5377,187.00582l1.01521,0.16612c-0.1046,0.61528 -0.23996,1.21518 -0.40609,1.79969c-0.16612,0.58452 -0.36486,1.12596 -0.59621,1.62433c-0.23012,0.49837 -0.49284,0.93522 -0.78817,1.31054c-0.04307,-0.06768 -0.11075,-0.15074 -0.20304,-0.24919c-0.0923,-0.09845 -0.18582,-0.19689 -0.28057,-0.29534c-0.09598,-0.09845 -0.18089,-0.17843 -0.25473,-0.23996c0.26457,-0.31379 0.49407,-0.68911 0.6885,-1.12596c0.19319,-0.43685 0.35932,-0.90938 0.49837,-1.4176c0.13782,-0.50699 0.24672,-1.0312 0.32671,-1.57265M356.34661,189.24851l0.97829,0.10152c-0.14767,1.03983 -0.36732,1.95966 -0.65896,2.75952c-0.29288,0.79986 -0.6885,1.49205 -1.18688,2.07656c-0.49837,0.58452 -1.12903,1.07366 -1.89198,1.46744c-0.03076,-0.07383 -0.07999,-0.16489 -0.14767,-0.27318c-0.06768,-0.10706 -0.13844,-0.21596 -0.21227,-0.32671c-0.07383,-0.11075 -0.14151,-0.19996 -0.20304,-0.26765c0.70757,-0.31995 1.2847,-0.73526 1.73139,-1.24594c0.44546,-0.51068 0.79433,-1.12288 1.04658,-1.83661c0.25227,-0.71372 0.43377,-1.53205 0.54452,-2.45496M354.87917,189.47001c0.14151,0.80601 0.34333,1.55481 0.60543,2.24638c0.26088,0.6928 0.60236,1.29885 1.02444,1.81815c0.42085,0.52052 0.94199,0.9223 1.56343,1.20533c-0.07383,0.06152 -0.15382,0.14274 -0.23996,0.24365c-0.08614,0.10213 -0.1692,0.20673 -0.24919,0.31379c-0.07999,0.10829 -0.14459,0.2055 -0.19381,0.29164c-0.6645,-0.34455 -1.21518,-0.80601 -1.65202,-1.38438c-0.43685,-0.57837 -0.79063,-1.25701 -1.06136,-2.03596c-0.27073,-0.77771 -0.48915,-1.6311 -0.65527,-2.56017l0.85831,-0.13844M350.35688,188.92549h0.94138v2.2796c0,0.50453 -0.032,1.01213 -0.09598,1.52282c-0.06522,0.51068 -0.19504,1.00721 -0.38947,1.48959c-0.19319,0.48361 -0.48976,0.94384 -0.88969,1.38069c-0.08614,-0.1046 -0.19996,-0.2172 -0.34148,-0.33778c-0.14151,-0.11936 -0.27073,-0.22211 -0.38762,-0.30826c0.34455,-0.38762 0.5999,-0.79371 0.76602,-1.21825c0.16612,-0.42455 0.2738,-0.85216 0.32302,-1.28285c0.04922,-0.4307 0.07383,-0.84908 0.07383,-1.25517zM359.25381,187.7903h7.32797v0.87677h-7.32797v-0.87677M358.73698,189.91301h8.27857v0.88601h-8.27857v-0.88601M360.54589,192.9771h4.68843v0.75679h-4.68843v-0.75679M360.55512,194.49069h4.68843v0.83062h-4.68843v-0.83062M359.91831,191.44506h6.01743v4.19005h-1.0429v-3.36865h-3.987v3.37788h-0.98752v-4.19928M364.376,188.62093l1.09827,0.23073c-0.07999,0.17228 -0.15997,0.34271 -0.23996,0.5113c-0.07999,0.16982 -0.15997,0.32979 -0.23996,0.47992c-0.07999,0.15136 -0.15382,0.28549 -0.2215,0.40239l-0.94138,-0.23073c0.06152,-0.12921 0.12798,-0.27564 0.19935,-0.43931c0.07015,-0.16243 0.13598,-0.32856 0.1975,-0.49837c0.06152,-0.16858 0.11075,-0.32056 0.14767,-0.45592M360.42591,188.85165l0.96906,-0.19381c0.12921,0.19073 0.24181,0.40424 0.33778,0.64051c0.09476,0.23749 0.15751,0.44546 0.18828,0.62389l-1.03367,0.23996c-0.02461,-0.18458 -0.08122,-0.39993 -0.16982,-0.64604c-0.08983,-0.24611 -0.18704,-0.46761 -0.29164,-0.6645M362.12408,187.08888l1.02444,-0.16612c0.11075,0.16612 0.20919,0.35194 0.29534,0.55744c0.08614,0.20673 0.14459,0.38701 0.17535,0.54083l-1.07059,0.21227c-0.02461,-0.15997 -0.07691,-0.34763 -0.1569,-0.56298c-0.07999,-0.21534 -0.1692,-0.40916 -0.26765,-0.58144zM367.9477,188.31637h4.34694v0.88601h-4.34694v-0.88601M368.92599,189.2762l0.83985,0.25842c-0.11691,0.28303 -0.25227,0.57221 -0.40609,0.86754c-0.15382,0.29534 -0.31503,0.57529 -0.48361,0.83985c-0.16982,0.26457 -0.33778,0.49837 -0.50391,0.70141c-0.04307,-0.04922 -0.10583,-0.11383 -0.18828,-0.19381c-0.08367,-0.07999 -0.16858,-0.15874 -0.25473,-0.23627c-0.08614,-0.0763 -0.16305,-0.13906 -0.23073,-0.18828c0.2338,-0.26457 0.46023,-0.58144 0.67927,-0.95061c0.21781,-0.36916 0.40054,-0.73526 0.54821,-1.09827M370.43035,190.74364l0.94138,0.16612c-0.27073,1.00905 -0.65035,1.89506 -1.13888,2.65801c-0.48976,0.76295 -1.09458,1.38746 -1.81446,1.87353c-0.04307,-0.06768 -0.1046,-0.14767 -0.18458,-0.23996c-0.07999,-0.0923 -0.16489,-0.18336 -0.25473,-0.27318c-0.0886,-0.0886 -0.16367,-0.16059 -0.22519,-0.21596c0.68296,-0.40609 1.24778,-0.94937 1.69448,-1.62987c0.44546,-0.67927 0.77279,-1.45883 0.98198,-2.33868M370.45804,189.60845l0.72911,-0.39686c0.14767,0.17843 0.29534,0.3704 0.443,0.5759c0.14767,0.20673 0.2818,0.41162 0.40239,0.61466c0.11936,0.20304 0.20981,0.38762 0.27134,0.55375l-0.78448,0.443c-0.04922,-0.16612 -0.13043,-0.35256 -0.24365,-0.55929c-0.11444,-0.2055 -0.24242,-0.41778 -0.38394,-0.63681c-0.14151,-0.21781 -0.28611,-0.41592 -0.43377,-0.59436M368.66757,191.60196l0.71988,-0.52606c0.22765,0.22765 0.46577,0.47069 0.71434,0.72911c0.2498,0.25842 0.49038,0.52298 0.72172,0.79371c0.23012,0.27073 0.44054,0.53345 0.63128,0.78817c0.19073,0.25595 0.35071,0.4916 0.47992,0.70696l-0.79371,0.61836c-0.11075,-0.21534 -0.25842,-0.45407 -0.443,-0.71619c-0.18458,-0.26088 -0.3907,-0.5316 -0.61836,-0.81217c-0.22765,-0.27934 -0.46269,-0.55436 -0.70511,-0.82509c-0.24365,-0.27073 -0.4793,-0.52298 -0.70696,-0.75679M373.25447,188.64862h3.07331v0.92292h-3.07331v-0.92292M373.34677,187.00582l0.92292,0.14767c-0.1046,0.62758 -0.23504,1.24101 -0.39131,1.8403c-0.15751,0.60052 -0.34825,1.15734 -0.57221,1.67049c-0.22519,0.51437 -0.48545,0.96845 -0.78079,1.36223c-0.03691,-0.06768 -0.0923,-0.15074 -0.16612,-0.24919c-0.07383,-0.09845 -0.15198,-0.19689 -0.23442,-0.29534c-0.08367,-0.09845 -0.15936,-0.17843 -0.22704,-0.23996c0.25842,-0.33225 0.47992,-0.72172 0.6645,-1.16842c0.18458,-0.44546 0.34148,-0.92969 0.47069,-1.45267c0.12921,-0.52298 0.2338,-1.06136 0.31379,-1.6151M374.95264,189.2762l0.94138,0.11075c-0.14767,1.05213 -0.37102,1.97935 -0.67004,2.78167c-0.29779,0.80356 -0.69588,1.49266 -1.19425,2.06734c-0.49837,0.5759 -1.12288,1.05459 -1.87353,1.43606c-0.04307,-0.06152 -0.1046,-0.1372 -0.18458,-0.22704c-0.07999,-0.0886 -0.16489,-0.18089 -0.25473,-0.27688c-0.0886,-0.09476 -0.16982,-0.16982 -0.24365,-0.22519c0.73834,-0.31995 1.34131,-0.74018 1.80892,-1.2607c0.46761,-0.51929 0.8337,-1.1438 1.09827,-1.87353c0.26457,-0.72849 0.45531,-1.57265 0.57221,-2.53249M373.47598,190.04222c0.15382,0.69526 0.36732,1.35362 0.64051,1.97504c0.27442,0.62143 0.60851,1.17518 1.00229,1.66125c0.39378,0.48607 0.84908,0.8737 1.36592,1.16287c-0.07383,0.06152 -0.15566,0.13967 -0.2455,0.23442c-0.0886,0.09598 -0.17105,0.19319 -0.24734,0.29164c-0.07752,0.09845 -0.1409,0.19073 -0.19012,0.27688c-0.5476,-0.35071 -1.02444,-0.79555 -1.43052,-1.33454c-0.40609,-0.53776 -0.75064,-1.15303 -1.03367,-1.84584c-0.28303,-0.69158 -0.51683,-1.43422 -0.70141,-2.22793l0.83985,-0.19381M369.28592,187.29192l0.84908,-0.30456c0.12306,0.16612 0.24181,0.35194 0.35624,0.55744c0.11321,0.20673 0.1975,0.38394 0.25288,0.5316l-0.88601,0.35994c-0.04307,-0.15997 -0.11998,-0.34641 -0.23073,-0.55929c-0.11075,-0.21166 -0.22457,-0.4067 -0.34148,-0.58513z" fill="#ffffff" fill-rule="nonzero" stroke-width="1"/></g></g></svg>