<svg version="1.1" xmlns="http://www.w3.org/2000/svg" xmlns:xlink="http://www.w3.org/1999/xlink" width="208" height="32" viewBox="0,0,208,32"><g transform="translate(-240,-164)"><g stroke="none" stroke-miterlimit="10"><path d="M241.15678,172.48888h17.62457v1.98923h-17.62457v-1.98923M245.45352,180.88342h9.05099v1.67095h-9.05099v-1.67095M245.03578,184.06619h9.88647v1.73063h-9.88647v-1.73063M248.89488,181.69901h2.02901v7.10155h-2.02901v-7.10155M241.99226,176.14906h14.40202v1.96934h-12.25365v11.15957h-2.14837v-13.12891M255.77762,176.14906h2.18815v10.92087c0,0.54372 -0.07559,0.95748 -0.22677,1.24128c-0.15383,0.28645 -0.42304,0.50261 -0.80763,0.64849c-0.38458,0.14588 -0.86863,0.23473 -1.45214,0.26656c-0.58351,0.03448 -1.27311,0.05172 -2.0688,0.05172c-0.05305,-0.26523 -0.14853,-0.57422 -0.28645,-0.92698c-0.14057,-0.3501 -0.2838,-0.65114 -0.42967,-0.90311c0.35806,0.01326 0.71612,0.02652 1.07418,0.03978c0.35806,0.01326 0.68032,0.01591 0.96677,0.00796c0.2838,-0.00531 0.47211,-0.00796 0.56494,-0.00796c0.18566,-0.01326 0.31165,-0.05039 0.37795,-0.1114c0.06631,-0.05835 0.09946,-0.16047 0.09946,-0.30634v-10.92087M246.28899,178.67538l1.69084,-0.49731c0.23871,0.33154 0.46813,0.70286 0.68827,1.11397c0.21749,0.41111 0.37928,0.7758 0.48537,1.09408l-1.79031,0.59677c-0.07957,-0.31828 -0.22545,-0.69623 -0.43763,-1.13386c-0.21219,-0.43763 -0.42437,-0.82885 -0.63655,-1.17364M252.01797,178.19797l1.8102,0.5172c-0.26523,0.47741 -0.53046,0.9482 -0.79569,1.41235c-0.26523,0.46415 -0.52383,0.86863 -0.7758,1.21343l-1.51181,-0.45752c0.15914,-0.25197 0.3143,-0.53709 0.46548,-0.85537c0.15383,-0.31828 0.30369,-0.63655 0.44957,-0.95483c0.14588,-0.31828 0.26523,-0.61003 0.35806,-0.87526M248.81532,170.83782h2.34729v6.68381h-2.34729zM261.06896,176.18884h17.64446v2.20804h-17.64446v-2.20804M271.13446,177.084c0.41111,1.53834 0.97207,2.97323 1.68289,4.30469c0.70817,1.33411 1.58608,2.50112 2.63374,3.50104c1.04766,1.00257 2.26772,1.78898 3.66018,2.35923c-0.1724,0.14588 -0.35806,0.34082 -0.55698,0.58483c-0.19892,0.24666 -0.39122,0.492 -0.57688,0.73601c-0.18566,0.24666 -0.33817,0.47609 -0.45752,0.68827c-1.48529,-0.70286 -2.77564,-1.62188 -3.87104,-2.75707c-1.09275,-1.13253 -2.01708,-2.44808 -2.77298,-3.94663c-0.75591,-1.49855 -1.38583,-3.15624 -1.88977,-4.97307l2.14837,-0.49731M268.66782,170.75825h2.3274c0,0.96809 -0.02254,2.00249 -0.06763,3.1032c-0.04774,1.10071 -0.15118,2.22396 -0.31032,3.36975c-0.15914,1.14845 -0.41774,2.28894 -0.7758,3.42147c-0.35806,1.13519 -0.85537,2.22926 -1.49192,3.28223c-0.63655,1.05562 -1.44816,2.03697 -2.43482,2.94406c-0.98931,0.90974 -2.19346,1.70278 -3.61244,2.37912c-0.1724,-0.29175 -0.41111,-0.60738 -0.71612,-0.94687c-0.30501,-0.33684 -0.61003,-0.61799 -0.91505,-0.84343c1.3792,-0.62329 2.53295,-1.33941 3.46126,-2.14837c0.92831,-0.80895 1.68421,-1.69084 2.26772,-2.64567c0.58351,-0.95483 1.03175,-1.94944 1.34472,-2.98384c0.31032,-1.0344 0.52516,-2.07278 0.64451,-3.11513c0.11935,-1.0397 0.19229,-2.05421 0.21882,-3.04352c0.02652,-0.98666 0.04641,-1.91099 0.05968,-2.77298zM283.1693,181.40062v-1.65106l1.25321,-0.73601h12.92999v2.08869h-11.89559c-0.37132,0 -0.71877,0.00928 -1.04236,0.02785c-0.32623,0.02122 -0.5981,0.05437 -0.81558,0.09946c-0.22014,0.04774 -0.36337,0.10477 -0.42967,0.17107M289.63429,176.38777h2.16826v10.28431c0,0.55698 -0.06631,0.99727 -0.19892,1.32085c-0.13262,0.32623 -0.39785,0.57555 -0.79569,0.74795c-0.37132,0.18566 -0.82885,0.30104 -1.37257,0.34613c-0.54372,0.04774 -1.18028,0.07161 -1.90966,0.07161c-0.02652,-0.21219 -0.0862,-0.45089 -0.17903,-0.71612c-0.09283,-0.26523 -0.18831,-0.52781 -0.28645,-0.78773c-0.10079,-0.25727 -0.20423,-0.48537 -0.31032,-0.68429c0.5172,0.01326 1.01451,0.02254 1.49192,0.02785c0.47741,0.00796 0.80232,0.00531 0.97472,-0.00796c0.15914,0 0.26921,-0.02652 0.33021,-0.07957c0.05835,-0.05305 0.08753,-0.14588 0.08753,-0.27849v-10.24453M284.56176,182.39524l2.14837,0.59677c-0.30501,0.70286 -0.66971,1.40174 -1.09408,2.09665c-0.42437,0.69756 -0.87128,1.35135 -1.34074,1.96138c-0.47211,0.61003 -0.9535,1.14049 -1.44418,1.59138c-0.13262,-0.11935 -0.30767,-0.26921 -0.52516,-0.44957c-0.22014,-0.1777 -0.44294,-0.3501 -0.66838,-0.5172c-0.22545,-0.16444 -0.42437,-0.29971 -0.59677,-0.4058c0.71612,-0.58351 1.38981,-1.31289 2.02106,-2.18815c0.6286,-0.87526 1.12856,-1.77041 1.49988,-2.68546M293.01598,183.25061l1.8102,-0.85537c0.47741,0.49068 0.97207,1.03042 1.48396,1.61923c0.50924,0.59146 0.98666,1.17497 1.43224,1.75052c0.44294,0.5782 0.79702,1.09938 1.06225,1.56353l-1.94944,1.01451c-0.23871,-0.46415 -0.56627,-0.99196 -0.98268,-1.58343c-0.41906,-0.58881 -0.87659,-1.19221 -1.37257,-1.8102c-0.49863,-0.61533 -0.99329,-1.1816 -1.48396,-1.6988M281.25964,173.30446h17.00791v2.04891h-17.00791v-2.04891M283.1693,181.40062c-0.03978,-0.14588 -0.10211,-0.35143 -0.18699,-0.61666c-0.08753,-0.26523 -0.18434,-0.54107 -0.29043,-0.82752c-0.10609,-0.2838 -0.20555,-0.52516 -0.29838,-0.72408c0.26523,-0.07957 0.52118,-0.24534 0.76784,-0.49731c0.24401,-0.25197 0.52516,-0.59014 0.84343,-1.01451c0.1724,-0.19892 0.41509,-0.53709 0.72806,-1.01451c0.31032,-0.47741 0.65512,-1.04501 1.0344,-1.70278c0.37663,-0.65512 0.75723,-1.36063 1.14182,-2.11654c0.38458,-0.75591 0.73601,-1.52508 1.05429,-2.30751l2.3274,0.85537c-0.50394,1.08745 -1.06092,2.155 -1.67095,3.20266c-0.61003,1.04766 -1.23597,2.04228 -1.87783,2.98384c-0.64451,0.94157 -1.27841,1.79031 -1.9017,2.54621v0.03978c0,0 -0.0862,0.04244 -0.2586,0.12731c-0.1724,0.08753 -0.36469,0.19362 -0.57688,0.31828c-0.21219,0.12731 -0.40448,0.25727 -0.57688,0.38989c-0.1724,0.13262 -0.2586,0.25197 -0.2586,0.35806zM316.21039,179.35172h2.10858c0,0 -0.00265,0.05305 -0.00796,0.15914c-0.00796,0.10609 -0.01194,0.22545 -0.01194,0.35806c0,0.13262 -0.00663,0.25197 -0.01989,0.35806c-0.09283,1.77704 -0.19229,3.21857 -0.29838,4.32458c-0.10609,1.10866 -0.23208,1.96138 -0.37795,2.55815c-0.14588,0.59677 -0.32491,1.02114 -0.53709,1.27311c-0.22545,0.26523 -0.46681,0.45089 -0.72408,0.55698c-0.25993,0.10609 -0.56229,0.17903 -0.90709,0.21882c-0.29175,0.03978 -0.67236,0.05968 -1.14182,0.05968c-0.47211,0 -0.96677,-0.00663 -1.48396,-0.01989c-0.02652,-0.29175 -0.09548,-0.62329 -0.20688,-0.99461c-0.11405,-0.37132 -0.25064,-0.68297 -0.40978,-0.93494c0.49068,0.03978 0.9482,0.06233 1.37257,0.06763c0.42437,0.00796 0.73601,0.01194 0.93494,0.01194c0.1724,0 0.31562,-0.01326 0.42967,-0.03978c0.1114,-0.02652 0.22014,-0.09283 0.32623,-0.19892c0.14588,-0.15914 0.27849,-0.50394 0.39785,-1.0344c0.11935,-0.53046 0.22279,-1.31289 0.31032,-2.34729c0.08487,-1.0344 0.1671,-2.38044 0.24666,-4.03813v-0.33817M306.3836,181.85815h1.96934v4.71447h-1.96934v-4.71447M311.35667,182.63395h1.94944v5.54995h-1.94944v-5.54995M301.58955,182.67373h1.94944v3.18277h8.63325v1.77041h-10.5827v-4.95318M313.98245,172.4292h1.98923c0,0 0,0.09283 0,0.27849c0,0.18566 -0.00663,0.33817 -0.01989,0.45752c-0.06631,0.99461 -0.13527,1.82346 -0.20688,2.48654c-0.07426,0.66308 -0.16047,1.18691 -0.2586,1.57149c-0.10079,0.38458 -0.23738,0.66308 -0.40978,0.83548c-0.15914,0.19892 -0.33419,0.34082 -0.52516,0.42569c-0.19362,0.08753 -0.41641,0.14455 -0.66838,0.17107c-0.21219,0.03978 -0.4867,0.06233 -0.82354,0.06763c-0.3395,0.00796 -0.70154,0.00531 -1.08612,-0.00796c-0.02652,-0.29175 -0.0862,-0.61401 -0.17903,-0.96677c-0.09283,-0.3501 -0.21219,-0.65114 -0.35806,-0.90311c0.30501,0.02652 0.58351,0.04641 0.83548,0.05968c0.25197,0.01326 0.44426,0.01989 0.57688,0.01989c0.11935,0 0.22545,-0.01326 0.31828,-0.03978c0.09283,-0.02652 0.1724,-0.07957 0.23871,-0.15914c0.13262,-0.14588 0.24534,-0.5172 0.33817,-1.11397c0.09283,-0.59677 0.1724,-1.57149 0.23871,-2.92417v-0.2586M308.13412,170.67868l2.54621,0.21882c-0.21219,0.49068 -0.45089,0.96411 -0.71612,1.42031c-0.26523,0.45885 -0.50394,0.85404 -0.71612,1.18558l-1.88977,-0.33817c0.14588,-0.37132 0.29573,-0.78906 0.44957,-1.25321c0.15118,-0.46415 0.25993,-0.87526 0.32623,-1.23332M305.94597,176.20874l1.05429,-1.35268c0.46415,0.15914 0.96146,0.35143 1.49192,0.57688c0.53046,0.22545 1.03838,0.45752 1.52375,0.69623c0.48272,0.23871 0.88322,0.46415 1.20149,0.67634l-1.11397,1.49192c-0.29175,-0.21219 -0.67634,-0.44426 -1.15375,-0.69623c-0.47741,-0.25197 -0.97737,-0.50129 -1.49988,-0.74795c-0.52516,-0.24401 -1.02644,-0.45885 -1.50386,-0.64451M314.59911,172.4292v1.90966h-9.46873v5.01286h11.71656v1.86988h-13.80525v-8.79239zM328.8221,176.38777h9.8069v1.98923h-9.8069v-1.98923M333.07905,177.30281h2.10858v8.57358h-2.10858v-8.57358M325.02267,177.87969v7.95692h-2.08869v-5.84833h-2.38707v-2.10858h4.47576M327.64845,171.912h2.16826v4.3962c0,0.71612 -0.02652,1.49457 -0.07957,2.33535c-0.05305,0.84343 -0.15516,1.70278 -0.30634,2.57804c-0.15383,0.87526 -0.37265,1.724 -0.65645,2.54621c-0.28645,0.82221 -0.65512,1.56486 -1.10601,2.22794c-0.11935,-0.11935 -0.29441,-0.26523 -0.52516,-0.43763c-0.2334,-0.1724 -0.46946,-0.33552 -0.70817,-0.48935c-0.23871,-0.15118 -0.43763,-0.26656 -0.59677,-0.34613c0.55698,-0.82221 0.96146,-1.72798 1.21343,-2.71729c0.25197,-0.98666 0.41509,-1.97729 0.48935,-2.97191c0.07161,-0.99461 0.10742,-1.90303 0.10742,-2.72524v-4.3962M336.59998,170.77814l1.75052,1.59138c-0.91505,0.29175 -1.94281,0.53046 -3.0833,0.71612c-1.14049,0.18566 -2.31679,0.32756 -3.52889,0.42569c-1.21476,0.10079 -2.38575,0.16444 -3.51298,0.19097c-0.03978,-0.25197 -0.11538,-0.55433 -0.22677,-0.90709c-0.11405,-0.3501 -0.23075,-0.64451 -0.3501,-0.88322c0.80895,-0.03978 1.62852,-0.09018 2.45869,-0.15118c0.82752,-0.05835 1.6431,-0.13394 2.44675,-0.22677c0.801,-0.09283 1.54629,-0.2029 2.23589,-0.33021c0.6896,-0.12466 1.293,-0.26656 1.8102,-0.42569M323.92859,184.76242c0.23871,0 0.46017,0.0557 0.6644,0.1671c0.20688,0.11405 0.43896,0.25993 0.69623,0.43763c0.25993,0.18036 0.58218,0.37663 0.96677,0.58881c0.66308,0.38458 1.44285,0.62992 2.33933,0.73601c0.89383,0.10609 1.89772,0.15914 3.01169,0.15914c0.54372,0 1.13784,-0.00663 1.78235,-0.01989c0.64186,-0.01326 1.29433,-0.03978 1.9574,-0.07957c0.66308,-0.03978 1.30361,-0.09018 1.9216,-0.15118c0.61533,-0.05835 1.17497,-0.12068 1.67891,-0.18699c-0.07957,0.18566 -0.16577,0.41774 -0.2586,0.69623c-0.09283,0.27849 -0.1724,0.55301 -0.23871,0.82354c-0.06631,0.27319 -0.10609,0.50924 -0.11935,0.70817c-0.35806,0.02652 -0.81558,0.05305 -1.37257,0.07957c-0.55698,0.02652 -1.16038,0.04907 -1.8102,0.06763c-0.64982,0.02122 -1.28902,0.03846 -1.91762,0.05172c-0.63125,0.01326 -1.19884,0.01989 -1.70278,0.01989c-1.24658,0 -2.31679,-0.07294 -3.21062,-0.21882c-0.89648,-0.14588 -1.70278,-0.41774 -2.4189,-0.81558c-0.45089,-0.25197 -0.84211,-0.50792 -1.17364,-0.76784c-0.33154,-0.25727 -0.61003,-0.38591 -0.83548,-0.38591c-0.21219,0 -0.44426,0.12201 -0.69623,0.36602c-0.25197,0.24666 -0.5172,0.56229 -0.79569,0.94687c-0.27849,0.38458 -0.55035,0.78243 -0.81558,1.19354l-1.43224,-2.02901c0.67634,-0.71612 1.35002,-1.293 2.02106,-1.73063c0.66838,-0.43763 1.25454,-0.65645 1.75848,-0.65645M320.90497,172.15071l1.65106,-1.05429c0.35806,0.3448 0.72938,0.72275 1.11397,1.13386c0.38458,0.41111 0.74928,0.81824 1.09408,1.22139c0.3448,0.4058 0.62329,0.77447 0.83548,1.10601l-1.75052,1.21343c-0.18566,-0.33154 -0.44426,-0.70949 -0.7758,-1.13386c-0.33154,-0.42437 -0.68695,-0.85272 -1.06623,-1.28504c-0.37663,-0.42967 -0.74397,-0.83017 -1.10203,-1.20149zM347.69988,176.20874h1.98923c-0.09283,0.83548 -0.19229,1.71339 -0.29838,2.63374c-0.10609,0.923 -0.22147,1.83805 -0.34613,2.74514c-0.12731,0.90974 -0.24799,1.77174 -0.36204,2.586c-0.1114,0.81691 -0.22014,1.53701 -0.32623,2.1603h-2.0688c0.13262,-0.64982 0.26523,-1.38981 0.39785,-2.21998c0.13262,-0.82752 0.26258,-1.69615 0.38989,-2.60589c0.12466,-0.90709 0.24003,-1.8155 0.34613,-2.72524c0.10609,-0.90709 0.19892,-1.76511 0.27849,-2.57406M350.68372,178.51624l1.11397,-0.71612c0.35806,0.27849 0.72938,0.6034 1.11397,0.97472c0.38458,0.37132 0.68297,0.69623 0.89515,0.97472l-1.17364,0.81558c-0.18566,-0.29175 -0.46813,-0.6339 -0.84741,-1.02644c-0.37663,-0.38989 -0.74397,-0.73071 -1.10203,-1.02246M350.14663,182.63395l1.17364,-0.73601c0.39785,0.30501 0.81161,0.65645 1.24128,1.05429c0.43233,0.39785 0.76784,0.75591 1.00655,1.07418l-1.21343,0.83548c-0.22545,-0.30501 -0.55035,-0.66971 -0.97472,-1.09408c-0.42437,-0.42437 -0.83548,-0.80232 -1.23332,-1.13386M347.97837,172.80715h10.28431v1.92955h-10.28431v-1.92955M348.53535,176.20874h7.57896v1.83009h-7.57896v-1.83009M345.19345,180.18719h13.58643v1.92955h-13.58643v-1.92955M347.36171,184.50382h10.90097v1.83009h-10.90097v-1.83009M348.09772,170.71846l2.0688,0.53709c-0.26523,0.82221 -0.58748,1.64045 -0.96677,2.45471c-0.37663,0.81691 -0.77713,1.58343 -1.20149,2.29955c-0.42437,0.71612 -0.85537,1.34605 -1.293,1.88977c-0.13262,-0.11935 -0.3143,-0.25197 -0.54505,-0.39785c-0.2334,-0.14588 -0.46283,-0.29175 -0.68827,-0.43763c-0.22545,-0.14588 -0.42437,-0.26523 -0.59677,-0.35806c0.45089,-0.47741 0.87924,-1.03838 1.28504,-1.68289c0.40315,-0.64186 0.77049,-1.33146 1.10203,-2.0688c0.33154,-0.73469 0.61003,-1.47999 0.83548,-2.23589M355.49766,176.20874h1.98923c0,0 -0.00265,0.05968 -0.00796,0.17903c-0.00796,0.11935 -0.01194,0.24799 -0.01194,0.38591c0,0.14057 -0.00663,0.25727 -0.01989,0.3501c-0.07957,1.8964 -0.15914,3.50369 -0.23871,4.82189c-0.07957,1.32085 -0.16975,2.40564 -0.27054,3.25438c-0.09813,0.84874 -0.20953,1.51181 -0.33419,1.98923c-0.12731,0.47741 -0.27717,0.82221 -0.44957,1.0344c-0.22545,0.30501 -0.4615,0.51322 -0.70817,0.62462c-0.24401,0.11405 -0.52516,0.1976 -0.84343,0.25064c-0.29175,0.03978 -0.66308,0.05968 -1.11397,0.05968c-0.45089,0 -0.92168,-0.01326 -1.41235,-0.03978c-0.01326,-0.26523 -0.06631,-0.56361 -0.15914,-0.89515c-0.09283,-0.33154 -0.21882,-0.62329 -0.37795,-0.87526c0.46415,0.03978 0.88852,0.06631 1.27311,0.07957c0.38458,0.01326 0.66971,0.01989 0.85537,0.01989c0.1724,0 0.31165,-0.02387 0.41774,-0.07161c0.10609,-0.04509 0.21219,-0.12731 0.31828,-0.24666c0.13262,-0.14588 0.25197,-0.44161 0.35806,-0.8872c0.10609,-0.44294 0.20555,-1.07286 0.29838,-1.88977c0.09283,-0.81426 0.17638,-1.85529 0.25064,-3.12309c0.07161,-1.26515 0.13394,-2.79951 0.18699,-4.60308v-0.41774M341.33435,172.48888l1.19354,-1.45214c0.38458,0.1724 0.79967,0.37795 1.24526,0.61666c0.44294,0.23871 0.8673,0.48405 1.27311,0.73601c0.40315,0.25197 0.73071,0.48405 0.98268,0.69623l-1.25321,1.61128c-0.23871,-0.21219 -0.55433,-0.45487 -0.94687,-0.72806c-0.38989,-0.27054 -0.8063,-0.53576 -1.24924,-0.79569c-0.44559,-0.25727 -0.86067,-0.48537 -1.24526,-0.68429M340.22038,178.17807l1.15375,-1.43224c0.38458,0.1724 0.78641,0.37398 1.20547,0.60473c0.41641,0.2334 0.81426,0.46946 1.19354,0.70817c0.37663,0.23871 0.68429,0.46415 0.923,0.67634l-1.23332,1.63117c-0.21219,-0.22545 -0.50394,-0.47078 -0.87526,-0.73601c-0.37132,-0.26523 -0.76652,-0.52383 -1.18558,-0.7758c-0.41641,-0.25197 -0.81028,-0.47741 -1.1816,-0.67634M340.77736,187.82583c0.26523,-0.5172 0.56096,-1.12723 0.8872,-1.83009c0.32358,-0.70286 0.64849,-1.45214 0.97472,-2.24783c0.32358,-0.79569 0.62462,-1.57812 0.90311,-2.34729l1.63117,1.15375c-0.23871,0.70286 -0.49996,1.42561 -0.78376,2.16826c-0.28645,0.74264 -0.57953,1.47866 -0.87924,2.20804c-0.29706,0.72938 -0.59146,1.41235 -0.88322,2.04891z" fill="#ffffff" stroke-width="1"/><path d="M240,196v-32h208v32z" fill="none" stroke-width="0"/></g></g></svg>