<svg version="1.1" xmlns="http://www.w3.org/2000/svg" xmlns:xlink="http://www.w3.org/1999/xlink" width="208" height="32" viewBox="0,0,208,32"><g transform="translate(-240,-164)"><g stroke-miterlimit="10"><path d="M265.9889,173.60353v5.77461h12.96305l-0.30335,6.90035c-0.08089,1.05624 -0.3539,1.79632 -0.81903,2.22021c-0.46513,0.42389 -1.21676,0.63583 -2.25489,0.63583h-2.32567l-0.28312,-1.48014h1.98187c0.53929,0 0.95723,-0.06254 1.25384,-0.18762c0.2966,-0.12508 0.50895,-0.31966 0.63703,-0.58372c0.12808,-0.26406 0.21234,-0.63236 0.25278,-1.10489c0.04044,-0.62541 0.08427,-1.45234 0.13146,-2.48079c0.04719,-1.02845 0.08426,-1.85538 0.11122,-2.48079h-12.88216v-8.6515h3.92329l0.2629,-0.6671l0.5258,-1.4176l1.57741,0.18762l-0.26291,0.72965c-0.1483,0.44474 -0.28312,0.83388 -0.40446,1.16743h6.97699c-0.12134,2.16808 -0.19549,3.38416 -0.22246,3.64822c-0.06741,0.6671 -0.19212,1.18481 -0.37413,1.5531c-0.18201,0.36829 -0.45838,0.63236 -0.82914,0.79218c-0.37076,0.15983 -0.88645,0.23974 -1.54708,0.23974h-1.73919l-0.28312,-1.33421h1.5774c0.6067,0 1.02464,-0.10076 1.25383,-0.30228c0.2292,-0.20152 0.36402,-0.54549 0.40447,-1.03193l0.10111,-1.04235c0.04044,-0.41694 0.06741,-0.77828 0.08089,-1.08404zM299.96382,183.50585h-10.05091c-1.02464,1.16743 -2.27848,2.37655 -3.76151,3.62738l9.08021,-0.3544l-2.22455,-2.16808l0.99094,-1.0215c0.57973,0.54202 1.13586,1.07014 1.66841,1.58437c0.53255,0.51423 1.00104,0.96591 1.40551,1.35505c1.45607,1.4176 2.05603,1.99436 1.79987,1.7303l-1.05161,1.18828c-0.2292,-0.25017 -0.64714,-0.68795 -1.25384,-1.31336l-12.49792,0.56287l-0.38424,-1.48013c1.59089,-1.16743 2.98629,-2.40436 4.18619,-3.71077h-5.80405v-1.4176h2.66946v-10.84043h12.49792v10.84043h2.73013zM340.00569,173.20744l-1.67853,5.31598c0.71455,0.95896 1.21339,1.81021 1.49652,2.55375c0.28312,0.74354 0.42468,1.53226 0.42468,2.36614c0,1.18133 -0.24267,2.02215 -0.72803,2.52248c-0.48536,0.50033 -1.30102,0.75049 -2.447,0.75049h-1.15272l-0.30335,-1.48014h1.0516c0.79544,0 1.35159,-0.14941 1.66842,-0.44821c0.31683,-0.2988 0.47524,-0.83041 0.47524,-1.5948c0,-0.6671 -0.15841,-1.34811 -0.47524,-2.043c-0.31683,-0.6949 -0.81904,-1.46624 -1.50663,-2.31402l1.63808,-5.64953h-3.39749v16.2815h-1.43585v-17.82417h6.3703zM318.46801,182.21333l1.59763,0.39609c0,0.48643 -0.04719,1.63302 -0.14156,3.43976c-0.04044,0.6671 -0.14493,1.17785 -0.31346,1.53225c-0.16852,0.3544 -0.44154,0.60456 -0.81904,0.75049c-0.3775,0.14593 -0.91004,0.2189 -1.59763,0.2189h-2.08299c-0.68759,0 -1.21339,-0.07644 -1.5774,-0.22932c-0.36401,-0.15288 -0.62018,-0.42389 -0.76848,-0.81303c-0.1483,-0.38915 -0.22246,-0.95896 -0.22246,-1.70945v-15.40592h1.55718v6.90035c0.80892,-0.50033 1.66168,-1.06667 2.55824,-1.69903c0.89656,-0.63236 1.68863,-1.2265 2.37622,-1.78242l0.91004,1.43845c-1.15946,0.88947 -3.10763,2.22368 -5.8445,4.00262v6.37918c0,0.37525 0.03371,0.6532 0.10112,0.83388c0.06741,0.18068 0.18875,0.30576 0.36401,0.37525c0.17527,0.06949 0.44491,0.10424 0.80892,0.10424h1.41562c0.6067,0 1.0179,-0.09034 1.23361,-0.27102c0.21571,-0.18068 0.33031,-0.53507 0.3438,-1.0632c0.02697,-0.45863 0.05056,-1.02845 0.07078,-1.70945c0.02022,-0.681 0.03033,-1.24387 0.03033,-1.68861zM247.30269,179.79508v-4.69057h4.83334v-1.66776h-5.19736v-1.29251h5.19736v-1.87623h1.47629v1.87623h5.5007v1.29251h-5.5007v1.66776h4.81311v4.69057zM302.6535,177.37683v-1.64691h5.01534v-5.35767h1.5774v18.82483h-1.5774v-3.96093l-4.894,2.31402l-0.58648,-1.58437l5.48048,-2.58503v-6.00393zM272.90522,185.50716v-3.12705h1.47629v4.54464h-11.2643v-4.54464h1.47629v3.12705h3.37727v-3.83585h1.5774v3.83585zM332.05798,174.18725h-1.51674c-0.16179,1.29252 -0.37075,2.50859 -0.62691,3.64822h2.73012v1.50099h-10.1318v-1.50099h2.58857c-0.25616,-1.58437 -0.4921,-2.80044 -0.70781,-3.64822h-1.37517v-1.48014h3.94351c-0.17527,-0.73659 -0.3775,-1.41759 -0.6067,-2.043l1.49651,-0.37525c0.26965,0.83388 0.49884,1.63996 0.68759,2.41825h3.51883zM246.51399,181.33776h12.86193v1.3342h-6.57253c0.35054,0.40304 0.95723,1.17438 1.82009,2.31402l-1.01116,0.85473c-0.76848,-1.11184 -1.40888,-1.97352 -1.9212,-2.58503l0.74826,-0.58372h-5.92539zM245.60395,175.66738l1.1325,0.77134c-0.40446,0.87557 -0.91679,1.79284 -1.53696,2.7518v10.13164h-1.41563v-8.13032c-0.64714,0.83388 -1.23362,1.52183 -1.75942,2.06385l-0.56625,-1.45929c0.66063,-0.7088 1.40551,-1.67123 2.23466,-2.88731c0.82915,-1.21607 1.46618,-2.29664 1.91109,-3.2417zM325.10122,187.69609v1.39675h-1.41562v-7.85931h7.72525v6.46257zM254.96728,186.77882l0.06067,-1.50098l1.23361,0.18762l-0.06067,1.79284c-0.02697,0.59761 -0.17864,1.01802 -0.45502,1.26124c-0.27639,0.24321 -0.77859,0.36482 -1.50663,0.36482h-2.81102c-0.64714,0 -1.11565,-0.13204 -1.40551,-0.3961c-0.28986,-0.26406 -0.4348,-0.72269 -0.4348,-1.3759v-3.37721h1.25384v3.02281c0,0.31966 0.06067,0.53507 0.18201,0.64626c0.12134,0.11119 0.37076,0.16678 0.74826,0.16678h2.20433c0.3775,0 0.63367,-0.05559 0.76848,-0.16678c0.13482,-0.11119 0.20898,-0.31966 0.22245,-0.62541zM295.77763,182.08825v-2.29317h-9.56556v2.29317zM286.21207,176.23025v2.20978h9.56556v-2.20978zM286.21207,174.91689h9.56556v-2.18893h-9.56556zM325.10122,186.2785h4.894v-3.56483h-4.894zM245.6444,170.30971l1.17294,0.85473c-0.5258,0.88947 -1.20328,1.87276 -2.03243,2.94985c-0.82915,1.07709 -1.64819,2.04648 -2.45711,2.90815l-0.62692,-1.48014c0.63366,-0.681 1.33136,-1.52183 2.0931,-2.52248c0.76174,-1.00065 1.37855,-1.90402 1.85042,-2.7101zM329.16607,174.18725h-3.33682c0.35053,1.72335 0.58647,2.93943 0.70781,3.64822h2.00209c0.24268,-1.08405 0.45165,-2.30012 0.62691,-3.64822zM256.20089,184.13126l1.09205,-0.7088c0.44491,0.65321 1.22688,2.02216 2.34589,4.10686l-1.15272,0.77133l-0.40447,-0.75049c-0.88982,-1.70945 -1.51674,-2.84909 -1.88075,-3.4189zM247.01957,188.44658l-1.19317,-0.60456c0.56625,-1.05624 1.1325,-2.48079 1.69875,-4.27363l1.19317,0.37525c-0.24268,0.76439 -0.51906,1.567 -0.82915,2.40783c-0.31009,0.84083 -0.59995,1.5392 -0.8696,2.09512zM271.61094,176.73058l-0.93027,1.14659c-1.51,-1.23692 -2.58857,-2.09165 -3.23571,-2.56418l0.88982,-1.14659c0.57973,0.43084 1.67179,1.28556 3.27616,2.56418zM251.81246,178.69019h2.08299v-2.45994h-2.08299zM255.06839,176.23025v2.45994h2.00209v-2.45994zM250.61929,178.69019v-2.45994h-2.00209v2.45994z" fill="#ffffff" fill-rule="evenodd" stroke="#ffffff" stroke-width="0.5" stroke-linecap="round"/><path d="M240,196v-32h208v32z" fill="none" fill-rule="nonzero" stroke="none" stroke-width="0" stroke-linecap="butt"/></g></g></svg>