<svg version="1.1" xmlns="http://www.w3.org/2000/svg" xmlns:xlink="http://www.w3.org/1999/xlink" width="208" height="32" viewBox="0,0,208,32"><g transform="translate(-240,-164)"><g stroke="none" stroke-miterlimit="10"><path d="M240,196v-32h208v32z" fill="none" stroke-width="0"/><path d="M247,181.94h10.762v7.5684h-2.1582v-1.0644h-9.2773v1.0644h-2.0996v-4.834c-0.76173,0.61849 -1.62437,1.20769 -2.5879,1.7676l-1.3965,-1.6797c1.02867,-0.48828 1.96617,-1.06121 2.8125,-1.7188c1.38673,-1.08727 2.5,-2.30147 3.3398,-3.6426h-5.8887v-1.7383h18.994v1.7383h-10.713c-0.46875,0.83333 -1.06445,1.6797 -1.7871,2.5391zM246.32618,183.6197v3.1445h9.2773v-3.1445zM251.10158,174.2252h4.5801v-2.9004h2.1191v4.5606h-15.4v-4.5606h2.0996v2.9004h4.4629v-3.7207h2.1387z" fill="#ffffff" stroke-width="1"/><path d="M271.23,173.24v3.1543h7.0898v1.9238h-7.0898v2.6953h8.2715v1.9629h-8.2715v4.3945c0,0.78127 -0.2181,1.32163 -0.6543,1.6211c-0.33203,0.22787 -0.88543,0.3418 -1.6602,0.3418c-1.26953,0 -2.50977,-0.06511 -3.7207,-0.19532l-0.38086,-2.0996c1.50393,0.19531 2.64,0.29296 3.4082,0.29296c0.36458,0 0.59244,-0.06836 0.68359,-0.20507c0.0586,-0.09766 0.0879,-0.26042 0.0879,-0.48829v-3.6621h-8.4961v-1.9629h8.4961v-2.6953h-7.5v-1.9238h7.5v-2.8711l-0.53711,0.0586c-1.862,0.20183 -3.8086,0.35808 -5.8398,0.46875l-0.83984,-1.8164c5.15627,-0.21485 9.8436,-0.78778 14.062,-1.7188l1.2207,1.6797c-1.82293,0.41015 -3.7663,0.75845 -5.8301,1.0449z" fill="#ffffff" stroke-width="1"/><path d="M280.19066,181.21134h19.44375v2.10027h-19.44375v-2.10027M284.49946,173.97948h10.78284v1.9054h-10.78284v-1.9054M284.52112,177.57376h10.80449v1.88375h-10.80449v-1.88375M283.54676,170.29859h13.22954v11.86545h-2.33845v-9.91675h-8.63926v9.91675h-2.25184v-11.86545M292.12107,184.1344l1.97036,-0.86609c0.6207,0.49079 1.26016,1.04653 1.91839,1.66723c0.65534,0.6207 1.26882,1.22985 1.84044,1.82745c0.56873,0.60049 1.04075,1.13169 1.41606,1.59361l-2.03531,1.06096c-0.36087,-0.49079 -0.82567,-1.05086 -1.39441,-1.68022c-0.57162,-0.62647 -1.18221,-1.25728 -1.83178,-1.89241c-0.64957,-0.63513 -1.27748,-1.20531 -1.88375,-1.71053M282.11771,188.96286c-0.0433,-0.17322 -0.10826,-0.38974 -0.19487,-0.64957c-0.08661,-0.25983 -0.17322,-0.5312 -0.25983,-0.81413c-0.08661,-0.28004 -0.18043,-0.5211 -0.28148,-0.72319c0.24539,-0.05774 0.49079,-0.1559 0.73618,-0.29447c0.24539,-0.13569 0.51244,-0.31901 0.80113,-0.54997c0.21652,-0.14435 0.53842,-0.40418 0.96569,-0.77948c0.42438,-0.37531 0.8964,-0.83 1.41606,-1.36409c0.51965,-0.53409 0.996,-1.09705 1.42905,-1.68888l2.38175,0.9094c-0.83722,0.93826 -1.72785,1.8289 -2.67189,2.67189c-0.94693,0.84588 -1.86065,1.55752 -2.74118,2.13491v0.0433c0,0 -0.07939,0.03609 -0.23818,0.10826c-0.15878,0.07217 -0.34211,0.16167 -0.54997,0.26849c-0.21075,0.10971 -0.39552,0.22951 -0.5543,0.35943c-0.15878,0.12991 -0.23818,0.25261 -0.23818,0.36809M282.11771,188.96286l-0.02165,-1.60227l1.38575,-0.75783l12.53667,-0.498c0.0433,0.2887 0.10826,0.60915 0.19487,0.96136c0.08661,0.3551 0.15157,0.64091 0.19487,0.85743c-1.99201,0.10104 -3.70976,0.19054 -5.15324,0.26849c-1.44349,0.08083 -2.66323,0.15012 -3.65924,0.20786c-0.996,0.05774 -1.81446,0.10826 -2.45537,0.15157c-0.64379,0.0433 -1.15623,0.08228 -1.53731,0.11692c-0.38397,0.03753 -0.6871,0.07795 -0.9094,0.12125c-0.22518,0.0433 -0.41717,0.10104 -0.57595,0.17322z" fill="#ffffff" stroke-width="1"/></g></g></svg>