<svg version="1.1" xmlns="http://www.w3.org/2000/svg" xmlns:xlink="http://www.w3.org/1999/xlink" width="208" height="32" viewBox="0,0,208,32"><g transform="translate(-240,-164)"><g stroke-miterlimit="10"><path d="M345.23656,173.38529v5.69526h12.64084l-0.29581,6.80553c-0.07888,1.04173 -0.34511,1.77163 -0.79868,2.18969c-0.45357,0.41806 -1.18652,0.6271 -2.19884,0.6271h-2.26786l-0.27609,-1.4598h1.93261c0.52588,0 0.93344,-0.06168 1.22267,-0.18504c0.28923,-0.12336 0.4963,-0.31526 0.6212,-0.57569c0.1249,-0.26043 0.20707,-0.62367 0.24651,-1.08971c0.03944,-0.61682 0.08217,-1.43238 0.12818,-2.4467c0.04601,-1.01432 0.08217,-1.82989 0.10846,-2.4467h-12.56196v-8.53261h3.82578l0.25637,-0.65794l0.51273,-1.39811l1.5382,0.18504l-0.25637,0.71962c-0.14462,0.43862 -0.27609,0.82242 -0.39441,1.15139h6.80357c-0.11832,2.13829 -0.19063,3.33766 -0.21693,3.59809c-0.06574,0.65794 -0.18734,1.16852 -0.36483,1.53176c-0.17748,0.36324 -0.447,0.62367 -0.80854,0.7813c-0.36154,0.15763 -0.86442,0.23645 -1.50862,0.23645h-1.69596l-0.27609,-1.31587h1.5382c0.59162,0 0.99917,-0.09938 1.22267,-0.29813c0.2235,-0.19875 0.35497,-0.538 0.39441,-1.01775l0.0986,-1.02803c0.03944,-0.41121 0.06574,-0.76759 0.07888,-1.06915zM299.48499,183.15153h-9.80109c-0.99917,1.15139 -2.22184,2.3439 -3.66801,3.57753l8.85451,-0.34953l-2.16926,-2.13829l0.9663,-1.00746c0.56532,0.53457 1.10763,1.05544 1.62694,1.5626c0.51931,0.50716 0.97616,0.95264 1.37057,1.33643c1.41988,1.39811 2.00492,1.96695 1.75512,1.70652l-1.02547,1.17195c-0.2235,-0.24673 -0.63106,-0.6785 -1.22267,-1.29531l-12.18727,0.55513l-0.37469,-1.4598c1.55135,-1.15139 2.91206,-2.37131 4.08214,-3.65977h-5.65978v-1.39811h2.60311v-10.69146h12.18727v10.69146h2.66227zM330.95891,173.67314h7.80932v1.54204h-7.80932v4.07098h5.56118v9.72512h-1.55792v-1.41867h-9.54472v1.41867h-1.51848v-9.72512h5.54146v-4.07098h-7.80932v-1.54204h7.80932v-3.41304h1.51848zM278.67986,183.97395l1.22267,0.30841c-0.01315,0.21931 -0.03287,0.54485 -0.05916,0.97662c-0.02629,0.43177 -0.04601,0.85326 -0.05916,1.26447c-0.02629,0.52087 -0.11504,0.9218 -0.26623,1.20279c-0.15119,0.28099 -0.39441,0.47632 -0.72966,0.58597c-0.33525,0.10966 -0.80525,0.16448 -1.41002,0.16448h-2.2087c-0.8677,0 -1.46918,-0.16106 -1.80443,-0.48317c-0.33525,-0.32211 -0.50287,-0.90809 -0.50287,-1.75792v-1.29531h-4.10186v-7.3401h4.10186v-1.64484h-3.49053v-4.74948h8.34177v4.74948h-3.54969v1.64484h4.08214v7.3401h-4.08214v1.04859c0,0.47975 0.07888,0.79843 0.23665,0.95606c0.15776,0.15763 0.47329,0.23645 0.94658,0.23645h1.91289c0.38126,0 0.66064,-0.03084 0.83812,-0.09252c0.17748,-0.06168 0.30567,-0.17819 0.38455,-0.34953c0.07888,-0.17134 0.1249,-0.42834 0.13804,-0.77102zM252.7474,170.13673h1.45932v3.80369h4.75264v8.71765h-4.75264v6.31208h-1.45932v-6.31208h-4.75264v-8.71765h4.75264zM264.00781,176.36656l2.4059,-0.30841c0.24979,-0.43862 0.57847,-1.076 0.98603,-1.91213l1.24239,0.74018c-1.02547,2.00122 -2.38618,4.23546 -4.08214,6.70273l3.33276,-0.53457l0.03944,1.43924l-5.02873,0.80186l-0.27609,-1.48036c1.06491,-1.32958 2.05751,-2.77567 2.9778,-4.33827l-3.03696,0.47289l-0.29581,-1.39811c0.60476,-0.82242 1.19309,-1.78876 1.76498,-2.89903c0.57189,-1.11027 1.16022,-2.32334 1.76498,-3.63921l1.18323,0.57569c-1.26211,2.75511 -2.25471,4.68094 -2.9778,5.7775zM309.34524,170.38346l1.51848,-0.43177l0.7691,2.26166h6.88245v3.86538h-1.4396v-2.40558h-13.23246v2.42614h-1.41988v-3.88594h7.57267zM351.98097,185.12534v-3.08408h1.4396v4.48219h-10.98432v-4.48219h1.4396v3.08408h3.29332v-3.78313h1.5382v3.78313zM305.42086,187.90101v1.06915h-1.49876v-6.53824h13.07469v6.5588h-1.49876v-1.08971zM316.03049,180.54035h-11.12236v-4.66723h11.12236zM325.41745,180.84875v5.22237h9.54472v-5.22237zM305.42086,186.56458h10.07718v-2.75511h-10.07718zM295.40285,181.75342v-2.26166h-9.3278v2.26166zM286.07505,175.97591v2.17941h9.3278v-2.17941zM286.07505,174.6806h9.3278v-2.15885h-9.3278zM306.36745,177.14786v2.11773h8.18401v-2.11773zM245.49026,179.18335l0.63106,0.20561l0.78882,0.30841c-0.27609,0.89096 -0.7198,2.23081 -1.33113,4.01958c-0.61134,1.78876 -1.08791,3.12177 -1.42974,3.99902l-1.41988,-0.61682c0.38126,-0.93208 0.88085,-2.27536 1.49876,-4.02986c0.61791,-1.7545 1.03861,-3.04981 1.26211,-3.88594zM252.7474,175.48246h-3.2736v5.5719h3.2736zM257.44088,175.48246h-3.23416v5.5719h3.23416zM276.23452,174.76284v-2.30278h-5.44286v2.30278zM242.88715,171.65821l1.28183,-0.69906c1.03861,1.90527 1.97862,3.69404 2.82003,5.36629l-1.30155,0.82242c-0.40756,-0.84983 -0.89728,-1.83674 -1.46918,-2.96071c-0.57189,-1.12397 -1.01561,-1.96695 -1.33113,-2.52894zM268.16884,186.48233l-5.64006,0.96634l-0.19721,-1.54204l5.75839,-1.02803zM350.71886,176.46937l-0.90714,1.13083c-1.47246,-1.21992 -2.52422,-2.0629 -3.15528,-2.52894l0.8677,-1.13083c0.56532,0.42492 1.63023,1.2679 3.19472,2.52894zM274.16387,180.68427h2.82003v-1.87101h-2.82003zM276.9839,181.87678h-2.82003v1.87101h2.82003zM270.062,180.68427h2.80031v-1.87101h-2.80031zM272.86232,181.87678h-2.80031v1.87101h2.80031z" fill="#ffffff" fill-rule="evenodd" stroke="#ffffff" stroke-width="0.5" stroke-linecap="round"/><path d="M240,196v-32h208v32z" fill="none" fill-rule="nonzero" stroke="none" stroke-width="0" stroke-linecap="butt"/></g></g></svg>