<svg version="1.1" xmlns="http://www.w3.org/2000/svg" xmlns:xlink="http://www.w3.org/1999/xlink" width="208.42832" height="32" viewBox="0,0,208.42832,32"><g transform="translate(-239.57168,-164)"><g stroke="none" stroke-miterlimit="10"><path d="M240.34474,172.37177h15.11774v2.06615h-15.11774v-2.06615M244.107,186.06738h9.58603v2.04647h-9.58603v-2.04647M243.35111,179.00312h11.11499v10.2914h-1.95844v-8.2646h-7.28401v8.32363h-1.87254v-10.35042M245.24083,173.47372l1.97561,0.57065c-0.4123,1.33807 -0.92195,2.67221 -1.52896,4.00243c-0.60701,1.33283 -1.30791,2.57908 -2.10274,3.73875c-0.79712,1.16229 -1.69959,2.16322 -2.70744,3.00281c-0.10308,-0.15743 -0.2325,-0.33846 -0.38826,-0.5431c-0.15347,-0.20202 -0.31037,-0.40142 -0.47071,-0.5982c-0.16034,-0.19678 -0.30923,-0.36076 -0.44666,-0.49193c0.93913,-0.74775 1.77862,-1.65293 2.51848,-2.71552c0.73757,-1.06259 1.3732,-2.19733 1.9069,-3.40422c0.53141,-1.20689 0.946,-2.39411 1.24377,-3.56165zM262.74648,171.93887h10.06705v1.9284h-10.06705v-1.9284M264.808,179.29829h5.97838v1.67259h-5.97838v-1.67259M261.37214,186.67739h11.71625v1.96776h-11.71625v-1.96776M257.28349,175.71696h5.30839v2.00712h-5.30839v-2.00712M259.12166,171.2895h1.76946v13.00689h-1.76946v-13.00689M256.92272,184.17834c0.48101,-0.17054 1.03991,-0.38044 1.67669,-0.62968c0.63448,-0.24925 1.30104,-0.51817 1.99967,-0.80678c0.69862,-0.28861 1.40297,-0.57721 2.11304,-0.86582l0.34359,1.94809c-0.93913,0.44602 -1.89202,0.8855 -2.85863,1.31839c-0.96892,0.43291 -1.85421,0.82646 -2.65591,1.18065l-0.61845,-2.14486M265.6326,177.31085v5.84425h4.19174v-5.84425h-4.19174M263.8975,175.50051h7.74784v9.46493h-7.74784zM287.9141,179.49506h1.821c0,0 -0.00229,0.05248 -0.00687,0.15742c-0.00687,0.10495 -0.0103,0.22302 -0.0103,0.35419c0,0.13118 -0.00573,0.24926 -0.01718,0.3542c-0.08017,1.75786 -0.16607,3.18384 -0.2577,4.27791c-0.09163,1.0967 -0.20043,1.94022 -0.32641,2.53054c-0.12598,0.59033 -0.28059,1.01011 -0.46384,1.25936c-0.1947,0.26237 -0.40314,0.44602 -0.62532,0.55097c-0.22448,0.10495 -0.4856,0.17711 -0.78337,0.21645c-0.25197,0.03935 -0.58066,0.05903 -0.98609,0.05903c-0.40772,0 -0.83491,-0.00656 -1.28158,-0.01968c-0.0229,-0.28861 -0.08246,-0.61656 -0.17867,-0.98388c-0.0985,-0.36732 -0.21646,-0.6756 -0.3539,-0.92485c0.42375,0.03935 0.81888,0.06166 1.18537,0.06691c0.3665,0.00787 0.63563,0.0118 0.80742,0.0118c0.14889,0 0.27143,-0.01312 0.36764,-0.03935c0.0985,-0.02623 0.19356,-0.09183 0.28517,-0.19678c0.12598,-0.15743 0.2405,-0.4985 0.34358,-1.02324c0.10308,-0.52474 0.19126,-1.29872 0.26456,-2.32195c0.07559,-1.02324 0.14774,-2.35475 0.21646,-3.99456v-0.33452M279.42755,181.97444h1.70074v4.66359h-1.70074v-4.66359M283.72236,182.74187h1.68357v5.49005h-1.68357v-5.49005M275.28735,182.78123h1.68356v3.14842h7.4558v1.7513h-9.13936v-4.89972M285.99002,172.64726h1.71793c0,0 0,0.09183 0,0.27549c0,0.18366 -0.00573,0.33452 -0.01718,0.45259c-0.05727,0.98388 -0.11682,1.80379 -0.17867,2.4597c-0.06414,0.65592 -0.13857,1.1741 -0.22333,1.55453c-0.08704,0.38043 -0.205,0.65592 -0.3539,0.82646c-0.13744,0.19678 -0.28862,0.33714 -0.45354,0.4211c-0.16721,0.08659 -0.35962,0.14299 -0.57722,0.16923c-0.18325,0.03935 -0.42032,0.06166 -0.71122,0.06691c-0.29319,0.00787 -0.60586,0.00525 -0.93798,-0.00787c-0.0229,-0.28861 -0.07444,-0.60739 -0.15461,-0.95634c-0.08017,-0.34632 -0.18325,-0.64412 -0.30923,-0.89336c0.26341,0.02623 0.50392,0.04592 0.72152,0.05904c0.21761,0.01312 0.38367,0.01968 0.4982,0.01968c0.10308,0 0.1947,-0.01312 0.27487,-0.03935c0.08017,-0.02623 0.14889,-0.07871 0.20614,-0.15742c0.11453,-0.1443 0.21188,-0.51162 0.29205,-1.10194c0.08017,-0.59033 0.14889,-1.55454 0.20615,-2.89261v-0.2558M280.93932,170.91563l2.19895,0.21645c-0.18325,0.48537 -0.38941,0.95371 -0.61846,1.40498c-0.22906,0.4539 -0.4352,0.84483 -0.61845,1.17278l-1.63202,-0.33452c0.12598,-0.36732 0.25539,-0.78055 0.38826,-1.2397c0.13056,-0.45914 0.22447,-0.86582 0.28174,-1.22001M279.0496,176.386l0.9105,-1.33807c0.40085,0.15743 0.83033,0.34763 1.28845,0.57065c0.45811,0.22302 0.89676,0.45259 1.31593,0.68871c0.41688,0.23613 0.76276,0.45914 1.03763,0.66904l-0.96204,1.47582c-0.25197,-0.20989 -0.58409,-0.43948 -0.99639,-0.68872c-0.41231,-0.24925 -0.84407,-0.49587 -1.29532,-0.73988c-0.45353,-0.24138 -0.88645,-0.4539 -1.29876,-0.63756M286.52258,172.64726v1.88905h-8.17732v4.95876h10.11858v1.84969h-11.9224v-8.6975zM291.81379,172.70629h15.22082v1.96776h-15.22082v-1.96776M295.52451,181.01024h7.81656v1.65292h-7.81656v-1.65292M295.16374,184.15865h8.53809v1.71196h-8.53809v-1.71195M298.49651,181.81702h1.75229v7.02491h-1.75229v-7.02491M292.53532,176.32697h12.43778v1.94809h-10.58242v11.03914h-1.85536v-12.98723M304.44055,176.32697h1.88972v10.80301c0,0.53785 -0.06642,0.94714 -0.19927,1.22788c-0.13056,0.28336 -0.36191,0.49719 -0.69404,0.64149c-0.33214,0.1443 -0.75016,0.2322 -1.25409,0.26368c-0.50392,0.0341 -1.09948,0.05116 -1.78664,0.05116c-0.04581,-0.26237 -0.12827,-0.56803 -0.24738,-0.91698c-0.12141,-0.34632 -0.24509,-0.64412 -0.37107,-0.89336c0.30923,0.01312 0.61845,0.02623 0.92768,0.03935c0.30923,0.01312 0.58639,0.01574 0.83148,0.00787c0.24738,-0.00524 0.41116,-0.00787 0.49133,-0.00787c0.16034,-0.01312 0.26914,-0.04985 0.3264,-0.11019c0.05727,-0.05772 0.0859,-0.15874 0.0859,-0.30304v-10.80301M296.24604,178.82603l1.46023,-0.49194c0.20615,0.32796 0.40314,0.69527 0.59096,1.10194c0.19012,0.40668 0.33099,0.76742 0.42261,1.08227l-1.54613,0.59034c-0.06871,-0.31485 -0.1947,-0.68872 -0.37794,-1.12163c-0.18325,-0.43291 -0.36649,-0.8199 -0.54974,-1.16098M301.19366,178.35376l1.56331,0.51162c-0.22906,0.47226 -0.45811,0.93797 -0.68717,1.39711c-0.22906,0.45914 -0.45239,0.85925 -0.66999,1.20033l-1.30562,-0.45259c0.13744,-0.24925 0.27143,-0.5313 0.40199,-0.84614c0.13285,-0.31485 0.26227,-0.62968 0.38826,-0.94453c0.12598,-0.31485 0.22906,-0.60344 0.30923,-0.86582M298.42781,171.07305h2.02715v6.61168h-2.02715zM318.56189,171.93887h4.48378v1.90872h-2.85175v15.42725h-1.63203v-17.33597M322.66773,171.93887h0.34359l0.27486,-0.07871l1.27127,0.90517c-0.28632,0.94453 -0.607,1.94415 -0.96204,2.99887c-0.35504,1.05735 -0.69861,2.01893 -1.03075,2.88474c0.71007,0.90517 1.17047,1.74736 1.3812,2.5266c0.21302,0.78186 0.31954,1.50074 0.31954,2.15667c0,0.66904 -0.06642,1.2397 -0.19927,1.71196c-0.13056,0.47226 -0.35045,0.83302 -0.65968,1.08227c-0.14889,0.11806 -0.32067,0.21252 -0.51537,0.28336c-0.1947,0.07346 -0.40085,0.12987 -0.61845,0.16923c-0.1947,0.02623 -0.4123,0.04198 -0.65281,0.04723c-0.24051,0.00787 -0.48101,0.00524 -0.72152,-0.00787c-0.01146,-0.27549 -0.05154,-0.60345 -0.12026,-0.98388c-0.06871,-0.38043 -0.17752,-0.70839 -0.32641,-0.98388c0.21761,0.02623 0.41573,0.04198 0.5944,0.04723c0.17637,0.00787 0.33901,0.00525 0.48789,-0.00787c0.11453,0 0.22906,-0.01706 0.34358,-0.05116c0.11453,-0.03149 0.21187,-0.08002 0.29204,-0.14561c0.14889,-0.10495 0.25426,-0.27942 0.31611,-0.52343c0.06414,-0.24138 0.0962,-0.53261 0.0962,-0.87369c0,-0.56409 -0.12026,-1.20033 -0.36077,-1.90873c-0.24051,-0.7084 -0.70434,-1.46926 -1.39152,-2.2826c0.1718,-0.4985 0.34588,-1.03373 0.52225,-1.60569c0.17867,-0.56934 0.35045,-1.14655 0.51537,-1.73163c0.16721,-0.58246 0.31954,-1.12949 0.45697,-1.64111c0.13744,-0.51162 0.25197,-0.94453 0.34358,-1.29872v-0.68871M309.23355,173.19823h8.26322v1.88905h-8.26322v-1.88905M308.78689,178.4915h9.08783v1.90873h-9.08783v-1.90873M310.16123,175.52019l1.58049,-0.45259c0.24051,0.47226 0.45469,0.99306 0.64251,1.5624c0.19012,0.57196 0.32526,1.06784 0.40543,1.48763l-1.6492,0.5313c-0.06871,-0.43291 -0.1947,-0.94191 -0.37795,-1.52698c-0.18325,-0.58246 -0.38367,-1.11638 -0.60127,-1.60175M315.02297,175.00857l1.821,0.45259c-0.16034,0.44602 -0.32641,0.89862 -0.49821,1.35776c-0.1718,0.45914 -0.33786,0.89861 -0.4982,1.31839c-0.16034,0.41979 -0.32067,0.79365 -0.48101,1.12162l-1.54613,-0.4329c0.14889,-0.35419 0.30006,-0.75431 0.45353,-1.20034c0.15576,-0.44602 0.29892,-0.89861 0.42948,-1.35775c0.13285,-0.45914 0.23937,-0.87894 0.31954,-1.25937M310.59072,186.53965h5.6348v1.84969h-5.6348v-1.84969M309.62868,181.93509h7.5417v7.24136h-1.821v-5.3523h-3.9856v5.47038h-1.7351v-7.35943M311.98223,171.36821l1.66639,-0.5313c0.18325,0.41979 0.36306,0.87894 0.53943,1.37744c0.17867,0.4985 0.30807,0.92485 0.38825,1.27905l-1.76946,0.62968c-0.06871,-0.35419 -0.18095,-0.79105 -0.33671,-1.31054c-0.15347,-0.51686 -0.3161,-0.99831 -0.48788,-1.44434zM332.28811,176.386h1.71792c-0.08017,0.82646 -0.16607,1.6949 -0.25769,2.60531c-0.09163,0.91304 -0.19241,1.81821 -0.30236,2.71551c-0.10766,0.89992 -0.21073,1.75263 -0.30923,2.55809c-0.0962,0.80809 -0.19011,1.52042 -0.28174,2.13699h-1.78664c0.11453,-0.6428 0.22906,-1.37481 0.34358,-2.19602c0.11453,-0.81859 0.22562,-1.67785 0.33328,-2.57777c0.10995,-0.89729 0.21073,-1.79591 0.30236,-2.69583c0.09163,-0.89729 0.1718,-1.74605 0.24051,-2.54628M334.865,178.66861l0.96204,-0.7084c0.30923,0.27549 0.62991,0.59688 0.96204,0.9642c0.33214,0.36732 0.58981,0.68871 0.77307,0.9642l-1.01358,0.80679c-0.16034,-0.28861 -0.40314,-0.62707 -0.7284,-1.01537c-0.32755,-0.38569 -0.64594,-0.72281 -0.95517,-1.01143M334.40116,182.74187l1.01358,-0.72808c0.34358,0.30172 0.70092,0.64936 1.07199,1.04291c0.37335,0.39355 0.66312,0.74774 0.86927,1.06259l-1.04793,0.82646c-0.1947,-0.30172 -0.4753,-0.66248 -0.84178,-1.08227c-0.3665,-0.41979 -0.72152,-0.79365 -1.06512,-1.12162M332.52862,173.02113h8.88168v1.90872h-8.88168v-1.90872M333.00965,176.386h6.54529v1.81034h-6.54529v-1.81034M330.12353,180.32152h11.73343v1.90873h-11.73343v-1.90873M331.99607,184.59156h9.41423v1.81034h-9.41423v-1.81034M332.6317,170.95499l1.78664,0.5313c-0.22906,0.81334 -0.50622,1.62275 -0.83148,2.42822c-0.32755,0.80809 -0.67457,1.56633 -1.04107,2.27473c-0.3665,0.7084 -0.73871,1.33153 -1.11666,1.86938c-0.11453,-0.11806 -0.27258,-0.24926 -0.47414,-0.39355c-0.19927,-0.1443 -0.39627,-0.28861 -0.59096,-0.43291c-0.1947,-0.1443 -0.3665,-0.26237 -0.51538,-0.3542c0.3894,-0.47226 0.75819,-1.02716 1.10635,-1.66473c0.35045,-0.63493 0.66884,-1.31708 0.95517,-2.04647c0.28632,-0.72676 0.52683,-1.46401 0.72152,-2.21176M339.02239,176.386h1.71793c0,0 -0.00229,0.05904 -0.00687,0.17711c-0.00687,0.11806 -0.0103,0.24531 -0.0103,0.38175c0,0.13905 -0.00573,0.25449 -0.01718,0.34632c-0.06871,1.87593 -0.13744,3.46589 -0.20615,4.76986c-0.06871,1.3066 -0.14659,2.37968 -0.23364,3.21926c-0.08475,0.83959 -0.18095,1.4955 -0.28861,1.96776c-0.10995,0.47226 -0.23937,0.81334 -0.38826,1.02324c-0.1947,0.30172 -0.39856,0.50768 -0.61158,0.61787c-0.21073,0.11282 -0.45354,0.19547 -0.7284,0.24795c-0.25197,0.03935 -0.57264,0.05903 -0.96204,0.05903c-0.3894,0 -0.79597,-0.01312 -1.21972,-0.03935c-0.01146,-0.26237 -0.05727,-0.55753 -0.13744,-0.88548c-0.08017,-0.32796 -0.18897,-0.61657 -0.32641,-0.86582c0.40085,0.03935 0.76734,0.0656 1.09948,0.07871c0.33214,0.01312 0.57837,0.01968 0.73871,0.01968c0.14889,0 0.26915,-0.02362 0.36077,-0.07084c0.09163,-0.04461 0.18324,-0.12594 0.27486,-0.24401c0.11453,-0.1443 0.21761,-0.43685 0.30923,-0.87763c0.09163,-0.43815 0.17752,-1.06128 0.2577,-1.86937c0.08017,-0.80546 0.15232,-1.83526 0.21646,-3.08938c0.06185,-1.25149 0.11567,-2.7693 0.16148,-4.5534v-0.41323M326.79075,172.70629l1.03075,-1.43647c0.33214,0.17054 0.68946,0.37388 1.07199,0.61c0.38481,0.23613 0.75245,0.47883 1.1029,0.72808c0.34817,0.24925 0.63105,0.47882 0.84866,0.68871l-1.08229,1.59389c-0.20615,-0.20989 -0.47758,-0.44996 -0.81429,-0.7202c-0.339,-0.26762 -0.70092,-0.52998 -1.08573,-0.7871c-0.38253,-0.25449 -0.73985,-0.48013 -1.07199,-0.6769M325.82871,178.33408l0.99639,-1.41679c0.33214,0.17054 0.678,0.36994 1.03763,0.5982c0.36191,0.23088 0.70549,0.46439 1.03076,0.70052c0.32755,0.23613 0.5944,0.45914 0.80055,0.66904l-1.06512,1.61356c-0.18325,-0.22302 -0.4352,-0.4657 -0.75588,-0.72808c-0.32068,-0.26237 -0.66198,-0.51818 -1.02388,-0.76742c-0.35963,-0.24925 -0.69976,-0.47225 -1.02045,-0.66904M326.30973,187.87773c0.22906,-0.51162 0.48331,-1.11507 0.76276,-1.81033c0.28174,-0.69527 0.56348,-1.43647 0.84522,-2.22358c0.27946,-0.7871 0.53942,-1.5611 0.77994,-2.32196l1.4087,1.14131c-0.20615,0.69527 -0.43292,1.41022 -0.68031,2.14486c-0.24509,0.73463 -0.49705,1.4627 -0.75588,2.18421c-0.25654,0.72151 -0.51079,1.39711 -0.76276,2.02679zM343.00797,175.71696h4.72429v1.98744h-4.72429v-1.98744M344.64,171.23047h1.71793v13.20368h-1.71793v-13.20368M342.87053,184.78834c0.607,-0.28861 1.33999,-0.6756 2.19895,-1.16099c0.85896,-0.48537 1.72365,-0.98388 2.59407,-1.4955l0.51538,1.86937c-0.76734,0.4985 -1.55529,1.00356 -2.36387,1.51518c-0.80627,0.51162 -1.55873,0.97732 -2.25735,1.3971l-0.68718,-2.12518M348.00713,173.7492h10.78858v1.90872h-10.78858v-1.90872M347.47458,185.22125c0.50392,-0.10495 1.07885,-0.24269 1.72479,-0.41323c0.64822,-0.17054 1.33885,-0.35157 2.07182,-0.5431c0.73298,-0.1889 1.46596,-0.3883 2.19894,-0.5982l0.1718,1.77098c-0.99639,0.31485 -1.99622,0.62575 -2.9995,0.93272c-1.00098,0.30959 -1.91378,0.58901 -2.73838,0.83826l-0.42947,-1.98743M353.55604,170.99434h1.76946c-0.01146,1.37744 0,2.73781 0.03436,4.08113c0.03436,1.34595 0.09391,2.62893 0.17867,3.84894c0.08704,1.22001 0.19356,2.34164 0.31953,3.36487c0.12598,1.02324 0.26914,1.9153 0.42948,2.67616c0.16034,0.76087 0.33556,1.34725 0.52568,1.75917c0.18783,0.41453 0.38481,0.62181 0.59096,0.62181c0.13744,0 0.24395,-0.19677 0.31954,-0.59033c0.0733,-0.39355 0.1214,-1.04947 0.1443,-1.96776c0.1718,0.23613 0.37452,0.45521 0.60815,0.65724c0.23594,0.20465 0.45124,0.366 0.64594,0.48406c-0.08017,0.86582 -0.1947,1.54798 -0.34359,2.04647c-0.14889,0.4985 -0.35159,0.84877 -0.60814,1.05079c-0.25884,0.20465 -0.5944,0.30697 -1.0067,0.30697c-0.48101,0 -0.90478,-0.24007 -1.27127,-0.7202c-0.3665,-0.47752 -0.68144,-1.14918 -0.94486,-2.01499c-0.26341,-0.86582 -0.48331,-1.87987 -0.65968,-3.04215c-0.17867,-1.15966 -0.3161,-2.4256 -0.4123,-3.79777c-0.0985,-1.36957 -0.17408,-2.79947 -0.22676,-4.28973c-0.05039,-1.48763 -0.08131,-2.97919 -0.09277,-4.47469M355.73779,172.01758l1.04793,-1.02324c0.34358,0.27549 0.70664,0.59688 1.08917,0.9642c0.38481,0.36732 0.67457,0.69527 0.86927,0.98388l-1.08229,1.16098c-0.20615,-0.30172 -0.48903,-0.64936 -0.84866,-1.04291c-0.36191,-0.39355 -0.72038,-0.74119 -1.07542,-1.04291M356.88881,177.11408l1.64921,0.35419c-0.54974,2.61057 -1.33655,4.90891 -2.36043,6.89504c-1.02617,1.98875 -2.30087,3.60625 -3.8241,4.8525c-0.09163,-0.11806 -0.2176,-0.2663 -0.37794,-0.44472c-0.16034,-0.17579 -0.32641,-0.34632 -0.4982,-0.51162c-0.1718,-0.16267 -0.32068,-0.29648 -0.44666,-0.40142c1.52323,-1.08882 2.76242,-2.55152 3.71759,-4.3881c0.95746,-1.83658 1.67096,-3.9552 2.14054,-6.35587M349.87968,178.76699v2.65649h1.58049v-2.65649h-1.58049M348.50533,177.13375h4.39789v5.94264h-4.39789z" fill="#ffffff" stroke-width="1"/><path d="M240.00001,196v-32h208v32z" fill="none" stroke-width="0"/></g></g></svg>