<svg version="1.1" xmlns="http://www.w3.org/2000/svg" xmlns:xlink="http://www.w3.org/1999/xlink" width="208.25245" height="32" viewBox="0,0,208.25245,32"><g transform="translate(-239.74755,-164)"><g stroke-miterlimit="10"><path d="M240,196v-32h208v32z" fill="none" fill-rule="nonzero" stroke="none" stroke-width="0" stroke-linecap="butt"/><path d="M318.97974,171.48212v1.55111h-8.10893v2.18467h6.88647v11.14181c0,0.66996 -0.07131,1.18336 -0.21393,1.54019c-0.14262,0.35683 -0.37353,0.60442 -0.69272,0.74279c-0.3192,0.13836 -0.77761,0.20754 -1.37526,0.20754h-2.50602l-0.28524,-1.52927h2.22079c0.3939,0 0.67914,-0.03277 0.85572,-0.09831c0.17658,-0.06554 0.29543,-0.18934 0.35655,-0.37139c0.06112,-0.18206 0.09168,-0.4697 0.09168,-0.86294v-9.26299h-12.34676v12.14675h-1.48732v-13.65418h6.92722v-2.18467h-8.19042v-1.55111h8.19042v-2.38129h1.56881v2.38129zM298.78892,182.99532h-10.12597c-1.03229,1.22341 -2.29549,2.49052 -3.7896,3.80132l9.14801,-0.37139l-2.24116,-2.27205l0.99834,-1.07049c0.58406,0.56801 1.14435,1.12146 1.68087,1.66035c0.53652,0.53888 1.00852,1.01223 1.41601,1.42003c1.46694,1.48557 2.07138,2.09 1.8133,1.81327l-1.05946,1.24526c-0.23091,-0.26216 -0.65197,-0.72094 -1.2632,-1.37634l-12.59125,0.58986l-0.38711,-1.55111c1.60277,-1.22341 3.00859,-2.51965 4.21746,-3.88871h-5.84739v-1.48557h2.68939v-11.36027h12.59125v11.36027h2.75052zM258.06093,187.45204l-0.97796,1.6385c-4.04767,-2.53422 -6.70311,-5.64373 -7.96631,-9.32853c-0.62481,1.86425 -1.62654,3.56829 -3.00519,5.11212c-1.37865,1.54383 -3.05273,2.97115 -5.02224,4.28195l-0.99834,-1.66035c2.33624,-1.39819 4.22085,-3.03305 5.65384,-4.90458c1.43298,-1.87153 2.23777,-3.97246 2.41434,-6.30277h-7.74219v-1.68219h7.76256v-5.37428h1.62993v5.37428h7.82369v1.68219h-7.84406c-0.01358,0.07282 -0.02037,0.18206 -0.02037,0.3277c0.44823,2.34488 1.33451,4.3839 2.65883,6.11707c1.32432,1.73317 3.20214,3.30613 5.63346,4.71888zM339.12981,172.20306l-1.69106,5.5709c0.71989,1.00495 1.22245,1.89702 1.50769,2.67622c0.28524,0.7792 0.42786,1.60573 0.42786,2.4796c0,1.23798 -0.24449,2.11913 -0.73347,2.64345c-0.48898,0.52432 -1.31074,0.78648 -2.46528,0.78648h-1.16133l-0.30561,-1.55111h1.05946c0.80138,0 1.36168,-0.15657 1.68087,-0.4697c0.3192,-0.31314 0.47879,-0.87023 0.47879,-1.67127c0,-0.69909 -0.1596,-1.41275 -0.47879,-2.14097c-0.3192,-0.72822 -0.82515,-1.53655 -1.51788,-2.42498l1.65031,-5.92045h-3.42286v17.06226h-1.44657v-18.67891h6.41787zM266.00686,179.41247h-2.99501v-1.55111h11.89852c-0.05433,1.1069 -0.13922,2.48324 -0.25468,4.12902c-0.11545,1.64578 -0.21393,2.8692 -0.29543,3.67024c-0.06791,0.75735 -0.22072,1.34357 -0.45842,1.75866c-0.2377,0.41509 -0.59085,0.71002 -1.05946,0.88479c-0.46861,0.17477 -1.1036,0.26216 -1.90499,0.26216h-2.68939l-0.28524,-1.59481h2.50602c0.59764,0 1.05267,-0.05462 1.36507,-0.16385c0.3124,-0.10923 0.53992,-0.30585 0.68254,-0.58986c0.14262,-0.28401 0.24109,-0.70273 0.29543,-1.25618c0.06791,-0.84474 0.14262,-1.80599 0.22412,-2.88376c0.0815,-1.07777 0.14262,-1.9662 0.18337,-2.6653h-5.70477c-0.02717,0.23303 -0.05433,0.6554 -0.0815,1.26711c-0.06791,1.33993 -0.27166,2.4796 -0.61123,3.41901c-0.33957,0.93941 -0.90326,1.8242 -1.69106,2.65437c-0.7878,0.83017 -1.90838,1.69676 -3.36174,2.59976l-1.12058,-1.50742c1.33111,-0.71366 2.35661,-1.40911 3.0765,-2.08636c0.71989,-0.67725 1.23264,-1.40547 1.53825,-2.18467c0.30561,-0.7792 0.51954,-1.75138 0.64179,-2.91653zM315.39388,183.27933v1.3108h-4.54344v3.86686h-1.52806v-3.86686h-4.66569v-1.3108h4.66569v-2.00989h-4.21746v-1.3108h2.77089c-0.63839,-0.91756 -1.1817,-1.65307 -1.62993,-2.20651l1.16133,-0.69909c-0.04075,-0.05826 0.2377,0.31314 0.83534,1.11418l0.95759,1.28895l-0.85572,0.50247h2.30228c0.67914,-0.94669 1.29716,-1.92251 1.85405,-2.92746l1.30395,0.67725c-0.27166,0.48063 -0.77422,1.2307 -1.50769,2.25021h2.64864v1.3108h-4.09521v2.00989zM331.12276,173.22985h-1.52806c-0.16299,1.35449 -0.37353,2.62888 -0.6316,3.82317h2.75052v1.57296h-10.20747v-1.57296h2.6079c-0.25807,-1.66035 -0.49577,-2.93474 -0.7131,-3.82317h-1.38544v-1.55111h3.97297c-0.17658,-0.77192 -0.38032,-1.48557 -0.61123,-2.14097l1.50769,-0.39324c0.27166,0.87387 0.50256,1.71861 0.69272,2.53422h3.54511zM324.11404,187.3865v1.46373h-1.42619v-8.2362h7.78294v6.77247zM270.46881,169.60331l1.42619,-0.58986c0.67914,1.98077 1.52467,3.61927 2.53659,4.9155c1.01192,1.29624 2.36001,2.48324 4.04428,3.56101l-0.85572,1.59481c-1.82009,-1.25254 -3.27685,-2.59247 -4.37026,-4.01979c-1.09341,-1.42732 -2.02044,-3.24787 -2.78108,-5.46167zM266.67921,169.36299l1.42619,0.63355c-0.76064,1.87881 -1.69785,3.55373 -2.81164,5.02474c-1.11379,1.47101 -2.45848,2.8255 -4.03409,4.06348l-0.87609,-1.44188c1.35828,-1.00495 2.57394,-2.21744 3.64698,-3.63747c1.07304,-1.42003 1.95592,-2.96751 2.64864,-4.64242zM294.57147,181.50975v-2.40313h-9.63699v2.40313zM284.93448,175.37083v2.31575h9.63699v-2.31575zM284.93448,173.99449h9.63699v-2.2939h-9.63699zM324.11404,185.90093h4.93055v-3.73578h-4.93055zM328.20925,173.22985h-3.36174c0.35315,1.80599 0.59085,3.08038 0.7131,3.82317h2.01704c0.24449,-1.13603 0.45502,-2.41042 0.6316,-3.82317z" fill="#ffffff" fill-rule="evenodd" stroke="#ffffff" stroke-width="0.5" stroke-linecap="round"/></g></g></svg>