<svg version="1.1" xmlns="http://www.w3.org/2000/svg" xmlns:xlink="http://www.w3.org/1999/xlink" width="224" height="32" viewBox="0,0,224,32"><g transform="translate(-128,-164)"><g stroke="none" stroke-miterlimit="10"><path d="M128,196v-32h224v32z" fill-opacity="0" fill="#000000"/><g fill="#ffffff"><path d=""/><path d="M208.6193,172c2.4096,0 4.3809,1.9713 4.3809,4.3809v7.2383c0,2.4096 -1.9713,4.3809 -4.3809,4.3809h-7.2383c-2.4096,0 -4.3809,-1.9713 -4.3809,-4.3809v-7.2383c0,-2.4096 1.9713,-4.3809 4.3809,-4.3809zM199.0001,176.3809v7.2383c0,1.3362 1.0447,2.3809 2.3809,2.3809h7.2383c1.3362,0 2.3809,-1.0447 2.3809,-2.3809v-7.2383c0,-1.3362 -1.0447,-2.3809 -2.3809,-2.3809h-7.2383c-1.3362,0 -2.3809,1.0447 -2.3809,2.3809z"/><path d="M205.01006,175.80906c0.30761,0 0.58178,0.11255 0.7832,0.33008c0.19912,0.20805 0.30078,0.4774 0.30078,0.77539c0,0.30505 -0.10406,0.57476 -0.30664,0.77734c-0.20257,0.20258 -0.47229,0.30664 -0.77734,0.30664c-0.29799,0 -0.56539,-0.10363 -0.77344,-0.30274v-0.002h-0.002c-0.21626,-0.20124 -0.33008,-0.47261 -0.33008,-0.7793c0,-0.30062 0.11408,-0.57222 0.32812,-0.7793c0.20708,-0.21404 0.47672,-0.32617 0.77734,-0.32617zM205.87134,178.434c0.08238,-0.00021 0.14952,0.06606 0.15039,0.14844v5.4609c0.0001,0.03992 -0.01571,0.07823 -0.04394,0.10645c-0.02822,0.02822 -0.06653,0.04404 -0.10645,0.04394h-1.7422c-0.03992,0.0001 -0.07823,-0.01571 -0.10645,-0.04394c-0.02822,-0.02822 -0.04404,-0.06653 -0.04394,-0.10645v-5.4609c0.00087,-0.08238 0.06801,-0.14865 0.15039,-0.14844z"/></g><path d="M221.06658,173.10634h11.97396v1.26554h-11.97396v-1.26554M221.78047,179.64497h12.05509v1.20064h-12.05509v-1.20064M223.25694,181.36481h9.68625v1.05462h-9.68625v-1.05462M221.74802,182.97107h12.70408v1.16819h-12.70408v-1.16819M222.15364,176.65959h3.42345v0.90859h-3.42345v-0.90859M221.7967,178.15228h3.79662v0.89237h-3.79662v-0.89237M228.48135,178.15228h3.8453v0.89237h-3.8453v-0.89237M228.48135,176.65959h3.4559v0.90859h-3.4559v-0.90859M226.16119,173.64176h1.71984v5.67871h-1.71984v-5.67871M220.02818,175.02088h14.0832v2.83935h-1.68739v-1.80096h-10.78955v1.80096h-1.60626v-2.83935M221.00168,179.64497h1.62249v2.23903c0,0.4543 -0.02704,0.94321 -0.08112,1.46673c-0.05408,0.52569 -0.1536,1.05894 -0.29854,1.59977c-0.14711,0.54083 -0.35262,1.06219 -0.61655,1.56408c-0.26609,0.50405 -0.61006,0.9616 -1.0319,1.37262c-0.08653,-0.10817 -0.20552,-0.2358 -0.35695,-0.38291c-0.15143,-0.14494 -0.31044,-0.28556 -0.47701,-0.42185c-0.16874,-0.13413 -0.31801,-0.23364 -0.44781,-0.29854c0.50838,-0.48675 0.88155,-1.01676 1.11952,-1.59004c0.23797,-0.57328 0.39264,-1.1498 0.46403,-1.72957c0.06923,-0.57761 0.10384,-1.11519 0.10384,-1.61275v-2.20658M228.46512,183.58761c0.3245,0.53001 0.7842,0.97025 1.37911,1.32071c0.59491,0.35262 1.30556,0.62844 2.13195,0.82747c0.82855,0.20119 1.7512,0.33423 2.76796,0.39913c-0.15143,0.15143 -0.30827,0.35695 -0.47052,0.61655c-0.16225,0.2596 -0.29205,0.49756 -0.3894,0.71389c-1.11411,-0.11898 -2.10599,-0.3245 -2.97564,-0.61655c-0.87182,-0.29205 -1.62141,-0.68469 -2.24877,-1.17793c-0.62736,-0.49107 -1.14656,-1.09356 -1.55759,-1.80745l1.36289,-0.27582M232.24552,184.00946l1.28177,0.649c-0.3894,0.2596 -0.80043,0.49973 -1.23309,0.72038c-0.43266,0.22282 -0.82747,0.41536 -1.18442,0.57761l-1.05462,-0.5841c0.23797,-0.1298 0.48891,-0.27366 0.75283,-0.43158c0.26609,-0.15576 0.52677,-0.31801 0.78204,-0.48675c0.25311,-0.16658 0.4716,-0.31476 0.65549,-0.44456M223.38673,187.77363l-0.08112,-1.13574l0.68144,-0.47052l4.47807,-0.63277c-0.04327,0.1947 -0.08112,0.4186 -0.11357,0.67171c-0.03245,0.25527 -0.04867,0.46403 -0.04867,0.62628c-0.99513,0.16225 -1.7988,0.29421 -2.41102,0.39589c-0.61006,0.10384 -1.08274,0.18821 -1.41805,0.25311c-0.33531,0.0649 -0.57869,0.11898 -0.73012,0.16225c-0.15143,0.04327 -0.27042,0.08653 -0.35695,0.1298M223.38673,187.77363c-0.04327,-0.1298 -0.10817,-0.27907 -0.1947,-0.44781c-0.08653,-0.16658 -0.18064,-0.33423 -0.28231,-0.50297c-0.10384,-0.16658 -0.19903,-0.30395 -0.28556,-0.41211c0.18388,-0.09735 0.38182,-0.26284 0.59383,-0.49648c0.20984,-0.23148 0.31476,-0.53109 0.31476,-0.89886v-1.55759l1.68739,0.03245v2.64466c0,0 -0.06165,0.03786 -0.18496,0.11357c-0.12547,0.07572 -0.27799,0.17847 -0.45754,0.30827c-0.17739,0.1298 -0.35803,0.26501 -0.54191,0.40562c-0.18388,0.14062 -0.33748,0.2834 -0.46079,0.42834c-0.12547,0.14711 -0.18821,0.27474 -0.18821,0.38291zM239.14109,177.25991h11.34119v1.37911h-11.34119v-1.37911M239.28712,181.98135h9.02103v1.37911h-9.02103v-1.37911M241.44503,176.09172h1.65494v3.81285h3.24498v-3.81285h1.70361v5.14329h-6.60353v-5.14329M247.85385,181.98135h0.34072l0.30827,-0.0649l1.08707,0.56787c-0.44348,0.84369 -1.02217,1.56516 -1.73606,2.1644c-0.71389,0.6014 -1.52514,1.10221 -2.43373,1.50242c-0.90859,0.40021 -1.88749,0.7193 -2.9367,0.95727c-1.04921,0.23797 -2.14168,0.42185 -3.27743,0.55165c-0.0649,-0.20552 -0.16441,-0.45213 -0.29854,-0.73985c-0.13629,-0.28556 -0.27474,-0.52569 -0.41536,-0.72038c1.03839,-0.07572 2.04433,-0.20876 3.01783,-0.39913c0.97349,-0.18821 1.87343,-0.43915 2.69982,-0.75283c0.82855,-0.31368 1.55651,-0.70632 2.18387,-1.17793c0.62736,-0.46944 1.11411,-1.02325 1.46024,-1.66143v-0.22715M241.99667,183.03597c0.53001,0.62736 1.23525,1.16278 2.11572,1.60626c0.88263,0.44348 1.90264,0.79718 3.06001,1.06111c1.15737,0.26609 2.40128,0.44781 3.73172,0.54516c-0.11898,0.11898 -0.24337,0.27042 -0.37317,0.4543c-0.1298,0.18388 -0.25095,0.36776 -0.36344,0.55165c-0.11466,0.18388 -0.20443,0.35154 -0.26933,0.50297c-1.38452,-0.14062 -2.66845,-0.38182 -3.85179,-0.72363c-1.1855,-0.33964 -2.24336,-0.79394 -3.17359,-1.36289c-0.93023,-0.56679 -1.71984,-1.25581 -2.36883,-2.06705l1.49269,-0.56787M237.87555,174.07983h12.76898v1.62249h-12.76898v-1.62249M237.06431,174.07983h1.71984v4.34827c0,0.67063 -0.01839,1.40832 -0.05516,2.21307c-0.03894,0.80692 -0.11249,1.63222 -0.22066,2.47592c-0.10817,0.84369 -0.26501,1.66035 -0.47052,2.44996c-0.20552,0.78961 -0.47593,1.51432 -0.81124,2.17413c-0.11898,-0.08653 -0.27582,-0.17847 -0.47052,-0.27582c-0.1947,-0.09735 -0.39264,-0.19254 -0.59383,-0.28556c-0.19903,-0.09086 -0.37425,-0.15251 -0.52569,-0.18496c0.3245,-0.62736 0.5841,-1.30664 0.77879,-2.03784c0.1947,-0.72904 0.33748,-1.47755 0.42834,-2.24552c0.09302,-0.76798 0.1536,-1.51757 0.18172,-2.24877c0.02596,-0.72904 0.03894,-1.40183 0.03894,-2.01838v-4.36449M242.74302,172.91164l1.75229,-0.40562c0.18388,0.34613 0.3537,0.72471 0.50946,1.13574c0.15792,0.41103 0.26933,0.76257 0.33423,1.05462l-1.86586,0.4543c-0.04327,-0.30286 -0.13521,-0.66522 -0.27582,-1.08707c-0.14062,-0.42185 -0.29205,-0.80584 -0.4543,-1.15197zM255.86894,178.44433v6.61975h-1.67116v-5.01349h-2.12546v-1.60626h3.79662M252.2508,174.12851l1.31422,-0.94104c0.30286,0.2596 0.61979,0.5484 0.95078,0.86641c0.32882,0.32017 0.63926,0.63385 0.93131,0.94104c0.29205,0.30935 0.53001,0.59383 0.71389,0.85343l-1.41156,1.07084c-0.15143,-0.2596 -0.36776,-0.55165 -0.649,-0.87614c-0.28123,-0.3245 -0.5841,-0.65765 -0.90859,-0.99945c-0.3245,-0.33964 -0.63818,-0.64467 -0.94104,-0.91508M255.17127,184.35018c0.28123,0 0.55705,0.09194 0.82747,0.27582c0.27042,0.18388 0.64359,0.3948 1.11952,0.63277c0.54083,0.27042 1.1736,0.44889 1.89831,0.53542c0.72471,0.08653 1.51973,0.1298 2.38506,0.1298c0.56246,0 1.18982,-0.01406 1.88209,-0.04218c0.69226,-0.02596 1.37911,-0.06598 2.06056,-0.12006c0.68144,-0.05408 1.28177,-0.11357 1.80096,-0.17847c-0.0649,0.15143 -0.1298,0.32991 -0.1947,0.53542c-0.0649,0.20552 -0.12439,0.41319 -0.17847,0.62304c-0.05408,0.21201 -0.08653,0.39372 -0.09735,0.54516c-0.28123,0.02163 -0.63818,0.04327 -1.07084,0.0649c-0.43266,0.02163 -0.90535,0.04002 -1.41805,0.05516c-0.51487,0.01731 -1.01784,0.03137 -1.50891,0.04218c-0.49324,0.01082 -0.93996,0.01622 -1.34018,0.01622c-0.96268,0 -1.80853,-0.05733 -2.53757,-0.17198c-0.7312,-0.11249 -1.39426,-0.32017 -1.98917,-0.62304c-0.36776,-0.1947 -0.68685,-0.38182 -0.95727,-0.56138c-0.27042,-0.17739 -0.50838,-0.26609 -0.71389,-0.26609c-0.18388,0 -0.39697,0.0887 -0.63926,0.26609c-0.24446,0.17956 -0.49648,0.41211 -0.75608,0.69767c-0.2596,0.28772 -0.5246,0.58842 -0.79502,0.9021l-1.05462,-1.49269c0.57328,-0.54083 1.1498,-0.98755 1.72957,-1.34018c0.57761,-0.35046 1.09356,-0.52569 1.54785,-0.52569M258.7083,177.92513v1.60626h5.77606v-1.60626h-5.77606M257.11826,176.57847h9.05348v4.28337h-9.05348v-4.28337M256.59906,174.11228h10.173v1.46024h-10.173v-1.46024M260.72018,172.63582h1.68739v12.67163h-1.68739v-12.67163M260.28211,180.40754l1.28177,0.4543c-0.31368,0.56246 -0.69226,1.10545 -1.13574,1.62898c-0.44348,0.52569 -0.92698,1.00162 -1.4505,1.42779c-0.52569,0.42834 -1.06435,0.78312 -1.616,1.06435c-0.07572,-0.14062 -0.17847,-0.29205 -0.30827,-0.4543c-0.1298,-0.16225 -0.26501,-0.32233 -0.40562,-0.48026c-0.14062,-0.15576 -0.27042,-0.28231 -0.3894,-0.37966c0.53001,-0.21633 1.04921,-0.4954 1.55759,-0.8372c0.50838,-0.33964 0.9789,-0.72038 1.41156,-1.14223c0.43266,-0.42185 0.7842,-0.8491 1.05462,-1.28177M261.15826,181.41348l0.98972,-1.03839c0.5192,0.29205 1.06327,0.62195 1.63222,0.98972c0.56679,0.36776 1.10762,0.74094 1.62249,1.11952c0.51271,0.37858 0.93131,0.73012 1.25581,1.05462l-1.07084,1.18442c-0.29205,-0.3245 -0.68685,-0.68469 -1.18442,-1.08058c-0.49756,-0.39372 -1.02974,-0.78853 -1.59653,-1.18442c-0.56895,-0.39372 -1.11843,-0.74202 -1.64845,-1.04488zM275.58217,178.8175h5.95453v1.57381h-5.95453v-1.57381M277.69141,179.74232c0.33531,0.95186 0.77122,1.85504 1.30773,2.70955c0.53434,0.85451 1.17252,1.60843 1.91454,2.26175c0.73985,0.65549 1.56408,1.17252 2.47267,1.5511c-0.1298,0.10817 -0.27042,0.25095 -0.42185,0.42834c-0.15143,0.17956 -0.29421,0.36127 -0.42834,0.54516c-0.13629,0.18388 -0.2477,0.35154 -0.33423,0.50297c-0.97349,-0.46511 -1.84098,-1.07625 -2.60247,-1.83341c-0.76365,-0.75716 -1.42887,-1.62573 -1.99566,-2.60572c-0.56895,-0.97782 -1.04272,-2.04001 -1.4213,-3.18657l1.50891,-0.37317M281.09863,178.8175h0.3245l0.3245,-0.04867l1.10329,0.34072c-0.21633,1.30881 -0.57544,2.51702 -1.07733,3.62464c-0.50405,1.10978 -1.14764,2.09409 -1.93076,2.95293c-0.78528,0.861 -1.72416,1.57273 -2.81664,2.13519c-0.1298,-0.20552 -0.30827,-0.43591 -0.53542,-0.69118c-0.22715,-0.25311 -0.44348,-0.46079 -0.649,-0.62304c0.75716,-0.35695 1.4332,-0.78745 2.02811,-1.2915c0.59491,-0.50189 1.11194,-1.06976 1.5511,-1.70361c0.43699,-0.63169 0.7961,-1.3153 1.07733,-2.05082c0.28123,-0.73553 0.48134,-1.50351 0.60032,-2.30393v-0.34072M280.66056,173.18747h1.78474c0,0 -0.00216,0.08329 -0.00649,0.24986c-0.00649,0.16874 -0.01514,0.30719 -0.02596,0.41536c-0.03245,1.14656 -0.0941,1.99566 -0.18496,2.54731c-0.09302,0.55165 -0.23688,0.93023 -0.43158,1.13574c-0.17307,0.1947 -0.37534,0.32666 -0.60681,0.39589c-0.23364,0.07139 -0.49648,0.12331 -0.78853,0.15576c-0.28123,0.01082 -0.65116,0.01622 -1.10978,0.01622c-0.46079,0 -0.95078,-0.01082 -1.46997,-0.03245c-0.01082,-0.21633 -0.05625,-0.4597 -0.13629,-0.73012c-0.08221,-0.27042 -0.1828,-0.50297 -0.30178,-0.69767c0.3245,0.02163 0.63602,0.04002 0.93455,0.05516c0.29638,0.01731 0.56138,0.02812 0.79502,0.03245c0.23148,0.00649 0.4067,0.00973 0.52569,0.00973c0.16225,0 0.29205,-0.00865 0.3894,-0.02596c0.09735,-0.01514 0.18388,-0.05516 0.2596,-0.12006c0.07572,-0.08653 0.13521,-0.24662 0.17847,-0.48026c0.04327,-0.23148 0.08112,-0.56679 0.11357,-1.00594c0.03245,-0.43699 0.05949,-0.99621 0.08112,-1.67765v-0.24337M268.05383,180.95918c0.49756,-0.10817 1.05786,-0.23797 1.6809,-0.3894c0.62087,-0.15143 1.27528,-0.31368 1.96321,-0.48675c0.68577,-0.17307 1.36938,-0.35154 2.05082,-0.53542l0.21092,1.68739c-0.94104,0.27042 -1.8929,0.53758 -2.85558,0.80151c-0.96268,0.26609 -1.84423,0.50189 -2.64466,0.7074l-0.40562,-1.78474M268.28098,175.76722h5.53268v1.68739h-5.53268v-1.68739M270.40644,172.6196h1.76851v13.15838c0,0.46511 -0.05625,0.82422 -0.16874,1.07733c-0.11466,0.25527 -0.3126,0.44781 -0.59383,0.57761c-0.28123,0.14062 -0.64142,0.22931 -1.08058,0.26609c-0.43699,0.03894 -0.97998,0.05841 -1.62898,0.05841c-0.03245,-0.22715 -0.09951,-0.50297 -0.20119,-0.82747c-0.10384,-0.3245 -0.21525,-0.60032 -0.33423,-0.82747c0.40021,0.01082 0.78204,0.01622 1.14548,0.01622c0.36127,0 0.6014,0 0.72038,0c0.14062,0 0.23797,-0.02488 0.29205,-0.07463c0.05408,-0.04759 0.08112,-0.1417 0.08112,-0.28231v-13.14215M274.34908,173.18747h6.8469v1.62249h-5.12706v12.89878h-1.71984z" fill="#ffffff"/></g></g></svg>