<svg version="1.1" xmlns="http://www.w3.org/2000/svg" xmlns:xlink="http://www.w3.org/1999/xlink" width="168.1" height="22.0234" viewBox="0,0,168.1,22.0234"><g transform="translate(-240,-180)"><g stroke="none" stroke-miterlimit="10"><path d="M248,180h152.1c4.432,0 8,3.568 8,8v6.0234c0,4.432 -3.568,8 -8,8h-152.1c-4.432,0 -8,-3.568 -8,-8v-6.0234c0,-4.432 3.568,-8 8,-8z" fill-opacity="0.7" fill="#000000" fill-rule="evenodd" stroke-width="0"/><path d="M250.98001,188.70377v0.82465h4.93718v-0.82465h-4.93718M250.98001,187.03306v0.82465h4.93718v-0.82465h-4.93718M249.85549,186.14415h7.23977v4.28389h-7.23977v-4.28389M248.46323,194.05863h10.00288v1.09239h-10.00288v-1.09239M251.67615,190.79217h1.09239v3.86621h-1.09239v-3.86621M254.10725,190.79217h1.09239v3.86621h-1.09239v-3.86621M256.76326,191.02778l0.97458,0.4391c-0.20705,0.37127 -0.43696,0.74611 -0.68971,1.12452c-0.25418,0.37841 -0.49193,0.70327 -0.71327,0.97458l-0.8782,-0.40697c0.14994,-0.19277 0.30558,-0.41054 0.46694,-0.65329c0.15993,-0.24275 0.31701,-0.49265 0.47123,-0.74968c0.15279,-0.25703 0.2756,-0.49979 0.36841,-0.72826M249.27717,191.4883l0.88891,-0.38555c0.12852,0.22133 0.26417,0.45838 0.40697,0.71113c0.1428,0.25418 0.27631,0.49907 0.40054,0.73469c0.12566,0.23561 0.22419,0.44267 0.29559,0.62116l-0.93175,0.44981c-0.0714,-0.18563 -0.16564,-0.40197 -0.28274,-0.64901c-0.11852,-0.24561 -0.24418,-0.49907 -0.37698,-0.76039c-0.13137,-0.25989 -0.26489,-0.5005 -0.40054,-0.72184zM263.57465,189.58197h1.26375v4.68015c0,0.32843 -0.04427,0.58332 -0.1328,0.76467c-0.08996,0.18278 -0.25275,0.32058 -0.48836,0.4134c-0.23561,0.08568 -0.52478,0.14065 -0.86749,0.16493c-0.34271,0.0257 -0.74968,0.03855 -1.22091,0.03855c-0.02856,-0.1785 -0.08211,-0.38412 -0.16065,-0.61688c-0.07854,-0.23133 -0.16065,-0.43267 -0.24632,-0.60403c0.21419,0.00714 0.42982,0.01428 0.64687,0.02142c0.21848,0.00714 0.4134,0.00857 0.58475,0.00428c0.17136,-0.00286 0.28916,-0.00428 0.35342,-0.00428c0.09996,0 0.16993,-0.01428 0.20991,-0.04284c0.03855,-0.02856 0.05783,-0.08211 0.05783,-0.16065v-4.65873M261.04715,190.95281l1.19949,0.31058c-0.15708,0.42839 -0.34985,0.85107 -0.57832,1.26803c-0.22847,0.41839 -0.47123,0.80965 -0.72826,1.17379c-0.25703,0.36413 -0.51764,0.68185 -0.78181,0.95317c-0.07854,-0.0714 -0.18349,-0.14994 -0.31487,-0.23561c-0.1328,-0.08568 -0.2656,-0.17136 -0.3984,-0.25703c-0.13137,-0.08568 -0.24704,-0.14994 -0.34699,-0.19277c0.39983,-0.36413 0.77324,-0.81751 1.12024,-1.36013c0.34557,-0.54263 0.62188,-1.09596 0.82893,-1.66001M266.04859,191.37049l1.07097,-0.44981c0.24989,0.33557 0.49479,0.69613 0.73469,1.08168c0.23847,0.38555 0.45623,0.76539 0.65329,1.13951c0.19563,0.37555 0.34343,0.71684 0.44338,1.02385l-1.18878,0.51407c-0.07854,-0.29273 -0.20848,-0.63045 -0.38983,-1.01314c-0.18278,-0.38127 -0.38983,-0.77396 -0.62116,-1.17807c-0.23276,-0.40269 -0.46694,-0.77538 -0.70256,-1.11809M260.38315,186.35834h7.58248v1.14594h-7.58248v-1.14594M259.41927,188.9501h9.53165v1.14594h-9.53165zM269.96835,187.60067h3.26646v1.07097h-3.26646v-1.07097M271.26423,185.64079h1.04955v9.99217h-1.04955v-9.99217M271.24281,188.37177l0.63187,0.23561c-0.06426,0.41411 -0.14779,0.84607 -0.25061,1.29588c-0.10424,0.44981 -0.22062,0.89033 -0.34914,1.32158c-0.12852,0.43267 -0.26988,0.83464 -0.4241,1.20591c-0.15279,0.37127 -0.31487,0.68899 -0.48622,0.95317c-0.0357,-0.11424 -0.08425,-0.24133 -0.14565,-0.38127c-0.05997,-0.13851 -0.12423,-0.27774 -0.19277,-0.41768c-0.06711,-0.13851 -0.1328,-0.25775 -0.19706,-0.3577c0.15708,-0.22133 0.30701,-0.48408 0.44981,-0.78824c0.1428,-0.30273 0.27631,-0.62759 0.40054,-0.97458c0.12566,-0.34557 0.23633,-0.69899 0.332,-1.06026c0.0971,-0.35985 0.17421,-0.70399 0.23133,-1.03242M272.27094,188.99294c0.05712,0.0714 0.14494,0.1942 0.26346,0.36841c0.11709,0.17564 0.2449,0.36699 0.38341,0.57404c0.13994,0.20705 0.26703,0.39769 0.38127,0.5719c0.11424,0.17564 0.19277,0.30273 0.23561,0.38127l-0.664,0.78181c-0.05712,-0.1428 -0.13351,-0.31772 -0.22919,-0.52478c-0.0971,-0.20705 -0.20134,-0.42125 -0.31272,-0.64258c-0.10995,-0.22133 -0.21705,-0.43053 -0.32129,-0.62759c-0.10281,-0.19563 -0.18992,-0.35414 -0.26132,-0.47551l0.52478,-0.40697M276.6298,185.97279c0.1785,0.24989 0.39769,0.50693 0.65758,0.7711c0.26132,0.26417 0.54191,0.52263 0.84178,0.77538c0.29987,0.25418 0.61045,0.48836 0.93175,0.70256c0.32129,0.21419 0.63187,0.39983 0.93175,0.55691c-0.06426,0.09282 -0.13209,0.20491 -0.20348,0.33629c-0.0714,0.1328 -0.1378,0.26703 -0.1992,0.40269c-0.05997,0.13566 -0.10781,0.25703 -0.14351,0.36413c-0.43553,-0.27845 -0.87962,-0.60331 -1.33229,-0.97458c-0.45409,-0.37127 -0.88248,-0.76396 -1.28517,-1.17807c-0.40411,-0.41411 -0.74897,-0.81037 -1.03456,-1.18878l0.83536,-0.56762M276.09431,185.5337l0.996,0.37484c-0.28559,0.53549 -0.6283,1.05812 -1.02813,1.5679c-0.39983,0.51121 -0.82608,0.98458 -1.27874,1.42011c-0.45409,0.43553 -0.91318,0.81394 -1.37727,1.13523c-0.04284,-0.07854 -0.10353,-0.17707 -0.18207,-0.29559c-0.07854,-0.11709 -0.16065,-0.23633 -0.24632,-0.3577c-0.08568,-0.12138 -0.16065,-0.21776 -0.2249,-0.28916c0.43553,-0.27131 0.86249,-0.5926 1.28088,-0.96387c0.41696,-0.37127 0.80394,-0.77824 1.16093,-1.22091c0.35699,-0.44267 0.65686,-0.89962 0.89962,-1.37084M274.51998,188.92868h3.75911v0.97458h-3.75911v-0.97458M273.74888,190.97423l0.88891,-0.23561c0.09282,0.27131 0.18207,0.56048 0.26774,0.86749c0.08568,0.30701 0.16422,0.60688 0.23561,0.89962c0.0714,0.29273 0.12138,0.55334 0.14994,0.78181l-0.93175,0.25703c-0.02856,-0.23561 -0.07497,-0.49979 -0.13923,-0.79252c-0.06426,-0.29273 -0.1378,-0.59617 -0.22062,-0.91033c-0.08139,-0.31415 -0.16493,-0.60331 -0.25061,-0.86749M275.79444,190.66365l0.88891,-0.12852c0.0714,0.27131 0.1378,0.55833 0.1992,0.86106c0.05997,0.30416 0.11495,0.60046 0.16493,0.88891c0.04998,0.28988 0.08211,0.54905 0.09639,0.77753l-0.93175,0.14994c-0.01428,-0.22847 -0.04284,-0.49122 -0.08568,-0.78824c-0.04284,-0.29559 -0.09282,-0.59689 -0.14994,-0.9039c-0.05712,-0.30701 -0.11781,-0.5926 -0.18207,-0.85678M278.40761,190.53514l1.00671,0.2249c-0.17136,0.42839 -0.35699,0.87606 -0.55691,1.343c-0.19992,0.46837 -0.4034,0.91675 -0.61045,1.34514c-0.20705,0.42839 -0.4034,0.80323 -0.58903,1.12452l-0.82465,-0.23561c0.1428,-0.24989 0.28702,-0.53192 0.43267,-0.84607c0.14708,-0.31415 0.29202,-0.64473 0.43481,-0.99172c0.1428,-0.34557 0.27488,-0.68614 0.39626,-1.02171c0.12138,-0.33557 0.2249,-0.64972 0.31058,-0.94246M273.2241,194.17644h6.37228v1.00671h-6.37228zM285.42248,193.83373l0.69613,-0.41768c0.17136,0.17136 0.34628,0.35699 0.52478,0.55691c0.1785,0.19992 0.34628,0.39769 0.50336,0.59332c0.15708,0.19706 0.28202,0.37056 0.37484,0.52049l-0.72826,0.48194c-0.09282,-0.15708 -0.21419,-0.33771 -0.36413,-0.54191c-0.14994,-0.20277 -0.31415,-0.40983 -0.49265,-0.62116c-0.1785,-0.20991 -0.34985,-0.40054 -0.51407,-0.5719M283.52686,186.22983h3.75911v6.89706h-0.89962v-6.07241h-1.99201v6.11525h-0.86749v-6.9399M289.36365,185.80144h0.91033v8.64274c0,0.27131 -0.03213,0.48194 -0.09639,0.63187c-0.06426,0.14994 -0.17493,0.26417 -0.332,0.34271c-0.15708,0.07854 -0.36556,0.12994 -0.62545,0.15422c-0.26132,0.0257 -0.58475,0.03499 -0.9703,0.02785c-0.02142,-0.12138 -0.06069,-0.27488 -0.11781,-0.46052c-0.05712,-0.18563 -0.11781,-0.34628 -0.18207,-0.48194c0.26417,0.00714 0.50907,0.01071 0.73469,0.01071c0.22419,0 0.37912,0 0.4648,0c0.1428,0 0.21419,-0.0714 0.21419,-0.21419v-8.65345M287.89642,186.62609h0.8782v6.54364h-0.8782v-6.54364M284.94054,187.69706h0.84607v4.02686c0,0.35699 -0.02856,0.71755 -0.08568,1.08168c-0.05712,0.36413 -0.16207,0.72112 -0.31487,1.07097c-0.15422,0.34985 -0.37984,0.67471 -0.67685,0.97458c-0.29559,0.29987 -0.68257,0.56405 -1.16093,0.79252c-0.02856,-0.06426 -0.07354,-0.1428 -0.13494,-0.23561c-0.05997,-0.09282 -0.12352,-0.18421 -0.19063,-0.27417c-0.06854,-0.08853 -0.1278,-0.15422 -0.17778,-0.19706c0.42839,-0.19992 0.76896,-0.42339 1.02171,-0.67043c0.25418,-0.24561 0.4441,-0.50764 0.56976,-0.78609c0.12423,-0.27845 0.20634,-0.56762 0.24632,-0.86749c0.03855,-0.29987 0.05783,-0.59974 0.05783,-0.89962v-4.01615M280.99936,186.57254l0.67471,-0.83536c0.18563,0.09282 0.39055,0.20348 0.61474,0.332c0.22562,0.12852 0.44338,0.25703 0.65329,0.38555c0.21134,0.12852 0.38127,0.24632 0.50978,0.35342l-0.70684,0.93175c-0.12138,-0.11424 -0.28202,-0.24133 -0.48194,-0.38127c-0.19992,-0.13851 -0.41268,-0.2756 -0.6383,-0.41125c-0.22419,-0.13566 -0.43267,-0.2606 -0.62545,-0.37484M280.57097,189.44274l0.64258,-0.82465c0.19277,0.09282 0.40126,0.19992 0.62545,0.32129c0.22562,0.12138 0.44195,0.24275 0.64901,0.36413c0.20705,0.12138 0.38198,0.23204 0.52478,0.332l-0.68542,0.92104c-0.12138,-0.1071 -0.28559,-0.22705 -0.49265,-0.35985c-0.20705,-0.13137 -0.42125,-0.26346 -0.64258,-0.39626c-0.22133,-0.13137 -0.42839,-0.25061 -0.62116,-0.3577M280.76375,194.92612c0.13566,-0.27845 0.28559,-0.60688 0.44981,-0.98529c0.16422,-0.37841 0.32843,-0.78038 0.49265,-1.20591c0.16422,-0.4241 0.31772,-0.83964 0.46052,-1.24661l0.92104,0.58903c-0.12138,0.37841 -0.25346,0.76753 -0.39626,1.16736c-0.1428,0.39983 -0.2913,0.79252 -0.44552,1.17807c-0.15279,0.38555 -0.30059,0.74968 -0.44338,1.09239zM291.89115,191.20985h5.08712v0.996h-5.08712v-0.996M293.89387,190.19242h1.09239v4.28389h-1.09239v-4.28389M291.52702,194.1336c0.46409,-0.06426 1.001,-0.14637 1.61074,-0.24632c0.61117,-0.09996 1.25589,-0.2092 1.93418,-0.32772c0.67828,-0.11709 1.35299,-0.23276 2.02414,-0.34699l0.06426,0.98529c-0.63544,0.12138 -1.27446,0.24275 -1.91704,0.36413c-0.64258,0.12138 -1.25804,0.23704 -1.84636,0.34699c-0.58975,0.11138 -1.12738,0.20991 -1.61288,0.29559l-0.25703,-1.07097M291.63411,186.29409h5.56905v0.996h-5.56905v-0.996M294.82561,187.86841l0.81394,-0.49265c0.19992,0.23561 0.39983,0.49265 0.59974,0.7711c0.19992,0.27845 0.38555,0.55119 0.55691,0.81822c0.17136,0.26846 0.30344,0.50978 0.39626,0.72398l-0.8782,0.56762c-0.08568,-0.21419 -0.21062,-0.46052 -0.37484,-0.73897c-0.16422,-0.27845 -0.34414,-0.56262 -0.53977,-0.85249c-0.19706,-0.28845 -0.38841,-0.55405 -0.57404,-0.7968M297.6744,186.61538h1.06026v6.5008h-1.06026v-6.5008M299.74137,185.78002h1.12452v8.35358c0,0.30701 -0.03713,0.5462 -0.11138,0.71755c-0.07568,0.17136 -0.20991,0.30344 -0.40269,0.39626c-0.19277,0.08568 -0.4391,0.1428 -0.73897,0.17136c-0.29987,0.02856 -0.65686,0.04284 -1.07097,0.04284c-0.02142,-0.15708 -0.0714,-0.34271 -0.14994,-0.55691c-0.07854,-0.21419 -0.16065,-0.39983 -0.24632,-0.55691c0.29273,0.00714 0.56762,0.01214 0.82465,0.01499c0.25703,0.00428 0.43196,0.00643 0.52478,0.00643c0.09996,0 0.16636,-0.01785 0.1992,-0.05355c0.03141,-0.0357 0.04712,-0.09996 0.04712,-0.19277v-8.34287M292.21244,190.12817c-0.02142,-0.07854 -0.05355,-0.18064 -0.09639,-0.3063c-0.04284,-0.12423 -0.08782,-0.25418 -0.13494,-0.38983c-0.0457,-0.13566 -0.08996,-0.25346 -0.1328,-0.35342c0.07854,-0.02142 0.16065,-0.07354 0.24632,-0.15636c0.08568,-0.08139 0.17136,-0.18278 0.25703,-0.30416c0.05712,-0.08568 0.14779,-0.23204 0.27203,-0.4391c0.12566,-0.20705 0.25632,-0.45195 0.39198,-0.73469c0.13566,-0.28131 0.25346,-0.5719 0.35342,-0.87177l1.11381,0.41768c-0.1428,0.29987 -0.30558,0.60474 -0.48836,0.91461c-0.18135,0.3113 -0.37056,0.6076 -0.56762,0.88891c-0.19563,0.28274 -0.38983,0.53477 -0.58261,0.75611v0.02142c0,0 -0.03213,0.01785 -0.09639,0.05355c-0.06426,0.0357 -0.1378,0.08211 -0.22062,0.13923c-0.08139,0.05712 -0.15422,0.11781 -0.21848,0.18207c-0.06426,0.06426 -0.09639,0.12495 -0.09639,0.18207M292.21244,190.12817l-0.02142,-0.80323l0.53549,-0.34271l3.35214,-0.2249c0.06426,0.1428 0.1428,0.29773 0.23561,0.4648c0.09282,0.1685 0.17136,0.30987 0.23561,0.4241c-0.70684,0.06426 -1.30302,0.11781 -1.78852,0.16065c-0.48551,0.04284 -0.87962,0.07854 -1.18235,0.1071c-0.30416,0.02856 -0.54548,0.05355 -0.72398,0.07497c-0.1785,0.02142 -0.31415,0.04284 -0.40697,0.06426c-0.09282,0.02142 -0.17136,0.04641 -0.23561,0.07497zM303.05068,185.96208h7.90377v0.83536h-7.90377v-0.83536M303.5219,190.2781h7.95732v0.79252h-7.95732v-0.79252M304.49649,191.41333h6.3937v0.69613h-6.3937v-0.69613M303.50049,192.47359h8.38571v0.7711h-8.38571v-0.7711M303.76823,188.30751h2.25975v0.59974h-2.25975v-0.59974M303.53261,189.29281h2.50607v0.58903h-2.50607v-0.58903M307.94502,189.29281h2.5382v0.58903h-2.5382v-0.58903M307.94502,188.30751h2.28117v0.59974h-2.28117v-0.59974M306.41353,186.31551h1.13523v3.7484h-1.13523v-3.7484M302.36525,187.22583h9.29604v1.8742h-1.11381v-1.18878h-7.12196v1.18878h-1.06026v-1.8742M303.00784,190.2781h1.07097v1.47794c0,0.29987 -0.01785,0.62259 -0.05355,0.96816c-0.0357,0.34699 -0.10139,0.69899 -0.19706,1.05598c-0.0971,0.35699 -0.23347,0.70113 -0.40911,1.03242c-0.17421,0.33272 -0.40054,0.63473 -0.679,0.90604c-0.05712,-0.0714 -0.13566,-0.15565 -0.23561,-0.25275c-0.09996,-0.09567 -0.20563,-0.18849 -0.31701,-0.27845c-0.10995,-0.08853 -0.20777,-0.15422 -0.29345,-0.19706c0.33557,-0.32129 0.58189,-0.67114 0.73897,-1.04955c0.15708,-0.37841 0.25846,-0.75896 0.30416,-1.14166c0.04712,-0.38127 0.07068,-0.73611 0.07068,-1.06455v-1.45652M307.93431,192.88056c0.21419,0.34985 0.51764,0.64044 0.91033,0.87177c0.39269,0.23276 0.86249,0.41482 1.4094,0.5462c0.54548,0.1328 1.15379,0.22062 1.82494,0.26346c-0.09996,0.09996 -0.20348,0.23561 -0.31058,0.40697c-0.1071,0.17136 -0.19277,0.32843 -0.25703,0.47123c-0.7354,-0.07854 -1.39012,-0.21419 -1.96416,-0.40697c-0.57547,-0.19277 -1.07026,-0.45195 -1.48437,-0.77753c-0.41411,-0.32415 -0.75682,-0.72184 -1.02813,-1.19306l0.89962,-0.18207M310.42967,193.15902l0.84607,0.42839c-0.25703,0.17136 -0.52835,0.32986 -0.81394,0.47551c-0.28559,0.14708 -0.5462,0.27417 -0.78181,0.38127l-0.69613,-0.38555c0.15708,-0.08568 0.32343,-0.18064 0.49907,-0.28488c0.17421,-0.10281 0.34485,-0.20991 0.51192,-0.32129c0.1685,-0.10995 0.31344,-0.20777 0.43481,-0.29345M304.58217,195.64367l-0.05355,-0.74968l0.44981,-0.31058l2.95588,-0.41768c-0.02856,0.12852 -0.05355,0.27631 -0.07497,0.44338c-0.02142,0.1685 -0.03213,0.3063 -0.03213,0.4134c-0.65686,0.1071 -1.18664,0.1942 -1.58932,0.26132c-0.40411,0.06854 -0.71684,0.12423 -0.93817,0.16707c-0.22133,0.04284 -0.38198,0.07854 -0.48194,0.1071c-0.09996,0.02856 -0.1785,0.05712 -0.23561,0.08568M304.58217,195.64367c-0.02856,-0.08568 -0.0714,-0.18421 -0.12852,-0.29559c-0.05712,-0.10995 -0.11995,-0.22062 -0.18849,-0.332c-0.06711,-0.10995 -0.12923,-0.20063 -0.18635,-0.27203c0.12138,-0.06426 0.25204,-0.1735 0.39198,-0.32772c0.13851,-0.15279 0.20777,-0.35056 0.20777,-0.59332v-1.02813l1.11381,0.02142v1.74568c0,0 -0.04141,0.02499 -0.12423,0.07497c-0.08139,0.04998 -0.18064,0.11781 -0.29773,0.20348c-0.11852,0.08568 -0.23847,0.17493 -0.35985,0.26774c-0.12138,0.09282 -0.22348,0.18706 -0.3063,0.28274c-0.08139,0.0971 -0.12209,0.18135 -0.12209,0.25275zM317.77654,188.00764h4.23034v1.1031h-4.23034v-1.1031M321.41785,188.00764h1.12452c0,0 0,0.03356 0,0.10067c0,0.06854 -0.00143,0.14565 -0.00428,0.23133c-0.00428,0.08568 -0.00643,0.15351 -0.00643,0.20348c-0.02856,1.09239 -0.05855,2.01843 -0.08996,2.7781c-0.03284,0.7611 -0.07068,1.38798 -0.11352,1.88063c-0.04284,0.49265 -0.09639,0.8782 -0.16065,1.15665c-0.06426,0.27845 -0.1428,0.47837 -0.23561,0.59974c-0.12138,0.17136 -0.24775,0.29059 -0.37912,0.3577c-0.1328,0.06854 -0.29202,0.12066 -0.47765,0.15636c-0.17136,0.02142 -0.38555,0.03356 -0.64258,0.03641c-0.25703,0.00428 -0.52478,-0.00071 -0.80323,-0.01499c-0.01428,-0.16422 -0.05141,-0.35342 -0.11138,-0.56762c-0.0614,-0.21419 -0.14208,-0.39983 -0.24204,-0.55691c0.27131,0.02142 0.51978,0.03356 0.7454,0.03641c0.22419,0.00428 0.3934,0.00643 0.50764,0.00643c0.09282,0.00714 0.16993,-0.00214 0.23133,-0.02785c0.05997,-0.02428 0.11852,-0.07211 0.17564,-0.14351c0.06426,-0.07854 0.12138,-0.24275 0.17136,-0.49265c0.04998,-0.24989 0.09282,-0.60688 0.12852,-1.07097c0.0357,-0.46409 0.06783,-1.05883 0.09639,-1.78424c0.02856,-0.72398 0.05712,-1.6036 0.08568,-2.63888v-0.24632M319.08313,185.83357h1.13523c0,0.8068 -0.00857,1.59575 -0.0257,2.36685c-0.01856,0.7711 -0.06354,1.5115 -0.13494,2.2212c-0.0714,0.71113 -0.18563,1.38441 -0.34271,2.01985c-0.15708,0.63544 -0.37127,1.22091 -0.64258,1.75639c-0.27131,0.53549 -0.62116,1.01385 -1.04955,1.4351c-0.06426,-0.09996 -0.14637,-0.20563 -0.24632,-0.31701c-0.09996,-0.10995 -0.20348,-0.21491 -0.31058,-0.31487c-0.1071,-0.09996 -0.21062,-0.1785 -0.31058,-0.23561c0.39269,-0.37127 0.71255,-0.79823 0.95959,-1.28088c0.24561,-0.48122 0.43481,-1.00957 0.56762,-1.58504c0.13137,-0.57404 0.22562,-1.18806 0.28274,-1.84207c0.05712,-0.65258 0.09139,-1.33443 0.10281,-2.04556c0.01,-0.7097 0.01499,-1.43582 0.01499,-2.17836M313.25704,186.48686h4.19821v1.01742h-4.19821v-1.01742M312.89291,188.99294h4.74441v1.03884h-4.74441v-1.03884M315.99873,191.03849l0.93175,-0.25703c0.12852,0.30701 0.2606,0.63687 0.39626,0.98958c0.13566,0.35414 0.2606,0.69685 0.37484,1.02813c0.11424,0.33272 0.19992,0.62045 0.25703,0.8632l-0.996,0.32129c-0.04998,-0.24989 -0.12637,-0.54477 -0.22919,-0.88462c-0.10424,-0.33843 -0.22062,-0.68828 -0.34914,-1.04955c-0.12852,-0.35985 -0.25703,-0.69685 -0.38555,-1.011M313.34272,194.43347l-0.1071,-0.96387l0.50336,-0.37484l3.46995,-0.79252c0.01428,0.1428 0.03784,0.31058 0.07068,0.50336c0.03141,0.19277 0.06497,0.34985 0.10067,0.47123c-0.65686,0.15708 -1.20663,0.29273 -1.6493,0.40697c-0.44267,0.11424 -0.8068,0.21062 -1.09239,0.28916c-0.28559,0.07854 -0.51192,0.14637 -0.679,0.20348c-0.1685,0.05712 -0.29916,0.10353 -0.39198,0.13923c-0.09282,0.0357 -0.16779,0.07497 -0.2249,0.11781M313.33201,194.43347c-0.01428,-0.07854 -0.04284,-0.18207 -0.08568,-0.31058c-0.04284,-0.12852 -0.08925,-0.25918 -0.13923,-0.39198c-0.04998,-0.13137 -0.09639,-0.24347 -0.13923,-0.33629c0.09996,-0.02856 0.18921,-0.10567 0.26774,-0.23133c0.07854,-0.12423 0.16422,-0.28631 0.25703,-0.48622c0.04284,-0.09996 0.1021,-0.2606 0.17778,-0.48194c0.07425,-0.22133 0.15636,-0.48051 0.24632,-0.77753c0.08853,-0.29559 0.17564,-0.61688 0.26132,-0.96387c0.08568,-0.34557 0.15708,-0.68614 0.21419,-1.02171l1.13523,0.32129c-0.1071,0.47123 -0.23918,0.9496 -0.39626,1.4351c-0.15708,0.48551 -0.32486,0.95317 -0.50336,1.40297c-0.1785,0.44981 -0.35699,0.85321 -0.53549,1.2102v0.03213c0,0 -0.03927,0.01928 -0.11781,0.05783c-0.07854,0.03998 -0.16779,0.0921 -0.26774,0.15636c-0.09996,0.06426 -0.18706,0.12994 -0.26132,0.19706c-0.07568,0.06854 -0.11352,0.13137 -0.11352,0.18849zM324.57722,187.37577h3.27717v7.15409h-3.27717v-1.01742h2.22762v-5.12996h-2.22762v-1.00671M323.9025,187.37577h1.04955v7.96803h-1.04955v-7.96803M324.52367,190.26739h2.80595v0.996h-2.80595v-0.996M325.45541,185.63008l1.25304,0.19277c-0.11424,0.34985 -0.23561,0.70113 -0.36413,1.05384c-0.12852,0.35414 -0.24632,0.65615 -0.35342,0.90604l-0.92104,-0.21419c0.04998,-0.1785 0.1021,-0.38198 0.15636,-0.61045c0.05283,-0.22847 0.10067,-0.45909 0.14351,-0.69185c0.04284,-0.23133 0.0714,-0.44338 0.08568,-0.63616M329.3002,187.31151h3.18079v1.04955h-3.18079v-1.04955M332.07402,187.31151h1.07097c0,0 0,0.03356 0,0.10067c0,0.06854 0,0.14351 0,0.2249c0,0.08282 -0.00357,0.14922 -0.01071,0.1992c-0.0357,1.21377 -0.07283,2.2419 -0.11138,3.0844c-0.03998,0.8425 -0.08639,1.53506 -0.13923,2.07769c-0.05426,0.54263 -0.11709,0.9653 -0.18849,1.26803c-0.0714,0.30416 -0.16422,0.52763 -0.27845,0.67043c-0.1428,0.19277 -0.28916,0.32486 -0.4391,0.39626c-0.14994,0.0714 -0.332,0.12495 -0.5462,0.16065c-0.19277,0.02142 -0.4391,0.03213 -0.73897,0.03213c-0.29987,0 -0.60688,-0.00714 -0.92104,-0.02142c-0.00714,-0.15708 -0.04427,-0.34271 -0.11138,-0.55691c-0.06854,-0.21419 -0.15993,-0.39983 -0.27417,-0.55691c0.34985,0.02856 0.67114,0.04641 0.96387,0.05355c0.29273,0.00714 0.50693,0.01071 0.64258,0.01071c0.1071,0 0.19492,-0.01285 0.26346,-0.03855c0.06711,-0.02428 0.13637,-0.07211 0.20777,-0.14351c0.08568,-0.09996 0.16065,-0.29487 0.2249,-0.58475c0.06426,-0.28845 0.11781,-0.69685 0.16065,-1.22519c0.04284,-0.52835 0.08425,-1.19949 0.12423,-2.01343c0.03855,-0.81394 0.07211,-1.78495 0.10067,-2.91304v-0.2249M329.38588,185.63008l1.1031,0.25703c-0.13566,0.52835 -0.29773,1.05098 -0.48622,1.5679c-0.18992,0.51835 -0.39912,1.006 -0.62759,1.46295c-0.22847,0.45695 -0.46409,0.85678 -0.70684,1.19949c-0.0714,-0.06426 -0.16422,-0.13923 -0.27845,-0.2249c-0.11424,-0.08568 -0.23204,-0.16993 -0.35342,-0.25275c-0.12138,-0.08139 -0.2249,-0.14351 -0.31058,-0.18635c0.23561,-0.30701 0.45909,-0.66614 0.67043,-1.0774c0.20991,-0.40983 0.39912,-0.85035 0.56762,-1.32158c0.16707,-0.47123 0.30773,-0.94602 0.42196,-1.42439M328.87181,190.31023l0.89962,-0.50336c0.1785,0.24275 0.37127,0.51192 0.57832,0.80751c0.20705,0.29702 0.40197,0.58261 0.58475,0.85678c0.18135,0.2756 0.32558,0.52049 0.43267,0.73469l-0.97458,0.59974c-0.09996,-0.22133 -0.23561,-0.4748 -0.40697,-0.76039c-0.17136,-0.28559 -0.35485,-0.58047 -0.55048,-0.88462c-0.19706,-0.30273 -0.38484,-0.58618 -0.56333,-0.85035zM336.50784,194.21928h5.44054v1.01742h-5.44054v-1.01742M337.71804,185.5337l1.09239,0.38555c-0.29273,0.49265 -0.63687,0.96887 -1.03242,1.42868c-0.39697,0.46123 -0.82036,0.88248 -1.27017,1.26375c-0.44981,0.38269 -0.90319,0.71327 -1.36013,0.99172c-0.05712,-0.07854 -0.13708,-0.16993 -0.2399,-0.27417c-0.10424,-0.10281 -0.21134,-0.20777 -0.32129,-0.31487c-0.11138,-0.1071 -0.20991,-0.19277 -0.29559,-0.25703c0.45695,-0.24275 0.89962,-0.53192 1.32801,-0.86749c0.42839,-0.33557 0.82322,-0.70327 1.1845,-1.1031c0.35985,-0.39983 0.66472,-0.81751 0.91461,-1.25304M341.61638,186.70106h0.24632l0.19277,-0.06426l0.81394,0.53549c-0.39983,0.64258 -0.90104,1.22448 -1.50364,1.74568c-0.60403,0.52121 -1.27517,0.98172 -2.01343,1.38155c-0.73969,0.39983 -1.51293,0.74254 -2.31973,1.02813c-0.8068,0.28559 -1.61003,0.51764 -2.40969,0.69613c-0.0357,-0.09996 -0.08568,-0.21634 -0.14994,-0.34914c-0.06426,-0.13137 -0.13209,-0.25775 -0.20348,-0.37912c-0.0714,-0.12138 -0.1428,-0.22133 -0.21419,-0.29987c0.59974,-0.11424 1.20306,-0.26274 1.80994,-0.44552c0.60688,-0.18135 1.19806,-0.39697 1.77353,-0.64687c0.57404,-0.24989 1.11667,-0.53049 1.62788,-0.84178c0.50978,-0.30987 0.96673,-0.64901 1.37084,-1.01742c0.40269,-0.36699 0.72898,-0.75753 0.97887,-1.17164v-0.17136M337.08617,187.26867c0.34271,0.44267 0.76753,0.85678 1.27446,1.24233c0.50693,0.38555 1.07311,0.73326 1.69856,1.04313c0.62402,0.3113 1.29159,0.58118 2.00272,0.80965c0.7097,0.22847 1.44653,0.40697 2.21049,0.53549c-0.08568,0.07854 -0.17493,0.18349 -0.26774,0.31487c-0.09282,0.1328 -0.18207,0.26489 -0.26774,0.39626c-0.08568,0.1328 -0.15351,0.25275 -0.20348,0.35985c-0.7711,-0.16422 -1.51364,-0.37698 -2.22762,-0.6383c-0.71398,-0.25989 -1.38869,-0.56833 -2.02414,-0.92532c-0.63544,-0.35699 -1.21877,-0.76039 -1.74997,-1.2102c-0.53263,-0.44981 -1.00243,-0.94246 -1.4094,-1.47794l0.96387,-0.44981M335.91881,191.67037h6.51151v3.95189h-1.22091v-2.90233h-4.13395v2.94517h-1.15665v-3.99473M337.56811,186.70106h4.31602v0.98529h-5.00144zM349.86287,185.63008l1.02813,0.48194c-0.40697,0.68542 -0.88534,1.3173 -1.4351,1.89562c-0.54977,0.57832 -1.15094,1.09596 -1.80352,1.55291c-0.65401,0.45695 -1.32729,0.84964 -2.01985,1.17807c-0.09282,-0.1785 -0.21776,-0.36984 -0.37484,-0.57404c-0.15708,-0.20277 -0.31772,-0.38269 -0.48194,-0.53977c0.68542,-0.26417 1.34586,-0.5926 1.9813,-0.98529c0.63544,-0.39269 1.22091,-0.8425 1.75639,-1.34942c0.53549,-0.50693 0.98529,-1.06026 1.34942,-1.66001M350.28055,186.31551c0.56405,0.60688 1.11381,1.12238 1.6493,1.54648c0.53549,0.42553 1.05883,0.7811 1.57005,1.06669c0.50978,0.28559 1.00386,0.53192 1.48223,0.73897c-0.15708,0.12852 -0.31415,0.29273 -0.47123,0.49265c-0.15708,0.19992 -0.28202,0.39626 -0.37484,0.58903c-0.47837,-0.24275 -0.97244,-0.52835 -1.48223,-0.85678c-0.51121,-0.32843 -1.04527,-0.73754 -1.60217,-1.22733c-0.55691,-0.48836 -1.15308,-1.09311 -1.78852,-1.81423l1.01742,-0.53549M349.2417,189.02506h1.19949v6.59719h-1.19949zM359.91929,185.64079h1.16736v3.70556h-1.16736v-3.70556M357.98084,189.89255v1.53149h5.10854v-1.53149h-5.10854M356.88844,188.82158h7.379v3.66272h-7.379v-3.66272M360.45478,186.6368h4.54092v1.08168h-4.54092v-1.08168M358.68768,193.34108l1.09239,-0.1071c0.05712,0.23561 0.1071,0.48908 0.14994,0.76039c0.04284,0.27131 0.07711,0.52977 0.10281,0.77538c0.02428,0.24704 0.03998,0.46337 0.04712,0.64901l-1.16736,0.14994c0,-0.18563 -0.00928,-0.40697 -0.02785,-0.664c-0.01714,-0.25703 -0.04355,-0.52335 -0.07925,-0.79895c-0.0357,-0.27417 -0.07497,-0.52906 -0.11781,-0.76467M360.89388,193.35179l1.04955,-0.23561c0.11424,0.22133 0.2249,0.46052 0.332,0.71755c0.1071,0.25703 0.20563,0.50693 0.29559,0.74968c0.08853,0.24275 0.15065,0.46052 0.18635,0.65329l-1.12452,0.27845c-0.0357,-0.18563 -0.09068,-0.4034 -0.16493,-0.65329c-0.07568,-0.24989 -0.1635,-0.50693 -0.26346,-0.7711c-0.09996,-0.26417 -0.20348,-0.5105 -0.31058,-0.73897M363.07866,193.27682l1.02813,-0.37484c0.1785,0.22847 0.35913,0.4748 0.54191,0.73897c0.18135,0.26417 0.35056,0.5262 0.50764,0.78609c0.15708,0.26132 0.27845,0.4955 0.36413,0.70256l-1.1031,0.4391c-0.07854,-0.20705 -0.19135,-0.44267 -0.33843,-0.70684c-0.14565,-0.26417 -0.3063,-0.53549 -0.48194,-0.81394c-0.17421,-0.27845 -0.34699,-0.53549 -0.51835,-0.7711M356.93128,192.97695l1.1031,0.27845c-0.15708,0.42839 -0.36199,0.85678 -0.61474,1.28517c-0.25418,0.42839 -0.52049,0.78538 -0.79895,1.07097l-1.06026,-0.51407c0.27131,-0.23561 0.52835,-0.54834 0.7711,-0.93817c0.24275,-0.38841 0.44267,-0.78252 0.59974,-1.18235zM369.81508,187.48286h5.9546v1.12452h-5.9546v-1.12452M370.46837,189.26068l1.03884,-0.23561c0.08568,0.36413 0.16779,0.74611 0.24632,1.14594c0.07854,0.39983 0.15208,0.79609 0.22062,1.18878c0.06711,0.39269 0.12566,0.76539 0.17564,1.11809c0.04998,0.35414 0.08925,0.67043 0.11781,0.94888l-1.13523,0.32129c-0.02142,-0.27845 -0.05355,-0.59974 -0.09639,-0.96387c-0.04284,-0.36413 -0.09496,-0.74825 -0.15636,-1.15237c-0.05997,-0.40269 -0.12352,-0.80751 -0.19063,-1.21448c-0.06854,-0.40697 -0.14208,-0.79252 -0.22062,-1.15665M374.07755,188.98223l1.2102,0.18207c-0.07854,0.44981 -0.16422,0.91532 -0.25703,1.39655c-0.09282,0.48265 -0.19135,0.96102 -0.29559,1.4351c-0.10281,0.47551 -0.20991,0.92746 -0.32129,1.35585c-0.10995,0.42839 -0.21491,0.81394 -0.31487,1.15665l-0.996,-0.21419c0.09996,-0.34985 0.19777,-0.74468 0.29345,-1.1845c0.0971,-0.43838 0.19063,-0.8989 0.28059,-1.38155c0.08853,-0.48122 0.1685,-0.95745 0.2399,-1.42868c0.0714,-0.47123 0.12495,-0.91033 0.16065,-1.3173M369.40811,194.10147h6.74712v1.1031h-6.74712v-1.1031M371.89276,185.78002l1.09239,-0.26774c0.09996,0.25703 0.20134,0.53906 0.30416,0.84607c0.10424,0.30701 0.18492,0.57476 0.24204,0.80323l-1.14594,0.32129c-0.04284,-0.22847 -0.1121,-0.50193 -0.20777,-0.82036c-0.0971,-0.31701 -0.19206,-0.61117 -0.28488,-0.88248M368.76552,185.68363l1.08168,0.332c-0.22847,0.60688 -0.49979,1.21163 -0.81394,1.81423c-0.31415,0.60403 -0.65329,1.17521 -1.01742,1.71356c-0.36413,0.53977 -0.74254,1.01314 -1.13523,1.42011c-0.02856,-0.09282 -0.07997,-0.21419 -0.15422,-0.36413c-0.07568,-0.14994 -0.15493,-0.30201 -0.23776,-0.45623c-0.08139,-0.15279 -0.15779,-0.2756 -0.22919,-0.36841c0.33557,-0.32843 0.659,-0.71255 0.9703,-1.15237c0.30987,-0.43838 0.59689,-0.90747 0.86106,-1.40726c0.26417,-0.49979 0.48908,-1.01028 0.67471,-1.53149M367.67313,188.58597l1.15665,-1.15665v0.01071v8.18223h-1.15665z" fill="#ffffff" fill-rule="nonzero" stroke-width="1"/></g></g></svg>