<svg version="1.1" xmlns="http://www.w3.org/2000/svg" xmlns:xlink="http://www.w3.org/1999/xlink" width="209.62522" height="32" viewBox="0,0,209.62522,32"><g transform="translate(-240.57478,-164)"><g stroke="none" stroke-miterlimit="10"><path d="M247.56852,172.26991h11.56271v1.80354h-11.56271v-1.80354M248.43021,175.85695h10.62086v1.70335h-10.62086v-1.70335M248.97127,181.4279h8.1961v1.70335h-8.1961v-1.70335M246.58659,172.26991h2.04402v5.45071c0,0.82829 -0.02672,1.73675 -0.08016,2.72535c-0.05344,0.98861 -0.16432,1.99325 -0.33265,3.01392c-0.16566,1.02334 -0.40212,2.01863 -0.70939,2.98587c-0.30727,0.96991 -0.70806,1.84897 -1.20236,2.63718c-0.1336,-0.10688 -0.30727,-0.22711 -0.52102,-0.36071c-0.21375,-0.1336 -0.43819,-0.26051 -0.67332,-0.38075c-0.23246,-0.12024 -0.43552,-0.21375 -0.6092,-0.28055c0.48094,-0.74814 0.86169,-1.5604 1.14224,-2.43679c0.28055,-0.87372 0.4903,-1.77549 0.62924,-2.70531c0.14161,-0.92716 0.22979,-1.83561 0.26452,-2.72535c0.03206,-0.88708 0.04809,-1.71136 0.04809,-2.47286v-5.45071M250.41411,174.49428h1.90374v4.40866h2.92575v-4.40866h1.9839v6.05189h-6.81338v-6.05189M256.48603,181.4279h0.40079l0.36071,-0.08016l1.30256,0.58114c-0.38743,1.02869 -0.90444,1.93714 -1.55105,2.72535c-0.64928,0.78821 -1.39741,1.46955 -2.24441,2.04402c-0.84967,0.57446 -1.77148,1.06209 -2.76543,1.46287c-0.99662,0.40079 -2.04268,0.72142 -3.13816,0.96189c-0.09352,-0.25383 -0.24047,-0.55442 -0.44087,-0.90177c-0.20039,-0.34735 -0.39411,-0.6279 -0.58114,-0.84165c0.98861,-0.17368 1.93714,-0.42083 2.84559,-0.74146c0.90845,-0.32063 1.74342,-0.71474 2.50492,-1.18232c0.7615,-0.46758 1.4268,-1.01266 1.99592,-1.63521c0.56645,-0.61988 1.0033,-1.32393 1.31057,-2.11215v-0.28055M251.65655,182.46994c0.65462,1.2558 1.66327,2.29384 3.02594,3.11412c1.36268,0.82295 2.97919,1.39474 4.84953,1.71537c-0.14695,0.1336 -0.30326,0.30727 -0.46892,0.52102c-0.16833,0.21375 -0.32597,0.43018 -0.47293,0.64928c-0.14695,0.22177 -0.26719,0.42617 -0.36071,0.6132c-1.99058,-0.44087 -3.69125,-1.16629 -5.10202,-2.17628c-1.4081,-1.00731 -2.51294,-2.30586 -3.31451,-3.89565l1.84362,-0.54106M241.53667,172.26991l1.20236,-1.60315c0.38743,0.16031 0.79757,0.35002 1.23042,0.56912c0.43552,0.22177 0.84967,0.45289 1.24244,0.69336c0.39544,0.24047 0.7134,0.47427 0.95387,0.70138l-1.26248,1.76346c-0.22711,-0.22711 -0.5277,-0.47159 -0.90177,-0.73344c-0.37407,-0.25918 -0.77753,-0.51301 -1.21038,-0.7615c-0.43552,-0.24582 -0.85368,-0.45556 -1.25446,-0.62924M240.57478,177.58034l1.16228,-1.62319c0.41415,0.1336 0.84833,0.30994 1.30256,0.52904c0.45423,0.22177 0.88841,0.44888 1.30256,0.68134c0.41415,0.23513 0.74814,0.46625 1.00197,0.69336l-1.24244,1.80354c-0.24047,-0.22711 -0.55709,-0.46758 -0.94987,-0.72142c-0.39544,-0.25383 -0.82028,-0.50098 -1.2745,-0.74146c-0.45423,-0.24047 -0.88841,-0.44755 -1.30256,-0.62122M240.77517,187.72026c0.30727,-0.53438 0.63458,-1.15961 0.98193,-1.87568c0.34735,-0.7134 0.70138,-1.47089 1.06209,-2.27246c0.36071,-0.80157 0.6947,-1.59647 1.00197,-2.38468l1.76346,1.2224c-0.28055,0.72142 -0.57713,1.45887 -0.88975,2.21235c-0.31529,0.75615 -0.63592,1.50162 -0.96189,2.23639c-0.32865,0.73478 -0.65996,1.42947 -0.99395,2.08409l-1.96386,-1.2224M251.59643,170.78699l2.00394,-0.44087c0.21375,0.40079 0.41147,0.84165 0.59317,1.3226c0.17902,0.48094 0.30193,0.89509 0.36872,1.24244l-2.12417,0.50098c-0.05344,-0.34735 -0.16031,-0.77218 -0.32063,-1.2745c-0.16031,-0.49965 -0.33399,-0.94987 -0.52102,-1.35065zM276.6256,179.14341h2.12417c0,0 -0.00267,0.05344 -0.00802,0.16031c-0.00802,0.10688 -0.01202,0.22711 -0.01202,0.36071c0,0.1336 -0.00668,0.25383 -0.02004,0.36071c-0.09352,1.79018 -0.19371,3.24237 -0.30059,4.35656c-0.10688,1.11686 -0.23379,1.97588 -0.38075,2.57706c-0.14695,0.60118 -0.32731,1.02869 -0.54106,1.28252c-0.22711,0.26719 -0.47026,0.45423 -0.72943,0.5611c-0.26185,0.10688 -0.56645,0.18035 -0.9138,0.22043c-0.29391,0.04008 -0.67733,0.06012 -1.15026,0.06012c-0.4756,0 -0.97391,-0.00668 -1.49494,-0.02004c-0.02672,-0.29391 -0.09619,-0.6279 -0.20841,-1.00197c-0.11489,-0.37407 -0.2525,-0.68802 -0.41281,-0.94185c0.49431,0.04008 0.95521,0.06279 1.38272,0.06813c0.42751,0.00802 0.74146,0.01202 0.94185,0.01202c0.17368,0 0.31662,-0.01336 0.42884,-0.04008c0.11489,-0.02672 0.22578,-0.09352 0.33265,-0.20039c0.14695,-0.16031 0.28055,-0.50766 0.40079,-1.04205c0.12024,-0.53438 0.22444,-1.3226 0.31261,-2.36465c0.0855,-1.04205 0.16833,-2.39804 0.24849,-4.06799v-0.34067M266.72615,181.66837h1.9839v4.74933h-1.9839v-4.74933M271.73599,182.44991h1.96386v5.59098h-1.96386v-5.59098M261.89666,182.48998h1.96386v3.2063h8.69708v1.7835h-10.66094v-4.9898M274.38119,172.16971h2.00394c0,0 0,0.09352 0,0.28055c0,0.18703 -0.00668,0.34067 -0.02004,0.46091c-0.0668,1.00197 -0.13627,1.83694 -0.20841,2.50492c-0.07481,0.66798 -0.16165,1.19568 -0.26051,1.58311c-0.10153,0.38743 -0.23914,0.66798 -0.41281,0.84165c-0.16031,0.20039 -0.33666,0.34334 -0.52904,0.42884c-0.19505,0.08817 -0.41949,0.14562 -0.67332,0.17234c-0.21375,0.04008 -0.4903,0.06279 -0.82963,0.06813c-0.34201,0.00802 -0.70672,0.00534 -1.09415,-0.00802c-0.02672,-0.29391 -0.08684,-0.61855 -0.18035,-0.97391c-0.09352,-0.35269 -0.21375,-0.65595 -0.36071,-0.90979c0.30727,0.02672 0.58782,0.04676 0.84165,0.06012c0.25383,0.01336 0.44755,0.02004 0.58114,0.02004c0.12024,0 0.22711,-0.01336 0.32063,-0.04008c0.09352,-0.02672 0.17368,-0.08016 0.24047,-0.16031c0.1336,-0.14695 0.24715,-0.52102 0.34067,-1.1222c0.09352,-0.60118 0.17368,-1.58311 0.24047,-2.94579v-0.26051M268.48961,170.40625l2.56504,0.22043c-0.21375,0.49431 -0.45423,0.97124 -0.72142,1.43081c-0.26719,0.46224 -0.50766,0.86036 -0.72142,1.19435l-1.90374,-0.34067c0.14695,-0.37407 0.29792,-0.7949 0.45289,-1.26248c0.1523,-0.46758 0.26185,-0.88173 0.32865,-1.24244M266.28528,175.97719l1.06209,-1.36268c0.46758,0.16031 0.96857,0.35403 1.50295,0.58114c0.53438,0.22711 1.04605,0.46091 1.53502,0.70138c0.48629,0.24047 0.88975,0.46758 1.21038,0.68134l-1.1222,1.50295c-0.29391,-0.21375 -0.68134,-0.44755 -1.16228,-0.70138c-0.48094,-0.25383 -0.9846,-0.50499 -1.51097,-0.75348c-0.52904,-0.24582 -1.03403,-0.46224 -1.51498,-0.64928M275.00241,172.16971v1.92378h-9.53874v5.04992h11.80319v1.8837h-13.90732v-8.8574zM292.51681,170.46636h2.02398v14.08767h-2.02398v-14.08767M286.46492,178.58231l10.50063,-4.44874l0.80157,1.84362l-10.50063,4.50886l-0.80157,-1.90374M288.50894,172.39014h2.04402v13.10574c0,0.37407 0.0334,0.65729 0.1002,0.84967c0.0668,0.19505 0.20707,0.32597 0.42083,0.39277c0.21375,0.0668 0.5277,0.1002 0.94185,0.1002c0.12024,0 0.31662,0 0.58916,0c0.27521,0 0.58649,0 0.93383,0c0.34735,0 0.69871,0 1.05407,0c0.35269,0 0.67332,0 0.96189,0c0.2859,0 0.49564,0 0.62924,0c0.37407,0 0.65462,-0.07081 0.84165,-0.21242c0.18703,-0.13894 0.32731,-0.39544 0.42083,-0.76951c0.09352,-0.37407 0.16031,-0.91513 0.20039,-1.62319c0.24047,0.17368 0.54507,0.33399 0.9138,0.48094c0.36605,0.14695 0.69603,0.24715 0.98994,0.30059c-0.09352,0.94853 -0.24715,1.69266 -0.46091,2.23239c-0.21375,0.5424 -0.53438,0.92983 -0.96189,1.16228c-0.42751,0.23513 -1.02201,0.35269 -1.7835,0.35269c-0.1336,0 -0.35002,0 -0.64928,0c-0.30193,0 -0.6466,0 -1.03403,0c-0.38743,0 -0.77218,0 -1.15427,0c-0.37941,0 -0.71875,0 -1.018,0c-0.30193,0 -0.51301,0 -0.63324,0c-0.85501,0 -1.52967,-0.09352 -2.02398,-0.28055c-0.49431,-0.18703 -0.83765,-0.51835 -1.03002,-0.99395c-0.19505,-0.47293 -0.29257,-1.14358 -0.29257,-2.01195v-13.08571M296.56476,174.37404h-0.16031l0.40079,-0.30059l0.40079,-0.26051l1.48291,0.54106l-0.08016,0.36071c0,0.94853 -0.00267,1.81957 -0.00802,2.61313c-0.00802,0.79623 -0.01469,1.50162 -0.02004,2.11616c-0.00802,0.61454 -0.02138,1.12888 -0.04008,1.54303c-0.02138,0.41415 -0.04542,0.72142 -0.07214,0.92181c-0.04008,0.45423 -0.14695,0.80425 -0.32063,1.05006c-0.17368,0.24849 -0.42083,0.42617 -0.74146,0.53305c-0.28055,0.12024 -0.61187,0.18971 -0.99395,0.20841c-0.37941,0.02138 -0.72275,0.03206 -1.03002,0.03206c-0.02672,-0.26719 -0.08417,-0.57847 -0.17234,-0.93383c-0.0855,-0.35269 -0.18169,-0.6426 -0.28857,-0.86971c0.18703,0.01336 0.38743,0.02004 0.60118,0.02004c0.21375,0 0.36739,0 0.46091,0c0.1336,0 0.24047,-0.03073 0.32063,-0.09218c0.08016,-0.05878 0.1336,-0.18169 0.16031,-0.36872c0.02672,-0.10688 0.04676,-0.338 0.06012,-0.69336c0.01336,-0.35269 0.02405,-0.82295 0.03206,-1.41077c0.00534,-0.58782 0.00802,-1.29989 0.00802,-2.1362c0,-0.83364 0,-1.79152 0,-2.87364M280.7537,175.17562h6.55287v2.02398h-6.55287v-2.02398M283.15843,170.72688h2.02398v13.20594h-2.02398v-13.20594M280.51323,184.09313c0.54774,-0.20039 1.18499,-0.44487 1.91176,-0.73344c0.72943,-0.2859 1.49894,-0.59984 2.30853,-0.94185c0.80692,-0.33933 1.61784,-0.67599 2.43278,-1.00998l0.48094,1.90374c-1.06877,0.52102 -2.15356,1.03804 -3.25439,1.55105c-1.1035,0.51568 -2.10948,0.98059 -3.01793,1.39474zM301.2139,173.75282h17.79496v2.10413h-17.79496v-2.10413M307.72669,178.50215h7.77527v2.08409h-7.77527v-2.08409M314.94086,178.50215h2.24441c0,0 -0.00267,0.06012 -0.00802,0.18035c-0.00802,0.12024 -0.01202,0.25383 -0.01202,0.40079c0,0.14695 -0.01336,0.26719 -0.04008,0.36071c-0.12024,1.85698 -0.25383,3.36661 -0.40079,4.5289c-0.14695,1.16228 -0.31395,2.06405 -0.50098,2.70531c-0.18703,0.64126 -0.42083,1.10217 -0.70138,1.38272c-0.28055,0.30727 -0.58515,0.52102 -0.9138,0.64126c-0.32597,0.12024 -0.70939,0.20039 -1.15026,0.24047c-0.37407,0.04008 -0.87105,0.05611 -1.49093,0.04809c-0.62256,-0.00534 -1.26782,-0.02138 -1.9358,-0.04809c-0.01336,-0.32063 -0.09352,-0.68134 -0.24047,-1.08213c-0.14695,-0.40079 -0.32731,-0.74814 -0.54106,-1.04205c0.6947,0.0668 1.35867,0.10688 1.99191,0.12024c0.63592,0.01336 1.10083,0.02004 1.39474,0.02004c0.22711,0 0.41415,-0.01737 0.5611,-0.0521c0.14695,-0.03206 0.28723,-0.09485 0.42083,-0.18837c0.20039,-0.18703 0.38075,-0.57847 0.54106,-1.17431c0.16031,-0.59317 0.30727,-1.43749 0.44087,-2.53298c0.1336,-1.09549 0.24715,-2.48488 0.34067,-4.16819v-0.34067M306.42413,175.07542h2.40472c-0.05344,1.05541 -0.1336,2.11749 -0.24047,3.18626c-0.10688,1.06877 -0.28055,2.12417 -0.52102,3.16622c-0.24047,1.04205 -0.58782,2.03734 -1.04205,2.98587c-0.45423,0.94853 -1.05541,1.83293 -1.80354,2.65321c-0.74814,0.82295 -1.68331,1.54838 -2.80551,2.17628c-0.16031,-0.28055 -0.39143,-0.58782 -0.69336,-0.92181c-0.29925,-0.33399 -0.59584,-0.60786 -0.88975,-0.82161c1.04205,-0.54774 1.89973,-1.18232 2.57305,-1.90374c0.67599,-0.72142 1.21038,-1.50028 1.60315,-2.33659c0.39544,-0.83364 0.68668,-1.70869 0.87372,-2.62516c0.18703,-0.9138 0.31395,-1.84228 0.38075,-2.78547c0.0668,-0.94051 0.12024,-1.865 0.16031,-2.77345M308.5483,171.04751l2.10413,-0.80157c0.26719,0.45423 0.54106,0.95521 0.82161,1.50295c0.28055,0.54774 0.49431,1.01533 0.64126,1.40276l-2.20433,0.96189c-0.1336,-0.41415 -0.33399,-0.90845 -0.60118,-1.48291c-0.26719,-0.57446 -0.52102,-1.10217 -0.7615,-1.58311zM323.49767,181.20746v-1.66327l1.26248,-0.74146h13.02559v2.10413h-11.98354c-0.37407,0 -0.72543,0.00935 -1.05407,0.02806c-0.32597,0.02138 -0.59984,0.05477 -0.82161,0.1002c-0.2191,0.04809 -0.36205,0.10554 -0.42884,0.17234M330.01046,176.15754h2.18429v10.36035c0,0.5611 -0.0668,1.00464 -0.20039,1.33061c-0.1336,0.32865 -0.40079,0.5798 -0.80157,0.75348c-0.37407,0.18703 -0.83497,0.30326 -1.38272,0.34868c-0.54774,0.04809 -1.189,0.07214 -1.92378,0.07214c-0.02672,-0.21375 -0.08684,-0.45423 -0.18035,-0.72142c-0.09352,-0.26719 -0.19104,-0.53171 -0.29257,-0.79356c-0.09886,-0.25918 -0.20173,-0.48896 -0.30861,-0.68935c0.52102,0.01336 1.02201,0.02271 1.50295,0.02806c0.48094,0.00802 0.80825,0.00534 0.98193,-0.00802c0.16031,0 0.26986,-0.02672 0.32865,-0.08016c0.06145,-0.05344 0.09218,-0.14695 0.09218,-0.28055v-10.32027M324.90043,182.20943l2.16425,0.60118c-0.30727,0.70806 -0.67466,1.41211 -1.10217,2.11215c-0.42751,0.70271 -0.87906,1.36134 -1.35466,1.97588c-0.47293,0.61454 -0.95655,1.14892 -1.45085,1.60315c-0.1336,-0.12024 -0.31128,-0.2712 -0.53305,-0.45289c-0.2191,-0.17902 -0.4422,-0.35269 -0.66931,-0.52102c-0.22711,-0.16566 -0.42751,-0.30193 -0.60118,-0.4088c0.72142,-0.58782 1.40008,-1.3226 2.036,-2.20433c0.63324,-0.88173 1.1369,-1.7835 1.51097,-2.70531M333.41716,183.07113l1.82358,-0.86169c0.48094,0.49431 0.97792,1.03804 1.49093,1.6312c0.51568,0.59584 0.99662,1.18366 1.44283,1.76346c0.44888,0.58248 0.80692,1.10751 1.07411,1.57509l-1.96386,1.02201c-0.24047,-0.46758 -0.57179,-0.9993 -0.99395,-1.59513c-0.41949,-0.59317 -0.87906,-1.20103 -1.37871,-1.82358c-0.50232,-0.61988 -1.00063,-1.19034 -1.49494,-1.71136M321.57389,173.05144h17.13366v2.06405h-17.13366v-2.06405M323.49767,181.20746c-0.04008,-0.14695 -0.1042,-0.35403 -0.19238,-0.62122c-0.0855,-0.26719 -0.18169,-0.54507 -0.28857,-0.83364c-0.10688,-0.2859 -0.20707,-0.52904 -0.30059,-0.72943c0.26719,-0.08016 0.52503,-0.24715 0.77352,-0.50098c0.24582,-0.25383 0.52904,-0.5945 0.84967,-1.02201c0.17368,-0.20039 0.41682,-0.54106 0.72943,-1.02201c0.31529,-0.48094 0.66264,-1.05273 1.04205,-1.71537c0.38208,-0.65996 0.76684,-1.37069 1.15427,-2.13219c0.38743,-0.7615 0.74146,-1.53635 1.06209,-2.32457l2.34461,0.86169c-0.50766,1.09549 -1.06877,2.17093 -1.68331,3.22634c-0.61454,1.05541 -1.24511,2.05738 -1.89172,3.0059c-0.64928,0.94853 -1.28786,1.80354 -1.91576,2.56504v0.04008c0,0 -0.08684,0.04275 -0.26051,0.12825c-0.17368,0.08817 -0.36739,0.19505 -0.58114,0.32063c-0.21375,0.12825 -0.40747,0.25918 -0.58114,0.39277c-0.17368,0.1336 -0.26051,0.25383 -0.26051,0.36071zM352.45455,171.44829h5.23027v1.94382h-3.32653v15.71086h-1.90374v-17.65468M357.24396,171.44829h0.40079l0.32063,-0.08016l1.48291,0.92181c-0.33399,0.96189 -0.70806,1.97989 -1.1222,3.054c-0.41415,1.07678 -0.81493,2.05604 -1.20236,2.93777c0.82829,0.92181 1.36535,1.7795 1.61116,2.57305c0.24849,0.79623 0.37273,1.52834 0.37273,2.19631c0,0.68134 -0.07615,1.26248 -0.22845,1.74342c-0.15497,0.48094 -0.41281,0.84833 -0.77352,1.10217c-0.17368,0.12024 -0.37407,0.21643 -0.60118,0.28857c-0.22711,0.07481 -0.46758,0.13226 -0.72142,0.17234c-0.22711,0.02672 -0.48094,0.04275 -0.7615,0.04809c-0.28055,0.00802 -0.5611,0.00534 -0.84165,-0.00802c-0.01336,-0.28055 -0.06012,-0.61454 -0.14028,-1.00197c-0.08016,-0.38743 -0.20707,-0.72142 -0.38075,-1.00197c0.25383,0.02672 0.48495,0.04275 0.69336,0.04809c0.20574,0.00802 0.39544,0.00534 0.56912,-0.00802c0.1336,0 0.26719,-0.01737 0.40079,-0.0521c0.1336,-0.03206 0.24715,-0.08149 0.34067,-0.14829c0.17368,-0.10688 0.29658,-0.28456 0.36872,-0.53305c0.07481,-0.24582 0.11222,-0.5424 0.11222,-0.88975c0,-0.57446 -0.14028,-1.2224 -0.42083,-1.94382c-0.28055,-0.72142 -0.82161,-1.49627 -1.62319,-2.32457c0.20039,-0.50766 0.40346,-1.05273 0.6092,-1.63521c0.20841,-0.5798 0.4088,-1.16763 0.60118,-1.76346c0.19505,-0.59317 0.37273,-1.15026 0.53305,-1.67128c0.16031,-0.52102 0.29391,-0.96189 0.40079,-1.3226v-0.70138M341.57318,172.73081h9.63893v1.92378h-9.63893v-1.92378M341.05215,178.1214h10.60082v1.94382h-10.60082v-1.94382M342.6553,175.09546l1.84362,-0.46091c0.28055,0.48094 0.53171,1.01132 0.75348,1.59113c0.2191,0.58248 0.3754,1.08747 0.46892,1.51498l-1.92378,0.54106c-0.08016,-0.44087 -0.22711,-0.95922 -0.44087,-1.55505c-0.21375,-0.59317 -0.44755,-1.1369 -0.70138,-1.6312M348.32644,174.57443l2.12417,0.46091c-0.18703,0.45423 -0.38075,0.91513 -0.58114,1.38272c-0.20039,0.46758 -0.39411,0.91513 -0.58114,1.34264c-0.18703,0.42751 -0.37407,0.80825 -0.5611,1.14224l-1.80354,-0.44087c0.17368,-0.36071 0.35136,-0.76817 0.53305,-1.2224c0.17902,-0.45423 0.34601,-0.91513 0.50098,-1.38272c0.1523,-0.46758 0.27521,-0.89509 0.36872,-1.28252M343.15629,186.3175h6.57291v1.8837h-6.57291v-1.8837M342.03408,181.62829h8.79728v7.37449h-2.12417v-5.45071h-4.64913v5.57094h-2.02398v-7.49472M344.77948,170.86715l1.94382,-0.54106c0.21375,0.42751 0.42483,0.89509 0.63324,1.40276c0.20574,0.50766 0.35536,0.94185 0.44888,1.30256l-2.06405,0.64126c-0.08016,-0.36071 -0.20975,-0.80558 -0.38876,-1.33462c-0.18169,-0.52637 -0.37273,-1.01666 -0.57313,-1.47089z" fill="#ffffff" stroke-width="1"/><path d="M242.2,196v-32h208v32z" fill="none" stroke-width="0"/><path d="" fill="#ffffff" stroke-width="1"/><path d="" fill="#ffffff" stroke-width="1"/></g></g></svg>