<svg version="1.1" xmlns="http://www.w3.org/2000/svg" xmlns:xlink="http://www.w3.org/1999/xlink" width="208" height="48" viewBox="0,0,208,48"><g transform="translate(-136,-156)"><g stroke-miterlimit="10"><path d="M136,204v-48h208v48z" fill="none" fill-rule="nonzero" stroke="none" stroke-width="1" stroke-linecap="butt"/><path d="M159.09429,186.05718l0.02772,0.40714l-0.99797,0.12635v1.53029h-0.92867v-1.40394c-2.61506,0.30887 -4.16746,0.50542 -4.65721,0.58965l-0.09703,-0.89852l0.72076,-0.08424l0.47127,-0.05616v-4.91378h-1.19202v-0.8564h12.11429v0.8564h-6.43139v4.35221l0.94253,-0.12635zM164.59701,187.0259l-0.40196,0.95468c-1.12734,-0.4399 -2.06063,-0.95468 -2.79987,-1.54433c-0.6838,0.58965 -1.52468,1.11847 -2.52266,1.58645l-0.4574,-0.89852c0.91481,-0.35566 1.68639,-0.79089 2.31474,-1.30566c-0.3419,-0.36502 -0.64915,-0.76983 -0.92174,-1.21441c-0.27259,-0.44458 -0.53364,-0.95234 -0.78313,-1.52327v-0.87044h4.71265v0.94064c-0.3881,0.99212 -0.93329,1.86724 -1.63557,2.62536c0.62835,0.46798 1.46,0.88448 2.49493,1.2495zM154.11828,179.66926v-3.97314h8.75999v3.97314zM161.89416,178.05473h-6.79177v0.80024h6.79177zM155.1024,177.31065h6.79177v-0.78621h-6.79177zM162.68423,183.08083h-2.6474c0.36038,0.84236 0.81778,1.54433 1.37221,2.10591c0.56367,-0.61773 0.98873,-1.3197 1.27519,-2.10591zM154.57569,184.94807v1.20739l2.61968,-0.32291v-0.88448zM157.19537,184.20398v-1.05295h-2.61968v1.05295zM154.57569,182.40694h2.61968v-1.05295h-2.61968z" fill="#ffffff" fill-rule="evenodd" stroke="#ffffff" stroke-width="0.45" stroke-linecap="round"/><path d="M178.49934,186.96974l-0.66532,1.05295c-2.75367,-1.62857 -4.56019,-3.62684 -5.41955,-5.99481c-0.42506,1.19803 -1.10655,2.2931 -2.04446,3.28521c-0.93791,0.99212 -2.0768,1.90936 -3.41667,2.75172l-0.67918,-1.06699c1.58937,-0.89852 2.87148,-1.94913 3.84636,-3.15184c0.97487,-1.20271 1.52237,-2.55283 1.6425,-4.05036h-5.26708v-1.08103h5.28094v-3.45369h1.10886v3.45369h5.32253v1.08103h-5.33639c-0.00924,0.0468 -0.01386,0.117 -0.01386,0.21059c0.30494,1.50689 0.90788,2.81723 1.80883,3.93103c0.90095,1.11379 2.17845,2.12463 3.8325,3.03251z" fill="#ffffff" fill-rule="evenodd" stroke="#ffffff" stroke-width="0.45" stroke-linecap="round"/><path d="M192.15217,181.74709h-5.29481c0.35114,0.81428 0.75541,1.50923 1.21282,2.08485c0.4574,0.57561 1.02107,1.08571 1.69101,1.53029c0.66994,0.44458 1.50389,0.85874 2.50186,1.24248l-0.54057,1.02487c-1.57088,-0.64581 -2.81604,-1.41798 -3.73547,-2.3165c-0.91943,-0.89852 -1.68408,-2.08719 -2.29395,-3.566h-2.30088v4.80147l3.17411,-1.40394l0.05544,1.06699l-4.24139,1.90936l-0.52671,-1.05295c0.18481,-0.10296 0.31418,-0.20123 0.3881,-0.29483c0.07392,-0.0936 0.11089,-0.20591 0.11089,-0.33695v-4.68915h-2.14842v-1.09507h2.14842v-5.37708h1.03956v5.37708h8.75999zM190.4473,175.59784l0.49899,1.05295c-0.84089,0.57093 -1.81807,1.13251 -2.93155,1.68473c-1.11348,0.55222 -2.22927,1.03891 -3.34737,1.4601l-0.3881,-1.03891c1.03494,-0.37438 2.10221,-0.84236 3.20183,-1.40394c1.09962,-0.56158 2.08835,-1.14655 2.9662,-1.75492z" fill="#ffffff" fill-rule="evenodd" stroke="#ffffff" stroke-width="0.45" stroke-linecap="round"/><path d="M195.22926,180.65202v-4.75935h10.11834v10.23471c0,0.4867 -0.05313,0.85406 -0.1594,1.10209c-0.10627,0.24803 -0.29108,0.42118 -0.55443,0.51946c-0.26335,0.09828 -0.64915,0.14741 -1.15737,0.14741h-1.4831l-0.18019,-1.02487h1.4138c0.32342,0 0.55905,-0.0234 0.7069,-0.0702c0.14785,-0.0468 0.24718,-0.13337 0.29801,-0.25973c0.05082,-0.12635 0.07623,-0.32525 0.07623,-0.59667v-9.08348h-8.03923v4.18373c0,1.29162 -0.03696,2.31416 -0.11089,3.0676c-0.07392,0.75345 -0.21022,1.425 -0.40889,2.01465c-0.19867,0.58965 -0.5013,1.24482 -0.90788,1.96551l-0.98411,-0.56158c0.40658,-0.67389 0.70459,-1.28694 0.89402,-1.83916c0.18943,-0.55222 0.31649,-1.19335 0.38117,-1.92339c0.06468,-0.73005 0.09703,-1.76896 0.09703,-3.11674zM203.7259,181.49438h-6.95809v-0.88448h2.98006v-1.29162h-2.52266v-0.87044h2.52266v-1.22143h0.97025v1.22143h2.53652v0.87044h-2.53652v1.29162h3.00778zM197.68261,186.25373v-3.55196h5.10075v3.55196zM198.62514,183.62837v1.69876h3.22955v-1.69876z" fill="#ffffff" fill-rule="evenodd" stroke="#ffffff" stroke-width="0.45" stroke-linecap="round"/><path d="M215.07785,180.77837v-4.70319h4.31069v10.08027c0,0.42118 -0.05082,0.74409 -0.15247,0.96872c-0.10165,0.22463 -0.26797,0.38608 -0.49899,0.48436c-0.23101,0.09828 -0.55905,0.14741 -0.98411,0.14741h-1.05342l-0.20791,-0.9968h1.05342c0.36962,0 0.6168,-0.05616 0.74155,-0.16847c0.12475,-0.11232 0.18712,-0.33695 0.18712,-0.67389v-2.20418h-2.55038c-0.06468,0.95468 -0.20791,1.74088 -0.42968,2.35862c-0.22177,0.61773 -0.60525,1.31502 -1.15044,2.09187l-0.91481,-0.63177c0.51747,-0.68325 0.8894,-1.2846 1.11579,-1.80406c0.22639,-0.51946 0.37193,-1.12315 0.43661,-1.81108c0.06468,-0.68793 0.09703,-1.73386 0.09703,-3.1378zM213.37298,177.67567v5.99481h1.05342v0.89852h-6.58385v-0.89852h1.1643v-5.99481h-0.90095v-0.89852h0.90095v-1.43202h0.92867v1.43202h2.5088v-1.43202h0.92867v1.43202h0.92867v0.89852zM215.9788,182.71581h2.49493v-2.35862h-2.48107v0.91256zM215.99266,179.40251h2.48107v-2.27438h-2.48107zM208.43855,187.99461l-0.69304,-0.75813c0.37886,-0.29951 0.7762,-0.67623 1.19202,-1.13017c0.41582,-0.45394 0.76696,-0.88682 1.05342,-1.29864l0.76234,0.61773c-0.30494,0.41182 -0.67225,0.85874 -1.10193,1.34076c-0.42968,0.48202 -0.83395,0.8915 -1.21282,1.22845zM209.93551,179.12173h2.5088v-1.44606h-2.5088zM212.44431,183.67048v-1.3899h-2.5088v1.3899zM212.44431,181.39611v-1.36182h-2.5088v1.36182zM211.57108,185.46752l0.65146,-0.67389l1.62171,1.57241l-0.65146,0.70197l-0.55443,-0.56158c-0.48051,-0.4867 -0.83627,-0.833 -1.06728,-1.03891z" fill="#ffffff" fill-rule="evenodd" stroke="#ffffff" stroke-width="0.45" stroke-linecap="round"/><path d="M232.88891,184.11974l0.98411,0.22463c0,0.28079 -0.01848,0.73005 -0.05544,1.34778l-0.01386,0.4633c-0.02772,0.38374 -0.10165,0.68091 -0.22177,0.8915c-0.12013,0.21059 -0.31418,0.36034 -0.58215,0.44926c-0.26797,0.08892 -0.64683,0.13337 -1.13658,0.13337h-3.52063c-0.46203,0 -0.82471,-0.04914 -1.08807,-0.14741c-0.26335,-0.09828 -0.45509,-0.27143 -0.57522,-0.51946c-0.12013,-0.24803 -0.18019,-0.60603 -0.18019,-1.07401v-4.82955l-1.1643,0.40714l-0.26335,-0.9968l1.42766,-0.49138v-3.46773h0.98411v3.13078l1.71873,-0.60369v-3.76255h0.97025v3.43965l2.95234,-1.02487l-0.15247,5.01206c-0.02772,0.38374 -0.08316,0.67389 -0.16633,0.87044c-0.08316,0.19655 -0.22639,0.33695 -0.42968,0.42118c-0.20329,0.08424 -0.49899,0.12635 -0.88709,0.12635h-0.74848l-0.19405,-1.03891h0.49899c0.26797,0 0.46664,-0.02106 0.59601,-0.06318c0.12937,-0.04212 0.21946,-0.11933 0.27028,-0.23165c0.05082,-0.11232 0.08085,-0.29015 0.09009,-0.5335l0.12475,-3.14482l-1.95437,0.67389v5.55959h-0.97025v-5.22265l-1.71873,0.60369v4.74531c0,0.33695 0.0231,0.58497 0.0693,0.74409c0.0462,0.15911 0.14092,0.27143 0.28415,0.33695c0.14323,0.06552 0.36731,0.09828 0.67225,0.09828h2.9662c0.3881,0 0.67225,-0.0234 0.85244,-0.0702c0.18019,-0.0468 0.30725,-0.14039 0.38117,-0.28079c0.07392,-0.14039 0.12013,-0.36502 0.13861,-0.67389zM224.26752,179.95005v4.85762l1.59399,-0.51946l0.08316,0.51946l0.05544,0.44926l-4.11664,1.36182l-0.26335,-0.94064l1.66329,-0.54754v-5.18053h-1.45538v-1.02487h1.45538v-3.36945h0.98411v3.36945h1.17816v1.02487z" fill="#ffffff" fill-rule="evenodd" stroke="#ffffff" stroke-width="0.45" stroke-linecap="round"/><path d="M241.02517,184.80767h-1.13658v2.16206l2.12069,-0.5335l0.02772,0.80024l-3.27114,0.89852l-0.30494,-0.74409c0.20329,-0.08424 0.33266,-0.15443 0.3881,-0.21059c0.05544,-0.05616 0.08316,-0.13103 0.08316,-0.22463v-2.14802h-1.28905c-0.07392,0.63645 -0.21715,1.21441 -0.42968,1.73386c-0.21253,0.51946 -0.51285,1.04125 -0.90095,1.56539l-0.87323,-0.61773c0.50823,-0.66453 0.85475,-1.30098 1.03956,-1.90936c0.18481,-0.60837 0.27721,-1.41798 0.27721,-2.42881v-2.02167h10.46486v0.70197h-9.49461v1.54433c0,0.31823 -0.00462,0.55222 -0.01386,0.70197h9.78569v0.73005h-5.40569c0.51747,0.55222 1.10424,0.98744 1.76031,1.30566c1.18278,-0.54286 2.00981,-0.94532 2.48107,-1.20739l0.41582,0.73005c-0.3419,0.16847 -0.96563,0.45862 -1.8712,0.87044c0.8224,0.23399 1.82038,0.40714 2.99392,0.51946l-0.40196,0.87044c-1.09962,-0.14039 -2.03753,-0.33695 -2.81373,-0.58965c-0.7762,-0.25271 -1.45307,-0.57795 -2.0306,-0.97574c-0.57753,-0.39778 -1.11117,-0.90554 -1.60092,-1.52327zM241.21922,180.69414v-2.62536h-4.10278v1.81108h-0.98411v-2.51305h5.08689v-0.75813h-4.60177v-0.78621h10.24309v0.78621h-4.67107v0.75813h5.14234v2.51305h-0.97025v-1.81108h-4.17208v2.62536zM238.30846,182.61753h8.27487v0.68793h-8.27487zM237.89264,179.34636v-0.63177h2.60582v0.63177zM242.96567,179.34636v-0.63177h2.59196v0.63177zM240.49846,179.87985v0.61773h-2.60582v-0.61773zM242.97953,180.49759v-0.61773h2.59196v0.61773z" fill="#ffffff" fill-rule="evenodd" stroke="#ffffff" stroke-width="0.45" stroke-linecap="round"/><path d="M257.86597,177.95646h3.24341c-0.02772,0.98276 -0.06699,2.28374 -0.11782,3.90295c-0.05082,1.61921 -0.09934,2.96231 -0.14554,4.0293c-0.01848,0.4399 -0.09009,0.78387 -0.21484,1.03189c-0.12475,0.24803 -0.32111,0.42352 -0.58908,0.52648c-0.26797,0.10296 -0.63759,0.15443 -1.10886,0.15443h-1.45538l-0.20791,-1.03891h1.24747c0.36038,0 0.63066,-0.03276 0.81085,-0.09828c0.18019,-0.06552 0.30956,-0.18017 0.3881,-0.34396c0.07854,-0.16379 0.12706,-0.41416 0.14554,-0.75111c0.02772,-0.38374 0.06699,-1.32906 0.11782,-2.83595c0.05082,-1.50689 0.09009,-2.68152 0.11782,-3.52388h-2.2593c-0.06468,1.8064 -0.15709,3.18928 -0.27721,4.14864c-0.12013,0.95936 -0.33959,1.81342 -0.65839,2.56219c-0.3188,0.74877 -0.81547,1.55837 -1.49003,2.42881l-0.92867,-0.64581c0.65608,-0.79556 1.13889,-1.52795 1.44845,-2.19716c0.30956,-0.66921 0.52902,-1.46478 0.65839,-2.38669c0.12937,-0.92192 0.21715,-2.22524 0.26335,-3.90997h-1.51082v-1.05295h1.52468l0.05544,-2.72364h0.98411c0,0.63645 -0.01386,1.54433 -0.04158,2.72364zM255.34332,186.15545l-0.91481,0.47734l-0.23563,-0.65985l-4.39386,0.49138l-0.16633,-0.89852c0.37886,-0.65517 0.74386,-1.40862 1.095,-2.26034c0.35114,-0.85172 0.63297,-1.65665 0.84551,-2.41477h-2.10683v-0.9968h5.83537v0.9968h-2.67512c-0.19405,0.67389 -0.46896,1.46945 -0.82471,2.38669c-0.35576,0.91724 -0.65839,1.61453 -0.90788,2.09187l2.95234,-0.30887c-0.36038,-1.00148 -0.69766,-1.86724 -1.01183,-2.59728l0.91481,-0.35098c0.36038,0.86108 0.89171,2.20886 1.59399,4.04334zM250.04851,177.3668v-1.03891h4.82354v1.03891z" fill="#ffffff" fill-rule="evenodd" stroke="#ffffff" stroke-width="0.45" stroke-linecap="round"/><path d="M263.8954,175.99095h3.95031v1.06699l-1.095,3.20098c0.40658,0.57093 0.70228,1.09975 0.88709,1.58645c0.18481,0.4867 0.27721,0.96872 0.27721,1.44606c0,0.68325 -0.16171,1.18867 -0.48513,1.51625c-0.32342,0.32759 -0.80392,0.49138 -1.44152,0.49138h-0.7069l-0.22177,-1.05295h0.67918c0.47127,0 0.79006,-0.0936 0.95639,-0.28079c0.16633,-0.18719 0.24949,-0.49606 0.24949,-0.9266c0,-0.3931 -0.09009,-0.7979 -0.27028,-1.21441c-0.18019,-0.4165 -0.48282,-0.8915 -0.90788,-1.425l1.095,-3.41157h-1.99595v11.04899h-0.97025zM268.0259,181.25571l-0.51285,-0.94064c0.84089,-0.72069 1.53392,-1.46945 2.07911,-2.2463c0.54519,-0.77685 1.01183,-1.68473 1.39994,-2.72364h0.94253c0.40658,1.11379 0.91712,2.06613 1.53161,2.85701c0.61449,0.79089 1.33756,1.47179 2.16921,2.04273l-0.48513,0.95468c-0.85013,-0.58029 -1.5755,-1.24248 -2.17614,-1.98657c-0.60063,-0.74409 -1.09962,-1.62155 -1.49696,-2.63238c-0.37886,0.9266 -0.83164,1.74556 -1.35835,2.45689c-0.52671,0.71133 -1.22437,1.45074 -2.09297,2.21822zM268.31697,188.2052l-0.87323,-0.73005c0.50823,-0.56158 0.89402,-1.06699 1.15737,-1.51625c0.26335,-0.44926 0.45047,-0.94298 0.56136,-1.48115c0.11089,-0.53818 0.16633,-1.21909 0.16633,-2.04273v-1.8532h0.99797v1.81108c0,0.94532 -0.06006,1.7245 -0.18019,2.33756c-0.12013,0.61305 -0.3188,1.17697 -0.59601,1.69174c-0.27721,0.51478 -0.68842,1.10911 -1.23361,1.783zM272.58608,188.00865v-7.41279h0.99797v7.41279z" fill="#ffffff" fill-rule="evenodd" stroke="#ffffff" stroke-width="0.45" stroke-linecap="round"/><path d="M289.41303,186.9557l-0.52671,1.05295c-1.15506,-0.81428 -2.09297,-1.62857 -2.81373,-2.44285c-0.81316,0.90788 -1.86658,1.76896 -3.16025,2.58325l-0.63759,-0.89852c1.29367,-0.77685 2.34709,-1.59581 3.16025,-2.45689c-0.76696,-1.01084 -1.36297,-2.19014 -1.78804,-3.53792c-0.12937,1.33842 -0.37886,2.51071 -0.74848,3.51686c-0.36962,1.00616 -0.94253,2.05677 -1.71873,3.15184l-0.92867,-0.61773c0.31418,-0.4399 0.57291,-0.833 0.7762,-1.17931l-3.86715,0.67389l-0.12475,-1.03891l4.21367,-0.75813l0.04158,0.65985c0.48051,-0.89852 0.82702,-1.81576 1.03956,-2.75172c0.21253,-0.93596 0.35114,-2.08251 0.41582,-3.43965c0.01848,-0.4399 0.04158,-1.24015 0.0693,-2.40073h-1.05342v-1.01084h6.2512v1.01084l-1.06728,2.56921h1.81576v0.98276c-0.52671,1.66601 -1.20126,3.05122 -2.02367,4.15566c0.70228,0.76749 1.59399,1.49285 2.67512,2.1761zM279.48874,180.25892l-2.17614,0.26675l-0.19405,-1.02487c0.73,-0.91724 1.56626,-2.37733 2.5088,-4.38029l0.85937,0.40714c-0.85013,1.76896 -1.56626,3.07462 -2.14842,3.91699l1.73259,-0.15443c0.25873,-0.4399 0.55443,-0.98744 0.88709,-1.64261l0.84551,0.57561c-0.40658,0.76749 -0.88709,1.58645 -1.44152,2.45689c-0.55443,0.87044 -1.09038,1.63325 -1.60785,2.28842l2.43949,-0.37906l0.02772,0.98276l-3.68696,0.58965l-0.19405,-1.01084c0.7762,-0.8798 1.49234,-1.84384 2.14842,-2.89211zM287.80518,180.62394h-1.8712v-0.87044l1.095,-2.68152h-3.14639c0,0.26207 -0.01848,0.80492 -0.05544,1.62857c0.24025,1.11379 0.54519,2.10357 0.91481,2.96933c0.36962,0.86576 0.81778,1.64495 1.34449,2.33756c0.71152,-0.93596 1.28443,-2.06379 1.71873,-3.38349z" fill="#ffffff" fill-rule="evenodd" stroke="#ffffff" stroke-width="0.45" stroke-linecap="round"/></g></g></svg>