<svg version="1.1" xmlns="http://www.w3.org/2000/svg" xmlns:xlink="http://www.w3.org/1999/xlink" width="208.15193" height="24.12865" viewBox="0,0,208.15193,24.12865"><g transform="translate(-240,-180)"><g stroke="none" stroke-miterlimit="10"><path d="M249.9061,180h188.33972c5.48798,0 9.9061,2.62441 9.9061,5.88432v12.36001c0,3.25991 -4.41812,5.88432 -9.9061,5.88432h-188.33972c-5.48798,0 -9.9061,-2.62441 -9.9061,-5.88432v-12.36001c0,-3.25991 4.41812,-5.88432 9.9061,-5.88432z" fill-opacity="0.7" fill="#000000" fill-rule="evenodd" stroke-width="0"/><path d="M247.37351,192.51197h8.07427v1.0105h-8.07427v-1.0105M249.10302,190.627h4.5764v0.96192h-4.5764v-0.96192M252.40657,194.11516l0.88419,-0.45667c0.29149,0.25263 0.57845,0.52598 0.86087,0.82006c0.28113,0.29538 0.53829,0.5901 0.77148,0.88419c0.23319,0.29538 0.42428,0.56614 0.57327,0.81229l-0.94249,0.56355c-0.12955,-0.24615 -0.31092,-0.52339 -0.54412,-0.83171c-0.23319,-0.30703 -0.48906,-0.61796 -0.76759,-0.93277c-0.27853,-0.31351 -0.55707,-0.59982 -0.8356,-0.85893M251.36693,187.64408l0.9522,0.43723c-0.55707,0.77083 -1.24498,1.46717 -2.06375,2.08901c-0.82006,0.62185 -1.71591,1.14977 -2.68754,1.58376c-0.04534,-0.09069 -0.11206,-0.19432 -0.20016,-0.31092c-0.0868,-0.11659 -0.17878,-0.23189 -0.27594,-0.3459c-0.09717,-0.11271 -0.18461,-0.20145 -0.26234,-0.26622c0.62185,-0.24615 1.22102,-0.53634 1.79753,-0.87058c0.57651,-0.33295 1.09924,-0.69893 1.56822,-1.09795c0.47027,-0.39772 0.86087,-0.80386 1.17179,-1.21843M251.58069,188.09103c0.21376,0.22671 0.47934,0.46638 0.79674,0.71901c0.3174,0.25263 0.67172,0.49878 1.06297,0.73844c0.39254,0.23967 0.80451,0.46315 1.23591,0.67042c0.43011,0.20728 0.86217,0.38218 1.29616,0.52468c-0.07773,0.06477 -0.16323,0.15222 -0.25651,0.26234c-0.09458,0.11012 -0.18396,0.22154 -0.26817,0.33424c-0.08421,0.114 -0.15546,0.21959 -0.21376,0.31675c-0.42105,-0.1749 -0.84208,-0.38088 -1.26313,-0.61796c-0.42105,-0.23578 -0.8246,-0.49165 -1.21066,-0.76759c-0.38477,-0.27465 -0.7378,-0.55318 -1.05908,-0.8356c-0.31999,-0.28113 -0.5901,-0.54477 -0.81034,-0.79091l0.68986,-0.55383M248.05366,196.56368c-0.01944,-0.07773 -0.04858,-0.18137 -0.08745,-0.31092c-0.03886,-0.12955 -0.08097,-0.26428 -0.12631,-0.4042c-0.04534,-0.13862 -0.09069,-0.25328 -0.13603,-0.34396c0.12307,-0.02591 0.24291,-0.08097 0.3595,-0.16518c0.11659,-0.08421 0.25263,-0.19432 0.40809,-0.33036c0.07773,-0.06477 0.19303,-0.17166 0.3459,-0.32064c0.15157,-0.14898 0.31999,-0.32712 0.50525,-0.5344c0.18396,-0.20728 0.37117,-0.4327 0.5616,-0.67625c0.19173,-0.24226 0.37181,-0.4897 0.54023,-0.74233l0.97163,0.66071c-0.36922,0.47934 -0.78055,0.94702 -1.23397,1.40304c-0.45343,0.45732 -0.9101,0.85763 -1.37,1.20094v0.02915c0,0 -0.03692,0.01749 -0.11076,0.05247c-0.07514,0.03627 -0.16129,0.08162 -0.25846,0.13603c-0.09717,0.05571 -0.18266,0.114 -0.25651,0.1749c-0.07514,0.06218 -0.11271,0.11919 -0.11271,0.17101M248.05366,196.56368l-0.01944,-0.82589l0.68986,-0.37894l5.57718,-0.34978c0.01944,0.14898 0.04858,0.31416 0.08745,0.49554c0.03886,0.18137 0.07449,0.32712 0.10688,0.43723c-0.88742,0.06477 -1.65307,0.12307 -2.29694,0.1749c-0.64516,0.05182 -1.19123,0.09522 -1.63817,0.1302c-0.44695,0.03627 -0.81617,0.06736 -1.10767,0.09328c-0.29149,0.02591 -0.52468,0.04988 -0.69958,0.0719c-0.1749,0.02331 -0.31416,0.04599 -0.41781,0.06801c-0.10364,0.02331 -0.19756,0.05118 -0.28177,0.08356zM256.78865,189.06266h8.62811v1.00078h-8.62811v-1.00078M259.9173,192.20105h5.10108v0.96192h-5.10108v-0.96192M259.53837,195.53375h5.84923v0.97163h-5.84923v-0.97163M261.95774,190.51041h1.04936v5.54803h-1.04936v-5.54803M259.88815,187.67323l1.08823,0.25263c-0.23319,0.77083 -0.52987,1.53 -0.89002,2.27751c-0.35886,0.7488 -0.79091,1.44708 -1.29616,2.09484c-0.50525,0.64776 -1.09795,1.20806 -1.77809,1.68092c-0.03239,-0.09717 -0.07967,-0.20728 -0.14186,-0.33036c-0.06089,-0.12307 -0.12372,-0.24485 -0.18849,-0.36533c-0.06477,-0.11919 -0.12307,-0.22089 -0.1749,-0.30509c0.44047,-0.28501 0.83884,-0.63026 1.19511,-1.03576c0.35626,-0.4042 0.67561,-0.84273 0.95803,-1.31559c0.28113,-0.47286 0.52403,-0.96062 0.72873,-1.46328c0.2034,-0.50137 0.36987,-0.99819 0.49942,-1.49049M257.9546,191.72495h1.04936v4.9942h-1.04936zM266.34952,189.45132h2.96349v0.97163h-2.96349v-0.97163M267.5252,187.67323h0.9522v9.06535h-0.9522v-9.06535M267.50577,190.1509l0.57327,0.21376c-0.0583,0.3757 -0.13409,0.76759 -0.22736,1.17568c-0.09458,0.40809 -0.20016,0.80775 -0.31675,1.19899c-0.11659,0.39254 -0.2442,0.75722 -0.38283,1.09406c-0.13992,0.33684 -0.2876,0.62509 -0.44306,0.86476c-0.03239,-0.10364 -0.07579,-0.21895 -0.1302,-0.3459c-0.05571,-0.12567 -0.114,-0.25198 -0.1749,-0.37894c-0.06218,-0.12567 -0.12243,-0.23384 -0.18073,-0.32453c0.1425,-0.2008 0.27853,-0.43918 0.40809,-0.71512c0.12955,-0.27465 0.25133,-0.56938 0.36533,-0.88419c0.11271,-0.31351 0.21311,-0.63415 0.30121,-0.96192c0.0868,-0.32647 0.15611,-0.63868 0.20793,-0.93666M268.43854,190.71445c0.05182,0.06477 0.1315,0.17619 0.23902,0.33424c0.10623,0.15935 0.22283,0.33295 0.34978,0.52079c0.12567,0.18785 0.24032,0.3608 0.34396,0.51885c0.10364,0.15935 0.1749,0.27465 0.21376,0.3459l-0.60241,0.70929c-0.05182,-0.12955 -0.12113,-0.28825 -0.20793,-0.4761c-0.0881,-0.18785 -0.18202,-0.38218 -0.28177,-0.58298c-0.10105,-0.2008 -0.19821,-0.39059 -0.29149,-0.56938c-0.09458,-0.17749 -0.17425,-0.32129 -0.23902,-0.4314l0.4761,-0.36922M272.39309,187.97444c0.16194,0.22671 0.36145,0.45991 0.59852,0.69958c0.23578,0.23967 0.4897,0.47415 0.76176,0.70347c0.27205,0.2306 0.55383,0.44306 0.84532,0.63739c0.29149,0.19432 0.57327,0.36274 0.84532,0.50525c-0.0583,0.08421 -0.11983,0.1859 -0.18461,0.30509c-0.06477,0.12048 -0.12437,0.24226 -0.17878,0.36533c-0.05571,0.12307 -0.09976,0.23319 -0.13214,0.33036c-0.39513,-0.25263 -0.79803,-0.54735 -1.20871,-0.88419c-0.41197,-0.33684 -0.80062,-0.6931 -1.16596,-1.0688c-0.36663,-0.3757 -0.67949,-0.73521 -0.9386,-1.07851l0.75787,-0.51496M271.90727,187.57607l0.90362,0.34008c-0.25911,0.48582 -0.57003,0.95997 -0.93277,1.42247c-0.36274,0.4638 -0.74945,0.89326 -1.16013,1.28839c-0.41197,0.39513 -0.82848,0.73844 -1.24952,1.02994c-0.03886,-0.07125 -0.09393,-0.16064 -0.16518,-0.26817c-0.07125,-0.10623 -0.14574,-0.21441 -0.22347,-0.32453c-0.07773,-0.11012 -0.14574,-0.19756 -0.20404,-0.26234c0.39513,-0.24615 0.78249,-0.53764 1.16207,-0.87447c0.37829,-0.33684 0.72937,-0.70606 1.05325,-1.10767c0.32388,-0.40161 0.59593,-0.81617 0.81617,-1.24369M270.47896,190.65615h3.41044v0.88419h-3.41044v-0.88419M269.77939,192.51197l0.80646,-0.21376c0.08421,0.24615 0.16518,0.50848 0.24291,0.78703c0.07773,0.27853 0.14898,0.55059 0.21376,0.81617c0.06477,0.26558 0.11012,0.50202 0.13603,0.70929l-0.84532,0.23319c-0.02591,-0.21376 -0.06801,-0.45343 -0.12631,-0.71901c-0.0583,-0.26558 -0.12437,-0.54088 -0.19821,-0.82589c-0.07514,-0.28501 -0.15157,-0.54735 -0.2293,-0.78703M271.63521,192.23019l0.80646,-0.11659c0.06477,0.24615 0.12502,0.50654 0.18073,0.7812c0.05441,0.27594 0.10428,0.54477 0.14963,0.80646c0.04534,0.26299 0.07449,0.49813 0.08745,0.70541l-0.84532,0.13603c-0.01296,-0.20728 -0.03886,-0.44566 -0.07773,-0.71512c-0.03886,-0.26817 -0.08421,-0.54153 -0.13603,-0.82006c-0.05182,-0.27853 -0.10688,-0.53764 -0.16518,-0.77731M274.006,192.1136l0.91333,0.20404c-0.15546,0.38865 -0.32388,0.79479 -0.50525,1.21843c-0.18137,0.42493 -0.36598,0.83171 -0.55383,1.22037c-0.18785,0.38865 -0.36598,0.72873 -0.5344,1.02022l-0.74816,-0.21376c0.12955,-0.22671 0.26105,-0.48258 0.39448,-0.76759c0.13214,-0.28501 0.26299,-0.58493 0.39254,-0.89974c0.12955,-0.31351 0.24939,-0.6225 0.3595,-0.92694c0.11012,-0.30444 0.20404,-0.58945 0.28177,-0.85504M269.30329,195.41715h5.78122v0.91333h-5.78122zM280.3702,195.10623l0.63156,-0.37894c0.15546,0.15546 0.31416,0.32388 0.4761,0.50525c0.16194,0.18137 0.31416,0.3608 0.45667,0.53829c0.1425,0.17878 0.25587,0.33619 0.34008,0.47221l-0.66071,0.43723c-0.08421,-0.1425 -0.19432,-0.30638 -0.33036,-0.49165c-0.13603,-0.18396 -0.28501,-0.37181 -0.44695,-0.56355c-0.16194,-0.19044 -0.3174,-0.36339 -0.46638,-0.51885M278.65041,188.20764h3.41044v6.25732h-0.81617v-5.50917h-1.80724v5.54803h-0.78703v-6.29618M283.94581,187.81898h0.82589v7.84109c0,0.24615 -0.02915,0.43723 -0.08745,0.57327c-0.0583,0.13603 -0.1587,0.23967 -0.30121,0.31092c-0.1425,0.07125 -0.33165,0.11789 -0.56743,0.13992c-0.23708,0.02331 -0.53051,0.03174 -0.8803,0.02526c-0.01944,-0.11012 -0.05506,-0.24939 -0.10688,-0.41781c-0.05182,-0.16842 -0.10688,-0.31416 -0.16518,-0.43723c0.23967,0.00648 0.46185,0.00972 0.66654,0.00972c0.2034,0 0.34396,0 0.42169,0c0.12955,0 0.19432,-0.06477 0.19432,-0.19432v-7.8508M282.61467,188.56714h0.79674v5.93668h-0.79674v-5.93668M279.93296,189.53877h0.76759v3.65335c0,0.32388 -0.02591,0.651 -0.07773,0.98135c-0.05182,0.33036 -0.14704,0.65423 -0.28566,0.97163c-0.13992,0.3174 -0.34396,0.61213 -0.61213,0.88419c-0.26946,0.27205 -0.6212,0.51172 -1.0552,0.71901c-0.02591,-0.0583 -0.06672,-0.12955 -0.12243,-0.21376c-0.05441,-0.08421 -0.11206,-0.16712 -0.17295,-0.24874c-0.06218,-0.08032 -0.11595,-0.13992 -0.16129,-0.17878c0.38865,-0.18137 0.69828,-0.38412 0.92888,-0.60824c0.2293,-0.22283 0.40096,-0.46056 0.51496,-0.71318c0.11271,-0.25263 0.1872,-0.51496 0.22347,-0.78703c0.03498,-0.27205 0.05247,-0.54412 0.05247,-0.81617v-3.64363M276.35735,188.51856l0.61213,-0.75787c0.16842,0.08421 0.35432,0.18461 0.55772,0.30121c0.20469,0.11659 0.4029,0.23319 0.59464,0.34978c0.19044,0.11659 0.34396,0.22347 0.46056,0.32064l-0.64128,0.84532c-0.11012,-0.10364 -0.25587,-0.21895 -0.43723,-0.3459c-0.18137,-0.12567 -0.37376,-0.25004 -0.57715,-0.37311c-0.20469,-0.12307 -0.39448,-0.23643 -0.56938,-0.34008M275.9687,191.12253l0.58298,-0.74816c0.1749,0.08421 0.36469,0.18137 0.56938,0.29149c0.2034,0.11012 0.39902,0.22024 0.58687,0.33036c0.18785,0.11012 0.34655,0.21052 0.4761,0.30121l-0.62185,0.8356c-0.11012,-0.09717 -0.25911,-0.20599 -0.44695,-0.32647c-0.18785,-0.11919 -0.38218,-0.23902 -0.58298,-0.3595c-0.2008,-0.11919 -0.38865,-0.22736 -0.56355,-0.32453M276.14359,196.0973c0.12307,-0.25263 0.25911,-0.55059 0.40809,-0.8939c0.14898,-0.34331 0.29797,-0.708 0.44695,-1.09406c0.14898,-0.38477 0.28825,-0.76176 0.41781,-1.13098l0.8356,0.5344c-0.11012,0.34331 -0.22995,0.69634 -0.3595,1.05908c-0.12955,0.36274 -0.26363,0.71901 -0.40226,1.0688c-0.13992,0.34978 -0.27465,0.68014 -0.4042,0.99107zM286.23887,192.72573h4.61526v0.90362h-4.61526v-0.90362M288.05583,191.80268h0.99107v3.88654h-0.99107v-3.88654M285.90852,195.37829c0.42105,-0.0583 0.90881,-0.13279 1.46328,-0.22347c0.55318,-0.09069 1.13746,-0.18979 1.75283,-0.29732c0.61537,-0.10623 1.2275,-0.21117 1.83639,-0.31481l0.0583,0.8939c-0.57651,0.11012 -1.15624,0.22024 -1.73922,0.33036c-0.58298,0.11012 -1.14135,0.21506 -1.6751,0.31481c-0.53505,0.10105 -1.02281,0.19044 -1.46328,0.26817l-0.23319,-0.97163M286.00567,188.26593h5.0525v0.90362h-5.0525v-0.90362M288.90115,189.69423l0.73844,-0.44695c0.18137,0.21376 0.36274,0.44695 0.54412,0.69958c0.18137,0.25263 0.34978,0.50007 0.50525,0.74233c0.15546,0.24356 0.27529,0.4625 0.3595,0.65683l-0.79674,0.51496c-0.07773,-0.19432 -0.19109,-0.41781 -0.34008,-0.67042c-0.14898,-0.25263 -0.31222,-0.51043 -0.4897,-0.77342c-0.17878,-0.2617 -0.35238,-0.50266 -0.52079,-0.72289M291.48569,188.55742h0.96192v5.89782h-0.96192v-5.89782M293.36094,187.79955h1.02022v7.57875c0,0.27853 -0.03368,0.49554 -0.10105,0.651c-0.06866,0.15546 -0.19044,0.27529 -0.36533,0.3595c-0.1749,0.07773 -0.39837,0.12955 -0.67042,0.15546c-0.27205,0.02591 -0.59593,0.03886 -0.97163,0.03886c-0.01944,-0.1425 -0.06477,-0.31092 -0.13603,-0.50525c-0.07125,-0.19432 -0.14574,-0.36274 -0.22347,-0.50525c0.26558,0.00648 0.51496,0.01101 0.74816,0.01361c0.23319,0.00389 0.39189,0.00583 0.4761,0.00583c0.09069,0 0.15092,-0.0162 0.18073,-0.04858c0.0285,-0.03239 0.04275,-0.09069 0.04275,-0.1749v-7.56903M286.53036,191.74438c-0.01944,-0.07125 -0.04858,-0.16388 -0.08745,-0.27789c-0.03886,-0.11271 -0.07967,-0.2306 -0.12243,-0.35367c-0.04146,-0.12307 -0.08162,-0.22995 -0.12048,-0.32064c0.07125,-0.01944 0.14574,-0.06672 0.22347,-0.14186c0.07773,-0.07384 0.15546,-0.16583 0.23319,-0.27594c0.05182,-0.07773 0.13409,-0.21052 0.2468,-0.39837c0.114,-0.18785 0.23254,-0.41003 0.35562,-0.66654c0.12307,-0.25522 0.22995,-0.51885 0.32064,-0.79091l1.0105,0.37894c-0.12955,0.27205 -0.27659,0.54865 -0.44112,0.82977c-0.16583,0.28242 -0.33813,0.55124 -0.51691,0.80646c-0.17749,0.25651 -0.35367,0.48517 -0.52857,0.68597v0.01944c0,0 -0.02915,0.0162 -0.08745,0.04858c-0.0583,0.03239 -0.12437,0.07449 -0.19821,0.12631c-0.07514,0.05182 -0.14186,0.10688 -0.20016,0.16518c-0.0583,0.0583 -0.08745,0.11336 -0.08745,0.16518M286.53036,191.74438l-0.01944,-0.72873l0.48582,-0.31092l3.04122,-0.20404c0.0583,0.12955 0.12955,0.27011 0.21376,0.42169c0.08421,0.15287 0.15546,0.28113 0.21376,0.38477c-0.64128,0.0583 -1.18216,0.10688 -1.62263,0.14574c-0.44047,0.03886 -0.79803,0.07125 -1.07268,0.09717c-0.27594,0.02591 -0.49489,0.04858 -0.65683,0.06801c-0.16194,0.01944 -0.28501,0.03886 -0.36922,0.0583c-0.08421,0.01944 -0.15546,0.0421 -0.21376,0.06801zM296.36329,187.96473h7.17066v0.75787h-7.17066v-0.75787M296.79082,191.88041h7.21924v0.71901h-7.21924v-0.71901M297.675,192.91034h5.80066v0.63156h-5.80066v-0.63156M296.77138,193.87226h7.6079v0.69958h-7.6079v-0.69958M297.01429,190.0926h2.05014v0.54412h-2.05014v-0.54412M296.80053,190.98651h2.27363v0.5344h-2.27363v-0.5344M300.80366,190.98651h2.30277v0.5344h-2.30277v-0.5344M300.80366,190.0926h2.06958v0.54412h-2.06958v-0.54412M299.41423,188.28537h1.02994v3.40072h-1.02994v-3.40072M295.74145,189.11125h8.43378v1.70036h-1.0105v-1.07851h-6.46136v1.07851h-0.96192v-1.70036M296.32443,191.88041h0.97163v1.34086c0,0.27205 -0.0162,0.56484 -0.04858,0.87835c-0.03239,0.31481 -0.09263,0.63415 -0.18073,0.95803c-0.0868,0.32388 -0.20923,0.63609 -0.36728,0.93666c-0.15935,0.30186 -0.36533,0.57586 -0.61796,0.82201c-0.05182,-0.06477 -0.12307,-0.14121 -0.21376,-0.2293c-0.09069,-0.0868 -0.1859,-0.17101 -0.28566,-0.25263c-0.10105,-0.08032 -0.19044,-0.13992 -0.26817,-0.17878c0.30444,-0.29149 0.52792,-0.60889 0.67042,-0.9522c0.1425,-0.34331 0.23513,-0.68857 0.27789,-1.03576c0.04146,-0.3459 0.06218,-0.66783 0.06218,-0.9658v-1.32142M300.79395,194.24147c0.19432,0.3174 0.46962,0.58104 0.82589,0.79091c0.35626,0.21117 0.78185,0.37635 1.27672,0.49554c0.49618,0.12048 1.04872,0.20016 1.65761,0.23902c-0.09069,0.09069 -0.18461,0.21376 -0.28177,0.36922c-0.09717,0.15546 -0.1749,0.29797 -0.23319,0.42751c-0.66719,-0.07125 -1.26118,-0.19432 -1.78198,-0.36922c-0.52209,-0.1749 -0.97099,-0.41003 -1.34669,-0.70541c-0.3757,-0.29408 -0.68662,-0.65488 -0.93277,-1.0824l0.81617,-0.16518M303.05786,194.4941l0.76759,0.38865c-0.23319,0.15546 -0.47934,0.29927 -0.73844,0.4314c-0.25911,0.13344 -0.49554,0.24874 -0.70929,0.3459l-0.63156,-0.34978c0.1425,-0.07773 0.29344,-0.16388 0.45278,-0.25846c0.15805,-0.09328 0.31286,-0.19044 0.46444,-0.29149c0.15287,-0.09976 0.28437,-0.18849 0.39448,-0.26622M297.75273,196.74829l-0.04858,-0.68014l0.40809,-0.28177l2.68171,-0.37894c-0.02591,0.11659 -0.04858,0.25068 -0.06801,0.40226c-0.01944,0.15287 -0.02915,0.27789 -0.02915,0.37505c-0.59593,0.09717 -1.07721,0.17619 -1.44385,0.23708c-0.36533,0.06218 -0.6484,0.11271 -0.84921,0.15157c-0.2008,0.03886 -0.34655,0.07125 -0.43723,0.09717c-0.09069,0.02591 -0.16194,0.05182 -0.21376,0.07773M297.75273,196.74829c-0.02591,-0.07773 -0.06477,-0.16712 -0.11659,-0.26817c-0.05182,-0.09976 -0.10882,-0.20016 -0.17101,-0.30121c-0.06089,-0.09976 -0.11724,-0.18202 -0.16907,-0.2468c0.11012,-0.0583 0.22801,-0.1574 0.35367,-0.29732c0.12696,-0.13862 0.19044,-0.31805 0.19044,-0.53829v-0.93277l1.0105,0.01944v1.58376c0,0 -0.03692,0.02267 -0.11076,0.06801c-0.07514,0.04534 -0.16583,0.10688 -0.27205,0.18461c-0.10752,0.07773 -0.21635,0.1587 -0.32647,0.24291c-0.11012,0.08421 -0.2021,0.16971 -0.27594,0.25651c-0.07514,0.0881 -0.11271,0.16453 -0.11271,0.2293zM309.72326,189.82055h3.83795v1.00078h-3.83795v-1.00078M313.02682,189.82055h1.02022c0,0 0,0.03044 0,0.09134c0,0.06218 -0.0013,0.13214 -0.00389,0.20987c-0.00389,0.07773 -0.00583,0.13927 -0.00583,0.18461c-0.02591,0.99107 -0.05377,1.83121 -0.08356,2.52042c-0.0285,0.69051 -0.06218,1.25924 -0.10105,1.70619c-0.03886,0.44695 -0.08745,0.79674 -0.14574,1.04936c-0.0583,0.25263 -0.12955,0.43399 -0.21376,0.54412c-0.11012,0.15546 -0.22541,0.26363 -0.3459,0.32453c-0.11919,0.06218 -0.26299,0.10947 -0.4314,0.14186c-0.15546,0.01944 -0.34978,0.03044 -0.58298,0.03303c-0.23319,0.00389 -0.4761,-0.00065 -0.72873,-0.01361c-0.01296,-0.14898 -0.04729,-0.32064 -0.10299,-0.51496c-0.05441,-0.19432 -0.12696,-0.36274 -0.21765,-0.50525c0.24615,0.01944 0.47156,0.03044 0.67625,0.03303c0.2034,0.00389 0.35691,0.00583 0.46056,0.00583c0.08421,0.00648 0.15352,-0.00194 0.20793,-0.02526c0.05571,-0.02202 0.10947,-0.06542 0.16129,-0.1302c0.0583,-0.07125 0.11012,-0.22024 0.15546,-0.44695c0.04534,-0.22671 0.08421,-0.55059 0.11659,-0.97163c0.03239,-0.42105 0.06153,-0.96062 0.08745,-1.61874c0.02591,-0.65683 0.05182,-1.45486 0.07773,-2.39411v-0.22347M310.90866,187.84812h1.02994c0,0.73196 -0.00842,1.44773 -0.02526,2.14731c-0.01555,0.69958 -0.05571,1.3713 -0.12048,2.01517c-0.06477,0.64516 -0.16842,1.256 -0.31092,1.8325c-0.1425,0.57651 -0.33684,1.10767 -0.58298,1.59348c-0.24615,0.48582 -0.56355,0.91981 -0.9522,1.30199c-0.0583,-0.09069 -0.13279,-0.18655 -0.22347,-0.2876c-0.09069,-0.09976 -0.18461,-0.19497 -0.28177,-0.28566c-0.09717,-0.09069 -0.19109,-0.16194 -0.28177,-0.21376c0.35626,-0.33684 0.64581,-0.72419 0.86864,-1.16207c0.22412,-0.43659 0.39642,-0.91592 0.51691,-1.43801c0.11919,-0.52079 0.20469,-1.07786 0.25651,-1.67121c0.05182,-0.59205 0.08227,-1.21066 0.09134,-1.85582c0.01037,-0.64387 0.01555,-1.30264 0.01555,-1.9763M305.62296,188.44083h3.80881v0.92305h-3.80881v-0.92305M305.29261,190.71445h4.30434v0.94249h-4.30434v-0.94249M308.11035,192.57027l0.84532,-0.23319c0.11659,0.27853 0.23643,0.5778 0.3595,0.89779c0.12307,0.32129 0.23643,0.63221 0.34008,0.93277c0.10364,0.30186 0.18137,0.5629 0.23319,0.78314l-0.90362,0.29149c-0.04534,-0.22671 -0.1153,-0.49424 -0.20987,-0.80257c-0.09328,-0.30703 -0.19821,-0.62444 -0.31481,-0.9522c-0.11659,-0.32647 -0.23319,-0.63221 -0.34978,-0.91722M305.70069,195.65035l-0.09717,-0.87447l0.45667,-0.34008l3.14809,-0.71901c0.01296,0.12955 0.03368,0.28177 0.06218,0.45667c0.02979,0.1749 0.06089,0.3174 0.09328,0.42751c-0.59593,0.1425 -1.09471,0.26558 -1.49632,0.36922c-0.40161,0.10364 -0.73196,0.19109 -0.99107,0.26234c-0.25911,0.07125 -0.46509,0.13279 -0.61796,0.18461c-0.15157,0.05182 -0.26946,0.09393 -0.35367,0.12631c-0.08421,0.03239 -0.15222,0.06801 -0.20404,0.10688M305.69098,195.65035c-0.01296,-0.07125 -0.03886,-0.16518 -0.07773,-0.28177c-0.03886,-0.11659 -0.08097,-0.23513 -0.12631,-0.35562c-0.04534,-0.11919 -0.08745,-0.22089 -0.12631,-0.30509c0.09069,-0.02591 0.17166,-0.09587 0.24291,-0.20987c0.07125,-0.11271 0.14898,-0.25975 0.23319,-0.44112c0.03886,-0.09069 0.09198,-0.23643 0.15935,-0.43723c0.06866,-0.2008 0.1438,-0.43594 0.22541,-0.70541c0.08032,-0.26817 0.15935,-0.55966 0.23708,-0.87447c0.07773,-0.31351 0.1425,-0.6225 0.19432,-0.92694l1.02994,0.29149c-0.09717,0.42751 -0.217,0.86152 -0.3595,1.30199c-0.1425,0.44047 -0.29473,0.86476 -0.45667,1.27284c-0.16194,0.40809 -0.32388,0.77407 -0.48582,1.09795v0.02915c0,0 -0.03563,0.01749 -0.10688,0.05247c-0.07125,0.03627 -0.15222,0.08356 -0.24291,0.14186c-0.09069,0.0583 -0.17036,0.11789 -0.23902,0.17878c-0.06736,0.06218 -0.10105,0.11919 -0.10105,0.17101zM315.89313,189.24728h2.9732v6.49052h-2.9732v-0.92305h2.021v-4.65413h-2.021v-0.91333M315.281,189.24728h0.9522v7.22895h-0.9522v-7.22895M315.84455,191.87069h2.54568v0.90362h-2.54568v-0.90362M316.68988,187.66352l1.13681,0.1749c-0.10364,0.3174 -0.21376,0.63609 -0.33036,0.95608c-0.11659,0.32129 -0.22347,0.59529 -0.32064,0.82201l-0.8356,-0.19432c0.04534,-0.16194 0.09198,-0.34655 0.13992,-0.55383c0.04923,-0.20728 0.09328,-0.41651 0.13214,-0.62767c0.03886,-0.20987 0.06477,-0.40226 0.07773,-0.57715M320.17804,189.18898h2.88576v0.9522h-2.88576v-0.9522M322.69457,189.18898h0.97163c0,0 0,0.03044 0,0.09134c0,0.06218 0,0.1302 0,0.20404c0,0.07514 -0.00324,0.13538 -0.00972,0.18073c-0.03239,1.10119 -0.06672,2.03396 -0.10299,2.79831c-0.03498,0.76435 -0.07708,1.39268 -0.12631,1.88497c-0.04794,0.4923 -0.10428,0.87576 -0.16907,1.15042c-0.06477,0.27594 -0.14898,0.47869 -0.25263,0.60824c-0.12955,0.1749 -0.26234,0.29473 -0.39837,0.3595c-0.13603,0.06477 -0.30121,0.11336 -0.49554,0.14574c-0.1749,0.01944 -0.39837,0.02915 -0.67042,0.02915c-0.27205,0 -0.55059,-0.00648 -0.8356,-0.01944c-0.00648,-0.1425 -0.04016,-0.31092 -0.10105,-0.50525c-0.06218,-0.19432 -0.14509,-0.36274 -0.24874,-0.50525c0.3174,0.02591 0.60889,0.0421 0.87447,0.04858c0.26558,0.00648 0.45991,0.00972 0.58298,0.00972c0.09717,0 0.17619,-0.01166 0.23708,-0.03498c0.06218,-0.02202 0.12567,-0.06542 0.19044,-0.1302c0.07773,-0.09069 0.14574,-0.26752 0.20404,-0.53051c0.0583,-0.2617 0.10688,-0.63221 0.14574,-1.11155c0.03886,-0.47934 0.07579,-1.08823 0.11076,-1.82667c0.03627,-0.73844 0.06736,-1.61939 0.09328,-2.64285v-0.20404M320.25577,187.66352l1.00078,0.23319c-0.12307,0.47934 -0.27076,0.95349 -0.44306,1.42247c-0.17101,0.47027 -0.36015,0.91268 -0.56743,1.32725c-0.20728,0.41457 -0.42105,0.77731 -0.64128,1.08823c-0.06477,-0.0583 -0.14898,-0.12631 -0.25263,-0.20404c-0.10364,-0.07773 -0.21052,-0.15416 -0.32064,-0.2293c-0.11012,-0.07384 -0.20404,-0.1302 -0.28177,-0.16907c0.21376,-0.27853 0.41586,-0.60436 0.6063,-0.97747c0.19173,-0.37181 0.36404,-0.77148 0.51691,-1.19899c0.15157,-0.42751 0.27918,-0.85828 0.38283,-1.29227M319.78939,191.90956l0.81617,-0.45667c0.16194,0.22024 0.33684,0.46444 0.52468,0.73261c0.18785,0.26946 0.36404,0.52857 0.52857,0.77731c0.16583,0.25004 0.29732,0.47221 0.39448,0.66654l-0.88419,0.54412c-0.09069,-0.2008 -0.21376,-0.43075 -0.36922,-0.68986c-0.15546,-0.25911 -0.32258,-0.52663 -0.50137,-0.80257c-0.17749,-0.27465 -0.34719,-0.53181 -0.50913,-0.77148zM330.30247,187.67323h0.98135v6.83059h-0.98135v-6.83059M327.36813,191.60835l5.09136,-2.15703l0.38865,0.8939l-5.09136,2.18618l-0.38865,-0.92305M328.3592,188.606h0.99107v6.35449c0,0.18137 0.0162,0.31869 0.04858,0.41197c0.03239,0.09458 0.1004,0.15805 0.20404,0.19044c0.10364,0.03239 0.25587,0.04858 0.45667,0.04858c0.0583,0 0.15352,0 0.28566,0c0.13344,0 0.28437,0 0.45278,0c0.16842,0 0.33813,0 0.50913,0c0.17231,0 0.32841,0 0.46832,0c0.13862,0 0.24032,0 0.30509,0c0.18137,0 0.3174,-0.03433 0.40809,-0.10299c0.09069,-0.06736 0.1587,-0.19173 0.20404,-0.37311c0.04534,-0.18137 0.07773,-0.44371 0.09717,-0.78703c0.11659,0.08421 0.26428,0.16194 0.44306,0.23319c0.17749,0.07125 0.33748,0.11983 0.47999,0.14574c-0.04534,0.45991 -0.11983,0.82071 -0.22347,1.0824c-0.10364,0.26299 -0.25911,0.45084 -0.46638,0.56355c-0.20728,0.114 -0.49554,0.17101 -0.86476,0.17101c-0.06477,0 -0.17036,0 -0.31675,0c-0.14509,0 -0.31157,0 -0.49942,0c-0.18785,0 -0.37441,0 -0.55966,0c-0.18396,0 -0.34914,0 -0.49554,0c-0.14509,0 -0.2468,0 -0.30509,0c-0.41457,0 -0.74168,-0.04534 -0.98135,-0.13603c-0.23967,-0.09069 -0.40679,-0.25133 -0.50137,-0.48193c-0.09328,-0.2293 -0.13992,-0.55448 -0.13992,-0.97552v-6.34477M332.26517,189.56792h-0.07773l0.19432,-0.14574l0.19432,-0.12631l0.71901,0.26234l-0.03886,0.1749c0,0.45991 -0.00194,0.88224 -0.00583,1.26701c-0.00259,0.38606 -0.00583,0.72808 -0.00972,1.02605c-0.00259,0.29797 -0.00907,0.54735 -0.01944,0.74816c-0.00907,0.2008 -0.02008,0.34978 -0.03303,0.44695c-0.01944,0.22024 -0.07125,0.38995 -0.15546,0.50913c-0.08421,0.12048 -0.20404,0.20664 -0.3595,0.25846c-0.13603,0.0583 -0.29668,0.09198 -0.48193,0.10105c-0.18396,0.01037 -0.35043,0.01555 -0.49942,0.01555c-0.01296,-0.12955 -0.04081,-0.28048 -0.08356,-0.45278c-0.04146,-0.17101 -0.0881,-0.31157 -0.13992,-0.42169c0.09069,0.00648 0.18785,0.00972 0.29149,0.00972c0.10364,0 0.17814,0 0.22347,0c0.06477,0 0.11659,-0.0149 0.15546,-0.0447c0.03886,-0.0285 0.06477,-0.0881 0.07773,-0.17878c0.01296,-0.05182 0.02267,-0.16388 0.02915,-0.33619c0.00648,-0.17101 0.01166,-0.39902 0.01555,-0.68403c0.00259,-0.28501 0.00389,-0.63026 0.00389,-1.03576c0,-0.4042 0,-0.86864 0,-1.39333M324.59898,189.95657h3.17724v0.98135h-3.17724v-0.98135M325.76494,187.79955h0.98135v6.40307h-0.98135v-6.40307M324.48238,194.28034c0.26558,-0.09717 0.57521,-0.21571 0.92888,-0.35562c0.35238,-0.13862 0.72484,-0.29084 1.11738,-0.45667c0.39124,-0.16453 0.78444,-0.32777 1.17957,-0.4897l0.23319,0.92305c-0.5182,0.25263 -1.04483,0.50331 -1.57988,0.75204c-0.53375,0.25004 -1.02087,0.47545 -1.46134,0.67625zM340.98073,189.48047l0.98135,0.39837c-0.41457,0.68662 -0.8939,1.3441 -1.43801,1.97241c-0.54412,0.62832 -1.12256,1.20612 -1.73534,1.73339c-0.61148,0.52857 -1.22815,0.99042 -1.84999,1.38555c-0.0583,-0.07125 -0.13603,-0.1587 -0.23319,-0.26234c-0.09717,-0.10364 -0.19756,-0.20404 -0.30121,-0.30121c-0.10364,-0.09717 -0.19756,-0.1749 -0.28177,-0.23319c0.64128,-0.35626 1.26313,-0.77731 1.86554,-1.26313c0.60241,-0.48582 1.15948,-1.02022 1.67121,-1.60319c0.51172,-0.58298 0.9522,-1.19187 1.32142,-1.82667M336.51121,190.42296l0.72873,-0.62185c0.41457,0.32388 0.85633,0.67496 1.32531,1.05325c0.47027,0.37959 0.93666,0.76694 1.39915,1.16207c0.4638,0.39513 0.8965,0.7786 1.2981,1.15042c0.40161,0.37311 0.73844,0.71188 1.0105,1.01633l-0.81617,0.77731c-0.25263,-0.31092 -0.57327,-0.65618 -0.96192,-1.03576c-0.38865,-0.37829 -0.80969,-0.77342 -1.26313,-1.1854c-0.45343,-0.41068 -0.91333,-0.81358 -1.37972,-1.20871c-0.46638,-0.39513 -0.91333,-0.76435 -1.34086,-1.10767M343.00173,188.1299v1.00078h-7.17066v6.33505h7.433v1.00078h-8.45322v-8.33662zM347.12145,189.35416c0.26558,1.09471 0.64257,2.06958 1.13098,2.92462c0.4897,0.85504 1.13293,1.57081 1.92966,2.14731c0.79674,0.57651 1.78133,0.99754 2.95377,1.26313c-0.07773,0.07125 -0.16194,0.16518 -0.25263,0.28177c-0.09069,0.11659 -0.1749,0.23643 -0.25263,0.3595c-0.07773,0.12307 -0.14574,0.23643 -0.20404,0.34008c-0.91333,-0.23967 -1.71008,-0.57197 -2.39022,-0.99689c-0.68014,-0.42364 -1.26118,-0.93342 -1.74311,-1.52935c-0.48323,-0.59593 -0.89326,-1.27802 -1.23009,-2.04626c-0.33684,-0.76694 -0.61861,-1.61356 -0.84532,-2.53985l0.90362,-0.20404M344.51747,188.16877h5.27598v1.05908h-5.27598v-1.05908M351.46466,190.50069h0.19432l0.19432,-0.04858l0.71901,0.28177c-0.19432,0.84856 -0.46315,1.59801 -0.80646,2.24836c-0.34331,0.65164 -0.75463,1.21843 -1.23397,1.70036c-0.47934,0.48323 -1.01374,0.89326 -1.60319,1.23009c-0.58945,0.33684 -1.2275,0.61537 -1.91412,0.8356c-0.03886,-0.09717 -0.09198,-0.20275 -0.15935,-0.31675c-0.06866,-0.11271 -0.14186,-0.22412 -0.21959,-0.33424c-0.07773,-0.11012 -0.15222,-0.2008 -0.22347,-0.27205c0.61537,-0.16842 1.1964,-0.39837 1.74311,-0.68986c0.548,-0.29149 1.04029,-0.651 1.47688,-1.07851c0.43788,-0.42751 0.81358,-0.92176 1.12709,-1.48271c0.31481,-0.55966 0.54994,-1.18928 0.70541,-1.88885v-0.18461M349.63799,190.50069h2.05986v0.98135h-2.26391l0.20404,-0.98135M346.11095,188.46025h1.09795v1.44773c0,0.38218 -0.0149,0.79479 -0.0447,1.23786c-0.0285,0.44436 -0.08939,0.90427 -0.18266,1.37972c-0.09458,0.47675 -0.23254,0.95479 -0.41392,1.43414c-0.18137,0.47934 -0.42105,0.94702 -0.71901,1.40304c-0.29797,0.45732 -0.67366,0.89002 -1.12709,1.2981c-0.05182,-0.09717 -0.12307,-0.20275 -0.21376,-0.31675c-0.09069,-0.11271 -0.18655,-0.22412 -0.2876,-0.33424c-0.09976,-0.11012 -0.18849,-0.19756 -0.26622,-0.26234c0.4923,-0.43399 0.88224,-0.90362 1.16985,-1.40887c0.2889,-0.50525 0.5046,-1.02216 0.64711,-1.55073c0.1425,-0.52727 0.23449,-1.039 0.27594,-1.53518c0.04275,-0.49489 0.06412,-0.94638 0.06412,-1.35446v-1.43801M349.5894,188.16877h1.0688c-0.06477,0.36922 -0.13927,0.75593 -0.22347,1.16013c-0.08421,0.4055 -0.16647,0.79414 -0.2468,1.16596c-0.08162,0.37311 -0.16129,0.70217 -0.23902,0.98718h-1.14653c0.09069,-0.29797 0.18461,-0.63674 0.28177,-1.01633c0.09717,-0.37829 0.18979,-0.76694 0.27789,-1.16596c0.0868,-0.39772 0.16259,-0.77472 0.22736,-1.13098zM357.80943,188.12019h4.55696v5.17881h-1.02022v-4.26548h-2.5554v4.26548h-0.98135v-5.17881M359.97617,193.26013h0.9522v2.21532c0,0.12955 0.02137,0.2183 0.06412,0.26622c0.04146,0.04923 0.11076,0.07384 0.20793,0.07384h0.49554c0.08421,0 0.14898,-0.04081 0.19432,-0.12243c0.04534,-0.08032 0.07773,-0.23578 0.09717,-0.46638c0.01944,-0.2293 0.03239,-0.55772 0.03886,-0.98524c0.12307,0.09069 0.2604,0.16842 0.41197,0.23319c0.15287,0.06477 0.29084,0.11336 0.41392,0.14574c-0.03239,0.49878 -0.07967,0.89196 -0.14186,1.17957c-0.06089,0.2889 -0.16907,0.4897 -0.32453,0.60241c-0.15546,0.114 -0.38865,0.17101 -0.69958,0.17101h-0.68014c-0.36274,0 -0.62509,-0.06801 -0.78703,-0.20404c-0.16194,-0.13603 -0.24291,-0.39837 -0.24291,-0.78703v-2.32221M359.54865,189.69423h0.98135v1.64206c0,0.42105 -0.04016,0.87576 -0.12048,1.36417c-0.08162,0.4897 -0.2293,0.97876 -0.44306,1.46717c-0.21376,0.4897 -0.52339,0.95479 -0.92888,1.39527c-0.4042,0.44047 -0.93018,0.83236 -1.57793,1.17568c-0.03886,-0.07125 -0.09846,-0.15546 -0.17878,-0.25263c-0.08162,-0.09717 -0.16453,-0.19303 -0.24874,-0.2876c-0.08421,-0.09328 -0.16194,-0.16259 -0.23319,-0.20793c0.61537,-0.3174 1.10637,-0.67042 1.473,-1.05908c0.36533,-0.38865 0.64063,-0.78897 0.82589,-1.20094c0.18396,-0.41068 0.30509,-0.8233 0.36339,-1.23786c0.0583,-0.41457 0.08745,-0.80646 0.08745,-1.17568v-1.62263M353.86459,188.40196h2.93433v0.99107h-2.93433v-0.99107M356.44914,188.40196h0.16518l0.18461,-0.03886l0.67042,0.20404c-0.12955,1.1854 -0.33165,2.27168 -0.6063,3.25886c-0.27594,0.98848 -0.61991,1.86619 -1.03187,2.63313c-0.41068,0.76824 -0.89455,1.41794 -1.45162,1.9491c-0.0583,-0.08421 -0.1315,-0.17684 -0.21959,-0.27789c-0.0868,-0.09976 -0.17749,-0.19497 -0.27205,-0.28566c-0.09328,-0.09069 -0.18525,-0.16842 -0.27594,-0.23319c0.36922,-0.32388 0.70929,-0.73067 1.02022,-1.22037c0.31092,-0.48841 0.58751,-1.03705 0.82977,-1.64594c0.24356,-0.60889 0.44954,-1.25989 0.61796,-1.95299c0.16842,-0.6931 0.29149,-1.40887 0.36922,-2.14731v-0.24291M353.88403,190.69501l0.76759,-0.5344c0.26558,0.34978 0.54088,0.72225 0.82589,1.11738c0.28501,0.39513 0.55707,0.79479 0.81617,1.19899c0.25911,0.4055 0.49359,0.79414 0.70347,1.16596c0.21117,0.37311 0.37829,0.71512 0.50137,1.02605l-0.86476,0.64128c-0.11659,-0.31092 -0.27335,-0.65748 -0.47027,-1.03965c-0.19821,-0.38218 -0.42364,-0.78055 -0.67625,-1.19511c-0.25263,-0.41457 -0.51691,-0.82589 -0.79285,-1.23397c-0.27465,-0.40809 -0.54477,-0.79026 -0.81034,-1.14653zM367.81725,195.10623l0.63156,-0.37894c0.15546,0.15546 0.31416,0.32388 0.4761,0.50525c0.16194,0.18137 0.31416,0.3608 0.45667,0.53829c0.1425,0.17878 0.25587,0.33619 0.34008,0.47221l-0.66071,0.43723c-0.08421,-0.1425 -0.19432,-0.30638 -0.33036,-0.49165c-0.13603,-0.18396 -0.28501,-0.37181 -0.44695,-0.56355c-0.16194,-0.19044 -0.3174,-0.36339 -0.46638,-0.51885M366.09747,188.20764h3.41044v6.25732h-0.81617v-5.50917h-1.80724v5.54803h-0.78703v-6.29618M371.39287,187.81898h0.82589v7.84109c0,0.24615 -0.02915,0.43723 -0.08745,0.57327c-0.0583,0.13603 -0.1587,0.23967 -0.30121,0.31092c-0.1425,0.07125 -0.3323,0.11789 -0.56938,0.13992c-0.23578,0.02331 -0.52857,0.03174 -0.87835,0.02526c-0.01944,-0.11012 -0.05506,-0.24939 -0.10688,-0.41781c-0.05182,-0.16842 -0.10688,-0.31416 -0.16518,-0.43723c0.23967,0.00648 0.46121,0.00972 0.6646,0.00972c0.20469,0 0.3459,0 0.42364,0c0.12955,0 0.19432,-0.06477 0.19432,-0.19432v-7.8508M370.06173,188.56714h0.79674v5.93668h-0.79674v-5.93668M367.38002,189.53877h0.76759v3.65335c0,0.32388 -0.02591,0.651 -0.07773,0.98135c-0.05182,0.33036 -0.14768,0.65423 -0.2876,0.97163c-0.13862,0.3174 -0.34267,0.61213 -0.61213,0.88419c-0.26817,0.27205 -0.61926,0.51172 -1.05325,0.71901c-0.02591,-0.0583 -0.06607,-0.12955 -0.12048,-0.21376c-0.05571,-0.08421 -0.11465,-0.16712 -0.17684,-0.24874c-0.06089,-0.08032 -0.114,-0.13992 -0.15935,-0.17878c0.38865,-0.18137 0.69764,-0.38412 0.92694,-0.60824c0.2306,-0.22283 0.40226,-0.46056 0.51496,-0.71318c0.114,-0.25263 0.18849,-0.51496 0.22347,-0.78703c0.03627,-0.27205 0.05441,-0.54412 0.05441,-0.81617v-3.64363M363.80441,188.51856l0.61213,-0.75787c0.16842,0.08421 0.35497,0.18461 0.55966,0.30121c0.2034,0.11659 0.40031,0.23319 0.59075,0.34978c0.19173,0.11659 0.3459,0.22347 0.4625,0.32064l-0.64128,0.84532c-0.11012,-0.10364 -0.25587,-0.21895 -0.43723,-0.3459c-0.18137,-0.12567 -0.37376,-0.25004 -0.57715,-0.37311c-0.20469,-0.12307 -0.39448,-0.23643 -0.56938,-0.34008M363.41575,191.12253l0.58298,-0.74816c0.1749,0.08421 0.36469,0.18137 0.56938,0.29149c0.2034,0.11012 0.39902,0.22024 0.58687,0.33036c0.18785,0.11012 0.34655,0.21052 0.4761,0.30121l-0.62185,0.8356c-0.11012,-0.09717 -0.25911,-0.20599 -0.44695,-0.32647c-0.18785,-0.11919 -0.38218,-0.23902 -0.58298,-0.3595c-0.2008,-0.11919 -0.38865,-0.22736 -0.56355,-0.32453M363.59065,196.0973c0.12307,-0.25263 0.25911,-0.55059 0.40809,-0.8939c0.14898,-0.34331 0.29797,-0.708 0.44695,-1.09406c0.14898,-0.38477 0.28825,-0.76176 0.41781,-1.13098l0.8356,0.5344c-0.11012,0.34331 -0.22995,0.69634 -0.3595,1.05908c-0.12955,0.36274 -0.26428,0.71901 -0.4042,1.0688c-0.13862,0.34978 -0.2727,0.68014 -0.40226,0.99107zM377.10608,187.67323h1.05908v3.36185h-1.05908v-3.36185M375.34742,191.53062v1.38944h4.63469v-1.38944h-4.63469M374.35636,190.55898h6.69455v3.32299h-6.69455v-3.32299M377.5919,188.57685h4.11973v0.98135h-4.11973v-0.98135M375.9887,194.65928l0.99107,-0.09717c0.05182,0.21376 0.09717,0.44371 0.13603,0.68986c0.03886,0.24615 0.06931,0.48063 0.09134,0.70347c0.02331,0.22412 0.03822,0.4204 0.0447,0.58881l-1.05908,0.13603c0,-0.16842 -0.00842,-0.36922 -0.02526,-0.60241c-0.01555,-0.23319 -0.03951,-0.4748 -0.0719,-0.72484c-0.03239,-0.24874 -0.06801,-0.47999 -0.10688,-0.69375M377.99027,194.669l0.9522,-0.21376c0.10364,0.2008 0.20404,0.41781 0.30121,0.651c0.09717,0.23319 0.1859,0.45991 0.26622,0.68014c0.08162,0.22024 0.13862,0.41781 0.17101,0.59269l-1.02022,0.25263c-0.03239,-0.16842 -0.08227,-0.36598 -0.14963,-0.59269c-0.06866,-0.22671 -0.14833,-0.45991 -0.23902,-0.69958c-0.09069,-0.23967 -0.18461,-0.46315 -0.28177,-0.67042M379.9724,194.60098l0.93277,-0.34008c0.16194,0.20728 0.32582,0.43075 0.49165,0.67042c0.16453,0.23967 0.31805,0.47739 0.46056,0.71318c0.1425,0.23708 0.25263,0.44954 0.33036,0.63739l-1.00078,0.39837c-0.07125,-0.18785 -0.1736,-0.40161 -0.30703,-0.64128c-0.13214,-0.23967 -0.27789,-0.48582 -0.43723,-0.73844c-0.15805,-0.25263 -0.31481,-0.48582 -0.47027,-0.69958M374.39522,194.32892l1.00078,0.25263c-0.1425,0.38865 -0.32841,0.77731 -0.55772,1.16596c-0.2306,0.38865 -0.47221,0.71253 -0.72484,0.97163l-0.96192,-0.46638c0.24615,-0.21376 0.47934,-0.49748 0.69958,-0.85115c0.22024,-0.35238 0.40161,-0.70994 0.54412,-1.07268zM385.15121,190.45211v0.74816h4.47923v-0.74816h-4.47923M385.15121,188.93636v0.74816h4.47923v-0.74816h-4.47923M384.13099,188.1299h6.56825v3.88654h-6.56825v-3.88654M382.86787,195.31028h9.07507v0.99107h-9.07507v-0.99107M385.78277,192.34679h0.99107v3.5076h-0.99107v-3.5076M387.98837,192.34679h0.99107v3.5076h-0.99107v-3.5076M390.39803,192.56055l0.88419,0.39837c-0.18785,0.33684 -0.39642,0.6769 -0.62574,1.02022c-0.2306,0.34331 -0.4463,0.63804 -0.64711,0.88419l-0.79674,-0.36922c0.13603,-0.1749 0.27724,-0.37246 0.42364,-0.59269c0.14509,-0.22024 0.28696,-0.44695 0.42557,-0.68014c0.13992,-0.23319 0.25198,-0.45343 0.33619,-0.66071M383.60631,192.97836l0.80646,-0.34978c0.11659,0.2008 0.23967,0.41586 0.36922,0.64516c0.12955,0.2306 0.25068,0.45278 0.36339,0.66654c0.114,0.21376 0.2034,0.40161 0.26817,0.56355l-0.84532,0.40809c-0.06477,-0.16842 -0.15028,-0.36469 -0.25651,-0.58881c-0.10752,-0.22283 -0.22089,-0.45278 -0.34008,-0.68986c-0.12048,-0.23578 -0.24226,-0.45408 -0.36533,-0.65488zM396.57762,191.24884h1.14653v4.24604c0,0.29797 -0.04016,0.52922 -0.12048,0.69375c-0.08162,0.16583 -0.2293,0.29084 -0.44306,0.37505c-0.21376,0.07773 -0.4761,0.12761 -0.78703,0.14963c-0.31092,0.02331 -0.68014,0.03498 -1.10767,0.03498c-0.02591,-0.16194 -0.07449,-0.34849 -0.14574,-0.55966c-0.07125,-0.20987 -0.14574,-0.39254 -0.22347,-0.548c0.19432,0.00648 0.39059,0.01296 0.58881,0.01944c0.19692,0.00648 0.37311,0.00777 0.52857,0.00389c0.15546,-0.00259 0.26234,-0.00389 0.32064,-0.00389c0.09069,0 0.15352,-0.01296 0.18849,-0.03886c0.03627,-0.02591 0.05441,-0.07449 0.05441,-0.14574v-4.22661M394.28457,192.49254l1.08823,0.28177c-0.1425,0.38865 -0.3174,0.77213 -0.52468,1.15042c-0.20728,0.37959 -0.42751,0.73456 -0.66071,1.06491c-0.23319,0.33036 -0.46962,0.61861 -0.70929,0.86476c-0.07125,-0.06477 -0.16712,-0.13603 -0.2876,-0.21376c-0.11919,-0.07773 -0.23902,-0.15546 -0.3595,-0.23319c-0.11919,-0.07773 -0.22412,-0.13603 -0.31481,-0.1749c0.36274,-0.33036 0.70087,-0.74168 1.01439,-1.23397c0.31481,-0.4923 0.56614,-0.9943 0.75398,-1.50604M398.8221,192.87147l0.97163,-0.40809c0.22671,0.30444 0.44825,0.63156 0.6646,0.98135c0.21765,0.34978 0.41586,0.6944 0.59464,1.03381c0.17749,0.34072 0.31157,0.65035 0.40226,0.92888l-1.07851,0.46638c-0.07125,-0.26558 -0.18979,-0.57197 -0.35562,-0.91916c-0.16453,-0.3459 -0.35238,-0.70217 -0.56355,-1.0688c-0.20987,-0.36533 -0.42169,-0.70347 -0.63545,-1.01439M393.68216,188.32423h6.87917v1.03965h-6.87917v-1.03965M392.80768,190.67559h8.64754v1.03965h-8.64754zM409.91815,188.06188h1.04936v7.40385c0,0.30444 -0.03757,0.53894 -0.11271,0.70347c-0.07384,0.16583 -0.20793,0.29408 -0.40226,0.38477c-0.19432,0.08421 -0.44501,0.13733 -0.75204,0.15935c-0.30833,0.02331 -0.68921,0.03498 -1.14264,0.03498c-0.01296,-0.10364 -0.03886,-0.22024 -0.07773,-0.34978c-0.03886,-0.12955 -0.08291,-0.25911 -0.13214,-0.38865c-0.04794,-0.12955 -0.10105,-0.23967 -0.15935,-0.33036c0.20728,0.01296 0.41133,0.01944 0.61213,0.01944c0.2008,0 0.37894,0 0.5344,0c0.15546,0 0.26558,0 0.33036,0c0.09717,0 0.16388,-0.01944 0.20016,-0.0583c0.03498,-0.03886 0.05247,-0.1004 0.05247,-0.18461v-7.39413M402.66976,189.86912h1.02994v6.87917h-1.02994v-6.87917M405.47779,188.06188h5.13023v1.00078h-5.13023v-1.00078M403.00984,188.22706l0.80646,-0.50525c0.1749,0.18137 0.3595,0.38218 0.55383,0.60241c0.19432,0.22024 0.37894,0.43529 0.55383,0.64516c0.1749,0.21117 0.31416,0.40096 0.41781,0.56938l-0.85504,0.56355c-0.09717,-0.16194 -0.22865,-0.35302 -0.39448,-0.57327c-0.16453,-0.22024 -0.34267,-0.44566 -0.5344,-0.67625c-0.19044,-0.2293 -0.37311,-0.43788 -0.548,-0.62574M406.23566,192.02615l0.68014,-0.69958c0.3174,0.29149 0.63674,0.60565 0.95803,0.94249c0.31999,0.33684 0.61731,0.66719 0.89196,0.99107c0.27594,0.32388 0.50137,0.61537 0.67625,0.87447l-0.73844,0.8356c-0.16194,-0.26558 -0.37894,-0.57003 -0.651,-0.91333c-0.27205,-0.34331 -0.56679,-0.6931 -0.88419,-1.04936c-0.3174,-0.35626 -0.62832,-0.68338 -0.93277,-0.98135M406.53687,189.76224l1.02022,0.16518c-0.22671,1.12709 -0.57003,2.12787 -1.02994,3.00235c-0.45991,0.87447 -1.07527,1.587 -1.8461,2.13759c-0.03239,-0.07773 -0.08421,-0.17684 -0.15546,-0.29732c-0.07125,-0.11919 -0.14768,-0.23902 -0.2293,-0.3595c-0.08032,-0.11919 -0.15287,-0.21441 -0.21765,-0.28566c0.66719,-0.45343 1.19834,-1.05455 1.59348,-1.80335c0.39513,-0.74751 0.68338,-1.6006 0.86476,-2.55929zM413.35774,187.78011h0.90362v3.28412c0,0.48582 -0.0162,0.97487 -0.04858,1.46717c-0.03239,0.4923 -0.10234,0.97811 -0.20987,1.45745c-0.10623,0.47934 -0.26493,0.93925 -0.4761,1.37972c-0.20987,0.44047 -0.49294,0.85504 -0.84921,1.24369c-0.04534,-0.07125 -0.10817,-0.15092 -0.18849,-0.23902c-0.08162,-0.0868 -0.16453,-0.17231 -0.24874,-0.25651c-0.08421,-0.08421 -0.16518,-0.15222 -0.24291,-0.20404c0.40809,-0.45343 0.70929,-0.94573 0.90362,-1.47688c0.19432,-0.53116 0.31869,-1.08369 0.37311,-1.65761c0.05571,-0.57262 0.08356,-1.14394 0.08356,-1.71397v-3.28412M414.76661,189.32501l0.80646,0.32064c-0.11012,0.33036 -0.22024,0.68014 -0.33036,1.04936c-0.11012,0.36922 -0.21376,0.68014 -0.31092,0.93277l-0.58298,-0.26234c0.05182,-0.18137 0.10558,-0.39383 0.16129,-0.63739c0.05441,-0.24226 0.10428,-0.48647 0.14963,-0.73261c0.04534,-0.24615 0.08097,-0.46962 0.10688,-0.67042M414.03788,193.05609c0.07125,0.06477 0.16842,0.17166 0.29149,0.32064c0.12307,0.14898 0.25587,0.31092 0.39837,0.48582c0.1425,0.1749 0.27205,0.33813 0.38865,0.4897c0.11659,0.15287 0.2008,0.2617 0.25263,0.32647l-0.68014,0.68014c-0.07125,-0.12307 -0.16194,-0.27076 -0.27205,-0.44306c-0.11012,-0.17101 -0.22671,-0.3459 -0.34978,-0.52468c-0.12307,-0.17749 -0.24161,-0.3459 -0.35562,-0.50525c-0.11271,-0.15805 -0.21117,-0.2889 -0.29538,-0.39254l0.62185,-0.43723M412.36668,189.70395l0.68014,0.07773c0,0.26558 -0.01425,0.55383 -0.04275,0.86476c-0.02979,0.31092 -0.07384,0.61537 -0.13214,0.91333c-0.0583,0.29797 -0.12631,0.56031 -0.20404,0.78703l-0.68986,-0.25263c0.07773,-0.2008 0.1425,-0.43918 0.19432,-0.71512c0.05182,-0.27465 0.09522,-0.55966 0.1302,-0.85504c0.03627,-0.29408 0.05765,-0.56743 0.06412,-0.82006M420.1689,187.68295l0.45667,0.88419c-0.29149,0.09717 -0.61731,0.17943 -0.97747,0.2468c-0.35886,0.06866 -0.73456,0.12567 -1.12709,0.17101c-0.39124,0.04534 -0.7812,0.07773 -1.16985,0.09717c-0.38865,0.01944 -0.76111,0.03239 -1.11738,0.03886c-0.01296,-0.12955 -0.04534,-0.274 -0.09717,-0.43335c-0.05182,-0.15805 -0.10364,-0.29862 -0.15546,-0.42169c0.35626,-0.01296 0.72549,-0.03239 1.10767,-0.0583c0.38218,-0.02591 0.75982,-0.06153 1.13293,-0.10688c0.37181,-0.04534 0.72419,-0.10364 1.05714,-0.1749c0.33424,-0.07125 0.63091,-0.15222 0.89002,-0.24291M415.7674,192.26906c-0.01296,-0.06477 -0.03886,-0.15222 -0.07773,-0.26234c-0.03886,-0.11012 -0.07967,-0.22218 -0.12243,-0.33619c-0.04146,-0.11271 -0.07838,-0.20793 -0.11076,-0.28566c0.06477,-0.02591 0.12178,-0.08939 0.17101,-0.19044c0.04794,-0.09976 0.0881,-0.2306 0.12048,-0.39254c0.01944,-0.10364 0.04858,-0.28825 0.08745,-0.55383c0.03886,-0.26558 0.07449,-0.57521 0.10688,-0.92888c0.03239,-0.35238 0.04534,-0.70347 0.03886,-1.05325l0.97163,0.25263c0,0.35626 -0.02267,0.72549 -0.06801,1.10767c-0.04534,0.38218 -0.09911,0.75139 -0.16129,1.10767c-0.06089,0.35626 -0.12372,0.6769 -0.18849,0.96192v0.01944c0,0 -0.03886,0.01749 -0.11659,0.05247c-0.07773,0.03627 -0.16712,0.08356 -0.26817,0.14186c-0.09976,0.0583 -0.18849,0.11983 -0.26622,0.18461c-0.07773,0.06477 -0.11659,0.12307 -0.11659,0.1749M417.86613,189.57764h1.02994v6.05328c0,0.25911 -0.02785,0.46315 -0.08356,0.61213c-0.05441,0.14898 -0.15935,0.26558 -0.31481,0.34978c-0.16194,0.07773 -0.3595,0.12761 -0.59269,0.14963c-0.23319,0.02331 -0.51172,0.03498 -0.8356,0.03498c-0.01296,-0.13603 -0.04858,-0.30121 -0.10688,-0.49554c-0.0583,-0.19432 -0.12307,-0.36274 -0.19432,-0.50525c0.19432,0.00648 0.38218,0.01101 0.56355,0.01361c0.18137,0.00389 0.30444,0.00259 0.36922,-0.00389c0.06477,0 0.10882,-0.01166 0.13214,-0.03498c0.02202,-0.02202 0.03303,-0.06542 0.03303,-0.1302v-6.04357M419.22641,193.28928l0.85504,-0.32064c0.14898,0.27853 0.2902,0.5778 0.42364,0.89779c0.13214,0.32129 0.25004,0.63415 0.35367,0.9386c0.10364,0.30444 0.18137,0.57975 0.23319,0.82589l-0.91333,0.3595c-0.04534,-0.24615 -0.11854,-0.52468 -0.21959,-0.8356c-0.09976,-0.31092 -0.21311,-0.63026 -0.34008,-0.95803c-0.12567,-0.32647 -0.25651,-0.62897 -0.39254,-0.90751M416.4281,193.05609l0.92305,0.23319c-0.14898,0.52468 -0.34331,1.03641 -0.58298,1.53518c-0.23967,0.49878 -0.50525,0.91657 -0.79674,1.25341c-0.04534,-0.0583 -0.11012,-0.13474 -0.19432,-0.2293c-0.08421,-0.09328 -0.16842,-0.18525 -0.25263,-0.27594c-0.08421,-0.09069 -0.16194,-0.16194 -0.23319,-0.21376c0.25911,-0.27853 0.48582,-0.62185 0.68014,-1.02994c0.19432,-0.40809 0.34655,-0.83236 0.45667,-1.27284M415.7674,192.26906v-0.80646l0.5344,-0.29149h4.62498v0.96192h-4.22661c-0.22024,0 -0.41975,0.01101 -0.59852,0.03303c-0.17749,0.02331 -0.2889,0.05765 -0.33424,0.10299zM421.8984,189.04324h4.5764v0.93277h-4.5764v-0.93277M422.92833,190.05374l0.88419,0.27205c-0.12307,0.29797 -0.26558,0.60241 -0.42751,0.91333c-0.16194,0.31092 -0.3323,0.60565 -0.51108,0.88419c-0.17749,0.27853 -0.35367,0.52468 -0.52857,0.73844c-0.04534,-0.05182 -0.11206,-0.11983 -0.20016,-0.20404c-0.0868,-0.08421 -0.17555,-0.16712 -0.26622,-0.24874c-0.09069,-0.08032 -0.17166,-0.14639 -0.24291,-0.19821c0.24615,-0.27853 0.48452,-0.61213 0.71512,-1.00078c0.2293,-0.38865 0.42169,-0.77407 0.57715,-1.15624M424.51209,191.59864l0.99107,0.1749c-0.28501,1.06232 -0.68532,1.99509 -1.20094,2.79831c-0.51432,0.80322 -1.15042,1.46069 -1.90829,1.97241c-0.04534,-0.07125 -0.11012,-0.15546 -0.19432,-0.25263c-0.08421,-0.09717 -0.1736,-0.19303 -0.26817,-0.2876c-0.09328,-0.09328 -0.17231,-0.16907 -0.23708,-0.22736c0.71901,-0.42751 1.31301,-0.99948 1.78198,-1.71591c0.47027,-0.71512 0.81553,-1.53583 1.03576,-2.46212M424.54125,190.40352l0.76759,-0.41781c0.15546,0.18785 0.31092,0.38995 0.46638,0.6063c0.15546,0.21765 0.29603,0.43335 0.42169,0.64711c0.12696,0.21376 0.22283,0.40809 0.2876,0.58298l-0.82589,0.46638c-0.05182,-0.1749 -0.13798,-0.37117 -0.25846,-0.58881c-0.11919,-0.21635 -0.25328,-0.43983 -0.40226,-0.67042c-0.14898,-0.2293 -0.30121,-0.43788 -0.45667,-0.62574M422.65628,192.50225l0.75787,-0.55383c0.23967,0.23967 0.49035,0.49554 0.75204,0.76759c0.26299,0.27205 0.51626,0.55059 0.75982,0.8356c0.24226,0.28501 0.4638,0.5616 0.6646,0.82977c0.2008,0.26946 0.36922,0.51756 0.50525,0.74428l-0.8356,0.651c-0.11659,-0.22671 -0.27205,-0.47804 -0.46638,-0.75398c-0.19432,-0.27465 -0.41133,-0.55966 -0.651,-0.85504c-0.23967,-0.29408 -0.48711,-0.58363 -0.74233,-0.86864c-0.25651,-0.28501 -0.5046,-0.55059 -0.74428,-0.79674M427.4853,189.39302h3.23554v0.97163h-3.23554v-0.97163M427.58246,187.66352l0.97163,0.15546c-0.11012,0.66071 -0.24809,1.30653 -0.41392,1.93744c-0.16453,0.63221 -0.36533,1.21843 -0.60241,1.75866c-0.23578,0.54153 -0.50913,1.01957 -0.82006,1.43414c-0.03886,-0.07125 -0.09717,-0.1587 -0.1749,-0.26234c-0.07773,-0.10364 -0.16064,-0.20728 -0.24874,-0.31092c-0.0868,-0.10364 -0.16583,-0.18785 -0.23708,-0.25263c0.27205,-0.34978 0.50525,-0.75982 0.69958,-1.23009c0.19432,-0.46897 0.3595,-0.97876 0.49554,-1.52935c0.13603,-0.55059 0.24615,-1.11738 0.33036,-1.70036M429.27311,190.05374l0.99107,0.11659c-0.15546,1.10767 -0.39059,2.08383 -0.70541,2.92851c-0.31351,0.84597 -0.73261,1.57145 -1.2573,2.17646c-0.52468,0.6063 -1.18216,1.11026 -1.97241,1.51187c-0.04534,-0.06477 -0.11012,-0.14445 -0.19432,-0.23902c-0.08421,-0.09328 -0.1736,-0.19044 -0.26817,-0.29149c-0.09328,-0.09976 -0.17878,-0.17878 -0.25651,-0.23708c0.77731,-0.33684 1.41211,-0.77925 1.9044,-1.32725c0.4923,-0.5467 0.87771,-1.20418 1.15624,-1.97241c0.27853,-0.76694 0.47934,-1.65566 0.60241,-2.66616M427.71849,190.86019c0.16194,0.73196 0.38671,1.42507 0.67431,2.0793c0.2889,0.65423 0.64063,1.23721 1.0552,1.74894c0.41457,0.51172 0.8939,0.91981 1.43801,1.22426c-0.07773,0.06477 -0.16388,0.14704 -0.25846,0.2468c-0.09328,0.10105 -0.18008,0.2034 -0.2604,0.30703c-0.08162,0.10364 -0.14833,0.2008 -0.20016,0.29149c-0.57651,-0.36922 -1.07851,-0.83755 -1.50604,-1.40498c-0.42751,-0.56614 -0.79026,-1.21389 -1.08823,-1.94327c-0.29797,-0.72808 -0.54412,-1.50992 -0.73844,-2.34552l0.88419,-0.20404M423.30727,187.96473l0.8939,-0.32064c0.12955,0.1749 0.25392,0.37052 0.37311,0.58687c0.12048,0.21765 0.20987,0.4042 0.26817,0.55966l-0.93277,0.37894c-0.04534,-0.16842 -0.12631,-0.36469 -0.24291,-0.58881c-0.11659,-0.22283 -0.23643,-0.42816 -0.3595,-0.61602zM431.67304,192.80346h8.64754v0.9522h-8.64754v-0.9522M435.4527,188.47969h1.10767v8.26861h-1.10767v-8.26861M435.15149,193.25041l0.86476,0.37894c-0.30444,0.40809 -0.66913,0.7935 -1.09406,1.15624c-0.42364,0.36274 -0.87706,0.68792 -1.36028,0.97552c-0.48193,0.2889 -0.96904,0.52403 -1.46134,0.70541c-0.05182,-0.08421 -0.11983,-0.18008 -0.20404,-0.2876c-0.08421,-0.10623 -0.17036,-0.20987 -0.25846,-0.31092c-0.0868,-0.09976 -0.16907,-0.18849 -0.2468,-0.26622c0.36274,-0.11012 0.72354,-0.24615 1.0824,-0.40809c0.36015,-0.16194 0.7067,-0.34849 1.03965,-0.55966c0.33424,-0.20987 0.64063,-0.4314 0.91916,-0.6646c0.27853,-0.23319 0.5182,-0.47286 0.71901,-0.71901M436.77412,193.20183c0.20728,0.23967 0.45473,0.47415 0.74233,0.70347c0.2889,0.2306 0.60176,0.44954 0.9386,0.65683c0.33684,0.20728 0.68986,0.39319 1.05908,0.55772c0.36922,0.16583 0.72873,0.3038 1.07851,0.41392c-0.07125,0.06477 -0.15222,0.15028 -0.24291,0.25651c-0.09069,0.10752 -0.17684,0.21635 -0.25846,0.32647c-0.08032,0.11012 -0.14639,0.21052 -0.19821,0.30121c-0.36274,-0.1425 -0.72678,-0.3161 -1.09212,-0.52079c-0.36663,-0.2034 -0.7216,-0.42816 -1.06491,-0.67431c-0.34331,-0.24615 -0.66719,-0.51043 -0.97163,-0.79285c-0.30444,-0.28113 -0.57327,-0.57067 -0.80646,-0.86864l0.81617,-0.3595M433.70375,190.53955v0.73844h4.58612v-0.73844h-4.58612M433.70375,189.00437v0.71901h4.58612v-0.71901h-4.58612M432.62524,188.1299h6.80144v4.02257h-6.80144z" fill="#ffffff" fill-rule="nonzero" stroke-width="1"/></g></g></svg>