<svg version="1.1" xmlns="http://www.w3.org/2000/svg" xmlns:xlink="http://www.w3.org/1999/xlink" width="208.07334" height="32" viewBox="0,0,208.07334,32"><g transform="translate(-239.92666,-164)"><g stroke="none" stroke-miterlimit="10"><path d="M245.41897,172.11583l1.70241,-0.7904c0.33778,0.33778 0.68231,0.70933 1.0336,1.11467c0.35129,0.40534 0.67286,0.80662 0.9647,1.20385c0.28914,0.39993 0.52154,0.76879 0.69718,1.10657l-1.82401,0.87147c-0.14863,-0.32427 -0.3648,-0.69312 -0.64854,-1.10657c-0.28374,-0.41074 -0.59179,-0.82554 -0.92417,-1.24438c-0.32968,-0.41885 -0.6634,-0.80391 -1.00118,-1.1552M241.16294,175.74358h5.8571v1.49974h-3.93176v7.25552h-1.92534v-8.75526M246.43231,175.74358h2.00641v6.87045c0,0.44587 -0.05404,0.78635 -0.16213,1.02145c-0.10809,0.2378 -0.31752,0.42425 -0.62828,0.55936c-0.31076,0.1216 -0.69853,0.19592 -1.16332,0.22294c-0.46749,0.02702 -1.01874,0.04054 -1.65377,0.04054c-0.04054,-0.2432 -0.11484,-0.50667 -0.22293,-0.79041c-0.10809,-0.28374 -0.21618,-0.54045 -0.32427,-0.77014c0.40534,0.01351 0.78095,0.02026 1.12683,0.02026c0.34319,0 0.57558,0 0.69718,0c0.1216,0 0.20672,-0.02432 0.25536,-0.07296c0.04594,-0.04594 0.06891,-0.12295 0.06891,-0.23104v-6.87045M242.23708,178.19587h5.02617v1.27681h-5.02617v-1.27681M242.21681,180.44548h5.02616v1.27681h-5.02616v-1.27681M256.01851,171.04168l1.35787,1.41868c-0.58098,0.22969 -1.21601,0.44586 -1.90508,0.64853c-0.68907,0.20267 -1.39166,0.38507 -2.10775,0.54721c-0.71609,0.16214 -1.40516,0.31075 -2.06721,0.44587c-0.05405,-0.20267 -0.13107,-0.43911 -0.23104,-0.70934c-0.10269,-0.27023 -0.20807,-0.50666 -0.31616,-0.70934c0.62151,-0.14863 1.25654,-0.31076 1.90508,-0.4864c0.64854,-0.17565 1.2633,-0.3648 1.84428,-0.56747c0.58098,-0.20267 1.08765,-0.39858 1.52001,-0.58774M256.0793,178.01347l1.35788,1.43894c-0.56747,0.2432 -1.19844,0.47289 -1.89292,0.68907c-0.69718,0.21618 -1.40382,0.40803 -2.11991,0.57557c-0.71609,0.17024 -1.41192,0.32291 -2.08748,0.45803c-0.04054,-0.20267 -0.11485,-0.44316 -0.22294,-0.7215c-0.10809,-0.27563 -0.21618,-0.51477 -0.32427,-0.71744c0.62151,-0.14863 1.26059,-0.31481 1.91724,-0.49856c0.65394,-0.18105 1.27141,-0.37696 1.85239,-0.58774c0.58098,-0.20808 1.08765,-0.4202 1.52001,-0.63638M250.1006,170.35261h2.06722v4.43843c0,0.29725 0.0581,0.4864 0.1743,0.56747c0.1135,0.08106 0.36615,0.12161 0.75798,0.12161c0.09458,0 0.25671,0 0.4864,0c0.22969,0 0.4837,0 0.76203,0c0.27563,0 0.53234,0 0.77014,0c0.2351,0 0.41344,0 0.53504,0c0.21618,0 0.38237,-0.04054 0.49857,-0.12161c0.1135,-0.08106 0.19456,-0.2405 0.2432,-0.4783c0.04594,-0.2351 0.08242,-0.58233 0.10944,-1.04171c0.21618,0.14863 0.49992,0.28644 0.85121,0.41344c0.35129,0.12971 0.66881,0.22159 0.95254,0.27563c-0.08107,0.70258 -0.20537,1.24978 -0.37291,1.64161c-0.17024,0.39183 -0.4202,0.66204 -0.74987,0.81067c-0.33238,0.14863 -0.76879,0.22294 -1.30924,0.22294c-0.09458,0 -0.2459,0 -0.45397,0c-0.21078,0 -0.44047,0 -0.68907,0c-0.25131,0 -0.50532,0 -0.76203,0c-0.25672,0 -0.4864,0 -0.68907,0c-0.20267,0 -0.35129,0 -0.44587,0c-0.7296,0 -1.29302,-0.0716 -1.69025,-0.21482c-0.39993,-0.14051 -0.67421,-0.38643 -0.82283,-0.73772c-0.14863,-0.35129 -0.22294,-0.83094 -0.22294,-1.43894v-4.4587M250.08033,177.446h2.06722v4.53976c0,0.29725 0.05674,0.48641 0.17024,0.56747c0.1162,0.08106 0.38372,0.1216 0.80257,0.1216c0.09458,0 0.26077,0 0.49856,0c0.2351,0 0.49451,0 0.77825,0c0.28374,0 0.5472,0 0.7904,0c0.2432,0 0.4256,0 0.5472,0c0.21618,0 0.38507,-0.03783 0.50667,-0.11349c0.1216,-0.07296 0.20672,-0.23509 0.25536,-0.4864c0.04594,-0.2486 0.08242,-0.60936 0.10944,-1.08225c0.20267,0.14863 0.4864,0.29049 0.8512,0.42561c0.3648,0.13512 0.68908,0.23644 0.97281,0.304c-0.06756,0.71609 -0.19186,1.27276 -0.37291,1.66999c-0.18376,0.39993 -0.44047,0.67691 -0.77014,0.83094c-0.33238,0.15673 -0.7823,0.2351 -1.34977,0.2351c-0.09458,0 -0.2459,0 -0.45397,0c-0.21078,0 -0.44451,0 -0.70123,0c-0.25672,0 -0.51613,0 -0.77824,0c-0.26482,0 -0.49856,0 -0.70123,0c-0.20267,0 -0.35129,0 -0.44587,0c-0.74311,0 -1.31328,-0.07161 -1.71051,-0.21483c-0.39993,-0.14051 -0.67691,-0.39048 -0.83094,-0.74987c-0.15673,-0.3567 -0.2351,-0.85256 -0.2351,-1.48758v-4.56003M245.68243,185.67432l1.98615,-0.16214c0.1216,0.52694 0.22294,1.10387 0.304,1.73079c0.08106,0.62963 0.1216,1.16061 0.1216,1.59297l-2.12802,0.2432c0.01351,-0.43236 -0.00675,-0.9701 -0.0608,-1.61324c-0.05405,-0.64043 -0.12835,-1.23763 -0.22293,-1.79158M249.81686,185.71485l2.02668,-0.38507c0.22969,0.49991 0.44587,1.05658 0.64854,1.66998c0.20267,0.61611 0.34454,1.14035 0.4256,1.57271l-2.14828,0.4864c-0.06755,-0.43236 -0.19321,-0.96335 -0.37696,-1.59297c-0.18105,-0.62692 -0.37291,-1.2106 -0.57558,-1.75105M253.84996,185.65405l2.00642,-0.70934c0.32427,0.35129 0.64584,0.7323 0.9647,1.14305c0.31616,0.41344 0.61611,0.82554 0.89984,1.23628c0.28373,0.41344 0.49992,0.78905 0.64854,1.12683l-2.14829,0.77014c-0.13511,-0.32427 -0.33102,-0.69313 -0.58773,-1.10657c-0.25672,-0.41074 -0.54045,-0.83229 -0.8512,-1.26465c-0.31076,-0.43236 -0.62152,-0.83094 -0.93228,-1.19574M242.13574,184.94472l2.06722,0.50667c-0.2432,0.64854 -0.56071,1.31329 -0.95254,1.99425c-0.39183,0.68366 -0.81743,1.26195 -1.27681,1.73484l-2.04694,-0.81067c0.43236,-0.39183 0.84715,-0.90255 1.24438,-1.53218c0.39993,-0.62692 0.7215,-1.25789 0.9647,-1.89291M240.59547,175.56118c-0.02702,-0.1216 -0.07837,-0.29454 -0.15403,-0.51883c-0.07296,-0.22159 -0.14998,-0.45127 -0.23104,-0.68907c-0.08106,-0.2351 -0.15538,-0.43371 -0.22294,-0.59585c0.29725,-0.06755 0.64178,-0.29049 1.0336,-0.6688c0.1216,-0.1216 0.32157,-0.33507 0.5999,-0.64043c0.27563,-0.30265 0.57288,-0.6634 0.89174,-1.08225c0.31616,-0.41885 0.59584,-0.8512 0.83904,-1.29708l2.02668,0.60801c-0.37831,0.49991 -0.7904,0.99578 -1.23628,1.48758c-0.44587,0.49451 -0.89849,0.95119 -1.35788,1.37004c-0.45938,0.41885 -0.89849,0.78365 -1.31734,1.0944v0.0608c0,0 -0.07431,0.04728 -0.22294,0.14186c-0.14863,0.09458 -0.29319,0.20942 -0.43371,0.34454c-0.14322,0.13512 -0.21483,0.26347 -0.21483,0.38507M240.59547,175.56118l-0.0608,-1.49975l1.01334,-0.608l6.66778,-0.52694c-0.05405,0.25672 -0.10134,0.5499 -0.14187,0.87958c-0.04054,0.33238 -0.05405,0.5999 -0.04054,0.80257c-1.21601,0.1216 -2.2361,0.22294 -3.06028,0.304c-0.82418,0.08106 -1.49974,0.15133 -2.02668,0.21078c-0.52694,0.06215 -0.94173,0.11619 -1.24438,0.16213c-0.30535,0.04864 -0.5391,0.09323 -0.70123,0.13377c-0.16214,0.04054 -0.29725,0.08782 -0.40534,0.14186zM260.4772,174.28437h17.87533v2.20909h-17.87533v-2.20909M263.84149,183.44497h11.04541v2.20908h-11.04541v-2.20908M268.21912,170.27155h2.31042v18.90893h-2.31042v-18.90893M266.35458,175.07478l1.98615,0.56748c-0.4864,1.43219 -1.07684,2.79952 -1.77132,4.102c-0.69718,1.30518 -1.47813,2.49823 -2.34285,3.57912c-0.86472,1.08089 -1.79699,2.00641 -2.79682,2.77655c-0.1216,-0.18915 -0.27698,-0.39182 -0.46614,-0.608c-0.18916,-0.21618 -0.38507,-0.42965 -0.58774,-0.64043c-0.20267,-0.20808 -0.38506,-0.37966 -0.5472,-0.51477c0.94579,-0.63503 1.83482,-1.44299 2.66711,-2.42391c0.82959,-0.97821 1.5754,-2.05506 2.23746,-3.23053c0.66205,-1.17548 1.20249,-2.37797 1.62135,-3.60749M272.35355,175.13558c0.41885,1.20249 0.95524,2.37122 1.60919,3.50616c0.65665,1.13494 1.41057,2.1753 2.26178,3.12109c0.8512,0.94579 1.7497,1.72944 2.69548,2.35095c-0.17564,0.14863 -0.37426,0.33372 -0.59584,0.55531c-0.22429,0.22429 -0.43371,0.45398 -0.62827,0.68907c-0.19727,0.2378 -0.36345,0.45803 -0.49856,0.6607c-0.99983,-0.74311 -1.92129,-1.64837 -2.76439,-2.71576c-0.8458,-1.06739 -1.60919,-2.25367 -2.29015,-3.55885c-0.68367,-1.30248 -1.2687,-2.64955 -1.7551,-4.0412zM280.56161,181.41829h18.19959v1.96588h-18.19959v-1.96588M284.5947,174.64918h10.09287v1.78348h-10.09287v-1.78348M284.61497,178.01347h10.11314v1.76321h-10.11313v-1.76321M283.70297,171.20382h12.38302v11.10622h-2.18882v-9.2822h-8.08646v9.2822h-2.10774v-11.10622M291.72862,184.15431l1.84428,-0.81067c0.58098,0.45938 1.17953,0.97956 1.79564,1.56054c0.61341,0.58098 1.18763,1.15115 1.72267,1.71052c0.53234,0.56206 0.97416,1.05928 1.32545,1.49164l-1.90508,0.99308c-0.33778,-0.45938 -0.77284,-0.98362 -1.30518,-1.57271c-0.53505,-0.58639 -1.10657,-1.17683 -1.71458,-1.77132c-0.608,-0.59449 -1.19574,-1.12819 -1.76321,-1.60108M282.36536,188.67381c-0.04053,-0.16214 -0.10134,-0.3648 -0.1824,-0.608c-0.08107,-0.2432 -0.16214,-0.49721 -0.2432,-0.76203c-0.08107,-0.26211 -0.16889,-0.48775 -0.26347,-0.67691c0.22969,-0.05405 0.45938,-0.14592 0.68908,-0.27563c0.22969,-0.127 0.47965,-0.2986 0.74987,-0.51478c0.20267,-0.13512 0.50397,-0.37832 0.9039,-0.72961c0.39723,-0.35129 0.83905,-0.77689 1.32545,-1.2768c0.4864,-0.49991 0.93228,-1.02686 1.33761,-1.58082l2.22935,0.85121c-0.78365,0.87823 -1.61729,1.71187 -2.50092,2.50092c-0.88633,0.79175 -1.7416,1.45786 -2.56578,1.99831v0.04054c0,0 -0.07431,0.03378 -0.22294,0.10133c-0.14862,0.06755 -0.32021,0.15133 -0.51477,0.25131c-0.19727,0.10269 -0.37021,0.21483 -0.51883,0.33643c-0.14862,0.1216 -0.22293,0.23644 -0.22293,0.34453M282.36536,188.67381l-0.02027,-1.49974l1.29708,-0.70934l11.73448,-0.46614c0.04053,0.27023 0.10134,0.57018 0.1824,0.89985c0.08107,0.33238 0.14186,0.59989 0.1824,0.80256c-1.86455,0.09458 -3.47238,0.17835 -4.8235,0.25131c-1.35112,0.07566 -2.49281,0.14052 -3.42509,0.19457c-0.93228,0.05405 -1.69836,0.10133 -2.29826,0.14186c-0.6026,0.04054 -1.08225,0.07702 -1.43894,0.10944c-0.3594,0.03513 -0.64313,0.07296 -0.8512,0.1135c-0.21078,0.04054 -0.39047,0.09458 -0.53909,0.16213zM311.06316,178.96601c0.64854,1.98614 1.67539,3.67775 3.08056,5.07481c1.40517,1.39976 3.21567,2.39689 5.43151,2.99138c-0.17564,0.16214 -0.35805,0.36075 -0.54721,0.59584c-0.18916,0.2378 -0.36886,0.481 -0.5391,0.7296c-0.16754,0.25131 -0.30535,0.4783 -0.41344,0.68097c-1.55379,-0.49991 -2.90896,-1.19304 -4.06552,-2.07937c-1.15386,-0.88363 -2.13612,-1.95372 -2.9468,-3.21026c-0.81067,-1.25654 -1.48623,-2.68197 -2.02668,-4.2763l2.02668,-0.50667M301.84175,171.66996h16.11212v2.22935h-16.11212v-2.22935M301.09189,177.8108h17.69292v2.22935h-17.69292v-2.22935M308.63113,172.41983h2.29015v3.64802c0,0.83769 -0.0581,1.72538 -0.1743,2.66306c-0.1135,0.94038 -0.33913,1.88616 -0.67691,2.83735c-0.33778,0.95389 -0.83769,1.89022 -1.49975,2.80898c-0.66205,0.91876 -1.53623,1.77943 -2.62252,2.582c-1.089,0.80526 -2.44417,1.51866 -4.06552,2.14017c-0.09458,-0.18915 -0.22294,-0.39858 -0.38507,-0.62828c-0.16213,-0.22969 -0.33373,-0.45938 -0.51478,-0.68907c-0.18376,-0.22969 -0.3567,-0.41209 -0.51883,-0.5472c1.47272,-0.54045 2.70224,-1.16196 3.68856,-1.86454c0.98632,-0.70258 1.77673,-1.45246 2.37122,-2.24962c0.59449,-0.79716 1.04441,-1.60513 1.34977,-2.42391c0.30265,-0.81608 0.50531,-1.62269 0.608,-2.41985c0.09998,-0.79716 0.14997,-1.54028 0.14997,-2.22935zM321.15603,184.13404h18.13879v1.96588h-18.13879v-1.96588M329.01955,181.72229h2.18882v7.43792h-2.18882v-7.43792M325.35125,179.69561v1.33761h9.5862v-1.33761h-9.5862M325.35125,176.81773v1.29708h9.5862v-1.29708h-9.5862M323.26377,175.13558h13.8625v7.55952h-13.8625v-7.55952M325.59446,170.25128h2.12802v4.53977h-2.12802v-4.53977M332.62703,170.25128h2.12802v4.53977h-2.12802v-4.53977M321.23709,171.50782h17.97666v1.92534h-17.97666zM341.4431,171.87262l1.216,-1.43894c0.35129,0.20267 0.72555,0.43235 1.12278,0.68907c0.39993,0.25672 0.77825,0.51613 1.13494,0.77824c0.3594,0.26482 0.64718,0.51208 0.86336,0.74177l-1.25654,1.58081c-0.21618,-0.22969 -0.49992,-0.4837 -0.85121,-0.76203c-0.35129,-0.27563 -0.72285,-0.55531 -1.11467,-0.83905c-0.39182,-0.28374 -0.76338,-0.53369 -1.11467,-0.74987M340.8959,177.30413l1.17548,-1.47948c0.3648,0.17565 0.75392,0.38102 1.16737,0.61611c0.41074,0.2378 0.80121,0.481 1.17142,0.7296c0.37291,0.25131 0.68096,0.48505 0.92416,0.70123l-1.25654,1.66188c-0.21618,-0.22969 -0.50667,-0.47695 -0.87148,-0.74177c-0.3648,-0.26211 -0.74987,-0.52559 -1.1552,-0.7904c-0.40533,-0.26211 -0.79041,-0.49451 -1.15521,-0.69718M341.11883,187.7618c0.27022,-0.51343 0.56072,-1.12819 0.87147,-1.84428c0.31075,-0.71609 0.62152,-1.47272 0.93228,-2.26988c0.31075,-0.79716 0.60125,-1.58081 0.87148,-2.35095l1.62134,1.03361c-0.22969,0.71609 -0.48235,1.4484 -0.75798,2.19692c-0.27833,0.75123 -0.55667,1.49164 -0.83499,2.22124c-0.27563,0.7296 -0.55531,1.41868 -0.83904,2.06722l-1.86455,-1.05388M353.76532,174.24384h5.93817v1.86454h-5.93817v13.01129h-1.86455v-13.63956l1.13494,-1.23628h0.7296M353.03572,178.27694h6.36378v1.84427h-6.36378v-1.84427M352.99518,182.24923h6.44484v1.84428h-6.44484v-1.84428M353.13705,186.28232h6.74885v1.88482h-6.74885v-1.88482M355.87307,175.23691h1.80374v12.09929h-1.80374v-12.09929M353.50185,170.21075l1.88481,0.5472c-0.31075,0.8512 -0.68636,1.7362 -1.12683,2.65496c-0.43777,0.91876 -0.92012,1.79294 -1.44705,2.62252c-0.52693,0.83229 -1.08765,1.57946 -1.68214,2.24151c-0.1216,-0.21618 -0.29725,-0.47289 -0.52694,-0.77014c-0.22969,-0.29725 -0.4256,-0.5472 -0.58774,-0.74988c0.49991,-0.55396 0.97686,-1.20655 1.43084,-1.95777c0.45128,-0.74852 0.85256,-1.52137 1.20385,-2.31852c0.35129,-0.79716 0.63502,-1.55379 0.8512,-2.26988M355.4272,171.48755l1.62135,-0.608c0.29724,0.43236 0.58098,0.90795 0.8512,1.42678c0.27022,0.52153 0.47289,0.97821 0.608,1.37004l-1.70241,0.72961c-0.1216,-0.40534 -0.31076,-0.88229 -0.56747,-1.43084c-0.25671,-0.54585 -0.52694,-1.04171 -0.81068,-1.48758M345.63833,173.1089h3.89123v1.90508h-3.89123v-1.90508M349.04315,173.1089h0.34453l0.34454,-0.0608l1.23627,0.26347c-0.2432,3.47238 -0.76744,6.42458 -1.5727,8.85659c-0.80257,2.43202 -1.9267,4.35736 -3.3724,5.77604c-0.16213,-0.2432 -0.37156,-0.51342 -0.62827,-0.81067c-0.25671,-0.29725 -0.49991,-0.53369 -0.7296,-0.70934c0.82419,-0.74311 1.53758,-1.76322 2.14017,-3.06029c0.5999,-1.29708 1.089,-2.78331 1.46732,-4.4587c0.37831,-1.67539 0.63502,-3.46562 0.77014,-5.3707v-0.42561M345.21273,177.5068l1.43895,-0.72961c0.47289,0.68907 0.94848,1.42543 1.42678,2.20908c0.481,0.78365 0.93498,1.5673 1.36193,2.35095c0.42425,0.78365 0.80527,1.54028 1.14305,2.26988c0.33778,0.7296 0.60125,1.3849 0.7904,1.96588l-1.60108,0.89174c-0.18916,-0.59449 -0.44182,-1.2606 -0.75798,-1.99831c-0.31887,-0.73501 -0.68367,-1.5011 -1.09441,-2.29826c-0.41345,-0.79716 -0.84985,-1.59838 -1.30924,-2.40365c-0.45938,-0.80256 -0.92552,-1.55513 -1.39841,-2.25772zM368.49929,180.24282h10.25501v8.87686h-2.18882v-6.87045h-5.95844v6.95152h-2.10775v-8.95792M369.73556,186.03912h7.84325v2.02668h-7.84325v-2.02668M370.22197,171.20382h6.22191v2.02669h-6.22191v-2.02669M369.51263,171.20382h2.10775v2.33069c0,0.74311 -0.09728,1.52271 -0.29184,2.33879c-0.19727,0.81878 -0.56342,1.60648 -1.09846,2.36311c-0.53234,0.75663 -1.31194,1.41868 -2.33879,1.98614c-0.06756,-0.14863 -0.19321,-0.33102 -0.37696,-0.5472c-0.18105,-0.21618 -0.36615,-0.42966 -0.55531,-0.64043c-0.18916,-0.20808 -0.35129,-0.36615 -0.4864,-0.47424c0.89174,-0.47289 1.55379,-0.99713 1.98615,-1.5727c0.43236,-0.57288 0.71609,-1.16332 0.8512,-1.77132c0.13511,-0.608 0.20267,-1.18899 0.20267,-1.74294v-2.26989M375.39,171.20382h2.12802v5.49231c0,0.31076 0.01622,0.53369 0.04864,0.6688c0.03513,0.13512 0.127,0.20267 0.27563,0.20267c0.08107,0 0.1824,0 0.304,0c0.1216,0 0.24726,0 0.37697,0c0.127,0 0.23104,0 0.31211,0c0.13511,0 0.30806,-0.01081 0.51883,-0.03243c0.20808,-0.01891 0.37966,-0.04864 0.51477,-0.08917c0.01351,0.27023 0.03107,0.55666 0.05269,0.85931c0.01891,0.30535 0.04864,0.58638 0.08918,0.8431c-0.13511,0.05405 -0.30805,0.09053 -0.51883,0.10944c-0.20808,0.02162 -0.41344,0.03243 -0.61611,0.03243c-0.10809,0 -0.24726,0 -0.4175,0c-0.16754,0 -0.33643,0 -0.50667,0c-0.16754,0 -0.30535,0 -0.41344,0c-0.59449,0 -1.04712,-0.09458 -1.35788,-0.28374c-0.31075,-0.18915 -0.52018,-0.47965 -0.62827,-0.87148c-0.10809,-0.39183 -0.16214,-0.88499 -0.16214,-1.47948v-5.45177M362.21658,172.11583l1.37815,-1.39841c0.41885,0.21618 0.86877,0.46884 1.34977,0.75798c0.4783,0.29184 0.93362,0.58234 1.36598,0.87148c0.43236,0.29184 0.79041,0.56611 1.07414,0.82283l-1.45921,1.56055c-0.25671,-0.25672 -0.59449,-0.54045 -1.01334,-0.85121c-0.41885,-0.31076 -0.86471,-0.62152 -1.3376,-0.93227c-0.47289,-0.31076 -0.92552,-0.58774 -1.35788,-0.83094M361.1627,177.60813l1.35788,-1.41868c0.41885,0.20267 0.86472,0.43507 1.33761,0.69718c0.47289,0.26482 0.93227,0.53504 1.37814,0.81067c0.44587,0.27833 0.81068,0.53234 1.09441,0.76203l-1.43894,1.58081c-0.27022,-0.2432 -0.61476,-0.51072 -1.03361,-0.80256c-0.41885,-0.28914 -0.86742,-0.57963 -1.34572,-0.87148c-0.481,-0.28914 -0.93092,-0.5418 -1.34977,-0.75798M361.64911,187.397c0.37831,-0.49991 0.80392,-1.09441 1.27681,-1.78348c0.47289,-0.68907 0.95524,-1.42543 1.44705,-2.20908c0.49451,-0.78365 0.95794,-1.56055 1.3903,-2.33069l1.58081,1.56055c-0.37831,0.68907 -0.78771,1.39841 -1.22817,2.12802c-0.43777,0.7296 -0.87687,1.45245 -1.31734,2.16855c-0.43777,0.71609 -0.87958,1.3984 -1.32545,2.04694zM383.21299,176.61506h2.16855v3.87096c0,0.63503 -0.02972,1.32004 -0.08917,2.05505c-0.06215,0.73771 -0.1716,1.48758 -0.32833,2.24962c-0.15403,0.76474 -0.37967,1.50109 -0.67691,2.20908c-0.29724,0.71069 -0.68232,1.34977 -1.15521,1.91724c-0.10809,-0.14863 -0.27022,-0.31481 -0.4864,-0.49856c-0.21618,-0.18105 -0.44182,-0.3567 -0.67691,-0.52694c-0.2378,-0.16754 -0.43776,-0.29184 -0.5999,-0.37291c0.56747,-0.68907 0.97956,-1.4457 1.23627,-2.26988c0.25671,-0.82418 0.42155,-1.65242 0.49451,-2.48471c0.07566,-0.82959 0.1135,-1.60243 0.1135,-2.31852v-3.83042M384.40873,176.61506h15.50411v1.92534h-15.50411v-1.92534M386.73942,179.81721h12.50462v1.84428h-12.50462v-1.84428M385.80714,183.3639h14.4097v1.92535h-14.4097v-1.92535M391.72505,180.38468h2.29015v8.79579h-2.29015v-8.79579M383.27379,171.00115h2.20908v2.41175h11.16701v-2.41175h2.29014v4.3371h-15.66624v-4.3371M389.8605,170.25128h2.31042v4.07363h-2.31042z" fill="#ffffff" stroke-width="1"/><path d="M240,196v-32h208v32z" fill="none" stroke-width="0"/></g></g></svg>