<svg version="1.1" xmlns="http://www.w3.org/2000/svg" xmlns:xlink="http://www.w3.org/1999/xlink" width="208" height="48" viewBox="0,0,208,48"><g transform="translate(-136,-156)"><g stroke-miterlimit="10"><path d="M136,204v-48h208v48z" fill="none" fill-rule="nonzero" stroke="none" stroke-width="1" stroke-linecap="butt" opacity="0.988"/><path d="M187.31841,188.05331h8.4664l-0.35369,1.56949h-8.24534c-1.57686,0 -2.94003,-0.26895 -4.08952,-0.80685c-1.14949,-0.5379 -2.10002,-1.37422 -2.85161,-2.50897c-0.58948,1.41475 -1.53264,2.8074 -2.8295,4.17794l-1.14949,-1.34844c1.14949,-1.19369 1.98213,-2.40582 2.49792,-3.63635c0.5158,-1.23054 0.86212,-2.84792 1.03896,-4.85215l1.65791,0.17685c-0.13263,1.42949 -0.33895,2.68213 -0.61895,3.75793c0.54527,0.97264 1.20475,1.73159 1.97844,2.27686c0.77369,0.54527 1.69107,0.89896 2.75214,1.06106v-9.04114h-8.0685v-1.54739h17.22017v1.54739h-7.49376v3.49267h6.67585v1.52528h-6.67585v4.15583zM193.24268,176.2711v-2.27686h-14.28014v2.32108h-1.6137v-3.84635h8.22324l-0.7958,-2.29897l1.87896,-0.17685l0.8179,2.47581h7.36112v3.80214z" fill="#ffffff" fill-rule="evenodd" stroke="#ffffff" stroke-width="0.5" stroke-linecap="round"/><path d="M171.31915,187.39015h4.57584v1.50317h-10.30115v1.43686h-1.56949v-12.77697c-0.22105,0.35369 -0.58211,0.88422 -1.08317,1.59159l-1.10527,-1.30422c1.57686,-2.10739 2.84424,-4.67899 3.80214,-7.71481l1.59159,0.30948c-0.33895,1.04632 -0.73685,2.12213 -1.19369,3.2274h4.4432l-0.44211,-1.12738c-0.22105,-0.61895 -0.44948,-1.20107 -0.68527,-1.74633l1.43686,-0.53053c0.3979,0.9579 0.84737,2.09265 1.34844,3.40425h3.58109v1.52528h-4.39899v2.94003h4.0232v1.45896h-4.0232v3.00635h4.0232v1.48107h-4.0232zM162.56538,179.29955l0.13263,0.84001l0.11053,0.8179l-2.14423,0.70737v6.12322c0,0.58948 -0.07368,1.03896 -0.22105,1.34844c-0.14737,0.30948 -0.39421,0.52685 -0.74053,0.65211c-0.34632,0.12527 -0.83633,0.18789 -1.47002,0.18789h-1.45896l-0.33158,-1.63581h1.34844c0.5158,0 0.85474,-0.06632 1.01685,-0.19895c0.1621,-0.13263 0.24316,-0.43474 0.24316,-0.90632v-5.04005l-2.34318,0.77369l-0.35369,-1.65791c0.44211,-0.1179 1.34106,-0.39053 2.69687,-0.8179v-4.79689h-2.4095v-1.63581h2.4095v-3.80214h1.6137v3.80214h1.98949v1.63581h-1.98949v4.26636l1.41475,-0.50842c0.10316,-0.02947 0.19158,-0.05895 0.26527,-0.08842c0.07368,-0.02947 0.14737,-0.05158 0.22105,-0.06632zM169.74966,187.39015v-3.31582h-4.15583v3.31582zM165.59383,179.58692v3.00635h4.15583v-3.00635zM165.59383,175.18793v2.94003h4.15583v-2.94003z" fill="#ffffff" fill-rule="evenodd" stroke="#ffffff" stroke-width="0.5" stroke-linecap="round"/><path d="M213.9806,177.12738l0.02576,0.37351l-0.92733,0.11592v1.40388h-0.86293v-1.28796c-2.42996,0.28335 -3.87248,0.46366 -4.32756,0.54094l-0.09016,-0.8243l0.66974,-0.07728l0.43791,-0.05152v-4.50787h-1.10765v-0.78566h11.2568v0.78566h-5.97615v3.99268l0.87581,-0.11592zM219.09382,178.01607l-0.37351,0.87581c-1.04755,-0.40356 -1.91477,-0.87582 -2.60169,-1.41676c-0.63539,0.54094 -1.41675,1.02608 -2.34409,1.4554l-0.42503,-0.82429c0.85005,-0.32629 1.56703,-0.72555 2.1509,-1.19781c-0.31769,-0.33487 -0.60319,-0.70623 -0.85649,-1.11409c-0.2533,-0.40786 -0.49587,-0.87367 -0.7277,-1.39744v-0.79854h4.37908v0.86293c-0.36063,0.91016 -0.86723,1.713 -1.5198,2.4085c0.58388,0.42932 1.35666,0.81142 2.31834,1.14629zM209.35681,171.26715v-3.64494h8.13993v3.64494zM216.58229,169.78599h-6.31102v0.73414h6.31102zM210.27127,169.10337h6.31102v-0.72126h-6.31102zM217.31643,174.3969h-2.46001c0.33487,0.77278 0.7599,1.41676 1.27508,1.93195c0.52377,-0.56671 0.91875,-1.21069 1.18493,-1.93195zM209.78184,176.10989v1.10765l2.43426,-0.29623v-0.81142zM212.21609,175.42727v-0.96598h-2.43426v0.96598zM209.78184,173.77867h2.43426v-0.96597h-2.43426z" fill="#ffffff" fill-rule="evenodd" stroke="#ffffff" stroke-width="0.45" stroke-linecap="round"/><path d="M232.01209,177.96456l-0.61822,0.96597c-2.55875,-1.49404 -4.23741,-3.32724 -5.03594,-5.49961c-0.39497,1.09906 -1.02822,2.10368 -1.89974,3.01384c-0.87152,0.91016 -1.9298,1.75163 -3.17483,2.52441l-0.6311,-0.97886c1.47687,-0.8243 2.66823,-1.78812 3.5741,-2.89147c0.90587,-1.10335 1.41461,-2.34195 1.52624,-3.71578h-4.89426v-0.99173h4.90714v-3.16839h1.03037v3.16839h4.94578v0.99173h-4.95866c-0.00859,0.04293 -0.01288,0.10733 -0.01288,0.1932c0.28335,1.38242 0.84361,2.58451 1.68079,3.60629c0.83718,1.02178 2.02425,1.94912 3.56122,2.782z" fill="#ffffff" fill-rule="evenodd" stroke="#ffffff" stroke-width="0.45" stroke-linecap="round"/><path d="M244.69853,173.17333h-4.92002c0.32629,0.74702 0.70194,1.38456 1.12697,1.91263c0.42503,0.52806 0.9488,0.99602 1.57131,1.40388c0.62251,0.40786 1.39744,0.7878 2.32478,1.13985l-0.50231,0.94021c-1.45969,-0.59247 -2.61671,-1.30085 -3.47106,-2.12514c-0.85435,-0.8243 -1.56487,-1.91477 -2.13158,-3.27142h-2.13802v4.40484l2.94944,-1.28797l0.05151,0.97886l-3.94117,1.75163l-0.48943,-0.96597c0.17173,-0.09445 0.29194,-0.1846 0.36063,-0.27047c0.06869,-0.08587 0.10304,-0.18891 0.10304,-0.30912v-4.30179h-1.99634v-1.00462h1.99634v-4.9329h0.96597v4.9329h8.13993zM243.11433,167.53205l0.46367,0.96597c-0.78136,0.52377 -1.68938,1.03896 -2.72404,1.54556c-1.03466,0.5066 -2.07148,0.95309 -3.11043,1.33948l-0.36063,-0.95309c0.96168,-0.34346 1.95341,-0.77277 2.9752,-1.28796c1.02178,-0.51519 1.94053,-1.05184 2.75624,-1.60996z" fill="#ffffff" fill-rule="evenodd" stroke="#ffffff" stroke-width="0.45" stroke-linecap="round"/><path d="M247.55781,172.16872v-4.3662h9.40214v9.38926c0,0.44649 -0.04937,0.78351 -0.14812,1.01105c-0.09875,0.22754 -0.27047,0.38639 -0.51519,0.47655c-0.24471,0.09016 -0.60319,0.13524 -1.07545,0.13524h-1.37812l-0.16743,-0.94021h1.31372c0.30052,0 0.51948,-0.02147 0.65686,-0.0644c0.13738,-0.04293 0.22968,-0.12235 0.27691,-0.23827c0.04722,-0.11592 0.07084,-0.29838 0.07084,-0.54738v-8.33312h-7.47019v3.83813c0,1.18492 -0.03435,2.123 -0.10304,2.8142c-0.06869,0.6912 -0.19534,1.30729 -0.37995,1.84823c-0.18461,0.54094 -0.46581,1.14199 -0.84361,1.80315l-0.91445,-0.51519c0.3778,-0.61822 0.65471,-1.18063 0.83073,-1.68723c0.17602,-0.5066 0.29409,-1.09477 0.35419,-1.76451c0.0601,-0.66974 0.09016,-1.62284 0.09016,-2.85928zM255.45302,172.9415h-6.46558v-0.81142h2.76912v-1.18493h-2.34409v-0.79854h2.34409v-1.12053h0.90158v1.12053h2.35698v0.79854h-2.35698v1.18493h2.79488zM249.8375,177.30769v-3.25854h4.7397v3.25854zM250.71332,174.8992v1.55844h3.00096v-1.55844z" fill="#ffffff" fill-rule="evenodd" stroke="#ffffff" stroke-width="0.45" stroke-linecap="round"/><path d="M266.00144,172.28464v-4.31468h4.00556v9.24758c0,0.38639 -0.04723,0.68262 -0.14168,0.8887c-0.09445,0.20607 -0.24901,0.35419 -0.46366,0.44434c-0.21466,0.09016 -0.51948,0.13523 -0.91445,0.13523h-0.97885l-0.1932,-0.91445h0.97885c0.34346,0 0.57315,-0.05152 0.68906,-0.15455c0.11591,-0.10304 0.17388,-0.30911 0.17388,-0.61822v-2.0221h-2.36985c-0.06011,0.87581 -0.1932,1.59707 -0.39927,2.16377c-0.20607,0.56671 -0.56241,1.20639 -1.06901,1.91907l-0.85005,-0.57958c0.48084,-0.62681 0.82644,-1.17849 1.03681,-1.65503c0.21037,-0.47654 0.3456,-1.03037 0.40571,-1.66147c0.06011,-0.6311 0.09015,-1.59063 0.09015,-2.87859zM264.41724,169.43824v5.49961h0.97886v0.8243h-6.11783v-0.8243h1.08189v-5.49961h-0.83718v-0.82429h0.83718v-1.31373h0.86293v1.31373h2.33121v-1.31373h0.86293v1.31373h0.86293v0.82429zM266.83862,174.06203h2.31833v-2.16378h-2.30545v0.83718zM266.8515,171.02243h2.30545v-2.0865h-2.30545zM259.83209,178.90477l-0.64398,-0.6955c0.35204,-0.27477 0.72126,-0.62037 1.10765,-1.03681c0.38639,-0.41644 0.71267,-0.81356 0.97885,-1.19137l0.70838,0.56671c-0.28335,0.3778 -0.62466,0.7878 -1.02393,1.23001c-0.39927,0.4422 -0.77493,0.81785 -1.12697,1.12696zM261.2231,170.76484h2.33121v-1.3266h-2.33121zM263.55431,174.93784v-1.27508h-2.33121v1.27508zM263.55431,172.85134v-1.24932h-2.33121v1.24932zM262.74289,176.58643l0.60534,-0.61822l1.50692,1.44252l-0.60534,0.64398l-0.51519,-0.51519c-0.4465,-0.44649 -0.77707,-0.7642 -0.99173,-0.95309z" fill="#ffffff" fill-rule="evenodd" stroke="#ffffff" stroke-width="0.45" stroke-linecap="round"/><path d="M217.88545,189.83524l0.91446,0.20607c0,0.2576 -0.01718,0.66974 -0.05152,1.23645l-0.01288,0.42503c-0.02576,0.35205 -0.09444,0.62466 -0.20607,0.81786c-0.11163,0.1932 -0.29194,0.33058 -0.54095,0.41215c-0.24901,0.08157 -0.60105,0.12235 -1.05613,0.12235h-3.27143c-0.42932,0 -0.76634,-0.04508 -1.01105,-0.13523c-0.24471,-0.09016 -0.42288,-0.24901 -0.5345,-0.47655c-0.11163,-0.22754 -0.16744,-0.55597 -0.16744,-0.98529v-4.4306l-1.08189,0.37351l-0.24471,-0.91446l1.3266,-0.45078v-3.18127h0.91445v2.87216l1.59708,-0.55383v-3.45174h0.90157v3.15552l2.74336,-0.94022l-0.14168,4.59803c-0.02576,0.35205 -0.07728,0.61822 -0.15456,0.79853c-0.07728,0.18032 -0.21037,0.30911 -0.39927,0.38639c-0.1889,0.07728 -0.46366,0.11592 -0.8243,0.11592h-0.6955l-0.18032,-0.95309h0.46366c0.24901,0 0.43362,-0.01932 0.55383,-0.05796c0.12021,-0.03864 0.20392,-0.10948 0.25115,-0.21251c0.04723,-0.10304 0.07514,-0.26618 0.08372,-0.48942l0.11591,-2.88504l-1.81603,0.61822v5.10034h-0.90157v-4.79122l-1.59708,0.55382v4.35332c0,0.30911 0.02147,0.53665 0.0644,0.68263c0.04293,0.14597 0.13094,0.24901 0.26403,0.30911c0.13309,0.0601 0.34131,0.09015 0.62466,0.09015h2.75624c0.36063,0 0.62466,-0.02146 0.7921,-0.06439c0.16744,-0.04293 0.2855,-0.1288 0.35419,-0.2576c0.06869,-0.12879 0.11162,-0.33487 0.12879,-0.61822zM209.87432,186.00999v4.45636l1.48116,-0.47654l0.07728,0.47654l0.05152,0.41215l-3.82526,1.24932l-0.24471,-0.86293l1.54556,-0.50231v-4.75259h-1.35236v-0.94021h1.35236v-3.09111h0.91445v3.09111h1.09477v0.94021z" fill="#ffffff" fill-rule="evenodd" stroke="#ffffff" stroke-width="0.45" stroke-linecap="round"/><path d="M225.44579,190.46635h-1.05613v1.98346l1.97058,-0.48943l0.02576,0.73414l-3.03959,0.8243l-0.28335,-0.68262c0.1889,-0.07728 0.30911,-0.14167 0.36063,-0.1932c0.05152,-0.05152 0.07727,-0.1202 0.07727,-0.20607v-1.97058h-1.1978c-0.06869,0.58388 -0.20178,1.11409 -0.39927,1.59063c-0.19749,0.47654 -0.47654,0.95524 -0.83718,1.43608l-0.81142,-0.5667c0.47226,-0.60963 0.79424,-1.19351 0.96597,-1.75163c0.17173,-0.55812 0.2576,-1.30085 0.2576,-2.22818v-1.85466h9.72412v0.64398h-8.82255v1.41676c0,0.29194 -0.0043,0.5066 -0.01288,0.64399h9.09302v0.66974h-5.02306c0.48084,0.5066 1.02607,0.90587 1.63571,1.19781c1.09906,-0.49801 1.86755,-0.86723 2.30545,-1.10765l0.38639,0.66974c-0.3177,0.15455 -0.89728,0.42074 -1.73875,0.79854c0.76419,0.21466 1.69152,0.37351 2.782,0.47655l-0.37351,0.79854c-1.02178,-0.12879 -1.8933,-0.30911 -2.61456,-0.54094c-0.72126,-0.23183 -1.35021,-0.53021 -1.88687,-0.89513c-0.53665,-0.36492 -1.03252,-0.83074 -1.4876,-1.39744zM225.62611,186.69261v-2.40849h-3.81237v1.66147h-0.91445v-2.30545h4.72683v-0.6955h-4.27604v-0.72126h9.51805v0.72126h-4.34044v0.6955h4.77834v2.30545h-0.90157v-1.66147h-3.87677v2.40849zM222.92139,188.45712h7.68914v0.6311h-7.68914zM222.535,185.45617v-0.57958h2.42137v0.57958zM227.24894,185.45617v-0.57958h2.40849v0.57958zM224.95637,185.94559v0.56671h-2.42137v-0.56671zM227.26182,186.5123v-0.56671h2.40849v0.56671z" fill="#ffffff" fill-rule="evenodd" stroke="#ffffff" stroke-width="0.45" stroke-linecap="round"/><path d="M241.09455,184.18108h3.01383c-0.02576,0.90158 -0.06225,2.09509 -0.10947,3.58054c-0.04723,1.48545 -0.09231,2.71761 -0.13524,3.69646c-0.01718,0.40356 -0.08372,0.71911 -0.19964,0.94665c-0.11591,0.22754 -0.29838,0.38853 -0.54738,0.48298c-0.24901,0.09445 -0.59246,0.14168 -1.03037,0.14168h-1.35236l-0.1932,-0.95309h1.15917c0.33487,0 0.58602,-0.03006 0.75346,-0.09016c0.16744,-0.0601 0.28764,-0.16529 0.36063,-0.31555c0.07299,-0.15026 0.11806,-0.37995 0.13524,-0.68906c0.02576,-0.35205 0.06225,-1.21927 0.10947,-2.60169c0.04723,-1.38242 0.08372,-2.46001 0.10948,-3.23279h-2.09938c-0.06011,1.65718 -0.14597,2.92582 -0.25759,3.80593c-0.11163,0.88011 -0.31555,1.66362 -0.61178,2.35054c-0.29623,0.68691 -0.75776,1.42964 -1.38457,2.22817l-0.86293,-0.59246c0.60964,-0.72985 1.05828,-1.40174 1.34592,-2.01567c0.28764,-0.61393 0.49157,-1.34377 0.61178,-2.18953c0.12021,-0.84576 0.20178,-2.04143 0.24471,-3.58698h-1.40388v-0.96597h1.41676l0.05151,-2.49865h0.91445c0,0.58388 -0.01288,1.41676 -0.03863,2.49865zM238.75046,191.70279l-0.85005,0.43791l-0.21895,-0.60534l-4.08285,0.45079l-0.15456,-0.8243c0.35204,-0.60105 0.69121,-1.29226 1.01749,-2.07362c0.32628,-0.78136 0.58817,-1.5198 0.78566,-2.2153h-1.95771v-0.91446h5.42233v0.91446h-2.48577c-0.18032,0.61822 -0.43576,1.34807 -0.76634,2.18954c-0.33058,0.84147 -0.61178,1.48116 -0.84362,1.91906l2.74336,-0.28336c-0.33487,-0.91875 -0.64828,-1.71299 -0.94022,-2.38273l0.85005,-0.32199c0.33487,0.78995 0.82859,2.0264 1.48116,3.70934zM233.83044,183.64014v-0.9531h4.48211v0.9531z" fill="#ffffff" fill-rule="evenodd" stroke="#ffffff" stroke-width="0.45" stroke-linecap="round"/><path d="M246.69719,182.37794h3.67069v0.97885l-1.01749,2.93656c0.37781,0.52377 0.65256,1.0089 0.8243,1.4554c0.17173,0.44649 0.25759,0.8887 0.25759,1.32661c0,0.62681 -0.15026,1.09047 -0.45079,1.391c-0.30052,0.30052 -0.74702,0.45078 -1.33948,0.45078h-0.65686l-0.20607,-0.96597h0.6311c0.43791,0 0.73414,-0.08586 0.88869,-0.25759c0.15456,-0.17173 0.23184,-0.45508 0.23184,-0.85005c0,-0.36063 -0.08372,-0.732 -0.25116,-1.11409c-0.16744,-0.38209 -0.44864,-0.81786 -0.84361,-1.30728l1.01749,-3.12975h-1.85467v10.13627h-0.90157zM250.53532,187.2078l-0.47654,-0.86294c0.78136,-0.66116 1.42534,-1.34806 1.93194,-2.06074c0.5066,-0.71267 0.94021,-1.54556 1.30084,-2.49865h0.87581c0.37781,1.02178 0.85221,1.89545 1.4232,2.621c0.571,0.72555 1.24289,1.35022 2.01567,1.87399l-0.45079,0.87581c-0.78995,-0.53236 -1.46398,-1.13985 -2.0221,-1.82247c-0.55812,-0.68262 -1.02178,-1.48759 -1.391,-2.41493c-0.35204,0.85005 -0.77278,1.60136 -1.2622,2.25393c-0.48942,0.65257 -1.1377,1.3309 -1.94483,2.03498zM250.80579,193.58322l-0.81141,-0.66974c0.47226,-0.51519 0.83074,-0.97885 1.07545,-1.391c0.24471,-0.41215 0.41859,-0.86508 0.52162,-1.3588c0.10303,-0.49372 0.15456,-1.11838 0.15456,-1.87399v-1.70011h0.92734v1.66147c0,0.86723 -0.05581,1.58205 -0.16744,2.14446c-0.11163,0.56241 -0.29623,1.07974 -0.55383,1.552c-0.25759,0.47225 -0.63969,1.01749 -1.14629,1.63572zM254.77272,193.4029v-6.80044h0.92733v6.80044z" fill="#ffffff" fill-rule="evenodd" stroke="#ffffff" stroke-width="0.45" stroke-linecap="round"/><path d="M270.4086,192.43693l-0.48943,0.96597c-1.07331,-0.74702 -1.94482,-1.49403 -2.61456,-2.24105c-0.75561,0.83289 -1.73446,1.62283 -2.93656,2.36985l-0.59246,-0.82429c1.2021,-0.71267 2.18095,-1.46399 2.93655,-2.25394c-0.71267,-0.92733 -1.2665,-2.00922 -1.66147,-3.24567c-0.12021,1.22786 -0.35205,2.30331 -0.69551,3.22635c-0.34346,0.92304 -0.87581,1.88687 -1.59707,2.89148l-0.86294,-0.56671c0.29194,-0.40356 0.53236,-0.7642 0.72126,-1.08189l-3.59341,0.61822l-0.11592,-0.95309l3.91541,-0.6955l0.03864,0.60534c0.4465,-0.8243 0.76848,-1.66576 0.96597,-2.5244c0.19749,-0.85864 0.32628,-1.91048 0.38639,-3.15551c0.01718,-0.40356 0.03864,-1.1377 0.0644,-2.20242h-0.97886v-0.92733h5.80872v0.92733l-0.99173,2.35698h1.68723v0.90157c-0.48942,1.52838 -1.11624,2.79917 -1.88043,3.81237c0.65257,0.70408 1.48116,1.36953 2.48577,1.99634zM261.18678,186.29335l-2.0221,0.24471l-0.18032,-0.94021c0.67832,-0.84147 1.4554,-2.18095 2.33121,-4.01844l0.79854,0.37351c-0.78995,1.62284 -1.4554,2.82064 -1.99634,3.59342l1.60995,-0.14167c0.24042,-0.40356 0.51519,-0.90587 0.8243,-1.50692l0.78566,0.52806c-0.37781,0.70408 -0.8243,1.4554 -1.33948,2.25394c-0.51518,0.79853 -1.0132,1.49833 -1.49404,2.09938l2.26682,-0.34775l0.02576,0.90158l-3.42598,0.54094l-0.18032,-0.92733c0.72126,-0.80713 1.3867,-1.69152 1.99634,-2.6532zM268.91456,186.62822h-1.73876v-0.79854l1.01749,-2.46001h-2.92368c0,0.24042 -0.01717,0.73843 -0.05151,1.49404c0.22325,1.02178 0.5066,1.9298 0.85005,2.72404c0.34346,0.79424 0.7599,1.50907 1.24932,2.14446c0.66116,-0.85864 1.19351,-1.8933 1.59708,-3.10399z" fill="#ffffff" fill-rule="evenodd" stroke="#ffffff" stroke-width="0.45" stroke-linecap="round"/></g></g></svg>