<svg version="1.1" xmlns="http://www.w3.org/2000/svg" xmlns:xlink="http://www.w3.org/1999/xlink" width="124.721" height="21.957" viewBox="0,0,124.721,21.957"><g transform="translate(-240,-180)"><g stroke="none" stroke-miterlimit="10"><path d="M245.93556,180h112.84988c3.2883,0 5.93556,3.568 5.93556,8v5.957c0,4.432 -2.64726,8 -5.93556,8h-112.84988c-3.2883,0 -5.93556,-3.568 -5.93556,-8v-5.957c0,-4.432 2.64726,-8 5.93556,-8z" fill-opacity="0.7" fill="#000000" fill-rule="evenodd" stroke-width="0"/><path d="M250.97185,188.48119v0.82307h4.92774v-0.82307h-4.92774M250.97185,186.81367v0.82307h4.92774v-0.82307h-4.92774M249.84948,185.92646h7.22592v4.27569h-7.22592v-4.27569M248.45988,193.82581h9.98374v1.0903h-9.98374v-1.0903M251.66665,190.56559h1.0903v3.85881h-1.0903v-3.85881M254.0931,190.56559h1.09031v3.85881h-1.09031v-3.85881M256.74404,190.80076l0.97272,0.43826c-0.20666,0.37056 -0.43612,0.74469 -0.68838,1.12237c-0.25369,0.37768 -0.49099,0.70193 -0.7119,0.97272l-0.87652,-0.40619c0.14965,-0.19241 0.305,-0.40975 0.46605,-0.65204c0.15963,-0.24229 0.3164,-0.4917 0.47033,-0.74825c0.1525,-0.25654 0.27507,-0.49883 0.36771,-0.72687M249.27226,191.26039l0.88721,-0.38481c0.12827,0.22091 0.26367,0.4575 0.40619,0.70977c0.14252,0.25369 0.27579,0.49812 0.39978,0.73328c0.12542,0.23516 0.22376,0.44182 0.29502,0.61997l-0.92996,0.44895c-0.07126,-0.18528 -0.16533,-0.4012 -0.28219,-0.64777c-0.1183,-0.24514 -0.24372,-0.49811 -0.37626,-0.75893c-0.13112,-0.25939 -0.26438,-0.49954 -0.39977,-0.72046zM263.54239,189.35771h1.26133v4.6712c0,0.3278 -0.04418,0.58221 -0.13255,0.76321c-0.08979,0.18243 -0.25226,0.31996 -0.48743,0.4126c-0.23516,0.08552 -0.52377,0.14038 -0.86583,0.16461c-0.34206,0.02565 -0.74825,0.03848 -1.21857,0.03848c-0.02851,-0.17815 -0.08195,-0.38339 -0.16034,-0.6157c-0.07839,-0.23089 -0.16033,-0.43185 -0.24585,-0.60287c0.21379,0.00713 0.42899,0.01425 0.64563,0.02138c0.21806,0.00713 0.4126,0.00855 0.58363,0.00428c0.17103,-0.00285 0.28861,-0.00428 0.35275,-0.00428c0.09977,0 0.1696,-0.01425 0.20951,-0.04276c0.03848,-0.02851 0.05772,-0.08195 0.05772,-0.16034v-4.64982M261.01973,190.72593l1.19719,0.30999c-0.15678,0.42757 -0.34918,0.84944 -0.57721,1.2656c-0.22804,0.41759 -0.47033,0.80811 -0.72687,1.17154c-0.25654,0.36343 -0.51665,0.68055 -0.78031,0.95134c-0.07839,-0.07126 -0.18314,-0.14965 -0.31426,-0.23516c-0.13255,-0.08552 -0.26509,-0.17103 -0.39764,-0.25654c-0.13112,-0.08552 -0.24657,-0.14965 -0.34633,-0.19241c0.39907,-0.36343 0.77176,-0.81595 1.11809,-1.35753c0.34491,-0.54159 0.62069,-1.09386 0.82735,-1.65683M266.0116,191.14281l1.06892,-0.44895c0.24941,0.33493 0.49384,0.6948 0.73328,1.07961c0.23801,0.38481 0.45536,0.76392 0.65204,1.13733c0.19526,0.37484 0.34277,0.71547 0.44253,1.02189l-1.1865,0.51308c-0.07839,-0.29217 -0.20808,-0.62924 -0.38909,-1.0112c-0.18243,-0.38053 -0.38909,-0.77248 -0.61997,-1.17582c-0.23231,-0.40192 -0.46605,-0.7739 -0.70121,-1.11596M260.357,186.14025h7.56798v1.14375h-7.56798v-1.14375M259.39497,188.72705h9.51341v1.14375h-9.51341zM270.92865,188.075h1.1865v5.09876c0,0.22804 0.03206,0.39906 0.0962,0.51308c0.06414,0.11402 0.19597,0.18884 0.3955,0.22447c0.19953,0.03563 0.49527,0.05345 0.88721,0.05345c0.10689,0 0.27934,0 0.51736,0c0.23944,0 0.51237,0 0.8188,0c0.30642,0 0.61427,0 0.92355,0c0.3107,0 0.59076,0 0.84017,0c0.24941,0 0.44182,0 0.57722,0c0.28505,0 0.51309,-0.02494 0.68411,-0.07482c0.17103,-0.04988 0.305,-0.14252 0.40191,-0.27792c0.09549,-0.1354 0.17031,-0.32781 0.22447,-0.57722c0.05273,-0.24941 0.09691,-0.57722 0.13255,-0.98341c0.10689,0.06414 0.22804,0.12613 0.36343,0.18599c0.1354,0.06129 0.27436,0.11687 0.41688,0.16675c0.14252,0.04988 0.2708,0.08552 0.38482,0.10689c-0.05701,0.49883 -0.1354,0.91571 -0.23516,1.25064c-0.09977,0.33493 -0.24229,0.60002 -0.42757,0.79528c-0.18528,0.19668 -0.43114,0.33777 -0.73756,0.42329c-0.30642,0.08552 -0.69836,0.12827 -1.17581,0.12827c-0.07839,0 -0.21379,0 -0.40619,0c-0.19241,0 -0.41474,0 -0.66701,0c-0.25369,0 -0.51593,0 -0.78673,0c-0.2708,0 -0.5309,0 -0.78031,0c-0.24941,0 -0.4689,0 -0.65846,0c-0.18813,0 -0.31783,0 -0.38909,0c-0.66273,0 -1.18294,-0.05558 -1.56063,-0.16675c-0.37768,-0.10974 -0.64349,-0.30358 -0.79741,-0.5815c-0.1525,-0.27792 -0.22875,-0.67342 -0.22875,-1.1865v-5.09876M271.60207,189.61425h6.01804v1.13306h-6.01804v-1.13306M270.45832,186.04405h7.93141v5.20566h-1.19719v-4.06191h-6.73421zM284.69638,190.18078c0.4632,1.11168 1.1865,2.02525 2.16991,2.74072c0.98341,0.71689 2.22693,1.20717 3.73054,1.47084c-0.07839,0.07839 -0.1639,0.17958 -0.25654,0.30357c-0.09264,0.12542 -0.17958,0.25227 -0.26082,0.38054c-0.08266,0.12827 -0.14894,0.24585 -0.19882,0.35274c-1.04042,-0.22091 -1.95399,-0.55085 -2.74072,-0.98982c-0.78815,-0.43754 -1.46371,-0.98768 -2.02668,-1.65041c-0.56296,-0.66273 -1.02973,-1.43592 -1.40029,-2.31956l0.98341,-0.28861M288.26658,189.78528h0.22447l0.21379,-0.04276l0.80169,0.36343c-0.24941,0.75537 -0.57722,1.42309 -0.98341,2.00316c-0.40619,0.5815 -0.87652,1.08602 -1.41098,1.5136c-0.53446,0.42757 -1.12094,0.78744 -1.75945,1.07961c-0.63708,0.29217 -1.31193,0.5309 -2.02454,0.71618c-0.06414,-0.14965 -0.15535,-0.32282 -0.27364,-0.5195c-0.11687,-0.19526 -0.22875,-0.35702 -0.33564,-0.48529c0.64135,-0.1354 1.25634,-0.33136 1.84496,-0.58791c0.58719,-0.25654 1.12522,-0.56653 1.61407,-0.92997c0.48743,-0.36343 0.9093,-0.78957 1.2656,-1.27843c0.35631,-0.48743 0.63067,-1.034 0.82307,-1.63973v-0.19241M284.33295,189.78528h4.10466v1.11168h-4.42534l0.32068,-1.11168M284.92085,185.35994l1.28271,0.21379c-0.14252,1.04755 -0.33279,2.02026 -0.5708,2.91816c-0.23944,0.8979 -0.54943,1.72239 -0.92997,2.47349c-0.38196,0.75252 -0.85443,1.42951 -1.41739,2.03095c-0.56296,0.60287 -1.23995,1.12878 -2.03095,1.57773c-0.04988,-0.08552 -0.12257,-0.18741 -0.21806,-0.30571c-0.09691,-0.11687 -0.20096,-0.23231 -0.31213,-0.34633c-0.10974,-0.11402 -0.2145,-0.20309 -0.31426,-0.26723c0.96203,-0.53446 1.74591,-1.20432 2.35163,-2.00957c0.60572,-0.80526 1.07961,-1.73736 1.42167,-2.79631c0.34206,-1.05752 0.58791,-2.22051 0.73756,-3.48897M287.32593,186.02267l0.89789,-0.53446c0.14252,0.14965 0.29788,0.31711 0.46605,0.5024c0.16675,0.18528 0.32495,0.36343 0.4746,0.53446c0.14965,0.17103 0.27436,0.32068 0.37412,0.44895l-0.92997,0.60929c-0.08552,-0.1354 -0.20309,-0.29431 -0.35274,-0.47674c-0.14965,-0.181 -0.30642,-0.36628 -0.47033,-0.55584c-0.1639,-0.18813 -0.31711,-0.36414 -0.45964,-0.52804M281.63926,189.05841c-0.02138,-0.08552 -0.05558,-0.19098 -0.10262,-0.3164c-0.04561,-0.12399 -0.09193,-0.25369 -0.13896,-0.38909c-0.04561,-0.1354 -0.08979,-0.24585 -0.13254,-0.33136c0.07839,-0.02851 0.15321,-0.08053 0.22447,-0.15606c0.07126,-0.07411 0.14253,-0.17174 0.21379,-0.29289c0.04276,-0.07126 0.11045,-0.20309 0.20309,-0.3955c0.09264,-0.19241 0.18884,-0.42258 0.28861,-0.69052c0.09977,-0.26652 0.18171,-0.53874 0.24585,-0.81666l1.20789,0.20309c-0.08552,0.30642 -0.19454,0.61642 -0.32709,0.92997c-0.13112,0.31355 -0.26652,0.60928 -0.40619,0.8872c-0.13825,0.27792 -0.2715,0.52021 -0.39977,0.72687v0.02138c0,0 -0.04489,0.01924 -0.13469,0.05772c-0.08837,0.0399 -0.19169,0.09193 -0.30999,0.15606c-0.11687,0.06414 -0.21806,0.13183 -0.30358,0.20309c-0.08552,0.07126 -0.12827,0.13896 -0.12827,0.20309M281.63926,189.05841v-0.85514l0.6948,-0.47033h7.89934v1.10099h-7.47177c-0.2993,0 -0.54871,0.01923 -0.74825,0.05772c-0.19953,0.0399 -0.32424,0.09549 -0.37412,0.16675zM291.45197,186.97401h9.5348v1.11168h-9.5348v-1.11168M296.17662,188.50257h1.15443v6.90525h-1.15443v-6.90525M293.17294,189.79597h6.61664v1.0903h-5.47289v3.54882h-1.14375v-4.63912M299.28718,189.79597h1.16513v3.36711c0,0.27792 -0.03563,0.49527 -0.10689,0.65204c-0.07126,0.15678 -0.20666,0.27792 -0.40619,0.36343c-0.19241,0.08552 -0.43612,0.13682 -0.73114,0.15392c-0.29645,0.01853 -0.65133,0.02779 -1.06465,0.02779c-0.02138,-0.15678 -0.06983,-0.3335 -0.14537,-0.53018c-0.07411,-0.19526 -0.15037,-0.36771 -0.22875,-0.51736c0.18528,0.00713 0.367,0.01212 0.54516,0.01497c0.17815,0.00428 0.33492,0.00641 0.47032,0.00641c0.1354,0 0.22804,0 0.27792,0c0.08552,-0.00713 0.14466,-0.02352 0.17744,-0.04917c0.03136,-0.02423 0.04703,-0.07198 0.04703,-0.14324v-3.34573M294.93666,185.40269l1.18651,0.27792c-0.25654,0.85514 -0.58221,1.70315 -0.977,2.54404c-0.39622,0.84089 -0.87224,1.62619 -1.42808,2.3559c-0.55584,0.73114 -1.21144,1.35682 -1.96682,1.87703c-0.04988,-0.09264 -0.11402,-0.20167 -0.19241,-0.32709c-0.07839,-0.12399 -0.15891,-0.24657 -0.24158,-0.36771c-0.08124,-0.12114 -0.15749,-0.22091 -0.22875,-0.2993c0.50595,-0.33493 0.96346,-0.73257 1.3725,-1.19292c0.41047,-0.45892 0.7739,-0.95775 1.09031,-1.49649c0.31783,-0.53731 0.5929,-1.09315 0.82521,-1.66752c0.23089,-0.57294 0.41759,-1.1409 0.56011,-1.70387zM304.08665,194.47785h5.64391v0.60928h-5.64391v-0.60928M303.50943,192.38276h6.84111v0.58791h-6.84111v-0.58791M303.50943,191.4528h6.84111v0.58791h-6.84111v-0.58791M302.21603,190.37318h9.37445v0.72687h-9.37445v-0.72687M303.39184,193.31272h7.10834v2.07371h-1.13306v-1.47512h-4.88498v1.4858h-1.09031v-2.0844M302.09845,185.86233h5.10945v0.67342h-5.10945v-0.67342M303.23151,185.45614h0.95134v1.42167h-0.95134v-1.42167M305.14488,185.44545h0.96203v1.42167h-0.96203v-1.42167M308.22338,186.2899h3.49538v0.78031h-3.49538v-0.78031M303.16737,187.13435h2.9823v0.60928h-2.9823v-0.60928M308.25545,185.40269l0.89789,0.21379c-0.18528,0.53446 -0.43114,1.03685 -0.73756,1.50718c-0.30642,0.47033 -0.63779,0.86227 -0.99409,1.17582c-0.04988,-0.05701 -0.11972,-0.12115 -0.20951,-0.19241c-0.08837,-0.07126 -0.18101,-0.14252 -0.27792,-0.21378c-0.09549,-0.07126 -0.17887,-0.12828 -0.25013,-0.17103c0.34918,-0.27792 0.66131,-0.61855 0.93638,-1.02189c0.27364,-0.40192 0.48529,-0.83448 0.63494,-1.29768M310.11537,186.64264l0.98341,0.08551c-0.15678,0.59147 -0.3955,1.09885 -0.71618,1.52215c-0.32068,0.42472 -0.71048,0.78103 -1.1694,1.06892c-0.46035,0.28932 -0.98626,0.52662 -1.57773,0.7119c-0.02851,-0.06414 -0.07482,-0.14609 -0.13896,-0.24585c-0.06414,-0.09977 -0.13183,-0.19954 -0.20309,-0.2993c-0.07126,-0.09977 -0.13896,-0.18171 -0.2031,-0.24585c0.79813,-0.19241 1.46086,-0.49527 1.9882,-0.90858c0.52734,-0.41332 0.87295,-0.97628 1.03685,-1.6889M308.46923,186.88849c0.29217,0.59147 0.73756,1.09386 1.33616,1.50718c0.5986,0.41332 1.30765,0.70193 2.12716,0.86583c-0.10689,0.09977 -0.22091,0.23303 -0.34206,0.39978c-0.12114,0.16817 -0.21378,0.31996 -0.27792,0.45536c-0.86939,-0.23516 -1.61265,-0.60786 -2.22977,-1.11809c-0.6157,-0.50881 -1.09101,-1.1409 -1.42594,-1.89627l0.81238,-0.21379M303.07117,188.03224h2.16991v1.60339h-2.16991v-0.54515h1.37891v-0.51309h-1.37891v-0.54515M305.83968,187.13435h0.95134c0,0 0,0.04276 0,0.12827c0,0.08552 -0.00356,0.15678 -0.01069,0.21379c-0.02138,0.47033 -0.04988,0.85656 -0.08551,1.15871c-0.03563,0.30357 -0.07269,0.53874 -0.11117,0.70549c-0.0399,0.16817 -0.09549,0.29502 -0.16675,0.38053c-0.07126,0.09264 -0.15321,0.1582 -0.24585,0.19668c-0.09264,0.0399 -0.19597,0.06342 -0.30999,0.07055c-0.08552,0.00713 -0.20096,0.01212 -0.34633,0.01497c-0.1468,0.00428 -0.30215,0.00285 -0.46605,-0.00428c-0.00713,-0.10689 -0.02851,-0.2316 -0.06414,-0.37412c-0.03563,-0.14252 -0.08195,-0.26723 -0.13896,-0.37412c0.12114,0.00713 0.22803,0.01425 0.32067,0.02138c0.09264,0.00713 0.1639,0.01069 0.21379,0.01069c0.04276,0 0.08195,-0.00713 0.11758,-0.02138c0.03563,-0.01425 0.0677,-0.03919 0.0962,-0.07482c0.05701,-0.07126 0.10333,-0.24585 0.13896,-0.52377c0.03563,-0.27792 0.07126,-0.74112 0.10689,-1.3896v-0.13896M303.02841,186.7816l0.85514,0.13896c-0.14965,0.36343 -0.34063,0.70691 -0.57294,1.03044c-0.23089,0.32495 -0.52092,0.62639 -0.87011,0.90431c-0.07126,-0.09264 -0.16889,-0.19954 -0.29289,-0.32068c-0.12542,-0.12114 -0.23445,-0.21022 -0.32709,-0.26723c0.2993,-0.21379 0.54871,-0.45251 0.74825,-0.71618c0.19953,-0.26367 0.35274,-0.52021 0.45964,-0.76963M302.75049,188.03224h0.76963v1.87061h-0.76963v-1.87061M306.10691,189.96699l1.01548,-0.27792c0.09264,0.1354 0.18386,0.28861 0.27365,0.45964c0.08837,0.17103 0.15392,0.32068 0.19668,0.44895l-1.06892,0.2993c-0.03563,-0.12827 -0.09264,-0.28148 -0.17103,-0.45964c-0.07839,-0.17815 -0.16034,-0.33493 -0.24585,-0.47033zM317.48025,189.50736h3.92295v1.03685h-3.92295v-1.03685M318.86985,190.11664c0.22091,0.6271 0.5081,1.22214 0.86155,1.7851c0.35203,0.56296 0.77247,1.05965 1.26133,1.49008c0.48743,0.43184 1.03044,0.77248 1.62904,1.02189c-0.08552,0.07126 -0.17816,0.16533 -0.27792,0.28219c-0.09977,0.1183 -0.19383,0.23802 -0.28219,0.35916c-0.08979,0.12114 -0.16319,0.2316 -0.2202,0.33136c-0.64135,-0.30642 -1.21287,-0.70905 -1.71455,-1.20789c-0.50311,-0.49883 -0.94137,-1.07106 -1.31478,-1.71669c-0.37484,-0.6442 -0.68696,-1.34399 -0.93638,-2.09936l0.9941,-0.24585M321.11459,189.50736h0.21378l0.21379,-0.03207l0.72687,0.22447c-0.14252,0.86227 -0.37911,1.65826 -0.70977,2.38798c-0.33208,0.73114 -0.75609,1.37962 -1.27202,1.94544c-0.51736,0.56724 -1.13591,1.03614 -1.85565,1.4067c-0.08552,-0.1354 -0.2031,-0.28719 -0.35275,-0.45536c-0.14965,-0.16675 -0.29217,-0.30357 -0.42757,-0.41047c0.49883,-0.23516 0.94421,-0.51878 1.33615,-0.85086c0.39194,-0.33065 0.73257,-0.70478 1.02189,-1.12237c0.2879,-0.41617 0.52449,-0.86654 0.70977,-1.35112c0.18528,-0.48458 0.31711,-0.99054 0.3955,-1.51787v-0.22447M320.82598,185.79819h1.17581c0,0 -0.00142,0.05487 -0.00427,0.16462c-0.00428,0.11117 -0.00998,0.20238 -0.01711,0.27364c-0.02138,0.75537 -0.06199,1.31478 -0.12186,1.67821c-0.06129,0.36343 -0.15606,0.61285 -0.28433,0.74825c-0.11402,0.12827 -0.24728,0.21521 -0.39978,0.26082c-0.15392,0.04703 -0.32709,0.08124 -0.5195,0.10262c-0.18528,0.00713 -0.429,0.01069 -0.73114,0.01069c-0.30357,0 -0.62638,-0.00713 -0.96844,-0.02138c-0.00713,-0.14252 -0.03706,-0.30286 -0.08979,-0.48102c-0.05416,-0.17815 -0.12043,-0.33136 -0.19882,-0.45964c0.21379,0.01425 0.41902,0.02636 0.6157,0.03634c0.19526,0.0114 0.36985,0.01853 0.52377,0.02138c0.1525,0.00428 0.26794,0.00641 0.34633,0.00641c0.10689,0 0.1924,-0.0057 0.25654,-0.0171c0.06414,-0.00998 0.12114,-0.03635 0.17103,-0.0791c0.04988,-0.05701 0.08908,-0.16248 0.11758,-0.3164c0.02851,-0.1525 0.05345,-0.37341 0.07482,-0.66273c0.02138,-0.2879 0.0392,-0.65632 0.05345,-1.10527v-0.16034M312.52045,190.91833c0.3278,-0.07126 0.69694,-0.15678 1.1074,-0.25654c0.40904,-0.09977 0.84017,-0.20665 1.2934,-0.32067c0.4518,-0.11402 0.90217,-0.2316 1.35112,-0.35275l0.13896,1.11168c-0.61997,0.17815 -1.24707,0.35417 -1.8813,0.52805c-0.63423,0.1753 -1.21501,0.33065 -1.74235,0.46605l-0.26723,-1.17582M312.6701,187.49778h3.64503v1.11168h-3.64503v-1.11168M314.07039,185.42407h1.16513v8.66896c0,0.30642 -0.03705,0.54301 -0.11116,0.70977c-0.07554,0.16817 -0.20595,0.29502 -0.39123,0.38054c-0.18528,0.09264 -0.42187,0.15107 -0.70977,0.1753c-0.28932,0.02565 -0.64777,0.03848 -1.07534,0.03848c-0.02138,-0.14965 -0.06556,-0.33136 -0.13255,-0.54515c-0.06841,-0.21379 -0.14181,-0.3955 -0.2202,-0.54515c0.26367,0.00713 0.51522,0.01069 0.75466,0.01069c0.23801,0 0.39622,0 0.4746,0c0.09264,0 0.15677,-0.01639 0.1924,-0.04917c0.03563,-0.03136 0.05345,-0.09335 0.05345,-0.18599v-8.65828M316.66787,185.79819h4.51086v1.06892h-3.3778v8.49794h-1.13306zM324.42825,187.15573h3.27091v7.14041h-3.27091v-1.01548h2.22336v-5.12015h-2.22336v-1.00479M323.75483,187.15573h1.04755v7.95279h-1.04755v-7.95279M324.37481,190.04182h2.80058v0.9941h-2.80058v-0.9941M325.30477,185.41338l1.25064,0.19241c-0.11402,0.34918 -0.23517,0.69979 -0.36344,1.05182c-0.12827,0.35346 -0.24585,0.65489 -0.35274,0.90431l-0.91928,-0.21378c0.04988,-0.17815 0.1019,-0.38125 0.15606,-0.60929c0.05273,-0.22804 0.10048,-0.45821 0.14324,-0.69052c0.04276,-0.23089 0.07127,-0.44253 0.08552,-0.63494M329.1422,187.09159h3.1747v1.04755h-3.1747v-1.04755M331.91072,187.09159h1.06892c0,0 0,0.03349 0,0.10048c0,0.06841 0,0.14323 0,0.22447c0,0.08266 -0.00356,0.14894 -0.01069,0.19882c-0.03563,1.21144 -0.07269,2.23761 -0.11117,3.0785c-0.0399,0.84089 -0.08622,1.53212 -0.13896,2.07371c-0.05416,0.54159 -0.11687,0.96346 -0.18813,1.26561c-0.07126,0.30357 -0.1639,0.52662 -0.27792,0.66914c-0.14252,0.19241 -0.28861,0.32424 -0.43826,0.3955c-0.14965,0.07126 -0.33136,0.12471 -0.54515,0.16034c-0.19241,0.02138 -0.43825,0.03206 -0.73755,0.03206c-0.2993,0 -0.60572,-0.00713 -0.91928,-0.02138c-0.00713,-0.15678 -0.04418,-0.34205 -0.11117,-0.55584c-0.06841,-0.21379 -0.15962,-0.39907 -0.27364,-0.55584c0.34918,0.02851 0.66986,0.04632 0.96203,0.05345c0.29217,0.00713 0.50595,0.01069 0.64135,0.01069c0.10689,0 0.19455,-0.01283 0.26296,-0.03848c0.06699,-0.02423 0.13611,-0.07197 0.20737,-0.14323c0.08552,-0.09977 0.16034,-0.29431 0.22448,-0.58363c0.06414,-0.2879 0.11758,-0.69551 0.16033,-1.22285c0.04276,-0.52734 0.08409,-1.19719 0.124,-2.00958c0.03848,-0.81238 0.07197,-1.78154 0.10048,-2.90747v-0.22448M329.22772,185.41338l1.10099,0.25654c-0.1354,0.52734 -0.29716,1.04897 -0.48529,1.5649c-0.18956,0.51736 -0.39835,1.00407 -0.62639,1.46015c-0.22804,0.45608 -0.4632,0.85514 -0.70549,1.19719c-0.07126,-0.06414 -0.1639,-0.13896 -0.27792,-0.22447c-0.11402,-0.08552 -0.2316,-0.1696 -0.35274,-0.25227c-0.12114,-0.08124 -0.22447,-0.14324 -0.30999,-0.18599c0.23516,-0.30642 0.45821,-0.66487 0.66914,-1.07533c0.20951,-0.40904 0.39835,-0.84873 0.56653,-1.31905c0.16675,-0.47033 0.30714,-0.94421 0.42116,-1.42167M328.71464,190.08457l0.89789,-0.50239c0.17815,0.24229 0.37056,0.51094 0.57722,0.80597c0.20666,0.29645 0.4012,0.5815 0.58363,0.85514c0.181,0.27507 0.32495,0.5195 0.43185,0.73328l-0.97272,0.5986c-0.09977,-0.22091 -0.23516,-0.47389 -0.40619,-0.75894c-0.17103,-0.28505 -0.35417,-0.57936 -0.54943,-0.88293c-0.19668,-0.30215 -0.3841,-0.58506 -0.56225,-0.84873zM340.28038,185.42407h1.07961v7.51453h-1.07961v-7.51453M337.05224,189.75321l5.60116,-2.37301l0.42757,0.98341l-5.60116,2.40507l-0.42757,-1.01548M338.14254,186.45024h1.0903v6.99076c0,0.19953 0.01781,0.3506 0.05345,0.45322c0.03563,0.10404 0.11046,0.17388 0.22448,0.20951c0.11402,0.03563 0.28148,0.05345 0.50239,0.05345c0.06414,0 0.1696,0 0.3164,0c0.14537,0 0.3107,0 0.49598,0c0.18528,0 0.3727,0 0.56226,0c0.18813,0 0.35916,0 0.51308,0c0.1525,0 0.26438,0 0.33564,0c0.19953,0 0.34918,-0.03777 0.44895,-0.11331c0.09977,-0.07411 0.17459,-0.21093 0.22447,-0.41047c0.04988,-0.19953 0.08552,-0.48815 0.10689,-0.86583c0.12827,0.09264 0.29075,0.17816 0.48743,0.25655c0.19526,0.07839 0.37127,0.13183 0.52805,0.16033c-0.04988,0.50595 -0.13183,0.90289 -0.24585,1.19078c-0.11402,0.28932 -0.28505,0.49598 -0.51309,0.61997c-0.22804,0.12542 -0.54515,0.18813 -0.95134,0.18813c-0.07126,0 -0.18671,0 -0.34633,0c-0.16105,0 -0.34491,0 -0.55157,0c-0.20666,0 -0.41118,0 -0.61356,0c-0.20381,0 -0.38552,0 -0.54515,0c-0.16105,0 -0.27364,0 -0.33778,0c-0.45608,0 -0.81595,-0.04989 -1.07961,-0.14965c-0.26367,-0.09977 -0.44681,-0.27649 -0.54943,-0.53018c-0.10404,-0.25226 -0.15606,-0.61 -0.15606,-1.0732v-6.98007M342.43961,187.50847h-0.08551l0.21378,-0.16033l0.21379,-0.13896l0.79101,0.28861l-0.04276,0.1924c0,0.50595 -0.00142,0.97058 -0.00427,1.39388c-0.00428,0.42472 -0.00784,0.80098 -0.01069,1.12878c-0.00428,0.3278 -0.0114,0.60216 -0.02138,0.82307c-0.0114,0.22091 -0.02423,0.38481 -0.03848,0.4917c-0.02138,0.24229 -0.07838,0.429 -0.17103,0.56012c-0.09264,0.13255 -0.22448,0.22732 -0.3955,0.28433c-0.14965,0.06414 -0.32567,0.10119 -0.52805,0.11116c-0.20381,0.0114 -0.38766,0.01711 -0.55157,0.01711c-0.01425,-0.14252 -0.04418,-0.30856 -0.08979,-0.49812c-0.04703,-0.18813 -0.09905,-0.34277 -0.15606,-0.46391c0.09977,0.00713 0.20666,0.01069 0.32068,0.01069c0.11402,0 0.19597,0 0.24585,0c0.07126,0 0.12828,-0.01639 0.17103,-0.04917c0.04276,-0.03136 0.07126,-0.09691 0.08551,-0.19668c0.01425,-0.05701 0.02494,-0.18029 0.03207,-0.36985c0.00713,-0.18813 0.01282,-0.43897 0.0171,-0.75252c0.00285,-0.31355 0.00428,-0.69337 0.00428,-1.13947c0,-0.44467 0,-0.95562 0,-1.53284M334.0058,187.93604h3.49538v1.07961h-3.49538v-1.07961M335.28851,185.56303h1.07961v7.04421h-1.07961v-7.04421M333.87753,192.69275c0.29217,-0.10689 0.6328,-0.2373 1.02189,-0.39123c0.38766,-0.1525 0.79742,-0.31996 1.22926,-0.50239c0.43042,-0.181 0.86298,-0.36059 1.29767,-0.53874l0.25654,1.01548c-0.57009,0.27792 -1.14874,0.55371 -1.73593,0.82735c-0.58862,0.27507 -1.12522,0.52306 -1.6098,0.74397zM352.02785,187.41227l1.07961,0.43826c-0.45608,0.75537 -0.98341,1.47868 -1.58201,2.16992c-0.5986,0.69124 -1.23425,1.32689 -1.90696,1.90696c-0.67413,0.5815 -1.35325,1.08959 -2.03736,1.52428c-0.06414,-0.07839 -0.14965,-0.17459 -0.25654,-0.28861c-0.10689,-0.11402 -0.21735,-0.22447 -0.33137,-0.33136c-0.11402,-0.10689 -0.21734,-0.1924 -0.30999,-0.25654c0.70549,-0.39194 1.3896,-0.85514 2.05233,-1.3896c0.66273,-0.53446 1.27559,-1.12237 1.83855,-1.76372c0.56296,-0.64135 1.04755,-1.31121 1.45373,-2.00958M347.1108,188.44912l0.80169,-0.68411c0.45608,0.35631 0.94279,0.74254 1.46015,1.15871c0.51593,0.41759 1.02902,0.84374 1.53925,1.27843c0.50881,0.43469 0.98412,0.85656 1.42594,1.2656c0.44182,0.41047 0.81238,0.78316 1.11168,1.11809l-0.89789,0.85514c-0.27792,-0.34206 -0.63067,-0.72188 -1.05824,-1.13948c-0.42757,-0.41617 -0.89077,-0.85086 -1.3896,-1.30409c-0.49883,-0.4518 -1.00479,-0.89504 -1.51787,-1.32974c-0.51308,-0.43469 -1.00479,-0.84089 -1.47511,-1.21858M354.25121,185.92646v1.10099h-7.88865v6.96938h8.17726v1.10099h-9.29963v-9.17136z" fill="#ffffff" fill-rule="nonzero" stroke-width="1"/></g></g></svg>