<svg version="1.1" xmlns="http://www.w3.org/2000/svg" xmlns:xlink="http://www.w3.org/1999/xlink" width="208" height="32" viewBox="0,0,208,32"><g transform="translate(-240,-164)"><g stroke-miterlimit="10"><path d="M240,196v-32h208v32z" fill="none" fill-rule="nonzero" stroke="none" stroke-width="0" stroke-linecap="butt"/><path d="M291.98272,174.29433h6.75889v13.247c0,0.71336 -0.0742,1.25194 -0.2226,1.61575c-0.1484,0.36381 -0.41147,0.61348 -0.78921,0.74902c-0.37774,0.13554 -0.93086,0.20331 -1.65937,0.20331h-2.54976l-0.30354,-1.62645h2.38787c0.48567,0 0.8398,-0.03567 1.0624,-0.107c0.2226,-0.07134 0.371,-0.20687 0.4452,-0.40661c0.0742,-0.19974 0.1113,-0.52075 0.1113,-0.96303v-11.08553h-5.24117c-0.02698,1.0843 -0.13491,2.0616 -0.32378,2.93189c0.89039,0.91309 2.54976,2.69648 4.9781,5.35016l-1.07252,1.28404c-1.06577,-1.22697 -2.55651,-2.88195 -4.4722,-4.96495c-0.39123,0.91309 -0.93761,1.80122 -1.63913,2.66438c-0.70152,0.86316 -1.6054,1.75842 -2.71165,2.68578l-1.01181,-1.39104c1.21417,-0.9987 2.15853,-1.92606 2.83307,-2.78208c0.67454,-0.85603 1.15346,-1.73345 1.43677,-2.63228c0.28331,-0.89883 0.43845,-1.94746 0.46543,-3.14589h-5.24117v14.40263h-1.53795v-16.02908h6.77912v-3.2743h1.51771zM320.4348,181.07833v1.45524h-2.08433l-0.12142,3.3171h1.82126v1.47664h-1.86173l-0.02024,0.38521c-0.04047,0.65629 -0.15177,1.16277 -0.3339,1.51945c-0.18213,0.35668 -0.46543,0.60992 -0.84992,0.75972c-0.38449,0.1498 -0.92075,0.22471 -1.60878,0.22471h-3.01519l-0.30354,-1.49804h2.83307c0.67454,0 1.14334,-0.0963 1.40642,-0.28891c0.26307,-0.19261 0.4081,-0.54572 0.43508,-1.05933v-0.0428h-9.08605l0.5059,-4.79374h-1.57842v-1.45524h1.72008l0.4452,-4.25873c-0.40472,0.54215 -0.71501,0.94163 -0.93086,1.19844l-1.03205,-1.15563c0.74199,-0.87029 1.44689,-1.86186 2.11468,-2.97469c0.66779,-1.11283 1.2108,-2.19 1.62901,-3.2315l1.35582,0.49221c-0.22934,0.55642 -0.49241,1.13423 -0.78921,1.73345h8.86345v1.45524h-9.63243c-0.43171,0.75616 -0.82294,1.38391 -1.1737,1.88326h9.40983l-0.16189,4.85795zM360.48222,173.88772l-1.6796,5.45716c0.71501,0.98443 1.21417,1.85829 1.49748,2.62158c0.28331,0.76329 0.42496,1.57295 0.42496,2.42897c0,1.2127 -0.24283,2.07586 -0.7285,2.58948c-0.48567,0.51362 -1.30186,0.77042 -2.44858,0.77042h-1.15346l-0.30354,-1.51945h1.05228c0.79596,0 1.35245,-0.15337 1.66949,-0.46011c0.31703,-0.30674 0.47555,-0.85246 0.47555,-1.63715c0,-0.68482 -0.15852,-1.38391 -0.47555,-2.09726c-0.31703,-0.71336 -0.81957,-1.50518 -1.5076,-2.37547l1.63913,-5.79957h-3.39968v16.7139h-1.43677v-18.29755h6.3744zM249.42601,183.04719l2.81283,3.14589l-0.82968,1.07003l-1.98315,-2.37547v5.64977h-1.21417v-5.82097c-0.75548,1.49804 -1.6796,2.91049 -2.77236,4.23733l-0.70827,-1.43384c0.64756,-0.67055 1.25464,-1.43384 1.82126,-2.28987c0.56661,-0.85603 1.04554,-1.71919 1.43677,-2.58948h-1.98315v-5.86378h2.20574v-2.07586h-2.46882v-1.45524h2.46882v-2.39687h1.21417v2.39687h2.50929v1.45524h-2.50929v2.07586h2.18551v5.86378h-2.18551zM330.87668,170.91303h1.55819v4.19453h6.94101v8.81706h-6.94101v6.5914h-1.55819v-6.5914h-6.8803v-8.81706h6.8803zM272.71787,173.75931h5.86849v8.13224h-12.80951c-0.05396,1.36964 -0.16864,2.53241 -0.34402,3.4883c-0.17538,0.9559 -0.43508,1.83689 -0.77909,2.64298c-0.34402,0.80609 -0.81282,1.67995 -1.40642,2.62158l-1.43677,-0.94163c0.68803,-1.01296 1.19731,-1.94389 1.52783,-2.79278c0.33052,-0.84889 0.55987,-1.82975 0.68803,-2.94259c0.12816,-1.11283 0.19224,-2.61088 0.19224,-4.49413v-5.71397h6.71841l-1.13323,-2.52528l1.59866,-0.51362zM252.76499,185.85068v-8.58166l-0.93086,-0.72762c0.53963,-0.77042 1.06915,-1.67995 1.58854,-2.72858c0.5194,-1.04863 0.92749,-2.06516 1.22429,-3.04959l1.27488,0.29961c-0.21585,0.65629 -0.40472,1.1913 -0.56661,1.60505h3.09614v1.32684l-1.3963,2.67508h1.69984v9.15947h-1.19394v-7.72563h-3.60204v7.74703zM352.5294,174.89355h-1.51771c-0.16189,1.32684 -0.371,2.57521 -0.62732,3.74511h2.73189v1.54085h-10.13833v-1.54085h2.59023c-0.25632,-1.62645 -0.49241,-2.87482 -0.70827,-3.74511h-1.37606v-1.51945h3.94606c-0.17538,-0.75616 -0.37774,-1.45524 -0.60709,-2.09726l1.49748,-0.38521c0.26982,0.85603 0.49916,1.68352 0.68803,2.48247h3.5211zM259.82742,189.21058l-0.89039,1.17704c-0.63407,-0.74189 -1.69984,-1.94032 -3.19732,-3.59531c-0.28331,0.61348 -0.68466,1.2127 -1.20405,1.79765c-0.5194,0.58495 -1.23104,1.24124 -2.13492,1.96886l-0.89039,-1.15563c1.0253,-0.78469 1.79428,-1.49448 2.30693,-2.12936c0.51265,-0.63489 0.86341,-1.28404 1.05228,-1.94746c0.18887,-0.66342 0.28331,-1.47308 0.28331,-2.42897v-3.74511h1.23441v3.76651c0,0.97016 -0.06745,1.80479 -0.20236,2.50388l1.47724,1.54085c1.06577,1.07003 1.78753,1.81905 2.16527,2.24707zM265.81733,179.13087v1.17704h11.17038v-5.00775h-11.17038zM345.56815,188.76116v1.43384h-1.41653v-8.06804h7.73022v6.6342zM309.20372,185.85068h7.58857l0.04047,-0.79182c0.05396,-0.97016 0.08769,-1.81192 0.10118,-2.52528h-7.36597zM337.79745,176.7768h-5.36259v5.49997h5.36259zM330.87668,176.7768h-5.30188v5.49997h5.30188zM317.1363,177.67563h-7.04219l-0.36425,3.4027h7.26479c0.09444,-1.95459 0.14165,-3.08883 0.14165,-3.4027zM243.31469,190.28061l-1.3963,-0.27821l1.59866,-7.78983l1.3963,0.36381zM304.26609,190.40901l-1.45701,-0.47081l1.96291,-7.36182l1.37606,0.44941c-0.10793,0.39948 -0.68803,2.66081 -1.74031,6.784zM345.56815,187.30592h4.89716v-3.65951h-4.89716zM349.63562,174.89355h-3.33897c0.35076,1.76912 0.58685,3.01749 0.70827,3.74511h2.00338c0.24283,-1.11283 0.45194,-2.3612 0.62732,-3.74511zM306.67419,179.19508l-0.87016,1.34824c-1.64588,-1.51231 -2.73863,-2.48247 -3.27826,-2.91049l0.87016,-1.24124zM307.24081,174.08032l-0.82968,1.26264c-0.98483,-0.85603 -2.07084,-1.76199 -3.25803,-2.71788l0.87016,-1.21984c0.75548,0.59922 1.828,1.49091 3.21755,2.67508zM245.29783,179.36628l-0.89039,1.07003c-1.28163,-1.45524 -2.18551,-2.45394 -2.71165,-2.99609l0.84992,-1.09143c0.82294,0.82749 1.74031,1.83332 2.75212,3.01749zM255.59805,176.6698l1.3963,-2.65368h-2.22598c-0.37774,0.87029 -0.84992,1.75485 -1.41653,2.65368zM245.41925,174.27293l-0.91063,1.15563c-1.07926,-1.2555 -1.92244,-2.21853 -2.52952,-2.88909l0.89039,-1.07003zM314.89009,184.69504l-0.84992,1.11283c-0.2968,-0.28534 -0.70489,-0.64202 -1.22429,-1.07003c-0.5194,-0.42801 -0.98146,-0.79896 -1.38618,-1.11283l0.76898,-1.07003c0.93086,0.71336 1.828,1.42671 2.69141,2.14006zM311.79395,178.80987l0.76898,-1.09143c1.18719,0.91309 2.0506,1.61218 2.59023,2.09726l-0.80945,1.15563c-0.7285,-0.65629 -1.57842,-1.37678 -2.54976,-2.16146zM248.21184,181.35654v-3.2529h-1.15346v3.2529zM249.42601,178.10364v3.2529h1.09275v-3.2529z" fill="#ffffff" fill-rule="evenodd" stroke="#ffffff" stroke-width="0.5" stroke-linecap="round"/></g></g></svg>