<svg version="1.1" xmlns="http://www.w3.org/2000/svg" xmlns:xlink="http://www.w3.org/1999/xlink" width="100" height="100" viewBox="0,0,100,100"><g transform="translate(-190,-130)"><g stroke-miterlimit="10"><path d="M190,230v-100h100v100z" fill="none" fill-rule="nonzero" stroke="#959196" stroke-width="0" stroke-linecap="butt"/><path d="M224.41976,190.62825l0.06737,0.97692l-2.42546,0.30318v3.67188h-2.25703v-3.3687c-6.35561,0.74111 -10.12856,1.21273 -11.31883,1.41485l-0.23581,-2.15597l1.75172,-0.20212l1.14536,-0.13475v-11.79045h-2.89708v-2.05491h29.44244v2.05491h-15.63077v10.44297l2.29072,-0.30318zM271.75,181.22958l-0.87586,2.56021c-1.93139,-0.67374 -3.63258,-1.37555 -5.10358,-2.10544c-1.471,-0.72988 -2.80164,-1.55522 -3.99191,-2.47599c-2.2458,1.66189 -5.07551,3.21149 -8.48912,4.64881l-1.11167,-2.25703c3.12166,-1.21273 5.71556,-2.53775 7.7817,-3.97507c-1.32502,-1.28011 -2.58267,-2.8634 -3.77294,-4.74987c-0.78603,1.05553 -1.75172,2.21211 -2.89708,3.46976l-1.31379,-1.75172c1.36994,-1.5496 2.6332,-3.20588 3.78979,-4.96883c1.15659,-1.76295 2.02683,-3.46415 2.61074,-5.10358l2.05491,0.74111c-0.33687,0.89832 -0.76357,1.85279 -1.28011,2.8634h10.13979v2.35809c-1.63943,2.85217 -3.51468,5.24394 -5.62573,7.17533c2.02122,1.32502 4.71618,2.5153 8.08488,3.57082zM247.59642,176.61446l-5.08674,0.7748l-0.47162,-2.29072c1.70681,-2.31317 3.67188,-5.87277 5.89523,-10.67878l2.02122,0.94324c-2.17843,4.55897 -3.85155,7.70309 -5.01936,9.43236l4.00875,-0.50531c0.67374,-1.21273 1.23519,-2.27949 1.68435,-3.20027l2.12228,1.17905c-1.9763,3.72803 -4.31194,7.42237 -7.0069,11.08302l5.72679,-0.90955l0.06737,2.35809l-8.48912,1.34748l-0.47162,-2.45915c1.75172,-2.11105 3.42484,-4.46914 5.01936,-7.07427zM237.7935,192.95265l-0.97692,2.29072c-2.73988,-1.05553 -5.00813,-2.29072 -6.80477,-3.70557c-1.66189,1.41485 -3.70557,2.68373 -6.13103,3.80663l-1.11167,-2.15597c2.22334,-0.8534 4.09858,-1.8977 5.62573,-3.13289c-0.83095,-0.87586 -1.57768,-1.84717 -2.24019,-2.91393c-0.66251,-1.06675 -1.29695,-2.2851 -1.90332,-3.65504v-2.08859h11.45358v2.25703c-0.94324,2.38055 -2.26826,4.48037 -3.97507,6.29947c1.52714,1.1229 3.54836,2.12228 6.06366,2.99814zM212.32613,175.30066v-9.53342h21.29019v9.53342zM231.22454,171.42666h-16.50663v1.92016h16.50663zM214.7179,169.64125h16.50663v-1.88647h-16.50663zM254.1317,191.09987l0.60637,-2.29072c1.16782,0.33687 4.28948,1.28011 9.36499,2.82971l4.37931,1.34748l-0.80849,2.35809c-1.93139,-0.67374 -4.27264,-1.44293 -7.02374,-2.30756c-2.7511,-0.86463 -4.92392,-1.5103 -6.51844,-1.937zM251.90836,191.40305l-9.90398,1.71804l-0.30318,-2.56021l10.07241,-1.8191zM256.79297,185.20464l0.64005,-2.3244c4.64881,1.34748 7.8603,2.29072 9.63448,2.82971l-0.7748,2.35809c-1.23519,-0.40424 -2.77356,-0.88709 -4.61512,-1.44854c-1.84156,-0.56145 -3.46976,-1.03307 -4.88462,-1.41485zM266.52851,170.48342h-8.69125l-0.2695,0.43793c1.21273,2.13351 2.61636,3.89646 4.21088,5.28886c1.77418,-1.52714 3.35747,-3.43607 4.74987,-5.72679zM233.14469,183.4866h-6.43422c0.87586,2.02122 1.98753,3.70557 3.33501,5.05305c1.36994,-1.48223 2.40301,-3.16658 3.0992,-5.05305zM213.4378,187.96698v2.89708l6.36684,-0.7748v-2.12228zM219.80464,186.18156v-2.52653h-6.36684v2.52653zM213.4378,181.86963h6.36684v-2.52653h-6.36684z" fill="#ff0000" fill-rule="evenodd" stroke="#ff0000" stroke-width="0.5" stroke-linecap="round"/></g></g></svg>