<svg version="1.1" xmlns="http://www.w3.org/2000/svg" xmlns:xlink="http://www.w3.org/1999/xlink" width="100" height="100" viewBox="0,0,100,100"><g transform="translate(-190,-130)"><g stroke-linecap="round" stroke-miterlimit="10"><path d="M190,230v-100h100v100z" fill="none" fill-rule="nonzero" stroke="none" stroke-width="0.333" stroke-linejoin="round" opacity="0.988"/><path d="M217.74983,186.81681l-1.78562,1.11235c-0.9172,-1.79538 -1.76611,-3.42488 -2.54671,-4.8885c-1.11235,2.53695 -2.63452,5.15196 -4.56651,7.84502l-1.28799,-2.10762c1.99053,-2.59549 3.53221,-5.30808 4.62505,-8.13775c-0.3903,-0.70254 -0.67327,-1.22944 -0.8489,-1.58071c-1.22944,-2.28325 -2.3418,-4.32257 -3.33706,-6.11795l1.66853,-1.05381c0.60496,1.01478 1.5612,2.7321 2.8687,5.15196l0.5269,0.96599c0.62448,-2.22471 1.14163,-4.87875 1.55144,-7.96211h-6.79122v-2.16616h8.95738v2.16616c-0.48787,3.94203 -1.27823,7.44497 -2.37107,10.50882c0.89769,1.61974 2.01004,3.70785 3.33706,6.26431zM231.44935,183.83101l2.0198,0.46836l-0.02927,1.25872l-0.08782,2.42962c-0.03903,0.80011 -0.161,1.41484 -0.36591,1.84417c-0.20491,0.42933 -0.54154,0.73669 -1.0099,0.92208c-0.46836,0.18539 -1.14163,0.27809 -2.0198,0.27809h-2.16616c-1.05381,0 -1.80026,-0.22442 -2.23934,-0.67327c-0.43909,-0.44885 -0.65863,-1.2392 -0.65863,-2.37107v-4.77141c-0.64399,1.71732 -1.61974,3.27852 -2.92725,4.6836c-1.3075,1.40508 -3.07361,2.81992 -5.29832,4.24451l-1.40508,-1.78562c2.24422,-1.36605 3.97618,-2.69795 5.19587,-3.99569c1.21969,-1.29775 2.08322,-2.72234 2.59061,-4.27378c0.50739,-1.55144 0.79036,-3.46879 0.8489,-5.75204c0.01951,-0.80011 0.03903,-1.78074 0.05854,-2.94188c0.01951,-1.16114 0.02927,-2.14177 0.02927,-2.94188h2.13689l-0.08782,6.17649c-0.05854,1.61974 -0.21467,3.06385 -0.46836,4.33233h1.37581v6.23504c0,0.50739 0.04391,0.87817 0.13173,1.11235c0.08782,0.23418 0.24882,0.3903 0.483,0.46836c0.23418,0.07806 0.59521,0.11709 1.08308,0.11709h0.90745c0.5269,0 0.91233,-0.03903 1.15626,-0.11709c0.24394,-0.07806 0.41469,-0.2293 0.51227,-0.45372c0.09758,-0.22442 0.15612,-0.59033 0.17563,-1.09772c0.03903,-1.09284 0.05854,-2.22471 0.05854,-3.39561zM229.57591,182.83575v-14.13861h-8.95738v14.19715h-2.10762v-16.36332h13.14334v16.30477z" fill="#ff0000" fill-rule="evenodd" stroke="#ff0000" stroke-width="0.45" stroke-linejoin="miter"/><path d="M249.07577,183.77247v-14.81188h-5.76668v14.92897h-1.87344v-17.00731h9.54283v16.89022zM247.14379,170.62912v7.81575c0,2.01004 -0.14636,3.71761 -0.43909,5.12268c1.97101,2.01004 3.69809,3.82494 5.18123,5.44468l-1.43435,1.4929c-1.85392,-2.10762 -3.30779,-3.74688 -4.3616,-4.91778c-0.44885,1.07332 -1.07332,2.06859 -1.87344,2.98579c-0.80011,0.9172 -1.87344,1.93198 -3.21997,3.04434l-1.4929,-1.55144c1.65877,-1.26847 2.87846,-2.4101 3.65906,-3.42488c0.7806,-1.01478 1.31238,-2.12713 1.59535,-3.33706c0.28297,-1.20993 0.42445,-2.82967 0.42445,-4.85923v-7.81575zM257.50625,187.57789v-21.95436h1.84417v22.56908c0,0.81963 -0.10733,1.44899 -0.322,1.88808c-0.21467,0.43909 -0.57569,0.75621 -1.08308,0.95136c-0.50739,0.19515 -1.22944,0.29272 -2.16616,0.29272h-2.40034l-0.40981,-2.0198h2.3418c0.60496,0 1.05869,-0.04391 1.36117,-0.13173c0.30248,-0.08782 0.51715,-0.25369 0.64399,-0.49763c0.12685,-0.24394 0.19027,-0.60984 0.19027,-1.09772zM253.29101,184.97264v-16.8024h1.81489v16.8024zM237.9815,180.43541l1.02454,0.322l0.93672,0.322c-0.15612,0.46836 -0.60009,2.00029 -1.3319,4.59578c-0.73181,2.59549 -1.26359,4.54699 -1.59535,5.8545l-1.99053,-0.67327c0.29272,-0.80011 0.81963,-2.53695 1.58071,-5.2105c0.76108,-2.67355 1.21969,-4.41039 1.37581,-5.2105zM240.08912,176.45435l-1.34653,1.6978c-1.42459,-1.36605 -2.84919,-2.64428 -4.27378,-3.83469l1.28799,-1.60999c2.04907,1.71732 3.49318,2.96628 4.33233,3.74688zM240.6453,169.25332l-1.28799,1.66853c-0.58545,-0.60496 -1.29775,-1.28799 -2.13689,-2.04907c-0.83914,-0.76108 -1.50265,-1.32702 -1.99053,-1.6978l1.20017,-1.60999c1.38556,1.13187 2.79064,2.36131 4.21524,3.68833z" fill="#ff0000" fill-rule="evenodd" stroke="#ff0000" stroke-width="0.45" stroke-linejoin="miter"/><path d="M271.41525,165.00881h2.25398v5.73741h10.04046v12.06026h-10.04046v9.01592h-2.25398v-9.01592h-9.95264v-12.06026h9.95264zM281.42644,173.02947h-7.75721v7.52303h7.75721zM271.41525,173.02947h-7.66939v7.52303h7.66939z" fill="#ff0000" fill-rule="evenodd" stroke="#ff0000" stroke-width="0.45" stroke-linejoin="miter"/></g></g></svg>