<svg version="1.1" xmlns="http://www.w3.org/2000/svg" xmlns:xlink="http://www.w3.org/1999/xlink" width="208" height="32" viewBox="0,0,208,32"><g transform="translate(-239.8,-164.00003)"><g stroke="none" stroke-miterlimit="10"><path d="M243.51644,181.31658v-1.71207l1.29952,-0.76322h13.40781v2.16587h-12.33518c-0.38505,0 -0.74533,0.00963 -1.08087,0.02888c-0.33829,0.022 -0.6202,0.05638 -0.84572,0.10313c-0.22828,0.04951 -0.37679,0.10864 -0.44555,0.17739M250.22034,176.11847h2.24838v10.66436c0,0.57757 -0.06876,1.03412 -0.20628,1.36965c-0.13751,0.33829 -0.41255,0.59682 -0.8251,0.77559c-0.38505,0.19252 -0.85947,0.31216 -1.42329,0.35891c-0.56382,0.04951 -1.22389,0.07426 -1.98023,0.07426c-0.0275,-0.22002 -0.08939,-0.46756 -0.18565,-0.74258c-0.09626,-0.27504 -0.19527,-0.54731 -0.29703,-0.81684c-0.10451,-0.26678 -0.21177,-0.50331 -0.32178,-0.70958c0.53632,0.01376 1.052,0.02337 1.54706,0.02888c0.49506,0.00825 0.83197,0.0055 1.01074,-0.00825c0.16502,0 0.27915,-0.0275 0.34242,-0.08251c0.0605,-0.05501 0.09076,-0.15127 0.09076,-0.28878v-10.62311M244.96036,182.34794l2.22776,0.61883c-0.31629,0.72884 -0.69446,1.45354 -1.13451,2.17413c-0.44005,0.72334 -0.90348,1.40129 -1.39029,2.03386c-0.48956,0.63257 -0.98874,1.18263 -1.49755,1.65019c-0.13751,-0.12377 -0.31904,-0.27915 -0.54456,-0.46618c-0.22828,-0.18427 -0.45931,-0.36304 -0.69309,-0.53632c-0.23378,-0.17053 -0.44005,-0.31079 -0.61883,-0.4208c0.74258,-0.60507 1.44117,-1.36141 2.09574,-2.26902c0.65183,-0.90761 1.17026,-1.83584 1.55531,-2.7847M253.727,183.23493l1.87709,-0.88697c0.49506,0.50881 1.00799,1.0685 1.5388,1.67907c0.52806,0.61332 1.02312,1.2184 1.48517,1.81521c0.45931,0.59957 0.82647,1.14001 1.10151,1.62132l-2.02148,1.052c-0.24752,-0.4813 -0.58856,-1.02862 -1.02312,-1.64194c-0.43179,-0.61057 -0.90486,-1.23627 -1.41916,-1.87709c-0.51706,-0.63807 -1.02999,-1.22526 -1.5388,-1.76158M241.53621,172.92123h17.63642v2.12462h-17.63642v-2.12462M243.51644,181.31658c-0.04126,-0.15127 -0.10589,-0.36441 -0.1939,-0.63945c-0.09076,-0.27504 -0.19115,-0.56106 -0.30116,-0.8581c-0.11001,-0.29428 -0.21315,-0.54456 -0.30941,-0.75084c0.27504,-0.08251 0.54044,-0.2544 0.79622,-0.51568c0.25303,-0.26128 0.54456,-0.61195 0.8746,-1.052c0.17877,-0.20628 0.43043,-0.55694 0.75496,-1.052c0.32178,-0.49506 0.67933,-1.08362 1.07262,-1.76571c0.39055,-0.67933 0.78522,-1.41091 1.18401,-2.19475c0.39879,-0.78384 0.76322,-1.58143 1.09325,-2.39277l2.41341,0.88697c-0.52256,1.12763 -1.10013,2.23463 -1.7327,3.321c-0.63257,1.08638 -1.28165,2.11775 -1.94722,3.09411c-0.66833,0.97636 -1.32566,1.85647 -1.97197,2.64031v0.04126c0,0 -0.08939,0.04401 -0.26816,0.13201c-0.17877,0.09076 -0.37817,0.20078 -0.59819,0.33004c-0.22002,0.13201 -0.41943,0.26678 -0.59819,0.40429c-0.17877,0.13751 -0.26816,0.26128 -0.26816,0.37129zM269.17691,175.93282h2.06274c-0.09626,0.86635 -0.1994,1.77671 -0.30941,2.73106c-0.11001,0.95711 -0.23103,1.90597 -0.36304,2.84658c-0.12927,0.94336 -0.25165,1.83721 -0.36717,2.68157c-0.11827,0.84709 -0.2324,1.59381 -0.34242,2.24013h-2.14525c0.13751,-0.67383 0.27504,-1.44117 0.41255,-2.30202c0.13751,-0.8581 0.27091,-1.75883 0.40017,-2.70219c0.13201,-0.94061 0.25303,-1.88259 0.36304,-2.82596c0.11001,-0.94061 0.20628,-1.83033 0.28878,-2.66919M272.27103,178.32561l1.15513,-0.74258c0.37129,0.28878 0.75634,0.62569 1.15513,1.01074c0.39879,0.38505 0.70821,0.72196 0.92823,1.01074l-1.21702,0.84572c-0.19252,-0.30254 -0.48406,-0.65733 -0.8746,-1.06438c-0.3933,-0.40429 -0.77559,-0.75771 -1.14688,-1.06025M271.71408,182.59548l1.21702,-0.76322c0.41255,0.31629 0.84298,0.68071 1.29128,1.09325c0.44555,0.41255 0.79209,0.78384 1.03962,1.11388l-1.25827,0.86635c-0.23378,-0.31629 -0.57069,-0.69446 -1.01074,-1.13451c-0.44005,-0.44005 -0.86635,-0.83197 -1.2789,-1.17576M269.46569,172.40554h10.66436v2.00086h-10.66436v-2.00086M270.04326,175.93282h7.85903v1.89772h-7.85903v-1.89772M266.57786,180.0583h14.0885v2.00086h-14.0885v-2.00086M268.82624,184.53445h11.30381v1.89772h-11.30381v-1.89772M269.58946,170.23967l2.14525,0.55694c-0.27504,0.8526 -0.60782,1.70108 -0.99836,2.54542c-0.3933,0.84709 -0.80996,1.64194 -1.25002,2.38452c-0.44005,0.74258 -0.88697,1.39579 -1.34078,1.9596c-0.13751,-0.12377 -0.32729,-0.26128 -0.56932,-0.41255c-0.23928,-0.15127 -0.4758,-0.30254 -0.70958,-0.4538c-0.23378,-0.15127 -0.44005,-0.27504 -0.61883,-0.37129c0.46756,-0.49506 0.91036,-1.07675 1.32841,-1.74507c0.4208,-0.66557 0.8031,-1.38066 1.14688,-2.14525c0.34379,-0.76184 0.63257,-1.53468 0.86635,-2.31852M277.26285,175.93282h2.06274c0,0 -0.00275,0.06188 -0.00825,0.18565c-0.00825,0.12377 -0.01238,0.25715 -0.01238,0.40017c0,0.14577 -0.00688,0.26678 -0.02062,0.36304c-0.08251,1.96648 -0.16502,3.63317 -0.24752,5.00008c-0.08251,1.36965 -0.17464,2.49453 -0.27641,3.37464c-0.10451,0.88011 -0.2214,1.56768 -0.35067,2.06274c-0.13201,0.49506 -0.2874,0.8526 -0.46618,1.07262c-0.23378,0.31629 -0.47718,0.53219 -0.73021,0.6477c-0.25578,0.11827 -0.54868,0.20489 -0.87873,0.2599c-0.30254,0.04126 -0.68758,0.06188 -1.15513,0.06188c-0.46756,0 -0.95573,-0.01376 -1.46455,-0.04126c-0.01376,-0.27504 -0.06876,-0.58444 -0.16502,-0.92823c-0.09626,-0.34379 -0.2269,-0.64633 -0.39193,-0.90761c0.4813,0.04126 0.92136,0.06876 1.32015,0.08251c0.39879,0.01376 0.69446,0.02062 0.88697,0.02062c0.17877,0 0.32316,-0.02475 0.43317,-0.07426c0.11001,-0.04676 0.22002,-0.13201 0.33004,-0.25578c0.13751,-0.15127 0.26128,-0.45793 0.37129,-0.91998c0.11001,-0.45931 0.21315,-1.1125 0.30941,-1.9596c0.09626,-0.84434 0.18289,-1.92385 0.2599,-3.2385c0.07426,-1.3119 0.13889,-2.90297 0.1939,-4.77318v-0.43317M262.57615,172.0755l1.23764,-1.5058c0.39879,0.17877 0.82785,0.39193 1.28715,0.63945c0.46206,0.24752 0.90348,0.50194 1.32428,0.76322c0.41805,0.26128 0.75771,0.50194 1.01899,0.72196l-1.29952,1.67081c-0.24752,-0.22002 -0.57344,-0.47168 -0.97774,-0.75496c-0.40705,-0.28054 -0.8416,-0.55556 -1.30365,-0.8251c-0.45931,-0.26678 -0.88835,-0.50331 -1.28715,-0.70958M261.42102,177.97494l1.19639,-1.48517c0.39879,0.17877 0.81409,0.3878 1.2459,0.62707c0.43455,0.24202 0.84709,0.48681 1.23764,0.73433c0.3933,0.24752 0.71371,0.4813 0.96123,0.70133l-1.2789,1.69145c-0.22002,-0.23378 -0.52256,-0.48818 -0.90761,-0.76322c-0.38505,-0.27504 -0.79347,-0.54318 -1.22526,-0.80447c-0.43455,-0.26128 -0.84434,-0.49506 -1.22939,-0.70133M261.99858,187.97922c0.27504,-0.53632 0.58169,-1.16889 0.91998,-1.89772c0.33554,-0.72884 0.67245,-1.5058 1.01074,-2.3309c0.33554,-0.8251 0.6477,-1.63644 0.93648,-2.43403l1.69145,1.19639c-0.24752,0.72884 -0.51843,1.4783 -0.81272,2.24838c-0.29703,0.77008 -0.60094,1.5333 -0.91173,2.28964c-0.30804,0.75634 -0.61332,1.46455 -0.91586,2.12462zM294.13606,170.2603h2.08336v14.50105h-2.08336v-14.50105M287.90658,178.61439l10.80875,-4.57928l0.8251,1.89772l-10.80875,4.64116l-0.8251,-1.9596M290.01058,172.24053h2.10399v13.49031c0,0.38505 0.03438,0.67658 0.10313,0.8746c0.06876,0.20078 0.21315,0.33554 0.43317,0.40429c0.22002,0.06876 0.54318,0.10313 0.96949,0.10313c0.12377,0 0.32729,0 0.61057,0c0.28054,0 0.59957,0 0.95711,0c0.35754,0 0.71921,0 1.085,0c0.36304,0 0.69309,0 0.99012,0c0.29428,0 0.51018,0 0.6477,0c0.38505,0 0.67383,-0.07288 0.86635,-0.21865c0.19252,-0.14301 0.33691,-0.40705 0.43317,-0.79209c0.09626,-0.38505 0.16502,-0.94199 0.20628,-1.67081c0.24752,0.17877 0.56106,0.34379 0.94061,0.49506c0.37679,0.15127 0.71646,0.2544 1.01899,0.30941c-0.09626,0.97636 -0.2544,1.74233 -0.47443,2.29789c-0.22002,0.55831 -0.55006,0.95711 -0.99012,1.19639c-0.44005,0.24202 -1.052,0.36304 -1.83584,0.36304c-0.13751,0 -0.36029,0 -0.66833,0c-0.31079,0 -0.66557,0 -1.06438,0c-0.39879,0 -0.79347,0 -1.18401,0c-0.3933,0 -0.74396,0 -1.052,0c-0.31079,0 -0.52806,0 -0.65183,0c-0.88011,0 -1.57456,-0.09626 -2.08336,-0.28878c-0.50881,-0.19252 -0.86222,-0.53356 -1.06025,-1.02312c-0.20078,-0.48681 -0.30116,-1.17714 -0.30116,-2.07099v-13.46969M298.30279,174.28263h-0.16502l0.41255,-0.30941l0.41255,-0.26816l1.52642,0.55694l-0.08251,0.37129c0,0.97636 -0.00275,1.87297 -0.00825,2.68981c-0.00825,0.81959 -0.01513,1.54568 -0.02062,2.17825c-0.00825,0.63257 -0.022,1.16201 -0.04126,1.58831c-0.022,0.4263 -0.04676,0.74258 -0.07426,0.94886c-0.04126,0.46756 -0.15127,0.82785 -0.33004,1.08087c-0.17877,0.25578 -0.43317,0.43867 -0.76322,0.54868c-0.28878,0.12377 -0.62845,0.19527 -1.01899,0.21452c-0.3933,0.022 -0.74809,0.033 -1.06438,0.033c-0.0275,-0.27504 -0.08526,-0.59544 -0.17327,-0.96123c-0.09076,-0.36304 -0.19115,-0.66145 -0.30116,-0.89523c0.19252,0.01376 0.39879,0.02062 0.61883,0.02062c0.22002,0 0.37817,0 0.47443,0c0.13751,0 0.24752,-0.03163 0.33004,-0.09488c0.08251,-0.0605 0.13751,-0.18702 0.16502,-0.37955c0.0275,-0.11001 0.04813,-0.34792 0.06188,-0.71371c0.01376,-0.36304 0.02475,-0.84709 0.033,-1.45217c0.0055,-0.60507 0.00825,-1.33803 0.00825,-2.19888c0,-0.8581 0,-1.84409 0,-2.95797M282.02777,175.10773h6.74515v2.08336h-6.74515v-2.08336M284.50307,170.52845h2.08336v13.59345h-2.08336v-13.59345M281.78025,184.28692c0.56382,-0.20628 1.22114,-0.45793 1.97197,-0.75496c0.74809,-0.29428 1.5388,-0.61744 2.37215,-0.96949c0.8306,-0.34929 1.66532,-0.69583 2.50416,-1.03962l0.49506,1.9596c-1.10013,0.53632 -2.21676,1.0685 -3.34989,1.59656c-1.13588,0.53081 -2.17138,1.00937 -3.10648,1.43567zM303.08834,173.64318h18.31712v2.16587h-18.31712v-2.16587M309.79224,178.53188h8.00343v2.14525h-8.00343v-2.14525M317.2181,178.53188h2.31026c0,0 -0.00275,0.06188 -0.00825,0.18565c-0.00825,0.12377 -0.01238,0.26128 -0.01238,0.41255c0,0.15127 -0.01376,0.27504 -0.04126,0.37129c-0.12377,1.91147 -0.26128,3.46541 -0.41255,4.66179c-0.15127,1.19639 -0.32316,2.12462 -0.51568,2.7847c-0.19252,0.66007 -0.43317,1.13451 -0.72196,1.42329c-0.28878,0.31629 -0.60094,0.53632 -0.93648,0.66007c-0.33829,0.12377 -0.73433,0.20628 -1.18813,0.24752c-0.38505,0.04126 -0.8966,0.05775 -1.53468,0.04951c-0.64083,-0.0055 -1.30502,-0.022 -1.99261,-0.04951c-0.01376,-0.33004 -0.09626,-0.70133 -0.24752,-1.11388c-0.15127,-0.41255 -0.33691,-0.77008 -0.55694,-1.07262c0.71508,0.06876 1.39992,0.11001 2.05449,0.12377c0.65183,0.01376 1.12901,0.02062 1.43154,0.02062c0.23378,0 0.4263,-0.01788 0.57757,-0.05364c0.15127,-0.033 0.29566,-0.09763 0.43317,-0.1939c0.20628,-0.19252 0.39193,-0.59544 0.55694,-1.20877c0.16502,-0.61057 0.31629,-1.47967 0.4538,-2.6073c0.13751,-1.12763 0.2544,-2.5578 0.35067,-4.2905v-0.35067M308.45146,175.00459h2.47529c-0.05501,1.08638 -0.13751,2.17963 -0.24752,3.27976c-0.11001,1.10013 -0.28878,2.18651 -0.53632,3.25913c-0.24752,1.07262 -0.60507,2.09712 -1.07262,3.07348c-0.46756,0.97636 -1.08638,1.88672 -1.85647,2.73106c-0.77008,0.84709 -1.7327,1.59381 -2.88783,2.24013c-0.16502,-0.28878 -0.40154,-0.60507 -0.70958,-0.94886c-0.31079,-0.34379 -0.61744,-0.62569 -0.91998,-0.84572c1.07262,-0.56382 1.95548,-1.21702 2.64855,-1.9596c0.69583,-0.74258 1.2459,-1.54431 1.65019,-2.40515c0.40705,-0.8581 0.70683,-1.75883 0.89935,-2.70219c0.19252,-0.94061 0.32316,-1.89634 0.39193,-2.86721c0.06876,-0.96811 0.12377,-1.91972 0.16502,-2.85483M310.63797,170.85849l2.16587,-0.8251c0.27504,0.46756 0.55694,0.98324 0.84572,1.54706c0.28878,0.56382 0.50881,1.04512 0.66007,1.44392l-2.26902,0.99012c-0.13751,-0.4263 -0.34379,-0.93511 -0.61883,-1.52642c-0.27504,-0.59132 -0.53632,-1.13451 -0.78384,-1.62957z" fill="#ffffff" stroke-width="1"/><path d="M239.8,196.00004v-32h208v32c0,0 -160.03511,0 -189.9,0c-9.22015,0 -18.1,0 -18.1,0z" fill="none" stroke-width="0"/></g></g></svg>