<svg version="1.1" xmlns="http://www.w3.org/2000/svg" xmlns:xlink="http://www.w3.org/1999/xlink" width="98.314" height="20.3355" viewBox="0,0,98.314,20.3355"><g transform="translate(-240.97096,-169.58904)"><g fill="#ffffff" stroke-miterlimit="10"><path d="M317.79982,179.51027v1.56352h-6.23619v5.57795c0,0.92966 -0.20721,1.58112 -0.62161,1.9544c-0.41441,0.37327 -1.09618,0.55991 -2.04531,0.55991h-2.16562l-0.26068,-1.66916h2.04531c0.41441,0 0.72187,-0.03169 0.9224,-0.09508c0.20052,-0.06339 0.33754,-0.18311 0.41107,-0.35919c0.07352,-0.17607 0.11029,-0.44722 0.11029,-0.81345v-5.15538h-6.7776v-1.58464c0.72187,-1.14094 1.61753,-2.78897 2.68698,-4.94409h-4.15078v-1.58464h4.93281c0.53472,-1.14094 0.97587,-2.15512 1.32344,-3.04252l1.52396,0.63386c-0.21389,0.60569 -0.55477,1.40857 -1.02266,2.40866h10.1664v1.58464h-10.92838c-1.14965,2.35232 -2.03194,4.00739 -2.64687,4.96522h4.8927v-3.6975h1.60417v3.6975zM299.09124,183.52471h-9.96588c-1.01597,1.1832 -2.2592,2.40866 -3.72968,3.67638l9.00338,-0.35919l-2.20573,-2.19737l0.98255,-1.0353c0.57483,0.54934 1.12626,1.0846 1.6543,1.60577c0.52804,0.52117 0.99258,0.97896 1.39362,1.37336c1.44375,1.43674 2.03863,2.0213 1.78463,1.75367l-1.04271,1.20433c-0.22726,-0.25354 -0.64167,-0.69724 -1.24323,-1.3311l-12.39218,0.57047l-0.38099,-1.50013c1.57743,-1.1832 2.96102,-2.43683 4.15078,-3.76089h-5.75494v-1.43674h2.64687v-10.98687h12.39218v10.98687h2.70703zM262.55637,189.31394v-17.93818h15.25962v14.79002c0,0.81697 -0.08689,1.43322 -0.26068,1.84875c-0.17378,0.41553 -0.4612,0.70076 -0.86224,0.85571c-0.40104,0.15494 -0.98924,0.23241 -1.76458,0.23241h-2.48646l-0.28073,-1.60577h2.30599c0.53472,0 0.92574,-0.04226 1.17305,-0.12677c0.24731,-0.08451 0.41441,-0.25002 0.5013,-0.49652c0.08689,-0.2465 0.13034,-0.63738 0.13034,-1.17264v-12.76167h-12.17161v16.37466zM338.79434,173.08718l-1.66432,5.38779c0.70851,0.97192 1.20312,1.83467 1.48385,2.58825c0.28073,0.75359 0.42109,1.55295 0.42109,2.3981c0,1.19729 -0.24062,2.04947 -0.72187,2.55656c-0.48125,0.50709 -1.29002,0.76063 -2.4263,0.76063h-1.14297l-0.30078,-1.50013h1.04271c0.78872,0 1.34015,-0.15142 1.6543,-0.45426c0.31415,-0.30284 0.47122,-0.84162 0.47122,-1.61634c0,-0.67612 -0.15707,-1.36632 -0.47122,-2.0706c-0.31415,-0.70429 -0.81211,-1.48605 -1.49388,-2.34527l1.62422,-5.72585h-3.36875v16.50144h-1.4237v-18.06495h6.3164zM257.86419,179.3835h1.08281v1.30997h-1.08281v3.76089h-3.60937v2.55656c0,0.81697 -0.16376,1.38744 -0.49128,1.71142c-0.32752,0.32397 -0.91905,0.48596 -1.77461,0.48596h-1.62422l-0.24062,-1.37336h1.58411c0.52135,0 0.86558,-0.08099 1.03268,-0.24298c0.1671,-0.16199 0.25065,-0.47539 0.25065,-0.94022v-2.19737h-3.30859v-1.28884h3.30859v-2.47205h-3.62942v-1.30997h3.62942v-2.47205h-2.8875v-0.99304l-0.84219,-0.78176c1.2967,-1.74663 2.28594,-3.47213 2.96771,-5.17651l1.28333,0.33806c-0.14705,0.36623 -0.38099,0.8874 -0.70182,1.56352h3.8901v1.16207l-1.58411,2.55656h2.74713zM248.62018,174.60844v1.16207h-2.62682v1.41562h3.32864v1.14094h-8.10104v-1.14094h3.4289v-1.41562h-2.68698v-1.16207h2.68698v-1.37336h-3.10807v-1.1832h3.10807v-1.9227h1.34349v1.9227h3.10807v1.1832h-3.10807v1.37336zM275.06886,184.81355l-1.16302,1.14094c-1.05608,-1.32406 -2.27925,-2.83123 -3.66953,-4.52152c-1.51059,1.78889 -3.00113,3.34536 -4.47161,4.66942l-0.9625,-1.28884c1.55069,-1.3804 3.02786,-2.89462 4.43151,-4.54265c-1.72448,-2.04243 -3.07465,-3.61299 -4.05052,-4.71168l1.06276,-1.01417c1.2967,1.42266 2.62014,2.92983 3.97031,4.52152c1.21649,-1.54943 2.30599,-3.14112 3.26849,-4.77506l1.26328,0.90853c-1.02934,1.6762 -2.20573,3.3524 -3.52916,5.02861c1.09618,1.26772 2.37951,2.79602 3.85,4.58491zM330.91387,174.08022h-1.50391c-0.16042,1.30997 -0.36762,2.54248 -0.62161,3.6975h2.70703v1.52126h-10.04609v-1.52126h2.56666c-0.25399,-1.60577 -0.48793,-2.83828 -0.70182,-3.6975h-1.36354v-1.50013h3.91015c-0.17378,-0.74654 -0.3743,-1.43674 -0.60156,-2.0706l1.48385,-0.38031c0.26736,0.84514 0.49462,1.66212 0.68177,2.45092h3.48906zM243.4668,189.25056h-1.26328v-9.71916h6.17604v7.81758c0,0.64794 -0.13034,1.10573 -0.39102,1.37336c-0.26068,0.26763 -0.6918,0.40144 -1.29336,0.40144h-1.58411l-0.24062,-1.26772h1.40364c0.3342,0 0.55812,-0.05986 0.67174,-0.17959c0.11363,-0.11973 0.17044,-0.34862 0.17044,-0.68668v-1.14094h-3.64948zM324.01596,187.77155v1.41562h-1.40364v-7.96548h7.65989v6.54987zM294.94046,182.08796v-2.32415h-9.48463v2.32415zM285.45583,176.15082v2.23963h9.48463v-2.23963zM285.45583,174.81972h9.48463v-2.2185h-9.48463zM305.86884,182.1936l1.22318,1.09869c-0.64167,0.95783 -1.39362,1.94383 -2.25586,2.958c-0.86224,1.01417 -1.70108,1.8734 -2.51653,2.57769l-1.04271,-1.37336c0.78872,-0.61977 1.59414,-1.40857 2.41627,-2.3664c0.82213,-0.95783 1.54735,-1.9227 2.17565,-2.89462zM313.06753,183.41906l1.08281,-1.1832c0.6283,0.60569 1.43038,1.41914 2.40625,2.44035c0.97587,1.02122 1.83142,1.92622 2.56666,2.71502l-1.12292,1.26772c-0.6684,-0.7888 -1.49054,-1.70437 -2.4664,-2.74672c-0.97587,-1.04234 -1.798,-1.8734 -2.4664,-2.49317zM324.01596,186.33481h4.8526v-3.61299h-4.8526zM328.04643,174.08022h-3.30859c0.34757,1.74663 0.58151,2.97913 0.70182,3.6975h1.98515c0.24062,-1.09869 0.44783,-2.33119 0.62161,-3.6975zM253.5931,175.58035l1.52396,-2.40866h-2.98776c-0.48125,0.83106 -1.0026,1.63395 -1.56406,2.40866zM247.11628,183.29229h-3.64948v1.45787h3.64948zM243.4668,182.1936h3.64948v-1.43674h-3.64948zM256.62096,179.3835v-2.47205h-2.36614v2.47205zM254.25481,180.69347v2.47205h2.36614v-2.47205z" fill-rule="evenodd" stroke="#ffffff" stroke-width="0.5" stroke-linecap="round"/><path d="" fill-rule="nonzero" stroke="none" stroke-width="1" stroke-linecap="butt"/></g></g></svg>