<svg version="1.1" xmlns="http://www.w3.org/2000/svg" xmlns:xlink="http://www.w3.org/1999/xlink" width="224" height="64" viewBox="0,0,224,64"><g transform="translate(-128,-148)"><g stroke-miterlimit="10"><path d="M128,212v-64h224v64z" fill="none" fill-rule="nonzero" stroke="none" stroke-width="1" stroke-linecap="butt"/><g fill="#e4e600" stroke="none" stroke-width="1" stroke-linecap="butt"><path d="M174,179h158c5.54,0 10,4.46 10,10v7c0,5.54 -4.46,10 -10,10h-158c-5.54,0 -10,-4.46 -10,-10v-7c0,-5.54 4.46,-10 10,-10z" fill-rule="evenodd"/><g fill-rule="nonzero"><path d="M174.216,188.00696h3.4204c0.13672,-0.60547 0.29053,-1.38917 0.46143,-2.3511l1.6553,0.20508c-0.14649,0.75687 -0.30274,1.4722 -0.46875,2.146h4.8779v1.4575h-5.2222c-0.97653,3.9014 -2.05563,7.13627 -3.2373,9.7046l-1.6187,-0.57129c1.2842,-2.84667 2.35353,-5.8911 3.208,-9.1333h-3.0762zM187.18,198.78096c-0.791,0.10254 -1.67967,0.15381 -2.666,0.15381c-1.59667,0 -2.80273,-0.13672 -3.6182,-0.41016c-0.3125,-0.10742 -0.57861,-0.25879 -0.79834,-0.4541c-0.42969,-0.39063 -0.64453,-0.88866 -0.64453,-1.4941c0,-0.62012 0.2002,-1.16699 0.60059,-1.6406l1.3037,0.76904c-0.15137,0.19043 -0.22705,0.40039 -0.22705,0.62988c0,0.39551 0.18066,0.65185 0.54199,0.76904c0.55176,0.17578 1.33789,0.26367 2.3584,0.26367c0.9912,0 1.97997,-0.07324 2.9663,-0.21973zM180.3099,191.52266c1.91407,-0.21973 4.0088,-0.33691 6.2842,-0.35156l0.07324,1.4868c-2.23147,0.00977 -4.2798,0.11475 -6.145,0.31494z"/><path d="M188.716,188.00696h3.4204c0.13672,-0.60547 0.29053,-1.38917 0.46143,-2.3511l1.6553,0.20508c-0.14649,0.75687 -0.30274,1.4722 -0.46875,2.146h3.9478v1.4575h-4.292c-0.97653,3.9014 -2.05563,7.13627 -3.2373,9.7046l-1.6187,-0.57129c1.2842,-2.84667 2.35353,-5.8911 3.208,-9.1333h-3.0762zM201.68,198.78096c-0.791,0.10254 -1.67967,0.15381 -2.666,0.15381c-1.59667,0 -2.80273,-0.13672 -3.6182,-0.41016c-0.3125,-0.10742 -0.57861,-0.25879 -0.79834,-0.4541c-0.42969,-0.39063 -0.64453,-0.88866 -0.64453,-1.4941c0,-0.62012 0.2002,-1.16699 0.60059,-1.6406l1.3037,0.76904c-0.15137,0.19043 -0.22705,0.40039 -0.22705,0.62988c0,0.39551 0.18066,0.65185 0.54199,0.76904c0.55176,0.17578 1.33789,0.26367 2.3584,0.26367c0.9912,0 1.97997,-0.07324 2.9663,-0.21973zM194.8099,191.52266c1.91407,-0.21973 4.0088,-0.33691 6.2842,-0.35156l0.07324,1.4868c-2.23147,0.00977 -4.2798,0.11475 -6.145,0.31494zM199.5047,188.74676c-0.26855,-0.74707 -0.75439,-1.6333 -1.4575,-2.6587l1.1426,-0.41748c0.62012,0.8838 1.11085,1.75293 1.4722,2.6074zM201.5775,188.26336c-0.35156,-0.918 -0.83253,-1.8018 -1.4429,-2.6514l1.0767,-0.39551c0.55664,0.68847 1.04737,1.5283 1.4722,2.5195z"/><path d="M202.901,188.02096h3.4351c0.17578,-0.708 0.34668,-1.47703 0.5127,-2.3071l1.5894,0.20508c-0.15625,0.70313 -0.32227,1.40383 -0.49805,2.1021h7.5v1.4575h-7.8882c-0.38086,1.3428 -0.76659,2.4683 -1.1572,3.3765c1.25973,-0.75193 2.7441,-1.1279 4.4531,-1.1279c1.0596,0 1.96293,0.20264 2.71,0.60791c1.084,0.59571 1.626,1.48194 1.626,2.6587c0,1.64553 -0.979,2.77833 -2.937,3.3984c-1.23047,0.39063 -3.03953,0.62012 -5.4272,0.68848l-0.54199,-1.4575c2.29007,-0.04395 3.97707,-0.23193 5.061,-0.56396c1.3916,-0.42481 2.0874,-1.13281 2.0874,-2.124c0,-0.68847 -0.29053,-1.19383 -0.87158,-1.5161c-0.43945,-0.23926 -1.01805,-0.35889 -1.7358,-0.35889c-0.8252,0 -1.70653,0.14893 -2.644,0.44678c-0.86427,0.27344 -1.6968,0.66164 -2.4976,1.1646l-1.2891,-0.85693c0.57617,-1.39647 1.09131,-2.84177 1.5454,-4.3359h-3.0322z"/><path d="M218.009,199.02196c-0.18555,-1.66013 -0.27832,-3.31053 -0.27832,-4.9512c0,-2.81253 0.20752,-5.48343 0.62256,-8.0127l1.6113,0.16846c-0.39551,2.18747 -0.59326,4.65573 -0.59326,7.4048c0,1.84573 0.10254,3.5718 0.30762,5.1782zM222.4035,187.41996h7.0386v1.5601h-7.0386zM229.9401,198.12096c-0.97653,0.15137 -2.1362,0.22705 -3.479,0.22705c-3.374,0 -5.061,-0.9912 -5.061,-2.9736c0,-0.78613 0.20996,-1.47217 0.62988,-2.0581l1.3843,0.61524c-0.26367,0.37109 -0.39551,0.78856 -0.39551,1.2524c0,0.57129 0.28564,0.96435 0.85693,1.1792c0.63477,0.24414 1.50147,0.36621 2.6001,0.36621c1.18653,0 2.28517,-0.07813 3.2959,-0.23438z"/><path d="M240.43,192.51096v1.0474h3.9917v1.2012h-3.9917v1.0767h4.5923v1.2891h-4.5923v2.5269h-1.5747v-2.5269h-4.2114v-1.2891h4.2114v-1.0767h-3.5815v-1.2012h3.5815v-1.0474h-3.1641v-1.1133h3.1641v-1.1499h-4.3945v-1.1865h4.3945v-1.1279h-3.0908v-1.1572h3.0908v-1.377h1.5747v1.377h3.6621v2.2852h1.2744v1.1865h-1.2744v2.2632zM240.43,191.39766h2.1313v-1.1499h-2.1313zM240.43,189.06126h2.1313v-1.1279h-2.1313zM233.6844,188.87816c-0.61035,-0.83987 -1.34032,-1.6138 -2.1899,-2.3218l1.1352,-1.0693c0.918,0.70313 1.66507,1.44287 2.2412,2.2192zM233.17171,192.68676c-0.708,-0.9326 -1.44773,-1.72607 -2.2192,-2.3804l1.1279,-1.0986c0.78613,0.59571 1.55517,1.35497 2.3071,2.2778zM231.20881,198.52416c0.93747,-1.5332 1.7358,-3.25927 2.395,-5.1782l1.2817,0.90088c-0.61035,1.94333 -1.37695,3.7329 -2.2998,5.3687z"/><path d="M256.37,196.46596c0.9424,0.66893 2.14357,1.24023 3.6035,1.7139l-0.82031,1.4648c-1.53807,-0.60547 -2.8076,-1.30617 -3.8086,-2.1021c-1.03513,0.92287 -2.20947,1.6553 -3.523,2.1973l-1.0254,-1.1572c1.35253,-0.47851 2.51953,-1.14991 3.501,-2.0142c-1.11327,-1.23047 -1.9116,-2.51953 -2.395,-3.8672h-0.28564c-0.02933,1.31833 -0.14652,2.45847 -0.35157,3.4204c-0.25391,1.18653 -0.72997,2.3218 -1.4282,3.4058l-1.1865,-1.084c0.64453,-1.0498 1.06689,-2.2241 1.2671,-3.5229c0.12695,-0.81053 0.19043,-1.72117 0.19043,-2.7319v-4.7534h3.8379v-2.0361h1.5601v2.0361h3.3618l0.76172,0.65918c-0.30273,1.00587 -0.65673,1.92627 -1.062,2.7612l-1.4868,-0.43945c0.32227,-0.52735 0.56153,-1.05715 0.71778,-1.5894h-2.2925v2.5854h2.4316l0.73242,0.62988c-0.58105,1.74313 -1.34765,3.21773 -2.2998,4.4238zM255.2494,195.54311c0.73733,-0.9326 1.2476,-1.87987 1.5308,-2.8418h-3.5083c0.45899,1.03513 1.11815,1.9824 1.9775,2.8418zM253.9457,188.82681h-2.3218v2.5854h2.3218zM248.5038,189.16372c-0.64453,-0.874 -1.43553,-1.6943 -2.373,-2.4609l1.1426,-1.106c0.91307,0.65918 1.73337,1.43311 2.4609,2.3218zM247.8373,192.70132c-0.69827,-0.89847 -1.47707,-1.7017 -2.3364,-2.4097l1.1279,-1.0986c0.84473,0.60059 1.64797,1.36475 2.4097,2.2925zM245.6693,198.49482c0.918,-1.37693 1.731,-3.04687 2.439,-5.0098l1.3257,0.91553c-0.6543,1.94827 -1.4453,3.70853 -2.373,5.2808z"/><path d="M268.83,197.42596l0.0439,1.1133c-2.03127,0.53223 -4.2505,0.94726 -6.6577,1.2451l-0.41748,-1.2744c0.90333,-0.09277 1.5625,-0.16846 1.9775,-0.22705v-1.0913c-0.87893,0.3125 -2.00443,0.62744 -3.3765,0.94482l-0.67382,-1.2451c2.207,-0.33203 3.9697,-0.82277 5.2881,-1.4722h-4.9585v-1.1572h6.2256v-0.70312c-0.19043,0.09277 -0.4541,0.13916 -0.79101,0.13916c-0.44922,0 -0.96435,-0.01465 -1.5454,-0.04395l-0.19776,-0.98144c0.41993,0.06348 0.81786,0.09522 1.1938,0.09522c0.15137,0 0.23926,-0.01465 0.26367,-0.04395c0.01953,-0.02441 0.0293,-0.10742 0.0293,-0.24902v-0.35889h-2.7905v1.582h-1.4722v-4.563h5.7129v3.5669c0,0.30273 -0.07324,0.53955 -0.21972,0.71045h1.4941v0.84961h6.3428v1.1572h-1.7798l1.0474,0.64453c-0.68847,0.50781 -1.41843,0.94971 -2.1899,1.3257c0.8154,0.35645 1.86033,0.65918 3.1348,0.9082l-0.98877,1.3184c-1.29393,-0.36133 -2.36083,-0.76659 -3.2007,-1.2158c-0.53711,-0.28809 -1.03514,-0.61279 -1.4941,-0.97412zM267.1015,195.47036c-0.46875,0.36621 -1.04735,0.72021 -1.7358,1.062v1.5308c1.084,-0.16113 2.16067,-0.36377 3.23,-0.60791l0.20507,-0.05127c-0.7324,-0.60059 -1.2988,-1.24512 -1.6992,-1.9336zM270.0898,196.70086c0.791,-0.47851 1.41843,-0.90575 1.8823,-1.2817h-3.3106c0.39551,0.4834 0.87158,0.91063 1.4282,1.2817zM262.4433,189.88206v0.4248h2.7905v-0.4248zM262.4433,190.99536v0.46143h2.7905v-0.46143zM266.3691,186.97436c-0.10742,0.25391 -0.24658,0.5249 -0.41748,0.81299h1.604v0.93018h-7.5v-0.93018h1.5747c-0.11719,-0.31738 -0.23437,-0.58838 -0.35156,-0.81299h-0.86426v-0.90088h2.6587v-0.67383h1.5308v0.67383h2.6074v0.90088zM264.9116,186.97436h-2.1753c0.09277,0.22949 0.18066,0.50049 0.26367,0.81299h1.5527c0.1123,-0.22461 0.23193,-0.4956 0.35888,-0.81299zM267.7974,188.35136h4.27v-0.44678h-4.27v-2.5049h1.604v0.58594h4.4531v0.82764h-4.4531v0.40283h4.2114v1.8237h-4.2554v0.36621h4.0942v0.67383h-4.0942v0.35889h4.0942v0.67383h-4.0942v0.34424h4.0942v0.39551l0.92285,0.19043c-0.01953,0.69333 -0.16357,1.1401 -0.43212,1.3403c-0.18067,0.13183 -0.47852,0.2124 -0.89356,0.2417c-0.64941,0.04883 -1.38915,0.07324 -2.2192,0.07324c-1.3916,0 -2.24367,-0.06836 -2.5562,-0.20508c-0.31738,-0.13672 -0.47607,-0.42969 -0.47607,-0.87891zM269.3574,192.13066v0.05859c0,0.25879 0.09033,0.4126 0.271,0.46143c0.20019,0.04883 0.69579,0.07324 1.4868,0.07324c0.97653,0 1.52097,-0.06836 1.6333,-0.20508c0.0488,-0.06347 0.08786,-0.19287 0.11719,-0.38818z"/><path d="M282.43,193.93196v5.7202h-1.5894v-5.5371c-1.2158,1.84573 -2.9956,3.4351 -5.3394,4.7681l-1.0034,-1.3184c1.63573,-0.7324 3.01023,-1.66747 4.1235,-2.8052c0.34179,-0.35156 0.72019,-0.80323 1.1352,-1.355h-5.1123v-1.3916h3.0835c-0.33203,-1.06447 -0.69823,-1.95557 -1.0986,-2.6733l1.4502,-0.57129c0.50293,0.791 0.88866,1.67233 1.1572,2.644l-1.4282,0.60059h3.0322v-3.3179h-5.669v-1.3916h5.669v-1.9043h1.5894v1.9043h5.7715v1.3916h-5.7715v3.3179h1.3403c0.00973,-0.02441 0.04147,-0.08301 0.0952,-0.17578c0.41992,-0.75193 0.85692,-1.77487 1.311,-3.0688l1.604,0.58594c-0.45899,1.03513 -0.92529,1.92137 -1.3989,2.6587h3.3472v1.3916h-5.2808c1.46973,1.59667 3.29103,2.85887 5.4639,3.7866l-1.0034,1.4062c-2.26073,-1.1328 -4.07227,-2.666 -5.4346,-4.5996z"/><path d="M301.62,198.58296c-1.44533,0.15137 -2.93947,0.22705 -4.4824,0.22705c-2.2754,0 -3.86963,-0.14404 -4.7827,-0.43213c-0.66407,-0.20996 -1.18897,-0.52246 -1.5747,-0.9375c-0.44434,-0.4834 -0.66651,-1.07177 -0.66651,-1.7651c0,-0.91307 0.3125,-1.73337 0.9375,-2.4609c0.53223,-0.62012 1.38916,-1.23535 2.5708,-1.8457c-0.6738,-1.51367 -1.28413,-3.2373 -1.831,-5.1709l1.6333,-0.4248c0.50781,1.85547 1.04491,3.4961 1.6113,4.9219c1.87987,-0.86427 3.8745,-1.58447 5.9839,-2.1606l0.49072,1.4868c-2.31447,0.58594 -4.61427,1.41847 -6.8994,2.4976c-0.708,0.33691 -1.21093,0.61279 -1.5088,0.82764c-0.874,0.63965 -1.311,1.35008 -1.311,2.1313c0,0.67873 0.40527,1.15237 1.2158,1.4209c0.6738,0.21973 1.87987,0.32959 3.6182,0.32959c1.60647,0 3.21537,-0.09277 4.8267,-0.27832z"/><path d="M311.65,189.53696c0.34179,0.17578 0.73486,0.38574 1.1792,0.62988l-0.93018,0.7544h4.4092l0.82764,0.82764c-1.09867,1.65527 -2.19487,3.01513 -3.2886,4.0796l-1.4868,-0.87158c0.96193,-0.87893 1.7334,-1.75297 2.3144,-2.6221h-3.6475v5.7422c0,0.66406 -0.16357,1.08886 -0.49072,1.2744c-0.21973,0.12695 -0.62989,0.19043 -1.2305,0.19043c-0.78613,0 -1.65283,-0.04883 -2.6001,-0.14648l-0.35889,-1.6333c0.91307,0.14649 1.7236,0.21973 2.4316,0.21973c0.26856,0 0.43458,-0.04395 0.49805,-0.13184c0.0488,-0.07324 0.0732,-0.20752 0.0732,-0.40283v-5.1123h-6.1377v-1.4136h7.9394c-1.6504,-0.94727 -3.3008,-1.74803 -4.9512,-2.4023l1.1865,-0.94482c1.1084,0.44433 2.0874,0.87647 2.937,1.2964c0.75193,-0.51269 1.4111,-1.01563 1.9775,-1.5088h-7.8296v-1.3916h9.9609l0.90088,0.87891c-1.27927,1.03027 -2.5073,1.92627 -3.6841,2.688z"/><path d="M320.4,190.40196c-0.63477,1.1572 -1.36963,2.10447 -2.2046,2.8418l-0.84229,-1.3623c1.09373,-0.83007 2.0166,-1.95067 2.7686,-3.3618h-2.4243v-1.3477h2.7026v-1.7725h1.5747v1.7725h2.1167v1.3477h-2.1167v0.89356c0.86913,0.49805 1.64307,1.02538 2.3218,1.582l-0.88623,1.2891c-0.46387,-0.51758 -0.9424,-0.97901 -1.4356,-1.3843v3.2593h-1.5747zM324.8971,193.91756c0.625,0.59571 1.24023,1.31104 1.8457,2.146l-1.3037,0.93018c-0.6738,-1.04007 -1.32567,-1.8506 -1.9556,-2.4316l1.04,-0.7251v-7.9102h6.2549v7.9907zM326.0031,187.12796v1.1206h3.2593v-1.1206zM326.0031,189.37646v1.106h3.2593v-1.106zM326.0031,191.59566v1.1206h3.2593v-1.1206zM317.5436,198.40716c0.56153,-0.918 0.99853,-2.0435 1.311,-3.3765l1.5234,0.43213c-0.27343,1.5674 -0.74217,2.87843 -1.4062,3.9331zM321.55,195.04536h1.604v2.3364c0,0.30273 0.07324,0.4834 0.21973,0.54199c0.18555,0.06836 0.69825,0.10254 1.5381,0.10254c0.8008,0 1.33547,-0.02686 1.604,-0.08057c0.19531,-0.04395 0.31982,-0.15625 0.37353,-0.33691c0.07325,-0.24414 0.12208,-0.68847 0.14649,-1.333l1.6186,0.37354c-0.01953,0.72753 -0.07324,1.24757 -0.16113,1.5601c-0.12207,0.44433 -0.30274,0.74707 -0.54199,0.9082c-0.20508,0.1416 -0.50049,0.22461 -0.88623,0.24902c-0.8008,0.04883 -1.62357,0.07324 -2.4683,0.07324c-1.42087,0 -2.28757,-0.08301 -2.6001,-0.24902c-0.29785,-0.16113 -0.44678,-0.50293 -0.44678,-1.0254zM330.4782,198.97116c-0.59082,-1.4258 -1.24755,-2.6343 -1.9702,-3.6255l1.3403,-0.79834c0.80567,1.0742 1.49413,2.23387 2.0654,3.479z"/></g></g><path d="M196.40649,192.26593l-0.52973,2.67895l-0.89298,-0.30271l0.49946,-2.34597h-1.42272v5.56978c0,0.57514 -0.11856,0.9737 -0.35568,1.19569c-0.23712,0.22198 -0.64829,0.33298 -1.23353,0.33298h-1.15028l-0.21189,-1.15028h1.08974c0.34307,0 0.56253,-0.05297 0.65838,-0.15892c0.09586,-0.10595 0.14379,-0.32036 0.14379,-0.64325v-5.146h-2.08867v-1.05947h2.54273c-0.70631,-0.95857 -1.30668,-1.73047 -1.8011,-2.3157l0.68109,-0.57514l1.19569,1.46812c0.81731,-1.14019 1.31677,-1.86669 1.49839,-2.17948h-3.93517v-1.0292h5.13086v1.13515c-0.25225,0.37334 -0.5701,0.83496 -0.95352,1.38488c-0.38343,0.54992 -0.74667,1.05695 -1.08974,1.5211l0.45406,0.59028h1.77083zM197.20866,189.48103h2.16435l0.37838,-1.81623h-2.96652v-1.04433h7.44656v1.04433h-3.3449l-0.40865,1.81623h3.01192v6.81088h-1.0292v-5.79681h-4.23788v5.79681h-1.01406zM204.32224,198.71356l-0.65082,0.98379c-0.33298,-0.33298 -0.84001,-0.79712 -1.5211,-1.39245c-0.68109,-0.59532 -1.30416,-1.1301 -1.86921,-1.60434c-0.32289,0.59532 -0.7946,1.13262 -1.41515,1.61191c-0.62055,0.47928 -1.43533,0.94091 -2.44435,1.38488l-0.68109,-0.99893c1.10992,-0.44397 1.9575,-0.89046 2.54273,-1.33947c0.58523,-0.44901 0.98632,-0.94091 1.20326,-1.47569c0.21694,-0.53478 0.32541,-1.20073 0.32541,-1.99786v-2.63354h1.07461v2.73949c0,0.63568 -0.06559,1.20073 -0.19676,1.69515c0.5146,0.4137 1.15028,0.93587 1.90705,1.5665c0.75676,0.63064 1.33191,1.11749 1.72542,1.46056z" fill="#000000" fill-rule="evenodd" stroke="#000000" stroke-width="0.45" stroke-linecap="round"/><path d="M215.2078,185.81829v5.05519h3.81409v1.16542h-3.81409v7.59791h-1.15028v-7.59791h-3.9049v-1.16542h3.9049v-5.05519zM208.74503,190.63131v6.38709l2.24002,-1.74056l0.40865,1.16542l-3.67787,2.75462l-0.60541,-0.87785c0.19171,-0.16144 0.31532,-0.30018 0.37081,-0.41622c0.0555,-0.11604 0.08324,-0.27496 0.08324,-0.47676v-5.61519h-1.86164v-1.18055zM209.95586,188.83022l-0.95352,0.75676c-0.96866,-1.31172 -1.74056,-2.31065 -2.3157,-2.99679l0.89298,-0.72649c0.63568,0.74667 1.42776,1.73551 2.37624,2.96652z" fill="#000000" fill-rule="evenodd" stroke="#000000" stroke-width="0.45" stroke-linecap="round"/><path d="M233.84262,192.97728v1.0292h-1.55893l-0.09081,2.34597h1.36218v1.04433h-1.39245l-0.01514,0.27244c-0.03027,0.46415 -0.11351,0.82235 -0.24973,1.07461c-0.13622,0.25225 -0.34811,0.43136 -0.63568,0.5373c-0.28757,0.10595 -0.68866,0.15892 -1.20326,0.15892h-2.25516l-0.22703,-1.05947h2.11894c0.50451,0 0.85514,-0.06811 1.0519,-0.20433c0.19676,-0.13622 0.30523,-0.38595 0.32541,-0.7492v-0.03027h-6.79574l0.37838,-3.3903h-1.18055v-1.0292h1.2865l0.33298,-3.01192c-0.30271,0.38343 -0.53478,0.66595 -0.69622,0.84758l-0.7719,-0.81731c0.55496,-0.6155 1.08217,-1.31677 1.58164,-2.1038c0.49946,-0.78703 0.90559,-1.54884 1.21839,-2.28543l1.01406,0.34811c-0.17153,0.39352 -0.36829,0.80217 -0.59028,1.22596h6.62925v1.0292h-7.2044c-0.32289,0.53478 -0.6155,0.97875 -0.87785,1.33191h7.03791l-0.12108,3.43571zM225.44254,196.35245h5.67573l0.03027,-0.56001c0.04036,-0.68613 0.06559,-1.28145 0.07568,-1.78596h-5.50924zM231.37557,190.57077h-5.26708l-0.27244,2.40651h5.43357c0.07063,-1.38236 0.10595,-2.18453 0.10595,-2.40651zM221.74953,199.57627l-1.08974,-0.33298l1.46812,-5.20654l1.0292,0.31784c-0.08072,0.28253 -0.5146,1.88182 -1.30163,4.79789zM223.55063,191.64538l-0.65082,0.95352c-1.231,-1.06956 -2.04831,-1.75569 -2.45192,-2.0584l0.65082,-0.87785zM223.97441,188.02805l-0.62055,0.89298c-0.73658,-0.60541 -1.54884,-1.24614 -2.43678,-1.92218l0.65082,-0.86271c0.56505,0.42379 1.36722,1.05442 2.40651,1.89191zM229.69555,195.53515l-0.63568,0.78703c-0.22198,-0.2018 -0.52721,-0.45406 -0.91568,-0.75676c-0.38847,-0.30271 -0.73406,-0.56505 -1.03677,-0.78703l0.57514,-0.75676c0.69622,0.50451 1.36722,1.00902 2.01299,1.51353zM227.37985,191.37294l0.57514,-0.7719c0.88794,0.64577 1.53371,1.14019 1.93732,1.48326l-0.60541,0.81731c-0.54487,-0.46415 -1.18055,-0.9737 -1.90705,-1.52866z" fill="#000000" fill-rule="evenodd" stroke="#000000" stroke-width="0.45" stroke-linecap="round"/><path d="M244.72489,187.21074h3.26922v2.16435h0.87785v0.96866h-0.87785v2.16435h-3.26922v6.87142h-1.07461v-6.87142h-3.28436v-0.93839h3.28436v-1.22596h-3.78382v-0.96866h3.78382v-1.24109h-3.0876v-0.92325h3.0876v-1.39245h1.07461zM236.09778,187.28642h3.40544v9.44442h-2.37624v1.37731h-1.0292zM237.12698,195.65623h1.34704v-7.31034h-1.34704zM240.50215,193.80972v-0.75676h0.99893v0.84758c0,0.9283 -0.05297,1.71785 -0.15892,2.36867c-0.10595,0.65082 -0.29766,1.25371 -0.57514,1.80867c-0.27748,0.55496 -0.67352,1.11497 -1.18812,1.68002l-0.75676,-0.74163c0.45406,-0.49442 0.79965,-0.96614 1.03677,-1.41515c0.23712,-0.44901 0.40361,-0.96361 0.49946,-1.5438c0.09586,-0.58019 0.14379,-1.32938 0.14379,-2.24759zM248.08492,193.0681v6.50817h-1.0292v-6.50817zM242.39406,198.09301l-0.87785,-0.21189c0.2018,-0.59532 0.37586,-1.26884 0.52217,-2.02056c0.14631,-0.75172 0.25478,-1.49587 0.32541,-2.23245l0.81731,0.07568c-0.07063,0.77694 -0.17406,1.55389 -0.31027,2.33083c-0.13622,0.77694 -0.29514,1.46308 -0.47676,2.0584zM246.88924,197.71463l-0.86271,0.24216l-0.93839,-4.25302l0.84758,-0.21189zM247.02545,189.37509v-1.24109h-2.30056v1.24109zM244.72489,190.34374v1.22596h2.30056v-1.22596z" fill="#000000" fill-rule="evenodd" stroke="#000000" stroke-width="0.45" stroke-linecap="round"/><path d="M257.80071,199.63681v-12.86499h4.78275v8.80874c0,0.62559 -0.1337,1.06704 -0.40109,1.32434c-0.26739,0.2573 -0.71893,0.38595 -1.35461,0.38595h-1.2865l-0.21189,-1.15028h1.07461c0.3128,0 0.54487,-0.03279 0.69622,-0.09838c0.15135,-0.06559 0.25225,-0.16649 0.30271,-0.30271c0.05045,-0.13622 0.07568,-0.3355 0.07568,-0.59784v-7.2044h-2.58813v11.69958zM253.82013,194.53622l0.89298,-0.48433c0.28253,0.44397 0.65082,1.04938 1.10488,1.81623c0.45406,0.76685 0.85262,1.45803 1.19569,2.07353l-0.98379,0.54487l-0.83244,-1.5438l-4.34383,1.98272l-0.48433,-0.95352c0.17153,-0.15135 0.29262,-0.28757 0.36325,-0.40865c0.07063,-0.12108 0.10595,-0.26235 0.10595,-0.42379v-10.54929h5.41843v6.88655h-4.34383v3.76869l2.73949,-1.27136c-0.38343,-0.69622 -0.66091,-1.17551 -0.83244,-1.43785zM251.91309,189.55671h3.28436v-1.93732h-3.28436zM255.19744,190.57077h-3.28436v1.89191h3.28436z" fill="#000000" fill-rule="evenodd" stroke="#000000" stroke-width="0.45" stroke-linecap="round"/><path d="M270.04516,190.22266l-0.62055,-0.87785c0.78703,-0.52469 1.51101,-1.10992 2.17191,-1.75569c0.66091,-0.64577 1.19821,-1.29154 1.61191,-1.93732l1.07461,0.46919c-0.30271,0.43388 -0.61046,0.8274 -0.92325,1.18055h4.70707v1.12001c-0.8274,1.1301 -1.84903,2.0584 -3.0649,2.78489c-1.21587,0.72649 -2.81769,1.34704 -4.80545,1.86164l-0.5146,-1.01406c1.76578,-0.40361 3.19859,-0.90055 4.29842,-1.49083c1.09983,-0.59028 2.04326,-1.34452 2.8303,-2.26273h-4.38923l-0.40865,0.37838l1.66488,1.24109l-0.71136,0.83244c-0.6155,-0.5146 -1.19569,-0.97875 -1.74056,-1.39245c-0.50451,0.38343 -0.89803,0.671 -1.18055,0.86271zM276.78036,193.53729h1.63461v1.0292h-1.63461v2.96652c0,0.50451 -0.05297,0.88541 -0.15892,1.14271c-0.10595,0.2573 -0.29514,0.43892 -0.56757,0.54487c-0.27244,0.10595 -0.671,0.15892 -1.19569,0.15892h-1.5892l-0.22703,-1.05947h1.48326c0.33298,0 0.58271,-0.02523 0.7492,-0.07568c0.16649,-0.05045 0.28,-0.14631 0.34054,-0.28757c0.06054,-0.14126 0.09081,-0.35316 0.09081,-0.63568v-2.75462h-6.29628v-1.0292h6.29628v-1.8465h1.07461zM265.4743,196.36759l-0.39352,-1.22596l2.76976,-2.24002v-6.9925h1.12001v13.69743h-1.12001v-5.29735zM267.54784,191.7816l-0.98379,0.40865l-1.42272,-4.19247l0.93839,-0.36325c0.29262,0.77694 0.78199,2.1593 1.46812,4.14707zM270.63544,195.50488l0.71136,-0.72649c0.59532,0.56505 1.29659,1.28145 2.1038,2.14921l-0.78703,0.78703c-0.77694,-0.90812 -1.45299,-1.6447 -2.02813,-2.20975z" fill="#000000" fill-rule="evenodd" stroke="#000000" stroke-width="0.45" stroke-linecap="round"/><path d="M294.20214,193.55242h-5.53951c1.31172,1.58416 3.20868,2.92111 5.69087,4.01085l-0.54487,1.15028c-2.37119,-1.09983 -4.24293,-2.48723 -5.61519,-4.1622v5.10059h-1.10488v-5.04005c-1.32182,1.6447 -3.18346,3.04219 -5.58492,4.19247l-0.56001,-1.13515c2.4721,-1.09983 4.36905,-2.4721 5.69087,-4.1168h-5.52438v-1.08974h5.97844v-3.78382h-5.13086v-1.13515h5.13086v-1.8011h1.10488v1.8011h5.16113v1.13515h-5.16113v3.78382h6.00871zM290.41832,192.25079l-0.80217,-0.7719c0.35316,-0.35316 0.72145,-0.75929 1.10488,-1.21839c0.38343,-0.4591 0.71136,-0.87532 0.98379,-1.24866l0.84758,0.72649c-0.43388,0.59532 -1.14524,1.43281 -2.13408,2.51246zM282.79013,189.75347l0.84758,-0.75676c0.80722,0.9283 1.48326,1.73551 2.02813,2.42165l-0.84758,0.7719c-0.37334,-0.49442 -1.04938,-1.30668 -2.02813,-2.43678z" fill="#000000" fill-rule="evenodd" stroke="#000000" stroke-width="0.45" stroke-linecap="round"/><path d="M306.18928,187.31669h3.25409v0.93839h-5.49411v1.77083c1.48326,-0.5146 2.67895,-1.04938 3.58706,-1.60434l0.45406,0.86271c-1.01911,0.57514 -2.35101,1.14524 -3.99572,1.71029c0.04036,0.16144 0.12613,0.27244 0.2573,0.33298c0.13117,0.06054 0.33802,0.09081 0.62055,0.09081h2.16435c0.4137,0 0.68613,-0.0555 0.81731,-0.16649c0.13117,-0.11099 0.19676,-0.33802 0.19676,-0.68109c0,-0.13117 0.02018,-0.45406 0.06054,-0.96866l1.05947,0.28757l-0.10595,1.15028c-0.04036,0.35316 -0.1236,0.62307 -0.24973,0.80974c-0.12613,0.18667 -0.31532,0.31784 -0.56757,0.39352c-0.25225,0.07568 -0.60037,0.11351 -1.04433,0.11351h-2.55786c-0.54487,0 -0.95352,-0.07568 -1.22596,-0.22703c-0.27244,-0.15135 -0.44397,-0.4137 -0.5146,-0.78703c-1.06956,0.33298 -1.97768,0.59532 -2.72435,0.78703l-0.2573,-0.99893c1.25118,-0.29262 2.22993,-0.54992 2.93625,-0.7719v-2.1038h-1.48326c-0.27244,0.95857 -0.75929,1.79605 -1.46056,2.51246c-0.70127,0.7164 -1.70776,1.43785 -3.01949,2.16435l-0.65082,-0.93839c0.84758,-0.45406 1.52866,-0.86019 2.04326,-1.21839c0.5146,-0.3582 0.92577,-0.73658 1.23353,-1.13515c0.30775,-0.39856 0.54235,-0.86019 0.70379,-1.38488h-3.57193v-0.93839h3.78382l0.01514,-0.13622c0.03027,-0.19171 0.08577,-0.68613 0.16649,-1.48326l1.12001,0.06054l-0.06054,0.59028c-0.04036,0.29262 -0.07063,0.58019 -0.09081,0.86271l-0.01514,0.10595h3.52652l-0.57514,-1.19569l0.92325,-0.34811zM307.62714,194.71784l0.62055,0.83244c-1.01911,0.64577 -1.80614,1.12001 -2.3611,1.42272c0.90812,0.56505 2.08362,0.99893 3.52652,1.30163l-0.46919,1.07461c-1.57407,-0.4137 -2.86561,-0.96866 -3.87463,-1.66488c-1.00902,-0.69622 -1.86164,-1.59425 -2.55786,-2.69408c-0.48433,0.39352 -1.03929,0.78703 -1.66488,1.18055v2.20975l3.10273,-0.93839l0.03027,1.0292l-4.40437,1.2865l-0.37838,-0.81731c0.19171,-0.08072 0.3355,-0.1791 0.43136,-0.29514c0.09586,-0.11604 0.14379,-0.26487 0.14379,-0.44649v-1.39245c-1.05947,0.56505 -2.17948,1.05947 -3.36003,1.48326l-0.36325,-0.98379c2.13912,-0.72649 3.98563,-1.65984 5.53951,-2.80003h-5.1914v-0.93839h5.99357c-0.33298,-0.55496 -0.58523,-0.95352 -0.75676,-1.19569l1.0292,-0.36325l0.98379,1.55893h5.52438v0.93839h-5.78168c0.48433,0.74667 1.03424,1.37227 1.64975,1.87678c0.86776,-0.49442 1.73047,-1.04938 2.58813,-1.66488z" fill="#000000" fill-rule="evenodd" stroke="#000000" stroke-width="0.45" stroke-linecap="round"/></g></g></svg>